<?xml version="1.0" standalone="no"?>
<!DOCTYPE svg PUBLIC "-//W3C//DTD SVG 20010904//EN"
 "http://www.w3.org/TR/2001/REC-SVG-20010904/DTD/svg10.dtd">
<svg version="1.0" xmlns="http://www.w3.org/2000/svg"
 width="720.000000pt" height="1280.000000pt" viewBox="0 0 720.000000 1280.000000"
 preserveAspectRatio="xMidYMid meet">
<metadata>
Created by potrace 1.16, written by Peter Selinger 2001-2019
</metadata>
<g transform="translate(0.000000,1280.000000) scale(0.100000,-0.100000)"
fill="#000000" stroke="none">
<path d="M0 6400 l0 -6400 3600 0 3600 0 0 1025 0 1025 -3590 0 -3590 0 0
3600 0 3600 3590 0 3590 0 0 1775 0 1775 -3600 0 -3600 0 0 -6400z m6797 3678
c152 -71 198 -271 93 -403 -27 -34 -28 -39 -14 -50 15 -11 15 -14 0 -37 -26
-40 -88 -50 -140 -23 -37 19 -70 19 -127 -1 -61 -22 -111 -13 -139 26 -19 27
-19 29 -3 39 17 9 16 11 -4 33 -56 60 -79 178 -51 269 23 77 103 146 195 168
51 13 139 3 190 -21z m-654 6 c53 -18 116 -76 143 -132 26 -54 25 -174 -3
-227 -49 -93 -119 -136 -233 -143 -63 -4 -85 -1 -128 18 -148 64 -203 241
-118 382 25 42 43 59 94 85 54 28 75 33 131 33 37 0 88 -7 114 -16z m-5802
-239 c21 -88 38 -166 38 -172 1 -8 -12 -13 -32 -13 -28 0 -34 4 -42 32 -9 29
-14 32 -50 31 -36 0 -40 -3 -47 -31 -8 -28 -13 -32 -42 -32 l-34 0 14 58 c7
31 26 110 41 175 l27 118 44 -3 45 -3 38 -160z m369 73 l1 -93 30 38 c23 27
39 37 60 37 16 0 29 -3 29 -6 0 -4 -16 -27 -35 -53 l-34 -47 21 -35 c11 -19
29 -49 40 -66 l20 -33 -36 0 c-30 0 -38 5 -57 40 -26 45 -39 43 -39 -6 0 -31
-2 -34 -30 -34 l-30 0 0 175 0 175 30 0 30 0 0 -92z m1740 -83 l0 -176 -42 1
c-24 1 -54 -1 -68 -5 -43 -11 -77 25 -85 88 -7 58 7 128 30 147 17 14 51 17
83 6 21 -7 22 -5 22 53 l0 61 30 0 30 0 0 -175z m452 83 l3 -92 25 37 c20 30
31 37 58 37 30 0 42 -12 24 -24 -5 -3 -21 -23 -36 -45 l-28 -39 34 -54 c19
-29 38 -59 42 -65 5 -10 -3 -13 -29 -13 -30 0 -39 5 -56 35 -27 45 -39 44 -39
-1 0 -34 -1 -35 -32 -32 l-33 3 -3 173 -2 172 34 0 35 0 3 -92z m728 28 l0
-64 29 14 c31 15 77 6 93 -19 4 -7 8 -58 8 -114 l0 -103 -30 0 -30 0 0 90 c0
75 -3 92 -16 97 -37 14 -49 -10 -52 -101 l-3 -86 -29 0 -30 0 0 175 0 175 30
0 30 0 0 -64z m530 3 c0 -55 2 -60 18 -53 31 13 76 5 95 -17 13 -16 17 -40 17
-101 0 -71 -2 -81 -26 -105 -21 -21 -31 -24 -57 -18 -18 4 -49 6 -69 6 l-38
-2 0 176 0 175 30 0 30 0 0 -61z m-1480 -9 c0 -38 2 -40 30 -40 25 0 30 -4 30
-25 0 -21 -5 -25 -30 -25 l-31 0 3 -67 c3 -66 4 -68 31 -71 28 -3 31 -9 21
-36 -4 -11 -19 -16 -45 -16 -54 0 -69 25 -69 117 0 66 -2 73 -20 73 -15 0 -20
7 -20 25 0 18 5 25 20 25 17 0 20 7 20 40 0 38 2 40 30 40 28 0 30 -2 30 -40z
m-2096 -61 c24 -23 34 -121 17 -172 -15 -44 -59 -66 -97 -48 -14 6 -27 11 -29
11 -3 0 -5 -30 -5 -66 l0 -65 -27 3 -28 3 -3 179 -2 179 38 -6 c22 -2 46 -1
53 4 19 11 60 1 83 -22z m405 20 c17 -6 36 -19 41 -29 6 -10 10 -62 10 -115
l0 -97 -32 3 c-18 1 -48 -1 -66 -5 -50 -12 -82 13 -82 64 0 44 20 64 83 81 28
7 37 15 35 27 -5 26 -48 28 -55 3 -6 -25 -51 -29 -60 -5 -8 21 28 67 58 75 35
10 33 10 68 -2z m290 0 c38 -14 51 -35 51 -88 l0 -41 -61 0 c-60 0 -60 0 -57
-27 3 -32 44 -46 54 -19 9 23 64 21 64 -2 0 -51 -67 -84 -124 -62 -45 17 -55
38 -56 116 0 78 20 119 63 127 12 2 25 5 28 6 3 0 20 -4 38 -10z m198 0 c32
-12 43 -26 43 -56 0 -31 -45 -33 -53 -3 -7 26 -47 27 -47 1 0 -11 12 -23 30
-31 78 -32 101 -82 61 -131 -15 -19 -29 -24 -66 -24 -37 0 -51 5 -66 24 -28
34 -25 61 7 61 18 0 28 -6 31 -21 7 -25 46 -22 51 4 3 12 -9 23 -42 37 -76 32
-89 107 -23 135 39 17 39 17 74 4z m197 -3 c31 -13 53 -55 38 -71 -14 -14 -50
-3 -55 16 -4 13 -12 20 -24 17 -29 -5 -21 -32 15 -50 73 -36 92 -81 53 -129
-15 -19 -29 -24 -66 -24 -37 0 -51 5 -66 24 -29 36 -25 61 10 61 20 0 30 -6
34 -20 7 -28 47 -27 47 0 0 15 -13 26 -45 40 -73 31 -85 108 -21 136 39 17 40
17 80 0z m205 3 c17 -6 36 -19 41 -29 6 -10 10 -62 10 -115 l0 -97 -32 3 c-18
1 -48 -1 -66 -5 -50 -12 -82 13 -82 64 0 44 20 64 83 81 28 7 37 15 35 27 -5
25 -45 27 -58 3 -13 -24 -60 -29 -60 -6 0 32 25 66 54 74 42 12 39 12 75 0z
m319 -22 c16 -15 22 -32 22 -64 l0 -43 -61 0 c-60 0 -60 0 -57 -27 3 -32 44
-46 54 -19 8 20 64 22 64 2 0 -69 -102 -98 -158 -45 -19 17 -22 31 -22 98 0
68 3 80 23 98 12 11 29 23 37 26 25 9 73 -4 98 -26z m1000 -3 c18 -21 22 -37
22 -89 0 -77 -13 -110 -50 -125 -35 -15 -93 -4 -116 21 -23 26 -31 128 -13
170 24 60 111 73 157 23z m232 16 c17 -17 20 -33 20 -125 l0 -105 -30 0 -30 0
0 90 c0 75 -3 92 -17 97 -32 12 -53 -32 -53 -113 l0 -74 -30 0 -30 0 0 120 0
120 29 0 c16 0 31 -5 33 -11 2 -6 14 -5 33 5 39 21 51 20 75 -4z m538 -13 c16
-15 22 -32 22 -64 l0 -43 -61 0 c-60 0 -60 0 -57 -27 3 -32 44 -46 54 -19 4
10 18 16 35 16 35 0 40 -29 9 -60 -27 -27 -63 -34 -105 -20 -46 15 -55 34 -55
123 0 64 3 76 23 94 12 11 29 23 37 26 25 8 74 -5 98 -26z m530 16 c18 -16 21
-32 24 -123 l3 -105 -32 -3 -33 -3 0 91 c0 72 -3 92 -15 96 -33 13 -45 -15
-45 -102 l0 -84 -35 0 -35 0 0 120 0 120 35 0 c19 0 35 -5 35 -11 0 -5 10 -3
22 5 29 21 51 20 76 -1z m227 -14 c17 -16 21 -35 23 -120 l4 -100 -44 1 c-23
1 -54 -1 -68 -5 -34 -9 -80 27 -80 61 0 42 17 62 70 79 37 12 50 22 50 36 0
26 -36 25 -52 -1 -13 -20 -52 -27 -62 -12 -10 17 29 76 54 83 36 10 82 0 105
-22z m394 20 c36 -13 61 -53 61 -99 l0 -30 -59 0 c-65 0 -73 -5 -64 -38 6 -26
48 -31 57 -7 3 9 18 15 36 15 28 0 31 -3 25 -22 -4 -13 -18 -34 -33 -47 -21
-19 -33 -22 -66 -18 -61 8 -86 43 -86 117 0 73 16 109 55 126 37 16 35 16 74
3z m204 -3 c15 -8 27 -11 27 -5 0 5 14 9 31 9 l30 0 -3 -154 c-3 -134 -5 -157
-22 -175 -42 -46 -144 -35 -166 19 -7 16 -9 34 -5 39 10 18 44 12 57 -9 27
-42 78 -15 78 41 0 18 -3 20 -12 11 -7 -7 -29 -12 -49 -12 -56 0 -79 34 -79
116 0 72 13 107 44 122 29 14 37 14 69 -2z m282 -17 c17 -16 21 -36 23 -120
l4 -100 -44 1 c-23 1 -54 -1 -68 -5 -36 -9 -80 27 -80 66 0 28 30 69 50 69 6
0 26 7 45 14 25 11 33 19 29 30 -9 22 -41 20 -56 -4 -18 -29 -58 -27 -58 3 0
68 101 98 155 46z m-3045 -99 l0 -120 -35 0 -35 0 0 113 c0 63 3 117 7 120 3
4 19 7 35 7 l28 0 0 -120z m2280 63 c19 -90 25 -92 45 -14 18 68 20 71 48 71
28 0 29 -2 23 -33 -3 -19 -25 -99 -49 -178 -43 -146 -52 -161 -92 -145 -12 4
-11 14 2 60 15 54 15 56 -17 163 -18 59 -35 114 -38 121 -3 8 7 12 30 12 34 0
35 -1 48 -57z"/>
<path d="M6613 9773 c-20 -4 -23 -11 -23 -51 l0 -47 85 0 85 0 0 46 c0 40 -3
48 -22 53 -25 6 -90 6 -125 -1z"/>
<path d="M2710 8690 c-319 -26 -722 -93 -1170 -194 -298 -67 -771 -189 -900
-232 -25 -9 -67 -22 -95 -29 -142 -38 -292 -88 -307 -103 -10 -9 -20 -31 -24
-49 -5 -26 -1 -37 19 -57 32 -32 59 -32 162 -2 1146 342 2023 516 2600 516
361 0 609 -76 646 -199 19 -65 -26 -130 -167 -239 -132 -102 -318 -207 -794
-446 -420 -211 -646 -333 -760 -409 -247 -165 -361 -305 -361 -442 0 -149 140
-283 356 -341 123 -33 518 -24 725 16 25 5 66 12 91 15 l46 6 -4 72 c-6 99 -4
96 -55 86 -262 -53 -586 -73 -728 -45 -146 29 -259 101 -273 175 -17 82 118
220 363 368 156 94 204 120 665 353 577 292 745 390 884 515 159 142 206 245
166 364 -21 63 -92 144 -166 188 -68 40 -187 80 -298 99 -103 18 -468 26 -621
14z"/>
<path d="M5085 7254 c-221 -33 -615 -126 -906 -215 -53 -16 -104 -29 -113 -29
-23 0 -20 -7 15 -47 17 -20 37 -50 46 -67 l15 -32 137 38 c486 137 729 188
916 195 145 6 210 -3 240 -33 36 -37 5 -143 -72 -240 -68 -85 -241 -215 -453
-339 l-84 -50 39 -3 c22 -2 92 -2 156 0 110 3 118 5 160 33 191 129 326 262
382 373 86 173 53 316 -88 387 -58 29 -65 30 -210 32 -82 0 -163 -1 -180 -3z"/>
<path d="M3016 6863 c-3 -10 -3 -45 -1 -78 l4 -60 36 -3 c20 -2 43 2 51 9 16
13 19 55 4 64 -6 4 -5 13 3 25 19 31 -2 54 -51 58 -32 2 -41 -1 -46 -15z"/>
<path d="M3584 6866 c-3 -7 -4 -42 -2 -77 l3 -64 32 -3 c40 -4 83 34 83 73 0
28 -16 66 -34 77 -19 13 -76 9 -82 -6z"/>
<path d="M3240 6535 c0 -84 8 -94 62 -79 37 11 54 34 43 60 -5 11 -9 35 -9 54
-1 35 -2 35 -48 38 l-48 3 0 -76z"/>
<path d="M1404 6333 c-25 -5 -41 -58 -23 -79 6 -7 7 -19 3 -26 -14 -22 -16
-61 -3 -69 9 -5 10 -12 3 -21 -14 -18 -17 -70 -4 -78 6 -4 6 -19 -1 -43 -6
-23 -6 -43 -1 -53 6 -10 5 -28 -2 -46 -8 -21 -7 -33 2 -49 7 -11 9 -25 5 -32
-13 -21 -14 -58 -3 -72 7 -8 8 -20 4 -27 -14 -22 -16 -59 -4 -73 7 -8 8 -20 4
-27 -14 -21 -16 -59 -4 -73 7 -9 8 -15 1 -19 -10 -7 -9 -71 1 -82 3 -3 2 -21
-4 -40 -6 -25 -6 -39 2 -49 7 -8 8 -20 4 -27 -17 -27 -12 -61 12 -84 26 -27
33 -44 9 -24 -17 14 -36 5 -29 -14 3 -8 0 -17 -6 -21 -8 -5 -6 -13 6 -26 13
-15 14 -22 5 -33 -10 -11 -8 -17 6 -26 16 -10 16 -11 1 -6 -20 6 -24 -14 -7
-31 8 -8 8 -21 0 -46 -10 -28 -9 -40 1 -56 14 -23 24 -26 33 -11 3 6 -1 17 -9
26 -25 24 -19 30 7 7 15 -15 30 -20 50 -16 16 3 27 1 27 -6 0 -6 8 -11 18 -11
15 1 15 2 2 13 -8 7 -22 21 -30 31 -13 18 -13 19 0 11 8 -4 25 -17 37 -28 39
-35 39 -9 0 31 -20 21 -37 42 -37 46 0 5 8 -1 19 -12 19 -22 41 -29 41 -13 0
5 -7 14 -15 21 -8 7 -15 16 -15 21 0 5 15 -6 34 -26 31 -31 56 -45 56 -30 0 3
-34 40 -75 82 -41 41 -75 79 -75 83 0 5 26 -18 59 -51 53 -54 81 -72 81 -51 0
4 -21 28 -47 53 -27 26 -61 61 -78 80 -30 35 68 -56 136 -124 21 -22 40 -34
43 -28 4 6 -19 37 -51 69 -32 32 -65 67 -73 77 -14 19 -14 19 10 0 13 -11 33
-30 43 -42 10 -13 23 -23 28 -23 18 0 8 24 -23 55 -68 66 -70 77 -3 15 38 -36
71 -68 73 -72 5 -11 22 -10 22 1 0 5 -20 30 -45 55 -25 25 -42 46 -37 46 5 0
19 -11 32 -25 24 -25 40 -32 40 -17 0 5 -9 18 -20 30 -38 41 -5 22 45 -26 28
-26 53 -46 58 -44 4 1 7 -3 7 -9 0 -14 30 -43 37 -35 3 3 -9 21 -28 40 -120
119 -165 173 -93 111 47 -41 64 -27 19 15 -14 13 -25 27 -25 31 0 5 21 -12 46
-36 42 -41 64 -55 64 -39 0 4 -15 21 -32 39 -60 57 -112 115 -106 115 3 0 40
-34 82 -75 70 -69 96 -87 96 -67 0 4 -21 28 -47 54 -70 67 -128 128 -121 128
3 0 42 -36 86 -80 45 -44 84 -76 87 -70 3 6 -20 36 -52 69 -32 32 -65 66 -73
77 -13 17 -13 17 9 -1 13 -11 49 -46 81 -77 52 -53 80 -70 80 -51 0 4 -10 17
-22 28 -13 11 -32 31 -43 45 -20 24 -20 25 0 10 11 -8 34 -30 51 -47 17 -18
34 -33 38 -33 18 0 0 28 -55 82 -33 33 -59 61 -57 63 2 2 36 -27 75 -66 39
-38 74 -69 77 -69 17 0 1 26 -40 65 -25 25 -42 45 -36 45 5 0 32 -23 60 -51
27 -27 53 -46 56 -41 3 5 -21 37 -54 71 -71 74 -65 82 8 9 29 -28 55 -49 58
-45 4 4 1 13 -6 22 -7 8 -8 15 -3 15 6 0 19 -11 29 -25 18 -25 44 -34 44 -16
0 5 -11 18 -25 29 -14 11 -25 25 -25 31 0 6 -5 11 -12 11 -6 0 -8 3 -5 7 4 3
31 -20 61 -51 37 -39 56 -54 61 -45 5 7 -6 25 -30 46 -21 18 -35 36 -32 39 2
3 35 -24 72 -60 38 -36 72 -66 77 -66 17 0 6 17 -39 62 -71 68 -202 205 -174
183 13 -11 66 -62 117 -112 82 -82 114 -106 114 -87 0 3 -36 42 -79 87 -44 45
-78 83 -77 84 2 2 58 -51 124 -117 108 -107 142 -134 142 -114 0 3 -26 32 -57
63 -32 31 -67 68 -78 82 l-20 24 29 -25 c15 -14 81 -78 147 -142 104 -104 139
-132 139 -112 0 3 -48 54 -107 113 -133 134 -186 193 -113 126 30 -27 67 -65
83 -82 16 -18 33 -33 38 -33 20 0 7 24 -33 64 -24 23 -50 50 -57 61 -18 24 74
-60 102 -92 19 -23 37 -30 37 -14 0 4 -12 20 -27 35 -14 14 -24 28 -21 31 2 3
26 -16 52 -41 55 -55 75 -52 22 3 -39 41 -50 67 -14 33 25 -23 35 -25 41 -7 2
6 2 2 0 -10 -2 -13 1 -23 7 -23 5 0 10 8 10 17 0 13 3 14 12 5 17 -17 28 -15
29 6 0 10 3 12 6 5 6 -16 30 -17 35 -2 3 8 10 6 20 -5 29 -28 53 -16 26 14 -7
7 -1 5 14 -6 15 -10 28 -22 28 -26 0 -11 30 -10 30 0 0 4 -20 28 -45 52 -34
34 -48 42 -54 32 -7 -11 -11 -10 -24 2 -8 9 -18 16 -22 16 -6 0 -49 43 -74 73
-12 15 -12 17 3 11 9 -3 16 -10 16 -15 0 -5 7 -9 15 -9 23 0 18 16 -11 39 -15
12 -21 21 -15 21 7 0 22 -11 35 -25 13 -14 26 -25 30 -25 14 0 5 24 -16 41
-11 11 -19 22 -16 25 3 3 13 -2 22 -11 9 -10 24 -14 33 -11 12 5 13 3 5 -7
-15 -17 22 -50 47 -42 24 7 72 -42 52 -54 -7 -5 -10 -14 -7 -20 4 -6 2 -11 -3
-11 -6 0 -11 5 -11 10 0 6 -4 10 -10 10 -23 0 -5 -27 69 -102 48 -48 82 -75
86 -68 4 6 -5 22 -20 36 -14 13 -22 24 -17 24 6 0 51 -40 100 -90 50 -49 94
-85 97 -80 4 6 -21 38 -55 71 -34 33 -60 62 -58 65 5 5 228 -216 228 -227 0
-4 -23 15 -50 42 -53 52 -60 56 -60 37 0 -14 196 -208 210 -208 17 0 11 10
-30 51 -22 22 -40 42 -40 46 0 7 26 -14 65 -54 18 -18 37 -33 44 -33 16 0 14
8 -12 33 -12 12 -29 31 -37 42 l-15 20 25 -20 c13 -11 38 -35 56 -52 32 -33
54 -42 54 -23 0 6 -7 10 -15 10 -8 0 -15 4 -15 9 0 4 -16 25 -35 46 -51 54
-37 54 16 0 24 -25 47 -45 52 -45 13 0 7 28 -7 33 -8 3 -20 16 -27 29 l-12 23
27 -24 c33 -31 47 -19 16 14 -36 38 -10 29 33 -11 21 -20 41 -34 44 -30 3 3
-10 22 -30 41 -39 38 -53 70 -15 35 40 -37 52 -22 16 19 -21 23 -20 23 15 -4
46 -34 61 -26 24 13 -15 16 -27 32 -27 37 0 4 8 -2 19 -13 19 -23 41 -29 41
-12 0 6 -3 10 -7 10 -5 0 -17 13 -27 28 l-19 27 29 -25 c16 -14 30 -28 32 -32
5 -11 32 -10 32 1 0 5 -12 19 -26 30 -15 12 -21 21 -15 21 7 0 29 -18 50 -41
24 -24 42 -36 46 -29 3 5 -12 28 -34 51 -42 41 -55 62 -23 38 9 -8 26 -24 37
-36 11 -13 24 -23 28 -23 9 0 9 30 0 30 -5 0 -17 13 -27 28 l-19 27 24 -22
c14 -13 28 -23 32 -23 14 0 6 23 -15 41 -11 11 -15 19 -8 19 6 0 21 -11 32
-25 11 -14 24 -25 29 -25 18 0 9 26 -16 44 -14 10 -25 23 -25 28 0 5 10 0 22
-12 24 -22 38 -26 38 -10 0 6 -4 10 -10 10 -5 0 -10 6 -10 14 0 8 -6 17 -12
19 -7 3 -8 6 -3 6 6 1 27 -15 48 -35 49 -47 60 -36 13 13 -39 41 -50 67 -14
33 24 -22 38 -26 38 -10 0 6 -4 10 -10 10 -5 0 -10 6 -10 14 0 8 -7 16 -15 20
-8 3 -15 10 -15 16 0 6 16 -5 37 -25 20 -19 40 -35 45 -35 15 0 8 18 -14 37
-27 21 -53 53 -45 53 3 0 17 -11 31 -25 23 -23 46 -33 46 -20 0 3 -11 18 -25
33 -51 55 -23 40 35 -18 33 -34 65 -58 71 -54 6 3 -11 26 -38 53 -67 66 -108
111 -101 111 4 0 20 -14 37 -31 17 -17 36 -27 42 -23 7 4 3 14 -12 28 -13 11
-31 30 -39 41 l-15 20 25 -20 c13 -11 33 -30 43 -42 10 -13 23 -23 28 -23 19
0 8 22 -31 61 -22 22 -40 43 -40 47 0 6 45 -34 96 -85 17 -18 34 -33 38 -33
16 0 2 25 -36 63 -24 23 -50 51 -58 62 l-15 20 25 -20 c13 -11 33 -30 43 -42
10 -13 23 -23 28 -23 18 0 9 26 -16 44 -14 10 -25 23 -25 29 0 6 10 1 23 -11
42 -40 51 -23 12 22 -37 43 -30 45 13 3 21 -20 41 -37 45 -37 16 0 6 23 -18
42 -14 11 -25 24 -25 29 0 6 21 -9 46 -33 25 -24 50 -44 55 -46 21 -8 5 16
-41 62 -28 27 -50 54 -50 59 0 6 15 -7 34 -27 34 -35 56 -46 56 -27 0 5 -11
18 -25 29 -14 11 -25 26 -25 32 0 7 8 3 19 -8 17 -20 41 -30 41 -16 0 3 -25
31 -55 62 -30 31 -53 58 -51 60 3 2 31 -24 64 -57 54 -56 82 -74 82 -53 0 4
-22 29 -50 55 -27 26 -50 51 -50 57 0 5 22 -14 49 -41 30 -31 52 -46 56 -39 4
6 -8 26 -27 43 -18 18 -42 44 -53 57 l-20 25 29 -25 c17 -14 40 -35 52 -47 11
-13 24 -23 28 -23 15 0 3 24 -26 54 -18 18 -42 43 -53 56 -19 24 -19 24 0 10
11 -8 45 -41 76 -72 31 -32 60 -58 63 -58 18 0 -1 28 -55 82 -33 33 -59 62
-56 64 2 2 12 -5 22 -16 22 -24 33 -25 37 -3 2 13 14 6 48 -30 25 -26 48 -47
53 -47 17 0 4 20 -43 66 -27 27 -50 53 -50 59 0 5 5 4 12 -3 7 -7 16 -12 20
-12 15 0 8 18 -17 41 -13 13 -25 28 -25 32 0 4 32 -24 72 -63 39 -38 75 -70
80 -70 17 0 6 17 -42 64 -27 27 -50 53 -50 58 0 6 43 -33 95 -86 52 -53 95
-99 95 -102 0 -4 -7 -1 -15 6 -9 7 -18 10 -21 7 -8 -8 19 -47 33 -47 7 0 13
-7 13 -16 0 -14 -3 -14 -15 -4 -9 7 -18 10 -22 6 -4 -3 12 -25 35 -48 23 -22
42 -46 42 -52 0 -5 -18 7 -40 29 -59 58 -60 35 -1 -26 28 -29 51 -57 51 -63 0
-6 -7 -3 -14 7 -10 13 -16 15 -21 7 -4 -7 5 -25 21 -41 15 -16 24 -32 21 -36
-4 -3 -7 -1 -7 5 0 7 -7 12 -15 12 -24 0 -18 -13 25 -55 22 -21 40 -43 40 -48
0 -4 -11 4 -24 18 -14 15 -30 24 -37 20 -8 -5 -4 -14 12 -29 51 -47 113 -118
92 -105 -13 8 -23 17 -23 21 0 5 -4 8 -10 8 -19 0 -10 -20 25 -57 19 -20 35
-41 35 -46 0 -6 -9 2 -21 17 -11 14 -25 26 -30 26 -19 0 -7 -22 34 -63 23 -23
49 -51 57 -62 15 -19 15 -19 -12 0 -15 11 -28 23 -28 28 0 10 -20 9 -20 -2 0
-5 19 -29 43 -54 50 -54 87 -97 67 -79 -17 15 -30 16 -30 1 0 -20 30 -40 49
-34 11 3 22 1 26 -5 8 -13 66 -3 76 12 3 5 13 3 22 -6 8 -9 20 -16 26 -16 12
0 15 17 4 22 -5 2 -21 19 -38 38 -19 23 -12 18 21 -13 56 -53 86 -50 34 3 -44
45 -37 51 9 6 25 -24 44 -35 52 -31 9 6 7 11 -6 21 -10 8 -16 16 -13 19 2 3
15 -6 28 -20 19 -21 21 -25 7 -25 -9 0 -17 -5 -17 -11 0 -9 57 -4 68 6 2 2
-10 17 -27 34 -17 18 -31 35 -31 39 0 4 13 -6 29 -23 60 -62 69 -67 107 -55
27 9 38 9 50 -1 19 -16 30 -4 14 16 -11 13 -10 14 4 9 9 -3 16 -10 16 -15 0
-5 7 -9 15 -9 23 0 18 11 -22 52 -53 54 -37 47 26 -12 29 -27 57 -50 62 -50
11 0 12 20 2 20 -5 0 -17 13 -27 28 l-19 27 29 -25 c16 -14 30 -28 32 -32 5
-11 32 -10 32 1 0 5 -12 19 -27 30 -14 12 -24 23 -22 25 2 3 24 -13 49 -35 42
-37 60 -47 60 -33 0 4 -12 18 -26 31 -14 13 -24 26 -22 28 2 2 18 -9 35 -25
30 -29 53 -38 53 -23 0 4 -12 18 -27 30 -14 13 -22 23 -17 23 6 0 27 -16 47
-35 37 -35 57 -44 57 -26 0 5 -6 12 -12 14 -8 3 -6 6 5 6 9 1 17 -4 17 -10 0
-7 9 -9 22 -6 12 4 28 2 34 -4 9 -7 24 -7 48 0 22 6 38 6 42 0 7 -11 64 -9 81
3 6 5 14 5 18 -2 3 -5 17 -10 30 -10 13 0 29 -8 34 -18 5 -10 22 -18 38 -20
83 -5 193 -57 193 -90 0 -26 -53 -72 -140 -123 -191 -113 -378 -186 -1040
-406 -958 -319 -1191 -406 -1485 -555 -227 -115 -346 -209 -404 -322 -70 -132
-27 -257 127 -373 229 -172 613 -269 1292 -327 416 -35 1281 -27 2005 19 208
13 644 45 675 50 19 2 71 7 115 10 105 7 181 14 228 21 l37 6 0 79 c0 70 -2
79 -18 79 -10 0 -106 -9 -213 -20 -283 -28 -625 -53 -1084 -80 -1458 -84
-2549 18 -2916 271 -98 68 -119 94 -119 152 0 78 143 193 395 317 77 38 163
77 190 88 28 11 86 34 130 52 150 60 470 172 885 311 784 261 946 320 1170
430 178 87 272 161 311 244 27 59 24 111 -11 173 -27 47 -54 70 -47 41 1 -6
-4 -14 -11 -16 -11 -4 -12 -1 -3 15 14 26 14 65 0 79 -8 8 -8 13 0 17 6 4 11
22 11 40 0 17 -5 37 -11 43 -8 8 -8 13 0 17 14 9 14 51 1 76 -7 13 -7 21 0 25
13 8 13 58 -1 72 -8 8 -8 13 0 17 14 9 14 73 1 81 -7 4 -7 11 -2 18 17 22 20
56 6 76 -9 12 -11 22 -4 26 14 9 13 58 -2 73 -10 10 -10 15 -1 20 15 9 15 162
-1 181 -8 11 -8 15 2 18 15 6 16 69 2 78 -7 4 -7 12 -2 18 12 18 14 68 2 83
-8 8 -8 14 0 19 14 9 13 72 -2 78 -10 3 -10 7 -2 18 6 8 11 49 12 92 0 88 -9
101 -65 85 -23 -6 -39 -6 -47 1 -7 6 -15 8 -19 5 -8 -8 -361 -9 -374 -1 -6 4
-23 3 -39 -1 -16 -4 -81 -6 -144 -5 -63 2 -119 3 -125 3 -5 0 -62 -1 -125 -3
-63 -1 -120 -5 -125 -9 -6 -4 -17 -3 -25 3 -8 5 -22 9 -30 9 -11 -1 -10 -4 4
-15 11 -8 16 -15 11 -15 -5 0 -17 8 -27 17 -15 14 -21 15 -27 4 -7 -10 -13
-10 -29 -2 -31 16 -51 13 -28 -4 11 -8 15 -15 9 -15 -6 0 -16 7 -23 15 -9 10
-17 12 -23 6 -6 -6 -4 -15 7 -26 20 -21 21 -32 1 -15 -21 17 -31 5 -14 -16 13
-16 12 -16 -6 -7 -11 6 -33 24 -49 40 -25 25 -33 28 -53 19 -12 -6 -23 -14
-23 -18 0 -12 18 -9 26 3 6 11 84 -57 84 -74 0 -5 -16 7 -35 27 -33 34 -55 45
-55 28 0 -4 5 -13 12 -20 8 -8 8 -12 1 -12 -5 0 -19 11 -29 25 -18 25 -44 34
-44 16 0 -5 10 -18 23 -28 12 -10 33 -32 47 -48 l25 -30 -25 20 c-13 11 -52
46 -85 78 -68 65 -90 60 -23 -6 67 -67 126 -134 99 -112 -14 11 -39 35 -57 53
-31 31 -54 41 -54 24 0 -4 23 -29 51 -56 28 -26 49 -50 47 -52 -3 -2 -34 25
-71 61 -60 58 -87 77 -87 59 0 -3 26 -32 58 -63 31 -31 64 -65 72 -76 14 -19
14 -19 -9 0 -14 11 -46 41 -73 68 -26 26 -50 47 -53 47 -14 0 -1 -25 28 -53
17 -18 46 -48 62 -67 l30 -35 -29 25 c-16 14 -54 51 -85 82 -31 32 -59 58 -63
58 -21 0 -2 -28 62 -91 39 -38 66 -69 62 -69 -5 0 -31 22 -58 50 -27 27 -52
50 -56 50 -18 0 -6 -22 32 -60 22 -22 40 -43 40 -47 0 -7 -55 43 -107 96 -13
13 -26 21 -30 17 -4 -3 6 -20 22 -36 16 -16 25 -33 22 -37 -4 -3 -7 -1 -7 5 0
7 -7 12 -15 12 -8 0 -15 -7 -15 -15 0 -13 -4 -12 -22 5 -21 19 -38 26 -38 14
0 -3 13 -19 30 -37 16 -17 26 -34 23 -37 -3 -3 -8 1 -10 8 -5 12 -33 17 -33 5
0 -3 7 -15 17 -25 9 -10 14 -19 12 -21 -2 -2 -55 48 -117 110 -62 62 -109 113
-104 113 5 0 47 -38 93 -85 46 -46 87 -85 92 -85 21 0 -1 29 -79 107 -47 47
-84 87 -81 89 2 2 12 -5 22 -16 23 -26 35 -25 35 2 0 21 0 21 14 2 8 -10 18
-16 21 -12 4 4 -5 23 -21 42 -33 40 -59 48 -49 15 l7 -21 -21 21 c-24 24 -30
25 -68 10 -19 -8 -132 -11 -361 -10 l-333 2 -30 -26 c-45 -37 -105 -38 -154
-1 -40 31 -162 60 -195 48 -14 -5 -46 -8 -72 -6 -26 2 -50 -1 -54 -7 -4 -7
-12 -5 -22 5 -18 15 -72 11 -72 -6 0 -6 -10 -4 -22 4 -25 14 -78 13 -78 -3 0
-6 -7 -6 -17 -1 -24 13 -83 13 -83 1 0 -6 -7 -6 -17 0 -23 11 -72 11 -79 0 -3
-5 -14 -3 -25 5 -16 11 -29 12 -55 4 -24 -6 -40 -6 -48 1 -8 7 -24 7 -50 0
-27 -7 -41 -7 -51 1 -8 7 -19 9 -26 5 -15 -10 -159 -13 -165 -4 -2 4 -23 3
-46 -2 -25 -6 -45 -6 -50 -1 -5 5 -24 6 -41 3 -18 -4 -76 -6 -129 -4 -62 2
-98 -1 -98 -8 0 -6 -6 -6 -19 1 -25 13 -64 13 -78 -1 -7 -7 -15 -6 -26 5 -9 9
-17 15 -19 15 -2 -1 -13 -4 -24 -6z m1084 -105 c5 -12 32 -10 32 2 0 6 -4 10
-9 10 -5 0 -12 8 -15 17 -5 13 0 11 21 -7 15 -14 33 -32 39 -40 21 -25 27 -3
7 27 -17 28 -17 28 2 13 11 -8 28 -25 38 -37 10 -13 23 -23 28 -23 18 0 9 26
-16 44 -14 10 -25 23 -25 29 0 6 31 -21 70 -59 38 -38 74 -70 80 -72 20 -7 10
20 -15 40 -14 11 -25 25 -24 31 0 8 2 8 6 0 5 -15 33 -18 33 -4 0 5 -11 18
-25 29 -14 11 -25 25 -25 32 0 6 29 -17 64 -52 35 -35 62 -65 60 -67 -2 -3
-18 8 -34 24 -36 34 -53 25 -20 -10 19 -21 21 -25 7 -25 -25 0 -20 -25 8 -40
14 -7 25 -20 25 -28 0 -8 -33 18 -72 57 -67 65 -88 81 -88 65 0 -3 27 -33 60
-67 33 -33 59 -62 57 -64 -2 -2 -22 15 -44 37 -38 37 -63 50 -63 33 0 -5 23
-30 50 -57 28 -27 50 -53 50 -58 0 -4 -31 23 -69 62 -62 62 -91 83 -91 64 0
-4 10 -17 23 -29 12 -12 45 -46 72 -76 60 -64 30 -40 -67 54 -63 60 -88 78
-88 61 0 -3 26 -32 58 -63 31 -32 66 -69 77 -82 20 -23 20 -24 0 -9 -11 8 -45
41 -75 73 -31 31 -59 57 -63 57 -18 0 -4 -25 36 -64 23 -23 51 -53 62 -67 l20
-24 -29 25 c-16 14 -61 58 -102 98 -40 40 -75 68 -79 62 -3 -5 32 -48 79 -95
46 -47 81 -85 77 -85 -4 0 -30 22 -57 50 -53 54 -61 58 -66 34 -2 -10 -26 8
-78 59 -85 84 -106 107 -95 107 4 0 31 -25 60 -55 31 -31 57 -50 60 -44 4 5
-8 24 -27 42 -18 18 -40 41 -48 52 -15 19 -15 19 12 0 15 -11 28 -23 28 -27 0
-11 30 -10 30 1 0 5 -12 19 -26 30 -18 14 -22 21 -11 21 8 0 18 -8 21 -17 5
-12 10 -13 18 -5 8 8 8 16 -3 28 -8 11 -1 8 19 -6 17 -13 32 -27 32 -32 0 -4
5 -8 10 -8 11 0 14 30 3 30 -5 0 -17 13 -27 28 l-19 27 29 -25 c16 -14 30 -28
32 -32z"/>
<path d="M2790 5150 c0 -5 5 -10 10 -10 6 0 10 -5 10 -11 0 -6 16 -26 36 -45
20 -19 33 -34 28 -34 -4 0 -20 12 -36 27 -15 14 -31 23 -35 19 -5 -4 4 -18 20
-31 31 -28 33 -37 11 -56 -13 -11 -19 -8 -38 14 -21 24 -46 36 -46 21 0 -3 14
-19 30 -36 24 -23 34 -28 44 -19 11 9 18 8 29 -4 9 -8 22 -15 29 -15 9 1 7 5
-4 14 -10 7 -18 21 -18 30 0 14 4 12 23 -8 17 -18 29 -23 50 -19 15 3 27 12
27 20 0 10 6 8 22 -7 12 -11 25 -20 30 -20 12 0 10 18 -3 26 -6 3 -8 16 -5 27
3 12 0 27 -6 34 -26 31 5 9 51 -37 46 -46 71 -61 71 -42 0 16 -160 163 -171
156 -7 -4 -2 -15 16 -30 16 -13 23 -24 17 -24 -6 0 -27 16 -47 37 -19 20 -38
33 -43 28 -4 -4 -1 -10 6 -12 6 -3 12 -11 12 -18 0 -7 6 -16 13 -18 9 -4 9 -6
-1 -6 -7 -1 -23 10 -36 24 -13 14 -26 25 -30 25 -16 0 -2 -22 44 -70 50 -52
65 -75 33 -49 -9 8 -42 40 -74 72 -58 58 -69 65 -69 47z"/>
<path d="M1590 4977 c0 -6 -46 -47 -102 -89 -146 -109 -154 -116 -213 -188
-80 -98 -108 -160 -112 -250 -3 -67 -1 -80 24 -127 90 -167 306 -213 733 -157
295 39 814 163 1685 404 380 105 481 131 885 229 180 43 308 71 390 84 14 2
-140 5 -341 6 -358 1 -369 0 -450 -23 -46 -13 -122 -33 -169 -46 -82 -21 -499
-134 -760 -205 -454 -124 -822 -214 -1045 -254 -361 -67 -577 -76 -699 -31
-70 27 -90 50 -92 109 -5 107 125 243 391 408 38 24 64 43 58 43 -6 0 -17 16
-23 35 -6 19 -18 35 -26 35 -8 0 -14 7 -14 15 0 8 -4 15 -10 15 -5 0 -10 -4
-10 -9 0 -15 -71 -19 -77 -4 -7 17 -23 17 -23 0z"/>
</g>
</svg>
