<?xml version="1.0" standalone="no"?>
<!DOCTYPE svg PUBLIC "-//W3C//DTD SVG 20010904//EN"
 "http://www.w3.org/TR/2001/REC-SVG-20010904/DTD/svg10.dtd">
<svg version="1.0" xmlns="http://www.w3.org/2000/svg"
 width="720.000000pt" height="1280.000000pt" viewBox="0 0 720.000000 1280.000000"
 preserveAspectRatio="xMidYMid meet">
<metadata>
Created by potrace 1.16, written by Peter Selinger 2001-2019
</metadata>
<g transform="translate(0.000000,1280.000000) scale(0.100000,-0.100000)"
fill="#000000" stroke="none">
<path d="M0 6400 l0 -6400 3600 0 3600 0 0 1025 0 1025 -3522 1 c-1938 1
-3500 5 -3473 10 28 4 88 11 135 14 167 12 756 66 820 75 36 5 113 12 172 15
l106 7 31 126 c17 70 32 141 35 157 2 17 6 37 9 45 3 8 8 29 11 45 3 17 9 47
14 67 9 34 8 37 -15 43 -14 3 -45 3 -68 -1 l-44 -6 -30 61 c-45 89 -45 89 57
91 147 3 148 3 133 44 -10 24 -15 26 -71 26 -33 0 -60 4 -60 10 0 5 -13 7 -30
4 -28 -6 -90 11 -90 25 0 8 -53 64 -85 89 l-25 20 30 30 c28 29 30 35 29 109
0 43 -5 114 -10 158 -5 44 -14 134 -18 201 -9 127 -29 192 -69 227 -17 15 -24
16 -42 7 -18 -10 -24 -8 -35 6 -12 16 -16 17 -39 5 -14 -8 -26 -18 -26 -23 0
-12 -67 -78 -79 -78 -19 0 -91 -69 -80 -76 6 -4 16 1 21 10 5 9 16 16 24 16 9
0 27 9 41 20 37 29 77 26 91 -5 19 -40 15 -63 -10 -67 -13 -2 -24 -11 -27 -23
-6 -37 -41 -75 -67 -75 -22 0 -24 -3 -18 -22 3 -13 14 -32 23 -42 15 -18 15
-19 -7 -14 -23 6 -30 -6 -11 -17 5 -4 8 -19 5 -33 -3 -15 -10 -90 -17 -167 -6
-77 -15 -142 -20 -146 -5 -3 -19 -25 -32 -50 -17 -34 -28 -45 -51 -47 -28 -4
-28 -3 -21 40 4 24 11 51 16 60 14 27 59 236 59 275 0 35 -24 92 -44 105 -20
14 -107 9 -122 -7 -9 -8 -26 -15 -38 -15 -35 0 -73 -35 -79 -72 -5 -33 13
-108 39 -161 27 -55 19 -73 -47 -112 -33 -19 -64 -35 -68 -35 -4 0 -14 -18
-21 -40 -13 -39 -33 -52 -43 -27 -4 9 -6 9 -6 -1 -1 -8 -6 -10 -13 -5 -26 16
-48 13 -48 -6 0 -38 -10 -51 -31 -40 -33 17 -58 2 -65 -41 -4 -21 -13 -41 -20
-44 -8 -3 -14 -2 -14 3 0 4 -11 6 -25 3 -17 -3 -25 0 -25 9 0 12 -2 12 -9 1
-4 -8 -12 -12 -17 -10 -5 1 -10 -12 -12 -29 -3 -31 -1 -33 27 -33 43 0 45 -12
8 -60 -51 -68 -57 -82 -57 -142 0 -66 -7 -89 -25 -82 -16 7 -27 -21 -19 -52 4
-14 2 -24 -2 -23 -39 7 -54 -2 -56 -33 -11 -208 -16 747 -17 3555 l-1 3347
3590 0 3590 0 0 1775 0 1775 -3600 0 -3600 0 0 -6400z m6796 3680 c151 -69
198 -267 95 -405 -25 -34 -27 -41 -14 -50 14 -10 14 -14 -1 -37 -26 -40 -88
-50 -140 -23 -23 12 -38 13 -85 4 -31 -7 -78 -12 -105 -13 -42 -1 -51 3 -72
29 -22 28 -23 31 -7 42 15 12 15 15 -5 35 -85 91 -82 269 6 361 77 81 220 106
328 57z m-653 4 c52 -18 116 -76 142 -130 57 -121 8 -276 -107 -339 -77 -42
-185 -47 -259 -13 -106 49 -153 125 -152 244 1 110 42 177 135 223 50 25 73
31 128 31 36 0 87 -7 113 -16z m-5802 -244 c21 -91 39 -168 39 -172 0 -5 -15
-8 -33 -8 -28 0 -34 4 -42 32 -9 29 -14 32 -50 31 -36 0 -40 -3 -47 -31 -8
-28 -13 -32 -42 -32 l-34 0 14 58 c7 31 26 110 41 175 l28 118 44 -3 44 -3 38
-165z m371 78 l3 -93 25 37 c20 31 31 38 58 38 17 0 32 -3 32 -6 0 -4 -16 -28
-35 -53 -30 -42 -33 -50 -21 -67 7 -10 25 -40 40 -66 l28 -48 -35 0 c-31 0
-39 5 -58 40 -26 45 -39 43 -39 -6 0 -31 -2 -34 -30 -34 l-30 0 0 175 0 175
30 0 29 0 3 -92z m1738 -83 l0 -176 -42 1 c-24 1 -55 -1 -69 -5 -19 -5 -33 -1
-55 18 -28 24 -29 29 -28 107 0 68 4 84 21 101 22 22 54 28 91 15 21 -7 22 -5
22 53 l0 61 30 0 30 0 0 -175z m452 83 l3 -92 25 37 c20 30 31 37 58 37 30 0
42 -12 24 -24 -5 -3 -21 -23 -36 -44 l-27 -40 40 -66 41 -66 -34 0 c-28 0 -38
7 -62 43 l-29 42 -3 -42 c-3 -42 -4 -43 -38 -43 l-34 0 0 175 0 175 35 0 34 0
3 -92z m728 27 l0 -66 30 16 c33 17 60 13 85 -11 11 -12 15 -40 15 -120 l0
-104 -30 0 -30 0 0 90 c0 75 -3 92 -16 97 -37 14 -49 -10 -52 -101 l-3 -86
-29 0 -30 0 0 175 0 175 30 0 30 0 0 -65z m530 4 c0 -55 2 -60 18 -53 32 14
75 7 94 -16 14 -17 18 -40 18 -102 0 -71 -2 -81 -26 -105 -21 -21 -31 -24 -57
-18 -18 4 -49 6 -69 6 l-38 -2 0 176 0 175 30 0 30 0 0 -61z m-1480 -9 c0 -38
2 -40 30 -40 25 0 30 -4 30 -25 0 -21 -5 -25 -30 -25 l-31 0 3 -67 c3 -66 4
-68 31 -71 28 -3 31 -9 21 -36 -8 -22 -72 -21 -96 1 -14 13 -18 31 -18 90 0
66 -2 75 -20 80 -13 3 -20 14 -20 29 0 17 6 24 20 24 16 0 20 7 20 33 0 40 6
47 37 47 20 0 23 -5 23 -40z m-2096 -61 c24 -23 34 -121 17 -172 -15 -44 -59
-66 -97 -48 -14 6 -27 11 -29 11 -3 0 -5 -30 -5 -66 l0 -65 -27 3 -28 3 -3
179 -2 179 37 -5 c21 -3 47 -2 58 3 26 10 55 2 79 -22z m405 20 c17 -6 36 -19
41 -29 6 -10 10 -62 10 -115 l0 -97 -32 3 c-18 1 -48 -1 -66 -5 -50 -12 -82
13 -82 64 0 44 20 64 83 81 28 7 37 15 35 27 -5 26 -48 28 -55 3 -6 -25 -51
-29 -60 -5 -8 21 28 67 58 75 35 10 33 10 68 -2z m290 0 c38 -14 51 -35 51
-88 l0 -41 -61 0 c-60 0 -60 0 -57 -27 3 -32 44 -46 54 -19 4 10 18 16 35 16
35 0 39 -25 10 -61 -27 -34 -99 -34 -135 0 -23 22 -26 32 -26 96 0 79 20 120
63 128 12 2 25 5 28 6 3 0 20 -4 38 -10z m198 0 c32 -12 43 -26 43 -56 0 -31
-45 -33 -53 -3 -7 26 -47 27 -47 1 0 -11 12 -23 30 -31 78 -32 101 -82 61
-131 -15 -19 -29 -24 -66 -24 -37 0 -51 5 -66 24 -29 36 -25 61 11 61 24 0 30
-4 30 -21 0 -15 5 -20 22 -17 41 6 32 33 -19 59 -91 46 -80 134 19 148 4 1 19
-4 35 -10z m191 0 c29 -10 59 -59 45 -73 -15 -15 -51 -5 -56 15 -4 13 -12 20
-24 17 -29 -5 -21 -32 15 -50 73 -36 92 -81 53 -129 -15 -19 -29 -24 -66 -24
-37 0 -51 5 -66 24 -29 36 -25 61 10 61 21 0 30 -6 34 -21 7 -25 40 -22 45 3
2 12 -11 24 -43 39 -74 35 -85 107 -21 135 38 16 36 16 74 3z m211 0 c17 -6
36 -19 41 -29 6 -10 10 -62 10 -115 l0 -97 -32 3 c-18 1 -48 -1 -66 -5 -50
-12 -82 13 -82 64 0 44 20 64 83 81 28 7 37 15 35 27 -5 25 -45 27 -58 3 -11
-22 -44 -28 -55 -10 -12 18 16 68 44 78 35 13 43 13 80 0z m318 -21 c17 -16
23 -33 23 -65 l0 -43 -61 0 c-60 0 -60 0 -57 -27 3 -32 44 -46 54 -19 9 23 64
21 64 -2 0 -49 -66 -84 -121 -64 -50 20 -59 37 -59 121 0 68 3 80 23 98 12 11
29 23 37 26 25 10 73 -2 97 -25z m1001 -4 c19 -21 22 -36 22 -99 0 -70 -1 -74
-32 -100 -27 -23 -39 -26 -71 -22 -59 8 -80 35 -85 107 -3 36 1 72 9 91 24 60
111 73 157 23z m240 8 c8 -10 12 -52 12 -119 l0 -103 -30 0 -30 0 0 90 c0 75
-3 92 -17 97 -32 12 -53 -32 -53 -113 l0 -74 -30 0 -30 0 0 120 0 120 29 0
c16 0 31 -5 33 -11 2 -6 14 -5 33 5 33 17 63 13 83 -12z m530 -5 c16 -15 22
-32 22 -64 l0 -43 -61 0 c-60 0 -60 0 -57 -27 3 -32 44 -46 54 -19 4 10 18 16
35 16 35 0 40 -29 9 -60 -27 -27 -63 -34 -105 -20 -46 15 -55 34 -55 123 0 64
3 76 23 94 12 11 29 23 37 26 25 9 73 -4 98 -26z m539 9 c6 -6 14 -57 17 -118
l5 -108 -34 0 -35 0 0 90 c0 72 -3 92 -15 96 -33 13 -45 -15 -45 -102 l0 -84
-35 0 -35 0 0 120 0 120 35 0 c19 0 35 -4 35 -9 0 -6 12 -3 28 4 28 15 58 12
79 -9z m218 -7 c17 -16 21 -35 23 -120 l4 -100 -44 1 c-23 1 -54 -1 -68 -5
-35 -9 -80 27 -80 64 0 39 19 60 70 75 33 10 46 19 48 35 5 29 -44 30 -53 0
-5 -15 -14 -19 -33 -17 -22 2 -26 7 -24 28 5 31 28 58 56 63 35 7 80 -4 101
-24z m400 16 c37 -15 55 -46 55 -96 0 -29 0 -29 -59 -29 -63 0 -76 -8 -66 -40
8 -24 55 -28 55 -5 0 11 11 15 36 15 32 0 35 -2 29 -22 -4 -13 -18 -34 -33
-47 -21 -19 -33 -22 -65 -18 -59 8 -80 35 -85 107 -5 75 11 118 52 136 39 17
40 17 81 -1z m198 1 c15 -8 27 -11 27 -5 0 5 14 9 31 9 l30 0 -3 -154 c-3
-134 -5 -157 -22 -175 -42 -46 -144 -35 -166 19 -7 16 -9 34 -5 39 10 18 44
12 57 -9 26 -41 78 -15 78 40 0 17 -3 19 -19 10 -36 -19 -78 -12 -100 16 -16
21 -21 41 -21 90 0 72 13 107 44 122 29 14 37 14 69 -2z m285 -22 c20 -22 22
-36 22 -120 l0 -95 -42 1 c-24 1 -55 -1 -70 -5 -21 -6 -32 -2 -52 18 -46 46
-30 99 37 118 52 15 67 26 60 45 -8 21 -41 17 -55 -6 -17 -26 -58 -27 -58 -1
0 34 12 53 44 67 40 18 85 9 114 -22z m-3048 -94 l0 -120 -35 0 -35 0 0 120 0
120 35 0 35 0 0 -120z m2280 63 c19 -90 25 -92 45 -14 18 69 20 71 51 71 l32
0 -24 -82 c-79 -281 -76 -273 -113 -276 -28 -3 -33 -1 -27 14 29 76 29 101 -4
209 -17 59 -34 113 -37 121 -4 10 4 14 29 14 34 0 35 -1 48 -57z m-3760 -6458
c-12 -13 -35 -29 -51 -35 -27 -12 -29 -16 -28 -69 0 -31 4 -82 8 -113 7 -60
-3 -88 -33 -88 -13 0 -16 11 -17 58 0 31 -3 85 -6 120 -8 90 7 119 64 128 44
6 72 24 74 47 1 7 3 4 6 -6 3 -11 -5 -29 -17 -42z"/>
<path d="M6613 9773 c-20 -4 -23 -11 -23 -51 l0 -47 85 0 85 0 0 46 c0 40 -3
48 -22 53 -25 6 -90 6 -125 -1z"/>
<path d="M747 7653 c-4 -3 -7 -55 -7 -114 l0 -107 64 -7 c63 -7 101 2 118 29
13 19 9 63 -7 76 -14 12 -14 15 1 31 25 28 11 67 -31 85 -35 14 -126 19 -138
7z"/>
<path d="M1064 7577 c-3 -8 -4 -47 -2 -88 3 -71 4 -74 28 -74 24 0 25 4 28 60
4 66 10 79 35 69 14 -5 17 -20 17 -71 0 -64 0 -64 28 -61 24 3 27 7 30 48 5
73 -5 110 -36 121 -18 7 -34 7 -49 0 -14 -7 -24 -7 -28 -1 -9 15 -45 12 -51
-3z"/>
<path d="M1760 5637 c0 -16 111 -20 1175 -37 980 -16 1748 -30 2104 -37 285
-5 333 -4 329 8 -5 15 -6 15 -1383 38 -871 15 -1627 29 -1957 37 -231 5 -268
4 -268 -9z"/>
<path d="M3754 4161 c-44 -27 -71 -76 -83 -151 -9 -55 -8 -67 6 -82 23 -25 51
-22 65 7 9 21 14 23 32 13 12 -6 24 -16 28 -22 9 -14 22 19 14 39 -3 9 -19 15
-41 15 -41 0 -56 23 -31 48 12 13 19 14 28 4 13 -13 50 -16 61 -5 4 3 -1 15
-10 25 -13 14 -14 21 -4 31 9 9 18 8 39 -3 34 -20 41 -49 13 -57 -25 -6 -27
-20 -5 -44 21 -23 11 -53 -27 -79 -16 -12 -29 -25 -29 -30 0 -9 106 -113 121
-118 6 -3 9 59 7 165 -3 154 -5 171 -26 205 -35 57 -102 73 -158 39z"/>
<path d="M4592 3887 c-22 -62 -42 -231 -42 -362 0 -145 9 -176 34 -127 9 17
16 41 16 53 0 12 6 30 14 38 23 26 46 104 34 118 -7 8 -8 58 -3 142 4 71 4
138 0 150 -10 32 -39 26 -53 -12z"/>
<path d="M3623 3844 c-59 -35 -106 -91 -98 -118 4 -11 9 -43 12 -71 4 -33 15
-62 34 -85 15 -19 30 -49 34 -67 3 -17 13 -37 21 -44 8 -6 14 -20 14 -30 0
-20 -48 -99 -60 -99 -8 0 -60 -100 -60 -115 0 -14 -84 -95 -98 -95 -9 0 -9 -7
0 -25 6 -13 15 -22 19 -19 14 8 11 -4 -18 -82 l-27 -72 -46 4 c-41 4 -51 0
-87 -31 -22 -19 -46 -48 -53 -65 -15 -35 -30 -24 -30 21 0 26 -24 46 -35 29
-10 -15 -85 -23 -101 -9 -8 7 -49 13 -96 14 -67 2 -82 5 -91 20 -6 11 -27 36
-47 56 l-36 37 12 -57 c7 -31 22 -74 33 -95 19 -37 20 -41 4 -58 -20 -23 -95
-25 -113 -3 -7 8 -18 15 -26 15 -7 0 -17 8 -23 17 -5 10 -24 22 -43 28 -24 9
-34 18 -36 38 -3 21 4 30 41 51 24 14 50 26 58 26 8 0 19 13 25 28 10 25 16
28 41 25 35 -6 63 17 63 51 0 12 7 44 16 70 15 45 15 51 0 82 -9 19 -23 72
-31 117 -26 151 -33 179 -42 186 -5 3 -16 17 -25 31 -24 38 -82 54 -125 33
-44 -21 -106 -96 -148 -181 -26 -51 -43 -73 -65 -82 -16 -7 -32 -21 -35 -31
-4 -10 -18 -21 -33 -24 -68 -14 -100 -26 -106 -40 -8 -21 -28 -306 -22 -313 7
-6 -20 -45 -88 -129 -18 -23 -55 -91 -81 -151 -34 -77 -55 -114 -76 -127 -27
-19 -28 -21 -13 -44 13 -19 14 -28 4 -50 -6 -14 -16 -50 -21 -80 -5 -30 -13
-59 -18 -64 -5 -5 -31 -9 -59 -9 -42 1 -56 -4 -89 -33 -21 -18 -50 -35 -63
-38 -37 -6 498 -5 690 2 140 5 164 8 161 21 -2 8 -5 32 -6 53 -2 21 -8 44 -14
50 -13 13 -15 83 -3 91 13 8 45 -53 38 -71 -4 -8 -1 -22 6 -30 6 -8 14 -33 17
-56 l6 -42 113 -2 c112 -3 113 -2 122 23 6 14 10 37 11 52 0 25 1 25 12 -8 9
-24 9 -37 2 -42 -16 -12 15 -28 57 -28 20 0 39 3 41 8 3 4 -2 32 -10 62 -9 37
-12 75 -7 114 5 49 3 66 -17 107 -12 27 -26 49 -31 49 -13 0 -9 -66 8 -116 17
-50 15 -58 -9 -49 -18 7 -27 36 -27 87 0 20 -5 40 -11 44 -7 4 -9 -11 -4 -52
8 -67 8 -61 6 -94 -1 -20 -3 -22 -11 -9 -16 27 -24 173 -11 197 9 17 8 22 -9
27 -11 4 -28 21 -36 38 -9 17 -22 37 -30 44 -15 15 -202 38 -249 30 -35 -6
-79 11 -81 31 -1 7 -2 16 -3 21 0 5 -11 7 -23 3 -17 -4 -20 -2 -15 12 4 10 7
22 7 27 0 5 10 4 23 -3 14 -8 85 -14 192 -18 l170 -5 58 -43 c40 -30 64 -41
77 -37 12 4 20 2 20 -5 0 -8 20 -11 64 -9 72 4 82 0 67 -29 -5 -10 -13 -59
-17 -108 -4 -53 -12 -95 -20 -105 -8 -8 -14 -19 -14 -22 0 -14 59 -6 68 8 4 9
26 18 48 22 21 3 52 16 67 27 21 15 44 21 82 21 29 0 48 3 42 7 -9 6 -9 8 0 8
22 0 43 -12 43 -25 0 -7 5 -15 12 -17 8 -3 5 -17 -10 -47 -34 -66 -19 -97 58
-120 25 -7 65 -22 90 -34 41 -20 59 -22 235 -21 193 1 265 7 265 24 0 6 -18
10 -40 10 -39 0 -40 1 -40 35 0 30 3 35 23 35 19 0 25 11 45 73 22 70 23 127
1 127 -19 0 -46 42 -41 65 2 14 8 22 13 19 12 -7 11 105 0 158 -30 134 -41
197 -41 233 0 23 -5 46 -11 52 -6 6 -9 17 -7 25 8 22 55 -84 63 -142 4 -30 16
-71 27 -92 11 -21 18 -49 16 -63 -3 -14 0 -26 8 -29 10 -4 14 -24 14 -64 0
-32 5 -63 11 -69 7 -7 16 -90 22 -202 l11 -191 142 0 c79 0 145 4 148 9 3 5
10 37 16 72 5 35 16 105 25 154 20 118 35 215 38 240 1 11 -5 21 -15 23 -13 2
-16 -1 -12 -12 4 -11 -4 -18 -28 -24 -28 -8 -36 -6 -50 10 -22 25 -23 48 -3
95 8 19 15 48 15 64 0 35 -35 63 -60 49 -14 -7 -22 -4 -34 13 -15 21 -16 21
-30 4 -17 -22 -23 -227 -6 -237 14 -9 15 -186 1 -223 -6 -16 -11 -56 -11 -91
l0 -63 -28 5 c-27 4 -29 8 -46 92 -19 91 -15 144 10 154 8 3 14 20 15 43 0 41
17 94 18 61 1 -24 21 -23 21 0 0 11 -7 34 -16 51 -12 24 -15 46 -10 82 4 28 2
57 -4 68 -8 16 -6 21 12 27 20 6 20 8 -13 25 -25 13 -47 17 -84 13 -70 -7 -82
3 -66 56 11 36 15 40 34 33 36 -12 109 -4 122 14 11 15 13 15 23 -2 9 -17 12
-17 27 -5 14 12 18 12 26 -1 5 -8 9 -17 9 -21 0 -5 7 -8 15 -8 9 0 15 9 15 25
0 14 -4 25 -9 25 -5 0 -14 14 -21 30 -7 17 -19 30 -27 30 -10 0 -14 9 -12 33
3 33 -6 57 -21 57 -15 0 -21 -36 -11 -63 8 -20 6 -28 -8 -41 -17 -16 -19 -16
-26 1 -4 10 -7 33 -6 51 2 17 -2 32 -8 32 -6 0 -11 -17 -11 -37 l-1 -38 -19
23 c-10 12 -22 22 -27 21 -21 -3 -54 15 -52 30 3 37 -2 71 -11 71 -5 0 -10
-11 -10 -25 0 -14 -3 -25 -6 -25 -4 0 -34 26 -68 58 -34 31 -83 68 -109 82
-40 21 -53 35 -77 85 -29 60 -69 106 -102 118 -13 5 -18 17 -18 46 0 22 4 42
9 45 15 10 71 -44 87 -84 10 -26 44 -60 111 -116 53 -43 108 -89 121 -101 26
-24 42 -29 42 -14 0 5 14 14 30 20 36 12 40 31 6 31 -25 0 -56 48 -56 88 0 12
-4 23 -9 26 -10 7 -24 -22 -16 -34 3 -4 -2 -13 -9 -19 -12 -10 -14 0 -13 62 2
92 -10 109 -106 141 -10 3 -15 10 -12 16 3 5 2 10 -4 10 -5 0 -11 -10 -13 -21
-6 -43 -33 -46 -76 -8 -54 46 -60 64 -28 94 20 19 26 34 26 67 0 24 -4 48 -8
54 -14 22 -48 21 -89 -2z m-948 -377 c13 -10 16 -21 11 -41 -4 -15 -11 -24
-16 -21 -22 13 -8 -28 15 -46 28 -23 24 -55 -5 -39 -10 6 -31 10 -47 10 -15 0
-40 7 -55 14 -27 14 -28 14 -28 -10 0 -14 4 -23 9 -19 6 3 15 -4 21 -15 6 -12
21 -20 35 -20 14 0 25 -4 25 -10 0 -18 35 -10 48 10 16 27 32 17 32 -20 0 -23
-7 -32 -37 -47 l-38 -18 0 -95 0 -95 -32 -2 -32 -1 -3 111 c-2 86 0 115 11
124 11 10 9 14 -13 25 -50 22 -72 101 -41 142 13 17 18 18 40 8 49 -23 77 -5
38 23 -15 11 -15 15 -4 29 16 20 41 21 66 3z"/>
<path d="M3218 3330 c-3 -27 -11 -57 -18 -65 -24 -29 -60 -129 -60 -165 0 -20
-5 -41 -11 -47 -22 -22 -1 -31 48 -21 27 6 75 13 108 16 57 7 60 8 63 37 2 16
8 32 13 35 14 9 -2 77 -23 99 -10 12 -29 21 -41 21 -12 1 -35 11 -51 25 l-29
24 36 36 c41 41 40 55 -2 55 -27 0 -29 -3 -33 -50z"/>
<path d="M1763 2829 c-15 -19 -54 -182 -45 -190 4 -4 18 -10 31 -14 20 -6 23
-5 17 11 -11 29 4 106 20 100 7 -3 16 -1 19 4 10 17 20 11 33 -20 11 -24 20
-30 43 -30 17 0 40 5 51 11 17 9 19 17 14 52 -11 65 -70 91 -96 43 -11 -22
-48 -41 -59 -31 -2 3 -7 21 -10 41 -5 30 -8 34 -18 23z"/>
</g>
</svg>
