<?xml version="1.0" standalone="no"?>
<!DOCTYPE svg PUBLIC "-//W3C//DTD SVG 20010904//EN"
 "http://www.w3.org/TR/2001/REC-SVG-20010904/DTD/svg10.dtd">
<svg version="1.0" xmlns="http://www.w3.org/2000/svg"
 width="720.000000pt" height="1280.000000pt" viewBox="0 0 720.000000 1280.000000"
 preserveAspectRatio="xMidYMid meet">
<metadata>
Created by potrace 1.16, written by Peter Selinger 2001-2019
</metadata>
<g transform="translate(0.000000,1280.000000) scale(0.100000,-0.100000)"
fill="#000000" stroke="none">
<path d="M0 6400 l0 -6400 3600 0 3600 0 0 1025 0 1025 -2089 0 c-1149 0
-2096 3 -2105 6 -26 10 -19 31 20 60 33 25 35 31 29 63 -3 20 -9 84 -13 143
-6 91 -10 109 -27 122 -26 20 -54 26 -61 15 -3 -5 -16 -9 -29 -9 -28 0 -41 32
-32 78 3 15 8 43 12 62 6 30 -2 54 -49 156 -31 66 -56 131 -56 143 0 12 11 39
25 59 32 47 34 108 4 146 -14 18 -19 37 -17 63 3 37 4 38 45 41 52 4 118 -28
141 -68 20 -34 32 -41 61 -33 17 4 19 10 13 32 -13 47 -5 101 19 127 26 28 57
30 115 8 60 -23 96 -3 130 73 13 32 23 64 22 73 -3 15 -31 26 -131 52 -98 26
-121 73 -55 113 18 10 43 30 55 43 39 42 18 52 -100 46 -159 -8 -164 -9 -187
-54 -11 -22 -20 -46 -20 -54 0 -8 -9 -39 -20 -68 -17 -46 -29 -59 -90 -101
-90 -62 -122 -71 -152 -48 -37 29 -82 49 -98 43 -21 -7 -60 -43 -60 -57 0 -12
-59 -60 -75 -60 -5 0 -28 -27 -50 -60 -22 -34 -52 -71 -68 -84 -37 -31 -99
-39 -132 -17 -31 20 -31 33 -3 94 28 59 25 82 -19 154 -37 61 -37 60 -18 173
3 17 1 52 -4 80 -8 41 -7 51 7 61 9 6 22 10 29 7 7 -3 13 0 13 6 0 7 23 11 60
11 56 0 110 15 110 31 0 4 20 16 44 28 40 18 44 23 41 50 -6 44 -20 67 -59 90
-39 25 -109 27 -146 6 -14 -8 -51 -14 -82 -15 -55 0 -60 2 -113 50 -55 50 -56
50 -124 50 -53 0 -73 4 -91 20 -21 18 -34 19 -167 16 -136 -4 -145 -3 -168 17
-22 20 -23 27 -16 65 6 28 20 56 41 77 31 32 33 33 66 19 18 -8 49 -14 68 -14
47 0 77 -13 119 -50 l35 -30 7 41 c12 69 89 129 167 129 46 0 49 -2 95 -60 47
-59 49 -60 90 -55 24 2 51 9 60 14 10 6 46 20 80 32 44 15 79 37 120 75 31 30
59 54 60 54 12 0 42 44 44 62 4 45 -1 58 -22 58 -12 0 -39 19 -63 44 l-41 43
-120 7 c-67 4 -128 4 -136 1 -9 -3 -29 8 -52 30 -40 39 -60 43 -111 19 -33
-16 -50 -41 -76 -109 -9 -24 -28 -38 -90 -68 -54 -27 -85 -37 -100 -32 -12 4
-36 4 -54 1 -35 -7 -56 -45 -56 -104 0 -21 -7 -35 -19 -42 -28 -15 -31 -13
-31 19 0 25 -5 30 -36 36 -21 4 -48 2 -64 -5 -48 -20 -73 -10 -101 43 -33 62
-67 97 -77 80 -4 -7 -48 -32 -97 -57 -90 -45 -176 -118 -189 -161 -3 -11 3
-45 14 -75 38 -100 40 -134 14 -177 -48 -79 -63 -110 -69 -145 -10 -51 7 -78
50 -78 36 0 149 -26 178 -42 29 -15 37 -53 28 -120 -6 -48 -14 -67 -35 -85
-57 -48 -128 -20 -166 65 -29 65 -54 85 -119 93 -58 8 -77 23 -88 69 -3 14
-24 62 -47 108 -37 74 -46 85 -86 104 -110 50 -153 75 -185 108 l-34 35 14 49
c8 27 15 61 15 76 0 18 19 47 62 96 35 38 72 86 82 106 14 25 34 43 70 59 50
24 51 25 48 64 -4 56 -22 78 -85 109 -56 27 -67 45 -67 112 0 23 -2 23 -59 18
-58 -7 -58 -6 -86 30 -32 42 -63 45 -81 8 -20 -40 -33 -47 -97 -52 l-62 -5 -3
-47 c-2 -30 3 -61 14 -84 23 -48 22 -89 -3 -117 -11 -12 -23 -31 -27 -42 -8
-28 -43 -48 -98 -55 -41 -6 -47 -4 -52 14 -3 12 -6 1109 -6 2439 l0 2417 3590
0 3590 0 0 1775 0 1775 -3600 0 -3600 0 0 -6400z m6730 3699 c64 -14 102 -34
140 -71 94 -96 103 -243 21 -353 -25 -34 -27 -41 -14 -50 13 -10 13 -15 2 -33
-26 -42 -91 -54 -143 -27 -24 13 -38 13 -90 3 -108 -20 -145 -17 -172 17 -22
28 -23 31 -7 42 15 12 15 15 -5 35 -55 60 -78 178 -50 269 23 77 103 146 195
168 51 12 70 12 123 0z m-563 -22 c112 -59 170 -203 129 -320 -41 -113 -135
-177 -261 -177 -176 0 -294 136 -267 306 16 95 64 156 157 197 52 22 194 19
242 -6z m-5858 -104 c15 -56 71 -300 71 -307 0 -3 -16 -6 -35 -6 -30 0 -35 3
-35 24 0 31 -13 39 -59 39 -31 0 -36 -3 -43 -31 -8 -28 -13 -32 -42 -32 l-34
0 14 58 c7 31 25 110 40 175 l28 117 42 0 c41 0 44 -2 53 -37z m401 -55 l1
-93 30 38 c23 27 39 37 60 37 16 0 29 -3 29 -6 0 -4 -16 -27 -35 -53 l-34 -47
21 -35 c11 -19 29 -49 40 -66 l20 -33 -36 0 c-30 0 -38 5 -57 40 -26 45 -39
43 -39 -6 0 -31 -2 -34 -30 -34 l-30 0 0 175 0 175 30 0 30 0 0 -92z m1740
-83 l0 -176 -42 1 c-24 1 -55 -1 -69 -5 -19 -5 -33 -1 -55 18 -28 24 -29 29
-28 107 1 68 4 85 21 102 22 21 54 27 91 14 21 -7 22 -5 22 53 l0 61 30 0 30
0 0 -175z m452 83 l3 -92 25 37 c20 30 31 37 58 37 30 0 42 -12 24 -24 -5 -3
-21 -23 -36 -44 l-27 -40 41 -66 41 -67 -38 3 c-32 3 -41 9 -58 40 -26 49 -35
48 -35 -2 0 -39 -1 -40 -35 -40 l-35 0 0 175 0 175 35 0 34 0 3 -92z m728 27
l0 -66 30 16 c33 17 60 13 85 -11 11 -12 15 -40 15 -120 l0 -104 -30 0 -30 0
0 90 c0 75 -3 92 -16 97 -37 14 -49 -10 -52 -101 l-3 -86 -29 0 -30 0 0 175 0
175 30 0 30 0 0 -65z m530 4 c0 -58 1 -60 23 -53 76 26 107 -8 107 -118 0 -71
-2 -81 -26 -105 -20 -20 -31 -24 -52 -18 -15 4 -46 6 -69 5 l-43 -1 0 176 0
175 30 0 30 0 0 -61z m-1480 -9 c0 -38 2 -40 30 -40 25 0 30 -4 30 -25 0 -21
-5 -25 -30 -25 l-31 0 3 -67 c3 -66 4 -68 31 -71 21 -3 27 -8 23 -19 -3 -8 -6
-19 -6 -24 0 -16 -73 -10 -92 8 -14 13 -18 31 -18 90 0 66 -2 75 -20 80 -13 3
-20 14 -20 29 0 17 6 24 20 24 17 0 20 7 20 40 0 38 2 40 30 40 28 0 30 -2 30
-40z m-2095 -61 c17 -16 20 -33 20 -100 0 -77 -1 -82 -29 -106 -28 -24 -47
-26 -88 -8 -16 6 -18 0 -18 -59 l0 -66 -30 0 -30 0 0 181 0 182 38 -5 c20 -3
46 -2 57 3 26 10 55 2 80 -22z m438 -1 c14 -16 17 -39 17 -120 l0 -100 -32 3
c-18 1 -48 -1 -66 -5 -50 -12 -82 13 -82 64 0 44 20 64 83 81 28 7 37 15 35
27 -5 26 -48 28 -55 3 -6 -25 -51 -29 -60 -5 -8 21 27 67 58 75 36 11 82 0
102 -23z m253 22 c39 -15 53 -39 54 -87 l0 -43 -61 0 c-60 0 -60 0 -57 -27 3
-32 44 -46 54 -19 9 23 64 21 64 -2 0 -51 -67 -84 -124 -62 -45 17 -55 38 -56
116 0 78 20 119 63 127 12 2 25 5 29 6 4 0 19 -4 34 -9z m201 -1 c32 -12 43
-26 43 -56 0 -31 -45 -33 -53 -3 -7 26 -47 27 -47 1 0 -12 12 -23 33 -31 74
-30 97 -83 58 -131 -40 -50 -151 -22 -151 38 0 19 5 23 30 23 24 0 30 -4 30
-21 0 -15 5 -20 22 -17 41 6 32 33 -19 59 -91 46 -80 134 19 148 4 1 19 -4 35
-10z m197 -3 c31 -13 53 -55 38 -71 -14 -14 -50 -3 -55 16 -4 13 -12 20 -24
17 -29 -5 -21 -32 15 -50 73 -36 92 -81 53 -129 -15 -19 -29 -24 -66 -24 -37
0 -51 5 -66 24 -29 36 -25 61 10 61 21 0 30 -6 34 -21 7 -25 40 -22 45 3 2 12
-11 24 -43 39 -74 35 -85 107 -21 135 39 17 40 17 80 0z m205 3 c17 -6 36 -19
41 -29 6 -10 10 -62 10 -115 l0 -96 -37 1 c-21 1 -50 -2 -65 -6 -45 -10 -78
18 -78 66 0 44 20 64 83 81 28 7 37 15 35 27 -5 25 -45 27 -58 3 -6 -13 -21
-21 -35 -21 -62 0 -3 95 61 99 6 1 25 -4 43 -10z m318 -21 c17 -16 23 -33 23
-65 l0 -43 -61 0 c-60 0 -60 0 -57 -27 3 -32 44 -46 54 -19 8 20 64 22 64 2 0
-69 -102 -98 -158 -45 -19 17 -22 31 -22 98 0 68 3 80 23 98 12 11 29 23 37
26 25 10 73 -2 97 -25z m1001 -4 c18 -21 22 -36 22 -98 0 -77 -15 -107 -61
-121 -31 -10 -84 3 -105 26 -23 26 -31 127 -13 170 24 60 111 73 157 23z m240
8 c8 -10 12 -52 12 -119 l0 -103 -30 0 -30 0 0 90 c0 75 -3 92 -17 97 -32 12
-53 -32 -53 -113 l0 -74 -30 0 -30 0 0 120 0 120 29 0 c16 0 31 -5 33 -11 2
-6 14 -5 33 5 33 17 63 13 83 -12z m529 -4 c17 -16 23 -33 23 -65 l0 -43 -61
0 c-60 0 -60 0 -57 -27 3 -32 44 -46 54 -19 4 10 18 16 35 16 22 0 29 -5 29
-20 0 -42 -64 -79 -115 -66 -52 13 -65 39 -65 124 0 69 3 81 23 99 12 11 29
23 37 26 25 10 73 -2 97 -25z m539 8 c7 -6 15 -59 19 -118 l7 -108 -36 0 -36
0 0 90 c0 72 -3 92 -15 96 -33 13 -45 -15 -45 -102 l0 -84 -35 0 -35 0 0 120
0 120 35 0 c19 0 35 -4 35 -9 0 -6 12 -3 28 4 28 15 58 12 78 -9z m219 -7 c17
-16 21 -36 23 -120 l4 -100 -44 1 c-23 1 -54 -1 -68 -5 -35 -9 -80 27 -80 64
0 39 19 60 70 75 33 10 46 19 48 35 3 17 -2 21 -22 21 -16 0 -27 -7 -31 -20
-4 -12 -15 -20 -29 -20 -32 0 -36 7 -24 42 20 56 108 72 153 27z m394 20 c36
-13 61 -53 61 -99 l0 -30 -59 0 c-65 0 -73 -5 -64 -38 6 -26 53 -32 53 -7 0
11 11 15 36 15 32 0 35 -2 29 -22 -4 -13 -18 -34 -33 -47 -21 -19 -33 -22 -65
-18 -59 8 -80 35 -85 107 -5 75 11 118 52 136 38 16 36 16 75 3z m204 -3 c15
-8 27 -11 27 -5 0 5 14 9 31 9 l30 0 -3 -155 c-3 -145 -4 -156 -26 -177 -17
-18 -34 -23 -73 -23 -43 0 -54 4 -75 29 -14 15 -24 36 -22 45 5 25 45 26 60 2
26 -42 78 -16 78 39 0 17 -3 19 -19 10 -36 -19 -78 -12 -100 16 -17 21 -21 41
-21 93 0 92 16 118 80 130 3 0 17 -6 33 -13z m282 -17 c17 -16 21 -35 23 -120
l4 -100 -44 1 c-23 1 -54 -1 -68 -5 -35 -9 -80 27 -80 64 0 39 19 60 70 75 33
10 46 19 48 35 4 28 -33 29 -50 1 -12 -19 -48 -27 -60 -14 -15 14 11 60 43 77
40 20 84 15 114 -14z m-3045 -100 l0 -120 -32 3 -33 3 -3 104 c-1 58 0 111 2
118 3 7 19 13 36 13 l30 0 0 -121z m2280 64 c19 -91 25 -93 45 -14 17 70 17
71 51 71 22 0 32 -4 29 -12 -3 -7 -25 -84 -50 -171 -24 -87 -47 -162 -50 -168
-4 -5 -20 -9 -37 -9 -24 0 -29 3 -24 16 28 74 28 99 -3 207 -18 59 -34 113
-37 122 -5 12 2 15 28 15 34 0 35 -1 48 -57z m-4790 -5791 c0 -34 8 -45 81
-112 92 -85 103 -93 127 -88 14 3 17 16 18 78 0 88 5 100 43 100 32 0 97 -58
107 -95 9 -35 -3 -77 -30 -100 -12 -11 -50 -44 -83 -73 -117 -102 -120 -169
-10 -217 34 -14 85 -41 112 -60 28 -18 70 -41 95 -51 46 -17 88 -52 109 -92 6
-12 17 -22 23 -22 6 0 20 -7 29 -16 28 -26 8 -50 -48 -59 -26 -4 -72 -20 -102
-36 -60 -32 -88 -32 -145 1 -17 11 -64 26 -104 35 -61 14 -75 21 -83 42 -5 14
-37 67 -70 119 -59 91 -61 97 -57 146 4 42 2 54 -15 71 -17 17 -21 37 -25 142
-5 142 6 338 19 329 5 -3 9 -22 9 -42z m1769 -389 c40 -35 43 -83 6 -107 -14
-10 -29 -33 -36 -58 -6 -24 -22 -69 -36 -100 -21 -45 -24 -64 -18 -95 22 -105
-4 -166 -73 -171 -38 -3 -43 0 -62 30 -27 45 -25 61 10 96 17 17 30 35 30 40
0 5 -16 30 -36 55 l-37 47 7 81 c6 66 5 85 -9 106 -19 29 -9 43 32 43 29 0
157 42 161 52 7 15 30 8 61 -19z m-708 -353 c23 -13 52 -78 45 -102 -2 -11 1
-18 9 -18 7 0 15 -5 17 -12 4 -10 13 -10 45 0 56 17 123 16 123 -2 0 -7 -8
-33 -19 -57 -11 -27 -21 -79 -24 -135 -5 -81 -3 -94 14 -112 19 -21 101 -62
124 -62 7 0 16 -7 19 -16 14 -37 6 -52 -41 -74 -27 -12 -55 -26 -63 -31 -40
-25 -69 -30 -126 -24 -52 5 -66 3 -100 -17 -21 -12 -47 -33 -57 -45 -31 -39
-75 -25 -174 54 -23 19 -66 41 -95 49 -47 14 -55 14 -85 0 -67 -32 -122 -16
-144 41 -14 37 -11 156 5 194 20 47 81 109 115 115 17 4 41 -1 59 -10 41 -21
79 -21 86 2 2 9 14 60 26 112 23 100 44 147 69 153 33 9 153 7 172 -3z m-880
-150 c49 -27 62 -118 32 -219 -51 -172 -48 -166 -79 -163 -16 2 -34 8 -41 14
-17 14 -16 84 3 133 8 22 17 76 20 120 8 130 15 141 65 115z m1920 -342 c43
-24 59 -38 59 -53 0 -32 -20 -45 -67 -45 -54 0 -105 21 -127 51 -20 29 -20 43
0 63 24 25 71 19 135 -16z m-71 -160 c26 -28 41 -83 30 -112 -4 -12 -30 -41
-56 -64 -44 -38 -54 -42 -101 -42 -68 0 -101 14 -114 47 -14 37 15 76 62 83
33 5 46 20 85 98 10 21 71 14 94 -10z m-2007 -107 c16 -14 18 -26 12 -111 -8
-109 -1 -122 70 -135 48 -8 101 -35 145 -71 28 -24 31 -32 27 -62 -4 -18 -16
-54 -27 -78 l-22 -44 -61 0 c-69 0 -91 9 -82 32 9 24 -17 67 -69 116 l-46 43
0 154 c0 194 2 200 53 156z m990 -279 c23 -20 22 -35 -8 -91 -13 -25 -27 -63
-30 -84 -7 -43 -21 -52 -68 -43 -27 5 -35 14 -54 59 -48 114 -31 158 68 176
49 8 66 5 92 -17z m1789 -139 c22 -20 23 -46 2 -67 -22 -22 -206 -23 -224 -1
-11 13 -8 15 19 15 36 0 63 12 104 46 33 28 73 31 99 7z"/>
<path d="M6613 9773 c-20 -4 -23 -11 -23 -51 l0 -47 85 0 85 0 0 46 c0 40 -3
48 -22 53 -25 6 -90 6 -125 -1z"/>
<path d="M4137 7600 c-15 -25 -23 -29 -58 -27 -46 2 -67 -17 -55 -49 6 -17 8
-16 19 6 8 16 23 26 40 28 15 2 27 1 27 -1 0 -3 -27 -53 -60 -112 -59 -106
-71 -148 -25 -91 13 16 41 60 62 97 21 38 41 69 45 69 16 0 21 -55 9 -94 -38
-124 -21 -126 39 -5 25 50 62 113 83 141 21 27 37 54 35 60 -7 20 -65 -42 -98
-103 l-33 -62 -14 43 c-12 36 -13 50 -2 82 15 48 8 57 -14 18z"/>
<path d="M2975 7470 c-4 -7 127 -10 384 -10 254 0 391 4 391 10 0 6 -135 10
-384 10 -246 0 -387 -4 -391 -10z"/>
<path d="M2950 7055 c0 -6 -10 -16 -21 -24 -19 -11 -21 -11 -16 3 8 21 -12 21
-41 0 -25 -17 -30 -36 -7 -28 8 4 15 1 15 -5 0 -6 -6 -11 -14 -11 -8 0 -17 -7
-20 -16 -4 -9 -13 -14 -22 -10 -10 4 -22 -6 -35 -29 -12 -19 -28 -35 -37 -35
-14 0 -14 -2 -3 -9 7 -5 11 -14 7 -19 -10 -16 30 -95 64 -127 17 -16 30 -24
30 -17 0 6 -4 14 -10 17 -15 9 -12 35 4 41 8 3 24 -4 36 -16 17 -17 24 -19 36
-9 8 6 14 18 14 25 0 8 5 14 10 14 6 0 10 7 10 15 0 8 5 15 10 15 6 0 10 9 10
19 0 19 35 39 47 27 3 -3 6 -23 7 -45 1 -39 19 -61 31 -40 4 5 10 7 15 4 11
-7 42 43 47 75 3 27 -16 110 -26 110 -3 0 -19 11 -34 24 -16 14 -43 28 -60 32
-18 3 -35 12 -39 18 -5 6 -8 7 -8 1z"/>
<path d="M4068 6902 c-1 -4 -28 -17 -58 -28 -41 -16 -59 -29 -71 -52 -30 -59
-59 -81 -59 -45 0 15 -2 14 -15 -4 -16 -23 -11 -83 7 -83 6 0 8 11 6 25 -7 35
9 31 32 -7 11 -18 36 -46 55 -61 29 -23 36 -35 35 -60 -3 -58 0 -61 28 -23 23
31 31 36 57 31 17 -3 32 -10 33 -15 2 -6 12 -15 23 -20 15 -8 17 -7 13 5 -4
11 -2 13 9 9 10 -3 19 5 28 25 16 35 29 40 29 12 0 -11 4 -22 10 -26 5 -3 7
-12 3 -20 -7 -21 10 -19 40 5 14 11 28 20 32 20 12 0 -7 -45 -26 -62 -13 -11
-16 -19 -9 -23 18 -11 47 23 59 71 13 49 23 55 39 22 10 -23 11 -23 11 -2 1
26 -71 110 -102 120 -33 10 -66 44 -92 95 -34 66 -104 121 -117 91z"/>
<path d="M3059 6684 c-22 -48 -26 -50 -84 -29 -31 11 -36 11 -22 1 9 -7 17
-18 17 -25 0 -14 17 -15 25 -1 4 6 11 8 16 5 10 -7 -24 -80 -43 -91 -16 -10
-88 -5 -112 8 -24 13 -64 58 -72 81 -5 16 -7 15 -25 -7 -10 -13 -19 -28 -19
-33 0 -5 -11 -20 -25 -33 -14 -13 -25 -31 -25 -40 0 -9 -9 -25 -20 -35 -14
-13 -20 -31 -21 -64 l0 -46 -17 36 c-10 20 -22 34 -29 32 -17 -6 -18 -197 -2
-293 12 -67 11 -69 -15 -100 -14 -17 -26 -28 -26 -24 0 5 -6 -1 -14 -12 -13
-18 -11 -29 11 -99 34 -104 57 -124 141 -125 35 0 61 4 58 8 -3 5 5 8 17 7 13
-1 25 -12 32 -28 11 -26 11 -26 33 22 12 27 22 54 22 61 0 9 10 10 38 5 20 -5
73 -9 117 -10 l80 -2 3 -30 c4 -40 -20 -63 -66 -63 -20 0 -44 -5 -52 -10 -10
-6 -3 -8 25 -4 l40 5 -34 -15 c-18 -9 -42 -16 -52 -16 -11 0 -18 -6 -16 -12 4
-21 20 -27 39 -17 10 6 23 7 28 4 5 -3 17 6 26 20 9 13 20 22 25 19 5 -3 9 0
9 5 0 15 18 14 23 -1 2 -7 3 -5 1 5 -1 9 3 17 9 16 7 -1 21 -1 32 0 15 1 17 3
7 10 -7 4 -18 26 -23 47 -7 32 -6 41 8 49 10 6 45 36 79 67 33 32 63 56 65 54
2 -3 2 26 -1 62 -4 48 -12 76 -28 100 -13 18 -22 37 -20 43 4 11 68 -84 68
-100 0 -4 9 -16 20 -26 11 -10 20 -24 20 -32 0 -7 12 -23 27 -36 14 -12 35
-30 45 -40 20 -19 27 -17 78 26 30 26 31 29 16 46 -9 10 -16 22 -16 28 0 6
-16 35 -36 64 -20 30 -54 90 -75 135 -21 44 -45 87 -54 94 -9 7 -15 29 -15 52
0 39 -45 188 -76 254 -15 32 -36 44 -107 63 l-39 10 -19 -45z"/>
<path d="M4350 6359 c0 -2 16 -49 34 -104 19 -55 30 -101 25 -103 -5 -2 -9 -8
-9 -13 0 -6 5 -7 12 -3 7 4 8 3 4 -4 -4 -7 7 -24 24 -39 l31 -28 -31 -48 c-30
-47 -38 -77 -21 -77 4 0 11 -18 14 -41 4 -34 0 -50 -29 -99 -49 -81 -67 -96
-100 -82 -32 15 -37 15 -28 0 4 -8 3 -10 -2 -5 -5 5 -9 12 -9 17 0 4 -19 25
-43 46 -41 36 -43 41 -33 67 15 37 14 58 -1 55 -7 -1 -34 4 -60 11 -52 15 -89
46 -107 89 -8 20 -31 38 -76 60 l-63 31 -13 -52 c-7 -29 -11 -68 -9 -87 6 -80
0 -202 -10 -215 -7 -8 -8 -20 -4 -27 5 -7 9 -19 10 -26 3 -17 -1 -13 55 -46
25 -14 56 -26 68 -26 13 0 35 -8 49 -19 23 -15 57 -24 127 -32 11 -1 69 18 97
32 10 5 24 9 32 9 8 0 26 5 40 12 22 9 25 17 22 47 -2 20 -1 26 1 14 2 -12 12
-22 21 -21 17 0 123 -19 155 -28 12 -4 17 0 17 16 0 26 43 180 71 256 18 49
19 57 6 72 -8 9 -31 48 -51 86 -31 56 -37 75 -31 103 10 53 -1 73 -40 73 -50
0 -62 8 -85 55 -17 34 -61 89 -60 74z"/>
<path d="M3060 5411 c0 -19 -10 -46 -25 -65 -27 -36 -30 -46 -15 -46 6 0 10 6
10 14 0 7 7 19 15 26 13 11 15 6 15 -34 0 -43 2 -47 20 -41 15 5 22 -1 35 -32
22 -52 52 -82 92 -89 46 -9 63 8 56 54 -9 57 -103 187 -118 163 -3 -5 1 -12 7
-15 17 -6 -19 -36 -43 -36 -24 0 -33 17 -37 75 -4 57 -12 74 -12 26z"/>
<path d="M3923 5433 c-16 -6 -17 -98 -2 -142 22 -62 76 -62 98 1 18 51 -3 162
-24 128 -4 -7 -14 -5 -28 5 -23 16 -25 16 -44 8z"/>
<path d="M3039 5143 c-1 -4 0 -20 1 -35 1 -14 -4 -29 -10 -33 -8 -5 -7 -11 2
-23 11 -12 11 -16 0 -20 -10 -3 -7 -11 9 -28 12 -13 17 -24 11 -24 -6 0 -14 5
-17 10 -3 6 -11 10 -17 10 -7 0 -2 -9 11 -21 15 -14 20 -26 15 -38 -10 -21
-10 -90 0 -116 7 -17 5 -17 -13 4 -29 33 -26 12 4 -29 37 -50 53 -56 78 -32
28 28 36 94 20 166 -8 33 -11 67 -8 75 4 10 -3 7 -18 -7 -27 -26 -39 -28 -31
-7 4 9 0 15 -10 15 -9 0 -16 4 -16 10 0 5 13 7 28 4 23 -5 30 -1 39 19 16 35
4 41 -22 11 -28 -33 -38 -20 -33 43 2 30 -1 48 -9 50 -7 3 -13 1 -14 -4z"/>
<path d="M1501 4978 c-18 -5 -50 -20 -70 -33 -20 -13 -52 -27 -73 -30 -52 -10
-74 -35 -99 -115 -23 -69 -23 -71 -5 -120 10 -27 19 -69 21 -92 1 -24 3 -49 4
-55 2 -20 46 -15 93 9 30 16 67 24 123 28 68 4 87 10 124 35 97 67 109 82 116
140 4 30 5 65 1 78 -5 22 -148 145 -183 158 -10 3 -33 2 -52 -3z"/>
<path d="M4072 4890 c-25 -54 -34 -60 -48 -31 -9 18 -11 18 -47 -6 -22 -13
-37 -27 -34 -29 3 -3 14 0 25 7 20 12 52 7 52 -9 0 -5 -19 -30 -42 -56 -27
-31 -47 -46 -58 -43 -13 3 -16 0 -12 -16 4 -17 2 -19 -14 -14 -15 6 -14 3 5
-13 13 -12 31 -18 38 -15 8 3 21 5 28 5 26 0 75 51 75 78 0 16 11 37 25 50 29
28 50 97 38 124 -7 15 -12 10 -31 -32z"/>
</g>
</svg>
