<?xml version="1.0" standalone="no"?>
<!DOCTYPE svg PUBLIC "-//W3C//DTD SVG 20010904//EN"
 "http://www.w3.org/TR/2001/REC-SVG-20010904/DTD/svg10.dtd">
<svg version="1.0" xmlns="http://www.w3.org/2000/svg"
 width="720.000000pt" height="1280.000000pt" viewBox="0 0 720.000000 1280.000000"
 preserveAspectRatio="xMidYMid meet">
<metadata>
Created by potrace 1.16, written by Peter Selinger 2001-2019
</metadata>
<g transform="translate(0.000000,1280.000000) scale(0.100000,-0.100000)"
fill="#000000" stroke="none">
<path d="M0 6400 l0 -6400 3600 0 3600 0 0 1030 0 1030 -47 0 -48 0 -3 213
c-1 116 -9 318 -17 447 -8 129 -15 282 -17 339 -2 80 -6 106 -19 115 -8 6 -18
18 -21 27 -6 16 -76 39 -120 39 -13 0 -28 4 -33 9 -6 5 -64 12 -130 15 -66 3
-136 8 -155 11 -19 3 -62 9 -94 14 -33 4 -62 13 -64 19 -2 8 -29 12 -70 13
-37 0 -94 5 -127 10 -33 5 -78 9 -101 9 -23 -1 -61 4 -85 10 -24 6 -73 13
-109 15 -36 2 -87 8 -115 14 -27 5 -62 7 -76 4 -16 -3 -37 2 -53 12 -18 12
-26 13 -26 5 0 -13 -20 -11 -95 9 -22 6 -61 11 -86 11 -25 0 -54 7 -65 15 -12
9 -44 15 -89 15 -93 0 -106 10 -54 39 l42 24 72 -18 c70 -18 105 -16 105 5 0
5 -4 10 -10 10 -19 0 -70 63 -70 86 0 14 10 30 25 40 27 18 34 61 13 82 -9 9
-9 12 0 12 7 0 22 16 33 35 23 39 59 47 81 18 35 -44 91 -93 114 -99 19 -5 33
0 59 22 202 173 244 212 250 233 7 28 -1 284 -16 503 -10 141 -9 153 22 353
40 263 40 263 -121 308 l-81 22 -15 55 c-60 208 -135 420 -185 521 -38 76
-119 170 -179 209 -49 31 -50 33 -35 54 27 37 65 128 65 156 0 44 13 43 27 -2
18 -60 16 -98 -6 -141 -14 -28 -15 -35 -5 -26 36 30 48 73 48 164 -1 96 -24
185 -65 252 l-22 35 22 -13 c11 -8 21 -17 21 -21 0 -16 17 -7 27 14 8 18 3 27
-31 59 -57 51 -131 89 -177 89 -44 0 -47 8 -24 63 20 49 19 88 -6 177 -40 146
-105 232 -224 301 -144 83 -369 75 -507 -16 -22 -15 -53 -28 -69 -30 -78 -10
-200 -95 -250 -173 -43 -68 -54 -116 -39 -179 15 -68 28 -76 22 -15 -2 31 2
61 12 86 21 49 28 43 14 -12 -16 -64 -4 -103 47 -151 l45 -42 0 55 c0 63 10
75 45 52 14 -9 25 -13 25 -10 0 11 -34 33 -52 34 -14 0 -15 5 -8 31 11 39 54
111 76 130 15 13 16 12 8 -11 -16 -45 -9 -123 16 -174 22 -43 106 -133 115
-124 3 2 -1 21 -7 41 -6 20 -9 40 -6 43 10 9 59 -27 127 -93 36 -35 69 -63 74
-63 6 0 3 8 -5 18 -37 43 -27 43 15 0 57 -59 80 -65 57 -15 -9 19 -8 19 7 -2
45 -61 70 -190 42 -218 -7 -7 -7 -13 -1 -17 20 -12 58 62 76 146 4 19 21 36
52 54 40 24 48 25 70 14 46 -25 44 -104 -5 -157 -29 -32 -118 -83 -145 -83 -8
0 -18 -5 -22 -11 -7 -12 23 -9 59 6 14 6 17 2 17 -19 0 -28 48 -79 67 -72 21
8 196 -79 236 -118 21 -20 50 -38 65 -41 15 -4 41 -10 57 -14 l30 -9 -31 -1
c-40 -1 -108 -53 -139 -106 -99 -169 -155 -489 -140 -795 8 -139 -6 -216 -44
-248 -21 -18 -61 -110 -61 -141 0 -12 -20 -27 -62 -47 -57 -26 -66 -34 -91
-86 -27 -57 -28 -58 -70 -58 -46 0 -175 30 -228 53 -61 26 -154 110 -157 141
-2 16 1 33 7 39 6 6 11 24 11 41 0 28 1 29 20 11 11 -10 -6 35 -44 111 -81
164 -115 301 -116 466 0 37 -5 70 -11 74 -6 3 -19 20 -30 38 -10 17 -19 27
-19 21 0 -5 10 -26 22 -45 18 -29 23 -54 26 -145 l4 -110 -22 28 c-38 48 -34
22 10 -65 78 -155 88 -187 76 -238 -11 -43 -10 -47 19 -84 39 -49 41 -111 6
-177 l-24 -45 22 -48 c27 -61 27 -92 -1 -136 -41 -65 -48 -82 -48 -121 0 -54
-16 -57 -41 -7 -33 66 -47 78 -91 78 -67 0 -122 -40 -139 -103 -7 -28 -7 -42
2 -53 21 -25 4 -24 -24 2 -17 16 -27 35 -27 54 0 38 -11 65 -20 50 -5 -8 -17
-6 -43 6 -67 32 -97 138 -62 221 8 20 14 38 11 40 -2 2 -11 -14 -20 -37 -34
-86 -12 -185 51 -222 18 -11 33 -23 33 -28 0 -4 -25 -35 -55 -69 -151 -169
-184 -247 -129 -306 l26 -28 -26 -97 c-14 -53 -26 -117 -26 -142 0 -26 -5 -48
-11 -50 -13 -4 -13 -56 -1 -166 6 -49 5 -78 -2 -88 -8 -10 -11 -171 -10 -502
1 -501 9 -712 28 -724 6 -4 -27 -8 -74 -9 -47 0 -132 -3 -189 -5 l-103 -4 5
26 c10 54 -57 216 -141 341 -33 48 -68 114 -80 145 l-20 57 24 22 c15 14 34
55 49 108 82 273 95 307 160 415 36 60 65 111 65 113 0 2 16 29 36 60 20 31
53 95 74 143 21 48 54 119 73 156 60 121 67 266 16 370 -21 45 -163 187 -241
243 l-47 34 29 56 c16 31 49 83 74 116 51 66 66 107 66 176 0 30 7 55 19 70
52 68 64 137 36 206 -19 45 -19 91 0 136 24 58 18 94 -30 182 -42 78 -45 89
-65 241 -54 421 -76 533 -115 601 -51 86 -166 161 -347 227 -51 19 -101 37
-111 41 -12 5 -16 14 -12 29 2 11 -9 -6 -25 -39 -16 -33 -32 -78 -36 -100 -4
-23 -19 -51 -35 -67 -47 -47 -121 -35 -281 46 -78 39 -80 30 -4 -19 28 -18 64
-47 81 -64 32 -34 32 -29 -13 -98 -8 -13 -10 -23 -4 -23 13 0 61 56 75 87 10
22 47 33 47 14 0 -5 -15 -29 -33 -53 -38 -50 -99 -74 -207 -84 -78 -7 -169 20
-212 64 -48 49 -98 142 -98 185 0 46 11 69 58 121 33 37 35 38 30 13 -7 -38 9
-33 29 8 13 28 21 34 37 29 25 -8 20 -3 39 -39 11 -21 16 -25 17 -12 0 33 -29
77 -53 77 -34 1 -146 77 -158 108 -6 15 -8 50 -4 80 5 40 12 56 31 68 22 15
26 15 47 1 40 -28 87 -76 87 -90 0 -23 40 -67 61 -67 12 0 17 5 14 10 -4 6 -4
33 0 60 6 45 9 49 28 45 20 -5 22 -2 24 51 3 72 23 99 23 31 0 -26 3 -47 8
-46 4 0 36 40 72 89 35 49 65 88 67 86 2 -1 -3 -24 -11 -49 -8 -26 -12 -47
-10 -47 29 0 120 82 144 128 19 38 21 20 4 -37 -8 -29 -13 -55 -10 -58 8 -9
67 41 88 75 11 18 28 54 38 79 l17 46 27 -45 c14 -24 29 -59 32 -76 6 -29 2
-36 -32 -66 -41 -35 -42 -60 -2 -32 33 24 48 20 48 -13 0 -23 -5 -30 -28 -34
-28 -6 -65 -57 -41 -57 6 0 8 -9 4 -20 -10 -31 13 -24 30 10 9 17 20 28 25 25
6 -4 10 3 10 15 0 19 4 30 32 83 37 69 48 99 48 127 0 18 4 29 10 25 6 -3 10
-17 10 -30 0 -13 5 -27 10 -30 6 -4 10 14 10 47 0 55 -25 123 -53 147 -25 20
-21 29 18 45 46 19 44 32 -4 39 -21 2 -65 22 -97 42 -58 37 -58 38 -36 53 33
22 27 29 -27 35 -43 5 -219 53 -230 63 -2 2 4 15 13 29 9 14 12 25 7 25 -5 0
-13 -5 -16 -10 -3 -6 -49 -10 -103 -10 -104 0 -196 -17 -236 -44 -34 -22 -39
-20 -34 9 3 14 2 25 -3 25 -17 0 -64 -62 -74 -96 -9 -32 -17 -39 -63 -57 -31
-12 -66 -35 -87 -58 -36 -41 -49 -74 -17 -47 9 9 28 21 42 28 l25 13 -27 -29
c-65 -70 -110 -229 -88 -310 17 -60 28 -64 28 -8 0 25 3 48 6 52 3 3 6 -20 6
-50 0 -41 7 -69 28 -109 45 -86 120 -204 142 -224 21 -19 27 -55 9 -55 -18 0
-408 -195 -494 -246 -136 -83 -262 -234 -235 -284 6 -12 22 -25 36 -30 23 -9
24 -11 9 -33 -8 -13 -26 -29 -39 -37 -13 -7 -27 -22 -31 -34 -7 -20 -7 -20
-14 4 -4 14 -10 20 -13 15 -7 -13 -24 -120 -42 -270 -8 -66 -24 -154 -35 -195
-11 -41 -30 -120 -42 -175 -11 -55 -23 -110 -26 -121 -3 -15 -15 -24 -36 -28
-40 -8 -120 -91 -170 -176 -28 -49 -37 -76 -37 -110 0 -62 27 -221 50 -301 17
-55 20 -96 20 -238 0 -99 4 -181 10 -192 6 -10 53 -39 105 -64 89 -42 99 -45
153 -39 31 4 68 15 82 24 24 16 91 43 95 38 1 -2 18 -46 38 -98 20 -52 48
-112 62 -132 57 -84 74 -127 63 -158 -14 -42 4 -88 52 -135 37 -36 40 -43 40
-92 0 -32 7 -69 19 -91 10 -20 28 -80 41 -132 26 -106 56 -183 112 -282 21
-37 44 -91 52 -120 44 -169 55 -196 105 -245 47 -46 49 -51 55 -118 9 -98 9
-142 0 -202 l-7 -53 -1053 3 -1054 2 0 1098 c0 856 3 1102 12 1117 10 16 10
24 0 40 -9 15 -12 375 -12 1674 0 910 3 1662 6 1671 5 13 9 14 15 4 11 -18 39
7 39 35 0 19 -27 69 -31 56 0 -3 -3 -18 -5 -35 -17 -102 -25 54 -22 400 2 244
6 309 16 307 7 -1 18 9 24 23 9 21 18 25 55 25 41 0 43 1 43 30 0 18 6 33 15
37 23 8 28 -1 17 -39 -7 -25 -5 -42 8 -72 10 -21 20 -34 24 -28 3 6 22 6 51
-1 25 -6 48 -8 51 -4 3 3 1 38 -5 78 -7 40 -8 75 -4 78 4 3 8 13 9 21 1 12
-11 15 -55 15 -55 0 -56 1 -53 27 8 66 -54 95 -127 62 -37 -17 -56 -44 -31
-44 17 0 11 -57 -8 -90 -10 -16 -22 -27 -25 -23 -4 3 -7 170 -7 370 l0 363
3590 0 3590 0 0 1775 0 1775 -3600 0 -3600 0 0 -6400z m6786 3682 c159 -63
211 -265 105 -407 -25 -34 -27 -41 -14 -50 24 -18 0 -52 -48 -67 -33 -9 -47
-9 -72 2 -36 16 -116 15 -165 -1 -47 -15 -97 -4 -117 27 -13 20 -14 28 -4 40
10 12 8 19 -9 37 -37 39 -62 108 -62 171 0 78 16 128 58 176 79 93 205 120
328 72z m-643 2 c52 -18 116 -76 142 -130 60 -126 7 -282 -117 -344 -139 -69
-312 -20 -376 106 -42 84 -38 184 12 267 25 41 43 58 94 84 54 28 75 33 131
33 37 0 88 -7 114 -16z m-5806 -224 c52 -224 51 -200 11 -200 -31 0 -36 4 -41
30 -6 27 -11 30 -42 30 -19 0 -38 0 -42 1 -4 0 -11 -14 -16 -30 -7 -27 -12
-31 -41 -31 l-34 0 14 58 c7 31 26 110 41 175 l27 118 44 -3 45 -3 34 -145z
m373 58 l1 -93 30 38 c23 27 39 37 60 37 16 0 29 -3 29 -6 0 -4 -16 -28 -35
-54 l-34 -47 28 -45 c56 -89 56 -88 17 -88 -30 0 -38 5 -57 40 -26 45 -39 43
-39 -6 0 -31 -2 -34 -30 -34 l-30 0 0 175 0 175 30 0 30 0 0 -92z m1740 -83
l0 -176 -42 1 c-24 1 -54 -1 -68 -5 -43 -11 -77 25 -85 88 -7 58 7 128 30 147
17 14 51 17 83 6 21 -7 22 -5 22 53 l0 61 30 0 30 0 0 -175z m452 83 l3 -92
25 37 c20 30 31 37 58 37 30 0 42 -12 24 -24 -5 -3 -21 -23 -36 -44 l-27 -40
40 -66 41 -66 -35 0 c-30 0 -39 6 -62 43 l-28 42 -3 -42 c-3 -42 -4 -43 -38
-43 l-34 0 0 168 c0 93 3 172 7 175 3 4 19 7 34 7 l28 0 3 -92z m728 27 l0
-66 30 16 c33 17 60 13 85 -11 11 -12 15 -40 15 -120 l0 -104 -30 0 -29 0 -3
92 c-3 83 -5 93 -22 96 -33 7 -46 -25 -46 -110 l0 -78 -30 0 -30 0 0 175 0
175 30 0 30 0 0 -65z m530 4 c0 -58 1 -60 23 -53 76 26 107 -8 107 -118 0 -71
-2 -81 -26 -105 -20 -20 -31 -24 -52 -18 -15 4 -46 6 -69 5 l-43 -1 0 176 0
175 30 0 30 0 0 -61z m-1480 -9 c0 -38 2 -40 30 -40 25 0 30 -4 30 -25 0 -21
-5 -25 -30 -25 l-31 0 3 -67 c3 -66 4 -68 31 -71 21 -3 27 -8 23 -19 -3 -8 -6
-19 -6 -24 0 -16 -73 -10 -92 8 -14 13 -18 31 -18 90 0 66 -2 75 -20 80 -13 3
-20 14 -20 29 0 17 6 24 20 24 17 0 20 7 20 40 0 38 2 40 30 40 28 0 30 -2 30
-40z m-2096 -61 c24 -23 34 -121 17 -172 -15 -44 -59 -66 -97 -48 -14 6 -27
11 -29 11 -3 0 -5 -30 -5 -66 l0 -65 -27 3 -28 3 -3 179 -2 179 37 -5 c21 -3
47 -2 58 3 26 10 55 2 79 -22z m402 21 c8 0 23 -9 34 -20 17 -17 20 -33 20
-121 l0 -101 -32 3 c-18 1 -48 -1 -66 -5 -50 -12 -82 13 -82 64 0 44 20 64 83
81 28 7 37 15 35 27 -5 26 -48 28 -55 3 -6 -25 -51 -29 -60 -5 -13 34 56 90
95 78 8 -2 20 -4 28 -4z m290 0 c39 -15 53 -39 54 -87 l0 -43 -61 0 c-60 0
-60 0 -57 -27 3 -32 44 -46 54 -19 4 10 18 16 35 16 35 0 39 -25 10 -61 -27
-34 -99 -34 -135 0 -23 22 -26 32 -26 96 0 79 20 120 63 128 12 2 25 5 29 6 4
0 19 -4 34 -9z m201 -1 c32 -12 43 -26 43 -56 0 -31 -45 -33 -53 -3 -7 26 -47
27 -47 1 0 -12 12 -23 33 -31 74 -30 97 -83 58 -131 -40 -50 -151 -22 -151 38
0 19 5 23 29 23 21 0 30 -6 34 -21 7 -25 40 -22 45 4 3 12 -9 23 -42 37 -76
32 -89 107 -23 135 39 17 39 17 74 4z m197 -3 c31 -13 53 -55 38 -71 -14 -14
-50 -3 -55 16 -4 13 -12 20 -24 17 -29 -5 -21 -32 15 -50 73 -36 92 -81 53
-129 -15 -19 -29 -24 -66 -24 -37 0 -51 5 -66 24 -29 36 -25 61 10 61 21 0 30
-6 34 -21 7 -25 40 -22 45 3 2 12 -11 24 -43 39 -74 35 -85 107 -21 135 39 17
40 17 80 0z m205 3 c17 -6 36 -19 41 -29 6 -10 10 -62 10 -115 l0 -97 -32 3
c-18 1 -48 -1 -66 -5 -50 -12 -82 13 -82 64 0 44 20 64 83 81 28 7 37 15 35
27 -5 25 -45 27 -58 3 -11 -22 -44 -28 -55 -10 -13 21 5 57 37 72 40 20 46 20
87 6z m319 -22 c16 -15 22 -32 22 -64 l0 -43 -61 0 c-60 0 -60 0 -57 -27 3
-32 44 -46 54 -19 9 23 64 21 64 -2 0 -69 -107 -94 -163 -37 -23 23 -24 151
-1 183 32 46 97 50 142 9z m1000 -3 c18 -21 22 -36 22 -98 0 -58 -4 -76 -20
-94 -43 -45 -130 -36 -157 18 -16 32 -17 121 -1 156 26 56 112 66 156 18z
m240 8 c8 -10 12 -52 12 -119 l0 -103 -30 0 -30 0 0 90 c0 99 -12 119 -50 85
-17 -15 -20 -31 -20 -97 l0 -78 -30 0 -30 0 0 120 0 120 29 0 c16 0 31 -5 33
-11 2 -6 14 -5 33 5 33 17 63 13 83 -12z m530 -8 c15 -17 22 -38 22 -65 l0
-39 -61 0 c-60 0 -60 0 -57 -27 3 -32 44 -46 54 -19 4 10 18 16 35 16 35 0 40
-29 9 -60 -27 -27 -63 -34 -105 -20 -46 15 -55 34 -55 123 0 64 3 76 23 94 12
11 29 23 37 26 28 11 75 -3 98 -29z m539 12 c7 -6 13 -53 15 -116 l3 -105 -32
-3 -33 -3 0 91 c0 72 -3 92 -15 96 -33 13 -45 -15 -45 -102 l0 -84 -35 0 -35
0 0 120 0 120 35 0 c19 0 35 -4 35 -9 0 -6 12 -3 28 4 28 15 58 12 79 -9z
m221 -12 c19 -22 22 -36 22 -120 l0 -95 -42 1 c-24 1 -54 -1 -68 -5 -35 -9
-80 27 -80 64 0 39 19 60 70 75 33 10 46 19 48 35 4 28 -31 29 -51 0 -22 -30
-63 -23 -59 11 10 70 109 91 160 34z m391 25 c36 -13 61 -53 61 -99 l0 -30
-59 0 c-65 0 -73 -5 -64 -38 6 -26 53 -32 53 -7 0 11 11 15 36 15 32 0 35 -2
29 -22 -13 -43 -42 -63 -90 -63 -64 0 -87 27 -93 105 -5 75 11 118 52 136 38
16 36 16 75 3z m204 -3 c15 -8 27 -11 27 -5 0 5 14 9 30 9 l30 0 0 -149 c0
-134 -2 -151 -20 -174 -41 -52 -147 -44 -170 13 -7 16 -9 34 -5 39 10 18 44
12 57 -9 26 -41 78 -15 78 40 0 17 -3 19 -19 10 -36 -19 -78 -12 -100 16 -16
21 -21 41 -21 90 0 72 13 107 44 122 29 14 37 14 69 -2z m285 -22 c19 -22 22
-36 22 -120 l0 -95 -42 1 c-24 1 -54 -1 -68 -5 -34 -9 -80 27 -80 61 0 42 17
62 70 79 37 12 50 22 50 36 0 26 -36 25 -50 -1 -11 -20 -54 -28 -64 -12 -10
16 29 76 54 84 40 11 83 0 108 -28z m-3048 -94 l0 -120 -35 0 -35 0 0 113 c0
63 3 117 7 120 3 4 19 7 35 7 l28 0 0 -120z m2280 63 c19 -91 25 -93 45 -14
17 70 18 71 50 71 l33 0 -24 -82 c-79 -281 -76 -273 -113 -276 -28 -3 -33 -1
-27 14 29 76 29 101 -4 209 -17 59 -34 113 -37 121 -4 10 4 14 29 14 34 0 35
-1 48 -57z m376 -3576 c9 -62 -18 -148 -56 -180 l-29 -25 -85 36 c-48 20 -86
42 -86 49 0 9 7 10 26 3 37 -14 61 -13 46 2 -18 18 -15 38 6 38 30 0 119 47
136 71 9 13 16 37 16 54 1 24 2 27 10 13 6 -9 13 -36 16 -61z m308 -470 c61
-69 114 -217 135 -382 15 -114 20 -432 10 -550 -19 -217 -75 -463 -127 -558
-37 -69 -138 -155 -302 -257 -180 -112 -213 -123 -318 -99 -47 11 -50 10 -92
-20 -30 -22 -54 -31 -81 -31 -49 0 -69 8 -62 26 6 16 53 19 53 4 0 -5 5 -10
10 -10 19 0 10 45 -15 75 -14 17 -23 23 -20 14 5 -14 -67 -118 -87 -127 -15
-7 -8 -28 17 -46 28 -21 35 -62 10 -52 -32 12 -13 -16 21 -30 43 -18 105 -80
162 -162 l43 -62 -38 -37 c-39 -37 -225 -163 -241 -163 -5 0 -15 -7 -23 -16
-11 -14 -9 -15 22 -9 91 16 163 -101 210 -342 25 -128 20 -161 -27 -202 -28
-25 -44 -31 -80 -31 l-45 0 -239 238 c-302 301 -311 317 -295 527 l7 97 32 -6
c22 -4 40 0 61 14 17 11 37 20 45 20 21 0 124 49 118 56 -3 2 -22 -5 -41 -16
-60 -36 -74 -21 -26 28 65 66 33 49 -42 -23 -90 -87 -110 -87 -65 3 19 37 51
83 71 102 20 19 41 44 47 55 22 45 -104 -104 -133 -157 -18 -32 -36 -58 -40
-58 -29 0 18 163 65 224 34 45 34 57 0 17 -32 -39 -83 -157 -84 -193 0 -34
-16 -37 -26 -5 -27 85 40 251 143 355 12 12 18 22 13 22 -16 0 -129 -142 -141
-178 l-12 -35 -19 34 c-11 19 -16 25 -12 14 12 -31 17 -125 7 -125 -4 0 -16
23 -26 51 -10 28 -20 49 -23 46 -2 -2 3 -21 11 -41 9 -21 14 -43 12 -49 -6
-15 -37 56 -42 93 -2 16 -8 38 -15 50 -9 16 -7 50 9 153 11 73 17 144 14 159
-4 21 2 34 26 58 27 28 36 31 83 28 51 -3 54 -4 75 -46 12 -24 43 -68 70 -98
57 -66 63 -76 57 -86 -9 -14 26 -9 99 16 40 13 93 27 118 31 43 6 49 4 85 -27
21 -18 42 -37 46 -43 5 -6 8 -6 8 2 0 15 -89 93 -107 93 -8 0 -23 -5 -35 -11
-54 -29 -19 41 43 86 31 22 57 52 74 84 21 43 31 52 67 62 55 16 61 22 82 93
21 68 48 98 107 115 22 7 47 15 55 18 8 3 14 -1 14 -10 0 -8 6 -20 14 -26 12
-10 12 -5 -1 30 -15 44 -11 76 14 141 13 33 20 38 68 48 29 6 59 18 67 27 12
15 11 15 -9 5 -12 -7 -24 -12 -26 -12 -14 0 -15 129 -2 210 9 51 18 117 20
149 10 115 63 358 107 483 40 116 81 170 162 212 36 18 70 7 110 -37z m-2884
-853 c0 -10 31 -38 123 -108 21 -16 15 -56 -8 -56 -7 0 -28 -14 -46 -31 -19
-17 -44 -32 -56 -33 -15 -1 -23 -9 -27 -28 -7 -37 -32 -36 -92 5 -40 26 -50
38 -52 66 -3 25 3 40 23 61 22 23 26 34 20 60 -6 28 -3 35 31 65 32 29 40 32
61 22 12 -5 23 -16 23 -23z m358 -59 l22 -16 -26 -39 c-37 -56 -42 -108 -14
-163 l22 -45 -32 -47 -33 -48 -14 44 c-9 24 -20 50 -26 57 -7 9 -6 24 3 51 14
42 10 99 -10 147 -13 30 -11 35 20 84 l33 52 16 -31 c9 -17 26 -38 39 -46z
m120 -585 c54 -24 64 -50 47 -121 -6 -30 -16 -115 -20 -189 -4 -74 -12 -144
-17 -155 -14 -27 -49 -65 -70 -76 -16 -8 -17 -7 -8 16 5 14 17 40 25 58 l16
32 -20 -25 c-11 -14 -26 -41 -32 -60 -16 -49 -42 -82 -81 -105 l-33 -19 17 26
c22 33 89 200 83 206 -2 3 -9 -6 -14 -19 -5 -13 -27 -64 -49 -112 -36 -76 -46
-90 -78 -103 -48 -20 -64 -6 -37 33 25 36 86 198 81 214 -2 7 -17 -28 -34 -77
-18 -56 -43 -106 -67 -137 -42 -53 -40 -71 7 -64 17 3 50 8 73 12 40 7 42 7
36 -16 -8 -29 -20 -52 -56 -105 -22 -33 -34 -74 -58 -204 -23 -123 -38 -178
-63 -229 -18 -36 -39 -84 -46 -106 -7 -22 -30 -57 -51 -78 -67 -67 -109 -257
-73 -332 21 -45 99 -123 140 -140 26 -11 37 -28 74 -114 43 -104 108 -196 154
-221 37 -19 38 -35 2 -37 -17 -1 -117 1 -222 4 l-191 5 -11 42 c-6 22 -20 75
-31 116 -11 41 -21 91 -21 110 0 19 -9 71 -21 115 -11 44 -29 123 -40 175 -12
52 -25 102 -29 110 -4 8 -11 85 -14 170 -10 220 -22 306 -54 365 -22 43 -26
61 -24 128 1 46 -3 91 -11 110 -9 21 -11 48 -7 82 4 28 8 44 9 36 0 -8 8 -22
16 -31 8 -9 17 -47 21 -91 8 -83 16 -99 52 -99 13 0 30 -7 36 -16 9 -12 21
-14 51 -8 30 5 54 22 101 69 51 51 64 71 78 121 9 32 21 73 27 89 6 17 11 37
11 46 0 11 10 18 28 21 27 4 29 2 32 -36 2 -21 9 -41 16 -44 10 -3 10 2 1 21
-10 21 -7 42 15 119 27 98 48 246 35 254 -9 5 -15 -28 -23 -121 -3 -33 -14
-87 -25 -120 l-19 -60 -1 40 c-1 22 -5 55 -10 73 -8 28 -4 50 25 135 34 97 40
106 115 183 43 45 79 87 79 93 0 6 7 23 16 36 21 31 79 34 142 5z m793 -176
c7 -28 21 -51 35 -61 13 -8 24 -22 24 -30 0 -9 6 -13 15 -9 8 3 15 2 15 -3 0
-7 -79 -16 -210 -24 -14 -1 -30 -8 -37 -17 -20 -24 -15 -5 10 39 37 64 117
162 127 156 6 -3 15 -26 21 -51z m-2391 -8 c-5 -15 -10 -33 -10 -40 0 -20 28
-15 33 6 4 16 3 17 -9 7 -12 -9 -12 -6 -3 21 8 21 14 28 19 20 4 -7 12 -10 17
-7 6 4 33 -3 62 -13 60 -23 84 -25 57 -5 -24 18 -16 19 19 3 14 -6 25 -15 25
-21 0 -5 7 -6 16 -3 8 3 13 2 10 -3 -7 -11 41 -24 55 -16 19 12 115 -24 144
-55 37 -38 26 -39 -17 -1 -32 28 -114 58 -126 47 -3 -3 1 -6 9 -6 24 0 315
-292 323 -324 4 -16 4 -31 1 -34 -3 -4 -28 1 -54 11 -27 9 -64 17 -82 16 -31
-1 -29 -2 16 -13 47 -11 49 -12 22 -19 -16 -4 -45 -25 -65 -46 l-37 -39 3
-131 c2 -76 -1 -131 -6 -131 -5 0 -12 -17 -15 -37 -4 -21 -9 -50 -13 -65 -6
-26 -4 -28 35 -34 l41 -7 0 -194 c0 -123 4 -202 11 -215 8 -15 8 -22 -1 -28
-8 -5 -10 -18 -6 -35 5 -20 12 -26 26 -22 13 3 17 1 13 -9 -3 -8 -9 -11 -14
-8 -5 3 -9 -1 -9 -8 0 -7 -20 27 -44 77 -24 49 -42 96 -39 105 4 13 3 13 -5 0
-9 -11 -15 -4 -32 35 -34 77 -57 147 -70 211 -7 33 -21 75 -32 95 -17 31 -19
47 -14 110 21 240 20 252 -18 213 -19 -18 -21 -40 -5 -50 7 -4 9 2 7 16 -2 13
3 25 10 27 14 5 15 -23 6 -104 l-7 -52 -34 32 c-38 36 -63 77 -63 104 0 10 21
59 45 108 46 92 53 115 35 115 -5 0 -10 -8 -10 -17 0 -22 -51 -133 -61 -133
-4 0 -11 10 -15 23 -3 12 -21 45 -40 72 -18 28 -41 70 -52 95 -23 55 -80 228
-83 255 -3 23 30 140 37 132 2 -2 0 -16 -6 -31z m769 -3 c20 -15 52 -44 71
-64 48 -49 177 -157 219 -182 25 -15 43 -40 68 -93 18 -40 33 -81 33 -91 0
-28 -16 0 -41 75 -11 34 -25 62 -30 62 -13 0 -12 -3 17 -73 31 -75 32 -115 4
-189 -26 -69 -56 -103 -34 -37 14 41 13 65 -7 172 -7 42 -25 87 -32 87 -2 0 5
-39 15 -87 10 -49 17 -106 15 -128 -5 -51 -54 -155 -73 -155 -8 0 -14 1 -14 3
0 1 6 31 14 67 10 51 11 81 2 137 -6 39 -15 75 -20 80 -5 5 -5 -9 0 -32 20
-92 4 -249 -28 -269 -36 -22 -47 18 -33 124 4 34 3 72 -5 99 -15 56 -21 49
-12 -14 7 -49 -2 -128 -19 -174 -16 -39 -35 -8 -42 64 -7 73 -52 179 -98 233
-16 18 -49 75 -75 127 -25 52 -54 105 -63 117 -32 42 -33 59 -5 95 32 42 80
73 113 73 13 0 40 -12 60 -27z m1687 -131 c6 -4 14 -25 16 -47 13 -99 58 -215
85 -215 8 0 13 -13 13 -34 0 -18 9 -44 19 -57 18 -23 18 -29 4 -114 -26 -162
-3 -246 106 -370 54 -62 59 -71 46 -85 -9 -8 -32 -15 -53 -15 -30 0 -58 15
-151 80 -143 100 -247 209 -298 311 -33 69 -37 83 -37 157 1 99 31 222 79 318
19 37 42 70 52 72 30 8 107 7 119 -1z m944 -524 c0 -7 2 -100 5 -207 4 -186
18 -325 37 -345 4 -6 8 -21 8 -35 1 -15 7 -37 15 -51 20 -35 19 -77 -3 -89
-14 -7 -26 -1 -57 30 -48 49 -67 96 -114 292 -19 80 -61 177 -93 218 -8 9 -28
26 -46 37 l-34 20 88 53 c122 75 194 103 194 77z"/>
<path d="M6613 9773 c-20 -4 -23 -11 -23 -51 l0 -47 85 0 85 0 0 46 c0 40 -3
48 -22 53 -25 6 -90 6 -125 -1z"/>
<path d="M624 8661 c-18 -11 -40 -33 -49 -49 -11 -18 -33 -35 -56 -42 -43 -14
-57 -37 -36 -58 12 -11 27 -11 93 -1 70 10 84 10 111 -5 58 -30 108 -12 123
43 16 59 13 81 -12 81 -13 0 -45 11 -73 25 -61 30 -62 30 -101 6z"/>
<path d="M964 8495 c-4 -8 -18 -15 -33 -15 -50 0 -100 -12 -118 -29 -20 -17
-25 -19 -95 -34 -38 -9 -50 -8 -72 6 -31 21 -58 21 -96 2 -16 -8 -44 -14 -62
-13 l-33 3 3 -47 c3 -54 8 -51 -85 -48 -50 1 -63 -1 -63 -13 0 -21 19 -34 61
-42 40 -7 79 7 79 29 0 8 10 11 28 8 19 -2 35 4 55 22 25 23 30 24 43 12 8 -8
14 -23 14 -34 0 -27 33 -34 75 -16 20 8 36 10 40 5 3 -5 2 -12 -2 -14 -5 -3
-8 -27 -8 -54 l0 -48 34 3 c58 6 194 104 213 154 4 9 28 24 55 34 63 23 73 31
73 61 0 40 -37 83 -71 83 -17 0 -32 -6 -35 -15z"/>
<path d="M389 7461 c-19 -15 -24 -30 -27 -85 -3 -41 0 -71 7 -80 9 -11 1 -18
-39 -35 -45 -19 -49 -24 -40 -44 5 -12 11 -34 14 -49 4 -19 21 -35 60 -57 30
-16 57 -35 61 -41 3 -5 12 -10 19 -10 10 0 8 16 -10 64 -36 100 -41 176 -15
231 21 45 26 80 15 109 -8 21 -17 20 -45 -3z"/>
<path d="M1240 7202 c0 -81 -4 -104 -22 -137 -21 -41 -40 -105 -30 -105 3 0
20 11 38 25 18 14 37 25 42 25 5 0 20 20 33 44 23 45 23 45 5 96 -10 28 -15
61 -12 75 8 32 -10 70 -35 72 -18 2 -19 -6 -19 -95z"/>
<path d="M742 6784 c-20 -14 -22 -21 -16 -59 6 -42 5 -44 -27 -61 -19 -10 -40
-19 -46 -20 -7 -1 -20 -9 -28 -18 -9 -9 -41 -23 -71 -32 -30 -9 -58 -24 -64
-34 -13 -24 -13 -131 0 -164 6 -18 17 -26 33 -26 13 0 30 -6 39 -12 21 -17 31
-49 15 -47 -18 3 -48 -12 -42 -21 3 -4 23 -6 45 -3 35 5 40 3 40 -14 0 -12 -7
-26 -15 -33 -8 -7 -17 -28 -21 -49 -4 -20 -14 -48 -22 -63 -13 -22 -14 -30 -4
-40 19 -19 14 -52 -10 -76 -13 -11 -27 -21 -33 -21 -5 -1 -10 -7 -10 -13 0 -7
-3 -15 -7 -18 -3 -3 2 -30 13 -60 11 -30 19 -75 17 -100 -1 -25 -1 -74 0 -108
l2 -64 53 7 c29 4 58 14 65 23 7 10 12 50 12 106 1 52 6 100 13 113 7 12 37
41 67 64 30 24 69 56 85 71 17 15 36 28 43 28 6 0 12 3 12 8 0 4 18 18 40 32
43 27 48 35 25 44 -8 3 -29 -8 -49 -27 -18 -18 -50 -38 -71 -46 -20 -7 -53
-24 -73 -37 -33 -23 -36 -23 -54 -8 -22 21 -23 40 -3 87 8 20 15 58 15 84 0
51 9 69 93 189 26 38 47 74 47 81 0 21 -36 15 -61 -11 -13 -12 -34 -28 -45
-34 -57 -30 -56 72 2 210 42 101 54 150 42 172 -11 20 -18 20 -46 0z"/>
<path d="M1165 6417 c-2 -7 -6 -28 -8 -47 -17 -130 -40 -204 -71 -226 l-21
-15 23 -16 c18 -13 22 -25 22 -72 0 -44 5 -62 20 -79 12 -12 25 -22 29 -22 20
0 34 34 37 93 1 34 8 76 15 92 6 17 14 85 17 151 l4 121 -31 16 c-24 12 -33
13 -36 4z"/>
<path d="M4390 6097 c0 -24 38 -67 72 -83 21 -9 38 -24 38 -33 0 -32 58 -137
92 -167 59 -52 114 -68 218 -62 75 5 101 11 162 40 141 68 196 126 184 193 -6
29 -16 39 -73 70 -36 20 -67 34 -70 32 -2 -3 21 -19 51 -37 31 -17 61 -40 66
-50 19 -35 11 -77 -18 -107 -45 -44 -161 -103 -232 -119 -79 -17 -113 -17
-182 -3 -44 9 -62 20 -103 63 -33 34 -56 69 -68 104 -21 60 -17 72 23 72 30 0
70 -41 104 -107 9 -18 19 -33 21 -33 9 0 -24 73 -46 103 -19 26 -19 28 -2 34
22 8 123 72 123 78 0 2 -26 -8 -57 -22 -32 -14 -89 -31 -128 -38 -84 -16 -124
-4 -155 47 -11 18 -20 29 -20 25z"/>
<path d="M353 4858 c-6 -7 -14 -25 -18 -40 -4 -15 -13 -32 -21 -39 -18 -15
-18 -53 1 -89 13 -25 22 -30 50 -30 19 0 35 5 35 10 0 18 22 10 27 -10 5 -19
33 -29 33 -12 0 4 27 36 60 70 33 35 60 71 60 80 0 23 -76 62 -120 61 -19 0
-49 2 -66 6 -20 4 -34 2 -41 -7z"/>
<path d="M382 4589 c-13 -5 -49 -31 -79 -58 -34 -31 -68 -52 -90 -56 l-35 -6
7 -52 c12 -82 11 -132 -3 -130 -18 4 -14 -24 4 -31 18 -7 44 10 44 27 0 6 23
36 50 68 28 32 50 62 50 67 0 5 7 15 15 22 21 18 67 118 63 139 -2 15 -8 17
-26 10z"/>
</g>
</svg>
