<?xml version="1.0" standalone="no"?>
<!DOCTYPE svg PUBLIC "-//W3C//DTD SVG 20010904//EN"
 "http://www.w3.org/TR/2001/REC-SVG-20010904/DTD/svg10.dtd">
<svg version="1.0" xmlns="http://www.w3.org/2000/svg"
 width="720.000000pt" height="1280.000000pt" viewBox="0 0 720.000000 1280.000000"
 preserveAspectRatio="xMidYMid meet">
<metadata>
Created by potrace 1.16, written by Peter Selinger 2001-2019
</metadata>
<g transform="translate(0.000000,1280.000000) scale(0.100000,-0.100000)"
fill="#000000" stroke="none">
<path d="M0 6400 l0 -6400 3600 0 3600 0 0 6400 0 6400 -3600 0 -3600 0 0
-6400z m6796 3680 c151 -69 198 -267 95 -405 -25 -34 -27 -41 -14 -50 14 -10
14 -14 -1 -37 -26 -40 -88 -50 -140 -23 -24 13 -38 13 -90 3 -107 -20 -145
-17 -172 17 -21 27 -21 30 -6 41 16 11 15 14 -5 36 -56 60 -79 178 -51 269 23
77 102 146 195 169 50 12 138 3 189 -20z m-653 4 c29 -10 64 -34 92 -62 124
-125 89 -333 -68 -412 -134 -67 -310 -20 -371 98 -46 89 -41 199 13 284 41 65
129 108 221 108 36 0 87 -7 113 -16z m-5834 -111 c15 -56 71 -300 71 -307 0
-3 -16 -6 -35 -6 -30 0 -35 3 -35 24 0 34 -23 49 -64 42 -27 -5 -35 -12 -40
-36 -5 -26 -10 -30 -40 -30 l-34 0 14 58 c7 31 25 110 40 175 l28 117 42 0
c41 0 44 -2 53 -37z m403 -55 l3 -93 25 37 c20 31 31 38 58 38 17 0 32 -3 32
-6 0 -4 -16 -28 -35 -53 -30 -41 -33 -50 -21 -67 7 -10 25 -40 40 -66 l27 -48
-35 0 c-30 0 -38 5 -57 40 -26 45 -39 43 -39 -6 0 -31 -2 -34 -30 -34 l-30 0
0 175 0 175 30 0 29 0 3 -92z m1738 -83 l0 -176 -42 1 c-24 1 -55 -1 -69 -5
-19 -5 -33 -1 -55 18 -28 24 -29 29 -29 106 1 69 4 85 22 102 22 22 54 28 91
15 21 -7 22 -5 22 53 l0 61 30 0 30 0 0 -175z m452 83 l3 -92 25 37 c20 30 31
37 58 37 30 0 42 -12 24 -24 -5 -3 -21 -23 -36 -44 l-27 -40 40 -66 41 -66
-35 0 c-30 0 -39 6 -62 43 l-28 42 -3 -42 c-3 -42 -4 -43 -38 -43 l-34 0 0
175 0 175 35 0 34 0 3 -92z m728 27 l0 -66 30 16 c33 17 60 13 85 -11 11 -12
15 -40 15 -120 l0 -104 -30 0 -30 0 0 90 c0 75 -3 92 -16 97 -37 14 -49 -10
-52 -101 l-3 -86 -29 0 -30 0 0 175 0 175 30 0 30 0 0 -65z m530 4 c0 -58 1
-60 23 -53 76 26 107 -8 107 -118 0 -71 -2 -81 -26 -105 -20 -20 -31 -24 -52
-18 -15 4 -46 6 -69 5 l-43 -1 0 176 0 175 30 0 30 0 0 -61z m-1480 -9 c0 -38
2 -40 30 -40 25 0 30 -4 30 -25 0 -21 -5 -25 -30 -25 l-31 0 3 -67 c3 -66 4
-68 31 -71 21 -3 27 -8 23 -19 -3 -8 -6 -19 -6 -24 0 -16 -73 -10 -92 8 -14
13 -18 31 -18 90 0 66 -2 75 -20 80 -13 3 -20 14 -20 29 0 17 6 24 20 24 17 0
20 7 20 40 0 38 2 40 30 40 28 0 30 -2 30 -40z m-2096 -61 c24 -23 34 -121 17
-172 -15 -44 -59 -66 -97 -48 -14 6 -27 11 -29 11 -3 0 -5 -30 -5 -66 l0 -65
-27 3 -28 3 -3 179 -2 179 37 -5 c21 -3 47 -2 58 3 26 10 55 2 79 -22z m405
20 c17 -6 36 -19 41 -29 6 -10 10 -62 10 -115 l0 -97 -32 3 c-18 1 -48 -1 -66
-5 -50 -12 -82 13 -82 64 0 44 20 64 83 81 28 7 37 15 35 27 -5 26 -48 28 -55
3 -4 -14 -13 -21 -29 -21 -65 0 -15 96 52 99 6 1 25 -4 43 -10z m290 0 c38
-14 51 -35 51 -88 l0 -41 -61 0 c-60 0 -60 0 -57 -27 3 -32 44 -46 54 -19 4
10 18 16 35 16 35 0 39 -25 10 -61 -27 -34 -99 -34 -135 0 -23 22 -26 32 -26
96 0 79 20 120 63 128 12 2 25 5 28 6 3 0 20 -4 38 -10z m198 0 c32 -12 43
-26 43 -56 0 -31 -45 -33 -53 -2 -7 24 -40 23 -45 -2 -2 -10 9 -21 30 -29 75
-30 98 -83 59 -131 -40 -50 -151 -22 -151 38 0 18 5 23 26 23 18 0 28 -6 31
-21 7 -26 48 -23 48 4 0 12 -16 26 -45 40 -89 43 -75 132 22 146 4 1 19 -4 35
-10z m197 -3 c31 -13 53 -55 38 -71 -14 -14 -50 -3 -55 16 -4 13 -12 20 -24
17 -29 -5 -21 -32 15 -50 73 -36 92 -81 53 -129 -15 -19 -29 -24 -66 -24 -37
0 -51 5 -66 24 -29 36 -25 61 10 61 21 0 30 -6 34 -21 7 -25 40 -22 45 3 2 12
-11 24 -43 39 -74 35 -85 107 -21 135 39 17 40 17 80 0z m205 3 c17 -6 36 -19
41 -29 6 -10 10 -62 10 -115 l0 -97 -32 3 c-18 1 -48 -1 -66 -5 -50 -12 -82
13 -82 64 0 44 20 64 83 81 28 7 37 15 35 27 -5 25 -45 27 -58 3 -14 -27 -60
-29 -60 -3 0 36 46 79 86 81 6 1 25 -4 43 -10z m318 -21 c17 -16 23 -33 23
-65 l0 -43 -61 0 c-60 0 -60 0 -57 -27 3 -32 44 -46 54 -19 8 20 64 22 64 2 0
-69 -102 -98 -158 -45 -19 17 -22 31 -22 98 0 68 3 80 23 98 12 11 29 23 37
26 25 10 73 -2 97 -25z m1001 -4 c18 -21 22 -36 22 -98 0 -65 -3 -75 -26 -97
-35 -33 -104 -34 -136 -2 -27 28 -37 127 -17 174 24 60 111 73 157 23z m240 8
c8 -10 12 -52 12 -119 l0 -103 -30 0 -30 0 0 90 c0 75 -3 92 -17 97 -32 12
-53 -32 -53 -113 l0 -74 -30 0 -30 0 0 120 0 120 29 0 c16 0 31 -5 33 -11 2
-6 14 -5 33 5 33 17 63 13 83 -12z m529 -4 c17 -16 23 -33 23 -65 l0 -43 -61
0 c-60 0 -60 0 -57 -27 3 -32 44 -46 54 -19 4 10 18 16 35 16 22 0 29 -5 29
-20 0 -42 -64 -79 -115 -66 -52 13 -65 39 -65 124 0 69 3 81 23 99 12 11 29
23 37 26 25 10 73 -2 97 -25z m540 8 c7 -6 14 -56 17 -118 l6 -108 -35 0 -35
0 0 90 c0 72 -3 92 -15 96 -33 13 -45 -15 -45 -102 l0 -84 -35 0 -35 0 0 120
0 120 35 0 c19 0 35 -4 35 -9 0 -6 12 -3 28 4 28 15 58 12 79 -9z m218 -7 c17
-16 21 -36 23 -120 l4 -100 -44 1 c-23 1 -54 -1 -68 -5 -35 -9 -80 27 -80 64
0 39 19 60 70 75 33 10 46 19 48 35 4 28 -33 29 -50 1 -12 -19 -48 -27 -60
-14 -15 14 11 60 43 77 40 21 85 16 114 -14z m394 20 c36 -13 61 -53 61 -99
l0 -30 -59 0 c-65 0 -73 -5 -64 -38 6 -26 53 -32 53 -7 0 11 11 15 36 15 32 0
35 -2 29 -22 -4 -13 -18 -34 -33 -47 -21 -19 -33 -22 -65 -18 -59 8 -80 35
-85 107 -5 75 11 118 52 136 38 16 36 16 75 3z m204 -3 c15 -8 27 -11 27 -5 0
5 14 9 31 9 l30 0 -3 -155 c-3 -145 -4 -156 -26 -177 -17 -18 -34 -23 -73 -23
-43 0 -54 4 -75 29 -14 15 -24 36 -22 45 5 25 45 26 60 2 27 -43 78 -16 78 40
0 18 -3 20 -12 11 -7 -7 -29 -12 -49 -12 -55 0 -79 34 -79 114 0 85 8 106 44
122 39 17 36 17 69 0z m285 -22 c19 -22 22 -36 22 -120 l0 -95 -42 1 c-24 1
-55 -1 -70 -5 -21 -6 -32 -2 -52 18 -48 48 -29 99 44 121 33 10 46 19 48 35 4
28 -33 29 -50 1 -7 -11 -23 -20 -36 -20 -20 0 -23 4 -20 33 6 65 108 86 156
31z m-3048 -94 l0 -120 -35 0 -35 0 0 113 c0 63 3 117 7 120 3 4 19 7 35 7
l28 0 0 -120z m2280 63 c19 -90 25 -92 45 -14 18 69 20 71 51 71 l32 0 -24
-82 c-79 -281 -76 -273 -113 -276 -28 -3 -33 -1 -27 14 28 74 28 99 -3 207
-18 59 -34 113 -37 122 -5 12 2 15 28 15 34 0 35 -1 48 -57z m-333 -1477 c9
-4 11 -220 10 -888 l-2 -883 -133 -3 -133 -3 3 -27 3 -27 123 -3 c67 -1 122
-6 122 -11 0 -4 -24 -6 -52 -4 -73 6 -131 -25 -180 -98 -66 -95 -81 -212 -42
-309 32 -76 98 -115 183 -107 31 2 64 8 73 12 17 7 18 -22 20 -486 l3 -494 33
-3 32 -3 0 48 c1 45 2 47 16 28 10 -13 24 -19 44 -17 22 3 33 -3 45 -22 10
-14 24 -26 31 -26 10 0 13 -7 8 -25 -5 -19 -2 -25 11 -25 14 0 15 -3 5 -15
-14 -16 -10 -18 14 -9 9 3 13 10 10 15 -3 5 2 9 11 9 11 0 15 -5 11 -15 -3 -9
1 -18 9 -21 23 -9 5 -37 -19 -29 -62 18 -66 17 -56 -10 5 -14 9 -31 7 -38 -1
-6 8 -13 21 -15 12 -2 28 -12 35 -23 6 -10 20 -19 29 -19 22 0 23 -16 4 -36
-10 -10 -38 -14 -93 -14 -43 0 -91 -1 -108 -2 l-30 -3 -5 125 -5 125 -37 -3
c-34 -3 -37 -1 -48 35 -7 21 -28 82 -47 136 l-35 97 -93 0 c-79 0 -94 -3 -100
-17 -3 -10 -36 -97 -71 -193 -35 -96 -74 -202 -87 -235 l-23 -60 -57 -5 c-31
-3 -57 -3 -57 1 0 3 10 14 21 25 43 38 49 72 49 284 l0 200 -80 0 -80 0 0
-174 c0 -96 -3 -181 -6 -190 -3 -9 -17 -16 -30 -16 -19 0 -26 7 -30 30 -6 30
-7 30 -73 30 -87 0 -95 -6 -87 -64 6 -35 17 -57 47 -88 21 -23 39 -42 39 -44
0 -3 -47 -2 -158 3 l-103 5 29 18 c75 46 92 106 92 323 l0 167 -80 0 -80 0 0
-165 c0 -163 0 -166 -25 -190 -29 -30 -55 -32 -86 -6 -23 18 -24 26 -29 188
l-5 168 -75 0 -75 0 -3 -168 c-1 -97 2 -185 8 -208 6 -23 29 -58 53 -84 l43
-44 -91 -3 -90 -3 0 -30 0 -30 63 3 c54 2 70 -2 115 -28 28 -16 45 -30 36 -30
-20 0 -70 -55 -59 -66 4 -5 11 -19 15 -31 5 -17 2 -23 -10 -23 -9 0 -14 3 -12
8 3 4 -1 21 -8 37 l-13 30 1 -47 c1 -26 7 -50 13 -52 6 -2 42 11 80 30 37 19
70 34 72 34 2 0 1 -22 -3 -49 -5 -38 -3 -52 11 -65 14 -15 15 -19 3 -27 -25
-16 -47 -10 -72 20 -18 22 -33 29 -55 29 -27 -1 -30 -3 -21 -20 6 -12 6 -24
-1 -37 -18 -35 -12 -82 10 -88 20 -5 20 -6 3 -25 -23 -25 -24 -120 -3 -163 16
-30 64 -64 75 -53 4 4 -9 23 -29 43 -31 30 -36 42 -36 81 0 61 14 84 50 84 32
0 81 18 92 35 11 15 10 35 -2 35 -6 0 -10 -8 -8 -17 2 -10 -4 -19 -14 -21 -10
-2 -18 1 -18 7 0 6 5 11 10 11 6 0 10 7 10 15 0 21 -68 20 -91 -1 -16 -14 -18
-14 -28 4 -18 35 14 74 34 42 8 -13 92 -13 101 1 3 6 16 8 29 5 20 -5 22 -2
21 23 -1 28 -16 58 -16 33 0 -7 -5 -12 -11 -12 -5 0 -3 10 5 22 19 27 20 58 4
93 -9 19 -9 28 0 37 7 7 12 29 12 50 l0 38 95 0 95 0 -16 -25 c-14 -21 -14
-25 -2 -25 8 0 25 11 38 25 27 29 45 32 54 8 5 -12 -6 -29 -40 -60 -52 -48
-58 -51 -49 -24 3 12 0 21 -10 24 -10 5 -21 -5 -34 -31 -10 -20 -29 -56 -42
-79 -19 -34 -22 -45 -12 -65 15 -31 25 -196 13 -218 -7 -13 -20 -17 -46 -16
-28 1 -40 -4 -51 -21 -20 -31 -35 -29 -27 2 5 20 3 24 -10 19 -9 -3 -16 -10
-16 -16 0 -5 -4 -6 -10 -3 -5 3 -10 16 -10 29 0 30 -36 64 -52 48 -9 -9 -8
-21 0 -50 15 -48 37 -71 54 -54 20 20 29 13 22 -15 -6 -22 -4 -25 10 -20 19 7
22 -25 7 -66 -16 -42 -22 -120 -10 -128 8 -4 5 -13 -9 -27 -11 -11 -23 -18
-26 -15 -3 4 -6 1 -6 -6 0 -9 -9 -11 -31 -6 -19 4 -36 2 -47 -7 -30 -23 -61
-38 -81 -38 -11 0 -22 -4 -25 -8 -8 -13 -108 -60 -151 -71 -22 -6 -49 -17 -60
-25 -24 -18 -62 -21 -67 -5 -2 7 -18 12 -36 13 -21 1 -32 6 -33 16 -3 35 4 75
12 78 5 2 6 8 3 14 -4 6 -1 14 6 18 11 7 10 15 -3 42 -15 31 -31 251 -19 262
6 6 42 -17 42 -26 0 -5 -8 -8 -17 -9 -14 0 -15 -2 -3 -6 8 -3 30 -19 48 -36
24 -23 32 -27 32 -15 0 9 -11 25 -25 36 -13 11 -21 23 -17 26 4 4 -1 12 -10
17 -38 21 -55 104 -49 240 1 9 16 21 34 27 l32 11 -31 -2 c-31 -3 -31 -3 -33
46 0 26 -3 53 -6 58 -4 5 4 13 17 18 15 7 17 10 7 10 -12 1 -18 14 -22 49 -11
82 -8 87 59 89 45 2 62 -2 72 -14 11 -16 12 -15 12 1 0 15 8 17 53 15 52 -3
52 -3 52 26 l0 30 -105 0 -105 0 -3 78 -3 77 59 0 c120 0 202 72 202 180 0
113 -81 180 -217 180 l-73 0 0 350 0 350 30 0 30 0 0 -100 0 -100 35 0 35 0 0
99 0 100 43 3 c35 2 43 7 45 26 3 21 0 22 -55 23 -32 1 -67 2 -78 3 -11 1 -34
3 -52 4 l-32 2 -3 113 -3 112 -40 6 -40 6 43 2 42 1 0 125 0 124 123 3 122 3
3 28 3 27 -125 0 -126 0 0 890 0 889 128 3 c194 4 1625 -1 1639 -6z m-1839
-418 l2 -418 28 -1 27 -2 -27 -4 -28 -4 0 -460 0 -459 -453 0 c-313 0 -456 -3
-464 -11 -8 -8 -13 -8 -17 0 -5 8 -134 11 -422 11 l-414 0 0 169 0 169 60 62
c33 34 81 99 106 144 130 230 85 558 -102 744 l-64 64 0 202 c0 112 3 206 7
210 4 4 401 5 883 4 l875 -3 3 -417z m2122 393 c0 -11 -8 -33 -17 -49 -16 -27
-16 -31 0 -65 21 -44 21 -51 0 -109 -15 -41 -15 -49 -1 -77 12 -26 13 -45 3
-128 -7 -54 -9 -105 -5 -113 4 -8 3 -26 -3 -40 -9 -21 -12 -9 -19 75 -4 55 -9
196 -12 313 l-5 212 29 0 c23 0 30 -5 30 -19z m305 -23 c-7 -24 -18 -56 -23
-73 -30 -91 -41 -130 -37 -134 3 -2 27 10 54 26 27 17 59 34 70 38 12 3 21 12
21 19 0 16 54 41 69 31 22 -13 9 -26 -53 -55 -78 -35 -95 -54 -42 -48 37 4 44
0 25 -19 -6 -6 -11 -18 -13 -27 -1 -9 -16 -31 -33 -50 l-30 -35 23 -22 c30
-28 26 -32 -14 -17 -25 10 -34 10 -44 0 -9 -9 -7 -12 9 -12 40 0 30 -25 -37
-90 -61 -60 -98 -115 -86 -128 3 -2 -8 -23 -24 -46 -43 -60 -48 -115 -17 -204
23 -66 70 -140 107 -169 8 -6 12 -14 9 -18 -9 -8 -119 97 -119 114 0 6 -7 25
-15 41 -8 16 -16 55 -17 87 -1 32 -3 62 -6 66 -5 11 -42 -49 -42 -68 0 -8 -5
-15 -11 -15 -7 0 -9 10 -5 28 11 46 88 190 118 219 26 25 38 55 21 52 -22 -4
-23 3 -4 27 12 15 21 35 21 45 0 9 5 19 10 21 6 2 16 36 24 76 12 61 12 72 0
72 -8 0 -14 -4 -14 -9 0 -5 -17 -20 -37 -32 -49 -31 -53 -32 -53 -22 0 8 31
45 93 110 22 24 27 35 19 45 -13 16 -40 119 -45 176 l-4 42 73 0 73 0 -14 -42z
m1253 -75 c-1 -65 -3 -104 -5 -88 -2 17 -6 41 -9 55 -5 23 -6 24 -19 7 -12
-17 -16 -16 -49 20 -19 21 -36 41 -36 45 0 8 -22 37 -48 64 -11 12 0 14 77 14
l91 0 -2 -117z m-442 -9 c3 -18 12 -38 20 -45 22 -18 17 -57 -8 -65 -28 -9
-78 -45 -78 -57 0 -4 -12 -24 -26 -43 -21 -27 -25 -41 -21 -71 8 -63 26 -125
53 -182 28 -61 24 -73 -34 -92 -20 -7 -50 -22 -65 -35 -18 -15 -41 -24 -63
-24 -19 0 -47 -6 -62 -13 -34 -16 -71 -14 -108 6 -16 8 -37 18 -46 21 -20 6
-68 106 -75 157 -4 24 1 47 16 74 12 22 22 35 22 30 1 -6 4 4 8 20 6 26 10 30
36 27 29 -3 29 -3 10 18 -15 16 -16 23 -6 33 10 9 15 8 24 -8 7 -11 14 -29 17
-40 3 -11 15 -22 25 -24 47 -8 63 -51 20 -51 -16 0 -25 -6 -25 -15 0 -16 12
-20 24 -8 4 4 19 9 33 11 15 2 39 12 55 23 24 18 28 27 28 68 0 71 -27 101
-89 101 -26 0 -63 -8 -83 -19 -51 -25 -58 -2 -12 38 32 29 38 30 92 25 43 -4
62 -2 77 10 20 15 19 16 -12 28 -18 7 -33 16 -33 20 0 17 65 40 109 37 60 -3
78 6 91 46 7 22 19 35 33 37 35 6 46 -2 53 -38z m-291 -684 c4 -6 23 -7 45 -4
33 5 42 2 70 -25 18 -17 41 -31 51 -31 20 0 25 -15 9 -25 -17 -10 -11 -44 10
-62 11 -10 20 -23 20 -30 0 -19 -39 -40 -88 -47 -70 -10 -115 17 -179 112 -29
42 -29 60 2 74 14 6 25 19 25 30 0 19 25 25 35 8z m-992 -597 c14 -13 36 -18
81 -18 l61 0 9 -47 c8 -39 6 -51 -7 -66 -18 -20 -23 -47 -7 -37 21 13 31 -7
13 -27 -18 -20 -17 -20 20 -17 25 2 41 -1 47 -11 7 -11 11 -12 25 0 26 22 43
-6 48 -77 l4 -63 -169 0 -169 0 2 139 c1 131 2 138 20 134 14 -4 19 0 19 16 0
11 -6 21 -14 21 -15 0 -26 21 -26 51 0 24 17 24 43 2z m1455 -140 c31 -2 62
-5 67 -7 15 -5 18 -85 4 -102 -6 -8 -9 -14 -5 -14 3 0 -3 -9 -14 -20 -21 -21
-50 -27 -50 -11 0 5 -8 12 -18 15 -9 3 -44 31 -76 61 -32 30 -62 55 -67 55
-15 0 -10 39 7 48 15 8 15 10 0 15 -15 6 -15 8 0 26 17 19 18 18 56 -21 35
-37 45 -41 96 -45z m-894 -88 c13 -14 28 -25 35 -25 6 0 11 -6 11 -14 0 -8 11
-23 24 -33 13 -10 27 -27 30 -38 6 -19 1 -21 -62 -23 -60 -2 -206 14 -157 17
12 0 25 13 32 29 10 21 19 27 40 26 47 -2 51 -3 56 -21 3 -11 5 -7 6 10 1 23
-3 27 -26 27 -16 0 -32 4 -38 8 -16 11 -34 49 -28 56 15 14 56 4 77 -19z m76
-235 c0 -6 22 -7 58 -4 84 9 195 -27 176 -57 -3 -5 6 -14 20 -21 15 -6 26 -20
27 -32 1 -17 2 -18 6 -3 7 25 28 21 43 -9 11 -20 12 -29 2 -44 -15 -24 -16
-57 -1 -65 6 -4 10 -26 9 -49 -3 -59 -1 -68 9 -62 8 6 12 -11 27 -114 4 -25
12 -48 18 -52 7 -5 6 -11 -6 -20 -9 -7 -19 -28 -23 -45 -6 -30 -4 -34 22 -44
27 -10 64 -16 128 -18 23 -1 27 -3 15 -11 -8 -5 -10 -10 -4 -10 7 0 14 -8 17
-19 4 -16 -3 -19 -55 -24 -33 -3 -65 -10 -70 -15 -6 -6 -22 -7 -39 -2 -25 7
-29 6 -29 -11 0 -11 -7 -22 -15 -25 -10 -4 -15 -19 -15 -43 0 -20 -5 -42 -12
-49 -7 -7 -8 -12 -2 -12 6 0 19 -15 29 -34 10 -19 26 -34 34 -33 31 2 91 -14
86 -23 -3 -5 -1 -11 4 -14 5 -4 12 -2 16 4 8 12 16 12 34 1 12 -8 12 -13 3
-24 -11 -12 -7 -16 23 -21 25 -5 40 -3 50 8 19 19 19 26 0 26 -8 0 -15 5 -15
11 0 6 6 9 14 6 18 -7 42 18 26 28 -5 3 -10 14 -10 23 1 15 3 14 16 -3 12 -16
16 -17 23 -6 7 11 14 8 34 -14 24 -29 36 -33 115 -39 62 -5 95 -37 52 -51 -11
-3 -20 -13 -20 -21 0 -8 -5 -14 -11 -14 -5 0 -8 4 -4 10 3 5 3 21 -1 36 -6 23
-8 24 -17 9 -7 -14 -11 -15 -18 -4 -7 11 -11 10 -22 -5 -9 -12 -16 -15 -20 -8
-10 15 -47 3 -40 -14 3 -8 9 -11 14 -8 5 3 9 -1 9 -9 0 -8 -8 -18 -17 -22 -17
-6 -17 -7 1 -21 11 -8 15 -14 10 -14 -15 0 -51 29 -36 30 6 0 12 5 12 11 0 6
-9 8 -22 4 -15 -4 -19 -3 -10 3 7 5 15 23 17 41 3 27 1 32 -11 27 -9 -3 -21
-6 -29 -6 -16 0 -26 -35 -14 -47 5 -5 3 -17 -5 -28 -13 -18 -15 -19 -33 -3
-44 39 -100 18 -82 -31 5 -13 7 -27 3 -30 -4 -3 -8 -1 -10 4 -4 11 -80 11
-106 0 -11 -4 -18 -3 -18 4 0 6 7 11 15 11 8 0 15 4 15 9 0 5 -7 14 -15 21
-12 10 -15 10 -15 -4 0 -9 -4 -16 -10 -16 -5 0 -10 6 -10 14 0 13 -20 26 -41
26 -5 0 -10 -8 -10 -17 -1 -16 -2 -16 -6 -2 -7 28 -62 6 -63 -25 0 -5 7 -3 15
4 8 7 15 9 15 4 0 -5 5 -2 11 6 8 12 9 9 5 -12 -7 -31 4 -37 24 -13 15 18 31
10 23 -10 -3 -8 0 -15 6 -15 19 0 12 -17 -10 -23 -16 -4 -19 -11 -14 -26 6
-19 2 -21 -28 -21 -20 0 -37 6 -40 13 -2 6 -8 8 -13 4 -5 -4 -4 -11 2 -15 6
-4 13 -17 16 -29 4 -16 2 -20 -8 -16 -8 3 -14 0 -14 -6 0 -6 7 -11 15 -11 8 0
15 -7 15 -15 0 -17 14 -19 40 -5 16 9 22 5 35 -19 19 -38 19 -52 0 -27 -8 11
-15 15 -15 8 0 -6 25 -37 55 -69 30 -32 55 -63 55 -69 0 -6 6 -17 14 -23 8 -6
16 -23 18 -36 5 -22 2 -24 -18 -19 -15 4 -24 2 -24 -5 0 -6 5 -11 10 -11 21 0
8 -17 -25 -33 -24 -11 -61 -17 -109 -17 l-74 0 -4 45 c-2 29 2 50 10 59 15 14
18 43 8 67 -6 13 -2 16 17 14 14 -2 34 -6 46 -10 34 -11 24 7 -33 57 l-54 48
3 87 c2 49 7 125 11 170 6 73 5 84 -15 111 -11 17 -21 35 -21 41 0 6 -9 15
-20 21 -15 8 -18 17 -14 38 4 19 0 32 -10 41 -26 22 -19 41 13 41 17 0 33 -4
36 -10 11 -17 41 -11 63 13 11 12 27 47 35 77 14 55 14 55 26 27 6 -16 11 -36
11 -44 0 -9 3 -13 7 -9 4 4 9 49 11 99 6 165 7 167 19 163 6 -3 0 22 -13 55
-14 33 -31 90 -40 126 -23 100 -38 128 -86 160 -63 44 -137 66 -195 58 -52 -7
-93 -23 -93 -37 0 -5 -11 -21 -25 -36 -14 -15 -30 -43 -36 -62 -6 -19 -20 -45
-31 -57 -17 -18 -21 -42 -27 -145 -8 -130 -15 -154 -56 -186 -14 -11 -24 -24
-23 -29 2 -4 -8 -19 -20 -31 -27 -27 -24 -63 10 -99 l21 -22 -32 -36 c-33 -38
-44 -92 -16 -81 18 7 21 -39 3 -50 -8 -5 -9 0 -6 14 7 24 6 25 -16 16 -17 -6
-22 -49 -8 -58 5 -3 7 -23 6 -45 -1 -23 2 -41 8 -41 16 0 37 26 44 54 8 32 23
43 35 25 17 -28 -10 -89 -39 -87 -35 3 -52 -3 -52 -16 0 -8 5 -16 11 -18 17
-6 20 -79 3 -95 -24 -24 -36 -5 -28 44 5 32 3 44 -4 39 -6 -3 -14 -1 -18 5 -5
8 -8 8 -14 -1 -5 -8 -11 -7 -23 5 -18 18 -41 11 -34 -9 3 -7 1 -19 -3 -27 -7
-11 -10 -10 -16 4 -3 9 -14 17 -23 17 -9 0 -22 9 -29 20 -11 18 -9 24 18 46
16 14 30 32 30 40 0 12 8 13 36 8 27 -5 35 -4 30 5 -4 6 -18 11 -32 11 -32 0
-39 21 -19 59 9 18 13 35 10 40 -2 5 2 11 10 15 15 5 22 46 8 46 -30 -1 -54
-17 -68 -46 -9 -19 -21 -34 -28 -34 -9 0 -9 2 0 8 6 4 15 21 19 37 9 38 22 55
38 49 8 -3 21 2 30 11 10 10 24 14 36 10 16 -5 20 -2 20 14 0 22 -20 27 -84
23 -28 -2 -28 -1 -21 35 9 47 12 53 29 47 8 -3 17 -1 21 5 10 17 45 14 39 -3
-3 -8 -1 -17 5 -20 6 -4 7 -14 4 -22 -4 -12 -1 -15 13 -12 17 3 19 12 16 89
-4 79 -2 88 19 108 12 11 31 21 41 21 10 0 18 4 18 9 0 15 -23 19 -44 9 -12
-7 -22 -6 -29 1 -8 8 -2 14 21 23 24 9 31 17 26 30 -5 16 -2 17 21 8 32 -12
45 -13 26 -1 -12 8 -12 13 2 35 9 14 17 35 17 47 0 12 8 40 19 63 10 23 24 52
30 66 20 42 37 70 61 95 12 13 19 28 15 34 -3 6 1 11 9 11 8 0 19 6 23 13 4 7
20 18 36 24 15 7 27 19 27 28 0 8 5 15 10 15 6 0 10 -4 10 -10z m-773 -123 c4
-6 9 -27 13 -47 5 -31 9 -35 40 -39 l35 -4 -35 -6 c-35 -6 -35 -7 -38 -61 -6
-97 -75 -133 -143 -72 -68 61 -55 231 19 248 15 3 32 7 37 8 15 4 64 -14 72
-27z m948 -29 c58 -92 62 -111 30 -126 -36 -17 -32 -52 11 -91 37 -34 40 -58
8 -53 -10 2 -31 5 -46 7 -32 5 -47 -10 -17 -18 30 -8 14 -27 -22 -27 -18 0
-28 -4 -24 -10 4 -6 14 -8 23 -6 10 3 24 1 32 -4 12 -8 12 -10 -4 -10 -26 0
-9 -17 22 -22 21 -3 22 -4 7 -25 -24 -34 -76 -29 -165 15 -56 28 -76 43 -80
61 -7 30 -27 39 -33 14 -4 -15 -5 -14 -6 3 0 12 -8 27 -16 34 -22 18 -19 26
15 40 22 9 33 22 40 51 11 40 45 79 90 104 14 8 43 32 64 55 22 22 42 40 45
40 3 0 15 -14 26 -32z m-3194 -218 l119 0 -2 -477 -3 -478 -135 0 -135 0 -3
470 c-1 259 0 476 3 484 3 7 12 10 21 7 9 -3 69 -6 135 -6z m-970 -158 c16
-21 20 -36 16 -67 -7 -49 -30 -67 -82 -63 -35 3 -42 8 -58 39 -30 62 2 117 69
117 25 0 40 -7 55 -26z m349 18 c10 -5 23 -23 28 -40 9 -25 8 -31 -8 -40 -10
-5 -35 -10 -54 -10 -20 0 -36 -4 -36 -9 0 -14 29 -22 56 -15 34 9 32 -23 -2
-37 -34 -12 -58 -4 -84 28 -26 33 -26 73 1 107 22 28 64 35 99 16z m3484 -125
c-4 -17 -1 -27 9 -31 12 -4 13 -11 4 -34 -6 -16 -15 -27 -19 -24 -4 3 -13 2
-20 -2 -7 -5 1 -12 23 -19 23 -8 38 -9 47 -2 9 7 12 3 12 -16 0 -30 -17 -38
-63 -30 -29 4 -40 0 -67 -26 -73 -70 -61 -16 14 62 23 25 6 38 -39 30 l-30 -6
30 39 c61 80 112 111 99 59z m-3735 -213 c19 -65 -20 -116 -83 -108 -35 4 -53
26 -62 73 -8 43 15 80 59 91 41 11 73 -10 86 -56z m-281 31 c6 -16 14 -38 17
-50 10 -34 18 -28 35 25 12 35 21 47 35 47 14 0 19 -6 17 -18 -7 -41 -66 -181
-83 -198 -19 -19 -18 -19 19 -20 49 -1 80 -13 62 -24 -7 -4 -22 -8 -34 -9 -20
-1 -21 -6 -21 -91 0 -86 -1 -90 -23 -93 -21 -3 -22 -1 -22 87 l0 90 -27 3
c-33 4 -44 28 -13 28 19 0 20 3 10 15 -13 16 -6 35 15 35 26 0 27 43 1 97 -38
78 -42 103 -18 103 12 0 24 -10 30 -27z m364 -35 c3 -61 4 -63 31 -66 l29 -4
-4 64 c-3 59 -2 63 20 66 21 3 22 1 22 -82 0 -79 -2 -86 -20 -86 -11 0 -20 5
-20 12 0 9 -3 9 -12 0 -19 -19 -55 -14 -72 10 -11 15 -16 45 -16 85 0 56 2 63
20 63 16 0 19 -8 22 -62z m-102 -250 c14 -15 20 -35 20 -69 0 -39 -4 -49 -25
-63 -35 -23 -72 -20 -102 10 -22 22 -25 32 -20 67 10 72 82 103 127 55z m187
0 c8 -9 17 -34 20 -57 7 -53 -22 -90 -71 -89 -69 1 -104 92 -55 144 24 26 81
27 106 2z m141 -245 c3 -30 6 -32 31 -27 42 9 61 -24 61 -103 0 -56 -2 -63
-20 -63 -16 0 -19 8 -22 61 -3 54 -6 63 -25 70 -22 8 -23 7 -23 -62 0 -67 -1
-70 -22 -67 -22 3 -23 8 -26 102 -3 112 0 129 25 124 12 -2 19 -14 21 -35z
m4392 -3 c0 -5 -7 -10 -16 -10 -10 0 -14 -6 -10 -15 3 -8 -2 -18 -11 -23 -25
-14 -8 -29 31 -26 42 4 70 -21 45 -40 -9 -6 -19 -21 -23 -34 -4 -12 -13 -22
-21 -22 -7 0 -15 -5 -17 -12 -3 -7 -9 -8 -18 -3 -8 5 -25 10 -38 11 -26 3 -38
11 -31 19 3 2 21 0 39 -5 26 -8 39 -6 57 6 25 16 22 39 -4 30 -8 -3 -25 2 -39
10 -13 9 -27 14 -31 10 -3 -3 -12 -1 -20 5 -7 6 -22 9 -34 6 -29 -8 -49 2 -42
19 3 9 12 13 19 10 7 -3 16 -1 18 3 3 5 17 6 31 3 21 -4 24 -1 18 13 -4 12 -3
16 4 12 6 -4 13 0 17 8 3 8 15 15 26 15 11 0 20 5 20 10 0 6 7 10 15 10 8 0
15 -4 15 -10z m-4995 -30 c4 -7 13 -6 26 1 15 8 26 7 43 -5 21 -13 25 -13 38
1 13 12 20 13 39 2 35 -18 39 -27 39 -97 0 -60 -1 -63 -22 -60 -21 3 -23 9
-26 66 -3 53 -6 62 -22 62 -17 0 -19 -9 -22 -67 -2 -53 -6 -68 -18 -68 -11 0
-16 13 -18 45 -4 72 -10 90 -32 90 -18 0 -20 -7 -20 -65 0 -58 -2 -65 -20 -65
-18 0 -20 7 -20 78 0 43 3 82 7 85 9 10 21 9 28 -3z m3325 -301 c18 -33 8 -41
-55 -44 -96 -3 -95 -3 -95 -29 0 -29 7 -35 48 -38 18 -1 28 -6 24 -13 -3 -5
-5 -20 -4 -32 2 -12 -2 -41 -9 -65 -18 -65 -18 -83 -5 -135 8 -31 11 -86 8
-153 -3 -58 -4 -116 -4 -130 1 -14 1 -38 2 -54 1 -16 -3 -32 -7 -35 -5 -3 -16
-24 -25 -46 -32 -76 -38 -109 -28 -150 6 -25 5 -44 -1 -51 -6 -7 -10 -36 -10
-66 0 -29 0 -64 0 -78 0 -14 0 -49 1 -78 0 -52 -30 -142 -57 -170 -12 -13 -7
-72 7 -82 16 -12 35 -57 37 -90 3 -52 -17 -129 -47 -182 -23 -41 -26 -55 -20
-98 l6 -50 -83 -1 c-46 -1 -88 -2 -94 -3 -16 -1 -15 141 6 671 2 62 1 115 -4
118 -14 8 0 276 24 455 8 58 19 165 25 238 6 72 15 144 21 160 6 15 11 48 11
74 l0 47 42 6 c22 3 59 4 81 3 37 -3 40 -1 43 25 3 22 -1 30 -17 34 -21 5 -26
19 -15 47 5 13 23 16 95 16 79 0 89 -2 99 -21z m-2733 -113 c6 -6 -28 -42 -47
-49 -12 -4 -11 -6 3 -6 22 -1 22 -7 -3 -38 -11 -14 -20 -22 -20 -17 0 5 -7 -1
-15 -13 -9 -13 -22 -20 -30 -17 -10 4 -15 0 -15 -11 0 -10 -11 -28 -25 -41
-14 -13 -25 -30 -25 -39 0 -8 -3 -15 -8 -15 -4 0 -13 -14 -21 -31 -8 -17 -27
-44 -42 -59 -16 -15 -29 -32 -29 -38 0 -6 -12 -20 -26 -31 -15 -12 -24 -28
-22 -38 3 -18 -4 -24 -117 -99 -54 -36 -56 -41 -49 -101 3 -29 2 -53 -2 -53
-5 0 -20 -10 -34 -21 l-25 -21 28 6 c15 4 27 4 27 1 0 -6 -35 -86 -81 -180
-27 -57 -34 -81 -25 -83 8 -2 12 -15 10 -37 -3 -37 6 -44 26 -21 6 8 27 24 45
35 28 16 34 17 39 5 7 -18 31 -18 49 0 13 13 19 10 46 -25 18 -21 28 -39 23
-39 -11 0 -34 -119 -25 -133 3 -6 1 -7 -5 -3 -7 4 -12 19 -12 34 0 15 -4 34
-10 42 -8 12 -11 12 -28 -3 -10 -9 -26 -17 -36 -17 -9 0 -41 -18 -70 -40 -31
-23 -74 -45 -103 -52 -41 -10 -52 -17 -61 -40 -7 -20 -15 -26 -26 -22 -13 5
-16 -3 -16 -47 0 -32 -4 -49 -9 -44 -7 8 -19 1366 -12 1409 1 9 769 1 778 -8z
m991 -146 c5 -217 -7 -465 -21 -451 -16 16 -38 13 -61 -8 -12 -10 -36 -22 -53
-26 -50 -10 -56 17 -48 220 8 210 -3 290 -46 331 -16 15 -29 37 -30 48 0 13
-3 16 -6 7 -4 -10 -7 -10 -13 -2 -6 11 -25 16 -90 22 -52 5 120 16 240 15
l125 -1 3 -155z m-390 111 c7 -4 12 -12 11 -17 -4 -25 3 -44 16 -44 8 0 15 -4
15 -10 0 -5 -4 -10 -8 -10 -5 0 -9 -39 -9 -86 0 -63 -4 -89 -14 -94 -17 -9
-86 -24 -114 -24 -25 -1 -38 -60 -31 -144 6 -74 13 -90 30 -66 9 12 19 14 37
8 26 -9 35 -11 62 -13 12 -1 17 -7 14 -18 -3 -10 -8 -30 -11 -44 -3 -14 -17
-31 -31 -37 -21 -10 -28 -8 -44 9 -25 27 -51 21 -76 -18 -14 -23 -28 -32 -47
-33 -16 0 -37 -9 -48 -20 -11 -11 -29 -20 -39 -20 -24 0 -36 -16 -19 -24 10
-5 10 -7 1 -12 -14 -6 -7 -61 11 -84 21 -27 47 -91 41 -101 -4 -5 -12 -9 -18
-9 -7 0 -18 -10 -25 -21 -12 -18 -21 -21 -57 -17 -35 4 -63 20 -148 86 -139
108 -202 207 -207 327 -3 52 4 74 45 140 13 22 24 49 25 59 0 11 3 16 6 13 4
-3 16 -1 28 5 33 18 109 27 124 15 17 -14 51 -17 49 -4 -5 23 23 16 29 -7 3
-15 17 -35 30 -45 13 -10 24 -26 24 -35 0 -39 44 -16 182 94 11 9 16 22 13 30
-8 19 -109 84 -157 101 -65 23 -58 42 48 129 7 5 14 15 16 22 3 9 37 15 114
19 60 3 111 6 114 7 3 1 11 -2 18 -7z m3199 -216 c2 -121 4 -348 5 -505 3
-311 3 -311 66 -382 101 -114 299 -106 395 15 64 81 62 57 67 597 l5 495 145
0 145 0 3 -483 c2 -530 0 -565 -56 -684 -62 -132 -147 -215 -286 -278 -267
-122 -601 0 -731 267 -51 103 -55 148 -55 679 0 270 3 494 7 498 4 3 70 5 147
4 l141 -3 2 -220z m-1712 131 c2 -6 10 -32 17 -58 l15 -46 -43 -7 c-51 -7 -54
-11 -89 -100 -19 -46 -24 -70 -16 -73 19 -6 12 -29 -11 -36 -22 -5 -22 -6 -3
-20 11 -9 14 -16 8 -16 -18 0 -16 -20 1 -20 7 0 19 -6 25 -14 9 -11 6 -17 -14
-30 -28 -18 -76 -15 -93 7 -20 26 -52 144 -52 194 0 52 21 113 39 113 5 0 16
3 25 6 12 4 16 0 16 -15 0 -14 6 -21 20 -21 42 0 4 49 -42 54 -5 1 -8 4 -8 9
0 4 0 11 0 15 0 5 27 32 60 59 l59 51 42 -21 c22 -11 42 -25 44 -31z m852 23
c15 -5 30 -14 33 -18 3 -4 21 -18 40 -31 86 -60 181 -174 234 -279 72 -142 97
-352 61 -507 -42 -183 -188 -381 -357 -484 -59 -36 -58 -37 -58 158 0 176 0
179 24 201 14 13 41 57 62 98 30 62 37 88 41 156 9 131 -26 250 -96 329 l-31
36 0 176 c0 102 4 176 9 176 5 0 22 -5 38 -11z m-107 -1099 c-3 -146 -7 -234
-8 -195 l-2 70 -20 -37 c-19 -35 -18 -68 1 -68 5 0 9 -17 9 -38 0 -27 -8 -47
-30 -72 -32 -38 -40 -93 -15 -107 14 -8 11 -53 -5 -53 -4 0 -10 -13 -13 -30
-6 -28 -9 -30 -52 -30 -25 0 -45 5 -45 10 0 6 5 10 10 10 7 0 8 13 4 36 -4 20
-2 39 3 43 14 9 43 71 43 93 0 11 -4 28 -10 38 -7 13 -5 29 5 54 8 19 15 47
15 62 0 19 4 25 15 20 8 -3 15 -1 15 4 0 5 -7 15 -15 24 -8 8 -15 30 -15 50 0
27 8 44 35 70 38 38 44 56 20 56 -8 0 -15 9 -15 19 0 11 -4 22 -9 25 -10 7 -3
85 9 101 8 10 15 47 26 125 4 25 10 55 15 68 5 13 9 63 9 112 0 49 3 97 8 107
11 28 18 -273 12 -567z m-1849 418 c1 -13 1 -72 1 -133 0 -114 -4 -123 -42
-91 -8 7 -34 18 -57 26 -24 7 -55 26 -70 41 -16 16 -33 29 -39 29 -13 0 -7 89
7 105 6 5 9 5 9 -2 0 -6 7 -19 16 -27 12 -12 20 -14 36 -5 16 9 24 6 44 -12
27 -25 27 -25 42 16 l10 30 1 -27 c1 -15 6 -30 11 -33 6 -4 10 15 10 49 0 31
5 56 10 56 6 0 10 -10 11 -22z m-781 -237 c0 -13 3 -22 6 -19 10 11 94 -23 94
-38 0 -23 53 -126 78 -151 13 -13 28 -21 33 -18 12 8 12 -113 -1 -195 -8 -50
-17 -70 -37 -88 -37 -34 -83 -18 -164 58 -57 53 -75 68 -104 83 -16 8 -41 27
-54 41 -22 23 -23 31 -16 78 9 62 9 76 -1 182 -7 78 -6 80 20 101 26 21 29 21
86 6 53 -14 60 -19 60 -40z m1020 19 c0 -5 7 -10 15 -10 8 0 15 -9 15 -20 0
-13 5 -18 15 -14 16 7 21 -11 6 -21 -5 -3 -12 -18 -16 -34 -7 -34 -22 -39
-117 -40 l-68 -1 0 69 0 70 63 4 c34 2 68 4 75 5 6 1 12 -2 12 -8z"/>
<path d="M6613 9773 c-20 -4 -23 -11 -23 -51 l0 -47 85 0 85 0 0 46 c0 40 -3
48 -22 53 -25 6 -90 6 -125 -1z"/>
<path d="M3000 6560 l0 -30 484 0 484 0 7 -177 c9 -216 6 -226 -72 -231 l-51
-3 -11 -44 c-19 -74 -18 -75 50 -75 70 0 91 9 137 58 46 49 60 112 68 305 l6
167 69 0 69 0 0 30 0 30 -620 0 -620 0 0 -30z"/>
<path d="M3000 5906 l0 -125 105 -3 105 -3 0 28 c0 27 0 27 -70 27 -68 0 -70
1 -70 25 0 23 4 24 62 27 55 3 61 5 64 26 4 21 1 22 -61 22 -62 0 -65 1 -65
25 0 23 3 24 73 27 64 3 72 5 72 23 0 19 -8 20 -107 23 l-108 3 0 -125z"/>
<path d="M3254 5585 c-3 -6 -3 -65 -2 -131 l3 -119 35 0 35 0 5 58 5 58 51
-58 c50 -57 53 -59 94 -55 l42 4 -48 49 -47 48 26 12 c14 6 31 25 36 42 10 26
8 32 -22 62 -29 29 -41 34 -97 38 -84 7 -111 5 -116 -8z"/>
<path d="M3566 5592 c-3 -5 -5 -64 -5 -130 l0 -121 30 -6 c17 -4 35 -3 40 2 5
5 8 66 7 134 l-3 124 -32 3 c-17 2 -34 -1 -37 -6z"/>
<path d="M1325 8064 c-62 -31 -93 -107 -73 -180 8 -32 246 -284 300 -317 67
-42 174 -10 211 63 22 45 16 120 -13 158 -50 64 -258 266 -287 278 -42 18
-100 17 -138 -2z"/>
<path d="M2265 8048 c-58 -48 -258 -255 -272 -282 -45 -87 12 -200 107 -213
83 -11 99 -2 249 149 151 152 168 179 157 255 -10 74 -71 123 -153 123 -40 0
-55 -6 -88 -32z"/>
<path d="M1547 7321 c-29 -18 -240 -232 -277 -279 -15 -18 -20 -40 -20 -83 0
-48 4 -63 27 -90 48 -56 141 -77 193 -43 14 9 86 78 161 154 120 120 138 142
144 178 7 46 -7 105 -34 136 -42 48 -141 62 -194 27z"/>
<path d="M2058 7324 c-71 -30 -102 -139 -60 -209 18 -28 175 -190 257 -264 71
-64 183 -50 230 30 22 37 28 113 13 144 -20 39 -263 280 -304 301 -34 18 -89
17 -136 -2z"/>
</g>
</svg>
