<?xml version="1.0" standalone="no"?>
<!DOCTYPE svg PUBLIC "-//W3C//DTD SVG 20010904//EN"
 "http://www.w3.org/TR/2001/REC-SVG-20010904/DTD/svg10.dtd">
<svg version="1.0" xmlns="http://www.w3.org/2000/svg"
 width="720.000000pt" height="1280.000000pt" viewBox="0 0 720.000000 1280.000000"
 preserveAspectRatio="xMidYMid meet">
<metadata>
Created by potrace 1.16, written by Peter Selinger 2001-2019
</metadata>
<g transform="translate(0.000000,1280.000000) scale(0.100000,-0.100000)"
fill="#000000" stroke="none">
<path d="M0 6400 l0 -6400 3600 0 3600 0 0 1025 0 1025 -3590 0 -3590 0 0
3600 0 3600 3590 0 3590 0 0 1775 0 1775 -3600 0 -3600 0 0 -6400z m6730 3699
c64 -14 102 -34 140 -71 94 -96 103 -243 21 -353 -25 -34 -27 -41 -14 -50 13
-10 13 -15 2 -33 -26 -42 -91 -54 -143 -27 -24 13 -38 13 -90 3 -108 -20 -145
-17 -172 17 -22 28 -23 31 -7 42 15 12 15 15 -5 35 -55 60 -78 178 -50 269 23
77 103 146 195 168 51 12 70 12 123 0z m-563 -22 c54 -29 112 -97 128 -151 55
-184 -67 -346 -259 -346 -115 0 -199 49 -249 145 -15 30 -20 58 -20 116 1 120
49 194 158 242 52 22 194 19 242 -6z m-5858 -104 c15 -56 71 -300 71 -307 0
-3 -16 -6 -35 -6 -30 0 -35 3 -35 24 0 31 -13 39 -59 39 -31 0 -36 -3 -43 -31
-8 -28 -13 -32 -42 -32 l-34 0 14 58 c7 31 25 110 40 175 l28 117 42 0 c41 0
44 -2 53 -37z m401 -55 l1 -93 30 38 c23 27 39 37 60 37 16 0 29 -3 29 -6 0
-4 -16 -27 -35 -53 l-34 -47 21 -35 c11 -19 29 -49 40 -66 l20 -33 -36 0 c-30
0 -38 5 -57 40 -26 45 -39 43 -39 -6 0 -31 -2 -34 -30 -34 l-30 0 0 175 0 175
30 0 30 0 0 -92z m1740 -83 l0 -176 -42 1 c-24 1 -55 -1 -69 -5 -19 -5 -33 -1
-55 18 -28 24 -29 29 -28 107 1 68 4 85 21 102 22 21 54 27 91 14 21 -7 22 -5
22 53 l0 61 30 0 30 0 0 -175z m452 83 l3 -92 25 37 c20 30 31 37 58 37 30 0
42 -12 24 -24 -5 -3 -21 -23 -36 -44 l-27 -40 41 -66 41 -67 -38 3 c-32 3 -41
9 -58 40 -26 49 -35 48 -35 -2 0 -39 -1 -40 -35 -40 l-35 0 0 175 0 175 35 0
34 0 3 -92z m728 27 l0 -66 30 16 c33 17 60 13 85 -11 11 -12 15 -40 15 -120
l0 -104 -30 0 -30 0 0 90 c0 75 -3 92 -16 97 -37 14 -49 -10 -52 -101 l-3 -86
-29 0 -30 0 0 175 0 175 30 0 30 0 0 -65z m530 4 c0 -58 1 -60 23 -53 76 26
107 -8 107 -118 0 -71 -2 -81 -26 -105 -20 -20 -31 -24 -52 -18 -15 4 -46 6
-69 5 l-43 -1 0 176 0 175 30 0 30 0 0 -61z m-1480 -9 c0 -38 2 -40 30 -40 25
0 30 -4 30 -25 0 -21 -5 -25 -30 -25 l-31 0 3 -67 c3 -66 4 -68 31 -71 21 -3
27 -8 23 -19 -3 -8 -6 -19 -6 -24 0 -16 -73 -10 -92 8 -14 13 -18 31 -18 90 0
66 -2 75 -20 80 -13 3 -20 14 -20 29 0 17 6 24 20 24 17 0 20 7 20 40 0 38 2
40 30 40 28 0 30 -2 30 -40z m-2095 -61 c17 -16 20 -33 20 -100 0 -77 -1 -82
-29 -106 -28 -24 -47 -26 -88 -8 -16 6 -18 0 -18 -59 l0 -66 -30 0 -30 0 0
181 0 182 38 -5 c20 -3 46 -2 57 3 26 10 55 2 80 -22z m438 -1 c14 -16 17 -39
17 -120 l0 -100 -32 3 c-18 1 -48 -1 -66 -5 -50 -12 -82 13 -82 64 0 44 20 64
83 81 28 7 37 15 35 27 -5 26 -48 28 -55 3 -6 -25 -51 -29 -60 -5 -8 21 27 67
58 75 36 11 82 0 102 -23z m253 22 c39 -15 53 -39 54 -87 l0 -43 -61 0 c-60 0
-60 0 -57 -27 3 -32 44 -46 54 -19 9 23 64 21 64 -2 0 -51 -67 -84 -124 -62
-45 17 -55 38 -56 116 0 78 20 119 63 127 12 2 25 5 29 6 4 0 19 -4 34 -9z
m201 -1 c32 -12 43 -26 43 -56 0 -31 -45 -33 -53 -3 -7 26 -47 27 -47 1 0 -12
12 -23 33 -31 74 -30 97 -83 58 -131 -40 -50 -151 -22 -151 38 0 19 5 23 30
23 24 0 30 -4 30 -21 0 -15 5 -20 22 -17 41 6 32 33 -19 59 -91 46 -80 134 19
148 4 1 19 -4 35 -10z m197 -3 c31 -13 53 -55 38 -71 -14 -14 -50 -3 -55 16
-4 13 -12 20 -24 17 -29 -5 -21 -32 15 -50 73 -36 92 -81 53 -129 -15 -19 -29
-24 -66 -24 -37 0 -51 5 -66 24 -29 36 -25 61 10 61 21 0 30 -6 34 -21 7 -25
40 -22 45 3 2 12 -11 24 -43 39 -74 35 -85 107 -21 135 39 17 40 17 80 0z
m205 3 c17 -6 36 -19 41 -29 6 -10 10 -62 10 -115 l0 -96 -37 1 c-21 1 -50 -2
-65 -6 -45 -10 -78 18 -78 66 0 44 20 64 83 81 28 7 37 15 35 27 -5 25 -45 27
-58 3 -6 -13 -21 -21 -35 -21 -62 0 -3 95 61 99 6 1 25 -4 43 -10z m318 -21
c17 -16 23 -33 23 -65 l0 -43 -61 0 c-60 0 -60 0 -57 -27 3 -32 44 -46 54 -19
8 20 64 22 64 2 0 -69 -102 -98 -158 -45 -19 17 -22 31 -22 98 0 68 3 80 23
98 12 11 29 23 37 26 25 10 73 -2 97 -25z m1001 -4 c18 -21 22 -36 22 -98 0
-77 -15 -107 -61 -121 -31 -10 -84 3 -105 26 -23 26 -31 127 -13 170 24 60
111 73 157 23z m240 8 c8 -10 12 -52 12 -119 l0 -103 -30 0 -30 0 0 90 c0 75
-3 92 -17 97 -32 12 -53 -32 -53 -113 l0 -74 -30 0 -30 0 0 120 0 120 29 0
c16 0 31 -5 33 -11 2 -6 14 -5 33 5 33 17 63 13 83 -12z m529 -4 c17 -16 23
-33 23 -65 l0 -43 -61 0 c-60 0 -60 0 -57 -27 3 -32 44 -46 54 -19 4 10 18 16
35 16 22 0 29 -5 29 -20 0 -42 -64 -79 -115 -66 -52 13 -65 39 -65 124 0 69 3
81 23 99 12 11 29 23 37 26 25 10 73 -2 97 -25z m539 8 c7 -6 15 -59 19 -118
l7 -108 -36 0 -36 0 0 90 c0 72 -3 92 -15 96 -33 13 -45 -15 -45 -102 l0 -84
-35 0 -35 0 0 120 0 120 35 0 c19 0 35 -4 35 -9 0 -6 12 -3 28 4 28 15 58 12
78 -9z m219 -7 c17 -16 21 -36 23 -120 l4 -100 -44 1 c-23 1 -54 -1 -68 -5
-35 -9 -80 27 -80 64 0 39 19 60 70 75 33 10 46 19 48 35 3 17 -2 21 -22 21
-16 0 -27 -7 -31 -20 -4 -12 -15 -20 -29 -20 -32 0 -36 7 -24 42 20 56 108 72
153 27z m394 20 c36 -13 61 -53 61 -99 l0 -30 -59 0 c-65 0 -73 -5 -64 -38 6
-26 53 -32 53 -7 0 11 11 15 36 15 32 0 35 -2 29 -22 -4 -13 -18 -34 -33 -47
-21 -19 -33 -22 -65 -18 -59 8 -80 35 -85 107 -5 75 11 118 52 136 38 16 36
16 75 3z m204 -3 c15 -8 27 -11 27 -5 0 5 14 9 31 9 l30 0 -3 -155 c-3 -145
-4 -156 -26 -177 -17 -18 -34 -23 -73 -23 -43 0 -54 4 -75 29 -14 15 -24 36
-22 45 5 25 45 26 60 2 26 -42 78 -16 78 39 0 17 -3 19 -19 10 -36 -19 -78
-12 -100 16 -17 21 -21 41 -21 93 0 92 16 118 80 130 3 0 17 -6 33 -13z m282
-17 c17 -16 21 -35 23 -120 l4 -100 -44 1 c-23 1 -54 -1 -68 -5 -35 -9 -80 27
-80 64 0 39 19 60 70 75 33 10 46 19 48 35 4 28 -33 29 -50 1 -12 -19 -48 -27
-60 -14 -15 14 11 60 43 77 40 20 84 15 114 -14z m-3045 -100 l0 -120 -32 3
-33 3 -3 104 c-1 58 0 111 2 118 3 7 19 13 36 13 l30 0 0 -121z m2280 64 c19
-91 25 -93 45 -14 17 70 17 71 51 71 22 0 32 -4 29 -12 -3 -7 -25 -84 -50
-171 -24 -87 -47 -162 -50 -168 -4 -5 -20 -9 -37 -9 -24 0 -29 3 -24 16 28 74
28 99 -3 207 -18 59 -34 113 -37 122 -5 12 2 15 28 15 34 0 35 -1 48 -57z"/>
<path d="M6613 9773 c-20 -4 -23 -11 -23 -51 l0 -47 85 0 85 0 0 46 c0 40 -3
48 -22 53 -25 6 -90 6 -125 -1z"/>
<path d="M1028 6980 c-122 -21 -255 -82 -286 -132 -13 -22 -13 -29 -3 -42 19
-22 36 -20 48 7 14 29 118 81 204 102 99 23 215 20 269 -7 34 -18 46 -29 48
-50 7 -57 -49 -117 -158 -173 -61 -31 -178 -70 -186 -62 -8 8 37 96 79 155
l31 43 -22 21 c-18 18 -23 19 -37 8 -31 -26 -105 -138 -135 -204 -29 -64 -44
-79 -53 -53 -4 9 -7 9 -18 0 -10 -11 -9 -17 9 -36 18 -20 21 -31 16 -68 -4
-30 -1 -57 10 -83 18 -43 39 -44 44 0 2 16 10 53 18 81 13 44 20 54 42 59 208
46 353 128 403 227 28 53 19 97 -29 145 -63 63 -163 84 -294 62z"/>
<path d="M2142 6892 c-63 -72 -158 -199 -207 -278 -25 -41 -42 -55 -108 -87
-43 -21 -82 -35 -87 -32 -38 24 40 166 173 318 63 72 69 81 58 103 -6 13 -19
24 -29 24 -39 0 -193 -185 -257 -307 -24 -46 -33 -55 -82 -73 -60 -22 -73 -20
-73 14 0 34 -30 66 -65 70 -58 7 -179 -55 -205 -105 -16 -28 -4 -55 30 -69 33
-14 75 -4 151 37 44 24 48 24 77 9 40 -21 71 -20 102 1 18 13 25 14 28 4 2 -7
14 -24 27 -39 32 -38 105 -38 161 -1 l39 26 28 -21 27 -20 44 49 43 49 41 -43
c37 -39 45 -43 76 -38 20 3 63 18 97 33 56 25 62 26 71 11 13 -25 62 -47 101
-47 68 0 197 60 197 91 0 5 -21 1 -47 -7 -27 -8 -61 -17 -78 -20 l-30 -5 28
21 c43 34 34 66 -24 89 -21 7 -37 5 -76 -14 -28 -12 -59 -32 -70 -44 -13 -14
-52 -29 -108 -43 l-88 -22 -19 24 c-26 32 -19 43 35 60 32 10 46 20 45 30 -4
21 -49 24 -94 5 -20 -8 -39 -13 -42 -11 -7 7 94 142 160 213 58 63 63 79 29
100 -17 11 -26 5 -79 -55z"/>
<path d="M1595 6173 c-19 -27 -62 -103 -96 -170 l-61 -121 -76 -6 c-42 -4 -98
-8 -124 -11 -56 -5 -58 0 -27 69 11 26 31 83 44 127 20 65 22 84 12 100 -14
22 -32 25 -44 7 -4 -7 -36 -78 -70 -157 -34 -80 -66 -148 -71 -153 -5 -5 -70
-14 -145 -20 -135 -12 -158 -21 -109 -43 30 -13 34 -32 22 -95 -5 -29 -10 -74
-10 -101 0 -56 23 -85 77 -95 27 -5 39 -2 60 17 37 35 82 102 138 209 l50 95
125 11 c69 7 129 8 133 4 5 -4 4 -17 -2 -28 -13 -24 -47 -167 -55 -228 -6 -47
5 -96 22 -102 7 -2 9 8 6 30 -4 23 10 76 44 177 56 166 56 167 171 155 82 -8
74 9 -14 27 -36 7 -65 16 -65 21 0 13 86 179 113 220 45 65 50 78 36 94 -21
26 -48 15 -84 -33z m-557 -401 c-55 -91 -109 -172 -115 -172 -3 0 -3 33 1 74
4 41 2 84 -3 99 -10 25 -9 26 47 32 31 4 62 8 67 9 23 7 24 -8 3 -42z"/>
<path d="M1719 5785 c-45 -16 -109 -56 -130 -81 -30 -35 -30 -54 -3 -81 22
-22 32 -25 71 -20 25 3 77 21 114 41 38 19 69 31 69 26 0 -20 80 -34 123 -23
36 10 45 9 62 -6 57 -52 122 -47 208 15 83 61 78 90 -10 52 -84 -37 -132 -53
-139 -45 -3 3 4 20 17 38 l22 32 -22 18 c-22 18 -24 18 -50 0 -15 -11 -57 -31
-94 -45 -73 -27 -68 -30 -82 40 -10 51 -77 68 -156 39z"/>
</g>
</svg>
