<?xml version="1.0" standalone="no"?>
<!DOCTYPE svg PUBLIC "-//W3C//DTD SVG 20010904//EN"
 "http://www.w3.org/TR/2001/REC-SVG-20010904/DTD/svg10.dtd">
<svg version="1.0" xmlns="http://www.w3.org/2000/svg"
 width="720.000000pt" height="1280.000000pt" viewBox="0 0 720.000000 1280.000000"
 preserveAspectRatio="xMidYMid meet">
<metadata>
Created by potrace 1.16, written by Peter Selinger 2001-2019
</metadata>
<g transform="translate(0.000000,1280.000000) scale(0.100000,-0.100000)"
fill="#000000" stroke="none">
<path d="M0 6400 l0 -6400 3600 0 3600 0 0 6400 0 6400 -3600 0 -3600 0 0
-6400z m6796 3680 c79 -37 138 -117 149 -206 9 -63 -8 -125 -50 -190 -28 -44
-31 -52 -17 -60 13 -9 13 -13 -2 -37 -23 -35 -90 -46 -137 -23 -33 16 -80 14
-147 -6 -47 -14 -99 -2 -118 28 -13 20 -14 27 -4 39 11 13 9 19 -7 38 -58 63
-80 189 -48 273 55 145 232 211 381 144z m-653 4 c125 -42 198 -200 153 -327
-41 -113 -135 -177 -261 -177 -137 0 -237 76 -264 200 -15 70 -3 142 33 203
25 41 43 58 94 84 54 28 75 33 131 33 37 0 88 -7 114 -16z m-5834 -111 c15
-56 71 -300 71 -307 0 -3 -16 -6 -35 -6 -30 0 -35 3 -35 24 0 30 -4 33 -54 37
-37 4 -40 2 -48 -29 -8 -28 -13 -32 -42 -32 l-34 0 14 58 c7 31 26 110 41 175
l27 117 43 0 c40 0 43 -2 52 -37z m401 -55 l1 -93 30 38 c23 27 39 37 60 37
16 0 29 -3 29 -6 0 -4 -16 -28 -35 -53 -30 -41 -33 -50 -21 -67 7 -10 25 -40
40 -66 l27 -48 -35 0 c-30 0 -38 5 -57 40 -26 45 -39 43 -39 -6 0 -31 -2 -34
-30 -34 l-30 0 0 175 0 175 30 0 30 0 0 -92z m1740 -83 l0 -176 -42 1 c-24 1
-55 -1 -69 -5 -19 -5 -33 -1 -55 18 -28 24 -29 29 -28 107 1 68 4 85 21 102
22 21 54 27 91 14 21 -7 22 -5 22 53 l0 61 30 0 30 0 0 -175z m452 83 l3 -92
25 37 c20 30 31 37 58 37 30 0 42 -12 24 -24 -5 -3 -21 -23 -36 -44 l-27 -40
40 -66 41 -66 -34 0 c-28 0 -38 7 -62 43 l-29 42 -3 -42 c-3 -42 -4 -43 -38
-43 l-34 0 0 175 0 175 35 0 34 0 3 -92z m728 27 l0 -66 30 16 c33 17 60 13
85 -11 11 -12 15 -40 15 -120 l0 -104 -30 0 -30 0 0 90 c0 75 -3 92 -16 97
-37 14 -49 -10 -52 -101 l-3 -86 -29 0 -30 0 0 175 0 175 30 0 30 0 0 -65z
m530 4 c0 -58 1 -60 23 -53 76 26 107 -8 107 -118 0 -71 -2 -81 -26 -105 -20
-20 -31 -24 -52 -18 -15 4 -46 6 -69 5 l-43 -1 0 176 0 175 30 0 30 0 0 -61z
m-1482 -11 c3 -35 6 -38 33 -38 24 0 29 -4 29 -25 0 -21 -5 -25 -30 -25 l-31
0 3 -67 c3 -66 4 -68 31 -71 21 -3 27 -8 23 -19 -3 -8 -6 -19 -6 -24 0 -16
-73 -10 -92 8 -14 13 -18 31 -18 90 0 66 -2 75 -20 80 -13 3 -20 14 -20 29 0
17 6 24 20 24 16 0 20 7 20 33 0 40 7 49 35 45 15 -2 21 -12 23 -40z m-2094
-59 c24 -23 34 -121 17 -172 -15 -44 -59 -66 -97 -48 -14 6 -27 11 -29 11 -3
0 -5 -30 -5 -66 l0 -65 -27 3 -28 3 -3 179 -2 179 37 -5 c21 -3 47 -2 58 3 26
10 55 2 79 -22z m405 20 c44 -16 51 -35 51 -143 l0 -96 -47 -1 c-27 0 -60 -1
-75 -1 -40 -1 -58 19 -58 63 0 43 20 63 83 80 28 7 37 15 35 27 -5 26 -48 28
-55 3 -4 -14 -13 -21 -29 -21 -65 0 -15 96 52 99 6 1 25 -4 43 -10z m290 0
c38 -14 51 -35 51 -88 l0 -41 -61 0 c-60 0 -60 0 -57 -27 3 -32 44 -46 54 -19
4 10 18 16 35 16 35 0 39 -25 10 -61 -27 -34 -99 -34 -135 0 -23 22 -26 32
-26 96 0 79 20 120 63 128 12 2 25 5 28 6 3 0 20 -4 38 -10z m198 0 c32 -12
43 -26 43 -56 0 -31 -45 -33 -53 -3 -7 26 -47 27 -47 1 0 -11 12 -23 30 -31
78 -32 101 -82 61 -131 -15 -19 -29 -24 -66 -24 -37 0 -51 5 -66 24 -29 36
-25 61 11 61 24 0 30 -4 30 -21 0 -15 5 -20 23 -17 37 5 26 36 -23 60 -88 45
-75 133 22 147 4 1 19 -4 35 -10z m197 -3 c31 -13 53 -55 38 -71 -14 -14 -50
-3 -55 16 -4 13 -12 20 -24 17 -29 -5 -21 -32 15 -50 73 -36 92 -81 53 -129
-15 -19 -29 -24 -66 -24 -37 0 -51 5 -66 24 -29 36 -25 61 10 61 21 0 30 -6
34 -21 7 -25 40 -22 45 3 2 12 -11 24 -43 39 -74 35 -86 106 -22 134 40 18 41
18 81 1z m205 3 c17 -6 36 -19 41 -29 6 -10 10 -62 10 -115 l0 -97 -32 3 c-18
1 -48 -1 -66 -5 -50 -12 -82 13 -82 64 0 44 20 64 83 81 28 7 37 15 35 27 -5
25 -45 27 -58 3 -13 -24 -48 -28 -56 -6 -8 20 21 64 49 75 30 12 39 12 76 -1z
m318 -21 c17 -16 23 -33 23 -65 l0 -43 -61 0 c-60 0 -60 0 -57 -27 3 -32 44
-46 54 -19 8 20 64 22 64 2 0 -69 -102 -98 -158 -45 -19 17 -22 31 -22 98 0
68 3 80 23 98 12 11 29 23 37 26 25 10 73 -2 97 -25z m1001 -4 c18 -21 22 -36
22 -98 0 -65 -3 -75 -26 -97 -35 -33 -104 -34 -136 -2 -27 28 -37 127 -17 174
24 60 111 73 157 23z m240 8 c8 -10 12 -52 12 -119 l0 -103 -30 0 -30 0 0 90
c0 75 -3 92 -17 97 -32 12 -53 -32 -53 -113 l0 -74 -30 0 -30 0 0 120 0 120
29 0 c16 0 31 -5 33 -11 2 -6 14 -5 33 5 33 17 63 13 83 -12z m529 -4 c17 -16
23 -33 23 -65 l0 -43 -61 0 c-60 0 -60 0 -57 -27 3 -32 44 -46 54 -19 4 10 18
16 35 16 35 0 40 -29 9 -60 -27 -27 -63 -34 -105 -20 -46 15 -55 34 -55 123 0
64 3 76 23 94 12 11 29 23 37 26 25 10 73 -2 97 -25z m540 8 c6 -6 13 -57 16
-118 l5 -108 -34 0 -34 0 0 90 c0 72 -3 92 -15 96 -33 13 -45 -15 -45 -102 l0
-84 -35 0 -35 0 0 120 0 120 35 0 c19 0 35 -4 35 -9 0 -6 12 -3 28 4 28 15 58
12 79 -9z m218 -7 c17 -16 21 -35 23 -120 l4 -100 -44 1 c-23 1 -54 -1 -68 -5
-35 -9 -80 27 -80 64 0 39 19 60 70 75 33 10 46 19 48 35 4 28 -33 29 -50 1
-12 -19 -48 -27 -60 -14 -15 14 11 60 43 77 40 20 84 15 114 -14z m400 16 c37
-15 55 -46 55 -96 0 -29 0 -29 -59 -29 -65 0 -73 -5 -64 -38 6 -26 53 -32 53
-7 0 11 11 15 36 15 32 0 35 -2 29 -22 -4 -13 -18 -34 -33 -47 -21 -19 -33
-22 -65 -18 -59 8 -80 35 -85 107 -5 75 11 118 52 136 39 17 40 17 81 -1z
m198 1 c15 -8 27 -11 27 -5 0 5 14 9 30 9 l30 0 0 -149 c0 -134 -2 -151 -20
-174 -41 -52 -147 -44 -170 13 -7 16 -9 34 -5 39 10 18 44 12 57 -9 26 -41 78
-15 78 40 0 17 -3 19 -19 10 -36 -19 -78 -12 -100 16 -16 21 -21 41 -21 90 0
72 13 107 44 122 29 14 37 14 69 -2z m285 -22 c19 -22 22 -36 22 -120 l0 -95
-42 1 c-24 1 -55 -1 -70 -5 -21 -6 -32 -2 -52 18 -48 48 -29 99 44 121 33 10
46 19 48 35 4 28 -33 29 -50 1 -12 -19 -48 -27 -60 -14 -15 14 11 60 43 77 43
22 86 16 117 -19z m-3048 -94 l0 -120 -35 0 -35 0 0 113 c0 63 3 117 7 120 3
4 19 7 35 7 l28 0 0 -120z m2271 103 c0 -10 8 -43 18 -73 l17 -55 19 73 c18
70 20 72 51 72 l32 0 -24 -82 c-79 -281 -76 -273 -113 -276 -28 -3 -33 -1 -27
14 28 74 28 99 -3 207 -18 59 -34 113 -37 122 -5 12 2 15 30 15 27 0 36 -4 37
-17z m-1475 -826 c28 -7 82 -34 120 -59 361 -238 373 -243 413 -192 12 15 21
35 21 45 0 11 7 19 16 19 14 0 16 -12 13 -84 -4 -78 -6 -87 -33 -115 -41 -43
-84 -55 -132 -38 -22 7 -112 60 -202 118 -261 167 -264 169 -303 169 -89 0
-126 -113 -98 -302 l11 -73 86 -55 c47 -30 126 -81 174 -113 l89 -57 -3 -53
c-2 -28 -7 -52 -13 -52 -5 -1 -27 -4 -47 -8 -39 -8 -28 -15 -313 172 -55 35
-117 71 -139 78 -35 12 -42 12 -82 -8 -24 -11 -44 -25 -44 -30 0 -4 -7 -6 -15
-3 -18 7 -17 13 31 134 18 47 38 98 43 113 l11 28 91 -62 92 -62 -6 34 c-3 19
-13 74 -22 123 -19 106 -13 173 20 231 31 53 65 84 112 100 48 18 48 18 109 2z
m520 -817 c8 -36 25 -97 38 -135 22 -63 24 -75 12 -108 -18 -54 -23 -55 -46
-1 -44 101 -71 216 -64 267 5 41 9 48 27 45 16 -2 23 -15 33 -68z m-1037 -18
c24 -9 46 -22 48 -28 2 -5 -12 -17 -31 -26 -18 -9 -49 -30 -69 -47 -19 -17
-45 -31 -59 -31 -83 0 -122 -111 -98 -282 l13 -90 141 -93 c78 -50 151 -97
164 -104 39 -21 24 -26 -59 -23 -70 3 -86 1 -110 -17 l-28 -21 -119 79 c-65
43 -134 83 -154 90 -40 13 -79 3 -115 -31 -20 -19 -23 -19 -29 -4 -7 19 75
247 92 253 6 2 46 -19 88 -47 43 -28 82 -50 86 -48 4 2 1 26 -6 53 -8 28 -17
97 -21 155 -5 100 -4 108 21 157 27 54 70 93 121 111 43 15 74 13 124 -6z
m1476 -81 c42 -19 104 -81 128 -128 23 -45 56 -144 66 -200 33 -171 61 -543
42 -543 -6 0 -11 17 -11 39 0 22 -4 43 -10 46 -5 3 -10 34 -11 68 0 44 -3 56
-9 42 -8 -18 -9 -18 -9 5 -1 14 -6 32 -12 40 -8 11 -9 3 -4 -30 7 -53 -5 -231
-15 -225 -4 3 -11 49 -14 102 -4 54 -12 151 -18 216 l-11 118 -176 -7 c-97 -3
-180 -9 -185 -12 -5 -3 -7 -96 -4 -213 4 -154 2 -209 -6 -209 -7 0 -12 8 -12
18 -1 9 -6 60 -13 112 -11 92 -12 494 0 448 5 -23 5 -23 10 3 6 30 -17 59 -25
31 -15 -53 -28 -246 -25 -370 2 -78 0 -142 -4 -142 -5 0 -7 -20 -6 -45 2 -24
0 -47 -3 -51 -14 -13 -20 114 -16 327 5 247 18 330 68 429 65 127 179 180 285
131z m-657 -30 c97 -50 165 -189 198 -404 22 -147 44 -450 33 -462 -5 -5 -9 6
-9 30 0 46 -7 58 -35 69 -15 5 -16 9 -6 15 10 7 11 29 5 107 l-8 99 -8 -75
c-4 -41 -9 -115 -11 -165 -2 -49 -8 -90 -13 -90 -5 0 -12 45 -16 100 -4 55
-13 151 -19 214 l-12 114 -175 -7 c-97 -3 -178 -9 -181 -12 -3 -3 -5 -99 -5
-214 1 -116 -3 -210 -7 -210 -5 0 -9 13 -9 29 0 32 -23 84 -33 74 -4 -3 -7 0
-7 8 0 11 -2 11 -10 -1 -5 -8 -10 -36 -10 -62 0 -27 -4 -48 -9 -48 -29 0 -25
457 5 610 28 146 84 240 169 284 42 22 127 20 173 -3z m-602 -20 c52 -24 101
-76 114 -121 13 -46 13 -140 0 -140 -5 0 -10 12 -10 28 0 34 -10 49 -35 54
-17 2 -20 -3 -23 -40 -4 -47 -22 -48 -22 -1 0 64 -47 129 -93 129 -33 0 -84
-30 -96 -56 -16 -36 -14 -70 9 -112 28 -53 47 -73 118 -121 91 -62 131 -99
170 -161 31 -48 36 -64 39 -130 3 -64 1 -81 -19 -115 -13 -21 -43 -53 -66 -70
-39 -27 -51 -30 -117 -30 -82 0 -105 11 -158 77 -21 26 -30 50 -33 85 l-4 48
14 -44 c20 -60 96 -128 152 -137 58 -8 118 10 132 42 7 14 16 23 21 19 19 -11
46 68 44 126 -2 64 -24 114 -76 171 -30 33 -36 36 -53 24 -17 -13 -17 -14 2
-20 29 -10 72 -73 91 -132 14 -44 14 -60 5 -93 -7 -21 -9 -47 -6 -57 4 -12 3
-15 -3 -7 -6 9 -17 4 -40 -17 -34 -32 -86 -40 -136 -21 -29 11 -68 51 -62 62
3 4 0 20 -5 35 -19 49 6 50 28 1 21 -48 45 -67 86 -67 60 0 106 46 106 108 0
15 -12 51 -26 80 -20 41 -42 63 -102 106 -118 83 -156 121 -191 185 -69 130
-21 270 109 315 59 20 87 19 136 -3z m1751 -103 c32 -293 54 -485 59 -505 4
-22 9 -23 87 -23 130 0 214 37 253 112 26 51 9 126 -42 179 l-25 27 37 22 c35
22 37 23 50 5 18 -25 27 -96 21 -169 -17 -198 -197 -339 -412 -323 -70 5 -148
29 -174 53 -9 8 -16 42 -19 93 l-5 81 65 -29 c35 -16 81 -33 102 -37 l39 -7
-6 34 c-3 19 -14 108 -24 199 -16 157 -18 166 -45 194 -27 26 -33 28 -86 23
-31 -3 -66 -7 -76 -9 -13 -2 -23 6 -32 29 l-14 32 61 41 c65 45 135 79 160 80
12 0 18 -21 26 -102z m-2845 -287 c-3 -48 0 -60 20 -81 37 -41 758 -502 797
-511 28 -6 45 -3 78 13 24 12 46 19 49 15 9 -9 -188 -317 -203 -317 -8 0 -10
16 -7 53 3 32 0 61 -8 77 -16 29 -3 20 -447 307 -381 247 -388 250 -451 197
-21 -18 -35 -23 -41 -17 -7 7 25 64 96 173 59 89 109 159 113 155 4 -4 6 -32
4 -64z m1692 -137 c12 -31 6 -224 -9 -287 -8 -35 -26 -90 -40 -122 -14 -32
-25 -71 -23 -88 2 -19 -3 -33 -14 -40 -14 -9 -23 -6 -49 18 -17 17 -40 47 -51
68 -19 37 -19 39 -1 53 26 19 31 18 47 -14 31 -60 43 -58 55 10 26 146 32 208
31 303 -1 55 -1 103 -1 108 2 14 49 7 55 -9z m616 -159 l100 -64 0 -46 c0
-100 46 -134 163 -118 79 11 66 16 189 -64 82 -52 132 -57 184 -18 20 16 35
21 39 15 8 -13 -195 -330 -212 -330 -8 0 -10 16 -6 55 4 41 2 60 -11 80 -15
23 -143 111 -457 313 l-96 62 -7 53 c-9 77 -7 127 4 127 6 0 55 -29 110 -65z
m-149 -268 c9 -12 90 -130 180 -262 91 -132 187 -271 213 -309 44 -62 47 -69
32 -84 -16 -17 -103 -3 -881 143 -71 13 -131 23 -132 21 -4 -3 567 -376 656
-428 57 -34 96 -35 143 -3 68 46 65 32 -18 -101 -36 -58 -71 -103 -78 -101 -6
3 -9 11 -7 18 13 50 11 86 -7 114 -21 33 -730 499 -791 521 -41 14 -84 4 -117
-27 -38 -35 -38 -3 0 60 l36 59 152 -5 c97 -4 168 -1 193 6 34 9 81 3 365 -49
179 -33 333 -63 343 -66 9 -3 17 -1 17 4 0 5 -39 65 -86 133 -138 197 -254
368 -254 374 0 13 27 2 41 -18z m-1079 -2697 c51 -14 92 -64 84 -103 -14 -68
-111 -137 -193 -137 -59 0 -83 25 -83 86 0 27 4 43 10 39 6 -3 10 -23 10 -44
0 -49 14 -61 71 -61 87 0 173 68 167 130 -4 35 -75 70 -144 70 -166 0 -390
-118 -503 -263 -53 -70 -71 -115 -71 -181 0 -47 4 -60 30 -90 41 -47 86 -60
180 -53 59 4 94 13 153 40 120 55 217 128 270 201 l21 29 -105 -7 c-57 -4
-132 -9 -166 -13 -53 -5 -63 -3 -63 10 0 9 19 23 47 33 40 15 80 18 259 19
117 0 216 -3 220 -7 13 -14 -4 -20 -68 -26 -60 -5 -64 -7 -95 -49 -18 -24 -33
-48 -33 -53 0 -6 -4 -10 -8 -10 -5 0 -19 -19 -33 -41 -13 -23 -31 -52 -39 -64
-8 -13 -37 -59 -64 -104 -47 -78 -75 -105 -60 -58 3 12 27 62 51 111 24 48 43
90 41 91 -2 2 -48 -19 -103 -46 -118 -58 -195 -79 -285 -79 -109 1 -177 45
-200 131 -34 124 85 294 291 417 45 27 161 71 214 82 58 11 155 11 197 0z
m1308 -131 c0 -18 -20 -50 -92 -146 -37 -51 -78 -109 -91 -130 l-22 -38 65 48
c163 119 266 136 181 29 -43 -54 -101 -153 -101 -173 0 -58 74 -10 191 121 96
109 107 119 132 120 24 0 21 -19 -7 -49 -35 -38 -116 -162 -123 -188 -3 -13
-2 -30 1 -38 5 -13 9 -14 30 -3 38 21 87 68 143 138 73 93 127 143 149 138 27
-5 28 -29 2 -58 -44 -48 -105 -135 -118 -168 -30 -76 32 -59 134 37 34 31 54
47 46 36 -29 -41 -135 -136 -158 -142 -13 -3 -35 0 -49 6 -22 10 -25 17 -21
51 4 46 -1 49 -28 19 -57 -65 -133 -96 -162 -67 -15 15 -15 53 -1 80 19 35 4
29 -57 -23 -70 -59 -97 -68 -124 -44 -34 31 -21 100 33 178 30 44 16 50 -38
13 -59 -40 -91 -70 -164 -154 -30 -34 -58 -62 -64 -62 -17 0 4 53 54 138 27
46 49 86 49 88 0 11 126 190 154 220 31 33 56 43 56 23z m-553 -157 c10 -11
26 -22 36 -25 24 -9 22 -14 -26 -88 -24 -36 -51 -83 -59 -105 -34 -85 23 -84
108 1 60 60 73 61 20 2 -45 -50 -95 -87 -120 -87 -27 0 -56 29 -56 57 0 33
-14 29 -62 -17 -52 -48 -71 -55 -108 -40 -44 18 -56 59 -32 112 31 70 136 168
209 194 52 18 69 17 90 -4z m-477 -44 c0 -7 -30 -46 -68 -87 -75 -81 -106
-131 -93 -144 5 -5 18 -6 30 -2 32 10 169 115 238 184 101 99 123 78 46 -44
-27 -41 -70 -113 -98 -162 -27 -48 -61 -100 -74 -116 -39 -46 -101 -87 -131
-87 -30 0 -80 34 -68 46 5 4 16 0 26 -9 54 -49 144 25 217 178 52 110 64 145
44 129 -98 -75 -143 -106 -182 -125 -45 -22 -47 -22 -67 -4 -29 27 -25 54 20
124 56 87 99 129 133 130 15 1 27 -4 27 -11z"/>
<path d="M6613 9773 c-20 -4 -23 -11 -23 -51 l0 -47 85 0 85 0 0 46 c0 40 -3
48 -22 53 -25 6 -90 6 -125 -1z"/>
<path d="M4126 8075 c-42 -41 -56 -65 -39 -65 4 0 24 16 44 36 31 31 45 36 96
41 l60 6 47 -45 c25 -25 49 -42 53 -39 3 3 3 0 -1 -7 -4 -7 2 -32 13 -55 11
-23 23 -61 27 -84 4 -29 12 -43 22 -43 21 0 11 83 -16 135 -12 22 -30 59 -41
81 -25 54 -84 84 -164 84 -53 0 -58 -2 -101 -45z"/>
<path d="M4196 8046 c-54 -24 -116 -149 -116 -234 l0 -35 122 6 c66 4 139 7
161 7 l40 0 -5 43 c-8 65 -66 178 -107 205 -38 25 -53 26 -95 8z"/>
<path d="M3514 8011 c-19 -12 -42 -41 -58 -73 -26 -54 -52 -165 -41 -176 7 -8
211 -4 274 5 l43 6 -5 43 c-2 23 -18 72 -35 108 -46 98 -109 129 -178 87z"/>
<path d="M3745 4127 c-65 -21 -175 -119 -210 -187 -40 -78 15 -107 84 -45 36
33 181 215 181 228 0 11 -27 13 -55 4z"/>
</g>
</svg>
