<?xml version="1.0" standalone="no"?>
<!DOCTYPE svg PUBLIC "-//W3C//DTD SVG 20010904//EN"
 "http://www.w3.org/TR/2001/REC-SVG-20010904/DTD/svg10.dtd">
<svg version="1.0" xmlns="http://www.w3.org/2000/svg"
 width="720.000000pt" height="1280.000000pt" viewBox="0 0 720.000000 1280.000000"
 preserveAspectRatio="xMidYMid meet">
<metadata>
Created by potrace 1.16, written by Peter Selinger 2001-2019
</metadata>
<g transform="translate(0.000000,1280.000000) scale(0.100000,-0.100000)"
fill="#000000" stroke="none">
<path d="M0 6400 l0 -6400 3600 0 3600 0 0 6400 0 6400 -3600 0 -3600 0 0
-6400z m6796 3680 c79 -37 138 -117 149 -206 9 -63 -8 -125 -50 -190 -28 -44
-31 -52 -17 -60 13 -9 13 -13 -2 -37 -23 -35 -90 -46 -137 -23 -33 16 -80 14
-147 -6 -47 -14 -99 -2 -118 28 -13 20 -14 27 -4 39 11 13 9 19 -7 38 -58 63
-80 189 -48 273 55 145 232 211 381 144z m-653 4 c125 -42 198 -200 153 -327
-41 -113 -135 -177 -261 -177 -137 0 -237 76 -264 200 -15 70 -3 142 33 203
25 41 43 58 94 84 54 28 75 33 131 33 37 0 88 -7 114 -16z m-5834 -111 c15
-56 71 -300 71 -307 0 -3 -16 -6 -35 -6 -30 0 -35 3 -35 24 0 30 -4 33 -54 37
-37 4 -40 2 -48 -29 -8 -28 -13 -32 -42 -32 l-34 0 14 58 c7 31 26 110 41 175
l27 117 43 0 c40 0 43 -2 52 -37z m401 -55 l1 -93 30 38 c23 27 39 37 60 37
16 0 29 -3 29 -6 0 -4 -16 -28 -35 -53 -30 -41 -33 -50 -21 -67 7 -10 25 -40
40 -66 l27 -48 -35 0 c-30 0 -38 5 -57 40 -26 45 -39 43 -39 -6 0 -31 -2 -34
-30 -34 l-30 0 0 175 0 175 30 0 30 0 0 -92z m1740 -83 l0 -176 -42 1 c-24 1
-55 -1 -69 -5 -19 -5 -33 -1 -55 18 -28 24 -29 29 -28 107 1 68 4 85 21 102
22 21 54 27 91 14 21 -7 22 -5 22 53 l0 61 30 0 30 0 0 -175z m452 83 l3 -92
25 37 c20 30 31 37 58 37 30 0 42 -12 24 -24 -5 -3 -21 -23 -36 -44 l-27 -40
40 -66 41 -66 -34 0 c-28 0 -38 7 -62 43 l-29 42 -3 -42 c-3 -42 -4 -43 -38
-43 l-34 0 0 175 0 175 35 0 34 0 3 -92z m728 27 l0 -66 30 16 c33 17 60 13
85 -11 11 -12 15 -40 15 -120 l0 -104 -30 0 -30 0 0 90 c0 75 -3 92 -16 97
-37 14 -49 -10 -52 -101 l-3 -86 -29 0 -30 0 0 175 0 175 30 0 30 0 0 -65z
m530 4 c0 -58 1 -60 23 -53 76 26 107 -8 107 -118 0 -71 -2 -81 -26 -105 -20
-20 -31 -24 -52 -18 -15 4 -46 6 -69 5 l-43 -1 0 176 0 175 30 0 30 0 0 -61z
m-1482 -11 c3 -35 6 -38 33 -38 24 0 29 -4 29 -25 0 -21 -5 -25 -30 -25 l-31
0 3 -67 c3 -66 4 -68 31 -71 21 -3 27 -8 23 -19 -3 -8 -6 -19 -6 -24 0 -16
-73 -10 -92 8 -14 13 -18 31 -18 90 0 66 -2 75 -20 80 -13 3 -20 14 -20 29 0
17 6 24 20 24 16 0 20 7 20 33 0 40 7 49 35 45 15 -2 21 -12 23 -40z m-2094
-59 c24 -23 34 -121 17 -172 -15 -44 -59 -66 -97 -48 -14 6 -27 11 -29 11 -3
0 -5 -30 -5 -66 l0 -65 -27 3 -28 3 -3 179 -2 179 37 -5 c21 -3 47 -2 58 3 26
10 55 2 79 -22z m405 20 c44 -16 51 -35 51 -143 l0 -96 -47 -1 c-27 0 -60 -1
-75 -1 -40 -1 -58 19 -58 63 0 43 20 63 83 80 28 7 37 15 35 27 -5 26 -48 28
-55 3 -4 -14 -13 -21 -29 -21 -65 0 -15 96 52 99 6 1 25 -4 43 -10z m290 0
c38 -14 51 -35 51 -88 l0 -41 -61 0 c-60 0 -60 0 -57 -27 3 -32 44 -46 54 -19
4 10 18 16 35 16 35 0 39 -25 10 -61 -27 -34 -99 -34 -135 0 -23 22 -26 32
-26 96 0 79 20 120 63 128 12 2 25 5 28 6 3 0 20 -4 38 -10z m198 0 c32 -12
43 -26 43 -56 0 -31 -45 -33 -53 -3 -7 26 -47 27 -47 1 0 -11 12 -23 30 -31
78 -32 101 -82 61 -131 -15 -19 -29 -24 -66 -24 -37 0 -51 5 -66 24 -29 36
-25 61 11 61 24 0 30 -4 30 -21 0 -15 5 -20 23 -17 37 5 26 36 -23 60 -88 45
-75 133 22 147 4 1 19 -4 35 -10z m197 -3 c31 -13 53 -55 38 -71 -14 -14 -50
-3 -55 16 -4 13 -12 20 -24 17 -29 -5 -21 -32 15 -50 73 -36 92 -81 53 -129
-15 -19 -29 -24 -66 -24 -37 0 -51 5 -66 24 -29 36 -25 61 10 61 21 0 30 -6
34 -21 7 -25 40 -22 45 3 2 12 -11 24 -43 39 -74 35 -86 106 -22 134 40 18 41
18 81 1z m205 3 c17 -6 36 -19 41 -29 6 -10 10 -62 10 -115 l0 -97 -32 3 c-18
1 -48 -1 -66 -5 -50 -12 -82 13 -82 64 0 44 20 64 83 81 28 7 37 15 35 27 -5
25 -45 27 -58 3 -13 -24 -48 -28 -56 -6 -8 20 21 64 49 75 30 12 39 12 76 -1z
m318 -21 c17 -16 23 -33 23 -65 l0 -43 -61 0 c-60 0 -60 0 -57 -27 3 -32 44
-46 54 -19 8 20 64 22 64 2 0 -69 -102 -98 -158 -45 -19 17 -22 31 -22 98 0
68 3 80 23 98 12 11 29 23 37 26 25 10 73 -2 97 -25z m1001 -4 c18 -21 22 -36
22 -98 0 -65 -3 -75 -26 -97 -35 -33 -104 -34 -136 -2 -27 28 -37 127 -17 174
24 60 111 73 157 23z m240 8 c8 -10 12 -52 12 -119 l0 -103 -30 0 -30 0 0 90
c0 75 -3 92 -17 97 -32 12 -53 -32 -53 -113 l0 -74 -30 0 -30 0 0 120 0 120
29 0 c16 0 31 -5 33 -11 2 -6 14 -5 33 5 33 17 63 13 83 -12z m529 -4 c17 -16
23 -33 23 -65 l0 -43 -61 0 c-60 0 -60 0 -57 -27 3 -32 44 -46 54 -19 4 10 18
16 35 16 35 0 40 -29 9 -60 -27 -27 -63 -34 -105 -20 -46 15 -55 34 -55 123 0
64 3 76 23 94 12 11 29 23 37 26 25 10 73 -2 97 -25z m540 8 c6 -6 13 -57 16
-118 l5 -108 -34 0 -34 0 0 90 c0 72 -3 92 -15 96 -33 13 -45 -15 -45 -102 l0
-84 -35 0 -35 0 0 120 0 120 35 0 c19 0 35 -4 35 -9 0 -6 12 -3 28 4 28 15 58
12 79 -9z m218 -7 c17 -16 21 -35 23 -120 l4 -100 -44 1 c-23 1 -54 -1 -68 -5
-35 -9 -80 27 -80 64 0 39 19 60 70 75 33 10 46 19 48 35 4 28 -33 29 -50 1
-12 -19 -48 -27 -60 -14 -15 14 11 60 43 77 40 20 84 15 114 -14z m400 16 c37
-15 55 -46 55 -96 0 -29 0 -29 -59 -29 -65 0 -73 -5 -64 -38 6 -26 53 -32 53
-7 0 11 11 15 36 15 32 0 35 -2 29 -22 -4 -13 -18 -34 -33 -47 -21 -19 -33
-22 -65 -18 -59 8 -80 35 -85 107 -5 75 11 118 52 136 39 17 40 17 81 -1z
m198 1 c15 -8 27 -11 27 -5 0 5 14 9 30 9 l30 0 0 -149 c0 -134 -2 -151 -20
-174 -41 -52 -147 -44 -170 13 -7 16 -9 34 -5 39 10 18 44 12 57 -9 26 -41 78
-15 78 40 0 17 -3 19 -19 10 -36 -19 -78 -12 -100 16 -16 21 -21 41 -21 90 0
72 13 107 44 122 29 14 37 14 69 -2z m285 -22 c19 -22 22 -36 22 -120 l0 -95
-42 1 c-24 1 -55 -1 -70 -5 -21 -6 -32 -2 -52 18 -48 48 -29 99 44 121 33 10
46 19 48 35 4 28 -33 29 -50 1 -12 -19 -48 -27 -60 -14 -15 14 11 60 43 77 43
22 86 16 117 -19z m-3048 -94 l0 -120 -35 0 -35 0 0 113 c0 63 3 117 7 120 3
4 19 7 35 7 l28 0 0 -120z m2271 103 c0 -10 8 -43 18 -73 l17 -55 19 73 c18
70 20 72 51 72 l32 0 -24 -82 c-79 -281 -76 -273 -113 -276 -28 -3 -33 -1 -27
14 28 74 28 99 -3 207 -18 59 -34 113 -37 122 -5 12 2 15 30 15 27 0 36 -4 37
-17z m-4717 -1100 c189 -157 276 -235 276 -249 0 -41 -50 -18 -140 64 -14 12
-71 59 -127 105 -90 73 -102 86 -102 115 -1 17 2 32 5 32 3 0 43 -30 88 -67z
m3298 -1509 c16 -8 110 -69 211 -136 100 -67 194 -126 209 -132 38 -14 73 5
89 48 21 59 39 46 39 -29 0 -100 -31 -156 -96 -174 -55 -15 -105 8 -308 143
-111 73 -211 138 -223 144 -73 39 -146 -13 -158 -113 -8 -60 1 -204 15 -239 4
-12 81 -69 174 -130 l166 -110 0 -72 c0 -72 0 -72 -30 -79 -24 -5 -38 -1 -68
23 -20 16 -120 84 -221 150 -163 109 -188 122 -226 122 -32 0 -52 -7 -75 -26
-53 -45 -54 -18 -4 107 25 63 49 122 53 132 6 15 18 10 96 -42 49 -33 90 -59
92 -58 1 2 -7 52 -18 112 -31 168 -15 258 59 328 58 56 152 68 224 31z m452
-730 c9 -3 16 -18 16 -33 0 -21 26 -124 57 -223 3 -9 -3 -38 -13 -63 -20 -53
-23 -51 -55 43 -22 62 -49 192 -49 233 0 14 5 30 12 37 14 14 12 14 32 6z
m-1000 -110 c28 -14 59 -32 68 -41 16 -14 12 -17 -42 -44 -32 -16 -63 -36 -69
-43 -9 -11 -19 -11 -58 2 -40 13 -49 14 -72 1 -68 -38 -90 -123 -70 -274 l12
-97 156 -104 156 -104 -48 0 c-60 0 -84 -12 -100 -51 l-12 -29 -126 82 c-69
46 -138 91 -152 101 -45 32 -96 33 -140 3 -42 -28 -57 -32 -57 -14 0 20 95
258 103 258 4 0 45 -25 90 -55 45 -30 83 -51 85 -45 2 5 -4 47 -12 93 -20 103
-20 207 -2 251 19 45 74 106 111 122 50 22 121 17 179 -12z m1395 -110 c45 -9
113 -74 144 -138 31 -62 60 -172 76 -286 17 -115 31 -394 20 -405 -5 -5 -9 2
-9 20 0 44 -10 74 -23 69 -9 -3 -12 30 -13 118 0 188 -31 408 -57 408 -4 0 -6
4 -3 8 8 13 -33 94 -62 125 -36 38 -74 57 -115 57 -40 0 -97 -18 -97 -31 0 -5
-8 -9 -17 -10 -15 0 -15 -2 2 -8 12 -5 33 -2 52 6 34 14 90 17 117 7 24 -9 72
-93 97 -169 12 -38 27 -76 32 -83 5 -7 14 -81 19 -165 5 -83 13 -173 17 -199
4 -26 4 -53 0 -60 -5 -7 -9 -34 -9 -60 0 -84 -17 -51 -23 45 -4 50 -9 138 -13
193 -3 56 -10 107 -14 113 -5 9 -51 10 -173 5 l-167 -7 0 -198 c0 -276 -21
-276 -38 1 l-7 115 -5 -95 -6 -95 -2 113 c-1 66 2 111 7 108 15 -9 23 68 16
139 -4 36 -9 65 -10 63 -2 -2 -5 -22 -8 -45 -3 -28 0 -43 7 -43 6 0 4 -5 -4
-10 -12 -7 -15 -42 -17 -181 -1 -94 -5 -174 -8 -177 -3 -3 -5 -26 -6 -51 0
-42 -1 -44 -11 -21 -15 36 -2 500 15 527 3 5 8 29 12 53 3 25 17 68 29 95 55
122 141 172 255 149z m-589 -34 c102 -52 166 -224 189 -505 22 -259 24 -315
12 -315 -6 0 -11 18 -11 44 0 39 -3 44 -25 48 -33 7 -35 3 -35 -54 0 -26 -4
-48 -8 -48 -5 0 -14 89 -21 197 -7 108 -15 201 -18 206 -6 11 -315 3 -333 -8
-6 -4 -10 -82 -10 -201 0 -123 -4 -194 -10 -194 -5 0 -10 13 -10 29 0 45 -10
61 -36 61 -22 0 -24 -4 -25 -47 l-1 -48 -10 45 c-5 25 -7 132 -4 240 7 276 40
417 117 505 19 21 47 44 64 51 46 20 129 17 175 -6z m-590 0 c40 -11 104 -71
119 -112 15 -39 17 -126 3 -140 -9 -9 -12 -3 -12 29 0 28 -5 43 -16 47 -23 9
-34 -2 -34 -34 0 -51 -19 -43 -26 12 -5 38 -15 60 -35 80 -31 32 -46 34 -94
14 -55 -23 -70 -78 -41 -147 17 -39 51 -72 158 -152 114 -86 168 -186 153
-282 -13 -87 -103 -165 -191 -165 -55 0 -123 37 -157 85 -28 42 -48 115 -30
115 6 0 13 -15 16 -34 3 -18 17 -45 32 -60 27 -27 51 -26 40 3 -14 32 -23 81
-16 86 4 2 15 -13 25 -34 22 -52 74 -78 117 -61 66 28 87 96 50 168 -23 44
-61 80 -157 150 -80 58 -118 107 -140 179 -34 110 25 220 134 253 38 11 61 11
102 0z m1743 -62 c4 -35 19 -178 34 -319 l27 -257 55 -6 c104 -12 230 30 275
91 40 54 25 158 -28 202 -9 8 -16 20 -16 27 0 13 49 44 69 44 17 0 35 -74 34
-145 -1 -168 -108 -301 -282 -351 -107 -32 -265 -3 -358 66 l-40 30 -5 82 c-3
46 -4 84 -3 86 2 2 27 -12 56 -32 56 -37 195 -93 206 -82 8 8 -26 350 -39 393
-13 44 -43 63 -99 63 -52 0 -102 -15 -140 -41 l-27 -19 -7 28 c-6 24 0 33 52
80 60 55 89 74 158 104 67 28 71 26 78 -44z m-2879 -260 c-12 -48 -9 -84 8
-110 16 -24 57 -52 516 -357 243 -160 278 -181 314 -181 28 0 51 8 74 25 19
15 35 21 39 15 11 -18 -193 -325 -216 -325 -8 0 -12 7 -10 15 15 51 12 96 -9
122 -22 29 -741 511 -787 529 -36 13 -84 4 -118 -23 -51 -40 -42 -2 24 97 146
222 182 264 165 193z m1712 -275 c2 -129 -24 -255 -72 -345 -8 -14 -13 -41
-12 -60 3 -28 -1 -33 -20 -36 -13 -2 -32 4 -43 14 -18 16 -72 105 -67 109 10
8 50 26 52 23 1 -2 13 -21 26 -43 l24 -40 12 45 c22 88 45 266 44 340 -1 41
-1 79 -1 83 1 5 13 7 29 5 l27 -3 1 -92z m517 -25 c12 -6 52 -31 90 -55 l67
-45 0 -63 c0 -58 2 -65 31 -89 34 -29 54 -31 146 -16 l61 10 107 -70 c152
-101 169 -106 229 -65 39 27 56 31 56 15 0 -14 -209 -324 -221 -328 -6 -3 -8
14 -3 47 12 92 11 93 -305 303 -157 105 -289 195 -292 201 -11 20 -21 126 -14
147 7 23 17 25 48 8z m146 -629 c205 -305 241 -362 230 -375 -14 -17 -54 -14
-164 12 -33 7 -235 48 -448 89 -214 42 -396 79 -405 82 -42 14 31 -37 344
-245 181 -121 344 -223 362 -227 31 -6 56 1 109 35 43 28 33 1 -39 -109 -68
-102 -98 -131 -90 -85 12 69 12 81 -7 111 -14 23 -136 110 -398 284 -336 224
-383 253 -425 257 -40 4 -53 0 -82 -22 -53 -40 -53 -14 1 65 l48 72 154 -2
c146 -2 171 -6 529 -77 207 -40 377 -72 379 -70 3 2 -77 125 -176 272 -169
251 -194 294 -173 294 5 0 118 -162 251 -361z"/>
<path d="M6613 9773 c-20 -4 -23 -11 -23 -51 l0 -47 85 0 85 0 0 46 c0 40 -3
48 -22 53 -25 6 -90 6 -125 -1z"/>
<path d="M4180 6229 c-40 -16 -67 -47 -89 -103 -22 -55 -42 -138 -36 -145 7
-6 253 -2 280 5 31 8 32 31 4 104 -31 81 -58 121 -95 136 -18 8 -35 14 -36 13
-2 0 -14 -5 -28 -10z"/>
<path d="M3546 6282 c-23 -5 -46 -26 -46 -42 0 -7 -6 -10 -14 -7 -8 3 -23 -5
-35 -17 -25 -26 -28 -44 -4 -25 15 13 15 12 2 -8 -12 -20 -15 -21 -23 -6 -7
13 -11 8 -23 -23 -11 -31 -43 -158 -43 -172 0 -2 5 0 10 3 6 3 10 2 10 -4 0
-5 -5 -11 -12 -13 -15 -5 -24 -118 -9 -118 12 0 17 18 26 95 4 28 13 75 21
107 8 31 11 64 7 74 -5 13 -3 15 7 9 9 -5 11 -4 6 3 -4 7 -3 12 2 12 4 0 27
23 50 51 23 29 42 46 42 38 0 -10 3 -10 12 -1 7 7 28 12 48 12 41 0 110 -18
109 -28 -2 -15 14 -52 23 -52 5 0 6 -4 3 -10 -3 -5 -1 -10 4 -10 6 0 11 -11
11 -24 0 -13 9 -45 20 -71 11 -26 20 -56 21 -68 1 -20 2 -20 9 3 l8 25 2 -25
c1 -14 3 -20 6 -15 6 16 -23 140 -33 138 -5 -1 -9 6 -10 15 -2 23 -56 125 -66
123 -4 -1 -20 5 -35 12 -33 17 -80 25 -106 19z"/>
<path d="M3527 6202 c-52 -32 -125 -226 -90 -239 13 -5 295 5 300 11 4 4 -18
81 -39 133 -24 62 -77 113 -116 113 -15 0 -40 -8 -55 -18z"/>
<path d="M2886 6178 c-25 -29 -22 -129 4 -151 12 -10 18 -22 15 -28 -11 -16
65 -101 83 -94 9 3 13 3 10 -1 -9 -8 3 -19 69 -67 29 -21 62 -50 73 -64 11
-14 20 -20 20 -14 0 7 5 9 10 6 6 -4 8 -15 5 -24 -3 -10 1 -24 10 -31 8 -7 15
-24 16 -39 1 -24 1 -24 10 6 9 30 5 38 -38 98 -32 43 -53 64 -65 61 -10 -2
-18 4 -21 15 -3 10 -18 24 -34 31 -15 7 -36 23 -47 36 -12 16 -24 21 -38 16
-13 -4 -18 -1 -17 8 2 7 -6 29 -16 48 -32 58 -38 155 -11 198 10 17 -23 8 -38
-10z"/>
</g>
</svg>
