<?xml version="1.0" standalone="no"?>
<!DOCTYPE svg PUBLIC "-//W3C//DTD SVG 20010904//EN"
 "http://www.w3.org/TR/2001/REC-SVG-20010904/DTD/svg10.dtd">
<svg version="1.0" xmlns="http://www.w3.org/2000/svg"
 width="720.000000pt" height="1280.000000pt" viewBox="0 0 720.000000 1280.000000"
 preserveAspectRatio="xMidYMid meet">
<metadata>
Created by potrace 1.16, written by Peter Selinger 2001-2019
</metadata>
<g transform="translate(0.000000,1280.000000) scale(0.100000,-0.100000)"
fill="#000000" stroke="none">
<path d="M0 6400 l0 -6400 3600 0 3600 0 0 1911 0 1911 -197 -8 c-325 -15
-2938 -4 -2964 11 -4 3 -163 5 -353 5 -190 0 -353 3 -361 6 -22 9 -18 44 8 67
l22 20 -90 -6 c-114 -6 -128 -12 -120 -46 4 -14 7 -30 8 -36 1 -7 -121 -11
-358 -13 -286 -2 -380 1 -457 13 -117 18 -143 29 -158 64 -17 41 -58 81 -91
88 -16 3 -32 10 -35 14 -3 5 -21 9 -40 9 -25 0 -34 4 -34 16 0 10 5 14 15 10
11 -4 15 0 13 12 -2 13 6 18 40 20 25 2 40 7 36 13 -3 6 4 13 15 16 17 4 20
10 15 27 -8 25 -23 36 -40 29 -15 -5 -29 54 -21 84 3 10 9 101 13 203 3 102 8
188 11 193 2 4 36 7 75 7 l71 0 -6 -250 c-8 -283 -13 -265 73 -238 39 13 58
41 21 31 -24 -6 -29 10 -33 107 -2 66 1 80 21 108 12 18 26 30 31 27 5 -3 11
4 15 15 7 23 23 25 50 6 29 -20 82 -9 89 18 3 11 6 128 6 259 0 219 1 237 18
238 11 1 9 4 -8 9 -21 7 -17 8 21 9 26 1 61 4 79 8 24 4 31 3 26 -5 -5 -8 0
-12 13 -12 14 0 21 6 21 19 0 17 -8 19 -94 17 -52 0 -92 -3 -90 -5 2 -3 -13
-11 -33 -18 -31 -12 -161 -15 -658 -19 -388 -2 -613 -1 -600 5 16 8 12 10 -23
10 -23 1 -58 8 -78 16 -19 8 -32 10 -29 5 8 -13 5 -13 -89 9 -44 11 -117 22
-161 25 l-80 5 63 -10 c34 -6 60 -15 56 -20 -3 -5 0 -9 5 -9 6 0 11 -4 11 -10
0 -6 -34 -11 -77 -12 -76 -1 -76 -1 -23 -7 30 -3 -120 -9 -334 -13 -215 -4
-394 -4 -398 -2 -4 3 -8 52 -8 110 l0 104 469 0 c371 0 477 -3 507 -14 22 -7
59 -16 84 -20 40 -6 43 -5 27 8 -10 8 -14 17 -9 20 13 8 101 -5 108 -15 9 -15
24 -10 18 5 -5 13 20 15 167 13 194 -2 176 -10 169 73 l-2 35 -8 -34 c-5 -19
-6 -40 -4 -46 8 -19 -32 -24 -140 -18 -94 6 -98 7 -66 18 32 11 33 12 13 19
-32 10 -38 42 -37 201 1 193 2 200 24 220 11 10 20 24 20 31 0 10 13 12 51 8
28 -3 49 -2 46 3 -3 5 -34 10 -68 11 -35 2 -65 5 -68 8 -8 7 -11 32 -18 133
-5 82 -4 96 11 107 16 11 16 13 0 22 -15 8 -16 24 -9 160 9 189 5 184 141 180
l99 -3 5 -173 c3 -96 4 -175 2 -176 -4 -4 -5 -347 -1 -521 l3 -150 7 180 c3
99 7 293 8 430 1 138 5 256 10 263 5 9 28 12 77 10 l69 -3 0 -495 0 -495 95
-2 c53 -1 84 2 70 6 l-25 7 28 7 c33 9 34 16 5 47 l-23 25 2 515 3 515 112 0
113 0 3 -557 2 -558 186 0 187 0 -7 123 c-4 67 -10 138 -13 157 -5 29 -7 32
-14 15 -7 -18 -8 -18 -8 -2 -1 13 -7 17 -23 15 -13 -2 -26 -7 -30 -13 -4 -5
-8 6 -8 25 -1 35 -1 35 -13 10 -10 -21 -13 10 -18 175 -4 110 -7 205 -8 210
-1 10 6 58 14 101 4 18 13 23 50 26 25 2 45 0 45 -4 0 -4 7 -5 14 -2 13 5 15
44 13 242 l-2 237 -370 5 c-374 5 -404 8 -434 44 -17 21 -31 11 -31 -21 l0
-25 -797 4 c-439 2 -803 7 -810 11 -10 6 -11 219 -7 975 3 532 5 1030 5 1107
-2 156 6 255 20 255 5 0 9 -8 9 -17 0 -15 2 -15 9 -4 7 11 10 10 14 -5 4 -16
5 -17 6 -1 0 9 6 17 11 17 15 0 13 137 -2 144 -10 5 -10 7 -1 12 8 4 13 27 13
65 0 38 4 58 10 54 5 -3 10 -1 10 4 0 6 7 11 16 11 12 0 15 7 12 25 -4 17 -1
25 8 25 8 0 14 7 14 15 0 8 -4 15 -10 15 -5 0 -10 7 -10 15 0 11 -12 16 -42
17 -210 9 1169 15 3865 17 l3217 1 0 1775 0 1775 -3600 0 -3600 0 0 -6400z
m6786 3682 c159 -63 211 -265 105 -407 -25 -34 -27 -41 -14 -50 24 -18 0 -52
-48 -67 -33 -9 -47 -9 -72 2 -36 16 -116 15 -165 -1 -47 -15 -97 -4 -117 27
-13 20 -14 28 -4 40 10 12 8 19 -9 37 -37 39 -62 108 -62 171 0 78 16 128 58
176 79 93 205 120 328 72z m-643 2 c52 -18 116 -76 142 -130 60 -126 7 -282
-117 -344 -139 -69 -312 -20 -376 106 -42 84 -38 184 12 267 25 41 43 58 94
84 54 28 75 33 131 33 37 0 88 -7 114 -16z m-5806 -224 c52 -224 51 -200 11
-200 -31 0 -36 4 -41 30 -6 27 -11 30 -42 30 -19 0 -38 0 -42 1 -4 0 -11 -14
-16 -30 -7 -27 -12 -31 -41 -31 l-34 0 14 58 c7 31 26 110 41 175 l27 118 44
-3 45 -3 34 -145z m373 58 l1 -93 30 38 c23 27 39 37 60 37 16 0 29 -3 29 -6
0 -4 -16 -28 -35 -54 l-34 -47 28 -45 c56 -89 56 -88 17 -88 -30 0 -38 5 -57
40 -26 45 -39 43 -39 -6 0 -31 -2 -34 -30 -34 l-30 0 0 175 0 175 30 0 30 0 0
-92z m1740 -83 l0 -176 -42 1 c-24 1 -54 -1 -68 -5 -43 -11 -77 25 -85 88 -7
58 7 128 30 147 17 14 51 17 83 6 21 -7 22 -5 22 53 l0 61 30 0 30 0 0 -175z
m452 83 l3 -92 25 37 c20 30 31 37 58 37 30 0 42 -12 24 -24 -5 -3 -21 -23
-36 -44 l-27 -40 40 -66 41 -66 -35 0 c-30 0 -39 6 -62 43 l-28 42 -3 -42 c-3
-42 -4 -43 -38 -43 l-34 0 0 168 c0 93 3 172 7 175 3 4 19 7 34 7 l28 0 3 -92z
m728 27 l0 -66 30 16 c33 17 60 13 85 -11 11 -12 15 -40 15 -120 l0 -104 -30
0 -29 0 -3 92 c-3 83 -5 93 -22 96 -33 7 -46 -25 -46 -110 l0 -78 -30 0 -30 0
0 175 0 175 30 0 30 0 0 -65z m530 4 c0 -58 1 -60 23 -53 76 26 107 -8 107
-118 0 -71 -2 -81 -26 -105 -20 -20 -31 -24 -52 -18 -15 4 -46 6 -69 5 l-43
-1 0 176 0 175 30 0 30 0 0 -61z m-1480 -9 c0 -38 2 -40 30 -40 25 0 30 -4 30
-25 0 -21 -5 -25 -30 -25 l-31 0 3 -67 c3 -66 4 -68 31 -71 21 -3 27 -8 23
-19 -3 -8 -6 -19 -6 -24 0 -16 -73 -10 -92 8 -14 13 -18 31 -18 90 0 66 -2 75
-20 80 -13 3 -20 14 -20 29 0 17 6 24 20 24 17 0 20 7 20 40 0 38 2 40 30 40
28 0 30 -2 30 -40z m-2096 -61 c24 -23 34 -121 17 -172 -15 -44 -59 -66 -97
-48 -14 6 -27 11 -29 11 -3 0 -5 -30 -5 -66 l0 -65 -27 3 -28 3 -3 179 -2 179
37 -5 c21 -3 47 -2 58 3 26 10 55 2 79 -22z m402 21 c8 0 23 -9 34 -20 17 -17
20 -33 20 -121 l0 -101 -32 3 c-18 1 -48 -1 -66 -5 -50 -12 -82 13 -82 64 0
44 20 64 83 81 28 7 37 15 35 27 -5 26 -48 28 -55 3 -6 -25 -51 -29 -60 -5
-13 34 56 90 95 78 8 -2 20 -4 28 -4z m290 0 c39 -15 53 -39 54 -87 l0 -43
-61 0 c-60 0 -60 0 -57 -27 3 -32 44 -46 54 -19 4 10 18 16 35 16 35 0 39 -25
10 -61 -27 -34 -99 -34 -135 0 -23 22 -26 32 -26 96 0 79 20 120 63 128 12 2
25 5 29 6 4 0 19 -4 34 -9z m201 -1 c32 -12 43 -26 43 -56 0 -31 -45 -33 -53
-3 -7 26 -47 27 -47 1 0 -12 12 -23 33 -31 74 -30 97 -83 58 -131 -40 -50
-151 -22 -151 38 0 31 42 32 62 1 9 -14 20 -19 31 -15 31 12 18 37 -28 57 -75
32 -87 107 -22 135 39 17 39 17 74 4z m197 -3 c31 -13 53 -55 38 -71 -14 -14
-50 -3 -55 16 -4 13 -12 20 -24 17 -29 -5 -21 -32 15 -50 73 -36 92 -81 53
-129 -15 -19 -29 -24 -66 -24 -37 0 -51 5 -66 24 -29 36 -25 61 10 61 21 0 30
-6 34 -21 7 -25 40 -22 45 3 2 12 -11 24 -43 39 -74 35 -85 107 -21 135 39 17
40 17 80 0z m205 3 c17 -6 36 -19 41 -29 6 -10 10 -62 10 -115 l0 -97 -32 3
c-18 1 -48 -1 -66 -5 -50 -12 -82 13 -82 64 0 44 20 64 83 81 28 7 37 15 35
27 -5 25 -45 27 -58 3 -11 -22 -44 -28 -55 -10 -13 21 5 57 37 72 40 20 46 20
87 6z m319 -22 c16 -15 22 -32 22 -64 l0 -43 -61 0 c-60 0 -60 0 -57 -27 3
-32 44 -46 54 -19 9 23 64 21 64 -2 0 -69 -107 -94 -163 -37 -23 23 -24 151
-1 183 32 46 97 50 142 9z m1000 -3 c18 -21 22 -36 22 -98 0 -58 -4 -76 -20
-94 -43 -45 -130 -36 -157 18 -16 32 -17 121 -1 156 26 56 112 66 156 18z
m240 8 c8 -10 12 -52 12 -119 l0 -103 -30 0 -30 0 0 90 c0 99 -12 119 -50 85
-17 -15 -20 -31 -20 -97 l0 -78 -30 0 -30 0 0 120 0 120 29 0 c16 0 31 -5 33
-11 2 -6 14 -5 33 5 33 17 63 13 83 -12z m530 -8 c15 -17 22 -38 22 -65 l0
-39 -61 0 c-60 0 -60 0 -57 -27 3 -32 44 -46 54 -19 4 10 18 16 35 16 35 0 40
-29 9 -60 -27 -27 -63 -34 -105 -20 -46 15 -55 34 -55 123 0 64 3 76 23 94 12
11 29 23 37 26 28 11 75 -3 98 -29z m539 12 c7 -6 13 -53 15 -116 l3 -105 -32
-3 -33 -3 0 91 c0 72 -3 92 -15 96 -33 13 -45 -15 -45 -102 l0 -84 -35 0 -35
0 0 120 0 120 35 0 c19 0 35 -4 35 -9 0 -6 12 -3 28 4 28 15 58 12 79 -9z
m221 -12 c19 -22 22 -36 22 -120 l0 -95 -42 1 c-24 1 -54 -1 -68 -5 -35 -9
-80 27 -80 64 0 39 19 60 70 75 33 10 46 19 48 35 4 28 -31 29 -51 0 -22 -30
-63 -23 -59 11 10 70 109 91 160 34z m391 25 c36 -13 61 -53 61 -99 l0 -30
-59 0 c-65 0 -73 -5 -64 -38 6 -26 53 -32 53 -7 0 11 11 15 36 15 32 0 35 -2
29 -22 -13 -43 -42 -63 -90 -63 -64 0 -87 27 -93 105 -5 75 11 118 52 136 38
16 36 16 75 3z m204 -3 c15 -8 27 -11 27 -5 0 5 14 9 30 9 l30 0 0 -149 c0
-134 -2 -151 -20 -174 -41 -52 -147 -44 -170 13 -7 16 -9 34 -5 39 10 18 44
12 57 -9 26 -41 78 -15 78 40 0 17 -3 19 -19 10 -36 -19 -78 -12 -100 16 -16
21 -21 41 -21 90 0 72 13 107 44 122 29 14 37 14 69 -2z m285 -22 c19 -22 22
-36 22 -120 l0 -95 -42 1 c-24 1 -54 -1 -68 -5 -34 -9 -80 27 -80 61 0 42 17
62 70 79 37 12 50 22 50 36 0 26 -36 25 -50 -1 -11 -20 -54 -28 -64 -12 -10
16 29 76 54 84 40 11 83 0 108 -28z m-3048 -94 l0 -120 -35 0 -35 0 0 113 c0
63 3 117 7 120 3 4 19 7 35 7 l28 0 0 -120z m2280 63 c19 -91 25 -93 45 -14
17 70 18 71 50 71 l33 0 -24 -82 c-79 -281 -76 -273 -113 -276 -28 -3 -33 -1
-27 14 29 76 29 101 -4 209 -17 59 -34 113 -37 121 -4 10 4 14 29 14 34 0 35
-1 48 -57z m-3571 -3723 c-1 -95 -2 -100 -23 -101 -20 -1 -20 -2 -1 -6 31 -8
42 -22 25 -33 -10 -7 -11 -10 -2 -10 6 0 12 -4 12 -10 0 -6 -39 -10 -97 -10
-85 1 -96 3 -80 14 16 13 16 14 1 20 -29 11 -2 25 56 29 l55 3 -59 2 c-52 2
-58 4 -53 21 3 12 -1 22 -9 25 -10 4 -14 24 -14 70 0 80 7 85 113 86 l77 0 -1
-100z m-1224 -908 c-3 -7 -9 -10 -15 -7 -16 10 -13 760 3 785 10 17 12 -53 15
-372 1 -216 0 -399 -3 -406z m1235 348 l0 -380 -94 0 c-81 0 -94 2 -98 18 -3
9 -6 176 -7 371 -2 286 0 355 11 362 7 5 52 9 101 9 l87 0 0 -380z m-1037 311
c8 -40 9 -591 1 -640 -9 -55 -36 -55 -87 -1 -21 23 -42 38 -46 35 -5 -2 -11 9
-15 26 -11 55 -7 421 6 517 l12 92 62 0 c60 0 62 -1 67 -29z m1594 -1073 c1
-13 -1 -53 -4 -90 l-5 -68 -42 0 c-22 0 -78 3 -124 7 l-83 6 3 71 3 71 55 6
55 5 -50 5 c-30 3 -3 6 70 7 119 2 121 2 122 -20z m213 -148 l0 -170 -54 0
c-29 0 -74 3 -100 6 l-46 7 0 143 c0 187 -2 184 112 184 l88 0 0 -170z m-273
-156 l52 -7 -5 -151 c-8 -218 6 -197 -122 -191 -59 2 -117 5 -129 5 -21 0 -23
4 -23 63 0 35 3 112 6 170 6 85 10 107 23 110 26 7 141 7 198 1z m261 -214 c2
-19 1 -59 -3 -87 l-6 -53 -91 4 c-113 5 -117 9 -102 119 8 54 11 56 119 54
l80 -2 3 -35z m4422 -658 l85 -7 8 -65 c4 -36 10 -378 12 -760 3 -382 7 -702
9 -712 6 -25 -20 -28 -225 -28 -140 0 -188 3 -192 13 -6 16 -1 449 8 567 3 52
11 107 17 122 6 15 7 42 4 60 -19 90 -18 115 3 135 12 11 41 26 64 33 60 19
63 22 36 33 -13 6 -26 11 -29 12 -51 14 -72 37 -84 93 -6 23 -3 36 8 48 18 17
21 81 7 150 -6 30 -3 53 9 83 15 39 15 48 1 99 -17 67 -11 103 21 118 26 13
114 15 238 6z m-5095 -67 c0 -42 -11 -63 -37 -68 -20 -4 -19 -4 5 -6 22 -1 27
-6 27 -26 0 -23 -3 -24 -52 -25 -29 0 -331 -3 -671 -6 l-617 -5 0 81 0 80 228
2 c125 2 427 3 672 3 l445 0 0 -30z m832 -127 c13 -22 16 -498 2 -514 -15 -18
-128 -19 -189 0 -42 12 -46 16 -58 62 -8 28 -16 129 -19 232 -6 181 -5 183 17
207 22 24 30 25 131 25 75 0 110 -4 116 -12z m-815 -275 c-2 -49 -9 -89 -13
-91 -16 -7 -10 -79 7 -86 11 -4 14 -13 10 -30 -3 -13 -1 -48 5 -77 7 -33 12
-181 13 -381 1 -285 -1 -328 -14 -328 -12 -1 -11 -4 3 -14 15 -12 16 -18 8
-34 -6 -12 -8 -27 -5 -35 3 -9 -2 -17 -13 -20 -10 -3 -321 -6 -690 -6 l-673 1
0 38 0 39 53 6 c53 7 387 0 567 -11 52 -3 151 -1 220 6 69 7 160 13 203 14
l78 1 -1 346 0 346 25 11 c14 7 48 12 75 12 33 0 50 4 50 13 0 9 3 8 9 -2 11
-17 19 67 10 101 -6 20 -7 18 -8 -9 l-1 -33 -75 0 c-80 0 -79 -1 -78 55 0 11
1 69 2 128 l1 108 82 -2 c55 -1 83 2 86 9 2 7 19 12 37 12 l33 0 -6 -87z
m-448 -360 c-3 -37 -6 -76 -7 -85 -2 -23 -31 -23 -57 -1 -16 14 -20 30 -20 83
0 36 4 70 8 77 10 16 65 21 74 6 5 -6 5 -42 2 -80z m585 -105 c10 -28 31 -31
31 -4 0 8 6 19 14 25 19 16 55 -2 55 -27 5 -204 -2 -268 -31 -275 -12 -4 -29
2 -41 14 -12 11 -27 17 -34 15 -22 -9 -35 35 -44 147 -8 113 -1 151 25 141 8
-3 19 -19 25 -36z m3681 -17 c0 -14 1 -71 3 -126 l2 -100 -58 3 c-55 2 -87 17
-87 40 0 5 20 19 44 31 53 24 54 46 6 96 -16 17 -30 36 -30 43 0 15 57 40 93
39 22 0 27 -4 27 -26z m-2985 -211 c3 -4 6 -97 7 -206 l1 -199 -146 -3 c-140
-2 -146 -2 -157 19 -8 15 -10 69 -4 185 9 216 7 212 147 216 108 3 144 0 152
-12z m2995 -300 c0 -38 3 -75 6 -84 5 -14 -4 -16 -67 -16 l-74 0 2 57 c2 91
14 111 65 115 67 5 68 3 68 -72z"/>
<path d="M6613 9773 c-20 -4 -23 -11 -23 -51 l0 -47 85 0 85 0 0 46 c0 40 -3
48 -22 53 -25 6 -90 6 -125 -1z"/>
<path d="M3271 6630 c-8 -4 -34 -77 -58 -161 -56 -192 -58 -199 -44 -199 6 0
30 61 53 135 24 74 46 135 50 135 5 0 8 -17 9 -37 1 -47 21 -104 41 -116 29
-19 62 1 103 64 22 33 42 62 45 64 3 2 4 -55 2 -126 -4 -108 -2 -129 10 -129
12 0 16 26 22 128 4 70 8 138 9 152 2 20 -3 25 -23 25 -19 0 -37 -17 -82 -80
-31 -44 -61 -81 -66 -83 -16 -5 -33 58 -39 146 -6 86 -10 96 -32 82z"/>
<path d="M4128 6473 c-16 -4 -18 -17 -18 -94 l0 -89 48 0 c35 0 54 5 65 18 21
23 22 56 2 72 -8 7 -13 22 -10 34 9 38 -39 71 -87 59z"/>
<path d="M4282 6472 c-8 -6 -13 -37 -14 -93 -2 -72 0 -84 15 -87 13 -3 17 4
17 32 0 34 2 36 35 36 33 0 35 -2 35 -35 0 -28 4 -35 20 -35 19 0 20 7 20 90
0 83 -1 90 -20 90 -16 0 -20 -7 -20 -35 0 -33 -2 -35 -34 -35 -33 0 -35 2 -38
40 -2 29 -6 37 -16 32z"/>
<path d="M4783 6473 c-9 -3 -13 -31 -13 -94 0 -72 3 -89 15 -89 10 0 15 11 15
35 0 33 2 35 35 35 33 0 35 -2 35 -35 0 -28 4 -35 20 -35 19 0 20 7 20 89 0
67 -3 90 -14 94 -20 8 -26 -2 -26 -40 0 -31 -2 -33 -34 -33 -33 0 -35 2 -38
38 -2 26 -7 37 -15 35z"/>
<path d="M4470 6384 c-22 -47 -40 -88 -40 -90 0 -2 9 -4 20 -4 11 0 20 5 20
10 0 6 20 10 45 10 25 0 45 -4 45 -10 0 -5 9 -10 20 -10 11 0 20 2 20 4 0 11
-80 176 -85 176 -3 0 -24 -39 -45 -86z"/>
<path d="M4969 6385 c-21 -47 -39 -88 -39 -90 0 -3 9 -5 20 -5 11 0 20 5 20
10 0 6 20 10 45 10 25 0 45 -4 45 -10 0 -5 9 -10 20 -10 11 0 20 2 20 4 0 11
-80 176 -85 176 -4 0 -24 -38 -46 -85z"/>
<path d="M3610 6403 c-41 -16 -70 -46 -70 -72 0 -46 18 -53 127 -49 l98 3 3
35 c6 56 19 64 55 34 26 -22 37 -25 74 -19 38 5 43 4 43 -13 0 -11 7 -25 15
-32 13 -11 15 -5 15 44 0 60 -6 67 -33 36 -25 -30 -82 -27 -103 4 -12 20 -23
25 -55 23 -33 -1 -39 -5 -39 -23 0 -55 -15 -71 -76 -77 -31 -3 -66 -1 -76 4
-25 13 -24 49 2 49 10 0 31 5 45 12 43 19 20 58 -25 41z"/>
<path d="M3437 6097 c-36 -78 -49 -87 -126 -87 -26 0 -26 -1 -24 -67 2 -78 21
-104 57 -80 16 11 77 107 88 140 2 4 30 11 63 17 l60 9 -52 -3 c-29 -2 -53 0
-53 4 0 4 9 33 20 65 23 66 24 75 10 75 -5 0 -25 -33 -43 -73z"/>
</g>
</svg>
