<?xml version="1.0" standalone="no"?>
<!DOCTYPE svg PUBLIC "-//W3C//DTD SVG 20010904//EN"
 "http://www.w3.org/TR/2001/REC-SVG-20010904/DTD/svg10.dtd">
<svg version="1.0" xmlns="http://www.w3.org/2000/svg"
 width="720.000000pt" height="1280.000000pt" viewBox="0 0 720.000000 1280.000000"
 preserveAspectRatio="xMidYMid meet">
<metadata>
Created by potrace 1.16, written by Peter Selinger 2001-2019
</metadata>
<g transform="translate(0.000000,1280.000000) scale(0.100000,-0.100000)"
fill="#000000" stroke="none">
<path d="M0 6400 l0 -6400 3600 0 3600 0 0 1244 c0 1200 -1 1245 -18 1250 -47
15 -64 55 -108 241 -18 74 -21 80 -46 83 -35 4 -53 25 -39 49 5 10 12 17 15
16 26 -12 37 -1 30 32 -5 28 -3 36 11 41 25 10 48 -8 59 -45 6 -22 17 -33 35
-38 56 -13 66 -39 21 -54 -17 -6 -30 -15 -30 -20 0 -20 43 -187 55 -214 12
-25 14 94 14 785 l1 815 -22 10 c-16 7 -34 7 -61 -2 -95 -33 -209 54 -191 145
8 40 50 62 117 62 63 0 72 8 56 43 -23 51 -88 61 -131 20 -23 -22 -32 -25 -46
-17 -28 18 -26 49 4 73 38 30 129 29 174 -1 47 -32 69 -67 85 -129 11 -46 13
166 14 1357 l1 1411 -39 12 c-43 12 -101 70 -101 101 0 51 47 85 105 74 35 -6
35 -6 35 29 0 38 -12 47 -60 47 -16 0 -30 -7 -34 -16 -8 -21 -60 -15 -64 8 -2
9 7 26 20 38 20 19 30 21 81 15 l57 -6 0 2671 0 2670 -3600 0 -3600 0 0 -6400z
m6796 3680 c151 -69 198 -267 95 -405 -25 -34 -27 -41 -14 -50 14 -10 14 -14
-2 -38 -22 -35 -90 -46 -136 -23 -33 16 -80 14 -147 -6 -47 -14 -99 -2 -118
28 -13 20 -14 27 -4 39 11 13 9 19 -8 38 -85 90 -82 268 6 360 77 81 220 106
328 57z m-653 4 c29 -10 64 -34 92 -62 124 -125 89 -333 -68 -412 -133 -66
-310 -20 -370 96 -47 91 -44 191 7 276 25 43 43 59 94 85 54 28 75 33 131 33
37 0 88 -7 114 -16z m-5802 -244 c21 -91 39 -168 39 -172 0 -5 -15 -8 -33 -8
-28 0 -34 4 -42 32 -9 29 -14 32 -50 31 -36 0 -40 -3 -47 -31 -8 -28 -13 -32
-42 -32 l-34 0 14 58 c7 31 26 110 41 175 l27 118 44 -3 45 -3 38 -165z m369
78 l1 -93 30 38 c23 27 39 37 60 37 16 0 29 -3 29 -6 0 -4 -16 -28 -35 -53
-30 -41 -33 -50 -21 -67 7 -10 25 -40 40 -66 l27 -48 -35 0 c-30 0 -38 5 -57
40 -26 45 -39 43 -39 -6 0 -31 -2 -34 -30 -34 l-30 0 0 175 0 175 30 0 30 0 0
-92z m1740 -83 l0 -176 -42 1 c-24 1 -55 -1 -69 -5 -19 -5 -33 -1 -55 18 -28
24 -29 29 -28 107 1 68 4 85 21 102 22 21 54 27 91 14 21 -7 22 -5 22 53 l0
61 30 0 30 0 0 -175z m452 83 l3 -92 25 37 c20 30 31 37 58 37 30 0 42 -12 24
-24 -5 -3 -21 -23 -36 -44 l-27 -40 40 -66 41 -66 -34 0 c-28 0 -38 7 -62 43
l-29 42 -3 -42 c-3 -42 -4 -43 -38 -43 l-34 0 0 175 0 175 35 0 34 0 3 -92z
m728 27 l0 -66 30 16 c33 17 60 13 85 -11 11 -12 15 -40 15 -120 l0 -104 -30
0 -30 0 0 90 c0 75 -3 92 -16 97 -37 14 -49 -10 -52 -101 l-3 -86 -29 0 -30 0
0 175 0 175 30 0 30 0 0 -65z m530 4 c0 -58 1 -60 23 -53 76 26 107 -8 107
-118 0 -71 -2 -81 -26 -105 -20 -20 -31 -24 -52 -18 -15 4 -46 6 -69 5 l-43
-1 0 176 0 175 30 0 30 0 0 -61z m-1480 -9 c0 -38 2 -40 30 -40 25 0 30 -4 30
-25 0 -21 -5 -25 -30 -25 l-31 0 3 -67 c3 -66 4 -68 31 -71 21 -3 27 -8 23
-19 -3 -8 -6 -19 -6 -24 0 -16 -73 -10 -92 8 -14 13 -18 31 -18 90 0 66 -2 75
-20 80 -13 3 -20 14 -20 29 0 17 6 24 20 24 16 0 20 7 20 33 0 40 6 47 37 47
20 0 23 -5 23 -40z m-2096 -61 c24 -23 34 -121 17 -172 -15 -44 -59 -66 -97
-48 -14 6 -27 11 -29 11 -3 0 -5 -30 -5 -66 l0 -65 -27 3 -28 3 -3 179 -2 179
37 -5 c21 -3 47 -2 58 3 26 10 55 2 79 -22z m405 20 c44 -16 51 -35 51 -143
l0 -96 -47 -1 c-27 0 -60 -1 -75 -1 -40 -1 -58 19 -58 63 0 43 20 63 83 80 28
7 37 15 35 27 -5 26 -48 28 -55 3 -4 -14 -13 -21 -29 -21 -65 0 -15 96 52 99
6 1 25 -4 43 -10z m290 0 c38 -14 51 -35 51 -88 l0 -41 -61 0 c-60 0 -60 0
-57 -27 3 -32 44 -46 54 -19 4 10 18 16 35 16 35 0 39 -25 10 -61 -15 -19 -29
-24 -66 -24 -39 0 -51 5 -71 28 -20 24 -24 39 -24 96 0 75 21 116 63 124 12 2
25 5 28 6 3 0 20 -4 38 -10z m198 0 c32 -12 43 -26 43 -56 0 -31 -45 -33 -53
-3 -7 26 -47 27 -47 1 0 -11 12 -23 30 -31 78 -32 101 -82 61 -131 -15 -19
-29 -24 -66 -24 -37 0 -51 5 -66 24 -29 36 -25 61 11 61 24 0 30 -4 30 -21 0
-15 5 -20 22 -17 40 5 31 32 -19 58 -91 48 -80 135 19 149 4 1 19 -4 35 -10z
m191 0 c29 -10 59 -59 45 -73 -15 -15 -51 -5 -56 15 -4 13 -12 20 -24 17 -29
-5 -21 -32 15 -50 73 -36 92 -81 53 -129 -15 -19 -29 -24 -66 -24 -37 0 -51 5
-66 24 -29 36 -25 61 10 61 21 0 30 -6 34 -21 7 -25 40 -22 45 3 2 12 -11 24
-43 39 -74 35 -86 106 -22 134 39 17 37 17 75 4z m211 0 c17 -6 36 -19 41 -29
6 -10 10 -62 10 -115 l0 -97 -32 3 c-18 1 -48 -1 -66 -5 -50 -12 -82 13 -82
64 0 44 20 64 83 81 28 7 37 15 35 27 -5 25 -45 27 -58 3 -13 -24 -48 -28 -56
-6 -8 20 21 64 49 75 30 12 39 12 76 -1z m318 -21 c17 -16 23 -33 23 -65 l0
-43 -61 0 c-60 0 -60 0 -57 -27 3 -32 44 -46 54 -19 8 20 64 22 64 2 0 -69
-102 -98 -158 -45 -19 17 -22 31 -22 98 0 68 3 80 23 98 12 11 29 23 37 26 25
10 73 -2 97 -25z m1001 -4 c18 -21 22 -36 22 -98 0 -65 -3 -75 -26 -97 -35
-33 -104 -34 -136 -2 -27 28 -37 127 -17 174 24 60 111 73 157 23z m240 8 c8
-10 12 -52 12 -119 l0 -103 -30 0 -30 0 0 90 c0 75 -3 92 -17 97 -32 12 -53
-32 -53 -113 l0 -74 -30 0 -30 0 0 120 0 120 29 0 c16 0 31 -5 33 -11 2 -6 14
-5 33 5 33 17 63 13 83 -12z m529 -4 c17 -16 23 -33 23 -65 l0 -43 -61 0 c-60
0 -60 0 -57 -27 3 -32 44 -46 54 -19 4 10 18 16 35 16 22 0 29 -5 29 -20 0
-42 -64 -79 -115 -66 -52 13 -65 39 -65 124 0 69 3 81 23 99 12 11 29 23 37
26 25 10 73 -2 97 -25z m540 8 c6 -6 13 -57 16 -118 l5 -108 -34 0 -34 0 0 90
c0 72 -3 92 -15 96 -33 13 -45 -15 -45 -102 l0 -84 -35 0 -35 0 0 120 0 120
35 0 c19 0 35 -4 35 -9 0 -6 12 -3 28 4 28 15 58 12 79 -9z m218 -7 c17 -16
21 -35 23 -120 l4 -100 -44 1 c-23 1 -54 -1 -68 -5 -35 -9 -80 27 -80 64 0 39
19 60 70 75 33 10 46 19 48 35 4 28 -33 29 -50 1 -12 -19 -48 -27 -60 -14 -15
14 11 60 43 77 40 20 84 15 114 -14z m400 16 c37 -15 55 -46 55 -96 0 -29 0
-29 -59 -29 -65 0 -73 -5 -64 -38 6 -26 53 -32 53 -7 0 11 11 15 36 15 32 0
35 -2 29 -22 -4 -13 -18 -34 -33 -47 -21 -19 -33 -22 -65 -18 -59 8 -80 35
-85 107 -5 75 11 118 52 136 39 17 40 17 81 -1z m198 1 c15 -8 27 -11 27 -5 0
5 14 9 31 9 l30 0 -3 -154 c-3 -134 -5 -157 -22 -175 -42 -46 -144 -35 -166
19 -7 16 -9 34 -5 39 10 18 44 12 57 -9 27 -42 78 -15 78 41 0 18 -3 20 -12
11 -7 -7 -29 -12 -49 -12 -56 0 -79 34 -79 116 0 72 13 107 44 122 29 14 37
14 69 -2z m285 -22 c19 -22 22 -36 22 -120 l0 -95 -42 1 c-24 1 -55 -1 -70 -5
-21 -6 -32 -2 -52 18 -48 48 -29 99 44 121 33 10 46 19 48 35 4 28 -33 29 -50
1 -12 -19 -48 -27 -60 -14 -15 14 11 60 43 77 43 22 86 16 117 -19z m-3048
-94 l0 -120 -35 0 -35 0 0 113 c0 63 3 117 7 120 3 4 19 7 35 7 l28 0 0 -120z
m2271 103 c0 -10 8 -43 18 -73 l17 -55 19 73 c18 70 20 72 51 72 l32 0 -24
-82 c-79 -281 -76 -273 -113 -276 -28 -3 -33 -1 -27 14 29 76 29 101 -4 209
-17 59 -34 113 -37 121 -4 10 4 14 31 14 27 0 36 -4 37 -17z m-2420 -653 c1
-11 2 -25 3 -31 2 -19 69 -50 101 -47 28 3 30 5 30 48 0 45 0 45 35 45 35 0
35 0 38 -51 4 -67 -15 -84 -90 -85 -93 -1 -198 60 -198 116 0 23 4 25 40 25
33 0 40 -4 41 -20z m924 -103 l10 -117 -32 0 c-38 0 -39 3 -48 138 l-7 103 34
-3 33 -3 10 -118z m-3178 1 c4 -7 13 -40 18 -73 l10 -60 73 -1 c61 -1 79 -6
113 -29 48 -31 65 -68 74 -155 3 -36 8 -84 11 -107 l5 -43 -35 0 c-19 0 -37 3
-39 8 -3 4 -10 56 -17 117 -13 122 -21 139 -80 156 -30 9 -43 8 -68 -5 -36
-18 -37 -27 -23 -151 10 -87 7 -97 -33 -93 -28 3 -32 7 -38 48 -13 85 -37 383
-32 391 8 13 52 11 61 -3z m601 -207 c105 -54 152 -173 99 -252 -32 -47 -84
-64 -158 -51 -114 21 -189 100 -189 198 1 60 17 91 61 116 42 23 131 18 187
-11z m422 -52 c60 -27 79 -45 106 -104 28 -59 30 -106 7 -146 -57 -96 -245
-69 -320 46 -52 79 -41 174 25 209 39 22 128 19 182 -5z m1072 -29 c3 -14 13
-65 20 -114 7 -49 18 -91 23 -93 6 -2 33 17 62 42 36 32 60 45 82 45 50 0 48
-20 -7 -67 -29 -25 -52 -49 -52 -54 0 -5 36 -48 80 -95 44 -48 80 -91 80 -96
0 -6 -13 -8 -32 -4 -24 4 -51 25 -99 77 -46 51 -71 70 -85 67 -17 -3 -19 -11
-16 -61 3 -54 2 -57 -20 -57 -13 0 -29 4 -35 8 -10 6 -73 374 -73 424 0 5 15
8 32 6 25 -2 34 -9 40 -28z m-828 3 c4 -5 42 -8 85 -9 61 -1 85 -5 118 -25 37
-21 45 -22 76 -11 43 15 123 6 159 -20 45 -31 65 -76 77 -174 16 -127 16 -124
-19 -124 -38 0 -45 16 -55 125 -4 43 -11 89 -16 102 -17 45 -111 70 -143 37
-19 -18 -19 -21 -2 -139 8 -49 10 -94 6 -99 -5 -4 -21 -4 -36 1 -27 9 -29 14
-45 121 -9 62 -22 118 -28 126 -31 38 -131 45 -145 11 -3 -8 1 -62 8 -120 14
-117 10 -129 -38 -107 -21 9 -24 22 -40 154 -9 78 -16 146 -16 151 0 4 11 7
23 7 13 0 27 -3 31 -7z m2083 -141 c6 -4 14 -25 18 -47 14 -91 9 -85 78 -85
118 0 158 -42 188 -200 24 -126 25 -122 -13 -118 l-32 3 -23 115 c-12 63 -23
116 -23 117 0 1 -16 11 -35 23 -42 26 -92 20 -104 -13 -4 -12 -2 -53 5 -91 7
-39 16 -83 18 -98 5 -25 3 -28 -24 -28 -16 0 -32 5 -36 11 -6 10 -20 89 -59
318 -8 47 -12 88 -9 93 6 10 35 10 51 0z m-713 -45 c42 -32 73 -82 78 -122 3
-30 3 -30 -47 -30 -27 1 -80 4 -117 9 -61 7 -68 6 -68 -9 0 -27 53 -72 99 -85
34 -9 48 -8 73 4 22 11 35 13 49 5 45 -24 -3 -59 -81 -59 -105 0 -194 65 -220
159 -15 56 -4 99 34 134 29 28 34 29 98 25 53 -4 75 -11 102 -31z m499 -48
c42 -11 121 -81 115 -101 -9 -26 -36 -18 -78 21 -48 45 -83 55 -122 35 -32
-17 -42 -43 -33 -87 12 -51 34 -86 68 -107 45 -28 85 -25 118 6 48 46 93 4 47
-43 -84 -84 -267 2 -298 139 -11 48 -10 59 5 89 10 19 25 39 34 46 20 15 93
16 144 2z m1512 -91 c18 -77 75 -369 75 -383 0 -14 -6 -16 -27 -11 -16 4 -58
8 -95 9 -56 2 -73 7 -110 32 -57 41 -89 100 -91 170 -1 45 3 59 23 80 22 24
31 26 80 22 30 -3 64 -6 75 -8 13 -3 19 1 17 9 -1 8 -5 34 -9 58 -6 44 -6 44
25 44 25 0 33 -5 37 -22z m-795 6 c18 -4 49 -23 70 -43 34 -33 39 -44 55 -134
10 -53 21 -100 26 -103 5 -3 9 -12 9 -20 0 -16 -55 -20 -64 -5 -3 5 -33 7 -65
4 -99 -9 -181 45 -181 120 0 46 33 62 121 60 86 -1 95 6 58 46 -40 43 -98 49
-125 14 -15 -22 -58 -12 -62 14 -6 43 66 65 158 47z m340 -45 c54 -12 107 -51
121 -87 6 -15 15 -54 20 -87 5 -33 16 -76 24 -97 12 -32 12 -37 -1 -42 -8 -3
-27 0 -42 7 -16 8 -41 11 -62 7 -91 -16 -190 43 -190 113 0 52 27 67 117 67
83 0 93 12 47 55 -33 31 -75 32 -112 5 -41 -30 -86 -6 -58 31 28 38 62 45 136
28z m1141 -56 c148 -141 193 -369 94 -476 -45 -47 -84 -27 -46 24 73 98 32
307 -84 436 -44 50 -55 73 -34 73 6 0 37 -26 70 -57z m-384 -45 c40 -12 80
-57 92 -106 5 -20 15 -64 23 -97 8 -33 18 -68 23 -77 6 -15 2 -18 -22 -18 -16
0 -33 3 -37 7 -3 4 -40 7 -80 7 -59 1 -80 5 -103 22 -32 24 -63 81 -55 104 14
42 33 50 114 50 78 0 79 0 67 23 -29 57 -79 71 -136 36 -31 -20 -36 -20 -50
-6 -21 21 -10 45 29 61 33 14 76 12 135 -6z m259 -28 c44 1 70 -19 60 -46 -4
-10 -13 -13 -26 -9 -10 3 -28 1 -39 -5 -22 -11 -22 -30 5 -124 20 -70 18 -106
-3 -106 -34 0 -43 16 -63 110 -11 52 -24 113 -30 135 -14 57 -13 58 23 51 17
-4 50 -7 73 -6z m-5091 -119 c70 -32 78 -48 95 -181 5 -47 13 -100 16 -117 6
-31 5 -33 -23 -33 -16 0 -38 6 -48 14 -14 10 -26 11 -43 5 -105 -40 -256 52
-227 138 17 47 66 65 158 58 73 -5 77 -4 77 15 0 27 -43 70 -72 71 -38 2 -51
-1 -95 -24 -41 -21 -43 -21 -60 -4 -21 21 -10 45 28 64 37 19 147 16 194 -6z
m207 -23 c9 -7 31 -51 49 -98 18 -47 38 -91 45 -99 14 -16 34 -7 34 17 0 9 11
49 24 87 19 59 26 70 47 73 13 1 29 -1 34 -5 6 -5 31 -52 57 -105 52 -107 73
-122 84 -60 22 127 30 147 56 150 50 6 51 -14 10 -169 l-37 -144 -35 0 c-38 0
-32 -8 -102 138 -23 48 -45 87 -48 87 -7 0 -41 -100 -56 -162 -8 -36 -28 -52
-57 -44 -26 6 -25 4 -100 176 -73 168 -74 170 -45 170 13 0 31 -6 40 -12z
m1171 3 c22 -9 25 -18 37 -118 7 -59 17 -114 23 -120 7 -10 22 -3 61 30 28 23
53 45 54 50 6 12 70 8 78 -5 5 -7 -15 -32 -52 -64 l-59 -52 55 -58 c145 -153
145 -153 76 -140 -23 5 -49 25 -95 77 -47 52 -69 69 -85 67 -19 -3 -21 -8 -18
-60 l3 -58 -36 0 c-19 0 -35 3 -36 8 0 4 -13 104 -28 222 -15 118 -26 218 -24
223 5 9 17 9 46 -2z m-365 -107 c49 -34 49 -36 67 -162 8 -53 17 -109 21 -124
6 -25 3 -28 -18 -28 -13 0 -33 7 -44 15 -17 11 -29 12 -60 3 -80 -22 -193 30
-210 96 -19 77 31 112 148 102 74 -6 78 -5 78 14 0 12 -11 32 -25 45 -31 31
-85 33 -131 4 -63 -38 -103 6 -46 51 24 19 36 22 103 18 64 -4 83 -9 117 -34z
m912 -84 c80 -22 150 -112 150 -192 0 -86 -47 -131 -133 -130 -134 1 -236 104
-224 226 6 71 46 106 120 106 28 0 68 -4 87 -10z m1071 -17 c6 -16 15 -68 22
-116 7 -59 15 -91 25 -94 8 -3 33 14 61 41 36 35 54 46 78 46 52 0 50 -20 -7
-70 -29 -25 -51 -51 -49 -58 2 -6 41 -49 87 -95 45 -46 82 -87 82 -91 0 -3
-15 -6 -32 -6 -28 0 -44 12 -105 76 -53 57 -76 75 -89 70 -14 -5 -16 -15 -10
-61 7 -59 -1 -71 -39 -61 -18 5 -25 15 -29 39 -3 17 -12 73 -20 122 -9 50 -18
106 -21 125 -3 19 -10 59 -15 89 -13 73 -14 71 20 71 24 0 33 -6 41 -27z
m-581 -39 c69 -4 80 -9 80 -34 0 -14 -7 -20 -22 -20 -39 0 -67 -11 -73 -29 -2
-9 2 -57 10 -106 20 -120 19 -125 -7 -125 -13 0 -28 4 -35 8 -14 9 -58 285
-49 308 4 11 12 14 24 9 9 -4 42 -9 72 -11z m375 -58 c63 -37 98 -93 103 -165
4 -54 2 -61 -28 -94 -30 -35 -35 -37 -94 -37 -74 0 -131 24 -170 71 -43 51
-59 96 -53 153 4 40 11 55 37 79 31 28 37 29 96 24 44 -3 77 -13 109 -31z
m1278 -11 c8 -7 18 -36 22 -62 3 -26 20 -115 36 -198 16 -82 29 -153 29 -157
0 -10 -182 -1 -212 10 -119 47 -171 252 -76 303 25 13 107 6 137 -13 27 -17
33 -8 21 33 -6 18 -10 49 -10 66 0 26 4 33 19 33 11 0 26 -7 34 -15z m156 -15
c12 -6 21 -27 26 -57 11 -75 17 -81 74 -75 67 6 131 -24 154 -73 16 -33 57
-202 57 -233 0 -9 -10 -12 -32 -10 l-32 3 -21 107 c-22 111 -38 142 -84 160
-16 6 -34 5 -53 -3 -33 -14 -35 -38 -13 -139 21 -96 20 -110 -10 -110 -33 0
-41 18 -66 151 -11 63 -27 146 -35 184 -7 39 -13 78 -13 88 -1 19 20 22 48 7z
m-731 -48 c53 -33 91 -87 94 -133 3 -39 13 -37 -139 -24 -90 7 -92 7 -86 -14
3 -11 21 -35 41 -52 31 -27 40 -30 81 -26 25 3 58 8 73 12 22 6 29 3 35 -10
11 -30 -31 -55 -91 -55 -144 0 -256 133 -216 255 18 54 61 78 128 70 29 -3 65
-13 80 -23z m1840 -84 c9 -11 92 -379 92 -407 0 -18 -49 -12 -59 7 -5 9 -19
67 -31 127 -12 61 -30 146 -41 190 -10 44 -19 83 -19 88 0 12 47 8 58 -5z
m-540 -73 c89 -59 128 -191 73 -249 -31 -32 -78 -42 -138 -27 -61 16 -99 44
-134 99 -23 37 -29 57 -29 104 0 49 4 61 28 83 24 24 33 26 92 23 51 -3 74
-10 108 -33z m375 -44 c51 -35 97 -115 97 -169 0 -65 -46 -112 -109 -112 -110
0 -221 109 -221 218 0 33 28 82 53 92 43 19 132 5 180 -29z m652 -64 c42 -24
72 -67 53 -78 -16 -10 -47 1 -58 21 -22 42 -120 51 -120 11 0 -26 15 -36 90
-62 81 -28 107 -44 126 -80 19 -38 18 -55 -6 -79 -25 -25 -104 -27 -158 -4
-46 19 -92 62 -92 86 0 27 30 22 65 -12 53 -52 135 -58 135 -11 0 25 -26 42
-104 67 -78 25 -116 61 -116 107 0 51 30 70 95 62 28 -3 68 -16 90 -28z
m-5569 -5 c6 -4 15 -38 20 -77 l9 -70 67 3 c87 5 145 -21 175 -76 20 -38 50
-252 38 -272 -7 -12 -45 -13 -61 -2 -6 4 -17 61 -24 127 -12 110 -15 122 -42
148 -26 26 -34 29 -75 24 -51 -5 -77 -29 -69 -62 3 -11 8 -64 11 -118 l7 -98
-38 3 -39 3 -22 220 c-12 121 -22 228 -22 238 -1 12 7 17 27 17 15 0 32 -4 38
-8z m5847 -13 c71 -19 95 -53 126 -169 15 -58 31 -113 36 -124 7 -17 5 -18
-26 -12 -19 4 -59 7 -91 6 -70 -1 -118 18 -152 62 -31 41 -33 67 -7 99 17 22
27 24 90 22 63 -2 71 0 71 17 0 45 -101 80 -130 45 -17 -20 -59 -19 -67 2 -9
24 40 63 80 63 18 0 49 -5 70 -11z m224 -31 c6 -7 20 -51 31 -98 39 -157 62
-258 62 -268 0 -35 -81 -57 -108 -30 -18 18 -14 38 8 38 11 0 23 7 26 15 5 12
-24 151 -65 318 -8 35 -7 37 14 37 12 0 27 -6 32 -12z m292 -36 c48 -24 68
-55 89 -142 11 -41 26 -92 35 -112 l16 -38 -28 0 c-15 0 -31 4 -37 10 -6 6
-22 6 -43 0 -53 -15 -114 5 -156 51 -37 41 -44 73 -21 104 10 14 30 20 82 23
38 2 73 8 78 12 5 5 -5 22 -22 39 -36 37 -80 41 -107 11 -24 -26 -59 -22 -63
7 -7 49 105 72 177 35z m-6589 -37 c49 -25 96 -93 102 -146 3 -34 3 -34 -42
-37 -25 -1 -87 1 -137 6 -90 8 -93 7 -93 -13 0 -22 39 -64 77 -84 30 -16 89
-14 123 4 48 25 87 -7 50 -40 -46 -42 -172 -36 -242 10 -21 14 -52 44 -68 67
-25 34 -30 51 -30 98 0 107 66 166 175 154 33 -3 71 -12 85 -19z m654 -62 c4
-5 47 -8 96 -8 141 0 171 -33 195 -220 17 -131 14 -145 -32 -129 -27 9 -28 13
-43 130 -8 67 -21 128 -28 137 -37 44 -135 46 -151 3 -5 -12 -5 -55 0 -97 4
-41 8 -91 9 -111 0 -37 -1 -38 -35 -38 -40 0 -38 -4 -55 174 -15 161 -14 166
13 166 13 0 27 -3 31 -7z m597 -66 c48 -26 93 -84 102 -134 9 -46 -6 -53 -88
-43 -93 12 -162 12 -170 0 -3 -5 11 -28 32 -50 48 -51 104 -63 158 -34 34 18
35 18 56 -2 l21 -21 -32 -23 c-28 -20 -40 -22 -106 -18 -62 4 -82 10 -117 34
-67 47 -96 98 -97 167 0 101 44 146 141 147 40 0 69 -7 100 -23z m413 -34 c4
-5 47 -8 94 -8 96 0 124 -12 158 -69 16 -28 56 -252 47 -268 -7 -13 -63 -9
-68 5 -3 6 -12 62 -20 122 -13 101 -17 112 -45 138 -17 15 -41 27 -55 27 -34
0 -71 -16 -78 -33 -3 -9 1 -61 9 -117 9 -56 13 -108 10 -116 -7 -17 -52 -19
-62 -2 -8 13 -43 253 -44 301 0 22 4 27 23 27 13 0 27 -3 31 -7z m1002 -53 c8
-25 19 -36 39 -42 50 -13 56 -48 8 -48 l-26 0 7 -70 c11 -113 26 -153 64 -169
45 -20 44 -51 -3 -51 -80 0 -106 35 -126 170 -16 113 -21 126 -58 133 -22 5
-31 12 -31 27 0 16 7 20 30 20 28 0 30 3 30 36 0 33 2 35 28 32 21 -2 29 -11
38 -38z m-467 6 c47 -8 97 -49 110 -89 7 -19 18 -74 26 -123 7 -49 17 -99 21
-111 5 -20 3 -23 -22 -23 -15 0 -35 7 -45 16 -14 13 -21 13 -40 4 -33 -18
-124 -6 -165 22 -43 30 -69 77 -60 111 10 43 50 62 136 64 41 1 78 2 83 2 28
3 -33 77 -69 84 -29 5 -84 -10 -84 -23 0 -12 -31 -21 -51 -15 -25 8 -24 37 1
60 21 19 74 34 105 29 11 -1 35 -5 54 -8z m678 -78 c5 -7 15 -51 22 -98 16
-106 27 -143 49 -163 42 -38 132 -19 132 27 0 14 -7 60 -15 103 -21 110 -20
123 9 123 13 0 28 -6 34 -12 5 -7 20 -74 31 -148 12 -74 24 -143 27 -152 4
-15 -1 -18 -28 -18 -19 0 -38 4 -43 9 -6 6 -25 6 -50 -1 -74 -20 -174 27 -190
89 -14 57 -43 238 -38 246 7 12 50 8 60 -5z m548 -52 c13 -9 28 -11 54 -5 127
30 241 -75 241 -223 0 -36 -6 -54 -27 -78 -26 -31 -29 -32 -87 -27 -34 3 -70
7 -81 9 -19 3 -20 -2 -16 -59 3 -62 2 -63 -22 -63 -14 0 -29 6 -33 12 -11 17
-82 436 -76 443 9 9 27 6 47 -9z m1409 -14 c6 -9 83 -371 88 -412 2 -19 -2
-26 -17 -28 -11 -1 -26 2 -32 6 -7 4 -31 98 -53 208 -22 109 -43 207 -46 217
-4 13 1 17 25 17 16 0 32 -4 35 -8z m-828 -52 c43 -27 58 -60 83 -183 11 -51
22 -100 26 -109 6 -15 2 -18 -22 -18 -16 0 -34 5 -40 11 -8 8 -25 8 -57 1
-110 -23 -214 55 -192 144 9 35 64 57 135 52 46 -2 56 0 59 14 2 10 -9 29 -24
43 -34 31 -85 34 -114 5 -22 -22 -50 -26 -67 -9 -15 15 2 53 31 68 34 18 139
7 182 -19z m178 -22 c8 -13 34 -60 58 -105 24 -45 48 -83 53 -85 6 -1 18 41
29 95 16 87 21 97 40 97 50 -1 50 -8 17 -166 -45 -211 -51 -231 -72 -249 -20
-19 -85 -23 -101 -7 -15 15 -2 42 21 42 48 0 69 75 33 121 -10 13 -25 38 -34
54 -14 28 -31 59 -92 165 -33 57 -32 60 4 60 20 0 34 -7 44 -22z m399 -18
c102 -16 136 -56 158 -188 6 -37 18 -82 25 -101 8 -18 14 -35 14 -37 0 -9 -57
-3 -67 7 -7 7 -22 7 -51 -2 -59 -17 -122 2 -167 52 -42 46 -45 80 -10 114 21
22 33 25 100 25 66 0 75 2 75 18 0 26 -40 60 -78 68 -26 5 -38 2 -56 -15 -32
-30 -71 -25 -71 9 0 19 9 29 35 42 19 10 35 18 35 18 0 0 26 -4 58 -10z
m-3913 -280 c14 -8 20 -26 26 -79 7 -76 17 -87 61 -70 41 16 127 -7 170 -44
51 -45 73 -98 73 -179 0 -60 -3 -71 -27 -98 -38 -42 -89 -53 -162 -33 -31 8
-77 15 -103 14 -46 -2 -47 -1 -52 31 -6 37 -46 436 -46 456 0 15 34 16 60 2z
m-803 -82 c9 -11 28 -176 36 -308 2 -35 1 -35 -38 -35 l-40 0 -7 60 c-3 33 -9
113 -13 178 l-8 117 30 0 c17 0 35 -6 40 -12z m192 -15 c20 -13 29 -14 57 -4
41 15 122 5 163 -20 48 -29 67 -80 79 -213 7 -65 9 -123 6 -127 -9 -15 -51
-10 -68 7 -10 9 -16 33 -16 62 0 26 -5 81 -10 122 -8 61 -14 79 -35 98 -31 26
-90 30 -123 6 -25 -17 -28 -65 -12 -189 6 -47 5 -74 -2 -82 -13 -17 -53 -17
-66 0 -11 14 -45 333 -37 347 9 15 38 12 64 -7z m1509 -46 c6 -6 14 -25 17
-40 6 -20 15 -30 37 -34 28 -6 53 -34 41 -47 -3 -3 -19 -6 -35 -6 -15 0 -28
-3 -28 -7 0 -10 20 -173 23 -194 4 -22 26 -49 41 -49 7 0 21 -6 31 -14 16 -12
17 -16 6 -30 -18 -22 -59 -20 -98 4 -44 26 -49 40 -67 169 -9 62 -18 117 -21
121 -3 4 -21 11 -40 14 -49 10 -49 41 1 50 28 6 35 11 34 29 -1 12 -2 28 -1
35 1 16 45 16 59 -1z m-235 -70 c51 -29 64 -56 82 -179 8 -57 18 -115 21 -130
6 -26 4 -28 -23 -28 -16 0 -34 5 -40 11 -9 9 -26 9 -66 1 -116 -23 -217 35
-217 126 0 60 64 94 171 90 59 -3 64 -1 61 17 -11 64 -106 93 -155 47 -27 -25
-59 -29 -77 -7 -17 20 8 52 60 77 28 14 142 -2 183 -25z m652 -50 c52 -29 70
-68 89 -192 8 -55 18 -110 22 -122 6 -21 3 -23 -28 -23 -19 0 -39 5 -44 10 -7
7 -26 7 -60 -1 -115 -26 -228 54 -203 144 13 48 56 67 148 67 65 0 71 2 71 20
0 59 -107 93 -151 49 -20 -20 -63 -29 -76 -16 -12 13 9 57 35 71 43 24 149 20
197 -7z m409 -37 c49 -30 63 -60 81 -180 8 -56 20 -111 26 -122 6 -11 8 -22 5
-25 -9 -10 -67 -5 -80 6 -9 8 -22 8 -45 0 -78 -27 -191 21 -212 90 -23 79 31
124 148 120 35 -1 66 0 69 3 12 12 -26 66 -55 78 -36 15 -68 8 -101 -20 -27
-24 -53 -26 -69 -6 -16 19 0 50 37 71 39 22 146 14 196 -15z m244 -121 c30
-57 56 -106 58 -109 9 -9 23 25 34 80 23 118 28 130 61 130 16 0 32 -6 35 -14
3 -7 -7 -60 -21 -117 -14 -57 -35 -139 -46 -183 -23 -95 -44 -131 -82 -147
-36 -15 -80 -2 -85 25 -5 22 13 36 45 36 40 0 56 61 30 110 -8 14 -46 84 -85
157 -40 72 -72 136 -72 141 0 16 33 20 55 7 11 -7 44 -59 73 -116z m482 63
c47 -25 100 -104 100 -149 l0 -35 -106 7 c-58 4 -113 8 -121 9 -26 2 -25 -20
3 -53 51 -60 105 -75 169 -44 33 16 36 16 52 0 16 -16 16 -18 -5 -39 -16 -17
-36 -23 -84 -26 -54 -3 -71 0 -118 25 -70 37 -111 93 -118 162 -6 66 2 93 39
130 27 28 37 31 92 31 41 0 74 -6 97 -18z m1152 -19 c10 -9 18 -24 18 -33 0
-22 18 -37 50 -42 17 -2 25 -9 25 -23 0 -12 -9 -21 -25 -25 -29 -7 -29 -7 -6
-119 21 -105 29 -119 63 -123 20 -2 28 -9 28 -23 0 -26 -52 -32 -93 -11 -35
18 -54 66 -76 194 -8 46 -16 85 -17 86 -2 2 -17 8 -34 13 -40 13 -45 41 -8 45
23 2 28 7 25 28 -5 50 16 64 50 33z m-577 -34 c47 -28 62 -59 81 -170 8 -50
20 -103 25 -116 5 -14 7 -29 3 -34 -8 -13 -37 -11 -59 5 -14 10 -26 11 -43 5
-69 -26 -160 1 -199 60 -29 43 -29 73 1 108 22 25 31 28 105 31 89 4 97 12 59
57 -35 39 -86 44 -126 10 -22 -18 -38 -24 -52 -20 -32 10 -25 49 13 75 27 18
41 20 94 15 37 -3 78 -14 98 -26z m365 -24 c54 -28 69 -57 94 -176 13 -63 27
-122 31 -131 10 -26 -22 -35 -55 -16 -20 11 -32 13 -45 5 -28 -15 -130 -2
-163 21 -16 12 -36 38 -46 59 -34 76 18 125 129 122 31 -1 58 0 60 3 3 3 1 17
-4 31 -20 51 -95 66 -136 27 -27 -26 -68 -24 -73 3 -5 23 33 64 62 70 33 7
118 -4 146 -18z m436 -33 c13 -8 77 -310 68 -323 -7 -11 -35 -11 -52 0 -15 9
-75 307 -66 322 6 11 35 11 50 1z m1531 -4 c6 -7 16 -42 23 -78 6 -36 16 -78
20 -95 27 -100 62 -267 56 -272 -4 -4 -20 -2 -37 4 -19 8 -40 8 -61 3 -41 -12
-116 5 -147 33 -88 81 -116 228 -53 278 27 21 66 22 144 3 l27 -6 -15 53 c-20
76 -18 89 10 89 13 0 28 -6 33 -12z m-1214 -37 c10 -8 25 -29 32 -46 29 -63
80 -148 90 -147 12 1 21 36 32 122 8 64 8 65 41 68 23 2 32 -1 32 -12 0 -36
-62 -371 -72 -390 -25 -46 -81 -61 -113 -30 -21 21 -15 38 16 42 13 2 30 11
37 20 26 34 12 73 -78 230 -60 104 -86 158 -78 163 14 9 37 1 61 -20z m495
-48 c34 -27 39 -39 64 -136 14 -59 31 -121 37 -137 10 -29 9 -30 -24 -30 -18
0 -35 5 -37 12 -3 9 -12 9 -38 0 -18 -7 -44 -12 -58 -12 -42 0 -110 39 -132
75 -30 48 -23 84 20 113 29 20 44 23 86 19 67 -7 82 2 59 37 -33 50 -97 62
-130 26 -36 -40 -89 -15 -65 30 18 33 42 41 113 37 57 -4 74 -9 105 -34z m347
-23 c20 -12 41 -34 47 -49 9 -24 68 -248 68 -259 0 -2 -15 -1 -32 2 -18 4 -44
7 -58 6 -109 -3 -121 -1 -155 20 -55 34 -79 95 -55 140 13 25 71 42 128 38 38
-2 47 0 50 14 2 10 -8 29 -22 43 -32 32 -85 34 -111 5 -23 -25 -68 -23 -73 2
-2 10 9 29 23 44 25 25 31 26 90 22 41 -4 77 -13 100 -28z m714 -55 c128 -67
164 -269 55 -305 -100 -33 -224 51 -254 173 -25 97 30 164 124 152 27 -3 61
-12 75 -20z m236 -15 c152 11 181 -15 229 -208 33 -126 33 -126 -1 -117 -16 4
-29 8 -30 9 -2 1 -15 49 -29 107 -14 57 -32 113 -39 125 -21 32 -70 49 -101
35 -23 -10 -25 -16 -21 -54 3 -23 12 -73 21 -112 21 -91 21 -95 -9 -95 -17 0
-28 7 -34 23 -17 40 -69 281 -64 290 3 5 17 6 32 2 14 -3 35 -6 46 -5z m-6630
-84 c94 -8 208 -17 255 -20 123 -9 872 -63 1100 -81 107 -8 386 -29 620 -46
234 -16 493 -35 575 -42 l150 -12 11 -65 c7 -36 12 -78 13 -93 1 -28 1 -28
-48 -21 -28 3 -63 2 -79 -4 -16 -5 -34 -7 -39 -3 -6 3 -14 38 -18 76 -8 75
-14 85 -57 85 -33 0 -33 1 -14 -123 8 -50 23 -154 32 -231 17 -128 20 -139 42
-147 14 -5 30 -5 41 0 16 9 16 16 5 86 -8 41 -15 99 -16 128 -3 52 -3 52 36
71 39 19 40 19 75 -1 25 -15 40 -33 48 -59 12 -36 12 -34 7 34 -5 60 -4 71 8
67 30 -12 61 -88 79 -194 26 -149 26 -151 -12 -151 l-31 0 7 -57 c4 -31 9 -63
13 -71 4 -13 -3 -14 -44 -9 -27 3 -107 9 -179 12 -71 3 -145 8 -163 11 -32 5
-33 6 -17 24 20 23 21 65 0 205 -9 61 -20 140 -24 178 -10 78 -22 97 -62 97
-28 0 -29 -2 -24 -37 27 -186 45 -333 45 -360 0 -28 -5 -35 -35 -47 -25 -11
-33 -19 -29 -30 7 -20 -35 -21 -253 -6 -81 5 -265 16 -408 25 -143 8 -478 29
-745 45 -267 16 -600 37 -740 45 -140 8 -283 18 -317 21 l-63 6 0 75 c0 71 2
77 35 116 45 52 45 81 0 147 -29 43 -35 61 -35 106 0 47 2 54 20 54 26 0 26
25 0 68 -14 22 -20 50 -20 87 l0 55 43 0 c23 0 119 -7 212 -14z m3969 -347 c5
-4 13 -32 17 -61 18 -119 29 -172 39 -182 8 -8 27 5 66 47 42 44 61 57 83 57
17 0 32 -4 35 -9 4 -5 -17 -37 -45 -70 -28 -34 -49 -65 -47 -70 1 -5 42 -50
91 -101 48 -50 87 -94 87 -96 0 -2 -17 -4 -37 -4 -34 0 -45 8 -108 75 -38 41
-78 75 -89 75 -16 0 -18 -7 -15 -67 4 -62 2 -68 -16 -71 -37 -4 -46 14 -65
124 -11 60 -29 162 -40 227 -24 130 -22 152 12 142 13 -4 27 -11 32 -16z
m-854 -77 c52 -26 74 -68 94 -178 9 -55 21 -112 26 -129 14 -41 -1 -53 -43
-36 -17 7 -36 12 -42 11 -132 -19 -190 -4 -231 61 -33 52 -30 76 12 115 34 33
38 34 115 34 91 0 100 11 50 61 -38 38 -89 40 -127 4 -31 -29 -26 -28 -58 -15
-33 12 -33 25 3 61 27 26 36 29 98 29 45 0 80 -6 103 -18z m291 -12 c50 1 57
-1 62 -21 8 -30 1 -39 -33 -39 -66 0 -72 -22 -46 -190 12 -81 12 -85 -7 -94
-40 -20 -50 2 -79 174 -14 90 -24 168 -21 173 3 5 20 6 37 2 17 -4 56 -6 87
-5z m312 -21 c48 -13 112 -70 140 -123 27 -52 29 -140 4 -178 -19 -28 -81 -58
-120 -58 -37 0 -109 29 -138 54 -73 64 -105 167 -74 239 28 67 97 92 188 66z
m815 -76 c37 -27 48 -52 75 -179 13 -60 27 -116 31 -125 10 -23 -26 -31 -59
-13 -19 10 -32 11 -45 4 -10 -6 -40 -10 -65 -10 -85 0 -159 63 -157 133 2 57
45 80 152 81 49 1 55 3 52 21 -5 30 -43 64 -79 71 -26 5 -36 2 -56 -20 -31
-33 -73 -35 -83 -4 -21 67 157 98 234 41z m440 -13 c59 1 79 -3 108 -21 34
-21 38 -21 64 -6 82 49 204 -11 228 -111 12 -48 42 -205 42 -215 0 -5 -14 -7
-32 -5 l-32 3 -26 123 c-29 133 -43 157 -97 168 -25 5 -37 1 -56 -18 l-24 -25
23 -114 c13 -63 23 -117 24 -121 0 -11 -58 -10 -64 0 -3 5 -17 62 -31 128 -30
141 -49 167 -118 162 -60 -5 -64 -17 -37 -153 24 -125 21 -142 -24 -126 -20 8
-36 68 -80 305 l-7 38 33 -6 c18 -4 66 -7 106 -6z m709 -69 c45 -33 64 -73 83
-176 7 -38 19 -82 26 -97 8 -15 14 -32 14 -38 0 -14 -53 -13 -67 1 -9 9 -23 9
-56 0 -101 -29 -206 44 -195 134 5 45 48 70 123 70 35 0 66 3 69 6 3 3 -4 21
-17 40 -19 28 -30 35 -64 37 -32 2 -46 -2 -61 -18 -25 -27 -66 -24 -70 6 -5
38 41 64 113 64 53 0 68 -4 102 -29z m360 -27 c39 -30 56 -60 73 -134 16 -67
36 -139 45 -162 6 -15 2 -18 -20 -18 -14 0 -34 4 -43 9 -11 6 -33 5 -59 -2
-78 -20 -163 23 -184 94 -22 73 17 109 120 109 32 0 61 3 64 6 11 11 -24 61
-50 73 -38 18 -65 13 -95 -16 -23 -22 -32 -25 -46 -17 -31 20 -26 52 10 74 45
29 136 21 185 -16z m178 6 c3 -5 32 -7 69 -3 75 7 126 -13 155 -61 17 -28 49
-143 66 -238 7 -37 7 -38 -24 -38 -34 0 -33 -2 -67 155 -13 59 -24 87 -45 107
-30 31 -72 36 -101 14 -23 -17 -22 -30 6 -151 13 -55 20 -104 16 -108 -4 -5
-18 -7 -31 -5 -21 3 -26 16 -55 138 -29 122 -38 170 -35 193 1 10 39 9 46 -3z
m486 -30 c56 -16 126 -91 145 -157 19 -64 13 -107 -20 -148 -22 -28 -29 -30
-85 -29 -51 1 -69 6 -104 30 -70 50 -101 103 -105 184 -4 68 -3 71 28 100 35
33 75 38 141 20z m-6880 -413 c54 13 135 3 172 -22 49 -31 65 -80 77 -225 7
-83 8 -136 2 -142 -6 -6 -23 -6 -43 -1 l-34 9 -12 138 c-10 120 -15 142 -34
162 -29 31 -78 40 -116 21 -55 -29 -56 -33 -43 -177 6 -73 10 -133 8 -134 -1
-2 -15 -6 -30 -10 l-28 -6 0 200 c0 193 1 200 19 189 13 -9 30 -9 62 -2z m391
-23 c25 -13 35 -13 59 -3 42 17 141 6 177 -20 17 -11 37 -38 45 -59 17 -42 43
-273 33 -297 -6 -17 -61 -20 -72 -4 -3 6 -11 65 -16 132 -12 144 -28 182 -84
193 -41 8 -77 0 -99 -23 -15 -14 -16 -30 -9 -122 13 -178 15 -166 -31 -166
l-40 0 -16 180 c-19 212 -16 225 53 189z m2845 -6 c6 -7 13 -35 17 -63 8 -67
31 -219 50 -330 22 -125 23 -118 -26 -111 -49 7 -44 7 -123 0 -78 -6 -117 14
-168 87 -48 69 -59 144 -32 214 27 73 58 82 205 63 15 -2 24 2 23 8 -1 7 -5
41 -9 78 l-7 66 30 0 c17 0 35 -6 40 -12z m-2152 -28 c113 4 142 1 182 -21 41
-22 43 -23 78 -6 45 21 127 22 171 1 67 -32 83 -78 108 -312 l7 -63 -37 3
c-44 4 -46 8 -63 148 -7 52 -14 107 -17 121 -10 52 -108 78 -154 41 l-23 -18
13 -133 c14 -144 11 -155 -36 -149 l-29 3 -16 140 c-15 128 -19 141 -43 162
-45 38 -96 42 -140 10 -17 -13 -17 -19 -3 -148 12 -112 12 -136 1 -148 -10
-11 -20 -13 -41 -5 -27 9 -28 14 -39 109 -7 55 -15 140 -19 189 l-7 88 38 -6
c22 -4 53 -7 69 -6z m3181 -50 c7 -14 16 -47 21 -75 l8 -50 76 0 c65 0 81 -4
116 -27 85 -56 129 -224 77 -295 -32 -44 -60 -53 -124 -41 -30 6 -77 11 -105
12 l-50 1 -12 60 c-20 101 -73 410 -73 429 0 28 52 17 66 -14z m-2308 -4 c38
-20 68 -54 91 -106 25 -56 27 -86 4 -92 -10 -2 -67 -1 -128 2 -133 9 -147 2
-111 -51 45 -65 138 -88 186 -44 21 19 44 19 59 1 29 -35 -28 -76 -106 -77
-111 -2 -171 29 -224 116 -19 32 -24 54 -24 107 0 74 16 105 76 146 29 21 42
23 92 18 32 -3 70 -12 85 -20z m254 -19 c4 -7 8 -17 8 -23 0 -7 9 -79 20 -160
11 -82 20 -155 20 -161 0 -14 -66 -18 -73 -5 -5 8 -33 193 -43 289 -3 33 -3
66 1 73 8 14 56 4 67 -13z m182 -2 c13 -10 25 -11 43 -4 13 5 48 9 77 9 61 0
109 -26 137 -75 18 -30 63 -281 53 -297 -3 -4 -20 -8 -38 -8 -38 0 -36 -7 -57
164 -14 110 -36 149 -86 159 -36 7 -89 -16 -97 -40 -3 -11 1 -64 9 -119 22
-150 22 -154 -20 -154 -28 0 -36 4 -39 23 -15 69 -47 329 -42 342 7 19 35 19
60 0z m1249 -83 c65 -43 101 -104 105 -179 5 -78 -9 -116 -55 -144 -28 -18
-46 -21 -103 -17 -88 5 -142 39 -184 117 -53 98 -31 211 48 247 48 22 138 11
189 -24z m412 -15 c121 -68 162 -247 74 -321 -26 -22 -40 -26 -95 -26 -101 0
-162 39 -203 130 -40 88 -18 206 43 230 43 18 139 11 181 -13z m943 -33 c39
-8 112 -69 112 -95 0 -29 -44 -24 -73 7 -34 36 -100 48 -123 23 -29 -32 1 -61
90 -87 100 -30 146 -71 146 -130 0 -33 -5 -44 -29 -61 -33 -24 -101 -28 -164
-10 -43 12 -110 73 -105 97 6 30 39 25 77 -12 42 -41 104 -56 135 -33 17 13
18 18 7 45 -11 26 -23 34 -84 52 -125 37 -174 89 -152 159 13 42 83 61 163 45z
m417 -48 c51 -40 47 -27 112 -313 4 -19 1 -23 -16 -23 -12 0 -31 5 -42 10 -13
8 -32 7 -60 0 -93 -25 -199 36 -199 115 0 50 8 64 53 86 32 17 51 20 88 15 26
-4 50 -2 53 3 11 18 -13 60 -43 76 -42 21 -68 19 -95 -10 -26 -28 -57 -32 -75
-11 -16 19 3 50 44 71 46 24 136 14 180 -19z m490 -10 c22 -9 37 -10 57 -2 22
8 31 7 42 -4 15 -15 86 -323 86 -373 0 -95 -106 -138 -210 -84 -52 26 -70 51
-52 69 9 9 20 7 51 -10 68 -39 141 -23 141 31 0 34 -9 38 -54 26 -29 -8 -48
-7 -85 6 -88 29 -144 116 -145 227 -1 61 2 69 28 97 24 25 38 31 70 31 23 -1
54 -7 71 -14z m444 -42 c44 -31 50 -46 90 -204 10 -41 22 -85 26 -97 6 -20 4
-23 -22 -23 -16 0 -34 5 -41 12 -9 9 -18 9 -37 0 -64 -29 -152 -3 -192 57 -55
83 -4 151 113 151 29 0 55 4 59 9 3 5 -10 25 -29 45 -41 44 -77 47 -111 10
-15 -16 -32 -24 -47 -22 -35 5 -35 42 -1 74 25 24 33 26 90 21 46 -3 71 -12
102 -33z m216 -96 c33 -60 65 -106 70 -105 8 3 19 68 34 200 1 11 45 9 57 -3
7 -7 6 -42 -2 -108 -8 -53 -18 -135 -24 -182 -15 -120 -18 -135 -41 -159 -27
-28 -84 -29 -99 -1 -13 25 -5 40 20 40 24 0 50 37 50 71 0 14 -10 42 -22 60
-13 19 -34 54 -47 79 -13 25 -30 52 -36 60 -14 17 -85 147 -85 156 0 3 15 4
32 2 30 -3 38 -11 93 -110z m-6438 -336 c8 -5 -19 -42 -88 -115 -81 -88 -98
-111 -90 -125 6 -9 65 -75 131 -146 66 -72 120 -134 120 -138 0 -13 -83 -9
-100 5 -8 7 -52 53 -98 104 l-82 91 0 103 0 102 62 64 c54 54 68 63 98 63 19
0 40 -4 47 -8z m925 -47 c4 -22 11 -85 17 -139 5 -54 15 -104 21 -110 7 -7 30
9 78 57 59 58 72 67 104 67 20 0 40 -5 43 -10 4 -6 -25 -43 -64 -84 l-71 -73
27 -29 c123 -131 173 -187 173 -195 0 -5 -18 -9 -39 -9 -37 0 -45 6 -119 86
-102 110 -117 110 -117 4 l0 -75 -38 -3 c-24 -2 -39 1 -42 10 -4 13 -38 324
-51 471 l-6 78 38 -3 c37 -3 39 -5 46 -43z m-499 -125 c46 -31 56 -59 67 -192
6 -59 14 -118 20 -133 17 -45 13 -55 -23 -55 -18 0 -42 6 -52 14 -16 11 -24
11 -54 -1 -49 -21 -151 -11 -192 17 -59 42 -76 116 -38 164 34 43 70 56 158
56 45 0 83 5 86 11 12 18 -14 64 -46 83 -40 24 -93 16 -129 -19 -20 -19 -36
-26 -56 -23 -45 5 -43 39 3 77 37 32 39 32 129 29 77 -3 96 -7 127 -28z m228
10 c13 -8 31 -7 58 1 58 17 91 6 91 -31 0 -17 -3 -31 -7 -31 -5 -1 -23 -3 -41
-5 -18 -2 -42 -9 -54 -15 -22 -12 -22 1 -2 -236 l7 -73 -41 0 c-45 0 -52 10
-52 68 0 20 -7 97 -16 171 -8 73 -13 140 -10 147 6 17 39 18 67 4z m878 -35
c46 -23 98 -92 111 -145 7 -27 8 -54 4 -61 -5 -9 -42 -10 -141 -6 -110 6 -135
4 -139 -7 -8 -22 13 -54 58 -86 50 -37 94 -39 148 -7 31 17 44 20 57 11 26
-16 26 -30 1 -53 -54 -51 -187 -51 -258 0 -66 48 -94 100 -98 183 -3 60 0 77
21 109 34 56 71 75 145 76 37 1 75 -5 91 -14z m450 -17 c15 -9 28 -9 60 1 64
19 133 5 181 -36 92 -79 115 -245 44 -322 -30 -33 -37 -36 -91 -36 -32 0 -73
4 -91 8 l-33 9 3 -79 3 -78 -29 -3 c-16 -2 -32 0 -37 5 -8 8 -69 462 -69 515
0 31 25 38 59 16z m661 -32 c64 -33 119 -115 127 -188 7 -68 -8 -115 -48 -154
-29 -27 -35 -29 -114 -29 -76 0 -87 2 -126 30 -51 36 -95 111 -104 178 -9 63
28 145 77 169 50 25 135 23 188 -6z m2272 7 c9 -10 18 -27 19 -38 2 -11 19
-28 38 -37 56 -28 63 -58 14 -58 -25 0 -26 -1 -20 -52 3 -29 9 -64 12 -78 2
-14 8 -41 11 -60 9 -51 30 -80 59 -80 25 0 42 -30 29 -51 -8 -14 -81 -3 -111
17 -25 16 -45 76 -64 194 -15 94 -19 102 -61 116 -42 14 -46 47 -5 52 24 3 27
7 27 41 0 54 22 68 52 34z m-1834 -19 c131 -54 185 -252 94 -344 -59 -58 -194
-44 -266 27 -50 50 -66 84 -73 149 -8 71 17 138 61 165 39 24 131 25 184 3z
m262 -14 c12 -12 20 -33 20 -55 0 -19 6 -70 14 -112 32 -171 45 -269 39 -295
-9 -43 -34 -60 -89 -56 -45 3 -49 5 -52 31 -3 23 0 27 21 27 50 0 51 14 18
225 -37 237 -38 255 -11 255 11 0 29 -9 40 -20z m348 -6 c20 -8 49 -27 64 -41
28 -26 32 -42 62 -208 8 -44 18 -90 22 -102 6 -21 3 -23 -28 -23 -19 0 -39 5
-45 11 -8 8 -24 6 -57 -5 -116 -40 -239 52 -210 157 13 46 75 75 146 71 71 -5
83 3 62 44 -29 60 -96 73 -142 29 -31 -30 -63 -35 -81 -13 -17 20 1 51 42 76
39 24 113 26 165 4z m436 -20 c9 -8 16 -19 16 -23 0 -4 16 -100 35 -214 35
-210 35 -238 2 -265 -26 -22 -82 -26 -100 -7 -25 25 -21 41 16 51 21 7 33 17
35 31 2 11 -13 111 -33 222 -20 111 -33 206 -30 211 9 15 42 12 59 -6z m390
-33 c53 -37 92 -98 105 -165 11 -60 -1 -107 -39 -149 -27 -31 -31 -32 -104
-31 -68 0 -81 4 -119 30 -63 44 -101 121 -101 204 0 36 6 75 13 88 38 71 159
82 245 23z m797 -12 c48 -25 109 -123 109 -175 l0 -26 -117 4 c-136 4 -145 -3
-91 -66 43 -48 96 -58 153 -27 29 15 42 18 52 9 19 -16 16 -32 -12 -58 -21
-20 -35 -24 -88 -23 -38 0 -76 7 -95 17 -63 33 -116 109 -128 185 -7 46 11
124 32 142 42 35 136 44 185 18z m331 -12 c18 -28 8 -44 -34 -53 -55 -12 -57
-23 -28 -171 25 -123 21 -141 -23 -129 -21 5 -26 15 -35 63 -6 32 -20 100 -31
152 -12 52 -21 106 -21 121 0 26 0 27 82 27 53 1 86 -3 90 -10z m127 -34 c18
-70 61 -283 61 -304 0 -17 -5 -20 -32 -17 l-32 3 -33 155 c-41 197 -41 200 -3
200 25 0 30 -5 39 -37z m-5693 -578 c3 -8 -7 -38 -24 -67 -16 -29 -48 -89 -72
-133 -23 -44 -49 -91 -57 -104 -12 -18 -14 -49 -11 -135 l3 -111 -30 -3 c-48
-4 -54 7 -61 103 -3 50 -13 103 -20 119 -16 33 -19 146 -4 146 6 0 10 -4 10
-8 0 -11 35 -52 44 -52 4 0 10 8 14 18 4 9 33 68 65 130 l57 112 40 0 c27 0
43 -5 46 -15z m1758 -22 c3 -10 10 -63 16 -118 6 -55 15 -127 20 -160 5 -33
14 -107 20 -164 12 -109 9 -121 -30 -121 -39 0 -43 15 -76 292 -17 150 -30
276 -27 281 2 4 19 7 38 7 23 0 35 -5 39 -17z m192 9 c6 -4 19 -73 29 -154 11
-92 23 -148 30 -148 6 0 39 32 74 70 54 60 67 70 96 70 61 0 57 -16 -27 -109
-27 -29 -48 -57 -48 -62 0 -6 20 -31 44 -57 127 -136 145 -158 146 -169 0 -8
-14 -13 -36 -13 -33 0 -45 9 -119 88 -72 75 -86 86 -102 76 -15 -9 -18 -24
-18 -85 l0 -74 -33 -3 c-20 -2 -34 2 -37 10 -8 23 -71 545 -67 556 4 13 51 16
68 4z m1652 -44 c5 -7 13 -33 17 -58 10 -69 25 -110 40 -110 8 0 17 5 20 10 3
6 29 10 57 10 120 0 208 -107 208 -254 0 -54 -4 -69 -30 -104 -25 -34 -36 -42
-76 -48 -27 -4 -62 -2 -85 5 -23 7 -59 9 -83 6 -38 -6 -45 -4 -50 12 -13 40
-86 525 -81 534 9 13 51 11 63 -3z m440 -11 c6 -7 14 -40 18 -74 8 -78 24
-103 53 -85 31 18 111 15 151 -7 50 -26 69 -70 96 -216 31 -167 31 -165 -5
-165 -16 0 -33 6 -38 13 -5 6 -19 71 -31 142 -20 119 -25 132 -52 158 -38 34
-79 35 -116 4 l-27 -24 23 -138 c19 -115 20 -139 9 -146 -18 -11 -30 -11 -48
0 -8 5 -29 100 -57 262 -24 140 -44 262 -44 272 0 21 52 24 68 4z m-3683 -90
c49 -28 95 -107 98 -169 l2 -43 -147 0 c-99 0 -149 -3 -152 -11 -7 -18 25 -74
56 -96 38 -27 105 -34 138 -14 59 35 72 38 92 18 19 -18 18 -19 -13 -50 -57
-56 -193 -58 -272 -3 -67 46 -89 90 -94 186 -3 70 -1 85 19 120 34 57 88 85
168 85 49 0 75 -6 105 -23z m465 1 c15 -10 26 -10 53 0 46 16 109 15 156 -4
130 -52 175 -299 69 -389 -18 -16 -37 -20 -88 -20 -36 0 -80 3 -99 8 l-34 7 7
-76 c8 -84 0 -104 -40 -104 -16 0 -28 8 -34 23 -12 28 -63 535 -56 553 7 17
40 18 66 2z m678 -18 c77 -35 83 -48 106 -227 8 -62 20 -121 25 -132 6 -11 11
-24 11 -30 0 -15 -73 -14 -87 0 -9 9 -20 8 -45 -2 -49 -20 -154 -16 -187 8
-37 28 -71 81 -71 112 0 40 35 89 76 106 21 8 66 15 105 15 37 0 70 3 72 8 13
19 -8 65 -37 83 -44 27 -80 24 -119 -11 -23 -20 -45 -30 -66 -30 -27 0 -31 3
-31 28 0 76 146 118 248 72z m1080 -32 c57 -35 112 -142 97 -189 -6 -19 -15
-20 -123 -19 -158 1 -152 2 -152 -16 0 -21 34 -64 68 -86 36 -24 97 -23 138 3
70 43 103 -13 34 -59 -31 -21 -44 -23 -110 -20 -64 3 -82 8 -120 33 -65 44
-100 111 -100 195 0 135 63 197 185 184 27 -3 65 -15 83 -26z m230 13 c19 -12
74 -383 58 -393 -17 -12 -53 -9 -64 5 -17 21 -62 381 -49 389 16 10 39 10 55
-1z m202 -13 c16 -10 24 -10 40 0 11 6 46 12 77 12 118 0 154 -53 185 -264 10
-71 17 -130 16 -131 -15 -11 -58 -12 -66 -2 -6 7 -20 73 -31 147 -19 125 -23
137 -51 163 -40 36 -91 37 -126 2 -17 -17 -23 -32 -20 -47 14 -64 36 -249 31
-258 -7 -12 -62 -13 -69 -2 -5 9 -56 349 -56 376 0 20 41 22 70 4z m1636 -37
c58 -36 122 -141 109 -182 -6 -17 -17 -19 -125 -19 -133 0 -147 -8 -109 -61
41 -59 127 -78 176 -39 32 25 49 25 62 2 25 -46 -53 -88 -145 -79 -69 7 -128
46 -168 112 -26 42 -31 60 -31 115 0 120 43 170 145 170 37 0 66 -6 86 -19z
m415 -23 c45 -35 86 -104 91 -153 l3 -30 -125 -5 c-118 -5 -125 -6 -122 -25 6
-31 52 -74 95 -87 35 -11 44 -9 83 11 49 26 77 22 72 -10 -6 -39 -48 -60 -120
-61 -70 -1 -95 9 -151 61 -88 81 -100 233 -24 303 25 24 37 28 92 28 56 0 68
-4 106 -32z m347 10 c10 -10 17 -10 32 0 23 14 56 16 64 3 7 -10 38 -157 67
-316 19 -101 20 -112 5 -142 -21 -43 -70 -73 -123 -73 -48 0 -120 28 -146 58
-16 17 -16 21 -3 35 13 13 20 12 61 -9 72 -36 145 -13 145 46 0 36 -5 39 -48
27 -21 -5 -58 -7 -84 -3 -80 12 -154 107 -165 211 -7 71 3 122 32 151 20 20
34 24 88 24 36 0 68 -5 75 -12z m451 -16 c13 -24 91 -408 91 -447 0 -36 -22
-60 -62 -70 -60 -15 -96 46 -38 66 17 6 30 16 30 22 0 7 -20 107 -44 224 -24
117 -41 215 -38 218 12 12 52 4 61 -13z m353 -13 c46 -30 52 -44 88 -189 16
-63 32 -125 35 -137 10 -30 -19 -42 -54 -22 -23 13 -30 13 -56 0 -16 -8 -46
-13 -67 -13 -103 4 -180 109 -138 186 17 32 53 47 128 54 66 5 68 7 51 46 -26
56 -112 66 -139 16 -7 -13 -21 -20 -40 -20 -26 0 -30 4 -30 29 0 21 9 37 32
56 29 24 38 27 93 23 42 -3 71 -11 97 -29z m371 -4 c46 -32 60 -59 82 -160 9
-44 25 -103 35 -132 9 -29 15 -55 12 -58 -9 -9 -57 -6 -68 5 -6 6 -25 4 -53
-6 -100 -34 -201 29 -201 127 0 62 50 99 135 99 49 0 55 2 55 21 0 28 -56 79
-87 79 -14 0 -35 -12 -52 -31 -20 -21 -36 -30 -52 -27 -38 5 -37 43 1 78 28
27 39 30 94 30 49 0 69 -5 99 -25z"/>
<path d="M6613 9773 c-20 -4 -23 -11 -23 -51 l0 -47 85 0 85 0 0 46 c0 40 -3
48 -22 53 -25 6 -90 6 -125 -1z"/>
<path d="M623 8888 c-48 -23 -53 -112 -10 -170 20 -27 82 -58 116 -58 10 0 30
9 45 21 22 18 26 28 26 74 0 43 -5 60 -26 85 -46 54 -101 72 -151 48z"/>
<path d="M1034 8819 c-27 -30 -24 -107 7 -148 46 -62 132 -80 168 -35 40 51
22 141 -38 183 -40 29 -111 29 -137 0z"/>
<path d="M4653 8389 c-41 -15 -41 -107 -1 -159 35 -45 100 -64 137 -41 22 14
-4 143 -34 171 -28 26 -74 39 -102 29z"/>
<path d="M135 8057 c-39 -29 13 -97 75 -97 12 0 34 7 50 15 36 19 42 68 11 85
-28 14 -114 12 -136 -3z"/>
<path d="M2080 7949 c-33 -45 -21 -111 30 -161 32 -33 44 -38 83 -38 37 0 49
5 66 26 58 74 -17 204 -117 204 -34 0 -44 -5 -62 -31z"/>
<path d="M2910 7863 c-18 -23 -21 -36 -16 -78 4 -42 12 -56 45 -87 34 -32 47
-38 84 -38 36 0 48 5 61 25 69 105 -98 275 -174 178z"/>
<path d="M4199 7744 c-19 -6 -39 -46 -39 -77 1 -40 38 -106 72 -127 41 -25 69
-25 98 -2 l22 18 -17 76 c-13 59 -22 80 -41 93 -27 17 -70 26 -95 19z"/>
<path d="M4926 7647 c-32 -32 -33 -66 -5 -125 51 -105 179 -111 179 -8 0 40
-35 111 -66 130 -45 30 -80 31 -108 3z"/>
<path d="M5296 7604 c-20 -20 -21 -86 -1 -123 23 -45 72 -81 109 -81 45 0 66
26 66 81 0 46 -25 93 -67 124 -25 19 -88 19 -107 -1z"/>
<path d="M3781 7049 c-22 -9 -23 -13 -17 -62 13 -96 25 -127 59 -147 64 -39
115 -20 124 47 10 77 -59 174 -122 172 -11 0 -31 -5 -44 -10z"/>
<path d="M1041 6509 c-23 -9 -24 -12 -18 -95 5 -91 16 -113 69 -140 36 -19 68
-17 97 5 19 14 25 30 29 73 9 119 -78 197 -177 157z"/>
<path d="M1493 6335 c-48 -34 -17 -92 54 -102 29 -4 44 0 66 17 32 25 37 74
10 88 -32 16 -107 14 -130 -3z"/>
<path d="M2147 6272 c-23 -25 -21 -37 10 -67 52 -47 143 -23 143 38 0 36 -19
47 -80 47 -42 0 -61 -5 -73 -18z"/>
<path d="M2558 6246 c-43 -32 1 -96 66 -96 58 0 76 14 76 59 0 26 -5 41 -16
45 -28 11 -109 6 -126 -8z"/>
<path d="M6176 6068 c-44 -63 12 -191 91 -208 58 -13 76 4 69 65 -9 87 -25
124 -59 145 -43 27 -82 26 -101 -2z"/>
<path d="M6550 6040 c-49 -49 1 -177 81 -210 69 -29 111 22 89 107 -23 96
-119 154 -170 103z"/>
<path d="M1543 5808 c3 -24 16 -135 28 -248 12 -113 27 -211 32 -217 5 -7 22
-13 38 -13 28 0 28 0 31 72 4 95 18 98 89 21 92 -98 97 -102 123 -109 14 -3
33 -3 42 0 17 7 5 23 -124 159 -62 66 -64 52 26 142 23 23 42 47 42 54 0 6
-17 11 -41 11 -36 0 -48 -7 -101 -57 -54 -52 -61 -56 -72 -41 -7 10 -18 70
-24 134 -11 124 -15 134 -66 134 -28 0 -28 -1 -23 -42z"/>
<path d="M229 5767 c-47 -32 -79 -92 -76 -142 4 -54 31 -113 70 -153 44 -47
74 -60 148 -67 55 -6 71 -3 109 17 61 31 94 93 85 159 -6 53 -28 102 -59 138
-60 68 -209 94 -277 48z m187 -57 c39 -25 58 -63 62 -125 4 -56 2 -63 -26 -93
-24 -25 -38 -32 -69 -32 -100 0 -169 113 -133 217 21 58 101 74 166 33z"/>
<path d="M642 5753 c-9 -19 15 -318 27 -343 9 -17 59 -26 72 -13 4 4 3 68 -3
142 -11 126 -10 135 7 147 22 16 73 18 109 4 43 -16 56 -49 68 -176 6 -66 15
-125 21 -131 10 -14 63 -18 70 -5 2 4 -1 61 -7 127 -6 67 -10 128 -8 136 4 20
44 39 80 39 27 0 92 -33 92 -47 2 -51 30 -257 37 -263 15 -14 48 -20 62 -11
11 7 11 29 -2 140 -17 142 -31 178 -77 211 -43 31 -129 38 -180 15 -40 -18
-41 -18 -83 3 -52 26 -133 37 -169 23 -21 -8 -36 -7 -62 4 -44 19 -43 19 -54
-2z"/>
<path d="M2030 5663 c-36 -14 -70 -46 -70 -63 0 -40 58 -44 89 -6 22 26 97 21
126 -9 14 -13 25 -33 25 -45 0 -18 -6 -20 -75 -20 -86 0 -127 -16 -149 -58
-12 -23 -12 -33 0 -67 26 -79 106 -116 203 -97 35 8 60 8 72 2 10 -6 30 -10
45 -10 24 0 26 3 20 28 -3 15 -13 74 -22 131 -22 143 -32 164 -94 196 -35 18
-143 30 -170 18z m174 -199 c10 -4 16 -18 16 -39 0 -67 -89 -99 -143 -52 -34
29 -36 70 -4 85 24 12 106 16 131 6z"/>
<path d="M3267 5372 c-24 -26 -21 -45 9 -73 35 -33 98 -33 125 0 42 52 14 91
-65 91 -39 0 -57 -5 -69 -18z"/>
<path d="M3895 5465 c-24 -23 -30 -49 -25 -105 8 -99 132 -169 191 -107 18 19
20 30 16 85 -4 52 -10 69 -33 94 -29 31 -80 58 -109 58 -9 0 -27 -11 -40 -25z"/>
<path d="M4682 5284 c-28 -19 -28 -45 1 -71 31 -29 64 -37 97 -23 33 14 44 37
35 73 -10 38 -90 51 -133 21z"/>
<path d="M6896 5265 c-24 -25 -28 -53 -16 -106 17 -70 66 -119 120 -119 65 0
85 42 60 132 -22 76 -123 134 -164 93z"/>
<path d="M3141 4664 c-40 -50 -22 -157 35 -209 20 -19 38 -25 70 -25 49 0 88
29 80 58 -2 9 -8 42 -12 72 -9 77 -19 97 -53 115 -47 24 -96 20 -120 -11z"/>
<path d="M4454 4617 c-35 -18 -41 -34 -33 -85 20 -127 40 -157 110 -168 50 -8
71 12 76 73 6 58 -7 106 -40 146 -25 32 -84 50 -113 34z"/>
<path d="M3580 4648 c-29 -31 -34 -58 -21 -121 15 -69 60 -116 120 -124 70
-10 107 40 95 130 -6 40 -15 58 -49 93 -36 38 -47 44 -83 44 -30 0 -47 -6 -62
-22z"/>
<path d="M4018 4635 c-32 -18 -43 -58 -33 -122 9 -64 64 -122 122 -130 36 -5
45 -2 68 21 25 25 27 33 23 86 -8 117 -98 189 -180 145z"/>
<path d="M5403 4428 c-52 -25 -9 -108 56 -108 64 0 99 71 53 108 -19 15 -78
15 -109 0z"/>
<path d="M5933 4535 c-43 -30 -39 -121 9 -191 39 -57 99 -71 136 -31 18 19 19
28 11 71 -20 109 -28 125 -69 146 -47 24 -59 25 -87 5z"/>
<path d="M500 3753 c-56 -21 -65 -69 -19 -107 39 -33 82 -34 126 0 37 28 45
71 17 98 -15 16 -91 21 -124 9z"/>
<path d="M1611 3844 c-12 -15 -21 -38 -21 -51 0 -24 0 -24 98 -21 91 3 97 4
94 23 -2 11 -16 32 -33 48 -41 38 -108 39 -138 1z"/>
<path d="M2265 3825 c-28 -27 -29 -41 -11 -140 15 -86 19 -93 62 -111 49 -20
74 -17 106 13 24 23 28 34 28 85 0 72 -27 130 -73 158 -44 27 -83 25 -112 -5z"/>
<path d="M2716 3805 c-26 -24 -31 -42 -27 -100 6 -89 62 -155 132 -155 22 0
48 4 58 10 47 25 53 142 9 205 -46 68 -123 86 -172 40z"/>
<path d="M3187 3804 c-33 -18 -47 -50 -47 -105 0 -144 170 -229 220 -109 28
68 -16 182 -83 213 -42 21 -54 21 -90 1z"/>
<path d="M3817 3622 c-61 -67 64 -142 128 -77 28 27 29 33 15 69 -9 24 -14 26
-68 26 -44 0 -63 -5 -75 -18z"/>
<path d="M4602 3753 c-33 -16 -42 -36 -42 -101 0 -90 60 -162 134 -162 50 0
74 21 82 72 19 113 -90 232 -174 191z"/>
<path d="M3981 2856 c-23 -24 -23 -27 -13 -99 7 -41 16 -86 21 -101 15 -38 68
-68 110 -62 50 8 64 27 69 95 3 48 0 68 -19 105 -30 61 -50 77 -101 83 -37 4
-47 1 -67 -21z"/>
<path d="M504 2932 c-28 -22 -47 -60 -40 -78 4 -11 28 -14 106 -14 97 0 100 1
100 23 -1 66 -112 113 -166 69z"/>
<path d="M1191 2919 l-34 -20 7 -97 c8 -113 22 -140 84 -162 39 -13 45 -13 77
4 60 32 73 131 29 217 -18 36 -35 54 -59 65 -46 19 -64 18 -104 -7z"/>
<path d="M1693 2756 c-56 -25 -62 -62 -15 -103 38 -34 95 -31 134 7 25 26 29
35 23 63 -4 17 -9 34 -11 36 -11 12 -103 10 -131 -3z"/>
<path d="M2744 2892 c-28 -22 -47 -60 -40 -78 4 -11 27 -14 95 -14 52 0 93 4
96 10 16 26 -66 100 -110 100 -11 0 -30 -8 -41 -18z"/>
<path d="M5634 2840 c-59 -24 -51 -160 13 -231 29 -32 42 -39 72 -39 26 0 44
7 59 23 21 22 21 24 6 109 -13 68 -22 92 -43 112 -30 29 -75 40 -107 26z"/>
<path d="M6465 2682 c-50 -5 -75 -22 -75 -53 0 -32 40 -69 76 -69 61 0 95 40
75 92 -10 27 -29 35 -76 30z"/>
<path d="M6792 2664 c-42 -29 -19 -94 39 -109 17 -4 38 -1 58 9 27 14 31 22
31 56 0 29 -5 42 -19 50 -29 15 -83 12 -109 -6z"/>
</g>
</svg>
