<?xml version="1.0" standalone="no"?>
<!DOCTYPE svg PUBLIC "-//W3C//DTD SVG 20010904//EN"
 "http://www.w3.org/TR/2001/REC-SVG-20010904/DTD/svg10.dtd">
<svg version="1.0" xmlns="http://www.w3.org/2000/svg"
 width="720.000000pt" height="1280.000000pt" viewBox="0 0 720.000000 1280.000000"
 preserveAspectRatio="xMidYMid meet">
<metadata>
Created by potrace 1.16, written by Peter Selinger 2001-2019
</metadata>
<g transform="translate(0.000000,1280.000000) scale(0.100000,-0.100000)"
fill="#000000" stroke="none">
<path d="M0 6400 l0 -6400 3600 0 3600 0 0 1031 0 1032 -629 -4 c-346 -2 -633
-1 -637 4 -10 10 -10 190 0 312 7 85 6 110 -9 160 -16 53 -18 100 -17 398 1
186 4 342 6 346 3 4 5 43 7 86 1 44 6 85 11 92 9 11 6 48 -8 119 -3 18 -1 42
7 55 23 44 27 87 13 130 -12 32 -12 53 -4 100 6 33 10 140 9 237 -2 177 -2
178 25 220 l26 42 160 0 160 0 21 -42 c44 -86 44 -92 52 -1503 2 -385 8 -708
12 -717 7 -17 35 -18 401 -18 l394 0 0 1201 0 1202 -317 -9 c-566 -16 -2793
-2 -3567 23 l-210 6 -33 34 c-45 44 -71 42 -125 -9 l-45 -41 -392 1 c-215 1
-396 4 -402 7 -5 4 -16 2 -23 -4 -12 -10 -57 5 -116 38 -8 5 -26 14 -40 20
-65 29 -106 58 -118 84 -11 23 -19 27 -55 27 -23 0 -53 7 -67 15 -14 8 -35 19
-47 24 -12 5 -24 19 -28 31 -3 11 -11 18 -16 14 -6 -3 -15 8 -22 25 -10 27
-16 31 -49 31 -30 0 -76 13 -97 26 -10 8 -10 333 1 371 l12 42 63 7 c35 3 149
5 254 2 222 -4 211 1 219 -113 l5 -70 65 -3 c89 -4 100 -16 100 -107 l0 -72
84 1 85 1 6 80 c3 44 5 139 3 210 l-3 130 -235 -3 c-129 -1 -413 -5 -631 -8
-348 -5 -398 -4 -411 10 -9 9 -49 19 -97 25 -45 6 -90 15 -101 21 -10 5 -32
10 -49 10 -26 0 -31 -4 -31 -24 0 -16 -8 -26 -22 -31 -13 -4 -182 -10 -375
-12 l-353 -5 1 498 c1 275 4 544 8 599 l6 100 37 9 c21 5 38 13 38 18 0 15 38
8 44 -8 10 -27 7 -99 -6 -112 -15 -15 -13 -69 3 -89 10 -11 14 -102 17 -357
l5 -343 120 -7 c66 -3 217 -6 336 -6 119 -1 235 -5 258 -9 39 -8 82 1 53 11
-18 6 -31 701 -13 746 9 25 10 45 3 75 -13 56 -13 154 0 178 17 30 65 49 127
49 75 0 103 8 103 29 0 34 66 56 171 56 89 0 100 -2 123 -24 20 -19 26 -34 26
-68 l0 -43 56 0 c31 0 70 -7 88 -15 l31 -15 -3 -276 c-3 -193 -1 -279 7 -287
8 -8 11 -6 12 9 0 17 1 17 9 -3 15 -36 29 -27 20 12 -5 23 -4 35 4 38 8 3 12
94 13 318 3 377 -9 349 144 349 62 0 112 -5 133 -14 31 -13 33 -17 39 -76 4
-35 7 -94 7 -131 0 -71 5 -78 39 -57 15 9 28 9 58 0 21 -6 58 -10 83 -8 25 2
55 4 68 5 l22 1 -2 193 -3 192 -332 -4 c-256 -3 -336 -1 -348 9 -11 9 -34 10
-82 5 -85 -9 -895 -9 -1251 1 l-273 7 3 1193 c2 656 7 1196 11 1201 5 4 1619
9 3588 11 l3579 2 0 1775 0 1775 -3600 0 -3600 0 0 -6400z m6786 3682 c159
-63 211 -265 105 -407 -25 -34 -27 -41 -14 -50 24 -18 0 -52 -48 -67 -33 -9
-47 -9 -72 2 -36 16 -116 15 -165 -1 -47 -15 -97 -4 -117 27 -13 20 -14 28 -4
40 10 12 8 19 -9 37 -37 39 -62 108 -62 171 0 78 16 128 58 176 79 93 205 120
328 72z m-643 2 c52 -18 116 -76 142 -130 60 -126 7 -282 -117 -344 -139 -69
-312 -20 -376 106 -42 84 -38 184 12 267 25 41 43 58 94 84 54 28 75 33 131
33 37 0 88 -7 114 -16z m-5806 -224 c52 -224 51 -200 11 -200 -31 0 -36 4 -41
30 -6 27 -11 30 -42 30 -19 0 -38 0 -42 1 -4 0 -11 -14 -16 -30 -7 -27 -12
-31 -41 -31 l-34 0 14 58 c7 31 26 110 41 175 l27 118 44 -3 45 -3 34 -145z
m373 58 l1 -93 30 38 c23 27 39 37 60 37 16 0 29 -3 29 -6 0 -4 -16 -28 -35
-54 l-34 -47 28 -45 c56 -89 56 -88 17 -88 -30 0 -38 5 -57 40 -26 45 -39 43
-39 -6 0 -31 -2 -34 -30 -34 l-30 0 0 175 0 175 30 0 30 0 0 -92z m1740 -83
l0 -176 -42 1 c-24 1 -54 -1 -68 -5 -43 -11 -77 25 -85 88 -7 58 7 128 30 147
17 14 51 17 83 6 21 -7 22 -5 22 53 l0 61 30 0 30 0 0 -175z m452 83 l3 -92
25 37 c20 30 31 37 58 37 30 0 42 -12 24 -24 -5 -3 -21 -23 -36 -44 l-27 -40
40 -66 41 -66 -35 0 c-30 0 -39 6 -62 43 l-28 42 -3 -42 c-3 -42 -4 -43 -38
-43 l-34 0 0 168 c0 93 3 172 7 175 3 4 19 7 34 7 l28 0 3 -92z m728 27 l0
-66 30 16 c33 17 60 13 85 -11 11 -12 15 -40 15 -120 l0 -104 -30 0 -29 0 -3
92 c-3 83 -5 93 -22 96 -33 7 -46 -25 -46 -110 l0 -78 -30 0 -30 0 0 175 0
175 30 0 30 0 0 -65z m530 4 c0 -58 1 -60 23 -53 76 26 107 -8 107 -118 0 -71
-2 -81 -26 -105 -20 -20 -31 -24 -52 -18 -15 4 -46 6 -69 5 l-43 -1 0 176 0
175 30 0 30 0 0 -61z m-1480 -9 c0 -38 2 -40 30 -40 25 0 30 -4 30 -25 0 -21
-5 -25 -30 -25 l-31 0 3 -67 c3 -66 4 -68 31 -71 21 -3 27 -8 23 -19 -3 -8 -6
-19 -6 -24 0 -16 -73 -10 -92 8 -14 13 -18 31 -18 90 0 66 -2 75 -20 80 -13 3
-20 14 -20 29 0 17 6 24 20 24 17 0 20 7 20 40 0 38 2 40 30 40 28 0 30 -2 30
-40z m-2096 -61 c24 -23 34 -121 17 -172 -15 -44 -59 -66 -97 -48 -14 6 -27
11 -29 11 -3 0 -5 -30 -5 -66 l0 -65 -27 3 -28 3 -3 179 -2 179 37 -5 c21 -3
47 -2 58 3 26 10 55 2 79 -22z m402 21 c8 0 23 -9 34 -20 17 -17 20 -33 20
-121 l0 -101 -32 3 c-18 1 -48 -1 -66 -5 -50 -12 -82 13 -82 64 0 44 20 64 83
81 28 7 37 15 35 27 -5 26 -48 28 -55 3 -6 -25 -51 -29 -60 -5 -13 34 56 90
95 78 8 -2 20 -4 28 -4z m290 0 c39 -15 53 -39 54 -87 l0 -43 -61 0 c-60 0
-60 0 -57 -27 3 -32 44 -46 54 -19 4 10 18 16 35 16 35 0 39 -25 10 -61 -27
-34 -99 -34 -135 0 -23 22 -26 32 -26 96 0 79 20 120 63 128 12 2 25 5 29 6 4
0 19 -4 34 -9z m201 -1 c32 -12 43 -26 43 -56 0 -31 -45 -33 -53 -3 -7 26 -47
27 -47 1 0 -12 12 -23 33 -31 74 -30 97 -83 58 -131 -40 -50 -151 -22 -151 38
0 31 42 32 62 1 9 -14 20 -19 31 -15 31 12 18 37 -28 57 -75 32 -87 107 -22
135 39 17 39 17 74 4z m197 -3 c31 -13 53 -55 38 -71 -14 -14 -50 -3 -55 16
-4 13 -12 20 -24 17 -29 -5 -21 -32 15 -50 73 -36 92 -81 53 -129 -15 -19 -29
-24 -66 -24 -37 0 -51 5 -66 24 -29 36 -25 61 10 61 21 0 30 -6 34 -21 7 -25
40 -22 45 3 2 12 -11 24 -43 39 -74 35 -85 107 -21 135 39 17 40 17 80 0z
m205 3 c17 -6 36 -19 41 -29 6 -10 10 -62 10 -115 l0 -97 -32 3 c-18 1 -48 -1
-66 -5 -50 -12 -82 13 -82 64 0 44 20 64 83 81 28 7 37 15 35 27 -5 25 -45 27
-58 3 -11 -22 -44 -28 -55 -10 -13 21 5 57 37 72 40 20 46 20 87 6z m319 -22
c16 -15 22 -32 22 -64 l0 -43 -61 0 c-60 0 -60 0 -57 -27 3 -32 44 -46 54 -19
9 23 64 21 64 -2 0 -69 -107 -94 -163 -37 -23 23 -24 151 -1 183 32 46 97 50
142 9z m1000 -3 c18 -21 22 -36 22 -98 0 -58 -4 -76 -20 -94 -43 -45 -130 -36
-157 18 -16 32 -17 121 -1 156 26 56 112 66 156 18z m240 8 c8 -10 12 -52 12
-119 l0 -103 -30 0 -30 0 0 90 c0 99 -12 119 -50 85 -17 -15 -20 -31 -20 -97
l0 -78 -30 0 -30 0 0 120 0 120 29 0 c16 0 31 -5 33 -11 2 -6 14 -5 33 5 33
17 63 13 83 -12z m530 -8 c15 -17 22 -38 22 -65 l0 -39 -61 0 c-60 0 -60 0
-57 -27 3 -32 44 -46 54 -19 4 10 18 16 35 16 35 0 40 -29 9 -60 -27 -27 -63
-34 -105 -20 -46 15 -55 34 -55 123 0 64 3 76 23 94 12 11 29 23 37 26 28 11
75 -3 98 -29z m539 12 c7 -6 13 -53 15 -116 l3 -105 -32 -3 -33 -3 0 91 c0 72
-3 92 -15 96 -33 13 -45 -15 -45 -102 l0 -84 -35 0 -35 0 0 120 0 120 35 0
c19 0 35 -4 35 -9 0 -6 12 -3 28 4 28 15 58 12 79 -9z m221 -12 c19 -22 22
-36 22 -120 l0 -95 -42 1 c-24 1 -54 -1 -68 -5 -35 -9 -80 27 -80 64 0 39 19
60 70 75 33 10 46 19 48 35 4 28 -31 29 -51 0 -22 -30 -63 -23 -59 11 10 70
109 91 160 34z m391 25 c36 -13 61 -53 61 -99 l0 -30 -59 0 c-65 0 -73 -5 -64
-38 6 -26 53 -32 53 -7 0 11 11 15 36 15 32 0 35 -2 29 -22 -13 -43 -42 -63
-90 -63 -64 0 -87 27 -93 105 -5 75 11 118 52 136 38 16 36 16 75 3z m204 -3
c15 -8 27 -11 27 -5 0 5 14 9 30 9 l30 0 0 -149 c0 -134 -2 -151 -20 -174 -41
-52 -147 -44 -170 13 -7 16 -9 34 -5 39 10 18 44 12 57 -9 26 -41 78 -15 78
40 0 17 -3 19 -19 10 -36 -19 -78 -12 -100 16 -16 21 -21 41 -21 90 0 72 13
107 44 122 29 14 37 14 69 -2z m285 -22 c19 -22 22 -36 22 -120 l0 -95 -42 1
c-24 1 -54 -1 -68 -5 -34 -9 -80 27 -80 61 0 42 17 62 70 79 37 12 50 22 50
36 0 26 -36 25 -50 -1 -11 -20 -54 -28 -64 -12 -10 16 29 76 54 84 40 11 83 0
108 -28z m-3048 -94 l0 -120 -35 0 -35 0 0 113 c0 63 3 117 7 120 3 4 19 7 35
7 l28 0 0 -120z m2280 63 c19 -91 25 -93 45 -14 17 70 18 71 50 71 l33 0 -24
-82 c-79 -281 -76 -273 -113 -276 -28 -3 -33 -1 -27 14 29 76 29 101 -4 209
-17 59 -34 113 -37 121 -4 10 4 14 29 14 34 0 35 -1 48 -57z m-3610 -4822 c0
-93 -4 -141 -11 -143 -6 -2 -26 -2 -45 0 l-34 4 0 87 c0 130 23 190 73 191 15
0 17 -13 17 -139z m-1120 -596 c8 -39 17 -56 31 -60 24 -8 28 -65 4 -65 -8 0
-15 -9 -15 -20 0 -15 -7 -20 -25 -20 -14 0 -25 -4 -25 -10 0 -5 -4 -10 -10
-10 -5 0 -10 18 -10 40 0 22 -4 40 -10 40 -18 0 -12 124 7 147 25 31 41 18 53
-42z m1864 -256 c46 -21 56 -74 56 -294 0 -206 -7 -267 -34 -293 -25 -25 -224
-9 -275 22 -20 13 -36 138 -35 291 1 272 5 278 201 283 34 1 73 -3 87 -9z
m-832 -163 c43 -18 58 -51 58 -127 0 -55 -3 -64 -30 -89 -39 -36 -30 -36 -648
-31 l-503 3 3 122 3 121 470 5 c259 3 502 6 541 7 45 2 84 -2 106 -11z m3839
-88 c11 -13 25 -34 30 -47 12 -29 2 -87 -18 -106 -20 -21 -126 -20 -147 1 -18
17 -22 94 -6 94 6 0 10 8 10 18 0 10 7 28 16 40 21 31 85 31 115 0z m-3801
-283 c29 -15 30 -18 30 -84 0 -101 -2 -98 89 -93 75 4 79 3 109 -24 30 -27 32
-33 34 -109 4 -169 -22 -262 -80 -281 -18 -5 -41 -18 -52 -26 -15 -14 -21 -14
-30 -3 -7 9 -8 15 -1 20 10 6 -27 75 -41 75 -13 0 -19 -197 -14 -470 11 -493
13 -478 -68 -519 -25 -13 -46 -28 -46 -33 0 -4 -9 -8 -20 -8 -11 0 -23 -7 -26
-15 -5 -13 -73 -15 -525 -15 l-519 0 0 273 c0 255 1 274 20 302 11 17 20 38
20 48 0 28 26 31 65 7 32 -20 35 -25 35 -71 l0 -49 128 0 c70 0 145 -5 167
-10 61 -13 211 -13 300 1 100 16 135 43 142 111 5 45 5 46 -26 53 -30 6 -31 8
-29 58 2 28 -2 52 -7 54 -6 2 -26 12 -45 21 l-35 17 -3 92 c-3 86 -5 94 -29
113 -23 18 -25 27 -24 77 2 91 15 121 59 129 20 4 40 11 43 16 4 6 14 6 26 -1
19 -10 21 -7 26 42 5 61 -6 97 -33 104 -11 3 -20 12 -20 20 0 8 -7 21 -15 30
-9 8 -13 23 -10 33 3 10 1 21 -5 25 -21 13 -9 25 25 25 30 0 38 -5 48 -29 10
-23 16 -28 27 -21 8 6 29 10 45 10 59 1 75 10 75 45 0 52 23 65 138 73 13 1
36 -5 52 -13z m-853 -170 c19 -19 10 -59 -17 -83 -14 -12 -20 -29 -20 -60 0
-35 -4 -44 -22 -51 -13 -5 -35 -4 -51 2 -23 8 -31 6 -42 -9 -8 -11 -15 -29
-15 -41 0 -12 -4 -24 -9 -28 -5 -3 -12 -36 -16 -73 -10 -114 -14 -130 -35
-137 -11 -4 -20 -12 -20 -20 0 -12 -21 -25 -39 -25 -10 0 -23 367 -15 398 4
12 12 22 20 22 7 0 14 12 16 27 2 19 10 29 23 31 53 8 67 14 77 37 10 23 17
25 80 25 49 0 74 -5 85 -15z m4652 -40 c16 -8 31 -25 35 -37 9 -36 7 -241 -3
-257 -14 -22 -179 -18 -201 5 -5 5 3 32 18 62 23 48 25 56 13 85 -7 18 -13 40
-13 51 1 34 44 83 81 93 20 6 37 11 39 12 2 0 16 -6 31 -14z m-4313 -200 c3
-14 1 -84 -6 -155 -6 -71 -10 -133 -7 -137 11 -19 -13 -53 -38 -53 -22 0 -25
4 -25 34 0 25 5 36 18 39 10 2 4 7 -18 11 -47 10 -66 39 -84 127 -19 90 -13
102 79 141 56 24 74 22 81 -7z m1338 -39 l34 -14 4 -94 c5 -141 4 -920 -2
-942 -3 -11 -16 -31 -28 -45 -23 -25 -27 -26 -140 -25 -65 0 -131 4 -147 8
-59 15 -60 20 -60 556 l0 485 23 30 c13 17 35 35 50 42 39 17 224 16 266 -1z
m2969 -237 c2 -2 13 -20 24 -39 20 -32 21 -53 25 -276 2 -165 0 -245 -8 -255
-6 -8 -17 -35 -25 -61 -7 -27 -18 -48 -24 -48 -13 0 -87 77 -103 107 -7 12
-12 60 -12 107 0 51 -4 86 -10 86 -5 0 -10 7 -10 15 0 8 5 15 10 15 6 0 10 27
10 60 0 33 -4 60 -9 60 -4 0 -13 39 -19 86 -15 111 -5 137 53 144 44 6 93 5
98 -1z m341 -859 c71 -6 142 -17 159 -24 28 -12 -37 -14 -458 -14 -497 0 -673
5 -658 19 22 21 754 35 957 19z"/>
<path d="M6613 9773 c-20 -4 -23 -11 -23 -51 l0 -47 85 0 85 0 0 46 c0 40 -3
48 -22 53 -25 6 -90 6 -125 -1z"/>
<path d="M2040 5892 c0 -253 2 -291 16 -296 8 -3 69 -3 135 1 l119 6 0 77 c0
84 -7 96 -53 102 -15 2 -37 12 -47 21 -11 9 -28 17 -36 17 -9 0 -25 10 -35 22
-22 24 -25 68 -6 68 35 0 47 34 47 132 0 91 -1 97 -25 112 -14 9 -45 19 -70
23 l-45 6 0 -291z"/>
</g>
</svg>
