<?xml version="1.0" standalone="no"?>
<!DOCTYPE svg PUBLIC "-//W3C//DTD SVG 20010904//EN"
 "http://www.w3.org/TR/2001/REC-SVG-20010904/DTD/svg10.dtd">
<svg version="1.0" xmlns="http://www.w3.org/2000/svg"
 width="720.000000pt" height="1280.000000pt" viewBox="0 0 720.000000 1280.000000"
 preserveAspectRatio="xMidYMid meet">
<metadata>
Created by potrace 1.16, written by Peter Selinger 2001-2019
</metadata>
<g transform="translate(0.000000,1280.000000) scale(0.100000,-0.100000)"
fill="#000000" stroke="none">
<path d="M0 6400 l0 -6400 3600 0 3600 0 0 1025 0 1025 -450 0 c-248 0 -449 3
-448 7 1 5 -20 48 -47 96 -49 86 -62 111 -140 252 -22 39 -60 106 -87 150 -26
44 -63 111 -82 149 -19 37 -41 76 -49 85 -8 9 -32 50 -53 91 -21 41 -42 77
-46 80 -4 3 -15 21 -23 40 -9 19 -38 73 -65 120 -27 47 -64 115 -84 152 -20
36 -41 70 -47 73 -6 4 -24 35 -40 68 -15 33 -32 63 -36 66 -4 3 -23 35 -41 71
-18 36 -52 99 -75 140 -24 41 -51 91 -62 110 -11 19 -23 37 -26 40 -4 3 -18
29 -33 58 -15 29 -42 76 -60 105 -19 29 -44 75 -57 102 -13 28 -26 52 -29 55
-3 3 -35 57 -70 120 -35 63 -67 117 -70 120 -3 3 -27 43 -52 90 -64 119 -89
163 -99 176 -6 7 -23 38 -40 70 -52 101 -68 129 -78 140 -5 7 -17 27 -26 45
-8 19 -31 60 -50 93 -19 32 -35 65 -35 73 0 12 -8 14 -37 8 -21 -4 -50 -13
-66 -22 -23 -11 -56 -13 -160 -9 -73 2 -143 6 -157 9 -31 4 -163 68 -172 82
-4 7 -26 20 -50 30 -24 10 -51 25 -60 33 -28 24 -38 6 -31 -59 4 -40 1 -79
-10 -122 -9 -34 -18 -73 -19 -87 -3 -23 -7 -25 -43 -22 -31 2 -321 58 -457 87
-9 2 -38 6 -65 10 -26 3 -79 13 -118 21 -140 29 -162 33 -275 54 -63 12 -158
30 -210 41 -52 11 -131 26 -175 34 -101 18 -301 55 -555 104 -52 10 -133 26
-180 35 -47 9 -116 23 -155 31 -38 8 -142 28 -230 44 -348 65 -632 119 -740
141 -27 5 -138 26 -245 46 -107 20 -233 44 -280 53 l-85 17 -3 346 -2 346 25
6 c16 4 42 -1 72 -15 92 -42 96 -53 103 -289 3 -107 9 -201 13 -207 5 -8 29
-13 59 -13 l51 0 -6 208 c-6 194 -8 210 -31 258 -14 28 -43 67 -66 87 -40 34
-84 47 -200 61 -12 1 -15 27 -18 150 l-3 148 33 -5 c44 -7 265 -52 353 -72 39
-9 104 -22 145 -30 93 -18 277 -56 435 -90 66 -14 143 -30 170 -35 28 -5 120
-23 205 -41 85 -17 175 -35 200 -40 25 -4 169 -33 320 -65 151 -31 295 -60
320 -65 25 -4 108 -21 185 -38 77 -17 187 -40 245 -51 58 -10 137 -26 175 -35
39 -9 90 -20 115 -24 213 -42 352 -71 359 -75 5 -3 11 7 14 22 5 31 40 129 68
189 10 23 19 45 19 48 0 20 55 113 63 108 6 -3 7 -1 3 5 -7 11 91 206 132 261
30 40 33 98 7 138 -10 15 -21 41 -26 57 -4 17 -11 41 -14 54 -7 20 -4 22 28
22 38 0 73 -31 96 -87 l12 -30 86 84 c83 79 133 111 243 154 41 16 306 19 330
4 8 -6 38 -15 65 -21 28 -6 72 -20 99 -30 41 -16 50 -17 54 -5 2 8 159 323
347 700 188 377 348 703 355 723 14 37 10 104 -20 348 -4 36 -13 119 -20 185
-6 66 -16 128 -21 137 -18 35 -23 100 -8 109 15 10 122 12 155 3 21 -6 24 -21
54 -314 4 -41 13 -87 20 -101 11 -25 15 -19 92 132 l80 158 -7 65 -7 66 811 0
811 0 0 1775 0 1775 -3600 0 -3600 0 0 -6400z m6796 3680 c151 -69 198 -267
95 -405 -25 -34 -27 -41 -14 -50 14 -10 14 -14 -2 -38 -22 -35 -90 -46 -136
-23 -33 16 -80 14 -147 -6 -47 -14 -99 -2 -118 28 -13 20 -14 27 -4 39 11 13
9 19 -8 38 -85 90 -82 268 6 360 77 81 220 106 328 57z m-653 4 c29 -10 64
-34 92 -62 124 -125 89 -333 -68 -412 -133 -66 -310 -20 -370 96 -47 91 -44
191 7 276 25 43 43 59 94 85 54 28 75 33 131 33 37 0 88 -7 114 -16z m-5802
-244 c21 -91 39 -168 39 -172 0 -5 -15 -8 -33 -8 -28 0 -34 4 -42 32 -9 29
-14 32 -50 31 -36 0 -40 -3 -47 -31 -8 -28 -13 -32 -42 -32 l-34 0 14 58 c7
31 26 110 41 175 l27 118 44 -3 45 -3 38 -165z m369 78 l1 -93 30 38 c23 27
39 37 60 37 16 0 29 -3 29 -6 0 -4 -16 -28 -35 -53 -30 -41 -33 -50 -21 -67 7
-10 25 -40 40 -66 l27 -48 -35 0 c-30 0 -38 5 -57 40 -26 45 -39 43 -39 -6 0
-31 -2 -34 -30 -34 l-30 0 0 175 0 175 30 0 30 0 0 -92z m1740 -83 l0 -176
-42 1 c-24 1 -55 -1 -69 -5 -19 -5 -33 -1 -55 18 -28 24 -29 29 -28 107 1 68
4 85 21 102 22 21 54 27 91 14 21 -7 22 -5 22 53 l0 61 30 0 30 0 0 -175z
m452 83 l3 -92 25 37 c20 30 31 37 58 37 30 0 42 -12 24 -24 -5 -3 -21 -23
-36 -44 l-27 -40 40 -66 41 -66 -34 0 c-28 0 -38 7 -62 43 l-29 42 -3 -42 c-3
-42 -4 -43 -38 -43 l-34 0 0 175 0 175 35 0 34 0 3 -92z m728 27 l0 -66 30 16
c33 17 60 13 85 -11 11 -12 15 -40 15 -120 l0 -104 -30 0 -30 0 0 90 c0 75 -3
92 -16 97 -37 14 -49 -10 -52 -101 l-3 -86 -29 0 -30 0 0 175 0 175 30 0 30 0
0 -65z m530 4 c0 -58 1 -60 23 -53 76 26 107 -8 107 -118 0 -71 -2 -81 -26
-105 -20 -20 -31 -24 -52 -18 -15 4 -46 6 -69 5 l-43 -1 0 176 0 175 30 0 30
0 0 -61z m-1480 -9 c0 -38 2 -40 30 -40 25 0 30 -4 30 -25 0 -21 -5 -25 -30
-25 l-31 0 3 -67 c3 -66 4 -68 31 -71 21 -3 27 -8 23 -19 -3 -8 -6 -19 -6 -24
0 -16 -73 -10 -92 8 -14 13 -18 31 -18 90 0 66 -2 75 -20 80 -13 3 -20 14 -20
29 0 17 6 24 20 24 16 0 20 7 20 33 0 40 6 47 37 47 20 0 23 -5 23 -40z
m-2096 -61 c24 -23 34 -121 17 -172 -15 -44 -59 -66 -97 -48 -14 6 -27 11 -29
11 -3 0 -5 -30 -5 -66 l0 -65 -27 3 -28 3 -3 179 -2 179 37 -5 c21 -3 47 -2
58 3 26 10 55 2 79 -22z m405 20 c44 -16 51 -35 51 -143 l0 -96 -47 -1 c-27 0
-60 -1 -75 -1 -40 -1 -58 19 -58 63 0 43 20 63 83 80 28 7 37 15 35 27 -5 26
-48 28 -55 3 -4 -14 -13 -21 -29 -21 -65 0 -15 96 52 99 6 1 25 -4 43 -10z
m290 0 c38 -14 51 -35 51 -88 l0 -41 -61 0 c-60 0 -60 0 -57 -27 3 -32 44 -46
54 -19 4 10 18 16 35 16 35 0 39 -25 10 -61 -15 -19 -29 -24 -66 -24 -39 0
-51 5 -71 28 -20 24 -24 39 -24 96 0 75 21 116 63 124 12 2 25 5 28 6 3 0 20
-4 38 -10z m198 0 c32 -12 43 -26 43 -56 0 -31 -45 -33 -53 -3 -7 26 -47 27
-47 1 0 -11 12 -23 30 -31 78 -32 101 -82 61 -131 -15 -19 -29 -24 -66 -24
-37 0 -51 5 -66 24 -29 36 -25 61 11 61 24 0 30 -4 30 -21 0 -15 5 -20 22 -17
40 5 31 32 -19 58 -91 48 -80 135 19 149 4 1 19 -4 35 -10z m191 0 c29 -10 59
-59 45 -73 -15 -15 -51 -5 -56 15 -4 13 -12 20 -24 17 -29 -5 -21 -32 15 -50
73 -36 92 -81 53 -129 -15 -19 -29 -24 -66 -24 -37 0 -51 5 -66 24 -29 36 -25
61 10 61 21 0 30 -6 34 -21 7 -25 40 -22 45 3 2 12 -11 24 -43 39 -74 35 -86
106 -22 134 39 17 37 17 75 4z m211 0 c17 -6 36 -19 41 -29 6 -10 10 -62 10
-115 l0 -97 -32 3 c-18 1 -48 -1 -66 -5 -50 -12 -82 13 -82 64 0 44 20 64 83
81 28 7 37 15 35 27 -5 25 -45 27 -58 3 -13 -24 -48 -28 -56 -6 -8 20 21 64
49 75 30 12 39 12 76 -1z m318 -21 c17 -16 23 -33 23 -65 l0 -43 -61 0 c-60 0
-60 0 -57 -27 3 -32 44 -46 54 -19 8 20 64 22 64 2 0 -69 -102 -98 -158 -45
-19 17 -22 31 -22 98 0 68 3 80 23 98 12 11 29 23 37 26 25 10 73 -2 97 -25z
m1001 -4 c18 -21 22 -36 22 -98 0 -65 -3 -75 -26 -97 -35 -33 -104 -34 -136
-2 -27 28 -37 127 -17 174 24 60 111 73 157 23z m240 8 c8 -10 12 -52 12 -119
l0 -103 -30 0 -30 0 0 90 c0 75 -3 92 -17 97 -32 12 -53 -32 -53 -113 l0 -74
-30 0 -30 0 0 120 0 120 29 0 c16 0 31 -5 33 -11 2 -6 14 -5 33 5 33 17 63 13
83 -12z m529 -4 c17 -16 23 -33 23 -65 l0 -43 -61 0 c-60 0 -60 0 -57 -27 3
-32 44 -46 54 -19 4 10 18 16 35 16 22 0 29 -5 29 -20 0 -42 -64 -79 -115 -66
-52 13 -65 39 -65 124 0 69 3 81 23 99 12 11 29 23 37 26 25 10 73 -2 97 -25z
m540 8 c6 -6 13 -57 16 -118 l5 -108 -34 0 -34 0 0 90 c0 72 -3 92 -15 96 -33
13 -45 -15 -45 -102 l0 -84 -35 0 -35 0 0 120 0 120 35 0 c19 0 35 -4 35 -9 0
-6 12 -3 28 4 28 15 58 12 79 -9z m218 -7 c17 -16 21 -35 23 -120 l4 -100 -44
1 c-23 1 -54 -1 -68 -5 -35 -9 -80 27 -80 64 0 39 19 60 70 75 33 10 46 19 48
35 4 28 -33 29 -50 1 -12 -19 -48 -27 -60 -14 -15 14 11 60 43 77 40 20 84 15
114 -14z m400 16 c37 -15 55 -46 55 -96 0 -29 0 -29 -59 -29 -65 0 -73 -5 -64
-38 6 -26 53 -32 53 -7 0 11 11 15 36 15 32 0 35 -2 29 -22 -4 -13 -18 -34
-33 -47 -21 -19 -33 -22 -65 -18 -59 8 -80 35 -85 107 -5 75 11 118 52 136 39
17 40 17 81 -1z m198 1 c15 -8 27 -11 27 -5 0 5 14 9 31 9 l30 0 -3 -154 c-3
-134 -5 -157 -22 -175 -42 -46 -144 -35 -166 19 -7 16 -9 34 -5 39 10 18 44
12 57 -9 27 -42 78 -15 78 41 0 18 -3 20 -12 11 -7 -7 -29 -12 -49 -12 -56 0
-79 34 -79 116 0 72 13 107 44 122 29 14 37 14 69 -2z m285 -22 c19 -22 22
-36 22 -120 l0 -95 -42 1 c-24 1 -55 -1 -70 -5 -21 -6 -32 -2 -52 18 -48 48
-29 99 44 121 33 10 46 19 48 35 4 28 -33 29 -50 1 -12 -19 -48 -27 -60 -14
-15 14 11 60 43 77 43 22 86 16 117 -19z m-3048 -94 l0 -120 -35 0 -35 0 0
113 c0 63 3 117 7 120 3 4 19 7 35 7 l28 0 0 -120z m2271 103 c0 -10 8 -43 18
-73 l17 -55 19 73 c18 70 20 72 51 72 l32 0 -24 -82 c-79 -281 -76 -273 -113
-276 -28 -3 -33 -1 -27 14 29 76 29 101 -4 209 -17 59 -34 113 -37 121 -4 10
4 14 31 14 27 0 36 -4 37 -17z m-4380 -863 c23 0 49 -42 49 -79 0 -42 15 -60
63 -76 35 -12 53 -35 44 -59 -5 -12 -19 -16 -52 -16 l-46 0 3 -169 c3 -187 9
-203 70 -216 36 -8 60 -51 37 -66 -39 -25 -138 8 -183 61 -32 39 -35 60 -39
255 l-2 160 -53 25 c-83 40 -84 80 -1 80 l49 0 0 43 c0 46 15 71 38 62 8 -3
18 -5 23 -5z m350 -219 c22 -18 23 -25 29 -203 4 -153 8 -189 23 -211 25 -39
58 -57 113 -63 39 -4 56 -1 83 16 l33 21 -3 187 -4 187 30 3 c17 1 40 -6 53
-16 22 -17 23 -25 32 -262 6 -169 6 -247 -2 -251 -14 -9 -76 6 -96 24 -13 12
-32 14 -79 10 -74 -7 -170 22 -216 66 -59 54 -67 85 -78 297 -5 107 -7 199 -4
204 10 17 61 11 86 -9z m854 -197 c31 -21 45 -24 77 -19 69 12 180 -24 239
-78 72 -65 119 -218 100 -323 -14 -74 -38 -115 -81 -136 -50 -26 -114 -22
-195 11 -38 16 -74 27 -78 24 -5 -3 -7 -42 -6 -88 1 -45 -1 -87 -5 -94 -11
-17 -72 -13 -87 5 -14 17 -20 101 -34 505 -4 108 -4 202 -1 208 11 17 30 13
71 -15z m777 -165 c59 -13 130 -59 167 -110 21 -28 25 -49 33 -163 5 -72 15
-165 22 -206 8 -41 10 -79 6 -83 -11 -13 -83 10 -102 32 -14 17 -22 18 -50 10
-55 -15 -110 -10 -168 17 -92 42 -150 115 -150 186 0 50 20 79 73 105 47 24
48 24 137 9 144 -25 149 -22 110 59 -35 72 -145 101 -194 52 -45 -45 -121 -26
-114 29 7 64 102 90 230 63z m361 -91 c18 -13 83 -158 97 -216 4 -18 13 -39
19 -46 7 -8 17 -33 24 -57 16 -54 29 -58 49 -17 20 43 50 136 54 168 2 14 10
42 19 63 13 31 20 37 44 37 16 0 39 -9 52 -19 20 -16 22 -22 13 -42 -9 -20
-55 -154 -105 -309 -6 -19 -17 -48 -25 -63 -8 -16 -14 -39 -14 -52 0 -13 -4
-26 -9 -29 -5 -3 -12 -20 -15 -38 -7 -35 -40 -79 -74 -97 -49 -26 -144 -3
-155 38 -7 27 11 41 54 41 55 0 81 26 86 86 4 40 0 62 -21 106 -14 30 -26 61
-26 69 0 8 -6 23 -13 34 -8 11 -24 48 -37 83 -12 34 -27 65 -31 68 -5 3 -9 16
-9 29 0 13 -4 27 -10 30 -7 5 -50 124 -50 141 0 10 68 3 83 -8z m1045 -39 c12
-5 22 -12 22 -16 0 -5 11 -161 25 -348 14 -187 25 -341 25 -342 0 -7 -77 -2
-88 6 -19 12 -39 220 -59 599 l-6 123 29 -7 c16 -4 39 -11 52 -15z m-395 -106
c56 -13 78 -25 121 -64 65 -60 73 -84 86 -273 6 -93 16 -161 25 -179 8 -17 15
-32 15 -34 0 -1 -18 -3 -39 -3 -27 0 -49 7 -67 24 -24 20 -32 22 -68 14 -78
-18 -185 13 -237 69 -32 33 -69 105 -69 131 0 40 23 82 57 103 31 20 43 21
116 14 152 -13 152 -13 149 15 -9 67 -55 109 -125 117 -39 5 -51 2 -77 -21
-34 -28 -60 -32 -91 -16 -21 12 -25 47 -6 70 41 53 96 61 210 33z m-3277 -499
c25 -12 37 -27 50 -62 9 -26 25 -67 35 -91 11 -24 19 -52 19 -63 0 -10 7 -33
16 -50 9 -17 22 -52 30 -79 8 -27 18 -49 22 -49 13 0 62 90 62 113 0 12 6 31
14 42 7 11 16 32 20 47 3 15 10 37 15 50 5 13 8 26 7 29 0 4 7 16 17 27 15 16
24 18 53 12 60 -14 83 -51 49 -80 -8 -7 -15 -19 -15 -26 0 -7 -9 -29 -20 -49
-11 -20 -20 -46 -20 -60 0 -13 -4 -26 -9 -30 -5 -3 -19 -34 -31 -70 -12 -36
-26 -67 -31 -70 -5 -4 -9 -15 -9 -26 0 -10 -9 -36 -20 -56 -11 -21 -20 -45
-20 -55 0 -9 -4 -19 -9 -23 -5 -3 -12 -19 -16 -36 -4 -17 -26 -51 -49 -75 -39
-40 -47 -44 -90 -44 -25 0 -63 7 -82 15 -30 12 -35 19 -32 42 3 26 8 29 61 38
76 13 97 37 97 112 0 33 -7 68 -19 91 -10 20 -24 57 -31 82 -7 25 -15 47 -20
50 -4 3 -14 28 -23 55 -8 28 -25 75 -37 105 -12 30 -30 75 -40 100 -9 25 -21
53 -25 64 -5 12 -3 21 6 27 20 13 37 11 75 -7z m768 -159 c84 -22 149 -79 192
-169 36 -75 47 -169 22 -179 -7 -2 -65 7 -128 20 -240 51 -250 52 -250 14 0
-28 54 -106 93 -133 40 -29 154 -38 186 -16 43 30 107 -6 90 -49 -4 -13 -15
-23 -23 -23 -8 0 -16 -5 -18 -12 -3 -7 -32 -14 -75 -16 -188 -11 -350 118
-375 299 -12 86 -3 132 39 197 48 74 133 97 247 67z m883 -192 c63 -17 135
-70 156 -115 19 -41 37 -166 37 -263 0 -41 7 -100 15 -132 9 -35 11 -61 6 -66
-14 -14 -76 1 -95 22 -15 17 -27 19 -91 14 -91 -7 -188 23 -233 71 -54 58 -75
108 -67 161 14 95 86 127 231 101 124 -22 118 -23 110 26 -17 103 -145 155
-216 88 -39 -36 -63 -38 -95 -6 -27 28 -25 49 9 80 53 47 114 52 233 19z
m1016 -110 c9 -9 17 -29 17 -44 0 -48 19 -77 56 -84 33 -6 54 -29 54 -59 0
-12 -11 -16 -46 -16 l-47 0 6 -152 c3 -84 8 -164 11 -177 8 -33 32 -58 65 -64
20 -4 31 -14 35 -32 14 -57 -32 -66 -114 -25 -81 41 -93 75 -108 311 -5 74
-14 145 -21 157 -7 13 -25 24 -47 28 -23 4 -38 14 -43 28 -13 34 -2 45 47 48
l47 3 1 41 c1 23 5 47 9 53 9 15 53 6 78 -16z m-448 -14 c78 -20 88 -25 134
-73 57 -62 67 -95 75 -276 3 -63 12 -139 19 -168 12 -46 12 -54 1 -59 -24 -9
-80 7 -100 28 -14 15 -25 18 -48 13 -138 -30 -295 50 -326 167 -10 37 -9 50 7
89 31 76 109 96 248 66 92 -19 102 -8 65 70 -17 33 -31 46 -71 64 -59 25 -96
21 -129 -16 -29 -30 -72 -32 -100 -4 -27 27 -25 46 5 72 60 52 100 57 220 27z
m759 -169 c17 -6 27 -19 31 -42 6 -40 25 -351 25 -430 l0 -58 -33 0 c-69 0
-69 1 -87 279 -8 138 -13 256 -11 262 3 11 28 7 75 -11z m-2561 -1839 c23 -9
26 -17 31 -83 3 -40 8 -222 11 -405 5 -324 4 -332 -15 -338 -11 -3 -40 3 -67
15 -39 17 -59 20 -108 15 -59 -6 -147 9 -193 34 -39 21 -110 114 -133 175 -19
50 -23 78 -22 150 3 105 20 156 70 208 29 30 46 38 88 43 66 9 154 -9 199 -40
26 -17 37 -21 44 -12 5 7 8 65 6 130 l-4 117 35 0 c18 0 45 -4 58 -9z m1609
-309 c6 -6 13 -60 15 -119 2 -59 9 -118 15 -131 11 -20 13 -21 34 -7 25 16 82
13 164 -8 67 -18 140 -95 175 -187 50 -130 33 -290 -37 -362 -30 -31 -37 -33
-108 -35 -67 -2 -82 1 -140 30 -69 34 -70 35 -112 23 -37 -11 -66 8 -72 47 -5
33 -22 372 -32 626 l-6 144 47 -5 c26 -3 52 -11 57 -16z m-1117 -14 c58 -14
118 -52 162 -102 79 -90 121 -269 81 -346 -10 -19 -18 -40 -18 -47 0 -20 -50
-72 -88 -90 -26 -13 -59 -18 -107 -17 -187 3 -331 153 -349 362 -5 55 -4 82 3
82 6 0 13 12 17 28 15 66 71 118 154 145 18 6 91 -2 145 -15z m710 -143 c85
-41 134 -95 177 -195 32 -76 36 -153 13 -235 -17 -56 -41 -88 -92 -123 -53
-37 -187 -27 -281 22 -42 22 -115 106 -146 170 -70 142 -28 320 89 382 46 24
171 13 240 -21z m1508 -269 c80 -24 171 -120 165 -174 -3 -23 -8 -27 -39 -30
-25 -2 -40 3 -54 18 -10 11 -15 20 -11 20 20 0 -38 58 -77 78 -52 26 -84 28
-115 6 -46 -32 -12 -112 57 -132 68 -21 187 -90 224 -132 28 -30 37 -50 42
-95 6 -48 4 -61 -12 -82 -47 -64 -143 -80 -255 -42 -82 27 -123 57 -164 120
-37 55 -41 92 -11 97 36 7 64 -8 91 -50 39 -61 88 -90 163 -96 l61 -5 7 46 c9
56 -12 90 -65 108 -19 7 -51 22 -70 34 -19 12 -46 25 -60 28 -14 4 -46 22 -71
41 -37 27 -51 46 -64 85 -25 76 -6 130 60 170 24 14 130 8 198 -13z m-3078
-831 c59 -7 155 -41 155 -55 0 -3 11 -13 25 -20 26 -14 77 -86 109 -155 11
-24 21 -72 24 -122 4 -70 1 -91 -18 -134 -26 -61 -79 -122 -121 -139 -40 -17
-208 -8 -220 11 -5 8 -9 10 -9 6 0 -10 -31 6 -92 47 l-47 31 -1 235 c0 129 3
245 6 258 4 14 14 22 28 22 11 1 32 7 46 15 14 8 32 12 40 10 8 -2 42 -6 75
-10z m536 -104 l24 -19 8 -350 c9 -344 9 -350 -12 -390 -32 -62 -59 -76 -133
-68 -73 7 -88 18 -88 61 0 31 2 33 50 39 31 4 53 13 59 24 6 10 7 152 4 369
l-6 353 35 0 c20 0 46 -8 59 -19z m536 -82 c56 -27 120 -93 133 -137 6 -21 14
-107 16 -192 3 -85 11 -180 19 -210 7 -30 15 -62 17 -70 5 -25 -102 -18 -123
9 -12 14 -24 19 -40 15 -13 -3 -55 -8 -94 -11 -62 -5 -77 -2 -126 21 -93 44
-149 121 -149 203 0 63 29 106 93 137 50 24 56 25 147 16 139 -14 140 -14 140
13 0 12 -9 41 -19 64 -21 45 -78 83 -126 83 -32 0 -90 -24 -101 -42 -14 -21
-52 -38 -71 -31 -27 9 -53 34 -53 51 0 25 61 92 93 102 49 15 195 2 244 -21z
m684 -116 c15 -15 28 -138 34 -313 2 -96 7 -223 11 -281 7 -123 -5 -178 -48
-214 -25 -21 -35 -23 -81 -18 -75 9 -94 18 -100 49 -7 41 0 51 40 52 20 1 45
9 56 19 19 17 19 26 13 233 -4 118 -8 229 -11 245 -3 27 -7 184 -6 229 1 16 7
18 42 13 23 -3 45 -9 50 -14z m1233 -65 c25 -11 32 -29 38 -103 3 -26 9 -32
50 -44 46 -14 58 -29 58 -73 0 -14 -8 -18 -37 -18 -50 0 -67 -12 -60 -41 3
-13 9 -80 12 -149 3 -69 11 -148 17 -177 9 -45 15 -54 43 -65 32 -13 32 -14
21 -48 -14 -44 -45 -49 -100 -18 -63 36 -76 69 -87 220 -6 73 -13 171 -17 218
l-7 85 -49 12 c-52 13 -66 25 -66 59 0 29 6 32 50 24 50 -9 60 1 60 65 0 29 3
55 7 58 10 10 39 8 67 -5z m-703 -22 c116 -55 209 -209 209 -344 0 -135 -70
-240 -169 -253 -58 -8 -183 14 -224 40 -55 34 -105 94 -139 166 -74 158 -37
340 81 397 46 23 189 19 242 -6z m-1372 -963 c18 -16 21 -30 22 -133 l1 -115
-58 0 -59 0 -3 133 -3 132 40 0 c22 0 48 -7 60 -17z m689 -110 c6 -9 12 -41
12 -70 0 -29 0 -56 0 -60 0 -5 -26 -8 -57 -8 l-58 0 -3 69 c-5 94 -1 100 51
92 23 -4 48 -14 55 -23z m-1638 -8 c24 -26 80 -35 80 -14 0 16 169 6 200 -12
39 -22 110 -91 104 -100 -3 -5 -39 -9 -81 -9 -59 0 -78 4 -88 17 -15 21 -103
23 -115 3 -6 -10 -36 -14 -107 -14 l-98 -1 -3 63 c-5 84 -1 92 46 92 28 0 45
-7 62 -25z"/>
<path d="M6613 9773 c-20 -4 -23 -11 -23 -51 l0 -47 85 0 85 0 0 46 c0 40 -3
48 -22 53 -25 6 -90 6 -125 -1z"/>
<path d="M1705 8476 c-14 -20 -15 -43 -9 -138 4 -62 13 -125 20 -140 19 -36
73 -68 131 -74 43 -6 51 -3 75 21 53 53 60 127 22 227 -35 91 -82 128 -166
128 -50 0 -60 -3 -73 -24z"/>
<path d="M2333 8150 c-44 -26 -44 -66 -3 -113 22 -26 40 -36 74 -40 83 -12
135 19 135 78 0 54 -32 79 -119 89 -45 5 -61 3 -87 -14z"/>
<path d="M3343 7916 c-28 -24 -31 -30 -22 -54 15 -42 43 -70 88 -88 36 -14 48
-15 81 -4 44 15 63 43 58 91 -2 28 -10 37 -38 51 -19 9 -58 20 -86 23 -45 6
-53 4 -81 -19z"/>
<path d="M840 7469 c-50 -20 -87 -87 -57 -106 21 -14 242 -61 250 -53 17 15
-5 80 -38 112 -51 49 -106 66 -155 47z"/>
<path d="M1710 7073 c-27 -10 -60 -46 -60 -65 0 -10 17 -37 38 -59 81 -87 212
-62 212 39 0 48 -27 71 -95 82 -66 11 -73 11 -95 3z"/>
<path d="M2265 6925 c-34 -33 -31 -58 10 -104 26 -28 47 -41 75 -46 43 -7 107
10 128 35 13 16 9 97 -6 112 -10 10 -104 28 -149 28 -23 0 -42 -8 -58 -25z"/>
<path d="M269 4925 c-43 -23 -72 -106 -67 -185 10 -130 80 -214 188 -225 50
-5 58 -3 85 21 l30 27 -3 126 c-1 69 -5 138 -8 152 -3 15 -24 40 -53 62 -41
31 -56 37 -97 37 -27 -1 -61 -7 -75 -15z"/>
<path d="M2265 4562 c-16 -10 -33 -21 -37 -27 -4 -5 -8 -59 -8 -120 0 -89 4
-119 20 -154 29 -63 72 -94 151 -105 38 -6 49 -3 71 16 55 49 62 200 14 302
-43 91 -135 130 -211 88z"/>
<path d="M954 4810 c-12 -5 -32 -23 -45 -42 -20 -27 -25 -48 -27 -119 -5 -102
13 -151 77 -213 36 -35 47 -40 99 -44 63 -4 122 16 122 43 0 7 7 21 16 30 13
12 16 35 15 103 -1 91 -18 140 -63 189 -49 52 -137 76 -194 53z"/>
<path d="M1608 4683 c-36 -18 -68 -89 -68 -147 0 -85 19 -142 63 -192 47 -53
88 -74 148 -74 33 0 47 6 74 33 47 47 59 101 45 189 -21 122 -101 209 -191
207 -24 -1 -56 -8 -71 -16z"/>
<path d="M138 3554 c-15 -8 -39 -35 -54 -60 -24 -41 -27 -55 -25 -131 1 -71 5
-92 27 -128 60 -104 153 -147 235 -109 21 9 42 26 45 38 4 11 14 26 22 32 12
9 16 32 16 106 0 89 -2 98 -33 147 -40 67 -57 83 -103 104 -44 21 -94 21 -130
1z"/>
<path d="M1105 3158 c-11 -7 -26 -17 -32 -24 -16 -15 -17 -70 -3 -79 6 -4 8
-10 5 -15 -3 -5 12 -22 32 -39 32 -26 46 -31 94 -31 30 0 59 3 63 8 4 4 13 7
19 7 17 0 47 65 47 101 0 47 -19 63 -85 74 -78 13 -115 12 -140 -2z"/>
<path d="M2328 3184 c-16 -8 -38 -33 -49 -57 -31 -60 -23 -190 17 -261 70
-124 223 -144 279 -36 19 36 20 187 3 227 -49 111 -169 172 -250 127z"/>
<path d="M7163 8157 c-12 -6 -41 -24 -65 -38 -24 -14 -153 -88 -288 -164 -293
-165 -353 -203 -347 -218 18 -46 63 -151 83 -197 13 -30 30 -73 38 -95 42
-121 62 -165 77 -170 9 -3 74 6 144 20 69 14 132 25 139 25 8 0 16 -20 20 -52
3 -29 12 -86 19 -126 13 -71 13 -73 -7 -76 -12 -3 -46 -9 -76 -15 -30 -6 -70
-13 -89 -16 -51 -8 -62 -20 -49 -58 6 -18 19 -44 30 -59 10 -14 18 -33 18 -41
0 -8 10 -37 21 -66 18 -43 26 -51 48 -51 47 1 62 22 73 105 10 74 41 148 73
175 8 7 15 18 15 24 1 13 106 91 138 100 l22 7 0 500 c0 274 -3 499 -7 499 -5
0 -18 -6 -30 -13z"/>
<path d="M6035 7512 c-55 -32 -201 -116 -325 -186 -382 -218 -432 -247 -428
-251 2 -1 81 -5 176 -9 95 -4 181 -11 190 -15 9 -5 29 -14 44 -21 31 -15 60
-83 48 -115 -4 -11 -23 -33 -41 -50 -28 -24 -44 -30 -96 -33 l-63 -4 -44 43
c-23 24 -47 53 -53 63 -10 18 -15 17 -109 -18 -55 -21 -117 -46 -139 -56 -60
-27 -166 -68 -198 -75 -15 -4 -30 -11 -33 -16 -3 -5 -14 -9 -25 -9 -25 0 -25
-39 0 -72 11 -13 33 -51 50 -84 16 -32 43 -85 59 -116 16 -32 25 -58 21 -58
-5 0 -9 4 -9 9 0 7 -30 40 -88 96 -6 6 -22 21 -35 35 -62 63 -168 135 -181
123 -3 -4 -6 0 -6 8 0 21 -127 62 -165 53 -195 -47 -345 -276 -345 -525 0
-208 69 -391 194 -514 149 -148 342 -198 446 -115 45 35 158 170 180 215 8 17
18 32 21 35 3 3 17 39 30 80 20 62 24 94 23 185 -1 61 -5 129 -9 153 -8 47 -8
47 37 28 66 -28 155 -41 288 -41 142 0 227 16 380 70 103 36 275 122 290 145
3 4 15 10 27 14 12 4 35 22 52 41 17 19 34 35 38 35 8 1 105 128 128 170 45
78 58 121 51 168 -3 25 -10 49 -14 53 -4 4 -47 1 -97 -7 -49 -8 -108 -17 -131
-20 l-41 -6 -22 117 c-12 65 -18 122 -14 126 4 4 49 15 98 25 50 9 119 22 155
29 l65 12 -3 37 c-4 37 -63 144 -112 202 -35 41 -124 104 -146 104 -11 0 -64
-26 -119 -58z"/>
<path d="M550 6307 c-49 -24 -90 -61 -90 -81 1 -61 65 -74 125 -26 68 54 173
27 214 -55 11 -23 21 -47 21 -53 0 -28 -46 -31 -155 -8 -53 11 -69 11 -106 -2
-56 -19 -90 -45 -106 -84 -19 -44 -16 -73 11 -126 55 -107 145 -149 294 -138
57 5 82 4 82 -4 0 -15 63 -40 101 -40 26 0 30 3 24 18 -21 51 -26 89 -30 217
-7 231 -24 278 -116 335 -77 47 -218 72 -269 47z m223 -316 c30 -10 37 -18 43
-46 11 -58 -3 -91 -47 -113 -60 -30 -122 -15 -171 39 -51 56 -48 96 7 126 24
14 118 10 168 -6z"/>
<path d="M2074 6242 c-8 -5 -9 -44 -3 -132 4 -69 13 -237 19 -375 10 -236 12
-251 32 -268 14 -12 34 -17 57 -15 l36 3 -3 78 c-5 106 1 127 37 127 22 0 34
-8 49 -32 49 -78 155 -214 180 -230 26 -17 92 -25 105 -12 3 4 1 12 -6 19 -38
40 -197 263 -197 275 0 6 -6 13 -14 16 -21 8 -28 32 -16 55 13 23 105 111 129
122 9 5 23 18 30 29 12 19 11 23 -5 35 -10 7 -37 13 -60 13 -38 0 -51 -7 -124
-70 -79 -68 -102 -80 -115 -60 -3 5 -10 89 -15 187 -6 98 -12 187 -15 198 -2
12 -18 26 -38 33 -39 14 -48 14 -63 4z"/>
<path d="M1077 6207 c-5 -14 -4 -43 9 -379 l6 -166 37 -9 c20 -5 46 -7 59 -5
21 3 22 7 17 65 -2 34 -7 124 -10 199 l-6 137 28 18 c19 12 43 17 79 16 62 -2
79 12 69 56 -5 25 -14 33 -47 42 -22 5 -58 7 -79 4 -30 -5 -47 -2 -75 14 -40
24 -79 27 -87 8z"/>
<path d="M5800 6213 c-139 -23 -310 -92 -390 -158 -47 -39 -130 -159 -130
-188 0 -8 -5 -17 -11 -19 -5 -2 -13 -22 -16 -46 -4 -28 -11 -43 -22 -44 -9 -1
162 -5 379 -8 380 -5 397 -6 435 -27 40 -21 75 -73 75 -112 0 -10 7 -22 16
-25 8 -3 180 -8 382 -10 202 -3 349 -2 327 2 -39 7 -40 8 -42 52 -10 243 -199
455 -483 542 -117 36 -209 48 -353 47 -78 -1 -153 -4 -167 -6z"/>
<path d="M7076 6078 c-2 -29 -10 -129 -16 -223 -6 -93 -13 -198 -17 -232 l-6
-63 82 0 81 0 0 285 0 285 -59 0 -60 0 -5 -52z"/>
<path d="M1556 6113 c-128 -36 -180 -217 -108 -374 63 -138 173 -212 320 -213
59 -1 74 3 111 27 121 80 122 302 1 443 -35 41 -99 87 -140 101 -40 15 -155
25 -184 16z m201 -120 c105 -80 136 -256 59 -337 -39 -42 -70 -51 -125 -36
-55 15 -100 56 -135 125 -25 50 -28 65 -24 129 3 61 8 79 31 109 15 19 37 38
49 40 47 10 109 -3 145 -30z"/>
<path d="M2690 5858 c-43 -27 -50 -36 -50 -68 0 -38 45 -63 85 -45 17 7 39 22
49 34 23 26 74 28 119 4 37 -19 52 -35 72 -82 27 -61 23 -65 -52 -56 -86 10
-161 10 -192 2 -43 -11 -80 -56 -87 -104 -8 -52 21 -125 65 -167 55 -52 187
-82 264 -61 22 6 33 3 52 -15 21 -20 115 -42 115 -28 0 3 -7 24 -15 47 -8 23
-14 42 -13 44 0 1 -3 54 -7 117 -5 63 -7 125 -6 137 1 13 -5 49 -14 80 -33
113 -145 183 -292 183 -42 0 -68 -6 -93 -22z m257 -298 c24 -9 32 -19 37 -44
22 -117 -115 -168 -206 -75 -48 48 -49 78 -6 114 29 25 38 27 88 22 30 -4 69
-11 87 -17z"/>
<path d="M5229 5678 c0 -7 -3 -25 -5 -41 -3 -17 0 -29 8 -31 7 -3 164 -7 348
-10 l335 -6 2 43 3 44 -182 6 c-301 11 -508 9 -509 -5z"/>
<path d="M3505 5566 c-12 -27 11 -354 25 -372 8 -8 30 -14 57 -14 42 0 45 2
40 23 -3 12 -9 75 -13 140 -4 64 -11 117 -15 117 -5 0 -9 5 -9 11 0 7 -15 26
-34 44 -19 17 -36 40 -38 51 -5 19 -5 19 -13 0z"/>
</g>
</svg>
