<?xml version="1.0" standalone="no"?>
<!DOCTYPE svg PUBLIC "-//W3C//DTD SVG 20010904//EN"
 "http://www.w3.org/TR/2001/REC-SVG-20010904/DTD/svg10.dtd">
<svg version="1.0" xmlns="http://www.w3.org/2000/svg"
 width="720.000000pt" height="1280.000000pt" viewBox="0 0 720.000000 1280.000000"
 preserveAspectRatio="xMidYMid meet">
<metadata>
Created by potrace 1.16, written by Peter Selinger 2001-2019
</metadata>
<g transform="translate(0.000000,1280.000000) scale(0.100000,-0.100000)"
fill="#000000" stroke="none">
<path d="M0 6400 l0 -6400 3600 0 3600 0 0 1025 0 1025 -3590 0 -3590 0 0
3600 0 3600 3590 0 3590 0 0 1775 0 1775 -3600 0 -3600 0 0 -6400z m6797 3678
c51 -24 97 -69 126 -123 16 -30 21 -58 21 -115 0 -79 -13 -117 -61 -174 -22
-26 -22 -29 -7 -40 16 -12 16 -14 0 -38 -26 -40 -88 -50 -140 -23 -23 12 -38
13 -85 4 -31 -7 -78 -12 -105 -13 -42 -1 -51 3 -72 29 -22 28 -23 31 -7 42 15
12 15 15 -5 35 -55 60 -78 178 -50 269 23 77 103 146 195 168 51 13 139 3 190
-21z m-654 6 c53 -18 116 -76 143 -132 26 -54 25 -174 -3 -227 -49 -93 -119
-136 -233 -143 -63 -4 -85 -1 -128 18 -148 64 -203 241 -118 382 25 42 43 59
94 85 54 28 75 33 131 33 37 0 88 -7 114 -16z m-5802 -239 c21 -88 38 -166 38
-172 1 -8 -12 -13 -32 -13 -28 0 -34 4 -42 32 -9 29 -14 32 -50 31 -36 0 -40
-3 -47 -31 -8 -28 -13 -32 -42 -32 l-34 0 14 58 c7 31 26 110 41 175 l27 118
44 -3 45 -3 38 -160z m369 73 l1 -93 30 38 c23 27 39 37 60 37 16 0 29 -3 29
-6 0 -4 -16 -27 -35 -53 l-34 -47 21 -35 c11 -19 29 -49 40 -66 l20 -33 -36 0
c-30 0 -38 5 -57 40 -26 45 -39 43 -39 -6 0 -31 -2 -34 -30 -34 l-30 0 0 175
0 175 30 0 30 0 0 -92z m1740 -83 l0 -176 -42 1 c-24 1 -54 -1 -68 -5 -43 -11
-77 25 -85 88 -7 58 7 128 30 147 17 14 51 17 83 6 21 -7 22 -5 22 53 l0 61
30 0 30 0 0 -175z m452 83 l3 -92 25 37 c20 30 31 37 58 37 30 0 42 -12 24
-24 -5 -3 -21 -23 -36 -45 l-28 -39 34 -54 c19 -29 38 -59 42 -65 5 -10 -3
-13 -29 -13 -30 0 -39 5 -56 35 -27 45 -39 44 -39 -1 0 -34 -1 -35 -32 -32
l-33 3 -3 173 -2 172 34 0 35 0 3 -92z m728 28 l0 -64 29 14 c31 15 77 6 93
-19 4 -7 8 -58 8 -114 l0 -103 -30 0 -30 0 0 90 c0 75 -3 92 -16 97 -37 14
-49 -10 -52 -101 l-3 -86 -29 0 -30 0 0 175 0 175 30 0 30 0 0 -64z m530 3 c0
-55 2 -60 18 -53 31 13 76 5 95 -17 13 -16 17 -40 17 -101 0 -71 -2 -81 -26
-105 -21 -21 -31 -24 -57 -18 -18 4 -49 6 -69 6 l-38 -2 0 176 0 175 30 0 30
0 0 -61z m-1480 -9 c0 -38 2 -40 30 -40 25 0 30 -4 30 -25 0 -21 -5 -25 -30
-25 l-31 0 3 -67 c3 -66 4 -68 31 -71 28 -3 31 -9 21 -36 -4 -11 -19 -16 -45
-16 -54 0 -69 25 -69 117 0 66 -2 73 -20 73 -15 0 -20 7 -20 25 0 18 5 25 20
25 17 0 20 7 20 40 0 38 2 40 30 40 28 0 30 -2 30 -40z m-2096 -61 c24 -23 34
-121 17 -172 -15 -44 -59 -66 -97 -48 -14 6 -27 11 -29 11 -3 0 -5 -30 -5 -66
l0 -65 -27 3 -28 3 -3 179 -2 179 38 -6 c22 -2 46 -1 53 4 19 11 60 1 83 -22z
m405 20 c17 -6 36 -19 41 -29 6 -10 10 -62 10 -115 l0 -97 -32 3 c-18 1 -48
-1 -66 -5 -50 -12 -82 13 -82 64 0 44 20 64 83 81 28 7 37 15 35 27 -5 26 -48
28 -55 3 -6 -25 -51 -29 -60 -5 -8 21 28 67 58 75 35 10 33 10 68 -2z m290 0
c38 -14 51 -35 51 -88 l0 -41 -61 0 c-60 0 -60 0 -57 -27 3 -32 44 -46 54 -19
9 23 64 21 64 -2 0 -51 -67 -84 -124 -62 -45 17 -55 38 -56 116 0 78 20 119
63 127 12 2 25 5 28 6 3 0 20 -4 38 -10z m198 0 c32 -12 43 -26 43 -56 0 -31
-45 -33 -53 -3 -7 26 -47 27 -47 1 0 -11 12 -23 30 -31 78 -32 101 -82 61
-131 -15 -19 -29 -24 -66 -24 -37 0 -51 5 -66 24 -28 34 -25 61 7 61 18 0 28
-6 31 -21 7 -25 46 -22 51 4 3 12 -9 23 -42 37 -76 32 -89 107 -23 135 39 17
39 17 74 4z m197 -3 c31 -13 53 -55 38 -71 -14 -14 -50 -3 -55 16 -4 13 -12
20 -24 17 -29 -5 -21 -32 15 -50 73 -36 92 -81 53 -129 -15 -19 -29 -24 -66
-24 -37 0 -51 5 -66 24 -29 36 -25 61 10 61 20 0 30 -6 34 -20 7 -28 47 -27
47 0 0 15 -13 26 -45 40 -73 31 -85 108 -21 136 39 17 40 17 80 0z m205 3 c17
-6 36 -19 41 -29 6 -10 10 -62 10 -115 l0 -97 -32 3 c-18 1 -48 -1 -66 -5 -50
-12 -82 13 -82 64 0 44 20 64 83 81 28 7 37 15 35 27 -5 25 -45 27 -58 3 -13
-24 -60 -29 -60 -6 0 32 25 66 54 74 42 12 39 12 75 0z m319 -22 c16 -15 22
-32 22 -64 l0 -43 -61 0 c-60 0 -60 0 -57 -27 3 -32 44 -46 54 -19 8 20 64 22
64 2 0 -69 -102 -98 -158 -45 -19 17 -22 31 -22 98 0 68 3 80 23 98 12 11 29
23 37 26 25 9 73 -4 98 -26z m1000 -3 c18 -21 22 -37 22 -89 0 -77 -13 -110
-50 -125 -35 -15 -93 -4 -116 21 -23 26 -31 128 -13 170 24 60 111 73 157 23z
m232 16 c17 -17 20 -33 20 -125 l0 -105 -30 0 -30 0 0 90 c0 75 -3 92 -17 97
-32 12 -53 -32 -53 -113 l0 -74 -30 0 -30 0 0 120 0 120 29 0 c16 0 31 -5 33
-11 2 -6 14 -5 33 5 39 21 51 20 75 -4z m538 -13 c16 -15 22 -32 22 -64 l0
-43 -61 0 c-60 0 -60 0 -57 -27 3 -32 44 -46 54 -19 4 10 18 16 35 16 35 0 40
-29 9 -60 -27 -27 -63 -34 -105 -20 -46 15 -55 34 -55 123 0 64 3 76 23 94 12
11 29 23 37 26 25 8 74 -5 98 -26z m530 16 c18 -16 21 -32 24 -123 l3 -105
-32 -3 -33 -3 0 91 c0 72 -3 92 -15 96 -33 13 -45 -15 -45 -102 l0 -84 -35 0
-35 0 0 120 0 120 35 0 c19 0 35 -5 35 -11 0 -5 10 -3 22 5 29 21 51 20 76 -1z
m227 -14 c17 -16 21 -35 23 -120 l4 -100 -44 1 c-23 1 -54 -1 -68 -5 -34 -9
-80 27 -80 61 0 42 17 62 70 79 37 12 50 22 50 36 0 26 -36 25 -52 -1 -13 -20
-52 -27 -62 -12 -10 17 29 76 54 83 36 10 82 0 105 -22z m394 20 c36 -13 61
-53 61 -99 l0 -30 -59 0 c-65 0 -73 -5 -64 -38 6 -26 48 -31 57 -7 3 9 18 15
36 15 28 0 31 -3 25 -22 -4 -13 -18 -34 -33 -47 -21 -19 -33 -22 -66 -18 -61
8 -86 43 -86 117 0 73 16 109 55 126 37 16 35 16 74 3z m204 -3 c15 -8 27 -11
27 -5 0 5 14 9 31 9 l30 0 -3 -154 c-3 -134 -5 -157 -22 -175 -42 -46 -144
-35 -166 19 -7 16 -9 34 -5 39 10 18 44 12 57 -9 27 -42 78 -15 78 41 0 18 -3
20 -12 11 -7 -7 -29 -12 -49 -12 -56 0 -79 34 -79 116 0 72 13 107 44 122 29
14 37 14 69 -2z m282 -17 c17 -16 21 -36 23 -120 l4 -100 -44 1 c-23 1 -54 -1
-68 -5 -36 -9 -80 27 -80 66 0 28 30 69 50 69 6 0 26 7 45 14 25 11 33 19 29
30 -9 22 -41 20 -56 -4 -18 -29 -58 -27 -58 3 0 68 101 98 155 46z m-3045 -99
l0 -120 -35 0 -35 0 0 113 c0 63 3 117 7 120 3 4 19 7 35 7 l28 0 0 -120z
m2280 63 c19 -90 25 -92 45 -14 18 68 20 71 48 71 28 0 29 -2 23 -33 -3 -19
-25 -99 -49 -178 -43 -145 -52 -161 -91 -146 -11 5 -11 15 1 60 15 54 15 56
-17 163 -18 60 -35 115 -38 122 -3 8 7 12 30 12 34 0 35 -1 48 -57z"/>
<path d="M6613 9773 c-20 -4 -23 -11 -23 -51 l0 -47 85 0 85 0 0 46 c0 40 -3
48 -22 53 -25 6 -90 6 -125 -1z"/>
<path d="M2775 9193 c-92 -8 -239 -25 -375 -44 -80 -11 -174 -24 -210 -28 -36
-5 -87 -14 -115 -20 -27 -6 -111 -23 -185 -37 -142 -27 -426 -90 -570 -125
-156 -39 -494 -129 -545 -145 -27 -9 -102 -31 -165 -49 -248 -72 -278 -83
-300 -103 -31 -28 -30 -75 0 -107 13 -14 32 -25 43 -25 10 0 128 32 261 71
357 104 692 193 949 250 234 52 281 62 402 85 489 93 740 122 1071 124 165 0
327 -23 431 -62 115 -42 173 -93 173 -150 0 -53 -19 -86 -87 -149 -135 -125
-299 -221 -833 -491 -709 -359 -858 -449 -1012 -613 -69 -73 -98 -132 -105
-213 -4 -55 -2 -76 15 -112 45 -100 147 -181 285 -227 134 -45 426 -48 688 -8
57 9 127 19 156 22 l52 6 -5 51 c-12 118 -12 119 -47 111 -122 -26 -267 -46
-418 -56 -157 -11 -187 -10 -275 6 -126 22 -203 55 -254 111 -67 73 -56 121
54 228 79 77 181 150 337 239 86 50 484 256 679 351 41 21 82 41 90 45 544
284 724 411 810 573 72 135 29 267 -120 363 -146 94 -355 136 -659 133 -97 -1
-194 -3 -216 -5z"/>
<path d="M5140 7794 c-219 -20 -566 -98 -1018 -231 l-83 -24 30 -35 c17 -19
38 -49 47 -67 9 -17 18 -33 19 -35 1 -1 15 2 30 8 15 6 61 19 103 31 341 91
519 135 597 149 39 6 106 19 150 28 100 20 298 22 341 4 122 -52 21 -251 -211
-418 -162 -117 -158 -114 -348 -219 l-58 -32 53 -6 c29 -4 97 -7 151 -7 l98 0
117 78 c145 96 300 241 347 326 40 73 65 154 65 210 0 46 -30 119 -63 154 -26
28 -103 69 -143 76 -45 9 -174 14 -224 10z"/>
<path d="M3584 7406 c-3 -7 -4 -42 -2 -77 l3 -64 32 -3 c71 -7 110 82 58 133
-27 27 -82 34 -91 11z"/>
<path d="M3250 7080 l0 -80 39 0 c47 0 77 30 61 61 -6 9 -7 31 -4 47 7 35 -14
52 -65 52 l-31 0 0 -80z"/>
<path d="M2062 6849 c-12 -5 -22 -6 -22 -2 0 3 -7 -1 -17 -8 -13 -11 -17 -11
-20 -1 -5 14 -51 16 -73 2 -8 -5 -19 -5 -25 0 -12 10 -54 8 -73 -4 -7 -4 -19
-3 -25 3 -14 11 -55 9 -75 -3 -7 -4 -19 -3 -25 3 -14 11 -55 9 -75 -3 -7 -4
-19 -3 -25 3 -18 14 -73 8 -69 -8 2 -9 -4 -8 -20 3 -27 19 -52 21 -42 4 6 -10
4 -10 -7 0 -19 18 -32 15 -26 -7 3 -12 -1 -22 -11 -26 -8 -3 -12 -8 -9 -12 4
-3 2 -12 -4 -20 -9 -10 -8 -18 6 -33 10 -11 14 -24 9 -32 -14 -21 -16 -59 -4
-73 6 -8 7 -16 2 -19 -12 -7 -12 -56 -1 -78 6 -10 5 -19 -1 -23 -5 -3 -7 -12
-4 -19 3 -8 0 -17 -6 -21 -8 -5 -6 -13 6 -26 13 -14 14 -22 5 -32 -6 -8 -8
-17 -4 -20 3 -4 1 -13 -6 -20 -9 -11 -8 -17 4 -27 16 -13 21 -35 6 -26 -13 8
-11 -66 2 -82 8 -10 7 -16 -3 -22 -8 -5 -11 -12 -8 -16 4 -4 3 -15 -2 -24 -7
-13 -5 -21 5 -30 9 -8 12 -17 7 -24 -13 -17 -13 -69 0 -77 8 -5 9 -12 2 -21
-14 -18 -15 -59 -2 -75 7 -9 7 -17 -2 -28 -6 -8 -9 -19 -6 -24 4 -5 2 -12 -4
-16 -16 -10 -12 -21 15 -35 14 -7 25 -17 25 -22 0 -5 -4 -6 -10 -3 -5 3 -15 3
-22 -1 -7 -5 -5 -11 7 -21 18 -12 18 -13 -3 -13 -26 0 -28 -7 -6 -32 13 -14
14 -21 5 -32 -10 -11 -8 -17 6 -26 16 -10 16 -11 1 -6 -29 9 -31 -14 -3 -40
18 -17 22 -24 11 -24 -9 0 -16 -7 -16 -15 0 -8 -4 -15 -10 -15 -16 0 -12 -27
5 -34 18 -7 20 -32 3 -39 -7 -3 4 -6 25 -6 27 -1 37 3 37 15 0 14 1 14 16 0 8
-9 23 -16 32 -16 12 0 9 7 -11 28 -15 15 -27 31 -27 36 0 4 11 -5 24 -19 15
-16 30 -24 37 -19 9 5 9 10 -2 18 -23 19 -73 76 -66 76 3 0 26 -20 51 -45 30
-31 47 -42 52 -34 4 7 -3 21 -17 34 -13 12 -35 35 -49 51 l-25 29 25 -20 c13
-11 38 -35 56 -52 31 -32 54 -42 54 -24 0 5 -10 18 -22 28 -41 34 -84 85 -66
78 9 -4 19 -13 22 -21 3 -8 10 -14 16 -14 19 0 10 29 -16 49 -15 12 -22 21
-17 21 5 0 23 -14 40 -30 20 -20 34 -27 38 -20 4 6 -4 21 -17 34 -51 49 -59
68 -8 21 30 -27 59 -56 65 -64 7 -8 14 -10 18 -5 3 6 -17 34 -44 63 -51 55
-67 81 -24 41 32 -31 46 -17 15 15 -13 14 -18 25 -12 25 7 0 12 -4 12 -9 0
-12 50 -44 58 -37 3 4 -7 19 -21 34 -32 34 -36 51 -5 22 12 -11 25 -20 30 -20
15 0 8 16 -17 40 -14 13 -25 27 -25 30 0 4 21 -13 46 -37 25 -23 50 -43 55
-43 11 0 12 17 2 22 -12 5 -67 68 -60 68 3 0 20 -14 37 -30 50 -49 55 -23 6
28 -25 25 -44 48 -42 50 2 2 26 -20 54 -48 31 -31 53 -47 57 -40 4 6 -10 27
-30 47 -20 19 -34 37 -32 39 2 3 22 -14 44 -36 37 -36 63 -50 63 -34 0 4 -10
16 -22 28 -13 12 -32 33 -43 46 -20 24 -20 24 0 10 11 -8 41 -37 66 -63 29
-29 50 -44 54 -37 3 6 -15 32 -42 59 -26 26 -64 65 -83 87 l-35 39 35 -30 c19
-17 54 -51 79 -77 25 -27 48 -48 53 -48 20 0 4 27 -43 73 -28 27 -49 51 -47
52 2 2 24 -16 48 -40 49 -48 60 -53 60 -30 0 8 -3 15 -7 15 -5 0 -17 13 -28
28 -19 27 -19 27 0 12 11 -8 29 -25 40 -37 11 -13 24 -23 28 -23 17 0 4 25
-33 61 -22 22 -40 42 -40 46 0 8 29 -17 79 -69 48 -50 61 -58 61 -33 0 8 -4
15 -9 15 -5 0 -12 8 -16 18 -3 9 12 -1 34 -22 22 -22 44 -36 48 -31 5 4 2 10
-4 12 -7 3 -13 11 -13 18 0 7 -7 15 -15 19 -8 3 -15 11 -14 18 0 10 2 10 6 1
2 -7 11 -13 19 -13 8 0 14 -4 14 -8 0 -14 76 -92 88 -92 20 0 14 9 -38 63 -51
52 -71 90 -25 47 32 -31 46 -17 15 15 -13 14 -20 25 -17 25 4 0 56 -49 117
-110 97 -97 130 -124 130 -104 0 3 -37 43 -82 88 -112 113 -143 146 -136 146
3 0 53 -47 111 -105 58 -58 108 -105 112 -105 18 0 -2 31 -52 80 -62 59 -89
90 -80 90 3 0 41 -36 85 -80 45 -45 84 -76 87 -70 4 6 -17 33 -45 61 -29 28
-50 52 -48 55 3 2 36 -28 75 -66 39 -39 74 -70 77 -70 16 0 1 23 -53 79 -33
33 -56 61 -51 61 4 0 30 -22 57 -50 26 -27 51 -50 56 -50 18 0 4 25 -30 55
-21 19 -35 36 -33 39 3 3 20 -8 37 -24 18 -17 34 -30 37 -30 15 0 3 21 -31 56
-54 53 -14 29 47 -30 48 -46 72 -49 30 -4 -27 29 -26 44 2 19 14 -14 25 -17
33 -11 7 6 19 4 35 -7 18 -12 25 -14 28 -4 3 9 10 8 29 -4 14 -9 28 -14 31
-10 4 3 0 10 -8 15 -8 5 -11 12 -8 16 4 3 32 -19 62 -50 32 -33 57 -52 61 -46
4 6 -5 22 -20 36 -15 14 -25 27 -23 29 2 3 34 -24 71 -60 59 -57 87 -77 87
-60 0 3 -27 32 -60 65 -33 33 -56 60 -51 60 5 0 97 -88 205 -195 182 -182 216
-211 216 -185 0 6 -7 10 -15 10 -8 0 -15 7 -15 15 0 8 -4 15 -9 15 -5 0 -12 7
-15 16 -6 15 -4 15 11 3 10 -8 27 -24 39 -36 12 -13 24 -23 28 -23 16 0 3 22
-39 64 -24 25 -40 46 -35 46 5 0 24 -16 43 -35 46 -47 79 -48 40 -1 -13 15
-10 14 12 -4 16 -14 35 -32 42 -40 7 -8 13 -10 13 -5 1 6 5 1 9 -9 4 -11 10
-15 14 -10 3 6 -21 38 -54 71 -32 34 -59 64 -59 68 0 6 71 -57 120 -107 15
-15 30 -25 33 -22 3 4 -16 29 -43 57 -49 51 -71 87 -28 47 12 -11 25 -20 30
-20 11 0 10 18 -2 25 -5 3 -10 11 -10 16 0 5 10 1 22 -11 43 -40 52 -21 11 24
l-28 30 28 -18 c39 -24 45 -14 13 21 -14 15 -26 32 -26 37 0 5 15 -8 34 -28
32 -33 56 -46 56 -29 0 4 -10 17 -22 28 -13 11 -32 31 -43 45 l-20 25 20 -15
c11 -8 30 -26 41 -39 16 -17 24 -20 29 -11 4 7 4 15 -1 19 -5 3 -16 15 -24 26
-15 19 -15 19 12 0 15 -11 28 -23 28 -27 0 -11 30 -10 30 1 0 5 -12 19 -27 30
-14 12 -24 23 -22 26 3 2 19 -9 36 -25 18 -17 34 -30 37 -30 14 0 4 24 -16 41
-12 11 -16 19 -8 19 7 0 23 -12 35 -26 15 -18 25 -22 30 -15 4 7 -5 22 -21 36
-16 13 -26 27 -23 30 3 3 14 -4 24 -15 18 -20 35 -26 35 -12 0 4 -11 20 -25
36 -25 30 -35 50 -13 28 16 -16 28 -15 28 3 0 13 4 12 22 -5 12 -11 25 -20 30
-20 15 0 8 16 -17 40 -14 13 -25 28 -24 34 0 6 3 5 6 -1 5 -14 33 -18 33 -5 0
4 -5 13 -12 20 -22 22 -2 12 28 -13 47 -41 60 -32 19 13 -14 15 -25 31 -25 36
0 5 15 -8 34 -28 31 -32 56 -46 56 -30 0 3 -18 24 -40 46 -22 23 -40 45 -40
50 0 5 11 -3 24 -17 15 -16 30 -24 37 -19 9 5 9 10 -2 18 -8 6 -23 22 -34 36
l-20 25 20 -15 c11 -8 29 -25 40 -37 11 -13 24 -23 28 -23 15 0 6 24 -18 46
-14 13 -25 28 -25 34 0 5 22 -12 49 -40 27 -27 52 -50 55 -50 16 0 2 25 -36
63 -24 23 -50 51 -58 62 l-15 20 24 -20 c13 -11 38 -35 56 -52 55 -57 63 -39
10 21 -40 44 -43 51 -15 34 11 -7 20 -16 20 -20 0 -5 5 -8 10 -8 17 0 11 22
-12 41 -17 16 -18 19 -5 19 10 0 17 8 17 17 0 14 4 12 25 -7 32 -31 46 -17 15
15 -31 34 -13 32 22 -2 15 -14 31 -23 35 -19 5 4 -5 19 -20 32 -16 13 -26 30
-24 37 4 9 6 9 6 0 1 -15 31 -18 31 -3 0 5 -6 13 -12 17 -17 10 -42 43 -34 43
3 0 24 -18 46 -40 38 -38 60 -50 60 -32 0 4 -23 29 -51 56 -28 26 -49 50 -47
52 3 2 25 -17 51 -41 27 -27 48 -41 52 -34 4 5 -8 25 -27 43 -18 18 -42 44
-53 57 -20 24 -20 24 9 -1 17 -14 40 -35 52 -47 11 -13 24 -23 28 -23 18 0 0
27 -53 81 -32 32 -56 59 -52 59 4 0 42 -34 84 -75 42 -41 79 -75 82 -75 17 0
-3 28 -70 96 -41 42 -75 79 -75 82 0 7 76 -64 103 -95 10 -13 23 -23 28 -23
15 0 10 27 -5 33 -8 3 -20 16 -27 29 -9 19 -9 21 2 11 7 -7 17 -13 21 -13 17
0 6 22 -28 55 -20 19 -32 35 -27 35 5 0 20 -11 33 -25 13 -14 27 -25 32 -25
15 0 8 17 -19 44 -14 14 -24 28 -21 31 4 5 27 -14 60 -51 43 -49 88 -87 95
-81 4 4 -21 35 -55 69 -34 34 -62 65 -62 70 0 4 48 -39 107 -97 58 -58 104
-107 101 -110 -2 -3 -20 11 -38 30 -38 39 -50 43 -50 18 0 -14 -4 -12 -25 7
-14 13 -28 20 -32 17 -4 -4 19 -32 51 -63 58 -57 93 -69 41 -14 -16 16 -26 32
-23 35 7 7 88 -77 87 -90 0 -5 -3 -4 -6 3 -5 13 -33 17 -33 4 0 -5 11 -19 25
-32 14 -13 25 -27 25 -32 0 -5 -10 0 -22 12 -21 19 -38 26 -38 15 0 -4 16 -22
35 -42 19 -20 35 -41 34 -47 0 -6 -3 -6 -6 2 -2 6 -9 12 -14 12 -15 0 -10 -22
9 -39 9 -9 23 -24 31 -34 12 -15 12 -17 -3 -11 -9 3 -16 10 -16 15 0 5 -4 9
-10 9 -19 0 -10 -21 25 -58 23 -25 33 -43 29 -55 -4 -12 4 -29 22 -48 20 -21
24 -32 16 -41 -8 -10 -3 -20 19 -42 16 -16 29 -34 29 -40 0 -6 -5 -3 -11 7 -5
9 -14 17 -19 17 -20 0 -9 -24 30 -63 22 -22 38 -42 35 -45 -2 -3 -14 7 -26 22
-11 14 -25 24 -30 21 -14 -9 -11 -25 6 -25 17 0 20 -25 5 -35 -12 -7 -4 -25
12 -25 5 0 8 7 4 15 -3 8 -3 15 -1 15 10 0 68 -60 63 -65 -2 -3 -14 4 -26 15
-24 23 -32 25 -32 9 0 -12 50 -59 63 -59 4 0 7 -5 7 -11 0 -12 29 -38 43 -39
4 0 7 8 8 18 0 10 3 12 6 5 7 -18 33 -16 33 2 0 13 4 12 22 -5 24 -22 38 -26
38 -10 0 5 7 7 16 3 9 -3 19 0 24 6 5 10 11 9 23 -3 17 -17 37 -21 37 -8 0 4
-22 29 -50 55 -27 26 -50 50 -50 54 0 4 26 -19 58 -50 42 -41 63 -56 75 -51
10 3 24 1 32 -6 15 -13 39 -4 30 11 -4 5 -1 9 4 9 6 0 11 -5 11 -11 0 -6 9 -8
20 -4 12 4 26 2 33 -3 13 -11 67 -5 67 7 0 4 -11 18 -25 31 -14 13 -25 27 -25
31 0 5 21 -12 46 -36 38 -38 50 -44 72 -39 37 9 38 11 16 36 -17 20 -15 20 11
-2 16 -14 31 -28 33 -32 4 -10 32 -11 32 -1 0 3 -22 28 -50 55 -27 26 -46 48
-41 48 5 0 30 -22 57 -50 46 -48 74 -62 74 -39 0 5 5 7 10 4 6 -3 15 -3 22 1
8 5 5 11 -7 20 -10 8 -16 16 -13 19 3 3 19 -7 35 -24 22 -22 36 -28 56 -24 16
3 27 1 27 -6 0 -6 7 -11 15 -11 8 0 15 4 15 9 0 5 -7 11 -15 15 -8 3 -15 11
-15 17 0 7 11 3 23 -10 15 -13 30 -19 41 -15 9 3 22 1 29 -5 9 -7 24 -8 47 -1
22 6 38 6 46 -1 7 -6 27 -7 46 -4 60 11 203 -31 249 -74 17 -16 17 -19 3 -39
-36 -51 -160 -124 -364 -215 -96 -42 -396 -152 -570 -209 -263 -85 -764 -254
-795 -268 -11 -5 -31 -12 -45 -15 -66 -17 -445 -159 -600 -225 -178 -76 -381
-182 -450 -235 -188 -145 -247 -283 -175 -413 118 -215 511 -365 1147 -437
250 -28 408 -36 858 -42 645 -8 1325 24 2180 103 146 13 268 24 273 24 4 0 7
36 7 81 l0 81 -77 -7 c-43 -3 -148 -13 -233 -21 -1265 -119 -2426 -137 -3100
-48 -133 18 -390 68 -470 91 -30 9 -60 18 -66 19 -40 7 -209 83 -255 115 -97
65 -129 101 -129 143 0 20 7 50 15 65 28 55 200 180 330 240 22 10 69 32 105
49 204 97 466 193 1165 427 253 85 510 172 570 194 61 21 126 44 145 51 19 6
44 15 55 20 11 4 40 16 65 26 25 9 70 28 100 42 30 13 71 30 91 37 20 7 55 25
78 39 22 14 43 26 47 26 17 0 134 79 178 120 60 56 100 137 90 183 -9 45 -42
107 -60 114 -19 7 -41 -12 -25 -21 16 -10 13 -26 -4 -26 -15 0 -16 24 -2 48 5
6 6 16 2 21 -3 5 -2 12 3 15 13 8 7 113 -8 130 -7 9 -10 20 -6 23 4 4 10 2 14
-4 4 -6 7 74 6 178 0 103 -3 192 -7 195 -9 10 -9 26 1 21 13 -9 6 71 -9 89
-12 15 -12 17 1 12 12 -4 15 5 15 53 0 32 -4 61 -8 65 -4 4 -2 13 4 21 9 10 7
18 -7 34 -13 14 -14 18 -3 14 12 -5 14 6 13 59 -1 36 -5 69 -8 75 -3 5 0 11 6
14 10 3 10 9 1 28 -13 25 -13 45 1 67 5 8 1 21 -10 33 -9 10 -14 22 -11 26 4
3 7 1 7 -6 0 -7 5 -9 10 -6 7 4 7 13 0 24 -5 11 -5 22 0 27 12 12 1 56 -11 48
-5 -3 -9 0 -9 5 0 6 5 11 10 11 6 0 10 5 10 11 0 12 -49 9 -68 -5 -8 -6 -17
-5 -24 2 -7 7 -24 12 -38 12 -14 0 -31 -5 -38 -12 -8 -8 -15 -8 -26 1 -14 12
-52 11 -71 -1 -6 -4 -17 -3 -25 3 -20 12 -67 11 -75 -1 -4 -6 -13 -7 -23 -1
-23 12 -154 11 -169 -1 -9 -7 -17 -7 -27 1 -15 12 -52 11 -73 -2 -6 -4 -15 -3
-18 3 -7 12 -63 8 -85 -5 -9 -5 -15 -4 -18 3 -5 15 -64 16 -79 1 -8 -8 -13 -8
-17 0 -10 15 -73 14 -78 -1 -3 -8 -11 -7 -27 4 -20 14 -26 14 -49 2 -32 -16
-52 -18 -52 -4 0 6 -7 10 -15 10 -21 0 -19 -9 8 -39 l22 -24 -27 19 c-15 10
-28 22 -28 27 0 11 -30 8 -30 -3 0 -5 4 -10 9 -10 5 0 12 -8 15 -17 5 -13 0
-11 -21 7 -15 14 -29 28 -31 33 -5 11 -32 9 -32 -3 0 -5 4 -10 9 -10 5 0 11
-7 15 -15 4 -12 2 -13 -14 -2 -11 6 -20 16 -20 20 0 5 -13 6 -30 2 -19 -4 -30
-3 -30 4 0 6 -7 11 -17 11 -14 0 -14 -2 2 -20 25 -28 14 -35 -14 -9 -12 12
-25 18 -28 15 -3 -3 18 -29 46 -58 28 -28 51 -56 51 -60 0 -5 -15 7 -34 27
-33 33 -56 45 -56 27 0 -5 11 -19 25 -32 14 -13 25 -28 25 -33 0 -5 -31 23
-69 62 -61 63 -91 84 -91 65 0 -3 26 -32 58 -63 31 -31 66 -68 77 -81 19 -24
19 -24 0 -10 -10 8 -50 45 -87 83 -61 60 -88 79 -88 61 0 -4 21 -28 48 -53 53
-51 78 -81 68 -81 -4 0 -40 34 -81 75 -65 66 -95 88 -95 69 0 -3 36 -41 81
-86 44 -44 78 -82 75 -85 -2 -3 -27 18 -54 46 -27 28 -52 51 -56 51 -15 0 -4
-25 21 -46 15 -13 25 -26 22 -28 -3 -3 -15 3 -27 15 -12 11 -27 17 -33 14 -6
-4 7 -24 31 -47 23 -21 40 -41 38 -44 -3 -2 -13 5 -23 16 -10 11 -22 20 -27
20 -13 0 -9 -28 5 -33 6 -2 10 -7 7 -10 -3 -3 -32 19 -63 50 -64 61 -93 65
-34 5 20 -21 37 -42 37 -46 0 -5 -8 1 -19 12 -22 26 -41 28 -41 5 0 -13 -3
-12 -19 5 -17 20 -41 30 -41 17 0 -3 11 -18 25 -33 14 -15 25 -31 24 -37 0 -5
-3 -4 -6 3 -5 14 -33 17 -33 3 0 -5 7 -14 15 -21 8 -7 15 -16 15 -21 0 -5 -55
46 -121 112 -67 66 -119 122 -117 125 3 2 48 -38 100 -91 52 -52 98 -95 101
-95 19 0 0 27 -68 95 -41 42 -75 79 -75 82 0 8 29 -17 79 -69 25 -27 49 -48
53 -48 19 0 4 21 -52 78 -58 59 -85 99 -35 52 39 -36 43 -14 5 25 -21 21 -38
31 -43 26 -5 -5 -16 -7 -23 -4 -16 6 -19 -22 -4 -32 6 -3 10 -12 10 -18 0 -7
-16 6 -35 28 -21 25 -37 36 -42 30 -5 -7 -43 -10 -93 -9 -124 3 -237 4 -307 3
-34 -1 -66 1 -71 5 -5 3 -22 2 -38 -3 -16 -4 -60 -5 -99 0 -64 6 -72 5 -98
-17 -45 -37 -134 -29 -167 17 -7 10 -54 6 -62 -6 -5 -6 -11 -6 -16 2 -5 8 -19
9 -43 4 -20 -5 -53 -7 -75 -6 -21 2 -45 -2 -51 -7 -9 -7 -17 -7 -26 0 -14 12
-55 11 -75 -2 -7 -4 -19 -3 -25 3 -15 12 -57 11 -74 -2 -8 -6 -18 -6 -26 1
-15 13 -57 12 -74 0 -6 -5 -14 -5 -18 2 -7 12 -65 11 -82 -2 -6 -5 -14 -5 -18
2 -8 14 -58 13 -73 -2 -8 -8 -15 -8 -26 1 -14 12 -59 11 -72 -2 -4 -3 -14 -2
-24 3 -18 10 -59 8 -77 -3 -6 -4 -18 -1 -25 6 -9 10 -21 11 -36 6z m483 -96
c11 -13 24 -23 28 -23 15 0 6 24 -18 46 -14 13 -25 26 -25 31 0 4 22 -15 50
-42 52 -52 74 -56 44 -8 -10 15 21 -10 69 -57 48 -47 92 -86 97 -88 24 -9 4
18 -65 88 -41 41 -75 78 -75 82 0 5 40 -31 89 -79 52 -52 83 -89 75 -91 -8 -2
-14 -10 -14 -18 0 -9 -18 2 -46 28 -25 24 -50 45 -55 46 -21 8 -5 -16 41 -62
28 -27 50 -54 50 -60 0 -6 -17 9 -39 33 -27 31 -41 40 -46 30 -5 -8 1 -21 18
-35 15 -13 27 -28 27 -34 0 -5 -31 21 -69 60 -61 61 -91 83 -91 65 0 -3 22
-29 50 -58 27 -29 50 -56 50 -60 0 -4 -22 15 -49 43 -27 27 -51 50 -55 50 -3
0 -6 -10 -6 -21 0 -21 -1 -20 -21 5 -11 14 -25 26 -30 26 -20 0 -7 -24 34 -64
23 -23 49 -50 57 -61 14 -20 14 -20 -10 0 -13 11 -33 30 -43 43 -10 12 -23 22
-28 22 -19 0 -8 -21 31 -61 52 -54 52 -64 -1 -14 -88 85 -99 97 -99 107 0 6
11 -1 24 -15 16 -18 27 -23 32 -16 4 6 -7 24 -24 40 -36 34 -39 35 -44 13 -2
-12 -16 -3 -51 31 -26 26 -45 50 -41 54 4 3 9 0 11 -6 5 -14 33 -18 33 -5 0 4
-5 13 -12 20 -7 7 -9 12 -5 12 3 0 17 -11 31 -25 24 -24 46 -33 46 -19 0 4
-12 18 -26 31 -14 13 -24 27 -21 30 3 2 14 -5 24 -16 9 -12 21 -21 25 -21 13
0 9 28 -4 33 -7 2 -10 7 -7 11 4 4 14 0 22 -9 9 -8 20 -15 26 -15 12 0 15 20
4 20 -5 0 -17 13 -27 28 l-19 27 29 -25 c16 -14 38 -35 49 -47z m42 -633 c7
-8 11 -25 8 -37 -4 -16 -1 -23 9 -23 8 0 16 5 18 11 3 8 10 6 20 -5 21 -20 32
-21 24 -1 -6 17 9 20 20 4 3 -6 1 -14 -5 -18 -7 -5 -9 -16 -4 -27 6 -17 5 -17
-10 -5 -29 23 -32 3 -4 -23 28 -26 38 -48 13 -27 -10 8 -16 9 -21 1 -9 -15
-17 -13 -48 16 -25 23 -55 25 -41 3 13 -22 -33 17 -70 58 -22 24 -32 41 -23
37 10 -3 17 -10 17 -15 0 -5 7 -9 15 -9 21 0 19 9 -7 39 l-23 26 25 -20 c13
-11 33 -28 44 -37 39 -35 50 -18 11 18 -14 13 -25 28 -25 35 0 7 11 0 25 -15
13 -14 27 -26 30 -26 8 0 6 30 -2 30 -5 0 -17 13 -28 28 -19 27 -19 27 0 12
11 -8 26 -22 32 -30z"/>
<path d="M2930 5730 c0 -5 7 -10 15 -10 8 0 15 -7 15 -15 0 -8 3 -15 8 -15 4
0 16 -13 27 -28 19 -27 19 -27 0 -12 -11 8 -23 19 -26 24 -4 5 -12 5 -19 1 -9
-5 -4 -14 15 -31 16 -13 23 -24 17 -24 -6 0 -27 16 -47 37 -19 20 -38 33 -43
28 -4 -4 -1 -10 6 -12 6 -3 12 -9 12 -14 0 -5 18 -27 41 -50 22 -22 39 -43 36
-45 -2 -2 -31 23 -64 56 -34 33 -64 60 -67 60 -13 0 -5 -19 19 -41 13 -13 25
-28 25 -32 0 -5 -6 -2 -14 5 -51 50 -88 79 -94 73 -4 -3 0 -10 7 -14 9 -6 11
-18 7 -35 -7 -27 11 -56 33 -56 17 0 13 27 -4 34 -8 3 -15 10 -15 16 0 16 37
-11 51 -37 7 -13 18 -23 26 -23 7 0 13 -6 13 -13 0 -14 39 -41 48 -33 3 4 -7
19 -21 34 -46 48 -30 46 19 -3 44 -43 64 -55 64 -37 0 4 -6 14 -12 21 -11 10
-10 11 5 6 9 -4 17 -11 17 -16 0 -5 7 -9 15 -9 23 0 18 11 -22 52 -54 55 -34
47 27 -12 50 -48 70 -60 70 -42 0 4 -22 30 -50 57 -27 27 -50 53 -50 57 0 5
27 -19 60 -53 33 -33 64 -58 70 -54 6 4 -35 52 -94 111 -98 97 -126 118 -126
94z"/>
<path d="M1600 5551 c0 -6 5 -13 10 -16 16 -10 11 -25 -8 -25 -26 0 -190 -128
-269 -210 -32 -33 -98 -146 -113 -193 -19 -62 -5 -156 33 -214 37 -57 47 -66
110 -99 103 -54 284 -67 533 -39 130 14 185 24 424 72 121 24 771 186 955 238
135 38 218 61 340 94 61 16 169 46 240 66 72 20 229 60 350 91 121 30 238 59
260 66 22 6 90 21 150 34 l110 23 -355 -2 -355 -2 -175 -49 c-96 -26 -213 -58
-260 -71 -110 -29 -503 -136 -645 -175 -427 -117 -805 -198 -1049 -226 -158
-17 -351 -15 -416 5 -96 30 -123 100 -75 196 16 30 49 74 74 98 60 56 203 164
269 202 60 35 64 52 22 95 -24 25 -31 28 -36 15 -10 -25 -63 -19 -86 10 -20
25 -38 33 -38 16z"/>
</g>
</svg>
