<?xml version="1.0" standalone="no"?>
<!DOCTYPE svg PUBLIC "-//W3C//DTD SVG 20010904//EN"
 "http://www.w3.org/TR/2001/REC-SVG-20010904/DTD/svg10.dtd">
<svg version="1.0" xmlns="http://www.w3.org/2000/svg"
 width="720.000000pt" height="1280.000000pt" viewBox="0 0 720.000000 1280.000000"
 preserveAspectRatio="xMidYMid meet">
<metadata>
Created by potrace 1.16, written by Peter Selinger 2001-2019
</metadata>
<g transform="translate(0.000000,1280.000000) scale(0.100000,-0.100000)"
fill="#000000" stroke="none">
<path d="M0 6400 l0 -6400 3600 0 3600 0 0 1024 0 1024 -116 4 c-95 3 -118 6
-128 20 -7 10 -16 15 -19 11 -4 -3 -9 0 -11 8 -12 38 -29 445 -32 779 -2 206
-3 378 -4 381 0 4 -19 9 -42 13 -56 9 -151 38 -159 49 -9 12 -200 36 -289 36
-119 0 -144 -3 -158 -16 -7 -7 -27 -13 -43 -13 -16 0 -29 -4 -29 -10 0 -5 -8
-10 -19 -10 -14 0 -22 -12 -30 -45 -6 -25 -18 -48 -26 -51 -8 -4 -15 -17 -15
-30 0 -14 -7 -27 -16 -31 -20 -8 -64 13 -64 31 0 7 -13 16 -29 19 -16 4 -38
19 -50 36 -20 27 -24 29 -48 18 -23 -10 -28 -8 -49 16 -19 23 -23 36 -19 72 2
28 0 45 -7 45 -6 0 -6 6 2 15 7 9 11 17 9 19 -8 7 -240 24 -259 19 -19 -5 -60
-71 -60 -98 0 -24 -57 -19 -72 6 -17 26 -82 60 -133 68 -30 5 -44 14 -60 38
-15 25 -27 32 -52 33 -17 0 -33 5 -35 10 -2 6 -12 12 -23 14 -33 7 -71 25 -54
25 9 1 24 10 35 22 14 16 25 19 52 14 19 -3 43 -11 52 -18 28 -17 67 5 75 42
9 44 27 53 92 49 52 -3 59 -1 68 20 5 12 16 20 22 17 7 -2 13 1 13 7 0 13 34
46 180 171 150 129 150 130 150 251 0 56 -5 178 -11 271 -16 261 -15 287 16
488 20 135 26 195 19 215 -12 33 -69 66 -155 89 l-66 17 -23 80 c-96 332 -197
572 -257 609 -7 4 -13 14 -13 21 0 7 -32 34 -70 61 l-70 48 20 22 c25 26 60
115 60 150 0 25 15 41 24 26 4 -5 9 -36 12 -69 5 -45 3 -68 -10 -92 -9 -18
-14 -35 -12 -38 8 -8 46 62 52 97 17 89 -20 259 -72 337 l-25 36 30 -21 c67
-48 107 -141 98 -229 -6 -54 -5 -56 8 -27 20 43 18 116 -4 175 -41 107 -162
213 -248 216 -24 1 -47 4 -50 7 -3 4 2 24 11 47 30 75 14 187 -44 307 -56 114
-190 209 -330 234 -121 21 -275 -8 -365 -69 -22 -14 -53 -28 -69 -29 -43 -4
-144 -62 -196 -113 -82 -80 -113 -194 -75 -275 14 -30 14 -29 9 20 -3 35 1 61
13 89 l18 38 -3 -78 -4 -79 37 -35 c29 -27 36 -30 32 -15 -3 11 -8 34 -11 50
-4 22 -2 20 8 -10 8 -22 15 -49 17 -60 1 -11 5 15 10 58 8 79 38 160 75 205
19 23 19 23 19 -60 1 -94 12 -124 77 -194 52 -56 71 -59 52 -6 -14 39 -17 159
-5 202 5 20 9 12 19 -40 7 -36 15 -76 18 -89 6 -21 4 -23 -17 -17 l-24 7 24
-18 c13 -10 56 -48 96 -85 76 -72 98 -85 70 -40 -12 18 -4 13 23 -15 54 -55
81 -56 52 -2 -6 10 -8 19 -5 19 3 0 19 -28 35 -62 31 -66 39 -128 25 -188 -8
-34 -8 -35 12 -17 11 9 28 43 37 75 28 88 39 105 84 130 40 22 44 23 67 8 32
-21 34 -86 5 -134 -22 -36 -97 -87 -141 -97 -16 -4 -31 -11 -34 -16 -8 -12 22
-12 45 1 16 8 19 5 25 -20 7 -31 37 -58 140 -123 59 -38 77 -75 55 -115 -25
-45 -162 -129 -241 -146 -187 -43 -306 6 -363 150 -15 37 -26 68 -24 69 2 1
17 6 35 10 30 6 34 3 78 -55 25 -34 45 -67 45 -73 0 -6 3 -8 6 -5 3 3 -7 30
-23 60 -15 29 -29 56 -31 60 -2 3 29 25 67 48 39 23 71 43 71 45 0 1 -28 -8
-61 -22 -34 -14 -95 -32 -135 -40 -112 -23 -123 -14 -201 162 -35 77 -63 135
-63 128 0 -6 14 -41 30 -78 35 -77 37 -95 13 -95 -17 -1 -76 -29 -62 -30 4 0
25 6 47 14 l41 15 28 -52 c18 -34 40 -59 64 -71 28 -15 40 -31 53 -71 45 -130
139 -199 269 -197 100 2 178 25 255 77 105 69 122 88 122 139 0 42 -10 55 -71
87 -33 18 -58 34 -56 36 10 10 186 -82 224 -117 27 -26 53 -40 70 -41 16 0 37
-4 48 -9 19 -8 19 -9 -3 -9 -112 -4 -205 -168 -258 -456 -22 -126 -25 -163
-24 -360 2 -243 -8 -315 -46 -336 -20 -10 -51 -85 -58 -136 -1 -10 -25 -30
-56 -45 -70 -37 -86 -52 -106 -104 -17 -44 -17 -44 -65 -44 -57 0 -161 23
-221 49 -55 24 -146 95 -160 127 -8 18 -8 30 1 47 33 64 32 85 -10 168 -77
154 -96 225 -109 405 -8 106 -12 127 -35 160 -38 56 -41 55 -12 -1 20 -40 26
-73 32 -160 l8 -110 -28 33 c-15 18 -30 31 -32 28 -3 -2 18 -49 46 -103 72
-142 82 -170 75 -212 -4 -20 -11 -41 -15 -47 -6 -7 -1 -18 12 -30 53 -48 64
-129 27 -194 -21 -35 -22 -42 -9 -82 23 -78 25 -116 5 -146 -35 -51 -45 -77
-51 -125 -3 -26 -10 -47 -15 -47 -5 0 -18 20 -29 45 -34 77 -87 94 -161 53
-46 -26 -68 -63 -67 -110 1 -31 1 -32 9 -8 8 24 8 23 9 -7 1 -18 -3 -33 -7
-33 -17 0 -52 47 -52 71 -1 13 -8 38 -16 54 -8 17 -12 22 -9 13 6 -24 -12 -23
-53 2 -37 23 -71 87 -73 140 -2 29 -3 31 -6 8 -9 -60 20 -119 81 -162 19 -13
19 -15 2 -41 -9 -14 -36 -45 -58 -68 -43 -45 -105 -134 -125 -181 -20 -43 -16
-71 14 -100 l26 -27 -28 -117 c-15 -64 -33 -123 -39 -131 -8 -10 -11 -237 -11
-785 0 -755 0 -771 20 -787 18 -16 12 -17 -105 -23 -135 -7 -280 -5 -280 4 0
3 7 14 15 24 44 59 -7 224 -121 391 -30 44 -65 107 -79 140 -24 58 -24 60 -6
76 28 23 47 66 76 170 44 159 76 252 100 289 66 102 164 276 202 360 24 52 59
124 78 160 51 99 69 171 61 252 -11 116 -38 170 -127 256 -43 41 -102 93 -131
114 -29 22 -54 44 -56 48 -5 13 47 111 83 155 56 69 75 114 75 176 0 48 5 65
35 108 41 62 53 113 35 155 -32 79 -35 104 -17 153 27 77 22 115 -27 206 -43
80 -45 87 -65 252 -42 343 -77 526 -111 580 -55 89 -193 175 -387 242 -46 15
-83 33 -83 38 0 6 9 36 20 68 15 43 20 82 20 167 0 61 4 118 9 128 4 9 22 45
40 78 19 38 31 77 31 100 0 44 13 37 29 -16 9 -31 10 -26 8 40 -2 66 -6 81
-34 122 l-32 48 24 6 c13 3 31 14 39 23 14 16 13 17 -17 18 -30 1 -157 66
-157 80 0 4 10 17 22 30 l21 23 -39 0 c-35 0 -240 53 -252 65 -3 3 2 13 11 23
20 22 23 39 5 25 -7 -6 -71 -13 -141 -16 -108 -5 -136 -10 -183 -31 -31 -14
-59 -26 -61 -26 -3 0 -2 11 1 25 4 14 2 25 -3 25 -18 0 -69 -69 -75 -102 -5
-30 -12 -37 -48 -47 -52 -16 -104 -55 -124 -93 l-15 -30 38 26 c38 26 72 36
43 13 -32 -25 -71 -86 -90 -142 -24 -69 -26 -178 -5 -215 14 -25 14 -24 16 20
1 26 3 35 6 20 11 -69 38 -139 74 -193 22 -33 47 -74 56 -91 9 -17 29 -46 46
-65 36 -42 36 -42 -102 -102 -130 -56 -330 -162 -417 -220 -125 -84 -210 -200
-244 -334 -11 -44 -32 -165 -45 -270 -14 -104 -31 -210 -39 -235 -8 -25 -27
-101 -41 -170 -15 -69 -28 -130 -30 -137 -2 -6 -18 -14 -36 -18 -48 -11 -127
-97 -174 -188 l-39 -78 18 -124 c10 -69 27 -152 37 -186 16 -50 19 -92 19
-245 l0 -184 28 -30 c16 -16 31 -27 34 -25 3 3 38 -11 77 -30 67 -33 78 -36
129 -29 32 3 71 15 89 26 18 10 45 23 61 28 l29 8 38 -97 c21 -53 50 -114 65
-136 53 -78 63 -107 64 -179 1 -68 1 -68 45 -106 43 -38 44 -40 46 -103 1 -42
7 -74 18 -91 9 -14 26 -63 37 -109 25 -111 53 -184 110 -292 28 -53 59 -132
75 -190 33 -123 36 -128 95 -190 l48 -50 4 -105 c3 -58 -1 -141 -7 -185 l-11
-80 -949 0 -950 0 -3 1158 c-1 759 1 1156 8 1152 25 -16 158 171 186 263 7 23
19 49 26 57 7 7 22 25 33 40 11 15 31 37 44 49 13 11 32 29 42 39 24 22 25 66
2 74 -10 3 -26 13 -35 21 -12 10 -29 13 -56 9 -27 -5 -45 -2 -61 9 -32 23 -45
13 -80 -57 -34 -69 -37 -85 -19 -125 11 -24 16 -26 59 -22 43 4 48 3 52 -18 5
-26 -9 -54 -27 -54 -6 0 -43 -25 -80 -56 -39 -32 -73 -53 -82 -50 -12 5 -14
236 -14 1672 0 1474 2 1665 15 1654 22 -18 26 2 23 96 -2 62 -6 79 -18 79 -13
0 -15 29 -15 200 l0 200 47 0 c63 0 71 10 58 71 -18 78 -20 104 -7 105 7 1 28
0 47 -1 51 -2 67 27 40 74 -28 47 -56 52 -76 15 -8 -16 -12 -34 -9 -39 3 -5
-4 -15 -16 -24 -16 -11 -27 -12 -41 -5 -11 6 -26 8 -34 5 -12 -5 -14 40 -14
299 l0 305 3590 0 3590 0 0 1775 0 1775 -3600 0 -3600 0 0 -6400z m6794 3679
c153 -67 201 -265 97 -404 -25 -34 -27 -41 -14 -50 23 -17 -3 -53 -49 -67 -31
-9 -45 -8 -82 6 -45 17 -83 16 -154 -6 -47 -14 -97 -2 -117 28 -13 20 -14 28
-4 40 10 12 8 19 -9 37 -37 39 -62 108 -62 171 0 78 16 128 58 176 79 93 218
121 336 69z m-651 5 c52 -18 116 -76 142 -130 57 -121 8 -276 -107 -339 -78
-42 -185 -47 -262 -12 -103 48 -149 120 -150 237 0 120 51 197 159 242 51 22
158 23 218 2z m-5834 -111 c15 -56 71 -300 71 -307 0 -3 -16 -6 -35 -6 -30 0
-35 3 -35 24 0 32 -22 48 -61 44 -27 -4 -34 -10 -41 -36 -8 -28 -13 -32 -42
-32 l-34 0 14 58 c7 31 25 110 40 175 l28 117 42 0 c41 0 44 -2 53 -37z m401
-55 l1 -93 30 38 c23 27 39 37 60 37 16 0 29 -3 29 -6 0 -4 -16 -27 -35 -53
l-34 -47 21 -35 c11 -19 29 -49 40 -66 l20 -33 -36 0 c-30 0 -38 5 -57 40 -26
45 -39 43 -39 -6 0 -31 -2 -34 -30 -34 l-30 0 0 175 0 175 30 0 30 0 0 -92z
m1740 -83 l0 -176 -42 1 c-24 1 -55 -1 -69 -5 -19 -5 -33 -1 -55 18 -28 24
-29 29 -29 106 1 69 4 84 22 102 22 22 54 28 91 15 21 -7 22 -5 22 53 l0 61
30 0 30 0 0 -175z m452 83 l3 -92 25 37 c20 30 31 37 58 37 30 0 42 -12 24
-24 -5 -3 -21 -23 -36 -44 l-27 -40 40 -66 41 -66 -35 0 c-30 0 -38 5 -57 40
-13 22 -26 40 -30 40 -5 0 -8 -18 -8 -40 0 -39 -1 -40 -35 -40 l-35 0 0 168
c0 93 3 172 7 175 3 4 19 7 34 7 l28 0 3 -92z m728 28 l0 -65 35 15 c28 11 40
12 58 3 34 -18 37 -27 37 -136 l0 -103 -30 0 -30 0 0 90 c0 75 -3 92 -16 97
-37 14 -49 -10 -52 -101 l-3 -86 -29 0 -30 0 0 175 0 175 30 0 30 0 0 -64z
m530 3 c0 -58 1 -60 23 -53 76 26 107 -8 107 -118 0 -71 -2 -81 -26 -105 -21
-21 -31 -24 -57 -18 -18 4 -49 6 -69 6 l-38 -2 0 176 0 175 30 0 30 0 0 -61z
m-1482 -11 c3 -35 6 -38 33 -38 24 0 29 -4 29 -25 0 -21 -5 -25 -30 -25 l-31
0 3 -67 c3 -66 4 -68 31 -71 21 -3 27 -8 23 -19 -3 -8 -6 -19 -6 -24 0 -16
-73 -10 -92 8 -14 13 -18 31 -18 90 0 66 -2 75 -20 80 -13 3 -20 14 -20 29 0
17 6 24 20 24 17 0 20 7 20 41 0 38 1 40 28 37 23 -3 27 -8 30 -40z m-2094
-58 c24 -24 34 -122 17 -173 -15 -44 -59 -66 -97 -48 -14 6 -27 11 -29 11 -3
0 -5 -30 -5 -66 l0 -65 -27 3 -28 3 -3 179 -2 179 38 -6 c22 -2 46 -1 53 4 19
12 60 2 83 -21z m405 19 c17 -6 36 -19 41 -29 6 -10 10 -62 10 -115 l0 -97
-32 3 c-18 1 -48 -1 -66 -5 -50 -12 -82 13 -82 64 0 44 20 64 83 81 28 7 37
15 35 27 -5 26 -48 28 -55 3 -6 -25 -51 -29 -60 -5 -8 21 28 67 58 75 35 10
33 10 68 -2z m290 0 c38 -14 51 -35 51 -88 l0 -41 -61 0 c-60 0 -60 0 -57 -27
3 -32 44 -46 54 -19 4 10 18 16 35 16 35 0 39 -25 10 -61 -27 -34 -99 -34
-135 0 -23 22 -26 32 -26 96 0 79 20 120 63 128 12 2 25 5 28 6 3 0 20 -4 38
-10z m198 0 c32 -12 43 -26 43 -56 0 -31 -45 -33 -53 -2 -4 13 -12 20 -24 17
-31 -6 -27 -34 7 -48 78 -32 101 -82 61 -131 -15 -19 -29 -24 -66 -24 -37 0
-51 5 -66 24 -29 36 -25 61 11 61 24 0 30 -4 30 -21 0 -15 5 -20 23 -17 39 5
27 38 -23 61 -89 43 -75 132 22 146 4 1 19 -4 35 -10z m220 -13 c6 -6 13 -22
15 -36 2 -21 -2 -26 -23 -28 -20 -2 -28 2 -32 18 -4 14 -12 21 -24 18 -29 -5
-21 -32 15 -50 73 -36 92 -81 53 -129 -15 -19 -29 -24 -66 -24 -37 0 -51 5
-66 24 -29 36 -25 61 10 61 21 0 30 -6 34 -21 7 -25 40 -22 45 4 3 12 -9 23
-42 37 -51 21 -70 54 -60 97 12 45 104 65 141 29z m182 13 c17 -6 36 -19 41
-29 6 -10 10 -62 10 -115 l0 -96 -37 1 c-21 1 -50 -2 -65 -6 -45 -10 -78 18
-78 66 0 44 20 64 83 81 28 7 37 15 35 27 -5 25 -45 27 -58 3 -16 -30 -60 -29
-60 2 1 28 20 54 51 66 32 13 40 13 78 0z m319 -22 c16 -15 22 -32 22 -64 l0
-43 -61 0 c-60 0 -60 0 -57 -27 3 -32 44 -46 54 -19 8 22 64 22 64 0 0 -69
-100 -95 -157 -42 -20 19 -23 32 -23 98 0 67 3 79 23 97 12 11 29 23 37 26 25
9 73 -4 98 -26z m1000 -3 c19 -21 22 -36 22 -99 0 -70 -1 -74 -32 -100 -27
-23 -39 -26 -71 -22 -59 8 -80 35 -85 107 -3 36 1 72 9 91 24 60 111 73 157
23z m240 9 c8 -11 12 -53 12 -120 l0 -103 -30 0 -30 0 0 90 c0 75 -3 92 -17
97 -32 12 -53 -32 -53 -113 l0 -74 -30 0 -30 0 0 120 0 120 29 0 c16 0 31 -5
33 -12 3 -8 11 -7 29 5 27 20 67 15 87 -10z m530 -9 c15 -17 22 -38 22 -65 l0
-39 -61 0 c-60 0 -60 0 -57 -27 3 -32 44 -46 54 -19 4 10 18 16 35 16 35 0 40
-29 9 -60 -27 -27 -63 -34 -105 -20 -46 15 -55 34 -55 123 0 64 3 76 23 94 12
11 29 23 37 26 28 11 75 -3 98 -29z m539 12 c6 -6 13 -54 15 -116 l3 -105 -32
-3 -33 -3 0 91 c0 72 -3 92 -15 96 -33 13 -45 -15 -45 -102 l0 -84 -35 0 -35
0 0 120 0 120 35 0 c19 0 35 -4 35 -9 0 -6 12 -3 28 4 28 15 58 12 79 -9z
m218 -7 c17 -16 21 -36 23 -120 l4 -100 -44 1 c-23 1 -54 -1 -68 -5 -35 -9
-80 27 -80 64 0 39 19 60 70 75 33 10 46 19 48 35 4 28 -33 29 -50 1 -13 -20
-52 -27 -62 -12 -10 16 29 76 54 84 36 10 82 0 105 -23z m394 20 c36 -13 61
-53 61 -99 l0 -30 -59 0 c-63 0 -76 -8 -66 -40 8 -24 55 -28 55 -5 0 11 11 15
36 15 32 0 35 -2 29 -22 -13 -43 -42 -63 -90 -63 -64 0 -87 27 -93 105 -5 75
11 118 52 136 38 16 36 16 75 3z m249 0 l43 2 -3 -155 c-3 -134 -5 -157 -22
-175 -42 -46 -144 -35 -166 19 -14 35 -7 50 25 50 15 0 26 -7 30 -20 8 -26 51
-27 65 -1 5 11 10 30 10 42 0 18 -3 20 -12 11 -7 -7 -29 -12 -49 -12 -56 0
-79 34 -79 116 0 97 31 141 90 127 14 -4 44 -5 68 -4z m240 -25 c19 -22 22
-36 22 -120 l0 -95 -42 1 c-24 1 -54 -1 -68 -5 -35 -9 -80 27 -80 64 0 27 31
71 51 71 5 0 25 7 44 14 25 11 33 19 29 30 -9 22 -41 20 -54 -4 -11 -20 -54
-28 -64 -12 -10 16 29 76 54 84 40 11 83 0 108 -28z m-3048 -94 l0 -120 -35 0
-35 0 0 113 c0 63 3 117 7 120 3 4 19 7 35 7 l28 0 0 -120z m2280 63 c19 -91
25 -93 45 -14 17 68 18 71 47 71 29 0 30 -2 24 -33 -3 -19 -25 -99 -49 -178
l-42 -144 -34 -3 c-28 -3 -32 -1 -28 15 30 103 30 93 -2 206 -17 58 -34 113
-37 122 -5 12 2 15 28 15 34 0 35 -1 48 -57z m-2299 -2853 c12 0 19 -7 19 -19
0 -30 41 -14 54 21 14 36 25 32 53 -22 31 -58 31 -103 -1 -118 -14 -6 -30 -20
-36 -32 -13 -23 -3 -25 24 -5 30 23 56 19 56 -8 0 -27 -17 -47 -41 -47 -9 0
-24 -11 -33 -25 -18 -27 -21 -39 -7 -30 5 3 11 -5 13 -17 3 -21 5 -21 26 12
l23 35 -4 -120 c-3 -111 -6 -126 -39 -200 -19 -44 -43 -106 -52 -137 -20 -68
-44 -88 -107 -88 -49 0 -152 38 -235 86 -63 37 -47 13 20 -30 56 -36 106 -84
106 -101 0 -6 -11 -27 -25 -47 -14 -20 -25 -40 -25 -44 0 -13 60 49 82 84 20
32 48 43 48 19 0 -17 -43 -75 -69 -93 -34 -24 -152 -46 -221 -41 -78 5 -136
32 -179 84 -43 52 -81 131 -81 168 0 33 42 107 78 139 25 22 26 19 11 -20 -10
-27 -10 -28 10 -10 10 9 22 28 25 40 9 35 50 23 71 -21 23 -48 28 -36 9 20
-13 39 -20 47 -40 47 -33 0 -132 57 -152 88 -22 34 -20 127 4 153 9 10 27 19
39 19 31 0 102 -65 110 -100 6 -26 46 -70 65 -70 3 0 6 21 6 48 -1 66 8 86 34
72 19 -10 20 -8 21 42 1 29 5 64 9 78 7 22 8 20 9 -15 2 -65 14 -72 45 -25 14
22 31 40 36 40 6 0 10 26 10 57 0 31 3 53 7 49 5 -4 13 12 19 36 11 47 15 48
107 32 42 -7 66 7 68 40 2 20 2 20 6 -1 3 -15 12 -23 24 -23z m2475 -636 c15
-78 -16 -190 -60 -219 -19 -13 -31 -10 -109 23 -48 20 -87 42 -87 49 0 9 7 10
26 3 42 -17 56 -13 44 10 -8 15 -8 21 2 24 106 31 158 70 158 117 0 41 18 36
26 -7z m298 -489 c107 -107 151 -280 162 -637 10 -330 -34 -645 -116 -835 -30
-70 -124 -158 -276 -258 -210 -139 -248 -152 -358 -124 -40 10 -46 8 -91 -20
-39 -25 -60 -31 -102 -31 -29 0 -53 4 -53 9 0 16 29 33 52 29 l23 -5 -25 -11
-25 -11 26 0 c57 -2 41 56 -39 141 -61 66 -97 84 -128 67 -58 -30 -27 32 41
83 27 20 58 54 68 75 29 57 46 73 88 79 35 6 40 11 55 53 32 92 36 100 52 114
15 14 123 60 128 54 1 -1 7 -13 13 -25 19 -36 22 -21 6 25 -13 36 -12 48 1 95
20 68 28 77 76 84 41 7 111 49 144 85 10 12 -6 3 -36 -20 -30 -22 -58 -41 -61
-41 -20 0 -25 135 -9 221 6 30 13 79 16 109 15 167 74 430 126 554 30 73 70
124 123 157 46 29 79 24 119 -16z m-2523 -908 l26 -31 -28 -54 c-35 -66 -36
-93 -5 -147 l25 -42 -34 -48 c-29 -40 -35 -45 -40 -29 -3 10 -15 37 -26 59
-18 38 -19 44 -4 78 20 49 19 72 -6 122 l-21 42 33 58 c29 51 34 56 43 40 6
-10 23 -32 37 -48z m467 0 c25 -24 27 -44 7 -71 -8 -11 -15 -28 -15 -37 0 -10
-6 -30 -14 -46 -8 -15 -20 -47 -26 -71 l-11 -43 -37 29 c-20 16 -47 32 -59 36
-12 4 -28 19 -36 34 -10 21 -19 27 -45 26 -31 -1 -32 0 -32 42 0 24 5 46 10
49 6 3 10 15 10 26 0 39 25 52 90 44 36 -4 66 -3 77 4 22 13 51 5 81 -22z
m-328 -602 c42 -22 54 -58 39 -115 -6 -25 -14 -108 -18 -185 -8 -153 -18 -184
-73 -225 l-29 -21 7 28 c4 15 14 38 22 51 8 12 10 22 4 22 -9 0 -52 -89 -52
-109 0 -11 -79 -81 -91 -81 -5 0 0 15 11 33 28 48 82 177 78 189 -2 5 -19 -28
-38 -73 -43 -102 -80 -154 -116 -163 -36 -9 -53 8 -31 32 20 22 87 184 87 209
0 10 -18 -26 -39 -79 -21 -53 -52 -114 -70 -134 -17 -21 -31 -42 -31 -47 0
-10 59 -5 128 11 31 7 40 6 34 -2 -5 -6 -12 -22 -15 -36 -4 -14 -21 -48 -40
-77 -27 -42 -38 -75 -56 -175 -30 -160 -47 -220 -81 -287 -15 -31 -31 -72 -35
-91 -5 -21 -24 -50 -50 -75 -27 -26 -48 -60 -59 -91 -23 -71 -35 -182 -24
-224 11 -39 105 -138 154 -161 23 -11 36 -31 59 -89 17 -42 42 -96 57 -121 32
-54 130 -148 193 -185 25 -14 45 -27 45 -29 0 -1 -118 -2 -261 -1 l-262 1 -34
115 c-19 63 -40 158 -48 210 -13 94 -33 183 -80 370 -18 72 -26 133 -30 251
-6 185 -17 254 -52 333 -22 50 -25 69 -20 120 4 47 2 71 -12 101 -13 29 -16
54 -12 88 l6 48 19 -32 c12 -20 21 -59 24 -103 5 -81 13 -96 52 -96 15 0 33
-7 40 -15 14 -17 46 -20 55 -5 3 5 11 7 18 5 15 -6 27 2 55 39 12 16 33 34 45
40 15 8 30 36 50 95 l29 84 -27 81 c-27 78 -45 114 -45 87 0 -7 12 -47 27 -88
l26 -75 -18 -56 c-21 -69 -42 -112 -55 -112 -5 0 -2 12 6 28 7 15 14 43 14 62
0 39 -24 164 -39 201 -14 36 -13 3 4 -84 8 -43 15 -95 15 -115 0 -35 -37 -129
-62 -160 -20 -23 -26 7 -13 58 16 60 0 249 -19 229 -2 -2 0 -29 6 -59 16 -85
-4 -235 -32 -250 -32 -17 -43 11 -35 87 10 84 7 129 -11 168 l-13 30 7 -40
c13 -75 -1 -210 -24 -219 -21 -8 -31 15 -37 84 -6 74 -46 166 -105 242 -20 26
-50 77 -66 115 -17 37 -45 90 -63 117 -33 48 -33 48 -15 78 21 36 97 88 128
88 23 0 100 -56 144 -105 25 -28 177 -155 223 -187 14 -10 38 -50 58 -99 30
-74 34 -80 37 -51 3 26 7 31 25 29 20 -2 22 3 25 50 2 29 -2 61 -8 72 -8 16
-3 43 27 128 35 103 39 111 104 173 37 36 75 81 84 100 31 64 45 73 97 67 26
-3 61 -13 78 -22z m1094 -57 c13 -29 47 -78 75 -108 28 -30 49 -61 46 -67 -7
-19 28 -16 108 11 139 46 176 41 242 -36 l34 -40 -80 -98 c-93 -114 -124 -140
-244 -208 -142 -79 -152 -76 -55 18 47 45 76 78 65 72 -11 -6 -51 -42 -90 -82
-63 -64 -121 -110 -139 -110 -16 0 62 131 112 190 l56 65 -58 -55 c-32 -30
-68 -75 -81 -100 -12 -25 -33 -56 -45 -70 l-21 -25 5 46 c8 67 41 150 83 206
21 26 30 42 20 35 -37 -31 -87 -123 -104 -192 -15 -63 -19 -69 -30 -54 -19 25
-16 93 6 163 18 57 67 136 130 205 14 16 19 25 9 20 -24 -13 -118 -134 -135
-173 l-15 -34 -24 49 c-24 49 -24 43 2 -28 8 -21 11 -51 7 -69 l-6 -32 -23 44
c-27 51 -31 48 -8 -6 16 -38 14 -55 -3 -33 -9 11 -43 103 -43 115 0 2 5 1 10
-2 6 -3 2 9 -9 27 -18 32 -18 36 0 138 9 58 18 130 18 162 1 50 4 59 32 82 24
20 41 26 79 26 l49 0 25 -52z m-2680 -80 c-3 -13 -3 -20 1 -16 4 4 17 2 29 -4
11 -7 25 -11 30 -10 4 2 14 -5 20 -14 7 -9 28 -16 54 -17 23 -1 42 -4 42 -7 0
-12 66 -29 90 -24 18 4 21 3 11 -4 -11 -8 -10 -11 5 -16 23 -7 282 -260 307
-298 25 -39 23 -62 -5 -54 -76 21 -116 26 -153 17 -22 -5 -30 -9 -18 -10 13
-1 24 -10 29 -23 l7 -23 10 23 c7 15 18 22 36 21 23 0 24 -1 6 -8 -21 -8 -25
-28 -24 -108 0 -37 -3 -43 -20 -43 -14 0 -19 -5 -15 -15 3 -8 0 -17 -7 -20 -8
-3 -15 -16 -15 -29 -1 -17 2 -23 12 -19 11 4 14 -15 14 -106 0 -99 -2 -111
-17 -112 -12 -1 -10 -4 7 -9 24 -8 24 -8 3 -9 -28 -1 -30 -26 -6 -53 12 -13
14 -21 6 -26 -6 -4 -14 -45 -16 -92 -7 -107 -8 -112 -19 -127 -6 -7 -8 -19 -5
-27 4 -10 1 -13 -9 -9 -7 3 -14 10 -14 16 0 6 -2 8 -5 5 -11 -11 8 -38 26 -38
10 0 19 -4 19 -10 0 -5 -4 -10 -10 -10 -5 0 -10 -5 -10 -11 0 -5 3 -8 8 -6 4
3 8 -6 8 -19 1 -13 0 -24 -1 -24 -2 0 -17 24 -34 54 -39 68 -77 169 -101 267
-10 43 -25 88 -34 101 -20 28 -20 69 -1 173 17 94 18 125 6 144 -8 12 -12 12
-25 2 -9 -8 -16 -18 -16 -23 0 -6 7 -5 15 2 13 11 15 6 15 -39 0 -29 -4 -50
-8 -47 -5 3 -6 -9 -4 -26 l5 -31 -37 28 c-70 54 -74 98 -16 211 39 77 49 114
31 114 -6 0 -9 -8 -9 -17 0 -10 -13 -47 -29 -81 l-30 -64 -25 49 c-14 26 -41
77 -61 113 -57 104 -128 340 -101 340 3 0 14 -5 25 -10 22 -12 22 -10 10 24
-6 13 -7 26 -3 29 4 2 1 2 -5 1 -17 -4 -16 -2 4 41 19 40 28 46 17 13z m2383
-70 c9 -21 19 -38 23 -38 8 0 50 -35 50 -41 0 -2 -30 -4 -67 -5 -38 0 -94 -3
-125 -6 l-58 -6 17 29 c9 15 21 25 26 22 6 -3 7 -1 3 6 -7 11 48 90 83 119 13
11 17 9 24 -15 5 -15 15 -45 24 -65z m65 -114 c5 -3 7 -18 3 -32 -3 -14 -2
-37 3 -51 6 -14 16 -48 23 -74 6 -27 27 -67 46 -89 21 -26 33 -50 33 -70 0
-17 7 -36 17 -43 15 -12 15 -19 -1 -113 -14 -82 -16 -110 -7 -154 14 -66 53
-135 120 -211 28 -32 51 -62 51 -66 0 -15 -59 -33 -86 -27 -41 11 -210 132
-287 205 -171 164 -209 292 -152 514 35 134 76 214 112 220 33 6 110 0 125 -9z
m665 -215 c64 -25 125 -80 188 -173 l40 -58 -51 -47 c-42 -38 -103 -78 -254
-170 -8 -5 -12 -12 -8 -16 3 -3 15 -1 27 6 17 11 26 10 55 -3 71 -34 122 -138
156 -317 29 -151 27 -173 -14 -214 -37 -38 -83 -51 -121 -37 -14 5 -130 114
-258 242 -254 253 -283 293 -294 401 -7 73 15 217 33 217 8 0 14 -4 14 -10 0
-11 48 5 70 24 8 7 30 16 49 20 34 6 196 97 243 136 30 25 54 25 125 -1z m264
-495 c-3 -175 7 -245 55 -406 16 -54 18 -124 4 -133 -17 -10 -90 74 -110 128
-11 28 -29 93 -40 142 -44 189 -84 267 -162 315 l-28 17 87 53 c49 30 108 62
133 71 42 16 46 16 54 1 6 -10 9 -94 7 -188z"/>
<path d="M6613 9773 c-20 -4 -23 -11 -23 -51 l0 -47 85 0 85 0 0 46 c0 40 -3
48 -22 53 -25 6 -90 6 -125 -1z"/>
<path d="M390 8700 c-17 -33 -32 -46 -71 -62 -44 -18 -50 -24 -47 -47 3 -25 5
-26 63 -23 33 1 81 5 106 8 34 4 48 2 58 -10 16 -19 59 -20 82 -3 23 17 49 72
49 101 0 19 -7 26 -30 31 -17 4 -44 14 -62 22 -17 9 -53 18 -79 21 -47 4 -48
4 -69 -38z"/>
<path d="M771 8556 c-7 -8 -24 -13 -40 -11 -15 2 -40 -3 -55 -10 -15 -8 -33
-12 -41 -8 -8 3 -15 1 -15 -5 0 -5 -12 -13 -27 -17 -15 -3 -31 -11 -34 -17 -4
-6 -27 -12 -52 -15 -34 -4 -50 -1 -62 11 -20 20 -33 20 -80 0 -20 -8 -47 -14
-59 -13 -57 4 -58 2 -51 -50 5 -40 4 -49 -10 -55 -9 -3 -25 -1 -36 4 -20 11
-86 4 -94 -11 -8 -11 25 -27 72 -35 29 -4 44 -2 56 10 9 9 29 19 46 22 16 4
38 15 47 25 25 28 41 23 55 -16 11 -28 17 -34 38 -31 15 1 36 9 48 17 30 18
36 8 24 -38 -27 -94 -7 -104 104 -49 75 37 125 77 125 99 0 27 127 97 144 80
3 -4 6 8 6 26 0 23 -10 41 -35 66 -37 38 -56 43 -74 21z"/>
<path d="M179 7513 c-10 -11 -14 -44 -14 -101 l0 -85 -35 -12 c-33 -11 -35
-15 -32 -51 5 -55 18 -73 68 -94 24 -11 47 -26 50 -35 4 -8 15 -15 25 -15 18
0 18 2 6 28 -8 15 -22 69 -32 120 l-18 92 28 61 c22 50 25 66 16 85 -12 28
-42 31 -62 7z"/>
<path d="M1044 7350 c-7 -7 -7 -36 -1 -85 9 -72 8 -77 -22 -139 -31 -64 -39
-106 -22 -106 5 0 35 24 67 54 54 52 56 56 49 93 -4 21 -8 64 -9 95 -3 71 -34
116 -62 88z"/>
<path d="M341 6908 c-27 -48 -28 -54 -15 -69 18 -20 59 -32 83 -24 36 11 58
99 35 137 -3 4 -20 8 -39 8 -30 0 -37 -6 -64 -52z"/>
<path d="M542 6848 c-7 -7 -12 -35 -12 -63 0 -50 -1 -51 -37 -64 -21 -8 -51
-24 -66 -37 -16 -13 -41 -26 -55 -29 -71 -15 -77 -23 -80 -117 -2 -68 1 -89
13 -102 9 -9 21 -14 26 -11 14 9 47 -13 55 -37 3 -13 15 -31 25 -41 19 -18 19
-19 -2 -48 -12 -17 -19 -41 -17 -58 2 -21 -4 -35 -22 -49 -25 -20 -25 -21 -7
-50 9 -17 17 -33 17 -36 0 -10 -47 -56 -57 -56 -6 0 -16 -6 -22 -14 -10 -11
-7 -24 10 -58 20 -38 22 -56 20 -167 l-2 -124 53 7 c29 4 57 11 61 15 15 14
27 83 27 153 0 55 4 71 23 91 35 38 148 131 187 155 63 37 82 58 67 71 -10 8
-21 3 -46 -23 -18 -19 -47 -37 -64 -40 -17 -4 -48 -18 -69 -32 -65 -46 -94
-15 -67 71 7 22 13 63 14 90 0 45 7 60 63 139 34 49 62 97 62 107 0 26 -26 30
-47 7 -10 -11 -30 -26 -46 -34 -24 -13 -28 -13 -33 1 -15 38 4 134 45 237 31
75 42 114 37 132 -7 28 -33 35 -54 14z"/>
<path d="M971 6467 c-5 -12 -17 -67 -27 -122 -15 -78 -25 -107 -46 -131 l-27
-31 30 -22 c30 -22 30 -24 24 -85 l-7 -63 33 -7 c18 -3 34 -4 37 -2 6 6 30
171 43 298 11 99 10 110 -7 135 -10 16 -18 31 -17 35 2 3 -4 9 -13 12 -9 4
-18 -3 -23 -17z"/>
<path d="M409 5137 c-9 -7 -20 -28 -24 -47 -4 -19 -16 -50 -27 -68 -18 -29
-19 -37 -8 -58 18 -33 45 -39 86 -19 38 18 39 20 19 55 -8 14 -15 43 -16 65 0
22 -4 50 -7 62 -6 18 -10 20 -23 10z"/>
</g>
</svg>
