<?xml version="1.0" standalone="no"?>
<!DOCTYPE svg PUBLIC "-//W3C//DTD SVG 20010904//EN"
 "http://www.w3.org/TR/2001/REC-SVG-20010904/DTD/svg10.dtd">
<svg version="1.0" xmlns="http://www.w3.org/2000/svg"
 width="720.000000pt" height="1280.000000pt" viewBox="0 0 720.000000 1280.000000"
 preserveAspectRatio="xMidYMid meet">
<metadata>
Created by potrace 1.16, written by Peter Selinger 2001-2019
</metadata>
<g transform="translate(0.000000,1280.000000) scale(0.100000,-0.100000)"
fill="#000000" stroke="none">
<path d="M0 6400 l0 -6400 3600 0 3600 0 0 1294 c0 1224 -1 1295 -18 1300 -9
3 -34 0 -55 -8 -84 -29 -174 14 -199 96 -23 76 28 128 124 128 30 0 57 3 61 6
11 11 -25 72 -49 83 -32 14 -82 3 -89 -20 -7 -20 -47 -35 -64 -24 -15 8 -13
46 2 66 43 57 177 51 231 -10 10 -11 27 -45 37 -73 18 -52 18 -40 19 700 0
413 -4 752 -8 752 -15 0 -42 58 -42 89 0 21 9 41 25 57 17 17 25 36 25 60 0
31 -2 34 -15 21 -17 -17 -51 -12 -59 10 -8 20 22 62 50 69 l24 6 0 224 c0 202
-2 224 -17 224 -26 0 -83 49 -114 98 -50 80 -48 181 6 216 14 9 46 16 75 16
l50 0 0 345 c0 334 -1 345 -19 345 -23 0 -51 -25 -51 -45 0 -7 11 -56 25 -107
14 -51 25 -96 25 -100 0 -5 -13 -8 -30 -8 -33 0 -27 -13 -75 183 -30 124 -29
142 11 127 15 -6 47 -8 71 -4 l43 6 0 554 c0 436 -3 554 -12 555 -7 1 -34 1
-60 -1 -94 -4 -168 46 -168 113 0 53 12 61 94 65 42 2 76 9 76 14 0 19 -59 68
-83 68 -13 0 -35 -9 -47 -20 -30 -26 -54 -22 -58 10 -5 33 22 50 80 50 83 0
142 -38 166 -105 7 -21 11 774 11 2673 l1 2702 -3600 0 -3600 0 0 -6400z
m6796 3680 c151 -69 198 -267 95 -405 -25 -34 -27 -41 -14 -50 14 -10 14 -14
-2 -38 -22 -35 -90 -46 -136 -23 -33 16 -80 14 -147 -6 -47 -14 -99 -2 -118
28 -13 20 -14 27 -4 39 11 13 9 19 -8 38 -85 90 -82 268 6 360 77 81 220 106
328 57z m-653 4 c29 -10 64 -34 92 -62 124 -125 89 -333 -68 -412 -133 -66
-310 -20 -370 96 -47 91 -44 191 7 276 25 43 43 59 94 85 54 28 75 33 131 33
37 0 88 -7 114 -16z m-5802 -244 c21 -91 39 -168 39 -172 0 -5 -15 -8 -33 -8
-28 0 -34 4 -42 32 -9 29 -14 32 -50 31 -36 0 -40 -3 -47 -31 -8 -28 -13 -32
-42 -32 l-34 0 14 58 c7 31 26 110 41 175 l27 118 44 -3 45 -3 38 -165z m369
78 l1 -93 30 38 c23 27 39 37 60 37 16 0 29 -3 29 -6 0 -4 -16 -28 -35 -53
-30 -41 -33 -50 -21 -67 7 -10 25 -40 40 -66 l27 -48 -35 0 c-30 0 -38 5 -57
40 -26 45 -39 43 -39 -6 0 -31 -2 -34 -30 -34 l-30 0 0 175 0 175 30 0 30 0 0
-92z m1740 -83 l0 -176 -42 1 c-24 1 -55 -1 -69 -5 -19 -5 -33 -1 -55 18 -28
24 -29 29 -28 107 1 68 4 85 21 102 22 21 54 27 91 14 21 -7 22 -5 22 53 l0
61 30 0 30 0 0 -175z m452 83 l3 -92 25 37 c20 30 31 37 58 37 30 0 42 -12 24
-24 -5 -3 -21 -23 -36 -44 l-27 -40 40 -66 41 -66 -34 0 c-28 0 -38 7 -62 43
l-29 42 -3 -42 c-3 -42 -4 -43 -38 -43 l-34 0 0 175 0 175 35 0 34 0 3 -92z
m728 27 l0 -66 30 16 c33 17 60 13 85 -11 11 -12 15 -40 15 -120 l0 -104 -30
0 -30 0 0 90 c0 75 -3 92 -16 97 -37 14 -49 -10 -52 -101 l-3 -86 -29 0 -30 0
0 175 0 175 30 0 30 0 0 -65z m530 4 c0 -58 1 -60 23 -53 76 26 107 -8 107
-118 0 -71 -2 -81 -26 -105 -20 -20 -31 -24 -52 -18 -15 4 -46 6 -69 5 l-43
-1 0 176 0 175 30 0 30 0 0 -61z m-1480 -9 c0 -38 2 -40 30 -40 25 0 30 -4 30
-25 0 -21 -5 -25 -30 -25 l-31 0 3 -67 c3 -66 4 -68 31 -71 21 -3 27 -8 23
-19 -3 -8 -6 -19 -6 -24 0 -16 -73 -10 -92 8 -14 13 -18 31 -18 90 0 66 -2 75
-20 80 -13 3 -20 14 -20 29 0 17 6 24 20 24 16 0 20 7 20 33 0 40 6 47 37 47
20 0 23 -5 23 -40z m-2096 -61 c24 -23 34 -121 17 -172 -15 -44 -59 -66 -97
-48 -14 6 -27 11 -29 11 -3 0 -5 -30 -5 -66 l0 -65 -27 3 -28 3 -3 179 -2 179
37 -5 c21 -3 47 -2 58 3 26 10 55 2 79 -22z m405 20 c44 -16 51 -35 51 -143
l0 -96 -47 -1 c-27 0 -60 -1 -75 -1 -40 -1 -58 19 -58 63 0 43 20 63 83 80 28
7 37 15 35 27 -5 26 -48 28 -55 3 -4 -14 -13 -21 -29 -21 -65 0 -15 96 52 99
6 1 25 -4 43 -10z m290 0 c38 -14 51 -35 51 -88 l0 -41 -61 0 c-60 0 -60 0
-57 -27 3 -32 44 -46 54 -19 4 10 18 16 35 16 35 0 39 -25 10 -61 -15 -19 -29
-24 -66 -24 -39 0 -51 5 -71 28 -20 24 -24 39 -24 96 0 75 21 116 63 124 12 2
25 5 28 6 3 0 20 -4 38 -10z m198 0 c32 -12 43 -26 43 -56 0 -31 -45 -33 -53
-3 -7 26 -47 27 -47 1 0 -11 12 -23 30 -31 78 -32 101 -82 61 -131 -15 -19
-29 -24 -66 -24 -37 0 -51 5 -66 24 -29 36 -25 61 11 61 24 0 30 -4 30 -21 0
-15 5 -20 22 -17 40 5 31 32 -19 58 -91 48 -80 135 19 149 4 1 19 -4 35 -10z
m191 0 c29 -10 59 -59 45 -73 -15 -15 -51 -5 -56 15 -4 13 -12 20 -24 17 -29
-5 -21 -32 15 -50 73 -36 92 -81 53 -129 -15 -19 -29 -24 -66 -24 -37 0 -51 5
-66 24 -29 36 -25 61 10 61 21 0 30 -6 34 -21 7 -25 40 -22 45 3 2 12 -11 24
-43 39 -74 35 -86 106 -22 134 39 17 37 17 75 4z m211 0 c17 -6 36 -19 41 -29
6 -10 10 -62 10 -115 l0 -97 -32 3 c-18 1 -48 -1 -66 -5 -50 -12 -82 13 -82
64 0 44 20 64 83 81 28 7 37 15 35 27 -5 25 -45 27 -58 3 -13 -24 -48 -28 -56
-6 -8 20 21 64 49 75 30 12 39 12 76 -1z m318 -21 c17 -16 23 -33 23 -65 l0
-43 -61 0 c-60 0 -60 0 -57 -27 3 -32 44 -46 54 -19 8 20 64 22 64 2 0 -69
-102 -98 -158 -45 -19 17 -22 31 -22 98 0 68 3 80 23 98 12 11 29 23 37 26 25
10 73 -2 97 -25z m1001 -4 c18 -21 22 -36 22 -98 0 -65 -3 -75 -26 -97 -35
-33 -104 -34 -136 -2 -27 28 -37 127 -17 174 24 60 111 73 157 23z m240 8 c8
-10 12 -52 12 -119 l0 -103 -30 0 -30 0 0 90 c0 75 -3 92 -17 97 -32 12 -53
-32 -53 -113 l0 -74 -30 0 -30 0 0 120 0 120 29 0 c16 0 31 -5 33 -11 2 -6 14
-5 33 5 33 17 63 13 83 -12z m529 -4 c17 -16 23 -33 23 -65 l0 -43 -61 0 c-60
0 -60 0 -57 -27 3 -32 44 -46 54 -19 4 10 18 16 35 16 22 0 29 -5 29 -20 0
-42 -64 -79 -115 -66 -52 13 -65 39 -65 124 0 69 3 81 23 99 12 11 29 23 37
26 25 10 73 -2 97 -25z m540 8 c6 -6 13 -57 16 -118 l5 -108 -34 0 -34 0 0 90
c0 72 -3 92 -15 96 -33 13 -45 -15 -45 -102 l0 -84 -35 0 -35 0 0 120 0 120
35 0 c19 0 35 -4 35 -9 0 -6 12 -3 28 4 28 15 58 12 79 -9z m218 -7 c17 -16
21 -35 23 -120 l4 -100 -44 1 c-23 1 -54 -1 -68 -5 -35 -9 -80 27 -80 64 0 39
19 60 70 75 33 10 46 19 48 35 4 28 -33 29 -50 1 -12 -19 -48 -27 -60 -14 -15
14 11 60 43 77 40 20 84 15 114 -14z m400 16 c37 -15 55 -46 55 -96 0 -29 0
-29 -59 -29 -65 0 -73 -5 -64 -38 6 -26 53 -32 53 -7 0 11 11 15 36 15 32 0
35 -2 29 -22 -4 -13 -18 -34 -33 -47 -21 -19 -33 -22 -65 -18 -59 8 -80 35
-85 107 -5 75 11 118 52 136 39 17 40 17 81 -1z m198 1 c15 -8 27 -11 27 -5 0
5 14 9 31 9 l30 0 -3 -154 c-3 -134 -5 -157 -22 -175 -42 -46 -144 -35 -166
19 -7 16 -9 34 -5 39 10 18 44 12 57 -9 27 -42 78 -15 78 41 0 18 -3 20 -12
11 -7 -7 -29 -12 -49 -12 -56 0 -79 34 -79 116 0 72 13 107 44 122 29 14 37
14 69 -2z m285 -22 c19 -22 22 -36 22 -120 l0 -95 -42 1 c-24 1 -55 -1 -70 -5
-21 -6 -32 -2 -52 18 -48 48 -29 99 44 121 33 10 46 19 48 35 4 28 -33 29 -50
1 -12 -19 -48 -27 -60 -14 -15 14 11 60 43 77 43 22 86 16 117 -19z m-3048
-94 l0 -120 -35 0 -35 0 0 113 c0 63 3 117 7 120 3 4 19 7 35 7 l28 0 0 -120z
m2271 103 c0 -10 8 -43 18 -73 l17 -55 19 73 c18 70 20 72 51 72 l32 0 -24
-82 c-79 -281 -76 -273 -113 -276 -28 -3 -33 -1 -27 14 29 76 29 101 -4 209
-17 59 -34 113 -37 121 -4 10 4 14 31 14 27 0 36 -4 37 -17z m-2148 -660 c6
-16 19 -33 27 -40 20 -16 76 -26 101 -18 18 6 20 12 14 46 -7 38 -6 39 23 39
26 0 31 -4 36 -35 8 -39 0 -76 -18 -87 -17 -12 -104 -9 -147 4 -48 14 -119 73
-119 99 0 15 7 19 35 19 29 0 38 -5 48 -27z m912 -60 c3 -49 9 -101 12 -116 5
-27 3 -28 -28 -25 -39 4 -44 18 -53 146 l-5 82 33 0 34 0 7 -87z m-3141 -29
c9 -8 17 -33 17 -55 3 -73 3 -73 82 -74 71 -1 128 -24 153 -62 9 -14 22 -71
30 -127 19 -146 19 -146 -15 -146 -40 0 -47 14 -55 105 -11 130 -15 143 -51
165 -37 23 -63 25 -101 8 l-26 -12 3 -116 c4 -109 3 -115 -16 -118 -11 -1 -26
2 -33 6 -12 8 -28 128 -47 360 l-7 82 25 0 c14 0 33 -7 41 -16z m-251 -85 c42
-11 117 -77 117 -102 0 -31 -47 -20 -89 22 -51 51 -90 60 -136 31 -33 -20 -35
-25 -35 -74 0 -118 114 -189 194 -121 31 27 36 28 60 19 26 -10 18 -40 -16
-69 -31 -26 -37 -27 -104 -22 -71 5 -109 19 -151 56 -21 18 -23 27 -23 134 0
108 1 114 23 125 29 14 112 15 160 1z m867 -129 c147 -94 126 -290 -30 -290
-134 0 -240 88 -240 199 0 56 13 85 52 110 28 19 43 21 100 18 54 -3 77 -10
118 -37z m347 -19 c141 -27 224 -212 132 -294 -30 -28 -36 -29 -103 -25 -95 6
-137 28 -180 92 -56 84 -50 170 13 211 38 25 70 29 138 16z m1104 -33 c3 -5
11 -45 18 -91 17 -116 20 -127 32 -127 6 0 35 20 66 45 41 34 61 44 77 39 39
-12 37 -21 -14 -67 -27 -25 -50 -49 -50 -52 0 -4 39 -48 86 -97 47 -50 83 -93
80 -95 -3 -3 -21 -2 -40 1 -26 5 -51 24 -99 76 -61 66 -96 86 -98 58 0 -7 0
-34 1 -60 1 -45 0 -48 -23 -48 -14 0 -29 6 -35 13 -6 6 -22 98 -37 202 -35
247 -35 228 3 219 15 -4 30 -11 33 -16z m-720 -21 c56 -3 86 -10 112 -26 30
-18 40 -20 58 -10 34 18 134 5 175 -23 41 -28 58 -71 73 -189 14 -111 15 -109
-11 -109 -43 0 -50 14 -64 126 -9 69 -20 114 -31 126 -24 27 -81 40 -112 25
-29 -14 -31 -33 -17 -169 l8 -78 -25 0 c-13 0 -29 6 -35 13 -5 6 -16 57 -23
112 -10 87 -16 103 -40 127 -20 21 -37 28 -66 28 -63 0 -67 -7 -59 -102 14
-149 14 -143 -16 -146 -22 -3 -30 2 -37 20 -7 19 -41 252 -41 282 0 5 17 6 38
3 20 -3 71 -7 113 -10z m1952 -126 c20 -8 26 -19 32 -58 11 -75 17 -81 74 -75
69 6 132 -24 155 -76 18 -41 56 -229 48 -237 -12 -12 -52 -4 -60 13 -5 9 -15
57 -23 106 -10 72 -18 96 -38 117 -27 29 -36 32 -83 30 -48 -2 -50 -30 -14
-213 5 -25 3 -28 -24 -28 -16 0 -32 5 -36 11 -3 6 -14 59 -25 117 -10 59 -25
147 -34 195 -13 77 -14 107 0 107 2 0 15 -4 28 -9z m-713 -36 c54 -28 100 -96
100 -147 0 -20 -3 -20 -102 -13 -55 4 -107 9 -115 12 -27 10 -12 -35 21 -65
43 -37 95 -48 135 -27 32 16 56 12 65 -10 14 -37 -91 -58 -174 -35 -46 13
-103 61 -123 103 -37 78 -27 142 30 187 24 19 35 21 83 15 30 -4 66 -13 80
-20z m513 -56 c42 -11 121 -81 115 -101 -8 -24 -38 -20 -65 10 -78 83 -163 66
-163 -32 0 -104 114 -174 181 -110 46 44 92 5 49 -41 -28 -30 -74 -38 -137
-25 -91 20 -163 105 -163 192 1 98 70 139 183 107z m1491 -77 c4 -7 74 -354
79 -392 1 -10 -6 -14 -23 -13 -14 2 -57 4 -96 6 -60 3 -78 7 -108 31 -80 60
-114 154 -83 228 21 50 77 61 166 33 23 -8 24 -7 17 40 -4 26 -10 54 -13 61
-4 10 4 14 25 14 17 0 33 -4 36 -8z m-781 -13 c22 -6 54 -25 73 -42 30 -28 37
-44 54 -127 11 -52 23 -106 26 -119 7 -22 5 -23 -27 -17 -19 3 -68 7 -109 8
-84 3 -128 25 -156 80 -36 70 19 114 127 102 51 -6 59 -4 59 10 0 9 -11 28
-25 41 -28 29 -95 35 -115 10 -17 -20 -59 -19 -67 2 -4 10 3 24 21 40 30 26
76 30 139 12z m387 -58 c50 -25 76 -70 90 -153 7 -39 18 -86 26 -104 12 -28
11 -33 -2 -38 -8 -3 -28 1 -43 9 -20 10 -37 12 -59 6 -61 -18 -150 17 -178 70
-19 38 -18 65 6 89 16 16 33 20 95 20 41 0 75 4 75 9 0 23 -15 43 -41 56 -39
20 -65 19 -99 -6 -32 -24 -60 -20 -60 9 0 20 24 46 50 54 26 8 104 -3 140 -21z
m1079 -37 c104 -96 162 -250 140 -367 -10 -58 -32 -101 -61 -121 -19 -14 -24
-14 -36 -2 -13 12 -12 19 7 45 69 97 25 311 -90 435 -38 42 -49 66 -30 66 6 0
37 -25 70 -56z m-5538 -34 c14 -8 19 -22 19 -53 1 -23 9 -118 18 -210 10 -92
16 -170 13 -172 -7 -8 -55 -5 -67 3 -7 4 -16 50 -20 102 l-9 94 -60 11 c-54 9
-60 12 -60 34 0 24 2 25 57 22 l58 -2 -7 90 c-6 89 -6 91 16 91 12 0 31 -5 42
-10z m5192 -30 c43 -30 51 -46 71 -143 9 -41 20 -87 26 -102 14 -37 14 -38
-22 -31 -18 4 -59 6 -91 6 -105 -2 -191 64 -173 133 9 37 39 50 118 48 37 -1
68 3 68 8 0 5 -14 23 -31 40 -34 34 -78 41 -99 16 -15 -18 -51 -20 -68 -3 -9
9 -7 17 11 36 20 21 29 23 88 20 50 -3 75 -10 102 -28z m217 -10 c44 1 76 -21
67 -44 -5 -12 -13 -15 -27 -11 -10 3 -28 1 -39 -5 -22 -11 -22 -30 5 -124 20
-70 18 -106 -3 -106 -33 0 -42 15 -58 95 -9 44 -23 106 -30 137 -7 31 -10 60
-7 63 4 4 18 4 32 0 14 -3 41 -6 60 -5z m-5008 -130 c46 -30 62 -72 76 -195 6
-49 12 -96 14 -104 5 -21 -27 -25 -62 -8 -23 12 -38 13 -66 5 -72 -19 -161 13
-202 74 -24 38 -25 40 -9 72 21 45 68 60 158 53 38 -3 71 -2 74 3 12 20 -26
71 -58 77 -47 10 -49 10 -99 -16 -39 -21 -49 -23 -62 -12 -23 19 -20 37 12 61
24 19 37 21 107 18 64 -3 87 -8 117 -28z m190 -17 c8 -10 27 -52 43 -93 50
-129 62 -131 94 -14 13 47 30 88 37 91 38 14 59 -6 104 -102 24 -53 48 -99 53
-102 17 -10 29 15 45 98 16 77 19 84 43 87 41 5 52 -18 35 -69 -7 -24 -24 -88
-37 -143 -13 -54 -29 -100 -36 -103 -31 -12 -61 8 -83 54 -12 27 -36 76 -52
111 -16 34 -33 62 -37 62 -5 0 -18 -33 -30 -72 -12 -40 -25 -84 -29 -98 -6
-20 -14 -25 -40 -25 -25 0 -37 6 -47 25 -31 55 -125 274 -125 291 0 25 41 25
62 2z m1151 8 c22 -9 25 -18 37 -121 8 -61 17 -113 22 -116 4 -3 35 15 67 40
56 43 105 59 125 39 3 -4 -19 -33 -51 -65 l-57 -58 87 -88 c88 -89 107 -120
65 -108 -13 3 -28 6 -34 6 -7 0 -45 34 -85 75 -41 42 -80 74 -89 73 -11 -3
-15 -18 -15 -63 0 -52 -3 -60 -20 -63 -46 -5 -46 -5 -84 298 -10 80 -16 148
-14 153 5 9 17 9 46 -2z m-388 -90 c65 -30 74 -47 96 -181 11 -68 22 -127 25
-131 3 -5 -11 -9 -30 -9 -19 0 -37 4 -41 9 -3 5 -38 7 -78 4 -63 -4 -78 -2
-116 19 -28 15 -52 37 -63 60 -17 33 -18 39 -4 65 20 40 55 53 141 53 65 0 75
2 75 18 0 25 -11 37 -47 56 -42 21 -52 20 -95 -9 -43 -29 -51 -30 -72 -9 -20
19 -6 51 27 64 39 16 139 11 182 -9z m981 -122 c57 -35 94 -106 94 -178 0 -98
-74 -140 -194 -110 -171 43 -223 297 -65 321 41 6 131 -12 165 -33z m1004 12
c5 -10 14 -58 21 -107 16 -122 24 -128 87 -70 36 34 57 46 80 46 17 0 33 -4
36 -9 3 -5 -17 -31 -44 -57 -28 -27 -49 -51 -48 -55 2 -4 40 -46 86 -93 45
-48 82 -89 82 -91 0 -3 -15 -5 -33 -5 -29 0 -44 11 -101 70 -40 42 -76 70 -88
70 -19 0 -20 -4 -14 -60 7 -58 6 -60 -16 -60 -13 0 -28 4 -35 8 -13 8 -78 403
-70 425 7 19 44 11 57 -12z m-615 -42 c4 -6 22 -8 46 -4 53 9 79 -1 79 -31 0
-21 -4 -24 -39 -24 -61 0 -66 -14 -47 -126 9 -52 16 -102 16 -110 0 -15 -55
-20 -64 -5 -7 11 -46 253 -46 286 0 20 5 25 24 25 14 0 28 -5 31 -11z m390
-48 c83 -38 128 -104 129 -188 1 -44 -3 -56 -27 -81 -37 -39 -94 -48 -163 -27
-63 19 -97 44 -129 98 -42 73 -31 175 22 206 29 17 124 12 168 -8z m1299 -28
c5 -16 76 -398 76 -408 0 -2 -45 -2 -100 -1 -87 3 -104 6 -138 29 -88 58 -128
202 -72 262 23 25 30 26 85 22 33 -3 71 -8 84 -12 20 -7 22 -5 18 11 -3 10 -9
40 -13 67 l-6 47 30 0 c20 0 32 -6 36 -17z m158 -33 c4 -14 11 -43 17 -66 l11
-40 62 0 c114 1 151 -39 182 -190 22 -112 21 -124 -8 -124 -32 0 -35 6 -57
115 -25 131 -41 155 -106 155 -61 0 -66 -21 -39 -153 21 -99 21 -97 -13 -97
-20 0 -32 6 -36 19 -8 25 -75 382 -75 399 0 9 10 12 27 10 20 -2 30 -10 35
-28z m-755 -15 c48 -20 71 -41 94 -87 24 -46 25 -88 3 -88 -8 0 -58 5 -110 11
-52 6 -98 9 -101 6 -11 -11 38 -75 66 -86 37 -16 89 -17 103 -3 17 17 43 15
59 -4 36 -44 -98 -72 -179 -38 -73 30 -132 110 -132 180 0 46 25 98 53 112 33
16 103 14 144 -3z m1862 -179 c53 -231 69 -312 64 -318 -7 -12 -40 -9 -51 5
-5 6 -18 50 -27 97 -9 47 -28 132 -41 189 -14 58 -23 110 -20 116 2 7 15 10
30 8 22 -5 27 -14 45 -97z m-564 20 c57 -34 97 -100 103 -170 3 -44 1 -55 -21
-78 -31 -33 -64 -42 -121 -34 -126 19 -222 168 -171 266 8 16 23 34 32 40 30
18 128 5 178 -24z m355 -31 c70 -36 130 -147 115 -214 -9 -41 -58 -81 -99 -81
-114 0 -219 101 -220 212 -1 44 3 53 33 80 32 28 38 30 88 24 30 -4 67 -13 83
-21z m-5513 -49 c62 -32 113 -98 113 -146 0 -35 -26 -75 -62 -94 -25 -13 -51
-17 -103 -14 -67 3 -70 4 -73 29 -3 26 -2 27 51 25 67 -1 97 20 97 69 0 38
-36 82 -74 90 -14 3 -37 7 -51 10 -19 4 -25 12 -25 32 0 25 1 26 49 20 28 -3
63 -12 78 -21z m6157 -20 c37 -15 86 -64 86 -84 0 -20 -51 -6 -70 18 -33 41
-110 49 -110 11 0 -26 22 -42 98 -68 76 -27 109 -54 117 -98 9 -42 -12 -65
-63 -72 -59 -8 -128 14 -168 54 -37 37 -42 51 -19 59 8 4 32 -9 57 -30 36 -31
49 -36 83 -34 35 3 40 6 40 27 0 21 -12 30 -94 65 -64 28 -97 49 -107 66 -32
60 -6 100 68 100 27 0 64 -6 82 -14z m-5487 -14 c7 -4 16 -39 20 -77 l8 -70
67 4 c132 6 189 -49 202 -199 4 -41 10 -92 13 -113 l6 -38 -39 3 c-43 3 -42
-2 -59 172 -6 61 -11 74 -38 99 -28 26 -36 28 -76 23 -25 -3 -49 -12 -53 -19
-7 -9 -3 -190 5 -242 1 -5 -12 -11 -30 -13 -41 -4 -49 11 -57 113 -7 80 -23
247 -31 316 -2 20 -1 39 2 43 9 8 46 7 60 -2z m5777 -13 c82 -23 109 -60 137
-189 6 -30 18 -67 26 -83 12 -24 12 -28 -2 -33 -9 -4 -26 -2 -38 3 -13 6 -45
8 -73 6 -64 -6 -113 14 -149 61 -24 31 -26 41 -19 69 13 44 46 59 117 51 49
-5 57 -4 57 10 0 48 -100 87 -130 51 -16 -19 -59 -19 -66 0 -11 28 34 63 81
64 11 1 38 -4 59 -10z m228 -33 c8 -7 31 -88 53 -180 30 -128 36 -173 29 -194
-10 -29 -38 -38 -80 -28 -33 9 -32 42 1 50 14 4 25 10 25 15 0 5 -18 83 -40
175 -22 91 -40 168 -40 171 0 11 39 4 52 -9z m-6227 -73 c51 -28 105 -112 105
-163 0 -18 -6 -20 -57 -19 -32 0 -93 4 -136 8 -43 3 -81 3 -83 -1 -11 -17 32
-69 71 -88 50 -24 83 -25 129 -3 29 13 38 14 51 3 46 -39 -17 -74 -122 -68
-85 6 -135 33 -183 100 -25 34 -30 50 -30 99 0 32 5 68 11 81 14 30 54 60 92
67 39 8 125 -1 152 -16z m649 -60 c4 -5 44 -8 89 -8 140 0 176 -39 197 -215
16 -131 16 -130 -25 -130 -40 0 -39 -4 -54 145 -9 93 -12 102 -41 128 -32 29
-64 34 -104 16 -35 -16 -37 -28 -26 -132 15 -141 16 -137 -24 -137 -41 0 -43
3 -51 125 -4 50 -10 116 -14 147 -4 32 -5 60 -3 63 8 8 48 6 56 -2z m586 -66
c50 -26 75 -57 94 -112 23 -65 17 -69 -97 -61 -55 3 -110 9 -122 12 -40 10
-38 -23 4 -65 47 -47 103 -61 150 -37 37 20 55 20 70 2 10 -12 8 -19 -8 -35
-64 -64 -227 -27 -297 68 -33 44 -35 50 -31 115 3 66 4 70 42 102 34 30 45 34
95 34 40 0 70 -7 100 -23z m415 -37 c4 -6 35 -7 78 -4 130 10 175 -38 202
-216 9 -57 13 -110 11 -117 -7 -17 -51 -17 -63 0 -6 6 -17 64 -26 127 -14 101
-19 118 -42 137 -32 28 -84 30 -115 5 l-22 -18 15 -110 c8 -60 13 -112 10
-116 -7 -13 -63 -9 -68 5 -8 21 -42 302 -38 310 6 10 51 9 58 -3z m988 -52
c10 -23 24 -38 35 -38 21 0 42 -18 42 -37 0 -7 -11 -13 -24 -13 -14 0 -27 -4
-30 -9 -3 -4 1 -50 10 -102 15 -95 32 -129 64 -129 19 0 34 -26 24 -41 -8 -14
-52 -11 -89 6 -41 20 -52 44 -70 160 -19 115 -22 125 -45 125 -23 0 -54 30
-43 41 4 4 19 9 33 11 18 2 24 8 23 23 -7 59 42 61 70 3z m-454 6 c39 -9 82
-44 97 -79 7 -17 20 -75 28 -127 9 -52 18 -103 22 -112 5 -13 -1 -16 -28 -16
-19 0 -39 5 -44 10 -8 8 -24 7 -55 -1 -109 -29 -236 71 -195 153 18 35 54 48
139 48 42 0 77 2 77 5 0 27 -35 66 -68 75 -38 12 -92 1 -92 -19 0 -15 -38 -20
-56 -7 -24 18 -13 49 23 67 32 16 94 17 152 3z m657 -72 c6 -4 19 -54 29 -112
25 -150 38 -170 110 -170 54 0 68 22 60 94 -4 34 -11 77 -16 96 -16 60 -12 80
15 80 13 0 29 -6 35 -13 15 -19 60 -306 49 -313 -5 -3 -21 -2 -36 2 -15 4 -62
8 -104 8 -61 1 -82 5 -105 22 -53 40 -64 73 -90 267 -5 45 -5 47 18 47 13 0
29 -4 35 -8z m549 -52 c4 -6 25 -8 53 -4 102 13 186 -37 222 -132 25 -69 25
-110 0 -152 -32 -52 -63 -59 -168 -36 l-33 7 7 -62 7 -62 -34 3 -34 3 -36 215
c-20 118 -35 218 -32 223 6 11 41 9 48 -3z m1396 -22 c4 -5 16 -62 28 -127 12
-64 28 -143 36 -176 27 -119 27 -125 2 -125 -12 0 -27 4 -34 8 -10 6 -93 388
-93 428 0 13 6 15 27 9 15 -3 31 -11 34 -17z m-871 -24 c18 -4 49 -23 70 -43
30 -30 39 -48 49 -101 7 -36 19 -90 26 -120 8 -30 10 -59 5 -64 -5 -4 -22 -2
-39 7 -24 12 -39 13 -70 5 -77 -19 -161 16 -187 77 -32 77 10 115 125 115 64
0 69 1 64 20 -8 30 -51 60 -86 60 -16 0 -45 -9 -64 -21 -27 -17 -36 -19 -48
-9 -22 18 -18 36 11 59 28 22 81 27 144 15z m206 -29 c12 -8 43 -57 70 -110
27 -52 54 -93 59 -92 6 2 19 46 30 98 21 98 33 113 68 86 18 -12 17 -18 -7
-132 -48 -221 -56 -249 -78 -272 -24 -26 -65 -30 -93 -9 -24 18 -13 46 19 46
48 0 60 62 25 120 -12 19 -51 86 -86 149 -48 86 -60 116 -51 123 18 11 20 10
44 -7z m490 -56 c43 -26 56 -55 83 -175 11 -49 22 -96 26 -105 9 -23 -17 -30
-49 -14 -20 11 -34 11 -56 3 -18 -6 -51 -7 -77 -3 -64 9 -123 66 -123 117 0
53 26 70 115 76 84 5 93 15 50 57 -31 31 -84 34 -110 5 -22 -24 -48 -26 -66
-4 -12 14 -9 20 20 46 32 28 38 30 92 25 35 -3 73 -14 95 -28z m-5005 -199
c80 -41 104 -119 54 -178 l-25 -30 27 -22 c62 -49 79 -111 46 -168 -23 -41
-63 -52 -181 -52 l-102 0 0 31 0 30 84 -3 c99 -3 126 11 126 69 0 58 -55 93
-145 93 -51 0 -65 9 -65 41 l0 30 63 -7 c84 -9 107 3 107 56 0 49 -23 66 -109
82 -52 10 -61 15 -61 33 0 12 2 24 5 27 10 10 139 -14 176 -32z m1067 -62 c7
-7 12 -34 12 -61 0 -78 8 -85 88 -79 50 3 76 0 98 -11 113 -58 161 -238 84
-312 -38 -37 -83 -45 -150 -27 -30 7 -74 13 -98 12 -35 -1 -44 3 -51 22 -9 21
-51 395 -51 446 0 17 6 22 28 22 15 0 33 -5 40 -12z m-809 -67 c12 -8 39 -220
41 -319 0 -32 -1 -33 -37 -30 -32 3 -38 7 -44 33 -9 37 -28 307 -22 318 6 10
45 9 62 -2z m187 -15 c14 -11 38 -13 99 -9 92 6 129 -6 165 -57 21 -30 27 -57
45 -237 l6 -63 -36 0 c-42 0 -55 23 -55 98 0 73 -18 163 -36 183 -35 39 -127
35 -146 -5 -7 -16 -6 -57 1 -132 10 -94 9 -110 -4 -120 -25 -19 -63 -5 -69 25
-11 58 -28 300 -23 315 8 20 27 20 53 2z m1502 -48 c7 -7 12 -22 12 -34 0 -25
15 -39 53 -48 40 -9 38 -46 -3 -46 -16 0 -30 -5 -30 -10 0 -6 5 -54 11 -108
11 -101 24 -128 63 -134 28 -4 34 -44 8 -52 -29 -9 -93 16 -113 44 -11 15 -25
66 -34 130 -21 134 -23 140 -45 140 -31 0 -50 11 -50 30 0 14 9 20 33 22 26 2
32 7 33 28 1 14 2 31 3 38 1 15 43 16 59 0z m-236 -70 c22 -13 46 -35 54 -50
12 -22 42 -193 48 -263 1 -23 -37 -33 -58 -16 -9 8 -38 9 -83 5 -45 -4 -83 -2
-106 5 -44 15 -97 76 -97 112 0 61 74 107 154 96 87 -12 105 17 43 69 -37 31
-86 28 -122 -6 -31 -29 -69 -23 -73 11 -3 22 4 30 40 48 54 28 139 23 200 -11z
m633 -47 c66 -30 77 -50 101 -184 11 -67 23 -129 25 -137 5 -19 -46 -27 -66
-10 -11 9 -27 9 -63 1 -35 -7 -60 -7 -93 2 -54 15 -68 24 -97 61 -29 37 -28
78 2 113 23 26 30 28 115 32 88 3 91 4 86 25 -10 34 -53 66 -89 66 -18 0 -46
-10 -65 -24 -62 -46 -109 -3 -51 46 29 24 43 28 95 28 37 0 76 -8 100 -19z
m419 -41 c50 -30 64 -62 80 -185 8 -58 19 -112 25 -119 6 -7 8 -16 4 -19 -10
-11 -58 -8 -69 3 -7 7 -27 7 -62 0 -117 -22 -231 58 -202 144 15 46 64 68 146
65 35 -1 67 0 69 3 11 11 -20 60 -46 74 -41 21 -74 17 -100 -11 -27 -28 -47
-31 -73 -12 -15 11 -17 17 -7 35 6 12 24 29 39 37 39 22 146 14 196 -15z m217
-75 c86 -169 81 -160 93 -143 6 8 17 44 25 79 22 107 25 114 55 117 53 6 52
-1 -8 -218 -9 -30 -23 -86 -32 -123 -22 -84 -51 -117 -105 -117 -27 0 -41 5
-48 18 -11 22 3 42 29 42 30 0 52 25 53 61 0 25 -18 68 -69 159 -38 69 -77
142 -86 163 l-18 38 38 -3 c35 -3 39 -7 73 -73z m507 13 c45 -28 92 -102 92
-146 l0 -34 -77 6 c-43 4 -97 9 -120 13 -37 5 -43 3 -43 -13 1 -23 37 -67 67
-83 28 -14 88 -14 115 0 25 13 68 3 68 -16 0 -27 -46 -46 -112 -47 -91 -2
-160 37 -198 112 -40 80 -37 140 12 196 28 32 34 34 95 34 50 0 74 -5 101 -22z
m1131 -8 c10 -5 21 -23 24 -39 5 -23 14 -32 34 -37 41 -10 60 -44 24 -44 -37
0 -41 -21 -22 -116 24 -115 27 -122 61 -129 32 -7 48 -34 28 -47 -18 -12 -79
0 -101 20 -30 27 -38 48 -57 159 -10 57 -20 106 -22 107 -1 2 -16 8 -33 13
-40 13 -45 41 -8 45 23 2 28 7 25 28 -5 47 10 60 47 40z m-562 -47 c40 -32 55
-67 82 -193 10 -47 20 -92 22 -100 5 -19 -46 -27 -65 -10 -10 8 -26 7 -58 -1
-99 -27 -202 39 -196 124 4 56 43 79 130 78 33 0 65 2 69 5 14 8 -21 61 -48
73 -38 17 -65 13 -93 -14 -23 -22 -31 -24 -53 -16 -36 14 -34 34 6 66 29 24
38 26 100 22 57 -4 74 -9 104 -34z m306 -2 c53 -13 105 -51 117 -86 5 -16 18
-70 29 -120 11 -49 23 -100 26 -112 6 -20 4 -23 -22 -23 -16 0 -34 5 -40 11
-9 9 -20 9 -44 0 -19 -7 -53 -9 -83 -5 -103 14 -167 130 -100 183 22 17 41 21
100 21 82 0 89 8 54 53 -31 40 -82 45 -120 14 -48 -41 -105 -11 -64 35 34 37
76 45 147 29z m484 -53 c10 -13 63 -269 63 -302 0 -13 -7 -17 -32 -14 l-33 3
-27 135 c-35 174 -35 190 -4 190 13 0 28 -6 33 -12z m1510 0 c5 -7 17 -47 26
-88 9 -41 30 -133 47 -205 16 -71 30 -132 30 -136 0 -9 -173 -7 -200 3 -58 22
-114 99 -128 178 -11 61 -7 87 21 118 17 18 31 22 77 22 31 0 61 -5 68 -12 20
-20 26 0 14 53 -7 28 -12 57 -12 65 0 17 44 19 57 2z m-1200 -32 c6 -6 35 -55
63 -109 32 -60 56 -95 62 -89 5 5 13 40 19 78 16 115 16 114 49 114 28 0 30
-3 30 -37 0 -20 -6 -64 -14 -97 -8 -34 -22 -105 -32 -159 -20 -108 -43 -147
-88 -147 -62 0 -77 37 -24 61 19 8 35 25 41 42 8 24 -3 47 -83 187 -51 87 -89
164 -85 170 7 12 44 4 62 -14z m463 -35 c50 -26 74 -68 90 -152 7 -41 19 -91
27 -113 7 -21 13 -42 13 -47 0 -12 -47 -11 -55 0 -3 6 -35 7 -73 4 -79 -7
-116 8 -156 60 -31 40 -33 73 -7 107 17 21 29 25 95 28 85 5 94 15 51 57 -34
35 -83 37 -116 4 -23 -23 -42 -24 -58 -5 -14 17 -1 49 27 65 29 17 124 13 162
-8z m348 -25 c52 -27 70 -58 100 -171 16 -61 32 -117 36 -126 10 -24 -20 -32
-52 -15 -20 10 -33 11 -46 4 -26 -14 -118 -3 -151 18 -54 35 -72 115 -34 150
15 14 40 20 95 22 41 3 74 6 74 9 0 21 -35 63 -60 71 -35 13 -55 8 -87 -20
-46 -42 -87 9 -42 51 18 16 36 21 81 21 33 0 71 -6 86 -14z m753 -85 c64 -45
106 -138 93 -205 -10 -56 -44 -86 -99 -86 -109 0 -199 79 -220 193 -9 48 -1
77 30 111 24 26 31 28 88 24 51 -3 71 -10 108 -37z m-6506 -71 c604 -44 694
-50 820 -60 563 -42 1363 -100 1396 -100 30 0 25 23 69 -315 11 -88 28 -204
36 -259 8 -54 12 -101 9 -104 -9 -9 -66 -6 -1040 53 -1421 86 -1544 94 -1622
101 l-63 6 0 78 c0 44 5 82 10 85 6 4 22 0 35 -9 41 -27 157 -42 213 -28 58
15 112 68 112 109 -1 70 -78 132 -229 184 -81 29 -121 61 -121 99 0 40 32 60
95 60 59 0 107 -25 129 -68 16 -30 34 -42 66 -42 31 0 33 18 8 62 -14 26 -41
54 -72 72 -44 27 -57 30 -145 33 l-96 2 -3 37 -3 36 58 -6 c32 -4 184 -15 338
-26z m2642 -238 c6 -4 17 -41 25 -82 12 -66 16 -75 33 -71 11 2 47 4 80 4 108
0 142 -42 169 -211 23 -147 22 -152 -14 -152 -38 0 -43 13 -61 149 -11 88 -17
110 -38 134 -40 43 -125 39 -137 -8 -3 -13 1 -68 10 -123 22 -136 22 -132 -18
-132 -42 0 -39 -7 -66 180 -11 80 -24 174 -30 210 -15 99 -14 110 13 110 12 0
27 -4 34 -8z m-2975 -61 c24 -11 72 -30 107 -42 91 -32 135 -87 98 -123 -55
-55 -156 -45 -227 23 -38 36 -40 41 -40 99 0 34 4 62 10 62 5 0 29 -9 52 -19z
m4416 -55 c5 -6 15 -49 21 -96 13 -93 28 -150 40 -150 5 0 31 25 59 55 40 43
58 55 81 55 16 0 32 -4 36 -10 3 -5 -17 -34 -45 -65 -27 -30 -50 -60 -50 -66
0 -6 38 -50 85 -99 47 -49 85 -93 85 -99 0 -6 -13 -11 -29 -11 -22 0 -44 16
-102 75 -41 42 -81 75 -92 75 -18 0 -19 -5 -13 -65 l7 -65 -30 0 c-16 0 -32 4
-35 8 -5 9 -32 150 -67 351 -20 120 -18 134 22 124 10 -3 22 -10 27 -17z
m-1606 -18 c16 -14 28 -76 53 -271 20 -154 19 -173 -6 -198 -16 -16 -30 -19
-67 -17 -42 3 -47 5 -47 28 0 18 7 26 25 30 32 7 36 38 21 145 -35 244 -40
279 -35 287 8 12 38 10 56 -4z m756 -52 c58 -30 73 -58 98 -183 13 -65 26
-128 30 -140 6 -21 3 -23 -28 -23 -19 0 -38 4 -43 9 -6 6 -25 6 -50 -1 -116
-31 -235 52 -211 147 11 43 60 65 144 65 39 0 72 4 72 10 0 64 -102 107 -145
60 -11 -12 -31 -20 -52 -20 -28 0 -33 3 -33 24 0 43 43 66 122 66 40 0 80 -6
96 -14z m292 -19 c52 -2 55 -3 58 -29 3 -26 1 -28 -37 -28 -60 0 -65 -16 -43
-155 20 -125 19 -130 -30 -123 -22 3 -25 12 -50 163 -15 88 -25 166 -22 174 3
10 13 11 37 6 17 -3 57 -7 87 -8z m362 -44 c58 -39 108 -123 108 -181 0 -92
-49 -142 -139 -142 -87 0 -158 44 -200 125 -43 81 -18 195 49 223 45 20 134 7
182 -25z m738 -46 c48 -32 66 -68 89 -182 12 -55 24 -110 27 -122 6 -20 3 -23
-23 -23 -16 0 -34 5 -41 12 -9 9 -18 9 -37 0 -55 -25 -138 -7 -183 39 -39 40
-47 71 -27 113 18 39 68 57 145 53 54 -2 64 19 26 58 -32 32 -87 34 -117 4
-13 -13 -30 -19 -47 -17 -38 4 -41 39 -6 67 39 31 148 30 194 -2z m448 -17
c59 1 79 -3 108 -21 34 -21 38 -21 64 -6 78 46 207 -13 223 -102 2 -14 14 -70
26 -125 11 -54 21 -100 21 -102 0 -8 -59 -3 -65 5 -3 5 -16 62 -29 126 -26
127 -40 151 -94 161 -30 6 -39 3 -58 -19 l-22 -25 19 -87 c27 -133 28 -150 4
-153 -11 -1 -25 1 -32 6 -7 4 -23 61 -38 127 -20 98 -30 124 -51 143 -30 26
-85 29 -108 6 -20 -19 -20 -12 4 -129 27 -131 27 -135 -10 -135 -23 0 -31 5
-35 23 -24 107 -45 212 -51 261 l-7 59 29 -7 c16 -4 62 -7 102 -6z m697 -63
c45 -26 62 -61 94 -197 10 -47 22 -93 26 -102 10 -26 -21 -34 -54 -15 -19 11
-31 13 -45 5 -28 -16 -123 -4 -154 19 -15 10 -35 36 -45 57 -38 74 4 120 111
123 35 1 66 4 69 6 8 9 -26 64 -42 71 -35 13 -85 6 -97 -14 -22 -35 -84 -19
-71 19 19 55 133 70 208 28z m345 -19 c31 -16 50 -34 62 -60 15 -32 68 -233
68 -259 0 -12 -47 -12 -54 0 -3 4 -37 6 -75 3 -89 -6 -142 20 -166 81 -30 76
11 121 110 122 70 0 83 18 41 60 -34 34 -85 34 -114 0 -25 -29 -44 -32 -62
-10 -16 20 1 58 34 73 37 18 109 14 156 -10z m271 -8 c73 1 78 0 113 -30 38
-34 60 -92 89 -233 15 -72 11 -83 -27 -73 -20 5 -26 19 -46 108 -33 151 -52
178 -118 178 -55 0 -59 -18 -33 -146 15 -70 20 -119 15 -124 -15 -15 -54 1
-58 24 -3 11 -18 81 -35 154 -17 72 -31 137 -31 143 0 7 10 9 28 4 15 -4 61
-6 103 -5z m-6694 -292 c5 -7 15 -96 22 -198 6 -102 14 -213 18 -247 l6 -63
-35 0 c-20 0 -41 6 -47 14 -12 14 -28 172 -38 379 l-6 127 35 0 c20 0 40 -6
45 -12z m229 -144 c20 -14 30 -15 50 -5 41 19 132 14 170 -9 54 -34 74 -80 84
-194 5 -56 9 -118 10 -138 0 -37 -1 -38 -39 -38 l-39 0 -6 48 c-3 26 -8 87
-12 136 -5 81 -9 92 -34 118 -33 32 -83 37 -130 13 -27 -14 -30 -21 -30 -63 0
-26 4 -84 10 -130 12 -104 8 -114 -39 -110 l-36 3 -7 60 c-3 33 -9 107 -13
165 -3 58 -8 113 -11 122 -12 39 27 51 72 22z m454 -26 c15 -10 27 -10 56 1
51 18 136 6 173 -25 42 -35 58 -86 71 -224 13 -128 10 -140 -30 -140 -35 0
-41 18 -54 150 -13 132 -14 134 -46 163 -28 25 -39 28 -73 24 -22 -3 -49 -14
-60 -25 -19 -19 -19 -26 -8 -140 15 -164 18 -152 -29 -152 -47 0 -44 -8 -59
175 -17 196 -16 205 14 205 14 0 34 -5 45 -12z m2801 0 c10 -9 22 -54 33 -128
9 -63 26 -170 37 -238 11 -67 17 -127 13 -133 -4 -7 -19 -8 -38 -5 -17 4 -40
6 -51 5 -111 -7 -143 -3 -179 25 -49 37 -85 96 -98 161 -27 134 75 222 197
171 19 -8 37 -11 39 -7 3 5 1 35 -4 67 -14 87 -15 83 31 93 3 0 12 -5 20 -11z
m-2065 -31 c81 -2 106 -6 121 -19 24 -22 52 -23 89 -3 63 33 160 11 206 -46
30 -37 39 -78 63 -271 l6 -58 -35 0 c-19 0 -38 5 -41 10 -4 6 -15 70 -25 143
-17 118 -22 134 -45 155 -35 29 -86 29 -121 -1 l-27 -23 12 -96 c6 -53 11
-115 11 -137 0 -40 -1 -41 -35 -41 -40 0 -38 -6 -56 158 -13 126 -26 153 -83
172 -28 9 -42 8 -72 -5 l-37 -15 6 -83 c3 -45 9 -110 13 -144 l7 -63 -40 0
-41 0 -11 103 c-6 56 -16 137 -22 179 -13 88 -8 103 30 93 14 -4 72 -8 127 -8z
m3090 -47 c7 -14 16 -47 21 -75 l8 -50 77 0 c70 0 79 -2 115 -31 96 -78 129
-251 58 -311 -31 -27 -91 -30 -153 -9 -25 9 -44 11 -47 5 -9 -13 -41 -11 -53
4 -10 12 -23 75 -72 352 -26 146 -26 147 7 143 17 -2 32 -12 39 -28z m-2290
-3 c67 -39 114 -106 114 -163 0 -42 -17 -46 -159 -38 -127 7 -135 2 -80 -61
43 -49 95 -63 152 -41 52 20 71 20 86 2 9 -11 8 -18 -4 -30 -59 -58 -186 -55
-267 7 -104 80 -118 234 -29 310 28 24 41 27 99 27 37 -1 76 -6 88 -13z m258
-24 c8 -27 46 -294 46 -326 0 -26 -2 -28 -37 -25 l-38 3 -17 125 c-9 69 -19
151 -23 183 l-8 57 36 0 c25 0 37 -5 41 -17z m216 -2 c139 11 186 -4 220 -72
19 -36 60 -265 52 -288 -2 -6 -19 -11 -37 -11 -39 0 -39 1 -55 140 -6 52 -16
107 -21 122 -20 51 -79 71 -133 46 -34 -15 -40 -37 -27 -101 6 -28 12 -83 14
-122 2 -67 1 -70 -22 -73 -13 -2 -28 1 -34 7 -10 10 -55 288 -57 345 0 16 5
17 38 12 20 -4 48 -6 62 -5z m1204 -85 c113 -86 140 -228 58 -304 -36 -33 -39
-33 -108 -30 -57 3 -79 9 -112 31 -59 39 -102 117 -102 185 0 61 23 117 54
134 59 33 156 25 210 -16z m391 -5 c84 -38 142 -139 133 -233 -5 -44 -11 -57
-42 -85 -31 -29 -43 -33 -89 -33 -104 0 -166 40 -214 137 -42 86 -22 188 42
220 34 17 126 14 170 -6z m954 -41 c41 -11 101 -66 101 -92 0 -28 -38 -22 -77
13 -29 25 -42 30 -76 27 -37 -3 -42 -6 -45 -29 -4 -33 8 -41 88 -64 83 -24
139 -60 146 -94 3 -14 7 -33 8 -42 2 -9 -1 -24 -6 -33 -43 -77 -235 -48 -282
43 -28 53 18 57 70 6 30 -31 41 -35 85 -35 36 0 51 4 56 16 7 19 -12 63 -29
69 -7 2 -45 13 -84 25 -87 25 -125 61 -127 115 -2 71 73 104 172 75z m349 -16
c17 -4 48 -20 67 -38 34 -29 39 -41 71 -170 19 -77 30 -144 26 -148 -5 -5 -20
-4 -34 1 -14 5 -51 7 -81 4 -103 -11 -163 17 -190 87 -23 58 -7 95 49 114 27
9 62 14 83 11 53 -8 67 5 47 42 -28 55 -103 66 -134 21 -9 -12 -23 -18 -40
-16 -70 8 -7 98 68 98 20 0 51 -3 68 -6z m557 -44 c10 -8 19 -8 34 0 40 21 58
-2 80 -102 46 -212 51 -238 51 -268 0 -105 -120 -143 -229 -72 -68 44 -46 80
28 43 46 -24 69 -26 106 -9 19 9 25 19 25 44 l0 34 -44 -6 c-133 -19 -224 68
-234 223 -4 70 -4 73 27 104 30 30 35 31 87 26 31 -3 62 -11 69 -17z m424 -38
c20 -17 43 -48 53 -73 14 -39 54 -187 61 -229 3 -18 -39 -26 -57 -11 -10 8
-27 8 -62 0 -65 -15 -124 1 -158 42 -73 86 -27 167 97 168 68 1 74 16 27 63
-26 25 -36 29 -63 24 -18 -3 -38 -15 -46 -26 -14 -21 -55 -27 -66 -9 -12 19 5
58 33 74 44 25 135 14 181 -23z m202 -72 c27 -47 53 -95 58 -107 6 -13 15 -23
21 -23 13 0 18 28 24 119 6 82 12 94 47 89 20 -2 24 -9 23 -38 -1 -76 -41
-357 -55 -393 -11 -27 -43 -42 -83 -39 -33 2 -51 52 -19 52 29 0 53 31 53 68
0 26 -22 74 -84 181 -109 188 -107 183 -66 179 31 -3 38 -11 81 -88z m-6707
-347 c2 -10 7 -61 11 -114 4 -52 10 -101 14 -107 4 -8 50 31 126 108 100 99
125 119 150 120 17 0 36 -4 44 -9 16 -11 -3 -36 -115 -151 -35 -36 -64 -70
-64 -77 0 -12 45 -64 175 -201 96 -101 96 -102 38 -102 l-48 0 -113 120 c-84
89 -117 117 -130 113 -27 -11 -63 -55 -58 -72 3 -9 6 -45 8 -81 l3 -65 -38 -3
c-31 -3 -38 0 -46 20 -7 21 -42 425 -41 491 0 25 3 27 39 27 29 0 41 -5 45
-17z m1257 -22 c3 -3 12 -66 19 -139 9 -99 16 -135 27 -139 9 -4 38 18 77 56
56 55 65 61 104 61 23 0 42 -4 42 -8 0 -4 -29 -37 -65 -72 -36 -35 -65 -68
-65 -73 0 -4 43 -55 95 -112 52 -57 95 -108 95 -114 0 -6 -17 -11 -37 -11 -34
0 -45 8 -118 85 -44 47 -85 85 -92 85 -22 0 -32 -35 -26 -98 l6 -62 -41 0
c-39 0 -41 2 -46 33 -5 26 -25 230 -49 484 -2 18 2 35 8 37 12 5 57 -4 66 -13z
m-506 -144 c57 -32 75 -76 86 -208 5 -60 14 -119 20 -130 6 -11 8 -27 5 -35
-7 -18 -56 -18 -80 -1 -16 11 -25 11 -55 1 -117 -42 -241 19 -241 119 0 82 38
108 170 116 99 7 111 21 62 71 -41 40 -107 43 -142 5 -41 -44 -112 -28 -93 21
3 8 22 26 42 39 51 34 168 35 226 2z m315 0 l75 -2 0 -30 c0 -28 -3 -30 -45
-35 -74 -9 -74 -8 -65 -139 13 -192 16 -176 -30 -176 l-40 0 -6 65 c-3 36 -12
118 -18 183 -15 138 -12 152 27 142 15 -4 61 -8 102 -8z m812 -44 c49 -28 90
-96 96 -156 l5 -50 -137 6 c-153 6 -165 1 -127 -52 49 -68 127 -89 190 -50 28
17 39 19 58 10 12 -6 23 -15 23 -20 0 -19 -61 -59 -100 -66 -144 -24 -267 68
-277 209 -7 91 19 141 92 181 38 21 132 14 177 -12z m423 -3 c4 -6 40 -7 93
-4 70 5 94 3 118 -9 52 -27 90 -79 109 -150 24 -88 15 -147 -29 -195 -30 -32
-38 -35 -87 -36 -30 0 -71 3 -92 8 l-38 8 3 -78 3 -79 -27 -3 c-21 -3 -30 2
-38 20 -12 30 -72 507 -65 519 8 12 42 12 50 -1z m661 -36 c85 -52 125 -117
127 -203 3 -133 -94 -200 -233 -161 -75 21 -143 112 -155 206 -8 61 23 127 75
162 30 21 44 23 96 19 34 -2 74 -12 90 -23z m2251 4 c6 -7 13 -26 17 -41 5
-20 14 -29 37 -34 29 -5 55 -34 42 -47 -3 -3 -17 -6 -30 -6 -29 0 -29 -13 -4
-138 19 -96 38 -129 75 -134 13 -2 22 -11 24 -25 3 -21 -1 -23 -40 -23 -82 0
-104 32 -134 195 -9 55 -22 105 -26 112 -5 6 -23 15 -39 18 -22 5 -29 12 -29
30 0 18 6 24 28 27 25 3 27 6 24 41 -3 34 -1 37 21 37 14 0 29 -6 34 -12z
m-1787 -32 c86 -57 130 -181 95 -271 -20 -54 -51 -80 -104 -89 -136 -21 -261
86 -264 228 -1 72 19 117 66 147 47 30 151 22 207 -15z m235 5 c2 -4 7 -30 10
-57 4 -27 11 -68 16 -91 14 -66 39 -252 39 -293 0 -53 -34 -82 -91 -78 -39 3
-44 6 -47 29 -3 22 2 27 26 32 16 3 32 13 35 21 3 8 -7 99 -23 203 -33 211
-35 240 -17 246 14 5 46 -3 52 -12z m364 -17 c46 -23 64 -58 84 -166 18 -91
33 -156 44 -184 6 -17 -57 -20 -74 -3 -8 8 -21 8 -49 -1 -47 -16 -136 -7 -168
17 -69 51 -76 150 -13 185 12 7 56 15 97 18 88 6 100 22 52 70 -39 39 -88 41
-122 5 -27 -28 -77 -34 -86 -10 -9 22 22 64 59 81 39 18 128 12 176 -12z m388
0 c25 -7 31 -31 78 -300 26 -155 25 -185 -8 -213 -9 -7 -34 -11 -59 -9 -38 3
-43 6 -46 29 -3 22 2 27 27 32 38 8 39 23 11 169 -35 188 -50 281 -44 289 6
10 11 11 41 3z m383 -29 c14 -7 39 -28 56 -47 70 -73 91 -167 55 -241 -27 -56
-58 -72 -138 -71 -54 1 -71 6 -106 30 -92 65 -133 195 -88 283 29 55 67 73
141 65 30 -3 66 -12 80 -19z m809 -30 c39 -20 76 -65 96 -119 29 -75 23 -79
-105 -71 -95 7 -110 5 -116 -8 -10 -26 43 -85 88 -99 34 -10 44 -9 85 11 35
17 48 19 59 10 20 -16 17 -32 -8 -56 -74 -66 -232 -13 -288 97 -45 88 -33 196
24 231 38 23 125 25 165 4z m236 -6 c6 1 26 4 47 7 30 5 38 3 48 -16 14 -26
-2 -50 -34 -50 -12 0 -30 -6 -41 -13 -17 -13 -17 -18 8 -143 29 -139 27 -155
-20 -138 -22 8 -29 17 -34 49 -7 45 -35 189 -50 253 -12 54 -5 66 35 57 17 -4
36 -7 41 -6z m214 -21 c5 -13 21 -84 35 -158 15 -74 30 -145 33 -157 5 -21 1
-23 -31 -23 -20 0 -36 2 -36 4 0 2 -16 79 -35 171 -19 92 -33 171 -30 176 12
19 55 10 64 -13z m-5982 -645 c27 -42 56 -84 65 -95 10 -10 18 -21 18 -25 1
-9 47 -63 54 -63 2 0 33 56 67 124 65 129 76 139 132 128 21 -4 23 -40 3 -67
-14 -21 -59 -102 -119 -218 -20 -38 -34 -74 -32 -80 2 -7 6 -49 10 -94 6 -82
6 -83 -19 -93 -16 -6 -35 -6 -50 0 -22 8 -24 15 -28 104 l-4 96 -78 112 c-43
62 -92 133 -111 159 -18 25 -36 55 -39 67 -7 20 -4 22 38 22 l45 0 48 -77z
m2087 48 c5 -7 63 -451 69 -526 2 -29 0 -30 -38 -30 -47 0 -41 -25 -80 305
-32 277 -33 260 9 260 19 0 37 -4 40 -9z m189 -3 c11 -9 19 -40 27 -103 13
-113 29 -195 38 -195 4 0 39 32 77 70 67 67 85 77 119 64 16 -6 22 -30 8 -36
-11 -5 -112 -124 -112 -132 0 -4 20 -28 44 -54 127 -136 145 -158 146 -169 0
-8 -14 -13 -36 -13 -33 0 -45 8 -116 85 -44 47 -86 85 -94 85 -23 0 -32 -32
-25 -93 4 -32 5 -60 2 -62 -10 -11 -72 -4 -76 8 -3 6 -14 86 -25 177 -11 91
-25 206 -31 257 -6 51 -9 99 -6 108 8 18 37 20 60 3z m1631 -41 c10 -7 23 -42
32 -87 9 -41 18 -77 20 -79 2 -2 23 2 48 9 69 19 121 6 170 -45 50 -51 76
-121 76 -203 0 -107 -56 -162 -149 -147 -25 4 -71 8 -103 9 -31 0 -59 4 -62 7
-13 13 -90 513 -83 533 8 19 27 21 51 3z m463 -85 c14 -85 28 -109 51 -90 9 8
41 13 79 12 107 -1 134 -42 173 -269 10 -60 16 -113 14 -117 -8 -13 -50 -9
-62 5 -5 6 -20 68 -32 137 -12 69 -29 135 -37 148 -30 48 -110 52 -139 7 -14
-22 -14 -36 6 -156 19 -110 21 -133 9 -140 -46 -29 -60 -3 -85 148 -13 76 -32
192 -43 258 -12 66 -21 124 -21 128 0 5 17 7 37 5 l37 -3 13 -73z m-3679 -11
c67 -35 109 -98 114 -172 l3 -44 -147 -3 c-147 -3 -148 -3 -148 -26 0 -13 15
-39 35 -59 53 -55 126 -61 183 -16 31 24 44 24 66 0 16 -18 15 -20 -14 -47
-36 -35 -57 -42 -135 -43 -139 -2 -234 93 -235 232 0 90 29 140 105 180 42 23
127 21 173 -2z m473 -6 c24 -13 33 -13 52 -4 37 21 137 15 176 -9 75 -46 120
-158 107 -266 -14 -105 -97 -155 -215 -128 -25 6 -49 8 -54 5 -4 -2 -5 -38 -1
-79 l7 -73 -28 -11 c-50 -19 -55 -4 -81 251 -35 347 -35 351 37 314z m700 -30
c21 -14 43 -34 50 -46 6 -12 19 -78 29 -148 10 -69 23 -138 29 -152 5 -15 7
-30 4 -33 -12 -12 -71 -6 -83 9 -8 10 -17 12 -24 6 -24 -20 -99 -30 -150 -20
-134 25 -169 177 -53 230 28 12 65 19 109 19 37 0 69 4 72 9 11 18 -15 67 -45
85 -40 24 -87 15 -124 -24 -31 -32 -72 -40 -81 -15 -16 41 19 82 91 107 38 13
136 -2 176 -27z m1040 -18 c53 -35 93 -103 93 -156 l1 -46 -132 -3 c-113 -2
-133 -5 -133 -18 0 -27 41 -76 76 -90 46 -19 76 -18 129 8 41 20 47 21 61 6
12 -12 13 -20 5 -36 -33 -62 -182 -70 -263 -14 -56 39 -93 101 -101 169 -8 72
8 121 55 166 37 35 42 37 107 37 54 0 75 -5 102 -23z m236 1 c13 -17 66 -365
58 -378 -7 -12 -45 -13 -63 -2 -6 5 -16 42 -21 83 -6 41 -17 114 -25 163 -24
132 -22 146 13 146 16 0 33 -6 38 -12z m188 2 c3 -5 17 -10 30 -10 13 0 27 5
30 10 3 6 29 10 56 10 68 0 119 -28 143 -77 18 -38 68 -301 59 -315 -2 -5 -18
-8 -34 -8 -37 0 -41 10 -64 165 -17 109 -21 123 -48 148 -32 30 -48 32 -96 16
-43 -15 -48 -43 -28 -184 23 -156 24 -147 -20 -143 l-37 3 -28 185 c-16 101
-26 190 -24 197 6 15 52 18 61 3z m1614 -35 c40 -20 99 -92 113 -136 19 -66
14 -69 -122 -69 -110 0 -120 -1 -120 -19 0 -25 35 -68 70 -86 41 -21 86 -19
121 7 23 17 34 20 47 12 25 -16 21 -44 -11 -68 -22 -16 -43 -21 -96 -21 -57 0
-74 4 -109 28 -59 39 -97 95 -111 165 -23 116 37 202 141 202 27 0 62 -7 77
-15z m406 -18 c49 -27 105 -116 105 -164 l0 -33 -120 0 c-116 0 -120 -1 -120
-21 0 -26 63 -89 91 -90 10 -1 27 -2 38 -2 10 -1 34 7 53 17 40 21 68 16 68
-12 0 -47 -88 -79 -170 -61 -155 34 -234 257 -126 357 31 28 43 32 88 32 36 0
66 -7 93 -23z m349 6 c4 -5 31 -8 59 -8 l51 0 41 -205 c40 -199 41 -206 25
-244 -19 -46 -67 -76 -122 -76 -43 0 -116 29 -141 58 -16 18 -17 21 -2 35 14
15 19 15 48 -3 43 -27 118 -27 141 -1 25 27 18 77 -9 72 -11 -2 -47 -4 -81 -5
-52 -1 -66 3 -96 26 -102 78 -135 279 -56 340 24 18 127 26 142 11z m448 -15
c8 -7 18 -26 21 -43 4 -16 22 -108 42 -203 19 -95 35 -188 35 -206 0 -47 -27
-68 -81 -64 -39 3 -44 6 -44 28 0 17 7 26 25 30 35 9 35 19 -25 309 -14 68
-25 133 -25 143 0 21 28 24 52 6z m333 -7 c22 -10 48 -27 58 -39 10 -11 33
-80 51 -155 18 -74 36 -139 40 -145 13 -21 -29 -32 -59 -16 -20 10 -31 11 -41
3 -7 -5 -37 -13 -66 -15 -42 -4 -60 -1 -86 15 -42 27 -72 77 -72 121 1 62 39
90 122 90 73 0 84 9 64 48 -29 57 -102 72 -131 28 -20 -30 -41 -39 -64 -26
-26 13 -16 54 21 85 36 31 104 33 163 6z m-4342 -705 c8 -8 17 -46 21 -87 4
-41 11 -78 16 -83 5 -5 22 -4 41 3 58 20 169 10 169 -15 0 -11 -29 -14 -149
-14 l-149 0 -6 38 c-12 89 -17 152 -11 162 9 15 51 12 68 -4z m-2060 -13 c3
-5 8 -47 12 -95 l7 -88 -45 0 -46 0 -6 58 c-3 31 -7 71 -10 89 -2 18 1 34 8
37 19 7 75 7 80 -1z m372 -4 c4 -5 -13 -31 -37 -57 -23 -27 -58 -65 -76 -85
-30 -34 -37 -37 -87 -37 -30 0 -55 3 -55 6 0 3 37 46 83 95 78 84 84 89 124
89 23 0 45 -5 48 -11z"/>
<path d="M6613 9773 c-20 -4 -23 -11 -23 -51 l0 -47 85 0 85 0 0 46 c0 40 -3
48 -22 53 -25 6 -90 6 -125 -1z"/>
<path d="M912 8903 c-24 -10 -44 -64 -37 -101 13 -72 70 -122 138 -122 98 0
106 148 11 211 -27 18 -83 24 -112 12z"/>
<path d="M1345 8851 c-31 -13 -49 -54 -42 -101 4 -31 15 -51 45 -81 35 -33 47
-39 85 -39 58 0 82 26 81 85 -2 95 -92 167 -169 136z"/>
<path d="M4880 8391 c-39 -73 26 -191 104 -191 53 0 60 10 52 81 -9 76 -18 94
-56 114 -41 21 -87 19 -100 -4z"/>
<path d="M442 8084 c-38 -16 -40 -36 -7 -69 46 -47 155 -26 155 30 0 13 -8 28
-17 33 -33 17 -99 20 -131 6z"/>
<path d="M2385 7998 c-38 -22 -46 -41 -42 -97 4 -48 8 -58 45 -93 32 -29 49
-38 77 -38 74 0 107 76 69 156 -29 61 -106 98 -149 72z"/>
<path d="M3175 7890 c-14 -15 -17 -31 -13 -75 6 -73 48 -121 116 -131 42 -6
47 -5 68 22 18 22 22 37 18 68 -6 47 -35 98 -69 120 -35 23 -98 21 -120 -4z"/>
<path d="M4424 7745 c-12 -19 -15 -36 -9 -72 13 -91 110 -153 169 -108 17 13
17 19 5 85 -10 58 -18 76 -41 96 -41 34 -101 34 -124 -1z"/>
<path d="M5160 7671 c-5 -11 -10 -41 -10 -67 0 -42 5 -51 44 -90 35 -35 50
-44 78 -44 47 0 68 25 68 81 0 49 -31 103 -73 126 -35 20 -95 16 -107 -6z"/>
<path d="M5540 7630 c-57 -57 18 -200 105 -200 87 0 88 129 2 194 -41 31 -80
33 -107 6z"/>
<path d="M4035 7076 c-17 -12 -18 -20 -8 -90 13 -88 28 -111 85 -128 36 -11
41 -10 65 15 21 20 26 35 25 67 -4 105 -101 184 -167 136z"/>
<path d="M1335 6549 c-33 -20 -36 -31 -29 -99 9 -90 17 -107 68 -131 55 -27
89 -20 117 24 31 50 12 144 -39 190 -25 23 -90 32 -117 16z"/>
<path d="M1772 6374 c-49 -34 -6 -96 68 -98 47 -1 80 26 80 66 0 21 -6 31 -26
38 -38 15 -97 12 -122 -6z"/>
<path d="M2428 6319 c-44 -25 4 -99 64 -99 52 0 80 25 76 68 l-3 37 -60 2
c-33 2 -68 -2 -77 -8z"/>
<path d="M6405 6106 c-39 -59 20 -189 91 -202 71 -13 86 18 59 125 -13 55 -21
69 -46 84 -44 25 -85 22 -104 -7z"/>
<path d="M6770 6081 c-40 -76 37 -211 121 -211 79 0 79 136 0 203 -41 34 -104
38 -121 8z"/>
<path d="M1820 5883 c0 -16 51 -450 56 -470 5 -26 49 -42 66 -25 7 7 10 38 9
72 -4 93 15 92 110 -8 69 -73 81 -82 113 -82 20 0 36 3 36 8 0 4 -40 50 -90
102 -49 52 -89 98 -90 103 0 4 27 34 61 67 33 33 58 64 54 70 -3 5 -22 10 -41
10 -29 0 -46 -10 -95 -57 -76 -72 -83 -67 -97 84 -5 61 -13 116 -17 122 -7 12
-75 15 -75 4z"/>
<path d="M532 5819 c-79 -39 -103 -138 -58 -234 29 -63 72 -100 138 -120 70
-21 106 -19 158 8 153 76 91 317 -91 356 -72 16 -98 14 -147 -10z m161 -54
c50 -24 71 -61 75 -132 4 -58 2 -64 -26 -93 -54 -54 -138 -36 -180 38 -24 44
-29 115 -11 156 21 45 85 59 142 31z"/>
<path d="M934 5795 c-9 -23 17 -327 29 -342 10 -14 63 -18 70 -5 3 4 0 65 -5
136 l-11 130 24 19 c34 27 96 18 130 -21 23 -25 27 -43 38 -150 14 -127 22
-146 63 -140 27 3 28 25 14 185 l-8 91 30 16 c41 21 70 20 109 -4 36 -21 40
-34 57 -195 l11 -100 38 -3 37 -3 0 48 c0 78 -27 229 -45 257 -41 62 -156 90
-232 56 -29 -13 -36 -12 -78 9 -36 18 -60 22 -123 21 -42 -1 -92 2 -109 6 -26
5 -34 3 -39 -11z"/>
<path d="M2290 5699 c-44 -20 -59 -43 -43 -68 14 -20 48 -17 80 9 51 40 143
10 143 -46 0 -23 -2 -24 -71 -24 -130 0 -190 -70 -134 -157 37 -57 116 -82
195 -63 39 9 54 9 65 0 7 -6 26 -10 42 -8 30 3 30 6 15 73 -5 22 -15 79 -22
127 -11 74 -18 92 -42 117 -52 53 -158 71 -228 40z m184 -185 c11 -4 16 -19
16 -45 0 -33 -5 -41 -30 -54 -44 -23 -78 -19 -111 14 -36 37 -37 56 -1 75 28
16 98 21 126 10z"/>
<path d="M3533 5428 c-21 -27 -21 -47 -2 -72 17 -22 29 -26 69 -26 39 0 52 4
64 22 19 27 21 59 4 76 -16 16 -123 16 -135 0z"/>
<path d="M4150 5512 c-47 -47 -37 -133 22 -189 87 -82 181 -35 159 81 -14 76
-53 119 -119 132 -26 5 -36 1 -62 -24z"/>
<path d="M3411 4731 c-46 -46 -33 -151 24 -208 27 -27 40 -33 77 -33 32 0 50
6 63 20 18 19 16 48 -11 178 -11 52 -115 81 -153 43z"/>
<path d="M4697 4673 c-28 -14 -30 -19 -27 -68 5 -89 32 -149 77 -170 36 -17
66 -13 96 13 36 32 14 156 -38 210 -21 23 -79 31 -108 15z"/>
<path d="M3839 4701 c-31 -32 -34 -51 -18 -121 12 -52 40 -87 86 -106 45 -19
57 -18 93 13 32 26 32 28 27 90 -12 127 -116 196 -188 124z"/>
<path d="M4265 4685 c-47 -46 -27 -171 34 -214 36 -26 85 -35 111 -21 77 41
47 201 -46 245 -45 21 -71 19 -99 -10z"/>
<path d="M6150 4574 c-36 -93 35 -224 121 -224 14 0 34 9 44 20 17 19 17 24 2
102 -20 100 -45 128 -115 128 -36 0 -44 -4 -52 -26z"/>
<path d="M773 3811 c-41 -25 -43 -58 -7 -92 51 -48 156 -18 162 47 4 44 -11
57 -70 61 -41 3 -60 -1 -85 -16z"/>
<path d="M1903 3922 c-24 -19 -47 -68 -35 -76 12 -7 191 -11 198 -4 10 11 -27
64 -56 82 -36 21 -79 20 -107 -2z"/>
<path d="M2546 3903 l-29 -15 6 -87 c4 -47 9 -96 13 -108 8 -28 40 -50 86 -58
30 -6 41 -2 69 23 29 26 33 35 33 83 1 121 -94 207 -178 162z"/>
<path d="M2993 3882 c-32 -25 -44 -67 -37 -125 6 -40 15 -58 49 -93 35 -37 47
-44 81 -44 78 0 114 53 95 141 -6 28 -21 64 -32 80 -40 56 -113 75 -156 41z"/>
<path d="M3447 3869 c-32 -19 -49 -68 -42 -118 13 -86 57 -139 124 -148 36 -5
44 -2 71 27 24 26 30 41 30 78 0 115 -104 207 -183 161z"/>
<path d="M4072 3687 c-29 -30 -28 -41 5 -72 33 -29 86 -34 121 -9 19 13 22 24
20 57 l-3 42 -60 3 c-53 2 -64 0 -83 -21z"/>
<path d="M4843 3818 c-65 -32 -40 -187 40 -243 12 -8 38 -15 58 -15 52 0 79
35 79 104 0 113 -93 194 -177 154z"/>
<path d="M4246 2939 c-28 -22 -28 -24 -22 -88 10 -110 22 -138 66 -161 50 -25
71 -25 104 1 23 18 26 27 26 82 -1 102 -43 172 -111 183 -26 4 -41 0 -63 -17z"/>
<path d="M798 3013 c-29 -19 -54 -65 -43 -82 4 -7 46 -11 106 -11 94 0 99 1
99 21 0 12 -15 36 -34 55 -39 39 -83 45 -128 17z"/>
<path d="M1482 3001 c-41 -19 -45 -36 -33 -146 9 -77 14 -93 36 -112 52 -46
135 -37 162 17 31 61 0 205 -50 231 -42 23 -81 26 -115 10z"/>
<path d="M1970 2832 c-27 -13 -36 -24 -38 -48 -6 -64 87 -97 149 -53 24 16 29
28 29 59 0 29 -5 42 -19 50 -29 15 -82 12 -121 -8z"/>
<path d="M3001 2963 c-12 -10 -23 -31 -24 -48 l-2 -30 93 -3 c84 -2 92 -1 92
16 0 61 -109 106 -159 65z"/>
<path d="M5879 2918 c-101 -35 -32 -268 80 -268 25 0 44 7 56 20 17 19 18 26
6 98 -11 66 -34 132 -45 132 -2 0 -19 6 -37 14 -23 9 -42 11 -60 4z"/>
<path d="M6638 2746 c-28 -21 -22 -61 11 -85 36 -26 68 -26 99 -3 19 15 23 26
20 58 l-3 39 -55 2 c-34 2 -62 -2 -72 -11z"/>
<path d="M7117 5312 c-36 -40 -9 -159 45 -196 12 -9 26 -16 30 -16 5 0 8 52 8
115 l0 115 -33 0 c-20 0 -41 -8 -50 -18z"/>
<path d="M7018 2744 c-64 -34 -5 -113 80 -105 6 1 21 10 32 21 15 15 18 27 13
52 -3 18 -11 36 -17 40 -18 13 -79 8 -108 -8z"/>
</g>
</svg>
