<?xml version="1.0" standalone="no"?>
<!DOCTYPE svg PUBLIC "-//W3C//DTD SVG 20010904//EN"
 "http://www.w3.org/TR/2001/REC-SVG-20010904/DTD/svg10.dtd">
<svg version="1.0" xmlns="http://www.w3.org/2000/svg"
 width="720.000000pt" height="1280.000000pt" viewBox="0 0 720.000000 1280.000000"
 preserveAspectRatio="xMidYMid meet">
<metadata>
Created by potrace 1.16, written by Peter Selinger 2001-2019
</metadata>
<g transform="translate(0.000000,1280.000000) scale(0.100000,-0.100000)"
fill="#000000" stroke="none">
<path d="M0 6400 l0 -6400 3600 0 3600 0 0 1025 0 1024 -3287 3 c-2458 3
-3296 6 -3318 15 -16 6 -56 19 -88 28 -32 9 -67 25 -78 36 -10 10 -25 16 -32
13 -8 -3 -21 2 -30 10 -17 18 -47 21 -47 6 0 -5 -9 -10 -20 -10 -11 0 -20 4
-20 9 0 5 -14 14 -31 20 -19 6 -28 15 -23 22 4 7 0 9 -13 5 -30 -10 -54 3 -51
28 3 39 -14 106 -28 106 -8 0 -14 -4 -14 -9 0 -5 -11 -11 -25 -13 -14 -3 -25
-1 -25 3 0 5 -7 9 -15 9 -12 0 -15 -16 -17 -72 -1 -40 -5 -1 -8 87 -9 211 -10
2758 0 2945 3 80 7 115 8 78 3 -104 18 -81 25 39 11 168 9 203 -8 203 -13 0
-15 23 -15 150 0 121 3 150 14 150 21 0 26 33 26 188 0 88 4 142 10 142 6 0
10 -35 11 -82 0 -46 3 -77 6 -70 2 6 15 12 28 12 25 0 35 29 35 99 0 28 5 38
22 46 16 7 24 20 26 43 2 21 9 32 19 32 13 0 15 9 10 53 -2 28 0 79 5 112 6
33 11 66 11 73 0 6 13 12 29 12 l28 0 0 69 c0 46 4 71 12 74 7 3 1 6 -14 6
-29 1 -41 31 -13 31 8 0 15 -4 15 -10 0 -5 5 -10 11 -10 5 0 7 5 4 10 -3 6 1
10 9 10 9 0 16 -7 16 -15 0 -20 36 -20 44 0 3 8 14 15 25 15 15 0 20 10 25 43
4 24 4 51 0 60 -4 12 -1 17 10 17 9 0 16 5 16 10 0 6 7 10 15 10 8 0 15 4 15
9 0 5 10 11 22 13 20 3 23 10 26 55 3 55 5 57 67 66 11 1 26 6 33 10 7 5 21 5
32 2 19 -6 20 -2 20 70 0 58 3 77 15 81 8 4 15 17 15 30 0 13 6 24 13 24 7 0
17 10 22 23 6 12 15 22 20 22 22 1 85 51 85 68 0 9 4 17 9 17 5 0 11 23 15 50
5 36 11 50 22 50 9 0 18 9 21 20 3 11 12 20 19 20 8 0 14 7 14 15 0 8 4 15 9
15 5 0 26 29 46 65 20 36 40 65 45 65 6 0 10 18 10 40 0 39 1 40 35 40 l35 0
0 85 0 85 51 40 c59 47 69 49 69 15 0 -30 10 -31 40 -5 13 11 27 20 33 20 6 0
8 38 5 100 -3 55 -1 100 4 100 4 0 8 -10 9 -22 l0 -23 11 23 c6 12 16 22 23
22 6 0 16 17 22 38 l10 37 3 -40 2 -40 10 35 c12 44 17 48 29 30 9 -12 10 -11
6 6 -2 12 -1 28 4 35 5 8 3 17 -4 21 -8 6 3 22 35 51 25 23 49 52 53 65 6 22
25 31 25 12 0 -5 5 -10 11 -10 6 0 10 10 9 23 -4 42 0 57 15 57 11 0 15 11 15
40 0 38 2 40 29 40 17 0 33 5 36 10 3 6 -3 10 -14 10 -12 0 -21 5 -21 10 0 6
11 10 25 10 18 0 25 5 25 20 0 15 7 20 24 20 18 0 37 16 70 59 25 33 46 64 46
70 0 6 5 11 11 11 15 0 39 26 39 43 0 8 8 17 18 19 15 4 17 13 14 42 -4 36 -4
36 32 36 20 0 36 5 36 10 0 6 7 10 15 10 8 0 15 6 15 14 0 8 7 16 15 20 8 3
15 12 15 20 0 18 31 30 41 15 10 -17 39 -3 39 19 0 12 13 23 38 32 25 9 31 15
20 18 -49 10 21 32 103 32 16 0 29 4 29 9 0 5 9 11 19 14 24 6 18 44 -8 50 -9
3 34 6 94 8 61 2 -464 6 -1165 9 -780 3 119 6 2318 8 l3592 2 0 1775 0 1775
-3600 0 -3600 0 0 -6400z m6782 3684 c50 -17 112 -73 138 -125 44 -85 32 -202
-29 -284 -25 -34 -27 -41 -14 -50 14 -10 14 -14 -2 -38 -22 -35 -88 -46 -136
-23 -29 13 -43 14 -94 4 -106 -20 -142 -17 -169 17 -22 27 -22 31 -7 41 15 11
14 14 -6 36 -38 40 -63 108 -63 172 0 78 16 128 58 176 77 90 199 118 324 74z
m-639 0 c52 -18 116 -76 142 -130 22 -47 30 -130 16 -180 -32 -119 -134 -194
-265 -194 -165 0 -272 106 -270 266 2 153 105 252 265 253 36 1 86 -6 112 -15z
m-5839 -91 c10 -34 76 -315 76 -324 0 -5 -16 -9 -35 -9 -30 0 -35 3 -35 24 0
31 -13 39 -59 39 -31 0 -36 -3 -43 -31 -8 -28 -13 -32 -42 -32 l-34 0 14 58
c7 31 25 110 40 175 l28 117 42 0 c32 0 44 -4 48 -17z m406 -75 l1 -93 30 38
c23 27 39 37 60 37 16 0 29 -3 29 -6 0 -4 -16 -28 -35 -54 l-34 -47 28 -45
c56 -89 56 -88 17 -88 -30 0 -38 5 -57 40 -26 45 -39 43 -39 -6 0 -31 -2 -34
-30 -34 l-30 0 0 175 0 175 30 0 30 0 0 -92z m1740 -83 l0 -176 -42 1 c-24 1
-55 -1 -69 -5 -19 -5 -33 -1 -55 18 -27 24 -29 29 -29 106 0 69 3 84 21 102
23 22 55 28 92 15 21 -7 22 -5 22 53 l0 61 30 0 30 0 0 -175z m452 83 l3 -92
25 37 c20 30 31 37 58 37 30 0 42 -12 24 -24 -5 -3 -21 -23 -36 -44 l-27 -40
41 -66 41 -67 -38 3 c-32 3 -41 9 -58 40 -26 49 -35 48 -35 -2 0 -39 -1 -40
-35 -40 l-35 0 0 175 0 175 35 0 34 0 3 -92z m728 28 l0 -65 35 15 c28 11 40
12 58 3 34 -18 37 -27 37 -136 l0 -103 -30 0 -30 0 0 90 c0 75 -3 92 -16 97
-37 14 -49 -10 -52 -101 l-3 -86 -29 0 -30 0 0 175 0 175 30 0 30 0 0 -64z
m530 3 c0 -58 1 -60 23 -53 76 26 107 -8 107 -118 0 -71 -2 -81 -26 -105 -20
-20 -31 -24 -52 -18 -15 4 -46 6 -69 5 l-43 -1 0 176 0 175 30 0 30 0 0 -61z
m-1480 -9 c0 -38 2 -40 30 -40 25 0 30 -4 30 -25 0 -21 -5 -25 -30 -25 l-31 0
3 -67 c3 -66 4 -68 31 -71 21 -3 27 -8 23 -19 -3 -8 -6 -19 -6 -24 0 -16 -73
-10 -92 8 -14 13 -18 31 -18 90 0 66 -2 75 -20 80 -13 3 -20 14 -20 29 0 17 6
24 20 24 17 0 20 7 20 40 0 38 2 40 30 40 28 0 30 -2 30 -40z m-2096 -61 c24
-23 34 -121 17 -172 -15 -44 -59 -66 -97 -48 -14 6 -27 11 -29 11 -3 0 -5 -29
-5 -65 l0 -65 -30 0 -30 0 0 181 0 182 38 -5 c20 -3 46 -2 57 3 26 10 55 2 79
-22z m405 20 c17 -6 36 -19 41 -29 6 -10 10 -62 10 -115 l0 -97 -32 3 c-18 1
-48 -1 -66 -5 -50 -12 -82 13 -82 64 0 44 20 64 83 81 28 7 37 15 35 27 -5 25
-45 27 -58 3 -13 -25 -48 -28 -57 -5 -8 21 28 67 58 75 35 10 33 10 68 -2z
m287 1 c39 -15 53 -39 54 -87 l0 -43 -61 0 c-60 0 -60 0 -57 -27 3 -32 44 -46
54 -19 9 23 64 21 64 -2 0 -51 -67 -84 -124 -62 -45 17 -55 38 -56 116 0 78
20 119 63 127 12 2 25 5 29 6 4 0 19 -4 34 -9z m201 -1 c32 -12 43 -26 43 -56
0 -31 -45 -33 -53 -2 -7 24 -40 23 -45 -2 -2 -10 9 -21 30 -29 75 -30 98 -83
59 -131 -40 -50 -151 -22 -151 38 0 19 5 23 30 23 24 0 30 -4 30 -21 0 -15 5
-20 22 -17 42 6 33 36 -16 58 -76 32 -89 107 -23 135 39 17 39 17 74 4z m202
-4 c26 -13 46 -56 33 -70 -14 -14 -50 -3 -55 16 -4 13 -12 20 -24 17 -29 -5
-21 -32 15 -50 73 -36 92 -81 53 -129 -15 -19 -29 -24 -66 -24 -37 0 -51 5
-66 24 -29 36 -25 61 10 61 21 0 30 -6 34 -21 7 -25 40 -22 45 4 3 12 -9 23
-42 37 -74 31 -86 108 -22 136 40 17 51 17 85 -1z m200 4 c17 -6 36 -19 41
-29 6 -10 10 -62 10 -115 l0 -97 -32 3 c-18 1 -48 -1 -66 -5 -50 -12 -82 13
-82 64 0 44 20 64 83 81 28 7 37 15 35 27 -5 25 -45 27 -58 3 -11 -22 -44 -28
-55 -11 -12 20 8 59 38 74 38 19 45 19 86 5z m319 -22 c16 -15 22 -32 22 -64
l0 -43 -61 0 c-60 0 -60 0 -57 -27 3 -32 44 -46 54 -19 9 23 64 21 64 -2 0
-49 -66 -84 -121 -64 -50 20 -59 37 -59 121 0 68 3 80 23 98 12 11 29 23 37
26 25 9 73 -4 98 -26z m1000 -3 c18 -21 22 -36 22 -98 0 -77 -15 -107 -61
-121 -31 -10 -84 3 -105 26 -23 26 -31 127 -13 170 24 60 111 73 157 23z m240
8 c8 -10 12 -52 12 -119 l0 -103 -30 0 -30 0 0 90 c0 75 -3 92 -17 97 -32 12
-53 -32 -53 -113 l0 -74 -30 0 -30 0 0 120 0 120 29 0 c16 0 31 -5 33 -11 2
-6 14 -5 33 5 33 17 63 13 83 -12z m530 -8 c15 -17 22 -38 22 -65 l0 -39 -61
0 c-60 0 -60 0 -57 -27 3 -32 44 -46 54 -19 4 10 18 16 35 16 22 0 29 -5 29
-20 0 -42 -64 -79 -115 -66 -52 13 -65 39 -65 124 0 69 3 81 23 99 12 11 29
23 37 26 28 11 75 -3 98 -29z m539 12 c7 -6 13 -53 15 -116 l3 -105 -32 -3
-33 -3 0 91 c0 72 -3 92 -15 96 -33 13 -45 -15 -45 -102 l0 -84 -35 0 -35 0 0
120 0 120 35 0 c19 0 35 -4 35 -9 0 -6 12 -3 28 4 28 15 58 12 79 -9z m221
-12 c19 -22 22 -36 22 -120 l0 -95 -42 1 c-24 1 -54 -1 -68 -5 -34 -9 -80 27
-80 61 0 41 18 63 63 75 52 15 67 26 60 45 -8 21 -41 17 -55 -6 -12 -19 -48
-27 -60 -14 -15 14 11 60 43 77 43 22 86 16 117 -19z m391 25 c36 -13 61 -53
61 -99 l0 -30 -59 0 c-65 0 -73 -5 -64 -38 6 -26 53 -32 53 -7 0 11 11 15 36
15 32 0 35 -2 29 -22 -13 -43 -42 -63 -90 -63 -64 0 -87 27 -93 105 -5 75 11
118 52 136 38 16 36 16 75 3z m204 -3 c15 -8 27 -11 27 -5 0 5 14 9 30 9 l30
0 0 -149 c0 -134 -2 -151 -20 -174 -41 -52 -147 -44 -170 13 -7 16 -9 34 -5
39 9 15 46 7 60 -12 27 -37 75 -10 75 43 0 17 -3 19 -19 10 -36 -19 -78 -12
-100 16 -16 21 -21 41 -21 88 0 85 8 106 44 122 39 17 36 17 69 0z m285 -22
c19 -22 22 -36 22 -120 l0 -95 -42 1 c-24 1 -54 -1 -68 -5 -35 -9 -80 27 -80
64 0 39 19 60 70 75 33 10 46 19 48 35 4 28 -31 29 -51 0 -22 -30 -63 -23 -59
11 10 70 109 91 160 34z m-3048 -94 l0 -120 -35 0 -35 0 0 113 c0 63 3 117 7
120 3 4 19 7 35 7 l28 0 0 -120z m2280 63 c19 -91 25 -93 45 -14 17 70 18 71
50 71 l33 0 -52 -177 -51 -178 -33 -3 c-29 -3 -33 -1 -29 15 31 106 31 95 -2
207 -18 59 -35 114 -38 122 -4 10 4 14 29 14 34 0 35 -1 48 -57z"/>
<path d="M6613 9773 c-20 -4 -23 -11 -23 -51 l0 -47 85 0 85 0 0 46 c0 40 -3
48 -22 53 -25 6 -90 6 -125 -1z"/>
<path d="M1357 6933 c-3 -5 -10 -66 -16 -138 -7 -71 -14 -137 -16 -145 -2 -8
-10 -64 -16 -125 -15 -146 -17 -161 -28 -295 -6 -63 -12 -144 -16 -180 -9
-109 -35 -329 -50 -435 -7 -55 -19 -154 -25 -220 -6 -66 -20 -210 -30 -319
-18 -184 -19 -202 -4 -224 9 -13 11 -21 5 -18 -6 4 -13 -3 -15 -16 -7 -33 -26
-164 -26 -181 0 -10 24 -17 88 -25 120 -16 305 -32 439 -38 l111 -5 24 33 c14
18 33 56 43 83 10 28 23 57 30 65 20 26 65 136 65 160 0 27 -17 93 -35 135
-25 57 -33 138 -25 250 11 148 29 294 40 329 18 53 7 101 -15 66 -4 -6 -11 -8
-16 -5 -20 13 -39 -24 -39 -75 0 -54 -13 -81 -98 -193 -40 -53 -43 -61 -33
-84 10 -22 10 -25 -5 -19 -24 9 -48 -13 -33 -30 8 -9 8 -14 1 -14 -6 0 -12
-10 -14 -22 -4 -27 -25 -35 -32 -11 -3 10 -4 1 -1 -19 4 -39 -10 -62 -21 -34
-3 9 -10 16 -15 16 -4 0 -6 -6 -3 -13 3 -8 -2 -20 -11 -27 -9 -8 -15 -8 -15
-2 0 13 -36 7 -54 -7 -7 -6 -36 -15 -64 -22 -29 -6 -52 -14 -52 -19 0 -4 -13
-13 -30 -19 -16 -5 -30 -15 -30 -20 0 -6 -6 -11 -13 -11 -8 0 -26 -17 -40 -37
-15 -21 -27 -34 -27 -30 0 14 48 82 101 144 35 40 79 112 126 205 88 176 143
294 143 308 0 6 7 22 16 35 10 16 14 34 9 53 -4 22 -2 31 10 35 18 7 75 94 75
115 0 16 -15 31 -53 57 -16 10 -26 24 -23 31 3 8 2 14 -3 14 -5 0 -11 -9 -14
-20 -4 -16 -11 -18 -41 -13 -29 4 -37 2 -43 -13 -11 -29 -31 -46 -38 -34 -4 6
-15 8 -26 5 -17 -6 -16 -2 6 19 14 14 25 34 25 46 0 16 6 20 30 20 28 0 45 20
18 20 -7 0 2 13 21 29 l34 28 -69 7 c-101 10 -124 16 -124 32 0 8 -8 14 -19
14 -10 0 -24 6 -30 14 -14 16 4 26 47 26 42 0 51 12 49 60 -2 36 1 45 16 48
10 2 26 -3 36 -12 9 -8 48 -22 86 -30 55 -11 71 -12 81 -2 8 9 30 12 63 8 35
-3 51 -1 51 7 0 7 -5 9 -11 5 -12 -7 -64 46 -74 76 -5 16 -15 20 -46 20 -21 0
-39 5 -39 10 0 6 0 12 0 15 0 3 -7 19 -15 36 -20 37 -7 59 35 59 33 0 45 29
24 57 -7 10 -14 27 -14 39 0 12 -9 31 -20 44 -11 13 -20 28 -20 34 0 7 -15 16
-32 21 -25 8 -34 17 -39 40 -9 47 -21 75 -30 75 -5 0 -9 9 -9 20 0 11 -4 20
-10 20 -5 0 -19 20 -30 45 -17 37 -26 45 -55 51 -19 3 -32 10 -29 15 3 5 -2 9
-10 9 -8 0 -17 -3 -19 -7z"/>
<path d="M2715 6801 c2 -10 14 -36 27 -57 35 -56 63 -165 46 -175 -7 -5 -17
-9 -22 -9 -6 0 -2 -6 7 -12 9 -7 20 -28 23 -46 l7 -34 -38 21 c-28 15 -43 18
-57 10 -40 -21 -3 -54 72 -63 57 -7 67 -38 35 -111 -8 -16 -13 -60 -13 -96 0
-36 -3 -75 -6 -85 -11 -34 -61 -55 -144 -60 -155 -10 -181 -27 -102 -71 44
-25 62 -44 67 -73 3 -21 -17 -82 -33 -101 -12 -14 -12 -21 1 -53 l16 -38 -40
-51 c-22 -29 -52 -67 -66 -84 -50 -62 -10 -34 60 42 69 74 70 75 97 61 15 -8
29 -12 31 -10 3 3 25 -15 51 -40 25 -25 57 -48 71 -52 19 -5 25 -13 25 -33 0
-15 -5 -32 -12 -39 -23 -23 24 -13 49 10 l24 22 6 -22 c3 -12 9 -22 14 -22 12
0 11 -44 -1 -56 -14 -14 5 -40 22 -28 7 6 37 16 67 24 60 14 170 74 173 93 0
7 3 23 4 37 7 55 18 85 40 109 12 13 25 39 29 58 3 19 13 37 21 40 7 3 14 12
14 20 0 20 29 42 56 43 34 0 80 64 75 103 -3 22 26 57 46 57 32 0 6 52 -28 55
-18 1 -25 9 -30 33 -4 22 -2 32 7 36 8 3 14 11 14 18 0 19 54 38 127 45 59 6
72 15 73 53 0 3 -25 6 -55 7 -30 0 -55 -3 -55 -8 0 -5 -5 -9 -11 -9 -6 0 -9 5
-7 11 4 12 53 33 102 44 15 3 26 9 23 12 -4 3 0 15 8 27 8 11 15 25 15 31 0 5
-5 3 -10 -5 -12 -19 -31 -2 -46 43 -12 36 -37 46 -62 25 -18 -14 -40 -17 -57
-6 -12 7 -68 8 -61 0 9 -9 -15 -32 -34 -32 -10 0 -23 7 -30 15 -9 11 -16 13
-24 5 -16 -16 -26 -12 -26 10 0 14 9 21 35 26 39 7 44 23 16 48 -15 14 -33 17
-85 14 -67 -3 -87 5 -41 16 16 4 32 20 42 41 17 36 27 42 38 25 12 -20 40 -9
54 21 7 16 12 31 10 33 -2 2 -18 10 -34 18 -34 16 -56 14 -49 -5 6 -17 -39
-35 -65 -25 -20 7 -21 5 -16 -26 11 -58 -25 -54 -38 4 -17 76 -51 152 -71 160
-20 9 -263 30 -338 30 -31 0 -36 -3 -33 -19z"/>
<path d="M2290 6263 c0 -12 -6 -23 -12 -26 -10 -3 -10 -7 -1 -17 9 -10 9 -16
-2 -26 -7 -8 -21 -39 -29 -69 -12 -40 -25 -61 -51 -81 -41 -31 -51 -27 -37 15
6 17 8 32 4 35 -83 49 -116 57 -126 30 -12 -32 -5 -63 21 -94 15 -18 28 -41
28 -51 1 -10 10 -28 20 -39 18 -20 18 -21 -3 -27 -24 -6 -28 -23 -11 -40 7 -7
5 -15 -7 -28 -15 -14 -15 -18 -3 -26 8 -5 20 -7 26 -4 7 2 19 -8 27 -23 12
-20 15 -23 16 -9 0 10 5 15 11 12 6 -4 8 -12 6 -19 -3 -6 3 -27 12 -46 12 -26
23 -36 45 -38 19 -2 32 2 38 12 16 28 28 7 29 -47 1 -87 17 -103 18 -18 l1 73
28 -7 c97 -24 136 -10 86 31 -28 23 -28 24 -10 39 27 21 46 19 46 -5 0 -11 5
-20 10 -20 16 0 12 70 -4 76 -7 3 -16 22 -20 42 -3 20 -15 57 -27 82 -12 25
-24 65 -27 90 -3 25 -12 56 -22 70 -9 14 -27 54 -40 90 -26 73 -40 95 -40 63z"/>
<path d="M5101 5903 c-17 -37 -84 -143 -92 -143 -3 0 -16 28 -30 62 -17 44
-33 67 -54 79 -41 24 -68 24 -61 2 36 -119 59 -182 75 -202 18 -24 18 -25 -7
-75 -13 -28 -36 -64 -51 -81 -14 -16 -19 -24 -11 -17 20 17 30 15 30 -6 0 -10
6 -27 14 -37 13 -18 14 -18 19 1 3 10 8 35 11 54 l6 35 -15 -30 c-8 -16 -14
-23 -14 -15 -1 8 6 28 14 44 8 15 15 34 15 40 0 7 34 63 75 125 41 63 75 110
75 106 0 -4 -23 -46 -52 -94 -28 -47 -53 -90 -55 -96 -8 -18 58 59 83 98 13
20 27 37 30 37 6 0 6 0 -61 -105 -62 -96 -88 -145 -81 -152 3 -3 33 37 66 88
88 134 132 224 99 203 -8 -4 -9 1 -3 17 21 63 0 117 -25 62z"/>
<path d="M4389 5885 c-39 -29 -61 -53 -131 -147 -27 -38 -56 -68 -64 -68 -8 0
-20 12 -26 26 -14 30 -4 53 33 71 l24 13 -22 0 c-26 0 -63 -33 -63 -56 0 -20
19 -56 37 -69 12 -9 8 -18 -18 -54 l-31 -44 -27 46 c-15 28 -33 47 -43 47 -23
0 -23 -1 13 -55 35 -52 35 -70 -4 -98 -25 -20 -28 -20 -44 -4 -14 14 -15 23
-6 64 14 58 10 65 -11 24 -23 -44 -21 -98 4 -111 24 -13 80 1 100 25 9 11 20
7 60 -20 90 -61 217 -65 242 -9 6 13 17 24 25 24 21 0 93 70 114 111 12 25 17
48 13 68 -10 46 -51 43 -97 -8 -59 -66 -72 -91 -72 -146 0 -49 -1 -50 -39 -63
-33 -10 -48 -10 -92 3 -49 14 -114 57 -114 74 0 4 16 29 36 54 33 42 41 47 78
47 47 0 128 35 167 72 69 64 106 160 74 191 -9 10 -22 17 -28 17 -8 0 -7 -4 1
-12 7 -7 12 -23 12 -37 0 -37 -54 -125 -96 -157 -36 -28 -132 -66 -146 -58
-11 7 137 209 175 238 42 34 13 34 -34 1z"/>
<path d="M3868 5799 c-32 -18 -128 -193 -128 -233 0 -20 4 -36 10 -36 13 0
149 129 162 154 6 12 -15 -3 -46 -33 -30 -30 -58 -52 -62 -48 -4 3 16 48 45
98 61 111 64 125 19 98z"/>
<path d="M3286 5581 c-103 -89 -244 -166 -401 -219 -49 -16 -107 -37 -127 -46
-21 -9 -41 -17 -45 -17 -5 -1 -19 -9 -33 -19 -24 -18 -24 -22 -32 -206 -10
-230 -24 -293 -87 -378 -24 -34 -50 -65 -56 -71 -20 -17 -191 -230 -203 -252
-26 -48 -14 -47 95 5 63 30 73 36 73 48 0 6 13 17 29 24 16 6 39 22 52 36 12
13 27 24 32 24 11 0 110 100 172 173 22 26 45 47 52 47 7 0 17 9 23 21 6 11
24 33 41 48 16 16 29 31 29 35 0 4 13 19 30 32 16 14 44 50 62 80 18 30 36 54
40 54 5 0 8 7 8 15 0 8 9 19 20 25 11 6 20 16 20 23 0 7 8 22 19 33 10 11 21
36 25 56 4 20 13 39 22 42 8 3 13 10 10 15 -4 5 7 33 23 63 66 122 89 167 94
190 4 13 16 35 27 48 18 21 25 41 21 64 -1 4 4 14 10 22 26 32 -2 22 -45 -15z"/>
</g>
</svg>
