<?xml version="1.0" standalone="no"?>
<!DOCTYPE svg PUBLIC "-//W3C//DTD SVG 20010904//EN"
 "http://www.w3.org/TR/2001/REC-SVG-20010904/DTD/svg10.dtd">
<svg version="1.0" xmlns="http://www.w3.org/2000/svg"
 width="720.000000pt" height="1280.000000pt" viewBox="0 0 720.000000 1280.000000"
 preserveAspectRatio="xMidYMid meet">
<metadata>
Created by potrace 1.16, written by Peter Selinger 2001-2019
</metadata>
<g transform="translate(0.000000,1280.000000) scale(0.100000,-0.100000)"
fill="#000000" stroke="none">
<path d="M0 6400 l0 -6400 3600 0 3600 0 0 1025 0 1025 -3590 0 -3590 0 0
3600 0 3600 3590 0 3590 0 0 1775 0 1775 -3600 0 -3600 0 0 -6400z m6795 3680
c149 -64 198 -258 100 -396 -30 -42 -32 -49 -18 -59 13 -10 13 -15 2 -33 -27
-43 -87 -53 -145 -26 -30 14 -42 15 -87 4 -28 -7 -74 -13 -101 -14 -42 -1 -51
3 -72 29 -22 28 -23 31 -7 42 15 12 15 15 -5 35 -55 60 -78 178 -50 269 23 77
103 146 195 168 49 12 137 3 188 -19z m-652 4 c52 -18 116 -76 143 -132 27
-55 26 -174 -3 -227 -51 -94 -120 -136 -233 -143 -63 -4 -85 -1 -128 18 -143
62 -200 232 -124 373 44 81 125 126 233 126 36 1 86 -6 112 -15z m-5802 -239
c21 -88 38 -166 38 -172 1 -8 -12 -13 -32 -13 -28 0 -34 4 -42 33 -9 29 -13
32 -50 31 -35 -1 -40 -4 -47 -32 -8 -28 -13 -32 -42 -32 l-34 0 14 58 c7 31
26 110 41 175 l27 118 44 -3 45 -3 38 -160z m369 73 l1 -93 30 38 c23 27 39
37 60 37 16 0 29 -3 29 -6 0 -4 -16 -27 -35 -53 l-34 -47 21 -35 c11 -19 29
-49 40 -66 l20 -33 -36 0 c-30 0 -38 5 -57 40 -26 45 -39 43 -39 -6 0 -31 -2
-34 -30 -34 l-30 0 0 175 0 175 30 0 30 0 0 -92z m1740 -84 l0 -177 -40 6
c-22 3 -43 1 -46 -4 -9 -16 -50 -10 -77 11 -31 25 -45 104 -28 167 17 61 50
79 109 59 21 -7 22 -5 22 53 l0 61 30 0 30 0 0 -176z m452 84 l3 -92 25 37
c20 30 31 37 58 37 30 0 42 -12 24 -24 -5 -3 -21 -23 -36 -44 l-27 -40 40 -66
41 -66 -34 0 c-28 0 -38 7 -62 43 l-29 42 -3 -43 c-3 -42 -4 -43 -35 -40 l-32
3 -3 173 -2 172 34 0 35 0 3 -92z m728 28 l0 -64 29 14 c31 15 77 6 93 -19 4
-7 8 -58 8 -114 l0 -103 -30 0 -29 0 -3 92 c-3 83 -5 93 -22 96 -33 7 -46 -25
-46 -110 l0 -78 -30 0 -30 0 0 175 0 175 30 0 30 0 0 -64z m530 3 c0 -55 2
-60 18 -53 31 13 76 5 95 -17 13 -16 17 -40 17 -101 0 -71 -2 -81 -26 -105
-21 -21 -31 -24 -57 -18 -18 4 -49 6 -69 6 l-38 -2 0 176 0 175 30 0 30 0 0
-61z m-1480 -9 c0 -38 2 -40 30 -40 25 0 30 -4 30 -25 0 -21 -5 -25 -30 -25
l-31 0 3 -67 c3 -66 4 -68 31 -71 28 -3 31 -9 21 -36 -8 -22 -72 -21 -96 1
-14 13 -18 31 -18 90 0 66 -2 75 -20 80 -13 3 -20 14 -20 29 0 17 6 24 20 24
17 0 20 7 20 40 0 38 2 40 30 40 28 0 30 -2 30 -40z m-2096 -60 c24 -24 34
-122 17 -173 -15 -44 -59 -66 -97 -48 -14 6 -27 11 -29 11 -3 0 -5 -30 -5 -66
l0 -65 -27 3 -28 3 -3 179 -2 179 38 -6 c22 -2 46 -1 53 4 19 12 60 2 83 -21z
m405 19 c44 -16 51 -35 51 -143 l0 -96 -47 -1 c-27 0 -60 -1 -75 -1 -40 -1
-58 19 -58 63 0 43 20 63 83 80 28 7 37 15 35 27 -5 25 -45 27 -58 3 -13 -25
-48 -28 -57 -5 -8 21 28 67 58 75 35 10 33 10 68 -2z m295 -3 c36 -15 43 -28
48 -86 l3 -35 -63 -3 c-62 -3 -63 -3 -60 -30 3 -31 44 -44 54 -18 4 10 18 16
35 16 35 0 39 -25 10 -61 -15 -19 -29 -24 -66 -24 -39 0 -51 5 -71 28 -33 38
-35 150 -4 190 18 22 30 28 73 36 4 0 23 -5 41 -13z m193 3 c32 -12 43 -26 43
-56 0 -31 -45 -33 -53 -3 -7 26 -47 27 -47 1 0 -12 12 -23 33 -31 74 -30 97
-83 58 -131 -15 -19 -29 -24 -66 -24 -37 0 -51 5 -66 24 -28 34 -25 61 7 61
18 0 28 -6 31 -21 7 -25 46 -22 51 4 3 12 -9 23 -42 37 -76 32 -89 107 -23
135 39 17 39 17 74 4z m197 -3 c31 -13 53 -55 38 -71 -14 -14 -50 -3 -55 16
-4 13 -12 20 -24 17 -29 -5 -21 -32 15 -50 51 -25 72 -48 72 -78 0 -42 -29
-70 -77 -77 -35 -5 -45 -2 -67 20 -36 36 -35 67 3 67 20 0 30 -6 34 -20 7 -28
47 -27 47 0 0 15 -13 26 -45 40 -73 31 -85 108 -21 136 39 17 40 17 80 0z
m205 3 c17 -6 36 -19 41 -29 6 -10 10 -62 10 -115 l0 -97 -32 3 c-18 1 -48 -1
-66 -5 -50 -12 -82 13 -82 64 0 44 20 64 83 81 28 7 37 15 35 27 -5 25 -45 27
-58 3 -16 -30 -60 -28 -60 2 0 35 37 65 91 76 3 0 20 -4 38 -10z m318 -21 c17
-16 23 -33 23 -65 l0 -43 -61 0 c-60 0 -60 0 -57 -27 3 -32 44 -46 54 -19 8
20 64 22 64 2 0 -69 -102 -98 -158 -45 -19 17 -22 31 -22 98 0 68 3 80 23 98
12 11 29 23 37 26 25 10 73 -2 97 -25z m1001 -4 c18 -20 22 -37 22 -87 0 -84
-7 -105 -42 -123 -37 -19 -99 -11 -124 17 -23 26 -31 127 -13 170 25 61 112
74 157 23z m240 8 c8 -10 12 -52 12 -119 l0 -103 -30 0 -30 0 0 90 c0 75 -3
92 -17 97 -32 12 -53 -32 -53 -113 l0 -74 -30 0 -30 0 0 120 0 120 29 0 c16 0
31 -5 33 -11 2 -6 14 -5 33 5 33 17 63 13 83 -12z m530 -9 c15 -16 22 -37 22
-64 l0 -39 -61 0 c-60 0 -60 0 -57 -27 3 -32 44 -46 54 -19 4 10 18 16 35 16
35 0 40 -29 9 -60 -27 -27 -63 -34 -105 -20 -46 15 -55 34 -55 123 0 64 3 76
23 94 12 11 29 23 37 26 28 9 75 -5 98 -30z m757 5 c17 -16 21 -34 23 -119 l4
-100 -44 1 c-23 1 -54 -1 -68 -5 -35 -9 -80 27 -80 63 1 39 21 60 74 78 33 11
46 21 46 35 0 26 -36 25 -52 -1 -13 -20 -52 -27 -62 -12 -10 17 29 76 54 83
36 9 82 -1 105 -23z m394 21 c36 -13 61 -53 61 -99 l0 -30 -59 0 c-65 0 -73
-5 -64 -38 6 -26 48 -31 57 -7 3 9 18 15 36 15 28 0 31 -3 25 -22 -4 -13 -18
-34 -33 -47 -21 -19 -33 -22 -65 -18 -59 8 -80 35 -85 107 -5 75 11 118 52
136 38 16 36 16 75 3z m249 0 l43 2 -3 -155 c-3 -134 -5 -157 -22 -175 -42
-46 -144 -35 -166 19 -7 16 -9 34 -5 39 10 18 44 12 57 -9 24 -38 78 -16 78
33 0 11 -11 13 -48 9 -44 -4 -51 -2 -70 23 -18 22 -22 41 -21 94 0 36 4 74 8
85 10 27 52 47 81 39 14 -3 44 -5 68 -4z m237 -20 c17 -16 21 -35 23 -120 l4
-100 -44 1 c-23 1 -55 -1 -70 -5 -21 -6 -32 -2 -52 18 -14 15 -26 38 -26 52 0
25 31 65 50 65 6 0 26 7 45 14 25 11 33 19 29 30 -9 23 -51 20 -59 -4 -4 -12
-15 -20 -29 -20 -32 0 -36 7 -24 42 20 56 107 71 153 27z m-3045 -99 l0 -120
-35 0 -35 0 0 120 0 120 35 0 35 0 0 -120z m1840 108 c0 -9 3 -9 12 0 16 16
83 15 96 0 5 -7 12 -60 14 -118 l3 -105 -32 -3 -33 -3 0 91 c0 72 -3 92 -15
96 -33 13 -45 -15 -45 -102 l0 -84 -35 0 -35 0 0 120 0 120 35 0 c21 0 35 -5
35 -12z m431 -5 c0 -10 8 -43 18 -73 l17 -55 18 73 c18 71 19 72 51 72 l33 0
-34 -117 c-69 -246 -66 -238 -103 -241 -28 -3 -32 -1 -28 15 31 106 31 95 -2
207 -18 59 -35 114 -38 122 -4 10 4 14 31 14 27 0 36 -4 37 -17z"/>
<path d="M6613 9773 c-20 -4 -23 -11 -23 -51 l0 -47 85 0 85 0 0 46 c0 40 -3
48 -22 53 -25 6 -90 6 -125 -1z"/>
<path d="M1570 4801 c-36 -33 -63 -61 -60 -64 3 -2 15 -10 28 -16 13 -7 27
-22 32 -35 5 -14 1 -136 -11 -307 -10 -156 -19 -289 -19 -296 0 -6 -18 -28
-40 -49 -22 -21 -38 -39 -36 -42 4 -3 96 -13 318 -32 114 -10 131 -9 160 6 38
19 138 96 138 105 0 3 -46 9 -102 13 -57 3 -161 11 -231 18 -123 11 -128 12
-103 27 14 8 30 27 35 42 12 35 46 607 38 640 -6 24 -43 49 -70 49 -7 -1 -41
-27 -77 -59z"/>
<path d="M1892 4832 c-37 -4 -57 -29 -65 -83 -5 -31 -1 -39 27 -61 37 -30 56
-82 56 -156 l0 -52 48 26 c62 34 77 53 92 115 17 71 -2 162 -39 188 -28 20
-68 28 -119 23z"/>
<path d="M2545 4688 c-63 -50 -69 -59 -116 -166 -28 -63 -48 -120 -45 -128 5
-12 32 -17 64 -13 8 1 41 61 76 139 58 132 77 175 78 180 0 3 4 13 9 23 14 26
7 22 -66 -35z"/>
<path d="M2968 4607 c-37 -29 -67 -56 -67 -62 -1 -5 13 -18 29 -27 28 -16 30
-21 30 -80 0 -35 -7 -150 -15 -257 -14 -179 -14 -196 2 -213 13 -14 13 -18 2
-18 -29 0 -234 23 -238 26 -3 3 5 11 17 20 15 10 22 25 22 49 0 46 -35 134
-68 167 -32 35 -120 68 -185 71 -46 2 -51 0 -66 -28 -9 -16 -21 -44 -27 -62
l-12 -31 59 -23 c83 -31 133 -94 145 -183 6 -41 4 -47 -22 -70 -16 -13 -26
-27 -23 -30 8 -8 159 -26 218 -26 38 0 52 6 92 40 26 22 50 40 53 40 3 0 6
-14 6 -31 0 -21 -6 -32 -17 -36 -10 -3 -28 -17 -40 -32 l-22 -28 125 -11 125
-11 62 50 c33 27 66 49 73 49 6 0 17 -14 24 -31 24 -58 93 -94 200 -104 54 -6
68 -4 79 9 20 24 35 20 91 -22 28 -21 71 -46 98 -55 58 -21 167 -22 215 -2 54
22 70 20 63 -9 -5 -21 -2 -24 40 -30 42 -5 50 -3 88 26 84 66 82 63 36 82 -27
11 -40 21 -37 30 6 15 -8 14 -75 -6 -27 -8 -58 -7 -120 2 -92 14 -107 20 -158
62 -57 47 -59 48 -70 48 -5 0 -10 6 -10 14 0 7 -9 25 -20 38 -10 14 -29 52
-42 84 -39 101 -27 321 21 379 16 20 16 20 -9 0 -51 -39 -110 -99 -110 -111 0
-6 -6 -17 -14 -23 -7 -6 -19 -31 -26 -56 -14 -50 -12 -58 47 -185 34 -73 73
-111 135 -133 20 -7 14 -37 -7 -37 -29 0 -166 30 -187 41 -75 38 -96 82 -107
219 -10 121 -23 150 -68 150 -37 0 -61 -17 -89 -62 -26 -41 -26 -43 -11 -87 8
-25 18 -76 20 -114 3 -37 10 -73 16 -81 16 -20 -9 -27 -51 -15 -18 5 -54 9
-79 9 -59 0 -109 10 -109 21 0 5 9 9 20 9 11 0 20 6 20 14 0 8 4 16 9 18 13 4
25 116 47 405 19 246 15 283 -24 283 -10 0 -22 4 -28 10 -6 6 -33 -9 -76 -43z"/>
<path d="M3251 4613 c-12 -10 -24 -35 -28 -56 -5 -33 -2 -42 19 -60 38 -33 51
-66 57 -139 l6 -68 52 24 c67 32 86 67 87 161 0 80 -21 130 -60 145 -41 16
-109 12 -133 -7z"/>
<path d="M2550 4528 c-17 -40 -41 -93 -52 -117 -10 -24 -18 -44 -16 -46 2 -1
35 -19 74 -38 39 -20 85 -48 103 -63 17 -14 34 -24 36 -22 3 2 -1 27 -9 54 -7
27 -26 94 -40 149 -31 115 -45 155 -56 155 -4 0 -22 -33 -40 -72z"/>
<path d="M3833 4467 c-40 -23 -53 -37 -53 -54 0 -19 5 -23 34 -23 37 0 140
-69 169 -113 9 -13 30 -30 47 -37 29 -12 36 -11 83 15 83 44 119 95 68 95 -9
0 -37 21 -61 46 -82 84 -116 104 -179 103 -44 -1 -67 -8 -108 -32z"/>
<path d="M1877 4445 c-30 -21 -67 -69 -67 -89 0 -2 17 -7 39 -11 42 -7 83 -43
100 -88 6 -16 11 -57 11 -92 0 -35 3 -66 8 -68 19 -12 77 21 106 61 28 39 31
52 34 125 2 71 -1 88 -20 122 -29 49 -58 65 -123 65 -38 0 -60 -6 -88 -25z"/>
<path d="M2254 4342 c-38 -35 -42 -42 -46 -99 -4 -61 -4 -63 24 -72 15 -6 28
-14 28 -20 0 -5 -15 -43 -33 -83 -27 -59 -45 -82 -90 -118 -32 -25 -57 -48
-57 -51 0 -9 65 -19 119 -19 32 0 54 7 80 27 48 35 101 85 101 95 0 4 -31 8
-70 8 -56 0 -70 3 -70 15 0 9 9 15 23 15 34 1 51 19 86 95 17 39 38 83 46 98
21 40 19 45 -18 60 -22 10 -37 26 -46 50 -8 21 -20 37 -25 37 -6 -1 -30 -18
-52 -38z"/>
<path d="M4008 4082 c-31 -26 -57 -52 -57 -58 -1 -6 10 -16 23 -22 32 -15 45
-62 36 -137 -4 -33 -4 -64 0 -69 14 -14 66 4 97 34 25 24 31 41 37 91 14 141
6 183 -36 198 -41 14 -35 17 -100 -37z"/>
</g>
</svg>
