<?xml version="1.0" standalone="no"?>
<!DOCTYPE svg PUBLIC "-//W3C//DTD SVG 20010904//EN"
 "http://www.w3.org/TR/2001/REC-SVG-20010904/DTD/svg10.dtd">
<svg version="1.0" xmlns="http://www.w3.org/2000/svg"
 width="720.000000pt" height="1280.000000pt" viewBox="0 0 720.000000 1280.000000"
 preserveAspectRatio="xMidYMid meet">
<metadata>
Created by potrace 1.16, written by Peter Selinger 2001-2019
</metadata>
<g transform="translate(0.000000,1280.000000) scale(0.100000,-0.100000)"
fill="#000000" stroke="none">
<path d="M0 6400 l0 -6400 3600 0 3600 0 0 1025 0 1024 -2708 3 c-1928 2
-2713 6 -2723 14 -8 6 -40 16 -72 23 -36 8 -62 20 -70 32 -6 10 -19 19 -28 19
-8 0 -25 9 -37 20 -13 12 -35 20 -57 20 -20 0 -42 7 -53 17 -10 11 -36 19 -62
21 -25 1 -46 7 -48 12 -2 6 -10 10 -18 10 -8 0 -14 6 -14 14 0 21 -21 31 -30
16 -7 -11 -21 -11 -78 0 -60 11 -71 16 -76 36 -5 20 -13 24 -46 24 -22 0 -40
-4 -40 -9 0 -15 -79 -22 -145 -14 l-60 8 -9 82 c-5 46 -13 83 -17 83 -5 0 -9
18 -9 40 0 22 -4 40 -8 40 -17 0 -32 51 -32 105 l0 55 -42 1 c-24 1 -49 1 -56
0 -18 -3 -24 22 -13 52 7 17 7 27 1 27 -6 0 -10 18 -10 40 0 33 -3 40 -20 40
-17 0 -20 7 -20 40 0 33 -3 40 -20 40 -17 0 -20 7 -20 39 0 36 -3 40 -28 43
-27 3 -27 4 -30 81 l-3 77 46 0 45 0 0 80 c0 73 -2 80 -20 80 -19 0 -20 7 -20
240 0 207 2 240 15 240 12 0 15 14 15 65 l0 65 35 0 c24 0 35 5 35 15 0 10 10
15 30 15 l30 0 0 79 c0 75 1 80 23 83 20 3 22 9 25 70 2 58 0 70 -18 85 -25
22 -29 93 -5 93 10 0 15 11 15 35 0 23 5 35 14 35 16 0 32 153 16 158 -5 2
-10 36 -10 75 0 40 -4 87 -9 105 -8 28 -7 36 10 53 23 23 39 17 39 -13 0 -16
5 -19 23 -14 12 3 25 6 30 6 4 0 7 7 7 15 0 8 11 25 25 39 30 30 32 52 5 59
-18 5 -20 14 -20 101 0 79 3 96 15 96 11 0 15 11 15 39 0 33 3 39 25 43 22 5
25 2 25 -27 0 -28 3 -32 22 -28 20 4 23 11 23 49 0 29 -4 44 -12 44 -18 0 -18
159 0 161 6 1 38 29 70 64 l58 62 2 92 c1 59 6 94 14 99 7 5 14 39 16 82 3 58
4 54 3 -20 -1 -52 0 -87 2 -77 2 9 10 17 18 17 11 0 14 17 14 80 0 73 2 80 20
80 18 0 20 7 20 75 0 58 5 86 24 127 14 29 30 68 36 86 7 17 19 32 26 32 8 0
17 13 20 29 4 17 12 32 19 35 8 3 15 37 20 98 3 51 11 108 16 126 9 28 15 32
45 32 l34 0 0 79 c0 54 -4 81 -12 83 -9 3 -8 9 5 22 16 17 17 16 17 -6 0 -18
2 -20 10 -8 6 10 10 11 10 3 0 -18 37 -16 44 2 3 8 15 15 26 15 21 0 23 10 24
90 1 31 4 35 29 38 15 2 27 7 27 11 0 5 9 11 19 14 16 4 20 15 23 58 3 49 5
54 28 57 70 8 103 41 115 116 9 52 13 61 32 64 18 3 23 10 23 33 0 19 5 29 15
29 8 0 15 6 15 14 0 8 21 32 47 53 70 56 69 55 77 106 5 32 12 47 23 47 8 0
17 9 20 20 3 12 14 20 26 20 26 0 46 27 47 63 0 16 5 27 14 27 7 0 16 14 20
31 4 19 13 33 26 36 16 4 20 14 20 44 0 34 3 39 24 39 19 0 26 8 36 45 10 35
30 63 81 114 l69 69 0 78 0 79 46 19 c45 18 64 44 64 86 0 19 26 54 73 98 15
14 27 33 27 42 0 10 6 23 14 29 8 7 17 23 20 36 4 14 13 25 21 25 8 0 15 5 15
10 0 6 7 10 15 10 8 0 15 -5 15 -11 0 -5 5 -7 10 -4 6 4 8 15 5 25 -4 13 0 20
15 25 14 4 20 15 20 35 0 22 5 29 23 32 15 2 23 11 25 28 2 14 11 29 20 34 14
8 14 10 -3 17 -16 6 -15 8 10 8 62 2 75 11 75 48 0 34 18 63 39 63 6 0 11 9
11 21 0 14 5 19 14 16 10 -4 16 2 18 21 2 19 8 26 21 24 14 -2 17 5 17 38 0
33 3 40 19 40 11 0 22 -8 24 -17 4 -17 5 -17 6 0 0 9 7 17 14 17 7 0 21 11 31
25 10 14 25 25 32 25 8 0 14 9 14 20 0 14 9 21 35 26 20 3 35 12 35 20 0 8 9
14 19 14 11 0 27 7 36 16 8 9 33 18 55 21 22 3 40 10 40 14 0 5 9 9 20 9 11 0
20 5 20 10 0 6 28 10 65 10 68 0 87 14 35 25 -16 4 -30 13 -30 21 0 10 17 15
68 16 37 2 -756 5 -1763 8 -1493 4 -1168 6 1758 8 l3587 2 0 1775 0 1775
-3600 0 -3600 0 0 -6400z m6782 3684 c50 -17 112 -73 138 -125 44 -85 32 -202
-29 -284 -25 -34 -27 -41 -14 -50 14 -10 14 -14 -2 -38 -22 -35 -88 -46 -136
-23 -29 13 -43 14 -94 4 -106 -20 -142 -17 -169 17 -22 27 -22 31 -7 41 15 11
14 14 -6 36 -38 40 -63 108 -63 172 0 78 16 128 58 176 77 90 199 118 324 74z
m-639 0 c52 -18 116 -76 142 -130 22 -47 30 -130 16 -180 -32 -119 -134 -194
-265 -194 -165 0 -272 106 -270 266 2 153 105 252 265 253 36 1 86 -6 112 -15z
m-5839 -91 c10 -34 76 -315 76 -324 0 -5 -16 -9 -35 -9 -30 0 -35 3 -35 24 0
31 -13 39 -59 39 -31 0 -36 -3 -43 -31 -8 -28 -13 -32 -42 -32 l-34 0 14 58
c7 31 25 110 40 175 l28 117 42 0 c32 0 44 -4 48 -17z m406 -75 l1 -93 30 38
c23 27 39 37 60 37 16 0 29 -3 29 -6 0 -4 -16 -27 -35 -53 l-34 -47 21 -35
c11 -19 29 -49 40 -66 l20 -33 -36 0 c-30 0 -38 5 -57 40 -26 45 -39 43 -39
-6 0 -31 -2 -34 -30 -34 l-30 0 0 175 0 175 30 0 30 0 0 -92z m1740 -83 l0
-176 -42 1 c-24 1 -55 -1 -69 -5 -19 -5 -33 -1 -55 18 -27 24 -29 29 -29 106
0 69 3 84 21 102 23 22 55 28 92 15 21 -7 22 -5 22 53 l0 61 30 0 30 0 0 -175z
m452 83 l3 -92 25 37 c20 30 31 37 58 37 30 0 42 -12 24 -24 -5 -3 -21 -23
-36 -44 l-27 -40 41 -66 41 -67 -38 3 c-32 3 -41 9 -58 40 -26 49 -35 48 -35
-2 0 -39 -1 -40 -35 -40 l-35 0 0 175 0 175 35 0 34 0 3 -92z m728 28 l0 -65
35 15 c28 11 40 12 58 3 34 -18 37 -27 37 -136 l0 -103 -30 0 -30 0 0 90 c0
75 -3 92 -16 97 -37 14 -49 -10 -52 -101 l-3 -86 -29 0 -30 0 0 175 0 175 30
0 30 0 0 -64z m530 3 c0 -58 1 -60 23 -53 76 26 107 -8 107 -118 0 -71 -2 -81
-26 -105 -20 -20 -31 -24 -52 -18 -15 4 -46 6 -69 5 l-43 -1 0 176 0 175 30 0
30 0 0 -61z m-1480 -9 c0 -38 2 -40 30 -40 25 0 30 -4 30 -25 0 -21 -5 -25
-30 -25 l-31 0 3 -67 c3 -66 4 -68 31 -71 21 -3 27 -8 23 -19 -3 -8 -6 -19 -6
-24 0 -16 -73 -10 -92 8 -14 13 -18 31 -18 90 0 66 -2 75 -20 80 -13 3 -20 14
-20 29 0 17 6 24 20 24 17 0 20 7 20 40 0 38 2 40 30 40 28 0 30 -2 30 -40z
m-2096 -61 c24 -23 34 -121 17 -172 -15 -44 -59 -66 -97 -48 -14 6 -27 11 -29
11 -3 0 -5 -29 -5 -65 l0 -65 -30 0 -30 0 0 181 0 182 38 -5 c20 -3 46 -2 57
3 26 10 55 2 79 -22z m405 20 c17 -6 36 -19 41 -29 6 -10 10 -62 10 -115 l0
-97 -32 3 c-18 1 -48 -1 -66 -5 -50 -12 -82 13 -82 64 0 44 20 64 83 81 28 7
37 15 35 27 -5 25 -45 27 -58 3 -13 -25 -48 -28 -57 -5 -8 21 28 67 58 75 35
10 33 10 68 -2z m287 1 c39 -15 53 -39 54 -87 l0 -43 -61 0 c-60 0 -60 0 -57
-27 3 -32 44 -46 54 -19 9 23 64 21 64 -2 0 -51 -67 -84 -124 -62 -45 17 -55
38 -56 116 0 78 20 119 63 127 12 2 25 5 29 6 4 0 19 -4 34 -9z m201 -1 c32
-12 43 -26 43 -56 0 -31 -45 -33 -53 -2 -7 24 -40 23 -45 -2 -2 -10 9 -21 30
-29 75 -30 98 -83 59 -131 -40 -50 -151 -22 -151 38 0 19 5 23 30 23 24 0 30
-4 30 -21 0 -15 5 -20 22 -17 42 6 33 36 -16 58 -76 32 -89 107 -23 135 39 17
39 17 74 4z m202 -4 c26 -13 46 -56 33 -70 -14 -14 -50 -3 -55 16 -4 13 -12
20 -24 17 -29 -5 -21 -32 15 -50 73 -36 92 -81 53 -129 -15 -19 -29 -24 -66
-24 -37 0 -51 5 -66 24 -29 36 -25 61 10 61 21 0 30 -6 34 -21 7 -25 40 -22
45 4 3 12 -9 23 -42 37 -74 31 -86 108 -22 136 40 17 51 17 85 -1z m200 4 c17
-6 36 -19 41 -29 6 -10 10 -62 10 -115 l0 -97 -32 3 c-18 1 -48 -1 -66 -5 -50
-12 -82 13 -82 64 0 44 20 64 83 81 28 7 37 15 35 27 -5 25 -45 27 -58 3 -11
-22 -44 -28 -55 -11 -12 20 8 59 38 74 38 19 45 19 86 5z m319 -22 c16 -15 22
-32 22 -64 l0 -43 -61 0 c-60 0 -60 0 -57 -27 3 -32 44 -46 54 -19 9 23 64 21
64 -2 0 -49 -66 -84 -121 -64 -50 20 -59 37 -59 121 0 68 3 80 23 98 12 11 29
23 37 26 25 9 73 -4 98 -26z m1000 -3 c18 -21 22 -36 22 -98 0 -77 -15 -107
-61 -121 -31 -10 -84 3 -105 26 -23 26 -31 127 -13 170 24 60 111 73 157 23z
m240 8 c8 -10 12 -52 12 -119 l0 -103 -30 0 -30 0 0 90 c0 75 -3 92 -17 97
-32 12 -53 -32 -53 -113 l0 -74 -30 0 -30 0 0 120 0 120 29 0 c16 0 31 -5 33
-11 2 -6 14 -5 33 5 33 17 63 13 83 -12z m530 -8 c15 -17 22 -38 22 -65 l0
-39 -61 0 c-60 0 -60 0 -57 -27 3 -32 44 -46 54 -19 4 10 18 16 35 16 22 0 29
-5 29 -20 0 -42 -64 -79 -115 -66 -52 13 -65 39 -65 124 0 69 3 81 23 99 12
11 29 23 37 26 28 11 75 -3 98 -29z m539 12 c7 -6 13 -53 15 -116 l3 -105 -32
-3 -33 -3 0 91 c0 72 -3 92 -15 96 -33 13 -45 -15 -45 -102 l0 -84 -35 0 -35
0 0 120 0 120 35 0 c19 0 35 -4 35 -9 0 -6 12 -3 28 4 28 15 58 12 79 -9z
m221 -12 c19 -22 22 -36 22 -120 l0 -95 -42 1 c-24 1 -54 -1 -68 -5 -34 -9
-80 27 -80 61 0 41 18 63 63 75 52 15 67 26 60 45 -8 21 -41 17 -55 -6 -12
-19 -48 -27 -60 -14 -15 14 11 60 43 77 43 22 86 16 117 -19z m391 25 c36 -13
61 -53 61 -99 l0 -30 -59 0 c-65 0 -73 -5 -64 -38 6 -26 53 -32 53 -7 0 11 11
15 36 15 32 0 35 -2 29 -22 -13 -43 -42 -63 -90 -63 -64 0 -87 27 -93 105 -5
75 11 118 52 136 38 16 36 16 75 3z m204 -3 c15 -8 27 -11 27 -5 0 5 14 9 30
9 l30 0 0 -149 c0 -134 -2 -151 -20 -174 -41 -52 -147 -44 -170 13 -7 16 -9
34 -5 39 9 15 46 7 60 -12 27 -37 75 -10 75 43 0 17 -3 19 -19 10 -36 -19 -78
-12 -100 16 -16 21 -21 41 -21 88 0 85 8 106 44 122 39 17 36 17 69 0z m285
-22 c19 -22 22 -36 22 -120 l0 -95 -42 1 c-24 1 -54 -1 -68 -5 -35 -9 -80 27
-80 64 0 39 19 60 70 75 33 10 46 19 48 35 4 28 -31 29 -51 0 -22 -30 -63 -23
-59 11 10 70 109 91 160 34z m-3048 -94 l0 -120 -35 0 -35 0 0 113 c0 63 3
117 7 120 3 4 19 7 35 7 l28 0 0 -120z m2280 63 c19 -91 25 -93 45 -14 17 70
18 71 50 71 l33 0 -52 -177 -51 -178 -33 -3 c-29 -3 -33 -1 -29 15 31 106 31
95 -2 207 -18 59 -35 114 -38 122 -4 10 4 14 29 14 34 0 35 -1 48 -57z"/>
<path d="M6613 9773 c-20 -4 -23 -11 -23 -51 l0 -47 85 0 85 0 0 46 c0 40 -3
48 -22 53 -25 6 -90 6 -125 -1z"/>
<path d="M2480 6921 c-5 -11 -10 -39 -10 -63 -1 -24 -7 -95 -15 -158 -8 -63
-24 -216 -36 -340 -11 -124 -26 -235 -31 -247 -6 -11 -8 -25 -6 -30 6 -9 -3
-112 -26 -303 -13 -111 -42 -401 -83 -847 -4 -44 -2 -63 6 -63 6 0 11 5 11 10
0 6 7 10 15 10 8 0 15 -7 15 -15 0 -8 -4 -15 -9 -15 -5 0 -13 -14 -16 -31 -6
-24 -9 -28 -17 -18 -7 10 -8 6 -5 -13 2 -15 0 -29 -5 -30 -11 -4 -33 -136 -25
-145 13 -12 200 -33 394 -43 108 -6 199 -13 204 -15 4 -3 19 -1 32 4 19 8 42
44 97 158 69 142 72 150 66 203 -3 31 -15 78 -28 105 -18 41 -23 73 -26 176
-3 79 0 146 8 180 7 30 16 92 21 139 5 47 12 102 15 122 6 34 4 37 -17 35 -37
-2 -52 -24 -56 -83 -4 -51 -43 -141 -55 -128 -3 3 -22 -19 -41 -48 -20 -29
-45 -59 -56 -66 -12 -7 -21 -19 -21 -27 0 -8 -4 -15 -9 -15 -5 0 -12 -7 -15
-16 -4 -9 -2 -13 5 -8 7 4 9 -1 4 -15 -5 -17 -3 -20 12 -15 15 5 16 4 3 -5
-22 -16 -43 -14 -36 4 8 21 -57 -14 -103 -55 -18 -16 -39 -31 -45 -32 -33 -5
-86 -2 -86 5 0 4 19 42 43 85 73 130 177 352 177 379 0 7 7 25 16 38 9 14 14
36 12 49 -3 16 2 28 14 37 11 8 33 38 50 68 l31 54 -42 36 c-45 39 -50 55 -23
70 15 9 15 10 -5 11 -16 0 -22 -7 -25 -27 -2 -23 -8 -28 -28 -26 -41 3 -70 -6
-70 -23 0 -29 -25 -8 -26 22 0 34 10 44 51 44 28 1 29 1 11 15 -18 14 -17 15
18 30 20 9 34 19 32 24 -3 5 -38 12 -77 15 -80 8 -101 14 -93 27 2 5 0 18 -6
29 -9 16 -8 20 5 20 17 0 19 7 15 68 -1 36 1 42 18 42 11 0 25 -6 31 -14 16
-19 87 -30 193 -31 64 0 88 3 88 13 0 6 -6 12 -14 12 -8 0 -29 23 -47 50 -18
28 -37 50 -43 50 -14 0 -20 86 -6 95 14 9 13 78 -2 93 -6 6 -13 30 -14 52 -1
22 -9 46 -17 55 -8 8 -18 20 -21 27 -5 10 -7 10 -12 1 -8 -18 -24 -16 -24 2 0
8 -5 15 -10 15 -6 0 -18 18 -27 40 -10 22 -21 40 -25 40 -5 0 -8 9 -8 20 0 11
-4 20 -10 20 -5 0 -10 9 -10 20 0 11 -5 20 -11 20 -5 0 -17 16 -25 35 -12 29
-20 35 -44 35 -16 0 -32 5 -35 10 -10 16 -23 12 -35 -9z"/>
<path d="M3830 6801 c-13 -10 -13 -11 0 -11 24 -1 107 -199 93 -222 -2 -5 -16
-8 -31 -9 -26 0 -26 -1 -5 -11 19 -9 43 -54 43 -80 0 -5 -15 0 -34 11 -40 25
-59 26 -76 6 -11 -13 -9 -19 11 -33 27 -19 27 -19 74 -21 51 -2 61 -27 39 -99
-9 -31 -17 -90 -18 -130 -1 -105 -14 -113 -205 -127 -45 -3 -81 -10 -89 -19
-12 -12 -9 -16 21 -31 19 -9 45 -27 58 -41 12 -13 28 -24 36 -24 7 0 13 -7 13
-16 0 -8 -4 -12 -10 -9 -6 4 -10 -6 -10 -22 0 -16 -9 -46 -21 -67 -17 -32 -19
-44 -10 -63 6 -13 11 -30 11 -37 0 -14 -93 -136 -113 -148 -6 -4 -8 -11 -3
-15 4 -4 38 25 74 65 37 40 72 72 79 72 22 0 93 -44 108 -66 8 -13 31 -31 51
-40 34 -16 36 -20 31 -56 -6 -43 5 -49 39 -17 l22 20 22 -36 c14 -23 19 -42
14 -53 -4 -9 -8 -26 -9 -37 -8 -82 -26 -189 -35 -205 -5 -10 -10 -34 -10 -53
l0 -35 37 13 c20 7 40 22 44 34 5 11 8 63 8 115 -1 52 2 99 5 104 3 5 31 7 63
6 52 -3 63 0 113 33 30 20 66 36 80 37 16 1 26 8 28 21 2 11 15 32 29 46 13
15 30 43 37 63 13 38 14 148 1 179 -5 13 -2 17 13 17 11 0 22 7 26 15 3 8 14
15 25 15 12 0 28 11 37 25 21 32 51 33 56 3 3 -20 10 -23 49 -26 45 -3 47 -2
53 29 13 68 13 68 -79 72 -25 1 -45 5 -45 8 0 18 46 43 90 47 27 2 54 10 59
16 5 6 12 36 16 68 6 51 5 56 -11 55 -13 -1 -18 4 -16 16 2 9 -2 17 -7 17 -5
0 -11 -10 -13 -22 -3 -26 -41 -37 -63 -18 -7 6 -24 8 -38 5 -14 -4 -34 -2 -44
4 -16 9 -16 10 7 11 14 1 19 4 13 7 -21 8 -15 20 15 28 44 12 134 15 152 5 19
-10 30 11 30 60 0 24 -3 25 -40 22 -25 -3 -40 0 -40 7 0 9 35 14 66 10 13 -2
24 27 24 64 0 20 -5 37 -11 37 -5 0 -8 -4 -5 -9 4 -5 -2 -7 -12 -4 -10 2 -22
18 -28 35 -12 42 -37 57 -61 37 -20 -17 -63 -23 -63 -8 0 5 -9 9 -20 9 -11 0
-20 -6 -20 -13 0 -8 -15 -18 -34 -24 -27 -9 -37 -8 -50 5 -11 12 -18 13 -29 4
-16 -14 -27 -6 -27 19 0 11 11 19 35 23 19 4 37 11 40 16 11 17 -35 45 -75 46
-22 0 -42 3 -45 6 -3 3 6 27 20 53 14 26 26 45 26 41 1 -3 2 -12 3 -18 0 -7
14 -14 30 -16 24 -3 28 -1 22 14 -4 10 0 24 9 34 15 16 13 19 -24 37 -34 17
-43 18 -52 7 -6 -8 -8 -14 -3 -14 5 0 -2 -7 -15 -16 -19 -14 -27 -14 -47 -4
-15 9 -24 22 -24 37 0 27 -27 73 -42 73 -6 0 -8 -15 -4 -37 l6 -38 -22 45
c-12 25 -23 47 -25 49 -14 18 -370 38 -393 22z"/>
<path d="M3408 6253 c-1 -10 -2 -27 -3 -38 -1 -11 -3 -26 -4 -33 0 -7 -5 -11
-10 -8 -5 3 -15 -17 -21 -46 -9 -35 -23 -61 -44 -80 -39 -36 -49 -35 -44 4 6
37 -7 54 -51 69 -16 6 -32 18 -34 27 -4 15 -5 15 -6 0 0 -10 -8 -18 -16 -18
-8 0 -15 -9 -15 -19 0 -11 -2 -26 -5 -33 -3 -8 9 -30 27 -49 20 -20 32 -42 30
-52 -2 -10 4 -27 13 -37 18 -20 13 -40 -11 -40 -17 0 -19 -27 -1 -33 9 -3 7
-9 -6 -24 -19 -22 -14 -33 18 -33 14 0 26 -10 35 -27 12 -26 13 -27 21 -8 7
18 8 17 8 -7 2 -67 43 -102 86 -74 13 9 26 16 29 16 2 0 7 -34 11 -75 9 -91
21 -90 17 0 l-4 64 69 -2 c73 -2 92 10 49 31 -34 17 -33 28 4 47 26 13 30 14
30 1 0 -22 19 -30 26 -12 3 9 -2 28 -12 44 -10 15 -19 38 -20 51 -2 14 -15 52
-30 84 -14 33 -29 78 -31 101 -3 22 -11 48 -19 56 -11 14 -29 56 -56 138 -12
35 -27 42 -30 15z"/>
<path d="M5557 5873 c-34 -24 -118 -125 -158 -190 -16 -27 -22 -28 -43 -7 -20
20 -21 58 -1 74 8 7 15 18 15 24 0 6 -12 -2 -25 -17 -30 -34 -32 -68 -5 -92
26 -24 25 -33 -9 -74 l-28 -34 -23 39 c-28 46 -41 57 -55 43 -6 -6 -6 -12 1
-17 13 -9 54 -80 54 -93 0 -17 -43 -48 -67 -49 -19 0 -23 5 -23 33 0 17 4 47
9 65 14 47 -4 30 -25 -23 -32 -84 16 -122 93 -75 l32 19 56 -34 c97 -58 201
-58 240 1 8 13 21 24 29 24 18 0 92 77 110 115 21 44 9 89 -26 93 -20 2 -35
-8 -68 -45 -59 -67 -73 -98 -66 -144 5 -32 2 -40 -16 -53 -12 -9 -37 -16 -55
-16 -44 0 -135 35 -161 63 l-21 22 35 45 c31 39 42 46 87 53 75 11 165 64 207
122 28 39 34 58 35 98 0 31 -5 52 -12 54 -9 3 -11 -4 -7 -25 10 -49 -51 -146
-117 -187 -41 -26 -116 -51 -125 -42 -9 9 132 203 169 232 44 34 12 32 -36 -2z"/>
<path d="M5038 5788 c-17 -14 -76 -105 -107 -167 -22 -42 -28 -101 -11 -101
14 0 170 150 170 164 0 6 -20 -10 -45 -36 -40 -43 -65 -59 -65 -42 0 4 23 49
51 100 33 62 46 94 37 94 -8 0 -21 -6 -30 -12z"/>
<path d="M4368 5277 c-74 -61 -151 -108 -243 -151 -44 -20 -88 -41 -97 -46
-10 -6 -24 -10 -33 -10 -17 0 -22 -18 -30 -124 -13 -156 -72 -271 -223 -437
-59 -64 -88 -119 -70 -130 17 -11 26 -11 33 1 3 6 39 36 78 67 40 31 89 74
109 95 21 21 42 38 46 38 17 0 222 212 222 229 0 5 12 23 26 38 15 15 34 39
42 53 9 14 35 48 58 75 34 40 83 120 89 145 3 8 16 44 26 65 16 37 37 135 29
135 -5 0 -32 -19 -62 -43z"/>
</g>
</svg>
