<?xml version="1.0" standalone="no"?>
<!DOCTYPE svg PUBLIC "-//W3C//DTD SVG 20010904//EN"
 "http://www.w3.org/TR/2001/REC-SVG-20010904/DTD/svg10.dtd">
<svg version="1.0" xmlns="http://www.w3.org/2000/svg"
 width="720.000000pt" height="1280.000000pt" viewBox="0 0 720.000000 1280.000000"
 preserveAspectRatio="xMidYMid meet">
<metadata>
Created by potrace 1.16, written by Peter Selinger 2001-2019
</metadata>
<g transform="translate(0.000000,1280.000000) scale(0.100000,-0.100000)"
fill="#000000" stroke="none">
<path d="M0 6400 l0 -6400 3600 0 3600 0 0 6400 0 6400 -3600 0 -3600 0 0
-6400z m6796 3680 c151 -69 198 -267 95 -405 -25 -34 -27 -41 -14 -50 14 -10
14 -14 -1 -37 -26 -40 -88 -50 -140 -23 -24 13 -38 13 -90 3 -107 -20 -145
-17 -172 17 -21 27 -21 30 -6 41 16 11 15 14 -5 36 -56 60 -79 178 -51 269 23
77 102 146 195 169 50 12 138 3 189 -20z m-653 4 c29 -10 64 -34 92 -62 124
-125 89 -333 -68 -412 -134 -67 -310 -20 -371 98 -46 89 -41 199 13 284 41 65
129 108 221 108 36 0 87 -7 113 -16z m-5834 -111 c15 -56 71 -300 71 -307 0
-3 -16 -6 -35 -6 -30 0 -35 3 -35 24 0 34 -23 49 -64 42 -27 -5 -35 -12 -40
-36 -5 -26 -10 -30 -40 -30 l-34 0 14 58 c7 31 25 110 40 175 l28 117 42 0
c41 0 44 -2 53 -37z m403 -55 l3 -93 25 37 c20 31 31 38 58 38 17 0 32 -3 32
-6 0 -4 -16 -28 -35 -53 -30 -41 -33 -50 -21 -67 7 -10 25 -40 40 -66 l27 -48
-35 0 c-30 0 -38 5 -57 40 -26 45 -39 43 -39 -6 0 -31 -2 -34 -30 -34 l-30 0
0 175 0 175 30 0 29 0 3 -92z m1738 -83 l0 -176 -42 1 c-24 1 -55 -1 -69 -5
-19 -5 -33 -1 -55 18 -28 24 -29 29 -29 106 1 69 4 85 22 102 22 22 54 28 91
15 21 -7 22 -5 22 53 l0 61 30 0 30 0 0 -175z m452 83 l3 -92 25 37 c20 30 31
37 58 37 30 0 42 -12 24 -24 -5 -3 -21 -23 -36 -44 l-27 -40 40 -66 41 -66
-35 0 c-30 0 -39 6 -62 43 l-28 42 -3 -42 c-3 -42 -4 -43 -38 -43 l-34 0 0
175 0 175 35 0 34 0 3 -92z m728 27 l0 -66 30 16 c33 17 60 13 85 -11 11 -12
15 -40 15 -120 l0 -104 -30 0 -30 0 0 90 c0 75 -3 92 -16 97 -37 14 -49 -10
-52 -101 l-3 -86 -29 0 -30 0 0 175 0 175 30 0 30 0 0 -65z m530 4 c0 -58 1
-60 23 -53 76 26 107 -8 107 -118 0 -71 -2 -81 -26 -105 -20 -20 -31 -24 -52
-18 -15 4 -46 6 -69 5 l-43 -1 0 176 0 175 30 0 30 0 0 -61z m-1480 -9 c0 -38
2 -40 30 -40 25 0 30 -4 30 -25 0 -21 -5 -25 -30 -25 l-31 0 3 -67 c3 -66 4
-68 31 -71 21 -3 27 -8 23 -19 -3 -8 -6 -19 -6 -24 0 -16 -73 -10 -92 8 -14
13 -18 31 -18 90 0 66 -2 75 -20 80 -13 3 -20 14 -20 29 0 17 6 24 20 24 17 0
20 7 20 40 0 38 2 40 30 40 28 0 30 -2 30 -40z m-2096 -61 c24 -23 34 -121 17
-172 -15 -44 -59 -66 -97 -48 -14 6 -27 11 -29 11 -3 0 -5 -30 -5 -66 l0 -65
-27 3 -28 3 -3 179 -2 179 37 -5 c21 -3 47 -2 58 3 26 10 55 2 79 -22z m405
20 c17 -6 36 -19 41 -29 6 -10 10 -62 10 -115 l0 -97 -32 3 c-18 1 -48 -1 -66
-5 -50 -12 -82 13 -82 64 0 44 20 64 83 81 28 7 37 15 35 27 -5 26 -48 28 -55
3 -4 -14 -13 -21 -29 -21 -65 0 -15 96 52 99 6 1 25 -4 43 -10z m290 0 c38
-14 51 -35 51 -88 l0 -41 -61 0 c-60 0 -60 0 -57 -27 3 -32 44 -46 54 -19 4
10 18 16 35 16 35 0 39 -25 10 -61 -27 -34 -99 -34 -135 0 -23 22 -26 32 -26
96 0 79 20 120 63 128 12 2 25 5 28 6 3 0 20 -4 38 -10z m198 0 c32 -12 43
-26 43 -56 0 -31 -45 -33 -53 -2 -7 24 -40 23 -45 -2 -2 -10 9 -21 30 -29 75
-30 98 -83 59 -131 -40 -50 -151 -22 -151 38 0 18 5 23 26 23 18 0 28 -6 31
-21 7 -26 48 -23 48 4 0 12 -16 26 -45 40 -89 43 -75 132 22 146 4 1 19 -4 35
-10z m197 -3 c31 -13 53 -55 38 -71 -14 -14 -50 -3 -55 16 -4 13 -12 20 -24
17 -29 -5 -21 -32 15 -50 73 -36 92 -81 53 -129 -15 -19 -29 -24 -66 -24 -37
0 -51 5 -66 24 -29 36 -25 61 10 61 21 0 30 -6 34 -21 7 -25 40 -22 45 3 2 12
-11 24 -43 39 -74 35 -85 107 -21 135 39 17 40 17 80 0z m205 3 c17 -6 36 -19
41 -29 6 -10 10 -62 10 -115 l0 -97 -32 3 c-18 1 -48 -1 -66 -5 -50 -12 -82
13 -82 64 0 44 20 64 83 81 28 7 37 15 35 27 -5 25 -45 27 -58 3 -14 -27 -60
-29 -60 -3 0 36 46 79 86 81 6 1 25 -4 43 -10z m318 -21 c17 -16 23 -33 23
-65 l0 -43 -61 0 c-60 0 -60 0 -57 -27 3 -32 44 -46 54 -19 8 20 64 22 64 2 0
-69 -102 -98 -158 -45 -19 17 -22 31 -22 98 0 68 3 80 23 98 12 11 29 23 37
26 25 10 73 -2 97 -25z m1001 -4 c18 -21 22 -36 22 -98 0 -65 -3 -75 -26 -97
-35 -33 -104 -34 -136 -2 -27 28 -37 127 -17 174 24 60 111 73 157 23z m240 8
c8 -10 12 -52 12 -119 l0 -103 -30 0 -30 0 0 90 c0 75 -3 92 -17 97 -32 12
-53 -32 -53 -113 l0 -74 -30 0 -30 0 0 120 0 120 29 0 c16 0 31 -5 33 -11 2
-6 14 -5 33 5 33 17 63 13 83 -12z m529 -4 c17 -16 23 -33 23 -65 l0 -43 -61
0 c-60 0 -60 0 -57 -27 3 -32 44 -46 54 -19 4 10 18 16 35 16 22 0 29 -5 29
-20 0 -42 -64 -79 -115 -66 -52 13 -65 39 -65 124 0 69 3 81 23 99 12 11 29
23 37 26 25 10 73 -2 97 -25z m540 8 c7 -6 14 -56 17 -118 l6 -108 -35 0 -35
0 0 90 c0 72 -3 92 -15 96 -33 13 -45 -15 -45 -102 l0 -84 -35 0 -35 0 0 120
0 120 35 0 c19 0 35 -4 35 -9 0 -6 12 -3 28 4 28 15 58 12 79 -9z m218 -7 c17
-16 21 -36 23 -120 l4 -100 -44 1 c-23 1 -54 -1 -68 -5 -35 -9 -80 27 -80 64
0 39 19 60 70 75 33 10 46 19 48 35 4 28 -33 29 -50 1 -12 -19 -48 -27 -60
-14 -15 14 11 60 43 77 40 21 85 16 114 -14z m394 20 c36 -13 61 -53 61 -99
l0 -30 -59 0 c-65 0 -73 -5 -64 -38 6 -26 53 -32 53 -7 0 11 11 15 36 15 32 0
35 -2 29 -22 -4 -13 -18 -34 -33 -47 -21 -19 -33 -22 -65 -18 -59 8 -80 35
-85 107 -5 75 11 118 52 136 38 16 36 16 75 3z m204 -3 c15 -8 27 -11 27 -5 0
5 14 9 31 9 l30 0 -3 -155 c-3 -145 -4 -156 -26 -177 -17 -18 -34 -23 -73 -23
-43 0 -54 4 -75 29 -14 15 -24 36 -22 45 5 25 45 26 60 2 27 -43 78 -16 78 40
0 18 -3 20 -12 11 -7 -7 -29 -12 -49 -12 -55 0 -79 34 -79 114 0 85 8 106 44
122 39 17 36 17 69 0z m285 -22 c19 -22 22 -36 22 -120 l0 -95 -42 1 c-24 1
-55 -1 -70 -5 -21 -6 -32 -2 -52 18 -48 48 -29 99 44 121 33 10 46 19 48 35 4
28 -33 29 -50 1 -7 -11 -23 -20 -36 -20 -20 0 -23 4 -20 33 6 65 108 86 156
31z m-3048 -94 l0 -120 -35 0 -35 0 0 113 c0 63 3 117 7 120 3 4 19 7 35 7
l28 0 0 -120z m2280 63 c19 -90 25 -92 45 -14 18 69 20 71 51 71 l32 0 -24
-82 c-79 -281 -76 -273 -113 -276 -28 -3 -33 -1 -27 14 28 74 28 99 -3 207
-18 59 -34 113 -37 122 -5 12 2 15 28 15 34 0 35 -1 48 -57z m-188 -2203 l3
-964 -25 -1 c-14 -1 -91 -2 -172 -3 l-148 -2 0 -30 0 -30 135 0 c145 0 186
-16 57 -21 -67 -3 -84 -8 -115 -32 -79 -60 -129 -172 -131 -287 0 -89 37 -169
97 -207 53 -34 136 -42 190 -20 l37 16 0 -540 0 -539 48 0 48 0 -4 39 c-4 42
13 64 23 30 5 -16 12 -19 32 -14 31 7 75 -19 71 -43 -2 -9 3 -16 10 -15 6 2
12 -2 12 -9 0 -6 8 -20 18 -31 17 -19 16 -20 -20 -13 -30 5 -38 4 -38 -8 0 -8
9 -23 19 -33 11 -10 22 -30 26 -45 4 -17 17 -30 35 -37 16 -5 33 -19 40 -30 6
-12 20 -21 30 -21 11 0 20 -7 20 -15 0 -8 -5 -15 -11 -15 -6 0 -9 -6 -6 -13 4
-11 -7 -12 -51 -9 -32 3 -60 10 -64 16 -4 7 -9 4 -14 -7 -5 -14 -19 -17 -70
-17 l-64 0 0 134 0 135 -51 3 -52 3 -51 143 -51 144 -100 -4 c-118 -5 -100 16
-181 -208 -30 -85 -72 -199 -91 -252 l-36 -98 -65 0 -66 0 32 33 c18 18 37 48
42 67 13 44 15 439 2 452 -5 5 -42 8 -83 6 l-74 -3 -5 -197 c-3 -129 -9 -201
-16 -209 -18 -17 -53 -1 -60 27 -6 23 -10 24 -90 24 l-84 0 0 -36 c0 -49 25
-99 69 -134 l36 -30 -144 0 -144 0 46 40 c72 64 81 99 82 324 l0 191 -85 0
-85 0 -5 -183 c-5 -178 -6 -184 -29 -203 -34 -27 -75 -24 -100 7 -19 25 -21
40 -21 206 l0 179 -87 -3 -88 -3 0 -200 c0 -189 1 -203 23 -247 13 -27 41 -60
65 -78 l41 -30 -107 0 -107 0 0 -26 c0 -15 -4 -23 -10 -19 -6 4 -9 14 -8 23 3
15 -11 17 -120 20 l-123 3 3 82 3 82 82 6 c66 5 91 12 122 32 94 62 109 212
29 294 -40 41 -109 63 -200 63 l-68 0 0 380 0 380 35 0 35 0 0 -111 0 -110 38
3 37 3 1 105 2 105 46 3 c44 3 46 5 46 33 l0 29 -120 0 -120 0 0 129 0 130
-34 -6 c-19 -3 -42 0 -52 6 -15 8 -9 10 34 11 l52 0 0 135 0 135 135 0 135 0
0 30 0 29 -102 3 -103 3 4 335 c1 184 0 413 -4 508 l-7 173 -42 -3 -41 -3 -3
-103 -3 -103 -29 6 c-15 3 -48 1 -72 -5 -36 -10 -66 -35 -189 -158 -80 -81
-154 -162 -164 -181 -13 -26 -16 -48 -12 -90 5 -47 12 -60 46 -95 36 -36 46
-40 99 -44 77 -6 95 5 217 123 l100 97 3 -222 c1 -123 1 -225 -1 -227 -5 -4
-1909 -4 -1913 0 -4 3 -5 382 -4 1400 l0 517 960 0 960 0 0 -266 0 -265 -32
22 c-18 13 -38 30 -44 39 -23 30 -89 94 -132 127 -36 27 -52 33 -93 33 -28 0
-63 -7 -79 -15 -61 -32 -96 -107 -85 -182 6 -43 18 -57 162 -204 100 -102 167
-162 187 -168 17 -5 70 -12 117 -16 l86 -7 6 54 c2 29 2 227 -1 439 -3 213 -2
394 1 403 6 15 88 16 967 14 l960 -3 2 -965z m303 952 c13 -9 12 -42 -2 -68
-12 -21 -12 -41 -1 -59 18 -29 19 -87 3 -122 -16 -32 -16 -43 -5 -78 17 -54
14 -150 -7 -204 -21 -53 -27 11 -30 272 -2 247 -1 267 15 267 9 0 22 -4 27 -8z
m308 2 c3 -4 2 -15 -3 -25 -12 -22 -2 -58 11 -37 5 7 9 23 9 34 0 13 8 24 20
27 17 4 19 2 13 -21 -3 -15 -15 -47 -25 -72 -11 -25 -23 -65 -28 -90 -5 -25
-12 -55 -15 -68 -6 -19 -5 -21 11 -15 11 3 33 17 49 29 17 12 43 26 58 30 16
3 33 17 39 29 14 32 78 49 78 22 0 -8 -30 -30 -67 -49 -67 -35 -90 -58 -58
-58 9 0 25 5 36 10 23 13 24 3 4 -24 -8 -11 -15 -27 -15 -36 0 -9 -15 -33 -34
-52 l-35 -36 25 -23 c29 -27 23 -37 -10 -19 -15 8 -32 9 -43 4 -15 -7 -14 -8
10 -12 15 -2 27 -9 27 -15 0 -6 -33 -44 -72 -84 -40 -40 -67 -73 -61 -73 7 0
-1 -14 -17 -32 -16 -17 -27 -35 -24 -40 3 -4 -7 -24 -22 -43 -71 -93 -43 -238
72 -379 53 -66 31 -61 -38 8 -55 55 -88 136 -88 216 0 72 -14 84 -37 33 -22
-48 -22 -48 -29 -40 -16 16 69 185 122 242 25 28 41 73 18 54 -22 -18 -18 8 6
38 11 14 20 34 20 43 0 10 6 23 14 29 8 6 17 27 20 46 3 19 9 51 12 70 3 19 4
35 2 35 -11 0 -79 -39 -93 -54 -9 -9 -21 -16 -26 -16 -18 0 19 55 65 97 25 23
46 49 46 58 0 8 -9 56 -20 107 -17 73 -21 129 -11 156 2 5 78 2 84 -4z m1399
-69 c1 -93 -2 -133 -9 -117 -2 6 -13 12 -24 12 -10 0 -19 4 -19 9 0 5 -8 12
-17 16 -17 5 -83 86 -83 100 0 4 -7 13 -15 21 -29 29 -16 35 76 32 l91 -3 0
-70z m-492 -51 c0 -14 11 -35 24 -47 22 -21 30 -43 27 -74 0 -6 -11 -15 -23
-19 -32 -10 -88 -54 -88 -69 0 -7 -11 -24 -25 -39 -25 -28 -35 -91 -16 -111 4
-6 16 -44 26 -85 10 -41 24 -84 31 -95 8 -11 14 -27 14 -37 0 -18 -47 -48 -74
-48 -8 0 -30 -13 -48 -30 -29 -27 -61 -36 -105 -31 -6 1 -14 -3 -18 -9 -13
-21 -145 -2 -145 22 0 4 -12 8 -28 8 -22 0 -31 8 -49 43 -29 54 -53 126 -53
156 0 25 36 91 50 91 4 0 6 9 3 20 -5 18 0 20 37 20 l42 0 -23 20 c-21 17 -22
21 -9 30 22 15 25 13 40 -26 10 -24 25 -40 47 -49 30 -13 38 -24 34 -47 -2
-15 32 -8 65 13 30 18 34 25 34 65 0 50 -21 98 -45 108 -33 12 -102 5 -140
-14 -23 -12 -43 -16 -48 -11 -13 13 -2 27 45 61 30 22 45 27 61 21 23 -9 101
-6 118 4 17 11 9 24 -21 32 -34 9 -42 22 -20 33 8 4 24 11 35 16 11 6 39 9 62
8 29 -2 43 2 47 13 4 8 12 13 19 10 7 -3 20 12 32 35 10 21 24 37 30 34 7 -2
18 0 25 4 20 12 30 3 30 -26z m-1205 -756 c4 -23 6 -63 5 -90 -1 -26 -1 -58 0
-70 7 -178 6 -248 -3 -245 -6 2 -15 17 -20 33 -9 30 -20 379 -12 402 9 25 23
11 30 -30z m900 1 c4 -6 22 -8 46 -4 34 6 42 3 70 -25 17 -17 44 -34 60 -37
30 -6 39 -30 15 -39 -18 -7 -10 -37 15 -60 51 -46 -5 -89 -108 -82 -58 4 -67
7 -103 43 -22 22 -39 45 -40 51 0 6 -11 23 -25 38 -14 15 -25 33 -25 40 0 18
27 39 40 31 6 -4 13 6 16 24 6 31 27 41 39 20z m-986 -672 c39 1 71 0 72 0 0
-1 3 -23 6 -49 4 -38 1 -53 -16 -77 -26 -36 -26 -44 -2 -36 11 3 22 1 26 -5 3
-5 1 -10 -4 -10 -6 0 -11 -7 -11 -16 0 -14 7 -16 40 -11 35 4 40 3 40 -14 0
-17 3 -18 20 -7 41 26 70 -19 62 -98 l-4 -41 -159 -5 c-87 -3 -170 -3 -185 0
l-26 5 7 166 c4 91 9 168 11 170 2 2 4 -12 4 -32 0 -44 16 -49 22 -7 3 16 2
28 0 25 -8 -8 -42 43 -42 63 0 31 23 33 47 4 20 -24 28 -26 92 -25z m1331 -59
c26 16 27 16 34 -13 4 -14 11 -23 16 -20 6 3 10 -1 10 -9 0 -13 12 -16 59 -16
33 0 63 -4 66 -10 3 -5 19 -10 36 -10 16 0 29 -3 30 -7 0 -5 2 -19 3 -33 7
-59 -31 -130 -70 -130 -20 0 -78 45 -157 122 -53 52 -57 58 -45 78 11 18 11
23 -4 31 -10 6 -18 15 -18 22 0 7 4 6 10 -3 8 -12 13 -13 30 -2z m-813 -148
c2 0 3 -6 3 -14 0 -7 15 -25 33 -39 56 -43 87 -76 87 -92 0 -13 -19 -15 -127
-14 -71 0 -122 3 -115 6 6 2 12 17 12 33 0 25 4 28 45 34 49 8 65 3 65 -20 0
-24 17 -16 22 11 6 29 -4 39 -30 31 -11 -4 -31 5 -52 23 -29 24 -33 31 -22 44
10 12 20 13 45 6 18 -5 33 -9 34 -9z m204 -290 c43 -12 74 -35 74 -54 0 -6 10
-12 22 -14 12 -2 27 -9 33 -17 6 -8 17 -12 24 -9 20 8 42 -54 28 -77 -17 -27
-15 -69 3 -69 15 0 20 -12 9 -23 -4 -3 -7 -25 -8 -47 -2 -30 2 -44 14 -50 16
-8 28 -68 34 -158 0 -12 8 -27 16 -32 13 -8 13 -10 -1 -10 -10 0 -19 -12 -23
-31 -11 -56 -8 -68 22 -75 15 -4 30 -12 34 -18 5 -8 13 -8 26 1 23 14 111 5
90 -9 -10 -7 -10 -11 0 -15 27 -11 10 -29 -30 -32 -23 -1 -48 -6 -54 -12 -7
-5 -35 -12 -63 -16 -32 -4 -51 -11 -51 -19 0 -7 -7 -17 -16 -22 -8 -5 -17 -26
-19 -48 -2 -21 -6 -51 -9 -66 -5 -23 -3 -28 14 -28 12 0 22 -9 25 -22 5 -20
13 -23 57 -25 59 -3 82 -17 47 -29 l-24 -8 25 -6 c16 -4 29 -1 35 7 11 15 45
8 45 -8 0 -5 -10 -14 -22 -19 -23 -9 -10 -15 21 -10 8 1 21 -6 28 -16 7 -10
13 -12 13 -6 0 7 5 12 11 12 11 0 39 24 39 34 0 3 -9 6 -21 6 -12 0 -17 4 -14
11 4 6 13 8 20 5 8 -3 19 2 27 11 10 13 10 17 1 20 -15 5 -17 33 -3 33 6 0 10
-7 10 -15 0 -17 16 -20 25 -5 10 17 21 11 33 -16 7 -15 19 -24 30 -23 9 1 24
-1 32 -4 41 -16 89 -24 97 -16 6 6 19 -1 32 -15 l24 -25 -27 -7 c-14 -3 -26
-12 -26 -19 0 -8 -5 -17 -11 -21 -8 -4 -9 0 -4 15 7 24 -8 60 -19 43 -4 -6
-13 -9 -21 -5 -9 3 -22 0 -30 -7 -12 -10 -15 -9 -16 6 0 11 -3 14 -6 7 -2 -7
-13 -13 -24 -13 -23 0 -24 -13 -3 -35 20 -19 10 -34 -13 -19 -18 11 -25 51
-11 60 4 3 8 11 8 19 0 11 -8 10 -41 -3 -39 -15 -40 -17 -34 -49 7 -39 -11
-52 -47 -32 -13 7 -30 13 -38 14 -9 0 -14 7 -12 18 2 9 -3 17 -10 17 -17 0
-28 -64 -17 -99 2 -7 -2 -16 -10 -19 -8 -2 -11 -1 -8 4 7 11 -93 11 -111 0 -8
-5 -9 -13 -2 -26 7 -14 5 -19 -10 -23 -23 -6 -26 3 -8 21 9 9 8 12 -5 12 -27
0 -20 17 12 31 23 10 27 17 19 26 -11 14 -32 7 -23 -8 4 -5 -3 -9 -14 -9 -12
0 -18 5 -16 13 8 20 -43 38 -68 25 -12 -6 -28 -14 -36 -18 -8 -3 -16 -11 -18
-17 -5 -14 39 -4 50 11 5 6 6 -1 3 -16 -4 -16 -2 -28 3 -28 14 0 32 26 23 35
-4 5 -1 5 6 1 6 -4 12 -16 12 -27 0 -10 5 -19 10 -19 6 0 10 -7 10 -16 0 -10
-6 -14 -15 -10 -10 4 -15 -1 -15 -14 0 -16 6 -20 31 -18 39 4 60 -22 40 -46
-13 -15 -15 -14 -29 5 -13 18 -22 21 -64 17 -43 -5 -51 -3 -57 15 -7 18 -8 18
-14 4 -4 -10 -3 -17 2 -17 10 0 25 -56 22 -82 -2 -12 5 -18 18 -18 12 0 21 5
21 10 0 14 26 12 38 -2 5 -7 13 -24 17 -38 7 -22 6 -23 -9 -11 -9 8 -19 11
-23 7 -3 -3 -1 -6 5 -6 7 0 12 -3 12 -8 0 -4 25 -34 55 -66 30 -32 55 -64 55
-72 0 -8 7 -17 16 -21 8 -3 14 -15 12 -27 -1 -11 1 -27 6 -34 7 -11 4 -12 -10
-4 -21 10 -44 6 -44 -9 0 -4 7 -6 16 -2 12 4 15 2 12 -8 -2 -8 -14 -15 -26
-17 -12 -2 -22 -7 -22 -12 0 -10 -79 -23 -145 -24 l-50 -1 0 56 c0 39 6 61 18
73 9 10 17 18 17 19 0 1 -4 17 -9 35 -11 35 -17 34 64 17 14 -3 25 -3 25 -1 0
15 -14 36 -24 36 -7 0 -31 19 -53 43 l-42 42 10 182 10 182 -26 46 c-15 25
-36 50 -46 56 -10 5 -19 15 -19 22 0 7 4 6 10 -3 8 -12 10 -9 10 11 0 15 -9
38 -20 52 -11 14 -20 27 -20 30 0 13 35 15 75 5 41 -11 46 -10 69 11 13 12 27
39 31 59 14 83 28 95 40 36 10 -54 19 -32 20 49 2 96 16 198 26 191 14 -8 10
9 -10 49 -10 20 -26 67 -35 104 -44 176 -46 181 -117 230 -65 45 -159 68 -218
53 -61 -16 -91 -31 -91 -46 0 -7 -4 -14 -8 -16 -16 -6 -50 -64 -57 -96 -4 -18
-13 -36 -21 -39 -27 -10 -35 -43 -40 -161 -5 -133 -15 -174 -50 -201 -13 -10
-24 -23 -24 -28 0 -5 -11 -20 -25 -33 -18 -17 -25 -34 -25 -60 0 -28 6 -42 25
-56 30 -22 32 -40 6 -54 -36 -19 -49 -39 -49 -76 0 -26 3 -33 11 -25 6 6 15
11 20 11 13 0 -1 -49 -18 -67 -18 -17 -19 -10 -4 19 9 17 8 19 -8 16 -13 -3
-18 -12 -17 -33 6 -123 9 -152 22 -167 22 -27 23 -84 1 -104 -31 -28 -44 -6
-30 50 14 56 14 59 -1 50 -24 -15 -66 -14 -72 2 -9 23 -26 6 -26 -26 0 -22 -4
-28 -15 -24 -8 3 -13 11 -12 17 1 6 -8 13 -20 15 -13 2 -29 12 -37 23 -12 18
-9 24 32 65 40 39 45 47 34 64 -10 16 -8 26 9 54 15 26 17 36 8 42 -9 5 -6 10
9 15 13 5 22 17 22 28 0 17 -6 20 -35 19 -21 -1 -35 -6 -35 -14 0 -7 -4 -15
-8 -18 -13 -8 -9 38 5 52 10 11 17 11 27 3 11 -9 17 -7 29 9 11 16 21 20 36
15 14 -4 21 -2 21 7 1 9 5 7 14 -4 14 -19 32 -25 21 -8 -3 6 4 10 16 10 12 0
19 3 15 7 -8 9 -30 13 -78 16 -21 1 -38 5 -38 10 0 9 -42 9 -55 -1 -5 -4 -15
-16 -21 -27 -7 -12 -24 -21 -44 -23 -29 -3 -32 -2 -21 12 7 8 16 15 19 14 20
-6 52 29 52 57 0 43 9 52 63 60 41 6 46 5 41 -9 -3 -9 -1 -16 6 -16 7 0 9 -8
5 -20 -5 -16 -2 -20 15 -20 20 0 20 4 16 90 -2 49 -2 98 0 108 3 9 26 27 52
39 38 18 43 23 28 29 -10 4 -27 2 -37 -4 -10 -7 -23 -12 -29 -12 -15 0 -12 30
3 31 6 1 19 3 27 4 8 1 21 3 28 4 8 1 6 9 -8 24 l-21 22 23 3 c30 4 58 43 64
87 2 19 13 51 24 70 11 20 20 44 20 53 0 18 12 37 63 98 16 18 26 38 22 44 -3
5 1 10 9 10 8 0 21 8 28 18 12 15 67 44 108 55 34 9 122 7 161 -3z m-1052
-116 c24 -19 31 -34 31 -60 0 -34 0 -34 48 -35 26 -1 36 -3 22 -6 -72 -11 -70
-9 -70 -74 0 -52 -3 -63 -26 -84 -29 -27 -80 -33 -114 -15 -10 5 -28 26 -41
46 -27 44 -32 140 -10 192 27 63 106 81 160 36z m1051 -19 c0 -8 9 -24 21 -36
11 -11 27 -39 35 -61 14 -40 13 -42 -11 -68 -33 -34 -32 -43 11 -78 26 -22 35
-36 32 -53 -2 -15 -9 -23 -18 -20 -8 2 -31 6 -50 9 -34 4 -35 4 -17 -16 18
-19 17 -20 -20 -30 l-38 -10 32 -1 c31 -1 59 -21 29 -21 -9 0 -16 -4 -16 -10
0 -10 13 -14 43 -11 23 3 22 -14 -2 -38 -31 -31 -87 -20 -201 39 -19 10 -44
34 -55 54 -22 39 -35 46 -36 19 0 -14 -2 -15 -6 -3 -3 8 -14 26 -24 40 -17 26
-17 26 11 38 18 8 34 27 45 54 24 61 50 93 90 113 20 9 57 36 82 61 50 47 63
53 63 29z m-3402 -254 l32 -1 0 -513 c0 -283 -2 -516 -4 -518 -2 -2 -71 -3
-153 -1 l-148 3 1 487 c1 268 2 501 3 518 l1 31 118 -3 c64 -2 132 -3 150 -3z
m-1157 -168 c31 -32 32 -94 2 -124 -22 -22 -65 -32 -96 -23 -23 7 -47 55 -47
94 0 70 93 105 141 53z m398 1 c28 -36 28 -72 -1 -79 -40 -9 -83 -1 -86 17 -2
13 6 17 34 20 36 3 37 4 20 21 -22 22 -37 18 -56 -15 -11 -21 -12 -31 -2 -53
12 -25 16 -27 52 -21 32 5 40 3 40 -9 0 -8 -9 -19 -19 -25 -56 -30 -121 12
-121 78 0 57 31 92 80 92 30 0 43 -6 59 -26z m-483 -299 c7 -17 -62 -201 -84
-227 -16 -19 -57 -24 -66 -9 -7 11 18 33 27 25 4 -4 11 6 17 22 9 23 7 37 -14
83 -13 31 -28 69 -32 84 -6 26 -4 28 16 25 18 -2 27 -15 39 -50 20 -59 27 -65
35 -32 20 78 49 115 62 79z m182 -20 c20 -24 23 -36 19 -69 -16 -117 -162
-107 -162 10 0 37 5 50 26 68 37 32 85 28 117 -9z m196 29 c23 -9 23 -172 1
-180 -8 -4 -22 -1 -29 5 -10 8 -16 9 -21 1 -10 -15 -46 -12 -67 7 -14 13 -18
31 -18 90 0 66 2 73 20 73 18 0 20 -7 20 -54 0 -70 7 -86 36 -86 23 0 24 3 24
68 0 79 4 88 34 76z m-196 -349 c19 -23 23 -36 19 -68 -8 -55 -30 -75 -82 -75
-57 0 -80 24 -80 85 0 36 5 49 26 67 37 32 85 28 117 -9z m191 13 c27 -29 34
-53 27 -92 -11 -56 -51 -76 -119 -59 -27 7 -47 55 -40 96 8 51 30 68 100 76 7
0 21 -9 32 -21z m159 -270 c-3 -32 -2 -33 33 -30 52 5 69 -23 69 -110 0 -61
-2 -68 -20 -68 -17 0 -20 7 -20 48 0 68 -8 89 -35 95 -23 4 -24 2 -27 -67 -3
-65 -5 -71 -25 -74 -23 -3 -23 -2 -23 117 l0 121 26 0 c23 0 25 -3 22 -32z
m4812 -3 c0 -8 -7 -15 -16 -15 -11 0 -14 -6 -9 -20 5 -14 2 -20 -9 -20 -18 0
-20 -8 -6 -30 8 -12 10 -12 16 3 5 13 10 15 20 6 7 -6 17 -8 23 -5 15 10 39
-4 44 -25 4 -13 0 -19 -11 -19 -10 0 -23 -13 -30 -30 -8 -16 -20 -30 -28 -30
-8 0 -14 -7 -14 -16 0 -14 -2 -14 -16 -3 -9 7 -24 14 -33 14 -9 1 -29 2 -46 4
-25 1 -27 3 -13 12 17 9 58 6 78 -6 11 -7 60 23 60 36 0 5 -13 9 -29 9 -16 0
-34 7 -42 16 -7 8 -21 13 -31 11 -10 -3 -20 -1 -23 4 -10 15 -55 5 -61 -13 -3
-10 -9 -16 -14 -13 -5 3 -7 12 -3 20 3 8 0 15 -7 15 -10 0 -10 4 0 15 7 9 19
14 26 11 7 -3 16 0 20 5 3 6 21 9 38 6 17 -3 25 -3 19 0 -18 7 -16 23 2 23 8
0 15 7 15 15 0 11 7 14 24 9 16 -4 25 -1 29 10 8 20 27 21 27 1z m-5384 -40
c12 -8 18 -32 22 -88 l5 -77 -26 0 c-25 0 -26 2 -29 66 -3 59 -6 68 -25 75
-23 8 -23 7 -23 -66 0 -66 -2 -75 -19 -75 -16 0 -19 11 -24 76 -3 42 -3 82 -1
89 7 17 97 17 120 0z m200 -30 c2 -89 3 -92 29 -97 24 -5 25 -4 25 53 0 70 7
89 31 89 17 0 19 -8 19 -89 l0 -88 -60 -1 c-77 -1 -90 15 -90 111 0 65 1 68
23 65 18 -2 22 -9 23 -43z m3353 -296 c6 -18 11 -34 11 -35 0 -2 -38 -4 -84
-4 l-84 0 -4 -39 c-3 -30 0 -37 11 -33 9 3 12 1 7 -6 -4 -7 -2 -12 3 -12 6 0
11 -9 11 -20 0 -11 -7 -20 -15 -20 -13 0 -20 -29 -16 -66 1 -6 -6 -17 -14 -24
-20 -17 -20 -112 1 -151 8 -17 13 -33 10 -37 -3 -3 -1 -11 5 -19 9 -9 8 -17 0
-27 -6 -7 -13 -31 -15 -52 -2 -22 -7 -59 -10 -84 -4 -25 -3 -57 3 -71 7 -19 6
-34 -5 -54 -8 -15 -14 -33 -14 -40 0 -8 -6 -26 -14 -42 -30 -60 -35 -80 -33
-148 2 -42 -2 -75 -9 -82 -7 -8 -9 -26 -4 -51 3 -21 5 -47 3 -58 -2 -10 -4
-50 -3 -89 0 -71 -25 -175 -42 -175 -17 0 -5 -136 13 -157 22 -24 30 -85 17
-125 -6 -18 -23 -67 -38 -108 -35 -92 -39 -170 -10 -177 48 -13 0 -23 -104
-23 -111 0 -131 4 -120 22 6 9 13 222 18 543 1 77 6 147 10 156 4 8 4 44 0 80
-12 122 -5 343 15 504 11 88 25 220 31 292 11 149 17 183 34 183 8 0 11 24 11
73 l0 72 125 2 125 1 0 29 c0 21 -5 29 -22 31 -26 4 -27 9 -13 46 9 25 12 26
104 26 l94 0 11 -31z m-3235 -106 c126 -3 221 -10 214 -14 -7 -5 -24 -9 -39
-9 -14 0 -37 -6 -51 -12 -30 -14 -45 -48 -22 -48 19 0 18 -34 -1 -50 -10 -9
-15 -9 -15 -1 0 13 -38 -6 -57 -29 -9 -11 -12 -12 -13 -2 0 7 -4 11 -9 8 -4
-3 -6 -16 -4 -29 3 -13 -2 -29 -11 -36 -8 -7 -12 -19 -9 -27 3 -8 0 -14 -6
-14 -7 0 -18 -15 -26 -33 -14 -34 -58 -87 -72 -87 -5 0 -16 -9 -25 -19 -12
-14 -13 -21 -5 -25 9 -3 8 -7 -3 -15 -21 -15 -2 -27 20 -13 11 7 20 9 20 4 0
-11 -60 -45 -67 -38 -4 3 -1 6 5 6 7 0 12 5 12 10 0 6 -6 10 -14 10 -16 0 -29
-37 -14 -42 5 -2 -3 -10 -19 -18 -15 -8 -41 -27 -56 -42 -16 -16 -33 -28 -38
-28 -6 0 -25 -11 -43 -25 -18 -14 -41 -25 -52 -26 -16 0 -16 -1 4 -9 12 -5 22
-17 22 -27 0 -10 3 -28 6 -40 5 -17 -2 -30 -27 -54 l-34 -31 27 6 c27 6 27 5
16 -21 -22 -55 -37 -89 -66 -153 -38 -84 -43 -100 -32 -100 5 0 8 -23 6 -51
l-4 -51 22 19 c28 24 84 63 91 63 3 0 5 -7 5 -16 0 -13 6 -15 27 -9 15 3 30
11 33 15 3 5 20 -4 37 -20 l31 -29 -15 -43 c-9 -24 -16 -64 -16 -90 -1 -28 -4
-43 -9 -35 -4 6 -8 29 -8 49 0 47 -13 55 -46 29 -15 -12 -33 -21 -40 -21 -7 0
-28 -13 -46 -29 -39 -34 -88 -60 -143 -76 -21 -7 -44 -20 -50 -31 -13 -25 -27
-35 -42 -30 -13 6 -23 -25 -23 -78 0 -22 -2 -37 -5 -34 -7 7 -16 1529 -9 1540
6 10 372 11 688 1z m1244 -108 c2 -60 0 -210 -3 -332 -6 -195 -9 -220 -22
-208 -20 21 -33 19 -62 -9 -15 -13 -45 -27 -68 -31 l-42 -7 -7 37 c-3 20 -4
114 0 208 7 197 -7 322 -41 360 -11 12 -25 36 -31 52 -8 22 -11 25 -11 10 -1
-16 -3 -17 -11 -5 -6 10 -34 16 -87 20 l-78 5 95 6 c52 3 156 5 230 5 l135 -1
3 -110z m245 95 c3 -11 10 -20 17 -20 7 0 9 8 5 20 -6 19 -2 20 147 20 150 0
153 -1 177 -25 31 -33 79 -33 115 0 15 14 32 23 37 20 15 -10 10 -71 -6 -85
-13 -11 -21 -9 -46 9 -34 25 -74 22 -95 -7 -10 -14 -9 -21 8 -39 12 -13 31
-23 42 -24 21 0 20 -1 -1 -11 -19 -9 -26 -6 -49 21 -30 36 -44 35 -20 -2 9
-13 14 -32 10 -41 -10 -26 -21 -19 -28 19 -4 19 -12 35 -18 35 -6 0 -8 -9 -4
-22 3 -13 6 -33 6 -45 0 -17 6 -23 24 -23 13 0 29 7 36 15 7 8 18 15 24 15 6
0 28 9 49 20 20 11 40 20 43 20 3 0 2 -25 -1 -55 -8 -57 5 -92 29 -78 6 4 5
-1 -3 -10 -23 -28 -60 -21 -97 20 -28 30 -36 34 -49 23 -10 -8 -15 -9 -15 -1
0 6 -3 11 -7 11 -5 0 -9 -38 -11 -85 -2 -70 0 -85 13 -85 19 0 19 -10 -1 -39
-13 -18 -15 -38 -11 -87 5 -70 25 -109 63 -126 35 -16 43 -1 12 25 -37 31 -48
58 -48 116 0 42 4 53 23 66 13 8 33 14 43 13 28 -2 84 13 84 23 0 5 -10 9 -22
10 -13 0 -18 3 -11 5 7 3 9 12 6 20 -7 20 14 17 26 -3 9 -16 10 -16 11 -2 0
21 -20 29 -75 29 -27 0 -50 -6 -60 -16 -19 -20 -25 -15 -28 22 -2 32 -1 32 79
19 30 -5 48 -3 66 9 14 9 32 14 40 11 11 -5 15 3 16 30 1 19 -3 35 -8 35 -6 0
-10 -4 -10 -10 0 -5 -5 -10 -11 -10 -7 0 -5 10 5 25 19 29 20 64 4 100 -9 21
-9 31 0 46 7 10 12 37 12 59 l0 40 98 0 c103 0 119 -4 101 -26 -6 -7 -9 -21
-7 -31 4 -15 10 -12 40 20 44 44 58 47 58 9 0 -20 -12 -40 -44 -70 -47 -45
-62 -52 -52 -25 4 9 1 20 -6 25 -19 11 -28 10 -28 -4 0 -7 -16 -38 -35 -70
-20 -31 -36 -70 -36 -85 1 -54 18 -220 24 -230 3 -5 -1 -19 -9 -31 -12 -17
-25 -22 -59 -22 -34 0 -48 -5 -57 -20 -7 -11 -17 -20 -21 -20 -5 0 -5 9 -2 20
7 22 -20 30 -28 8 -3 -8 -7 -6 -12 7 -23 66 -29 75 -46 75 -14 0 -19 -7 -19
-26 0 -52 48 -121 65 -94 13 21 25 9 19 -17 -6 -22 -4 -25 10 -20 19 8 21 -24
6 -88 -17 -68 -21 -113 -10 -120 10 -6 -24 -45 -40 -45 -5 0 -9 -6 -7 -12 1
-9 -9 -12 -33 -9 -25 2 -55 -7 -105 -32 -38 -20 -89 -43 -112 -53 -24 -9 -43
-20 -43 -24 0 -4 -23 -12 -51 -18 -28 -7 -65 -22 -83 -35 -31 -22 -56 -24 -67
-5 -4 6 -23 11 -43 12 -21 0 -36 6 -36 14 0 6 -8 12 -17 12 -15 0 -16 2 -3 10
8 5 15 15 15 22 2 35 18 87 26 82 5 -3 9 4 9 15 0 12 -4 21 -10 21 -5 0 -10
10 -10 23 0 13 -5 28 -11 34 -7 7 -9 22 -4 40 13 46 14 53 4 47 -5 -3 -9 19
-9 50 0 50 2 56 21 56 12 0 36 -15 55 -34 19 -19 35 -28 37 -22 10 27 -42 66
-87 66 -21 0 -26 5 -26 25 0 14 5 25 10 25 6 0 10 -4 10 -10 0 -12 54 -40 77
-40 11 1 7 6 -13 14 -58 25 -71 58 -75 180 l-4 109 35 13 35 13 -40 -6 c-35
-5 -38 -4 -27 9 9 12 10 23 2 42 -17 45 -13 86 9 86 10 0 24 -7 31 -16 8 -8
31 -24 53 -34 34 -17 43 -18 71 -6 33 14 74 52 42 40 -9 -3 -16 -10 -16 -15 0
-17 -100 -7 -125 12 -12 10 -34 23 -47 28 -23 9 -25 15 -27 80 l-2 71 69 0
c61 0 70 -2 75 -20z m2578 -15 c266 -69 488 -258 583 -499 87 -217 77 -468
-25 -670 -127 -251 -353 -413 -637 -456 -187 -29 -408 26 -572 141 l-60 42 0
223 c0 172 -3 224 -12 225 -10 0 -10 2 0 6 9 4 12 95 12 408 0 427 -2 404 44
442 55 46 243 128 326 143 81 14 278 11 341 -5z m-3337 -4 c3 -5 24 -7 45 -4
33 5 41 2 50 -16 7 -12 9 -26 6 -31 -3 -6 0 -10 8 -10 9 0 15 -10 15 -25 0
-14 -4 -25 -9 -25 -13 0 -11 -154 2 -167 9 -9 6 -13 -12 -16 -13 -3 -51 -10
-84 -16 -33 -6 -65 -18 -72 -27 -8 -11 -10 -48 -8 -111 4 -94 9 -117 23 -98 8
11 34 13 42 4 3 -3 23 -10 45 -16 38 -9 40 -11 37 -43 -4 -37 -48 -91 -68 -83
-6 2 -14 13 -17 24 -9 35 -54 24 -85 -21 -23 -34 -31 -40 -55 -35 -19 3 -34
-2 -47 -15 -11 -11 -31 -22 -45 -26 -25 -6 -35 -24 -13 -24 6 0 4 -6 -6 -13
-14 -10 -16 -18 -8 -33 40 -77 72 -146 72 -158 0 -8 -11 -17 -24 -20 -13 -3
-26 -15 -29 -26 -4 -14 -13 -20 -35 -20 -33 0 -97 24 -107 40 -4 6 -32 29 -63
52 -118 85 -173 150 -213 251 -22 53 -41 168 -30 177 3 3 17 25 30 50 14 25
31 50 38 55 8 6 15 20 16 32 2 30 67 63 123 63 24 0 44 -4 44 -10 0 -5 9 -10
19 -10 11 0 23 -4 26 -10 11 -18 23 -10 18 11 -4 16 -2 20 8 17 8 -2 15 -14
17 -26 2 -11 14 -28 28 -36 13 -9 24 -25 24 -36 0 -15 7 -20 28 -20 27 0 42
10 127 81 24 21 50 39 57 42 35 12 -70 97 -158 126 -44 14 -49 19 -49 45 0 24
9 37 45 63 25 18 54 42 65 53 12 11 32 20 45 21 14 0 41 6 60 13 43 17 67 19
74 7z m4498 -553 l3 -543 33 -62 32 -62 0 -180 c0 -108 -4 -182 -10 -186 -18
-11 -153 77 -215 140 -38 39 -75 91 -98 136 -72 142 -70 124 -74 728 -3 299
-2 550 1 557 4 11 38 14 165 14 l160 0 3 -542z m-2812 484 c31 -16 53 -55 80
-148 0 0 -24 -6 -54 -13 -57 -13 -56 -12 -101 -115 -23 -53 -24 -61 -10 -76
17 -19 11 -30 -17 -30 -10 0 -18 -4 -18 -10 0 -5 7 -10 15 -10 18 0 19 -12 3
-28 -9 -9 -8 -12 4 -12 8 0 21 -6 27 -14 19 -23 -22 -60 -57 -51 -41 10 -58
33 -87 119 -41 120 -27 216 36 238 31 11 39 28 14 28 -26 0 -16 27 23 63 7 7
23 22 35 33 21 21 57 44 67 43 3 0 21 -8 40 -17z m841 -742 c1 -23 2 -23 9 5
5 20 8 -4 9 -72 l1 -103 28 -1 27 -2 -26 -4 c-25 -4 -27 -9 -33 -66 -3 -34 -9
-181 -13 -327 -7 -219 -9 -246 -13 -155 -5 102 -6 108 -18 80 -9 -20 -11 -48
-7 -83 6 -45 3 -59 -19 -97 -29 -49 -34 -96 -11 -115 8 -7 15 -28 15 -46 0
-27 -4 -34 -20 -34 -15 0 -20 -7 -20 -25 0 -23 -4 -25 -45 -25 l-45 0 1 38 c0
30 2 33 9 17 7 -14 8 -5 6 30 -2 33 2 57 13 74 11 17 17 51 18 101 2 94 25
266 41 303 6 15 18 27 27 27 18 0 21 46 4 52 -6 2 -15 30 -21 62 -7 48 -6 62
7 76 8 9 15 27 15 39 0 12 4 20 8 17 5 -3 8 29 8 70 -1 47 3 77 11 82 6 4 11
14 11 22 -1 8 0 38 1 65 1 36 4 46 11 35 5 -8 10 -26 11 -40z m-2021 -135 l0
-144 -37 19 c-21 10 -57 28 -81 39 -41 20 -53 28 -87 59 -7 6 -19 12 -25 12
-9 0 -10 15 -5 53 9 62 11 66 29 42 9 -13 21 -16 41 -12 32 5 58 -1 50 -13 -2
-4 6 -12 19 -18 22 -10 24 -8 31 24 3 19 10 32 14 30 5 -3 6 -16 4 -29 -3 -13
2 -28 9 -35 12 -10 14 -2 12 50 -3 64 1 82 17 73 5 -4 9 -71 9 -150z m-857
-117 c3 -10 14 -18 25 -18 41 0 89 -38 96 -75 4 -19 11 -35 15 -35 5 0 14 -13
19 -28 5 -16 25 -46 43 -66 41 -47 51 -108 38 -243 -4 -54 -8 -99 -9 -101 0
-1 -3 -2 -7 -1 -15 2 -53 -13 -53 -21 0 -15 -32 -4 -65 23 -19 15 -40 27 -47
27 -7 0 -24 16 -38 34 -14 19 -28 32 -31 30 -3 -1 -19 9 -36 24 -17 15 -54 43
-82 62 l-52 35 8 60 c8 63 8 71 -3 201 -6 76 -5 82 20 111 l26 30 64 -15 c46
-11 66 -21 69 -34z m1177 -39 c0 -5 7 -6 15 -3 8 4 15 1 15 -5 0 -7 -7 -14
-15 -17 -9 -4 -15 -19 -15 -35 0 -30 -11 -36 -70 -43 -14 -1 -30 -5 -35 -8 -6
-3 -27 -5 -48 -4 -49 2 -59 19 -55 94 l3 57 65 0 c38 0 70 5 78 12 11 10 18 8
38 -14 13 -14 24 -30 24 -34z"/>
<path d="M6613 9773 c-20 -4 -23 -11 -23 -51 l0 -47 85 0 85 0 0 46 c0 40 -3
48 -22 53 -25 6 -90 6 -125 -1z"/>
<path d="M839 8277 c-29 -14 -71 -54 -88 -85 -6 -11 -11 -43 -11 -70 0 -54 25
-100 73 -136 27 -20 44 -21 330 -26 302 -6 302 -6 361 -33 144 -66 236 -239
207 -386 -17 -87 -53 -152 -114 -207 -53 -48 -145 -94 -190 -94 -34 0 -99 -42
-124 -79 -28 -41 -31 -117 -7 -162 20 -39 99 -89 140 -89 48 0 131 18 194 43
143 55 285 186 362 333 37 71 50 109 63 188 25 149 15 241 -44 397 -75 197
-270 356 -495 403 -97 20 -614 22 -657 3z"/>
<path d="M875 7743 c-42 -9 -95 -37 -95 -50 0 -7 -4 -13 -9 -13 -24 0 -31 -75
-31 -351 0 -225 -3 -289 -12 -289 -9 0 -10 -3 -2 -8 6 -4 19 -22 28 -39 9 -18
21 -33 27 -33 6 0 19 -10 28 -22 14 -17 32 -23 78 -26 89 -6 147 31 173 111
16 51 12 569 -5 613 -16 39 -51 77 -92 98 -32 16 -49 18 -88 9z"/>
<path d="M2950 6640 l0 -30 524 0 524 0 7 -145 c9 -172 4 -267 -14 -289 -9
-11 -30 -16 -66 -16 l-52 0 -16 -57 c-19 -69 -15 -73 62 -73 96 0 165 59 201
173 6 20 15 119 18 220 l7 182 75 5 c73 5 75 6 78 33 l3 27 -675 0 -676 0 0
-30z"/>
<path d="M2947 6064 c-4 -4 -7 -67 -7 -141 l0 -133 120 0 120 0 0 25 c0 23 -3
24 -77 27 -76 3 -78 4 -78 28 0 24 3 25 68 28 68 3 68 3 65 30 -3 26 -5 27
-68 28 -62 1 -65 2 -68 27 -3 26 -3 26 75 29 76 3 78 4 78 28 0 25 0 25 -111
28 -60 1 -113 -1 -117 -4z"/>
<path d="M3227 5583 c-4 -3 -7 -66 -7 -140 l0 -133 40 0 40 0 0 60 c0 33 3 60
6 60 4 0 31 -27 61 -60 52 -56 59 -60 99 -60 24 0 44 4 44 9 0 5 -20 26 -45
47 -42 35 -58 64 -35 64 20 0 50 41 50 68 0 32 -30 65 -73 81 -31 12 -170 15
-180 4z"/>
<path d="M3560 5450 l0 -140 40 0 40 0 0 140 0 140 -40 0 -40 0 0 -140z"/>
<path d="M5010 4276 c-184 -41 -346 -205 -380 -385 -70 -370 255 -677 618
-582 92 24 152 60 228 135 344 344 12 937 -466 832z"/>
<path d="M1678 4033 c-10 -2 -18 -9 -18 -14 0 -5 -11 -9 -25 -9 -14 0 -25 -3
-25 -7 0 -5 -15 -24 -33 -43 -41 -44 -49 -64 -41 -106 6 -34 30 -52 48 -34 5
5 18 10 29 10 17 0 17 1 3 16 -33 32 -15 78 46 117 35 22 36 22 40 -5 3 -13 4
1 4 29 -1 29 -3 52 -6 52 -3 -1 -13 -3 -22 -6z"/>
</g>
</svg>
