<?xml version="1.0" standalone="no"?>
<!DOCTYPE svg PUBLIC "-//W3C//DTD SVG 20010904//EN"
 "http://www.w3.org/TR/2001/REC-SVG-20010904/DTD/svg10.dtd">
<svg version="1.0" xmlns="http://www.w3.org/2000/svg"
 width="720.000000pt" height="1280.000000pt" viewBox="0 0 720.000000 1280.000000"
 preserveAspectRatio="xMidYMid meet">
<metadata>
Created by potrace 1.16, written by Peter Selinger 2001-2019
</metadata>
<g transform="translate(0.000000,1280.000000) scale(0.100000,-0.100000)"
fill="#000000" stroke="none">
<path d="M0 6400 l0 -6400 3600 0 3600 0 0 1028 0 1027 -242 -3 -241 -3 51 55
c34 37 70 96 110 178 33 68 74 136 91 152 39 37 39 24 1 -33 -17 -24 -30 -49
-30 -56 0 -6 11 -34 25 -61 14 -27 25 -56 25 -64 0 -8 9 -26 19 -39 17 -22 21
-23 104 -16 l87 7 0 124 c0 117 -1 124 -20 124 -23 0 -34 19 -48 85 -6 28 -25
110 -42 182 -17 73 -28 138 -25 144 5 7 31 -13 71 -52 l64 -63 0 85 0 86 -67
6 c-38 2 -81 12 -97 20 -27 15 -125 115 -126 128 0 4 -13 21 -28 39 -36 41
-55 36 -132 -30 -30 -26 -65 -52 -77 -58 -31 -17 -94 -15 -131 4 -17 8 -39 15
-49 14 -107 -5 -145 -8 -150 -13 -8 -9 -95 37 -116 61 -21 24 -27 135 -8 170
6 11 11 30 11 41 0 11 16 68 35 127 19 58 37 127 41 153 4 29 21 67 47 105
l40 60 -18 53 c-17 49 -17 54 -2 71 10 10 17 24 17 30 0 7 3 12 8 12 13 0 32
53 32 89 0 49 19 114 36 124 8 4 14 14 14 22 0 8 16 26 36 41 28 22 37 25 44
14 7 -11 11 -11 24 -1 9 8 16 10 16 5 0 -5 5 -2 10 6 8 13 13 13 31 2 12 -8
25 -10 29 -5 11 11 18 173 8 179 -4 3 -8 14 -8 25 0 10 -7 19 -15 19 -9 0 -12
6 -8 15 3 9 2 15 -3 14 -24 -4 -44 2 -44 14 0 7 -9 19 -20 27 -14 10 -20 26
-20 52 0 21 -4 38 -10 38 -5 0 -10 18 -10 40 0 29 -4 40 -15 40 -10 0 -15 10
-15 30 0 25 -4 30 -25 30 -15 0 -25 6 -25 14 0 8 -6 16 -14 19 -17 7 -46 -58
-46 -101 0 -35 -55 -196 -81 -239 -23 -36 -36 -45 -18 -12 11 22 8 521 -4 584
-3 17 -11 78 -17 137 -6 59 -15 120 -19 135 -5 15 -14 60 -21 98 -11 61 -32
145 -85 335 -7 25 -27 92 -45 150 -18 58 -36 119 -40 135 -19 69 -62 211 -70
230 -15 34 -100 310 -100 323 0 19 -18 15 -151 -28 -412 -134 -491 -160 -559
-180 -41 -12 -93 -28 -115 -35 -22 -8 -105 -34 -185 -59 -80 -25 -251 -79
-380 -120 -129 -41 -280 -89 -335 -106 -246 -78 -405 -132 -410 -141 -4 -5
-16 -9 -27 -9 -12 0 -67 -15 -122 -34 -230 -78 -859 -274 -904 -282 -14 -3
-29 -7 -33 -10 -13 -8 13 46 52 106 19 30 41 68 49 85 19 38 35 58 88 114 23
24 42 51 42 58 0 8 6 13 12 11 16 -6 39 38 32 57 -3 8 1 22 10 30 9 9 16 30
16 46 0 17 11 55 25 85 14 30 29 74 34 97 6 23 15 43 20 45 6 2 11 26 11 52 0
27 4 51 9 54 9 6 30 106 30 141 0 42 -10 68 -21 57 -11 -11 -32 -45 -47 -77
-5 -12 -16 -27 -25 -34 -9 -7 -16 -19 -16 -26 0 -8 -10 -26 -22 -42 -13 -15
-27 -36 -33 -45 -81 -137 -266 -344 -410 -460 -89 -71 -200 -148 -214 -148 -5
0 -15 -7 -22 -17 -11 -12 -14 -57 -14 -187 -1 -144 -4 -186 -24 -266 -13 -52
-25 -97 -28 -100 -2 -2 -8 2 -13 10 -7 11 -10 7 -10 -16 0 -18 -6 -43 -13 -57
-13 -24 -14 -24 -25 -6 -7 10 -12 26 -12 35 0 12 -8 15 -37 12 -22 -2 -38 2
-41 10 -2 8 -29 12 -84 12 -65 0 -88 -4 -117 -22 -48 -29 -101 -86 -101 -109
0 -11 -4 -19 -10 -19 -5 0 -10 -7 -10 -15 0 -8 4 -15 9 -15 6 0 8 -55 7 -132
-2 -87 1 -145 9 -168 9 -26 10 -52 3 -95 -6 -41 -6 -61 1 -63 21 -7 1 -152
-20 -152 -16 0 -9 -22 13 -41 27 -25 33 -24 56 6 23 28 28 30 46 12 14 -14
103 -261 115 -319 11 -52 57 -120 85 -124 25 -4 96 -25 96 -29 0 -2 -25 -11
-56 -20 -48 -14 -55 -19 -52 -38 2 -14 9 -20 18 -17 34 11 136 3 168 -13 47
-25 102 -82 102 -106 0 -11 5 -23 10 -26 6 -3 10 -16 10 -28 0 -31 36 -85 65
-99 l25 -11 -21 -20 c-11 -11 -29 -17 -39 -14 -13 3 -24 -3 -35 -19 -14 -22
-14 -25 3 -35 17 -10 18 -17 9 -51 -5 -21 -8 -41 -5 -43 2 -2 21 0 41 6 23 6
66 7 117 1 81 -8 176 6 190 29 4 5 15 7 26 3 14 -4 15 -3 5 4 -10 7 -5 16 24
38 20 16 43 43 50 59 8 17 19 37 24 45 6 8 13 32 16 53 5 33 9 37 28 31 37
-11 39 -20 10 -40 -15 -11 -29 -26 -29 -34 -1 -8 -5 -23 -9 -33 -6 -14 -2 -17
24 -17 21 0 31 5 31 15 0 22 77 102 105 109 17 4 22 11 18 22 -6 17 29 56 48
52 6 -2 15 10 20 26 9 32 62 86 85 86 30 0 7 -167 -25 -178 -6 -2 -11 -16 -11
-31 0 -16 -10 -37 -25 -51 -14 -13 -25 -29 -25 -36 0 -7 -3 -14 -8 -16 -4 -1
-24 -29 -45 -60 -21 -31 -42 -60 -47 -63 -6 -3 -10 -16 -11 -28 0 -15 -29 -47
-84 -96 -94 -83 -98 -86 -140 -94 -16 -4 -24 -4 -17 -1 19 9 14 24 -8 24 -11
0 -20 -6 -21 -12 0 -7 -5 -3 -11 9 -7 14 -20 23 -35 23 -18 0 -23 5 -23 28 0
27 19 52 79 105 18 16 30 31 28 34 -3 3 -24 2 -46 -2 -27 -4 -42 -13 -46 -26
-4 -11 -9 -18 -13 -16 -4 2 -25 -5 -47 -17 -33 -17 -43 -29 -54 -68 -16 -53
-25 -56 -94 -37 -34 9 -38 14 -33 33 10 41 -83 146 -129 146 -9 0 -25 5 -36
11 -11 5 -31 9 -44 7 l-25 -3 39 -115 c21 -63 41 -127 45 -143 5 -20 12 -27
30 -27 14 0 27 6 29 13 3 6 6 3 6 -8 0 -11 -6 -33 -13 -50 -10 -24 -9 -39 5
-90 41 -143 59 -198 63 -203 6 -5 46 6 176 48 121 41 126 43 122 71 -1 13 1
20 5 14 5 -5 17 -17 27 -25 18 -14 19 -13 13 18 -7 35 7 45 16 11 5 -19 10
-21 50 -15 l45 7 0 -43 c1 -79 2 -89 10 -84 13 8 36 -64 25 -75 -6 -6 -15 -4
-23 6 -14 17 -46 20 -55 5 -3 -5 -15 -10 -26 -10 -10 0 -19 -4 -19 -10 0 -5
-5 -10 -11 -10 -6 0 -39 -13 -73 -29 -33 -16 -82 -32 -109 -36 -58 -8 -103
-46 -87 -74 5 -10 7 -21 4 -24 -6 -5 29 -134 80 -292 20 -60 36 -116 36 -122
0 -10 -209 -13 -1013 -13 l-1013 0 -12 32 c-38 100 -83 242 -97 307 -54 259
-33 591 56 866 32 96 97 263 110 280 14 18 29 65 21 65 -16 0 -92 -170 -137
-306 -69 -207 -98 -385 -98 -594 1 -183 21 -305 79 -474 24 -72 47 -141 50
-154 l6 -22 -276 0 -276 1 0 1245 0 1244 28 0 c52 0 487 30 582 39 52 6 163
13 245 16 275 10 654 55 789 92 16 4 18 12 13 57 -14 147 -82 435 -194 827 -4
12 8 21 44 34 26 10 79 31 117 47 37 15 73 28 79 28 13 0 204 74 286 111 35
16 67 29 72 29 27 0 421 205 474 247 6 4 39 28 75 52 36 25 83 62 105 83 22
21 45 38 50 38 15 0 95 83 95 97 0 7 6 16 13 20 13 8 46 55 59 83 5 12 7 12 7
1 1 -20 51 76 51 98 0 10 11 27 25 37 14 10 25 28 25 40 0 12 7 35 15 50 8 16
15 25 15 19 0 -25 23 18 27 51 3 22 10 47 15 57 22 41 64 222 78 332 39 317
42 380 37 715 -3 184 -12 441 -21 570 -8 129 -21 323 -27 430 -6 107 -14 233
-18 280 l-6 85 -80 -1 c-84 -2 -402 -18 -665 -34 -85 -5 -310 -19 -500 -30
-705 -41 -858 -50 -990 -60 -74 -5 -288 -19 -475 -30 -187 -11 -364 -22 -393
-26 l-52 -5 0 115 0 116 2002 0 c1101 0 1999 -2 1997 -4 -2 -2 -75 -27 -161
-56 -87 -29 -158 -56 -158 -60 0 -14 27 -19 61 -10 19 4 81 22 139 40 171 53
248 69 380 81 143 14 200 8 200 -21 0 -50 -50 -106 -193 -219 -47 -37 -215
-131 -234 -131 -12 0 -33 111 -34 186 -1 75 -11 108 -32 112 -23 5 -31 -36
-23 -121 7 -80 39 -243 63 -326 17 -61 12 -71 -44 -71 -53 0 -111 -29 -134
-67 -12 -19 -20 -36 -17 -38 2 -2 30 9 63 25 78 38 162 56 187 41 21 -13 38
-7 38 13 0 9 45 22 138 40 171 34 262 62 262 83 0 9 6 13 14 10 8 -3 22 3 32
14 30 33 9 68 -60 104 -54 27 -70 30 -183 35 l-124 5 80 44 c87 48 212 155
237 203 10 18 13 40 9 59 l-7 29 1341 0 1341 0 0 1775 0 1775 -3600 0 -3600 0
0 -6400z m6795 3679 c153 -68 200 -265 96 -404 -25 -34 -27 -41 -14 -50 23
-17 -3 -53 -49 -67 -30 -9 -45 -8 -80 5 -34 13 -55 15 -98 8 -30 -5 -63 -13
-73 -16 -53 -21 -137 34 -107 70 11 13 9 19 -8 38 -85 90 -82 268 6 360 77 82
216 105 327 56z m-652 5 c52 -18 116 -76 143 -132 28 -55 26 -174 -4 -229 -50
-95 -136 -143 -256 -143 -209 0 -331 220 -222 402 25 42 43 59 94 85 54 28 75
33 131 33 37 0 88 -7 114 -16z m-5834 -111 c15 -56 71 -300 71 -307 0 -3 -15
-6 -33 -6 -28 0 -34 4 -42 32 -9 29 -14 32 -50 31 -36 0 -40 -3 -47 -31 -8
-28 -13 -32 -42 -32 l-34 0 14 58 c7 31 26 110 41 175 l27 117 43 0 c40 0 43
-2 52 -37z m401 -55 l1 -93 30 38 c23 27 39 37 60 37 16 0 29 -3 29 -6 0 -4
-16 -28 -35 -53 -30 -41 -33 -50 -21 -67 7 -10 25 -40 40 -66 l27 -48 -35 0
c-30 0 -38 5 -57 40 -13 22 -26 40 -31 40 -4 0 -8 -18 -8 -40 0 -38 -2 -40
-30 -40 l-30 0 0 175 0 175 30 0 30 0 0 -92z m1740 -83 l0 -176 -42 1 c-24 1
-55 -1 -69 -5 -19 -5 -33 -1 -55 18 -28 24 -29 29 -29 106 1 69 4 85 22 102
22 22 54 28 91 15 21 -7 22 -5 22 53 l0 61 30 0 30 0 0 -175z m452 83 l3 -92
25 37 c20 30 31 37 58 37 30 0 42 -12 24 -24 -5 -3 -21 -23 -36 -44 l-27 -40
40 -66 41 -66 -35 0 c-30 0 -38 5 -57 40 -13 22 -26 40 -30 40 -5 0 -8 -18 -8
-40 0 -39 -1 -40 -35 -40 l-35 0 0 168 c0 93 3 172 7 175 3 4 19 7 34 7 l28 0
3 -92z m728 28 l0 -65 35 15 c28 11 40 12 58 3 34 -18 37 -27 37 -136 l0 -103
-30 0 -30 0 0 90 c0 75 -3 92 -16 97 -37 14 -49 -10 -52 -101 l-3 -86 -29 0
-30 0 0 175 0 175 30 0 30 0 0 -64z m530 3 c0 -58 1 -60 23 -53 76 26 107 -8
107 -118 0 -71 -2 -81 -26 -105 -21 -21 -31 -24 -57 -18 -18 4 -49 6 -69 6
l-38 -2 0 176 0 175 30 0 30 0 0 -61z m-1482 -11 c3 -35 6 -38 33 -38 24 0 29
-4 29 -25 0 -21 -5 -25 -30 -25 l-31 0 3 -67 c3 -66 4 -68 31 -71 21 -3 27 -8
23 -19 -3 -8 -6 -19 -6 -24 0 -16 -73 -10 -92 8 -14 13 -18 31 -18 90 0 66 -2
75 -20 80 -13 3 -20 14 -20 29 0 17 6 24 20 24 17 0 20 7 20 41 0 38 1 40 28
37 23 -3 27 -8 30 -40z m-2094 -58 c24 -24 34 -122 17 -173 -15 -44 -59 -66
-97 -48 -14 6 -27 11 -29 11 -3 0 -5 -29 -5 -65 l0 -65 -30 0 -30 0 0 181 0
182 39 -6 c21 -2 45 -1 52 4 19 12 60 2 83 -21z m402 20 c8 0 23 -9 34 -20 17
-17 20 -33 20 -121 l0 -101 -32 3 c-18 1 -48 -1 -66 -5 -50 -12 -82 13 -82 64
0 44 20 64 83 81 28 7 37 15 35 27 -5 25 -45 27 -58 3 -13 -25 -48 -28 -57 -5
-13 34 56 90 95 78 8 -2 20 -4 28 -4z m293 -1 c38 -14 51 -35 51 -88 l0 -41
-61 0 c-60 0 -60 0 -57 -27 3 -32 44 -46 54 -19 4 10 18 16 35 16 35 0 39 -25
10 -61 -27 -34 -99 -34 -135 0 -23 22 -26 32 -26 96 0 79 20 120 63 128 12 2
25 5 28 6 3 0 20 -4 38 -10z m199 0 c29 -10 59 -59 45 -73 -15 -15 -51 -5 -56
15 -4 13 -12 20 -24 17 -31 -6 -27 -34 7 -48 78 -32 101 -82 61 -131 -15 -19
-29 -24 -66 -24 -37 0 -51 5 -66 24 -29 36 -25 61 11 61 24 0 30 -4 30 -21 0
-15 5 -20 22 -17 42 6 33 36 -16 58 -54 23 -75 57 -60 98 9 25 45 52 70 52 6
0 25 -5 42 -11z m219 -13 c6 -6 13 -22 15 -36 2 -21 -2 -26 -23 -28 -20 -2
-28 2 -32 18 -4 14 -12 21 -24 18 -29 -5 -21 -32 15 -50 73 -36 92 -81 53
-129 -15 -19 -29 -24 -66 -24 -37 0 -51 5 -66 24 -29 36 -25 61 10 61 21 0 30
-6 34 -21 7 -25 40 -22 45 4 3 12 -9 23 -42 37 -51 21 -70 54 -60 97 12 45
104 65 141 29z m182 13 c17 -6 36 -19 41 -29 6 -10 10 -62 10 -116 l0 -97 -40
6 c-22 3 -43 1 -46 -4 -8 -14 -47 -11 -72 7 -16 11 -22 25 -22 54 0 44 20 64
83 81 28 7 37 15 35 27 -5 25 -45 27 -58 3 -13 -25 -48 -28 -57 -5 -8 23 16
62 46 73 35 13 43 13 80 0z m319 -22 c16 -15 22 -32 22 -64 l0 -43 -61 0 c-60
0 -60 0 -57 -27 3 -32 44 -46 54 -19 8 20 64 22 64 2 0 -69 -102 -98 -158 -45
-19 17 -22 31 -22 98 0 68 3 80 23 98 12 11 29 23 37 26 25 9 73 -4 98 -26z
m1000 -3 c19 -21 22 -36 22 -99 0 -70 -1 -74 -32 -100 -27 -23 -39 -26 -71
-22 -59 8 -80 35 -85 107 -3 36 1 72 9 91 24 60 111 73 157 23z m240 9 c8 -11
12 -53 12 -120 l0 -103 -30 0 -30 0 0 90 c0 75 -3 92 -17 97 -32 12 -53 -32
-53 -113 l0 -74 -30 0 -30 0 0 120 0 120 29 0 c16 0 31 -5 33 -12 3 -8 11 -7
29 5 27 20 67 15 87 -10z m530 -9 c15 -17 22 -38 22 -65 l0 -39 -61 0 c-60 0
-60 0 -57 -27 3 -32 44 -46 54 -19 4 10 18 16 35 16 35 0 40 -29 9 -60 -27
-27 -63 -34 -105 -20 -46 15 -55 34 -55 123 0 64 3 76 23 94 12 11 29 23 37
26 28 11 75 -3 98 -29z m542 10 c11 -11 15 -39 15 -117 l0 -102 -32 -3 -33 -3
0 91 c0 72 -3 92 -15 96 -33 13 -45 -15 -45 -102 l0 -84 -35 0 -35 0 0 120 0
120 35 0 c19 0 35 -4 35 -9 0 -6 12 -3 28 4 29 16 58 12 82 -11z m215 -5 c17
-16 21 -36 23 -120 l4 -100 -44 1 c-23 1 -54 -1 -68 -5 -34 -9 -80 27 -80 61
0 42 17 62 70 79 37 12 50 22 50 36 0 26 -36 25 -52 -1 -12 -19 -48 -27 -61
-14 -3 3 -1 19 5 36 20 56 108 72 153 27z m394 20 c36 -13 61 -53 61 -99 l0
-30 -59 0 c-63 0 -76 -8 -66 -40 8 -24 55 -28 55 -5 0 11 11 15 36 15 32 0 35
-2 29 -22 -4 -13 -18 -34 -33 -47 -21 -19 -33 -22 -65 -18 -60 8 -80 35 -85
109 -5 79 9 115 50 133 41 17 38 17 77 4z m204 -3 c15 -8 27 -11 27 -5 0 5 14
9 31 9 l30 0 -3 -154 c-3 -134 -5 -157 -22 -175 -42 -46 -144 -35 -166 19 -7
16 -9 34 -5 39 10 18 44 12 57 -9 27 -42 78 -15 78 41 0 18 -3 20 -12 11 -7
-7 -29 -12 -49 -12 -56 0 -79 34 -79 116 0 72 13 107 44 122 29 14 37 14 69
-2z m285 -22 c19 -22 22 -36 22 -120 l0 -95 -42 1 c-24 1 -54 -1 -68 -5 -36
-9 -80 27 -80 65 0 27 32 70 52 70 5 0 24 7 43 14 25 11 33 19 29 30 -9 22
-41 20 -56 -4 -18 -29 -58 -27 -58 3 0 73 105 101 158 41z m-3048 -94 l0 -120
-35 0 -35 0 0 113 c0 63 3 117 7 120 3 4 19 7 35 7 l28 0 0 -120z m2280 63
c19 -90 25 -92 45 -14 18 68 20 71 48 71 28 0 29 -2 23 -33 -3 -19 -25 -99
-49 -178 l-42 -144 -34 -3 c-28 -3 -33 -1 -27 14 28 74 28 99 -3 207 -18 59
-34 113 -37 122 -5 12 2 15 28 15 34 0 35 -1 48 -57z m-385 -994 c28 -5 56
-13 64 -18 21 -14 6 -38 -37 -60 -47 -24 -332 -94 -363 -89 -17 2 -26 16 -41
66 -11 34 -17 69 -15 77 3 8 27 16 54 20 26 3 64 10 83 15 39 10 179 4 255
-11z m-2832 -483 c21 -2 43 -9 50 -14 7 -6 28 -12 47 -14 27 -2 34 -7 32 -20
-2 -11 3 -18 14 -18 13 0 15 -6 9 -37 -4 -21 -12 -41 -18 -45 -25 -15 -10
-183 22 -245 23 -45 43 -253 22 -223 -8 12 -11 5 -11 -30 0 -33 3 -41 10 -30
8 13 10 12 10 -2 0 -10 7 -18 16 -18 9 0 40 -14 69 -32 42 -25 55 -39 64 -70
12 -40 15 -42 64 -52 34 -8 36 -35 5 -63 -29 -26 -155 -70 -189 -65 -22 3 -25
7 -21 32 3 21 10 30 23 30 11 0 19 7 19 16 0 15 -10 16 -87 10 -49 -4 -107 -9
-129 -12 -35 -5 -45 -2 -63 17 -27 30 -27 56 2 65 39 12 67 51 67 95 0 29 4
39 16 39 11 0 14 8 12 33 -2 23 -8 32 -20 31 -22 -2 -21 -8 -18 154 2 121 0
135 -18 155 -33 37 -72 116 -72 148 0 23 -12 43 -49 80 -27 27 -54 49 -60 49
-6 0 -11 7 -11 15 0 20 56 35 110 29 25 -2 62 -6 83 -8z m-676 -766 c10 -17
35 -38 56 -47 22 -10 39 -26 42 -38 21 -108 21 -163 1 -183 -11 -12 -15 -9
-24 16 -6 17 -19 33 -31 37 -11 3 -23 16 -27 28 -4 11 -13 27 -20 35 -8 7 -14
21 -14 31 0 9 -5 22 -10 27 -6 6 -13 29 -16 52 -10 74 11 95 43 42z m667 -625
c9 -14 29 -28 44 -31 15 -4 46 -18 69 -31 26 -15 50 -22 65 -18 12 3 43 2 68
-3 l45 -8 -45 -29 c-29 -20 -53 -47 -69 -81 -30 -59 -55 -91 -94 -121 -17 -13
-23 -24 -17 -28 17 -11 91 6 97 21 3 8 13 14 23 14 11 0 22 5 25 10 11 18 51
10 99 -20 40 -26 47 -35 44 -58 -2 -21 -9 -28 -31 -30 -20 -3 -27 -8 -23 -18
7 -19 -26 -32 -106 -38 -35 -3 -82 -8 -104 -12 -62 -9 -166 28 -200 73 -24 31
-25 40 -19 89 4 33 12 57 21 61 8 3 12 8 9 12 -2 4 3 21 11 37 10 18 13 42 10
64 -13 86 -19 111 -27 115 -13 9 2 36 25 45 38 15 63 11 80 -15z m3496 -1233
c25 -5 59 -16 75 -25 17 -9 46 -25 65 -35 19 -10 57 -32 84 -50 28 -18 56 -32
63 -32 7 0 13 -7 13 -15 0 -8 6 -15 14 -15 8 0 17 -6 20 -12 5 -10 7 -10 12 0
3 6 10 10 14 7 5 -3 14 9 19 27 5 18 10 25 10 15 1 -10 -6 -32 -15 -48 -8 -17
-13 -33 -10 -37 3 -3 6 0 6 6 0 7 5 12 10 12 6 0 10 -13 10 -29 0 -17 -4 -33
-10 -36 -5 -3 -10 -17 -10 -31 0 -13 5 -24 10 -24 6 0 10 12 10 26 0 47 18 15
30 -53 6 -38 18 -81 25 -98 7 -16 16 -48 18 -70 6 -46 16 -93 24 -115 4 -10 8
-5 12 15 4 17 4 32 0 35 -10 8 -17 100 -8 100 5 0 9 -6 9 -14 0 -8 5 -16 12
-18 15 -5 14 -62 -3 -127 -10 -42 -10 -62 4 -133 9 -46 19 -100 22 -121 3 -21
8 -46 11 -55 3 -9 -1 -7 -9 6 -14 25 -26 19 -41 -23 -7 -19 -8 -19 -18 -2 -9
17 -11 16 -33 -9 -14 -16 -23 -40 -23 -60 0 -30 -30 -100 -78 -181 -10 -17
-46 -50 -81 -73 -34 -24 -64 -48 -67 -55 -2 -7 -19 -15 -36 -17 -23 -4 -34 0
-41 14 -21 39 -77 321 -109 548 -5 36 -16 92 -24 125 -8 33 -27 114 -41 180
-15 66 -33 140 -40 165 -8 25 -21 79 -29 120 -9 41 -19 91 -24 110 -11 49 -4
80 17 80 10 0 26 9 36 20 10 11 25 18 34 15 9 -2 36 -8 61 -13z m-1170 -127
c0 -9 -9 -35 -20 -57 -25 -52 -19 -61 9 -13 14 24 30 37 51 41 16 4 27 10 24
15 -3 5 2 9 11 9 9 0 14 -3 12 -7 -3 -5 6 -9 19 -9 36 -3 109 -53 129 -90 9
-18 28 -35 41 -38 14 -4 30 -18 36 -31 6 -13 15 -22 19 -19 11 6 11 -7 1 -21
-4 -5 -28 -21 -53 -33 -26 -13 -64 -39 -85 -58 -41 -38 -39 -28 -59 -308 -2
-37 -7 -83 -11 -102 -6 -32 -4 -34 20 -34 28 0 80 -45 70 -61 -2 -5 -23 -14
-44 -20 -22 -7 -37 -16 -34 -20 3 -5 -1 -9 -8 -9 -7 0 -20 -5 -28 -10 -13 -8
-12 -12 7 -25 12 -9 25 -31 29 -50 l6 -33 74 -7 c55 -6 74 -11 74 -22 0 -13
-38 -111 -47 -123 -2 -2 -30 -5 -61 -6 -81 -3 -117 19 -177 106 -28 40 -64 89
-81 109 -49 56 -89 137 -124 245 -24 79 -29 108 -24 145 12 80 55 136 69 90
10 -32 25 -11 25 37 0 32 4 44 15 44 9 0 15 -9 15 -22 0 -29 58 -88 86 -88 34
0 40 20 7 21 -25 1 -24 2 10 11 32 9 37 14 37 38 0 19 -10 36 -30 53 -18 16
-30 35 -30 50 0 18 -8 28 -31 37 -17 8 -37 13 -45 13 -7 0 -16 7 -19 14 -3 9
-12 12 -25 8 -14 -4 -20 -2 -20 9 0 8 5 18 11 21 6 4 8 14 5 22 -3 8 -2 12 2
9 12 -7 37 17 54 54 23 48 36 84 34 92 -1 8 35 37 47 38 4 0 7 -7 7 -15z m420
-303 c0 -10 -31 -37 -53 -45 -13 -5 -15 -11 -8 -24 5 -10 12 -30 15 -45 4 -15
15 -30 26 -33 11 -3 23 -17 26 -30 7 -30 24 -36 66 -25 45 14 55 0 34 -47 -30
-65 -41 -76 -66 -63 -12 6 -28 27 -36 45 -7 19 -25 42 -40 52 -73 52 -81 61
-76 94 3 19 0 34 -9 39 -18 12 4 36 46 50 23 8 32 16 28 26 -4 10 2 14 21 14
14 0 26 -3 26 -8z m-1990 -1019 c-43 -121 -50 -131 -94 -139 -22 -4 -47 -7
-54 -5 -17 3 -42 -18 -42 -35 0 -8 13 -28 28 -46 25 -27 36 -31 75 -31 25 0
53 6 62 13 8 7 18 11 20 8 9 -9 -63 -145 -80 -152 -55 -21 -136 5 -183 58 -49
56 -55 136 -16 231 20 47 54 68 54 33 0 -18 4 -19 43 -13 50 9 59 13 52 26 -4
5 -1 9 4 9 6 0 11 -4 11 -10 0 -5 8 -10 18 -9 11 0 12 2 4 6 -9 3 -7 10 9 24
15 13 18 19 8 20 -8 0 7 7 34 15 28 9 47 20 47 29 0 8 4 15 9 15 4 0 1 -21 -9
-47z m340 -46 c0 -10 -17 -31 -62 -76 -45 -45 -58 -77 -58 -147 0 -58 5 -62
48 -40 15 7 57 16 95 19 65 6 67 6 56 -14 -17 -32 1 -239 21 -239 9 0 30 -46
30 -65 0 -22 -24 -18 -46 6 -14 16 -26 19 -50 14 -26 -4 -40 1 -81 34 -82 65
-92 82 -86 151 6 60 -17 163 -38 176 -15 9 -40 -17 -60 -64 -16 -38 -21 -42
-44 -36 -31 8 -33 -7 -4 -61 31 -58 97 -131 146 -164 40 -27 42 -29 24 -42
-11 -8 -22 -24 -25 -36 -6 -20 -4 -21 65 -21 47 1 74 -3 79 -12 4 -7 31 -15
59 -18 45 -4 51 -7 51 -27 0 -26 -53 -133 -62 -125 -3 3 -15 -3 -27 -14 -22
-20 -22 -20 -143 12 -68 18 -96 32 -65 32 55 0 -22 170 -112 248 -68 60 -143
102 -180 102 -14 0 -33 5 -41 10 -11 7 -5 10 25 10 59 1 120 32 148 77 25 38
57 166 57 229 0 42 10 43 38 4 25 -33 85 -55 113 -40 37 20 59 61 59 110 l0
48 35 -16 c19 -9 35 -20 35 -25z m224 -228 c8 -46 14 -76 15 -66 1 9 4 17 9
17 12 0 36 -43 39 -70 2 -21 1 -22 -6 -5 -8 19 -8 19 -19 0 -8 -15 -12 -16
-12 -5 0 13 -1 13 -10 0 -5 -8 -10 -55 -10 -105 l0 -90 -25 30 c-18 23 -24 42
-25 80 0 28 5 56 10 61 17 17 25 141 10 159 -16 19 -44 19 -60 0 -7 -8 -17
-15 -23 -15 -5 0 0 9 13 20 13 11 26 20 29 20 3 0 15 13 26 29 11 17 21 29 22
27 2 -1 9 -40 17 -87z m3236 -91 c-35 -86 -93 -201 -115 -226 -11 -13 -29 -40
-40 -60 -11 -21 -38 -59 -60 -85 -22 -26 -40 -51 -40 -55 0 -4 -11 -18 -25
-32 -14 -14 -36 -40 -50 -58 -14 -19 -36 -38 -48 -43 -13 -5 -26 -17 -29 -27
-3 -9 -26 -35 -50 -56 -37 -33 -46 -37 -55 -25 -7 11 -9 9 -5 -8 3 -16 -2 -27
-20 -38 -24 -16 -24 -16 -21 7 2 13 9 22 16 21 13 -3 14 2 6 35 -7 25 -34 30
-34 6 0 -11 -8 -14 -32 -12 -27 2 -33 7 -32 26 0 12 -5 22 -13 22 -7 0 -13 9
-13 19 0 13 13 24 39 35 23 9 42 24 46 37 7 23 33 51 56 63 31 16 55 33 83 59
16 15 39 27 51 27 25 0 50 24 41 39 -4 5 1 16 10 23 49 40 71 67 83 102 13 38
61 90 92 101 9 3 19 13 23 23 8 24 69 105 83 109 6 2 14 -6 17 -19 7 -21 9
-19 28 22 29 61 35 35 8 -32z m-2387 -50 c21 -15 27 -27 27 -57 0 -49 18 -101
35 -101 36 0 19 -23 -47 -66 -40 -25 -98 -70 -128 -98 -30 -28 -47 -42 -39
-31 28 36 73 149 82 205 10 62 10 98 1 153 -6 38 -6 39 17 26 13 -6 36 -21 52
-31z m2976 -1034 c2 -2 -1 -9 -7 -16 -5 -7 -13 -30 -17 -50 -6 -32 -4 -38 10
-38 27 0 14 -41 -25 -80 -96 -95 -157 -145 -177 -147 -24 -3 -29 7 -13 23 6 6
13 48 16 95 6 80 23 141 44 154 6 4 8 10 5 14 -20 33 130 74 164 45z m-359
-95 c0 -5 -18 -36 -39 -68 -37 -54 -43 -59 -87 -65 -26 -3 -65 -6 -87 -6 -34
0 -38 2 -27 15 15 18 -2 45 -29 45 -32 0 44 40 89 46 25 3 68 14 95 24 57 22
85 25 85 9z m366 -219 c24 0 26 -2 29 -55 3 -37 -40 -165 -89 -265 -20 -41
-36 -84 -36 -95 0 -39 -22 -57 -65 -53 -57 4 -67 30 -59 140 5 68 3 93 -8 110
-12 19 -13 28 -2 53 28 65 195 215 202 181 2 -9 14 -16 28 -16z m-496 -38 c0
-63 -12 -83 -60 -97 -14 -4 -32 -13 -40 -20 -23 -19 -53 -26 -70 -15 -12 8
-11 10 7 10 16 0 21 4 17 15 -4 8 -1 15 5 15 14 0 41 65 41 101 0 21 -5 29
-17 30 -28 2 38 16 80 18 l37 1 0 -58z m203 -129 c-27 -32 -55 -72 -62 -90 -7
-18 -22 -35 -32 -38 -10 -4 -19 -12 -19 -19 0 -12 -38 -106 -59 -145 -4 -8
-24 -14 -51 -15 -44 -1 -45 0 -48 32 -2 19 0 41 4 50 9 20 8 18 18 59 4 18 11
32 14 32 38 -6 66 6 109 46 26 25 51 45 55 45 5 0 8 7 8 15 0 8 7 15 16 15 8
0 13 4 10 8 -8 13 72 77 83 67 2 -2 -19 -30 -46 -62z"/>
<path d="M6613 9773 c-20 -4 -23 -11 -23 -51 l0 -47 85 0 85 0 0 46 c0 40 -3
48 -22 53 -25 6 -90 6 -125 -1z"/>
<path d="M4821 9191 c-10 -7 -13 -29 -9 -92 4 -76 3 -85 -17 -103 -12 -12 -27
-36 -33 -55 -15 -43 -59 -101 -76 -101 -13 0 -32 37 -38 75 -2 12 -12 21 -26
23 -22 3 -23 2 -16 -50 9 -71 26 -98 65 -98 32 0 64 26 106 85 12 16 24 27 28
23 12 -11 26 -171 23 -250 l-3 -73 -40 -6 c-22 -4 -100 -10 -174 -13 -178 -10
-177 -7 53 127 87 51 114 77 82 77 -9 0 -39 -15 -68 -33 -29 -19 -60 -36 -68
-40 -8 -3 -53 -30 -100 -59 -69 -44 -85 -58 -85 -78 0 -25 2 -25 80 -25 44 0
137 3 208 7 l127 8 -4 -58 c-2 -31 -5 -60 -5 -63 -1 -4 -16 -10 -34 -13 l-34
-6 21 -44 c23 -48 41 -50 51 -5 10 44 39 37 82 -21 41 -54 38 -55 63 13 19 53
60 18 60 -52 0 -42 11 -44 46 -10 28 27 36 30 49 19 8 -7 15 -21 15 -31 0 -12
5 -16 15 -13 24 10 85 -24 85 -47 0 -22 -34 -94 -50 -104 -5 -3 -10 -11 -10
-16 0 -6 19 3 43 19 68 46 74 46 113 4 18 -20 34 -45 34 -55 0 -9 -27 -38 -60
-64 -33 -25 -60 -48 -60 -50 0 -2 23 8 51 23 58 29 79 26 79 -11 0 -38 -26
-85 -68 -123 l-37 -33 32 15 c46 23 76 20 104 -10 13 -14 40 -34 60 -44 27
-14 45 -36 72 -87 52 -99 120 -130 181 -82 33 26 67 20 90 -16 10 -16 26 -25
41 -25 21 0 25 5 25 28 0 15 -11 43 -25 62 -18 25 -25 46 -25 81 0 42 -4 50
-30 69 -26 18 -30 28 -28 58 3 33 0 38 -32 53 -41 20 -45 38 -10 57 36 18 86
8 126 -27 48 -43 64 -40 64 8 0 22 3 46 6 54 3 9 -8 28 -31 48 -20 18 -43 49
-52 69 -56 126 -63 137 -102 155 -28 12 -46 31 -65 65 -24 45 -32 50 -92 70
-50 17 -81 21 -127 17 -56 -4 -65 -2 -90 21 -26 25 -30 25 -80 15 -28 -6 -56
-7 -61 -3 -15 15 2 38 33 45 18 4 40 19 53 38 12 18 27 35 33 40 20 14 60 -5
108 -51 42 -41 50 -45 67 -34 29 18 39 15 67 -18 19 -23 30 -29 47 -24 49 15
45 59 -13 159 -38 65 -41 75 -39 139 1 62 -1 71 -23 89 -21 17 -33 18 -96 13
l-73 -7 0 44 c0 59 -17 72 -94 71 -92 -1 -154 -39 -201 -121 -15 -25 -28 -33
-59 -39 -50 -8 -83 -29 -101 -63 -10 -19 -15 -22 -18 -11 -39 115 -56 188 -61
250 -5 75 -24 221 -29 226 -1 2 -9 -1 -16 -5z"/>
<path d="M3416 7408 c-4 -29 -10 -70 -13 -90 -5 -35 -3 -38 20 -38 44 0 57
-10 57 -45 0 -47 8 -64 41 -80 32 -17 125 -20 134 -5 11 18 46 11 66 -12 17
-21 18 -21 19 -4 0 18 10 19 52 1 12 -5 24 5 46 37 36 53 109 121 122 113 5
-3 -2 -32 -16 -65 -27 -68 -31 -95 -8 -62 20 29 65 52 102 52 26 0 62 24 51
34 -18 15 -183 84 -215 89 -21 4 -68 18 -104 33 -36 14 -98 31 -138 36 -41 5
-103 20 -139 33 -36 14 -67 25 -68 25 -1 0 -6 -24 -9 -52z"/>
<path d="M4532 7296 c-29 -30 -52 -59 -52 -65 0 -6 -6 -8 -13 -5 -16 6 -69
-20 -60 -29 3 -4 25 -7 47 -7 35 -1 38 -2 21 -12 -35 -19 -45 -38 -33 -63 9
-20 19 -24 77 -27 63 -4 101 9 101 33 0 5 -8 6 -17 3 -10 -3 1 12 25 34 23 22
42 42 42 45 0 3 -14 1 -30 -5 -49 -17 -62 2 -58 84 2 37 3 68 2 68 0 0 -24
-24 -52 -54z"/>
<path d="M4853 7248 c3 -57 13 -181 23 -274 l17 -170 34 15 c35 16 37 22 26
96 -5 40 -10 49 -35 57 -33 12 -32 31 1 36 23 4 23 5 16 90 -8 93 -10 124 -13
175 -2 25 -10 37 -39 56 l-36 23 6 -104z"/>
<path d="M4596 6765 c-3 -8 -13 -15 -23 -15 -10 0 -26 -7 -37 -15 -27 -20 -9
-65 36 -90 34 -18 68 -71 68 -106 0 -8 9 -41 19 -74 17 -55 21 -60 50 -63 20
-2 31 1 31 10 0 7 -26 93 -57 191 -53 165 -72 200 -87 162z"/>
<path d="M7133 6038 l-33 -23 0 -113 c0 -99 2 -115 20 -134 15 -17 20 -36 20
-80 0 -40 5 -64 17 -78 40 -46 43 -32 43 215 0 218 -1 235 -18 235 -9 0 -32
-10 -49 -22z"/>
<path d="M6758 5496 c-13 -9 -17 -25 -15 -52 2 -36 0 -39 -23 -37 -14 0 -46 9
-72 18 -26 10 -54 15 -63 12 -17 -7 -9 -37 10 -37 6 0 23 -11 37 -24 35 -32
92 -66 111 -66 26 0 117 -102 97 -108 -5 -2 -25 6 -44 17 -18 12 -46 21 -62
21 -16 0 -41 6 -56 14 -15 8 -42 16 -61 19 -18 2 -43 10 -56 16 -26 14 -36 9
-28 -14 4 -8 16 -15 27 -15 11 0 20 -5 20 -10 0 -6 12 -15 28 -21 33 -12 135
-62 142 -69 3 -3 18 -10 34 -15 16 -6 31 -17 34 -25 3 -8 1 -12 -2 -8 -9 8
-66 -11 -82 -26 -6 -6 -14 -30 -17 -54 -5 -30 -18 -54 -45 -81 -20 -21 -48
-53 -62 -71 -14 -18 -38 -48 -53 -66 -20 -23 -27 -40 -22 -54 3 -11 11 -20 16
-20 5 0 9 -11 9 -25 0 -14 4 -25 9 -25 4 0 6 -11 3 -25 -2 -15 0 -25 7 -25 6
0 11 4 11 9 0 5 13 12 29 16 23 5 32 14 41 43 6 20 16 53 22 74 6 20 26 54 44
75 19 21 34 41 34 46 0 12 40 8 40 -4 0 -7 16 -9 51 -4 61 9 125 -7 164 -41
15 -13 31 -24 35 -24 13 0 20 29 20 82 0 44 2 49 15 38 10 -9 15 -32 15 -75 0
-87 2 -91 55 -87 l44 4 1 264 0 264 -35 0 c-22 0 -38 -6 -41 -15 -4 -10 -20
-15 -48 -15 -38 0 -46 5 -91 54 -66 73 -75 84 -75 93 0 11 -37 43 -70 60 -32
16 -60 16 -82 -1z"/>
<path d="M7060 4548 c-13 -17 -46 -85 -72 -150 -26 -66 -52 -126 -59 -134 -16
-19 -6 -156 15 -204 l15 -35 1 60 c0 75 21 163 48 206 11 19 36 66 56 104 51
99 62 111 81 95 8 -7 16 -11 18 -9 35 62 37 68 14 84 -12 8 -37 15 -57 15 -27
0 -40 -7 -60 -32z"/>
</g>
</svg>
