<?xml version="1.0" standalone="no"?>
<!DOCTYPE svg PUBLIC "-//W3C//DTD SVG 20010904//EN"
 "http://www.w3.org/TR/2001/REC-SVG-20010904/DTD/svg10.dtd">
<svg version="1.0" xmlns="http://www.w3.org/2000/svg"
 width="720.000000pt" height="1280.000000pt" viewBox="0 0 720.000000 1280.000000"
 preserveAspectRatio="xMidYMid meet">
<metadata>
Created by potrace 1.16, written by Peter Selinger 2001-2019
</metadata>
<g transform="translate(0.000000,1280.000000) scale(0.100000,-0.100000)"
fill="#000000" stroke="none">
<path d="M0 6400 l0 -6400 3600 0 3600 0 0 1952 0 1951 -257 -9 c-430 -15
-2426 -10 -2928 7 -159 6 -416 11 -570 12 l-280 2 -3 23 c-2 12 4 30 14 39 15
16 15 17 -2 24 -11 3 -22 5 -26 3 -4 -3 -41 -9 -84 -14 -42 -6 -79 -12 -81
-14 -2 -2 1 -14 6 -28 19 -50 20 -50 -365 -49 -490 2 -554 12 -614 99 -19 28
-43 51 -52 52 -9 0 -20 5 -23 10 -3 6 -19 10 -36 10 -16 0 -29 5 -29 10 0 6
-3 9 -7 8 -19 -4 -61 15 -57 26 5 13 54 36 86 40 27 3 77 28 77 39 1 4 1 8 2
10 0 1 2 47 5 102 2 55 6 132 8 170 3 39 5 101 5 138 l1 68 73 -3 72 -3 -2
-228 -3 -228 38 7 c45 8 59 19 44 36 -6 7 -12 46 -13 85 -2 66 0 75 23 98 19
18 28 22 31 13 3 -7 6 -3 6 10 1 29 23 37 53 21 13 -7 35 -12 51 -10 16 1 27
-2 27 -10 0 -7 3 -9 8 -5 11 12 19 545 7 550 -5 3 1 5 15 6 93 8 130 7 130 -1
0 -5 7 -9 15 -9 8 0 15 8 15 18 0 16 -11 18 -86 21 -57 2 -90 -2 -100 -10 -9
-7 -43 -16 -77 -20 -104 -13 -1204 -24 -1219 -12 -14 11 -99 31 -137 31 -13 1
-51 8 -85 16 -33 8 -92 17 -131 19 -38 3 -56 2 -40 0 33 -5 65 -29 65 -49 0
-10 -9 -12 -30 -7 -19 3 -30 1 -30 -6 0 -8 -96 -11 -345 -11 l-345 0 0 105 0
105 423 0 c335 0 436 -3 492 -15 92 -19 101 -19 85 0 -10 13 -9 15 11 15 13
-1 43 -5 67 -9 23 -5 42 -4 42 0 0 5 23 9 50 9 33 0 49 4 48 12 -2 7 11 15 27
18 28 6 29 7 8 14 -35 11 -45 69 -39 219 2 73 5 144 5 158 1 41 45 81 91 83
22 0 40 4 40 8 0 5 -25 7 -55 7 -32 -1 -55 -6 -55 -13 0 -6 -7 -1 -15 10 -9
14 -16 62 -21 136 -6 105 -5 115 11 122 17 6 17 8 2 19 -20 14 -23 60 -12 209
5 67 12 112 20 118 8 7 54 10 116 8 l104 -3 5 -173 c3 -96 4 -175 2 -177 -3
-3 -6 -344 -4 -459 1 -44 4 -77 7 -74 3 3 8 165 11 359 2 195 7 362 10 371 4
15 18 18 80 18 l75 0 -7 -493 -7 -494 24 -6 c43 -12 101 -7 141 10 21 9 38 20
38 23 0 3 -10 17 -22 30 l-23 25 0 514 0 513 21 8 c12 5 65 6 118 3 l96 -6 0
-559 0 -558 171 1 c168 0 203 4 194 18 -2 4 -5 68 -6 142 -2 157 -7 209 -21
209 -7 0 -8 -16 -4 -42 4 -31 3 -38 -4 -26 -11 18 -50 14 -50 -6 0 -6 -7 -3
-14 6 -7 10 -16 15 -19 11 -4 -3 -7 36 -7 88 -1 52 -3 148 -4 214 -2 66 -2
144 1 173 l6 54 38 -4 c22 -2 39 1 39 5 0 5 6 5 13 -1 7 -6 17 -8 22 -4 6 4
11 107 13 245 l3 237 -78 1 c-43 0 -205 0 -361 -1 -295 -1 -342 4 -370 42 -20
27 -32 22 -32 -13 l0 -32 -760 5 c-419 3 -764 9 -768 13 -8 8 -6 2288 3 2435
2 52 9 96 15 98 14 5 12 39 -2 45 -9 4 -10 6 -1 6 6 1 19 -6 28 -15 15 -15 17
-15 31 5 8 11 22 21 30 21 8 0 14 5 14 10 0 6 -11 10 -24 10 -19 0 -22 4 -19
25 4 17 11 24 26 22 11 -1 22 4 24 11 3 8 -9 13 -39 14 -236 10 1032 16 3785
17 l3297 1 0 1775 0 1775 -3600 0 -3600 0 0 -6400z m6786 3682 c159 -63 211
-265 105 -407 -25 -34 -27 -41 -14 -50 24 -18 0 -52 -48 -67 -33 -9 -47 -9
-72 2 -36 16 -116 15 -165 -1 -47 -15 -97 -4 -117 27 -13 20 -14 28 -4 40 10
12 8 19 -9 37 -37 39 -62 108 -62 171 0 78 16 128 58 176 79 93 205 120 328
72z m-643 2 c52 -18 116 -76 142 -130 60 -126 7 -282 -117 -344 -139 -69 -312
-20 -376 106 -42 84 -38 184 12 267 25 41 43 58 94 84 54 28 75 33 131 33 37
0 88 -7 114 -16z m-5806 -224 c52 -224 51 -200 11 -200 -31 0 -36 4 -41 30 -6
27 -11 30 -42 30 -19 0 -38 0 -42 1 -4 0 -11 -14 -16 -30 -7 -27 -12 -31 -41
-31 l-34 0 14 58 c7 31 26 110 41 175 l27 118 44 -3 45 -3 34 -145z m373 58
l1 -93 30 38 c23 27 39 37 60 37 16 0 29 -3 29 -6 0 -4 -16 -28 -35 -54 l-34
-47 28 -45 c56 -89 56 -88 17 -88 -30 0 -38 5 -57 40 -26 45 -39 43 -39 -6 0
-31 -2 -34 -30 -34 l-30 0 0 175 0 175 30 0 30 0 0 -92z m1740 -83 l0 -176
-42 1 c-24 1 -54 -1 -68 -5 -43 -11 -77 25 -85 88 -7 58 7 128 30 147 17 14
51 17 83 6 21 -7 22 -5 22 53 l0 61 30 0 30 0 0 -175z m452 83 l3 -92 25 37
c20 30 31 37 58 37 30 0 42 -12 24 -24 -5 -3 -21 -23 -36 -44 l-27 -40 40 -66
41 -66 -35 0 c-30 0 -39 6 -62 43 l-28 42 -3 -42 c-3 -42 -4 -43 -38 -43 l-34
0 0 168 c0 93 3 172 7 175 3 4 19 7 34 7 l28 0 3 -92z m728 27 l0 -66 30 16
c33 17 60 13 85 -11 11 -12 15 -40 15 -120 l0 -104 -30 0 -29 0 -3 92 c-3 83
-5 93 -22 96 -33 7 -46 -25 -46 -110 l0 -78 -30 0 -30 0 0 175 0 175 30 0 30
0 0 -65z m530 4 c0 -58 1 -60 23 -53 76 26 107 -8 107 -118 0 -71 -2 -81 -26
-105 -20 -20 -31 -24 -52 -18 -15 4 -46 6 -69 5 l-43 -1 0 176 0 175 30 0 30
0 0 -61z m-1480 -9 c0 -38 2 -40 30 -40 25 0 30 -4 30 -25 0 -21 -5 -25 -30
-25 l-31 0 3 -67 c3 -66 4 -68 31 -71 21 -3 27 -8 23 -19 -3 -8 -6 -19 -6 -24
0 -16 -73 -10 -92 8 -14 13 -18 31 -18 90 0 66 -2 75 -20 80 -13 3 -20 14 -20
29 0 17 6 24 20 24 17 0 20 7 20 40 0 38 2 40 30 40 28 0 30 -2 30 -40z
m-2096 -61 c24 -23 34 -121 17 -172 -15 -44 -59 -66 -97 -48 -14 6 -27 11 -29
11 -3 0 -5 -30 -5 -66 l0 -65 -27 3 -28 3 -3 179 -2 179 37 -5 c21 -3 47 -2
58 3 26 10 55 2 79 -22z m402 21 c8 0 23 -9 34 -20 17 -17 20 -33 20 -121 l0
-101 -32 3 c-18 1 -48 -1 -66 -5 -50 -12 -82 13 -82 64 0 44 20 64 83 81 28 7
37 15 35 27 -5 26 -48 28 -55 3 -6 -25 -51 -29 -60 -5 -13 34 56 90 95 78 8
-2 20 -4 28 -4z m290 0 c39 -15 53 -39 54 -87 l0 -43 -61 0 c-60 0 -60 0 -57
-27 3 -32 44 -46 54 -19 4 10 18 16 35 16 35 0 39 -25 10 -61 -27 -34 -99 -34
-135 0 -23 22 -26 32 -26 96 0 79 20 120 63 128 12 2 25 5 29 6 4 0 19 -4 34
-9z m201 -1 c32 -12 43 -26 43 -56 0 -31 -45 -33 -53 -3 -7 26 -47 27 -47 1 0
-12 12 -23 33 -31 74 -30 97 -83 58 -131 -40 -50 -151 -22 -151 38 0 31 42 32
62 1 9 -14 20 -19 31 -15 31 12 18 37 -28 57 -75 32 -87 107 -22 135 39 17 39
17 74 4z m197 -3 c31 -13 53 -55 38 -71 -14 -14 -50 -3 -55 16 -4 13 -12 20
-24 17 -29 -5 -21 -32 15 -50 73 -36 92 -81 53 -129 -15 -19 -29 -24 -66 -24
-37 0 -51 5 -66 24 -29 36 -25 61 10 61 21 0 30 -6 34 -21 7 -25 40 -22 45 3
2 12 -11 24 -43 39 -74 35 -85 107 -21 135 39 17 40 17 80 0z m205 3 c17 -6
36 -19 41 -29 6 -10 10 -62 10 -115 l0 -97 -32 3 c-18 1 -48 -1 -66 -5 -50
-12 -82 13 -82 64 0 44 20 64 83 81 28 7 37 15 35 27 -5 25 -45 27 -58 3 -11
-22 -44 -28 -55 -10 -13 21 5 57 37 72 40 20 46 20 87 6z m319 -22 c16 -15 22
-32 22 -64 l0 -43 -61 0 c-60 0 -60 0 -57 -27 3 -32 44 -46 54 -19 9 23 64 21
64 -2 0 -69 -107 -94 -163 -37 -23 23 -24 151 -1 183 32 46 97 50 142 9z
m1000 -3 c18 -21 22 -36 22 -98 0 -58 -4 -76 -20 -94 -43 -45 -130 -36 -157
18 -16 32 -17 121 -1 156 26 56 112 66 156 18z m240 8 c8 -10 12 -52 12 -119
l0 -103 -30 0 -30 0 0 90 c0 99 -12 119 -50 85 -17 -15 -20 -31 -20 -97 l0
-78 -30 0 -30 0 0 120 0 120 29 0 c16 0 31 -5 33 -11 2 -6 14 -5 33 5 33 17
63 13 83 -12z m530 -8 c15 -17 22 -38 22 -65 l0 -39 -61 0 c-60 0 -60 0 -57
-27 3 -32 44 -46 54 -19 4 10 18 16 35 16 35 0 40 -29 9 -60 -27 -27 -63 -34
-105 -20 -46 15 -55 34 -55 123 0 64 3 76 23 94 12 11 29 23 37 26 28 11 75
-3 98 -29z m539 12 c7 -6 13 -53 15 -116 l3 -105 -32 -3 -33 -3 0 91 c0 72 -3
92 -15 96 -33 13 -45 -15 -45 -102 l0 -84 -35 0 -35 0 0 120 0 120 35 0 c19 0
35 -4 35 -9 0 -6 12 -3 28 4 28 15 58 12 79 -9z m221 -12 c19 -22 22 -36 22
-120 l0 -95 -42 1 c-24 1 -54 -1 -68 -5 -35 -9 -80 27 -80 64 0 39 19 60 70
75 33 10 46 19 48 35 4 28 -31 29 -51 0 -22 -30 -63 -23 -59 11 10 70 109 91
160 34z m391 25 c36 -13 61 -53 61 -99 l0 -30 -59 0 c-65 0 -73 -5 -64 -38 6
-26 53 -32 53 -7 0 11 11 15 36 15 32 0 35 -2 29 -22 -13 -43 -42 -63 -90 -63
-64 0 -87 27 -93 105 -5 75 11 118 52 136 38 16 36 16 75 3z m204 -3 c15 -8
27 -11 27 -5 0 5 14 9 30 9 l30 0 0 -149 c0 -134 -2 -151 -20 -174 -41 -52
-147 -44 -170 13 -7 16 -9 34 -5 39 10 18 44 12 57 -9 26 -41 78 -15 78 40 0
17 -3 19 -19 10 -36 -19 -78 -12 -100 16 -16 21 -21 41 -21 90 0 72 13 107 44
122 29 14 37 14 69 -2z m285 -22 c19 -22 22 -36 22 -120 l0 -95 -42 1 c-24 1
-54 -1 -68 -5 -34 -9 -80 27 -80 61 0 42 17 62 70 79 37 12 50 22 50 36 0 26
-36 25 -50 -1 -11 -20 -54 -28 -64 -12 -10 16 29 76 54 84 40 11 83 0 108 -28z
m-3048 -94 l0 -120 -35 0 -35 0 0 113 c0 63 3 117 7 120 3 4 19 7 35 7 l28 0
0 -120z m2280 63 c19 -91 25 -93 45 -14 17 70 18 71 50 71 l33 0 -24 -82 c-79
-281 -76 -273 -113 -276 -28 -3 -33 -1 -27 14 29 76 29 101 -4 209 -17 59 -34
113 -37 121 -4 10 4 14 29 14 34 0 35 -1 48 -57z m-3652 -3668 c2 -44 6 -277
9 -517 l5 -438 -85 0 c-62 0 -90 4 -100 15 -12 12 -14 72 -13 377 l1 363 40 6
40 6 -37 2 c-40 1 -54 21 -15 22 l22 0 -22 9 c-33 14 -28 30 10 31 l32 1 -34
10 c-25 7 -31 12 -22 21 15 15 14 27 -4 27 -12 0 -15 14 -15 63 0 37 5 68 12
75 9 9 39 12 93 10 l80 -3 3 -80z m-1026 -450 c4 -387 0 -495 -17 -495 -9 0
-26 11 -39 25 -14 14 -34 25 -50 25 l-26 0 0 323 c0 178 3 327 7 331 4 4 33 6
65 4 l58 -3 2 -210z m1595 -945 c-1 -43 -6 -83 -12 -87 -5 -5 -63 -7 -128 -5
l-118 4 3 71 3 72 33 3 c17 2 32 7 32 13 0 5 42 9 94 9 l95 0 -2 -80z m213
-84 c0 -91 -3 -166 -7 -168 -5 -2 -50 -2 -100 0 l-93 3 0 145 c0 81 5 154 10
165 9 17 22 19 100 19 l90 0 0 -164z m-228 -291 c-2 -71 -5 -142 -8 -156 l-5
-26 -124 -1 -125 -1 -6 26 c-7 27 4 271 12 285 3 5 63 7 132 6 l127 -3 -3
-130z m216 -96 c2 -25 -1 -57 -7 -71 -9 -24 -13 -25 -58 -21 -134 11 -131 10
-138 53 -8 47 0 77 23 83 9 3 53 4 97 4 l80 -2 3 -46z m4434 -618 c15 -14 19
-164 24 -866 2 -407 7 -745 9 -752 7 -20 -22 -23 -215 -23 -182 0 -190 1 -200
21 -14 25 -5 605 11 709 11 76 12 118 3 181 -5 39 -2 50 15 66 22 20 50 36 86
48 17 5 14 9 -21 24 -69 31 -103 112 -64 153 18 19 20 29 14 63 -8 37 -8 68
-4 200 1 28 -1 76 -5 107 l-7 58 33 15 c27 12 62 13 174 9 77 -4 143 -9 147
-13z m-5187 -69 c13 -9 13 -62 1 -81 -6 -10 -5 -16 2 -19 22 -7 12 -32 -15
-44 -20 -7 -204 -11 -600 -12 l-573 -2 0 76 c0 42 3 80 7 83 9 9 1165 9 1178
-1z m840 -111 c3 -5 8 -120 12 -255 5 -191 3 -249 -7 -261 -9 -11 -31 -15 -79
-15 -80 0 -146 19 -165 46 -16 23 -30 206 -27 354 3 134 9 140 152 140 59 0
110 -4 114 -9z m-827 -389 c2 -139 2 -142 -19 -142 -15 0 -19 -5 -15 -15 16
-43 -44 -63 -77 -25 -16 20 -16 20 23 20 22 0 40 4 40 10 0 6 -18 7 -45 3 -41
-5 -45 -4 -54 18 -5 13 -8 51 -7 84 2 33 3 88 4 122 l2 62 58 4 c31 2 64 3 72
3 12 -1 15 -25 18 -144z m3 -254 l1 -33 11 35 10 35 11 -50 c13 -61 6 -408 -8
-386 -5 8 -12 80 -16 160 -6 134 -7 121 -11 -146 l-4 -293 28 -6 c22 -5 26 -9
16 -20 -6 -7 -12 -35 -13 -61 l-1 -48 -613 -3 -612 -2 0 65 0 65 167 2 c96 2
204 -2 253 -9 106 -16 225 -16 326 -2 43 6 128 11 189 12 92 2 109 4 106 17
-2 8 -4 163 -3 344 1 227 5 333 13 342 8 9 34 14 80 14 l69 0 1 -32z m233 -83
c18 -14 20 -27 18 -140 -1 -160 -16 -189 -77 -149 -13 9 -28 13 -33 10 -27
-17 -62 233 -38 272 10 17 36 15 57 -4 16 -14 18 -14 29 5 13 25 18 25 44 6z
m3597 -82 c1 -43 2 -100 3 -128 l1 -50 -60 3 c-89 5 -114 43 -46 73 16 7 34
24 40 36 9 20 5 27 -29 59 -22 21 -40 40 -40 43 0 15 58 40 93 41 l37 0 1 -77z
m-2986 -165 c2 -7 6 -120 8 -251 l4 -237 -156 2 -156 3 2 210 c2 225 4 245 29
269 20 21 262 24 269 4z m2986 -220 c1 -2 4 -60 8 -131 l6 -127 -73 0 c-66 0
-72 2 -64 18 5 9 6 51 2 92 -4 41 -3 79 2 85 4 5 8 19 8 30 0 12 3 25 7 28 6
6 101 10 104 5z"/>
<path d="M6613 9773 c-20 -4 -23 -11 -23 -51 l0 -47 85 0 85 0 0 46 c0 40 -3
48 -22 53 -25 6 -90 6 -125 -1z"/>
<path d="M3186 6665 c-8 -8 -17 -23 -20 -33 -45 -154 -86 -303 -86 -314 1 -33
30 31 65 146 22 69 40 124 42 122 2 -2 8 -29 13 -61 11 -70 33 -105 63 -105
27 0 51 24 93 92 27 45 53 66 41 34 -3 -8 -9 -64 -13 -124 -5 -81 -4 -111 6
-117 22 -14 28 10 34 158 7 142 7 147 -13 147 -20 0 -41 -22 -106 -114 -22
-31 -43 -56 -47 -56 -14 0 -38 105 -38 166 0 67 -9 83 -34 59z"/>
<path d="M4038 6514 c-5 -4 -8 -47 -8 -96 l0 -88 43 0 c23 0 53 7 65 16 26 18
29 56 6 75 -9 7 -13 21 -10 34 3 12 0 29 -7 39 -13 18 -77 33 -89 20z"/>
<path d="M4184 6507 c-3 -8 -4 -49 -2 -93 2 -64 6 -79 20 -82 13 -2 17 5 20
35 3 35 5 38 33 38 27 0 30 -3 33 -37 3 -30 7 -38 23 -38 18 0 20 6 17 93 -2
74 -6 92 -18 92 -10 0 -17 -13 -20 -35 -4 -31 -9 -35 -37 -38 -32 -3 -33 -2
-33 37 0 30 -4 41 -15 41 -9 0 -18 -6 -21 -13z"/>
<path d="M4684 6507 c-3 -8 -4 -49 -2 -93 2 -64 6 -79 20 -82 13 -2 17 5 20
35 3 35 5 38 33 38 27 0 30 -3 33 -37 3 -30 7 -38 23 -38 18 0 20 6 17 93 -2
74 -6 92 -18 92 -10 0 -17 -13 -20 -35 -4 -31 -9 -35 -37 -38 -32 -3 -33 -2
-33 37 0 30 -4 41 -15 41 -9 0 -18 -6 -21 -13z"/>
<path d="M3499 6427 c-25 -16 -35 -31 -37 -54 -4 -45 20 -54 128 -51 l89 3 6
35 c10 60 17 65 60 36 30 -21 45 -25 76 -20 34 6 39 4 39 -13 0 -12 7 -26 15
-33 13 -11 15 -5 15 49 0 59 -16 84 -27 42 -5 -19 -30 -31 -65 -31 -9 0 -30
14 -46 31 -24 26 -32 29 -49 21 -14 -8 -23 -8 -30 -1 -12 12 -20 -7 -22 -55 0
-16 -4 -32 -7 -35 -3 -3 -38 -6 -77 -6 -70 0 -72 1 -72 25 0 21 5 26 32 28 34
3 59 25 48 42 -10 16 -40 12 -76 -13z"/>
<path d="M3357 6137 l-35 -76 -59 -6 -58 -7 0 -64 c0 -35 6 -69 12 -75 24 -24
55 -4 94 59 21 35 40 69 42 75 2 6 30 14 63 18 l59 6 -52 2 c-29 0 -53 4 -53
9 0 4 9 31 21 61 13 35 17 57 10 64 -6 6 -22 -18 -44 -66z"/>
<path d="M4015 6193 c-103 -12 -117 -15 -108 -24 7 -7 58 -7 150 1 104 9 160
9 222 0 140 -19 165 -46 91 -99 -51 -37 -194 -98 -250 -107 l-43 -7 7 74 c4
41 8 85 9 98 3 32 -18 38 -28 9 -4 -13 -9 -87 -12 -165 l-6 -143 -52 0 c-39 0
-56 -5 -70 -20 -17 -19 -16 -19 21 -14 22 3 52 7 67 9 16 3 38 0 49 -6 14 -8
23 -8 31 0 7 7 59 11 137 11 70 0 130 3 134 8 4 4 12 8 17 8 5 1 14 2 19 3 18
2 10 38 -14 62 -22 22 -79 45 -166 66 l-34 9 74 27 c79 29 166 82 175 106 10
25 -29 65 -81 83 -37 13 -80 17 -179 16 -71 -1 -143 -3 -160 -5z m250 -274
c62 -15 115 -41 115 -56 0 -25 -51 -34 -174 -31 l-121 3 -3 39 c-5 64 -1 67
75 60 38 -3 86 -10 108 -15z"/>
<path d="M4874 6108 c-5 -7 -13 -53 -19 -103 l-10 -90 -35 -3 c-39 -4 -80 -36
-80 -64 0 -14 -8 -18 -33 -18 -44 0 -70 28 -61 64 5 23 3 26 -19 26 -14 0 -29
5 -32 10 -3 6 -20 10 -37 10 -41 0 -98 -56 -98 -98 0 -59 50 -66 110 -15 26
22 35 24 49 15 32 -24 67 -34 98 -28 18 2 35 0 38 -5 11 -17 46 -9 71 16 l24
25 21 -21 c18 -18 29 -20 70 -15 38 5 53 3 65 -9 23 -23 50 -18 90 17 30 26
39 30 52 20 33 -24 67 -33 99 -27 17 3 34 1 38 -5 8 -13 65 -13 85 0 11 7 8
10 -16 10 -51 0 -55 13 -44 146 12 151 12 144 -4 144 -16 0 -24 -41 -33 -177
l-6 -103 -30 0 c-45 0 -67 24 -60 67 6 32 4 35 -12 25 -14 -7 -22 -6 -33 4
-33 34 -112 -2 -133 -60 -12 -32 -17 -36 -50 -36 -58 0 -62 11 -50 152 9 116
4 157 -15 126z"/>
<path d="M4835 5480 c-10 -16 11 -19 150 -22 112 -3 137 -7 184 -27 158 -72
62 -241 -167 -292 -28 -7 -54 -10 -57 -7 -3 3 -1 65 4 139 8 132 4 166 -21
141 -17 -17 -27 -296 -12 -324 9 -17 13 -19 20 -6 5 8 40 20 78 27 91 16 182
59 229 108 30 31 39 50 43 89 6 47 4 53 -26 88 -40 45 -81 63 -180 82 -88 16
-236 18 -245 4z"/>
</g>
</svg>
