<?xml version="1.0" standalone="no"?>
<!DOCTYPE svg PUBLIC "-//W3C//DTD SVG 20010904//EN"
 "http://www.w3.org/TR/2001/REC-SVG-20010904/DTD/svg10.dtd">
<svg version="1.0" xmlns="http://www.w3.org/2000/svg"
 width="720.000000pt" height="1280.000000pt" viewBox="0 0 720.000000 1280.000000"
 preserveAspectRatio="xMidYMid meet">
<metadata>
Created by potrace 1.16, written by Peter Selinger 2001-2019
</metadata>
<g transform="translate(0.000000,1280.000000) scale(0.100000,-0.100000)"
fill="#000000" stroke="none">
<path d="M0 6400 l0 -6400 3600 0 3600 0 0 1025 0 1025 -1362 2 c-750 2 -1391
3 -1425 3 -81 0 -97 15 -58 55 24 25 36 30 76 30 26 0 51 -4 54 -10 3 -5 21
-10 38 -10 29 0 35 5 54 48 40 88 44 111 24 122 -10 5 -21 7 -24 3 -4 -3 -18
2 -31 11 -14 9 -37 16 -52 16 -14 0 -39 9 -55 21 -52 37 -32 95 43 122 20 7
21 54 1 61 -6 3 -27 1 -45 -5 -18 -5 -66 -9 -106 -9 -67 0 -76 -2 -101 -28
-19 -19 -33 -49 -45 -99 -10 -39 -25 -78 -34 -86 -37 -33 -156 -107 -171 -107
-10 0 -32 11 -51 25 -50 37 -92 34 -125 -9 -14 -19 -40 -44 -58 -56 -18 -12
-45 -40 -60 -61 l-28 -39 -91 0 c-89 0 -90 0 -84 23 19 65 17 82 -13 130 -31
48 -31 49 -29 172 3 159 7 165 113 169 66 2 79 6 103 29 16 15 38 27 50 27 44
0 37 64 -13 117 -28 29 -117 41 -150 19 -15 -10 -46 -16 -82 -16 -55 0 -59 2
-105 47 -47 46 -50 48 -123 54 -60 4 -80 11 -100 29 -18 17 -28 20 -38 12 -8
-7 -60 -11 -129 -11 -97 0 -120 3 -139 17 -27 23 -28 59 -2 109 19 36 23 38
64 36 125 -5 195 -27 223 -72 7 -11 15 2 30 49 19 58 26 66 66 87 25 12 61 23
80 23 30 0 43 -9 91 -60 31 -33 64 -60 74 -60 22 0 81 18 115 35 14 7 39 16
56 19 20 5 58 32 99 71 36 35 74 65 83 67 11 2 16 15 18 46 2 37 0 42 -19 42
-28 0 -36 6 -76 58 l-33 42 -138 0 -137 0 -31 36 c-32 38 -39 38 -104 11 -25
-11 -35 -28 -69 -115 -5 -12 -17 -25 -26 -28 -10 -3 -45 -19 -77 -35 -43 -21
-73 -29 -112 -29 l-53 0 -11 -42 c-6 -24 -13 -48 -15 -55 -4 -13 -45 -6 -45 8
0 12 -91 11 -109 0 -22 -14 -60 9 -82 48 -29 55 -55 82 -73 75 -9 -3 -16 -12
-16 -20 0 -8 -6 -14 -12 -14 -30 -1 -133 -61 -178 -104 -62 -60 -69 -89 -40
-185 24 -79 22 -102 -15 -157 -45 -66 -58 -150 -27 -176 9 -9 48 -19 86 -23
80 -8 104 -17 128 -50 26 -35 11 -140 -23 -166 -25 -19 -94 -25 -117 -10 -16
10 -42 58 -42 76 0 8 -17 27 -37 44 -29 24 -47 31 -80 31 l-43 0 -62 127 c-66
133 -69 136 -160 168 -26 9 -68 32 -93 52 l-47 36 6 51 c14 122 17 129 76 196
31 36 65 78 75 93 10 15 37 36 60 47 51 23 62 53 41 105 -12 27 -27 40 -69 60
-60 27 -67 37 -67 97 l0 41 -50 -6 c-46 -6 -53 -3 -85 25 -40 35 -74 33 -90
-4 -8 -19 -20 -24 -66 -28 -31 -3 -63 -11 -72 -19 -23 -18 -21 -73 3 -121 20
-38 19 -87 -1 -100 -4 -3 -18 -25 -31 -50 -22 -43 -25 -45 -73 -48 -36 -2 -54
-8 -62 -21 -15 -25 -19 -179 -4 -214 6 -16 11 -50 11 -77 0 -42 4 -52 26 -67
14 -10 45 -34 68 -54 107 -93 141 -100 132 -27 -15 114 30 149 103 82 35 -31
41 -42 41 -76 0 -42 -6 -50 -102 -134 -123 -108 -117 -186 18 -233 38 -13 80
-34 94 -46 14 -12 50 -34 81 -47 35 -16 65 -38 79 -59 14 -19 32 -40 42 -47
10 -7 18 -24 18 -36 0 -24 -21 -36 -68 -36 -13 0 -36 -10 -52 -21 -32 -24
-128 -39 -139 -22 -8 14 -96 43 -129 43 -41 0 -57 16 -102 105 -22 44 -52 96
-66 115 -18 25 -25 46 -24 80 1 58 -1 69 -25 104 -47 67 -63 78 -108 73 -66
-7 -130 -35 -156 -69 -13 -16 -52 -43 -86 -59 -59 -27 -82 -53 -91 -104 -13
-68 -30 -115 -50 -136 -24 -25 -31 -27 -129 -28 -86 -2 -109 1 -142 19 -37 19
-42 19 -76 5 -20 -8 -56 -15 -81 -15 -50 0 -76 -7 -76 -22 0 -6 -15 -27 -33
-48 -17 -20 -37 -45 -43 -56 -10 -17 -26 -19 -178 -22 l-166 -4 0 84 c0 52 5
90 13 100 36 47 275 141 336 133 27 -4 42 0 59 14 21 18 24 31 29 133 3 62 10
125 16 140 16 38 78 66 106 49 9 -6 24 -5 38 2 20 9 23 17 23 68 0 65 5 69 81
69 27 0 49 3 50 8 1 13 7 36 18 67 23 71 32 134 22 153 -6 11 -7 22 -4 26 12
12 59 6 82 -10 29 -21 110 -14 123 10 5 9 22 16 37 16 16 0 34 7 41 15 7 8 24
15 39 15 25 0 91 51 91 70 0 5 -10 21 -23 37 -33 41 -45 71 -51 133 -5 46 -11
60 -40 87 -38 36 -58 39 -134 21 -42 -9 -61 -22 -118 -80 -65 -67 -70 -70
-103 -63 -112 20 -105 21 -181 -35 -68 -50 -74 -53 -130 -51 -79 2 -119 24
-149 84 -21 43 -26 47 -60 47 -20 0 -41 -4 -46 -9 -31 -30 -149 -5 -159 33 -3
12 -6 1329 -6 2929 l0 2907 3590 0 3590 0 0 1775 0 1775 -3600 0 -3600 0 0
-6400z m6730 3699 c64 -14 102 -34 140 -71 94 -96 103 -243 21 -353 -25 -34
-27 -41 -14 -50 13 -10 13 -15 2 -33 -26 -42 -91 -54 -143 -27 -24 13 -38 13
-90 3 -108 -20 -145 -17 -172 17 -22 28 -23 31 -7 42 15 12 15 15 -5 35 -55
60 -78 178 -50 269 23 77 103 146 195 168 51 12 70 12 123 0z m-563 -22 c112
-59 170 -203 129 -320 -41 -113 -135 -177 -261 -177 -176 0 -294 136 -267 306
16 95 64 156 157 197 52 22 194 19 242 -6z m-5858 -104 c15 -56 71 -300 71
-307 0 -3 -16 -6 -35 -6 -30 0 -35 3 -35 24 0 31 -13 39 -59 39 -31 0 -36 -3
-43 -31 -8 -28 -13 -32 -42 -32 l-34 0 14 58 c7 31 25 110 40 175 l28 117 42
0 c41 0 44 -2 53 -37z m401 -55 l1 -93 30 38 c23 27 39 37 60 37 16 0 29 -3
29 -6 0 -4 -16 -27 -35 -53 l-34 -47 21 -35 c11 -19 29 -49 40 -66 l20 -33
-36 0 c-30 0 -38 5 -57 40 -26 45 -39 43 -39 -6 0 -31 -2 -34 -30 -34 l-30 0
0 175 0 175 30 0 30 0 0 -92z m1740 -83 l0 -176 -42 1 c-24 1 -55 -1 -69 -5
-19 -5 -33 -1 -55 18 -28 24 -29 29 -28 107 1 68 4 85 21 102 22 21 54 27 91
14 21 -7 22 -5 22 53 l0 61 30 0 30 0 0 -175z m452 83 l3 -92 25 37 c20 30 31
37 58 37 30 0 42 -12 24 -24 -5 -3 -21 -23 -36 -44 l-27 -40 41 -66 41 -67
-38 3 c-32 3 -41 9 -58 40 -26 49 -35 48 -35 -2 0 -39 -1 -40 -35 -40 l-35 0
0 175 0 175 35 0 34 0 3 -92z m728 27 l0 -66 30 16 c33 17 60 13 85 -11 11
-12 15 -40 15 -120 l0 -104 -30 0 -30 0 0 90 c0 75 -3 92 -16 97 -37 14 -49
-10 -52 -101 l-3 -86 -29 0 -30 0 0 175 0 175 30 0 30 0 0 -65z m530 4 c0 -58
1 -60 23 -53 76 26 107 -8 107 -118 0 -71 -2 -81 -26 -105 -20 -20 -31 -24
-52 -18 -15 4 -46 6 -69 5 l-43 -1 0 176 0 175 30 0 30 0 0 -61z m-1480 -9 c0
-38 2 -40 30 -40 25 0 30 -4 30 -25 0 -21 -5 -25 -30 -25 l-31 0 3 -67 c3 -66
4 -68 31 -71 21 -3 27 -8 23 -19 -3 -8 -6 -19 -6 -24 0 -16 -73 -10 -92 8 -14
13 -18 31 -18 90 0 66 -2 75 -20 80 -13 3 -20 14 -20 29 0 17 6 24 20 24 17 0
20 7 20 40 0 38 2 40 30 40 28 0 30 -2 30 -40z m-2095 -61 c17 -16 20 -33 20
-100 0 -77 -1 -82 -29 -106 -28 -24 -47 -26 -88 -8 -16 6 -18 0 -18 -59 l0
-66 -30 0 -30 0 0 181 0 182 38 -5 c20 -3 46 -2 57 3 26 10 55 2 80 -22z m438
-1 c14 -16 17 -39 17 -120 l0 -100 -32 3 c-18 1 -48 -1 -66 -5 -50 -12 -82 13
-82 64 0 44 20 64 83 81 28 7 37 15 35 27 -5 26 -48 28 -55 3 -6 -25 -51 -29
-60 -5 -8 21 27 67 58 75 36 11 82 0 102 -23z m253 22 c39 -15 53 -39 54 -87
l0 -43 -61 0 c-60 0 -60 0 -57 -27 3 -32 44 -46 54 -19 9 23 64 21 64 -2 0
-51 -67 -84 -124 -62 -45 17 -55 38 -56 116 0 78 20 119 63 127 12 2 25 5 29
6 4 0 19 -4 34 -9z m201 -1 c32 -12 43 -26 43 -56 0 -31 -45 -33 -53 -3 -7 26
-47 27 -47 1 0 -12 12 -23 33 -31 74 -30 97 -83 58 -131 -40 -50 -151 -22
-151 38 0 19 5 23 30 23 24 0 30 -4 30 -21 0 -15 5 -20 22 -17 41 6 32 33 -19
59 -91 46 -80 134 19 148 4 1 19 -4 35 -10z m197 -3 c31 -13 53 -55 38 -71
-14 -14 -50 -3 -55 16 -4 13 -12 20 -24 17 -29 -5 -21 -32 15 -50 73 -36 92
-81 53 -129 -15 -19 -29 -24 -66 -24 -37 0 -51 5 -66 24 -29 36 -25 61 10 61
21 0 30 -6 34 -21 7 -25 40 -22 45 3 2 12 -11 24 -43 39 -74 35 -85 107 -21
135 39 17 40 17 80 0z m205 3 c17 -6 36 -19 41 -29 6 -10 10 -62 10 -115 l0
-96 -37 1 c-21 1 -50 -2 -65 -6 -45 -10 -78 18 -78 66 0 44 20 64 83 81 28 7
37 15 35 27 -5 25 -45 27 -58 3 -6 -13 -21 -21 -35 -21 -62 0 -3 95 61 99 6 1
25 -4 43 -10z m318 -21 c17 -16 23 -33 23 -65 l0 -43 -61 0 c-60 0 -60 0 -57
-27 3 -32 44 -46 54 -19 8 20 64 22 64 2 0 -69 -102 -98 -158 -45 -19 17 -22
31 -22 98 0 68 3 80 23 98 12 11 29 23 37 26 25 10 73 -2 97 -25z m1001 -4
c18 -21 22 -36 22 -98 0 -77 -15 -107 -61 -121 -31 -10 -84 3 -105 26 -23 26
-31 127 -13 170 24 60 111 73 157 23z m240 8 c8 -10 12 -52 12 -119 l0 -103
-30 0 -30 0 0 90 c0 75 -3 92 -17 97 -32 12 -53 -32 -53 -113 l0 -74 -30 0
-30 0 0 120 0 120 29 0 c16 0 31 -5 33 -11 2 -6 14 -5 33 5 33 17 63 13 83
-12z m529 -4 c17 -16 23 -33 23 -65 l0 -43 -61 0 c-60 0 -60 0 -57 -27 3 -32
44 -46 54 -19 4 10 18 16 35 16 22 0 29 -5 29 -20 0 -42 -64 -79 -115 -66 -52
13 -65 39 -65 124 0 69 3 81 23 99 12 11 29 23 37 26 25 10 73 -2 97 -25z
m539 8 c7 -6 15 -59 19 -118 l7 -108 -36 0 -36 0 0 90 c0 72 -3 92 -15 96 -33
13 -45 -15 -45 -102 l0 -84 -35 0 -35 0 0 120 0 120 35 0 c19 0 35 -4 35 -9 0
-6 12 -3 28 4 28 15 58 12 78 -9z m219 -7 c17 -16 21 -36 23 -120 l4 -100 -44
1 c-23 1 -54 -1 -68 -5 -35 -9 -80 27 -80 64 0 39 19 60 70 75 33 10 46 19 48
35 3 17 -2 21 -22 21 -16 0 -27 -7 -31 -20 -4 -12 -15 -20 -29 -20 -32 0 -36
7 -24 42 20 56 108 72 153 27z m394 20 c36 -13 61 -53 61 -99 l0 -30 -59 0
c-65 0 -73 -5 -64 -38 6 -26 53 -32 53 -7 0 11 11 15 36 15 32 0 35 -2 29 -22
-4 -13 -18 -34 -33 -47 -21 -19 -33 -22 -65 -18 -59 8 -80 35 -85 107 -5 75
11 118 52 136 38 16 36 16 75 3z m204 -3 c15 -8 27 -11 27 -5 0 5 14 9 31 9
l30 0 -3 -155 c-3 -145 -4 -156 -26 -177 -17 -18 -34 -23 -73 -23 -43 0 -54 4
-75 29 -14 15 -24 36 -22 45 5 25 45 26 60 2 26 -42 78 -16 78 39 0 17 -3 19
-19 10 -36 -19 -78 -12 -100 16 -17 21 -21 41 -21 93 0 92 16 118 80 130 3 0
17 -6 33 -13z m282 -17 c17 -16 21 -35 23 -120 l4 -100 -44 1 c-23 1 -54 -1
-68 -5 -35 -9 -80 27 -80 64 0 39 19 60 70 75 33 10 46 19 48 35 4 28 -33 29
-50 1 -12 -19 -48 -27 -60 -14 -15 14 11 60 43 77 40 20 84 15 114 -14z
m-3045 -100 l0 -120 -32 3 -33 3 -3 104 c-1 58 0 111 2 118 3 7 19 13 36 13
l30 0 0 -121z m2280 64 c19 -91 25 -93 45 -14 17 70 17 71 51 71 22 0 32 -4
29 -12 -3 -7 -25 -84 -50 -171 -24 -87 -47 -162 -50 -168 -4 -5 -20 -9 -37 -9
-24 0 -29 3 -24 16 28 74 28 99 -3 207 -18 59 -34 113 -37 122 -5 12 2 15 28
15 34 0 35 -1 48 -57z m-4598 -6887 c3 2 10 -13 17 -35 21 -72 -14 -115 -102
-126 -47 -6 -55 -4 -62 12 -22 50 20 157 69 179 29 12 33 11 52 -11 12 -13 24
-22 26 -19z m2911 -450 c15 -19 27 -40 27 -47 0 -6 -16 -29 -35 -50 -20 -22
-35 -50 -35 -64 0 -13 -14 -53 -31 -89 -22 -45 -29 -73 -24 -88 19 -62 22 -98
9 -108 -7 -6 -38 -10 -70 -8 -77 4 -88 22 -47 73 l31 37 -34 51 c-34 52 -34
53 -31 152 l4 100 34 10 c19 6 44 16 56 23 12 6 30 12 40 12 10 0 27 7 37 15
29 22 38 19 69 -19z m-680 -340 c14 -13 29 -37 33 -53 3 -15 13 -33 20 -39 18
-15 -55 -24 -188 -24 l-98 0 4 29 c5 48 52 99 94 104 92 9 109 7 135 -17z"/>
<path d="M6613 9773 c-20 -4 -23 -11 -23 -51 l0 -47 85 0 85 0 0 46 c0 40 -3
48 -22 53 -25 6 -90 6 -125 -1z"/>
<path d="M4011 7445 c11 -19 18 -39 14 -45 -9 -15 -88 -12 -111 5 -23 18 -40
19 -27 3 6 -7 13 -26 17 -41 9 -38 49 -77 79 -77 24 0 24 0 -9 37 -19 20 -34
41 -34 45 0 5 23 8 52 6 l52 -3 17 -54 16 -53 12 30 c9 22 10 36 2 50 -6 12
-11 23 -11 26 0 3 34 6 75 6 l75 0 0 -33 c0 -18 5 -38 12 -45 17 -17 53 -15
75 6 10 9 13 13 7 9 -7 -5 -23 -7 -36 -5 -18 2 -24 10 -26 36 -3 31 -3 32 40
33 l43 2 -40 6 c-39 6 -40 7 -43 49 -3 34 -7 42 -18 38 -9 -3 -20 -6 -25 -6
-5 0 -4 -11 3 -24 20 -45 7 -54 -74 -51 -65 2 -74 5 -86 26 -7 13 -10 32 -8
42 3 14 -3 17 -30 17 l-33 0 20 -35z"/>
<path d="M3847 6979 c-21 -11 -35 -24 -32 -30 4 -5 11 -7 16 -4 5 4 9 1 9 -4
0 -6 -6 -11 -14 -11 -8 0 -17 -7 -20 -16 -3 -8 -10 -13 -15 -9 -6 3 -22 -10
-38 -30 -15 -19 -35 -35 -43 -35 -13 0 -13 -2 -1 -9 8 -5 11 -16 8 -25 -4 -9
-3 -16 2 -16 5 0 12 -10 15 -22 3 -13 22 -41 43 -63 20 -22 33 -32 30 -22 -4
9 -10 24 -13 32 -10 24 23 29 47 6 17 -16 26 -18 36 -10 7 6 13 18 13 25 0 8
5 14 10 14 6 0 10 7 10 15 0 8 5 15 11 15 5 0 8 4 5 9 -8 13 21 34 39 27 9 -3
15 -18 15 -39 0 -40 8 -51 27 -35 7 6 16 8 20 4 3 -3 14 8 24 24 17 28 19 59
6 122 -4 22 -74 78 -98 78 -10 0 -24 7 -33 15 -11 11 -17 12 -22 3 -4 -6 -2
-14 4 -16 14 -4 6 -22 -9 -22 -6 0 -7 5 -4 10 3 6 -1 10 -11 10 -13 0 -14 3
-4 15 16 19 13 19 -33 -6z"/>
<path d="M4974 6851 c3 -5 -6 -12 -22 -16 -15 -3 -35 -14 -44 -22 -10 -9 -18
-12 -18 -8 0 5 -11 -2 -25 -15 -14 -13 -25 -32 -25 -41 0 -10 -9 -23 -19 -29
-27 -14 -34 -13 -27 6 5 14 4 15 -8 5 -11 -9 -15 -9 -20 1 -3 7 -3 1 -1 -14
11 -62 16 -78 25 -78 5 0 7 14 3 32 l-6 31 21 -21 c12 -12 22 -26 22 -31 0 -5
18 -24 40 -41 36 -29 40 -36 38 -71 -1 -22 4 -45 11 -52 10 -10 11 -9 6 6 -4
9 -3 17 2 17 12 0 45 58 39 69 -7 11 32 46 41 37 4 -4 1 -16 -6 -28 -11 -18
-9 -23 21 -49 33 -28 55 -38 43 -19 -3 6 5 10 19 10 14 0 28 5 31 10 4 6 11 8
16 4 5 -3 7 -10 4 -15 -10 -16 27 -10 47 8 17 15 18 15 18 -5 0 -12 -9 -31
-20 -42 -14 -14 -16 -20 -7 -20 21 0 46 33 53 68 8 37 22 50 30 28 3 -9 10
-16 15 -16 5 0 3 13 -5 29 -16 30 -58 68 -116 104 -21 13 -44 41 -57 68 -23
49 -84 109 -109 109 -8 0 -13 -4 -10 -9z"/>
<path d="M4012 6639 c-13 -34 -19 -39 -48 -39 -18 0 -36 5 -39 10 -3 6 -12 10
-18 10 -7 0 -4 -7 6 -14 9 -7 17 -21 17 -32 0 -17 1 -17 14 2 24 33 32 5 9
-34 -19 -34 -25 -37 -73 -40 -50 -3 -53 -1 -97 43 -44 43 -47 45 -65 29 -10
-10 -18 -22 -18 -29 0 -7 -9 -20 -20 -30 -11 -10 -20 -24 -20 -30 0 -7 -9 -24
-20 -38 -12 -15 -20 -40 -20 -62 0 -43 -15 -39 -24 7 -6 32 -6 32 -22 10 -13
-18 -14 -43 -9 -145 4 -67 11 -137 15 -156 7 -27 5 -39 -12 -62 -12 -16 -27
-29 -34 -29 -23 0 -24 -33 -3 -104 12 -40 32 -83 47 -98 22 -24 33 -28 84 -28
32 0 58 4 58 8 0 4 9 8 19 9 14 1 23 -9 33 -35 6 -20 12 -40 13 -44 0 -3 3
-10 7 -14 8 -7 3 30 -6 44 -3 5 6 32 20 61 25 51 26 52 57 44 18 -4 67 -8 110
-8 l77 0 0 -36 c0 -39 -12 -49 -55 -49 -28 0 -45 -20 -18 -21 10 0 -5 -8 -34
-16 -43 -13 -50 -18 -39 -29 21 -20 69 -10 86 18 8 14 21 23 28 21 6 -3 12 0
12 6 0 6 19 12 43 12 23 1 34 3 25 6 -10 2 -21 17 -24 31 -3 15 -7 35 -9 45
-2 11 7 22 24 31 15 8 48 37 73 64 35 38 49 47 59 38 9 -8 10 -8 4 3 -5 8 -9
38 -10 67 -2 35 -9 62 -24 82 -11 17 -21 38 -21 49 0 12 5 9 18 -14 9 -17 27
-50 40 -72 12 -23 27 -41 32 -41 6 0 10 -8 10 -18 0 -19 49 -69 63 -64 4 1 10
-5 13 -13 9 -23 27 -18 62 18 29 30 31 34 17 54 -8 11 -12 23 -9 26 3 3 -11
27 -32 54 -20 26 -54 84 -75 129 -21 44 -45 87 -54 94 -8 7 -15 28 -15 50 0
40 -29 145 -62 222 -20 48 -33 57 -112 77 l-38 10 -16 -40z"/>
<path d="M5250 6319 c0 -3 13 -45 30 -94 16 -49 27 -98 24 -110 -4 -17 0 -24
14 -27 40 -11 44 -41 12 -91 -27 -43 -28 -47 -15 -84 8 -21 14 -45 15 -54 0
-23 -79 -137 -101 -144 -20 -7 -81 29 -119 69 -22 24 -23 30 -12 58 6 18 10
33 8 35 -2 3 -27 10 -56 18 -67 18 -97 38 -117 80 -11 24 -33 43 -74 65 l-57
30 -11 -31 c-15 -42 -14 -72 1 -63 7 4 8 3 4 -5 -4 -6 -12 -9 -17 -6 -13 9
-11 -39 3 -70 9 -19 8 -31 -1 -52 -8 -17 -9 -29 -3 -31 6 -2 6 -16 0 -40 -11
-42 -13 -75 -5 -97 6 -15 97 -65 120 -65 8 0 29 -7 47 -17 18 -9 47 -17 64
-18 17 0 37 -4 43 -8 7 -5 21 -3 31 2 10 5 29 12 43 14 56 9 132 45 126 60 -2
7 -7 23 -11 37 -5 21 -3 20 9 -5 8 -16 14 -27 15 -24 0 3 36 -2 81 -12 59 -13
81 -14 84 -6 2 7 9 37 15 67 7 30 26 96 42 147 l30 92 -20 28 c-45 64 -72 132
-72 183 0 48 -1 50 -27 50 -34 0 -79 23 -76 37 1 6 -13 28 -32 49 -19 22 -34
36 -35 33z"/>
<path d="M4019 5443 c0 -5 -2 -18 -3 -31 -2 -12 -13 -36 -25 -53 -18 -25 -20
-33 -11 -42 9 -8 11 -8 7 -1 -4 6 0 20 8 30 13 17 14 16 15 -23 0 -39 2 -43
24 -43 17 0 26 -7 30 -24 23 -90 146 -129 146 -47 0 31 -86 171 -103 170 -8 0
-8 -2 0 -6 20 -7 -2 -40 -31 -45 -43 -8 -53 5 -49 67 2 30 1 55 -2 55 -3 0 -5
-3 -6 -7z"/>
<path d="M4843 5443 c-17 -6 -17 -113 -1 -147 12 -27 41 -42 59 -30 23 14 38
71 32 123 -6 53 -11 59 -31 39 -8 -8 -12 -8 -12 -1 0 12 -29 22 -47 16z"/>
<path d="M3970 5024 c0 -4 7 -12 17 -19 14 -10 15 -18 5 -55 -9 -35 -8 -49 4
-72 8 -15 10 -28 6 -28 -5 0 -17 15 -26 33 -8 17 -16 26 -16 18 0 -21 47 -98
65 -105 45 -17 70 37 61 134 -9 96 -11 100 -47 87 -22 -9 -34 -9 -49 1 -11 7
-20 9 -20 6z"/>
<path d="M4991 4938 c-17 -50 -37 -67 -55 -43 -12 17 -14 17 -44 -5 -18 -13
-30 -26 -27 -28 2 -3 11 0 18 7 15 12 47 5 47 -9 0 -5 -15 -28 -33 -52 -22
-28 -41 -43 -55 -42 -18 0 -21 -3 -16 -19 5 -16 3 -19 -11 -13 -15 5 -16 4 -5
-9 33 -40 133 6 138 63 2 18 7 32 12 32 26 0 60 90 50 130 -6 24 -7 24 -19
-12z"/>
<path d="M2785 3750 c-27 -16 -70 -34 -94 -41 -51 -15 -75 -47 -92 -129 -10
-46 -9 -62 5 -101 9 -26 16 -58 16 -72 0 -13 3 -38 6 -55 6 -29 7 -30 38 -19
17 5 33 13 36 17 11 13 90 30 145 30 50 0 65 5 103 33 98 71 112 88 118 143 7
58 -12 106 -49 125 -12 7 -36 24 -53 38 -88 73 -102 75 -179 31z"/>
</g>
</svg>
