<?xml version="1.0" standalone="no"?>
<!DOCTYPE svg PUBLIC "-//W3C//DTD SVG 20010904//EN"
 "http://www.w3.org/TR/2001/REC-SVG-20010904/DTD/svg10.dtd">
<svg version="1.0" xmlns="http://www.w3.org/2000/svg"
 width="720.000000pt" height="1280.000000pt" viewBox="0 0 720.000000 1280.000000"
 preserveAspectRatio="xMidYMid meet">
<metadata>
Created by potrace 1.16, written by Peter Selinger 2001-2019
</metadata>
<g transform="translate(0.000000,1280.000000) scale(0.100000,-0.100000)"
fill="#000000" stroke="none">
<path d="M0 6400 l0 -6400 3600 0 3600 0 0 1025 0 1025 -1780 0 c-1565 0
-1780 2 -1780 15 0 16 -43 31 -60 20 -6 -4 -25 -1 -42 6 -27 11 -29 15 -23 48
19 111 19 110 -39 227 -31 61 -56 121 -56 134 0 12 14 38 31 58 27 30 30 41
26 74 -3 22 -12 47 -20 56 -27 30 -30 66 -9 93 l20 24 56 -19 c30 -10 68 -32
84 -47 15 -15 41 -31 56 -35 l28 -7 -7 55 c-6 49 -4 58 18 81 27 30 76 36 122
15 21 -9 32 -8 60 5 19 9 35 24 35 33 0 9 9 27 20 41 11 14 20 33 20 43 0 22
-31 50 -56 50 -23 0 -100 29 -131 50 -13 8 -23 24 -23 35 1 22 22 55 36 55 17
0 64 47 64 64 0 10 -4 15 -9 11 -5 -3 -12 -1 -16 5 -4 6 -10 8 -15 5 -4 -3
-54 -7 -109 -10 -56 -2 -106 -7 -112 -10 -16 -10 -47 -78 -54 -120 -10 -54
-32 -89 -69 -110 -17 -10 -49 -33 -72 -52 -51 -41 -71 -41 -119 -3 -59 47 -87
40 -137 -33 -9 -13 -33 -32 -52 -41 -19 -9 -38 -26 -42 -38 -4 -12 -13 -28
-20 -36 -8 -7 -14 -19 -14 -25 0 -18 -63 -65 -96 -72 -16 -4 -37 -9 -46 -11
-19 -6 -58 32 -58 56 0 9 9 33 20 55 27 53 26 64 -16 134 -34 57 -36 65 -30
114 10 71 10 107 2 138 -6 20 -2 33 16 53 20 23 34 28 98 34 54 5 85 14 107
30 17 12 34 22 38 22 13 0 34 34 34 55 0 11 -11 32 -24 48 -42 47 -105 60
-159 32 -16 -8 -55 -15 -88 -15 -59 0 -62 1 -110 50 -27 28 -57 50 -66 50 -73
2 -124 9 -136 19 -9 8 -60 11 -155 10 -168 -1 -191 7 -191 69 0 29 8 46 35 75
34 36 79 50 87 26 2 -6 31 -14 65 -18 33 -4 72 -15 87 -25 35 -23 62 -13 70
25 10 51 82 99 148 99 24 0 42 -9 63 -31 17 -16 41 -41 54 -55 31 -31 74 -31
143 1 29 14 63 25 75 25 13 0 42 22 75 55 29 31 68 65 86 76 23 15 32 28 32
47 0 28 -32 58 -50 47 -6 -4 -10 0 -10 7 0 8 -17 31 -38 51 l-38 37 -128 1
c-127 1 -128 1 -159 30 -42 41 -73 42 -123 4 -20 -15 -36 -40 -44 -68 -12 -40
-18 -45 -89 -79 -42 -20 -101 -40 -131 -43 -62 -8 -70 -15 -70 -65 0 -36 -23
-80 -41 -80 -5 0 -9 6 -9 14 0 29 -32 41 -108 41 l-75 0 -31 57 c-17 32 -36
60 -43 62 -6 3 -47 -15 -90 -40 -42 -24 -80 -44 -84 -44 -4 0 -30 -23 -58 -52
-64 -65 -72 -100 -43 -183 29 -81 28 -102 -13 -164 -37 -58 -53 -128 -37 -157
9 -17 26 -22 166 -53 54 -12 66 -32 66 -112 0 -63 -2 -69 -32 -94 -56 -47
-120 -22 -160 62 -26 56 -49 74 -100 80 -41 5 -88 35 -88 56 0 5 -18 51 -40
102 -35 78 -46 95 -79 113 -21 12 -45 22 -52 22 -19 0 -130 70 -151 95 -19 22
-23 60 -8 70 5 3 10 28 10 54 0 46 3 52 63 112 35 35 71 81 80 101 15 32 47
56 69 50 4 -1 16 10 28 25 16 20 19 34 14 57 -10 47 -24 63 -77 87 -55 26 -67
43 -67 95 l0 37 -50 -7 c-45 -6 -52 -4 -72 20 -13 14 -31 30 -41 35 -22 12
-57 2 -57 -15 0 -25 -36 -46 -81 -46 -75 -1 -95 -33 -64 -106 8 -19 14 -38 15
-42 0 -4 3 -15 6 -24 2 -9 -2 -31 -11 -50 -52 -109 -60 -116 -128 -117 -30 -1
-39 -6 -46 -24 -13 -35 -15 -186 -2 -232 6 -22 13 -56 16 -75 4 -26 14 -41 41
-60 20 -13 56 -43 79 -66 24 -23 57 -46 74 -52 l31 -11 -6 84 -7 84 27 7 c57
14 120 -27 131 -87 5 -29 2 -44 -17 -73 -12 -20 -27 -36 -32 -36 -12 0 -107
-88 -128 -120 -43 -62 -11 -117 92 -159 30 -13 62 -29 70 -37 8 -7 46 -27 83
-44 62 -29 113 -77 130 -120 4 -11 6 -12 6 -1 2 23 31 -8 31 -33 0 -19 -9 -24
-62 -35 -35 -7 -65 -16 -68 -19 -8 -11 -67 -42 -80 -42 -6 0 -36 11 -65 25
-30 13 -67 27 -82 30 -73 15 -113 28 -113 36 0 17 -3 24 -16 44 -8 11 -14 27
-14 37 0 10 -4 18 -9 18 -5 0 -12 9 -16 19 -3 11 -19 36 -35 57 -26 32 -30 44
-28 93 2 50 -2 63 -35 114 -50 78 -71 85 -159 51 -44 -17 -81 -39 -100 -60
-17 -18 -57 -45 -89 -60 -54 -25 -60 -31 -79 -81 -11 -30 -20 -66 -20 -80 0
-15 -10 -41 -22 -59 -22 -32 -22 -32 -135 -39 -62 -4 -119 -5 -128 -1 -13 5
-15 47 -15 323 0 175 4 323 8 330 4 6 28 13 52 15 l45 3 7 65 c8 84 23 169 31
177 4 3 26 -2 50 -11 52 -20 96 -21 122 -2 11 7 36 16 56 20 46 8 169 72 169
87 0 3 -12 24 -27 45 -30 44 -53 113 -53 157 0 20 -11 40 -34 63 -38 38 -67
42 -153 24 -42 -10 -52 -17 -81 -61 -46 -70 -126 -113 -147 -79 -3 6 -15 10
-26 10 -19 0 -19 33 -19 2585 l0 2585 3590 0 3590 0 0 1775 0 1775 -3600 0
-3600 0 0 -6400z m6730 3699 c64 -14 102 -34 140 -71 94 -96 103 -243 21 -353
-25 -34 -27 -41 -14 -50 13 -10 13 -15 2 -33 -26 -42 -91 -54 -143 -27 -24 13
-38 13 -90 3 -108 -20 -145 -17 -172 17 -22 28 -23 31 -7 42 15 12 15 15 -5
35 -55 60 -78 178 -50 269 23 77 103 146 195 168 51 12 70 12 123 0z m-563
-22 c112 -59 170 -203 129 -320 -41 -113 -135 -177 -261 -177 -176 0 -294 136
-267 306 16 95 64 156 157 197 52 22 194 19 242 -6z m-5858 -104 c15 -56 71
-300 71 -307 0 -3 -16 -6 -35 -6 -30 0 -35 3 -35 24 0 31 -13 39 -59 39 -31 0
-36 -3 -43 -31 -8 -28 -13 -32 -42 -32 l-34 0 14 58 c7 31 25 110 40 175 l28
117 42 0 c41 0 44 -2 53 -37z m401 -55 l1 -93 30 38 c23 27 39 37 60 37 16 0
29 -3 29 -6 0 -4 -16 -27 -35 -53 l-34 -47 21 -35 c11 -19 29 -49 40 -66 l20
-33 -36 0 c-30 0 -38 5 -57 40 -26 45 -39 43 -39 -6 0 -31 -2 -34 -30 -34
l-30 0 0 175 0 175 30 0 30 0 0 -92z m1740 -83 l0 -176 -42 1 c-24 1 -55 -1
-69 -5 -19 -5 -33 -1 -55 18 -28 24 -29 29 -28 107 1 68 4 85 21 102 22 21 54
27 91 14 21 -7 22 -5 22 53 l0 61 30 0 30 0 0 -175z m452 83 l3 -92 25 37 c20
30 31 37 58 37 30 0 42 -12 24 -24 -5 -3 -21 -23 -36 -44 l-27 -40 41 -66 41
-67 -38 3 c-32 3 -41 9 -58 40 -26 49 -35 48 -35 -2 0 -39 -1 -40 -35 -40
l-35 0 0 175 0 175 35 0 34 0 3 -92z m728 27 l0 -66 30 16 c33 17 60 13 85
-11 11 -12 15 -40 15 -120 l0 -104 -30 0 -30 0 0 90 c0 75 -3 92 -16 97 -37
14 -49 -10 -52 -101 l-3 -86 -29 0 -30 0 0 175 0 175 30 0 30 0 0 -65z m530 4
c0 -58 1 -60 23 -53 76 26 107 -8 107 -118 0 -71 -2 -81 -26 -105 -20 -20 -31
-24 -52 -18 -15 4 -46 6 -69 5 l-43 -1 0 176 0 175 30 0 30 0 0 -61z m-1480
-9 c0 -38 2 -40 30 -40 25 0 30 -4 30 -25 0 -21 -5 -25 -30 -25 l-31 0 3 -67
c3 -66 4 -68 31 -71 21 -3 27 -8 23 -19 -3 -8 -6 -19 -6 -24 0 -16 -73 -10
-92 8 -14 13 -18 31 -18 90 0 66 -2 75 -20 80 -13 3 -20 14 -20 29 0 17 6 24
20 24 17 0 20 7 20 40 0 38 2 40 30 40 28 0 30 -2 30 -40z m-2095 -61 c17 -16
20 -33 20 -100 0 -77 -1 -82 -29 -106 -28 -24 -47 -26 -88 -8 -16 6 -18 0 -18
-59 l0 -66 -30 0 -30 0 0 181 0 182 38 -5 c20 -3 46 -2 57 3 26 10 55 2 80
-22z m438 -1 c14 -16 17 -39 17 -120 l0 -100 -32 3 c-18 1 -48 -1 -66 -5 -50
-12 -82 13 -82 64 0 44 20 64 83 81 28 7 37 15 35 27 -5 26 -48 28 -55 3 -6
-25 -51 -29 -60 -5 -8 21 27 67 58 75 36 11 82 0 102 -23z m253 22 c39 -15 53
-39 54 -87 l0 -43 -61 0 c-60 0 -60 0 -57 -27 3 -32 44 -46 54 -19 9 23 64 21
64 -2 0 -51 -67 -84 -124 -62 -45 17 -55 38 -56 116 0 78 20 119 63 127 12 2
25 5 29 6 4 0 19 -4 34 -9z m201 -1 c32 -12 43 -26 43 -56 0 -31 -45 -33 -53
-3 -7 26 -47 27 -47 1 0 -12 12 -23 33 -31 74 -30 97 -83 58 -131 -40 -50
-151 -22 -151 38 0 19 5 23 30 23 24 0 30 -4 30 -21 0 -15 5 -20 22 -17 41 6
32 33 -19 59 -91 46 -80 134 19 148 4 1 19 -4 35 -10z m197 -3 c31 -13 53 -55
38 -71 -14 -14 -50 -3 -55 16 -4 13 -12 20 -24 17 -29 -5 -21 -32 15 -50 73
-36 92 -81 53 -129 -15 -19 -29 -24 -66 -24 -37 0 -51 5 -66 24 -29 36 -25 61
10 61 21 0 30 -6 34 -21 7 -25 40 -22 45 3 2 12 -11 24 -43 39 -74 35 -85 107
-21 135 39 17 40 17 80 0z m205 3 c17 -6 36 -19 41 -29 6 -10 10 -62 10 -115
l0 -96 -37 1 c-21 1 -50 -2 -65 -6 -45 -10 -78 18 -78 66 0 44 20 64 83 81 28
7 37 15 35 27 -5 25 -45 27 -58 3 -6 -13 -21 -21 -35 -21 -62 0 -3 95 61 99 6
1 25 -4 43 -10z m318 -21 c17 -16 23 -33 23 -65 l0 -43 -61 0 c-60 0 -60 0
-57 -27 3 -32 44 -46 54 -19 8 20 64 22 64 2 0 -69 -102 -98 -158 -45 -19 17
-22 31 -22 98 0 68 3 80 23 98 12 11 29 23 37 26 25 10 73 -2 97 -25z m1001
-4 c18 -21 22 -36 22 -98 0 -77 -15 -107 -61 -121 -31 -10 -84 3 -105 26 -23
26 -31 127 -13 170 24 60 111 73 157 23z m240 8 c8 -10 12 -52 12 -119 l0
-103 -30 0 -30 0 0 90 c0 75 -3 92 -17 97 -32 12 -53 -32 -53 -113 l0 -74 -30
0 -30 0 0 120 0 120 29 0 c16 0 31 -5 33 -11 2 -6 14 -5 33 5 33 17 63 13 83
-12z m529 -4 c17 -16 23 -33 23 -65 l0 -43 -61 0 c-60 0 -60 0 -57 -27 3 -32
44 -46 54 -19 4 10 18 16 35 16 22 0 29 -5 29 -20 0 -42 -64 -79 -115 -66 -52
13 -65 39 -65 124 0 69 3 81 23 99 12 11 29 23 37 26 25 10 73 -2 97 -25z
m539 8 c7 -6 15 -59 19 -118 l7 -108 -36 0 -36 0 0 90 c0 72 -3 92 -15 96 -33
13 -45 -15 -45 -102 l0 -84 -35 0 -35 0 0 120 0 120 35 0 c19 0 35 -4 35 -9 0
-6 12 -3 28 4 28 15 58 12 78 -9z m219 -7 c17 -16 21 -36 23 -120 l4 -100 -44
1 c-23 1 -54 -1 -68 -5 -35 -9 -80 27 -80 64 0 39 19 60 70 75 33 10 46 19 48
35 3 17 -2 21 -22 21 -16 0 -27 -7 -31 -20 -4 -12 -15 -20 -29 -20 -32 0 -36
7 -24 42 20 56 108 72 153 27z m394 20 c36 -13 61 -53 61 -99 l0 -30 -59 0
c-65 0 -73 -5 -64 -38 6 -26 53 -32 53 -7 0 11 11 15 36 15 32 0 35 -2 29 -22
-4 -13 -18 -34 -33 -47 -21 -19 -33 -22 -65 -18 -59 8 -80 35 -85 107 -5 75
11 118 52 136 38 16 36 16 75 3z m204 -3 c15 -8 27 -11 27 -5 0 5 14 9 31 9
l30 0 -3 -155 c-3 -145 -4 -156 -26 -177 -17 -18 -34 -23 -73 -23 -43 0 -54 4
-75 29 -14 15 -24 36 -22 45 5 25 45 26 60 2 26 -42 78 -16 78 39 0 17 -3 19
-19 10 -36 -19 -78 -12 -100 16 -17 21 -21 41 -21 93 0 92 16 118 80 130 3 0
17 -6 33 -13z m282 -17 c17 -16 21 -35 23 -120 l4 -100 -44 1 c-23 1 -54 -1
-68 -5 -35 -9 -80 27 -80 64 0 39 19 60 70 75 33 10 46 19 48 35 4 28 -33 29
-50 1 -12 -19 -48 -27 -60 -14 -15 14 11 60 43 77 40 20 84 15 114 -14z
m-3045 -100 l0 -120 -32 3 -33 3 -3 104 c-1 58 0 111 2 118 3 7 19 13 36 13
l30 0 0 -121z m2280 64 c19 -91 25 -93 45 -14 17 70 17 71 51 71 22 0 32 -4
29 -12 -3 -7 -25 -84 -50 -171 -24 -87 -47 -162 -50 -168 -4 -5 -20 -9 -37 -9
-24 0 -29 3 -24 16 28 74 28 99 -3 207 -18 59 -34 113 -37 122 -5 12 2 15 28
15 34 0 35 -1 48 -57z m-2338 -6620 c36 -35 35 -47 -7 -94 -19 -22 -35 -48
-35 -59 0 -11 -13 -50 -30 -87 -32 -71 -36 -93 -19 -124 12 -23 4 -89 -14
-113 -7 -10 -28 -17 -49 -18 -74 -3 -102 62 -52 121 28 34 25 47 -23 105 -22
26 -23 34 -17 100 4 49 3 80 -5 95 -17 32 2 51 50 51 22 0 39 4 39 9 0 11 76
39 109 40 14 1 37 -11 53 -26z m-699 -324 c28 -13 47 -48 47 -87 0 -16 5 -33
12 -40 14 -14 74 -16 82 -3 10 16 54 21 82 11 24 -10 25 -12 11 -28 -21 -24
-34 -81 -41 -184 l-6 -87 86 -42 c62 -30 84 -45 80 -56 -3 -8 -6 -19 -6 -23 0
-5 -38 -27 -84 -50 -80 -39 -86 -41 -149 -34 -62 6 -67 5 -111 -25 -25 -18
-46 -37 -46 -43 0 -22 -70 1 -125 42 -69 51 -141 84 -163 75 -9 -4 -39 -10
-67 -15 -89 -14 -115 15 -115 131 0 82 15 121 68 174 39 39 47 40 134 17 28
-7 40 -7 48 3 6 8 23 62 38 121 25 99 30 110 61 131 38 26 121 32 164 12z
m-817 -181 c35 -55 35 -100 0 -218 -22 -72 -34 -98 -51 -106 -58 -28 -86 39
-54 131 9 27 19 83 22 123 3 51 10 78 22 92 25 28 31 26 61 -22z m-407 -253
c13 -30 27 -57 32 -60 4 -3 30 2 57 10 27 9 67 15 88 13 39 -3 39 -3 42 -49 2
-37 -2 -50 -23 -73 -44 -48 -48 -70 -17 -101 14 -14 38 -33 53 -42 24 -14 27
-21 22 -52 -3 -20 -10 -40 -15 -46 -16 -18 -230 -19 -271 -1 -20 8 -73 20
-117 27 -44 6 -83 15 -86 20 -6 10 32 88 55 110 35 35 46 55 43 73 -6 28 8
104 21 119 18 20 37 55 37 70 0 7 5 18 12 25 25 25 44 12 67 -43z m2223 -35
c31 -17 58 -39 61 -50 11 -42 -69 -64 -141 -39 -20 7 -34 21 -41 41 -16 45
-14 58 12 68 36 14 50 12 109 -20z m-72 -150 c0 -5 6 -10 14 -10 9 0 16 -17
21 -49 6 -45 4 -53 -22 -86 -15 -19 -36 -38 -45 -41 -10 -3 -18 -9 -18 -14 0
-5 -7 -7 -15 -4 -8 4 -15 1 -15 -5 0 -6 -16 -11 -37 -11 -65 0 -124 65 -95
105 4 6 26 17 49 24 32 11 45 22 58 52 10 21 25 40 34 42 31 9 71 7 71 -3z"/>
<path d="M6613 9773 c-20 -4 -23 -11 -23 -51 l0 -47 85 0 85 0 0 46 c0 40 -3
48 -22 53 -25 6 -90 6 -125 -1z"/>
<path d="M3363 6983 c-35 -18 -43 -33 -18 -33 8 0 15 -4 15 -10 0 -5 -6 -10
-14 -10 -8 0 -16 -6 -18 -12 -3 -7 -13 -13 -23 -13 -27 0 -83 -91 -67 -107 7
-7 12 -18 12 -26 0 -15 70 -105 77 -98 2 2 -1 13 -9 25 -20 32 2 48 37 25 27
-18 28 -18 46 5 11 13 19 29 19 37 0 8 4 14 9 14 5 0 11 9 14 20 8 30 45 26
53 -5 3 -14 4 -31 1 -39 -7 -18 17 -28 32 -13 6 6 11 7 11 2 0 -5 11 6 24 24
35 47 23 138 -20 162 -14 7 -22 19 -19 26 2 8 1 12 -4 9 -5 -3 -28 1 -52 9
-29 11 -46 12 -53 5 -7 -7 -4 -10 10 -10 15 0 16 -2 5 -9 -17 -11 -46 13 -36
29 8 12 7 12 -32 -7z"/>
<path d="M4505 6843 c-82 -17 -144 -57 -145 -94 0 -9 -12 -21 -26 -28 -24 -10
-25 -10 -19 11 5 21 5 21 -6 4 -9 -15 -13 -16 -20 -5 -9 14 -8 4 6 -66 7 -35
24 -23 17 12 -5 28 -5 28 17 9 11 -11 21 -24 21 -29 0 -6 18 -26 41 -45 32
-28 40 -41 39 -66 -3 -49 -2 -50 34 -14 20 19 31 37 26 43 -10 12 12 45 29 45
15 0 14 -23 -1 -38 -9 -9 -5 -18 22 -41 25 -20 36 -25 38 -16 2 8 10 11 18 8
8 -3 14 1 14 9 0 8 7 23 16 34 15 18 15 18 11 -8 -3 -20 0 -25 11 -20 11 4 14
1 9 -11 -8 -21 7 -22 38 -1 24 16 25 15 25 -5 0 -11 -9 -30 -20 -41 -14 -14
-16 -20 -7 -20 21 0 46 33 53 68 8 37 22 50 30 28 3 -9 10 -16 15 -16 30 0
-52 100 -104 126 -42 22 -62 44 -81 88 -15 36 -59 87 -73 85 -4 -1 -17 -3 -28
-6z"/>
<path d="M3529 6640 c-11 -36 -15 -40 -45 -40 -18 0 -36 5 -39 10 -3 6 -12 10
-18 10 -7 0 -5 -5 5 -10 10 -6 15 -20 13 -37 l-3 -26 19 24 c22 29 35 20 19
-13 -24 -45 -42 -58 -81 -58 -53 0 -85 17 -119 63 l-28 39 -18 -29 c-9 -15
-25 -40 -35 -55 -11 -15 -19 -30 -19 -34 0 -4 -10 -18 -22 -31 -16 -17 -22
-36 -22 -63 2 -45 -11 -45 -21 1 -6 24 -9 28 -21 18 -18 -14 -19 -178 -3 -278
11 -65 10 -70 -11 -99 -13 -17 -27 -29 -31 -26 -19 11 -18 -41 0 -104 29 -95
59 -122 135 -122 31 0 55 4 52 8 -3 5 5 8 17 7 16 -1 27 -14 40 -46 10 -25 15
-32 12 -16 -4 18 3 46 17 78 l23 50 40 -8 c22 -4 71 -8 108 -8 63 0 68 -2 74
-24 7 -28 -4 -48 -37 -70 -14 -10 -21 -11 -16 -3 4 8 1 12 -9 12 -10 0 -15 -5
-12 -14 6 -14 -59 -40 -75 -30 -14 9 -9 -7 8 -23 13 -13 20 -14 35 -5 14 9 19
9 19 1 0 -7 9 0 21 15 11 14 27 26 35 26 8 0 14 5 14 10 0 6 17 10 37 10 33 0
35 1 19 13 -11 8 -19 28 -21 50 -2 32 3 39 35 61 21 14 55 45 75 71 49 59 52
108 10 178 -15 26 -25 50 -23 53 6 5 68 -93 68 -107 0 -5 9 -14 20 -21 11 -7
20 -20 20 -29 0 -15 51 -66 59 -60 2 1 8 -4 13 -13 13 -24 31 -20 65 17 29 29
30 34 17 51 -8 11 -14 26 -14 33 0 7 -15 34 -34 60 -19 27 -50 82 -69 124 -20
41 -43 81 -51 89 -10 7 -16 28 -16 51 0 42 -42 183 -71 241 -16 31 -27 39 -73
52 -73 22 -74 21 -87 -24z"/>
<path d="M4770 6326 c0 -2 14 -46 30 -96 17 -51 28 -96 25 -100 -3 -5 1 -11 7
-13 10 -4 10 -6 1 -6 -17 -1 -17 -21 0 -21 8 0 22 -9 32 -20 17 -19 17 -21
-12 -68 -27 -44 -29 -50 -17 -82 7 -19 13 -44 13 -56 1 -27 -76 -142 -100
-149 -12 -4 -34 5 -61 23 -78 54 -86 69 -63 124 5 13 -2 19 -37 28 -77 19
-106 37 -128 80 -16 31 -34 47 -79 70 l-59 29 -11 -31 c-15 -41 -14 -71 1 -62
7 4 8 3 4 -5 -4 -6 -12 -9 -17 -6 -12 8 -11 -25 2 -64 9 -25 9 -39 -1 -59 -7
-16 -8 -28 -2 -30 9 -3 1 -59 -11 -79 -4 -6 -2 -25 3 -44 8 -28 19 -38 62 -57
29 -12 58 -22 64 -22 6 0 26 -7 44 -17 18 -9 47 -17 64 -18 17 0 37 -4 43 -8
7 -5 21 -3 31 2 10 5 29 11 43 13 13 2 29 6 34 9 6 3 29 12 53 19 40 13 43 15
37 44 -3 17 -2 24 3 16 4 -8 14 -16 22 -16 8 -1 46 -8 83 -16 49 -11 70 -12
72 -4 2 6 8 34 14 61 7 28 25 93 42 146 l30 95 -46 82 c-36 67 -45 92 -45 132
0 44 -3 50 -20 50 -27 0 -95 29 -87 36 4 4 -8 26 -25 50 -29 41 -38 50 -38 40z"/>
<path d="M3530 5429 c0 -34 -6 -51 -26 -73 -24 -25 -25 -29 -11 -43 12 -12 15
-13 15 -2 -2 31 3 49 12 49 6 0 10 -18 10 -40 0 -34 3 -40 21 -40 13 0 25 -11
34 -32 36 -88 145 -120 145 -44 0 44 -84 175 -112 176 -5 0 -8 -5 -8 -11 0 -5
5 -7 10 -4 6 3 10 -1 10 -10 0 -11 -5 -15 -16 -11 -8 3 -13 2 -10 -3 9 -14
-23 -22 -43 -12 -13 7 -17 25 -19 72 -3 73 -12 94 -12 28z"/>
<path d="M4363 5443 c-17 -6 -17 -120 0 -153 16 -32 48 -37 72 -9 16 17 19 34
18 86 -2 70 -7 83 -25 65 -14 -14 -32 -16 -24 -3 7 10 -23 20 -41 14z"/>
<path d="M3498 5012 c22 -17 23 -22 13 -59 -8 -28 -8 -49 -1 -68 15 -38 12
-43 -10 -16 -31 37 -23 9 10 -37 38 -53 62 -55 89 -5 22 42 2 218 -22 194 -14
-14 -64 -14 -72 -1 -3 6 -12 10 -18 10 -7 0 -1 -9 11 -18z"/>
<path d="M4507 4929 c-18 -44 -36 -58 -49 -36 -8 14 -12 14 -43 -4 -19 -12
-35 -22 -35 -24 0 -2 14 -2 31 -1 44 2 45 -13 3 -63 -26 -29 -43 -41 -55 -38
-16 4 -18 1 -12 -21 6 -25 5 -26 -13 -12 -18 14 -18 14 -4 -4 34 -43 140 7
140 66 0 15 4 28 10 28 25 0 62 91 50 125 -6 18 -9 16 -23 -16z"/>
<path d="M2148 4486 c-18 -18 -64 -40 -113 -56 -60 -19 -72 -35 -86 -111 -10
-59 -10 -79 4 -138 10 -38 17 -76 17 -86 0 -32 19 -56 38 -46 63 34 114 51
153 51 80 0 114 17 221 109 25 22 28 31 28 87 l0 62 -52 43 c-29 23 -66 55
-81 71 -22 22 -37 28 -72 28 -24 0 -50 -6 -57 -14z"/>
</g>
</svg>
