<?xml version="1.0" standalone="no"?>
<!DOCTYPE svg PUBLIC "-//W3C//DTD SVG 20010904//EN"
 "http://www.w3.org/TR/2001/REC-SVG-20010904/DTD/svg10.dtd">
<svg version="1.0" xmlns="http://www.w3.org/2000/svg"
 width="720.000000pt" height="1280.000000pt" viewBox="0 0 720.000000 1280.000000"
 preserveAspectRatio="xMidYMid meet">
<metadata>
Created by potrace 1.16, written by Peter Selinger 2001-2019
</metadata>
<g transform="translate(0.000000,1280.000000) scale(0.100000,-0.100000)"
fill="#000000" stroke="none">
<path d="M0 6400 l0 -6400 3600 0 3600 0 0 6400 0 6400 -3600 0 -3600 0 0
-6400z m6796 3680 c151 -69 198 -267 95 -405 -25 -34 -27 -41 -14 -50 14 -10
14 -14 -1 -37 -26 -40 -88 -50 -140 -23 -24 13 -38 13 -90 3 -107 -20 -145
-17 -172 17 -21 27 -21 30 -6 41 16 11 15 14 -5 36 -56 60 -79 178 -51 269 23
77 102 146 195 169 50 12 138 3 189 -20z m-653 4 c29 -10 64 -34 92 -62 124
-125 89 -333 -68 -412 -134 -67 -310 -20 -371 98 -46 89 -41 199 13 284 41 65
129 108 221 108 36 0 87 -7 113 -16z m-5834 -111 c15 -56 71 -300 71 -307 0
-3 -16 -6 -35 -6 -30 0 -35 3 -35 24 0 34 -23 49 -64 42 -27 -5 -35 -12 -40
-36 -5 -26 -10 -30 -40 -30 l-34 0 14 58 c7 31 25 110 40 175 l28 117 42 0
c41 0 44 -2 53 -37z m403 -55 l3 -93 25 37 c20 31 31 38 58 38 17 0 32 -3 32
-6 0 -4 -16 -28 -35 -53 -30 -41 -33 -50 -21 -67 7 -10 25 -40 40 -66 l27 -48
-35 0 c-30 0 -38 5 -57 40 -26 45 -39 43 -39 -6 0 -31 -2 -34 -30 -34 l-30 0
0 175 0 175 30 0 29 0 3 -92z m1738 -83 l0 -176 -42 1 c-24 1 -55 -1 -69 -5
-19 -5 -33 -1 -55 18 -28 24 -29 29 -29 106 1 69 4 85 22 102 22 22 54 28 91
15 21 -7 22 -5 22 53 l0 61 30 0 30 0 0 -175z m452 83 l3 -92 25 37 c20 30 31
37 58 37 30 0 42 -12 24 -24 -5 -3 -21 -23 -36 -44 l-27 -40 40 -66 41 -66
-35 0 c-30 0 -39 6 -62 43 l-28 42 -3 -42 c-3 -42 -4 -43 -38 -43 l-34 0 0
175 0 175 35 0 34 0 3 -92z m728 27 l0 -66 30 16 c33 17 60 13 85 -11 11 -12
15 -40 15 -120 l0 -104 -30 0 -30 0 0 90 c0 75 -3 92 -16 97 -37 14 -49 -10
-52 -101 l-3 -86 -29 0 -30 0 0 175 0 175 30 0 30 0 0 -65z m530 4 c0 -58 1
-60 23 -53 76 26 107 -8 107 -118 0 -71 -2 -81 -26 -105 -20 -20 -31 -24 -52
-18 -15 4 -46 6 -69 5 l-43 -1 0 176 0 175 30 0 30 0 0 -61z m-1480 -9 c0 -38
2 -40 30 -40 25 0 30 -4 30 -25 0 -21 -5 -25 -30 -25 l-31 0 3 -67 c3 -66 4
-68 31 -71 21 -3 27 -8 23 -19 -3 -8 -6 -19 -6 -24 0 -16 -73 -10 -92 8 -14
13 -18 31 -18 90 0 66 -2 75 -20 80 -13 3 -20 14 -20 29 0 17 6 24 20 24 17 0
20 7 20 40 0 38 2 40 30 40 28 0 30 -2 30 -40z m-2096 -61 c24 -23 34 -121 17
-172 -15 -44 -59 -66 -97 -48 -14 6 -27 11 -29 11 -3 0 -5 -30 -5 -66 l0 -65
-27 3 -28 3 -3 179 -2 179 37 -5 c21 -3 47 -2 58 3 26 10 55 2 79 -22z m405
20 c17 -6 36 -19 41 -29 6 -10 10 -62 10 -115 l0 -97 -32 3 c-18 1 -48 -1 -66
-5 -50 -12 -82 13 -82 64 0 44 20 64 83 81 28 7 37 15 35 27 -5 26 -48 28 -55
3 -4 -14 -13 -21 -29 -21 -65 0 -15 96 52 99 6 1 25 -4 43 -10z m290 0 c38
-14 51 -35 51 -88 l0 -41 -61 0 c-60 0 -60 0 -57 -27 3 -32 44 -46 54 -19 4
10 18 16 35 16 35 0 39 -25 10 -61 -27 -34 -99 -34 -135 0 -23 22 -26 32 -26
96 0 79 20 120 63 128 12 2 25 5 28 6 3 0 20 -4 38 -10z m198 0 c32 -12 43
-26 43 -56 0 -31 -45 -33 -53 -2 -7 24 -40 23 -45 -2 -2 -10 9 -21 30 -29 75
-30 98 -83 59 -131 -40 -50 -151 -22 -151 38 0 18 5 23 26 23 18 0 28 -6 31
-21 7 -26 48 -23 48 4 0 12 -16 26 -45 40 -89 43 -75 132 22 146 4 1 19 -4 35
-10z m197 -3 c31 -13 53 -55 38 -71 -14 -14 -50 -3 -55 16 -4 13 -12 20 -24
17 -29 -5 -21 -32 15 -50 73 -36 92 -81 53 -129 -15 -19 -29 -24 -66 -24 -37
0 -51 5 -66 24 -29 36 -25 61 10 61 21 0 30 -6 34 -21 7 -25 40 -22 45 3 2 12
-11 24 -43 39 -74 35 -85 107 -21 135 39 17 40 17 80 0z m205 3 c17 -6 36 -19
41 -29 6 -10 10 -62 10 -115 l0 -97 -32 3 c-18 1 -48 -1 -66 -5 -50 -12 -82
13 -82 64 0 44 20 64 83 81 28 7 37 15 35 27 -5 25 -45 27 -58 3 -14 -27 -60
-29 -60 -3 0 36 46 79 86 81 6 1 25 -4 43 -10z m318 -21 c17 -16 23 -33 23
-65 l0 -43 -61 0 c-60 0 -60 0 -57 -27 3 -32 44 -46 54 -19 8 20 64 22 64 2 0
-69 -102 -98 -158 -45 -19 17 -22 31 -22 98 0 68 3 80 23 98 12 11 29 23 37
26 25 10 73 -2 97 -25z m1001 -4 c18 -21 22 -36 22 -98 0 -65 -3 -75 -26 -97
-35 -33 -104 -34 -136 -2 -27 28 -37 127 -17 174 24 60 111 73 157 23z m240 8
c8 -10 12 -52 12 -119 l0 -103 -30 0 -30 0 0 90 c0 75 -3 92 -17 97 -32 12
-53 -32 -53 -113 l0 -74 -30 0 -30 0 0 120 0 120 29 0 c16 0 31 -5 33 -11 2
-6 14 -5 33 5 33 17 63 13 83 -12z m529 -4 c17 -16 23 -33 23 -65 l0 -43 -61
0 c-60 0 -60 0 -57 -27 3 -32 44 -46 54 -19 4 10 18 16 35 16 22 0 29 -5 29
-20 0 -42 -64 -79 -115 -66 -52 13 -65 39 -65 124 0 69 3 81 23 99 12 11 29
23 37 26 25 10 73 -2 97 -25z m540 8 c7 -6 14 -56 17 -118 l6 -108 -35 0 -35
0 0 90 c0 72 -3 92 -15 96 -33 13 -45 -15 -45 -102 l0 -84 -35 0 -35 0 0 120
0 120 35 0 c19 0 35 -4 35 -9 0 -6 12 -3 28 4 28 15 58 12 79 -9z m218 -7 c17
-16 21 -36 23 -120 l4 -100 -44 1 c-23 1 -54 -1 -68 -5 -35 -9 -80 27 -80 64
0 39 19 60 70 75 33 10 46 19 48 35 4 28 -33 29 -50 1 -12 -19 -48 -27 -60
-14 -15 14 11 60 43 77 40 21 85 16 114 -14z m394 20 c36 -13 61 -53 61 -99
l0 -30 -59 0 c-65 0 -73 -5 -64 -38 6 -26 53 -32 53 -7 0 11 11 15 36 15 32 0
35 -2 29 -22 -4 -13 -18 -34 -33 -47 -21 -19 -33 -22 -65 -18 -59 8 -80 35
-85 107 -5 75 11 118 52 136 38 16 36 16 75 3z m204 -3 c15 -8 27 -11 27 -5 0
5 14 9 31 9 l30 0 -3 -155 c-3 -145 -4 -156 -26 -177 -17 -18 -34 -23 -73 -23
-43 0 -54 4 -75 29 -14 15 -24 36 -22 45 5 25 45 26 60 2 27 -43 78 -16 78 40
0 18 -3 20 -12 11 -7 -7 -29 -12 -49 -12 -55 0 -79 34 -79 114 0 85 8 106 44
122 39 17 36 17 69 0z m285 -22 c19 -22 22 -36 22 -120 l0 -95 -42 1 c-24 1
-55 -1 -70 -5 -21 -6 -32 -2 -52 18 -48 48 -29 99 44 121 33 10 46 19 48 35 4
28 -33 29 -50 1 -7 -11 -23 -20 -36 -20 -20 0 -23 4 -20 33 6 65 108 86 156
31z m-3048 -94 l0 -120 -35 0 -35 0 0 113 c0 63 3 117 7 120 3 4 19 7 35 7
l28 0 0 -120z m2280 63 c19 -90 25 -92 45 -14 18 69 20 71 51 71 l32 0 -24
-82 c-79 -281 -76 -273 -113 -276 -28 -3 -33 -1 -27 14 28 74 28 99 -3 207
-18 59 -34 113 -37 122 -5 12 2 15 28 15 34 0 35 -1 48 -57z m-130 -2158 l0
-985 -107 -1 c-60 0 -146 -1 -193 -2 l-85 -2 0 -30 0 -30 138 -3 c80 -1 137
-7 137 -12 0 -6 -27 -10 -60 -10 -33 0 -76 -6 -94 -14 -97 -40 -166 -155 -174
-287 -10 -173 77 -278 221 -266 34 3 72 8 85 12 l22 7 0 -551 0 -552 53 3 52
3 5 50 c5 48 6 49 20 27 10 -15 25 -22 46 -22 18 0 38 -8 49 -20 10 -11 24
-20 30 -20 8 0 10 -9 7 -25 -3 -17 1 -27 12 -31 12 -5 14 -10 6 -19 -8 -9 -1
-14 31 -18 46 -6 54 -11 44 -26 -8 -14 -60 -14 -86 -1 -16 9 -19 7 -19 -15 0
-14 4 -25 10 -25 5 0 7 -6 4 -13 -3 -8 11 -20 36 -31 22 -9 40 -24 40 -32 0
-8 9 -14 19 -14 25 0 36 -17 22 -34 -6 -7 -8 -16 -4 -19 3 -4 -21 -7 -55 -7
-52 0 -62 3 -62 18 -1 16 -1 16 -11 -1 -9 -15 -22 -18 -75 -15 l-64 3 0 138 0
139 -60 -4 -59 -4 -42 115 c-23 64 -48 131 -55 149 l-13 32 -100 0 c-90 0
-101 -2 -111 -20 -11 -20 -128 -338 -177 -477 l-25 -73 -69 0 -70 0 34 33 c50
51 57 89 57 326 l0 212 -87 -3 -88 -3 -5 -205 -5 -205 -27 -3 c-25 -3 -44 15
-47 43 0 6 -39 11 -86 13 l-85 3 0 -38 c1 -52 31 -114 71 -146 l34 -27 -150 0
c-134 1 -148 2 -130 15 50 37 96 92 105 124 5 20 10 124 11 231 l2 195 -89 0
-89 0 -3 -187 -2 -187 -27 -20 c-32 -26 -64 -27 -94 -2 -23 19 -24 23 -27 210
l-3 192 -87 -3 -87 -3 -3 -180 c-4 -237 13 -300 95 -358 l38 -27 -113 0 -113
0 3 -27 c2 -21 9 -29 28 -31 14 -2 36 -14 50 -27 14 -12 32 -25 40 -28 12 -4
11 -6 -5 -13 -11 -4 -25 -15 -32 -23 -10 -13 -7 -20 12 -38 13 -13 34 -23 46
-23 18 0 19 -2 9 -15 -18 -22 -39 -18 -49 9 -10 26 -33 38 -56 30 -20 -8 -18
-93 3 -101 8 -4 22 -1 31 5 13 10 42 25 135 70 4 3 5 -23 1 -57 -7 -63 5 -98
29 -84 6 4 5 -1 -3 -10 -22 -28 -60 -21 -95 18 -33 36 -55 45 -57 23 0 -10 -2
-10 -6 0 -5 13 -33 17 -33 4 0 -4 5 -13 11 -19 7 -7 7 -22 -2 -51 -14 -49 -5
-97 18 -88 11 5 13 2 8 -11 -34 -79 -37 -98 -25 -151 12 -56 43 -99 74 -104
26 -4 32 18 6 25 -23 6 -59 78 -60 119 0 36 19 77 39 82 9 3 40 8 69 11 50 7
74 25 31 25 -11 0 -17 5 -14 10 3 6 15 10 26 10 29 0 23 19 -8 27 -47 12 -91
8 -110 -9 -17 -16 -19 -15 -29 7 -9 18 -9 28 0 41 12 15 15 15 44 0 39 -20 65
-20 102 -1 16 8 36 12 44 9 13 -5 16 1 16 30 0 20 -4 36 -10 36 -5 0 -10 -4
-10 -10 0 -5 -5 -10 -11 -10 -6 0 -2 14 9 32 19 29 19 34 5 82 -12 41 -13 54
-2 71 7 11 14 33 16 49 1 16 4 31 6 32 8 8 140 16 171 10 35 -7 36 -7 20 -31
-25 -38 0 -38 35 0 39 43 61 45 61 6 0 -23 -11 -38 -49 -70 -53 -44 -67 -50
-57 -24 4 9 1 20 -6 25 -20 12 -28 10 -28 -9 0 -10 -16 -44 -37 -77 -20 -32
-36 -71 -35 -85 2 -37 20 -192 26 -217 8 -36 -20 -64 -64 -64 -29 0 -43 -6
-58 -25 -21 -26 -37 -20 -26 9 4 11 1 16 -10 16 -9 0 -16 -4 -16 -10 0 -25
-18 -7 -24 24 -4 18 -15 41 -26 51 -19 17 -20 17 -30 -9 -18 -49 33 -137 64
-106 18 18 27 11 20 -17 -6 -22 -4 -25 10 -20 20 8 22 -27 3 -99 -7 -28 -14
-72 -16 -99 -2 -52 -5 -60 -24 -60 -7 -1 -11 -7 -9 -14 2 -10 -5 -12 -24 -8
-34 6 -97 -15 -140 -48 -18 -14 -40 -25 -48 -25 -9 0 -30 -9 -48 -20 -18 -11
-63 -29 -99 -40 -37 -11 -78 -30 -93 -41 -26 -20 -28 -20 -46 -4 -11 10 -35
18 -55 19 -21 1 -35 6 -35 14 0 8 -18 13 -52 14 l-53 1 50 6 c48 6 50 7 49 35
-1 17 7 45 17 63 11 19 14 35 9 38 -6 4 -10 17 -10 30 0 13 -5 27 -11 31 -7 4
-8 19 -4 38 3 17 8 39 10 49 2 10 0 15 -6 11 -6 -4 -9 14 -7 47 4 68 24 75 73
26 19 -19 38 -31 41 -26 13 21 -54 69 -96 69 -15 0 -20 6 -20 26 l0 25 33 -25
c19 -15 42 -26 53 -25 18 0 18 1 -1 9 -11 4 -32 21 -47 36 -25 27 -26 36 -30
144 l-3 115 33 10 c17 5 32 13 32 17 0 10 -3 10 -34 -2 -24 -9 -47 2 -28 14 5
3 4 28 -2 56 -12 60 -2 76 34 55 14 -8 36 -20 50 -27 14 -7 28 -16 31 -21 12
-17 99 15 99 36 0 4 -9 2 -21 -6 -24 -17 -95 -12 -119 8 -8 7 -29 20 -46 28
-30 16 -31 18 -33 87 l-2 70 67 0 c56 0 69 -3 85 -22 l20 -23 -6 23 -7 24 119
-3 118 -3 3 32 3 31 -123 3 -123 3 1 43 c1 23 2 59 3 81 l1 38 73 5 c140 9
211 76 212 199 0 55 -4 72 -28 107 -40 62 -93 85 -204 90 l-93 4 0 389 0 389
35 0 35 0 0 -115 0 -115 40 0 40 0 0 114 0 115 47 3 c44 3 48 5 48 28 l0 25
-122 3 -123 3 0 129 0 130 -62 2 -63 2 63 3 62 4 0 139 0 140 141 0 140 0 -3
33 -3 32 -88 3 -89 3 4 352 c4 430 4 663 -1 1188 -2 224 -1 412 3 418 5 8 277
11 987 11 l979 0 0 -985z m-2080 815 l0 -160 -37 0 c-45 0 -110 -32 -137 -67
-24 -33 -31 -97 -16 -151 8 -34 31 -63 101 -133 l89 -90 0 -270 c0 -225 -2
-269 -14 -269 -8 0 -16 -4 -18 -9 -1 -6 -33 -40 -69 -78 -80 -82 -99 -117 -99
-181 0 -81 64 -149 150 -159 l51 -6 -3 -111 -3 -111 -540 -5 c-297 -3 -737 -4
-977 -2 l-438 2 0 133 c0 122 2 136 26 182 20 41 24 59 19 98 -5 47 -23 87
-37 87 -5 0 -8 89 -8 198 0 151 3 202 14 217 7 11 21 47 30 80 10 33 21 73 26
89 10 31 -3 167 -21 226 -6 19 -19 46 -28 60 -14 21 -16 66 -19 308 l-3 282
980 0 981 0 0 -160z m2414 152 c-6 -4 -14 -20 -18 -37 -4 -16 -9 -40 -13 -52
-3 -14 1 -29 11 -38 20 -20 20 -62 1 -108 -19 -46 -19 -71 1 -113 21 -43 12
-152 -15 -183 -18 -20 -18 -19 -24 52 -4 39 -7 161 -7 270 0 110 -2 203 -6
208 -3 5 14 9 38 9 24 0 38 -4 32 -8z m356 3 c0 -2 -13 -39 -28 -82 -32 -86
-49 -183 -33 -183 6 0 27 12 48 26 21 14 49 28 63 31 15 2 30 14 35 26 11 23
61 41 71 26 10 -17 -4 -39 -25 -39 -19 0 -111 -55 -111 -67 0 -3 19 -3 43 1
31 4 38 3 25 -4 -10 -6 -20 -26 -24 -45 -4 -21 -20 -49 -42 -69 l-35 -34 29
-26 c22 -19 25 -25 12 -26 -9 0 -20 5 -23 10 -3 6 -17 10 -31 10 -13 0 -24 -4
-24 -10 0 -5 11 -10 25 -10 14 0 25 -4 25 -10 0 -9 -122 -145 -145 -162 -5 -4
-6 -8 -2 -8 5 0 -1 -13 -13 -29 -11 -16 -19 -33 -18 -38 1 -4 -11 -28 -27 -52
-27 -40 -30 -52 -29 -120 1 -99 23 -151 118 -275 42 -54 5 -33 -54 31 -56 61
-80 117 -87 210 -7 82 -22 89 -46 20 -11 -33 -16 -38 -22 -25 -8 20 49 143
101 218 17 25 30 51 28 58 -1 7 0 8 3 2 8 -18 21 -11 25 15 4 19 2 23 -7 15
-24 -20 -24 4 0 32 14 16 25 40 25 54 0 13 4 24 10 24 5 0 13 18 16 40 4 22
11 43 15 46 9 5 13 64 5 64 -17 0 -83 -36 -97 -53 -9 -12 -20 -19 -24 -15 -12
12 15 52 68 100 l51 47 -12 48 c-16 66 -21 97 -29 171 l-6 62 77 0 c42 0 76
-2 76 -5z m1368 -142 c-1 -82 -4 -115 -5 -75 -2 39 -8 72 -13 72 -6 0 -10 -7
-10 -16 0 -9 -4 -14 -10 -12 -20 6 -99 73 -104 88 -8 23 -29 53 -50 72 -18 17
-15 18 87 18 l107 0 -2 -147z m-502 17 c4 -16 17 -36 30 -45 35 -23 34 -82 -1
-95 -35 -13 -85 -51 -85 -65 0 -6 -13 -25 -30 -43 -43 -48 -40 -72 33 -266
l30 -80 -22 -17 c-12 -10 -37 -21 -55 -25 -18 -3 -45 -16 -59 -29 -24 -23
-130 -55 -181 -55 -12 0 -41 9 -64 20 -22 11 -48 20 -57 20 -16 0 -71 78 -80
114 -3 12 -11 38 -17 60 -10 32 -9 43 5 68 9 16 17 36 17 44 0 9 5 12 10 9 9
-5 15 15 11 38 0 4 17 7 39 7 43 0 49 6 23 25 -17 13 -10 35 11 35 14 0 29
-34 27 -57 -1 -7 13 -16 30 -21 31 -8 42 -18 53 -55 5 -16 9 -15 48 7 42 23
43 25 46 80 3 49 0 59 -22 81 -21 21 -35 25 -83 25 -39 0 -68 -6 -89 -19 -42
-25 -59 -14 -30 20 36 41 65 52 136 50 66 -1 98 8 86 27 -3 5 -19 12 -36 16
-27 5 -30 8 -20 26 9 17 42 27 74 21 16 -3 81 21 99 37 9 8 17 12 17 8 0 -4 7
-1 15 8 8 8 15 19 15 24 0 10 37 30 58 31 7 1 15 -12 18 -29z m-1236 -764 c8
-36 10 -80 6 -134 -5 -54 -3 -82 4 -87 15 -9 10 -204 -5 -199 -19 8 -34 86
-34 179 0 50 -3 128 -6 174 -8 127 11 165 35 67z m983 -11 c40 0 53 -5 72 -27
12 -14 36 -29 54 -33 32 -7 42 -29 17 -38 -17 -7 -11 -41 10 -58 8 -6 14 -24
14 -39 0 -24 -6 -30 -36 -40 -20 -7 -63 -10 -95 -8 -52 4 -63 9 -99 44 -22 21
-40 45 -40 52 0 6 -11 22 -25 34 -14 12 -25 29 -25 39 0 22 26 43 41 33 8 -4
9 -3 5 4 -4 7 -2 12 3 12 6 0 11 11 11 25 0 24 2 25 23 13 12 -7 44 -13 70
-13z m-1175 -631 c-4 -3 3 -15 15 -27 19 -19 33 -22 92 -21 42 1 73 -3 77 -10
15 -23 8 -101 -12 -126 -26 -33 -25 -42 5 -34 15 4 25 2 25 -5 0 -6 -4 -11 -9
-11 -5 0 -12 -7 -15 -16 -6 -15 0 -16 39 -11 41 6 45 5 45 -15 0 -21 0 -21 21
-2 24 22 47 12 67 -30 11 -21 11 -30 2 -41 -7 -8 -10 -28 -8 -44 4 -26 1 -29
-26 -33 -54 -8 -291 -10 -319 -2 l-28 6 3 207 c3 184 7 220 27 221 2 0 2 -3
-1 -6z m1498 -108 c8 -8 14 -20 14 -26 0 -6 5 -8 10 -5 6 3 10 -1 10 -9 0 -13
12 -16 59 -16 33 0 63 -4 66 -10 3 -5 19 -10 35 -10 36 0 44 -22 35 -90 -5
-34 -13 -53 -28 -63 -38 -24 -56 -27 -71 -12 -8 8 -18 15 -23 15 -4 0 -45 37
-90 82 -74 73 -80 83 -65 94 11 9 12 13 5 14 -7 0 -13 9 -13 21 0 15 5 19 15
15 8 -3 15 -1 15 4 0 14 9 12 26 -4z m-798 -226 c39 -40 72 -76 72 -81 0 -5
-62 -9 -137 -9 -79 0 -132 4 -125 9 8 4 14 12 14 17 3 34 13 42 54 49 49 7 62
2 73 -28 7 -19 9 -16 13 16 4 37 3 39 -22 33 -38 -7 -101 44 -82 67 22 26 62
5 140 -73z m-2 -214 c98 10 179 -18 197 -68 4 -10 13 -18 22 -18 8 0 23 -4 33
-9 9 -5 24 -12 34 -15 20 -6 34 -64 19 -79 -17 -17 -14 -67 4 -67 15 0 20 -12
9 -23 -16 -15 -11 -83 6 -99 14 -13 21 -40 26 -98 5 -58 11 -83 23 -90 14 -8
14 -9 -1 -10 -10 0 -18 -1 -19 -2 0 -2 -3 -24 -5 -49 -6 -45 -5 -46 34 -66 33
-16 43 -17 58 -6 11 8 21 9 29 3 7 -5 14 -7 18 -4 3 3 14 1 24 -5 14 -8 15
-11 3 -11 -9 -1 -6 -5 8 -10 12 -5 22 -14 22 -19 0 -12 -20 -17 -94 -25 -27
-3 -55 -11 -62 -17 -8 -6 -25 -8 -39 -5 -20 5 -25 3 -25 -11 0 -10 -9 -24 -21
-31 -14 -9 -18 -19 -14 -32 4 -11 0 -33 -8 -49 -13 -27 -13 -30 2 -36 14 -6
13 -8 -4 -15 -17 -7 -17 -9 -2 -9 9 -1 27 -11 39 -23 12 -12 33 -23 47 -25 23
-4 47 -7 76 -12 6 -1 -1 -8 -14 -15 l-24 -13 27 -5 c15 -3 30 0 37 8 11 14 39
8 39 -8 0 -6 -8 -17 -17 -25 -16 -13 -16 -14 10 -10 18 3 30 -1 36 -11 7 -13
13 -11 35 11 30 30 33 42 10 33 -10 -4 -14 -1 -11 6 2 7 11 12 19 10 18 -3 35
31 19 36 -14 5 -14 32 -1 32 6 0 10 -7 10 -15 0 -8 7 -15 15 -15 8 0 15 5 15
10 0 18 22 10 27 -10 5 -18 37 -37 55 -32 4 1 20 -3 35 -9 39 -16 72 -19 79
-8 3 5 14 -1 25 -15 23 -29 24 -36 5 -36 -7 0 -21 -10 -29 -22 -15 -22 -16
-22 -15 -3 3 46 -1 58 -16 46 -7 -6 -20 -9 -28 -6 -9 4 -18 -1 -21 -9 -4 -9
-11 -16 -18 -16 -6 0 -9 7 -5 15 4 12 0 14 -22 9 -33 -8 -41 -15 -25 -21 7 -2
9 -11 6 -19 -3 -8 -2 -14 3 -13 23 4 26 -2 8 -16 -16 -13 -17 -16 -4 -25 8 -5
11 -10 5 -10 -18 0 -41 21 -29 26 9 4 8 14 -4 36 -11 23 -12 33 -4 36 7 2 12
13 12 24 0 15 -3 18 -12 10 -7 -5 -24 -12 -38 -14 -25 -3 -31 -26 -19 -66 2
-8 -4 -19 -13 -25 -13 -9 -21 -8 -35 5 -10 8 -32 18 -49 21 -27 5 -33 3 -37
-15 -3 -12 -1 -30 4 -40 11 -20 5 -38 -13 -38 -5 0 -8 7 -4 15 5 13 2 14 -15
4 -23 -12 -69 2 -90 27 -15 19 -33 18 -25 -1 3 -10 -1 -15 -13 -15 -14 0 -18
5 -14 19 4 14 -2 20 -27 25 -39 7 -53 0 -45 -24 3 -10 1 -21 -5 -25 -6 -3 -8
-10 -5 -15 8 -13 35 0 35 17 0 8 5 11 10 8 6 -3 10 -15 10 -26 0 -10 5 -19 10
-19 6 0 10 -4 10 -10 0 -5 -8 -10 -18 -10 -11 0 -18 -8 -19 -20 -2 -18 3 -20
34 -18 43 4 65 -20 44 -46 -13 -15 -15 -14 -29 5 -13 18 -22 21 -68 17 -47 -4
-54 -2 -54 14 0 21 -16 24 -23 4 -3 -8 1 -20 9 -27 13 -10 12 -14 -2 -30 -16
-18 -12 -39 8 -39 5 0 7 7 4 16 -7 19 31 57 46 48 6 -4 5 -10 -3 -15 -10 -6
-11 -9 -1 -9 6 0 12 -4 12 -9 0 -5 -9 -7 -20 -4 -16 4 -20 0 -20 -21 0 -27 10
-32 38 -17 12 6 24 5 37 -5 12 -9 14 -14 5 -14 -10 0 -9 -5 4 -19 13 -15 14
-20 4 -23 -8 -3 8 -26 45 -63 31 -32 57 -63 57 -70 0 -7 7 -18 15 -25 9 -7 15
-20 13 -29 -1 -9 1 -21 5 -28 5 -8 -1 -11 -19 -10 -15 1 -29 -4 -31 -11 -3 -7
1 -10 11 -6 9 3 16 2 16 -3 0 -22 -82 -45 -165 -46 l-85 -2 0 53 c0 38 6 61
19 79 16 20 18 29 9 49 -15 33 -9 36 45 20 26 -8 47 -11 47 -7 0 4 -29 33 -65
65 l-66 58 5 56 c25 273 25 309 -9 367 -14 24 -33 46 -41 49 -11 4 -13 14 -9
39 5 25 2 37 -14 51 -12 11 -21 23 -21 27 0 16 41 20 75 8 60 -22 97 12 111
102 7 41 21 60 28 37 2 -7 8 -26 11 -43 l8 -30 8 28 c4 16 4 50 0 77 -4 26 -4
56 1 64 5 9 10 41 11 71 1 40 6 54 15 50 15 -6 15 -6 -7 41 -29 59 -49 125
-62 200 -10 58 -17 73 -53 109 -66 66 -126 90 -222 90 -77 0 -134 -16 -134
-37 0 -5 -9 -18 -20 -30 -11 -12 -27 -42 -36 -67 -9 -25 -26 -54 -36 -63 -25
-23 -34 -63 -37 -163 -3 -134 -14 -174 -58 -208 -12 -10 -23 -24 -23 -31 0 -7
-11 -23 -25 -36 -29 -27 -34 -80 -10 -104 8 -8 15 -20 15 -26 0 -6 4 -9 9 -5
5 3 12 1 15 -4 8 -12 -44 -53 -58 -48 -7 3 -11 -14 -11 -44 0 -47 7 -60 20
-39 4 6 11 8 16 4 6 -3 5 -12 -3 -21 -7 -9 -11 -17 -9 -17 3 -1 -1 -10 -7 -21
-11 -18 -12 -18 -6 6 4 20 1 27 -14 31 -16 4 -18 0 -16 -26 2 -17 6 -62 9
-100 3 -38 13 -79 21 -90 16 -24 19 -40 4 -31 -6 4 -5 -4 2 -19 9 -22 8 -29
-6 -45 -10 -11 -24 -17 -32 -14 -8 3 -17 -2 -20 -11 -3 -9 -12 -16 -20 -16 -8
0 -14 -10 -14 -22 0 -16 -3 -19 -11 -11 -15 15 19 73 38 66 8 -3 13 2 13 15 0
12 5 24 10 27 6 3 10 21 9 38 0 18 -3 26 -6 19 -4 -10 -8 -10 -21 0 -11 9 -16
10 -19 2 -2 -7 -13 -10 -23 -7 -11 3 -17 9 -14 14 3 5 -2 9 -11 9 -9 0 -16 -7
-14 -17 1 -10 1 -24 0 -30 -1 -17 -31 -17 -31 0 0 6 -13 18 -29 25 -16 7 -32
19 -35 27 -5 14 69 97 79 87 9 -9 5 19 -5 38 -8 14 -5 27 9 51 11 17 17 37 15
44 -3 7 2 15 10 18 9 4 16 16 16 27 0 19 -4 20 -45 16 -47 -6 -56 2 -29 25 13
10 17 10 23 0 6 -10 13 -8 29 9 14 15 27 20 41 15 12 -4 21 -2 21 4 0 6 5 11
10 11 6 0 10 -7 10 -15 0 -8 4 -15 9 -15 4 0 8 10 7 23 -1 12 -7 21 -14 19 -7
-1 -21 2 -31 7 -12 7 -22 6 -29 -1 -9 -9 -12 -9 -12 1 0 10 -11 12 -40 8 -37
-5 -40 -3 -36 16 16 78 17 79 36 74 11 -3 23 -1 26 4 3 5 17 9 31 9 18 0 24
-4 19 -15 -3 -9 1 -18 9 -22 12 -4 13 -9 4 -19 -6 -8 -9 -14 -6 -14 3 0 12 -3
21 -6 14 -5 16 7 15 102 -1 101 1 109 22 125 13 10 26 16 29 14 3 -2 14 3 24
11 18 12 18 14 2 20 -10 4 -22 2 -29 -5 -16 -16 -47 -14 -47 4 0 16 11 18 70
16 31 -1 33 0 15 10 -35 21 -48 55 -17 45 23 -7 61 52 64 101 2 21 9 44 15 51
7 7 18 32 25 55 7 23 18 48 25 57 58 68 74 91 68 100 -3 5 2 10 13 10 11 0 22
9 25 20 3 12 14 20 26 20 11 0 28 12 38 26 9 15 19 22 21 15 3 -8 23 -9 68 -5z
m-958 -131 c13 -16 22 -39 22 -61 l0 -34 58 -2 57 -1 -55 -6 -55 -6 -3 -62
c-3 -55 -6 -65 -33 -88 -107 -90 -224 72 -162 226 28 71 122 90 171 34z m1104
-61 c8 -5 22 -27 30 -50 l17 -41 -30 -26 c-16 -14 -29 -31 -29 -37 0 -7 16
-27 35 -46 23 -21 35 -42 35 -59 0 -22 -3 -26 -17 -20 -37 14 -83 18 -83 6 0
-6 6 -11 14 -11 34 0 23 -20 -16 -28 l-43 -10 38 -1 c41 -1 46 -7 20 -27 -17
-13 -17 -13 2 -15 11 -1 26 -1 33 0 17 3 15 -19 -5 -41 -26 -29 -79 -22 -173
25 -73 36 -86 47 -95 75 -5 17 -15 32 -23 32 -8 0 -12 -6 -8 -15 3 -8 1 -15
-4 -15 -6 0 -10 8 -10 19 0 10 -7 24 -15 31 -21 17 -19 25 11 41 15 8 35 33
46 59 24 56 58 93 109 115 21 10 39 23 40 29 0 6 19 25 42 42 l42 30 12 -27
c6 -15 18 -31 25 -35z m-3494 -736 l-3 -523 -152 -3 -153 -3 0 526 0 525 155
0 155 0 -2 -522z m-1212 349 c22 -26 25 -38 21 -71 -14 -103 -144 -110 -163
-9 -7 37 10 89 34 102 35 20 81 10 108 -22z m122 -17 c8 -25 16 -52 19 -60 3
-9 14 10 26 45 17 47 27 61 45 63 27 4 27 -2 1 -75 -41 -115 -39 -112 -67
-110 -23 2 -30 12 -54 72 -35 89 -36 118 -5 113 17 -2 25 -14 35 -48z m284 20
c10 -12 18 -35 18 -51 0 -29 -1 -29 -56 -29 -47 0 -55 3 -52 18 2 11 15 19 37
22 30 4 32 7 18 18 -24 20 -50 11 -61 -21 -15 -41 2 -62 50 -63 50 0 59 -27
14 -42 -59 -21 -110 21 -110 91 0 54 36 89 87 83 23 -2 44 -12 55 -26z m-488
-299 c8 -13 -74 -221 -95 -242 -17 -17 -16 -18 39 -21 43 -2 57 -7 57 -18 0
-10 -12 -16 -32 -18 l-33 -3 0 -100 c0 -99 0 -99 -25 -99 l-25 0 0 100 0 100
-29 0 c-29 0 -49 15 -37 27 3 3 18 6 33 6 27 0 27 0 6 10 -28 13 -29 27 -3 34
12 3 27 17 34 31 12 22 11 30 -5 56 -10 17 -27 55 -38 84 l-21 52 24 0 c20 0
28 -9 42 -47 23 -63 30 -70 38 -37 20 77 52 115 70 85z m163 -9 c33 -18 47
-73 29 -115 -17 -42 -39 -55 -85 -52 -46 3 -71 35 -71 92 0 74 62 111 127 75z
m123 -44 c0 -70 5 -82 37 -90 21 -6 22 -3 25 71 3 68 5 76 23 76 18 0 20 -8
23 -88 2 -71 0 -88 -13 -93 -8 -4 -22 -1 -29 5 -10 8 -16 9 -21 1 -10 -17 -51
-11 -70 10 -12 14 -20 41 -23 80 -5 71 1 90 28 90 18 0 20 -6 20 -62z m-113
-290 c32 -30 33 -105 0 -136 -30 -29 -92 -25 -119 7 -26 33 -24 98 4 128 28
30 83 31 115 1z m206 2 c17 -14 22 -29 22 -68 0 -65 -23 -92 -77 -92 -81 0
-118 100 -59 159 24 24 84 25 114 1z m5100 -269 c-3 -11 -13 -21 -24 -24 -13
-3 -17 -11 -13 -21 4 -11 1 -16 -10 -16 -18 0 -20 -8 -7 -29 5 -8 11 -9 15 -3
8 13 62 8 81 -8 19 -16 19 -30 0 -30 -9 0 -18 -8 -22 -17 -8 -24 -61 -74 -68
-63 -2 4 -23 8 -46 8 -41 1 -81 21 -46 23 39 3 53 2 68 -5 22 -9 69 10 69 29
0 10 -9 15 -27 15 -14 0 -35 7 -45 16 -14 13 -21 14 -32 5 -10 -9 -15 -8 -19
3 -7 18 -57 9 -57 -10 0 -8 -5 -14 -11 -14 -6 0 -9 6 -6 14 3 8 1 16 -4 18
-16 5 1 38 19 36 33 -2 87 4 75 9 -7 2 -13 9 -13 15 0 6 7 8 15 4 9 -3 15 0
15 9 0 9 10 15 25 15 15 0 25 6 25 14 0 8 10 17 23 19 12 2 23 5 24 6 0 0 -1
-8 -4 -18z m-5323 -94 c0 -65 11 -87 42 -87 14 0 18 11 20 73 3 64 5 72 23 72
19 0 20 -7 20 -89 l0 -89 -54 -2 c-58 -2 -90 17 -92 53 0 9 -2 36 -5 60 -7 53
0 72 26 72 18 0 20 -6 20 -63z m3424 -263 c9 -8 16 -19 16 -24 0 -5 3 -15 6
-24 5 -13 -8 -16 -83 -18 l-88 -3 -3 -33 c-2 -18 -10 -36 -19 -39 -8 -3 -10
-8 -5 -12 20 -12 15 -57 -11 -107 -15 -31 -26 -69 -27 -95 -1 -59 14 -147 28
-161 8 -8 8 -14 -3 -22 -10 -7 -17 -36 -21 -76 -3 -36 -8 -68 -11 -72 -2 -5 1
-24 9 -43 10 -28 10 -40 0 -55 -7 -11 -12 -29 -12 -39 0 -11 -4 -22 -9 -26
-16 -10 -41 -98 -47 -170 -4 -39 -7 -137 -8 -220 -1 -117 -5 -161 -19 -202
-10 -29 -23 -53 -28 -53 -24 0 5 -151 32 -170 25 -18 2 -158 -39 -235 -17 -32
-28 -72 -32 -112 -5 -58 -4 -63 15 -64 20 0 20 0 0 -8 -28 -11 -163 -13 -205
-2 -19 5 -30 9 -25 10 6 1 11 55 12 139 1 75 5 236 9 357 5 121 7 254 6 295
-5 228 3 405 28 565 5 33 14 128 20 210 6 83 17 179 25 215 8 36 16 88 18 115
l2 50 153 0 152 0 0 33 c0 28 -3 32 -26 32 -24 0 -25 3 -19 27 12 48 22 53
111 53 62 0 87 -4 98 -16z m-2907 -138 c2 -2 -61 -6 -139 -8 -79 -3 -155 -10
-169 -16 -29 -11 -47 -52 -23 -52 8 0 14 -9 14 -19 0 -14 -5 -18 -19 -14 -11
3 -21 -2 -24 -11 -4 -9 -16 -16 -27 -16 -11 0 -20 -5 -20 -11 0 -5 -4 -8 -8
-5 -4 2 -14 1 -22 -5 -10 -6 -11 -9 -2 -9 22 0 13 -39 -17 -69 -19 -20 -31
-44 -36 -77 -4 -30 -10 -43 -15 -34 -10 17 -30 4 -30 -20 0 -12 -5 -17 -13
-14 -18 6 -52 -32 -37 -41 7 -4 2 -14 -14 -28 -14 -12 -30 -34 -35 -50 -6 -15
-18 -30 -26 -33 -8 -4 -29 -19 -46 -35 -17 -16 -36 -29 -43 -29 -6 -1 -22 -10
-36 -21 -21 -18 -25 -30 -26 -81 -1 -59 -15 -90 -45 -100 -8 -3 -11 -8 -7 -12
3 -4 16 -2 28 4 12 6 25 8 28 4 4 -4 1 -9 -5 -11 -7 -3 -13 -9 -13 -15 0 -11
-12 -39 -65 -153 -40 -85 -49 -115 -37 -115 5 0 8 -20 6 -45 -2 -25 1 -45 5
-45 5 0 11 4 13 9 2 6 23 23 48 40 35 23 46 27 48 16 4 -16 15 -18 49 -9 14 4
20 11 16 18 -4 6 7 0 24 -14 38 -30 46 -46 34 -69 -5 -9 -13 -50 -17 -91 -6
-56 -9 -69 -15 -50 -4 14 -7 42 -8 63 -1 42 -8 45 -44 17 -14 -11 -30 -20 -35
-20 -5 0 -29 -18 -53 -39 -39 -36 -114 -71 -163 -76 -11 -1 -25 -10 -30 -20
-18 -31 -34 -46 -48 -43 -9 2 -15 -14 -19 -52 -3 -30 -7 -53 -8 -50 -1 3 -5
358 -7 789 l-4 784 567 -7 c312 -4 569 -8 570 -10z m833 -188 c0 -297 -10
-495 -24 -469 -10 17 -14 18 -32 8 -12 -7 -36 -20 -53 -30 -45 -25 -93 -19
-101 13 -4 14 -3 104 3 201 8 148 7 191 -6 270 -16 90 -18 95 -59 132 -24 20
-56 40 -71 44 -16 3 -25 9 -20 14 12 12 63 16 221 17 l142 2 0 -202z m3117
168 c146 -31 291 -108 408 -217 169 -159 259 -372 259 -614 0 -144 -24 -248
-86 -370 -138 -272 -408 -447 -713 -462 -306 -15 -578 126 -754 390 l-46 70 3
381 2 380 37 56 c86 131 204 242 321 303 64 33 199 82 252 90 63 10 254 6 317
-7z m-3612 -6 c3 -5 15 -10 26 -10 10 0 19 -6 19 -12 0 -7 5 -5 11 5 5 9 14
17 20 17 5 0 4 -9 -3 -20 -11 -17 -10 -22 2 -30 11 -6 16 -32 18 -92 2 -46 5
-100 6 -121 3 -43 3 -43 -103 -51 -86 -6 -98 -30 -84 -173 5 -62 6 -62 34 -59
16 2 29 0 29 -4 0 -5 17 -12 38 -17 33 -8 37 -13 40 -42 3 -24 -3 -40 -19 -57
-29 -31 -48 -30 -76 4 l-22 27 -46 -49 c-31 -33 -50 -46 -61 -42 -18 7 -68
-20 -60 -32 2 -4 -7 -9 -21 -10 -30 -2 -44 -13 -25 -19 17 -6 15 -23 -3 -23
-17 0 -20 -25 -5 -35 6 -4 8 -10 5 -15 -2 -4 4 -19 15 -33 11 -14 20 -32 20
-40 0 -8 7 -18 16 -21 21 -8 14 -56 -11 -70 -11 -6 -23 -16 -27 -22 -13 -20
-59 -26 -92 -13 -29 12 -61 35 -200 144 -65 52 -119 131 -147 217 -28 89 -23
155 18 224 23 38 28 55 20 63 -6 6 -7 14 -3 18 4 4 11 1 15 -6 10 -16 31 -6
31 13 0 25 53 50 105 49 27 0 51 -6 53 -12 2 -6 12 -11 23 -11 10 0 19 -4 19
-10 0 -5 4 -10 10 -10 5 0 9 8 7 18 -1 9 3 19 8 22 6 3 11 -5 13 -17 2 -12 17
-33 33 -47 16 -14 28 -31 27 -38 -2 -8 9 -14 25 -16 21 -3 42 7 80 36 94 71
118 97 112 114 -9 22 -128 93 -182 109 -33 9 -43 17 -43 33 0 27 27 66 44 66
7 0 25 12 40 26 16 17 26 22 26 13 1 -8 8 -2 16 14 13 24 20 27 72 27 31 1 71
7 87 15 38 17 42 17 50 5z m4655 -740 c0 -401 -2 -730 -5 -730 -15 0 -69 75
-105 145 -68 136 -70 159 -70 773 l0 542 90 0 90 0 0 -730z m-2905 621 c3 -14
10 -40 15 -57 15 -46 12 -54 -17 -54 -37 0 -93 -35 -93 -58 0 -10 -3 -22 -7
-26 -17 -17 -42 -101 -33 -110 17 -17 11 -36 -10 -36 -25 0 -26 -15 -3 -24 15
-6 15 -8 3 -16 -13 -8 -11 -12 8 -25 28 -20 28 -36 -2 -57 -34 -25 -80 -6 -99
41 -38 91 -47 127 -49 189 -3 77 12 107 62 128 29 12 30 12 30 -11 0 -18 5
-25 20 -25 11 0 20 6 20 14 0 18 -51 55 -67 49 -22 -8 -14 23 11 48 95 95 113
103 167 76 27 -13 41 -27 44 -46z m875 -882 l45 -6 -47 -1 -48 -2 -2 -282 c-1
-156 -1 -319 -1 -363 1 -66 -1 -76 -10 -55 -6 14 -10 78 -10 145 1 117 1 119
-13 75 -7 -25 -14 -68 -14 -97 0 -32 -7 -64 -19 -85 -30 -53 -34 -96 -11 -110
26 -16 26 -53 0 -75 -11 -10 -20 -27 -20 -39 0 -18 -7 -22 -42 -27 -48 -6 -64
-1 -49 17 6 7 10 35 10 63 -2 50 18 123 33 123 12 0 10 48 -2 55 -15 9 -12 67
6 116 8 24 15 73 16 109 0 68 22 122 54 134 19 7 15 52 -4 48 -8 -1 -11 2 -8
7 4 5 2 12 -4 16 -17 11 -12 102 7 120 12 13 19 45 24 119 4 55 8 104 8 109 1
4 8 7 18 7 15 0 15 1 0 18 -21 23 -23 98 -3 105 8 3 17 1 20 -6 2 -7 6 74 7
178 3 175 4 166 9 -110 l5 -300 45 -6z m-2135 36 c1 -80 -1 -145 -5 -145 -4 0
-19 9 -33 20 -14 11 -33 20 -42 20 -22 0 -135 68 -156 94 -12 15 -14 28 -8 49
5 17 6 33 4 38 -3 4 -2 15 2 25 6 16 7 16 14 -3 5 -14 17 -20 45 -21 26 -1 46
-10 66 -28 l28 -27 15 36 c18 44 27 48 19 8 -4 -20 -1 -30 9 -34 11 -4 15 1
14 21 -3 75 3 116 15 104 7 -7 12 -62 13 -157z m-938 -85 c34 -9 53 -19 56
-32 3 -11 14 -18 31 -18 14 0 26 -5 26 -10 0 -6 6 -10 13 -8 25 5 55 -22 61
-57 4 -19 11 -35 17 -35 5 0 17 -16 25 -35 8 -19 28 -55 46 -80 31 -44 32 -47
30 -152 -1 -112 -9 -183 -20 -182 -15 2 -52 -14 -52 -22 0 -14 -42 -1 -65 21
-12 11 -28 20 -36 20 -9 0 -28 14 -45 31 -16 17 -71 63 -122 102 l-94 70 8 61
c9 64 9 71 -2 202 -6 77 -5 81 21 113 15 17 33 30 39 28 6 -2 34 -10 63 -17z
m1254 -43 c11 -3 19 -14 19 -27 0 -19 2 -20 15 -10 12 10 15 10 15 -3 0 -8 -7
-20 -15 -27 -8 -7 -15 -23 -15 -35 0 -20 -7 -24 -63 -34 -133 -23 -150 -13
-145 87 l3 57 68 1 c38 1 74 7 80 13 9 9 13 9 15 -2 2 -8 12 -17 23 -20z"/>
<path d="M6613 9773 c-20 -4 -23 -11 -23 -51 l0 -47 85 0 85 0 0 46 c0 40 -3
48 -22 53 -25 6 -90 6 -125 -1z"/>
<path d="M3232 6693 l-303 -3 3 -28 3 -27 536 -3 536 -2 7 -189 c5 -141 3
-198 -6 -227 -13 -39 -14 -39 -73 -44 l-60 -5 -12 -54 c-6 -30 -9 -59 -7 -63
3 -4 33 -8 68 -8 81 0 139 34 177 106 37 67 40 91 48 298 l6 181 78 3 77 3 0
34 0 35 -387 -2 c-214 -2 -524 -4 -691 -5z"/>
<path d="M2937 6074 c-4 -4 -7 -70 -7 -146 l0 -138 120 0 120 0 0 25 c0 23 -3
24 -77 27 l-78 3 0 30 c0 29 1 30 44 27 65 -5 93 4 89 31 -3 20 -10 23 -68 27
-62 5 -65 6 -68 32 l-3 27 78 3 c76 3 78 4 78 28 0 25 0 25 -111 28 -60 1
-113 -1 -117 -4z"/>
<path d="M3214 5577 c-2 -7 -3 -71 -2 -143 l3 -129 36 -3 c36 -3 37 -2 43 41
4 24 4 51 1 59 -15 39 17 22 69 -37 54 -62 60 -65 102 -65 24 0 44 4 44 8 0 4
-22 30 -50 57 l-49 49 29 17 c60 37 49 107 -23 139 -51 24 -194 28 -203 7z"/>
<path d="M3560 5445 l0 -145 40 0 40 0 0 145 0 145 -40 0 -40 0 0 -145z"/>
<path d="M1070 8324 c-91 -38 -121 -169 -58 -254 40 -54 58 -57 380 -64 l297
-6 64 -28 c73 -33 151 -108 185 -175 72 -143 38 -321 -80 -429 -46 -41 -157
-98 -192 -98 -72 0 -145 -70 -154 -146 -6 -60 3 -88 44 -133 52 -58 108 -69
213 -43 207 53 378 187 470 371 49 96 71 196 71 320 0 130 -23 218 -93 361
-22 45 -132 162 -197 211 -50 38 -147 84 -205 98 -27 7 -59 16 -70 19 -11 3
-159 7 -330 8 -254 2 -316 0 -345 -12z"/>
<path d="M1101 7780 c-46 -11 -83 -40 -103 -81 -15 -29 -17 -76 -19 -339 -3
-341 -2 -344 68 -397 31 -24 46 -28 98 -28 52 0 68 5 99 28 67 52 67 52 64
401 l-3 313 -24 35 c-25 36 -97 79 -129 77 -9 -1 -32 -5 -51 -9z"/>
<path d="M5220 4244 c-382 -103 -512 -570 -235 -849 95 -95 231 -154 356 -155
63 0 190 34 252 67 66 36 155 124 195 195 193 337 -60 761 -451 757 -34 0 -87
-7 -117 -15z"/>
<path d="M1576 3995 c-15 -8 -34 -15 -41 -15 -6 0 -31 -21 -55 -47 -37 -41
-43 -53 -42 -88 2 -47 23 -68 57 -55 13 5 26 6 29 3 10 -11 7 3 -10 35 -14 28
-14 33 1 56 22 33 85 71 85 51 0 -7 3 -16 8 -18 4 -3 7 17 7 44 0 27 -2 49 -5
49 -3 0 -18 -7 -34 -15z"/>
</g>
</svg>
