<?xml version="1.0" standalone="no"?>
<!DOCTYPE svg PUBLIC "-//W3C//DTD SVG 20010904//EN"
 "http://www.w3.org/TR/2001/REC-SVG-20010904/DTD/svg10.dtd">
<svg version="1.0" xmlns="http://www.w3.org/2000/svg"
 width="720.000000pt" height="1280.000000pt" viewBox="0 0 720.000000 1280.000000"
 preserveAspectRatio="xMidYMid meet">
<metadata>
Created by potrace 1.16, written by Peter Selinger 2001-2019
</metadata>
<g transform="translate(0.000000,1280.000000) scale(0.100000,-0.100000)"
fill="#000000" stroke="none">
<path d="M0 6400 l0 -6400 3600 0 3600 0 0 6400 0 6400 -3600 0 -3600 0 0
-6400z m6796 3680 c79 -37 138 -117 149 -206 9 -63 -8 -125 -50 -190 -28 -44
-31 -52 -17 -60 13 -9 13 -13 -2 -37 -23 -35 -90 -46 -137 -23 -33 16 -80 14
-147 -6 -47 -14 -99 -2 -118 28 -13 20 -14 27 -4 39 11 13 9 19 -7 38 -58 63
-80 189 -48 273 55 145 232 211 381 144z m-653 4 c125 -42 198 -200 153 -327
-41 -113 -135 -177 -261 -177 -137 0 -237 76 -264 200 -15 70 -3 142 33 203
25 41 43 58 94 84 54 28 75 33 131 33 37 0 88 -7 114 -16z m-5834 -111 c15
-56 71 -300 71 -307 0 -3 -16 -6 -35 -6 -30 0 -35 3 -35 24 0 30 -4 33 -54 37
-37 4 -40 2 -48 -29 -8 -28 -13 -32 -42 -32 l-34 0 14 58 c7 31 26 110 41 175
l27 117 43 0 c40 0 43 -2 52 -37z m401 -55 l1 -93 30 38 c23 27 39 37 60 37
16 0 29 -3 29 -6 0 -4 -16 -28 -35 -53 -30 -41 -33 -50 -21 -67 7 -10 25 -40
40 -66 l27 -48 -35 0 c-30 0 -38 5 -57 40 -26 45 -39 43 -39 -6 0 -31 -2 -34
-30 -34 l-30 0 0 175 0 175 30 0 30 0 0 -92z m1740 -83 l0 -176 -42 1 c-24 1
-55 -1 -69 -5 -19 -5 -33 -1 -55 18 -28 24 -29 29 -28 107 1 68 4 85 21 102
22 21 54 27 91 14 21 -7 22 -5 22 53 l0 61 30 0 30 0 0 -175z m452 83 l3 -92
25 37 c20 30 31 37 58 37 30 0 42 -12 24 -24 -5 -3 -21 -23 -36 -44 l-27 -40
40 -66 41 -66 -34 0 c-28 0 -38 7 -62 43 l-29 42 -3 -42 c-3 -42 -4 -43 -38
-43 l-34 0 0 175 0 175 35 0 34 0 3 -92z m728 27 l0 -66 30 16 c33 17 60 13
85 -11 11 -12 15 -40 15 -120 l0 -104 -30 0 -30 0 0 90 c0 75 -3 92 -16 97
-37 14 -49 -10 -52 -101 l-3 -86 -29 0 -30 0 0 175 0 175 30 0 30 0 0 -65z
m530 4 c0 -58 1 -60 23 -53 76 26 107 -8 107 -118 0 -71 -2 -81 -26 -105 -20
-20 -31 -24 -52 -18 -15 4 -46 6 -69 5 l-43 -1 0 176 0 175 30 0 30 0 0 -61z
m-1482 -11 c3 -35 6 -38 33 -38 24 0 29 -4 29 -25 0 -21 -5 -25 -30 -25 l-31
0 3 -67 c3 -66 4 -68 31 -71 21 -3 27 -8 23 -19 -3 -8 -6 -19 -6 -24 0 -16
-73 -10 -92 8 -14 13 -18 31 -18 90 0 66 -2 75 -20 80 -13 3 -20 14 -20 29 0
17 6 24 20 24 16 0 20 7 20 33 0 40 7 49 35 45 15 -2 21 -12 23 -40z m-2094
-59 c24 -23 34 -121 17 -172 -15 -44 -59 -66 -97 -48 -14 6 -27 11 -29 11 -3
0 -5 -30 -5 -66 l0 -65 -27 3 -28 3 -3 179 -2 179 37 -5 c21 -3 47 -2 58 3 26
10 55 2 79 -22z m405 20 c44 -16 51 -35 51 -143 l0 -96 -47 -1 c-27 0 -60 -1
-75 -1 -40 -1 -58 19 -58 63 0 43 20 63 83 80 28 7 37 15 35 27 -5 26 -48 28
-55 3 -4 -14 -13 -21 -29 -21 -65 0 -15 96 52 99 6 1 25 -4 43 -10z m290 0
c38 -14 51 -35 51 -88 l0 -41 -61 0 c-60 0 -60 0 -57 -27 3 -32 44 -46 54 -19
4 10 18 16 35 16 35 0 39 -25 10 -61 -27 -34 -99 -34 -135 0 -23 22 -26 32
-26 96 0 79 20 120 63 128 12 2 25 5 28 6 3 0 20 -4 38 -10z m198 0 c32 -12
43 -26 43 -56 0 -31 -45 -33 -53 -3 -7 26 -47 27 -47 1 0 -11 12 -23 30 -31
78 -32 101 -82 61 -131 -15 -19 -29 -24 -66 -24 -37 0 -51 5 -66 24 -29 36
-25 61 11 61 24 0 30 -4 30 -21 0 -15 5 -20 23 -17 37 5 26 36 -23 60 -88 45
-75 133 22 147 4 1 19 -4 35 -10z m197 -3 c31 -13 53 -55 38 -71 -14 -14 -50
-3 -55 16 -4 13 -12 20 -24 17 -29 -5 -21 -32 15 -50 73 -36 92 -81 53 -129
-15 -19 -29 -24 -66 -24 -37 0 -51 5 -66 24 -29 36 -25 61 10 61 21 0 30 -6
34 -21 7 -25 40 -22 45 3 2 12 -11 24 -43 39 -74 35 -86 106 -22 134 40 18 41
18 81 1z m205 3 c17 -6 36 -19 41 -29 6 -10 10 -62 10 -115 l0 -97 -32 3 c-18
1 -48 -1 -66 -5 -50 -12 -82 13 -82 64 0 44 20 64 83 81 28 7 37 15 35 27 -5
25 -45 27 -58 3 -13 -24 -48 -28 -56 -6 -8 20 21 64 49 75 30 12 39 12 76 -1z
m318 -21 c17 -16 23 -33 23 -65 l0 -43 -61 0 c-60 0 -60 0 -57 -27 3 -32 44
-46 54 -19 8 20 64 22 64 2 0 -69 -102 -98 -158 -45 -19 17 -22 31 -22 98 0
68 3 80 23 98 12 11 29 23 37 26 25 10 73 -2 97 -25z m1001 -4 c18 -21 22 -36
22 -98 0 -65 -3 -75 -26 -97 -35 -33 -104 -34 -136 -2 -27 28 -37 127 -17 174
24 60 111 73 157 23z m240 8 c8 -10 12 -52 12 -119 l0 -103 -30 0 -30 0 0 90
c0 75 -3 92 -17 97 -32 12 -53 -32 -53 -113 l0 -74 -30 0 -30 0 0 120 0 120
29 0 c16 0 31 -5 33 -11 2 -6 14 -5 33 5 33 17 63 13 83 -12z m529 -4 c17 -16
23 -33 23 -65 l0 -43 -61 0 c-60 0 -60 0 -57 -27 3 -32 44 -46 54 -19 4 10 18
16 35 16 35 0 40 -29 9 -60 -27 -27 -63 -34 -105 -20 -46 15 -55 34 -55 123 0
64 3 76 23 94 12 11 29 23 37 26 25 10 73 -2 97 -25z m540 8 c6 -6 13 -57 16
-118 l5 -108 -34 0 -34 0 0 90 c0 72 -3 92 -15 96 -33 13 -45 -15 -45 -102 l0
-84 -35 0 -35 0 0 120 0 120 35 0 c19 0 35 -4 35 -9 0 -6 12 -3 28 4 28 15 58
12 79 -9z m218 -7 c17 -16 21 -35 23 -120 l4 -100 -44 1 c-23 1 -54 -1 -68 -5
-35 -9 -80 27 -80 64 0 39 19 60 70 75 33 10 46 19 48 35 4 28 -33 29 -50 1
-12 -19 -48 -27 -60 -14 -15 14 11 60 43 77 40 20 84 15 114 -14z m400 16 c37
-15 55 -46 55 -96 0 -29 0 -29 -59 -29 -65 0 -73 -5 -64 -38 6 -26 53 -32 53
-7 0 11 11 15 36 15 32 0 35 -2 29 -22 -4 -13 -18 -34 -33 -47 -21 -19 -33
-22 -65 -18 -59 8 -80 35 -85 107 -5 75 11 118 52 136 39 17 40 17 81 -1z
m198 1 c15 -8 27 -11 27 -5 0 5 14 9 30 9 l30 0 0 -149 c0 -134 -2 -151 -20
-174 -41 -52 -147 -44 -170 13 -7 16 -9 34 -5 39 10 18 44 12 57 -9 26 -41 78
-15 78 40 0 17 -3 19 -19 10 -36 -19 -78 -12 -100 16 -16 21 -21 41 -21 90 0
72 13 107 44 122 29 14 37 14 69 -2z m285 -22 c19 -22 22 -36 22 -120 l0 -95
-42 1 c-24 1 -55 -1 -70 -5 -21 -6 -32 -2 -52 18 -48 48 -29 99 44 121 33 10
46 19 48 35 4 28 -33 29 -50 1 -12 -19 -48 -27 -60 -14 -15 14 11 60 43 77 43
22 86 16 117 -19z m-3048 -94 l0 -120 -35 0 -35 0 0 113 c0 63 3 117 7 120 3
4 19 7 35 7 l28 0 0 -120z m2271 103 c0 -10 8 -43 18 -73 l17 -55 19 73 c18
70 20 72 51 72 l32 0 -24 -82 c-79 -281 -76 -273 -113 -276 -28 -3 -33 -1 -27
14 28 74 28 99 -3 207 -18 59 -34 113 -37 122 -5 12 2 15 30 15 27 0 36 -4 37
-17z m-3506 -1293 c0 -23 -9 -28 -97 -57 -143 -47 -164 -50 -178 -23 -10 18
-9 25 2 36 20 20 197 73 238 71 30 -2 35 -5 35 -27z m5219 -533 c33 -91 58
-185 54 -203 -2 -14 -12 -19 -33 -19 -28 0 -30 3 -62 105 -37 119 -40 145 -16
158 26 15 41 4 57 -41z m-4656 -272 c2 -16 -6 -24 -33 -34 -48 -17 -99 -63
-120 -108 -24 -50 -21 -101 20 -397 19 -138 40 -285 45 -326 6 -41 24 -169 40
-285 17 -115 39 -280 50 -365 27 -202 39 -269 55 -300 28 -54 95 -96 170 -107
38 -5 45 -9 45 -28 0 -20 -6 -23 -67 -29 -38 -4 -108 -13 -158 -21 -157 -25
-385 -55 -420 -55 -55 0 -46 30 18 61 38 18 61 38 86 74 l33 50 -5 100 c-3 55
-19 195 -36 310 -17 116 -33 228 -36 250 -3 22 -10 72 -16 110 -5 39 -21 155
-35 260 -28 219 -41 308 -55 384 -5 30 -9 68 -9 85 0 50 -25 132 -51 170 -30
44 -86 76 -147 84 -37 6 -48 12 -50 27 -3 19 16 23 320 67 178 25 330 45 338
45 8 -1 16 -11 18 -22z m3115 -201 c59 -20 141 -93 172 -153 33 -67 43 -109
70 -313 13 -101 29 -214 35 -253 5 -38 19 -135 30 -214 21 -149 36 -192 77
-210 37 -17 95 -13 137 10 35 18 40 19 54 5 14 -13 8 -22 -54 -83 -90 -90
-147 -118 -239 -118 -59 0 -76 4 -108 27 -82 56 -107 122 -137 362 -12 89 -23
168 -25 176 -2 8 -16 103 -30 210 -31 234 -47 300 -80 345 -77 100 -242 62
-405 -95 -104 -100 -190 -205 -190 -232 0 -12 4 -49 9 -82 11 -69 20 -134 56
-401 29 -215 37 -243 72 -285 l25 -30 -40 -48 c-73 -87 -63 -83 -347 -121
-118 -16 -125 -15 -125 14 0 16 6 25 16 25 31 0 94 44 121 83 47 68 42 133
-58 821 -20 138 -39 195 -76 228 -29 26 -105 58 -140 58 -28 0 -33 4 -33 25 0
14 1 25 3 25 1 0 94 34 206 74 111 41 212 76 224 78 19 3 22 -3 28 -47 4 -27
15 -110 24 -182 10 -73 21 -133 26 -133 4 0 24 24 43 53 33 50 85 115 173 216
63 73 173 150 243 172 46 14 194 10 243 -7z m-1678 -247 c74 -37 141 -116 170
-196 12 -36 67 -399 109 -733 9 -65 22 -130 30 -145 32 -64 87 -84 157 -58 75
28 78 28 85 11 4 -11 -13 -36 -55 -79 -53 -54 -63 -60 -78 -49 -71 50 -264
111 -354 112 -26 0 -27 3 -39 88 -57 424 -102 734 -111 767 -37 137 -145 175
-293 101 -89 -44 -144 -91 -258 -224 -80 -93 -88 -106 -83 -135 3 -18 19 -131
36 -252 17 -121 37 -265 44 -320 8 -55 17 -110 21 -122 4 -15 2 -23 -6 -23
-30 0 -231 -109 -303 -164 -116 -89 -115 -89 -132 -82 -33 12 -14 41 45 69 67
32 108 86 117 155 4 29 -20 227 -52 432 -2 14 -11 77 -19 140 -35 262 -39 286
-62 332 -28 56 -95 100 -164 108 -39 4 -45 8 -45 29 0 20 12 27 95 58 52 19
118 43 145 53 28 10 82 30 120 44 68 25 95 31 95 21 0 -7 40 -297 46 -335 l6
-35 19 25 c214 275 232 295 309 354 84 62 166 88 270 83 66 -3 96 -10 135 -30z
m-3084 -1303 c10 -13 10 -22 0 -52 -8 -20 -17 -42 -22 -48 -5 -6 -21 -33 -35
-60 -32 -62 -61 -89 -80 -73 -23 19 -16 48 32 138 58 108 78 127 105 95z
m4535 7 c-3 -5 2 -8 11 -7 10 0 19 -7 21 -18 3 -13 0 -16 -9 -11 -9 6 -11 3
-6 -7 3 -10 -3 -24 -15 -35 -11 -10 -42 -50 -69 -89 -26 -39 -54 -78 -61 -85
-14 -14 -76 -117 -121 -201 -14 -26 -28 -61 -32 -78 -6 -29 -5 -30 27 -30 18
0 42 -7 52 -15 11 -8 27 -15 35 -15 38 -1 44 -16 22 -56 -56 -106 -119 -136
-201 -94 -51 26 -70 55 -70 107 0 41 -1 43 -29 43 -54 0 -79 -16 -87 -54 -7
-41 -68 -114 -119 -146 -29 -18 -44 -21 -85 -15 -28 4 -57 14 -65 22 -21 20
-19 76 5 118 33 59 31 61 -68 39 -19 -4 -36 -14 -39 -23 -18 -58 -43 -97 -90
-142 l-55 -52 -60 6 c-67 6 -75 10 -87 54 -7 23 -4 40 13 74 37 79 66 109 102
109 26 0 36 6 46 28 16 34 49 39 91 15 28 -16 49 -18 159 -15 124 4 126 5 132
28 5 20 12 24 47 24 22 0 50 -7 62 -14 17 -12 36 -13 80 -7 62 8 78 21 98 81
16 48 105 203 135 235 13 14 23 28 23 30 0 26 169 205 193 205 10 0 17 -4 14
-9z m-1331 -158 c52 -17 139 -95 156 -140 27 -71 5 -161 -67 -269 -57 -87
-174 -194 -211 -194 -12 0 -23 -8 -26 -20 -14 -54 -357 -220 -456 -220 -40 0
-37 20 5 33 16 6 31 13 34 17 3 4 21 15 40 25 19 10 37 21 40 24 3 4 68 47
145 95 146 92 216 145 275 206 101 104 140 171 147 250 7 70 -6 91 -66 111
-53 18 -252 15 -336 -6 -114 -27 -107 -24 -100 -55 5 -21 -5 -51 -43 -126 -66
-132 -147 -338 -177 -447 -7 -28 -18 -66 -23 -83 -8 -24 -7 -35 5 -46 12 -13
11 -19 -7 -51 -17 -29 -28 -37 -50 -37 -48 0 -63 25 -57 89 15 137 142 471
249 654 l28 47 -28 -6 c-48 -10 -225 -102 -289 -150 -61 -45 -74 -66 -53 -79
19 -12 10 -25 -19 -25 -35 0 -66 40 -57 76 4 13 29 45 56 71 116 111 309 202
550 258 83 20 276 19 335 -2z m550 -955 c-23 -68 -8 -256 45 -578 5 -30 11
-80 15 -110 3 -30 10 -84 15 -120 5 -36 28 -198 50 -360 58 -418 67 -475 83
-507 34 -64 113 -113 182 -113 30 0 35 -3 35 -23 0 -21 -7 -25 -67 -35 -38 -7
-124 -19 -193 -27 -69 -9 -187 -25 -263 -35 -76 -11 -142 -20 -147 -20 -6 0
-10 11 -10 25 0 20 6 27 30 31 38 8 103 64 124 108 21 45 20 111 -4 286 -23
161 -33 234 -85 620 -19 146 -40 292 -45 325 -14 86 -48 339 -56 413 -7 68
-19 80 -29 30 -4 -18 -29 -114 -55 -213 -27 -99 -75 -286 -109 -415 -33 -129
-67 -260 -76 -290 -8 -30 -26 -98 -39 -150 -44 -171 -94 -365 -152 -587 -31
-120 -59 -228 -61 -240 -4 -15 -14 -22 -39 -25 -42 -5 -47 -2 -69 42 -10 19
-39 71 -65 115 -26 44 -92 157 -147 250 -55 94 -126 215 -158 270 -32 55 -70
120 -85 145 -15 25 -87 149 -160 275 -73 127 -152 262 -175 300 -24 39 -50 85
-59 103 -40 79 -41 82 74 -738 27 -195 56 -411 65 -480 9 -69 23 -146 31 -171
23 -73 86 -121 177 -134 40 -6 47 -11 47 -30 0 -21 -6 -23 -97 -35 -54 -6
-154 -20 -223 -30 -69 -10 -128 -16 -132 -13 -5 2 -8 12 -8 22 0 12 15 24 44
35 56 21 111 82 127 138 10 36 8 69 -11 203 -12 88 -35 257 -50 375 -16 118
-43 310 -59 426 -17 116 -40 283 -51 370 -28 215 -33 238 -63 283 -30 45 -113
91 -164 91 -34 0 -55 23 -37 40 5 4 63 15 129 24 66 9 154 21 195 27 61 9 76
8 83 -3 60 -100 408 -700 435 -748 20 -36 40 -66 44 -68 4 -2 8 -8 8 -13 0 -5
20 -42 44 -82 24 -39 51 -88 61 -107 10 -19 21 -37 24 -40 4 -3 35 -54 70
-115 116 -205 202 -350 215 -363 11 -11 16 -2 30 50 9 35 30 115 47 178 16 63
48 185 70 270 22 85 51 196 64 245 13 50 49 189 80 310 31 121 60 234 66 251
5 17 11 40 13 50 8 35 68 259 72 266 2 3 43 9 92 13 48 4 107 13 132 20 25 8
65 14 89 14 41 1 43 0 36 -21z m1255 -368 c85 -21 290 -112 290 -129 0 -5 -91
-107 -201 -228 -111 -120 -247 -267 -303 -328 -55 -60 -132 -143 -171 -183
-38 -41 -69 -79 -67 -84 8 -27 73 -109 134 -169 137 -134 310 -191 421 -139
85 40 141 133 162 268 4 23 10 42 14 42 15 0 126 -41 134 -49 12 -12 -53 -114
-112 -174 -157 -164 -388 -228 -606 -168 -116 32 -206 84 -299 172 -166 157
-247 362 -233 583 10 152 50 264 136 380 83 112 210 192 348 221 89 19 243 12
353 -15z m-4363 -1098 c12 -8 73 -197 73 -226 0 -9 -10 -20 -21 -27 -32 -17
-44 2 -80 124 -26 87 -29 110 -19 122 14 17 29 19 47 7z m5193 -677 c0 -20
-11 -26 -82 -48 -46 -14 -99 -30 -119 -35 -54 -14 -84 9 -60 46 7 12 114 49
206 71 36 9 55 -3 55 -34z"/>
<path d="M6613 9773 c-20 -4 -23 -11 -23 -51 l0 -47 85 0 85 0 0 46 c0 40 -3
48 -22 53 -25 6 -90 6 -125 -1z"/>
<path d="M4828 4500 c-79 -20 -144 -82 -184 -175 -22 -50 -25 -242 -5 -325 36
-151 109 -340 131 -340 5 0 15 8 22 19 12 17 134 148 341 368 138 147 149 176
101 272 -48 97 -186 181 -304 187 -36 2 -82 -1 -102 -6z"/>
</g>
</svg>
