<?xml version="1.0" standalone="no"?>
<!DOCTYPE svg PUBLIC "-//W3C//DTD SVG 20010904//EN"
 "http://www.w3.org/TR/2001/REC-SVG-20010904/DTD/svg10.dtd">
<svg version="1.0" xmlns="http://www.w3.org/2000/svg"
 width="720.000000pt" height="1280.000000pt" viewBox="0 0 720.000000 1280.000000"
 preserveAspectRatio="xMidYMid meet">
<metadata>
Created by potrace 1.16, written by Peter Selinger 2001-2019
</metadata>
<g transform="translate(0.000000,1280.000000) scale(0.100000,-0.100000)"
fill="#000000" stroke="none">
<path d="M0 6400 l0 -6400 3600 0 3600 0 0 2285 0 2285 -27 1 c-16 0 -152 1
-303 3 -263 2 -298 5 -329 32 -3 2 5 14 16 27 15 16 18 28 13 42 -5 11 -9 14
-9 7 -1 -10 -8 -9 -31 3 -36 19 -40 19 -40 0 0 -8 -9 -24 -20 -35 -11 -11 -20
-30 -20 -43 0 -13 -3 -27 -7 -30 -10 -11 -33 13 -33 34 0 26 -13 24 -25 -3 -9
-22 -16 -23 -110 -23 -108 0 -106 -1 -90 57 5 21 3 27 -14 33 -19 6 -21 11
-15 56 6 45 5 49 -12 43 -38 -12 -69 -29 -88 -47 -18 -18 -19 -18 -33 2 -8 12
-18 19 -23 16 -4 -3 -15 -2 -24 1 -12 5 -13 11 -6 24 6 10 10 30 10 44 0 29
10 32 43 15 16 -9 22 -9 25 0 2 6 12 11 22 11 10 0 20 9 23 21 4 16 3 18 -8 9
-8 -6 -24 -10 -37 -8 -21 3 -23 7 -20 49 4 49 -10 71 -26 43 -6 -11 -16 -15
-27 -10 -14 5 -16 14 -11 49 4 24 3 37 -2 29 -15 -22 -58 46 -54 86 3 34 15
38 84 34 22 -2 29 3 34 24 4 14 2 36 -4 49 -8 16 -7 26 1 35 9 10 9 14 0 17
-7 3 -13 13 -13 24 0 10 -7 19 -15 19 -16 0 -31 -62 -20 -80 9 -14 -40 -60
-64 -60 -13 0 -18 7 -17 23 1 15 7 22 21 22 11 0 21 8 23 18 2 10 0 17 -5 16
-23 -4 -44 3 -49 16 -10 24 18 75 41 75 31 0 42 12 40 45 -2 25 -6 30 -29 30
-21 -1 -26 4 -26 22 0 18 6 23 24 23 20 0 25 6 28 33 3 27 -1 36 -19 44 -31
15 -40 1 -48 -80 -7 -62 -9 -68 -29 -65 -13 2 -22 11 -24 26 -4 26 -37 30 -46
6 -4 -9 -4 -19 -1 -22 3 -3 5 -1 5 4 1 5 7 -2 14 -16 12 -21 12 -29 -1 -53 -8
-16 -13 -37 -10 -47 3 -14 -1 -17 -20 -16 -24 1 -25 3 -21 59 3 42 1 57 -9 57
-7 0 -13 -10 -13 -23 0 -13 -4 -27 -9 -33 -13 -14 -20 -79 -10 -95 5 -8 9 -10
9 -5 0 5 7 3 15 -4 32 -27 -5 -147 -41 -133 -11 4 -14 -7 -15 -48 0 -30 -2
-63 -5 -74 -11 -57 -9 -70 9 -67 28 5 45 -16 53 -63 8 -54 -11 -90 -81 -157
-53 -51 -65 -57 -65 -33 0 8 -11 17 -24 21 -13 3 -41 23 -62 45 -42 43 -63 48
-87 21 -14 -16 -15 -27 -6 -80 17 -97 24 -93 -163 -90 l-163 3 -3 158 -3 157
-195 0 c-187 0 -195 -1 -202 -20 -6 -16 -18 8 -52 102 -24 68 -52 142 -62 166
l-18 43 -112 -3 -112 -3 -43 -115 c-24 -63 -71 -191 -104 -285 -34 -93 -64
-176 -66 -182 -3 -9 -26 -13 -64 -13 -32 0 -59 2 -59 4 0 2 12 25 28 52 l27
49 3 248 3 248 -98 -3 -98 -3 -5 -225 -5 -225 -29 0 c-27 0 -39 11 -49 45 -4
12 -22 14 -101 12 -93 -3 -96 -4 -96 -26 0 -36 27 -106 56 -143 l25 -33 -122
0 -122 0 41 44 c60 65 66 99 67 341 l0 210 -97 3 -97 3 -3 -204 c-3 -217 -6
-229 -55 -248 -13 -5 -37 -6 -53 -2 -54 10 -60 38 -60 258 l0 195 -101 0 -101
0 4 -222 c3 -202 5 -227 24 -268 12 -25 33 -56 48 -69 14 -14 26 -28 26 -32 0
-5 -42 -10 -92 -11 l-93 -3 -5 -46 c-4 -38 -8 -46 -23 -43 -29 4 -33 14 -9 21
17 4 22 13 22 39 l0 34 -140 0 -141 0 3 78 3 77 45 3 c186 11 270 83 270 230
0 58 -4 75 -29 114 -42 67 -99 91 -223 96 l-98 4 0 309 0 309 40 0 40 0 0 124
0 125 53 3 c50 3 52 4 52 33 0 17 -6 31 -12 31 -7 1 -49 2 -93 3 l-80 1 0 140
0 140 -187 3 -188 2 188 3 187 2 0 155 0 155 154 0 155 0 4 53 3 52 2 -52 2
-53 588 0 589 0 6 -172 c9 -253 -6 -295 -99 -284 l-51 6 -16 -67 c-19 -80 -17
-83 66 -83 102 0 175 56 217 166 18 49 22 87 27 245 l6 188 91 3 c50 2 112 1
139 0 l47 -4 -41 -46 c-48 -55 -77 -108 -95 -177 -54 -199 48 -374 217 -375
31 0 73 7 93 15 l36 15 2 -622 3 -623 196 -3 196 -2 5 128 c3 70 3 372 0 671
l-5 542 22 6 c11 3 21 12 21 20 0 7 11 25 25 39 33 32 32 52 -2 56 -23 2 -28
8 -30 32 -1 16 -6 32 -10 35 -12 9 -16 29 -17 94 -2 73 5 84 32 52 24 -28 72
-35 72 -10 0 8 -9 20 -20 27 -21 13 -27 38 -10 38 6 0 10 14 10 30 0 27 3 30
33 31 l32 1 -32 9 c-18 5 -33 12 -33 14 0 3 75 5 166 4 99 -1 161 -5 153 -10
-8 -5 -26 -9 -40 -9 -34 0 -40 -8 -26 -31 8 -14 9 -22 1 -27 -6 -4 -13 -15
-17 -24 -5 -15 -1 -18 23 -18 23 0 30 4 30 20 0 11 6 20 13 20 7 0 23 18 36
40 l22 40 172 1 c296 3 421 -1 445 -13 18 -9 28 -9 42 0 11 7 55 12 100 12
l80 0 0 -45 c0 -25 4 -45 8 -45 5 0 18 -9 30 -20 24 -23 30 -60 9 -60 -42 0
-64 -103 -35 -165 9 -21 9 -28 -1 -34 -10 -6 -8 -10 5 -15 11 -4 20 -2 22 3 2
6 25 11 51 11 47 0 48 0 70 49 13 27 21 57 17 68 -3 10 0 27 8 38 7 10 11 27
8 37 -5 22 -38 24 -50 2 -5 -9 -18 -14 -32 -12 -19 2 -26 11 -32 40 -7 35 -5
41 37 85 42 46 43 48 22 55 -12 3 46 6 128 7 135 0 147 -1 124 -14 -15 -8 -29
-24 -32 -36 -5 -20 -7 -20 -22 -5 -19 19 -25 19 -45 3 -26 -20 -53 -105 -56
-172 -4 -117 -18 -215 -28 -205 -19 19 -28 10 -22 -25 4 -20 3 -35 -2 -35 -6
0 -13 -11 -16 -25 -4 -14 -10 -25 -16 -25 -13 0 -22 37 -15 60 8 26 -7 26 -23
0 -7 -12 -17 -18 -22 -15 -6 4 -13 -1 -16 -9 -3 -9 -12 -16 -20 -16 -10 0 -14
-15 -14 -60 0 -50 3 -60 18 -61 15 0 15 -1 -2 -8 -14 -5 -16 -10 -7 -15 6 -4
17 -3 24 2 7 6 15 10 20 11 4 0 24 5 45 11 20 5 51 10 69 10 17 0 34 4 38 10
6 9 24 6 61 -12 12 -5 31 -8 43 -6 22 3 22 4 -8 34 -29 30 -33 31 -77 23 -34
-7 -51 -5 -65 5 -19 13 -19 14 5 30 14 9 30 16 36 16 7 0 9 8 5 20 -5 15 0 22
19 30 34 13 59 2 53 -21 -3 -11 -2 -19 1 -20 30 -3 46 -10 63 -25 20 -18 25
-49 9 -59 -5 -3 -10 -26 -10 -51 0 -28 -4 -44 -12 -44 -7 0 -2 -9 12 -20 16
-13 41 -20 69 -20 24 0 41 -3 37 -7 -3 -4 -24 -6 -45 -5 -22 2 -42 -2 -45 -7
-8 -13 49 -28 154 -42 47 -5 92 -13 100 -16 8 -3 22 -5 30 -4 13 1 13 0 0 -11
-8 -7 -16 -23 -18 -34 -3 -25 27 -34 109 -34 l49 0 0 50 0 49 -62 4 -63 3 63
2 62 2 0 436 0 436 -527 -2 c-291 -1 -554 -2 -585 -1 l-58 1 0 1075 0 1075
585 0 585 0 0 1925 0 1925 -3600 0 -3600 0 0 -6400z m6796 3680 c151 -69 198
-267 95 -405 -25 -34 -27 -41 -14 -50 14 -10 14 -14 -1 -37 -26 -40 -88 -50
-140 -23 -24 13 -38 13 -90 3 -107 -20 -145 -17 -172 17 -21 27 -21 30 -6 41
16 11 15 14 -5 36 -56 60 -79 178 -51 269 23 77 102 146 195 169 50 12 138 3
189 -20z m-653 4 c29 -10 64 -34 92 -62 124 -125 89 -333 -68 -412 -134 -67
-310 -20 -371 98 -46 89 -41 199 13 284 41 65 129 108 221 108 36 0 87 -7 113
-16z m-5834 -111 c15 -56 71 -300 71 -307 0 -3 -16 -6 -35 -6 -30 0 -35 3 -35
24 0 34 -23 49 -64 42 -27 -5 -35 -12 -40 -36 -5 -26 -10 -30 -40 -30 l-34 0
14 58 c7 31 25 110 40 175 l28 117 42 0 c41 0 44 -2 53 -37z m403 -55 l3 -93
25 37 c20 31 31 38 58 38 17 0 32 -3 32 -6 0 -4 -16 -28 -35 -53 -30 -41 -33
-50 -21 -67 7 -10 25 -40 40 -66 l27 -48 -35 0 c-30 0 -38 5 -57 40 -26 45
-39 43 -39 -6 0 -31 -2 -34 -30 -34 l-30 0 0 175 0 175 30 0 29 0 3 -92z
m1738 -83 l0 -176 -42 1 c-24 1 -55 -1 -69 -5 -19 -5 -33 -1 -55 18 -28 24
-29 29 -29 106 1 69 4 85 22 102 22 22 54 28 91 15 21 -7 22 -5 22 53 l0 61
30 0 30 0 0 -175z m452 83 l3 -92 25 37 c20 30 31 37 58 37 30 0 42 -12 24
-24 -5 -3 -21 -23 -36 -44 l-27 -40 40 -66 41 -66 -35 0 c-30 0 -39 6 -62 43
l-28 42 -3 -42 c-3 -42 -4 -43 -38 -43 l-34 0 0 175 0 175 35 0 34 0 3 -92z
m728 27 l0 -66 30 16 c33 17 60 13 85 -11 11 -12 15 -40 15 -120 l0 -104 -30
0 -30 0 0 90 c0 75 -3 92 -16 97 -37 14 -49 -10 -52 -101 l-3 -86 -29 0 -30 0
0 175 0 175 30 0 30 0 0 -65z m530 4 c0 -58 1 -60 23 -53 76 26 107 -8 107
-118 0 -71 -2 -81 -26 -105 -20 -20 -31 -24 -52 -18 -15 4 -46 6 -69 5 l-43
-1 0 176 0 175 30 0 30 0 0 -61z m-1480 -9 c0 -38 2 -40 30 -40 25 0 30 -4 30
-25 0 -21 -5 -25 -30 -25 l-31 0 3 -67 c3 -66 4 -68 31 -71 21 -3 27 -8 23
-19 -3 -8 -6 -19 -6 -24 0 -16 -73 -10 -92 8 -14 13 -18 31 -18 90 0 66 -2 75
-20 80 -13 3 -20 14 -20 29 0 17 6 24 20 24 17 0 20 7 20 40 0 38 2 40 30 40
28 0 30 -2 30 -40z m-2096 -61 c24 -23 34 -121 17 -172 -15 -44 -59 -66 -97
-48 -14 6 -27 11 -29 11 -3 0 -5 -30 -5 -66 l0 -65 -27 3 -28 3 -3 179 -2 179
37 -5 c21 -3 47 -2 58 3 26 10 55 2 79 -22z m405 20 c17 -6 36 -19 41 -29 6
-10 10 -62 10 -115 l0 -97 -32 3 c-18 1 -48 -1 -66 -5 -50 -12 -82 13 -82 64
0 44 20 64 83 81 28 7 37 15 35 27 -5 26 -48 28 -55 3 -4 -14 -13 -21 -29 -21
-65 0 -15 96 52 99 6 1 25 -4 43 -10z m290 0 c38 -14 51 -35 51 -88 l0 -41
-61 0 c-60 0 -60 0 -57 -27 3 -32 44 -46 54 -19 4 10 18 16 35 16 35 0 39 -25
10 -61 -27 -34 -99 -34 -135 0 -23 22 -26 32 -26 96 0 79 20 120 63 128 12 2
25 5 28 6 3 0 20 -4 38 -10z m198 0 c32 -12 43 -26 43 -56 0 -31 -45 -33 -53
-2 -7 24 -40 23 -45 -2 -2 -10 9 -21 30 -29 75 -30 98 -83 59 -131 -40 -50
-151 -22 -151 38 0 18 5 23 26 23 18 0 28 -6 31 -21 7 -26 48 -23 48 4 0 12
-16 26 -45 40 -89 43 -75 132 22 146 4 1 19 -4 35 -10z m197 -3 c31 -13 53
-55 38 -71 -14 -14 -50 -3 -55 16 -4 13 -12 20 -24 17 -29 -5 -21 -32 15 -50
73 -36 92 -81 53 -129 -15 -19 -29 -24 -66 -24 -37 0 -51 5 -66 24 -29 36 -25
61 10 61 21 0 30 -6 34 -21 7 -25 40 -22 45 3 2 12 -11 24 -43 39 -74 35 -85
107 -21 135 39 17 40 17 80 0z m205 3 c17 -6 36 -19 41 -29 6 -10 10 -62 10
-115 l0 -97 -32 3 c-18 1 -48 -1 -66 -5 -50 -12 -82 13 -82 64 0 44 20 64 83
81 28 7 37 15 35 27 -5 25 -45 27 -58 3 -14 -27 -60 -29 -60 -3 0 36 46 79 86
81 6 1 25 -4 43 -10z m318 -21 c17 -16 23 -33 23 -65 l0 -43 -61 0 c-60 0 -60
0 -57 -27 3 -32 44 -46 54 -19 8 20 64 22 64 2 0 -69 -102 -98 -158 -45 -19
17 -22 31 -22 98 0 68 3 80 23 98 12 11 29 23 37 26 25 10 73 -2 97 -25z
m1001 -4 c18 -21 22 -36 22 -98 0 -65 -3 -75 -26 -97 -35 -33 -104 -34 -136
-2 -27 28 -37 127 -17 174 24 60 111 73 157 23z m240 8 c8 -10 12 -52 12 -119
l0 -103 -30 0 -30 0 0 90 c0 75 -3 92 -17 97 -32 12 -53 -32 -53 -113 l0 -74
-30 0 -30 0 0 120 0 120 29 0 c16 0 31 -5 33 -11 2 -6 14 -5 33 5 33 17 63 13
83 -12z m529 -4 c17 -16 23 -33 23 -65 l0 -43 -61 0 c-60 0 -60 0 -57 -27 3
-32 44 -46 54 -19 4 10 18 16 35 16 22 0 29 -5 29 -20 0 -42 -64 -79 -115 -66
-52 13 -65 39 -65 124 0 69 3 81 23 99 12 11 29 23 37 26 25 10 73 -2 97 -25z
m540 8 c7 -6 14 -56 17 -118 l6 -108 -35 0 -35 0 0 90 c0 72 -3 92 -15 96 -33
13 -45 -15 -45 -102 l0 -84 -35 0 -35 0 0 120 0 120 35 0 c19 0 35 -4 35 -9 0
-6 12 -3 28 4 28 15 58 12 79 -9z m218 -7 c17 -16 21 -36 23 -120 l4 -100 -44
1 c-23 1 -54 -1 -68 -5 -35 -9 -80 27 -80 64 0 39 19 60 70 75 33 10 46 19 48
35 4 28 -33 29 -50 1 -12 -19 -48 -27 -60 -14 -15 14 11 60 43 77 40 21 85 16
114 -14z m394 20 c36 -13 61 -53 61 -99 l0 -30 -59 0 c-65 0 -73 -5 -64 -38 6
-26 53 -32 53 -7 0 11 11 15 36 15 32 0 35 -2 29 -22 -4 -13 -18 -34 -33 -47
-21 -19 -33 -22 -65 -18 -59 8 -80 35 -85 107 -5 75 11 118 52 136 38 16 36
16 75 3z m204 -3 c15 -8 27 -11 27 -5 0 5 14 9 31 9 l30 0 -3 -155 c-3 -145
-4 -156 -26 -177 -17 -18 -34 -23 -73 -23 -43 0 -54 4 -75 29 -14 15 -24 36
-22 45 5 25 45 26 60 2 27 -43 78 -16 78 40 0 18 -3 20 -12 11 -7 -7 -29 -12
-49 -12 -55 0 -79 34 -79 114 0 85 8 106 44 122 39 17 36 17 69 0z m285 -22
c19 -22 22 -36 22 -120 l0 -95 -42 1 c-24 1 -55 -1 -70 -5 -21 -6 -32 -2 -52
18 -48 48 -29 99 44 121 33 10 46 19 48 35 4 28 -33 29 -50 1 -7 -11 -23 -20
-36 -20 -20 0 -23 4 -20 33 6 65 108 86 156 31z m-3048 -94 l0 -120 -35 0 -35
0 0 113 c0 63 3 117 7 120 3 4 19 7 35 7 l28 0 0 -120z m2280 63 c19 -90 25
-92 45 -14 18 69 20 71 51 71 l32 0 -24 -82 c-79 -281 -76 -273 -113 -276 -28
-3 -33 -1 -27 14 28 74 28 99 -3 207 -18 59 -34 113 -37 122 -5 12 2 15 28 15
34 0 35 -1 48 -57z m792 -1965 c2 -590 1 -1076 -3 -1081 -6 -8 -2136 -10
-2150 -2 -5 4 -9 460 -9 1080 l0 1075 1080 0 1079 0 3 -1072z m-3524 -1308
l-5 -150 31 -9 31 -9 -27 -1 c-20 -1 -29 -7 -33 -23 -3 -13 -5 -349 -3 -748
l3 -725 220 -5 220 -6 -222 -2 -222 -2 -3 -157 -3 -158 -653 -3 c-437 -1 -651
1 -647 8 4 7 -50 11 -157 12 -132 1 -147 3 -78 7 82 6 80 6 -78 15 -89 5 -162
12 -162 17 0 5 -29 9 -65 9 -57 0 -69 -3 -91 -25 -18 -18 -21 -27 -12 -30 7
-3 107 -6 223 -8 204 -2 202 -2 -62 -5 -149 -1 -274 2 -277 6 -3 5 8 6 25 4
17 -3 29 0 29 7 0 6 -6 11 -14 11 -8 0 -17 6 -19 13 -4 9 -8 8 -16 -3 -8 -11
-11 296 -11 1047 l0 1063 657 2 c362 2 831 2 1042 0 l384 -2 -5 -150z m2552 2
c22 -22 29 -41 35 -93 4 -35 12 -67 19 -71 8 -6 7 -8 -1 -8 -7 0 -13 -11 -13
-25 0 -63 -53 -125 -105 -125 -35 0 -83 32 -104 71 -20 35 -23 51 -19 130 3
88 4 92 36 120 45 41 111 41 152 1z m1295 -1695 c1 -23 5 -51 10 -62 4 -11 5
-17 1 -13 -4 3 -20 2 -36 -3 -19 -7 -30 -19 -34 -40 -4 -21 -11 -29 -26 -29
-11 0 -20 -4 -20 -10 0 -13 -32 0 -47 19 -18 23 -16 56 5 75 18 15 20 15 34
-1 9 -10 18 -27 21 -38 3 -13 5 -8 6 13 1 33 43 121 64 134 17 10 22 0 22 -45z
m-5104 -712 c-2 -198 -5 -362 -7 -364 -2 -2 -10 2 -19 9 -12 10 -20 9 -40 -4
-14 -9 -25 -23 -25 -30 0 -21 -122 -38 -133 -18 -2 4 0 102 5 217 13 282 -8
433 -62 450 -11 4 -20 12 -19 18 3 27 -2 47 -12 47 -5 0 -8 -4 -4 -9 3 -5 0
-13 -6 -16 -7 -5 -9 3 -7 21 l3 29 140 6 c77 3 151 5 165 5 l25 -1 -4 -360z
m1296 343 c353 -2 644 -5 647 -9 9 -8 -9 -62 -22 -67 -7 -2 -12 5 -12 15 0 15
-2 16 -10 3 -5 -8 -10 -40 -10 -70 0 -48 4 -59 29 -83 16 -15 39 -27 51 -27
33 0 80 -41 106 -92 28 -55 42 -66 51 -41 4 10 11 21 15 24 5 3 10 81 10 172
l2 165 29 6 c16 3 146 6 288 6 l259 0 2 -562 c2 -310 2 -796 0 -1080 l-2 -518
-319 0 c-349 0 -381 3 -381 31 0 11 -2 19 -4 19 -2 0 -11 3 -19 6 -10 3 -17
-3 -21 -19 -6 -24 -9 -25 -123 -29 -65 -3 -121 -3 -125 -1 -4 2 -5 10 -2 18 4
8 10 13 14 10 13 -8 8 39 -5 47 -22 16 -37 8 -31 -16 13 -54 8 -56 -174 -56
l-168 0 -5 33 c-22 123 -37 200 -41 204 -3 3 -8 -11 -11 -30 -5 -26 -2 -45 12
-68 13 -24 15 -33 6 -36 -8 -3 -13 -24 -13 -54 0 -44 -2 -49 -22 -49 -39 0
-68 12 -68 26 0 8 -10 14 -24 14 -13 0 -29 7 -36 15 -7 8 -16 12 -21 9 -5 -3
-9 16 -9 43 0 74 -19 91 -21 18 0 -33 -3 -55 -5 -49 -3 6 -16 9 -29 6 -19 -3
-25 1 -30 20 -3 13 -22 36 -41 51 l-34 28 0 -55 c0 -42 -4 -57 -17 -65 -16 -9
-16 -12 -3 -21 8 -5 21 -8 28 -5 18 6 42 -5 42 -20 0 -9 -17 -13 -56 -14 l-56
0 5 32 c5 32 18 83 30 122 6 17 2 20 -28 21 -20 0 -36 -5 -39 -13 -16 -40 -62
9 -52 55 3 15 3 21 0 15 -3 -7 -15 -13 -27 -13 -12 0 -28 -9 -35 -21 -7 -12
-16 -19 -19 -16 -2 3 -20 -1 -39 -9 -27 -12 -38 -12 -54 -2 -22 14 -27 53 -7
65 7 4 20 20 30 36 12 19 26 27 46 27 17 0 34 8 42 19 13 18 40 25 77 22 6 -1
12 -10 12 -21 0 -11 7 -20 15 -20 9 0 15 9 15 25 0 18 -5 25 -20 25 -15 0 -20
7 -20 25 0 14 -4 25 -9 25 -6 0 -21 11 -35 24 -26 23 -35 69 -17 80 8 5 4 46
-5 46 -1 0 -15 -5 -31 -12 -44 -17 -53 -17 -62 0 -14 27 -2 42 34 42 54 0 65
8 65 49 l0 36 -95 2 c-53 1 -100 5 -105 8 -6 4 -10 273 -10 743 l0 738 38 -3
c20 -2 326 -4 679 -5z m2994 2 l739 0 0 -1080 0 -1080 -1080 0 -1080 0 0 513
c0 281 -1 766 -2 1077 l-3 565 330 5 c182 3 336 4 343 3 8 -2 346 -3 753 -3z
m-5078 -80 c12 0 36 8 52 18 25 14 47 16 142 12 136 -6 158 -19 157 -90 0 -25
-1 -84 -2 -132 l-2 -87 -42 -6 c-24 -3 -67 -7 -95 -8 -47 -2 -53 -4 -53 -24 0
-13 5 -23 11 -23 8 0 7 -6 -2 -17 -10 -11 -14 -43 -12 -110 1 -52 4 -97 7
-101 4 -3 13 3 20 14 13 16 18 17 35 7 12 -7 32 -13 47 -13 21 0 57 -13 73
-26 10 -9 -36 -84 -61 -99 -29 -17 -30 -17 -60 14 -33 33 -58 40 -58 16 0 -8
-4 -15 -9 -15 -5 0 -13 -10 -17 -22 -11 -35 -31 -49 -68 -46 -26 1 -39 -4 -55
-23 -11 -13 -21 -28 -21 -34 0 -5 -7 -1 -15 9 -12 15 -15 53 -15 169 0 154 7
187 40 187 11 0 20 4 20 9 0 5 25 36 55 67 30 32 55 63 55 69 0 26 -105 95
-144 95 -22 0 -25 21 -18 131 3 57 8 94 10 82 2 -16 10 -23 25 -23z m785
-1012 c3 -155 3 -161 -15 -147 -10 8 -22 20 -26 27 -4 6 -20 12 -34 12 -25 0
-79 28 -115 60 -72 64 -75 68 -70 99 2 17 8 31 12 31 5 0 6 10 3 23 -4 20 -3
20 7 4 9 -14 22 -18 53 -15 35 2 44 -1 52 -19 11 -25 46 -38 57 -20 4 7 8 25
8 41 0 16 3 26 7 23 3 -4 6 -28 6 -53 -1 -73 19 -36 25 46 3 52 8 68 16 60 7
-7 12 -71 14 -172z m-752 -364 c47 -50 55 -64 63 -113 17 -116 -10 -290 -49
-311 -25 -14 -63 -13 -78 2 -8 8 -12 68 -12 202 0 180 8 316 18 288 2 -6 28
-37 58 -68z m1462 -206 c7 -7 12 -36 12 -66 0 -43 -4 -59 -21 -73 -11 -10 -26
-16 -33 -13 -7 3 -17 -10 -24 -28 -6 -18 -20 -38 -31 -45 -19 -12 -19 -8 -20
92 -1 79 2 105 12 105 7 0 20 9 30 20 19 22 57 26 75 8z"/>
<path d="M6613 9773 c-20 -4 -23 -11 -23 -51 l0 -47 85 0 85 0 0 46 c0 40 -3
48 -22 53 -25 6 -90 6 -125 -1z"/>
<path d="M1620 6650 c0 -27 5 -50 10 -50 6 0 10 -9 10 -20 0 -18 7 -20 60 -20
53 0 60 2 60 20 0 18 7 20 80 20 l80 0 0 40 c0 33 3 40 20 40 11 0 20 5 20 10
0 6 -63 10 -170 10 l-170 0 0 -50z"/>
<path d="M130 6087 c0 -16 -6 -27 -13 -27 -29 0 -38 -43 -35 -174 3 -123 4
-129 27 -145 l24 -16 -7 44 c-4 25 -2 109 5 188 6 79 9 147 5 150 -3 4 -6 -6
-6 -20z"/>
<path d="M1752 5630 c0 -195 2 -349 5 -342 3 9 44 12 154 12 l149 0 0 310 0
310 -130 0 -130 0 0 -80 c0 -47 -4 -80 -10 -80 -6 0 -10 -33 -10 -80 0 -47 -4
-80 -10 -80 -6 0 -10 33 -10 80 0 47 4 80 10 80 6 0 10 33 10 80 0 44 -4 80
-9 80 -6 0 -12 15 -14 33 -2 17 -4 -128 -5 -323z"/>
<path d="M934 5687 c-6 -7 -13 -32 -17 -56 -7 -53 -33 -77 -59 -54 -12 11 -18
12 -18 4 0 -6 7 -14 15 -17 18 -7 20 -50 3 -56 -7 -3 -34 -4 -60 -3 -51 3 -52
-1 -15 -42 18 -20 30 -23 98 -23 l78 0 5 83 c3 45 8 103 11 130 6 42 5 47 -11
47 -11 -1 -24 -6 -30 -13z"/>
<path d="M1871 3063 c-6 -7 -11 -41 -11 -77 0 -55 3 -67 20 -76 12 -6 28 -9
38 -6 27 9 40 -6 35 -41 -4 -22 -12 -33 -27 -37 -27 -7 -48 -54 -57 -131 -4
-33 -10 -72 -14 -87 -5 -19 -4 -28 5 -28 7 0 10 7 6 16 -3 8 -2 12 4 9 6 -3
10 -2 10 3 0 5 13 7 30 4 28 -4 29 -3 24 29 -6 34 11 97 23 86 12 -12 34 47
28 74 -3 15 -10 64 -15 110 -5 58 -13 86 -24 95 -9 6 -18 25 -19 40 -1 22 -7
29 -23 29 -12 0 -27 -5 -33 -12z"/>
<path d="M6170 6496 c0 -2 12 -30 27 -62 20 -44 28 -77 29 -127 1 -40 7 -74
15 -83 18 -22 13 -56 -17 -122 -13 -29 -24 -58 -24 -65 -1 -30 -36 -57 -75
-59 -41 -1 -75 -27 -75 -56 0 -9 -8 -24 -17 -34 -13 -14 -14 -21 -5 -30 7 -7
12 -26 12 -42 0 -17 5 -38 10 -46 9 -13 11 -13 20 0 5 8 10 21 10 28 0 6 5 12
10 12 15 0 12 -57 -2 -63 -7 -3 3 -6 23 -6 19 -1 41 -7 48 -13 11 -11 15 -9
25 7 6 11 24 32 40 48 20 19 32 42 36 70 5 36 9 42 28 40 21 -3 22 0 16 38 -4
25 -2 49 6 64 7 14 10 35 6 52 -19 75 -23 119 -14 136 9 17 -6 80 -24 102 -4
5 -8 22 -8 38 0 52 -22 122 -48 150 -22 23 -52 37 -52 23z"/>
<path d="M2790 5960 l0 -160 131 0 130 0 -3 31 -3 32 -80 1 -80 1 -3 33 -3 32
75 0 76 0 0 30 0 30 -75 0 -75 0 0 30 0 30 85 0 85 0 0 35 0 35 -130 0 -130 0
0 -160z"/>
<path d="M6798 5703 c-22 -6 -25 -63 -5 -63 8 0 22 -9 32 -20 10 -11 23 -20
30 -20 7 0 20 -9 30 -20 10 -11 21 -18 25 -15 4 2 25 -5 46 -16 31 -16 50 -19
95 -14 43 4 59 2 69 -10 7 -8 28 -15 46 -15 l34 0 0 74 0 74 -47 5 c-27 3 -77
13 -113 23 -64 17 -208 27 -242 17z"/>
<path d="M3100 5425 l0 -155 45 0 45 0 0 65 c0 36 4 65 8 65 5 0 34 -29 66
-65 l57 -65 57 0 56 0 -57 58 -58 59 35 35 c39 39 44 66 20 103 -24 37 -83 55
-184 55 l-90 0 0 -155z"/>
<path d="M3480 5425 l0 -155 40 0 40 0 0 155 0 155 -40 0 -40 0 0 -155z"/>
</g>
</svg>
