<?xml version="1.0" standalone="no"?>
<!DOCTYPE svg PUBLIC "-//W3C//DTD SVG 20010904//EN"
 "http://www.w3.org/TR/2001/REC-SVG-20010904/DTD/svg10.dtd">
<svg version="1.0" xmlns="http://www.w3.org/2000/svg"
 width="720.000000pt" height="1280.000000pt" viewBox="0 0 720.000000 1280.000000"
 preserveAspectRatio="xMidYMid meet">
<metadata>
Created by potrace 1.16, written by Peter Selinger 2001-2019
</metadata>
<g transform="translate(0.000000,1280.000000) scale(0.100000,-0.100000)"
fill="#000000" stroke="none">
<path d="M0 6400 l0 -6400 3600 0 3600 0 0 1025 0 1025 -3590 0 -3590 0 0
3600 0 3600 3590 0 3590 0 0 1775 0 1775 -3600 0 -3600 0 0 -6400z m6797 3678
c150 -70 196 -256 98 -394 -30 -42 -32 -49 -18 -59 14 -11 14 -14 -1 -37 -27
-41 -84 -49 -143 -21 -33 15 -40 15 -108 -2 -83 -20 -114 -16 -150 23 -23 25
-24 28 -8 39 15 12 15 14 -5 35 -85 91 -82 269 6 361 77 82 220 105 329 55z
m-654 6 c51 -17 116 -76 141 -128 22 -46 30 -133 17 -182 -18 -66 -65 -128
-123 -159 -74 -40 -182 -47 -256 -15 -107 46 -170 155 -156 270 12 100 57 163
149 206 60 29 158 32 228 8z m-5806 -224 c52 -224 51 -200 11 -200 -29 0 -35
4 -43 32 -9 29 -14 32 -50 31 -36 0 -40 -3 -47 -31 -8 -28 -13 -32 -42 -32
l-34 0 14 58 c7 31 26 110 41 175 l28 118 44 -3 44 -3 34 -145z m373 58 l1
-93 30 38 c23 27 39 37 60 37 16 0 29 -3 29 -6 0 -4 -16 -27 -35 -53 l-34 -47
21 -35 c11 -19 29 -49 40 -66 l20 -33 -36 0 c-30 0 -38 5 -57 40 -26 45 -39
43 -39 -6 0 -31 -2 -34 -30 -34 l-30 0 0 175 0 175 30 0 30 0 0 -92z m1740
-84 l0 -177 -40 6 c-22 3 -43 1 -46 -4 -10 -17 -53 -9 -79 14 -30 26 -41 75
-31 141 12 76 50 104 114 82 21 -7 22 -5 22 53 l0 61 30 0 30 0 0 -176z m452
84 l3 -92 25 37 c20 30 31 37 58 37 30 0 42 -12 24 -24 -5 -3 -21 -23 -36 -44
l-27 -40 40 -66 41 -66 -35 0 c-30 0 -39 6 -56 35 -27 45 -39 44 -39 -1 0 -34
-1 -35 -32 -32 l-33 3 -3 173 -2 172 34 0 35 0 3 -92z m728 28 l0 -64 29 14
c31 15 77 6 93 -19 4 -7 8 -58 8 -114 l0 -103 -30 0 -29 0 -3 92 c-3 83 -5 93
-22 96 -33 7 -46 -25 -46 -110 l0 -78 -30 0 -30 0 0 175 0 175 30 0 30 0 0
-64z m530 3 c0 -55 2 -60 18 -53 31 13 76 5 95 -17 13 -16 17 -40 17 -101 0
-71 -2 -81 -26 -105 -20 -20 -31 -24 -57 -19 -18 4 -49 6 -69 6 l-38 -1 0 176
0 175 30 0 30 0 0 -61z m-1480 -9 c0 -38 2 -40 30 -40 25 0 30 -4 30 -25 0
-21 -5 -25 -30 -25 l-31 0 3 -67 c3 -66 4 -68 31 -71 28 -3 31 -9 21 -36 -8
-22 -72 -21 -96 1 -14 13 -18 31 -18 90 0 66 -2 75 -20 80 -13 3 -20 14 -20
29 0 17 6 24 20 24 17 0 20 7 20 40 0 38 2 40 30 40 28 0 30 -2 30 -40z
m-2095 -61 c17 -16 20 -33 20 -100 0 -77 -1 -82 -29 -106 -27 -23 -37 -25 -86
-12 -12 3 -16 -9 -18 -59 -3 -62 -3 -63 -30 -60 l-27 3 -3 179 -2 179 38 -6
c22 -2 46 -1 53 4 19 13 60 2 84 -22z m443 -6 c8 -11 12 -52 12 -115 l0 -98
-47 -1 c-27 0 -60 -1 -75 -1 -40 -1 -58 19 -58 63 0 43 20 63 83 80 28 7 37
15 35 27 -5 26 -48 28 -55 3 -6 -25 -51 -29 -60 -5 -9 23 29 68 63 75 37 7 86
-6 102 -28z m256 23 c36 -15 43 -28 48 -86 l3 -35 -63 -3 c-62 -3 -63 -3 -60
-30 3 -31 44 -44 54 -18 8 20 64 22 64 2 0 -66 -94 -97 -155 -50 -16 12 -21
29 -23 92 -3 66 -1 81 17 104 19 23 31 29 74 37 4 0 23 -5 41 -13z m193 3 c32
-12 43 -26 43 -56 0 -31 -45 -33 -53 -3 -7 26 -47 27 -47 1 0 -12 12 -23 33
-31 74 -30 97 -83 58 -131 -40 -50 -151 -22 -151 38 0 18 5 23 26 23 18 0 28
-6 31 -21 7 -25 46 -22 51 4 3 12 -9 23 -42 37 -76 32 -89 107 -23 135 39 17
39 17 74 4z m197 -3 c31 -13 53 -55 38 -71 -14 -14 -50 -3 -55 16 -4 13 -12
20 -24 17 -29 -5 -21 -32 15 -50 51 -25 72 -48 72 -78 0 -42 -29 -70 -77 -77
-35 -5 -45 -2 -67 20 -36 36 -35 67 3 67 20 0 30 -6 34 -20 7 -28 47 -27 47 0
0 15 -13 26 -45 40 -73 31 -85 108 -21 136 39 17 40 17 80 0z m205 3 c17 -6
36 -19 41 -29 6 -10 10 -62 10 -115 l0 -97 -37 3 c-21 1 -50 -1 -66 -5 -43
-13 -77 15 -77 64 0 44 20 64 83 81 28 7 37 15 35 27 -5 25 -45 27 -58 3 -14
-27 -60 -29 -60 -2 0 26 36 69 63 74 12 2 25 5 28 6 3 0 20 -4 38 -10z m319
-25 c15 -17 22 -38 22 -65 l0 -39 -61 0 c-60 0 -60 0 -57 -27 3 -32 44 -46 54
-19 8 20 64 22 64 2 0 -69 -102 -98 -158 -45 -19 17 -22 31 -22 98 0 68 3 80
23 98 42 40 98 38 135 -3z m1000 0 c18 -20 22 -37 22 -89 0 -35 -5 -75 -11
-89 -26 -57 -126 -58 -160 -2 -22 36 -26 121 -7 162 26 56 113 67 156 18z
m240 8 c8 -10 12 -52 12 -119 l0 -103 -30 0 -30 0 0 90 c0 75 -3 92 -17 97
-32 12 -53 -32 -53 -113 l0 -74 -30 0 -30 0 0 120 0 120 29 0 c16 0 31 -5 33
-11 2 -6 14 -5 33 5 33 17 63 13 83 -12z m532 -9 c12 -16 20 -41 20 -64 l0
-39 -61 0 c-60 0 -60 0 -57 -27 3 -32 44 -46 54 -19 4 10 18 16 35 16 35 0 40
-29 9 -60 -27 -27 -63 -34 -105 -20 -46 15 -55 34 -55 123 0 64 3 76 23 94 28
26 41 30 83 25 21 -3 42 -14 54 -29z m758 0 c20 -21 22 -35 22 -119 l0 -95
-42 1 c-24 1 -54 -1 -68 -5 -35 -9 -80 27 -80 63 1 39 21 60 74 78 33 11 46
21 46 35 0 26 -36 25 -52 -1 -12 -19 -48 -27 -61 -14 -3 3 -1 19 5 36 20 58
110 71 156 21z m391 26 c36 -13 61 -53 61 -99 l0 -30 -59 0 c-65 0 -73 -5 -64
-38 6 -26 48 -31 57 -7 3 9 18 15 36 15 28 0 31 -3 25 -22 -4 -13 -18 -34 -33
-47 -21 -19 -33 -22 -65 -18 -59 8 -80 35 -85 107 -5 75 11 118 52 136 38 16
36 16 75 3z m249 0 l42 2 0 -149 c0 -135 -2 -152 -20 -175 -41 -52 -147 -44
-170 13 -7 16 -9 34 -5 39 10 18 44 12 57 -9 27 -42 78 -15 78 41 0 18 -3 20
-12 11 -7 -7 -29 -12 -49 -12 -56 0 -79 34 -79 116 0 97 31 141 90 127 14 -4
44 -5 68 -4z m237 -21 c17 -16 21 -34 23 -119 l4 -100 -44 1 c-23 1 -54 -1
-68 -5 -36 -9 -80 27 -80 66 0 28 30 69 50 69 6 0 26 7 45 14 25 11 33 19 29
30 -9 23 -51 20 -59 -4 -4 -12 -15 -20 -29 -20 -32 0 -36 7 -24 42 19 55 107
70 153 26z m-3045 -99 l0 -120 -32 3 -33 3 -3 104 c-1 58 0 111 2 118 3 7 19
13 36 13 l30 0 0 -121z m1840 109 c0 -9 3 -9 12 0 16 16 83 15 96 0 5 -7 13
-61 17 -120 l7 -108 -36 0 -36 0 0 90 c0 72 -3 92 -15 96 -33 13 -45 -15 -45
-102 l0 -84 -35 0 -35 0 0 120 0 120 35 0 c21 0 35 -5 35 -12z m431 -5 c0 -10
8 -43 18 -73 l17 -55 18 73 c17 69 19 72 47 72 21 0 29 -5 29 -17 0 -10 -22
-90 -48 -178 l-47 -160 -34 -3 c-28 -3 -33 -1 -27 14 29 76 29 101 -4 209 -17
59 -34 113 -37 121 -4 10 4 14 31 14 27 0 36 -4 37 -17z"/>
<path d="M6613 9773 c-20 -4 -23 -11 -23 -51 l0 -47 85 0 85 0 0 46 c0 40 -3
48 -22 53 -25 6 -90 6 -125 -1z"/>
</g>
</svg>
