<?xml version="1.0" standalone="no"?>
<!DOCTYPE svg PUBLIC "-//W3C//DTD SVG 20010904//EN"
 "http://www.w3.org/TR/2001/REC-SVG-20010904/DTD/svg10.dtd">
<svg version="1.0" xmlns="http://www.w3.org/2000/svg"
 width="720.000000pt" height="1280.000000pt" viewBox="0 0 720.000000 1280.000000"
 preserveAspectRatio="xMidYMid meet">
<metadata>
Created by potrace 1.16, written by Peter Selinger 2001-2019
</metadata>
<g transform="translate(0.000000,1280.000000) scale(0.100000,-0.100000)"
fill="#000000" stroke="none">
<path d="M0 6400 l0 -6400 3600 0 3600 0 0 1028 0 1027 -130 -3 c-85 -3 -130
0 -130 6 0 6 4 14 10 17 5 3 38 65 73 138 58 118 111 196 125 182 3 -2 -4 -17
-14 -32 -40 -59 -44 -79 -26 -122 10 -23 25 -41 37 -44 11 -2 28 -8 38 -12 16
-7 17 11 17 328 l-1 336 -33 19 c-19 11 -56 48 -82 82 -92 117 -88 114 -117
106 -14 -3 -54 -31 -89 -61 -86 -75 -118 -84 -203 -56 -37 12 -71 18 -78 14
-23 -14 -158 -12 -195 4 -52 21 -82 52 -82 83 0 15 -3 30 -7 33 -10 10 -4 116
9 157 6 19 19 58 29 85 9 28 26 95 35 150 14 78 26 113 55 160 36 61 36 61 26
129 -6 46 -6 70 1 75 17 11 62 114 62 143 0 40 21 118 31 118 5 0 15 15 22 33
8 17 21 38 30 46 13 10 17 31 17 87 0 71 -1 74 -37 109 -20 19 -44 35 -53 35
-10 0 -23 7 -30 15 -20 24 -31 14 -50 -45 -35 -105 -51 -145 -73 -177 -23 -35
-56 -47 -41 -16 5 10 8 80 6 155 l-3 138 24 11 c24 11 25 15 20 64 -4 40 -1
59 11 76 12 17 16 46 16 105 0 103 -11 209 -20 194 -4 -6 -7 22 -7 62 0 65
-39 302 -63 383 -5 17 -11 44 -13 60 -3 17 -12 47 -21 69 -9 21 -16 45 -16 54
0 15 -41 149 -121 399 -21 67 -43 132 -48 145 -5 13 -42 124 -82 248 -40 124
-74 226 -75 228 -2 3 -190 -60 -684 -228 -146 -50 -294 -99 -330 -109 -140
-40 -1061 -348 -1137 -381 -43 -18 -50 -25 -45 -43 3 -12 12 -28 19 -36 16
-16 15 -85 -1 -116 -6 -11 -9 -25 -8 -32 1 -6 -2 -14 -8 -18 -6 -4 -7 1 -4 12
4 12 -2 9 -20 -10 -26 -28 -46 -83 -46 -127 0 -14 -5 -32 -11 -40 -11 -16 -7
122 4 168 4 15 1 25 -8 28 -12 5 -11 12 5 44 10 20 20 48 22 61 2 13 12 37 22
52 10 15 17 29 15 32 -2 2 -29 -5 -59 -16 -30 -11 -197 -67 -370 -124 -173
-58 -342 -114 -375 -125 -33 -12 -86 -28 -118 -36 -32 -8 -67 -18 -76 -24 -10
-5 -36 -13 -58 -18 l-41 -9 24 35 c13 19 24 39 24 44 0 6 13 29 28 52 15 22
36 61 46 86 10 24 35 64 57 87 21 23 39 49 39 58 0 8 5 15 10 15 22 0 53 39
47 59 -8 33 12 113 38 151 16 23 25 50 25 73 0 21 9 56 20 78 13 25 18 48 14
61 -6 21 -7 21 -25 -3 -10 -13 -19 -28 -19 -34 0 -5 -16 -30 -35 -55 -19 -25
-51 -69 -71 -99 -99 -149 -269 -324 -431 -444 l-90 -67 5 -68 c9 -136 -27
-350 -75 -447 -32 -64 -76 -139 -90 -153 -7 -7 -13 -18 -13 -23 0 -6 -12 -10
-27 -9 -55 4 -69 -1 -105 -35 -20 -19 -41 -35 -46 -35 -5 0 -13 -17 -17 -37
-4 -21 -11 -43 -17 -50 -13 -16 -2 -33 23 -33 13 0 19 -7 20 -22 0 -13 3 -17
6 -10 2 6 9 12 14 12 14 0 10 -30 -5 -36 -7 -3 -13 -16 -13 -29 0 -13 -12 -38
-25 -57 -14 -18 -50 -83 -80 -144 -54 -110 -58 -131 -28 -154 3 -3 12 -25 20
-50 12 -39 22 -63 60 -155 13 -33 38 -108 45 -139 10 -45 32 -71 80 -95 128
-64 281 -16 306 96 30 135 39 190 36 204 -9 35 10 42 28 11 62 -104 185 -66
185 58 0 58 -10 82 -49 116 -29 26 -25 28 47 24 17 -1 32 3 32 9 0 6 9 11 20
11 11 0 20 5 20 11 0 5 4 8 9 5 5 -3 11 1 15 9 4 11 11 13 30 6 13 -6 27 -7
31 -3 3 3 3 -1 -1 -11 -3 -10 -1 -17 5 -17 6 0 11 -9 11 -20 0 -10 6 -23 14
-27 18 -11 28 -45 17 -62 -6 -10 -19 -12 -42 -8 -76 15 -74 15 -74 -28 1 -33
-5 -45 -35 -72 -19 -18 -41 -33 -47 -33 -21 0 -41 -53 -44 -120 -4 -72 0 -75
58 -45 15 8 50 15 77 15 29 0 67 8 90 20 46 22 106 75 107 93 0 7 7 -12 15
-42 14 -53 44 -112 72 -140 7 -8 20 -24 29 -37 18 -28 71 -40 113 -26 l30 11
0 -40 c0 -32 3 -39 20 -39 11 0 20 3 20 8 0 4 12 21 26 37 27 31 134 241 154
300 6 20 20 40 31 46 41 21 84 -18 55 -50 -11 -12 -13 -33 -9 -83 4 -47 2 -72
-7 -83 -8 -9 -10 -29 -7 -53 6 -38 -12 -79 -28 -64 -5 4 -5 2 -1 -5 3 -6 2
-14 -4 -18 -6 -4 -8 -11 -4 -16 3 -5 -1 -20 -9 -32 -8 -12 -19 -39 -26 -59 -8
-24 -19 -38 -30 -38 -11 0 -21 -15 -30 -46 -8 -25 -22 -51 -32 -57 -11 -7 -19
-19 -19 -29 0 -9 -4 -19 -9 -23 -5 -3 -12 -18 -16 -34 -7 -31 -36 -71 -52 -71
-5 0 -20 -23 -32 -51 -13 -28 -31 -53 -40 -56 -24 -9 -61 -45 -61 -59 0 -7 -8
-19 -18 -26 -19 -14 -107 -118 -108 -127 0 -3 -44 -50 -97 -104 -53 -54 -103
-108 -112 -120 -11 -16 -15 -17 -15 -6 0 12 -15 18 -62 23 -35 3 -87 11 -116
18 -33 7 -56 8 -60 2 -4 -5 -25 -15 -47 -23 -50 -18 -72 -38 -56 -54 6 -6 11
-21 11 -32 0 -26 29 -113 40 -120 4 -3 48 8 97 24 48 15 111 34 140 40 49 12
70 31 57 52 -3 6 5 7 20 3 23 -5 26 -3 24 16 -4 32 18 36 26 5 6 -25 10 -26
46 -20 36 6 40 4 54 -24 9 -16 16 -43 16 -60 0 -16 6 -36 13 -43 7 -7 21 -33
31 -57 17 -45 12 -60 -21 -61 -6 0 -18 -6 -26 -14 -8 -8 -27 -16 -43 -18 -16
-3 -45 -11 -64 -19 -19 -9 -56 -21 -82 -29 -27 -7 -48 -16 -48 -20 0 -4 -8
-10 -17 -14 -10 -3 -37 -17 -60 -31 -34 -20 -43 -22 -43 -10 0 8 -4 15 -10 15
-5 0 -10 -7 -10 -16 0 -21 47 -198 66 -247 8 -20 14 -40 14 -42 0 -3 -476 -5
-1059 -5 l-1058 0 -21 68 c-53 176 -67 278 -65 472 1 188 25 358 74 523 32
108 89 257 121 320 10 21 17 44 15 50 -5 14 -43 -67 -93 -196 -163 -423 -180
-788 -58 -1215 l6 -22 -226 0 -226 0 2 1203 3 1202 40 1 c194 4 344 41 283 68
-7 3 -2 4 12 3 15 -1 29 -11 35 -24 9 -20 14 -21 75 -16 36 3 67 10 68 15 2 4
18 8 37 8 71 0 94 10 97 44 l3 31 23 -37 c12 -20 29 -39 37 -42 23 -8 45 4 45
25 0 11 7 19 16 19 11 0 14 -5 10 -16 -6 -15 6 -16 127 -11 74 4 140 8 148 11
8 3 48 7 89 11 41 3 111 10 155 16 44 6 93 10 109 10 45 -1 270 49 284 63 10
10 11 27 2 82 -16 99 -77 374 -100 447 -44 142 -79 282 -72 288 4 4 43 20 87
37 129 49 308 121 340 137 17 8 59 27 95 42 174 75 315 157 599 349 44 29 166
162 182 198 10 22 27 47 38 54 12 7 21 21 21 31 0 11 5 23 10 26 5 3 10 14 10
23 0 9 13 30 29 47 24 25 81 144 81 169 0 4 9 20 19 34 10 15 19 30 20 34 1 5
13 34 28 65 29 65 37 91 63 218 81 398 69 970 -46 2268 l-6 67 288 0 c201 -1
284 -4 272 -11 -10 -5 -18 -14 -18 -18 0 -21 37 -19 108 4 42 14 95 25 118 25
l41 0 6 -102 c5 -69 19 -152 45 -251 26 -100 35 -150 28 -156 -6 -5 -33 -12
-60 -16 -67 -9 -108 -31 -129 -67 -10 -17 -16 -32 -14 -35 2 -2 26 7 53 21 79
40 169 61 199 48 21 -10 26 -9 35 8 11 21 22 24 210 65 129 27 210 56 210 74
0 6 9 11 20 11 10 0 23 8 28 18 17 33 -1 64 -58 96 -53 30 -61 31 -189 35
l-134 3 104 68 c57 37 128 93 157 124 l53 56 162 0 162 0 -3 -75 c-3 -61 -7
-77 -22 -85 -11 -6 -28 -31 -39 -56 -26 -59 -59 -104 -75 -104 -14 0 -29 32
-41 83 -4 20 -11 27 -23 25 -14 -3 -16 -13 -14 -58 6 -109 59 -133 129 -57 22
24 45 52 51 63 19 34 32 3 42 -102 13 -136 12 -211 -2 -220 -15 -10 -338 -35
-350 -28 -16 10 13 33 111 91 126 74 171 104 171 114 0 18 -31 8 -89 -28 -194
-121 -246 -159 -249 -180 -5 -32 31 -38 162 -25 61 6 146 14 189 18 l78 6 -3
-68 c-3 -68 -3 -68 -36 -78 -18 -5 -31 -12 -29 -15 2 -3 9 -21 16 -38 16 -42
27 -42 45 1 7 18 23 36 35 39 12 3 19 1 15 -4 -3 -5 -2 -9 3 -9 4 0 22 -21 38
-45 17 -25 33 -45 37 -45 4 0 12 18 18 41 11 41 34 59 51 42 5 -5 12 -33 16
-61 7 -60 20 -65 52 -22 18 25 25 29 41 20 11 -6 20 -20 20 -31 0 -15 5 -19
18 -15 21 7 81 -20 88 -38 6 -16 -23 -95 -44 -120 -17 -20 -17 -20 13 -2 17
11 39 25 50 33 32 22 62 16 82 -17 9 -16 21 -30 25 -30 14 0 8 -45 -10 -66 -9
-12 -37 -36 -61 -53 -52 -37 -43 -41 14 -6 46 29 73 32 82 9 10 -28 -17 -93
-56 -134 -42 -45 -42 -46 0 -24 35 18 61 12 106 -25 18 -14 45 -36 61 -48 16
-12 43 -49 61 -82 52 -99 109 -125 176 -81 41 27 62 25 102 -11 19 -16 40 -28
46 -26 14 4 22 67 10 76 -5 3 -19 19 -31 36 -19 24 -22 36 -16 69 6 36 4 41
-31 71 -34 28 -37 33 -26 53 15 28 8 39 -35 57 -57 24 -35 65 36 65 37 0 65
-13 103 -48 34 -33 45 -22 48 45 2 48 0 55 -36 90 -24 24 -51 67 -70 113 -28
67 -36 78 -78 100 -27 15 -54 39 -66 60 -26 47 -46 63 -102 83 -52 20 -110 25
-155 14 -26 -7 -37 -3 -62 18 -32 27 -58 31 -111 15 -45 -13 -70 4 -46 30 9
10 29 20 45 24 19 3 35 16 45 35 8 17 24 35 35 41 27 15 82 -9 111 -49 28 -38
49 -45 84 -29 24 11 28 9 51 -20 63 -80 115 3 59 93 -54 87 -65 118 -65 187 0
96 -32 120 -133 100 -29 -5 -55 -8 -59 -5 -5 2 -8 21 -8 42 0 53 -26 74 -90
72 -86 -1 -166 -47 -205 -117 -17 -31 -30 -40 -68 -50 -54 -14 -73 -27 -98
-68 -13 -21 -19 -25 -22 -15 -3 8 -16 48 -31 89 -14 41 -28 102 -32 135 -3 33
-9 64 -12 69 -3 5 -8 40 -12 78 l-6 68 1183 0 1183 0 0 1775 0 1775 -3600 0
-3600 0 0 -6400z m6795 3679 c153 -68 200 -265 96 -404 -25 -34 -27 -41 -14
-50 23 -17 -3 -53 -49 -67 -30 -9 -45 -8 -80 5 -34 13 -55 15 -98 8 -30 -5
-63 -13 -73 -16 -53 -21 -137 34 -107 70 11 13 9 19 -8 38 -85 90 -82 268 6
360 77 82 216 105 327 56z m-652 5 c52 -18 116 -76 143 -132 28 -55 26 -174
-4 -229 -50 -95 -136 -143 -256 -143 -209 0 -331 220 -222 402 25 42 43 59 94
85 54 28 75 33 131 33 37 0 88 -7 114 -16z m-5834 -111 c15 -56 71 -300 71
-307 0 -3 -15 -6 -33 -6 -28 0 -34 4 -42 32 -9 29 -14 32 -50 31 -36 0 -40 -3
-47 -31 -8 -28 -13 -32 -42 -32 l-34 0 14 58 c7 31 26 110 41 175 l27 117 43
0 c40 0 43 -2 52 -37z m401 -55 l1 -93 30 38 c23 27 39 37 60 37 16 0 29 -3
29 -6 0 -4 -16 -28 -35 -53 -30 -41 -33 -50 -21 -67 7 -10 25 -40 40 -66 l27
-48 -35 0 c-30 0 -38 5 -57 40 -13 22 -26 40 -31 40 -4 0 -8 -18 -8 -40 0 -38
-2 -40 -30 -40 l-30 0 0 175 0 175 30 0 30 0 0 -92z m1740 -83 l0 -176 -42 1
c-24 1 -55 -1 -69 -5 -19 -5 -33 -1 -55 18 -28 24 -29 29 -29 106 1 69 4 85
22 102 22 22 54 28 91 15 21 -7 22 -5 22 53 l0 61 30 0 30 0 0 -175z m452 83
l3 -92 25 37 c20 30 31 37 58 37 30 0 42 -12 24 -24 -5 -3 -21 -23 -36 -44
l-27 -40 40 -66 41 -66 -35 0 c-30 0 -38 5 -57 40 -13 22 -26 40 -30 40 -5 0
-8 -18 -8 -40 0 -39 -1 -40 -35 -40 l-35 0 0 168 c0 93 3 172 7 175 3 4 19 7
34 7 l28 0 3 -92z m728 28 l0 -65 35 15 c28 11 40 12 58 3 34 -18 37 -27 37
-136 l0 -103 -30 0 -30 0 0 90 c0 75 -3 92 -16 97 -37 14 -49 -10 -52 -101
l-3 -86 -29 0 -30 0 0 175 0 175 30 0 30 0 0 -64z m530 3 c0 -58 1 -60 23 -53
76 26 107 -8 107 -118 0 -71 -2 -81 -26 -105 -21 -21 -31 -24 -57 -18 -18 4
-49 6 -69 6 l-38 -2 0 176 0 175 30 0 30 0 0 -61z m-1482 -11 c3 -35 6 -38 33
-38 24 0 29 -4 29 -25 0 -21 -5 -25 -30 -25 l-31 0 3 -67 c3 -66 4 -68 31 -71
21 -3 27 -8 23 -19 -3 -8 -6 -19 -6 -24 0 -16 -73 -10 -92 8 -14 13 -18 31
-18 90 0 66 -2 75 -20 80 -13 3 -20 14 -20 29 0 17 6 24 20 24 17 0 20 7 20
41 0 38 1 40 28 37 23 -3 27 -8 30 -40z m-2094 -58 c24 -24 34 -122 17 -173
-15 -44 -59 -66 -97 -48 -14 6 -27 11 -29 11 -3 0 -5 -29 -5 -65 l0 -65 -30 0
-30 0 0 181 0 182 39 -6 c21 -2 45 -1 52 4 19 12 60 2 83 -21z m402 20 c8 0
23 -9 34 -20 17 -17 20 -33 20 -121 l0 -101 -32 3 c-18 1 -48 -1 -66 -5 -50
-12 -82 13 -82 64 0 44 20 64 83 81 28 7 37 15 35 27 -5 25 -45 27 -58 3 -13
-25 -48 -28 -57 -5 -13 34 56 90 95 78 8 -2 20 -4 28 -4z m293 -1 c38 -14 51
-35 51 -88 l0 -41 -61 0 c-60 0 -60 0 -57 -27 3 -32 44 -46 54 -19 4 10 18 16
35 16 35 0 39 -25 10 -61 -27 -34 -99 -34 -135 0 -23 22 -26 32 -26 96 0 79
20 120 63 128 12 2 25 5 28 6 3 0 20 -4 38 -10z m199 0 c29 -10 59 -59 45 -73
-15 -15 -51 -5 -56 15 -4 13 -12 20 -24 17 -31 -6 -27 -34 7 -48 78 -32 101
-82 61 -131 -15 -19 -29 -24 -66 -24 -37 0 -51 5 -66 24 -29 36 -25 61 11 61
24 0 30 -4 30 -21 0 -15 5 -20 22 -17 42 6 33 36 -16 58 -54 23 -75 57 -60 98
9 25 45 52 70 52 6 0 25 -5 42 -11z m219 -13 c6 -6 13 -22 15 -36 2 -21 -2
-26 -23 -28 -20 -2 -28 2 -32 18 -4 14 -12 21 -24 18 -29 -5 -21 -32 15 -50
73 -36 92 -81 53 -129 -15 -19 -29 -24 -66 -24 -37 0 -51 5 -66 24 -29 36 -25
61 10 61 21 0 30 -6 34 -21 7 -25 40 -22 45 4 3 12 -9 23 -42 37 -51 21 -70
54 -60 97 12 45 104 65 141 29z m182 13 c17 -6 36 -19 41 -29 6 -10 10 -62 10
-116 l0 -97 -40 6 c-22 3 -43 1 -46 -4 -8 -14 -47 -11 -72 7 -16 11 -22 25
-22 54 0 44 20 64 83 81 28 7 37 15 35 27 -5 25 -45 27 -58 3 -13 -25 -48 -28
-57 -5 -8 23 16 62 46 73 35 13 43 13 80 0z m319 -22 c16 -15 22 -32 22 -64
l0 -43 -61 0 c-60 0 -60 0 -57 -27 3 -32 44 -46 54 -19 8 20 64 22 64 2 0 -69
-102 -98 -158 -45 -19 17 -22 31 -22 98 0 68 3 80 23 98 12 11 29 23 37 26 25
9 73 -4 98 -26z m1000 -3 c19 -21 22 -36 22 -99 0 -70 -1 -74 -32 -100 -27
-23 -39 -26 -71 -22 -59 8 -80 35 -85 107 -3 36 1 72 9 91 24 60 111 73 157
23z m240 9 c8 -11 12 -53 12 -120 l0 -103 -30 0 -30 0 0 90 c0 75 -3 92 -17
97 -32 12 -53 -32 -53 -113 l0 -74 -30 0 -30 0 0 120 0 120 29 0 c16 0 31 -5
33 -12 3 -8 11 -7 29 5 27 20 67 15 87 -10z m530 -9 c15 -17 22 -38 22 -65 l0
-39 -61 0 c-60 0 -60 0 -57 -27 3 -32 44 -46 54 -19 4 10 18 16 35 16 35 0 40
-29 9 -60 -27 -27 -63 -34 -105 -20 -46 15 -55 34 -55 123 0 64 3 76 23 94 12
11 29 23 37 26 28 11 75 -3 98 -29z m542 10 c11 -11 15 -39 15 -117 l0 -102
-32 -3 -33 -3 0 91 c0 72 -3 92 -15 96 -33 13 -45 -15 -45 -102 l0 -84 -35 0
-35 0 0 120 0 120 35 0 c19 0 35 -4 35 -9 0 -6 12 -3 28 4 29 16 58 12 82 -11z
m215 -5 c17 -16 21 -36 23 -120 l4 -100 -44 1 c-23 1 -54 -1 -68 -5 -34 -9
-80 27 -80 61 0 42 17 62 70 79 37 12 50 22 50 36 0 26 -36 25 -52 -1 -12 -19
-48 -27 -61 -14 -3 3 -1 19 5 36 20 56 108 72 153 27z m394 20 c36 -13 61 -53
61 -99 l0 -30 -59 0 c-63 0 -76 -8 -66 -40 8 -24 55 -28 55 -5 0 11 11 15 36
15 32 0 35 -2 29 -22 -4 -13 -18 -34 -33 -47 -21 -19 -33 -22 -65 -18 -60 8
-80 35 -85 109 -5 79 9 115 50 133 41 17 38 17 77 4z m204 -3 c15 -8 27 -11
27 -5 0 5 14 9 31 9 l30 0 -3 -154 c-3 -134 -5 -157 -22 -175 -42 -46 -144
-35 -166 19 -7 16 -9 34 -5 39 10 18 44 12 57 -9 27 -42 78 -15 78 41 0 18 -3
20 -12 11 -7 -7 -29 -12 -49 -12 -56 0 -79 34 -79 116 0 72 13 107 44 122 29
14 37 14 69 -2z m285 -22 c19 -22 22 -36 22 -120 l0 -95 -42 1 c-24 1 -54 -1
-68 -5 -36 -9 -80 27 -80 65 0 27 32 70 52 70 5 0 24 7 43 14 25 11 33 19 29
30 -9 22 -41 20 -56 -4 -18 -29 -58 -27 -58 3 0 73 105 101 158 41z m-3048
-94 l0 -120 -35 0 -35 0 0 113 c0 63 3 117 7 120 3 4 19 7 35 7 l28 0 0 -120z
m2280 63 c19 -90 25 -92 45 -14 18 68 20 71 48 71 28 0 29 -2 23 -33 -3 -19
-25 -99 -49 -178 l-42 -144 -34 -3 c-28 -3 -33 -1 -27 14 28 74 28 99 -3 207
-18 59 -34 113 -37 122 -5 12 2 15 28 15 34 0 35 -1 48 -57z m-2510 -599
c-156 -15 -315 -28 -555 -44 -456 -31 -564 -39 -690 -50 -66 -5 -183 -14 -260
-20 -323 -23 -603 -44 -732 -56 l-73 -7 0 92 0 91 1173 -2 c644 0 1156 -3
1137 -4z m2090 -2 c0 -16 -68 -80 -154 -144 -93 -69 -233 -151 -246 -143 -10
6 -27 107 -36 213 l-7 82 222 0 c121 0 221 -4 221 -8z m35 -303 c74 -20 77
-35 15 -79 -28 -20 -327 -100 -373 -100 -24 0 -28 7 -47 66 -11 36 -20 72 -20
79 0 13 56 31 130 41 25 3 47 8 50 11 8 8 199 -6 245 -18z m-2765 -536 c3 -29
13 -60 24 -71 17 -20 17 -21 -3 -49 -12 -16 -24 -52 -27 -80 -7 -53 12 -179
27 -189 5 -3 9 -16 9 -29 0 -13 4 -26 9 -30 6 -3 9 -13 9 -23 0 -9 3 -33 7
-52 4 -19 10 -69 13 -110 7 -73 8 -75 36 -78 16 -2 38 -12 49 -23 11 -10 24
-19 28 -19 4 0 10 -12 14 -27 4 -17 24 -41 51 -61 74 -55 57 -93 -66 -140 -30
-11 -75 -23 -100 -27 -44 -5 -71 -22 -130 -79 -30 -29 -70 -46 -110 -46 -23 0
-30 5 -35 30 -4 16 -4 39 0 50 9 27 53 57 100 66 22 4 60 18 84 32 24 13 60
24 79 24 33 0 35 1 18 13 -19 14 -26 14 -170 -6 l-89 -13 -28 32 c-16 18 -29
44 -29 58 0 42 31 176 46 199 16 24 38 296 25 305 -18 12 -78 138 -77 163 1
20 -12 40 -52 79 -29 28 -63 57 -74 62 -37 19 -31 33 21 51 60 20 100 22 128
6 12 -6 44 -11 72 -11 39 0 56 5 78 25 42 37 57 29 63 -32z m-635 -437 c59 -9
105 -27 105 -42 0 -12 -50 -28 -116 -39 -29 -4 -53 -1 -80 11 -22 9 -43 18
-49 18 -17 2 -27 49 -17 77 l11 27 48 -23 c26 -12 71 -26 98 -29z m-243 -204
c7 -10 26 -22 41 -26 16 -4 38 -16 50 -27 12 -11 42 -29 67 -40 25 -11 52 -23
60 -28 12 -7 16 -42 20 -190 l5 -183 -29 6 c-16 3 -39 6 -51 6 -12 0 -33 10
-46 23 -37 33 -98 130 -121 189 -11 29 -23 58 -28 63 -4 6 -13 35 -20 66 -11
49 -10 59 4 82 10 14 17 34 16 44 -4 39 10 45 32 15z m603 -391 c6 -11 -31
-25 -45 -16 -6 4 -7 -6 -3 -27 13 -63 5 -140 -16 -161 -7 -7 -29 -6 -64 2 -53
12 -77 35 -77 75 0 21 61 77 107 98 23 10 45 23 48 28 8 13 42 13 50 1z m-49
-336 c25 -19 57 -35 70 -35 31 0 74 27 74 47 0 11 5 13 18 8 9 -5 36 -13 60
-19 45 -11 65 -41 40 -60 -42 -33 31 -76 130 -77 37 0 76 -4 87 -8 18 -7 17
-9 -12 -25 -32 -16 -73 -79 -73 -111 0 -8 12 -21 28 -27 15 -7 51 -35 80 -62
39 -37 52 -57 52 -78 0 -20 -5 -28 -17 -28 -14 0 -15 -2 -5 -9 27 -17 -65 -51
-180 -67 -91 -12 -120 -13 -162 -3 -72 18 -131 54 -155 95 -29 48 -29 134 -1
159 11 10 20 27 20 38 0 11 8 29 17 39 15 17 15 21 -5 57 -12 21 -23 54 -23
72 -1 19 -3 26 -6 16 -7 -26 -23 -17 -60 34 -28 39 -42 79 -28 79 3 0 25 -16
51 -35z m3844 -1256 c25 -6 59 -12 77 -14 17 -2 49 -13 70 -24 21 -11 78 -39
126 -62 l88 -43 -6 -35 c-6 -31 -5 -33 9 -21 25 20 33 2 13 -31 -18 -32 -22
-61 -10 -72 4 -4 12 6 19 23 9 21 18 28 30 23 12 -5 15 -14 10 -41 -3 -20 -1
-41 5 -48 5 -7 11 -23 13 -36 4 -39 18 -62 27 -47 4 7 3 21 -3 32 -16 30 -1
31 18 1 14 -20 15 -29 6 -32 -19 -6 -14 -46 8 -72 27 -31 34 -63 22 -98 -8
-24 -5 -39 18 -88 34 -71 43 -106 41 -160 -1 -29 6 -52 24 -78 29 -43 30 -46
10 -46 -9 0 -20 12 -25 26 -6 14 -14 22 -20 19 -14 -9 -12 -24 5 -41 19 -19
20 -64 1 -64 -15 0 -28 51 -28 118 0 23 -4 42 -9 42 -14 0 -21 -86 -10 -126
15 -55 14 -85 -3 -78 -16 6 -60 -51 -51 -66 3 -5 -12 -41 -34 -79 -23 -38 -41
-77 -41 -85 0 -9 -3 -16 -7 -16 -5 0 -39 -29 -78 -65 -38 -35 -77 -64 -86 -65
-9 0 -28 -9 -42 -20 -24 -19 -87 -28 -87 -12 0 4 -9 39 -20 77 -11 39 -31 117
-44 175 -36 155 -50 228 -87 443 -5 32 -16 77 -23 100 -8 23 -17 60 -19 82 -5
39 -31 143 -78 310 -12 44 -27 107 -34 141 -7 34 -15 66 -19 72 -12 19 5 60
27 68 22 8 96 20 132 22 11 1 40 -3 65 -9z m-1224 -155 c-11 -28 4 -34 37 -14
20 12 37 16 46 11 7 -5 22 -6 32 -4 24 7 72 -38 106 -99 15 -28 34 -49 49 -52
12 -3 31 -19 40 -36 10 -16 21 -27 26 -24 10 6 10 -7 0 -21 -4 -5 -28 -20 -53
-33 -44 -22 -84 -54 -122 -99 -20 -23 -23 -43 -36 -253 -5 -74 -12 -143 -16
-152 -6 -15 -2 -18 19 -18 30 0 80 -43 73 -63 -2 -7 -14 -13 -28 -15 -13 -2
-28 -9 -34 -16 -5 -7 -21 -18 -34 -25 -32 -18 -11 -31 52 -31 26 0 47 -3 47
-7 -1 -16 -26 -40 -48 -47 -50 -16 -14 -30 98 -38 47 -4 49 -26 14 -100 -32
-64 -66 -86 -89 -54 -12 15 -14 15 -29 1 -33 -34 -90 4 -176 117 -92 120 -124
162 -130 168 -14 14 -35 61 -67 149 -38 104 -45 186 -22 244 21 54 59 88 59
52 0 -32 19 -13 22 22 2 27 8 39 21 41 13 3 17 -3 17 -26 0 -38 30 -65 64 -57
14 3 37 7 51 10 19 4 25 12 25 31 0 37 -46 73 -93 74 -45 0 -104 44 -75 55 14
6 15 11 6 30 -9 20 -14 22 -30 14 -18 -9 -19 -7 -15 30 3 38 17 71 17 41 0
-10 5 -9 19 4 20 18 46 74 56 119 7 33 53 80 72 73 7 -3 15 -1 18 4 10 16 18
11 11 -6z m412 -330 c-2 -8 -16 -23 -33 -32 -16 -9 -32 -18 -34 -19 -2 -2 2
-9 8 -17 7 -8 10 -20 6 -25 -11 -19 15 -51 42 -51 22 0 25 -4 21 -24 -6 -32 6
-36 77 -29 56 6 57 6 50 -17 -16 -49 -51 -105 -69 -108 -27 -6 -64 17 -70 43
-3 13 -33 46 -65 74 -56 48 -59 54 -54 86 4 23 2 35 -6 35 -29 0 -6 31 42 54
28 14 46 25 39 26 -25 0 -1 20 24 20 18 0 24 -5 22 -16z m-4055 -420 c20 -3
37 -11 37 -16 0 -6 -16 -7 -41 -3 -64 11 -40 -10 41 -36 42 -13 70 -27 70 -35
0 -8 10 -14 23 -15 18 -1 17 -2 -8 -10 -63 -19 -235 24 -235 59 0 7 5 10 10 7
6 -3 10 -1 10 4 0 6 -4 11 -10 11 -5 0 1 11 13 24 12 13 29 22 37 20 8 -1 32
-6 53 -10z m2023 -626 c-4 -23 -13 -56 -21 -72 -7 -17 -21 -48 -29 -69 -18
-44 -51 -60 -107 -51 -36 6 -39 5 -39 -18 0 -67 116 -106 168 -58 17 16 22 17
22 6 0 -27 -53 -141 -74 -158 -28 -23 -84 -23 -138 1 -52 22 -71 42 -97 101
-37 87 4 221 78 255 22 9 43 15 49 11 11 -6 74 38 67 48 -3 3 0 2 6 -3 7 -6
18 -6 28 -1 9 5 28 11 44 15 15 3 27 12 27 20 0 8 5 15 11 15 8 0 9 -14 5 -42z
m3947 -203 c12 -11 16 -12 20 -2 2 6 7 9 11 6 15 -14 -50 -211 -110 -331 -79
-157 -254 -399 -254 -350 0 12 -76 126 -94 141 -15 12 -22 9 -58 -25 -23 -21
-48 -46 -55 -54 -9 -11 -12 -11 -13 -2 0 17 -20 15 -20 -3 0 -8 -5 -15 -11
-15 -7 0 -8 11 -4 30 4 19 3 30 -4 30 -17 0 -13 70 4 76 8 4 15 16 15 29 0 27
22 48 43 40 9 -4 21 2 29 13 7 11 32 30 56 42 23 12 42 25 42 29 0 4 27 24 59
44 32 21 67 47 76 58 10 10 23 19 29 19 13 0 176 149 176 160 0 17 31 80 39
80 5 0 16 -7 24 -15z m-2480 -244 c7 -7 17 -37 22 -65 7 -35 15 -52 27 -54 26
-5 36 45 13 62 -15 11 -7 14 61 19 95 8 115 4 130 -28 15 -31 11 -34 -91 -70
-44 -16 -96 -41 -115 -55 -19 -15 -61 -44 -93 -65 -32 -21 -72 -55 -89 -76
-17 -22 -33 -37 -35 -36 -2 2 11 35 28 73 38 83 52 161 51 272 l-1 83 40 -23
c22 -12 46 -29 52 -37z m1673 -789 c47 -54 99 -111 115 -129 16 -17 29 -36 29
-42 0 -6 11 -18 25 -27 15 -10 25 -26 25 -40 0 -20 -5 -24 -30 -24 -20 0 -30
5 -30 15 0 8 -9 15 -20 15 -11 0 -20 5 -20 10 0 6 -18 10 -40 10 -22 0 -40 -4
-40 -10 0 -5 -15 -10 -33 -10 -43 0 -105 -30 -145 -71 -18 -18 -32 -30 -32
-26 0 4 -15 -8 -34 -28 -19 -19 -38 -35 -43 -35 -13 0 -93 -77 -93 -89 0 -6
-11 -11 -24 -11 -20 0 -25 -6 -31 -40 -4 -25 -12 -40 -21 -40 -8 0 -14 -8 -14
-18 0 -11 -8 -18 -22 -19 -11 -1 -24 -6 -27 -12 -9 -13 -38 11 -43 34 -1 11
-5 22 -9 25 -14 13 -49 79 -49 94 0 9 -7 16 -15 16 -8 0 -15 4 -15 10 0 5 -13
32 -30 58 -41 67 -39 88 6 83 7 -1 14 9 18 21 3 13 16 30 29 38 42 26 142 95
147 101 16 20 143 98 151 93 5 -3 8 -1 7 5 -4 15 193 150 209 144 7 -3 51 -48
99 -101z m1419 -219 c-5 -10 -10 -32 -12 -49 -4 -26 -1 -32 19 -38 13 -3 19
-9 13 -13 -5 -5 -11 -14 -13 -22 -2 -8 -21 -30 -43 -49 -22 -20 -70 -66 -106
-103 -62 -64 -143 -112 -159 -96 -4 3 -19 0 -33 -8 -15 -7 -53 -15 -85 -17
-32 -2 -60 -6 -63 -10 -2 -5 -11 -8 -19 -8 -9 0 -27 -13 -41 -30 -13 -16 -31
-30 -38 -30 -7 0 -36 -15 -64 -34 -28 -19 -51 -32 -52 -28 0 4 -4 -2 -9 -13
-8 -18 -9 -18 -9 -2 -1 22 26 77 38 77 11 0 28 40 37 85 5 29 3 39 -12 50 -17
12 -14 14 31 20 92 13 90 14 93 -28 l3 -39 82 7 c100 8 125 14 106 25 -9 6 -5
11 15 16 36 9 56 55 56 125 0 54 34 143 70 181 23 25 92 46 154 47 42 1 47 -1
41 -16z m-395 -93 c0 -14 -45 -100 -67 -127 -16 -20 -31 -24 -112 -30 -85 -6
-94 -5 -88 10 9 23 -2 47 -22 47 -12 0 -10 5 9 20 14 11 30 20 36 20 12 0 104
26 139 40 81 30 105 35 105 20z m391 -174 c-1 -3 8 -15 18 -25 20 -20 20 -44
0 -126 -15 -57 -62 -189 -94 -262 l-28 -63 -61 0 c-33 0 -71 3 -82 6 -22 6
-22 7 -7 59 15 51 14 56 -4 94 -19 37 -19 42 -4 73 22 48 245 267 258 254 3
-2 4 -7 4 -10z m-261 -157 c0 -10 -39 -67 -73 -103 -9 -11 -42 -64 -73 -118
l-55 -98 -54 3 c-30 2 -58 6 -61 10 -9 9 18 109 31 112 5 2 23 6 39 10 17 4
59 38 110 89 94 96 136 125 136 95z"/>
<path d="M6613 9773 c-20 -4 -23 -11 -23 -51 l0 -47 85 0 85 0 0 46 c0 40 -3
48 -22 53 -25 6 -90 6 -125 -1z"/>
<path d="M3416 7419 c-10 -99 -9 -106 19 -113 23 -6 25 -11 24 -44 -3 -47 2
-55 45 -76 37 -18 136 -22 136 -6 0 17 52 11 66 -7 13 -17 15 -17 24 -1 10 17
12 17 37 1 23 -15 26 -15 34 -1 36 64 138 166 152 152 3 -3 -5 -35 -19 -70
-13 -36 -24 -67 -24 -70 0 -3 14 8 30 25 19 18 46 33 68 36 42 7 64 17 69 31
4 12 -153 84 -182 84 -11 0 -62 16 -113 35 -59 23 -123 38 -175 44 -45 5 -99
16 -121 25 -59 25 -62 22 -70 -45z"/>
<path d="M4874 7360 c3 -25 8 -94 11 -155 4 -99 20 -266 31 -321 3 -17 9 -20
34 -16 26 4 30 8 30 37 0 66 -11 95 -35 95 -22 0 -35 17 -35 46 0 8 10 14 25
14 19 0 25 5 24 23 -1 48 -25 266 -29 269 -3 2 -18 14 -33 28 l-29 25 6 -45z"/>
<path d="M4533 7332 c-29 -29 -53 -58 -53 -63 0 -6 -4 -7 -10 -4 -5 3 -19 0
-30 -8 -17 -12 -18 -16 -6 -20 8 -3 23 -3 34 0 11 2 23 0 27 -7 4 -7 -2 -14
-15 -17 -17 -5 -20 -11 -15 -32 10 -40 25 -49 83 -52 44 -2 55 1 68 19 13 20
13 21 -1 16 -30 -12 -14 15 25 43 22 15 40 31 40 34 0 3 -19 5 -42 5 l-43 -1
-5 70 -5 70 -52 -53z"/>
<path d="M4619 6803 c-3 -21 4 -59 12 -67 5 -6 9 -27 9 -48 0 -21 3 -38 8 -38
13 0 43 -100 37 -120 -8 -26 16 -92 31 -86 7 3 15 -2 18 -9 3 -8 12 -12 20 -9
17 7 19 1 -62 227 -49 137 -69 178 -73 150z"/>
<path d="M6920 5406 c0 -8 -9 -17 -19 -21 -10 -3 -21 -15 -24 -26 -5 -20 17
-41 59 -53 14 -4 30 -25 43 -57 l22 -50 -23 -19 c-21 -17 -25 -17 -40 -3 -10
9 -18 11 -18 6 0 -6 6 -13 14 -16 9 -4 12 -15 8 -32 -5 -28 -34 -45 -76 -45
-23 0 -46 -33 -46 -66 0 -8 -11 -24 -25 -36 -14 -12 -25 -25 -25 -30 0 -9 -8
-19 -55 -72 -16 -19 -37 -54 -47 -78 -16 -45 -16 -45 10 -76 15 -17 39 -35 54
-41 26 -10 28 -9 34 27 8 43 54 135 89 175 25 28 26 28 119 23 52 -3 97 -2
100 3 3 5 16 9 30 9 18 0 22 -5 19 -19 -4 -12 6 -29 27 -49 32 -30 50 -38 50
-21 0 18 -41 101 -50 101 -6 0 -10 10 -10 23 0 13 -13 36 -29 51 l-30 29 -7
-27 c-9 -36 -21 -33 -28 9 -4 19 -11 35 -17 35 -25 0 14 38 50 49 23 6 41 17
41 23 0 5 9 8 20 5 13 -3 20 0 20 9 0 8 9 14 20 14 18 0 20 7 20 59 l0 58 -42
7 c-24 4 -53 7 -65 7 -13 -1 -23 4 -23 9 0 6 -10 10 -22 10 -21 0 -68 43 -68
62 0 11 -38 48 -50 48 -5 0 -10 -6 -10 -14z"/>
<path d="M7173 4536 c-13 -16 -23 -33 -23 -39 0 -8 -56 -156 -95 -252 -11 -28
-6 -121 9 -157 12 -29 13 -27 20 44 5 56 15 92 47 158 23 47 48 92 56 101 10
12 13 38 11 95 l-3 79 -22 -29z"/>
<path d="M2497 3973 c-8 -10 -20 -38 -27 -61 -10 -40 -14 -43 -36 -38 -18 5
-24 2 -24 -10 0 -34 82 -139 146 -188 62 -47 63 -49 44 -63 -22 -15 -27 -58
-8 -69 6 -4 14 -2 16 4 6 18 87 14 124 -6 22 -12 46 -17 71 -14 34 4 37 2 37
-22 0 -47 -40 -135 -68 -151 -15 -8 -21 -14 -14 -15 7 0 11 -4 8 -8 -7 -12
-77 0 -155 26 -35 12 -70 22 -78 22 -7 0 -13 5 -13 10 0 6 7 10 15 10 25 0 18
40 -21 117 -32 65 -55 92 -135 158 -103 86 -228 105 -301 46 -17 -15 -20 -22
-12 -31 8 -8 14 -9 18 -1 9 14 89 14 137 -1 75 -22 159 -121 159 -187 0 -24
36 -69 73 -91 28 -17 28 -18 8 -25 -24 -7 -29 -35 -6 -35 26 0 64 -30 58 -46
-4 -10 3 -14 23 -15 19 -1 12 -4 -20 -10 -58 -9 -68 -5 -64 26 6 45 -45 73
-73 39 -11 -14 -11 -18 4 -29 18 -13 24 -65 7 -65 -5 0 -10 -10 -10 -21 0 -18
4 -20 23 -13 12 4 76 8 142 9 104 0 126 4 168 24 75 37 132 108 153 191 l18
70 56 2 c75 2 120 12 120 26 0 4 18 26 40 50 53 56 52 76 -5 96 -45 15 -75 13
-75 -6 0 -5 -8 -8 -17 -6 -14 2 -19 -5 -21 -30 -2 -18 2 -40 9 -48 20 -24 -7
-16 -41 12 -62 52 -86 135 -56 192 34 66 31 162 -4 162 -10 0 -34 -10 -53 -22
-37 -25 -57 -69 -57 -129 0 -38 29 -125 54 -160 18 -26 22 -69 6 -69 -6 0 -25
7 -42 16 -17 9 -39 13 -50 11 -11 -3 -35 5 -56 20 -46 30 -122 99 -123 110 0
4 -1 49 -2 98 -2 69 -7 98 -22 123 -22 37 -26 38 -48 15z"/>
<path d="M2230 3245 c-11 -13 -8 -30 20 -108 18 -51 37 -109 43 -129 9 -29 16
-38 33 -38 13 0 29 7 38 15 8 8 19 15 25 15 6 0 11 5 11 10 0 6 23 10 50 10
58 0 68 19 20 37 -22 8 -30 18 -30 35 0 33 -51 110 -81 124 -13 6 -37 16 -54
21 -16 6 -37 14 -46 17 -9 4 -21 0 -29 -9z"/>
</g>
</svg>
