<?xml version="1.0" standalone="no"?>
<!DOCTYPE svg PUBLIC "-//W3C//DTD SVG 20010904//EN"
 "http://www.w3.org/TR/2001/REC-SVG-20010904/DTD/svg10.dtd">
<svg version="1.0" xmlns="http://www.w3.org/2000/svg"
 width="720.000000pt" height="1280.000000pt" viewBox="0 0 720.000000 1280.000000"
 preserveAspectRatio="xMidYMid meet">
<metadata>
Created by potrace 1.16, written by Peter Selinger 2001-2019
</metadata>
<g transform="translate(0.000000,1280.000000) scale(0.100000,-0.100000)"
fill="#000000" stroke="none">
<path d="M0 6400 l0 -6400 3600 0 3600 0 0 6400 0 6400 -3600 0 -3600 0 0
-6400z m6796 3680 c79 -37 138 -117 149 -206 9 -63 -8 -125 -50 -190 -28 -44
-31 -52 -17 -60 13 -9 13 -13 -2 -37 -23 -35 -90 -46 -137 -23 -33 16 -80 14
-147 -6 -47 -14 -99 -2 -118 28 -13 20 -14 27 -4 39 11 13 9 19 -7 38 -58 63
-80 189 -48 273 55 145 232 211 381 144z m-653 4 c125 -42 198 -200 153 -327
-41 -113 -135 -177 -261 -177 -137 0 -237 76 -264 200 -15 70 -3 142 33 203
25 41 43 58 94 84 54 28 75 33 131 33 37 0 88 -7 114 -16z m-5834 -111 c15
-56 71 -300 71 -307 0 -3 -16 -6 -35 -6 -30 0 -35 3 -35 24 0 30 -4 33 -54 37
-37 4 -40 2 -48 -29 -8 -28 -13 -32 -42 -32 l-34 0 14 58 c7 31 26 110 41 175
l27 117 43 0 c40 0 43 -2 52 -37z m401 -55 l1 -93 30 38 c23 27 39 37 60 37
16 0 29 -3 29 -6 0 -4 -16 -28 -35 -53 -30 -41 -33 -50 -21 -67 7 -10 25 -40
40 -66 l27 -48 -35 0 c-30 0 -38 5 -57 40 -26 45 -39 43 -39 -6 0 -31 -2 -34
-30 -34 l-30 0 0 175 0 175 30 0 30 0 0 -92z m1740 -83 l0 -176 -42 1 c-24 1
-55 -1 -69 -5 -19 -5 -33 -1 -55 18 -28 24 -29 29 -28 107 1 68 4 85 21 102
22 21 54 27 91 14 21 -7 22 -5 22 53 l0 61 30 0 30 0 0 -175z m452 83 l3 -92
25 37 c20 30 31 37 58 37 30 0 42 -12 24 -24 -5 -3 -21 -23 -36 -44 l-27 -40
40 -66 41 -66 -34 0 c-28 0 -38 7 -62 43 l-29 42 -3 -42 c-3 -42 -4 -43 -38
-43 l-34 0 0 175 0 175 35 0 34 0 3 -92z m728 27 l0 -66 30 16 c33 17 60 13
85 -11 11 -12 15 -40 15 -120 l0 -104 -30 0 -30 0 0 90 c0 75 -3 92 -16 97
-37 14 -49 -10 -52 -101 l-3 -86 -29 0 -30 0 0 175 0 175 30 0 30 0 0 -65z
m530 4 c0 -58 1 -60 23 -53 76 26 107 -8 107 -118 0 -71 -2 -81 -26 -105 -20
-20 -31 -24 -52 -18 -15 4 -46 6 -69 5 l-43 -1 0 176 0 175 30 0 30 0 0 -61z
m-1482 -11 c3 -35 6 -38 33 -38 24 0 29 -4 29 -25 0 -21 -5 -25 -30 -25 l-31
0 3 -67 c3 -66 4 -68 31 -71 21 -3 27 -8 23 -19 -3 -8 -6 -19 -6 -24 0 -16
-73 -10 -92 8 -14 13 -18 31 -18 90 0 66 -2 75 -20 80 -13 3 -20 14 -20 29 0
17 6 24 20 24 16 0 20 7 20 33 0 40 7 49 35 45 15 -2 21 -12 23 -40z m-2094
-59 c24 -23 34 -121 17 -172 -15 -44 -59 -66 -97 -48 -14 6 -27 11 -29 11 -3
0 -5 -30 -5 -66 l0 -65 -27 3 -28 3 -3 179 -2 179 37 -5 c21 -3 47 -2 58 3 26
10 55 2 79 -22z m405 20 c44 -16 51 -35 51 -143 l0 -96 -47 -1 c-27 0 -60 -1
-75 -1 -40 -1 -58 19 -58 63 0 43 20 63 83 80 28 7 37 15 35 27 -5 26 -48 28
-55 3 -4 -14 -13 -21 -29 -21 -65 0 -15 96 52 99 6 1 25 -4 43 -10z m290 0
c38 -14 51 -35 51 -88 l0 -41 -61 0 c-60 0 -60 0 -57 -27 3 -32 44 -46 54 -19
4 10 18 16 35 16 35 0 39 -25 10 -61 -27 -34 -99 -34 -135 0 -23 22 -26 32
-26 96 0 79 20 120 63 128 12 2 25 5 28 6 3 0 20 -4 38 -10z m198 0 c32 -12
43 -26 43 -56 0 -31 -45 -33 -53 -3 -7 26 -47 27 -47 1 0 -11 12 -23 30 -31
78 -32 101 -82 61 -131 -15 -19 -29 -24 -66 -24 -37 0 -51 5 -66 24 -29 36
-25 61 11 61 24 0 30 -4 30 -21 0 -15 5 -20 23 -17 37 5 26 36 -23 60 -88 45
-75 133 22 147 4 1 19 -4 35 -10z m197 -3 c31 -13 53 -55 38 -71 -14 -14 -50
-3 -55 16 -4 13 -12 20 -24 17 -29 -5 -21 -32 15 -50 73 -36 92 -81 53 -129
-15 -19 -29 -24 -66 -24 -37 0 -51 5 -66 24 -29 36 -25 61 10 61 21 0 30 -6
34 -21 7 -25 40 -22 45 3 2 12 -11 24 -43 39 -74 35 -86 106 -22 134 40 18 41
18 81 1z m205 3 c17 -6 36 -19 41 -29 6 -10 10 -62 10 -115 l0 -97 -32 3 c-18
1 -48 -1 -66 -5 -50 -12 -82 13 -82 64 0 44 20 64 83 81 28 7 37 15 35 27 -5
25 -45 27 -58 3 -13 -24 -48 -28 -56 -6 -8 20 21 64 49 75 30 12 39 12 76 -1z
m318 -21 c17 -16 23 -33 23 -65 l0 -43 -61 0 c-60 0 -60 0 -57 -27 3 -32 44
-46 54 -19 8 20 64 22 64 2 0 -69 -102 -98 -158 -45 -19 17 -22 31 -22 98 0
68 3 80 23 98 12 11 29 23 37 26 25 10 73 -2 97 -25z m1001 -4 c18 -21 22 -36
22 -98 0 -65 -3 -75 -26 -97 -35 -33 -104 -34 -136 -2 -27 28 -37 127 -17 174
24 60 111 73 157 23z m240 8 c8 -10 12 -52 12 -119 l0 -103 -30 0 -30 0 0 90
c0 75 -3 92 -17 97 -32 12 -53 -32 -53 -113 l0 -74 -30 0 -30 0 0 120 0 120
29 0 c16 0 31 -5 33 -11 2 -6 14 -5 33 5 33 17 63 13 83 -12z m529 -4 c17 -16
23 -33 23 -65 l0 -43 -61 0 c-60 0 -60 0 -57 -27 3 -32 44 -46 54 -19 4 10 18
16 35 16 35 0 40 -29 9 -60 -27 -27 -63 -34 -105 -20 -46 15 -55 34 -55 123 0
64 3 76 23 94 12 11 29 23 37 26 25 10 73 -2 97 -25z m540 8 c6 -6 13 -57 16
-118 l5 -108 -34 0 -34 0 0 90 c0 72 -3 92 -15 96 -33 13 -45 -15 -45 -102 l0
-84 -35 0 -35 0 0 120 0 120 35 0 c19 0 35 -4 35 -9 0 -6 12 -3 28 4 28 15 58
12 79 -9z m218 -7 c17 -16 21 -35 23 -120 l4 -100 -44 1 c-23 1 -54 -1 -68 -5
-35 -9 -80 27 -80 64 0 39 19 60 70 75 33 10 46 19 48 35 4 28 -33 29 -50 1
-12 -19 -48 -27 -60 -14 -15 14 11 60 43 77 40 20 84 15 114 -14z m400 16 c37
-15 55 -46 55 -96 0 -29 0 -29 -59 -29 -65 0 -73 -5 -64 -38 6 -26 53 -32 53
-7 0 11 11 15 36 15 32 0 35 -2 29 -22 -4 -13 -18 -34 -33 -47 -21 -19 -33
-22 -65 -18 -59 8 -80 35 -85 107 -5 75 11 118 52 136 39 17 40 17 81 -1z
m198 1 c15 -8 27 -11 27 -5 0 5 14 9 30 9 l30 0 0 -149 c0 -134 -2 -151 -20
-174 -41 -52 -147 -44 -170 13 -7 16 -9 34 -5 39 10 18 44 12 57 -9 26 -41 78
-15 78 40 0 17 -3 19 -19 10 -36 -19 -78 -12 -100 16 -16 21 -21 41 -21 90 0
72 13 107 44 122 29 14 37 14 69 -2z m285 -22 c19 -22 22 -36 22 -120 l0 -95
-42 1 c-24 1 -55 -1 -70 -5 -21 -6 -32 -2 -52 18 -48 48 -29 99 44 121 33 10
46 19 48 35 4 28 -33 29 -50 1 -12 -19 -48 -27 -60 -14 -15 14 11 60 43 77 43
22 86 16 117 -19z m-3048 -94 l0 -120 -35 0 -35 0 0 113 c0 63 3 117 7 120 3
4 19 7 35 7 l28 0 0 -120z m2271 103 c0 -10 8 -43 18 -73 l17 -55 19 73 c18
70 20 72 51 72 l32 0 -24 -82 c-79 -281 -76 -273 -113 -276 -28 -3 -33 -1 -27
14 28 74 28 99 -3 207 -18 59 -34 113 -37 122 -5 12 2 15 30 15 27 0 36 -4 37
-17z m-4730 -999 c41 -31 96 -72 122 -91 29 -22 47 -42 45 -52 -7 -34 -41 -21
-143 56 -95 71 -105 81 -105 111 0 17 2 32 3 32 2 0 37 -25 78 -56z m3254
-1237 c45 -12 96 -42 400 -238 33 -22 72 -39 87 -39 29 0 68 40 68 71 0 11 7
19 16 19 14 0 16 -12 13 -82 -5 -95 -21 -126 -80 -153 -50 -23 -93 -10 -204
63 -159 103 -309 199 -332 211 -73 38 -146 -14 -158 -114 -4 -32 -5 -86 -1
-121 13 -129 2 -115 183 -235 91 -60 169 -109 174 -109 5 0 9 -27 9 -60 l0
-60 -32 0 c-18 0 -39 -4 -46 -9 -9 -5 -35 6 -75 33 -248 164 -346 225 -374
231 -32 6 -57 -2 -110 -35 -12 -8 -25 -12 -28 -8 -5 5 28 99 84 241 l11 27 85
-55 c47 -30 90 -55 95 -55 5 0 5 11 0 28 -22 66 -42 209 -35 257 11 87 69 165
142 190 48 18 48 18 108 2z m519 -776 c3 -26 20 -91 36 -143 28 -91 29 -98 15
-132 -8 -20 -18 -36 -20 -36 -11 0 -52 108 -70 180 -22 90 -25 168 -5 180 24
15 37 0 44 -49z m-1021 -66 c50 -21 53 -31 14 -50 -19 -9 -47 -29 -62 -45 -23
-24 -37 -30 -71 -30 -35 0 -47 -5 -68 -30 -46 -55 -56 -131 -35 -270 l12 -76
109 -69 c61 -39 129 -83 151 -100 l42 -30 -74 -6 c-60 -4 -77 -10 -92 -27 -9
-12 -20 -22 -23 -22 -4 0 -58 34 -122 76 -157 103 -175 110 -231 89 -23 -9
-43 -21 -43 -26 0 -11 -27 -12 -34 -1 -2 4 4 28 14 52 10 25 31 79 46 120 15
41 29 77 31 79 4 6 74 -33 131 -72 24 -16 46 -27 49 -24 2 3 -2 40 -11 82 -9
43 -16 113 -16 156 0 98 29 163 92 209 34 25 51 30 98 30 32 0 74 -7 93 -15z
m1467 -87 c124 -63 201 -316 214 -703 3 -82 3 -141 0 -130 -3 11 -10 37 -15
58 -6 21 -13 36 -17 33 -4 -2 -6 21 -4 52 2 42 0 53 -7 42 -8 -12 -11 -7 -12
20 0 19 -5 46 -9 60 -6 20 -8 15 -9 -25 0 -27 6 -67 13 -87 8 -21 10 -36 6
-33 -11 7 -19 -57 -13 -105 5 -34 3 -42 -8 -38 -10 3 -16 34 -20 119 -8 136
-27 291 -38 302 -8 8 -313 -9 -340 -19 -12 -4 -13 -38 -8 -204 3 -110 2 -202
-2 -205 -14 -8 -22 77 -29 312 -4 122 -10 225 -14 229 -10 9 -11 -4 -13 -221
-3 -189 -13 -315 -26 -315 -14 0 -22 173 -16 340 10 293 59 443 164 510 60 39
137 41 203 8z m-652 -27 c100 -51 165 -213 195 -481 21 -184 30 -379 17 -360
-5 8 -10 29 -10 47 0 32 -11 45 -42 50 -15 2 -18 -5 -18 -52 0 -87 -18 -64
-24 33 -4 48 -12 141 -19 207 l-12 120 -160 -3 c-88 -2 -168 -9 -179 -14 -18
-10 -18 -22 -14 -209 5 -187 -3 -259 -17 -172 -10 59 -13 65 -37 61 -19 -2
-24 -11 -28 -48 -12 -94 -23 109 -17 304 10 324 62 467 192 528 49 23 115 19
173 -11z m-571 -27 c15 -11 41 -37 57 -58 27 -33 31 -47 34 -112 3 -50 1 -74
-7 -74 -6 0 -11 15 -11 34 0 38 -19 60 -44 50 -11 -4 -16 -18 -16 -46 0 -55
-16 -39 -22 22 -4 38 -12 58 -33 80 -32 33 -62 37 -105 15 -93 -48 -55 -184
76 -270 155 -102 203 -167 212 -287 4 -59 1 -72 -21 -111 -66 -112 -203 -136
-302 -54 -37 30 -75 101 -75 138 0 32 17 21 24 -16 6 -31 42 -78 89 -114 9 -7
41 -15 70 -16 28 -2 43 0 32 4 -11 3 -34 14 -51 23 -21 11 -34 14 -41 7 -12
-12 -29 26 -38 89 -8 53 7 55 25 2 35 -107 190 -76 190 38 0 40 -32 112 -61
138 -13 12 -58 45 -100 72 -136 91 -183 167 -177 284 3 56 8 73 34 105 46 58
106 85 177 81 37 -3 67 -11 84 -24z m1703 -1 c0 -33 70 -607 75 -611 12 -12
102 -13 157 -2 120 23 178 69 186 148 5 53 -18 111 -57 146 l-21 19 34 24 c19
12 39 23 44 23 9 0 26 -54 36 -117 8 -45 -11 -139 -39 -193 -33 -65 -96 -125
-173 -162 -62 -31 -73 -33 -172 -33 -97 0 -110 2 -171 31 l-66 32 -7 82 c-4
45 -6 84 -3 86 2 2 28 -9 58 -25 55 -30 145 -58 155 -48 3 3 -1 61 -9 129 -9
68 -19 154 -23 193 -6 57 -12 74 -35 97 -23 23 -36 28 -79 28 -28 0 -66 -7
-86 -15 -34 -14 -35 -14 -45 12 -9 24 -6 31 23 60 36 36 172 112 201 113 10 0
17 -7 17 -17z m-2839 -329 c-7 -37 -3 -91 9 -113 6 -13 82 -69 168 -125 315
-205 349 -227 472 -305 69 -44 137 -84 150 -89 34 -13 84 -4 110 20 11 11 27
17 35 14 11 -4 0 -28 -46 -98 -34 -51 -73 -113 -87 -137 -41 -68 -67 -95 -81
-86 -9 5 -10 10 -2 18 14 14 14 69 -1 102 -6 14 -34 40 -62 59 -55 36 -238
155 -351 228 -38 25 -130 84 -203 132 -73 47 -146 93 -162 101 -42 22 -80 18
-122 -10 -71 -48 -66 -31 35 123 46 70 92 142 102 160 20 34 43 38 36 6z
m1699 -262 c0 -142 -30 -281 -75 -345 -10 -14 -11 -26 -4 -44 10 -28 -3 -53
-27 -53 -15 0 -58 44 -85 89 -17 28 -17 30 0 45 25 23 34 20 55 -19 24 -44 34
-44 41 -2 26 157 35 241 35 327 l0 100 30 0 30 0 0 -98z m600 -72 c92 -62 93
-64 104 -145 4 -27 14 -48 33 -64 24 -21 32 -23 96 -16 38 3 75 9 81 11 7 3
59 -26 116 -63 117 -76 156 -85 209 -45 32 24 51 28 51 12 0 -21 -203 -320
-217 -320 -10 0 -13 6 -8 18 35 90 8 126 -182 246 -43 28 -148 96 -234 152
l-156 101 -6 63 c-11 100 -9 123 8 116 8 -3 55 -32 105 -66z m-83 -353 c45
-67 149 -220 232 -340 83 -120 151 -222 151 -226 0 -5 -6 -13 -12 -19 -14 -11
-44 -6 -463 72 -137 26 -297 55 -355 66 -58 10 -124 23 -147 28 -24 5 -43 6
-43 2 0 -4 27 -24 60 -44 33 -20 65 -42 72 -49 8 -7 29 -21 48 -31 19 -11 118
-74 220 -141 292 -191 282 -185 328 -185 28 0 49 7 69 24 16 14 34 21 40 18
16 -10 -122 -222 -143 -222 -12 0 -14 5 -9 18 15 36 17 62 5 96 -12 37 -25 46
-325 241 -27 18 -144 94 -259 169 -233 152 -251 158 -320 111 -21 -14 -41 -23
-46 -20 -5 3 13 41 41 85 49 77 51 79 77 68 15 -6 104 -12 202 -13 114 -1 201
-7 250 -18 41 -9 176 -34 300 -57 124 -22 238 -43 253 -46 27 -6 24 -1 -47
103 -243 350 -286 415 -281 424 4 5 9 9 13 9 4 -1 44 -56 89 -123z m-1135
-2597 c39 -11 88 -60 88 -89 0 -30 -43 -84 -94 -118 -38 -26 -59 -33 -96 -33
-66 0 -93 23 -94 80 -1 26 4 45 12 47 8 3 12 -8 12 -35 0 -54 20 -72 79 -72
70 0 160 65 161 116 0 24 -34 58 -73 73 -98 37 -315 -21 -437 -117 -126 -99
-191 -184 -210 -275 -14 -69 1 -112 56 -153 34 -26 44 -29 118 -29 52 0 100 7
134 19 94 32 214 107 282 176 l65 65 -50 3 c-27 2 -102 -1 -165 -7 -121 -11
-154 -4 -103 22 60 31 279 46 446 30 37 -3 67 -9 67 -13 0 -4 -30 -10 -66 -14
-36 -4 -72 -12 -78 -19 -12 -12 -86 -123 -201 -302 -32 -49 -60 -84 -62 -78
-3 7 18 58 46 113 54 107 62 133 33 107 -32 -29 -166 -86 -251 -108 -147 -37
-259 -10 -309 76 -41 71 -16 178 67 282 87 110 272 221 426 256 39 9 160 7
197 -3z m1308 -133 c0 -15 -59 -104 -110 -167 -92 -113 -104 -154 -30 -97 25
18 72 50 105 70 111 68 131 42 53 -70 -68 -99 -85 -138 -68 -158 20 -24 55 2
160 116 122 132 130 139 152 139 26 0 22 -18 -16 -64 -56 -69 -116 -168 -116
-193 0 -17 6 -23 22 -23 23 0 90 65 212 203 49 56 75 77 92 77 37 0 30 -24
-30 -98 -86 -109 -115 -182 -72 -182 16 0 120 81 148 115 9 11 19 17 23 14 9
-10 -134 -138 -162 -145 -14 -4 -36 -1 -50 5 -23 11 -25 16 -21 56 l6 45 -55
-50 c-63 -57 -109 -75 -135 -52 -20 17 -23 54 -7 84 15 27 5 34 -18 11 -88
-85 -132 -106 -163 -78 -30 27 -25 80 15 154 19 36 33 66 32 68 -15 15 -237
-183 -237 -212 0 -14 -38 -37 -45 -26 -7 13 2 33 68 151 106 187 205 320 238
320 5 0 9 -6 9 -13z m-559 -153 c7 -9 23 -20 36 -25 29 -11 29 -18 -4 -65 -72
-106 -97 -161 -83 -184 15 -25 64 1 129 68 46 47 56 55 36 27 -43 -59 -105
-113 -138 -121 -33 -7 -53 7 -71 50 l-12 30 -45 -41 c-62 -58 -90 -63 -129
-24 -25 24 -29 35 -24 58 17 75 117 183 206 223 53 24 81 25 99 4z m-487 -30
c26 -10 19 -24 -52 -103 -81 -89 -106 -126 -97 -141 7 -12 45 -14 45 -2 0 5
12 14 26 20 35 17 149 109 209 171 49 50 85 65 85 36 0 -9 -20 -46 -44 -83
-23 -37 -69 -112 -101 -167 -67 -115 -84 -136 -142 -176 -47 -33 -78 -36 -111
-13 -32 22 -27 36 7 16 28 -15 32 -15 66 1 60 29 119 108 172 231 18 43 31 81
29 83 -3 3 -35 -19 -73 -49 -74 -60 -101 -76 -144 -88 -34 -10 -59 9 -59 44 0
30 87 163 129 199 36 30 34 29 55 21z"/>
<path d="M6613 9773 c-20 -4 -23 -11 -23 -51 l0 -47 85 0 85 0 0 46 c0 40 -3
48 -22 53 -25 6 -90 6 -125 -1z"/>
<path d="M4148 6688 c-20 -11 -41 -32 -47 -45 -16 -34 -14 -39 9 -18 11 10 17
22 13 28 -3 5 -1 7 5 3 6 -3 26 1 45 10 41 20 110 13 143 -15 30 -24 68 -103
94 -192 14 -48 27 -76 36 -76 8 0 14 5 14 11 -2 35 -33 131 -64 193 -28 58
-44 77 -79 97 -55 33 -117 34 -169 4z"/>
<path d="M4205 6639 c-60 -16 -116 -110 -131 -218 l-7 -53 134 7 c167 8 189
12 189 34 0 22 -45 136 -67 170 -32 51 -74 72 -118 60z"/>
<path d="M3510 6594 c-17 -15 -38 -40 -46 -56 -18 -35 -56 -179 -49 -186 6 -6
64 -5 213 4 116 7 115 6 88 95 -34 110 -85 169 -148 169 -14 0 -40 -12 -58
-26z"/>
<path d="M2851 6566 c-7 -8 -14 -36 -18 -64 -4 -41 -1 -58 18 -93 35 -65 70
-109 85 -109 8 0 14 -6 14 -12 0 -7 19 -22 41 -33 23 -10 44 -25 46 -32 3 -7
11 -13 19 -13 8 0 14 -5 14 -11 0 -7 9 -9 21 -6 14 4 19 2 15 -8 -2 -7 9 -25
25 -39 35 -31 39 -32 32 -6 -3 11 -16 23 -29 26 -12 3 -21 11 -18 18 5 13 -39
56 -57 56 -26 0 -142 107 -165 152 -25 49 -33 135 -15 154 6 5 4 14 -4 21 -10
10 -16 9 -24 -1z"/>
<path d="M3748 2739 c-36 -10 -116 -69 -161 -118 -48 -53 -70 -98 -63 -127 9
-36 48 -31 98 14 36 33 178 212 178 225 0 10 -26 14 -52 6z"/>
</g>
</svg>
