<?xml version="1.0" standalone="no"?>
<!DOCTYPE svg PUBLIC "-//W3C//DTD SVG 20010904//EN"
 "http://www.w3.org/TR/2001/REC-SVG-20010904/DTD/svg10.dtd">
<svg version="1.0" xmlns="http://www.w3.org/2000/svg"
 width="720.000000pt" height="1280.000000pt" viewBox="0 0 720.000000 1280.000000"
 preserveAspectRatio="xMidYMid meet">
<metadata>
Created by potrace 1.16, written by Peter Selinger 2001-2019
</metadata>
<g transform="translate(0.000000,1280.000000) scale(0.100000,-0.100000)"
fill="#000000" stroke="none">
<path d="M0 6400 l0 -6400 3600 0 3600 0 0 1025 0 1025 -132 0 c-108 0 -141 4
-174 19 l-41 19 -7 114 c-4 63 -4 164 0 224 6 92 4 112 -9 125 -13 14 -15 58
-12 337 2 189 -1 320 -6 316 -5 -3 -10 -40 -11 -82 l-2 -77 -5 80 c-5 69 -4
81 11 90 25 15 9 32 -39 40 -24 4 -61 16 -83 26 -22 11 -45 17 -50 14 -6 -3
-10 -2 -10 4 0 10 -65 25 -155 36 -50 6 -51 6 -63 -28 -6 -18 -12 -41 -12 -50
0 -9 -4 -17 -10 -17 -5 0 -10 -6 -10 -14 0 -9 -7 -12 -20 -9 -11 3 -20 0 -20
-6 0 -6 -6 -11 -13 -11 -7 0 -19 -16 -26 -35 -7 -19 -17 -35 -22 -35 -6 0 -15
-14 -20 -30 -14 -39 -50 -40 -78 -3 -11 16 -26 33 -32 38 -6 6 -23 22 -37 36
-15 14 -39 29 -53 32 -27 7 -49 43 -49 82 0 21 -2 22 -24 12 -13 -7 -22 -15
-20 -19 3 -5 -4 -8 -14 -8 -12 0 -24 -11 -32 -30 -7 -17 -22 -38 -34 -48 -11
-9 -21 -26 -21 -37 0 -14 -8 -21 -25 -23 -19 -2 -41 13 -91 60 -36 35 -77 69
-92 77 -29 15 -45 51 -46 99 0 54 -44 82 -130 82 -27 0 -64 6 -82 14 -19 7
-56 14 -84 15 -27 0 -62 6 -78 12 -21 9 -31 9 -40 0 -14 -14 -114 -15 -119 -1
-2 6 -12 12 -23 14 -32 7 -71 25 -56 25 8 1 25 11 37 22 23 21 24 21 88 5 36
-9 75 -16 88 -16 15 0 67 40 148 112 69 61 172 151 230 201 164 141 153 115
146 352 -4 110 -11 250 -16 310 -8 100 -6 130 22 327 26 177 29 222 20 243
-14 30 -89 68 -168 86 l-50 11 -53 172 c-68 222 -147 420 -188 471 -18 22 -41
51 -50 65 -9 14 -45 45 -80 70 -63 43 -63 44 -45 64 22 25 48 80 56 119 18 86
17 83 27 65 19 -34 22 -133 5 -166 -20 -38 -20 -48 -2 -32 8 6 22 34 32 62 31
94 1 271 -62 364 l-25 36 30 -21 c65 -46 108 -149 96 -229 -5 -35 -4 -44 5
-36 21 21 24 118 4 173 -40 113 -163 224 -252 227 -24 1 -46 4 -49 7 -3 4 2
24 11 47 30 76 14 186 -46 308 -57 115 -188 208 -328 233 -121 21 -275 -8
-365 -69 -22 -14 -53 -28 -69 -29 -43 -4 -144 -62 -196 -113 -85 -83 -114
-185 -77 -270 l15 -35 -4 50 c-3 35 1 62 13 89 l18 38 -3 -78 c-4 -84 0 -93
66 -146 l22 -18 0 55 c0 62 11 73 45 51 15 -10 25 -12 25 -5 0 6 -14 16 -31
22 -26 10 -30 16 -25 40 5 23 70 137 79 137 2 0 1 -29 -1 -65 -6 -84 16 -143
76 -207 55 -59 78 -64 56 -13 -14 35 -19 151 -7 194 5 20 10 10 24 -50 23 -93
23 -92 -1 -84 -31 10 -24 -11 8 -24 16 -7 57 -41 92 -77 68 -67 95 -84 61 -35
-12 16 -21 33 -21 37 0 4 11 -8 25 -27 44 -59 92 -88 82 -49 -8 31 1 24 22
-18 26 -51 39 -129 29 -170 -5 -19 -7 -39 -5 -45 6 -17 45 50 58 98 17 66 32
89 74 112 49 28 50 28 75 3 26 -26 26 -85 0 -128 -22 -36 -97 -87 -141 -97
-16 -4 -31 -11 -34 -16 -8 -12 22 -12 45 1 16 8 19 5 25 -20 7 -32 51 -70 139
-122 107 -63 79 -137 -84 -222 -195 -101 -393 -62 -457 91 -37 87 -37 90 -3
98 38 8 48 0 100 -77 47 -71 52 -67 10 9 -16 29 -30 55 -30 57 0 3 32 24 70
47 39 23 70 42 70 44 0 1 -27 -8 -61 -22 -76 -31 -194 -56 -222 -47 -12 4 -35
21 -51 38 -20 21 -26 24 -18 9 12 -22 63 -63 79 -63 5 0 15 -21 22 -46 58
-196 263 -263 480 -157 95 46 171 117 171 160 0 50 -9 61 -71 94 -33 18 -58
34 -56 36 10 9 184 -81 216 -113 20 -19 47 -37 61 -40 14 -3 39 -9 55 -13 25
-8 26 -9 7 -10 -105 -5 -203 -168 -252 -416 -24 -124 -30 -200 -35 -465 -4
-222 -9 -253 -41 -271 -18 -9 -31 -32 -47 -85 -21 -67 -25 -73 -67 -95 -63
-32 -79 -47 -106 -101 -24 -46 -26 -48 -69 -48 -59 0 -168 26 -230 55 -62 30
-155 110 -155 135 0 10 7 31 15 46 8 16 12 37 9 47 -3 9 -1 17 5 17 5 0 12 -8
15 -17 4 -10 15 -29 26 -43 11 -14 -11 36 -49 110 -80 158 -106 232 -125 355
-13 84 -14 86 -15 35 l-1 -54 -30 34 c-27 32 -29 33 -21 9 5 -15 27 -62 49
-105 68 -135 76 -163 59 -212 -13 -39 -13 -42 6 -59 26 -23 47 -74 47 -113 0
-17 -11 -52 -24 -78 l-24 -47 19 -50 c24 -62 24 -105 2 -136 -37 -50 -53 -88
-53 -127 0 -58 -14 -59 -39 -2 -35 82 -87 100 -163 58 -46 -26 -68 -63 -67
-110 0 -28 2 -30 9 -13 8 18 9 17 9 -7 2 -58 -53 -10 -63 55 -4 23 -11 49 -17
57 -9 13 -10 12 -5 -2 15 -48 -76 6 -104 61 -24 48 -25 93 -5 151 19 54 19 63
-1 27 -9 -16 -18 -53 -21 -82 -7 -65 21 -131 67 -158 16 -10 30 -22 30 -27 0
-5 -31 -44 -69 -86 -82 -91 -141 -187 -141 -229 0 -18 10 -42 25 -59 14 -16
25 -32 25 -35 0 -4 -11 -51 -25 -105 -14 -54 -26 -124 -26 -155 -1 -46 -3 -51
-9 -26 l-8 30 -3 -35 c-1 -19 -3 -366 -3 -770 -1 -719 -1 -735 19 -751 18 -16
12 -17 -105 -23 -104 -6 -280 -6 -280 0 0 0 7 16 16 33 25 50 14 121 -35 231
-23 52 -59 117 -80 145 -42 55 -75 117 -97 177 -12 35 -12 39 6 50 24 15 47
73 99 251 50 168 51 171 146 327 42 69 96 168 121 220 25 52 66 136 90 185 69
143 78 221 38 355 -13 44 -30 69 -93 133 -42 44 -106 101 -142 128 l-67 50 31
57 c16 31 45 75 62 97 54 67 75 118 75 180 0 46 5 64 29 98 16 23 35 59 42 80
12 33 11 44 -5 85 -27 70 -30 107 -12 152 9 22 16 57 16 78 0 37 -9 58 -63
152 -22 38 -29 77 -52 255 -29 239 -59 415 -82 495 -13 43 -28 67 -77 115 -79
79 -184 132 -413 210 -8 3 -4 24 13 72 15 43 23 88 22 123 l-1 55 -8 -72 c-5
-47 -24 -110 -52 -180 -25 -59 -47 -120 -51 -136 -11 -46 -40 -67 -95 -67 -51
0 -152 36 -238 86 -33 20 -44 23 -34 10 8 -9 28 -24 44 -33 37 -19 117 -92
117 -107 0 -6 -11 -28 -25 -48 -14 -20 -25 -40 -25 -44 0 -13 60 49 82 84 19
31 48 44 48 20 0 -25 -53 -86 -88 -102 -98 -43 -221 -48 -298 -12 -78 36 -164
158 -164 231 0 33 42 107 78 139 25 22 26 19 11 -20 -10 -27 -10 -28 10 -10
10 9 22 28 25 40 9 35 50 23 71 -21 23 -48 28 -36 9 20 -13 40 -20 47 -42 47
-15 1 -52 15 -82 33 -70 41 -93 83 -84 151 12 85 54 99 122 40 23 -20 42 -44
42 -56 0 -19 50 -78 67 -78 5 0 9 21 9 48 -1 67 8 86 35 72 19 -11 21 -9 19
17 -4 58 0 103 10 103 6 0 10 -18 10 -41 0 -22 4 -39 9 -37 5 2 39 43 75 93
68 93 76 97 51 26 -14 -42 -14 -42 8 -35 27 9 87 53 87 65 0 5 6 9 14 9 8 0
17 9 21 19 3 11 15 23 26 26 10 4 19 15 19 25 0 18 41 35 71 28 8 -2 15 7 17
20 5 31 18 28 34 -8 9 -22 18 -30 31 -26 9 2 15 0 11 -5 -3 -5 0 -9 5 -9 6 0
12 10 12 23 1 19 2 19 6 3 7 -29 30 -49 36 -33 3 7 6 4 6 -6 1 -28 21 -9 21
20 0 33 11 22 27 -25 12 -35 12 -34 10 34 -2 61 -7 79 -34 123 l-32 51 24 6
c13 3 32 15 42 27 16 18 16 20 1 14 -25 -9 -69 7 -132 47 l-57 36 28 25 28 24
-40 1 c-36 0 -241 53 -253 65 -3 3 2 13 11 23 22 24 22 35 0 24 -10 -5 -73
-12 -141 -15 -103 -5 -132 -10 -179 -32 -30 -14 -58 -25 -60 -25 -3 0 -2 11 1
25 4 14 2 25 -3 25 -18 0 -70 -70 -76 -103 -6 -30 -12 -36 -48 -47 -53 -15
-102 -52 -122 -90 l-15 -30 36 25 c49 33 63 32 27 -2 -52 -49 -86 -135 -91
-228 -3 -62 -1 -89 11 -111 l16 -29 2 45 c1 26 3 35 6 20 16 -97 87 -239 167
-336 14 -18 26 -38 26 -46 0 -9 -40 -32 -98 -58 -153 -68 -399 -200 -465 -250
-67 -50 -139 -133 -181 -210 -33 -61 -60 -183 -81 -370 -9 -80 -24 -176 -34
-215 -11 -38 -31 -124 -46 -190 -15 -66 -29 -128 -31 -137 -3 -9 -17 -19 -33
-23 -42 -9 -95 -58 -144 -133 -64 -97 -73 -132 -58 -240 7 -48 23 -123 34
-167 17 -64 23 -120 27 -277 l5 -198 26 -24 c15 -14 29 -23 31 -20 3 2 37 -12
77 -32 66 -32 77 -35 129 -29 31 4 71 16 89 27 18 10 46 23 62 28 26 7 31 5
37 -13 20 -69 63 -162 108 -236 48 -80 50 -86 48 -147 l-3 -63 48 -52 c45 -49
48 -54 45 -99 -3 -33 2 -59 16 -86 11 -22 34 -93 51 -158 22 -86 47 -149 85
-221 53 -99 62 -122 106 -274 18 -61 30 -83 72 -127 l51 -54 7 -103 c5 -86 -3
-217 -16 -265 -3 -10 -188 -12 -921 -10 l-918 3 -3 1198 c-1 683 2 1196 7
1193 12 -8 51 28 51 48 0 9 5 16 10 16 6 0 10 6 10 13 0 8 9 24 20 37 11 13
20 29 20 36 0 7 3 19 6 28 11 29 -30 18 -71 -18 -21 -19 -42 -33 -47 -30 -12
8 -10 2676 2 2694 8 12 10 9 10 -13 0 -44 17 -65 70 -88 28 -12 50 -28 50 -35
0 -8 9 -14 20 -14 19 0 20 2 7 28 -8 15 -23 68 -33 119 -18 92 -18 92 3 140
42 93 39 125 -12 116 -32 -7 -47 -54 -43 -135 l3 -61 -32 -9 c-18 -5 -33 -13
-33 -18 0 -6 -4 -10 -10 -10 -6 0 -10 70 -10 189 l0 190 35 -6 c42 -7 54 12
35 57 -12 29 -16 32 -50 34 -13 1 -15 46 -18 326 -1 179 0 335 3 346 2 12 14
24 25 27 21 5 23 22 13 99 -3 28 -10 38 -26 40 -20 3 -18 5 13 25 19 12 37 18
38 13 2 -6 19 -10 37 -10 30 0 33 2 31 29 -2 34 -31 81 -50 81 -8 0 -17 -14
-21 -30 -5 -21 -12 -30 -23 -28 -10 1 -22 -1 -29 -5 -9 -5 -12 65 -13 288 l-1
295 3591 0 3590 0 0 1775 0 1775 -3600 0 -3600 0 0 -6400z m6794 3679 c153
-67 201 -265 97 -404 -25 -34 -27 -41 -14 -50 23 -17 -3 -53 -49 -67 -31 -9
-45 -8 -82 6 -45 17 -83 16 -154 -6 -47 -14 -97 -2 -117 28 -13 20 -14 28 -4
40 10 12 8 19 -9 37 -37 39 -62 108 -62 171 0 78 16 128 58 176 79 93 218 121
336 69z m-651 5 c52 -18 116 -76 142 -130 57 -121 8 -276 -107 -339 -78 -42
-185 -47 -262 -12 -103 48 -149 120 -150 237 0 120 51 197 159 242 51 22 158
23 218 2z m-5834 -111 c15 -56 71 -300 71 -307 0 -3 -16 -6 -35 -6 -30 0 -35
3 -35 24 0 32 -22 48 -61 44 -27 -4 -34 -10 -41 -36 -8 -28 -13 -32 -42 -32
l-34 0 14 58 c7 31 25 110 40 175 l28 117 42 0 c41 0 44 -2 53 -37z m401 -55
l1 -93 30 38 c23 27 39 37 60 37 16 0 29 -3 29 -6 0 -4 -16 -27 -35 -53 l-34
-47 21 -35 c11 -19 29 -49 40 -66 l20 -33 -36 0 c-30 0 -38 5 -57 40 -26 45
-39 43 -39 -6 0 -31 -2 -34 -30 -34 l-30 0 0 175 0 175 30 0 30 0 0 -92z
m1740 -83 l0 -176 -42 1 c-24 1 -55 -1 -69 -5 -19 -5 -33 -1 -55 18 -28 24
-29 29 -29 106 1 69 4 84 22 102 22 22 54 28 91 15 21 -7 22 -5 22 53 l0 61
30 0 30 0 0 -175z m452 83 l3 -92 25 37 c20 30 31 37 58 37 30 0 42 -12 24
-24 -5 -3 -21 -23 -36 -44 l-27 -40 40 -66 41 -66 -35 0 c-30 0 -38 5 -57 40
-13 22 -26 40 -30 40 -5 0 -8 -18 -8 -40 0 -39 -1 -40 -35 -40 l-35 0 0 168
c0 93 3 172 7 175 3 4 19 7 34 7 l28 0 3 -92z m728 28 l0 -65 35 15 c28 11 40
12 58 3 34 -18 37 -27 37 -136 l0 -103 -30 0 -30 0 0 90 c0 75 -3 92 -16 97
-37 14 -49 -10 -52 -101 l-3 -86 -29 0 -30 0 0 175 0 175 30 0 30 0 0 -64z
m530 3 c0 -58 1 -60 23 -53 76 26 107 -8 107 -118 0 -71 -2 -81 -26 -105 -21
-21 -31 -24 -57 -18 -18 4 -49 6 -69 6 l-38 -2 0 176 0 175 30 0 30 0 0 -61z
m-1482 -11 c3 -35 6 -38 33 -38 24 0 29 -4 29 -25 0 -21 -5 -25 -30 -25 l-31
0 3 -67 c3 -66 4 -68 31 -71 21 -3 27 -8 23 -19 -3 -8 -6 -19 -6 -24 0 -16
-73 -10 -92 8 -14 13 -18 31 -18 90 0 66 -2 75 -20 80 -13 3 -20 14 -20 29 0
17 6 24 20 24 17 0 20 7 20 41 0 38 1 40 28 37 23 -3 27 -8 30 -40z m-2094
-58 c24 -24 34 -122 17 -173 -15 -44 -59 -66 -97 -48 -14 6 -27 11 -29 11 -3
0 -5 -30 -5 -66 l0 -65 -27 3 -28 3 -3 179 -2 179 38 -6 c22 -2 46 -1 53 4 19
12 60 2 83 -21z m405 19 c17 -6 36 -19 41 -29 6 -10 10 -62 10 -115 l0 -97
-32 3 c-18 1 -48 -1 -66 -5 -50 -12 -82 13 -82 64 0 44 20 64 83 81 28 7 37
15 35 27 -5 26 -48 28 -55 3 -6 -25 -51 -29 -60 -5 -8 21 28 67 58 75 35 10
33 10 68 -2z m290 0 c38 -14 51 -35 51 -88 l0 -41 -61 0 c-60 0 -60 0 -57 -27
3 -32 44 -46 54 -19 4 10 18 16 35 16 35 0 39 -25 10 -61 -27 -34 -99 -34
-135 0 -23 22 -26 32 -26 96 0 79 20 120 63 128 12 2 25 5 28 6 3 0 20 -4 38
-10z m198 0 c32 -12 43 -26 43 -56 0 -31 -45 -33 -53 -2 -4 13 -12 20 -24 17
-31 -6 -27 -34 7 -48 78 -32 101 -82 61 -131 -15 -19 -29 -24 -66 -24 -37 0
-51 5 -66 24 -29 36 -25 61 11 61 24 0 30 -4 30 -21 0 -15 5 -20 23 -17 39 5
27 38 -23 61 -89 43 -75 132 22 146 4 1 19 -4 35 -10z m220 -13 c6 -6 13 -22
15 -36 2 -21 -2 -26 -23 -28 -20 -2 -28 2 -32 18 -4 14 -12 21 -24 18 -29 -5
-21 -32 15 -50 73 -36 92 -81 53 -129 -15 -19 -29 -24 -66 -24 -37 0 -51 5
-66 24 -29 36 -25 61 10 61 21 0 30 -6 34 -21 7 -25 40 -22 45 4 3 12 -9 23
-42 37 -51 21 -70 54 -60 97 12 45 104 65 141 29z m182 13 c17 -6 36 -19 41
-29 6 -10 10 -62 10 -115 l0 -96 -37 1 c-21 1 -50 -2 -65 -6 -45 -10 -78 18
-78 66 0 44 20 64 83 81 28 7 37 15 35 27 -5 25 -45 27 -58 3 -16 -30 -60 -29
-60 2 1 28 20 54 51 66 32 13 40 13 78 0z m319 -22 c16 -15 22 -32 22 -64 l0
-43 -61 0 c-60 0 -60 0 -57 -27 3 -32 44 -46 54 -19 8 22 64 22 64 0 0 -69
-100 -95 -157 -42 -20 19 -23 32 -23 98 0 67 3 79 23 97 12 11 29 23 37 26 25
9 73 -4 98 -26z m1000 -3 c19 -21 22 -36 22 -99 0 -70 -1 -74 -32 -100 -27
-23 -39 -26 -71 -22 -59 8 -80 35 -85 107 -3 36 1 72 9 91 24 60 111 73 157
23z m240 9 c8 -11 12 -53 12 -120 l0 -103 -30 0 -30 0 0 90 c0 75 -3 92 -17
97 -32 12 -53 -32 -53 -113 l0 -74 -30 0 -30 0 0 120 0 120 29 0 c16 0 31 -5
33 -12 3 -8 11 -7 29 5 27 20 67 15 87 -10z m530 -9 c15 -17 22 -38 22 -65 l0
-39 -61 0 c-60 0 -60 0 -57 -27 3 -32 44 -46 54 -19 4 10 18 16 35 16 35 0 40
-29 9 -60 -27 -27 -63 -34 -105 -20 -46 15 -55 34 -55 123 0 64 3 76 23 94 12
11 29 23 37 26 28 11 75 -3 98 -29z m539 12 c6 -6 13 -54 15 -116 l3 -105 -32
-3 -33 -3 0 91 c0 72 -3 92 -15 96 -33 13 -45 -15 -45 -102 l0 -84 -35 0 -35
0 0 120 0 120 35 0 c19 0 35 -4 35 -9 0 -6 12 -3 28 4 28 15 58 12 79 -9z
m218 -7 c17 -16 21 -36 23 -120 l4 -100 -44 1 c-23 1 -54 -1 -68 -5 -35 -9
-80 27 -80 64 0 39 19 60 70 75 33 10 46 19 48 35 4 28 -33 29 -50 1 -13 -20
-52 -27 -62 -12 -10 16 29 76 54 84 36 10 82 0 105 -23z m394 20 c36 -13 61
-53 61 -99 l0 -30 -59 0 c-63 0 -76 -8 -66 -40 8 -24 55 -28 55 -5 0 11 11 15
36 15 32 0 35 -2 29 -22 -13 -43 -42 -63 -90 -63 -64 0 -87 27 -93 105 -5 75
11 118 52 136 38 16 36 16 75 3z m249 0 l43 2 -3 -155 c-3 -134 -5 -157 -22
-175 -42 -46 -144 -35 -166 19 -14 35 -7 50 25 50 15 0 26 -7 30 -20 8 -26 51
-27 65 -1 5 11 10 30 10 42 0 18 -3 20 -12 11 -7 -7 -29 -12 -49 -12 -56 0
-79 34 -79 116 0 97 31 141 90 127 14 -4 44 -5 68 -4z m240 -25 c19 -22 22
-36 22 -120 l0 -95 -42 1 c-24 1 -54 -1 -68 -5 -35 -9 -80 27 -80 64 0 27 31
71 51 71 5 0 25 7 44 14 25 11 33 19 29 30 -9 22 -41 20 -54 -4 -11 -20 -54
-28 -64 -12 -10 16 29 76 54 84 40 11 83 0 108 -28z m-3048 -94 l0 -120 -35 0
-35 0 0 113 c0 63 3 117 7 120 3 4 19 7 35 7 l28 0 0 -120z m2280 63 c19 -91
25 -93 45 -14 17 68 18 71 47 71 29 0 30 -2 24 -33 -3 -19 -25 -99 -49 -178
l-42 -144 -34 -3 c-28 -3 -32 -1 -28 15 30 103 30 93 -2 206 -17 58 -34 113
-37 122 -5 12 2 15 28 15 34 0 35 -1 48 -57z m115 -3541 c-1 -60 -6 -86 -23
-119 -34 -65 -46 -67 -145 -25 -48 20 -87 42 -87 49 0 9 7 10 26 3 42 -17 56
-13 44 10 -8 15 -8 21 2 24 112 32 158 69 158 124 0 29 2 33 13 23 7 -7 12
-40 12 -89z m279 -417 c66 -43 127 -177 157 -345 24 -138 35 -475 20 -628 -20
-199 -56 -372 -102 -499 -29 -78 -127 -175 -284 -278 -212 -139 -249 -152
-359 -124 -40 10 -46 8 -91 -20 -39 -25 -60 -31 -102 -31 -29 0 -53 4 -53 8 0
16 25 32 50 32 24 -1 24 -1 6 -15 -19 -15 -19 -15 1 -15 49 0 30 58 -45 141
-65 71 -101 88 -134 64 l-23 -17 27 6 c15 3 38 2 52 -4 27 -10 106 -86 106
-102 0 -12 -79 -110 -143 -177 -58 -59 -100 -91 -197 -143 -116 -64 -122 -58
-30 32 47 46 76 78 65 73 -11 -6 -51 -43 -90 -82 -67 -69 -131 -118 -140 -109
-10 9 65 133 115 192 l53 61 -57 -55 c-32 -30 -68 -75 -81 -100 -12 -25 -32
-56 -44 -70 l-20 -25 -1 25 c0 31 23 118 39 149 7 12 10 25 8 28 -9 8 -27 -35
-46 -109 -17 -67 -19 -70 -31 -48 -8 15 -11 44 -7 79 9 101 41 166 131 269 23
25 34 42 25 36 -28 -15 -118 -130 -135 -170 l-16 -38 -23 49 c-27 57 -33 55
-9 -4 8 -21 14 -58 12 -82 l-3 -44 -27 58 c-15 31 -29 57 -33 57 -3 0 3 -17
14 -38 10 -20 22 -48 26 -62 7 -22 6 -23 -8 -12 -18 15 -52 110 -43 119 3 4
-1 17 -9 29 -13 21 -13 35 5 140 11 64 19 137 18 162 -1 39 3 49 30 74 25 22
42 28 76 28 47 0 64 -13 85 -65 6 -16 36 -57 66 -90 30 -33 52 -66 50 -74 -7
-18 52 -9 127 20 44 16 57 27 66 52 7 20 31 45 63 67 34 23 59 50 74 80 29 57
40 66 87 75 35 7 38 11 58 70 27 81 50 109 102 128 24 8 50 18 59 21 11 5 19
-2 28 -20 18 -41 23 -22 5 21 -15 36 -15 43 2 97 20 68 26 74 83 87 44 10 106
48 138 84 12 14 7 12 -16 -6 -51 -42 -90 -61 -95 -45 -14 44 -14 107 0 184 9
49 18 114 20 144 12 148 74 420 126 544 30 73 70 124 123 157 36 23 68 24 99
4z m-2503 -928 l26 -31 -28 -54 c-34 -64 -36 -89 -9 -142 25 -50 25 -52 -7
-99 -31 -44 -43 -51 -43 -23 0 10 -9 35 -20 57 -18 36 -19 42 -5 82 20 57 19
68 -6 118 l-21 42 33 58 c29 51 34 56 43 40 6 -10 23 -32 37 -48z m119 -593
c52 -21 76 -62 61 -106 -6 -17 -16 -103 -21 -192 -11 -171 -19 -196 -76 -239
-30 -23 -32 -6 -4 46 11 20 16 37 11 37 -9 0 -51 -90 -51 -109 0 -10 -81 -83
-87 -78 -1 2 18 50 43 106 25 57 43 108 42 113 -2 6 -21 -30 -43 -78 -47 -108
-76 -150 -111 -158 -39 -10 -50 7 -26 41 25 34 85 189 80 205 -2 6 -19 -30
-37 -80 -19 -55 -47 -109 -67 -133 -19 -22 -34 -45 -34 -51 0 -11 55 -6 127
10 31 7 41 6 35 -2 -4 -6 -7 -13 -7 -16 -3 -22 -23 -62 -50 -102 -37 -54 -39
-59 -70 -235 -17 -101 -32 -152 -64 -221 -23 -49 -41 -96 -41 -105 0 -9 -16
-31 -35 -48 -51 -47 -84 -122 -95 -215 -12 -110 -2 -141 77 -214 35 -33 70
-60 77 -60 18 0 38 -32 65 -105 12 -33 33 -78 46 -101 29 -50 138 -153 200
-189 25 -15 45 -28 45 -30 0 -1 -118 -2 -261 -1 l-261 1 -34 110 c-19 61 -39
146 -45 190 -11 87 -60 313 -89 415 -13 44 -20 115 -25 221 -7 192 -18 263
-51 337 -22 48 -25 67 -21 123 4 49 1 75 -12 105 -13 28 -16 53 -12 87 l6 48
19 -32 c12 -20 21 -59 24 -103 5 -81 13 -96 52 -96 16 0 30 -7 34 -15 13 -34
103 -8 135 40 13 19 30 35 37 35 17 0 46 57 68 132 l16 56 -31 86 c-18 47 -35
86 -40 86 -4 0 6 -39 22 -87 l30 -88 -28 -79 c-15 -44 -33 -81 -39 -83 -8 -3
-6 11 4 40 14 39 14 54 3 113 -19 101 -31 144 -39 144 -5 0 0 -39 10 -87 24
-117 23 -140 -8 -209 -46 -104 -69 -108 -49 -8 12 61 2 201 -16 219 -7 7 -8
-4 -2 -35 17 -97 1 -253 -28 -271 -8 -4 -19 -3 -27 3 -11 9 -12 32 -7 104 5
63 3 104 -5 129 -16 47 -22 41 -9 -10 16 -71 -21 -229 -48 -202 -4 5 -10 41
-14 81 -8 79 -48 174 -99 232 -15 17 -46 71 -69 119 -23 48 -55 106 -71 130
-17 24 -30 48 -30 53 0 16 78 89 110 102 16 7 40 10 53 6 13 -3 77 -55 143
-116 65 -61 142 -127 171 -146 52 -34 90 -93 109 -169 l8 -30 6 25 c4 14 3 30
-1 35 -4 6 -4 17 1 25 8 12 10 11 10 -6 0 -22 24 -39 41 -28 5 3 9 -12 9 -33
0 -38 14 -72 25 -62 3 4 1 18 -6 31 -8 20 -7 39 9 94 33 113 59 274 43 274 -4
0 -13 -39 -19 -87 -6 -49 -19 -113 -28 -143 l-18 -55 -7 55 c-5 30 -9 62 -11
70 -2 8 13 62 32 119 34 99 37 106 98 159 42 37 74 76 93 114 28 56 31 58 69
58 22 0 58 -7 80 -16z m788 -121 c-2 -11 12 -64 24 -93 7 -14 11 -28 10 -32
-1 -5 4 -8 11 -8 13 0 57 -32 57 -41 0 -3 -19 -3 -42 -1 -23 3 -73 -1 -111 -8
-77 -14 -96 -6 -77 29 6 12 15 19 20 16 6 -3 8 0 5 7 -3 7 18 41 46 76 49 60
61 71 57 55z m-2348 -40 c0 4 10 2 23 -5 12 -7 26 -11 31 -10 4 2 14 -5 20
-14 8 -10 28 -17 54 -18 23 0 42 -4 42 -7 0 -12 58 -28 81 -22 14 4 20 2 15
-5 -3 -6 2 -13 11 -16 22 -8 282 -261 306 -298 25 -40 23 -62 -5 -54 -76 21
-116 26 -153 17 -22 -5 -30 -9 -18 -10 13 -1 24 -10 29 -23 l7 -23 10 23 c7
15 18 22 36 21 l26 0 -23 -10 c-17 -6 -22 -14 -17 -28 3 -11 0 -25 -8 -32 -9
-9 -11 -26 -7 -53 3 -23 4 -52 3 -66 -21 -208 -24 -332 -9 -347 11 -11 6 -21
-14 -26 -18 -5 -20 -14 -20 -85 0 -45 -4 -83 -9 -87 -6 -3 -9 -13 -9 -23 0 -9
-3 -29 -7 -44 -6 -22 -4 -28 9 -28 10 0 16 -9 16 -23 0 -12 6 -31 13 -42 8
-11 14 -40 15 -65 1 -51 -8 -37 -27 45 -7 28 -16 54 -21 59 -9 9 -4 -16 15
-69 4 -11 -14 16 -39 60 -42 74 -94 212 -111 295 -4 19 -16 50 -27 69 -14 26
-19 50 -17 95 3 60 2 61 -44 108 -62 62 -63 97 -7 208 40 80 48 110 30 110 -5
0 -10 -8 -10 -19 0 -10 -13 -47 -29 -82 -29 -64 -29 -64 -40 -36 -6 15 -26 52
-46 82 -57 90 -135 302 -135 368 0 25 3 28 20 24 17 -4 20 -2 14 15 -4 13 -1
24 7 29 11 7 11 9 1 9 -7 0 -17 -10 -22 -22 -5 -13 -9 -18 -9 -11 -1 7 7 28
16 48 12 24 19 31 25 23 4 -7 8 -9 8 -5z m2420 -162 c21 -6 25 -13 26 -46 2
-80 53 -215 80 -215 6 0 15 -21 19 -47 4 -26 14 -52 22 -58 13 -10 13 -23 -3
-117 -17 -100 -17 -109 -1 -167 20 -73 49 -121 117 -196 28 -30 50 -59 50 -64
0 -11 -46 -31 -73 -31 -37 0 -246 151 -329 238 -120 126 -166 243 -148 373 23
155 90 324 132 332 35 7 80 6 108 -2z m687 -222 c64 -25 125 -80 188 -173 l40
-58 -51 -47 c-42 -38 -103 -78 -254 -170 -8 -5 -12 -12 -8 -16 3 -3 15 -1 27
6 17 11 26 10 55 -4 74 -35 128 -155 162 -359 17 -101 17 -109 1 -143 -20 -43
-93 -81 -134 -70 -15 3 -126 106 -264 243 -199 199 -243 248 -265 296 -33 71
-41 154 -24 251 12 71 21 88 35 65 7 -11 51 4 75 24 8 8 31 16 51 20 33 6 217
111 249 142 20 19 49 18 117 -7z m259 -311 c5 -7 7 -90 5 -184 -3 -175 7 -245
55 -406 16 -54 18 -124 4 -133 -5 -3 -28 13 -51 35 -49 47 -67 91 -109 266
-16 66 -35 134 -41 150 -18 42 -77 113 -111 134 l-28 17 92 56 c128 77 168 91
184 65z"/>
<path d="M6613 9773 c-20 -4 -23 -11 -23 -51 l0 -47 85 0 85 0 0 46 c0 40 -3
48 -22 53 -25 6 -90 6 -125 -1z"/>
<path d="M363 8731 c-5 -3 -21 -22 -36 -42 -17 -23 -45 -43 -73 -54 -39 -15
-45 -20 -42 -44 3 -25 5 -26 63 -24 33 2 76 5 96 9 26 4 44 1 62 -11 56 -36
113 2 124 83 l5 41 -43 11 c-24 7 -49 16 -55 21 -14 11 -89 19 -101 10z"/>
<path d="M704 8555 c-10 -8 -32 -15 -48 -15 -38 0 -108 -21 -124 -37 -14 -13
-76 -33 -105 -33 -10 0 -29 8 -43 17 -24 15 -29 15 -78 -1 -28 -10 -58 -17
-66 -16 -48 7 -52 2 -45 -49 5 -39 4 -49 -10 -54 -9 -4 -24 -1 -35 5 -13 9
-27 9 -46 3 -39 -14 -40 -31 -3 -44 43 -15 65 -14 82 4 8 7 28 17 43 21 16 4
39 16 51 26 25 23 40 17 54 -19 9 -23 13 -25 54 -21 37 5 45 3 46 -11 1 -9 2
-34 3 -56 1 -39 2 -40 35 -37 44 3 145 57 168 90 10 14 30 39 46 55 15 17 27
33 27 36 0 3 10 7 23 7 24 2 43 7 70 19 14 6 17 14 11 39 -7 33 -24 60 -32 51
-3 -3 -11 4 -19 15 -17 24 -32 25 -59 5z"/>
<path d="M984 7350 c-7 -7 -7 -36 -1 -85 9 -72 8 -77 -21 -137 -57 -118 -43
-136 43 -54 55 52 57 56 50 93 -4 21 -8 64 -9 95 -3 71 -34 116 -62 88z"/>
<path d="M287 6928 c-45 -61 -39 -94 21 -112 51 -16 88 29 77 94 -8 46 -12 50
-45 50 -21 0 -36 -9 -53 -32z"/>
<path d="M482 6848 c-7 -7 -12 -35 -12 -63 0 -50 -1 -51 -37 -64 -21 -8 -51
-24 -66 -37 -16 -13 -41 -27 -55 -30 -89 -20 -94 -27 -86 -123 8 -91 18 -114
44 -106 20 6 60 -25 60 -48 0 -7 9 -20 20 -30 l21 -18 -21 -29 c-13 -18 -20
-42 -18 -59 2 -21 -4 -35 -21 -48 -22 -18 -23 -21 -10 -57 l14 -38 -43 -37
c-40 -35 -41 -38 -32 -71 5 -18 14 -36 20 -40 10 -6 12 -26 10 -169 0 -46 2
-86 4 -88 3 -3 28 -2 56 2 63 9 71 22 77 129 2 44 6 90 8 102 5 22 139 140
213 187 64 41 75 52 58 66 -9 8 -21 2 -45 -23 -18 -19 -47 -37 -64 -40 -17 -4
-48 -18 -69 -32 -65 -46 -94 -15 -67 71 7 22 13 63 14 90 0 45 7 60 63 139 34
49 62 97 62 107 0 26 -26 30 -47 7 -10 -11 -30 -26 -46 -34 -24 -13 -28 -13
-33 1 -15 38 4 134 45 237 31 75 42 114 37 132 -7 28 -33 35 -54 14z"/>
<path d="M911 6467 c-5 -12 -17 -67 -27 -122 -15 -78 -25 -107 -46 -131 l-27
-31 30 -22 c30 -22 30 -24 24 -85 l-7 -63 33 -7 c18 -3 34 -4 37 -2 6 6 30
171 43 298 11 99 10 110 -7 135 -10 16 -18 31 -17 35 2 3 -4 9 -13 12 -9 4
-18 -3 -23 -17z"/>
<path d="M348 5136 c-10 -7 -18 -22 -18 -32 0 -10 -11 -43 -25 -72 -20 -44
-22 -56 -12 -73 18 -28 44 -33 83 -14 27 12 34 21 29 33 -16 38 -25 70 -32
119 -7 47 -10 51 -25 39z"/>
<path d="M103 4919 c-7 -7 -13 -18 -13 -24 0 -6 -11 -26 -24 -46 -17 -25 -22
-43 -19 -64 8 -42 18 -52 62 -59 21 -3 41 -13 45 -21 9 -24 30 -18 56 16 14
17 36 41 49 53 13 11 32 29 42 39 27 25 25 65 -5 77 -13 5 -27 14 -31 20 -3 6
-28 10 -53 9 -26 -1 -58 2 -72 6 -15 4 -30 1 -37 -6z"/>
</g>
</svg>
