<?xml version="1.0" standalone="no"?>
<!DOCTYPE svg PUBLIC "-//W3C//DTD SVG 20010904//EN"
 "http://www.w3.org/TR/2001/REC-SVG-20010904/DTD/svg10.dtd">
<svg version="1.0" xmlns="http://www.w3.org/2000/svg"
 width="720.000000pt" height="1280.000000pt" viewBox="0 0 720.000000 1280.000000"
 preserveAspectRatio="xMidYMid meet">
<metadata>
Created by potrace 1.16, written by Peter Selinger 2001-2019
</metadata>
<g transform="translate(0.000000,1280.000000) scale(0.100000,-0.100000)"
fill="#000000" stroke="none">
<path d="M0 6400 l0 -6400 3600 0 3600 0 0 1025 0 1025 -3590 0 -3590 0 0
3600 0 3600 3590 0 3590 0 0 1775 0 1775 -3600 0 -3600 0 0 -6400z m6797 3678
c152 -71 198 -271 93 -403 -27 -34 -28 -39 -14 -50 15 -11 15 -14 0 -37 -27
-41 -84 -49 -143 -21 -31 14 -42 15 -87 3 -28 -7 -73 -13 -100 -14 -42 -1 -51
3 -72 29 -22 28 -23 31 -7 42 15 12 15 15 -5 35 -55 60 -78 178 -50 269 23 77
103 146 195 168 51 13 139 3 190 -21z m-654 6 c53 -18 116 -76 143 -132 26
-54 25 -174 -3 -227 -49 -93 -119 -136 -233 -143 -63 -4 -85 -1 -128 18 -148
64 -203 241 -118 382 25 42 43 59 94 85 54 28 75 33 131 33 37 0 88 -7 114
-16z m-5802 -239 c21 -88 38 -166 38 -172 1 -8 -12 -13 -32 -13 -28 0 -34 4
-42 32 -9 29 -14 32 -50 31 -36 0 -40 -3 -47 -31 -8 -28 -13 -32 -42 -32 l-34
0 14 58 c7 31 26 110 41 175 l27 118 44 -3 45 -3 38 -160z m369 73 l1 -93 30
38 c23 27 39 37 60 37 16 0 29 -3 29 -6 0 -4 -16 -27 -35 -53 l-34 -47 21 -35
c11 -19 29 -49 40 -66 l20 -33 -36 0 c-30 0 -38 5 -57 40 -26 45 -39 43 -39
-6 0 -31 -2 -34 -30 -34 l-30 0 0 175 0 175 30 0 30 0 0 -92z m1740 -83 l0
-176 -42 1 c-24 1 -54 -1 -68 -5 -43 -11 -77 25 -85 88 -7 58 7 128 30 147 17
14 51 17 83 6 21 -7 22 -5 22 53 l0 61 30 0 30 0 0 -175z m452 83 l3 -92 25
37 c20 30 31 37 58 37 30 0 42 -12 24 -24 -5 -3 -21 -23 -36 -45 l-28 -39 34
-54 c19 -29 38 -59 42 -65 5 -10 -3 -13 -29 -13 -30 0 -39 5 -56 35 -27 45
-39 44 -39 -1 0 -34 -1 -35 -32 -32 l-33 3 -3 173 -2 172 34 0 35 0 3 -92z
m728 28 l0 -64 29 14 c31 15 77 6 93 -19 4 -7 8 -58 8 -114 l0 -103 -30 0 -30
0 0 90 c0 75 -3 92 -16 97 -37 14 -49 -10 -52 -101 l-3 -86 -29 0 -30 0 0 175
0 175 30 0 30 0 0 -64z m530 3 c0 -55 2 -60 18 -53 31 13 76 5 95 -17 13 -16
17 -40 17 -101 0 -71 -2 -81 -26 -105 -21 -21 -31 -24 -57 -18 -18 4 -49 6
-69 6 l-38 -2 0 176 0 175 30 0 30 0 0 -61z m-1480 -9 c0 -38 2 -40 30 -40 25
0 30 -4 30 -25 0 -21 -5 -25 -30 -25 l-31 0 3 -67 c3 -66 4 -68 31 -71 28 -3
31 -9 21 -36 -4 -11 -19 -16 -45 -16 -54 0 -69 25 -69 117 0 66 -2 73 -20 73
-15 0 -20 7 -20 25 0 18 5 25 20 25 17 0 20 7 20 40 0 38 2 40 30 40 28 0 30
-2 30 -40z m-2096 -61 c24 -23 34 -121 17 -172 -15 -44 -59 -66 -97 -48 -14 6
-27 11 -29 11 -3 0 -5 -30 -5 -66 l0 -65 -27 3 -28 3 -3 179 -2 179 38 -6 c22
-2 46 -1 53 4 19 11 60 1 83 -22z m405 20 c17 -6 36 -19 41 -29 6 -10 10 -62
10 -115 l0 -97 -32 3 c-18 1 -48 -1 -66 -5 -50 -12 -82 13 -82 64 0 44 20 64
83 81 28 7 37 15 35 27 -5 26 -48 28 -55 3 -6 -25 -51 -29 -60 -5 -8 21 28 67
58 75 35 10 33 10 68 -2z m290 0 c38 -14 51 -35 51 -88 l0 -41 -61 0 c-60 0
-60 0 -57 -27 3 -32 44 -46 54 -19 9 23 64 21 64 -2 0 -51 -67 -84 -124 -62
-45 17 -55 38 -56 116 0 78 20 119 63 127 12 2 25 5 28 6 3 0 20 -4 38 -10z
m198 0 c32 -12 43 -26 43 -56 0 -31 -45 -33 -53 -3 -7 26 -47 27 -47 1 0 -11
12 -23 30 -31 78 -32 101 -82 61 -131 -15 -19 -29 -24 -66 -24 -37 0 -51 5
-66 24 -28 34 -25 61 7 61 18 0 28 -6 31 -21 7 -25 46 -22 51 4 3 12 -9 23
-42 37 -76 32 -89 107 -23 135 39 17 39 17 74 4z m197 -3 c31 -13 53 -55 38
-71 -14 -14 -50 -3 -55 16 -4 13 -12 20 -24 17 -29 -5 -21 -32 15 -50 73 -36
92 -81 53 -129 -15 -19 -29 -24 -66 -24 -37 0 -51 5 -66 24 -29 36 -25 61 10
61 20 0 30 -6 34 -20 7 -28 47 -27 47 0 0 15 -13 26 -45 40 -73 31 -85 108
-21 136 39 17 40 17 80 0z m205 3 c17 -6 36 -19 41 -29 6 -10 10 -62 10 -115
l0 -97 -32 3 c-18 1 -48 -1 -66 -5 -50 -12 -82 13 -82 64 0 44 20 64 83 81 28
7 37 15 35 27 -5 25 -45 27 -58 3 -13 -24 -60 -29 -60 -6 0 32 25 66 54 74 42
12 39 12 75 0z m319 -22 c16 -15 22 -32 22 -64 l0 -43 -61 0 c-60 0 -60 0 -57
-27 3 -32 44 -46 54 -19 8 20 64 22 64 2 0 -69 -102 -98 -158 -45 -19 17 -22
31 -22 98 0 68 3 80 23 98 12 11 29 23 37 26 25 9 73 -4 98 -26z m1000 -3 c18
-21 22 -37 22 -89 0 -77 -13 -110 -50 -125 -35 -15 -93 -4 -116 21 -23 26 -31
128 -13 170 24 60 111 73 157 23z m232 16 c17 -17 20 -33 20 -125 l0 -105 -30
0 -30 0 0 90 c0 75 -3 92 -17 97 -32 12 -53 -32 -53 -113 l0 -74 -30 0 -30 0
0 120 0 120 29 0 c16 0 31 -5 33 -11 2 -6 14 -5 33 5 39 21 51 20 75 -4z m538
-13 c16 -15 22 -32 22 -64 l0 -43 -61 0 c-60 0 -60 0 -57 -27 3 -32 44 -46 54
-19 4 10 18 16 35 16 35 0 40 -29 9 -60 -27 -27 -63 -34 -105 -20 -46 15 -55
34 -55 123 0 64 3 76 23 94 12 11 29 23 37 26 25 8 74 -5 98 -26z m530 16 c18
-16 21 -32 24 -123 l3 -105 -32 -3 -33 -3 0 91 c0 72 -3 92 -15 96 -33 13 -45
-15 -45 -102 l0 -84 -35 0 -35 0 0 120 0 120 35 0 c19 0 35 -5 35 -11 0 -5 10
-3 22 5 29 21 51 20 76 -1z m227 -14 c17 -16 21 -35 23 -120 l4 -100 -44 1
c-23 1 -54 -1 -68 -5 -34 -9 -80 27 -80 61 0 42 17 62 70 79 37 12 50 22 50
36 0 26 -36 25 -52 -1 -13 -20 -52 -27 -62 -12 -10 17 29 76 54 83 36 10 82 0
105 -22z m394 20 c36 -13 61 -53 61 -99 l0 -30 -59 0 c-65 0 -73 -5 -64 -38 6
-26 48 -31 57 -7 3 9 18 15 36 15 28 0 31 -3 25 -22 -4 -13 -18 -34 -33 -47
-21 -19 -33 -22 -66 -18 -61 8 -86 43 -86 117 0 73 16 109 55 126 37 16 35 16
74 3z m204 -3 c15 -8 27 -11 27 -5 0 5 14 9 31 9 l30 0 -3 -154 c-3 -134 -5
-157 -22 -175 -42 -46 -144 -35 -166 19 -7 16 -9 34 -5 39 10 18 44 12 57 -9
27 -42 78 -15 78 41 0 18 -3 20 -12 11 -7 -7 -29 -12 -49 -12 -56 0 -79 34
-79 116 0 72 13 107 44 122 29 14 37 14 69 -2z m282 -17 c17 -16 21 -36 23
-120 l4 -100 -44 1 c-23 1 -54 -1 -68 -5 -36 -9 -80 27 -80 66 0 28 30 69 50
69 6 0 26 7 45 14 25 11 33 19 29 30 -9 22 -41 20 -56 -4 -18 -29 -58 -27 -58
3 0 68 101 98 155 46z m-3045 -99 l0 -120 -35 0 -35 0 0 113 c0 63 3 117 7
120 3 4 19 7 35 7 l28 0 0 -120z m2280 63 c19 -90 25 -92 45 -14 18 68 20 71
48 71 28 0 29 -2 23 -33 -3 -19 -25 -99 -49 -178 -43 -146 -52 -161 -92 -145
-12 4 -11 14 2 60 15 54 15 56 -17 163 -18 59 -35 114 -38 121 -3 8 7 12 30
12 34 0 35 -1 48 -57z"/>
<path d="M6613 9773 c-20 -4 -23 -11 -23 -51 l0 -47 85 0 85 0 0 46 c0 40 -3
48 -22 53 -25 6 -90 6 -125 -1z"/>
<path d="M2610 8799 c-252 -29 -354 -42 -430 -55 -312 -54 -384 -67 -493 -90
-235 -49 -792 -186 -1017 -250 -69 -20 -138 -39 -155 -44 -16 -5 -75 -22 -130
-38 -55 -17 -137 -42 -183 -55 -101 -30 -122 -47 -122 -98 0 -29 6 -42 26 -58
15 -12 32 -21 39 -21 7 0 148 39 312 86 1028 295 1669 426 2338 475 317 23
589 -13 742 -98 194 -107 144 -226 -182 -438 -169 -110 -304 -183 -752 -408
-587 -294 -768 -399 -936 -542 -130 -111 -186 -207 -187 -318 0 -81 26 -141
90 -204 84 -84 179 -130 333 -159 100 -20 449 -14 592 10 50 8 125 20 168 27
l77 12 -6 81 c-4 45 -7 82 -8 83 -1 1 -44 -6 -96 -17 -242 -46 -544 -64 -693
-40 -166 26 -293 112 -298 200 -5 81 99 196 293 323 157 103 240 148 715 388
616 312 749 387 912 509 166 127 240 228 249 341 4 57 1 74 -21 120 -33 69
-58 97 -132 147 -100 67 -203 102 -366 126 -117 18 -542 20 -679 5z"/>
<path d="M5050 7295 c-198 -32 -559 -122 -913 -226 l-68 -20 32 -36 c17 -20
38 -52 46 -71 9 -22 19 -32 28 -28 37 14 437 122 580 156 239 57 376 81 511
87 250 12 308 -40 228 -205 -60 -123 -284 -308 -547 -451 l-48 -26 152 -3
c151 -3 153 -2 193 24 222 146 375 308 423 447 23 69 23 180 -1 227 -29 56
-76 99 -135 122 -86 33 -290 35 -481 3z"/>
<path d="M2990 6841 l0 -81 43 0 c24 0 48 5 55 12 14 14 16 54 2 63 -6 4 -5
13 3 25 20 32 -2 54 -57 58 l-46 3 0 -80z"/>
<path d="M3580 6840 l0 -80 40 0 c52 0 80 27 80 78 0 58 -22 82 -76 82 l-44 0
0 -80z"/>
<path d="M3230 6565 l0 -85 39 0 c23 0 46 7 55 16 18 17 21 50 6 59 -5 3 -7
20 -3 37 7 38 -15 58 -64 58 l-33 0 0 -85z"/>
<path d="M1290 6335 c-8 -22 -7 -31 5 -45 11 -12 13 -20 6 -25 -6 -3 -11 -1
-11 6 0 7 -3 10 -6 7 -3 -4 -1 -16 6 -27 7 -14 7 -21 0 -21 -15 0 -12 -19 5
-37 8 -8 12 -19 9 -25 -4 -6 -10 -5 -15 3 -12 20 -11 2 1 -22 7 -13 7 -19 0
-19 -15 0 -12 -21 7 -42 9 -10 11 -18 5 -18 -6 0 -12 6 -15 13 -2 6 -4 -9 -3
-34 1 -25 7 -53 15 -62 7 -10 9 -17 3 -17 -6 0 -12 5 -14 11 -2 6 -3 -9 -3
-33 0 -23 4 -48 8 -55 4 -6 3 -22 -2 -35 -13 -35 -11 -440 3 -457 7 -10 7 -13
0 -9 -15 10 -11 -67 5 -86 8 -9 11 -20 7 -23 -4 -4 -11 -1 -16 7 -6 9 -10 10
-10 3 0 -6 14 -27 30 -45 17 -18 30 -37 30 -42 0 -5 -8 1 -19 12 -17 20 -41
30 -41 17 0 -3 11 -18 25 -33 14 -15 25 -31 25 -37 0 -5 -5 -2 -11 8 -6 9 -14
15 -20 12 -5 -4 -9 -1 -9 4 0 6 -5 11 -11 11 -6 0 0 -15 15 -34 14 -19 26 -38
26 -43 0 -4 -5 0 -11 10 -5 9 -14 17 -19 17 -17 0 -11 -20 15 -48 14 -15 25
-30 25 -35 0 -4 -11 4 -24 18 -14 15 -27 22 -30 16 -4 -6 29 -46 73 -91 44
-44 83 -76 86 -70 3 5 -17 33 -45 61 -27 29 -50 56 -50 60 0 4 15 -8 34 -26
31 -33 56 -45 56 -27 0 4 -23 29 -51 56 -28 26 -49 50 -47 52 2 2 41 -33 86
-77 45 -44 87 -77 92 -74 6 4 -23 40 -64 81 -41 41 -71 74 -67 74 4 0 30 -22
57 -50 27 -27 52 -50 57 -50 19 0 1 26 -58 87 -36 36 -65 68 -65 72 0 5 97
-85 136 -128 12 -13 24 -19 28 -13 3 5 -12 28 -34 51 -22 23 -40 44 -40 48 0
4 5 2 12 -5 7 -7 16 -12 20 -12 15 0 8 18 -17 41 -13 13 -25 28 -25 32 0 4 16
-8 37 -28 20 -19 40 -35 45 -35 14 0 9 28 -7 34 -8 3 -15 10 -15 16 0 6 17 -5
38 -24 36 -35 52 -44 52 -29 0 4 -21 29 -47 55 -26 26 -42 48 -37 48 6 0 20
-11 30 -25 17 -23 44 -34 44 -18 0 4 -17 24 -37 45 -20 21 -34 38 -30 38 3 0
24 -18 46 -41 23 -22 46 -37 52 -34 7 5 -4 21 -28 45 -21 20 -49 50 -63 66
-25 28 -25 29 -1 9 13 -11 43 -39 67 -62 38 -39 64 -53 64 -37 0 3 -26 32 -57
63 -78 78 -108 115 -53 66 24 -22 58 -55 75 -72 18 -18 35 -33 39 -33 17 0 1
26 -44 71 -27 27 -50 53 -50 57 0 6 56 -45 115 -105 18 -18 35 -33 39 -33 18
0 -1 28 -63 90 -38 39 -66 70 -62 70 4 0 30 -22 57 -50 27 -27 52 -50 57 -50
17 0 5 24 -29 57 -20 19 -34 36 -32 39 3 2 25 -16 50 -41 26 -25 49 -45 52
-45 15 0 2 23 -34 60 -51 52 -53 66 -2 17 42 -41 52 -45 52 -19 0 10 4 13 8 7
4 -5 26 -28 50 -49 67 -64 62 -32 -6 35 -34 33 -62 64 -62 70 0 6 20 -10 45
-35 42 -44 65 -57 65 -37 0 4 -22 29 -50 55 -27 26 -50 51 -50 56 0 6 31 -21
69 -60 61 -61 91 -83 91 -65 0 3 -22 29 -50 58 -87 90 -54 70 45 -29 85 -84
115 -107 115 -88 0 3 -37 43 -82 89 -125 126 -163 165 -157 165 3 0 51 -45
107 -100 90 -89 122 -113 122 -94 0 3 -21 28 -47 54 -27 26 -59 60 -73 76 -25
28 -25 28 -1 9 13 -11 61 -57 107 -103 46 -46 89 -80 94 -77 6 4 -22 39 -62
79 -40 40 -82 84 -93 97 -20 24 -19 24 9 -1 15 -14 61 -58 101 -97 40 -40 75
-73 79 -73 18 0 0 28 -53 81 -33 32 -56 59 -52 59 5 0 42 -34 84 -75 41 -41
78 -75 81 -75 18 0 -1 28 -55 82 -33 33 -59 62 -57 64 3 2 36 -28 75 -66 39
-39 74 -70 77 -70 3 0 6 7 6 15 0 8 -4 15 -9 15 -5 0 -12 8 -16 18 -5 14 -4
15 6 5 7 -7 17 -13 21 -13 15 0 8 18 -17 41 -13 13 -25 29 -25 34 0 7 3 7 8 0
25 -32 142 -138 148 -133 3 4 -6 19 -20 35 -14 15 -26 32 -25 38 0 5 3 4 6 -2
5 -15 33 -18 33 -4 0 5 -11 18 -25 29 -14 11 -25 25 -25 31 0 5 21 -10 46 -34
42 -42 64 -55 64 -39 0 4 -11 17 -25 30 -14 13 -25 28 -25 35 0 6 15 -5 34
-25 32 -33 56 -46 56 -29 0 4 -10 17 -23 28 -12 11 -29 29 -37 40 l-15 20 25
-20 c13 -11 38 -35 56 -52 30 -30 54 -42 54 -27 0 4 -11 17 -26 30 -14 13 -21
24 -17 24 5 0 20 -11 35 -25 15 -14 32 -25 38 -25 16 0 12 18 -7 29 -10 5 -15
12 -13 15 3 3 20 -8 37 -24 32 -30 53 -38 53 -20 0 5 -8 13 -17 19 -10 5 -15
12 -12 15 3 3 21 -10 41 -30 26 -24 39 -31 44 -22 4 6 2 14 -4 16 -7 2 -12 9
-12 15 0 6 15 -3 33 -21 37 -36 44 -39 49 -16 2 11 20 -1 61 -41 32 -31 61
-54 64 -51 3 3 0 12 -7 21 -7 9 -10 18 -7 21 3 3 12 -3 19 -15 12 -20 38 -29
38 -13 0 5 -9 18 -20 30 -12 12 -18 22 -14 22 9 0 74 -70 74 -78 0 -3 -5 -1
-12 6 -13 13 -28 16 -28 5 0 -5 11 -21 25 -37 28 -33 33 -45 10 -26 -28 23
-29 0 -2 -28 32 -34 36 -51 5 -22 -22 20 -38 26 -38 14 0 -4 35 -42 77 -85 69
-71 103 -92 95 -60 -1 8 4 7 18 -1 11 -7 20 -16 20 -20 0 -5 5 -8 10 -8 16 0
12 14 -10 38 -29 31 -12 27 22 -5 15 -14 30 -24 34 -21 8 9 -19 48 -33 48 -7
0 -13 7 -13 16 0 10 16 0 47 -30 25 -25 50 -46 55 -46 16 0 8 19 -18 39 -14
11 -24 26 -21 33 4 10 6 10 6 1 1 -14 31 -18 31 -4 0 5 -7 14 -15 21 -8 7 -15
16 -15 21 0 5 15 -6 34 -26 31 -32 56 -45 56 -29 0 4 -15 21 -32 39 -18 17
-40 40 -48 51 -14 18 -13 18 9 -1 13 -11 38 -35 56 -52 30 -31 55 -42 55 -25
0 4 -22 29 -50 55 -27 26 -46 47 -41 47 4 0 26 -18 49 -40 24 -24 43 -36 47
-30 4 6 -5 22 -20 36 -15 14 -25 27 -23 30 3 2 13 -5 23 -16 10 -11 22 -20 27
-20 13 0 9 28 -4 33 -8 4 -7 6 3 6 9 1 20 -7 23 -16 5 -12 10 -13 18 -5 9 9 2
20 -26 47 -21 19 -33 35 -28 35 4 0 19 -11 32 -25 13 -14 27 -25 32 -25 13 0
9 28 -4 33 -10 4 -10 6 0 6 7 1 23 -10 36 -24 13 -14 26 -25 30 -25 13 0 5 18
-21 44 -14 14 -23 29 -20 33 4 3 7 1 7 -5 0 -7 4 -12 10 -12 5 0 25 -16 45
-37 19 -20 38 -33 42 -29 4 4 3 10 -2 14 -18 13 -89 92 -84 92 3 0 19 -11 35
-25 47 -41 64 -27 19 15 -14 13 -25 27 -25 32 0 8 43 -28 99 -84 16 -15 31
-25 34 -21 4 3 -15 27 -41 52 -75 73 -99 110 -36 56 47 -41 60 -32 19 13 -14
15 -25 31 -25 35 0 5 15 -8 34 -27 31 -33 56 -46 56 -29 0 4 -10 17 -22 28
-13 11 -32 31 -43 45 l-20 25 20 -15 c11 -8 27 -23 36 -32 16 -18 39 -24 39
-12 0 4 -12 18 -26 31 -14 13 -24 26 -21 29 3 3 25 -15 50 -41 26 -26 48 -41
52 -35 3 6 -12 28 -34 51 -23 22 -41 42 -41 46 0 7 31 -17 46 -36 8 -11 13
-11 18 -2 5 7 -6 25 -26 44 -18 18 -42 44 -53 57 -11 14 3 4 31 -22 27 -27 53
-48 57 -48 15 0 6 24 -19 47 -14 13 -24 26 -22 28 2 3 29 -20 60 -50 31 -30
61 -55 68 -55 6 0 9 -4 6 -8 -6 -10 33 -46 41 -38 3 3 -13 24 -36 48 -89 93
-112 121 -106 126 3 3 11 -3 19 -13 8 -11 15 -14 19 -8 4 6 0 16 -8 23 -8 7
-15 17 -15 23 0 5 8 0 19 -11 18 -21 41 -29 41 -15 0 4 -10 17 -22 30 -12 13
-17 23 -11 23 6 0 19 -11 29 -25 18 -25 44 -34 44 -16 0 5 -10 18 -22 28 -27
21 -53 53 -44 53 3 0 19 -14 35 -31 19 -19 32 -26 36 -19 4 6 -5 22 -19 35
-14 13 -26 29 -26 35 0 5 27 -17 60 -51 33 -33 64 -58 70 -54 5 3 -24 40 -65
82 -41 42 -75 81 -75 85 0 5 27 -19 59 -52 32 -33 62 -60 65 -60 17 0 2 26
-36 64 -24 23 -52 53 -63 67 l-20 24 29 -25 c16 -14 43 -40 61 -57 29 -30 55
-42 55 -27 0 4 -23 29 -51 55 -27 27 -46 49 -41 49 5 0 37 -27 70 -60 34 -33
66 -60 72 -60 5 0 10 -7 10 -15 0 -8 5 -15 10 -15 21 0 8 20 -65 95 -72 74
-94 103 -58 74 10 -8 26 -24 36 -36 10 -13 23 -23 28 -23 16 0 9 20 -16 46
-31 31 -33 45 -2 16 39 -37 53 -23 17 16 -12 12 -16 22 -9 22 6 0 20 -11 31
-25 11 -14 24 -25 29 -25 17 0 9 22 -16 42 -14 11 -25 25 -24 31 0 8 2 8 6 0
2 -7 12 -13 20 -13 9 0 14 -3 10 -6 -8 -8 35 -44 46 -37 4 2 -10 23 -33 46
-22 23 -40 46 -40 51 0 5 15 -8 34 -28 33 -34 56 -46 56 -28 0 4 -22 29 -50
55 -28 26 -50 52 -50 57 0 6 31 -21 69 -60 62 -62 91 -83 91 -64 0 3 -21 27
-47 53 -27 26 -59 61 -73 77 l-25 29 25 -20 c14 -11 50 -46 81 -77 50 -51 79
-70 79 -52 0 3 -29 35 -65 71 -36 36 -65 69 -65 74 0 5 40 -32 89 -81 50 -49
93 -85 96 -80 4 6 -31 48 -77 94 -100 100 -172 178 -139 151 48 -40 331 -327
331 -336 0 -5 -23 14 -50 41 -28 28 -55 48 -60 45 -5 -3 22 -38 61 -77 38 -39
67 -73 65 -76 -3 -2 -20 12 -39 32 -31 32 -57 46 -57 31 0 -3 21 -27 48 -53
49 -50 97 -106 72 -84 -8 6 -18 12 -22 12 -10 0 -11 -30 0 -30 4 0 15 -12 26
-26 18 -25 18 -25 -3 -12 -12 7 -21 16 -21 20 0 5 -4 8 -10 8 -16 0 -12 -13
15 -44 17 -19 22 -33 16 -40 -7 -8 1 -23 22 -47 18 -19 41 -46 52 -59 l20 -25
-28 24 c-37 33 -47 18 -13 -18 19 -20 26 -35 22 -48 -4 -13 4 -29 29 -53 19
-19 35 -37 35 -42 0 -9 -34 17 -58 44 -9 9 -20 15 -24 12 -5 -3 12 -27 39 -53
76 -75 128 -131 120 -131 -3 0 -17 11 -31 25 -25 25 -46 33 -46 17 0 -4 15
-21 33 -38 26 -26 35 -29 50 -20 14 9 20 7 28 -7 8 -14 14 -15 24 -7 7 6 17
10 21 9 18 -3 53 14 56 26 2 10 6 10 16 -1 11 -12 10 -14 -3 -14 -8 0 -15 -5
-15 -11 0 -7 9 -9 23 -5 12 3 25 6 30 6 4 0 7 7 7 15 0 13 4 12 22 -5 12 -11
25 -20 30 -20 10 0 11 20 1 20 -9 1 -47 50 -39 50 2 0 18 -13 34 -30 17 -16
35 -30 41 -30 6 0 11 -4 11 -10 0 -5 5 -10 12 -10 9 0 9 3 0 12 -7 7 -12 19
-12 27 0 10 6 8 19 -7 17 -20 41 -30 41 -16 0 3 -25 31 -55 62 -30 31 -53 57
-51 59 2 2 33 -26 69 -62 41 -42 68 -62 72 -55 4 6 -1 21 -11 33 -16 18 -14
18 11 -3 16 -14 34 -31 41 -39 8 -11 13 -11 18 -2 5 7 -6 25 -26 44 -18 18
-42 44 -53 57 -10 14 10 -3 45 -37 56 -52 68 -59 83 -50 15 10 20 9 28 -6 7
-12 14 -15 22 -9 7 5 27 13 45 17 18 4 32 13 32 21 0 11 5 10 22 -6 32 -29 56
-22 26 8 -7 7 -9 12 -5 12 3 0 20 -13 36 -29 20 -20 33 -26 38 -19 3 7 1 14
-5 16 -7 2 -12 11 -12 19 0 13 4 11 19 -5 18 -21 41 -29 41 -15 0 4 -12 21
-27 37 l-28 31 30 -25 c16 -14 39 -36 51 -49 14 -15 24 -19 28 -12 4 6 -4 23
-18 38 -42 45 -30 46 13 2 25 -27 41 -37 46 -29 4 6 -1 21 -11 33 -16 18 -14
18 11 -3 16 -14 34 -31 38 -38 7 -10 12 -10 22 -2 8 7 21 8 32 3 22 -10 54
-10 70 0 7 5 21 4 30 -1 10 -5 24 -7 31 -5 6 3 12 -2 12 -10 0 -9 15 -17 43
-21 84 -14 150 -39 184 -70 l35 -32 -26 -31 c-56 -66 -202 -150 -414 -237
-199 -82 -345 -133 -987 -348 -846 -282 -1053 -361 -1397 -533 -411 -206 -522
-449 -299 -657 371 -348 1505 -475 3305 -372 279 16 281 16 309 42 36 34 36
75 0 108 -31 29 -9 29 -428 3 -954 -57 -1878 -28 -2420 77 -453 88 -750 247
-720 385 25 113 326 299 740 459 61 23 137 52 170 65 113 44 444 157 960 328
591 196 823 284 1040 394 127 64 183 102 241 164 58 62 79 112 71 175 -6 54
-50 126 -72 118 -18 -7 -18 -1 -5 45 5 20 6 40 0 50 -5 10 -5 33 0 54 4 21 5
39 1 41 -9 6 -6 136 4 165 4 12 2 28 -4 35 -7 8 -7 23 -1 46 6 20 6 39 0 50
-6 11 -6 30 0 50 5 18 6 40 1 48 -5 8 -5 31 0 50 4 20 4 43 -1 53 -6 10 -6 30
0 49 6 21 6 38 0 45 -5 6 -5 26 0 50 5 24 5 44 0 50 -6 7 -6 24 0 45 6 20 6
39 0 50 -6 11 -6 30 0 50 5 18 6 40 2 49 -6 14 -8 197 -2 226 5 23 -3 71 -13
83 -8 10 -7 16 1 21 7 4 -35 7 -93 7 -58 -1 -105 -4 -105 -9 0 -4 -6 -5 -12 0
-7 4 -52 8 -99 8 -73 0 -86 -2 -81 -15 5 -13 4 -13 -12 0 -20 16 -98 22 -89 6
4 -5 1 -6 -8 0 -20 13 -100 14 -92 1 4 -6 1 -7 -8 -1 -18 11 -289 12 -282 1 3
-5 -3 -4 -13 1 -21 11 -71 5 -80 -10 -3 -5 -14 -2 -25 8 -14 12 -22 14 -32 6
-8 -7 -18 -7 -27 -2 -8 6 -19 10 -25 10 -5 0 -3 -5 5 -10 13 -8 13 -10 -2 -10
-9 0 -20 5 -23 10 -3 6 -10 10 -16 10 -14 0 -11 -28 4 -33 7 -4 8 -6 1 -6 -6
-1 -17 6 -24 14 -10 12 -16 13 -27 4 -10 -9 -18 -8 -32 5 -12 11 -21 13 -25 7
-4 -5 -1 -13 6 -18 15 -9 43 -43 36 -43 -3 0 -20 13 -39 29 -26 23 -37 27 -47
18 -11 -9 -17 -7 -27 7 -8 10 -19 15 -24 11 -7 -4 4 -22 29 -47 58 -59 49 -65
-10 -7 -28 27 -52 49 -55 49 -15 0 -1 -27 28 -55 17 -18 41 -43 52 -56 18 -22
18 -22 1 -9 -11 8 -38 34 -62 58 -38 37 -64 52 -64 37 0 -3 23 -29 50 -57 78
-80 59 -74 -25 8 -41 40 -77 69 -80 63 -4 -5 20 -35 52 -67 32 -32 65 -67 72
-77 18 -24 -75 60 -102 93 -10 12 -23 22 -28 22 -18 0 -8 -22 24 -54 17 -18
41 -43 52 -56 20 -25 20 -25 0 -10 -11 8 -28 25 -38 38 -23 28 -37 28 -37 1 0
-21 -1 -20 -21 5 -11 14 -25 26 -30 26 -19 0 -8 -23 27 -57 20 -19 34 -36 32
-39 -3 -2 -13 5 -23 16 -22 24 -35 26 -35 5 0 -13 -4 -12 -22 5 -27 25 -38 25
-39 3 0 -11 -3 -13 -6 -5 -2 6 -11 12 -19 12 -8 0 -14 8 -14 17 0 14 -2 15
-12 4 -11 -10 -5 -19 25 -48 21 -19 36 -37 34 -40 -3 -2 -24 14 -46 36 -40 40
-61 51 -61 32 0 -5 10 -18 23 -28 12 -10 31 -30 42 -43 l20 -25 -20 15 c-11 8
-30 26 -41 39 -16 17 -24 20 -29 11 -4 -7 -4 -15 1 -19 5 -3 16 -15 24 -26 15
-19 15 -19 -12 0 -15 11 -28 23 -28 28 0 9 -30 10 -30 0 0 -3 8 -15 18 -26 17
-19 16 -19 -5 -6 -13 8 -23 17 -23 21 0 5 -4 8 -10 8 -17 0 -11 -20 15 -46 28
-28 34 -44 8 -23 -9 8 -72 69 -138 137 -67 67 -130 122 -139 122 -10 0 46 -63
134 -151 83 -84 149 -154 146 -156 -2 -2 -73 66 -157 152 -104 105 -159 153
-169 149 -8 -3 -167 -5 -352 -4 -237 0 -338 -3 -338 -10 0 -6 -20 -20 -45 -31
-37 -16 -51 -18 -83 -9 -21 5 -47 19 -56 29 -28 31 -238 68 -220 39 7 -12 -3
-10 -27 5 -17 9 -23 9 -26 0 -3 -9 -12 -9 -30 -2 -22 8 -24 7 -19 -7 6 -15 4
-15 -10 -3 -10 8 -38 14 -63 15 -25 1 -40 -1 -33 -3 6 -3 12 -9 12 -15 0 -6
-9 -3 -20 7 -15 14 -23 16 -31 8 -6 -6 -18 -9 -25 -6 -37 14 -3 -30 104 -137
64 -64 126 -128 137 -141 20 -24 20 -24 -9 1 -16 14 -89 85 -162 159 -104 104
-136 132 -146 123 -9 -7 -19 -7 -28 -2 -8 6 -19 10 -25 10 -5 0 -3 -4 5 -10 8
-5 11 -13 6 -17 -4 -4 -13 -1 -19 8 -15 19 -90 21 -82 2 6 -17 0 -16 -19 3
-13 12 -23 13 -52 5 -21 -6 -42 -7 -48 -3 -16 9 -86 9 -86 -1 0 -5 -6 -5 -12
0 -19 11 -88 11 -81 -1 4 -5 1 -6 -8 0 -18 11 -199 12 -192 1 3 -5 -5 -3 -16
5 -18 11 -23 11 -30 -1 -7 -10 -13 -11 -30 -2 -18 10 -20 9 -14 -6 6 -16 5
-17 -11 -3 -25 20 -95 20 -88 0 4 -12 1 -11 -14 2 -17 15 -26 16 -58 7 -30 -8
-41 -8 -47 3 -7 10 -13 10 -27 1 -12 -7 -24 -8 -33 -2 -23 14 -32 10 -18 -8
12 -16 10 -15 -15 1 -21 13 -31 15 -34 7 -2 -6 -8 -8 -13 -5 -6 3 -17 0 -25
-7 -11 -9 -18 -8 -34 6 -19 17 -20 17 -30 -10z m1167 -82 c12 -13 25 -23 28
-23 11 0 5 28 -7 33 -7 2 -10 7 -7 11 3 3 14 0 24 -8 15 -11 17 -17 7 -28 -12
-15 -7 -28 11 -28 5 0 7 6 4 14 -3 7 0 19 6 25 8 8 8 14 2 19 -6 4 -17 16 -25
27 l-15 20 25 -20 c28 -23 236 -232 265 -266 19 -23 19 -23 -9 1 -16 14 -50
46 -75 73 -25 26 -49 47 -53 47 -16 0 -8 -21 17 -46 14 -14 25 -28 25 -31 0
-7 -26 14 -65 55 -18 17 -35 32 -39 32 -17 0 -2 -24 44 -70 28 -28 50 -53 50
-57 0 -4 -17 10 -38 30 -21 20 -41 37 -45 37 -14 0 -6 -23 15 -41 17 -16 18
-19 5 -19 -10 0 -17 4 -17 9 0 11 -82 91 -92 91 -18 0 -5 -19 42 -66 27 -27
50 -52 50 -57 0 -4 -32 24 -71 63 -67 66 -89 81 -89 62 0 -4 21 -28 48 -53 51
-49 78 -79 69 -79 -3 0 -40 34 -82 75 -43 41 -82 75 -86 75 -18 0 -7 -17 39
-61 26 -25 58 -58 72 -74 l25 -28 -27 19 c-15 10 -28 22 -28 27 0 10 -30 9
-30 -2 0 -5 10 -18 23 -28 25 -21 52 -53 44 -53 -6 0 -233 225 -262 261 l-20
24 20 -15 c11 -8 29 -25 40 -37 11 -13 24 -23 28 -23 9 0 9 30 0 30 -5 0 -17
13 -27 28 l-19 27 29 -25 c15 -14 33 -31 40 -39 7 -9 13 -10 17 -4 4 6 -5 23
-18 37 -32 35 -32 46 0 16 26 -25 47 -21 25 5 -26 31 7 14 45 -24 22 -22 44
-37 48 -34 10 6 -27 43 -43 43 -6 0 -9 4 -5 9 3 6 -3 14 -12 20 -15 9 -15 10
-2 11 8 0 26 -11 39 -25 25 -27 45 -33 37 -12 -2 6 -10 11 -16 10 -6 -2 -11 4
-11 12 0 8 -3 15 -8 15 -4 0 -13 10 -21 23 l-14 22 24 -20 c13 -11 34 -30 46
-42z"/>
<path d="M1563 4998 c2 -7 10 -12 16 -10 6 1 11 -5 11 -13 0 -8 4 -15 9 -15 5
0 11 -6 14 -13 3 -9 -7 -13 -34 -14 -28 -2 -39 2 -39 13 0 7 -7 14 -16 14 -10
0 -13 -6 -10 -18 5 -14 -1 -22 -21 -31 -54 -24 -238 -173 -298 -240 -95 -106
-143 -221 -131 -311 39 -297 390 -352 1176 -186 255 53 586 138 1305 334 742
202 970 259 1309 327 65 13 121 27 124 30 3 3 -163 4 -369 1 l-374 -5 -185
-49 c-177 -48 -446 -121 -520 -142 -101 -29 -672 -182 -853 -229 -110 -29
-344 -84 -497 -118 -367 -80 -710 -103 -848 -57 -65 21 -112 70 -112 117 0
107 160 274 404 422 68 42 92 65 67 65 -5 0 -12 14 -16 30 -5 21 -13 30 -26
30 -10 0 -18 3 -17 8 4 9 -53 72 -64 72 -6 0 -8 -6 -5 -12z"/>
</g>
</svg>
