<?xml version="1.0" standalone="no"?>
<!DOCTYPE svg PUBLIC "-//W3C//DTD SVG 20010904//EN"
 "http://www.w3.org/TR/2001/REC-SVG-20010904/DTD/svg10.dtd">
<svg version="1.0" xmlns="http://www.w3.org/2000/svg"
 width="720.000000pt" height="1280.000000pt" viewBox="0 0 720.000000 1280.000000"
 preserveAspectRatio="xMidYMid meet">
<metadata>
Created by potrace 1.16, written by Peter Selinger 2001-2019
</metadata>
<g transform="translate(0.000000,1280.000000) scale(0.100000,-0.100000)"
fill="#000000" stroke="none">
<path d="M0 6400 l0 -6400 3600 0 3600 0 0 1903 0 1904 -432 8 c-238 4 -566
11 -728 14 l-295 6 3 42 4 42 -74 -4 c-108 -8 -111 -10 -104 -56 l6 -39 -399
0 c-334 0 -410 3 -463 16 -82 21 -93 27 -108 64 -7 16 -17 30 -22 30 -6 0 -26
14 -45 30 -18 17 -41 31 -51 32 -29 2 -36 4 -64 18 -33 16 -35 26 -8 40 11 6
20 9 20 6 0 -3 11 5 25 18 29 27 31 41 8 51 -10 5 -153 10 -318 12 -165 2
-310 6 -322 9 -13 2 -23 11 -23 19 0 8 -4 15 -10 15 -5 0 -10 -4 -10 -10 0
-15 -87 -12 -93 3 -4 10 -6 10 -6 0 -1 -17 -28 -17 -34 0 -4 9 -6 9 -6 0 -1
-7 -9 -13 -20 -13 -22 0 -31 40 -31 145 0 59 4 74 24 97 13 16 28 28 35 28 6
0 11 6 11 14 0 15 3 15 79 -5 35 -10 45 -9 52 2 5 8 9 128 9 267 0 252 1 258
33 253 4 0 7 6 7 14 0 12 13 15 63 13 l62 -1 -55 -7 -55 -7 58 -1 c52 -2 57 0
57 19 0 21 -3 22 -72 14 -40 -4 -111 -10 -158 -14 l-85 -8 70 -3 c48 -3 19 -6
-90 -10 -223 -10 -1174 -10 -1150 -1 15 6 6 10 -35 15 -30 4 -66 7 -80 7 -14
0 -59 9 -100 19 -41 10 -109 21 -150 24 l-75 5 59 -12 c43 -9 61 -17 67 -32
12 -32 11 -35 -16 -35 -14 0 -25 5 -25 10 0 6 -17 9 -37 9 -37 -1 -37 -2 -8
-8 70 -16 -1308 -30 -1453 -15 -34 4 -59 11 -56 15 3 5 -15 9 -40 9 -75 0 -52
16 42 30 144 21 139 30 -13 26 -100 -3 -151 -8 -177 -20 -21 -9 -52 -15 -70
-15 -27 1 -28 3 -8 6 25 4 79 25 112 43 10 6 41 10 70 11 29 0 85 7 123 14
l70 13 -85 2 -85 3 85 12 85 12 -45 8 -45 9 60 13 c44 9 261 14 815 19 748 7
756 6 843 -15 49 -11 98 -21 110 -20 l22 0 -22 11 c-25 12 -32 34 -8 24 8 -3
15 -1 15 4 0 5 -8 11 -17 13 -14 4 -12 5 5 6 23 1 29 15 11 27 -6 3 -15 1 -19
-6 -11 -17 -15 95 -15 425 l0 290 55 6 c48 5 50 6 15 8 -41 1 -88 21 -52 21
22 0 22 16 0 25 -16 7 -15 9 7 15 40 12 158 11 166 -1 3 -6 0 -15 -7 -20 -11
-7 -11 -9 -1 -9 9 0 11 -7 7 -19 -3 -11 -1 -22 5 -26 7 -4 9 -128 8 -376 l-1
-369 -79 0 c-45 0 -78 -4 -78 -10 0 -5 18 -10 40 -10 22 0 40 -4 40 -10 0 -5
5 -10 10 -10 6 0 9 6 8 12 -2 10 37 13 166 13 181 0 185 1 165 50 -7 18 -8 17
-8 -7 -1 -15 -5 -30 -11 -33 -5 -3 -61 -3 -122 2 -62 4 -101 9 -85 11 30 4 35
16 11 30 -32 18 -43 181 -22 330 6 45 15 82 19 82 5 0 17 9 28 21 14 15 29 20
54 18 20 -2 39 0 43 4 7 7 -9 8 -98 11 -20 1 -40 5 -45 9 -4 5 -10 62 -12 128
-3 110 -2 119 15 120 16 0 15 2 -3 9 -27 11 -29 45 -13 215 13 145 3 135 130
135 l108 0 6 -35 c4 -19 4 -153 0 -297 -4 -145 -7 -272 -7 -283 0 -11 1 -76 3
-145 l3 -125 8 90 c4 50 7 206 8 347 1 143 5 268 11 283 9 25 13 26 77 23 l68
-3 0 -498 0 -497 90 0 c62 0 85 3 75 10 -12 8 -11 10 8 10 28 0 29 26 1 56
-23 25 -24 32 -21 682 l2 372 115 0 115 0 0 -566 0 -567 38 7 c20 3 103 6 185
6 l147 0 0 252 c0 138 -3 249 -6 245 -3 -3 -6 -66 -5 -141 0 -75 -4 -138 -9
-141 -6 -4 -7 6 -4 22 7 36 -20 76 -36 53 -8 -13 -10 -12 -10 5 -1 20 -1 20
-15 1 -15 -19 -15 -19 -15 2 0 12 -6 21 -12 20 -10 -2 -13 53 -13 249 0 138 3
255 7 259 5 4 33 7 63 7 l55 0 0 245 0 244 -344 -7 c-317 -7 -348 -6 -393 11
-26 9 -56 24 -65 32 -21 18 -41 7 -33 -19 5 -15 1 -19 -17 -19 -13 0 -297 0
-633 1 -335 1 -801 2 -1035 2 -234 0 -405 1 -380 4 47 4 74 19 49 27 -8 2 -26
7 -42 10 -27 6 -27 7 -11 32 15 22 24 25 63 24 74 -3 91 -1 91 11 0 6 -29 10
-77 9 -103 -2 -105 -2 -98 10 3 6 21 10 38 11 18 0 41 4 52 9 15 6 6 9 -35 11
l-55 2 60 7 c33 4 105 9 160 11 87 2 77 3 -80 11 -99 4 -205 11 -235 15 l-55
8 -3 53 c-2 42 0 52 12 52 12 0 16 10 16 35 0 24 5 35 15 35 12 0 15 13 15 60
0 54 12 79 23 48 2 -7 2 1 -1 17 -2 17 -9 33 -15 37 -6 4 -8 10 -4 15 5 4 12
1 17 -7 12 -19 13 -17 35 73 14 59 22 77 35 77 14 0 20 16 30 80 7 44 16 83
21 86 5 3 9 31 9 62 0 66 5 77 42 86 16 3 28 11 28 16 0 6 6 10 14 10 11 0 16
20 20 78 14 170 33 242 65 242 6 0 11 14 11 30 0 26 -4 30 -27 31 -23 1 -24 3
-6 6 24 5 32 40 36 151 2 43 7 66 17 72 25 16 30 11 31 -27 l2 -38 8 45 c4 25
8 78 8 118 1 58 -2 72 -14 72 -12 0 -15 15 -15 75 0 69 2 75 20 75 11 0 23 7
26 15 4 9 19 15 35 15 l29 0 0 70 c0 40 4 70 10 70 6 0 10 21 10 46 0 44 1 46
25 42 22 -5 25 -2 25 22 0 56 12 90 31 90 16 0 19 8 19 54 0 52 1 55 30 61 30
7 30 7 30 73 0 37 3 84 6 105 l7 37 58 0 c45 0 59 4 59 14 0 19 11 25 62 35
32 7 3 10 -117 12 -473 9 870 16 3138 18 l2547 1 0 1775 0 1775 -3600 0 -3600
0 0 -6400z m6782 3684 c50 -17 112 -73 138 -125 44 -85 32 -202 -29 -284 -25
-34 -27 -41 -14 -50 14 -10 14 -14 -2 -38 -22 -35 -88 -46 -136 -23 -29 13
-43 14 -94 4 -106 -20 -142 -17 -169 17 -22 27 -22 31 -7 41 15 11 14 14 -6
36 -38 40 -63 108 -63 172 0 78 16 128 58 176 77 90 199 118 324 74z m-639 0
c52 -18 116 -76 142 -130 22 -47 30 -130 16 -180 -32 -119 -134 -194 -265
-194 -165 0 -272 106 -270 266 2 153 105 252 265 253 36 1 86 -6 112 -15z
m-5839 -91 c10 -34 76 -315 76 -324 0 -5 -16 -9 -35 -9 -30 0 -35 3 -35 24 0
31 -13 39 -59 39 -31 0 -36 -3 -43 -31 -8 -28 -13 -32 -42 -32 l-34 0 14 58
c7 31 25 110 40 175 l28 117 42 0 c32 0 44 -4 48 -17z m406 -75 l1 -93 30 38
c23 27 39 37 60 37 16 0 29 -3 29 -6 0 -4 -16 -28 -35 -54 l-34 -47 28 -45
c56 -89 56 -88 17 -88 -30 0 -38 5 -57 40 -26 45 -39 43 -39 -6 0 -31 -2 -34
-30 -34 l-30 0 0 175 0 175 30 0 30 0 0 -92z m1740 -83 l0 -176 -42 1 c-24 1
-55 -1 -69 -5 -19 -5 -33 -1 -55 18 -27 24 -29 29 -29 106 0 69 3 84 21 102
23 22 55 28 92 15 21 -7 22 -5 22 53 l0 61 30 0 30 0 0 -175z m452 83 l3 -92
25 37 c20 30 31 37 58 37 30 0 42 -12 24 -24 -5 -3 -21 -23 -36 -44 l-27 -40
41 -66 41 -67 -38 3 c-32 3 -41 9 -58 40 -26 49 -35 48 -35 -2 0 -39 -1 -40
-35 -40 l-35 0 0 175 0 175 35 0 34 0 3 -92z m728 28 l0 -65 35 15 c28 11 40
12 58 3 34 -18 37 -27 37 -136 l0 -103 -30 0 -30 0 0 90 c0 75 -3 92 -16 97
-37 14 -49 -10 -52 -101 l-3 -86 -29 0 -30 0 0 175 0 175 30 0 30 0 0 -64z
m530 3 c0 -58 1 -60 23 -53 76 26 107 -8 107 -118 0 -71 -2 -81 -26 -105 -20
-20 -31 -24 -52 -18 -15 4 -46 6 -69 5 l-43 -1 0 176 0 175 30 0 30 0 0 -61z
m-1480 -9 c0 -38 2 -40 30 -40 25 0 30 -4 30 -25 0 -21 -5 -25 -30 -25 l-31 0
3 -67 c3 -66 4 -68 31 -71 21 -3 27 -8 23 -19 -3 -8 -6 -19 -6 -24 0 -16 -73
-10 -92 8 -14 13 -18 31 -18 90 0 66 -2 75 -20 80 -13 3 -20 14 -20 29 0 17 6
24 20 24 17 0 20 7 20 40 0 38 2 40 30 40 28 0 30 -2 30 -40z m-2096 -61 c24
-23 34 -121 17 -172 -15 -44 -59 -66 -97 -48 -14 6 -27 11 -29 11 -3 0 -5 -29
-5 -65 l0 -65 -30 0 -30 0 0 181 0 182 38 -5 c20 -3 46 -2 57 3 26 10 55 2 79
-22z m405 20 c17 -6 36 -19 41 -29 6 -10 10 -62 10 -115 l0 -97 -32 3 c-18 1
-48 -1 -66 -5 -50 -12 -82 13 -82 64 0 44 20 64 83 81 28 7 37 15 35 27 -5 25
-45 27 -58 3 -13 -25 -48 -28 -57 -5 -8 21 28 67 58 75 35 10 33 10 68 -2z
m287 1 c39 -15 53 -39 54 -87 l0 -43 -61 0 c-60 0 -60 0 -57 -27 3 -32 44 -46
54 -19 9 23 64 21 64 -2 0 -51 -67 -84 -124 -62 -45 17 -55 38 -56 116 0 78
20 119 63 127 12 2 25 5 29 6 4 0 19 -4 34 -9z m201 -1 c32 -12 43 -26 43 -56
0 -31 -45 -33 -53 -2 -7 24 -40 23 -45 -2 -2 -10 9 -21 30 -29 75 -30 98 -83
59 -131 -40 -50 -151 -22 -151 38 0 19 5 23 30 23 24 0 30 -4 30 -21 0 -15 5
-20 22 -17 42 6 33 36 -16 58 -76 32 -89 107 -23 135 39 17 39 17 74 4z m202
-4 c26 -13 46 -56 33 -70 -14 -14 -50 -3 -55 16 -4 13 -12 20 -24 17 -29 -5
-21 -32 15 -50 73 -36 92 -81 53 -129 -15 -19 -29 -24 -66 -24 -37 0 -51 5
-66 24 -29 36 -25 61 10 61 21 0 30 -6 34 -21 7 -25 40 -22 45 4 3 12 -9 23
-42 37 -74 31 -86 108 -22 136 40 17 51 17 85 -1z m200 4 c17 -6 36 -19 41
-29 6 -10 10 -62 10 -115 l0 -97 -32 3 c-18 1 -48 -1 -66 -5 -50 -12 -82 13
-82 64 0 44 20 64 83 81 28 7 37 15 35 27 -5 25 -45 27 -58 3 -11 -22 -44 -28
-55 -11 -12 20 8 59 38 74 38 19 45 19 86 5z m319 -22 c16 -15 22 -32 22 -64
l0 -43 -61 0 c-60 0 -60 0 -57 -27 3 -32 44 -46 54 -19 9 23 64 21 64 -2 0
-49 -66 -84 -121 -64 -50 20 -59 37 -59 121 0 68 3 80 23 98 12 11 29 23 37
26 25 9 73 -4 98 -26z m1000 -3 c18 -21 22 -36 22 -98 0 -77 -15 -107 -61
-121 -31 -10 -84 3 -105 26 -23 26 -31 127 -13 170 24 60 111 73 157 23z m240
8 c8 -10 12 -52 12 -119 l0 -103 -30 0 -30 0 0 90 c0 75 -3 92 -17 97 -32 12
-53 -32 -53 -113 l0 -74 -30 0 -30 0 0 120 0 120 29 0 c16 0 31 -5 33 -11 2
-6 14 -5 33 5 33 17 63 13 83 -12z m530 -8 c15 -17 22 -38 22 -65 l0 -39 -61
0 c-60 0 -60 0 -57 -27 3 -32 44 -46 54 -19 4 10 18 16 35 16 22 0 29 -5 29
-20 0 -42 -64 -79 -115 -66 -52 13 -65 39 -65 124 0 69 3 81 23 99 12 11 29
23 37 26 28 11 75 -3 98 -29z m539 12 c7 -6 13 -53 15 -116 l3 -105 -32 -3
-33 -3 0 91 c0 72 -3 92 -15 96 -33 13 -45 -15 -45 -102 l0 -84 -35 0 -35 0 0
120 0 120 35 0 c19 0 35 -4 35 -9 0 -6 12 -3 28 4 28 15 58 12 79 -9z m221
-12 c19 -22 22 -36 22 -120 l0 -95 -42 1 c-24 1 -54 -1 -68 -5 -34 -9 -80 27
-80 61 0 41 18 63 63 75 52 15 67 26 60 45 -8 21 -41 17 -55 -6 -12 -19 -48
-27 -60 -14 -15 14 11 60 43 77 43 22 86 16 117 -19z m391 25 c36 -13 61 -53
61 -99 l0 -30 -59 0 c-65 0 -73 -5 -64 -38 6 -26 53 -32 53 -7 0 11 11 15 36
15 32 0 35 -2 29 -22 -13 -43 -42 -63 -90 -63 -64 0 -87 27 -93 105 -5 75 11
118 52 136 38 16 36 16 75 3z m204 -3 c15 -8 27 -11 27 -5 0 5 14 9 30 9 l30
0 0 -149 c0 -134 -2 -151 -20 -174 -41 -52 -147 -44 -170 13 -7 16 -9 34 -5
39 9 15 46 7 60 -12 27 -37 75 -10 75 43 0 17 -3 19 -19 10 -36 -19 -78 -12
-100 16 -16 21 -21 41 -21 88 0 85 8 106 44 122 39 17 36 17 69 0z m285 -22
c19 -22 22 -36 22 -120 l0 -95 -42 1 c-24 1 -54 -1 -68 -5 -35 -9 -80 27 -80
64 0 39 19 60 70 75 33 10 46 19 48 35 4 28 -31 29 -51 0 -22 -30 -63 -23 -59
11 10 70 109 91 160 34z m-3048 -94 l0 -120 -35 0 -35 0 0 113 c0 63 3 117 7
120 3 4 19 7 35 7 l28 0 0 -120z m2280 63 c19 -91 25 -93 45 -14 17 70 18 71
50 71 l33 0 -52 -177 -51 -178 -33 -3 c-29 -3 -33 -1 -29 15 31 106 31 95 -2
207 -18 59 -35 114 -38 122 -4 10 4 14 29 14 34 0 35 -1 48 -57z m-2246 -3639
c11 -28 7 -134 -5 -134 -8 0 -8 -4 1 -15 22 -26 0 -35 -86 -35 -79 0 -85 1
-79 19 3 12 0 21 -10 25 -13 4 -15 19 -13 68 3 55 6 64 28 75 38 19 156 17
164 -3z m-1222 -331 c3 -65 3 -246 -1 -403 -6 -267 -7 -285 -25 -288 -10 -2
-16 0 -13 6 4 5 -32 17 -81 26 -47 9 -89 20 -92 22 -9 9 -12 183 -5 261 5 52
12 80 25 93 10 10 23 28 29 39 13 24 14 71 2 71 -5 0 -12 7 -15 16 -4 10 3 18
22 25 29 10 37 39 18 67 -10 17 2 29 33 34 32 4 52 35 31 48 -13 9 -13 11 0
19 12 8 11 14 -10 35 -22 24 -22 26 -4 28 10 0 24 2 31 2 6 1 15 5 19 9 24 24
31 2 36 -110z m193 -672 c-8 -20 -56 -5 -82 26 -12 15 -27 24 -36 20 -10 -4
-17 3 -21 25 -11 57 -6 496 6 563 l12 64 61 3 60 3 3 -345 c1 -190 0 -351 -3
-359z m1593 -468 l-3 -88 -85 -3 c-47 -2 -104 0 -127 3 l-43 6 0 63 c0 35 5
67 12 74 7 7 32 13 58 14 l45 1 -50 7 c-37 5 -19 7 73 8 l123 2 -3 -87z m215
75 c-2 -5 -3 -80 -3 -168 l0 -160 -77 0 c-131 0 -123 -9 -123 145 0 72 5 146
11 164 l11 32 92 -3 c50 -2 90 -6 89 -10z m163 -523 c-3 -192 -6 -428 -6 -522
0 -154 -2 -173 -16 -173 -9 0 -22 7 -28 16 -9 12 -17 13 -39 5 -86 -33 -91
-10 -82 358 4 157 9 302 11 321 2 19 6 99 10 178 5 104 11 147 21 158 10 10
33 13 75 11 l61 -2 -7 -350z m-410 205 l23 0 -4 -332 c-2 -272 -2 -298 5 -143
4 105 8 214 9 243 l1 52 101 0 102 0 -8 -242 c-4 -134 -10 -295 -14 -358 l-6
-115 -81 0 c-108 1 -114 7 -115 122 -2 111 -7 90 -12 -49 l-4 -108 166 0 c91
0 180 4 198 9 24 7 35 6 44 -5 8 -10 41 -15 123 -16 102 -2 104 -2 28 -5 -50
-3 -80 -8 -77 -14 4 -5 39 -8 83 -5 55 3 64 2 32 -4 l-45 -7 50 -2 50 -3 -44
-10 c-32 -7 -40 -12 -30 -19 10 -6 11 -9 2 -10 -28 -3 -32 -4 -39 -11 -4 -5
-53 -8 -108 -8 -56 0 -141 -5 -191 -10 -49 -5 -191 -10 -315 -11 -178 -1 -234
2 -267 14 -39 13 -43 13 -43 -1 0 -13 -12 -14 -78 -9 -50 4 -83 2 -89 -4 -11
-11 -2484 -7 -2528 3 -17 4 -20 13 -20 69 l0 64 125 1 c69 0 701 6 1405 11
960 8 1282 8 1287 -1 6 -8 8 -8 8 2 0 6 10 12 23 12 20 1 21 1 4 11 -18 11
-19 25 -13 268 4 141 9 338 12 438 l6 182 52 4 c28 3 78 3 110 1 32 -2 69 -4
82 -4z m-1778 -752 l4 -108 -94 0 c-51 0 -99 4 -106 9 -9 6 -12 20 -7 47 10
62 18 73 24 34 6 -35 6 -35 63 -38 l56 -3 -5 43 c-7 53 -29 75 -79 81 -22 2
-1 4 45 5 46 1 82 4 80 6 -2 2 -38 6 -79 9 -92 7 -89 7 -65 17 11 5 52 8 90 7
l70 -2 3 -107z m3286 -314 c3 -9 6 -130 6 -270 0 -235 -1 -254 -17 -255 -47
-2 -161 2 -188 7 -50 9 -57 36 -62 269 -5 205 -5 211 17 238 21 26 24 27 130
27 89 0 109 -3 114 -16z m-4064 -299 l0 -165 -72 2 -73 1 55 6 c63 7 46 19
-33 23 l-48 2 3 50 c3 49 4 51 33 54 20 2 37 13 51 33 28 40 21 69 -17 69 -16
0 -29 -4 -29 -10 0 -5 -9 -10 -20 -10 -16 0 -20 7 -20 30 l0 30 75 0 c71 0 75
1 81 25 3 14 8 25 10 25 2 0 4 -74 4 -165z m247 83 c-4 -46 -7 -98 -7 -116 l0
-33 -102 3 c-117 3 -109 -6 -87 101 6 31 16 57 22 57 7 1 -1 8 -18 18 l-30 16
92 11 c51 6 95 14 99 18 4 4 14 7 22 7 13 0 14 -13 9 -82z m1955 -520 c1 -304
2 -561 2 -571 2 -27 26 -36 71 -27 23 4 30 8 17 9 -32 1 -17 21 17 21 15 0 31
4 37 9 5 5 203 10 439 12 237 2 413 3 393 1 -20 -2 -42 -10 -48 -18 -11 -12
-6 -14 28 -14 53 0 64 -18 15 -23 -25 -2 -14 -5 32 -6 39 -2 61 -6 50 -9 l-20
-5 20 -7 c11 -5 -841 -8 -1892 -9 -1121 0 -1913 3 -1913 8 0 31 15 41 59 43
39 1 41 2 11 5 -64 7 -66 17 -5 25 33 5 71 9 85 10 25 1 25 1 -3 12 l-29 10 7
336 c7 378 11 399 73 400 12 0 25 7 28 14 4 11 19 14 50 13 l45 -2 -3 -393 -3
-392 48 0 c26 0 47 4 47 9 0 5 11 12 25 15 24 6 24 8 10 22 -10 11 -28 15 -51
12 -52 -6 -57 16 -50 197 4 83 7 185 8 228 1 100 8 107 100 107 67 0 73 2 97
30 25 29 29 30 137 36 l111 7 5 -327 c3 -179 8 -329 12 -333 5 -6 627 -14
1181 -16 197 -1 454 13 461 24 3 5 0 9 -5 9 -16 0 -15 630 1 665 6 14 14 25
17 25 154 13 146 9 148 77 2 50 0 54 -8 31 -10 -27 -13 -28 -85 -28 l-75 0 3
143 3 142 83 3 c45 2 82 7 82 12 0 6 29 10 65 10 l65 0 2 -552z m-512 125 c0
-43 -3 -88 -6 -100 -8 -28 -37 -30 -66 -4 -18 18 -20 27 -14 83 9 85 8 84 79
97 4 0 7 -34 7 -76z m1518 30 c2 25 7 37 17 37 8 0 14 -8 13 -17 -3 -45 3 -73
16 -73 10 0 16 -16 20 -52 8 -72 3 -501 -6 -480 -4 9 -7 72 -7 140 -1 74 -5
122 -11 122 -5 0 -10 -9 -10 -20 0 -11 -4 -20 -9 -20 -10 0 -19 60 -24 160 -2
40 -4 32 -5 -27 -2 -71 -5 -84 -22 -93 -17 -9 -20 -8 -20 13 0 27 -19 55 -40
59 -8 2 -23 19 -32 38 -13 26 -18 30 -19 15 0 -15 -3 -14 -9 7 -4 15 -6 64 -3
108 5 71 8 80 25 80 12 0 22 9 25 21 5 16 12 20 39 17 18 -1 37 1 41 6 4 4 11
-12 14 -36 l6 -43 1 38z m246 -134 c-3 -5 1 -9 9 -9 20 0 24 -38 19 -174 -4
-99 -7 -116 -22 -121 -28 -9 -100 25 -110 51 -5 13 -12 78 -16 144 -7 119 -7
120 15 120 16 0 23 -8 28 -30 l6 -31 24 35 c15 20 31 32 39 29 8 -3 11 -9 8
-14z m-3096 -131 c8 -8 12 -61 12 -175 0 -144 -2 -162 -16 -156 -9 3 -14 13
-11 24 3 11 2 21 -3 24 -18 11 -32 126 -25 202 9 98 15 109 43 81z m3711 -118
c20 -10 21 -19 21 -210 l0 -200 -142 0 c-79 0 -149 4 -156 8 -10 7 -12 49 -11
175 3 201 11 224 81 229 123 9 189 8 207 -2z"/>
<path d="M6613 9773 c-20 -4 -23 -11 -23 -51 l0 -47 85 0 85 0 0 46 c0 40 -3
48 -22 53 -25 6 -90 6 -125 -1z"/>
<path d="M4572 6603 c-14 -34 -92 -310 -92 -324 0 -5 4 -9 10 -9 5 0 25 53 45
118 51 166 51 166 60 112 4 -25 14 -62 22 -82 12 -31 20 -38 42 -38 35 0 41 6
85 70 21 30 40 57 43 60 2 3 2 -47 -2 -110 -6 -113 2 -158 23 -135 14 15 26
292 13 299 -19 12 -48 -13 -100 -89 -29 -42 -58 -74 -64 -72 -19 6 -35 77 -36
155 -1 63 -3 72 -20 72 -11 0 -23 -11 -29 -27z"/>
<path d="M4898 6384 c-41 -22 -53 -50 -33 -80 15 -24 20 -25 114 -23 l99 1 5
35 c10 58 24 67 60 37 26 -22 38 -25 73 -20 40 5 43 4 46 -21 2 -15 9 -28 16
-31 8 -3 12 12 12 52 0 43 -3 56 -15 56 -8 0 -15 -6 -15 -14 0 -19 -50 -35
-77 -25 -12 4 -27 17 -33 28 -8 16 -19 20 -48 18 -44 -2 -52 -11 -52 -58 l0
-36 -64 -7 c-76 -8 -96 -2 -96 30 0 18 5 24 23 24 25 0 67 26 67 41 0 14 -52
10 -82 -7z"/>
</g>
</svg>
