<?xml version="1.0" standalone="no"?>
<!DOCTYPE svg PUBLIC "-//W3C//DTD SVG 20010904//EN"
 "http://www.w3.org/TR/2001/REC-SVG-20010904/DTD/svg10.dtd">
<svg version="1.0" xmlns="http://www.w3.org/2000/svg"
 width="720.000000pt" height="1280.000000pt" viewBox="0 0 720.000000 1280.000000"
 preserveAspectRatio="xMidYMid meet">
<metadata>
Created by potrace 1.16, written by Peter Selinger 2001-2019
</metadata>
<g transform="translate(0.000000,1280.000000) scale(0.100000,-0.100000)"
fill="#000000" stroke="none">
<path d="M0 6400 l0 -6400 3600 0 3600 0 0 1025 0 1025 -2637 0 c-1451 0
-3067 0 -3590 0 l-953 0 1 1422 c1 783 5 1545 8 1693 5 192 8 229 9 128 2
-159 -1 -152 81 -156 23 -1 41 -5 41 -9 0 -4 20 -8 44 -8 69 0 136 -35 136
-70 0 -5 7 -10 15 -10 8 0 15 -4 15 -10 0 -5 9 -10 20 -10 11 0 23 -6 26 -14
3 -8 18 -17 33 -21 22 -5 29 -14 39 -50 9 -35 17 -45 32 -45 11 0 23 -6 26
-14 3 -8 19 -18 35 -21 20 -5 29 -13 29 -26 0 -10 7 -19 15 -19 8 0 15 -5 15
-11 0 -16 26 -39 44 -39 12 0 16 -10 16 -39 0 -35 3 -39 30 -44 18 -4 30 -13
30 -22 0 -8 9 -15 20 -15 13 0 20 -7 20 -20 0 -18 7 -20 80 -20 l80 0 0 69 c0
46 5 72 14 80 7 6 16 25 20 41 4 21 11 30 26 30 11 0 20 4 20 9 0 5 14 12 30
16 17 4 30 13 30 20 0 8 11 25 25 39 28 28 33 56 10 56 -12 0 -15 16 -15 80
l0 80 40 0 40 0 0 40 0 40 40 0 40 0 0 127 0 128 72 72 c62 62 69 73 49 73
-14 0 -21 5 -19 13 3 6 15 43 28 82 18 55 25 65 31 50 6 -17 8 -17 8 -2 1 9 8
17 16 17 13 0 15 24 15 160 0 136 2 160 15 160 12 0 15 13 15 60 0 46 3 60 15
60 25 0 35 35 35 119 0 45 4 81 10 81 5 0 15 18 21 40 11 38 14 40 51 40 l38
0 0 80 0 80 40 0 c39 0 40 1 40 35 0 34 1 35 40 35 29 0 40 4 40 15 0 9 9 15
25 15 21 0 25 5 25 30 0 20 5 30 15 30 9 0 15 9 15 25 0 14 -4 25 -10 25 -5 0
-10 7 -10 15 0 11 12 15 50 15 l50 0 0 40 c0 22 5 40 10 40 6 0 10 11 10 24 0
14 5 28 10 31 5 3 10 19 10 36 0 22 5 29 20 29 18 0 20 7 20 59 l0 58 62 7
c75 8 98 25 98 78 0 27 4 38 15 38 9 0 15 -10 16 -22 1 -15 4 -10 11 15 6 21
17 41 24 44 10 4 14 26 14 84 0 60 3 79 14 79 7 0 26 29 42 65 l29 64 68 1
c53 0 67 3 67 15 0 8 5 15 10 15 6 0 10 18 10 40 0 30 4 40 16 40 9 0 22 17
31 40 9 22 20 40 25 40 4 0 8 13 8 29 0 29 20 53 47 57 20 3 25 10 28 36 4 37
4 38 20 38 12 0 15 15 15 72 0 70 16 138 32 138 4 0 8 6 8 14 0 8 13 28 30 46
16 18 30 33 30 34 0 7 79 84 91 89 9 3 6 6 -8 6 -30 1 -34 51 -4 51 11 0 22 6
24 13 4 10 6 10 6 0 1 -7 8 -13 17 -13 11 0 15 6 11 20 -3 13 1 21 14 25 13 4
19 16 20 38 1 33 3 30 13 -15 7 -30 30 -38 40 -13 3 8 12 15 21 15 10 0 15 10
15 30 0 23 4 30 20 30 17 0 20 7 20 40 0 29 4 40 15 40 11 0 15 11 15 40 0 22
5 40 10 40 6 0 11 12 11 28 1 18 3 21 6 9 5 -18 6 -18 19 2 10 13 26 21 46 21
21 0 31 6 35 20 6 22 33 28 33 8 0 -9 4 -8 10 2 5 8 10 30 10 48 0 47 15 69
55 82 19 6 35 18 35 26 0 9 5 12 11 9 14 -9 49 24 43 40 -3 7 0 16 6 20 6 4 8
14 5 24 -6 19 40 51 74 51 17 0 21 6 21 35 0 33 2 35 35 35 19 0 35 4 35 8 0
35 14 36 1788 40 l1732 4 0 1774 0 1774 -3600 0 -3600 0 0 -6400z m6782 3684
c50 -17 112 -73 138 -125 44 -85 32 -202 -29 -284 -25 -34 -27 -41 -14 -50 14
-10 14 -14 -2 -38 -22 -35 -88 -46 -136 -23 -29 13 -43 14 -94 4 -106 -20
-144 -17 -171 17 -21 27 -21 30 -6 41 16 11 15 14 -5 36 -38 40 -63 108 -63
172 0 78 16 128 58 176 77 90 199 118 324 74z m-639 0 c52 -18 116 -76 142
-130 22 -47 30 -130 16 -180 -32 -119 -134 -194 -265 -194 -165 0 -272 106
-270 266 2 153 105 252 265 253 36 1 86 -6 112 -15z m-5839 -91 c10 -34 76
-315 76 -324 0 -5 -16 -9 -35 -9 -30 0 -35 3 -35 24 0 31 -13 39 -59 39 -31 0
-36 -3 -43 -31 -8 -28 -13 -32 -42 -32 l-34 0 14 58 c7 31 25 110 40 175 l28
117 42 0 c32 0 44 -4 48 -17z m406 -75 l1 -93 30 38 c23 27 39 37 60 37 16 0
29 -3 29 -6 0 -4 -16 -27 -35 -53 l-34 -47 21 -35 c11 -19 29 -49 40 -66 l20
-33 -36 0 c-30 0 -38 5 -57 40 -26 45 -39 43 -39 -6 0 -31 -2 -34 -30 -34
l-30 0 0 175 0 175 30 0 30 0 0 -92z m1740 -83 l0 -176 -42 1 c-24 1 -55 -1
-69 -5 -19 -5 -33 -1 -55 18 -27 24 -29 29 -29 106 0 69 3 84 21 102 23 22 55
28 92 15 21 -7 22 -5 22 53 l0 61 30 0 30 0 0 -175z m452 83 l3 -92 25 37 c20
30 31 37 58 37 30 0 42 -12 24 -24 -5 -3 -21 -23 -36 -44 l-27 -40 41 -66 41
-67 -38 3 c-32 3 -41 9 -58 40 -26 49 -35 48 -35 -2 0 -39 -1 -40 -35 -40
l-35 0 0 175 0 175 35 0 34 0 3 -92z m728 28 l0 -65 35 15 c28 11 40 12 58 3
34 -18 37 -27 37 -136 l0 -103 -30 0 -30 0 0 90 c0 75 -3 92 -16 97 -37 14
-49 -10 -52 -101 l-3 -86 -29 0 -30 0 0 175 0 175 30 0 30 0 0 -64z m530 3 c0
-58 1 -60 23 -53 76 26 107 -8 107 -118 0 -71 -2 -81 -26 -105 -20 -20 -31
-24 -52 -18 -15 4 -46 6 -69 5 l-43 -1 0 176 0 175 30 0 30 0 0 -61z m-1480
-9 c0 -38 2 -40 30 -40 25 0 30 -4 30 -25 0 -21 -5 -25 -30 -25 l-31 0 3 -67
c3 -66 4 -68 31 -71 21 -3 27 -8 23 -19 -3 -8 -6 -19 -6 -24 0 -16 -73 -10
-92 8 -14 13 -18 31 -18 90 0 66 -2 75 -20 80 -13 3 -20 14 -20 29 0 17 6 24
20 24 17 0 20 7 20 40 0 38 2 40 30 40 28 0 30 -2 30 -40z m-2096 -61 c24 -23
34 -121 17 -172 -15 -44 -59 -66 -97 -48 -14 6 -27 11 -29 11 -3 0 -5 -29 -5
-65 l0 -65 -30 0 -30 0 0 181 0 182 38 -5 c20 -3 46 -2 57 3 26 10 55 2 79
-22z m405 20 c17 -6 36 -19 41 -29 6 -10 10 -62 10 -115 l0 -97 -32 3 c-18 1
-48 -1 -66 -5 -50 -12 -82 13 -82 64 0 44 20 64 83 81 28 7 37 15 35 27 -5 25
-45 27 -58 3 -13 -25 -48 -28 -57 -5 -8 21 28 67 58 75 35 10 33 10 68 -2z
m287 1 c39 -15 53 -39 54 -87 l0 -43 -61 0 c-60 0 -60 0 -57 -27 3 -32 44 -46
54 -19 9 23 64 21 64 -2 0 -51 -67 -84 -124 -62 -45 17 -55 38 -56 116 0 78
20 119 63 127 12 2 25 5 29 6 4 0 19 -4 34 -9z m201 -1 c32 -12 43 -26 43 -56
0 -31 -45 -33 -53 -2 -7 24 -40 23 -45 -2 -2 -10 9 -21 30 -29 75 -30 98 -83
59 -131 -40 -50 -151 -22 -151 38 0 19 5 23 30 23 24 0 30 -4 30 -21 0 -15 5
-20 22 -17 42 6 33 36 -16 58 -76 32 -89 107 -23 135 39 17 39 17 74 4z m202
-4 c26 -13 46 -56 33 -70 -14 -14 -50 -3 -55 16 -4 13 -12 20 -24 17 -29 -5
-21 -32 15 -50 73 -36 92 -81 53 -129 -15 -19 -29 -24 -66 -24 -37 0 -51 5
-66 24 -29 36 -25 61 10 61 21 0 30 -6 34 -21 7 -25 40 -22 45 4 3 12 -9 23
-42 37 -74 31 -86 108 -22 136 40 17 51 17 85 -1z m200 4 c17 -6 36 -19 41
-29 6 -10 10 -62 10 -115 l0 -97 -32 3 c-18 1 -48 -1 -66 -5 -50 -12 -82 13
-82 64 0 44 20 64 83 81 28 7 37 15 35 27 -5 25 -45 27 -58 3 -11 -22 -44 -28
-55 -11 -12 20 8 59 38 74 38 19 45 19 86 5z m318 -21 c17 -16 23 -33 23 -65
l0 -43 -61 0 c-60 0 -60 0 -57 -27 3 -32 44 -46 54 -19 9 23 64 21 64 -2 0
-49 -66 -84 -121 -64 -50 20 -59 37 -59 121 0 68 3 80 23 98 12 11 29 23 37
26 25 10 73 -2 97 -25z m1001 -4 c18 -21 22 -36 22 -98 0 -77 -15 -107 -61
-121 -31 -10 -84 3 -105 26 -23 26 -31 127 -13 170 24 60 111 73 157 23z m240
8 c8 -10 12 -52 12 -119 l0 -103 -30 0 -30 0 0 90 c0 75 -3 92 -17 97 -32 12
-53 -32 -53 -113 l0 -74 -30 0 -30 0 0 120 0 120 29 0 c16 0 31 -5 33 -11 2
-6 14 -5 33 5 33 17 63 13 83 -12z m530 -8 c15 -17 22 -38 22 -65 l0 -39 -61
0 c-60 0 -60 0 -57 -27 3 -32 44 -46 54 -19 4 10 18 16 35 16 22 0 29 -5 29
-20 0 -42 -64 -79 -115 -66 -52 13 -65 39 -65 124 0 69 3 81 23 99 12 11 29
23 37 26 28 11 75 -3 98 -29z m539 12 c7 -6 13 -53 15 -116 l3 -105 -32 -3
-33 -3 0 91 c0 72 -3 92 -15 96 -33 13 -45 -15 -45 -102 l0 -84 -35 0 -35 0 0
120 0 120 35 0 c19 0 35 -4 35 -9 0 -6 12 -3 28 4 28 15 58 12 79 -9z m221
-12 c19 -22 22 -36 22 -120 l0 -95 -42 1 c-24 1 -54 -1 -68 -5 -34 -9 -80 27
-80 61 0 41 18 63 63 75 52 15 67 26 60 45 -8 21 -41 17 -55 -6 -12 -19 -48
-27 -60 -14 -15 14 11 60 43 77 43 22 86 16 117 -19z m391 25 c36 -13 61 -53
61 -99 l0 -30 -59 0 c-65 0 -73 -5 -64 -38 6 -26 53 -32 53 -7 0 11 11 15 36
15 32 0 35 -2 29 -22 -13 -43 -42 -63 -90 -63 -64 0 -87 27 -93 105 -5 75 11
118 52 136 38 16 36 16 75 3z m204 -3 c15 -8 27 -11 27 -5 0 5 14 9 30 9 l30
0 0 -149 c0 -134 -2 -151 -20 -174 -41 -52 -147 -44 -170 13 -7 16 -9 34 -5
39 9 15 46 7 60 -12 27 -37 75 -10 75 43 0 17 -3 19 -19 10 -36 -19 -78 -12
-100 16 -16 21 -21 41 -21 88 0 85 8 106 44 122 39 17 36 17 69 0z m285 -22
c19 -22 22 -36 22 -120 l0 -95 -42 1 c-24 1 -54 -1 -68 -5 -35 -9 -80 27 -80
64 0 39 19 60 70 75 33 10 46 19 48 35 4 28 -31 29 -51 0 -22 -30 -63 -23 -59
11 10 70 109 91 160 34z m-3048 -94 l0 -120 -35 0 -35 0 0 113 c0 63 3 117 7
120 3 4 19 7 35 7 l28 0 0 -120z m2280 63 c19 -91 25 -93 45 -14 17 70 18 71
50 71 l33 0 -52 -177 -51 -178 -33 -3 c-29 -3 -33 -1 -29 15 31 106 31 95 -2
207 -18 59 -35 114 -38 122 -4 10 4 14 29 14 34 0 35 -1 48 -57z"/>
<path d="M6613 9773 c-20 -4 -23 -11 -23 -51 l0 -47 85 0 85 0 0 46 c0 40 -3
48 -22 53 -25 6 -90 6 -125 -1z"/>
<path d="M2712 6938 c-5 -7 -13 -49 -16 -93 -4 -44 -9 -96 -11 -115 -9 -74
-36 -337 -40 -385 -3 -27 -9 -97 -15 -155 -18 -195 -20 -237 -11 -210 l9 25 1
-24 c1 -13 -6 -29 -14 -35 -14 -11 -54 -360 -85 -741 -6 -71 -15 -174 -21
-228 -8 -73 -8 -102 0 -110 8 -8 11 -7 11 4 0 7 9 27 19 43 l20 29 -6 -44 c-2
-24 -8 -53 -13 -64 -40 -92 -48 -117 -54 -167 -5 -49 -4 -57 11 -62 10 -2 99
-12 198 -21 99 -8 231 -20 293 -26 112 -10 114 -10 139 13 13 12 31 39 40 58
9 19 38 81 64 138 28 57 49 117 49 135 0 18 -13 69 -29 113 -47 132 -47 144
-12 484 5 47 15 106 22 132 11 40 11 50 0 60 -11 11 -14 11 -18 0 -3 -6 -9
-10 -14 -6 -19 12 -39 -27 -44 -85 -5 -61 -20 -95 -63 -141 -90 -98 -112 -126
-112 -142 0 -10 1 -20 3 -21 1 -2 -5 -12 -13 -22 -14 -17 -13 -18 5 -12 19 7
19 7 1 -8 -19 -15 -41 -11 -31 6 24 38 -85 -32 -116 -75 -4 -5 -32 -10 -62
-12 l-55 -3 72 142 c39 78 89 183 110 232 21 50 44 105 52 123 8 18 14 46 14
62 0 16 8 35 18 42 10 7 31 39 47 70 l30 57 -24 25 c-14 14 -30 26 -37 26 -19
0 -25 28 -9 44 15 14 10 26 -11 26 -7 0 -14 -15 -16 -32 -3 -32 -4 -33 -46
-30 -37 3 -44 1 -49 -17 -8 -33 -28 -19 -28 20 0 32 2 34 40 40 32 4 36 7 21
14 -17 8 -17 9 5 26 13 10 30 19 37 19 6 0 12 4 12 9 0 4 -30 11 -67 15 -83 8
-114 16 -107 27 3 5 1 17 -5 27 -7 14 -5 21 9 29 14 10 17 21 13 57 -5 44 -4
46 20 46 14 0 27 -6 30 -13 7 -20 160 -41 188 -26 12 6 39 9 60 6 29 -4 36 -2
32 9 -3 8 -9 11 -14 8 -12 -7 -58 44 -65 73 -4 13 -9 23 -13 23 -15 0 -30 63
-20 82 16 30 20 80 7 95 -6 8 -13 37 -14 64 -2 34 -10 56 -25 72 -15 15 -23
18 -26 10 -7 -18 -23 -16 -23 3 0 9 -11 25 -25 36 -14 11 -25 28 -25 39 0 10
-4 19 -10 19 -5 0 -10 9 -10 20 0 11 -4 20 -10 20 -5 0 -10 6 -10 14 0 7 -6
19 -14 26 -8 6 -16 23 -18 38 -2 22 -10 28 -45 37 -23 5 -45 13 -49 18 -11 10
-20 9 -32 -5z"/>
<path d="M4057 6818 c-6 -4 2 -17 21 -33 23 -19 37 -44 48 -83 8 -32 19 -68
25 -81 5 -13 7 -32 3 -43 -5 -15 -12 -18 -37 -13 l-32 6 30 -14 c30 -14 55
-52 55 -83 0 -13 -2 -13 -17 1 -25 26 -62 36 -84 25 -10 -6 -19 -15 -19 -19 0
-19 56 -45 93 -43 53 2 63 -27 38 -107 -12 -37 -17 -77 -14 -107 10 -101 -23
-131 -152 -140 -48 -4 -99 -10 -114 -13 -27 -8 -43 -41 -19 -41 7 0 30 -15 50
-32 47 -41 56 -92 27 -151 -16 -34 -17 -46 -7 -73 11 -31 9 -35 -51 -113 -34
-45 -57 -81 -52 -81 5 0 37 32 72 70 43 49 69 70 85 70 13 0 24 -4 24 -10 0
-5 7 -10 15 -10 8 0 15 -4 15 -10 0 -5 6 -10 14 -10 8 0 24 -13 34 -28 11 -15
37 -34 57 -42 37 -15 40 -25 20 -72 -10 -25 17 -23 40 2 24 26 27 25 48 -11
20 -35 22 -69 5 -69 -9 0 -9 -3 -1 -11 8 -8 8 -19 2 -33 -5 -11 -13 -59 -18
-106 -11 -92 -31 -187 -45 -208 -13 -22 -1 -24 53 -10 l52 13 5 85 c3 47 5
115 4 153 l-1 67 66 0 c54 0 75 5 113 27 26 15 49 31 50 35 2 4 11 8 19 8 13
0 15 -10 10 -65 -7 -74 6 -94 24 -35 9 31 9 46 1 66 -15 32 -15 34 3 34 8 0
15 9 15 21 0 11 5 17 10 14 6 -3 10 -1 10 5 0 6 9 23 20 38 11 15 21 36 23 47
1 11 6 25 10 31 8 13 57 6 57 -8 0 -7 4 -7 13 0 6 5 27 13 45 17 29 6 32 10
32 42 0 22 7 41 17 48 15 11 10 14 -38 20 -64 8 -105 4 -103 -10 1 -6 4 -26 8
-46 5 -31 3 -37 -13 -42 -16 -4 -19 2 -24 52 -3 31 -8 66 -12 79 -6 18 -4 22
14 22 12 0 24 7 27 15 4 8 17 15 31 15 16 0 27 7 30 20 3 11 9 20 14 20 5 0
12 0 17 1 4 0 9 -10 12 -22 5 -19 12 -22 54 -22 54 0 62 8 68 62 l3 35 -64 16
c-58 14 -62 17 -46 30 11 9 39 15 71 15 29 0 51 2 48 4 -2 2 0 11 5 20 5 9 11
39 15 67 6 46 4 52 -11 50 -13 -1 -17 5 -16 22 3 27 -13 29 -22 2 -3 -11 -15
-20 -26 -20 -10 0 -19 -5 -19 -11 0 -6 -7 -3 -16 6 -9 9 -24 13 -33 10 -19 -8
-20 -8 -43 -6 -10 0 -18 6 -18 12 0 6 7 8 16 5 12 -4 14 -1 9 13 -4 15 0 20
22 25 45 9 137 10 154 2 14 -6 17 0 21 38 l3 46 -37 0 c-21 0 -38 4 -38 9 0
10 58 23 71 15 5 -3 9 7 9 23 0 15 3 39 7 52 5 22 4 23 -19 18 -21 -6 -26 -2
-38 28 -17 43 -34 50 -70 28 -24 -14 -33 -15 -52 -4 -25 13 -78 1 -78 -18 0
-16 -34 -18 -46 -2 -9 12 -15 13 -26 3 -8 -6 -18 -9 -21 -5 -12 11 -7 44 6 42
22 -2 57 13 57 26 0 21 -46 45 -77 40 -15 -3 -34 -1 -42 4 -11 7 -10 14 8 39
11 17 21 35 21 41 0 6 5 11 10 11 6 0 9 -6 8 -12 -2 -8 9 -14 25 -16 23 -3 27
0 27 22 0 14 5 26 10 26 20 0 9 19 -24 39 -32 20 -72 20 -60 -1 3 -5 -2 -15
-12 -23 -16 -11 -23 -11 -46 3 -18 10 -28 25 -28 39 0 22 -27 63 -41 63 -3 0
-5 -13 -3 -30 5 -41 -2 -38 -26 14 -19 43 -22 45 -72 51 -95 11 -339 20 -351
13z"/>
<path d="M3647 6250 c-4 -18 -7 -43 -7 -57 0 -13 -4 -22 -9 -18 -5 3 -17 -19
-25 -49 -12 -40 -25 -60 -52 -81 -40 -31 -53 -27 -38 13 12 31 -2 46 -63 71
-44 18 -60 9 -65 -34 -4 -32 1 -41 29 -68 20 -19 31 -38 28 -47 -3 -9 4 -27
15 -40 25 -29 25 -28 -7 -41 -27 -10 -27 -11 -9 -25 19 -13 19 -15 2 -33 -17
-19 -17 -20 1 -29 10 -5 23 -7 30 -5 7 2 15 -7 19 -21 7 -28 19 -34 27 -13 3
6 5 3 5 -8 -1 -31 20 -75 39 -82 9 -4 30 1 46 11 16 9 31 15 32 14 2 -2 7 -37
13 -78 l9 -75 2 73 1 72 69 -6 c77 -7 98 5 54 33 -15 9 -30 19 -33 21 -5 4 41
41 51 42 4 0 10 -10 14 -22 7 -22 8 -22 12 5 3 16 -1 35 -8 43 -7 8 -14 26
-15 39 -1 13 -16 55 -33 93 -17 39 -31 85 -31 102 0 18 -9 43 -20 57 -11 14
-20 31 -20 38 0 7 -13 41 -28 75 l-29 63 -6 -33z"/>
<path d="M5308 5799 c-31 -18 -128 -195 -128 -233 0 -20 4 -36 10 -36 13 0
149 129 162 154 6 12 -15 -3 -46 -33 -30 -30 -58 -52 -62 -48 -3 3 17 47 45
98 61 110 64 125 19 98z"/>
<path d="M4660 5254 c-63 -64 -157 -128 -278 -189 l-119 -60 -6 -74 c-9 -92
-22 -140 -63 -218 -39 -74 -41 -77 -169 -218 -15 -16 -34 -45 -42 -64 -11 -27
-17 -31 -24 -20 -6 10 -9 6 -9 -16 0 -21 -3 -26 -9 -16 -6 9 -10 3 -13 -20
l-5 -33 23 28 c13 15 29 24 34 21 12 -7 55 25 135 100 33 30 63 55 67 55 4 0
8 7 8 15 0 8 4 15 9 15 11 0 65 45 100 84 14 16 42 45 61 65 37 38 62 69 107
136 16 23 44 61 64 85 44 55 89 131 89 152 0 9 6 18 13 21 8 3 20 27 27 54 7
26 16 53 20 58 8 11 24 75 18 75 -2 0 -19 -17 -38 -36z"/>
</g>
</svg>
