<?xml version="1.0" standalone="no"?>
<!DOCTYPE svg PUBLIC "-//W3C//DTD SVG 20010904//EN"
 "http://www.w3.org/TR/2001/REC-SVG-20010904/DTD/svg10.dtd">
<svg version="1.0" xmlns="http://www.w3.org/2000/svg"
 width="720.000000pt" height="1280.000000pt" viewBox="0 0 720.000000 1280.000000"
 preserveAspectRatio="xMidYMid meet">
<metadata>
Created by potrace 1.16, written by Peter Selinger 2001-2019
</metadata>
<g transform="translate(0.000000,1280.000000) scale(0.100000,-0.100000)"
fill="#000000" stroke="none">
<path d="M0 6400 l0 -6400 3600 0 3600 0 0 4255 c0 2810 -4 4255 -10 4255 -6
0 -10 9 -10 19 0 10 -7 21 -15 25 -8 3 -15 15 -15 27 0 12 -8 23 -20 26 -11 3
-20 10 -20 17 0 6 -16 22 -35 35 -23 16 -35 31 -35 47 0 13 -4 24 -8 24 -18 0
-52 42 -52 65 l0 25 110 0 110 0 0 1990 0 1990 -3600 0 -3600 0 0 -6400z
m6796 3680 c151 -69 198 -267 95 -405 -25 -34 -27 -41 -14 -50 14 -10 14 -14
-1 -37 -26 -40 -88 -50 -140 -23 -24 13 -38 13 -90 3 -107 -20 -145 -17 -172
17 -21 27 -21 30 -6 41 16 11 15 14 -5 36 -56 60 -79 178 -51 269 23 77 102
146 195 169 50 12 138 3 189 -20z m-653 4 c29 -10 64 -34 92 -62 124 -125 89
-333 -68 -412 -134 -67 -310 -20 -371 98 -46 89 -41 199 13 284 41 65 129 108
221 108 36 0 87 -7 113 -16z m-5834 -111 c15 -56 71 -300 71 -307 0 -3 -16 -6
-35 -6 -30 0 -35 3 -35 24 0 34 -23 49 -64 42 -27 -5 -35 -12 -40 -36 -5 -26
-10 -30 -40 -30 l-34 0 14 58 c7 31 25 110 40 175 l28 117 42 0 c41 0 44 -2
53 -37z m403 -55 l3 -93 25 37 c20 31 31 38 58 38 17 0 32 -3 32 -6 0 -4 -16
-28 -35 -53 -30 -41 -33 -50 -21 -67 7 -10 25 -40 40 -66 l27 -48 -35 0 c-30
0 -38 5 -57 40 -26 45 -39 43 -39 -6 0 -31 -2 -34 -30 -34 l-30 0 0 175 0 175
30 0 29 0 3 -92z m1738 -83 l0 -176 -42 1 c-24 1 -55 -1 -69 -5 -19 -5 -33 -1
-55 18 -28 24 -29 29 -29 106 1 69 4 85 22 102 22 22 54 28 91 15 21 -7 22 -5
22 53 l0 61 30 0 30 0 0 -175z m452 83 l3 -92 25 37 c20 30 31 37 58 37 30 0
42 -12 24 -24 -5 -3 -21 -23 -36 -44 l-27 -40 40 -66 41 -66 -35 0 c-30 0 -39
6 -62 43 l-28 42 -3 -42 c-3 -42 -4 -43 -38 -43 l-34 0 0 175 0 175 35 0 34 0
3 -92z m728 27 l0 -66 30 16 c33 17 60 13 85 -11 11 -12 15 -40 15 -120 l0
-104 -30 0 -30 0 0 90 c0 75 -3 92 -16 97 -37 14 -49 -10 -52 -101 l-3 -86
-29 0 -30 0 0 175 0 175 30 0 30 0 0 -65z m530 4 c0 -58 1 -60 23 -53 76 26
107 -8 107 -118 0 -71 -2 -81 -26 -105 -20 -20 -31 -24 -52 -18 -15 4 -46 6
-69 5 l-43 -1 0 176 0 175 30 0 30 0 0 -61z m-1480 -9 c0 -38 2 -40 30 -40 25
0 30 -4 30 -25 0 -21 -5 -25 -30 -25 l-31 0 3 -67 c3 -66 4 -68 31 -71 21 -3
27 -8 23 -19 -3 -8 -6 -19 -6 -24 0 -16 -73 -10 -92 8 -14 13 -18 31 -18 90 0
66 -2 75 -20 80 -13 3 -20 14 -20 29 0 17 6 24 20 24 17 0 20 7 20 40 0 38 2
40 30 40 28 0 30 -2 30 -40z m-2096 -61 c24 -23 34 -121 17 -172 -15 -44 -59
-66 -97 -48 -14 6 -27 11 -29 11 -3 0 -5 -30 -5 -66 l0 -65 -27 3 -28 3 -3
179 -2 179 37 -5 c21 -3 47 -2 58 3 26 10 55 2 79 -22z m405 20 c17 -6 36 -19
41 -29 6 -10 10 -62 10 -115 l0 -97 -32 3 c-18 1 -48 -1 -66 -5 -50 -12 -82
13 -82 64 0 44 20 64 83 81 28 7 37 15 35 27 -5 26 -48 28 -55 3 -4 -14 -13
-21 -29 -21 -65 0 -15 96 52 99 6 1 25 -4 43 -10z m290 0 c38 -14 51 -35 51
-88 l0 -41 -61 0 c-60 0 -60 0 -57 -27 3 -32 44 -46 54 -19 4 10 18 16 35 16
35 0 39 -25 10 -61 -27 -34 -99 -34 -135 0 -23 22 -26 32 -26 96 0 79 20 120
63 128 12 2 25 5 28 6 3 0 20 -4 38 -10z m198 0 c32 -12 43 -26 43 -56 0 -31
-45 -33 -53 -2 -7 24 -40 23 -45 -2 -2 -10 9 -21 30 -29 75 -30 98 -83 59
-131 -40 -50 -151 -22 -151 38 0 18 5 23 26 23 18 0 28 -6 31 -21 7 -26 48
-23 48 4 0 12 -16 26 -45 40 -89 43 -75 132 22 146 4 1 19 -4 35 -10z m197 -3
c31 -13 53 -55 38 -71 -14 -14 -50 -3 -55 16 -4 13 -12 20 -24 17 -29 -5 -21
-32 15 -50 73 -36 92 -81 53 -129 -15 -19 -29 -24 -66 -24 -37 0 -51 5 -66 24
-29 36 -25 61 10 61 21 0 30 -6 34 -21 7 -25 40 -22 45 3 2 12 -11 24 -43 39
-74 35 -85 107 -21 135 39 17 40 17 80 0z m205 3 c17 -6 36 -19 41 -29 6 -10
10 -62 10 -115 l0 -97 -32 3 c-18 1 -48 -1 -66 -5 -50 -12 -82 13 -82 64 0 44
20 64 83 81 28 7 37 15 35 27 -5 25 -45 27 -58 3 -14 -27 -60 -29 -60 -3 0 36
46 79 86 81 6 1 25 -4 43 -10z m318 -21 c17 -16 23 -33 23 -65 l0 -43 -61 0
c-60 0 -60 0 -57 -27 3 -32 44 -46 54 -19 8 20 64 22 64 2 0 -69 -102 -98
-158 -45 -19 17 -22 31 -22 98 0 68 3 80 23 98 12 11 29 23 37 26 25 10 73 -2
97 -25z m1001 -4 c18 -21 22 -36 22 -98 0 -65 -3 -75 -26 -97 -35 -33 -104
-34 -136 -2 -27 28 -37 127 -17 174 24 60 111 73 157 23z m240 8 c8 -10 12
-52 12 -119 l0 -103 -30 0 -30 0 0 90 c0 75 -3 92 -17 97 -32 12 -53 -32 -53
-113 l0 -74 -30 0 -30 0 0 120 0 120 29 0 c16 0 31 -5 33 -11 2 -6 14 -5 33 5
33 17 63 13 83 -12z m529 -4 c17 -16 23 -33 23 -65 l0 -43 -61 0 c-60 0 -60 0
-57 -27 3 -32 44 -46 54 -19 4 10 18 16 35 16 22 0 29 -5 29 -20 0 -42 -64
-79 -115 -66 -52 13 -65 39 -65 124 0 69 3 81 23 99 12 11 29 23 37 26 25 10
73 -2 97 -25z m540 8 c7 -6 14 -56 17 -118 l6 -108 -35 0 -35 0 0 90 c0 72 -3
92 -15 96 -33 13 -45 -15 -45 -102 l0 -84 -35 0 -35 0 0 120 0 120 35 0 c19 0
35 -4 35 -9 0 -6 12 -3 28 4 28 15 58 12 79 -9z m218 -7 c17 -16 21 -36 23
-120 l4 -100 -44 1 c-23 1 -54 -1 -68 -5 -35 -9 -80 27 -80 64 0 39 19 60 70
75 33 10 46 19 48 35 4 28 -33 29 -50 1 -12 -19 -48 -27 -60 -14 -15 14 11 60
43 77 40 21 85 16 114 -14z m394 20 c36 -13 61 -53 61 -99 l0 -30 -59 0 c-65
0 -73 -5 -64 -38 6 -26 53 -32 53 -7 0 11 11 15 36 15 32 0 35 -2 29 -22 -4
-13 -18 -34 -33 -47 -21 -19 -33 -22 -65 -18 -59 8 -80 35 -85 107 -5 75 11
118 52 136 38 16 36 16 75 3z m204 -3 c15 -8 27 -11 27 -5 0 5 14 9 31 9 l30
0 -3 -155 c-3 -145 -4 -156 -26 -177 -17 -18 -34 -23 -73 -23 -43 0 -54 4 -75
29 -14 15 -24 36 -22 45 5 25 45 26 60 2 27 -43 78 -16 78 40 0 18 -3 20 -12
11 -7 -7 -29 -12 -49 -12 -55 0 -79 34 -79 114 0 85 8 106 44 122 39 17 36 17
69 0z m285 -22 c19 -22 22 -36 22 -120 l0 -95 -42 1 c-24 1 -55 -1 -70 -5 -21
-6 -32 -2 -52 18 -48 48 -29 99 44 121 33 10 46 19 48 35 4 28 -33 29 -50 1
-7 -11 -23 -20 -36 -20 -20 0 -23 4 -20 33 6 65 108 86 156 31z m-3048 -94 l0
-120 -35 0 -35 0 0 113 c0 63 3 117 7 120 3 4 19 7 35 7 l28 0 0 -120z m2280
63 c19 -90 25 -92 45 -14 18 69 20 71 51 71 l32 0 -24 -82 c-79 -281 -76 -273
-113 -276 -28 -3 -33 -1 -27 14 28 74 28 99 -3 207 -18 59 -34 113 -37 122 -5
12 2 15 28 15 34 0 35 -1 48 -57z m-2132 -1193 c1 -96 0 -180 -2 -186 -3 -9
-18 -8 -57 2 -77 20 -665 20 -713 0 -49 -20 -88 -77 -94 -135 -6 -64 10 -110
54 -152 l35 -34 320 -7 c315 -7 351 -11 426 -45 l32 -15 3 -111 3 -112 86 0
87 0 6 -360 c3 -198 5 -461 3 -585 l-2 -225 566 -3 567 -2 7 -203 c6 -172 5
-208 -8 -240 -16 -37 -16 -37 -75 -37 l-60 0 -15 -62 c-19 -74 -16 -78 63 -77
81 1 120 18 162 74 53 71 66 131 74 352 l7 192 81 3 81 3 3 33 3 32 -720 0
-721 0 0 1040 0 1040 1040 0 1040 0 -3 -1040 -2 -1040 -313 0 -313 0 3 -32 3
-33 143 -3 c92 -2 142 -6 142 -13 0 -7 -14 -8 -40 -4 -101 17 -213 -51 -265
-160 -43 -92 -53 -258 -18 -318 25 -45 73 -92 107 -108 50 -23 136 -24 177 -4
16 9 34 13 38 10 5 -3 10 -259 10 -581 l0 -575 92 -2 92 -2 1 50 c1 47 2 50
26 47 30 -5 40 -13 23 -19 -7 -3 -13 -9 -13 -14 0 -5 8 -4 18 2 14 9 25 8 50
-5 18 -9 32 -21 32 -26 0 -6 7 -10 15 -10 8 0 15 5 15 10 0 6 -5 10 -12 10 -6
0 -9 2 -6 5 3 3 12 3 20 0 16 -7 13 -45 -3 -45 -14 0 -11 -20 5 -36 21 -20 28
-17 14 6 -7 10 -9 22 -5 26 10 11 67 -46 67 -67 0 -10 5 -19 10 -21 6 -2 8
-17 4 -36 -6 -32 -7 -32 -21 -12 -10 14 -25 20 -55 20 -40 0 -41 -1 -24 -19
10 -11 15 -24 12 -29 -3 -5 12 -16 34 -25 23 -9 40 -22 40 -31 0 -9 11 -18 25
-22 25 -6 30 -19 19 -48 -5 -14 -28 -16 -145 -16 l-139 0 -2 78 c-1 42 -2 108
-2 145 l-1 68 -101 -3 -102 -3 -51 141 c-28 78 -51 146 -51 152 0 17 -28 22
-130 22 l-98 0 -26 -67 c-14 -38 -63 -171 -109 -298 l-84 -230 -72 -3 -73 -3
36 35 c19 20 40 53 45 73 6 21 11 139 11 263 l1 225 -93 0 -93 0 -5 -220 -5
-220 -26 -3 c-21 -3 -29 3 -43 32 l-17 36 -85 0 c-101 0 -105 -5 -79 -89 12
-38 30 -68 57 -94 l39 -37 -153 1 c-122 0 -149 3 -134 12 47 30 76 61 98 105
22 45 23 57 23 262 l0 215 -90 0 -90 0 -5 -196 c-6 -224 -11 -239 -80 -239
-69 0 -74 15 -80 239 l-5 196 -74 1 c-124 2 -113 24 -109 -225 3 -216 3 -216
31 -266 16 -27 44 -62 64 -77 l36 -28 -111 0 -112 0 0 -30 c0 -16 -4 -30 -10
-30 -5 0 -10 14 -10 30 l0 30 -129 0 -129 0 1 88 2 87 80 6 c153 11 225 79
225 211 -1 139 -96 208 -287 208 l-53 0 0 411 0 410 32 -3 c32 -3 33 -4 33
-53 0 -27 2 -80 3 -117 l2 -68 40 0 39 0 3 118 3 117 50 5 c50 5 52 7 46 50
-1 6 -50 10 -126 10 l-124 0 -3 138 -3 137 -105 6 -105 5 108 2 107 2 0 145 0
145 145 0 145 0 0 580 0 580 -85 0 -85 0 0 -214 0 -214 -44 -25 c-24 -13 -66
-28 -92 -32 -27 -4 -62 -14 -78 -22 -127 -66 -128 -241 -2 -305 33 -17 52 -20
111 -15 38 3 78 9 88 12 16 7 17 -2 15 -130 l-3 -137 -65 -2 c-36 -1 -323 -3
-637 -4 l-573 -2 -1 -37 -2 -38 -6 39 -6 39 -387 1 -388 1 0 703 0 702 216 0
c197 0 219 -2 264 -21 131 -57 159 -220 53 -308 -48 -40 -89 -51 -186 -51
-101 0 -146 -22 -190 -92 -20 -33 -22 -104 -4 -147 19 -45 467 -495 519 -522
72 -37 167 -11 213 59 63 97 41 164 -104 307 -56 55 -101 105 -101 112 0 7 12
19 28 27 33 18 118 106 155 162 70 104 96 282 62 414 -39 151 -144 281 -276
345 -40 19 -82 35 -92 35 -10 0 -28 5 -40 12 -15 8 -96 11 -269 10 l-248 -2 0
162 0 163 1033 0 1032 0 3 -175z m2706 164 c-7 -3 -9 -18 -4 -44 8 -45 3 -201
-8 -245 -7 -26 -8 -563 -1 -649 2 -28 3 -28 15 -11 8 10 14 25 14 32 0 7 10
29 22 50 12 21 35 62 51 91 16 30 36 56 44 59 11 4 12 8 3 13 -9 6 -9 16 1 44
7 20 16 36 20 36 10 0 29 58 29 89 0 18 3 22 9 13 6 -10 10 -7 15 14 5 17 3
30 -4 34 -18 11 -7 45 13 42 12 -2 17 4 17 21 0 20 -4 23 -25 19 -14 -2 -25
-8 -25 -13 0 -5 -7 -9 -15 -9 -8 0 -19 -9 -25 -20 -9 -17 -50 -29 -50 -15 0
11 54 91 69 102 13 9 15 34 12 161 -1 83 0 160 4 171 6 19 14 21 86 21 88 0
91 -3 63 -68 -13 -32 -54 -184 -54 -204 0 -10 43 4 68 23 13 10 36 21 52 24
20 4 32 14 36 30 6 23 29 35 72 35 36 0 29 -36 -10 -50 -18 -6 -51 -22 -73
-36 l-40 -26 41 6 41 6 -28 -59 c-16 -33 -43 -73 -61 -90 l-32 -30 24 -10 c14
-5 21 -10 16 -10 -6 -1 -1 -7 10 -15 18 -14 18 -15 -9 -21 -15 -4 -27 -11 -27
-17 0 -5 -32 -39 -70 -75 -39 -37 -69 -72 -66 -79 3 -7 -2 -18 -11 -26 -9 -7
-23 -29 -31 -48 -8 -19 -28 -55 -46 -79 -28 -39 -31 -50 -30 -110 1 -44 8 -82
23 -113 11 -26 21 -51 21 -55 0 -11 55 -89 89 -125 13 -15 22 -30 19 -34 -7
-6 -109 61 -120 79 -23 36 -61 178 -60 229 0 44 -3 55 -14 51 -19 -7 -27 -64
-19 -130 6 -52 5 -56 -9 -44 -9 8 -20 11 -23 7 -4 -4 -7 -79 -8 -168 0 -117
-3 -162 -12 -165 -7 -3 -31 13 -55 35 -39 37 -42 42 -30 64 10 18 12 53 8 129
-7 129 -15 1127 -9 1152 4 14 15 17 56 16 29 0 47 -3 41 -5z m1336 -238 c0
-30 -4 -34 -32 -40 -29 -6 -50 -24 -119 -103 -30 -34 -46 -98 -30 -117 6 -7
22 -44 36 -81 13 -38 29 -72 36 -75 14 -10 14 -97 -1 -115 -7 -8 -18 -15 -25
-15 -7 0 -23 -9 -36 -19 -22 -18 -22 -20 -6 -26 34 -14 16 -24 -53 -31 -76 -7
-90 -19 -35 -30 46 -8 35 -24 -17 -24 -32 0 -41 4 -45 21 -5 17 -10 19 -32 13
-14 -4 -41 -8 -59 -9 -38 -2 -84 -24 -79 -38 2 -6 13 -17 26 -25 20 -14 22
-14 28 6 6 26 29 28 53 7 14 -13 22 -14 43 -4 23 10 34 7 105 -35 85 -51 82
-45 86 -150 1 -34 -3 -42 -29 -57 -19 -11 -55 -19 -92 -21 -55 -2 -66 1 -115
34 -30 19 -68 39 -85 42 -65 15 -120 106 -93 155 5 11 10 35 10 55 0 19 6 37
13 39 8 4 7 6 -3 6 -19 1 -73 88 -101 162 -22 58 -27 135 -10 152 6 6 11 24
11 39 0 32 28 49 68 41 18 -3 23 1 22 14 -4 31 0 41 15 47 10 4 21 -8 35 -39
17 -37 26 -45 55 -51 19 -3 39 -12 46 -20 15 -18 38 -18 45 1 4 8 12 15 20 15
10 0 14 14 14 53 0 44 -4 58 -24 76 -22 21 -33 23 -90 19 -47 -3 -74 -10 -95
-26 -23 -17 -31 -19 -40 -9 -7 10 -3 20 17 40 58 59 70 65 116 60 57 -7 119 4
113 20 -2 7 -12 13 -23 15 -42 7 -45 10 -32 37 6 14 14 25 18 25 4 0 25 14 46
31 33 26 45 30 92 28 l54 -3 18 41 c16 35 24 42 52 45 32 3 34 0 71 -70 21
-41 37 -87 37 -106z m-936 -869 c15 -20 36 -63 47 -94 22 -65 22 -63 10 -63
-4 0 -16 17 -24 38 -9 20 -15 28 -12 17 2 -11 6 -54 9 -95 l5 -75 -13 50 c-18
68 -35 104 -68 143 -33 39 -38 97 -10 118 9 7 19 10 23 6 3 -4 17 -24 33 -45z
m-643 -487 c5 0 9 7 9 16 0 22 24 11 26 -12 3 -73 -4 -67 83 -61 l79 5 10 -40
c10 -40 10 -70 -3 -100 -6 -15 -2 -18 19 -18 22 0 26 -4 26 -29 0 -26 4 -29
37 -33 66 -8 80 -1 93 50 14 50 35 82 56 82 7 0 26 12 43 26 17 14 35 23 41
19 12 -7 14 -45 2 -45 -4 0 -16 -13 -25 -30 -18 -30 -18 -30 3 -30 34 0 18
-24 -22 -34 -35 -9 -36 -9 -41 -75 -4 -56 -2 -69 16 -93 12 -15 28 -27 35 -27
6 -1 11 -4 10 -8 -3 -9 5 -13 27 -13 17 0 16 10 -9 92 -10 33 -14 63 -9 70 5
9 10 1 13 -22 6 -41 50 -71 75 -50 12 10 12 15 -1 35 -23 36 -9 57 35 49 55
-9 61 -12 61 -34 0 -14 7 -20 23 -20 14 0 32 -12 45 -30 13 -16 29 -30 37 -30
9 0 15 -10 15 -26 0 -14 4 -23 10 -19 6 4 8 10 6 14 -3 4 10 14 29 21 19 8 35
17 35 20 0 11 49 30 76 30 15 0 23 4 19 11 -5 7 4 9 25 7 34 -3 37 -6 65 -73
10 -22 24 -46 33 -52 13 -11 -97 -13 -555 -13 l-570 0 -5 98 c-7 141 -1 426 9
390 2 -10 9 -18 14 -18z m1600 -131 c39 -20 132 -39 185 -38 30 1 57 -1 61 -4
3 -4 1 -7 -7 -7 -10 0 -10 -3 0 -15 14 -17 4 -135 -12 -135 -5 0 -7 -4 -4 -8
3 -5 -7 -20 -22 -34 -56 -52 -56 -52 -163 33 -53 44 -112 98 -130 122 -19 23
-39 46 -46 50 -7 4 -13 17 -13 27 0 18 7 20 66 20 36 0 74 -5 85 -11z m-1079
-462 c44 13 173 -3 200 -25 11 -10 24 -27 29 -39 5 -14 17 -23 29 -23 19 0 24
-9 21 -37 -1 -6 3 -14 9 -18 5 -3 10 1 10 9 0 24 22 31 37 11 15 -22 18 -75 3
-75 -11 0 -13 -30 -4 -54 3 -9 12 -16 20 -16 15 0 19 -16 5 -24 -4 -3 -6 -17
-3 -31 2 -14 0 -31 -6 -38 -12 -14 -4 -31 19 -39 15 -6 32 -100 30 -165 0 -12
7 -27 17 -32 16 -10 16 -10 0 -11 -11 0 -19 -11 -23 -34 -13 -69 2 -81 115
-91 148 -13 208 -23 216 -36 3 -5 -1 -9 -9 -9 -8 0 -27 -7 -43 -15 -19 -9 -52
-13 -89 -12 -54 3 -113 -8 -158 -27 -9 -5 -27 -6 -38 -3 -17 5 -20 2 -16 -14
4 -15 -1 -23 -19 -29 -23 -9 -30 -35 -25 -92 1 -10 -4 -18 -11 -18 -9 0 -9 -3
2 -10 13 -9 13 -11 0 -20 -12 -8 -11 -10 7 -10 12 0 30 -10 40 -22 10 -13 28
-24 41 -26 19 -2 22 1 17 19 -5 14 -1 25 12 34 25 18 34 0 17 -34 -13 -24 -12
-26 9 -29 28 -5 48 -22 24 -22 -9 0 -17 -4 -17 -10 0 -5 9 -10 20 -10 11 0 20
4 20 10 0 5 20 9 45 8 38 0 44 -3 42 -21 -1 -11 4 -22 11 -24 7 -3 12 4 12 16
0 14 9 25 25 31 22 8 24 14 19 37 -7 28 -7 28 15 9 18 -17 21 -17 21 -3 0 26
16 20 40 -13 12 -17 29 -30 39 -29 9 1 18 0 21 -1 3 -1 14 -3 25 -5 11 -2 21
-8 23 -13 2 -6 18 -6 39 -2 30 7 39 5 54 -13 24 -29 24 -37 -1 -37 -11 0 -20
-6 -20 -14 0 -8 -5 -18 -12 -22 -7 -5 -9 -1 -6 13 7 25 -6 48 -21 39 -8 -5 -8
-13 -1 -26 6 -12 7 -21 1 -25 -12 -7 -30 25 -24 43 7 17 -24 15 -31 -3 -6 -16
-32 -21 -38 -6 -1 4 -12 5 -23 0 -17 -6 -17 -8 -2 -8 9 -1 17 -5 17 -11 0 -5
8 -10 18 -10 12 0 10 -5 -10 -17 -29 -18 -47 -46 -24 -37 8 3 17 1 21 -5 3 -6
0 -11 -7 -11 -8 0 -22 -10 -32 -22 l-19 -22 -8 21 c-4 12 -18 24 -30 28 -17 6
-19 9 -8 16 8 5 18 4 23 -1 15 -15 26 -12 26 5 0 8 6 15 13 15 8 0 8 3 -2 9
-10 6 -12 20 -8 44 7 45 3 48 -35 30 -26 -14 -30 -20 -25 -48 4 -24 0 -36 -15
-49 -16 -14 -17 -20 -6 -33 11 -14 10 -15 -12 -9 -27 8 -64 23 -92 37 -26 13
-30 11 -18 -12 7 -11 9 -28 5 -37 -6 -16 -8 -15 -20 1 -11 15 -17 16 -34 7
-12 -6 -21 -18 -21 -26 0 -8 5 -12 10 -9 6 3 10 -4 10 -17 -1 -20 -2 -21 -11
-5 -5 9 -17 17 -24 17 -20 0 -19 16 1 24 13 5 14 9 4 21 -10 13 -14 13 -27 0
-8 -9 -19 -13 -24 -10 -5 4 -9 2 -9 -4 0 -5 -10 -11 -22 -13 -13 -2 -23 -10
-23 -18 0 -8 -8 -14 -18 -14 -12 1 -17 -6 -17 -22 0 -13 3 -24 8 -24 16 1 44
29 37 39 -3 6 2 14 12 18 10 4 20 10 23 14 3 4 12 4 20 -1 13 -9 13 -10 0 -10
-13 0 -13 -1 0 -10 12 -8 11 -10 -6 -10 -30 0 -36 -11 -17 -32 18 -21 10 -48
-18 -56 -8 -3 -11 -1 -7 3 13 14 -26 34 -67 35 -31 0 -37 -3 -25 -11 12 -8 12
-12 2 -16 -10 -4 -10 -8 -1 -19 7 -8 7 -14 1 -14 -16 0 -34 28 -26 42 6 10 4
10 -9 -1 -9 -7 -14 -17 -11 -22 3 -5 -4 -9 -16 -9 -13 0 -20 -5 -17 -12 2 -7
14 -13 26 -12 14 0 20 -4 17 -13 -6 -15 21 -18 43 -4 15 9 51 -6 51 -22 0 -4
-4 -5 -10 -2 -5 3 -10 2 -10 -3 0 -6 8 -13 17 -16 14 -6 15 -9 3 -16 -10 -6
-1 -23 45 -72 32 -35 62 -63 67 -62 4 1 13 2 18 3 14 2 13 31 -1 31 -7 0 -9 9
-6 21 4 15 -1 22 -19 29 -32 13 -32 34 1 26 30 -8 33 4 5 22 -21 13 -17 42 6
42 16 0 19 16 4 25 -5 3 -10 13 -10 21 0 8 4 13 9 10 5 -4 11 -1 13 5 5 15 48
-6 48 -23 0 -7 -5 -6 -15 2 -12 10 -15 10 -15 -4 0 -9 5 -16 10 -16 18 0 11
-22 -9 -27 -16 -4 -18 -10 -11 -32 4 -16 6 -39 3 -53 -3 -14 0 -29 6 -32 6 -4
11 -18 11 -32 0 -17 -5 -24 -19 -24 -27 0 -36 -18 -18 -38 8 -9 17 -32 21 -51
5 -30 4 -32 -10 -20 -14 11 -15 10 -12 -6 2 -14 -9 -26 -42 -44 -38 -21 -60
-26 -135 -27 l-90 -2 1 57 c0 36 6 66 17 81 15 22 15 24 -3 37 -11 8 -20 19
-20 25 0 6 7 5 17 -3 15 -13 16 -11 9 14 -7 31 -5 32 57 13 26 -8 47 -11 47
-8 0 3 -29 33 -65 66 -47 44 -66 68 -66 86 0 14 5 86 10 160 14 195 14 213 -7
236 -10 11 -22 33 -26 49 -5 19 -10 25 -15 17 -9 -15 -24 -1 -35 33 -4 11 -18
34 -31 50 -19 23 -25 26 -25 13 0 -10 5 -18 10 -18 6 0 10 -7 10 -15 0 -18 -1
-18 -36 0 -20 10 -23 15 -11 15 14 0 16 6 12 32 -4 18 -15 42 -26 54 -10 11
-19 24 -19 28 0 4 -7 14 -15 22 -17 18 -20 34 -5 34 13 0 50 -32 50 -44 0 -5
17 -32 38 -60 21 -28 42 -60 46 -71 5 -12 10 -15 13 -8 2 7 -3 23 -11 35 -9
12 -16 28 -16 34 0 19 41 24 64 8 29 -20 50 -18 84 11 22 18 32 37 37 71 3 26
9 53 12 60 7 19 23 7 23 -17 0 -10 6 -19 14 -19 10 0 13 17 13 68 0 91 14 212
24 212 5 0 9 -5 9 -12 0 -6 3 -9 6 -6 3 3 -4 24 -15 45 -27 55 -60 155 -66
205 -9 69 -39 124 -84 152 -22 14 -45 26 -51 26 -5 0 -10 5 -10 12 0 6 -3 9
-6 5 -4 -3 -13 0 -21 8 -14 14 -55 20 -133 18 -63 -2 -68 -3 -83 -18 -8 -8
-18 -11 -21 -7 -4 3 -4 -1 0 -11 4 -11 0 -19 -12 -24 -26 -10 -64 -45 -58 -54
2 -4 0 -10 -6 -14 -5 -3 -10 -14 -10 -23 0 -10 -13 -33 -29 -52 -33 -41 -43
-89 -45 -220 -2 -101 -17 -148 -56 -173 -11 -6 -20 -17 -20 -24 0 -7 -14 -28
-31 -48 -27 -30 -31 -41 -26 -72 4 -20 13 -41 22 -46 8 -4 14 -11 11 -15 -9
-15 51 -6 74 12 l25 18 -47 -6 c-27 -3 -48 -2 -48 2 0 23 93 128 121 135 21 6
36 -8 20 -18 -16 -9 -1 -33 25 -39 14 -4 22 -11 19 -16 -3 -6 -1 -10 4 -10 6
0 11 5 11 10 0 6 18 10 39 10 30 0 44 -6 55 -22 16 -23 11 -47 -7 -29 -23 23
-90 -40 -72 -68 3 -6 -6 -18 -20 -27 -20 -13 -29 -14 -38 -5 -22 22 -65 12
-100 -24 -50 -51 -79 -45 -37 8 19 24 26 47 14 47 -3 0 -22 -12 -42 -27 -20
-15 -39 -28 -41 -30 -2 -1 -5 -24 -7 -50 -3 -45 -3 -47 12 -28 12 17 16 18 24
5 6 -9 5 -17 -2 -21 -6 -4 -8 -11 -6 -15 3 -5 -3 -18 -14 -29 -20 -20 -20 -20
-13 6 5 18 2 28 -8 32 -12 4 -14 -4 -10 -46 2 -29 5 -76 7 -105 2 -28 9 -59
16 -67 22 -26 21 -84 -2 -107 -33 -33 -54 -9 -35 42 12 33 15 60 6 60 -5 0 -9
-5 -9 -12 0 -6 -6 -4 -13 6 -12 16 -15 17 -20 3 -4 -10 -13 -14 -27 -10 -13 3
-19 11 -16 19 3 8 -1 14 -9 14 -8 0 -12 -8 -10 -19 6 -32 -5 -60 -22 -54 -8 3
-12 12 -9 19 3 8 -2 15 -12 16 -9 0 -23 2 -30 2 -8 1 -19 12 -26 25 -12 22
-10 26 25 58 31 28 37 39 29 53 -7 13 -3 30 16 66 14 26 23 56 21 66 -3 11 0
18 8 18 14 0 31 37 22 46 -8 8 -77 -7 -72 -16 3 -4 -2 -14 -11 -21 -13 -11
-15 -9 -12 12 6 39 28 73 40 61 17 -17 48 5 48 33 0 13 -5 27 -11 31 -13 8
-59 -15 -59 -30 -1 -21 -44 -42 -75 -36 -32 6 -31 8 30 41 18 10 31 26 33 40
2 13 7 38 13 54 8 28 13 30 63 32 49 2 53 1 49 -17 -3 -12 0 -20 7 -20 7 0 9
-8 5 -20 -7 -23 7 -27 24 -6 7 9 9 32 3 72 -4 32 -6 80 -4 105 3 42 7 47 38
60 19 7 40 20 47 28 10 12 7 13 -18 9 -17 -3 -37 -7 -45 -9 -8 -2 -15 3 -15
11 0 10 12 16 33 18 23 2 32 8 32 22 0 10 -6 21 -12 23 -7 3 -2 6 12 6 32 2
67 53 72 107 1 21 5 41 8 44 21 20 40 65 40 95 0 25 4 35 15 35 9 0 19 10 24
23 5 12 18 31 30 41 11 11 21 28 21 38 0 11 4 17 9 14 4 -3 17 1 27 9 10 8 14
15 7 15 -7 0 -10 7 -6 16 4 11 13 14 30 9 17 -4 22 -2 18 5 -11 18 26 40 46
27 12 -8 28 -8 51 0z m-1068 -133 c23 -24 30 -47 29 -91 -1 -10 26 -14 96 -15
l96 -2 -95 -5 -95 -6 -5 -73 c-4 -63 -8 -76 -30 -92 -31 -24 -97 -26 -128 -4
-56 39 -78 170 -42 251 21 48 44 61 106 62 32 1 47 -5 68 -25z m1216 -9 c0
-19 18 -50 46 -82 36 -40 37 -74 3 -101 -16 -13 -29 -30 -29 -38 0 -8 19 -32
42 -53 l41 -39 -16 -38 c-14 -35 -17 -37 -23 -17 -6 21 -31 33 -69 32 -19 0
-19 -1 3 -16 32 -22 28 -29 -20 -39 l-43 -8 35 -4 c41 -4 66 -22 31 -22 -12 0
-19 -4 -16 -10 3 -5 20 -10 36 -10 27 0 30 -3 23 -22 -17 -54 -79 -52 -201 7
-51 25 -92 49 -92 53 3 19 -2 25 -11 12 -7 -11 -9 -7 -7 15 2 23 -2 29 -15 27
-15 -2 -57 44 -47 52 2 1 18 12 35 24 18 12 35 36 42 59 15 46 48 85 93 108
32 17 56 37 119 98 30 29 40 32 40 12z m-3815 -367 c-1 -21 -2 -252 -3 -513
l-2 -475 -160 0 -160 0 0 515 0 515 163 -2 162 -3 0 -37z m-1280 -263 c20 -19
25 -34 25 -75 0 -42 -5 -55 -27 -76 -57 -53 -143 -5 -143 80 0 84 89 128 145
71z m130 -22 c9 -27 20 -56 24 -66 4 -13 12 0 26 47 18 61 22 66 48 66 22 0
27 -4 23 -17 -3 -10 -18 -54 -34 -98 -26 -76 -29 -80 -57 -80 -29 0 -32 4 -63
88 -34 91 -34 107 -2 107 13 0 23 -14 35 -47z m296 24 c23 -25 34 -60 25 -83
-5 -13 -17 -16 -65 -12 -56 4 -59 3 -49 -15 8 -16 17 -18 49 -13 34 5 39 4 39
-13 0 -22 -50 -44 -78 -34 -26 9 -53 36 -63 61 -12 32 6 97 32 116 31 21 87
18 110 -7z m-631 -349 c7 -18 18 -46 25 -62 l13 -28 17 48 c9 27 19 55 21 62
4 13 40 17 48 4 7 -12 -81 -233 -102 -255 -15 -14 -27 -18 -46 -13 -30 7 -35
36 -6 36 22 0 58 59 42 69 -13 8 -71 154 -65 164 11 19 41 5 53 -25z m304 13
c37 -31 38 -130 1 -161 -20 -17 -75 -18 -107 -3 -53 25 -61 124 -12 162 28 22
93 23 118 2z m119 -52 c3 -39 7 -72 9 -74 2 -1 15 -5 30 -9 l27 -6 3 77 c3 70
5 78 23 78 19 0 20 -7 20 -95 0 -89 -1 -95 -20 -92 -21 3 -24 3 -75 0 -51 -2
-63 20 -62 109 0 43 1 79 1 81 1 1 9 2 20 2 15 0 19 -11 24 -71z m-303 -234
c0 -8 -9 -16 -20 -16 -11 -1 -26 -2 -32 -3 -9 -1 -14 -32 -16 -109 -3 -105 -3
-108 -25 -105 -21 3 -22 8 -25 111 l-3 108 -32 -3 c-23 -2 -32 1 -35 15 -3 15
6 17 92 17 79 0 96 -3 96 -15z m6026 -40 c-18 -14 -5 -32 14 -20 6 3 14 4 20
0 13 -8 1 -35 -16 -35 -12 0 -12 -3 -2 -14 7 -8 15 -10 16 -5 6 15 32 10 32
-6 0 -8 -9 -15 -21 -15 -17 0 -19 -4 -13 -22 6 -20 5 -21 -10 -9 -10 9 -16 10
-16 2 0 -21 -18 -11 -24 13 -6 24 -36 45 -36 25 0 -6 -7 -9 -15 -6 -8 4 -17 2
-21 -4 -3 -6 -12 -8 -20 -5 -16 6 -28 -10 -19 -25 5 -7 15 -5 31 6 13 8 24 12
24 8 -1 -14 -27 -43 -39 -43 -17 0 -13 -20 5 -27 10 -4 20 0 26 10 10 19 55
19 62 0 3 -7 14 -13 25 -13 11 0 22 -4 26 -9 7 -13 -16 -26 -24 -14 -14 23
-137 21 -133 -2 1 -5 17 -10 35 -11 41 -1 67 -12 67 -30 0 -31 75 -38 82 -8 2
9 8 11 18 4 11 -7 12 -12 3 -21 -6 -6 -9 -18 -6 -25 3 -8 -2 -17 -11 -20 -20
-8 -21 -24 -1 -24 17 0 21 -35 5 -45 -5 -3 -10 -13 -10 -22 0 -13 3 -13 15 -3
12 10 18 10 30 0 21 -17 19 -25 -7 -27 -13 0 -32 -3 -42 -5 -15 -2 -21 4 -26
29 -6 26 -4 32 14 37 20 6 20 7 -6 23 -16 10 -28 24 -28 33 0 23 -13 36 -42
43 -22 6 -27 3 -30 -15 -2 -13 -13 -27 -25 -33 -13 -5 -23 -15 -23 -22 0 -7
-7 -13 -15 -13 -8 0 -15 4 -15 10 0 5 -8 9 -17 8 -40 -3 -83 3 -83 11 0 15 26
20 66 11 26 -6 46 -5 63 3 38 18 38 37 1 37 -17 0 -38 7 -47 15 -20 21 -39 13
-36 -14 3 -25 -3 -26 -23 -7 -10 11 -11 15 -1 19 9 4 9 7 0 18 -10 10 -17 10
-37 -1 -14 -7 -23 -17 -20 -22 3 -4 -2 -8 -11 -8 -11 0 -15 5 -11 15 3 9 0 15
-8 15 -8 0 -16 8 -19 19 -3 14 0 17 14 14 18 -5 18 -4 3 27 -9 17 -13 34 -9
38 4 4 10 1 12 -5 3 -7 11 -13 19 -13 9 0 12 -5 9 -10 -4 -6 -11 -8 -16 -5 -5
4 -9 2 -9 -3 0 -15 21 -20 58 -15 18 3 32 11 32 19 0 8 7 14 15 14 8 0 15 7
15 15 0 11 7 14 25 9 24 -6 26 -4 19 21 -5 18 -2 30 7 36 8 4 14 14 14 21 0 7
8 12 16 12 9 -1 16 6 15 15 -1 10 7 16 20 15 14 0 20 4 17 13 -3 7 2 16 11 19
9 3 16 13 16 20 0 12 4 12 22 3 20 -11 20 -12 4 -24z m-5842 -20 c20 -18 26
-34 26 -65 0 -45 -23 -99 -43 -101 -73 -7 -78 -6 -102 19 -35 35 -35 108 0
146 32 35 82 35 119 1z m207 12 c48 -37 53 -115 10 -157 -24 -25 -35 -29 -67
-24 -57 7 -78 33 -78 95 0 44 4 55 28 75 30 26 81 31 107 11z m3478 -518 c6
-18 11 -36 11 -40 0 -5 -39 -10 -87 -11 l-88 -3 -5 -560 -5 -560 -5 560 -5
560 -25 0 c-26 0 -28 12 -10 61 9 23 14 24 109 24 l99 0 11 -31z m-3629 -119
c39 -6 40 -7 12 -8 -25 -2 -35 -8 -42 -28 -6 -14 -14 -23 -19 -19 -5 3 -12 -4
-16 -15 -4 -12 -18 -23 -35 -27 -16 -3 -31 -11 -34 -19 -3 -8 -12 -14 -21 -14
-8 0 -15 -8 -15 -17 0 -15 -2 -15 -9 -4 -7 11 -12 4 -21 -27 -6 -23 -15 -42
-20 -42 -6 0 -10 -7 -10 -15 0 -8 -7 -15 -15 -15 -14 0 -37 -31 -34 -47 4 -26
-4 -44 -25 -55 -14 -7 -25 -16 -25 -20 -1 -5 -1 -13 -1 -19 0 -5 -4 -8 -9 -5
-13 9 -52 -39 -46 -56 4 -10 -4 -23 -19 -36 -26 -20 -34 -42 -16 -42 6 0 13 7
17 15 6 18 63 50 63 36 0 -5 -12 -19 -27 -30 -16 -11 -35 -28 -45 -37 -9 -8
-24 -17 -33 -18 -9 -1 -28 -14 -43 -28 -15 -14 -41 -32 -59 -41 -18 -10 -43
-27 -56 -40 -22 -20 -24 -27 -17 -72 7 -46 6 -51 -21 -76 -33 -31 -36 -39 -13
-39 13 0 15 -7 10 -32 -3 -18 -11 -35 -17 -39 -7 -4 -9 -11 -6 -16 7 -12 -14
-63 -25 -63 -5 0 -8 -6 -8 -12 0 -7 -13 -40 -29 -73 -25 -52 -27 -61 -13 -71
11 -8 13 -21 9 -48 -3 -20 -2 -36 4 -36 5 0 9 4 9 8 0 5 16 16 35 25 20 9 38
24 41 32 8 19 24 20 24 1 0 -9 18 -15 59 -18 33 -2 66 -10 74 -17 14 -11 14
-16 0 -48 -8 -20 -15 -67 -16 -104 -2 -80 -14 -81 -23 0 -6 57 -7 58 -30 47
-13 -6 -24 -14 -24 -18 0 -5 -9 -8 -20 -8 -12 0 -31 -11 -44 -25 -13 -14 -27
-25 -32 -25 -4 0 -17 -8 -28 -18 -23 -20 -153 -65 -165 -57 -5 2 -9 338 -10
745 l-2 741 418 -3 c230 -1 438 -5 463 -8z m1110 -242 c0 -292 -9 -492 -21
-460 -7 19 -12 20 -39 11 -16 -6 -30 -15 -30 -20 0 -13 -63 -39 -94 -39 -20 0
-25 6 -30 38 -3 20 -3 91 0 157 10 174 10 211 1 303 -10 105 -35 165 -79 188
-52 26 -61 36 -46 45 8 5 -11 9 -47 11 l-60 2 75 6 c41 4 141 7 223 8 l147 2
0 -252z m722 223 c24 -26 61 -36 85 -22 16 9 14 10 -12 11 -16 0 -39 7 -49 15
-18 14 -16 15 32 15 43 0 52 -3 52 -17 1 -17 1 -17 14 0 29 38 59 9 49 -47 -8
-40 -25 -48 -64 -29 -59 30 -123 24 -71 -6 13 -8 10 -9 -16 -5 -26 5 -31 4
-26 -9 3 -8 1 -18 -5 -22 -7 -4 -5 -14 5 -31 19 -28 8 -50 -29 -57 -19 -4 -18
-4 4 -6 15 0 32 6 39 13 6 8 28 20 48 27 20 6 46 18 57 25 11 8 23 14 27 14 8
0 5 -46 -7 -96 -5 -23 -2 -35 10 -48 19 -18 14 -46 -9 -46 -7 0 -27 7 -42 15
-16 8 -30 11 -32 5 -5 -15 -49 10 -63 36 -7 13 -16 24 -21 24 -11 0 -10 -7 4
-30 10 -16 10 -24 0 -40 -18 -29 -16 -100 3 -100 8 0 15 -4 15 -10 0 -5 4 -10
8 -10 14 0 52 36 52 49 0 14 -6 14 -30 -1 -17 -11 -22 -10 -30 2 -12 19 -12
41 -1 59 7 11 14 11 41 -3 41 -20 73 -20 111 0 17 8 37 13 45 10 10 -4 14 4
14 30 0 33 -1 34 -16 19 -15 -14 -17 -14 -30 2 -16 21 -19 73 -4 73 6 0 10
-13 10 -30 0 -16 5 -30 10 -30 6 0 10 9 10 21 0 11 5 17 10 14 16 -10 12 41
-7 80 -14 29 -15 40 -5 55 7 11 12 38 12 60 l0 40 126 0 c110 0 125 -2 114
-15 -6 -8 -9 -19 -5 -25 4 -7 15 -2 29 14 23 27 50 34 61 15 11 -18 -14 -64
-45 -83 -17 -9 -35 -26 -40 -37 -15 -26 -30 -24 -30 5 0 13 -7 26 -15 30 -9 3
-15 0 -15 -10 0 -9 -8 -28 -19 -42 -54 -78 -60 -101 -51 -212 5 -58 12 -120
16 -138 4 -21 2 -42 -6 -58 -11 -20 -21 -24 -62 -24 -37 0 -51 -4 -60 -20 -15
-23 -43 -28 -35 -5 4 8 2 17 -3 20 -6 4 -10 -13 -10 -39 0 -36 3 -44 15 -40
15 6 15 -31 0 -108 -4 -20 -4 -54 0 -75 6 -32 9 -35 15 -18 8 18 9 18 10 -5
l1 -25 12 25 c6 14 12 27 14 29 2 3 16 -8 31 -25 15 -17 52 -38 84 -49 l58
-19 30 22 c30 22 30 22 30 2 0 -25 -26 -36 -106 -45 -87 -10 -186 -34 -211
-51 -32 -21 -28 -11 12 29 19 19 35 42 35 51 0 20 -16 21 -24 1 -3 -8 -12 -15
-20 -15 -8 0 -22 -7 -30 -16 -9 -8 -36 -17 -61 -18 -24 -1 -53 -10 -63 -19
-10 -9 -24 -17 -30 -17 -6 0 -15 -6 -19 -13 -4 -7 -27 -19 -50 -27 -24 -7 -43
-16 -43 -20 0 -4 -34 -15 -77 -25 -77 -18 -128 -39 -138 -56 -8 -12 -52 -12
-59 0 -9 13 -65 19 -70 7 -2 -6 -5 -2 -5 10 -1 11 -4 24 -8 28 -9 9 -4 88 7
101 13 17 14 48 2 90 -7 22 -12 86 -12 143 0 86 2 102 16 102 22 0 55 -19 76
-44 18 -22 22 -19 12 9 -8 19 -55 45 -84 45 -16 0 -20 6 -20 33 1 27 2 30 13
16 11 -14 49 -39 60 -39 3 0 -13 17 -34 39 l-39 38 1 287 0 286 74 0 c49 0 75
-4 79 -12 3 -10 7 -9 15 3 8 13 34 15 172 13 148 -3 163 -5 181 -23z m1438 9
c0 -5 -5 -10 -11 -10 -5 0 -7 -5 -4 -10 4 -6 0 -22 -9 -35 -9 -13 -16 -31 -16
-40 0 -8 -4 -15 -10 -15 -5 0 -10 -7 -10 -15 0 -8 -4 -15 -9 -15 -5 0 -14 -14
-21 -31 -10 -24 -11 -55 -3 -143 10 -106 10 -114 -14 -190 -20 -61 -23 -83
-15 -100 20 -40 18 -61 -20 -170 -17 -50 -18 -65 -9 -97 8 -26 8 -45 1 -64 -5
-14 -10 -114 -10 -221 0 -119 -4 -194 -10 -194 -34 0 -56 -162 -27 -205 33
-49 46 -195 19 -207 -5 -2 -27 -38 -49 -80 -39 -72 -41 -80 -34 -132 4 -30 13
-62 20 -70 12 -14 -1 -16 -135 -16 l-149 0 2 148 c1 150 9 372 19 542 7 125 6
104 5 280 -1 144 17 391 39 520 5 30 14 122 20 204 6 83 15 172 21 199 5 28 9
78 9 113 l0 64 205 0 c130 0 205 -4 205 -10z m2024 -25 c122 -32 280 -110 344
-168 l22 -20 0 -681 0 -681 -53 -39 c-68 -51 -192 -109 -292 -137 -67 -19
-105 -23 -230 -23 -177 -1 -253 17 -399 92 -321 165 -504 486 -483 845 24 408
315 734 732 823 77 17 279 10 359 -11z m-4634 -9 c0 -6 8 -18 18 -27 15 -12
17 -32 16 -142 0 -70 -4 -130 -7 -134 -4 -3 -33 -8 -65 -11 -31 -2 -62 -8 -68
-13 -6 -5 -18 -7 -27 -3 -20 7 -32 -13 -17 -31 6 -7 7 -16 2 -19 -14 -8 -20
-74 -13 -136 6 -51 8 -55 30 -52 13 2 33 -1 45 -6 12 -6 38 -13 59 -17 39 -6
44 -16 28 -58 -11 -29 -60 -77 -78 -77 -6 0 -15 9 -18 20 -3 11 -10 20 -15 20
-5 0 -10 8 -12 18 -3 14 -9 12 -33 -14 -17 -17 -37 -41 -45 -53 -10 -15 -27
-23 -51 -25 -43 -4 -59 -12 -59 -32 0 -9 -11 -14 -30 -14 -16 0 -30 -4 -30
-10 0 -5 5 -10 10 -10 6 0 10 -5 10 -11 0 -7 -10 -9 -26 -5 -24 6 -25 6 -10
-9 9 -9 19 -28 22 -43 4 -15 13 -34 20 -43 7 -8 15 -25 17 -37 2 -11 11 -30
21 -41 22 -25 15 -48 -19 -61 -14 -5 -28 -17 -31 -25 -7 -19 -60 -20 -101 -2
-49 21 -247 183 -279 229 -61 86 -98 193 -95 268 3 53 30 115 71 162 16 18 30
38 30 45 0 6 16 21 35 33 36 22 54 23 143 4 20 -4 38 -2 47 6 17 14 38 3 31
-16 -3 -8 8 -26 25 -41 16 -15 27 -33 25 -40 -3 -7 -2 -12 2 -11 4 1 15 -2 25
-7 20 -8 71 10 100 36 55 49 107 105 107 116 0 19 -56 62 -126 97 -42 21 -75
44 -81 58 -8 20 -5 28 29 60 22 21 43 36 48 33 4 -3 10 4 13 14 9 36 49 51
140 54 50 1 88 7 91 13 5 14 76 5 76 -10z m3640 -14 c0 -4 -6 -16 -14 -27 -7
-11 -44 -78 -81 -150 -37 -71 -82 -155 -100 -185 -18 -30 -49 -86 -70 -125
-20 -38 -88 -165 -151 -281 l-114 -211 0 -361 0 -362 -95 0 -95 0 0 330 0 330
-102 -2 -103 -3 -1 -65 c-1 -36 -3 -253 -5 -482 l-3 -418 -124 0 -124 0 27 32
c23 28 27 39 23 80 -4 32 1 68 14 106 14 43 17 71 12 115 -5 52 -4 61 16 82
21 23 22 30 16 110 -5 60 -4 91 4 100 7 8 13 60 15 122 3 130 3 126 14 118 17
-10 31 32 31 94 0 36 5 61 11 63 10 3 24 153 28 291 1 9 5 17 11 17 5 0 11
-35 13 -77 2 -45 5 -4 7 97 4 174 5 174 10 -95 l5 -270 103 -3 102 -2 0 242
c0 154 4 238 10 228 5 -8 11 -12 13 -10 3 3 31 57 62 120 32 63 62 117 67 118
4 2 8 10 8 17 0 7 17 44 38 82 21 37 58 107 82 155 l45 88 198 0 c108 0 197
-3 197 -8z m-1844 -54 l52 -12 6 -49 c3 -27 12 -60 21 -73 18 -27 20 -26 -61
-44 -53 -12 -60 -18 -84 -90 -6 -19 -18 -47 -26 -61 -11 -22 -11 -29 1 -45 20
-27 19 -31 -12 -39 -23 -5 -25 -8 -11 -16 9 -5 14 -17 11 -27 -3 -13 4 -21 23
-27 l28 -10 -31 -35 -32 -35 -38 20 c-20 11 -43 31 -49 45 -38 77 -54 137 -54
198 0 74 25 144 50 140 18 -3 40 9 40 23 0 5 -9 9 -20 9 -20 0 -20 1 2 35 13
19 27 35 32 35 5 0 24 16 42 35 36 39 38 40 110 23z m-1349 -937 c1 -83 -1
-152 -6 -155 -4 -3 -19 6 -31 19 -13 14 -32 25 -42 25 -25 0 -73 25 -131 69
-41 31 -47 40 -43 66 10 69 22 90 36 65 5 -9 25 -17 45 -18 20 -2 45 -12 57
-24 20 -20 22 -20 35 -3 7 11 13 27 13 37 0 10 4 18 10 18 5 0 7 -13 4 -29 -4
-20 -2 -30 10 -34 12 -5 16 0 14 21 -1 15 -1 47 0 72 2 34 5 41 14 32 7 -7 13
-64 15 -161z m-988 -93 c30 -7 51 -17 51 -25 0 -7 4 -13 9 -13 5 0 12 -8 15
-17 4 -12 18 -19 42 -21 52 -3 72 -18 80 -57 3 -19 10 -38 15 -41 5 -3 18 -23
29 -45 12 -22 34 -52 50 -68 l30 -28 1 -138 c0 -77 -4 -142 -10 -148 -5 -5 -7
-15 -5 -22 8 -20 -35 -46 -58 -34 -12 6 -18 6 -18 -1 0 -22 -30 -7 -111 55
-46 36 -113 86 -149 112 -107 76 -108 78 -103 131 2 26 9 68 14 94 7 30 7 53
1 65 -15 27 -22 117 -12 152 17 62 39 70 129 49z m1371 -27 c0 -5 9 -13 20
-16 11 -3 20 -15 20 -26 0 -10 5 -19 10 -19 6 0 10 5 10 11 0 5 4 8 9 4 6 -3
-1 -27 -15 -54 -13 -27 -24 -53 -24 -59 0 -17 -28 -22 -121 -22 l-90 0 3 87 3
87 65 -1 c35 -1 71 3 80 7 20 12 30 12 30 1z"/>
<path d="M6613 9773 c-20 -4 -23 -11 -23 -51 l0 -47 85 0 85 0 0 46 c0 40 -3
48 -22 53 -25 6 -90 6 -125 -1z"/>
<path d="M1933 7881 c-28 -13 -49 -33 -67 -63 l-26 -45 0 -324 c0 -367 -1
-362 81 -416 75 -49 180 -31 233 40 20 28 21 38 21 370 0 315 -1 344 -18 369
-52 77 -146 106 -224 69z"/>
<path d="M2897 6093 c-4 -3 -7 -71 -7 -150 l0 -143 125 0 125 0 0 30 0 29 -82
3 c-81 3 -83 4 -83 28 0 24 3 25 73 28 l72 3 0 29 0 29 -72 3 c-70 3 -73 4
-73 28 0 24 2 25 83 28 l82 3 0 29 0 30 -118 0 c-65 0 -122 -3 -125 -7z"/>
<path d="M3200 5582 c-6 -2 -10 -62 -10 -153 l0 -149 40 0 40 0 0 65 c0 36 4
65 8 65 4 0 37 -29 72 -65 59 -60 68 -65 107 -65 24 0 43 3 43 7 0 4 -24 32
-52 61 -38 39 -49 56 -39 60 25 9 61 54 61 76 0 30 -25 63 -63 83 -29 15 -175
25 -207 15z"/>
<path d="M3572 5582 c-22 -3 -23 -4 -20 -150 l3 -147 40 0 40 0 0 150 c0 165
3 158 -63 147z"/>
<path d="M5920 4180 c-82 -14 -124 -29 -201 -74 -130 -76 -215 -193 -255 -346
-28 -110 -7 -246 56 -370 32 -63 153 -179 227 -218 265 -139 616 -12 735 267
27 66 32 90 36 182 4 91 1 117 -19 180 -46 148 -128 248 -259 317 -103 55
-222 77 -320 62z"/>
<path d="M1144 3905 c-10 -8 -25 -15 -33 -15 -8 0 -36 -23 -62 -51 -39 -39
-49 -57 -49 -83 0 -50 26 -75 73 -69 34 5 37 7 24 22 -27 31 -28 64 -2 94 13
15 28 27 33 27 5 0 15 7 22 15 15 19 34 20 27 2 -3 -8 -1 -20 3 -27 5 -8 8 9
8 43 -1 60 -9 68 -44 42z"/>
</g>
</svg>
