<?xml version="1.0" standalone="no"?>
<!DOCTYPE svg PUBLIC "-//W3C//DTD SVG 20010904//EN"
 "http://www.w3.org/TR/2001/REC-SVG-20010904/DTD/svg10.dtd">
<svg version="1.0" xmlns="http://www.w3.org/2000/svg"
 width="720.000000pt" height="1280.000000pt" viewBox="0 0 720.000000 1280.000000"
 preserveAspectRatio="xMidYMid meet">
<metadata>
Created by potrace 1.16, written by Peter Selinger 2001-2019
</metadata>
<g transform="translate(0.000000,1280.000000) scale(0.100000,-0.100000)"
fill="#000000" stroke="none">
<path d="M0 6400 l0 -6400 3600 0 3600 0 0 1024 0 1025 -44 3 -45 3 26 55 c14
30 33 67 44 81 18 25 19 48 19 304 l0 277 -62 79 c-35 43 -67 79 -73 79 -16 0
-66 -35 -119 -83 -71 -65 -108 -75 -192 -49 -41 13 -72 17 -79 12 -6 -5 -47
-10 -91 -11 -89 -2 -139 16 -183 66 -20 25 -23 37 -22 112 0 96 4 120 36 258
13 55 25 116 26 135 2 19 13 51 24 70 12 19 27 51 35 70 7 19 17 40 21 46 5 5
4 40 -2 77 -10 61 -9 68 11 89 11 12 18 28 16 35 -3 7 -2 13 2 13 8 0 34 182
34 230 -1 14 3 41 8 60 6 23 6 57 -2 95 -6 33 -11 73 -11 88 0 39 -15 20 -32
-39 -7 -27 -27 -87 -43 -134 -16 -47 -37 -119 -47 -160 -31 -137 -100 -326
-162 -438 -20 -37 -41 -77 -47 -89 -15 -31 -31 -29 -46 7 -7 17 -26 49 -42 71
l-29 40 -97 -98 c-142 -144 -293 -265 -310 -249 -3 3 0 6 7 6 8 0 11 8 8 20
-3 12 0 20 8 20 10 0 10 8 -2 42 -8 22 -11 48 -7 57 4 9 6 44 6 78 0 35 4 65
9 68 5 4 9 17 9 29 0 15 16 37 45 62 25 22 45 47 45 56 0 9 6 21 14 25 7 4 19
18 25 31 8 15 18 21 27 18 19 -7 168 31 172 44 2 6 10 10 18 10 8 0 14 5 14
10 0 6 5 10 10 10 6 0 24 16 41 35 17 19 40 37 52 41 25 8 47 28 47 43 0 6 7
11 15 11 8 0 15 7 15 15 0 8 4 15 10 15 5 0 18 31 30 69 16 55 20 96 20 218 0
173 14 263 42 271 10 2 21 15 24 28 6 22 26 31 58 25 10 -2 0 198 -14 280 -5
30 -18 107 -29 172 -11 66 -25 133 -30 150 -5 18 -14 52 -20 77 -34 143 -129
468 -141 485 -4 6 -13 36 -20 68 -7 31 -17 57 -22 57 -4 0 -8 9 -8 20 0 12
-15 62 -34 113 -19 51 -45 126 -59 167 -58 170 -136 393 -140 396 -4 5 -90
-23 -342 -112 -121 -42 -268 -93 -328 -113 -59 -21 -104 -41 -100 -46 5 -4 2
-5 -5 -1 -6 4 -51 -7 -98 -23 -48 -17 -89 -31 -91 -31 -2 0 -1 -4 2 -10 3 -5
0 -7 -8 -4 -13 5 -268 -74 -442 -136 -198 -72 -352 -125 -500 -175 -244 -82
-299 -106 -303 -133 -2 -12 4 -29 12 -38 22 -21 20 -76 -5 -145 -21 -58 -39
-76 -39 -41 -1 32 -28 -30 -39 -91 -17 -94 -30 -103 -31 -23 0 50 -5 75 -16
87 -15 17 -15 22 6 74 12 30 26 58 31 61 5 3 9 20 9 37 0 18 7 41 15 51 21 28
19 38 -8 31 -94 -29 -247 -99 -179 -82 12 3 22 1 22 -4 0 -5 -7 -9 -16 -9 -8
0 -13 -4 -10 -9 3 -5 -1 -12 -10 -15 -8 -3 -12 -2 -9 4 3 6 -3 10 -14 10 -12
0 -21 -7 -21 -15 0 -13 -2 -14 -14 -3 -8 7 -11 17 -8 22 3 5 -1 5 -9 0 -8 -5
-16 -9 -19 -10 -54 -10 -80 -18 -80 -25 0 -5 -8 -9 -18 -9 -10 0 -52 -12 -93
-26 -41 -15 -101 -35 -134 -45 -61 -18 -262 -85 -345 -115 -64 -23 -120 -35
-130 -29 -5 3 0 20 10 38 11 18 26 53 35 77 9 25 26 56 39 70 13 14 34 44 46
68 13 23 27 42 31 42 4 0 14 17 24 38 9 20 23 50 32 66 8 15 16 45 17 66 0 21
5 37 10 37 5 -1 14 20 18 48 5 27 14 55 20 62 6 8 9 15 7 17 -2 2 -38 -41 -79
-96 -111 -149 -207 -256 -317 -350 -54 -46 -111 -93 -126 -104 l-28 -20 -4
-139 c-5 -210 -38 -325 -141 -496 -29 -48 -69 -117 -89 -154 -19 -37 -44 -79
-54 -94 -10 -14 -29 -48 -43 -76 -13 -27 -42 -84 -64 -125 -133 -246 -130
-237 -112 -273 9 -18 32 -75 53 -127 20 -52 41 -104 45 -115 5 -11 16 -47 27
-80 15 -49 25 -64 58 -87 129 -87 312 -37 339 92 29 145 36 189 30 212 -7 36
10 36 33 2 21 -33 85 -63 119 -56 42 8 64 47 64 114 0 66 -9 90 -49 124 -29
26 -25 28 47 24 17 -1 32 3 32 9 0 6 9 11 20 11 11 0 20 5 20 11 0 5 4 8 9 4
5 -3 12 -1 16 5 13 21 45 9 84 -31 38 -40 54 -79 44 -107 -6 -14 -53 -13 -115
3 -26 7 -28 5 -28 -21 0 -16 4 -35 9 -43 7 -11 -2 -23 -32 -48 -23 -18 -47
-33 -53 -33 -6 0 -16 -10 -22 -22 -12 -26 -24 -152 -15 -161 3 -4 23 3 44 13
23 12 58 20 90 20 66 0 126 28 173 81 20 21 38 39 40 39 3 0 4 -12 4 -27 -2
-64 102 -215 156 -229 27 -7 86 12 86 27 0 5 6 9 13 9 9 0 12 -10 10 -27 -2
-16 1 -35 7 -43 9 -13 12 -12 25 4 8 11 15 26 15 34 0 8 11 25 25 38 14 12 43
60 65 105 22 45 44 87 49 93 5 6 15 31 22 55 15 51 41 67 94 57 36 -7 37 -8
30 -44 -3 -20 -10 -89 -15 -152 -4 -63 -15 -133 -24 -155 -8 -22 -15 -52 -16
-66 0 -14 -8 -34 -17 -45 -10 -10 -26 -44 -37 -74 -10 -30 -26 -66 -35 -80 -9
-14 -27 -54 -41 -89 -19 -47 -33 -69 -55 -81 -17 -9 -44 -41 -62 -71 -32 -55
-42 -68 -84 -106 -31 -29 -56 -56 -109 -120 -23 -29 -51 -55 -61 -58 -11 -4
-19 -16 -19 -29 0 -18 -10 -27 -47 -41 -47 -18 -138 -103 -186 -172 -26 -38
-60 -42 -151 -19 -59 16 -133 5 -143 -20 -3 -8 -11 -14 -19 -14 -19 0 -18 -30
2 -80 14 -36 19 -39 43 -34 14 4 44 15 65 25 22 11 46 19 53 19 7 0 21 4 31
10 9 5 43 16 75 25 48 13 57 19 52 34 -5 15 -1 17 21 13 22 -4 26 -2 21 11 -3
8 0 20 7 26 10 8 16 4 25 -15 10 -23 15 -25 49 -19 35 6 38 4 57 -32 10 -21
27 -49 37 -62 10 -13 18 -37 18 -53 0 -16 7 -36 15 -44 9 -9 15 -34 15 -59 0
-44 -15 -60 -43 -49 -8 3 -20 -2 -27 -11 -7 -8 -18 -15 -26 -15 -35 0 -144
-47 -285 -122 -33 -17 -64 -48 -49 -48 6 0 8 -4 5 -10 -4 -7 -380 -10 -1095
-10 l-1088 0 -13 88 c-8 50 -14 159 -13 257 1 265 50 500 159 770 26 64 45
118 42 121 -14 14 -143 -340 -172 -476 -52 -238 -61 -573 -20 -732 l7 -28
-171 0 -171 0 1 1113 c0 611 3 1119 7 1127 4 8 18 16 32 16 14 1 28 2 33 3 4
0 7 15 7 32 0 22 5 32 20 36 16 4 20 14 20 50 0 25 6 51 14 59 37 37 215 -8
190 -48 -3 -5 2 -11 10 -14 9 -3 16 -12 16 -19 0 -7 7 -18 15 -25 12 -10 15
-10 15 3 0 8 7 18 16 21 14 5 15 1 10 -29 -6 -33 -5 -35 19 -35 14 0 25 3 25
7 0 15 -25 73 -31 73 -4 0 -10 19 -14 42 -6 36 -4 44 15 60 20 16 25 16 58 2
20 -8 40 -21 45 -29 4 -8 18 -15 30 -15 18 0 27 -10 41 -44 33 -80 41 -91 67
-94 21 -3 25 1 27 30 2 18 7 37 12 42 6 6 10 22 10 36 0 31 17 51 36 43 8 -3
14 0 14 6 0 6 -4 11 -10 11 -5 0 -10 9 -10 21 0 16 4 19 19 14 13 -4 23 0 30
12 9 15 10 11 11 -21 0 -30 -3 -37 -15 -32 -12 4 -14 0 -8 -22 4 -15 7 -51 7
-80 l0 -54 53 6 c175 20 160 15 167 48 3 17 6 48 6 70 0 24 4 37 10 33 6 -3
10 -26 10 -51 0 -24 5 -44 10 -44 6 0 10 19 10 43 0 41 28 139 45 155 4 4 5
-11 1 -33 -15 -86 -18 -131 -7 -115 8 12 11 8 11 -18 0 -20 4 -31 10 -27 5 3
10 39 11 78 0 40 4 81 9 92 12 29 13 -137 0 -169 -8 -23 -7 -26 10 -26 13 0
20 7 20 19 0 10 6 31 14 47 l15 27 11 -45 12 -46 41 5 c23 3 49 7 57 11 8 3
40 6 70 7 42 2 306 59 317 69 3 3 -52 275 -75 371 -19 78 -104 374 -117 406
-4 12 6 20 42 34 26 9 98 39 158 65 61 26 131 55 156 64 26 9 120 54 210 99
253 128 435 243 551 349 32 28 62 55 68 58 10 6 22 27 80 137 14 27 27 50 30
53 3 3 24 42 45 87 22 46 43 83 48 83 4 0 7 7 7 15 0 8 5 15 10 15 6 0 10 10
10 22 0 23 34 102 55 128 10 12 18 32 30 80 5 21 47 89 57 93 8 3 6 6 -4 6
-22 1 -24 21 -3 21 8 0 15 6 15 14 0 8 5 16 10 18 6 2 12 19 13 38 2 19 8 44
14 56 21 37 44 322 46 559 2 246 -5 425 -29 735 -16 217 -31 379 -64 720 -6
58 -13 139 -16 180 -3 41 -10 97 -15 123 -5 26 -9 68 -9 92 l0 45 353 0 c304
-1 348 -3 321 -14 -17 -8 -45 -17 -62 -21 -36 -7 -49 -22 -34 -37 12 -12 91 9
177 45 46 20 72 21 328 25 237 3 277 1 277 -11 0 -16 -97 -110 -181 -174 -73
-56 -229 -145 -244 -139 -13 5 -30 96 -41 217 -8 88 -15 105 -39 95 -36 -13
-2 -266 62 -474 20 -63 17 -67 -62 -77 -60 -7 -99 -30 -126 -74 -22 -36 -14
-39 33 -12 60 36 164 63 208 56 32 -5 40 -4 40 9 0 17 0 16 210 65 152 36 210
57 210 79 0 8 6 12 14 9 18 -7 46 24 46 51 0 28 -51 66 -117 87 -41 13 -78 16
-163 13 -60 -2 -110 0 -110 3 0 4 24 22 53 40 106 67 193 137 232 187 l40 51
1368 1 1367 0 0 1775 0 1775 -3600 0 -3600 0 0 -6400z m6795 3679 c153 -68
200 -265 96 -404 -25 -34 -27 -41 -14 -50 23 -17 -3 -53 -49 -67 -30 -9 -45
-8 -80 5 -34 13 -55 15 -98 8 -30 -5 -63 -13 -73 -16 -53 -21 -137 34 -107 70
11 13 9 19 -8 38 -85 90 -82 268 6 360 77 82 216 105 327 56z m-652 5 c52 -18
116 -76 143 -132 28 -55 26 -174 -4 -229 -50 -95 -136 -143 -256 -143 -209 0
-331 220 -222 402 25 42 43 59 94 85 54 28 75 33 131 33 37 0 88 -7 114 -16z
m-5834 -111 c15 -56 71 -300 71 -307 0 -3 -15 -6 -33 -6 -28 0 -34 4 -42 32
-9 29 -14 32 -50 31 -36 0 -40 -3 -47 -31 -8 -28 -13 -32 -42 -32 l-34 0 14
58 c7 31 26 110 41 175 l27 117 43 0 c40 0 43 -2 52 -37z m401 -55 l1 -93 30
38 c23 27 39 37 60 37 16 0 29 -3 29 -6 0 -4 -16 -28 -35 -53 -30 -41 -33 -50
-21 -67 7 -10 25 -40 40 -66 l27 -48 -35 0 c-30 0 -38 5 -57 40 -13 22 -26 40
-31 40 -4 0 -8 -18 -8 -40 0 -38 -2 -40 -30 -40 l-30 0 0 175 0 175 30 0 30 0
0 -92z m1740 -83 l0 -176 -42 1 c-24 1 -55 -1 -69 -5 -19 -5 -33 -1 -55 18
-28 24 -29 29 -29 106 1 69 4 85 22 102 22 22 54 28 91 15 21 -7 22 -5 22 53
l0 61 30 0 30 0 0 -175z m452 83 l3 -92 25 37 c20 30 31 37 58 37 30 0 42 -12
24 -24 -5 -3 -21 -23 -36 -44 l-27 -40 40 -66 41 -66 -35 0 c-30 0 -38 5 -57
40 -13 22 -26 40 -30 40 -5 0 -8 -18 -8 -40 0 -39 -1 -40 -35 -40 l-35 0 0
168 c0 93 3 172 7 175 3 4 19 7 34 7 l28 0 3 -92z m728 28 l0 -65 35 15 c28
11 40 12 58 3 34 -18 37 -27 37 -136 l0 -103 -30 0 -30 0 0 90 c0 75 -3 92
-16 97 -37 14 -49 -10 -52 -101 l-3 -86 -29 0 -30 0 0 175 0 175 30 0 30 0 0
-64z m530 3 c0 -58 1 -60 23 -53 76 26 107 -8 107 -118 0 -71 -2 -81 -26 -105
-21 -21 -31 -24 -57 -18 -18 4 -49 6 -69 6 l-38 -2 0 176 0 175 30 0 30 0 0
-61z m-1482 -11 c3 -35 6 -38 33 -38 24 0 29 -4 29 -25 0 -21 -5 -25 -30 -25
l-31 0 3 -67 c3 -66 4 -68 31 -71 21 -3 27 -8 23 -19 -3 -8 -6 -19 -6 -24 0
-16 -73 -10 -92 8 -14 13 -18 31 -18 90 0 66 -2 75 -20 80 -13 3 -20 14 -20
29 0 17 6 24 20 24 17 0 20 7 20 41 0 38 1 40 28 37 23 -3 27 -8 30 -40z
m-2094 -58 c24 -24 34 -122 17 -173 -15 -44 -59 -66 -97 -48 -14 6 -27 11 -29
11 -3 0 -5 -29 -5 -65 l0 -65 -30 0 -30 0 0 181 0 182 39 -6 c21 -2 45 -1 52
4 19 12 60 2 83 -21z m402 20 c8 0 23 -9 34 -20 17 -17 20 -33 20 -121 l0
-101 -32 3 c-18 1 -48 -1 -66 -5 -50 -12 -82 13 -82 64 0 44 20 64 83 81 28 7
37 15 35 27 -5 25 -45 27 -58 3 -13 -25 -48 -28 -57 -5 -13 34 56 90 95 78 8
-2 20 -4 28 -4z m293 -1 c38 -14 51 -35 51 -88 l0 -41 -61 0 c-60 0 -60 0 -57
-27 3 -32 44 -46 54 -19 4 10 18 16 35 16 35 0 39 -25 10 -61 -27 -34 -99 -34
-135 0 -23 22 -26 32 -26 96 0 79 20 120 63 128 12 2 25 5 28 6 3 0 20 -4 38
-10z m199 0 c29 -10 59 -59 45 -73 -15 -15 -51 -5 -56 15 -4 13 -12 20 -24 17
-31 -6 -27 -34 7 -48 78 -32 101 -82 61 -131 -15 -19 -29 -24 -66 -24 -37 0
-51 5 -66 24 -29 36 -25 61 11 61 24 0 30 -4 30 -21 0 -15 5 -20 22 -17 42 6
33 36 -16 58 -54 23 -75 57 -60 98 9 25 45 52 70 52 6 0 25 -5 42 -11z m219
-13 c6 -6 13 -22 15 -36 2 -21 -2 -26 -23 -28 -20 -2 -28 2 -32 18 -4 14 -12
21 -24 18 -29 -5 -21 -32 15 -50 73 -36 92 -81 53 -129 -15 -19 -29 -24 -66
-24 -37 0 -51 5 -66 24 -29 36 -25 61 10 61 21 0 30 -6 34 -21 7 -25 40 -22
45 4 3 12 -9 23 -42 37 -51 21 -70 54 -60 97 12 45 104 65 141 29z m182 13
c17 -6 36 -19 41 -29 6 -10 10 -62 10 -116 l0 -97 -40 6 c-22 3 -43 1 -46 -4
-8 -14 -47 -11 -72 7 -16 11 -22 25 -22 54 0 44 20 64 83 81 28 7 37 15 35 27
-5 25 -45 27 -58 3 -13 -25 -48 -28 -57 -5 -8 23 16 62 46 73 35 13 43 13 80
0z m319 -22 c16 -15 22 -32 22 -64 l0 -43 -61 0 c-60 0 -60 0 -57 -27 3 -32
44 -46 54 -19 8 20 64 22 64 2 0 -69 -102 -98 -158 -45 -19 17 -22 31 -22 98
0 68 3 80 23 98 12 11 29 23 37 26 25 9 73 -4 98 -26z m1000 -3 c19 -21 22
-36 22 -99 0 -70 -1 -74 -32 -100 -27 -23 -39 -26 -71 -22 -59 8 -80 35 -85
107 -3 36 1 72 9 91 24 60 111 73 157 23z m240 9 c8 -11 12 -53 12 -120 l0
-103 -30 0 -30 0 0 90 c0 75 -3 92 -17 97 -32 12 -53 -32 -53 -113 l0 -74 -30
0 -30 0 0 120 0 120 29 0 c16 0 31 -5 33 -12 3 -8 11 -7 29 5 27 20 67 15 87
-10z m530 -9 c15 -17 22 -38 22 -65 l0 -39 -61 0 c-60 0 -60 0 -57 -27 3 -32
44 -46 54 -19 4 10 18 16 35 16 35 0 40 -29 9 -60 -27 -27 -63 -34 -105 -20
-46 15 -55 34 -55 123 0 64 3 76 23 94 12 11 29 23 37 26 28 11 75 -3 98 -29z
m542 10 c11 -11 15 -39 15 -117 l0 -102 -32 -3 -33 -3 0 91 c0 72 -3 92 -15
96 -33 13 -45 -15 -45 -102 l0 -84 -35 0 -35 0 0 120 0 120 35 0 c19 0 35 -4
35 -9 0 -6 12 -3 28 4 29 16 58 12 82 -11z m215 -5 c17 -16 21 -36 23 -120 l4
-100 -44 1 c-23 1 -54 -1 -68 -5 -34 -9 -80 27 -80 61 0 42 17 62 70 79 37 12
50 22 50 36 0 26 -36 25 -52 -1 -12 -19 -48 -27 -61 -14 -3 3 -1 19 5 36 20
56 108 72 153 27z m394 20 c36 -13 61 -53 61 -99 l0 -30 -59 0 c-63 0 -76 -8
-66 -40 8 -24 55 -28 55 -5 0 11 11 15 36 15 32 0 35 -2 29 -22 -4 -13 -18
-34 -33 -47 -21 -19 -33 -22 -65 -18 -60 8 -80 35 -85 109 -5 79 9 115 50 133
41 17 38 17 77 4z m204 -3 c15 -8 27 -11 27 -5 0 5 14 9 31 9 l30 0 -3 -154
c-3 -134 -5 -157 -22 -175 -42 -46 -144 -35 -166 19 -7 16 -9 34 -5 39 10 18
44 12 57 -9 27 -42 78 -15 78 41 0 18 -3 20 -12 11 -7 -7 -29 -12 -49 -12 -56
0 -79 34 -79 116 0 72 13 107 44 122 29 14 37 14 69 -2z m285 -22 c19 -22 22
-36 22 -120 l0 -95 -42 1 c-24 1 -54 -1 -68 -5 -36 -9 -80 27 -80 65 0 27 32
70 52 70 5 0 24 7 43 14 25 11 33 19 29 30 -9 22 -41 20 -56 -4 -18 -29 -58
-27 -58 3 0 73 105 101 158 41z m-3048 -94 l0 -120 -35 0 -35 0 0 113 c0 63 3
117 7 120 3 4 19 7 35 7 l28 0 0 -120z m2280 63 c19 -90 25 -92 45 -14 18 68
20 71 48 71 28 0 29 -2 23 -33 -3 -19 -25 -99 -49 -178 l-42 -144 -34 -3 c-28
-3 -33 -1 -27 14 28 74 28 99 -3 207 -18 59 -34 113 -37 122 -5 12 2 15 28 15
34 0 35 -1 48 -57z m-1906 -604 c10 -10 -5 -39 -20 -39 -8 0 -14 -4 -14 -10 0
-5 5 -10 10 -10 6 0 10 -4 10 -10 0 -5 -12 -10 -26 -10 -19 0 -24 -4 -20 -17
3 -10 8 -30 12 -45 4 -18 13 -28 25 -28 11 0 19 -7 20 -17 2 -42 -3 -89 -12
-98 -5 -5 -9 -24 -9 -42 0 -50 -30 -44 -53 11 -10 23 -28 49 -42 56 -13 7 -21
18 -19 25 3 6 -18 32 -46 56 -43 37 -50 49 -48 74 3 28 0 30 -32 33 -22 2 -43
13 -56 28 l-22 24 -168 -10 c-93 -6 -212 -15 -264 -20 -52 -6 -180 -17 -285
-25 -104 -8 -271 -21 -370 -30 -99 -8 -288 -24 -420 -35 -132 -11 -292 -25
-355 -30 -63 -5 -169 -14 -235 -20 -66 -6 -142 -12 -170 -15 -176 -17 -272
-25 -287 -25 -16 0 -18 12 -18 120 l0 121 1454 -3 c800 -2 1457 -6 1460 -9z
m1494 -331 c67 -17 66 -50 -1 -85 -73 -37 -381 -113 -397 -97 -14 15 -50 148
-42 156 4 4 50 16 102 27 102 22 249 21 338 -1z m-2520 -210 c16 -24 40 -52
52 -63 18 -16 50 -65 50 -77 0 -2 -15 -3 -32 -3 -27 0 -32 -4 -30 -19 2 -11
-1 -15 -7 -11 -6 3 -11 1 -11 -5 0 -17 -59 -48 -105 -55 -24 -3 -49 -13 -56
-21 -6 -8 -28 -22 -48 -31 -20 -9 -43 -22 -51 -29 -8 -7 -26 -14 -40 -16 -22
-3 -25 -8 -25 -47 0 -40 9 -55 43 -67 1 0 -12 -28 -29 -61 -31 -61 -31 -61
-20 -144 6 -46 16 -88 21 -93 6 -6 10 -20 10 -32 0 -13 5 -26 10 -29 6 -3 10
-18 10 -33 0 -15 9 -54 20 -86 11 -33 20 -81 20 -108 0 -46 1 -48 28 -48 34 0
98 -42 107 -71 4 -12 25 -40 47 -62 50 -51 53 -68 20 -100 -32 -31 -154 -87
-189 -87 -37 0 -62 -17 -124 -81 -42 -44 -65 -59 -90 -62 -19 -2 -50 -11 -69
-19 -19 -8 -40 -13 -47 -11 -13 5 -73 -34 -86 -54 -5 -9 -34 -13 -81 -13 -69
0 -75 2 -92 28 -10 15 -19 33 -20 40 -4 23 -10 24 -116 23 -92 -2 -107 1 -128
19 -53 44 -70 62 -64 71 3 5 1 9 -5 9 -30 0 -151 270 -151 336 0 25 4 43 9 39
11 -6 18 16 20 64 1 19 3 37 6 39 2 2 17 -6 34 -19 18 -13 46 -22 73 -24 37
-1 50 -8 85 -43 22 -23 59 -49 82 -58 53 -21 61 -36 54 -112 -8 -83 23 -241
52 -267 6 -5 14 -19 18 -29 7 -18 11 -16 45 16 20 20 48 44 61 54 13 11 33 29
44 42 11 12 31 22 44 22 13 0 23 5 23 11 0 8 12 9 38 4 20 -4 74 -8 120 -7 69
0 92 5 132 26 27 14 68 29 91 32 34 6 38 9 24 17 -21 11 -158 2 -205 -14 -39
-14 -69 -1 -95 43 -24 42 -14 131 24 212 26 57 29 72 33 209 2 81 0 147 -4
147 -5 0 -7 4 -4 9 3 5 0 11 -7 14 -19 7 -67 104 -67 136 0 19 -16 42 -59 84
-33 31 -66 57 -74 57 -8 0 -22 9 -32 20 -16 18 -16 20 -2 20 10 0 17 4 17 8 0
5 31 14 69 21 54 10 74 10 92 0 12 -6 50 -12 84 -12 53 -1 66 3 98 29 29 23
37 36 37 61 0 23 6 36 21 44 14 7 19 17 16 30 -6 23 17 103 40 138 27 43 46
56 103 73 90 27 105 24 138 -24z m-1767 -68 c20 -6 42 -17 49 -25 19 -23 -10
-59 -61 -74 -24 -7 -56 -16 -71 -21 -20 -6 -28 -4 -32 7 -13 33 -4 58 32 90
42 38 36 36 83 23z m953 -301 c6 -5 -6 -15 -27 -24 -36 -15 -49 -39 -25 -47 7
-3 -13 -9 -43 -16 -31 -6 -79 -25 -108 -41 -28 -17 -60 -31 -70 -31 -13 0 -18
-7 -16 -22 1 -13 0 -15 -2 -6 -2 9 -14 20 -25 24 -15 4 -17 8 -8 14 7 5 18 20
24 34 6 14 36 46 66 71 49 40 61 45 105 45 27 0 57 5 65 10 15 10 48 4 64 -11z
m-269 -399 c3 -5 16 -10 27 -10 23 0 81 -17 110 -31 10 -5 31 -9 48 -9 17 0
40 -6 53 -12 12 -7 24 -14 26 -15 11 -6 -39 -39 -83 -55 -111 -38 -215 -12
-257 66 l-21 39 24 19 c25 19 63 24 73 8z m470 -1007 c35 -39 110 -22 127 28
3 10 14 9 46 -4 23 -9 56 -17 72 -17 20 0 35 -8 49 -29 26 -36 26 -37 1 -44
-13 -3 -18 -11 -14 -20 10 -27 60 -39 149 -36 72 3 85 2 83 -11 -2 -8 -13 -19
-26 -25 -12 -5 -22 -13 -22 -17 0 -5 -9 -17 -20 -28 -11 -11 -18 -28 -16 -37
10 -47 20 -62 41 -67 31 -8 105 -93 105 -121 0 -12 -7 -28 -15 -35 -8 -7 -15
-18 -15 -26 0 -17 -92 -51 -166 -61 -33 -4 -99 -8 -149 -8 -80 1 -96 4 -141
29 -46 26 -75 59 -96 110 -7 15 -11 16 -23 6 -22 -18 -39 0 -59 63 -14 42 -28
61 -72 96 -44 35 -53 48 -48 65 9 31 16 35 45 29 16 -3 32 -17 44 -39 20 -38
27 -41 45 -19 24 29 39 17 46 -35 8 -64 24 -65 24 -1 0 27 7 61 14 77 14 25
13 30 -7 58 -11 17 -27 35 -34 39 -30 19 -64 113 -47 130 8 8 53 -21 79 -50z
m4073 -1180 c7 -7 25 -13 38 -13 36 0 53 -11 131 -88 l71 -69 -8 -44 c-5 -24
-6 -46 -4 -48 2 -2 4 0 4 6 0 5 9 20 20 33 18 20 20 21 20 5 0 -10 -9 -38 -21
-62 -11 -23 -18 -51 -16 -60 3 -11 5 -8 6 10 0 15 5 27 10 27 4 0 20 11 34 25
l25 26 12 -36 c6 -19 16 -35 21 -35 5 0 15 -11 21 -25 14 -31 28 -33 21 -2 -4
21 -4 22 11 3 9 -11 16 -28 16 -38 0 -10 5 -18 10 -18 6 0 10 -7 10 -16 0 -14
-3 -14 -15 -4 -21 17 -32 4 -17 -20 11 -18 9 -20 -14 -20 -25 0 -26 -1 -12
-17 8 -10 21 -33 29 -50 8 -18 17 -33 21 -33 5 0 8 -7 8 -15 0 -8 10 -20 22
-26 14 -8 18 -14 10 -17 -6 -2 -12 -14 -12 -27 0 -13 -7 -25 -15 -27 -12 -2
-11 -12 10 -52 14 -27 34 -55 45 -63 22 -15 27 -43 9 -43 -7 0 -18 8 -25 18
-13 16 -13 16 -14 -1 0 -10 7 -20 16 -24 11 -4 14 -13 10 -29 -5 -18 4 -38 34
-79 22 -30 40 -59 40 -65 0 -14 -23 -13 -38 2 -9 9 -12 7 -12 -10 0 -12 4 -22
9 -22 5 0 11 -16 13 -35 4 -32 2 -35 -22 -35 -23 0 -29 -6 -39 -42 -13 -46
-59 -145 -76 -164 -5 -7 -26 -32 -45 -57 -19 -25 -47 -53 -62 -63 -15 -10 -24
-22 -22 -26 3 -4 -1 -8 -8 -8 -7 0 -24 -16 -37 -35 -13 -19 -26 -34 -30 -33
-10 3 -71 -32 -71 -41 0 -5 -13 -14 -30 -21 -16 -7 -30 -17 -30 -22 0 -5 -16
-8 -36 -6 -37 3 -37 3 -61 83 -48 159 -155 626 -156 680 -1 11 -4 23 -9 26 -4
3 -9 24 -10 47 -1 25 -5 39 -11 35 -6 -4 -8 0 -5 9 8 19 -20 147 -67 303 -87
293 -109 395 -85 395 6 0 15 11 21 24 16 35 81 50 182 43 45 -3 91 -2 102 2
23 9 55 2 73 -16z m-1382 -208 c-7 -28 3 -31 36 -14 29 16 91 13 125 -4 16 -9
42 -40 62 -75 18 -33 45 -66 60 -74 50 -25 103 -98 72 -98 -24 0 -140 -78
-178 -119 l-43 -46 -2 -90 c-3 -143 -7 -258 -10 -285 -2 -14 2 -25 10 -26 6
-1 18 -2 25 -3 19 -2 57 -39 57 -56 0 -9 -9 -15 -21 -15 -11 0 -33 -13 -47
-30 -15 -16 -33 -30 -42 -30 -13 0 -13 -1 0 -10 8 -6 36 -8 63 -4 44 6 63 -5
37 -21 -6 -4 -8 -11 -5 -16 4 -5 -5 -13 -19 -19 -46 -17 -28 -29 47 -32 l72
-3 3 -35 c1 -23 -7 -52 -25 -85 l-28 -50 -72 -3 c-63 -2 -77 0 -110 23 -22 13
-57 49 -78 77 -33 45 -67 87 -156 196 -15 19 -63 127 -88 200 -26 77 -28 167
-3 219 23 50 43 67 58 48 16 -22 21 -19 22 17 1 49 42 63 42 14 0 -41 31 -58
86 -49 63 11 72 39 24 75 -35 26 -33 25 -97 27 -31 1 -43 4 -35 10 11 6 10 10
-3 15 -12 4 -16 14 -13 36 3 17 -1 31 -8 34 -18 7 -23 -3 -17 -38 4 -23 0 -36
-16 -50 -21 -19 -21 -19 -21 2 0 11 -6 23 -12 26 -10 3 -9 8 4 19 11 9 17 27
16 53 0 44 20 87 39 80 18 -7 40 25 58 89 21 71 87 144 111 124 11 -9 14 -8
14 5 0 9 3 16 6 16 3 0 3 -11 0 -25z m-652 -28 c-5 -35 -3 -45 10 -50 11 -4
16 -19 16 -47 0 -42 12 -73 37 -98 15 -16 18 -148 3 -157 -5 -3 -10 3 -10 14
0 12 -5 20 -12 19 -6 -2 -19 11 -27 28 -22 44 -40 58 -88 72 -25 8 -43 19 -43
27 0 21 18 19 23 -2 3 -10 5 8 6 40 1 53 -1 58 -18 52 -26 -8 -37 27 -21 66 9
21 19 29 37 29 13 0 35 11 49 25 36 36 44 31 38 -18z m1080 -306 c11 -18 -5
-39 -44 -56 -38 -17 -38 -18 -23 -41 10 -16 11 -24 4 -24 -25 0 9 -39 36 -42
22 -2 29 -9 31 -31 l3 -27 65 6 c60 6 64 5 64 -14 0 -11 -11 -40 -25 -63 -14
-24 -25 -51 -25 -60 0 -28 -71 2 -98 42 -12 19 -35 45 -50 58 -87 75 -83 70
-76 106 4 23 2 35 -5 35 -26 0 -8 36 27 55 20 11 37 26 37 34 0 23 67 42 79
22z m-4169 -483 c32 -1 62 -10 82 -24 31 -21 32 -22 10 -32 -21 -9 -21 -10 8
-18 17 -4 42 -16 57 -27 14 -11 31 -16 37 -13 6 4 16 4 22 0 25 -15 -20 -24
-122 -24 -78 0 -110 4 -118 14 -6 7 -31 21 -56 31 -41 15 -44 19 -39 42 9 34
35 62 54 57 8 -2 38 -4 65 -6z m2084 -645 c-7 -21 -12 -40 -12 -43 1 -3 -5
-16 -12 -30 -7 -14 -19 -39 -25 -57 -14 -37 -62 -58 -109 -48 -62 13 -41 -63
24 -91 49 -20 77 -17 108 11 23 22 27 23 27 8 0 -10 -11 -42 -25 -72 -14 -30
-23 -56 -21 -59 7 -6 -20 -32 -33 -32 -6 0 -11 -4 -11 -10 0 -5 -24 -10 -53
-10 -44 0 -62 6 -93 29 -79 58 -111 121 -100 202 7 54 24 99 38 99 4 0 8 7 8
15 0 9 17 23 38 33 20 9 39 20 40 25 2 4 12 7 21 7 10 0 29 9 43 19 13 11 31
19 39 19 49 -3 81 4 97 22 22 26 27 10 11 -37z m1519 -448 c2 -16 7 -34 12
-40 4 -5 10 -22 14 -37 8 -35 24 -36 32 -1 5 18 2 30 -10 38 -29 22 -18 35 32
37 26 0 54 1 62 0 107 -10 150 -17 150 -25 0 -5 7 -7 15 -3 27 10 16 -2 -17
-20 -82 -43 -116 -58 -166 -75 -77 -27 -249 -152 -284 -207 -32 -52 -31 -31 2
39 16 35 30 71 30 79 0 9 5 21 11 27 8 8 12 58 13 142 l1 130 50 -27 c41 -22
51 -33 53 -57z m3172 -974 c-14 -28 -12 -61 4 -61 7 0 19 -7 26 -15 9 -10 9
-15 1 -15 -6 0 -10 -3 -9 -7 2 -5 -57 -67 -129 -140 -111 -111 -138 -133 -175
-141 -24 -6 -61 -15 -83 -21 -22 -5 -56 -11 -75 -14 -65 -9 -92 -20 -120 -48
-15 -16 -32 -29 -39 -29 -16 0 -51 -21 -79 -48 -13 -12 -28 -20 -33 -17 -5 4
-14 -4 -19 -17 -9 -20 -10 -19 -8 12 2 23 12 44 30 62 41 41 65 148 33 148 -8
0 -15 5 -15 10 0 6 10 10 23 10 12 0 46 3 75 6 l52 7 0 -43 0 -42 38 7 c20 4
61 10 89 14 50 7 83 20 52 21 -8 1 2 9 21 18 35 17 35 18 41 97 4 61 13 96 36
147 44 93 83 115 211 117 59 1 62 0 52 -18z m-420 -110 c0 -20 -34 -86 -57
-109 -7 -7 -13 -17 -13 -21 0 -8 -128 -31 -170 -31 -12 0 -22 11 -30 35 -6 19
-17 35 -23 35 -24 0 31 27 98 49 39 12 79 26 90 31 75 32 105 35 105 11z m453
-183 c3 -10 2 -20 -4 -23 -5 -4 -7 -10 -4 -15 4 -7 -4 -52 -29 -155 -2 -5 -9
-23 -15 -40 -7 -16 -17 -40 -22 -52 -8 -22 -13 -23 -121 -22 -152 1 -153 1
-124 64 25 54 157 196 240 258 52 39 60 38 79 -15z"/>
<path d="M6613 9773 c-20 -4 -23 -11 -23 -51 l0 -47 85 0 85 0 0 46 c0 40 -3
48 -22 53 -25 6 -90 6 -125 -1z"/>
<path d="M4782 9190 c-1 -112 -1 -115 -23 -125 -12 -6 -27 -27 -34 -48 -15
-45 -55 -105 -74 -112 -18 -7 -28 8 -42 63 -9 32 -16 42 -32 42 -18 0 -19 -5
-14 -56 7 -66 29 -104 60 -104 32 0 59 22 102 81 21 27 41 47 46 42 10 -10 28
-121 30 -183 l2 -45 7 45 c6 43 6 41 11 -28 3 -57 1 -69 -8 -57 -9 13 -10 9
-6 -23 4 -33 2 -42 -15 -51 -23 -12 -349 -38 -358 -28 -13 12 18 37 134 107
125 75 152 93 152 104 0 15 -34 4 -79 -26 -27 -18 -95 -62 -151 -97 -188 -119
-157 -140 160 -106 166 18 168 18 167 3 -1 -47 5 -88 13 -88 6 0 10 7 10 15 0
8 5 15 10 15 6 0 10 -11 10 -24 0 -14 -4 -28 -10 -31 -5 -3 -10 -11 -10 -16 0
-6 4 -8 9 -5 5 4 19 -13 30 -36 42 -84 81 -110 81 -54 0 13 9 34 20 47 20 24
20 24 35 5 8 -11 15 -39 15 -62 0 -59 17 -65 53 -20 28 35 30 36 48 20 11 -9
19 -25 19 -35 0 -12 6 -16 20 -12 28 7 78 -15 86 -39 7 -22 -10 -68 -40 -113
l-20 -30 38 29 c39 29 116 48 116 28 0 -6 11 -23 25 -38 14 -15 25 -31 25 -36
0 -21 -23 -49 -67 -83 -51 -39 -51 -46 -1 -15 41 25 64 25 77 2 16 -30 -4 -84
-53 -141 -21 -24 -21 -24 -1 -16 44 17 53 15 93 -17 22 -18 56 -42 74 -53 19
-12 47 -47 69 -85 20 -35 48 -73 63 -84 34 -26 87 -24 122 3 36 29 57 26 99
-10 65 -57 90 -7 34 70 -26 35 -31 49 -26 81 4 34 1 42 -29 71 -29 28 -33 38
-28 64 5 29 3 32 -35 47 -51 20 -55 50 -11 68 41 17 94 5 134 -30 33 -29 55
-38 57 -22 0 4 2 32 5 62 4 53 3 56 -27 74 -23 13 -43 44 -77 115 -43 87 -51
98 -90 116 -29 14 -53 35 -72 67 -24 38 -39 50 -86 67 -56 21 -143 29 -182 17
-13 -5 -30 2 -51 20 -29 24 -36 26 -89 18 -78 -11 -77 -11 -77 10 0 21 16 32
57 40 15 4 29 14 32 24 10 31 46 62 71 62 16 0 45 -19 80 -50 30 -27 58 -50
60 -50 3 0 17 7 30 16 24 16 26 15 52 -15 28 -32 60 -40 81 -19 22 22 13 56
-38 139 -48 79 -50 85 -50 155 0 103 -32 128 -133 105 -61 -14 -77 -4 -77 50
0 47 -18 59 -90 59 -91 0 -173 -49 -209 -124 -18 -40 -25 -46 -52 -46 -61 0
-129 -57 -129 -109 1 -14 7 -37 15 -51 28 -49 6 -210 -30 -224 -20 -7 -23 0
-26 74 -2 47 2 74 14 97 25 47 22 126 -9 208 -27 73 -35 103 -54 223 -7 39
-16 72 -20 72 -5 0 -11 19 -13 43 -4 37 -4 35 -5 -13z"/>
<path d="M3386 7363 c-5 -37 -9 -97 -7 -119 1 -7 10 -14 21 -17 16 -4 20 -14
20 -45 0 -48 16 -67 68 -82 53 -14 89 -12 118 6 20 14 30 15 49 6 14 -7 25
-16 25 -22 0 -5 5 -10 11 -10 5 0 8 4 4 9 -11 18 16 23 40 7 23 -15 24 -14 55
34 35 55 117 133 131 124 5 -2 0 -28 -10 -57 -11 -29 -22 -63 -26 -77 l-7 -25
22 28 c27 34 70 57 108 57 16 0 35 7 42 15 10 12 7 17 -16 26 -16 7 -57 25
-91 40 -34 16 -71 29 -82 29 -11 0 -67 15 -123 34 -57 19 -134 37 -171 41 -38
3 -87 13 -109 21 -59 20 -66 18 -72 -23z"/>
<path d="M4547 7301 c-10 -17 -33 -42 -52 -56 -30 -24 -32 -29 -24 -57 6 -24
5 -34 -7 -42 -17 -13 -11 -58 9 -75 19 -15 103 -16 121 -2 20 17 21 32 1 25
-30 -12 -14 13 30 46 52 39 58 53 15 37 -50 -19 -64 -2 -70 82 l-5 73 -18 -31z"/>
<path d="M6973 4983 c-24 -3 -34 -11 -43 -36 -33 -88 -44 -106 -69 -115 -47
-17 -111 -92 -111 -130 0 -11 -5 -22 -11 -24 -14 -5 0 -38 16 -38 7 0 15 -7
19 -15 10 -26 45 -18 52 13 24 95 93 182 160 198 16 4 34 10 39 14 6 4 21 10
35 13 14 4 31 15 38 27 10 17 10 24 -4 45 -9 14 -20 23 -24 20 -4 -2 -15 4
-25 15 -10 11 -23 19 -29 18 -6 0 -25 -3 -43 -5z"/>
<path d="M2473 3808 c-12 -13 -24 -40 -28 -60 -6 -31 -12 -38 -29 -38 -36 0
-37 -10 -9 -62 30 -56 113 -136 187 -181 42 -26 46 -32 30 -38 -29 -12 -37
-10 -31 5 4 10 1 13 -8 10 -19 -8 -29 -54 -14 -68 8 -8 13 -8 16 2 6 17 83 15
126 -3 20 -8 55 -15 77 -15 36 0 40 -3 40 -25 0 -31 -37 -131 -55 -149 -8 -7
-12 -16 -9 -18 2 -3 -3 -11 -11 -18 -12 -10 -19 -10 -27 -2 -7 7 -22 12 -35
12 -13 0 -49 9 -81 19 -73 24 -172 37 -172 23 0 -6 19 -16 43 -21 23 -6 65
-18 92 -27 28 -10 70 -19 95 -22 25 -2 46 -6 48 -7 2 -2 -18 -13 -45 -25 -40
-18 -59 -20 -113 -15 -120 11 -128 14 -135 46 -7 32 -48 50 -68 30 -9 -10 -8
-16 7 -26 23 -18 30 -61 10 -69 -13 -5 -21 -36 -9 -36 4 0 19 7 35 15 23 12
51 14 134 8 100 -6 107 -5 160 21 94 46 166 152 166 243 0 20 5 23 38 23 75 0
110 12 144 47 18 19 45 47 61 62 34 36 34 47 -3 66 -37 19 -59 19 -97 0 -37
-19 -48 -52 -26 -77 23 -26 8 -34 -24 -13 -34 22 -47 38 -74 89 -23 43 -22 73
5 145 10 25 16 64 14 90 -3 39 -6 46 -25 49 -22 3 -33 -3 -79 -45 -21 -19 -24
-31 -24 -94 0 -56 6 -84 25 -125 14 -29 30 -56 35 -59 9 -5 15 -75 7 -75 -2 0
-23 9 -46 21 -24 11 -50 18 -58 15 -20 -8 -88 34 -146 89 l-47 46 2 87 c2 73
-2 94 -20 130 -12 23 -24 42 -25 42 -2 0 -13 -10 -24 -22z"/>
<path d="M2095 3571 c-6 -5 -21 -11 -35 -13 -17 -2 -26 -10 -28 -26 -3 -21 -1
-22 17 -13 54 29 182 1 239 -52 28 -26 67 -99 76 -143 4 -17 22 -46 41 -64 27
-27 43 -33 77 -34 42 -1 43 0 41 29 -8 95 -129 240 -248 296 -61 30 -159 40
-180 20z"/>
<path d="M2200 3050 c0 -12 19 -76 42 -141 37 -103 46 -119 65 -119 31 0 36
14 13 35 -23 21 -25 29 -7 47 24 24 26 45 6 67 -11 12 -25 21 -32 21 -12 0
-63 67 -56 74 8 8 78 -22 107 -45 21 -17 34 -39 42 -74 16 -65 25 -75 66 -75
39 0 45 17 10 26 -18 4 -27 16 -35 51 -16 60 -74 122 -126 133 -22 5 -52 12
-67 16 -24 5 -28 3 -28 -16z"/>
</g>
</svg>
