<?xml version="1.0" standalone="no"?>
<!DOCTYPE svg PUBLIC "-//W3C//DTD SVG 20010904//EN"
 "http://www.w3.org/TR/2001/REC-SVG-20010904/DTD/svg10.dtd">
<svg version="1.0" xmlns="http://www.w3.org/2000/svg"
 width="720.000000pt" height="1280.000000pt" viewBox="0 0 720.000000 1280.000000"
 preserveAspectRatio="xMidYMid meet">
<metadata>
Created by potrace 1.16, written by Peter Selinger 2001-2019
</metadata>
<g transform="translate(0.000000,1280.000000) scale(0.100000,-0.100000)"
fill="#000000" stroke="none">
<path d="M0 6400 l0 -6400 3600 0 3600 0 0 1030 0 1030 -65 0 c-37 0 -65 4
-65 10 0 6 7 10 15 10 25 0 27 40 15 251 -16 281 -31 408 -50 419 -8 4 -44 14
-80 20 -36 7 -73 16 -83 22 -10 5 -55 11 -100 13 -95 4 -135 12 -158 32 -12
10 -65 17 -175 24 -88 5 -175 14 -195 19 -20 6 -53 10 -73 10 -20 0 -36 4 -36
9 0 16 -124 31 -245 29 -100 -2 -124 1 -146 15 -19 12 -54 19 -115 23 -162 9
-174 12 -172 40 2 15 7 23 15 20 16 -7 35 8 213 170 36 32 90 79 119 104 30
25 64 54 75 65 12 11 38 33 60 49 61 46 69 76 62 245 -4 80 -11 223 -17 317
-9 156 -8 183 11 300 50 306 49 309 -33 347 -29 14 -76 30 -105 37 l-52 12
-21 72 c-96 328 -175 521 -250 613 -44 54 -116 113 -152 126 -8 3 -6 11 6 24
23 26 67 136 67 168 0 40 17 29 29 -19 15 -63 14 -86 -9 -131 -25 -49 -25 -53
-1 -31 31 28 54 120 48 190 -7 77 -39 182 -72 230 -29 43 -8 37 37 -11 39 -42
58 -97 58 -171 0 -80 18 -73 27 9 10 106 -63 230 -180 302 -42 26 -72 37 -99
37 -43 0 -45 6 -21 68 14 39 15 54 5 114 -37 216 -155 349 -354 400 -132 33
-279 13 -384 -53 -27 -18 -62 -34 -78 -36 -84 -13 -215 -110 -258 -189 -35
-66 -42 -106 -28 -164 16 -65 28 -72 23 -12 -3 30 1 61 12 86 20 47 28 43 14
-9 -19 -67 -4 -117 46 -163 l45 -41 0 59 c0 32 4 61 8 64 5 3 21 -2 37 -10 28
-15 29 -15 11 5 -10 11 -26 21 -36 23 -17 3 -17 5 1 53 10 28 32 66 48 85 l30
35 -10 -39 c-15 -54 2 -130 41 -195 29 -46 85 -99 95 -89 3 2 0 20 -5 39 -6
18 -10 37 -10 42 0 18 68 -30 127 -89 60 -60 108 -90 67 -42 -10 13 0 6 24
-15 55 -49 74 -50 51 -4 -10 21 -10 21 5 3 42 -52 68 -174 47 -215 -5 -9 -6
-23 -2 -30 13 -21 47 44 71 136 17 67 105 107 143 65 54 -60 -24 -182 -137
-214 -23 -6 -45 -15 -51 -20 -13 -12 33 -10 56 2 16 9 19 7 19 -15 0 -32 34
-65 121 -116 70 -40 79 -52 79 -100 0 -34 -24 -60 -104 -113 -146 -97 -347
-101 -440 -9 -36 36 -68 94 -82 148 -5 19 -1 24 25 30 27 6 35 2 58 -26 16
-17 38 -48 50 -68 32 -50 29 -29 -4 30 -30 57 -33 53 65 110 28 17 52 32 52
34 0 1 -33 -10 -72 -25 -40 -16 -101 -33 -136 -40 -75 -13 -104 -3 -139 49
-26 38 -30 34 -9 -7 8 -15 32 -37 53 -49 31 -17 43 -32 52 -64 21 -71 79 -147
132 -175 125 -65 345 -15 472 107 74 71 63 125 -35 174 -65 32 -91 55 -36 32
115 -50 168 -80 206 -116 28 -26 54 -41 70 -42 15 0 36 -4 47 -9 18 -8 18 -9
-6 -9 -35 -1 -105 -55 -133 -104 -44 -76 -83 -190 -112 -327 -26 -125 -28
-153 -29 -380 -1 -257 -10 -321 -46 -341 -18 -9 -59 -106 -59 -139 0 -13 -15
-26 -47 -40 -62 -27 -91 -55 -114 -107 -18 -43 -18 -43 -71 -43 -65 0 -186 32
-248 66 -26 14 -67 45 -93 70 l-46 46 14 35 c8 20 15 47 15 62 l0 26 25 -30
c13 -17 -7 32 -46 110 -80 161 -106 257 -116 429 -4 68 -11 116 -19 125 -8 9
-21 25 -29 36 -9 11 -4 -3 10 -32 22 -45 25 -65 25 -150 l-1 -98 -20 24 c-37
45 -30 14 21 -87 66 -131 78 -169 69 -210 -9 -45 -15 -48 -41 -27 -13 10 -4 0
20 -22 43 -42 72 -95 72 -135 0 -13 -12 -45 -26 -72 l-26 -49 21 -54 c29 -75
27 -97 -14 -159 -25 -37 -35 -64 -35 -91 0 -70 -16 -74 -44 -11 -14 31 -35 62
-47 69 -32 17 -92 5 -133 -26 -45 -34 -58 -76 -40 -135 7 -24 5 -23 -24 7 -23
23 -32 43 -32 65 0 18 -5 40 -10 48 -8 13 -10 12 -10 -3 0 -17 -4 -17 -47 8
l-48 26 34 -29 33 -28 -33 -38 c-18 -21 -46 -52 -62 -69 -41 -44 -102 -136
-114 -173 -12 -34 5 -88 34 -109 15 -11 14 -18 -6 -81 -12 -38 -24 -102 -28
-142 -3 -40 -9 -68 -13 -61 -14 22 -21 -26 -20 -138 0 -59 -1 -126 -2 -148 -1
-22 1 -114 4 -205 3 -91 3 -252 -1 -358 l-6 -192 159 0 c88 0 157 -2 155 -4
-7 -6 -741 -15 -789 -9 -43 5 -46 8 -67 54 l-22 49 25 29 c13 16 36 67 50 113
75 244 98 311 123 350 38 58 191 325 191 332 0 3 29 66 64 139 34 73 66 149
70 168 3 18 8 45 11 58 8 41 -16 163 -40 212 -28 55 -198 216 -272 257 -12 7
-8 20 23 78 21 38 53 87 71 110 41 51 63 112 63 174 0 31 6 56 19 71 55 72 64
130 31 217 l-21 54 22 59 c27 75 22 111 -29 198 -43 72 -45 79 -67 261 -24
208 -26 222 -41 310 -27 161 -46 229 -76 275 -55 83 -155 148 -323 211 -55 20
-110 41 -123 45 l-22 9 20 52 c13 33 22 85 25 138 l4 85 -9 -81 c-6 -58 -23
-117 -59 -212 -28 -72 -51 -136 -51 -142 0 -28 -41 -50 -94 -50 -56 0 -88 10
-200 66 -38 19 -70 33 -72 32 -1 -2 14 -15 34 -28 20 -14 58 -42 85 -64 51
-43 53 -57 16 -105 -11 -13 -19 -28 -19 -34 0 -16 49 33 76 76 13 20 31 37 39
37 20 0 19 -5 -7 -52 -26 -45 -68 -70 -146 -87 -134 -28 -228 -6 -296 70 -90
100 -109 185 -57 255 33 46 77 87 69 64 -21 -53 -20 -56 1 -31 12 13 21 29 21
37 0 9 11 14 29 14 25 0 31 -6 41 -36 17 -51 25 -34 10 21 -11 38 -16 45 -38
45 -28 0 -119 49 -146 79 -26 28 -32 98 -13 144 13 30 21 37 44 37 34 -1 93
-53 112 -99 8 -17 25 -41 40 -52 l26 -21 7 62 c4 34 9 64 12 67 2 3 14 -1 26
-7 20 -11 21 -10 15 9 -8 25 4 111 16 111 4 0 9 -21 11 -47 l3 -48 38 55 c121
173 118 170 93 87 -8 -27 -10 -47 -4 -47 28 0 110 76 137 128 21 40 23 17 3
-42 -20 -61 -15 -67 28 -36 33 24 65 73 90 137 l17 46 26 -44 c31 -55 46 -129
25 -129 -17 0 -64 -47 -55 -56 3 -3 16 1 29 10 31 22 48 20 48 -6 0 -30 -15
-52 -28 -44 -6 3 -20 -7 -31 -23 -23 -32 -27 -46 -10 -35 8 4 9 0 4 -15 -3
-11 -2 -21 2 -21 15 0 33 23 34 44 1 18 2 17 8 -4 7 -23 8 -21 15 18 4 23 12
42 17 42 5 0 9 9 9 20 0 11 12 39 26 62 15 23 29 62 32 86 5 45 22 40 22 -5 0
-13 5 -23 10 -23 6 0 10 24 10 53 0 54 -25 122 -53 146 -24 19 -21 25 18 44
34 16 51 42 20 31 -15 -6 -124 42 -160 71 -19 15 -19 15 3 31 33 23 27 34 -17
34 -21 0 -67 9 -102 19 -35 11 -83 25 -107 31 l-43 11 22 31 c22 30 22 30 1
19 -11 -6 -56 -11 -100 -11 -95 0 -183 -15 -236 -41 -50 -24 -49 -24 -44 6 7
33 -2 32 -40 -8 -19 -20 -35 -48 -38 -68 -5 -31 -11 -37 -57 -53 -50 -18 -127
-81 -127 -105 0 -6 16 1 36 14 43 29 68 34 32 6 -50 -40 -108 -179 -108 -264
0 -37 23 -107 36 -107 3 0 4 10 1 23 -2 12 -1 33 3 47 6 20 8 14 9 -25 1 -29
11 -71 25 -100 25 -55 106 -184 143 -228 13 -16 23 -34 23 -41 0 -7 -39 -30
-87 -50 -120 -52 -386 -190 -453 -236 -75 -52 -180 -164 -180 -192 0 -5 7 -8
16 -8 8 0 12 4 9 10 -3 6 -2 10 4 10 5 0 12 -4 15 -9 3 -5 26 -12 51 -15 44
-7 45 -8 45 -43 0 -20 -3 -33 -6 -30 -4 4 -20 -3 -35 -14 -24 -17 -27 -24 -18
-40 8 -15 7 -24 -3 -36 -7 -9 -20 -34 -29 -57 -14 -33 -23 -42 -50 -48 -25 -5
-37 -3 -45 8 -10 13 -14 13 -28 -1 -20 -21 -23 -33 -41 -194 -9 -73 -20 -142
-26 -152 -5 -11 -21 -70 -34 -132 -48 -228 -43 -214 -75 -221 -58 -11 -175
-150 -202 -238 -15 -51 3 -216 38 -336 23 -80 25 -99 22 -258 -3 -203 -9 -192
120 -254 81 -39 91 -41 145 -35 33 4 84 20 115 36 31 16 60 29 63 29 4 0 16
-30 29 -68 25 -75 51 -129 104 -216 31 -51 36 -68 35 -116 -2 -65 11 -94 57
-133 32 -27 34 -32 34 -90 0 -42 6 -72 18 -92 10 -16 27 -64 37 -105 26 -109
62 -204 111 -295 23 -44 50 -105 59 -135 9 -30 23 -75 30 -100 11 -34 11 -46
2 -52 -7 -5 -461 -7 -1010 -6 l-997 3 3 870 c2 479 7 887 12 908 4 24 3 42 -4
51 -8 10 -11 735 -11 2690 l1 2676 3589 0 3590 0 0 1775 0 1775 -3600 0 -3600
0 0 -6400z m6786 3682 c159 -63 211 -265 105 -407 -25 -34 -27 -41 -14 -50 24
-18 0 -52 -48 -67 -33 -9 -47 -9 -72 2 -36 16 -116 15 -165 -1 -47 -15 -97 -4
-117 27 -13 20 -14 28 -4 40 10 12 8 19 -9 37 -37 39 -62 108 -62 171 0 78 16
128 58 176 79 93 205 120 328 72z m-643 2 c52 -18 116 -76 142 -130 60 -126 7
-282 -117 -344 -139 -69 -312 -20 -376 106 -42 84 -38 184 12 267 25 41 43 58
94 84 54 28 75 33 131 33 37 0 88 -7 114 -16z m-5806 -224 c52 -224 51 -200
11 -200 -31 0 -36 4 -41 30 -6 27 -11 30 -42 30 -19 0 -38 0 -42 1 -4 0 -11
-14 -16 -30 -7 -27 -12 -31 -41 -31 l-34 0 14 58 c7 31 26 110 41 175 l27 118
44 -3 45 -3 34 -145z m373 58 l1 -93 30 38 c23 27 39 37 60 37 16 0 29 -3 29
-6 0 -4 -16 -28 -35 -54 l-34 -47 28 -45 c56 -89 56 -88 17 -88 -30 0 -38 5
-57 40 -26 45 -39 43 -39 -6 0 -31 -2 -34 -30 -34 l-30 0 0 175 0 175 30 0 30
0 0 -92z m1740 -83 l0 -176 -42 1 c-24 1 -54 -1 -68 -5 -43 -11 -77 25 -85 88
-7 58 7 128 30 147 17 14 51 17 83 6 21 -7 22 -5 22 53 l0 61 30 0 30 0 0
-175z m452 83 l3 -92 25 37 c20 30 31 37 58 37 30 0 42 -12 24 -24 -5 -3 -21
-23 -36 -44 l-27 -40 40 -66 41 -66 -35 0 c-30 0 -39 6 -62 43 l-28 42 -3 -42
c-3 -42 -4 -43 -38 -43 l-34 0 0 168 c0 93 3 172 7 175 3 4 19 7 34 7 l28 0 3
-92z m728 27 l0 -66 30 16 c33 17 60 13 85 -11 11 -12 15 -40 15 -120 l0 -104
-30 0 -29 0 -3 92 c-3 83 -5 93 -22 96 -33 7 -46 -25 -46 -110 l0 -78 -30 0
-30 0 0 175 0 175 30 0 30 0 0 -65z m530 4 c0 -58 1 -60 23 -53 76 26 107 -8
107 -118 0 -71 -2 -81 -26 -105 -20 -20 -31 -24 -52 -18 -15 4 -46 6 -69 5
l-43 -1 0 176 0 175 30 0 30 0 0 -61z m-1480 -9 c0 -38 2 -40 30 -40 25 0 30
-4 30 -25 0 -21 -5 -25 -30 -25 l-31 0 3 -67 c3 -66 4 -68 31 -71 21 -3 27 -8
23 -19 -3 -8 -6 -19 -6 -24 0 -16 -73 -10 -92 8 -14 13 -18 31 -18 90 0 66 -2
75 -20 80 -13 3 -20 14 -20 29 0 17 6 24 20 24 17 0 20 7 20 40 0 38 2 40 30
40 28 0 30 -2 30 -40z m-2096 -61 c24 -23 34 -121 17 -172 -15 -44 -59 -66
-97 -48 -14 6 -27 11 -29 11 -3 0 -5 -30 -5 -66 l0 -65 -27 3 -28 3 -3 179 -2
179 37 -5 c21 -3 47 -2 58 3 26 10 55 2 79 -22z m402 21 c8 0 23 -9 34 -20 17
-17 20 -33 20 -121 l0 -101 -32 3 c-18 1 -48 -1 -66 -5 -50 -12 -82 13 -82 64
0 44 20 64 83 81 28 7 37 15 35 27 -5 26 -48 28 -55 3 -6 -25 -51 -29 -60 -5
-13 34 56 90 95 78 8 -2 20 -4 28 -4z m290 0 c39 -15 53 -39 54 -87 l0 -43
-61 0 c-60 0 -60 0 -57 -27 3 -32 44 -46 54 -19 4 10 18 16 35 16 35 0 39 -25
10 -61 -27 -34 -99 -34 -135 0 -23 22 -26 32 -26 96 0 79 20 120 63 128 12 2
25 5 29 6 4 0 19 -4 34 -9z m201 -1 c32 -12 43 -26 43 -56 0 -31 -45 -33 -53
-3 -7 26 -47 27 -47 1 0 -12 12 -23 33 -31 74 -30 97 -83 58 -131 -40 -50
-151 -22 -151 38 0 19 5 23 29 23 21 0 30 -6 34 -21 7 -25 40 -22 45 4 3 12
-9 23 -42 37 -76 32 -89 107 -23 135 39 17 39 17 74 4z m197 -3 c31 -13 53
-55 38 -71 -14 -14 -50 -3 -55 16 -4 13 -12 20 -24 17 -29 -5 -21 -32 15 -50
73 -36 92 -81 53 -129 -15 -19 -29 -24 -66 -24 -37 0 -51 5 -66 24 -29 36 -25
61 10 61 21 0 30 -6 34 -21 7 -25 40 -22 45 3 2 12 -11 24 -43 39 -74 35 -85
107 -21 135 39 17 40 17 80 0z m205 3 c17 -6 36 -19 41 -29 6 -10 10 -62 10
-115 l0 -97 -32 3 c-18 1 -48 -1 -66 -5 -50 -12 -82 13 -82 64 0 44 20 64 83
81 28 7 37 15 35 27 -5 25 -45 27 -58 3 -11 -22 -44 -28 -55 -10 -13 21 5 57
37 72 40 20 46 20 87 6z m319 -22 c16 -15 22 -32 22 -64 l0 -43 -61 0 c-60 0
-60 0 -57 -27 3 -32 44 -46 54 -19 9 23 64 21 64 -2 0 -69 -107 -94 -163 -37
-23 23 -24 151 -1 183 32 46 97 50 142 9z m1000 -3 c18 -21 22 -36 22 -98 0
-58 -4 -76 -20 -94 -43 -45 -130 -36 -157 18 -16 32 -17 121 -1 156 26 56 112
66 156 18z m240 8 c8 -10 12 -52 12 -119 l0 -103 -30 0 -30 0 0 90 c0 99 -12
119 -50 85 -17 -15 -20 -31 -20 -97 l0 -78 -30 0 -30 0 0 120 0 120 29 0 c16
0 31 -5 33 -11 2 -6 14 -5 33 5 33 17 63 13 83 -12z m530 -8 c15 -17 22 -38
22 -65 l0 -39 -61 0 c-60 0 -60 0 -57 -27 3 -32 44 -46 54 -19 4 10 18 16 35
16 35 0 40 -29 9 -60 -27 -27 -63 -34 -105 -20 -46 15 -55 34 -55 123 0 64 3
76 23 94 12 11 29 23 37 26 28 11 75 -3 98 -29z m539 12 c7 -6 13 -53 15 -116
l3 -105 -32 -3 -33 -3 0 91 c0 72 -3 92 -15 96 -33 13 -45 -15 -45 -102 l0
-84 -35 0 -35 0 0 120 0 120 35 0 c19 0 35 -4 35 -9 0 -6 12 -3 28 4 28 15 58
12 79 -9z m221 -12 c19 -22 22 -36 22 -120 l0 -95 -42 1 c-24 1 -54 -1 -68 -5
-35 -9 -80 27 -80 64 0 39 19 60 70 75 33 10 46 19 48 35 4 28 -31 29 -51 0
-22 -30 -63 -23 -59 11 10 70 109 91 160 34z m391 25 c36 -13 61 -53 61 -99
l0 -30 -59 0 c-65 0 -73 -5 -64 -38 6 -26 53 -32 53 -7 0 11 11 15 36 15 32 0
35 -2 29 -22 -13 -43 -42 -63 -90 -63 -64 0 -87 27 -93 105 -5 75 11 118 52
136 38 16 36 16 75 3z m204 -3 c15 -8 27 -11 27 -5 0 5 14 9 30 9 l30 0 0
-149 c0 -134 -2 -151 -20 -174 -41 -52 -147 -44 -170 13 -7 16 -9 34 -5 39 10
18 44 12 57 -9 26 -41 78 -15 78 40 0 17 -3 19 -19 10 -36 -19 -78 -12 -100
16 -16 21 -21 41 -21 90 0 72 13 107 44 122 29 14 37 14 69 -2z m285 -22 c19
-22 22 -36 22 -120 l0 -95 -42 1 c-24 1 -54 -1 -68 -5 -34 -9 -80 27 -80 61 0
42 17 62 70 79 37 12 50 22 50 36 0 26 -36 25 -50 -1 -11 -20 -54 -28 -64 -12
-10 16 29 76 54 84 40 11 83 0 108 -28z m-3048 -94 l0 -120 -35 0 -35 0 0 113
c0 63 3 117 7 120 3 4 19 7 35 7 l28 0 0 -120z m2280 63 c19 -91 25 -93 45
-14 17 70 18 71 50 71 l33 0 -24 -82 c-79 -281 -76 -273 -113 -276 -28 -3 -33
-1 -27 14 29 76 29 101 -4 209 -17 59 -34 113 -37 121 -4 10 4 14 29 14 34 0
35 -1 48 -57z m396 -4009 c11 -57 -15 -153 -51 -192 l-31 -34 -85 37 c-106 46
-120 59 -54 49 46 -6 49 -6 36 10 -17 21 -9 29 49 45 55 16 110 69 110 106 0
36 18 22 26 -21z m285 -471 c73 -62 127 -191 154 -373 23 -151 24 -554 2 -703
-22 -149 -71 -345 -104 -414 -41 -86 -168 -191 -399 -329 -89 -53 -140 -63
-225 -45 -52 11 -55 11 -97 -19 -36 -25 -52 -30 -104 -30 -60 0 -61 0 -43 20
10 11 26 20 37 20 20 0 24 -16 6 -23 -8 -4 -7 -6 3 -6 29 -2 40 22 24 52 -23
44 -96 126 -133 149 -28 17 -38 19 -53 10 -29 -19 -41 -15 -33 11 7 24 58 73
86 82 10 3 32 33 49 66 28 51 37 61 73 71 52 15 59 22 79 88 23 74 35 87 106
115 l62 24 11 -25 c18 -39 28 -28 12 13 -19 44 -12 104 16 150 14 24 29 34 57
39 38 6 121 53 144 80 6 8 -12 -1 -41 -21 -28 -19 -55 -35 -60 -35 -4 0 -10
27 -14 59 -7 62 15 226 36 264 7 14 7 18 -2 12 -8 -5 -10 3 -6 27 3 18 13 76
22 128 32 199 92 396 142 472 28 44 105 98 138 98 12 0 37 -12 55 -27z m-2500
-933 c19 -11 19 -13 5 -29 -23 -25 -46 -86 -46 -122 0 -17 10 -48 21 -69 l22
-38 -34 -52 -33 -51 -13 43 c-7 24 -18 53 -24 65 -9 18 -10 29 -1 48 17 36 15
107 -3 131 -21 28 -18 47 17 104 l32 51 18 -35 c10 -19 27 -40 39 -46z m90
-571 c21 -7 48 -23 61 -36 21 -23 22 -26 9 -111 -7 -48 -15 -141 -18 -207 l-6
-119 -43 -46 c-35 -36 -44 -41 -44 -25 0 11 9 35 21 54 11 18 18 35 16 38 -6
5 -43 -57 -52 -88 -12 -38 -40 -72 -76 -93 l-33 -20 20 35 c11 19 31 61 44 94
13 33 28 66 33 73 5 7 7 15 4 19 -4 3 -29 -42 -56 -100 -43 -92 -55 -109 -86
-124 -27 -13 -38 -14 -47 -5 -9 9 -8 16 3 29 24 28 95 210 86 219 -2 2 -20
-41 -41 -95 -24 -62 -48 -109 -67 -127 -54 -51 -29 -67 66 -42 24 7 47 9 51 5
11 -11 -16 -82 -42 -112 -13 -15 -25 -35 -28 -44 -9 -31 -35 -157 -52 -246
-10 -55 -31 -121 -55 -170 -20 -44 -41 -93 -45 -109 -4 -17 -20 -41 -36 -54
-34 -29 -72 -101 -82 -156 -14 -77 -17 -168 -6 -182 7 -7 8 -19 4 -25 -4 -7
-3 -9 4 -5 6 3 15 -1 21 -11 8 -17 3 -18 -78 -15 l-86 3 -34 137 c-28 112 -35
167 -42 302 -10 192 -20 258 -48 320 -15 33 -21 66 -21 123 0 51 -5 89 -16
108 -11 21 -13 43 -8 75 l6 45 20 -31 c12 -20 20 -57 23 -103 6 -79 8 -84 46
-89 15 -2 34 -9 42 -16 26 -22 94 -4 125 33 15 18 37 37 49 44 23 12 58 94 69
161 5 30 -1 59 -22 120 -16 44 -32 80 -36 80 -11 0 -12 4 20 -86 32 -87 31
-112 -9 -205 -25 -58 -44 -67 -22 -10 14 36 14 48 -2 133 -9 51 -23 104 -32
118 l-14 25 6 -25 c3 -14 13 -68 22 -121 l16 -97 -28 -66 c-45 -105 -78 -118
-55 -21 14 58 8 193 -10 223 -13 23 -13 7 1 -80 9 -60 8 -83 -6 -144 -18 -76
-34 -94 -60 -68 -18 19 -18 22 -3 95 9 45 9 69 -2 116 -7 32 -15 53 -17 46 -2
-6 0 -27 5 -46 10 -36 -10 -173 -28 -191 -18 -18 -30 9 -35 75 -5 73 -49 182
-98 238 -15 18 -50 78 -77 132 -27 55 -56 106 -64 114 -39 40 -24 80 51 138
60 45 79 39 191 -65 55 -51 133 -118 174 -148 84 -61 101 -83 134 -179 19 -54
24 -60 24 -35 0 27 4 32 29 36 18 3 27 0 25 -6 -7 -19 11 -69 27 -74 12 -5 12
-3 0 11 -15 19 -13 34 18 152 23 84 39 247 22 210 -5 -11 -10 -37 -10 -59 -1
-21 -11 -80 -23 -130 l-22 -91 -7 55 c-4 30 -10 63 -14 72 -4 10 8 60 30 121
35 100 40 108 111 177 41 39 74 76 74 82 0 6 9 26 21 44 23 38 51 43 120 23z
m1129 -76 c14 -28 49 -76 78 -107 29 -31 50 -61 47 -66 -10 -16 28 -11 106 14
144 46 151 45 227 -27 29 -28 40 -47 36 -59 -4 -13 -1 -16 10 -12 9 4 16 1 16
-6 0 -7 -8 -10 -20 -7 -14 3 -27 -5 -47 -32 -77 -100 -166 -181 -261 -235 -53
-30 -112 -57 -130 -60 -19 -2 -41 -11 -50 -19 -19 -15 -52 -29 -52 -21 0 22
72 138 113 183 l51 56 -56 -54 c-31 -30 -71 -80 -88 -112 -42 -79 -55 -85 -47
-23 4 27 9 60 12 74 3 15 -1 11 -9 -10 -8 -19 -15 -48 -15 -64 -1 -24 -3 -27
-16 -16 -20 17 -20 115 1 177 16 47 78 142 128 196 14 15 21 27 16 27 -14 0
-134 -157 -147 -192 -6 -18 -12 -25 -12 -16 -1 9 -4 19 -9 22 -4 2 -6 -13 -4
-34 7 -73 -3 -79 -32 -20 -14 30 -36 70 -47 87 l-21 32 21 130 c11 72 18 137
15 145 -20 53 42 108 116 104 43 -3 46 -5 70 -55z m-263 -190 c35 -38 32 -46
-14 -37 -18 3 -63 1 -99 -6 -75 -14 -92 -7 -72 31 28 51 50 77 69 82 13 3 18
10 14 17 -4 6 1 18 11 25 17 13 21 10 40 -33 12 -26 35 -62 51 -79z m-2347 78
c0 -14 67 -33 92 -26 15 4 18 3 10 -3 -9 -6 -2 -12 24 -20 21 -6 41 -9 46 -6
4 3 8 0 8 -5 0 -6 11 -11 24 -11 13 0 29 -7 36 -15 14 -17 60 -20 60 -4 0 5 5
7 12 3 8 -5 3 -12 -15 -19 l-28 -11 84 -83 c46 -45 94 -89 107 -98 26 -18 80
-100 80 -121 0 -11 -9 -13 -37 -8 -28 4 -32 3 -17 -3 25 -11 41 -31 25 -31 -6
0 -11 4 -11 9 0 11 -55 22 -75 15 -20 -8 -19 -24 3 -25 16 -1 16 -2 0 -6 -10
-2 -18 -9 -18 -14 0 -6 -5 -7 -11 -3 -7 4 -9 -2 -7 -14 2 -13 -9 -34 -29 -54
l-32 -33 -3 -162 c-2 -90 -4 -158 -6 -153 -2 6 -8 10 -13 10 -12 0 -49 -37
-49 -50 0 -5 -4 -10 -10 -10 -5 0 -10 -9 -10 -21 0 -11 -4 -18 -9 -15 -5 4 -7
-4 -3 -16 l5 -22 8 22 c5 12 17 22 28 22 13 0 21 8 23 23 2 18 10 23 41 25
l37 3 0 -88 c0 -77 -3 -90 -20 -103 -13 -9 -20 -26 -20 -47 0 -18 -5 -33 -11
-33 -6 0 -8 -9 -3 -22 4 -13 8 -35 9 -49 1 -14 5 -31 9 -37 4 -7 5 -12 2 -12
-22 0 -109 209 -127 304 -7 34 -21 76 -31 94 -17 27 -19 44 -14 100 16 187 18
213 12 228 -5 13 -9 14 -22 3 -14 -11 -14 -13 0 -21 17 -9 20 -66 7 -120 l-6
-27 -31 28 c-76 68 -80 98 -25 202 42 81 57 129 41 129 -5 0 -10 -11 -10 -24
0 -14 -7 -31 -15 -40 -8 -8 -15 -20 -15 -26 0 -6 -7 -25 -17 -43 -11 -22 -18
-27 -21 -17 -2 8 -27 54 -55 103 -49 87 -136 317 -112 297 10 -8 15 -6 20 10
4 12 4 24 1 27 -3 4 -6 -2 -7 -13 0 -18 -1 -18 -9 1 -6 14 -9 15 -10 5 -1 -10
-4 -7 -10 7 -5 12 -5 34 0 50 4 15 9 20 9 11 1 -26 41 -24 41 2 0 11 -1 22 -2
25 -2 2 6 11 17 19 22 17 55 21 55 7z m2343 -137 c36 -6 37 -8 37 -50 0 -30 7
-51 24 -72 27 -31 71 -132 58 -132 -10 0 -27 32 -42 83 -7 21 -14 36 -17 34
-10 -11 23 -91 47 -116 15 -15 29 -43 33 -65 3 -22 13 -44 22 -48 8 -5 15 -15
15 -23 0 -8 6 -12 14 -9 8 3 17 0 21 -6 4 -7 22 -2 53 14 26 13 60 27 76 31
31 7 178 90 235 132 31 24 36 25 83 14 84 -19 131 -54 204 -152 l67 -90 -51
-47 c-28 -26 -93 -73 -144 -104 -130 -80 -129 -79 -90 -72 91 16 169 -113 213
-353 21 -114 22 -119 5 -155 -22 -46 -91 -84 -134 -73 -30 7 -454 422 -503
492 -58 83 -74 181 -51 306 5 26 6 47 1 47 -12 0 -24 -86 -24 -170 0 -96 28
-158 113 -255 34 -38 62 -73 62 -76 0 -10 -49 -29 -75 -29 -29 0 -214 124
-283 189 -125 117 -188 225 -198 339 -11 131 80 404 139 415 36 7 50 7 90 1z
m969 -561 c-5 -348 2 -448 39 -531 10 -23 19 -52 19 -63 0 -11 5 -29 10 -40 8
-15 7 -26 -6 -48 l-16 -28 -43 46 c-48 52 -73 112 -105 256 -36 158 -84 252
-152 295 l-28 17 33 19 c19 10 58 35 87 54 61 40 141 70 154 59 5 -4 9 -20 8
-36z m813 -248 c22 -13 51 -25 65 -25 28 0 101 -39 107 -57 2 -6 -10 -25 -26
-42 -20 -20 -31 -42 -31 -59 0 -16 -4 -32 -9 -37 -6 -6 -11 -30 -13 -55 l-3
-45 -74 -3 c-124 -5 -175 29 -166 109 4 36 1 50 -15 69 -11 13 -20 34 -20 47
0 13 -4 32 -10 42 -13 25 36 68 82 74 66 8 74 7 113 -18z"/>
<path d="M6613 9773 c-20 -4 -23 -11 -23 -51 l0 -47 85 0 85 0 0 46 c0 40 -3
48 -22 53 -25 6 -90 6 -125 -1z"/>
<path d="M133 8243 c-44 -6 -57 -26 -54 -83 1 -34 -4 -58 -19 -82 -24 -39 -28
-110 -6 -102 8 3 16 14 19 25 4 15 14 19 51 19 43 0 47 2 52 29 6 29 29 48 38
32 3 -4 0 -21 -6 -37 -16 -43 15 -99 57 -100 17 0 37 -4 45 -8 9 -3 23 -1 32
6 15 12 16 18 2 68 -23 88 -23 87 51 95 44 5 65 12 65 21 0 7 -4 15 -9 19 -5
3 -12 18 -16 34 -15 68 -64 62 -96 -10 -24 -52 -37 -58 -81 -37 -22 11 -25 17
-21 50 5 35 3 38 -32 52 -21 9 -38 15 -39 14 0 0 -15 -3 -33 -5z"/>
<path d="M650 8212 c-18 -2 -34 -17 -53 -47 -25 -43 -29 -45 -72 -45 -41 0
-45 -2 -45 -23 0 -39 28 -56 94 -55 39 0 61 -4 67 -13 14 -22 5 -33 -30 -40
-18 -4 -38 -12 -44 -18 -6 -6 -33 -11 -60 -11 -43 0 -48 -2 -42 -17 4 -10 10
-30 13 -45 5 -31 6 -31 -83 -32 -47 -1 -60 -5 -63 -17 -6 -32 120 -55 131 -25
3 8 24 20 46 26 22 6 43 15 46 20 3 6 15 10 26 10 18 0 21 -5 23 -40 1 -19 42
-25 62 -9 24 20 51 -13 46 -55 -4 -31 -1 -35 27 -41 21 -4 43 0 73 14 82 40
108 56 114 74 3 9 12 17 20 17 8 0 14 8 14 18 0 30 35 54 85 60 l46 5 -3 50
c-2 41 -8 54 -30 70 -34 25 -76 15 -94 -21 -6 -13 -20 -33 -31 -45 -11 -12
-25 -41 -32 -64 l-12 -43 -52 0 c-30 1 -75 10 -107 24 -50 20 -55 26 -61 59
-3 22 -2 38 5 40 8 3 8 10 0 24 -7 10 -11 51 -9 91 1 57 6 75 20 86 21 15 6
24 -35 18z"/>
<path d="M200 7523 c0 -10 -9 -33 -21 -52 -25 -41 -16 -72 28 -94 56 -27 68
-19 71 51 2 46 -2 71 -13 88 -19 29 -65 34 -65 7z"/>
<path d="M405 7006 c-28 -28 -41 -99 -26 -139 16 -42 15 -44 -31 -60 -45 -15
-45 -16 -31 -76 7 -28 23 -45 86 -88 42 -29 77 -48 77 -41 0 6 -9 30 -20 53
-21 44 -40 128 -40 181 0 18 10 53 21 77 16 33 20 54 15 81 -8 42 -18 45 -51
12z"/>
<path d="M1260 6746 c0 -85 -3 -99 -30 -151 -47 -90 -39 -105 29 -57 21 15 49
45 61 68 22 40 22 43 7 88 -9 27 -14 60 -10 77 4 21 0 35 -12 49 -37 40 -45
26 -45 -74z"/>
<path d="M760 6330 c-19 -16 -22 -26 -17 -58 6 -35 4 -39 -26 -57 -17 -11 -35
-20 -38 -20 -3 0 -17 -8 -30 -18 -80 -58 -95 -67 -110 -67 -33 0 -42 -26 -35
-107 3 -42 7 -78 9 -79 1 -2 14 -5 27 -7 41 -8 60 -18 60 -32 0 -7 9 -24 20
-38 25 -31 25 -49 1 -71 -10 -9 -21 -35 -24 -58 -3 -22 -12 -48 -21 -56 -13
-13 -13 -18 0 -44 18 -35 4 -68 -30 -68 -21 0 -24 -5 -24 -40 -1 -22 6 -56 14
-75 9 -23 14 -72 14 -146 l0 -111 46 7 c82 12 84 15 84 132 0 39 4 83 9 96 5
14 42 51 82 83 39 33 82 69 95 82 13 12 30 22 39 22 8 0 15 5 15 11 0 5 14 15
31 21 19 6 29 16 27 26 -5 28 -27 24 -60 -11 -18 -19 -51 -40 -73 -47 -22 -7
-53 -23 -69 -35 -24 -19 -33 -21 -53 -12 -27 12 -30 39 -8 90 8 20 15 57 15
82 0 25 7 60 17 78 15 29 69 105 84 117 21 17 40 90 23 90 -12 0 -51 -24 -76
-48 -69 -64 -73 58 -8 213 46 109 52 133 39 157 -12 23 -21 23 -49 -2z"/>
<path d="M1185 5968 c-2 -7 -6 -31 -9 -53 -17 -137 -39 -205 -74 -231 -13 -10
-12 -14 11 -29 22 -14 27 -25 27 -60 0 -62 11 -105 26 -105 25 0 54 43 54 81
0 20 5 60 10 90 29 151 31 307 5 302 -6 0 -18 3 -28 8 -12 7 -19 6 -22 -3z"/>
<path d="M373 4409 c-7 -7 -13 -19 -13 -26 0 -7 -9 -27 -20 -45 -25 -41 -26
-90 -2 -111 12 -11 36 -17 64 -17 32 0 48 -5 52 -15 8 -21 23 -19 31 4 3 11
30 43 60 72 67 65 71 91 18 116 -21 9 -58 17 -83 19 -25 1 -56 5 -70 9 -15 4
-30 1 -37 -6z"/>
<path d="M400 4142 c-14 -8 -43 -33 -65 -53 -22 -21 -62 -48 -88 -59 l-48 -21
7 -80 c4 -53 3 -79 -4 -79 -16 0 -24 -36 -17 -69 l6 -29 22 22 c12 13 30 39
40 58 11 20 31 49 45 65 41 44 117 164 132 206 17 46 5 62 -30 39z"/>
</g>
</svg>
