<?xml version="1.0" standalone="no"?>
<!DOCTYPE svg PUBLIC "-//W3C//DTD SVG 20010904//EN"
 "http://www.w3.org/TR/2001/REC-SVG-20010904/DTD/svg10.dtd">
<svg version="1.0" xmlns="http://www.w3.org/2000/svg"
 width="720.000000pt" height="1280.000000pt" viewBox="0 0 720.000000 1280.000000"
 preserveAspectRatio="xMidYMid meet">
<metadata>
Created by potrace 1.16, written by Peter Selinger 2001-2019
</metadata>
<g transform="translate(0.000000,1280.000000) scale(0.100000,-0.100000)"
fill="#000000" stroke="none">
<path d="M0 6400 l0 -6400 3600 0 3600 0 0 1025 0 1025 -3590 0 -3590 0 0
3054 c0 2901 1 3055 18 3060 9 3 75 23 147 45 586 182 1416 382 1936 466 426
69 882 94 1108 61 237 -35 385 -105 420 -199 35 -92 -89 -222 -379 -399 -149
-91 -220 -128 -705 -372 -656 -328 -861 -453 -1024 -618 -163 -166 -175 -334
-34 -475 62 -62 121 -98 223 -136 49 -19 84 -21 330 -25 260 -4 419 5 505 28
17 5 56 11 88 15 l59 7 -7 81 c-4 45 -8 83 -9 84 -1 1 -32 -4 -68 -12 -174
-36 -367 -57 -528 -58 -269 -1 -421 45 -502 151 -60 76 -22 168 117 285 158
133 353 246 913 527 724 364 920 482 1074 648 79 86 111 155 111 241 0 88 -35
155 -112 218 -152 124 -333 172 -676 180 -419 11 -822 -40 -1565 -197 -300
-63 -949 -235 -1306 -346 -61 -19 -116 -34 -122 -34 -9 0 -12 114 -12 460 l0
460 3590 0 3590 0 0 1775 0 1775 -3600 0 -3600 0 0 -6400z m6797 3678 c152
-71 198 -271 93 -403 -27 -34 -28 -39 -14 -50 15 -11 15 -14 0 -37 -27 -41
-84 -49 -143 -21 -31 14 -42 15 -87 3 -28 -7 -73 -13 -100 -14 -42 -1 -51 3
-72 29 -22 28 -23 31 -7 42 15 12 15 15 -5 35 -55 60 -78 178 -50 269 23 77
103 146 195 168 51 13 139 3 190 -21z m-654 6 c53 -18 116 -76 143 -132 26
-54 25 -174 -3 -227 -49 -93 -119 -136 -233 -143 -63 -4 -85 -1 -128 18 -148
64 -203 241 -118 382 25 42 43 59 94 85 54 28 75 33 131 33 37 0 88 -7 114
-16z m-5802 -239 c21 -88 38 -166 38 -172 1 -8 -12 -13 -32 -13 -28 0 -34 4
-42 32 -9 29 -14 32 -50 31 -36 0 -40 -3 -47 -31 -8 -28 -13 -32 -42 -32 l-34
0 14 58 c7 31 26 110 41 175 l27 118 44 -3 45 -3 38 -160z m369 73 l1 -93 30
38 c23 27 39 37 60 37 16 0 29 -3 29 -6 0 -4 -16 -27 -35 -53 l-34 -47 21 -35
c11 -19 29 -49 40 -66 l20 -33 -36 0 c-30 0 -38 5 -57 40 -26 45 -39 43 -39
-6 0 -31 -2 -34 -30 -34 l-30 0 0 175 0 175 30 0 30 0 0 -92z m1740 -83 l0
-176 -42 1 c-24 1 -54 -1 -68 -5 -43 -11 -77 25 -85 88 -7 58 7 128 30 147 17
14 51 17 83 6 21 -7 22 -5 22 53 l0 61 30 0 30 0 0 -175z m452 83 l3 -92 25
37 c20 30 31 37 58 37 30 0 42 -12 24 -24 -5 -3 -21 -23 -36 -45 l-28 -39 34
-54 c19 -29 38 -59 42 -65 5 -10 -3 -13 -29 -13 -30 0 -39 5 -56 35 -27 45
-39 44 -39 -1 0 -34 -1 -35 -32 -32 l-33 3 -3 173 -2 172 34 0 35 0 3 -92z
m728 28 l0 -64 29 14 c31 15 77 6 93 -19 4 -7 8 -58 8 -114 l0 -103 -30 0 -30
0 0 90 c0 75 -3 92 -16 97 -37 14 -49 -10 -52 -101 l-3 -86 -29 0 -30 0 0 175
0 175 30 0 30 0 0 -64z m530 3 c0 -55 2 -60 18 -53 31 13 76 5 95 -17 13 -16
17 -40 17 -101 0 -71 -2 -81 -26 -105 -21 -21 -31 -24 -57 -18 -18 4 -49 6
-69 6 l-38 -2 0 176 0 175 30 0 30 0 0 -61z m-1480 -9 c0 -38 2 -40 30 -40 25
0 30 -4 30 -25 0 -21 -5 -25 -30 -25 l-31 0 3 -67 c3 -66 4 -68 31 -71 28 -3
31 -9 21 -36 -4 -11 -19 -16 -45 -16 -54 0 -69 25 -69 117 0 66 -2 73 -20 73
-15 0 -20 7 -20 25 0 18 5 25 20 25 17 0 20 7 20 40 0 38 2 40 30 40 28 0 30
-2 30 -40z m-2096 -61 c24 -23 34 -121 17 -172 -15 -44 -59 -66 -97 -48 -14 6
-27 11 -29 11 -3 0 -5 -30 -5 -66 l0 -65 -27 3 -28 3 -3 179 -2 179 38 -6 c22
-2 46 -1 53 4 19 11 60 1 83 -22z m405 20 c17 -6 36 -19 41 -29 6 -10 10 -62
10 -115 l0 -97 -32 3 c-18 1 -48 -1 -66 -5 -50 -12 -82 13 -82 64 0 44 20 64
83 81 28 7 37 15 35 27 -5 26 -48 28 -55 3 -6 -25 -51 -29 -60 -5 -8 21 28 67
58 75 35 10 33 10 68 -2z m290 0 c38 -14 51 -35 51 -88 l0 -41 -61 0 c-60 0
-60 0 -57 -27 3 -32 44 -46 54 -19 9 23 64 21 64 -2 0 -51 -67 -84 -124 -62
-45 17 -55 38 -56 116 0 78 20 119 63 127 12 2 25 5 28 6 3 0 20 -4 38 -10z
m198 0 c32 -12 43 -26 43 -56 0 -31 -45 -33 -53 -3 -7 26 -47 27 -47 1 0 -11
12 -23 30 -31 78 -32 101 -82 61 -131 -15 -19 -29 -24 -66 -24 -37 0 -51 5
-66 24 -28 34 -25 61 7 61 18 0 28 -6 31 -21 7 -25 46 -22 51 4 3 12 -9 23
-42 37 -76 32 -89 107 -23 135 39 17 39 17 74 4z m197 -3 c31 -13 53 -55 38
-71 -14 -14 -50 -3 -55 16 -4 13 -12 20 -24 17 -29 -5 -21 -32 15 -50 73 -36
92 -81 53 -129 -15 -19 -29 -24 -66 -24 -37 0 -51 5 -66 24 -29 36 -25 61 10
61 20 0 30 -6 34 -20 7 -28 47 -27 47 0 0 15 -13 26 -45 40 -73 31 -85 108
-21 136 39 17 40 17 80 0z m205 3 c17 -6 36 -19 41 -29 6 -10 10 -62 10 -115
l0 -97 -32 3 c-18 1 -48 -1 -66 -5 -50 -12 -82 13 -82 64 0 44 20 64 83 81 28
7 37 15 35 27 -5 25 -45 27 -58 3 -13 -24 -60 -29 -60 -6 0 32 25 66 54 74 42
12 39 12 75 0z m319 -22 c16 -15 22 -32 22 -64 l0 -43 -61 0 c-60 0 -60 0 -57
-27 3 -32 44 -46 54 -19 8 20 64 22 64 2 0 -69 -102 -98 -158 -45 -19 17 -22
31 -22 98 0 68 3 80 23 98 12 11 29 23 37 26 25 9 73 -4 98 -26z m1000 -3 c18
-21 22 -37 22 -89 0 -77 -13 -110 -50 -125 -35 -15 -93 -4 -116 21 -23 26 -31
128 -13 170 24 60 111 73 157 23z m232 16 c17 -17 20 -33 20 -125 l0 -105 -30
0 -30 0 0 90 c0 75 -3 92 -17 97 -32 12 -53 -32 -53 -113 l0 -74 -30 0 -30 0
0 120 0 120 29 0 c16 0 31 -5 33 -11 2 -6 14 -5 33 5 39 21 51 20 75 -4z m538
-13 c16 -15 22 -32 22 -64 l0 -43 -61 0 c-60 0 -60 0 -57 -27 3 -32 44 -46 54
-19 4 10 18 16 35 16 35 0 40 -29 9 -60 -27 -27 -63 -34 -105 -20 -46 15 -55
34 -55 123 0 64 3 76 23 94 12 11 29 23 37 26 25 8 74 -5 98 -26z m530 16 c18
-16 21 -32 24 -123 l3 -105 -32 -3 -33 -3 0 91 c0 72 -3 92 -15 96 -33 13 -45
-15 -45 -102 l0 -84 -35 0 -35 0 0 120 0 120 35 0 c19 0 35 -5 35 -11 0 -5 10
-3 22 5 29 21 51 20 76 -1z m227 -14 c17 -16 21 -35 23 -120 l4 -100 -44 1
c-23 1 -54 -1 -68 -5 -34 -9 -80 27 -80 61 0 42 17 62 70 79 37 12 50 22 50
36 0 26 -36 25 -52 -1 -13 -20 -52 -27 -62 -12 -10 17 29 76 54 83 36 10 82 0
105 -22z m394 20 c36 -13 61 -53 61 -99 l0 -30 -59 0 c-65 0 -73 -5 -64 -38 6
-26 48 -31 57 -7 3 9 18 15 36 15 28 0 31 -3 25 -22 -4 -13 -18 -34 -33 -47
-21 -19 -33 -22 -66 -18 -61 8 -86 43 -86 117 0 73 16 109 55 126 37 16 35 16
74 3z m204 -3 c15 -8 27 -11 27 -5 0 5 14 9 31 9 l30 0 -3 -154 c-3 -134 -5
-157 -22 -175 -42 -46 -144 -35 -166 19 -7 16 -9 34 -5 39 10 18 44 12 57 -9
27 -42 78 -15 78 41 0 18 -3 20 -12 11 -7 -7 -29 -12 -49 -12 -56 0 -79 34
-79 116 0 72 13 107 44 122 29 14 37 14 69 -2z m282 -17 c17 -16 21 -36 23
-120 l4 -100 -44 1 c-23 1 -54 -1 -68 -5 -36 -9 -80 27 -80 66 0 28 30 69 50
69 6 0 26 7 45 14 25 11 33 19 29 30 -9 22 -41 20 -56 -4 -18 -29 -58 -27 -58
3 0 68 101 98 155 46z m-3045 -99 l0 -120 -35 0 -35 0 0 113 c0 63 3 117 7
120 3 4 19 7 35 7 l28 0 0 -120z m2280 63 c19 -90 25 -92 45 -14 18 68 20 71
48 71 28 0 29 -2 23 -33 -3 -19 -25 -99 -49 -178 l-42 -144 -34 -3 c-28 -3
-32 -1 -28 15 31 106 31 95 -3 209 -18 60 -35 115 -38 122 -3 8 7 12 30 12 34
0 35 -1 48 -57z"/>
<path d="M6613 9773 c-20 -4 -23 -11 -23 -51 l0 -47 85 0 85 0 0 46 c0 40 -3
48 -22 53 -25 6 -90 6 -125 -1z"/>
<path d="M5145 7350 c-181 -27 -490 -99 -765 -177 -69 -19 -150 -41 -180 -49
-30 -8 -67 -19 -82 -25 l-26 -11 35 -46 c19 -26 39 -56 44 -69 7 -20 12 -21
41 -12 153 46 558 153 638 169 25 5 86 18 136 29 286 62 501 67 573 13 53 -39
32 -148 -47 -253 -87 -113 -250 -240 -474 -368 -32 -18 -58 -34 -58 -37 0 -2
67 -4 149 -4 l148 0 89 62 c105 74 257 221 307 298 55 84 80 171 75 255 -8
127 -82 203 -226 234 -76 16 -238 12 -377 -9z"/>
<path d="M2970 6876 l0 -86 38 0 c59 0 94 40 67 76 -9 14 -10 22 -1 36 19 30
-4 53 -58 56 l-46 3 0 -85z"/>
<path d="M3582 6878 c3 -78 4 -83 26 -86 62 -9 108 44 95 109 -7 38 -38 59
-86 59 l-38 0 3 -82z"/>
<path d="M3214 6667 c-2 -7 -3 -47 -2 -88 l3 -74 33 -3 c19 -2 44 4 59 13 20
14 24 22 18 43 -4 15 -6 44 -6 64 1 27 -4 40 -18 48 -28 14 -81 13 -87 -3z"/>
<path d="M1218 6373 c6 -2 12 -9 12 -15 0 -6 -7 -8 -15 -4 -10 4 -15 -1 -15
-14 0 -11 5 -20 10 -20 6 0 10 -7 10 -15 0 -8 -4 -15 -9 -15 -12 0 -11 -52 1
-67 5 -7 6 -18 2 -25 -12 -20 -14 -60 -3 -80 6 -12 6 -18 -1 -18 -14 0 -13
-63 2 -78 9 -9 9 -15 2 -20 -14 -10 -16 -62 -4 -78 8 -8 8 -14 0 -19 -13 -8
-13 -51 0 -75 7 -13 7 -21 0 -25 -14 -9 -13 -58 2 -73 9 -9 9 -15 0 -24 -15
-15 -16 -60 -1 -75 6 -6 8 -17 3 -24 -12 -20 -14 -62 -3 -75 6 -7 6 -15 1 -18
-12 -7 -13 -74 -1 -81 6 -4 6 -12 1 -18 -12 -16 -13 -57 -2 -77 6 -11 5 -21
-3 -29 -9 -9 -4 -19 21 -42 17 -16 32 -33 32 -36 0 -7 -31 17 -47 37 -10 13
-12 13 -13 1 0 -8 10 -26 23 -39 20 -21 20 -24 3 -20 -14 2 -19 -4 -22 -27 -2
-16 2 -36 9 -44 9 -11 9 -15 0 -18 -18 -6 -16 -30 2 -37 8 -3 15 -11 15 -18 0
-10 -2 -10 -9 1 -5 7 -14 10 -21 6 -9 -5 -6 -13 11 -29 13 -12 33 -32 44 -46
l20 -25 -20 15 c-11 8 -23 19 -26 24 -8 10 -31 -2 -25 -13 3 -4 1 -13 -4 -21
-7 -11 -2 -21 14 -35 12 -11 28 -30 35 -43 16 -29 30 -20 24 15 -4 22 -2 25 6
13 7 -11 13 -12 21 -4 8 8 7 14 -5 24 -8 7 -15 17 -15 22 0 5 16 -7 35 -28 25
-26 39 -34 46 -27 7 7 3 16 -13 30 -13 10 -36 35 -53 53 l-30 35 29 -25 c17
-14 45 -40 63 -58 17 -19 37 -31 43 -27 6 4 -21 37 -64 81 -41 41 -71 74 -67
74 4 0 30 -22 57 -50 27 -27 52 -50 57 -50 19 0 1 26 -64 91 -96 97 -70 83 35
-18 47 -46 88 -83 91 -83 14 0 1 22 -40 64 -28 28 -39 46 -30 46 22 0 19 20
-7 41 -11 11 -17 19 -12 19 4 0 25 -17 46 -37 41 -40 66 -38 28 2 -31 34 -13
32 22 -2 51 -49 42 -14 -10 39 -29 29 -52 56 -52 62 0 5 20 -11 45 -37 40 -42
65 -58 65 -41 0 3 -22 29 -50 57 -27 28 -50 54 -50 58 0 4 22 -15 50 -43 28
-28 54 -47 61 -43 7 5 -4 22 -30 46 -23 22 -41 44 -41 50 0 5 27 -18 60 -52
33 -33 64 -58 70 -54 7 4 -8 26 -37 55 -71 71 -107 110 -101 110 3 0 35 -29
71 -65 59 -58 87 -77 87 -59 0 4 -21 28 -47 54 -27 26 -59 60 -73 76 -25 28
-25 29 -1 9 13 -11 50 -46 82 -77 31 -32 60 -58 63 -58 18 0 -2 29 -69 97 -41
41 -75 78 -75 81 0 7 76 -64 103 -95 10 -13 23 -23 28 -23 20 0 7 24 -36 66
-25 24 -42 44 -38 44 5 0 36 -27 71 -60 34 -33 64 -60 67 -60 16 0 -2 25 -55
80 -34 35 -59 64 -57 66 1 2 34 -28 73 -66 38 -38 72 -70 77 -70 15 0 5 17
-38 63 -53 55 -48 64 7 10 40 -39 65 -40 28 -1 -18 19 -19 24 -6 26 22 5 20
15 -9 42 -14 13 -25 27 -25 31 0 5 32 -23 71 -61 66 -65 89 -81 89 -62 0 4
-38 45 -85 91 -47 46 -84 86 -81 88 2 2 49 -41 105 -97 90 -89 121 -113 121
-94 0 3 -38 44 -84 90 -46 46 -80 84 -76 84 4 0 46 -38 94 -85 78 -76 106 -97
106 -79 0 3 -49 54 -109 115 -60 60 -106 109 -102 109 4 0 62 -54 129 -120
108 -106 142 -134 142 -114 0 3 -37 43 -82 88 -46 46 -94 96 -108 112 l-25 29
34 -30 c19 -16 66 -63 105 -102 39 -40 74 -73 78 -73 22 0 -1 30 -87 116 -52
53 -91 94 -85 92 5 -1 59 -51 119 -110 61 -60 113 -108 116 -108 17 0 -2 29
-56 82 -33 33 -59 61 -57 63 2 2 40 -32 83 -75 44 -43 83 -79 88 -80 18 -1 3
25 -39 66 -26 24 -42 44 -37 44 5 0 32 -22 59 -50 27 -27 52 -50 57 -50 17 0
4 21 -39 64 -25 25 -41 46 -36 46 5 0 25 -17 44 -37 50 -54 89 -85 96 -79 3 4
-7 20 -23 36 -16 16 -25 33 -22 37 4 3 7 1 7 -5 0 -7 7 -12 15 -12 8 0 15 7
15 16 0 10 16 -1 45 -30 39 -41 65 -57 65 -41 0 3 -22 29 -50 58 -27 29 -50
56 -50 61 0 4 27 -19 59 -53 54 -56 81 -74 81 -53 0 4 -23 29 -51 56 -28 26
-49 50 -46 52 3 3 30 -20 61 -51 31 -31 61 -53 67 -50 6 4 -6 23 -30 46 -23
21 -41 43 -41 48 0 5 20 -10 44 -35 40 -40 66 -55 66 -38 0 4 -11 17 -25 30
-14 13 -25 28 -25 34 0 6 15 -5 34 -25 33 -34 56 -45 56 -26 0 5 -10 18 -23
28 -13 10 -27 25 -32 33 -8 13 -7 13 10 0 11 -8 34 -30 51 -47 32 -32 54 -42
54 -24 0 5 -6 12 -12 14 -10 4 -10 6 0 6 7 1 29 -15 48 -36 19 -20 37 -33 40
-30 3 3 -3 16 -15 28 -30 33 -16 37 17 6 32 -31 39 -33 44 -12 2 10 21 -3 60
-40 32 -30 63 -55 70 -55 7 0 1 10 -13 23 -14 12 -34 36 -44 52 -17 28 -15 27
26 -10 24 -22 46 -41 48 -43 3 -2 0 -11 -6 -21 -12 -19 -8 -31 9 -31 5 0 8 6
7 13 0 6 2 22 6 34 7 21 13 17 86 -56 44 -44 79 -83 79 -87 0 -4 -11 3 -25 16
-26 25 -47 21 -25 -5 10 -12 10 -15 -3 -15 -8 0 -18 7 -21 16 -3 8 -11 12 -16
9 -8 -5 -7 -11 1 -21 9 -11 8 -14 -5 -14 -23 0 -20 -13 9 -40 14 -13 25 -27
25 -32 0 -5 -20 12 -44 37 -40 40 -66 56 -66 39 0 -4 16 -22 36 -41 20 -19 34
-36 32 -39 -3 -2 -29 18 -58 46 -48 46 -70 60 -70 44 0 -16 180 -185 190 -179
7 4 0 18 -19 36 -17 16 -31 32 -31 35 0 9 32 -17 53 -43 10 -13 23 -23 28 -23
14 0 11 28 -3 33 -10 4 -10 6 0 6 7 1 23 -10 36 -24 13 -14 26 -25 30 -25 14
0 5 24 -16 41 -11 11 -17 19 -13 19 5 0 21 -12 37 -27 36 -35 50 -21 15 15
-15 16 -27 31 -27 35 0 9 36 -20 68 -55 26 -29 47 -37 39 -15 -2 6 -10 11 -16
9 -7 -1 -10 2 -7 7 3 5 -1 14 -9 21 -8 7 -15 17 -15 22 0 5 16 -7 36 -27 21
-22 40 -33 45 -28 5 5 -8 25 -31 47 -22 21 -40 43 -40 47 0 5 15 -6 34 -26 31
-32 56 -45 56 -29 0 4 -15 21 -32 38 -18 17 -40 40 -48 51 -15 20 -14 20 9 0
13 -11 38 -35 56 -52 30 -31 55 -42 55 -26 0 4 -12 18 -27 30 -14 13 -24 26
-21 29 3 2 19 -9 36 -26 54 -54 60 -30 7 27 -58 62 -39 56 24 -8 33 -32 62
-59 65 -59 16 0 2 26 -36 64 -24 24 -52 54 -63 67 -20 24 -19 24 9 -1 16 -14
43 -40 61 -57 29 -30 55 -42 55 -27 0 3 -18 23 -40 45 -22 22 -40 43 -40 46 0
4 17 -10 38 -30 41 -40 52 -45 52 -22 0 8 -4 15 -9 15 -5 0 -12 8 -16 18 -5
14 -4 15 6 5 7 -7 17 -13 21 -13 13 0 9 28 -4 33 -7 3 -8 6 -2 6 6 1 21 -10
34 -24 24 -25 40 -32 40 -17 0 5 -16 26 -36 46 -58 59 -34 50 29 -11 32 -31
60 -53 64 -49 3 3 -9 21 -28 39 -19 18 -40 41 -48 50 -12 15 -12 17 3 11 9 -3
16 -10 16 -15 0 -5 7 -9 15 -9 23 0 18 10 -22 54 -21 22 -27 32 -13 21 13 -11
30 -26 36 -34 8 -11 13 -11 19 -2 4 7 -3 23 -16 39 l-24 27 25 -20 c13 -11 39
-35 57 -53 17 -19 37 -31 43 -27 6 4 -17 34 -55 72 -36 37 -65 70 -65 74 0 5
22 -15 49 -43 32 -33 53 -48 61 -43 10 6 10 10 -1 19 -19 15 -43 46 -36 46 4
0 24 -18 46 -41 23 -22 46 -37 52 -33 7 4 3 14 -12 28 -13 12 -33 32 -44 46
l-20 25 26 -22 c14 -13 28 -23 32 -23 12 0 7 21 -8 37 -9 8 -14 18 -11 20 3 3
16 -7 29 -22 14 -17 26 -24 30 -18 4 6 -5 23 -19 38 -14 15 -23 29 -21 31 2 2
12 -5 22 -16 10 -11 22 -20 27 -20 15 0 8 23 -14 41 -11 11 -17 19 -11 19 6 0
32 -21 59 -47 27 -27 52 -47 56 -45 5 1 8 -2 8 -8 0 -15 33 -50 42 -44 4 3 8
0 8 -6 0 -15 29 -44 37 -37 3 4 -38 50 -91 103 -53 54 -96 102 -96 108 1 6 9
1 19 -11 18 -22 41 -31 41 -16 0 4 -10 17 -22 30 -12 13 -17 23 -12 23 5 0 17
-8 26 -17 53 -58 137 -132 142 -125 6 9 -28 42 -44 42 -6 0 -9 3 -8 8 2 4 -25
36 -60 71 -34 35 -62 68 -62 73 0 5 11 -3 24 -17 14 -15 30 -24 36 -20 8 5 -1
21 -27 48 -43 47 -12 24 55 -40 40 -40 62 -52 62 -37 0 4 -15 21 -32 38 -50
49 -92 96 -86 96 2 0 30 -25 62 -55 31 -30 59 -55 61 -55 14 0 1 26 -27 54
-18 18 -44 46 -58 62 l-25 29 25 -20 c13 -11 45 -42 71 -68 29 -29 50 -44 54
-37 4 6 -21 37 -54 70 -34 33 -58 60 -53 60 5 0 19 -11 32 -25 13 -14 27 -25
32 -25 18 0 6 23 -28 57 -20 19 -34 36 -32 38 2 2 28 -20 58 -50 30 -30 58
-54 63 -55 18 -1 3 25 -43 71 -27 27 -50 53 -50 57 0 6 75 -62 96 -87 8 -10
13 -11 18 -3 4 6 -11 28 -34 49 -22 21 -40 42 -40 48 0 5 18 -8 40 -30 58 -57
63 -33 5 25 -27 28 -46 50 -42 50 4 0 23 -16 41 -35 33 -34 56 -45 56 -26 0 5
-12 19 -26 30 -17 14 -21 21 -12 21 8 0 24 -11 34 -25 17 -22 44 -34 44 -19 0
3 -18 24 -40 46 -22 23 -40 46 -40 51 0 5 15 -7 34 -27 34 -35 56 -46 56 -27
0 5 -10 18 -22 28 -13 10 -34 32 -48 48 l-25 30 25 -20 c13 -11 45 -42 71 -68
27 -28 50 -44 54 -38 3 6 -28 45 -69 88 -42 42 -76 80 -76 84 0 5 34 -26 75
-67 42 -41 81 -72 86 -68 6 3 -18 34 -55 70 -36 35 -66 68 -66 73 0 5 38 -29
85 -75 47 -47 89 -82 95 -79 5 3 -24 39 -65 80 -41 41 -70 75 -64 75 6 0 31
-22 57 -50 25 -27 50 -50 54 -50 20 0 4 24 -52 80 -33 33 -60 64 -60 69 0 6
22 -12 49 -40 26 -27 51 -49 55 -49 11 0 6 28 -6 33 -10 4 -10 6 1 6 7 1 22
-10 33 -24 19 -25 38 -33 38 -17 0 5 -9 18 -20 30 -17 18 -18 22 -5 22 22 0
19 11 -18 50 -17 20 -41 47 -52 60 l-20 25 30 -25 c16 -14 33 -30 37 -36 4 -7
44 -47 88 -90 44 -44 80 -83 80 -88 0 -5 -11 1 -25 14 -14 13 -28 20 -32 17
-6 -7 26 -45 80 -95 9 -9 17 -21 17 -26 0 -5 -21 12 -46 37 -25 26 -50 47 -55
47 -18 0 -9 -18 24 -47 45 -40 112 -113 105 -113 -4 0 -14 7 -22 16 -9 8 -21
12 -27 8 -9 -5 -8 -10 2 -18 8 -7 25 -25 39 -40 l25 -29 -27 19 c-15 10 -28
22 -28 27 0 4 -7 7 -15 7 -24 0 -18 -12 25 -54 22 -21 40 -43 40 -48 0 -5 -11
2 -24 16 -21 24 -46 34 -46 20 0 -3 21 -26 46 -51 25 -25 43 -48 40 -51 -4 -3
-12 3 -20 13 -9 13 -15 15 -20 6 -5 -7 2 -21 16 -35 12 -12 37 -38 53 -57 24
-27 25 -30 4 -11 -55 48 -53 16 2 -40 23 -23 36 -44 30 -46 -20 -7 -12 -23 29
-64 22 -22 40 -43 40 -45 0 -7 -29 17 -57 46 -13 13 -26 22 -29 19 -9 -9 18
-46 43 -59 13 -7 23 -17 23 -22 0 -5 11 -20 25 -33 14 -13 25 -28 25 -35 0 -6
-9 0 -21 15 -20 26 -39 34 -39 17 0 -5 23 -32 50 -61 49 -51 66 -75 35 -50
-20 17 -32 5 -15 -15 8 -10 9 -15 2 -15 -14 0 -72 56 -72 70 0 11 -13 13 -23
4 -4 -4 13 -26 37 -49 34 -34 48 -42 69 -38 15 3 27 12 27 20 0 10 6 9 21 -6
16 -14 30 -18 50 -14 18 3 29 1 29 -6 0 -6 5 -11 11 -11 8 0 7 5 -1 15 -17 21
-6 30 13 10 17 -16 37 -20 37 -7 0 4 -6 14 -12 21 -11 10 -10 11 5 6 9 -4 17
-11 17 -16 0 -5 7 -9 15 -9 8 0 15 4 15 9 0 5 -7 14 -15 21 -8 7 -15 16 -15
21 0 4 15 -8 34 -26 31 -32 56 -45 56 -28 0 4 -19 28 -42 52 -24 25 -30 34
-14 21 17 -14 40 -36 52 -48 13 -13 28 -21 34 -17 7 4 0 17 -19 36 -33 31 -43
51 -14 28 9 -8 31 -29 49 -47 26 -26 37 -32 58 -26 32 8 33 18 1 50 -14 14
-25 28 -25 32 0 3 22 -15 48 -41 52 -51 62 -56 63 -29 0 10 3 12 6 5 7 -18 33
-16 33 2 0 13 4 12 22 -5 32 -30 56 -22 26 9 -11 10 -10 11 5 6 9 -4 17 -11
17 -15 0 -4 9 -10 21 -13 20 -5 20 -5 4 20 l-17 26 36 -28 c45 -34 60 -25 23
13 -15 16 -27 32 -27 36 0 4 16 -9 35 -30 24 -25 39 -34 46 -27 7 7 5 14 -6
23 -8 7 -15 16 -15 21 0 4 15 -8 34 -26 32 -34 56 -45 56 -26 0 5 -10 18 -22
28 -13 10 -32 30 -43 43 -11 14 4 3 32 -24 30 -28 56 -45 63 -41 7 4 1 17 -19
36 -17 16 -31 32 -31 36 0 7 38 -25 76 -65 13 -13 28 -21 34 -17 7 4 0 17 -19
36 -17 16 -31 32 -31 36 0 4 17 -10 38 -30 21 -20 41 -37 45 -37 15 0 6 22
-18 46 -14 14 -25 28 -25 32 0 3 22 -15 48 -41 45 -44 49 -46 82 -37 21 6 38
6 45 0 7 -5 44 -9 84 -7 52 2 70 -1 67 -10 -5 -13 15 -23 46 -23 72 0 218 -71
218 -106 0 -60 -208 -187 -490 -297 -139 -55 -462 -171 -620 -222 -63 -21
-191 -64 -285 -95 -93 -32 -206 -69 -250 -83 -44 -14 -165 -55 -270 -90 -866
-296 -1260 -501 -1385 -721 -39 -67 -46 -120 -26 -189 62 -214 363 -377 870
-473 211 -39 260 -30 260 51 0 60 -10 65 -224 105 -163 31 -351 80 -415 110
-11 5 -56 25 -99 45 -81 36 -165 93 -211 142 -58 63 -40 130 60 221 101 92
265 184 560 312 50 22 309 121 390 150 50 17 108 38 130 47 22 8 146 50 275
93 129 42 339 111 465 153 845 279 1202 433 1342 579 82 85 102 163 63 236
-27 50 -47 75 -57 69 -4 -3 -7 50 -6 116 1 73 -3 127 -9 134 -7 9 -7 17 0 26
12 16 13 158 1 174 -7 7 -6 14 1 18 13 8 13 68 -1 82 -8 8 -8 13 0 17 14 9 14
73 1 81 -7 4 -8 11 -2 18 13 16 13 159 1 174 -7 7 -6 14 1 18 13 8 13 72 0 80
-7 4 -8 11 -1 18 13 17 12 159 -2 176 -9 11 -9 15 0 18 17 6 17 65 1 81 -10
10 -10 15 1 21 10 6 12 21 8 50 -3 22 -2 55 2 74 6 23 4 36 -6 46 -8 7 -12 18
-10 25 3 8 -10 12 -44 11 -27 0 -49 -4 -49 -8 0 -5 -6 -5 -12 -1 -19 12 -88
13 -88 3 0 -6 -7 -6 -17 -1 -10 4 -52 6 -93 5 -41 -2 -79 -3 -85 -3 -5 0 -29
2 -53 3 -24 1 -46 -1 -48 -5 -3 -5 -11 -5 -17 -1 -18 12 -87 11 -80 0 4 -6 1
-7 -7 -2 -18 11 -90 12 -90 1 0 -5 -6 -3 -14 3 -9 8 -26 9 -54 3 -21 -5 -46
-6 -54 -1 -8 5 -30 4 -48 -1 -22 -6 -38 -6 -46 1 -9 7 -24 7 -50 0 -20 -6 -42
-7 -47 -4 -17 10 -86 9 -79 -1 3 -5 -3 -6 -14 -2 -32 12 -39 12 -36 -3 3 -12
0 -12 -12 -2 -19 16 -37 6 -29 -17 4 -9 -5 -5 -20 11 -24 27 -55 30 -41 4 5
-8 3 -8 -7 1 -18 16 -29 15 -29 -3 0 -8 4 -15 9 -15 5 0 12 -8 16 -17 3 -10
-11 -1 -32 20 -22 20 -42 37 -46 37 -15 0 -6 -22 18 -46 14 -14 25 -28 25 -31
0 -7 -30 17 -55 44 -11 13 -24 23 -28 23 -17 0 -4 -22 33 -57 22 -21 40 -42
40 -48 0 -5 -16 7 -36 28 -35 36 -54 46 -54 29 0 -5 11 -19 25 -32 14 -13 25
-27 25 -31 0 -5 -21 12 -47 36 -51 49 -63 54 -63 29 0 -14 -3 -14 -15 -4 -9 7
-18 10 -22 6 -4 -3 17 -30 45 -59 29 -29 52 -56 52 -59 0 -4 -32 24 -70 62
-64 63 -90 82 -90 64 0 -4 15 -21 33 -38 51 -51 91 -96 85 -96 -4 0 -36 29
-73 65 -59 59 -85 76 -85 59 0 -4 21 -28 48 -54 26 -26 58 -60 72 -76 l25 -29
-24 20 c-14 11 -44 39 -67 63 -40 40 -64 52 -64 33 0 -5 15 -21 33 -37 17 -16
41 -40 52 -54 l20 -25 -30 25 c-16 14 -50 47 -76 73 -28 29 -50 44 -54 37 -3
-5 20 -37 52 -69 32 -32 67 -69 78 -82 20 -24 19 -24 -9 1 -16 14 -51 46 -77
73 -26 26 -50 47 -53 47 -17 0 -1 -26 39 -66 25 -24 41 -44 35 -44 -6 0 -44
34 -84 75 -41 42 -77 71 -80 66 -4 -5 28 -44 70 -86 82 -82 99 -114 21 -40
-25 25 -49 45 -52 45 -16 0 -1 -26 33 -56 20 -18 31 -34 24 -34 -7 0 -15 7
-18 15 -8 20 -34 19 -34 0 0 -13 -4 -12 -22 5 -40 37 -52 22 -15 -19 l22 -24
-27 19 c-15 10 -28 22 -28 27 0 10 -30 9 -30 -1 0 -5 9 -17 20 -27 11 -10 18
-20 16 -23 -3 -2 -16 8 -30 23 -14 15 -30 24 -36 20 -6 -4 3 -20 25 -42 20
-20 33 -38 30 -42 -4 -3 -11 2 -16 12 -6 9 -14 17 -19 17 -17 0 -11 -23 12
-47 12 -13 19 -23 16 -23 -10 0 -279 272 -274 277 2 2 53 -46 114 -107 60 -62
113 -107 116 -101 4 5 -51 68 -121 139 -125 126 -129 129 -165 124 -25 -3 -35
-8 -31 -16 5 -8 3 -8 -8 1 -22 18 -665 18 -676 0 -36 -59 -125 -62 -188 -7
-11 9 -42 23 -70 30 -62 16 -167 22 -160 9 8 -12 -8 -12 -21 1 -6 6 -23 6 -47
-1 -20 -5 -43 -7 -50 -2 -21 13 -75 10 -70 -5 4 -8 0 -10 -11 -6 -9 3 -16 10
-16 14 0 4 -17 7 -39 7 -29 -2 -37 -5 -33 -17 4 -12 2 -12 -14 2 -20 17 -69
15 -80 -4 -3 -5 -13 -3 -23 6 -13 12 -25 13 -56 6 -21 -5 -44 -6 -49 -2 -6 3
-28 7 -48 7 -22 1 -33 -2 -25 -7 9 -6 8 -8 -3 -8 -9 0 -20 4 -26 10 -5 5 -24
6 -46 1 -20 -5 -40 -6 -43 -3 -9 9 -185 9 -179 0 3 -4 0 -8 -5 -8 -6 0 -11 4
-11 8 0 5 -20 8 -44 8 -27 -1 -40 -4 -33 -9 7 -5 4 -6 -8 -2 -27 10 -94 12
-88 3 2 -5 -3 -8 -11 -8 -9 0 -16 4 -16 8 0 5 -20 9 -45 9 -26 0 -42 -4 -38
-10 4 -6 1 -7 -8 -1 -8 5 -30 9 -50 9 -28 0 -35 -3 -31 -15 5 -13 4 -13 -12 0
-10 8 -36 15 -57 15 -22 1 -34 -2 -26 -7 9 -6 8 -8 -4 -8 -9 0 -19 3 -23 7
-10 10 -85 10 -79 1 7 -12 -12 -9 -24 3 -14 14 -36 2 -27 -13 4 -6 -3 -4 -17
5 -13 9 -28 17 -34 16 -5 0 -4 -3 3 -6z m1303 -136 c27 -28 50 -44 54 -37 3 5
-1 17 -9 26 -21 21 -20 30 1 13 34 -28 173 -172 173 -179 0 -4 -34 26 -75 66
-42 41 -78 74 -80 74 -15 0 -1 -27 28 -55 17 -18 41 -43 52 -56 20 -24 20 -24
-9 1 -17 14 -46 42 -67 63 -23 24 -40 34 -44 27 -3 -6 15 -32 42 -58 68 -68
96 -105 43 -57 -24 22 -54 50 -65 63 -11 12 -24 22 -28 22 -17 0 -4 -25 33
-61 22 -22 40 -42 40 -46 0 -8 -29 17 -79 70 -25 26 -49 47 -53 47 -15 0 -8
-17 19 -44 45 -46 19 -38 -30 9 -25 25 -49 45 -52 45 -12 0 -3 -20 20 -41 13
-13 25 -28 25 -34 0 -5 -18 8 -40 30 -22 21 -43 36 -46 32 -4 -4 -1 -13 6 -22
21 -25 -3 -17 -29 10 -23 25 -41 32 -41 18 0 -5 34 -41 75 -82 41 -41 75 -78
75 -83 0 -4 -15 7 -34 27 -32 33 -56 45 -56 28 0 -4 17 -24 37 -45 20 -21 34
-38 31 -38 -8 0 -228 218 -228 227 0 3 7 0 15 -7 22 -18 31 -4 12 18 -21 23
-22 39 -2 22 19 -16 34 -5 17 12 -7 7 -12 16 -12 20 0 8 52 -34 78 -64 9 -9
20 -14 25 -11 5 3 -1 15 -14 27 -13 11 -31 30 -39 41 -15 19 -15 19 12 2 15
-9 29 -13 33 -8 3 6 -3 14 -12 20 -10 5 -15 12 -12 16 4 3 14 -1 22 -10 9 -8
20 -15 26 -15 15 0 14 17 -1 23 -7 2 -10 8 -6 12 4 4 14 -2 24 -13 13 -16 21
-18 34 -9 14 8 23 5 43 -16 13 -15 27 -27 31 -27 16 0 3 26 -29 57 -19 19 -35
37 -35 40 0 7 33 -22 101 -90z m-37 -665 c-16 -4 -19 -18 -5 -26 5 -4 11 0 14
6 3 10 7 10 21 -1 10 -8 14 -21 11 -32 -4 -11 -2 -19 4 -19 6 0 11 7 11 16 0
14 3 14 15 4 9 -7 19 -9 23 -5 4 4 1 10 -5 12 -7 3 -13 9 -13 15 0 6 6 5 15
-2 9 -8 13 -21 9 -32 -3 -12 1 -27 12 -39 9 -10 12 -19 6 -19 -6 0 -12 6 -15
13 -2 6 -7 9 -11 5 -4 -3 0 -17 9 -31 14 -23 14 -25 0 -31 -10 -3 -31 5 -51
20 -37 28 -56 26 -33 -3 8 -9 -3 -4 -24 11 -39 30 -60 29 -36 -1 7 -10 -1 -5
-19 11 -24 22 -29 33 -21 42 8 10 7 18 -5 29 -20 21 -21 32 -1 15 24 -20 29
-5 10 27 l-17 28 25 -27 c27 -29 47 -36 47 -18 0 6 -7 13 -15 16 -8 4 -15 14
-14 23 0 10 2 11 6 4 7 -18 33 -16 33 2 0 13 2 14 14 3 12 -11 12 -13 0 -16z"/>
<path d="M1390 4974 c0 -4 11 -17 25 -30 14 -13 25 -29 25 -36 -1 -7 -50 -49
-111 -93 -133 -97 -231 -193 -282 -277 -45 -75 -57 -115 -58 -203 -2 -123 68
-216 198 -265 119 -44 358 -50 613 -15 263 37 837 168 1330 304 58 16 150 41
205 56 55 15 181 49 280 77 384 107 562 153 985 253 289 69 312 74 360 80 204
26 180 30 -199 33 l-374 2 -116 -29 c-147 -37 -343 -89 -536 -141 -82 -23
-181 -50 -220 -60 -38 -10 -92 -24 -120 -33 -27 -8 -102 -28 -165 -45 -111
-30 -137 -37 -300 -82 -637 -174 -1172 -279 -1425 -280 -189 0 -289 23 -340
80 -28 31 -26 102 5 165 48 98 249 267 450 378 l75 42 -37 3 c-33 3 -38 7 -38
27 0 22 -3 24 -30 19 -23 -5 -30 -3 -30 10 0 9 -4 16 -10 16 -5 0 -10 -7 -10
-16 0 -13 -3 -14 -14 -5 -10 8 -16 9 -21 1 -10 -16 -45 -12 -45 5 0 8 -4 15
-10 15 -5 0 -10 5 -10 11 0 6 -6 17 -14 25 -15 14 -36 19 -36 8z"/>
</g>
</svg>
