<?xml version="1.0" standalone="no"?>
<!DOCTYPE svg PUBLIC "-//W3C//DTD SVG 20010904//EN"
 "http://www.w3.org/TR/2001/REC-SVG-20010904/DTD/svg10.dtd">
<svg version="1.0" xmlns="http://www.w3.org/2000/svg"
 width="720.000000pt" height="1280.000000pt" viewBox="0 0 720.000000 1280.000000"
 preserveAspectRatio="xMidYMid meet">
<metadata>
Created by potrace 1.16, written by Peter Selinger 2001-2019
</metadata>
<g transform="translate(0.000000,1280.000000) scale(0.100000,-0.100000)"
fill="#000000" stroke="none">
<path d="M0 6400 l0 -6400 3600 0 3600 0 0 1025 0 1025 -612 2 -613 3 -13 180
c-13 186 -8 287 23 465 28 158 28 157 -2 184 -30 28 -61 42 -115 51 -22 3 -45
16 -57 30 -42 55 -56 26 -65 -135 -7 -136 -49 -409 -84 -540 -17 -67 -65 -165
-93 -192 -16 -15 -29 -32 -29 -38 0 -7 -165 -10 -490 -10 -532 0 -531 0 -452
52 20 14 49 47 63 74 14 27 35 54 46 59 32 16 15 35 -30 35 -75 0 -154 35
-249 110 l-28 21 7 -90 c6 -89 5 -91 -20 -117 -15 -14 -29 -43 -32 -63 -4 -20
-8 -46 -11 -58 l-4 -23 -490 0 c-429 0 -490 2 -490 15 0 10 -10 15 -30 15 -31
0 -37 14 -31 74 3 32 52 125 94 178 45 58 67 114 67 174 0 31 9 57 30 90 42
68 46 102 20 183 l-21 68 20 58 c27 76 27 80 -9 145 -55 99 -62 123 -81 275
-44 353 -69 485 -106 559 -20 41 -33 56 -48 56 -31 0 -46 14 -39 36 4 12 3 15
-3 7 -13 -18 -77 18 -81 45 -5 30 -24 34 -152 33 -96 -1 -117 -4 -125 -18 -21
-36 -81 -83 -113 -89 -25 -5 -37 -15 -51 -43 -24 -45 -46 -66 -96 -87 -81 -33
-137 -43 -220 -36 -118 11 -173 47 -258 171 -16 23 -33 39 -38 36 -5 -3 -6 0
-3 8 10 26 -18 37 -64 25 -23 -6 -42 -14 -42 -19 0 -5 -9 -9 -19 -9 -11 0 -22
-4 -25 -8 -2 -4 -22 -9 -43 -10 -21 -2 -39 -7 -41 -12 -2 -6 -12 -10 -23 -10
-10 0 -19 -4 -19 -10 0 -5 -11 -10 -25 -10 -14 0 -25 -4 -25 -10 0 -5 -6 -10
-13 -10 -7 0 -29 -19 -48 -41 -19 -23 -51 -59 -72 -80 -20 -21 -37 -43 -37
-49 0 -5 -9 -10 -20 -10 -14 0 -22 -10 -30 -39 -5 -21 -17 -45 -26 -52 -10 -8
-14 -22 -10 -41 3 -17 0 -33 -9 -42 -8 -8 -15 -22 -15 -30 0 -19 -20 -22 -21
-3 -1 6 -5 1 -9 -13 -7 -21 -8 -22 -10 -5 l-1 20 -9 -20 c-5 -11 -9 -39 -9
-63 -1 -26 -5 -41 -11 -37 -6 4 -10 -10 -10 -35 0 -25 4 -39 10 -35 5 3 10 13
10 21 0 8 4 14 9 14 5 0 13 17 19 38 9 33 10 29 11 -44 1 -77 -1 -86 -45 -174
-30 -61 -48 -89 -53 -81 -10 15 -21 -33 -21 -90 0 -21 -5 -41 -10 -44 -6 -3
-10 -20 -10 -36 0 -21 7 -32 24 -40 19 -9 25 -22 30 -60 8 -58 -4 -86 -41 -95
-20 -5 -31 -2 -44 14 -23 29 -26 28 -43 -13 -11 -27 -21 -35 -40 -35 -13 0
-26 -3 -28 -7 -1 -5 -19 -20 -39 -35 -20 -15 -39 -38 -43 -51 -3 -14 -14 -27
-25 -30 -11 -3 -20 -16 -23 -36 -7 -45 17 -209 40 -282 11 -35 22 -101 25
-147 l4 -82 -549 1 -548 0 0 3600 0 3599 3590 0 3590 0 0 1775 0 1775 -3600 0
-3600 0 0 -6400z m6786 3682 c159 -63 211 -265 105 -407 -25 -34 -27 -41 -14
-50 24 -18 0 -52 -48 -67 -33 -9 -47 -9 -72 2 -36 16 -116 15 -165 -1 -47 -15
-97 -4 -117 27 -13 20 -14 28 -4 40 10 12 8 19 -9 37 -37 39 -62 108 -62 171
0 78 16 128 58 176 79 93 205 120 328 72z m-643 2 c52 -18 116 -76 142 -130
60 -126 7 -282 -117 -344 -139 -69 -312 -20 -376 106 -42 84 -38 184 12 267
25 41 43 58 94 84 54 28 75 33 131 33 37 0 88 -7 114 -16z m-5806 -224 c52
-224 51 -200 11 -200 -31 0 -36 4 -41 30 -6 27 -11 30 -42 30 -19 0 -38 0 -42
1 -4 0 -11 -14 -16 -30 -7 -27 -12 -31 -41 -31 l-34 0 14 58 c7 31 26 110 41
175 l27 118 44 -3 45 -3 34 -145z m373 58 l1 -93 30 38 c23 27 39 37 60 37 16
0 29 -3 29 -6 0 -4 -16 -28 -35 -54 l-34 -47 28 -45 c56 -89 56 -88 17 -88
-30 0 -38 5 -57 40 -26 45 -39 43 -39 -6 0 -31 -2 -34 -30 -34 l-30 0 0 175 0
175 30 0 30 0 0 -92z m1740 -83 l0 -176 -42 1 c-24 1 -54 -1 -68 -5 -43 -11
-77 25 -85 88 -7 58 7 128 30 147 17 14 51 17 83 6 21 -7 22 -5 22 53 l0 61
30 0 30 0 0 -175z m452 83 l3 -92 25 37 c20 30 31 37 58 37 30 0 42 -12 24
-24 -5 -3 -21 -23 -36 -44 l-27 -40 40 -66 41 -66 -35 0 c-30 0 -39 6 -62 43
l-28 42 -3 -42 c-3 -42 -4 -43 -38 -43 l-34 0 0 168 c0 93 3 172 7 175 3 4 19
7 34 7 l28 0 3 -92z m728 27 l0 -66 30 16 c33 17 60 13 85 -11 11 -12 15 -40
15 -120 l0 -104 -30 0 -29 0 -3 92 c-3 83 -5 93 -22 96 -33 7 -46 -25 -46
-110 l0 -78 -30 0 -30 0 0 175 0 175 30 0 30 0 0 -65z m530 4 c0 -58 1 -60 23
-53 76 26 107 -8 107 -118 0 -71 -2 -81 -26 -105 -20 -20 -31 -24 -52 -18 -15
4 -46 6 -69 5 l-43 -1 0 176 0 175 30 0 30 0 0 -61z m-1480 -9 c0 -38 2 -40
30 -40 25 0 30 -4 30 -25 0 -21 -5 -25 -30 -25 l-31 0 3 -67 c3 -66 4 -68 31
-71 21 -3 27 -8 23 -19 -3 -8 -6 -19 -6 -24 0 -16 -73 -10 -92 8 -14 13 -18
31 -18 90 0 66 -2 75 -20 80 -13 3 -20 14 -20 29 0 17 6 24 20 24 17 0 20 7
20 40 0 38 2 40 30 40 28 0 30 -2 30 -40z m-2096 -61 c24 -23 34 -121 17 -172
-15 -44 -59 -66 -97 -48 -14 6 -27 11 -29 11 -3 0 -5 -30 -5 -66 l0 -65 -27 3
-28 3 -3 179 -2 179 37 -5 c21 -3 47 -2 58 3 26 10 55 2 79 -22z m402 21 c8 0
23 -9 34 -20 17 -17 20 -33 20 -121 l0 -101 -32 3 c-18 1 -48 -1 -66 -5 -50
-12 -82 13 -82 64 0 44 20 64 83 81 28 7 37 15 35 27 -5 26 -48 28 -55 3 -6
-25 -51 -29 -60 -5 -13 34 56 90 95 78 8 -2 20 -4 28 -4z m290 0 c39 -15 53
-39 54 -87 l0 -43 -61 0 c-60 0 -60 0 -57 -27 3 -32 44 -46 54 -19 4 10 18 16
35 16 35 0 39 -25 10 -61 -27 -34 -99 -34 -135 0 -23 22 -26 32 -26 96 0 79
20 120 63 128 12 2 25 5 29 6 4 0 19 -4 34 -9z m201 -1 c32 -12 43 -26 43 -56
0 -31 -45 -33 -53 -3 -7 26 -47 27 -47 1 0 -12 12 -23 33 -31 74 -30 97 -83
58 -131 -40 -50 -151 -22 -151 38 0 19 5 23 29 23 21 0 30 -6 34 -21 7 -25 40
-22 45 4 3 12 -9 23 -42 37 -76 32 -89 107 -23 135 39 17 39 17 74 4z m197 -3
c31 -13 53 -55 38 -71 -14 -14 -50 -3 -55 16 -4 13 -12 20 -24 17 -29 -5 -21
-32 15 -50 73 -36 92 -81 53 -129 -15 -19 -29 -24 -66 -24 -37 0 -51 5 -66 24
-29 36 -25 61 10 61 21 0 30 -6 34 -21 7 -25 40 -22 45 3 2 12 -11 24 -43 39
-74 35 -85 107 -21 135 39 17 40 17 80 0z m205 3 c17 -6 36 -19 41 -29 6 -10
10 -62 10 -115 l0 -97 -32 3 c-18 1 -48 -1 -66 -5 -50 -12 -82 13 -82 64 0 44
20 64 83 81 28 7 37 15 35 27 -5 25 -45 27 -58 3 -11 -22 -44 -28 -55 -10 -13
21 5 57 37 72 40 20 46 20 87 6z m319 -22 c16 -15 22 -32 22 -64 l0 -43 -61 0
c-60 0 -60 0 -57 -27 3 -32 44 -46 54 -19 9 23 64 21 64 -2 0 -69 -107 -94
-163 -37 -23 23 -24 151 -1 183 32 46 97 50 142 9z m1000 -3 c18 -21 22 -36
22 -98 0 -58 -4 -76 -20 -94 -43 -45 -130 -36 -157 18 -16 32 -17 121 -1 156
26 56 112 66 156 18z m240 8 c8 -10 12 -52 12 -119 l0 -103 -30 0 -30 0 0 90
c0 99 -12 119 -50 85 -17 -15 -20 -31 -20 -97 l0 -78 -30 0 -30 0 0 120 0 120
29 0 c16 0 31 -5 33 -11 2 -6 14 -5 33 5 33 17 63 13 83 -12z m530 -8 c15 -17
22 -38 22 -65 l0 -39 -61 0 c-60 0 -60 0 -57 -27 3 -32 44 -46 54 -19 4 10 18
16 35 16 35 0 40 -29 9 -60 -27 -27 -63 -34 -105 -20 -46 15 -55 34 -55 123 0
64 3 76 23 94 12 11 29 23 37 26 28 11 75 -3 98 -29z m539 12 c7 -6 13 -53 15
-116 l3 -105 -32 -3 -33 -3 0 91 c0 72 -3 92 -15 96 -33 13 -45 -15 -45 -102
l0 -84 -35 0 -35 0 0 120 0 120 35 0 c19 0 35 -4 35 -9 0 -6 12 -3 28 4 28 15
58 12 79 -9z m221 -12 c19 -22 22 -36 22 -120 l0 -95 -42 1 c-24 1 -54 -1 -68
-5 -35 -9 -80 27 -80 64 0 39 19 60 70 75 33 10 46 19 48 35 4 28 -31 29 -51
0 -22 -30 -63 -23 -59 11 10 70 109 91 160 34z m391 25 c36 -13 61 -53 61 -99
l0 -30 -59 0 c-65 0 -73 -5 -64 -38 6 -26 53 -32 53 -7 0 11 11 15 36 15 32 0
35 -2 29 -22 -13 -43 -42 -63 -90 -63 -64 0 -87 27 -93 105 -5 75 11 118 52
136 38 16 36 16 75 3z m204 -3 c15 -8 27 -11 27 -5 0 5 14 9 30 9 l30 0 0
-149 c0 -134 -2 -151 -20 -174 -41 -52 -147 -44 -170 13 -7 16 -9 34 -5 39 10
18 44 12 57 -9 26 -41 78 -15 78 40 0 17 -3 19 -19 10 -36 -19 -78 -12 -100
16 -16 21 -21 41 -21 90 0 72 13 107 44 122 29 14 37 14 69 -2z m285 -22 c19
-22 22 -36 22 -120 l0 -95 -42 1 c-24 1 -54 -1 -68 -5 -34 -9 -80 27 -80 61 0
42 17 62 70 79 37 12 50 22 50 36 0 26 -36 25 -50 -1 -11 -20 -54 -28 -64 -12
-10 16 29 76 54 84 40 11 83 0 108 -28z m-3048 -94 l0 -120 -35 0 -35 0 0 113
c0 63 3 117 7 120 3 4 19 7 35 7 l28 0 0 -120z m2280 63 c19 -91 25 -93 45
-14 17 70 18 71 50 71 l33 0 -24 -82 c-79 -281 -76 -273 -113 -276 -28 -3 -33
-1 -27 14 29 76 29 101 -4 209 -17 59 -34 113 -37 121 -4 10 4 14 29 14 34 0
35 -1 48 -57z m-1842 -6989 c12 -8 22 -21 22 -28 0 -7 14 -25 30 -41 36 -34
39 -71 9 -109 -31 -40 -35 -95 -10 -137 11 -18 21 -42 21 -52 0 -10 -22 -50
-50 -89 -27 -39 -47 -75 -44 -80 7 -11 -15 -58 -31 -70 -5 -4 -20 -8 -31 -8
-31 0 -37 -36 -11 -61 l22 -21 10 27 c11 32 38 39 123 33 91 -7 149 -37 169
-88 9 -21 24 -40 34 -43 33 -9 20 -26 -24 -32 -23 -4 -207 -3 -407 2 -356 8
-365 9 -365 28 0 17 8 21 50 25 l50 5 3 44 c4 49 19 76 42 76 14 0 17 13 9 45
-2 8 6 19 19 25 17 7 22 16 19 32 -3 16 3 27 19 38 35 23 44 19 44 -20 l0 -35
90 0 91 0 -21 22 c-25 27 -25 33 0 58 20 20 26 40 12 40 -4 0 -13 18 -19 40
-8 31 -7 46 3 66 18 34 17 82 -1 114 -8 14 -14 35 -15 48 0 41 78 162 105 162
6 0 21 -7 33 -16z"/>
<path d="M6613 9773 c-20 -4 -23 -11 -23 -51 l0 -47 85 0 85 0 0 46 c0 40 -3
48 -22 53 -25 6 -90 6 -125 -1z"/>
<path d="M4024 8047 c-11 -6 -26 -23 -33 -39 -7 -16 -22 -37 -33 -47 -16 -16
-18 -24 -9 -52 5 -19 10 -28 10 -21 1 6 10 12 21 12 11 0 20 5 20 10 0 6 -5
10 -12 10 -6 0 -9 2 -6 5 11 11 38 -8 38 -27 0 -17 5 -20 30 -14 17 3 30 1 30
-4 0 -5 11 2 25 16 20 20 26 37 28 77 1 33 -2 52 -10 54 -7 3 -13 11 -13 19 0
17 -53 17 -86 1z"/>
<path d="M2786 5004 c-3 -9 -6 -29 -6 -45 0 -23 -7 -34 -30 -47 -16 -9 -30
-20 -30 -24 0 -5 -10 -8 -22 -8 -13 0 -31 -7 -42 -15 -15 -12 -22 -12 -50 2
-18 8 -36 24 -42 35 -14 31 -143 102 -179 99 -65 -5 -145 -50 -145 -81 0 -5
-5 -10 -10 -10 -6 0 -13 -8 -17 -17 -3 -10 -14 -27 -23 -38 -9 -11 -25 -46
-35 -77 -10 -31 -22 -55 -27 -52 -4 3 -8 -1 -9 -8 0 -7 -5 -3 -11 10 -6 13
-19 21 -27 20 -13 -3 -17 -21 -19 -96 -2 -53 2 -100 8 -112 11 -21 12 -20 46
10 55 48 95 40 172 -33 23 -23 42 -36 42 -30 0 7 11 23 24 38 13 14 26 42 30
63 8 53 38 79 71 64 28 -13 24 -15 93 63 28 31 37 36 60 30 15 -3 29 -11 31
-17 2 -6 21 8 42 32 37 41 41 43 64 30 28 -15 55 -1 55 30 0 23 31 50 58 50
14 0 33 -19 61 -62 35 -54 41 -59 41 -37 0 15 7 32 15 39 20 17 19 20 -15 71
-16 24 -30 53 -30 65 0 15 -15 28 -54 47 -63 31 -81 33 -90 11z"/>
<path d="M4858 4876 c-10 -7 -18 -18 -18 -23 0 -6 -45 -16 -100 -23 -101 -13
-117 -21 -150 -69 -9 -12 -25 -21 -41 -21 -26 0 -39 -15 -39 -46 0 -9 11 -14
30 -14 43 0 70 -31 70 -79 0 -22 5 -43 10 -46 6 -3 10 -14 10 -23 0 -10 8 -33
19 -52 15 -29 24 -34 49 -34 17 1 29 -3 26 -8 -7 -12 46 -58 69 -59 9 -1 23
-2 30 -3 6 0 26 -22 42 -48 17 -26 33 -47 37 -47 4 -1 29 13 55 29 67 43 111
41 152 -5 35 -40 38 -68 17 -138 -8 -26 -11 -47 -7 -47 17 0 51 33 51 50 0 41
22 70 52 70 49 0 61 -22 62 -113 1 -65 5 -85 19 -98 21 -20 21 -39 3 -100 -14
-45 -13 -48 7 -67 12 -10 27 -22 34 -26 13 -7 73 84 73 112 0 31 26 92 45 106
18 13 18 18 6 67 -7 30 -20 65 -29 79 -8 13 -18 38 -21 54 -8 35 -58 77 -70
58 -6 -9 -15 -10 -39 -1 -18 6 -32 15 -32 19 0 16 -72 80 -89 80 -26 0 -61 29
-61 50 0 10 -5 20 -11 22 -8 3 -5 17 9 43 24 47 69 90 75 72 2 -7 6 17 8 52 4
59 1 69 -25 105 -43 63 -106 114 -153 125 -58 15 -154 13 -175 -3z"/>
<path d="M675 4460 c-8 -13 -72 -40 -95 -40 -25 0 -44 -51 -35 -97 5 -29 21
-52 72 -100 58 -56 65 -66 58 -90 -6 -26 -13 -67 -30 -190 -6 -37 -4 -53 4
-53 6 0 11 10 11 23 1 12 7 33 15 47 8 14 14 45 15 70 0 25 7 58 15 74 8 15
15 35 15 42 0 8 4 14 10 14 14 0 33 41 23 50 -4 5 -15 10 -23 12 -38 8 -53
127 -25 195 8 19 15 39 15 44 0 12 -37 11 -45 -1z"/>
<path d="M605 3840 c-26 -38 -27 -44 -21 -113 13 -150 17 -167 37 -167 17 0
19 8 19 70 0 73 28 156 56 167 11 4 10 11 -3 36 -30 60 -51 61 -88 7z"/>
</g>
</svg>
