<?xml version="1.0" standalone="no"?>
<!DOCTYPE svg PUBLIC "-//W3C//DTD SVG 20010904//EN"
 "http://www.w3.org/TR/2001/REC-SVG-20010904/DTD/svg10.dtd">
<svg version="1.0" xmlns="http://www.w3.org/2000/svg"
 width="720.000000pt" height="1280.000000pt" viewBox="0 0 720.000000 1280.000000"
 preserveAspectRatio="xMidYMid meet">
<metadata>
Created by potrace 1.16, written by Peter Selinger 2001-2019
</metadata>
<g transform="translate(0.000000,1280.000000) scale(0.100000,-0.100000)"
fill="#000000" stroke="none">
<path d="M0 6400 l0 -6400 3600 0 3600 0 0 1025 0 1025 -1407 0 c-775 0 -2390
0 -3590 0 l-2183 0 0 3600 0 3600 3590 0 3590 0 0 1775 0 1775 -3600 0 -3600
0 0 -6400z m6796 3680 c151 -69 198 -267 95 -405 -25 -34 -27 -41 -14 -50 14
-10 14 -14 -2 -38 -22 -35 -90 -46 -136 -23 -33 16 -80 14 -147 -6 -47 -14
-99 -2 -118 28 -13 20 -14 27 -4 39 11 13 9 19 -8 38 -85 90 -82 268 6 360 77
81 220 106 328 57z m-653 4 c29 -10 64 -34 92 -62 124 -125 89 -333 -68 -412
-133 -66 -310 -20 -370 96 -47 91 -44 191 7 276 25 43 43 59 94 85 54 28 75
33 131 33 37 0 88 -7 114 -16z m-5802 -244 c21 -91 39 -168 39 -172 0 -5 -15
-8 -33 -8 -28 0 -34 4 -42 32 -9 29 -14 32 -50 31 -36 0 -40 -3 -47 -31 -8
-28 -13 -32 -42 -32 l-34 0 14 58 c7 31 26 110 41 175 l27 118 44 -3 45 -3 38
-165z m369 78 l1 -93 30 38 c23 27 39 37 60 37 16 0 29 -3 29 -6 0 -4 -16 -28
-35 -53 -30 -41 -33 -50 -21 -67 7 -10 25 -40 40 -66 l27 -48 -35 0 c-30 0
-38 5 -57 40 -26 45 -39 43 -39 -6 0 -31 -2 -34 -30 -34 l-30 0 0 175 0 175
30 0 30 0 0 -92z m1740 -83 l0 -176 -42 1 c-24 1 -55 -1 -69 -5 -19 -5 -33 -1
-55 18 -28 24 -29 29 -28 107 1 68 4 85 21 102 22 21 54 27 91 14 21 -7 22 -5
22 53 l0 61 30 0 30 0 0 -175z m452 83 l3 -92 25 37 c20 30 31 37 58 37 30 0
42 -12 24 -24 -5 -3 -21 -23 -36 -44 l-27 -40 40 -66 41 -66 -34 0 c-28 0 -38
7 -62 43 l-29 42 -3 -42 c-3 -42 -4 -43 -38 -43 l-34 0 0 175 0 175 35 0 34 0
3 -92z m728 27 l0 -66 30 16 c33 17 60 13 85 -11 11 -12 15 -40 15 -120 l0
-104 -30 0 -30 0 0 90 c0 75 -3 92 -16 97 -37 14 -49 -10 -52 -101 l-3 -86
-29 0 -30 0 0 175 0 175 30 0 30 0 0 -65z m530 4 c0 -58 1 -60 23 -53 76 26
107 -8 107 -118 0 -71 -2 -81 -26 -105 -20 -20 -31 -24 -52 -18 -15 4 -46 6
-69 5 l-43 -1 0 176 0 175 30 0 30 0 0 -61z m-1480 -9 c0 -38 2 -40 30 -40 25
0 30 -4 30 -25 0 -21 -5 -25 -30 -25 l-31 0 3 -67 c3 -66 4 -68 31 -71 21 -3
27 -8 23 -19 -3 -8 -6 -19 -6 -24 0 -16 -73 -10 -92 8 -14 13 -18 31 -18 90 0
66 -2 75 -20 80 -13 3 -20 14 -20 29 0 17 6 24 20 24 16 0 20 7 20 33 0 40 6
47 37 47 20 0 23 -5 23 -40z m-2096 -61 c24 -23 34 -121 17 -172 -15 -44 -59
-66 -97 -48 -14 6 -27 11 -29 11 -3 0 -5 -30 -5 -66 l0 -65 -27 3 -28 3 -3
179 -2 179 37 -5 c21 -3 47 -2 58 3 26 10 55 2 79 -22z m405 20 c44 -16 51
-35 51 -143 l0 -96 -47 -1 c-27 0 -60 -1 -75 -1 -40 -1 -58 19 -58 63 0 43 20
63 83 80 28 7 37 15 35 27 -5 26 -48 28 -55 3 -4 -14 -13 -21 -29 -21 -65 0
-15 96 52 99 6 1 25 -4 43 -10z m290 0 c38 -14 51 -35 51 -88 l0 -41 -61 0
c-60 0 -60 0 -57 -27 3 -32 44 -46 54 -19 4 10 18 16 35 16 35 0 39 -25 10
-61 -15 -19 -29 -24 -66 -24 -39 0 -51 5 -71 28 -20 24 -24 39 -24 96 0 75 21
116 63 124 12 2 25 5 28 6 3 0 20 -4 38 -10z m198 0 c32 -12 43 -26 43 -56 0
-31 -45 -33 -53 -3 -7 26 -47 27 -47 1 0 -11 12 -23 30 -31 78 -32 101 -82 61
-131 -15 -19 -29 -24 -66 -24 -37 0 -51 5 -66 24 -29 36 -25 61 11 61 24 0 30
-4 30 -21 0 -15 5 -20 22 -17 40 5 31 32 -19 58 -91 48 -80 135 19 149 4 1 19
-4 35 -10z m191 0 c29 -10 59 -59 45 -73 -15 -15 -51 -5 -56 15 -4 13 -12 20
-24 17 -29 -5 -21 -32 15 -50 73 -36 92 -81 53 -129 -15 -19 -29 -24 -66 -24
-37 0 -51 5 -66 24 -29 36 -25 61 10 61 21 0 30 -6 34 -21 7 -25 40 -22 45 3
2 12 -11 24 -43 39 -74 35 -86 106 -22 134 39 17 37 17 75 4z m211 0 c17 -6
36 -19 41 -29 6 -10 10 -62 10 -115 l0 -97 -32 3 c-18 1 -48 -1 -66 -5 -50
-12 -82 13 -82 64 0 44 20 64 83 81 28 7 37 15 35 27 -5 25 -45 27 -58 3 -13
-24 -48 -28 -56 -6 -8 20 21 64 49 75 30 12 39 12 76 -1z m318 -21 c17 -16 23
-33 23 -65 l0 -43 -61 0 c-60 0 -60 0 -57 -27 3 -32 44 -46 54 -19 8 20 64 22
64 2 0 -69 -102 -98 -158 -45 -19 17 -22 31 -22 98 0 68 3 80 23 98 12 11 29
23 37 26 25 10 73 -2 97 -25z m1001 -4 c18 -21 22 -36 22 -98 0 -65 -3 -75
-26 -97 -35 -33 -104 -34 -136 -2 -27 28 -37 127 -17 174 24 60 111 73 157 23z
m240 8 c8 -10 12 -52 12 -119 l0 -103 -30 0 -30 0 0 90 c0 75 -3 92 -17 97
-32 12 -53 -32 -53 -113 l0 -74 -30 0 -30 0 0 120 0 120 29 0 c16 0 31 -5 33
-11 2 -6 14 -5 33 5 33 17 63 13 83 -12z m529 -4 c17 -16 23 -33 23 -65 l0
-43 -61 0 c-60 0 -60 0 -57 -27 3 -32 44 -46 54 -19 4 10 18 16 35 16 22 0 29
-5 29 -20 0 -42 -64 -79 -115 -66 -52 13 -65 39 -65 124 0 69 3 81 23 99 12
11 29 23 37 26 25 10 73 -2 97 -25z m540 8 c6 -6 13 -57 16 -118 l5 -108 -34
0 -34 0 0 90 c0 72 -3 92 -15 96 -33 13 -45 -15 -45 -102 l0 -84 -35 0 -35 0
0 120 0 120 35 0 c19 0 35 -4 35 -9 0 -6 12 -3 28 4 28 15 58 12 79 -9z m218
-7 c17 -16 21 -35 23 -120 l4 -100 -44 1 c-23 1 -54 -1 -68 -5 -35 -9 -80 27
-80 64 0 39 19 60 70 75 33 10 46 19 48 35 4 28 -33 29 -50 1 -12 -19 -48 -27
-60 -14 -15 14 11 60 43 77 40 20 84 15 114 -14z m400 16 c37 -15 55 -46 55
-96 0 -29 0 -29 -59 -29 -65 0 -73 -5 -64 -38 6 -26 53 -32 53 -7 0 11 11 15
36 15 32 0 35 -2 29 -22 -4 -13 -18 -34 -33 -47 -21 -19 -33 -22 -65 -18 -59
8 -80 35 -85 107 -5 75 11 118 52 136 39 17 40 17 81 -1z m198 1 c15 -8 27
-11 27 -5 0 5 14 9 31 9 l30 0 -3 -154 c-3 -134 -5 -157 -22 -175 -42 -46
-144 -35 -166 19 -7 16 -9 34 -5 39 10 18 44 12 57 -9 27 -42 78 -15 78 41 0
18 -3 20 -12 11 -7 -7 -29 -12 -49 -12 -56 0 -79 34 -79 116 0 72 13 107 44
122 29 14 37 14 69 -2z m285 -22 c19 -22 22 -36 22 -120 l0 -95 -42 1 c-24 1
-55 -1 -70 -5 -21 -6 -32 -2 -52 18 -48 48 -29 99 44 121 33 10 46 19 48 35 4
28 -33 29 -50 1 -12 -19 -48 -27 -60 -14 -15 14 11 60 43 77 43 22 86 16 117
-19z m-3048 -94 l0 -120 -35 0 -35 0 0 113 c0 63 3 117 7 120 3 4 19 7 35 7
l28 0 0 -120z m2271 103 c0 -10 8 -43 18 -73 l17 -55 19 73 c18 70 20 72 51
72 l32 0 -24 -82 c-79 -281 -76 -273 -113 -276 -28 -3 -33 -1 -27 14 29 76 29
101 -4 209 -17 59 -34 113 -37 121 -4 10 4 14 31 14 27 0 36 -4 37 -17z"/>
<path d="M6613 9773 c-20 -4 -23 -11 -23 -51 l0 -47 85 0 85 0 0 46 c0 40 -3
48 -22 53 -25 6 -90 6 -125 -1z"/>
<path d="M6615 8909 c-136 -49 -368 -132 -585 -209 -477 -168 -673 -239 -681
-247 -8 -8 20 -113 61 -228 11 -33 29 -87 39 -120 10 -34 28 -88 39 -120 12
-33 43 -132 71 -220 180 -578 168 -545 185 -545 7 0 52 13 101 29 50 16 151
47 225 70 131 41 178 56 440 141 69 22 130 40 136 40 5 0 73 20 149 45 77 25
156 45 175 45 23 0 30 3 22 9 -10 6 -8 10 10 14 12 3 41 12 63 20 l40 15 -1
254 c-1 212 -4 258 -18 283 -9 17 -16 35 -16 41 0 35 -101 11 -470 -112 -185
-62 -317 -104 -326 -104 -12 0 -44 89 -44 122 0 11 -5 28 -11 39 -6 11 -12 28
-14 37 -2 9 -10 38 -18 63 l-14 46 46 12 c64 17 418 126 456 141 37 15 80 28
128 41 27 6 51 18 54 26 3 8 0 33 -8 56 -7 23 -14 46 -14 52 0 17 -99 305
-105 304 -3 0 -54 -18 -115 -40z"/>
<path d="M4830 8273 c-85 -30 -225 -80 -310 -110 -85 -30 -209 -74 -275 -98
-66 -23 -205 -73 -310 -110 -104 -37 -224 -80 -266 -96 -85 -33 -85 -33 -49
-114 11 -22 22 -57 25 -77 5 -27 12 -38 24 -38 14 0 410 140 553 195 l37 14
76 -89 c48 -58 71 -92 63 -95 -7 -3 -159 -55 -338 -115 -179 -61 -329 -115
-334 -120 -6 -6 -5 -15 2 -22 6 -8 16 -36 22 -62 6 -27 19 -67 29 -90 18 -39
163 -490 177 -549 3 -15 10 -30 15 -33 9 -5 156 39 789 241 96 31 270 86 385
122 116 36 235 74 265 83 30 10 56 22 58 28 2 6 -22 86 -52 179 -30 92 -69
214 -86 271 -24 76 -36 102 -48 102 -9 0 -64 -15 -122 -34 -58 -19 -199 -64
-315 -100 -115 -37 -237 -76 -271 -86 -33 -11 -63 -20 -66 -20 -4 0 -21 46
-38 103 -18 56 -35 107 -40 112 -4 6 -10 29 -13 52 l-5 42 201 65 c111 35 263
83 337 106 74 23 138 44 141 46 7 4 -30 149 -49 195 -6 15 -14 44 -17 65 -8
47 -25 94 -34 93 -3 0 -76 -25 -161 -56z"/>
<path d="M3110 7660 c-61 -19 -1292 -460 -1302 -466 -7 -4 -5 -10 5 -15 27
-16 198 -47 322 -59 l120 -13 240 88 c132 48 287 104 345 125 207 75 456 168
495 184 l40 17 -40 34 c-22 19 -48 37 -57 40 -10 4 -18 11 -18 16 0 5 -6 9
-14 9 -7 0 -19 7 -26 15 -7 8 -16 12 -22 9 -5 -3 -20 1 -33 10 -13 9 -26 16
-27 15 -2 0 -14 -4 -28 -9z"/>
<path d="M3315 7290 c-77 -27 -249 -86 -382 -131 -134 -44 -243 -85 -243 -90
0 -5 5 -9 11 -9 18 0 68 -56 75 -85 16 -62 -35 -126 -117 -145 -80 -19 -151
15 -189 91 -23 44 -46 49 -115 25 -22 -8 -101 -34 -175 -57 -74 -22 -166 -51
-205 -64 -38 -12 -121 -37 -182 -55 -62 -18 -113 -37 -113 -42 0 -4 5 -8 10
-8 6 0 10 -7 10 -15 0 -19 37 -94 56 -113 8 -7 14 -20 14 -28 0 -8 4 -14 9
-14 5 0 18 -14 29 -32 11 -17 48 -60 83 -95 86 -86 243 -167 367 -188 l41 -7
3 126 3 125 491 3 491 3 53 55 c51 54 85 100 124 170 40 73 46 86 46 106 0 11
4 24 9 30 27 29 40 228 21 320 -36 175 -33 169 -60 171 -14 1 -88 -20 -165
-47z"/>
<path d="M3545 5806 c-60 -27 -95 -85 -97 -161 -2 -142 182 -225 285 -129 94
87 77 232 -35 290 -34 18 -113 17 -153 0z"/>
<path d="M2355 5222 c-181 -12 -412 -104 -516 -205 -51 -50 -139 -182 -139
-210 0 -7 -9 -41 -20 -76 -11 -35 -18 -66 -15 -69 5 -5 748 -132 773 -132 6 0
12 7 12 16 0 27 65 84 96 84 49 0 113 -38 134 -81 11 -21 20 -45 20 -54 0 -8
4 -15 8 -15 16 0 237 -41 272 -50 26 -7 36 -16 37 -31 1 -12 4 -23 7 -26 14
-14 396 -93 450 -93 23 0 31 115 16 239 -7 58 -16 111 -20 116 -4 6 -15 34
-26 63 -38 109 -210 289 -347 363 l-62 34 -185 5 -185 5 -3 47 c-3 41 -6 47
-30 53 -33 9 -222 21 -277 17z"/>
<path d="M3885 4928 c-2 -13 -12 -66 -20 -118 -45 -269 -47 -283 -105 -580
-31 -160 -42 -241 -36 -248 6 -5 1419 -302 1443 -302 11 0 21 44 26 120 2 34
2 34 -48 42 -27 4 -126 21 -220 38 -93 16 -228 40 -300 51 -71 12 -134 25
-138 29 -5 4 -1 47 8 96 9 49 19 109 22 133 l6 43 66 -7 c36 -4 84 -11 106
-15 23 -5 135 -25 250 -45 116 -20 242 -42 282 -50 123 -25 118 -28 136 73 50
269 78 444 75 469 -3 27 -5 28 -103 44 -55 9 -167 29 -250 43 -82 15 -240 42
-350 61 -110 19 -263 46 -340 59 -203 36 -496 86 -500 86 -3 0 -7 -10 -10 -22z"/>
<path d="M5716 4622 c-5 -8 -26 -123 -86 -476 -50 -296 -60 -350 -65 -367 -13
-42 -31 -170 -25 -174 8 -5 344 -78 460 -100 115 -21 502 -102 625 -130 109
-25 356 -75 369 -75 4 0 6 6 5 13 -4 18 23 160 32 172 21 29 1 33 -511 120
-85 14 -168 29 -184 32 -27 5 -28 7 -22 47 3 22 11 78 17 123 7 46 17 89 23
97 12 16 92 4 376 -54 143 -28 363 -61 369 -54 8 8 14 531 6 570 -5 28 -10 33
-43 37 -20 3 -73 12 -117 21 -44 9 -141 25 -215 37 -121 19 -411 68 -790 134
-190 34 -218 37 -224 27z"/>
<path d="M1643 4478 c2 -41 7 -64 17 -69 8 -5 71 -20 140 -33 69 -14 222 -45
340 -70 537 -112 712 -147 716 -144 2 2 -27 22 -64 43 -37 21 -110 67 -162
101 l-95 62 -310 61 c-445 87 -568 111 -577 111 -4 0 -6 -28 -5 -62z"/>
</g>
</svg>
