<?xml version="1.0" standalone="no"?>
<!DOCTYPE svg PUBLIC "-//W3C//DTD SVG 20010904//EN"
 "http://www.w3.org/TR/2001/REC-SVG-20010904/DTD/svg10.dtd">
<svg version="1.0" xmlns="http://www.w3.org/2000/svg"
 width="720.000000pt" height="1280.000000pt" viewBox="0 0 720.000000 1280.000000"
 preserveAspectRatio="xMidYMid meet">
<metadata>
Created by potrace 1.16, written by Peter Selinger 2001-2019
</metadata>
<g transform="translate(0.000000,1280.000000) scale(0.100000,-0.100000)"
fill="#000000" stroke="none">
<path d="M0 6400 l0 -6400 3600 0 3600 0 0 1025 0 1025 -3590 0 -3590 0 0
3600 0 3600 3590 0 3590 0 0 1775 0 1775 -3600 0 -3600 0 0 -6400z m6730 3699
c64 -14 102 -34 140 -71 94 -96 103 -243 21 -353 -25 -34 -27 -41 -14 -50 13
-10 13 -15 2 -33 -26 -42 -91 -54 -143 -27 -24 13 -38 13 -90 3 -108 -20 -145
-17 -172 17 -22 28 -23 31 -7 42 15 12 15 15 -5 35 -55 60 -78 178 -50 269 23
77 103 146 195 168 51 12 70 12 123 0z m-563 -22 c112 -59 170 -203 129 -320
-41 -113 -135 -177 -261 -177 -176 0 -294 136 -267 306 16 95 64 156 157 197
52 22 194 19 242 -6z m-5858 -104 c15 -56 71 -300 71 -307 0 -3 -16 -6 -35 -6
-30 0 -35 3 -35 24 0 31 -13 39 -59 39 -31 0 -36 -3 -43 -31 -8 -28 -13 -32
-42 -32 l-34 0 14 58 c7 31 25 110 40 175 l28 117 42 0 c41 0 44 -2 53 -37z
m401 -55 l1 -93 30 38 c23 27 39 37 60 37 16 0 29 -3 29 -6 0 -4 -16 -27 -35
-53 l-34 -47 21 -35 c11 -19 29 -49 40 -66 l20 -33 -36 0 c-30 0 -38 5 -57 40
-26 45 -39 43 -39 -6 0 -31 -2 -34 -30 -34 l-30 0 0 175 0 175 30 0 30 0 0
-92z m1740 -83 l0 -176 -42 1 c-24 1 -55 -1 -69 -5 -19 -5 -33 -1 -55 18 -28
24 -29 29 -28 107 1 68 4 85 21 102 22 21 54 27 91 14 21 -7 22 -5 22 53 l0
61 30 0 30 0 0 -175z m452 83 l3 -92 25 37 c20 30 31 37 58 37 30 0 42 -12 24
-24 -5 -3 -21 -23 -36 -44 l-27 -40 41 -66 41 -67 -38 3 c-32 3 -41 9 -58 40
-26 49 -35 48 -35 -2 0 -39 -1 -40 -35 -40 l-35 0 0 175 0 175 35 0 34 0 3
-92z m728 27 l0 -66 30 16 c33 17 60 13 85 -11 11 -12 15 -40 15 -120 l0 -104
-30 0 -30 0 0 90 c0 75 -3 92 -16 97 -37 14 -49 -10 -52 -101 l-3 -86 -29 0
-30 0 0 175 0 175 30 0 30 0 0 -65z m530 4 c0 -58 1 -60 23 -53 76 26 107 -8
107 -118 0 -71 -2 -81 -26 -105 -20 -20 -31 -24 -52 -18 -15 4 -46 6 -69 5
l-43 -1 0 176 0 175 30 0 30 0 0 -61z m-1480 -9 c0 -38 2 -40 30 -40 25 0 30
-4 30 -25 0 -21 -5 -25 -30 -25 l-31 0 3 -67 c3 -66 4 -68 31 -71 21 -3 27 -8
23 -19 -3 -8 -6 -19 -6 -24 0 -16 -73 -10 -92 8 -14 13 -18 31 -18 90 0 66 -2
75 -20 80 -13 3 -20 14 -20 29 0 17 6 24 20 24 17 0 20 7 20 40 0 38 2 40 30
40 28 0 30 -2 30 -40z m-2095 -61 c17 -16 20 -33 20 -100 0 -77 -1 -82 -29
-106 -28 -24 -47 -26 -88 -8 -16 6 -18 0 -18 -59 l0 -66 -30 0 -30 0 0 181 0
182 38 -5 c20 -3 46 -2 57 3 26 10 55 2 80 -22z m438 -1 c14 -16 17 -39 17
-120 l0 -100 -32 3 c-18 1 -48 -1 -66 -5 -50 -12 -82 13 -82 64 0 44 20 64 83
81 28 7 37 15 35 27 -5 26 -48 28 -55 3 -6 -25 -51 -29 -60 -5 -8 21 27 67 58
75 36 11 82 0 102 -23z m253 22 c39 -15 53 -39 54 -87 l0 -43 -61 0 c-60 0
-60 0 -57 -27 3 -32 44 -46 54 -19 9 23 64 21 64 -2 0 -51 -67 -84 -124 -62
-45 17 -55 38 -56 116 0 78 20 119 63 127 12 2 25 5 29 6 4 0 19 -4 34 -9z
m201 -1 c32 -12 43 -26 43 -56 0 -31 -45 -33 -53 -3 -7 26 -47 27 -47 1 0 -12
12 -23 33 -31 74 -30 97 -83 58 -131 -40 -50 -151 -22 -151 38 0 19 5 23 30
23 24 0 30 -4 30 -21 0 -15 5 -20 22 -17 41 6 32 33 -19 59 -91 46 -80 134 19
148 4 1 19 -4 35 -10z m197 -3 c31 -13 53 -55 38 -71 -14 -14 -50 -3 -55 16
-4 13 -12 20 -24 17 -29 -5 -21 -32 15 -50 73 -36 92 -81 53 -129 -15 -19 -29
-24 -66 -24 -37 0 -51 5 -66 24 -29 36 -25 61 10 61 21 0 30 -6 34 -21 7 -25
40 -22 45 3 2 12 -11 24 -43 39 -74 35 -85 107 -21 135 39 17 40 17 80 0z
m205 3 c17 -6 36 -19 41 -29 6 -10 10 -62 10 -115 l0 -96 -37 1 c-21 1 -50 -2
-65 -6 -45 -10 -78 18 -78 66 0 44 20 64 83 81 28 7 37 15 35 27 -5 25 -45 27
-58 3 -6 -13 -21 -21 -35 -21 -62 0 -3 95 61 99 6 1 25 -4 43 -10z m318 -21
c17 -16 23 -33 23 -65 l0 -43 -61 0 c-60 0 -60 0 -57 -27 3 -32 44 -46 54 -19
8 20 64 22 64 2 0 -69 -102 -98 -158 -45 -19 17 -22 31 -22 98 0 68 3 80 23
98 12 11 29 23 37 26 25 10 73 -2 97 -25z m1001 -4 c18 -21 22 -36 22 -98 0
-77 -15 -107 -61 -121 -31 -10 -84 3 -105 26 -23 26 -31 127 -13 170 24 60
111 73 157 23z m240 8 c8 -10 12 -52 12 -119 l0 -103 -30 0 -30 0 0 90 c0 75
-3 92 -17 97 -32 12 -53 -32 -53 -113 l0 -74 -30 0 -30 0 0 120 0 120 29 0
c16 0 31 -5 33 -11 2 -6 14 -5 33 5 33 17 63 13 83 -12z m529 -4 c17 -16 23
-33 23 -65 l0 -43 -61 0 c-60 0 -60 0 -57 -27 3 -32 44 -46 54 -19 4 10 18 16
35 16 22 0 29 -5 29 -20 0 -42 -64 -79 -115 -66 -52 13 -65 39 -65 124 0 69 3
81 23 99 12 11 29 23 37 26 25 10 73 -2 97 -25z m539 8 c7 -6 15 -59 19 -118
l7 -108 -36 0 -36 0 0 90 c0 72 -3 92 -15 96 -33 13 -45 -15 -45 -102 l0 -84
-35 0 -35 0 0 120 0 120 35 0 c19 0 35 -4 35 -9 0 -6 12 -3 28 4 28 15 58 12
78 -9z m219 -7 c17 -16 21 -36 23 -120 l4 -100 -44 1 c-23 1 -54 -1 -68 -5
-35 -9 -80 27 -80 64 0 39 19 60 70 75 33 10 46 19 48 35 3 17 -2 21 -22 21
-16 0 -27 -7 -31 -20 -4 -12 -15 -20 -29 -20 -32 0 -36 7 -24 42 20 56 108 72
153 27z m394 20 c36 -13 61 -53 61 -99 l0 -30 -59 0 c-65 0 -73 -5 -64 -38 6
-26 53 -32 53 -7 0 11 11 15 36 15 32 0 35 -2 29 -22 -4 -13 -18 -34 -33 -47
-21 -19 -33 -22 -65 -18 -59 8 -80 35 -85 107 -5 75 11 118 52 136 38 16 36
16 75 3z m204 -3 c15 -8 27 -11 27 -5 0 5 14 9 31 9 l30 0 -3 -155 c-3 -145
-4 -156 -26 -177 -17 -18 -34 -23 -73 -23 -43 0 -54 4 -75 29 -14 15 -24 36
-22 45 5 25 45 26 60 2 26 -42 78 -16 78 39 0 17 -3 19 -19 10 -36 -19 -78
-12 -100 16 -17 21 -21 41 -21 93 0 92 16 118 80 130 3 0 17 -6 33 -13z m282
-17 c17 -16 21 -35 23 -120 l4 -100 -44 1 c-23 1 -54 -1 -68 -5 -35 -9 -80 27
-80 64 0 39 19 60 70 75 33 10 46 19 48 35 4 28 -33 29 -50 1 -12 -19 -48 -27
-60 -14 -15 14 11 60 43 77 40 20 84 15 114 -14z m-3045 -100 l0 -120 -32 3
-33 3 -3 104 c-1 58 0 111 2 118 3 7 19 13 36 13 l30 0 0 -121z m2280 64 c19
-91 25 -93 45 -14 17 70 17 71 51 71 22 0 32 -4 29 -12 -3 -7 -25 -84 -50
-171 -24 -87 -47 -162 -50 -168 -4 -5 -20 -9 -37 -9 -24 0 -29 3 -24 16 28 74
28 99 -3 207 -18 59 -34 113 -37 122 -5 12 2 15 28 15 34 0 35 -1 48 -57z"/>
<path d="M6613 9773 c-20 -4 -23 -11 -23 -51 l0 -47 85 0 85 0 0 46 c0 40 -3
48 -22 53 -25 6 -90 6 -125 -1z"/>
<path d="M1005 7884 c-11 -3 -51 -12 -90 -21 -89 -21 -147 -46 -190 -85 -38
-32 -44 -58 -20 -78 9 -7 16 -11 18 -9 1 2 7 13 13 24 16 30 150 93 235 111
139 30 280 0 295 -63 13 -52 -57 -132 -156 -180 -81 -38 -153 -63 -186 -63
-24 0 -24 0 -8 33 9 17 37 63 61 100 35 55 41 72 32 83 -6 8 -19 14 -28 14
-22 0 -92 -98 -137 -190 -46 -92 -41 -87 -64 -72 -17 11 -20 10 -20 -7 0 -11
6 -24 14 -28 9 -5 15 -33 18 -85 3 -67 18 -112 32 -97 3 2 12 37 20 78 8 40
20 79 26 86 6 7 38 18 73 25 84 16 220 72 272 112 135 103 134 228 -2 289 -40
19 -168 33 -208 23z"/>
<path d="M2155 7842 c-43 -31 -171 -199 -259 -340 -23 -36 -42 -51 -109 -82
-45 -21 -85 -36 -89 -34 -44 28 68 229 196 354 48 46 56 69 31 90 -33 27 -85
-17 -193 -167 -27 -37 -64 -96 -81 -130 -29 -55 -37 -63 -78 -77 -67 -23 -83
-21 -83 9 0 37 -42 75 -82 75 -70 0 -198 -83 -198 -128 0 -14 49 -52 68 -52 8
0 48 16 89 36 l74 35 48 -17 c45 -16 50 -16 81 0 40 20 50 20 50 2 0 -22 59
-66 89 -66 14 0 52 13 83 29 l55 29 22 -21 c22 -22 22 -22 36 -2 25 34 68 75
79 75 6 0 20 -13 31 -30 24 -35 64 -54 97 -45 13 3 49 18 80 32 l58 27 22 -21
c51 -46 91 -53 172 -29 55 17 137 67 118 74 -6 2 -34 -4 -62 -13 -27 -9 -60
-15 -72 -13 -23 4 -23 5 3 15 15 7 29 19 33 28 7 20 -35 65 -63 65 -30 0 -92
-30 -127 -62 -21 -20 -52 -33 -106 -45 -86 -18 -123 -13 -131 19 -8 30 -2 36
49 49 26 7 44 17 44 26 0 23 -28 26 -73 8 -23 -9 -48 -20 -56 -23 -42 -17 80
159 164 236 49 44 56 66 26 82 -23 12 -23 12 -36 2z"/>
<path d="M1579 7094 c-37 -45 -101 -158 -158 -283 -9 -18 -25 -36 -36 -41 -11
-4 -71 -10 -133 -12 -102 -5 -113 -4 -108 11 3 9 24 72 47 139 32 94 40 128
32 140 -23 37 -44 19 -79 -68 -36 -88 -47 -113 -83 -191 l-22 -46 -82 -12
c-45 -6 -110 -11 -144 -11 -68 0 -81 -12 -33 -29 34 -12 37 -31 19 -140 -14
-91 -7 -114 46 -142 l44 -24 28 21 c35 26 103 126 154 226 21 43 47 81 56 86
21 11 246 25 255 17 3 -4 -7 -54 -23 -113 -18 -68 -29 -131 -29 -174 0 -73 19
-97 21 -25 0 23 22 103 47 177 l47 135 90 5 90 5 -72 13 c-40 8 -73 16 -73 18
0 11 102 204 134 254 25 40 32 58 24 67 -14 18 -43 16 -59 -3z m-569 -397 c0
-23 -125 -215 -134 -206 -2 2 -6 48 -8 102 -3 110 -8 103 82 110 25 2 48 4 53
5 4 1 7 -4 7 -11z"/>
<path d="M1678 6671 c-70 -28 -117 -60 -133 -91 -22 -42 -19 -58 16 -76 40
-20 80 -13 165 31 64 34 67 34 97 18 38 -19 101 -21 123 -2 14 11 18 11 28 -2
38 -50 102 -62 171 -30 44 20 111 78 102 87 -3 4 -47 -10 -98 -31 -104 -42
-125 -38 -91 18 17 26 19 36 10 45 -17 17 -31 15 -59 -6 -32 -25 -145 -66
-158 -57 -6 3 -11 17 -11 31 0 38 -16 61 -51 73 -42 14 -55 14 -111 -8z"/>
</g>
</svg>
