<?xml version="1.0" standalone="no"?>
<!DOCTYPE svg PUBLIC "-//W3C//DTD SVG 20010904//EN"
 "http://www.w3.org/TR/2001/REC-SVG-20010904/DTD/svg10.dtd">
<svg version="1.0" xmlns="http://www.w3.org/2000/svg"
 width="720.000000pt" height="1280.000000pt" viewBox="0 0 720.000000 1280.000000"
 preserveAspectRatio="xMidYMid meet">
<metadata>
Created by potrace 1.16, written by Peter Selinger 2001-2019
</metadata>
<g transform="translate(0.000000,1280.000000) scale(0.100000,-0.100000)"
fill="#000000" stroke="none">
<path d="M0 6400 l0 -6400 3600 0 3600 0 0 1025 0 1025 -205 2 -205 3 -5 140
c-5 167 -11 213 -34 244 -15 19 -23 22 -54 16 -33 -6 -37 -11 -37 -36 0 -26
-4 -29 -30 -29 -16 0 -30 4 -30 10 0 5 -6 7 -14 4 -11 -4 -16 4 -19 28 l-4 33
-1 -37 c-1 -20 -8 -38 -14 -41 -10 -3 -13 -41 -14 -145 0 -78 -4 -145 -7 -149
-4 -3 -7 -15 -7 -25 0 -17 -55 -18 -1463 -18 l-1462 0 3 162 c4 166 -12 581
-28 766 -10 112 -5 167 50 514 41 259 39 316 -9 356 -35 29 -160 81 -236 98
-44 10 -81 18 -82 19 -1 1 -27 84 -57 186 -149 504 -281 816 -385 913 -17 17
-31 35 -31 42 0 17 -56 63 -85 70 -16 4 -30 0 -40 -10 -9 -9 -24 -16 -33 -16
-10 0 -27 -7 -39 -15 -12 -8 -50 -17 -85 -20 -36 -2 -50 -1 -33 3 17 4 41 15
55 24 14 9 49 24 78 33 29 10 54 21 57 25 5 9 -46 47 -80 60 l-26 10 27 27
c23 25 37 51 90 170 19 41 37 141 30 160 -3 8 -1 11 4 8 17 -11 42 -109 48
-195 l7 -85 23 47 c60 127 -14 477 -125 591 -45 45 -39 47 20 7 65 -43 111
-105 142 -190 24 -68 27 -84 22 -167 -3 -51 -4 -93 -1 -93 14 0 37 74 41 135
5 57 1 88 -16 142 -58 193 -272 385 -429 387 -50 1 -57 4 -60 22 -2 11 6 42
18 68 53 126 -8 406 -128 580 -77 112 -279 238 -437 272 -218 47 -485 -1 -633
-113 -27 -21 -54 -33 -75 -33 -71 -1 -224 -82 -319 -169 -74 -68 -112 -122
-143 -206 -30 -80 -32 -143 -5 -221 23 -65 47 -100 35 -49 -16 71 -16 106 0
157 34 102 68 149 40 53 -19 -61 -19 -156 -1 -198 7 -18 40 -57 72 -86 l59
-52 -5 -87 c-3 -48 -5 -136 -5 -197 l1 -110 52 -119 c29 -66 51 -120 50 -121
-2 -1 -25 -9 -51 -19 -61 -23 -55 -33 7 -12 26 9 49 16 51 16 3 0 21 -32 40
-71 44 -91 48 -95 116 -129 49 -25 57 -34 63 -64 16 -84 95 -217 161 -269 56
-45 126 -75 201 -88 57 -9 87 -8 179 6 61 10 124 18 140 19 17 1 32 4 35 7 3
3 25 18 48 33 50 31 51 40 2 26 -18 -5 -48 -11 -67 -12 -19 -1 -33 -7 -33 -15
0 -20 -36 -30 -150 -43 -202 -24 -349 38 -435 183 -27 48 -78 187 -70 195 9 9
100 13 110 5 21 -17 93 -110 128 -168 20 -33 37 -55 37 -49 0 19 -58 130 -84
161 -14 17 -26 33 -26 36 0 5 115 82 192 128 31 18 56 35 54 36 -2 2 -36 -12
-77 -31 -41 -20 -113 -47 -162 -60 -222 -64 -291 -42 -357 114 -12 30 -47 106
-76 169 -74 156 -81 196 -65 368 7 76 12 149 10 163 -1 14 -1 60 -1 103 2 74
3 77 26 77 14 0 38 -12 55 -26 32 -27 38 -25 21 5 -10 20 -59 44 -81 39 -35
-8 13 124 82 221 27 39 51 71 53 71 2 0 -2 -24 -10 -52 -7 -29 -14 -73 -14
-98 0 -130 83 -283 196 -361 48 -33 52 -30 30 23 -25 58 -36 184 -25 272 11
86 28 135 29 81 0 -28 41 -210 55 -247 7 -17 5 -17 -21 -3 -16 8 -35 15 -43
15 -24 0 9 -31 55 -51 22 -10 60 -41 83 -70 45 -52 168 -159 184 -159 5 0 -6
17 -23 37 -32 36 -70 111 -84 163 -3 14 9 -7 28 -47 47 -99 138 -193 186 -193
5 0 -4 27 -21 61 -16 34 -28 63 -26 66 7 7 92 -157 111 -213 22 -68 25 -161 5
-199 -8 -16 -12 -41 -9 -54 5 -23 6 -22 32 15 35 50 74 146 83 204 4 25 17 56
29 69 23 25 126 81 150 81 7 0 28 -13 45 -29 28 -26 31 -35 31 -85 0 -69 -24
-120 -82 -176 -46 -44 -174 -110 -213 -110 -13 0 -26 -4 -29 -9 -10 -16 30
-19 70 -5 45 15 54 8 54 -44 0 -28 8 -38 61 -77 33 -24 100 -67 149 -96 75
-43 91 -57 101 -86 19 -60 6 -110 -43 -161 -38 -39 -39 -43 -13 -27 53 31 79
72 82 134 6 89 3 92 -190 196 -81 44 -45 40 55 -5 207 -94 235 -110 261 -144
35 -45 90 -78 146 -87 26 -4 62 -14 81 -22 l35 -15 -51 -1 c-52 -1 -117 -34
-158 -79 -11 -12 -25 -22 -33 -22 -7 0 -13 -4 -13 -9 0 -5 -9 -7 -20 -4 -21 6
-27 -6 -10 -23 6 -6 -7 -50 -40 -126 -59 -141 -82 -216 -114 -373 -58 -283
-77 -581 -56 -855 12 -149 11 -158 -8 -200 -11 -25 -23 -64 -27 -87 -5 -33
-13 -46 -39 -61 -27 -16 -38 -35 -65 -110 -18 -50 -31 -101 -29 -113 3 -19
-11 -29 -89 -68 -50 -25 -100 -54 -111 -64 -11 -10 -35 -52 -54 -93 l-33 -74
-85 0 c-100 0 -258 35 -352 78 -97 45 -227 148 -258 207 -11 20 -9 30 11 72
13 26 26 67 29 91 l5 42 49 -80 c27 -44 51 -79 53 -76 2 2 -21 48 -52 101
-220 381 -280 592 -286 1010 -2 72 -4 109 -6 83 -2 -27 -8 -48 -12 -48 -15 0
-133 248 -177 373 -24 67 -43 116 -43 109 -2 -34 78 -242 146 -382 81 -168 78
-157 87 -384 l4 -118 -34 51 c-19 28 -39 51 -44 51 -5 0 -18 17 -29 38 -11 20
-20 34 -21 31 -1 -15 30 -77 44 -89 9 -7 16 -19 16 -28 0 -8 24 -61 54 -117
30 -56 71 -141 90 -191 38 -94 39 -110 9 -187 l-15 -37 -37 33 c-20 18 -56 40
-81 49 -59 23 -233 69 -238 63 -2 -2 16 -9 39 -15 175 -44 215 -61 297 -126
68 -52 109 -113 122 -182 11 -60 3 -93 -42 -178 l-32 -61 32 -82 c42 -107 42
-152 0 -217 -56 -87 -78 -138 -78 -180 0 -51 -18 -106 -32 -98 -6 4 -24 36
-40 73 -53 117 -58 121 -142 121 -68 0 -78 -3 -130 -37 -69 -46 -96 -95 -96
-173 0 -59 16 -59 23 0 3 24 4 17 5 -22 2 -62 -2 -67 -33 -40 -46 39 -65 74
-65 119 0 24 -7 57 -15 73 -19 37 -24 38 -17 5 5 -30 5 -30 -50 -6 -88 38
-147 132 -148 233 0 39 10 84 31 142 17 47 29 91 27 97 -5 15 -57 -121 -70
-186 -22 -101 26 -221 107 -272 25 -16 44 -35 45 -43 0 -8 -23 -41 -50 -73
-49 -57 -68 -97 -31 -63 15 13 20 14 25 4 3 -7 4 -4 3 7 -1 12 3 19 11 17 8
-1 11 2 8 7 -4 5 -2 12 2 15 11 6 22 -17 53 -112 13 -39 27 -72 32 -72 16 0
67 -62 67 -81 0 -21 16 -26 23 -6 4 7 6 6 6 -4 1 -14 -10 -16 -87 -11 -61 3
-110 0 -159 -12 -76 -17 -100 -20 -90 -10 3 3 1 19 -5 36 -8 21 -13 26 -19 17
-4 -7 -5 -18 -2 -24 3 -5 1 -5 -6 1 -18 16 15 77 73 135 25 26 46 50 46 53 0
3 -11 6 -23 6 -17 0 -34 -15 -62 -55 -21 -31 -42 -58 -46 -61 -5 -3 -9 844 -9
1905 0 1482 3 1911 12 1911 7 0 26 14 44 31 l31 30 34 -19 c19 -11 62 -22 96
-26 l62 -6 7 45 c9 64 26 74 66 40 28 -24 38 -27 80 -22 45 6 48 5 48 -17 0
-18 39 -71 40 -55 7 66 3 143 -7 146 -7 3 -17 -6 -22 -20 -8 -21 -43 -37 -82
-37 -11 0 -59 49 -59 60 0 14 -34 12 -48 -2 -8 -8 -15 -8 -27 2 -23 19 -35 -2
-35 -62 l0 -48 -35 0 c-48 0 -78 30 -65 64 9 24 -3 46 -17 32 -3 -3 -19 2 -35
10 -18 10 -40 13 -59 9 l-29 -7 0 1511 0 1511 2614 0 c2605 0 2614 0 2609 -20
-6 -23 27 -98 53 -121 11 -9 31 -19 46 -23 25 -6 28 -3 34 29 5 29 2 41 -15
58 -11 13 -22 34 -23 47 l-3 25 933 3 932 2 0 1775 0 1775 -3600 0 -3600 0 0
-6400z m6795 3679 c153 -68 200 -265 96 -404 -25 -34 -27 -41 -14 -50 23 -17
-3 -53 -49 -67 -30 -9 -45 -8 -80 5 -34 13 -55 15 -98 8 -30 -5 -63 -13 -73
-16 -53 -21 -137 34 -107 70 11 13 9 19 -8 38 -85 90 -82 268 6 360 77 82 216
105 327 56z m-652 5 c52 -18 116 -76 143 -132 28 -55 26 -174 -4 -229 -50 -95
-136 -143 -256 -143 -209 0 -331 220 -222 402 25 42 43 59 94 85 54 28 75 33
131 33 37 0 88 -7 114 -16z m-5834 -111 c15 -56 71 -300 71 -307 0 -3 -15 -6
-33 -6 -28 0 -34 4 -42 33 -9 29 -14 32 -49 32 -36 0 -40 -3 -48 -32 -8 -29
-13 -33 -42 -33 l-34 0 14 58 c7 31 26 110 41 175 l27 117 43 0 c40 0 43 -2
52 -37z m401 -55 l1 -93 30 38 c23 27 39 37 60 37 16 0 29 -3 29 -6 0 -4 -16
-28 -35 -53 -30 -41 -33 -50 -21 -67 7 -10 25 -40 40 -66 l27 -48 -35 0 c-30
0 -38 5 -57 40 -13 22 -26 40 -31 40 -4 0 -8 -18 -8 -40 0 -38 -2 -40 -30 -40
l-30 0 0 175 0 175 30 0 30 0 0 -92z m1740 -83 l0 -176 -42 1 c-24 1 -55 -1
-69 -5 -19 -5 -33 -1 -55 18 -28 24 -29 29 -29 106 1 69 4 85 22 102 22 22 54
28 91 15 21 -7 22 -5 22 53 l0 61 30 0 30 0 0 -175z m452 83 l3 -92 25 37 c20
30 31 37 58 37 30 0 42 -12 24 -24 -5 -3 -21 -23 -36 -44 l-27 -40 40 -66 41
-66 -35 0 c-30 0 -38 5 -57 40 -13 22 -26 40 -30 40 -5 0 -8 -18 -8 -40 0 -39
-1 -40 -35 -40 l-35 0 0 168 c0 93 3 172 7 175 3 4 19 7 34 7 l28 0 3 -92z
m728 28 l0 -65 35 15 c28 11 40 12 58 3 34 -18 37 -27 37 -136 l0 -103 -30 0
-30 0 0 90 c0 75 -3 92 -16 97 -37 14 -49 -10 -52 -101 l-3 -86 -29 0 -30 0 0
175 0 175 30 0 30 0 0 -64z m530 3 c0 -58 1 -60 23 -53 76 26 107 -8 107 -118
0 -71 -2 -81 -26 -105 -21 -21 -31 -24 -57 -18 -18 4 -49 6 -69 6 l-38 -2 0
176 0 175 30 0 30 0 0 -61z m-1482 -11 c3 -35 6 -38 33 -38 24 0 29 -4 29 -25
0 -21 -5 -25 -30 -25 l-31 0 3 -67 c3 -66 4 -68 31 -71 21 -3 27 -8 23 -19 -3
-8 -6 -19 -6 -24 0 -16 -73 -10 -92 8 -14 13 -18 31 -18 90 0 66 -2 75 -20 80
-13 3 -20 14 -20 29 0 17 6 24 20 24 17 0 20 7 20 41 0 38 1 40 28 37 23 -3
27 -8 30 -40z m-2094 -58 c24 -24 34 -122 17 -173 -15 -44 -59 -66 -97 -48
-14 6 -27 11 -29 11 -3 0 -5 -29 -5 -65 l0 -65 -30 0 -30 0 0 181 0 182 39 -6
c21 -2 45 -1 52 4 19 12 60 2 83 -21z m402 20 c8 0 23 -9 34 -20 17 -17 20
-33 20 -121 l0 -101 -32 3 c-18 1 -48 -1 -66 -5 -50 -12 -82 13 -82 64 0 44
20 64 83 81 28 7 37 15 35 27 -5 25 -45 27 -58 3 -13 -25 -48 -28 -57 -5 -13
34 56 90 95 78 8 -2 20 -4 28 -4z m293 -1 c38 -14 51 -35 51 -88 l0 -41 -61 0
c-60 0 -60 0 -57 -27 3 -32 44 -46 54 -19 4 10 18 16 35 16 35 0 39 -25 10
-61 -27 -34 -99 -34 -135 0 -23 22 -26 32 -26 96 0 79 20 120 63 128 12 2 25
5 28 6 3 0 20 -4 38 -10z m199 0 c29 -10 59 -59 45 -73 -15 -15 -51 -5 -56 15
-4 13 -12 20 -24 17 -31 -6 -27 -34 7 -48 78 -32 101 -82 61 -131 -15 -19 -29
-24 -66 -24 -37 0 -51 5 -66 24 -29 36 -25 61 11 61 24 0 30 -4 30 -21 0 -15
5 -20 22 -17 42 6 33 36 -16 58 -54 23 -75 57 -60 98 9 25 45 52 70 52 6 0 25
-5 42 -11z m219 -13 c6 -6 13 -22 15 -36 2 -21 -2 -26 -23 -28 -20 -2 -28 2
-32 18 -4 14 -12 21 -24 18 -29 -5 -21 -32 15 -50 73 -36 92 -81 53 -129 -15
-19 -29 -24 -66 -24 -37 0 -51 5 -66 24 -29 36 -25 61 10 61 21 0 30 -6 34
-21 7 -25 40 -22 45 4 3 12 -9 23 -42 37 -51 21 -70 54 -60 97 12 45 104 65
141 29z m182 13 c17 -6 36 -19 41 -29 6 -10 10 -62 10 -116 l0 -97 -40 6 c-22
3 -43 1 -46 -4 -8 -14 -47 -11 -72 7 -16 11 -22 25 -22 54 0 44 20 64 83 81
28 7 37 15 35 27 -5 25 -45 27 -58 3 -13 -25 -48 -28 -57 -5 -8 23 16 62 46
73 35 13 43 13 80 0z m319 -22 c16 -15 22 -32 22 -64 l0 -43 -61 0 c-60 0 -60
0 -57 -27 3 -32 44 -46 54 -19 8 20 64 22 64 2 0 -69 -102 -98 -158 -45 -19
17 -22 31 -22 98 0 68 3 80 23 98 12 11 29 23 37 26 25 9 73 -4 98 -26z m1000
-3 c19 -21 22 -36 22 -99 0 -70 -1 -74 -32 -100 -27 -23 -39 -26 -71 -22 -59
8 -80 35 -85 107 -3 36 1 72 9 91 24 60 111 73 157 23z m240 9 c8 -11 12 -53
12 -120 l0 -103 -30 0 -30 0 0 90 c0 75 -3 92 -17 97 -32 12 -53 -32 -53 -113
l0 -74 -30 0 -30 0 0 120 0 120 29 0 c16 0 31 -5 33 -12 3 -8 11 -7 29 5 27
20 67 15 87 -10z m530 -9 c15 -17 22 -38 22 -65 l0 -39 -61 0 c-60 0 -60 0
-57 -27 3 -32 44 -46 54 -19 4 10 18 16 35 16 35 0 40 -29 9 -60 -27 -27 -63
-34 -105 -20 -46 15 -55 34 -55 123 0 64 3 76 23 94 12 11 29 23 37 26 28 11
75 -3 98 -29z m542 10 c11 -11 15 -39 15 -117 l0 -102 -32 -3 -33 -3 0 91 c0
72 -3 92 -15 96 -33 13 -45 -15 -45 -102 l0 -84 -35 0 -35 0 0 120 0 120 35 0
c19 0 35 -4 35 -9 0 -6 12 -3 28 4 29 16 58 12 82 -11z m215 -5 c17 -16 21
-36 23 -120 l4 -100 -44 1 c-23 1 -54 -1 -68 -5 -34 -9 -80 27 -80 61 0 42 17
62 70 79 37 12 50 22 50 36 0 26 -36 25 -52 -1 -12 -19 -48 -27 -61 -14 -3 3
-1 19 5 36 20 56 108 72 153 27z m394 20 c36 -13 61 -53 61 -99 l0 -30 -59 0
c-63 0 -76 -8 -66 -40 8 -24 55 -28 55 -5 0 11 11 15 36 15 32 0 35 -2 29 -22
-4 -13 -18 -34 -33 -47 -21 -19 -33 -22 -65 -18 -60 8 -80 35 -85 109 -5 79 9
115 50 133 41 17 38 17 77 4z m204 -3 c15 -8 27 -11 27 -5 0 5 14 9 31 9 l30
0 -3 -154 c-3 -134 -5 -157 -22 -175 -42 -46 -144 -35 -166 19 -7 16 -9 34 -5
39 10 18 44 12 57 -9 27 -42 78 -15 78 41 0 18 -3 20 -12 11 -7 -7 -29 -12
-49 -12 -56 0 -79 34 -79 116 0 72 13 107 44 122 29 14 37 14 69 -2z m285 -22
c19 -22 22 -36 22 -120 l0 -95 -42 1 c-24 1 -54 -1 -68 -5 -36 -9 -80 27 -80
65 0 27 32 70 52 70 5 0 24 7 43 14 25 11 33 19 29 30 -9 22 -41 20 -56 -4
-18 -29 -58 -27 -58 3 0 73 105 101 158 41z m-3048 -94 l0 -120 -35 0 -35 0 0
113 c0 63 3 117 7 120 3 4 19 7 35 7 l28 0 0 -120z m2280 63 c19 -90 25 -92
45 -14 18 68 20 71 48 71 28 0 29 -2 23 -33 -3 -19 -25 -99 -49 -178 l-42
-144 -34 -3 c-28 -3 -33 -1 -27 14 28 74 28 99 -3 207 -18 59 -34 113 -37 122
-5 12 2 15 28 15 34 0 35 -1 48 -57z m-2490 -4003 c24 -115 -14 -274 -80 -334
-22 -20 -46 -36 -52 -36 -7 0 -60 21 -118 46 -58 25 -115 50 -128 55 -21 8
-39 35 -30 44 2 3 30 -3 61 -12 32 -9 60 -13 63 -10 3 3 -1 16 -10 29 -9 12
-16 26 -16 30 0 4 37 18 83 32 45 14 98 37 118 50 42 29 79 97 79 145 0 49 16
29 30 -39z m79 -320 c27 0 93 29 117 51 17 16 23 17 37 6 9 -6 19 -26 23 -42
6 -30 5 -31 -36 -33 -22 -2 -53 -7 -68 -13 -14 -6 -44 -9 -64 -7 -34 2 -41 -2
-63 -35 -14 -20 -28 -37 -30 -37 -2 0 -25 10 -50 22 -44 22 -45 22 -21 32 34
15 113 91 123 118 7 19 9 16 11 -19 2 -34 7 -43 21 -43z m338 -416 c137 -66
244 -294 294 -629 26 -172 38 -745 20 -945 -32 -349 -124 -746 -207 -887 -35
-60 -134 -157 -245 -240 -119 -89 -381 -255 -474 -300 -82 -39 -136 -42 -261
-16 l-80 16 -39 -26 c-31 -21 -52 -27 -92 -27 -49 0 -53 2 -53 23 0 62 -174
258 -263 297 -27 12 -51 19 -54 16 -4 -3 -1 -6 5 -6 7 0 12 -4 12 -9 0 -11
-69 -36 -76 -28 -3 3 4 23 15 44 21 42 57 77 134 130 35 24 55 49 81 102 41
81 71 108 132 117 61 9 82 29 100 99 22 88 58 159 90 182 16 11 54 28 84 38
30 10 67 24 82 31 27 14 27 13 47 -31 11 -25 24 -45 30 -45 6 0 1 21 -11 48
-28 63 -28 139 2 222 29 84 33 88 88 96 100 14 174 58 296 174 79 74 208 226
231 270 24 46 12 36 -26 -22 -49 -77 -304 -329 -362 -359 -58 -30 -63 -25 -72
77 -8 77 -2 154 21 274 8 41 17 109 20 150 17 241 118 687 202 890 51 124 94
182 180 240 80 55 97 58 149 34z m-2046 -2480 c6 -3 26 -40 45 -81 25 -56 53
-95 108 -152 66 -68 103 -118 94 -125 -2 -2 -16 -8 -33 -14 -16 -6 -23 -11
-13 -11 36 -2 168 29 228 53 35 14 73 26 85 26 12 0 42 7 67 16 44 14 48 14
86 -5 44 -23 157 -122 173 -154 6 -11 7 -22 2 -26 -5 -3 -26 -27 -47 -53 l-38
-48 -289 0 c-266 0 -313 4 -279 25 5 3 10 12 10 18 -1 7 -11 -1 -24 -16 -21
-27 -26 -28 -99 -25 l-76 3 54 72 c30 39 64 75 76 78 11 4 19 9 16 11 -14 14
-60 -23 -111 -90 -44 -57 -64 -76 -82 -76 -32 0 -30 7 9 48 24 26 27 32 10 23
-12 -6 -30 -25 -40 -41 l-17 -30 -113 0 c-62 0 -113 3 -113 8 0 4 5 25 10 47
21 84 49 306 48 367 -3 89 27 128 122 159 26 9 113 4 131 -7z m-329 -492 c6
-6 8 -26 4 -46 l-7 -36 -139 0 -139 0 17 40 c13 30 25 41 52 49 43 12 198 7
212 -7z"/>
<path d="M6613 9773 c-20 -4 -23 -11 -23 -51 l0 -47 85 0 85 0 0 46 c0 40 -3
48 -22 53 -25 6 -90 6 -125 -1z"/>
<path d="M6041 8904 c-46 -19 -69 -64 -46 -88 20 -19 19 -70 -1 -87 -14 -12
-14 -14 1 -25 13 -10 23 -10 41 -2 13 6 24 15 24 20 0 5 11 20 25 34 14 14 25
31 25 38 0 7 9 21 19 30 11 10 25 31 32 48 10 25 10 31 -2 39 -18 11 -83 7
-118 -7z"/>
<path d="M6318 8813 c-19 -21 -46 -65 -59 -98 -27 -67 -68 -110 -147 -156 -70
-41 -125 -101 -130 -142 -2 -18 -11 -43 -20 -57 -35 -54 -62 -116 -63 -145 -1
-38 53 -137 85 -154 30 -16 63 -1 68 31 2 19 10 24 44 26 48 4 80 -23 69 -57
-6 -20 -37 -27 -96 -23 -12 1 -18 -11 -24 -46 -21 -137 -17 -196 13 -190 12 2
21 22 30 67 14 74 25 91 58 91 12 0 39 9 58 21 63 37 97 14 111 -75 6 -36 8
-38 36 -32 16 3 43 16 59 28 28 20 34 21 75 10 60 -16 80 -15 95 3 16 19 31
95 19 95 -10 0 -39 54 -39 73 0 21 55 77 74 77 9 0 16 4 16 8 0 5 16 14 35 22
19 8 35 20 35 27 0 8 7 16 15 19 31 12 2 24 -59 24 -138 0 -161 35 -78 118 51
52 62 75 42 87 -5 3 -10 19 -10 34 0 16 -7 34 -15 41 -11 9 -14 32 -13 96 2
100 -8 117 -89 140 -31 9 -64 27 -80 45 -39 40 -70 38 -115 -8z"/>
<path d="M7148 8392 c-1 -4 -18 -18 -35 -31 -26 -18 -33 -29 -33 -57 0 -24 5
-34 15 -34 24 0 17 -30 -13 -58 -16 -15 -31 -35 -35 -45 -4 -9 -15 -20 -24
-24 -10 -3 -30 -15 -45 -25 -15 -10 -44 -18 -66 -18 -32 0 -45 -6 -61 -26 -45
-57 -13 -154 50 -154 16 0 29 4 29 8 0 13 47 32 80 32 48 0 53 -24 35 -148 -9
-62 -13 -127 -10 -154 6 -40 3 -53 -16 -79 -20 -29 -25 -31 -70 -27 -32 3 -49
1 -50 -6 -1 -6 -2 -16 -3 -22 0 -7 -19 -36 -40 -66 -34 -47 -48 -57 -101 -76
-46 -16 -74 -20 -116 -15 -52 5 -56 4 -106 -36 -29 -22 -57 -41 -63 -41 -6 0
-25 -7 -41 -16 -37 -19 -93 -23 -138 -11 -24 6 -44 5 -70 -6 -20 -8 -54 -20
-76 -27 -22 -7 -58 -26 -79 -41 -51 -37 -74 -36 -116 1 -19 17 -45 30 -59 30
-23 0 -32 -12 -76 -102 -47 -98 -49 -107 -48 -179 1 -42 9 -109 18 -150 19
-95 19 -175 -2 -341 -9 -73 -17 -177 -17 -232 l-1 -98 35 -30 c78 -67 79 -67
114 -25 29 35 38 39 106 48 83 12 87 15 110 96 8 28 19 53 25 55 5 2 23 -23
40 -55 36 -68 57 -85 116 -89 l44 -3 40 -77 c40 -77 40 -78 20 -96 -11 -10
-49 -24 -85 -31 -36 -7 -67 -16 -70 -19 -17 -22 -83 -32 -181 -26 -103 7 -106
6 -133 -19 -21 -20 -29 -39 -36 -86 -6 -41 -18 -74 -40 -107 -27 -39 -32 -53
-27 -88 7 -60 53 -136 82 -136 28 0 38 12 61 70 9 25 27 56 39 70 13 14 28 36
35 48 6 13 32 33 56 44 25 11 64 32 87 47 23 16 69 36 102 47 33 10 66 24 73
31 7 7 21 14 30 14 77 5 102 18 102 50 0 32 36 59 78 59 51 0 72 -17 73 -60 1
-38 -26 -110 -41 -110 -5 0 -23 -13 -41 -30 l-33 -30 12 -59 c20 -97 6 -120
-73 -121 -84 -1 -218 -73 -300 -162 l-53 -57 31 -63 c32 -63 32 -63 78 -66 42
-3 51 1 95 39 92 79 149 88 180 27 9 -18 23 -38 30 -46 23 -22 -1 -50 -72 -84
-35 -17 -64 -34 -64 -39 0 -5 -6 -9 -14 -9 -12 0 -79 -23 -209 -72 -15 -6 -40
-24 -55 -40 -15 -16 -39 -36 -53 -43 -57 -30 -69 -151 -20 -196 27 -25 76 -25
94 1 11 16 19 19 38 12 32 -11 92 -5 153 14 41 14 50 14 57 3 29 -46 -22 -159
-71 -159 -11 0 -44 -16 -74 -35 -54 -34 -63 -50 -71 -127 -1 -9 -16 -28 -33
-43 -17 -14 -34 -35 -37 -45 -12 -38 -80 -16 -98 31 -4 11 -8 10 -19 -4 -10
-13 -32 -20 -75 -24 -59 -5 -62 -5 -67 18 -13 63 -13 119 0 138 10 14 13 41
10 95 -3 51 0 76 8 79 6 2 -12 15 -39 29 -72 37 -112 32 -148 -19 -24 -33 -27
-46 -22 -76 7 -34 10 -37 60 -47 30 -6 62 -10 71 -8 14 2 19 -5 22 -38 3 -37
1 -42 -22 -48 -14 -3 -44 -3 -66 0 -32 5 -40 11 -41 28 0 19 -1 19 -11 -4 -66
-160 -68 -172 -31 -206 25 -23 34 -26 83 -21 30 3 64 8 75 12 12 4 15 4 8 -2
-13 -9 -20 -38 -32 -127 -7 -51 -5 -62 11 -78 10 -10 18 -22 18 -27 0 -5 10
-11 22 -13 30 -4 64 -57 72 -111 4 -25 12 -52 19 -61 17 -23 145 -58 168 -45
21 11 69 8 69 -4 0 -15 -22 -50 -46 -71 -29 -27 -67 -129 -65 -180 0 -22 -3
-44 -8 -50 -4 -6 -11 -24 -15 -41 -4 -16 -13 -33 -19 -37 -21 -13 24 -118 51
-118 13 0 2 -393 -12 -402 -6 -4 -9 -21 -8 -37 2 -17 -8 -64 -22 -105 -14 -41
-26 -80 -26 -86 0 -12 -48 -80 -64 -92 -6 -3 -13 -36 -17 -72 -4 -40 -16 -84
-33 -115 -28 -54 -34 -119 -16 -165 12 -33 40 -33 78 -1 17 14 35 25 40 25 6
0 16 15 22 34 12 38 83 107 149 146 24 14 48 34 54 45 5 11 19 26 29 33 10 7
24 28 32 46 11 26 23 35 72 51 33 11 64 23 69 27 6 4 30 10 53 14 26 4 47 14
53 25 15 28 92 69 130 69 19 0 39 4 45 8 27 17 53 96 59 181 8 95 2 131 -21
131 -25 0 -16 49 16 83 l30 32 -6 110 c-3 61 -12 133 -19 160 -11 45 -28 195
-28 251 1 46 35 95 87 124 28 16 71 50 95 75 28 29 52 45 68 45 16 0 47 24
101 78 42 44 89 87 105 97 l27 17 0 205 0 206 -32 -27 c-18 -14 -62 -47 -98
-73 -36 -25 -82 -59 -102 -75 -44 -33 -92 -46 -113 -28 -27 22 -49 120 -48
215 1 80 6 100 40 185 22 52 48 128 57 168 15 60 26 80 63 120 88 92 98 118
71 177 -10 23 -16 25 -79 25 -81 0 -119 12 -119 38 0 29 47 113 89 157 32 34
111 176 111 199 0 5 14 28 30 53 17 24 30 46 30 48 0 3 23 36 50 73 l50 69 -2
298 -3 299 -27 -40 c-14 -21 -69 -83 -121 -138 -84 -87 -98 -98 -120 -92 -20
5 -28 15 -34 44 -12 63 -9 323 5 363 13 37 35 172 52 314 15 136 28 179 65
221 19 21 44 63 56 94 12 30 28 62 35 70 6 8 30 50 53 94 l41 79 0 473 0 474
-24 0 c-13 0 -26 -4 -28 -8z"/>
<path d="M4265 8311 c-3 -5 -29 -17 -58 -26 -28 -9 -61 -20 -72 -25 -167 -73
-176 -76 -235 -79 -78 -3 -154 -31 -171 -63 -8 -16 -4 -21 27 -34 47 -20 125
-20 156 -1 13 8 39 18 59 21 46 8 123 47 158 79 40 38 65 47 123 47 73 0 93
17 89 73 -1 13 -10 17 -35 17 -19 0 -37 -4 -41 -9z"/>
<path d="M5023 7918 c-24 -11 -43 -23 -43 -27 0 -3 26 -17 58 -29 31 -13 64
-28 72 -33 32 -20 83 -40 123 -49 23 -5 51 -11 62 -14 26 -8 50 8 42 28 -4 9
-31 28 -62 42 -31 15 -70 40 -87 56 -59 55 -95 61 -165 26z"/>
<path d="M3438 7748 c-7 -4 -47 -7 -88 -6 -41 1 -90 -2 -108 -6 -28 -7 -32
-11 -26 -29 10 -33 46 -56 87 -58 73 -2 92 -1 107 3 8 3 42 10 74 16 54 11 96
34 96 52 0 19 -120 42 -142 28z"/>
<path d="M5887 7722 c-27 -30 -22 -87 9 -111 71 -56 153 11 117 97 -12 30 -16
32 -61 32 -35 0 -54 -5 -65 -18z"/>
<path d="M6730 7730 c-8 -5 -38 -10 -66 -10 -83 0 -166 -20 -203 -47 -28 -22
-32 -30 -28 -57 20 -125 109 -171 175 -90 95 116 137 155 169 156 35 1 69 29
58 47 -8 14 -85 14 -105 1z"/>
<path d="M5459 7696 c8 -10 35 -28 60 -41 25 -13 59 -36 74 -51 24 -22 28 -32
24 -63 -4 -28 3 -54 31 -114 40 -83 64 -102 91 -70 9 10 37 35 63 54 76 55 78
119 6 188 -67 65 -139 96 -228 97 -41 0 -88 4 -105 9 -28 8 -29 7 -16 -9z"/>
<path d="M1306 6162 c-3 -6 -2 -13 4 -17 5 -3 10 -25 10 -48 0 -56 18 -117 36
-124 25 -9 44 17 44 63 0 23 -4 46 -10 49 -5 3 -10 11 -10 16 0 28 113 -64
125 -102 8 -23 21 -25 29 -3 8 21 -3 33 -91 105 -70 58 -124 82 -137 61z"/>
<path d="M643 5410 c-17 -17 -45 -52 -62 -78 -43 -68 -169 -390 -196 -502 -13
-52 -41 -171 -64 -265 -22 -93 -48 -206 -56 -250 -11 -54 -38 -125 -81 -215
-105 -221 -112 -305 -42 -464 36 -82 36 -99 8 -227 -24 -107 -21 -186 11 -272
11 -29 16 -38 13 -22 -20 92 -23 115 -24 171 0 34 9 97 20 140 27 107 26 122
-16 222 -20 48 -38 109 -41 137 -7 74 19 170 83 297 59 118 84 185 84 230 0
15 16 89 36 165 19 76 46 191 60 256 27 135 60 236 137 423 67 160 67 161 123
229 50 62 52 69 7 25z"/>
<path d="M5930 5056 c-14 -8 -50 -17 -80 -21 -80 -11 -163 -34 -172 -48 -14
-22 -9 -128 8 -163 26 -55 36 -58 91 -26 27 16 62 33 78 39 16 5 33 18 39 28
6 11 26 35 43 55 18 19 33 40 33 45 0 6 11 27 25 47 14 20 25 42 25 47 0 15
-60 13 -90 -3z"/>
</g>
</svg>
