<?xml version="1.0" standalone="no"?>
<!DOCTYPE svg PUBLIC "-//W3C//DTD SVG 20010904//EN"
 "http://www.w3.org/TR/2001/REC-SVG-20010904/DTD/svg10.dtd">
<svg version="1.0" xmlns="http://www.w3.org/2000/svg"
 width="720.000000pt" height="1280.000000pt" viewBox="0 0 720.000000 1280.000000"
 preserveAspectRatio="xMidYMid meet">
<metadata>
Created by potrace 1.16, written by Peter Selinger 2001-2019
</metadata>
<g transform="translate(0.000000,1280.000000) scale(0.100000,-0.100000)"
fill="#000000" stroke="none">
<path d="M0 6400 l0 -6400 3600 0 3600 0 0 1025 0 1025 -3492 2 c-1921 2
-3537 3 -3591 3 l-98 0 5 2370 c3 1304 8 2403 12 2443 5 49 11 72 20 72 7 0
15 8 17 18 3 10 5 6 6 -10 2 -55 21 -27 21 32 0 33 -4 60 -10 60 -5 0 -10 16
-10 35 0 28 -4 35 -20 35 -14 0 -20 7 -20 21 0 16 4 19 20 14 17 -5 20 -2 20
24 0 26 4 31 24 31 17 0 23 5 22 18 -1 11 5 16 17 14 13 -2 17 4 17 28 0 23 5
30 19 30 26 0 36 50 13 69 -12 10 -14 15 -4 18 6 3 12 16 12 29 0 27 18 65 37
77 7 4 13 15 13 22 0 9 10 15 25 15 16 0 25 6 25 15 0 8 3 15 8 15 4 0 20 25
37 55 16 30 32 55 36 55 4 0 14 3 23 6 13 5 16 -1 16 -27 l1 -34 13 31 c9 19
24 34 40 38 17 4 26 13 26 26 0 11 4 20 10 20 15 0 41 57 34 75 -11 27 16 95
38 95 12 0 18 7 18 21 0 11 9 32 20 46 24 31 25 43 5 43 -8 0 -15 3 -15 8 0
13 59 64 69 58 5 -3 6 14 3 40 -4 39 -2 46 15 50 12 3 24 21 32 50 7 24 17 44
22 44 5 0 9 7 9 15 0 8 7 15 16 15 11 0 14 6 9 20 -4 11 -2 20 4 20 6 0 11 7
11 15 0 9 16 31 35 51 19 19 35 39 35 44 0 6 9 10 19 10 13 0 21 8 23 23 3 19
8 22 46 19 37 -3 42 -1 42 17 0 14 6 21 20 21 17 0 20 7 20 39 0 22 4 43 10
46 5 3 10 22 10 41 0 27 4 34 20 34 13 0 18 5 14 15 -4 10 0 15 10 15 9 0 24
9 33 20 10 11 23 20 30 20 7 0 13 11 13 25 0 18 5 25 20 25 11 0 20 6 20 13 0
19 54 77 72 77 10 0 18 12 22 34 5 28 12 36 36 41 17 4 30 11 30 16 0 5 7 9
15 9 8 0 15 7 15 16 0 12 7 14 30 9 23 -5 30 -3 30 9 0 9 6 16 13 16 22 0 67
24 67 37 0 6 6 14 13 16 6 3 2 6 -10 6 -16 1 -23 7 -23 20 0 17 10 20 75 26
41 4 75 11 75 15 0 4 12 11 28 16 18 5 22 8 11 11 -10 2 -19 13 -22 24 -5 17
1 19 71 21 43 2 -335 5 -838 8 -503 3 702 6 2678 8 l3592 2 0 1775 0 1775
-3600 0 -3600 0 0 -6400z m6782 3684 c50 -17 112 -73 138 -125 44 -85 32 -202
-29 -284 -25 -34 -27 -41 -14 -50 14 -10 14 -14 -2 -38 -22 -35 -88 -46 -136
-23 -29 13 -43 14 -94 4 -106 -20 -142 -17 -169 17 -22 27 -22 31 -7 41 15 11
14 14 -6 36 -38 40 -63 108 -63 172 0 78 16 128 58 176 77 90 199 118 324 74z
m-639 0 c52 -18 116 -76 142 -130 22 -47 30 -130 16 -180 -32 -119 -134 -194
-265 -194 -165 0 -272 106 -270 266 2 153 105 252 265 253 36 1 86 -6 112 -15z
m-5839 -91 c10 -34 76 -315 76 -324 0 -5 -16 -9 -35 -9 -30 0 -35 3 -35 24 0
31 -13 39 -59 39 -31 0 -36 -3 -43 -31 -8 -28 -13 -32 -42 -32 l-34 0 14 58
c7 31 25 110 40 175 l28 117 42 0 c32 0 44 -4 48 -17z m406 -75 l1 -93 30 38
c23 27 39 37 60 37 16 0 29 -3 29 -6 0 -4 -16 -28 -35 -54 l-34 -47 28 -45
c56 -89 56 -88 17 -88 -30 0 -38 5 -57 40 -26 45 -39 43 -39 -6 0 -31 -2 -34
-30 -34 l-30 0 0 175 0 175 30 0 30 0 0 -92z m1740 -83 l0 -176 -42 1 c-24 1
-55 -1 -69 -5 -19 -5 -33 -1 -55 18 -27 24 -29 29 -29 106 0 69 3 84 21 102
23 22 55 28 92 15 21 -7 22 -5 22 53 l0 61 30 0 30 0 0 -175z m452 83 l3 -92
25 37 c20 30 31 37 58 37 30 0 42 -12 24 -24 -5 -3 -21 -23 -36 -44 l-27 -40
41 -66 41 -67 -38 3 c-32 3 -41 9 -58 40 -26 49 -35 48 -35 -2 0 -39 -1 -40
-35 -40 l-35 0 0 175 0 175 35 0 34 0 3 -92z m728 28 l0 -65 35 15 c28 11 40
12 58 3 34 -18 37 -27 37 -136 l0 -103 -30 0 -30 0 0 90 c0 75 -3 92 -16 97
-37 14 -49 -10 -52 -101 l-3 -86 -29 0 -30 0 0 175 0 175 30 0 30 0 0 -64z
m530 3 c0 -58 1 -60 23 -53 76 26 107 -8 107 -118 0 -71 -2 -81 -26 -105 -20
-20 -31 -24 -52 -18 -15 4 -46 6 -69 5 l-43 -1 0 176 0 175 30 0 30 0 0 -61z
m-1480 -9 c0 -38 2 -40 30 -40 25 0 30 -4 30 -25 0 -21 -5 -25 -30 -25 l-31 0
3 -67 c3 -66 4 -68 31 -71 21 -3 27 -8 23 -19 -3 -8 -6 -19 -6 -24 0 -16 -73
-10 -92 8 -14 13 -18 31 -18 90 0 66 -2 75 -20 80 -13 3 -20 14 -20 29 0 17 6
24 20 24 17 0 20 7 20 40 0 38 2 40 30 40 28 0 30 -2 30 -40z m-2096 -61 c24
-23 34 -121 17 -172 -15 -44 -59 -66 -97 -48 -14 6 -27 11 -29 11 -3 0 -5 -29
-5 -65 l0 -65 -30 0 -30 0 0 181 0 182 38 -5 c20 -3 46 -2 57 3 26 10 55 2 79
-22z m405 20 c17 -6 36 -19 41 -29 6 -10 10 -62 10 -115 l0 -97 -32 3 c-18 1
-48 -1 -66 -5 -50 -12 -82 13 -82 64 0 44 20 64 83 81 28 7 37 15 35 27 -5 25
-45 27 -58 3 -13 -25 -48 -28 -57 -5 -8 21 28 67 58 75 35 10 33 10 68 -2z
m287 1 c39 -15 53 -39 54 -87 l0 -43 -61 0 c-60 0 -60 0 -57 -27 3 -32 44 -46
54 -19 9 23 64 21 64 -2 0 -51 -67 -84 -124 -62 -45 17 -55 38 -56 116 0 78
20 119 63 127 12 2 25 5 29 6 4 0 19 -4 34 -9z m201 -1 c32 -12 43 -26 43 -56
0 -31 -45 -33 -53 -2 -7 24 -40 23 -45 -2 -2 -10 9 -21 30 -29 75 -30 98 -83
59 -131 -40 -50 -151 -22 -151 38 0 19 5 23 30 23 24 0 30 -4 30 -21 0 -15 5
-20 22 -17 42 6 33 36 -16 58 -76 32 -89 107 -23 135 39 17 39 17 74 4z m202
-4 c26 -13 46 -56 33 -70 -14 -14 -50 -3 -55 16 -4 13 -12 20 -24 17 -29 -5
-21 -32 15 -50 73 -36 92 -81 53 -129 -15 -19 -29 -24 -66 -24 -37 0 -51 5
-66 24 -29 36 -25 61 10 61 21 0 30 -6 34 -21 7 -25 40 -22 45 4 3 12 -9 23
-42 37 -74 31 -86 108 -22 136 40 17 51 17 85 -1z m200 4 c17 -6 36 -19 41
-29 6 -10 10 -62 10 -115 l0 -97 -32 3 c-18 1 -48 -1 -66 -5 -50 -12 -82 13
-82 64 0 44 20 64 83 81 28 7 37 15 35 27 -5 25 -45 27 -58 3 -11 -22 -44 -28
-55 -11 -12 20 8 59 38 74 38 19 45 19 86 5z m319 -22 c16 -15 22 -32 22 -64
l0 -43 -61 0 c-60 0 -60 0 -57 -27 3 -32 44 -46 54 -19 9 23 64 21 64 -2 0
-49 -66 -84 -121 -64 -50 20 -59 37 -59 121 0 68 3 80 23 98 12 11 29 23 37
26 25 9 73 -4 98 -26z m1000 -3 c18 -21 22 -36 22 -98 0 -77 -15 -107 -61
-121 -31 -10 -84 3 -105 26 -23 26 -31 127 -13 170 24 60 111 73 157 23z m240
8 c8 -10 12 -52 12 -119 l0 -103 -30 0 -30 0 0 90 c0 75 -3 92 -17 97 -32 12
-53 -32 -53 -113 l0 -74 -30 0 -30 0 0 120 0 120 29 0 c16 0 31 -5 33 -11 2
-6 14 -5 33 5 33 17 63 13 83 -12z m530 -8 c15 -17 22 -38 22 -65 l0 -39 -61
0 c-60 0 -60 0 -57 -27 3 -32 44 -46 54 -19 4 10 18 16 35 16 22 0 29 -5 29
-20 0 -42 -64 -79 -115 -66 -52 13 -65 39 -65 124 0 69 3 81 23 99 12 11 29
23 37 26 28 11 75 -3 98 -29z m539 12 c7 -6 13 -53 15 -116 l3 -105 -32 -3
-33 -3 0 91 c0 72 -3 92 -15 96 -33 13 -45 -15 -45 -102 l0 -84 -35 0 -35 0 0
120 0 120 35 0 c19 0 35 -4 35 -9 0 -6 12 -3 28 4 28 15 58 12 79 -9z m221
-12 c19 -22 22 -36 22 -120 l0 -95 -42 1 c-24 1 -54 -1 -68 -5 -34 -9 -80 27
-80 61 0 41 18 63 63 75 52 15 67 26 60 45 -8 21 -41 17 -55 -6 -12 -19 -48
-27 -60 -14 -15 14 11 60 43 77 43 22 86 16 117 -19z m391 25 c36 -13 61 -53
61 -99 l0 -30 -59 0 c-65 0 -73 -5 -64 -38 6 -26 53 -32 53 -7 0 11 11 15 36
15 32 0 35 -2 29 -22 -13 -43 -42 -63 -90 -63 -64 0 -87 27 -93 105 -5 75 11
118 52 136 38 16 36 16 75 3z m204 -3 c15 -8 27 -11 27 -5 0 5 14 9 30 9 l30
0 0 -149 c0 -134 -2 -151 -20 -174 -41 -52 -147 -44 -170 13 -7 16 -9 34 -5
39 9 15 46 7 60 -12 27 -37 75 -10 75 43 0 17 -3 19 -19 10 -36 -19 -78 -12
-100 16 -16 21 -21 41 -21 88 0 85 8 106 44 122 39 17 36 17 69 0z m285 -22
c19 -22 22 -36 22 -120 l0 -95 -42 1 c-24 1 -54 -1 -68 -5 -35 -9 -80 27 -80
64 0 39 19 60 70 75 33 10 46 19 48 35 4 28 -31 29 -51 0 -22 -30 -63 -23 -59
11 10 70 109 91 160 34z m-3048 -94 l0 -120 -35 0 -35 0 0 113 c0 63 3 117 7
120 3 4 19 7 35 7 l28 0 0 -120z m2280 63 c19 -91 25 -93 45 -14 17 70 18 71
50 71 l33 0 -52 -177 -51 -178 -33 -3 c-29 -3 -33 -1 -29 15 31 106 31 95 -2
207 -18 59 -35 114 -38 122 -4 10 4 14 29 14 34 0 35 -1 48 -57z"/>
<path d="M6613 9773 c-20 -4 -23 -11 -23 -51 l0 -47 85 0 85 0 0 46 c0 40 -3
48 -22 53 -25 6 -90 6 -125 -1z"/>
<path d="M721 6860 c-7 -52 -16 -133 -21 -180 -5 -47 -11 -101 -14 -120 -3
-19 -8 -71 -11 -115 -3 -44 -10 -107 -15 -140 -5 -33 -12 -89 -15 -125 -20
-222 -25 -276 -39 -371 -19 -132 -85 -829 -91 -964 -2 -55 -9 -116 -15 -135
-5 -19 -10 -47 -10 -61 0 -29 10 -31 151 -44 29 -3 128 -12 219 -20 220 -20
256 -21 275 -5 8 7 29 42 46 79 17 36 49 101 70 145 39 79 46 116 30 158 -47
123 -55 165 -54 273 1 61 7 144 13 185 9 66 15 103 37 248 3 20 1 32 -6 32 -6
0 -11 -4 -11 -9 0 -5 -8 -7 -17 -5 -35 8 -46 -11 -44 -73 1 -48 -3 -66 -23
-95 -13 -20 -27 -45 -31 -57 -3 -12 -10 -19 -15 -16 -4 3 -15 -13 -24 -35 -9
-22 -21 -40 -27 -40 -7 0 -9 -10 -5 -25 5 -21 2 -27 -19 -35 -16 -6 -23 -14
-19 -25 3 -8 1 -15 -5 -15 -6 0 -11 -7 -11 -15 0 -9 -16 -40 -35 -70 -34 -54
-47 -60 -81 -34 -5 5 -22 2 -37 -6 -15 -8 -27 -12 -27 -9 0 2 -16 -2 -35 -10
-19 -8 -35 -13 -35 -10 0 3 -6 0 -12 -5 -59 -48 -78 -61 -92 -61 -9 0 -16 -4
-16 -9 0 -6 -11 -22 -25 -37 -14 -15 -25 -22 -25 -17 0 6 7 16 15 23 8 7 15
18 15 24 0 6 22 37 49 69 28 31 58 69 69 85 23 32 166 311 205 400 30 68 32
82 16 82 -5 0 -7 5 -4 10 4 6 10 8 15 5 5 -3 14 4 20 15 14 26 -6 71 -38 85
-32 14 -21 31 19 27 41 -5 48 -10 29 -22 -8 -5 -12 -11 -10 -14 13 -12 91 92
89 120 -1 25 -64 58 -113 60 -45 2 -54 -1 -73 -24 -31 -39 -48 -19 -30 34 11
30 20 40 43 45 l29 7 -27 1 c-28 1 -50 21 -23 21 19 0 90 29 84 34 -2 3 -60
10 -129 16 -138 12 -170 18 -170 30 0 5 10 10 23 12 12 2 22 10 22 18 0 8 7
16 15 17 91 12 89 10 92 61 3 52 25 67 56 39 25 -22 156 -46 170 -31 6 7 29
10 59 7 40 -3 45 -2 29 8 -21 13 -61 51 -61 59 -1 12 -21 35 -32 36 -7 1 -26
2 -42 3 -27 1 -28 4 -34 58 -4 41 -2 60 7 67 8 6 16 21 19 34 4 19 0 26 -21
35 -19 8 -26 18 -24 31 3 15 0 17 -13 12 -15 -5 -16 -4 -5 9 7 9 10 18 6 22
-3 3 -6 1 -6 -5 0 -7 -5 -12 -11 -12 -8 0 -10 14 -6 39 4 33 2 40 -15 44 -16
5 -19 11 -13 36 5 23 3 33 -9 37 -9 3 -16 12 -16 20 0 8 -4 14 -10 14 -5 0
-10 8 -10 18 0 10 -11 25 -25 32 -29 15 -33 46 -7 53 16 4 16 5 0 6 -10 0 -18
6 -18 12 0 7 -11 9 -29 6 -25 -5 -30 -3 -33 16 -2 12 -9 -21 -17 -73z m149
-970 c16 -16 35 -30 41 -30 8 0 8 -4 -1 -15 -7 -8 -21 -15 -32 -15 -10 0 -21
7 -24 15 -4 8 -15 15 -25 15 -18 0 -19 -2 -5 -29 19 -36 39 -44 63 -26 24 19
43 19 43 1 0 -46 -88 -52 -164 -12 -51 27 -55 42 -14 51 45 10 51 15 38 30 -9
11 -6 16 14 21 14 3 26 10 26 15 0 15 10 10 40 -21z"/>
<path d="M2100 6811 c10 -7 11 -11 3 -11 -17 0 -16 -20 1 -39 19 -21 69 -178
61 -191 -3 -5 -14 -10 -23 -10 -10 0 -13 -3 -6 -8 13 -9 38 -71 32 -78 -3 -3
-21 4 -40 16 -37 22 -68 18 -68 -7 0 -26 32 -42 81 -43 33 0 49 -5 53 -16 10
-26 7 -64 -9 -93 -9 -19 -14 -56 -13 -107 1 -75 -1 -79 -31 -106 -17 -15 -41
-28 -54 -29 -175 -5 -217 -13 -217 -39 0 -5 24 -23 53 -40 28 -18 54 -34 56
-36 1 -1 5 -19 8 -38 3 -26 -2 -48 -20 -81 -23 -40 -24 -47 -10 -60 23 -23 10
-56 -56 -137 -99 -122 -52 -92 61 39 l26 31 47 -16 c28 -9 55 -26 68 -44 12
-17 39 -39 60 -49 39 -20 49 -53 25 -77 -23 -23 3 -25 34 -2 l31 23 18 -24
c20 -27 25 -69 8 -69 -6 0 -8 -7 -5 -17 4 -9 2 -39 -3 -67 -5 -28 -13 -81 -16
-119 -4 -37 -13 -74 -21 -81 -8 -8 -14 -17 -14 -20 0 -12 78 -6 88 7 9 12 21
81 27 165 4 55 27 77 87 84 33 4 63 17 99 43 30 21 59 35 70 32 12 -3 17 1 17
12 -1 26 21 73 31 66 14 -8 26 16 22 47 -2 20 2 28 13 28 9 0 16 5 16 10 0 6
-4 10 -9 10 -5 0 -4 16 2 37 8 24 8 38 1 40 -5 2 -8 19 -6 38 4 31 9 36 51 50
32 11 53 25 69 50 26 41 41 39 34 -5 -4 -30 -4 -30 41 -30 36 0 49 5 61 22 24
34 20 46 -16 44 -27 -1 -32 2 -30 18 3 16 -1 18 -25 13 -16 -3 -35 -2 -41 2
-20 12 7 29 85 54 55 18 69 26 71 45 3 19 -1 22 -30 22 -28 1 -30 2 -15 11 10
6 25 8 33 5 13 -5 15 -1 18 37 1 6 -7 11 -16 9 -10 -2 -18 2 -18 8 0 6 -13 2
-29 -9 -36 -26 -36 -26 -60 0 -12 13 -21 17 -26 10 -8 -14 -52 -14 -60 -1 -3
6 -1 10 4 10 6 0 11 7 11 15 0 9 11 20 24 25 25 9 141 16 166 9 11 -3 16 6 18
34 3 35 1 38 -27 43 -17 4 -31 10 -31 15 0 8 39 14 63 10 4 0 7 9 7 22 0 12 3
32 6 45 5 17 3 23 -7 21 -26 -4 -48 12 -54 41 -8 37 -28 43 -60 18 -23 -18
-29 -19 -56 -8 -27 11 -34 10 -59 -9 -35 -26 -49 -26 -66 -3 -10 14 -15 15
-25 5 -20 -20 -29 -15 -29 13 0 19 4 25 15 21 8 -4 17 -2 20 3 3 5 12 7 20 3
24 -9 18 35 -6 48 -13 6 -49 9 -85 7 -48 -3 -64 -1 -64 9 0 7 11 13 24 13 20
0 29 10 48 50 25 54 35 62 34 28 -1 -17 5 -23 22 -24 15 -1 22 4 22 17 0 11 5
19 11 19 23 0 2 33 -29 46 -30 12 -34 12 -39 -4 -9 -23 -32 -37 -63 -37 -22 0
-25 -4 -22 -32 7 -66 -23 -34 -57 62 -18 53 -39 102 -47 109 -14 14 -80 22
-264 32 -82 4 -111 3 -100 -5z"/>
<path d="M1650 6256 c-13 -34 -13 -49 0 -41 16 10 12 -12 -5 -29 -9 -8 -22
-36 -30 -62 -15 -50 -38 -77 -75 -89 -24 -8 -25 0 -6 46 6 13 -4 22 -38 39
-26 12 -53 31 -61 43 -8 12 -15 17 -15 11 0 -5 5 -15 12 -22 9 -9 8 -12 -5
-12 -10 0 -20 -14 -27 -37 -10 -36 -9 -39 25 -71 20 -18 33 -37 29 -43 -3 -5
1 -21 10 -34 20 -30 20 -45 1 -45 -17 0 -20 -21 -5 -36 8 -8 6 -15 -5 -24 -22
-18 -18 -30 10 -30 14 0 29 -8 35 -21 11 -20 12 -20 25 -2 13 16 14 14 15 -22
0 -53 23 -85 59 -85 17 0 31 7 35 16 11 30 23 4 32 -68 l8 -73 6 70 c3 43 9
69 16 68 6 -1 37 -5 68 -8 45 -5 56 -3 56 8 0 8 -11 22 -25 31 -32 21 -32 34
2 47 26 10 49 -4 37 -23 -3 -4 0 -8 5 -8 16 0 13 68 -2 77 -8 4 -17 24 -21 43
-3 19 -16 55 -28 80 -12 24 -25 69 -29 98 -4 30 -14 61 -22 70 -7 10 -24 46
-37 82 -29 82 -37 90 -50 56z"/>
<path d="M4616 5907 c-36 -61 -88 -137 -95 -137 -3 0 -14 22 -24 49 -17 48
-66 120 -52 77 4 -16 0 -14 -19 7 -14 15 -31 24 -39 21 -12 -4 -9 -21 15 -97
16 -51 39 -102 50 -114 l21 -22 -27 -60 c-26 -59 -36 -117 -22 -139 13 -21 21
-13 32 33 6 25 9 45 7 45 -1 0 -9 -12 -17 -27 -8 -16 -15 -22 -16 -16 -1 30
42 119 95 198 57 86 86 117 44 48 -12 -21 -33 -58 -46 -83 l-25 -45 32 35 c17
19 47 61 67 93 20 31 38 55 40 53 3 -2 -25 -50 -61 -106 -72 -110 -106 -172
-106 -192 0 -15 98 132 145 217 39 70 53 111 35 100 -8 -5 -9 3 -5 28 4 20 3
42 -2 51 -7 13 -12 10 -27 -17z"/>
<path d="M3734 5891 c-33 -20 -102 -99 -153 -173 -35 -52 -54 -59 -71 -27 -17
31 -4 66 27 77 25 9 26 10 6 11 -30 1 -63 -33 -63 -65 0 -14 10 -35 24 -47
l24 -21 -30 -43 c-16 -24 -33 -41 -37 -39 -4 3 -16 23 -26 46 -18 41 -48 54
-59 25 -3 -8 0 -14 6 -12 7 1 24 -20 38 -46 l25 -48 -30 -25 c-55 -44 -75 -24
-58 57 12 60 -7 51 -26 -11 -25 -84 31 -113 111 -58 16 11 29 14 33 8 13 -20
93 -60 139 -69 60 -11 109 1 134 34 11 14 25 25 31 25 18 0 81 61 106 105 19
31 24 50 19 73 -10 49 -42 47 -97 -6 -56 -53 -80 -105 -72 -152 6 -33 3 -40
-15 -50 -48 -26 -131 -10 -207 40 -31 20 -29 36 13 86 30 37 41 44 72 44 47 0
137 42 180 83 62 59 92 153 60 185 -17 17 -33 15 -18 -3 31 -37 -33 -156 -110
-205 -27 -18 -69 -34 -92 -38 -42 -5 -42 -5 -28 16 8 11 37 53 64 92 27 39 69
89 94 111 47 41 39 52 -14 20z"/>
<path d="M3193 5788 c-45 -50 -113 -182 -113 -220 0 -21 4 -38 8 -38 14 0 130
108 153 143 16 23 6 16 -34 -22 -31 -30 -59 -52 -63 -48 -3 3 17 49 45 101 28
52 51 97 51 100 0 14 -28 4 -47 -16z"/>
<path d="M4185 5681 c-30 -13 -103 -96 -111 -127 -4 -15 -2 -34 3 -43 13 -22
73 -26 98 -7 19 14 18 15 -11 4 -38 -14 -64 -5 -64 20 0 23 16 37 51 45 14 4
41 17 60 30 26 17 34 30 34 52 0 33 -22 42 -60 26z"/>
<path d="M2640 5307 c-83 -77 -273 -188 -373 -218 l-44 -13 -7 -70 c-10 -108
-28 -196 -39 -189 -5 3 -7 0 -5 -8 12 -34 -27 -103 -137 -235 -27 -33 -63 -77
-79 -97 -15 -21 -33 -37 -40 -37 -9 0 -46 -72 -46 -91 0 -13 35 -3 51 14 9 9
20 17 24 17 4 0 30 20 56 45 26 25 53 45 60 45 6 0 24 14 39 30 15 17 31 30
35 30 4 0 44 38 90 85 45 47 88 85 94 85 6 0 11 6 11 13 1 17 67 104 168 217
17 21 32 41 32 45 0 5 10 22 23 39 13 17 30 45 39 61 8 17 29 57 46 90 18 33
32 69 32 80 0 12 6 27 13 34 10 11 9 13 -1 7 -13 -8 -13 19 1 42 15 23 -8 12
-43 -21z"/>
</g>
</svg>
