<?xml version="1.0" standalone="no"?>
<!DOCTYPE svg PUBLIC "-//W3C//DTD SVG 20010904//EN"
 "http://www.w3.org/TR/2001/REC-SVG-20010904/DTD/svg10.dtd">
<svg version="1.0" xmlns="http://www.w3.org/2000/svg"
 width="720.000000pt" height="1280.000000pt" viewBox="0 0 720.000000 1280.000000"
 preserveAspectRatio="xMidYMid meet">
<metadata>
Created by potrace 1.16, written by Peter Selinger 2001-2019
</metadata>
<g transform="translate(0.000000,1280.000000) scale(0.100000,-0.100000)"
fill="#000000" stroke="none">
<path d="M0 6400 l0 -6400 3600 0 3600 0 0 1025 0 1025 -2103 0 c-1622 0
-2106 3 -2115 12 -9 9 -12 9 -12 0 0 -9 -334 -12 -1475 -12 l-1475 0 0 3600 0
3600 3590 0 3590 0 0 1775 0 1775 -3600 0 -3600 0 0 -6400z m6795 3680 c149
-64 198 -258 100 -396 -30 -42 -32 -49 -18 -59 13 -10 13 -15 2 -33 -27 -43
-87 -53 -145 -26 -29 14 -42 15 -87 5 -98 -23 -107 -23 -137 -11 -16 7 -36 23
-44 36 -15 21 -14 24 2 33 16 9 15 11 -5 33 -56 60 -79 178 -51 269 23 77 103
146 195 168 49 12 137 3 188 -19z m-652 4 c52 -18 116 -76 143 -132 27 -55 26
-174 -3 -227 -51 -94 -120 -136 -233 -143 -63 -4 -85 -1 -128 18 -143 62 -200
232 -124 373 44 81 125 126 233 126 36 1 86 -6 112 -15z m-5802 -239 c21 -88
38 -166 38 -172 1 -8 -12 -13 -32 -13 -28 0 -34 4 -42 33 -9 29 -13 32 -50 31
-35 -1 -40 -4 -47 -32 -8 -28 -13 -32 -42 -32 l-34 0 14 58 c7 31 26 110 41
175 l27 118 44 -3 45 -3 38 -160z m369 73 l1 -93 30 38 c23 27 39 37 60 37 16
0 29 -3 29 -6 0 -4 -16 -27 -35 -53 l-34 -47 21 -35 c11 -19 29 -49 40 -66
l20 -33 -36 0 c-30 0 -38 5 -57 40 -26 45 -39 43 -39 -6 0 -31 -2 -34 -30 -34
l-30 0 0 175 0 175 30 0 30 0 0 -92z m1740 -84 l0 -177 -40 6 c-22 3 -43 1
-46 -4 -9 -16 -50 -10 -77 11 -31 25 -45 104 -28 167 17 61 50 79 109 59 21
-7 22 -5 22 53 l0 61 30 0 30 0 0 -176z m452 84 l3 -92 25 37 c20 30 31 37 58
37 30 0 42 -12 24 -24 -5 -3 -21 -23 -36 -44 l-27 -40 40 -66 41 -66 -34 0
c-28 0 -38 7 -62 43 l-29 42 -3 -43 c-3 -42 -4 -43 -35 -40 l-32 3 -3 173 -2
172 34 0 35 0 3 -92z m728 28 l0 -64 29 14 c31 15 77 6 93 -19 4 -7 8 -58 8
-114 l0 -103 -30 0 -29 0 -3 92 c-3 83 -5 93 -22 96 -33 7 -46 -25 -46 -110
l0 -78 -30 0 -30 0 0 175 0 175 30 0 30 0 0 -64z m530 3 c0 -55 2 -60 18 -53
31 13 76 5 95 -17 13 -16 17 -40 17 -101 0 -71 -2 -81 -26 -105 -21 -21 -31
-24 -57 -18 -18 4 -49 6 -69 6 l-38 -2 0 176 0 175 30 0 30 0 0 -61z m-1480
-9 c0 -38 2 -40 30 -40 25 0 30 -4 30 -25 0 -21 -5 -25 -30 -25 l-31 0 3 -67
c3 -66 4 -68 31 -71 28 -3 31 -9 21 -36 -8 -22 -72 -21 -96 1 -14 13 -18 31
-18 90 0 66 -2 75 -20 80 -13 3 -20 14 -20 29 0 17 6 24 20 24 17 0 20 7 20
40 0 38 2 40 30 40 28 0 30 -2 30 -40z m-2096 -60 c24 -24 34 -122 17 -173
-15 -44 -59 -66 -97 -48 -14 6 -27 11 -29 11 -3 0 -5 -30 -5 -66 l0 -65 -27 3
-28 3 -3 179 -2 179 38 -6 c22 -2 46 -1 53 4 19 12 60 2 83 -21z m405 19 c44
-16 51 -35 51 -143 l0 -96 -47 -1 c-27 0 -60 -1 -75 -1 -40 -1 -58 19 -58 63
0 43 20 63 83 80 28 7 37 15 35 27 -5 25 -45 27 -58 3 -13 -25 -48 -28 -57 -5
-8 21 28 67 58 75 35 10 33 10 68 -2z m295 -3 c36 -15 43 -28 48 -86 l3 -35
-63 -3 c-62 -3 -63 -3 -60 -30 3 -31 44 -44 54 -18 4 10 18 16 35 16 35 0 39
-25 10 -61 -15 -19 -29 -24 -66 -24 -39 0 -51 5 -71 28 -33 38 -35 150 -4 190
18 22 30 28 73 36 4 0 23 -5 41 -13z m193 3 c32 -12 43 -26 43 -56 0 -31 -45
-33 -53 -3 -7 26 -47 27 -47 1 0 -12 12 -23 33 -31 74 -30 97 -83 58 -131 -40
-50 -151 -22 -151 38 0 18 5 23 26 23 18 0 28 -6 31 -21 7 -25 46 -22 51 4 3
12 -9 23 -42 37 -76 32 -89 107 -23 135 39 17 39 17 74 4z m197 -3 c31 -13 53
-55 38 -71 -14 -14 -50 -3 -55 16 -4 13 -12 20 -24 17 -29 -5 -21 -32 15 -50
51 -25 72 -48 72 -78 0 -42 -29 -70 -77 -77 -35 -5 -45 -2 -67 20 -36 36 -35
67 3 67 20 0 30 -6 34 -20 7 -28 47 -27 47 0 0 15 -13 26 -45 40 -73 31 -85
108 -21 136 39 17 40 17 80 0z m205 3 c17 -6 36 -19 41 -29 6 -10 10 -62 10
-115 l0 -97 -32 3 c-18 1 -48 -1 -66 -5 -50 -12 -82 13 -82 64 0 44 20 64 83
81 28 7 37 15 35 27 -5 25 -45 27 -58 3 -16 -30 -60 -28 -60 2 0 35 37 65 91
76 3 0 20 -4 38 -10z m318 -21 c17 -16 23 -33 23 -65 l0 -43 -61 0 c-60 0 -60
0 -57 -27 3 -32 44 -46 54 -19 8 20 64 22 64 2 0 -69 -102 -98 -158 -45 -19
17 -22 31 -22 98 0 68 3 80 23 98 12 11 29 23 37 26 25 10 73 -2 97 -25z
m1001 -4 c18 -20 22 -37 22 -87 0 -84 -7 -105 -42 -123 -37 -19 -99 -11 -124
17 -23 26 -31 127 -13 170 25 61 112 74 157 23z m240 8 c8 -10 12 -52 12 -119
l0 -103 -30 0 -30 0 0 90 c0 75 -3 92 -17 97 -32 12 -53 -32 -53 -113 l0 -74
-30 0 -30 0 0 120 0 120 29 0 c16 0 31 -5 33 -11 2 -6 14 -5 33 5 33 17 63 13
83 -12z m530 -9 c15 -16 22 -37 22 -64 l0 -39 -61 0 c-60 0 -60 0 -57 -27 3
-32 44 -46 54 -19 4 10 18 16 35 16 35 0 40 -29 9 -60 -27 -27 -63 -34 -105
-20 -46 15 -55 34 -55 123 0 64 3 76 23 94 12 11 29 23 37 26 28 9 75 -5 98
-30z m757 5 c17 -16 21 -34 23 -119 l4 -100 -44 1 c-23 1 -54 -1 -68 -5 -35
-9 -80 27 -80 63 1 39 21 60 74 78 33 11 46 21 46 35 0 26 -36 25 -52 -1 -13
-20 -52 -27 -62 -12 -10 17 29 76 54 83 36 9 82 -1 105 -23z m394 21 c36 -13
61 -53 61 -99 l0 -30 -59 0 c-65 0 -73 -5 -64 -38 6 -26 48 -31 57 -7 3 9 18
15 36 15 28 0 31 -3 25 -22 -4 -13 -18 -34 -33 -47 -21 -19 -33 -22 -65 -18
-59 8 -80 35 -85 107 -5 75 11 118 52 136 38 16 36 16 75 3z m204 -3 c15 -8
27 -11 27 -5 0 5 14 9 31 9 l30 0 -3 -154 c-3 -134 -5 -157 -22 -175 -42 -46
-144 -35 -166 19 -7 16 -9 34 -5 39 10 18 44 12 57 -9 24 -38 78 -16 78 33 0
11 -11 13 -48 9 -44 -4 -51 -2 -70 23 -18 22 -22 41 -21 94 1 79 7 99 40 117
31 17 38 17 72 0z m282 -17 c17 -16 21 -35 23 -120 l4 -100 -44 1 c-23 1 -55
-1 -70 -5 -21 -6 -32 -2 -52 18 -14 15 -26 38 -26 52 0 25 31 65 50 65 6 0 26
7 45 14 25 11 33 19 29 30 -9 23 -51 20 -59 -4 -4 -12 -15 -20 -29 -20 -32 0
-36 7 -24 42 20 56 107 71 153 27z m-3045 -99 l0 -120 -35 0 -35 0 0 113 c0
63 3 117 7 120 3 4 19 7 35 7 l28 0 0 -120z m1840 108 c0 -9 3 -9 12 0 16 16
83 15 96 0 5 -7 12 -60 14 -118 l3 -105 -32 -3 -33 -3 0 91 c0 72 -3 92 -15
96 -33 13 -45 -15 -45 -102 l0 -84 -35 0 -35 0 0 120 0 120 35 0 c21 0 35 -5
35 -12z m431 -5 c0 -10 8 -43 18 -73 l17 -55 18 73 c18 71 19 72 51 72 l33 0
-34 -117 c-69 -246 -66 -238 -103 -241 -28 -3 -32 -1 -28 15 31 106 31 95 -2
207 -18 59 -35 114 -38 122 -4 10 4 14 31 14 27 0 36 -4 37 -17z"/>
<path d="M6613 9773 c-20 -4 -23 -11 -23 -51 l0 -47 85 0 85 0 0 46 c0 40 -3
48 -22 53 -25 6 -90 6 -125 -1z"/>
<path d="M3190 4509 c0 -7 -12 -9 -31 -7 -22 4 -32 0 -36 -11 -2 -9 -9 -24
-13 -33 -5 -9 -10 -54 -11 -100 -1 -46 -5 -91 -10 -100 -5 -9 -11 -54 -14
-100 -11 -176 -17 -212 -38 -230 -11 -10 -25 -19 -31 -19 -23 -3 121 -28 161
-29 24 0 63 -5 87 -12 37 -10 53 -9 93 3 32 11 48 21 47 31 -1 11 4 14 15 11
9 -4 13 -3 9 2 -4 4 -28 9 -53 11 -26 2 -74 10 -108 18 -34 8 -85 18 -114 21
-33 4 -54 12 -58 23 -6 17 10 32 38 32 14 0 17 9 17 49 0 27 4 51 9 53 6 2 13
57 17 123 6 107 5 118 -8 101 -9 -11 -22 -20 -31 -22 -12 -2 -15 8 -14 51 1
45 3 51 14 37 11 -16 14 -15 36 8 20 22 45 100 31 100 -2 0 -4 -5 -4 -11z"/>
<path d="M3333 4490 c-3 -11 -9 -20 -14 -20 -5 0 -9 -7 -9 -15 0 -8 6 -15 14
-15 14 0 36 -75 36 -120 0 -13 7 -20 20 -20 11 0 20 5 20 10 0 6 6 10 13 10
20 0 37 44 37 93 0 37 -5 45 -39 70 -46 32 -71 34 -78 7z"/>
<path d="M3338 4223 c-10 -2 -18 -9 -18 -14 0 -5 -6 -9 -13 -9 -8 0 -14 -7
-14 -15 0 -8 5 -15 11 -15 6 0 24 -11 40 -25 25 -22 29 -33 34 -95 5 -75 16
-86 51 -52 24 22 51 87 51 121 0 30 -21 81 -32 81 -5 0 -8 7 -8 15 0 11 -11
15 -42 14 -24 -1 -51 -3 -60 -6z"/>
</g>
</svg>
