<?xml version="1.0" standalone="no"?>
<!DOCTYPE svg PUBLIC "-//W3C//DTD SVG 20010904//EN"
 "http://www.w3.org/TR/2001/REC-SVG-20010904/DTD/svg10.dtd">
<svg version="1.0" xmlns="http://www.w3.org/2000/svg"
 width="720.000000pt" height="1280.000000pt" viewBox="0 0 720.000000 1280.000000"
 preserveAspectRatio="xMidYMid meet">
<metadata>
Created by potrace 1.16, written by Peter Selinger 2001-2019
</metadata>
<g transform="translate(0.000000,1280.000000) scale(0.100000,-0.100000)"
fill="#000000" stroke="none">
<path d="M0 6400 l0 -6400 3600 0 3600 0 0 1025 0 1024 -2817 3 c-2198 3
-2825 6 -2848 16 -16 7 -49 17 -73 23 -24 5 -52 19 -63 30 -11 11 -27 18 -34
15 -8 -3 -21 1 -29 9 -8 8 -24 15 -35 15 -12 0 -21 5 -21 10 0 6 -7 10 -15 10
-8 0 -23 8 -33 17 -10 10 -37 19 -62 21 -51 4 -61 9 -41 21 9 6 10 11 2 15 -6
4 -11 2 -11 -5 0 -8 -4 -8 -12 -1 -7 5 -35 12 -63 16 -121 13 -133 17 -139 42
-5 19 -13 24 -40 24 -19 0 -36 -6 -39 -12 -6 -19 -176 -16 -188 3 -5 8 -9 35
-9 62 0 26 -4 47 -10 47 -5 0 -12 27 -16 60 -4 33 -10 60 -13 60 -10 0 -31 63
-31 93 0 25 -3 27 -39 27 -33 0 -40 4 -45 25 -4 14 -11 23 -16 20 -5 -3 -11
-1 -15 5 -3 5 -17 10 -31 10 -27 0 -29 6 -14 44 6 17 6 26 0 26 -6 0 -10 18
-10 40 0 33 -3 40 -20 40 -17 0 -20 7 -20 40 0 27 -4 40 -14 40 -20 0 -28 110
-20 267 6 120 9 133 25 133 18 0 19 13 19 240 0 207 2 240 15 240 12 0 15 13
15 58 0 33 3 100 6 150 l7 92 31 0 31 0 -3 90 c-3 61 0 90 7 90 7 0 11 -29 11
-80 0 -64 3 -80 15 -80 12 0 15 16 15 80 0 44 -3 80 -8 80 -4 0 -6 20 -4 45 3
30 9 45 18 45 9 0 14 12 14 35 0 24 5 35 15 35 13 0 15 22 15 135 l0 135 25 0
c18 0 25 5 25 20 0 13 -7 20 -19 20 -41 0 -51 11 -51 55 0 25 5 45 12 47 7 3
12 19 11 39 -1 19 1 28 3 22 4 -9 18 -11 45 -7 39 7 39 6 39 -27 l1 -34 19 24
c26 30 25 51 0 51 -18 0 -20 7 -22 83 l-2 82 -6 -80 -6 -80 -2 86 c-1 48 1
101 4 118 6 27 10 31 40 31 33 0 34 1 34 40 0 22 5 40 10 40 6 0 10 33 10 80
l0 80 31 0 c22 0 42 12 75 42 24 23 44 46 44 51 0 6 7 18 16 28 8 9 17 28 18
41 4 39 47 158 57 158 5 0 9 36 9 80 0 73 2 80 20 80 18 0 20 7 20 75 0 58 5
86 24 127 14 29 30 68 36 86 7 17 19 32 26 32 11 0 14 19 14 80 0 78 1 80 24
80 22 0 24 5 30 68 3 37 7 75 8 85 2 11 11 17 29 17 27 0 27 1 31 75 2 55 0
75 -9 75 -7 0 -13 7 -13 15 0 8 5 15 10 15 6 0 10 -5 10 -12 0 -6 9 -3 20 7
19 18 20 17 20 -3 0 -26 34 -31 44 -7 3 8 15 15 26 15 21 0 23 10 24 90 1 28
5 36 24 38 12 2 22 7 22 12 0 5 10 10 23 12 19 3 23 10 27 58 5 50 7 55 30 58
70 8 103 41 115 116 9 52 13 61 33 64 16 3 22 10 22 28 0 14 6 24 14 24 7 0
16 9 19 19 3 11 26 35 51 52 25 18 46 39 46 46 0 7 4 13 9 13 5 0 11 23 15 50
5 36 11 50 22 50 9 0 18 9 21 20 3 11 12 20 19 20 8 0 14 7 14 15 0 8 4 15 9
15 5 0 26 29 46 65 20 36 40 65 45 65 6 0 10 18 10 40 0 35 3 40 24 40 20 0
25 7 35 44 6 25 11 63 11 85 0 35 5 44 44 75 23 20 50 36 60 36 13 0 16 12 16
75 l0 74 34 7 c25 4 36 12 40 29 3 13 22 40 42 60 28 29 33 39 23 46 -10 6 -8
9 8 9 12 0 25 5 28 10 3 6 -1 10 -10 10 -15 0 -14 3 1 29 15 25 22 29 46 24
21 -4 28 -2 28 11 0 9 4 16 9 16 5 0 11 10 13 23 2 16 9 21 26 19 17 -3 22 2
22 17 0 16 -6 21 -25 21 -28 0 -32 12 -10 30 13 11 19 9 37 -11 l21 -24 -6 23
c-4 16 0 26 14 35 10 6 19 17 19 24 0 7 7 13 15 13 8 0 15 7 15 16 0 8 19 33
42 55 35 32 39 39 23 40 -11 1 -2 5 20 8 39 6 40 7 43 49 2 23 8 42 13 42 6 0
8 9 4 19 -7 24 20 52 43 44 9 -3 14 -3 10 1 -10 12 23 45 38 39 10 -4 14 6 14
36 0 30 4 41 15 41 8 0 15 4 15 9 0 4 11 6 25 3 15 -2 25 0 25 7 0 14 36 51
50 51 5 0 10 -4 10 -10 0 -5 7 -10 15 -10 8 0 15 5 15 10 0 6 7 10 15 10 8 0
15 7 15 15 0 8 9 15 20 15 11 0 20 7 20 15 0 8 9 15 20 15 15 0 20 7 20 26 0
21 4 24 20 19 11 -4 20 -2 20 4 0 7 36 11 100 11 60 0 100 4 100 10 0 6 7 10
15 10 18 0 18 1 5 34 -9 25 -9 26 38 28 26 2 -729 5 -1678 8 -1342 4 -927 6
1868 8 l3592 2 0 1775 0 1775 -3600 0 -3600 0 0 -6400z m6782 3684 c50 -17
112 -73 138 -125 44 -85 32 -202 -29 -284 -25 -34 -27 -41 -14 -50 14 -10 14
-14 -2 -38 -22 -35 -88 -46 -136 -23 -29 13 -43 14 -94 4 -106 -20 -142 -17
-169 17 -22 27 -22 31 -7 41 15 11 14 14 -6 36 -38 40 -63 108 -63 172 0 78
16 128 58 176 77 90 199 118 324 74z m-639 0 c52 -18 116 -76 142 -130 22 -47
30 -130 16 -180 -32 -119 -134 -194 -265 -194 -165 0 -272 106 -270 266 2 153
105 252 265 253 36 1 86 -6 112 -15z m-5839 -91 c10 -34 76 -315 76 -324 0 -5
-16 -9 -35 -9 -30 0 -35 3 -35 24 0 31 -13 39 -59 39 -31 0 -36 -3 -43 -31 -8
-28 -13 -32 -42 -32 l-34 0 14 58 c7 31 25 110 40 175 l28 117 42 0 c32 0 44
-4 48 -17z m406 -75 l1 -93 30 38 c23 27 39 37 60 37 16 0 29 -3 29 -6 0 -4
-16 -27 -35 -53 l-34 -47 21 -35 c11 -19 29 -49 40 -66 l20 -33 -36 0 c-30 0
-38 5 -57 40 -26 45 -39 43 -39 -6 0 -31 -2 -34 -30 -34 l-30 0 0 175 0 175
30 0 30 0 0 -92z m1740 -83 l0 -176 -42 1 c-24 1 -55 -1 -69 -5 -19 -5 -33 -1
-55 18 -27 24 -29 29 -29 106 0 69 3 84 21 102 23 22 55 28 92 15 21 -7 22 -5
22 53 l0 61 30 0 30 0 0 -175z m452 83 l3 -92 25 37 c20 30 31 37 58 37 30 0
42 -12 24 -24 -5 -3 -21 -23 -36 -44 l-27 -40 41 -66 41 -67 -38 3 c-32 3 -41
9 -58 40 -26 49 -35 48 -35 -2 0 -39 -1 -40 -35 -40 l-35 0 0 175 0 175 35 0
34 0 3 -92z m728 28 l0 -65 35 15 c28 11 40 12 58 3 34 -18 37 -27 37 -136 l0
-103 -30 0 -30 0 0 90 c0 75 -3 92 -16 97 -37 14 -49 -10 -52 -101 l-3 -86
-29 0 -30 0 0 175 0 175 30 0 30 0 0 -64z m530 3 c0 -58 1 -60 23 -53 76 26
107 -8 107 -118 0 -71 -2 -81 -26 -105 -20 -20 -31 -24 -52 -18 -15 4 -46 6
-69 5 l-43 -1 0 176 0 175 30 0 30 0 0 -61z m-1480 -9 c0 -38 2 -40 30 -40 25
0 30 -4 30 -25 0 -21 -5 -25 -30 -25 l-31 0 3 -67 c3 -66 4 -68 31 -71 21 -3
27 -8 23 -19 -3 -8 -6 -19 -6 -24 0 -16 -73 -10 -92 8 -14 13 -18 31 -18 90 0
66 -2 75 -20 80 -13 3 -20 14 -20 29 0 17 6 24 20 24 17 0 20 7 20 40 0 38 2
40 30 40 28 0 30 -2 30 -40z m-2096 -61 c24 -23 34 -121 17 -172 -15 -44 -59
-66 -97 -48 -14 6 -27 11 -29 11 -3 0 -5 -29 -5 -65 l0 -65 -30 0 -30 0 0 181
0 182 38 -5 c20 -3 46 -2 57 3 26 10 55 2 79 -22z m405 20 c17 -6 36 -19 41
-29 6 -10 10 -62 10 -115 l0 -97 -32 3 c-18 1 -48 -1 -66 -5 -50 -12 -82 13
-82 64 0 44 20 64 83 81 28 7 37 15 35 27 -5 25 -45 27 -58 3 -13 -25 -48 -28
-57 -5 -8 21 28 67 58 75 35 10 33 10 68 -2z m287 1 c39 -15 53 -39 54 -87 l0
-43 -61 0 c-60 0 -60 0 -57 -27 3 -32 44 -46 54 -19 9 23 64 21 64 -2 0 -51
-67 -84 -124 -62 -45 17 -55 38 -56 116 0 78 20 119 63 127 12 2 25 5 29 6 4
0 19 -4 34 -9z m201 -1 c32 -12 43 -26 43 -56 0 -31 -45 -33 -53 -2 -7 24 -40
23 -45 -2 -2 -10 9 -21 30 -29 75 -30 98 -83 59 -131 -40 -50 -151 -22 -151
38 0 19 5 23 30 23 24 0 30 -4 30 -21 0 -15 5 -20 22 -17 42 6 33 36 -16 58
-76 32 -89 107 -23 135 39 17 39 17 74 4z m202 -4 c26 -13 46 -56 33 -70 -14
-14 -50 -3 -55 16 -4 13 -12 20 -24 17 -29 -5 -21 -32 15 -50 73 -36 92 -81
53 -129 -15 -19 -29 -24 -66 -24 -37 0 -51 5 -66 24 -29 36 -25 61 10 61 21 0
30 -6 34 -21 7 -25 40 -22 45 4 3 12 -9 23 -42 37 -74 31 -86 108 -22 136 40
17 51 17 85 -1z m200 4 c17 -6 36 -19 41 -29 6 -10 10 -62 10 -115 l0 -97 -32
3 c-18 1 -48 -1 -66 -5 -50 -12 -82 13 -82 64 0 44 20 64 83 81 28 7 37 15 35
27 -5 25 -45 27 -58 3 -11 -22 -44 -28 -55 -11 -12 20 8 59 38 74 38 19 45 19
86 5z m319 -22 c16 -15 22 -32 22 -64 l0 -43 -61 0 c-60 0 -60 0 -57 -27 3
-32 44 -46 54 -19 9 23 64 21 64 -2 0 -49 -66 -84 -121 -64 -50 20 -59 37 -59
121 0 68 3 80 23 98 12 11 29 23 37 26 25 9 73 -4 98 -26z m1000 -3 c18 -21
22 -36 22 -98 0 -77 -15 -107 -61 -121 -31 -10 -84 3 -105 26 -23 26 -31 127
-13 170 24 60 111 73 157 23z m240 8 c8 -10 12 -52 12 -119 l0 -103 -30 0 -30
0 0 90 c0 75 -3 92 -17 97 -32 12 -53 -32 -53 -113 l0 -74 -30 0 -30 0 0 120
0 120 29 0 c16 0 31 -5 33 -11 2 -6 14 -5 33 5 33 17 63 13 83 -12z m530 -8
c15 -17 22 -38 22 -65 l0 -39 -61 0 c-60 0 -60 0 -57 -27 3 -32 44 -46 54 -19
4 10 18 16 35 16 22 0 29 -5 29 -20 0 -42 -64 -79 -115 -66 -52 13 -65 39 -65
124 0 69 3 81 23 99 12 11 29 23 37 26 28 11 75 -3 98 -29z m539 12 c7 -6 13
-53 15 -116 l3 -105 -32 -3 -33 -3 0 91 c0 72 -3 92 -15 96 -33 13 -45 -15
-45 -102 l0 -84 -35 0 -35 0 0 120 0 120 35 0 c19 0 35 -4 35 -9 0 -6 12 -3
28 4 28 15 58 12 79 -9z m221 -12 c19 -22 22 -36 22 -120 l0 -95 -42 1 c-24 1
-54 -1 -68 -5 -34 -9 -80 27 -80 61 0 41 18 63 63 75 52 15 67 26 60 45 -8 21
-41 17 -55 -6 -12 -19 -48 -27 -60 -14 -15 14 11 60 43 77 43 22 86 16 117
-19z m391 25 c36 -13 61 -53 61 -99 l0 -30 -59 0 c-65 0 -73 -5 -64 -38 6 -26
53 -32 53 -7 0 11 11 15 36 15 32 0 35 -2 29 -22 -13 -43 -42 -63 -90 -63 -64
0 -87 27 -93 105 -5 75 11 118 52 136 38 16 36 16 75 3z m204 -3 c15 -8 27
-11 27 -5 0 5 14 9 30 9 l30 0 0 -149 c0 -134 -2 -151 -20 -174 -41 -52 -147
-44 -170 13 -7 16 -9 34 -5 39 9 15 46 7 60 -12 27 -37 75 -10 75 43 0 17 -3
19 -19 10 -36 -19 -78 -12 -100 16 -16 21 -21 41 -21 88 0 85 8 106 44 122 39
17 36 17 69 0z m285 -22 c19 -22 22 -36 22 -120 l0 -95 -42 1 c-24 1 -54 -1
-68 -5 -35 -9 -80 27 -80 64 0 39 19 60 70 75 33 10 46 19 48 35 4 28 -31 29
-51 0 -22 -30 -63 -23 -59 11 10 70 109 91 160 34z m-3048 -94 l0 -120 -35 0
-35 0 0 113 c0 63 3 117 7 120 3 4 19 7 35 7 l28 0 0 -120z m2280 63 c19 -91
25 -93 45 -14 17 70 18 71 50 71 l33 0 -52 -177 -51 -178 -33 -3 c-29 -3 -33
-1 -29 15 31 106 31 95 -2 207 -18 59 -35 114 -38 122 -4 10 4 14 29 14 34 0
35 -1 48 -57z"/>
<path d="M6613 9773 c-20 -4 -23 -11 -23 -51 l0 -47 85 0 85 0 0 46 c0 40 -3
48 -22 53 -25 6 -90 6 -125 -1z"/>
<path d="M2262 6898 c-15 -57 -65 -507 -77 -688 -2 -36 -7 -107 -10 -159 -5
-66 -3 -91 4 -87 16 10 13 -5 -3 -18 -10 -8 -21 -69 -35 -201 -12 -104 -26
-219 -31 -255 -9 -55 -34 -300 -57 -557 -3 -35 -2 -63 3 -63 5 0 23 22 39 47
17 26 35 54 40 62 6 9 23 36 38 59 31 48 48 52 23 5 -15 -27 -25 -41 -89 -125
-20 -26 -24 -38 -15 -42 10 -5 10 -7 1 -12 -7 -3 -15 -22 -19 -42 -4 -20 -13
-46 -20 -57 -7 -11 -16 -47 -19 -81 l-7 -61 88 -11 c49 -7 188 -21 309 -31
247 -22 248 -21 280 46 10 21 42 89 72 152 61 128 61 131 16 256 -21 58 -26
91 -29 192 -1 79 3 143 12 180 7 32 13 81 14 108 0 28 6 75 14 105 16 62 14
69 -17 67 -32 -2 -51 -34 -54 -90 -3 -51 -32 -111 -65 -135 -10 -7 -18 -19
-18 -25 0 -15 -57 -77 -71 -77 -5 0 -9 -5 -9 -12 0 -6 -7 -19 -15 -29 -14 -15
-14 -18 2 -35 13 -12 14 -19 5 -22 -6 -2 -12 -12 -12 -23 0 -10 -5 -19 -11
-19 -6 0 -9 6 -6 13 2 6 -1 17 -8 24 -14 13 -16 11 -95 -60 -19 -18 -37 -31
-40 -30 -3 2 -20 -2 -39 -7 -22 -6 -39 -6 -46 0 -7 6 -16 2 -26 -11 -8 -12
-19 -28 -26 -37 -6 -10 -14 -14 -18 -10 -4 4 3 17 15 30 33 35 60 80 133 223
80 158 137 283 137 302 0 7 7 25 16 38 8 13 14 32 13 42 -2 10 11 37 27 60 17
23 37 56 44 73 12 28 11 32 -14 51 -50 39 -57 49 -46 68 5 10 6 21 3 25 -14
13 -22 5 -25 -26 -3 -32 -4 -33 -46 -30 -37 3 -44 1 -49 -17 -11 -44 -36 -19
-27 28 6 27 11 31 40 31 33 0 46 14 22 23 -8 2 1 12 19 23 18 11 33 22 33 25
0 4 -33 9 -72 13 -87 8 -110 14 -103 27 3 5 1 18 -5 29 -9 16 -8 20 4 20 17 0
26 28 23 75 -2 35 24 46 51 22 23 -21 145 -42 168 -29 9 5 36 7 60 4 29 -3 44
-1 44 7 0 6 -6 11 -13 11 -13 0 -77 76 -77 92 0 4 -7 8 -16 8 -10 0 -14 6 -10
15 3 8 1 15 -5 15 -11 0 -1 49 14 68 16 20 15 64 0 87 -9 13 -25 20 -46 20
-31 0 -32 1 -30 39 2 22 8 43 13 46 14 9 2 40 -15 40 -9 0 -15 -15 -18 -37
l-4 -38 -1 37 c-1 25 -11 47 -32 70 -16 18 -30 40 -30 50 0 10 -4 18 -10 18
-5 0 -10 7 -10 16 0 9 -8 39 -17 66 -15 40 -23 51 -45 55 -15 3 -25 9 -22 14
3 5 -8 9 -24 9 -26 0 -31 -5 -40 -42z"/>
<path d="M3615 6801 c-3 -6 -3 -10 2 -9 4 2 8 1 9 -2 0 -3 12 -23 25 -45 22
-35 59 -145 59 -175 0 -5 -15 -10 -32 -11 l-33 -1 28 -11 c15 -6 27 -18 27
-27 0 -9 5 -21 11 -27 23 -23 -2 -33 -30 -12 -33 24 -74 22 -79 -4 -4 -19 49
-47 91 -47 13 0 28 -5 35 -12 17 -17 15 -70 -3 -104 -9 -18 -15 -57 -15 -102
0 -67 -3 -76 -28 -101 -25 -26 -35 -28 -132 -34 -58 -3 -113 -9 -122 -12 -28
-11 -21 -30 19 -51 20 -10 45 -23 55 -29 10 -5 18 -21 19 -35 0 -23 1 -23 9
-5 5 11 9 15 9 9 1 -7 -12 -43 -27 -81 -25 -62 -27 -72 -15 -101 13 -31 12
-33 -52 -112 -36 -44 -62 -80 -57 -80 11 0 36 24 95 93 36 40 53 54 68 50 10
-3 19 -9 19 -14 0 -5 8 -9 19 -9 18 0 81 -56 81 -72 0 -4 8 -8 18 -8 39 -1 71
-57 42 -75 -5 -3 -10 -10 -10 -16 0 -16 25 -10 48 11 27 26 28 26 46 -12 17
-33 21 -68 9 -68 -5 0 -9 -15 -10 -33 -1 -17 -6 -63 -11 -102 -5 -38 -8 -72
-6 -74 11 -12 50 19 51 40 1 13 5 47 8 75 6 48 9 52 37 58 16 3 40 3 53 0 15
-4 41 5 79 28 32 18 68 39 82 46 13 7 24 19 24 26 0 7 14 30 30 51 17 21 30
46 30 56 0 11 4 19 10 19 5 0 7 7 4 15 -4 8 -1 22 6 30 9 11 11 33 6 70 -5 45
-3 55 9 55 8 0 15 4 15 9 0 5 15 12 34 15 23 4 37 14 41 27 4 12 15 29 25 39
11 11 16 27 13 38 -6 24 30 51 80 61 25 5 33 13 38 36 4 17 7 24 8 18 2 -27
20 -11 27 23 5 28 3 38 -12 49 -17 12 -20 11 -26 -4 -10 -28 -36 -33 -59 -10
-13 13 -27 18 -39 14 -11 -3 -28 -2 -37 4 -17 10 -17 10 1 11 15 0 16 3 7 14
-10 12 -6 16 21 25 39 12 126 16 149 7 17 -7 29 17 29 59 0 18 -5 20 -35 17
-47 -6 -45 14 3 25 35 8 37 10 39 53 1 25 0 39 -3 33 -4 -10 -11 -10 -26 -2
-11 6 -17 13 -14 16 9 9 -24 63 -38 63 -7 0 -19 -6 -25 -14 -13 -15 -58 -18
-67 -5 -8 14 -34 11 -34 -4 0 -6 -16 -17 -35 -23 -28 -9 -37 -8 -47 3 -7 9
-21 12 -35 8 -18 -4 -23 -1 -23 14 0 15 9 22 35 27 22 4 35 12 35 22 0 26 -33
41 -88 42 l-54 0 31 39 c17 21 31 45 32 52 0 8 4 4 9 -8 11 -26 50 -28 50 -1
0 9 5 20 10 23 19 12 9 30 -24 45 -36 17 -56 16 -56 -5 0 -27 -27 -38 -60 -24
-24 11 -30 20 -30 44 -1 32 -20 65 -38 65 -7 0 -7 -11 0 -36 15 -56 4 -50 -23
11 -13 30 -31 57 -39 60 -8 2 -94 7 -191 11 -126 4 -179 3 -184 -5z"/>
<path d="M3188 6248 c0 -13 0 -33 1 -44 1 -12 -5 -27 -14 -34 -8 -7 -20 -30
-26 -52 -10 -37 -61 -98 -82 -98 -5 0 -7 14 -5 32 6 35 -16 68 -44 68 -9 0
-20 5 -23 10 -9 14 -45 12 -49 -2 -18 -56 -16 -67 17 -98 24 -22 33 -38 30
-54 -3 -13 2 -28 11 -35 20 -17 21 -31 2 -31 -22 0 -28 -17 -14 -40 11 -17 11
-22 -1 -29 -18 -11 -5 -31 20 -31 12 0 24 -11 31 -27 10 -24 12 -25 16 -9 3
14 9 6 21 -29 21 -62 41 -75 80 -52 28 16 29 16 35 -6 3 -12 6 -43 6 -69 0
-27 5 -48 10 -48 6 0 10 28 10 65 l0 65 70 -6 c61 -6 70 -5 70 10 0 9 -11 21
-25 26 -32 12 -32 32 1 47 23 11 27 10 31 -7 3 -11 9 -20 14 -20 14 0 10 47
-5 63 -8 8 -18 31 -22 51 -3 21 -17 58 -29 84 -12 26 -26 70 -30 97 -4 28 -12
57 -19 65 -7 8 -25 48 -41 88 -29 74 -44 90 -47 50z"/>
<path d="M5384 5903 c-35 -7 -100 -69 -165 -159 -34 -46 -64 -84 -68 -84 -31
0 -41 68 -15 95 9 9 14 18 11 21 -3 3 -15 -4 -26 -15 -27 -27 -27 -69 1 -98
l21 -23 -28 -40 c-15 -22 -31 -40 -35 -40 -4 0 -13 13 -20 29 -18 43 -47 68
-63 52 -9 -10 -9 -14 4 -22 9 -5 27 -28 39 -51 l22 -42 -27 -23 c-14 -13 -35
-23 -47 -23 -19 0 -20 4 -15 60 3 33 3 60 1 60 -8 0 -34 -73 -34 -94 0 -48 51
-60 108 -26 l34 21 31 -23 c44 -33 78 -46 135 -54 55 -7 104 11 122 46 6 11
17 20 25 20 22 0 87 63 111 107 16 29 18 45 12 71 -12 46 -44 43 -98 -10 -54
-55 -81 -111 -70 -149 23 -79 -100 -92 -208 -22 -23 15 -42 32 -42 37 0 5 16
28 35 51 29 36 41 43 82 49 69 9 142 47 186 96 65 71 84 141 49 173 -27 25
-35 21 -16 -8 15 -23 14 -27 -9 -77 -13 -29 -39 -68 -58 -87 -53 -52 -169
-101 -169 -71 0 19 137 196 176 228 21 18 36 31 34 31 -3 -1 -15 -4 -26 -6z"/>
<path d="M4812 5784 c-49 -44 -122 -181 -122 -227 0 -33 2 -36 18 -28 26 14
162 153 162 165 0 6 -18 -10 -41 -37 -22 -26 -50 -52 -61 -58 -17 -9 -19 -8
-13 10 3 11 27 56 52 100 51 91 53 119 5 75z"/>
<path d="M4156 5370 c-69 -59 -256 -170 -285 -170 -6 0 -35 -11 -65 -25 -30
-14 -62 -25 -70 -25 -29 0 -46 -54 -46 -142 0 -101 -35 -240 -74 -296 -14 -21
-47 -62 -71 -91 -25 -29 -45 -56 -45 -59 0 -4 -19 -28 -42 -52 -24 -25 -49
-57 -57 -72 -8 -15 -18 -25 -23 -22 -5 4 -8 -4 -6 -17 4 -30 40 -37 65 -12 11
10 30 26 43 35 14 10 44 31 68 48 23 17 42 35 42 40 0 6 6 10 13 10 13 0 107
88 173 161 17 19 42 44 55 55 13 12 33 34 44 48 11 15 36 44 56 64 19 20 38
44 41 54 6 15 125 176 139 188 9 7 49 140 49 161 0 10 11 30 25 45 14 15 25
34 25 43 1 9 7 34 15 56 8 21 13 40 12 41 -1 0 -38 -29 -81 -66z"/>
</g>
</svg>
