<?xml version="1.0" standalone="no"?>
<!DOCTYPE svg PUBLIC "-//W3C//DTD SVG 20010904//EN"
 "http://www.w3.org/TR/2001/REC-SVG-20010904/DTD/svg10.dtd">
<svg version="1.0" xmlns="http://www.w3.org/2000/svg"
 width="720.000000pt" height="1280.000000pt" viewBox="0 0 720.000000 1280.000000"
 preserveAspectRatio="xMidYMid meet">
<metadata>
Created by potrace 1.16, written by Peter Selinger 2001-2019
</metadata>
<g transform="translate(0.000000,1280.000000) scale(0.100000,-0.100000)"
fill="#000000" stroke="none">
<path d="M0 6400 l0 -6400 3600 0 3600 0 0 1320 0 1320 -322 1 c-774 3 -1603
-3 -1606 -12 -2 -5 -104 -9 -232 -9 -134 0 -231 -4 -235 -10 -9 -14 6 -60 19
-60 7 0 19 -11 26 -25 15 -27 30 -33 30 -11 0 7 9 16 20 19 11 3 20 1 20 -4 0
-5 9 -9 20 -9 11 0 20 5 20 10 0 6 31 10 73 10 59 0 77 -4 95 -20 16 -15 35
-20 84 -20 63 -1 63 -1 96 -45 17 -24 32 -51 32 -60 0 -8 4 -15 9 -15 4 0 11
-17 14 -37 8 -49 11 -62 25 -96 7 -16 15 -59 18 -98 5 -48 11 -69 20 -69 8 0
14 -7 14 -15 0 -12 -70 -14 -538 -9 -295 3 -547 7 -559 10 -12 2 -32 14 -43
27 -18 18 -35 23 -108 28 -48 3 -102 11 -120 17 -17 7 -47 17 -65 24 -39 14
-90 15 -179 1 -72 -10 -99 -27 -118 -74 l-12 -29 -129 0 c-79 0 -129 4 -129
10 0 6 5 10 10 10 6 0 10 33 10 78 0 59 5 85 20 109 19 32 22 33 85 33 48 0
65 4 65 13 0 8 11 19 25 25 14 6 25 18 25 26 0 7 7 19 15 26 8 7 15 20 15 30
0 19 19 30 49 30 10 0 30 9 44 20 21 17 40 20 121 20 53 0 104 4 114 9 9 5 41
16 69 26 42 13 59 15 84 6 18 -6 55 -11 84 -11 52 0 52 0 63 39 16 51 17 49
-21 65 -23 9 -101 15 -263 19 -194 5 -251 10 -339 31 -5 1 -40 8 -77 16 -38 7
-68 17 -68 21 0 4 -11 9 -25 11 -14 3 -25 1 -25 -4 0 -5 -6 -16 -14 -24 -11
-11 -49 -14 -173 -14 -87 0 -291 -7 -453 -15 -419 -21 -647 -20 -792 4 -123
20 -135 24 -155 52 -7 9 -24 20 -38 23 -14 4 -49 21 -78 39 -60 38 -118 66
-148 72 -12 2 -26 8 -33 14 -6 5 -30 14 -53 20 -24 7 -43 16 -43 21 0 6 -8 10
-18 10 -17 0 -39 17 -70 55 -9 10 -31 15 -72 15 -33 0 -60 4 -60 10 0 25 -17
5 -35 -40 -11 -27 -24 -50 -30 -50 -6 0 -6 -3 1 -8 6 -4 11 -18 10 -32 -1 -16
4 -25 14 -25 8 0 24 -5 35 -12 18 -11 19 -26 23 -370 2 -228 -1 -369 -7 -386
l-11 -27 -651 0 -651 0 6 1678 c3 922 7 1732 8 1799 3 127 9 141 43 107 8 -9
22 -13 30 -10 12 4 15 -3 15 -34 0 -46 21 -143 32 -151 16 -10 48 -84 54 -121
4 -20 12 -39 19 -42 28 -10 37 -109 26 -281 -9 -160 -9 -167 12 -209 21 -43
23 -44 74 -48 38 -2 53 1 53 10 0 6 5 12 10 12 6 0 10 -7 10 -15 0 -8 7 -15
16 -15 9 0 29 -11 46 -25 30 -25 30 -25 247 -25 l217 0 1 63 c1 91 7 103 53
111 26 4 40 12 40 21 0 8 9 15 20 15 11 0 20 6 20 14 0 8 11 17 25 20 14 4 25
13 25 21 0 8 9 15 20 15 18 0 20 -7 20 -68 0 -63 2 -70 24 -80 18 -8 27 -22
32 -49 14 -75 56 -108 144 -116 42 -3 100 -30 100 -46 0 -3 15 -15 33 -24 44
-24 67 -87 67 -183 0 -56 4 -74 19 -88 17 -15 19 -15 31 -1 8 9 31 25 51 36
33 16 60 19 191 19 151 0 154 -1 204 -30 63 -36 73 -60 81 -190 3 -52 10 -103
15 -113 8 -16 11 -16 24 -2 23 22 49 18 68 -10 11 -17 16 -48 16 -108 0 -79
-1 -84 -25 -97 -13 -7 -27 -22 -31 -33 -4 -13 -13 -18 -29 -15 -17 4 -25 0
-29 -16 -9 -35 -6 -500 3 -515 8 -12 54 -13 278 -8 147 3 309 1 358 -4 57 -6
212 -5 425 3 370 12 640 15 800 8 100 -5 497 13 625 28 68 8 64 -5 42 137 -10
62 -14 172 -13 350 1 227 3 264 19 294 23 47 23 134 -1 158 -28 27 -43 133
-31 223 5 41 13 109 18 150 4 42 13 85 20 97 6 13 11 72 11 148 0 127 12 203
37 240 7 11 13 28 13 39 0 17 34 56 49 56 3 0 35 5 69 10 72 10 96 3 152 -44
63 -53 80 -97 80 -211 0 -83 -4 -107 -21 -139 -21 -41 -21 -44 7 -136 32 -106
55 -322 35 -334 -6 -4 -11 -25 -11 -47 0 -22 -4 -48 -10 -58 -13 -26 -14 -135
-2 -201 20 -102 28 -422 17 -612 -6 -93 -5 -97 16 -109 25 -13 157 -5 172 10
6 6 -4 16 -22 25 -18 10 -33 27 -37 43 -11 42 3 285 16 293 12 7 9 144 -5 236
-5 32 0 61 24 130 17 48 31 108 31 131 0 31 6 48 20 60 11 10 20 25 20 35 0
11 7 18 19 18 13 0 20 10 25 31 3 16 13 37 21 45 13 14 17 14 30 0 8 -8 15
-19 15 -25 0 -6 5 -11 10 -11 6 0 10 -9 10 -20 0 -11 6 -20 13 -20 9 0 8 -3
-2 -9 -8 -6 -9 -10 -2 -12 6 -2 14 -33 17 -69 4 -36 11 -68 16 -71 18 -11 52
-626 43 -766 -7 -104 -2 -108 131 -98 88 6 93 8 102 33 6 15 13 71 16 125 5
85 3 103 -14 135 -11 20 -20 51 -20 68 0 53 -12 97 -21 82 -13 -20 -23 1 -44
93 -11 45 -23 79 -30 79 -18 0 -30 142 -15 169 6 12 15 21 20 21 5 0 12 10 16
23 3 12 15 33 24 47 19 27 20 29 20 63 0 18 2 19 10 7 8 -13 10 -12 10 3 0 10
-7 20 -15 23 -8 4 -12 11 -8 17 4 6 6 30 4 54 -1 24 3 43 8 43 14 0 19 42 25
193 4 101 8 131 20 140 14 10 16 52 17 307 0 190 -4 314 -11 348 -8 36 -9 61
-2 81 13 38 5 41 -109 41 -87 0 -90 -1 -99 -25 -5 -14 -9 -29 -8 -33 3 -13
-13 -72 -20 -72 -4 -1 -30 -2 -58 -3 -34 -2 -57 -8 -69 -21 -15 -15 -28 -17
-69 -12 -28 3 -52 10 -54 16 -2 5 -15 10 -28 10 -21 0 -64 30 -64 45 0 3 0 10
0 15 0 6 -8 10 -17 11 -10 0 -13 3 -6 5 13 6 -19 44 -36 44 -5 0 -11 5 -13 12
-7 20 -211 26 -992 28 -1001 3 -1056 4 -1089 18 -39 17 -73 15 -103 -5 -23
-15 -73 -16 -575 -10 -516 6 -552 8 -590 26 -22 11 -53 23 -69 26 -17 4 -32
11 -35 16 -4 5 -14 9 -24 9 -9 0 -33 14 -51 30 -18 17 -39 30 -46 30 -6 0 -14
9 -17 20 -3 11 -19 25 -36 31 -17 6 -31 15 -31 20 0 5 -3 8 -7 7 -25 -5 -103
16 -103 28 0 8 -7 14 -15 14 -10 0 -15 10 -15 29 0 27 3 30 38 33 20 2 -37 7
-126 11 -97 4 -181 14 -205 22 -49 17 -222 20 -262 5 -15 -6 -190 -14 -389
-20 -199 -5 -369 -12 -379 -16 -16 -6 -17 94 -15 1737 l3 1744 3588 3 3587 2
0 1775 0 1775 -3600 0 -3600 0 0 -6400z m6786 3682 c159 -63 211 -265 105
-407 -25 -34 -27 -41 -14 -50 24 -18 0 -52 -48 -67 -33 -9 -47 -9 -72 2 -36
16 -116 15 -165 -1 -47 -15 -97 -4 -117 27 -13 20 -14 28 -4 40 10 12 8 19 -9
37 -37 39 -62 108 -62 171 0 78 16 128 58 176 79 93 205 120 328 72z m-643 2
c52 -18 116 -76 142 -130 60 -126 7 -282 -117 -344 -139 -69 -312 -20 -376
106 -42 84 -38 184 12 267 25 41 43 58 94 84 54 28 75 33 131 33 37 0 88 -7
114 -16z m-5806 -224 c52 -224 51 -200 11 -200 -31 0 -36 4 -41 30 -6 27 -11
30 -42 30 -19 0 -38 0 -42 1 -4 0 -11 -14 -16 -30 -7 -27 -12 -31 -41 -31
l-34 0 14 58 c7 31 26 110 41 175 l27 118 44 -3 45 -3 34 -145z m373 58 l1
-93 30 38 c23 27 39 37 60 37 16 0 29 -3 29 -6 0 -4 -16 -28 -35 -54 l-34 -47
28 -45 c56 -89 56 -88 17 -88 -30 0 -38 5 -57 40 -26 45 -39 43 -39 -6 0 -31
-2 -34 -30 -34 l-30 0 0 175 0 175 30 0 30 0 0 -92z m1740 -83 l0 -176 -42 1
c-24 1 -54 -1 -68 -5 -43 -11 -77 25 -85 88 -7 58 7 128 30 147 17 14 51 17
83 6 21 -7 22 -5 22 53 l0 61 30 0 30 0 0 -175z m452 83 l3 -92 25 37 c20 30
31 37 58 37 30 0 42 -12 24 -24 -5 -3 -21 -23 -36 -44 l-27 -40 40 -66 41 -66
-35 0 c-30 0 -39 6 -62 43 l-28 42 -3 -42 c-3 -42 -4 -43 -38 -43 l-34 0 0
168 c0 93 3 172 7 175 3 4 19 7 34 7 l28 0 3 -92z m728 27 l0 -66 30 16 c33
17 60 13 85 -11 11 -12 15 -40 15 -120 l0 -104 -30 0 -29 0 -3 92 c-3 83 -5
93 -22 96 -33 7 -46 -25 -46 -110 l0 -78 -30 0 -30 0 0 175 0 175 30 0 30 0 0
-65z m530 4 c0 -58 1 -60 23 -53 76 26 107 -8 107 -118 0 -71 -2 -81 -26 -105
-20 -20 -31 -24 -52 -18 -15 4 -46 6 -69 5 l-43 -1 0 176 0 175 30 0 30 0 0
-61z m-1480 -9 c0 -38 2 -40 30 -40 25 0 30 -4 30 -25 0 -21 -5 -25 -30 -25
l-31 0 3 -67 c3 -66 4 -68 31 -71 21 -3 27 -8 23 -19 -3 -8 -6 -19 -6 -24 0
-16 -73 -10 -92 8 -14 13 -18 31 -18 90 0 66 -2 75 -20 80 -13 3 -20 14 -20
29 0 17 6 24 20 24 17 0 20 7 20 40 0 38 2 40 30 40 28 0 30 -2 30 -40z
m-2096 -61 c24 -23 34 -121 17 -172 -15 -44 -59 -66 -97 -48 -14 6 -27 11 -29
11 -3 0 -5 -30 -5 -66 l0 -65 -27 3 -28 3 -3 179 -2 179 37 -5 c21 -3 47 -2
58 3 26 10 55 2 79 -22z m402 21 c8 0 23 -9 34 -20 17 -17 20 -33 20 -121 l0
-101 -32 3 c-18 1 -48 -1 -66 -5 -50 -12 -82 13 -82 64 0 44 20 64 83 81 28 7
37 15 35 27 -5 26 -48 28 -55 3 -6 -25 -51 -29 -60 -5 -13 34 56 90 95 78 8
-2 20 -4 28 -4z m290 0 c39 -15 53 -39 54 -87 l0 -43 -61 0 c-60 0 -60 0 -57
-27 3 -32 44 -46 54 -19 4 10 18 16 35 16 35 0 39 -25 10 -61 -27 -34 -99 -34
-135 0 -23 22 -26 32 -26 96 0 79 20 120 63 128 12 2 25 5 29 6 4 0 19 -4 34
-9z m201 -1 c32 -12 43 -26 43 -56 0 -31 -45 -33 -53 -3 -7 26 -47 27 -47 1 0
-12 12 -23 33 -31 74 -30 97 -83 58 -131 -40 -50 -151 -22 -151 38 0 31 42 32
62 1 9 -14 20 -19 31 -15 31 12 18 37 -28 57 -75 32 -87 107 -22 135 39 17 39
17 74 4z m197 -3 c31 -13 53 -55 38 -71 -14 -14 -50 -3 -55 16 -4 13 -12 20
-24 17 -29 -5 -21 -32 15 -50 73 -36 92 -81 53 -129 -15 -19 -29 -24 -66 -24
-37 0 -51 5 -66 24 -29 36 -25 61 10 61 21 0 30 -6 34 -21 7 -25 40 -22 45 3
2 12 -11 24 -43 39 -74 35 -85 107 -21 135 39 17 40 17 80 0z m205 3 c17 -6
36 -19 41 -29 6 -10 10 -62 10 -115 l0 -97 -32 3 c-18 1 -48 -1 -66 -5 -50
-12 -82 13 -82 64 0 44 20 64 83 81 28 7 37 15 35 27 -5 25 -45 27 -58 3 -11
-22 -44 -28 -55 -10 -13 21 5 57 37 72 40 20 46 20 87 6z m319 -22 c16 -15 22
-32 22 -64 l0 -43 -61 0 c-60 0 -60 0 -57 -27 3 -32 44 -46 54 -19 9 23 64 21
64 -2 0 -69 -107 -94 -163 -37 -23 23 -24 151 -1 183 32 46 97 50 142 9z
m1000 -3 c18 -21 22 -36 22 -98 0 -58 -4 -76 -20 -94 -43 -45 -130 -36 -157
18 -16 32 -17 121 -1 156 26 56 112 66 156 18z m240 8 c8 -10 12 -52 12 -119
l0 -103 -30 0 -30 0 0 90 c0 99 -12 119 -50 85 -17 -15 -20 -31 -20 -97 l0
-78 -30 0 -30 0 0 120 0 120 29 0 c16 0 31 -5 33 -11 2 -6 14 -5 33 5 33 17
63 13 83 -12z m530 -8 c15 -17 22 -38 22 -65 l0 -39 -61 0 c-60 0 -60 0 -57
-27 3 -32 44 -46 54 -19 4 10 18 16 35 16 35 0 40 -29 9 -60 -27 -27 -63 -34
-105 -20 -46 15 -55 34 -55 123 0 64 3 76 23 94 12 11 29 23 37 26 28 11 75
-3 98 -29z m539 12 c7 -6 13 -53 15 -116 l3 -105 -32 -3 -33 -3 0 91 c0 72 -3
92 -15 96 -33 13 -45 -15 -45 -102 l0 -84 -35 0 -35 0 0 120 0 120 35 0 c19 0
35 -4 35 -9 0 -6 12 -3 28 4 28 15 58 12 79 -9z m221 -12 c19 -22 22 -36 22
-120 l0 -95 -42 1 c-24 1 -54 -1 -68 -5 -35 -9 -80 27 -80 64 0 39 19 60 70
75 33 10 46 19 48 35 4 28 -31 29 -51 0 -22 -30 -63 -23 -59 11 10 70 109 91
160 34z m391 25 c36 -13 61 -53 61 -99 l0 -30 -59 0 c-65 0 -73 -5 -64 -38 6
-26 53 -32 53 -7 0 11 11 15 36 15 32 0 35 -2 29 -22 -13 -43 -42 -63 -90 -63
-64 0 -87 27 -93 105 -5 75 11 118 52 136 38 16 36 16 75 3z m204 -3 c15 -8
27 -11 27 -5 0 5 14 9 30 9 l30 0 0 -149 c0 -134 -2 -151 -20 -174 -41 -52
-147 -44 -170 13 -7 16 -9 34 -5 39 10 18 44 12 57 -9 26 -41 78 -15 78 40 0
17 -3 19 -19 10 -36 -19 -78 -12 -100 16 -16 21 -21 41 -21 90 0 72 13 107 44
122 29 14 37 14 69 -2z m285 -22 c19 -22 22 -36 22 -120 l0 -95 -42 1 c-24 1
-54 -1 -68 -5 -34 -9 -80 27 -80 61 0 42 17 62 70 79 37 12 50 22 50 36 0 26
-36 25 -50 -1 -11 -20 -54 -28 -64 -12 -10 16 29 76 54 84 40 11 83 0 108 -28z
m-3048 -94 l0 -120 -35 0 -35 0 0 113 c0 63 3 117 7 120 3 4 19 7 35 7 l28 0
0 -120z m2280 63 c19 -91 25 -93 45 -14 17 70 18 71 50 71 l33 0 -24 -82 c-79
-281 -76 -273 -113 -276 -28 -3 -33 -1 -27 14 29 76 29 101 -4 209 -17 59 -34
113 -37 121 -4 10 4 14 29 14 34 0 35 -1 48 -57z m-2852 -4508 c42 -17 91 -65
109 -107 8 -17 12 -99 13 -235 2 -366 4 -343 -30 -382 -17 -18 -30 -37 -30
-40 0 -4 -17 -15 -37 -26 -31 -17 -54 -20 -149 -18 -129 1 -157 11 -220 80
-71 76 -79 108 -78 343 0 113 4 221 8 240 18 74 90 141 166 153 68 11 212 6
248 -8z m265 -3029 c8 -8 24 -12 40 -9 23 5 29 1 42 -31 8 -19 15 -51 15 -70
0 -19 7 -41 15 -50 8 -8 15 -26 15 -40 0 -27 15 -36 23 -13 5 16 240 14 245
-2 5 -14 152 -15 152 -1 0 6 16 10 35 10 19 0 35 -4 35 -8 0 -4 8 -8 18 -9 9
-1 49 -6 87 -11 51 -7 -43 -9 -350 -8 -491 1 -465 -4 -465 92 0 48 6 74 26
113 28 53 43 61 67 37z"/>
<path d="M6613 9773 c-20 -4 -23 -11 -23 -51 l0 -47 85 0 85 0 0 46 c0 40 -3
48 -22 53 -25 6 -90 6 -125 -1z"/>
<path d="M733 7303 l-152 -4 -7 -34 c-7 -40 13 -69 37 -54 21 13 32 11 26 -5
-4 -10 -1 -13 7 -10 9 3 15 -6 19 -25 5 -23 14 -32 34 -37 15 -4 31 -12 36
-18 5 -7 12 -5 21 7 7 9 20 15 28 12 12 -5 17 4 22 34 5 31 16 48 51 78 39 32
61 68 38 61 -5 -1 -76 -4 -160 -5z"/>
<path d="M563 6711 c-52 -9 -57 -13 -55 -53 2 -72 -7 -95 -38 -102 -18 -3 -30
-12 -30 -21 0 -8 -4 -15 -8 -15 -15 0 -32 -94 -19 -102 8 -5 4 -14 -12 -27
-20 -18 -22 -26 -17 -64 l7 -43 69 -13 c71 -13 344 -6 320 9 -6 4 -8 14 -4 23
4 12 1 17 -10 17 -9 0 -16 5 -16 10 0 6 -9 10 -20 10 -18 0 -20 7 -20 56 0 30
-5 64 -11 76 -6 11 -15 50 -20 86 -5 36 -16 79 -24 95 -8 17 -15 36 -15 42 0
10 -26 29 -33 24 -1 -1 -21 -5 -44 -8z"/>
<path d="M6522 5430 c-19 -4 -38 -12 -42 -16 -12 -13 -13 -98 -5 -459 4 -176
12 -328 16 -337 6 -11 5 -19 -2 -24 -8 -5 -10 -184 -7 -668 l4 -660 35 -10
c19 -5 179 -11 357 -13 l322 -4 0 1101 0 1100 -322 -1 c-178 -1 -338 -5 -356
-9z"/>
<path d="M152 4226 c20 -6 46 -23 58 -38 26 -34 61 -36 102 -7 26 19 38 21 91
15 33 -3 68 -13 78 -21 9 -9 33 -19 53 -22 29 -5 36 -3 36 11 0 9 11 28 25 42
14 14 25 27 25 29 0 3 -114 5 -252 4 -206 -1 -246 -3 -216 -13z"/>
<path d="M1460 3874 c0 -28 -3 -35 -15 -31 -9 4 -26 -9 -46 -34 -30 -38 -31
-42 -20 -84 17 -69 14 -88 -22 -124 l-34 -32 -6 -147 c-3 -81 -3 -159 0 -174
l5 -28 99 0 c72 0 99 -3 100 -12 0 -7 5 -2 10 11 11 29 15 224 9 483 l-4 196
-29 6 c-46 9 -47 8 -47 -30z"/>
</g>
</svg>
