<?xml version="1.0" standalone="no"?>
<!DOCTYPE svg PUBLIC "-//W3C//DTD SVG 20010904//EN"
 "http://www.w3.org/TR/2001/REC-SVG-20010904/DTD/svg10.dtd">
<svg version="1.0" xmlns="http://www.w3.org/2000/svg"
 width="720.000000pt" height="1280.000000pt" viewBox="0 0 720.000000 1280.000000"
 preserveAspectRatio="xMidYMid meet">
<metadata>
Created by potrace 1.16, written by Peter Selinger 2001-2019
</metadata>
<g transform="translate(0.000000,1280.000000) scale(0.100000,-0.100000)"
fill="#000000" stroke="none">
<path d="M0 6400 l0 -6400 3600 0 3600 0 0 1025 0 1025 -3590 0 -3590 0 0
2293 c0 2125 3 2550 19 2575 7 12 61 3 61 -10 0 -15 57 -68 65 -60 3 4 11 -1
16 -11 6 -9 17 -17 24 -17 8 0 15 -4 15 -10 0 -5 15 -16 34 -24 24 -10 35 -22
39 -45 4 -18 13 -31 22 -31 17 0 55 -35 55 -50 0 -5 7 -10 15 -10 8 0 19 -9
25 -20 9 -16 20 -20 61 -18 39 2 53 -2 60 -15 6 -9 16 -17 24 -17 7 0 16 -13
20 -30 4 -16 13 -30 21 -30 8 0 14 -7 14 -15 0 -8 14 -17 35 -21 19 -3 35 -12
35 -19 0 -7 19 -16 45 -19 36 -6 45 -11 45 -27 0 -14 -7 -19 -25 -19 -30 0
-34 -26 -5 -35 11 -3 20 -10 20 -15 0 -4 9 -10 20 -13 13 -3 20 0 20 9 0 8 5
14 10 14 6 0 10 -7 10 -15 0 -10 14 -17 40 -21 22 -4 40 -10 40 -15 0 -5 7 -9
14 -9 18 0 66 -43 66 -59 0 -6 7 -11 15 -11 8 0 15 -4 15 -10 0 -5 9 -10 20
-10 11 0 23 -6 26 -14 3 -8 19 -18 35 -21 20 -5 29 -13 29 -26 0 -10 7 -19 15
-19 8 0 42 -7 75 -17 46 -12 60 -21 62 -37 4 -25 48 -36 48 -12 0 13 15 16 95
16 l95 0 0 70 c0 62 2 70 19 70 25 0 31 19 31 104 0 60 3 74 20 86 14 10 21
31 26 82 l7 68 33 0 c33 0 34 1 34 40 l0 40 40 0 c40 0 40 0 40 39 0 22 -5 41
-12 44 -7 2 11 2 40 -1 35 -3 52 -1 52 7 0 6 11 11 25 11 21 0 25 5 25 30 0
20 5 30 15 30 9 0 15 9 15 25 0 14 -4 25 -10 25 -5 0 -10 7 -10 15 0 11 12 15
50 15 l50 0 0 40 c0 22 5 40 10 40 6 0 10 11 10 24 0 14 5 28 10 31 5 3 10 19
10 36 0 22 5 29 20 29 18 0 20 7 20 59 l0 58 62 7 c75 8 98 25 98 78 0 27 4
38 15 38 9 0 15 -10 16 -22 1 -15 4 -10 11 15 6 21 17 41 24 44 10 4 14 26 14
84 0 60 3 79 14 79 7 0 26 29 42 65 l29 64 68 1 c53 0 67 3 67 15 0 8 5 15 10
15 6 0 10 18 10 40 0 30 4 40 16 40 9 0 22 17 31 40 9 22 20 40 25 40 4 0 8
13 8 28 0 36 16 52 52 52 26 0 28 3 28 40 0 29 4 40 15 40 12 0 15 15 15 72 0
70 16 138 32 138 4 0 8 6 8 14 0 8 13 28 30 46 16 18 30 34 30 36 0 3 14 18
30 34 17 16 30 35 30 43 0 7 10 33 22 58 l22 44 6 -40 6 -40 15 35 c10 22 12
37 6 41 -13 9 0 29 19 29 9 0 14 11 14 30 0 25 4 30 25 30 21 0 25 5 25 29 0
27 22 47 39 36 4 -2 24 0 43 6 32 8 36 13 40 49 2 22 0 40 -5 40 -5 0 -7 7 -3
15 3 8 1 15 -4 15 -6 0 -10 7 -10 15 0 21 30 19 30 -2 1 -15 3 -15 19 5 11 12
29 22 40 22 14 0 21 6 21 20 0 22 15 27 24 8 5 -10 7 -10 12 0 3 6 12 12 20
12 10 0 14 13 15 43 1 39 2 40 9 12 7 -29 8 -28 9 11 1 36 5 43 31 54 16 7 30
19 30 26 0 8 9 14 20 14 10 0 24 9 30 20 6 11 7 20 3 20 -4 0 -2 5 5 12 7 7
12 25 12 40 0 17 5 28 14 28 17 0 26 22 26 65 0 50 19 60 93 48 34 -6 69 -7
77 -3 31 16 423 20 1933 20 l1557 0 0 1775 0 1775 -3600 0 -3600 0 0 -6400z
m6782 3684 c50 -17 112 -73 138 -125 44 -85 32 -202 -29 -284 -25 -34 -27 -41
-14 -50 14 -10 14 -14 -2 -38 -22 -35 -88 -46 -136 -23 -29 13 -43 14 -94 4
-106 -20 -142 -17 -169 17 -22 27 -22 31 -7 41 15 11 14 14 -6 36 -63 67 -82
200 -42 288 60 133 208 188 361 134z m-639 0 c52 -18 116 -76 142 -130 22 -47
30 -130 16 -180 -32 -119 -134 -194 -265 -194 -165 0 -272 106 -270 266 2 153
105 252 265 253 36 1 86 -6 112 -15z m-5839 -91 c10 -34 76 -315 76 -324 0 -5
-16 -9 -35 -9 -30 0 -35 3 -35 24 0 31 -13 39 -59 39 -31 0 -36 -3 -43 -31 -8
-28 -13 -32 -42 -32 l-34 0 14 58 c7 31 25 110 40 175 l28 117 42 0 c32 0 44
-4 48 -17z m406 -75 l1 -93 30 38 c23 27 39 37 60 37 16 0 29 -3 29 -6 0 -4
-16 -27 -35 -53 l-34 -47 21 -35 c11 -19 29 -49 40 -66 l20 -33 -36 0 c-30 0
-38 5 -57 40 -26 45 -39 43 -39 -6 0 -31 -2 -34 -30 -34 l-30 0 0 175 0 175
30 0 30 0 0 -92z m1740 -83 l0 -176 -42 1 c-24 1 -55 -1 -69 -5 -19 -5 -33 -1
-55 18 -27 24 -29 29 -29 106 0 69 3 84 21 102 23 22 55 28 92 15 21 -7 22 -5
22 53 l0 61 30 0 30 0 0 -175z m452 83 l3 -92 25 37 c20 30 31 37 58 37 30 0
42 -12 24 -24 -5 -3 -21 -23 -36 -44 l-27 -40 41 -66 41 -67 -38 3 c-32 3 -41
9 -58 40 -26 49 -35 48 -35 -2 0 -39 -1 -40 -35 -40 l-35 0 0 175 0 175 35 0
34 0 3 -92z m728 28 l0 -65 35 15 c28 11 40 12 58 3 34 -18 37 -27 37 -136 l0
-103 -30 0 -30 0 0 90 c0 75 -3 92 -16 97 -37 14 -49 -10 -52 -101 l-3 -86
-29 0 -30 0 0 175 0 175 30 0 30 0 0 -64z m530 3 c0 -58 1 -60 23 -53 76 26
107 -8 107 -118 0 -71 -2 -81 -26 -105 -20 -20 -31 -24 -52 -18 -15 4 -46 6
-69 5 l-43 -1 0 176 0 175 30 0 30 0 0 -61z m-1480 -9 c0 -38 2 -40 30 -40 25
0 30 -4 30 -25 0 -21 -5 -25 -30 -25 l-31 0 3 -67 c3 -66 4 -68 31 -71 21 -3
27 -8 23 -19 -3 -8 -6 -19 -6 -24 0 -16 -73 -10 -92 8 -14 13 -18 31 -18 90 0
66 -2 75 -20 80 -13 3 -20 14 -20 29 0 17 6 24 20 24 17 0 20 7 20 40 0 38 2
40 30 40 28 0 30 -2 30 -40z m-2096 -61 c24 -23 34 -121 17 -172 -15 -44 -59
-66 -97 -48 -14 6 -27 11 -29 11 -3 0 -5 -29 -5 -65 l0 -65 -30 0 -30 0 0 181
0 182 38 -5 c20 -3 46 -2 57 3 26 10 55 2 79 -22z m405 20 c17 -6 36 -19 41
-29 6 -10 10 -62 10 -115 l0 -97 -32 3 c-18 1 -48 -1 -66 -5 -50 -12 -82 13
-82 64 0 44 20 64 83 81 28 7 37 15 35 27 -5 25 -45 27 -58 3 -13 -25 -48 -28
-57 -5 -8 21 28 67 58 75 35 10 33 10 68 -2z m287 1 c39 -15 53 -39 54 -87 l0
-43 -61 0 c-60 0 -60 0 -57 -27 3 -32 44 -46 54 -19 9 23 64 21 64 -2 0 -51
-67 -84 -124 -62 -45 17 -55 38 -56 116 0 78 20 119 63 127 12 2 25 5 29 6 4
0 19 -4 34 -9z m201 -1 c32 -12 43 -26 43 -56 0 -31 -45 -33 -53 -2 -7 24 -40
23 -45 -2 -2 -10 9 -21 30 -29 75 -30 98 -83 59 -131 -40 -50 -151 -22 -151
38 0 19 5 23 30 23 24 0 30 -4 30 -21 0 -15 5 -20 22 -17 42 6 33 36 -16 58
-76 32 -89 107 -23 135 39 17 39 17 74 4z m202 -4 c26 -13 46 -56 33 -70 -14
-14 -50 -3 -55 16 -4 13 -12 20 -24 17 -29 -5 -21 -32 15 -50 73 -36 92 -81
53 -129 -15 -19 -29 -24 -66 -24 -37 0 -51 5 -66 24 -29 36 -25 61 10 61 21 0
30 -6 34 -21 7 -25 40 -22 45 4 3 12 -9 23 -42 37 -74 31 -86 108 -22 136 40
17 51 17 85 -1z m200 4 c17 -6 36 -19 41 -29 6 -10 10 -62 10 -115 l0 -97 -32
3 c-18 1 -48 -1 -66 -5 -50 -12 -82 13 -82 64 0 44 20 64 83 81 28 7 37 15 35
27 -5 25 -45 27 -58 3 -11 -22 -44 -28 -55 -11 -12 20 8 59 38 74 38 19 45 19
86 5z m318 -21 c17 -16 23 -33 23 -65 l0 -43 -61 0 c-60 0 -60 0 -57 -27 3
-32 44 -46 54 -19 9 23 64 21 64 -2 0 -49 -66 -84 -121 -64 -50 20 -59 37 -59
121 0 68 3 80 23 98 12 11 29 23 37 26 25 10 73 -2 97 -25z m1001 -4 c18 -21
22 -36 22 -98 0 -77 -15 -107 -61 -121 -31 -10 -84 3 -105 26 -23 26 -31 127
-13 170 24 60 111 73 157 23z m240 8 c8 -10 12 -52 12 -119 l0 -103 -30 0 -30
0 0 90 c0 75 -3 92 -17 97 -32 12 -53 -32 -53 -113 l0 -74 -30 0 -30 0 0 120
0 120 29 0 c16 0 31 -5 33 -11 2 -6 14 -5 33 5 33 17 63 13 83 -12z m530 -8
c15 -17 22 -38 22 -65 l0 -39 -61 0 c-60 0 -60 0 -57 -27 3 -32 44 -46 54 -19
4 10 18 16 35 16 22 0 29 -5 29 -20 0 -42 -64 -79 -115 -66 -52 13 -65 39 -65
124 0 69 3 81 23 99 12 11 29 23 37 26 28 11 75 -3 98 -29z m539 12 c7 -6 13
-53 15 -116 l3 -105 -32 -3 -33 -3 0 91 c0 72 -3 92 -15 96 -33 13 -45 -15
-45 -102 l0 -84 -35 0 -35 0 0 120 0 120 35 0 c19 0 35 -4 35 -9 0 -6 12 -3
28 4 28 15 58 12 79 -9z m221 -12 c19 -22 22 -36 22 -120 l0 -95 -42 1 c-24 1
-54 -1 -68 -5 -34 -9 -80 27 -80 61 0 41 18 63 63 75 52 15 67 26 60 45 -8 21
-41 17 -55 -6 -12 -19 -48 -27 -60 -14 -15 14 11 60 43 77 43 22 86 16 117
-19z m391 25 c36 -13 61 -53 61 -99 l0 -30 -59 0 c-65 0 -73 -5 -64 -38 6 -26
53 -32 53 -7 0 11 11 15 36 15 32 0 35 -2 29 -22 -13 -43 -42 -63 -90 -63 -64
0 -87 27 -93 105 -5 75 11 118 52 136 38 16 36 16 75 3z m204 -3 c15 -8 27
-11 27 -5 0 5 14 9 30 9 l30 0 0 -149 c0 -134 -2 -151 -20 -174 -41 -52 -147
-44 -170 13 -7 16 -9 34 -5 39 9 15 46 7 60 -12 27 -37 75 -10 75 43 0 17 -3
19 -19 10 -36 -19 -78 -12 -100 16 -16 21 -21 41 -21 88 0 85 8 106 44 122 39
17 36 17 69 0z m285 -22 c19 -22 22 -36 22 -120 l0 -95 -42 1 c-24 1 -54 -1
-68 -5 -35 -9 -80 27 -80 64 0 39 19 60 70 75 33 10 46 19 48 35 4 28 -31 29
-51 0 -22 -30 -63 -23 -59 11 10 70 109 91 160 34z m-3048 -94 l0 -120 -35 0
-35 0 0 113 c0 63 3 117 7 120 3 4 19 7 35 7 l28 0 0 -120z m2280 63 c19 -91
25 -93 45 -14 17 70 18 71 50 71 l33 0 -52 -177 -51 -178 -34 -3 c-28 -3 -33
-1 -27 14 29 76 29 101 -4 209 -17 59 -34 113 -37 121 -4 10 4 14 29 14 34 0
35 -1 48 -57z"/>
<path d="M6613 9773 c-20 -4 -23 -11 -23 -51 l0 -47 85 0 85 0 0 46 c0 40 -3
48 -22 53 -25 6 -90 6 -125 -1z"/>
<path d="M2746 6863 c-8 -116 -25 -257 -36 -313 -6 -25 -12 -83 -16 -130 -3
-47 -9 -141 -14 -210 -5 -69 -11 -154 -14 -190 -3 -38 -2 -55 2 -40 l8 25 6
-27 c3 -19 1 -28 -7 -28 -19 0 -22 -22 -45 -285 -11 -132 -31 -341 -45 -465
-32 -301 -36 -358 -25 -365 5 -3 12 5 16 17 8 26 96 158 105 158 3 0 -4 -21
-17 -47 -13 -27 -24 -54 -24 -61 0 -7 -9 -22 -20 -34 -11 -12 -20 -30 -20 -39
0 -10 -4 -21 -10 -24 -5 -3 -10 -14 -10 -23 0 -9 -7 -29 -15 -45 -8 -15 -17
-54 -21 -86 -6 -52 -4 -60 12 -64 20 -6 289 -31 489 -46 140 -10 158 -4 183
63 9 22 40 87 69 144 29 57 53 114 53 127 0 28 -21 105 -51 190 -19 53 -20 75
-16 195 5 117 23 287 43 398 6 31 5 32 -25 30 -43 -3 -50 -15 -56 -87 -3 -34
-11 -74 -19 -89 -7 -15 -16 -39 -20 -54 -3 -16 -11 -28 -17 -28 -6 0 -7 5 -4
10 3 6 -1 10 -9 10 -9 0 -16 -7 -16 -14 0 -8 -10 -26 -22 -39 -67 -72 -73 -83
-73 -121 -1 -22 -6 -41 -13 -44 -7 -2 -12 3 -12 12 0 27 -28 18 -73 -23 -55
-50 -100 -73 -135 -67 -15 2 -28 5 -29 5 -1 1 31 67 71 149 41 81 80 163 89
182 41 93 57 134 57 147 0 7 7 25 16 38 11 17 14 36 10 55 -3 18 -1 30 5 30
17 0 35 23 63 77 22 44 24 54 13 77 -7 14 -24 30 -39 35 -18 7 -28 17 -28 30
0 12 5 21 10 21 6 0 10 5 10 10 0 15 -40 12 -41 -2 -1 -7 -2 -20 -3 -28 -1
-10 -14 -16 -38 -18 -25 -2 -43 -11 -53 -25 -20 -29 -37 -11 -27 28 7 24 14
31 41 33 26 3 30 6 21 17 -8 10 -3 19 21 38 l31 24 -58 7 c-102 12 -127 18
-113 27 10 6 10 10 -1 23 -11 14 -10 19 5 36 13 14 16 30 12 59 -6 48 10 59
46 30 14 -10 40 -19 59 -19 18 -1 52 -5 76 -9 26 -5 42 -5 42 1 0 6 24 8 55 6
30 -1 55 0 55 3 0 3 -13 15 -28 26 -16 12 -37 37 -46 57 -9 20 -21 36 -26 36
-6 0 -10 7 -10 15 0 8 -4 15 -10 15 -5 0 -10 -7 -10 -15 0 -8 -7 -15 -15 -15
-20 0 -19 17 3 29 20 11 45 87 40 127 -2 19 -11 33 -26 39 -14 6 -20 15 -16
25 7 18 7 17 5 58 -1 20 -6 32 -15 32 -8 0 -17 7 -20 16 -5 14 -8 14 -21 0
-17 -17 -20 -46 -5 -46 6 0 10 -13 10 -30 0 -26 -3 -30 -27 -29 -18 1 -22 3
-10 6 16 4 17 12 11 65 -4 39 -14 68 -25 79 -11 11 -19 28 -19 39 0 11 -6 20
-14 20 -15 0 -31 34 -22 48 3 5 -4 16 -15 25 -10 9 -19 28 -19 42 0 30 -30 45
-90 45 l-38 0 -6 -87z"/>
<path d="M4127 6823 c4 -9 19 -28 34 -42 34 -32 77 -175 58 -197 -8 -10 -7
-21 5 -45 26 -51 21 -62 -16 -39 -41 25 -74 25 -87 1 -9 -15 -5 -21 27 -34 20
-9 53 -16 72 -14 l35 2 -2 -55 c-3 -86 -13 -223 -18 -246 -8 -36 -50 -54 -166
-69 -61 -8 -115 -17 -120 -20 -14 -9 -11 -35 4 -35 8 0 30 -15 50 -32 45 -40
53 -87 25 -144 -21 -44 -23 -65 -6 -82 15 -15 3 -41 -60 -125 -28 -37 -47 -67
-43 -67 9 0 73 68 110 118 26 34 58 42 68 16 3 -8 12 -13 20 -10 7 3 30 -11
53 -34 21 -21 53 -46 71 -55 29 -16 31 -19 25 -56 -7 -44 0 -48 38 -18 15 12
28 20 30 18 36 -54 48 -99 25 -99 -8 0 -8 -4 0 -14 9 -11 9 -20 2 -34 -6 -11
-13 -53 -17 -94 -3 -40 -12 -90 -20 -111 -16 -43 -15 -97 2 -97 6 0 25 5 42
11 l30 10 7 140 c8 155 2 145 87 140 38 -3 81 16 134 56 18 13 36 23 40 22 31
-5 44 3 44 27 0 14 4 23 9 20 5 -3 20 17 33 44 27 55 36 147 18 194 -14 38 2
63 48 75 23 7 48 24 65 46 15 19 35 35 43 35 13 0 13 -4 -1 -30 -14 -27 -14
-30 4 -40 11 -5 36 -10 55 -10 32 0 36 3 45 38 17 58 15 61 -24 55 -29 -5 -35
-3 -35 12 0 10 -3 15 -6 12 -8 -8 -44 10 -44 22 0 5 21 15 48 22 26 7 53 15
60 17 6 2 12 -5 13 -15 1 -28 17 31 25 93 3 30 2 54 -2 53 -25 -4 -36 2 -30
19 5 12 2 11 -11 -5 -15 -18 -28 -21 -79 -21 -34 0 -67 4 -75 9 -8 5 -9 9 -3
9 7 0 14 9 17 19 5 21 45 30 142 34 55 2 65 9 65 48 0 22 -4 26 -24 24 -23 -3
-54 10 -46 19 3 2 19 6 35 8 22 2 32 9 36 28 11 41 10 70 -2 70 -5 0 -7 -5 -3
-11 5 -8 1 -8 -13 0 -11 5 -26 24 -33 40 -15 37 -30 43 -66 25 -22 -12 -33
-13 -50 -3 -17 9 -29 8 -53 -2 -17 -8 -31 -17 -31 -21 0 -14 -36 -14 -52 0
-14 11 -21 12 -32 3 -11 -9 -15 -8 -20 5 -3 8 -6 17 -6 19 0 1 15 6 34 9 19 4
37 13 40 21 8 21 -41 56 -69 49 -13 -3 -33 -3 -44 1 -18 5 -19 9 -8 28 25 46
45 68 49 55 3 -7 17 -13 31 -13 21 -1 26 3 22 16 -3 10 -1 20 5 24 20 12 10
35 -22 48 -34 15 -58 12 -58 -5 0 -11 -29 -37 -42 -38 -15 0 -38 33 -38 57 0
15 -11 36 -26 50 -26 24 -43 25 -28 2 12 -21 15 -64 3 -52 -6 6 -11 17 -13 25
-1 8 -11 27 -22 42 -19 27 -26 29 -130 37 -60 4 -150 8 -201 8 -82 1 -92 -1
-86 -16z"/>
<path d="M3708 6263 c-1 -10 -2 -31 -2 -48 -1 -18 -6 -29 -13 -27 -7 1 -13 -5
-13 -13 0 -25 -41 -125 -51 -125 -6 0 -17 -7 -26 -15 -21 -22 -33 -10 -23 24
9 32 -11 61 -41 61 -8 0 -20 5 -26 11 -6 6 -21 9 -34 7 -18 -2 -24 -11 -27
-37 -3 -27 3 -40 30 -68 22 -22 32 -42 30 -57 -2 -12 4 -29 12 -36 22 -17 20
-30 -4 -30 -23 0 -25 -12 -7 -41 10 -17 9 -22 -6 -31 -18 -9 -18 -11 2 -25 12
-8 25 -12 30 -9 4 3 14 -7 20 -21 10 -22 14 -24 22 -12 5 7 9 11 10 7 2 -9 2
-11 13 -51 12 -39 39 -51 75 -32 35 17 36 16 47 -78 8 -73 16 -67 18 15 l1 63
62 -3 c34 -2 66 -1 72 2 13 9 3 36 -14 36 -7 0 -17 6 -23 13 -9 10 -6 17 8 30
27 23 36 21 44 -5 6 -20 7 -21 16 -6 11 19 -3 68 -20 68 -5 0 -10 12 -10 26 0
14 -13 56 -30 94 -16 38 -30 83 -30 102 0 18 -8 45 -17 58 -17 23 -58 114 -70
153 -3 9 -9 17 -14 17 -5 0 -10 -8 -11 -17z"/>
<path d="M4706 5251 c-69 -63 -139 -107 -275 -176 l-109 -54 -4 -88 c-4 -72
-11 -104 -41 -175 -20 -48 -43 -95 -51 -105 -48 -60 -133 -162 -153 -182 -13
-13 -26 -34 -29 -47 -3 -12 -12 -25 -20 -28 -8 -3 -14 -13 -14 -23 0 -14 -2
-15 -9 -4 -6 9 -10 4 -13 -17 -3 -22 -1 -29 9 -25 7 3 11 9 8 13 -6 9 22 23
47 24 10 1 44 26 75 57 32 30 73 64 91 74 17 11 32 25 32 32 0 7 5 13 10 13
19 0 213 209 238 256 7 13 16 24 20 24 4 0 23 24 42 52 19 29 49 67 65 85 40
42 88 139 124 248 11 33 23 68 26 78 12 30 -13 19 -69 -32z"/>
</g>
</svg>
