<?xml version="1.0" standalone="no"?>
<!DOCTYPE svg PUBLIC "-//W3C//DTD SVG 20010904//EN"
 "http://www.w3.org/TR/2001/REC-SVG-20010904/DTD/svg10.dtd">
<svg version="1.0" xmlns="http://www.w3.org/2000/svg"
 width="720.000000pt" height="1280.000000pt" viewBox="0 0 720.000000 1280.000000"
 preserveAspectRatio="xMidYMid meet">
<metadata>
Created by potrace 1.16, written by Peter Selinger 2001-2019
</metadata>
<g transform="translate(0.000000,1280.000000) scale(0.100000,-0.100000)"
fill="#000000" stroke="none">
<path d="M0 6400 l0 -6400 3600 0 3600 0 0 6400 0 6400 -3600 0 -3600 0 0
-6400z m6796 3680 c79 -37 138 -117 149 -206 9 -63 -8 -125 -50 -190 -28 -44
-31 -52 -17 -60 13 -9 13 -13 -2 -37 -23 -35 -90 -46 -137 -23 -33 16 -80 14
-147 -6 -47 -14 -99 -2 -118 28 -13 20 -14 27 -4 39 11 13 9 19 -7 38 -58 63
-80 189 -48 273 55 145 232 211 381 144z m-653 4 c125 -42 198 -200 153 -327
-41 -113 -135 -177 -261 -177 -137 0 -237 76 -264 200 -15 70 -3 142 33 203
25 41 43 58 94 84 54 28 75 33 131 33 37 0 88 -7 114 -16z m-5834 -111 c15
-56 71 -300 71 -307 0 -3 -16 -6 -35 -6 -30 0 -35 3 -35 24 0 30 -4 33 -54 37
-37 4 -40 2 -48 -29 -8 -28 -13 -32 -42 -32 l-34 0 14 58 c7 31 26 110 41 175
l27 117 43 0 c40 0 43 -2 52 -37z m401 -55 l1 -93 30 38 c23 27 39 37 60 37
16 0 29 -3 29 -6 0 -4 -16 -28 -35 -53 -30 -41 -33 -50 -21 -67 7 -10 25 -40
40 -66 l27 -48 -35 0 c-30 0 -38 5 -57 40 -26 45 -39 43 -39 -6 0 -31 -2 -34
-30 -34 l-30 0 0 175 0 175 30 0 30 0 0 -92z m1740 -83 l0 -176 -42 1 c-24 1
-55 -1 -69 -5 -19 -5 -33 -1 -55 18 -28 24 -29 29 -28 107 1 68 4 85 21 102
22 21 54 27 91 14 21 -7 22 -5 22 53 l0 61 30 0 30 0 0 -175z m452 83 l3 -92
25 37 c20 30 31 37 58 37 30 0 42 -12 24 -24 -5 -3 -21 -23 -36 -44 l-27 -40
40 -66 41 -66 -34 0 c-28 0 -38 7 -62 43 l-29 42 -3 -42 c-3 -42 -4 -43 -38
-43 l-34 0 0 175 0 175 35 0 34 0 3 -92z m728 27 l0 -66 30 16 c33 17 60 13
85 -11 11 -12 15 -40 15 -120 l0 -104 -30 0 -30 0 0 90 c0 75 -3 92 -16 97
-37 14 -49 -10 -52 -101 l-3 -86 -29 0 -30 0 0 175 0 175 30 0 30 0 0 -65z
m530 4 c0 -58 1 -60 23 -53 76 26 107 -8 107 -118 0 -71 -2 -81 -26 -105 -20
-20 -31 -24 -52 -18 -15 4 -46 6 -69 5 l-43 -1 0 176 0 175 30 0 30 0 0 -61z
m-1482 -11 c3 -35 6 -38 33 -38 24 0 29 -4 29 -25 0 -21 -5 -25 -30 -25 l-31
0 3 -67 c3 -66 4 -68 31 -71 21 -3 27 -8 23 -19 -3 -8 -6 -19 -6 -24 0 -16
-73 -10 -92 8 -14 13 -18 31 -18 90 0 66 -2 75 -20 80 -13 3 -20 14 -20 29 0
17 6 24 20 24 16 0 20 7 20 33 0 40 7 49 35 45 15 -2 21 -12 23 -40z m-2094
-59 c24 -23 34 -121 17 -172 -15 -44 -59 -66 -97 -48 -14 6 -27 11 -29 11 -3
0 -5 -30 -5 -66 l0 -65 -27 3 -28 3 -3 179 -2 179 37 -5 c21 -3 47 -2 58 3 26
10 55 2 79 -22z m405 20 c44 -16 51 -35 51 -143 l0 -96 -47 -1 c-27 0 -60 -1
-75 -1 -40 -1 -58 19 -58 63 0 43 20 63 83 80 28 7 37 15 35 27 -5 26 -48 28
-55 3 -4 -14 -13 -21 -29 -21 -65 0 -15 96 52 99 6 1 25 -4 43 -10z m290 0
c38 -14 51 -35 51 -88 l0 -41 -61 0 c-60 0 -60 0 -57 -27 3 -32 44 -46 54 -19
4 10 18 16 35 16 35 0 39 -25 10 -61 -27 -34 -99 -34 -135 0 -23 22 -26 32
-26 96 0 79 20 120 63 128 12 2 25 5 28 6 3 0 20 -4 38 -10z m198 0 c32 -12
43 -26 43 -56 0 -31 -45 -33 -53 -3 -7 26 -47 27 -47 1 0 -11 12 -23 30 -31
78 -32 101 -82 61 -131 -15 -19 -29 -24 -66 -24 -37 0 -51 5 -66 24 -29 36
-25 61 11 61 24 0 30 -4 30 -21 0 -15 5 -20 23 -17 37 5 26 36 -23 60 -88 45
-75 133 22 147 4 1 19 -4 35 -10z m197 -3 c31 -13 53 -55 38 -71 -14 -14 -50
-3 -55 16 -4 13 -12 20 -24 17 -29 -5 -21 -32 15 -50 73 -36 92 -81 53 -129
-15 -19 -29 -24 -66 -24 -37 0 -51 5 -66 24 -29 36 -25 61 10 61 21 0 30 -6
34 -21 7 -25 40 -22 45 3 2 12 -11 24 -43 39 -74 35 -86 106 -22 134 40 18 41
18 81 1z m205 3 c17 -6 36 -19 41 -29 6 -10 10 -62 10 -115 l0 -97 -32 3 c-18
1 -48 -1 -66 -5 -50 -12 -82 13 -82 64 0 44 20 64 83 81 28 7 37 15 35 27 -5
25 -45 27 -58 3 -13 -24 -48 -28 -56 -6 -8 20 21 64 49 75 30 12 39 12 76 -1z
m318 -21 c17 -16 23 -33 23 -65 l0 -43 -61 0 c-60 0 -60 0 -57 -27 3 -32 44
-46 54 -19 8 20 64 22 64 2 0 -69 -102 -98 -158 -45 -19 17 -22 31 -22 98 0
68 3 80 23 98 12 11 29 23 37 26 25 10 73 -2 97 -25z m1001 -4 c18 -21 22 -36
22 -98 0 -65 -3 -75 -26 -97 -35 -33 -104 -34 -136 -2 -27 28 -37 127 -17 174
24 60 111 73 157 23z m240 8 c8 -10 12 -52 12 -119 l0 -103 -30 0 -30 0 0 90
c0 75 -3 92 -17 97 -32 12 -53 -32 -53 -113 l0 -74 -30 0 -30 0 0 120 0 120
29 0 c16 0 31 -5 33 -11 2 -6 14 -5 33 5 33 17 63 13 83 -12z m529 -4 c17 -16
23 -33 23 -65 l0 -43 -61 0 c-60 0 -60 0 -57 -27 3 -32 44 -46 54 -19 4 10 18
16 35 16 35 0 40 -29 9 -60 -27 -27 -63 -34 -105 -20 -46 15 -55 34 -55 123 0
64 3 76 23 94 12 11 29 23 37 26 25 10 73 -2 97 -25z m540 8 c6 -6 13 -57 16
-118 l5 -108 -34 0 -34 0 0 90 c0 72 -3 92 -15 96 -33 13 -45 -15 -45 -102 l0
-84 -35 0 -35 0 0 120 0 120 35 0 c19 0 35 -4 35 -9 0 -6 12 -3 28 4 28 15 58
12 79 -9z m218 -7 c17 -16 21 -35 23 -120 l4 -100 -44 1 c-23 1 -54 -1 -68 -5
-35 -9 -80 27 -80 64 0 39 19 60 70 75 33 10 46 19 48 35 4 28 -33 29 -50 1
-12 -19 -48 -27 -60 -14 -15 14 11 60 43 77 40 20 84 15 114 -14z m400 16 c37
-15 55 -46 55 -96 0 -29 0 -29 -59 -29 -65 0 -73 -5 -64 -38 6 -26 53 -32 53
-7 0 11 11 15 36 15 32 0 35 -2 29 -22 -4 -13 -18 -34 -33 -47 -21 -19 -33
-22 -65 -18 -59 8 -80 35 -85 107 -5 75 11 118 52 136 39 17 40 17 81 -1z
m198 1 c15 -8 27 -11 27 -5 0 5 14 9 30 9 l30 0 0 -149 c0 -134 -2 -151 -20
-174 -41 -52 -147 -44 -170 13 -7 16 -9 34 -5 39 10 18 44 12 57 -9 26 -41 78
-15 78 40 0 17 -3 19 -19 10 -36 -19 -78 -12 -100 16 -16 21 -21 41 -21 90 0
72 13 107 44 122 29 14 37 14 69 -2z m285 -22 c19 -22 22 -36 22 -120 l0 -95
-42 1 c-24 1 -55 -1 -70 -5 -21 -6 -32 -2 -52 18 -48 48 -29 99 44 121 33 10
46 19 48 35 4 28 -33 29 -50 1 -12 -19 -48 -27 -60 -14 -15 14 11 60 43 77 43
22 86 16 117 -19z m-3048 -94 l0 -120 -35 0 -35 0 0 113 c0 63 3 117 7 120 3
4 19 7 35 7 l28 0 0 -120z m2271 103 c0 -10 8 -43 18 -73 l17 -55 19 73 c18
70 20 72 51 72 l32 0 -24 -82 c-79 -281 -76 -273 -113 -276 -28 -3 -33 -1 -27
14 28 74 28 99 -3 207 -18 59 -34 113 -37 122 -5 12 2 15 30 15 27 0 36 -4 37
-17z m-4498 -880 c208 -209 244 -249 236 -265 -5 -10 -13 -18 -17 -18 -6 0
-471 460 -531 526 -2 2 12 4 31 4 34 0 52 -16 281 -247z m3129 -1834 c22 -11
82 -51 132 -88 199 -146 282 -204 308 -213 38 -13 72 9 88 57 10 29 14 34 26
24 8 -6 14 -29 14 -53 0 -132 -79 -213 -179 -186 -22 6 -89 46 -148 90 -59 43
-152 111 -206 151 -101 74 -163 103 -194 92 -38 -13 -74 -59 -90 -112 -12 -42
-14 -76 -8 -154 4 -55 9 -106 12 -113 3 -7 83 -69 178 -138 l173 -126 4 -77
c4 -102 2 -110 -34 -115 -23 -4 -31 0 -38 16 -4 12 -21 33 -36 47 -35 31 -380
281 -411 298 -35 18 -97 13 -127 -10 -15 -11 -33 -19 -41 -16 -10 5 0 36 43
136 31 72 61 131 66 131 5 0 47 -27 93 -61 47 -33 87 -58 89 -56 3 2 0 24 -6
48 -5 24 -13 94 -16 154 -5 96 -4 116 14 156 23 52 73 106 117 125 47 20 129
17 177 -7z m448 -794 c0 -8 1 -17 1 -20 10 -37 41 -190 45 -220 4 -32 0 -46
-19 -68 l-24 -29 -21 79 c-27 99 -42 221 -31 251 10 25 49 31 49 7z m-1029
-64 c30 -18 71 -47 93 -65 l38 -33 -43 -21 c-24 -12 -56 -32 -70 -46 l-26 -24
-49 34 c-60 41 -116 59 -143 45 -69 -37 -97 -130 -86 -282 l7 -99 72 -53 c110
-83 189 -141 200 -149 6 -4 3 -14 -8 -27 -10 -11 -19 -39 -21 -63 -5 -87 -2
-80 -32 -63 -16 9 -53 35 -84 58 -110 82 -263 192 -283 204 -34 20 -90 15
-129 -11 -60 -41 -60 -16 0 117 30 67 58 126 63 131 5 5 46 -19 95 -54 47 -34
88 -60 90 -58 2 2 -1 24 -7 48 -6 25 -11 101 -12 170 -1 138 6 160 76 227 45
44 73 53 144 50 48 -2 72 -10 115 -36z m304 -215 c19 -15 41 -39 49 -55 20
-37 32 -146 17 -155 -7 -5 -11 3 -11 21 0 16 -6 38 -14 48 -12 16 -16 17 -30
6 -9 -7 -17 -28 -17 -45 -1 -25 -3 -22 -9 15 -14 83 -41 110 -100 101 -45 -6
-70 -37 -70 -83 0 -64 26 -104 114 -176 102 -85 119 -104 145 -158 34 -73 23
-173 -26 -227 -19 -21 -97 -58 -122 -58 -61 0 -139 47 -165 99 -17 34 -28 91
-17 91 5 0 11 -18 15 -40 3 -22 10 -40 14 -40 4 0 24 -16 45 -35 33 -30 45
-35 87 -35 66 0 72 16 9 22 -61 6 -94 35 -103 91 -9 49 5 47 26 -3 27 -65 86
-78 137 -31 25 24 31 37 31 73 0 56 -23 92 -96 153 -108 90 -136 120 -160 170
-27 57 -31 129 -10 178 41 98 178 136 261 73z m493 10 c108 -56 160 -233 168
-576 4 -146 2 -201 -5 -190 -6 8 -11 30 -11 48 0 22 -5 32 -15 32 -8 0 -15 6
-15 13 0 8 -4 7 -10 -3 -5 -8 -10 -34 -10 -57 0 -24 -4 -43 -8 -43 -5 0 -11
81 -15 179 -3 99 -8 185 -12 190 -8 14 -301 15 -310 2 -3 -6 -8 -89 -12 -185
-3 -97 -10 -176 -15 -176 -4 0 -8 15 -8 33 0 37 -15 58 -36 50 -9 -3 -14 -20
-14 -44 0 -21 -4 -39 -10 -39 -28 0 -2 398 34 540 31 119 101 222 159 233 49
10 120 6 145 -7z m585 -12 c109 -57 155 -215 162 -564 2 -118 1 -199 -3 -180
-10 50 -26 74 -46 67 -11 -5 -16 -19 -16 -52 0 -25 -4 -45 -10 -45 -6 0 -10
66 -10 178 0 97 -4 183 -8 190 -7 9 -46 12 -163 10 l-154 -3 -11 -185 c-5
-102 -13 -178 -17 -170 -3 8 -13 67 -20 130 l-14 115 -2 -82 c0 -48 -5 -83
-11 -83 -5 0 -10 -18 -10 -40 0 -22 -5 -40 -11 -40 -8 0 -9 45 -4 153 16 362
57 515 157 587 34 25 51 30 100 30 35 0 72 -7 91 -16z m621 -61 c3 -32 13
-177 21 -323 9 -146 17 -270 19 -276 7 -18 127 -27 194 -14 175 35 231 156
134 288 -13 18 -22 35 -21 36 9 7 73 36 80 36 14 0 31 -114 26 -171 -7 -83
-50 -169 -111 -227 -86 -81 -164 -112 -287 -112 -126 0 -233 43 -320 130 -86
87 -103 131 -107 277 -4 138 1 156 69 238 47 57 112 106 184 139 109 50 111
50 119 -21z m-2990 -150 c-15 -50 -10 -110 11 -133 17 -19 88 -72 420 -314
365 -266 366 -266 409 -266 23 0 55 9 74 20 59 36 69 21 23 -38 -15 -20 -67
-91 -115 -157 -48 -66 -93 -120 -99 -120 -12 0 -12 9 0 67 9 48 -6 76 -65 125
-57 47 -207 157 -322 238 -67 47 -238 172 -319 232 -103 78 -153 90 -222 51
-21 -12 -41 -19 -45 -16 -8 8 234 338 248 338 6 0 7 -10 2 -27z m1755 -262
c14 -9 13 -67 -4 -201 -12 -89 -60 -225 -93 -263 -12 -14 -13 -22 -4 -42 9
-19 8 -27 -4 -39 -19 -19 -44 -10 -76 29 -25 30 -78 123 -78 137 0 5 15 8 33
8 28 0 35 -6 60 -50 15 -27 31 -51 36 -54 4 -3 13 25 20 62 8 37 22 103 32
147 12 49 19 117 19 178 0 94 1 97 23 97 12 0 28 -4 36 -9z m559 -158 l51 -38
1 -68 c0 -59 3 -71 25 -92 21 -22 33 -25 97 -25 40 0 79 4 87 9 15 9 78 -30
251 -158 93 -68 140 -86 185 -71 19 6 39 18 45 26 14 16 40 19 40 3 0 -9 -35
-61 -65 -96 -5 -6 -45 -61 -89 -122 -43 -61 -85 -111 -93 -111 -10 0 -13 6 -8
18 15 39 17 72 5 107 -13 39 -29 52 -431 343 -108 78 -201 148 -208 156 -26
31 7 156 42 156 7 0 36 -17 65 -37z m-65 -370 c53 -87 124 -203 158 -258 34
-55 74 -120 89 -145 15 -25 56 -93 92 -151 55 -90 63 -108 53 -123 -11 -14
-19 -15 -61 -6 -62 14 -441 105 -732 176 -122 30 -232 54 -244 54 -14 0 21
-30 103 -90 68 -50 160 -116 204 -148 373 -271 375 -272 417 -272 24 0 55 9
74 21 62 38 55 9 -24 -98 -81 -112 -112 -139 -96 -87 13 45 10 99 -8 126 -14
21 -731 548 -785 576 -37 20 -93 14 -129 -13 -37 -28 -55 -17 -30 18 82 117
95 132 112 129 11 -2 80 -7 154 -11 91 -6 168 -17 235 -34 55 -14 195 -48 310
-76 383 -91 377 -90 371 -75 -5 14 -123 206 -155 254 -9 14 -39 61 -65 105
-26 44 -74 123 -106 175 -54 87 -62 110 -41 110 4 0 51 -71 104 -157z"/>
<path d="M6613 9773 c-20 -4 -23 -11 -23 -51 l0 -47 85 0 85 0 0 46 c0 40 -3
48 -22 53 -25 6 -90 6 -125 -1z"/>
<path d="M3564 6030 c-34 -13 -74 -73 -95 -141 -30 -95 -39 -89 126 -89 l145
0 -6 28 c-20 92 -38 136 -67 167 -35 36 -70 48 -103 35z"/>
<path d="M4215 6070 c-3 -6 5 -14 18 -19 71 -27 124 -179 132 -379 8 -166 15
-232 25 -232 4 0 6 51 4 113 -3 61 -5 128 -6 147 -3 151 -49 292 -111 345 -43
37 -52 41 -62 25z"/>
<path d="M4133 6011 c-35 -22 -60 -65 -88 -149 -11 -34 -14 -57 -8 -63 5 -5
69 -8 144 -7 l134 3 -3 35 c-4 55 -30 123 -60 158 -35 41 -77 49 -119 23z"/>
<path d="M4669 5904 c-76 -23 -139 -103 -139 -177 0 -61 75 -154 173 -213 59
-37 177 -87 185 -79 2 2 -1 98 -8 212 -13 221 -19 245 -66 263 -35 14 -90 11
-145 -6z"/>
</g>
</svg>
