<?xml version="1.0" standalone="no"?>
<!DOCTYPE svg PUBLIC "-//W3C//DTD SVG 20010904//EN"
 "http://www.w3.org/TR/2001/REC-SVG-20010904/DTD/svg10.dtd">
<svg version="1.0" xmlns="http://www.w3.org/2000/svg"
 width="720.000000pt" height="1280.000000pt" viewBox="0 0 720.000000 1280.000000"
 preserveAspectRatio="xMidYMid meet">
<metadata>
Created by potrace 1.16, written by Peter Selinger 2001-2019
</metadata>
<g transform="translate(0.000000,1280.000000) scale(0.100000,-0.100000)"
fill="#000000" stroke="none">
<path d="M0 6400 l0 -6400 3600 0 3600 0 0 1025 0 1024 -2637 3 c-1949 2
-2643 6 -2658 14 -11 7 -47 17 -80 23 -38 7 -66 18 -77 31 -9 11 -27 20 -40
20 -13 0 -30 9 -38 20 -10 14 -26 20 -52 20 -25 0 -45 7 -58 20 -12 12 -26 20
-33 19 -44 -5 -75 2 -80 20 -5 21 -51 29 -197 35 -91 3 -110 -1 -110 -25 0
-15 5 -17 30 -12 19 3 30 1 30 -6 0 -6 -13 -11 -28 -11 -25 0 -30 -5 -39 -37
-6 -21 -11 -51 -12 -67 0 -16 -9 -34 -18 -41 -25 -18 -189 -24 -665 -24 l-418
-1 1 413 c2 388 13 946 17 810 2 -65 8 -72 46 -57 14 5 16 27 16 140 0 83 4
134 10 134 6 0 10 -52 10 -135 0 -128 1 -135 20 -135 28 0 25 -20 -2 -21 -13
-1 -1 -7 27 -13 33 -8 51 -18 53 -29 4 -18 22 -24 22 -7 0 6 18 10 40 10 29 0
40 -4 40 -15 0 -12 16 -15 80 -15 64 0 80 -3 80 -15 0 -11 12 -15 45 -15 l45
0 0 50 c0 34 4 50 13 50 13 0 38 33 49 65 3 11 6 -42 7 -117 l1 -138 44 0 c37
0 45 4 50 23 10 37 7 167 -4 167 -6 0 -10 33 -10 80 0 73 -2 80 -20 80 -18 0
-20 7 -20 80 0 46 -4 80 -10 80 -6 0 -10 62 -9 160 l0 160 24 0 c24 0 25 2 25
80 0 66 3 80 16 80 8 0 27 14 41 31 20 23 28 27 34 17 7 -10 9 -9 9 5 0 9 6
17 13 18 6 1 3 4 -9 7 -18 6 -19 11 -12 40 7 25 15 34 37 38 l29 6 4 99 c2 60
8 103 14 107 10 6 34 239 34 326 0 19 5 26 20 26 19 0 20 7 20 90 0 87 1 90
25 96 15 4 25 13 25 24 0 10 8 21 18 23 13 4 11 5 -5 6 -22 1 -23 5 -23 81 l0
80 40 0 c40 0 40 0 40 39 0 38 2 40 38 46 l37 6 3 122 4 122 71 72 c61 63 68
73 48 73 -14 0 -21 5 -19 13 3 6 15 43 28 82 18 55 25 65 31 50 6 -17 8 -17 8
-2 1 9 6 17 11 17 6 0 10 60 10 159 0 88 4 161 9 163 11 4 61 103 61 122 0 7
7 16 15 20 12 4 15 24 15 92 0 48 5 104 12 125 10 37 14 39 50 39 l38 0 0 80
0 80 40 0 c39 0 40 1 40 35 0 34 1 35 40 35 29 0 40 4 40 15 0 9 9 15 24 15
21 0 24 6 30 49 3 27 3 56 0 66 -9 22 11 35 59 35 36 0 37 1 37 35 0 19 5 35
10 35 6 0 10 10 10 23 0 13 5 28 12 35 7 7 12 24 13 40 0 22 4 26 23 24 21 -3
22 0 22 56 l0 59 62 7 c75 8 98 25 98 78 0 27 4 38 15 38 9 0 15 -10 16 -22 1
-17 4 -13 11 12 5 19 17 41 26 48 13 10 16 28 14 87 -2 58 1 75 11 75 8 0 22
18 32 40 12 26 25 40 37 40 13 0 18 7 18 25 0 24 3 25 60 25 45 0 60 4 60 14
0 8 7 16 14 19 11 4 13 16 9 41 -5 30 -3 36 11 36 11 0 24 15 33 40 9 22 20
40 25 40 4 0 8 13 8 28 0 31 32 68 49 57 15 -9 37 7 38 28 2 42 4 47 18 47 12
0 15 15 15 72 0 76 16 138 36 138 6 0 15 16 18 36 4 19 14 38 22 41 7 3 14 10
14 15 0 6 16 24 35 41 19 16 35 37 35 47 0 10 6 23 14 29 8 7 17 23 20 36 9
36 26 31 27 -7 0 -31 1 -32 10 -9 5 13 7 32 4 42 -4 13 -1 19 8 19 9 0 17 -6
19 -12 3 -9 9 -8 22 5 15 15 15 17 2 17 -23 0 -20 17 4 25 14 4 20 15 20 36 0
24 4 29 25 29 21 0 25 5 25 30 0 20 5 30 15 30 8 0 15 6 15 14 0 8 16 16 40
20 38 6 40 8 40 42 0 35 18 64 39 64 6 0 11 9 11 19 0 14 5 18 20 14 12 -3 20
0 20 7 0 8 10 9 30 5 26 -6 30 -3 36 19 7 29 34 35 35 9 1 -35 18 20 18 61 1
28 8 45 26 62 14 13 25 30 25 38 0 9 13 18 35 22 20 3 35 12 35 20 0 8 9 14
19 14 11 0 26 7 35 15 8 8 35 18 60 21 25 4 46 11 46 15 0 5 9 9 20 9 11 0 20
5 20 10 0 6 25 10 55 10 59 0 74 14 25 25 -16 4 -30 13 -30 21 0 11 19 15 83
16 45 2 -777 5 -1828 8 -1610 4 -1347 5 1678 8 l3587 2 0 1775 0 1775 -3600 0
-3600 0 0 -6400z m6782 3684 c50 -17 112 -73 138 -125 44 -85 32 -202 -29
-284 -25 -34 -27 -41 -14 -50 14 -10 14 -14 -2 -38 -22 -35 -88 -46 -136 -23
-29 13 -43 14 -94 4 -106 -20 -144 -17 -171 17 -21 27 -21 30 -6 41 16 11 15
14 -5 36 -38 40 -63 108 -63 172 0 78 16 128 58 176 77 90 199 118 324 74z
m-639 0 c52 -18 116 -76 142 -130 22 -47 30 -130 16 -180 -32 -119 -134 -194
-265 -194 -165 0 -272 106 -270 266 2 153 105 252 265 253 36 1 86 -6 112 -15z
m-5839 -91 c10 -34 76 -315 76 -324 0 -5 -16 -9 -35 -9 -30 0 -35 3 -35 24 0
31 -13 39 -59 39 -31 0 -36 -3 -43 -31 -8 -28 -13 -32 -42 -32 l-34 0 14 58
c7 31 25 110 40 175 l28 117 42 0 c32 0 44 -4 48 -17z m406 -75 l1 -93 30 38
c23 27 39 37 60 37 16 0 29 -3 29 -6 0 -4 -16 -27 -35 -53 l-34 -47 21 -35
c11 -19 29 -49 40 -66 l20 -33 -36 0 c-30 0 -38 5 -57 40 -26 45 -39 43 -39
-6 0 -31 -2 -34 -30 -34 l-30 0 0 175 0 175 30 0 30 0 0 -92z m1740 -83 l0
-176 -42 1 c-24 1 -55 -1 -69 -5 -19 -5 -33 -1 -55 18 -27 24 -29 29 -29 106
0 69 3 84 21 102 23 22 55 28 92 15 21 -7 22 -5 22 53 l0 61 30 0 30 0 0 -175z
m452 83 l3 -92 25 37 c20 30 31 37 58 37 30 0 42 -12 24 -24 -5 -3 -21 -23
-36 -44 l-27 -40 41 -66 41 -67 -38 3 c-32 3 -41 9 -58 40 -26 49 -35 48 -35
-2 0 -39 -1 -40 -35 -40 l-35 0 0 175 0 175 35 0 34 0 3 -92z m728 28 l0 -65
35 15 c28 11 40 12 58 3 34 -18 37 -27 37 -136 l0 -103 -30 0 -30 0 0 90 c0
75 -3 92 -16 97 -37 14 -49 -10 -52 -101 l-3 -86 -29 0 -30 0 0 175 0 175 30
0 30 0 0 -64z m530 3 c0 -58 1 -60 23 -53 76 26 107 -8 107 -118 0 -71 -2 -81
-26 -105 -20 -20 -31 -24 -52 -18 -15 4 -46 6 -69 5 l-43 -1 0 176 0 175 30 0
30 0 0 -61z m-1480 -9 c0 -38 2 -40 30 -40 25 0 30 -4 30 -25 0 -21 -5 -25
-30 -25 l-31 0 3 -67 c3 -66 4 -68 31 -71 21 -3 27 -8 23 -19 -3 -8 -6 -19 -6
-24 0 -16 -73 -10 -92 8 -14 13 -18 31 -18 90 0 66 -2 75 -20 80 -13 3 -20 14
-20 29 0 17 6 24 20 24 17 0 20 7 20 40 0 38 2 40 30 40 28 0 30 -2 30 -40z
m-2096 -61 c24 -23 34 -121 17 -172 -15 -44 -59 -66 -97 -48 -14 6 -27 11 -29
11 -3 0 -5 -29 -5 -65 l0 -65 -30 0 -30 0 0 181 0 182 38 -5 c20 -3 46 -2 57
3 26 10 55 2 79 -22z m405 20 c17 -6 36 -19 41 -29 6 -10 10 -62 10 -115 l0
-97 -32 3 c-18 1 -48 -1 -66 -5 -50 -12 -82 13 -82 64 0 44 20 64 83 81 28 7
37 15 35 27 -5 25 -45 27 -58 3 -13 -25 -48 -28 -57 -5 -8 21 28 67 58 75 35
10 33 10 68 -2z m287 1 c39 -15 53 -39 54 -87 l0 -43 -61 0 c-60 0 -60 0 -57
-27 3 -32 44 -46 54 -19 9 23 64 21 64 -2 0 -51 -67 -84 -124 -62 -45 17 -55
38 -56 116 0 78 20 119 63 127 12 2 25 5 29 6 4 0 19 -4 34 -9z m201 -1 c32
-12 43 -26 43 -56 0 -31 -45 -33 -53 -2 -7 24 -40 23 -45 -2 -2 -10 9 -21 30
-29 75 -30 98 -83 59 -131 -40 -50 -151 -22 -151 38 0 19 5 23 30 23 24 0 30
-4 30 -21 0 -15 5 -20 22 -17 42 6 33 36 -16 58 -76 32 -89 107 -23 135 39 17
39 17 74 4z m202 -4 c26 -13 46 -56 33 -70 -14 -14 -50 -3 -55 16 -4 13 -12
20 -24 17 -29 -5 -21 -32 15 -50 73 -36 92 -81 53 -129 -15 -19 -29 -24 -66
-24 -37 0 -51 5 -66 24 -29 36 -25 61 10 61 21 0 30 -6 34 -21 7 -25 40 -22
45 4 3 12 -9 23 -42 37 -74 31 -86 108 -22 136 40 17 51 17 85 -1z m200 4 c17
-6 36 -19 41 -29 6 -10 10 -62 10 -115 l0 -97 -32 3 c-18 1 -48 -1 -66 -5 -50
-12 -82 13 -82 64 0 44 20 64 83 81 28 7 37 15 35 27 -5 25 -45 27 -58 3 -11
-22 -44 -28 -55 -11 -12 20 8 59 38 74 38 19 45 19 86 5z m318 -21 c17 -16 23
-33 23 -65 l0 -43 -61 0 c-60 0 -60 0 -57 -27 3 -32 44 -46 54 -19 9 23 64 21
64 -2 0 -49 -66 -84 -121 -64 -50 20 -59 37 -59 121 0 68 3 80 23 98 12 11 29
23 37 26 25 10 73 -2 97 -25z m1001 -4 c18 -21 22 -36 22 -98 0 -77 -15 -107
-61 -121 -31 -10 -84 3 -105 26 -23 26 -31 127 -13 170 24 60 111 73 157 23z
m240 8 c8 -10 12 -52 12 -119 l0 -103 -30 0 -30 0 0 90 c0 75 -3 92 -17 97
-32 12 -53 -32 -53 -113 l0 -74 -30 0 -30 0 0 120 0 120 29 0 c16 0 31 -5 33
-11 2 -6 14 -5 33 5 33 17 63 13 83 -12z m530 -8 c15 -17 22 -38 22 -65 l0
-39 -61 0 c-60 0 -60 0 -57 -27 3 -32 44 -46 54 -19 4 10 18 16 35 16 22 0 29
-5 29 -20 0 -42 -64 -79 -115 -66 -52 13 -65 39 -65 124 0 69 3 81 23 99 12
11 29 23 37 26 28 11 75 -3 98 -29z m539 12 c7 -6 13 -53 15 -116 l3 -105 -32
-3 -33 -3 0 91 c0 72 -3 92 -15 96 -33 13 -45 -15 -45 -102 l0 -84 -35 0 -35
0 0 120 0 120 35 0 c19 0 35 -4 35 -9 0 -6 12 -3 28 4 28 15 58 12 79 -9z
m221 -12 c19 -22 22 -36 22 -120 l0 -95 -42 1 c-24 1 -54 -1 -68 -5 -34 -9
-80 27 -80 61 0 41 18 63 63 75 52 15 67 26 60 45 -8 21 -41 17 -55 -6 -12
-19 -48 -27 -60 -14 -15 14 11 60 43 77 43 22 86 16 117 -19z m391 25 c36 -13
61 -53 61 -99 l0 -30 -59 0 c-65 0 -73 -5 -64 -38 6 -26 53 -32 53 -7 0 11 11
15 36 15 32 0 35 -2 29 -22 -13 -43 -42 -63 -90 -63 -64 0 -87 27 -93 105 -5
75 11 118 52 136 38 16 36 16 75 3z m204 -3 c15 -8 27 -11 27 -5 0 5 14 9 30
9 l30 0 0 -149 c0 -134 -2 -151 -20 -174 -41 -52 -147 -44 -170 13 -7 16 -9
34 -5 39 9 15 46 7 60 -12 27 -37 75 -10 75 43 0 17 -3 19 -19 10 -36 -19 -78
-12 -100 16 -16 21 -21 41 -21 88 0 85 8 106 44 122 39 17 36 17 69 0z m285
-22 c19 -22 22 -36 22 -120 l0 -95 -42 1 c-24 1 -54 -1 -68 -5 -35 -9 -80 27
-80 64 0 39 19 60 70 75 33 10 46 19 48 35 4 28 -31 29 -51 0 -22 -30 -63 -23
-59 11 10 70 109 91 160 34z m-3048 -94 l0 -120 -35 0 -35 0 0 113 c0 63 3
117 7 120 3 4 19 7 35 7 l28 0 0 -120z m2280 63 c19 -91 25 -93 45 -14 17 70
18 71 50 71 l33 0 -52 -177 -51 -178 -33 -3 c-29 -3 -33 -1 -29 15 31 106 31
95 -2 207 -18 59 -35 114 -38 122 -4 10 4 14 29 14 34 0 35 -1 48 -57z"/>
<path d="M6613 9773 c-20 -4 -23 -11 -23 -51 l0 -47 85 0 85 0 0 46 c0 40 -3
48 -22 53 -25 6 -90 6 -125 -1z"/>
<path d="M2616 6918 c-7 -30 -20 -181 -17 -191 1 -5 -3 -34 -8 -65 -6 -32 -15
-104 -21 -162 -5 -58 -12 -125 -14 -150 -10 -94 -16 -168 -21 -255 -3 -49 -8
-98 -12 -109 -3 -10 1 -22 8 -27 9 -5 10 -9 2 -9 -6 0 -14 -23 -18 -52 -3 -29
-13 -96 -21 -148 -8 -52 -21 -171 -30 -265 -8 -93 -21 -240 -29 -325 -8 -85
-17 -185 -21 -222 -4 -39 -3 -68 2 -68 5 0 18 16 29 34 32 55 109 165 113 161
4 -4 -65 -113 -85 -133 -7 -7 -13 -29 -13 -47 0 -19 -4 -36 -9 -39 -5 -3 -12
-18 -16 -33 -3 -15 -11 -31 -16 -34 -13 -8 -33 -150 -22 -159 10 -9 158 -25
411 -46 l203 -17 29 28 c17 16 30 35 30 43 0 7 25 64 56 125 68 137 70 173 18
307 -22 56 -27 257 -8 345 7 33 13 83 13 110 1 28 8 75 16 104 10 40 11 58 3
68 -7 9 -14 10 -23 3 -6 -5 -14 -8 -17 -5 -13 13 -31 -30 -34 -78 -3 -52 -43
-144 -57 -131 -3 3 -18 -13 -32 -36 -15 -24 -39 -54 -53 -67 -32 -30 -58 -114
-33 -107 9 3 6 -1 -7 -8 -19 -9 -25 -9 -31 1 -11 17 -40 2 -94 -45 -20 -19
-43 -35 -50 -36 -29 -4 -87 -3 -84 2 1 3 34 68 73 145 39 78 88 181 109 230
20 50 44 107 52 127 9 20 13 46 11 56 -4 12 3 25 17 36 12 9 35 41 50 72 28
54 28 55 8 73 -10 10 -29 24 -41 30 -26 14 -29 36 -6 49 15 8 15 10 -1 16 -24
9 -35 -1 -35 -34 0 -27 -2 -28 -39 -23 -33 5 -42 2 -53 -16 -19 -32 -30 -25
-26 17 3 34 6 37 36 40 29 3 47 22 21 22 -8 0 -8 5 1 15 7 8 20 15 30 15 10 0
20 6 23 14 4 10 -12 15 -69 20 -83 8 -106 14 -98 27 2 5 0 18 -6 29 -9 16 -8
20 5 20 17 0 19 7 15 68 -2 39 0 42 24 42 14 0 29 -6 33 -13 13 -21 112 -36
196 -30 75 6 96 16 59 27 -10 4 -31 26 -46 51 -16 25 -32 45 -36 45 -13 0 -20
61 -9 82 17 32 19 81 4 102 -8 10 -27 19 -44 20 -24 1 -27 4 -20 18 15 27 11
51 -6 44 -13 -5 -15 0 -10 27 5 25 2 35 -14 45 -13 7 -21 8 -21 2 0 -5 -7 -10
-15 -10 -8 0 -15 6 -15 13 0 23 -45 97 -59 97 -8 0 -12 2 -9 5 2 3 -1 30 -7
61 -10 53 -13 57 -51 70 -53 19 -63 18 -68 -8z"/>
<path d="M3975 6801 c-16 -8 -17 -10 -3 -10 10 -1 19 -13 23 -31 4 -16 13 -34
21 -38 8 -5 22 -33 30 -63 23 -80 23 -92 -6 -99 -22 -6 -23 -8 -7 -15 21 -9
50 -62 38 -69 -5 -3 -23 1 -40 10 -36 18 -65 15 -69 -7 -4 -20 54 -49 97 -49
40 0 49 -33 27 -102 -9 -28 -16 -81 -16 -118 0 -52 -4 -73 -20 -93 -21 -26
-22 -27 -195 -41 -54 -5 -85 -14 -85 -25 0 -4 24 -24 54 -45 64 -44 71 -65 44
-138 -21 -58 -21 -59 -12 -104 5 -26 -2 -40 -55 -107 -34 -42 -57 -77 -52 -77
5 0 37 32 72 70 43 49 69 70 85 70 13 0 24 -5 24 -11 0 -6 6 -9 14 -6 8 3 29
-12 51 -37 20 -24 53 -49 72 -57 35 -14 38 -24 18 -71 -10 -25 15 -23 43 2 27
26 28 26 46 -12 19 -38 20 -64 4 -72 -10 -5 -10 -7 -1 -12 9 -4 10 -11 4 -23
-5 -9 -12 -50 -16 -91 -4 -41 -13 -97 -21 -124 -8 -27 -14 -63 -14 -79 0 -28
2 -29 32 -23 17 3 37 11 43 16 14 11 26 120 25 223 l-1 67 66 0 c58 0 72 4
121 35 30 19 57 35 59 35 3 0 5 -29 5 -65 0 -36 4 -65 9 -65 19 0 30 80 16
113 -4 10 -3 17 4 17 6 0 11 9 11 20 0 11 4 20 9 20 14 0 61 75 61 98 0 18 6
22 35 22 19 0 35 -5 35 -11 0 -8 4 -8 13 -2 6 6 24 13 40 17 23 5 27 12 27 41
0 22 6 37 17 44 29 16 7 24 -65 25 l-69 2 5 -47 c3 -35 1 -47 -11 -52 -11 -4
-16 6 -20 46 -3 29 -9 64 -13 80 -5 21 -3 27 11 27 9 0 23 7 31 15 9 8 25 15
36 15 11 0 22 8 25 20 3 11 9 20 14 20 5 0 12 0 17 1 4 0 9 -10 12 -22 5 -19
12 -22 55 -23 47 0 50 1 56 29 3 17 7 35 9 40 6 23 -1 33 -19 28 -10 -3 -22 0
-25 6 -4 6 -18 11 -31 11 -31 0 -39 25 -12 37 12 5 39 9 60 8 45 -2 51 8 62
101 4 42 3 55 -4 44 -8 -12 -13 -12 -23 -2 -9 9 -9 12 1 12 7 0 9 5 6 10 -10
16 -23 12 -30 -9 -6 -20 -52 -34 -61 -19 -4 5 -17 7 -29 4 -13 -3 -34 -2 -47
3 l-23 10 24 0 c23 1 24 2 6 14 -17 13 -15 15 16 22 55 13 140 15 160 4 17 -9
19 -5 19 36 0 45 0 45 -35 45 -19 0 -35 4 -35 9 0 11 56 25 68 17 5 -3 12 11
16 32 8 52 8 62 -5 62 -5 0 -8 -4 -5 -9 4 -5 -3 -7 -14 -4 -11 3 -20 10 -20
17 0 6 -11 24 -23 40 l-24 29 -31 -18 c-27 -16 -35 -17 -56 -6 -22 12 -28 11
-52 -8 -29 -23 -59 -27 -70 -10 -3 6 -17 8 -30 5 -19 -5 -24 -2 -24 13 0 13 9
21 30 26 16 4 33 11 36 16 10 17 -28 50 -55 48 -14 -1 -36 -1 -49 -1 l-22 2
27 53 c18 35 28 46 31 35 5 -26 52 -24 52 2 0 11 5 20 10 20 24 0 7 27 -27 42
-38 18 -53 16 -53 -7 0 -20 -39 -29 -66 -14 -15 7 -24 21 -24 36 0 22 -27 63
-42 63 -4 0 -5 -15 -2 -32 l5 -33 -22 40 c-12 22 -23 42 -24 43 -17 20 -355
39 -390 23z"/>
<path d="M3549 6248 c-1 -13 -2 -33 -3 -45 -1 -13 -5 -22 -10 -22 -5 0 -17
-26 -27 -57 -11 -36 -28 -66 -46 -80 -38 -32 -47 -30 -40 9 5 34 -13 56 -60
71 -12 4 -24 15 -26 24 -4 16 -5 16 -6 0 0 -10 -8 -18 -16 -18 -8 0 -15 -9
-15 -19 0 -11 -3 -26 -6 -34 -3 -8 9 -28 29 -47 24 -22 33 -38 30 -51 -3 -11
2 -28 12 -39 18 -20 13 -40 -11 -40 -17 0 -18 -5 -1 -30 10 -17 9 -22 -2 -29
-18 -11 -5 -31 19 -31 11 0 24 -10 31 -21 9 -17 13 -19 20 -8 6 10 9 7 9 -11
0 -29 34 -90 50 -90 6 0 24 7 40 15 l29 15 7 -70 c9 -93 27 -104 22 -14 l-3
69 73 -4 c76 -3 90 6 50 33 -30 21 -30 39 -1 53 22 11 26 10 30 -7 3 -11 9
-20 14 -20 14 0 11 47 -4 62 -8 7 -17 30 -21 51 -4 20 -20 65 -36 100 -17 34
-30 74 -30 89 0 15 -8 42 -19 60 -10 18 -29 61 -42 96 -25 65 -38 78 -40 40z"/>
<path d="M5176 5769 c-14 -17 -44 -62 -67 -100 -33 -57 -40 -77 -37 -112 l3
-42 88 84 c48 46 85 86 82 89 -2 3 -24 -16 -48 -42 -40 -42 -67 -58 -67 -39 0
4 23 47 50 95 28 48 50 90 50 93 0 16 -32 1 -54 -26z"/>
<path d="M4529 5244 c-74 -64 -166 -122 -279 -179 l-96 -47 -11 -91 c-19 -150
-80 -273 -190 -385 -29 -29 -53 -57 -53 -62 0 -6 -4 -10 -10 -10 -5 0 -10 -6
-10 -13 0 -8 -9 -24 -20 -37 -23 -27 -26 -44 -6 -37 8 3 16 2 18 -4 2 -5 17 3
35 18 17 16 57 51 89 78 32 28 77 69 101 93 24 23 48 42 53 42 4 0 20 15 35
33 14 17 47 55 72 82 24 28 55 61 67 75 12 14 35 46 50 73 15 26 31 47 35 47
7 0 63 81 87 125 27 51 32 62 42 85 13 31 22 62 21 74 0 5 4 12 10 16 13 8 33
70 22 70 -4 0 -32 -21 -62 -46z"/>
</g>
</svg>
