<?xml version="1.0" standalone="no"?>
<!DOCTYPE svg PUBLIC "-//W3C//DTD SVG 20010904//EN"
 "http://www.w3.org/TR/2001/REC-SVG-20010904/DTD/svg10.dtd">
<svg version="1.0" xmlns="http://www.w3.org/2000/svg"
 width="720.000000pt" height="1280.000000pt" viewBox="0 0 720.000000 1280.000000"
 preserveAspectRatio="xMidYMid meet">
<metadata>
Created by potrace 1.16, written by Peter Selinger 2001-2019
</metadata>
<g transform="translate(0.000000,1280.000000) scale(0.100000,-0.100000)"
fill="#000000" stroke="none">
<path d="M0 6400 l0 -6400 3600 0 3600 0 0 1025 0 1025 -3590 0 -3590 0 0
3600 0 3600 3590 0 3590 0 0 1775 0 1775 -3600 0 -3600 0 0 -6400z m6796 3680
c151 -69 198 -267 95 -405 -25 -34 -27 -41 -14 -50 14 -10 14 -14 -2 -38 -22
-35 -90 -46 -136 -23 -33 16 -80 14 -147 -6 -47 -14 -99 -2 -118 28 -13 20
-14 27 -4 39 11 13 9 19 -8 38 -85 90 -82 268 6 360 77 81 220 106 328 57z
m-653 4 c29 -10 64 -34 92 -62 124 -125 89 -333 -68 -412 -133 -66 -310 -20
-370 96 -47 91 -44 191 7 276 25 43 43 59 94 85 54 28 75 33 131 33 37 0 88
-7 114 -16z m-5802 -244 c21 -91 39 -168 39 -172 0 -5 -15 -8 -33 -8 -28 0
-34 4 -42 32 -9 29 -14 32 -50 31 -36 0 -40 -3 -47 -31 -8 -28 -13 -32 -42
-32 l-34 0 14 58 c7 31 26 110 41 175 l27 118 44 -3 45 -3 38 -165z m369 78
l1 -93 30 38 c23 27 39 37 60 37 16 0 29 -3 29 -6 0 -4 -16 -28 -35 -53 -30
-41 -33 -50 -21 -67 7 -10 25 -40 40 -66 l27 -48 -35 0 c-30 0 -38 5 -57 40
-26 45 -39 43 -39 -6 0 -31 -2 -34 -30 -34 l-30 0 0 175 0 175 30 0 30 0 0
-92z m1740 -83 l0 -176 -42 1 c-24 1 -55 -1 -69 -5 -19 -5 -33 -1 -55 18 -28
24 -29 29 -28 107 1 68 4 85 21 102 22 21 54 27 91 14 21 -7 22 -5 22 53 l0
61 30 0 30 0 0 -175z m452 83 l3 -92 25 37 c20 30 31 37 58 37 30 0 42 -12 24
-24 -5 -3 -21 -23 -36 -44 l-27 -40 40 -66 41 -66 -34 0 c-28 0 -38 7 -62 43
l-29 42 -3 -42 c-3 -42 -4 -43 -38 -43 l-34 0 0 175 0 175 35 0 34 0 3 -92z
m728 27 l0 -66 30 16 c33 17 60 13 85 -11 11 -12 15 -40 15 -120 l0 -104 -30
0 -30 0 0 90 c0 75 -3 92 -16 97 -37 14 -49 -10 -52 -101 l-3 -86 -29 0 -30 0
0 175 0 175 30 0 30 0 0 -65z m530 4 c0 -58 1 -60 23 -53 76 26 107 -8 107
-118 0 -71 -2 -81 -26 -105 -20 -20 -31 -24 -52 -18 -15 4 -46 6 -69 5 l-43
-1 0 176 0 175 30 0 30 0 0 -61z m-1480 -9 c0 -38 2 -40 30 -40 25 0 30 -4 30
-25 0 -21 -5 -25 -30 -25 l-31 0 3 -67 c3 -66 4 -68 31 -71 21 -3 27 -8 23
-19 -3 -8 -6 -19 -6 -24 0 -16 -73 -10 -92 8 -14 13 -18 31 -18 90 0 66 -2 75
-20 80 -13 3 -20 14 -20 29 0 17 6 24 20 24 16 0 20 7 20 33 0 40 6 47 37 47
20 0 23 -5 23 -40z m-2096 -61 c24 -23 34 -121 17 -172 -15 -44 -59 -66 -97
-48 -14 6 -27 11 -29 11 -3 0 -5 -30 -5 -66 l0 -65 -27 3 -28 3 -3 179 -2 179
37 -5 c21 -3 47 -2 58 3 26 10 55 2 79 -22z m405 20 c44 -16 51 -35 51 -143
l0 -96 -47 -1 c-27 0 -60 -1 -75 -1 -40 -1 -58 19 -58 63 0 43 20 63 83 80 28
7 37 15 35 27 -5 26 -48 28 -55 3 -4 -14 -13 -21 -29 -21 -65 0 -15 96 52 99
6 1 25 -4 43 -10z m290 0 c38 -14 51 -35 51 -88 l0 -41 -61 0 c-60 0 -60 0
-57 -27 3 -32 44 -46 54 -19 4 10 18 16 35 16 35 0 39 -25 10 -61 -15 -19 -29
-24 -66 -24 -39 0 -51 5 -71 28 -20 24 -24 39 -24 96 0 75 21 116 63 124 12 2
25 5 28 6 3 0 20 -4 38 -10z m198 0 c32 -12 43 -26 43 -56 0 -31 -45 -33 -53
-3 -7 26 -47 27 -47 1 0 -11 12 -23 30 -31 78 -32 101 -82 61 -131 -15 -19
-29 -24 -66 -24 -37 0 -51 5 -66 24 -29 36 -25 61 11 61 24 0 30 -4 30 -21 0
-15 5 -20 22 -17 40 5 31 32 -19 58 -91 48 -80 135 19 149 4 1 19 -4 35 -10z
m191 0 c29 -10 59 -59 45 -73 -15 -15 -51 -5 -56 15 -4 13 -12 20 -24 17 -29
-5 -21 -32 15 -50 73 -36 92 -81 53 -129 -15 -19 -29 -24 -66 -24 -37 0 -51 5
-66 24 -29 36 -25 61 10 61 21 0 30 -6 34 -21 7 -25 40 -22 45 3 2 12 -11 24
-43 39 -74 35 -86 106 -22 134 39 17 37 17 75 4z m211 0 c17 -6 36 -19 41 -29
6 -10 10 -62 10 -115 l0 -97 -32 3 c-18 1 -48 -1 -66 -5 -50 -12 -82 13 -82
64 0 44 20 64 83 81 28 7 37 15 35 27 -5 25 -45 27 -58 3 -13 -24 -48 -28 -56
-6 -8 20 21 64 49 75 30 12 39 12 76 -1z m318 -21 c17 -16 23 -33 23 -65 l0
-43 -61 0 c-60 0 -60 0 -57 -27 3 -32 44 -46 54 -19 8 20 64 22 64 2 0 -69
-102 -98 -158 -45 -19 17 -22 31 -22 98 0 68 3 80 23 98 12 11 29 23 37 26 25
10 73 -2 97 -25z m1001 -4 c18 -21 22 -36 22 -98 0 -65 -3 -75 -26 -97 -35
-33 -104 -34 -136 -2 -27 28 -37 127 -17 174 24 60 111 73 157 23z m240 8 c8
-10 12 -52 12 -119 l0 -103 -30 0 -30 0 0 90 c0 75 -3 92 -17 97 -32 12 -53
-32 -53 -113 l0 -74 -30 0 -30 0 0 120 0 120 29 0 c16 0 31 -5 33 -11 2 -6 14
-5 33 5 33 17 63 13 83 -12z m529 -4 c17 -16 23 -33 23 -65 l0 -43 -61 0 c-60
0 -60 0 -57 -27 3 -32 44 -46 54 -19 4 10 18 16 35 16 22 0 29 -5 29 -20 0
-42 -64 -79 -115 -66 -52 13 -65 39 -65 124 0 69 3 81 23 99 12 11 29 23 37
26 25 10 73 -2 97 -25z m540 8 c6 -6 13 -57 16 -118 l5 -108 -34 0 -34 0 0 90
c0 72 -3 92 -15 96 -33 13 -45 -15 -45 -102 l0 -84 -35 0 -35 0 0 120 0 120
35 0 c19 0 35 -4 35 -9 0 -6 12 -3 28 4 28 15 58 12 79 -9z m218 -7 c17 -16
21 -35 23 -120 l4 -100 -44 1 c-23 1 -54 -1 -68 -5 -35 -9 -80 27 -80 64 0 39
19 60 70 75 33 10 46 19 48 35 4 28 -33 29 -50 1 -12 -19 -48 -27 -60 -14 -15
14 11 60 43 77 40 20 84 15 114 -14z m400 16 c37 -15 55 -46 55 -96 0 -29 0
-29 -59 -29 -65 0 -73 -5 -64 -38 6 -26 53 -32 53 -7 0 11 11 15 36 15 32 0
35 -2 29 -22 -4 -13 -18 -34 -33 -47 -21 -19 -33 -22 -65 -18 -59 8 -80 35
-85 107 -5 75 11 118 52 136 39 17 40 17 81 -1z m198 1 c15 -8 27 -11 27 -5 0
5 14 9 31 9 l30 0 -3 -154 c-3 -134 -5 -157 -22 -175 -42 -46 -144 -35 -166
19 -7 16 -9 34 -5 39 10 18 44 12 57 -9 27 -42 78 -15 78 41 0 18 -3 20 -12
11 -7 -7 -29 -12 -49 -12 -56 0 -79 34 -79 116 0 72 13 107 44 122 29 14 37
14 69 -2z m285 -22 c19 -22 22 -36 22 -120 l0 -95 -42 1 c-24 1 -55 -1 -70 -5
-21 -6 -32 -2 -52 18 -48 48 -29 99 44 121 33 10 46 19 48 35 4 28 -33 29 -50
1 -12 -19 -48 -27 -60 -14 -15 14 11 60 43 77 43 22 86 16 117 -19z m-3048
-94 l0 -120 -35 0 -35 0 0 113 c0 63 3 117 7 120 3 4 19 7 35 7 l28 0 0 -120z
m2271 103 c0 -10 8 -43 18 -73 l17 -55 19 73 c18 70 20 72 51 72 l32 0 -24
-82 c-79 -281 -76 -273 -113 -276 -28 -3 -33 -1 -27 14 29 76 29 101 -4 209
-17 59 -34 113 -37 121 -4 10 4 14 31 14 27 0 36 -4 37 -17z"/>
<path d="M6613 9773 c-20 -4 -23 -11 -23 -51 l0 -47 85 0 85 0 0 46 c0 40 -3
48 -22 53 -25 6 -90 6 -125 -1z"/>
<path d="M6300 8875 c-651 -233 -1059 -378 -1090 -387 -52 -15 -59 -24 -50
-61 15 -58 47 -160 108 -342 56 -168 117 -359 214 -670 63 -202 69 -217 87
-211 21 7 500 159 621 198 52 16 142 43 200 59 58 17 161 48 230 71 69 22 131
42 138 44 9 3 12 74 12 314 0 178 -4 310 -9 310 -9 0 -295 -92 -391 -126 -137
-48 -286 -91 -293 -84 -5 4 -22 59 -39 121 -16 62 -34 121 -39 131 -13 24 -11
48 3 48 7 0 92 25 188 56 96 31 225 71 285 91 179 57 197 64 192 82 -3 9 -17
57 -32 106 -14 50 -30 99 -35 110 -15 33 -60 185 -60 201 0 7 -8 14 -17 13
-10 0 -110 -33 -223 -74z"/>
<path d="M4485 8229 c-165 -59 -367 -131 -450 -159 -82 -29 -159 -56 -170 -61
-11 -5 -110 -41 -220 -80 -199 -70 -242 -88 -217 -89 6 0 12 -8 12 -17 0 -18
17 -75 32 -108 5 -11 10 -30 11 -43 0 -12 6 -22 12 -22 12 0 106 33 324 114
69 25 129 46 135 46 6 0 26 -20 43 -43 18 -23 49 -60 68 -82 19 -22 35 -43 35
-46 0 -7 -54 -26 -375 -135 -93 -31 -171 -58 -173 -59 -2 -2 8 -27 21 -56 12
-30 40 -109 62 -175 32 -102 41 -121 56 -117 41 11 245 -27 406 -76 53 -16
153 -62 253 -117 l95 -53 95 29 c52 16 163 50 245 75 83 25 159 49 170 54 33
15 310 101 323 101 20 0 14 25 -49 224 -96 301 -106 330 -118 334 -6 2 -117
-31 -248 -72 -464 -148 -498 -159 -510 -163 -15 -6 -24 15 -70 175 -29 103
-33 126 -22 133 8 5 59 22 114 39 218 66 529 165 543 174 10 6 -3 60 -58 236
-16 52 -32 107 -35 123 -4 17 -11 27 -23 26 -9 -1 -152 -50 -317 -110z"/>
<path d="M2845 7644 c-38 -14 -137 -50 -220 -79 -426 -150 -539 -190 -760
-270 -131 -47 -241 -88 -244 -90 -23 -24 250 -95 365 -95 41 0 77 11 314 98
74 27 299 109 500 182 201 73 369 136 373 140 13 12 -42 57 -92 76 -25 9 -53
23 -62 30 -9 8 -18 11 -22 8 -4 -4 -18 1 -31 10 -32 21 -37 20 -121 -10z"/>
<path d="M2890 7225 c-217 -74 -399 -136 -405 -138 -5 -3 -1 -8 10 -12 133
-48 184 -134 118 -200 -47 -47 -89 -61 -165 -57 -32 2 -93 52 -115 96 -9 17
-20 34 -25 37 -11 7 -140 -30 -453 -132 -71 -23 -153 -45 -181 -49 -28 -4 -61
-13 -73 -19 -11 -7 -21 -8 -21 -4 0 4 -5 2 -10 -3 -14 -14 11 -90 46 -142 13
-20 30 -46 37 -57 6 -11 53 -60 102 -110 72 -72 107 -99 175 -132 47 -24 97
-46 113 -49 l27 -6 0 111 0 111 178 0 c173 0 178 1 191 23 45 72 183 216 286
298 58 46 198 139 210 139 2 0 45 20 97 44 81 38 157 62 326 106 42 11 43 11
37 48 -4 20 -15 64 -25 97 -11 33 -22 77 -26 98 -5 32 -10 37 -33 36 -14 0
-204 -61 -421 -134z"/>
<path d="M3506 6134 c-181 -44 -328 -193 -371 -376 -18 -79 -18 -125 0 -211
36 -172 159 -312 322 -369 98 -33 241 -31 335 5 125 47 218 132 275 253 70
146 69 288 -3 432 -50 102 -126 178 -224 225 -122 57 -217 69 -334 41z"/>
<path d="M2013 5195 c-300 -69 -479 -240 -529 -502 -5 -23 -3 -34 7 -37 29 -8
723 -126 745 -126 8 0 19 12 25 28 18 48 49 72 92 72 71 0 138 -56 149 -125 3
-17 18 -23 98 -38 52 -10 105 -20 118 -23 15 -3 22 -12 22 -29 0 -24 15 -33
63 -40 40 -6 122 -24 140 -30 30 -12 18 11 -15 28 -105 55 -268 178 -344 260
-84 89 -194 239 -241 327 -42 80 -103 227 -103 248 0 20 -113 13 -227 -13z"/>
<path d="M4675 4657 c-132 -136 -187 -180 -331 -266 -196 -116 -465 -191 -686
-191 -51 0 -99 -4 -105 -8 -15 -10 -33 -97 -33 -163 0 -37 4 -49 18 -53 20 -6
203 -44 602 -126 162 -34 403 -83 535 -110 132 -28 248 -50 257 -50 20 0 26
17 30 95 l3 60 -35 8 c-19 4 -176 32 -348 61 -172 30 -315 56 -318 59 -2 2 3
44 12 93 8 49 18 109 21 133 l6 43 56 -6 c31 -3 106 -15 166 -26 61 -11 211
-38 335 -60 124 -22 232 -40 240 -40 11 0 21 32 38 133 13 72 35 191 48 264
25 138 29 183 16 183 -4 0 -98 16 -209 35 -111 19 -206 35 -210 35 -4 0 -53
-47 -108 -103z"/>
<path d="M5482 4626 c-5 -6 -16 -58 -25 -116 -9 -58 -26 -157 -38 -220 -11
-63 -24 -137 -29 -165 -31 -176 -53 -294 -71 -393 -12 -62 -19 -115 -16 -118
5 -5 72 -20 382 -84 192 -40 571 -119 620 -130 22 -4 127 -25 233 -46 168 -33
194 -36 207 -23 10 10 14 42 16 107 1 51 0 94 -2 97 -4 4 -357 69 -544 99
-164 27 -148 18 -141 84 14 121 31 204 42 209 11 4 157 -21 389 -66 182 -35
255 -47 260 -42 3 2 5 138 5 302 l0 298 -37 6 c-21 3 -60 10 -88 15 -27 6
-171 30 -320 55 -148 25 -376 63 -505 86 -341 59 -329 57 -338 45z"/>
<path d="M1463 4525 c-2 -7 -3 -37 -1 -66 l3 -54 250 -52 c138 -29 360 -75
495 -103 135 -27 299 -61 365 -75 66 -14 122 -25 124 -25 3 0 -37 25 -89 56
-52 31 -113 68 -135 83 -67 43 -79 51 -110 66 -25 12 -213 51 -803 164 -71 13
-95 15 -99 6z"/>
</g>
</svg>
