<?xml version="1.0" standalone="no"?>
<!DOCTYPE svg PUBLIC "-//W3C//DTD SVG 20010904//EN"
 "http://www.w3.org/TR/2001/REC-SVG-20010904/DTD/svg10.dtd">
<svg version="1.0" xmlns="http://www.w3.org/2000/svg"
 width="720.000000pt" height="1280.000000pt" viewBox="0 0 720.000000 1280.000000"
 preserveAspectRatio="xMidYMid meet">
<metadata>
Created by potrace 1.16, written by Peter Selinger 2001-2019
</metadata>
<g transform="translate(0.000000,1280.000000) scale(0.100000,-0.100000)"
fill="#000000" stroke="none">
<path d="M0 6400 l0 -6400 3600 0 3600 0 0 1025 0 1025 -1997 0 c-1099 0
-2007 3 -2019 6 -31 8 -51 99 -28 125 9 10 25 21 35 24 29 10 41 39 28 72 -6
15 -12 69 -13 120 -2 116 -16 136 -88 131 -46 -3 -49 -2 -59 29 -8 24 -6 43 7
82 l17 52 -59 121 c-36 73 -58 130 -56 145 2 14 15 46 28 71 31 57 30 87 -1
124 -39 46 -30 108 17 108 30 0 148 -51 148 -65 0 -7 7 -18 16 -26 17 -14 64
-19 64 -7 0 4 -3 8 -7 8 -5 0 -9 23 -11 51 -3 45 0 55 24 80 31 32 58 36 119
14 22 -8 49 -12 60 -9 26 6 88 127 80 153 -6 19 -56 37 -153 57 -7 1 -24 10
-38 18 -42 28 -27 72 36 104 26 13 35 23 35 42 0 23 -4 25 -40 24 -22 -1 -77
-2 -122 -3 -57 -1 -86 -5 -96 -16 -16 -15 -36 -68 -56 -142 -11 -39 -54 -93
-74 -93 -5 0 -29 -16 -54 -35 -55 -42 -93 -45 -135 -10 -37 31 -78 32 -106 2
-12 -13 -22 -28 -22 -33 0 -14 -56 -54 -75 -54 -8 0 -15 -5 -15 -11 0 -6 -11
-25 -25 -43 -14 -18 -25 -37 -25 -42 0 -21 -74 -67 -115 -71 -81 -10 -104 26
-65 102 27 53 26 68 -16 143 -35 62 -36 66 -28 131 5 36 7 91 6 121 -3 52 -1
56 26 71 21 12 44 15 76 12 45 -6 106 11 106 28 0 5 7 9 15 9 8 0 15 4 15 9 0
5 11 12 24 15 51 13 35 86 -27 125 -40 25 -91 27 -140 6 -20 -8 -60 -15 -88
-15 -50 0 -54 2 -100 53 l-49 52 -67 0 c-45 0 -75 5 -90 15 -17 13 -50 16
-163 14 -125 -1 -144 1 -165 18 -43 33 -28 90 39 151 23 21 35 21 60 2 11 -8
32 -15 47 -15 54 0 91 -14 125 -45 30 -28 34 -30 34 -13 0 11 11 41 25 67 30
54 87 91 141 91 33 0 44 -7 92 -60 65 -71 79 -73 173 -31 35 15 75 31 89 34
24 6 64 39 106 89 12 14 32 32 44 41 29 20 39 87 13 87 -8 0 -34 21 -58 47
l-43 46 -138 4 -139 3 -27 30 c-31 34 -71 39 -118 15 -20 -10 -35 -31 -52 -76
-16 -42 -29 -63 -42 -65 -10 -1 -41 -16 -68 -33 -37 -23 -61 -31 -96 -31 -26
0 -52 -4 -58 -8 -20 -13 -37 -56 -36 -89 1 -18 -3 -33 -7 -33 -5 0 -16 -3 -24
-6 -10 -3 -17 4 -21 22 l-7 27 -80 -7 -79 -6 -19 32 c-38 65 -66 97 -83 98
-10 0 -18 -4 -18 -9 0 -4 -38 -27 -83 -50 -107 -52 -177 -122 -177 -175 0 -19
9 -58 20 -86 24 -60 25 -96 5 -130 -48 -82 -66 -131 -63 -171 l3 -43 105 -22
c121 -26 140 -41 140 -110 0 -82 -46 -144 -107 -144 -30 0 -72 42 -101 100
-30 60 -58 80 -113 80 -39 0 -72 28 -83 70 -4 14 -23 59 -42 100 -37 78 -69
109 -128 124 -17 4 -42 16 -57 27 -15 10 -32 19 -37 19 -19 0 -74 72 -67 89
10 26 23 115 18 124 -2 4 23 35 56 68 34 33 70 77 81 98 17 35 68 71 99 71 18
0 29 32 21 64 -14 57 -22 67 -81 96 -49 25 -59 35 -64 63 -4 18 -5 39 -3 47 2
12 -8 14 -51 11 -51 -3 -56 -1 -87 33 -18 20 -38 36 -43 36 -13 0 -47 -32 -52
-49 -2 -6 -33 -16 -69 -22 -35 -5 -68 -16 -72 -22 -13 -20 -9 -60 12 -119 21
-60 17 -91 -14 -117 -9 -7 -16 -20 -16 -27 0 -27 -37 -51 -88 -58 -60 -8 -58
-5 -65 -137 -3 -60 -1 -93 9 -110 7 -13 13 -42 14 -64 0 -44 22 -85 46 -85 9
0 41 -25 72 -55 43 -42 63 -55 82 -53 24 3 25 6 25 68 0 36 4 71 8 78 13 19
71 14 95 -8 71 -66 66 -115 -16 -189 -32 -27 -66 -58 -77 -68 -51 -45 -70
-110 -42 -146 6 -9 47 -32 89 -52 42 -19 80 -40 83 -46 4 -6 40 -25 79 -43 50
-23 80 -44 96 -67 13 -19 37 -46 54 -60 25 -22 28 -29 18 -41 -6 -8 -10 -17
-7 -20 3 -2 -18 -5 -45 -7 -31 -1 -66 -11 -92 -26 -42 -24 -102 -33 -112 -16
-8 12 -82 38 -148 51 l-58 11 -33 72 c-19 40 -48 89 -66 111 -28 35 -31 46
-31 105 0 54 -4 70 -20 84 -11 9 -20 23 -20 30 0 7 -16 28 -35 47 l-34 33 -73
-25 c-40 -13 -80 -26 -88 -29 -13 -3 -15 36 -18 305 -2 279 -1 312 15 335 19
29 18 55 -3 85 -12 17 -14 378 -14 2403 l0 2383 3590 0 3590 0 0 1775 0 1775
-3600 0 -3600 0 0 -6400z m6730 3699 c64 -14 102 -34 140 -71 94 -96 103 -243
21 -353 -25 -34 -27 -41 -14 -50 13 -10 13 -15 2 -33 -26 -42 -91 -54 -143
-27 -24 13 -38 13 -90 3 -108 -20 -145 -17 -172 17 -22 28 -23 31 -7 42 15 12
15 15 -5 35 -55 60 -78 178 -50 269 23 77 103 146 195 168 51 12 70 12 123 0z
m-563 -22 c112 -59 170 -203 129 -320 -41 -113 -135 -177 -261 -177 -176 0
-294 136 -267 306 16 95 64 156 157 197 52 22 194 19 242 -6z m-5858 -104 c15
-56 71 -300 71 -307 0 -3 -16 -6 -35 -6 -30 0 -35 3 -35 24 0 31 -13 39 -59
39 -31 0 -36 -3 -43 -31 -8 -28 -13 -32 -42 -32 l-34 0 14 58 c7 31 25 110 40
175 l28 117 42 0 c41 0 44 -2 53 -37z m401 -55 l1 -93 30 38 c23 27 39 37 60
37 16 0 29 -3 29 -6 0 -4 -16 -27 -35 -53 l-34 -47 21 -35 c11 -19 29 -49 40
-66 l20 -33 -36 0 c-30 0 -38 5 -57 40 -26 45 -39 43 -39 -6 0 -31 -2 -34 -30
-34 l-30 0 0 175 0 175 30 0 30 0 0 -92z m1740 -83 l0 -176 -42 1 c-24 1 -55
-1 -69 -5 -19 -5 -33 -1 -55 18 -28 24 -29 29 -28 107 1 68 4 85 21 102 22 21
54 27 91 14 21 -7 22 -5 22 53 l0 61 30 0 30 0 0 -175z m452 83 l3 -92 25 37
c20 30 31 37 58 37 30 0 42 -12 24 -24 -5 -3 -21 -23 -36 -44 l-27 -40 41 -66
41 -67 -38 3 c-32 3 -41 9 -58 40 -26 49 -35 48 -35 -2 0 -39 -1 -40 -35 -40
l-35 0 0 175 0 175 35 0 34 0 3 -92z m728 27 l0 -66 30 16 c33 17 60 13 85
-11 11 -12 15 -40 15 -120 l0 -104 -30 0 -30 0 0 90 c0 75 -3 92 -16 97 -37
14 -49 -10 -52 -101 l-3 -86 -29 0 -30 0 0 175 0 175 30 0 30 0 0 -65z m530 4
c0 -58 1 -60 23 -53 76 26 107 -8 107 -118 0 -71 -2 -81 -26 -105 -20 -20 -31
-24 -52 -18 -15 4 -46 6 -69 5 l-43 -1 0 176 0 175 30 0 30 0 0 -61z m-1480
-9 c0 -38 2 -40 30 -40 25 0 30 -4 30 -25 0 -21 -5 -25 -30 -25 l-31 0 3 -67
c3 -66 4 -68 31 -71 21 -3 27 -8 23 -19 -3 -8 -6 -19 -6 -24 0 -16 -73 -10
-92 8 -14 13 -18 31 -18 90 0 66 -2 75 -20 80 -13 3 -20 14 -20 29 0 17 6 24
20 24 17 0 20 7 20 40 0 38 2 40 30 40 28 0 30 -2 30 -40z m-2095 -61 c17 -16
20 -33 20 -100 0 -77 -1 -82 -29 -106 -28 -24 -47 -26 -88 -8 -16 6 -18 0 -18
-59 l0 -66 -30 0 -30 0 0 181 0 182 38 -5 c20 -3 46 -2 57 3 26 10 55 2 80
-22z m438 -1 c14 -16 17 -39 17 -120 l0 -100 -32 3 c-18 1 -48 -1 -66 -5 -50
-12 -82 13 -82 64 0 44 20 64 83 81 28 7 37 15 35 27 -5 26 -48 28 -55 3 -6
-25 -51 -29 -60 -5 -8 21 27 67 58 75 36 11 82 0 102 -23z m253 22 c39 -15 53
-39 54 -87 l0 -43 -61 0 c-60 0 -60 0 -57 -27 3 -32 44 -46 54 -19 9 23 64 21
64 -2 0 -51 -67 -84 -124 -62 -45 17 -55 38 -56 116 0 78 20 119 63 127 12 2
25 5 29 6 4 0 19 -4 34 -9z m201 -1 c32 -12 43 -26 43 -56 0 -31 -45 -33 -53
-3 -7 26 -47 27 -47 1 0 -12 12 -23 33 -31 74 -30 97 -83 58 -131 -40 -50
-151 -22 -151 38 0 19 5 23 30 23 24 0 30 -4 30 -21 0 -15 5 -20 22 -17 41 6
32 33 -19 59 -91 46 -80 134 19 148 4 1 19 -4 35 -10z m197 -3 c31 -13 53 -55
38 -71 -14 -14 -50 -3 -55 16 -4 13 -12 20 -24 17 -29 -5 -21 -32 15 -50 73
-36 92 -81 53 -129 -15 -19 -29 -24 -66 -24 -37 0 -51 5 -66 24 -29 36 -25 61
10 61 21 0 30 -6 34 -21 7 -25 40 -22 45 3 2 12 -11 24 -43 39 -74 35 -85 107
-21 135 39 17 40 17 80 0z m205 3 c17 -6 36 -19 41 -29 6 -10 10 -62 10 -115
l0 -96 -37 1 c-21 1 -50 -2 -65 -6 -45 -10 -78 18 -78 66 0 44 20 64 83 81 28
7 37 15 35 27 -5 25 -45 27 -58 3 -6 -13 -21 -21 -35 -21 -62 0 -3 95 61 99 6
1 25 -4 43 -10z m318 -21 c17 -16 23 -33 23 -65 l0 -43 -61 0 c-60 0 -60 0
-57 -27 3 -32 44 -46 54 -19 8 20 64 22 64 2 0 -69 -102 -98 -158 -45 -19 17
-22 31 -22 98 0 68 3 80 23 98 12 11 29 23 37 26 25 10 73 -2 97 -25z m1001
-4 c18 -21 22 -36 22 -98 0 -77 -15 -107 -61 -121 -31 -10 -84 3 -105 26 -23
26 -31 127 -13 170 24 60 111 73 157 23z m240 8 c8 -10 12 -52 12 -119 l0
-103 -30 0 -30 0 0 90 c0 75 -3 92 -17 97 -32 12 -53 -32 -53 -113 l0 -74 -30
0 -30 0 0 120 0 120 29 0 c16 0 31 -5 33 -11 2 -6 14 -5 33 5 33 17 63 13 83
-12z m529 -4 c17 -16 23 -33 23 -65 l0 -43 -61 0 c-60 0 -60 0 -57 -27 3 -32
44 -46 54 -19 4 10 18 16 35 16 22 0 29 -5 29 -20 0 -42 -64 -79 -115 -66 -52
13 -65 39 -65 124 0 69 3 81 23 99 12 11 29 23 37 26 25 10 73 -2 97 -25z
m539 8 c7 -6 15 -59 19 -118 l7 -108 -36 0 -36 0 0 90 c0 72 -3 92 -15 96 -33
13 -45 -15 -45 -102 l0 -84 -35 0 -35 0 0 120 0 120 35 0 c19 0 35 -4 35 -9 0
-6 12 -3 28 4 28 15 58 12 78 -9z m219 -7 c17 -16 21 -36 23 -120 l4 -100 -44
1 c-23 1 -54 -1 -68 -5 -35 -9 -80 27 -80 64 0 39 19 60 70 75 33 10 46 19 48
35 3 17 -2 21 -22 21 -16 0 -27 -7 -31 -20 -4 -12 -15 -20 -29 -20 -32 0 -36
7 -24 42 20 56 108 72 153 27z m394 20 c36 -13 61 -53 61 -99 l0 -30 -59 0
c-65 0 -73 -5 -64 -38 6 -26 53 -32 53 -7 0 11 11 15 36 15 32 0 35 -2 29 -22
-4 -13 -18 -34 -33 -47 -21 -19 -33 -22 -65 -18 -59 8 -80 35 -85 107 -5 75
11 118 52 136 38 16 36 16 75 3z m204 -3 c15 -8 27 -11 27 -5 0 5 14 9 31 9
l30 0 -3 -155 c-3 -145 -4 -156 -26 -177 -17 -18 -34 -23 -73 -23 -43 0 -54 4
-75 29 -14 15 -24 36 -22 45 5 25 45 26 60 2 26 -42 78 -16 78 39 0 17 -3 19
-19 10 -36 -19 -78 -12 -100 16 -17 21 -21 41 -21 93 0 92 16 118 80 130 3 0
17 -6 33 -13z m282 -17 c17 -16 21 -35 23 -120 l4 -100 -44 1 c-23 1 -54 -1
-68 -5 -35 -9 -80 27 -80 64 0 39 19 60 70 75 33 10 46 19 48 35 4 28 -33 29
-50 1 -12 -19 -48 -27 -60 -14 -15 14 11 60 43 77 40 20 84 15 114 -14z
m-3045 -100 l0 -120 -32 3 -33 3 -3 104 c-1 58 0 111 2 118 3 7 19 13 36 13
l30 0 0 -121z m2280 64 c19 -91 25 -93 45 -14 17 70 17 71 51 71 22 0 32 -4
29 -12 -3 -7 -25 -84 -50 -171 -24 -87 -47 -162 -50 -168 -4 -5 -20 -9 -37 -9
-24 0 -29 3 -24 16 28 74 28 99 -3 207 -18 59 -34 113 -37 122 -5 12 2 15 28
15 34 0 35 -1 48 -57z m-2813 -6145 c18 -18 33 -37 33 -44 0 -7 -15 -30 -34
-53 -18 -22 -37 -57 -41 -77 -3 -21 -18 -60 -32 -87 -19 -38 -23 -58 -18 -81
13 -57 10 -112 -8 -139 -14 -22 -25 -27 -57 -27 -79 0 -105 68 -49 126 l31 32
-37 48 -37 48 6 76 c6 64 4 80 -13 107 l-20 32 37 6 c47 7 172 47 179 57 9 15
27 8 60 -24z m-709 -334 c24 -7 52 -59 52 -98 0 -33 36 -44 95 -29 95 25 108
14 76 -64 -23 -58 -36 -220 -18 -238 7 -6 44 -25 82 -42 62 -27 70 -34 70 -58
-1 -18 -9 -31 -25 -39 -140 -71 -133 -69 -203 -62 -71 8 -89 1 -156 -60 -31
-29 -62 -23 -129 24 -108 76 -124 83 -172 77 -144 -18 -133 -18 -160 10 -20
21 -25 39 -28 95 -5 82 17 149 60 185 15 13 28 28 28 34 0 16 51 13 100 -4 23
-8 48 -15 55 -15 12 0 28 44 61 172 18 71 42 103 84 111 39 7 103 7 128 1z
m-828 -169 c31 -33 39 -122 17 -192 -8 -26 -22 -74 -32 -105 -15 -53 -19 -58
-45 -58 -22 0 -31 7 -44 34 -20 43 -20 45 3 111 11 30 22 85 26 122 9 99 13
113 33 113 10 0 29 -11 42 -25z m-427 -243 c3 -15 16 -40 28 -56 20 -25 26
-27 68 -21 25 3 68 7 95 8 46 2 50 0 57 -26 8 -29 -11 -89 -31 -102 -6 -3 -17
-20 -26 -37 -15 -29 -14 -31 8 -55 13 -14 35 -31 51 -39 l27 -15 -2 -100 c-3
-107 2 -119 50 -119 12 0 53 -15 91 -34 87 -44 101 -72 76 -148 -29 -89 -89
-131 -137 -95 -9 7 -25 36 -36 64 -46 122 -124 174 -198 132 -44 -24 -96 -25
-117 -1 -14 16 -16 33 -10 112 5 83 4 93 -10 87 -9 -3 -18 1 -21 9 -10 27 -6
397 5 437 11 42 24 42 32 -1z m2268 -64 c36 -20 59 -39 59 -50 0 -53 -105 -68
-159 -22 -35 29 -41 69 -13 90 26 21 49 17 113 -18z m-76 -144 c23 -9 45 -57
45 -98 0 -27 -8 -44 -33 -69 -46 -48 -75 -61 -132 -58 -67 3 -95 22 -95 64 0
40 15 57 51 57 27 0 69 39 69 63 0 34 53 57 95 41z m-980 -390 c33 -21 31 -49
-5 -104 -24 -36 -30 -56 -30 -98 0 -52 0 -52 -27 -46 -39 9 -48 18 -83 80 -40
71 -41 125 -2 152 15 10 34 22 42 25 30 11 81 7 105 -9z m1747 -131 c39 -35
11 -86 -64 -117 -20 -9 -41 -24 -47 -33 -8 -15 -26 -19 -96 -22 -98 -4 -125 7
-101 41 19 26 65 54 104 63 17 3 53 24 79 46 52 43 94 50 125 22z"/>
<path d="M6613 9773 c-20 -4 -23 -11 -23 -51 l0 -47 85 0 85 0 0 46 c0 40 -3
48 -22 53 -25 6 -90 6 -125 -1z"/>
<path d="M3023 7003 c-35 -18 -43 -33 -18 -33 8 0 15 -4 15 -10 0 -5 -6 -10
-14 -10 -8 0 -17 -7 -20 -16 -4 -9 -13 -14 -21 -10 -10 3 -23 -7 -38 -29 -12
-19 -29 -35 -37 -36 -10 0 -11 -2 -2 -6 6 -2 9 -9 6 -14 -13 -22 63 -149 90
-149 6 0 5 5 -2 12 -15 15 -16 48 -2 48 6 0 22 -7 35 -16 25 -16 45 -12 45 10
0 7 8 21 18 32 9 11 22 29 28 40 19 33 42 29 49 -10 4 -19 4 -40 0 -46 -5 -7
3 -10 22 -8 33 4 70 51 68 88 -3 60 -18 98 -41 110 -13 8 -24 17 -24 21 0 5
-16 11 -35 15 -20 3 -43 13 -50 21 -8 8 -15 10 -15 4 0 -6 -9 -15 -21 -21 -19
-11 -20 -10 -9 9 6 12 9 21 8 20 -2 0 -18 -8 -35 -16z"/>
<path d="M4120 6841 c-51 -23 -69 -37 -85 -66 -21 -38 -55 -66 -55 -45 0 6 -4
9 -9 6 -5 -4 -11 -3 -14 1 -2 5 -2 3 -1 -4 2 -6 6 -28 10 -47 3 -20 10 -34 14
-31 4 2 5 17 2 32 -5 28 -5 28 17 9 11 -11 21 -24 21 -30 0 -6 18 -24 40 -39
36 -26 40 -32 40 -72 0 -24 5 -47 10 -50 6 -4 9 -2 8 3 -2 5 9 23 24 40 15 17
25 38 22 45 -6 15 23 44 33 33 4 -4 1 -17 -6 -29 -10 -16 -11 -22 -2 -25 7 -2
24 -15 38 -28 30 -28 37 -30 29 -8 -3 8 -2 12 3 9 6 -3 18 8 27 25 21 34 39
40 31 10 -3 -11 -1 -20 5 -20 6 0 8 -7 4 -15 -7 -19 14 -19 40 0 10 8 22 15
27 15 16 0 6 -32 -18 -55 -21 -22 -22 -25 -6 -25 21 0 51 40 51 67 0 10 5 25
10 33 9 13 12 12 25 -4 13 -18 15 -18 15 -3 0 22 -75 104 -103 113 -34 10 -57
34 -84 88 -25 50 -67 96 -87 96 -6 0 -40 -14 -76 -29z"/>
<path d="M3189 6650 c-11 -36 -15 -40 -45 -40 -18 0 -36 5 -39 10 -3 6 -12 10
-18 10 -7 0 -6 -4 3 -10 8 -5 16 -14 16 -20 3 -21 4 -22 19 -10 21 18 29 6 15
-22 -24 -45 -42 -58 -81 -58 -56 0 -85 15 -117 59 -28 38 -30 40 -46 22 -9 -9
-16 -22 -16 -28 0 -5 -9 -18 -20 -28 -11 -10 -20 -24 -20 -31 0 -7 -11 -26
-25 -42 -17 -21 -25 -42 -25 -68 0 -29 -3 -35 -10 -24 -5 8 -10 25 -10 38 0
29 -18 28 -32 -2 -15 -34 5 -294 25 -336 9 -16 12 -30 7 -30 -5 0 -10 5 -12
12 -4 10 -78 -58 -78 -72 0 -3 11 -39 25 -79 30 -90 57 -114 132 -118 45 -3
53 -1 53 14 0 10 4 14 8 8 4 -5 13 -10 20 -10 7 0 22 -18 32 -40 12 -25 17
-31 14 -15 -3 15 5 45 20 76 l25 51 53 -14 c34 -9 74 -12 111 -8 l57 6 0 -34
c0 -41 -26 -69 -58 -60 -13 3 -22 1 -22 -6 0 -5 6 -8 14 -5 8 3 17 1 21 -5 4
-8 13 -7 27 4 13 9 32 12 47 8 21 -4 24 -3 14 8 -10 10 -9 17 5 32 16 19 16
20 -5 8 -31 -16 -33 -15 -33 23 0 28 5 36 29 46 17 6 52 36 79 65 48 52 50 55
47 108 -1 37 -9 65 -24 85 -11 17 -21 36 -21 42 0 7 16 -11 35 -39 19 -28 35
-54 35 -59 0 -5 9 -17 20 -27 11 -10 17 -21 15 -25 -4 -6 80 -90 90 -90 2 0
21 15 42 33 38 31 39 33 24 62 -21 43 -22 46 -64 109 -21 32 -43 72 -49 89 -6
18 -17 39 -24 48 -8 8 -14 22 -14 31 0 8 -9 23 -20 33 -13 12 -20 31 -20 56 0
39 -61 231 -80 255 -11 12 -103 44 -129 44 -5 0 -16 -18 -22 -40z"/>
<path d="M4445 6325 c44 -126 60 -185 51 -189 -6 -2 -5 -5 2 -5 7 -1 10 -6 7
-11 -4 -6 5 -20 19 -31 32 -26 33 -45 1 -91 -26 -38 -31 -63 -16 -72 5 -3 11
-20 14 -38 8 -51 -72 -178 -112 -178 -9 0 -42 20 -73 45 -56 43 -72 75 -47 90
24 16 2 38 -51 52 -58 15 -101 48 -120 92 -10 23 -101 81 -128 81 -5 0 -15
-31 -22 -69 -9 -51 -10 -77 -2 -100 7 -19 8 -41 3 -54 -5 -12 -6 -37 -4 -55 3
-18 1 -38 -5 -45 -6 -7 -8 -27 -3 -47 5 -29 16 -40 56 -62 28 -15 58 -28 67
-28 10 0 34 -9 53 -20 20 -11 40 -18 44 -15 5 2 23 0 41 -5 25 -7 48 -5 99 12
113 36 121 40 121 54 0 13 13 19 34 15 5 -1 40 -8 78 -15 l68 -13 6 26 c15 68
47 182 65 231 l20 56 -42 74 c-32 57 -44 90 -48 135 -5 55 -8 60 -31 63 -41 5
-81 24 -77 36 3 7 -13 32 -35 56 -22 25 -37 36 -33 25z"/>
<path d="M4031 5441 c-23 -14 -11 -146 16 -172 17 -18 24 -19 42 -9 32 16 43
55 35 121 -6 54 -8 58 -26 48 -15 -8 -24 -7 -37 5 -10 9 -22 12 -30 7z"/>
<path d="M3189 5403 c-2 -15 -1 -57 2 -93 3 -36 6 -57 7 -47 3 28 31 19 46
-15 44 -99 146 -130 146 -45 0 49 -98 192 -118 172 -3 -3 0 -10 8 -16 13 -8
12 -12 -4 -24 -24 -18 -52 -19 -62 -4 -4 7 -9 30 -11 52 -4 50 -9 57 -14 20z"/>
<path d="M3158 5002 c22 -17 23 -21 12 -64 -9 -33 -9 -51 -1 -66 17 -32 12
-39 -9 -13 -31 37 -23 9 10 -37 48 -67 86 -53 98 35 5 30 2 69 -7 106 -13 55
-23 68 -36 47 -3 -5 -17 -10 -30 -10 -13 0 -27 5 -30 10 -3 6 -12 10 -18 10
-7 0 -2 -8 11 -18z"/>
<path d="M1685 4974 c-16 -9 -37 -22 -45 -29 -8 -7 -31 -16 -50 -20 -70 -14
-102 -52 -125 -150 -10 -40 -9 -57 1 -85 8 -19 17 -62 22 -95 9 -72 22 -78 91
-44 32 16 71 25 126 29 85 5 91 8 185 88 34 29 40 40 46 89 8 64 -11 113 -49
131 -12 5 -43 28 -69 51 -54 48 -91 58 -133 35z"/>
<path d="M4181 4928 c-17 -50 -37 -67 -55 -43 -10 15 -16 16 -27 6 -8 -6 -23
-18 -34 -26 -19 -13 -18 -13 14 -12 19 1 36 -3 38 -9 2 -5 -13 -29 -33 -53
-27 -31 -42 -41 -56 -37 -16 4 -19 1 -15 -15 4 -15 2 -19 -9 -15 -25 9 -15
-14 11 -26 20 -9 32 -7 72 14 39 19 49 30 51 54 2 16 14 40 27 54 30 33 48 90
37 121 -9 22 -9 22 -21 -13z"/>
</g>
</svg>
