<?xml version="1.0" standalone="no"?>
<!DOCTYPE svg PUBLIC "-//W3C//DTD SVG 20010904//EN"
 "http://www.w3.org/TR/2001/REC-SVG-20010904/DTD/svg10.dtd">
<svg version="1.0" xmlns="http://www.w3.org/2000/svg"
 width="720.000000pt" height="1280.000000pt" viewBox="0 0 720.000000 1280.000000"
 preserveAspectRatio="xMidYMid meet">
<metadata>
Created by potrace 1.16, written by Peter Selinger 2001-2019
</metadata>
<g transform="translate(0.000000,1280.000000) scale(0.100000,-0.100000)"
fill="#000000" stroke="none">
<path d="M0 6400 l0 -6400 3600 0 3600 0 0 1030 0 1030 -91 0 -92 0 27 25 c14
13 26 29 26 35 0 6 4 9 9 5 13 -7 51 43 51 67 0 11 9 22 19 25 14 4 20 17 24
51 3 26 9 61 13 77 12 50 16 457 5 468 -14 14 -14 74 -1 82 6 3 10 50 10 106
0 111 -7 120 -56 71 -16 -16 -71 -46 -121 -67 -116 -49 -123 -75 -21 -75 l41
0 -24 -19 c-28 -22 -118 -50 -137 -44 -7 3 -19 -1 -27 -7 -13 -11 -15 -6 -15
34 0 32 5 48 15 52 19 8 19 34 -1 62 -11 17 -21 21 -40 16 -20 -5 -34 2 -72
38 -26 25 -69 53 -94 63 -45 17 -86 58 -79 80 1 5 0 7 -4 3 -4 -4 -17 4 -30
18 -34 36 -88 33 -126 -7 -16 -17 -29 -39 -29 -48 0 -12 -2 -13 -9 -3 -5 9
-30 14 -64 15 -49 2 -60 6 -91 36 -20 19 -50 59 -68 88 -18 29 -40 55 -49 58
-14 5 -84 -27 -99 -45 -3 -3 -23 -17 -44 -30 l-39 -23 5 26 c4 23 -1 31 -30
49 -25 15 -37 18 -40 10 -2 -7 -12 -12 -23 -12 -10 0 -19 -4 -19 -10 0 -5 -9
-10 -20 -10 -23 0 -25 16 -9 57 6 15 10 56 10 91 -1 34 2 62 7 62 8 0 56 90
67 125 3 11 22 33 43 48 33 26 42 28 87 23 28 -4 58 -7 68 -7 9 0 17 -4 17
-10 0 -5 8 -9 19 -9 20 0 74 -25 69 -32 -5 -6 27 -36 34 -32 10 7 71 -26 81
-42 4 -8 17 -14 27 -14 11 0 20 -4 20 -10 0 -5 7 -7 15 -4 20 8 72 -14 79 -32
3 -8 14 -14 25 -14 11 0 41 -11 69 -25 48 -24 55 -25 365 -31 l317 -7 0 86 c0
86 0 87 -27 94 -28 6 -74 27 -143 63 l-35 18 25 10 c14 5 60 15 102 22 l77 13
1 1698 c0 1121 -3 1700 -10 1704 -5 3 -10 2 -10 -4 0 -6 -16 -27 -35 -48 -102
-112 -125 -142 -125 -162 0 -12 -4 -29 -9 -39 -43 -87 -43 -90 -38 -164 15
-192 46 -300 89 -314 18 -5 23 -16 12 -27 -13 -13 -135 128 -148 171 -4 12
-11 22 -15 22 -11 0 -28 45 -37 92 -3 20 -15 44 -25 54 -10 9 -19 22 -19 28 0
6 -7 24 -15 40 -8 16 -18 52 -21 81 -6 48 -3 61 35 139 35 73 41 95 41 148 -1
89 -34 166 -102 242 -10 11 -18 23 -18 28 0 4 -7 8 -16 8 -9 0 -34 16 -56 34
-22 19 -50 36 -62 38 -26 4 -96 -13 -96 -24 0 -4 -9 -8 -20 -8 -17 0 -20 -7
-20 -45 0 -44 11 -74 38 -103 6 -7 12 -27 12 -43 0 -18 7 -33 20 -41 11 -7 34
-49 51 -93 17 -44 40 -92 51 -107 11 -16 16 -28 12 -28 -4 0 5 -14 21 -30 19
-19 31 -26 36 -19 4 8 14 4 28 -10 17 -17 21 -33 21 -80 l0 -59 -40 19 c-21
10 -46 19 -54 19 -8 0 -19 7 -23 15 -6 10 -27 16 -63 18 l-55 2 -3 -53 c-3
-43 3 -63 32 -120 19 -37 40 -87 48 -112 12 -45 18 -55 50 -91 10 -10 18 -32
18 -48 0 -22 12 -41 46 -73 25 -23 48 -43 53 -43 4 0 25 -17 47 -39 21 -21 33
-35 25 -30 -8 4 -32 8 -52 8 -28 1 -44 8 -61 29 -26 30 -88 39 -88 13 0 -14
-12 -21 -57 -31 -92 -23 -113 -29 -113 -37 0 -13 -38 -9 -43 5 -4 10 -6 10 -6
0 -1 -7 -9 -13 -18 -13 -11 0 -26 -16 -37 -40 -11 -22 -23 -40 -28 -40 -4 0
-8 -16 -8 -35 0 -25 -8 -44 -25 -61 -18 -18 -25 -36 -25 -64 0 -22 -5 -40 -10
-40 -12 0 -2 -215 10 -240 12 -24 -9 -130 -26 -130 -12 0 -13 -8 -8 -37 6 -33
5 -36 -12 -29 -10 4 -15 4 -11 0 4 -4 -3 -12 -16 -18 -12 -7 -22 -18 -22 -26
-1 -34 -17 -80 -29 -80 -7 0 -23 22 -37 48 -47 95 -83 141 -107 142 -21 0 -23
-3 -17 -30 6 -30 6 -30 -34 -30 -34 0 -41 -3 -41 -19 0 -13 -9 -21 -30 -26
-25 -6 -64 -45 -44 -45 3 0 1 -6 -6 -14 -13 -17 -40 -10 -40 10 0 8 -4 14 -10
14 -5 0 -27 17 -48 38 l-40 39 3 -36 c1 -20 1 -27 -2 -16 -2 11 -7 27 -10 35
-3 8 -7 22 -8 30 -3 17 -22 94 -61 250 -14 58 -32 137 -39 175 -16 80 -52 225
-58 231 -5 5 -263 -54 -292 -67 -11 -4 -38 -10 -60 -13 -101 -13 -132 -19
-162 -32 -42 -19 -84 -19 -77 1 3 8 -2 37 -11 65 -9 28 -15 56 -12 63 3 7 25
19 48 26 24 7 67 24 96 38 29 13 69 26 90 29 71 10 123 26 123 40 0 8 -8 14
-17 14 -9 0 -27 10 -39 21 -22 20 -22 24 -8 50 8 16 18 29 22 29 8 0 32 49 32
66 0 6 7 14 15 17 11 5 12 12 4 37 -9 24 -17 30 -39 30 -28 0 -41 14 -33 38 3
8 25 12 63 12 36 0 60 5 62 12 3 8 11 7 28 -5 14 -9 32 -17 42 -17 10 0 38 -9
63 -21 39 -19 48 -19 75 -8 16 8 30 16 30 19 0 27 -107 110 -142 110 -11 0
-16 5 -13 10 4 6 -11 10 -40 8 -25 0 -51 4 -57 10 -7 7 -18 12 -26 12 -7 0
-20 7 -28 15 -9 8 -27 15 -41 15 -14 0 -38 8 -55 18 -27 15 -31 16 -41 1 -8
-11 -18 -14 -32 -8 -11 4 -41 8 -66 8 -32 1 -49 6 -53 16 -6 17 -75 21 -77 5
-2 -14 -5 -22 -13 -43 -9 -20 1 -69 16 -78 6 -4 9 -12 7 -18 -3 -6 -9 -7 -18
-2 -8 5 -16 38 -20 87 l-6 79 -41 3 c-28 2 -49 11 -64 28 -44 45 -50 34 -50
-86 0 -60 -3 -110 -6 -110 -3 0 -12 7 -20 15 -20 19 -53 19 -60 0 -7 -16 -34
-21 -34 -6 0 5 -9 13 -20 16 -11 3 -20 13 -20 20 0 9 -6 12 -15 9 -31 -12 -14
17 20 33 43 21 36 35 -15 27 -49 -8 -55 4 -40 71 6 26 8 50 5 53 -2 3 -20 -10
-38 -29 -18 -19 -52 -43 -75 -53 -51 -23 -63 -46 -24 -46 l27 -1 -24 -20 c-20
-16 -22 -23 -13 -43 8 -19 20 -24 68 -29 31 -3 61 -12 65 -19 7 -10 9 -10 9 2
0 8 9 21 21 28 19 12 20 12 14 -10 -4 -13 -15 -32 -25 -43 -19 -22 -33 -65
-20 -65 4 0 11 -7 14 -16 10 -26 -21 -51 -70 -57 -76 -8 -107 -55 -63 -96 12
-11 22 -31 23 -45 0 -15 8 -29 16 -32 30 -11 61 -63 65 -111 2 -29 1 -42 -5
-34 -9 16 -103 8 -108 -9 -2 -6 -8 -10 -14 -10 -13 0 -38 -26 -38 -39 0 -16
143 -14 158 1 10 10 16 7 28 -10 8 -12 25 -22 37 -22 27 1 60 24 49 35 -4 4 7
4 23 0 35 -10 69 -10 107 0 41 11 78 -2 78 -25 0 -11 -4 -20 -10 -20 -5 0 -10
-6 -10 -14 0 -7 -14 -19 -30 -26 -16 -7 -30 -16 -30 -21 0 -5 -8 -9 -18 -9
-17 0 -33 -21 -45 -61 -3 -9 -16 -19 -29 -22 -108 -26 -239 -56 -268 -61 -59
-10 -72 -13 -178 -41 -57 -15 -113 -25 -123 -22 -10 3 -17 1 -13 -4 3 -5 -2
-9 -11 -9 -8 0 -20 10 -25 23 -5 12 -9 18 -9 13 -1 -5 -9 -2 -18 6 -10 9 -38
18 -63 21 -25 3 -88 10 -140 17 -94 13 -170 8 -170 -10 0 -6 -4 -10 -10 -10
-5 0 -19 -10 -32 -23 -13 -12 -32 -29 -44 -37 -12 -9 -23 -31 -27 -52 -5 -36
-4 -38 21 -40 15 -1 37 -1 50 0 12 0 20 -3 17 -7 -8 -14 -59 -20 -72 -9 -9 7
-18 4 -30 -11 -10 -12 -38 -25 -63 -30 -103 -22 -287 -63 -424 -96 -38 -9 -76
-14 -85 -12 -11 3 -9 5 6 6 12 0 27 10 33 21 6 11 9 20 6 20 -2 0 3 22 13 48
19 57 68 103 126 122 22 7 55 26 73 41 18 16 37 29 41 29 5 0 12 37 16 83 4
45 14 91 21 102 8 10 17 41 20 67 4 27 15 56 28 70 32 34 48 70 42 94 -5 19 2
39 41 107 7 12 13 30 13 40 0 28 29 77 45 77 18 0 31 25 39 72 3 21 11 59 17
85 7 27 11 103 10 171 -2 133 -2 132 57 116 17 -5 22 -14 22 -39 0 -64 86
-112 152 -84 24 10 31 9 49 -7 17 -16 22 -16 29 -4 8 13 11 13 25 -1 15 -15
22 -11 81 49 35 36 66 63 70 60 3 -4 -6 -32 -21 -63 -15 -30 -25 -58 -23 -61
3 -2 20 9 38 26 24 22 42 30 70 30 48 0 72 24 44 45 -10 8 -36 20 -58 27 -21
6 -40 18 -43 25 -3 7 -14 13 -25 13 -10 0 -52 15 -92 34 -40 18 -97 39 -127
45 -30 7 -91 28 -136 46 -72 30 -166 48 -176 34 -6 -8 -57 -119 -57 -125 0 -3
-26 -42 -57 -87 -32 -44 -61 -85 -65 -91 -4 -6 -10 -8 -13 -4 -3 3 6 34 21 69
110 262 167 548 198 1007 12 166 21 565 17 668 -1 7 -134 13 -438 18 -911 14
-1058 16 -1443 26 -217 5 -647 12 -955 15 -308 3 -575 8 -592 11 l-33 6 3 277
2 276 149 3 c93 2 153 -1 160 -8 7 -7 -25 -11 -100 -12 l-109 -2 100 -8 c216
-17 225 -18 225 -39 0 -10 6 -19 14 -19 8 0 17 -7 20 -16 9 -22 8 -24 -9 -24
-8 0 -15 -4 -15 -10 0 -6 -30 -10 -70 -10 l-70 0 0 -30 c0 -28 2 -30 40 -30
l40 0 0 -60 0 -60 30 0 c17 0 30 5 30 13 0 25 35 35 104 30 50 -4 69 -10 74
-22 3 -9 11 -22 18 -28 23 -23 186 -55 304 -60 124 -4 701 12 865 25 l100 8
-92 2 c-54 1 -93 6 -93 12 0 22 40 48 85 54 26 4 57 11 69 16 11 5 39 12 61
16 33 5 37 8 20 14 -15 7 -9 9 23 9 35 1 42 4 42 21 0 13 7 20 19 20 21 0 30
25 32 85 l1 40 10 -30 c15 -40 24 -45 86 -45 43 0 52 3 52 18 0 9 7 26 15 36
13 17 15 18 15 3 0 -9 6 -17 13 -17 7 0 19 -9 27 -20 10 -14 26 -20 53 -20 30
0 40 4 44 20 6 23 23 27 23 6 0 -17 22 -26 63 -26 39 0 52 -8 61 -37 4 -13 12
-23 17 -23 5 0 9 -6 9 -14 0 -32 61 -36 615 -43 661 -9 821 -4 832 23 7 18 32
18 39 -1 4 -8 12 -15 20 -15 20 0 17 -37 -4 -68 -10 -15 -25 -48 -32 -74 -7
-26 -16 -46 -20 -43 -15 9 -17 -45 -3 -65 16 -23 59 -23 101 -1 12 7 26 10 31
7 8 -5 60 9 93 25 11 5 18 4 21 -4 3 -9 9 -9 24 0 15 8 23 9 31 1 8 -8 15 -8
25 0 8 7 17 9 20 5 4 -3 7 0 7 7 0 9 6 7 21 -6 20 -18 22 -18 34 -1 14 20 55
23 55 5 1 -7 9 -3 20 10 11 13 24 20 31 17 6 -4 22 -2 35 6 18 9 24 21 24 45
0 18 5 36 10 39 5 3 10 15 10 26 0 10 4 27 9 37 22 40 51 122 51 141 0 28 -27
27 -36 -1 -3 -13 -15 -35 -25 -49 -10 -14 -21 -38 -25 -53 -4 -16 -17 -31 -30
-36 -13 -5 -29 -18 -36 -30 -16 -26 -28 -26 -21 0 4 16 0 20 -18 20 -29 0 -38
-6 -68 -45 l-24 -30 7 35 c3 19 15 47 25 61 27 36 31 83 8 87 -10 2 -20 -4
-24 -15 -4 -10 -13 -24 -21 -32 -7 -7 -11 -19 -9 -26 3 -6 1 -18 -4 -26 -7
-11 -9 -10 -9 5 0 14 -5 17 -21 13 -15 -4 -19 -2 -15 10 3 8 6 20 6 26 0 8 3
8 9 -1 5 -8 7 1 7 24 -2 49 -21 54 -36 10 -6 -20 -16 -36 -21 -36 -5 0 -8 -3
-6 -8 4 -15 -36 -92 -49 -92 -8 0 -28 -16 -45 -35 -18 -19 -38 -35 -46 -35 -7
0 -12 -3 -11 -7 3 -10 -21 -44 -45 -62 -18 -14 -18 -13 -14 15 8 48 17 62 48
74 34 15 38 36 8 45 -15 5 -18 10 -9 15 6 4 11 10 11 14 -2 14 0 22 9 36 9 13
13 11 29 -9 22 -29 41 -20 41 19 0 29 -1 29 -62 32 -56 3 -60 5 -30 12 33 9
35 13 36 91 1 26 4 30 26 27 14 -1 26 -7 28 -12 2 -5 13 -5 27 0 15 6 27 6 30
0 9 -14 25 -12 25 3 0 27 49 36 260 48 226 12 300 6 300 -26 0 -8 7 -15 15
-15 8 0 15 -4 15 -10 0 -5 14 -10 30 -10 25 0 30 4 30 23 0 28 40 70 47 50 5
-15 33 -17 33 -3 0 6 11 10 25 10 14 0 25 -4 25 -10 0 -5 13 -10 29 -10 36 0
46 -13 26 -33 -8 -9 -15 -27 -15 -40 0 -14 -7 -27 -15 -31 -9 -3 -15 -18 -15
-36 0 -17 -4 -38 -9 -48 -6 -9 -16 -37 -23 -61 -19 -66 -34 -62 -41 11 -7 79
-14 98 -36 98 -18 0 -31 -21 -52 -81 -7 -20 -20 -47 -30 -60 l-17 -23 -16 38
c-9 21 -16 43 -16 48 0 12 -63 38 -95 38 -39 0 -40 -22 -6 -95 17 -36 31 -70
31 -75 0 -6 4 -10 9 -10 5 0 14 -13 21 -30 10 -23 9 -39 -1 -80 -7 -27 -16
-50 -21 -50 -16 0 -8 -62 11 -78 11 -10 22 -27 26 -39 5 -18 1 -25 -19 -33
-29 -11 -32 -37 -17 -117 7 -38 6 -43 -10 -43 -11 0 -19 -3 -20 -7 -5 -52 -39
-113 -64 -113 -7 0 -17 17 -22 38 -6 27 -14 38 -31 40 -18 3 -22 -1 -22 -25 0
-67 13 -104 37 -114 31 -12 58 2 100 50 l32 36 1 -101 c0 -56 -3 -116 -6 -133
l-6 -31 -134 1 c-74 1 -131 5 -129 10 3 4 57 33 119 64 112 55 149 85 104 85
-19 0 -266 -116 -278 -131 -3 -3 -11 -8 -18 -10 -11 -4 -9 -10 6 -29 20 -25
23 -25 179 -27 106 -1 158 -5 157 -12 -1 -6 -2 -26 -2 -45 -2 -30 -6 -35 -32
-41 -16 -4 -30 -8 -30 -10 0 -1 7 -19 15 -39 18 -42 42 -47 51 -11 9 35 20 31
56 -20 34 -48 50 -48 62 0 4 14 13 25 21 25 11 0 15 -13 15 -50 0 -55 13 -64
43 -29 23 26 41 20 45 -15 3 -21 7 -25 16 -17 16 14 66 -8 66 -29 0 -8 -11
-33 -25 -55 -27 -44 -32 -63 -12 -46 8 6 30 17 49 26 l36 14 27 -35 27 -36
-27 -28 c-15 -16 -40 -34 -56 -40 -40 -17 -37 -31 4 -18 64 20 77 21 77 6 0
-30 -32 -78 -73 -109 -32 -24 -36 -30 -17 -24 68 19 73 18 128 -31 37 -33 62
-67 82 -110 30 -67 57 -89 99 -80 87 18 88 18 107 -2 33 -35 84 -33 84 3 0 14
-3 25 -8 25 -18 0 -42 66 -36 98 6 27 2 38 -19 60 -19 20 -24 31 -17 42 16 26
11 36 -26 54 -39 18 -37 33 5 41 29 5 67 -13 86 -42 21 -32 55 -31 55 1 0 14
4 36 10 51 9 22 6 30 -18 51 -15 14 -28 38 -29 52 -1 14 -9 29 -17 34 -8 4
-17 26 -21 48 -5 31 -14 44 -41 61 -19 11 -44 39 -55 61 -27 53 -105 91 -180
87 -41 -2 -54 1 -66 17 -10 14 -30 20 -76 25 -63 5 -63 6 5 31 14 5 28 18 31
29 8 31 54 24 88 -12 16 -17 29 -35 29 -39 0 -15 31 -20 50 -8 16 10 22 8 40
-15 24 -30 67 -37 77 -11 3 8 12 13 19 10 22 -8 17 8 -21 72 -36 60 -48 92
-46 127 4 92 -11 135 -46 135 -7 0 -13 5 -13 10 0 15 -29 12 -46 -5 -25 -25
-43 -18 -42 15 2 57 -58 90 -136 76 -38 -7 -103 -55 -126 -92 -14 -23 -20 -25
-65 -20 -35 4 -43 3 -25 -3 15 -6 18 -9 9 -10 -9 -1 -27 -10 -40 -20 l-24 -19
-16 71 c-17 78 -10 228 10 235 6 2 11 19 11 37 0 41 39 85 74 85 13 0 27 7 30
16 4 11 12 14 24 9 9 -4 23 -8 30 -8 6 0 12 -5 13 -11 0 -6 4 -2 9 9 4 11 6
31 3 45 -3 14 -2 22 2 17 8 -7 40 50 37 66 -3 14 54 7 77 -10 24 -16 24 -16
19 10 -3 15 -1 24 3 21 5 -3 9 -13 9 -23 0 -10 9 -21 20 -24 27 -7 25 -21 -5
-41 -30 -19 -23 -46 11 -46 20 0 23 4 19 23 -6 21 -3 22 45 19 27 -2 50 0 50
5 0 5 21 10 46 11 26 1 52 6 59 12 6 5 14 7 17 4 10 -9 38 76 38 116 0 45 12
50 60 25 22 -11 30 -23 30 -42 0 -31 54 -87 76 -79 9 4 14 21 14 55 l0 49 42
-9 c45 -11 70 -34 64 -60 -2 -12 2 -15 16 -11 14 3 21 -2 25 -17 6 -25 23 -18
23 9 0 10 8 24 18 29 16 10 16 10 -2 11 -11 0 -17 3 -13 6 3 4 30 -1 59 -11
91 -29 114 -35 134 -35 27 0 64 -29 47 -36 -22 -9 -15 -44 8 -44 18 0 21 5 17
30 -3 17 -4 30 -3 30 8 0 131 -43 135 -47 3 -3 -9 -3 -26 0 -17 3 -36 1 -42
-5 -14 -14 5 -68 24 -68 8 0 14 -4 14 -10 0 -5 -13 -10 -30 -10 -23 0 -30 -4
-30 -20 0 -16 -7 -20 -30 -20 -23 0 -30 4 -30 20 0 13 -7 20 -20 20 -13 0 -20
-7 -20 -20 0 -13 7 -20 20 -20 18 0 20 -7 20 -80 0 -73 2 -80 20 -80 17 0 20
-7 20 -40 0 -33 -3 -40 -20 -40 -17 0 -20 -7 -20 -40 0 -33 -3 -40 -20 -40
-18 0 -20 -7 -20 -60 0 -53 -2 -60 -20 -60 -19 0 -20 -7 -20 -95 0 -52 -4 -95
-8 -95 -4 0 -28 -18 -52 -41 -25 -22 -57 -43 -72 -46 -25 -5 -28 -10 -28 -44
l0 -39 -54 0 c-60 0 -66 -6 -66 -71 0 -36 2 -39 29 -39 57 0 91 -12 91 -31 0
-12 7 -19 20 -19 16 0 20 -7 20 -35 0 -33 2 -35 34 -35 45 0 66 -9 66 -27 0
-13 9 -15 46 -9 26 3 84 6 130 6 l84 0 0 30 c0 28 2 30 38 30 l37 0 23 73 c12
39 22 93 22 120 l0 47 41 0 c36 0 40 3 39 23 -5 58 -6 57 80 57 71 0 80 2 80
18 0 17 10 19 120 19 110 0 120 -2 120 -19 0 -14 8 -18 40 -18 33 0 40 3 40
20 0 19 7 20 100 20 93 0 100 1 100 20 0 13 7 20 20 20 20 0 20 7 20 2460 l0
2460 -3600 0 -3600 0 0 -6400z m6795 3679 c153 -68 200 -265 96 -404 -25 -34
-27 -41 -14 -50 23 -17 -3 -53 -49 -67 -30 -9 -45 -8 -80 5 -34 13 -55 15 -98
8 -30 -5 -63 -13 -73 -16 -53 -21 -137 34 -107 70 11 13 9 19 -8 38 -85 90
-82 268 6 360 77 82 216 105 327 56z m-652 5 c52 -18 116 -76 143 -132 28 -55
26 -174 -4 -229 -50 -95 -136 -143 -256 -143 -209 0 -331 220 -222 402 25 42
43 59 94 85 54 28 75 33 131 33 37 0 88 -7 114 -16z m-5834 -111 c15 -56 71
-300 71 -307 0 -3 -15 -6 -33 -6 -28 0 -34 4 -42 32 -9 29 -14 32 -50 31 -36
0 -40 -3 -47 -31 -8 -28 -13 -32 -42 -32 l-34 0 14 58 c7 31 26 110 41 175
l27 117 43 0 c40 0 43 -2 52 -37z m401 -55 l1 -93 30 38 c23 27 39 37 60 37
16 0 29 -3 29 -6 0 -4 -16 -28 -35 -53 -30 -41 -33 -50 -21 -67 7 -10 25 -40
40 -66 l27 -48 -35 0 c-30 0 -38 5 -57 40 -13 22 -26 40 -31 40 -4 0 -8 -18
-8 -40 0 -38 -2 -40 -30 -40 l-30 0 0 175 0 175 30 0 30 0 0 -92z m1740 -83
l0 -176 -42 1 c-24 1 -55 -1 -69 -5 -19 -5 -33 -1 -55 18 -28 24 -29 29 -29
106 1 69 4 85 22 102 22 22 54 28 91 15 21 -7 22 -5 22 53 l0 61 30 0 30 0 0
-175z m452 83 l3 -92 25 37 c20 30 31 37 58 37 30 0 42 -12 24 -24 -5 -3 -21
-23 -36 -44 l-27 -40 40 -66 41 -66 -35 0 c-30 0 -38 5 -57 40 -13 22 -26 40
-30 40 -5 0 -8 -18 -8 -40 0 -39 -1 -40 -35 -40 l-35 0 0 168 c0 93 3 172 7
175 3 4 19 7 34 7 l28 0 3 -92z m728 28 l0 -65 35 15 c28 11 40 12 58 3 34
-18 37 -27 37 -136 l0 -103 -30 0 -30 0 0 90 c0 75 -3 92 -16 97 -37 14 -49
-10 -52 -101 l-3 -86 -29 0 -30 0 0 175 0 175 30 0 30 0 0 -64z m530 3 c0 -58
1 -60 23 -53 76 26 107 -8 107 -118 0 -71 -2 -81 -26 -105 -21 -21 -31 -24
-57 -18 -18 4 -49 6 -69 6 l-38 -2 0 176 0 175 30 0 30 0 0 -61z m-1482 -11
c3 -35 6 -38 33 -38 24 0 29 -4 29 -25 0 -21 -5 -25 -30 -25 l-31 0 3 -67 c3
-66 4 -68 31 -71 21 -3 27 -8 23 -19 -3 -8 -6 -19 -6 -24 0 -16 -73 -10 -92 8
-14 13 -18 31 -18 90 0 66 -2 75 -20 80 -13 3 -20 14 -20 29 0 17 6 24 20 24
17 0 20 7 20 41 0 38 1 40 28 37 23 -3 27 -8 30 -40z m-2094 -58 c24 -24 34
-122 17 -173 -15 -44 -59 -66 -97 -48 -14 6 -27 11 -29 11 -3 0 -5 -29 -5 -65
l0 -65 -30 0 -30 0 0 181 0 182 39 -6 c21 -2 45 -1 52 4 19 12 60 2 83 -21z
m402 20 c8 0 23 -9 34 -20 17 -17 20 -33 20 -121 l0 -101 -32 3 c-18 1 -48 -1
-66 -5 -50 -12 -82 13 -82 64 0 44 20 64 83 81 28 7 37 15 35 27 -5 25 -45 27
-58 3 -13 -25 -48 -28 -57 -5 -13 34 56 90 95 78 8 -2 20 -4 28 -4z m293 -1
c38 -14 51 -35 51 -88 l0 -41 -61 0 c-60 0 -60 0 -57 -27 3 -32 44 -46 54 -19
4 10 18 16 35 16 35 0 39 -25 10 -61 -27 -34 -99 -34 -135 0 -23 22 -26 32
-26 96 0 79 20 120 63 128 12 2 25 5 28 6 3 0 20 -4 38 -10z m199 0 c29 -10
59 -59 45 -73 -15 -15 -51 -5 -56 15 -4 13 -12 20 -24 17 -31 -6 -27 -34 7
-48 78 -32 101 -82 61 -131 -15 -19 -29 -24 -66 -24 -37 0 -51 5 -66 24 -29
36 -25 61 11 61 24 0 30 -4 30 -21 0 -15 5 -20 22 -17 42 6 33 36 -16 58 -54
23 -75 57 -60 98 9 25 45 52 70 52 6 0 25 -5 42 -11z m219 -13 c6 -6 13 -22
15 -36 2 -21 -2 -26 -23 -28 -20 -2 -28 2 -32 18 -4 14 -12 21 -24 18 -29 -5
-21 -32 15 -50 73 -36 92 -81 53 -129 -15 -19 -29 -24 -66 -24 -37 0 -51 5
-66 24 -29 36 -25 61 10 61 21 0 30 -6 34 -21 7 -25 40 -22 45 4 3 12 -9 23
-42 37 -51 21 -70 54 -60 97 12 45 104 65 141 29z m182 13 c17 -6 36 -19 41
-29 6 -10 10 -62 10 -116 l0 -97 -40 6 c-22 3 -43 1 -46 -4 -8 -14 -47 -11
-72 7 -16 11 -22 25 -22 54 0 44 20 64 83 81 28 7 37 15 35 27 -5 25 -45 27
-58 3 -13 -25 -48 -28 -57 -5 -8 23 16 62 46 73 35 13 43 13 80 0z m319 -22
c16 -15 22 -32 22 -64 l0 -43 -61 0 c-60 0 -60 0 -57 -27 3 -32 44 -46 54 -19
8 20 64 22 64 2 0 -69 -102 -98 -158 -45 -19 17 -22 31 -22 98 0 68 3 80 23
98 12 11 29 23 37 26 25 9 73 -4 98 -26z m1000 -3 c19 -21 22 -36 22 -99 0
-70 -1 -74 -32 -100 -27 -23 -39 -26 -71 -22 -59 8 -80 35 -85 107 -3 36 1 72
9 91 24 60 111 73 157 23z m240 9 c8 -11 12 -53 12 -120 l0 -103 -30 0 -30 0
0 90 c0 75 -3 92 -17 97 -32 12 -53 -32 -53 -113 l0 -74 -30 0 -30 0 0 120 0
120 29 0 c16 0 31 -5 33 -12 3 -8 11 -7 29 5 27 20 67 15 87 -10z m530 -9 c15
-17 22 -38 22 -65 l0 -39 -61 0 c-60 0 -60 0 -57 -27 3 -32 44 -46 54 -19 4
10 18 16 35 16 35 0 40 -29 9 -60 -27 -27 -63 -34 -105 -20 -46 15 -55 34 -55
123 0 64 3 76 23 94 12 11 29 23 37 26 28 11 75 -3 98 -29z m542 10 c11 -11
15 -39 15 -117 l0 -102 -32 -3 -33 -3 0 91 c0 72 -3 92 -15 96 -33 13 -45 -15
-45 -102 l0 -84 -35 0 -35 0 0 120 0 120 35 0 c19 0 35 -4 35 -9 0 -6 12 -3
28 4 29 16 58 12 82 -11z m215 -5 c17 -16 21 -36 23 -120 l4 -100 -44 1 c-23
1 -54 -1 -68 -5 -34 -9 -80 27 -80 61 0 42 17 62 70 79 37 12 50 22 50 36 0
26 -36 25 -52 -1 -12 -19 -48 -27 -61 -14 -3 3 -1 19 5 36 20 56 108 72 153
27z m394 20 c36 -13 61 -53 61 -99 l0 -30 -59 0 c-63 0 -76 -8 -66 -40 8 -24
55 -28 55 -5 0 11 11 15 36 15 32 0 35 -2 29 -22 -4 -13 -18 -34 -33 -47 -21
-19 -33 -22 -65 -18 -60 8 -80 35 -85 109 -5 79 9 115 50 133 41 17 38 17 77
4z m204 -3 c15 -8 27 -11 27 -5 0 5 14 9 31 9 l30 0 -3 -154 c-3 -134 -5 -157
-22 -175 -42 -46 -144 -35 -166 19 -7 16 -9 34 -5 39 10 18 44 12 57 -9 27
-42 78 -15 78 41 0 18 -3 20 -12 11 -7 -7 -29 -12 -49 -12 -56 0 -79 34 -79
116 0 72 13 107 44 122 29 14 37 14 69 -2z m285 -22 c19 -22 22 -36 22 -120
l0 -95 -42 1 c-24 1 -54 -1 -68 -5 -36 -9 -80 27 -80 65 0 27 32 70 52 70 5 0
24 7 43 14 25 11 33 19 29 30 -9 22 -41 20 -56 -4 -18 -29 -58 -27 -58 3 0 73
105 101 158 41z m-3048 -94 l0 -120 -35 0 -35 0 0 113 c0 63 3 117 7 120 3 4
19 7 35 7 l28 0 0 -120z m2280 63 c19 -90 25 -92 45 -14 18 68 20 71 48 71 28
0 29 -2 23 -33 -3 -19 -25 -99 -49 -178 l-42 -144 -34 -3 c-28 -3 -33 -1 -27
14 28 74 28 99 -3 207 -18 59 -34 113 -37 122 -5 12 2 15 28 15 34 0 35 -1 48
-57z m521 -865 c-2 -25 1 -38 9 -38 7 0 10 -7 6 -15 -3 -8 1 -21 9 -29 8 -8
14 -23 14 -33 -1 -17 -2 -17 -6 0 -3 11 -14 17 -31 16 -17 -1 -21 -3 -9 -6 9
-2 17 -8 17 -13 0 -4 -8 -7 -17 -5 -10 2 -34 6 -53 9 -25 4 -36 12 -37 24 0 9
-4 36 -8 59 -7 42 -7 43 25 56 17 8 44 14 59 13 24 -1 26 -4 22 -38z m1555
-2460 c16 -24 41 -58 57 -77 31 -37 67 -112 67 -141 0 -13 -10 -19 -40 -23
-22 -3 -48 -3 -58 0 -33 8 -54 60 -58 142 -3 42 -6 91 -9 109 -5 43 7 40 41
-10z m-5244 -1625 c-4 -111 -36 -287 -58 -320 -8 -12 -14 -30 -14 -39 0 -31
-141 -204 -166 -204 -7 0 -25 -10 -41 -22 -15 -13 -44 -31 -64 -41 -40 -21
-70 -67 -44 -67 8 0 15 -6 15 -14 0 -9 -20 -15 -67 -19 -37 -3 -69 -10 -71
-16 -2 -6 -12 -11 -23 -11 -14 0 -19 -7 -19 -30 0 -16 -3 -30 -6 -30 -13 0
-34 30 -34 48 0 11 -6 22 -12 25 -10 4 -10 7 0 18 14 15 16 29 3 29 -14 0 -98
-131 -106 -165 -4 -17 -13 -34 -20 -40 -6 -5 -12 -12 -13 -15 -1 -8 -14 -44
-25 -72 -6 -15 -14 -23 -18 -17 -3 5 -6 -5 -6 -23 0 -17 -5 -34 -11 -36 -6 -2
-9 -9 -6 -16 10 -25 -25 -26 -50 -1 -21 21 -35 25 -81 25 l-55 0 0 -60 c0 -53
-2 -60 -20 -60 -11 0 -20 -7 -20 -15 0 -8 -10 -26 -22 -40 -18 -21 -30 -25
-80 -25 -51 0 -58 -2 -58 -20 0 -18 -7 -20 -80 -20 l-80 0 0 -40 0 -40 -40 2
c-39 3 -40 4 -40 41 0 35 -2 37 -30 37 l-31 0 3 -60 c2 -48 -1 -62 -16 -73
-11 -8 -16 -19 -12 -25 4 -7 3 -12 -3 -12 -18 0 -24 70 -18 199 3 69 3 178 -1
241 l-7 115 -5 -155 -6 -155 -2 153 c-2 145 -3 152 -22 152 -11 0 -20 5 -20
10 0 6 -7 10 -15 10 -13 0 -15 -26 -17 -162 -2 -157 -2 -154 -9 77 -9 352 -10
1038 0 1053 7 11 116 12 617 4 624 -10 831 -9 919 7 28 5 64 9 80 10 l31 1 -4
-97z m498 -493 c17 -63 36 -135 41 -159 5 -25 13 -59 19 -75 5 -17 19 -76 31
-131 12 -55 25 -104 29 -110 4 -5 10 -32 12 -60 3 -27 21 -113 41 -190 19 -77
43 -176 52 -220 8 -44 22 -98 29 -120 14 -41 36 -132 80 -335 14 -63 48 -212
76 -330 58 -244 137 -577 142 -600 2 -13 -12 -15 -87 -14 -49 0 -261 2 -470 3
-209 1 -389 6 -400 11 -17 7 -17 9 -2 9 11 1 18 10 19 29 7 107 13 119 59 127
29 5 39 11 39 26 0 13 -7 19 -22 20 -22 1 -22 1 2 9 19 6 8 8 -40 10 -36 1
-59 4 -52 7 14 6 17 93 2 93 -6 0 -10 33 -10 80 l0 80 -80 0 c-47 0 -80 -4
-80 -10 0 -6 -33 -10 -80 -10 -47 0 -80 4 -80 10 0 6 -27 10 -60 10 l-60 0 0
-80 0 -80 40 0 c22 0 40 -4 40 -10 0 -5 -4 -10 -10 -10 -5 0 -10 -5 -10 -11 0
-6 -7 -18 -17 -27 -13 -13 -15 -13 -11 -2 2 8 -1 21 -8 28 -11 10 -17 9 -34
-8 -21 -21 -23 -21 -41 -4 -10 9 -19 23 -19 30 0 7 -6 12 -12 10 -7 -1 -10 -1
-5 1 4 3 7 17 7 32 0 33 -36 55 -63 39 -10 -5 -16 -6 -15 -1 2 4 -15 26 -37
48 -42 41 -112 144 -107 157 1 5 -2 8 -7 8 -13 0 -63 99 -56 110 3 5 -3 18
-13 28 -22 22 -78 169 -68 179 3 3 6 1 6 -6 0 -8 6 -6 17 5 17 17 18 16 23
-17 3 -19 2 -35 -2 -37 -21 -9 12 -82 36 -82 3 0 6 32 6 70 l0 70 40 0 c33 0
40 -3 40 -20 0 -17 7 -20 40 -20 l40 0 0 -40 c0 -29 4 -40 15 -40 11 0 16 12
17 43 l1 42 4 -42 c3 -29 9 -43 19 -43 11 0 14 19 16 93 1 59 3 73 5 40 3 -45
7 -53 24 -53 16 0 19 7 19 50 0 28 5 50 10 50 6 0 10 12 10 28 0 15 5 45 11
67 8 29 8 40 0 43 -7 2 -11 34 -11 83 0 64 3 79 15 79 8 0 15 5 15 10 0 6 7
10 15 10 12 0 15 14 15 70 0 63 2 70 20 70 18 0 20 7 20 80 0 64 3 80 15 80
12 0 15 15 15 75 0 58 4 77 15 81 10 4 15 20 15 45 0 21 5 39 10 39 6 0 10 15
10 34 0 54 8 66 46 66 31 0 34 3 34 30 0 23 4 30 20 30 11 0 20 5 20 10 0 6 9
10 19 10 10 0 21 7 25 15 3 9 18 15 36 15 17 0 30 5 31 13 0 10 2 10 6 0 8
-21 57 -15 71 7 7 11 19 20 27 20 8 0 15 4 15 9 0 5 9 7 20 4 11 -3 20 0 20 6
0 6 11 16 25 21 14 5 25 14 25 20 0 5 8 10 18 10 25 0 42 20 42 48 0 14 9 39
19 56 11 17 22 48 26 68 4 20 13 39 21 42 8 3 14 16 14 30 0 16 7 27 20 31 11
3 20 11 20 17 0 6 12 8 30 5 26 -6 30 -4 31 16 1 25 -1 30 49 -153z m4632 -53
c10 -16 10 -78 0 -94 -4 -7 -27 -14 -50 -15 -23 -2 -42 -6 -42 -10 0 -5 -6 -8
-12 -8 -13 0 -38 -44 -38 -67 0 -17 20 -16 44 2 12 9 42 15 72 15 29 0 56 4
59 10 3 5 26 8 50 7 65 -4 85 -33 78 -118 -3 -35 -12 -72 -19 -83 -7 -10 -10
-25 -7 -32 3 -9 -6 -18 -26 -25 -17 -6 -31 -15 -31 -20 0 -5 -8 -9 -17 -10
-10 0 -31 -9 -48 -20 -56 -35 -152 -79 -174 -79 -31 0 -61 -18 -61 -35 0 -22
-52 -19 -82 4 -23 19 -42 55 -66 129 -6 18 -10 73 -8 121 2 70 7 95 24 123 12
19 22 42 22 50 0 8 9 33 20 55 15 31 27 42 46 45 15 2 32 12 38 23 5 11 25 43
44 71 l33 52 72 -39 c39 -22 75 -45 79 -52z m-362 -43 c0 -15 -9 -38 -21 -50
-22 -24 -57 -130 -66 -199 -7 -54 -18 -64 -44 -36 -13 14 -24 44 -30 84 -10
75 -10 88 1 62 8 -18 9 -17 9 7 1 15 6 30 11 33 6 3 10 15 10 26 0 11 6 22 14
25 8 3 19 25 25 48 13 53 46 74 74 45 9 -10 17 -30 17 -45z m-5591 -1354 c16
-47 30 -93 30 -102 1 -10 5 -18 9 -18 9 0 45 -77 45 -97 0 -7 5 -13 11 -13 6
0 17 -12 24 -27 14 -32 16 -55 2 -33 -7 11 -10 12 -10 2 0 -8 9 -16 20 -19 11
-3 27 -21 36 -39 9 -19 31 -51 50 -71 32 -35 45 -61 24 -48 -5 3 -10 1 -10 -5
0 -7 7 -10 15 -7 16 7 68 -49 60 -63 -3 -5 4 -14 15 -20 22 -12 28 -32 6 -24
-10 4 -12 -2 -9 -20 4 -18 12 -26 25 -26 16 0 19 5 14 25 l-6 25 23 -23 c22
-21 35 -63 16 -52 -5 4 -9 13 -9 21 0 8 -5 12 -10 9 -7 -4 -7 -12 0 -24 12
-24 4 -31 -35 -31 -23 0 -38 7 -51 25 -17 23 -25 25 -96 25 -71 0 -78 2 -78
20 0 18 -7 20 -80 20 -73 0 -80 2 -80 20 0 18 -7 20 -80 20 -64 0 -80 3 -80
15 0 8 -4 15 -10 15 -5 0 -10 6 -10 14 0 8 -14 20 -30 28 -33 14 -40 38 -12
39 13 0 14 2 3 6 -8 3 -25 17 -38 29 -13 13 -33 24 -45 24 -16 0 -19 4 -14 23
3 12 6 28 6 35 0 6 7 12 15 12 8 0 15 9 15 20 0 13 7 20 20 20 13 0 20 7 20
20 0 17 7 20 40 20 l40 0 0 79 c0 54 -4 81 -12 84 -7 2 -10 7 -6 11 3 4 15 3
25 -2 30 -16 146 -19 151 -4 2 6 9 12 16 12 19 0 20 87 1 113 -12 17 -15 18
-15 5 0 -9 5 -18 11 -20 6 -2 9 -15 7 -28 l-3 -25 -22 23 c-28 27 -30 75 -5
100 16 17 17 16 24 -8 4 -14 21 -63 37 -110z m6243 -161 c8 -24 2 -33 -51 -87
-32 -33 -62 -70 -66 -81 -3 -12 -10 -21 -14 -21 -4 0 -15 -17 -24 -38 -17 -40
-52 -82 -66 -82 -12 0 -32 -60 -25 -71 3 -5 2 -9 -3 -9 -4 0 -14 -12 -20 -27
-7 -16 -21 -49 -32 -74 -11 -25 -32 -58 -47 -72 -15 -15 -23 -31 -18 -38 4 -7
1 -17 -7 -23 -23 -18 -69 -83 -63 -89 15 -14 -72 -23 -181 -18 l-120 6 105 6
105 5 -102 2 c-82 2 -103 5 -103 16 0 8 4 17 9 21 5 3 13 36 16 73 4 37 11 72
15 77 4 6 12 26 19 45 29 89 92 180 125 180 9 0 16 7 16 15 0 16 30 55 42 55
3 0 8 -10 10 -22 4 -27 6 -24 72 67 37 52 57 94 72 153 5 19 44 15 44 -5 0
-20 -31 -105 -40 -113 -14 -11 -40 -74 -40 -97 0 -13 -10 -34 -23 -46 -32 -31
-57 -73 -57 -96 0 -11 -4 -23 -10 -26 -11 -7 -13 -45 -4 -68 4 -12 18 -3 56
36 60 61 70 83 61 142 -4 35 -2 46 10 50 19 8 75 146 80 200 4 38 6 40 40 43
32 3 36 0 42 -27 7 -32 -11 -71 -33 -71 -16 0 -42 -24 -42 -39 0 -5 -8 -11
-17 -14 -17 -4 -17 -4 0 -12 32 -13 65 4 106 57 22 29 47 61 55 71 9 9 16 25
16 35 0 48 77 57 92 11z m-976 -64 c-3 -13 -7 -29 -11 -35 -3 -5 -1 -10 4 -10
7 0 11 -30 11 -80 l0 -79 -38 -11 c-26 -6 -43 -18 -50 -35 -15 -32 -15 -55 -2
-55 6 0 10 5 10 10 0 21 33 9 67 -25 l34 -34 -10 -57 c-6 -32 -11 -59 -11 -61
0 -2 -4 -2 -9 2 -10 6 -31 -54 -31 -87 0 -11 -8 -18 -20 -18 -16 0 -20 -7 -20
-30 0 -16 5 -30 10 -30 6 0 10 4 10 9 0 14 37 1 56 -20 18 -20 17 -20 -51 -17
l-70 3 4 44 c2 28 -2 47 -11 53 -10 7 -10 11 0 15 6 2 12 18 12 34 0 22 -5 29
-20 29 -13 0 -20 7 -20 20 0 13 -7 20 -20 20 -17 0 -18 3 -9 27 11 28 2 173
-10 171 -31 -4 -29 7 5 22 54 24 135 127 175 223 14 34 21 35 15 2z"/>
<path d="M6613 9773 c-20 -4 -23 -11 -23 -51 l0 -47 85 0 85 0 0 46 c0 40 -3
48 -22 53 -25 6 -90 6 -125 -1z"/>
<path d="M4259 8615 c-4 -4 -56 -14 -159 -31 -19 -3 -39 -10 -45 -14 -5 -5
-36 -13 -68 -19 -84 -15 -121 -40 -82 -55 15 -5 58 2 140 23 22 6 45 11 50 11
6 0 10 -43 11 -107 0 -97 7 -160 29 -274 l7 -36 -64 -6 c-56 -4 -70 -1 -120
24 -71 36 -112 37 -172 3 -92 -51 -120 -97 -132 -213 l-7 -62 54 -55 c49 -50
57 -54 99 -54 25 0 60 4 78 9 34 10 122 94 122 117 0 7 11 30 25 50 29 42 31
66 10 84 -24 20 -2 36 65 49 47 9 63 9 80 -1 18 -11 23 -10 35 5 9 13 35 20
97 27 134 14 233 33 248 50 3 3 14 10 25 16 28 16 23 63 -10 91 -30 27 -105
50 -191 59 l-61 6 86 44 c87 44 156 97 186 146 16 25 15 27 -16 62 -17 20 -39
36 -49 36 -11 0 -22 5 -25 10 -6 10 -237 15 -246 5z m269 -68 c11 -12 11 -16
-1 -28 -7 -8 -19 -25 -26 -37 -7 -12 -49 -46 -94 -76 -115 -74 -126 -80 -181
-100 -40 -16 -50 -16 -57 -5 -5 8 -8 66 -7 129 l3 115 75 12 c96 15 268 9 288
-10z m-40 -314 c132 -33 47 -71 -240 -107 l-47 -6 -11 56 c-7 30 -9 58 -6 61
25 26 196 23 304 -4z"/>
<path d="M5770 6074 c0 -22 7 -49 15 -60 9 -12 14 -42 15 -80 0 -86 13 -100
135 -155 17 -8 37 -23 47 -34 23 -28 32 -13 19 28 -14 41 -40 67 -70 70 -11 1
-21 6 -21 13 0 18 -40 104 -58 125 -9 10 -22 19 -29 19 -16 0 -17 12 -3 26 13
13 -5 68 -19 59 -6 -3 -14 3 -20 12 -8 15 -10 10 -11 -23z"/>
</g>
</svg>
