<?xml version="1.0" standalone="no"?>
<!DOCTYPE svg PUBLIC "-//W3C//DTD SVG 20010904//EN"
 "http://www.w3.org/TR/2001/REC-SVG-20010904/DTD/svg10.dtd">
<svg version="1.0" xmlns="http://www.w3.org/2000/svg"
 width="720.000000pt" height="1280.000000pt" viewBox="0 0 720.000000 1280.000000"
 preserveAspectRatio="xMidYMid meet">
<metadata>
Created by potrace 1.16, written by Peter Selinger 2001-2019
</metadata>
<g transform="translate(0.000000,1280.000000) scale(0.100000,-0.100000)"
fill="#000000" stroke="none">
<path d="M0 6400 l0 -6400 3600 0 3600 0 0 1025 0 1025 -2077 0 c-1143 0
-2087 3 -2099 6 -30 8 -45 62 -44 151 2 111 2 111 -20 133 -17 17 -28 19 -74
14 -50 -6 -53 -5 -59 17 -11 39 -8 74 8 95 20 27 19 81 -3 112 -31 44 -93 181
-99 217 -4 25 0 38 16 54 47 47 54 114 16 159 -34 41 -34 94 0 112 21 11 31
10 72 -5 26 -10 52 -22 58 -26 5 -5 17 -9 27 -9 12 0 18 -8 18 -24 0 -31 25
-56 55 -56 31 0 42 33 21 65 -33 50 -8 109 55 135 28 12 36 11 73 -10 64 -34
90 -22 138 67 21 40 35 78 32 87 -6 15 -61 36 -98 36 -35 0 -101 23 -123 43
-38 34 -29 54 42 98 49 31 65 47 65 64 0 28 -36 40 -75 25 -14 -5 -68 -10
-119 -10 -113 0 -116 -2 -151 -125 -29 -98 -42 -118 -96 -146 -21 -10 -43 -24
-50 -32 -29 -27 -64 -47 -85 -47 -12 0 -41 16 -64 35 -63 53 -72 50 -131 -33
-16 -24 -37 -45 -47 -48 -46 -15 -66 -32 -85 -74 -26 -56 -54 -86 -100 -105
-57 -24 -103 -20 -123 11 -17 25 -16 28 9 80 15 30 27 64 27 75 0 11 -15 47
-34 79 -45 76 -51 108 -30 159 15 39 16 96 1 131 -4 8 1 26 11 38 15 20 33 25
98 33 75 8 135 31 194 72 23 16 23 16 6 61 -21 54 -30 62 -92 81 -66 20 -104
18 -134 -5 -18 -14 -41 -20 -80 -20 -54 0 -55 1 -110 58 l-55 58 -67 -4 c-50
-3 -75 0 -100 13 -26 13 -64 18 -175 19 -167 3 -183 10 -183 80 1 69 58 118
108 92 18 -9 45 -12 79 -9 59 6 106 -16 155 -71 l27 -31 -8 30 c-19 74 40 150
140 176 42 11 48 10 77 -11 18 -13 32 -27 32 -32 0 -19 74 -88 94 -88 22 0
136 44 213 82 23 11 65 45 93 74 28 30 57 57 64 61 18 12 56 69 56 85 0 11 -2
11 -9 -1 -5 -8 -11 -9 -15 -3 -3 5 -19 8 -34 6 -23 -3 -32 2 -40 20 -6 13 -24
39 -40 57 l-30 34 -118 -1 c-66 -1 -133 -5 -151 -9 -26 -6 -33 -3 -45 16 -8
13 -22 36 -31 51 l-17 27 -49 -21 c-64 -26 -82 -47 -88 -102 -4 -34 -11 -46
-30 -55 -13 -6 -29 -11 -34 -11 -6 0 -25 -10 -42 -23 -63 -44 -117 -62 -117
-37 0 13 -46 13 -70 0 -13 -7 -21 -26 -26 -67 -4 -38 -15 -68 -30 -86 l-23
-27 -3 42 -3 43 -60 -2 c-33 -1 -70 -3 -83 -4 -31 -1 -65 32 -88 87 -15 37
-22 44 -46 44 -15 0 -28 -4 -28 -9 0 -5 -37 -27 -83 -49 -90 -44 -180 -126
-191 -174 -4 -17 3 -56 19 -104 31 -96 31 -112 -2 -160 -41 -61 -63 -115 -63
-160 0 -50 13 -64 62 -64 36 0 165 -31 188 -45 5 -3 10 -44 10 -90 0 -74 -3
-87 -24 -111 -17 -20 -33 -28 -57 -28 -71 0 -84 10 -124 86 -20 40 -40 76 -44
80 -4 4 -31 10 -61 14 -69 7 -96 24 -105 66 -4 18 -27 74 -51 125 l-44 91 -82
32 c-46 17 -101 46 -123 65 -22 19 -43 35 -47 35 -19 0 -20 52 -2 71 13 15 19
37 19 74 1 51 3 55 54 101 30 27 64 71 81 103 27 54 59 81 95 81 22 0 45 29
45 56 0 47 -29 85 -84 109 -68 30 -79 46 -78 103 2 68 -6 76 -56 51 -40 -20
-44 -20 -68 -5 -13 10 -30 28 -36 42 -6 13 -15 24 -19 24 -4 0 -14 3 -23 6
-11 4 -21 -5 -33 -33 -24 -51 -30 -55 -86 -48 -69 8 -87 -5 -87 -65 0 -32 7
-61 20 -82 25 -42 25 -74 -1 -117 -16 -27 -23 -31 -30 -20 -5 8 -9 1034 -9
2417 l0 2402 3590 0 3590 0 0 1775 0 1775 -3600 0 -3600 0 0 -6400z m6787
3681 c158 -62 210 -264 104 -406 -25 -34 -27 -41 -14 -50 13 -10 13 -15 2 -33
-26 -42 -91 -54 -143 -27 -24 13 -38 13 -90 3 -108 -20 -145 -17 -172 17 -22
28 -23 31 -7 42 15 12 15 15 -5 35 -37 40 -62 109 -62 172 0 78 16 128 58 176
78 92 206 120 329 71z m-644 3 c52 -18 116 -76 142 -130 57 -121 8 -276 -107
-339 -77 -42 -185 -47 -259 -13 -105 49 -153 125 -153 244 1 152 105 252 265
253 36 1 86 -6 112 -15z m-5834 -111 c15 -56 71 -300 71 -307 0 -3 -16 -6 -35
-6 -30 0 -35 3 -35 24 0 33 -20 46 -62 40 -30 -5 -37 -11 -42 -35 -5 -25 -10
-29 -40 -29 l-34 0 14 58 c7 31 25 110 40 175 l28 117 42 0 c41 0 44 -2 53
-37z m401 -55 l1 -93 30 38 c23 27 39 37 60 37 16 0 29 -3 29 -6 0 -4 -16 -27
-35 -53 l-34 -47 21 -35 c11 -19 29 -49 40 -66 l20 -33 -36 0 c-30 0 -38 5
-57 40 -26 45 -39 43 -39 -6 0 -31 -2 -34 -30 -34 l-30 0 0 175 0 175 30 0 30
0 0 -92z m1740 -83 l0 -176 -42 1 c-24 1 -55 -1 -69 -5 -19 -5 -33 -1 -55 18
-28 24 -29 29 -28 107 1 68 4 85 21 102 22 21 54 27 91 14 21 -7 22 -5 22 53
l0 61 30 0 30 0 0 -175z m452 83 l3 -92 25 37 c20 30 31 37 58 37 30 0 42 -12
24 -24 -5 -3 -21 -23 -36 -44 l-27 -40 41 -66 41 -67 -38 3 c-32 3 -41 9 -58
40 -26 49 -35 48 -35 -2 0 -39 -1 -40 -35 -40 l-35 0 0 175 0 175 35 0 34 0 3
-92z m728 27 l0 -66 30 16 c33 17 60 13 85 -11 11 -12 15 -40 15 -120 l0 -104
-30 0 -30 0 0 90 c0 75 -3 92 -16 97 -37 14 -49 -10 -52 -101 l-3 -86 -29 0
-30 0 0 175 0 175 30 0 30 0 0 -65z m530 4 c0 -55 2 -60 18 -53 32 14 75 7 94
-16 14 -17 18 -40 18 -102 0 -71 -2 -81 -26 -105 -20 -20 -31 -24 -52 -18 -15
4 -46 6 -69 5 l-43 -1 0 176 0 175 30 0 30 0 0 -61z m-1480 -9 c0 -38 2 -40
30 -40 25 0 30 -4 30 -25 0 -21 -5 -25 -30 -25 l-31 0 3 -67 c3 -66 4 -68 31
-71 21 -3 27 -8 23 -19 -3 -8 -6 -19 -6 -24 0 -16 -73 -10 -92 8 -14 13 -18
31 -18 90 0 66 -2 75 -20 80 -13 3 -20 14 -20 29 0 17 6 24 20 24 17 0 20 7
20 40 0 38 2 40 30 40 28 0 30 -2 30 -40z m-2095 -61 c17 -16 20 -33 20 -100
0 -77 -1 -82 -29 -106 -28 -24 -47 -26 -88 -8 -16 6 -18 0 -18 -59 l0 -66 -30
0 -30 0 0 181 0 182 38 -5 c20 -3 46 -2 57 3 26 10 55 2 80 -22z m438 -1 c14
-16 17 -39 17 -120 l0 -100 -32 3 c-18 1 -48 -1 -66 -5 -50 -12 -82 13 -82 64
0 44 20 64 83 81 28 7 37 15 35 27 -5 26 -48 28 -55 3 -6 -25 -51 -29 -60 -5
-8 21 27 67 58 75 36 11 82 0 102 -23z m253 22 c39 -15 53 -39 54 -87 l0 -43
-61 0 c-60 0 -60 0 -57 -27 3 -32 44 -46 54 -19 9 23 64 21 64 -2 0 -51 -67
-84 -124 -62 -45 17 -55 38 -56 116 0 78 20 119 63 127 12 2 25 5 29 6 4 0 19
-4 34 -9z m201 -1 c32 -12 43 -26 43 -56 0 -31 -45 -33 -53 -3 -7 26 -47 27
-47 1 0 -12 12 -23 33 -31 74 -30 97 -83 58 -131 -40 -50 -151 -22 -151 38 0
19 5 23 30 23 24 0 30 -4 30 -21 0 -15 5 -20 22 -17 41 6 32 33 -19 59 -91 46
-80 134 19 148 4 1 19 -4 35 -10z m197 -3 c31 -13 53 -55 38 -71 -14 -14 -50
-3 -55 16 -4 13 -12 20 -24 17 -29 -5 -21 -32 15 -50 73 -36 92 -81 53 -129
-15 -19 -29 -24 -66 -24 -37 0 -51 5 -66 24 -29 36 -25 61 10 61 21 0 30 -6
34 -21 7 -25 40 -22 45 3 2 12 -11 24 -43 39 -74 35 -85 107 -21 135 39 17 40
17 80 0z m205 3 c17 -6 36 -19 41 -29 6 -10 10 -62 10 -115 l0 -96 -37 1 c-21
1 -50 -2 -65 -6 -45 -10 -78 18 -78 66 0 44 20 64 83 81 28 7 37 15 35 27 -5
25 -45 27 -58 3 -6 -13 -21 -21 -35 -21 -62 0 -3 95 61 99 6 1 25 -4 43 -10z
m318 -21 c17 -16 23 -33 23 -65 l0 -43 -61 0 c-60 0 -60 0 -57 -27 3 -32 44
-46 54 -19 8 20 64 22 64 2 0 -69 -102 -98 -158 -45 -19 17 -22 31 -22 98 0
68 3 80 23 98 12 11 29 23 37 26 25 10 73 -2 97 -25z m1001 -4 c18 -21 22 -36
22 -98 0 -77 -15 -107 -61 -121 -31 -10 -84 3 -105 26 -23 26 -31 127 -13 170
24 60 111 73 157 23z m240 8 c8 -10 12 -52 12 -119 l0 -103 -30 0 -30 0 0 90
c0 75 -3 92 -17 97 -32 12 -53 -32 -53 -113 l0 -74 -30 0 -30 0 0 120 0 120
29 0 c16 0 31 -5 33 -11 2 -6 14 -5 33 5 33 17 63 13 83 -12z m529 -4 c17 -16
23 -33 23 -65 l0 -43 -61 0 c-60 0 -60 0 -57 -27 3 -32 44 -46 54 -19 4 10 18
16 35 16 22 0 29 -5 29 -20 0 -42 -64 -79 -115 -66 -52 13 -65 39 -65 124 0
69 3 81 23 99 12 11 29 23 37 26 25 10 73 -2 97 -25z m540 8 c7 -6 13 -53 15
-116 l3 -105 -32 -3 -33 -3 0 91 c0 72 -3 92 -15 96 -33 13 -45 -15 -45 -102
l0 -84 -35 0 -35 0 0 120 0 120 35 0 c19 0 35 -4 35 -9 0 -6 12 -3 28 4 28 15
58 12 79 -9z m218 -7 c17 -16 21 -36 23 -120 l4 -100 -44 1 c-23 1 -54 -1 -68
-5 -35 -9 -80 27 -80 64 0 39 19 60 70 75 33 10 46 19 48 35 3 17 -2 21 -22
21 -16 0 -27 -7 -31 -20 -4 -12 -15 -20 -29 -20 -32 0 -36 7 -24 42 20 56 108
72 153 27z m394 20 c36 -13 61 -53 61 -99 l0 -30 -59 0 c-65 0 -73 -5 -64 -38
6 -26 53 -32 53 -7 0 11 11 15 36 15 32 0 35 -2 29 -22 -4 -13 -18 -34 -33
-47 -21 -19 -33 -22 -65 -18 -59 8 -80 35 -85 107 -5 75 11 118 52 136 38 16
36 16 75 3z m204 -3 c15 -8 27 -11 27 -5 0 5 14 9 31 9 l30 0 -3 -155 c-3
-145 -4 -156 -26 -177 -17 -18 -34 -23 -73 -23 -43 0 -54 4 -75 29 -14 15 -24
36 -22 45 5 25 45 26 60 2 26 -42 78 -16 78 39 0 17 -3 19 -19 10 -36 -19 -78
-12 -100 16 -17 21 -21 41 -21 93 0 92 16 118 80 130 3 0 17 -6 33 -13z m285
-22 c19 -22 22 -36 22 -120 l0 -95 -42 1 c-24 1 -54 -1 -68 -5 -35 -9 -80 27
-80 64 0 39 19 60 70 75 33 10 46 19 48 35 4 28 -31 29 -51 0 -22 -30 -63 -23
-59 11 10 70 109 91 160 34z m-3048 -94 l0 -120 -35 0 -35 0 0 113 c0 63 3
117 7 120 3 4 19 7 35 7 l28 0 0 -120z m2280 63 c19 -91 25 -93 45 -14 17 70
18 71 50 71 l33 0 -24 -82 c-79 -281 -76 -273 -112 -276 -29 -3 -33 -1 -29 15
30 103 30 93 -2 206 -17 58 -34 113 -37 122 -5 12 2 15 28 15 34 0 35 -1 48
-57z m-4622 -5883 c50 -36 62 -57 62 -111 0 -39 -5 -46 -67 -105 -38 -35 -72
-64 -78 -64 -22 0 -55 -66 -55 -111 0 -39 4 -47 38 -70 20 -14 60 -34 87 -44
28 -10 59 -26 70 -36 11 -9 55 -33 97 -52 62 -29 82 -43 103 -77 15 -23 35
-44 45 -47 20 -5 32 -34 21 -52 -4 -6 -31 -12 -59 -14 -39 -3 -64 -12 -97 -36
-53 -38 -80 -39 -146 -5 -28 14 -76 29 -107 35 -38 6 -64 17 -82 34 l-25 25
-3 287 c-2 157 1 290 6 295 5 5 25 2 46 -7 61 -26 70 -16 62 66 -11 124 7 144
82 89z m1515 -365 c49 -34 49 -61 -3 -107 -21 -20 -42 -49 -45 -64 -4 -16 -13
-47 -22 -69 -39 -101 -41 -109 -32 -139 14 -50 10 -99 -11 -133 -16 -27 -26
-33 -55 -33 -25 0 -44 8 -60 25 -36 35 -33 74 10 115 19 19 35 37 35 40 0 4
-18 25 -39 47 -47 48 -58 82 -44 136 7 25 8 51 2 71 -5 17 -9 43 -9 57 0 23 5
27 43 32 23 3 69 15 102 26 78 26 84 26 128 -4z m-717 -389 c16 -28 21 -49 17
-72 -5 -29 -2 -35 18 -42 15 -6 32 -5 44 1 11 6 28 14 38 19 9 5 37 11 62 15
l44 6 -9 -32 c-6 -17 -15 -46 -22 -63 -6 -18 -14 -73 -17 -123 -4 -49 -10 -95
-14 -102 -12 -19 79 -72 150 -87 63 -14 50 -78 -19 -96 -24 -6 -61 -23 -82
-37 -42 -27 -55 -29 -133 -18 -51 7 -53 7 -113 -39 -34 -25 -70 -46 -81 -46
-22 0 -117 59 -140 88 -9 11 -40 27 -68 37 -48 16 -56 16 -101 1 -74 -24 -104
-21 -134 15 -24 28 -26 38 -26 122 1 55 6 101 13 115 17 30 117 112 137 112 8
0 29 -9 45 -20 51 -33 95 -21 95 26 0 31 39 184 57 221 17 37 33 41 143 39
l74 -1 22 -39z m-910 -155 c22 -34 25 -48 21 -93 -10 -125 -64 -278 -97 -278
-15 0 -13 383 2 398 22 22 47 12 74 -27z m1959 -327 c41 -19 75 -42 75 -49 0
-8 -12 -22 -27 -32 -57 -39 -203 9 -203 66 0 62 47 66 155 15z m-95 -146 c20
-14 38 -38 47 -62 20 -60 5 -92 -71 -147 -34 -25 -48 -29 -105 -29 -73 0 -82
4 -96 40 -25 61 -2 90 73 90 25 0 35 5 42 25 5 14 7 31 4 39 -5 12 48 66 65
66 5 0 23 -10 41 -22z m-1804 -460 c1 -7 3 -17 5 -23 1 -5 -1 -18 -5 -27 -7
-15 -21 -18 -77 -18 l-69 0 0 68 c0 38 3 71 6 75 9 8 137 -60 140 -75z m780
47 c19 -26 18 -38 -8 -71 -32 -42 -37 -44 -108 -44 -80 0 -92 7 -88 51 2 25
11 39 38 56 19 12 39 26 44 31 17 14 108 -3 122 -23z"/>
<path d="M6613 9773 c-20 -4 -23 -11 -23 -51 l0 -47 85 0 85 0 0 46 c0 40 -3
48 -22 53 -25 6 -90 6 -125 -1z"/>
<path d="M4261 7675 c-17 -15 -45 -53 -62 -86 -18 -33 -34 -57 -37 -54 -3 3
-12 22 -19 43 -10 28 -10 44 -2 64 17 41 5 58 -15 21 -19 -37 -17 -36 -48 -24
-34 13 -68 -4 -68 -33 0 -14 5 -28 10 -31 6 -3 10 3 10 13 0 24 23 45 46 40
24 -4 22 -9 -42 -126 -31 -57 -53 -107 -49 -110 10 -10 48 41 91 124 22 41 44
72 49 71 17 -6 17 -87 1 -128 -17 -43 -20 -69 -8 -69 4 0 27 39 52 87 25 48
64 115 88 151 24 35 41 66 39 69 -3 2 -18 -8 -36 -22z"/>
<path d="M2930 7531 c0 -6 161 -10 405 -11 272 0 405 3 405 10 0 7 -134 10
-405 10 -245 0 -405 -4 -405 -9z"/>
<path d="M2904 7105 c-4 -9 -15 -20 -26 -26 -18 -10 -18 -9 -8 11 l11 21 -42
-22 c-38 -19 -41 -23 -26 -34 16 -12 16 -14 -5 -27 -13 -8 -32 -18 -43 -22
-28 -9 -89 -116 -66 -116 4 0 12 -15 19 -32 11 -31 65 -98 77 -98 3 0 1 9 -5
21 -12 22 -7 49 10 49 5 0 19 -9 30 -20 27 -27 38 -25 46 5 3 14 10 25 15 25
5 0 9 7 9 15 0 8 5 15 10 15 6 0 10 7 10 15 0 18 36 38 51 29 7 -4 9 -24 6
-50 -4 -42 -4 -42 21 -33 13 5 27 7 30 4 10 -10 49 60 47 85 -3 59 -18 100
-42 115 -14 9 -22 23 -19 30 3 8 0 12 -8 9 -19 -7 -91 20 -88 34 3 17 -8 15
-14 -3z"/>
<path d="M4015 6921 c-81 -35 -85 -38 -101 -77 -8 -18 -24 -38 -35 -45 -20
-10 -21 -9 -15 17 l7 29 -21 -32 c-14 -21 -19 -39 -14 -57 9 -38 24 -42 24 -7
0 30 1 30 20 14 11 -10 20 -23 20 -30 0 -6 15 -22 33 -34 48 -35 58 -50 53
-86 -6 -41 16 -45 41 -7 14 21 22 25 47 20 16 -4 38 -15 48 -26 10 -11 24 -20
31 -19 9 0 9 2 0 6 -25 9 -13 20 20 17 17 -2 24 -1 15 2 -16 5 -16 7 -2 30 20
29 38 32 31 4 -3 -11 -1 -20 5 -20 5 0 6 -9 3 -20 -8 -25 1 -25 43 0 l32 20 0
-22 c0 -12 -10 -32 -22 -45 -18 -19 -19 -23 -5 -23 20 0 47 40 56 82 8 39 24
46 39 16 11 -23 11 -23 11 -2 1 24 -83 124 -104 124 -25 0 -77 53 -96 97 -19
44 -74 104 -94 102 -5 -1 -37 -13 -70 -28z"/>
<path d="M3021 6741 c-6 -11 -11 -26 -11 -34 0 -30 -25 -39 -71 -23 -24 8 -45
13 -47 11 -2 -2 6 -6 18 -10 13 -4 19 -12 16 -21 -8 -21 11 -27 23 -7 5 10 12
15 16 11 10 -9 -2 -42 -26 -72 -17 -21 -29 -26 -68 -26 -28 0 -56 7 -71 17
-34 24 -69 65 -70 82 0 17 -34 -11 -53 -45 -7 -12 -22 -39 -34 -61 -12 -22
-29 -45 -37 -52 -10 -9 -16 -30 -16 -58 0 -49 -14 -51 -23 -3 -5 21 -11 28
-22 24 -12 -5 -15 -28 -15 -127 0 -66 5 -149 11 -184 11 -60 10 -66 -10 -87
-11 -12 -21 -27 -21 -34 0 -6 -6 -9 -14 -6 -23 9 -27 -25 -10 -84 24 -88 36
-116 58 -132 28 -20 146 -30 146 -12 0 6 5 12 11 12 5 0 8 -4 5 -9 -4 -5 3 -7
13 -4 16 4 22 -3 34 -43 7 -26 20 -50 28 -52 8 -2 10 0 4 5 -5 4 -12 15 -13
23 -10 41 -10 50 -3 50 5 0 16 21 26 46 17 46 17 46 54 37 20 -4 73 -8 119 -8
l82 0 0 -41 c0 -45 -9 -53 -58 -55 -23 0 -24 -2 -8 -8 22 -9 17 -12 -41 -31
-40 -12 -52 -27 -36 -43 3 -4 17 0 30 8 17 11 23 12 23 3 0 -7 7 -3 15 9 22
32 85 68 94 54 5 -8 13 -7 27 4 19 14 19 14 0 15 -19 0 -19 1 2 20 12 12 22
24 22 27 0 3 -8 -1 -18 -10 -27 -25 -32 -21 -32 23 0 30 4 40 16 40 9 0 44 29
79 64 54 55 63 61 74 47 9 -13 10 -13 2 4 -5 11 -9 43 -9 71 0 38 -6 61 -26
93 -15 23 -26 47 -24 53 4 10 68 -86 68 -101 0 -4 9 -16 20 -26 11 -10 20 -25
20 -34 0 -16 54 -71 70 -71 4 0 11 -7 14 -15 5 -14 9 -14 33 -1 16 8 38 25 51
39 20 21 21 25 7 37 -8 7 -15 22 -15 34 0 11 -11 31 -24 44 -13 12 -43 60 -66
107 -23 47 -46 88 -51 91 -5 3 -9 13 -9 23 0 10 -9 26 -20 36 -14 12 -20 31
-20 58 0 44 -42 192 -71 249 -21 42 -54 62 -116 73 -35 5 -43 4 -52 -14z"/>
<path d="M4350 6377 c0 -3 5 -18 11 -34 6 -15 19 -55 29 -88 10 -33 21 -69 26
-79 6 -15 4 -17 -7 -11 -11 6 -11 5 -2 -5 6 -7 9 -19 6 -28 -4 -9 -2 -13 4 -9
6 4 21 -5 32 -19 23 -29 20 -41 -25 -100 -20 -27 -21 -34 -10 -50 7 -10 16
-36 19 -58 5 -32 1 -46 -25 -85 -37 -55 -78 -101 -91 -101 -15 0 -111 71 -130
96 -14 18 -15 28 -7 43 20 38 12 48 -52 66 -72 19 -92 35 -119 87 -13 25 -36
45 -76 67 -31 17 -60 31 -63 31 -19 0 -31 -86 -24 -177 5 -71 4 -94 -5 -89 -6
4 -11 3 -11 -3 0 -5 4 -11 10 -13 9 -3 1 -52 -16 -92 -5 -14 -4 -17 5 -11 10
5 11 2 7 -13 -4 -12 0 -26 10 -36 21 -22 91 -57 118 -60 11 -1 38 -10 59 -20
20 -10 50 -19 65 -21 16 -1 34 -5 41 -9 11 -7 83 13 123 35 10 5 28 9 41 9 13
0 31 6 41 13 14 10 15 17 7 40 -6 16 -11 34 -10 40 0 7 5 0 10 -14 8 -23 18
-27 82 -38 40 -7 81 -14 92 -16 19 -4 24 7 49 109 16 62 39 137 51 167 20 46
21 56 10 69 -37 42 -80 147 -85 210 -4 46 -9 64 -18 62 -7 -1 -31 2 -52 8 -31
8 -42 18 -59 54 -19 38 -61 89 -61 73z"/>
<path d="M3903 5423 c-20 -7 -16 -111 5 -153 12 -25 25 -36 44 -38 41 -5 62
43 54 122 -7 67 -10 73 -28 58 -9 -7 -19 -6 -32 4 -21 15 -24 15 -43 7z"/>
<path d="M3012 5386 c3 -16 0 -27 -10 -31 -12 -4 -13 -8 -4 -17 7 -7 12 -36
12 -64 0 -29 4 -55 9 -58 4 -3 6 5 4 18 -7 36 27 29 43 -9 30 -73 87 -115 135
-100 15 5 19 16 19 48 0 32 -11 58 -45 110 -39 61 -45 66 -54 49 -13 -24 -55
-36 -79 -23 -13 7 -17 20 -15 55 1 27 -3 46 -9 46 -6 0 -8 -11 -6 -24z"/>
<path d="M2960 4972 c0 -6 10 -12 21 -15 15 -4 20 -11 16 -24 -3 -10 -10 -32
-15 -50 -8 -23 -6 -38 4 -58 19 -37 18 -41 -6 -20 -11 10 -21 32 -21 49 -2 31
-2 31 -6 3 -3 -19 5 -43 27 -78 26 -39 38 -49 59 -49 51 0 67 73 46 203 -7 45
-17 58 -30 37 -8 -13 -51 -13 -76 0 -11 6 -19 7 -19 2z"/>
<path d="M1336 4934 c-32 -23 -59 -34 -83 -34 -51 0 -85 -39 -108 -124 -16
-61 -17 -75 -5 -115 7 -25 15 -64 17 -86 10 -104 11 -107 46 -99 18 3 35 11
38 15 12 20 113 48 169 47 46 -1 65 4 87 21 15 12 49 38 76 58 58 43 64 53 72
129 8 66 5 70 -80 129 -16 11 -46 37 -67 58 -51 49 -93 50 -162 1z"/>
<path d="M4065 4883 c-3 -16 -13 -39 -22 -52 l-16 -24 -17 23 c-14 18 -20 21
-31 12 -8 -7 -25 -21 -39 -32 l-25 -19 32 11 c50 18 61 0 30 -48 -32 -51 -52
-68 -77 -61 -17 4 -19 2 -13 -21 6 -24 5 -26 -10 -13 -11 8 -17 9 -17 3 0 -6
10 -16 21 -23 49 -26 149 28 149 80 0 16 7 34 16 42 26 21 44 66 44 109 0 46
-15 53 -25 13z"/>
</g>
</svg>
