<?xml version="1.0" standalone="no"?>
<!DOCTYPE svg PUBLIC "-//W3C//DTD SVG 20010904//EN"
 "http://www.w3.org/TR/2001/REC-SVG-20010904/DTD/svg10.dtd">
<svg version="1.0" xmlns="http://www.w3.org/2000/svg"
 width="720.000000pt" height="1280.000000pt" viewBox="0 0 720.000000 1280.000000"
 preserveAspectRatio="xMidYMid meet">
<metadata>
Created by potrace 1.16, written by Peter Selinger 2001-2019
</metadata>
<g transform="translate(0.000000,1280.000000) scale(0.100000,-0.100000)"
fill="#000000" stroke="none">
<path d="M0 6400 l0 -6400 3600 0 3600 0 0 1025 0 1025 -2191 0 c-1544 0
-2203 3 -2233 11 -42 10 -43 12 -36 42 5 18 14 47 21 65 13 32 13 34 -19 58
-18 15 -32 35 -32 47 0 18 -8 13 -48 -29 -27 -28 -56 -61 -65 -74 -23 -33 -39
-16 -31 33 4 23 7 56 6 72 -2 52 7 74 38 90 17 9 30 23 30 33 0 10 -18 53 -40
96 -25 49 -38 86 -34 98 4 13 -4 27 -24 46 -39 36 -51 88 -25 107 10 8 28 15
39 15 26 0 30 13 33 102 2 61 0 68 -23 83 -14 9 -33 18 -43 19 -25 4 -29 52
-7 77 23 26 56 24 85 -5 16 -16 41 -26 77 -31 57 -8 61 -14 40 -71 -10 -27 -8
-34 9 -53 19 -20 21 -20 65 -5 26 8 49 22 52 30 3 8 -6 45 -19 83 -14 38 -25
73 -25 78 0 33 123 58 152 30 27 -26 64 -44 93 -46 17 -1 43 -3 59 -4 43 -3
42 17 -4 47 -47 31 -50 42 -12 59 15 6 29 14 32 17 3 3 23 15 45 27 59 32 53
54 -19 71 -48 12 -65 13 -94 2 -37 -13 -52 -4 -52 33 0 13 -9 17 -44 17 -35 0
-47 5 -60 25 -33 50 -18 78 49 90 67 12 91 30 115 89 34 84 6 102 -62 40 -34
-31 -45 -35 -72 -29 -17 3 -74 6 -126 5 -83 -1 -97 -4 -112 -22 -19 -22 -25
-78 -8 -78 6 0 10 -5 10 -11 0 -5 -4 -8 -10 -4 -14 9 -40 -50 -40 -93 0 -50
-14 -62 -71 -62 -35 0 -52 -6 -73 -25 -14 -13 -26 -30 -26 -38 0 -24 -20 -34
-58 -28 -31 5 -39 12 -48 41 -8 25 -22 40 -49 53 -20 10 -44 17 -53 15 -10 -2
-25 -29 -39 -68 -13 -36 -32 -74 -43 -85 -20 -19 -20 -19 -53 13 -53 52 -59
47 -72 -68 -7 -59 -18 -80 -44 -80 -9 0 -34 -9 -56 -20 -46 -24 -66 -25 -120
-6 -49 17 -58 46 -20 66 53 28 112 140 74 140 -5 0 -24 29 -40 65 -20 45 -37
69 -54 75 -37 14 -30 33 23 62 41 22 47 30 50 61 2 26 -2 38 -15 46 -15 7 -18
20 -16 62 1 30 8 58 16 67 21 20 82 8 101 -20 12 -17 22 -20 57 -15 35 5 50
14 77 46 18 23 39 41 45 41 7 0 25 -14 41 -30 16 -17 33 -30 36 -30 11 0 36
32 30 39 -2 3 24 11 57 17 101 18 139 55 91 88 -33 24 -51 20 -123 -24 -36
-22 -77 -40 -91 -40 -25 0 -25 1 -22 63 l3 62 -35 -3 c-27 -2 -43 4 -67 25
-56 50 -77 63 -100 63 -28 0 -29 -5 -3 -32 11 -12 20 -29 20 -39 0 -32 -61
-40 -92 -12 -17 15 -21 15 -53 0 -46 -22 -59 -15 -76 40 -12 39 -22 51 -58 70
-39 20 -47 21 -65 10 -12 -8 -52 -14 -93 -15 -70 -1 -73 0 -73 22 0 13 6 29
14 35 14 12 46 5 46 -10 0 -5 11 -9 24 -9 19 0 24 6 29 36 6 37 -5 73 -40 127
-23 36 -12 53 58 91 30 16 55 33 57 38 5 11 83 10 101 -1 7 -5 14 -20 13 -34
0 -14 11 -37 23 -51 13 -15 28 -40 35 -56 10 -25 18 -30 46 -30 19 0 34 4 34
9 0 18 121 71 162 71 48 0 149 58 166 96 16 35 58 32 98 -7 l32 -31 20 23 c12
12 26 35 31 51 l10 29 -44 -7 c-88 -13 -128 20 -63 51 65 32 73 38 100 82 16
24 28 48 28 54 0 26 -70 -3 -110 -46 -22 -24 -70 -55 -85 -55 -3 0 -5 8 -5 19
0 10 -7 24 -15 31 -8 7 -15 20 -15 29 0 32 -29 58 -71 65 -35 6 -47 3 -74 -19
-39 -29 -65 -32 -66 -7 -2 44 -7 64 -18 75 -10 9 -17 7 -32 -12 -10 -13 -19
-29 -19 -37 0 -7 -5 -25 -12 -39 -15 -32 -56 -34 -80 -2 -19 27 -43 168 -34
202 3 13 1 27 -4 30 -18 11 -40 -16 -40 -49 0 -43 -31 -74 -80 -82 -22 -4 -45
-13 -51 -20 -13 -16 -6 -93 9 -103 5 -3 17 -21 26 -38 16 -32 16 -33 -10 -39
-14 -4 -36 -2 -50 5 -19 8 -24 18 -24 46 0 62 -50 38 -85 -41 -26 -58 -44 -68
-60 -32 -13 30 -37 33 -101 13 -50 -15 -54 -19 -54 -47 0 -23 -4 -29 -16 -24
-61 23 -121 13 -182 -32 -45 -33 -62 -24 -62 33 0 53 -25 139 -46 156 -18 15
-62 -14 -82 -53 -9 -20 -25 -29 -65 -38 -83 -20 -115 -36 -132 -69 -10 -21
-23 -31 -38 -31 -45 0 -59 -21 -60 -91 -1 -47 3 -71 17 -92 21 -31 44 -122 38
-149 -2 -9 -16 -21 -31 -26 -38 -13 -61 -39 -61 -68 0 -14 -9 -42 -20 -64 -25
-50 -25 -82 0 -105 18 -16 25 -17 54 -7 18 7 44 12 59 12 26 0 27 -2 27 -57
l0 -57 35 36 c40 41 76 51 105 31 25 -18 25 -28 1 -61 -12 -18 -20 -50 -23
-94 -2 -38 -9 -73 -15 -79 -14 -14 -44 -14 -108 0 -75 17 -76 18 -40 104 6 15
4 17 -18 12 -27 -7 -29 -4 -42 61 l-6 31 -57 -9 c-108 -15 -140 10 -126 98 5
39 3 45 -25 71 -25 22 -33 39 -38 80 -7 61 -23 78 -68 75 -19 -2 -39 3 -48 12
-9 9 -23 16 -31 16 -9 0 -16 7 -16 15 0 8 -6 15 -14 15 -8 0 -23 11 -34 25
-14 17 -30 25 -51 25 -24 0 -32 5 -37 24 -11 47 2 63 49 59 49 -4 99 8 105 25
4 14 -37 33 -93 41 -28 4 -41 12 -43 24 -5 24 25 57 52 57 11 0 34 15 51 33
16 18 42 41 57 50 24 15 28 24 28 65 l0 47 58 3 c31 2 70 11 87 21 32 18 45
49 25 61 -7 4 -17 36 -24 71 l-11 64 -65 3 c-36 2 -69 7 -74 12 -5 5 3 29 18
56 29 53 30 55 16 106 -7 24 -21 43 -40 55 -28 16 -30 21 -30 83 0 68 17 110
45 110 9 0 19 18 26 45 6 25 17 45 24 45 14 0 55 34 55 46 0 7 14 38 53 124 7
14 22 34 35 46 15 14 22 33 22 57 0 20 4 38 9 41 13 8 91 164 91 181 0 8 3 15
8 15 9 0 32 72 32 100 0 11 5 20 10 20 6 0 10 18 10 40 0 22 5 40 10 40 6 0
10 17 10 38 0 26 6 41 20 50 21 13 29 72 10 72 -5 0 -12 16 -16 35 l-6 36 -81
-3 -80 -3 -18 -35 c-26 -50 -60 -91 -70 -85 -4 3 -13 -3 -18 -14 -6 -11 -21
-23 -33 -27 -13 -4 -39 -20 -58 -35 -19 -16 -40 -29 -46 -29 -6 0 -16 -11 -22
-25 -6 -14 -16 -25 -22 -25 -5 0 -10 -8 -10 -19 0 -26 -59 -88 -92 -96 -15 -4
-36 -4 -47 0 l-21 6 0 1745 0 1744 148 0 c157 0 192 -5 192 -25 0 -8 -25 -63
-55 -124 -30 -61 -55 -121 -55 -133 0 -13 -10 -43 -22 -68 -17 -36 -22 -66
-24 -150 -1 -58 -5 -137 -9 -177 -4 -45 -3 -84 4 -103 7 -21 7 -39 0 -57 -5
-15 -7 -39 -4 -55 6 -24 9 -27 22 -17 11 10 16 10 22 1 9 -14 127 -32 166 -24
16 3 36 11 43 19 7 7 22 13 32 13 10 0 31 7 46 15 16 8 36 15 46 15 9 0 18 3
20 8 5 12 86 72 97 72 6 0 11 4 11 8 0 15 48 59 114 105 10 8 18 25 18 40 1
15 4 27 9 27 4 0 11 9 14 20 3 11 12 26 19 32 7 7 28 45 46 83 19 39 39 75 45
80 6 6 26 48 45 95 18 47 39 92 47 101 7 8 13 21 13 27 0 7 5 12 10 12 6 0 10
11 10 24 0 14 13 38 31 56 19 19 29 37 26 49 -4 17 27 18 692 24 383 4 1746 7
3029 7 l2332 0 0 1775 0 1775 -3600 0 -3600 0 0 -6400z m6782 3684 c50 -17
112 -73 138 -125 44 -85 32 -202 -29 -284 -25 -34 -27 -41 -14 -50 14 -10 14
-14 -2 -38 -22 -35 -88 -46 -136 -23 -29 13 -43 14 -94 4 -106 -20 -142 -17
-169 17 -22 27 -22 31 -7 41 15 11 14 14 -6 36 -63 67 -82 200 -42 288 60 133
208 188 361 134z m-639 0 c52 -18 116 -76 142 -130 22 -47 30 -130 16 -180
-32 -119 -134 -194 -265 -194 -165 0 -272 106 -270 266 2 153 105 252 265 253
36 1 86 -6 112 -15z m-5839 -91 c10 -34 76 -315 76 -324 0 -5 -16 -9 -35 -9
-30 0 -35 3 -35 24 0 31 -13 39 -59 39 -31 0 -36 -3 -43 -31 -8 -28 -13 -32
-42 -32 l-34 0 14 58 c7 31 25 110 40 175 l28 117 42 0 c32 0 44 -4 48 -17z
m406 -75 l1 -93 30 38 c23 27 39 37 60 37 16 0 29 -3 29 -6 0 -4 -16 -27 -35
-53 l-34 -47 21 -35 c11 -19 29 -49 40 -66 l20 -33 -36 0 c-30 0 -38 5 -57 40
-26 45 -39 43 -39 -6 0 -31 -2 -34 -30 -34 l-30 0 0 175 0 175 30 0 30 0 0
-92z m1740 -83 l0 -176 -42 1 c-24 1 -55 -1 -69 -5 -19 -5 -33 -1 -55 18 -27
24 -29 29 -29 106 0 69 3 84 21 102 23 22 55 28 92 15 21 -7 22 -5 22 53 l0
61 30 0 30 0 0 -175z m452 83 l3 -92 25 37 c20 30 31 37 58 37 30 0 42 -12 24
-24 -5 -3 -21 -23 -36 -44 l-27 -40 41 -66 41 -67 -38 3 c-32 3 -41 9 -58 40
-26 49 -35 48 -35 -2 0 -39 -1 -40 -35 -40 l-35 0 0 175 0 175 35 0 34 0 3
-92z m728 28 l0 -65 35 15 c28 11 40 12 58 3 34 -18 37 -27 37 -136 l0 -103
-30 0 -30 0 0 90 c0 75 -3 92 -16 97 -37 14 -49 -10 -52 -101 l-3 -86 -29 0
-30 0 0 175 0 175 30 0 30 0 0 -64z m530 3 c0 -58 1 -60 23 -53 76 26 107 -8
107 -118 0 -71 -2 -81 -26 -105 -20 -20 -31 -24 -52 -18 -15 4 -46 6 -69 5
l-43 -1 0 176 0 175 30 0 30 0 0 -61z m-1480 -9 c0 -38 2 -40 30 -40 25 0 30
-4 30 -25 0 -21 -5 -25 -30 -25 l-31 0 3 -67 c3 -66 4 -68 31 -71 21 -3 27 -8
23 -19 -3 -8 -6 -19 -6 -24 0 -16 -73 -10 -92 8 -14 13 -18 31 -18 90 0 66 -2
75 -20 80 -13 3 -20 14 -20 29 0 17 6 24 20 24 17 0 20 7 20 40 0 38 2 40 30
40 28 0 30 -2 30 -40z m-2096 -61 c24 -23 34 -121 17 -172 -15 -44 -59 -66
-97 -48 -14 6 -27 11 -29 11 -3 0 -5 -29 -5 -65 l0 -65 -30 0 -30 0 0 181 0
182 38 -5 c20 -3 46 -2 57 3 26 10 55 2 79 -22z m405 20 c17 -6 36 -19 41 -29
6 -10 10 -62 10 -115 l0 -97 -32 3 c-18 1 -48 -1 -66 -5 -50 -12 -82 13 -82
64 0 44 20 64 83 81 28 7 37 15 35 27 -5 25 -45 27 -58 3 -13 -25 -48 -28 -57
-5 -8 21 28 67 58 75 35 10 33 10 68 -2z m287 1 c39 -15 53 -39 54 -87 l0 -43
-61 0 c-60 0 -60 0 -57 -27 3 -32 44 -46 54 -19 9 23 64 21 64 -2 0 -51 -67
-84 -124 -62 -45 17 -55 38 -56 116 0 78 20 119 63 127 12 2 25 5 29 6 4 0 19
-4 34 -9z m201 -1 c32 -12 43 -26 43 -56 0 -31 -45 -33 -53 -2 -7 24 -40 23
-45 -2 -2 -10 9 -21 30 -29 75 -30 98 -83 59 -131 -40 -50 -151 -22 -151 38 0
19 5 23 30 23 24 0 30 -4 30 -21 0 -15 5 -20 22 -17 42 6 33 36 -16 58 -76 32
-89 107 -23 135 39 17 39 17 74 4z m202 -4 c26 -13 46 -56 33 -70 -14 -14 -50
-3 -55 16 -4 13 -12 20 -24 17 -29 -5 -21 -32 15 -50 73 -36 92 -81 53 -129
-15 -19 -29 -24 -66 -24 -37 0 -51 5 -66 24 -29 36 -25 61 10 61 21 0 30 -6
34 -21 7 -25 40 -22 45 3 2 12 -11 24 -43 39 -74 35 -85 107 -21 135 40 17 51
17 85 -1z m200 4 c17 -6 36 -19 41 -29 6 -10 10 -62 10 -115 l0 -97 -32 3
c-18 1 -48 -1 -66 -5 -50 -12 -82 13 -82 64 0 44 20 64 83 81 28 7 37 15 35
27 -5 25 -45 27 -58 3 -11 -22 -44 -28 -55 -11 -12 20 8 59 38 74 38 19 45 19
86 5z m318 -21 c17 -16 23 -33 23 -65 l0 -43 -61 0 c-60 0 -60 0 -57 -27 3
-32 44 -46 54 -19 9 23 64 21 64 -2 0 -49 -66 -84 -121 -64 -50 20 -59 37 -59
121 0 68 3 80 23 98 12 11 29 23 37 26 25 10 73 -2 97 -25z m1001 -4 c18 -21
22 -36 22 -98 0 -77 -15 -107 -61 -121 -31 -10 -84 3 -105 26 -23 26 -31 127
-13 170 24 60 111 73 157 23z m240 8 c8 -10 12 -52 12 -119 l0 -103 -30 0 -30
0 0 90 c0 75 -3 92 -17 97 -32 12 -53 -32 -53 -113 l0 -74 -30 0 -30 0 0 120
0 120 29 0 c16 0 31 -5 33 -11 2 -6 14 -5 33 5 33 17 63 13 83 -12z m530 -8
c15 -17 22 -38 22 -65 l0 -39 -61 0 c-60 0 -60 0 -57 -27 3 -32 44 -46 54 -19
4 10 18 16 35 16 22 0 29 -5 29 -20 0 -42 -64 -79 -115 -66 -52 13 -65 39 -65
124 0 69 3 81 23 99 12 11 29 23 37 26 28 11 75 -3 98 -29z m539 12 c7 -6 13
-53 15 -116 l3 -105 -32 -3 -33 -3 0 91 c0 72 -3 92 -15 96 -33 13 -45 -15
-45 -102 l0 -84 -35 0 -35 0 0 120 0 120 35 0 c19 0 35 -4 35 -9 0 -6 12 -3
28 4 28 15 58 12 79 -9z m221 -12 c19 -22 22 -36 22 -120 l0 -95 -42 1 c-24 1
-54 -1 -68 -5 -34 -9 -80 27 -80 61 0 41 18 63 63 75 52 15 67 26 60 45 -8 21
-41 17 -55 -6 -12 -19 -48 -27 -60 -14 -15 14 11 60 43 77 43 22 86 16 117
-19z m391 25 c36 -13 61 -53 61 -99 l0 -30 -59 0 c-65 0 -73 -5 -64 -38 6 -26
53 -32 53 -7 0 11 11 15 36 15 32 0 35 -2 29 -22 -13 -43 -42 -63 -90 -63 -64
0 -87 27 -93 105 -5 75 11 118 52 136 38 16 36 16 75 3z m204 -3 c15 -8 27
-11 27 -5 0 5 14 9 30 9 l30 0 0 -149 c0 -134 -2 -151 -20 -174 -41 -52 -147
-44 -170 13 -7 16 -9 34 -5 39 9 15 46 7 60 -12 27 -37 75 -10 75 43 0 17 -3
19 -19 10 -36 -19 -78 -12 -100 16 -16 21 -21 41 -21 88 0 85 8 106 44 122 39
17 36 17 69 0z m285 -22 c19 -22 22 -36 22 -120 l0 -95 -42 1 c-24 1 -54 -1
-68 -5 -35 -9 -80 27 -80 64 0 39 19 60 70 75 33 10 46 19 48 35 4 28 -31 29
-51 0 -22 -30 -63 -23 -59 11 10 70 109 91 160 34z m-3048 -94 l0 -120 -35 0
-35 0 0 113 c0 63 3 117 7 120 3 4 19 7 35 7 l28 0 0 -120z m2280 63 c19 -91
25 -93 45 -14 17 70 18 71 50 71 l33 0 -52 -177 -51 -178 -34 -3 c-28 -3 -33
-1 -27 14 29 76 29 101 -4 209 -17 59 -34 113 -37 121 -4 10 4 14 29 14 34 0
35 -1 48 -57z m-3566 -5543 c28 0 77 -32 74 -48 -3 -15 -20 -22 -90 -37 -24
-5 -28 -10 -28 -39 0 -48 19 -61 67 -44 21 7 52 21 68 30 48 28 55 24 48 -27
-6 -45 -5 -45 24 -45 43 0 65 -20 61 -55 -2 -25 -8 -30 -33 -33 -16 -1 -47
-10 -68 -19 -38 -16 -38 -16 -61 10 -21 25 -66 38 -66 19 0 -4 -21 -12 -47
-18 -45 -11 -50 -10 -80 15 -37 31 -41 51 -13 76 11 10 20 25 20 34 0 9 9 31
20 48 11 18 17 39 14 47 -3 8 4 24 15 35 12 12 21 23 21 26 0 10 35 41 38 33
2 -4 9 -8 16 -8z m303 -538 c32 -21 66 -41 76 -45 27 -10 20 -41 -13 -55 -26
-12 -32 -11 -46 2 -31 32 -54 38 -120 31 l-65 -7 6 26 c3 14 7 37 10 50 5 24
17 29 77 35 9 0 43 -16 75 -37z m-84 -157 c49 -13 57 -19 51 -33 -4 -9 -9 -34
-10 -56 -1 -39 -15 -56 -47 -56 -26 0 -55 -38 -63 -80 -4 -19 -13 -42 -20 -50
-7 -9 -20 -32 -28 -52 -15 -34 -14 -38 9 -72 l25 -37 -19 -37 c-11 -20 -24
-49 -30 -64 -7 -19 -22 -30 -51 -39 -37 -11 -42 -10 -64 10 -30 28 -50 75 -42
96 3 8 30 26 59 39 30 13 57 28 61 34 12 19 -5 39 -47 57 -65 27 -72 31 -75
50 -2 9 7 38 21 64 32 60 42 107 25 117 -7 5 -33 11 -58 14 -45 5 -45 5 -48
48 -3 45 15 65 41 44 38 -32 143 -22 195 19 17 13 29 15 40 9 9 -5 43 -16 75
-25z m-1387 -211 c50 -34 54 -40 54 -89 0 -22 4 -35 8 -28 5 8 19 9 44 4 29
-7 39 -5 52 10 20 23 35 24 43 3 4 -11 -4 -26 -24 -43 -17 -14 -37 -42 -44
-63 -11 -31 -15 -35 -30 -25 -10 6 -25 28 -33 48 -8 20 -22 36 -30 36 -9 0
-16 -3 -16 -7 0 -4 -20 -17 -45 -29 -25 -12 -45 -27 -45 -32 0 -6 -4 -7 -10
-4 -6 4 -10 57 -10 126 0 118 0 119 24 119 13 0 41 -12 62 -26z m616 -152 c10
-8 20 -30 24 -49 5 -28 2 -37 -20 -56 -30 -26 -32 -34 -9 -59 32 -36 83 -19
172 57 69 59 97 59 94 -2 -2 -55 -18 -82 -55 -95 l-31 -11 7 -74 c6 -71 4 -77
-22 -114 -15 -21 -31 -39 -36 -39 -5 0 -29 -9 -52 -20 l-42 -21 15 -29 c8 -17
16 -30 18 -30 2 0 17 14 33 30 35 35 71 39 97 10 18 -20 55 -34 117 -45 68
-11 84 -58 31 -92 -20 -13 -28 -14 -47 -4 -12 7 -40 11 -61 9 -33 -3 -40 -8
-48 -33 -10 -29 -42 -65 -58 -65 -5 0 -21 19 -35 43 -15 23 -30 44 -35 47 -13
9 -21 58 -10 64 23 14 10 25 -16 15 -17 -6 -57 -8 -100 -3 -63 5 -73 4 -73
-10 0 -9 1 -16 3 -17 1 0 35 -3 76 -5 81 -5 101 -15 101 -49 0 -28 -20 -37
-68 -30 -48 7 -72 -7 -55 -33 10 -17 8 -23 -15 -41 -33 -26 -68 -27 -82 -1 -6
11 -26 26 -44 34 -32 13 -96 81 -96 101 0 6 -20 9 -50 7 l-50 -4 0 36 c0 20 4
44 9 54 6 9 18 48 27 86 10 37 33 93 52 125 31 51 40 82 57 194 3 21 13 41 21
44 20 7 18 60 -3 72 -22 13 -24 12 112 20 117 7 120 6 147 -17z m-393 -273 c6
-18 11 -41 11 -51 0 -25 -98 -310 -111 -323 -6 -6 -22 -3 -44 9 -34 19 -36 19
-49 1 -12 -17 -13 -17 -21 1 -5 10 -11 75 -14 144 -6 122 -5 125 18 148 13 12
30 22 38 22 16 0 66 33 95 62 29 29 64 23 77 -13z m1436 -289 c51 -31 75 -40
111 -40 46 0 84 -13 84 -29 0 -11 -55 -31 -86 -31 -13 0 -24 -4 -24 -9 0 -22
-46 -18 -98 10 -30 16 -65 29 -78 29 -38 0 -54 11 -54 38 0 30 36 72 62 72 10
0 47 -18 83 -40z m-56 -174 c6 -7 13 -31 15 -53 2 -22 9 -50 15 -61 18 -33 14
-39 -35 -53 -30 -9 -50 -22 -57 -36 -8 -18 -19 -22 -76 -25 -36 -2 -74 0 -83
4 -18 9 -32 53 -41 124 -8 65 6 74 40 26 31 -47 58 -58 100 -45 43 15 42 52
-2 82 -56 38 -47 51 39 51 50 0 77 -4 85 -14z m308 -63 c15 -31 24 -39 51 -41
47 -5 65 -38 69 -128 1 -40 -2 -76 -6 -79 -18 -10 -40 7 -46 36 -4 16 -11 29
-16 29 -9 0 -7 -14 7 -55 6 -16 -13 -38 -25 -31 -15 10 -14 69 2 85 10 10 6
18 -19 40 -17 16 -36 30 -42 32 -16 6 -36 91 -28 122 9 38 31 34 53 -10z
m-1425 -315 c21 -17 27 -39 16 -60 -7 -15 -23 -18 -107 -18 -93 0 -100 1 -114
24 -14 21 -14 26 -1 36 13 12 92 26 160 29 16 0 37 -5 46 -11z"/>
<path d="M6613 9773 c-20 -4 -23 -11 -23 -51 l0 -47 85 0 85 0 0 46 c0 40 -3
48 -22 53 -25 6 -90 6 -125 -1z"/>
<path d="M2054 7923 c18 -5 18 -13 12 -141 -6 -104 -11 -141 -23 -154 -15 -17
-13 -18 32 -18 36 0 46 3 38 11 -13 13 -7 237 7 282 9 27 9 27 -38 26 -26 -1
-38 -3 -28 -6z"/>
<path d="M1246 7907 c-11 -7 -31 -25 -45 -40 -14 -16 -47 -50 -73 -75 -27 -25
-48 -50 -48 -54 0 -5 -18 -26 -40 -48 -42 -41 -80 -101 -85 -135 -2 -11 -11
-40 -20 -64 -17 -47 -31 -291 -16 -291 5 0 14 -27 21 -59 7 -33 18 -62 25 -65
39 -14 159 -17 222 -5 58 12 74 20 110 55 24 24 47 60 54 83 7 23 15 41 19 41
3 0 16 19 28 43 12 23 35 53 52 65 21 16 30 31 30 51 0 15 6 41 14 57 7 16 17
67 20 114 5 67 10 88 26 101 16 14 18 22 10 50 -6 19 -10 51 -10 71 0 27 -4
38 -15 38 -8 0 -15 9 -15 20 0 15 -7 20 -29 20 -20 0 -30 6 -34 20 -5 18 -13
20 -94 19 -50 0 -96 -5 -107 -12z"/>
<path d="M4230 7786 c-25 -41 -22 -40 -66 -24 -39 14 -64 -1 -64 -37 0 -35 13
-38 26 -5 13 31 28 37 53 21 14 -9 -11 -59 -91 -184 -17 -26 -28 -51 -24 -54
11 -11 48 31 99 115 27 45 54 82 58 82 21 0 21 -74 0 -124 -41 -100 -22 -116
28 -23 42 76 125 198 151 222 21 19 26 35 11 35 -21 0 -75 -57 -114 -119 l-42
-66 -5 36 c-4 19 -10 40 -14 47 -4 7 0 33 10 57 21 57 13 67 -16 21z"/>
<path d="M2823 7236 c-46 -22 -55 -36 -23 -36 11 0 20 -4 20 -10 0 -5 -8 -10
-18 -10 -9 0 -23 -10 -31 -21 -8 -14 -16 -18 -20 -11 -8 13 -31 -3 -55 -40
-10 -16 -26 -28 -35 -28 -13 0 -14 -2 -2 -9 12 -8 12 -12 2 -25 -8 -9 -9 -16
-3 -16 5 0 12 -12 15 -28 6 -28 75 -127 84 -119 2 3 -1 14 -9 26 -11 17 -10
23 4 37 15 16 18 15 41 -10 30 -32 43 -33 52 -4 4 11 18 31 30 42 12 12 24 30
26 41 3 13 14 21 33 23 28 4 28 3 25 -47 -3 -41 -1 -51 12 -51 8 0 20 5 27 12
9 9 12 9 12 -1 0 -8 10 -1 22 15 12 16 26 32 31 35 5 4 6 16 2 28 -3 12 -2 21
4 21 6 0 5 15 -4 40 -8 22 -11 40 -7 40 4 0 -9 14 -28 30 -29 25 -33 31 -20
40 12 8 12 10 -5 8 -11 -1 -40 3 -63 10 -34 10 -42 17 -37 30 3 8 -5 4 -19
-11 -32 -35 -54 -36 -32 -2 9 14 15 24 14 23 -2 0 -22 -10 -45 -22z"/>
<path d="M4070 6992 c-76 -27 -105 -49 -116 -89 -3 -12 -15 -25 -25 -28 -23
-7 -25 -43 -4 -51 8 -4 15 -14 15 -23 0 -9 21 -34 46 -55 44 -37 46 -41 40
-78 -4 -22 -4 -43 -1 -48 9 -14 76 66 70 82 -8 21 32 55 47 40 9 -9 7 -12 -8
-13 -11 0 -14 -3 -6 -6 10 -4 10 -9 -3 -23 -15 -17 -15 -19 3 -24 11 -4 27
-18 36 -31 19 -28 39 -34 29 -8 -5 12 -2 15 10 10 11 -4 22 4 37 29 26 40 34
43 28 9 -4 -17 -1 -25 8 -25 17 0 18 -12 2 -28 -21 -21 20 -14 52 8 15 11 30
17 33 14 11 -11 -16 -66 -37 -74 -20 -8 -20 -8 -2 -16 25 -10 53 24 67 82 13
51 22 54 44 17 l16 -28 -6 30 c-10 45 -65 112 -107 129 -42 17 -80 64 -98 119
-11 36 -72 108 -88 106 -4 -1 -41 -13 -82 -27z"/>
<path d="M2990 6825 c-21 -48 -36 -55 -80 -32 -41 21 -60 27 -60 18 0 -5 11
-12 24 -15 18 -4 23 -12 21 -30 -2 -14 -6 -31 -10 -38 -3 -7 1 -4 9 6 9 11 16
23 16 28 0 4 7 8 16 8 19 0 11 -33 -20 -73 -20 -26 -24 -27 -81 -22 -51 4 -64
10 -96 41 -21 20 -40 48 -44 62 l-6 25 -25 -23 c-13 -13 -24 -29 -24 -35 0 -6
-11 -22 -25 -35 -14 -13 -25 -29 -25 -37 0 -7 -14 -28 -31 -45 -25 -27 -30
-39 -27 -70 5 -49 -14 -44 -25 6 l-9 37 -20 -23 c-19 -22 -20 -33 -15 -216 5
-182 4 -193 -14 -202 -10 -6 -19 -17 -19 -25 0 -7 -5 -17 -12 -21 -7 -4 -8 -3
-4 4 4 7 3 12 -3 12 -27 0 -30 -39 -10 -123 28 -115 56 -143 151 -150 54 -4
65 -2 61 9 -3 8 0 14 6 14 6 0 11 -4 11 -10 0 -5 6 -7 14 -4 11 4 18 -7 27
-38 14 -49 35 -79 25 -35 -5 20 1 45 20 85 14 31 28 58 29 60 2 2 27 -4 56
-12 29 -9 86 -16 127 -16 72 0 74 -1 68 -22 -3 -13 -6 -33 -6 -45 0 -23 -29
-38 -65 -35 -14 1 -15 0 -5 -5 8 -3 18 -10 21 -15 3 -5 18 -2 34 6 16 9 34 12
39 7 6 -5 20 -5 31 -1 19 7 18 9 -7 19 -25 9 -28 16 -28 55 0 37 3 45 23 50
27 7 116 79 138 113 15 22 18 23 26 9 6 -11 8 10 6 59 -2 60 -8 83 -28 115
-25 40 -31 60 -17 60 4 -1 23 -32 42 -71 19 -39 43 -77 53 -86 9 -9 17 -25 17
-36 0 -20 35 -59 63 -70 9 -3 17 -18 19 -33 2 -15 9 -29 16 -32 11 -3 12 0 3
17 -9 16 -9 21 1 21 7 1 30 16 51 35 37 33 38 35 23 57 -9 12 -16 31 -16 41 0
10 -8 27 -19 38 -22 24 -91 161 -91 182 0 8 -7 20 -15 27 -8 7 -15 22 -15 35
0 12 -9 30 -20 40 -15 13 -20 31 -20 66 0 55 -52 258 -76 293 -15 23 -32 32
-103 55 -49 16 -50 15 -71 -34z"/>
<path d="M4281 6525 c-21 -27 -61 -125 -61 -150 0 -7 -4 -15 -10 -17 -5 -2 -6
-18 0 -43 4 -22 11 -87 15 -143 5 -75 10 -101 18 -93 7 7 10 40 7 84 -2 39 -3
97 -3 127 -1 61 33 175 63 213 17 21 18 27 6 36 -11 9 -18 6 -35 -14z"/>
<path d="M4400 6399 c0 -2 5 -20 10 -39 38 -126 49 -182 44 -209 -5 -21 -3
-31 6 -31 14 0 49 -40 50 -57 0 -6 -15 -32 -34 -56 -33 -44 -34 -46 -21 -83 8
-22 14 -50 15 -63 0 -28 -46 -104 -88 -144 -22 -21 -27 -34 -24 -60 4 -33 5
-34 95 -57 51 -13 97 -25 103 -27 7 -3 17 18 24 49 17 74 53 183 82 247 l24
54 -49 100 c-45 91 -49 105 -44 152 3 28 2 56 -1 61 -4 5 -23 10 -42 12 -38 3
-84 28 -76 41 3 5 -8 28 -25 52 -34 48 -49 65 -49 58z"/>
<path d="M3847 6056 c-20 -76 -23 -109 -6 -86 8 11 9 8 4 -15 -3 -17 -6 -52
-7 -78 0 -25 -4 -44 -9 -42 -4 3 -5 -10 -2 -30 4 -24 0 -43 -12 -61 -12 -19
-14 -28 -6 -34 7 -4 11 -11 10 -16 -5 -30 6 -47 54 -74 28 -16 63 -30 76 -30
13 0 38 -11 55 -23 29 -23 91 -39 146 -39 39 -1 202 49 211 64 5 7 4 14 -1 16
-6 2 -10 19 -10 38 0 20 -5 34 -12 34 -21 1 -143 104 -146 124 -2 10 2 29 8
42 19 35 7 49 -54 63 -63 14 -102 46 -129 107 -14 31 -31 46 -80 72 -34 18
-64 32 -67 32 -3 0 -14 -29 -23 -64z"/>
<path d="M2920 5414 c0 -8 -12 -36 -26 -60 -22 -38 -25 -49 -15 -67 l11 -22
-6 23 c-3 14 2 31 14 47 l19 24 -3 -76 c-2 -42 0 -73 4 -69 4 4 7 15 7 24 0 9
7 18 17 20 11 2 20 -8 28 -33 17 -50 80 -115 113 -115 45 0 57 10 57 48 0 22
-14 60 -36 101 -52 94 -51 93 -79 65 -26 -26 -51 -30 -76 -11 -12 9 -15 25
-13 65 2 29 -1 52 -6 52 -6 0 -10 -7 -10 -16z"/>
<path d="M3890 5402 c0 -7 -7 -12 -15 -12 -12 0 -15 -14 -15 -65 0 -139 66
-191 116 -92 12 22 14 45 9 93 -7 59 -9 63 -27 53 -16 -9 -25 -6 -44 12 -13
12 -24 17 -24 11z"/>
<path d="M1169 5033 c-51 -47 -54 -48 -108 -45 -46 3 -60 0 -78 -17 -12 -12
-29 -21 -37 -21 -19 0 -31 -39 -17 -53 6 -6 11 -23 11 -39 0 -23 -6 -29 -32
-36 -18 -4 -34 -16 -36 -24 -2 -9 13 -40 32 -68 38 -56 45 -94 21 -126 -19
-26 -18 -54 3 -82 l18 -24 30 25 c17 14 44 29 60 33 16 3 44 18 62 31 35 26
48 24 62 -13 10 -25 42 -34 39 -11 -5 36 0 39 54 33 l53 -7 17 36 c13 27 23
35 44 36 40 1 95 22 107 42 8 12 6 21 -7 35 -23 25 -15 43 28 66 19 11 35 23
35 28 0 10 -62 67 -73 68 -10 0 -70 42 -79 55 -4 6 -18 10 -30 10 -18 0 -29
12 -51 58 -35 73 -55 75 -128 10z"/>
<path d="M2845 4961 c-3 -6 1 -11 9 -11 28 0 35 -31 15 -74 -16 -36 -16 -44
-3 -74 19 -46 18 -49 -7 -26 -19 17 -21 27 -16 94 4 56 3 65 -3 35 -17 -76
-12 -110 23 -161 17 -27 40 -50 50 -52 54 -10 87 94 66 208 -12 67 -13 69 -33
55 -27 -19 -55 -19 -77 1 -11 10 -19 12 -24 5z"/>
<path d="M4025 4813 c-3 -15 -16 -40 -27 -56 l-21 -29 -14 27 c-13 24 -17 25
-31 13 -9 -8 -30 -20 -47 -27 -16 -8 -25 -16 -18 -18 7 -2 22 1 34 7 17 10 24
9 36 -3 13 -13 13 -18 -2 -40 -24 -38 -83 -80 -102 -73 -12 5 -14 1 -11 -19 6
-28 -1 -32 -21 -12 -11 10 -13 9 -9 -3 8 -26 51 -40 90 -30 52 15 85 45 92 85
4 19 11 35 16 35 18 0 60 87 60 123 0 44 -15 57 -25 20z"/>
<path d="M2149 4041 c-41 -41 -50 -81 -29 -122 14 -26 35 -24 58 5 10 14 31
28 45 31 45 12 53 31 31 73 -34 65 -51 67 -105 13z"/>
</g>
</svg>
