<?xml version="1.0" standalone="no"?>
<!DOCTYPE svg PUBLIC "-//W3C//DTD SVG 20010904//EN"
 "http://www.w3.org/TR/2001/REC-SVG-20010904/DTD/svg10.dtd">
<svg version="1.0" xmlns="http://www.w3.org/2000/svg"
 width="720.000000pt" height="1280.000000pt" viewBox="0 0 720.000000 1280.000000"
 preserveAspectRatio="xMidYMid meet">
<metadata>
Created by potrace 1.16, written by Peter Selinger 2001-2019
</metadata>
<g transform="translate(0.000000,1280.000000) scale(0.100000,-0.100000)"
fill="#000000" stroke="none">
<path d="M0 6400 l0 -6400 3600 0 3600 0 0 1900 0 1900 -27 1 c-16 0 -428 4
-918 9 -1007 11 -1529 19 -1563 26 -20 4 -22 9 -16 44 l6 39 -68 -5 c-104 -7
-107 -9 -100 -56 l7 -40 -432 3 c-335 3 -433 7 -437 17 -2 6 -13 12 -24 12
-40 0 -87 31 -98 64 -11 34 -73 76 -111 76 -10 0 -19 5 -19 10 0 6 -10 10 -22
10 -33 0 -50 14 -42 33 3 9 10 14 15 11 13 -8 49 15 49 31 0 8 7 15 15 15 8 0
12 6 9 13 -5 13 -130 33 -258 41 -35 2 -62 9 -67 17 -6 11 -14 11 -37 3 l-29
-11 -7 107 c-7 105 -6 109 17 132 13 13 29 22 35 20 7 -2 12 5 12 16 0 19 3
20 33 11 17 -6 48 -11 67 -12 l35 -2 3 262 2 262 23 3 c12 2 21 9 19 16 -1 9
16 12 60 10 l63 -1 -55 -7 -55 -7 58 -1 c51 -2 57 0 57 18 0 22 12 22 -225 2
l-100 -9 80 -3 c164 -7 -251 -17 -750 -18 -326 -1 -495 2 -485 8 11 7 5 10
-23 10 -21 0 -53 7 -73 15 -19 8 -32 10 -29 5 9 -14 -7 -13 -93 9 -43 11 -111
22 -152 24 l-75 6 59 -12 c43 -9 61 -18 67 -32 12 -32 11 -35 -22 -35 -17 0
-28 4 -24 10 4 6 -9 10 -32 9 -37 -1 -37 -2 -8 -8 69 -16 -1355 -30 -1448 -15
-31 6 -37 11 -37 31 0 13 6 25 12 27 7 2 22 8 33 12 17 7 15 9 -12 12 -25 2
-33 8 -33 24 0 11 8 22 20 25 11 3 20 12 20 20 0 10 -7 14 -20 10 -16 -4 -20
0 -19 16 0 12 3 17 5 11 4 -9 19 -8 57 2 41 11 208 15 822 20 676 6 775 5 815
-8 25 -9 65 -19 90 -22 40 -6 43 -5 28 7 -10 8 -18 17 -18 20 0 9 115 -5 118
-14 5 -14 22 -11 20 3 -2 10 37 13 166 13 189 0 185 -2 166 75 l-8 35 -1 -47
c-1 -26 -5 -50 -11 -53 -5 -3 -61 -3 -122 1 -62 5 -104 10 -93 12 44 8 47 11
20 34 -25 22 -27 29 -31 138 -4 116 11 270 27 270 4 0 16 9 26 19 11 12 36 21
63 24 37 3 34 4 -20 5 -36 1 -72 7 -80 12 -12 7 -16 36 -19 130 -3 111 -2 120
15 121 16 0 16 2 -3 11 -19 9 -23 19 -23 57 0 84 21 265 32 278 7 9 41 13 114
13 l103 0 7 -35 c3 -19 3 -119 0 -222 -7 -230 -8 -322 -5 -528 l2 -160 7 105
c4 58 8 231 9 386 1 210 4 285 14 298 10 14 25 16 77 14 l65 -3 2 -495 2 -495
88 -3 c61 -1 83 1 73 8 -12 8 -11 10 8 10 27 0 28 19 2 53 -19 24 -20 40 -20
541 l0 516 115 0 115 0 1 -502 c0 -277 0 -532 -1 -567 l-1 -64 38 6 c21 4 104
7 186 7 l147 0 0 262 c0 144 -3 259 -6 255 -3 -3 -6 -72 -6 -154 -1 -81 -3
-139 -5 -128 -2 11 -9 33 -15 49 -11 27 -12 27 -25 10 -12 -16 -13 -13 -14 27
l-1 44 -13 -45 c-7 -25 -13 -37 -14 -27 -1 10 -8 20 -16 23 -13 5 -15 43 -15
254 0 188 3 251 12 257 19 11 58 11 58 0 0 -6 7 -2 15 9 8 11 15 14 15 7 0 -7
7 -13 15 -13 13 0 15 34 15 246 l0 246 -347 -7 c-319 -6 -352 -6 -393 11 -25
9 -53 24 -62 32 -21 18 -41 7 -33 -19 5 -15 1 -19 -17 -19 -13 0 -300 0 -638
1 -338 1 -811 2 -1050 2 -239 0 -418 1 -398 4 44 5 51 28 13 37 -25 6 -25 7
-8 32 14 22 23 25 62 24 70 -4 91 -1 91 11 0 6 -31 9 -85 8 -115 -2 -126 8
-30 27 l40 8 -50 6 c-58 8 -51 9 140 19 l130 8 -145 2 c-134 1 -302 20 -317
35 -3 3 -1 6 5 6 7 0 12 5 12 10 0 6 -7 10 -15 10 -12 0 -15 14 -15 70 0 68 1
70 25 70 25 0 25 1 25 80 0 44 3 80 8 80 4 0 15 36 26 80 17 72 21 80 42 80
22 0 24 4 24 55 0 58 21 105 46 105 11 0 14 18 14 75 0 57 3 75 14 75 7 0 19
20 26 44 13 47 36 67 43 38 4 -16 5 -15 6 1 0 9 8 17 16 17 20 0 20 59 1 74
-15 12 -28 176 -14 176 5 0 8 16 8 35 0 28 4 35 20 35 16 0 20 7 20 34 0 19 4
36 10 38 15 5 42 135 47 231 4 65 8 87 19 87 7 0 16 11 20 25 3 14 12 25 19
25 13 0 25 109 25 227 0 60 1 62 30 68 30 6 30 8 30 71 0 48 4 64 14 64 15 0
26 42 26 96 0 19 4 34 9 34 5 0 12 12 15 26 5 20 12 25 29 22 19 -4 22 0 22
26 0 45 28 41 36 -4 l6 -35 2 32 c1 21 8 36 21 43 25 13 29 80 5 80 -9 0 -15
9 -15 25 0 23 4 25 44 25 35 0 45 4 49 19 4 15 13 20 38 19 19 -1 54 4 79 9
39 9 23 11 -110 14 -504 9 814 16 3373 18 l2897 1 0 1775 0 1775 -3600 0
-3600 0 0 -6400z m6782 3684 c50 -17 112 -73 138 -125 44 -85 32 -202 -29
-284 -25 -34 -27 -41 -14 -50 14 -10 14 -14 -2 -38 -22 -35 -88 -46 -136 -23
-29 13 -43 14 -94 4 -106 -20 -142 -17 -169 17 -22 27 -22 31 -7 41 15 11 14
14 -6 36 -38 40 -63 108 -63 172 0 78 16 128 58 176 77 90 199 118 324 74z
m-639 0 c52 -18 116 -76 142 -130 22 -47 30 -130 16 -180 -32 -119 -134 -194
-265 -194 -165 0 -272 106 -270 266 2 153 105 252 265 253 36 1 86 -6 112 -15z
m-5839 -91 c10 -34 76 -315 76 -324 0 -5 -16 -9 -35 -9 -30 0 -35 3 -35 24 0
31 -13 39 -59 39 -31 0 -36 -3 -43 -31 -8 -28 -13 -32 -42 -32 l-34 0 14 58
c7 31 25 110 40 175 l28 117 42 0 c32 0 44 -4 48 -17z m406 -75 l1 -93 30 38
c23 27 39 37 60 37 16 0 29 -3 29 -6 0 -4 -16 -28 -35 -54 l-34 -47 28 -45
c56 -89 56 -88 17 -88 -30 0 -38 5 -57 40 -26 45 -39 43 -39 -6 0 -31 -2 -34
-30 -34 l-30 0 0 175 0 175 30 0 30 0 0 -92z m1740 -83 l0 -176 -42 1 c-24 1
-55 -1 -69 -5 -19 -5 -33 -1 -55 18 -27 24 -29 29 -29 106 0 69 3 84 21 102
23 22 55 28 92 15 21 -7 22 -5 22 53 l0 61 30 0 30 0 0 -175z m452 83 l3 -92
25 37 c20 30 31 37 58 37 30 0 42 -12 24 -24 -5 -3 -21 -23 -36 -44 l-27 -40
41 -66 41 -67 -38 3 c-32 3 -41 9 -58 40 -26 49 -35 48 -35 -2 0 -39 -1 -40
-35 -40 l-35 0 0 175 0 175 35 0 34 0 3 -92z m728 28 l0 -65 35 15 c28 11 40
12 58 3 34 -18 37 -27 37 -136 l0 -103 -30 0 -30 0 0 90 c0 75 -3 92 -16 97
-37 14 -49 -10 -52 -101 l-3 -86 -29 0 -30 0 0 175 0 175 30 0 30 0 0 -64z
m530 3 c0 -58 1 -60 23 -53 76 26 107 -8 107 -118 0 -71 -2 -81 -26 -105 -20
-20 -31 -24 -52 -18 -15 4 -46 6 -69 5 l-43 -1 0 176 0 175 30 0 30 0 0 -61z
m-1480 -9 c0 -38 2 -40 30 -40 25 0 30 -4 30 -25 0 -21 -5 -25 -30 -25 l-31 0
3 -67 c3 -66 4 -68 31 -71 21 -3 27 -8 23 -19 -3 -8 -6 -19 -6 -24 0 -16 -73
-10 -92 8 -14 13 -18 31 -18 90 0 66 -2 75 -20 80 -13 3 -20 14 -20 29 0 17 6
24 20 24 17 0 20 7 20 40 0 38 2 40 30 40 28 0 30 -2 30 -40z m-2096 -61 c24
-23 34 -121 17 -172 -15 -44 -59 -66 -97 -48 -14 6 -27 11 -29 11 -3 0 -5 -29
-5 -65 l0 -65 -30 0 -30 0 0 181 0 182 38 -5 c20 -3 46 -2 57 3 26 10 55 2 79
-22z m405 20 c17 -6 36 -19 41 -29 6 -10 10 -62 10 -115 l0 -97 -32 3 c-18 1
-48 -1 -66 -5 -50 -12 -82 13 -82 64 0 44 20 64 83 81 28 7 37 15 35 27 -5 25
-45 27 -58 3 -13 -25 -48 -28 -57 -5 -8 21 28 67 58 75 35 10 33 10 68 -2z
m287 1 c39 -15 53 -39 54 -87 l0 -43 -61 0 c-60 0 -60 0 -57 -27 3 -32 44 -46
54 -19 9 23 64 21 64 -2 0 -51 -67 -84 -124 -62 -45 17 -55 38 -56 116 0 78
20 119 63 127 12 2 25 5 29 6 4 0 19 -4 34 -9z m201 -1 c32 -12 43 -26 43 -56
0 -31 -45 -33 -53 -2 -7 24 -40 23 -45 -2 -2 -10 9 -21 30 -29 75 -30 98 -83
59 -131 -40 -50 -151 -22 -151 38 0 19 5 23 30 23 24 0 30 -4 30 -21 0 -15 5
-20 22 -17 42 6 33 36 -16 58 -76 32 -89 107 -23 135 39 17 39 17 74 4z m202
-4 c26 -13 46 -56 33 -70 -14 -14 -50 -3 -55 16 -4 13 -12 20 -24 17 -29 -5
-21 -32 15 -50 73 -36 92 -81 53 -129 -15 -19 -29 -24 -66 -24 -37 0 -51 5
-66 24 -29 36 -25 61 10 61 21 0 30 -6 34 -21 7 -25 40 -22 45 4 3 12 -9 23
-42 37 -74 31 -86 108 -22 136 40 17 51 17 85 -1z m200 4 c17 -6 36 -19 41
-29 6 -10 10 -62 10 -115 l0 -97 -32 3 c-18 1 -48 -1 -66 -5 -50 -12 -82 13
-82 64 0 44 20 64 83 81 28 7 37 15 35 27 -5 25 -45 27 -58 3 -11 -22 -44 -28
-55 -11 -12 20 8 59 38 74 38 19 45 19 86 5z m319 -22 c16 -15 22 -32 22 -64
l0 -43 -61 0 c-60 0 -60 0 -57 -27 3 -32 44 -46 54 -19 9 23 64 21 64 -2 0
-49 -66 -84 -121 -64 -50 20 -59 37 -59 121 0 68 3 80 23 98 12 11 29 23 37
26 25 9 73 -4 98 -26z m1000 -3 c18 -21 22 -36 22 -98 0 -77 -15 -107 -61
-121 -31 -10 -84 3 -105 26 -23 26 -31 127 -13 170 24 60 111 73 157 23z m240
8 c8 -10 12 -52 12 -119 l0 -103 -30 0 -30 0 0 90 c0 75 -3 92 -17 97 -32 12
-53 -32 -53 -113 l0 -74 -30 0 -30 0 0 120 0 120 29 0 c16 0 31 -5 33 -11 2
-6 14 -5 33 5 33 17 63 13 83 -12z m530 -8 c15 -17 22 -38 22 -65 l0 -39 -61
0 c-60 0 -60 0 -57 -27 3 -32 44 -46 54 -19 4 10 18 16 35 16 22 0 29 -5 29
-20 0 -42 -64 -79 -115 -66 -52 13 -65 39 -65 124 0 69 3 81 23 99 12 11 29
23 37 26 28 11 75 -3 98 -29z m539 12 c7 -6 13 -53 15 -116 l3 -105 -32 -3
-33 -3 0 91 c0 72 -3 92 -15 96 -33 13 -45 -15 -45 -102 l0 -84 -35 0 -35 0 0
120 0 120 35 0 c19 0 35 -4 35 -9 0 -6 12 -3 28 4 28 15 58 12 79 -9z m221
-12 c19 -22 22 -36 22 -120 l0 -95 -42 1 c-24 1 -54 -1 -68 -5 -34 -9 -80 27
-80 61 0 41 18 63 63 75 52 15 67 26 60 45 -8 21 -41 17 -55 -6 -12 -19 -48
-27 -60 -14 -15 14 11 60 43 77 43 22 86 16 117 -19z m391 25 c36 -13 61 -53
61 -99 l0 -30 -59 0 c-65 0 -73 -5 -64 -38 6 -26 53 -32 53 -7 0 11 11 15 36
15 32 0 35 -2 29 -22 -13 -43 -42 -63 -90 -63 -64 0 -87 27 -93 105 -5 75 11
118 52 136 38 16 36 16 75 3z m204 -3 c15 -8 27 -11 27 -5 0 5 14 9 30 9 l30
0 0 -149 c0 -134 -2 -151 -20 -174 -41 -52 -147 -44 -170 13 -7 16 -9 34 -5
39 9 15 46 7 60 -12 27 -37 75 -10 75 43 0 17 -3 19 -19 10 -36 -19 -78 -12
-100 16 -16 21 -21 41 -21 88 0 85 8 106 44 122 39 17 36 17 69 0z m285 -22
c19 -22 22 -36 22 -120 l0 -95 -42 1 c-24 1 -54 -1 -68 -5 -35 -9 -80 27 -80
64 0 39 19 60 70 75 33 10 46 19 48 35 4 28 -31 29 -51 0 -22 -30 -63 -23 -59
11 10 70 109 91 160 34z m-3048 -94 l0 -120 -35 0 -35 0 0 113 c0 63 3 117 7
120 3 4 19 7 35 7 l28 0 0 -120z m2280 63 c19 -91 25 -93 45 -14 17 70 18 71
50 71 l33 0 -52 -177 -51 -178 -33 -3 c-29 -3 -33 -1 -29 15 31 106 31 95 -2
207 -18 59 -35 114 -38 122 -4 10 4 14 29 14 34 0 35 -1 48 -57z m-2826 -3639
c11 -28 7 -134 -5 -134 -8 0 -8 -4 1 -15 22 -26 0 -35 -86 -35 -79 0 -85 1
-79 19 3 12 0 21 -10 25 -16 6 -21 78 -9 123 7 27 20 30 110 32 57 1 73 -2 78
-15z m6 -208 c0 -9 -5 -16 -11 -16 -8 0 -9 -4 0 -13 6 -8 8 -17 4 -20 -3 -4
-1 -13 6 -20 8 -10 11 -116 9 -381 l-2 -366 -95 1 c-53 1 -88 3 -78 6 19 5 22
18 7 28 -5 3 -10 1 -10 -4 0 -6 -4 -11 -8 -11 -11 0 -17 160 -17 475 l0 250
40 6 c25 4 31 7 15 8 -31 2 -65 21 -37 21 22 0 22 16 0 24 -33 13 6 23 93 25
70 2 84 -1 84 -13z m-1226 -158 c6 -129 5 -267 -3 -610 -1 -41 -4 -48 -22 -48
-11 0 -18 4 -15 9 4 5 -13 12 -36 16 -24 3 -64 13 -90 21 -44 14 -47 18 -53
57 -4 23 -4 95 -1 159 5 110 15 158 35 158 10 0 20 22 31 68 6 24 5 32 -6 32
-8 0 -14 5 -14 10 0 6 0 13 -1 18 0 4 10 9 22 12 24 6 38 53 20 65 -17 10 0
35 25 35 12 0 30 10 38 22 15 21 14 23 -7 35 -18 10 -19 12 -4 13 23 0 22 9
-5 37 l-21 23 29 0 c16 0 36 5 44 10 8 5 18 10 21 10 4 0 10 -69 13 -152z
m188 -640 c-14 -14 -61 2 -68 24 -3 11 -8 17 -11 15 -2 -3 -18 9 -34 25 l-29
31 0 234 c0 129 5 265 11 303 l12 69 61 3 61 3 3 -349 c1 -193 -2 -354 -6
-358z m1598 -468 l0 -91 -127 3 -128 3 -3 54 c-5 92 0 101 61 103 l52 1 -50 7
c-37 5 -19 7 73 8 l122 2 0 -90z m219 60 c2 -14 0 -89 -4 -167 l-7 -143 -77 0
c-129 0 -121 -9 -121 145 0 72 5 146 11 164 l11 32 92 -3 c89 -3 91 -4 95 -28z
m160 -396 c-1 -173 -4 -244 -12 -246 -7 -2 -43 -2 -82 1 l-70 6 1 40 c9 270
19 418 29 429 7 6 40 12 74 12 l62 0 -2 -242z m-391 91 c2 -2 -1 -153 -7 -337
-6 -183 -12 -390 -14 -460 l-3 -128 88 0 c87 0 88 0 88 -25 0 -24 -2 -25 -72
-27 l-73 -2 75 -6 c57 -5 65 -7 35 -10 l-40 -3 38 -4 c54 -6 50 -33 -5 -35
l-43 -1 45 -7 c29 -5 -13 -8 -120 -9 -251 -4 -311 -3 -318 3 -3 3 -16 6 -28 6
-13 0 -26 5 -29 10 -10 16 -25 12 -25 -6 0 -15 -10 -16 -80 -11 -47 4 -82 2
-85 -3 -4 -6 -368 -10 -991 -10 l-984 0 0 75 c0 52 4 77 13 80 6 2 521 6 1142
9 622 2 1131 5 1133 5 2 1 -4 9 -14 18 -15 15 -16 37 -10 218 3 110 9 304 12
432 l7 232 36 4 c36 4 223 -3 229 -8z m212 -249 c0 -41 -4 -77 -8 -80 -4 -2
-48 -6 -97 -7 l-90 -2 -3 68 c-2 37 -1 74 2 82 4 10 30 13 101 13 l95 0 0 -74z
m-2012 -498 l4 -108 -94 0 c-51 0 -98 4 -105 8 -8 5 -10 25 -6 65 7 65 20 76
25 20 l3 -38 57 -3 56 -3 -5 43 c-7 53 -29 75 -79 81 -22 2 -1 4 45 5 103 2
103 11 0 13 -41 1 -78 4 -84 8 -18 10 39 19 110 18 l70 -2 3 -107z m1884 20
c18 0 39 -3 49 -8 20 -11 34 -87 24 -132 l-7 -31 -64 6 c-81 6 -94 19 -94 94
0 32 3 68 6 80 6 21 7 21 31 6 13 -9 38 -16 55 -15z m915 -345 c5 -16 8 -136
8 -268 l0 -240 -65 -3 c-36 -2 -88 -1 -117 3 -50 6 -52 8 -68 48 -19 51 -33
250 -25 365 7 113 17 121 157 122 l103 0 7 -27z m-3327 -155 c0 -18 -3 -70 -7
-115 l-6 -83 -93 0 c-51 0 -95 3 -97 8 -3 4 0 50 6 102 l10 96 64 2 c35 1 72
6 81 11 31 18 42 12 42 -21z m1950 -80 c0 -35 1 -291 2 -570 3 -498 3 -507 23
-515 11 -5 36 -6 55 -2 23 4 27 7 12 8 -33 2 -17 21 18 21 16 0 32 5 35 10 4
6 88 10 218 10 l212 0 3 -44 3 -44 -1376 -1 -1375 0 0 364 c0 224 4 366 10
370 5 3 54 9 108 12 l99 6 5 -327 c3 -179 8 -329 12 -333 3 -4 235 -9 514 -11
744 -6 813 -6 972 3 l145 8 -1 271 c-1 149 2 307 5 351 l6 80 80 10 80 10 2
65 c1 42 -1 54 -5 35 -7 -30 -8 -30 -85 -33 l-77 -3 2 143 3 143 77 3 c73 3
77 2 81 -20 3 -17 5 -15 6 10 l1 32 65 0 65 0 0 -62z m696 -476 c9 -12 13 -12
26 2 18 18 48 22 48 6 0 -5 6 -10 14 -10 18 0 24 -60 17 -185 l-6 -100 -35 1
c-86 4 -88 6 -105 150 -14 120 -11 165 14 156 9 -3 21 -12 27 -20z m-2539
-120 c14 -9 19 -93 15 -247 -1 -55 -6 -95 -10 -90 -5 6 -19 43 -32 83 -19 60
-22 86 -16 145 9 111 16 126 43 109z m3227 -118 c14 -5 16 -33 16 -210 l0
-204 -144 0 c-110 0 -146 3 -155 14 -8 9 -10 60 -6 167 6 196 9 207 48 225 33
13 211 20 241 8z m3004 -326 l3 -78 -73 0 c-40 0 -68 4 -61 8 6 4 11 31 11 62
-1 97 -5 91 60 88 l57 -3 3 -77z"/>
<path d="M6613 9773 c-20 -4 -23 -11 -23 -51 l0 -47 85 0 85 0 0 46 c0 40 -3
48 -22 53 -25 6 -90 6 -125 -1z"/>
<path d="M4005 6620 c-12 -19 -95 -312 -95 -334 0 -39 18 0 56 119 20 66 40
124 44 128 4 5 10 -15 14 -44 4 -29 14 -65 22 -81 13 -24 20 -29 47 -26 27 3
39 14 78 71 l47 67 -6 -130 c-4 -114 -3 -130 11 -130 22 0 25 18 29 169 2 90
-1 136 -8 138 -18 6 -59 -34 -105 -102 -24 -36 -47 -65 -51 -65 -18 0 -33 52
-38 135 -4 73 -8 90 -22 93 -9 2 -19 -2 -23 -8z"/>
<path d="M4852 6378 l3 -93 50 4 c28 1 56 8 63 13 16 14 15 63 -2 77 -7 6 -11
22 -9 34 7 34 -21 57 -68 57 l-40 0 3 -92z"/>
<path d="M5010 6375 c0 -76 3 -95 14 -95 10 0 16 13 18 38 3 34 6 37 36 40 31
3 32 3 32 -38 0 -34 3 -41 16 -36 9 3 18 6 20 6 2 0 4 41 4 90 0 83 -1 90 -20
90 -16 0 -20 -7 -20 -35 0 -33 -2 -35 -35 -35 -33 0 -35 2 -35 35 0 24 -5 35
-15 35 -12 0 -15 -17 -15 -95z"/>
<path d="M5212 6383 c-40 -88 -42 -124 -4 -90 23 21 78 22 98 2 18 -17 34 -20
34 -5 0 12 -77 180 -83 180 -2 0 -22 -39 -45 -87z"/>
<path d="M5510 6375 c0 -78 3 -95 15 -95 11 0 15 11 15 40 0 39 1 40 35 40 33
0 35 -2 35 -34 0 -29 13 -46 36 -46 2 0 4 43 4 95 0 88 -1 95 -20 95 -16 0
-20 -7 -20 -35 0 -33 -2 -35 -35 -35 -33 0 -35 2 -35 35 0 24 -5 35 -15 35
-12 0 -15 -17 -15 -95z"/>
<path d="M5712 6383 c-28 -61 -37 -90 -29 -95 6 -4 19 0 28 8 21 19 85 19 93
-1 7 -18 36 -20 36 -2 0 13 -77 177 -83 177 -2 0 -22 -39 -45 -87z"/>
<path d="M4308 6371 c-29 -26 -32 -32 -23 -57 l11 -29 107 -1 107 -2 0 32 c0
17 7 39 14 49 13 17 15 17 41 -9 23 -23 32 -26 71 -20 38 5 44 3 44 -12 0 -17
18 -42 30 -42 3 0 6 25 7 55 2 43 -1 55 -13 55 -8 0 -17 -7 -21 -16 -7 -20
-45 -34 -71 -28 -11 3 -25 16 -32 30 -11 20 -20 23 -57 22 l-43 -2 0 -43 c0
-23 -3 -44 -7 -46 -5 -3 -35 -8 -69 -12 -49 -5 -64 -4 -77 9 -21 21 -11 46 17
46 24 0 66 26 66 41 0 5 -16 9 -35 9 -24 0 -44 -9 -67 -29z"/>
</g>
</svg>
