<?xml version="1.0" standalone="no"?>
<!DOCTYPE svg PUBLIC "-//W3C//DTD SVG 20010904//EN"
 "http://www.w3.org/TR/2001/REC-SVG-20010904/DTD/svg10.dtd">
<svg version="1.0" xmlns="http://www.w3.org/2000/svg"
 width="720.000000pt" height="1280.000000pt" viewBox="0 0 720.000000 1280.000000"
 preserveAspectRatio="xMidYMid meet">
<metadata>
Created by potrace 1.16, written by Peter Selinger 2001-2019
</metadata>
<g transform="translate(0.000000,1280.000000) scale(0.100000,-0.100000)"
fill="#000000" stroke="none">
<path d="M0 6400 l0 -6400 3600 0 3600 0 0 1303 0 1302 -24 105 c-24 105 -22
127 12 115 8 -3 12 7 12 29 0 29 -3 33 -20 29 -26 -7 -50 13 -50 43 0 18 5 24
23 24 13 0 28 -5 35 -12 9 -9 11 460 10 2122 l-3 2135 -49 -3 c-74 -3 -121 13
-155 56 -33 39 -39 77 -17 107 11 15 30 20 85 23 44 3 71 9 71 16 -1 27 -51
66 -85 66 -9 0 -29 -10 -45 -21 -34 -26 -60 -19 -60 15 0 33 26 46 90 46 74 0
134 -38 159 -100 6 -17 10 875 10 2688 l1 2712 -3600 0 -3600 0 0 -6400z
m6796 3680 c151 -69 198 -267 95 -405 -25 -34 -27 -41 -14 -50 14 -10 14 -14
-2 -38 -22 -35 -90 -46 -136 -23 -33 16 -80 14 -147 -6 -47 -14 -99 -2 -118
28 -13 20 -14 27 -4 39 11 13 9 19 -8 38 -85 90 -82 268 6 360 77 81 220 106
328 57z m-653 4 c29 -10 64 -34 92 -62 124 -125 89 -333 -68 -412 -133 -66
-310 -20 -370 96 -47 91 -44 191 7 276 25 43 43 59 94 85 54 28 75 33 131 33
37 0 88 -7 114 -16z m-5802 -244 c21 -91 39 -168 39 -172 0 -5 -15 -8 -33 -8
-28 0 -34 4 -42 32 -9 29 -14 32 -50 31 -36 0 -40 -3 -47 -31 -8 -28 -13 -32
-42 -32 l-34 0 14 58 c7 31 26 110 41 175 l27 118 44 -3 45 -3 38 -165z m369
78 l1 -93 30 38 c23 27 39 37 60 37 16 0 29 -3 29 -6 0 -4 -16 -28 -35 -53
-30 -41 -33 -50 -21 -67 7 -10 25 -40 40 -66 l27 -48 -35 0 c-30 0 -38 5 -57
40 -26 45 -39 43 -39 -6 0 -31 -2 -34 -30 -34 l-30 0 0 175 0 175 30 0 30 0 0
-92z m1740 -83 l0 -176 -42 1 c-24 1 -55 -1 -69 -5 -19 -5 -33 -1 -55 18 -28
24 -29 29 -28 107 1 68 4 85 21 102 22 21 54 27 91 14 21 -7 22 -5 22 53 l0
61 30 0 30 0 0 -175z m452 83 l3 -92 25 37 c20 30 31 37 58 37 30 0 42 -12 24
-24 -5 -3 -21 -23 -36 -44 l-27 -40 40 -66 41 -66 -34 0 c-28 0 -38 7 -62 43
l-29 42 -3 -42 c-3 -42 -4 -43 -38 -43 l-34 0 0 175 0 175 35 0 34 0 3 -92z
m728 27 l0 -66 30 16 c33 17 60 13 85 -11 11 -12 15 -40 15 -120 l0 -104 -30
0 -30 0 0 90 c0 75 -3 92 -16 97 -37 14 -49 -10 -52 -101 l-3 -86 -29 0 -30 0
0 175 0 175 30 0 30 0 0 -65z m530 4 c0 -58 1 -60 23 -53 76 26 107 -8 107
-118 0 -71 -2 -81 -26 -105 -20 -20 -31 -24 -52 -18 -15 4 -46 6 -69 5 l-43
-1 0 176 0 175 30 0 30 0 0 -61z m-1480 -9 c0 -38 2 -40 30 -40 25 0 30 -4 30
-25 0 -21 -5 -25 -30 -25 l-31 0 3 -67 c3 -66 4 -68 31 -71 21 -3 27 -8 23
-19 -3 -8 -6 -19 -6 -24 0 -16 -73 -10 -92 8 -14 13 -18 31 -18 90 0 66 -2 75
-20 80 -13 3 -20 14 -20 29 0 17 6 24 20 24 16 0 20 7 20 33 0 40 6 47 37 47
20 0 23 -5 23 -40z m-2096 -61 c24 -23 34 -121 17 -172 -15 -44 -59 -66 -97
-48 -14 6 -27 11 -29 11 -3 0 -5 -30 -5 -66 l0 -65 -27 3 -28 3 -3 179 -2 179
37 -5 c21 -3 47 -2 58 3 26 10 55 2 79 -22z m405 20 c44 -16 51 -35 51 -143
l0 -96 -47 -1 c-27 0 -60 -1 -75 -1 -40 -1 -58 19 -58 63 0 43 20 63 83 80 28
7 37 15 35 27 -5 26 -48 28 -55 3 -4 -14 -13 -21 -29 -21 -65 0 -15 96 52 99
6 1 25 -4 43 -10z m290 0 c38 -14 51 -35 51 -88 l0 -41 -61 0 c-60 0 -60 0
-57 -27 3 -32 44 -46 54 -19 4 10 18 16 35 16 35 0 39 -25 10 -61 -15 -19 -29
-24 -66 -24 -39 0 -51 5 -71 28 -20 24 -24 39 -24 96 0 75 21 116 63 124 12 2
25 5 28 6 3 0 20 -4 38 -10z m198 0 c32 -12 43 -26 43 -56 0 -31 -45 -33 -53
-3 -7 26 -47 27 -47 1 0 -11 12 -23 30 -31 78 -32 101 -82 61 -131 -15 -19
-29 -24 -66 -24 -37 0 -51 5 -66 24 -29 36 -25 61 11 61 24 0 30 -4 30 -21 0
-15 5 -20 22 -17 40 5 31 32 -19 58 -91 48 -80 135 19 149 4 1 19 -4 35 -10z
m191 0 c29 -10 59 -59 45 -73 -15 -15 -51 -5 -56 15 -4 13 -12 20 -24 17 -29
-5 -21 -32 15 -50 73 -36 92 -81 53 -129 -15 -19 -29 -24 -66 -24 -37 0 -51 5
-66 24 -29 36 -25 61 10 61 21 0 30 -6 34 -21 7 -25 40 -22 45 3 2 12 -11 24
-43 39 -74 35 -86 106 -22 134 39 17 37 17 75 4z m211 0 c17 -6 36 -19 41 -29
6 -10 10 -62 10 -115 l0 -97 -32 3 c-18 1 -48 -1 -66 -5 -50 -12 -82 13 -82
64 0 44 20 64 83 81 28 7 37 15 35 27 -5 25 -45 27 -58 3 -13 -24 -48 -28 -56
-6 -8 20 21 64 49 75 30 12 39 12 76 -1z m318 -21 c17 -16 23 -33 23 -65 l0
-43 -61 0 c-60 0 -60 0 -57 -27 3 -32 44 -46 54 -19 8 20 64 22 64 2 0 -69
-102 -98 -158 -45 -19 17 -22 31 -22 98 0 68 3 80 23 98 12 11 29 23 37 26 25
10 73 -2 97 -25z m1001 -4 c18 -21 22 -36 22 -98 0 -65 -3 -75 -26 -97 -35
-33 -104 -34 -136 -2 -27 28 -37 127 -17 174 24 60 111 73 157 23z m240 8 c8
-10 12 -52 12 -119 l0 -103 -30 0 -30 0 0 90 c0 75 -3 92 -17 97 -32 12 -53
-32 -53 -113 l0 -74 -30 0 -30 0 0 120 0 120 29 0 c16 0 31 -5 33 -11 2 -6 14
-5 33 5 33 17 63 13 83 -12z m529 -4 c17 -16 23 -33 23 -65 l0 -43 -61 0 c-60
0 -60 0 -57 -27 3 -32 44 -46 54 -19 4 10 18 16 35 16 22 0 29 -5 29 -20 0
-42 -64 -79 -115 -66 -52 13 -65 39 -65 124 0 69 3 81 23 99 12 11 29 23 37
26 25 10 73 -2 97 -25z m540 8 c6 -6 13 -57 16 -118 l5 -108 -34 0 -34 0 0 90
c0 72 -3 92 -15 96 -33 13 -45 -15 -45 -102 l0 -84 -35 0 -35 0 0 120 0 120
35 0 c19 0 35 -4 35 -9 0 -6 12 -3 28 4 28 15 58 12 79 -9z m218 -7 c17 -16
21 -35 23 -120 l4 -100 -44 1 c-23 1 -54 -1 -68 -5 -35 -9 -80 27 -80 64 0 39
19 60 70 75 33 10 46 19 48 35 4 28 -33 29 -50 1 -12 -19 -48 -27 -60 -14 -15
14 11 60 43 77 40 20 84 15 114 -14z m400 16 c37 -15 55 -46 55 -96 0 -29 0
-29 -59 -29 -65 0 -73 -5 -64 -38 6 -26 53 -32 53 -7 0 11 11 15 36 15 32 0
35 -2 29 -22 -4 -13 -18 -34 -33 -47 -21 -19 -33 -22 -65 -18 -59 8 -80 35
-85 107 -5 75 11 118 52 136 39 17 40 17 81 -1z m198 1 c15 -8 27 -11 27 -5 0
5 14 9 31 9 l30 0 -3 -154 c-3 -134 -5 -157 -22 -175 -42 -46 -144 -35 -166
19 -7 16 -9 34 -5 39 10 18 44 12 57 -9 27 -42 78 -15 78 41 0 18 -3 20 -12
11 -7 -7 -29 -12 -49 -12 -56 0 -79 34 -79 116 0 72 13 107 44 122 29 14 37
14 69 -2z m285 -22 c19 -22 22 -36 22 -120 l0 -95 -42 1 c-24 1 -55 -1 -70 -5
-21 -6 -32 -2 -52 18 -48 48 -29 99 44 121 33 10 46 19 48 35 4 28 -33 29 -50
1 -12 -19 -48 -27 -60 -14 -15 14 11 60 43 77 43 22 86 16 117 -19z m-3048
-94 l0 -120 -35 0 -35 0 0 113 c0 63 3 117 7 120 3 4 19 7 35 7 l28 0 0 -120z
m2271 103 c0 -10 8 -43 18 -73 l17 -55 19 73 c18 70 20 72 51 72 l32 0 -24
-82 c-79 -281 -76 -273 -113 -276 -28 -3 -33 -1 -27 14 29 76 29 101 -4 209
-17 59 -34 113 -37 121 -4 10 4 14 31 14 27 0 36 -4 37 -17z m-4675 -854 c42
-25 62 -76 74 -191 5 -54 10 -102 10 -108 0 -5 -15 -10 -34 -10 -42 0 -42 2
-56 134 -12 115 -28 142 -92 152 -32 6 -38 10 -38 31 0 24 1 25 53 18 28 -4
66 -16 83 -26z m398 -49 c43 -26 93 -80 105 -113 6 -16 11 -49 11 -74 0 -40
-5 -50 -40 -86 l-41 -40 -69 6 c-107 9 -169 47 -211 129 -37 73 -19 149 46
190 25 16 41 18 99 13 42 -3 82 -13 100 -25z m423 -52 c63 -29 109 -86 124
-152 10 -47 10 -61 -1 -82 -27 -50 -60 -74 -104 -75 -125 -3 -203 39 -247 136
-37 80 -18 149 52 183 50 25 109 21 176 -10z m1086 -5 c4 -2 7 -16 7 -31 1
-47 28 -184 39 -195 7 -7 26 4 65 36 54 47 86 57 116 37 13 -9 10 -14 -15 -36
-94 -81 -87 -72 -69 -99 9 -14 22 -29 28 -33 6 -4 40 -37 75 -74 l64 -68 -38
0 c-35 0 -45 7 -108 75 -40 43 -78 75 -89 75 -17 0 -19 -6 -17 -57 3 -57 2
-58 -25 -61 -36 -4 -43 3 -50 58 -9 70 -27 197 -41 290 -7 47 -11 88 -8 93 4
6 48 0 66 -10z m-839 -20 c4 -5 43 -8 86 -9 63 -1 85 -5 115 -24 34 -21 42
-22 82 -12 82 22 174 -9 212 -71 16 -26 41 -179 41 -247 0 -14 -57 -13 -65 1
-4 6 -13 60 -21 120 -7 60 -16 114 -19 119 -10 16 -67 40 -95 40 -52 0 -64
-19 -57 -96 3 -38 9 -90 13 -116 l7 -48 -32 0 c-38 0 -45 15 -55 120 -4 41
-14 89 -21 107 -24 56 -114 83 -149 44 -15 -17 -15 -26 -1 -126 8 -60 15 -110
15 -112 0 -2 -17 -3 -37 -1 l-38 3 -11 85 c-6 47 -14 118 -18 158 -7 71 -7 72
17 72 13 0 27 -3 31 -7z m2115 -142 c8 -5 19 -38 26 -73 l11 -63 70 0 c122 -1
161 -44 189 -210 20 -120 21 -117 -17 -113 l-32 3 -21 113 c-26 132 -45 162
-106 162 -35 0 -69 -20 -69 -40 0 -4 7 -44 15 -87 22 -114 21 -123 -14 -123
-37 0 -33 -14 -85 303 l-22 137 20 0 c12 0 27 -4 35 -9z m-775 -22 c52 -14
123 -86 132 -134 3 -20 3 -40 -2 -45 -8 -8 -83 -2 -201 14 -48 7 -44 -23 10
-69 38 -33 46 -36 87 -31 105 12 105 12 108 -10 6 -40 -73 -56 -166 -32 -65
16 -134 86 -151 152 -16 64 -7 99 35 136 38 33 78 38 148 19z m607 -95 c44
-30 73 -70 65 -90 -7 -19 -33 -8 -83 38 -47 42 -98 51 -127 22 -21 -21 -21
-96 1 -141 33 -70 119 -95 163 -48 31 33 64 30 68 -7 4 -33 -29 -57 -86 -65
-77 -10 -175 44 -211 116 -42 82 -34 156 21 196 35 25 140 14 189 -21z m1477
-53 c12 -7 91 -356 92 -405 0 -15 -5 -17 -27 -11 -16 3 -52 6 -81 5 -71 -2
-111 13 -155 58 -70 72 -90 180 -42 228 23 23 32 25 83 21 31 -3 66 -6 77 -8
21 -4 21 -5 9 79 -6 37 -4 42 12 42 11 0 25 -4 32 -9z m-762 -27 c55 -26 71
-53 94 -159 11 -55 25 -104 31 -109 18 -19 9 -36 -20 -36 -17 0 -32 4 -35 9
-3 5 -32 7 -65 4 -70 -7 -118 8 -154 45 -40 42 -45 85 -14 116 23 23 34 26
102 26 41 0 75 4 75 9 0 23 -15 43 -41 56 -39 21 -72 19 -99 -5 -27 -24 -48
-23 -64 3 -9 15 -6 23 18 44 27 23 35 24 85 18 31 -4 70 -13 87 -21z m370 -48
c51 -26 63 -47 88 -157 13 -57 27 -112 31 -121 6 -15 2 -18 -22 -18 -16 0 -33
4 -39 10 -5 5 -24 6 -46 1 -90 -21 -198 41 -198 112 0 18 4 37 8 44 14 22 66
35 119 28 64 -8 76 -2 62 29 -20 43 -112 63 -139 31 -16 -20 -44 -19 -61 1
-12 14 -9 20 16 41 26 23 35 25 89 20 34 -3 75 -12 92 -21z m1078 -7 c40 -31
114 -132 142 -194 30 -66 42 -179 25 -242 -14 -51 -55 -103 -82 -103 -26 0
-24 19 6 71 64 113 6 314 -132 457 -33 34 0 43 41 11z m-394 -70 c80 -17 113
-55 134 -159 10 -47 25 -100 32 -119 l14 -33 -38 6 c-20 4 -63 6 -95 6 -103
-2 -162 33 -173 101 -4 25 -1 41 13 58 17 21 27 23 96 22 42 -1 77 1 77 3 0 3
-5 16 -11 29 -20 44 -85 60 -127 31 -28 -19 -66 -15 -70 8 -2 11 9 25 30 38
38 23 49 24 118 9z m305 -41 c43 -3 50 -6 53 -25 2 -13 0 -23 -5 -24 -39 -3
-67 -9 -74 -16 -5 -5 1 -51 11 -102 26 -122 26 -123 -7 -119 -30 3 -31 5 -72
185 -27 119 -28 116 12 109 17 -3 55 -7 82 -8z m-5176 -127 c53 -28 72 -62 78
-140 2 -36 8 -90 13 -120 6 -30 10 -58 10 -63 0 -12 -32 -9 -61 6 -14 7 -40
11 -57 8 -29 -4 -32 -2 -32 22 0 19 7 29 25 36 20 8 25 16 25 45 0 29 -5 37
-25 45 -15 6 -25 17 -25 30 0 15 7 20 25 20 14 0 25 2 25 5 0 14 -32 65 -40
65 -6 0 -10 14 -10 30 0 35 0 35 49 11z m198 -16 c11 -8 24 -27 28 -42 3 -15
17 -50 29 -78 13 -27 26 -58 29 -67 13 -39 33 -15 62 75 29 89 31 92 60 92 28
0 33 -7 82 -105 68 -135 80 -135 103 0 14 84 24 96 65 80 29 -11 29 -8 10 -80
-62 -247 -57 -235 -92 -238 -33 -3 -33 -3 -89 117 -31 67 -60 121 -64 121 -6
0 -37 -89 -65 -188 -6 -19 -12 -23 -42 -20 -34 3 -36 5 -83 108 -26 58 -57
126 -69 152 -36 79 -20 112 36 73z m1211 0 c2 -2 11 -55 19 -117 8 -62 18
-117 23 -122 5 -5 36 13 73 43 56 44 69 50 96 45 17 -4 31 -12 31 -18 -1 -6
-26 -31 -55 -56 -30 -24 -55 -49 -55 -55 0 -6 42 -53 93 -105 71 -73 88 -95
74 -98 -38 -8 -67 10 -140 84 -42 42 -81 74 -89 72 -9 -3 -13 -24 -13 -64 0
-57 -1 -59 -29 -62 -16 -2 -32 0 -37 5 -8 8 -40 235 -55 392 l-7 74 33 -7 c19
-3 36 -8 38 -11z m-400 -99 c23 -14 46 -34 51 -45 6 -11 18 -66 26 -123 8 -56
18 -113 21 -125 6 -21 3 -23 -28 -23 -19 0 -39 5 -44 10 -7 7 -25 8 -52 2 -78
-18 -167 13 -206 72 -20 31 -20 49 -1 85 18 37 80 53 164 45 53 -6 61 -5 61
10 0 10 -13 31 -29 47 -36 35 -86 39 -124 9 -26 -21 -44 -24 -71 -14 -26 10
-18 41 17 64 46 30 157 23 215 -14z m935 -90 c57 -21 105 -62 132 -116 68
-133 -17 -241 -165 -209 -129 28 -214 168 -165 273 29 61 110 83 198 52z
m1075 5 c16 -9 28 -59 37 -153 10 -96 24 -103 83 -45 40 39 54 47 85 47 45 0
49 -18 10 -52 -16 -13 -39 -36 -51 -50 -23 -25 -23 -27 -5 -45 10 -10 51 -54
92 -96 l74 -77 -36 0 c-32 0 -45 9 -109 75 -40 43 -79 74 -88 73 -11 -3 -15
-17 -15 -63 0 -52 -3 -60 -20 -63 -11 -1 -25 1 -32 6 -6 4 -26 97 -43 207 -17
110 -33 210 -35 223 -4 18 -1 22 17 22 13 0 29 -4 36 -9z m-562 -61 c35 0 55
-4 64 -15 20 -24 5 -45 -32 -45 -65 0 -67 -11 -42 -207 7 -51 6 -53 -17 -53
-13 0 -29 4 -36 8 -10 6 -53 257 -53 309 0 12 7 14 33 8 17 -3 55 -6 83 -5z
m276 -30 c102 -16 182 -90 199 -183 9 -50 -12 -109 -46 -131 -34 -22 -130 -20
-181 3 -71 32 -134 126 -134 200 0 35 28 80 63 101 37 23 28 22 99 10z m1407
-67 c5 -21 17 -81 26 -133 9 -52 23 -125 31 -162 8 -37 14 -79 14 -94 0 -24
-3 -26 -27 -19 -16 4 -50 7 -78 6 -27 -1 -69 3 -91 10 -113 30 -185 208 -118
288 22 27 32 31 75 31 28 0 63 -7 78 -15 36 -18 41 -13 30 33 -5 20 -9 49 -9
65 0 23 4 27 30 27 26 0 30 -5 39 -37z m168 -48 c7 -33 18 -64 23 -69 5 -5 34
-9 64 -7 107 5 152 -45 185 -204 26 -125 26 -125 -3 -125 -35 0 -42 14 -65
130 -17 85 -26 109 -46 127 -36 32 -70 38 -100 19 -30 -20 -30 -27 -5 -146 14
-67 17 -96 9 -101 -13 -7 -47 -1 -54 11 -4 7 -59 279 -79 393 l-7 38 32 -3
c31 -3 33 -6 46 -63z m-777 13 c67 -34 137 -150 103 -171 -5 -3 -57 0 -116 7
-59 7 -110 9 -113 4 -9 -14 34 -74 61 -86 33 -15 100 -15 124 0 40 24 71 -20
34 -48 -27 -20 -131 -17 -178 5 -94 44 -140 136 -119 241 14 67 117 91 204 48z
m1931 -293 c26 -115 45 -213 42 -217 -7 -13 -40 -9 -52 6 -6 7 -24 76 -40 152
-35 168 -50 233 -57 257 -5 16 -1 18 28 15 l33 -3 46 -210z m-638 152 c80 -34
137 -118 137 -203 0 -37 -5 -51 -29 -75 -25 -24 -37 -29 -81 -29 -124 0 -220
92 -220 212 0 43 5 57 27 80 23 24 35 28 80 28 30 0 68 -6 86 -13z m370 -38
c74 -20 146 -122 147 -206 0 -31 -7 -50 -27 -73 -26 -31 -29 -32 -93 -28 -79
4 -129 32 -174 97 -50 72 -46 183 7 209 29 14 93 15 140 1z m703 -85 c34 -16
74 -61 74 -83 0 -21 -37 -11 -67 18 -39 37 -89 49 -111 27 -24 -24 -5 -47 54
-69 122 -45 164 -79 164 -135 0 -75 -159 -79 -234 -6 -20 19 -36 41 -36 49 0
23 48 18 60 -6 20 -37 119 -65 135 -38 4 5 4 20 1 33 -4 17 -24 30 -89 54 -46
17 -93 42 -106 56 -28 30 -31 84 -6 102 26 19 120 17 161 -2z m-5655 -14 c15
-8 19 -22 19 -58 0 -88 1 -89 88 -88 64 1 83 -3 115 -23 53 -32 66 -65 83
-203 16 -127 14 -138 -26 -138 -32 0 -40 18 -50 120 -15 143 -15 145 -55 176
-28 21 -41 25 -70 20 -60 -12 -69 -28 -61 -125 4 -47 9 -102 12 -123 l7 -38
-37 0 c-29 0 -38 5 -45 23 -11 26 -51 448 -44 460 6 10 41 9 64 -3z m5980 -21
c43 -23 77 -78 94 -155 9 -44 24 -91 31 -106 22 -43 18 -51 -18 -43 -18 4 -59
6 -91 6 -80 -2 -139 26 -165 80 -37 75 -5 109 100 109 77 0 83 8 41 52 -30 32
-82 38 -103 13 -7 -8 -25 -15 -41 -15 -38 0 -39 31 -2 60 24 19 35 21 83 15
30 -4 62 -11 71 -16z m191 -21 c9 -7 26 -53 37 -103 12 -49 30 -124 41 -165
24 -91 25 -114 4 -134 -19 -20 -78 -21 -94 -1 -13 16 -6 35 14 35 33 0 33 22
-1 163 -46 193 -49 217 -31 217 8 0 21 -6 30 -12z m291 -32 c51 -21 74 -55 97
-141 12 -44 29 -95 36 -113 8 -18 14 -37 14 -42 0 -11 -43 -14 -54 -3 -3 4
-39 7 -79 7 -60 1 -78 5 -102 24 -38 30 -54 59 -55 98 0 45 22 59 99 60 36 1
66 5 68 11 6 17 -35 60 -64 67 -19 5 -34 1 -54 -13 -38 -28 -69 -28 -69 1 0
38 28 58 82 58 27 0 63 -6 81 -14z m-6661 -68 c47 -33 97 -156 71 -171 -5 -2
-43 0 -85 6 -77 9 -78 10 -78 38 0 26 2 27 36 22 34 -6 35 -5 32 23 -2 19 -13
35 -35 49 -30 18 -43 52 -27 68 8 8 50 -9 86 -35z m637 -44 c19 -13 30 -15 60
-6 71 20 161 -9 197 -63 17 -27 56 -259 47 -282 -3 -7 -18 -13 -34 -13 -37 0
-44 17 -53 127 -4 46 -11 97 -16 113 -17 60 -79 85 -146 60 l-27 -10 8 -98
c13 -165 14 -157 -19 -160 -16 -2 -33 1 -38 6 -9 9 -37 237 -38 305 0 42 19
49 59 21z m613 -70 c45 -29 84 -86 93 -135 8 -45 0 -49 -85 -38 -110 13 -173
14 -177 2 -6 -18 26 -61 62 -83 39 -24 95 -26 136 -5 22 12 34 13 49 5 27 -14
25 -24 -6 -49 -21 -16 -41 -21 -91 -21 -74 0 -125 19 -171 63 -48 46 -65 84
-66 149 -1 66 20 102 75 131 45 24 129 15 181 -19z m413 -28 c14 -10 39 -13
90 -9 128 8 168 -34 197 -211 23 -147 25 -138 -19 -134 l-38 3 -17 125 c-16
110 -21 128 -43 148 -58 50 -151 16 -141 -51 19 -113 26 -188 21 -197 -8 -13
-52 -13 -61 1 -6 10 -28 148 -41 256 -9 79 8 102 52 69z m1005 -26 c11 -11 20
-29 20 -40 0 -15 9 -22 30 -27 30 -5 56 -34 43 -47 -3 -3 -17 -6 -29 -6 -13 0
-25 -4 -28 -9 -6 -8 18 -164 30 -204 3 -11 21 -25 40 -33 23 -10 34 -21 34
-35 0 -20 -4 -21 -46 -16 -83 9 -90 23 -132 252 -6 33 -13 43 -45 58 -46 22
-49 45 -4 49 29 3 32 6 29 32 -5 45 25 59 58 26z m-418 -41 c51 -26 67 -54 85
-151 8 -46 21 -104 28 -130 l13 -48 -34 0 c-18 0 -36 5 -39 10 -4 6 -33 8 -74
4 -85 -8 -130 6 -171 52 -29 34 -40 84 -22 110 18 27 75 46 136 44 101 -4 104
-1 58 51 -23 25 -36 32 -71 33 -31 0 -47 -4 -56 -18 -16 -21 -60 -25 -78 -7
-16 16 1 42 44 64 41 22 123 15 181 -14z m657 -86 c6 -21 15 -72 21 -113 5
-41 15 -87 21 -101 12 -30 46 -49 89 -49 58 0 70 38 50 156 -23 133 -23 124 2
124 13 0 29 -4 36 -8 15 -10 67 -295 58 -318 -5 -12 -13 -14 -34 -9 -15 4 -56
6 -92 5 -73 -1 -113 10 -149 43 -31 29 -38 49 -56 164 -9 54 -18 108 -21 120
-6 21 -3 23 30 23 32 0 36 -3 45 -37z m627 -28 c92 -2 130 -19 169 -75 53 -76
63 -146 34 -221 -18 -45 -81 -61 -148 -38 -49 17 -59 8 -51 -49 8 -62 4 -72
-25 -72 -29 0 -40 19 -49 85 -7 52 -28 168 -52 293 -15 82 -12 97 20 87 11 -4
57 -9 102 -10z m1358 -24 c3 -9 14 -61 25 -116 11 -55 29 -143 40 -195 27
-125 27 -122 -11 -118 l-33 3 -32 155 c-59 284 -58 281 -44 290 19 11 49 1 55
-19z m-894 -21 c20 -5 50 -22 68 -37 29 -25 35 -39 57 -143 14 -63 28 -126 31
-139 7 -23 5 -23 -27 -16 -19 4 -65 7 -102 6 -90 -2 -149 24 -178 80 -40 79 0
123 114 124 82 0 92 11 49 55 -36 36 -77 39 -115 10 -44 -34 -86 -23 -72 20
14 43 96 62 175 40z m258 -100 c24 -41 50 -90 58 -107 8 -18 19 -33 24 -33 10
0 12 8 30 105 17 90 19 95 44 95 25 0 51 -23 43 -37 -3 -4 -17 -69 -31 -143
-37 -185 -45 -215 -67 -239 -27 -29 -94 -29 -109 -1 -9 17 -8 21 7 26 50 16
62 25 68 53 6 26 -4 49 -61 149 -77 133 -114 201 -114 208 0 3 15 4 32 2 29
-3 38 -12 76 -78z m439 21 c52 -24 69 -50 88 -137 9 -38 23 -92 31 -120 7 -28
14 -54 14 -57 0 -11 -55 -8 -66 3 -8 8 -25 8 -56 1 -63 -14 -114 2 -160 51
-80 83 -35 148 103 148 67 0 76 14 34 55 -31 32 -89 34 -121 4 -45 -42 -92 3
-49 47 20 20 34 24 82 24 35 0 74 -8 100 -19z m-4039 -269 c7 -5 15 -38 19
-75 7 -78 18 -92 59 -77 50 19 155 -11 196 -56 9 -11 26 -41 38 -69 18 -40 21
-63 17 -115 -5 -58 -8 -67 -41 -97 -30 -28 -43 -33 -85 -33 -26 0 -66 6 -87
13 -22 8 -58 12 -80 9 -23 -2 -44 0 -47 5 -3 5 -11 53 -17 108 -15 129 -39
366 -40 383 0 13 48 16 68 4z m-621 -97 c16 -11 28 -13 48 -5 73 28 184 -9
216 -71 18 -36 52 -273 42 -291 -7 -13 -60 -9 -70 5 -6 6 -15 64 -22 127 -12
123 -25 154 -75 178 -33 16 -77 8 -102 -19 -16 -17 -16 -30 -7 -137 6 -64 8
-123 6 -129 -3 -7 -18 -13 -33 -13 -15 0 -32 6 -38 13 -11 14 -45 333 -37 347
9 15 48 12 72 -5z m1531 -48 c6 -6 13 -24 17 -40 5 -19 16 -29 39 -35 41 -11
51 -52 12 -52 -14 0 -27 -4 -30 -8 -8 -14 14 -194 27 -222 7 -14 22 -26 34
-28 12 -2 27 -10 34 -18 10 -12 9 -18 -4 -31 -15 -15 -21 -15 -63 -2 -67 21
-80 44 -101 188 l-18 125 -35 9 c-19 5 -38 14 -42 20 -11 18 12 37 43 37 26 0
29 3 23 24 -3 14 -3 30 1 35 9 15 50 14 63 -2z m-296 -48 c73 -16 112 -57 126
-129 17 -93 33 -194 35 -215 3 -26 -24 -30 -66 -10 -26 12 -40 13 -61 5 -45
-17 -99 -12 -152 15 -81 40 -102 115 -47 167 21 20 37 23 120 26 l95 4 -7 26
c-16 67 -120 91 -164 38 -17 -20 -67 -21 -75 -1 -8 22 1 37 37 63 36 25 79 28
159 11z m736 -87 c45 -35 54 -67 95 -312 3 -19 -48 -26 -68 -10 -11 9 -27 9
-64 1 -56 -12 -138 4 -170 33 -35 32 -51 79 -41 117 14 49 42 62 139 66 47 2
86 5 88 7 10 10 -20 57 -46 71 -41 21 -73 19 -105 -6 -26 -20 -70 -29 -83 -16
-12 13 9 57 35 72 20 12 46 15 106 11 68 -4 83 -8 114 -34z m398 -23 c49 -30
61 -58 83 -180 11 -63 23 -124 27 -136 6 -21 3 -23 -28 -23 -19 0 -39 5 -45
11 -7 7 -23 7 -54 -1 -115 -31 -233 47 -215 143 9 50 47 67 144 67 45 0 83 4
86 8 11 19 -34 71 -69 81 -41 11 -60 7 -91 -21 -29 -26 -78 -21 -82 8 -3 20
22 44 68 66 26 13 143 -3 176 -23z m190 -21 c11 -13 42 -67 69 -122 55 -111
65 -112 85 -7 25 124 28 131 61 131 16 0 32 -6 35 -14 3 -8 -11 -79 -32 -158
-20 -79 -40 -159 -44 -178 -11 -59 -40 -107 -70 -120 -57 -23 -126 16 -84 47
10 7 25 13 35 13 21 0 35 17 44 53 6 22 -5 50 -60 150 -69 124 -115 213 -115
222 0 16 59 2 76 -17z m567 -51 c45 -34 74 -82 83 -136 l7 -44 -69 7 c-38 3
-95 9 -126 12 -65 7 -73 -3 -42 -52 33 -49 107 -71 166 -47 44 18 68 12 68
-17 0 -33 -61 -54 -134 -46 -181 19 -277 235 -149 336 24 19 38 21 94 18 53
-3 73 -9 102 -31z m1177 -43 c4 -22 12 -30 30 -32 52 -8 69 -48 23 -54 -27 -3
-28 -5 -25 -50 5 -75 35 -180 55 -190 9 -4 25 -12 35 -17 28 -14 20 -36 -15
-39 -42 -4 -91 22 -104 56 -6 15 -19 72 -30 126 -21 105 -30 126 -59 126 -22
0 -44 25 -35 40 3 5 17 10 31 10 21 0 24 5 24 34 0 19 6 36 13 39 21 8 52 -19
57 -49z m-608 1 c41 -31 57 -67 82 -182 13 -60 26 -116 31 -125 10 -26 -22
-35 -55 -16 -19 11 -33 12 -51 6 -43 -17 -136 -3 -174 26 -43 33 -65 94 -46
130 20 36 54 49 134 50 66 1 72 3 69 21 -10 63 -98 91 -146 46 -30 -28 -70
-25 -74 5 -2 14 7 29 25 44 24 19 38 21 103 18 55 -2 82 -8 102 -23z m375 -28
c51 -27 64 -51 87 -169 13 -62 28 -123 34 -134 6 -12 8 -24 5 -28 -11 -11 -49
-6 -68 8 -15 10 -25 11 -39 4 -27 -14 -131 -3 -162 17 -31 20 -64 73 -64 103
0 13 13 37 29 53 27 27 35 29 105 29 42 0 76 4 76 10 0 23 -24 59 -47 69 -38
18 -75 13 -102 -13 -20 -19 -31 -22 -48 -15 -31 11 -29 43 5 69 24 19 35 22
94 17 36 -3 79 -12 95 -20z m426 -28 c22 -10 28 -26 56 -167 19 -96 27 -160
22 -165 -14 -14 -59 0 -65 21 -15 51 -56 297 -52 308 6 17 9 17 39 3z m1585
-54 c17 -70 92 -392 92 -398 0 -3 -47 -4 -105 -3 -100 2 -107 4 -142 33 -95
76 -129 239 -60 288 25 17 109 20 139 4 11 -6 21 -9 23 -7 4 3 -12 92 -21 121
-5 16 -1 18 28 15 31 -3 34 -7 46 -53z m-1251 13 c11 -13 34 -50 50 -83 45
-88 67 -125 75 -125 10 0 16 24 28 114 11 88 15 96 38 96 45 -1 45 -8 13 -198
-17 -100 -35 -192 -40 -205 -15 -40 -40 -57 -81 -57 -30 0 -40 4 -45 21 -8 24
-2 32 28 36 28 4 47 30 47 62 0 26 -10 45 -118 232 -34 58 -62 111 -62 118 0
19 46 12 67 -11z m483 -38 c54 -27 67 -51 90 -161 11 -52 25 -106 31 -121 6
-15 8 -31 5 -36 -7 -11 -44 -5 -63 10 -7 6 -19 5 -32 -1 -31 -17 -103 -13
-141 8 -42 22 -80 74 -80 111 0 16 10 36 26 51 21 20 38 24 100 27 41 2 74 6
74 8 0 20 -29 56 -55 69 -44 20 -48 19 -84 -11 -34 -28 -58 -29 -75 -1 -9 15
-6 23 17 43 37 32 128 34 187 4z m360 -30 c54 -27 65 -48 95 -170 13 -58 28
-115 31 -127 6 -20 3 -23 -23 -23 -16 0 -33 4 -39 10 -6 6 -20 6 -40 -2 -49
-18 -122 -2 -160 36 -86 86 -41 174 84 164 59 -5 72 5 52 41 -11 22 -59 51
-84 51 -8 0 -28 -12 -45 -26 -21 -17 -37 -23 -51 -19 -27 9 -26 50 2 69 33 23
129 21 178 -4z m762 -76 c116 -81 143 -255 47 -294 -75 -31 -191 15 -236 95
-50 88 -52 151 -5 206 24 30 28 31 89 27 49 -3 71 -10 105 -34z m183 2 c13
-10 27 -11 49 -5 70 21 147 -12 179 -76 14 -27 67 -222 67 -245 0 -14 -46 -12
-57 3 -5 6 -20 57 -32 112 -28 120 -33 130 -71 150 -39 20 -63 19 -85 -5 -17
-19 -17 -24 8 -129 15 -60 27 -112 27 -115 0 -3 -13 -6 -30 -6 -25 0 -30 5
-39 38 -72 272 -75 321 -16 278z m-6365 -116 c151 -11 489 -36 750 -55 261
-20 630 -47 820 -60 190 -14 460 -34 600 -45 140 -10 359 -26 485 -35 127 -8
253 -17 281 -20 l51 -6 12 -91 c9 -67 9 -94 0 -104 -17 -21 39 -340 62 -355
10 -6 34 -127 27 -135 -2 -1 -176 8 -388 21 -212 13 -438 27 -502 31 -105 6
-141 15 -107 26 31 10 25 103 -28 433 -7 45 -11 50 -41 56 -18 4 -35 3 -37 -1
-3 -5 6 -90 20 -190 33 -243 33 -247 -7 -258 -26 -7 -32 -14 -31 -30 3 -26 12
-25 -167 -12 -74 5 -216 14 -315 20 -330 19 -668 40 -832 50 -90 5 -238 15
-330 20 -93 6 -271 17 -398 25 -126 8 -247 15 -267 15 l-38 0 0 83 c0 46 2 86
5 89 3 3 27 -5 53 -18 43 -21 55 -23 114 -16 79 10 111 29 139 84 39 76 8 198
-63 251 -65 48 -89 56 -171 52 l-77 -4 0 106 0 105 53 -6 c28 -4 176 -15 327
-26z m-212 -247 c43 -28 60 -54 73 -110 19 -84 -14 -140 -89 -150 -81 -11
-152 65 -152 161 0 47 4 58 31 85 36 36 93 42 137 14z m3900 -75 c6 -7 20 -65
31 -127 12 -63 26 -120 32 -125 7 -8 26 6 64 47 43 45 61 57 84 57 16 0 33 -5
36 -10 3 -6 -17 -37 -45 -70 -29 -32 -50 -63 -49 -69 2 -5 44 -51 93 -101 62
-64 85 -95 78 -102 -22 -22 -68 4 -138 79 -54 57 -76 74 -89 69 -15 -6 -17
-15 -12 -71 l6 -65 -34 0 c-38 0 -33 -14 -71 205 -10 55 -25 141 -34 190 -10
50 -15 93 -13 98 7 12 50 8 61 -5z m-514 -99 c3 -3 7 -16 8 -29 3 -22 -2 -25
-40 -31 -68 -9 -70 -18 -37 -181 17 -81 14 -102 -12 -106 -22 -3 -27 13 -58
211 -24 153 -28 143 60 142 41 -1 77 -3 79 -6z m291 -28 c78 -35 137 -127 136
-213 0 -113 -90 -165 -212 -123 -55 20 -89 49 -121 106 -49 85 -43 176 15 225
36 30 121 33 182 5z m777 -52 c61 -31 70 -49 104 -199 13 -58 26 -115 30 -127
5 -19 3 -23 -18 -23 -13 0 -33 6 -43 14 -15 11 -25 11 -39 4 -11 -6 -43 -11
-72 -12 -89 -1 -174 75 -159 144 11 51 53 73 145 74 47 1 55 4 58 21 4 27 -35
63 -75 71 -25 5 -37 1 -56 -18 -32 -32 -56 -41 -73 -27 -23 19 -16 46 19 74
29 24 38 26 94 21 35 -3 73 -10 85 -17z m396 -31 c9 -9 20 -9 48 1 43 15 95 8
143 -21 32 -20 34 -20 63 -3 23 13 43 16 83 12 90 -9 134 -54 154 -157 6 -30
17 -85 25 -122 7 -37 11 -70 8 -73 -3 -3 -16 -5 -29 -5 -29 0 -36 16 -64 153
-19 93 -26 111 -51 132 -59 50 -125 20 -115 -52 5 -44 25 -158 32 -190 5 -20
1 -23 -28 -23 l-34 0 -17 85 c-37 185 -59 219 -133 213 -56 -5 -60 -22 -39
-140 25 -142 25 -142 -3 -146 -13 -2 -27 0 -32 5 -9 9 -50 199 -64 296 -7 45
-6 47 17 47 13 0 29 -5 36 -12z m799 -67 c45 -33 59 -64 91 -201 11 -47 23
-93 27 -102 6 -15 2 -18 -22 -18 -16 0 -34 5 -40 11 -8 8 -17 8 -31 0 -30 -16
-109 -13 -148 5 -72 34 -99 129 -49 172 22 18 38 22 96 22 63 0 69 2 69 20 0
12 -11 32 -25 45 -32 33 -99 35 -117 5 -22 -35 -84 -19 -71 19 13 36 46 51
114 51 57 0 71 -4 106 -29z m318 -2 c73 -21 98 -58 133 -205 18 -72 32 -134
32 -137 0 -12 -49 -7 -62 6 -10 11 -18 11 -47 1 -49 -18 -69 -17 -117 5 -84
38 -115 132 -59 178 25 19 40 24 85 22 30 -1 61 -1 68 0 22 2 13 32 -19 62
-40 37 -80 38 -112 3 -27 -29 -54 -29 -71 -1 -9 15 -5 23 22 48 36 32 77 37
147 18z m307 -20 c75 2 77 2 117 -34 43 -39 57 -75 93 -238 17 -73 13 -83 -29
-75 -17 3 -28 38 -69 217 -7 34 -58 81 -87 81 -14 0 -35 -8 -47 -18 l-23 -18
26 -120 c13 -65 23 -122 20 -126 -5 -10 -34 -10 -50 0 -16 10 -79 296 -74 336
1 4 11 5 24 1 12 -4 57 -7 99 -6z m411 -30 c46 -13 112 -70 136 -118 24 -47
34 -121 22 -153 -18 -48 -50 -68 -105 -68 -92 1 -165 51 -207 145 -21 45 -25
116 -8 146 14 27 68 59 99 59 14 0 42 -5 63 -11z m-6817 -441 c50 -44 61 -76
73 -211 16 -183 18 -169 -31 -165 l-43 3 -12 120 c-22 222 -26 275 -20 275 4
0 18 -10 33 -22z m311 2 c104 2 137 -10 178 -64 28 -37 39 -88 50 -238 l7 -98
-35 0 c-19 0 -39 6 -45 13 -5 6 -13 62 -16 122 -10 163 -35 205 -122 205 -24
0 -43 -8 -59 -24 -24 -24 -25 -28 -18 -118 4 -51 8 -113 8 -138 0 -43 -1 -45
-31 -48 -17 -2 -35 3 -41 10 -10 13 -33 260 -33 347 l0 43 33 -7 c17 -4 73 -6
124 -5z m2823 -110 c30 -187 50 -314 56 -366 l6 -50 -108 -2 c-145 -1 -184 17
-245 115 -20 31 -24 51 -24 114 0 86 15 123 57 145 35 18 111 18 148 -1 16 -8
31 -11 34 -6 3 5 1 32 -4 61 -18 94 -15 102 27 98 l37 -3 16 -105z m-2215 70
c131 5 147 3 191 -20 42 -24 45 -24 73 -7 19 11 50 17 91 17 121 0 171 -58
185 -215 4 -44 10 -99 15 -122 4 -26 3 -46 -3 -52 -13 -13 -47 -14 -64 -3 -6
4 -18 67 -27 139 -9 73 -19 140 -22 148 -17 44 -119 60 -155 24 -18 -18 -21
-29 -15 -73 3 -28 9 -91 12 -139 l7 -88 -39 3 -39 3 -12 110 c-19 163 -23 176
-63 203 -27 18 -44 23 -74 19 -68 -9 -71 -18 -57 -164 15 -174 17 -163 -23
-163 -19 0 -38 5 -41 11 -5 7 -43 326 -45 373 0 4 17 5 38 2 20 -4 51 -7 67
-6z m3243 -37 c6 -10 13 -41 17 -70 9 -70 24 -90 55 -73 15 8 40 10 73 6 106
-15 177 -111 177 -242 0 -65 -2 -74 -30 -103 -26 -26 -37 -31 -79 -31 -27 0
-67 7 -89 14 -25 9 -44 11 -47 5 -10 -16 -53 -10 -59 9 -5 17 -73 393 -83 465
-5 36 -5 37 25 37 20 0 35 -7 40 -17z m-2348 -18 c59 -31 110 -112 110 -176
l0 -32 -140 7 c-126 6 -140 5 -140 -9 0 -21 34 -65 68 -87 33 -22 111 -24 138
-3 24 18 58 19 73 1 9 -11 4 -20 -24 -45 -32 -28 -42 -31 -98 -31 -86 0 -131
15 -171 56 -99 102 -101 261 -4 322 28 18 43 20 98 15 36 -3 76 -11 90 -18z
m243 -7 c10 -8 20 -39 27 -83 28 -192 38 -279 34 -287 -8 -13 -60 -9 -72 5 -5
6 -13 39 -16 72 -4 33 -14 109 -22 168 -9 60 -13 115 -10 123 7 17 37 18 59 2z
m201 -13 c13 -10 25 -11 43 -4 41 16 121 10 162 -11 27 -13 45 -32 59 -62 21
-46 59 -279 47 -297 -3 -6 -19 -11 -35 -11 -35 0 -41 18 -61 175 -11 87 -16
103 -40 127 -35 35 -98 39 -129 8 -24 -24 -24 -24 -4 -161 9 -60 13 -116 10
-124 -7 -18 -50 -20 -63 -2 -18 23 -60 333 -49 362 7 19 35 19 60 0z m1265
-83 c122 -75 155 -271 56 -332 -39 -24 -129 -27 -178 -7 -80 34 -138 120 -145
217 -3 45 0 61 20 90 51 75 154 89 247 32z m406 -12 c82 -39 129 -104 140
-194 7 -62 -21 -128 -64 -150 -42 -22 -133 -21 -179 3 -109 56 -161 194 -112
295 11 23 30 46 42 52 38 19 128 16 173 -6z m1025 -62 c42 -23 74 -64 66 -84
-9 -23 -38 -16 -71 16 -53 51 -135 51 -135 0 0 -25 18 -37 101 -66 96 -33 136
-64 145 -110 16 -86 -68 -127 -191 -93 -43 12 -119 81 -113 101 9 28 48 20 82
-16 30 -32 39 -36 83 -36 111 0 88 66 -36 106 -41 13 -89 36 -107 49 -63 48
-53 133 19 154 43 13 114 4 157 -21z m378 -25 c43 -32 57 -65 86 -193 13 -58
27 -113 31 -122 10 -25 -18 -33 -52 -16 -24 12 -34 12 -62 0 -57 -23 -128 -7
-173 37 -91 92 -41 181 102 181 33 0 60 4 60 9 0 30 -24 64 -54 76 -40 17 -70
9 -100 -24 -23 -26 -52 -27 -65 -3 -12 23 2 48 42 73 44 28 137 19 185 -18z
m506 -14 c5 -4 28 -6 51 -2 23 3 45 1 48 -4 12 -20 77 -340 77 -380 0 -60 -31
-93 -93 -100 -86 -10 -197 39 -181 80 6 17 44 24 44 9 0 -12 62 -32 97 -32 38
0 63 22 63 55 0 32 -10 36 -51 24 -75 -23 -159 24 -207 115 -21 41 -26 65 -27
123 0 62 3 75 24 97 13 14 33 27 45 29 30 5 99 -3 110 -14z m444 -38 c39 -27
45 -41 82 -181 15 -58 31 -115 35 -127 6 -20 4 -23 -22 -23 -16 0 -34 5 -41
12 -9 9 -18 9 -37 0 -38 -18 -106 -14 -145 7 -44 23 -82 93 -73 134 8 42 55
67 125 67 64 0 73 7 57 43 -23 51 -107 64 -135 22 -18 -27 -43 -32 -62 -13
-18 18 -15 33 15 63 26 25 32 27 98 23 54 -2 78 -9 103 -27z m159 -3 c13 -12
23 -25 23 -29 0 -4 20 -42 45 -83 25 -42 45 -81 45 -86 0 -6 7 -10 15 -10 18
0 22 20 29 124 3 44 9 83 13 87 4 4 21 5 36 2 29 -6 29 -6 22 -67 -3 -33 -12
-101 -20 -151 -8 -49 -17 -115 -20 -146 -3 -30 -15 -70 -26 -88 -18 -29 -23
-32 -62 -29 -38 3 -42 6 -45 31 -3 23 0 27 22 27 29 0 46 25 46 67 0 31 -2 34
-75 155 -73 123 -115 205 -108 212 12 12 37 6 60 -16z m465 -8 c21 -6 52 -24
69 -40 31 -28 35 -38 79 -205 10 -38 21 -78 25 -87 10 -26 -22 -35 -55 -16
-19 11 -32 12 -44 6 -22 -13 -94 -12 -127 0 -32 13 -77 65 -85 99 -9 36 7 75
36 90 14 7 51 13 83 13 63 0 77 12 57 49 -15 28 -67 54 -95 47 -12 -3 -30 -17
-39 -31 -19 -28 -38 -32 -59 -10 -21 21 -10 54 27 76 35 21 73 24 128 9z
m-6024 -443 c6 -7 16 -68 22 -137 11 -115 21 -160 37 -160 4 0 34 29 68 65 57
60 65 65 103 65 24 0 42 -5 42 -11 0 -6 -27 -41 -60 -77 -33 -37 -60 -72 -60
-78 0 -6 43 -57 95 -114 52 -57 95 -106 95 -110 0 -27 -83 -18 -104 11 -7 10
-41 48 -75 84 -82 87 -95 85 -99 -17 -3 -82 -11 -94 -58 -82 -17 4 -25 15 -29
38 -5 29 -29 251 -40 376 -3 30 -8 74 -11 97 -3 24 -2 47 1 53 9 14 61 12 73
-3z m-504 -161 c20 -15 41 -36 46 -47 6 -11 18 -75 26 -144 8 -68 19 -136 24
-150 15 -38 4 -48 -44 -41 -22 4 -54 6 -71 5 -80 -5 -163 -3 -188 4 -33 9 -87
80 -87 116 0 36 33 87 69 106 19 9 62 16 113 18 78 2 83 3 86 25 2 14 -7 33
-27 52 -41 42 -97 42 -144 0 -59 -51 -120 -31 -86 28 26 47 74 64 166 60 70
-4 86 -8 117 -32z m235 10 c17 -9 32 -11 42 -5 8 5 33 9 56 9 32 0 45 -5 53
-19 17 -32 2 -51 -39 -51 -20 0 -47 -7 -60 -17 -23 -16 -24 -18 -16 -112 5
-53 9 -121 9 -151 1 -55 1 -55 -31 -58 -26 -3 -35 1 -42 20 -12 27 -43 377
-35 389 8 13 31 11 63 -5z m901 -41 c58 -30 110 -112 110 -174 l0 -44 -134 6
c-156 7 -171 1 -133 -53 26 -39 80 -70 122 -70 17 0 47 9 68 20 68 37 105 -1
51 -51 -23 -22 -34 -24 -114 -24 -82 0 -91 2 -131 30 -69 49 -102 104 -107
179 -9 137 68 214 198 199 25 -3 56 -11 70 -18z m459 -17 c15 -9 25 -9 46 0
35 16 108 15 150 -3 124 -51 176 -269 86 -359 -28 -28 -37 -31 -94 -31 -34 0
-75 2 -92 5 l-30 5 3 -50 c2 -27 5 -57 8 -66 6 -21 -21 -49 -47 -49 -11 0 -24
10 -29 23 -9 20 -70 471 -70 516 0 24 38 29 69 9z m669 -27 c108 -56 159 -190
112 -298 -27 -64 -68 -87 -155 -87 -71 1 -108 17 -158 73 -54 60 -70 98 -71
166 -1 68 26 124 72 149 41 21 155 20 200 -3z m2309 11 c6 -4 15 -22 20 -41 7
-26 16 -36 43 -45 40 -13 49 -48 15 -54 -11 -2 -23 -7 -27 -11 -9 -8 27 -213
42 -241 6 -12 21 -20 35 -20 25 0 51 -32 40 -50 -10 -16 -74 -12 -106 7 -15 9
-33 28 -38 42 -12 28 -35 138 -46 211 -8 54 -18 68 -53 72 -40 4 -44 45 -5 50
26 3 28 5 25 46 -3 38 -2 42 20 42 12 0 28 -4 35 -8z m-1880 -19 c150 -55 210
-273 99 -364 -52 -44 -179 -32 -247 22 -123 97 -118 310 7 349 30 9 107 5 141
-7z m281 -15 c5 -7 19 -69 30 -138 58 -349 58 -346 14 -380 -25 -20 -77 -26
-98 -12 -6 4 -13 15 -17 24 -5 14 2 21 28 32 19 8 35 21 36 28 2 29 -3 80 -26
223 -39 253 -39 235 -6 235 16 0 33 -6 39 -12z m370 -17 c62 -31 71 -50 103
-197 39 -184 39 -178 9 -182 -14 -2 -34 3 -44 11 -16 12 -25 12 -60 0 -51 -18
-119 -10 -163 20 -32 22 -63 74 -63 107 0 66 73 114 167 108 69 -4 80 13 36
61 -42 46 -82 50 -125 12 -39 -34 -69 -39 -89 -15 -16 20 -4 41 41 72 43 29
134 31 188 3z m430 -14 c15 -18 84 -437 77 -467 -11 -43 -34 -60 -81 -60 -33
0 -46 5 -54 20 -13 24 -6 40 19 40 24 0 41 20 41 49 0 15 -16 113 -35 220 -19
107 -32 198 -29 203 8 13 50 10 62 -5z m370 -16 c79 -41 135 -134 135 -227 0
-113 -77 -166 -206 -140 -75 14 -154 111 -167 205 -10 72 3 112 46 150 30 27
42 31 95 31 39 0 73 -7 97 -19z m858 -47 c41 -33 84 -107 87 -150 l2 -29 -110
-2 c-60 -1 -116 -2 -122 -2 -25 -2 -12 -37 27 -73 33 -32 47 -38 83 -38 24 0
52 7 63 15 25 19 48 19 64 -1 11 -13 9 -19 -12 -41 -51 -50 -169 -41 -242 19
-81 66 -112 206 -63 279 32 47 62 60 129 56 46 -3 65 -9 94 -33z m251 15 c54
2 62 -1 68 -18 9 -29 1 -38 -44 -45 -27 -4 -42 -12 -46 -25 -3 -10 6 -74 20
-141 14 -68 25 -127 25 -131 0 -12 -57 -11 -65 0 -6 11 -36 145 -61 274 -16
85 -13 103 20 91 11 -4 49 -6 83 -5z m171 -7 c16 -11 25 -42 58 -207 14 -74
24 -141 20 -150 -8 -21 -53 -19 -60 3 -13 40 -66 309 -66 335 0 28 20 36 48
19z m-3991 -634 c9 -11 33 -196 70 -517 4 -39 2 -55 -8 -62 -34 -22 -70 -4
-75 37 -5 56 -15 139 -19 164 -2 14 -9 72 -15 130 -6 58 -15 136 -21 173 -5
38 -7 73 -3 78 8 13 60 11 71 -3z m212 -20 c5 -13 14 -72 21 -133 13 -124 19
-155 30 -155 5 0 39 32 76 70 66 68 88 79 128 64 9 -3 16 -10 16 -14 0 -5 -27
-37 -60 -72 -33 -35 -60 -70 -60 -80 0 -14 142 -183 183 -217 23 -19 12 -31
-29 -31 -37 0 -42 3 -157 128 -27 29 -52 52 -56 52 -24 0 -34 -33 -28 -100 l6
-70 -40 0 c-23 0 -41 5 -43 13 -2 6 -9 62 -16 122 -6 61 -20 167 -31 237 -10
70 -19 145 -19 167 0 40 1 41 35 41 27 0 37 -5 44 -22z m1667 -26 c6 -4 17
-39 24 -79 18 -98 18 -98 78 -82 92 23 170 -18 219 -115 33 -66 43 -170 20
-219 -28 -57 -52 -72 -116 -70 -151 6 -190 8 -195 14 -12 12 -97 539 -89 552
5 9 45 9 59 -1z m452 -14 c5 -7 13 -35 17 -63 6 -48 24 -115 29 -115 2 0 18 7
36 16 39 20 118 14 156 -13 14 -10 34 -37 45 -61 19 -45 55 -206 61 -277 3
-36 1 -40 -22 -43 -14 -1 -30 1 -37 6 -6 4 -21 64 -33 132 -24 140 -33 164
-72 193 -24 18 -32 19 -67 8 -66 -19 -66 -19 -30 -244 11 -67 11 -80 -2 -88
-8 -5 -19 -9 -26 -9 -19 0 -43 30 -43 54 0 12 -12 90 -26 172 -26 155 -54 323
-54 337 0 12 57 8 68 -5z m-3732 -104 c21 -17 46 -45 56 -63 25 -45 42 -121
28 -135 -6 -6 -65 -9 -155 -7 l-145 3 0 -25 c0 -50 81 -117 141 -117 12 0 46
12 76 27 l53 27 21 -20 20 -21 -30 -29 c-37 -35 -58 -42 -131 -43 -76 -1 -119
13 -168 55 -62 52 -85 110 -80 199 6 131 71 188 205 183 63 -3 76 -7 109 -34z
m459 10 c20 -13 28 -13 47 -3 38 21 147 16 186 -8 68 -42 107 -128 106 -233 0
-79 -14 -119 -53 -154 -26 -24 -108 -32 -171 -17 -26 6 -47 6 -50 1 -3 -5 -3
-40 1 -77 3 -39 2 -73 -4 -80 -11 -15 -63 -17 -71 -4 -11 18 -65 559 -58 580
5 16 39 13 67 -5z m704 -18 c60 -32 75 -65 92 -207 6 -57 17 -123 24 -146 7
-23 10 -44 7 -47 -9 -10 -62 -7 -83 4 -14 8 -32 7 -66 -5 -88 -30 -186 3 -223
76 -25 48 -25 66 0 106 27 45 69 63 163 71 79 7 82 8 79 32 -3 30 -25 55 -63
70 -38 16 -73 6 -111 -31 -41 -38 -81 -37 -86 3 -2 20 5 33 32 55 20 15 46 31
58 35 33 10 146 0 177 -16z m1084 -31 c63 -44 126 -170 97 -199 -7 -7 -59 -11
-143 -11 -120 0 -132 -2 -135 -18 -2 -12 13 -35 42 -63 40 -38 52 -44 89 -44
24 0 56 8 75 20 39 24 55 25 71 6 18 -21 -1 -50 -45 -71 -28 -13 -53 -16 -104
-13 -85 6 -137 36 -182 103 -30 46 -33 56 -33 130 0 93 14 129 64 162 50 34
152 33 204 -2z m248 -9 c18 -42 57 -371 45 -378 -17 -12 -53 -9 -63 5 -16 20
-64 379 -53 392 15 18 60 5 71 -19z m4018 25 c8 -5 19 -24 25 -42 8 -25 19
-35 44 -41 40 -11 44 -44 7 -58 -14 -5 -25 -11 -25 -13 0 -2 9 -48 20 -102 26
-122 40 -151 80 -158 24 -5 30 -12 30 -32 0 -23 -4 -25 -40 -25 -68 0 -96 35
-125 160 -41 171 -38 163 -69 171 -51 14 -63 56 -18 61 25 3 27 6 24 46 -3 35
-1 42 15 42 10 0 24 -4 32 -9z m-3829 -13 c15 -10 26 -10 53 0 83 30 180 1
211 -64 9 -20 26 -91 37 -158 10 -66 21 -133 24 -147 3 -23 0 -28 -22 -32 -54
-10 -54 -10 -78 163 -9 63 -21 126 -28 138 -25 51 -105 65 -149 25 -22 -20
-22 -56 1 -193 10 -58 16 -111 13 -118 -3 -8 -18 -12 -40 -10 l-36 3 -28 190
c-15 105 -25 196 -23 203 6 15 40 16 65 0z m1653 -32 c42 -17 90 -73 112 -129
30 -80 27 -82 -113 -82 -108 0 -123 -2 -128 -18 -6 -19 34 -74 70 -94 34 -20
93 -16 126 8 52 39 92 -3 46 -49 -24 -25 -33 -27 -105 -27 -72 0 -83 3 -122
30 -89 63 -134 179 -103 267 16 46 48 86 79 98 31 13 102 11 138 -4z m416 -17
c71 -41 140 -171 105 -200 -9 -7 -53 -10 -126 -8 -103 3 -113 2 -116 -15 -6
-29 64 -94 109 -101 30 -5 47 -1 82 19 43 25 44 26 61 7 58 -64 -119 -116
-219 -63 -75 39 -116 108 -123 208 -4 62 -1 77 18 108 12 20 34 43 48 51 40
21 118 19 161 -6z m365 4 c4 -5 31 -8 59 -8 60 0 49 27 103 -246 32 -166 35
-190 23 -215 -35 -72 -141 -96 -229 -51 -51 26 -70 51 -53 68 9 9 24 7 64 -10
58 -26 105 -23 133 8 22 24 18 78 -4 72 -45 -11 -112 -12 -143 -2 -98 33 -176
214 -136 318 21 57 47 73 114 73 34 0 65 -3 69 -7z m464 -16 c10 -11 69 -278
91 -410 15 -86 -9 -127 -74 -127 -58 0 -76 48 -25 67 18 7 30 18 30 30 0 19
-13 91 -55 291 -31 154 -32 162 -1 162 13 0 28 -6 34 -13z m357 -21 c47 -28
64 -61 91 -176 9 -41 23 -96 31 -122 8 -26 12 -52 8 -58 -9 -14 -38 -13 -60 3
-15 12 -23 12 -48 -1 -39 -20 -102 -17 -146 6 -49 26 -87 100 -75 144 14 49
64 78 135 78 64 0 76 8 58 42 -32 63 -91 75 -140 27 -60 -59 -111 -9 -53 52
25 26 34 29 92 29 51 0 74 -5 107 -24z m386 -7 c40 -28 62 -76 89 -194 12 -55
28 -112 36 -126 7 -15 10 -29 7 -33 -11 -10 -58 -7 -71 6 -9 9 -18 8 -38 -3
-38 -20 -113 -17 -153 7 -39 23 -71 80 -71 128 0 28 7 40 33 60 28 21 45 26
95 26 33 0 64 4 67 10 8 13 -22 67 -44 80 -37 19 -76 12 -104 -20 -15 -16 -33
-30 -40 -30 -16 0 -37 20 -37 36 0 20 49 72 73 77 45 10 129 -3 158 -24z"/>
<path d="M6613 9773 c-20 -4 -23 -11 -23 -51 l0 -47 85 0 85 0 0 46 c0 40 -3
48 -22 53 -25 6 -90 6 -125 -1z"/>
<path d="M395 8935 c-36 -35 -35 -111 1 -155 54 -63 132 -80 174 -35 19 21 22
32 18 80 -3 40 -11 62 -29 81 -54 58 -123 71 -164 29z"/>
<path d="M863 8902 c-34 -5 -53 -40 -53 -95 0 -81 57 -137 139 -137 57 0 85
37 77 102 -10 87 -80 143 -163 130z"/>
<path d="M4499 8432 c-38 -32 -23 -128 27 -174 33 -30 74 -40 106 -27 31 13
33 24 17 101 -12 58 -29 82 -71 104 -36 19 -51 18 -79 -4z"/>
<path d="M927 7992 c-24 -26 -21 -47 9 -71 32 -25 90 -28 122 -5 31 22 31 79
0 88 -48 12 -115 6 -131 -12z"/>
<path d="M1896 7997 c-15 -19 -26 -40 -26 -48 0 -39 25 -93 56 -124 30 -31 41
-35 84 -35 42 0 52 4 66 26 52 78 -27 214 -123 214 -25 0 -38 -8 -57 -33z"/>
<path d="M2764 7930 c-75 -29 -57 -164 27 -214 41 -24 104 -21 123 6 60 86
-55 245 -150 208z"/>
<path d="M4030 7770 c-26 -26 -26 -81 0 -135 33 -68 103 -95 150 -57 21 17 22
21 10 78 -17 90 -19 94 -53 115 -41 24 -82 24 -107 -1z"/>
<path d="M4785 7685 c-63 -62 11 -205 105 -205 56 0 73 21 68 85 -5 59 -35
107 -84 130 -44 21 -61 19 -89 -10z"/>
<path d="M5192 7662 c-31 -5 -45 -37 -40 -93 9 -88 88 -154 154 -129 50 19 51
113 2 168 -12 15 -23 28 -24 29 -2 9 -73 28 -92 25z"/>
<path d="M2227 7072 c-23 -25 -21 -34 7 -61 56 -52 146 -32 146 33 0 40 -11
46 -84 46 -39 0 -57 -5 -69 -18z"/>
<path d="M3630 7077 c-29 -15 -31 -44 -11 -140 12 -55 16 -60 53 -77 41 -18
82 -18 105 2 20 16 16 103 -7 147 -36 71 -86 96 -140 68z"/>
<path d="M840 6527 c-24 -12 -25 -17 -22 -88 1 -40 7 -87 13 -102 22 -53 114
-76 159 -39 34 27 39 101 10 161 -34 73 -98 100 -160 68z"/>
<path d="M1288 6349 c-26 -15 -22 -54 8 -78 33 -26 94 -28 124 -3 25 21 30 69
9 83 -19 12 -120 11 -141 -2z"/>
<path d="M1962 6294 c-30 -21 -28 -40 8 -76 27 -27 36 -30 71 -25 22 3 46 11
54 17 22 18 19 77 -4 90 -29 15 -104 12 -129 -6z"/>
<path d="M2372 6258 c-20 -20 -13 -55 14 -77 54 -43 144 -16 144 42 0 36 -19
47 -85 47 -34 0 -66 -5 -73 -12z"/>
<path d="M3710 6150 c-25 -25 -25 -31 0 -63 25 -32 72 -43 111 -27 25 11 29
18 29 49 0 49 -14 61 -72 61 -35 0 -54 -6 -68 -20z"/>
<path d="M6072 6093 c-22 -8 -33 -53 -26 -101 5 -33 17 -55 49 -88 47 -50 89
-58 120 -24 16 18 16 23 1 92 -9 40 -20 78 -24 84 -24 34 -82 52 -120 37z"/>
<path d="M6434 6045 c-20 -31 -13 -91 17 -145 39 -70 123 -94 155 -45 35 53
-8 175 -72 204 -43 19 -82 14 -100 -14z"/>
<path d="M1346 5852 c-5 -9 40 -426 52 -482 7 -32 11 -35 42 -35 l35 0 0 64
c0 50 4 66 18 75 15 9 29 -1 100 -76 61 -65 89 -88 107 -88 54 0 49 14 -45
115 -52 55 -94 104 -95 110 0 5 28 37 61 71 34 35 58 67 55 73 -4 6 -23 11
-41 11 -28 0 -46 -11 -100 -62 -46 -42 -69 -58 -74 -50 -4 7 -13 56 -20 110
-20 161 -20 159 -44 166 -30 8 -45 7 -51 -2z"/>
<path d="M426 5761 c-8 -13 22 -329 33 -351 5 -9 22 -15 42 -15 30 0 34 3 32
25 0 14 -4 77 -8 141 -8 114 -7 116 16 133 13 9 34 16 47 16 35 0 89 -26 102
-49 6 -12 16 -76 22 -142 11 -122 21 -149 56 -149 36 0 39 11 27 140 -5 69 -9
132 -7 140 3 19 47 40 81 40 21 0 88 -31 92 -42 1 -2 8 -66 18 -142 16 -140
16 -140 44 -147 49 -13 58 -3 52 55 -17 151 -29 224 -40 246 -24 46 -59 70
-121 81 -50 9 -67 9 -111 -6 -50 -17 -52 -17 -97 4 -37 18 -61 22 -128 21 -46
-1 -97 1 -114 5 -19 4 -34 3 -38 -4z"/>
<path d="M2556 5761 c-9 -14 64 -495 77 -503 16 -10 55 -10 61 0 3 5 -1 51 -9
103 -23 149 -21 166 19 186 40 19 78 12 110 -20 17 -18 25 -47 39 -147 19
-132 31 -156 71 -144 12 4 22 8 24 9 5 4 -28 218 -40 255 -12 42 -42 76 -83
97 -22 12 -46 14 -102 9 l-72 -6 -5 33 c-3 17 -7 50 -10 72 -3 22 -13 46 -23
52 -19 15 -49 17 -57 4z"/>
<path d="M1809 5647 c-39 -26 -49 -61 -21 -76 19 -10 32 -5 86 33 49 35 136
-3 136 -59 0 -25 -1 -25 -79 -25 -65 0 -84 -4 -111 -22 -43 -30 -51 -55 -34
-103 27 -82 123 -122 223 -95 31 8 47 8 54 1 6 -6 26 -11 45 -11 31 0 34 2 27
23 -13 44 -23 93 -35 179 -8 60 -19 96 -33 114 -50 64 -191 86 -258 41z m205
-183 c11 -4 16 -19 16 -44 0 -45 -30 -70 -85 -70 -64 0 -111 73 -67 106 17 14
108 19 136 8z"/>
<path d="M3043 5572 c-18 -9 -38 -28 -45 -41 -11 -20 -10 -25 7 -37 23 -17 55
-9 74 17 21 29 91 26 125 -6 14 -13 26 -33 26 -45 0 -18 -6 -20 -74 -20 -59 0
-79 -4 -107 -23 -30 -20 -34 -29 -37 -71 -3 -43 0 -50 33 -82 49 -45 104 -60
173 -44 39 9 57 9 65 1 13 -13 77 -15 77 -3 0 5 -6 28 -14 53 -8 24 -21 85
-30 134 -25 134 -60 170 -176 179 -51 5 -72 2 -97 -12z m188 -192 c13 -8 19
-21 19 -45 0 -29 -5 -37 -31 -51 -38 -19 -84 -13 -116 18 -29 27 -29 52 -1 72
25 18 100 21 129 6z"/>
<path d="M3735 5465 c-43 -43 -30 -132 29 -202 24 -29 34 -33 75 -33 66 0 86
23 86 100 -1 47 -6 64 -28 94 -52 67 -119 85 -162 41z"/>
<path d="M4543 5285 c-30 -21 -29 -50 2 -80 52 -52 144 -18 131 48 -3 17 -7
32 -9 33 -1 2 -25 6 -52 9 -38 5 -55 2 -72 -10z"/>
<path d="M6810 5273 c-66 -24 -43 -177 34 -224 38 -23 89 -25 107 -2 22 26 17
113 -9 156 -35 56 -90 85 -132 70z"/>
<path d="M2971 4654 c-43 -54 -18 -173 45 -223 35 -28 97 -28 124 -1 24 24 24
15 5 120 -8 47 -15 86 -15 88 0 1 -15 11 -32 22 -48 29 -101 26 -127 -6z"/>
<path d="M4287 4592 c-26 -28 -20 -105 14 -194 12 -30 55 -51 101 -50 49 1 63
23 62 95 0 68 -25 122 -69 151 -33 22 -88 20 -108 -2z"/>
<path d="M1734 4733 c-26 -22 -48 -62 -39 -71 4 -4 49 -9 101 -10 107 -4 116
3 67 58 -35 39 -97 50 -129 23z"/>
<path d="M3416 4629 c-80 -95 34 -283 146 -240 84 32 68 193 -26 250 -49 31
-89 27 -120 -10z"/>
<path d="M3873 4628 c-12 -6 -29 -26 -38 -45 -24 -49 -4 -130 42 -178 47 -49
112 -52 152 -8 20 23 23 35 19 79 -9 105 -104 188 -175 152z"/>
<path d="M5268 4409 c-28 -16 -23 -64 8 -88 36 -28 79 -27 110 4 23 23 26 54
7 88 -6 11 -105 8 -125 -4z"/>
<path d="M5814 4522 c-19 -12 -34 -49 -34 -84 0 -48 46 -135 81 -153 44 -23
86 -19 105 10 15 22 14 31 -2 105 -15 70 -22 85 -49 106 -31 23 -79 31 -101
16z"/>
<path d="M280 3723 c-56 -21 -65 -69 -19 -107 61 -52 163 -18 161 53 -1 49
-17 61 -76 60 -28 0 -58 -3 -66 -6z"/>
<path d="M1434 3831 c-30 -18 -53 -66 -39 -80 4 -3 49 -8 101 -9 86 -4 94 -2
94 15 0 28 -25 58 -64 77 -43 20 -54 20 -92 -3z"/>
<path d="M2083 3803 c-27 -18 -30 -66 -12 -171 10 -55 16 -66 43 -83 81 -49
156 -4 156 94 -1 128 -106 217 -187 160z"/>
<path d="M2553 3791 c-37 -23 -48 -61 -38 -138 6 -46 13 -61 46 -94 34 -34 45
-39 83 -39 33 0 52 6 73 24 26 22 28 30 27 90 -1 51 -6 73 -24 100 -45 64
-115 88 -167 57z"/>
<path d="M2999 3761 c-24 -25 -29 -37 -29 -81 0 -91 52 -165 124 -177 48 -8
80 10 101 56 31 70 -17 186 -91 217 -49 21 -72 17 -105 -15z"/>
<path d="M3657 3592 c-24 -26 -21 -55 8 -82 51 -48 145 -20 145 43 0 46 -16
57 -80 57 -42 0 -61 -5 -73 -18z"/>
<path d="M4461 3726 c-68 -38 -65 -158 6 -231 32 -33 39 -36 86 -33 49 3 53 5
70 41 16 32 17 44 8 89 -14 63 -52 115 -97 134 -40 17 -43 17 -73 0z"/>
<path d="M3836 2819 c-31 -25 -34 -65 -10 -170 15 -65 18 -71 56 -90 45 -23
97 -20 119 8 9 10 14 42 14 87 0 56 -5 80 -23 112 -41 71 -105 93 -156 53z"/>
<path d="M292 2894 c-27 -19 -57 -73 -45 -84 4 -5 53 -10 108 -11 l100 -4 -2
29 c-5 66 -105 110 -161 70z"/>
<path d="M984 2878 c-30 -14 -35 -52 -23 -150 12 -98 18 -111 65 -133 79 -37
142 5 151 102 6 68 -20 138 -64 172 -28 23 -92 27 -129 9z"/>
<path d="M1483 2700 c-42 -25 -43 -57 -4 -95 26 -23 36 -27 69 -23 22 3 51 14
66 23 21 14 26 25 26 60 0 49 -8 55 -78 55 -29 0 -59 -8 -79 -20z"/>
<path d="M2570 2853 c-26 -18 -54 -73 -43 -83 4 -4 48 -10 98 -11 104 -5 116
7 68 61 -35 38 -92 54 -123 33z"/>
<path d="M5515 2798 c-34 -18 -45 -40 -45 -87 0 -69 16 -114 56 -155 28 -29
42 -36 73 -36 25 0 44 7 56 20 17 19 18 26 5 103 -16 106 -30 131 -80 151 -47
19 -40 18 -65 4z"/>
<path d="M6322 2633 c-33 -6 -56 -46 -43 -72 28 -52 90 -65 136 -30 22 18 26
27 21 53 -10 50 -40 63 -114 49z"/>
<path d="M6682 2614 c-49 -34 -5 -108 65 -108 60 0 80 39 57 112 -5 18 -95 15
-122 -4z"/>
</g>
</svg>
