<?xml version="1.0" standalone="no"?>
<!DOCTYPE svg PUBLIC "-//W3C//DTD SVG 20010904//EN"
 "http://www.w3.org/TR/2001/REC-SVG-20010904/DTD/svg10.dtd">
<svg version="1.0" xmlns="http://www.w3.org/2000/svg"
 width="720.000000pt" height="1280.000000pt" viewBox="0 0 720.000000 1280.000000"
 preserveAspectRatio="xMidYMid meet">
<metadata>
Created by potrace 1.16, written by Peter Selinger 2001-2019
</metadata>
<g transform="translate(0.000000,1280.000000) scale(0.100000,-0.100000)"
fill="#000000" stroke="none">
<path d="M0 6400 l0 -6400 3600 0 3600 0 0 6400 0 6400 -3600 0 -3600 0 0
-6400z m6795 3679 c153 -68 201 -271 95 -404 -27 -34 -28 -39 -14 -50 24 -17
-1 -53 -48 -67 -30 -9 -45 -8 -80 5 -34 13 -55 15 -98 8 -30 -5 -63 -13 -73
-16 -52 -21 -136 35 -106 71 10 12 8 19 -9 37 -85 90 -82 268 6 360 77 82 216
105 327 56z m-623 -7 c154 -76 182 -300 53 -425 -69 -67 -215 -88 -310 -43
-147 68 -196 236 -111 379 25 42 43 58 96 85 61 32 70 34 145 30 58 -2 93 -10
127 -26z m-5863 -99 c15 -56 71 -300 71 -307 0 -3 -15 -6 -33 -6 -28 0 -34 4
-42 32 -9 29 -14 32 -50 31 -36 0 -40 -3 -47 -31 -8 -28 -13 -32 -42 -32 l-34
0 14 58 c7 31 26 110 41 175 l27 117 43 0 c40 0 43 -2 52 -37z m401 -55 l1
-93 30 38 c23 27 39 37 60 37 16 0 29 -3 29 -6 0 -4 -16 -27 -35 -53 l-34 -47
21 -35 c11 -19 29 -49 40 -66 l20 -33 -36 0 c-30 0 -38 5 -57 40 -26 45 -39
43 -39 -6 0 -31 -2 -34 -30 -34 l-30 0 0 175 0 175 30 0 30 0 0 -92z m1740
-83 l0 -176 -42 1 c-24 1 -55 -1 -69 -5 -19 -5 -33 -1 -55 18 -28 24 -29 29
-28 107 1 68 5 85 21 102 22 21 54 27 91 14 21 -7 22 -5 22 53 l0 61 30 0 30
0 0 -175z m452 83 l3 -92 25 37 c20 30 31 37 58 37 30 0 42 -12 24 -24 -5 -3
-21 -23 -36 -44 l-27 -39 39 -64 39 -64 -29 -3 c-35 -4 -51 8 -68 48 -17 42
-30 37 -30 -10 0 -39 -1 -40 -35 -40 l-35 0 0 168 c0 93 3 172 7 175 3 4 19 7
34 7 l28 0 3 -92z m728 28 l0 -65 35 15 c28 11 40 12 58 3 34 -18 37 -27 37
-136 l0 -103 -30 0 -30 0 0 90 c0 75 -3 92 -16 97 -37 14 -49 -10 -52 -101
l-3 -86 -29 0 -30 0 0 175 0 175 30 0 30 0 0 -64z m530 3 c0 -58 1 -60 23 -53
76 26 107 -8 107 -118 0 -71 -2 -81 -26 -105 -21 -21 -31 -24 -57 -18 -18 4
-49 6 -69 6 l-38 -2 0 176 0 175 30 0 30 0 0 -61z m-1482 -11 c3 -35 6 -38 33
-38 24 0 29 -4 29 -25 0 -21 -5 -25 -30 -25 l-31 0 3 -67 c3 -66 4 -68 31 -71
21 -3 27 -8 23 -19 -3 -8 -6 -19 -6 -24 0 -16 -73 -10 -92 8 -14 13 -18 31
-18 90 0 66 -2 75 -20 80 -13 3 -20 14 -20 29 0 17 6 24 20 24 17 0 20 7 20
41 0 38 1 40 28 37 23 -3 27 -8 30 -40z m-2094 -58 c24 -24 34 -122 17 -173
-15 -44 -59 -66 -97 -48 -14 6 -27 11 -29 11 -3 0 -5 -29 -5 -65 l0 -65 -30 0
-30 0 0 181 0 182 39 -6 c21 -2 45 -1 52 4 19 12 60 2 83 -21z m402 20 c8 0
23 -9 34 -20 17 -17 20 -33 20 -120 l0 -100 -47 -1 c-27 0 -60 -1 -75 -1 -40
-1 -58 19 -58 63 0 43 20 63 83 80 28 7 37 15 35 27 -5 25 -45 27 -58 3 -11
-22 -44 -28 -55 -10 -4 5 -1 23 5 40 12 29 59 52 88 43 8 -2 20 -4 28 -4z
m293 -1 c38 -14 51 -35 51 -88 l0 -41 -61 0 c-60 0 -60 0 -57 -27 3 -32 44
-46 54 -19 4 10 18 16 35 16 35 0 39 -25 10 -61 -27 -34 -99 -34 -135 0 -23
22 -26 32 -26 96 0 76 14 109 54 125 29 12 38 12 75 -1z m201 1 c17 0 40 -32
40 -56 0 -19 -5 -24 -24 -24 -16 0 -26 7 -29 21 -4 13 -12 20 -24 17 -31 -6
-27 -34 7 -48 78 -32 101 -82 61 -131 -15 -19 -29 -24 -66 -24 -37 0 -51 5
-66 24 -29 36 -25 61 11 61 24 0 30 -4 30 -21 0 -15 5 -20 23 -17 39 5 27 38
-23 61 -55 27 -72 64 -49 105 14 26 58 44 87 36 8 -2 17 -4 22 -4z m217 -14
c6 -6 13 -22 15 -36 2 -21 -2 -26 -23 -28 -20 -2 -28 2 -32 18 -4 14 -12 21
-24 18 -29 -5 -21 -32 15 -50 73 -36 92 -81 53 -129 -15 -19 -29 -24 -66 -24
-37 0 -51 5 -66 24 -29 36 -25 61 10 61 21 0 30 -6 34 -21 7 -25 40 -22 45 4
3 12 -9 23 -42 37 -51 21 -70 54 -60 97 12 45 104 65 141 29z m182 13 c17 -6
36 -19 41 -29 6 -10 10 -62 10 -115 l0 -97 -32 3 c-18 1 -48 -1 -66 -5 -50
-12 -82 13 -82 64 0 44 20 64 83 81 28 7 37 15 35 27 -5 25 -45 27 -58 3 -16
-30 -60 -29 -60 2 1 28 20 54 51 66 32 13 40 13 78 0z m288 1 c27 0 53 -43 53
-87 l0 -43 -61 0 c-60 0 -60 0 -57 -27 3 -32 44 -46 54 -19 8 22 64 22 64 0 0
-69 -100 -95 -157 -42 -20 19 -23 32 -23 98 0 67 3 79 23 97 28 26 47 33 72
28 11 -3 25 -5 32 -5z m1031 -26 c19 -21 22 -36 22 -99 0 -70 -1 -74 -32 -100
-27 -23 -39 -26 -71 -22 -59 8 -80 35 -85 107 -3 36 1 72 9 91 24 60 111 73
157 23z m240 9 c8 -11 12 -53 12 -120 l0 -103 -30 0 -30 0 0 90 c0 75 -3 92
-17 97 -32 12 -53 -32 -53 -113 l0 -74 -30 0 -30 0 0 120 0 120 29 0 c16 0 31
-5 33 -12 3 -8 11 -7 29 5 27 20 67 15 87 -10z m530 -9 c15 -17 22 -38 22 -65
l0 -39 -61 0 c-60 0 -60 0 -57 -27 3 -32 44 -46 54 -19 4 10 18 16 35 16 35 0
40 -29 9 -60 -27 -27 -63 -34 -105 -20 -46 15 -55 34 -55 123 0 64 3 76 23 94
12 11 29 23 37 26 28 11 75 -3 98 -29z m542 10 c11 -11 15 -39 15 -117 l0
-102 -32 -3 -33 -3 0 91 c0 72 -3 92 -15 96 -33 13 -45 -15 -45 -102 l0 -84
-35 0 -35 0 0 120 0 120 35 0 c19 0 35 -4 35 -9 0 -6 12 -3 28 4 29 16 58 12
82 -11z m218 -10 c19 -22 22 -36 22 -120 l0 -95 -42 1 c-24 1 -54 -1 -68 -5
-35 -9 -80 27 -80 64 0 39 19 60 70 75 33 10 46 19 48 35 4 28 -33 29 -48 1
-10 -19 -49 -28 -63 -14 -3 3 -1 19 5 36 21 60 111 73 156 22z m391 25 c36
-13 61 -53 61 -99 l0 -30 -59 0 c-63 0 -76 -8 -66 -40 8 -24 55 -28 55 -5 0
11 11 15 36 15 32 0 35 -2 29 -22 -13 -43 -42 -63 -90 -63 -65 0 -88 27 -93
107 -5 79 9 115 50 133 41 17 38 17 77 4z m204 -3 c15 -8 27 -11 27 -5 0 5 14
9 31 9 l30 0 -3 -154 c-3 -134 -5 -157 -22 -175 -42 -46 -144 -35 -166 19 -14
35 -7 50 25 50 15 0 26 -7 30 -20 8 -26 51 -27 65 -1 5 11 10 30 10 42 0 18
-3 20 -12 11 -7 -7 -29 -12 -49 -12 -56 0 -79 34 -79 116 0 72 13 107 44 122
29 14 37 14 69 -2z m285 -22 c19 -22 22 -36 22 -120 l0 -95 -42 1 c-24 1 -54
-1 -68 -5 -36 -9 -80 27 -80 65 0 27 32 70 52 70 5 0 24 7 43 14 25 11 33 19
29 30 -9 22 -41 20 -56 -4 -13 -20 -52 -27 -62 -12 -10 16 29 76 54 84 40 11
83 0 108 -28z m-3048 -94 l0 -120 -35 0 -35 0 0 113 c0 63 3 117 7 120 3 4 19
7 35 7 l28 0 0 -120z m2280 63 c19 -90 25 -92 45 -14 18 67 21 71 47 71 20 0
28 -5 27 -17 0 -10 -21 -90 -47 -178 l-47 -160 -33 -3 c-29 -3 -33 -1 -29 15
30 103 30 93 -2 206 -17 58 -34 113 -37 122 -5 12 2 15 28 15 34 0 35 -1 48
-57z"/>
<path d="M6613 9773 c-20 -4 -23 -11 -23 -51 l0 -47 85 0 85 0 0 46 c0 40 -3
48 -22 53 -25 6 -90 6 -125 -1z"/>
</g>
</svg>
