<?xml version="1.0" standalone="no"?>
<!DOCTYPE svg PUBLIC "-//W3C//DTD SVG 20010904//EN"
 "http://www.w3.org/TR/2001/REC-SVG-20010904/DTD/svg10.dtd">
<svg version="1.0" xmlns="http://www.w3.org/2000/svg"
 width="720.000000pt" height="1280.000000pt" viewBox="0 0 720.000000 1280.000000"
 preserveAspectRatio="xMidYMid meet">
<metadata>
Created by potrace 1.16, written by Peter Selinger 2001-2019
</metadata>
<g transform="translate(0.000000,1280.000000) scale(0.100000,-0.100000)"
fill="#000000" stroke="none">
<path d="M0 6400 l0 -6400 3600 0 3600 0 0 1025 0 1025 -2408 0 -2408 0 0 95
0 95 25 0 c18 0 33 -10 49 -34 13 -19 35 -37 49 -41 27 -6 44 1 27 13 -5 4
-18 27 -29 52 -10 25 -25 52 -32 61 -15 18 -18 69 -4 69 5 0 11 9 14 20 3 11
12 20 21 20 9 0 16 5 16 11 0 8 13 10 38 6 49 -8 67 3 58 37 -7 28 -39 66 -56
66 -21 0 -5 66 17 75 9 3 35 -4 58 -15 23 -11 49 -18 58 -14 15 5 15 9 2 35
-9 16 -29 39 -45 51 -17 12 -30 30 -30 40 0 10 -4 18 -10 18 -5 0 -10 12 -10
28 -1 45 -21 63 -59 52 -27 -8 -35 -5 -56 18 -14 15 -25 30 -25 34 0 14 -69
29 -88 19 -15 -8 -23 -7 -31 3 -9 11 -9 15 1 19 7 3 4 6 -7 6 -11 1 -30 8 -41
16 -12 8 -24 12 -27 8 -4 -3 -11 6 -18 20 -6 14 -22 27 -36 30 -20 4 -29 -3
-48 -33 -17 -27 -32 -39 -54 -42 -28 -4 -31 -2 -31 24 0 33 -25 88 -41 88 -5
0 -13 10 -18 22 -7 19 -14 22 -54 19 -50 -3 -47 -7 -51 62 -1 23 -55 52 -70
37 -8 -8 -6 -19 6 -40 20 -35 11 -45 -49 -55 -32 -5 -43 -11 -43 -24 0 -15 -9
-18 -67 -17 -64 1 -67 2 -79 31 -13 29 -19 125 -9 125 3 0 19 -16 36 -35 34
-38 67 -45 93 -19 15 14 14 18 -9 46 -14 16 -25 33 -25 38 0 5 25 12 55 15 64
8 80 23 35 32 -20 4 -41 19 -58 42 -15 20 -99 109 -187 197 -110 111 -170 164
-190 168 -37 9 -71 36 -78 62 -4 17 -5 17 -6 -3 -1 -18 -8 -22 -38 -25 l-38
-3 -5 -71 c-4 -63 -8 -73 -35 -97 -16 -14 -49 -31 -73 -38 -29 -8 -39 -15 -33
-23 5 -6 7 -23 4 -38 -5 -24 -10 -28 -38 -28 -19 0 -40 7 -49 15 -17 17 -56
20 -56 5 0 -12 27 -23 88 -37 39 -9 44 -8 53 11 17 32 69 76 92 76 11 0 31
-10 44 -22 13 -12 47 -29 76 -38 57 -17 70 -39 41 -71 -18 -20 -49 -25 -59 -9
-3 5 -22 10 -41 10 -28 0 -36 -5 -45 -27 -18 -48 -29 -56 -50 -37 -11 10 -19
23 -19 31 0 7 -7 16 -15 19 -8 4 -15 12 -15 20 0 8 -5 14 -10 14 -6 0 -9 -3
-9 -7 5 -29 -3 -34 -48 -32 -46 3 -48 2 -53 -25 -3 -16 -12 -33 -21 -39 -23
-14 -66 -1 -72 23 -3 11 -13 23 -24 27 -28 11 -64 48 -67 69 -3 15 -11 19 -37
17 -56 -3 -64 40 -24 122 14 28 25 55 25 61 0 14 70 117 82 122 4 2 8 26 8 54
0 39 6 57 25 80 24 29 25 32 9 49 -17 18 -14 19 88 19 87 0 107 -3 120 -17 29
-34 28 -59 -4 -83 -19 -14 -28 -29 -26 -43 3 -18 11 -22 51 -24 46 -2 51 0
112 55 35 31 64 62 64 68 1 5 -15 25 -34 44 -19 19 -35 39 -35 46 0 19 -49 54
-75 54 -28 0 -108 35 -124 54 -9 11 -9 20 -2 34 8 15 7 23 -4 32 -7 6 -15 26
-17 43 -3 31 -4 32 -58 35 -30 2 -61 8 -68 15 -23 19 -32 55 -21 84 8 22 6 30
-16 53 -19 20 -25 37 -25 72 0 53 -18 74 -61 70 -16 -2 -29 1 -29 7 0 6 -6 11
-13 11 -16 0 -51 37 -60 62 -3 10 -19 20 -34 24 -50 10 -53 13 -53 39 0 24 2
25 69 25 69 0 86 6 73 26 -8 12 -106 44 -136 44 -21 1 -21 1 -1 16 11 8 37 19
58 25 23 6 57 28 83 54 39 38 44 48 44 88 0 24 5 68 10 97 10 50 9 55 -14 79
-13 14 -26 37 -28 51 -2 14 -13 29 -26 35 -13 6 -24 19 -26 30 -19 107 -27
138 -40 150 -21 21 -23 20 -44 -22 -13 -26 -17 -52 -14 -81 4 -42 3 -43 -17
-33 -11 6 -25 20 -31 30 -12 23 -72 45 -99 36 -17 -5 -19 -14 -17 -70 2 -43 8
-71 19 -83 23 -26 22 -69 -2 -77 -11 -3 -38 -24 -60 -46 -33 -31 -46 -38 -66
-33 -14 3 -28 10 -31 15 -9 15 -51 10 -58 -7 -13 -33 -5 -74 18 -99 27 -29 25
-61 -4 -70 -10 -3 -20 -15 -23 -26 -4 -16 1 -23 22 -30 l28 -10 -18 -37 c-11
-20 -20 -50 -20 -67 l-1 -30 -8 30 -8 30 -1 -32 c-1 -20 4 -34 12 -35 6 0 17
-2 22 -2 21 -3 35 -18 35 -37 0 -10 5 -19 11 -19 5 0 7 -4 4 -10 -3 -5 5 -12
19 -16 13 -3 27 -15 30 -27 11 -47 30 -60 72 -53 l40 7 -7 57 c-4 31 -10 81
-14 109 -11 74 9 71 62 -8 17 -25 38 -51 47 -58 10 -9 16 -29 16 -56 0 -45
-10 -55 -55 -55 -18 0 -24 -6 -27 -27 -3 -24 -10 -30 -50 -40 -59 -14 -68 -20
-68 -42 0 -10 -9 -26 -20 -36 -11 -10 -20 -23 -20 -30 0 -18 108 -106 128
-104 34 3 41 -1 44 -28 2 -23 12 -31 56 -49 75 -30 102 -58 102 -107 0 -34 2
-38 15 -27 12 10 18 10 30 0 12 -10 19 -10 27 -2 7 7 23 12 36 12 31 0 26 -34
-6 -38 -14 -2 -24 -13 -28 -30 -9 -36 -34 -73 -34 -50 0 8 -7 21 -15 28 -8 7
-15 23 -15 36 0 23 0 23 -43 8 -23 -8 -52 -26 -65 -39 -13 -14 -30 -25 -38
-25 -9 0 -41 20 -72 44 -32 24 -77 51 -101 59 -49 16 -70 44 -71 94 0 21 -8
38 -25 51 -14 11 -25 26 -25 34 0 8 -11 20 -25 26 -31 14 -31 25 -3 49 13 10
29 30 37 46 12 23 12 31 1 52 -7 14 -21 25 -31 25 -13 0 -20 11 -25 38 -9 48
-30 72 -65 72 l-29 0 1 270 0 270 30 0 c20 0 29 5 29 17 0 23 -29 53 -46 46
-12 -4 -14 297 -14 2111 l0 2116 3590 0 3590 0 0 1775 0 1775 -3600 0 -3600 0
0 -6400z m6782 3684 c50 -17 112 -73 138 -125 44 -85 32 -202 -29 -284 -25
-34 -27 -41 -14 -50 14 -10 14 -14 -2 -38 -22 -35 -88 -46 -136 -23 -29 13
-43 14 -94 4 -106 -20 -142 -17 -169 17 -22 27 -22 31 -7 41 15 11 14 14 -6
36 -63 67 -82 200 -42 288 60 133 208 188 361 134z m-639 0 c52 -18 116 -76
142 -130 22 -47 30 -130 16 -180 -32 -119 -134 -194 -265 -194 -165 0 -272
106 -270 266 2 153 105 252 265 253 36 1 86 -6 112 -15z m-5839 -91 c10 -34
76 -315 76 -324 0 -5 -16 -9 -35 -9 -30 0 -35 3 -35 24 0 31 -13 39 -59 39
-31 0 -36 -3 -43 -31 -8 -28 -13 -32 -42 -32 l-34 0 14 58 c7 31 25 110 40
175 l28 117 42 0 c32 0 44 -4 48 -17z m406 -75 l1 -93 30 38 c23 27 39 37 60
37 16 0 29 -3 29 -6 0 -4 -16 -27 -35 -53 l-34 -47 21 -35 c11 -19 29 -49 40
-66 l20 -33 -36 0 c-30 0 -38 5 -57 40 -26 45 -39 43 -39 -6 0 -31 -2 -34 -30
-34 l-30 0 0 175 0 175 30 0 30 0 0 -92z m1740 -83 l0 -176 -42 1 c-24 1 -55
-1 -69 -5 -19 -5 -33 -1 -55 18 -27 24 -29 29 -29 106 0 69 3 84 21 102 23 22
55 28 92 15 21 -7 22 -5 22 53 l0 61 30 0 30 0 0 -175z m452 83 l3 -92 25 37
c20 30 31 37 58 37 30 0 42 -12 24 -24 -5 -3 -21 -23 -36 -44 l-27 -40 41 -66
41 -67 -38 3 c-32 3 -41 9 -58 40 -26 49 -35 48 -35 -2 0 -39 -1 -40 -35 -40
l-35 0 0 175 0 175 35 0 34 0 3 -92z m728 28 l0 -65 35 15 c28 11 40 12 58 3
34 -18 37 -27 37 -136 l0 -103 -30 0 -30 0 0 90 c0 75 -3 92 -16 97 -37 14
-49 -10 -52 -101 l-3 -86 -29 0 -30 0 0 175 0 175 30 0 30 0 0 -64z m530 3 c0
-58 1 -60 23 -53 76 26 107 -8 107 -118 0 -71 -2 -81 -26 -105 -20 -20 -31
-24 -52 -18 -15 4 -46 6 -69 5 l-43 -1 0 176 0 175 30 0 30 0 0 -61z m-1480
-9 c0 -38 2 -40 30 -40 25 0 30 -4 30 -25 0 -21 -5 -25 -30 -25 l-31 0 3 -67
c3 -66 4 -68 31 -71 21 -3 27 -8 23 -19 -3 -8 -6 -19 -6 -24 0 -16 -73 -10
-92 8 -14 13 -18 31 -18 90 0 66 -2 75 -20 80 -13 3 -20 14 -20 29 0 17 6 24
20 24 17 0 20 7 20 40 0 38 2 40 30 40 28 0 30 -2 30 -40z m-2096 -61 c24 -23
34 -121 17 -172 -15 -44 -59 -66 -97 -48 -14 6 -27 11 -29 11 -3 0 -5 -29 -5
-65 l0 -65 -30 0 -30 0 0 181 0 182 38 -5 c20 -3 46 -2 57 3 26 10 55 2 79
-22z m405 20 c17 -6 36 -19 41 -29 6 -10 10 -62 10 -115 l0 -97 -32 3 c-18 1
-48 -1 -66 -5 -50 -12 -82 13 -82 64 0 44 20 64 83 81 28 7 37 15 35 27 -5 25
-45 27 -58 3 -13 -25 -48 -28 -57 -5 -8 21 28 67 58 75 35 10 33 10 68 -2z
m287 1 c39 -15 53 -39 54 -87 l0 -43 -61 0 c-60 0 -60 0 -57 -27 3 -32 44 -46
54 -19 9 23 64 21 64 -2 0 -51 -67 -84 -124 -62 -45 17 -55 38 -56 116 0 78
20 119 63 127 12 2 25 5 29 6 4 0 19 -4 34 -9z m201 -1 c32 -12 43 -26 43 -56
0 -31 -45 -33 -53 -2 -7 24 -40 23 -45 -2 -2 -10 9 -21 30 -29 75 -30 98 -83
59 -131 -40 -50 -151 -22 -151 38 0 19 5 23 30 23 24 0 30 -4 30 -21 0 -15 5
-20 22 -17 42 6 33 36 -16 58 -76 32 -89 107 -23 135 39 17 39 17 74 4z m202
-4 c26 -13 46 -56 33 -70 -14 -14 -50 -3 -55 16 -4 13 -12 20 -24 17 -29 -5
-21 -32 15 -50 73 -36 92 -81 53 -129 -15 -19 -29 -24 -66 -24 -37 0 -51 5
-66 24 -29 36 -25 61 10 61 21 0 30 -6 34 -21 7 -25 40 -22 45 4 3 12 -9 23
-42 37 -74 31 -86 108 -22 136 40 17 51 17 85 -1z m200 4 c17 -6 36 -19 41
-29 6 -10 10 -62 10 -115 l0 -97 -32 3 c-18 1 -48 -1 -66 -5 -50 -12 -82 13
-82 64 0 44 20 64 83 81 28 7 37 15 35 27 -5 25 -45 27 -58 3 -11 -22 -44 -28
-55 -11 -12 20 8 59 38 74 38 19 45 19 86 5z m318 -21 c17 -16 23 -33 23 -65
l0 -43 -61 0 c-60 0 -60 0 -57 -27 3 -32 44 -46 54 -19 9 23 64 21 64 -2 0
-49 -66 -84 -121 -64 -50 20 -59 37 -59 121 0 68 3 80 23 98 12 11 29 23 37
26 25 10 73 -2 97 -25z m1001 -4 c18 -21 22 -36 22 -98 0 -77 -15 -107 -61
-121 -31 -10 -84 3 -105 26 -23 26 -31 127 -13 170 24 60 111 73 157 23z m240
8 c8 -10 12 -52 12 -119 l0 -103 -30 0 -30 0 0 90 c0 75 -3 92 -17 97 -32 12
-53 -32 -53 -113 l0 -74 -30 0 -30 0 0 120 0 120 29 0 c16 0 31 -5 33 -11 2
-6 14 -5 33 5 33 17 63 13 83 -12z m530 -8 c15 -17 22 -38 22 -65 l0 -39 -61
0 c-60 0 -60 0 -57 -27 3 -32 44 -46 54 -19 4 10 18 16 35 16 22 0 29 -5 29
-20 0 -42 -64 -79 -115 -66 -52 13 -65 39 -65 124 0 69 3 81 23 99 12 11 29
23 37 26 28 11 75 -3 98 -29z m539 12 c7 -6 13 -53 15 -116 l3 -105 -32 -3
-33 -3 0 91 c0 72 -3 92 -15 96 -33 13 -45 -15 -45 -102 l0 -84 -35 0 -35 0 0
120 0 120 35 0 c19 0 35 -4 35 -9 0 -6 12 -3 28 4 28 15 58 12 79 -9z m221
-12 c19 -22 22 -36 22 -120 l0 -95 -42 1 c-24 1 -54 -1 -68 -5 -34 -9 -80 27
-80 61 0 41 18 63 63 75 52 15 67 26 60 45 -8 21 -41 17 -55 -6 -12 -19 -48
-27 -60 -14 -15 14 11 60 43 77 43 22 86 16 117 -19z m391 25 c36 -13 61 -53
61 -99 l0 -30 -59 0 c-65 0 -73 -5 -64 -38 6 -26 53 -32 53 -7 0 11 11 15 36
15 32 0 35 -2 29 -22 -13 -43 -42 -63 -90 -63 -64 0 -87 27 -93 105 -5 75 11
118 52 136 38 16 36 16 75 3z m204 -3 c15 -8 27 -11 27 -5 0 5 14 9 30 9 l30
0 0 -149 c0 -134 -2 -151 -20 -174 -41 -52 -147 -44 -170 13 -7 16 -9 34 -5
39 9 15 46 7 60 -12 27 -37 75 -10 75 43 0 17 -3 19 -19 10 -36 -19 -78 -12
-100 16 -16 21 -21 41 -21 88 0 85 8 106 44 122 39 17 36 17 69 0z m285 -22
c19 -22 22 -36 22 -120 l0 -95 -42 1 c-24 1 -54 -1 -68 -5 -35 -9 -80 27 -80
64 0 39 19 60 70 75 33 10 46 19 48 35 4 28 -31 29 -51 0 -22 -30 -63 -23 -59
11 10 70 109 91 160 34z m-3048 -94 l0 -120 -35 0 -35 0 0 113 c0 63 3 117 7
120 3 4 19 7 35 7 l28 0 0 -120z m2280 63 c19 -91 25 -93 45 -14 17 70 18 71
50 71 l33 0 -52 -177 -51 -178 -34 -3 c-28 -3 -33 -1 -27 14 29 76 29 101 -4
209 -17 59 -34 113 -37 121 -4 10 4 14 29 14 34 0 35 -1 48 -57z m-4594 -5996
c6 -17 20 -53 30 -78 l18 -47 -27 -23 c-34 -32 -81 -183 -71 -234 9 -50 -16
-47 -56 8 -28 37 -31 47 -26 86 4 26 22 69 45 105 31 50 37 66 29 85 -5 15 -5
36 2 54 5 17 10 40 10 53 0 12 6 24 13 27 16 6 18 3 33 -36z m462 -192 c14
-31 15 -49 3 -73 -25 -48 -81 -173 -81 -180 0 -4 -7 -18 -16 -30 -15 -22 -17
-22 -40 -7 -18 11 -29 13 -43 5 -18 -9 -20 -5 -26 54 -5 41 -3 77 5 101 6 19
9 43 6 52 -9 22 22 53 53 53 15 0 38 11 51 24 34 34 73 34 88 1z m-592 -607
c-7 -40 -6 -41 12 -25 26 24 45 21 59 -10 31 -65 -7 -157 -77 -193 -65 -33
-74 -29 -67 35 4 38 1 64 -9 83 -7 15 -14 51 -14 80 0 58 13 70 74 71 28 1 28
0 22 -41z m752 -100 c7 -7 12 -25 12 -40 0 -22 -6 -29 -27 -34 -16 -4 -31 -12
-35 -18 -14 -21 -8 -69 12 -102 l21 -32 -22 -7 c-17 -6 -32 3 -71 41 -47 47
-49 51 -43 90 4 30 2 44 -10 54 -18 15 -19 32 -3 48 16 16 150 16 166 0z
m-555 -202 c26 -30 47 -58 47 -62 0 -20 -96 -104 -118 -104 -34 0 -62 18 -62
39 0 11 -7 21 -15 25 -34 13 -9 118 34 141 44 24 63 18 114 -39z m2136 -98
c23 -74 12 -108 -36 -108 -31 0 -110 -82 -119 -123 -8 -36 -51 -87 -74 -87
-50 0 -73 33 -85 116 -6 47 -4 54 18 75 13 13 27 36 31 52 6 24 9 26 27 16 11
-6 29 -19 40 -30 20 -20 20 -20 42 13 17 24 31 34 55 36 26 3 36 10 49 38 21
43 39 43 52 2z m-1128 5 c9 -10 30 -26 48 -35 18 -10 31 -25 31 -36 0 -11 9
-31 20 -45 31 -39 26 -55 -24 -68 -34 -8 -47 -18 -56 -40 -7 -16 -16 -26 -21
-23 -5 3 -29 -4 -52 -15 -54 -26 -92 -31 -92 -11 0 17 60 50 90 49 44 -2 45 0
45 61 0 52 -3 61 -25 76 -27 18 -31 40 -13 79 13 29 28 32 49 8z m543 -232
c24 -20 21 -62 -5 -68 -21 -6 -22 -29 -5 -103 4 -14 2 -32 -4 -40 -8 -13 -13
-11 -35 12 -21 23 -24 33 -19 71 8 58 -8 92 -37 76 -21 -11 -49 -6 -49 9 0 5
16 20 36 35 40 28 90 31 118 8z m311 -145 c36 -15 55 -42 55 -75 0 -25 12 -26
46 -5 13 9 28 14 31 10 4 -4 10 -33 14 -64 3 -31 9 -65 14 -75 7 -16 -3 -17
-166 -13 -96 2 -195 5 -221 5 -44 1 -48 3 -48 25 0 30 11 38 59 41 20 1 48 5
63 9 27 8 49 -7 74 -50 15 -25 29 -12 15 14 -8 14 -8 29 -1 47 7 18 7 33 -1
48 -7 11 -13 38 -14 59 -2 34 0 38 22 38 13 0 39 -6 58 -14z"/>
<path d="M6613 9773 c-20 -4 -23 -11 -23 -51 l0 -47 85 0 85 0 0 46 c0 40 -3
48 -22 53 -25 6 -90 6 -125 -1z"/>
<path d="M4459 7472 c-14 -9 -45 -36 -69 -59 -37 -37 -42 -46 -37 -73 4 -17
11 -36 17 -43 85 -99 100 -111 146 -117 41 -4 49 -9 57 -34 8 -25 7 -32 -12
-47 -11 -9 -21 -22 -21 -28 0 -6 -4 -11 -10 -11 -5 0 -10 -5 -10 -12 0 -6 -15
-26 -32 -43 -93 -91 -214 -239 -235 -287 -7 -16 -17 -28 -23 -28 -5 0 -10 -5
-10 -11 0 -7 -8 -19 -18 -28 -25 -22 -71 -92 -119 -181 -39 -72 -41 -80 -47
-190 -9 -161 -12 -180 -44 -215 -16 -16 -46 -54 -68 -83 -22 -31 -49 -55 -64
-59 -35 -8 -181 -93 -186 -108 -3 -7 -30 -25 -59 -40 -46 -23 -62 -39 -97 -96
-24 -37 -49 -68 -56 -69 -10 0 -12 -41 -10 -202 2 -154 0 -202 -9 -205 -7 -3
-13 -10 -13 -18 0 -7 -11 -37 -24 -68 -14 -30 -29 -90 -35 -133 -11 -83 -7
-388 7 -512 7 -69 10 -75 51 -113 46 -42 84 -58 95 -40 4 6 18 11 30 11 28 0
83 52 102 98 8 17 19 32 24 32 11 0 60 48 60 59 0 5 17 21 38 37 20 15 39 33
41 39 2 5 23 29 45 52 23 23 46 48 51 55 6 7 26 33 45 58 20 25 54 73 75 107
22 35 43 63 48 63 4 0 7 6 7 14 0 7 16 34 35 59 20 26 58 90 86 144 28 53 64
117 80 141 16 23 29 45 29 48 0 8 90 143 127 192 18 24 36 56 40 70 3 15 30
74 60 132 29 58 65 143 79 190 14 47 32 92 39 100 17 19 72 146 80 185 9 41
24 81 51 140 23 50 64 194 64 225 0 9 9 48 20 86 12 38 28 94 36 124 8 30 22
69 29 86 22 47 17 208 -9 319 -2 11 -5 23 -5 28 -2 21 -145 -7 -160 -31 -11
-18 -41 -3 -41 20 0 10 4 17 8 14 21 -12 34 15 35 75 2 62 2 63 -29 72 -24 7
-33 17 -43 53 -21 69 -30 74 -129 73 -64 0 -94 -5 -113 -17z"/>
<path d="M2307 5582 c-36 -25 -52 -49 -61 -91 -3 -19 -13 -42 -20 -50 -27 -31
-44 -368 -26 -516 13 -106 36 -195 51 -195 5 0 9 -6 9 -13 0 -25 46 -57 87
-61 35 -3 46 2 76 31 34 31 57 82 57 128 0 11 13 57 29 101 16 45 32 106 36
135 4 30 13 81 20 114 8 33 17 106 21 162 5 87 4 104 -10 118 -9 9 -16 27 -16
41 0 29 -57 92 -91 101 -63 16 -134 14 -162 -5z"/>
<path d="M2712 4418 c-7 -7 -12 -8 -12 -4 0 5 -9 -3 -20 -17 -11 -14 -20 -30
-20 -36 0 -6 -5 -11 -11 -11 -5 0 -7 -4 -4 -10 3 -5 1 -10 -4 -10 -6 0 -11 -6
-11 -12 -1 -12 -63 -58 -78 -58 -4 0 -26 -28 -49 -62 -42 -62 -43 -65 -44
-153 -3 -134 -3 -134 134 -132 90 1 114 5 124 17 6 9 43 29 82 44 67 26 71 30
82 69 7 25 9 81 6 138 -6 107 -7 111 -102 201 -55 53 -56 53 -73 36z"/>
</g>
</svg>
