<?xml version="1.0" standalone="no"?>
<!DOCTYPE svg PUBLIC "-//W3C//DTD SVG 20010904//EN"
 "http://www.w3.org/TR/2001/REC-SVG-20010904/DTD/svg10.dtd">
<svg version="1.0" xmlns="http://www.w3.org/2000/svg"
 width="720.000000pt" height="1280.000000pt" viewBox="0 0 720.000000 1280.000000"
 preserveAspectRatio="xMidYMid meet">
<metadata>
Created by potrace 1.16, written by Peter Selinger 2001-2019
</metadata>
<g transform="translate(0.000000,1280.000000) scale(0.100000,-0.100000)"
fill="#000000" stroke="none">
<path d="M0 6400 l0 -6400 3600 0 3600 0 0 1025 0 1024 -3168 3 c-2361 3
-3175 6 -3197 15 -16 6 -56 19 -88 28 -32 9 -67 25 -78 36 -10 10 -25 16 -32
13 -8 -3 -21 2 -30 10 -9 9 -23 16 -32 16 -9 0 -23 7 -31 15 -9 8 -24 15 -35
15 -11 0 -17 5 -14 10 3 6 1 10 -4 10 -6 0 -11 -7 -11 -16 0 -11 -6 -14 -23
-8 -12 4 -24 9 -27 13 -3 3 -25 8 -50 9 -30 3 -49 10 -58 23 -10 14 -25 19
-60 19 -49 1 -82 19 -95 53 -8 21 -36 34 -46 20 -8 -13 -51 -23 -51 -12 0 5
-7 9 -15 9 -11 0 -15 -13 -17 -47 -1 -28 -4 -8 -8 47 -10 120 -10 2518 0 2740
6 149 7 155 8 58 1 -60 6 -108 11 -108 5 0 14 23 21 50 7 28 16 53 21 56 5 3
9 39 9 80 0 67 2 74 20 74 19 0 20 7 20 160 l0 160 31 0 c17 0 36 6 43 13 16
15 36 153 36 244 0 49 3 63 15 63 11 0 15 11 15 40 0 34 3 40 21 40 19 0 21 5
18 44 -2 24 -2 43 0 40 7 -6 38 35 50 66 6 17 16 44 22 60 9 23 18 30 39 30
44 0 53 20 48 111 -3 44 -1 104 4 132 5 29 10 74 11 100 2 27 9 52 15 56 7 4
11 23 10 42 -3 29 1 34 20 37 21 3 22 0 22 -72 0 -44 4 -76 10 -76 6 0 10 28
10 63 0 65 11 87 42 87 15 0 18 8 18 44 0 25 5 48 10 51 8 5 7 11 -1 21 -20
24 7 44 60 44 55 1 81 18 81 54 0 16 6 26 14 26 9 0 16 12 18 28 2 22 9 28 33
30 17 2 34 8 39 13 6 5 22 9 37 9 27 0 27 0 31 83 2 64 8 87 23 105 11 12 25
22 32 22 7 0 13 9 13 20 0 13 7 20 20 20 13 0 20 7 20 20 0 10 8 27 19 37 10
10 22 37 26 60 3 23 13 44 21 47 8 3 14 12 14 21 0 9 9 15 24 15 13 0 26 7 30
15 4 11 -2 15 -24 15 -17 0 -30 5 -30 10 0 6 27 10 60 10 l59 0 7 35 c3 19 10
35 15 35 18 0 33 47 30 98 -2 49 -1 52 22 52 21 0 27 7 34 38 7 30 14 38 36
40 20 3 27 9 27 26 0 12 17 41 39 63 21 23 41 49 44 57 4 9 11 16 17 16 6 0
10 30 10 74 0 53 4 77 15 86 8 7 15 19 15 26 0 23 18 16 23 -8 l4 -23 8 23 c4
12 13 22 20 22 7 0 16 16 19 35 7 35 20 45 29 23 3 -7 5 -2 4 12 -1 32 25 71
70 106 19 14 39 39 44 54 6 15 21 33 34 40 14 7 25 22 25 32 0 11 7 18 20 18
16 0 20 7 20 36 0 40 18 64 49 64 17 0 20 4 15 30 -5 23 -3 30 10 30 9 0 16 7
16 15 0 8 9 15 20 15 32 0 70 22 70 42 0 10 6 18 14 18 7 0 17 15 22 32 6 21
16 33 27 33 10 0 22 6 26 14 5 8 18 12 30 8 29 -7 36 9 8 18 -21 8 -21 8 6 12
23 4 27 9 27 35 0 22 10 40 40 68 22 21 40 42 40 48 0 15 32 24 41 11 10 -17
39 -3 39 20 0 12 9 21 25 25 13 3 36 17 51 31 20 19 38 25 70 25 24 0 44 5 44
10 0 6 7 10 16 10 11 0 14 6 8 23 -4 12 -12 25 -18 29 -6 4 43 9 109 10 66 2
-512 5 -1285 8 -929 3 -188 6 2188 8 l3592 2 0 1775 0 1775 -3600 0 -3600 0 0
-6400z m6782 3684 c50 -17 112 -73 138 -125 44 -85 32 -202 -29 -284 -25 -34
-27 -41 -14 -50 14 -10 14 -14 -2 -38 -22 -35 -88 -46 -136 -23 -29 13 -43 14
-94 4 -106 -20 -142 -17 -169 17 -22 27 -22 31 -7 41 15 11 14 14 -6 36 -38
40 -63 108 -63 172 0 78 16 128 58 176 77 90 199 118 324 74z m-639 0 c52 -18
116 -76 142 -130 22 -47 30 -130 16 -180 -32 -119 -134 -194 -265 -194 -165 0
-272 106 -270 266 2 153 105 252 265 253 36 1 86 -6 112 -15z m-5839 -91 c10
-34 76 -315 76 -324 0 -5 -16 -9 -35 -9 -30 0 -35 3 -35 24 0 31 -13 39 -59
39 -31 0 -36 -3 -43 -31 -8 -28 -13 -32 -42 -32 l-34 0 14 58 c7 31 25 110 40
175 l28 117 42 0 c32 0 44 -4 48 -17z m406 -75 l1 -93 30 38 c23 27 39 37 60
37 16 0 29 -3 29 -6 0 -4 -16 -27 -35 -53 l-34 -47 21 -35 c11 -19 29 -49 40
-66 l20 -33 -36 0 c-30 0 -38 5 -57 40 -26 45 -39 43 -39 -6 0 -31 -2 -34 -30
-34 l-30 0 0 175 0 175 30 0 30 0 0 -92z m1740 -83 l0 -176 -42 1 c-24 1 -55
-1 -69 -5 -19 -5 -33 -1 -55 18 -27 24 -29 29 -29 106 0 69 3 84 21 102 23 22
55 28 92 15 21 -7 22 -5 22 53 l0 61 30 0 30 0 0 -175z m452 83 l3 -92 25 37
c20 30 31 37 58 37 30 0 42 -12 24 -24 -5 -3 -21 -23 -36 -44 l-27 -40 41 -66
41 -67 -38 3 c-32 3 -41 9 -58 40 -26 49 -35 48 -35 -2 0 -39 -1 -40 -35 -40
l-35 0 0 175 0 175 35 0 34 0 3 -92z m728 28 l0 -65 35 15 c28 11 40 12 58 3
34 -18 37 -27 37 -136 l0 -103 -30 0 -30 0 0 90 c0 75 -3 92 -16 97 -37 14
-49 -10 -52 -101 l-3 -86 -29 0 -30 0 0 175 0 175 30 0 30 0 0 -64z m530 3 c0
-58 1 -60 23 -53 76 26 107 -8 107 -118 0 -71 -2 -81 -26 -105 -20 -20 -31
-24 -52 -18 -15 4 -46 6 -69 5 l-43 -1 0 176 0 175 30 0 30 0 0 -61z m-1480
-9 c0 -38 2 -40 30 -40 25 0 30 -4 30 -25 0 -21 -5 -25 -30 -25 l-31 0 3 -67
c3 -66 4 -68 31 -71 21 -3 27 -8 23 -19 -3 -8 -6 -19 -6 -24 0 -16 -73 -10
-92 8 -14 13 -18 31 -18 90 0 66 -2 75 -20 80 -13 3 -20 14 -20 29 0 17 6 24
20 24 17 0 20 7 20 40 0 38 2 40 30 40 28 0 30 -2 30 -40z m-2096 -61 c24 -23
34 -121 17 -172 -15 -44 -59 -66 -97 -48 -14 6 -27 11 -29 11 -3 0 -5 -29 -5
-65 l0 -65 -30 0 -30 0 0 181 0 182 38 -5 c20 -3 46 -2 57 3 26 10 55 2 79
-22z m405 20 c17 -6 36 -19 41 -29 6 -10 10 -62 10 -115 l0 -97 -32 3 c-18 1
-48 -1 -66 -5 -50 -12 -82 13 -82 64 0 44 20 64 83 81 28 7 37 15 35 27 -5 25
-45 27 -58 3 -13 -25 -48 -28 -57 -5 -8 21 28 67 58 75 35 10 33 10 68 -2z
m287 1 c39 -15 53 -39 54 -87 l0 -43 -61 0 c-60 0 -60 0 -57 -27 3 -32 44 -46
54 -19 9 23 64 21 64 -2 0 -51 -67 -84 -124 -62 -45 17 -55 38 -56 116 0 78
20 119 63 127 12 2 25 5 29 6 4 0 19 -4 34 -9z m201 -1 c32 -12 43 -26 43 -56
0 -31 -45 -33 -53 -2 -7 24 -40 23 -45 -2 -2 -10 9 -21 30 -29 75 -30 98 -83
59 -131 -40 -50 -151 -22 -151 38 0 19 5 23 30 23 24 0 30 -4 30 -21 0 -15 5
-20 22 -17 42 6 33 36 -16 58 -76 32 -89 107 -23 135 39 17 39 17 74 4z m202
-4 c26 -13 46 -56 33 -70 -14 -14 -50 -3 -55 16 -4 13 -12 20 -24 17 -29 -5
-21 -32 15 -50 73 -36 92 -81 53 -129 -15 -19 -29 -24 -66 -24 -37 0 -51 5
-66 24 -29 36 -25 61 10 61 21 0 30 -6 34 -21 7 -25 40 -22 45 4 3 12 -9 23
-42 37 -74 31 -86 108 -22 136 40 17 51 17 85 -1z m200 4 c17 -6 36 -19 41
-29 6 -10 10 -62 10 -115 l0 -97 -32 3 c-18 1 -48 -1 -66 -5 -50 -12 -82 13
-82 64 0 44 20 64 83 81 28 7 37 15 35 27 -5 25 -45 27 -58 3 -11 -22 -44 -28
-55 -11 -12 20 8 59 38 74 38 19 45 19 86 5z m319 -22 c16 -15 22 -32 22 -64
l0 -43 -61 0 c-60 0 -60 0 -57 -27 3 -32 44 -46 54 -19 9 23 64 21 64 -2 0
-49 -66 -84 -121 -64 -50 20 -59 37 -59 121 0 68 3 80 23 98 12 11 29 23 37
26 25 9 73 -4 98 -26z m1000 -3 c18 -21 22 -36 22 -98 0 -77 -15 -107 -61
-121 -31 -10 -84 3 -105 26 -23 26 -31 127 -13 170 24 60 111 73 157 23z m240
8 c8 -10 12 -52 12 -119 l0 -103 -30 0 -30 0 0 90 c0 75 -3 92 -17 97 -32 12
-53 -32 -53 -113 l0 -74 -30 0 -30 0 0 120 0 120 29 0 c16 0 31 -5 33 -11 2
-6 14 -5 33 5 33 17 63 13 83 -12z m530 -8 c15 -17 22 -38 22 -65 l0 -39 -61
0 c-60 0 -60 0 -57 -27 3 -32 44 -46 54 -19 4 10 18 16 35 16 22 0 29 -5 29
-20 0 -42 -64 -79 -115 -66 -52 13 -65 39 -65 124 0 69 3 81 23 99 12 11 29
23 37 26 28 11 75 -3 98 -29z m539 12 c7 -6 13 -53 15 -116 l3 -105 -32 -3
-33 -3 0 91 c0 72 -3 92 -15 96 -33 13 -45 -15 -45 -102 l0 -84 -35 0 -35 0 0
120 0 120 35 0 c19 0 35 -4 35 -9 0 -6 12 -3 28 4 28 15 58 12 79 -9z m221
-12 c19 -22 22 -36 22 -120 l0 -95 -42 1 c-24 1 -54 -1 -68 -5 -34 -9 -80 27
-80 61 0 41 18 63 63 75 52 15 67 26 60 45 -8 21 -41 17 -55 -6 -12 -19 -48
-27 -60 -14 -15 14 11 60 43 77 43 22 86 16 117 -19z m391 25 c36 -13 61 -53
61 -99 l0 -30 -59 0 c-65 0 -73 -5 -64 -38 6 -26 53 -32 53 -7 0 11 11 15 36
15 32 0 35 -2 29 -22 -13 -43 -42 -63 -90 -63 -64 0 -87 27 -93 105 -5 75 11
118 52 136 38 16 36 16 75 3z m204 -3 c15 -8 27 -11 27 -5 0 5 14 9 30 9 l30
0 0 -149 c0 -134 -2 -151 -20 -174 -41 -52 -147 -44 -170 13 -7 16 -9 34 -5
39 9 15 46 7 60 -12 27 -37 75 -10 75 43 0 17 -3 19 -19 10 -36 -19 -78 -12
-100 16 -16 21 -21 41 -21 88 0 85 8 106 44 122 39 17 36 17 69 0z m285 -22
c19 -22 22 -36 22 -120 l0 -95 -42 1 c-24 1 -54 -1 -68 -5 -35 -9 -80 27 -80
64 0 39 19 60 70 75 33 10 46 19 48 35 4 28 -31 29 -51 0 -22 -30 -63 -23 -59
11 10 70 109 91 160 34z m-3048 -94 l0 -120 -35 0 -35 0 0 113 c0 63 3 117 7
120 3 4 19 7 35 7 l28 0 0 -120z m2280 63 c19 -91 25 -93 45 -14 17 70 18 71
50 71 l33 0 -52 -177 -51 -178 -33 -3 c-29 -3 -33 -1 -29 15 31 106 31 95 -2
207 -18 59 -35 114 -38 122 -4 10 4 14 29 14 34 0 35 -1 48 -57z"/>
<path d="M6613 9773 c-20 -4 -23 -11 -23 -51 l0 -47 85 0 85 0 0 46 c0 40 -3
48 -22 53 -25 6 -90 6 -125 -1z"/>
<path d="M1595 6928 c-2 -7 -11 -76 -19 -153 -9 -77 -20 -169 -25 -205 -11
-72 -37 -322 -46 -445 -4 -44 -15 -154 -25 -245 -11 -91 -26 -244 -35 -340 -8
-96 -20 -200 -25 -230 -17 -98 -40 -353 -40 -435 1 -44 -4 -107 -10 -140 -19
-115 -22 -111 73 -124 67 -9 250 -26 482 -45 53 -4 89 15 110 61 10 21 37 80
62 131 65 138 65 138 52 201 -7 31 -16 61 -20 67 -34 44 -51 269 -28 359 5 22
14 83 19 136 5 52 14 107 21 122 14 30 5 67 -13 49 -6 -6 -16 -8 -23 -6 -21 8
-38 -25 -38 -77 0 -37 -6 -59 -23 -82 -13 -18 -32 -48 -43 -68 -11 -19 -27
-41 -36 -49 -28 -24 -44 -64 -33 -83 7 -14 6 -18 -4 -16 -7 1 -21 -1 -31 -6
-13 -5 -15 -11 -7 -20 8 -9 8 -15 0 -20 -5 -3 -10 -15 -10 -26 0 -10 -4 -19
-10 -19 -5 0 -10 7 -10 15 0 8 -4 15 -9 15 -4 0 -7 -18 -5 -40 4 -46 -2 -51
-16 -15 -14 36 -33 32 -25 -5 7 -31 0 -36 -24 -21 -15 10 -61 -6 -61 -21 0 -4
-3 -7 -7 -6 -15 3 -93 -23 -93 -31 0 -4 -18 -13 -40 -20 -22 -6 -40 -15 -40
-19 0 -4 -14 -23 -31 -42 -30 -34 -30 -35 -15 -5 8 17 38 57 66 90 63 74 97
130 184 310 104 214 131 284 121 314 -4 14 1 24 19 36 13 9 37 40 52 70 l28
54 -29 23 c-16 13 -36 28 -44 35 -13 10 -14 15 -4 32 8 13 9 22 3 26 -17 10
-28 -4 -25 -30 2 -26 -1 -28 -52 -25 -24 1 -33 -4 -38 -19 -7 -22 -39 -29 -50
-11 -3 6 -1 10 4 10 6 0 11 14 11 30 0 28 3 30 35 30 19 0 35 5 35 10 0 6 -6
10 -12 10 -7 0 3 13 22 29 l34 29 -79 7 c-99 8 -115 13 -115 30 0 8 -10 20
-22 27 -22 11 -22 12 17 23 39 12 40 12 43 63 3 56 19 67 52 37 24 -22 150
-47 167 -34 7 6 35 9 63 7 50 -3 66 5 33 17 -10 3 -29 21 -43 41 -39 55 -51
65 -70 59 -29 -9 -51 4 -40 25 14 26 12 67 -2 73 -18 8 10 27 28 20 8 -3 21 3
30 12 16 15 16 19 -3 53 -11 20 -20 49 -19 63 1 17 -3 25 -10 22 -7 -2 -15 5
-19 16 -3 12 -13 21 -21 21 -22 0 -54 32 -54 55 0 25 -22 75 -32 75 -5 0 -8 9
-8 20 0 11 -5 20 -12 20 -6 0 -8 3 -5 7 4 3 -5 16 -18 29 -14 13 -25 28 -25
33 0 6 -16 13 -35 17 -19 3 -32 10 -29 15 3 5 -2 9 -11 9 -8 0 -18 -6 -20 -12z"/>
<path d="M2933 6808 c1 -7 12 -24 25 -38 12 -14 34 -63 48 -109 24 -79 25 -85
9 -97 -14 -10 -14 -13 -2 -21 16 -9 34 -73 20 -73 -4 0 -17 7 -27 15 -28 21
-76 20 -76 -3 0 -23 31 -41 85 -49 38 -5 46 -10 52 -31 3 -14 0 -39 -7 -56 -7
-17 -16 -70 -19 -118 -5 -76 -9 -91 -31 -113 -22 -22 -37 -26 -110 -31 -102
-6 -152 -16 -157 -30 -2 -6 21 -27 52 -47 67 -45 73 -73 34 -150 -14 -28 -17
-43 -9 -57 21 -39 10 -68 -49 -142 -33 -40 -57 -75 -54 -78 2 -3 37 29 76 71
40 42 77 75 82 74 32 -6 66 -28 100 -64 22 -23 44 -41 50 -41 6 0 20 -6 30
-14 17 -12 17 -17 5 -45 -17 -42 -9 -47 28 -16 l30 25 15 -24 c21 -31 32 -76
19 -76 -5 0 -9 -11 -9 -25 0 -29 9 -32 31 -10 8 8 32 15 56 15 22 0 57 9 78
19 44 24 112 85 113 103 0 7 2 20 5 28 2 8 7 29 10 45 4 17 15 39 24 50 10 11
22 37 25 58 4 21 14 41 21 44 8 3 14 14 14 24 0 17 45 49 70 49 19 0 49 43 56
80 9 48 21 68 44 75 25 8 25 26 0 55 -26 30 -25 33 10 28 29 -4 29 -4 13 14
-16 17 -17 17 -37 1 -12 -10 -24 -22 -28 -28 -5 -7 -8 -7 -9 0 0 6 -2 20 -5
32 -2 12 2 23 11 27 8 3 15 11 15 19 0 18 55 36 126 41 53 4 59 7 65 30 7 25
5 26 -32 26 -28 0 -39 4 -39 15 0 14 46 31 66 26 8 -3 34 55 34 73 0 6 -5 4
-10 -4 -11 -18 -23 -8 -49 41 -21 39 -42 47 -64 24 -12 -12 -22 -13 -42 -5
-41 16 -65 12 -85 -12 -16 -20 -20 -21 -42 -9 -14 7 -33 11 -44 9 -11 -2 -20
4 -22 13 -2 12 7 18 32 23 46 9 54 24 25 48 -20 16 -34 18 -91 13 -67 -6 -96
7 -40 18 18 4 33 18 46 41 21 39 31 44 39 22 4 -9 14 -12 26 -9 12 3 18 10 15
15 -3 5 2 18 12 29 9 10 15 20 13 22 -57 33 -100 42 -84 17 3 -4 -6 -15 -20
-24 -19 -12 -30 -14 -44 -6 -22 11 -35 -8 -21 -30 9 -15 2 -40 -11 -40 -4 0
-13 15 -18 33 -57 183 -50 177 -221 193 -187 17 -251 18 -247 2z"/>
<path d="M2522 6255 c-6 -13 -18 -53 -27 -87 -21 -84 -33 -105 -72 -129 -41
-26 -50 -20 -30 20 14 28 14 31 -7 44 -36 23 -85 40 -100 34 -7 -3 -16 -22
-18 -42 -4 -31 1 -41 28 -67 19 -18 30 -37 27 -47 -2 -10 3 -23 11 -30 20 -17
21 -41 2 -41 -22 0 -30 -19 -16 -35 10 -12 10 -18 0 -30 -14 -17 -5 -35 19
-35 10 0 26 -10 34 -22 14 -20 16 -21 16 -5 1 10 5 16 10 13 5 -3 7 -14 5 -24
-6 -24 32 -82 54 -82 9 0 27 7 39 15 19 13 22 13 27 -1 3 -9 6 -42 6 -75 0
-33 4 -59 10 -59 6 0 10 30 10 70 l0 70 33 -8 c88 -19 137 2 76 34 l-32 16 24
19 c31 24 40 24 46 -1 3 -11 9 -20 14 -20 16 0 10 49 -8 68 -10 10 -19 31 -21
47 -2 16 -14 54 -27 84 -12 31 -26 76 -30 101 -4 25 -13 52 -20 60 -6 8 -25
50 -40 93 -15 42 -29 77 -30 77 -1 0 -7 -11 -13 -25z"/>
<path d="M5104 5913 c-13 -5 39 -168 66 -205 l20 -27 -32 -70 c-17 -39 -35
-71 -39 -71 -5 0 -9 -5 -9 -11 0 -5 4 -8 9 -5 5 3 14 -8 20 -24 10 -31 31 -41
31 -16 0 7 2 29 5 47 l5 34 -14 -30 c-9 -16 -15 -24 -16 -17 0 7 8 27 17 45 9
18 17 40 18 49 2 16 123 208 132 208 5 0 7 4 -47 -88 -23 -40 -40 -75 -38 -78
3 -3 23 19 44 48 78 109 71 92 -23 -56 -63 -99 -84 -153 -39 -99 33 40 126
191 148 241 23 51 17 69 -7 23 -23 -46 -27 -38 -5 12 11 23 20 52 20 64 0 23
-21 44 -27 26 -8 -22 -95 -153 -102 -153 -4 0 -13 17 -19 38 -7 20 -21 52 -33
71 -16 27 -23 31 -30 20 -6 -9 -9 -10 -9 -2 0 15 -30 32 -46 26z"/>
<path d="M4631 5880 c-23 -17 -72 -71 -108 -121 -40 -53 -72 -89 -81 -87 -44
9 -39 80 5 96 25 9 26 10 6 11 -30 1 -63 -33 -63 -64 0 -14 9 -34 21 -46 23
-23 20 -40 -15 -83 l-23 -28 -24 43 c-25 44 -59 64 -59 35 0 -9 3 -16 8 -16 4
0 18 -21 32 -46 l24 -47 -28 -24 c-46 -39 -61 -28 -59 41 2 64 -9 65 -26 1 -8
-31 -8 -44 4 -62 19 -29 45 -29 93 -1 l38 21 42 -31 c82 -59 202 -62 238 -7 9
14 22 25 30 25 7 0 29 14 49 31 81 72 108 179 45 179 -21 0 -40 -14 -79 -55
-51 -56 -69 -103 -57 -143 9 -26 -14 -48 -57 -56 -41 -8 -133 23 -173 58 l-26
22 41 52 c38 48 45 52 84 52 112 1 247 123 247 224 0 26 -6 38 -22 47 -21 11
-22 11 -9 -4 30 -37 -26 -152 -98 -202 -40 -27 -125 -58 -135 -48 -9 9 94 153
151 210 57 59 49 70 -16 23z"/>
<path d="M4101 5783 c-44 -45 -111 -175 -111 -217 0 -20 3 -36 8 -36 13 0 110
89 143 133 32 41 31 41 -22 -10 -86 -83 -89 -68 -13 66 24 43 44 82 44 85 0
14 -24 4 -49 -21z"/>
<path d="M3530 5558 c-91 -79 -291 -190 -415 -228 -38 -12 -80 -29 -92 -36
-13 -8 -23 -12 -23 -9 0 3 -16 -1 -35 -9 -20 -9 -39 -14 -43 -13 -4 1 -8 -38
-9 -88 -4 -154 -24 -327 -44 -385 -22 -58 -45 -93 -124 -185 -187 -219 -225
-276 -172 -259 44 13 104 43 117 59 7 8 19 15 26 15 8 0 14 4 14 8 0 7 64 58
109 87 20 13 281 273 281 280 0 3 20 25 44 48 24 23 50 56 59 72 8 17 25 40
36 52 12 12 21 27 21 32 0 6 9 15 20 21 11 6 20 17 20 24 0 7 11 24 24 38 14
13 30 45 37 71 6 26 15 44 20 41 5 -3 9 4 9 14 0 11 14 47 30 80 17 34 30 64
30 67 0 3 9 15 20 27 11 12 20 30 20 41 0 10 10 32 21 49 12 16 22 43 24 58 1
16 8 36 15 45 21 26 -3 16 -40 -17z"/>
</g>
</svg>
