<?xml version="1.0" standalone="no"?>
<!DOCTYPE svg PUBLIC "-//W3C//DTD SVG 20010904//EN"
 "http://www.w3.org/TR/2001/REC-SVG-20010904/DTD/svg10.dtd">
<svg version="1.0" xmlns="http://www.w3.org/2000/svg"
 width="720.000000pt" height="1280.000000pt" viewBox="0 0 720.000000 1280.000000"
 preserveAspectRatio="xMidYMid meet">
<metadata>
Created by potrace 1.16, written by Peter Selinger 2001-2019
</metadata>
<g transform="translate(0.000000,1280.000000) scale(0.100000,-0.100000)"
fill="#000000" stroke="none">
<path d="M0 6400 l0 -6400 3600 0 3600 0 0 1025 0 1025 -3590 0 -3590 0 0
2354 c0 1544 3 2355 10 2358 6 2 6 17 -1 43 -8 29 -10 374 -5 1240 l6 1200
1330 3 1330 2 -5 -37 c-8 -66 -16 -146 -21 -203 -2 -30 -9 -82 -14 -115 -5
-33 -12 -87 -15 -120 -4 -33 -13 -118 -21 -190 -8 -71 -19 -175 -24 -230 -6
-55 -15 -119 -21 -142 -6 -23 -9 -45 -6 -50 2 -4 1 -35 -4 -68 -4 -33 -19
-166 -33 -295 -14 -129 -30 -262 -36 -295 -5 -33 -17 -127 -25 -210 -8 -82
-18 -170 -21 -194 l-6 -44 34 6 c18 2 42 0 53 -6 11 -6 41 -9 67 -8 27 1 48
-2 48 -7 0 -5 6 -9 13 -9 60 0 347 -128 405 -180 29 -27 38 -28 45 -9 3 8 55
83 114 168 60 84 115 163 123 175 8 11 56 78 105 147 112 157 204 287 244 346
38 54 261 372 511 725 101 143 245 348 320 455 143 205 223 318 238 336 5 5
15 20 21 32 l12 22 1204 0 1205 0 0 1775 0 1775 -3600 0 -3600 0 0 -6400z
m6796 3680 c151 -69 198 -267 95 -405 -25 -34 -27 -41 -14 -50 14 -10 14 -14
-2 -38 -22 -35 -90 -46 -136 -23 -33 16 -80 14 -147 -6 -47 -14 -99 -2 -118
28 -13 20 -14 27 -4 39 11 13 9 19 -8 38 -85 90 -82 268 6 360 77 81 220 106
328 57z m-653 4 c29 -10 64 -34 92 -62 124 -125 89 -333 -68 -412 -133 -66
-310 -20 -370 96 -47 91 -44 191 7 276 25 43 43 59 94 85 54 28 75 33 131 33
37 0 88 -7 114 -16z m-5802 -244 c21 -91 39 -168 39 -172 0 -5 -15 -8 -33 -8
-28 0 -34 4 -42 32 -9 29 -14 32 -50 31 -36 0 -40 -3 -47 -31 -8 -28 -13 -32
-42 -32 l-34 0 14 58 c7 31 26 110 41 175 l27 118 44 -3 45 -3 38 -165z m369
78 l1 -93 30 38 c23 27 39 37 60 37 16 0 29 -3 29 -6 0 -4 -16 -28 -35 -53
-30 -41 -33 -50 -21 -67 7 -10 25 -40 40 -66 l27 -48 -35 0 c-30 0 -38 5 -57
40 -26 45 -39 43 -39 -6 0 -31 -2 -34 -30 -34 l-30 0 0 175 0 175 30 0 30 0 0
-92z m1740 -83 l0 -176 -42 1 c-24 1 -55 -1 -69 -5 -19 -5 -33 -1 -55 18 -28
24 -29 29 -28 107 1 68 4 85 21 102 22 21 54 27 91 14 21 -7 22 -5 22 53 l0
61 30 0 30 0 0 -175z m452 83 l3 -92 25 37 c20 30 31 37 58 37 30 0 42 -12 24
-24 -5 -3 -21 -23 -36 -44 l-27 -40 40 -66 41 -66 -34 0 c-28 0 -38 7 -62 43
l-29 42 -3 -42 c-3 -42 -4 -43 -38 -43 l-34 0 0 175 0 175 35 0 34 0 3 -92z
m728 27 l0 -66 30 16 c33 17 60 13 85 -11 11 -12 15 -40 15 -120 l0 -104 -30
0 -30 0 0 90 c0 75 -3 92 -16 97 -37 14 -49 -10 -52 -101 l-3 -86 -29 0 -30 0
0 175 0 175 30 0 30 0 0 -65z m530 4 c0 -58 1 -60 23 -53 76 26 107 -8 107
-118 0 -71 -2 -81 -26 -105 -20 -20 -31 -24 -52 -18 -15 4 -46 6 -69 5 l-43
-1 0 176 0 175 30 0 30 0 0 -61z m-1480 -9 c0 -38 2 -40 30 -40 25 0 30 -4 30
-25 0 -21 -5 -25 -30 -25 l-31 0 3 -67 c3 -66 4 -68 31 -71 21 -3 27 -8 23
-19 -3 -8 -6 -19 -6 -24 0 -16 -73 -10 -92 8 -14 13 -18 31 -18 90 0 66 -2 75
-20 80 -13 3 -20 14 -20 29 0 17 6 24 20 24 16 0 20 7 20 33 0 40 6 47 37 47
20 0 23 -5 23 -40z m-2096 -61 c24 -23 34 -121 17 -172 -15 -44 -59 -66 -97
-48 -14 6 -27 11 -29 11 -3 0 -5 -30 -5 -66 l0 -65 -27 3 -28 3 -3 179 -2 179
37 -5 c21 -3 47 -2 58 3 26 10 55 2 79 -22z m405 20 c44 -16 51 -35 51 -143
l0 -96 -47 -1 c-27 0 -60 -1 -75 -1 -40 -1 -58 19 -58 63 0 43 20 63 83 80 28
7 37 15 35 27 -5 26 -48 28 -55 3 -4 -14 -13 -21 -29 -21 -65 0 -15 96 52 99
6 1 25 -4 43 -10z m290 0 c38 -14 51 -35 51 -88 l0 -41 -61 0 c-60 0 -60 0
-57 -27 3 -32 44 -46 54 -19 4 10 18 16 35 16 35 0 39 -25 10 -61 -15 -19 -29
-24 -66 -24 -39 0 -51 5 -71 28 -20 24 -24 39 -24 96 0 75 21 116 63 124 12 2
25 5 28 6 3 0 20 -4 38 -10z m198 0 c32 -12 43 -26 43 -56 0 -31 -45 -33 -53
-3 -7 26 -47 27 -47 1 0 -11 12 -23 30 -31 78 -32 101 -82 61 -131 -15 -19
-29 -24 -66 -24 -37 0 -51 5 -66 24 -29 36 -25 61 11 61 24 0 30 -4 30 -21 0
-15 5 -20 22 -17 40 5 31 32 -19 58 -91 48 -80 135 19 149 4 1 19 -4 35 -10z
m191 0 c29 -10 59 -59 45 -73 -15 -15 -51 -5 -56 15 -4 13 -12 20 -24 17 -29
-5 -21 -32 15 -50 73 -36 92 -81 53 -129 -15 -19 -29 -24 -66 -24 -37 0 -51 5
-66 24 -29 36 -25 61 10 61 21 0 30 -6 34 -21 7 -25 40 -22 45 3 2 12 -11 24
-43 39 -74 35 -86 106 -22 134 39 17 37 17 75 4z m211 0 c17 -6 36 -19 41 -29
6 -10 10 -62 10 -115 l0 -97 -32 3 c-18 1 -48 -1 -66 -5 -50 -12 -82 13 -82
64 0 44 20 64 83 81 28 7 37 15 35 27 -5 25 -45 27 -58 3 -13 -24 -48 -28 -56
-6 -8 20 21 64 49 75 30 12 39 12 76 -1z m318 -21 c17 -16 23 -33 23 -65 l0
-43 -61 0 c-60 0 -60 0 -57 -27 3 -32 44 -46 54 -19 8 20 64 22 64 2 0 -69
-102 -98 -158 -45 -19 17 -22 31 -22 98 0 68 3 80 23 98 12 11 29 23 37 26 25
10 73 -2 97 -25z m1001 -4 c18 -21 22 -36 22 -98 0 -65 -3 -75 -26 -97 -35
-33 -104 -34 -136 -2 -27 28 -37 127 -17 174 24 60 111 73 157 23z m240 8 c8
-10 12 -52 12 -119 l0 -103 -30 0 -30 0 0 90 c0 75 -3 92 -17 97 -32 12 -53
-32 -53 -113 l0 -74 -30 0 -30 0 0 120 0 120 29 0 c16 0 31 -5 33 -11 2 -6 14
-5 33 5 33 17 63 13 83 -12z m529 -4 c17 -16 23 -33 23 -65 l0 -43 -61 0 c-60
0 -60 0 -57 -27 3 -32 44 -46 54 -19 4 10 18 16 35 16 22 0 29 -5 29 -20 0
-42 -64 -79 -115 -66 -52 13 -65 39 -65 124 0 69 3 81 23 99 12 11 29 23 37
26 25 10 73 -2 97 -25z m540 8 c6 -6 13 -57 16 -118 l5 -108 -34 0 -34 0 0 90
c0 72 -3 92 -15 96 -33 13 -45 -15 -45 -102 l0 -84 -35 0 -35 0 0 120 0 120
35 0 c19 0 35 -4 35 -9 0 -6 12 -3 28 4 28 15 58 12 79 -9z m218 -7 c17 -16
21 -35 23 -120 l4 -100 -44 1 c-23 1 -54 -1 -68 -5 -35 -9 -80 27 -80 64 0 39
19 60 70 75 33 10 46 19 48 35 4 28 -33 29 -50 1 -12 -19 -48 -27 -60 -14 -15
14 11 60 43 77 40 20 84 15 114 -14z m400 16 c37 -15 55 -46 55 -96 0 -29 0
-29 -59 -29 -65 0 -73 -5 -64 -38 6 -26 53 -32 53 -7 0 11 11 15 36 15 32 0
35 -2 29 -22 -4 -13 -18 -34 -33 -47 -21 -19 -33 -22 -65 -18 -59 8 -80 35
-85 107 -5 75 11 118 52 136 39 17 40 17 81 -1z m198 1 c15 -8 27 -11 27 -5 0
5 14 9 31 9 l30 0 -3 -154 c-3 -134 -5 -157 -22 -175 -42 -46 -144 -35 -166
19 -7 16 -9 34 -5 39 10 18 44 12 57 -9 27 -42 78 -15 78 41 0 18 -3 20 -12
11 -7 -7 -29 -12 -49 -12 -56 0 -79 34 -79 116 0 72 13 107 44 122 29 14 37
14 69 -2z m285 -22 c19 -22 22 -36 22 -120 l0 -95 -42 1 c-24 1 -55 -1 -70 -5
-21 -6 -32 -2 -52 18 -48 48 -29 99 44 121 33 10 46 19 48 35 4 28 -33 29 -50
1 -12 -19 -48 -27 -60 -14 -15 14 11 60 43 77 43 22 86 16 117 -19z m-3048
-94 l0 -120 -35 0 -35 0 0 113 c0 63 3 117 7 120 3 4 19 7 35 7 l28 0 0 -120z
m2271 103 c0 -10 8 -43 18 -73 l17 -55 19 73 c18 70 20 72 51 72 l32 0 -24
-82 c-79 -281 -76 -273 -113 -276 -28 -3 -33 -1 -27 14 29 76 29 101 -4 209
-17 59 -34 113 -37 121 -4 10 4 14 31 14 27 0 36 -4 37 -17z"/>
<path d="M6613 9773 c-20 -4 -23 -11 -23 -51 l0 -47 85 0 85 0 0 46 c0 40 -3
48 -22 53 -25 6 -90 6 -125 -1z"/>
<path d="M7159 7970 c-9 -5 -121 -50 -250 -99 -311 -119 -292 -109 -286 -145
3 -17 14 -56 24 -86 26 -72 64 -190 103 -320 17 -58 36 -116 42 -130 6 -14 25
-70 43 -125 18 -55 39 -118 47 -140 9 -22 25 -74 37 -115 12 -41 25 -82 28
-90 3 -8 15 -42 27 -75 14 -40 26 -59 36 -58 8 1 53 15 100 31 l85 29 3 667
c2 697 3 681 -39 656z"/>
<path d="M6075 7551 c-38 -16 -106 -42 -150 -59 -44 -17 -222 -85 -395 -152
-173 -67 -393 -151 -487 -187 -95 -36 -173 -69 -173 -73 0 -14 115 -31 293
-45 187 -15 207 -13 297 28 126 57 456 171 470 162 5 -3 10 -31 10 -61 0 -44
3 -54 18 -55 14 -1 14 -2 -3 -8 -11 -4 -33 -13 -50 -20 -31 -14 -52 -23 -145
-62 -30 -12 -57 -24 -59 -25 -7 -6 28 -34 41 -34 19 0 48 -63 48 -105 0 -27
-8 -40 -42 -69 -23 -20 -53 -37 -67 -37 -14 -1 -37 -3 -51 -4 -47 -5 -130 57
-151 112 -5 13 -15 26 -24 29 -8 3 -85 -20 -172 -51 -229 -82 -464 -166 -493
-175 -14 -4 -37 -13 -52 -19 l-27 -10 24 -56 c165 -373 564 -526 1060 -407 29
7 30 10 33 70 l3 62 -174 0 c-150 0 -176 2 -181 16 -3 9 -6 82 -6 164 l0 148
113 6 c61 3 265 9 452 12 187 4 369 9 405 13 63 6 65 7 75 41 5 19 13 40 17
45 14 23 32 136 34 214 2 177 -74 390 -174 484 -28 26 -63 52 -77 59 -14 6
-25 14 -25 18 0 10 -106 60 -127 60 -10 0 -49 -13 -88 -29z"/>
<path d="M3039 6500 c-230 -27 -426 -242 -515 -565 -28 -102 -24 -319 8 -455
11 -47 40 -125 64 -175 86 -180 202 -295 359 -357 69 -27 93 -31 175 -32 137
-1 214 18 261 65 21 21 48 57 59 79 12 23 27 43 35 47 8 3 15 13 15 22 0 9 4
21 8 26 4 6 18 35 29 65 105 269 123 410 83 648 -23 138 -52 235 -80 274 -11
15 -20 33 -20 40 0 20 -87 169 -119 203 -15 16 -35 42 -44 57 -36 57 -147 78
-318 58z"/>
<path d="M5485 5503 c-118 -14 -238 -44 -305 -76 -139 -65 -265 -184 -318
-300 -20 -42 -44 -117 -59 -184 -3 -14 -1 -23 7 -23 18 0 630 -89 690 -100 78
-15 83 -13 105 33 24 51 61 71 115 62 63 -11 120 -83 120 -152 0 -15 4 -33 8
-39 4 -6 52 -19 107 -29 55 -9 165 -30 245 -45 177 -35 275 -49 360 -52 l65
-3 0 130 c-1 107 -5 143 -23 201 -43 135 -150 284 -266 369 -31 22 -42 26 -56
17 -11 -7 -94 -12 -221 -13 l-204 -1 -3 90 c-2 76 -6 92 -20 96 -58 18 -263
30 -347 19z"/>
<path d="M7012 5243 c-5 -10 -12 -47 -16 -83 -4 -36 -14 -103 -22 -150 -28
-168 -85 -526 -95 -598 -10 -79 -8 -92 21 -92 10 0 63 -9 117 -19 54 -10 117
-22 141 -26 l42 -7 0 480 c0 540 9 484 -80 497 -25 3 -57 8 -72 11 -19 4 -29
0 -36 -13z"/>
<path d="M4790 4766 c0 -30 4 -57 8 -60 7 -4 554 -106 922 -171 74 -13 150
-27 168 -31 21 -4 32 -3 32 5 0 6 -5 11 -12 11 -6 0 -26 11 -44 25 -18 14 -35
25 -38 25 -3 0 -38 21 -77 48 -108 71 -127 79 -204 85 -38 4 -218 31 -400 62
-181 30 -335 55 -342 55 -9 0 -13 -17 -13 -54z"/>
</g>
</svg>
