<?xml version="1.0" standalone="no"?>
<!DOCTYPE svg PUBLIC "-//W3C//DTD SVG 20010904//EN"
 "http://www.w3.org/TR/2001/REC-SVG-20010904/DTD/svg10.dtd">
<svg version="1.0" xmlns="http://www.w3.org/2000/svg"
 width="720.000000pt" height="1280.000000pt" viewBox="0 0 720.000000 1280.000000"
 preserveAspectRatio="xMidYMid meet">
<metadata>
Created by potrace 1.16, written by Peter Selinger 2001-2019
</metadata>
<g transform="translate(0.000000,1280.000000) scale(0.100000,-0.100000)"
fill="#000000" stroke="none">
<path d="M0 6400 l0 -6400 3600 0 3600 0 0 1025 0 1025 -3590 0 -3590 0 0
3600 0 3600 3590 0 3590 0 0 1775 0 1775 -3600 0 -3600 0 0 -6400z m6795 3680
c149 -64 198 -258 100 -396 -30 -42 -32 -49 -18 -59 13 -10 13 -15 2 -33 -27
-43 -87 -53 -145 -26 -30 14 -42 15 -87 4 -28 -7 -74 -13 -101 -14 -42 -1 -51
3 -72 29 -22 28 -23 31 -7 42 15 12 15 15 -5 35 -55 60 -78 178 -50 269 23 77
103 146 195 168 49 12 137 3 188 -19z m-652 4 c52 -18 116 -76 143 -132 27
-55 26 -174 -3 -227 -51 -94 -120 -136 -233 -143 -63 -4 -85 -1 -128 18 -143
62 -200 232 -124 373 44 81 125 126 233 126 36 1 86 -6 112 -15z m-5802 -239
c21 -88 38 -166 38 -172 1 -8 -12 -13 -32 -13 -28 0 -34 4 -42 33 -9 29 -13
32 -50 31 -35 -1 -40 -4 -47 -32 -8 -28 -13 -32 -42 -32 l-34 0 14 58 c7 31
26 110 41 175 l27 118 44 -3 45 -3 38 -160z m369 73 l1 -93 30 38 c23 27 39
37 60 37 16 0 29 -3 29 -6 0 -4 -16 -27 -35 -53 l-34 -47 21 -35 c11 -19 29
-49 40 -66 l20 -33 -36 0 c-30 0 -38 5 -57 40 -26 45 -39 43 -39 -6 0 -31 -2
-34 -30 -34 l-30 0 0 175 0 175 30 0 30 0 0 -92z m1740 -84 l0 -177 -40 6
c-22 3 -43 1 -46 -4 -9 -16 -50 -10 -77 11 -31 25 -45 104 -28 167 17 61 50
79 109 59 21 -7 22 -5 22 53 l0 61 30 0 30 0 0 -176z m452 84 l3 -92 25 37
c20 30 31 37 58 37 30 0 42 -12 24 -24 -5 -3 -21 -23 -36 -44 l-27 -40 40 -66
41 -66 -34 0 c-28 0 -38 7 -62 43 l-29 42 -3 -43 c-3 -42 -4 -43 -35 -40 l-32
3 -3 173 -2 172 34 0 35 0 3 -92z m728 28 l0 -64 29 14 c31 15 77 6 93 -19 4
-7 8 -58 8 -114 l0 -103 -30 0 -29 0 -3 92 c-3 83 -5 93 -22 96 -33 7 -46 -25
-46 -110 l0 -78 -30 0 -30 0 0 175 0 175 30 0 30 0 0 -64z m530 3 c0 -55 2
-60 18 -53 31 13 76 5 95 -17 13 -16 17 -40 17 -101 0 -71 -2 -81 -26 -105
-21 -21 -31 -24 -57 -18 -18 4 -49 6 -69 6 l-38 -2 0 176 0 175 30 0 30 0 0
-61z m-1480 -9 c0 -38 2 -40 30 -40 25 0 30 -4 30 -25 0 -21 -5 -25 -30 -25
l-31 0 3 -67 c3 -66 4 -68 31 -71 28 -3 31 -9 21 -36 -8 -22 -72 -21 -96 1
-14 13 -18 31 -18 90 0 66 -2 75 -20 80 -13 3 -20 14 -20 29 0 17 6 24 20 24
17 0 20 7 20 40 0 38 2 40 30 40 28 0 30 -2 30 -40z m-2096 -60 c24 -24 34
-122 17 -173 -15 -44 -59 -66 -97 -48 -14 6 -27 11 -29 11 -3 0 -5 -30 -5 -66
l0 -65 -27 3 -28 3 -3 179 -2 179 38 -6 c22 -2 46 -1 53 4 19 12 60 2 83 -21z
m405 19 c44 -16 51 -35 51 -143 l0 -96 -47 -1 c-27 0 -60 -1 -75 -1 -40 -1
-58 19 -58 63 0 43 20 63 83 80 28 7 37 15 35 27 -5 25 -45 27 -58 3 -13 -25
-48 -28 -57 -5 -8 21 28 67 58 75 35 10 33 10 68 -2z m295 -3 c36 -15 43 -28
48 -86 l3 -35 -63 -3 c-62 -3 -63 -3 -60 -30 3 -31 44 -44 54 -18 4 10 18 16
35 16 35 0 39 -25 10 -61 -15 -19 -29 -24 -66 -24 -39 0 -51 5 -71 28 -33 38
-35 150 -4 190 18 22 30 28 73 36 4 0 23 -5 41 -13z m193 3 c32 -12 43 -26 43
-56 0 -31 -45 -33 -53 -3 -7 26 -47 27 -47 1 0 -12 12 -23 33 -31 74 -30 97
-83 58 -131 -15 -19 -29 -24 -66 -24 -37 0 -51 5 -66 24 -28 34 -25 61 7 61
18 0 28 -6 31 -21 7 -25 46 -22 51 4 3 12 -9 23 -42 37 -76 32 -89 107 -23
135 39 17 39 17 74 4z m197 -3 c31 -13 53 -55 38 -71 -14 -14 -50 -3 -55 16
-4 13 -12 20 -24 17 -29 -5 -21 -32 15 -50 51 -25 72 -48 72 -78 0 -42 -29
-70 -77 -77 -35 -5 -45 -2 -67 20 -36 36 -35 67 3 67 20 0 30 -6 34 -20 7 -28
47 -27 47 0 0 15 -13 26 -45 40 -73 31 -85 108 -21 136 39 17 40 17 80 0z
m205 3 c17 -6 36 -19 41 -29 6 -10 10 -62 10 -115 l0 -97 -32 3 c-18 1 -48 -1
-66 -5 -50 -12 -82 13 -82 64 0 44 20 64 83 81 28 7 37 15 35 27 -5 25 -45 27
-58 3 -16 -30 -60 -28 -60 2 0 35 37 65 91 76 3 0 20 -4 38 -10z m318 -21 c17
-16 23 -33 23 -65 l0 -43 -61 0 c-60 0 -60 0 -57 -27 3 -32 44 -46 54 -19 8
20 64 22 64 2 0 -69 -102 -98 -158 -45 -19 17 -22 31 -22 98 0 68 3 80 23 98
12 11 29 23 37 26 25 10 73 -2 97 -25z m1001 -4 c18 -20 22 -37 22 -87 0 -84
-7 -105 -42 -123 -37 -19 -99 -11 -124 17 -23 26 -31 127 -13 170 25 61 112
74 157 23z m240 8 c8 -10 12 -52 12 -119 l0 -103 -30 0 -30 0 0 90 c0 75 -3
92 -17 97 -32 12 -53 -32 -53 -113 l0 -74 -30 0 -30 0 0 120 0 120 29 0 c16 0
31 -5 33 -11 2 -6 14 -5 33 5 33 17 63 13 83 -12z m530 -9 c15 -16 22 -37 22
-64 l0 -39 -61 0 c-60 0 -60 0 -57 -27 3 -32 44 -46 54 -19 4 10 18 16 35 16
35 0 40 -29 9 -60 -27 -27 -63 -34 -105 -20 -46 15 -55 34 -55 123 0 64 3 76
23 94 12 11 29 23 37 26 28 9 75 -5 98 -30z m757 6 c17 -16 21 -35 23 -120 l4
-100 -44 1 c-23 1 -54 -1 -68 -5 -35 -9 -80 27 -80 63 1 39 21 60 74 78 33 11
46 21 46 35 0 26 -36 25 -52 -1 -13 -20 -52 -27 -62 -12 -10 17 29 76 54 83
36 10 82 0 105 -22z m394 20 c36 -13 61 -53 61 -99 l0 -30 -59 0 c-65 0 -73
-5 -64 -38 6 -26 48 -31 57 -7 3 9 18 15 36 15 28 0 31 -3 25 -22 -4 -13 -18
-34 -33 -47 -21 -19 -33 -22 -65 -18 -59 8 -80 35 -85 107 -5 75 11 118 52
136 38 16 36 16 75 3z m249 0 l43 2 -3 -155 c-3 -134 -5 -157 -22 -175 -42
-46 -144 -35 -166 19 -7 16 -9 34 -5 39 10 18 44 12 57 -9 24 -38 78 -16 78
33 0 11 -11 13 -48 9 -44 -4 -51 -2 -70 23 -18 22 -22 41 -21 94 0 36 4 74 8
85 10 27 52 47 81 39 14 -3 44 -5 68 -4z m237 -20 c17 -16 21 -35 23 -120 l4
-100 -44 1 c-23 1 -55 -1 -70 -5 -21 -6 -32 -2 -52 18 -14 15 -26 38 -26 52 0
25 31 65 50 65 6 0 26 7 45 14 25 11 33 19 29 30 -9 23 -51 20 -59 -4 -4 -12
-15 -20 -29 -20 -32 0 -36 7 -24 42 20 56 107 71 153 27z m-3045 -99 l0 -120
-35 0 -35 0 0 120 0 120 35 0 35 0 0 -120z m1840 108 c0 -9 3 -9 12 0 16 16
83 15 96 0 5 -7 12 -60 14 -118 l3 -105 -32 -3 -33 -3 0 91 c0 72 -3 92 -15
96 -33 13 -45 -15 -45 -102 l0 -84 -35 0 -35 0 0 120 0 120 35 0 c21 0 35 -5
35 -12z m431 -5 c0 -10 8 -43 18 -73 l17 -55 18 73 c18 71 19 72 51 72 l33 0
-34 -117 c-69 -246 -66 -238 -103 -241 -28 -3 -32 -1 -28 15 31 106 31 95 -2
207 -18 59 -35 114 -38 122 -4 10 4 14 31 14 27 0 36 -4 37 -17z"/>
<path d="M6613 9773 c-20 -4 -23 -11 -23 -51 l0 -47 85 0 85 0 0 46 c0 40 -3
48 -22 53 -25 6 -90 6 -125 -1z"/>
<path d="M4446 7523 c-32 -23 -62 -43 -68 -43 -21 0 -48 22 -48 39 0 11 -7 22
-16 25 -22 8 -21 9 -28 -18 -11 -45 -76 -42 -76 4 0 10 -7 21 -16 24 -23 9
-27 8 -21 -8 5 -14 -16 -36 -53 -56 -12 -6 -53 -10 -93 -9 -78 3 -91 -1 -108
-33 -11 -20 -10 -21 42 -14 l54 7 -35 -30 -35 -30 46 -1 c25 0 49 4 55 9 5 5
29 12 54 15 l45 7 -27 -18 c-31 -20 -36 -38 -13 -47 25 -9 63 11 68 36 2 13 5
-4 6 -37 4 -142 72 -299 106 -244 4 5 18 14 32 20 23 9 24 12 18 64 -7 51 -6
55 14 55 11 0 20 3 20 8 -6 34 28 45 51 17 20 -24 30 -18 30 18 0 40 8 51 27
36 10 -9 13 -5 13 19 0 24 4 30 15 26 10 -4 13 -2 10 7 -3 8 8 21 26 32 22 12
30 23 26 36 -4 15 3 20 34 25 44 7 49 18 17 41 -16 12 -19 19 -10 22 6 3 12
12 12 21 0 14 -11 17 -58 18 -55 1 -63 -2 -116 -43z"/>
<path d="M1890 5770 c-54 -11 -103 -36 -129 -64 -21 -22 -22 -26 -8 -32 9 -3
36 -36 61 -72 71 -105 83 -209 36 -302 -11 -21 -20 -42 -20 -45 0 -3 35 -22
77 -43 66 -31 89 -37 164 -40 63 -3 100 0 136 12 204 68 245 291 84 455 -108
111 -262 161 -401 131z"/>
<path d="M1362 5749 c-102 -20 -192 -100 -208 -186 -28 -147 93 -304 275 -357
140 -41 302 11 361 116 91 161 -68 391 -297 428 -66 11 -71 11 -131 -1z"/>
<path d="M1267 4833 c-3 -5 1 -42 8 -83 7 -41 16 -96 20 -122 4 -34 11 -48 22
-48 13 0 15 9 10 45 -6 58 3 65 83 65 75 0 100 69 43 122 -20 19 -38 24 -103
26 -42 2 -80 0 -83 -5z"/>
<path d="M3438 4835 c-4 -4 41 -234 49 -244 1 -2 33 -3 70 -2 74 1 103 18 103
58 0 13 -12 36 -26 50 -23 23 -24 29 -13 49 10 19 9 27 -5 49 -9 14 -28 30
-42 35 -26 10 -127 14 -136 5z"/>
<path d="M1709 4751 c-16 -16 -29 -39 -29 -51 0 -33 26 -86 51 -104 29 -20 98
-21 125 -2 26 19 10 32 -21 18 -38 -18 -61 -15 -91 11 -39 34 -24 47 51 47 35
0 67 4 70 10 10 16 -24 69 -55 85 -43 22 -68 19 -101 -14z"/>
<path d="M2162 4770 c-57 -23 -53 -127 7 -167 39 -26 88 -30 117 -9 26 20 10
32 -22 17 -29 -13 -60 -7 -86 17 -35 30 -22 42 46 42 36 0 67 4 70 9 11 18
-14 61 -46 81 -36 22 -51 23 -86 10z"/>
<path d="M3059 4763 c-25 -29 -30 -52 -19 -92 18 -67 73 -98 139 -80 17 5 25
-20 13 -39 -10 -15 -34 -18 -82 -8 l-35 7 24 -21 c30 -26 85 -26 111 0 24 24
24 28 5 122 -25 123 -23 117 -53 117 -15 0 -41 3 -57 6 -23 5 -34 2 -46 -12z"/>
<path d="M4218 4749 c-18 -10 -25 -39 -9 -39 5 0 14 7 21 15 17 21 54 19 74
-4 24 -27 12 -41 -33 -41 -20 0 -42 -5 -49 -12 -20 -20 -13 -55 14 -77 30 -23
55 -26 85 -10 15 8 24 7 35 -2 23 -19 24 -8 5 71 -12 49 -26 80 -41 92 -24 20
-75 23 -102 7z"/>
</g>
</svg>
