<?xml version="1.0" standalone="no"?>
<!DOCTYPE svg PUBLIC "-//W3C//DTD SVG 20010904//EN"
 "http://www.w3.org/TR/2001/REC-SVG-20010904/DTD/svg10.dtd">
<svg version="1.0" xmlns="http://www.w3.org/2000/svg"
 width="720.000000pt" height="1280.000000pt" viewBox="0 0 720.000000 1280.000000"
 preserveAspectRatio="xMidYMid meet">
<metadata>
Created by potrace 1.16, written by Peter Selinger 2001-2019
</metadata>
<g transform="translate(0.000000,1280.000000) scale(0.100000,-0.100000)"
fill="#000000" stroke="none">
<path d="M0 6400 l0 -6400 3600 0 3600 0 0 1025 0 1025 -1947 2 -1948 3 -15
72 c-8 40 -22 79 -30 87 -8 8 -64 40 -124 70 -103 53 -114 56 -190 58 -100 4
-136 -12 -198 -82 -75 -85 -158 -119 -310 -127 -135 -7 -191 9 -263 75 -27 26
-51 52 -53 58 -2 6 -14 17 -28 24 -21 12 -33 11 -77 -3 -29 -9 -62 -19 -74
-22 -13 -4 -23 -11 -23 -16 0 -5 -16 -9 -36 -9 -25 0 -47 -9 -69 -28 -63 -52
-90 -72 -100 -72 -5 0 -19 -17 -30 -37 -12 -22 -30 -40 -45 -44 -14 -4 -384
-7 -822 -8 l-798 -1 0 3600 0 3600 3590 0 3590 0 0 1775 0 1775 -3600 0 -3600
0 0 -6400z m6786 3682 c159 -63 211 -265 105 -407 -25 -34 -27 -41 -14 -50 24
-18 0 -52 -48 -67 -33 -9 -47 -9 -72 2 -36 16 -116 15 -165 -1 -47 -15 -97 -4
-117 27 -13 20 -14 28 -4 40 10 12 8 19 -9 37 -37 39 -62 108 -62 171 0 78 16
128 58 176 79 93 205 120 328 72z m-643 2 c52 -18 116 -76 142 -130 60 -126 7
-282 -117 -344 -139 -69 -312 -20 -376 106 -42 84 -38 184 12 267 25 41 43 58
94 84 54 28 75 33 131 33 37 0 88 -7 114 -16z m-5806 -224 c52 -224 51 -200
11 -200 -31 0 -36 4 -41 30 -6 27 -11 30 -42 30 -19 0 -38 0 -42 1 -4 0 -11
-14 -16 -30 -7 -27 -12 -31 -41 -31 l-34 0 14 58 c7 31 26 110 41 175 l27 118
44 -3 45 -3 34 -145z m373 58 l1 -93 30 38 c23 27 39 37 60 37 16 0 29 -3 29
-6 0 -4 -16 -28 -35 -54 l-34 -47 28 -45 c56 -89 56 -88 17 -88 -30 0 -38 5
-57 40 -26 45 -39 43 -39 -6 0 -31 -2 -34 -30 -34 l-30 0 0 175 0 175 30 0 30
0 0 -92z m1740 -83 l0 -176 -42 1 c-24 1 -54 -1 -68 -5 -43 -11 -77 25 -85 88
-7 58 7 128 30 147 17 14 51 17 83 6 21 -7 22 -5 22 53 l0 61 30 0 30 0 0
-175z m452 83 l3 -92 25 37 c20 30 31 37 58 37 30 0 42 -12 24 -24 -5 -3 -21
-23 -36 -44 l-27 -40 40 -66 41 -66 -35 0 c-30 0 -39 6 -62 43 l-28 42 -3 -42
c-3 -42 -4 -43 -38 -43 l-34 0 0 168 c0 93 3 172 7 175 3 4 19 7 34 7 l28 0 3
-92z m728 27 l0 -66 30 16 c33 17 60 13 85 -11 11 -12 15 -40 15 -120 l0 -104
-30 0 -29 0 -3 92 c-3 83 -5 93 -22 96 -33 7 -46 -25 -46 -110 l0 -78 -30 0
-30 0 0 175 0 175 30 0 30 0 0 -65z m530 4 c0 -58 1 -60 23 -53 76 26 107 -8
107 -118 0 -71 -2 -81 -26 -105 -20 -20 -31 -24 -52 -18 -15 4 -46 6 -69 5
l-43 -1 0 176 0 175 30 0 30 0 0 -61z m-1480 -9 c0 -38 2 -40 30 -40 25 0 30
-4 30 -25 0 -21 -5 -25 -30 -25 l-31 0 3 -67 c3 -66 4 -68 31 -71 21 -3 27 -8
23 -19 -3 -8 -6 -19 -6 -24 0 -16 -73 -10 -92 8 -14 13 -18 31 -18 90 0 66 -2
75 -20 80 -13 3 -20 14 -20 29 0 17 6 24 20 24 17 0 20 7 20 40 0 38 2 40 30
40 28 0 30 -2 30 -40z m-2096 -61 c24 -23 34 -121 17 -172 -15 -44 -59 -66
-97 -48 -14 6 -27 11 -29 11 -3 0 -5 -30 -5 -66 l0 -65 -27 3 -28 3 -3 179 -2
179 37 -5 c21 -3 47 -2 58 3 26 10 55 2 79 -22z m402 21 c8 0 23 -9 34 -20 17
-17 20 -33 20 -121 l0 -101 -32 3 c-18 1 -48 -1 -66 -5 -50 -12 -82 13 -82 64
0 44 20 64 83 81 28 7 37 15 35 27 -5 26 -48 28 -55 3 -6 -25 -51 -29 -60 -5
-13 34 56 90 95 78 8 -2 20 -4 28 -4z m290 0 c39 -15 53 -39 54 -87 l0 -43
-61 0 c-60 0 -60 0 -57 -27 3 -32 44 -46 54 -19 4 10 18 16 35 16 35 0 39 -25
10 -61 -27 -34 -99 -34 -135 0 -23 22 -26 32 -26 96 0 79 20 120 63 128 12 2
25 5 29 6 4 0 19 -4 34 -9z m201 -1 c32 -12 43 -26 43 -56 0 -31 -45 -33 -53
-3 -7 26 -47 27 -47 1 0 -12 12 -23 33 -31 74 -30 97 -83 58 -131 -40 -50
-151 -22 -151 38 0 19 5 23 29 23 21 0 30 -6 34 -21 7 -25 40 -22 45 4 3 12
-9 23 -42 37 -76 32 -89 107 -23 135 39 17 39 17 74 4z m197 -3 c31 -13 53
-55 38 -71 -14 -14 -50 -3 -55 16 -4 13 -12 20 -24 17 -29 -5 -21 -32 15 -50
73 -36 92 -81 53 -129 -15 -19 -29 -24 -66 -24 -37 0 -51 5 -66 24 -29 36 -25
61 10 61 21 0 30 -6 34 -21 7 -25 40 -22 45 3 2 12 -11 24 -43 39 -74 35 -85
107 -21 135 39 17 40 17 80 0z m205 3 c17 -6 36 -19 41 -29 6 -10 10 -62 10
-115 l0 -97 -32 3 c-18 1 -48 -1 -66 -5 -50 -12 -82 13 -82 64 0 44 20 64 83
81 28 7 37 15 35 27 -5 25 -45 27 -58 3 -11 -22 -44 -28 -55 -10 -13 21 5 57
37 72 40 20 46 20 87 6z m319 -22 c16 -15 22 -32 22 -64 l0 -43 -61 0 c-60 0
-60 0 -57 -27 3 -32 44 -46 54 -19 9 23 64 21 64 -2 0 -69 -107 -94 -163 -37
-23 23 -24 151 -1 183 32 46 97 50 142 9z m1000 -3 c18 -21 22 -36 22 -98 0
-58 -4 -76 -20 -94 -43 -45 -130 -36 -157 18 -16 32 -17 121 -1 156 26 56 112
66 156 18z m240 8 c8 -10 12 -52 12 -119 l0 -103 -30 0 -30 0 0 90 c0 99 -12
119 -50 85 -17 -15 -20 -31 -20 -97 l0 -78 -30 0 -30 0 0 120 0 120 29 0 c16
0 31 -5 33 -11 2 -6 14 -5 33 5 33 17 63 13 83 -12z m530 -8 c15 -17 22 -38
22 -65 l0 -39 -61 0 c-60 0 -60 0 -57 -27 3 -32 44 -46 54 -19 4 10 18 16 35
16 35 0 40 -29 9 -60 -27 -27 -63 -34 -105 -20 -46 15 -55 34 -55 123 0 64 3
76 23 94 12 11 29 23 37 26 28 11 75 -3 98 -29z m539 12 c7 -6 13 -53 15 -116
l3 -105 -32 -3 -33 -3 0 91 c0 72 -3 92 -15 96 -33 13 -45 -15 -45 -102 l0
-84 -35 0 -35 0 0 120 0 120 35 0 c19 0 35 -4 35 -9 0 -6 12 -3 28 4 28 15 58
12 79 -9z m221 -12 c19 -22 22 -36 22 -120 l0 -95 -42 1 c-24 1 -54 -1 -68 -5
-35 -9 -80 27 -80 64 0 39 19 60 70 75 33 10 46 19 48 35 4 28 -31 29 -51 0
-22 -30 -63 -23 -59 11 10 70 109 91 160 34z m391 25 c36 -13 61 -53 61 -99
l0 -30 -59 0 c-65 0 -73 -5 -64 -38 6 -26 53 -32 53 -7 0 11 11 15 36 15 32 0
35 -2 29 -22 -13 -43 -42 -63 -90 -63 -64 0 -87 27 -93 105 -5 75 11 118 52
136 38 16 36 16 75 3z m204 -3 c15 -8 27 -11 27 -5 0 5 14 9 30 9 l30 0 0
-149 c0 -134 -2 -151 -20 -174 -41 -52 -147 -44 -170 13 -7 16 -9 34 -5 39 10
18 44 12 57 -9 26 -41 78 -15 78 40 0 17 -3 19 -19 10 -36 -19 -78 -12 -100
16 -16 21 -21 41 -21 90 0 72 13 107 44 122 29 14 37 14 69 -2z m285 -22 c19
-22 22 -36 22 -120 l0 -95 -42 1 c-24 1 -54 -1 -68 -5 -34 -9 -80 27 -80 61 0
42 17 62 70 79 37 12 50 22 50 36 0 26 -36 25 -50 -1 -11 -20 -54 -28 -64 -12
-10 16 29 76 54 84 40 11 83 0 108 -28z m-3048 -94 l0 -120 -35 0 -35 0 0 113
c0 63 3 117 7 120 3 4 19 7 35 7 l28 0 0 -120z m2280 63 c19 -91 25 -93 45
-14 17 70 18 71 50 71 l33 0 -24 -82 c-79 -281 -76 -273 -113 -276 -28 -3 -33
-1 -27 14 29 76 29 101 -4 209 -17 59 -34 113 -37 121 -4 10 4 14 29 14 34 0
35 -1 48 -57z"/>
<path d="M6613 9773 c-20 -4 -23 -11 -23 -51 l0 -47 85 0 85 0 0 46 c0 40 -3
48 -22 53 -25 6 -90 6 -125 -1z"/>
<path d="M2513 3372 c-21 -23 -61 -53 -90 -67 -28 -14 -71 -44 -96 -65 -25
-22 -49 -40 -54 -40 -5 0 -25 -30 -43 -66 -35 -71 -34 -77 20 -90 14 -4 32
-13 41 -20 13 -12 17 -9 32 24 21 45 52 69 96 74 24 2 47 17 80 49 49 49 78
62 104 47 12 -6 25 -1 48 22 18 16 37 30 43 31 33 2 49 10 70 33 l24 25 -22
19 c-37 35 -89 55 -153 60 l-63 5 -37 -41z"/>
</g>
</svg>
