<?xml version="1.0" standalone="no"?>
<!DOCTYPE svg PUBLIC "-//W3C//DTD SVG 20010904//EN"
 "http://www.w3.org/TR/2001/REC-SVG-20010904/DTD/svg10.dtd">
<svg version="1.0" xmlns="http://www.w3.org/2000/svg"
 width="720.000000pt" height="1280.000000pt" viewBox="0 0 720.000000 1280.000000"
 preserveAspectRatio="xMidYMid meet">
<metadata>
Created by potrace 1.16, written by Peter Selinger 2001-2019
</metadata>
<g transform="translate(0.000000,1280.000000) scale(0.100000,-0.100000)"
fill="#000000" stroke="none">
<path d="M0 6400 l0 -6400 3600 0 3600 0 0 1025 0 1025 -2736 0 -2736 0 51 46
c70 63 101 132 101 223 0 85 -23 143 -80 205 -86 93 -237 113 -352 48 -30 -17
-63 -41 -73 -52 -18 -20 -18 -21 9 -49 64 -67 87 -228 46 -320 -24 -52 -25
-67 -5 -75 37 -14 11 -26 -57 -26 l-72 0 26 27 c48 51 68 106 68 184 0 85 -17
125 -74 181 -63 61 -110 82 -186 82 -111 0 -209 -64 -246 -160 -30 -79 -3
-219 50 -263 9 -8 16 -22 16 -32 0 -18 -17 -19 -465 -19 l-465 0 0 3600 0
3600 1673 -1 c919 0 1666 -3 1659 -6 -6 -2 -12 -15 -12 -28 0 -13 -4 -27 -10
-30 -5 -3 -10 -28 -10 -54 0 -52 7 -62 63 -90 42 -21 80 -97 85 -173 3 -41 9
-58 18 -58 24 0 15 -14 -31 -49 -24 -19 -42 -39 -39 -43 3 -4 0 -8 -6 -8 -6 0
-17 -14 -24 -32 -18 -43 -5 -53 68 -53 39 0 61 -4 64 -12 2 -7 9 -13 15 -13
47 -1 112 -227 74 -258 -6 -6 -73 -13 -147 -17 -275 -14 -252 -15 -225 15 24
27 29 83 16 189 -12 100 -35 337 -52 526 -9 102 -11 112 -37 132 -49 41 -80
32 -155 -48 -37 -39 -67 -78 -67 -87 0 -9 16 -27 35 -39 23 -15 37 -35 44 -60
9 -33 71 -655 71 -709 0 -11 -16 -39 -35 -61 -19 -23 -35 -48 -35 -57 0 -17
-9 -18 266 9 83 8 173 15 201 15 108 0 156 33 300 203 9 12 3 13 -40 9 l-52
-4 26 28 c14 16 33 47 43 70 23 53 30 186 10 211 -7 10 -14 30 -14 45 0 15 -8
32 -17 37 -10 6 -15 11 -11 11 3 0 -10 16 -29 35 -26 26 -44 35 -69 35 -23 0
-37 6 -44 20 -8 15 -8 20 3 20 7 0 21 25 31 55 26 75 18 186 -19 257 -21 41
-24 53 -13 59 17 11 658 12 658 1 0 -5 -19 -31 -43 -59 -36 -42 -47 -66 -66
-139 -13 -49 -27 -100 -32 -113 -6 -13 -13 -43 -16 -65 -3 -23 -9 -45 -14 -50
-5 -6 -9 -14 -9 -18 0 -11 23 -6 32 7 5 6 8 5 8 -2 0 -8 14 -13 35 -13 24 0
35 5 35 15 0 8 4 15 8 15 8 0 25 56 76 246 13 50 29 101 35 112 6 11 11 29 11
40 0 16 10 20 68 25 37 4 138 7 225 7 l158 0 -25 -43 -26 -43 36 -17 c22 -11
40 -29 49 -50 13 -33 38 -255 68 -624 3 -31 1 -33 -32 -33 -19 0 -72 -5 -118
-12 -45 -7 -86 -9 -90 -5 -4 5 -2 17 5 27 29 47 -7 156 -75 228 -31 33 -38 49
-39 84 -1 32 -20 79 -73 183 -39 77 -71 145 -71 152 0 7 -4 13 -10 13 -5 0
-10 7 -10 15 0 9 -9 15 -24 15 -24 0 -32 -16 -42 -75 -2 -11 -17 -72 -33 -135
-17 -63 -29 -121 -26 -127 2 -8 23 -14 47 -14 24 -1 35 -3 26 -6 -10 -2 -18
-8 -18 -13 0 -5 -18 -14 -39 -20 -41 -11 -39 -8 -80 -125 -4 -11 -5 -30 -3
-42 3 -18 12 -22 65 -28 105 -12 169 -60 222 -166 l34 -67 -24 -37 c-41 -60
-36 -69 38 -61 34 4 104 11 156 15 l94 8 59 61 c32 34 60 62 63 62 14 0 1 -30
-30 -65 -38 -43 -47 -80 -17 -71 9 2 81 10 160 17 l143 12 42 47 c23 25 57 63
75 83 l33 38 22 -33 c13 -18 45 -45 72 -60 46 -26 59 -28 167 -28 110 0 118 1
135 23 26 33 73 63 81 51 4 -6 40 -22 80 -37 126 -46 236 -36 373 34 38 19 39
19 39 0 0 -32 24 -43 82 -35 48 6 58 12 106 63 83 87 88 97 67 121 -10 11 -28
20 -40 20 -11 0 -30 7 -41 15 -21 16 -54 20 -54 6 0 -5 -10 -11 -21 -14 -20
-6 -20 -4 4 21 49 53 57 83 57 206 0 66 -4 117 -10 121 -5 3 -10 19 -10 34 0
33 -17 41 -97 41 -51 0 -51 0 -112 -71 -63 -72 -77 -109 -42 -109 11 0 32 -10
46 -23 22 -18 28 -35 36 -102 11 -89 6 -137 -18 -160 -29 -30 -213 5 -238 45
-3 5 -14 10 -24 10 -9 0 -35 15 -57 33 -21 19 -45 36 -51 38 -16 5 -72 93
-118 185 -33 68 -35 75 -35 176 0 79 5 119 20 163 11 32 20 62 20 67 0 12
-105 -106 -141 -158 -44 -64 -78 -175 -81 -267 -1 -35 6 -53 45 -109 71 -100
132 -164 169 -175 30 -10 26 -11 -40 -12 -53 -1 -78 3 -88 14 -9 8 -24 15 -35
15 -40 0 -62 23 -101 107 -35 76 -40 92 -35 137 3 28 3 45 0 37 -4 -9 -11 -2
-20 20 -12 29 -12 34 2 41 8 5 15 13 15 19 0 5 9 19 20 31 28 31 27 62 -2 54
-13 -3 -28 -6 -35 -6 -7 0 -24 -11 -39 -25 -30 -28 -54 -32 -54 -10 0 8 4 15
10 15 17 0 86 73 103 108 16 33 25 140 14 159 -8 12 114 23 269 23 l111 0 -5
-27 c-4 -23 -2 -26 9 -15 7 6 38 12 69 12 63 0 153 -37 211 -87 83 -73 131
-69 215 15 31 31 63 67 72 79 14 23 18 23 202 23 l187 0 -30 -102 c-26 -93
-43 -135 -72 -190 -11 -20 -30 -24 -41 -7 -4 7 -32 -16 -70 -57 -64 -68 -64
-69 -63 -124 3 -96 9 -102 76 -78 50 18 55 4 28 -82 -13 -41 -26 -86 -29 -100
-3 -14 -33 -56 -66 -94 -33 -38 -60 -74 -60 -79 0 -8 121 -2 183 9 29 6 81 53
128 118 35 47 35 51 7 52 -102 5 -131 8 -120 12 6 2 12 8 12 13 0 6 10 20 23
32 12 12 23 29 25 37 2 8 8 18 14 21 5 3 9 9 9 13 -3 24 1 36 14 36 8 0 15 3
15 8 0 18 58 32 105 25 91 -12 167 -72 209 -165 14 -31 26 -60 26 -65 0 -5
-11 -25 -25 -45 -14 -20 -25 -39 -25 -42 0 -8 52 -7 118 0 l52 7 0 192 0 191
-50 50 c-49 48 -50 50 -45 94 5 39 1 52 -27 100 -55 91 -88 158 -88 180 0 29
37 40 131 40 l79 0 0 1775 0 1775 -3600 0 -3600 0 0 -6400z m6795 3680 c149
-64 198 -258 100 -396 -30 -42 -32 -49 -18 -59 13 -10 13 -15 2 -33 -27 -43
-87 -53 -145 -26 -30 14 -42 15 -87 4 -28 -7 -74 -13 -101 -14 -42 -1 -51 3
-72 29 -22 28 -23 31 -7 42 15 12 15 15 -5 35 -55 60 -78 178 -50 269 23 77
103 146 195 168 49 12 137 3 188 -19z m-652 4 c52 -18 116 -76 143 -132 27
-55 26 -174 -3 -227 -51 -94 -120 -136 -233 -143 -63 -4 -85 -1 -128 18 -143
62 -200 232 -124 373 44 81 125 126 233 126 36 1 86 -6 112 -15z m-5802 -239
c21 -88 38 -166 38 -172 1 -8 -12 -13 -32 -13 -28 0 -34 4 -42 33 -9 29 -13
32 -50 31 -35 -1 -40 -4 -47 -32 -8 -28 -13 -32 -42 -32 l-34 0 14 58 c7 31
26 110 41 175 l27 118 44 -3 45 -3 38 -160z m369 73 l1 -93 30 38 c23 27 39
37 60 37 16 0 29 -3 29 -6 0 -4 -16 -27 -35 -53 l-34 -47 21 -35 c11 -19 29
-49 40 -66 l20 -33 -36 0 c-30 0 -38 5 -57 40 -26 45 -39 43 -39 -6 0 -31 -2
-34 -30 -34 l-30 0 0 175 0 175 30 0 30 0 0 -92z m1740 -84 l0 -177 -40 6
c-22 3 -43 1 -46 -4 -9 -16 -50 -10 -77 11 -31 25 -45 104 -28 167 17 61 50
79 109 59 21 -7 22 -5 22 53 l0 61 30 0 30 0 0 -176z m452 84 l3 -92 25 37
c20 30 31 37 58 37 30 0 42 -12 24 -24 -5 -3 -21 -23 -36 -44 l-27 -40 40 -66
41 -66 -34 0 c-28 0 -38 7 -62 43 l-29 42 -3 -43 c-3 -42 -4 -43 -35 -40 l-32
3 -3 173 -2 172 34 0 35 0 3 -92z m728 28 l0 -64 29 14 c31 15 77 6 93 -19 4
-7 8 -58 8 -114 l0 -103 -30 0 -29 0 -3 92 c-3 83 -5 93 -22 96 -33 7 -46 -25
-46 -110 l0 -78 -30 0 -30 0 0 175 0 175 30 0 30 0 0 -64z m530 3 c0 -55 2
-60 18 -53 31 13 76 5 95 -17 13 -16 17 -40 17 -101 0 -71 -2 -81 -26 -105
-21 -21 -31 -24 -57 -18 -18 4 -49 6 -69 6 l-38 -2 0 176 0 175 30 0 30 0 0
-61z m-1480 -9 c0 -38 2 -40 30 -40 25 0 30 -4 30 -25 0 -21 -5 -25 -30 -25
l-31 0 3 -67 c3 -66 4 -68 31 -71 28 -3 31 -9 21 -36 -8 -22 -72 -21 -96 1
-14 13 -18 31 -18 90 0 66 -2 75 -20 80 -13 3 -20 14 -20 29 0 17 6 24 20 24
17 0 20 7 20 40 0 38 2 40 30 40 28 0 30 -2 30 -40z m-2096 -60 c24 -24 34
-122 17 -173 -15 -44 -59 -66 -97 -48 -14 6 -27 11 -29 11 -3 0 -5 -30 -5 -66
l0 -65 -27 3 -28 3 -3 179 -2 179 38 -6 c22 -2 46 -1 53 4 19 12 60 2 83 -21z
m405 19 c44 -16 51 -35 51 -143 l0 -96 -47 -1 c-27 0 -60 -1 -75 -1 -40 -1
-58 19 -58 63 0 43 20 63 83 80 28 7 37 15 35 27 -5 25 -45 27 -58 3 -13 -25
-48 -28 -57 -5 -8 21 28 67 58 75 35 10 33 10 68 -2z m295 -3 c36 -15 43 -28
48 -86 l3 -35 -63 -3 c-62 -3 -63 -3 -60 -30 3 -31 44 -44 54 -18 4 10 18 16
35 16 35 0 39 -25 10 -61 -15 -19 -29 -24 -66 -24 -39 0 -51 5 -71 28 -33 38
-35 150 -4 190 18 22 30 28 73 36 4 0 23 -5 41 -13z m193 3 c32 -12 43 -26 43
-56 0 -31 -45 -33 -53 -3 -7 26 -47 27 -47 1 0 -12 12 -23 33 -31 74 -30 97
-83 58 -131 -15 -19 -29 -24 -66 -24 -37 0 -51 5 -66 24 -28 34 -25 61 7 61
18 0 28 -6 31 -21 7 -25 46 -22 51 4 3 12 -9 23 -42 37 -76 32 -89 107 -23
135 39 17 39 17 74 4z m197 -3 c31 -13 53 -55 38 -71 -14 -14 -50 -3 -55 16
-4 13 -12 20 -24 17 -29 -5 -21 -32 15 -50 51 -25 72 -48 72 -78 0 -42 -29
-70 -77 -77 -35 -5 -45 -2 -67 20 -36 36 -35 67 3 67 20 0 30 -6 34 -20 7 -28
47 -27 47 0 0 15 -13 26 -45 40 -73 31 -85 108 -21 136 39 17 40 17 80 0z
m205 3 c17 -6 36 -19 41 -29 6 -10 10 -62 10 -115 l0 -97 -32 3 c-18 1 -48 -1
-66 -5 -50 -12 -82 13 -82 64 0 44 20 64 83 81 28 7 37 15 35 27 -5 25 -45 27
-58 3 -16 -30 -60 -28 -60 2 0 35 37 65 91 76 3 0 20 -4 38 -10z m318 -21 c17
-16 23 -33 23 -65 l0 -43 -61 0 c-60 0 -60 0 -57 -27 3 -32 44 -46 54 -19 8
20 64 22 64 2 0 -69 -102 -98 -158 -45 -19 17 -22 31 -22 98 0 68 3 80 23 98
12 11 29 23 37 26 25 10 73 -2 97 -25z m1001 -4 c18 -20 22 -37 22 -87 0 -84
-7 -105 -42 -123 -37 -19 -99 -11 -124 17 -23 26 -31 127 -13 170 25 61 112
74 157 23z m240 8 c8 -10 12 -52 12 -119 l0 -103 -30 0 -30 0 0 90 c0 75 -3
92 -17 97 -32 12 -53 -32 -53 -113 l0 -74 -30 0 -30 0 0 120 0 120 29 0 c16 0
31 -5 33 -11 2 -6 14 -5 33 5 33 17 63 13 83 -12z m530 -9 c15 -16 22 -37 22
-64 l0 -39 -61 0 c-60 0 -60 0 -57 -27 3 -32 44 -46 54 -19 4 10 18 16 35 16
35 0 40 -29 9 -60 -27 -27 -63 -34 -105 -20 -46 15 -55 34 -55 123 0 64 3 76
23 94 12 11 29 23 37 26 28 9 75 -5 98 -30z m757 5 c17 -16 21 -34 23 -119 l4
-100 -44 1 c-23 1 -54 -1 -68 -5 -35 -9 -80 27 -80 63 1 39 21 60 74 78 33 11
46 21 46 35 0 26 -36 25 -52 -1 -13 -20 -52 -27 -62 -12 -10 17 29 76 54 83
36 9 82 -1 105 -23z m394 21 c36 -13 61 -53 61 -99 l0 -30 -59 0 c-65 0 -73
-5 -64 -38 6 -26 48 -31 57 -7 3 9 18 15 36 15 28 0 31 -3 25 -22 -4 -13 -18
-34 -33 -47 -21 -19 -33 -22 -65 -18 -59 8 -80 35 -85 107 -5 75 11 118 52
136 38 16 36 16 75 3z m249 0 l43 2 -3 -155 c-3 -134 -5 -157 -22 -175 -42
-46 -144 -35 -166 19 -7 16 -9 34 -5 39 10 18 44 12 57 -9 24 -38 78 -16 78
33 0 11 -11 13 -48 9 -44 -4 -51 -2 -70 23 -18 22 -22 41 -21 94 0 36 4 74 8
85 10 27 52 47 81 39 14 -3 44 -5 68 -4z m237 -20 c17 -16 21 -35 23 -120 l4
-100 -44 1 c-23 1 -55 -1 -70 -5 -21 -6 -32 -2 -52 18 -14 15 -26 38 -26 52 0
25 31 65 50 65 6 0 26 7 45 14 25 11 33 19 29 30 -9 23 -51 20 -59 -4 -4 -12
-15 -20 -29 -20 -32 0 -36 7 -24 42 20 56 107 71 153 27z m-3045 -99 l0 -120
-35 0 -35 0 0 120 0 120 35 0 35 0 0 -120z m1840 108 c0 -9 3 -9 12 0 16 16
83 15 96 0 5 -7 12 -60 14 -118 l3 -105 -32 -3 -33 -3 0 91 c0 72 -3 92 -15
96 -33 13 -45 -15 -45 -102 l0 -84 -35 0 -35 0 0 120 0 120 35 0 c21 0 35 -5
35 -12z m431 -5 c0 -10 8 -43 18 -73 l17 -55 18 73 c18 71 19 72 51 72 l33 0
-34 -117 c-69 -246 -66 -238 -103 -241 -28 -3 -32 -1 -28 15 31 106 31 95 -2
207 -18 59 -35 114 -38 122 -4 10 4 14 31 14 27 0 36 -4 37 -17z m269 -672 c0
-22 5 -43 10 -46 6 -3 10 -1 10 4 0 17 35 13 57 -6 11 -10 32 -41 46 -69 38
-75 39 -214 2 -214 -19 0 -88 -144 -80 -169 3 -10 16 -22 28 -25 18 -4 28 -21
45 -74 39 -120 25 -187 -32 -161 -20 10 -29 10 -38 1 -14 -14 -148 -16 -148
-2 0 5 8 13 18 19 14 8 17 25 17 113 0 57 -4 137 -8 178 -4 41 -12 116 -17
165 -5 50 -12 115 -15 145 -3 30 -8 81 -11 112 l-6 57 54 4 c29 2 56 4 61 5 4
1 7 -16 7 -37z"/>
<path d="M6613 9773 c-20 -4 -23 -11 -23 -51 l0 -47 85 0 85 0 0 46 c0 40 -3
48 -22 53 -25 6 -90 6 -125 -1z"/>
<path d="M3947 8748 c-40 -51 -47 -66 -46 -101 3 -84 11 -102 49 -107 46 -7
48 -26 15 -132 -21 -70 -34 -93 -85 -151 -33 -38 -60 -73 -60 -79 0 -8 31 -9
103 -4 l102 7 54 52 c70 69 108 127 89 138 -7 5 -20 6 -28 3 -8 -3 -42 -8 -75
-11 l-60 -5 48 44 c26 24 47 51 47 60 0 9 4 19 9 22 5 4 15 38 21 76 6 38 16
72 21 76 5 3 9 23 9 44 0 35 -3 39 -36 50 -20 7 -48 24 -62 40 -46 47 -62 44
-115 -22z"/>
<path d="M3861 4923 c-6 -21 -15 -63 -22 -93 -18 -88 -49 -122 -79 -85 -13 15
-29 15 -70 -3 -19 -8 -21 -11 -7 -11 22 -1 13 -21 -9 -21 -9 0 -22 -7 -30 -15
-9 -9 -35 -15 -62 -16 -56 -1 -67 -3 -111 -22 -26 -11 -29 -15 -16 -20 9 -4
13 -12 9 -18 -5 -9 1 -10 22 -5 16 4 32 12 35 18 4 6 11 8 17 4 6 -4 -7 -23
-31 -46 l-42 -39 32 8 c17 5 34 6 38 3 3 -4 9 -2 13 4 10 16 101 58 108 51 4
-3 -5 -16 -20 -29 -32 -29 -22 -52 18 -42 19 5 29 15 33 35 3 16 9 32 13 34 4
3 4 -12 -1 -33 -21 -90 5 -302 38 -302 7 0 13 4 13 9 0 5 18 18 40 27 35 16
40 21 35 44 -3 14 -2 45 3 70 l7 45 24 -38 c12 -20 31 -37 41 -37 22 0 45 26
30 35 -5 3 -10 1 -10 -5 0 -6 -10 -10 -22 -8 -13 2 -22 8 -21 13 0 6 -3 17 -8
26 -5 10 -3 24 7 37 12 18 19 20 35 12 10 -6 19 -21 20 -33 0 -21 1 -21 10 3
6 13 7 35 4 48 -5 20 13 52 29 52 3 0 9 -19 13 -42 l7 -43 7 50 c5 42 3 57
-18 95 l-24 45 31 -30 c17 -16 44 -56 60 -88 15 -32 31 -53 35 -47 8 13 -44
120 -58 120 -6 0 9 18 33 40 31 28 53 40 75 40 16 0 37 5 45 11 11 8 3 9 -30
5 -171 -23 -198 -17 -66 14 41 10 83 23 93 29 15 9 14 11 -14 12 -52 2 -56 3
-60 15 -2 6 18 17 44 25 33 9 42 15 28 17 -11 3 -23 9 -27 15 -4 7 -16 6 -38
-3 -27 -11 -33 -11 -40 1 -7 11 -14 9 -35 -11 -102 -96 -120 -110 -141 -110
-28 0 -40 16 -25 34 9 10 7 15 -9 19 -18 5 -19 8 -6 44 15 42 29 123 22 123
-3 0 -10 -17 -15 -37z"/>
</g>
</svg>
