<?xml version="1.0" standalone="no"?>
<!DOCTYPE svg PUBLIC "-//W3C//DTD SVG 20010904//EN"
 "http://www.w3.org/TR/2001/REC-SVG-20010904/DTD/svg10.dtd">
<svg version="1.0" xmlns="http://www.w3.org/2000/svg"
 width="720.000000pt" height="1280.000000pt" viewBox="0 0 720.000000 1280.000000"
 preserveAspectRatio="xMidYMid meet">
<metadata>
Created by potrace 1.16, written by Peter Selinger 2001-2019
</metadata>
<g transform="translate(0.000000,1280.000000) scale(0.100000,-0.100000)"
fill="#000000" stroke="none">
<path d="M0 6400 l0 -6400 3600 0 3600 0 0 1915 0 1914 -72 3 c-78 3 -76 1
-62 62 l7 29 -77 -6 c-103 -9 -120 -19 -111 -63 l6 -35 -398 5 c-393 4 -489 9
-508 27 -5 5 -19 9 -32 9 -17 0 -28 10 -40 35 -9 19 -22 35 -28 35 -6 0 -22
11 -34 24 -12 13 -40 31 -62 41 -21 10 -39 23 -39 29 0 6 16 27 35 46 19 19
35 37 35 41 0 18 -62 22 -435 29 -492 10 -445 28 -445 -171 0 -184 3 -190 101
-204 34 -4 49 -12 57 -28 10 -23 32 -518 32 -732 0 -66 6 -163 14 -215 20
-137 19 -727 -1 -734 -19 -8 -4864 -7 -4936 1 -54 5 -57 7 -42 22 13 14 54 17
273 21 l257 5 -139 8 c-77 4 -176 7 -220 8 -65 0 -76 2 -56 10 15 7 133 10
300 10 151 -1 286 -1 300 0 23 1 23 1 5 12 -11 5 -23 15 -28 21 -11 17 2 635
15 679 8 28 18 39 37 43 52 12 61 16 56 24 -3 5 15 8 40 7 l46 -2 -3 -393 -3
-392 53 0 c28 0 52 4 52 9 0 5 9 13 20 16 18 6 19 8 5 22 -11 11 -27 14 -50
10 -33 -5 -35 -4 -45 31 -17 58 1 480 20 492 8 5 48 10 88 10 67 0 73 2 83 24
14 31 30 35 155 43 l102 6 3 -326 c2 -179 8 -329 12 -333 6 -7 574 -15 1187
-17 198 -1 449 13 456 24 3 5 0 9 -5 9 -16 0 -15 630 1 665 6 14 14 25 17 25
154 13 146 9 148 77 2 50 0 54 -8 31 -10 -27 -13 -28 -85 -28 l-75 0 3 143 3
142 83 3 c45 2 82 7 82 12 0 6 29 10 65 10 l65 0 0 -62 c0 -490 3 -1030 7
-1055 6 -36 25 -45 75 -33 25 6 27 8 10 9 -32 1 -17 21 17 21 15 0 31 4 36 9
6 5 251 10 545 13 294 2 471 2 393 -1 -94 -4 -146 -10 -155 -19 -10 -9 -2 -12
37 -12 28 0 68 -4 90 -8 36 -6 32 -8 -40 -13 -66 -4 -54 -6 68 -7 88 -1 147 2
147 8 0 5 -30 11 -67 13 l-68 3 68 2 c64 2 67 3 67 26 0 32 -41 46 -139 47
-92 1 -133 12 -82 22 19 4 48 7 65 6 30 -1 30 -1 6 -9 -20 -6 -14 -8 28 -9 58
-1 61 9 10 30 -54 22 -58 30 -64 145 -4 85 -8 110 -22 120 -14 10 -18 35 -23
136 l-5 123 -2 -123 c-1 -79 -6 -121 -12 -117 -5 3 -10 16 -10 28 0 18 -2 19
-10 7 -8 -12 -10 -12 -10 -1 0 8 -3 11 -6 8 -7 -7 -44 30 -44 44 0 4 -11 19
-25 33 -14 14 -26 33 -27 43 -3 39 4 187 9 176 6 -16 43 5 43 24 0 13 11 17
43 13 10 -1 25 4 33 10 11 10 14 9 14 -8 0 -18 3 -19 25 -9 24 12 25 14 26
132 0 66 3 186 5 266 5 161 4 164 -56 172 -19 2 19 5 85 7 l120 4 -120 6 -120
6 105 3 c58 2 95 6 83 8 -13 2 -23 9 -23 14 0 5 -44 9 -97 9 -91 0 -100 -2
-122 -25 -21 -23 -30 -25 -120 -25 -53 0 -139 -5 -191 -10 -53 -5 -197 -10
-320 -11 -178 -1 -234 2 -267 14 -39 13 -43 13 -43 -1 0 -13 -12 -14 -78 -9
-49 4 -83 2 -89 -4 -7 -7 -403 -9 -1254 -5 -684 4 -1295 7 -1356 9 -62 1 -113
-1 -113 -5 0 -5 -57 -8 -127 -8 l-128 0 -3 46 c-1 25 -7 55 -13 66 -6 11 -8
23 -4 26 4 4 163 7 353 8 191 1 923 6 1627 12 960 7 1282 7 1287 -2 6 -8 8 -8
8 2 0 6 10 12 22 12 20 0 21 1 4 13 -17 12 -17 36 -6 442 6 236 13 432 15 435
7 11 136 19 202 13 l62 -6 -4 -331 c-2 -272 -2 -297 5 -141 4 105 8 214 9 243
l1 52 101 0 101 0 -7 -268 c-4 -147 -10 -307 -14 -357 l-6 -90 -81 0 c-108 1
-114 7 -115 122 -2 111 -7 90 -12 -49 l-4 -108 166 0 c91 0 181 4 199 9 24 7
35 6 46 -5 11 -11 49 -14 158 -16 l143 -2 -120 -6 c-66 -3 -115 -8 -110 -12
15 -10 245 3 239 13 -3 5 25 10 63 11 37 0 52 3 33 5 -63 7 -67 16 -15 29 l50
13 -60 -1 c-89 -2 -117 1 -110 12 3 6 17 10 30 10 13 0 27 5 30 10 3 6 -2 10
-12 10 -20 0 -66 29 -48 30 11 0 9 215 -2 240 -4 8 -12 51 -19 95 l-11 80 -2
-84 c-1 -74 -3 -82 -14 -66 -13 17 -14 17 -20 -6 -8 -31 -24 -16 -36 36 l-9
40 -1 -38 c-1 -38 -21 -44 -21 -6 0 10 -4 19 -10 19 -5 0 -10 -15 -10 -32 l0
-33 -19 24 c-15 20 -19 52 -25 224 -7 197 -6 200 16 233 13 19 29 34 36 34 6
0 12 6 12 14 0 10 7 13 23 9 31 -7 112 -21 114 -19 1 0 2 116 4 256 2 238 8
288 30 274 5 -3 9 2 9 10 0 13 13 16 66 16 46 0 63 3 58 11 -5 8 -27 9 -73 4
-36 -4 -104 -11 -151 -15 l-85 -7 70 -3 c48 -3 19 -6 -90 -10 -223 -10 -1174
-10 -1150 -1 15 6 6 10 -35 15 -30 4 -66 7 -80 7 -14 0 -59 9 -100 19 -41 10
-109 21 -150 24 l-75 5 59 -12 c43 -9 61 -17 67 -32 12 -32 11 -35 -16 -35
-14 0 -25 5 -25 10 0 6 -17 9 -37 9 -37 -1 -37 -2 -8 -8 70 -16 -1299 -30
-1443 -15 -34 4 -59 11 -56 15 3 5 -15 9 -40 9 -75 0 -52 16 42 30 145 21 139
30 -18 26 -107 -3 -155 -8 -184 -20 -21 -10 -52 -15 -70 -13 -29 4 -29 4 7 5
20 1 37 5 37 10 0 13 74 34 155 42 44 5 103 13 130 18 49 9 48 10 -40 12 l-90
3 90 12 90 12 -45 8 -45 9 60 13 c44 9 259 14 810 19 742 7 751 6 838 -15 49
-11 98 -21 110 -20 l22 0 -22 11 c-25 12 -32 34 -8 24 8 -3 15 -1 15 4 0 5 -8
11 -17 13 -14 4 -12 5 5 6 23 1 29 15 11 27 -6 3 -15 1 -19 -6 -11 -18 -15 89
-15 420 l0 295 60 6 60 6 -52 1 c-28 1 -55 7 -58 12 -3 6 1 10 9 10 9 0 16 5
16 10 0 6 -7 10 -15 10 -18 0 -20 16 -3 22 31 12 166 9 174 -3 4 -7 2 -15 -5
-17 -9 -3 -9 -7 0 -18 9 -11 9 -14 -1 -14 -9 0 -8 -5 3 -18 15 -17 17 -57 15
-385 l-1 -367 -79 0 c-45 0 -78 -4 -78 -10 0 -5 18 -10 40 -10 22 0 40 -4 40
-10 0 -5 5 -10 10 -10 6 0 9 6 8 12 -2 10 37 13 166 13 148 0 169 2 171 16 2
9 -1 23 -6 30 -7 11 -9 9 -9 -8 0 -12 -4 -24 -9 -28 -6 -3 -61 -2 -123 2 -62
4 -102 9 -88 11 35 5 46 19 22 26 -27 9 -32 25 -39 132 -6 94 12 284 28 284 4
0 17 9 28 21 14 15 29 20 54 18 20 -2 39 0 43 4 7 7 -38 12 -81 9 -67 -4 -73
10 -76 163 -2 87 -1 90 22 96 24 7 24 7 1 8 -12 1 -26 9 -29 18 -8 19 11 289
22 316 6 15 22 17 115 17 l108 0 6 -35 c4 -19 4 -153 0 -297 -4 -145 -7 -272
-7 -283 0 -11 1 -76 3 -145 l3 -125 8 90 c4 50 7 206 8 347 1 143 5 268 11
283 9 25 13 26 77 23 l68 -3 0 -498 0 -497 90 0 c62 0 85 3 75 10 -12 8 -11
10 8 10 28 0 29 26 1 56 -23 25 -24 32 -21 682 l2 372 115 0 115 0 0 -563 0
-563 118 3 c64 2 148 3 186 3 l69 0 -7 191 c-4 106 -11 199 -16 208 -9 16 -8
18 -25 -64 -3 -14 -12 -25 -20 -25 -8 0 -15 -4 -15 -10 0 -21 -20 -9 -21 13 0
12 -3 16 -6 10 -17 -45 -23 14 -23 247 l0 260 23 1 c12 1 41 2 65 2 l42 1 0
244 0 245 -348 -8 c-318 -6 -351 -6 -392 11 -25 9 -53 24 -62 32 -21 18 -41 7
-33 -19 5 -15 1 -19 -17 -19 -13 0 -295 0 -628 1 -333 1 -796 2 -1030 2 -234
0 -405 1 -380 4 47 4 74 19 49 27 -8 2 -26 7 -42 10 -27 6 -27 7 -10 32 15 23
22 25 77 24 88 -3 106 -1 106 11 0 6 -33 10 -92 9 -121 -2 -120 -2 -113 10 3
6 23 10 43 11 20 1 48 5 62 9 19 6 9 9 -40 10 -96 3 -55 9 125 19 l160 8 -158
2 c-87 0 -191 6 -230 12 -40 5 -87 12 -104 15 -24 4 -33 10 -33 24 0 11 6 20
14 20 17 0 29 42 14 51 -8 5 -8 16 2 38 12 30 30 42 30 20 0 -5 13 4 29 22 30
33 30 31 47 212 3 37 10 67 15 67 5 0 9 9 9 20 0 15 7 20 25 20 25 0 25 1 25
80 0 47 4 80 10 80 6 0 10 33 10 80 0 64 3 80 15 80 9 0 20 21 30 58 23 81 23
81 25 37 2 -39 3 -39 10 -10 4 17 8 76 9 133 l1 102 30 0 c17 0 30 5 30 10 0
6 7 10 15 10 10 0 15 11 15 35 0 27 4 35 19 35 15 0 19 10 25 53 3 28 6 80 6
115 0 55 2 62 20 62 18 0 20 7 20 80 l0 80 40 0 40 0 0 80 c0 73 2 80 20 80
19 0 20 7 20 120 l0 120 40 0 40 0 0 60 c0 53 2 60 20 60 18 0 20 7 20 60 l0
60 30 0 c28 0 30 2 30 40 0 22 5 40 10 40 6 0 10 12 10 28 0 15 3 44 6 65 l7
37 58 0 c45 0 59 4 59 14 0 19 11 25 62 35 32 7 3 10 -117 12 -451 8 790 16
2728 18 l2157 1 0 1775 0 1775 -3600 0 -3600 0 0 -6400z m6782 3684 c50 -17
112 -73 138 -125 44 -85 32 -202 -29 -284 -25 -34 -27 -41 -14 -50 14 -10 14
-14 -2 -38 -22 -35 -88 -46 -136 -23 -29 13 -43 14 -94 4 -106 -20 -142 -17
-169 17 -22 27 -22 31 -7 41 15 11 14 14 -6 36 -38 40 -63 108 -63 172 0 78
16 128 58 176 77 90 199 118 324 74z m-639 0 c52 -18 116 -76 142 -130 22 -47
30 -130 16 -180 -32 -119 -134 -194 -265 -194 -165 0 -272 106 -270 266 2 153
105 252 265 253 36 1 86 -6 112 -15z m-5839 -91 c10 -34 76 -315 76 -324 0 -5
-16 -9 -35 -9 -30 0 -35 3 -35 24 0 31 -13 39 -59 39 -31 0 -36 -3 -43 -31 -8
-28 -13 -32 -42 -32 l-34 0 14 58 c7 31 25 110 40 175 l28 117 42 0 c32 0 44
-4 48 -17z m406 -75 l1 -93 30 38 c23 27 39 37 60 37 16 0 29 -3 29 -6 0 -4
-16 -28 -35 -54 l-34 -47 28 -45 c56 -89 56 -88 17 -88 -30 0 -38 5 -57 40
-26 45 -39 43 -39 -6 0 -31 -2 -34 -30 -34 l-30 0 0 175 0 175 30 0 30 0 0
-92z m1740 -83 l0 -176 -42 1 c-24 1 -55 -1 -69 -5 -19 -5 -33 -1 -55 18 -27
24 -29 29 -29 106 0 69 3 84 21 102 23 22 55 28 92 15 21 -7 22 -5 22 53 l0
61 30 0 30 0 0 -175z m452 83 l3 -92 25 37 c20 30 31 37 58 37 30 0 42 -12 24
-24 -5 -3 -21 -23 -36 -44 l-27 -40 41 -66 41 -67 -38 3 c-32 3 -41 9 -58 40
-26 49 -35 48 -35 -2 0 -39 -1 -40 -35 -40 l-35 0 0 175 0 175 35 0 34 0 3
-92z m728 28 l0 -65 35 15 c28 11 40 12 58 3 34 -18 37 -27 37 -136 l0 -103
-30 0 -30 0 0 90 c0 75 -3 92 -16 97 -37 14 -49 -10 -52 -101 l-3 -86 -29 0
-30 0 0 175 0 175 30 0 30 0 0 -64z m530 3 c0 -58 1 -60 23 -53 76 26 107 -8
107 -118 0 -71 -2 -81 -26 -105 -20 -20 -31 -24 -52 -18 -15 4 -46 6 -69 5
l-43 -1 0 176 0 175 30 0 30 0 0 -61z m-1480 -9 c0 -38 2 -40 30 -40 25 0 30
-4 30 -25 0 -21 -5 -25 -30 -25 l-31 0 3 -67 c3 -66 4 -68 31 -71 21 -3 27 -8
23 -19 -3 -8 -6 -19 -6 -24 0 -16 -73 -10 -92 8 -14 13 -18 31 -18 90 0 66 -2
75 -20 80 -13 3 -20 14 -20 29 0 17 6 24 20 24 17 0 20 7 20 40 0 38 2 40 30
40 28 0 30 -2 30 -40z m-2096 -61 c24 -23 34 -121 17 -172 -15 -44 -59 -66
-97 -48 -14 6 -27 11 -29 11 -3 0 -5 -29 -5 -65 l0 -65 -30 0 -30 0 0 181 0
182 38 -5 c20 -3 46 -2 57 3 26 10 55 2 79 -22z m405 20 c17 -6 36 -19 41 -29
6 -10 10 -62 10 -115 l0 -97 -32 3 c-18 1 -48 -1 -66 -5 -50 -12 -82 13 -82
64 0 44 20 64 83 81 28 7 37 15 35 27 -5 25 -45 27 -58 3 -13 -25 -48 -28 -57
-5 -8 21 28 67 58 75 35 10 33 10 68 -2z m287 1 c39 -15 53 -39 54 -87 l0 -43
-61 0 c-60 0 -60 0 -57 -27 3 -32 44 -46 54 -19 9 23 64 21 64 -2 0 -51 -67
-84 -124 -62 -45 17 -55 38 -56 116 0 78 20 119 63 127 12 2 25 5 29 6 4 0 19
-4 34 -9z m201 -1 c32 -12 43 -26 43 -56 0 -31 -45 -33 -53 -2 -7 24 -40 23
-45 -2 -2 -10 9 -21 30 -29 75 -30 98 -83 59 -131 -40 -50 -151 -22 -151 38 0
19 5 23 30 23 24 0 30 -4 30 -21 0 -15 5 -20 22 -17 42 6 33 36 -16 58 -76 32
-89 107 -23 135 39 17 39 17 74 4z m202 -4 c26 -13 46 -56 33 -70 -14 -14 -50
-3 -55 16 -4 13 -12 20 -24 17 -29 -5 -21 -32 15 -50 73 -36 92 -81 53 -129
-15 -19 -29 -24 -66 -24 -37 0 -51 5 -66 24 -29 36 -25 61 10 61 21 0 30 -6
34 -21 7 -25 40 -22 45 4 3 12 -9 23 -42 37 -74 31 -86 108 -22 136 40 17 51
17 85 -1z m200 4 c17 -6 36 -19 41 -29 6 -10 10 -62 10 -115 l0 -97 -32 3
c-18 1 -48 -1 -66 -5 -50 -12 -82 13 -82 64 0 44 20 64 83 81 28 7 37 15 35
27 -5 25 -45 27 -58 3 -11 -22 -44 -28 -55 -11 -12 20 8 59 38 74 38 19 45 19
86 5z m319 -22 c16 -15 22 -32 22 -64 l0 -43 -61 0 c-60 0 -60 0 -57 -27 3
-32 44 -46 54 -19 9 23 64 21 64 -2 0 -49 -66 -84 -121 -64 -50 20 -59 37 -59
121 0 68 3 80 23 98 12 11 29 23 37 26 25 9 73 -4 98 -26z m1000 -3 c18 -21
22 -36 22 -98 0 -77 -15 -107 -61 -121 -31 -10 -84 3 -105 26 -23 26 -31 127
-13 170 24 60 111 73 157 23z m240 8 c8 -10 12 -52 12 -119 l0 -103 -30 0 -30
0 0 90 c0 75 -3 92 -17 97 -32 12 -53 -32 -53 -113 l0 -74 -30 0 -30 0 0 120
0 120 29 0 c16 0 31 -5 33 -11 2 -6 14 -5 33 5 33 17 63 13 83 -12z m530 -8
c15 -17 22 -38 22 -65 l0 -39 -61 0 c-60 0 -60 0 -57 -27 3 -32 44 -46 54 -19
4 10 18 16 35 16 22 0 29 -5 29 -20 0 -42 -64 -79 -115 -66 -52 13 -65 39 -65
124 0 69 3 81 23 99 12 11 29 23 37 26 28 11 75 -3 98 -29z m539 12 c7 -6 13
-53 15 -116 l3 -105 -32 -3 -33 -3 0 91 c0 72 -3 92 -15 96 -33 13 -45 -15
-45 -102 l0 -84 -35 0 -35 0 0 120 0 120 35 0 c19 0 35 -4 35 -9 0 -6 12 -3
28 4 28 15 58 12 79 -9z m221 -12 c19 -22 22 -36 22 -120 l0 -95 -42 1 c-24 1
-54 -1 -68 -5 -34 -9 -80 27 -80 61 0 41 18 63 63 75 52 15 67 26 60 45 -8 21
-41 17 -55 -6 -12 -19 -48 -27 -60 -14 -15 14 11 60 43 77 43 22 86 16 117
-19z m391 25 c36 -13 61 -53 61 -99 l0 -30 -59 0 c-65 0 -73 -5 -64 -38 6 -26
53 -32 53 -7 0 11 11 15 36 15 32 0 35 -2 29 -22 -13 -43 -42 -63 -90 -63 -64
0 -87 27 -93 105 -5 75 11 118 52 136 38 16 36 16 75 3z m204 -3 c15 -8 27
-11 27 -5 0 5 14 9 30 9 l30 0 0 -149 c0 -134 -2 -151 -20 -174 -41 -52 -147
-44 -170 13 -7 16 -9 34 -5 39 9 15 46 7 60 -12 27 -37 75 -10 75 43 0 17 -3
19 -19 10 -36 -19 -78 -12 -100 16 -16 21 -21 41 -21 88 0 85 8 106 44 122 39
17 36 17 69 0z m285 -22 c19 -22 22 -36 22 -120 l0 -95 -42 1 c-24 1 -54 -1
-68 -5 -35 -9 -80 27 -80 64 0 39 19 60 70 75 33 10 46 19 48 35 4 28 -31 29
-51 0 -22 -30 -63 -23 -59 11 10 70 109 91 160 34z m-3048 -94 l0 -120 -35 0
-35 0 0 113 c0 63 3 117 7 120 3 4 19 7 35 7 l28 0 0 -120z m2280 63 c19 -91
25 -93 45 -14 17 70 18 71 50 71 l33 0 -52 -177 -51 -178 -33 -3 c-29 -3 -33
-1 -29 15 31 106 31 95 -2 207 -18 59 -35 114 -38 122 -4 10 4 14 29 14 34 0
35 -1 48 -57z m-1536 -3639 c9 -24 7 -134 -3 -134 -4 0 -6 -11 -3 -25 l4 -25
-87 0 c-80 0 -86 1 -80 19 3 12 0 21 -10 25 -13 4 -15 19 -13 68 3 55 6 64 28
75 38 19 156 17 164 -3z m-1222 -331 c3 -65 3 -246 -1 -403 -6 -267 -7 -285
-25 -288 -11 -2 -16 0 -12 6 4 7 -12 13 -41 17 -27 3 -58 10 -71 16 -13 5 -32
9 -42 9 -28 0 -34 48 -25 205 5 99 11 137 22 146 33 28 59 119 34 119 -5 0
-12 7 -15 15 -4 11 3 19 19 25 14 5 26 14 26 20 1 5 2 16 3 23 1 6 -2 18 -7
25 -13 16 0 29 32 34 32 4 52 35 31 48 -13 9 -13 11 0 19 12 8 11 14 -10 35
l-23 26 21 1 c34 2 40 3 48 12 24 24 31 2 36 -110z m196 -325 l-3 -353 -30 2
c-16 1 -31 7 -33 13 -7 21 -36 41 -52 37 -13 -3 -20 3 -24 25 -10 53 -7 555 4
538 7 -11 10 0 10 38 l0 52 65 0 65 0 -2 -352z m1592 -818 l0 -90 -99 0 c-54
0 -113 3 -130 6 -31 6 -31 7 -31 68 0 35 5 67 12 74 7 7 32 12 58 13 37 1 41
2 20 9 -16 5 8 8 73 9 l97 1 0 -90z m216 79 c3 -6 3 -82 -1 -170 l-7 -159 -77
0 c-129 0 -121 -9 -121 145 0 72 5 146 11 164 l11 31 88 0 c53 0 92 -4 96 -11z
m162 -185 c2 -1 1 -235 -4 -518 -6 -448 -9 -516 -22 -516 -8 0 -20 7 -26 16
-9 12 -17 13 -39 5 -86 -33 -91 -10 -82 358 4 157 9 302 11 321 2 19 7 103 10
187 6 145 7 152 28 156 20 4 117 -3 124 -9z m-2190 -886 l4 -108 -94 0 c-51 0
-99 4 -106 8 -8 6 -10 22 -6 55 7 52 21 62 26 20 3 -27 6 -28 66 -31 60 -3 63
-2 53 17 -6 11 -11 30 -11 43 0 33 -31 56 -82 61 -24 2 -3 5 47 6 104 3 102 7
-10 17 -97 9 -69 23 40 21 l70 -2 3 -107z m3884 -342 c5 -22 7 -141 6 -265
l-3 -226 -65 -3 c-36 -2 -88 -1 -117 3 -77 9 -83 32 -84 287 -1 195 0 200 22
224 22 24 28 25 128 22 l105 -3 8 -39z m-4662 -273 l0 -168 -72 5 -73 4 55 6
c66 6 45 20 -31 20 l-49 0 0 43 c0 53 8 64 44 69 65 7 88 98 25 98 -16 0 -29
-4 -29 -10 0 -5 -9 -10 -20 -10 -16 0 -20 7 -20 30 l0 30 75 0 c71 0 75 1 81
25 3 14 8 25 10 25 2 0 4 -75 4 -167z m250 135 c0 -18 -3 -70 -7 -116 l-6 -83
-101 3 c-114 3 -107 -5 -86 98 7 30 17 58 23 62 7 4 1 11 -16 17 -46 18 -30
26 55 29 44 1 88 7 97 12 30 17 41 11 41 -22z m1440 -445 c0 -105 -6 -123 -39
-123 -19 0 -22 3 -12 9 11 7 9 10 -10 13 -22 3 -24 7 -23 59 2 86 10 107 42
112 15 2 30 5 35 6 4 0 7 -34 7 -76z m2287 -123 l6 -31 21 30 c25 36 30 37 56
11 18 -18 20 -33 20 -154 0 -155 -4 -161 -84 -131 -52 20 -53 24 -63 191 -6
112 -6 114 16 114 16 0 23 -8 28 -30z m-3623 -122 c13 -41 20 -328 9 -328 -30
0 -67 219 -45 263 7 12 11 29 10 37 -4 50 14 69 26 28z m4312 -106 c8 -5 13
-75 15 -207 l4 -200 -150 0 -150 0 0 186 c0 140 4 190 13 202 13 16 39 19 207
25 28 1 55 -2 61 -6z"/>
<path d="M6613 9773 c-20 -4 -23 -11 -23 -51 l0 -47 85 0 85 0 0 46 c0 40 -3
48 -22 53 -25 6 -90 6 -125 -1z"/>
</g>
</svg>
