<?xml version="1.0" standalone="no"?>
<!DOCTYPE svg PUBLIC "-//W3C//DTD SVG 20010904//EN"
 "http://www.w3.org/TR/2001/REC-SVG-20010904/DTD/svg10.dtd">
<svg version="1.0" xmlns="http://www.w3.org/2000/svg"
 width="720.000000pt" height="1280.000000pt" viewBox="0 0 720.000000 1280.000000"
 preserveAspectRatio="xMidYMid meet">
<metadata>
Created by potrace 1.16, written by Peter Selinger 2001-2019
</metadata>
<g transform="translate(0.000000,1280.000000) scale(0.100000,-0.100000)"
fill="#000000" stroke="none">
<path d="M0 6400 l0 -6400 3600 0 3600 0 0 1100 c0 624 -4 1100 -9 1100 -5 0
-14 -7 -21 -15 -16 -19 -60 -19 -88 1 -30 21 -52 66 -52 106 -1 56 -37 87 -96
79 -6 0 -24 -32 -39 -71 -15 -38 -32 -70 -36 -70 -4 0 -21 -11 -37 -25 -16
-13 -32 -22 -35 -19 -10 10 -19 -43 -15 -86 3 -38 2 -40 -28 -46 -17 -3 -106
-4 -196 -2 -130 2 -168 6 -179 18 -12 12 -19 79 -32 300 -10 157 -17 338 -17
403 0 75 -4 117 -11 117 -6 0 -10 32 -11 83 0 69 -5 239 -7 257 -1 3 -16 14
-33 25 -18 10 -36 23 -39 28 -7 10 -125 24 -235 28 -36 1 -89 8 -117 16 -28 7
-77 13 -107 13 -34 0 -64 6 -76 15 -10 8 -29 15 -42 15 -12 0 -34 7 -47 16
-19 12 -39 14 -87 10 -35 -4 -76 -7 -93 -7 -46 -2 -306 30 -342 42 -42 13
-167 31 -220 30 -24 0 -43 4 -43 8 0 8 -123 23 -235 28 -33 1 -68 3 -77 3 -10
1 -16 9 -15 20 1 10 5 17 9 14 4 -3 16 4 28 16 24 24 41 25 95 5 54 -19 97
-18 121 2 10 10 55 50 99 88 44 39 102 91 130 116 27 26 91 80 140 122 50 41
97 86 104 101 12 21 13 67 7 253 -5 126 -11 266 -15 313 -6 66 -2 119 16 240
36 243 38 276 20 303 -19 29 -68 53 -151 76 -69 19 -56 -6 -135 251 -28 91
-68 208 -91 260 -40 94 -104 200 -121 200 -5 0 -9 6 -9 14 0 8 -32 35 -70 62
-70 47 -70 48 -51 68 37 41 68 117 70 170 2 43 23 -4 28 -62 4 -44 1 -68 -11
-92 -19 -39 -20 -43 -5 -34 15 9 38 66 48 119 14 76 -24 242 -71 308 -21 29
-21 29 -1 18 61 -32 109 -138 101 -223 -4 -35 -2 -46 5 -39 6 6 13 40 15 75 3
53 0 74 -20 118 -50 108 -173 208 -254 208 -42 0 -49 12 -29 49 46 91 -12 296
-116 406 -148 156 -426 189 -615 73 -21 -13 -65 -32 -96 -41 -103 -32 -197
-107 -242 -194 -27 -53 -22 -63 29 -63 39 0 46 -4 60 -30 8 -16 15 -47 15 -70
0 -57 16 -50 23 11 6 46 31 101 69 152 11 15 13 6 13 -65 0 -72 4 -89 27 -129
27 -46 90 -109 109 -109 6 0 7 5 3 11 -11 18 -23 79 -15 79 13 0 58 -35 124
-98 37 -35 71 -62 74 -58 3 3 -2 16 -13 28 -10 13 2 4 28 -20 26 -23 50 -42
54 -42 3 0 3 12 0 28 -7 26 -6 26 13 -5 11 -18 28 -58 37 -90 14 -48 15 -65 5
-102 -6 -24 -10 -46 -7 -48 9 -9 45 55 62 112 20 70 35 88 86 109 33 14 38 14
57 -2 19 -16 26 -42 23 -89 -4 -49 -124 -143 -184 -143 -10 0 -18 -4 -18 -10
0 -13 26 -13 51 0 17 10 20 7 26 -21 6 -33 46 -67 136 -117 37 -21 50 -35 59
-64 14 -49 -2 -73 -83 -129 -76 -51 -152 -79 -240 -86 -149 -13 -240 44 -290
179 -10 29 -19 53 -19 54 0 1 14 4 31 8 39 8 51 -2 101 -78 45 -70 50 -63 8
13 -30 54 -31 71 -4 71 8 0 14 3 14 8 0 4 23 20 50 35 52 29 70 48 23 23 -45
-22 -124 -47 -183 -57 -47 -7 -60 -6 -94 12 -27 14 -36 16 -28 6 7 -8 26 -20
42 -27 23 -9 33 -22 41 -54 6 -22 17 -53 25 -68 19 -36 77 -94 114 -113 115
-60 307 -22 453 90 34 26 48 44 53 70 11 61 -1 80 -71 120 -66 36 -84 52 -42
36 73 -28 175 -86 213 -121 28 -26 53 -40 71 -41 16 0 37 -4 48 -8 15 -6 11
-9 -21 -14 -73 -12 -146 -111 -197 -272 -52 -160 -82 -462 -65 -658 6 -78 5
-105 -7 -134 -8 -19 -15 -44 -15 -54 0 -10 -9 -23 -21 -30 -23 -12 -56 -78
-61 -124 -3 -25 -13 -35 -57 -57 -71 -36 -80 -45 -105 -98 -20 -42 -24 -45
-65 -48 -57 -4 -171 23 -241 58 -58 30 -150 111 -150 132 1 7 7 24 15 38 8 14
15 36 15 50 1 24 1 24 15 6 25 -33 17 -10 -19 56 -91 166 -131 303 -143 492
-5 71 -11 97 -30 124 -12 19 -23 39 -23 45 0 6 -3 8 -6 5 -3 -3 6 -28 19 -55
19 -38 26 -71 32 -157 l7 -110 -26 30 c-27 29 -27 29 -20 4 4 -14 20 -49 36
-78 54 -100 79 -173 72 -211 -4 -20 -11 -41 -15 -47 -6 -7 -1 -18 12 -30 52
-47 65 -135 29 -189 -23 -35 -25 -70 -5 -105 25 -43 19 -104 -15 -153 -17 -25
-30 -58 -30 -73 0 -39 -10 -74 -21 -74 -5 0 -20 24 -34 54 -16 35 -33 56 -48
60 -87 23 -178 -44 -176 -131 0 -24 1 -26 9 -8 8 18 9 17 9 -7 1 -16 -3 -28
-7 -28 -19 0 -52 48 -52 76 0 17 -7 39 -16 50 -8 10 -13 13 -9 7 8 -16 -9 -17
-38 -2 -18 9 -20 9 -9 -2 6 -7 12 -18 12 -24 0 -6 -32 -46 -70 -89 -75 -85
-126 -165 -136 -214 -5 -26 -1 -36 23 -61 l29 -29 -29 -113 c-23 -91 -27 -127
-23 -178 6 -72 0 -76 -14 -10 l-8 44 -1 -55 c-8 -497 -8 -957 1 -1129 8 -162
8 -216 0 -219 -18 -6 -15 -133 3 -159 15 -21 14 -21 -68 -27 -45 -3 -132 -5
-194 -3 l-112 2 15 22 c8 13 14 46 14 77 0 71 -53 198 -138 328 -33 52 -68
117 -77 146 -17 50 -17 52 3 69 22 20 41 73 103 278 23 77 52 156 64 175 29
44 152 253 177 300 45 88 142 299 154 340 25 82 13 203 -29 285 -23 46 -119
143 -210 211 -34 26 -64 49 -66 51 -7 5 52 116 87 162 63 82 72 102 72 167 0
54 4 69 35 114 19 29 38 64 41 77 7 27 -4 85 -27 141 -12 28 -11 39 4 81 28
80 23 122 -27 214 -42 78 -45 90 -61 222 -36 311 -78 544 -108 600 -45 85
-171 170 -357 239 -58 22 -109 42 -113 46 -5 4 1 35 12 68 12 34 20 78 20 99
-1 21 -3 29 -5 18 -21 -106 -31 -139 -60 -202 -18 -41 -36 -89 -40 -108 -17
-94 -96 -110 -236 -49 -46 20 -93 44 -106 52 -12 8 -25 13 -28 10 -2 -3 14
-17 36 -32 55 -36 120 -96 120 -110 0 -6 -12 -29 -26 -49 -14 -21 -24 -41 -21
-44 7 -7 66 56 83 90 15 27 44 37 44 14 0 -24 -49 -84 -82 -100 -93 -43 -245
-47 -316 -7 -67 37 -152 164 -152 225 0 33 42 107 78 139 25 22 26 19 11 -20
-10 -28 -10 -28 10 -10 11 10 23 27 26 37 4 12 16 19 31 19 19 0 29 -8 40 -36
20 -48 27 -38 11 17 -11 37 -17 44 -41 47 -37 5 -132 58 -151 85 -20 29 -20
126 1 155 8 12 26 22 40 22 32 0 101 -63 109 -100 6 -25 50 -70 69 -70 3 0 6
24 6 53 0 64 11 87 34 68 14 -12 16 -7 17 40 1 64 17 116 18 59 2 -71 15 -66
86 32 45 62 65 84 61 66 -3 -16 -9 -39 -12 -53 -3 -14 -2 -25 3 -25 23 0 96
64 123 107 33 51 39 40 15 -27 -18 -50 -18 -50 -5 -50 23 0 82 67 111 126 17
35 36 61 40 58 15 -9 42 -67 49 -107 7 -35 5 -39 -21 -53 -16 -8 -33 -23 -39
-34 -13 -24 -7 -25 25 -4 32 21 53 12 57 -23 l4 -28 9 30 c4 17 17 43 27 58
11 15 22 46 25 68 7 51 20 58 32 17 8 -29 9 -26 10 33 1 60 -2 72 -32 117
l-34 49 39 17 c38 17 54 43 20 32 -17 -6 -118 38 -157 67 -20 15 -20 16 4 41
l24 26 -39 0 c-21 0 -87 14 -146 31 -104 31 -107 33 -93 53 21 28 19 39 -4 26
-11 -5 -55 -10 -99 -10 -96 0 -184 -15 -235 -42 -43 -22 -58 -17 -39 12 17 28
-1 25 -37 -6 -20 -17 -35 -42 -42 -70 -6 -24 -17 -44 -23 -44 -31 0 -116 -54
-140 -88 -14 -21 -26 -42 -26 -48 0 -5 4 -4 8 1 12 18 64 55 76 55 6 0 2 -8
-10 -18 -81 -67 -130 -258 -89 -347 l13 -30 2 40 c2 38 2 37 19 -25 9 -36 26
-81 37 -100 77 -127 110 -179 131 -204 31 -37 30 -38 -106 -97 -125 -55 -360
-180 -436 -233 -32 -23 -80 -67 -106 -99 -102 -127 -133 -223 -164 -502 -10
-82 -24 -168 -32 -190 -8 -22 -17 -51 -19 -65 -3 -14 -17 -84 -32 -157 -25
-123 -28 -132 -52 -137 -62 -12 -167 -130 -206 -231 -16 -42 -16 -52 0 -160 9
-63 25 -143 36 -177 17 -53 20 -92 20 -241 0 -113 4 -186 11 -200 14 -27 45
-58 51 -51 3 2 38 -12 77 -31 67 -33 78 -36 129 -29 32 3 71 15 89 26 18 10
45 23 61 28 l29 8 38 -95 c21 -52 58 -128 83 -169 42 -70 46 -80 46 -145 1
-70 1 -71 45 -110 43 -39 44 -43 46 -102 1 -40 7 -71 18 -88 10 -15 24 -58 32
-98 20 -92 66 -219 103 -279 43 -72 60 -112 86 -208 35 -129 42 -144 96 -199
l49 -50 1 -125 c1 -69 -3 -152 -7 -185 l-8 -60 -660 0 -660 0 -3 1994 c-2
1970 -2 1995 18 2013 10 10 23 18 27 18 5 0 14 9 21 20 7 11 17 20 23 20 5 0
26 11 45 24 29 19 32 25 20 35 -12 10 -21 6 -51 -23 -20 -20 -51 -38 -70 -42
l-35 -6 0 155 c0 127 3 158 15 171 14 13 45 76 45 90 0 3 -14 1 -30 -4 l-30
-9 0 881 c0 778 2 879 15 874 15 -5 68 43 141 128 27 31 39 37 78 39 39 2 46
5 46 22 0 27 -49 103 -71 110 -8 3 -37 -4 -63 -15 -25 -12 -54 -20 -64 -19 -9
1 -25 -1 -35 -6 -26 -11 -47 1 -47 29 0 35 10 56 26 56 20 0 17 40 -6 75 -19
28 -20 47 -20 298 l0 267 3343 -2 3342 -3 5 -45 c8 -59 18 -75 82 -136 29 -28
63 -63 75 -80 l23 -29 -7 54 c-6 58 2 71 48 71 24 0 89 -52 89 -72 0 -11 85
-185 102 -210 8 -11 25 -18 45 -18 l33 0 0 95 c0 93 -1 96 -50 200 -27 58 -51
120 -52 138 -3 32 -3 32 50 35 l52 3 0 1775 0 1774 -3600 0 -3600 0 0 -6400z
m6795 3679 c153 -68 200 -265 96 -404 -25 -34 -27 -41 -14 -50 23 -17 -3 -53
-49 -67 -30 -9 -45 -8 -80 5 -34 13 -55 15 -98 8 -30 -5 -63 -13 -73 -16 -53
-21 -137 34 -107 70 11 13 9 19 -8 38 -85 90 -82 268 6 360 77 82 216 105 327
56z m-652 5 c52 -18 116 -76 143 -132 28 -55 26 -174 -4 -229 -50 -95 -136
-143 -256 -143 -209 0 -331 220 -222 402 25 42 43 59 94 85 54 28 75 33 131
33 37 0 88 -7 114 -16z m-5834 -111 c15 -56 71 -300 71 -307 0 -3 -15 -6 -33
-6 -28 0 -34 4 -42 33 -9 29 -14 32 -49 32 -36 0 -40 -3 -48 -32 -8 -29 -13
-33 -42 -33 l-34 0 14 58 c7 31 26 110 41 175 l27 117 43 0 c40 0 43 -2 52
-37z m401 -55 l1 -93 30 38 c23 27 39 37 60 37 16 0 29 -3 29 -6 0 -4 -16 -28
-35 -53 -30 -41 -33 -50 -21 -67 7 -10 25 -40 40 -66 l27 -48 -35 0 c-30 0
-38 5 -57 40 -13 22 -26 40 -31 40 -4 0 -8 -18 -8 -40 0 -38 -2 -40 -30 -40
l-30 0 0 175 0 175 30 0 30 0 0 -92z m1740 -83 l0 -176 -42 1 c-24 1 -55 -1
-69 -5 -19 -5 -33 -1 -55 18 -28 24 -29 29 -29 106 1 69 4 85 22 102 22 22 54
28 91 15 21 -7 22 -5 22 53 l0 61 30 0 30 0 0 -175z m452 83 l3 -92 25 37 c20
30 31 37 58 37 30 0 42 -12 24 -24 -5 -3 -21 -23 -36 -44 l-27 -40 40 -66 41
-66 -35 0 c-30 0 -38 5 -57 40 -13 22 -26 40 -30 40 -5 0 -8 -18 -8 -40 0 -39
-1 -40 -35 -40 l-35 0 0 168 c0 93 3 172 7 175 3 4 19 7 34 7 l28 0 3 -92z
m728 28 l0 -65 35 15 c28 11 40 12 58 3 34 -18 37 -27 37 -136 l0 -103 -30 0
-30 0 0 90 c0 75 -3 92 -16 97 -37 14 -49 -10 -52 -101 l-3 -86 -29 0 -30 0 0
175 0 175 30 0 30 0 0 -64z m530 3 c0 -58 1 -60 23 -53 76 26 107 -8 107 -118
0 -71 -2 -81 -26 -105 -21 -21 -31 -24 -57 -18 -18 4 -49 6 -69 6 l-38 -2 0
176 0 175 30 0 30 0 0 -61z m-1482 -11 c3 -35 6 -38 33 -38 24 0 29 -4 29 -25
0 -21 -5 -25 -30 -25 l-31 0 3 -67 c3 -66 4 -68 31 -71 21 -3 27 -8 23 -19 -3
-8 -6 -19 -6 -24 0 -16 -73 -10 -92 8 -14 13 -18 31 -18 90 0 66 -2 75 -20 80
-13 3 -20 14 -20 29 0 17 6 24 20 24 17 0 20 7 20 41 0 38 1 40 28 37 23 -3
27 -8 30 -40z m-2094 -58 c24 -24 34 -122 17 -173 -15 -44 -59 -66 -97 -48
-14 6 -27 11 -29 11 -3 0 -5 -29 -5 -65 l0 -65 -30 0 -30 0 0 181 0 182 39 -6
c21 -2 45 -1 52 4 19 12 60 2 83 -21z m402 20 c8 0 23 -9 34 -20 17 -17 20
-33 20 -121 l0 -101 -32 3 c-18 1 -48 -1 -66 -5 -50 -12 -82 13 -82 64 0 44
20 64 83 81 28 7 37 15 35 27 -5 25 -45 27 -58 3 -13 -25 -48 -28 -57 -5 -13
34 56 90 95 78 8 -2 20 -4 28 -4z m293 -1 c38 -14 51 -35 51 -88 l0 -41 -61 0
c-60 0 -60 0 -57 -27 3 -32 44 -46 54 -19 4 10 18 16 35 16 35 0 39 -25 10
-61 -27 -34 -99 -34 -135 0 -23 22 -26 32 -26 96 0 79 20 120 63 128 12 2 25
5 28 6 3 0 20 -4 38 -10z m199 0 c29 -10 59 -59 45 -73 -15 -15 -51 -5 -56 15
-4 13 -12 20 -24 17 -31 -6 -27 -34 7 -48 78 -32 101 -82 61 -131 -15 -19 -29
-24 -66 -24 -37 0 -51 5 -66 24 -29 36 -25 61 11 61 24 0 30 -4 30 -21 0 -15
5 -20 22 -17 42 6 33 36 -16 58 -54 23 -75 57 -60 98 9 25 45 52 70 52 6 0 25
-5 42 -11z m219 -13 c6 -6 13 -22 15 -36 2 -21 -2 -26 -23 -28 -20 -2 -28 2
-32 18 -4 14 -12 21 -24 18 -29 -5 -21 -32 15 -50 73 -36 92 -81 53 -129 -15
-19 -29 -24 -66 -24 -37 0 -51 5 -66 24 -29 36 -25 61 10 61 21 0 30 -6 34
-21 7 -25 40 -22 45 4 3 12 -9 23 -42 37 -51 21 -70 54 -60 97 12 45 104 65
141 29z m182 13 c17 -6 36 -19 41 -29 6 -10 10 -62 10 -116 l0 -97 -40 6 c-22
3 -43 1 -46 -4 -8 -14 -47 -11 -72 7 -16 11 -22 25 -22 54 0 44 20 64 83 81
28 7 37 15 35 27 -5 25 -45 27 -58 3 -13 -25 -48 -28 -57 -5 -8 23 16 62 46
73 35 13 43 13 80 0z m319 -22 c16 -15 22 -32 22 -64 l0 -43 -61 0 c-60 0 -60
0 -57 -27 3 -32 44 -46 54 -19 8 20 64 22 64 2 0 -69 -102 -98 -158 -45 -19
17 -22 31 -22 98 0 68 3 80 23 98 12 11 29 23 37 26 25 9 73 -4 98 -26z m1000
-3 c19 -21 22 -36 22 -99 0 -70 -1 -74 -32 -100 -27 -23 -39 -26 -71 -22 -59
8 -80 35 -85 107 -3 36 1 72 9 91 24 60 111 73 157 23z m240 9 c8 -11 12 -53
12 -120 l0 -103 -30 0 -30 0 0 90 c0 75 -3 92 -17 97 -32 12 -53 -32 -53 -113
l0 -74 -30 0 -30 0 0 120 0 120 29 0 c16 0 31 -5 33 -12 3 -8 11 -7 29 5 27
20 67 15 87 -10z m530 -9 c15 -17 22 -38 22 -65 l0 -39 -61 0 c-60 0 -60 0
-57 -27 3 -32 44 -46 54 -19 4 10 18 16 35 16 35 0 40 -29 9 -60 -27 -27 -63
-34 -105 -20 -46 15 -55 34 -55 123 0 64 3 76 23 94 12 11 29 23 37 26 28 11
75 -3 98 -29z m542 10 c11 -11 15 -39 15 -117 l0 -102 -32 -3 -33 -3 0 91 c0
72 -3 92 -15 96 -33 13 -45 -15 -45 -102 l0 -84 -35 0 -35 0 0 120 0 120 35 0
c19 0 35 -4 35 -9 0 -6 12 -3 28 4 29 16 58 12 82 -11z m215 -5 c17 -16 21
-36 23 -120 l4 -100 -44 1 c-23 1 -54 -1 -68 -5 -34 -9 -80 27 -80 61 0 42 17
62 70 79 37 12 50 22 50 36 0 26 -36 25 -52 -1 -12 -19 -48 -27 -61 -14 -3 3
-1 19 5 36 20 56 108 72 153 27z m394 20 c36 -13 61 -53 61 -99 l0 -30 -59 0
c-63 0 -76 -8 -66 -40 8 -24 55 -28 55 -5 0 11 11 15 36 15 32 0 35 -2 29 -22
-4 -13 -18 -34 -33 -47 -21 -19 -33 -22 -65 -18 -60 8 -80 35 -85 109 -5 79 9
115 50 133 41 17 38 17 77 4z m204 -3 c15 -8 27 -11 27 -5 0 5 14 9 31 9 l30
0 -3 -154 c-3 -134 -5 -157 -22 -175 -42 -46 -144 -35 -166 19 -7 16 -9 34 -5
39 10 18 44 12 57 -9 27 -42 78 -15 78 41 0 18 -3 20 -12 11 -7 -7 -29 -12
-49 -12 -56 0 -79 34 -79 116 0 72 13 107 44 122 29 14 37 14 69 -2z m285 -22
c19 -22 22 -36 22 -120 l0 -95 -42 1 c-24 1 -54 -1 -68 -5 -36 -9 -80 27 -80
65 0 27 32 70 52 70 5 0 24 7 43 14 25 11 33 19 29 30 -9 22 -41 20 -56 -4
-18 -29 -58 -27 -58 3 0 73 105 101 158 41z m-3048 -94 l0 -120 -35 0 -35 0 0
113 c0 63 3 117 7 120 3 4 19 7 35 7 l28 0 0 -120z m2280 63 c19 -90 25 -92
45 -14 18 68 20 71 48 71 28 0 29 -2 23 -33 -3 -19 -25 -99 -49 -178 l-42
-144 -34 -3 c-28 -3 -33 -1 -27 14 28 74 28 99 -3 207 -18 59 -34 113 -37 122
-5 12 2 15 28 15 34 0 35 -1 48 -57z m-402 -3563 c-5 -64 -31 -125 -63 -146
-20 -13 -29 -11 -91 17 -92 41 -97 44 -102 57 -2 8 7 8 33 1 42 -12 54 -6 35
16 -10 12 -10 16 1 19 8 3 32 10 54 17 73 22 103 53 111 114 4 32 5 32 16 -5
5 -19 8 -60 6 -90z m306 -425 c58 -59 103 -169 129 -310 16 -92 20 -157 21
-390 0 -249 -2 -295 -22 -410 -33 -191 -62 -297 -102 -376 -38 -73 -136 -156
-323 -273 -163 -102 -187 -109 -297 -85 -48 10 -52 9 -92 -20 -35 -26 -51 -31
-100 -31 -32 0 -58 4 -58 9 0 16 29 33 52 29 l23 -5 -25 -11 c-23 -10 -23 -11
-4 -11 28 -1 47 23 39 49 -9 29 -112 138 -148 157 -25 12 -34 13 -53 2 -58
-30 -27 32 41 83 27 20 58 54 68 75 28 55 46 72 83 79 41 8 47 15 73 89 12 33
29 67 39 76 23 22 126 62 130 51 1 -5 10 -18 18 -28 15 -18 15 -18 7 1 -13 33
-9 138 7 170 12 23 26 33 63 42 50 12 106 43 128 70 8 9 -7 1 -33 -17 -26 -19
-50 -31 -54 -28 -15 16 -16 140 -1 242 9 61 21 149 28 196 13 99 70 334 100
417 29 78 65 130 117 170 61 47 92 44 146 -12z m-2564 -851 c0 -8 13 -29 30
-46 l30 -30 -24 -41 c-39 -66 -41 -104 -12 -160 l26 -47 -34 -45 -35 -45 -12
38 c-7 20 -18 46 -26 58 -11 18 -11 26 2 57 20 49 19 86 -5 125 -18 30 -19 36
-7 60 44 86 67 111 67 76z m165 -645 c48 -23 62 -58 47 -116 -7 -26 -18 -112
-23 -190 -5 -79 -13 -153 -18 -166 -10 -25 -70 -81 -78 -73 -3 3 4 25 16 49
11 24 21 48 21 53 0 17 -49 -71 -50 -88 0 -20 -53 -84 -83 -100 -16 -8 -19 -8
-14 3 3 8 24 56 47 108 22 51 39 95 37 97 -2 3 -23 -37 -46 -88 -47 -102 -70
-133 -107 -142 -39 -10 -47 2 -25 37 26 43 81 183 80 205 -1 21 -5 10 -45 -98
-15 -41 -43 -94 -62 -117 -29 -36 -32 -44 -18 -49 16 -6 28 -5 114 14 31 7 41
7 33 -1 -6 -6 -11 -20 -11 -31 0 -12 -16 -44 -35 -72 -35 -51 -56 -123 -90
-314 -8 -43 -30 -112 -54 -162 -23 -48 -41 -95 -41 -105 0 -10 -16 -31 -35
-46 -61 -49 -95 -145 -95 -271 0 -87 29 -126 170 -226 11 -8 32 -44 46 -80 14
-36 33 -80 42 -99 27 -53 116 -145 187 -191 36 -23 65 -44 65 -46 0 -2 -116
-4 -259 -4 l-259 0 -30 98 c-36 117 -49 171 -57 237 -7 56 -57 294 -85 400
-11 43 -20 128 -24 220 -8 188 -19 257 -52 331 -22 50 -25 67 -19 124 4 49 2
72 -10 94 -9 16 -15 54 -15 89 l0 61 21 -39 c13 -25 23 -67 26 -110 6 -79 15
-95 51 -95 14 0 33 -7 43 -16 23 -21 86 -9 115 23 28 31 36 39 66 66 14 13 34
53 47 95 l23 72 -27 83 c-27 81 -45 116 -45 86 0 -7 12 -46 26 -86 l26 -72
-20 -68 c-12 -37 -28 -77 -37 -88 l-17 -20 7 20 c20 61 16 128 -17 253 -20 77
-24 43 -6 -45 25 -118 24 -152 -8 -223 -33 -74 -54 -95 -54 -54 0 16 5 45 10
64 12 40 -5 196 -23 207 -7 4 -8 -2 -3 -18 15 -54 17 -165 4 -224 -12 -48 -19
-61 -36 -63 -29 -4 -38 35 -24 108 10 58 5 110 -17 146 -9 16 -10 14 -4 -11
10 -36 9 -92 -2 -163 -8 -57 -15 -65 -39 -56 -12 5 -16 21 -16 70 0 54 -6 78
-37 142 -20 42 -53 97 -74 122 -20 25 -51 77 -67 116 -17 39 -44 91 -61 114
l-31 42 20 28 c48 67 112 101 153 83 13 -6 72 -56 133 -112 60 -56 134 -119
164 -139 61 -42 92 -90 113 -172 8 -29 17 -48 21 -42 8 14 4 82 -5 82 -4 0 -9
10 -12 23 l-6 22 19 -24 c11 -12 18 -27 15 -31 -6 -10 24 -22 36 -14 12 7 11
101 -1 125 -9 15 -3 43 29 128 36 100 44 112 103 169 38 36 77 86 93 118 l28
56 51 -4 c28 -2 64 -11 81 -19z m1084 -35 c11 -14 23 -35 27 -47 3 -12 31 -48
61 -80 34 -35 53 -63 49 -72 -8 -22 24 -19 107 9 40 14 91 27 113 31 39 6 45
3 103 -45 33 -28 61 -53 61 -56 0 -10 -122 -155 -172 -204 -52 -52 -188 -138
-247 -159 -19 -6 -31 -8 -28 -4 4 5 40 41 80 82 l72 75 -70 -61 c-38 -34 -81
-73 -95 -88 -25 -27 -79 -60 -86 -52 -9 9 63 126 115 187 l55 65 -56 -54 c-31
-29 -73 -84 -93 -122 -21 -37 -42 -66 -46 -63 -20 12 19 153 58 211 20 30 21
34 5 20 -41 -37 -72 -135 -107 -339 -26 -148 -5 -218 105 -349 33 -39 60 -75
60 -79 0 -15 -50 -32 -78 -27 -37 7 -207 125 -285 196 -71 66 -142 164 -168
231 -27 72 -25 171 7 294 15 56 40 127 57 158 35 64 60 75 143 62 44 -6 46 -8
40 -35 -3 -15 -1 -41 3 -56 5 -15 14 -48 22 -73 7 -25 16 -49 21 -54 12 -14
10 -4 -7 44 -18 50 -18 53 -5 45 6 -3 1 9 -10 28 -19 32 -19 37 -5 103 9 38
18 109 22 159 6 80 9 93 34 117 38 39 108 40 138 2z m-2657 -96 c-17 -17 -15
-33 3 -18 12 10 15 10 15 -3 0 -26 145 -77 172 -61 7 5 8 2 3 -6 -6 -10 -3
-12 13 -8 12 4 20 2 17 -3 -4 -5 8 -6 26 -2 21 4 30 3 26 -4 -4 -6 3 -17 16
-26 53 -35 296 -284 302 -310 8 -32 8 -32 -25 -41 -17 -5 -21 -4 -12 2 16 11
0 16 -79 27 -39 6 -49 4 -57 -11 -8 -14 -5 -20 15 -31 14 -7 32 -13 39 -13 8
0 14 -4 14 -10 0 -5 -4 -10 -10 -10 -5 0 -10 -22 -10 -50 0 -38 -4 -50 -15
-50 -12 0 -15 -20 -15 -120 0 -100 -2 -120 -15 -120 -12 0 -15 -15 -15 -75 0
-60 3 -75 15 -75 12 0 15 -15 15 -79 0 -88 5 -111 26 -111 8 0 14 -7 14 -15 0
-8 -7 -15 -15 -15 -9 0 -15 -9 -15 -21 0 -19 -4 -20 -35 -15 -33 7 -35 6 -34
-21 2 -24 2 -24 6 -5 5 23 20 31 20 10 0 -7 3 -24 8 -38 7 -22 6 -23 -9 -11
-19 16 -21 3 -2 -22 8 -10 16 -14 18 -10 3 4 3 2 2 -4 -2 -7 6 -32 16 -55 11
-24 19 -50 19 -58 0 -8 -8 6 -18 31 -10 26 -34 73 -54 105 -48 81 -83 166
-111 276 -13 51 -31 107 -40 123 -20 37 -20 53 0 174 16 94 14 151 -5 151 -4
0 -6 -21 -4 -47 3 -27 1 -65 -4 -87 l-8 -38 -43 41 c-56 55 -56 90 -2 195 22
42 40 86 40 97 0 24 -20 15 -20 -9 0 -9 -13 -44 -29 -77 l-28 -60 -15 35 c-9
19 -32 62 -52 94 -45 74 -99 213 -93 238 3 10 2 16 -2 13 -14 -8 -33 76 -26
117 5 29 10 37 16 27 5 -8 9 -11 9 -7 0 3 3 14 7 24 4 12 3 15 -5 10 -16 -10
-15 0 4 40 9 19 21 34 27 34 7 0 7 -4 -1 -12z m2380 -75 c12 -24 24 -43 28
-43 4 0 10 -8 12 -18 5 -16 -1 -19 -41 -21 -25 -1 -70 -8 -98 -15 -39 -10 -53
-11 -53 -3 0 7 -7 3 -15 -7 -8 -11 -15 -15 -15 -9 0 16 78 134 113 171 l32 33
8 -23 c5 -13 18 -42 29 -65z m717 -330 c65 -21 122 -71 185 -162 l50 -71 -35
-36 c-36 -38 -165 -127 -236 -163 -45 -23 -61 -49 -18 -29 18 8 32 8 55 -2 69
-28 119 -125 156 -298 30 -139 31 -191 4 -225 -25 -31 -100 -62 -129 -52 -29
9 -472 450 -504 501 -54 86 -68 179 -45 299 l13 65 30 -6 c21 -4 38 0 55 14
14 10 40 22 59 25 37 8 188 91 236 131 36 30 56 31 124 9z m273 -476 c-4 -183
3 -237 52 -407 27 -90 30 -119 16 -145 l-13 -24 -39 42 c-53 57 -80 120 -113
261 -39 172 -85 260 -153 295 l-33 17 88 54 c92 56 170 91 188 83 8 -3 10 -55
7 -176z"/>
<path d="M6613 9773 c-20 -4 -23 -11 -23 -51 l0 -47 85 0 85 0 0 46 c0 40 -3
48 -22 53 -25 6 -90 6 -125 -1z"/>
<path d="M468 7343 c-1 -5 -2 -48 -2 -98 -1 -80 -4 -95 -28 -136 -27 -45 -37
-89 -19 -89 4 0 19 10 33 23 14 12 37 31 52 42 22 15 29 31 33 66 3 29 1 49
-6 53 -6 4 -11 30 -11 57 0 28 -5 59 -10 70 -10 19 -38 26 -42 12z"/>
<path d="M381 6408 c-6 -29 -15 -78 -21 -108 -7 -37 -20 -65 -38 -85 l-28 -29
29 -25 c26 -22 29 -29 24 -70 -6 -54 16 -111 43 -111 18 0 23 20 45 175 33
240 28 305 -21 305 -19 0 -24 -8 -33 -52z"/>
</g>
</svg>
