<?xml version="1.0" standalone="no"?>
<!DOCTYPE svg PUBLIC "-//W3C//DTD SVG 20010904//EN"
 "http://www.w3.org/TR/2001/REC-SVG-20010904/DTD/svg10.dtd">
<svg version="1.0" xmlns="http://www.w3.org/2000/svg"
 width="720.000000pt" height="1280.000000pt" viewBox="0 0 720.000000 1280.000000"
 preserveAspectRatio="xMidYMid meet">
<metadata>
Created by potrace 1.16, written by Peter Selinger 2001-2019
</metadata>
<g transform="translate(0.000000,1280.000000) scale(0.100000,-0.100000)"
fill="#000000" stroke="none">
<path d="M0 6400 l0 -6400 3600 0 3600 0 0 6400 0 6400 -3600 0 -3600 0 0
-6400z m6796 3680 c151 -69 198 -267 95 -405 -25 -34 -27 -41 -14 -50 14 -10
14 -14 -1 -37 -26 -40 -88 -50 -140 -23 -24 13 -38 13 -90 3 -107 -20 -145
-17 -172 17 -21 27 -21 30 -6 41 16 11 15 14 -5 36 -56 60 -79 178 -51 269 23
77 102 146 195 169 50 12 138 3 189 -20z m-653 4 c29 -10 64 -34 92 -62 124
-125 89 -333 -68 -412 -134 -67 -310 -20 -371 98 -46 89 -41 199 13 284 41 65
129 108 221 108 36 0 87 -7 113 -16z m-5834 -111 c15 -56 71 -300 71 -307 0
-3 -16 -6 -35 -6 -30 0 -35 3 -35 24 0 34 -23 49 -64 42 -27 -5 -35 -12 -40
-36 -5 -26 -10 -30 -40 -30 l-34 0 14 58 c7 31 25 110 40 175 l28 117 42 0
c41 0 44 -2 53 -37z m403 -55 l3 -93 25 37 c20 31 31 38 58 38 17 0 32 -3 32
-6 0 -4 -16 -28 -35 -53 -30 -41 -33 -50 -21 -67 7 -10 25 -40 40 -66 l27 -48
-35 0 c-30 0 -38 5 -57 40 -26 45 -39 43 -39 -6 0 -31 -2 -34 -30 -34 l-30 0
0 175 0 175 30 0 29 0 3 -92z m1738 -83 l0 -176 -42 1 c-24 1 -55 -1 -69 -5
-19 -5 -33 -1 -55 18 -28 24 -29 29 -29 106 1 69 4 85 22 102 22 22 54 28 91
15 21 -7 22 -5 22 53 l0 61 30 0 30 0 0 -175z m452 83 l3 -92 25 37 c20 30 31
37 58 37 30 0 42 -12 24 -24 -5 -3 -21 -23 -36 -44 l-27 -40 40 -66 41 -66
-35 0 c-30 0 -39 6 -62 43 l-28 42 -3 -42 c-3 -42 -4 -43 -38 -43 l-34 0 0
175 0 175 35 0 34 0 3 -92z m728 27 l0 -66 30 16 c33 17 60 13 85 -11 11 -12
15 -40 15 -120 l0 -104 -30 0 -30 0 0 90 c0 75 -3 92 -16 97 -37 14 -49 -10
-52 -101 l-3 -86 -29 0 -30 0 0 175 0 175 30 0 30 0 0 -65z m530 4 c0 -58 1
-60 23 -53 76 26 107 -8 107 -118 0 -71 -2 -81 -26 -105 -20 -20 -31 -24 -52
-18 -15 4 -46 6 -69 5 l-43 -1 0 176 0 175 30 0 30 0 0 -61z m-1480 -9 c0 -38
2 -40 30 -40 25 0 30 -4 30 -25 0 -21 -5 -25 -30 -25 l-31 0 3 -67 c3 -66 4
-68 31 -71 21 -3 27 -8 23 -19 -3 -8 -6 -19 -6 -24 0 -16 -73 -10 -92 8 -14
13 -18 31 -18 90 0 66 -2 75 -20 80 -13 3 -20 14 -20 29 0 17 6 24 20 24 17 0
20 7 20 40 0 38 2 40 30 40 28 0 30 -2 30 -40z m-2096 -61 c24 -23 34 -121 17
-172 -15 -44 -59 -66 -97 -48 -14 6 -27 11 -29 11 -3 0 -5 -30 -5 -66 l0 -65
-27 3 -28 3 -3 179 -2 179 37 -5 c21 -3 47 -2 58 3 26 10 55 2 79 -22z m405
20 c17 -6 36 -19 41 -29 6 -10 10 -62 10 -115 l0 -97 -32 3 c-18 1 -48 -1 -66
-5 -50 -12 -82 13 -82 64 0 44 20 64 83 81 28 7 37 15 35 27 -5 26 -48 28 -55
3 -4 -14 -13 -21 -29 -21 -65 0 -15 96 52 99 6 1 25 -4 43 -10z m290 0 c38
-14 51 -35 51 -88 l0 -41 -61 0 c-60 0 -60 0 -57 -27 3 -32 44 -46 54 -19 4
10 18 16 35 16 35 0 39 -25 10 -61 -27 -34 -99 -34 -135 0 -23 22 -26 32 -26
96 0 79 20 120 63 128 12 2 25 5 28 6 3 0 20 -4 38 -10z m198 0 c32 -12 43
-26 43 -56 0 -31 -45 -33 -53 -2 -7 24 -40 23 -45 -2 -2 -10 9 -21 30 -29 75
-30 98 -83 59 -131 -40 -50 -151 -22 -151 38 0 18 5 23 26 23 18 0 28 -6 31
-21 7 -26 48 -23 48 4 0 12 -16 26 -45 40 -89 43 -75 132 22 146 4 1 19 -4 35
-10z m197 -3 c31 -13 53 -55 38 -71 -14 -14 -50 -3 -55 16 -4 13 -12 20 -24
17 -29 -5 -21 -32 15 -50 73 -36 92 -81 53 -129 -15 -19 -29 -24 -66 -24 -37
0 -51 5 -66 24 -29 36 -25 61 10 61 21 0 30 -6 34 -21 7 -25 40 -22 45 3 2 12
-11 24 -43 39 -74 35 -85 107 -21 135 39 17 40 17 80 0z m205 3 c17 -6 36 -19
41 -29 6 -10 10 -62 10 -115 l0 -97 -32 3 c-18 1 -48 -1 -66 -5 -50 -12 -82
13 -82 64 0 44 20 64 83 81 28 7 37 15 35 27 -5 25 -45 27 -58 3 -14 -27 -60
-29 -60 -3 0 36 46 79 86 81 6 1 25 -4 43 -10z m318 -21 c17 -16 23 -33 23
-65 l0 -43 -61 0 c-60 0 -60 0 -57 -27 3 -32 44 -46 54 -19 8 20 64 22 64 2 0
-69 -102 -98 -158 -45 -19 17 -22 31 -22 98 0 68 3 80 23 98 12 11 29 23 37
26 25 10 73 -2 97 -25z m1001 -4 c18 -21 22 -36 22 -98 0 -65 -3 -75 -26 -97
-35 -33 -104 -34 -136 -2 -27 28 -37 127 -17 174 24 60 111 73 157 23z m240 8
c8 -10 12 -52 12 -119 l0 -103 -30 0 -30 0 0 90 c0 75 -3 92 -17 97 -32 12
-53 -32 -53 -113 l0 -74 -30 0 -30 0 0 120 0 120 29 0 c16 0 31 -5 33 -11 2
-6 14 -5 33 5 33 17 63 13 83 -12z m529 -4 c17 -16 23 -33 23 -65 l0 -43 -61
0 c-60 0 -60 0 -57 -27 3 -32 44 -46 54 -19 4 10 18 16 35 16 22 0 29 -5 29
-20 0 -42 -64 -79 -115 -66 -52 13 -65 39 -65 124 0 69 3 81 23 99 12 11 29
23 37 26 25 10 73 -2 97 -25z m540 8 c7 -6 14 -56 17 -118 l6 -108 -35 0 -35
0 0 90 c0 72 -3 92 -15 96 -33 13 -45 -15 -45 -102 l0 -84 -35 0 -35 0 0 120
0 120 35 0 c19 0 35 -4 35 -9 0 -6 12 -3 28 4 28 15 58 12 79 -9z m218 -7 c17
-16 21 -36 23 -120 l4 -100 -44 1 c-23 1 -54 -1 -68 -5 -35 -9 -80 27 -80 64
0 39 19 60 70 75 33 10 46 19 48 35 4 28 -33 29 -50 1 -12 -19 -48 -27 -60
-14 -15 14 11 60 43 77 40 21 85 16 114 -14z m394 20 c36 -13 61 -53 61 -99
l0 -30 -59 0 c-65 0 -73 -5 -64 -38 6 -26 53 -32 53 -7 0 11 11 15 36 15 32 0
35 -2 29 -22 -4 -13 -18 -34 -33 -47 -21 -19 -33 -22 -65 -18 -59 8 -80 35
-85 107 -5 75 11 118 52 136 38 16 36 16 75 3z m204 -3 c15 -8 27 -11 27 -5 0
5 14 9 31 9 l30 0 -3 -155 c-3 -145 -4 -156 -26 -177 -17 -18 -34 -23 -73 -23
-43 0 -54 4 -75 29 -14 15 -24 36 -22 45 5 25 45 26 60 2 27 -43 78 -16 78 40
0 18 -3 20 -12 11 -7 -7 -29 -12 -49 -12 -55 0 -79 34 -79 114 0 85 8 106 44
122 39 17 36 17 69 0z m285 -22 c19 -22 22 -36 22 -120 l0 -95 -42 1 c-24 1
-55 -1 -70 -5 -21 -6 -32 -2 -52 18 -48 48 -29 99 44 121 33 10 46 19 48 35 4
28 -33 29 -50 1 -7 -11 -23 -20 -36 -20 -20 0 -23 4 -20 33 6 65 108 86 156
31z m-3048 -94 l0 -120 -35 0 -35 0 0 113 c0 63 3 117 7 120 3 4 19 7 35 7
l28 0 0 -120z m2280 63 c19 -90 25 -92 45 -14 18 69 20 71 51 71 l32 0 -24
-82 c-79 -281 -76 -273 -113 -276 -28 -3 -33 -1 -27 14 28 74 28 99 -3 207
-18 59 -34 113 -37 122 -5 12 2 15 28 15 34 0 35 -1 48 -57z m30 -2088 l0
-1025 -260 0 -260 0 0 -29 c0 -26 4 -29 43 -33 23 -3 80 -4 127 -2 88 3 120
-1 120 -17 0 -5 -25 -6 -59 -3 -140 15 -255 -100 -282 -279 -19 -126 10 -213
92 -279 47 -38 134 -49 193 -24 21 9 42 16 47 16 5 0 9 -250 9 -570 l0 -570
43 -2 c110 -5 102 -8 105 45 3 46 4 47 35 47 29 -1 30 -2 15 -14 -10 -7 -15
-16 -11 -19 3 -4 12 -2 18 3 16 13 63 -4 71 -25 4 -8 13 -15 21 -15 10 0 13 6
9 16 -4 9 -2 13 5 8 6 -4 8 -19 5 -37 -3 -17 -1 -36 5 -43 17 -21 31 -17 17 6
-7 10 -9 22 -5 26 12 12 57 -38 57 -63 0 -13 5 -23 10 -23 11 0 14 -43 3 -53
-3 -4 -11 -1 -17 7 -13 17 -73 29 -81 16 -3 -4 2 -16 11 -24 8 -9 11 -16 5
-16 -6 0 -11 -4 -11 -10 0 -5 9 -10 20 -10 12 0 36 -15 55 -34 18 -19 39 -36
46 -38 7 -2 9 -12 4 -27 -7 -22 -10 -23 -82 -19 -42 3 -69 1 -61 -3 8 -5 -19
-9 -64 -9 l-78 0 0 146 0 145 -82 -2 -82 -2 -55 152 -56 152 -109 -3 -110 -3
-53 -140 c-28 -77 -76 -207 -106 -290 l-54 -150 -74 -3 -74 -3 38 39 c59 60
67 102 67 344 l0 208 -95 0 -95 0 0 -210 c0 -193 -1 -210 -18 -219 -24 -13
-62 12 -62 40 0 18 -6 20 -92 17 l-93 -3 3 -39 c4 -52 35 -110 72 -138 17 -12
30 -25 30 -30 0 -12 -278 -10 -285 2 -3 6 -2 10 3 10 5 0 28 19 51 41 62 62
71 106 71 336 l0 194 -92 -3 -93 -3 -3 -190 -2 -190 -27 -23 c-20 -18 -33 -22
-56 -18 -62 13 -67 25 -67 171 0 73 -3 160 -6 194 l-7 61 -88 0 -89 0 0 -198
c0 -237 8 -271 81 -344 l48 -48 -109 0 -110 0 0 -35 c0 -31 3 -35 28 -35 24
-1 25 -2 9 -11 -10 -6 -29 -8 -43 -5 -21 6 -23 11 -18 34 4 15 7 32 8 37 1 6
-49 12 -124 15 l-125 5 -3 86 -3 86 79 5 c111 8 166 38 204 112 29 57 22 158
-14 213 -38 57 -84 76 -201 83 l-98 5 -2 400 -2 400 33 3 32 3 0 -115 c0 -107
1 -115 21 -121 11 -4 31 -4 45 -1 24 6 24 8 24 121 l0 115 50 0 c49 0 50 1 50
30 l0 30 -124 0 -124 0 -7 30 c-4 17 -6 50 -5 73 2 23 2 70 1 105 l-1 62 -79
0 c-46 0 -83 5 -86 11 -5 7 19 10 78 7 l86 -3 5 29 c3 16 6 80 6 142 l0 113
143 3 142 3 0 30 c-1 26 -5 30 -33 33 l-32 3 0 282 c0 155 0 396 0 535 0 193
-2 252 -12 252 -9 0 -9 3 0 12 9 9 12 132 12 490 l0 478 1020 0 1019 0 1
-1025z m-2200 760 c0 -140 -3 -255 -6 -255 -3 0 -18 9 -32 21 -66 51 -140 89
-235 120 l-102 34 -325 0 c-362 0 -359 1 -414 -68 -27 -34 -31 -46 -31 -102 0
-75 19 -107 85 -144 42 -24 49 -24 354 -30 l312 -6 66 -33 c125 -61 203 -176
214 -315 10 -113 -26 -204 -120 -305 -36 -39 -154 -102 -191 -102 -13 0 -43
-7 -66 -16 -118 -48 -136 -220 -30 -296 20 -14 53 -29 73 -33 81 -15 297 62
392 139 23 20 46 36 50 36 3 0 6 -94 6 -210 l0 -210 -602 -2 c-332 -2 -791 -2
-1020 0 l-418 2 0 312 c0 271 2 310 14 293 24 -34 335 -339 359 -352 50 -28
161 -9 198 34 28 32 49 81 49 116 0 66 -21 100 -134 216 -106 109 -110 114
-87 122 44 17 156 141 191 213 41 85 52 124 57 207 9 129 -34 260 -116 359
-64 76 -87 96 -156 132 -99 53 -124 59 -252 65 l-123 6 0 153 0 154 1020 0
1020 0 0 -255z m2574 249 c11 -4 13 -12 6 -29 -5 -13 -6 -25 -3 -28 9 -10 11
-147 2 -147 -11 0 -12 -73 0 -85 4 -6 5 -50 0 -100 -4 -49 -6 -204 -5 -343 2
-209 4 -255 16 -262 8 -6 10 -10 4 -10 -8 0 -10 -52 -7 -172 2 -95 5 -179 8
-186 7 -18 -25 0 -51 30 -19 22 -20 30 -13 138 4 63 5 118 2 122 -2 4 -8 169
-13 365 -5 197 -12 435 -15 530 -3 130 -2 173 8 176 17 8 43 8 61 1z m347 -73
c-33 -87 -57 -198 -47 -209 4 -3 10 -2 14 4 9 15 107 64 127 64 9 0 15 9 15
24 0 23 21 36 63 36 29 0 21 -39 -10 -46 -16 -4 -48 -21 -73 -38 -45 -31 -45
-31 -17 -34 16 -2 35 3 44 10 14 11 14 9 -1 -13 -9 -15 -19 -37 -21 -50 -3
-12 -20 -39 -40 -59 -42 -43 -43 -52 -10 -70 14 -7 25 -17 25 -22 0 -4 -11 -8
-25 -8 -15 0 -25 -6 -25 -14 0 -7 -31 -45 -70 -82 -38 -38 -69 -73 -67 -79 1
-6 -8 -24 -21 -42 -12 -17 -22 -35 -22 -40 0 -5 -13 -29 -29 -54 -38 -58 -45
-103 -27 -175 15 -64 51 -150 65 -156 4 -2 20 -22 35 -45 14 -24 30 -43 35
-43 5 0 12 -7 15 -15 5 -14 1 -13 -24 2 -16 9 -41 28 -55 40 -13 13 -28 23
-32 23 -5 0 -8 3 -9 8 0 4 -6 21 -13 37 -31 72 -42 112 -48 176 -7 77 -20 80
-43 9 -17 -51 -30 -60 -30 -21 0 16 5 33 10 36 6 3 10 14 10 23 0 9 6 26 13
38 63 108 81 136 104 158 14 15 23 29 19 33 -4 4 -11 1 -16 -7 -7 -11 -8 -8
-6 11 1 14 12 40 24 56 12 17 22 45 22 63 0 18 4 29 10 25 13 -8 27 30 36 93
4 35 3 52 -6 57 -8 5 -11 4 -7 -2 4 -6 -8 -17 -26 -24 -17 -7 -38 -21 -45 -31
-13 -18 -42 -25 -42 -9 0 12 50 83 71 102 16 13 19 31 19 97 0 44 -4 92 -9
105 -6 14 -7 50 -4 81 l6 56 83 0 83 0 -28 -79z m1449 -67 c0 -94 -4 -143 -10
-139 -5 3 -10 12 -10 20 0 7 -7 15 -15 19 -8 3 -15 15 -15 27 0 12 -8 23 -20
26 -11 3 -20 9 -20 14 0 5 -17 26 -37 47 -67 69 -98 114 -86 126 3 3 53 6 110
6 l103 0 0 -146z m-516 22 c15 -30 33 -57 41 -60 10 -3 15 -19 15 -45 0 -34
-4 -40 -28 -49 -28 -10 -74 -50 -124 -109 -20 -24 -28 -44 -28 -71 0 -21 3
-42 7 -46 9 -8 33 -77 33 -94 0 -8 8 -26 19 -40 10 -15 21 -46 25 -69 7 -50
-6 -67 -65 -84 -41 -13 -73 -39 -48 -39 29 0 -16 -20 -46 -20 -58 -1 -62 -17
-9 -33 49 -14 49 -14 18 -21 -40 -9 -86 8 -78 29 5 13 2 14 -22 4 -55 -21
-174 -6 -174 22 0 6 -6 9 -12 8 -31 -4 -39 4 -69 64 -49 95 -61 152 -43 195 7
19 14 43 14 54 0 10 7 21 15 24 8 4 12 11 9 16 -4 7 8 9 35 6 46 -4 45 -5 29
23 -11 17 -10 22 7 35 19 14 20 13 23 -10 2 -15 8 -26 13 -26 5 0 9 -9 9 -19
0 -13 11 -23 33 -30 17 -6 39 -21 48 -33 17 -22 17 -22 45 -3 16 11 34 20 39
20 6 0 9 26 9 60 -1 51 -5 62 -30 83 -25 22 -33 24 -88 17 -61 -7 -95 -19
-108 -39 -5 -8 -11 -7 -19 1 -9 9 -6 19 12 42 31 38 72 55 126 52 84 -5 140
22 73 36 -41 8 -44 17 -16 50 22 26 30 28 95 28 43 0 71 4 71 11 0 13 97 114
109 114 5 0 21 -24 35 -54z m-5701 -550 c57 -24 107 -102 107 -166 0 -73 -69
-163 -134 -175 -17 -4 -60 -5 -96 -3 l-65 3 -3 178 -2 177 80 0 c46 0 94 -6
113 -14z m5378 -262 c14 -13 22 -13 39 -4 28 15 58 7 92 -24 14 -14 38 -28 51
-31 30 -8 43 -33 22 -42 -19 -7 -11 -40 16 -66 11 -10 19 -24 19 -31 0 -49
-131 -78 -207 -45 -24 10 -43 22 -43 28 0 8 -32 24 -52 26 -3 0 -10 3 -14 8
-4 4 -15 7 -25 7 -20 0 -69 54 -69 76 0 21 5 18 56 -31 26 -25 48 -44 51 -42
9 10 -10 57 -23 57 -20 0 -29 47 -13 66 7 9 24 20 37 25 15 6 22 15 18 24 -7
20 22 20 45 -1z m-1151 -659 c0 -6 9 -20 19 -30 16 -14 34 -16 87 -14 61 4 68
2 70 -16 12 -77 11 -91 -7 -117 -20 -28 -24 -39 -11 -36 15 3 42 -15 42 -28 0
-8 10 -14 26 -14 18 0 28 -6 31 -21 3 -11 9 -16 12 -11 3 6 18 13 32 17 19 5
32 0 52 -19 16 -14 32 -26 38 -26 5 0 9 -8 9 -17 0 -22 39 -63 59 -63 13 0 13
-2 2 -9 -18 -12 3 -24 27 -16 19 5 24 48 9 72 -12 18 10 25 26 8 18 -17 77
-21 77 -4 0 5 6 7 13 3 8 -5 8 -2 -2 9 -7 9 -19 17 -26 17 -13 0 -25 21 -25
46 0 10 12 14 40 14 34 0 42 -4 50 -25 5 -14 18 -29 28 -33 34 -13 78 -58 90
-90 10 -30 9 -32 -11 -32 -12 1 -190 -1 -396 -3 -205 -3 -382 -2 -392 0 -18 5
-19 16 -15 222 3 119 5 221 6 228 0 15 40 4 40 -12z m1550 -110 c59 -33 95
-45 142 -45 28 0 60 -7 76 -17 15 -9 28 -17 29 -18 2 -1 -2 -29 -8 -64 -17
-95 -78 -147 -120 -102 -11 12 -25 21 -32 21 -19 0 -217 194 -217 212 0 12 11
18 43 21 23 2 47 4 52 5 6 1 21 -5 35 -13z m-1018 -457 c3 -9 12 -9 38 0 18 7
46 12 63 12 67 0 167 -45 167 -76 0 -8 8 -14 19 -14 24 0 43 -23 35 -44 -3 -9
-2 -16 4 -16 5 0 12 9 15 20 7 27 20 25 35 -7 15 -33 16 -60 2 -68 -16 -10
-12 -65 5 -65 15 0 20 -12 9 -23 -3 -3 -7 -26 -9 -50 -2 -36 1 -46 15 -50 12
-3 19 -19 24 -51 3 -25 9 -67 13 -93 3 -27 13 -53 21 -59 13 -9 12 -12 -7 -17
-15 -4 -21 -14 -22 -36 -1 -17 -2 -37 -3 -43 -1 -7 16 -17 37 -22 20 -5 37
-12 37 -15 0 -3 29 -5 65 -3 42 2 65 -1 65 -8 0 -7 8 -9 19 -5 10 3 29 1 42
-4 22 -9 22 -10 4 -12 -11 -1 -23 -1 -27 0 -5 0 -8 -5 -8 -12 0 -13 -103 -37
-160 -37 -16 0 -30 -5 -30 -11 0 -7 -12 -10 -30 -7 -28 4 -34 -1 -31 -28 1 -7
-8 -14 -19 -17 -16 -4 -20 -13 -20 -50 0 -25 -5 -49 -11 -53 -8 -4 -7 -9 2
-15 12 -8 12 -10 0 -18 -11 -7 -9 -10 10 -13 13 -1 28 -12 33 -24 6 -14 19
-21 38 -22 24 -1 27 2 22 22 -4 16 0 25 11 30 20 7 42 -3 27 -13 -5 -3 -12
-16 -16 -28 -6 -20 -4 -23 18 -23 14 0 26 -4 26 -10 0 -5 -8 -10 -17 -10 -17
-1 -17 -1 0 -11 12 -7 22 -7 30 -1 15 13 87 13 87 1 0 -5 -7 -9 -16 -9 -8 0
-12 -4 -9 -10 3 -5 -4 -11 -17 -11 -13 -1 -6 -5 17 -9 23 -4 49 -3 62 3 23 10
31 27 13 27 -5 0 -10 -4 -10 -10 0 -5 -4 -10 -10 -10 -21 0 -9 31 15 40 28 11
29 14 15 41 -8 15 -7 19 5 19 8 0 15 -4 15 -10 0 -5 7 -10 16 -10 8 0 12 5 9
10 -14 22 15 8 32 -16 14 -19 30 -27 59 -30 22 -1 42 2 47 9 5 8 7 5 5 -8 -2
-16 3 -21 30 -23 21 -2 32 1 32 10 0 7 12 0 26 -16 22 -23 24 -30 13 -37 -8
-5 -20 -9 -27 -9 -7 0 -11 -4 -8 -9 3 -4 -2 -17 -10 -27 -15 -18 -15 -18 -10
8 3 14 3 34 0 43 -6 14 -8 14 -27 -2 -11 -10 -17 -12 -13 -5 8 14 -20 17 -29
3 -3 -5 -21 -7 -40 -4 -23 4 -35 2 -35 -6 0 -6 6 -11 14 -11 19 0 30 -32 14
-41 -22 -14 -47 19 -43 58 2 27 0 33 -12 29 -8 -3 -24 -6 -35 -6 -17 0 -19 -6
-16 -47 2 -39 0 -48 -15 -51 -10 -2 -27 3 -36 12 -10 9 -25 14 -35 10 -9 -3
-16 -1 -16 5 0 6 -7 11 -15 11 -8 0 -15 -4 -15 -10 0 -12 33 -30 55 -30 9 0
28 -9 42 -20 l26 -20 -26 0 c-14 0 -29 5 -32 10 -3 6 -13 10 -22 10 -9 0 -25
8 -36 18 -20 16 -20 16 -13 -3 18 -45 18 -55 2 -55 -9 0 -16 5 -16 10 0 18
-20 11 -47 -16 -26 -26 -45 -26 -24 0 19 23 5 36 -24 23 -14 -7 -25 -15 -25
-19 0 -5 -11 -8 -25 -8 -14 0 -25 -4 -25 -10 0 -13 16 -13 40 0 13 7 19 6 24
-5 3 -9 0 -15 -9 -15 -22 0 -30 -22 -11 -32 20 -11 21 -35 2 -54 -19 -18 -30
-18 -22 1 3 9 0 15 -9 15 -8 0 -15 4 -15 10 0 5 -18 8 -39 7 -42 -3 -68 -16
-35 -18 11 0 14 -3 6 -6 -10 -4 -10 -8 -1 -19 8 -9 8 -14 1 -14 -6 0 -18 10
-26 22 -14 20 -20 18 -18 -3 1 -4 -8 -9 -20 -12 -20 -6 -20 -4 -14 111 4 64 7
133 6 152 0 38 -18 90 -30 90 -4 0 -11 11 -14 25 -4 14 -11 23 -16 20 -15 -9
-30 31 -24 62 4 20 1 33 -10 42 -9 8 -16 20 -16 27 0 17 30 18 82 2 36 -11 40
-10 67 16 20 19 30 41 35 74 10 72 22 83 37 34 7 -23 15 -40 17 -37 3 3 7 42
8 88 1 45 6 114 12 152 9 66 8 76 -24 173 -19 56 -34 112 -34 125 -1 40 -36
103 -78 135 -22 18 -45 32 -51 32 -6 0 -11 6 -12 13 0 9 -2 9 -6 -1 -4 -11 -7
-10 -17 1 -14 18 -109 37 -158 32 -44 -4 -98 -34 -98 -53 0 -8 -11 -23 -24
-33 -14 -11 -32 -41 -42 -67 -9 -26 -28 -59 -41 -73 -22 -24 -24 -35 -27 -160
-3 -143 -12 -177 -53 -204 -12 -9 -23 -21 -23 -29 0 -7 -14 -30 -30 -51 -25
-32 -30 -45 -24 -69 3 -17 13 -35 20 -39 8 -5 12 -12 10 -16 -8 -12 56 -7 79
6 19 11 18 12 -8 18 -17 5 -33 2 -42 -5 -9 -7 -18 -10 -22 -6 -10 10 66 113
100 135 33 21 55 18 36 -5 -13 -16 4 -44 27 -44 8 0 14 -6 15 -12 0 -10 2 -10
6 0 8 20 71 14 93 -8 27 -27 25 -42 -4 -34 -34 8 -75 -28 -68 -61 6 -32 -16
-40 -68 -27 -37 9 -40 8 -77 -29 -21 -21 -41 -39 -45 -39 -16 0 -7 38 12 55
13 12 17 22 11 28 -6 6 -24 -2 -49 -21 -32 -25 -40 -40 -45 -74 -7 -50 -2 -59
17 -33 9 13 15 15 20 6 4 -6 3 -17 -2 -24 -6 -7 -11 -16 -12 -22 -1 -5 -6 -17
-12 -25 -7 -11 -8 -7 -3 13 4 20 2 27 -10 27 -14 0 -20 -17 -16 -50 0 -8 3
-44 6 -79 3 -35 10 -70 16 -77 21 -25 20 -90 -1 -109 -37 -34 -48 6 -24 88 3
9 1 17 -5 17 -6 0 -12 -8 -12 -17 -1 -17 -2 -17 -6 0 -5 19 -19 23 -25 6 -2
-7 -13 -9 -26 -5 -12 4 -20 12 -17 17 4 5 1 9 -5 9 -6 0 -10 -8 -8 -17 3 -23
-9 -43 -28 -43 -8 0 -13 6 -11 13 1 6 -9 13 -23 15 -14 2 -32 12 -39 24 -11
18 -9 24 23 55 28 28 36 43 36 72 0 20 9 51 20 69 16 27 18 37 9 48 -9 11 -7
14 9 14 21 0 37 36 21 46 -12 7 -70 -5 -65 -14 2 -4 -3 -13 -11 -21 -13 -11
-14 -11 -12 5 2 11 0 25 -4 32 -5 7 -3 12 4 12 6 0 18 8 25 18 8 10 13 12 14
5 0 -7 3 -13 8 -13 31 1 54 63 27 73 -17 7 -55 -12 -55 -26 0 -20 -43 -43 -71
-39 -24 4 -27 7 -18 18 6 8 17 14 23 14 22 1 47 28 50 56 3 16 7 37 11 47 6
13 3 17 -11 15 -11 -2 -20 2 -21 7 -1 6 8 9 20 8 55 -6 84 -5 106 2 21 7 23 5
16 -14 -5 -15 -2 -21 10 -21 13 0 14 -4 5 -20 -8 -16 -8 -20 4 -20 20 0 23 15
19 117 -2 71 0 95 12 105 35 32 46 39 53 35 4 -3 12 1 19 8 15 17 -7 28 -28
14 -24 -15 -59 -11 -53 6 4 9 19 15 40 15 38 0 47 22 17 39 -15 8 -15 11 -3
12 8 1 20 1 26 0 18 -2 52 63 56 106 1 21 5 40 8 43 20 19 40 64 40 89 0 21 6
32 20 36 11 3 20 12 20 19 0 7 14 25 30 41 19 18 28 35 25 46 -4 12 0 16 12
15 10 0 18 5 18 13 0 8 17 19 38 25 22 6 36 14 32 18 -8 8 2 28 15 28 4 0 10
-5 12 -12z m-969 -138 c17 -19 27 -42 27 -60 l0 -30 75 0 c43 0 75 -4 75 -10
0 -6 -31 -10 -74 -10 l-74 0 -4 -66 c-4 -59 -7 -69 -34 -90 -45 -37 -98 -33
-139 10 -70 75 -59 241 19 281 44 22 95 13 129 -25z m1161 -15 c3 -13 15 -33
26 -43 10 -10 26 -34 34 -54 15 -35 15 -36 -14 -62 -39 -34 -38 -49 5 -87 38
-35 44 -64 20 -95 -14 -19 -14 -18 -15 4 0 19 -5 22 -42 22 -39 0 -41 -1 -23
-14 11 -7 29 -16 40 -18 11 -2 -3 -8 -33 -12 -28 -4 -49 -12 -46 -17 3 -5 10
-7 15 -4 5 4 19 3 31 -1 21 -6 21 -7 3 -20 -16 -12 -17 -14 -2 -20 10 -3 24
-4 32 0 22 8 19 -20 -4 -43 -15 -15 -30 -19 -60 -16 -50 5 -183 65 -202 91 -8
11 -20 19 -28 19 -8 0 -19 9 -25 20 -6 11 -19 30 -28 44 -17 23 -17 24 15 45
17 12 41 40 52 62 27 55 54 86 90 104 26 12 52 34 128 107 18 18 24 16 31 -12z
m-3692 -302 c2 -9 2 -245 0 -525 l-2 -509 -158 3 -157 3 -3 509 c-1 281 0 516
2 523 4 10 42 13 160 13 136 0 155 -2 158 -17z m-1252 -309 c33 -38 36 -54 19
-102 -14 -39 -45 -60 -88 -57 -77 5 -110 108 -53 164 40 41 83 39 122 -5z
m247 27 c2 -1 -12 -43 -31 -93 -30 -84 -36 -93 -60 -95 -21 -1 -29 4 -38 25
-6 15 -14 36 -19 47 -5 11 -13 34 -18 50 -5 17 -12 38 -16 48 -7 16 -3 18 21
15 26 -3 31 -10 48 -63 l19 -60 19 55 c10 30 20 61 23 67 3 10 28 12 52 4z
m160 -4 c18 -11 43 -74 37 -91 -8 -20 -114 -24 -114 -4 0 6 -3 9 -6 5 -3 -3
-3 -15 1 -27 6 -18 13 -21 48 -18 33 2 42 -1 45 -14 5 -24 -34 -41 -75 -33
-37 7 -73 52 -73 93 0 30 25 78 47 91 18 10 73 8 90 -2z m-602 -382 c14 -30
27 -55 29 -55 3 0 13 25 22 55 15 46 22 55 41 55 30 0 29 -9 -8 -105 -49 -125
-58 -143 -82 -160 -20 -14 -18 -15 39 -15 33 0 63 -3 67 -6 13 -14 -7 -34 -34
-34 l-29 0 0 -99 c0 -99 -4 -111 -41 -111 -5 0 -9 47 -9 105 l0 105 -35 0
c-28 0 -35 4 -35 20 0 15 7 20 28 21 16 1 20 3 10 6 -26 7 -22 32 6 43 39 14
39 40 1 127 -41 94 -42 103 -14 103 15 0 26 -14 44 -55z m278 43 c27 -14 48
-71 41 -108 -14 -66 -104 -92 -150 -43 -54 58 -16 163 57 161 19 0 42 -5 52
-10z m127 -47 c0 -74 6 -91 35 -91 25 0 35 29 35 106 0 37 3 44 19 44 23 0 31
-19 31 -73 0 -77 -11 -117 -31 -117 -11 0 -19 5 -19 12 0 9 -3 9 -12 0 -18
-18 -63 -14 -82 7 -18 20 -34 126 -23 155 4 9 16 16 27 16 18 0 20 -6 20 -59z
m5575 -260 c3 -5 1 -12 -5 -16 -18 -11 -11 -27 9 -20 25 8 35 -9 16 -25 -8 -7
-12 -17 -9 -22 7 -11 -15 -68 -26 -68 -4 0 -10 8 -14 18 -3 9 -9 23 -12 30 -3
7 1 12 10 12 9 0 16 7 16 17 0 15 -1 15 -18 0 -10 -10 -26 -17 -34 -17 -9 0
-21 -7 -28 -15 -7 -9 -19 -14 -26 -11 -15 6 -27 -21 -14 -29 5 -3 19 -1 30 5
19 10 20 10 8 -9 -7 -12 -18 -21 -25 -21 -18 0 -16 -19 3 -27 9 -3 20 0 25 8
15 24 68 15 69 -12 0 -10 -39 -18 -42 -9 -4 12 -69 -3 -68 -15 1 -5 7 -9 15
-7 7 1 16 -2 20 -7 3 -6 12 -8 21 -4 8 3 21 -3 29 -13 22 -29 18 -42 -11 -36
-20 4 -25 1 -22 -9 7 -19 -9 -49 -26 -49 -8 0 -17 -8 -21 -17 -6 -17 -7 -17
-20 0 -7 10 -16 14 -19 9 -5 -9 -42 -7 -76 4 -12 5 -12 7 3 16 10 5 25 7 33 4
8 -3 14 -1 14 4 0 6 8 5 20 -2 13 -9 27 -9 47 -2 35 12 38 40 4 36 -13 -1 -32
5 -42 14 -22 20 -51 12 -42 -12 4 -12 2 -15 -8 -12 -8 3 -13 15 -11 28 3 20 0
22 -20 17 -12 -4 -27 -7 -32 -7 -4 0 -6 -7 -2 -15 8 -23 -22 -18 -34 6 -16 29
2 47 56 55 29 4 44 11 44 21 0 8 5 11 10 8 6 -3 13 1 16 9 3 9 17 16 30 16 26
0 30 10 12 28 -9 9 -7 16 7 32 10 11 14 20 10 20 -5 0 -3 6 3 12 10 10 15 10
23 -2 8 -12 9 -11 5 6 -5 15 0 24 19 32 13 6 30 20 37 32 14 21 33 26 43 11z
m-5687 -41 c28 -27 31 -107 4 -140 -18 -22 -68 -30 -108 -17 -45 15 -59 106
-23 151 27 34 94 37 127 6z m197 14 c27 -11 47 -62 40 -104 -8 -47 -30 -68
-79 -74 -33 -5 -43 -1 -68 25 -28 27 -30 34 -24 77 4 30 14 53 27 65 21 17 73
23 104 11z m302 -6 c9 -7 13 -38 13 -94 0 -77 -2 -84 -20 -84 -18 0 -20 7 -20
74 l0 74 -30 4 -30 5 0 -73 c0 -75 -10 -95 -35 -74 -11 9 -15 35 -15 95 l0 83
62 1 c34 0 68 -5 75 -11z m4428 -45 c-5 -15 36 -18 51 -4 5 5 17 1 29 -12 11
-11 14 -17 8 -13 -19 11 -15 -5 5 -20 13 -11 14 -15 4 -22 -9 -6 3 -25 48 -72
33 -35 60 -69 60 -76 0 -6 7 -17 15 -24 9 -7 15 -20 13 -29 -1 -9 1 -23 6 -31
7 -12 6 -12 -3 -4 -14 13 -51 7 -51 -7 0 -5 7 -6 16 -2 30 11 9 -21 -26 -42
-25 -14 -58 -20 -127 -23 l-93 -4 -1 48 c-1 27 -3 59 -4 71 -1 13 2 20 7 16 6
-3 14 1 19 8 13 20 11 29 -5 29 -8 0 -18 5 -22 12 -5 8 -2 9 9 5 13 -5 17 -1
17 19 0 22 3 24 28 18 15 -4 37 -11 50 -15 37 -14 26 3 -43 64 -56 50 -65 63
-65 92 0 32 2 34 30 32 19 -1 28 -6 25 -14z m-1338 -467 c6 -19 8 -37 5 -40
-3 -3 -43 -6 -89 -6 l-83 0 -1 -32 -1 -33 -9 33 c-7 22 -16 32 -29 32 -25 0
-29 9 -18 48 l9 32 103 0 103 0 10 -34z m-3442 -114 l190 -7 -133 -5 c-131 -5
-132 -5 -157 -34 -17 -20 -22 -32 -14 -37 16 -9 2 -29 -21 -29 -10 0 -20 -7
-24 -15 -3 -8 -12 -15 -21 -15 -8 0 -15 -7 -15 -15 0 -8 -5 -14 -11 -13 -13 3
-31 -50 -24 -70 3 -8 -3 -16 -15 -19 -11 -3 -21 -10 -22 -17 -1 -12 -5 -43 -7
-63 0 -7 -8 -13 -16 -13 -8 0 -21 -12 -29 -27 -8 -16 -15 -24 -16 -19 0 5 -11
-1 -25 -14 -18 -17 -22 -27 -14 -36 7 -9 3 -17 -16 -32 -14 -11 -25 -25 -25
-32 0 -6 17 2 37 19 20 17 39 28 42 25 8 -8 -52 -60 -95 -82 -22 -11 -46 -28
-54 -37 -8 -9 -32 -26 -54 -37 -47 -24 -89 -65 -75 -73 5 -4 9 -25 9 -49 0
-32 -6 -48 -25 -66 -32 -30 -32 -38 3 -34 15 2 21 1 15 -2 -7 -3 -13 -9 -13
-14 0 -5 -5 -21 -12 -37 -6 -15 -12 -32 -13 -38 -5 -27 -18 -55 -25 -55 -4 0
-12 -18 -19 -40 -6 -22 -16 -40 -20 -40 -5 0 -11 -8 -14 -17 -2 -10 -8 -26
-12 -35 -5 -13 -3 -18 8 -18 11 0 13 -10 9 -46 l-5 -47 34 24 c19 13 44 33 57
44 22 19 24 19 33 2 7 -11 22 -17 47 -17 49 0 88 -21 85 -46 -1 -10 -7 -44
-13 -74 -7 -30 -12 -71 -12 -90 0 -32 0 -33 -8 -10 -4 14 -8 44 -9 68 -1 23
-5 42 -11 42 -5 0 -10 -3 -10 -7 0 -9 -48 -33 -66 -33 -6 0 -23 -10 -37 -22
-64 -56 -162 -103 -191 -92 -7 3 -19 -12 -30 -36 -11 -25 -24 -40 -35 -40 -12
0 -22 -12 -29 -32 -7 -24 -10 196 -11 765 l-1 798 373 -1 c204 -1 458 -5 562
-8z m1105 -135 c0 -237 -13 -567 -22 -567 -4 0 -8 9 -8 20 0 19 -2 18 -47 -7
-27 -14 -52 -29 -58 -33 -5 -4 -25 -10 -43 -12 -45 -6 -46 5 -38 246 8 258
-15 416 -60 416 -6 0 -17 7 -24 15 -7 8 -16 13 -20 10 -4 -3 -13 1 -19 9 -9
11 -9 15 1 19 7 3 -12 6 -42 8 -111 4 17 15 203 17 l177 2 0 -143z m311 122
c13 -25 29 -25 22 0 -5 18 3 19 161 19 93 0 166 -3 166 -8 0 -16 49 -42 76
-42 14 0 35 9 48 21 44 42 76 16 55 -46 -12 -39 -19 -40 -69 -12 -45 25 -102
20 -79 -7 10 -12 9 -13 -5 -8 -21 8 -20 -5 3 -33 14 -16 26 -21 46 -17 24 4
26 3 16 -9 -21 -26 -48 -27 -60 -1 -6 13 -15 24 -21 24 -13 0 -13 -3 2 -35 10
-22 9 -28 -3 -35 -8 -5 -22 -7 -33 -4 -13 4 -17 2 -14 -7 6 -15 51 -14 56 1 2
5 20 14 40 21 20 6 49 20 64 30 14 11 28 19 31 19 9 0 6 -43 -5 -72 -12 -32
-3 -78 15 -78 6 1 22 17 35 37 22 34 23 38 9 82 -9 29 -13 68 -10 108 l5 62
98 3 c54 2 111 0 126 -3 16 -4 23 -7 17 -8 -14 -1 -18 -31 -5 -31 5 0 18 12
31 26 26 30 55 28 59 -4 3 -18 -10 -36 -50 -73 -49 -45 -53 -47 -58 -27 -7 28
-28 35 -37 12 -3 -9 -21 -42 -40 -72 -32 -54 -33 -57 -27 -141 3 -47 10 -109
15 -137 14 -76 -1 -104 -57 -104 -41 0 -67 -14 -76 -42 -2 -6 -10 -8 -17 -4
-7 5 -10 14 -7 22 3 8 1 14 -4 14 -6 0 -10 -4 -10 -10 0 -5 -7 -7 -15 -4 -8 4
-15 12 -15 20 0 20 -32 84 -42 84 -19 0 -26 -45 -11 -80 20 -49 39 -68 55 -52
19 19 31 14 26 -13 -4 -19 -1 -25 12 -25 18 0 19 -16 5 -105 -5 -27 -9 -72 -9
-99 -1 -38 -5 -51 -21 -60 -11 -6 -23 -14 -26 -19 -3 -4 -23 -9 -45 -11 -41
-4 -117 -37 -129 -56 -3 -5 -14 -10 -25 -10 -10 0 -42 -13 -72 -29 -30 -15
-72 -31 -93 -35 -37 -7 -88 -31 -127 -58 -14 -10 -23 -9 -48 6 -17 10 -40 16
-50 13 -11 -3 -21 1 -24 10 -11 29 -6 100 10 132 13 26 14 34 3 48 -9 10 -15
58 -17 144 -4 128 -4 129 18 129 13 0 37 -15 56 -36 19 -19 34 -29 34 -22 0
29 -51 68 -87 68 -19 0 -23 5 -23 29 l0 29 31 -29 c48 -45 57 -34 10 12 l-41
41 0 283 0 284 70 -1 c58 0 72 -4 81 -19z m1747 6 c3 -3 -2 -5 -11 -5 -12 0
-16 -8 -13 -35 1 -19 -2 -37 -8 -40 -7 -3 -7 -7 2 -11 16 -7 16 -27 0 -22 -13
5 -31 -33 -49 -102 -8 -33 -1 -89 20 -160 4 -14 5 -35 1 -45 -7 -18 -8 -18
-12 5 -3 15 -6 5 -7 -25 -1 -27 -6 -69 -11 -93 -8 -34 -7 -47 6 -68 14 -20 15
-30 5 -49 -56 -122 -63 -154 -67 -330 -2 -93 -7 -192 -10 -220 -3 -27 -7 -68
-10 -89 -2 -21 -13 -58 -24 -81 -24 -49 -26 -100 -5 -152 8 -21 21 -66 30 -99
l15 -61 -40 -73 c-22 -40 -40 -78 -40 -85 0 -7 -7 -18 -15 -25 -10 -9 -14 -30
-12 -76 2 -61 3 -64 27 -65 14 -1 6 -5 -20 -10 -64 -11 -222 -11 -240 1 -8 5
-10 10 -4 10 7 0 13 76 19 233 16 467 18 540 16 757 -1 132 8 251 33 440 8 63
20 178 26 255 5 77 17 167 25 200 8 33 14 74 15 92 0 27 4 32 28 36 34 5 324
-2 330 -8z m140 -1056 c158 -11 186 -19 69 -19 l-77 0 0 -364 c0 -270 -3 -372
-12 -393 -11 -25 -14 -12 -18 107 -5 136 -20 158 -20 29 0 -43 -6 -81 -15 -99
-15 -28 -11 -60 6 -60 22 0 -5 -109 -31 -125 -15 -10 -12 -23 8 -28 9 -3 -21
-5 -68 -6 -65 -1 -81 2 -72 11 7 7 12 26 12 42 1 52 24 132 43 151 14 13 17
26 12 49 -18 89 -18 107 5 131 24 25 29 73 15 148 -6 30 -3 43 12 60 11 12 25
35 31 50 12 29 7 77 -9 77 -10 0 -12 53 -3 99 4 17 10 29 14 26 7 -5 20 100
20 171 0 54 29 144 47 144 11 0 13 78 15 433 l3 432 2 -532 c2 -293 7 -533 11
-534z m1577 1039 c199 -33 440 -191 547 -358 86 -135 78 -82 78 -500 l0 -373
-31 -56 c-126 -223 -353 -382 -617 -432 -86 -16 -296 -5 -382 20 -140 41 -247
102 -355 203 -132 123 -198 232 -251 413 -23 77 -27 109 -27 220 0 252 80 449
250 617 80 80 125 113 213 161 177 95 359 122 575 85z m-4226 -28 c25 -24 26
-29 26 -152 0 -69 -3 -130 -7 -134 -4 -4 -31 -9 -60 -11 -29 -3 -60 -7 -68
-10 -8 -4 -19 -7 -25 -7 -5 -1 -11 -12 -12 -26 -2 -14 -6 -44 -9 -68 -9 -62 4
-156 20 -143 8 7 21 6 40 -4 16 -8 40 -15 55 -15 14 0 32 -4 40 -9 22 -14 4
-62 -36 -98 l-37 -32 -23 25 c-13 14 -23 29 -23 35 0 27 -59 -19 -60 -47 0
-20 -38 -46 -62 -43 -28 4 -71 -18 -63 -32 4 -5 -7 -9 -23 -9 -37 0 -46 -10
-24 -26 16 -12 15 -13 -7 -14 -18 0 -22 -4 -16 -17 4 -10 10 -27 13 -38 2 -11
10 -27 16 -35 6 -8 22 -37 36 -63 25 -48 25 -48 5 -62 -11 -8 -30 -24 -42 -36
-18 -18 -28 -21 -66 -15 -37 6 -67 24 -169 106 -67 54 -132 113 -144 132 -11
18 -28 45 -37 59 -9 15 -26 57 -38 94 -28 88 -23 152 18 221 27 45 29 52 14
61 -9 6 -13 14 -9 18 4 4 15 2 24 -5 13 -12 17 -11 25 1 5 8 9 19 9 25 0 6 15
19 34 29 31 17 40 17 105 5 39 -7 71 -17 71 -22 0 -4 5 -8 10 -8 6 0 10 8 8
18 -2 9 3 17 11 17 8 0 15 -10 16 -22 1 -12 14 -32 29 -44 23 -18 25 -23 14
-37 -8 -10 -9 -13 -1 -9 6 4 23 3 36 -2 30 -11 80 18 160 93 40 37 47 48 38
64 -19 35 -118 93 -184 107 -32 6 -50 41 -34 66 5 9 27 27 49 40 21 13 41 32
44 41 3 11 15 18 30 18 13 0 24 5 24 10 0 6 12 10 28 11 15 0 43 7 62 14 19 7
59 13 89 12 44 -1 60 -7 80 -27z m3281 6 c0 -3 -39 -76 -86 -163 -48 -87 -106
-194 -130 -239 -24 -44 -75 -139 -114 -210 -39 -71 -85 -157 -103 -191 -17
-35 -35 -63 -39 -63 -5 0 -8 154 -8 343 l0 342 46 93 47 92 193 0 c107 0 194
-2 194 -4z m-1528 -65 c20 -8 30 -21 38 -53 6 -24 16 -53 22 -66 15 -28 4 -37
-57 -47 -43 -6 -45 -8 -75 -80 -7 -16 -19 -45 -28 -63 -13 -27 -14 -37 -4 -53
16 -24 8 -39 -21 -39 -21 -1 -21 -2 -4 -14 9 -7 15 -20 12 -28 -4 -10 1 -17
14 -21 29 -7 27 -43 -4 -63 -23 -15 -27 -15 -62 3 -32 15 -41 28 -62 83 -32
87 -39 199 -15 252 10 21 22 37 29 35 6 -3 20 2 30 9 19 14 19 15 -2 20 -19 5
-21 9 -11 28 6 11 34 42 62 69 54 50 72 54 138 28z m-387 -734 c8 -13 40 -34
71 -46 49 -21 59 -22 82 -10 15 7 30 15 35 17 4 2 7 -3 7 -11 0 -20 -48 -35
-149 -47 -44 -5 -102 -18 -127 -30 -26 -11 -48 -20 -49 -20 -2 0 13 16 32 35
24 24 34 42 30 54 -3 11 1 22 9 25 7 3 16 17 20 31 8 31 19 32 39 2z m-930
-69 c3 -24 5 -94 3 -156 l-3 -113 -35 26 c-19 14 -40 23 -48 20 -22 -8 -116
47 -154 90 -10 12 -15 28 -11 40 4 11 8 33 9 48 2 30 14 51 14 25 0 -19 21
-28 64 -28 18 0 41 -9 54 -20 30 -28 39 -25 48 18 l8 37 5 -34 c3 -19 12 -37
20 -39 10 -3 12 0 7 14 -9 23 -9 19 -7 72 0 23 5 42 10 42 6 0 13 -19 16 -42z
m-967 -208 c28 -8 52 -18 52 -23 0 -16 27 -35 66 -46 53 -15 54 -15 99 -108
23 -47 49 -87 62 -94 13 -7 23 -21 23 -31 0 -10 3 -18 8 -18 4 0 6 -18 4 -40
-2 -22 0 -40 4 -40 10 0 1 -166 -11 -195 -14 -34 -37 -56 -56 -50 -9 3 -20 1
-24 -5 -7 -11 -65 15 -65 30 0 5 -9 11 -20 15 -11 3 -56 34 -100 68 -43 34
-101 79 -128 99 l-49 37 4 53 c3 29 9 68 13 86 6 22 4 44 -4 65 -11 27 -13 73
-7 149 1 22 50 71 65 65 6 -2 35 -10 64 -17z m1322 -30 c0 -5 6 -10 14 -10 7
0 16 -10 19 -21 4 -15 11 -20 21 -16 20 8 20 -2 2 -28 -7 -11 -16 -32 -20 -47
-8 -33 -24 -38 -131 -41 l-80 -2 -3 83 -3 83 71 -2 c39 -1 73 1 77 4 10 11 33
8 33 -3z"/>
<path d="M6613 9773 c-20 -4 -23 -11 -23 -51 l0 -47 85 0 85 0 0 46 c0 40 -3
48 -22 53 -25 6 -90 6 -125 -1z"/>
<path d="M2912 6698 l3 -33 551 -3 551 -2 7 -62 c11 -109 7 -351 -7 -378 -11
-22 -20 -25 -69 -28 l-57 -3 -15 -54 c-21 -72 -21 -73 20 -81 78 -14 161 18
203 80 58 85 68 147 70 419 l1 107 74 0 c79 0 80 0 90 43 l6 27 -715 0 -716 0
3 -32z"/>
<path d="M2909 6063 c-2 -16 -2 -83 -1 -151 l4 -123 116 3 117 3 3 27 3 27
-78 3 -78 3 -3 33 -3 32 70 0 c69 0 71 1 71 25 0 23 -3 24 -67 27 -66 3 -68 4
-71 31 l-3 27 79 0 c73 0 80 2 85 22 3 12 4 25 1 30 -3 4 -58 8 -123 8 l-119
0 -3 -27z"/>
<path d="M3207 5583 c-4 -3 -7 -71 -7 -150 l0 -143 40 0 40 0 0 65 c0 36 3 65
8 65 4 0 33 -29 65 -65 57 -64 59 -65 110 -65 l51 0 -53 54 -54 55 32 30 c27
25 32 36 29 67 -4 43 -34 71 -94 84 -46 11 -158 13 -167 3z"/>
<path d="M3560 5441 l0 -151 40 0 41 0 -3 148 -3 147 -37 3 -38 3 0 -150z"/>
<path d="M1660 7857 c-60 -12 -94 -38 -119 -90 -20 -41 -21 -60 -21 -348 0
-296 1 -306 23 -348 60 -117 235 -121 302 -8 l25 44 0 304 c0 341 -4 360 -73
413 -46 36 -83 44 -137 33z"/>
<path d="M2820 4305 c0 -3 5 -14 12 -24 9 -15 9 -25 0 -46 -19 -41 -15 -84 8
-93 19 -7 19 -9 3 -37 -22 -40 -22 -140 1 -182 21 -41 60 -68 83 -58 16 6 16
8 -3 15 -84 33 -100 220 -19 220 33 0 105 23 105 33 0 5 -4 5 -10 2 -5 -3 -10
-2 -10 3 0 5 10 13 22 19 22 10 22 10 3 20 -39 21 -107 19 -130 -3 -15 -15
-17 -15 -30 2 -31 41 -5 73 41 49 39 -20 73 -19 112 5 17 11 32 15 32 10 0 -6
5 -10 10 -10 6 0 10 14 10 30 0 37 -6 37 -41 4 -34 -33 -68 -27 -109 18 -25
26 -31 29 -44 18 -11 -8 -16 -9 -16 -1 0 6 -7 11 -15 11 -8 0 -15 -2 -15 -5z"/>
<path d="M5685 4200 c-241 -58 -405 -245 -422 -480 -20 -277 179 -523 456
-562 70 -10 93 -9 164 6 93 20 136 40 222 101 133 94 205 241 205 414 0 98
-16 165 -56 247 -56 111 -172 210 -299 255 -68 24 -208 34 -270 19z"/>
<path d="M1324 3935 c-10 -8 -26 -15 -35 -15 -9 0 -37 -22 -62 -49 -37 -39
-47 -57 -47 -83 0 -52 24 -79 63 -71 41 8 40 5 22 39 -8 16 -15 34 -15 39 1
14 31 47 62 68 33 21 38 21 38 3 0 -8 3 -17 8 -19 4 -3 7 19 8 49 1 57 -8 65
-42 39z"/>
</g>
</svg>
