<?xml version="1.0" standalone="no"?>
<!DOCTYPE svg PUBLIC "-//W3C//DTD SVG 20010904//EN"
 "http://www.w3.org/TR/2001/REC-SVG-20010904/DTD/svg10.dtd">
<svg version="1.0" xmlns="http://www.w3.org/2000/svg"
 width="720.000000pt" height="1280.000000pt" viewBox="0 0 720.000000 1280.000000"
 preserveAspectRatio="xMidYMid meet">
<metadata>
Created by potrace 1.16, written by Peter Selinger 2001-2019
</metadata>
<g transform="translate(0.000000,1280.000000) scale(0.100000,-0.100000)"
fill="#000000" stroke="none">
<path d="M0 6400 l0 -6400 3600 0 3600 0 0 1025 0 1025 -102 1 c-171 2 -153
-9 -156 89 -1 47 1 198 6 336 8 215 11 254 27 278 17 26 17 29 2 56 -10 15
-17 49 -17 75 0 54 22 80 78 91 18 3 35 10 38 15 3 5 15 9 27 10 22 1 -15 14
-76 26 -33 6 -67 47 -67 80 0 13 7 40 15 60 18 43 19 82 3 135 -10 33 -9 47 6
88 14 39 15 56 7 87 -6 21 -11 57 -11 81 0 35 3 42 19 42 11 0 21 6 24 12 3 9
28 12 90 10 l87 -2 0 89 0 89 -957 6 c-527 3 -1072 8 -1212 11 -140 3 -405 8
-589 12 -366 7 -363 6 -329 65 l17 29 -80 -5 c-116 -8 -130 -13 -130 -46 0
-16 6 -30 13 -33 38 -14 -34 -19 -325 -23 -461 -6 -650 21 -677 96 -11 34 -62
72 -118 90 -24 7 -43 17 -43 21 0 21 21 59 30 54 6 -3 17 0 25 7 35 32 45 38
63 38 14 0 19 7 19 30 0 17 -3 27 -6 23 -20 -28 -112 -39 -96 -12 3 5 -1 6 -9
3 -11 -4 -16 0 -16 12 0 16 -2 17 -10 4 -9 -13 -10 -13 -10 0 0 13 -1 13 -10
0 -6 -10 -10 -11 -10 -2 0 6 -6 11 -12 10 -10 -2 -14 22 -15 92 -2 82 0 98 17
118 11 13 24 21 30 17 5 -3 10 2 10 13 0 29 7 31 60 17 27 -7 51 -10 54 -7 3
3 6 -1 6 -8 0 -11 3 -11 13 -2 9 10 13 82 15 270 3 181 7 259 15 264 7 4 45 8
85 8 57 0 72 3 72 15 0 29 -53 30 -260 1 -14 -2 0 -5 30 -6 30 -2 -15 -7 -100
-10 -214 -10 -1180 -10 -1155 -1 14 6 3 10 -40 15 -33 4 -71 7 -83 7 -13 -1
-58 8 -100 18 -43 11 -111 22 -152 25 l-75 5 65 -12 c48 -9 66 -17 68 -30 3
-15 -6 -17 -65 -18 -58 -2 -62 -3 -28 -8 52 -9 -687 -23 -960 -19 l-210 3 -3
101 -3 102 283 7 c457 11 1079 2 1163 -18 38 -8 72 -13 75 -10 3 3 -1 8 -7 10
-7 3 -13 9 -13 15 0 6 7 8 15 4 8 -3 15 -1 15 4 0 6 -6 10 -14 10 -7 0 -16 9
-19 19 -2 11 -5 179 -6 375 -2 337 -1 356 16 356 17 1 17 2 -1 15 -17 13 -18
15 -3 15 20 0 23 16 5 23 -30 10 10 22 88 26 72 3 84 1 84 -13 0 -9 -6 -16
-12 -16 -10 0 -9 -3 1 -9 7 -5 11 -13 7 -19 -3 -6 -2 -13 4 -17 6 -4 10 -138
10 -381 l0 -374 -69 0 c-39 0 -72 -3 -75 -8 -2 -4 92 -8 210 -10 l214 -2 0 50
c0 30 -4 50 -11 50 -7 0 -10 -15 -7 -40 2 -28 -1 -41 -11 -45 -7 -3 -62 -2
-120 2 -58 4 -97 9 -86 11 24 5 45 22 27 22 -6 0 -19 14 -28 32 -14 27 -16 57
-12 200 4 166 5 169 31 195 15 16 43 29 69 34 40 7 39 7 -17 6 -66 -2 -83 5
-85 31 -12 205 -12 222 4 228 15 6 15 8 -1 19 -12 9 -17 26 -17 56 1 85 16
234 26 262 l11 28 106 -3 106 -3 0 -412 c0 -226 3 -415 8 -419 4 -4 7 24 8 62
4 451 9 618 17 626 5 5 39 8 76 6 l67 -3 -1 -497 0 -498 92 1 c61 0 86 3 73 9
-19 8 -19 9 2 9 33 1 35 15 7 52 l-25 34 3 512 3 513 112 0 111 0 7 -112 c3
-62 5 -316 3 -564 l-3 -450 185 4 c102 2 185 5 185 6 0 112 -9 265 -15 246
l-8 -25 -1 25 c-2 41 -15 54 -35 35 -15 -15 -16 -14 -17 12 l-1 28 -8 -25 c-7
-23 -8 -23 -10 10 -1 19 -4 27 -7 18 -8 -31 -20 -20 -26 22 -6 45 3 472 10
480 3 3 28 5 56 5 l52 0 3 243 2 244 -357 -4 c-309 -3 -363 -1 -396 13 -21 9
-43 21 -49 27 -19 19 -28 14 -28 -13 l0 -25 -337 -2 c-186 -1 -360 -2 -388 -2
-27 1 -317 2 -644 3 -381 1 -601 6 -613 12 -13 7 -23 7 -32 -1 -10 -8 -15 -7
-20 5 -4 10 1 15 15 15 17 0 20 5 17 33 -3 33 -4 32 55 36 35 2 16 19 -28 24
-26 2 -49 8 -53 12 -4 4 -8 276 -10 606 -2 532 -1 599 13 599 13 0 15 -30 15
-225 0 -143 4 -225 10 -225 6 0 10 19 11 43 2 109 20 430 27 502 l9 80 1 -72
c2 -66 4 -73 22 -73 18 0 20 7 20 69 0 49 4 70 14 74 9 4 16 31 21 81 6 66 9
76 26 76 18 0 19 9 19 160 0 100 4 160 10 160 6 0 10 27 10 60 0 53 2 60 19
60 13 0 21 8 23 23 2 15 9 21 21 19 15 -3 17 6 17 75 0 63 6 94 30 156 17 43
37 85 45 93 8 9 15 20 15 25 0 5 10 9 23 9 13 0 34 11 47 25 19 20 22 32 18
70 -5 38 -3 45 12 45 10 0 20 7 24 15 3 8 12 15 21 15 8 0 15 7 15 15 0 8 -9
15 -20 15 -11 0 -20 7 -20 15 0 12 -14 15 -62 17 -284 9 1245 15 3735 17
l2977 1 0 1775 0 1775 -3600 0 -3600 0 0 -6400z m6786 3682 c159 -63 211 -265
105 -407 -25 -34 -27 -41 -14 -50 24 -18 0 -52 -48 -67 -33 -9 -47 -9 -72 2
-36 16 -116 15 -165 -1 -47 -15 -97 -4 -117 27 -13 20 -14 28 -4 40 10 12 8
19 -9 37 -37 39 -62 108 -62 171 0 78 16 128 58 176 79 93 205 120 328 72z
m-643 2 c52 -18 116 -76 142 -130 60 -126 7 -282 -117 -344 -139 -69 -312 -20
-376 106 -42 84 -38 184 12 267 25 41 43 58 94 84 54 28 75 33 131 33 37 0 88
-7 114 -16z m-5806 -224 c52 -224 51 -200 11 -200 -31 0 -36 4 -41 30 -6 27
-11 30 -42 30 -19 0 -38 0 -42 1 -4 0 -11 -14 -16 -30 -7 -27 -12 -31 -41 -31
l-34 0 14 58 c7 31 26 110 41 175 l27 118 44 -3 45 -3 34 -145z m373 58 l1
-93 30 38 c23 27 39 37 60 37 16 0 29 -3 29 -6 0 -4 -16 -28 -35 -54 l-34 -47
28 -45 c56 -89 56 -88 17 -88 -30 0 -38 5 -57 40 -26 45 -39 43 -39 -6 0 -31
-2 -34 -30 -34 l-30 0 0 175 0 175 30 0 30 0 0 -92z m1740 -83 l0 -176 -42 1
c-24 1 -54 -1 -68 -5 -43 -11 -77 25 -85 88 -7 58 7 128 30 147 17 14 51 17
83 6 21 -7 22 -5 22 53 l0 61 30 0 30 0 0 -175z m452 83 l3 -92 25 37 c20 30
31 37 58 37 30 0 42 -12 24 -24 -5 -3 -21 -23 -36 -44 l-27 -40 40 -66 41 -66
-35 0 c-30 0 -39 6 -62 43 l-28 42 -3 -42 c-3 -42 -4 -43 -38 -43 l-34 0 0
168 c0 93 3 172 7 175 3 4 19 7 34 7 l28 0 3 -92z m728 27 l0 -66 30 16 c33
17 60 13 85 -11 11 -12 15 -40 15 -120 l0 -104 -30 0 -29 0 -3 92 c-3 83 -5
93 -22 96 -33 7 -46 -25 -46 -110 l0 -78 -30 0 -30 0 0 175 0 175 30 0 30 0 0
-65z m530 4 c0 -58 1 -60 23 -53 76 26 107 -8 107 -118 0 -71 -2 -81 -26 -105
-20 -20 -31 -24 -52 -18 -15 4 -46 6 -69 5 l-43 -1 0 176 0 175 30 0 30 0 0
-61z m-1480 -9 c0 -38 2 -40 30 -40 25 0 30 -4 30 -25 0 -21 -5 -25 -30 -25
l-31 0 3 -67 c3 -66 4 -68 31 -71 21 -3 27 -8 23 -19 -3 -8 -6 -19 -6 -24 0
-16 -73 -10 -92 8 -14 13 -18 31 -18 90 0 66 -2 75 -20 80 -13 3 -20 14 -20
29 0 17 6 24 20 24 17 0 20 7 20 40 0 38 2 40 30 40 28 0 30 -2 30 -40z
m-2096 -61 c24 -23 34 -121 17 -172 -15 -44 -59 -66 -97 -48 -14 6 -27 11 -29
11 -3 0 -5 -30 -5 -66 l0 -65 -27 3 -28 3 -3 179 -2 179 37 -5 c21 -3 47 -2
58 3 26 10 55 2 79 -22z m402 21 c8 0 23 -9 34 -20 17 -17 20 -33 20 -121 l0
-101 -32 3 c-18 1 -48 -1 -66 -5 -50 -12 -82 13 -82 64 0 44 20 64 83 81 28 7
37 15 35 27 -5 26 -48 28 -55 3 -6 -25 -51 -29 -60 -5 -13 34 56 90 95 78 8
-2 20 -4 28 -4z m290 0 c39 -15 53 -39 54 -87 l0 -43 -61 0 c-60 0 -60 0 -57
-27 3 -32 44 -46 54 -19 4 10 18 16 35 16 35 0 39 -25 10 -61 -27 -34 -99 -34
-135 0 -23 22 -26 32 -26 96 0 79 20 120 63 128 12 2 25 5 29 6 4 0 19 -4 34
-9z m201 -1 c32 -12 43 -26 43 -56 0 -31 -45 -33 -53 -3 -7 26 -47 27 -47 1 0
-12 12 -23 33 -31 74 -30 97 -83 58 -131 -40 -50 -151 -22 -151 38 0 31 42 32
62 1 9 -14 20 -19 31 -15 31 12 18 37 -28 57 -75 32 -87 107 -22 135 39 17 39
17 74 4z m197 -3 c31 -13 53 -55 38 -71 -14 -14 -50 -3 -55 16 -4 13 -12 20
-24 17 -29 -5 -21 -32 15 -50 73 -36 92 -81 53 -129 -15 -19 -29 -24 -66 -24
-37 0 -51 5 -66 24 -29 36 -25 61 10 61 21 0 30 -6 34 -21 7 -25 40 -22 45 3
2 12 -11 24 -43 39 -74 35 -85 107 -21 135 39 17 40 17 80 0z m205 3 c17 -6
36 -19 41 -29 6 -10 10 -62 10 -115 l0 -97 -32 3 c-18 1 -48 -1 -66 -5 -50
-12 -82 13 -82 64 0 44 20 64 83 81 28 7 37 15 35 27 -5 25 -45 27 -58 3 -11
-22 -44 -28 -55 -10 -13 21 5 57 37 72 40 20 46 20 87 6z m319 -22 c16 -15 22
-32 22 -64 l0 -43 -61 0 c-60 0 -60 0 -57 -27 3 -32 44 -46 54 -19 9 23 64 21
64 -2 0 -69 -107 -94 -163 -37 -23 23 -24 151 -1 183 32 46 97 50 142 9z
m1000 -3 c18 -21 22 -36 22 -98 0 -58 -4 -76 -20 -94 -43 -45 -130 -36 -157
18 -16 32 -17 121 -1 156 26 56 112 66 156 18z m240 8 c8 -10 12 -52 12 -119
l0 -103 -30 0 -30 0 0 90 c0 99 -12 119 -50 85 -17 -15 -20 -31 -20 -97 l0
-78 -30 0 -30 0 0 120 0 120 29 0 c16 0 31 -5 33 -11 2 -6 14 -5 33 5 33 17
63 13 83 -12z m530 -8 c15 -17 22 -38 22 -65 l0 -39 -61 0 c-60 0 -60 0 -57
-27 3 -32 44 -46 54 -19 4 10 18 16 35 16 35 0 40 -29 9 -60 -27 -27 -63 -34
-105 -20 -46 15 -55 34 -55 123 0 64 3 76 23 94 12 11 29 23 37 26 28 11 75
-3 98 -29z m539 12 c7 -6 13 -53 15 -116 l3 -105 -32 -3 -33 -3 0 91 c0 72 -3
92 -15 96 -33 13 -45 -15 -45 -102 l0 -84 -35 0 -35 0 0 120 0 120 35 0 c19 0
35 -4 35 -9 0 -6 12 -3 28 4 28 15 58 12 79 -9z m221 -12 c19 -22 22 -36 22
-120 l0 -95 -42 1 c-24 1 -54 -1 -68 -5 -35 -9 -80 27 -80 64 0 39 19 60 70
75 33 10 46 19 48 35 4 28 -31 29 -51 0 -22 -30 -63 -23 -59 11 10 70 109 91
160 34z m391 25 c36 -13 61 -53 61 -99 l0 -30 -59 0 c-65 0 -73 -5 -64 -38 6
-26 53 -32 53 -7 0 11 11 15 36 15 32 0 35 -2 29 -22 -13 -43 -42 -63 -90 -63
-64 0 -87 27 -93 105 -5 75 11 118 52 136 38 16 36 16 75 3z m204 -3 c15 -8
27 -11 27 -5 0 5 14 9 30 9 l30 0 0 -149 c0 -134 -2 -151 -20 -174 -41 -52
-147 -44 -170 13 -7 16 -9 34 -5 39 10 18 44 12 57 -9 26 -41 78 -15 78 40 0
17 -3 19 -19 10 -36 -19 -78 -12 -100 16 -16 21 -21 41 -21 90 0 72 13 107 44
122 29 14 37 14 69 -2z m285 -22 c19 -22 22 -36 22 -120 l0 -95 -42 1 c-24 1
-54 -1 -68 -5 -34 -9 -80 27 -80 61 0 42 17 62 70 79 37 12 50 22 50 36 0 26
-36 25 -50 -1 -11 -20 -54 -28 -64 -12 -10 16 29 76 54 84 40 11 83 0 108 -28z
m-3048 -94 l0 -120 -35 0 -35 0 0 113 c0 63 3 117 7 120 3 4 19 7 35 7 l28 0
0 -120z m2280 63 c19 -91 25 -93 45 -14 17 70 18 71 50 71 l33 0 -24 -82 c-79
-281 -76 -273 -113 -276 -28 -3 -33 -1 -27 14 29 76 29 101 -4 209 -17 59 -34
113 -37 121 -4 10 4 14 29 14 34 0 35 -1 48 -57z m-3143 -3725 l2 -98 -91 0
c-66 0 -89 3 -86 12 3 7 15 15 29 19 23 6 23 6 -6 10 -30 4 -30 5 -33 72 -3
62 -1 68 20 77 13 5 55 8 93 7 l70 -2 2 -97z m-1219 -498 c3 -378 0 -440 -24
-440 -8 0 -14 4 -14 10 0 5 -17 12 -37 15 -72 10 -128 26 -135 38 -4 7 -8 82
-7 167 l0 155 29 35 c33 38 40 89 15 110 -18 15 -11 30 15 30 22 0 36 46 20
66 -15 17 -4 34 23 34 41 1 74 41 45 53 -10 4 -10 7 0 15 10 7 6 15 -17 35
l-31 26 32 4 c18 2 44 4 58 3 l25 -1 3 -355z m196 -237 l-6 -193 -29 0 c-16 0
-29 5 -29 11 0 6 -19 29 -42 50 l-43 39 -3 250 c-3 210 -2 251 11 255 10 5 13
18 9 55 l-4 49 63 3 64 3 8 -165 c4 -91 5 -252 1 -357z m1592 -608 c3 -25 3
-65 -1 -90 l-6 -46 -122 3 -122 3 0 75 c0 68 2 75 20 76 42 2 49 7 20 14 -19
5 11 8 87 9 l117 1 7 -45z m212 -122 l-3 -168 -65 -3 c-36 -2 -80 0 -97 3
l-33 6 0 149 c0 90 4 151 10 155 6 4 8 11 5 16 -4 5 33 9 90 9 l95 0 -2 -167z
m166 -255 c-3 -128 -8 -239 -10 -247 -3 -10 -17 -12 -62 -7 -103 13 -96 0 -88
150 3 72 9 177 13 234 l6 102 73 0 74 0 -6 -232z m-426 92 l32 0 0 -152 c0
-84 -3 -162 -6 -173 -5 -19 -12 -20 -112 -17 l-106 4 -23 -29 -23 -28 0 130
c0 72 3 160 6 197 7 66 7 67 38 71 17 3 60 3 96 1 36 -2 80 -4 98 -4z m250
-241 c2 -30 -2 -67 -7 -82 -10 -26 -13 -27 -94 -27 -51 0 -88 5 -95 12 -13 13
-17 140 -5 152 4 4 50 5 103 4 l95 -3 3 -56z m-467 -462 c17 -12 65 -27 88
-27 48 0 63 -28 60 -112 -2 -40 0 -79 4 -85 5 -7 4 -13 -2 -13 -13 0 -10 -22
4 -32 6 -5 5 -8 -3 -8 -8 0 -10 -5 -6 -12 4 -6 8 -23 9 -37 l1 -26 -100 -5
c-93 -5 -174 5 -192 23 -12 11 -24 8 -22 -5 2 -10 -19 -12 -85 -10 -57 1 -86
-1 -82 -8 4 -7 -270 -10 -824 -10 l-831 0 0 75 c0 52 4 77 13 80 6 2 450 6
985 8 535 3 976 8 979 11 4 3 -1 6 -10 6 -14 0 -17 13 -18 83 -1 45 -1 86 0
92 2 5 5 57 9 115 l7 105 5 -102 c4 -57 8 -104 11 -106z m-1547 -35 c4 -50 5
-99 2 -107 -5 -13 -23 -15 -103 -13 l-98 3 -3 46 c-2 32 2 50 13 59 13 11 15
8 15 -23 0 -32 3 -35 34 -41 52 -10 66 0 66 47 0 53 -22 76 -74 79 -23 1 -3 5
44 8 l85 6 -82 2 c-46 1 -83 6 -83 11 0 15 29 19 105 18 l70 -2 9 -93z m2530
-344 c3 -18 8 -135 10 -260 4 -188 2 -229 -10 -238 -18 -16 -209 -9 -225 7
-22 22 -40 167 -40 322 0 145 1 154 22 177 21 22 30 24 130 24 l108 0 5 -32z
m-1107 -718 c-1 -359 1 -551 8 -553 6 -2 4 -11 -4 -21 -19 -23 -10 -29 45 -28
48 1 77 12 33 12 -19 0 -21 2 -9 10 8 5 27 10 43 10 15 0 27 5 27 10 0 6 32
10 75 10 l76 0 6 -30 c3 -16 11 -30 17 -30 6 0 3 -7 -7 -14 -14 -11 -213 -14
-1092 -14 l-1075 -1 0 42 0 42 467 -4 c734 -5 769 -5 928 4 l150 8 2 345 c2
269 5 347 15 353 7 5 38 11 68 14 93 11 90 9 88 78 0 35 -3 48 -5 30 l-4 -33
-81 0 -81 0 7 137 c4 75 9 140 12 145 3 4 36 8 74 8 l69 0 4 -42 c3 -41 4 -41
5 10 l2 52 69 0 69 0 -1 -550z m408 30 c3 -11 11 -20 16 -20 5 0 9 -4 9 -10 0
-5 -7 -10 -15 -10 -8 0 -15 -4 -15 -10 0 -20 24 -10 52 22 26 29 30 30 53 18
25 -13 25 -15 25 -141 0 -70 -3 -134 -6 -143 -8 -20 -44 -21 -70 -2 -12 9 -23
11 -30 5 -7 -6 -16 3 -28 29 -13 29 -16 62 -14 159 3 118 9 146 23 103z m3696
-52 c1 -13 1 -26 1 -29 -8 -62 0 -167 14 -190 12 -21 -112 -6 -136 16 l-21 19
23 18 c13 10 29 18 36 18 20 0 50 32 34 38 -6 2 -12 12 -12 23 0 10 -5 19 -12
19 -18 0 -48 31 -48 51 0 11 9 21 23 23 12 3 31 7 42 9 45 10 55 7 56 -15z
m-2977 -213 c3 -8 6 -101 6 -207 l2 -193 -154 0 -153 0 1 177 c1 242 -5 234
185 237 86 1 108 -2 113 -14z m2993 -300 c2 -33 5 -68 7 -77 4 -16 -5 -18 -70
-18 l-74 0 0 53 c0 29 6 65 13 80 11 26 16 27 67 25 l54 -3 3 -60z"/>
<path d="M6613 9773 c-20 -4 -23 -11 -23 -51 l0 -47 85 0 85 0 0 46 c0 40 -3
48 -22 53 -25 6 -90 6 -125 -1z"/>
<path d="M3681 6603 c-20 -51 -91 -317 -88 -327 6 -18 33 45 62 144 36 125 42
134 50 85 3 -22 13 -59 21 -82 13 -36 20 -43 42 -43 36 0 42 5 91 78 24 35 44
62 46 60 2 -2 -1 -40 -6 -85 -13 -107 -9 -167 12 -171 14 -2 17 18 23 149 4
83 5 154 2 156 -15 15 -54 -19 -102 -88 -31 -44 -61 -78 -68 -76 -18 6 -34 77
-35 155 -1 63 -3 72 -20 72 -11 0 -23 -11 -30 -27z"/>
<path d="M4540 6381 c0 -50 3 -92 8 -94 14 -9 104 10 113 24 13 21 11 46 -7
64 -9 8 -14 24 -11 35 9 33 -20 60 -64 60 l-39 0 0 -89z"/>
<path d="M4697 6463 c-9 -8 -9 -167 -1 -176 15 -14 34 8 34 39 0 32 2 34 35
34 33 0 35 -2 35 -34 0 -31 19 -53 34 -39 3 4 6 46 6 95 0 81 -2 88 -20 88
-16 0 -20 -7 -20 -35 0 -33 -2 -35 -35 -35 -33 0 -35 2 -35 35 0 33 -16 46
-33 28z"/>
<path d="M4900 6386 c-27 -56 -38 -92 -32 -98 6 -6 15 -4 25 6 21 22 86 21
103 -1 9 -13 16 -15 23 -7 8 7 -2 36 -33 100 l-44 89 -42 -89z"/>
<path d="M5197 6463 c-2 -5 -5 -45 -6 -90 -2 -78 -1 -83 18 -83 17 0 21 6 21
35 0 33 2 35 35 35 33 0 35 -2 35 -35 0 -28 4 -35 20 -35 19 0 20 7 20 90 0
83 -1 90 -20 90 -16 0 -20 -7 -20 -35 0 -33 -2 -35 -35 -35 -33 0 -35 2 -35
35 0 24 -5 35 -14 35 -8 0 -17 -3 -19 -7z"/>
<path d="M4003 6380 c-25 -15 -33 -27 -33 -49 0 -45 18 -52 123 -50 l95 2 6
37 c9 55 27 66 57 34 20 -21 31 -25 68 -22 41 3 46 1 51 -21 3 -14 11 -26 18
-29 8 -2 12 13 12 52 0 43 -3 56 -15 56 -8 0 -15 -6 -15 -14 0 -17 -5 -21 -43
-30 -23 -6 -33 -1 -56 23 -22 24 -36 30 -62 28 -41 -2 -49 -11 -49 -58 l0 -36
-66 -7 c-71 -7 -94 1 -94 35 0 13 7 19 23 19 25 0 67 26 67 41 0 16 -54 10
-87 -11z"/>
</g>
</svg>
