<?xml version="1.0" standalone="no"?>
<!DOCTYPE svg PUBLIC "-//W3C//DTD SVG 20010904//EN"
 "http://www.w3.org/TR/2001/REC-SVG-20010904/DTD/svg10.dtd">
<svg version="1.0" xmlns="http://www.w3.org/2000/svg"
 width="720.000000pt" height="1280.000000pt" viewBox="0 0 720.000000 1280.000000"
 preserveAspectRatio="xMidYMid meet">
<metadata>
Created by potrace 1.16, written by Peter Selinger 2001-2019
</metadata>
<g transform="translate(0.000000,1280.000000) scale(0.100000,-0.100000)"
fill="#000000" stroke="none">
<path d="M0 6400 l0 -6400 3600 0 3600 0 0 1910 0 1910 -77 -5 c-236 -18 -548
-22 -1158 -14 -374 4 -995 11 -1380 14 -751 6 -1172 13 -1194 21 -13 4 -12 30
3 66 7 14 -1 16 -66 12 -115 -7 -120 -9 -117 -49 2 -19 0 -37 -3 -41 -10 -9
-523 -12 -683 -3 -86 5 -163 15 -199 26 -53 16 -61 22 -83 66 -26 49 -61 75
-110 81 -15 2 -42 6 -59 11 -28 6 -31 10 -25 34 6 22 13 26 46 26 22 0 40 5
42 13 3 6 11 12 19 12 17 0 19 31 2 48 -7 7 -22 12 -35 12 -31 0 -37 43 -24
175 6 60 11 153 11 207 0 80 3 98 15 99 8 0 41 1 73 1 l57 0 0 -248 0 -249 30
2 c36 1 105 25 105 35 0 4 -6 5 -14 2 -8 -3 -24 -1 -35 6 -19 10 -21 20 -21
104 0 84 2 95 23 114 13 12 26 19 30 16 3 -4 9 5 13 20 7 30 5 29 41 15 15 -6
42 -12 60 -13 42 -2 43 4 43 289 l0 233 23 6 c12 3 50 6 85 6 54 0 62 2 62 19
0 18 -6 19 -72 15 -40 -2 -102 -8 -138 -12 l-65 -9 50 -3 c116 -8 -296 -17
-770 -19 -332 0 -505 3 -495 9 11 7 7 10 -18 10 -18 0 -48 7 -68 15 -19 8 -32
10 -29 5 9 -14 -13 -12 -96 9 -41 10 -108 21 -149 24 -46 3 -63 2 -45 -3 17
-4 45 -8 63 -9 25 -1 32 -5 32 -21 0 -18 -7 -20 -67 -22 -65 -1 -66 -1 -23 -8
34 -5 17 -7 -65 -9 -60 0 -249 -4 -418 -8 l-308 -6 3 109 3 109 489 2 c269 1
494 -1 500 -6 14 -11 136 -34 143 -27 3 3 -2 8 -11 12 -9 3 -13 10 -10 15 6
10 79 1 107 -13 12 -6 17 -5 15 4 -2 10 35 13 172 13 160 0 175 1 174 18 -1 9
-2 34 -3 54 -1 48 -10 37 -14 -18 l-3 -44 -70 1 c-116 2 -171 6 -144 11 30 6
51 23 27 23 -9 0 -22 10 -28 22 -16 30 -23 184 -14 292 6 72 11 92 32 116 23
28 23 35 -1 31 -21 -4 -34 38 -35 123 -1 50 -5 101 -8 113 -4 17 0 25 18 31
l23 9 -22 5 c-20 6 -22 12 -21 75 1 130 15 240 32 257 12 12 37 16 111 16 52
0 98 -4 101 -10 6 -10 13 -338 8 -344 -4 -4 -6 -352 -2 -486 l2 -105 8 130 c3
72 7 245 8 386 1 190 4 260 14 273 10 14 25 16 77 14 l65 -3 -1 -497 0 -498
95 1 c55 0 88 4 77 8 -19 7 -19 8 2 13 28 8 28 22 0 51 l-23 22 3 515 2 515
113 0 112 0 0 -563 0 -564 35 6 c19 3 103 6 187 6 l151 0 -1 136 c0 75 -4 128
-8 118 -6 -14 -8 -15 -9 -4 -2 8 -2 21 -1 29 2 7 -2 10 -8 6 -6 -3 -11 2 -11
12 0 15 -2 16 -10 3 -5 -8 -10 -10 -10 -5 0 6 -5 3 -10 -5 -9 -13 -10 -13 -10
0 0 13 -1 13 -10 0 -7 -11 -10 -7 -11 20 -1 24 -3 28 -6 12 -2 -12 -9 -20 -14
-17 -5 4 -9 114 -9 259 0 275 2 285 54 272 14 -3 28 -1 32 5 5 8 9 8 14 -1 4
-7 13 -10 19 -6 7 5 10 83 8 244 l-2 237 -343 -4 c-308 -3 -348 -1 -390 14
-26 10 -54 24 -63 31 -25 22 -42 17 -37 -11 l5 -25 -336 -1 c-332 -1 -977 1
-1201 4 l-115 2 -7 135 c-3 74 -5 430 -3 790 3 360 5 806 5 990 1 339 5 430
21 430 5 0 9 -8 9 -17 0 -15 2 -15 9 -4 7 11 10 10 14 -5 4 -16 5 -17 6 -1 0
9 6 17 11 17 15 0 13 137 -2 144 -10 5 -10 7 -1 12 8 4 13 27 13 65 0 33 4 58
8 55 8 -5 24 19 35 54 4 11 6 11 6 -3 1 -17 2 -17 31 0 32 18 40 43 15 43 -8
0 -15 7 -15 15 0 11 -13 16 -47 17 -237 9 1189 16 3860 17 l3197 1 0 1775 0
1775 -3600 0 -3600 0 0 -6400z m6786 3682 c159 -63 211 -265 105 -407 -25 -34
-27 -41 -14 -50 24 -18 0 -52 -48 -67 -33 -9 -47 -9 -72 2 -36 16 -116 15
-165 -1 -47 -15 -97 -4 -117 27 -13 20 -14 28 -4 40 10 12 8 19 -9 37 -37 39
-62 108 -62 171 0 78 16 128 58 176 79 93 205 120 328 72z m-643 2 c52 -18
116 -76 142 -130 60 -126 7 -282 -117 -344 -139 -69 -312 -20 -376 106 -42 84
-38 184 12 267 25 41 43 58 94 84 54 28 75 33 131 33 37 0 88 -7 114 -16z
m-5806 -224 c52 -224 51 -200 11 -200 -31 0 -36 4 -41 30 -6 27 -11 30 -42 30
-19 0 -38 0 -42 1 -4 0 -11 -14 -16 -30 -7 -27 -12 -31 -41 -31 l-34 0 14 58
c7 31 26 110 41 175 l27 118 44 -3 45 -3 34 -145z m373 58 l1 -93 30 38 c23
27 39 37 60 37 16 0 29 -3 29 -6 0 -4 -16 -28 -35 -54 l-34 -47 28 -45 c56
-89 56 -88 17 -88 -30 0 -38 5 -57 40 -26 45 -39 43 -39 -6 0 -31 -2 -34 -30
-34 l-30 0 0 175 0 175 30 0 30 0 0 -92z m1740 -83 l0 -176 -42 1 c-24 1 -54
-1 -68 -5 -43 -11 -77 25 -85 88 -7 58 7 128 30 147 17 14 51 17 83 6 21 -7
22 -5 22 53 l0 61 30 0 30 0 0 -175z m452 83 l3 -92 25 37 c20 30 31 37 58 37
30 0 42 -12 24 -24 -5 -3 -21 -23 -36 -44 l-27 -40 40 -66 41 -66 -35 0 c-30
0 -39 6 -62 43 l-28 42 -3 -42 c-3 -42 -4 -43 -38 -43 l-34 0 0 168 c0 93 3
172 7 175 3 4 19 7 34 7 l28 0 3 -92z m728 27 l0 -66 30 16 c33 17 60 13 85
-11 11 -12 15 -40 15 -120 l0 -104 -30 0 -29 0 -3 92 c-3 83 -5 93 -22 96 -33
7 -46 -25 -46 -110 l0 -78 -30 0 -30 0 0 175 0 175 30 0 30 0 0 -65z m530 4
c0 -58 1 -60 23 -53 76 26 107 -8 107 -118 0 -71 -2 -81 -26 -105 -20 -20 -31
-24 -52 -18 -15 4 -46 6 -69 5 l-43 -1 0 176 0 175 30 0 30 0 0 -61z m-1480
-9 c0 -38 2 -40 30 -40 25 0 30 -4 30 -25 0 -21 -5 -25 -30 -25 l-31 0 3 -67
c3 -66 4 -68 31 -71 21 -3 27 -8 23 -19 -3 -8 -6 -19 -6 -24 0 -16 -73 -10
-92 8 -14 13 -18 31 -18 90 0 66 -2 75 -20 80 -13 3 -20 14 -20 29 0 17 6 24
20 24 17 0 20 7 20 40 0 38 2 40 30 40 28 0 30 -2 30 -40z m-2096 -61 c24 -23
34 -121 17 -172 -15 -44 -59 -66 -97 -48 -14 6 -27 11 -29 11 -3 0 -5 -30 -5
-66 l0 -65 -27 3 -28 3 -3 179 -2 179 37 -5 c21 -3 47 -2 58 3 26 10 55 2 79
-22z m402 21 c8 0 23 -9 34 -20 17 -17 20 -33 20 -121 l0 -101 -32 3 c-18 1
-48 -1 -66 -5 -50 -12 -82 13 -82 64 0 44 20 64 83 81 28 7 37 15 35 27 -5 26
-48 28 -55 3 -6 -25 -51 -29 -60 -5 -13 34 56 90 95 78 8 -2 20 -4 28 -4z
m290 0 c39 -15 53 -39 54 -87 l0 -43 -61 0 c-60 0 -60 0 -57 -27 3 -32 44 -46
54 -19 4 10 18 16 35 16 35 0 39 -25 10 -61 -27 -34 -99 -34 -135 0 -23 22
-26 32 -26 96 0 79 20 120 63 128 12 2 25 5 29 6 4 0 19 -4 34 -9z m201 -1
c32 -12 43 -26 43 -56 0 -31 -45 -33 -53 -3 -7 26 -47 27 -47 1 0 -12 12 -23
33 -31 74 -30 97 -83 58 -131 -40 -50 -151 -22 -151 38 0 31 42 32 62 1 9 -14
20 -19 31 -15 31 12 18 37 -28 57 -75 32 -87 107 -22 135 39 17 39 17 74 4z
m197 -3 c31 -13 53 -55 38 -71 -14 -14 -50 -3 -55 16 -4 13 -12 20 -24 17 -29
-5 -21 -32 15 -50 73 -36 92 -81 53 -129 -15 -19 -29 -24 -66 -24 -37 0 -51 5
-66 24 -29 36 -25 61 10 61 21 0 30 -6 34 -21 7 -25 40 -22 45 3 2 12 -11 24
-43 39 -74 35 -85 107 -21 135 39 17 40 17 80 0z m205 3 c17 -6 36 -19 41 -29
6 -10 10 -62 10 -115 l0 -97 -32 3 c-18 1 -48 -1 -66 -5 -50 -12 -82 13 -82
64 0 44 20 64 83 81 28 7 37 15 35 27 -5 25 -45 27 -58 3 -11 -22 -44 -28 -55
-10 -13 21 5 57 37 72 40 20 46 20 87 6z m319 -22 c16 -15 22 -32 22 -64 l0
-43 -61 0 c-60 0 -60 0 -57 -27 3 -32 44 -46 54 -19 9 23 64 21 64 -2 0 -69
-107 -94 -163 -37 -23 23 -24 151 -1 183 32 46 97 50 142 9z m1000 -3 c18 -21
22 -36 22 -98 0 -58 -4 -76 -20 -94 -43 -45 -130 -36 -157 18 -16 32 -17 121
-1 156 26 56 112 66 156 18z m240 8 c8 -10 12 -52 12 -119 l0 -103 -30 0 -30
0 0 90 c0 99 -12 119 -50 85 -17 -15 -20 -31 -20 -97 l0 -78 -30 0 -30 0 0
120 0 120 29 0 c16 0 31 -5 33 -11 2 -6 14 -5 33 5 33 17 63 13 83 -12z m530
-8 c15 -17 22 -38 22 -65 l0 -39 -61 0 c-60 0 -60 0 -57 -27 3 -32 44 -46 54
-19 4 10 18 16 35 16 35 0 40 -29 9 -60 -27 -27 -63 -34 -105 -20 -46 15 -55
34 -55 123 0 64 3 76 23 94 12 11 29 23 37 26 28 11 75 -3 98 -29z m539 12 c7
-6 13 -53 15 -116 l3 -105 -32 -3 -33 -3 0 91 c0 72 -3 92 -15 96 -33 13 -45
-15 -45 -102 l0 -84 -35 0 -35 0 0 120 0 120 35 0 c19 0 35 -4 35 -9 0 -6 12
-3 28 4 28 15 58 12 79 -9z m221 -12 c19 -22 22 -36 22 -120 l0 -95 -42 1
c-24 1 -54 -1 -68 -5 -35 -9 -80 27 -80 64 0 39 19 60 70 75 33 10 46 19 48
35 4 28 -31 29 -51 0 -22 -30 -63 -23 -59 11 10 70 109 91 160 34z m391 25
c36 -13 61 -53 61 -99 l0 -30 -59 0 c-65 0 -73 -5 -64 -38 6 -26 53 -32 53 -7
0 11 11 15 36 15 32 0 35 -2 29 -22 -13 -43 -42 -63 -90 -63 -64 0 -87 27 -93
105 -5 75 11 118 52 136 38 16 36 16 75 3z m204 -3 c15 -8 27 -11 27 -5 0 5
14 9 30 9 l30 0 0 -149 c0 -134 -2 -151 -20 -174 -41 -52 -147 -44 -170 13 -7
16 -9 34 -5 39 10 18 44 12 57 -9 26 -41 78 -15 78 40 0 17 -3 19 -19 10 -36
-19 -78 -12 -100 16 -16 21 -21 41 -21 90 0 72 13 107 44 122 29 14 37 14 69
-2z m285 -22 c19 -22 22 -36 22 -120 l0 -95 -42 1 c-24 1 -54 -1 -68 -5 -34
-9 -80 27 -80 61 0 42 17 62 70 79 37 12 50 22 50 36 0 26 -36 25 -50 -1 -11
-20 -54 -28 -64 -12 -10 16 29 76 54 84 40 11 83 0 108 -28z m-3048 -94 l0
-120 -35 0 -35 0 0 113 c0 63 3 117 7 120 3 4 19 7 35 7 l28 0 0 -120z m2280
63 c19 -91 25 -93 45 -14 17 70 18 71 50 71 l33 0 -24 -82 c-79 -281 -76 -273
-113 -276 -28 -3 -33 -1 -27 14 29 76 29 101 -4 209 -17 59 -34 113 -37 121
-4 10 4 14 29 14 34 0 35 -1 48 -57z m-3526 -3645 c9 -34 7 -116 -3 -122 -4
-3 -6 -17 -3 -31 l4 -25 -86 0 c-70 0 -86 3 -86 15 0 9 10 16 23 16 17 1 15 3
-8 8 -29 6 -30 8 -33 74 -3 62 -1 68 20 77 13 5 55 9 94 9 66 1 72 -1 78 -21z
m2 -199 c3 -6 1 -15 -6 -19 -7 -4 -8 -10 -3 -13 5 -3 10 -41 12 -84 2 -43 3
-87 4 -98 0 -11 0 -152 -1 -312 l-2 -293 -94 0 c-81 0 -94 2 -98 18 -2 9 -4
177 -3 372 l0 355 35 6 c30 5 31 7 8 8 -15 0 -30 6 -33 11 -6 9 8 14 28 11 5
-1 6 3 2 9 -3 5 -13 10 -21 10 -23 0 -16 18 9 23 48 9 156 7 163 -4z m-1224
-96 c2 -43 2 -223 0 -400 l-3 -321 -29 11 c-26 10 -30 17 -36 63 -3 29 -5 177
-3 330 3 210 7 278 16 282 7 2 13 11 13 20 0 15 -2 15 -10 2 -7 -11 -10 -2
-10 31 0 52 4 59 36 59 21 0 23 -5 26 -77z m192 -45 c3 -24 5 -182 3 -353 l-2
-310 -24 -3 c-16 -3 -32 6 -55 30 -17 19 -40 39 -51 46 -19 10 -20 23 -23 260
-2 204 0 252 11 264 9 8 12 26 9 46 -8 54 1 62 67 62 l59 0 6 -42z m1592
-1125 l-1 -88 -95 -3 c-52 -2 -110 0 -128 3 l-33 6 3 72 c3 64 5 72 23 73 94
7 93 7 40 14 -37 5 -20 7 71 8 l122 2 -2 -87z m215 75 c2 -7 3 -84 1 -170 l-3
-158 -77 0 c-130 0 -122 -10 -122 151 0 83 5 148 12 164 11 24 15 25 99 25 61
0 88 -4 90 -12z m-223 -323 c2 -2 0 -79 -5 -172 l-8 -168 -124 -3 c-68 -1
-128 1 -133 6 -5 5 -6 81 -2 175 l7 166 36 4 c36 5 223 -2 229 -8z m190 -173
c21 -2 22 -7 22 -71 0 -103 2 -101 -101 -101 -88 0 -90 0 -100 28 -7 17 -7 47
-2 82 7 46 12 55 33 60 22 6 82 7 148 2z m4559 -696 c15 -11 23 -310 26 -874
3 -680 3 -683 -18 -688 -11 -2 -103 -3 -205 -2 l-185 3 1 270 c0 149 6 320 13
380 8 71 9 124 4 150 -5 22 -7 51 -3 64 6 26 11 29 77 58 50 21 54 31 13 40
-16 3 -30 9 -30 14 0 5 -6 9 -14 9 -32 0 -65 107 -37 124 17 11 21 70 9 128
-10 50 -10 64 5 105 13 37 15 56 7 83 -5 19 -10 53 -10 75 0 35 5 42 33 57 27
14 53 16 172 11 77 -3 141 -6 142 -7z m-5191 -34 c16 -10 23 -71 10 -80 -6 -3
-29 -9 -51 -13 l-40 -6 35 -2 c45 -2 65 -14 56 -36 -5 -15 -16 -16 -84 -11
-54 5 -73 4 -62 -3 10 -8 -183 -11 -627 -11 l-643 0 0 80 0 80 543 3 c298 1
612 3 697 4 85 2 160 -1 166 -5z m848 -165 c8 -32 9 -494 1 -507 -7 -11 -151
-12 -200 -1 -23 5 -33 14 -42 43 -18 55 -27 156 -26 307 0 134 1 135 27 158
25 21 37 23 130 23 100 0 104 -1 110 -23z m-813 -229 c3 -120 -1 -142 -31
-170 -30 -28 -25 -44 10 -33 11 4 20 3 21 -2 0 -4 2 -28 5 -53 2 -25 6 -208
10 -407 5 -329 5 -363 -10 -363 -9 0 -16 -4 -16 -10 0 -5 7 -10 15 -10 16 0
20 -12 8 -24 -13 -12 -13 -46 0 -47 6 0 3 -4 -9 -9 -11 -4 -341 -8 -732 -8
l-712 0 0 37 0 38 193 6 c105 4 230 4 277 0 120 -9 369 -8 543 3 l148 9 -1
326 c0 190 4 337 9 352 9 23 17 26 81 33 39 3 72 9 74 13 10 15 14 111 6 111
-6 0 -10 -11 -10 -25 0 -24 -2 -25 -75 -25 l-75 0 0 145 0 145 85 0 c50 0 85
4 85 10 0 6 23 10 50 10 l50 0 1 -52z m-483 -360 c1 -35 -2 -77 -7 -95 -7 -22
-6 -33 2 -37 7 -2 0 -5 -15 -5 -47 -2 -68 26 -68 89 0 82 7 98 44 103 17 2 33
5 36 5 3 1 7 -26 8 -60z m621 -125 c9 -17 10 -17 28 0 23 20 30 21 48 4 27
-27 31 -245 6 -286 -8 -12 -16 -12 -53 -1 -69 21 -80 43 -79 165 1 57 4 111 7
119 8 21 31 20 43 -1z m3672 -20 c0 -5 2 -61 4 -127 l3 -119 -59 6 c-58 5 -97
27 -84 47 4 6 23 18 43 28 20 9 38 25 40 34 2 9 -13 34 -32 56 -20 22 -36 44
-36 50 0 21 119 45 121 25z m-2979 -258 c4 -22 7 -115 7 -208 l1 -168 -152 3
-153 3 0 170 c0 177 10 229 43 238 10 3 69 4 132 3 l115 -1 7 -40z m2988 -268
c0 -43 5 -78 12 -85 9 -9 -6 -12 -68 -12 l-79 0 5 63 c8 92 20 107 80 107 l50
0 0 -73z"/>
<path d="M6613 9773 c-20 -4 -23 -11 -23 -51 l0 -47 85 0 85 0 0 46 c0 40 -3
48 -22 53 -25 6 -90 6 -125 -1z"/>
<path d="M3302 6613 c-9 -16 -81 -259 -95 -320 -3 -13 -1 -23 3 -23 10 0 37
71 71 187 13 46 27 83 30 83 3 0 9 -23 12 -50 9 -76 26 -104 64 -108 30 -3 35
2 79 67 26 39 48 71 49 71 1 0 0 -58 -3 -130 -4 -110 -2 -130 10 -130 12 0 16
25 22 127 3 69 9 137 12 150 4 16 1 25 -11 30 -20 7 -66 -38 -122 -120 -18
-26 -37 -47 -42 -47 -17 0 -34 72 -35 149 -1 62 -5 76 -18 79 -9 2 -21 -5 -26
-15z"/>
<path d="M4152 6378 l3 -93 50 4 c28 1 56 8 63 13 17 14 15 63 -3 78 -9 8 -13
21 -9 32 9 31 -23 58 -68 58 l-39 0 3 -92z"/>
<path d="M4312 6378 c2 -62 7 -93 16 -96 8 -2 12 9 12 37 0 40 1 41 35 41 33
0 35 -2 35 -34 0 -31 19 -53 34 -39 3 4 6 46 6 95 0 81 -2 88 -20 88 -16 0
-20 -7 -20 -35 0 -33 -2 -35 -35 -35 -33 0 -35 2 -35 35 0 25 -4 35 -15 35
-13 0 -15 -15 -13 -92z"/>
<path d="M4810 6381 c0 -70 3 -90 15 -95 12 -4 15 3 15 34 0 39 1 40 35 40 33
0 35 -2 35 -35 0 -28 4 -35 20 -35 19 0 20 7 20 90 0 83 -1 90 -20 90 -16 0
-20 -7 -20 -35 0 -33 -2 -35 -35 -35 -33 0 -35 2 -35 35 0 24 -5 35 -15 35
-12 0 -15 -17 -15 -89z"/>
<path d="M3611 6374 c-33 -28 -40 -64 -17 -83 9 -7 51 -11 115 -10 l101 2 0
29 c0 16 5 38 11 49 10 19 11 19 42 -7 27 -22 37 -25 74 -20 37 5 43 3 43 -12
0 -17 18 -42 30 -42 3 0 6 25 7 55 1 58 -12 72 -34 36 -14 -22 -61 -33 -85
-20 -9 5 -19 18 -23 29 -5 16 -14 19 -50 18 l-44 -2 -3 -46 -3 -45 -68 -9
c-57 -7 -71 -6 -84 7 -20 20 -10 47 17 47 30 0 60 18 60 35 0 25 -55 18 -89
-11z"/>
<path d="M3504 6154 c-26 -69 -55 -124 -72 -133 -12 -6 -41 -11 -66 -11 -42 0
-59 -11 -38 -24 5 -3 7 -30 4 -60 -4 -48 -2 -55 18 -66 28 -15 50 3 95 85 34
59 36 60 92 72 l58 12 -52 -5 c-30 -3 -53 -1 -53 5 0 5 10 35 22 66 16 41 18
59 10 67 -8 8 -13 6 -18 -8z"/>
</g>
</svg>
