<?xml version="1.0" standalone="no"?>
<!DOCTYPE svg PUBLIC "-//W3C//DTD SVG 20010904//EN"
 "http://www.w3.org/TR/2001/REC-SVG-20010904/DTD/svg10.dtd">
<svg version="1.0" xmlns="http://www.w3.org/2000/svg"
 width="720.000000pt" height="1280.000000pt" viewBox="0 0 720.000000 1280.000000"
 preserveAspectRatio="xMidYMid meet">
<metadata>
Created by potrace 1.16, written by Peter Selinger 2001-2019
</metadata>
<g transform="translate(0.000000,1280.000000) scale(0.100000,-0.100000)"
fill="#000000" stroke="none">
<path d="M0 6400 l0 -6400 3600 0 3600 0 0 1025 0 1025 -3590 0 -3590 0 2
1258 c3 1020 5 1257 16 1254 24 -5 52 18 52 44 0 19 -8 28 -35 40 l-35 14 0
157 0 156 118 -6 c64 -4 198 -13 297 -22 242 -20 275 -20 275 2 0 10 9 53 19
98 47 193 62 262 60 271 -1 5 1 17 6 27 4 10 5 40 3 67 -4 41 -2 49 14 53 10
3 18 9 16 14 -1 4 4 31 11 60 14 56 10 73 -17 73 -29 1 -153 48 -173 66 -10 9
-19 23 -19 31 0 15 -26 59 -48 82 -7 7 -11 15 -9 18 3 2 79 4 170 4 l165 0 4
27 c3 15 13 64 23 110 l17 83 -26 24 c-16 15 -21 25 -13 28 23 8 -118 19 -208
15 -86 -3 -91 -4 -107 -30 l-18 -28 -41 17 c-35 14 -49 14 -86 5 -75 -21 -125
-14 -102 14 7 9 5 14 -9 19 -24 7 -39 55 -21 65 6 4 8 13 5 19 -4 6 4 21 17
34 22 20 24 25 11 42 -8 10 -14 40 -14 66 0 47 -31 137 -52 150 -5 3 -9 22 -8
40 9 135 5 186 -21 235 -42 82 -131 108 -202 59 l-37 -24 1 654 c0 620 1 655
18 655 10 0 141 -18 292 -40 151 -23 443 -66 649 -96 206 -30 389 -57 406 -60
39 -7 55 12 17 20 -16 3 -134 22 -263 41 -129 18 -422 61 -650 95 -228 33
-427 63 -443 66 l-27 6 2 561 3 562 3588 3 3587 2 0 1775 0 1775 -3600 0
-3600 0 0 -6400z m6796 3680 c151 -69 198 -267 95 -405 -25 -34 -27 -41 -14
-50 14 -10 14 -14 -2 -38 -22 -35 -90 -46 -136 -23 -33 16 -80 14 -147 -6 -47
-14 -99 -2 -118 28 -13 20 -14 27 -4 39 11 13 9 19 -8 38 -85 90 -82 268 6
360 77 81 220 106 328 57z m-653 4 c29 -10 64 -34 92 -62 124 -125 89 -333
-68 -412 -133 -66 -310 -20 -370 96 -47 91 -44 191 7 276 25 43 43 59 94 85
54 28 75 33 131 33 37 0 88 -7 114 -16z m-5802 -244 c21 -91 39 -168 39 -172
0 -5 -15 -8 -33 -8 -28 0 -34 4 -42 32 -9 29 -14 32 -50 31 -36 0 -40 -3 -47
-31 -8 -28 -13 -32 -42 -32 l-34 0 14 58 c7 31 26 110 41 175 l27 118 44 -3
45 -3 38 -165z m369 78 l1 -93 30 38 c23 27 39 37 60 37 16 0 29 -3 29 -6 0
-4 -16 -28 -35 -53 -30 -41 -33 -50 -21 -67 7 -10 25 -40 40 -66 l27 -48 -35
0 c-30 0 -38 5 -57 40 -26 45 -39 43 -39 -6 0 -31 -2 -34 -30 -34 l-30 0 0
175 0 175 30 0 30 0 0 -92z m1740 -83 l0 -176 -42 1 c-24 1 -55 -1 -69 -5 -19
-5 -33 -1 -55 18 -28 24 -29 29 -28 107 1 68 4 85 21 102 22 21 54 27 91 14
21 -7 22 -5 22 53 l0 61 30 0 30 0 0 -175z m452 83 l3 -92 25 37 c20 30 31 37
58 37 30 0 42 -12 24 -24 -5 -3 -21 -23 -36 -44 l-27 -40 40 -66 41 -66 -34 0
c-28 0 -38 7 -62 43 l-29 42 -3 -42 c-3 -42 -4 -43 -38 -43 l-34 0 0 175 0
175 35 0 34 0 3 -92z m728 27 l0 -66 30 16 c33 17 60 13 85 -11 11 -12 15 -40
15 -120 l0 -104 -30 0 -30 0 0 90 c0 75 -3 92 -16 97 -37 14 -49 -10 -52 -101
l-3 -86 -29 0 -30 0 0 175 0 175 30 0 30 0 0 -65z m530 4 c0 -58 1 -60 23 -53
76 26 107 -8 107 -118 0 -71 -2 -81 -26 -105 -20 -20 -31 -24 -52 -18 -15 4
-46 6 -69 5 l-43 -1 0 176 0 175 30 0 30 0 0 -61z m-1480 -9 c0 -38 2 -40 30
-40 25 0 30 -4 30 -25 0 -21 -5 -25 -30 -25 l-31 0 3 -67 c3 -66 4 -68 31 -71
21 -3 27 -8 23 -19 -3 -8 -6 -19 -6 -24 0 -16 -73 -10 -92 8 -14 13 -18 31
-18 90 0 66 -2 75 -20 80 -13 3 -20 14 -20 29 0 17 6 24 20 24 16 0 20 7 20
33 0 40 6 47 37 47 20 0 23 -5 23 -40z m-2096 -61 c24 -23 34 -121 17 -172
-15 -44 -59 -66 -97 -48 -14 6 -27 11 -29 11 -3 0 -5 -30 -5 -66 l0 -65 -27 3
-28 3 -3 179 -2 179 37 -5 c21 -3 47 -2 58 3 26 10 55 2 79 -22z m405 20 c44
-16 51 -35 51 -143 l0 -96 -47 -1 c-27 0 -60 -1 -75 -1 -40 -1 -58 19 -58 63
0 43 20 63 83 80 28 7 37 15 35 27 -5 26 -48 28 -55 3 -4 -14 -13 -21 -29 -21
-65 0 -15 96 52 99 6 1 25 -4 43 -10z m290 0 c38 -14 51 -35 51 -88 l0 -41
-61 0 c-60 0 -60 0 -57 -27 3 -32 44 -46 54 -19 4 10 18 16 35 16 35 0 39 -25
10 -61 -15 -19 -29 -24 -66 -24 -39 0 -51 5 -71 28 -20 24 -24 39 -24 96 0 75
21 116 63 124 12 2 25 5 28 6 3 0 20 -4 38 -10z m198 0 c32 -12 43 -26 43 -56
0 -31 -45 -33 -53 -3 -7 26 -47 27 -47 1 0 -11 12 -23 30 -31 78 -32 101 -82
61 -131 -15 -19 -29 -24 -66 -24 -37 0 -51 5 -66 24 -29 36 -25 61 11 61 24 0
30 -4 30 -21 0 -15 5 -20 22 -17 40 5 31 32 -19 58 -91 48 -80 135 19 149 4 1
19 -4 35 -10z m191 0 c29 -10 59 -59 45 -73 -15 -15 -51 -5 -56 15 -4 13 -12
20 -24 17 -29 -5 -21 -32 15 -50 73 -36 92 -81 53 -129 -15 -19 -29 -24 -66
-24 -37 0 -51 5 -66 24 -29 36 -25 61 10 61 21 0 30 -6 34 -21 7 -25 40 -22
45 3 2 12 -11 24 -43 39 -74 35 -86 106 -22 134 39 17 37 17 75 4z m211 0 c17
-6 36 -19 41 -29 6 -10 10 -62 10 -115 l0 -97 -32 3 c-18 1 -48 -1 -66 -5 -50
-12 -82 13 -82 64 0 44 20 64 83 81 28 7 37 15 35 27 -5 25 -45 27 -58 3 -13
-24 -48 -28 -56 -6 -8 20 21 64 49 75 30 12 39 12 76 -1z m318 -21 c17 -16 23
-33 23 -65 l0 -43 -61 0 c-60 0 -60 0 -57 -27 3 -32 44 -46 54 -19 8 20 64 22
64 2 0 -69 -102 -98 -158 -45 -19 17 -22 31 -22 98 0 68 3 80 23 98 12 11 29
23 37 26 25 10 73 -2 97 -25z m1001 -4 c18 -21 22 -36 22 -98 0 -65 -3 -75
-26 -97 -35 -33 -104 -34 -136 -2 -27 28 -37 127 -17 174 24 60 111 73 157 23z
m240 8 c8 -10 12 -52 12 -119 l0 -103 -30 0 -30 0 0 90 c0 75 -3 92 -17 97
-32 12 -53 -32 -53 -113 l0 -74 -30 0 -30 0 0 120 0 120 29 0 c16 0 31 -5 33
-11 2 -6 14 -5 33 5 33 17 63 13 83 -12z m529 -4 c17 -16 23 -33 23 -65 l0
-43 -61 0 c-60 0 -60 0 -57 -27 3 -32 44 -46 54 -19 4 10 18 16 35 16 22 0 29
-5 29 -20 0 -42 -64 -79 -115 -66 -52 13 -65 39 -65 124 0 69 3 81 23 99 12
11 29 23 37 26 25 10 73 -2 97 -25z m540 8 c6 -6 13 -57 16 -118 l5 -108 -34
0 -34 0 0 90 c0 72 -3 92 -15 96 -33 13 -45 -15 -45 -102 l0 -84 -35 0 -35 0
0 120 0 120 35 0 c19 0 35 -4 35 -9 0 -6 12 -3 28 4 28 15 58 12 79 -9z m218
-7 c17 -16 21 -35 23 -120 l4 -100 -44 1 c-23 1 -54 -1 -68 -5 -35 -9 -80 27
-80 64 0 39 19 60 70 75 33 10 46 19 48 35 4 28 -33 29 -50 1 -12 -19 -48 -27
-60 -14 -15 14 11 60 43 77 40 20 84 15 114 -14z m400 16 c37 -15 55 -46 55
-96 0 -29 0 -29 -59 -29 -65 0 -73 -5 -64 -38 6 -26 53 -32 53 -7 0 11 11 15
36 15 32 0 35 -2 29 -22 -4 -13 -18 -34 -33 -47 -21 -19 -33 -22 -65 -18 -59
8 -80 35 -85 107 -5 75 11 118 52 136 39 17 40 17 81 -1z m198 1 c15 -8 27
-11 27 -5 0 5 14 9 31 9 l30 0 -3 -154 c-3 -134 -5 -157 -22 -175 -42 -46
-144 -35 -166 19 -7 16 -9 34 -5 39 10 18 44 12 57 -9 27 -42 78 -15 78 41 0
18 -3 20 -12 11 -7 -7 -29 -12 -49 -12 -56 0 -79 34 -79 116 0 72 13 107 44
122 29 14 37 14 69 -2z m285 -22 c19 -22 22 -36 22 -120 l0 -95 -42 1 c-24 1
-55 -1 -70 -5 -21 -6 -32 -2 -52 18 -48 48 -29 99 44 121 33 10 46 19 48 35 4
28 -33 29 -50 1 -12 -19 -48 -27 -60 -14 -15 14 11 60 43 77 43 22 86 16 117
-19z m-3048 -94 l0 -120 -35 0 -35 0 0 113 c0 63 3 117 7 120 3 4 19 7 35 7
l28 0 0 -120z m2271 103 c0 -10 8 -43 18 -73 l17 -55 19 73 c18 70 20 72 51
72 l32 0 -24 -82 c-79 -281 -76 -273 -113 -276 -28 -3 -33 -1 -27 14 29 76 29
101 -4 209 -17 59 -34 113 -37 121 -4 10 4 14 31 14 27 0 36 -4 37 -17z
m-4681 -3764 c19 -16 59 -48 88 -70 28 -22 52 -46 52 -54 0 -8 7 -15 15 -15 8
0 15 4 15 9 0 5 16 12 37 16 31 6 40 3 65 -23 16 -16 33 -46 38 -67 9 -40 4
-68 -11 -59 -5 3 -7 9 -4 14 3 5 1 11 -5 15 -5 3 -10 -1 -10 -9 0 -8 -5 -18
-11 -22 -9 -5 -10 1 -5 20 5 22 3 26 -14 26 -12 0 -26 12 -35 30 -9 17 -20 30
-25 30 -6 0 -10 -13 -10 -30 0 -34 -19 -41 -27 -10 -3 11 -12 20 -19 20 -8 0
-14 7 -14 15 0 8 -3 15 -7 15 -7 0 -79 63 -145 128 -54 53 -26 71 32 21z"/>
<path d="M6613 9773 c-20 -4 -23 -11 -23 -51 l0 -47 85 0 85 0 0 46 c0 40 -3
48 -22 53 -25 6 -90 6 -125 -1z"/>
<path d="M1681 6452 c-6 -2 -24 -23 -38 -45 -20 -32 -28 -61 -34 -126 -4 -49
-13 -87 -20 -92 -10 -6 -10 -13 -1 -34 18 -40 15 -65 -8 -65 -19 0 -19 -1 -3
-35 9 -19 20 -35 25 -35 4 0 8 -18 8 -40 0 -22 4 -40 9 -40 5 0 12 -9 16 -19
3 -11 19 -24 35 -30 23 -8 30 -16 30 -36 l0 -26 -76 5 c-42 3 -88 9 -102 12
l-27 6 25 -21 c14 -11 34 -21 45 -21 18 0 18 -1 -3 -16 -12 -8 -22 -21 -22
-29 0 -27 -43 -45 -105 -45 -48 0 -74 -7 -130 -34 -62 -30 -67 -34 -45 -40 52
-12 206 -36 236 -36 41 0 43 -4 30 -50 l-10 -40 -98 0 c-54 0 -97 -3 -97 -7 3
-20 -2 -34 -11 -28 -5 3 -12 -6 -16 -20 -7 -29 12 -75 32 -75 18 0 26 -30 9
-36 -8 -4 -15 -17 -15 -30 0 -19 7 -24 38 -29 20 -4 48 -12 60 -18 23 -11 58
-64 54 -79 -1 -5 5 -8 14 -8 10 0 14 -5 10 -15 -3 -9 1 -18 9 -21 16 -7 21
-34 6 -34 -5 0 -23 8 -40 17 -25 15 -32 16 -43 5 -11 -11 -9 -16 8 -30 12 -9
25 -27 29 -39 3 -13 12 -23 19 -23 13 0 10 -56 -4 -65 -14 -8 -130 116 -130
139 0 41 -77 -3 -79 -45 -1 -13 -4 -63 -7 -110 l-5 -86 60 -13 c33 -7 87 -11
120 -8 33 2 62 1 63 -3 3 -8 146 -26 273 -35 39 -2 103 -9 143 -14 94 -13 92
-13 92 5 0 8 5 15 11 15 6 0 9 -6 6 -14 -6 -16 51 -29 213 -46 58 -7 132 -16
165 -21 69 -10 213 -11 235 -1 16 7 19 17 27 72 4 26 -1 41 -17 58 -22 23 -19
42 6 42 8 0 14 -7 14 -15 0 -8 5 -15 10 -15 19 0 10 24 -17 47 -27 22 -27 23
-9 38 16 12 18 24 14 78 -5 55 -3 65 13 75 23 14 24 35 5 55 -8 7 -21 33 -28
56 -9 25 -25 48 -38 54 -12 7 -22 16 -20 21 1 5 -5 13 -14 18 -10 5 -16 22
-16 42 0 21 -8 40 -21 52 -11 10 -25 27 -31 38 -10 18 -7 18 35 14 l45 -5 -28
59 c-37 79 -62 111 -72 95 -12 -19 -9 -65 5 -70 7 -3 5 -6 -5 -6 -10 -1 -18
-7 -18 -13 -1 -32 -30 30 -30 64 0 27 -4 38 -15 38 -8 0 -15 8 -15 19 0 26
-51 47 -79 31 -12 -6 -21 -15 -21 -20 0 -20 -28 -9 -34 13 -3 13 -26 34 -56
52 l-50 29 -1 61 c-1 33 -1 96 1 141 3 139 -29 178 -159 193 l-54 6 -16 50
c-21 63 -54 117 -90 148 -16 13 -31 33 -35 44 -11 34 -97 61 -145 45z m223
-178 c22 -21 20 -72 -5 -118 -14 -27 -17 -42 -10 -49 6 -6 11 -51 11 -103 0
-99 -10 -117 -50 -91 -21 12 -26 33 -11 39 5 2 12 35 16 73 l7 70 -46 32 c-25
18 -46 38 -46 44 0 8 6 7 18 -3 9 -9 31 -18 47 -22 27 -5 32 -2 46 29 12 26
13 33 3 24 -10 -9 -20 -4 -44 19 -36 37 -42 69 -9 51 17 -9 25 -8 37 5 20 19
17 19 36 0z m120 -590 c40 -40 18 -47 -149 -46 -120 1 -145 -2 -162 -16 -10
-9 -32 -24 -48 -34 -25 -13 -33 -14 -48 -4 -27 20 -21 31 36 59 44 23 66 27
142 28 50 0 110 6 135 13 62 18 76 18 94 0z"/>
</g>
</svg>
