<?xml version="1.0" standalone="no"?>
<!DOCTYPE svg PUBLIC "-//W3C//DTD SVG 20010904//EN"
 "http://www.w3.org/TR/2001/REC-SVG-20010904/DTD/svg10.dtd">
<svg version="1.0" xmlns="http://www.w3.org/2000/svg"
 width="720.000000pt" height="1280.000000pt" viewBox="0 0 720.000000 1280.000000"
 preserveAspectRatio="xMidYMid meet">
<metadata>
Created by potrace 1.16, written by Peter Selinger 2001-2019
</metadata>
<g transform="translate(0.000000,1280.000000) scale(0.100000,-0.100000)"
fill="#000000" stroke="none">
<path d="M0 6400 l0 -6400 3600 0 3600 0 0 1025 0 1025 -225 0 -225 0 -2 23
c-1 12 -2 85 -3 162 -1 176 -6 195 -51 195 -24 0 -38 -7 -49 -24 -9 -13 -24
-26 -33 -28 -30 -8 -62 10 -63 34 0 23 0 23 -12 -2 -6 -14 -15 -27 -19 -30
-14 -10 -20 -198 -8 -234 11 -35 2 -69 -25 -88 -5 -4 -668 -8 -1473 -8 l-1462
0 15 36 c13 32 14 70 5 288 -11 254 -24 492 -36 646 -7 89 7 210 63 535 28
165 27 243 -2 275 -28 31 -140 80 -240 105 l-90 23 -22 63 c-12 35 -34 105
-48 154 -50 173 -148 460 -172 505 l-24 45 6 -35 c4 -19 10 -44 15 -55 13 -30
50 -312 50 -379 0 -43 4 -62 17 -71 11 -8 20 -42 29 -115 8 -56 11 -107 8
-112 -3 -5 -14 -6 -25 -3 -18 6 -19 0 -19 -142 0 -170 -13 -346 -36 -483 -71
-433 -130 -631 -223 -746 -71 -88 -278 -253 -401 -320 -19 -10 -40 -24 -47
-31 -21 -19 -195 -120 -246 -143 -70 -31 -141 -36 -246 -15 -89 17 -90 17
-124 -4 -30 -18 -48 -21 -151 -20 -81 1 -116 5 -113 13 3 6 10 10 16 8 6 -1
11 2 11 8 0 16 -15 12 -35 -10 -18 -20 -31 -20 -712 -20 -381 0 -693 3 -693 7
0 22 37 84 54 90 12 4 76 7 144 6 l122 -1 0 54 c0 39 -4 54 -14 54 -10 0 -12
-12 -8 -47 l4 -48 -133 0 c-108 0 -140 -4 -166 -18 -38 -20 -68 -23 -56 -4 10
16 10 137 0 130 -4 -2 -7 858 -7 1913 0 1814 1 1918 18 1930 16 13 16 13 0 14
-17 0 -18 81 -18 1560 l0 1560 2600 0 2600 0 0 -20 c0 -31 47 -118 71 -130 17
-9 23 -8 35 7 20 26 17 44 -10 72 -13 15 -26 35 -28 46 -3 20 3 20 955 23
l957 2 0 1775 0 1775 -3600 0 -3600 0 0 -6400z m6795 3679 c153 -68 200 -265
96 -404 -25 -34 -27 -41 -14 -50 23 -17 -3 -53 -49 -67 -30 -9 -45 -8 -80 5
-34 13 -55 15 -98 8 -30 -5 -63 -13 -73 -16 -53 -21 -137 34 -107 70 11 13 9
19 -8 38 -85 90 -82 268 6 360 77 82 216 105 327 56z m-652 5 c52 -18 116 -76
143 -132 28 -55 26 -174 -4 -229 -50 -95 -136 -143 -256 -143 -209 0 -331 220
-222 402 25 42 43 59 94 85 54 28 75 33 131 33 37 0 88 -7 114 -16z m-5834
-111 c15 -56 71 -300 71 -307 0 -3 -15 -6 -33 -6 -28 0 -34 4 -42 33 -9 29
-14 32 -49 32 -36 0 -40 -3 -48 -32 -8 -29 -13 -33 -42 -33 l-34 0 14 58 c7
31 26 110 41 175 l27 117 43 0 c40 0 43 -2 52 -37z m401 -55 l1 -93 30 38 c23
27 39 37 60 37 16 0 29 -3 29 -6 0 -4 -16 -28 -35 -53 -30 -41 -33 -50 -21
-67 7 -10 25 -40 40 -66 l27 -48 -35 0 c-30 0 -38 5 -57 40 -13 22 -26 40 -31
40 -4 0 -8 -18 -8 -40 0 -38 -2 -40 -30 -40 l-30 0 0 175 0 175 30 0 30 0 0
-92z m1740 -83 l0 -176 -42 1 c-24 1 -55 -1 -69 -5 -19 -5 -33 -1 -55 18 -28
24 -29 29 -29 106 1 69 4 85 22 102 22 22 54 28 91 15 21 -7 22 -5 22 53 l0
61 30 0 30 0 0 -175z m452 83 l3 -92 25 37 c20 30 31 37 58 37 30 0 42 -12 24
-24 -5 -3 -21 -23 -36 -44 l-27 -40 40 -66 41 -66 -35 0 c-30 0 -38 5 -57 40
-13 22 -26 40 -30 40 -5 0 -8 -18 -8 -40 0 -39 -1 -40 -35 -40 l-35 0 0 168
c0 93 3 172 7 175 3 4 19 7 34 7 l28 0 3 -92z m728 28 l0 -65 35 15 c28 11 40
12 58 3 34 -18 37 -27 37 -136 l0 -103 -30 0 -30 0 0 90 c0 75 -3 92 -16 97
-37 14 -49 -10 -52 -101 l-3 -86 -29 0 -30 0 0 175 0 175 30 0 30 0 0 -64z
m530 3 c0 -58 1 -60 23 -53 76 26 107 -8 107 -118 0 -71 -2 -81 -26 -105 -21
-21 -31 -24 -57 -18 -18 4 -49 6 -69 6 l-38 -2 0 176 0 175 30 0 30 0 0 -61z
m-1482 -11 c3 -35 6 -38 33 -38 24 0 29 -4 29 -25 0 -21 -5 -25 -30 -25 l-31
0 3 -67 c3 -66 4 -68 31 -71 21 -3 27 -8 23 -19 -3 -8 -6 -19 -6 -24 0 -16
-73 -10 -92 8 -14 13 -18 31 -18 90 0 66 -2 75 -20 80 -13 3 -20 14 -20 29 0
17 6 24 20 24 17 0 20 7 20 41 0 38 1 40 28 37 23 -3 27 -8 30 -40z m-2094
-58 c24 -24 34 -122 17 -173 -15 -44 -59 -66 -97 -48 -14 6 -27 11 -29 11 -3
0 -5 -29 -5 -65 l0 -65 -30 0 -30 0 0 181 0 182 39 -6 c21 -2 45 -1 52 4 19
12 60 2 83 -21z m402 20 c8 0 23 -9 34 -20 17 -17 20 -33 20 -121 l0 -101 -32
3 c-18 1 -48 -1 -66 -5 -50 -12 -82 13 -82 64 0 44 20 64 83 81 28 7 37 15 35
27 -5 25 -45 27 -58 3 -13 -25 -48 -28 -57 -5 -13 34 56 90 95 78 8 -2 20 -4
28 -4z m293 -1 c38 -14 51 -35 51 -88 l0 -41 -61 0 c-60 0 -60 0 -57 -27 3
-32 44 -46 54 -19 4 10 18 16 35 16 35 0 39 -25 10 -61 -27 -34 -99 -34 -135
0 -23 22 -26 32 -26 96 0 79 20 120 63 128 12 2 25 5 28 6 3 0 20 -4 38 -10z
m199 0 c29 -10 59 -59 45 -73 -15 -15 -51 -5 -56 15 -4 13 -12 20 -24 17 -31
-6 -27 -34 7 -48 78 -32 101 -82 61 -131 -15 -19 -29 -24 -66 -24 -37 0 -51 5
-66 24 -29 36 -25 61 11 61 24 0 30 -4 30 -21 0 -15 5 -20 22 -17 42 6 33 36
-16 58 -54 23 -75 57 -60 98 9 25 45 52 70 52 6 0 25 -5 42 -11z m219 -13 c6
-6 13 -22 15 -36 2 -21 -2 -26 -23 -28 -20 -2 -28 2 -32 18 -4 14 -12 21 -24
18 -29 -5 -21 -32 15 -50 73 -36 92 -81 53 -129 -15 -19 -29 -24 -66 -24 -37
0 -51 5 -66 24 -29 36 -25 61 10 61 21 0 30 -6 34 -21 7 -25 40 -22 45 4 3 12
-9 23 -42 37 -51 21 -70 54 -60 97 12 45 104 65 141 29z m182 13 c17 -6 36
-19 41 -29 6 -10 10 -62 10 -116 l0 -97 -40 6 c-22 3 -43 1 -46 -4 -8 -14 -47
-11 -72 7 -16 11 -22 25 -22 54 0 44 20 64 83 81 28 7 37 15 35 27 -5 25 -45
27 -58 3 -13 -25 -48 -28 -57 -5 -8 23 16 62 46 73 35 13 43 13 80 0z m319
-22 c16 -15 22 -32 22 -64 l0 -43 -61 0 c-60 0 -60 0 -57 -27 3 -32 44 -46 54
-19 8 20 64 22 64 2 0 -69 -102 -98 -158 -45 -19 17 -22 31 -22 98 0 68 3 80
23 98 12 11 29 23 37 26 25 9 73 -4 98 -26z m1000 -3 c19 -21 22 -36 22 -99 0
-70 -1 -74 -32 -100 -27 -23 -39 -26 -71 -22 -59 8 -80 35 -85 107 -3 36 1 72
9 91 24 60 111 73 157 23z m240 9 c8 -11 12 -53 12 -120 l0 -103 -30 0 -30 0
0 90 c0 75 -3 92 -17 97 -32 12 -53 -32 -53 -113 l0 -74 -30 0 -30 0 0 120 0
120 29 0 c16 0 31 -5 33 -12 3 -8 11 -7 29 5 27 20 67 15 87 -10z m530 -9 c15
-17 22 -38 22 -65 l0 -39 -61 0 c-60 0 -60 0 -57 -27 3 -32 44 -46 54 -19 4
10 18 16 35 16 35 0 40 -29 9 -60 -27 -27 -63 -34 -105 -20 -46 15 -55 34 -55
123 0 64 3 76 23 94 12 11 29 23 37 26 28 11 75 -3 98 -29z m542 10 c11 -11
15 -39 15 -117 l0 -102 -32 -3 -33 -3 0 91 c0 72 -3 92 -15 96 -33 13 -45 -15
-45 -102 l0 -84 -35 0 -35 0 0 120 0 120 35 0 c19 0 35 -4 35 -9 0 -6 12 -3
28 4 29 16 58 12 82 -11z m215 -5 c17 -16 21 -36 23 -120 l4 -100 -44 1 c-23
1 -54 -1 -68 -5 -34 -9 -80 27 -80 61 0 42 17 62 70 79 37 12 50 22 50 36 0
26 -36 25 -52 -1 -12 -19 -48 -27 -61 -14 -3 3 -1 19 5 36 20 56 108 72 153
27z m394 20 c36 -13 61 -53 61 -99 l0 -30 -59 0 c-63 0 -76 -8 -66 -40 8 -24
55 -28 55 -5 0 11 11 15 36 15 32 0 35 -2 29 -22 -4 -13 -18 -34 -33 -47 -21
-19 -33 -22 -65 -18 -60 8 -80 35 -85 109 -5 79 9 115 50 133 41 17 38 17 77
4z m204 -3 c15 -8 27 -11 27 -5 0 5 14 9 31 9 l30 0 -3 -154 c-3 -134 -5 -157
-22 -175 -42 -46 -144 -35 -166 19 -7 16 -9 34 -5 39 10 18 44 12 57 -9 27
-42 78 -15 78 41 0 18 -3 20 -12 11 -7 -7 -29 -12 -49 -12 -56 0 -79 34 -79
116 0 72 13 107 44 122 29 14 37 14 69 -2z m285 -22 c19 -22 22 -36 22 -120
l0 -95 -42 1 c-24 1 -54 -1 -68 -5 -36 -9 -80 27 -80 65 0 27 32 70 52 70 5 0
24 7 43 14 25 11 33 19 29 30 -9 22 -41 20 -56 -4 -18 -29 -58 -27 -58 3 0 73
105 101 158 41z m-3048 -94 l0 -120 -35 0 -35 0 0 113 c0 63 3 117 7 120 3 4
19 7 35 7 l28 0 0 -120z m2280 63 c19 -90 25 -92 45 -14 18 68 20 71 48 71 28
0 29 -2 23 -33 -3 -19 -25 -99 -49 -178 l-42 -144 -34 -3 c-28 -3 -33 -1 -27
14 28 74 28 99 -3 207 -18 59 -34 113 -37 122 -5 12 2 15 28 15 34 0 35 -1 48
-57z"/>
<path d="M6613 9773 c-20 -4 -23 -11 -23 -51 l0 -47 85 0 85 0 0 46 c0 40 -3
48 -22 53 -25 6 -90 6 -125 -1z"/>
<path d="M6291 8803 c-12 -16 -24 -32 -29 -38 -12 -16 -42 -82 -42 -94 0 -15
-37 -49 -100 -89 -91 -59 -155 -126 -158 -164 -2 -18 -10 -43 -20 -57 -66 -94
-78 -141 -49 -196 11 -22 22 -45 23 -51 3 -20 38 -54 56 -54 19 0 31 16 33 43
3 39 71 51 104 18 28 -28 53 -80 45 -92 -4 -7 1 -9 14 -5 26 9 100 -21 106
-42 3 -10 8 -34 12 -54 3 -21 11 -39 18 -39 28 -3 53 4 72 22 21 20 79 26 89
9 3 -5 19 -10 35 -10 55 0 78 69 40 117 -29 38 -25 72 15 116 20 20 41 37 49
37 15 0 69 50 61 58 -2 3 -26 5 -52 6 -26 1 -65 8 -85 16 -31 11 -38 19 -38
41 0 43 14 71 56 112 34 33 37 40 26 57 -6 11 -12 33 -12 49 0 17 -5 33 -11
36 -6 5 -8 37 -5 92 l5 84 -32 20 c-18 10 -45 19 -60 19 -18 0 -39 11 -59 30
-39 39 -79 40 -107 3z m69 -480 c17 -36 20 -56 15 -90 -4 -28 -11 -43 -18 -40
-7 3 -11 10 -9 16 1 6 -4 11 -10 11 -7 0 -35 23 -63 50 -71 70 -85 88 -85 104
0 20 55 24 107 8 34 -11 45 -21 63 -59z"/>
<path d="M7145 8516 c-16 -14 -31 -23 -35 -21 -3 2 -11 0 -18 -4 -9 -6 -9 -15
3 -39 9 -17 20 -34 25 -37 16 -10 -1 -40 -36 -63 -26 -17 -34 -29 -34 -52 0
-21 6 -33 19 -38 24 -9 11 -49 -19 -60 -12 -4 -26 -19 -33 -32 -16 -32 -105
-81 -136 -74 -36 8 -71 -30 -71 -78 0 -51 13 -74 50 -86 23 -8 31 -8 37 2 22
37 99 48 126 18 15 -17 15 -27 2 -117 -8 -54 -14 -129 -13 -166 3 -56 -1 -72
-18 -96 -19 -24 -28 -28 -73 -28 -28 1 -51 -2 -52 -5 0 -3 -2 -14 -3 -26 -1
-11 -18 -40 -37 -65 -45 -60 -129 -93 -214 -83 -54 7 -55 6 -109 -40 -30 -25
-59 -46 -66 -46 -6 0 -30 -9 -52 -20 -47 -23 -90 -25 -137 -9 -24 8 -39 9 -54
1 -12 -6 -42 -16 -66 -22 -25 -7 -65 -27 -89 -46 -56 -42 -88 -43 -130 -4 -48
43 -75 40 -96 -12 -10 -24 -22 -50 -27 -58 -19 -32 -40 -86 -48 -122 -10 -41
5 -191 20 -221 12 -20 10 -195 -2 -282 -17 -128 -30 -306 -24 -337 5 -23 20
-43 51 -67 56 -42 73 -43 94 -6 18 32 44 42 116 44 54 1 78 24 98 92 22 78 37
80 70 9 35 -74 47 -84 115 -90 l56 -5 43 -83 c41 -79 43 -84 25 -97 -19 -14
-103 -45 -123 -45 -6 0 -32 -10 -58 -22 -41 -19 -61 -21 -168 -19 -104 2 -124
0 -138 -15 -24 -23 -36 -58 -36 -103 0 -27 -9 -51 -31 -81 -28 -38 -31 -49
-26 -90 8 -62 42 -120 72 -120 27 0 39 13 54 62 7 21 35 64 62 97 39 46 60 61
95 71 24 7 44 16 44 20 0 13 67 49 123 66 29 10 58 22 66 28 19 15 83 36 92
30 4 -2 22 16 40 41 34 47 55 58 102 57 60 -2 82 -55 56 -133 -13 -36 -28 -54
-70 -81 -26 -17 -45 -73 -27 -84 4 -3 8 -29 8 -59 l0 -54 -37 -6 c-103 -16
-156 -30 -176 -45 -12 -10 -45 -29 -73 -43 -52 -26 -152 -136 -135 -147 5 -3
20 -27 33 -55 22 -47 26 -50 63 -53 35 -3 47 3 93 43 30 25 66 48 80 51 15 3
34 8 43 10 8 2 23 -4 32 -13 22 -22 67 -91 67 -102 0 -13 -42 -45 -92 -70 -27
-13 -48 -28 -48 -32 0 -5 -7 -9 -15 -9 -8 0 -29 -6 -47 -14 -18 -8 -53 -23
-78 -34 -25 -10 -60 -22 -78 -25 -19 -4 -48 -22 -68 -42 -18 -19 -38 -35 -44
-35 -6 0 -8 -4 -5 -10 3 -5 2 -10 -4 -10 -17 0 -41 -57 -41 -98 0 -48 40 -93
64 -73 8 7 20 10 26 6 5 -3 13 0 16 9 5 14 44 19 44 5 0 -16 71 -15 139 3 40
10 76 17 79 14 13 -14 1 -111 -19 -147 -5 -10 -28 -23 -50 -29 -22 -6 -48 -19
-59 -30 -10 -10 -28 -24 -40 -30 -22 -12 -39 -47 -45 -93 -2 -15 -17 -38 -34
-52 -16 -14 -33 -35 -36 -46 -4 -10 -10 -17 -15 -14 -5 3 -14 -3 -20 -14 -9
-17 -14 -18 -40 -9 -25 8 -59 45 -52 56 1 1 -1 2 -5 2 -5 0 -8 -4 -8 -9 0 -17
-9 -19 -79 -23 l-68 -3 5 -32 c3 -18 1 -35 -4 -38 -5 -4 -9 -44 -9 -91 l0 -84
45 -58 c37 -47 45 -64 45 -99 0 -62 32 -88 123 -99 35 -4 57 -3 61 4 4 7 15 8
30 2 13 -5 27 -6 30 -3 3 4 6 -4 6 -16 0 -23 -47 -74 -60 -66 -5 3 -13 -18
-19 -45 -6 -28 -17 -63 -25 -79 -9 -17 -13 -42 -9 -67 4 -30 -2 -51 -24 -94
-25 -46 -27 -58 -16 -68 7 -7 13 -23 13 -36 0 -15 7 -26 20 -29 20 -5 21 -12
20 -210 -1 -167 -4 -206 -16 -211 -9 -4 -13 -20 -13 -54 1 -27 -6 -62 -15 -80
-9 -17 -16 -49 -16 -72 0 -35 -6 -47 -46 -85 -41 -41 -45 -48 -46 -93 0 -34
-9 -68 -29 -107 -32 -64 -41 -163 -16 -184 24 -19 73 8 97 53 13 23 46 64 75
92 52 51 56 64 23 77 -19 7 -26 61 -9 71 21 13 41 -7 41 -41 0 -35 1 -35 33
-29 22 4 48 23 84 63 29 32 53 63 53 70 0 7 10 18 22 24 27 15 166 59 184 59
8 0 22 9 32 21 29 36 90 69 126 69 25 0 40 7 55 26 42 53 48 122 26 286 -5 32
-2 63 10 97 13 39 15 76 12 173 -5 132 -22 316 -32 348 -11 35 33 109 84 141
25 16 67 49 93 74 30 27 61 47 84 51 24 4 44 18 62 41 39 50 82 92 146 141
l56 43 0 200 c0 109 -2 199 -5 199 -3 0 -22 -19 -43 -42 -20 -22 -68 -61 -106
-85 -37 -24 -91 -62 -118 -84 -27 -21 -58 -39 -68 -39 -29 0 -50 11 -50 26 0
8 -4 14 -8 14 -14 0 -32 113 -32 197 0 72 5 94 44 195 24 62 50 138 56 169 10
45 23 67 62 110 86 92 93 112 63 169 -15 28 -18 29 -96 32 -110 4 -117 14 -69
104 19 36 45 73 57 81 20 14 113 179 113 202 0 14 69 131 92 156 10 11 35 43
55 72 20 29 40 53 45 53 4 0 8 128 8 285 0 309 -2 319 -50 248 -14 -20 -52
-65 -85 -98 -33 -34 -72 -77 -86 -96 -15 -19 -38 -41 -53 -48 -25 -14 -29 -13
-51 10 -23 23 -24 29 -27 189 -2 139 1 181 20 267 12 57 27 151 32 210 6 60
15 124 20 143 5 19 11 47 14 61 3 14 21 45 41 70 19 24 40 60 46 79 6 19 34
68 61 108 47 70 74 128 84 182 3 14 12 38 20 54 21 43 21 816 0 816 -8 0 -22
7 -31 16 -15 15 -15 18 2 38 30 35 43 64 43 96 0 37 -17 39 -55 6z"/>
<path d="M4240 8310 c0 -5 -12 -13 -26 -16 -14 -4 -21 -10 -15 -13 6 -4 7 -12
1 -21 -6 -9 -10 -10 -10 -3 0 18 -40 13 -95 -13 -103 -48 -159 -65 -248 -74
-77 -8 -94 -13 -109 -32 -26 -34 -22 -42 28 -57 42 -13 52 -12 98 4 28 10 65
27 81 37 17 10 37 18 45 18 23 0 99 52 105 71 6 19 42 27 130 30 33 1 63 7 67
13 16 23 8 54 -14 60 -32 8 -38 7 -38 -4z"/>
<path d="M5001 7911 l-25 -19 50 -23 c27 -13 64 -33 82 -46 18 -12 52 -25 75
-28 23 -4 51 -8 62 -9 11 -2 23 2 27 8 5 7 8 4 8 -6 0 -22 16 -23 24 -3 3 10
-1 18 -12 22 -9 3 -24 12 -32 18 -8 7 -27 15 -42 19 -15 3 -46 24 -69 46 -35
33 -49 40 -83 40 -24 0 -51 -8 -65 -19z"/>
<path d="M3303 7733 c-90 -4 -93 -5 -93 -27 0 -43 21 -50 136 -43 74 5 110 11
120 22 9 8 25 20 36 26 15 8 17 13 9 19 -13 7 -59 8 -208 3z"/>
<path d="M5865 7716 c-32 -32 -32 -60 0 -91 53 -54 125 -15 111 60 -8 39 -9
40 -53 50 -27 5 -37 2 -58 -19z"/>
<path d="M6720 7728 c-19 -4 -69 -10 -110 -13 -140 -12 -200 -40 -200 -97 0
-38 36 -103 64 -115 29 -13 83 3 96 28 15 26 109 131 129 144 9 5 37 16 64 25
l47 16 -27 10 c-16 6 -43 7 -63 2z"/>
<path d="M5436 7696 c3 -7 28 -24 55 -37 73 -34 100 -69 98 -130 -2 -32 3 -55
14 -66 8 -10 23 -37 32 -60 21 -52 49 -64 75 -31 10 13 37 37 59 52 42 30 60
73 46 114 -11 35 -75 89 -149 125 -64 31 -77 34 -132 30 -39 -3 -64 -1 -68 6
-10 16 -36 14 -30 -3z"/>
<path d="M1590 7161 c-7 -6 -48 -13 -90 -17 -83 -7 -197 -45 -220 -72 -8 -10
-32 -25 -52 -35 -21 -10 -41 -25 -46 -34 -7 -11 -25 -16 -65 -17 -31 -1 -62
-7 -69 -14 -7 -7 -20 -12 -30 -12 -10 0 -18 -4 -18 -10 0 -5 -9 -10 -20 -10
-11 0 -20 -5 -20 -11 0 -6 -7 -9 -14 -6 -11 4 -13 1 -9 -11 3 -9 3 -14 -1 -11
-4 4 -20 -5 -35 -20 -43 -40 -59 -51 -71 -51 -20 0 -70 -53 -102 -109 -41 -70
-44 -76 -28 -66 8 5 11 3 8 -6 -3 -8 -10 -13 -16 -12 -25 6 -45 -167 -22 -182
6 -4 10 7 10 25 0 17 8 47 19 68 10 20 21 49 25 65 4 18 13 27 26 27 25 0 27
-45 4 -78 -12 -18 -15 -42 -12 -102 3 -83 18 -116 67 -149 23 -15 24 -15 14 4
-6 11 -13 38 -14 60 -3 31 0 40 13 43 14 3 19 -7 24 -48 4 -28 10 -53 14 -55
4 -3 11 32 14 76 9 101 33 172 85 247 74 109 92 117 79 35 -25 -149 21 -292
126 -397 31 -31 61 -56 66 -56 5 0 2 19 -8 43 -31 76 -16 408 17 371 4 -5 16
-49 26 -99 10 -49 27 -116 37 -148 11 -32 18 -60 15 -63 -2 -3 34 -43 80 -90
47 -47 87 -83 89 -81 2 2 -3 21 -11 41 -9 20 -13 42 -9 48 5 7 2 8 -6 3 -10
-6 -12 -4 -7 8 3 9 2 19 -3 22 -6 4 -10 15 -10 27 0 17 2 18 15 8 8 -7 15 -17
15 -22 0 -5 12 -35 27 -66 26 -56 144 -185 150 -165 2 5 -5 29 -16 53 -10 24
-17 50 -14 58 8 18 85 -102 114 -178 23 -59 31 -176 16 -239 -7 -30 -6 -33 7
-22 18 15 51 99 76 194 20 75 27 83 112 127 69 36 98 38 125 8 45 -49 53 -96
32 -172 -14 -52 -94 -135 -167 -174 -31 -17 -51 -32 -44 -32 6 0 12 -10 12
-23 0 -20 8 -25 51 -35 67 -16 87 -16 71 0 -29 29 8 68 66 68 8 0 43 14 78 31
81 38 114 82 114 151 0 40 3 48 19 48 44 0 58 -188 22 -300 -18 -55 -29 -129
-14 -92 2 6 9 10 13 7 5 -3 21 12 36 35 15 22 31 40 35 40 5 0 9 -17 9 -38 0
-21 3 -41 6 -45 7 -7 99 38 109 53 13 21 45 10 50 -17 4 -16 10 -36 16 -45 14
-26 13 -27 -38 -26 -68 0 -183 -27 -183 -44 0 -4 -9 -17 -19 -27 -19 -19 -19
-20 17 -58 60 -63 106 -93 141 -93 17 0 48 -7 68 -15 20 -8 38 -13 41 -10 3 2
-7 9 -22 15 l-28 10 31 39 c17 22 38 57 47 78 8 21 25 57 36 80 20 44 39 148
31 171 -8 18 4 15 26 -9 14 -15 26 -54 38 -122 16 -96 18 -99 30 -71 35 82
-16 364 -91 498 -6 12 -26 39 -45 60 -43 49 -27 58 32 17 112 -76 156 -167
180 -366 2 -16 5 11 5 60 1 50 -3 107 -9 129 -13 47 -80 159 -123 205 -31 33
-130 111 -141 111 -3 0 -23 12 -44 26 -31 20 -53 26 -102 27 -55 2 -65 5 -75
25 -9 19 -7 34 14 85 22 54 24 71 19 142 -10 129 -34 210 -102 344 -43 86
-108 159 -195 221 -60 43 -189 103 -220 102 -17 0 -30 3 -30 8 0 5 -7 6 -17 3
-12 -5 -14 -3 -8 7 6 9 4 11 -4 5 -7 -4 -47 -4 -89 1 -67 7 -72 9 -42 15 27 5
20 7 -35 8 -38 0 -77 -3 -85 -8z"/>
<path d="M2525 5213 c-11 -3 -33 -15 -50 -26 -50 -34 -86 -87 -50 -73 8 3 15
1 15 -4 0 -14 -18 -21 -25 -10 -8 13 -45 13 -45 0 0 -5 -7 -7 -16 -3 -12 4
-14 0 -9 -18 4 -16 -6 -49 -28 -99 -68 -147 -109 -293 -153 -540 -27 -148 -28
-169 -29 -475 0 -212 4 -326 11 -338 8 -15 13 1 23 80 6 54 16 123 21 153 5
30 14 98 20 150 37 319 126 677 219 875 38 80 58 110 101 148 30 27 71 57 92
68 41 21 108 25 140 8 32 -17 31 -4 -3 31 -28 28 -37 31 -68 25 -20 -4 -46
-13 -58 -20 -12 -8 -34 -17 -50 -20 -15 -2 -44 -9 -63 -15 -45 -13 -47 -13
-47 5 0 8 4 12 9 9 4 -3 8 0 8 5 0 6 8 11 18 11 10 0 22 4 28 8 5 5 35 19 67
32 40 16 54 26 45 31 -14 9 -90 10 -123 2z"/>
<path d="M5908 5055 c-3 -3 -58 -16 -123 -30 -65 -14 -125 -31 -132 -37 -21
-17 -9 -131 16 -167 17 -24 61 -40 61 -23 0 8 50 36 93 52 15 5 31 18 34 27 4
10 20 32 35 48 15 17 28 34 28 38 0 4 11 25 25 45 14 20 25 40 25 44 0 9 -54
11 -62 3z"/>
<path d="M885 3515 c-17 -64 -17 -66 1 -80 26 -20 29 -19 43 11 11 26 12 26
26 8 8 -11 14 -28 15 -39 0 -31 -11 -65 -20 -60 -4 3 -2 -12 6 -33 7 -20 13
-53 14 -72 l1 -35 19 24 c36 42 27 117 -25 227 -25 51 -45 98 -45 104 0 5 -4
10 -9 10 -4 0 -16 -29 -26 -65z"/>
<path d="M927 3104 c-15 -30 -27 -60 -27 -67 0 -8 11 -41 25 -75 17 -43 25
-81 25 -123 0 -54 -4 -68 -33 -108 -44 -63 -65 -115 -70 -183 -3 -31 -12 -67
-21 -80 -15 -23 -14 -26 50 -93 36 -39 70 -80 75 -93 11 -28 29 -26 164 20
l91 31 28 57 c23 49 40 67 104 112 67 46 82 62 112 122 20 37 49 79 65 93 17
13 42 35 58 49 15 13 35 24 45 24 23 0 62 28 62 44 0 10 -30 15 -112 19 -156
8 -298 45 -390 103 -69 43 -178 135 -202 170 l-22 33 -27 -55z"/>
</g>
</svg>
