<?xml version="1.0" standalone="no"?>
<!DOCTYPE svg PUBLIC "-//W3C//DTD SVG 20010904//EN"
 "http://www.w3.org/TR/2001/REC-SVG-20010904/DTD/svg10.dtd">
<svg version="1.0" xmlns="http://www.w3.org/2000/svg"
 width="720.000000pt" height="1280.000000pt" viewBox="0 0 720.000000 1280.000000"
 preserveAspectRatio="xMidYMid meet">
<metadata>
Created by potrace 1.16, written by Peter Selinger 2001-2019
</metadata>
<g transform="translate(0.000000,1280.000000) scale(0.100000,-0.100000)"
fill="#000000" stroke="none">
<path d="M0 6400 l0 -6400 3600 0 3600 0 0 1025 0 1025 -180 0 -181 0 -29 30
-30 31 0 144 c0 81 -4 145 -9 147 -10 3 -31 487 -31 718 l0 125 -37 24 c-43
28 -63 21 -76 -28 -10 -39 -60 -97 -90 -105 -13 -3 -37 -31 -60 -70 -22 -37
-47 -66 -59 -69 -27 -7 -38 -1 -38 22 0 40 -61 57 -80 22 -5 -11 -18 -22 -28
-25 -11 -4 -25 -17 -32 -31 -27 -50 -71 -43 -94 16 -9 21 -21 39 -27 39 -13 0
-33 20 -42 43 -3 9 -17 21 -29 26 -13 5 -31 17 -40 28 -19 20 -21 13 26 99 16
30 43 55 72 69 18 9 20 15 12 42 l-9 33 -82 0 c-45 1 -113 5 -152 11 -38 6
-90 12 -115 14 -25 1 -77 7 -115 13 -39 6 -81 9 -94 5 -13 -3 -26 -1 -30 5 -3
6 -39 12 -79 13 -41 2 -76 7 -78 11 -3 5 -27 8 -55 8 -27 0 -49 4 -49 9 0 8
-139 23 -240 26 -91 3 -99 4 -97 24 0 11 4 19 7 18 3 -1 17 7 33 17 16 11 36
16 50 13 12 -3 43 -11 68 -18 26 -6 57 -9 70 -5 13 3 65 43 114 87 178 160
239 215 304 269 36 31 74 71 84 90 19 38 19 20 -3 465 -10 183 -9 212 10 340
11 77 23 147 26 156 7 25 7 113 0 136 -8 26 -71 58 -157 81 l-62 17 -14 50
c-42 150 -110 349 -154 453 -56 134 -121 221 -204 273 -27 17 -52 33 -54 35
-2 1 5 15 16 31 29 42 56 110 63 156 l7 42 13 -30 c20 -45 18 -136 -3 -171
l-18 -29 24 27 c25 26 47 102 47 156 -1 69 -51 223 -88 265 -30 34 4 16 40
-20 49 -51 68 -102 68 -182 1 -55 3 -63 12 -46 20 34 15 135 -9 187 -46 101
-178 208 -257 208 -37 0 -38 1 -30 28 4 15 8 70 8 122 0 84 -4 104 -32 170
-40 95 -75 137 -160 193 -93 62 -157 81 -272 81 -121 1 -234 -30 -292 -82 -10
-8 -31 -16 -48 -17 -44 -4 -136 -53 -191 -103 -54 -48 -109 -148 -109 -197 0
-34 17 -94 31 -109 5 -5 6 7 2 27 -7 44 2 97 21 123 13 17 13 13 4 -27 -19
-82 14 -163 70 -174 20 -4 22 0 22 46 0 48 1 50 23 43 12 -3 29 -11 37 -18 8
-6 6 -1 -4 12 -11 12 -25 22 -33 22 -7 0 -13 10 -13 23 0 24 49 116 73 136 14
11 14 8 4 -24 -23 -75 30 -209 103 -264 37 -27 44 -24 30 13 -5 15 -10 34 -10
42 0 24 47 -6 124 -80 66 -63 110 -90 70 -44 -10 13 0 6 24 -15 55 -49 74 -50
51 -4 -10 21 -10 21 5 3 42 -52 69 -180 47 -215 -5 -8 -7 -20 -4 -28 12 -30
73 93 73 147 0 22 62 68 99 72 35 4 65 -40 57 -84 -14 -74 -64 -117 -191 -164
-19 -7 -19 -8 4 -12 13 -2 28 1 34 7 18 18 27 13 27 -14 0 -31 34 -64 108
-107 74 -42 92 -62 92 -101 0 -42 -11 -55 -84 -106 -76 -53 -151 -80 -240 -88
-142 -12 -241 45 -286 163 -26 70 -26 71 10 79 25 6 34 2 57 -26 16 -17 38
-48 50 -68 33 -52 28 -27 -6 33 l-28 51 73 44 c77 47 93 66 27 33 -55 -28
-151 -54 -206 -56 -44 -1 -47 -2 -28 -15 12 -7 21 -19 21 -26 0 -28 40 -105
74 -143 103 -113 299 -113 472 0 84 54 118 98 109 142 -5 30 -31 66 -46 66
-12 0 -80 42 -76 46 10 10 176 -78 206 -110 26 -26 48 -38 90 -47 55 -12 56
-12 23 -20 -125 -27 -217 -232 -263 -584 -8 -58 -10 -154 -6 -269 7 -197 -3
-261 -49 -301 -22 -19 -54 -98 -54 -133 0 -12 -22 -29 -66 -50 -59 -29 -68
-38 -90 -87 l-25 -55 -47 0 c-55 0 -187 32 -234 56 -35 18 -124 88 -145 114
-13 15 -7 52 8 58 5 2 9 20 9 40 l0 37 24 -30 c15 -18 3 14 -30 77 -30 59 -65
136 -78 170 -29 77 -56 240 -56 337 0 39 -4 71 -9 71 -5 0 -24 29 -42 64 -48
92 -47 74 1 -25 38 -79 40 -87 40 -178 l0 -96 -20 25 c-37 49 -29 11 18 -86
27 -54 55 -114 62 -132 15 -38 8 -111 -12 -123 -10 -6 -10 -9 -1 -9 17 0 61
-68 69 -107 4 -22 -2 -48 -22 -92 -26 -60 -27 -63 -11 -96 37 -77 34 -101 -23
-190 -10 -16 -19 -46 -20 -65 -1 -19 -5 -44 -9 -55 -7 -17 -13 -11 -38 40 -25
51 -34 61 -65 69 -45 11 -78 3 -117 -30 -36 -30 -62 -101 -42 -114 8 -4 12
-13 9 -20 -8 -26 -51 26 -57 70 -5 37 -9 43 -33 46 -18 2 -25 -2 -22 -10 3 -7
-25 -46 -62 -87 -79 -89 -117 -142 -139 -197 -18 -44 -13 -65 27 -108 19 -22
19 -22 -1 -90 -11 -38 -23 -89 -26 -114 -4 -25 -13 -62 -21 -83 -21 -56 -25
-1534 -4 -1547 8 -5 11 -12 8 -16 -4 -3 -92 -9 -197 -12 l-190 -5 20 39 c16
30 19 50 14 88 -8 64 -81 228 -132 297 -38 51 -57 87 -92 173 -10 25 -9 32 8
50 25 27 48 81 73 171 43 160 82 261 119 317 21 33 39 61 39 63 0 2 29 54 65
116 36 61 65 114 65 116 0 2 33 73 73 156 l72 152 0 110 c0 148 -21 192 -144
305 -85 78 -144 126 -164 133 -13 4 43 111 97 182 47 61 68 124 65 185 -2 26
8 49 34 89 44 63 48 112 16 189 l-21 51 21 60 c12 34 21 72 21 85 0 13 -21 63
-46 111 -40 76 -48 101 -60 194 -64 486 -86 599 -127 658 -59 85 -172 156
-347 218 -58 21 -108 41 -112 44 -4 4 2 31 13 61 12 32 22 86 24 130 l4 75 -9
-77 c-5 -43 -21 -106 -36 -140 -14 -35 -39 -99 -54 -142 -35 -102 -56 -119
-130 -114 -39 3 -84 18 -154 51 -54 26 -101 47 -105 47 -3 0 19 -17 49 -37 59
-40 120 -92 120 -103 0 -4 -11 -24 -25 -44 -14 -20 -25 -42 -25 -48 0 -16 38
21 72 70 26 37 58 56 58 33 0 -15 -44 -74 -70 -92 -62 -45 -218 -62 -303 -33
-85 29 -177 153 -176 239 0 45 9 64 58 121 l33 39 -6 -35 -6 -35 20 25 c11 14
20 31 20 38 0 7 13 12 29 12 23 0 31 -7 45 -37 12 -29 15 -32 11 -11 -10 54
-24 78 -46 78 -29 0 -124 55 -149 87 -23 30 -27 103 -7 143 20 39 64 38 108
-3 19 -19 41 -48 48 -66 8 -17 25 -41 40 -52 l26 -21 6 61 c7 67 13 81 31 63
18 -18 30 -14 23 8 -8 26 5 111 16 104 5 -3 9 -21 9 -40 0 -19 3 -34 8 -34 6
1 38 43 115 153 31 45 33 40 13 -26 -8 -26 -12 -47 -10 -47 30 0 107 70 143
130 26 44 27 26 2 -45 -11 -30 -17 -55 -14 -55 3 0 17 7 31 16 34 20 76 78
100 139 l19 47 20 -34 c11 -19 26 -52 33 -73 l13 -39 33 38 c26 31 41 39 65
38 31 -1 31 -1 25 41 -4 23 -20 61 -36 85 -17 23 -30 44 -30 46 0 2 13 9 30
16 16 7 34 18 40 25 9 10 4 13 -23 12 -20 0 -54 11 -87 31 -91 53 -88 49 -62
67 31 22 28 35 -9 35 -17 0 -82 14 -144 32 l-114 32 21 29 21 29 -21 -11 c-11
-6 -54 -11 -95 -11 -41 0 -95 -3 -120 -6 -38 -6 -46 -11 -52 -33 -10 -38 -34
-61 -66 -61 -23 0 -27 4 -22 18 3 9 13 23 21 30 23 18 -4 15 -33 -4 -24 -16
-24 -16 -15 15 11 40 -3 40 -41 0 -16 -18 -32 -47 -35 -68 -5 -34 -10 -38 -52
-50 -46 -12 -132 -84 -132 -111 0 -10 4 -9 17 2 10 9 29 21 42 28 22 11 20 7
-11 -29 -66 -77 -104 -226 -79 -304 14 -43 37 -63 29 -26 -3 13 -2 35 2 49 6
20 8 14 9 -26 1 -37 10 -69 34 -115 43 -83 97 -169 130 -209 15 -17 27 -37 27
-44 0 -6 -30 -25 -67 -40 -120 -52 -378 -184 -454 -234 -104 -69 -203 -180
-242 -273 -24 -58 -44 -163 -67 -349 -12 -96 -31 -197 -41 -225 -10 -27 -19
-59 -19 -70 0 -11 -12 -72 -27 -137 -26 -114 -27 -116 -57 -122 -44 -9 -137
-110 -181 -198 -30 -60 -35 -79 -30 -113 24 -155 38 -228 57 -284 19 -59 20
-78 14 -225 l-7 -161 27 -42 c15 -23 31 -40 35 -37 4 2 40 -12 81 -31 65 -32
79 -35 128 -30 31 3 83 20 118 37 34 17 64 29 65 27 2 -2 18 -44 36 -94 18
-49 48 -112 66 -140 54 -83 67 -114 64 -158 -4 -74 0 -86 46 -129 44 -41 45
-44 45 -103 0 -38 6 -69 15 -82 9 -12 29 -75 45 -140 22 -87 45 -148 90 -235
35 -70 72 -161 91 -225 39 -134 41 -139 95 -188 l44 -40 3 -135 c1 -74 -2
-161 -6 -192 l-8 -58 -882 3 -882 2 -3 1220 c-2 951 0 1226 10 1245 7 14 20
36 29 50 9 14 19 35 23 46 6 20 3 22 -29 20 -35 -1 -35 -1 -35 40 0 39 2 42
30 46 20 3 35 -1 46 -13 14 -15 18 -16 30 -4 8 7 14 18 14 23 0 5 21 27 46 47
26 21 52 52 59 68 12 29 11 31 -22 54 -25 17 -47 23 -82 22 -25 -1 -57 4 -70
10 -12 7 -29 10 -37 7 -12 -5 -14 150 -14 1113 0 615 3 1120 6 1124 3 3 15 -3
27 -14 11 -10 27 -19 35 -19 8 0 12 -6 8 -15 -3 -9 0 -15 8 -15 21 0 27 13 12
29 -14 17 -23 52 -33 139 -5 49 -7 52 -34 52 -23 0 -29 5 -29 21 0 13 5 19 13
16 7 -3 20 0 28 7 19 14 49 88 49 122 0 22 -4 25 -32 22 -25 -2 -34 -9 -39
-28 -15 -59 -18 26 -16 420 l2 415 41 -3 c29 -2 43 1 47 11 3 8 19 18 35 22
17 3 38 15 48 26 25 28 43 23 60 -16 16 -40 21 -41 70 -20 35 14 60 12 49 -4
-2 -5 -7 -32 -11 -61 l-6 -53 38 6 c56 9 176 86 194 125 8 17 23 34 33 38 9 3
17 10 17 15 0 17 48 29 75 19 31 -12 39 0 31 45 -7 36 -58 95 -81 95 -7 0 -26
-6 -42 -14 -15 -8 -48 -20 -73 -26 -25 -7 -73 -23 -108 -36 -75 -29 -92 -30
-133 -5 -25 15 -37 17 -60 9 -16 -5 -29 -14 -29 -19 0 -5 -23 -9 -51 -9 -31 0
-48 4 -44 10 3 6 1 10 -6 10 -10 0 -9 -36 4 -103 3 -15 -86 -19 -95 -5 -4 7
-8 62 -8 121 0 101 2 109 20 114 11 3 20 9 20 14 0 5 7 9 15 9 16 0 20 28 7
45 -4 6 -16 12 -27 13 -11 2 -22 6 -24 8 -2 2 -6 125 -8 274 l-5 270 3591 0
3591 0 0 1775 0 1775 -3600 0 -3600 0 0 -6400z m6795 3679 c153 -68 200 -265
96 -404 -25 -34 -27 -41 -14 -50 23 -17 -3 -53 -49 -67 -30 -9 -45 -8 -80 5
-34 13 -55 15 -98 8 -30 -5 -63 -13 -73 -16 -53 -21 -137 34 -107 70 11 13 9
19 -8 38 -85 90 -82 268 6 360 77 82 216 105 327 56z m-652 5 c52 -18 116 -76
143 -132 28 -55 26 -174 -4 -229 -50 -95 -136 -143 -256 -143 -209 0 -331 220
-222 402 25 42 43 59 94 85 54 28 75 33 131 33 37 0 88 -7 114 -16z m-5834
-111 c15 -56 71 -300 71 -307 0 -3 -15 -6 -33 -6 -28 0 -34 4 -42 33 -9 29
-14 32 -49 32 -36 0 -40 -3 -48 -32 -8 -29 -13 -33 -42 -33 l-34 0 14 58 c7
31 26 110 41 175 l27 117 43 0 c40 0 43 -2 52 -37z m401 -55 l1 -93 30 38 c23
27 39 37 60 37 16 0 29 -3 29 -6 0 -4 -16 -28 -35 -53 -30 -41 -33 -50 -21
-67 7 -10 25 -40 40 -66 l27 -48 -35 0 c-30 0 -38 5 -57 40 -13 22 -26 40 -31
40 -4 0 -8 -18 -8 -40 0 -38 -2 -40 -30 -40 l-30 0 0 175 0 175 30 0 30 0 0
-92z m1740 -83 l0 -176 -42 1 c-24 1 -55 -1 -69 -5 -19 -5 -33 -1 -55 18 -28
24 -29 29 -29 106 1 69 4 85 22 102 22 22 54 28 91 15 21 -7 22 -5 22 53 l0
61 30 0 30 0 0 -175z m452 83 l3 -92 25 37 c20 30 31 37 58 37 30 0 42 -12 24
-24 -5 -3 -21 -23 -36 -44 l-27 -40 40 -66 41 -66 -35 0 c-30 0 -38 5 -57 40
-13 22 -26 40 -30 40 -5 0 -8 -18 -8 -40 0 -39 -1 -40 -35 -40 l-35 0 0 168
c0 93 3 172 7 175 3 4 19 7 34 7 l28 0 3 -92z m728 28 l0 -65 35 15 c28 11 40
12 58 3 34 -18 37 -27 37 -136 l0 -103 -30 0 -30 0 0 90 c0 75 -3 92 -16 97
-37 14 -49 -10 -52 -101 l-3 -86 -29 0 -30 0 0 175 0 175 30 0 30 0 0 -64z
m530 3 c0 -58 1 -60 23 -53 76 26 107 -8 107 -118 0 -71 -2 -81 -26 -105 -21
-21 -31 -24 -57 -18 -18 4 -49 6 -69 6 l-38 -2 0 176 0 175 30 0 30 0 0 -61z
m-1482 -11 c3 -35 6 -38 33 -38 24 0 29 -4 29 -25 0 -21 -5 -25 -30 -25 l-31
0 3 -67 c3 -66 4 -68 31 -71 21 -3 27 -8 23 -19 -3 -8 -6 -19 -6 -24 0 -16
-73 -10 -92 8 -14 13 -18 31 -18 90 0 66 -2 75 -20 80 -13 3 -20 14 -20 29 0
17 6 24 20 24 17 0 20 7 20 41 0 38 1 40 28 37 23 -3 27 -8 30 -40z m-2094
-58 c24 -24 34 -122 17 -173 -15 -44 -59 -66 -97 -48 -14 6 -27 11 -29 11 -3
0 -5 -29 -5 -65 l0 -65 -30 0 -30 0 0 181 0 182 39 -6 c21 -2 45 -1 52 4 19
12 60 2 83 -21z m402 20 c8 0 23 -9 34 -20 17 -17 20 -33 20 -121 l0 -101 -32
3 c-18 1 -48 -1 -66 -5 -50 -12 -82 13 -82 64 0 44 20 64 83 81 28 7 37 15 35
27 -5 25 -45 27 -58 3 -13 -25 -48 -28 -57 -5 -13 34 56 90 95 78 8 -2 20 -4
28 -4z m293 -1 c38 -14 51 -35 51 -88 l0 -41 -61 0 c-60 0 -60 0 -57 -27 3
-32 44 -46 54 -19 4 10 18 16 35 16 35 0 39 -25 10 -61 -27 -34 -99 -34 -135
0 -23 22 -26 32 -26 96 0 79 20 120 63 128 12 2 25 5 28 6 3 0 20 -4 38 -10z
m199 0 c29 -10 59 -59 45 -73 -15 -15 -51 -5 -56 15 -4 13 -12 20 -24 17 -31
-6 -27 -34 7 -48 78 -32 101 -82 61 -131 -15 -19 -29 -24 -66 -24 -37 0 -51 5
-66 24 -29 36 -25 61 11 61 24 0 30 -4 30 -21 0 -15 5 -20 22 -17 42 6 33 36
-16 58 -54 23 -75 57 -60 98 9 25 45 52 70 52 6 0 25 -5 42 -11z m219 -13 c6
-6 13 -22 15 -36 2 -21 -2 -26 -23 -28 -20 -2 -28 2 -32 18 -4 14 -12 21 -24
18 -29 -5 -21 -32 15 -50 73 -36 92 -81 53 -129 -15 -19 -29 -24 -66 -24 -37
0 -51 5 -66 24 -29 36 -25 61 10 61 21 0 30 -6 34 -21 7 -25 40 -22 45 4 3 12
-9 23 -42 37 -51 21 -70 54 -60 97 12 45 104 65 141 29z m182 13 c17 -6 36
-19 41 -29 6 -10 10 -62 10 -116 l0 -97 -40 6 c-22 3 -43 1 -46 -4 -8 -14 -47
-11 -72 7 -16 11 -22 25 -22 54 0 44 20 64 83 81 28 7 37 15 35 27 -5 25 -45
27 -58 3 -13 -25 -48 -28 -57 -5 -8 23 16 62 46 73 35 13 43 13 80 0z m319
-22 c16 -15 22 -32 22 -64 l0 -43 -61 0 c-60 0 -60 0 -57 -27 3 -32 44 -46 54
-19 8 20 64 22 64 2 0 -69 -102 -98 -158 -45 -19 17 -22 31 -22 98 0 68 3 80
23 98 12 11 29 23 37 26 25 9 73 -4 98 -26z m1000 -3 c19 -21 22 -36 22 -99 0
-70 -1 -74 -32 -100 -27 -23 -39 -26 -71 -22 -59 8 -80 35 -85 107 -3 36 1 72
9 91 24 60 111 73 157 23z m240 9 c8 -11 12 -53 12 -120 l0 -103 -30 0 -30 0
0 90 c0 75 -3 92 -17 97 -32 12 -53 -32 -53 -113 l0 -74 -30 0 -30 0 0 120 0
120 29 0 c16 0 31 -5 33 -12 3 -8 11 -7 29 5 27 20 67 15 87 -10z m530 -9 c15
-17 22 -38 22 -65 l0 -39 -61 0 c-60 0 -60 0 -57 -27 3 -32 44 -46 54 -19 4
10 18 16 35 16 35 0 40 -29 9 -60 -27 -27 -63 -34 -105 -20 -46 15 -55 34 -55
123 0 64 3 76 23 94 12 11 29 23 37 26 28 11 75 -3 98 -29z m542 10 c11 -11
15 -39 15 -117 l0 -102 -32 -3 -33 -3 0 91 c0 72 -3 92 -15 96 -33 13 -45 -15
-45 -102 l0 -84 -35 0 -35 0 0 120 0 120 35 0 c19 0 35 -4 35 -9 0 -6 12 -3
28 4 29 16 58 12 82 -11z m215 -5 c17 -16 21 -36 23 -120 l4 -100 -44 1 c-23
1 -54 -1 -68 -5 -34 -9 -80 27 -80 61 0 42 17 62 70 79 37 12 50 22 50 36 0
26 -36 25 -52 -1 -12 -19 -48 -27 -61 -14 -3 3 -1 19 5 36 20 56 108 72 153
27z m394 20 c36 -13 61 -53 61 -99 l0 -30 -59 0 c-63 0 -76 -8 -66 -40 8 -24
55 -28 55 -5 0 11 11 15 36 15 32 0 35 -2 29 -22 -4 -13 -18 -34 -33 -47 -21
-19 -33 -22 -65 -18 -60 8 -80 35 -85 109 -5 79 9 115 50 133 41 17 38 17 77
4z m204 -3 c15 -8 27 -11 27 -5 0 5 14 9 31 9 l30 0 -3 -154 c-3 -134 -5 -157
-22 -175 -42 -46 -144 -35 -166 19 -7 16 -9 34 -5 39 10 18 44 12 57 -9 27
-42 78 -15 78 41 0 18 -3 20 -12 11 -7 -7 -29 -12 -49 -12 -56 0 -79 34 -79
116 0 72 13 107 44 122 29 14 37 14 69 -2z m285 -22 c19 -22 22 -36 22 -120
l0 -95 -42 1 c-24 1 -54 -1 -68 -5 -36 -9 -80 27 -80 65 0 27 32 70 52 70 5 0
24 7 43 14 25 11 33 19 29 30 -9 22 -41 20 -56 -4 -18 -29 -58 -27 -58 3 0 73
105 101 158 41z m-3048 -94 l0 -120 -35 0 -35 0 0 113 c0 63 3 117 7 120 3 4
19 7 35 7 l28 0 0 -120z m2280 63 c19 -90 25 -92 45 -14 18 68 20 71 48 71 28
0 29 -2 23 -33 -3 -19 -25 -99 -49 -178 l-42 -144 -34 -3 c-28 -3 -33 -1 -27
14 28 74 28 99 -3 207 -18 59 -34 113 -37 122 -5 12 2 15 28 15 34 0 35 -1 48
-57z m44 -3533 c1 -65 -25 -138 -58 -169 l-24 -23 -89 39 c-48 22 -86 44 -83
49 3 5 9 8 14 6 6 -2 24 -6 40 -9 28 -6 30 -5 17 11 -18 21 -9 29 56 50 62 21
103 63 103 109 1 29 2 30 12 12 7 -11 12 -45 12 -75z m307 -459 c54 -57 98
-158 124 -291 21 -102 34 -454 23 -617 -13 -206 -65 -450 -118 -560 -45 -92
-184 -206 -405 -332 -96 -55 -132 -61 -224 -40 -40 9 -47 7 -91 -21 -38 -24
-57 -30 -103 -30 -32 0 -57 4 -57 8 0 14 46 34 66 30 17 -4 16 -6 -6 -16 l-25
-12 25 3 c46 4 38 44 -23 115 -71 84 -109 109 -144 93 -60 -27 -37 28 33 81
36 27 64 59 80 90 22 42 30 50 71 61 49 13 47 10 88 121 15 43 23 51 69 71 87
38 91 38 104 8 11 -25 11 -26 6 -3 -15 62 -14 98 5 145 18 48 21 51 69 61 28
6 64 21 81 33 42 30 39 38 -3 12 -18 -12 -36 -21 -39 -21 -16 0 -17 128 -2
227 8 59 23 155 31 213 25 168 77 368 122 462 33 71 49 93 88 122 69 50 96 48
155 -13z m-2561 -862 c7 -17 24 -38 37 -46 21 -14 22 -18 10 -32 -50 -56 -60
-131 -25 -192 21 -37 21 -38 2 -65 -10 -14 -27 -38 -36 -53 -16 -24 -18 -24
-18 -5 0 11 -10 41 -23 66 -20 39 -21 49 -10 74 17 40 16 106 -2 130 -21 28
-18 54 10 96 14 20 25 42 25 47 0 22 18 10 30 -20z m169 -637 c43 -32 51 -57
35 -115 -8 -29 -16 -108 -20 -177 -3 -69 -10 -139 -15 -156 -12 -38 -79 -107
-79 -80 0 9 7 31 16 47 8 17 13 33 10 36 -3 3 -15 -17 -27 -43 -12 -27 -27
-60 -33 -73 -10 -22 -76 -75 -84 -67 -2 3 3 15 12 28 23 35 87 190 81 196 -2
3 -12 -12 -21 -34 -57 -136 -86 -185 -120 -201 -48 -24 -64 -6 -36 39 21 34
82 184 82 202 0 22 -18 -13 -44 -86 -15 -43 -43 -98 -62 -122 -54 -71 -48 -75
84 -50 27 5 32 3 32 -13 0 -11 -16 -46 -36 -79 -42 -68 -56 -115 -84 -273 -14
-81 -32 -140 -59 -200 -22 -47 -43 -98 -46 -114 -4 -15 -19 -37 -33 -48 -56
-44 -86 -121 -98 -247 -6 -64 -4 -74 19 -115 27 -45 95 -107 140 -128 22 -10
67 -87 67 -115 0 -4 12 -32 26 -61 30 -65 128 -165 202 -208 28 -16 52 -33 52
-37 0 -5 -117 -8 -260 -8 -204 0 -260 3 -260 13 0 7 -16 62 -35 122 -20 61
-40 146 -45 190 -11 84 -49 262 -81 380 -13 47 -23 128 -29 245 -11 217 -16
248 -52 334 -26 60 -29 76 -23 126 5 41 2 67 -9 95 -17 40 -21 92 -8 112 15
24 41 -42 46 -116 6 -84 9 -91 43 -91 15 0 34 -7 43 -15 30 -27 96 -9 132 36
17 22 37 39 44 39 17 0 27 19 53 99 27 83 27 101 -6 186 -30 79 -31 80 -38 73
-3 -3 6 -36 20 -74 31 -80 29 -128 -6 -211 -27 -66 -42 -69 -23 -6 13 43 12
57 -6 147 -11 55 -25 105 -32 111 -8 7 -9 3 -4 -15 3 -14 13 -67 22 -118 l16
-94 -27 -66 c-47 -114 -77 -125 -55 -22 13 63 8 188 -10 219 -12 21 -12 7 1
-84 10 -65 9 -84 -6 -138 -19 -70 -31 -88 -50 -81 -21 8 -25 43 -13 116 10 57
9 74 -4 115 l-17 48 6 -53 c6 -56 -14 -189 -30 -199 -18 -11 -30 18 -34 80 -3
71 -54 197 -94 232 -12 11 -43 63 -69 116 -26 53 -61 116 -78 141 l-31 45 30
36 c16 19 44 45 63 56 57 35 78 29 164 -52 115 -109 203 -182 239 -201 36 -18
55 -49 89 -146 23 -62 24 -63 24 -27 0 35 2 38 21 32 14 -5 25 -2 30 6 5 8 6
-1 3 -23 -5 -25 -1 -43 10 -60 17 -23 17 -23 11 12 -4 23 2 67 19 129 30 110
46 248 28 237 -7 -4 -12 -31 -12 -59 -1 -50 -31 -202 -44 -214 -3 -4 -6 7 -6
23 0 16 -5 46 -11 67 -9 33 -6 50 26 141 34 96 42 108 102 167 36 35 74 82 85
104 34 66 37 68 97 62 30 -3 66 -14 80 -25z m1091 -59 c14 -28 50 -77 79 -108
l54 -57 -24 -14 c-23 -13 -23 -13 11 -7 19 3 69 16 110 29 146 44 152 43 228
-29 30 -30 40 -46 36 -60 -4 -12 -2 -17 4 -13 6 3 14 1 18 -5 5 -9 1 -10 -14
-7 -17 5 -30 -4 -59 -41 -86 -107 -150 -164 -241 -218 -52 -30 -108 -59 -125
-64 -28 -8 -23 0 48 73 78 81 50 60 -70 -53 -53 -50 -95 -78 -95 -63 0 21 70
136 107 175 25 27 42 49 38 49 -15 0 -101 -105 -130 -159 -57 -106 -64 -26
-10 114 6 14 5 17 -3 10 -12 -12 -52 -145 -57 -191 -2 -17 -9 -66 -15 -108
-23 -142 2 -221 110 -343 l61 -68 -22 -17 c-25 -21 -61 -23 -92 -6 -71 37
-250 175 -297 229 -115 130 -143 190 -144 309 -1 100 38 256 84 337 24 42 35
52 66 57 20 4 54 4 75 1 37 -6 39 -8 39 -45 0 -22 4 -49 9 -62 5 -13 15 -45
22 -71 6 -27 24 -61 39 -75 15 -16 29 -43 33 -66 6 -40 13 -53 22 -44 3 3 1
18 -5 33 -12 31 2 125 25 183 16 36 96 147 127 175 11 9 15 17 9 17 -15 0
-131 -148 -143 -182 -6 -16 -14 -28 -19 -28 -5 0 -9 -16 -9 -35 0 -46 -11 -44
-38 8 -25 46 -23 34 3 -28 16 -37 16 -38 0 -25 -26 21 -60 120 -36 106 6 -4 1
9 -11 29 -20 34 -20 41 -9 102 6 35 14 101 17 146 3 45 7 92 10 105 7 35 61
63 114 60 43 -3 46 -5 70 -55z m-2654 -92 c-8 -13 100 -53 146 -54 20 -1 32
-4 26 -8 -5 -3 2 -9 16 -11 14 -3 24 -2 21 2 -2 3 10 4 28 2 18 -3 26 -7 20
-9 -8 -3 -2 -14 16 -29 16 -13 30 -24 32 -24 2 0 60 -55 128 -121 110 -108
163 -180 147 -197 -3 -3 -23 0 -43 6 -21 6 -51 13 -68 16 -28 5 -28 5 -7 -6
24 -12 31 -34 8 -25 -8 3 -17 1 -19 -6 -3 -8 -11 -4 -24 11 -23 25 -34 28 -31
10 4 -18 30 -37 51 -38 18 0 25 -40 7 -40 -5 0 -10 -18 -10 -40 0 -22 -4 -40
-10 -40 -6 0 -10 -73 -10 -200 0 -127 -4 -200 -10 -200 -6 0 -10 -35 -10 -84
0 -69 -4 -88 -21 -110 -11 -14 -27 -26 -35 -26 -17 0 -17 -1 -4 -34 5 -14 16
-26 24 -26 15 0 28 -47 15 -55 -21 -14 -102 172 -133 308 -9 37 -23 79 -32 93
-14 21 -16 39 -9 117 13 149 12 210 -3 215 -11 3 -12 0 -2 -17 7 -15 9 -45 4
-91 l-7 -70 -25 25 c-13 14 -28 25 -31 25 -13 0 -41 58 -41 84 0 14 18 59 40
101 22 42 40 88 39 103 0 15 -3 20 -6 12 -2 -8 -7 -22 -10 -30 -4 -8 -7 -17
-8 -20 -1 -3 -11 -27 -23 -54 l-22 -48 -29 53 c-15 30 -42 79 -59 109 -37 67
-85 207 -78 227 3 8 2 12 -3 9 -10 -6 -27 39 -25 64 1 8 2 25 3 38 0 13 5 21
10 17 5 -3 12 -1 16 5 4 6 10 8 15 5 5 -3 12 -1 15 5 4 6 3 10 -2 9 -4 -1 -16
-1 -26 0 -17 1 -17 4 4 40 19 34 24 38 36 25 8 -7 12 -18 9 -23z m2354 -46 c0
-5 16 -27 35 -47 19 -20 35 -38 35 -40 0 -2 -29 -1 -65 2 -36 3 -65 3 -65 -1
0 -3 -21 -11 -47 -17 -27 -6 -56 -14 -67 -18 -22 -9 37 88 99 163 l39 47 18
-40 c10 -21 18 -43 18 -49z m720 -330 c65 -23 115 -65 179 -151 55 -73 58 -79
44 -100 -19 -30 -99 -90 -205 -154 -49 -29 -88 -57 -88 -61 0 -5 11 -4 24 2
18 9 31 7 59 -6 69 -33 123 -148 158 -343 21 -119 21 -122 3 -153 -28 -48 -69
-74 -115 -74 -38 0 -46 7 -283 245 -134 135 -251 259 -260 277 -37 73 -47 142
-35 234 13 100 21 118 41 101 11 -8 23 -5 55 13 23 13 56 26 73 30 34 8 188
94 233 132 33 27 58 29 117 8z m279 -503 c0 -190 8 -265 40 -357 34 -102 40
-156 20 -182 -15 -17 -92 72 -117 137 -12 30 -29 89 -37 130 -38 183 -91 286
-164 322 l-30 14 92 54 c103 61 166 90 184 83 8 -3 12 -59 12 -201z"/>
<path d="M6613 9773 c-20 -4 -23 -11 -23 -51 l0 -47 85 0 85 0 0 46 c0 40 -3
48 -22 53 -25 6 -90 6 -125 -1z"/>
<path d="M257 8699 c-20 -23 -37 -45 -37 -48 0 -12 -61 -33 -80 -28 -11 3 -20
1 -20 -4 0 -5 4 -9 9 -9 5 0 11 -10 13 -22 3 -21 9 -23 65 -26 44 -2 69 2 86
13 25 16 51 12 75 -12 7 -7 28 -13 45 -13 28 0 36 6 60 50 37 66 34 94 -13 98
-19 2 -40 10 -47 18 -6 9 -35 18 -65 21 -54 5 -55 5 -91 -38z"/>
<path d="M908 7344 c-3 -3 -4 -42 -1 -87 5 -76 3 -87 -26 -147 -50 -104 -37
-117 42 -46 58 52 70 86 49 139 -9 23 -12 52 -9 74 5 27 2 42 -10 55 -16 18
-35 23 -45 12z"/>
<path d="M245 6949 c-11 -6 -31 -31 -44 -57 l-23 -46 22 -18 c23 -19 66 -24
87 -10 20 12 39 100 27 120 -13 20 -41 25 -69 11z"/>
<path d="M406 6848 c-14 -15 -17 -29 -12 -59 6 -35 3 -40 -29 -64 -19 -15 -38
-24 -43 -21 -5 3 -18 -5 -28 -19 -11 -14 -36 -28 -63 -35 -79 -19 -84 -26 -80
-124 2 -46 7 -87 11 -91 7 -7 32 -13 60 -14 17 -1 44 -61 27 -61 -5 0 -9 4 -9
10 0 6 -10 5 -25 -2 -15 -7 -25 -19 -25 -32 0 -16 2 -18 9 -7 10 15 78 18 93
3 5 -5 -3 -21 -17 -36 -26 -28 -28 -36 -26 -72 1 -12 -6 -29 -15 -39 -17 -17
-17 -19 -1 -47 20 -35 10 -64 -29 -78 -13 -5 -29 -21 -35 -34 -10 -20 -8 -31
11 -61 21 -33 22 -44 16 -120 -7 -85 5 -165 24 -165 6 0 10 5 10 10 0 6 15 10
33 10 56 0 67 22 67 130 l0 94 56 53 c60 57 169 143 182 143 15 0 59 46 55 58
-7 20 -20 14 -60 -25 -21 -20 -45 -38 -53 -39 -8 -2 -40 -15 -72 -30 -86 -41
-104 -23 -72 72 9 26 14 61 11 78 -5 34 13 75 62 141 45 59 73 115 67 131 -8
21 -22 17 -59 -16 -52 -45 -77 -37 -77 25 0 29 35 145 62 205 27 58 34 116 18
135 -16 19 -21 18 -44 -7z"/>
<path d="M827 6443 c-29 -189 -39 -219 -79 -247 -12 -9 -18 -16 -13 -16 6 0
22 -11 36 -24 25 -23 26 -27 16 -75 -10 -54 -4 -71 34 -92 26 -14 39 16 55
130 40 273 38 330 -11 340 -11 2 -23 8 -26 13 -3 5 -9 -8 -12 -29z"/>
<path d="M272 5138 c-6 -7 -14 -27 -18 -43 -4 -17 -16 -49 -27 -72 -22 -49
-18 -68 17 -84 19 -9 32 -8 55 2 33 15 38 28 19 62 -6 12 -13 46 -14 76 -4 59
-14 79 -32 59z"/>
</g>
</svg>
