<?xml version="1.0" standalone="no"?>
<!DOCTYPE svg PUBLIC "-//W3C//DTD SVG 20010904//EN"
 "http://www.w3.org/TR/2001/REC-SVG-20010904/DTD/svg10.dtd">
<svg version="1.0" xmlns="http://www.w3.org/2000/svg"
 width="720.000000pt" height="1280.000000pt" viewBox="0 0 720.000000 1280.000000"
 preserveAspectRatio="xMidYMid meet">
<metadata>
Created by potrace 1.16, written by Peter Selinger 2001-2019
</metadata>
<g transform="translate(0.000000,1280.000000) scale(0.100000,-0.100000)"
fill="#000000" stroke="none">
<path d="M0 6400 l0 -6400 3600 0 3600 0 0 1025 0 1025 -2254 0 c-1239 0
-2267 3 -2284 6 -33 7 -59 50 -48 79 6 16 65 21 81 6 6 -5 27 -12 48 -15 27
-5 37 -3 37 6 0 24 -40 78 -65 90 -14 6 -25 17 -25 24 0 14 23 40 41 46 14 5
-5 48 -21 48 -13 0 -13 47 -1 55 5 3 12 19 16 35 6 25 2 34 -19 51 -14 11 -26
29 -26 40 0 10 -4 19 -10 19 -5 0 -10 -5 -10 -11 0 -6 -17 -26 -37 -45 -20
-19 -41 -44 -47 -56 -6 -12 -17 -23 -23 -26 -16 -5 -18 74 -3 83 7 4 8 24 5
49 -7 45 3 64 46 87 23 12 21 23 -22 115 -17 36 -26 70 -22 82 4 16 -3 30 -26
51 -40 38 -51 85 -23 100 12 6 29 11 40 11 22 0 32 34 32 107 0 56 -12 78 -50
91 -35 13 -38 34 -10 62 26 26 52 25 81 -4 15 -14 42 -26 72 -30 45 -7 62 -26
37 -41 -11 -7 -14 -64 -4 -88 5 -13 11 -13 52 -1 65 20 74 34 55 92 -9 26 -18
54 -21 62 -12 35 -9 42 23 56 46 19 104 18 111 -1 9 -22 61 -42 127 -50 48 -5
57 -4 57 9 0 9 -16 24 -35 33 -54 26 -46 47 31 83 55 25 65 34 62 52 -2 19
-12 24 -53 31 -27 4 -67 5 -87 2 -29 -4 -38 -2 -38 9 0 25 -31 48 -56 42 -34
-9 -66 26 -62 67 3 30 6 32 48 38 71 8 106 32 126 84 16 42 16 47 1 62 -15 15
-19 13 -57 -20 -42 -39 -79 -47 -102 -24 -8 9 -21 11 -33 6 -11 -4 -49 -4 -84
-1 -59 5 -65 3 -82 -19 -20 -26 -25 -69 -9 -69 6 0 10 -5 10 -12 0 -6 -3 -8
-7 -5 -12 13 -38 -39 -43 -88 l-5 -50 -45 -3 c-60 -3 -90 -20 -107 -60 -11
-26 -19 -32 -43 -32 -31 0 -60 30 -60 63 0 22 -77 58 -100 46 -9 -4 -24 -32
-33 -62 -9 -30 -26 -65 -38 -78 l-21 -24 -26 33 c-46 56 -72 40 -72 -44 0 -53
-14 -84 -38 -84 -10 0 -35 -9 -57 -20 -45 -23 -63 -24 -116 -8 -54 16 -51 40
16 105 33 32 52 59 48 66 -21 36 -102 121 -127 134 -24 13 -27 19 -22 46 3 17
12 34 19 39 20 12 -6 43 -34 40 -13 -1 -70 -3 -127 -3 -91 0 -104 -2 -122 -21
-11 -12 -20 -28 -20 -35 0 -7 -10 -23 -21 -34 -27 -27 -43 -89 -24 -89 22 0
30 -58 11 -79 -9 -9 -19 -32 -22 -49 -4 -18 -7 -32 -8 -32 0 0 -19 -7 -41 -14
-25 -9 -46 -11 -56 -5 -16 8 -69 93 -69 109 0 4 15 13 33 20 78 30 87 36 87
53 0 22 -38 56 -62 57 -48 1 -62 30 -34 73 8 12 22 39 30 59 l16 37 -38 16
c-65 29 -67 31 -70 73 -2 33 1 44 17 54 12 7 21 21 21 30 0 10 5 18 10 18 6 0
10 -4 10 -10 0 -5 7 -10 15 -10 8 0 15 -3 15 -8 0 -8 71 -32 95 -32 8 0 17 10
19 22 3 13 7 34 10 48 3 14 12 50 20 80 9 30 16 71 16 91 0 32 -4 38 -28 47
-18 6 -34 22 -42 42 -12 29 -16 31 -47 26 -18 -3 -49 -9 -68 -12 -23 -4 -35
-2 -35 5 0 6 -13 25 -30 43 -35 36 -37 52 -10 71 39 27 40 130 1 120 -11 -3
-28 3 -39 14 -11 10 -28 24 -37 32 -13 11 -16 25 -13 63 5 44 2 52 -24 79 -36
35 -52 36 -79 5 -13 -15 -37 -27 -63 -31 -84 -13 -118 -31 -115 -61 1 -11 -25
-24 -48 -24 -12 0 -29 -7 -37 -16 -22 -22 -21 -111 3 -165 29 -68 36 -123 16
-143 -9 -9 -24 -16 -34 -16 -25 0 -51 -32 -51 -64 0 -15 -9 -45 -20 -67 -21
-41 -18 -62 14 -88 12 -10 21 -9 46 4 50 26 70 13 70 -46 0 -27 3 -49 6 -49 3
0 19 14 36 30 32 32 62 38 91 16 22 -17 21 -25 -3 -56 -13 -17 -20 -41 -20
-75 0 -58 -21 -95 -53 -95 -38 0 -117 33 -123 52 -3 10 4 33 15 51 l20 33 -28
-4 c-26 -4 -29 0 -38 35 l-9 38 -59 2 c-33 1 -67 2 -76 2 -25 1 -42 52 -31 92
8 30 6 37 -21 65 -21 21 -30 42 -32 71 -5 66 -19 83 -66 81 -22 -1 -44 3 -47
8 -4 5 -17 14 -29 19 -12 6 -32 26 -45 45 -17 24 -33 36 -53 38 -39 5 -55 19
-55 48 0 23 3 24 73 24 85 0 113 12 83 35 -11 8 -30 15 -42 15 -13 0 -26 5
-29 10 -3 6 -32 10 -63 10 l-57 0 25 19 c13 11 42 25 65 32 22 8 58 29 80 49
22 19 49 40 60 46 15 8 21 23 23 59 l3 48 54 -6 c47 -5 56 -3 75 18 17 19 21
30 15 52 -3 15 -9 46 -12 68 -8 58 -19 68 -71 62 -87 -10 -99 8 -57 82 37 64
32 111 -12 111 -39 0 -61 -17 -91 -70 -32 -55 -42 -55 -42 -1 0 57 -40 161
-62 161 -27 0 -48 -57 -49 -132 0 -35 -3 -57 -6 -50 -2 6 -13 12 -24 12 -10 0
-19 5 -19 11 0 19 -44 48 -72 49 l-28 0 0 2115 0 2115 3590 0 3590 0 0 1775 0
1775 -3600 0 -3600 0 0 -6400z m6782 3684 c50 -17 112 -73 138 -125 44 -85 32
-202 -29 -284 -25 -34 -27 -41 -14 -50 14 -10 14 -14 -2 -38 -22 -35 -88 -46
-136 -23 -29 13 -43 14 -94 4 -106 -20 -142 -17 -169 17 -22 27 -22 31 -7 41
15 11 14 14 -6 36 -63 67 -82 200 -42 288 60 133 208 188 361 134z m-639 0
c52 -18 116 -76 142 -130 22 -47 30 -130 16 -180 -32 -119 -134 -194 -265
-194 -165 0 -272 106 -270 266 2 153 105 252 265 253 36 1 86 -6 112 -15z
m-5839 -91 c10 -34 76 -315 76 -324 0 -5 -16 -9 -35 -9 -30 0 -35 3 -35 24 0
31 -13 39 -59 39 -31 0 -36 -3 -43 -31 -8 -28 -13 -32 -42 -32 l-34 0 14 58
c7 31 25 110 40 175 l28 117 42 0 c32 0 44 -4 48 -17z m406 -75 l1 -93 30 38
c23 27 39 37 60 37 16 0 29 -3 29 -6 0 -4 -16 -27 -35 -53 l-34 -47 21 -35
c11 -19 29 -49 40 -66 l20 -33 -36 0 c-30 0 -38 5 -57 40 -26 45 -39 43 -39
-6 0 -31 -2 -34 -30 -34 l-30 0 0 175 0 175 30 0 30 0 0 -92z m1740 -83 l0
-176 -42 1 c-24 1 -55 -1 -69 -5 -19 -5 -33 -1 -55 18 -27 24 -29 29 -29 106
0 69 3 84 21 102 23 22 55 28 92 15 21 -7 22 -5 22 53 l0 61 30 0 30 0 0 -175z
m452 83 l3 -92 25 37 c20 30 31 37 58 37 30 0 42 -12 24 -24 -5 -3 -21 -23
-36 -44 l-27 -40 41 -66 41 -67 -38 3 c-32 3 -41 9 -58 40 -26 49 -35 48 -35
-2 0 -39 -1 -40 -35 -40 l-35 0 0 175 0 175 35 0 34 0 3 -92z m728 28 l0 -65
35 15 c28 11 40 12 58 3 34 -18 37 -27 37 -136 l0 -103 -30 0 -30 0 0 90 c0
75 -3 92 -16 97 -37 14 -49 -10 -52 -101 l-3 -86 -29 0 -30 0 0 175 0 175 30
0 30 0 0 -64z m530 3 c0 -58 1 -60 23 -53 76 26 107 -8 107 -118 0 -71 -2 -81
-26 -105 -20 -20 -31 -24 -52 -18 -15 4 -46 6 -69 5 l-43 -1 0 176 0 175 30 0
30 0 0 -61z m-1480 -9 c0 -38 2 -40 30 -40 25 0 30 -4 30 -25 0 -21 -5 -25
-30 -25 l-31 0 3 -67 c3 -66 4 -68 31 -71 21 -3 27 -8 23 -19 -3 -8 -6 -19 -6
-24 0 -16 -73 -10 -92 8 -14 13 -18 31 -18 90 0 66 -2 75 -20 80 -13 3 -20 14
-20 29 0 17 6 24 20 24 17 0 20 7 20 40 0 38 2 40 30 40 28 0 30 -2 30 -40z
m-2096 -61 c24 -23 34 -121 17 -172 -15 -44 -59 -66 -97 -48 -14 6 -27 11 -29
11 -3 0 -5 -29 -5 -65 l0 -65 -30 0 -30 0 0 181 0 182 38 -5 c20 -3 46 -2 57
3 26 10 55 2 79 -22z m405 20 c17 -6 36 -19 41 -29 6 -10 10 -62 10 -115 l0
-97 -32 3 c-18 1 -48 -1 -66 -5 -50 -12 -82 13 -82 64 0 44 20 64 83 81 28 7
37 15 35 27 -5 25 -45 27 -58 3 -13 -25 -48 -28 -57 -5 -8 21 28 67 58 75 35
10 33 10 68 -2z m287 1 c39 -15 53 -39 54 -87 l0 -43 -61 0 c-60 0 -60 0 -57
-27 3 -32 44 -46 54 -19 9 23 64 21 64 -2 0 -51 -67 -84 -124 -62 -45 17 -55
38 -56 116 0 78 20 119 63 127 12 2 25 5 29 6 4 0 19 -4 34 -9z m201 -1 c32
-12 43 -26 43 -56 0 -31 -45 -33 -53 -2 -7 24 -40 23 -45 -2 -2 -10 9 -21 30
-29 75 -30 98 -83 59 -131 -40 -50 -151 -22 -151 38 0 19 5 23 30 23 24 0 30
-4 30 -21 0 -15 5 -20 22 -17 42 6 33 36 -16 58 -76 32 -89 107 -23 135 39 17
39 17 74 4z m202 -4 c26 -13 46 -56 33 -70 -14 -14 -50 -3 -55 16 -4 13 -12
20 -24 17 -29 -5 -21 -32 15 -50 73 -36 92 -81 53 -129 -15 -19 -29 -24 -66
-24 -37 0 -51 5 -66 24 -29 36 -25 61 10 61 21 0 30 -6 34 -21 7 -25 40 -22
45 3 2 12 -11 24 -43 39 -74 35 -85 107 -21 135 40 17 51 17 85 -1z m200 4
c17 -6 36 -19 41 -29 6 -10 10 -62 10 -115 l0 -97 -32 3 c-18 1 -48 -1 -66 -5
-50 -12 -82 13 -82 64 0 44 20 64 83 81 28 7 37 15 35 27 -5 25 -45 27 -58 3
-11 -22 -44 -28 -55 -11 -12 20 8 59 38 74 38 19 45 19 86 5z m318 -21 c17
-16 23 -33 23 -65 l0 -43 -61 0 c-60 0 -60 0 -57 -27 3 -32 44 -46 54 -19 9
23 64 21 64 -2 0 -49 -66 -84 -121 -64 -50 20 -59 37 -59 121 0 68 3 80 23 98
12 11 29 23 37 26 25 10 73 -2 97 -25z m1001 -4 c18 -21 22 -36 22 -98 0 -77
-15 -107 -61 -121 -31 -10 -84 3 -105 26 -23 26 -31 127 -13 170 24 60 111 73
157 23z m240 8 c8 -10 12 -52 12 -119 l0 -103 -30 0 -30 0 0 90 c0 75 -3 92
-17 97 -32 12 -53 -32 -53 -113 l0 -74 -30 0 -30 0 0 120 0 120 29 0 c16 0 31
-5 33 -11 2 -6 14 -5 33 5 33 17 63 13 83 -12z m530 -8 c15 -17 22 -38 22 -65
l0 -39 -61 0 c-60 0 -60 0 -57 -27 3 -32 44 -46 54 -19 4 10 18 16 35 16 22 0
29 -5 29 -20 0 -42 -64 -79 -115 -66 -52 13 -65 39 -65 124 0 69 3 81 23 99
12 11 29 23 37 26 28 11 75 -3 98 -29z m539 12 c7 -6 13 -53 15 -116 l3 -105
-32 -3 -33 -3 0 91 c0 72 -3 92 -15 96 -33 13 -45 -15 -45 -102 l0 -84 -35 0
-35 0 0 120 0 120 35 0 c19 0 35 -4 35 -9 0 -6 12 -3 28 4 28 15 58 12 79 -9z
m221 -12 c19 -22 22 -36 22 -120 l0 -95 -42 1 c-24 1 -54 -1 -68 -5 -34 -9
-80 27 -80 61 0 41 18 63 63 75 52 15 67 26 60 45 -8 21 -41 17 -55 -6 -12
-19 -48 -27 -60 -14 -15 14 11 60 43 77 43 22 86 16 117 -19z m391 25 c36 -13
61 -53 61 -99 l0 -30 -59 0 c-65 0 -73 -5 -64 -38 6 -26 53 -32 53 -7 0 11 11
15 36 15 32 0 35 -2 29 -22 -13 -43 -42 -63 -90 -63 -64 0 -87 27 -93 105 -5
75 11 118 52 136 38 16 36 16 75 3z m204 -3 c15 -8 27 -11 27 -5 0 5 14 9 30
9 l30 0 0 -149 c0 -134 -2 -151 -20 -174 -41 -52 -147 -44 -170 13 -7 16 -9
34 -5 39 9 15 46 7 60 -12 27 -37 75 -10 75 43 0 17 -3 19 -19 10 -36 -19 -78
-12 -100 16 -16 21 -21 41 -21 88 0 85 8 106 44 122 39 17 36 17 69 0z m285
-22 c19 -22 22 -36 22 -120 l0 -95 -42 1 c-24 1 -54 -1 -68 -5 -35 -9 -80 27
-80 64 0 39 19 60 70 75 33 10 46 19 48 35 4 28 -31 29 -51 0 -22 -30 -63 -23
-59 11 10 70 109 91 160 34z m-3048 -94 l0 -120 -35 0 -35 0 0 113 c0 63 3
117 7 120 3 4 19 7 35 7 l28 0 0 -120z m2280 63 c19 -91 25 -93 45 -14 17 70
18 71 50 71 l33 0 -52 -177 -51 -178 -34 -3 c-28 -3 -33 -1 -27 14 29 76 29
101 -4 209 -17 59 -34 113 -37 121 -4 10 4 14 29 14 34 0 35 -1 48 -57z
m-4749 -5556 c6 -12 28 -40 49 -62 26 -27 40 -53 44 -80 8 -49 -2 -65 -45 -74
-25 -5 -35 -13 -37 -29 -4 -27 -46 -57 -68 -48 -23 9 -15 78 9 82 11 1 21 5
24 7 5 5 -9 82 -29 163 -13 56 -4 88 22 74 11 -6 25 -20 31 -33z m-46 -527
c-4 -7 7 -8 33 -4 43 7 50 1 58 -43 6 -32 19 -42 54 -43 33 -1 70 -19 108 -51
27 -24 30 -32 26 -65 -4 -28 -3 -35 5 -24 8 11 16 12 38 4 21 -7 35 -6 55 6
21 11 30 12 39 3 14 -14 -4 -43 -28 -43 -7 0 -22 -20 -33 -45 -11 -25 -23 -45
-27 -45 -4 0 -18 24 -31 52 -21 48 -23 50 -40 35 -10 -10 -23 -17 -29 -17 -5
0 -29 -18 -53 -39 -49 -44 -59 -43 -114 7 -20 18 -47 38 -61 44 -25 11 -25 12
-25 145 0 114 2 133 16 133 8 0 12 -5 9 -10z m806 -282 c25 -31 24 -56 -5 -83
-20 -19 -23 -28 -17 -51 6 -25 13 -29 45 -32 32 -3 47 3 96 42 76 60 106 72
119 47 19 -34 -11 -103 -54 -127 -16 -9 -21 -25 -25 -80 -6 -86 -34 -130 -89
-139 -33 -5 -77 -45 -51 -45 5 0 10 -11 10 -24 0 -33 -48 -53 -89 -36 -34 14
-83 10 -88 -7 -3 -7 19 -13 64 -18 37 -3 76 -10 86 -16 14 -7 17 -5 17 12 0
12 20 41 45 66 49 49 66 50 117 8 16 -14 48 -26 77 -30 63 -9 78 -24 61 -64
-14 -34 -34 -45 -58 -32 -36 18 -81 21 -97 5 -8 -9 -15 -21 -15 -28 0 -7 -11
-23 -24 -35 l-24 -22 -38 46 c-33 41 -39 45 -50 31 -8 -11 -27 -16 -62 -16
-56 0 -72 -12 -48 -38 14 -16 12 -19 -27 -36 l-41 -18 -23 26 c-12 14 -27 26
-34 26 -14 0 -99 85 -99 100 0 7 -16 10 -42 8 -40 -3 -43 -1 -46 23 -4 36 54
206 87 254 30 45 51 106 51 154 0 18 9 40 20 51 21 21 28 80 10 80 -5 0 -10 5
-10 10 0 6 45 10 116 10 108 0 117 -2 135 -22z m-371 -297 c0 -26 -4 -51 -9
-56 -5 -6 -26 -55 -46 -110 -20 -55 -41 -108 -46 -117 -12 -22 -35 -23 -43 -3
-7 19 -30 19 -50 -1 -9 -8 -17 -12 -17 -7 -1 4 -4 19 -7 33 -3 14 -6 66 -6
115 -1 50 -4 95 -9 102 -9 14 37 49 79 59 16 3 40 17 54 29 14 12 34 27 45 33
30 17 55 -18 55 -77z m1280 -216 c0 -8 17 -22 38 -31 20 -10 45 -24 54 -32 10
-8 37 -16 60 -18 56 -5 68 -10 68 -28 0 -10 -15 -17 -45 -22 -25 -3 -48 -10
-51 -15 -9 -15 -56 -10 -75 7 -9 8 -41 22 -69 29 -65 17 -74 25 -66 62 9 39
86 82 86 48z m-41 -185 c42 -12 51 -25 44 -62 -3 -17 1 -37 10 -52 15 -22 15
-25 -2 -40 -10 -9 -25 -16 -33 -16 -32 0 -48 -12 -48 -36 0 -13 -5 -24 -11
-24 -5 0 -8 4 -5 8 3 5 -21 5 -52 1 -101 -14 -105 -10 -118 114 -5 47 -3 67 5
67 6 0 11 -3 11 -7 0 -5 16 -25 35 -46 31 -34 39 -38 68 -31 57 12 60 34 12
77 -19 17 -35 34 -35 38 0 18 71 23 119 9z m317 -85 c14 -35 20 -39 60 -36 28
3 47 -43 49 -117 3 -84 -22 -117 -45 -58 -7 18 -9 16 -15 -16 -10 -53 -25 -47
-25 8 0 37 3 45 15 40 8 -3 15 -2 15 2 0 13 -14 27 -52 56 -50 38 -75 115 -46
144 19 19 28 14 44 -23z m-1327 -259 c6 -7 8 -27 5 -45 -5 -24 -12 -31 -30
-31 -12 0 -30 -8 -39 -17 -23 -22 -14 -87 15 -118 25 -27 21 -55 -7 -55 -10 0
-43 25 -74 55 -55 53 -56 56 -52 99 4 35 1 48 -16 65 -27 27 -26 35 2 49 33
16 182 15 196 -2z m1775 -228 c8 -13 17 -41 21 -63 11 -69 -20 -83 -204 -92
-57 -3 -107 -1 -112 4 -5 5 -5 22 0 38 6 24 12 29 32 27 13 -2 35 -15 50 -28
32 -30 49 -31 49 -1 0 55 10 67 55 67 39 0 44 3 59 35 20 41 30 43 50 13z"/>
<path d="M6613 9773 c-20 -4 -23 -11 -23 -51 l0 -47 85 0 85 0 0 46 c0 40 -3
48 -22 53 -25 6 -90 6 -125 -1z"/>
<path d="M4090 8660 c-19 -11 -28 -19 -20 -20 28 -1 -12 -20 -43 -20 -21 0
-41 -15 -85 -62 -31 -34 -94 -99 -138 -143 -45 -45 -83 -89 -85 -100 -2 -10
-17 -26 -33 -35 -17 -9 -38 -32 -49 -50 -10 -19 -27 -44 -37 -55 -10 -11 -28
-40 -40 -65 -13 -25 -25 -47 -29 -50 -8 -6 -29 -40 -38 -60 -4 -8 -30 -37 -58
-65 -67 -65 -109 -129 -124 -188 -8 -33 -24 -61 -51 -89 -22 -22 -40 -46 -40
-54 0 -8 -4 -14 -9 -14 -5 0 -14 -15 -22 -32 -7 -18 -20 -40 -29 -48 -9 -8
-19 -23 -23 -32 -3 -10 -11 -18 -16 -18 -5 0 -12 -13 -16 -30 -4 -16 -12 -33
-19 -37 -24 -16 -54 -111 -56 -180 0 -7 -7 -13 -15 -13 -11 0 -15 -11 -15 -39
0 -22 -4 -41 -9 -43 -15 -5 -16 -217 -1 -283 19 -81 21 -476 3 -482 -7 -3 -13
-20 -13 -39 0 -19 -9 -54 -20 -76 -11 -23 -20 -49 -20 -57 0 -9 -9 -22 -19
-28 -11 -7 -22 -29 -26 -52 -4 -22 -15 -51 -26 -65 -11 -13 -22 -38 -25 -55
-4 -17 -11 -34 -15 -37 -5 -3 -9 -14 -9 -25 0 -10 -4 -19 -9 -19 -5 0 -20 -17
-32 -37 -13 -21 -25 -40 -28 -43 -4 -3 -12 -17 -20 -32 -8 -16 -20 -28 -27
-28 -7 0 -16 -9 -19 -20 -3 -11 -11 -20 -16 -20 -5 0 -9 -9 -9 -20 0 -11 -9
-25 -20 -32 -11 -7 -20 -20 -20 -28 0 -9 -13 -30 -30 -48 -16 -18 -30 -39 -30
-46 0 -7 -9 -31 -20 -54 -11 -22 -20 -48 -20 -57 0 -8 -6 -15 -13 -15 -18 0
-57 -50 -80 -102 -6 -16 -15 -28 -19 -28 -4 0 -8 -4 -8 -10 0 -9 -19 -35 -47
-65 -10 -11 -10 -14 0 -18 9 -4 9 -6 0 -6 -7 -1 -13 -8 -13 -16 0 -8 -9 -20
-20 -27 -15 -10 -20 -24 -20 -60 0 -27 -4 -48 -10 -48 -5 0 -10 -18 -10 -40 0
-22 -3 -40 -8 -40 -8 0 -32 -92 -32 -122 0 -8 -11 -35 -24 -59 -13 -24 -29
-62 -36 -84 -7 -22 -25 -53 -40 -68 -19 -19 -31 -47 -39 -87 -7 -36 -18 -60
-27 -64 -13 -5 -15 -20 -12 -86 3 -77 4 -80 40 -112 20 -18 48 -41 62 -51 l25
-17 -24 -53 c-30 -64 -31 -75 -4 -103 14 -15 19 -29 14 -43 -8 -26 -25 -26
-75 -1 -60 31 -73 27 -66 -17 17 -103 18 -133 7 -133 -15 0 -14 -53 1 -68 21
-21 67 -14 92 13 30 32 50 32 89 -1 l30 -25 24 25 c19 20 33 26 67 26 28 0 59
9 85 23 l41 23 -28 27 c-35 34 -68 34 -138 1 -29 -14 -64 -24 -76 -22 -27 4
-36 39 -14 57 11 9 13 26 9 66 -6 53 -5 54 28 74 19 12 45 21 58 21 22 0 23 2
19 60 -4 50 -1 61 13 65 34 11 148 -4 190 -25 60 -31 118 -50 123 -41 11 17
-8 53 -35 66 -35 18 -45 49 -26 78 23 36 11 47 -53 47 -32 0 -61 4 -65 10 -3
5 13 19 36 31 l42 21 -6 76 c-8 101 7 158 55 206 20 20 40 36 46 36 5 0 17 11
26 25 9 14 23 25 31 25 9 0 15 10 15 24 0 32 25 56 58 56 18 0 45 -16 82 -51
60 -55 91 -72 101 -56 4 6 19 4 39 -7 18 -9 34 -16 35 -16 5 0 -1 156 -10 251
-4 55 -4 98 1 101 18 11 53 -12 70 -44 21 -41 31 -48 73 -48 33 0 33 0 27 38
-3 20 -9 89 -12 152 -3 63 -8 122 -11 130 -10 25 -3 49 22 76 13 14 27 39 30
55 4 16 11 29 16 29 8 0 28 33 63 106 9 18 28 42 44 56 16 13 35 37 44 53 8
17 23 44 32 60 9 17 16 37 16 47 0 9 18 31 40 48 22 17 40 38 40 45 0 20 30
34 87 40 39 5 54 12 80 43 18 20 32 43 33 50 0 6 5 12 10 12 6 0 22 11 35 24
13 14 35 28 47 31 39 12 47 24 43 68 -19 228 -18 244 10 281 26 34 27 38 15
86 -10 43 -10 52 4 66 25 24 78 10 132 -36 56 -49 84 -52 84 -11 0 37 16 48
39 26 19 -17 62 -13 89 8 8 7 21 6 38 -2 14 -6 36 -11 49 -11 13 0 26 -6 29
-12 3 -9 8 -7 17 6 6 10 20 27 30 37 11 11 19 26 19 34 0 16 -61 80 -104 108
-16 11 -42 49 -62 93 -51 106 -61 111 -261 129 -13 1 -26 4 -29 8 -15 15 68
311 102 364 7 12 27 24 43 28 17 4 33 15 36 26 4 10 12 19 20 19 7 0 16 6 18
13 3 7 6 4 6 -6 1 -10 5 -16 10 -13 5 3 8 -2 7 -12 -1 -11 7 -18 24 -20 21 -2
31 7 63 58 20 33 37 62 37 64 0 3 23 39 51 81 44 67 49 79 37 92 -19 18 -37
10 -68 -31 -14 -19 -34 -40 -44 -46 -18 -11 -18 -9 -12 28 7 49 0 72 -24 72
-20 0 -27 42 -35 205 -3 74 0 96 15 122 10 17 22 52 25 77 4 25 13 50 20 56 8
6 11 18 8 26 -3 8 0 14 6 14 6 0 11 14 11 30 0 17 -4 30 -10 30 -5 0 -10 18
-10 40 0 29 4 40 15 40 16 0 18 16 18 147 0 73 -2 85 -21 101 -27 24 -28 34
-2 52 11 8 20 20 20 27 0 15 -22 20 -120 27 -61 4 -81 1 -110 -14z"/>
<path d="M2573 8048 c-18 -5 -48 -25 -68 -45 -19 -20 -35 -33 -35 -29 0 9
-122 -84 -133 -101 -4 -7 -15 -13 -22 -13 -27 0 -92 -75 -99 -114 -4 -20 -11
-36 -15 -36 -13 0 -51 -68 -51 -92 0 -11 -11 -31 -25 -44 -14 -13 -25 -32 -25
-44 0 -11 -18 -57 -40 -101 -22 -45 -40 -96 -40 -114 0 -24 -8 -39 -30 -56
-16 -13 -30 -30 -30 -36 0 -7 -9 -13 -19 -13 -11 0 -21 6 -24 13 -3 6 -11 -3
-19 -20 -14 -33 -133 -163 -148 -163 -9 0 -90 -146 -90 -162 0 -14 -52 -121
-62 -128 -19 -14 -30 -121 -26 -259 4 -168 16 -207 61 -204 15 1 27 -2 27 -8
0 -5 7 -9 15 -9 8 0 15 -4 15 -10 0 -5 10 -10 23 -11 21 -1 21 -1 -3 -9 -14
-4 -18 -9 -10 -9 8 -1 25 -4 38 -7 16 -5 22 -2 22 9 0 9 13 18 33 22 95 19
144 41 184 79 100 98 133 132 133 139 0 8 12 24 43 59 10 11 16 22 13 25 -3 3
1 15 9 27 8 11 15 28 15 37 0 9 7 19 15 23 8 3 15 14 15 24 0 10 3 22 7 26 20
20 33 154 32 335 0 126 3 191 9 187 6 -3 16 11 22 31 7 21 16 42 21 47 5 6 9
20 9 32 0 19 5 22 27 21 21 -2 30 5 41 27 14 28 80 96 139 144 82 66 173 169
173 197 0 7 21 35 47 61 45 44 47 50 51 111 3 48 1 68 -9 74 -11 7 -12 12 -1
29 19 30 15 37 -23 44 -19 4 -35 10 -35 15 0 10 -117 9 -157 -1z"/>
<path d="M4455 7522 c-54 -11 -126 -100 -103 -128 5 -7 33 -10 70 -8 34 1 70
-1 79 -7 22 -11 46 10 55 49 4 15 11 32 16 39 5 7 7 17 3 23 -4 6 -19 -2 -37
-22 -31 -32 -31 -32 -25 -7 8 31 -27 68 -58 61z"/>
<path d="M4262 6455 c-12 -14 -22 -31 -22 -39 0 -8 -3 -16 -7 -18 -15 -6 -46
-78 -46 -105 1 -81 17 -219 27 -225 23 -16 26 -4 26 117 0 124 0 126 36 196
44 89 36 132 -14 74z"/>
<path d="M4404 6240 c13 -120 23 -172 34 -179 6 -3 15 -17 20 -31 7 -19 3 -32
-19 -65 -26 -39 -28 -47 -22 -107 l6 -64 -52 -62 c-67 -80 -93 -81 -173 -4
-38 36 -51 83 -28 97 17 11 -3 28 -71 60 -55 27 -65 36 -88 84 -30 63 -81 106
-133 114 l-38 6 0 -49 c0 -27 -5 -52 -10 -55 -6 -4 -10 -38 -9 -78 2 -53 -3
-87 -19 -131 -12 -33 -22 -62 -22 -66 0 -21 68 -88 114 -111 71 -37 223 -82
250 -75 95 24 145 41 168 57 26 19 28 19 104 -1 50 -14 81 -17 87 -11 5 5 24
51 42 103 18 51 44 119 59 151 l26 57 -41 88 c-35 75 -40 95 -38 147 l3 60
-45 16 c-28 10 -52 29 -67 50 -40 59 -45 59 -38 -1z"/>
<path d="M3861 5401 c-6 -4 -12 -37 -13 -73 -2 -99 40 -149 85 -100 19 21 24
146 7 157 -22 13 -68 23 -79 16z"/>
<path d="M3965 4821 c-7 -24 -33 -35 -50 -21 -13 11 -45 4 -45 -10 0 -4 7 -10
15 -14 8 -3 15 -11 15 -17 0 -21 -71 -99 -90 -99 -20 0 -33 -33 -18 -48 11
-11 58 -1 100 20 17 8 30 24 34 43 3 17 17 41 29 55 24 26 45 70 45 96 0 21
-28 17 -35 -5z"/>
<path d="M2531 4057 c-11 -13 -26 -38 -32 -57 -6 -19 -22 -44 -35 -55 l-24
-21 37 -36 c31 -29 42 -34 60 -28 38 15 56 53 44 96 -8 28 -7 43 3 63 13 24
12 28 -9 43 -21 16 -23 16 -44 -5z"/>
</g>
</svg>
