<?xml version="1.0" standalone="no"?>
<!DOCTYPE svg PUBLIC "-//W3C//DTD SVG 20010904//EN"
 "http://www.w3.org/TR/2001/REC-SVG-20010904/DTD/svg10.dtd">
<svg version="1.0" xmlns="http://www.w3.org/2000/svg"
 width="720.000000pt" height="1280.000000pt" viewBox="0 0 720.000000 1280.000000"
 preserveAspectRatio="xMidYMid meet">
<metadata>
Created by potrace 1.16, written by Peter Selinger 2001-2019
</metadata>
<g transform="translate(0.000000,1280.000000) scale(0.100000,-0.100000)"
fill="#000000" stroke="none">
<path d="M0 6400 l0 -6400 3600 0 3600 0 0 6400 0 6400 -3600 0 -3600 0 0
-6400z m6796 3680 c151 -69 198 -267 95 -405 -25 -34 -27 -41 -14 -50 14 -10
14 -14 -1 -37 -26 -40 -88 -50 -140 -23 -24 13 -38 13 -90 3 -107 -20 -145
-17 -172 17 -21 27 -21 30 -6 41 16 11 15 14 -5 36 -56 60 -79 178 -51 269 23
77 102 146 195 169 50 12 138 3 189 -20z m-653 4 c29 -10 64 -34 92 -62 124
-125 89 -333 -68 -412 -134 -67 -310 -20 -371 98 -46 89 -41 199 13 284 41 65
129 108 221 108 36 0 87 -7 113 -16z m-5834 -111 c15 -56 71 -300 71 -307 0
-3 -16 -6 -35 -6 -30 0 -35 3 -35 24 0 34 -23 49 -64 42 -27 -5 -35 -12 -40
-36 -5 -26 -10 -30 -40 -30 l-34 0 14 58 c7 31 25 110 40 175 l28 117 42 0
c41 0 44 -2 53 -37z m403 -55 l3 -93 25 37 c20 31 31 38 58 38 17 0 32 -3 32
-6 0 -4 -16 -28 -35 -53 -30 -41 -33 -50 -21 -67 7 -10 25 -40 40 -66 l27 -48
-35 0 c-30 0 -38 5 -57 40 -26 45 -39 43 -39 -6 0 -31 -2 -34 -30 -34 l-30 0
0 175 0 175 30 0 29 0 3 -92z m1738 -83 l0 -176 -42 1 c-24 1 -55 -1 -69 -5
-19 -5 -33 -1 -55 18 -28 24 -29 29 -29 106 1 69 4 85 22 102 22 22 54 28 91
15 21 -7 22 -5 22 53 l0 61 30 0 30 0 0 -175z m452 83 l3 -92 25 37 c20 30 31
37 58 37 30 0 42 -12 24 -24 -5 -3 -21 -23 -36 -44 l-27 -40 40 -66 41 -66
-35 0 c-30 0 -39 6 -62 43 l-28 42 -3 -42 c-3 -42 -4 -43 -38 -43 l-34 0 0
175 0 175 35 0 34 0 3 -92z m728 27 l0 -66 30 16 c33 17 60 13 85 -11 11 -12
15 -40 15 -120 l0 -104 -30 0 -30 0 0 90 c0 75 -3 92 -16 97 -37 14 -49 -10
-52 -101 l-3 -86 -29 0 -30 0 0 175 0 175 30 0 30 0 0 -65z m530 4 c0 -58 1
-60 23 -53 76 26 107 -8 107 -118 0 -71 -2 -81 -26 -105 -20 -20 -31 -24 -52
-18 -15 4 -46 6 -69 5 l-43 -1 0 176 0 175 30 0 30 0 0 -61z m-1480 -9 c0 -38
2 -40 30 -40 25 0 30 -4 30 -25 0 -21 -5 -25 -30 -25 l-31 0 3 -67 c3 -66 4
-68 31 -71 21 -3 27 -8 23 -19 -3 -8 -6 -19 -6 -24 0 -16 -73 -10 -92 8 -14
13 -18 31 -18 90 0 66 -2 75 -20 80 -13 3 -20 14 -20 29 0 17 6 24 20 24 17 0
20 7 20 40 0 38 2 40 30 40 28 0 30 -2 30 -40z m-2096 -61 c24 -23 34 -121 17
-172 -15 -44 -59 -66 -97 -48 -14 6 -27 11 -29 11 -3 0 -5 -30 -5 -66 l0 -65
-27 3 -28 3 -3 179 -2 179 37 -5 c21 -3 47 -2 58 3 26 10 55 2 79 -22z m405
20 c17 -6 36 -19 41 -29 6 -10 10 -62 10 -115 l0 -97 -32 3 c-18 1 -48 -1 -66
-5 -50 -12 -82 13 -82 64 0 44 20 64 83 81 28 7 37 15 35 27 -5 26 -48 28 -55
3 -4 -14 -13 -21 -29 -21 -65 0 -15 96 52 99 6 1 25 -4 43 -10z m290 0 c38
-14 51 -35 51 -88 l0 -41 -61 0 c-60 0 -60 0 -57 -27 3 -32 44 -46 54 -19 4
10 18 16 35 16 35 0 39 -25 10 -61 -27 -34 -99 -34 -135 0 -23 22 -26 32 -26
96 0 79 20 120 63 128 12 2 25 5 28 6 3 0 20 -4 38 -10z m198 0 c32 -12 43
-26 43 -56 0 -31 -45 -33 -53 -2 -7 24 -40 23 -45 -2 -2 -10 9 -21 30 -29 75
-30 98 -83 59 -131 -40 -50 -151 -22 -151 38 0 18 5 23 26 23 18 0 28 -6 31
-21 7 -26 48 -23 48 4 0 12 -16 26 -45 40 -89 43 -75 132 22 146 4 1 19 -4 35
-10z m197 -3 c31 -13 53 -55 38 -71 -14 -14 -50 -3 -55 16 -4 13 -12 20 -24
17 -29 -5 -21 -32 15 -50 73 -36 92 -81 53 -129 -15 -19 -29 -24 -66 -24 -37
0 -51 5 -66 24 -29 36 -25 61 10 61 21 0 30 -6 34 -21 7 -25 40 -22 45 3 2 12
-11 24 -43 39 -74 35 -85 107 -21 135 39 17 40 17 80 0z m205 3 c17 -6 36 -19
41 -29 6 -10 10 -62 10 -115 l0 -97 -32 3 c-18 1 -48 -1 -66 -5 -50 -12 -82
13 -82 64 0 44 20 64 83 81 28 7 37 15 35 27 -5 25 -45 27 -58 3 -14 -27 -60
-29 -60 -3 0 36 46 79 86 81 6 1 25 -4 43 -10z m318 -21 c17 -16 23 -33 23
-65 l0 -43 -61 0 c-60 0 -60 0 -57 -27 3 -32 44 -46 54 -19 8 20 64 22 64 2 0
-69 -102 -98 -158 -45 -19 17 -22 31 -22 98 0 68 3 80 23 98 12 11 29 23 37
26 25 10 73 -2 97 -25z m1001 -4 c18 -21 22 -36 22 -98 0 -65 -3 -75 -26 -97
-35 -33 -104 -34 -136 -2 -27 28 -37 127 -17 174 24 60 111 73 157 23z m240 8
c8 -10 12 -52 12 -119 l0 -103 -30 0 -30 0 0 90 c0 75 -3 92 -17 97 -32 12
-53 -32 -53 -113 l0 -74 -30 0 -30 0 0 120 0 120 29 0 c16 0 31 -5 33 -11 2
-6 14 -5 33 5 33 17 63 13 83 -12z m529 -4 c17 -16 23 -33 23 -65 l0 -43 -61
0 c-60 0 -60 0 -57 -27 3 -32 44 -46 54 -19 4 10 18 16 35 16 22 0 29 -5 29
-20 0 -42 -64 -79 -115 -66 -52 13 -65 39 -65 124 0 69 3 81 23 99 12 11 29
23 37 26 25 10 73 -2 97 -25z m540 8 c7 -6 14 -56 17 -118 l6 -108 -35 0 -35
0 0 90 c0 72 -3 92 -15 96 -33 13 -45 -15 -45 -102 l0 -84 -35 0 -35 0 0 120
0 120 35 0 c19 0 35 -4 35 -9 0 -6 12 -3 28 4 28 15 58 12 79 -9z m218 -7 c17
-16 21 -36 23 -120 l4 -100 -44 1 c-23 1 -54 -1 -68 -5 -35 -9 -80 27 -80 64
0 39 19 60 70 75 33 10 46 19 48 35 4 28 -33 29 -50 1 -12 -19 -48 -27 -60
-14 -15 14 11 60 43 77 40 21 85 16 114 -14z m394 20 c36 -13 61 -53 61 -99
l0 -30 -59 0 c-65 0 -73 -5 -64 -38 6 -26 53 -32 53 -7 0 11 11 15 36 15 32 0
35 -2 29 -22 -4 -13 -18 -34 -33 -47 -21 -19 -33 -22 -65 -18 -59 8 -80 35
-85 107 -5 75 11 118 52 136 38 16 36 16 75 3z m204 -3 c15 -8 27 -11 27 -5 0
5 14 9 31 9 l30 0 -3 -155 c-3 -145 -4 -156 -26 -177 -17 -18 -34 -23 -73 -23
-43 0 -54 4 -75 29 -14 15 -24 36 -22 45 5 25 45 26 60 2 27 -43 78 -16 78 40
0 18 -3 20 -12 11 -7 -7 -29 -12 -49 -12 -55 0 -79 34 -79 114 0 85 8 106 44
122 39 17 36 17 69 0z m285 -22 c19 -22 22 -36 22 -120 l0 -95 -42 1 c-24 1
-55 -1 -70 -5 -21 -6 -32 -2 -52 18 -48 48 -29 99 44 121 33 10 46 19 48 35 4
28 -33 29 -50 1 -7 -11 -23 -20 -36 -20 -20 0 -23 4 -20 33 6 65 108 86 156
31z m-3048 -94 l0 -120 -35 0 -35 0 0 113 c0 63 3 117 7 120 3 4 19 7 35 7
l28 0 0 -120z m2280 63 c19 -90 25 -92 45 -14 18 69 20 71 51 71 l32 0 -24
-82 c-79 -281 -76 -273 -113 -276 -28 -3 -33 -1 -27 14 28 74 28 99 -3 207
-18 59 -34 113 -37 122 -5 12 2 15 28 15 34 0 35 -1 48 -57z m-270 -1785 c-1
-238 -2 -442 -2 -453 0 -11 1 -235 1 -497 l1 -478 -145 0 -145 0 0 -30 0 -30
130 0 c85 0 130 -4 130 -11 0 -7 -16 -8 -45 -3 -63 9 -123 -16 -175 -72 -54
-58 -80 -123 -87 -209 -7 -96 9 -150 61 -201 63 -63 139 -76 228 -39 17 7 18
-23 20 -511 l3 -519 38 -3 37 -3 0 45 c0 25 5 46 10 46 6 0 10 -7 10 -15 0
-10 10 -15 33 -15 37 0 74 -31 61 -51 -5 -9 -2 -10 9 -6 12 5 17 1 17 -13 0
-11 5 -20 10 -20 6 0 10 -5 10 -11 0 -6 -10 -10 -22 -9 -56 5 -68 1 -68 -24 0
-14 5 -28 10 -31 6 -3 10 3 10 14 0 15 5 19 16 14 9 -3 19 -1 23 5 4 6 21 7
49 2 48 -8 57 -14 47 -29 -7 -12 -52 -5 -71 11 -8 6 -13 0 -16 -17 -3 -14 -1
-25 4 -25 6 0 8 -7 4 -15 -3 -10 3 -17 19 -21 13 -3 30 -13 37 -21 7 -8 22
-19 35 -24 24 -9 32 -29 12 -29 -6 0 -9 -7 -5 -15 4 -12 -4 -15 -44 -15 -28 0
-50 5 -50 10 0 6 -11 10 -25 10 -14 0 -25 -4 -25 -10 0 -5 -22 -10 -50 -10
l-49 0 -3 128 -3 127 -42 0 -43 0 -40 113 c-22 62 -43 124 -46 137 -6 25 -8
25 -108 25 l-102 0 -89 -242 c-49 -134 -92 -253 -96 -265 -8 -21 -15 -23 -71
-23 l-62 0 27 28 c49 51 57 96 57 308 l0 194 -85 0 -85 0 0 -189 c0 -152 -3
-191 -14 -200 -20 -17 -54 2 -58 31 -2 13 -6 22 -10 21 -5 -2 -42 -3 -84 -3
l-77 0 7 -47 c7 -53 37 -103 75 -127 25 -15 18 -15 -119 -15 -111 0 -140 2
-125 11 35 19 66 52 88 93 19 36 22 59 25 233 l4 192 -86 0 -86 0 0 -170 c0
-168 0 -171 -25 -195 -26 -27 -41 -30 -79 -15 -38 14 -49 71 -45 235 l4 140
-82 3 -83 3 0 -184 c0 -113 4 -197 12 -218 16 -48 46 -88 82 -110 l31 -19
-107 0 -108 0 0 -30 c0 -33 4 -34 91 -30 30 1 51 -4 61 -14 9 -8 31 -22 49
-30 19 -8 27 -15 18 -15 -9 -1 -26 -10 -39 -21 l-23 -20 23 -23 c14 -12 33
-20 45 -19 19 3 19 3 3 -14 -16 -16 -18 -16 -46 14 -29 31 -55 45 -35 20 6 -7
13 -25 17 -40 5 -22 3 -28 -9 -28 -9 0 -14 3 -12 8 3 4 -1 21 -8 37 l-13 30 0
-43 c1 -26 7 -46 14 -49 13 -5 72 19 137 53 31 17 32 13 18 -48 -6 -27 -5 -42
6 -57 35 -50 -26 -56 -72 -7 -22 24 -36 31 -46 26 -8 -5 -19 -4 -28 3 -12 10
-13 9 -6 -8 9 -23 9 -39 0 -77 -10 -39 1 -79 20 -71 12 4 11 -3 -6 -31 -39
-67 -8 -194 53 -215 22 -8 28 -7 28 3 0 8 -7 16 -15 20 -28 10 -55 69 -55 118
0 57 18 73 98 83 51 7 73 25 30 25 -18 0 -20 2 -8 9 8 6 18 7 22 5 4 -3 8 2 8
10 0 9 -6 16 -12 17 -58 4 -101 -1 -114 -12 -13 -10 -17 -10 -25 2 -13 20 -11
35 5 48 12 10 20 9 40 -4 26 -17 77 -14 104 7 8 7 17 7 27 -2 17 -14 17 -13
17 30 0 43 0 44 -17 30 -20 -16 -20 4 0 24 17 17 20 62 5 71 -13 8 -13 52 1
60 6 4 9 23 8 44 -2 20 0 37 4 39 4 1 50 2 102 2 l95 0 -16 -25 c-25 -38 7
-33 36 5 27 35 45 38 53 9 5 -17 -6 -34 -44 -71 -39 -40 -49 -46 -49 -30 0 11
-6 25 -14 31 -11 9 -17 4 -30 -26 -9 -21 -28 -56 -41 -78 -26 -41 -31 -74 -16
-90 11 -13 22 -197 13 -212 -4 -6 -28 -13 -52 -15 -35 -2 -47 -8 -55 -25 -13
-30 -25 -29 -25 2 0 27 -9 32 -27 14 -8 -8 -13 -3 -17 18 -15 62 -56 82 -56
26 0 -56 46 -114 65 -83 11 17 23 1 17 -22 -4 -17 -2 -20 11 -15 14 5 16 0 12
-36 -2 -23 -9 -58 -15 -77 -13 -45 -13 -90 0 -90 15 0 -22 -49 -37 -50 -7 0
-13 -5 -13 -10 0 -7 -13 -9 -32 -5 -27 5 -55 -5 -161 -59 -71 -37 -138 -66
-150 -66 -12 0 -37 -9 -56 -21 -44 -27 -69 -31 -78 -14 -5 7 -21 15 -38 17
-16 2 -33 7 -37 12 -8 11 2 77 13 92 5 6 6 14 2 18 -4 4 -1 11 6 16 12 7 12
14 -2 42 -12 25 -16 66 -17 153 -1 66 -1 123 -1 128 1 7 41 -29 41 -38 0 -3
-8 -5 -17 -6 -15 0 -14 -2 3 -9 11 -4 33 -22 47 -40 24 -27 27 -29 27 -11 0
11 -12 28 -26 38 -24 15 -25 17 -8 23 18 7 18 7 -2 14 -11 3 -27 19 -35 34 -8
15 -17 29 -21 32 -5 4 -11 130 -9 191 1 9 16 21 34 27 l32 12 -31 -5 -31 -4
-2 70 c-1 38 2 69 5 69 4 0 31 -16 60 -35 l53 -35 40 16 c23 9 41 21 41 27 0
7 -4 7 -12 -1 -19 -19 -56 -14 -68 8 -6 11 -16 20 -23 19 -9 0 -9 -2 1 -6 13
-5 17 -33 4 -33 -4 0 -23 11 -42 25 -19 14 -39 25 -46 25 -12 0 -26 79 -20
115 2 17 12 20 69 22 54 2 67 0 67 -12 0 -8 5 -15 10 -15 6 0 10 7 10 15 0 12
14 15 65 15 l65 0 0 30 0 30 -115 0 -116 0 3 78 3 77 71 6 c83 8 121 25 162
75 68 83 45 214 -48 268 -26 15 -59 22 -125 26 l-90 5 0 365 0 365 28 3 27 3
0 -111 0 -111 38 3 37 3 5 105 5 105 43 3 c37 3 42 6 42 28 l0 24 -115 0 -114
0 -3 123 -3 122 -40 6 -40 6 43 2 42 1 0 130 0 130 130 0 130 0 0 30 0 30
-120 0 -120 0 -2 488 c-2 268 -2 686 0 930 l2 442 926 0 926 0 -2 -432z
m-1930 207 l0 -214 -76 -73 c-42 -40 -87 -90 -100 -110 -66 -103 7 -237 129
-240 26 0 52 -7 58 -14 8 -10 8 -14 0 -14 -7 0 -11 -31 -11 -95 l0 -95 -45 0
c-94 0 -155 -64 -155 -162 0 -52 27 -91 134 -198 l66 -64 0 -173 0 -173 -487
-2 c-269 -2 -683 -2 -920 0 l-433 2 0 609 0 608 77 5 c150 10 276 -65 342
-202 35 -75 37 -201 3 -272 -12 -26 -22 -49 -22 -52 0 -4 -19 -26 -42 -50 -52
-55 -125 -94 -198 -108 -67 -12 -104 -38 -130 -88 -43 -85 -9 -179 79 -216 43
-18 78 -18 155 1 83 21 110 33 186 79 161 97 275 264 306 451 39 227 -35 450
-199 600 -45 41 -102 81 -152 106 -101 50 -253 83 -342 75 l-63 -5 0 149 0
150 920 0 920 0 0 -215z m2210 193 c0 -12 -6 -37 -12 -56 -11 -28 -10 -38 5
-64 21 -37 22 -72 2 -88 -9 -8 -15 -30 -15 -56 0 -32 4 -44 15 -44 19 0 19
-31 0 -135 -8 -44 -15 -82 -16 -85 0 -3 -5 11 -10 30 -5 19 -12 144 -15 278
l-7 242 27 0 c20 0 26 -5 26 -22z m285 -20 l-6 -43 18 35 c38 75 54 57 24 -28
-12 -32 -25 -78 -30 -102 -5 -25 -12 -53 -16 -62 -11 -27 13 -22 65 12 25 16
50 30 57 30 7 0 17 9 23 21 12 22 48 39 68 32 21 -9 13 -32 -14 -39 -38 -10
-114 -54 -114 -66 0 -6 14 -8 36 -4 l35 7 -17 -26 c-9 -14 -14 -28 -11 -32 4
-3 -9 -25 -28 -48 -33 -39 -34 -43 -17 -57 9 -9 24 -18 32 -21 10 -4 8 -6 -7
-6 -12 -1 -33 3 -47 8 -17 7 -27 6 -35 -3 -8 -10 -4 -12 19 -8 25 4 28 2 23
-18 -3 -11 -32 -44 -64 -73 -34 -29 -57 -57 -54 -65 2 -7 1 -11 -4 -8 -8 5
-33 -41 -33 -61 0 -4 -15 -28 -32 -53 -28 -40 -31 -52 -30 -116 0 -60 6 -83
32 -136 17 -36 50 -86 73 -111 25 -30 34 -44 22 -39 -74 28 -140 145 -147 256
-2 37 -6 69 -9 72 -3 3 -16 -19 -31 -48 -21 -45 -25 -49 -26 -26 0 33 81 191
119 233 33 35 52 77 26 55 -25 -21 -29 -4 -6 27 11 15 32 59 46 98 35 97 32
155 -5 110 -7 -8 -18 -15 -26 -15 -7 0 -19 -8 -26 -18 -19 -27 -38 -36 -38
-18 0 9 29 46 64 84 61 64 64 69 51 92 -16 30 -45 154 -45 193 0 25 3 27 45
27 l45 0 -5 -42z m1344 -45 c-1 -49 -3 -80 -6 -70 -5 18 -5 18 -19 0 -13 -17
-16 -16 -44 15 -16 17 -33 32 -37 32 -5 0 -14 14 -22 31 -7 17 -24 41 -38 55
l-24 24 96 0 95 0 -1 -87z m-467 -40 c5 -18 17 -37 28 -43 30 -16 28 -76 -2
-86 -28 -8 -88 -53 -85 -62 1 -4 -10 -23 -25 -42 -24 -32 -26 -39 -16 -80 5
-25 12 -65 15 -90 3 -25 9 -47 12 -50 4 -3 18 -27 32 -53 23 -48 23 -49 4 -63
-11 -8 -37 -19 -58 -25 -21 -5 -40 -16 -43 -24 -9 -21 -22 -26 -172 -52 -23
-4 -47 1 -75 15 -23 11 -49 22 -58 25 -16 5 -58 83 -80 149 -11 32 -10 42 7
77 10 23 25 41 32 41 7 0 10 5 7 10 -10 17 15 40 44 40 25 1 25 1 7 15 -16 12
-17 17 -6 30 7 8 16 15 20 15 8 0 22 -35 24 -59 1 -8 16 -19 34 -23 49 -13 44
-43 -10 -53 -29 -5 -36 -9 -23 -13 11 -2 26 -9 34 -16 11 -8 13 -8 8 1 -4 6
-3 14 3 18 5 3 10 1 10 -6 0 -9 3 -9 14 0 8 6 18 10 22 9 5 -1 24 8 42 22 28
21 32 29 32 71 0 72 -30 102 -100 100 -32 0 -65 -8 -86 -20 -45 -27 -53 -3
-11 37 30 28 37 30 105 29 75 -1 112 14 82 33 -8 5 -23 10 -33 10 -10 0 -17 6
-15 13 6 18 58 40 103 44 56 5 80 19 93 57 10 27 17 32 44 31 27 0 33 -4 40
-32z m-1165 -650 c2 -21 4 -90 6 -153 1 -63 6 -120 10 -127 12 -19 6 -184 -7
-180 -6 2 -12 18 -14 35 -2 18 -6 32 -10 32 -4 0 -8 102 -9 227 -2 171 0 224
9 215 6 -6 13 -28 15 -49z m873 -68 c9 -11 23 -13 50 -9 33 5 43 2 65 -20 15
-15 40 -29 56 -33 31 -6 39 -27 14 -36 -11 -5 -12 -12 -4 -37 6 -16 15 -28 19
-25 13 8 21 -25 10 -45 -6 -11 -26 -22 -48 -25 -20 -3 -45 -8 -55 -10 -33 -6
-88 19 -120 55 -56 65 -66 79 -73 105 -5 22 -2 27 25 38 22 8 31 18 31 34 0
26 12 30 30 8z m-1031 -624 c13 -23 83 -36 112 -20 14 7 24 7 33 0 15 -13 20
-107 6 -116 -5 -3 -15 -16 -21 -27 -10 -18 -9 -20 6 -14 25 9 37 -2 24 -26
-10 -19 -9 -20 26 -16 31 3 39 1 43 -14 4 -18 6 -18 24 -2 29 27 47 1 51 -74
l3 -61 -41 -6 c-22 -3 -101 -5 -175 -3 l-135 3 -2 85 c-3 89 6 204 14 182 4
-10 8 -10 19 -1 21 18 17 41 -12 64 -20 16 -25 26 -20 43 9 27 32 29 45 3z
m1391 -74 c0 -24 44 -56 85 -61 22 -3 54 -8 72 -10 46 -6 53 -13 53 -55 0 -72
-10 -99 -39 -106 -36 -8 -74 13 -144 79 -32 30 -64 57 -72 60 -17 6 -20 32 -5
41 16 10 12 28 -5 21 -10 -4 -15 1 -15 14 0 23 10 26 28 8 9 -9 13 -7 18 5 7
20 24 23 24 4z m-766 -199 c36 -34 66 -70 66 -80 0 -16 -10 -18 -122 -17 -68
1 -115 3 -106 6 9 2 20 13 23 23 14 44 76 61 100 27 l15 -21 0 26 c0 22 -6 27
-37 33 -60 11 -88 65 -34 65 21 0 45 -16 95 -62z m10 -219 c-5 -9 1 -10 22 -4
87 24 234 -11 234 -56 0 -12 7 -19 20 -19 11 0 21 -4 21 -10 1 -5 2 -15 3 -22
0 -6 7 -13 14 -16 7 -2 11 2 10 8 -2 7 3 15 10 17 7 3 12 -4 12 -17 0 -12 5
-18 10 -15 6 4 10 -5 10 -19 0 -14 -4 -26 -10 -26 -5 0 -10 -13 -10 -30 0 -20
5 -30 15 -30 15 0 20 -12 9 -23 -11 -11 -11 -88 0 -95 14 -9 36 -92 36 -137 0
-20 5 -35 12 -35 7 0 6 -6 -4 -17 -22 -26 -31 -72 -17 -89 6 -8 22 -14 35 -14
13 0 24 -6 24 -12 0 -10 3 -9 9 1 5 8 14 10 22 5 7 -4 31 -7 54 -6 29 2 36 0
25 -8 -10 -6 -11 -10 -2 -10 6 0 12 -9 12 -19 0 -13 -6 -19 -17 -17 -10 2 -40
-3 -68 -11 -27 -8 -65 -14 -82 -13 -20 0 -33 -4 -33 -11 0 -7 -7 -21 -16 -30
-9 -10 -18 -33 -20 -51 -1 -18 -5 -45 -7 -60 -3 -22 0 -28 14 -28 12 0 21 -10
25 -26 4 -17 11 -23 21 -20 8 3 20 6 27 6 9 0 12 9 9 24 -5 22 -2 24 18 19 13
-4 18 -8 11 -11 -20 -6 -14 -42 7 -42 25 0 38 -20 14 -21 -16 0 -16 -1 2 -8
11 -5 22 -4 23 0 5 12 29 11 37 -1 4 -6 1 -18 -7 -27 -11 -14 -10 -15 9 -9 12
4 24 2 28 -4 10 -16 42 -12 50 8 8 21 5 28 -12 24 -7 -2 -13 2 -13 8 0 5 9 10
19 10 26 0 34 15 22 38 -14 26 -2 36 15 14 11 -14 15 -14 22 -4 7 11 12 11 25
-2 8 -9 17 -21 19 -27 2 -6 21 -13 43 -16 22 -2 42 -7 45 -11 8 -12 49 -12 56
-1 3 6 17 -2 30 -17 27 -29 27 -34 -5 -37 -11 -1 -21 -7 -21 -14 0 -6 -4 -15
-10 -18 -5 -3 -7 0 -5 8 3 7 1 24 -4 38 -5 13 -10 18 -10 11 -1 -9 -8 -11 -22
-7 -14 5 -25 1 -34 -12 -14 -17 -14 -17 -15 0 0 15 -3 16 -20 7 -23 -13 -27
-40 -5 -40 8 0 15 -4 15 -9 0 -5 -7 -11 -15 -15 -20 -7 -19 -24 3 -29 12 -3
13 -5 2 -6 -8 0 -22 4 -30 9 -13 9 -13 11 0 20 10 7 12 12 4 18 -14 9 -25 52
-13 52 5 0 9 5 9 10 0 15 -59 8 -72 -8 -9 -10 -9 -19 1 -34 11 -17 10 -23 -3
-36 -14 -14 -17 -14 -37 4 -12 10 -30 18 -40 16 -10 -2 -19 1 -19 7 0 5 10 11
23 13 20 3 20 4 -5 9 -15 3 -26 3 -25 0 1 -3 -4 -16 -11 -28 -10 -18 -10 -28
-1 -44 8 -15 8 -24 0 -32 -8 -8 -11 -8 -11 1 0 9 -10 11 -35 6 -30 -5 -35 -3
-35 12 -1 18 -1 18 -11 2 -5 -10 -18 -18 -27 -18 -16 1 -16 1 0 13 15 12 15
14 -3 25 -16 10 -19 9 -19 -3 0 -8 -5 -15 -11 -15 -6 0 -9 9 -6 20 4 15 0 20
-13 20 -10 0 -26 3 -36 7 -10 3 -15 2 -12 -3 4 -5 -5 -10 -18 -10 -25 -2 -54
-20 -54 -35 0 -4 13 -4 29 1 25 7 28 6 24 -11 -6 -22 15 -26 23 -4 9 22 24 18
24 -5 0 -11 5 -20 11 -20 6 0 9 -6 6 -12 -2 -7 -11 -12 -21 -10 -11 2 -16 -4
-16 -19 0 -19 4 -21 30 -16 51 11 73 -8 51 -42 -7 -11 -13 -9 -30 8 -17 17
-29 20 -65 16 -35 -4 -45 -2 -50 11 -5 14 -9 15 -19 4 -9 -10 -9 -13 1 -17 6
-3 12 -13 12 -23 0 -10 4 -21 9 -24 5 -3 7 -15 4 -26 -6 -22 8 -26 37 -10 15
8 23 5 39 -16 23 -29 29 -56 9 -36 -7 7 -16 12 -21 12 -4 0 13 -23 40 -51 26
-28 55 -63 63 -77 8 -15 22 -32 30 -38 8 -7 15 -26 16 -43 1 -25 -1 -29 -12
-20 -14 11 -34 5 -34 -11 0 -5 7 -7 15 -4 8 4 15 2 15 -3 0 -21 -86 -47 -162
-49 l-78 -1 0 52 c0 36 5 57 16 66 11 9 14 22 9 47 l-6 34 48 -7 48 -7 -62 61
-62 60 4 63 c3 35 7 99 11 143 9 114 6 144 -16 176 -11 15 -20 32 -20 38 0 6
-8 15 -18 20 -13 7 -17 18 -14 39 2 18 -2 33 -12 41 -39 33 -4 56 51 34 18 -7
35 -13 37 -13 16 0 54 51 60 80 17 84 30 93 41 29 4 -22 9 -39 11 -37 5 5 16
203 15 252 -2 34 0 37 14 26 20 -16 20 2 1 33 -17 26 -52 135 -61 192 -15 88
-87 158 -191 185 -55 14 -152 7 -177 -13 -24 -20 -87 -118 -87 -137 0 -9 -8
-25 -19 -34 -22 -20 -39 -103 -40 -203 -1 -84 -9 -109 -45 -142 -14 -14 -26
-30 -26 -37 0 -7 -10 -20 -22 -28 -32 -23 -28 -78 7 -109 l28 -23 -32 -27
c-24 -20 -33 -37 -37 -69 -3 -24 -10 -45 -15 -49 -15 -9 1 -149 17 -149 8 0
14 7 14 17 0 9 3 13 7 9 4 -4 13 8 19 26 6 18 19 35 29 36 15 4 17 -1 10 -35
-8 -45 -21 -63 -43 -61 -56 4 -65 -9 -32 -44 11 -12 16 -24 11 -27 -4 -3 -8
-17 -7 -30 1 -24 -27 -51 -40 -38 -4 4 -3 27 3 52 l10 45 -33 -5 c-24 -3 -36
1 -42 12 -12 21 -34 7 -30 -20 2 -14 -3 -23 -15 -25 -10 -2 -16 2 -15 9 2 8
-6 15 -17 17 -12 1 -26 12 -33 23 -11 17 -9 23 15 48 52 54 56 61 44 75 -9 11
-6 23 9 50 12 19 19 40 16 45 -3 5 1 11 9 15 8 3 15 14 15 25 0 16 -6 19 -35
18 -19 -1 -35 -7 -35 -14 0 -6 -4 -14 -8 -17 -4 -2 -8 5 -8 17 0 27 27 51 39
34 5 -9 12 -6 25 8 9 11 25 19 36 17 10 -2 22 2 27 9 6 10 11 7 18 -11 8 -19
10 -21 10 -6 1 12 6 16 16 12 8 -3 15 -2 15 3 0 11 -81 32 -92 25 -5 -3 -15
-1 -23 6 -10 8 -19 9 -35 0 -17 -9 -22 -8 -29 12 -12 33 7 68 36 68 12 0 23 3
23 8 0 4 11 8 25 8 21 2 25 -2 20 -17 -5 -14 -1 -19 11 -19 14 0 14 -3 4 -15
-15 -18 -7 -30 15 -21 13 5 14 18 9 85 -9 109 -3 128 46 141 57 15 52 34 -6
25 -36 -5 -45 -4 -42 7 3 8 24 14 53 16 45 3 47 4 25 15 -38 19 -37 38 1 27
35 -10 52 -4 30 10 -12 7 -12 12 2 34 9 14 17 36 17 48 0 13 8 39 18 58 11 19
22 48 26 64 8 32 42 85 69 104 10 8 16 20 13 28 -3 8 1 14 9 14 8 0 18 6 22
13 4 7 20 18 36 24 15 7 27 19 27 28 0 8 5 15 11 15 5 0 7 -5 3 -11z m-825
-104 c32 -16 41 -33 41 -76 0 -27 3 -29 38 -30 38 -1 37 -3 -10 -13 -26 -6
-28 -9 -28 -62 0 -47 -4 -59 -26 -79 -63 -59 -155 -8 -169 92 -11 80 14 149
59 169 40 17 61 17 95 -1z m1001 -24 c0 -4 13 -25 29 -45 41 -52 49 -93 22
-112 -31 -22 -27 -59 9 -86 18 -13 30 -31 30 -44 0 -25 -15 -40 -25 -24 -3 5
-23 10 -43 10 -33 -1 -35 -2 -19 -14 24 -18 21 -26 -7 -26 -14 0 -28 -4 -31
-10 -4 -6 5 -10 19 -10 14 0 26 -5 26 -11 0 -5 -4 -7 -10 -4 -5 3 -10 1 -10
-5 0 -6 14 -13 30 -16 17 -4 30 -9 30 -12 0 -17 -37 -42 -63 -42 -35 0 -197
74 -197 90 0 6 -4 9 -9 6 -4 -3 -6 6 -3 19 3 20 0 25 -15 25 -11 0 -29 10 -41
23 l-22 23 35 13 c27 9 37 20 45 49 13 51 35 79 78 102 20 10 57 39 82 64 45
44 60 54 60 37z m-3202 -743 l-3 -503 -140 0 -140 0 -3 503 -2 502 145 0 145
0 -2 -502z m-1120 308 c26 -52 -7 -114 -65 -121 -38 -4 -62 11 -78 48 -25 60
1 112 60 119 37 5 66 -11 83 -46z m75 48 c9 -3 21 -28 28 -55 7 -27 16 -49 20
-49 4 0 13 22 20 50 12 47 39 73 57 55 3 -3 -6 -44 -22 -90 -27 -78 -30 -83
-55 -81 -22 3 -30 13 -53 72 -37 96 -36 114 5 98z m282 -14 c7 -6 18 -24 24
-41 8 -24 7 -30 -9 -39 -10 -5 -35 -10 -54 -10 -29 0 -36 4 -36 20 0 16 7 20
30 20 34 0 39 14 11 29 -38 21 -71 -60 -36 -89 9 -8 27 -10 46 -6 25 5 30 3
27 -11 -8 -41 -70 -42 -108 -1 -48 52 -7 152 60 143 17 -2 37 -9 45 -15z
m-550 -340 c9 -27 20 -50 24 -50 4 0 13 23 20 50 11 43 16 50 38 50 28 0 28 3
-19 -122 -16 -42 -38 -89 -49 -103 l-20 -25 56 0 c63 0 72 -18 17 -32 l-31 -8
-3 -93 c-2 -74 -6 -92 -18 -92 -12 0 -16 19 -20 95 l-5 95 -29 0 c-39 0 -44
20 -9 33 17 7 21 11 11 11 -26 1 -22 20 6 30 26 11 39 45 25 70 -17 30 -49
112 -49 127 0 8 9 14 19 14 14 0 24 -13 36 -50z m255 40 c29 -16 42 -76 25
-115 -15 -36 -33 -45 -84 -41 -43 3 -61 28 -61 83 0 69 59 105 120 73z m118
-57 c3 -59 4 -63 27 -63 24 0 25 3 25 66 0 62 1 65 23 62 21 -3 22 -8 22 -83
l0 -80 -57 -2 c-73 -4 -88 14 -88 105 0 60 1 63 23 60 20 -3 22 -9 25 -65z
m-106 -263 c25 -31 24 -101 -1 -124 -27 -25 -78 -26 -107 -3 -33 25 -34 100
-2 134 27 29 83 26 110 -7z m183 13 c62 -61 26 -164 -54 -158 -44 3 -71 35
-71 84 0 46 16 69 55 80 44 13 52 13 70 -6z m155 -266 c0 -32 1 -33 34 -29 48
6 66 -24 66 -106 0 -60 -1 -63 -22 -60 -20 3 -23 8 -20 43 4 54 -12 95 -38 95
-18 0 -20 -6 -20 -71 0 -67 -1 -70 -22 -67 -22 3 -23 7 -26 116 l-3 112 26 0
c22 0 25 -4 25 -33z m4594 9 c-3 -8 -12 -17 -21 -20 -8 -4 -13 -13 -9 -21 3
-9 0 -15 -9 -15 -8 0 -15 -6 -15 -13 0 -22 12 -28 28 -14 12 10 16 9 20 -1 3
-9 7 -10 17 -2 10 8 17 5 29 -12 15 -20 15 -23 1 -28 -9 -3 -22 -17 -29 -30
-7 -14 -18 -24 -24 -22 -7 1 -12 -5 -12 -13 0 -8 -7 -15 -16 -15 -22 0 -12 23
14 35 29 13 28 35 -1 35 -13 0 -28 5 -34 11 -6 6 -29 13 -52 15 -31 4 -43 1
-47 -11 -3 -8 -13 -15 -21 -15 -9 0 -13 6 -9 15 3 8 1 15 -4 15 -6 0 -10 4
-10 9 0 13 54 30 84 27 27 -3 36 8 14 17 -8 3 -6 6 5 6 9 1 17 8 17 17 0 11 6
14 20 9 12 -4 20 -2 20 5 0 8 22 22 47 29 1 1 0 -5 -3 -13z m-5134 -56 c5 -10
10 -49 10 -85 0 -63 -1 -66 -22 -63 -20 3 -22 8 -20 37 6 58 -6 101 -28 101
-18 0 -20 -7 -20 -70 0 -62 -2 -70 -19 -70 -16 0 -19 11 -24 77 -3 42 -4 80
-1 84 2 4 29 7 59 8 44 0 57 -3 65 -19z m3383 -302 l14 -33 -81 -5 -81 -5 -3
-32 c-3 -31 -1 -33 26 -33 25 0 30 -4 30 -27 0 -14 -7 -41 -14 -60 -8 -18 -12
-33 -10 -33 3 0 -1 -17 -8 -37 -13 -39 -10 -109 5 -119 5 -3 9 -20 9 -38 0
-17 5 -37 10 -42 7 -7 4 -19 -9 -36 -13 -15 -17 -28 -11 -34 6 -6 6 -31 0 -67
-9 -58 -6 -87 11 -87 4 0 -4 -28 -20 -62 -15 -35 -34 -81 -41 -103 -15 -43
-20 -135 -7 -135 4 0 7 -5 7 -11 0 -5 -5 -7 -12 -3 -8 5 -9 2 -5 -9 3 -10 3
-17 -1 -17 -4 0 -7 -64 -7 -143 0 -136 -1 -145 -27 -196 -33 -63 -34 -84 -8
-136 40 -77 32 -165 -25 -283 -21 -43 -23 -57 -14 -68 9 -11 9 -21 1 -38 -9
-19 -8 -25 4 -30 8 -3 14 -10 14 -16 0 -13 -217 -14 -225 0 -3 6 -2 10 3 10 9
0 33 524 32 710 0 25 -1 126 -2 225 -1 121 4 218 15 295 9 63 21 178 27 255
11 144 28 235 40 215 4 -6 5 13 3 42 -6 77 1 83 104 85 l88 2 0 28 c0 21 -5
29 -22 31 -27 4 -26 1 -12 41 l11 31 89 0 89 0 13 -32z m-2993 -105 c103 -3
175 -10 165 -14 -11 -4 -32 -8 -47 -8 -16 -1 -28 -5 -28 -11 0 -5 -7 -10 -15
-10 -8 0 -15 -7 -15 -15 0 -9 6 -12 15 -9 8 4 15 1 15 -5 0 -6 -5 -11 -10 -11
-6 0 -15 -10 -20 -22 -5 -13 -9 -17 -9 -10 -1 6 -17 -5 -36 -25 -28 -29 -35
-33 -35 -18 0 29 -11 11 -15 -26 -3 -18 -16 -44 -30 -59 -14 -14 -25 -31 -25
-38 0 -6 -25 -36 -55 -66 -31 -30 -51 -56 -45 -58 6 -2 3 -12 -8 -24 -11 -11
-25 -31 -32 -44 -9 -16 -2 -12 24 14 38 37 60 47 50 22 -6 -16 -77 -66 -93
-66 -6 0 -25 -13 -43 -28 -18 -15 -52 -40 -75 -55 -46 -29 -48 -35 -34 -83 10
-34 0 -58 -33 -86 -12 -10 -16 -17 -11 -18 6 0 16 5 23 12 22 22 23 0 1 -48
-12 -27 -41 -88 -64 -136 -31 -64 -39 -88 -28 -88 11 0 13 -10 9 -45 -5 -48
-1 -53 23 -30 36 34 81 66 81 58 0 -4 4 -14 9 -22 7 -11 14 -10 40 8 24 17 31
19 31 8 0 -8 11 -22 25 -31 19 -13 23 -21 16 -34 -10 -21 -25 -110 -22 -137 2
-17 0 -17 -8 -5 -6 8 -11 29 -11 46 0 42 -8 47 -38 24 -13 -11 -31 -20 -39
-20 -9 0 -42 -20 -74 -44 -41 -31 -74 -47 -104 -52 -35 -5 -48 -12 -58 -33 -7
-15 -21 -26 -32 -26 -17 0 -21 -9 -26 -55 -5 -53 -6 -51 -8 25 -1 44 -4 378
-6 743 l-4 662 263 0 c144 0 345 -3 446 -7z m1143 -294 c-2 -163 -7 -307 -12
-320 -5 -13 -10 -18 -10 -11 -1 20 -31 14 -63 -13 -36 -30 -97 -35 -100 -7 -1
9 -2 123 -3 252 0 227 -1 237 -24 283 -13 26 -26 45 -29 42 -8 -8 -33 16 -26
26 3 5 -1 6 -9 3 -8 -3 -21 2 -30 10 -9 9 -35 17 -59 18 -89 3 97 15 232 14
l135 -1 -2 -296z m2195 276 c236 -19 500 -215 607 -450 35 -76 43 -102 60
-200 20 -106 19 -181 -4 -291 -45 -217 -188 -415 -381 -527 -105 -61 -270
-106 -391 -107 -89 0 -90 2 -87 170 l3 145 100 7 c151 9 235 48 333 152 219
231 147 604 -145 748 -78 39 -92 42 -186 47 l-102 6 0 150 0 150 35 6 c19 3
49 4 65 3 17 -2 58 -6 93 -9z m-2618 -18 c34 -28 45 -71 45 -172 l0 -100 -77
-15 -77 -14 -7 -41 c-8 -45 -7 -135 2 -178 l6 -29 20 22 c12 13 24 18 31 12 7
-4 28 -9 47 -11 19 -2 35 -4 36 -4 1 -1 -1 -19 -4 -40 -3 -27 -12 -43 -35 -59
l-30 -21 -18 21 c-26 33 -58 24 -85 -23 -7 -13 -24 -21 -47 -23 -21 -2 -42
-11 -49 -21 -7 -10 -26 -21 -41 -25 -24 -6 -27 -9 -17 -21 10 -12 10 -15 0
-15 -18 0 -3 -54 31 -112 34 -57 36 -78 9 -85 -10 -3 -22 -14 -26 -25 -5 -18
-13 -20 -58 -16 -45 4 -61 12 -136 70 -124 96 -155 129 -196 212 -28 57 -38
91 -41 143 -5 65 -3 71 29 119 41 61 50 81 38 89 -5 3 -11 -3 -13 -12 -4 -17
-5 -17 -6 0 -1 12 16 25 55 42 63 28 116 32 133 11 16 -19 62 -27 59 -10 -2 7
2 13 7 14 6 0 11 -8 13 -19 2 -12 14 -29 28 -40 13 -10 24 -26 24 -35 0 -27
51 -19 90 14 19 16 41 30 48 30 6 0 12 5 12 10 0 6 16 20 35 31 19 12 35 25
35 30 0 18 -123 100 -166 110 -27 7 -46 18 -49 30 -7 21 23 68 43 69 6 0 29
18 51 40 25 26 48 40 64 40 14 0 29 5 32 10 9 14 137 12 155 -3z m3792 -522
l3 -510 24 -53 c70 -155 273 -208 406 -106 25 19 47 34 50 34 3 0 5 -82 5
-183 l0 -183 -64 -17 c-99 -26 -226 -23 -322 9 -110 36 -163 67 -233 138 -95
95 -128 153 -162 283 -18 71 -19 114 -19 589 l0 513 148 3 c81 2 150 1 154 -2
4 -3 9 -235 10 -515z m-2247 456 c28 -16 42 -43 59 -113 6 -26 4 -28 -34 -34
-54 -9 -64 -19 -95 -97 -20 -50 -24 -72 -16 -80 18 -18 13 -37 -9 -37 -11 0
-20 -4 -20 -10 0 -5 5 -10 11 -10 6 0 8 -8 4 -19 -4 -14 0 -21 15 -26 26 -8
25 -17 -4 -44 -22 -21 -26 -21 -58 -8 -27 11 -37 24 -48 58 -7 24 -18 50 -23
57 -5 7 -12 44 -15 83 -4 56 -1 77 14 104 10 19 24 35 30 35 7 0 20 3 29 7 14
5 16 2 11 -14 -5 -15 -1 -22 14 -26 33 -8 35 15 4 40 -16 12 -35 23 -41 23
-24 0 -13 20 37 67 71 67 87 72 135 44z m832 -868 c16 -12 16 -13 0 -13 -15 0
-17 -29 -19 -327 -2 -258 -5 -321 -14 -293 -6 20 -7 39 -3 45 11 11 11 142 0
170 -7 17 -10 15 -26 -19 -15 -30 -16 -42 -7 -57 21 -33 14 -97 -13 -133 -26
-34 -36 -116 -15 -116 6 0 10 -13 10 -30 0 -22 -5 -30 -17 -31 -10 0 -13 -3
-6 -5 24 -10 -7 -52 -45 -59 -44 -8 -55 3 -37 39 18 33 19 39 5 31 -16 -10 -5
46 19 97 19 40 21 54 14 90 -7 30 -6 54 2 78 7 19 10 41 7 48 -4 11 9 17 31
13 12 -2 8 17 -8 33 -16 16 -21 96 -6 96 5 0 11 9 14 20 3 11 12 20 21 20 21
0 21 36 0 57 -18 18 -16 119 3 135 6 5 9 16 6 24 -3 8 1 14 8 14 12 0 12 2 0
9 -8 5 -10 14 -5 22 4 8 7 25 6 39 -2 14 2 39 8 55 7 17 14 68 16 115 3 47 9
107 14 133 6 26 11 94 12 150 2 56 4 -19 5 -168 3 -239 5 -271 20 -282z
m-1958 13 l1 -129 -22 20 c-13 11 -35 23 -51 27 -34 8 -127 64 -127 77 0 5 -7
9 -15 9 -13 0 -15 9 -11 48 3 26 5 51 5 57 1 5 13 -3 28 -19 16 -17 29 -24 31
-18 6 19 40 14 52 -8 15 -29 34 -25 54 13 9 17 14 24 12 15 -6 -22 3 -48 16
-48 5 0 9 10 8 23 -1 12 -1 42 0 67 4 93 18 -3 19 -134z m-821 -109 c2 -15 7
-25 12 -22 5 3 29 0 54 -6 39 -10 45 -15 51 -45 3 -19 10 -34 15 -34 4 0 16
-19 25 -43 9 -24 29 -55 44 -70 23 -21 30 -38 34 -84 4 -32 2 -78 -3 -103 -5
-25 -9 -61 -10 -81 0 -34 -3 -37 -44 -49 -44 -12 -86 -2 -86 20 0 6 -7 10 -16
10 -9 0 -31 15 -49 33 -18 17 -40 37 -48 42 -8 6 -39 26 -68 46 -89 60 -91 64
-77 147 10 57 9 81 -1 122 -16 63 -7 122 25 153 l25 25 57 -17 c49 -15 57 -21
60 -44z m1112 -14 c0 -9 6 -13 15 -9 16 6 21 -9 6 -18 -5 -3 -12 -22 -15 -41
-4 -19 -12 -35 -19 -35 -7 0 -49 -3 -94 -6 l-83 -6 0 77 0 78 58 -7 c31 -3 63
-2 71 3 18 11 61 -15 61 -36z"/>
<path d="M6613 9773 c-20 -4 -23 -11 -23 -51 l0 -47 85 0 85 0 0 46 c0 40 -3
48 -22 53 -25 6 -90 6 -125 -1z"/>
<path d="M2970 6600 l0 -30 504 0 c278 0 507 -4 510 -8 3 -5 6 -92 7 -195 3
-219 0 -227 -82 -227 l-48 0 -12 -55 c-7 -30 -10 -58 -6 -61 3 -3 33 -6 67 -6
51 0 68 5 102 29 80 55 105 157 107 435 l1 87 73 3 c70 3 72 4 75 31 l3 27
-650 0 -651 0 0 -30z"/>
<path d="M2977 6043 c-4 -3 -7 -64 -7 -135 l0 -128 115 0 115 0 0 25 c0 24 -2
25 -75 25 l-75 0 0 30 0 30 66 0 c62 0 65 1 62 23 -3 20 -9 22 -65 25 -62 3
-63 3 -63 32 l0 30 75 0 c73 0 75 1 75 25 l0 25 -108 0 c-60 0 -112 -3 -115
-7z"/>
<path d="M3240 5455 l0 -135 35 0 35 0 0 60 c0 33 4 60 9 60 4 0 31 -27 60
-60 50 -57 55 -60 99 -60 l46 0 -47 48 c-51 52 -57 67 -28 77 10 3 24 19 31
36 11 27 10 34 -7 57 -31 41 -61 52 -150 52 l-83 0 0 -135z"/>
<path d="M3562 5458 l3 -133 38 -3 37 -3 0 135 0 136 -40 0 -41 0 3 -132z"/>
<path d="M1815 8183 c-78 -14 -125 -60 -133 -129 -10 -88 -3 -100 157 -259 96
-96 162 -153 184 -161 40 -14 104 -5 141 20 31 20 66 85 66 123 0 70 -18 96
-163 241 -118 118 -151 145 -188 156 -24 7 -53 11 -64 9z"/>
<path d="M2039 7410 c-14 -4 -36 -13 -48 -20 -33 -17 -279 -269 -298 -304 -23
-44 -14 -138 18 -172 51 -55 128 -70 194 -38 18 8 96 79 173 158 130 131 141
145 147 188 4 25 4 60 0 78 -17 77 -107 131 -186 110z"/>
<path d="M1795 4086 c-26 -10 -47 -28 -95 -83 -21 -24 -19 -92 3 -108 13 -10
23 -10 41 -2 20 10 22 15 14 37 -12 35 5 77 37 92 14 6 25 15 25 20 0 18 19 6
23 -14 2 -13 3 -2 3 24 -1 51 -4 53 -51 34z"/>
</g>
</svg>
