<?xml version="1.0" standalone="no"?>
<!DOCTYPE svg PUBLIC "-//W3C//DTD SVG 20010904//EN"
 "http://www.w3.org/TR/2001/REC-SVG-20010904/DTD/svg10.dtd">
<svg version="1.0" xmlns="http://www.w3.org/2000/svg"
 width="720.000000pt" height="1280.000000pt" viewBox="0 0 720.000000 1280.000000"
 preserveAspectRatio="xMidYMid meet">
<metadata>
Created by potrace 1.16, written by Peter Selinger 2001-2019
</metadata>
<g transform="translate(0.000000,1280.000000) scale(0.100000,-0.100000)"
fill="#000000" stroke="none">
<path d="M0 6400 l0 -6400 3600 0 3600 0 0 1025 0 1025 -35 0 c-18 0 -57 5
-85 11 -38 8 -51 16 -55 32 -11 42 -20 463 -13 572 9 134 -5 572 -19 586 -5 5
-36 14 -69 20 -32 6 -67 15 -76 20 -10 5 -34 9 -53 9 -19 0 -35 4 -35 9 0 17
-39 23 -194 32 -83 4 -180 13 -216 19 -36 6 -92 12 -125 15 -33 2 -61 8 -63
14 -2 6 -22 11 -45 11 -108 0 -397 23 -439 36 -28 9 -64 11 -92 8 -42 -6 -51
-13 -47 -37 3 -18 -54 -28 -95 -17 -42 12 -133 2 -172 -19 -10 -5 -23 -7 -28
-3 -13 8 -27 41 -28 64 -1 9 -4 20 -8 24 -5 4 -8 18 -8 30 0 13 -7 27 -16 32
-14 8 -14 10 0 21 9 8 16 22 16 32 0 23 39 50 66 45 26 -5 42 5 57 34 11 19
72 49 103 50 15 0 38 -50 35 -77 -2 -19 3 -23 23 -23 14 0 26 6 27 13 1 12
135 135 296 270 51 43 97 86 103 97 13 25 13 162 -1 450 -12 234 -12 236 15
408 15 95 26 191 24 214 -4 52 -30 73 -140 109 -79 25 -83 28 -94 65 -156 511
-216 633 -359 733 -65 45 -65 45 -46 65 24 25 57 102 67 151 9 51 24 31 31
-41 4 -42 1 -70 -10 -97 -22 -53 1 -35 25 20 42 95 12 283 -61 383 -19 27 -21
32 -6 21 83 -62 120 -137 113 -228 -4 -49 -3 -54 9 -38 22 31 16 132 -12 192
-48 104 -171 203 -251 203 -42 0 -49 12 -28 52 26 50 14 164 -27 264 -78 188
-268 299 -482 280 -83 -8 -176 -38 -231 -75 -23 -15 -54 -28 -70 -29 -42 -3
-135 -56 -190 -109 -84 -80 -116 -185 -82 -268 19 -45 27 -45 15 1 -8 27 -6
47 6 85 9 27 18 49 19 49 2 0 1 -34 -2 -75 l-5 -75 42 -42 c49 -48 61 -42 61
30 0 45 6 50 36 27 29 -22 43 -17 15 5 -13 11 -29 20 -36 20 -20 0 0 64 37
123 17 26 31 47 32 47 0 0 1 -35 1 -77 0 -92 26 -153 87 -209 49 -44 59 -43
42 4 -14 40 -17 124 -6 187 7 40 7 40 25 -40 10 -44 21 -86 24 -93 4 -11 1
-12 -17 -2 -33 18 -36 4 -3 -16 15 -10 59 -47 96 -82 37 -36 71 -62 74 -58 3
3 -1 14 -9 23 -8 10 -19 25 -23 33 -4 8 9 -4 29 -28 21 -23 47 -47 58 -53 19
-10 20 -9 14 17 l-7 29 20 -29 c33 -49 56 -149 42 -187 -6 -17 -11 -39 -11
-47 0 -36 39 23 61 91 27 87 29 91 85 118 42 20 46 20 63 5 11 -10 21 -32 24
-49 11 -79 -50 -142 -188 -193 -17 -6 -18 -8 -3 -11 9 -2 26 0 36 6 23 12 32
5 32 -24 0 -25 47 -65 132 -114 48 -27 58 -38 64 -67 8 -46 -10 -73 -87 -125
-77 -52 -154 -79 -244 -86 -149 -11 -241 50 -288 188 l-15 47 31 6 c36 7 63
-14 103 -81 13 -24 27 -43 30 -43 3 0 4 3 2 8 -2 4 -10 21 -18 37 -8 17 -21
38 -29 48 -17 21 -24 14 72 73 60 37 77 54 30 31 -41 -21 -151 -54 -201 -61
-81 -12 -102 13 -192 222 -13 29 -24 51 -27 49 -2 -2 10 -34 27 -71 l29 -67
-27 -10 c-57 -21 -83 -32 -79 -35 2 -2 28 6 57 17 30 11 56 16 58 11 17 -51
52 -100 84 -117 21 -11 38 -24 38 -30 0 -23 59 -132 86 -159 44 -43 70 -58
130 -72 84 -19 180 -3 282 48 106 52 162 105 162 152 0 51 -8 65 -52 87 -22
11 -38 23 -35 25 12 12 124 -46 174 -88 34 -31 64 -48 81 -49 15 0 36 -4 47
-9 18 -8 17 -9 -6 -9 -14 -1 -41 -11 -60 -24 -81 -54 -142 -184 -186 -392 -23
-107 -26 -148 -30 -375 -3 -274 -13 -341 -49 -360 -21 -12 -62 -119 -56 -146
1 -6 -25 -23 -57 -38 -65 -29 -93 -58 -111 -112 -11 -32 -14 -34 -55 -34 -116
0 -248 48 -338 122 -54 46 -66 77 -43 110 9 12 16 33 16 46 l0 24 20 -23 c10
-13 -10 35 -45 106 -80 161 -105 253 -112 410 -4 80 -10 125 -19 136 -8 8 -27
40 -44 70 -43 78 -37 52 8 -33 35 -67 37 -78 40 -176 l4 -104 -31 33 -31 34
25 -58 c14 -32 32 -68 39 -80 8 -12 27 -53 42 -90 24 -62 26 -72 15 -108 -11
-36 -14 -39 -29 -28 -9 7 0 -5 22 -26 21 -22 42 -50 47 -63 15 -40 10 -105
-11 -137 -23 -35 -25 -70 -5 -105 16 -29 20 -116 5 -125 -19 -12 -47 -79 -54
-129 -4 -27 -10 -55 -13 -64 -5 -12 2 -14 50 -8 55 7 57 7 67 -19 5 -14 10
-40 10 -56 0 -33 7 -35 54 -15 58 24 133 36 161 26 14 -5 46 -30 70 -56 l45
-46 -61 -74 c-94 -116 -152 -167 -252 -226 -81 -48 -151 -80 -133 -60 4 4 39
40 79 81 61 63 64 68 22 34 -27 -23 -70 -62 -95 -88 -42 -44 -97 -81 -106 -72
-7 7 58 121 90 157 69 77 78 92 24 41 -31 -30 -71 -80 -87 -111 -17 -32 -38
-63 -47 -71 -14 -11 -15 -9 -9 27 11 66 34 138 52 166 10 14 28 41 41 60 l24
33 -32 -35 c-40 -44 -76 -119 -91 -190 -11 -51 -12 -53 -26 -35 -21 29 -10
133 22 202 14 31 25 58 25 62 -1 15 -40 -43 -40 -60 0 -34 -15 -20 -35 31 -10
27 -21 47 -23 45 -3 -2 5 -28 17 -56 17 -38 21 -61 16 -88 l-7 -36 -20 35
c-10 19 -16 26 -12 15 26 -80 5 -70 -26 12 -23 61 -21 82 4 36 8 -15 15 -24
16 -19 0 6 -12 27 -26 48 -31 44 -31 53 -10 173 9 50 16 114 16 143 0 46 4 58
29 83 25 24 37 29 80 29 l51 0 26 -55 c15 -30 30 -55 34 -55 4 0 -6 26 -21 59
-28 59 -44 71 -99 71 -15 0 -45 -12 -68 -27 -42 -28 -63 -64 -61 -112 0 -23 1
-24 9 -6 8 18 9 17 9 -7 1 -16 -3 -28 -7 -28 -19 0 -52 48 -52 76 0 17 -7 39
-16 50 -8 10 -13 13 -9 6 9 -18 -16 -15 -53 8 -19 11 -42 39 -53 63 -17 35
-19 37 -14 12 3 -17 23 -46 45 -66 22 -20 40 -41 40 -46 0 -5 -32 -44 -70 -87
-75 -84 -126 -165 -136 -213 -5 -24 0 -37 24 -64 l29 -34 -26 -105 c-15 -58
-33 -116 -41 -130 -11 -20 -14 -72 -14 -245 1 -306 13 -830 20 -888 4 -27 2
-47 -4 -47 -5 0 -7 -76 -4 -197 3 -157 7 -200 19 -209 11 -9 -14 -13 -109 -18
-68 -4 -160 -5 -205 -4 l-81 2 14 28 c16 31 21 101 9 139 -4 13 -23 57 -41 97
-19 41 -34 76 -34 79 0 4 -18 31 -41 60 -43 57 -93 151 -104 195 -5 19 -1 32
15 48 25 25 34 46 71 175 17 55 38 128 48 162 16 54 48 114 191 353 15 25 46
88 69 140 24 52 57 122 75 155 45 82 60 152 53 239 -9 98 -30 153 -82 213 -40
46 -149 140 -217 187 l-23 16 24 48 c14 26 46 76 72 112 65 91 69 101 69 173
0 47 4 68 16 78 22 18 64 104 64 131 0 13 -10 51 -22 86 -22 62 -22 65 -5 112
28 79 23 121 -27 213 l-44 82 -27 220 c-31 260 -69 465 -95 514 -25 48 -103
122 -170 162 -54 31 -272 119 -297 119 -17 0 -16 15 7 80 11 30 19 66 19 80 0
14 -7 0 -14 -30 -8 -31 -29 -92 -48 -135 -19 -44 -38 -94 -42 -112 -11 -53
-47 -83 -100 -83 -49 0 -149 35 -223 78 -57 32 -64 23 -10 -13 24 -15 62 -43
85 -62 46 -37 47 -45 5 -101 -14 -18 -22 -35 -18 -39 9 -9 42 24 74 74 15 25
35 43 45 43 17 0 16 -3 -5 -41 -39 -70 -93 -96 -219 -106 -100 -8 -163 13
-222 71 -44 45 -97 140 -97 176 0 32 25 81 64 125 35 39 47 35 24 -8 -10 -20
-10 -21 6 -8 10 8 24 27 31 42 19 36 52 28 71 -17 16 -38 29 -46 19 -11 -17
61 -28 77 -51 77 -33 0 -129 55 -148 85 -21 32 -21 123 0 153 8 12 26 22 39
22 33 0 93 -55 112 -101 12 -32 49 -69 68 -69 3 0 5 24 5 53 0 64 11 87 34 68
14 -12 16 -9 16 27 0 22 3 55 7 73 7 34 7 33 18 -20 l10 -54 32 49 c57 87 106
154 109 151 2 -2 -3 -25 -11 -52 -8 -26 -13 -50 -10 -53 2 -3 23 7 45 22 35
23 64 57 107 122 11 18 3 -18 -21 -93 -11 -33 8 -29 52 11 38 34 82 109 82
139 0 35 20 24 44 -25 34 -68 34 -111 2 -126 -14 -6 -30 -20 -36 -32 -13 -23
-3 -25 24 -5 31 23 56 19 56 -9 0 -25 -22 -51 -34 -39 -4 4 -18 -6 -31 -22
-28 -34 -31 -47 -11 -39 11 4 13 0 9 -15 -9 -33 13 -24 28 12 l14 32 6 -60 6
-60 1 72 c1 39 6 74 11 77 5 3 12 17 15 32 4 14 18 43 31 64 13 21 25 57 26
79 4 53 17 52 26 -1 l7 -43 7 40 c10 58 0 101 -36 154 l-31 47 38 16 c37 16
55 45 20 34 -17 -6 -120 39 -156 68 -19 16 -19 16 3 39 l22 24 -58 6 c-32 4
-78 13 -103 21 -25 8 -64 20 -88 26 l-43 11 21 29 c12 17 17 30 11 30 -5 0
-12 -4 -15 -8 -3 -5 -64 -12 -136 -15 -111 -5 -138 -9 -187 -31 -31 -15 -58
-24 -60 -22 -3 2 0 14 7 25 15 29 -2 27 -39 -5 -19 -16 -35 -42 -42 -68 -9
-37 -15 -44 -57 -59 -52 -19 -89 -48 -118 -93 -20 -30 -16 -29 38 8 40 28 45
21 11 -14 -72 -74 -115 -245 -82 -323 l12 -30 7 35 6 35 8 -44 c5 -24 14 -58
22 -76 19 -47 111 -196 138 -225 51 -54 46 -60 -77 -114 -142 -61 -373 -185
-455 -243 -70 -49 -135 -127 -182 -215 -35 -65 -60 -179 -85 -388 -18 -152
-40 -244 -57 -234 -12 8 -29 -16 -21 -29 3 -5 9 -3 14 4 17 27 8 -46 -19 -160
-27 -110 -29 -115 -59 -125 -64 -22 -174 -153 -203 -242 -14 -40 8 -216 41
-325 16 -55 19 -97 19 -243 0 -185 10 -236 46 -236 9 0 12 -5 8 -12 -4 -7 -3
-8 4 -4 6 4 43 -10 83 -29 65 -33 75 -36 127 -29 32 4 77 17 102 30 77 39 78
39 114 -56 18 -47 54 -121 81 -165 46 -74 49 -84 48 -139 -3 -68 6 -90 55
-133 34 -29 36 -35 38 -96 1 -38 8 -74 17 -88 9 -13 30 -78 46 -143 23 -87 46
-146 85 -221 54 -100 64 -126 107 -279 19 -66 31 -88 75 -135 l51 -56 6 -100
c2 -55 0 -139 -6 -188 l-11 -87 -1011 2 -1010 3 -3 3215 c-1 1768 0 3225 3
3238 4 15 13 22 30 22 18 0 25 5 25 18 0 11 9 27 19 36 19 18 20 17 19 -34 0
-63 13 -79 77 -95 60 -16 69 -5 54 63 -6 28 -9 63 -7 78 3 26 5 27 66 26 48 0
62 3 62 15 0 8 -4 12 -8 9 -5 -3 -19 14 -31 38 -34 69 -79 67 -97 -4 -10 -39
-21 -47 -64 -48 l-41 -2 6 43 c8 55 -9 71 -70 69 l-44 -2 -1 255 0 255 3590 0
3590 0 0 1775 0 1775 -3600 0 -3600 0 0 -6400z m6794 3679 c153 -67 201 -265
97 -404 -25 -34 -27 -41 -14 -50 23 -17 -3 -53 -49 -67 -31 -9 -45 -8 -82 6
-45 17 -83 16 -154 -6 -47 -14 -97 -2 -117 28 -13 20 -14 28 -4 40 10 12 8 19
-9 37 -37 39 -62 108 -62 171 0 78 16 128 58 176 79 93 218 121 336 69z m-651
5 c52 -18 116 -76 142 -130 57 -121 8 -276 -107 -339 -78 -42 -185 -47 -262
-12 -103 48 -149 120 -150 237 0 120 51 197 159 242 51 22 158 23 218 2z
m-5834 -111 c15 -56 71 -300 71 -307 0 -3 -16 -6 -35 -6 -30 0 -35 3 -35 24 0
32 -22 48 -61 44 -27 -4 -34 -10 -41 -36 -8 -28 -13 -32 -42 -32 l-34 0 14 58
c7 31 25 110 40 175 l28 117 42 0 c41 0 44 -2 53 -37z m401 -55 l1 -93 30 38
c23 27 39 37 60 37 16 0 29 -3 29 -6 0 -4 -16 -27 -35 -53 l-34 -47 21 -35
c11 -19 29 -49 40 -66 l20 -33 -36 0 c-30 0 -38 5 -57 40 -26 45 -39 43 -39
-6 0 -31 -2 -34 -30 -34 l-30 0 0 175 0 175 30 0 30 0 0 -92z m1740 -83 l0
-176 -42 1 c-24 1 -55 -1 -69 -5 -19 -5 -33 -1 -55 18 -28 24 -29 29 -29 106
1 69 4 84 22 102 22 22 54 28 91 15 21 -7 22 -5 22 53 l0 61 30 0 30 0 0 -175z
m452 83 l3 -92 25 37 c20 30 31 37 58 37 30 0 42 -12 24 -24 -5 -3 -21 -23
-36 -44 l-27 -40 40 -66 41 -66 -35 0 c-30 0 -38 5 -57 40 -13 22 -26 40 -30
40 -5 0 -8 -18 -8 -40 0 -39 -1 -40 -35 -40 l-35 0 0 168 c0 93 3 172 7 175 3
4 19 7 34 7 l28 0 3 -92z m728 28 l0 -65 35 15 c28 11 40 12 58 3 34 -18 37
-27 37 -136 l0 -103 -30 0 -30 0 0 90 c0 75 -3 92 -16 97 -37 14 -49 -10 -52
-101 l-3 -86 -29 0 -30 0 0 175 0 175 30 0 30 0 0 -64z m530 3 c0 -58 1 -60
23 -53 76 26 107 -8 107 -118 0 -71 -2 -81 -26 -105 -21 -21 -31 -24 -57 -18
-18 4 -49 6 -69 6 l-38 -2 0 176 0 175 30 0 30 0 0 -61z m-1482 -11 c3 -35 6
-38 33 -38 24 0 29 -4 29 -25 0 -21 -5 -25 -30 -25 l-31 0 3 -67 c3 -66 4 -68
31 -71 21 -3 27 -8 23 -19 -3 -8 -6 -19 -6 -24 0 -16 -73 -10 -92 8 -14 13
-18 31 -18 90 0 66 -2 75 -20 80 -13 3 -20 14 -20 29 0 17 6 24 20 24 17 0 20
7 20 41 0 38 1 40 28 37 23 -3 27 -8 30 -40z m-2094 -58 c24 -24 34 -122 17
-173 -15 -44 -59 -66 -97 -48 -14 6 -27 11 -29 11 -3 0 -5 -30 -5 -66 l0 -65
-27 3 -28 3 -3 179 -2 179 38 -6 c22 -2 46 -1 53 4 19 12 60 2 83 -21z m405
19 c17 -6 36 -19 41 -29 6 -10 10 -62 10 -115 l0 -97 -32 3 c-18 1 -48 -1 -66
-5 -50 -12 -82 13 -82 64 0 44 20 64 83 81 28 7 37 15 35 27 -5 26 -48 28 -55
3 -6 -25 -51 -29 -60 -5 -8 21 28 67 58 75 35 10 33 10 68 -2z m290 0 c38 -14
51 -35 51 -88 l0 -41 -61 0 c-60 0 -60 0 -57 -27 3 -32 44 -46 54 -19 4 10 18
16 35 16 35 0 39 -25 10 -61 -27 -34 -99 -34 -135 0 -23 22 -26 32 -26 96 0
79 20 120 63 128 12 2 25 5 28 6 3 0 20 -4 38 -10z m198 0 c32 -12 43 -26 43
-56 0 -31 -45 -33 -53 -2 -4 13 -12 20 -24 17 -31 -6 -27 -34 7 -48 78 -32
101 -82 61 -131 -15 -19 -29 -24 -66 -24 -37 0 -51 5 -66 24 -29 36 -25 61 11
61 24 0 30 -4 30 -21 0 -15 5 -20 23 -17 39 5 27 38 -23 61 -89 43 -75 132 22
146 4 1 19 -4 35 -10z m220 -13 c6 -6 13 -22 15 -36 2 -21 -2 -26 -23 -28 -20
-2 -28 2 -32 18 -4 14 -12 21 -24 18 -29 -5 -21 -32 15 -50 73 -36 92 -81 53
-129 -15 -19 -29 -24 -66 -24 -37 0 -51 5 -66 24 -29 36 -25 61 10 61 21 0 30
-6 34 -21 7 -25 40 -22 45 4 3 12 -9 23 -42 37 -51 21 -70 54 -60 97 12 45
104 65 141 29z m182 13 c17 -6 36 -19 41 -29 6 -10 10 -62 10 -115 l0 -96 -37
1 c-21 1 -50 -2 -65 -6 -45 -10 -78 18 -78 66 0 44 20 64 83 81 28 7 37 15 35
27 -5 25 -45 27 -58 3 -16 -30 -60 -29 -60 2 1 28 20 54 51 66 32 13 40 13 78
0z m319 -22 c16 -15 22 -32 22 -64 l0 -43 -61 0 c-60 0 -60 0 -57 -27 3 -32
44 -46 54 -19 4 10 18 16 35 16 35 0 39 -25 10 -61 -27 -34 -99 -34 -135 0
-24 22 -26 32 -26 101 0 67 3 79 23 97 12 11 29 23 37 26 25 9 73 -4 98 -26z
m1000 -3 c19 -21 22 -36 22 -99 0 -70 -1 -74 -32 -100 -27 -23 -39 -26 -71
-22 -59 8 -80 35 -85 107 -3 36 1 72 9 91 24 60 111 73 157 23z m240 9 c8 -11
12 -53 12 -120 l0 -103 -30 0 -30 0 0 90 c0 75 -3 92 -17 97 -32 12 -53 -32
-53 -113 l0 -74 -30 0 -30 0 0 120 0 120 29 0 c16 0 31 -5 33 -12 3 -8 11 -7
29 5 27 20 67 15 87 -10z m530 -9 c15 -17 22 -38 22 -65 l0 -39 -61 0 c-60 0
-60 0 -57 -27 3 -32 44 -46 54 -19 4 10 18 16 35 16 35 0 40 -29 9 -60 -27
-27 -63 -34 -105 -20 -46 15 -55 34 -55 123 0 64 3 76 23 94 12 11 29 23 37
26 28 11 75 -3 98 -29z m539 12 c6 -6 13 -54 15 -116 l3 -105 -32 -3 -33 -3 0
91 c0 72 -3 92 -15 96 -33 13 -45 -15 -45 -102 l0 -84 -35 0 -35 0 0 120 0
120 35 0 c19 0 35 -4 35 -9 0 -6 12 -3 28 4 28 15 58 12 79 -9z m218 -7 c17
-16 21 -36 23 -120 l4 -100 -44 1 c-23 1 -54 -1 -68 -5 -35 -9 -80 27 -80 64
0 39 19 60 70 75 33 10 46 19 48 35 4 28 -33 29 -50 1 -13 -20 -52 -27 -62
-12 -10 16 29 76 54 84 36 10 82 0 105 -23z m394 20 c36 -13 61 -53 61 -99 l0
-30 -59 0 c-63 0 -76 -8 -66 -40 8 -24 55 -28 55 -5 0 11 11 15 36 15 32 0 35
-2 29 -22 -13 -43 -42 -63 -90 -63 -64 0 -87 27 -93 105 -5 75 11 118 52 136
38 16 36 16 75 3z m249 0 l43 2 -3 -155 c-3 -134 -5 -157 -22 -175 -42 -46
-144 -35 -166 19 -14 35 -7 50 25 50 15 0 26 -7 30 -20 8 -26 51 -27 65 -1 5
11 10 30 10 42 0 18 -3 20 -12 11 -7 -7 -29 -12 -49 -12 -56 0 -79 34 -79 116
0 97 31 141 90 127 14 -4 44 -5 68 -4z m240 -25 c19 -22 22 -36 22 -120 l0
-95 -42 1 c-24 1 -54 -1 -68 -5 -35 -9 -80 27 -80 64 0 27 31 71 51 71 5 0 25
7 44 14 25 11 33 19 29 30 -9 22 -41 20 -54 -4 -11 -20 -54 -28 -64 -12 -10
16 29 76 54 84 40 11 83 0 108 -28z m-3048 -94 l0 -120 -35 0 -35 0 0 113 c0
63 3 117 7 120 3 4 19 7 35 7 l28 0 0 -120z m2280 63 c19 -91 25 -93 45 -14
17 68 18 71 47 71 29 0 30 -2 24 -33 -3 -19 -25 -99 -49 -178 l-42 -144 -34
-3 c-28 -3 -32 -1 -28 15 30 103 30 93 -2 206 -17 58 -34 113 -37 122 -5 12 2
15 28 15 34 0 35 -1 48 -57z m-2652 -2733 c1 -15 11 -75 33 -183 6 -31 8 -64
5 -72 -6 -16 -46 -21 -46 -6 0 6 -14 5 -35 0 -37 -11 -75 -4 -75 12 0 6 -8 6
-20 -1 -11 -6 -20 -8 -20 -4 0 3 -6 1 -13 -5 -18 -14 -37 25 -37 74 0 44 -9
65 -27 65 -22 0 -11 34 12 36 45 2 54 5 71 21 12 12 19 14 21 6 6 -17 43 17
43 39 0 22 24 35 60 34 18 -1 28 -6 28 -16z m2950 -830 c-5 -63 -31 -125 -62
-146 -20 -12 -30 -10 -100 20 -98 43 -119 61 -58 52 43 -6 52 0 30 22 -7 7
-10 12 -7 12 2 1 33 11 69 23 70 24 109 65 111 116 1 23 2 22 11 -9 5 -19 8
-60 6 -90z m307 -422 c72 -79 117 -208 143 -408 14 -104 15 -454 2 -575 -25
-232 -89 -476 -142 -543 -58 -72 -170 -157 -362 -274 -94 -57 -129 -65 -219
-49 -69 11 -69 11 -110 -19 -34 -25 -50 -30 -99 -30 -32 0 -58 4 -58 8 0 15
24 32 47 32 27 0 31 -16 6 -23 -13 -4 -12 -5 5 -6 52 -2 36 51 -39 133 -63 70
-101 91 -130 76 -60 -33 -34 29 35 81 28 21 60 58 75 85 22 42 33 51 76 65 48
17 49 18 72 85 13 38 31 76 41 86 21 21 126 61 130 49 1 -4 10 -17 18 -27 15
-18 15 -18 8 1 -17 46 -16 113 4 158 18 40 24 46 61 52 42 7 141 66 176 106
11 12 -11 -1 -49 -30 -38 -28 -72 -51 -76 -51 -23 0 -26 113 -5 248 8 53 22
147 31 207 33 223 102 452 156 521 35 44 98 84 133 84 26 0 41 -9 70 -42z
m-3052 -431 c49 -21 59 -37 45 -75 -10 -27 -10 -34 4 -44 10 -8 18 -37 23 -77
l6 -64 -37 6 c-20 3 -46 2 -56 -4 -14 -8 -30 -6 -59 5 -21 9 -39 12 -39 7 0
-5 -8 -12 -17 -16 -25 -9 -76 49 -68 76 4 11 2 25 -4 32 -17 21 17 77 46 77
35 0 83 28 83 48 0 19 18 42 32 42 5 0 23 -6 41 -13z m487 -423 c0 -8 14 -29
30 -46 17 -16 30 -32 30 -34 0 -2 -11 -21 -24 -42 -38 -58 -41 -100 -11 -155
l25 -47 -32 -45 -32 -45 -28 60 c-27 56 -28 61 -13 89 19 37 19 88 0 121 -21
37 -18 64 13 114 28 47 42 57 42 30z m157 -643 c58 -27 69 -50 53 -120 -7 -31
-16 -116 -19 -191 -8 -148 -19 -183 -71 -220 -36 -26 -40 -11 -9 39 11 18 18
35 16 38 -7 6 -44 -58 -52 -89 -7 -26 -82 -105 -91 -95 -2 2 13 42 35 88 21
46 42 95 45 109 4 14 -16 -20 -42 -76 -49 -99 -87 -144 -123 -144 -27 0 -33
19 -13 41 20 22 97 210 89 217 -7 7 -7 7 -44 -93 -19 -49 -49 -108 -67 -131
-19 -22 -31 -44 -27 -47 10 -10 48 -8 98 5 24 7 47 9 51 5 9 -9 -23 -86 -50
-118 -26 -30 -46 -104 -71 -254 -12 -72 -29 -127 -61 -197 -24 -54 -44 -105
-44 -114 0 -8 -20 -35 -43 -58 -55 -53 -77 -113 -84 -228 -5 -77 -3 -90 16
-121 24 -40 74 -86 130 -121 24 -15 43 -39 55 -67 55 -129 78 -172 116 -213
24 -25 49 -46 56 -46 8 0 14 -3 14 -7 0 -5 12 -16 26 -26 20 -15 28 -16 39 -7
12 10 21 6 45 -16 16 -16 30 -34 30 -40 0 -8 -80 -11 -271 -10 l-272 1 -12 45
c-7 25 -24 84 -38 132 -14 48 -28 116 -32 150 -4 35 -17 108 -30 163 -13 55
-26 116 -30 135 -4 19 -15 64 -25 100 -13 45 -20 114 -24 225 -6 185 -17 253
-53 331 -22 48 -24 64 -19 115 6 46 3 68 -12 101 -14 32 -17 57 -13 98 l6 55
23 -52 c14 -34 22 -72 22 -110 0 -64 11 -83 49 -83 13 0 32 -7 42 -16 23 -21
86 -9 115 23 28 31 36 39 67 68 16 14 34 51 48 96 l22 74 -29 83 c-27 79 -44
110 -44 80 0 -7 12 -43 26 -81 24 -62 25 -72 14 -115 -13 -53 -48 -137 -54
-131 -3 2 1 23 7 46 12 46 -4 181 -29 238 -18 41 -16 18 6 -95 l18 -95 -23
-69 c-14 -39 -33 -79 -45 -90 l-20 -20 0 28 c0 16 5 46 11 66 13 42 -5 210
-22 210 -5 0 -7 -10 -4 -22 20 -84 21 -153 5 -214 -20 -79 -35 -97 -56 -69
-12 16 -14 32 -8 75 11 77 8 128 -11 175 l-15 40 7 -40 c13 -71 1 -219 -19
-231 -20 -13 -36 20 -41 84 -5 74 -50 184 -90 224 -13 14 -44 64 -68 114 -24
49 -55 107 -69 129 -15 22 -30 46 -34 52 -9 16 65 97 104 113 16 7 41 9 54 6
14 -3 71 -49 126 -101 56 -52 134 -119 175 -150 69 -52 75 -60 107 -137 30
-74 33 -78 36 -49 3 24 7 31 19 27 8 -3 19 -6 24 -6 5 0 9 -13 9 -28 0 -16 6
-36 13 -45 10 -15 12 -9 13 35 0 29 10 94 21 143 26 111 38 205 26 205 -5 0
-14 -42 -20 -92 -10 -79 -55 -250 -51 -193 1 11 -2 49 -6 85 -6 60 -4 75 27
160 31 87 39 100 100 158 36 35 73 80 83 100 9 21 23 45 32 55 20 23 76 22
129 -2z m-1556 -117 c-12 -15 -21 -34 -20 -43 0 -11 2 -12 6 -3 4 10 10 10 29
-3 14 -9 28 -13 33 -10 5 2 12 -2 15 -10 3 -8 9 -14 13 -14 4 1 16 -1 26 -6 9
-4 27 -5 38 -2 12 3 18 3 15 0 -10 -11 67 -33 94 -27 18 4 21 3 11 -4 -11 -8
-9 -11 8 -17 27 -8 274 -247 301 -290 28 -45 27 -69 -2 -61 -63 18 -123 25
-131 17 -5 -5 -17 -7 -26 -3 -14 5 -14 3 2 -12 9 -9 17 -22 17 -27 0 -5 6 -4
14 3 8 7 12 17 9 22 -9 14 100 -3 114 -18 4 -5 -5 -5 -22 -1 -65 16 -80 12
-80 -19 -1 -16 -6 -31 -13 -34 -17 -5 -15 -22 3 -22 8 0 15 -5 15 -10 0 -6
-10 -9 -22 -7 -13 2 -17 2 -10 0 6 -3 12 -8 13 -11 0 -4 2 -22 3 -39 4 -34
-10 -46 -16 -15 -2 9 -2 -54 0 -140 4 -155 4 -158 -17 -158 -24 0 -29 -28 -9
-48 8 -8 12 -37 9 -82 -2 -43 1 -70 7 -70 6 0 13 10 15 23 3 14 5 9 6 -15 2
-52 -6 -66 -33 -61 -21 4 -25 0 -31 -38 -7 -40 -8 -42 -22 -23 -13 18 -14 17
-7 -11 4 -16 12 -37 18 -45 13 -16 36 -66 36 -77 0 -4 -15 18 -34 49 -45 75
-90 187 -111 278 -10 41 -26 89 -36 106 -23 38 -23 58 -3 183 16 94 14 151 -5
151 -4 0 -6 -28 -4 -62 3 -35 1 -73 -4 -86 -9 -23 -9 -23 -52 18 -41 40 -42
43 -40 98 3 61 -3 78 -69 184 -36 59 -122 295 -122 335 0 26 20 42 21 16 0
-12 4 -8 11 10 11 32 2 49 -13 27 -8 -11 -8 -8 -3 10 9 34 33 81 52 103 24 27
26 20 3 -9z m2349 -46 c0 -30 34 -85 63 -101 15 -9 27 -20 27 -24 0 -4 -30 -8
-67 -9 -94 -1 -168 -11 -166 -22 1 -6 -4 -13 -12 -16 -8 -3 -15 -3 -15 -1 0
12 24 55 32 55 4 0 8 6 8 14 0 8 5 18 12 22 7 5 8 2 3 -7 -5 -8 -4 -11 1 -6 5
5 9 14 9 22 0 7 20 37 44 65 44 51 60 53 61 8z m53 -155 c36 -6 39 -8 33 -35
-3 -15 -2 -38 3 -51 5 -12 16 -48 25 -80 10 -32 30 -73 47 -91 18 -21 29 -45
29 -64 0 -16 7 -35 15 -42 19 -16 19 -37 -1 -130 -27 -130 0 -215 106 -338 33
-39 60 -75 60 -81 0 -15 -34 -31 -67 -31 -41 0 -221 128 -318 225 -117 116
-165 213 -165 330 0 76 41 240 80 322 24 50 35 62 57 66 47 7 57 7 96 0z m672
-214 c63 -18 120 -64 185 -149 33 -43 60 -83 60 -88 0 -20 -110 -108 -194
-157 -113 -66 -122 -72 -114 -81 4 -4 14 -1 23 6 42 35 121 -31 165 -136 33
-79 70 -249 70 -321 0 -75 -86 -139 -152 -114 -32 12 -468 445 -501 497 -31
50 -57 135 -57 186 0 71 22 178 36 178 8 0 14 -4 14 -10 0 -11 48 5 70 24 8 8
32 17 53 20 38 7 224 113 247 141 15 18 41 19 95 4z m291 -494 c0 -179 17
-312 56 -433 11 -35 17 -69 15 -76 -3 -8 0 -19 6 -26 9 -9 9 -11 1 -7 -7 4
-15 0 -18 -9 -5 -12 -16 -5 -51 33 -50 54 -76 115 -105 241 -39 177 -83 265
-151 305 l-38 23 102 61 c115 69 157 85 172 69 6 -7 10 -80 11 -181z"/>
<path d="M6613 9773 c-20 -4 -23 -11 -23 -51 l0 -47 85 0 85 0 0 46 c0 40 -3
48 -22 53 -25 6 -90 6 -125 -1z"/>
<path d="M514 8701 c-15 -23 -48 -55 -74 -72 -36 -23 -46 -36 -43 -50 6 -22
12 -23 119 -7 73 10 84 10 99 -5 19 -20 63 -22 86 -4 24 18 51 75 47 100 -2
14 -14 24 -37 30 -18 4 -43 15 -55 23 -12 7 -43 17 -68 20 -45 6 -47 6 -74
-35z"/>
<path d="M890 8555 c-8 -9 -29 -15 -56 -15 -23 0 -46 -4 -49 -10 -3 -5 -15
-10 -25 -10 -10 0 -34 -9 -52 -19 -18 -11 -53 -24 -78 -30 -39 -9 -47 -7 -66
10 -26 24 -34 24 -95 -2 -36 -16 -53 -19 -61 -11 -6 6 -17 8 -25 5 -10 -4 -12
-16 -7 -50 7 -50 -6 -69 -38 -52 -23 12 -100 8 -105 -6 -10 -30 104 -57 130
-31 9 9 29 19 46 22 16 4 38 15 47 25 24 27 40 24 54 -10 15 -37 38 -43 86
-20 38 17 56 11 36 -14 -6 -7 -12 -32 -13 -57 l-4 -45 32 2 c63 5 203 92 203
125 0 20 67 66 114 79 30 8 36 14 36 38 0 24 -29 80 -30 56 0 -5 -7 1 -16 13
-18 25 -46 29 -64 7z"/>
<path d="M107 8043 c-4 -3 -7 -13 -7 -21 0 -7 -9 -27 -21 -43 -20 -28 -20 -29
-2 -53 20 -27 47 -44 78 -48 18 -3 20 4 23 64 2 37 -2 77 -8 88 -10 19 -49 27
-63 13z"/>
<path d="M294 7495 c-16 -40 -18 -93 -4 -130 9 -25 7 -27 -35 -46 -42 -18 -44
-22 -39 -52 9 -54 23 -71 79 -101 30 -15 52 -32 49 -37 -3 -5 4 -9 15 -9 25 0
25 -1 7 36 -7 16 -22 68 -31 116 -18 85 -17 87 2 130 31 65 35 85 23 108 -17
32 -49 25 -66 -15z"/>
<path d="M1166 7344 c-3 -9 -4 -51 0 -93 6 -72 4 -79 -25 -133 -29 -55 -40
-98 -23 -98 4 0 32 22 61 48 50 45 55 52 53 88 -8 147 -11 166 -27 185 -22 23
-31 24 -39 3z"/>
<path d="M667 6842 c-11 -12 -17 -36 -17 -64 0 -39 -4 -47 -27 -58 -16 -8 -33
-14 -38 -15 -6 0 -22 -10 -35 -23 -13 -12 -40 -25 -59 -28 -71 -12 -81 -25
-81 -110 0 -83 11 -114 40 -114 29 0 50 -11 50 -26 0 -8 5 -14 10 -14 6 0 10
-7 10 -16 0 -9 8 -22 17 -29 15 -11 15 -15 -6 -44 -14 -19 -21 -42 -20 -59 2
-17 -5 -39 -18 -56 -21 -26 -21 -28 -5 -56 16 -28 16 -30 -12 -59 -16 -17 -32
-29 -34 -26 -2 2 -11 -3 -19 -11 -13 -13 -12 -20 8 -62 20 -40 23 -63 23 -162
l1 -115 50 3 c62 4 75 19 76 91 1 102 14 153 45 179 16 13 55 47 87 75 33 28
71 57 85 65 15 7 36 22 48 33 11 10 26 19 34 19 9 0 7 5 -6 14 -17 13 -22 12
-54 -18 -19 -19 -47 -36 -62 -40 -15 -3 -44 -17 -64 -31 -42 -28 -66 -31 -84
-10 -9 11 -8 25 7 67 10 29 18 76 18 103 1 44 7 58 51 120 28 39 59 84 67 101
15 29 15 33 1 45 -12 10 -20 7 -48 -20 -20 -19 -42 -31 -52 -29 -45 8 -19 158
49 295 17 33 19 48 12 69 -13 35 -27 39 -48 16z"/>
<path d="M1090 6457 c-5 -12 -16 -65 -26 -117 -14 -77 -23 -100 -45 -122 l-27
-28 30 -32 c26 -28 29 -37 24 -69 -4 -23 -2 -40 5 -44 6 -4 8 -13 5 -20 -3 -8
6 -14 24 -17 28 -4 29 -3 39 57 6 34 11 73 11 87 0 14 4 38 9 54 6 16 12 68
15 116 4 75 3 90 -14 111 -11 13 -17 27 -14 29 3 3 -2 8 -11 12 -10 4 -19 -2
-25 -17z"/>
<path d="M293 4932 c-6 -4 -21 -28 -33 -55 -12 -26 -26 -50 -31 -53 -12 -7
-11 -38 3 -68 13 -31 74 -47 90 -25 6 9 11 10 14 3 3 -6 11 -19 18 -29 12 -16
15 -14 45 27 18 25 44 51 58 59 47 25 68 99 28 99 -9 0 -27 7 -40 16 -17 11
-36 14 -56 10 -18 -3 -41 0 -58 8 -15 8 -32 11 -38 8z"/>
<path d="M295 4638 c-11 -6 -41 -29 -67 -50 -25 -21 -64 -44 -85 -52 -35 -12
-38 -16 -35 -47 2 -19 3 -64 2 -101 -1 -79 14 -89 51 -35 13 17 35 46 49 63
15 17 47 64 73 105 68 110 73 151 12 117z"/>
</g>
</svg>
