<?xml version="1.0" standalone="no"?>
<!DOCTYPE svg PUBLIC "-//W3C//DTD SVG 20010904//EN"
 "http://www.w3.org/TR/2001/REC-SVG-20010904/DTD/svg10.dtd">
<svg version="1.0" xmlns="http://www.w3.org/2000/svg"
 width="720.000000pt" height="1280.000000pt" viewBox="0 0 720.000000 1280.000000"
 preserveAspectRatio="xMidYMid meet">
<metadata>
Created by potrace 1.16, written by Peter Selinger 2001-2019
</metadata>
<g transform="translate(0.000000,1280.000000) scale(0.100000,-0.100000)"
fill="#000000" stroke="none">
<path d="M0 6400 l0 -6400 3600 0 3600 0 0 1110 0 1110 -46 85 c-25 46 -43 89
-39 95 11 18 53 11 69 -12 15 -20 16 53 16 803 0 582 -3 843 -11 883 -9 43 -9
60 0 69 18 18 13 48 -14 73 -14 13 -25 30 -25 39 0 9 9 15 25 15 l25 0 0 124
c0 98 -3 126 -15 136 -19 16 -19 36 0 44 25 9 17 50 -15 74 -48 36 -97 167
-85 230 8 46 46 82 85 82 l30 0 0 224 0 223 -51 5 c-58 6 -92 28 -122 78 -42
73 11 133 113 128 46 -2 56 1 58 16 2 10 -6 29 -19 42 -28 30 -81 32 -116 4
-54 -42 -90 -12 -47 40 23 27 31 30 86 30 32 0 68 -5 79 -10 19 -10 19 -5 19
208 l0 219 -52 7 c-104 14 -168 123 -102 175 21 16 41 21 90 21 72 0 80 11 42
54 -35 38 -69 42 -105 12 -37 -31 -67 -28 -71 6 -5 39 36 61 106 56 32 -2 65
-8 75 -12 16 -8 17 23 17 578 0 451 -3 591 -12 607 -10 17 -10 23 0 26 20 7
14 68 -8 88 -27 24 -27 80 0 97 20 13 20 24 20 2465 l0 2453 -3600 0 -3600 0
0 -6400z m6796 3680 c151 -69 198 -267 95 -405 -25 -34 -27 -41 -14 -50 14
-10 14 -14 -2 -38 -22 -35 -90 -46 -136 -23 -33 16 -80 14 -147 -6 -47 -14
-99 -2 -118 28 -13 20 -14 27 -4 39 11 13 9 19 -8 38 -85 90 -82 268 6 360 77
81 220 106 328 57z m-653 4 c29 -10 64 -34 92 -62 124 -125 89 -333 -68 -412
-133 -66 -310 -20 -370 96 -47 91 -44 191 7 276 25 43 43 59 94 85 54 28 75
33 131 33 37 0 88 -7 114 -16z m-5802 -244 c21 -91 39 -168 39 -172 0 -5 -15
-8 -33 -8 -28 0 -34 4 -42 32 -9 29 -14 32 -50 31 -36 0 -40 -3 -47 -31 -8
-28 -13 -32 -42 -32 l-34 0 14 58 c7 31 26 110 41 175 l27 118 44 -3 45 -3 38
-165z m369 78 l1 -93 30 38 c23 27 39 37 60 37 16 0 29 -3 29 -6 0 -4 -16 -28
-35 -53 -30 -41 -33 -50 -21 -67 7 -10 25 -40 40 -66 l27 -48 -35 0 c-30 0
-38 5 -57 40 -26 45 -39 43 -39 -6 0 -31 -2 -34 -30 -34 l-30 0 0 175 0 175
30 0 30 0 0 -92z m1740 -83 l0 -176 -42 1 c-24 1 -55 -1 -69 -5 -19 -5 -33 -1
-55 18 -28 24 -29 29 -28 107 1 68 4 85 21 102 22 21 54 27 91 14 21 -7 22 -5
22 53 l0 61 30 0 30 0 0 -175z m452 83 l3 -92 25 37 c20 30 31 37 58 37 30 0
42 -12 24 -24 -5 -3 -21 -23 -36 -44 l-27 -40 40 -66 41 -66 -34 0 c-28 0 -38
7 -62 43 l-29 42 -3 -42 c-3 -42 -4 -43 -38 -43 l-34 0 0 175 0 175 35 0 34 0
3 -92z m728 27 l0 -66 30 16 c33 17 60 13 85 -11 11 -12 15 -40 15 -120 l0
-104 -30 0 -30 0 0 90 c0 75 -3 92 -16 97 -37 14 -49 -10 -52 -101 l-3 -86
-29 0 -30 0 0 175 0 175 30 0 30 0 0 -65z m530 4 c0 -58 1 -60 23 -53 76 26
107 -8 107 -118 0 -71 -2 -81 -26 -105 -20 -20 -31 -24 -52 -18 -15 4 -46 6
-69 5 l-43 -1 0 176 0 175 30 0 30 0 0 -61z m-1480 -9 c0 -38 2 -40 30 -40 25
0 30 -4 30 -25 0 -21 -5 -25 -30 -25 l-31 0 3 -67 c3 -66 4 -68 31 -71 21 -3
27 -8 23 -19 -3 -8 -6 -19 -6 -24 0 -16 -73 -10 -92 8 -14 13 -18 31 -18 90 0
66 -2 75 -20 80 -13 3 -20 14 -20 29 0 17 6 24 20 24 16 0 20 7 20 33 0 40 6
47 37 47 20 0 23 -5 23 -40z m-2096 -61 c24 -23 34 -121 17 -172 -15 -44 -59
-66 -97 -48 -14 6 -27 11 -29 11 -3 0 -5 -30 -5 -66 l0 -65 -27 3 -28 3 -3
179 -2 179 37 -5 c21 -3 47 -2 58 3 26 10 55 2 79 -22z m405 20 c44 -16 51
-35 51 -143 l0 -96 -47 -1 c-27 0 -60 -1 -75 -1 -40 -1 -58 19 -58 63 0 43 20
63 83 80 28 7 37 15 35 27 -5 26 -48 28 -55 3 -4 -14 -13 -21 -29 -21 -65 0
-15 96 52 99 6 1 25 -4 43 -10z m290 0 c38 -14 51 -35 51 -88 l0 -41 -61 0
c-60 0 -60 0 -57 -27 3 -32 44 -46 54 -19 4 10 18 16 35 16 35 0 39 -25 10
-61 -15 -19 -29 -24 -66 -24 -39 0 -51 5 -71 28 -20 24 -24 39 -24 96 0 75 21
116 63 124 12 2 25 5 28 6 3 0 20 -4 38 -10z m198 0 c32 -12 43 -26 43 -56 0
-31 -45 -33 -53 -3 -7 26 -47 27 -47 1 0 -11 12 -23 30 -31 78 -32 101 -82 61
-131 -15 -19 -29 -24 -66 -24 -37 0 -51 5 -66 24 -29 36 -25 61 11 61 24 0 30
-4 30 -21 0 -15 5 -20 22 -17 40 5 31 32 -19 58 -91 48 -80 135 19 149 4 1 19
-4 35 -10z m191 0 c29 -10 59 -59 45 -73 -15 -15 -51 -5 -56 15 -4 13 -12 20
-24 17 -29 -5 -21 -32 15 -50 73 -36 92 -81 53 -129 -15 -19 -29 -24 -66 -24
-37 0 -51 5 -66 24 -29 36 -25 61 10 61 21 0 30 -6 34 -21 7 -25 40 -22 45 3
2 12 -11 24 -43 39 -74 35 -86 106 -22 134 39 17 37 17 75 4z m211 0 c17 -6
36 -19 41 -29 6 -10 10 -62 10 -115 l0 -97 -32 3 c-18 1 -48 -1 -66 -5 -50
-12 -82 13 -82 64 0 44 20 64 83 81 28 7 37 15 35 27 -5 25 -45 27 -58 3 -13
-24 -48 -28 -56 -6 -8 20 21 64 49 75 30 12 39 12 76 -1z m318 -21 c17 -16 23
-33 23 -65 l0 -43 -61 0 c-60 0 -60 0 -57 -27 3 -32 44 -46 54 -19 8 20 64 22
64 2 0 -69 -102 -98 -158 -45 -19 17 -22 31 -22 98 0 68 3 80 23 98 12 11 29
23 37 26 25 10 73 -2 97 -25z m1001 -4 c18 -21 22 -36 22 -98 0 -65 -3 -75
-26 -97 -35 -33 -104 -34 -136 -2 -27 28 -37 127 -17 174 24 60 111 73 157 23z
m240 8 c8 -10 12 -52 12 -119 l0 -103 -30 0 -30 0 0 90 c0 75 -3 92 -17 97
-32 12 -53 -32 -53 -113 l0 -74 -30 0 -30 0 0 120 0 120 29 0 c16 0 31 -5 33
-11 2 -6 14 -5 33 5 33 17 63 13 83 -12z m529 -4 c17 -16 23 -33 23 -65 l0
-43 -61 0 c-60 0 -60 0 -57 -27 3 -32 44 -46 54 -19 4 10 18 16 35 16 22 0 29
-5 29 -20 0 -42 -64 -79 -115 -66 -52 13 -65 39 -65 124 0 69 3 81 23 99 12
11 29 23 37 26 25 10 73 -2 97 -25z m540 8 c6 -6 13 -57 16 -118 l5 -108 -34
0 -34 0 0 90 c0 72 -3 92 -15 96 -33 13 -45 -15 -45 -102 l0 -84 -35 0 -35 0
0 120 0 120 35 0 c19 0 35 -4 35 -9 0 -6 12 -3 28 4 28 15 58 12 79 -9z m218
-7 c17 -16 21 -35 23 -120 l4 -100 -44 1 c-23 1 -54 -1 -68 -5 -35 -9 -80 27
-80 64 0 39 19 60 70 75 33 10 46 19 48 35 4 28 -33 29 -50 1 -12 -19 -48 -27
-60 -14 -15 14 11 60 43 77 40 20 84 15 114 -14z m400 16 c37 -15 55 -46 55
-96 0 -29 0 -29 -59 -29 -65 0 -73 -5 -64 -38 6 -26 53 -32 53 -7 0 11 11 15
36 15 32 0 35 -2 29 -22 -4 -13 -18 -34 -33 -47 -21 -19 -33 -22 -65 -18 -59
8 -80 35 -85 107 -5 75 11 118 52 136 39 17 40 17 81 -1z m198 1 c15 -8 27
-11 27 -5 0 5 14 9 31 9 l30 0 -3 -154 c-3 -134 -5 -157 -22 -175 -42 -46
-144 -35 -166 19 -7 16 -9 34 -5 39 10 18 44 12 57 -9 27 -42 78 -15 78 41 0
18 -3 20 -12 11 -7 -7 -29 -12 -49 -12 -56 0 -79 34 -79 116 0 72 13 107 44
122 29 14 37 14 69 -2z m285 -22 c19 -22 22 -36 22 -120 l0 -95 -42 1 c-24 1
-55 -1 -70 -5 -21 -6 -32 -2 -52 18 -48 48 -29 99 44 121 33 10 46 19 48 35 4
28 -33 29 -50 1 -12 -19 -48 -27 -60 -14 -15 14 11 60 43 77 43 22 86 16 117
-19z m-3048 -94 l0 -120 -35 0 -35 0 0 113 c0 63 3 117 7 120 3 4 19 7 35 7
l28 0 0 -120z m2271 103 c0 -10 8 -43 18 -73 l17 -55 19 73 c18 70 20 72 51
72 l32 0 -24 -82 c-79 -281 -76 -273 -113 -276 -28 -3 -33 -1 -27 14 29 76 29
101 -4 209 -17 59 -34 113 -37 121 -4 10 4 14 31 14 27 0 36 -4 37 -17z
m-4753 -840 c7 -115 17 -278 22 -363 9 -145 15 -248 40 -690 5 -96 14 -256 20
-355 6 -99 15 -259 20 -355 6 -96 15 -254 20 -350 6 -96 15 -251 20 -345 5
-93 14 -249 20 -345 5 -96 14 -254 20 -350 5 -96 14 -255 20 -352 13 -226 27
-481 40 -700 5 -95 14 -252 20 -348 5 -96 14 -258 20 -360 6 -102 15 -257 20
-345 5 -88 14 -245 20 -350 13 -231 27 -486 40 -700 5 -88 14 -250 20 -360 6
-110 12 -228 15 -263 l4 -62 -229 0 -230 0 0 3600 0 3600 23 0 c23 0 23 -1 35
-207z m806 170 c3 -21 6 -49 6 -63 0 -40 44 -122 94 -179 52 -58 51 -85 0 -58
-36 19 -70 56 -117 125 -41 60 -57 108 -57 170 0 41 1 42 34 42 31 0 34 -3 40
-37z m258 -17 c-4 -44 0 -62 18 -91 41 -67 110 -83 167 -39 39 29 77 29 81 -1
8 -58 -103 -92 -197 -60 -99 33 -141 88 -141 185 l0 60 38 0 39 0 -5 -54z
m616 29 c16 -13 34 -37 40 -52 16 -40 33 -226 23 -236 -11 -11 -66 5 -67 19 0
5 -3 25 -7 44 -4 19 -9 64 -12 100 -7 81 -38 120 -95 120 -68 0 -74 -12 -67
-138 5 -88 4 -111 -7 -115 -24 -10 -56 5 -60 27 -10 50 -25 239 -20 247 3 5
59 9 124 9 112 0 120 -1 148 -25z m4917 3 c2 -13 11 -75 19 -138 48 -373 46
-363 85 -408 101 -115 140 -272 96 -388 -9 -24 -28 -53 -43 -64 -22 -18 -27
-19 -40 -6 -12 12 -11 18 8 44 69 93 24 313 -86 426 -31 32 -34 40 -53 177
-37 262 -51 364 -51 372 0 4 13 7 30 7 23 0 31 -5 35 -22z m-4539 -43 c84 -49
126 -153 90 -223 -28 -54 -53 -67 -122 -66 -86 2 -149 33 -191 96 -58 88 -51
164 20 209 43 27 143 19 203 -16z m424 -54 c73 -44 118 -154 89 -219 -21 -49
-57 -67 -129 -66 -136 1 -229 93 -217 213 9 82 34 101 135 100 65 0 84 -5 122
-28z m1005 5 c15 -11 22 -36 32 -112 7 -53 16 -101 21 -106 6 -6 31 7 66 36
47 38 62 45 84 40 15 -4 29 -9 31 -11 3 -2 -18 -27 -46 -56 l-51 -52 83 -89
c46 -50 82 -93 80 -96 -2 -4 -18 -5 -34 -2 -21 3 -50 25 -97 74 -81 83 -100
86 -96 10 3 -52 2 -52 -27 -52 -16 0 -33 5 -37 12 -11 17 -63 390 -57 405 7
17 24 16 48 -1z m-783 -22 c3 -3 39 -6 79 -7 57 -2 83 -8 111 -25 29 -18 41
-21 57 -13 29 16 118 13 151 -4 48 -25 83 -80 91 -144 4 -31 10 -80 14 -108
l8 -53 -31 0 c-17 0 -34 5 -37 10 -4 6 -13 56 -21 112 -15 107 -21 121 -65
144 -37 19 -64 18 -85 -3 -14 -14 -16 -29 -11 -93 4 -41 9 -90 13 -107 6 -31
5 -33 -24 -33 -42 0 -50 15 -58 105 -9 109 -22 136 -74 160 -38 17 -44 18 -69
4 -29 -17 -30 -23 -18 -156 l7 -83 -29 0 c-16 0 -33 5 -37 11 -7 12 -33 212
-34 262 0 23 4 27 28 27 16 0 31 -2 34 -6z m2033 -143 c3 -5 10 -33 15 -62 6
-29 12 -54 14 -56 2 -2 35 -5 72 -6 119 -3 159 -58 180 -244 7 -63 6 -63 -19
-63 -14 0 -28 4 -31 9 -3 5 -15 55 -26 112 -24 125 -40 144 -119 141 -43 -2
-46 -14 -29 -124 9 -61 11 -105 6 -109 -5 -3 -20 -4 -33 -2 -20 4 -25 14 -35
71 -35 209 -51 299 -54 320 -3 18 1 22 25 22 15 0 30 -4 34 -9z m-722 -29 c46
-26 97 -97 97 -134 l0 -31 -47 6 c-190 25 -204 22 -167 -31 31 -45 132 -70
162 -40 9 9 18 8 39 -1 l28 -13 -30 -25 c-26 -23 -35 -25 -92 -20 -71 7 -106
23 -144 64 -39 41 -59 87 -59 133 0 52 13 76 53 101 38 24 111 20 160 -9z
m534 -68 c54 -26 101 -83 81 -95 -17 -10 -39 0 -78 36 -49 45 -90 51 -125 19
-24 -22 -27 -30 -21 -66 14 -85 58 -128 130 -128 24 0 39 6 49 21 20 27 61 22
65 -7 5 -35 -41 -64 -102 -64 -72 1 -128 29 -170 87 -31 43 -36 55 -36 110 0
56 2 63 31 87 41 35 106 35 176 0z m1426 -53 c18 -7 26 -20 31 -48 3 -21 22
-109 40 -196 36 -171 35 -183 -21 -158 -14 6 -34 9 -45 5 -11 -3 -40 -3 -64 1
-85 12 -155 101 -157 199 -1 62 5 74 49 92 33 14 76 10 127 -11 20 -8 21 5 8
72 -11 54 -7 59 32 44z m-743 -21 c71 -21 90 -48 115 -161 12 -57 26 -112 30
-121 6 -15 2 -18 -22 -18 -16 0 -33 3 -36 6 -3 4 -42 7 -85 8 -67 1 -82 4
-109 26 -57 46 -66 88 -28 125 21 22 33 25 100 25 41 0 75 3 75 8 0 18 -31 50
-60 62 -24 10 -36 10 -60 0 -16 -7 -30 -16 -30 -21 0 -13 -34 -11 -48 3 -19
19 -14 32 16 50 31 20 90 23 142 8z m379 -57 c38 -19 68 -62 77 -113 3 -19 14
-66 24 -103 20 -77 13 -89 -37 -64 -19 9 -37 11 -57 6 -51 -14 -117 5 -153 45
-71 78 -27 145 87 132 31 -4 59 -4 63 0 8 8 -11 45 -32 61 -23 17 -86 16 -101
-2 -7 -8 -20 -15 -30 -15 -10 0 -23 7 -30 15 -14 17 0 41 35 56 27 12 112 2
154 -18z m-4762 -35 c5 -7 11 -36 12 -65 5 -104 7 -107 97 -119 43 -7 102 -14
129 -15 l50 -4 -1 88 -1 87 26 0 c49 0 51 -7 66 -196 21 -251 21 -244 -14
-244 -16 0 -33 6 -39 13 -5 6 -13 51 -17 99 -8 100 1 92 -125 108 -128 15
-162 14 -156 -7 3 -10 6 -52 7 -93 l2 -75 -30 -3 c-16 -2 -35 3 -41 11 -11 13
-42 414 -33 423 10 9 59 3 68 -8z m5472 -56 c44 -32 61 -65 80 -157 11 -49 23
-98 26 -107 6 -14 2 -18 -18 -18 -14 0 -28 4 -32 9 -3 6 -28 7 -55 4 -122 -14
-227 90 -160 157 16 16 33 20 90 20 39 0 70 4 70 9 0 4 -9 20 -20 34 -28 36
-65 42 -104 17 -40 -24 -62 -26 -70 -5 -8 21 2 41 27 54 31 16 137 5 166 -17z
m283 -36 c13 -19 3 -31 -30 -34 -47 -5 -52 -18 -31 -102 24 -100 24 -130 0
-130 -10 0 -23 6 -29 13 -10 12 -62 232 -62 263 0 12 13 13 73 8 39 -4 75 -12
79 -18z m-5059 -87 c21 -5 52 -22 68 -37 27 -24 31 -37 44 -127 8 -55 18 -117
21 -137 6 -33 4 -38 -12 -38 -11 1 -32 7 -49 14 -21 9 -40 10 -64 3 -74 -20
-176 22 -210 86 -13 24 -13 31 2 62 21 43 74 60 165 51 58 -6 62 -5 62 14 0
12 -11 32 -25 45 -29 29 -89 34 -116 9 -10 -9 -33 -17 -51 -17 -27 -2 -34 2
-36 20 -7 51 104 79 201 52z m229 -31 c15 -12 68 -132 68 -155 0 -17 40 -47
48 -37 5 5 16 41 26 79 20 81 34 100 68 92 19 -5 35 -29 71 -107 26 -55 54
-100 61 -100 15 0 17 6 37 112 13 71 24 83 64 68 28 -11 30 -17 14 -57 -6 -15
-23 -77 -38 -138 -25 -102 -28 -110 -52 -113 -33 -4 -38 3 -99 126 -27 56 -53
102 -57 102 -5 0 -18 -35 -31 -78 -35 -116 -39 -122 -66 -122 -29 0 -43 16
-72 83 -12 29 -40 94 -63 145 -23 51 -39 97 -36 103 9 13 38 11 57 -3z m1163
-7 c5 -9 22 -127 27 -195 4 -44 24 -42 82 8 39 33 63 46 85 46 51 0 47 -19
-15 -75 l-59 -52 85 -87 c47 -48 87 -91 88 -97 2 -5 -11 -9 -28 -9 -27 0 -46
13 -109 75 -43 41 -83 75 -89 75 -8 0 -12 -20 -12 -59 0 -62 -12 -78 -50 -66
-22 7 -22 5 -67 393 l-6 52 31 0 c17 0 33 -4 37 -9z m-436 -67 c17 -4 49 -23
71 -43 39 -35 40 -38 56 -145 8 -61 20 -119 26 -129 9 -18 7 -19 -29 -13 -21
4 -76 8 -123 9 -98 2 -144 24 -175 80 -16 30 -16 38 -4 66 18 40 57 53 146 50
62 -2 68 -1 71 18 7 48 -97 83 -144 48 -21 -16 -70 -20 -78 -6 -11 17 7 43 38
57 34 14 95 18 145 8z m959 -116 c72 -22 142 -112 142 -181 0 -61 -18 -93 -65
-118 -41 -22 -48 -23 -102 -11 -105 22 -176 95 -189 193 -4 33 0 52 14 75 37
59 101 72 200 42z m1049 -53 c6 -33 14 -80 18 -105 10 -79 17 -81 80 -21 36
34 61 51 71 47 9 -3 22 -6 30 -6 26 0 14 -22 -38 -70 l-52 -48 87 -89 c48 -49
87 -92 87 -96 0 -4 -13 -7 -29 -7 -22 0 -43 15 -97 70 -90 93 -120 92 -103 -3
3 -20 2 -40 -3 -43 -18 -12 -58 6 -63 29 -5 24 -65 393 -65 403 0 3 15 4 32 2
32 -3 33 -6 45 -63z m-621 4 c4 -7 22 -9 48 -5 54 8 76 0 76 -30 0 -21 -5 -24
-39 -24 -58 0 -62 -12 -46 -116 21 -129 21 -134 -15 -134 -17 0 -33 6 -35 13
-5 12 -45 280 -45 298 0 13 47 11 56 -2z m400 -52 c65 -34 114 -111 114 -177
0 -79 -39 -119 -115 -120 -68 0 -114 15 -150 48 -99 88 -106 227 -13 265 38
15 119 7 164 -16z m1269 -19 c7 -18 65 -323 72 -375 l5 -41 -93 4 c-76 4 -101
9 -136 30 -107 62 -138 242 -49 279 31 13 97 8 140 -10 18 -8 19 -5 12 36 -4
24 -9 54 -13 67 -4 19 -1 22 26 22 17 0 34 -6 36 -12z m169 -68 c11 -71 19
-81 65 -74 56 9 116 -11 145 -49 26 -33 66 -180 66 -238 0 -27 -3 -30 -27 -27
-27 3 -29 7 -49 103 -29 140 -46 165 -112 165 -53 0 -58 -19 -39 -133 19 -110
14 -128 -26 -110 -21 10 -26 28 -56 189 -18 99 -35 192 -38 207 -6 27 -4 28
28 25 33 -3 34 -5 43 -58z m-726 0 c23 -16 51 -48 62 -69 20 -40 27 -91 13
-91 -5 1 -54 7 -111 14 -57 7 -105 10 -107 6 -8 -13 21 -55 54 -77 35 -24 105
-31 116 -13 9 15 41 12 54 -4 9 -11 8 -18 -4 -30 -23 -22 -59 -30 -113 -22
-155 21 -249 204 -151 295 18 17 36 21 84 21 53 0 68 -4 103 -30z m1787 -71
c7 -10 54 -215 76 -324 5 -27 12 -57 14 -66 3 -10 -1 -19 -11 -23 -37 -14 -47
9 -91 205 -23 107 -43 200 -43 207 0 15 46 16 55 1z m-562 -53 c73 -32 127
-114 127 -194 0 -40 -5 -53 -29 -76 -27 -26 -35 -28 -89 -24 -109 8 -191 87
-200 193 -4 50 -2 57 26 85 26 26 38 30 82 30 28 0 65 -6 83 -14z m347 -36
c72 -20 150 -121 150 -193 0 -51 -38 -101 -80 -105 -75 -8 -119 7 -170 56 -75
74 -93 170 -41 223 32 32 75 38 141 19z m-5496 -40 c64 -10 90 -22 129 -59 62
-56 73 -120 32 -169 -33 -39 -82 -49 -204 -42 l-94 5 6 -83 c2 -45 1 -85 -4
-88 -17 -10 -68 7 -73 24 -3 9 -10 82 -15 162 -6 80 -14 174 -17 209 l-6 64
96 -7 c53 -4 120 -11 150 -16z m753 -71 c1 -8 5 -39 8 -70 l6 -56 77 1 c87 1
138 -21 162 -71 13 -29 39 -183 40 -240 0 -31 -2 -33 -35 -33 -40 0 -39 -4
-55 145 -11 105 -21 125 -70 145 -36 15 -96 -2 -105 -30 -3 -10 -1 -64 5 -120
5 -56 10 -106 10 -111 0 -11 -50 -12 -66 -1 -10 7 -19 72 -45 341 -8 88 -8
115 1 121 18 11 65 -4 67 -21z m-219 -113 c48 -30 82 -89 82 -142 l0 -37 -56
7 c-205 24 -230 20 -198 -29 39 -59 116 -80 186 -50 28 11 39 12 52 2 10 -7
15 -19 11 -28 -10 -26 -51 -39 -119 -39 -81 0 -159 37 -198 95 -22 32 -27 51
-28 100 0 110 53 159 166 152 43 -3 72 -12 102 -31z m628 -51 c25 -10 41 -12
54 -5 23 12 119 1 148 -18 46 -30 64 -70 78 -175 20 -150 20 -147 -21 -147
-40 0 -38 -4 -56 140 -13 111 -19 124 -61 146 -26 13 -38 14 -69 5 -22 -7 -40
-20 -44 -31 -3 -10 -1 -64 5 -120 6 -55 8 -105 5 -110 -9 -14 -51 -12 -62 3
-11 13 -44 307 -36 320 6 10 19 9 59 -8z m589 -65 c62 -38 120 -159 84 -172
-8 -3 -65 0 -127 7 -62 6 -115 9 -117 6 -12 -11 -2 -31 31 -64 44 -42 89 -52
151 -31 41 14 47 14 61 0 15 -15 15 -17 0 -32 -9 -9 -37 -20 -62 -25 -94 -17
-192 24 -241 101 -20 31 -25 53 -25 101 0 60 2 64 42 102 41 39 42 39 104 34
40 -3 76 -13 99 -27z m399 -27 c4 -5 45 -8 90 -9 70 0 87 -4 114 -24 38 -28
58 -78 72 -185 6 -44 13 -90 15 -102 6 -26 -24 -40 -53 -24 -15 8 -22 33 -34
122 -15 106 -18 115 -48 142 -27 24 -39 28 -68 23 -64 -10 -67 -19 -50 -145 8
-61 12 -113 10 -116 -11 -10 -63 -4 -67 8 -8 20 -42 301 -38 310 2 4 14 7 27
7 12 0 26 -3 30 -7z m978 -55 c10 -20 28 -40 40 -44 42 -12 51 -44 14 -44 -14
0 -27 -4 -30 -8 -6 -9 18 -177 29 -204 4 -9 20 -20 36 -23 36 -8 45 -21 28
-41 -14 -17 -66 -12 -100 9 -25 16 -45 74 -59 173 -7 45 -15 85 -18 90 -4 5
-20 14 -37 19 -16 6 -30 17 -30 25 0 9 13 17 30 20 22 4 29 11 28 25 -7 58 42
60 69 3z m-397 -22 c44 -34 50 -49 70 -168 8 -51 18 -103 21 -115 6 -20 3 -23
-23 -23 -16 0 -34 5 -40 11 -9 9 -23 9 -54 1 -112 -28 -227 53 -205 144 9 35
60 54 146 54 38 0 70 2 70 5 0 16 -31 63 -45 69 -32 12 -77 6 -115 -16 -36
-21 -41 -22 -55 -7 -20 20 -11 45 24 65 18 10 47 13 98 11 60 -3 78 -9 108
-31z m604 -53 c5 -10 16 -62 25 -117 17 -108 33 -142 72 -152 36 -9 85 7 94
31 4 11 1 52 -6 90 -19 105 -18 145 4 145 36 0 43 -19 68 -161 13 -79 24 -147
24 -150 0 -10 -183 -8 -216 2 -35 11 -79 53 -88 86 -13 41 -43 233 -38 238 12
12 52 4 61 -12z m536 -44 c5 -7 25 -8 55 -4 95 13 173 -29 210 -112 24 -54 26
-132 5 -172 -22 -44 -65 -57 -130 -39 -30 8 -57 13 -60 10 -3 -3 -3 -32 1 -64
l7 -58 -32 0 c-23 0 -32 5 -36 23 -14 57 -72 413 -68 420 6 11 41 8 48 -4z
m1367 -11 c20 -16 104 -416 90 -430 -5 -5 -18 -5 -32 0 -22 8 -28 25 -67 217
-23 115 -40 212 -37 217 7 12 28 10 46 -4z m-817 -48 c52 -25 68 -54 94 -170
11 -52 24 -105 27 -117 6 -20 3 -23 -23 -23 -16 0 -33 4 -38 9 -6 6 -28 6 -55
1 -61 -12 -116 4 -157 45 -38 38 -43 80 -14 116 16 21 31 25 98 29 71 5 78 7
75 25 -5 31 -40 55 -83 55 -21 0 -41 -5 -44 -11 -11 -17 -57 -31 -68 -20 -15
15 0 57 25 69 38 18 118 14 163 -8z m171 -14 c11 -8 40 -52 63 -98 65 -125 74
-131 86 -55 3 23 11 63 16 90 10 43 14 47 40 47 27 0 29 -3 29 -36 0 -20 -7
-64 -16 -97 -9 -34 -22 -97 -30 -140 -7 -44 -22 -93 -32 -111 -16 -28 -23 -31
-68 -31 -42 0 -49 3 -49 19 0 13 10 22 29 27 68 18 62 53 -40 232 -64 113 -82
152 -72 158 18 12 20 11 44 -5z m444 -36 c53 -14 95 -65 110 -130 11 -47 28
-116 41 -170 5 -17 -38 -27 -53 -12 -5 5 -40 7 -77 4 -77 -5 -117 10 -150 57
-26 36 -27 72 -2 102 16 20 30 24 95 27 85 5 94 15 51 57 -31 31 -84 34 -110
5 -21 -23 -48 -26 -64 -6 -26 31 25 75 89 76 19 0 51 -5 70 -10z m-4945 -201
c22 -6 55 -27 77 -49 31 -31 38 -45 38 -77 0 -25 -8 -50 -20 -66 -25 -32 -25
-35 5 -59 58 -46 72 -125 30 -170 -41 -44 -84 -52 -225 -39 -69 6 -129 16
-135 22 -13 13 -46 452 -35 459 13 8 217 -9 265 -21z m1107 -135 c11 -85 10
-84 65 -78 88 11 173 -29 208 -96 22 -42 36 -118 29 -155 -3 -18 -18 -47 -32
-65 -36 -41 -82 -51 -153 -32 -29 8 -75 14 -101 13 -56 -2 -48 -30 -79 268
-23 220 -22 225 30 212 23 -7 27 -14 33 -67z m-796 -99 c6 -50 14 -127 18
-172 l7 -83 -36 0 c-28 0 -37 5 -44 23 -10 29 -34 314 -27 325 3 5 20 7 38 3
l33 -7 11 -89z m175 70 c23 -12 34 -13 51 -4 27 15 133 5 164 -16 42 -27 62
-75 73 -177 17 -150 15 -168 -12 -168 -45 0 -54 18 -65 145 -10 110 -14 122
-37 142 -36 32 -66 37 -109 19 l-38 -16 4 -132 3 -133 -26 -3 c-14 -2 -30 3
-36 10 -10 13 -33 227 -33 306 0 47 11 52 61 27z m1465 -40 c12 -8 24 -27 27
-43 4 -22 14 -31 39 -38 39 -12 47 -46 11 -49 -13 -1 -26 -4 -29 -8 -8 -8 15
-188 28 -213 5 -12 23 -25 39 -28 20 -4 29 -11 29 -25 0 -27 -9 -30 -60 -21
-65 12 -85 41 -99 142 -23 168 -18 154 -62 167 -51 15 -51 44 0 49 28 3 32 7
27 24 -5 22 9 58 22 58 4 0 17 -7 28 -15z m-226 -71 c55 -32 69 -61 84 -171 8
-55 19 -111 26 -122 6 -12 8 -26 5 -31 -9 -15 -48 -12 -74 6 -17 12 -26 13
-34 5 -18 -18 -117 -13 -164 8 -74 34 -95 111 -44 162 28 28 34 29 115 29 98
0 108 10 57 61 -37 36 -97 41 -126 9 -21 -23 -70 -27 -79 -5 -8 22 1 38 32 58
36 24 155 19 202 -9z m642 -50 c56 -29 68 -55 92 -204 8 -47 16 -94 18 -105 3
-17 -2 -20 -32 -17 -19 1 -69 2 -110 2 -110 -2 -171 28 -185 91 -18 82 28 119
145 119 79 0 87 9 46 57 -31 36 -87 38 -132 4 -31 -23 -74 -23 -74 0 0 23 24
52 53 65 37 16 136 9 179 -12z m396 -38 c48 -25 69 -67 82 -165 6 -47 18 -100
25 -117 8 -18 11 -35 8 -38 -10 -10 -58 -7 -69 4 -7 7 -28 7 -65 0 -94 -17
-182 26 -195 97 -14 76 45 119 148 109 32 -3 60 -1 63 4 7 12 -12 51 -34 67
-25 20 -85 15 -115 -8 -32 -25 -70 -22 -74 7 -9 63 133 89 226 40z m178 -4 c6
-4 29 -41 50 -82 20 -41 46 -90 57 -108 18 -31 20 -32 32 -15 11 17 17 38 30
122 11 65 36 86 75 61 13 -8 8 -36 -34 -204 -41 -162 -53 -199 -75 -220 -34
-32 -95 -36 -110 -8 -12 22 3 42 29 42 20 0 45 26 54 56 6 21 5 26 -97 212
-31 56 -59 113 -63 127 -5 21 -3 25 17 25 13 0 29 -4 35 -8z m534 -51 c47 -25
87 -77 99 -129 7 -34 6 -44 -4 -48 -7 -3 -59 -2 -114 3 -111 10 -129 6 -113
-23 34 -63 103 -90 172 -67 66 23 94 -2 49 -43 -27 -25 -139 -25 -185 -2 -40
22 -89 73 -109 113 -34 72 -11 169 47 201 34 20 118 17 158 -5z m1153 -53 c13
-28 23 -38 41 -38 24 0 41 -24 30 -41 -3 -5 -14 -9 -24 -9 -10 0 -21 -3 -24
-8 -7 -11 32 -193 45 -209 6 -7 20 -13 30 -13 19 0 43 -33 32 -44 -12 -12 -79
-6 -101 10 -31 21 -47 65 -62 166 -7 48 -16 90 -19 95 -3 5 -19 13 -36 18 -40
14 -45 43 -8 47 21 2 27 8 26 23 -7 59 42 61 70 3z m-629 18 c18 -4 47 -19 65
-35 28 -25 35 -42 56 -142 13 -63 27 -124 31 -136 6 -20 3 -23 -23 -23 -16 0
-34 5 -40 11 -8 8 -21 8 -49 -1 -93 -31 -204 36 -204 122 0 54 40 78 133 78
57 0 67 3 67 18 -1 34 -47 72 -89 72 -11 0 -33 -12 -50 -26 -37 -31 -71 -26
-71 11 0 49 72 70 174 51z m407 -46 c49 -25 63 -55 88 -180 11 -52 23 -105 26
-117 6 -20 4 -23 -22 -23 -16 0 -34 5 -40 11 -7 7 -22 7 -49 0 -76 -20 -155
10 -189 72 -39 73 13 127 123 127 71 0 80 13 37 55 -34 35 -83 37 -116 4 -21
-21 -54 -25 -64 -8 -12 18 4 55 27 67 39 19 134 14 179 -8z m421 -32 c17 -14
74 -291 63 -308 -9 -14 -41 -12 -53 3 -9 11 -41 163 -58 275 -6 37 -4 42 13
42 10 0 26 -6 35 -12z m306 -31 c7 -6 36 -52 63 -104 28 -51 55 -93 60 -93 10
0 15 19 29 114 6 38 13 73 16 77 2 4 16 4 32 0 32 -9 32 -7 3 -166 -34 -190
-40 -217 -56 -242 -19 -28 -59 -39 -91 -24 -33 15 -28 42 10 52 68 19 62 55
-40 231 -48 83 -84 155 -80 163 5 15 29 11 54 -8z m462 -35 c48 -24 76 -70 90
-149 6 -37 18 -88 26 -112 8 -25 14 -46 14 -48 0 -8 -60 -2 -65 7 -4 7 -13 6
-27 -1 -31 -17 -124 -6 -156 18 -67 50 -78 129 -22 158 16 8 56 15 90 15 69 0
77 14 35 55 -31 32 -84 34 -110 5 -28 -31 -60 -22 -60 15 0 21 7 33 25 42 36
18 119 16 160 -5z m-5535 -167 c116 -9 298 -22 405 -30 107 -8 265 -19 350
-25 85 -5 178 -12 205 -15 28 -2 95 -7 150 -11 55 -3 106 -11 113 -16 7 -6 12
-33 12 -62 0 -28 5 -68 11 -89 6 -22 9 -41 7 -42 -2 -2 -22 2 -43 10 -54 19
-117 18 -159 -1 -33 -16 -36 -16 -70 5 -34 21 -98 28 -191 22 -11 -1 -35 1
-52 5 -24 4 -34 2 -38 -8 -6 -16 22 -307 31 -333 4 -9 19 -15 41 -15 l36 0 -7
78 c-3 42 -9 102 -12 133 -8 69 8 89 69 89 45 0 80 -18 97 -50 6 -11 15 -70
21 -132 6 -62 16 -119 21 -125 6 -7 23 -13 39 -13 34 0 33 -4 19 140 -13 117
-9 135 30 155 34 17 75 11 109 -16 21 -17 25 -34 38 -147 8 -70 20 -133 25
-140 22 -26 29 5 19 84 -6 44 -13 117 -16 164 l-6 85 22 -34 c17 -25 26 -63
38 -159 15 -123 14 -125 -6 -141 -18 -15 -19 -23 -12 -76 4 -32 6 -62 4 -65
-2 -4 -17 -5 -32 -3 -15 2 -257 17 -538 33 -280 17 -580 35 -665 40 -85 6
-201 13 -258 17 -94 6 -103 8 -106 27 -4 22 -32 397 -43 579 l-6 109 69 -7
c38 -3 164 -12 279 -20z m1631 -161 c22 -6 31 -44 50 -206 8 -75 23 -75 94 -3
55 56 81 66 113 42 16 -11 12 -17 -38 -67 -30 -30 -55 -61 -55 -70 0 -9 39
-57 86 -108 47 -50 82 -97 79 -102 -17 -27 -71 2 -142 76 -92 95 -108 95 -108
4 l0 -65 -32 -3 c-23 -2 -33 2 -37 15 -9 27 -56 413 -56 456 0 38 6 42 46 31z
m1195 -164 l15 -75 75 3 c64 3 78 1 107 -20 19 -13 42 -39 52 -58 20 -39 56
-252 46 -269 -4 -6 -18 -11 -32 -11 -31 0 -37 16 -58 150 -14 94 -19 108 -46
133 -36 32 -78 35 -111 8 -23 -18 -23 -20 -11 -107 7 -49 15 -105 18 -125 6
-33 4 -37 -20 -41 -14 -3 -32 0 -40 6 -12 10 -56 272 -74 439 l-5 48 34 -3
c34 -3 34 -4 50 -78z m-600 -33 c57 -30 76 -70 90 -183 6 -49 17 -104 24 -121
13 -32 13 -33 -11 -39 -14 -4 -36 -1 -48 6 -17 9 -33 9 -65 0 -67 -18 -129 -4
-173 40 -91 90 -43 172 102 176 96 2 91 0 75 36 -13 31 -51 57 -86 58 -9 0
-33 -11 -53 -25 -20 -14 -48 -25 -61 -25 -37 0 -33 41 6 74 42 36 135 37 200
3z m1997 0 c6 -7 20 -63 30 -126 11 -62 23 -115 27 -119 3 -4 28 16 55 44 57
60 71 67 106 54 l25 -10 -51 -60 c-39 -48 -48 -65 -41 -78 5 -9 46 -53 90 -96
44 -44 78 -83 75 -88 -3 -4 -18 -8 -33 -8 -21 0 -44 17 -101 75 -90 93 -106
94 -102 9 4 -66 -5 -78 -44 -64 -15 6 -23 20 -27 47 -3 21 -19 118 -36 216
-38 217 -38 217 -7 217 13 0 28 -6 34 -13z m-1581 -25 c13 -8 63 -330 63 -402
0 -58 -27 -82 -88 -78 -43 3 -47 5 -47 28 0 18 6 26 22 28 42 6 43 19 17 202
-30 221 -30 230 -1 230 12 0 27 -4 34 -8z m754 -58 c50 -25 66 -58 89 -184 12
-66 26 -123 31 -126 5 -3 7 -10 4 -15 -8 -13 -69 -11 -82 2 -8 8 -17 7 -34 -1
-29 -16 -130 -7 -160 13 -51 36 -73 103 -49 148 18 33 68 52 125 46 62 -6 80
2 72 34 -7 27 -29 44 -73 53 -25 6 -37 2 -62 -19 -16 -14 -42 -25 -57 -25 -24
0 -26 3 -23 33 4 47 53 70 132 62 33 -4 72 -13 87 -21z m274 -9 c58 0 60 -1
63 -27 3 -26 1 -28 -31 -28 -60 0 -70 -33 -48 -155 23 -127 24 -125 -14 -125
-38 0 -38 0 -55 107 -6 39 -13 80 -15 90 -22 125 -18 159 17 146 13 -4 50 -8
83 -8z m350 -37 c70 -37 116 -113 118 -193 2 -81 -46 -137 -117 -137 -105 0
-164 35 -211 124 -23 43 -26 61 -23 109 5 63 23 93 70 113 34 15 122 6 163
-16z m747 -53 c49 -33 57 -49 84 -175 13 -58 26 -115 30 -127 6 -20 3 -23 -23
-23 -16 0 -34 5 -40 11 -8 8 -21 8 -48 -1 -21 -7 -52 -9 -73 -5 -101 19 -156
83 -127 151 17 40 52 57 113 55 83 -4 103 19 57 64 -32 33 -78 32 -127 -2 -35
-24 -40 -25 -54 -11 -9 9 -14 24 -10 35 18 56 151 73 218 28z m363 -14 c3 -6
35 -7 74 -4 59 5 74 3 104 -16 36 -22 67 -28 67 -12 0 15 49 22 99 15 35 -5
54 -15 81 -43 31 -33 38 -49 59 -151 13 -63 24 -122 25 -130 1 -17 -41 -27
-55 -13 -5 5 -18 53 -29 108 -11 55 -25 113 -31 128 -14 35 -55 55 -93 48 -49
-10 -52 -27 -28 -152 18 -90 20 -114 10 -121 -37 -23 -52 -3 -73 97 -26 131
-34 153 -62 174 -31 25 -85 27 -104 5 -11 -13 -10 -34 6 -122 10 -59 18 -114
19 -122 1 -17 -41 -27 -55 -13 -12 12 -71 312 -64 324 8 12 42 12 50 0z
m-5240 -383 c4 -14 35 -426 35 -470 0 -26 -3 -28 -40 -28 -24 0 -42 5 -45 13
-4 13 -35 425 -35 470 0 25 3 27 40 27 24 0 42 -5 45 -12z m327 -141 c98 -2
108 -4 133 -27 15 -14 33 -40 40 -57 15 -37 40 -265 31 -288 -6 -17 -61 -21
-71 -4 -4 5 -13 68 -20 140 -13 134 -19 150 -67 175 -23 12 -35 13 -69 3 -22
-7 -45 -21 -51 -32 -10 -19 -6 -130 8 -234 l6 -43 -41 0 c-24 0 -43 5 -46 13
-7 21 -31 358 -25 363 3 3 18 3 35 -1 16 -3 78 -7 137 -8z m339 -24 c24 -14
33 -15 49 -5 29 18 119 15 160 -6 62 -31 82 -88 95 -275 l7 -98 -38 3 c-44 3
-40 -7 -62 193 -9 78 -13 92 -37 112 -32 28 -90 31 -124 6 -23 -16 -24 -18
-17 -132 4 -64 9 -126 12 -138 5 -18 1 -23 -22 -29 -44 -11 -58 6 -66 77 -34
318 -31 336 43 292z m2776 -1 c10 -7 83 -431 83 -486 0 -15 -5 -17 -37 -12
-52 8 -53 8 -93 -2 -109 -27 -218 66 -235 200 -9 71 19 139 65 158 29 12 104
9 148 -5 l24 -8 -7 82 c-8 81 -7 81 16 81 13 0 29 -4 36 -8z m-2138 -34 c15
-9 28 -9 59 1 49 17 126 7 160 -20 29 -23 50 -24 76 -4 27 20 129 19 172 -1
51 -24 72 -75 89 -212 21 -163 22 -154 -22 -150 -43 3 -42 2 -62 179 -11 100
-23 121 -76 139 -26 9 -41 8 -71 -5 l-37 -15 8 -108 c14 -179 14 -177 -19
-180 -16 -2 -32 0 -37 5 -5 5 -15 67 -23 138 -14 124 -16 131 -45 157 -17 16
-42 28 -55 28 -32 0 -84 -19 -89 -33 -2 -7 2 -70 9 -141 7 -71 11 -133 8 -138
-8 -13 -62 -10 -71 5 -9 15 -43 349 -37 359 8 12 42 10 63 -4z m3149 -30 c7
-7 12 -26 12 -42 0 -17 5 -47 10 -67 l10 -36 78 5 77 4 46 -44 c56 -53 79
-108 79 -192 0 -57 -3 -67 -29 -95 -25 -27 -36 -31 -78 -31 -26 1 -65 7 -86
14 -20 8 -40 10 -43 5 -11 -19 -53 -9 -60 14 -12 38 -82 462 -77 470 7 11 48
8 61 -5z m-2275 -12 c68 -29 126 -111 127 -180 l0 -29 -129 7 c-87 5 -131 4
-136 -3 -10 -18 26 -68 65 -90 44 -24 97 -27 124 -6 25 19 60 19 75 2 8 -10 4
-20 -17 -39 -77 -72 -251 -29 -309 78 -73 132 -9 272 125 274 23 0 57 -6 75
-14z m261 -22 c9 -8 16 -21 16 -28 0 -16 29 -254 35 -294 6 -33 6 -33 -32 -30
l-38 3 -17 100 c-9 55 -20 137 -24 183 l-7 82 26 0 c14 0 33 -7 41 -16z m185
-6 c14 -8 29 -8 64 0 25 7 60 9 79 6 41 -8 94 -46 112 -82 15 -28 33 -130 43
-234 l5 -58 -35 0 c-41 0 -38 -7 -57 150 -13 106 -23 132 -59 153 -34 20 -51
21 -85 6 -37 -17 -43 -42 -29 -132 6 -45 12 -101 12 -124 1 -41 0 -43 -28 -43
-17 0 -33 5 -37 11 -10 16 -52 331 -47 347 6 15 37 16 62 0z m1223 -85 c115
-82 142 -240 54 -308 -59 -45 -194 -28 -244 30 -89 102 -94 243 -10 295 51 32
143 24 200 -17z m398 -8 c91 -47 150 -196 109 -276 -28 -57 -60 -72 -140 -67
-58 3 -74 8 -106 34 -65 52 -96 106 -100 171 -7 111 51 169 157 157 30 -4 66
-12 80 -19z m975 -55 c32 -20 65 -60 65 -79 0 -24 -47 -15 -83 16 -61 54 -149
38 -117 -21 9 -17 30 -28 79 -41 90 -25 138 -58 152 -106 22 -71 -31 -115
-127 -106 -67 7 -130 39 -149 77 -31 59 8 68 67 14 35 -31 44 -35 86 -32 41 3
47 6 50 26 5 32 -22 59 -65 67 -67 12 -141 51 -157 84 -40 76 -2 120 103 121
47 0 72 -5 96 -20z m360 -28 c45 -31 62 -72 88 -202 8 -41 18 -85 22 -98 7
-21 5 -22 -51 -21 -33 0 -82 0 -111 -1 -38 -2 -61 3 -86 19 -51 31 -79 99 -61
146 10 25 83 52 129 48 54 -5 71 7 54 38 -30 57 -94 67 -141 22 -23 -22 -32
-25 -46 -17 -26 17 -25 38 4 67 24 24 34 27 93 27 55 -1 72 -5 106 -28z
m-5520 -464 c3 -7 9 -59 14 -116 4 -56 11 -105 15 -109 4 -4 59 46 124 110 98
97 122 117 147 117 17 0 37 -5 45 -10 12 -8 10 -15 -17 -42 -110 -115 -146
-155 -154 -170 -10 -19 16 -53 154 -201 48 -52 87 -99 87 -106 0 -6 -17 -11
-40 -11 -46 0 -37 -7 -174 143 -49 53 -94 97 -101 97 -7 0 -25 -10 -40 -22
-27 -21 -27 -23 -24 -112 4 -98 0 -106 -56 -92 -19 5 -24 14 -29 53 -12 99
-36 465 -30 474 8 14 74 11 79 -3z m1238 -22 c9 -9 18 -57 25 -135 6 -67 14
-126 17 -131 13 -20 34 -8 88 50 48 51 61 60 91 60 19 0 38 -5 41 -11 4 -5
-20 -39 -54 -74 -34 -35 -61 -68 -61 -74 0 -6 43 -58 95 -115 52 -57 95 -106
95 -110 0 -3 -19 -6 -41 -6 -44 0 -58 11 -162 128 -21 23 -42 42 -46 42 -22 0
-33 -33 -29 -92 l3 -63 -37 -3 c-42 -4 -43 -1 -52 93 -4 33 -15 144 -27 248
-11 103 -17 192 -14 197 9 15 51 12 68 -4z m-486 -149 c47 -25 62 -63 78 -200
8 -67 17 -134 21 -149 6 -26 4 -28 -28 -28 -19 0 -39 5 -46 12 -9 9 -21 9 -50
0 -96 -29 -187 -6 -229 57 -27 40 -29 71 -8 111 23 44 63 60 147 60 87 0 103
8 94 44 -15 62 -113 81 -165 32 -32 -31 -67 -32 -85 -3 -9 16 -5 24 28 52 22
20 51 35 70 37 54 5 140 -7 173 -25z m253 2 c8 0 35 3 60 6 35 6 49 4 59 -8
23 -29 9 -52 -36 -58 -78 -10 -84 -29 -62 -216 10 -79 9 -97 -2 -104 -26 -16
-59 -10 -68 14 -12 29 -43 356 -35 369 4 5 20 7 38 4 17 -4 38 -7 46 -7z m838
-33 c57 -30 109 -107 114 -168 l3 -33 -137 -3 c-152 -3 -159 -7 -117 -60 49
-63 109 -77 179 -42 21 11 46 17 54 14 42 -16 13 -63 -52 -85 -44 -15 -147 -5
-181 17 -130 83 -159 242 -60 337 38 35 43 37 105 37 37 0 77 -6 92 -14z m477
-17 c143 5 145 4 188 -25 70 -49 111 -162 93 -256 -3 -19 -19 -49 -35 -68 -27
-33 -33 -35 -87 -35 -33 0 -74 4 -93 9 l-33 8 3 -78 4 -79 -29 -3 c-16 -2 -32
0 -37 5 -8 8 -69 459 -69 511 0 22 3 24 33 17 17 -3 46 -6 62 -6z m602 -25
c42 -20 88 -65 110 -108 41 -77 30 -187 -23 -237 -23 -21 -34 -24 -109 -24
-76 0 -87 3 -127 30 -55 38 -99 121 -100 191 -1 65 31 129 75 148 44 20 132
19 174 0z m2237 0 c9 -8 16 -24 16 -33 0 -20 21 -41 42 -45 46 -6 50 -40 7
-55 -22 -8 -29 -15 -25 -28 3 -10 12 -58 20 -107 16 -92 33 -123 70 -128 30
-4 30 -52 0 -56 -36 -5 -91 24 -109 57 -8 17 -24 81 -35 143 -19 109 -28 128
-61 128 -22 0 -45 28 -33 39 5 5 18 11 29 13 16 2 21 12 23 46 3 33 7 42 22
42 10 0 26 -7 34 -16z m-1784 -24 c97 -49 146 -185 105 -287 -25 -60 -58 -78
-141 -78 -65 1 -75 4 -120 36 -27 19 -59 53 -71 75 -51 89 -35 215 31 255 43
26 143 26 196 -1z m237 2 c13 -8 23 -59 58 -282 13 -85 21 -167 18 -182 -8
-43 -34 -60 -89 -56 -45 3 -49 5 -52 31 -3 21 1 27 17 27 11 0 27 7 35 16 18
17 19 5 -20 251 -30 193 -30 203 -1 203 12 0 27 -4 34 -8z m363 -21 c19 -10
43 -29 53 -42 19 -26 40 -107 52 -199 4 -30 13 -67 21 -81 7 -15 10 -29 7 -33
-9 -9 -56 -7 -72 3 -7 5 -32 3 -60 -6 -105 -32 -211 32 -211 128 0 63 56 99
154 99 36 0 66 4 66 10 0 25 -26 61 -56 75 -41 19 -80 11 -101 -22 -22 -33
-66 -29 -72 7 -2 18 6 32 30 52 28 24 42 28 94 28 40 0 72 -6 95 -19z m418
-38 c12 -49 48 -247 64 -346 11 -73 10 -79 -9 -105 -17 -23 -27 -27 -69 -27
-46 0 -49 2 -49 25 0 18 6 26 22 28 15 2 25 13 29 28 4 14 -8 110 -25 212 -17
103 -31 195 -31 205 0 12 8 17 30 17 26 0 30 -5 38 -37z m352 6 c84 -51 123
-113 124 -204 2 -113 -56 -165 -168 -151 -111 14 -190 111 -191 233 0 99 44
143 145 143 38 0 66 -6 90 -21z m825 -44 c39 -31 85 -112 85 -152 0 -23 -2
-23 -114 -23 -64 0 -117 -4 -121 -10 -8 -14 35 -69 67 -86 35 -18 79 -18 104
1 25 19 63 19 71 -1 3 -10 -4 -26 -20 -42 -23 -22 -34 -26 -90 -25 -36 0 -76
7 -93 16 -37 19 -87 72 -108 115 -20 38 -24 135 -8 174 30 73 151 90 227 33z
m176 15 c13 -8 31 -7 59 1 46 14 73 0 68 -35 -2 -15 -14 -23 -45 -29 -51 -10
-51 -11 -23 -146 11 -52 20 -105 20 -118 0 -28 -21 -39 -47 -24 -15 8 -24 37
-42 138 -13 70 -27 145 -32 166 -14 54 0 69 42 47z m-5658 -681 c32 -46 61
-91 64 -99 8 -20 44 -60 55 -60 4 0 35 53 67 119 51 100 64 119 86 124 37 7
65 -2 65 -21 0 -9 -24 -59 -54 -111 -123 -219 -117 -200 -106 -309 10 -104 7
-112 -40 -112 -40 0 -50 18 -50 90 0 36 -4 80 -9 97 -8 27 -72 136 -91 153
-17 16 -140 201 -140 211 0 10 50 16 75 8 11 -3 46 -44 78 -90z m2051 63 c3
-5 12 -67 21 -138 8 -71 22 -180 30 -242 21 -160 20 -170 -11 -178 -40 -10
-53 13 -64 107 -29 246 -50 435 -50 446 0 14 65 18 74 5z m188 -4 c11 -9 20
-54 32 -153 10 -77 19 -141 21 -144 2 -2 37 28 78 68 60 58 79 71 105 71 20 0
32 -5 32 -13 0 -7 -25 -42 -55 -77 -30 -36 -55 -70 -55 -76 0 -10 44 -62 138
-165 23 -25 42 -51 42 -58 0 -6 -16 -11 -38 -11 -34 0 -43 7 -106 79 -38 44
-75 83 -84 86 -31 12 -43 -15 -40 -89 l3 -71 -29 -3 c-16 -2 -32 0 -37 5 -6 7
-33 197 -68 480 -8 65 -1 83 29 83 9 0 23 -6 32 -12z m1630 -51 c4 -7 8 -25 8
-40 0 -76 34 -141 55 -107 11 19 115 12 150 -10 79 -49 123 -151 109 -258 -13
-105 -85 -143 -202 -109 -28 9 -52 12 -52 6 0 -12 -47 -12 -55 1 -6 10 -67
364 -80 467 -4 29 -4 57 0 63 8 14 56 4 67 -13z m424 0 c1 -1 9 -37 17 -81 9
-43 19 -81 22 -84 3 -4 15 -1 25 6 11 7 43 12 73 12 72 0 116 -30 140 -98 20
-54 58 -272 51 -284 -8 -13 -51 -9 -61 5 -6 6 -18 57 -27 112 -10 55 -19 112
-22 127 -12 64 -90 99 -142 62 -27 -19 -28 -56 -7 -167 8 -43 15 -94 15 -113
0 -29 -4 -34 -22 -34 -13 0 -28 4 -34 8 -7 4 -24 77 -38 162 -67 382 -67 387
-18 375 15 -4 28 -7 28 -8z m-3598 -97 c49 -35 83 -96 85 -153 l2 -42 -145 -5
c-168 -6 -177 -12 -113 -81 50 -53 111 -64 166 -30 39 24 70 27 85 8 16 -18
-8 -50 -52 -71 -92 -43 -233 -3 -291 84 -28 41 -30 52 -30 132 0 96 12 123 75
166 27 18 47 22 105 22 64 0 77 -3 113 -30z m472 9 c14 1 53 4 86 7 94 9 153
-29 195 -124 26 -59 26 -169 0 -220 -29 -57 -70 -76 -150 -69 -36 3 -73 7 -81
9 -12 2 -15 -11 -15 -77 l0 -80 -32 -3 c-26 -3 -35 1 -42 20 -12 28 -62 529
-54 541 3 5 19 6 37 2 17 -3 42 -6 56 -6z m632 -16 c80 -30 94 -60 118 -257 6
-49 15 -97 20 -107 5 -9 6 -19 3 -23 -11 -10 -68 -7 -80 5 -9 9 -20 8 -45 -2
-18 -8 -61 -14 -95 -13 -55 0 -68 5 -100 31 -44 35 -64 91 -51 140 13 49 66
75 166 81 45 2 82 8 82 13 0 25 -23 60 -49 74 -47 24 -85 19 -119 -15 -51 -51
-110 -33 -84 25 26 58 146 82 234 48z m1019 -13 c46 -13 95 -60 120 -113 21
-48 25 -106 7 -108 -7 -1 -67 -2 -133 -3 -141 -1 -150 -9 -87 -75 34 -36 44
-41 83 -41 25 0 62 9 84 20 35 18 40 18 56 4 14 -13 15 -20 7 -34 -22 -35 -63
-50 -136 -50 -62 0 -75 4 -118 33 -67 44 -103 112 -104 190 0 142 89 214 221
177z m272 -14 c8 -8 21 -68 31 -147 10 -74 21 -155 25 -181 5 -26 6 -50 3 -53
-3 -3 -20 -5 -38 -5 -39 0 -37 -6 -58 155 -25 179 -28 223 -21 234 9 15 41 14
58 -3z m195 -8 c9 -9 18 -9 37 0 14 7 51 12 81 12 66 0 105 -23 133 -78 15
-30 61 -257 61 -301 0 -13 -66 -15 -74 -2 -3 5 -13 55 -21 112 -21 143 -31
174 -60 193 -43 28 -118 13 -131 -26 -3 -10 2 -69 11 -131 24 -165 25 -152
-17 -155 -43 -4 -36 -23 -68 203 -26 186 -26 185 8 185 15 0 33 -5 40 -12z
m1610 -40 c48 -30 92 -102 92 -152 l0 -41 -117 0 c-139 0 -151 -10 -85 -75 34
-35 46 -40 84 -40 31 0 52 6 68 20 28 24 34 25 50 5 50 -61 -97 -111 -196 -66
-49 22 -111 92 -124 140 -5 20 -10 62 -10 94 0 53 3 60 40 97 38 38 43 40 101
40 46 0 71 -6 97 -22z m382 -6 c58 -36 100 -105 100 -163 l0 -29 -114 0 c-63
0 -117 -4 -120 -8 -11 -18 29 -74 65 -93 49 -24 80 -24 112 1 43 34 75 22 63
-25 -4 -16 -20 -29 -51 -40 -85 -33 -186 4 -242 89 -74 113 -45 263 55 288 37
9 102 -1 132 -20z m354 -1 c9 -7 23 -7 45 2 29 10 34 10 46 -6 7 -10 29 -103
50 -208 41 -211 39 -241 -15 -279 -53 -38 -178 -22 -225 29 -17 20 -17 23 -3
37 14 14 19 13 49 -5 46 -28 101 -27 136 3 24 21 26 26 16 49 -11 24 -15 25
-43 15 -44 -15 -117 -2 -156 27 -48 36 -84 109 -91 181 -11 120 35 180 131
170 26 -3 54 -10 60 -15z m-3530 -710 c3 -5 11 -44 17 -87 12 -90 20 -104 49
-86 11 6 47 12 81 12 76 0 119 -24 142 -77 17 -41 47 -205 47 -260 0 -32 -1
-33 -40 -33 -22 0 -40 3 -40 8 -1 41 -30 234 -38 249 -28 52 -100 68 -146 32
-30 -24 -33 -61 -12 -197 6 -45 10 -85 7 -87 -4 -5 -81 -7 -81 -2 0 6 -31 254
-45 362 -22 175 -22 175 19 175 19 0 37 -4 40 -9z m-2029 -98 c8 -118 15 -163
25 -163 9 0 128 122 191 197 41 48 47 52 91 52 26 1 49 -3 52 -7 2 -4 -40 -57
-95 -117 -54 -60 -99 -117 -99 -126 0 -16 55 -81 169 -202 25 -27 48 -53 49
-58 2 -5 -20 -9 -50 -8 l-53 0 -88 100 c-81 91 -90 98 -110 87 -50 -26 -59
-48 -52 -120 l7 -68 -46 0 c-43 0 -45 1 -50 33 -6 31 -20 205 -33 395 l-6 92
46 0 45 0 7 -87z m3336 7 c4 -8 10 -27 14 -42 4 -21 11 -28 29 -28 30 0 57
-25 49 -46 -3 -8 -18 -18 -34 -21 -34 -6 -33 -3 -14 -136 20 -133 21 -136 58
-153 31 -13 30 -14 -37 -11 -82 2 -76 -7 -101 171 -8 60 -20 115 -26 122 -6 7
-25 14 -42 16 -24 2 -33 8 -35 25 -3 18 3 23 32 29 34 6 36 9 36 43 0 21 3 41
7 45 12 12 55 2 64 -14z m1043 4 c9 -8 16 -26 16 -38 0 -28 16 -43 50 -48 31
-4 43 -48 13 -48 -43 -1 -44 -10 -23 -136 27 -154 27 -154 55 -154 13 0 27 -4
30 -10 4 -6 -17 -10 -57 -10 -59 0 -64 2 -75 28 -12 30 -43 193 -43 231 0 28
-25 50 -57 51 -13 0 -23 4 -23 9 0 5 -2 16 -5 24 -4 9 5 17 27 24 28 8 33 13
30 37 -2 16 -1 35 2 42 7 19 41 18 60 -2z m-3892 -81 c10 -9 18 -21 18 -27 0
-6 11 -33 24 -61 13 -27 34 -75 47 -105 35 -85 44 -90 62 -38 19 57 37 133 37
161 0 12 9 37 20 55 15 25 27 32 50 32 19 0 33 -6 37 -16 5 -15 -9 -75 -28
-119 -5 -11 -10 -29 -12 -40 -2 -11 -14 -62 -27 -112 l-25 -93 -61 0 c-62 0
-62 0 -79 38 -10 20 -34 73 -55 117 -84 179 -91 197 -86 211 7 19 55 18 78 -3z
m431 5 c13 -10 20 -46 31 -154 16 -152 26 -186 60 -202 17 -9 9 -11 -42 -11
-62 -1 -63 0 -76 32 -15 35 -36 206 -36 292 0 51 2 55 23 55 13 0 31 -6 40
-12z m280 0 c13 -10 20 -46 32 -157 8 -79 15 -158 15 -177 l0 -34 -65 0 c-72
0 -79 8 -43 47 21 23 22 26 10 131 -7 59 -12 129 -12 155 0 42 2 47 23 47 13
0 31 -6 40 -12z m181 -3 c33 -14 39 -14 59 0 27 19 119 20 155 1 63 -33 89
-82 97 -187 4 -46 10 -102 15 -123 5 -22 7 -44 4 -48 -3 -4 -22 -8 -43 -8
l-38 0 -7 63 c-21 193 -46 247 -113 247 -42 0 -90 -26 -97 -54 -3 -11 -1 -52
4 -91 4 -38 11 -91 14 -117 l6 -48 -44 0 -44 0 -7 78 c-3 42 -10 99 -16 125
-10 55 -12 161 -2 170 9 10 16 9 57 -8z m1306 -17 c58 -40 68 -64 90 -207 11
-73 20 -135 20 -137 0 -2 -48 -4 -107 -3 -89 1 -101 3 -68 10 49 11 75 40 75
84 0 46 -20 58 -83 53 -93 -8 -127 -71 -62 -114 38 -25 30 -34 -30 -34 -50 0
-56 2 -70 30 -19 37 -19 64 0 104 20 42 65 63 148 70 37 3 72 8 77 11 14 9 -9
62 -35 79 -40 26 -89 20 -123 -14 -51 -50 -113 -33 -83 23 25 46 70 67 147 67
57 0 77 -4 104 -22z m241 6 c13 -16 57 -305 51 -336 -2 -13 -13 -18 -37 -18
-28 0 -34 4 -39 28 -14 65 -45 325 -40 333 9 15 51 10 65 -7z m902 -4 c7 -6
56 -304 57 -342 0 -5 -70 -8 -155 -8 l-154 0 -16 29 c-12 24 -55 271 -55 319
0 9 12 12 37 10 l37 -3 22 -141 c12 -77 27 -150 33 -162 6 -12 28 -26 48 -31
46 -13 100 10 109 46 5 20 -13 178 -32 270 -2 12 2 24 9 26 14 6 48 -2 60 -13z
m355 2 c12 -12 22 -48 30 -112 13 -97 29 -191 38 -222 4 -15 -1 -18 -31 -18
-27 0 -37 5 -45 23 -7 18 -38 191 -54 305 -2 13 3 26 13 32 23 13 29 12 49 -8z
m430 3 c17 -13 26 -13 43 -4 12 6 47 11 78 12 104 2 138 -43 171 -224 26 -148
27 -141 -17 -137 -27 2 -37 8 -39 23 -13 92 -40 206 -56 232 -26 44 -72 58
-112 35 -39 -22 -43 -51 -22 -162 23 -120 22 -130 -14 -130 -37 0 -44 15 -61
120 -7 41 -17 109 -24 150 -15 96 0 121 53 85z m413 -15 c7 -15 43 -205 55
-292 l7 -48 -36 0 c-34 0 -35 2 -46 48 -5 26 -13 67 -16 92 -3 25 -13 80 -21
122 -9 43 -12 83 -9 88 10 16 56 8 66 -10z m356 9 c8 -8 17 -8 31 0 11 6 47
11 80 11 55 0 63 -3 104 -39 58 -52 88 -126 88 -222 0 -38 -4 -69 -10 -69 -5
0 -7 -7 -4 -15 5 -13 -14 -15 -139 -15 l-145 0 -16 68 c-30 128 -51 257 -47
285 2 11 46 8 58 -4z"/>
<path d="M6613 9773 c-20 -4 -23 -11 -23 -51 l0 -47 85 0 85 0 0 46 c0 40 -3
48 -22 53 -25 6 -90 6 -125 -1z"/>
<path d="M1971 9144 c-32 -41 -25 -113 15 -155 32 -33 91 -55 126 -45 64 17
71 116 14 182 -27 31 -39 37 -82 41 -47 5 -53 3 -73 -23z"/>
<path d="M2420 9113 c-52 -19 -65 -78 -32 -143 37 -75 143 -108 178 -55 22 34
21 95 -2 135 -29 49 -98 80 -144 63z"/>
<path d="M5920 8660 c-35 -35 -18 -123 32 -165 24 -21 39 -25 72 -23 l41 3 -1
45 c-1 89 -11 115 -53 138 -48 27 -65 28 -91 2z"/>
<path d="M1506 8338 c-28 -40 13 -81 80 -80 57 0 88 25 79 61 -9 35 -21 41
-87 41 -47 0 -59 -4 -72 -22z"/>
<path d="M3443 8270 c-30 -12 -43 -41 -43 -94 0 -36 6 -52 31 -80 32 -38 88
-59 125 -50 84 21 59 170 -37 219 -32 17 -44 18 -76 5z"/>
<path d="M4263 8183 c-74 -14 -68 -158 9 -206 74 -46 138 -16 138 66 0 53 -45
120 -92 136 -17 6 -31 10 -32 10 -1 -1 -11 -4 -23 -6z"/>
<path d="M5483 8040 c-42 -17 -43 -105 -2 -162 37 -52 96 -71 133 -43 18 13
18 19 6 90 -11 63 -18 79 -40 95 -34 24 -69 32 -97 20z"/>
<path d="M6203 7955 c-18 -13 -23 -26 -23 -61 0 -83 52 -144 121 -144 71 0 90
78 38 155 -39 56 -97 77 -136 50z"/>
<path d="M6555 7900 c-44 -48 23 -181 98 -193 53 -8 77 14 77 72 0 49 -18 83
-65 123 -28 24 -87 23 -110 -2z"/>
<path d="M1003 7804 c4 -43 11 -82 16 -87 4 -4 49 -11 99 -14 88 -6 91 -5 117
21 29 29 28 51 -4 96 -22 31 -67 46 -161 56 l-73 7 6 -79z"/>
<path d="M5083 7360 c-26 -11 -28 -26 -13 -115 7 -47 16 -65 37 -82 35 -28 93
-31 116 -5 26 28 22 97 -9 149 -33 58 -77 75 -131 53z"/>
<path d="M1066 7055 c-5 -14 -2 -42 10 -102 4 -22 9 -23 88 -23 64 0 88 4 100
16 19 19 21 54 4 76 -31 39 -189 65 -202 33z"/>
<path d="M1080 6807 c0 -85 9 -95 96 -103 96 -9 134 10 134 65 0 67 -59 99
-182 101 l-48 0 0 -63z"/>
<path d="M2403 6830 c-36 -22 -37 -25 -23 -120 7 -53 14 -69 37 -87 58 -47
119 -39 149 19 29 57 -9 163 -70 192 -44 21 -54 20 -93 -4z"/>
<path d="M2825 6650 c-18 -20 -18 -21 2 -48 25 -34 60 -47 106 -38 29 5 38 13
44 34 15 58 1 72 -78 72 -44 0 -60 -4 -74 -20z"/>
<path d="M3477 6602 c-23 -26 -21 -39 9 -67 34 -32 91 -34 122 -5 24 23 27 41
12 71 -15 27 -119 28 -143 1z"/>
<path d="M1105 6277 c-49 -23 -70 -54 -70 -102 0 -71 61 -120 224 -176 109
-38 149 -91 101 -134 -51 -46 -203 -17 -236 46 -15 29 -52 46 -79 35 -22 -8
-18 -31 12 -66 37 -45 90 -76 151 -89 127 -27 215 -3 246 68 19 40 19 42 0 83
-23 51 -78 88 -185 123 -99 33 -143 62 -147 97 -5 44 28 68 93 68 63 0 107
-22 136 -69 15 -25 25 -31 54 -31 23 0 35 5 35 14 0 26 -46 81 -92 109 -39 25
-60 30 -130 33 -58 3 -92 0 -113 -9z"/>
<path d="M1600 6108 c-47 -32 -68 -74 -69 -133 -2 -162 176 -275 319 -202 53
26 79 71 79 137 1 47 -23 111 -55 150 -55 66 -208 93 -274 48z m179 -53 c16
-8 38 -34 50 -58 48 -99 9 -187 -82 -187 -38 0 -52 6 -80 33 -32 30 -57 86
-57 130 0 25 27 74 47 86 26 15 90 13 122 -4z"/>
<path d="M3403 5797 c-30 -24 -29 -42 3 -72 31 -29 71 -32 115 -9 26 13 30 20
27 52 l-3 37 -59 5 c-48 4 -64 2 -83 -13z"/>
<path d="M4582 5724 c-29 -20 -28 -45 2 -73 31 -29 87 -32 116 -6 22 20 27 64
8 83 -17 17 -100 15 -126 -4z"/>
<path d="M5183 5804 c-23 -23 -25 -31 -20 -76 11 -86 67 -148 136 -148 47 0
71 30 71 90 0 60 -17 97 -60 134 -42 35 -92 35 -127 0z"/>
<path d="M4461 5036 c-90 -96 46 -308 143 -224 l27 23 -10 84 c-12 92 -20 107
-68 128 -46 19 -66 16 -92 -11z"/>
<path d="M5722 4974 c-27 -18 -29 -62 -7 -144 16 -61 40 -86 91 -96 96 -18
118 132 32 218 -42 42 -78 49 -116 22z"/>
<path d="M4899 5025 c-35 -19 -48 -59 -39 -117 8 -56 31 -93 73 -118 122 -75
197 95 89 202 -43 43 -85 55 -123 33z"/>
<path d="M5300 4990 c-15 -15 -20 -33 -20 -77 0 -68 23 -113 72 -143 45 -28
80 -25 113 7 24 25 27 33 23 80 -5 59 -43 123 -84 142 -38 17 -82 13 -104 -9z"/>
<path d="M1848 4125 c-61 -34 -19 -115 59 -115 57 0 95 36 91 88 l-3 37 -60 2
c-39 2 -70 -3 -87 -12z"/>
<path d="M2969 4240 c-18 -11 -45 -67 -36 -77 3 -3 47 -8 97 -11 88 -5 90 -4
90 17 0 13 -13 36 -29 52 -23 22 -39 29 -68 29 -21 0 -45 -5 -54 -10z"/>
<path d="M3603 4218 c-32 -16 -36 -39 -23 -133 14 -98 34 -125 102 -132 37 -4
47 -1 67 21 72 77 1 258 -101 255 -13 0 -33 -5 -45 -11z"/>
<path d="M4036 4185 c-22 -20 -26 -32 -26 -81 0 -99 55 -164 139 -164 34 0 44
5 67 36 27 34 27 37 16 97 -10 52 -18 68 -51 100 -50 46 -103 51 -145 12z"/>
<path d="M4480 4170 c-31 -29 -32 -33 -28 -90 8 -107 80 -177 161 -156 55 13
77 116 41 191 -20 43 -77 85 -115 85 -16 0 -40 -12 -59 -30z"/>
<path d="M5130 4017 c-32 -16 -39 -66 -12 -90 30 -28 73 -30 111 -7 30 19 33
24 28 57 -4 20 -12 40 -19 45 -19 12 -80 9 -108 -5z"/>
<path d="M5866 4125 c-49 -46 -30 -164 36 -220 40 -34 96 -34 127 -1 20 22 23
33 19 85 -5 69 -36 123 -85 146 -44 21 -66 19 -97 -10z"/>
<path d="M5275 3260 c-15 -17 -17 -31 -12 -88 9 -93 23 -128 62 -152 69 -43
135 -8 135 72 0 107 -55 188 -127 188 -27 0 -46 -6 -58 -20z"/>
<path d="M1859 3321 c-16 -16 -29 -39 -29 -50 0 -23 -4 -22 120 -25 71 -1 75
0 78 22 2 14 -7 33 -27 52 -41 42 -100 42 -142 1z"/>
<path d="M2541 3319 l-34 -20 7 -85 c9 -112 19 -137 62 -157 43 -21 67 -21
104 -2 73 38 58 216 -23 265 -41 25 -73 25 -116 -1z"/>
<path d="M3013 3153 c-29 -19 -29 -52 -2 -87 17 -22 28 -26 69 -26 42 0 52 4
75 31 14 18 24 38 21 46 -4 8 -6 23 -6 34 0 17 -7 19 -67 18 -45 0 -76 -5 -90
-16z"/>
<path d="M4056 3288 c-34 -31 -45 -78 -20 -79 158 -6 169 -5 172 17 4 29 -59
84 -98 84 -16 0 -40 -10 -54 -22z"/>
<path d="M6871 3221 c-37 -51 -20 -149 36 -206 39 -40 83 -46 122 -16 22 17
23 20 12 89 -15 96 -25 119 -63 142 -48 29 -82 26 -107 -9z"/>
<path d="M6846 2326 l-24 -23 19 -94 c23 -111 38 -130 106 -136 45 -5 50 -3
63 22 21 40 18 123 -8 172 -42 80 -110 106 -156 59z"/>
</g>
</svg>
