<?xml version="1.0" standalone="no"?>
<!DOCTYPE svg PUBLIC "-//W3C//DTD SVG 20010904//EN"
 "http://www.w3.org/TR/2001/REC-SVG-20010904/DTD/svg10.dtd">
<svg version="1.0" xmlns="http://www.w3.org/2000/svg"
 width="720.000000pt" height="1280.000000pt" viewBox="0 0 720.000000 1280.000000"
 preserveAspectRatio="xMidYMid meet">
<metadata>
Created by potrace 1.16, written by Peter Selinger 2001-2019
</metadata>
<g transform="translate(0.000000,1280.000000) scale(0.100000,-0.100000)"
fill="#000000" stroke="none">
<path d="M0 6400 l0 -6400 3600 0 3600 0 0 1906 0 1906 -147 -8 c-82 -5 -303
-8 -493 -6 -819 6 -2639 25 -2685 27 -27 2 -128 4 -223 4 -151 1 -173 3 -179
18 -4 9 1 29 10 45 l16 28 -37 0 c-43 0 -152 -17 -160 -25 -3 -3 0 -17 7 -31
8 -18 9 -30 2 -37 -13 -13 -536 -17 -713 -5 -140 9 -255 36 -250 57 1 7 -5 14
-13 17 -8 4 -15 12 -15 19 0 34 -41 64 -114 81 -71 17 -73 18 -66 43 4 16 14
26 26 27 10 1 24 2 30 3 13 1 54 39 54 50 0 11 -47 31 -75 31 -35 0 -40 32
-26 174 6 67 11 163 11 214 0 75 3 92 15 93 8 0 41 0 73 1 l57 0 -2 -252 -1
-252 41 6 c23 3 47 7 54 8 7 1 10 5 7 10 -3 4 4 8 15 8 12 0 21 4 21 9 0 5 -9
7 -20 4 -40 -11 -50 13 -50 116 0 89 2 97 23 111 12 8 25 13 29 12 4 -1 10 9
14 23 6 23 8 24 38 11 17 -7 47 -13 66 -12 l35 1 3 261 c3 301 -8 274 110 274
54 0 62 2 62 19 0 18 -6 19 -72 15 -40 -2 -102 -8 -138 -12 l-65 -9 50 -3
c116 -8 -296 -17 -770 -19 -332 0 -505 3 -495 9 11 7 7 10 -18 10 -18 0 -48 7
-68 15 -19 8 -32 10 -29 5 9 -15 -16 -12 -97 9 -40 11 -107 21 -148 24 l-75 5
60 -12 c43 -8 61 -16 63 -29 3 -15 -6 -17 -65 -18 -57 -2 -62 -3 -28 -8 40 -6
-449 -21 -702 -21 l-134 0 3 108 3 107 514 2 c283 1 519 -1 525 -6 16 -12 128
-32 135 -25 3 4 0 9 -6 11 -7 3 -13 9 -13 15 0 6 7 8 15 4 8 -3 15 -1 15 4 0
6 -6 10 -14 10 -7 0 -16 8 -18 18 -3 9 -6 178 -7 375 l-3 357 39 1 38 1 -35
10 c-30 9 -32 11 -15 18 19 7 19 7 0 18 -32 18 -9 26 86 30 86 4 91 3 81 -13
-5 -11 -6 -30 -2 -45 11 -37 13 -134 11 -477 l-1 -293 -70 0 c-40 0 -70 -4
-70 -10 0 -5 9 -10 21 -10 11 0 29 -5 40 -10 15 -8 19 -8 17 2 -2 10 35 13
172 13 160 0 175 1 174 18 -1 9 -2 32 -4 50 l-2 32 -8 -28 c-5 -16 -6 -35 -4
-42 9 -23 -13 -26 -128 -19 -62 5 -104 10 -93 12 44 7 51 14 28 22 -36 15 -46
75 -40 249 5 152 6 154 33 180 17 15 46 28 74 33 37 5 33 6 -21 3 -82 -4 -85
1 -88 120 -1 50 -4 100 -7 112 -4 13 0 24 11 31 16 8 16 10 1 15 -12 5 -16 21
-16 69 1 114 18 247 34 263 11 11 39 15 115 15 l101 0 1 -67 c4 -144 4 -278 1
-285 -3 -9 -5 -360 -1 -488 l2 -105 8 130 c3 72 7 245 8 386 1 190 4 260 14
273 10 14 25 16 77 14 l65 -3 -1 -497 -1 -498 96 1 c55 0 88 4 77 8 -19 7 -19
8 2 13 28 8 28 22 -1 51 l-22 22 3 515 3 515 115 3 114 3 -2 -567 -3 -566 50
6 c28 3 112 6 189 6 l138 0 -6 158 c-9 217 -15 271 -28 247 -7 -11 -7 -24 -2
-34 11 -18 3 -82 -9 -82 -13 0 -34 26 -40 47 -3 11 -6 1 -7 -21 -1 -22 -4 -32
-7 -23 -2 10 -10 15 -19 11 -12 -4 -14 34 -14 261 l0 266 23 5 c12 2 41 3 65
2 l42 -3 -2 240 -3 241 -347 -4 c-343 -3 -348 -3 -403 20 -30 12 -55 26 -55
31 0 4 -7 8 -15 8 -9 0 -15 -9 -15 -25 l0 -25 -337 -2 c-186 -2 -363 -2 -393
-2 -30 1 -260 2 -511 3 l-456 1 -6 198 c-2 108 -4 361 -2 562 1 201 3 619 4
930 2 558 5 660 22 660 5 0 9 -8 9 -17 0 -15 2 -15 9 -4 7 11 10 10 14 -5 4
-16 5 -17 6 -1 0 9 6 17 11 17 6 0 10 27 10 60 0 33 4 60 10 60 27 0 50 41 50
90 0 41 5 56 25 75 13 14 28 25 32 25 13 1 53 37 53 49 0 6 -7 11 -15 11 -8 0
-15 7 -15 15 0 12 -16 15 -77 17 -351 9 1249 15 3880 17 l3147 1 0 1775 0
1775 -3600 0 -3600 0 0 -6400z m6786 3682 c159 -63 211 -265 105 -407 -25 -34
-27 -41 -14 -50 24 -18 0 -52 -48 -67 -33 -9 -47 -9 -72 2 -36 16 -116 15
-165 -1 -47 -15 -97 -4 -117 27 -13 20 -14 28 -4 40 10 12 8 19 -9 37 -37 39
-62 108 -62 171 0 78 16 128 58 176 79 93 205 120 328 72z m-643 2 c52 -18
116 -76 142 -130 60 -126 7 -282 -117 -344 -139 -69 -312 -20 -376 106 -42 84
-38 184 12 267 25 41 43 58 94 84 54 28 75 33 131 33 37 0 88 -7 114 -16z
m-5806 -224 c52 -224 51 -200 11 -200 -31 0 -36 4 -41 30 -6 27 -11 30 -42 30
-19 0 -38 0 -42 1 -4 0 -11 -14 -16 -30 -7 -27 -12 -31 -41 -31 l-34 0 14 58
c7 31 26 110 41 175 l27 118 44 -3 45 -3 34 -145z m373 58 l1 -93 30 38 c23
27 39 37 60 37 16 0 29 -3 29 -6 0 -4 -16 -28 -35 -54 l-34 -47 28 -45 c56
-89 56 -88 17 -88 -30 0 -38 5 -57 40 -26 45 -39 43 -39 -6 0 -31 -2 -34 -30
-34 l-30 0 0 175 0 175 30 0 30 0 0 -92z m1740 -83 l0 -176 -42 1 c-24 1 -54
-1 -68 -5 -43 -11 -77 25 -85 88 -7 58 7 128 30 147 17 14 51 17 83 6 21 -7
22 -5 22 53 l0 61 30 0 30 0 0 -175z m452 83 l3 -92 25 37 c20 30 31 37 58 37
30 0 42 -12 24 -24 -5 -3 -21 -23 -36 -44 l-27 -40 40 -66 41 -66 -35 0 c-30
0 -39 6 -62 43 l-28 42 -3 -42 c-3 -42 -4 -43 -38 -43 l-34 0 0 168 c0 93 3
172 7 175 3 4 19 7 34 7 l28 0 3 -92z m728 27 l0 -66 30 16 c33 17 60 13 85
-11 11 -12 15 -40 15 -120 l0 -104 -30 0 -29 0 -3 92 c-3 83 -5 93 -22 96 -33
7 -46 -25 -46 -110 l0 -78 -30 0 -30 0 0 175 0 175 30 0 30 0 0 -65z m530 4
c0 -58 1 -60 23 -53 76 26 107 -8 107 -118 0 -71 -2 -81 -26 -105 -20 -20 -31
-24 -52 -18 -15 4 -46 6 -69 5 l-43 -1 0 176 0 175 30 0 30 0 0 -61z m-1480
-9 c0 -38 2 -40 30 -40 25 0 30 -4 30 -25 0 -21 -5 -25 -30 -25 l-31 0 3 -67
c3 -66 4 -68 31 -71 21 -3 27 -8 23 -19 -3 -8 -6 -19 -6 -24 0 -16 -73 -10
-92 8 -14 13 -18 31 -18 90 0 66 -2 75 -20 80 -13 3 -20 14 -20 29 0 17 6 24
20 24 17 0 20 7 20 40 0 38 2 40 30 40 28 0 30 -2 30 -40z m-2096 -61 c24 -23
34 -121 17 -172 -15 -44 -59 -66 -97 -48 -14 6 -27 11 -29 11 -3 0 -5 -30 -5
-66 l0 -65 -27 3 -28 3 -3 179 -2 179 37 -5 c21 -3 47 -2 58 3 26 10 55 2 79
-22z m402 21 c8 0 23 -9 34 -20 17 -17 20 -33 20 -121 l0 -101 -32 3 c-18 1
-48 -1 -66 -5 -50 -12 -82 13 -82 64 0 44 20 64 83 81 28 7 37 15 35 27 -5 26
-48 28 -55 3 -6 -25 -51 -29 -60 -5 -13 34 56 90 95 78 8 -2 20 -4 28 -4z
m290 0 c39 -15 53 -39 54 -87 l0 -43 -61 0 c-60 0 -60 0 -57 -27 3 -32 44 -46
54 -19 4 10 18 16 35 16 35 0 39 -25 10 -61 -27 -34 -99 -34 -135 0 -23 22
-26 32 -26 96 0 79 20 120 63 128 12 2 25 5 29 6 4 0 19 -4 34 -9z m201 -1
c32 -12 43 -26 43 -56 0 -31 -45 -33 -53 -3 -7 26 -47 27 -47 1 0 -12 12 -23
33 -31 74 -30 97 -83 58 -131 -40 -50 -151 -22 -151 38 0 31 42 32 62 1 9 -14
20 -19 31 -15 31 12 18 37 -28 57 -75 32 -87 107 -22 135 39 17 39 17 74 4z
m197 -3 c31 -13 53 -55 38 -71 -14 -14 -50 -3 -55 16 -4 13 -12 20 -24 17 -29
-5 -21 -32 15 -50 73 -36 92 -81 53 -129 -15 -19 -29 -24 -66 -24 -37 0 -51 5
-66 24 -29 36 -25 61 10 61 21 0 30 -6 34 -21 7 -25 40 -22 45 3 2 12 -11 24
-43 39 -74 35 -85 107 -21 135 39 17 40 17 80 0z m205 3 c17 -6 36 -19 41 -29
6 -10 10 -62 10 -115 l0 -97 -32 3 c-18 1 -48 -1 -66 -5 -50 -12 -82 13 -82
64 0 44 20 64 83 81 28 7 37 15 35 27 -5 25 -45 27 -58 3 -11 -22 -44 -28 -55
-10 -13 21 5 57 37 72 40 20 46 20 87 6z m319 -22 c16 -15 22 -32 22 -64 l0
-43 -61 0 c-60 0 -60 0 -57 -27 3 -32 44 -46 54 -19 9 23 64 21 64 -2 0 -69
-107 -94 -163 -37 -23 23 -24 151 -1 183 32 46 97 50 142 9z m1000 -3 c18 -21
22 -36 22 -98 0 -58 -4 -76 -20 -94 -43 -45 -130 -36 -157 18 -16 32 -17 121
-1 156 26 56 112 66 156 18z m240 8 c8 -10 12 -52 12 -119 l0 -103 -30 0 -30
0 0 90 c0 99 -12 119 -50 85 -17 -15 -20 -31 -20 -97 l0 -78 -30 0 -30 0 0
120 0 120 29 0 c16 0 31 -5 33 -11 2 -6 14 -5 33 5 33 17 63 13 83 -12z m530
-8 c15 -17 22 -38 22 -65 l0 -39 -61 0 c-60 0 -60 0 -57 -27 3 -32 44 -46 54
-19 4 10 18 16 35 16 35 0 40 -29 9 -60 -27 -27 -63 -34 -105 -20 -46 15 -55
34 -55 123 0 64 3 76 23 94 12 11 29 23 37 26 28 11 75 -3 98 -29z m539 12 c7
-6 13 -53 15 -116 l3 -105 -32 -3 -33 -3 0 91 c0 72 -3 92 -15 96 -33 13 -45
-15 -45 -102 l0 -84 -35 0 -35 0 0 120 0 120 35 0 c19 0 35 -4 35 -9 0 -6 12
-3 28 4 28 15 58 12 79 -9z m221 -12 c19 -22 22 -36 22 -120 l0 -95 -42 1
c-24 1 -54 -1 -68 -5 -35 -9 -80 27 -80 64 0 39 19 60 70 75 33 10 46 19 48
35 4 28 -31 29 -51 0 -22 -30 -63 -23 -59 11 10 70 109 91 160 34z m391 25
c36 -13 61 -53 61 -99 l0 -30 -59 0 c-65 0 -73 -5 -64 -38 6 -26 53 -32 53 -7
0 11 11 15 36 15 32 0 35 -2 29 -22 -13 -43 -42 -63 -90 -63 -64 0 -87 27 -93
105 -5 75 11 118 52 136 38 16 36 16 75 3z m204 -3 c15 -8 27 -11 27 -5 0 5
14 9 30 9 l30 0 0 -149 c0 -134 -2 -151 -20 -174 -41 -52 -147 -44 -170 13 -7
16 -9 34 -5 39 10 18 44 12 57 -9 26 -41 78 -15 78 40 0 17 -3 19 -19 10 -36
-19 -78 -12 -100 16 -16 21 -21 41 -21 90 0 72 13 107 44 122 29 14 37 14 69
-2z m285 -22 c19 -22 22 -36 22 -120 l0 -95 -42 1 c-24 1 -54 -1 -68 -5 -34
-9 -80 27 -80 61 0 42 17 62 70 79 37 12 50 22 50 36 0 26 -36 25 -50 -1 -11
-20 -54 -28 -64 -12 -10 16 29 76 54 84 40 11 83 0 108 -28z m-3048 -94 l0
-120 -35 0 -35 0 0 113 c0 63 3 117 7 120 3 4 19 7 35 7 l28 0 0 -120z m2280
63 c19 -91 25 -93 45 -14 17 70 18 71 50 71 l33 0 -24 -82 c-79 -281 -76 -273
-113 -276 -28 -3 -33 -1 -27 14 29 76 29 101 -4 209 -17 59 -34 113 -37 121
-4 10 4 14 29 14 34 0 35 -1 48 -57z m-3476 -3645 c9 -36 7 -116 -4 -123 -6
-4 -6 -15 0 -30 l10 -25 -90 0 c-73 0 -90 3 -90 15 0 9 10 16 23 16 17 1 15 3
-8 8 -28 6 -30 10 -33 55 -6 97 -1 102 119 105 61 1 67 -1 73 -21z m-1235
-217 c11 -7 13 -81 12 -401 -1 -217 -4 -396 -7 -399 -2 -3 -14 0 -24 7 -11 7
-27 12 -35 12 -8 0 -15 5 -15 10 0 6 -6 10 -14 10 -23 0 -29 85 -25 359 4 242
5 250 27 273 16 18 22 37 22 68 0 29 6 47 18 56 20 16 23 16 41 5z m211 -359
c0 -154 -3 -313 -6 -355 -7 -76 -7 -77 -35 -77 -16 0 -29 4 -29 8 0 5 -19 28
-42 51 l-43 42 -2 245 c-1 197 2 247 13 258 9 10 12 25 8 45 -11 53 -2 61 71
61 l65 0 0 -278z m1586 -889 l-1 -88 -125 0 -125 0 0 75 c0 68 2 75 20 76 94
7 93 7 40 14 -37 5 -20 7 71 8 l122 2 -2 -87z m214 -83 l0 -170 -77 0 c-132 0
-123 -10 -123 151 0 83 5 148 12 164 11 24 15 25 100 25 l88 0 0 -170z m-222
-165 c2 -2 0 -79 -5 -172 l-8 -168 -124 -3 c-68 -1 -128 1 -133 6 -5 5 -6 81
-2 175 l7 166 36 4 c35 4 223 -3 229 -8z m212 -237 c0 -110 1 -108 -101 -108
-88 0 -90 1 -100 27 -8 23 -5 94 6 131 3 8 32 12 100 12 l95 0 0 -62z m-2024
-406 c6 -4 12 -50 13 -109 l3 -103 -45 0 -44 0 -1 110 0 110 32 0 c17 0 36 -4
42 -8z m6600 -227 c19 -6 23 -148 28 -868 l4 -687 -21 -5 c-12 -3 -105 -4
-207 -3 l-185 3 3 295 c2 162 8 322 14 355 12 64 12 87 2 176 -5 54 -4 57 23
77 16 11 44 22 63 24 42 5 50 23 13 33 -76 18 -123 98 -88 147 18 27 19 81 3
143 -10 38 -9 52 5 92 13 37 15 56 7 83 -5 19 -10 53 -10 75 0 37 3 42 37 56
30 13 63 16 168 12 71 -3 135 -6 141 -8z m-5180 -60 c3 -19 4 -44 1 -55 -3
-11 -1 -20 5 -20 5 0 8 -6 5 -12 -2 -7 -10 -12 -16 -10 -6 1 -11 -5 -11 -14 0
-15 -11 -16 -92 -10 -63 4 -88 3 -78 -4 10 -6 -204 -10 -652 -10 l-668 0 0 80
0 80 568 3 c312 1 649 3 749 5 l182 2 7 -35z m838 -142 c10 -42 14 -490 6
-504 -9 -14 -215 -8 -230 7 -22 22 -42 172 -43 322 0 146 0 153 23 177 22 24
29 25 131 25 l107 0 6 -27z m-825 -719 c1 -300 3 -550 7 -555 3 -6 0 -16 -6
-24 -17 -20 -5 -45 22 -46 17 -1 14 -3 -11 -9 -18 -4 -370 -8 -782 -8 l-749
-1 0 38 0 38 220 6 c121 4 258 4 303 0 119 -10 358 -8 535 3 l153 9 -1 326 c0
190 4 337 9 352 9 23 17 26 81 33 39 3 72 9 74 13 10 15 14 111 6 111 -6 0
-10 -11 -10 -25 0 -24 -2 -25 -75 -25 l-75 0 0 146 0 145 85 -3 c63 -2 85 0
85 10 0 8 20 12 64 12 l65 0 0 -546z m-515 109 c-5 -114 -4 -113 -26 -113 -38
0 -58 31 -58 90 0 82 7 98 44 103 17 2 34 5 38 5 3 1 4 -37 2 -85z m656 -94
c26 -9 34 -9 41 2 7 12 13 12 36 -1 28 -16 28 -16 31 -135 2 -65 1 -129 -2
-141 -9 -34 -43 -40 -72 -13 -18 17 -27 20 -33 11 -5 -8 -13 0 -24 23 -13 27
-17 63 -17 150 0 63 2 115 4 115 1 0 18 -5 36 -11z m3685 -40 c4 -12 4 -44 1
-73 -4 -28 -3 -64 2 -81 4 -16 6 -40 4 -52 -3 -21 -9 -23 -59 -23 -41 0 -59 5
-69 18 -21 28 -16 39 24 55 58 23 67 39 39 68 -13 13 -33 32 -45 41 -43 34
-28 51 53 61 17 2 33 5 37 6 4 0 10 -8 13 -20z m-2981 -215 c3 -9 6 -103 6
-210 l0 -195 -152 3 -153 3 0 170 c0 177 10 229 43 238 10 3 69 5 133 6 98 1
118 -2 123 -15z m2986 -228 c0 -1 3 -32 6 -71 3 -38 7 -76 9 -82 3 -10 -15
-13 -70 -13 l-75 0 0 53 c0 79 16 105 65 109 59 4 65 5 65 4z"/>
<path d="M6613 9773 c-20 -4 -23 -11 -23 -51 l0 -47 85 0 85 0 0 46 c0 40 -3
48 -22 53 -25 6 -90 6 -125 -1z"/>
<path d="M3352 6613 c-8 -14 -60 -186 -100 -327 -3 -13 -1 -17 9 -14 8 3 31
61 54 136 22 72 43 132 46 132 3 0 9 -23 12 -50 9 -76 26 -104 64 -108 30 -3
35 2 79 67 26 39 48 71 49 71 2 0 0 -58 -3 -130 -4 -111 -3 -130 10 -130 12 0
16 24 22 127 3 69 9 137 12 150 4 16 1 25 -11 30 -20 7 -66 -38 -122 -120 -18
-26 -37 -47 -42 -47 -17 0 -34 72 -35 149 -1 62 -5 76 -18 79 -9 2 -21 -5 -26
-15z"/>
<path d="M4202 6378 l3 -93 50 3 c27 2 55 8 62 14 18 14 16 63 -2 78 -9 8 -13
21 -9 32 9 31 -23 58 -68 58 l-39 0 3 -92z"/>
<path d="M4362 6378 c2 -59 7 -93 15 -95 7 -3 13 10 15 34 3 35 6 38 36 41 31
3 32 2 32 -31 0 -32 19 -55 34 -40 3 4 6 46 6 95 0 81 -2 88 -20 88 -16 0 -20
-7 -20 -35 0 -33 -2 -35 -35 -35 -33 0 -35 2 -35 35 0 25 -4 35 -15 35 -13 0
-15 -15 -13 -92z"/>
<path d="M4860 6381 c0 -68 3 -90 14 -94 11 -4 16 4 18 31 3 34 6 37 36 40 31
3 32 2 32 -32 0 -29 4 -36 20 -36 19 0 20 7 20 90 0 83 -1 90 -20 90 -16 0
-20 -7 -20 -35 0 -33 -2 -35 -35 -35 -33 0 -35 2 -35 35 0 24 -5 35 -15 35
-12 0 -15 -17 -15 -89z"/>
<path d="M3661 6374 c-33 -27 -40 -64 -17 -83 8 -7 52 -11 115 -10 l101 1 0
30 c0 16 5 38 11 49 10 19 11 19 42 -7 27 -22 37 -25 74 -20 37 5 43 3 43 -12
0 -17 18 -42 30 -42 3 0 6 25 7 55 1 58 -8 68 -35 36 -29 -34 -88 -31 -104 4
-9 21 -17 24 -54 23 -43 -2 -44 -3 -44 -38 0 -19 -4 -40 -8 -46 -4 -7 -36 -15
-72 -19 -54 -6 -68 -4 -79 9 -17 21 -7 46 19 46 30 0 60 18 60 35 0 25 -55 18
-89 -11z"/>
</g>
</svg>
