<?xml version="1.0" standalone="no"?>
<!DOCTYPE svg PUBLIC "-//W3C//DTD SVG 20010904//EN"
 "http://www.w3.org/TR/2001/REC-SVG-20010904/DTD/svg10.dtd">
<svg version="1.0" xmlns="http://www.w3.org/2000/svg"
 width="720.000000pt" height="1280.000000pt" viewBox="0 0 720.000000 1280.000000"
 preserveAspectRatio="xMidYMid meet">
<metadata>
Created by potrace 1.16, written by Peter Selinger 2001-2019
</metadata>
<g transform="translate(0.000000,1280.000000) scale(0.100000,-0.100000)"
fill="#000000" stroke="none">
<path d="M0 6400 l0 -6400 3600 0 3600 0 0 1025 0 1024 -3362 3 c-2477 3
-3371 6 -3393 15 -16 6 -63 21 -102 34 -40 12 -73 26 -73 31 0 4 -9 8 -20 8
-11 0 -20 5 -20 10 0 6 -9 10 -19 10 -11 0 -21 6 -24 13 -3 9 -13 7 -40 -7
-32 -17 -37 -17 -51 -3 -9 9 -16 29 -16 46 0 29 3 31 35 31 28 0 35 4 35 20 0
11 -7 20 -15 20 -8 0 -15 -4 -15 -9 0 -5 -11 -11 -25 -13 -14 -3 -25 -1 -25 3
0 5 -7 9 -15 9 -11 0 -15 -17 -17 -72 -2 -40 -7 125 -12 367 -9 461 0 3709 10
3783 4 24 12 42 19 42 19 0 25 24 25 101 0 52 3 69 14 69 16 0 29 27 17 34
-13 9 -7 81 7 82 6 1 19 2 27 3 8 0 15 10 15 21 0 11 7 20 15 20 8 0 14 6 12
12 -1 9 13 13 43 14 31 1 45 5 45 15 0 8 10 14 25 14 25 -1 25 0 20 58 -4 44
-3 60 7 63 7 2 20 6 28 9 11 3 15 19 15 54 0 54 3 57 70 64 36 3 40 13 40 100
l0 77 30 0 c23 0 30 4 30 20 0 10 6 23 13 27 6 4 17 17 23 28 6 11 17 20 25
20 8 0 19 7 26 15 11 13 12 13 13 -2 0 -26 40 -24 40 1 0 11 7 27 16 35 14 15
14 16 0 16 -9 0 -16 5 -16 10 0 6 5 10 10 10 6 0 10 11 10 25 0 28 18 66 37
78 7 4 13 13 13 18 0 13 20 33 41 41 9 4 33 36 53 72 20 36 41 66 46 66 6 0
10 18 10 40 l0 40 60 0 60 0 0 36 c0 30 7 43 40 71 22 20 40 42 40 49 0 8 7
14 15 14 8 0 15 7 15 15 0 8 5 15 10 15 6 0 10 9 10 20 0 11 -7 20 -15 20 -22
0 -18 18 5 25 11 3 20 10 20 15 0 5 9 12 20 15 17 6 20 15 20 76 0 39 4 69 10
69 6 0 10 -10 11 -22 l0 -23 11 23 c6 12 16 22 22 22 7 0 17 20 24 45 7 25 16
45 22 45 5 0 10 7 10 15 0 8 7 15 15 15 8 0 15 6 15 13 0 7 9 18 20 25 11 7
20 21 20 31 0 10 6 24 14 30 8 7 18 27 22 44 10 48 36 97 51 97 7 0 13 -7 13
-15 0 -8 7 -15 15 -15 10 0 15 10 15 29 0 23 5 30 22 33 26 4 37 28 13 28 -12
0 -15 5 -11 16 3 9 6 22 6 30 0 8 7 14 15 14 8 0 15 6 15 13 0 7 25 21 55 32
32 10 55 24 55 32 0 8 7 21 15 29 8 9 15 24 15 35 0 16 5 19 20 14 15 -5 21 0
26 19 3 14 15 28 26 32 14 4 17 8 8 14 -6 4 -10 18 -8 31 3 21 9 24 52 27 55
4 86 28 86 69 0 27 28 43 40 23 7 -11 11 -11 24 -1 9 8 16 19 16 26 0 6 12 18
28 25 22 11 24 14 10 17 -41 10 -13 21 68 27 98 8 128 24 113 63 -8 23 -7 23
59 25 37 2 -457 5 -1098 8 -663 3 382 6 2428 8 l3592 2 0 1775 0 1775 -3600 0
-3600 0 0 -6400z m6782 3684 c50 -17 112 -73 138 -125 44 -85 32 -202 -29
-284 -25 -34 -27 -41 -14 -50 14 -10 14 -14 -2 -38 -22 -35 -88 -46 -136 -23
-29 13 -43 14 -94 4 -106 -20 -142 -17 -169 17 -22 27 -22 31 -7 41 15 11 14
14 -6 36 -38 40 -63 108 -63 172 0 78 16 128 58 176 77 90 199 118 324 74z
m-639 0 c52 -18 116 -76 142 -130 22 -47 30 -130 16 -180 -32 -119 -134 -194
-265 -194 -165 0 -272 106 -270 266 2 153 105 252 265 253 36 1 86 -6 112 -15z
m-5839 -91 c10 -34 76 -315 76 -324 0 -5 -16 -9 -35 -9 -30 0 -35 3 -35 24 0
31 -13 39 -59 39 -31 0 -36 -3 -43 -31 -8 -28 -13 -32 -42 -32 l-34 0 14 58
c7 31 25 110 40 175 l28 117 42 0 c32 0 44 -4 48 -17z m406 -75 l1 -93 30 38
c23 27 39 37 60 37 16 0 29 -3 29 -6 0 -4 -16 -28 -35 -54 l-34 -47 28 -45
c56 -89 56 -88 17 -88 -30 0 -38 5 -57 40 -26 45 -39 43 -39 -6 0 -31 -2 -34
-30 -34 l-30 0 0 175 0 175 30 0 30 0 0 -92z m1740 -83 l0 -176 -42 1 c-24 1
-55 -1 -69 -5 -19 -5 -33 -1 -55 18 -27 24 -29 29 -29 106 0 69 3 84 21 102
23 22 55 28 92 15 21 -7 22 -5 22 53 l0 61 30 0 30 0 0 -175z m452 83 l3 -92
25 37 c20 30 31 37 58 37 30 0 42 -12 24 -24 -5 -3 -21 -23 -36 -44 l-27 -40
41 -66 41 -67 -38 3 c-32 3 -41 9 -58 40 -26 49 -35 48 -35 -2 0 -39 -1 -40
-35 -40 l-35 0 0 175 0 175 35 0 34 0 3 -92z m728 28 l0 -65 35 15 c28 11 40
12 58 3 34 -18 37 -27 37 -136 l0 -103 -30 0 -30 0 0 90 c0 75 -3 92 -16 97
-37 14 -49 -10 -52 -101 l-3 -86 -29 0 -30 0 0 175 0 175 30 0 30 0 0 -64z
m530 3 c0 -58 1 -60 23 -53 76 26 107 -8 107 -118 0 -71 -2 -81 -26 -105 -20
-20 -31 -24 -52 -18 -15 4 -46 6 -69 5 l-43 -1 0 176 0 175 30 0 30 0 0 -61z
m-1480 -9 c0 -38 2 -40 30 -40 25 0 30 -4 30 -25 0 -21 -5 -25 -30 -25 l-31 0
3 -67 c3 -66 4 -68 31 -71 21 -3 27 -8 23 -19 -3 -8 -6 -19 -6 -24 0 -16 -73
-10 -92 8 -14 13 -18 31 -18 90 0 66 -2 75 -20 80 -13 3 -20 14 -20 29 0 17 6
24 20 24 17 0 20 7 20 40 0 38 2 40 30 40 28 0 30 -2 30 -40z m-2096 -61 c24
-23 34 -121 17 -172 -15 -44 -59 -66 -97 -48 -14 6 -27 11 -29 11 -3 0 -5 -29
-5 -65 l0 -65 -30 0 -30 0 0 181 0 182 38 -5 c20 -3 46 -2 57 3 26 10 55 2 79
-22z m405 20 c17 -6 36 -19 41 -29 6 -10 10 -62 10 -115 l0 -97 -32 3 c-18 1
-48 -1 -66 -5 -50 -12 -82 13 -82 64 0 44 20 64 83 81 28 7 37 15 35 27 -5 25
-45 27 -58 3 -13 -25 -48 -28 -57 -5 -8 21 28 67 58 75 35 10 33 10 68 -2z
m287 1 c39 -15 53 -39 54 -87 l0 -43 -61 0 c-60 0 -60 0 -57 -27 3 -32 44 -46
54 -19 9 23 64 21 64 -2 0 -51 -67 -84 -124 -62 -45 17 -55 38 -56 116 0 78
20 119 63 127 12 2 25 5 29 6 4 0 19 -4 34 -9z m201 -1 c32 -12 43 -26 43 -56
0 -31 -45 -33 -53 -2 -7 24 -40 23 -45 -2 -2 -10 9 -21 30 -29 75 -30 98 -83
59 -131 -40 -50 -151 -22 -151 38 0 19 5 23 30 23 24 0 30 -4 30 -21 0 -15 5
-20 22 -17 42 6 33 36 -16 58 -76 32 -89 107 -23 135 39 17 39 17 74 4z m202
-4 c26 -13 46 -56 33 -70 -14 -14 -50 -3 -55 16 -4 13 -12 20 -24 17 -29 -5
-21 -32 15 -50 73 -36 92 -81 53 -129 -15 -19 -29 -24 -66 -24 -37 0 -51 5
-66 24 -29 36 -25 61 10 61 21 0 30 -6 34 -21 7 -25 40 -22 45 4 3 12 -9 23
-42 37 -74 31 -86 108 -22 136 40 17 51 17 85 -1z m200 4 c17 -6 36 -19 41
-29 6 -10 10 -62 10 -115 l0 -97 -32 3 c-18 1 -48 -1 -66 -5 -50 -12 -82 13
-82 64 0 44 20 64 83 81 28 7 37 15 35 27 -5 25 -45 27 -58 3 -11 -22 -44 -28
-55 -11 -12 20 8 59 38 74 38 19 45 19 86 5z m319 -22 c16 -15 22 -32 22 -64
l0 -43 -61 0 c-60 0 -60 0 -57 -27 3 -32 44 -46 54 -19 9 23 64 21 64 -2 0
-49 -66 -84 -121 -64 -50 20 -59 37 -59 121 0 68 3 80 23 98 12 11 29 23 37
26 25 9 73 -4 98 -26z m1000 -3 c18 -21 22 -36 22 -98 0 -77 -15 -107 -61
-121 -31 -10 -84 3 -105 26 -23 26 -31 127 -13 170 24 60 111 73 157 23z m240
8 c8 -10 12 -52 12 -119 l0 -103 -30 0 -30 0 0 90 c0 75 -3 92 -17 97 -32 12
-53 -32 -53 -113 l0 -74 -30 0 -30 0 0 120 0 120 29 0 c16 0 31 -5 33 -11 2
-6 14 -5 33 5 33 17 63 13 83 -12z m530 -8 c15 -17 22 -38 22 -65 l0 -39 -61
0 c-60 0 -60 0 -57 -27 3 -32 44 -46 54 -19 4 10 18 16 35 16 22 0 29 -5 29
-20 0 -42 -64 -79 -115 -66 -52 13 -65 39 -65 124 0 69 3 81 23 99 12 11 29
23 37 26 28 11 75 -3 98 -29z m539 12 c7 -6 13 -53 15 -116 l3 -105 -32 -3
-33 -3 0 91 c0 72 -3 92 -15 96 -33 13 -45 -15 -45 -102 l0 -84 -35 0 -35 0 0
120 0 120 35 0 c19 0 35 -4 35 -9 0 -6 12 -3 28 4 28 15 58 12 79 -9z m221
-12 c19 -22 22 -36 22 -120 l0 -95 -42 1 c-24 1 -54 -1 -68 -5 -34 -9 -80 27
-80 61 0 41 18 63 63 75 52 15 67 26 60 45 -8 21 -41 17 -55 -6 -12 -19 -48
-27 -60 -14 -15 14 11 60 43 77 43 22 86 16 117 -19z m391 25 c36 -13 61 -53
61 -99 l0 -30 -59 0 c-65 0 -73 -5 -64 -38 6 -26 53 -32 53 -7 0 11 11 15 36
15 32 0 35 -2 29 -22 -13 -43 -42 -63 -90 -63 -64 0 -87 27 -93 105 -5 75 11
118 52 136 38 16 36 16 75 3z m204 -3 c15 -8 27 -11 27 -5 0 5 14 9 30 9 l30
0 0 -149 c0 -134 -2 -151 -20 -174 -41 -52 -147 -44 -170 13 -7 16 -9 34 -5
39 9 15 46 7 60 -12 27 -37 75 -10 75 43 0 17 -3 19 -19 10 -36 -19 -78 -12
-100 16 -16 21 -21 41 -21 88 0 85 8 106 44 122 39 17 36 17 69 0z m285 -22
c19 -22 22 -36 22 -120 l0 -95 -42 1 c-24 1 -54 -1 -68 -5 -35 -9 -80 27 -80
64 0 39 19 60 70 75 33 10 46 19 48 35 4 28 -31 29 -51 0 -22 -30 -63 -23 -59
11 10 70 109 91 160 34z m-3048 -94 l0 -120 -35 0 -35 0 0 113 c0 63 3 117 7
120 3 4 19 7 35 7 l28 0 0 -120z m2280 63 c19 -91 25 -93 45 -14 17 70 18 71
50 71 l33 0 -52 -177 -51 -178 -33 -3 c-29 -3 -33 -1 -29 15 31 106 31 95 -2
207 -18 59 -35 114 -38 122 -4 10 4 14 29 14 34 0 35 -1 48 -57z"/>
<path d="M6613 9773 c-20 -4 -23 -11 -23 -51 l0 -47 85 0 85 0 0 46 c0 40 -3
48 -22 53 -25 6 -90 6 -125 -1z"/>
<path d="M1216 6935 c-5 -14 -9 -42 -35 -265 -30 -248 -42 -379 -42 -440 0
-30 -4 -71 -9 -90 -5 -19 -11 -73 -14 -120 -2 -47 -7 -92 -10 -100 -3 -8 -14
-112 -26 -230 -11 -118 -25 -246 -30 -285 -11 -77 -38 -355 -47 -480 l-5 -80
23 45 c13 25 30 52 37 60 6 8 33 47 59 85 25 39 59 84 76 100 38 39 90 129
168 291 97 200 102 211 96 233 -3 12 -1 19 3 16 15 -9 32 35 25 66 -4 18 -3
29 4 29 6 0 11 5 11 11 0 6 -6 9 -14 6 -8 -3 -28 -2 -45 3 -22 6 -33 5 -42 -6
-23 -28 -147 -4 -184 36 -16 17 -14 18 24 25 43 7 49 13 30 32 -8 8 -3 13 20
18 17 3 29 10 28 13 -1 4 8 18 21 32 12 13 22 32 22 42 0 11 10 20 28 24 44
10 49 12 20 13 -37 1 -36 18 1 26 16 3 35 12 41 20 9 11 -3 15 -71 21 -60 5
-87 12 -100 25 -11 11 -24 19 -30 19 -6 0 -17 6 -25 14 -12 13 -7 16 41 27
l55 12 0 49 c0 52 17 63 50 33 10 -9 43 -20 75 -25 31 -5 66 -12 77 -16 13 -4
18 -2 14 4 -9 15 13 20 69 15 40 -3 46 -2 32 7 -29 19 -65 58 -72 80 -5 16
-15 20 -45 20 -36 0 -40 3 -48 33 -5 17 -8 43 -8 57 1 21 7 26 34 28 39 4 50
24 32 57 -10 18 -21 24 -45 23 -36 -1 -58 9 -49 23 3 6 7 36 7 69 1 32 -1 53
-4 48 -8 -13 -29 -1 -29 16 0 18 -24 66 -32 66 -5 0 -8 9 -8 20 0 11 -5 20
-11 20 -5 0 -7 5 -4 10 3 6 2 10 -3 10 -4 0 -18 20 -30 44 -17 33 -29 45 -53
50 -17 3 -28 10 -25 14 3 5 -1 9 -9 9 -8 0 -16 -6 -19 -12z"/>
<path d="M2563 6813 c9 -2 17 -12 17 -22 0 -9 6 -25 14 -36 7 -11 24 -52 36
-90 12 -39 24 -75 26 -82 3 -6 -4 -14 -16 -18 -19 -6 -20 -9 -7 -23 19 -21 33
-72 20 -72 -5 0 -18 7 -29 15 -26 20 -70 19 -78 -1 -4 -9 -5 -17 -4 -18 2 -1
13 -7 25 -13 12 -7 41 -15 65 -18 23 -3 46 -11 50 -18 13 -20 9 -61 -8 -85
-12 -17 -16 -45 -15 -103 1 -75 -1 -82 -27 -108 -30 -31 -52 -36 -189 -47 -57
-4 -83 -10 -83 -19 0 -7 25 -29 55 -49 67 -44 73 -71 35 -150 -14 -28 -16 -44
-10 -57 20 -36 9 -64 -51 -137 -33 -40 -58 -76 -55 -79 6 -6 43 30 99 98 28
34 44 45 58 42 10 -3 19 -9 19 -13 0 -5 8 -6 18 -3 12 3 32 -10 58 -37 21 -23
53 -47 71 -55 30 -13 31 -16 23 -46 -11 -38 -6 -48 18 -31 33 24 44 25 56 6
19 -33 25 -63 13 -67 -8 -3 -9 -8 -2 -16 19 -19 167 36 232 87 16 11 26 36 34
77 7 35 21 70 34 85 13 14 29 42 36 63 7 20 19 37 27 37 8 0 12 6 9 14 -7 18
24 46 51 46 23 0 87 83 77 100 -9 15 14 50 41 60 24 9 24 11 8 35 -9 14 -24
25 -34 25 -22 0 -34 59 -13 67 7 3 13 11 13 17 0 19 48 37 115 43 60 5 75 14
75 45 0 13 -8 16 -35 13 -19 -2 -38 1 -41 7 -3 5 -14 2 -25 -8 -11 -10 -19
-12 -19 -6 0 14 52 42 79 42 11 0 23 5 26 10 4 6 11 8 16 5 5 -3 6 0 3 8 -3 8
-1 18 5 22 6 3 11 14 11 23 0 13 -2 14 -9 4 -10 -16 -24 -1 -38 43 -11 34 -36
43 -61 23 -16 -12 -32 -14 -57 -8 -23 7 -63 5 -59 -2 3 -4 -6 -13 -20 -20 -21
-9 -29 -8 -44 5 -13 12 -21 14 -29 6 -6 -6 -16 -8 -22 -5 -17 11 -1 34 30 41
38 9 45 22 23 46 -15 17 -28 19 -86 17 -68 -3 -89 5 -45 16 20 5 42 33 45 59
1 9 28 37 35 37 3 0 4 -8 3 -17 0 -12 7 -19 22 -21 16 -3 22 2 22 17 0 11 5
23 10 26 18 11 11 21 -26 38 -37 18 -57 15 -49 -6 7 -17 -38 -35 -64 -25 -20
7 -22 5 -19 -29 5 -56 -18 -51 -38 9 -35 105 -62 157 -86 162 -65 14 -414 32
-365 19z"/>
<path d="M2138 6253 c0 -10 0 -29 1 -43 1 -17 -1 -21 -7 -12 -6 9 -15 -9 -27
-57 -17 -63 -23 -74 -58 -97 -45 -29 -52 -28 -37 10 15 40 14 42 -27 61 -21
10 -46 27 -56 39 -10 11 -16 15 -12 8 4 -7 0 -19 -8 -25 -8 -7 -18 -26 -22
-43 -5 -27 -1 -36 28 -64 21 -20 33 -39 30 -49 -2 -10 3 -23 11 -30 22 -19 20
-41 -4 -41 -22 0 -28 -26 -7 -33 9 -3 9 -9 -1 -26 -15 -26 -8 -41 18 -41 10 0
24 -8 29 -17 9 -16 12 -16 21 -3 8 12 10 11 10 -8 0 -12 7 -38 14 -57 17 -39
52 -47 81 -19 9 9 18 14 20 12 3 -2 8 -37 11 -76 4 -40 11 -72 16 -72 6 0 7
23 4 58 -9 76 -3 83 61 70 29 -6 59 -8 67 -5 22 9 10 32 -22 47 l-27 12 24 19
c30 25 40 24 50 -3 8 -22 9 -22 17 -4 4 11 1 31 -9 50 -9 17 -25 56 -36 86
-11 30 -26 73 -35 95 -8 22 -15 53 -16 69 0 16 -6 37 -13 45 -7 9 -26 49 -41
89 -27 70 -44 90 -48 55z"/>
<path d="M1480 5960 c-7 -5 -28 -6 -46 -3 -26 4 -33 2 -39 -16 -6 -21 -15 -25
-47 -22 -25 3 -23 -20 2 -26 11 -3 20 -12 20 -19 0 -8 7 -14 15 -14 23 0 18
-18 -7 -26 -16 -5 -26 -1 -36 15 -17 24 -42 28 -42 6 0 -33 60 -70 75 -46 7
12 115 3 131 -10 7 -6 15 -5 21 3 17 21 43 76 43 91 0 21 -74 77 -90 67z"/>
<path d="M5003 5913 c-3 -10 -26 -49 -51 -88 -39 -61 -46 -67 -53 -50 -5 11
-17 41 -28 66 -13 32 -29 52 -52 63 -33 17 -59 21 -59 10 0 -24 46 -157 67
-193 l26 -44 -22 -45 c-30 -62 -38 -133 -17 -151 9 -7 16 -10 16 -5 0 5 5 27
10 49 8 36 7 38 -6 21 -24 -33 -17 4 14 69 24 50 131 218 150 235 8 7 -40 -77
-78 -138 -43 -68 -33 -77 15 -12 20 27 39 50 41 50 6 0 0 -11 -46 -80 -47 -69
-83 -140 -72 -140 10 0 120 168 156 237 27 54 36 99 10 51 -22 -42 -23 -34 -2
27 17 50 17 57 3 71 -13 14 -16 14 -22 -3z"/>
<path d="M4231 5880 c-23 -17 -72 -71 -108 -120 -36 -50 -72 -90 -80 -90 -7 0
-19 12 -25 26 -14 30 -4 53 33 71 l24 13 -26 0 c-31 0 -47 -16 -55 -56 -4 -23
0 -34 20 -53 l25 -24 -31 -43 c-17 -24 -34 -41 -38 -39 -3 2 -15 22 -25 45
-12 26 -25 40 -37 40 -21 0 -24 -13 -5 -29 8 -6 22 -29 33 -52 l18 -42 -29
-23 c-47 -38 -60 -28 -58 40 3 73 -17 63 -24 -11 -4 -36 -1 -52 11 -62 18 -16
61 -8 95 18 23 18 24 17 72 -15 89 -60 194 -64 237 -9 11 14 25 25 31 25 18 0
81 61 106 105 19 31 24 50 19 73 -10 48 -48 44 -101 -10 -54 -57 -74 -98 -71
-150 3 -41 2 -43 -36 -55 -33 -11 -47 -11 -88 1 -58 17 -118 55 -118 75 0 8
16 34 36 57 31 39 40 44 77 44 55 1 115 29 170 79 72 66 104 166 63 193 -18
12 -31 9 -18 -4 21 -21 13 -58 -23 -118 -46 -76 -125 -130 -191 -130 -24 0
-22 4 38 91 35 50 83 109 107 130 52 46 32 52 -28 9z"/>
<path d="M3701 5783 c-44 -45 -111 -175 -111 -217 0 -20 3 -36 6 -36 13 0 105
84 135 123 l32 42 -49 -47 c-80 -77 -82 -60 -8 70 24 42 44 80 44 85 0 15 -23
6 -49 -20z"/>
<path d="M1745 5690 c-4 -6 -12 -9 -19 -7 -28 11 -45 -18 -41 -68 4 -51 -4
-75 -38 -112 -11 -13 -16 -23 -11 -23 5 0 5 -4 -1 -8 -18 -13 -55 -71 -55 -87
0 -8 -7 -15 -16 -15 -13 0 -15 -7 -11 -29 5 -25 3 -30 -16 -33 -14 -2 -21 -9
-19 -20 1 -9 -2 -19 -8 -23 -5 -3 -10 -15 -10 -26 0 -11 -7 -19 -16 -19 -10 0
-14 6 -10 15 3 8 0 15 -6 15 -7 0 -8 -13 -5 -37 5 -29 2 -44 -14 -63 -18 -22
-19 -23 -9 -2 11 22 -2 33 -15 12 -4 -6 -15 -8 -25 -5 -20 6 -149 -33 -168
-51 -6 -7 -21 -16 -32 -19 -11 -3 -20 -11 -20 -16 0 -5 -9 -9 -20 -9 -12 0
-24 -9 -29 -23 -5 -13 -16 -29 -25 -36 -9 -7 -16 -19 -16 -27 0 -7 -13 -27
-29 -45 -17 -18 -33 -49 -36 -71 -4 -21 -10 -38 -14 -38 -5 0 -14 -35 -20 -77
-7 -43 -14 -88 -17 -99 -3 -19 2 -23 42 -29 25 -3 78 -8 117 -10 40 -2 161
-11 270 -20 l198 -17 24 22 c13 12 29 36 35 53 7 18 35 78 62 134 48 97 51
105 45 160 -4 32 -16 83 -28 113 -30 75 -38 265 -15 363 9 38 16 90 16 116 0
27 7 72 17 100 11 36 13 55 6 62 -8 8 -13 7 -18 -1z"/>
<path d="M4685 5672 c-17 -10 -45 -35 -62 -56 -58 -65 -55 -118 6 -124 37 -4
81 21 131 74 29 30 24 28 -30 -15 -72 -58 -115 -66 -115 -23 0 18 13 29 65 55
68 34 98 70 78 94 -15 18 -38 16 -73 -5z"/>
<path d="M3164 5609 c-31 -34 -134 -104 -229 -154 -80 -43 -209 -95 -235 -95
-5 0 -34 -11 -64 -25 -30 -14 -60 -25 -68 -25 -27 0 -58 -52 -59 -99 0 -25 -2
-57 -4 -71 -2 -14 -6 -74 -10 -135 -12 -198 -48 -283 -176 -420 -21 -22 -48
-53 -61 -70 -13 -16 -31 -38 -41 -48 -22 -22 -77 -108 -77 -120 0 -5 8 -6 18
-2 9 4 24 9 32 10 32 4 87 34 125 69 22 20 43 36 47 36 4 0 18 11 32 25 14 14
29 25 33 25 8 0 123 106 123 114 0 2 26 31 58 63 101 101 282 314 282 331 0 6
8 17 18 24 16 11 66 85 67 98 2 24 17 60 25 60 6 0 10 8 10 18 0 14 43 105 97
207 42 78 71 144 66 149 -4 3 2 14 11 25 10 10 13 22 8 25 -5 3 -18 -4 -28
-15z"/>
</g>
</svg>
