<?xml version="1.0" standalone="no"?>
<!DOCTYPE svg PUBLIC "-//W3C//DTD SVG 20010904//EN"
 "http://www.w3.org/TR/2001/REC-SVG-20010904/DTD/svg10.dtd">
<svg version="1.0" xmlns="http://www.w3.org/2000/svg"
 width="720.000000pt" height="1280.000000pt" viewBox="0 0 720.000000 1280.000000"
 preserveAspectRatio="xMidYMid meet">
<metadata>
Created by potrace 1.16, written by Peter Selinger 2001-2019
</metadata>
<g transform="translate(0.000000,1280.000000) scale(0.100000,-0.100000)"
fill="#000000" stroke="none">
<path d="M0 6400 l0 -6400 3600 0 3600 0 0 1025 0 1025 -217 2 -218 3 -2 90
c-4 160 -12 259 -23 292 -10 28 -15 31 -43 26 -32 -4 -57 -26 -57 -49 0 -15
-25 -21 -62 -16 -22 3 -28 10 -28 31 -1 23 -3 21 -17 -14 -22 -56 -35 -210
-22 -259 7 -27 7 -42 0 -49 -6 -6 -11 -19 -11 -28 0 -9 -7 -20 -16 -23 -9 -3
-665 -6 -1458 -6 l-1442 0 4 85 c5 92 -12 542 -30 810 l-11 170 48 308 c53
349 54 379 2 423 -44 37 -123 71 -230 98 l-91 22 -38 130 c-143 482 -264 793
-358 918 -24 31 -52 61 -62 67 -10 5 -16 14 -13 20 10 15 -51 67 -87 74 -23 6
-33 3 -40 -9 -5 -9 -19 -16 -31 -16 -13 0 -33 -7 -45 -16 -14 -9 -50 -17 -85
-19 -34 -2 -49 -1 -32 2 16 2 41 12 55 22 34 23 77 41 99 41 10 0 24 6 30 13
13 16 -4 35 -56 61 l-33 16 33 43 c18 24 39 59 46 78 7 19 19 46 27 60 18 34
44 157 37 178 -2 9 2 5 10 -9 18 -31 47 -163 48 -222 l1 -43 21 45 c58 123
-10 464 -118 589 -27 32 -32 40 -15 28 14 -9 31 -20 39 -24 29 -13 83 -80 112
-138 40 -82 54 -168 40 -247 -6 -34 -9 -64 -7 -66 3 -2 13 11 23 30 14 26 18
55 18 144 0 109 -1 112 -40 190 -53 105 -170 224 -269 274 -57 28 -80 35 -128
34 -71 -1 -80 14 -46 78 33 63 31 208 -5 329 -68 226 -173 359 -367 467 -237
132 -603 112 -823 -44 -30 -22 -59 -34 -80 -34 -78 -1 -255 -104 -350 -204
-56 -59 -124 -190 -133 -258 -8 -54 25 -177 53 -199 15 -13 16 -12 8 6 -4 11
-10 48 -13 82 -4 54 0 70 28 132 36 78 49 89 25 21 -19 -53 -20 -180 -1 -223
12 -29 33 -51 106 -111 22 -18 23 -21 14 -120 -5 -55 -9 -142 -8 -191 1 -82 4
-98 39 -175 41 -93 43 -96 50 -89 2 3 -12 39 -32 80 l-37 74 -1 135 c0 74 2
160 4 190 2 30 3 98 2 150 0 52 3 98 8 103 13 13 58 0 82 -24 30 -30 35 -17 6
16 -16 19 -34 28 -56 29 -31 1 -32 2 -26 36 8 49 68 167 109 215 l34 39 -13
-62 c-35 -168 56 -370 205 -456 33 -19 33 -19 25 0 -37 88 -39 102 -38 229 0
72 5 144 11 160 9 27 10 28 11 6 1 -30 51 -230 63 -253 9 -19 -1 -24 -18 -9
-14 14 -54 23 -54 13 0 -5 21 -21 48 -35 26 -14 86 -66 134 -114 48 -48 101
-96 118 -106 l31 -19 -34 46 c-32 41 -83 153 -74 162 2 3 17 -26 33 -63 18
-43 45 -85 74 -113 46 -46 96 -78 106 -68 3 3 -7 29 -21 58 -43 85 -21 68 28
-22 67 -124 92 -238 66 -305 -6 -15 -12 -43 -14 -61 l-2 -33 23 22 c28 27 81
149 90 210 9 61 25 82 86 117 82 47 104 50 139 16 59 -56 47 -161 -28 -244
-49 -55 -184 -130 -234 -130 -30 0 -39 -14 -15 -23 18 -7 72 7 92 24 11 9 14
6 14 -18 0 -76 35 -108 255 -240 43 -25 52 -36 61 -74 16 -67 3 -107 -53 -156
-26 -24 -42 -43 -35 -43 23 0 101 81 112 116 21 62 -9 157 -52 167 -20 5 -182
98 -197 112 -11 11 239 -98 304 -132 17 -9 58 -42 92 -74 46 -43 73 -60 100
-64 21 -3 63 -13 93 -23 l55 -16 -61 -6 c-63 -5 -71 -9 -141 -72 -23 -20 -53
-40 -67 -44 -26 -6 -34 -20 -16 -26 6 -2 -6 -37 -25 -77 -59 -123 -104 -266
-141 -446 -49 -244 -58 -362 -51 -704 5 -274 4 -297 -14 -343 -10 -27 -19 -62
-19 -79 0 -21 -6 -32 -22 -38 -13 -5 -30 -17 -39 -27 -23 -26 -69 -158 -69
-198 0 -31 -4 -34 -88 -75 -105 -49 -143 -86 -176 -166 l-24 -60 -78 -3 c-162
-6 -361 57 -491 155 -125 94 -155 147 -116 203 10 14 20 50 23 80 l5 55 49
-78 c26 -42 53 -80 59 -84 6 -4 1 9 -10 28 -155 257 -262 496 -289 649 -29
159 -33 205 -35 348 -1 117 -3 141 -14 132 -10 -9 -22 5 -53 62 -51 91 -104
215 -147 338 -45 128 -44 100 1 -36 19 -60 71 -181 114 -269 l78 -160 6 -169
7 -168 -43 52 c-24 29 -53 68 -65 89 -13 20 -23 33 -23 28 0 -14 42 -96 56
-108 8 -6 14 -18 14 -27 0 -8 23 -58 51 -111 53 -98 119 -254 119 -280 0 -8
-7 -40 -16 -72 l-16 -57 -43 33 c-43 32 -131 72 -140 63 -2 -2 17 -12 44 -21
62 -23 174 -116 209 -175 22 -39 27 -59 27 -117 0 -61 -4 -77 -33 -126 -35
-62 -40 -99 -16 -144 24 -47 42 -126 37 -165 -3 -19 -15 -48 -27 -65 -44 -60
-76 -128 -76 -162 0 -46 -20 -123 -32 -123 -5 0 -25 35 -45 78 -51 112 -63
122 -140 122 -136 0 -233 -93 -233 -222 0 -21 5 -38 10 -38 6 0 10 19 11 43 0
38 1 40 10 17 11 -26 4 -90 -10 -90 -4 0 -20 13 -36 30 -27 28 -65 41 -65 21
0 -5 -14 -11 -30 -14 -25 -6 -30 -11 -30 -36 0 -15 6 -34 13 -40 8 -6 20 -29
27 -51 7 -21 16 -37 20 -35 12 8 39 -19 45 -45 l6 -26 -71 4 c-61 4 -140 -6
-212 -25 -13 -3 -16 1 -13 18 2 12 -2 33 -10 48 l-14 26 -1 -24 c0 -20 -3 -22
-12 -13 -15 15 13 74 48 101 15 12 20 22 14 31 -7 11 -15 7 -38 -18 -17 -18
-33 -32 -36 -32 -3 0 -6 854 -6 1898 l0 1899 25 11 c14 7 28 19 31 27 8 20 23
19 46 -2 11 -10 44 -20 76 -24 31 -3 63 -8 71 -10 8 -2 16 3 17 11 2 8 5 32 9
53 8 49 27 56 67 22 27 -23 39 -26 75 -22 39 4 44 2 49 -18 3 -13 14 -31 25
-41 19 -17 19 -15 19 54 0 39 -4 73 -8 76 -11 7 -27 -6 -35 -26 -3 -10 -22
-20 -43 -24 -35 -6 -40 -4 -68 30 -32 38 -54 44 -74 24 -10 -10 -15 -10 -22 2
-15 24 -28 0 -32 -55 -3 -47 -5 -50 -32 -53 -16 -2 -40 2 -54 9 -21 12 -23 18
-18 52 6 33 4 38 -11 36 -10 -2 -28 3 -41 10 -12 6 -33 11 -45 9 l-22 -3 -3
1508 -2 1507 2604 0 c2539 0 2604 0 2599 -19 -2 -10 7 -42 22 -70 19 -39 35
-56 62 -67 19 -8 36 -14 37 -12 25 41 24 58 -5 94 -59 74 -132 69 919 72 l942
2 0 1775 0 1775 -3600 0 -3600 0 0 -6400z m6795 3679 c153 -68 200 -265 96
-404 -25 -34 -27 -41 -14 -50 23 -17 -3 -53 -49 -67 -30 -9 -45 -8 -80 5 -34
13 -55 15 -98 8 -30 -5 -63 -13 -73 -16 -53 -21 -137 34 -107 70 11 13 9 19
-8 38 -85 90 -82 268 6 360 77 82 216 105 327 56z m-652 5 c52 -18 116 -76
143 -132 28 -55 26 -174 -4 -229 -50 -95 -136 -143 -256 -143 -209 0 -331 220
-222 402 25 42 43 59 94 85 54 28 75 33 131 33 37 0 88 -7 114 -16z m-5834
-111 c15 -56 71 -300 71 -307 0 -3 -15 -6 -33 -6 -28 0 -34 4 -42 33 -9 29
-14 32 -49 32 -36 0 -40 -3 -48 -32 -8 -29 -13 -33 -42 -33 l-34 0 14 58 c7
31 26 110 41 175 l27 117 43 0 c40 0 43 -2 52 -37z m401 -55 l1 -93 30 38 c23
27 39 37 60 37 16 0 29 -3 29 -6 0 -4 -16 -28 -35 -53 -30 -41 -33 -50 -21
-67 7 -10 25 -40 40 -66 l27 -48 -35 0 c-30 0 -38 5 -57 40 -13 22 -26 40 -31
40 -4 0 -8 -18 -8 -40 0 -38 -2 -40 -30 -40 l-30 0 0 175 0 175 30 0 30 0 0
-92z m1740 -83 l0 -176 -42 1 c-24 1 -55 -1 -69 -5 -19 -5 -33 -1 -55 18 -28
24 -29 29 -29 106 1 69 4 85 22 102 22 22 54 28 91 15 21 -7 22 -5 22 53 l0
61 30 0 30 0 0 -175z m452 83 l3 -92 25 37 c20 30 31 37 58 37 30 0 42 -12 24
-24 -5 -3 -21 -23 -36 -44 l-27 -40 40 -66 41 -66 -35 0 c-30 0 -38 5 -57 40
-13 22 -26 40 -30 40 -5 0 -8 -18 -8 -40 0 -39 -1 -40 -35 -40 l-35 0 0 168
c0 93 3 172 7 175 3 4 19 7 34 7 l28 0 3 -92z m728 28 l0 -65 35 15 c28 11 40
12 58 3 34 -18 37 -27 37 -136 l0 -103 -30 0 -30 0 0 90 c0 75 -3 92 -16 97
-37 14 -49 -10 -52 -101 l-3 -86 -29 0 -30 0 0 175 0 175 30 0 30 0 0 -64z
m530 3 c0 -58 1 -60 23 -53 76 26 107 -8 107 -118 0 -71 -2 -81 -26 -105 -21
-21 -31 -24 -57 -18 -18 4 -49 6 -69 6 l-38 -2 0 176 0 175 30 0 30 0 0 -61z
m-1482 -11 c3 -35 6 -38 33 -38 24 0 29 -4 29 -25 0 -21 -5 -25 -30 -25 l-31
0 3 -67 c3 -66 4 -68 31 -71 21 -3 27 -8 23 -19 -3 -8 -6 -19 -6 -24 0 -16
-73 -10 -92 8 -14 13 -18 31 -18 90 0 66 -2 75 -20 80 -13 3 -20 14 -20 29 0
17 6 24 20 24 17 0 20 7 20 41 0 38 1 40 28 37 23 -3 27 -8 30 -40z m-2094
-58 c24 -24 34 -122 17 -173 -15 -44 -59 -66 -97 -48 -14 6 -27 11 -29 11 -3
0 -5 -29 -5 -65 l0 -65 -30 0 -30 0 0 181 0 182 39 -6 c21 -2 45 -1 52 4 19
12 60 2 83 -21z m402 20 c8 0 23 -9 34 -20 17 -17 20 -33 20 -121 l0 -101 -32
3 c-18 1 -48 -1 -66 -5 -50 -12 -82 13 -82 64 0 44 20 64 83 81 28 7 37 15 35
27 -5 25 -45 27 -58 3 -13 -25 -48 -28 -57 -5 -13 34 56 90 95 78 8 -2 20 -4
28 -4z m293 -1 c38 -14 51 -35 51 -88 l0 -41 -61 0 c-60 0 -60 0 -57 -27 3
-32 44 -46 54 -19 4 10 18 16 35 16 35 0 39 -25 10 -61 -27 -34 -99 -34 -135
0 -23 22 -26 32 -26 96 0 79 20 120 63 128 12 2 25 5 28 6 3 0 20 -4 38 -10z
m199 0 c29 -10 59 -59 45 -73 -15 -15 -51 -5 -56 15 -4 13 -12 20 -24 17 -31
-6 -27 -34 7 -48 78 -32 101 -82 61 -131 -15 -19 -29 -24 -66 -24 -37 0 -51 5
-66 24 -29 36 -25 61 11 61 24 0 30 -4 30 -21 0 -15 5 -20 22 -17 42 6 33 36
-16 58 -54 23 -75 57 -60 98 9 25 45 52 70 52 6 0 25 -5 42 -11z m219 -13 c6
-6 13 -22 15 -36 2 -21 -2 -26 -23 -28 -20 -2 -28 2 -32 18 -4 14 -12 21 -24
18 -29 -5 -21 -32 15 -50 73 -36 92 -81 53 -129 -15 -19 -29 -24 -66 -24 -37
0 -51 5 -66 24 -29 36 -25 61 10 61 21 0 30 -6 34 -21 7 -25 40 -22 45 4 3 12
-9 23 -42 37 -51 21 -70 54 -60 97 12 45 104 65 141 29z m182 13 c17 -6 36
-19 41 -29 6 -10 10 -62 10 -116 l0 -97 -40 6 c-22 3 -43 1 -46 -4 -8 -14 -47
-11 -72 7 -16 11 -22 25 -22 54 0 44 20 64 83 81 28 7 37 15 35 27 -5 25 -45
27 -58 3 -13 -25 -48 -28 -57 -5 -8 23 16 62 46 73 35 13 43 13 80 0z m319
-22 c16 -15 22 -32 22 -64 l0 -43 -61 0 c-60 0 -60 0 -57 -27 3 -32 44 -46 54
-19 8 20 64 22 64 2 0 -69 -102 -98 -158 -45 -19 17 -22 31 -22 98 0 68 3 80
23 98 12 11 29 23 37 26 25 9 73 -4 98 -26z m1000 -3 c19 -21 22 -36 22 -99 0
-70 -1 -74 -32 -100 -27 -23 -39 -26 -71 -22 -59 8 -80 35 -85 107 -3 36 1 72
9 91 24 60 111 73 157 23z m240 9 c8 -11 12 -53 12 -120 l0 -103 -30 0 -30 0
0 90 c0 75 -3 92 -17 97 -32 12 -53 -32 -53 -113 l0 -74 -30 0 -30 0 0 120 0
120 29 0 c16 0 31 -5 33 -12 3 -8 11 -7 29 5 27 20 67 15 87 -10z m530 -9 c15
-17 22 -38 22 -65 l0 -39 -61 0 c-60 0 -60 0 -57 -27 3 -32 44 -46 54 -19 4
10 18 16 35 16 35 0 40 -29 9 -60 -27 -27 -63 -34 -105 -20 -46 15 -55 34 -55
123 0 64 3 76 23 94 12 11 29 23 37 26 28 11 75 -3 98 -29z m542 10 c11 -11
15 -39 15 -117 l0 -102 -32 -3 -33 -3 0 91 c0 72 -3 92 -15 96 -33 13 -45 -15
-45 -102 l0 -84 -35 0 -35 0 0 120 0 120 35 0 c19 0 35 -4 35 -9 0 -6 12 -3
28 4 29 16 58 12 82 -11z m215 -5 c17 -16 21 -36 23 -120 l4 -100 -44 1 c-23
1 -54 -1 -68 -5 -34 -9 -80 27 -80 61 0 42 17 62 70 79 37 12 50 22 50 36 0
26 -36 25 -52 -1 -12 -19 -48 -27 -61 -14 -3 3 -1 19 5 36 20 56 108 72 153
27z m394 20 c36 -13 61 -53 61 -99 l0 -30 -59 0 c-63 0 -76 -8 -66 -40 8 -24
55 -28 55 -5 0 11 11 15 36 15 32 0 35 -2 29 -22 -4 -13 -18 -34 -33 -47 -21
-19 -33 -22 -65 -18 -60 8 -80 35 -85 109 -5 79 9 115 50 133 41 17 38 17 77
4z m204 -3 c15 -8 27 -11 27 -5 0 5 14 9 31 9 l30 0 -3 -154 c-3 -134 -5 -157
-22 -175 -42 -46 -144 -35 -166 19 -7 16 -9 34 -5 39 10 18 44 12 57 -9 27
-42 78 -15 78 41 0 18 -3 20 -12 11 -7 -7 -29 -12 -49 -12 -56 0 -79 34 -79
116 0 72 13 107 44 122 29 14 37 14 69 -2z m285 -22 c19 -22 22 -36 22 -120
l0 -95 -42 1 c-24 1 -54 -1 -68 -5 -36 -9 -80 27 -80 65 0 27 32 70 52 70 5 0
24 7 43 14 25 11 33 19 29 30 -9 22 -41 20 -56 -4 -18 -29 -58 -27 -58 3 0 73
105 101 158 41z m-3048 -94 l0 -120 -35 0 -35 0 0 113 c0 63 3 117 7 120 3 4
19 7 35 7 l28 0 0 -120z m2280 63 c19 -90 25 -92 45 -14 18 68 20 71 48 71 28
0 29 -2 23 -33 -3 -19 -25 -99 -49 -178 l-42 -144 -34 -3 c-28 -3 -33 -1 -27
14 28 74 28 99 -3 207 -18 59 -34 113 -37 122 -5 12 2 15 28 15 34 0 35 -1 48
-57z m-2510 -3984 c16 -64 8 -196 -16 -264 -17 -52 -64 -111 -97 -121 -11 -3
-66 15 -137 45 -65 28 -123 51 -129 51 -12 0 -35 39 -27 47 3 3 26 -2 52 -11
26 -9 56 -16 67 -16 18 0 18 1 -3 34 l-21 35 43 11 c167 45 238 104 238 196 0
59 15 55 30 -7z m68 -301 c2 -18 5 -34 7 -37 9 -9 90 24 113 46 26 26 49 21
63 -14 15 -41 11 -49 -28 -51 -21 -1 -50 -7 -65 -13 -15 -6 -45 -9 -67 -7 -37
3 -41 1 -61 -34 -12 -21 -24 -38 -27 -38 -4 0 -26 9 -50 21 l-44 21 43 27 c43
28 98 84 98 102 0 5 4 9 8 9 4 0 9 -14 10 -32z m373 -467 c127 -80 214 -266
269 -577 31 -171 48 -696 30 -919 -27 -353 -103 -721 -188 -907 -62 -137 -264
-305 -622 -518 -179 -106 -221 -115 -377 -83 l-81 17 -41 -27 c-50 -33 -141
-39 -141 -9 0 50 -156 242 -233 286 -53 30 -98 44 -80 25 10 -10 7 -15 -18
-26 -58 -24 -63 -18 -32 39 21 39 45 64 101 102 66 46 78 59 115 131 38 72 46
81 87 97 25 9 56 19 70 22 41 9 49 20 65 80 39 148 81 200 192 236 37 12 72
26 78 31 16 15 22 10 39 -36 10 -25 22 -45 27 -45 12 0 12 2 -9 52 -34 79 -34
103 -1 203 28 84 34 95 62 104 16 6 42 11 57 11 88 0 295 171 459 378 18 24
31 45 29 48 -3 2 -18 -12 -34 -33 -128 -168 -334 -353 -392 -353 -5 0 -15 39
-21 88 -12 81 -11 98 14 242 15 85 26 166 26 180 -4 95 86 556 146 745 30 96
87 230 119 281 30 49 120 127 174 151 40 18 63 15 111 -16z m-2099 -2457 c36
-6 40 -11 83 -99 32 -65 59 -105 93 -136 56 -52 102 -107 102 -124 0 -7 -15
-17 -32 -23 -29 -10 -26 -11 27 -6 33 3 98 19 145 35 47 17 109 34 139 40 29
5 62 14 73 20 34 18 86 -9 169 -89 44 -41 79 -79 79 -83 0 -5 -19 -34 -42 -64
l-43 -55 -292 0 c-162 0 -293 4 -293 9 0 5 7 14 15 21 9 7 13 15 10 18 -2 3
-14 -7 -26 -21 -19 -25 -26 -27 -95 -27 -41 0 -74 3 -74 6 0 12 90 122 122
147 l33 27 -35 -16 c-21 -10 -58 -46 -93 -90 -37 -48 -64 -74 -77 -74 -28 0
-25 13 11 57 18 22 12 18 -13 -9 l-44 -47 -108 0 -108 0 6 37 c28 165 46 307
46 372 0 86 15 116 73 148 54 29 91 35 149 26z m-291 -501 c5 -5 6 -25 2 -46
l-6 -37 -138 0 c-77 0 -139 2 -139 4 0 2 7 19 15 39 11 27 23 37 52 46 43 12
200 8 214 -6z"/>
<path d="M6613 9773 c-20 -4 -23 -11 -23 -51 l0 -47 85 0 85 0 0 46 c0 40 -3
48 -22 53 -25 6 -90 6 -125 -1z"/>
<path d="M6021 8904 c-51 -21 -69 -65 -40 -93 23 -21 20 -51 -8 -83 -13 -14
-12 -17 6 -23 31 -10 60 3 67 31 3 13 10 21 15 18 5 -3 16 10 25 28 8 18 26
48 39 67 27 37 32 60 13 63 -40 5 -94 2 -117 -8z"/>
<path d="M6305 8817 c-29 -31 -66 -97 -79 -144 -8 -24 -67 -75 -144 -121 -67
-41 -116 -96 -120 -136 -2 -16 -11 -42 -21 -56 -28 -41 -61 -118 -61 -144 0
-31 45 -128 70 -151 27 -24 63 -13 77 25 10 27 16 30 51 30 46 0 72 -20 72
-54 0 -21 -6 -24 -58 -30 l-58 -7 -11 -52 c-12 -56 -12 -161 -1 -172 19 -19
37 8 48 75 12 73 17 79 65 84 15 2 30 8 34 15 11 18 78 26 96 11 8 -6 17 -28
21 -49 12 -71 13 -73 47 -65 17 3 43 16 58 27 22 16 36 18 66 12 21 -4 50 -9
65 -12 20 -4 29 0 39 18 23 44 26 82 7 101 -42 42 -27 107 30 133 12 5 22 13
22 17 0 5 6 8 13 8 23 0 67 25 67 38 0 7 7 15 15 18 32 13 1 24 -65 24 -38 0
-80 5 -94 11 -27 13 -41 58 -20 66 7 2 31 28 53 57 39 50 40 53 29 92 -6 21
-18 47 -26 56 -10 12 -13 33 -10 68 3 27 2 50 -1 50 -4 0 -7 17 -6 37 0 33 -4
40 -40 60 -22 13 -45 21 -52 18 -13 -4 -60 29 -81 57 -21 28 -63 22 -97 -15z"/>
<path d="M7037 8537 c-6 -18 3 -37 19 -37 17 0 19 -20 2 -20 -7 0 4 -16 24
-35 30 -28 46 -35 78 -35 l40 0 0 65 c0 58 -2 65 -19 65 -11 0 -26 -7 -35 -15
-19 -20 -28 -19 -70 4 -24 14 -36 16 -39 8z"/>
<path d="M7130 8392 c0 -4 -13 -16 -30 -25 -16 -10 -34 -27 -40 -37 -14 -26
-3 -70 16 -63 17 6 17 1 2 -31 -6 -14 -19 -28 -29 -31 -9 -3 -20 -17 -23 -31
-4 -14 -14 -28 -24 -31 -9 -3 -29 -15 -44 -25 -15 -10 -44 -18 -66 -18 -53 0
-82 -34 -82 -95 0 -73 62 -108 117 -65 16 12 41 20 64 20 34 0 40 -4 45 -27 4
-15 1 -54 -6 -88 -6 -33 -14 -101 -15 -152 -5 -123 -19 -147 -87 -141 -31 3
-48 1 -49 -6 -1 -6 -2 -16 -3 -22 0 -7 -19 -37 -41 -67 -35 -48 -47 -58 -97
-73 -36 -10 -72 -15 -99 -11 -51 7 -81 -4 -134 -47 -71 -58 -175 -83 -248 -60
-11 3 -36 -1 -56 -9 -20 -8 -54 -20 -76 -27 -22 -7 -58 -26 -79 -41 -51 -37
-74 -36 -116 1 -19 17 -45 30 -59 30 -23 0 -32 -12 -76 -102 -49 -101 -50
-104 -48 -191 0 -48 7 -111 14 -140 17 -68 17 -227 1 -352 -18 -139 -26 -268
-18 -299 4 -15 29 -41 64 -66 l57 -41 30 36 c28 33 38 37 105 46 83 12 87 15
110 96 8 28 19 53 25 55 5 2 22 -22 38 -52 34 -69 60 -89 114 -90 47 0 59 -13
107 -108 24 -48 25 -54 11 -68 -9 -9 -48 -23 -88 -31 -39 -8 -74 -18 -77 -21
-17 -22 -83 -32 -181 -26 -102 7 -106 6 -131 -18 -20 -18 -30 -40 -37 -86 -7
-41 -20 -77 -42 -108 -26 -39 -30 -52 -26 -86 7 -49 46 -125 67 -130 35 -9 53
6 81 65 46 98 87 147 139 164 24 8 49 21 55 27 18 22 59 42 120 61 33 11 66
25 73 32 7 7 21 14 30 14 79 6 89 12 108 58 19 48 55 65 107 50 29 -8 36 -15
40 -42 5 -33 -28 -127 -45 -127 -5 0 -20 -11 -35 -24 -27 -25 -29 -39 -17
-138 6 -56 6 -58 -20 -68 -15 -5 -42 -10 -59 -10 -40 0 -126 -26 -146 -44 -9
-7 -34 -23 -57 -34 -22 -11 -66 -48 -98 -82 -51 -56 -55 -64 -43 -79 8 -9 18
-26 21 -38 14 -46 46 -73 85 -73 30 0 52 11 110 55 42 31 83 55 97 55 23 0 64
-31 64 -48 0 -5 9 -19 20 -32 11 -13 20 -27 20 -31 0 -10 -71 -59 -86 -59 -6
0 -24 -10 -40 -22 -30 -24 -43 -30 -189 -79 -139 -48 -219 -131 -216 -224 1
-31 8 -46 32 -67 37 -33 74 -36 91 -9 10 16 20 18 65 14 37 -4 73 0 114 12 86
26 103 0 61 -97 -17 -38 -26 -47 -54 -53 -18 -4 -56 -22 -84 -41 -51 -33 -59
-48 -69 -124 -1 -8 -24 -37 -50 -63 -54 -54 -86 -57 -107 -12 -12 27 -24 32
-30 13 -5 -13 -24 -18 -90 -25 -43 -4 -48 -3 -52 19 -13 61 -13 119 0 144 9
17 12 49 9 100 -3 53 0 74 8 74 30 2 -73 44 -108 45 -32 0 -45 -5 -68 -29 -30
-33 -39 -59 -33 -91 3 -11 5 -23 5 -27 1 -5 4 -7 9 -7 4 1 9 0 12 -1 3 -1 14
-3 25 -5 11 -2 35 -7 53 -10 20 -4 32 -2 32 5 0 6 4 9 8 6 5 -3 9 -25 10 -49
2 -40 -1 -45 -23 -51 -13 -3 -43 -3 -65 0 -32 5 -40 11 -41 28 0 19 -1 19 -11
-4 -63 -153 -66 -169 -36 -197 33 -29 67 -34 123 -18 46 14 73 12 48 -3 -6 -4
-14 -41 -18 -81 -3 -41 -10 -80 -15 -86 -6 -7 -1 -17 15 -29 14 -11 25 -25 25
-33 0 -8 4 -12 9 -9 5 4 25 -13 45 -36 29 -33 36 -50 36 -83 0 -56 25 -80 97
-96 59 -13 86 -13 91 0 3 8 62 2 62 -6 0 -11 -25 -49 -42 -63 -27 -22 -71
-147 -69 -197 0 -23 -3 -45 -9 -48 -5 -3 -10 -14 -10 -23 0 -9 -7 -30 -15 -46
-13 -24 -13 -35 -3 -65 14 -40 31 -61 48 -61 7 0 9 -35 6 -117 -2 -65 -5 -155
-5 -200 -1 -64 -4 -83 -15 -83 -10 0 -13 -10 -11 -35 3 -35 -19 -121 -36 -140
-5 -5 -9 -24 -9 -42 0 -17 -6 -36 -13 -40 -32 -19 -67 -88 -67 -133 0 -30 -10
-65 -30 -104 -24 -47 -30 -72 -30 -121 0 -78 13 -92 61 -69 71 33 79 39 85 69
8 34 71 98 126 126 49 25 135 115 141 149 5 23 17 30 99 58 52 18 101 32 110
32 9 0 24 10 32 21 22 33 94 69 135 69 46 0 54 6 80 59 26 56 29 174 5 244
-15 44 -15 50 4 104 28 83 37 229 19 295 -15 54 -31 196 -28 257 2 49 34 94
88 124 27 14 67 46 90 70 24 26 54 48 72 52 19 4 57 32 98 74 38 36 87 82 110
101 l43 35 0 209 0 209 -37 -37 c-57 -57 -271 -206 -296 -206 -12 0 -28 4 -35
8 -23 15 -45 124 -45 218 0 83 3 98 40 185 22 52 48 127 58 167 14 60 25 80
62 120 88 92 98 118 71 177 -10 23 -16 25 -79 25 -78 0 -119 12 -119 36 0 29
42 102 92 161 26 31 48 60 48 64 0 25 118 247 148 278 7 7 31 39 52 72 l40 58
0 290 c0 179 -4 291 -10 291 -5 0 -20 -19 -34 -42 -14 -24 -47 -64 -73 -89
-26 -25 -70 -71 -98 -102 -90 -102 -114 -78 -122 123 -4 101 -1 145 15 225 23
113 38 204 51 320 17 137 29 180 66 221 19 21 44 63 57 94 12 30 32 69 44 85
30 41 58 101 75 158 7 26 17 47 21 47 4 0 8 203 8 450 l0 450 -35 0 c-19 0
-35 -4 -35 -8z"/>
<path d="M4260 8322 c0 -6 -26 -20 -57 -32 -32 -11 -67 -25 -78 -30 -110 -50
-208 -80 -269 -80 -59 0 -142 -34 -149 -61 -6 -24 8 -35 64 -46 53 -11 106 -6
134 13 11 8 29 14 40 14 29 0 147 59 163 82 22 30 68 48 127 48 72 0 113 36
87 77 -10 16 -62 28 -62 15z"/>
<path d="M5003 7918 c-24 -11 -43 -23 -43 -27 0 -3 26 -17 58 -29 31 -13 64
-28 72 -33 77 -48 213 -76 231 -47 9 14 -11 31 -67 57 -22 10 -56 32 -75 48
-68 59 -105 66 -176 31z"/>
<path d="M3414 7748 c-4 -7 -29 -9 -68 -5 -62 6 -156 -8 -156 -23 0 -4 12 -22
27 -39 25 -28 33 -31 88 -31 55 0 151 13 196 26 26 7 61 42 55 53 -4 6 -23 13
-44 16 -20 3 -49 8 -64 10 -15 2 -30 -1 -34 -7z"/>
<path d="M5867 7722 c-27 -30 -22 -87 9 -111 71 -56 153 11 117 97 -12 30 -16
32 -61 32 -35 0 -54 -5 -65 -18z"/>
<path d="M6728 7734 c-4 -3 -51 -10 -106 -14 -92 -8 -168 -29 -201 -54 -16
-12 -11 -78 10 -121 36 -74 127 -78 171 -7 43 70 120 142 156 145 37 4 68 29
58 46 -7 11 -78 15 -88 5z"/>
<path d="M5451 7692 c7 -11 30 -29 52 -38 59 -27 98 -77 95 -123 -1 -26 9 -60
33 -110 37 -77 62 -96 88 -64 9 10 37 35 63 54 50 36 66 74 54 124 -8 33 -73
94 -138 130 -45 25 -65 30 -128 31 -41 1 -88 5 -103 9 -27 7 -28 7 -16 -13z"/>
<path d="M1295 6144 c3 -16 9 -58 15 -93 5 -36 15 -68 22 -73 25 -16 43 -3 52
39 7 34 5 48 -8 68 -9 14 -13 25 -8 25 19 0 90 -60 111 -94 13 -20 27 -36 32
-36 6 0 7 5 4 10 -3 6 -1 10 4 10 25 0 7 22 -74 90 -58 48 -96 73 -120 77 -34
5 -35 5 -30 -23z"/>
<path d="M960 5663 c0 -6 4 -23 10 -37 6 -17 6 -26 0 -26 -6 0 -10 -4 -10 -10
0 -5 6 -7 13 -5 8 4 28 -26 54 -79 40 -81 44 -85 101 -113 58 -27 60 -29 76
-89 21 -74 56 -136 118 -208 57 -66 138 -109 237 -127 61 -10 84 -10 178 6 59
10 123 18 141 18 17 0 32 3 32 7 0 3 18 16 40 29 47 26 63 45 25 31 -15 -6
-42 -10 -60 -10 -22 0 -41 -8 -54 -21 -21 -23 -64 -33 -181 -44 -161 -15 -320
56 -395 175 -29 47 -78 188 -71 206 4 9 21 14 55 14 46 0 52 -3 86 -42 20 -24
57 -76 82 -116 25 -40 48 -71 50 -68 6 6 -38 91 -80 153 l-35 52 38 23 c116
69 211 131 206 135 -3 3 -24 -6 -48 -20 -101 -59 -328 -117 -402 -103 -45 9
-98 54 -122 104 -9 20 -32 69 -50 107 -18 39 -33 65 -34 58z"/>
<path d="M586 5362 c-70 -95 -191 -410 -236 -613 -17 -79 -47 -205 -65 -279
-18 -74 -38 -161 -44 -192 -7 -31 -33 -99 -58 -150 -82 -168 -96 -213 -97
-313 -1 -84 2 -96 37 -171 20 -45 37 -90 37 -101 0 -10 -9 -59 -20 -109 -11
-49 -20 -116 -20 -149 0 -58 5 -81 31 -171 12 -39 10 -48 -24 -138 -71 -186
-41 -315 93 -395 19 -11 42 -21 50 -21 8 0 -3 9 -25 19 -54 24 -98 77 -125
148 -27 70 -22 133 15 226 36 87 40 126 21 185 -25 75 -24 209 3 312 25 94 22
118 -24 210 -12 25 -28 69 -35 98 -18 78 7 177 82 323 50 98 63 135 83 235 13
66 35 162 49 214 14 52 34 143 46 202 36 181 165 521 234 618 21 29 35 54 33
56 -3 3 -21 -17 -41 -44z"/>
<path d="M5916 5058 c-11 -6 -69 -19 -129 -30 -133 -23 -140 -29 -140 -123 0
-60 5 -74 35 -104 28 -27 34 -29 47 -17 9 8 46 29 84 46 37 18 67 37 67 43 0
5 16 27 35 48 19 22 35 44 35 51 0 6 11 26 25 44 14 18 25 37 25 43 0 14 -60
14 -84 -1z"/>
</g>
</svg>
