<?xml version="1.0" standalone="no"?>
<!DOCTYPE svg PUBLIC "-//W3C//DTD SVG 20010904//EN"
 "http://www.w3.org/TR/2001/REC-SVG-20010904/DTD/svg10.dtd">
<svg version="1.0" xmlns="http://www.w3.org/2000/svg"
 width="720.000000pt" height="1280.000000pt" viewBox="0 0 720.000000 1280.000000"
 preserveAspectRatio="xMidYMid meet">
<metadata>
Created by potrace 1.16, written by Peter Selinger 2001-2019
</metadata>
<g transform="translate(0.000000,1280.000000) scale(0.100000,-0.100000)"
fill="#000000" stroke="none">
<path d="M0 6400 l0 -6400 3600 0 3600 0 0 6400 0 6400 -3600 0 -3600 0 0
-6400z m6795 3680 c80 -37 139 -117 150 -206 9 -63 -8 -125 -50 -190 -28 -44
-31 -52 -17 -60 13 -9 13 -13 -2 -37 -23 -35 -90 -46 -137 -23 -34 17 -70 15
-141 -6 -50 -15 -104 -3 -124 28 -13 20 -14 27 -4 39 11 13 9 19 -8 38 -85 90
-82 268 6 360 77 82 219 106 327 57z m-652 4 c106 -36 177 -154 163 -271 -12
-98 -61 -168 -148 -208 -128 -60 -303 -10 -361 101 -47 91 -44 191 7 276 25
43 43 59 94 85 54 28 75 33 131 33 37 0 88 -7 114 -16z m-5802 -244 c21 -91
39 -168 39 -172 0 -5 -15 -8 -33 -8 -28 0 -34 4 -42 32 -9 29 -14 32 -50 31
-36 0 -40 -3 -47 -31 -8 -28 -13 -32 -42 -32 l-34 0 14 58 c7 31 26 110 41
175 l27 118 44 -3 45 -3 38 -165z m369 78 l1 -93 30 38 c23 27 39 37 60 37 16
0 29 -3 29 -6 0 -4 -16 -28 -35 -53 -30 -41 -33 -50 -21 -67 7 -10 25 -40 40
-66 l27 -48 -35 0 c-30 0 -38 5 -57 40 -26 45 -39 43 -39 -6 0 -31 -2 -34 -30
-34 l-30 0 0 175 0 175 30 0 30 0 0 -92z m1740 -83 l0 -176 -42 1 c-24 1 -55
-1 -69 -5 -19 -5 -33 -1 -55 18 -28 24 -29 29 -28 107 1 68 4 85 21 102 22 21
54 27 91 14 21 -7 22 -5 22 53 l0 61 30 0 30 0 0 -175z m452 83 l3 -92 25 37
c20 30 31 37 58 37 30 0 42 -12 24 -24 -5 -3 -21 -23 -36 -44 l-27 -40 40 -66
41 -66 -34 0 c-28 0 -38 7 -62 43 l-29 42 -3 -42 c-3 -42 -4 -43 -38 -43 l-34
0 0 175 0 175 35 0 34 0 3 -92z m728 27 l0 -66 30 16 c33 17 60 13 85 -11 11
-12 15 -40 15 -120 l0 -104 -30 0 -30 0 0 90 c0 75 -3 92 -16 97 -37 14 -49
-10 -52 -101 l-3 -86 -29 0 -30 0 0 175 0 175 30 0 30 0 0 -65z m530 4 c0 -58
1 -60 23 -53 76 26 107 -8 107 -118 0 -71 -2 -81 -26 -105 -20 -20 -31 -24
-52 -18 -15 4 -46 6 -69 5 l-43 -1 0 176 0 175 30 0 30 0 0 -61z m-1480 -9 c0
-38 2 -40 30 -40 25 0 30 -4 30 -25 0 -21 -5 -25 -30 -25 l-31 0 3 -67 c3 -66
4 -68 31 -71 21 -3 27 -8 23 -19 -3 -8 -6 -19 -6 -24 0 -16 -73 -10 -92 8 -14
13 -18 31 -18 90 0 66 -2 75 -20 80 -13 3 -20 14 -20 29 0 17 6 24 20 24 16 0
20 7 20 33 0 40 6 47 37 47 20 0 23 -5 23 -40z m-2096 -61 c24 -23 34 -121 17
-172 -15 -44 -59 -66 -97 -48 -14 6 -27 11 -29 11 -3 0 -5 -30 -5 -66 l0 -65
-27 3 -28 3 -3 179 -2 179 37 -5 c21 -3 47 -2 58 3 26 10 55 2 79 -22z m405
20 c44 -16 51 -35 51 -143 l0 -96 -47 -1 c-27 0 -60 -1 -75 -1 -40 -1 -58 19
-58 63 0 43 20 63 83 80 28 7 37 15 35 27 -5 26 -48 28 -55 3 -4 -14 -13 -21
-29 -21 -65 0 -15 96 52 99 6 1 25 -4 43 -10z m290 0 c38 -14 51 -35 51 -88
l0 -41 -61 0 c-60 0 -60 0 -57 -27 3 -32 44 -46 54 -19 4 10 18 16 35 16 35 0
39 -25 10 -61 -27 -34 -99 -34 -135 0 -23 22 -26 32 -26 96 0 79 20 120 63
128 12 2 25 5 28 6 3 0 20 -4 38 -10z m198 0 c32 -12 43 -26 43 -56 0 -31 -45
-33 -53 -3 -7 26 -47 27 -47 1 0 -11 12 -23 30 -31 78 -32 101 -82 61 -131
-15 -19 -29 -24 -66 -24 -37 0 -51 5 -66 24 -29 36 -25 61 11 61 24 0 30 -4
30 -21 0 -15 5 -20 22 -17 40 5 31 32 -19 58 -91 48 -80 135 19 149 4 1 19 -4
35 -10z m197 -3 c31 -13 53 -55 38 -71 -14 -14 -50 -3 -55 16 -4 13 -12 20
-24 17 -29 -5 -21 -32 15 -50 73 -36 92 -81 53 -129 -15 -19 -29 -24 -66 -24
-37 0 -51 5 -66 24 -29 36 -25 61 10 61 21 0 30 -6 34 -21 7 -25 40 -22 45 3
2 12 -11 24 -43 39 -74 35 -86 106 -22 134 40 18 41 18 81 1z m205 3 c17 -6
36 -19 41 -29 6 -10 10 -62 10 -115 l0 -97 -32 3 c-18 1 -48 -1 -66 -5 -50
-12 -82 13 -82 64 0 44 20 64 83 81 28 7 37 15 35 27 -5 25 -45 27 -58 3 -13
-24 -48 -28 -56 -6 -8 20 21 64 49 75 30 12 39 12 76 -1z m318 -21 c17 -16 23
-33 23 -65 l0 -43 -61 0 c-60 0 -60 0 -57 -27 3 -32 44 -46 54 -19 8 20 64 22
64 2 0 -69 -102 -98 -158 -45 -19 17 -22 31 -22 98 0 68 3 80 23 98 12 11 29
23 37 26 25 10 73 -2 97 -25z m1001 -4 c18 -21 22 -36 22 -98 0 -65 -3 -75
-26 -97 -35 -33 -104 -34 -136 -2 -27 28 -37 127 -17 174 24 60 111 73 157 23z
m240 8 c8 -10 12 -52 12 -119 l0 -103 -30 0 -30 0 0 90 c0 75 -3 92 -17 97
-32 12 -53 -32 -53 -113 l0 -74 -30 0 -30 0 0 120 0 120 29 0 c16 0 31 -5 33
-11 2 -6 14 -5 33 5 33 17 63 13 83 -12z m529 -4 c17 -16 23 -33 23 -65 l0
-43 -61 0 c-60 0 -60 0 -57 -27 3 -32 44 -46 54 -19 4 10 18 16 35 16 22 0 29
-5 29 -20 0 -42 -64 -79 -115 -66 -52 13 -65 39 -65 124 0 69 3 81 23 99 12
11 29 23 37 26 25 10 73 -2 97 -25z m540 8 c6 -6 13 -57 16 -118 l5 -108 -34
0 -34 0 0 90 c0 72 -3 92 -15 96 -33 13 -45 -15 -45 -102 l0 -84 -35 0 -35 0
0 120 0 120 35 0 c19 0 35 -4 35 -9 0 -6 12 -3 28 4 28 15 58 12 79 -9z m218
-7 c17 -16 21 -35 23 -120 l4 -100 -44 1 c-23 1 -54 -1 -68 -5 -35 -9 -80 27
-80 64 0 39 19 60 70 75 33 10 46 19 48 35 4 28 -33 29 -50 1 -12 -19 -48 -27
-60 -14 -15 14 11 60 43 77 40 20 84 15 114 -14z m400 16 c37 -15 55 -46 55
-96 0 -29 0 -29 -59 -29 -65 0 -73 -5 -64 -38 6 -26 53 -32 53 -7 0 11 11 15
36 15 32 0 35 -2 29 -22 -4 -13 -18 -34 -33 -47 -21 -19 -33 -22 -65 -18 -59
8 -80 35 -85 107 -5 75 11 118 52 136 39 17 40 17 81 -1z m198 1 c15 -8 27
-11 27 -5 0 5 14 9 31 9 l30 0 -3 -154 c-3 -134 -5 -157 -22 -175 -42 -46
-144 -35 -166 19 -7 16 -9 34 -5 39 10 18 44 12 57 -9 27 -42 78 -15 78 41 0
18 -3 20 -12 11 -7 -7 -29 -12 -49 -12 -56 0 -79 34 -79 116 0 72 13 107 44
122 29 14 37 14 69 -2z m285 -22 c19 -22 22 -36 22 -120 l0 -95 -42 1 c-24 1
-55 -1 -70 -5 -21 -6 -32 -2 -52 18 -48 48 -29 99 44 121 33 10 46 19 48 35 4
28 -33 29 -50 1 -12 -19 -48 -27 -60 -14 -15 14 11 60 43 77 43 22 86 16 117
-19z m-3048 -94 l0 -120 -35 0 -35 0 0 113 c0 63 3 117 7 120 3 4 19 7 35 7
l28 0 0 -120z m2271 103 c0 -10 8 -43 18 -73 l17 -55 19 73 c18 70 20 72 51
72 l32 0 -24 -82 c-79 -281 -76 -273 -113 -276 -28 -3 -33 -1 -27 14 29 76 29
101 -4 209 -17 59 -34 113 -37 121 -4 10 4 14 31 14 27 0 36 -4 37 -17z m-380
-789 c24 -26 24 -25 -44 -139 -73 -122 -85 -137 -107 -125 -25 14 -26 52 -2
88 11 15 33 52 51 82 l33 54 -31 26 c-35 28 -38 41 -15 64 14 15 19 14 55 -6
21 -12 48 -32 60 -44z m-2723 -412 c16 -11 77 -253 69 -275 -8 -20 -40 -22
-55 -4 -6 7 -20 48 -32 92 -11 44 -23 88 -26 98 -5 15 -12 17 -43 12 -45 -7
-72 15 -54 43 18 31 111 53 141 34z m420 -948 c-2 -9 -26 -25 -55 -36 -59 -22
-117 -79 -131 -131 -10 -34 -8 -98 18 -602 6 -121 19 -390 29 -597 l18 -378
28 -40 c34 -49 82 -80 135 -87 27 -4 41 -11 46 -25 3 -11 4 -22 1 -25 -3 -2
-88 -9 -189 -13 -101 -5 -250 -12 -331 -16 l-149 -7 4 23 c2 17 13 26 38 34
63 19 99 49 127 102 l27 52 -12 254 c-7 139 -19 393 -27 563 -38 785 -34 750
-87 807 -31 32 -71 53 -120 62 -28 5 -38 12 -38 26 0 24 21 26 280 38 339 15
392 14 388 -4z m4480 -167 c7 -7 17 -37 23 -66 9 -44 9 -56 -3 -67 -18 -18
-211 -73 -255 -74 -28 0 -33 3 -33 25 0 33 27 48 123 70 42 9 80 22 84 29 4 6
6 25 4 42 -2 23 3 35 16 43 24 14 28 13 41 -2z m-1544 -284 c52 -14 71 -26
123 -79 52 -53 65 -74 83 -131 21 -69 22 -75 49 -683 10 -242 24 -270 126
-270 25 0 59 7 74 15 26 13 30 13 42 -1 10 -13 5 -22 -32 -60 -24 -25 -75 -61
-113 -80 -121 -60 -232 -42 -295 49 -51 74 -53 96 -81 712 -6 127 -15 246 -21
265 -34 108 -126 144 -252 101 -82 -29 -158 -83 -275 -196 l-103 -100 17 -345
c14 -280 20 -353 34 -386 l18 -42 -73 -72 -72 -71 -99 -5 c-54 -2 -132 -6
-171 -8 -70 -4 -73 -4 -73 18 0 18 9 25 42 35 59 18 103 55 129 108 l22 46
-12 276 c-23 509 -28 568 -50 614 -26 51 -86 95 -143 105 -42 7 -62 32 -41 52
10 10 442 124 448 118 2 -2 7 -76 11 -163 4 -88 10 -168 13 -178 6 -15 20 -4
81 64 175 194 285 278 395 302 47 11 143 6 199 -10z m-1660 -80 c49 -13 71
-27 112 -68 66 -66 89 -112 103 -205 15 -104 48 -800 38 -800 -3 0 -36 11 -74
24 -37 14 -93 30 -124 36 -55 11 -57 12 -63 48 -3 20 -6 78 -6 127 -1 181 -28
561 -43 596 -33 78 -100 111 -194 96 -90 -15 -248 -122 -382 -261 l-44 -45 11
-278 c7 -153 12 -290 12 -305 0 -24 -7 -29 -82 -54 -46 -15 -100 -35 -121 -46
-22 -11 -42 -17 -45 -13 -3 3 -14 180 -23 393 -9 213 -22 406 -28 428 -6 23
-20 53 -32 68 -25 32 -92 72 -136 81 -26 5 -33 12 -33 29 0 20 8 25 58 35 31
7 93 23 137 35 225 65 247 69 255 57 4 -7 10 -88 14 -179 4 -92 9 -169 11
-171 2 -2 28 23 57 55 231 258 342 332 497 333 36 1 92 -7 125 -16z m-2866
-914 c81 -49 102 -66 102 -84 0 -13 -7 -26 -16 -29 -15 -6 -141 52 -175 81
-14 12 -19 10 -33 -12 -18 -28 -57 -33 -76 -10 -9 11 -7 21 11 47 36 53 51 68
69 68 9 0 62 -28 118 -61z m2837 -395 c33 -8 79 -26 103 -40 51 -30 112 -118
116 -166 7 -85 -47 -193 -139 -281 -54 -52 -159 -127 -178 -127 -8 0 -20 -7
-27 -15 -36 -44 -205 -119 -350 -156 -105 -27 -130 -30 -149 -20 -10 6 -2 14
34 30 26 11 51 21 56 21 5 0 28 11 51 25 24 14 82 45 129 70 48 24 103 53 123
65 20 11 51 29 70 39 106 60 181 123 236 196 49 67 59 86 70 142 11 59 -2 83
-63 115 -39 21 -55 23 -207 23 -187 0 -258 -13 -239 -43 11 -18 6 -33 -34 -97
-54 -87 -82 -137 -140 -255 -90 -185 -142 -318 -128 -334 7 -9 5 -23 -6 -49
-13 -29 -23 -37 -43 -37 -34 0 -47 10 -55 42 -7 27 15 127 39 182 8 17 22 51
32 76 30 73 145 295 155 298 5 2 9 8 9 14 0 6 23 44 50 84 28 40 50 75 50 78
0 13 -158 -42 -255 -88 -117 -57 -157 -88 -137 -108 18 -18 14 -28 -10 -28
-30 0 -58 28 -58 60 0 42 82 112 187 161 48 22 99 47 113 54 33 17 126 45 175
51 22 4 67 12 100 19 85 19 248 18 320 -1z m1073 -469 c13 0 16 -8 14 -30 -2
-16 -9 -33 -15 -37 -7 -4 -8 -8 -2 -8 5 0 4 -5 -3 -12 -7 -7 -12 -24 -12 -39
0 -22 -6 -29 -31 -34 -23 -5 -34 -3 -44 12 -11 15 -11 20 1 33 12 14 10 18
-15 33 -34 20 -120 13 -127 -9 -2 -8 -7 -22 -11 -31 -3 -10 -7 -21 -7 -26 -2
-14 -78 -86 -99 -93 -12 -4 -25 -11 -28 -17 -7 -10 -125 6 -138 19 -13 12 -6
96 9 108 18 14 40 51 40 67 0 8 -17 9 -57 5 -83 -10 -90 -13 -96 -44 -11 -52
-117 -145 -179 -157 -18 -4 -43 4 -95 28 -41 19 -20 99 44 168 29 31 43 39 72
39 28 0 39 5 46 23 8 18 17 21 45 19 19 -1 44 -11 55 -21 15 -14 38 -19 90
-20 39 -1 86 -7 107 -13 42 -12 88 -4 88 17 0 26 49 30 90 6 56 -31 152 -30
185 4 14 13 25 30 25 37 1 8 7 5 16 -7 8 -11 23 -20 32 -20z m2448 -525 c46
-27 87 -50 92 -50 5 0 15 11 22 25 15 28 51 33 70 10 10 -12 7 -23 -17 -61
-39 -65 -54 -72 -95 -51 -118 62 -193 114 -196 136 -4 22 11 40 32 41 5 0 46
-22 92 -50z m-2996 -23 c36 -6 67 -12 69 -13 2 -2 -7 -12 -21 -23 -13 -11 -35
-40 -48 -65 l-24 -44 12 -299 c7 -164 17 -377 22 -473 5 -96 16 -311 24 -477
11 -228 19 -309 30 -332 21 -40 92 -99 130 -106 58 -12 66 -16 66 -35 0 -12
-9 -21 -22 -24 -30 -6 -405 -21 -537 -21 -127 0 -139 12 -49 53 71 33 90 51
114 107 14 35 15 67 10 250 -4 116 -11 282 -17 370 -5 88 -16 315 -24 505 -8
190 -17 386 -21 435 -8 106 -6 109 -79 -100 -25 -71 -52 -146 -59 -165 -8 -19
-39 -105 -69 -190 -120 -338 -200 -561 -242 -675 -24 -66 -83 -232 -132 -370
l-89 -250 -35 -3 c-34 -3 -37 -1 -59 45 -12 26 -58 122 -100 213 -43 91 -107
227 -144 303 -36 76 -66 140 -66 142 0 2 -26 59 -58 127 -33 67 -121 256 -197
418 -76 162 -142 299 -147 305 -11 13 -10 -31 11 -465 11 -212 25 -500 31
-640 8 -176 16 -268 26 -297 21 -57 79 -107 142 -122 35 -9 52 -18 55 -32 3
-10 2 -21 -2 -23 -5 -3 -321 -18 -436 -21 -5 0 -11 10 -13 21 -3 18 5 23 43
33 59 15 129 83 144 139 8 27 8 91 1 208 -5 93 -14 288 -21 434 -30 705 -44
914 -63 952 -24 49 -87 95 -142 104 -40 6 -61 25 -49 44 3 4 67 11 142 14 76
3 163 8 193 11 65 5 47 30 166 -225 42 -91 101 -216 130 -278 30 -62 54 -114
54 -116 0 -2 38 -84 85 -181 47 -97 85 -178 85 -180 0 -2 29 -63 64 -137 35
-73 85 -178 110 -233 89 -191 111 -235 116 -235 3 0 59 152 125 337 66 186
139 392 163 458 24 66 72 201 107 300 84 237 153 430 172 483 l16 42 91 0 c50
0 98 5 106 10 8 5 22 7 30 3 8 -3 44 -11 80 -16z m1140 -532 c47 -15 116 -42
153 -61 71 -35 157 -92 157 -105 0 -6 -86 -87 -241 -225 -36 -32 -155 -140
-264 -239 -109 -99 -218 -198 -242 -220 l-44 -40 38 -65 c53 -91 183 -219 258
-256 104 -50 223 -44 292 14 38 33 81 112 99 182 l18 67 68 -31 c37 -16 68
-33 68 -37 0 -4 -21 -36 -47 -70 -61 -80 -149 -147 -249 -190 -77 -33 -82 -34
-219 -34 -135 0 -143 1 -221 33 -146 59 -253 149 -338 284 -68 111 -98 210
-104 348 -5 127 14 230 62 335 73 159 219 284 386 330 87 24 263 14 370 -20z
m-4015 -470 c0 -29 -2 -30 -95 -56 -84 -23 -95 -29 -98 -50 -7 -58 -12 -69
-36 -69 -21 0 -27 8 -40 54 -20 67 -20 70 0 87 21 17 210 68 244 66 21 -2 25
-7 25 -32z m4383 -1005 c43 -152 45 -155 79 -152 39 4 67 -21 53 -48 -11 -21
-23 -26 -83 -35 -40 -6 -47 -5 -60 16 -20 32 -71 245 -62 259 4 6 19 10 33 8
22 -2 29 -11 40 -48z m-2420 -387 c2 -12 -16 -52 -42 -94 -50 -80 -56 -105
-27 -114 22 -7 33 -28 25 -49 -10 -27 -36 -26 -83 2 -41 26 -46 33 -45 63 1
31 33 89 110 197 20 29 58 26 62 -5z"/>
<path d="M6613 9773 c-20 -4 -23 -11 -23 -51 l0 -47 85 0 85 0 0 46 c0 40 -3
48 -22 53 -25 6 -90 6 -125 -1z"/>
<path d="M4633 4292 c-180 -75 -222 -341 -108 -699 14 -46 31 -83 36 -83 12 0
26 12 303 264 108 98 201 186 206 196 20 38 12 114 -18 161 -37 57 -115 126
-172 152 -64 28 -191 33 -247 9z"/>
</g>
</svg>
