<?xml version="1.0" standalone="no"?>
<!DOCTYPE svg PUBLIC "-//W3C//DTD SVG 20010904//EN"
 "http://www.w3.org/TR/2001/REC-SVG-20010904/DTD/svg10.dtd">
<svg version="1.0" xmlns="http://www.w3.org/2000/svg"
 width="720.000000pt" height="1280.000000pt" viewBox="0 0 720.000000 1280.000000"
 preserveAspectRatio="xMidYMid meet">
<metadata>
Created by potrace 1.16, written by Peter Selinger 2001-2019
</metadata>
<g transform="translate(0.000000,1280.000000) scale(0.100000,-0.100000)"
fill="#000000" stroke="none">
<path d="M0 6400 l0 -6400 3600 0 3600 0 0 6400 0 6400 -3600 0 -3600 0 0
-6400z m6795 3680 c80 -37 139 -117 150 -206 9 -63 -8 -125 -50 -190 -28 -44
-31 -52 -17 -60 13 -9 13 -13 -2 -37 -23 -35 -90 -46 -137 -23 -34 17 -70 15
-141 -6 -50 -15 -104 -3 -124 28 -13 20 -14 27 -4 39 11 13 9 19 -8 38 -85 90
-82 268 6 360 77 82 219 106 327 57z m-652 4 c106 -36 177 -154 163 -271 -12
-98 -61 -168 -148 -208 -128 -60 -303 -10 -361 101 -47 91 -44 191 7 276 25
43 43 59 94 85 54 28 75 33 131 33 37 0 88 -7 114 -16z m-5802 -244 c21 -91
39 -168 39 -172 0 -5 -15 -8 -33 -8 -28 0 -34 4 -42 32 -9 29 -14 32 -50 31
-36 0 -40 -3 -47 -31 -8 -28 -13 -32 -42 -32 l-34 0 14 58 c7 31 26 110 41
175 l27 118 44 -3 45 -3 38 -165z m369 78 l1 -93 30 38 c23 27 39 37 60 37 16
0 29 -3 29 -6 0 -4 -16 -28 -35 -53 -30 -41 -33 -50 -21 -67 7 -10 25 -40 40
-66 l27 -48 -35 0 c-30 0 -38 5 -57 40 -26 45 -39 43 -39 -6 0 -31 -2 -34 -30
-34 l-30 0 0 175 0 175 30 0 30 0 0 -92z m1740 -83 l0 -176 -42 1 c-24 1 -55
-1 -69 -5 -19 -5 -33 -1 -55 18 -28 24 -29 29 -28 107 1 68 4 85 21 102 22 21
54 27 91 14 21 -7 22 -5 22 53 l0 61 30 0 30 0 0 -175z m452 83 l3 -92 25 37
c20 30 31 37 58 37 30 0 42 -12 24 -24 -5 -3 -21 -23 -36 -44 l-27 -40 40 -66
41 -66 -34 0 c-28 0 -38 7 -62 43 l-29 42 -3 -42 c-3 -42 -4 -43 -38 -43 l-34
0 0 175 0 175 35 0 34 0 3 -92z m728 27 l0 -66 30 16 c33 17 60 13 85 -11 11
-12 15 -40 15 -120 l0 -104 -30 0 -30 0 0 90 c0 75 -3 92 -16 97 -37 14 -49
-10 -52 -101 l-3 -86 -29 0 -30 0 0 175 0 175 30 0 30 0 0 -65z m530 4 c0 -58
1 -60 23 -53 76 26 107 -8 107 -118 0 -71 -2 -81 -26 -105 -20 -20 -31 -24
-52 -18 -15 4 -46 6 -69 5 l-43 -1 0 176 0 175 30 0 30 0 0 -61z m-1480 -9 c0
-38 2 -40 30 -40 25 0 30 -4 30 -25 0 -21 -5 -25 -30 -25 l-31 0 3 -67 c3 -66
4 -68 31 -71 21 -3 27 -8 23 -19 -3 -8 -6 -19 -6 -24 0 -16 -73 -10 -92 8 -14
13 -18 31 -18 90 0 66 -2 75 -20 80 -13 3 -20 14 -20 29 0 17 6 24 20 24 16 0
20 7 20 33 0 40 6 47 37 47 20 0 23 -5 23 -40z m-2096 -61 c24 -23 34 -121 17
-172 -15 -44 -59 -66 -97 -48 -14 6 -27 11 -29 11 -3 0 -5 -30 -5 -66 l0 -65
-27 3 -28 3 -3 179 -2 179 37 -5 c21 -3 47 -2 58 3 26 10 55 2 79 -22z m405
20 c44 -16 51 -35 51 -143 l0 -96 -47 -1 c-27 0 -60 -1 -75 -1 -40 -1 -58 19
-58 63 0 43 20 63 83 80 28 7 37 15 35 27 -5 26 -48 28 -55 3 -4 -14 -13 -21
-29 -21 -65 0 -15 96 52 99 6 1 25 -4 43 -10z m290 0 c38 -14 51 -35 51 -88
l0 -41 -61 0 c-60 0 -60 0 -57 -27 3 -32 44 -46 54 -19 4 10 18 16 35 16 35 0
39 -25 10 -61 -27 -34 -99 -34 -135 0 -23 22 -26 32 -26 96 0 79 20 120 63
128 12 2 25 5 28 6 3 0 20 -4 38 -10z m198 0 c32 -12 43 -26 43 -56 0 -31 -45
-33 -53 -3 -7 26 -47 27 -47 1 0 -11 12 -23 30 -31 78 -32 101 -82 61 -131
-15 -19 -29 -24 -66 -24 -37 0 -51 5 -66 24 -29 36 -25 61 11 61 24 0 30 -4
30 -21 0 -15 5 -20 22 -17 40 5 31 32 -19 58 -91 48 -80 135 19 149 4 1 19 -4
35 -10z m197 -3 c31 -13 53 -55 38 -71 -14 -14 -50 -3 -55 16 -4 13 -12 20
-24 17 -29 -5 -21 -32 15 -50 73 -36 92 -81 53 -129 -15 -19 -29 -24 -66 -24
-37 0 -51 5 -66 24 -29 36 -25 61 10 61 21 0 30 -6 34 -21 7 -25 40 -22 45 3
2 12 -11 24 -43 39 -74 35 -86 106 -22 134 40 18 41 18 81 1z m205 3 c17 -6
36 -19 41 -29 6 -10 10 -62 10 -115 l0 -97 -32 3 c-18 1 -48 -1 -66 -5 -50
-12 -82 13 -82 64 0 44 20 64 83 81 28 7 37 15 35 27 -5 25 -45 27 -58 3 -13
-24 -48 -28 -56 -6 -8 20 21 64 49 75 30 12 39 12 76 -1z m318 -21 c17 -16 23
-33 23 -65 l0 -43 -61 0 c-60 0 -60 0 -57 -27 3 -32 44 -46 54 -19 8 20 64 22
64 2 0 -69 -102 -98 -158 -45 -19 17 -22 31 -22 98 0 68 3 80 23 98 12 11 29
23 37 26 25 10 73 -2 97 -25z m1001 -4 c18 -21 22 -36 22 -98 0 -65 -3 -75
-26 -97 -35 -33 -104 -34 -136 -2 -27 28 -37 127 -17 174 24 60 111 73 157 23z
m240 8 c8 -10 12 -52 12 -119 l0 -103 -30 0 -30 0 0 90 c0 75 -3 92 -17 97
-32 12 -53 -32 -53 -113 l0 -74 -30 0 -30 0 0 120 0 120 29 0 c16 0 31 -5 33
-11 2 -6 14 -5 33 5 33 17 63 13 83 -12z m529 -4 c17 -16 23 -33 23 -65 l0
-43 -61 0 c-60 0 -60 0 -57 -27 3 -32 44 -46 54 -19 4 10 18 16 35 16 22 0 29
-5 29 -20 0 -42 -64 -79 -115 -66 -52 13 -65 39 -65 124 0 69 3 81 23 99 12
11 29 23 37 26 25 10 73 -2 97 -25z m540 8 c6 -6 13 -57 16 -118 l5 -108 -34
0 -34 0 0 90 c0 72 -3 92 -15 96 -33 13 -45 -15 -45 -102 l0 -84 -35 0 -35 0
0 120 0 120 35 0 c19 0 35 -4 35 -9 0 -6 12 -3 28 4 28 15 58 12 79 -9z m218
-7 c17 -16 21 -35 23 -120 l4 -100 -44 1 c-23 1 -54 -1 -68 -5 -35 -9 -80 27
-80 64 0 39 19 60 70 75 33 10 46 19 48 35 4 28 -33 29 -50 1 -12 -19 -48 -27
-60 -14 -15 14 11 60 43 77 40 20 84 15 114 -14z m400 16 c37 -15 55 -46 55
-96 0 -29 0 -29 -59 -29 -65 0 -73 -5 -64 -38 6 -26 53 -32 53 -7 0 11 11 15
36 15 32 0 35 -2 29 -22 -4 -13 -18 -34 -33 -47 -21 -19 -33 -22 -65 -18 -59
8 -80 35 -85 107 -5 75 11 118 52 136 39 17 40 17 81 -1z m198 1 c15 -8 27
-11 27 -5 0 5 14 9 31 9 l30 0 -3 -154 c-3 -134 -5 -157 -22 -175 -42 -46
-144 -35 -166 19 -7 16 -9 34 -5 39 10 18 44 12 57 -9 27 -42 78 -15 78 41 0
18 -3 20 -12 11 -7 -7 -29 -12 -49 -12 -56 0 -79 34 -79 116 0 72 13 107 44
122 29 14 37 14 69 -2z m285 -22 c19 -22 22 -36 22 -120 l0 -95 -42 1 c-24 1
-55 -1 -70 -5 -21 -6 -32 -2 -52 18 -48 48 -29 99 44 121 33 10 46 19 48 35 4
28 -33 29 -50 1 -12 -19 -48 -27 -60 -14 -15 14 11 60 43 77 43 22 86 16 117
-19z m-3048 -94 l0 -120 -35 0 -35 0 0 113 c0 63 3 117 7 120 3 4 19 7 35 7
l28 0 0 -120z m2271 103 c0 -10 8 -43 18 -73 l17 -55 19 73 c18 70 20 72 51
72 l32 0 -24 -82 c-79 -281 -76 -273 -113 -276 -28 -3 -33 -1 -27 14 29 76 29
101 -4 209 -17 59 -34 113 -37 121 -4 10 4 14 31 14 27 0 36 -4 37 -17z m-434
-1379 c3 -8 0 -27 -6 -41 -15 -32 -26 -24 159 -112 157 -74 172 -88 135 -124
-13 -14 -30 -8 -147 50 -73 35 -158 76 -188 91 -67 33 -74 56 -34 113 28 41
69 53 81 23z m-1907 -249 c15 -28 1 -55 -30 -55 -10 0 -58 -14 -107 -31 -171
-61 -258 -89 -271 -89 -15 0 -32 41 -39 96 -4 32 -1 43 12 48 21 8 55 -10 55
-30 0 -8 6 -17 13 -19 10 -4 199 57 287 93 42 18 66 14 80 -13z m-117 -890 c7
-17 2 -20 -39 -29 -39 -9 -100 -58 -121 -99 -15 -29 -15 -93 -9 -707 4 -385
11 -691 17 -712 5 -20 21 -51 35 -67 19 -23 25 -39 22 -68 l-3 -38 -237 -3
c-233 -2 -238 -2 -238 18 0 12 7 20 18 20 9 0 40 13 68 30 39 22 56 40 73 74
l21 45 -9 683 c-9 755 -7 731 -74 782 -19 15 -51 30 -71 33 -40 6 -51 16 -42
38 8 22 581 22 589 0z m3811 -241 c26 -10 19 -43 -12 -61 l-29 -17 18 -55 c10
-31 34 -101 53 -155 20 -55 36 -108 36 -118 0 -10 -12 -24 -26 -30 -22 -10
-28 -10 -39 5 -7 10 -16 34 -19 53 -4 19 -32 102 -62 186 -61 167 -61 172 7
188 45 11 55 11 73 4z m-1182 -266 c62 -26 120 -90 146 -161 20 -52 22 -84 28
-434 8 -426 7 -421 84 -444 32 -10 46 -9 80 5 37 14 41 15 47 0 16 -41 -153
-144 -238 -144 -84 0 -86 2 -91 88 -6 91 -37 172 -80 206 l-30 23 -7 319 c-6
281 -9 324 -25 357 -42 86 -166 95 -294 21 -52 -30 -132 -94 -204 -163 l-48
-45 0 -316 0 -315 -48 -50 c-26 -27 -62 -69 -80 -91 -30 -40 -34 -42 -102 -48
-88 -9 -180 1 -180 19 0 8 22 21 48 29 52 18 90 51 116 103 14 27 15 76 10
405 -3 205 -10 387 -15 403 -14 47 -61 91 -118 111 -82 30 -70 48 47 74 53 12
142 33 196 46 54 13 103 24 107 24 5 0 9 -71 9 -158 0 -87 2 -161 5 -164 3 -3
49 40 103 95 94 96 182 166 251 202 76 38 197 40 283 3z m-1490 -11 c57 -24
113 -81 144 -149 l29 -63 3 -273 4 -274 -29 15 c-15 8 -67 24 -114 37 l-87 22
-6 217 c-4 119 -11 232 -16 251 -23 87 -122 122 -231 81 -73 -28 -124 -62
-236 -161 l-93 -81 0 -168 0 -169 -76 -17 c-42 -9 -91 -23 -110 -31 -18 -8
-35 -14 -38 -14 -2 0 -6 118 -8 263 -3 224 -5 266 -20 293 -25 45 -73 83 -124
96 -31 9 -44 17 -44 30 0 19 19 25 172 59 236 52 231 51 239 37 5 -7 9 -80 9
-163 l0 -150 113 111 c123 122 207 184 283 208 59 19 182 15 236 -7z m-2308
-283 c9 -3 16 -12 16 -19 0 -7 -38 -89 -85 -184 -55 -110 -91 -171 -101 -171
-21 0 -66 24 -87 48 -15 17 -16 24 -7 42 6 12 17 20 23 17 54 -20 50 -24 111
105 81 174 85 179 130 162z m2236 -719 c81 -21 120 -50 153 -113 23 -45 25
-55 17 -108 -4 -33 -12 -68 -16 -79 -18 -47 -81 -120 -148 -170 -39 -30 -75
-59 -81 -63 -5 -4 -31 -16 -57 -26 -27 -10 -48 -21 -48 -25 0 -11 -113 -65
-200 -95 -84 -28 -248 -58 -256 -45 -2 4 11 11 31 15 19 3 38 10 41 15 3 5 16
9 29 9 13 0 27 5 31 11 3 6 21 17 38 25 17 8 38 18 46 23 8 5 75 39 149 76 74
37 153 79 175 95 111 76 216 215 216 284 0 41 -60 91 -127 106 -72 16 -232 27
-263 18 -14 -4 -52 -13 -85 -20 -37 -8 -51 -14 -37 -16 46 -7 38 -37 -35 -128
-18 -23 -33 -45 -33 -49 0 -5 -6 -16 -14 -24 -27 -33 -167 -306 -191 -375 -8
-23 -15 -54 -15 -69 0 -40 -17 -67 -43 -67 -38 0 -51 16 -49 57 3 44 32 133
44 133 4 0 8 7 8 16 0 20 141 293 174 337 13 18 27 42 30 54 4 13 28 43 52 68
39 39 43 45 24 45 -30 0 -220 -67 -299 -105 -71 -35 -106 -65 -83 -72 16 -6
16 -23 -1 -23 -21 0 -57 39 -57 60 0 33 70 93 160 136 97 47 129 58 220 75 36
6 94 17 130 25 86 18 285 12 370 -11z m358 -467 c17 -17 41 -25 85 -29 l62 -6
-60 -2 c-55 -1 -61 -4 -72 -28 -7 -15 -13 -33 -13 -40 0 -26 -61 -82 -97 -89
-25 -5 -31 -9 -21 -15 10 -7 9 -9 -4 -9 -10 0 -18 7 -18 15 0 8 -5 15 -12 15
-7 0 11 21 40 48 57 51 63 70 31 90 -18 12 -26 10 -60 -14 -22 -15 -36 -30
-31 -33 4 -3 1 -21 -8 -40 l-17 -34 -2 57 c-1 49 2 60 21 76 13 11 39 19 58
20 24 0 39 6 48 20 16 26 40 25 70 -2z m2639 -464 c37 -21 44 -30 41 -52 -3
-25 -6 -27 -43 -25 l-41 3 -44 -93 c-24 -50 -54 -115 -67 -144 -13 -28 -30
-56 -38 -63 -32 -27 -81 14 -58 48 7 9 27 46 44 82 64 135 121 245 131 257 15
18 25 16 75 -13z m-2417 -122 c0 -14 -23 -32 -40 -32 -33 0 -107 -59 -125
-100 -17 -38 -18 -76 -11 -713 4 -369 11 -688 16 -708 14 -51 68 -103 124
-119 26 -7 48 -16 51 -19 15 -25 -24 -29 -300 -33 -270 -3 -290 -2 -293 15 -4
17 2 21 50 31 36 8 85 51 108 96 18 35 19 61 13 621 -3 321 -8 642 -12 714
l-6 130 -64 -160 c-35 -88 -92 -230 -127 -315 -34 -85 -142 -355 -240 -600
-232 -585 -217 -552 -250 -546 -14 3 -28 7 -30 9 -2 1 -43 97 -92 213 -304
717 -506 1190 -514 1198 -10 12 -9 -19 1 -710 8 -473 10 -535 26 -567 23 -49
67 -85 121 -98 32 -8 44 -16 44 -30 0 -18 -11 -19 -200 -19 -193 0 -200 1
-200 20 0 14 7 20 23 20 36 0 103 49 128 93 l22 41 -6 688 c-7 763 -4 727 -73
788 -20 17 -51 33 -74 36 -29 5 -40 11 -40 24 0 14 14 18 98 23 53 4 131 7
173 7 l76 0 26 -57 c21 -49 194 -454 529 -1240 33 -79 64 -143 67 -143 3 1 47
105 98 233 140 356 451 1137 470 1180 l16 37 209 0 c114 0 208 -4 208 -8z
m-2813 -254 c7 -12 60 -159 106 -296 27 -79 19 -94 -52 -106 -63 -11 -81 0
-63 39 6 14 18 25 27 25 25 0 24 4 -60 243 -22 62 -25 80 -15 92 15 18 46 20
57 3z m3622 -278 c100 -28 245 -104 299 -157 14 -13 38 9 -396 -356 -127 -108
-253 -213 -278 -235 l-46 -39 25 -49 c34 -66 109 -162 160 -203 173 -139 355
-96 414 98 9 31 20 60 24 65 8 10 119 -40 119 -53 0 -5 -18 -31 -40 -59 l-41
-51 22 -15 c17 -12 23 -28 27 -69 4 -49 2 -55 -18 -60 -17 -4 -26 1 -38 24
-10 16 -22 29 -28 29 -5 0 -59 -18 -120 -41 -60 -22 -129 -45 -153 -51 -42
-10 -46 -9 -66 16 -14 18 -30 26 -51 26 -46 0 -131 28 -209 68 -81 43 -183
140 -233 225 -80 134 -110 314 -78 467 40 191 176 357 339 416 102 38 238 39
366 4z m-2092 -1209 c54 -27 130 -63 168 -81 95 -44 104 -61 63 -125 -28 -42
-40 -48 -66 -29 -18 12 -20 19 -11 41 13 34 9 37 -108 92 -180 85 -205 105
-171 139 17 17 17 17 125 -37z"/>
<path d="M6613 9773 c-20 -4 -23 -11 -23 -51 l0 -47 85 0 85 0 0 46 c0 40 -3
48 -22 53 -25 6 -90 6 -125 -1z"/>
<path d="M4475 4212 c-45 -21 -99 -71 -119 -111 -55 -106 -47 -341 20 -563 3
-10 10 -18 16 -18 13 0 331 265 441 368 33 31 37 39 37 86 0 63 -35 124 -101
178 -66 53 -101 68 -181 74 -59 4 -81 1 -113 -14z"/>
</g>
</svg>
