<?xml version="1.0" standalone="no"?>
<!DOCTYPE svg PUBLIC "-//W3C//DTD SVG 20010904//EN"
 "http://www.w3.org/TR/2001/REC-SVG-20010904/DTD/svg10.dtd">
<svg version="1.0" xmlns="http://www.w3.org/2000/svg"
 width="720.000000pt" height="1280.000000pt" viewBox="0 0 720.000000 1280.000000"
 preserveAspectRatio="xMidYMid meet">
<metadata>
Created by potrace 1.16, written by Peter Selinger 2001-2019
</metadata>
<g transform="translate(0.000000,1280.000000) scale(0.100000,-0.100000)"
fill="#000000" stroke="none">
<path d="M0 6400 l0 -6400 3600 0 3600 0 0 1900 0 1899 -257 0 c-627 -1 -2117
12 -2641 23 -629 13 -604 9 -569 70 l17 29 -76 -5 c-127 -10 -141 -18 -109
-63 14 -20 14 -23 -2 -31 -26 -12 -719 -5 -816 8 -89 13 -153 41 -163 74 -16
50 -46 74 -114 92 -64 16 -67 19 -61 42 5 16 19 28 43 37 20 7 44 20 53 29 9
9 20 16 24 16 15 0 51 41 51 58 0 15 -2 15 -10 2 -8 -12 -10 -12 -10 5 0 11
-4 15 -8 10 -4 -6 -14 -11 -22 -10 -12 0 -16 19 -18 97 -3 90 -1 98 22 123 22
23 25 24 29 8 3 -12 5 -9 6 9 1 35 14 42 55 28 80 -26 83 -25 90 33 3 28 6
147 6 263 0 243 -9 224 107 224 53 0 61 2 59 17 -2 15 -13 18 -62 17 -32 -1
-95 -6 -139 -11 l-80 -10 55 -3 c30 -2 -17 -7 -105 -10 -240 -11 -1167 -11
-1161 -1 6 8 -84 26 -116 22 -9 -1 -51 7 -95 18 -43 10 -112 21 -153 24 l-75
5 65 -11 c48 -9 66 -17 68 -30 3 -15 -6 -17 -65 -18 -57 -2 -62 -3 -28 -8 44
-7 -470 -21 -777 -21 l-198 0 0 104 0 103 61 7 c92 9 1119 7 1119 -2 0 -10
132 -32 140 -24 3 2 -1 7 -7 9 -7 3 -13 9 -13 15 0 6 7 8 15 4 8 -3 15 -1 15
4 0 6 -6 10 -14 10 -14 0 -30 39 -20 49 3 3 7 -5 11 -17 6 -25 23 -30 23 -7 0
8 -4 15 -9 15 -5 0 -14 15 -19 33 -12 37 -26 597 -16 645 6 29 10 32 43 33
l36 1 -40 13 c-33 11 -36 13 -15 14 24 2 24 2 6 16 -30 22 -12 30 80 34 72 3
84 1 84 -13 0 -9 -6 -16 -12 -16 -10 0 -9 -3 1 -9 7 -5 11 -13 7 -19 -3 -6 -2
-13 4 -17 6 -4 10 -138 10 -381 l0 -374 -75 0 c-43 0 -75 -4 -75 -10 0 -5 12
-10 26 -10 14 0 34 -5 44 -10 16 -8 18 -7 14 4 -5 12 19 13 160 9 92 -3 172
-3 179 0 8 3 11 21 9 56 -3 31 -8 49 -14 45 -5 -4 -8 -24 -6 -45 2 -27 -1 -40
-11 -44 -7 -3 -62 -2 -120 2 -91 6 -101 8 -71 16 31 8 33 10 14 17 -39 15 -47
57 -42 235 4 163 4 165 30 192 16 16 44 29 70 34 40 7 39 7 -17 6 -66 -2 -83
5 -85 31 -12 222 -13 215 6 229 10 7 12 13 6 13 -7 0 -17 11 -22 25 -13 33 10
295 27 313 9 9 41 12 115 10 l103 -3 -2 -410 c-2 -293 0 -405 8 -392 7 11 11
101 11 240 0 122 3 267 6 322 l7 100 73 0 73 0 -1 -497 0 -498 92 1 c61 0 86
3 73 9 -19 8 -19 9 2 9 33 1 35 15 7 52 l-25 34 3 512 3 513 112 0 111 0 7
-112 c3 -62 5 -316 3 -564 l-3 -450 185 4 c102 2 185 5 185 6 0 116 -9 275
-15 256 l-8 -25 -1 25 c-2 41 -15 54 -35 35 -15 -15 -16 -15 -17 2 0 16 -1 16
-9 -2 -7 -16 -9 -12 -10 20 -1 22 -4 31 -7 20 -22 -89 -37 41 -27 232 4 95 3
147 -4 155 -7 9 -6 28 3 63 l12 50 54 0 54 0 3 244 2 243 -357 -4 c-309 -3
-363 -1 -396 13 -21 9 -43 21 -49 27 -19 19 -28 14 -28 -13 l0 -25 -337 -2
c-186 -2 -363 -2 -393 -2 -30 1 -292 2 -582 3 l-528 1 2 78 c1 42 1 475 0 962
-2 856 1 980 19 980 5 0 9 -5 9 -11 0 -5 4 -7 10 -4 5 3 10 1 10 -5 0 -7 6 -5
15 4 10 10 15 35 15 80 0 64 1 66 25 66 24 0 25 2 25 73 0 75 18 143 42 161 7
6 12 19 10 28 -2 10 5 30 15 45 11 16 25 46 31 69 11 37 41 84 55 84 3 0 8
-12 10 -27 3 -23 4 -21 6 10 1 27 -3 37 -14 37 -33 0 -7 25 47 46 24 9 23 34
-2 34 -11 0 -20 7 -20 15 0 12 -14 15 -62 17 -283 9 1278 15 3850 17 l3072 1
0 1775 0 1775 -3600 0 -3600 0 0 -6400z m6786 3682 c159 -63 211 -265 105
-407 -25 -34 -27 -41 -14 -50 24 -18 0 -52 -48 -67 -33 -9 -47 -9 -72 2 -36
16 -116 15 -165 -1 -47 -15 -97 -4 -117 27 -13 20 -14 28 -4 40 10 12 8 19 -9
37 -37 39 -62 108 -62 171 0 78 16 128 58 176 79 93 205 120 328 72z m-643 2
c52 -18 116 -76 142 -130 60 -126 7 -282 -117 -344 -139 -69 -312 -20 -376
106 -42 84 -38 184 12 267 25 41 43 58 94 84 54 28 75 33 131 33 37 0 88 -7
114 -16z m-5806 -224 c52 -224 51 -200 11 -200 -31 0 -36 4 -41 30 -6 27 -11
30 -42 30 -19 0 -38 0 -42 1 -4 0 -11 -14 -16 -30 -7 -27 -12 -31 -41 -31
l-34 0 14 58 c7 31 26 110 41 175 l27 118 44 -3 45 -3 34 -145z m373 58 l1
-93 30 38 c23 27 39 37 60 37 16 0 29 -3 29 -6 0 -4 -16 -28 -35 -54 l-34 -47
28 -45 c56 -89 56 -88 17 -88 -30 0 -38 5 -57 40 -26 45 -39 43 -39 -6 0 -31
-2 -34 -30 -34 l-30 0 0 175 0 175 30 0 30 0 0 -92z m1740 -83 l0 -176 -42 1
c-24 1 -54 -1 -68 -5 -43 -11 -77 25 -85 88 -7 58 7 128 30 147 17 14 51 17
83 6 21 -7 22 -5 22 53 l0 61 30 0 30 0 0 -175z m452 83 l3 -92 25 37 c20 30
31 37 58 37 30 0 42 -12 24 -24 -5 -3 -21 -23 -36 -44 l-27 -40 40 -66 41 -66
-35 0 c-30 0 -39 6 -62 43 l-28 42 -3 -42 c-3 -42 -4 -43 -38 -43 l-34 0 0
168 c0 93 3 172 7 175 3 4 19 7 34 7 l28 0 3 -92z m728 27 l0 -66 30 16 c33
17 60 13 85 -11 11 -12 15 -40 15 -120 l0 -104 -30 0 -29 0 -3 92 c-3 83 -5
93 -22 96 -33 7 -46 -25 -46 -110 l0 -78 -30 0 -30 0 0 175 0 175 30 0 30 0 0
-65z m530 4 c0 -58 1 -60 23 -53 76 26 107 -8 107 -118 0 -71 -2 -81 -26 -105
-20 -20 -31 -24 -52 -18 -15 4 -46 6 -69 5 l-43 -1 0 176 0 175 30 0 30 0 0
-61z m-1480 -9 c0 -38 2 -40 30 -40 25 0 30 -4 30 -25 0 -21 -5 -25 -30 -25
l-31 0 3 -67 c3 -66 4 -68 31 -71 21 -3 27 -8 23 -19 -3 -8 -6 -19 -6 -24 0
-16 -73 -10 -92 8 -14 13 -18 31 -18 90 0 66 -2 75 -20 80 -13 3 -20 14 -20
29 0 17 6 24 20 24 17 0 20 7 20 40 0 38 2 40 30 40 28 0 30 -2 30 -40z
m-2096 -61 c24 -23 34 -121 17 -172 -15 -44 -59 -66 -97 -48 -14 6 -27 11 -29
11 -3 0 -5 -30 -5 -66 l0 -65 -27 3 -28 3 -3 179 -2 179 37 -5 c21 -3 47 -2
58 3 26 10 55 2 79 -22z m402 21 c8 0 23 -9 34 -20 17 -17 20 -33 20 -121 l0
-101 -32 3 c-18 1 -48 -1 -66 -5 -50 -12 -82 13 -82 64 0 44 20 64 83 81 28 7
37 15 35 27 -5 26 -48 28 -55 3 -6 -25 -51 -29 -60 -5 -13 34 56 90 95 78 8
-2 20 -4 28 -4z m290 0 c39 -15 53 -39 54 -87 l0 -43 -61 0 c-60 0 -60 0 -57
-27 3 -32 44 -46 54 -19 4 10 18 16 35 16 35 0 39 -25 10 -61 -27 -34 -99 -34
-135 0 -23 22 -26 32 -26 96 0 79 20 120 63 128 12 2 25 5 29 6 4 0 19 -4 34
-9z m201 -1 c32 -12 43 -26 43 -56 0 -31 -45 -33 -53 -3 -7 26 -47 27 -47 1 0
-12 12 -23 33 -31 74 -30 97 -83 58 -131 -40 -50 -151 -22 -151 38 0 31 42 32
62 1 9 -14 20 -19 31 -15 31 12 18 37 -28 57 -75 32 -87 107 -22 135 39 17 39
17 74 4z m197 -3 c31 -13 53 -55 38 -71 -14 -14 -50 -3 -55 16 -4 13 -12 20
-24 17 -29 -5 -21 -32 15 -50 73 -36 92 -81 53 -129 -15 -19 -29 -24 -66 -24
-37 0 -51 5 -66 24 -29 36 -25 61 10 61 21 0 30 -6 34 -21 7 -25 40 -22 45 3
2 12 -11 24 -43 39 -74 35 -85 107 -21 135 39 17 40 17 80 0z m205 3 c17 -6
36 -19 41 -29 6 -10 10 -62 10 -115 l0 -97 -32 3 c-18 1 -48 -1 -66 -5 -50
-12 -82 13 -82 64 0 44 20 64 83 81 28 7 37 15 35 27 -5 25 -45 27 -58 3 -11
-22 -44 -28 -55 -10 -13 21 5 57 37 72 40 20 46 20 87 6z m319 -22 c16 -15 22
-32 22 -64 l0 -43 -61 0 c-60 0 -60 0 -57 -27 3 -32 44 -46 54 -19 9 23 64 21
64 -2 0 -69 -107 -94 -163 -37 -23 23 -24 151 -1 183 32 46 97 50 142 9z
m1000 -3 c18 -21 22 -36 22 -98 0 -58 -4 -76 -20 -94 -43 -45 -130 -36 -157
18 -16 32 -17 121 -1 156 26 56 112 66 156 18z m240 8 c8 -10 12 -52 12 -119
l0 -103 -30 0 -30 0 0 90 c0 99 -12 119 -50 85 -17 -15 -20 -31 -20 -97 l0
-78 -30 0 -30 0 0 120 0 120 29 0 c16 0 31 -5 33 -11 2 -6 14 -5 33 5 33 17
63 13 83 -12z m530 -8 c15 -17 22 -38 22 -65 l0 -39 -61 0 c-60 0 -60 0 -57
-27 3 -32 44 -46 54 -19 4 10 18 16 35 16 35 0 40 -29 9 -60 -27 -27 -63 -34
-105 -20 -46 15 -55 34 -55 123 0 64 3 76 23 94 12 11 29 23 37 26 28 11 75
-3 98 -29z m539 12 c7 -6 13 -53 15 -116 l3 -105 -32 -3 -33 -3 0 91 c0 72 -3
92 -15 96 -33 13 -45 -15 -45 -102 l0 -84 -35 0 -35 0 0 120 0 120 35 0 c19 0
35 -4 35 -9 0 -6 12 -3 28 4 28 15 58 12 79 -9z m221 -12 c19 -22 22 -36 22
-120 l0 -95 -42 1 c-24 1 -54 -1 -68 -5 -35 -9 -80 27 -80 64 0 39 19 60 70
75 33 10 46 19 48 35 4 28 -31 29 -51 0 -22 -30 -63 -23 -59 11 10 70 109 91
160 34z m391 25 c36 -13 61 -53 61 -99 l0 -30 -59 0 c-65 0 -73 -5 -64 -38 6
-26 53 -32 53 -7 0 11 11 15 36 15 32 0 35 -2 29 -22 -13 -43 -42 -63 -90 -63
-64 0 -87 27 -93 105 -5 75 11 118 52 136 38 16 36 16 75 3z m204 -3 c15 -8
27 -11 27 -5 0 5 14 9 30 9 l30 0 0 -149 c0 -134 -2 -151 -20 -174 -41 -52
-147 -44 -170 13 -7 16 -9 34 -5 39 10 18 44 12 57 -9 26 -41 78 -15 78 40 0
17 -3 19 -19 10 -36 -19 -78 -12 -100 16 -16 21 -21 41 -21 90 0 72 13 107 44
122 29 14 37 14 69 -2z m285 -22 c19 -22 22 -36 22 -120 l0 -95 -42 1 c-24 1
-54 -1 -68 -5 -34 -9 -80 27 -80 61 0 42 17 62 70 79 37 12 50 22 50 36 0 26
-36 25 -50 -1 -11 -20 -54 -28 -64 -12 -10 16 29 76 54 84 40 11 83 0 108 -28z
m-3048 -94 l0 -120 -35 0 -35 0 0 113 c0 63 3 117 7 120 3 4 19 7 35 7 l28 0
0 -120z m2280 63 c19 -91 25 -93 45 -14 17 70 18 71 50 71 l33 0 -24 -82 c-79
-281 -76 -273 -113 -276 -28 -3 -33 -1 -27 14 29 76 29 101 -4 209 -17 59 -34
113 -37 121 -4 10 4 14 29 14 34 0 35 -1 48 -57z m-3343 -3725 l2 -98 -91 0
c-66 0 -89 3 -86 12 3 7 15 15 29 19 23 7 23 7 -4 8 -31 1 -36 10 -38 66 -4
88 6 95 116 92 l70 -2 2 -97z m-1219 -498 c3 -372 0 -440 -23 -440 -7 0 -15 5
-17 10 -2 6 -30 15 -63 20 -78 11 -92 17 -99 43 -3 12 -6 90 -6 174 0 148 1
153 25 179 32 35 34 87 3 108 -22 16 -22 16 10 22 27 5 32 11 32 34 0 43 9 59
46 76 34 17 44 38 22 47 -10 4 -9 8 2 16 12 8 9 14 -15 33 l-29 23 29 6 c17 4
41 6 55 6 l25 -2 3 -355z m195 -262 l-6 -168 -28 0 c-16 0 -29 5 -29 11 0 5
-16 24 -35 42 -18 18 -39 45 -45 60 -6 17 -10 122 -10 258 0 183 3 231 13 235
10 4 13 19 9 54 l-4 49 63 3 64 3 7 -190 c4 -104 5 -265 1 -357z m1589 -565
c2 -16 1 -56 0 -91 l-4 -63 -121 3 -122 3 0 75 c0 68 2 75 20 76 42 2 49 7 20
14 -19 5 11 8 87 9 l117 1 3 -27z m216 -140 l-3 -168 -76 -3 c-41 -1 -86 1
-100 6 l-24 9 4 144 c1 79 7 149 12 155 5 6 6 14 2 17 -3 4 37 7 91 7 l96 0
-2 -167z m166 -246 c-3 -122 -7 -233 -10 -246 -5 -24 -15 -25 -119 -7 -11 2
-24 4 -29 5 -8 1 -4 163 10 378 7 104 3 100 95 95 l59 -4 -6 -221z m-431 83
l37 0 -1 -147 c-1 -211 7 -197 -119 -201 -159 -4 -150 -12 -150 117 0 59 3
135 6 169 l7 61 41 4 c22 3 64 3 91 1 28 -2 67 -4 88 -4z m254 -255 c-3 -41
-8 -79 -12 -85 -7 -11 -153 -14 -179 -4 -13 5 -16 22 -16 78 0 40 3 76 7 79 3
4 51 7 106 7 l100 0 -6 -75z m-2014 -483 c5 -52 6 -100 3 -108 -4 -11 -27 -14
-96 -14 l-90 0 1 63 c1 48 3 55 8 28 5 -28 12 -36 36 -43 50 -13 62 -3 61 50
-1 41 -4 48 -31 62 l-30 15 60 6 60 6 -62 1 c-47 2 -63 6 -63 16 0 11 16 14
68 12 l67 -1 8 -93z m6703 -137 c18 -5 23 -145 29 -864 3 -371 8 -677 10 -681
10 -16 -29 -19 -222 -17 l-198 2 3 295 c2 162 8 322 13 355 6 33 12 74 15 91
4 18 1 35 -5 38 -6 4 -11 28 -11 54 1 52 16 69 82 91 21 7 40 16 43 21 3 5
-18 17 -47 28 -44 17 -55 26 -67 56 -13 33 -12 41 2 72 19 39 21 98 6 163 -8
36 -7 51 7 79 14 30 15 42 4 93 -14 64 -7 109 15 109 8 0 15 4 15 9 0 5 10 11
23 13 25 5 266 -2 283 -7z m-5175 -38 c1 -7 0 -16 -1 -22 -3 -12 -3 -18 3 -77
3 -39 1 -47 -15 -51 -18 -5 -65 6 -100 24 -24 12 -28 11 -28 -7 0 -15 -10 -16
-86 -10 -60 5 -84 4 -79 -3 4 -8 -212 -11 -724 -11 l-731 0 0 80 0 80 632 3
c348 1 744 3 881 4 180 1 247 -2 248 -10z m834 -169 c7 -40 14 -478 7 -495 -6
-17 -163 -17 -208 -1 -29 10 -35 18 -44 62 -18 86 -30 265 -23 345 9 113 18
121 154 121 l108 0 6 -32z m-939 -742 c-1 -643 -8 -589 74 -576 35 6 38 8 15
9 -23 1 -27 3 -15 11 25 16 50 12 50 -10 0 -10 7 -23 16 -28 31 -17 -155 -21
-978 -21 l-818 0 0 39 0 40 218 2 c119 2 276 2 347 0 382 -6 493 -6 630 2
l150 9 2 339 c1 233 6 344 13 353 6 8 37 17 68 20 95 11 92 8 90 78 0 35 -3
48 -5 30 l-4 -33 -81 0 -81 0 6 118 c4 64 7 130 7 145 l0 28 82 -2 c55 -1 83
2 86 9 2 8 28 12 66 12 l63 0 -1 -574z m254 44 c29 -30 30 -30 42 -10 16 25
30 25 50 3 13 -14 16 -45 17 -144 1 -69 -1 -133 -5 -142 -8 -23 -47 -21 -69 3
-13 14 -22 17 -30 10 -21 -18 -46 72 -39 137 4 29 12 53 18 53 6 0 3 5 -6 11
-13 7 -18 23 -18 59 0 28 2 50 5 50 3 0 19 -14 35 -30z m3681 -42 c4 -127 6
-168 10 -195 5 -33 5 -33 -37 -33 -52 0 -92 14 -101 35 -6 18 22 44 48 45 9 0
24 9 33 19 17 19 16 21 -23 58 -46 43 -52 70 -18 77 55 12 63 14 75 15 6 0 12
-9 13 -21z m-2977 -213 c3 -8 6 -101 6 -207 l2 -193 -154 0 -153 0 1 171 c1
185 10 230 47 237 12 2 72 5 133 6 91 1 113 -2 118 -14z m2981 -224 c-3 -5 -1
-12 3 -15 5 -3 10 -35 11 -72 1 -37 4 -71 7 -76 3 -4 -28 -8 -69 -8 l-74 0 4
53 c7 79 22 107 58 107 16 0 37 5 45 10 19 12 23 12 15 1z"/>
<path d="M6613 9773 c-20 -4 -23 -11 -23 -51 l0 -47 85 0 85 0 0 46 c0 40 -3
48 -22 53 -25 6 -90 6 -125 -1z"/>
<path d="M3481 6603 c-13 -35 -91 -312 -91 -327 0 -5 6 -4 14 4 7 8 28 65 46
125 42 142 46 149 54 94 4 -24 14 -61 23 -81 13 -30 21 -38 42 -38 35 0 41 5
90 78 24 35 44 62 46 60 1 -2 -2 -37 -7 -78 -12 -103 -7 -174 13 -178 14 -2
17 18 22 149 4 84 5 154 3 157 -15 14 -54 -20 -102 -89 -31 -44 -61 -78 -68
-76 -18 6 -34 77 -35 155 -1 63 -3 72 -20 72 -11 0 -23 -11 -30 -27z"/>
<path d="M4342 6378 l3 -93 45 3 c69 6 102 48 65 86 -8 8 -15 27 -15 43 0 39
-17 53 -62 53 l-39 0 3 -92z"/>
<path d="M4492 6378 c2 -75 6 -93 18 -93 10 0 16 12 18 38 3 35 5 37 38 37 32
0 34 -2 34 -34 0 -21 6 -36 15 -40 13 -4 15 8 15 79 0 47 1 88 2 93 1 4 -6 8
-15 10 -13 3 -17 -4 -17 -32 0 -34 -2 -36 -35 -36 -33 0 -35 2 -35 35 0 29 -4
35 -20 35 -20 0 -21 -5 -18 -92z"/>
<path d="M4696 6384 c-27 -58 -36 -88 -29 -95 7 -7 15 -5 26 5 20 20 86 21
101 1 6 -8 16 -11 22 -7 8 5 -1 34 -29 95 -22 48 -43 87 -46 87 -3 -1 -24 -39
-45 -86z"/>
<path d="M4990 6380 c0 -83 1 -90 20 -90 16 0 20 7 20 35 0 33 2 35 35 35 33
0 35 -2 35 -35 0 -24 5 -35 14 -35 21 0 27 27 22 106 -4 52 -8 70 -20 72 -12
3 -16 -5 -16 -32 0 -34 -2 -36 -35 -36 -33 0 -35 2 -35 35 0 28 -4 35 -20 35
-19 0 -20 -7 -20 -90z"/>
<path d="M5196 6384 c-27 -58 -36 -88 -29 -95 7 -7 15 -5 26 5 21 21 76 20 99
-1 38 -35 37 2 -4 90 -23 48 -44 87 -47 87 -3 -1 -24 -39 -45 -86z"/>
<path d="M3798 6377 c-35 -29 -43 -60 -22 -81 13 -14 35 -16 115 -15 l99 2 0
26 c0 15 7 37 16 50 l16 23 28 -27 c23 -22 35 -26 71 -23 39 3 44 0 49 -21 3
-14 11 -26 18 -29 8 -2 12 13 12 52 0 43 -3 56 -15 56 -8 0 -15 -6 -15 -14 0
-17 -5 -21 -43 -30 -23 -5 -33 -1 -56 23 -23 25 -35 30 -67 28 -39 -3 -39 -3
-42 -49 l-3 -45 -63 -7 c-76 -8 -96 -2 -96 30 0 18 5 24 23 24 25 0 67 26 67
41 0 18 -65 9 -92 -14z"/>
</g>
</svg>
