<?xml version="1.0" standalone="no"?>
<!DOCTYPE svg PUBLIC "-//W3C//DTD SVG 20010904//EN"
 "http://www.w3.org/TR/2001/REC-SVG-20010904/DTD/svg10.dtd">
<svg version="1.0" xmlns="http://www.w3.org/2000/svg"
 width="720.000000pt" height="1280.000000pt" viewBox="0 0 720.000000 1280.000000"
 preserveAspectRatio="xMidYMid meet">
<metadata>
Created by potrace 1.16, written by Peter Selinger 2001-2019
</metadata>
<g transform="translate(0.000000,1280.000000) scale(0.100000,-0.100000)"
fill="#000000" stroke="none">
<path d="M0 6400 l0 -6400 3600 0 3600 0 0 1025 0 1025 -3590 0 -3590 0 0
3600 0 3600 3590 0 3590 0 0 1775 0 1775 -3600 0 -3600 0 0 -6400z m6797 3678
c152 -71 198 -271 93 -403 -27 -34 -28 -39 -14 -50 15 -11 15 -14 0 -37 -27
-41 -84 -49 -143 -21 -31 14 -42 15 -87 3 -28 -7 -73 -13 -100 -14 -42 -1 -51
3 -72 29 -22 28 -23 31 -7 42 15 12 15 15 -5 35 -55 60 -78 178 -50 269 23 77
103 146 195 168 51 13 139 3 190 -21z m-655 6 c52 -17 118 -78 145 -133 26
-54 23 -174 -4 -226 -50 -93 -120 -136 -233 -143 -63 -4 -85 -1 -128 18 -148
64 -203 241 -118 382 25 42 43 59 94 85 54 28 75 33 131 33 37 0 88 -7 113
-16z m-5801 -239 c21 -88 38 -166 38 -172 1 -8 -12 -13 -32 -13 -28 0 -34 4
-42 32 -9 29 -14 32 -50 31 -36 0 -40 -3 -47 -31 -8 -28 -13 -32 -42 -32 l-34
0 14 58 c7 31 26 110 41 175 l27 118 44 -3 45 -3 38 -160z m369 73 l1 -93 30
38 c23 27 39 37 60 37 16 0 29 -3 29 -6 0 -4 -16 -27 -35 -53 l-34 -47 21 -35
c11 -19 29 -49 40 -66 l20 -33 -36 0 c-30 0 -38 5 -57 40 -26 45 -39 43 -39
-6 0 -31 -2 -34 -30 -34 l-30 0 0 175 0 175 30 0 30 0 0 -92z m1740 -83 l0
-176 -42 1 c-24 1 -54 -1 -68 -5 -43 -11 -77 25 -85 88 -7 58 7 128 30 147 17
14 51 17 83 6 21 -7 22 -5 22 53 l0 61 30 0 30 0 0 -175z m452 83 l3 -92 25
37 c20 30 31 37 58 37 30 0 42 -12 24 -24 -5 -3 -21 -23 -36 -45 l-28 -39 34
-54 c19 -29 38 -59 42 -65 5 -10 -3 -13 -29 -13 -30 0 -39 5 -56 35 -27 45
-39 44 -39 -1 0 -34 -1 -35 -32 -32 l-33 3 -3 173 -2 172 34 0 35 0 3 -92z
m728 28 l0 -64 29 14 c31 15 77 6 93 -19 4 -7 8 -58 8 -114 l0 -103 -30 0 -30
0 0 90 c0 75 -3 92 -16 97 -37 14 -49 -10 -52 -101 l-3 -86 -29 0 -30 0 0 175
0 175 30 0 30 0 0 -64z m530 3 c0 -55 2 -60 18 -53 31 13 76 5 95 -17 13 -16
17 -40 17 -101 0 -71 -2 -81 -26 -105 -21 -21 -31 -24 -57 -18 -18 4 -49 6
-69 6 l-38 -2 0 176 0 175 30 0 30 0 0 -61z m-1480 -9 c0 -38 2 -40 30 -40 25
0 30 -4 30 -25 0 -21 -5 -25 -30 -25 l-31 0 3 -67 c3 -66 4 -68 31 -71 28 -3
31 -9 21 -36 -4 -11 -19 -16 -45 -16 -54 0 -69 25 -69 117 0 66 -2 73 -20 73
-15 0 -20 7 -20 25 0 18 5 25 20 25 17 0 20 7 20 40 0 38 2 40 30 40 28 0 30
-2 30 -40z m-2096 -61 c24 -23 34 -121 17 -172 -15 -44 -59 -66 -97 -48 -14 6
-27 11 -29 11 -3 0 -5 -30 -5 -66 l0 -65 -27 3 -28 3 -3 179 -2 179 38 -6 c22
-2 46 -1 53 4 19 11 60 1 83 -22z m405 20 c17 -6 36 -19 41 -29 6 -10 10 -62
10 -115 l0 -97 -32 3 c-18 1 -48 -1 -66 -5 -50 -12 -82 13 -82 64 0 44 20 64
83 81 28 7 37 15 35 27 -5 26 -48 28 -55 3 -6 -25 -51 -29 -60 -5 -8 21 28 67
58 75 35 10 33 10 68 -2z m290 0 c38 -14 51 -35 51 -88 l0 -41 -61 0 c-60 0
-60 0 -57 -27 3 -32 44 -46 54 -19 9 23 64 21 64 -2 0 -51 -67 -84 -124 -62
-45 17 -55 38 -56 116 0 78 20 119 63 127 12 2 25 5 28 6 3 0 20 -4 38 -10z
m198 0 c32 -12 43 -26 43 -56 0 -31 -45 -33 -53 -3 -7 26 -47 27 -47 1 0 -11
12 -23 30 -31 78 -32 101 -82 61 -131 -15 -19 -29 -24 -66 -24 -37 0 -51 5
-66 24 -28 34 -25 61 7 61 18 0 28 -6 31 -21 7 -25 46 -22 51 4 3 12 -9 23
-42 37 -76 32 -89 107 -23 135 39 17 39 17 74 4z m197 -3 c31 -13 53 -55 38
-71 -14 -14 -50 -3 -55 16 -4 13 -12 20 -24 17 -29 -5 -21 -32 15 -50 73 -36
92 -81 53 -129 -15 -19 -29 -24 -66 -24 -37 0 -51 5 -66 24 -29 36 -25 61 10
61 20 0 30 -6 34 -20 7 -28 47 -27 47 0 0 15 -13 26 -45 40 -73 31 -85 108
-21 136 39 17 40 17 80 0z m205 3 c17 -6 36 -19 41 -29 6 -10 10 -62 10 -115
l0 -97 -32 3 c-18 1 -48 -1 -66 -5 -50 -12 -82 13 -82 64 0 44 20 64 83 81 28
7 37 15 35 27 -5 25 -45 27 -58 3 -13 -24 -60 -29 -60 -6 0 32 25 66 54 74 42
12 39 12 75 0z m319 -22 c16 -15 22 -32 22 -64 l0 -43 -61 0 c-60 0 -60 0 -57
-27 3 -32 44 -46 54 -19 8 20 64 22 64 2 0 -69 -102 -98 -158 -45 -19 17 -22
31 -22 98 0 68 3 80 23 98 12 11 29 23 37 26 25 9 73 -4 98 -26z m1000 -3 c18
-21 22 -37 22 -89 0 -77 -13 -110 -50 -125 -35 -15 -93 -4 -116 21 -23 26 -31
128 -13 170 24 60 111 73 157 23z m232 16 c17 -17 20 -33 20 -125 l0 -105 -30
0 -30 0 0 90 c0 75 -3 92 -17 97 -32 12 -53 -32 -53 -113 l0 -74 -30 0 -30 0
0 120 0 120 29 0 c16 0 31 -5 33 -11 2 -6 14 -5 33 5 39 21 51 20 75 -4z m538
-13 c16 -15 22 -32 22 -64 l0 -43 -61 0 c-60 0 -60 0 -57 -27 3 -32 44 -46 54
-19 4 10 18 16 35 16 35 0 40 -29 9 -60 -27 -27 -63 -34 -105 -20 -46 15 -55
34 -55 123 0 64 3 76 23 94 12 11 29 23 37 26 25 8 74 -5 98 -26z m530 16 c18
-16 21 -32 24 -123 l3 -105 -32 -3 -33 -3 0 91 c0 72 -3 92 -15 96 -33 13 -45
-15 -45 -102 l0 -84 -35 0 -35 0 0 120 0 120 35 0 c19 0 35 -5 35 -11 0 -5 10
-3 22 5 29 21 51 20 76 -1z m227 -14 c17 -16 21 -35 23 -120 l4 -100 -44 1
c-23 1 -54 -1 -68 -5 -34 -9 -80 27 -80 61 0 42 17 62 70 79 37 12 50 22 50
36 0 26 -36 25 -52 -1 -13 -20 -52 -27 -62 -12 -10 17 29 76 54 83 36 10 82 0
105 -22z m394 20 c36 -13 61 -53 61 -99 l0 -30 -59 0 c-65 0 -73 -5 -64 -38 6
-26 48 -31 57 -7 3 9 18 15 36 15 28 0 31 -3 25 -22 -4 -13 -18 -34 -33 -47
-21 -19 -33 -22 -66 -18 -61 8 -86 43 -86 117 0 73 16 109 55 126 37 16 35 16
74 3z m204 -3 c15 -8 27 -11 27 -5 0 5 14 9 31 9 l30 0 -3 -154 c-3 -134 -5
-157 -22 -175 -42 -46 -144 -35 -166 19 -7 16 -9 34 -5 39 10 18 44 12 57 -9
27 -42 78 -15 78 41 0 18 -3 20 -12 11 -7 -7 -29 -12 -49 -12 -56 0 -79 34
-79 116 0 72 13 107 44 122 29 14 37 14 69 -2z m282 -17 c17 -16 21 -36 23
-120 l4 -100 -44 1 c-23 1 -54 -1 -68 -5 -36 -9 -80 27 -80 66 0 28 30 69 50
69 6 0 26 7 45 14 25 11 33 19 29 30 -9 22 -41 20 -56 -4 -18 -29 -58 -27 -58
3 0 68 101 98 155 46z m-3045 -99 l0 -120 -35 0 -35 0 0 113 c0 63 3 117 7
120 3 4 19 7 35 7 l28 0 0 -120z m2280 63 c19 -90 25 -92 45 -14 18 68 20 71
48 71 28 0 29 -2 23 -33 -3 -19 -25 -99 -49 -178 l-42 -144 -34 -3 c-28 -3
-32 -1 -28 15 31 106 31 95 -3 209 -18 60 -35 115 -38 122 -3 8 7 12 30 12 34
0 35 -1 48 -57z"/>
<path d="M6613 9773 c-20 -4 -23 -11 -23 -51 l0 -47 85 0 85 0 0 46 c0 40 -3
48 -22 53 -25 6 -90 6 -125 -1z"/>
<path d="M3455 6024 c-148 -23 -290 -103 -392 -220 -36 -43 -50 -67 -50 -89 0
-33 -43 -134 -74 -173 -10 -14 -19 -38 -19 -55 0 -25 2 -28 15 -17 17 14 17
14 32 -14 9 -16 4 -24 -23 -48 -19 -17 -34 -39 -34 -50 0 -17 7 -13 46 21 60
52 73 53 71 1 -1 -31 -5 -40 -19 -40 -14 0 -18 -8 -18 -34 0 -19 -3 -41 -6
-50 -7 -19 -40 -21 -48 -3 -4 6 -4 -4 -2 -24 2 -20 21 -71 41 -114 29 -61 56
-96 119 -160 127 -128 256 -184 429 -188 l92 -2 -1 72 c0 39 3 70 8 67 4 -3 8
-34 8 -70 l0 -65 38 5 c50 6 158 46 218 81 27 16 80 59 118 97 62 62 67 70 52
81 -15 11 -15 15 -4 24 7 6 22 13 33 15 15 2 20 11 20 33 0 20 6 31 17 33 9 2
21 17 27 35 10 28 9 33 -11 49 -13 10 -32 18 -43 18 -11 0 -37 6 -57 13 -30
10 -35 16 -26 25 9 9 10 17 1 30 -7 13 -8 24 -1 36 13 23 -4 36 -45 36 -18 0
-39 -11 -58 -30 -53 -52 -70 -60 -135 -60 -66 0 -114 16 -153 49 -13 12 -31
21 -38 21 -8 0 -35 18 -60 40 -25 22 -51 40 -57 40 -13 0 -38 49 -30 61 3 5 0
9 -5 9 -22 0 -10 64 26 138 20 42 36 82 36 89 0 18 49 27 157 28 52 0 107 6
123 13 23 10 27 17 27 51 0 47 -14 63 -75 86 -25 10 -45 20 -45 23 0 3 13 17
28 32 l29 27 -31 12 c-32 13 -198 23 -251 15z"/>
<path d="M3903 5838 c-21 -18 -39 -33 -41 -34 -1 0 1 -15 4 -32 5 -25 10 -30
28 -26 11 2 31 -1 43 -7 28 -15 53 -5 53 21 0 13 4 18 11 14 6 -3 9 -15 6 -25
-4 -15 -2 -17 12 -9 42 22 42 35 -1 83 -22 26 -49 47 -59 47 -10 0 -35 -14
-56 -32z"/>
<path d="M3780 5510 c-8 -5 -43 -10 -77 -10 -49 0 -63 -3 -63 -15 0 -8 16 -19
40 -25 25 -7 37 -15 34 -23 -8 -21 38 -54 84 -61 41 -6 43 -5 63 28 11 19 29
38 40 41 32 10 16 29 -37 44 -27 7 -50 17 -52 22 -5 11 -13 11 -32 -1z"/>
</g>
</svg>
