<?xml version="1.0" standalone="no"?>
<!DOCTYPE svg PUBLIC "-//W3C//DTD SVG 20010904//EN"
 "http://www.w3.org/TR/2001/REC-SVG-20010904/DTD/svg10.dtd">
<svg version="1.0" xmlns="http://www.w3.org/2000/svg"
 width="720.000000pt" height="1280.000000pt" viewBox="0 0 720.000000 1280.000000"
 preserveAspectRatio="xMidYMid meet">
<metadata>
Created by potrace 1.16, written by Peter Selinger 2001-2019
</metadata>
<g transform="translate(0.000000,1280.000000) scale(0.100000,-0.100000)"
fill="#000000" stroke="none">
<path d="M0 6400 l0 -6400 3600 0 3600 0 0 2040 0 2040 -40 0 c-34 0 -40 -3
-40 -21 0 -11 4 -18 9 -15 5 4 7 -3 4 -14 -3 -11 -11 -20 -18 -20 -9 0 -11 20
-7 75 4 65 2 75 -12 75 -12 0 -16 10 -16 40 l0 40 60 0 60 0 0 4280 0 4280
-3600 0 -3600 0 0 -6400z m6795 3679 c153 -68 201 -271 95 -404 -27 -34 -28
-39 -14 -50 24 -17 -1 -53 -48 -67 -30 -9 -45 -8 -80 5 -34 13 -55 15 -98 8
-30 -5 -63 -13 -73 -16 -52 -21 -136 35 -106 71 10 12 8 19 -9 37 -85 90 -82
268 6 360 77 82 216 105 327 56z m-623 -7 c154 -76 182 -300 53 -425 -69 -67
-215 -88 -310 -43 -147 68 -196 236 -111 379 25 42 43 58 96 85 61 32 70 34
145 30 58 -2 93 -10 127 -26z m-5863 -99 c15 -56 71 -300 71 -307 0 -3 -15 -6
-33 -6 -28 0 -34 4 -42 32 -9 29 -14 32 -50 31 -36 0 -40 -3 -47 -31 -8 -28
-13 -32 -42 -32 l-34 0 14 58 c7 31 26 110 41 175 l27 117 43 0 c40 0 43 -2
52 -37z m401 -55 l1 -93 30 38 c23 27 39 37 60 37 16 0 29 -3 29 -6 0 -4 -16
-27 -35 -53 l-34 -47 21 -35 c11 -19 29 -49 40 -66 l20 -33 -36 0 c-30 0 -38
5 -57 40 -26 45 -39 43 -39 -6 0 -31 -2 -34 -30 -34 l-30 0 0 175 0 175 30 0
30 0 0 -92z m1740 -83 l0 -176 -42 1 c-24 1 -55 -1 -69 -5 -19 -5 -33 -1 -55
18 -28 24 -29 29 -28 107 1 68 5 85 21 102 22 21 54 27 91 14 21 -7 22 -5 22
53 l0 61 30 0 30 0 0 -175z m452 83 l3 -92 25 37 c20 30 31 37 58 37 30 0 42
-12 24 -24 -5 -3 -21 -23 -36 -44 l-27 -40 41 -66 41 -67 -38 3 c-32 3 -41 9
-58 40 -26 49 -35 48 -35 -2 0 -39 -1 -40 -35 -40 l-35 0 0 168 c0 93 3 172 7
175 3 4 19 7 34 7 l28 0 3 -92z m728 28 l0 -65 35 15 c28 11 40 12 58 3 34
-18 37 -27 37 -136 l0 -103 -30 0 -30 0 0 90 c0 75 -3 92 -16 97 -37 14 -49
-10 -52 -101 l-3 -86 -29 0 -30 0 0 175 0 175 30 0 30 0 0 -64z m530 3 c0 -58
1 -60 23 -53 76 26 107 -8 107 -118 0 -71 -2 -81 -26 -105 -21 -21 -31 -24
-57 -18 -18 4 -49 6 -69 6 l-38 -2 0 176 0 175 30 0 30 0 0 -61z m-1482 -11
c3 -35 6 -38 33 -38 24 0 29 -4 29 -25 0 -21 -5 -25 -30 -25 l-31 0 3 -67 c3
-66 4 -68 31 -71 21 -3 27 -8 23 -19 -3 -8 -6 -19 -6 -24 0 -16 -73 -10 -92 8
-14 13 -18 31 -18 90 0 66 -2 75 -20 80 -13 3 -20 14 -20 29 0 17 6 24 20 24
17 0 20 7 20 41 0 38 1 40 28 37 23 -3 27 -8 30 -40z m-2094 -58 c24 -24 34
-122 17 -173 -15 -44 -59 -66 -97 -48 -14 6 -27 11 -29 11 -3 0 -5 -29 -5 -65
l0 -65 -30 0 -30 0 0 181 0 182 39 -6 c21 -2 45 -1 52 4 19 12 60 2 83 -21z
m402 20 c8 0 23 -9 34 -20 17 -17 20 -33 20 -120 l0 -100 -47 -1 c-27 0 -60
-1 -75 -1 -40 -1 -58 19 -58 63 0 43 20 63 83 80 28 7 37 15 35 27 -5 25 -45
27 -58 3 -11 -22 -44 -28 -55 -10 -4 5 -1 23 5 40 12 29 59 52 88 43 8 -2 20
-4 28 -4z m293 -1 c38 -14 51 -35 51 -88 l0 -41 -61 0 c-60 0 -60 0 -57 -27 3
-32 44 -46 54 -19 4 10 18 16 35 16 35 0 39 -25 10 -61 -27 -34 -99 -34 -135
0 -23 22 -26 32 -26 96 0 76 14 109 54 125 29 12 38 12 75 -1z m201 1 c17 0
40 -32 40 -56 0 -19 -5 -24 -24 -24 -16 0 -26 7 -29 21 -4 13 -12 20 -24 17
-31 -6 -27 -34 7 -48 78 -32 101 -82 61 -131 -40 -50 -151 -22 -151 38 0 19 5
23 30 23 24 0 30 -4 30 -21 0 -15 5 -20 23 -17 37 5 26 36 -23 60 -55 28 -72
65 -49 106 14 26 58 44 87 36 8 -2 17 -4 22 -4z m217 -14 c6 -6 13 -22 15 -36
2 -21 -2 -26 -23 -28 -20 -2 -28 2 -32 18 -4 14 -12 21 -24 18 -29 -5 -21 -32
15 -50 73 -36 92 -81 53 -129 -15 -19 -29 -24 -66 -24 -37 0 -51 5 -66 24 -29
36 -25 61 10 61 21 0 30 -6 34 -21 7 -25 40 -22 45 4 3 12 -9 23 -42 37 -51
21 -70 54 -60 97 12 45 104 65 141 29z m182 13 c17 -6 36 -19 41 -29 6 -10 10
-62 10 -115 l0 -97 -32 3 c-18 1 -48 -1 -66 -5 -50 -12 -82 13 -82 64 0 44 20
64 83 81 28 7 37 15 35 27 -5 25 -45 27 -58 3 -16 -30 -60 -29 -60 2 1 28 20
54 51 66 32 13 40 13 78 0z m288 1 c27 0 53 -43 53 -87 l0 -43 -61 0 c-60 0
-60 0 -57 -27 3 -32 44 -46 54 -19 8 22 64 22 64 0 0 -69 -100 -95 -157 -42
-20 19 -23 32 -23 98 0 67 3 79 23 97 28 26 47 33 72 28 11 -3 25 -5 32 -5z
m1031 -26 c19 -21 22 -36 22 -99 0 -70 -1 -74 -32 -100 -27 -23 -39 -26 -71
-22 -59 8 -80 35 -85 107 -3 36 1 72 9 91 24 60 111 73 157 23z m240 9 c8 -11
12 -53 12 -120 l0 -103 -30 0 -30 0 0 90 c0 75 -3 92 -17 97 -32 12 -53 -32
-53 -113 l0 -74 -30 0 -30 0 0 120 0 120 29 0 c16 0 31 -5 33 -12 3 -8 11 -7
29 5 27 20 67 15 87 -10z m530 -9 c15 -17 22 -38 22 -65 l0 -39 -61 0 c-60 0
-60 0 -57 -27 3 -32 44 -46 54 -19 4 10 18 16 35 16 35 0 40 -29 9 -60 -27
-27 -63 -34 -105 -20 -46 15 -55 34 -55 123 0 64 3 76 23 94 12 11 29 23 37
26 28 11 75 -3 98 -29z m542 10 c11 -11 15 -39 15 -117 l0 -102 -32 -3 -33 -3
0 91 c0 72 -3 92 -15 96 -33 13 -45 -15 -45 -102 l0 -84 -35 0 -35 0 0 120 0
120 35 0 c19 0 35 -4 35 -9 0 -6 12 -3 28 4 29 16 58 12 82 -11z m218 -10 c19
-22 22 -36 22 -120 l0 -95 -42 1 c-24 1 -54 -1 -68 -5 -35 -9 -80 27 -80 64 0
39 19 60 70 75 33 10 46 19 48 35 4 28 -33 29 -48 1 -10 -19 -49 -28 -63 -14
-3 3 -1 19 5 36 21 60 111 73 156 22z m391 25 c36 -13 61 -53 61 -99 l0 -30
-59 0 c-63 0 -76 -8 -66 -40 8 -24 55 -28 55 -5 0 11 11 15 36 15 32 0 35 -2
29 -22 -13 -43 -42 -63 -90 -63 -65 0 -88 27 -93 107 -5 79 9 115 50 133 41
17 38 17 77 4z m204 -3 c15 -8 27 -11 27 -5 0 5 14 9 31 9 l30 0 -3 -154 c-3
-134 -5 -157 -22 -175 -42 -46 -144 -35 -166 19 -14 35 -7 50 25 50 15 0 26
-7 30 -20 8 -26 51 -27 65 -1 5 11 10 30 10 42 0 18 -3 20 -12 11 -7 -7 -29
-12 -49 -12 -56 0 -79 34 -79 116 0 72 13 107 44 122 29 14 37 14 69 -2z m285
-22 c19 -22 22 -36 22 -120 l0 -95 -42 1 c-24 1 -54 -1 -68 -5 -36 -9 -80 27
-80 65 0 27 32 70 52 70 5 0 24 7 43 14 25 11 33 19 29 30 -9 22 -41 20 -56
-4 -13 -20 -52 -27 -62 -12 -10 16 29 76 54 84 40 11 83 0 108 -28z m-3048
-94 l0 -120 -35 0 -35 0 0 113 c0 63 3 117 7 120 3 4 19 7 35 7 l28 0 0 -120z
m2280 63 c19 -90 25 -92 45 -14 18 67 21 71 47 71 20 0 28 -5 27 -17 0 -10
-21 -90 -47 -178 l-47 -160 -33 -3 c-29 -3 -33 -1 -29 15 30 103 30 93 -2 206
-17 58 -34 113 -37 122 -5 12 2 15 28 15 34 0 35 -1 48 -57z m-1160 -1688 c0
-97 4 -155 10 -155 6 0 10 -9 10 -20 0 -11 5 -20 11 -20 17 0 1 -342 -17 -356
-8 -6 -14 -23 -14 -37 0 -15 -10 -47 -22 -72 -20 -41 -21 -49 -9 -78 16 -37
16 -77 0 -164 -13 -71 -29 -75 -29 -7 0 24 -4 44 -8 44 -16 0 -32 -25 -32 -49
0 -29 -59 -161 -72 -161 -4 0 -8 -7 -8 -15 0 -14 -18 -53 -30 -65 -3 -3 -16
-25 -29 -50 -13 -25 -37 -59 -52 -75 -16 -17 -29 -36 -29 -43 0 -7 -4 -12 -10
-12 -14 0 -13 7 16 69 14 31 32 70 39 86 8 17 17 46 21 65 3 19 12 46 19 60
20 38 53 180 79 341 8 49 24 104 37 126 15 27 20 46 15 59 -8 19 -8 19 -17 -1
-11 -25 -1 84 12 136 5 20 11 119 14 220 3 101 8 217 11 257 l6 72 39 0 39 0
0 -155z m764 -551 c3 -9 6 -29 6 -45 0 -31 20 -58 58 -78 20 -10 22 -9 22 11
1 24 29 82 30 61 0 -12 54 -73 65 -73 3 0 1 10 -6 21 -9 17 -8 20 3 17 7 -3
19 2 26 11 8 9 11 10 7 4 -4 -9 -1 -11 9 -7 9 3 13 11 9 18 -4 6 1 5 10 -3 9
-7 15 -17 12 -21 -3 -4 2 -10 10 -14 8 -3 15 -2 15 2 0 4 7 15 15 26 13 17 15
17 29 3 9 -9 16 -18 16 -22 0 -10 27 -35 38 -35 5 0 14 12 20 26 16 34 32 21
32 -27 0 -41 12 -49 36 -24 24 23 44 18 44 -10 0 -25 19 -36 21 -12 0 6 5 0
11 -16 5 -15 14 -24 20 -21 6 4 5 10 -3 15 -10 6 -10 9 -2 9 29 0 22 -21 -29
-92 -20 -28 -2 -32 37 -9 48 28 61 27 78 -9 15 -29 14 -31 -15 -55 -16 -14
-38 -25 -49 -25 -10 0 -19 -7 -19 -15 0 -10 10 -15 30 -15 17 0 30 5 30 10 0
6 9 10 21 10 15 0 19 -4 15 -16 -3 -9 -6 -19 -6 -24 0 -14 -61 -70 -77 -70
-22 0 -11 -34 12 -37 20 -3 20 -3 1 5 -19 8 -18 9 4 15 13 3 31 2 39 -4 12 -8
10 -8 -8 -3 -15 4 -21 2 -17 -4 7 -11 -47 -42 -74 -42 -9 0 -21 -5 -28 -12 -9
-9 -12 -9 -12 0 0 20 -48 14 -60 -8 -7 -14 -7 -20 0 -20 14 0 12 -37 -4 -85
-12 -34 -20 -42 -52 -50 -28 -7 -39 -6 -42 3 -2 7 -15 12 -28 12 -21 0 -29 10
-25 33 0 4 -7 7 -17 7 -26 0 -22 -38 6 -61 25 -20 29 -39 7 -39 -8 0 -15 -8
-15 -17 0 -15 -4 -13 -19 7 -15 18 -22 21 -33 13 -7 -6 -48 -14 -90 -18 -70
-7 -97 -17 -68 -27 6 -2 1 -9 -11 -16 -18 -12 -20 -11 -16 5 16 59 17 73 4 73
-8 0 -26 -12 -41 -27 -33 -33 -70 -52 -114 -59 -26 -4 -33 -2 -30 8 3 7 13 15
24 17 58 10 51 50 -10 52 -22 1 -33 3 -23 6 25 6 21 37 -9 72 -21 25 -33 31
-65 31 -21 0 -39 -4 -39 -10 0 -22 -16 -8 -26 23 -7 17 -18 47 -25 64 -11 27
-11 39 0 69 7 20 10 50 7 69 -6 33 -5 35 43 63 47 27 50 30 36 48 -19 26 -19
32 5 39 11 3 20 12 20 18 0 7 9 19 20 27 21 15 28 50 9 50 -6 0 -4 7 5 15 9 9
33 15 60 15 27 0 46 5 46 11 0 11 17 9 68 -6 18 -6 21 -4 16 9 -4 10 -13 15
-21 12 -8 -3 -12 -2 -9 3 3 5 -4 37 -15 71 -11 34 -18 69 -15 76 7 19 52 18
60 -2z m-481 -831 c-13 -27 -29 -52 -34 -57 -5 -6 -9 -17 -9 -25 0 -10 15 1
38 26 32 37 43 43 82 45 25 2 50 10 57 18 11 13 12 12 13 -5 0 -15 2 -17 9 -7
6 10 19 12 52 5 35 -7 45 -13 47 -31 3 -16 -4 -25 -22 -32 -26 -9 -31 -24 -20
-54 5 -13 25 -16 114 -16 60 0 111 -4 114 -8 8 -14 -10 -33 -34 -35 -13 -1
-25 -9 -28 -19 -2 -11 -14 -18 -28 -18 -13 0 -24 -3 -24 -7 0 -5 -30 -8 -68
-9 -55 0 -78 -6 -127 -32 -79 -42 -95 -42 -95 3 0 26 9 45 36 75 35 38 38 40
55 24 17 -16 18 -15 7 17 -30 90 -29 89 -64 89 -20 0 -34 5 -34 13 0 6 -5 4
-11 -7 -6 -10 -20 -27 -30 -37 -11 -11 -19 -28 -19 -39 0 -12 -12 -26 -30 -35
-16 -9 -30 -20 -30 -25 0 -19 -39 -10 -45 10 -3 11 -14 20 -23 20 -32 0 -45
-39 -43 -129 2 -83 3 -87 37 -121 45 -47 45 -75 0 -31 -18 18 -42 34 -52 35
-13 2 -20 13 -22 36 -3 32 -34 69 -59 70 -19 0 -50 47 -58 87 -6 31 -3 40 15
55 12 10 40 21 61 24 32 5 40 12 46 33 3 14 10 32 16 39 5 6 6 12 1 12 -5 0 2
8 16 17 17 12 25 13 28 5 2 -7 13 -17 24 -23 16 -9 19 -8 12 3 -6 11 -5 10 9
-1 17 -14 19 -13 122 79 23 20 22 7 -2 -37z m1797 -699 c0 -6 11 -33 25 -59
13 -27 22 -51 20 -54 -8 -7 -34 32 -35 51 0 28 -20 31 -20 4 0 -14 -4 -26 -10
-26 -5 0 -11 -17 -11 -37 -1 -24 -3 -29 -6 -15 -5 26 -40 30 -46 5 -2 -10 -2
-1 0 20 3 23 1 37 -6 37 -6 0 -11 9 -11 20 0 11 -4 20 -10 20 -5 0 -10 23 -10
50 0 38 4 50 15 50 8 0 15 7 15 15 0 10 17 -1 45 -27 25 -23 45 -47 45 -54z
m-4480 -1029 l0 -85 75 0 75 0 0 -38 c0 -22 3 -94 7 -160 l6 -122 -161 0 -162
0 0 -84 c0 -58 4 -86 13 -89 6 -3 -70 -6 -170 -6 -116 -1 -183 3 -183 9 0 6
-30 10 -70 10 l-70 0 0 160 0 160 79 0 79 0 7 80 7 80 154 0 154 0 0 79 c0 90
-5 86 108 90 l52 1 0 -85z m1044 -719 c3 -22 10 -70 15 -106 10 -65 6 -79 -25
-80 -7 0 -15 -7 -18 -16 -3 -9 -15 -14 -28 -12 -51 7 -21 88 38 102 13 4 24
11 24 17 0 6 -4 8 -9 4 -6 -3 -15 4 -21 15 -6 11 -15 18 -19 15 -5 -2 -11 9
-15 26 -9 47 -7 66 7 81 7 7 17 22 21 33 8 18 9 17 17 -9 4 -16 10 -47 13 -70z
m37 -273 c1 -35 2 -36 10 -13 7 19 8 14 5 -22 -2 -30 2 -55 11 -68 8 -11 17
-37 19 -58 11 -87 24 -155 32 -165 5 -7 12 -39 16 -71 4 -33 10 -64 15 -70 5
-6 11 -46 14 -89 5 -66 3 -78 -9 -73 -10 4 -14 -2 -14 -19 0 -14 4 -25 10 -25
5 0 8 -12 6 -27 -2 -16 -1 -22 1 -14 3 8 11 21 18 28 17 16 20 6 30 -82 4 -33
14 -79 22 -103 8 -24 12 -53 10 -65 -3 -15 -5 -11 -7 13 l-2 35 -11 -35 c-11
-35 -11 -35 -15 -7 -5 39 -17 33 -20 -11 -1 -20 -12 -50 -23 -65 -16 -22 -20
-40 -17 -78 2 -41 1 -47 -9 -32 -7 9 -13 33 -13 52 -1 20 -7 62 -15 94 -7 33
-11 65 -8 74 4 9 -2 16 -16 20 -18 5 -21 13 -21 62 0 39 -6 65 -20 86 -18 28
-19 41 -13 166 6 133 6 136 -16 142 -18 4 -21 12 -21 53 0 31 -6 54 -17 66
-15 16 -15 25 -5 64 7 24 12 79 12 122 0 120 8 152 36 152 21 0 24 -5 25 -37z"/>
<path d="M6613 9773 c-20 -4 -23 -11 -23 -51 l0 -47 85 0 85 0 0 46 c0 40 -3
48 -22 53 -25 6 -90 6 -125 -1z"/>
</g>
</svg>
