<?xml version="1.0" standalone="no"?>
<!DOCTYPE svg PUBLIC "-//W3C//DTD SVG 20010904//EN"
 "http://www.w3.org/TR/2001/REC-SVG-20010904/DTD/svg10.dtd">
<svg version="1.0" xmlns="http://www.w3.org/2000/svg"
 width="720.000000pt" height="1280.000000pt" viewBox="0 0 720.000000 1280.000000"
 preserveAspectRatio="xMidYMid meet">
<metadata>
Created by potrace 1.16, written by Peter Selinger 2001-2019
</metadata>
<g transform="translate(0.000000,1280.000000) scale(0.100000,-0.100000)"
fill="#000000" stroke="none">
<path d="M0 6400 l0 -6400 3600 0 3600 0 0 1924 0 1923 -127 7 c-79 4 -188 2
-283 -6 -85 -7 -270 -13 -410 -13 -503 0 -2208 15 -2335 21 -128 6 -309 9
-657 12 l-178 2 0 33 c0 18 5 38 11 44 11 11 -110 7 -165 -6 -26 -6 -30 -11
-30 -46 l-1 -38 -335 -3 c-254 -3 -363 0 -450 11 -63 8 -116 20 -118 25 -2 6
-10 10 -17 10 -7 0 -31 24 -53 53 -36 48 -46 54 -116 75 -42 13 -74 28 -70 33
3 5 0 9 -5 9 -6 0 -11 5 -11 10 0 6 7 10 16 10 8 0 22 7 30 15 9 9 25 13 38 9
16 -4 25 0 30 11 3 9 10 13 16 10 11 -7 12 -3 14 110 3 106 18 399 21 403 1 2
33 4 71 5 l69 2 -2 -237 -3 -238 33 0 c34 1 97 29 65 30 -21 0 -27 19 -29 106
-2 60 1 76 19 99 12 15 26 24 32 20 5 -3 10 0 10 7 0 7 4 19 9 27 7 11 14 11
40 -2 17 -9 40 -14 51 -12 11 2 23 -1 27 -7 16 -27 22 41 22 278 1 288 -8 264
102 264 59 0 69 3 69 18 0 11 -9 18 -27 19 -47 3 -235 -20 -223 -27 19 -12
-312 -20 -787 -20 -260 0 -453 4 -453 9 0 9 -46 18 -125 25 -22 2 -75 11 -118
20 -43 9 -91 15 -105 15 -26 -1 -26 -2 3 -8 23 -5 31 -12 33 -32 l3 -26 -238
-4 c-131 -2 -305 -4 -388 -4 l-150 0 0 105 0 105 315 2 c310 2 569 -8 663 -25
26 -5 47 -5 47 0 0 4 -5 8 -12 8 -9 0 -9 3 -1 11 8 8 25 8 63 -1 44 -10 54
-10 61 1 7 11 -5 15 -60 17 -55 2 -70 6 -73 20 -3 9 -6 178 -7 375 -2 262 0
357 9 357 6 0 8 5 5 10 -4 6 -1 17 5 25 9 11 9 15 1 15 -24 0 -9 18 21 26 l33
8 -32 3 c-38 5 -43 18 -10 28 l22 7 -25 7 c-24 6 -25 11 -25 76 0 65 1 69 25
76 41 11 148 10 156 -2 3 -6 6 -39 4 -73 -1 -33 -1 -86 0 -116 2 -30 4 -232 7
-447 l4 -393 -23 0 c-21 -1 -21 -2 -5 -11 22 -13 63 -8 60 8 -1 6 12 14 30 18
30 6 31 7 10 15 -34 14 -45 73 -39 223 2 73 5 144 5 158 1 37 44 72 99 80 42
7 41 7 -20 6 -86 -2 -83 -7 -93 156 -5 83 -3 98 10 103 14 6 14 8 -1 18 -15
11 -16 29 -9 164 9 187 5 182 147 182 l97 0 3 -176 c2 -97 2 -177 0 -179 -3
-3 -6 -343 -4 -464 1 -46 4 -82 7 -79 3 3 8 169 11 368 3 251 8 368 16 377 8
10 30 13 77 11 l66 -3 0 -495 0 -495 83 -3 c52 -2 81 1 78 7 -4 5 3 12 14 16
26 8 25 16 -2 45 l-23 25 2 515 1 515 114 0 113 0 3 -564 2 -564 46 7 c26 3
109 6 184 6 l138 0 -4 63 c-2 34 -7 115 -10 179 -5 96 -8 115 -19 105 -7 -7
-9 -13 -4 -15 5 -2 8 -16 8 -30 -2 -23 -2 -24 -6 -5 -4 19 -7 21 -29 11 -13
-6 -24 -16 -24 -22 0 -6 -5 -3 -11 7 -6 9 -14 15 -20 12 -5 -4 -10 70 -11 187
-3 231 0 320 12 332 5 5 30 10 57 11 26 2 51 4 56 4 4 1 7 109 7 242 l0 241
-347 -7 c-319 -7 -352 -6 -393 10 -25 10 -52 24 -61 32 -24 20 -39 16 -39 -13
l0 -27 -772 5 -773 5 -8 94 c-4 52 -5 522 -1 1044 3 523 6 1000 5 1060 -1 134
8 245 20 245 5 0 9 -8 9 -17 0 -15 2 -16 10 -3 6 10 6 16 0 18 -13 5 -13 32 0
32 6 0 10 23 10 51 0 56 15 79 53 79 23 0 25 3 26 55 l0 55 -42 2 c-220 10
1071 15 3811 17 l3272 1 0 1775 0 1775 -3600 0 -3600 0 0 -6400z m6786 3682
c159 -63 211 -265 105 -407 -25 -34 -27 -41 -14 -50 24 -18 0 -52 -48 -67 -33
-9 -47 -9 -72 2 -36 16 -116 15 -165 -1 -47 -15 -97 -4 -117 27 -13 20 -14 28
-4 40 10 12 8 19 -9 37 -37 39 -62 108 -62 171 0 78 16 128 58 176 79 93 205
120 328 72z m-643 2 c52 -18 116 -76 142 -130 60 -126 7 -282 -117 -344 -139
-69 -312 -20 -376 106 -42 84 -38 184 12 267 25 41 43 58 94 84 54 28 75 33
131 33 37 0 88 -7 114 -16z m-5806 -224 c52 -224 51 -200 11 -200 -31 0 -36 4
-41 30 -6 27 -11 30 -42 30 -19 0 -38 0 -42 1 -4 0 -11 -14 -16 -30 -7 -27
-12 -31 -41 -31 l-34 0 14 58 c7 31 26 110 41 175 l27 118 44 -3 45 -3 34
-145z m373 58 l1 -93 30 38 c23 27 39 37 60 37 16 0 29 -3 29 -6 0 -4 -16 -28
-35 -54 l-34 -47 28 -45 c56 -89 56 -88 17 -88 -30 0 -38 5 -57 40 -26 45 -39
43 -39 -6 0 -31 -2 -34 -30 -34 l-30 0 0 175 0 175 30 0 30 0 0 -92z m1740
-83 l0 -176 -42 1 c-24 1 -54 -1 -68 -5 -43 -11 -77 25 -85 88 -7 58 7 128 30
147 17 14 51 17 83 6 21 -7 22 -5 22 53 l0 61 30 0 30 0 0 -175z m452 83 l3
-92 25 37 c20 30 31 37 58 37 30 0 42 -12 24 -24 -5 -3 -21 -23 -36 -44 l-27
-40 40 -66 41 -66 -35 0 c-30 0 -39 6 -62 43 l-28 42 -3 -42 c-3 -42 -4 -43
-38 -43 l-34 0 0 168 c0 93 3 172 7 175 3 4 19 7 34 7 l28 0 3 -92z m728 27
l0 -66 30 16 c33 17 60 13 85 -11 11 -12 15 -40 15 -120 l0 -104 -30 0 -29 0
-3 92 c-3 83 -5 93 -22 96 -33 7 -46 -25 -46 -110 l0 -78 -30 0 -30 0 0 175 0
175 30 0 30 0 0 -65z m530 4 c0 -58 1 -60 23 -53 76 26 107 -8 107 -118 0 -71
-2 -81 -26 -105 -20 -20 -31 -24 -52 -18 -15 4 -46 6 -69 5 l-43 -1 0 176 0
175 30 0 30 0 0 -61z m-1480 -9 c0 -38 2 -40 30 -40 25 0 30 -4 30 -25 0 -21
-5 -25 -30 -25 l-31 0 3 -67 c3 -66 4 -68 31 -71 21 -3 27 -8 23 -19 -3 -8 -6
-19 -6 -24 0 -16 -73 -10 -92 8 -14 13 -18 31 -18 90 0 66 -2 75 -20 80 -13 3
-20 14 -20 29 0 17 6 24 20 24 17 0 20 7 20 40 0 38 2 40 30 40 28 0 30 -2 30
-40z m-2096 -61 c24 -23 34 -121 17 -172 -15 -44 -59 -66 -97 -48 -14 6 -27
11 -29 11 -3 0 -5 -30 -5 -66 l0 -65 -27 3 -28 3 -3 179 -2 179 37 -5 c21 -3
47 -2 58 3 26 10 55 2 79 -22z m402 21 c8 0 23 -9 34 -20 17 -17 20 -33 20
-121 l0 -101 -32 3 c-18 1 -48 -1 -66 -5 -50 -12 -82 13 -82 64 0 44 20 64 83
81 28 7 37 15 35 27 -5 26 -48 28 -55 3 -6 -25 -51 -29 -60 -5 -13 34 56 90
95 78 8 -2 20 -4 28 -4z m290 0 c39 -15 53 -39 54 -87 l0 -43 -61 0 c-60 0
-60 0 -57 -27 3 -32 44 -46 54 -19 4 10 18 16 35 16 35 0 39 -25 10 -61 -27
-34 -99 -34 -135 0 -23 22 -26 32 -26 96 0 79 20 120 63 128 12 2 25 5 29 6 4
0 19 -4 34 -9z m201 -1 c32 -12 43 -26 43 -56 0 -31 -45 -33 -53 -3 -7 26 -47
27 -47 1 0 -12 12 -23 33 -31 74 -30 97 -83 58 -131 -40 -50 -151 -22 -151 38
0 31 42 32 62 1 9 -14 20 -19 31 -15 31 12 18 37 -28 57 -75 32 -87 107 -22
135 39 17 39 17 74 4z m197 -3 c31 -13 53 -55 38 -71 -14 -14 -50 -3 -55 16
-4 13 -12 20 -24 17 -29 -5 -21 -32 15 -50 73 -36 92 -81 53 -129 -15 -19 -29
-24 -66 -24 -37 0 -51 5 -66 24 -29 36 -25 61 10 61 21 0 30 -6 34 -21 7 -25
40 -22 45 3 2 12 -11 24 -43 39 -74 35 -85 107 -21 135 39 17 40 17 80 0z
m205 3 c17 -6 36 -19 41 -29 6 -10 10 -62 10 -115 l0 -97 -32 3 c-18 1 -48 -1
-66 -5 -50 -12 -82 13 -82 64 0 44 20 64 83 81 28 7 37 15 35 27 -5 25 -45 27
-58 3 -11 -22 -44 -28 -55 -10 -13 21 5 57 37 72 40 20 46 20 87 6z m319 -22
c16 -15 22 -32 22 -64 l0 -43 -61 0 c-60 0 -60 0 -57 -27 3 -32 44 -46 54 -19
9 23 64 21 64 -2 0 -69 -107 -94 -163 -37 -23 23 -24 151 -1 183 32 46 97 50
142 9z m1000 -3 c18 -21 22 -36 22 -98 0 -58 -4 -76 -20 -94 -43 -45 -130 -36
-157 18 -16 32 -17 121 -1 156 26 56 112 66 156 18z m240 8 c8 -10 12 -52 12
-119 l0 -103 -30 0 -30 0 0 90 c0 99 -12 119 -50 85 -17 -15 -20 -31 -20 -97
l0 -78 -30 0 -30 0 0 120 0 120 29 0 c16 0 31 -5 33 -11 2 -6 14 -5 33 5 33
17 63 13 83 -12z m530 -8 c15 -17 22 -38 22 -65 l0 -39 -61 0 c-60 0 -60 0
-57 -27 3 -32 44 -46 54 -19 4 10 18 16 35 16 35 0 40 -29 9 -60 -27 -27 -63
-34 -105 -20 -46 15 -55 34 -55 123 0 64 3 76 23 94 12 11 29 23 37 26 28 11
75 -3 98 -29z m539 12 c7 -6 13 -53 15 -116 l3 -105 -32 -3 -33 -3 0 91 c0 72
-3 92 -15 96 -33 13 -45 -15 -45 -102 l0 -84 -35 0 -35 0 0 120 0 120 35 0
c19 0 35 -4 35 -9 0 -6 12 -3 28 4 28 15 58 12 79 -9z m221 -12 c19 -22 22
-36 22 -120 l0 -95 -42 1 c-24 1 -54 -1 -68 -5 -35 -9 -80 27 -80 64 0 39 19
60 70 75 33 10 46 19 48 35 4 28 -31 29 -51 0 -22 -30 -63 -23 -59 11 10 70
109 91 160 34z m391 25 c36 -13 61 -53 61 -99 l0 -30 -59 0 c-65 0 -73 -5 -64
-38 6 -26 53 -32 53 -7 0 11 11 15 36 15 32 0 35 -2 29 -22 -13 -43 -42 -63
-90 -63 -64 0 -87 27 -93 105 -5 75 11 118 52 136 38 16 36 16 75 3z m204 -3
c15 -8 27 -11 27 -5 0 5 14 9 30 9 l30 0 0 -149 c0 -134 -2 -151 -20 -174 -41
-52 -147 -44 -170 13 -7 16 -9 34 -5 39 10 18 44 12 57 -9 26 -41 78 -15 78
40 0 17 -3 19 -19 10 -36 -19 -78 -12 -100 16 -16 21 -21 41 -21 90 0 72 13
107 44 122 29 14 37 14 69 -2z m285 -22 c19 -22 22 -36 22 -120 l0 -95 -42 1
c-24 1 -54 -1 -68 -5 -34 -9 -80 27 -80 61 0 42 17 62 70 79 37 12 50 22 50
36 0 26 -36 25 -50 -1 -11 -20 -54 -28 -64 -12 -10 16 29 76 54 84 40 11 83 0
108 -28z m-3048 -94 l0 -120 -35 0 -35 0 0 113 c0 63 3 117 7 120 3 4 19 7 35
7 l28 0 0 -120z m2280 63 c19 -91 25 -93 45 -14 17 70 18 71 50 71 l33 0 -24
-82 c-79 -281 -76 -273 -113 -276 -28 -3 -33 -1 -27 14 29 76 29 101 -4 209
-17 59 -34 113 -37 121 -4 10 4 14 29 14 34 0 35 -1 48 -57z m-4651 -4298 c0
-93 -2 -207 -6 -252 -5 -74 -8 -83 -26 -83 -10 0 -28 11 -38 24 -11 14 -35 31
-55 38 l-35 12 5 251 c4 251 7 299 19 311 3 4 2 15 -4 26 -15 29 10 46 72 50
l54 3 6 -105 c4 -58 7 -181 8 -275z m1421 -715 c0 -5 5 -10 11 -10 5 0 7 5 4
10 -4 6 21 10 69 10 l75 0 6 -34 c4 -18 5 -57 3 -87 l-4 -54 -65 -3 c-35 -2
-92 0 -127 3 l-63 7 3 71 c3 64 5 72 23 73 11 1 26 2 33 3 7 1 10 6 7 11 -3 6
1 10 9 10 9 0 16 -4 16 -10z m380 -160 l0 -170 -77 0 c-132 0 -123 -10 -123
151 0 83 5 148 12 164 11 24 15 25 100 25 l88 0 0 -170z m-225 -163 c7 -8 -12
-318 -20 -325 -5 -4 -64 -6 -130 -3 -108 5 -120 8 -124 25 -2 11 0 84 4 162
l7 143 27 5 c25 4 232 -1 236 -7z m188 -177 c26 0 27 -2 27 -49 0 -27 -3 -63
-6 -80 -6 -29 -10 -31 -48 -31 -22 0 -64 3 -93 6 -50 6 -52 8 -57 43 -3 20 -2
52 2 71 7 33 10 35 57 41 28 3 59 5 70 3 11 -2 32 -4 48 -4z m4475 -682 c18
-23 22 -167 28 -868 2 -382 7 -701 9 -707 7 -21 -30 -24 -230 -21 l-190 3 2
300 c2 165 8 334 14 375 12 83 12 88 3 181 l-6 67 55 26 c31 14 61 26 66 26
28 0 6 19 -34 30 -54 15 -60 22 -77 83 -11 41 -10 48 5 59 20 15 23 61 10 133
-7 36 -6 63 4 98 10 35 11 57 3 85 -5 20 -10 55 -10 77 0 32 5 43 23 51 32 17
312 18 325 2z m-5187 -53 c9 -3 15 -19 15 -40 0 -26 -5 -37 -20 -41 -20 -7
-20 -7 2 -15 34 -13 25 -45 -11 -41 -15 1 -27 -2 -27 -8 0 -7 -189 -10 -590
-10 l-590 0 0 80 0 80 498 3 c516 4 698 2 723 -8z m844 -125 c3 -5 8 -122 11
-260 4 -196 3 -254 -7 -266 -11 -13 -27 -15 -89 -9 -125 10 -139 15 -155 45
-19 37 -33 426 -16 458 6 12 26 26 44 31 43 12 204 13 212 1z m-842 -242 c-2
-5 -3 -69 -3 -143 l0 -135 -75 0 c-64 0 -75 3 -76 18 -3 39 3 258 8 265 6 10
149 5 146 -5z m34 -246 c-3 -36 1 -92 9 -129 10 -49 12 -132 9 -346 -3 -155
-5 -292 -5 -304 0 -14 -6 -23 -15 -23 -13 0 -15 25 -16 158 -2 182 -16 144
-19 -53 -2 -110 -1 -120 16 -123 40 -7 47 -12 35 -26 -6 -7 -10 -29 -9 -47 l3
-34 -632 -3 -633 -2 0 49 0 48 197 5 c109 3 214 1 235 -4 20 -4 79 -9 132 -10
52 -1 93 -5 90 -10 -3 -4 50 -7 118 -6 l123 2 -95 5 c-126 8 -78 19 123 27
116 6 147 10 143 20 -11 28 -9 664 2 681 10 16 150 33 156 19 4 -11 7 29 11
149 2 85 5 95 17 55 6 -19 8 -64 5 -98z m-401 -99 c-2 -16 -5 -61 -5 -100 -1
-67 -3 -73 -21 -73 -12 0 -31 9 -43 21 -18 16 -22 30 -20 70 2 82 9 97 46 102
17 2 36 5 40 5 4 1 6 -10 3 -25z m620 -144 c15 -17 18 -37 18 -137 -1 -155
-18 -186 -79 -146 -13 9 -28 13 -34 10 -36 -22 -60 246 -24 275 13 11 17 11
20 2 6 -18 50 -16 57 2 7 20 19 19 42 -6z m3596 -101 c0 -51 2 -106 3 -121 3
-35 -12 -43 -73 -39 -41 3 -52 8 -63 30 -9 15 -10 27 -4 29 34 11 75 45 75 63
0 10 -16 35 -35 54 -19 20 -35 38 -35 40 0 13 59 35 93 36 l37 0 2 -92z
m-2988 -136 c3 -5 6 -107 6 -228 l2 -219 -134 -3 c-73 -1 -142 0 -153 2 -20 5
-21 11 -19 195 3 206 12 246 56 253 53 8 237 8 242 0z m2996 -342 l5 -100 -70
0 -71 0 -2 63 c-1 34 4 80 12 102 13 37 17 40 58 45 23 3 47 2 53 -2 5 -5 12
-53 15 -108z"/>
<path d="M6613 9773 c-20 -4 -23 -11 -23 -51 l0 -47 85 0 85 0 0 46 c0 40 -3
48 -22 53 -25 6 -90 6 -125 -1z"/>
<path d="M3187 6603 c-19 -60 -87 -300 -87 -308 0 -3 4 -5 10 -5 5 0 29 61 52
135 24 74 46 135 49 135 4 0 9 -24 11 -54 6 -70 29 -106 67 -106 24 0 36 11
77 70 26 39 48 70 48 70 1 0 1 -58 1 -130 0 -163 17 -179 27 -25 11 180 12
195 5 201 -15 15 -49 -13 -101 -86 -31 -44 -61 -80 -65 -80 -17 0 -34 60 -39
143 -4 75 -7 87 -23 87 -12 0 -22 -14 -32 -47z"/>
<path d="M4050 6400 l0 -90 55 0 c43 0 56 4 65 19 14 28 13 47 -6 66 -9 8 -13
23 -10 32 4 9 -1 26 -9 39 -12 19 -24 24 -55 24 l-40 0 0 -90z"/>
<path d="M4206 6403 c3 -111 1 -103 19 -103 11 0 15 11 15 40 0 39 1 40 35 40
33 0 35 -2 35 -34 0 -31 19 -53 34 -39 3 4 6 46 6 95 0 81 -2 88 -20 88 -16 0
-20 -7 -20 -35 0 -33 -2 -35 -35 -35 -33 0 -35 2 -35 35 0 27 -4 35 -18 35
-15 0 -17 -10 -16 -87z"/>
<path d="M4708 6474 c-2 -9 -1 -50 2 -90 5 -77 23 -101 28 -39 3 33 6 35 38
35 32 0 34 -2 34 -35 0 -28 4 -35 20 -35 19 0 20 7 20 90 0 83 -1 90 -20 90
-16 0 -20 -7 -20 -35 0 -33 -2 -35 -35 -35 -33 0 -35 2 -35 35 0 36 -25 51
-32 19z"/>
<path d="M3511 6394 c-33 -28 -40 -64 -17 -83 9 -8 48 -11 112 -9 l99 3 5 35
c10 59 18 64 53 34 26 -22 38 -25 73 -20 40 5 42 4 48 -24 9 -50 26 -34 26 25
0 58 -8 68 -31 36 -8 -10 -27 -22 -42 -25 -23 -5 -33 -1 -56 23 -21 23 -35 29
-64 28 -33 -1 -37 -4 -37 -26 0 -62 -7 -68 -77 -76 -52 -5 -69 -4 -81 8 -19
20 -9 47 18 47 30 0 60 18 60 35 0 25 -55 18 -89 -11z"/>
<path d="M3583 6177 c-12 -17 -31 -53 -44 -78 -22 -46 -22 -46 -83 -52 -33 -3
-62 -4 -64 -2 -2 1 6 31 17 66 25 74 24 69 8 69 -7 0 -22 -24 -32 -52 -27 -75
-53 -98 -112 -98 l-48 0 1 -67 c1 -58 4 -69 24 -82 22 -14 24 -14 49 16 15 17
38 53 52 80 25 46 29 48 80 56 77 11 81 7 64 -50 -22 -72 -19 -110 4 -48 34
92 40 105 51 105 6 0 8 5 5 10 -4 6 10 40 29 76 20 35 36 69 36 74 0 19 -15
10 -37 -23z"/>
</g>
</svg>
