<?xml version="1.0" standalone="no"?>
<!DOCTYPE svg PUBLIC "-//W3C//DTD SVG 20010904//EN"
 "http://www.w3.org/TR/2001/REC-SVG-20010904/DTD/svg10.dtd">
<svg version="1.0" xmlns="http://www.w3.org/2000/svg"
 width="720.000000pt" height="1280.000000pt" viewBox="0 0 720.000000 1280.000000"
 preserveAspectRatio="xMidYMid meet">
<metadata>
Created by potrace 1.16, written by Peter Selinger 2001-2019
</metadata>
<g transform="translate(0.000000,1280.000000) scale(0.100000,-0.100000)"
fill="#000000" stroke="none">
<path d="M0 6400 l0 -6400 3600 0 3600 0 0 1122 c0 1089 -1 1122 -19 1142 -12
14 -29 66 -45 146 -15 69 -34 144 -42 168 -14 38 -19 42 -49 42 -21 0 -35 6
-39 16 -12 32 -6 43 27 46 31 3 32 5 32 47 0 81 62 77 82 -6 5 -23 16 -39 31
-44 l22 -8 0 792 0 792 -69 0 c-62 0 -73 3 -108 31 -21 17 -46 47 -57 68 -16
33 -17 43 -7 77 18 58 58 80 144 78 37 -1 70 1 73 4 12 11 -30 78 -57 92 -42
22 -67 18 -101 -15 -31 -31 -65 -39 -86 -18 -19 19 -14 32 25 73 l36 38 70 -6
c53 -5 77 -12 103 -32 l34 -26 0 320 0 320 -23 -23 c-54 -54 -187 -37 -255 34
-82 84 -120 204 -87 274 10 20 33 45 52 57 29 18 43 21 91 15 89 -11 157 -58
201 -141 l21 -40 0 343 c0 188 -4 342 -9 342 -4 0 -16 35 -25 78 -10 42 -24
104 -32 137 -18 74 -54 115 -100 115 -83 0 -90 -23 -54 -180 16 -68 27 -127
24 -132 -9 -15 -53 -8 -62 10 -5 9 -19 62 -31 117 -12 55 -24 106 -26 113 -3
7 -5 14 -6 17 0 2 -7 28 -14 56 -8 29 -12 56 -9 61 8 13 38 9 62 -8 19 -13 28
-14 52 -4 37 15 111 4 153 -24 17 -12 42 -41 55 -66 l22 -44 0 3217 0 3217
-3600 0 -3600 0 0 -6400z m6796 3680 c151 -69 198 -267 95 -405 -25 -34 -27
-41 -14 -50 14 -10 14 -14 -2 -38 -22 -35 -90 -46 -136 -23 -33 16 -80 14
-147 -6 -47 -14 -99 -2 -118 28 -13 20 -14 27 -4 39 11 13 9 19 -8 38 -85 90
-82 268 6 360 77 81 220 106 328 57z m-653 4 c29 -10 64 -34 92 -62 124 -125
89 -333 -68 -412 -133 -66 -310 -20 -370 96 -47 91 -44 191 7 276 25 43 43 59
94 85 54 28 75 33 131 33 37 0 88 -7 114 -16z m-5802 -244 c21 -91 39 -168 39
-172 0 -5 -15 -8 -33 -8 -28 0 -34 4 -42 32 -9 29 -14 32 -50 31 -36 0 -40 -3
-47 -31 -8 -28 -13 -32 -42 -32 l-34 0 14 58 c7 31 26 110 41 175 l27 118 44
-3 45 -3 38 -165z m369 78 l1 -93 30 38 c23 27 39 37 60 37 16 0 29 -3 29 -6
0 -4 -16 -28 -35 -53 -30 -41 -33 -50 -21 -67 7 -10 25 -40 40 -66 l27 -48
-35 0 c-30 0 -38 5 -57 40 -26 45 -39 43 -39 -6 0 -31 -2 -34 -30 -34 l-30 0
0 175 0 175 30 0 30 0 0 -92z m1740 -83 l0 -176 -42 1 c-24 1 -55 -1 -69 -5
-19 -5 -33 -1 -55 18 -28 24 -29 29 -28 107 1 68 4 85 21 102 22 21 54 27 91
14 21 -7 22 -5 22 53 l0 61 30 0 30 0 0 -175z m452 83 l3 -92 25 37 c20 30 31
37 58 37 30 0 42 -12 24 -24 -5 -3 -21 -23 -36 -44 l-27 -40 40 -66 41 -66
-34 0 c-28 0 -38 7 -62 43 l-29 42 -3 -42 c-3 -42 -4 -43 -38 -43 l-34 0 0
175 0 175 35 0 34 0 3 -92z m728 27 l0 -66 30 16 c33 17 60 13 85 -11 11 -12
15 -40 15 -120 l0 -104 -30 0 -30 0 0 90 c0 75 -3 92 -16 97 -37 14 -49 -10
-52 -101 l-3 -86 -29 0 -30 0 0 175 0 175 30 0 30 0 0 -65z m530 4 c0 -58 1
-60 23 -53 76 26 107 -8 107 -118 0 -71 -2 -81 -26 -105 -20 -20 -31 -24 -52
-18 -15 4 -46 6 -69 5 l-43 -1 0 176 0 175 30 0 30 0 0 -61z m-1480 -9 c0 -38
2 -40 30 -40 25 0 30 -4 30 -25 0 -21 -5 -25 -30 -25 l-31 0 3 -67 c3 -66 4
-68 31 -71 21 -3 27 -8 23 -19 -3 -8 -6 -19 -6 -24 0 -16 -73 -10 -92 8 -14
13 -18 31 -18 90 0 66 -2 75 -20 80 -13 3 -20 14 -20 29 0 17 6 24 20 24 16 0
20 7 20 33 0 40 6 47 37 47 20 0 23 -5 23 -40z m-2096 -61 c24 -23 34 -121 17
-172 -15 -44 -59 -66 -97 -48 -14 6 -27 11 -29 11 -3 0 -5 -30 -5 -66 l0 -65
-27 3 -28 3 -3 179 -2 179 37 -5 c21 -3 47 -2 58 3 26 10 55 2 79 -22z m405
20 c44 -16 51 -35 51 -143 l0 -96 -47 -1 c-27 0 -60 -1 -75 -1 -40 -1 -58 19
-58 63 0 43 20 63 83 80 28 7 37 15 35 27 -5 26 -48 28 -55 3 -4 -14 -13 -21
-29 -21 -65 0 -15 96 52 99 6 1 25 -4 43 -10z m290 0 c38 -14 51 -35 51 -88
l0 -41 -61 0 c-60 0 -60 0 -57 -27 3 -32 44 -46 54 -19 4 10 18 16 35 16 35 0
39 -25 10 -61 -15 -19 -29 -24 -66 -24 -39 0 -51 5 -71 28 -20 24 -24 39 -24
96 0 75 21 116 63 124 12 2 25 5 28 6 3 0 20 -4 38 -10z m198 0 c32 -12 43
-26 43 -56 0 -31 -45 -33 -53 -3 -7 26 -47 27 -47 1 0 -11 12 -23 30 -31 78
-32 101 -82 61 -131 -15 -19 -29 -24 -66 -24 -37 0 -51 5 -66 24 -29 36 -25
61 11 61 24 0 30 -4 30 -21 0 -15 5 -20 22 -17 40 5 31 32 -19 58 -91 48 -80
135 19 149 4 1 19 -4 35 -10z m191 0 c29 -10 59 -59 45 -73 -15 -15 -51 -5
-56 15 -4 13 -12 20 -24 17 -29 -5 -21 -32 15 -50 73 -36 92 -81 53 -129 -15
-19 -29 -24 -66 -24 -37 0 -51 5 -66 24 -29 36 -25 61 10 61 21 0 30 -6 34
-21 7 -25 40 -22 45 3 2 12 -11 24 -43 39 -74 35 -86 106 -22 134 39 17 37 17
75 4z m211 0 c17 -6 36 -19 41 -29 6 -10 10 -62 10 -115 l0 -97 -32 3 c-18 1
-48 -1 -66 -5 -50 -12 -82 13 -82 64 0 44 20 64 83 81 28 7 37 15 35 27 -5 25
-45 27 -58 3 -13 -24 -48 -28 -56 -6 -8 20 21 64 49 75 30 12 39 12 76 -1z
m318 -21 c17 -16 23 -33 23 -65 l0 -43 -61 0 c-60 0 -60 0 -57 -27 3 -32 44
-46 54 -19 8 20 64 22 64 2 0 -69 -102 -98 -158 -45 -19 17 -22 31 -22 98 0
68 3 80 23 98 12 11 29 23 37 26 25 10 73 -2 97 -25z m1001 -4 c18 -21 22 -36
22 -98 0 -65 -3 -75 -26 -97 -35 -33 -104 -34 -136 -2 -27 28 -37 127 -17 174
24 60 111 73 157 23z m240 8 c8 -10 12 -52 12 -119 l0 -103 -30 0 -30 0 0 90
c0 75 -3 92 -17 97 -32 12 -53 -32 -53 -113 l0 -74 -30 0 -30 0 0 120 0 120
29 0 c16 0 31 -5 33 -11 2 -6 14 -5 33 5 33 17 63 13 83 -12z m529 -4 c17 -16
23 -33 23 -65 l0 -43 -61 0 c-60 0 -60 0 -57 -27 3 -32 44 -46 54 -19 4 10 18
16 35 16 22 0 29 -5 29 -20 0 -42 -64 -79 -115 -66 -52 13 -65 39 -65 124 0
69 3 81 23 99 12 11 29 23 37 26 25 10 73 -2 97 -25z m540 8 c6 -6 13 -57 16
-118 l5 -108 -34 0 -34 0 0 90 c0 72 -3 92 -15 96 -33 13 -45 -15 -45 -102 l0
-84 -35 0 -35 0 0 120 0 120 35 0 c19 0 35 -4 35 -9 0 -6 12 -3 28 4 28 15 58
12 79 -9z m218 -7 c17 -16 21 -35 23 -120 l4 -100 -44 1 c-23 1 -54 -1 -68 -5
-35 -9 -80 27 -80 64 0 39 19 60 70 75 33 10 46 19 48 35 4 28 -33 29 -50 1
-12 -19 -48 -27 -60 -14 -15 14 11 60 43 77 40 20 84 15 114 -14z m400 16 c37
-15 55 -46 55 -96 0 -29 0 -29 -59 -29 -65 0 -73 -5 -64 -38 6 -26 53 -32 53
-7 0 11 11 15 36 15 32 0 35 -2 29 -22 -4 -13 -18 -34 -33 -47 -21 -19 -33
-22 -65 -18 -59 8 -80 35 -85 107 -5 75 11 118 52 136 39 17 40 17 81 -1z
m198 1 c15 -8 27 -11 27 -5 0 5 14 9 31 9 l30 0 -3 -154 c-3 -134 -5 -157 -22
-175 -42 -46 -144 -35 -166 19 -7 16 -9 34 -5 39 10 18 44 12 57 -9 27 -42 78
-15 78 41 0 18 -3 20 -12 11 -7 -7 -29 -12 -49 -12 -56 0 -79 34 -79 116 0 72
13 107 44 122 29 14 37 14 69 -2z m285 -22 c19 -22 22 -36 22 -120 l0 -95 -42
1 c-24 1 -55 -1 -70 -5 -21 -6 -32 -2 -52 18 -48 48 -29 99 44 121 33 10 46
19 48 35 4 28 -33 29 -50 1 -12 -19 -48 -27 -60 -14 -15 14 11 60 43 77 43 22
86 16 117 -19z m-3048 -94 l0 -120 -35 0 -35 0 0 113 c0 63 3 117 7 120 3 4
19 7 35 7 l28 0 0 -120z m2271 103 c0 -10 8 -43 18 -73 l17 -55 19 73 c18 70
20 72 51 72 l32 0 -24 -82 c-79 -281 -76 -273 -113 -276 -28 -3 -33 -1 -27 14
29 76 29 101 -4 209 -17 59 -34 113 -37 121 -4 10 4 14 31 14 27 0 36 -4 37
-17z m-4113 -748 c12 -3 22 -12 22 -18 0 -29 31 -261 36 -268 9 -16 19 -10 84
46 58 50 68 55 112 55 61 0 63 -17 6 -61 -73 -57 -97 -82 -90 -95 4 -6 50 -58
102 -114 52 -56 97 -106 98 -111 2 -5 -15 -9 -38 -9 -45 0 -47 1 -152 119 -50
56 -60 63 -84 57 -25 -7 -26 -8 -21 -72 2 -35 0 -67 -4 -70 -5 -3 -24 -2 -43
1 -39 8 -32 -22 -72 324 -13 117 -21 218 -18 223 3 5 13 7 22 4 10 -2 27 -7
40 -11z m-470 -104 c46 -24 78 -60 86 -99 3 -15 12 -76 20 -137 8 -60 18 -118
21 -127 13 -33 -55 -36 -87 -5 -8 9 -21 11 -33 6 -33 -13 -133 -10 -168 5 -59
24 -67 39 -67 126 0 100 7 105 131 98 107 -7 119 -1 93 42 -36 61 -125 89
-161 51 -10 -10 -28 -22 -40 -25 -21 -7 -23 -4 -23 31 0 22 6 45 13 52 19 20
165 8 215 -18z m1128 -136 c62 -26 98 -60 133 -125 29 -54 33 -69 29 -115 -11
-126 -101 -168 -262 -122 -48 14 -129 90 -150 142 -22 52 -21 143 3 178 34 53
68 67 142 63 37 -3 84 -12 105 -21z m1253 -9 c7 -8 21 -72 31 -141 10 -70 22
-131 28 -137 6 -6 33 12 78 51 57 51 72 60 98 56 17 -2 34 -4 39 -4 16 -2 4
-20 -53 -80 -36 -37 -58 -67 -53 -74 3 -7 49 -58 100 -113 51 -56 93 -105 93
-109 0 -4 -18 -5 -40 -2 -34 4 -51 18 -125 96 -75 78 -90 89 -106 80 -20 -10
-26 -62 -10 -87 15 -24 1 -62 -23 -62 -44 0 -54 20 -71 140 -8 63 -20 138 -25
165 -14 75 -30 191 -30 214 0 16 6 21 29 21 16 0 34 -6 40 -14z m-682 -57 c74
2 102 -11 96 -43 -5 -23 -10 -26 -49 -26 -34 0 -47 -5 -58 -23 -14 -20 -13
-36 4 -147 14 -94 16 -126 7 -132 -12 -7 -56 0 -69 11 -9 8 -57 353 -50 364 2
5 18 6 36 2 17 -4 54 -7 83 -6z m438 -71 c136 -87 177 -260 79 -334 -33 -25
-39 -27 -114 -21 -91 6 -149 33 -192 89 -45 60 -58 94 -58 159 0 58 2 63 40
101 l40 41 83 -5 c66 -3 90 -9 122 -30z m1518 -27 c29 -11 27 -5 71 -257 20
-109 38 -214 42 -233 l7 -34 -39 7 c-21 4 -69 6 -106 6 -130 -2 -216 62 -255
192 -23 79 -4 151 49 182 24 14 41 17 86 11 31 -4 68 -13 80 -22 13 -8 26 -12
29 -9 3 3 1 38 -5 77 -14 92 -10 99 41 80z m206 -31 c13 -7 21 -27 26 -67 11
-89 19 -103 52 -94 74 20 183 -19 217 -78 18 -31 65 -237 66 -288 0 -25 -14
-29 -52 -14 -22 8 -26 22 -46 130 -26 143 -33 161 -73 184 -39 22 -81 22 -108
0 l-22 -18 21 -129 c16 -104 18 -131 8 -138 -7 -4 -19 -6 -26 -3 -8 3 -18 5
-22 5 -11 0 -25 50 -39 135 -6 33 -21 124 -35 203 -15 78 -26 151 -26 162 0
22 28 27 59 10z m-938 -21 c43 -9 63 -21 105 -64 36 -36 56 -66 64 -95 21 -77
16 -78 -145 -55 -55 8 -106 15 -112 15 -26 0 -12 -41 26 -79 50 -50 111 -63
171 -36 32 15 42 15 55 5 23 -19 18 -38 -17 -61 -27 -17 -44 -19 -95 -15 -75
6 -118 23 -168 67 -106 94 -113 269 -11 314 39 17 62 18 127 4z m3002 -140
c94 -37 102 -43 100 -73 -1 -15 -13 -51 -27 -79 -15 -28 -26 -55 -26 -59 0 -4
-21 -50 -46 -100 -25 -51 -55 -115 -65 -142 -23 -57 -148 -336 -184 -411 -14
-27 -41 -88 -61 -135 -20 -47 -51 -116 -69 -155 -18 -38 -41 -90 -52 -115 -11
-25 -68 -151 -126 -280 -58 -129 -120 -269 -138 -310 -17 -41 -34 -77 -38 -80
-10 -8 -33 -81 -27 -87 3 -3 11 6 17 21 7 15 17 25 22 23 12 -4 30 -72 47
-174 6 -40 16 -75 21 -79 5 -3 9 -12 9 -20 0 -17 -60 -20 -77 -3 -8 8 -25 8
-60 1 -52 -12 -113 -12 -113 1 0 4 -5 7 -12 7 -19 0 -77 50 -93 80 -8 16 -15
45 -15 64 0 28 7 40 33 60 29 22 44 26 105 26 39 0 74 5 77 11 11 17 -15 66
-41 78 -41 18 -81 13 -110 -14 -31 -28 -56 -32 -74 -10 -20 24 -4 61 37 80 45
21 148 15 193 -12 16 -9 32 -15 35 -12 3 3 21 52 41 110 121 343 221 624 251
699 32 82 47 123 128 348 l66 183 -45 41 c-25 22 -46 48 -46 59 0 30 42 24 75
-11 l29 -31 18 33 c24 46 23 52 -19 67 -72 26 -111 58 -124 100 -10 34 -9 44
5 65 9 14 28 29 43 32 25 7 110 -5 159 -21 18 -6 23 0 38 42 43 118 77 203 83
203 2 0 28 -9 56 -21z m-738 -11 c4 -6 36 -159 61 -288 13 -74 30 -150 36
-169 8 -25 7 -35 -1 -41 -14 -8 -59 -1 -66 10 -10 17 -105 492 -100 500 4 7
63 -3 70 -12z m-700 -53 c113 -48 188 -189 155 -290 -42 -128 -284 -81 -359
70 -24 49 -30 149 -11 184 6 12 26 31 43 42 26 16 42 19 87 13 30 -3 69 -12
85 -19z m455 -60 c88 -46 150 -138 150 -225 0 -95 -34 -129 -128 -130 -74 0
-116 16 -169 63 -53 48 -87 119 -87 183 -1 98 42 138 141 130 34 -3 76 -12 93
-21z m1226 -177 c42 -37 50 -55 75 -170 10 -47 25 -102 33 -122 l15 -36 -32 0
c-18 0 -40 7 -51 15 -13 10 -24 11 -37 5 -43 -24 -141 -4 -184 36 -23 21 -26
31 -21 57 4 18 11 34 16 35 6 2 10 10 10 18 0 8 7 26 16 39 15 22 23 25 80 25
35 0 64 2 64 3 0 14 -35 69 -51 81 -23 16 -16 46 12 46 10 0 35 -14 55 -32z
m194 -3 c5 -6 14 -34 20 -61 5 -27 21 -96 35 -154 48 -196 50 -215 31 -244
-13 -20 -25 -26 -54 -26 -45 0 -78 20 -69 43 3 8 16 17 29 19 15 2 24 11 26
25 2 11 -14 95 -34 185 -21 89 -39 179 -42 199 -4 35 -2 36 22 32 14 -3 30
-11 36 -18z m343 -41 c63 -32 81 -62 112 -188 13 -50 28 -104 34 -119 6 -16
11 -33 11 -38 0 -12 -57 -12 -65 1 -4 7 -30 8 -69 4 -51 -5 -71 -3 -108 14
-64 28 -100 78 -96 134 4 55 28 68 126 68 59 0 72 3 72 16 0 26 -19 53 -50 69
-40 21 -58 19 -96 -10 -18 -14 -39 -25 -46 -25 -42 0 -41 62 1 86 32 18 127
12 174 -12z m-6848 -67 c39 -22 81 -81 91 -129 13 -64 25 -261 16 -270 -16
-16 -72 1 -81 25 -5 12 -12 69 -16 126 -4 58 -11 118 -16 135 -8 29 -52 76
-71 76 -4 0 -8 14 -8 30 0 24 4 30 23 30 12 0 40 -11 62 -23z m464 -51 c44
-23 72 -51 99 -99 26 -46 39 -112 23 -121 -6 -4 -74 0 -151 9 -77 9 -145 13
-150 10 -18 -11 -11 -32 26 -74 54 -62 132 -78 203 -41 37 18 39 18 55 1 23
-26 20 -39 -16 -61 -22 -13 -51 -20 -86 -20 -59 0 -162 26 -162 41 0 5 -6 9
-14 9 -17 0 -79 67 -100 109 -20 39 -21 134 -1 174 9 18 32 45 53 60 35 27 42
29 112 25 45 -3 89 -12 109 -22z m512 -62 c12 -11 22 -12 43 -4 59 22 163 4
208 -37 37 -33 57 -88 72 -202 9 -61 16 -125 16 -141 0 -27 -3 -30 -34 -30
-18 0 -38 6 -44 13 -5 6 -15 57 -21 112 -18 150 -26 184 -51 205 -28 24 -72
34 -116 25 -53 -10 -59 -33 -40 -161 24 -164 24 -164 -23 -164 -29 0 -41 5
-45 18 -11 38 -47 364 -42 379 7 18 51 11 77 -13z m1169 -34 c11 -11 20 -31
20 -45 0 -18 8 -28 28 -36 49 -20 57 -26 57 -45 0 -14 -8 -19 -28 -20 -15 -1
-30 -4 -33 -7 -9 -9 16 -208 29 -236 7 -13 20 -28 30 -33 9 -4 25 -12 35 -17
9 -4 17 -17 17 -27 0 -16 -8 -19 -52 -19 -87 1 -115 41 -133 191 -17 136 -26
164 -55 164 -28 0 -69 35 -60 50 4 6 22 10 41 10 33 0 34 1 34 38 0 21 3 42 7
45 13 13 43 7 63 -13z m-527 -24 c95 -34 119 -74 138 -232 6 -48 17 -105 25
-127 8 -22 14 -41 14 -43 0 -11 -76 -2 -90 11 -13 12 -23 13 -44 5 -43 -16
-127 -11 -172 9 -75 34 -117 116 -88 172 23 45 75 63 166 55 63 -5 79 -4 84 8
10 27 -24 73 -66 90 -52 21 -49 21 -101 -13 -31 -21 -52 -28 -71 -24 -51 10
-37 56 27 91 27 16 132 14 178 -2z m780 -88 c18 -14 47 -140 47 -206 0 -46 32
-117 58 -131 30 -16 94 -13 120 5 27 18 28 51 7 179 -22 134 -22 139 17 131
39 -8 47 -15 53 -47 11 -65 44 -278 49 -311 l5 -38 -39 0 c-21 0 -41 4 -44 8
-3 5 -40 7 -83 5 -67 -4 -84 -1 -122 19 -77 40 -86 60 -116 276 -9 57 -13 108
-10 113 9 13 38 11 58 -3z m671 -84 c13 -13 22 -14 50 -4 52 17 130 2 184 -34
80 -53 129 -187 103 -284 -20 -71 -92 -97 -189 -68 -63 18 -64 17 -60 -75 3
-62 2 -64 -23 -67 -14 -2 -31 4 -38 12 -7 8 -25 97 -41 198 -15 101 -33 212
-40 247 -6 35 -9 69 -6 77 7 19 41 18 60 -2z m1678 -33 c8 -7 85 -387 94 -467
7 -58 -5 -71 -47 -50 -22 11 -28 31 -71 261 -26 138 -46 256 -43 263 4 12 51
8 67 -7z m-1003 -43 c61 -35 79 -72 108 -214 14 -71 30 -135 36 -142 22 -28
-47 -36 -80 -10 -7 5 -27 7 -45 3 -83 -19 -162 1 -209 52 -40 42 -51 69 -43
108 10 55 43 70 149 70 107 0 119 13 62 70 -44 44 -92 47 -141 10 -37 -28 -58
-31 -76 -10 -18 22 -8 47 30 73 31 21 42 23 103 18 43 -4 83 -15 106 -28z
m213 -25 c9 -10 41 -67 73 -128 32 -60 61 -114 65 -119 12 -13 26 22 39 104 7
41 16 86 20 100 8 28 39 37 69 21 19 -10 19 -13 5 -68 -31 -128 -45 -191 -58
-263 -22 -132 -55 -180 -120 -180 -65 0 -92 61 -30 68 59 7 77 44 54 111 -11
31 -154 291 -183 333 -9 12 -16 26 -16 30 0 16 67 8 82 -9z m570 -65 c63 -35
78 -64 108 -205 15 -70 31 -139 35 -152 8 -23 7 -24 -31 -17 -21 5 -44 12 -49
16 -6 5 -29 3 -53 -3 -75 -20 -178 21 -215 85 -25 44 -22 94 8 123 22 23 32
25 115 25 99 0 103 3 70 57 -32 53 -112 63 -149 19 -15 -18 -66 -22 -76 -5
-12 19 5 58 33 74 39 23 150 13 204 -17z m-3688 -440 c9 -12 16 -33 16 -45 0
-24 26 -43 59 -43 22 0 46 -34 36 -50 -3 -6 -19 -10 -35 -10 -16 0 -32 -5 -35
-10 -9 -15 14 -230 28 -260 8 -16 22 -26 39 -28 36 -4 62 -40 46 -60 -26 -31
-159 13 -173 57 -3 11 -14 83 -24 160 -10 78 -22 145 -25 148 -3 3 -23 9 -43
12 -32 5 -38 10 -38 31 0 22 5 25 38 28 36 3 37 5 37 41 0 21 3 41 7 44 14 15
53 6 67 -15z m-836 -4 c12 -2 41 -21 64 -42 103 -93 120 -274 32 -351 -30 -27
-42 -31 -94 -31 -77 0 -90 6 -90 41 0 27 2 29 41 29 22 0 49 5 61 11 26 14 48
68 48 117 0 74 -85 190 -131 180 -14 -3 -24 26 -16 46 5 13 23 13 85 0z m537
-62 c78 -39 94 -76 111 -247 4 -38 13 -87 20 -109 20 -55 19 -56 -31 -56 -31
0 -47 5 -54 18 -8 14 -13 15 -30 5 -29 -18 -144 -16 -189 2 -48 21 -75 47 -97
96 -17 37 -17 42 -2 74 27 57 57 69 178 75 l107 5 -16 37 c-22 50 -66 73 -123
65 -27 -3 -50 -14 -61 -26 -11 -14 -28 -21 -51 -21 -61 0 -57 51 6 91 27 17
44 20 112 16 54 -3 94 -11 120 -25z m805 -88 c25 -16 50 -41 57 -55 7 -13 21
-84 32 -157 12 -73 25 -141 31 -152 15 -28 13 -30 -34 -30 -27 0 -48 6 -56 15
-8 9 -20 13 -29 9 -64 -27 -166 -18 -223 20 -33 22 -68 79 -68 111 0 46 18 72
65 94 39 18 61 21 128 19 77 -3 82 -2 79 17 -10 62 -87 106 -145 81 -18 -7
-38 -20 -46 -29 -19 -24 -68 -22 -81 3 -10 18 -6 26 25 57 l35 35 93 -4 c83
-3 97 -7 137 -34z m448 -29 c78 -31 95 -63 121 -220 12 -76 27 -147 32 -156 5
-10 9 -22 9 -28 0 -16 -50 -13 -84 4 -22 12 -37 13 -65 5 -84 -23 -159 -5
-218 55 -34 33 -43 50 -43 76 0 57 10 75 52 99 36 20 49 22 119 16 66 -5 80
-4 85 9 11 28 -6 65 -39 85 -46 29 -86 25 -130 -11 -40 -33 -73 -35 -91 -6
-14 22 -1 44 45 76 30 20 42 22 99 18 36 -3 85 -13 108 -22z m275 -72 c18 -32
39 -73 45 -92 7 -19 19 -42 28 -52 8 -9 19 -29 23 -45 4 -15 12 -29 19 -32 12
-4 43 90 62 189 12 62 30 76 77 58 21 -8 24 -13 18 -37 -4 -15 -9 -36 -11 -47
-9 -51 -26 -110 -36 -122 -6 -8 -9 -16 -6 -19 3 -2 -8 -53 -24 -112 -17 -59
-32 -117 -35 -129 -3 -12 -19 -35 -35 -52 -24 -25 -39 -31 -72 -31 -54 0 -86
21 -70 47 6 10 26 21 44 24 19 4 40 15 47 25 17 23 17 94 0 119 -17 25 -187
352 -187 359 0 4 18 6 40 6 37 0 41 -3 73 -57z m590 -6 c76 -32 143 -119 149
-192 4 -47 16 -44 -179 -30 -129 9 -136 4 -86 -62 46 -60 130 -81 195 -47 24
13 36 14 55 5 30 -14 27 -37 -8 -63 -33 -25 -150 -26 -205 -3 -86 36 -151 118
-163 208 -12 90 2 129 64 174 36 26 126 31 178 10z m1407 -47 c8 -5 19 -26 25
-47 9 -31 16 -38 44 -44 55 -11 72 -59 22 -59 -17 0 -32 -4 -35 -9 -4 -5 -2
-38 4 -73 29 -186 36 -201 91 -212 23 -4 29 -11 29 -30 0 -58 -136 -24 -161
40 -10 29 -34 144 -44 217 -7 52 -33 87 -64 87 -23 0 -48 27 -35 40 5 4 23 10
39 12 27 3 30 6 28 33 -2 17 -1 36 2 43 5 14 34 16 55 2z m-782 -10 c69 -10
121 -41 151 -91 10 -16 23 -68 30 -116 7 -49 19 -108 27 -133 8 -25 16 -52 17
-60 3 -22 -60 -26 -83 -5 -13 12 -23 13 -44 5 -72 -27 -171 -4 -221 51 -40 45
-51 78 -39 121 14 47 62 68 160 68 44 0 83 3 87 6 3 3 -1 21 -10 39 -29 62
-132 84 -165 36 -31 -44 -97 -28 -85 20 6 25 68 69 97 69 8 0 43 -5 78 -10z
m542 -74 c58 -38 74 -71 95 -193 10 -60 24 -124 31 -145 7 -20 10 -39 7 -42
-12 -11 -59 -6 -80 9 -16 11 -28 13 -48 5 -14 -5 -46 -10 -71 -10 -150 0 -247
165 -136 230 33 20 46 21 114 15 90 -7 103 2 72 54 -35 59 -129 73 -161 25
-17 -27 -50 -31 -77 -11 -24 18 -15 46 27 75 28 21 41 23 109 19 63 -3 84 -9
118 -31z m527 -86 c7 -30 22 -107 33 -170 11 -63 23 -127 26 -142 5 -26 3 -28
-29 -28 -49 0 -55 11 -74 135 -2 17 -13 79 -24 139 -10 60 -19 113 -19 118 0
5 17 8 37 6 37 -3 38 -4 50 -58z m1804 31 c7 -1 24 -58 38 -131 13 -65 12 -58
50 -237 39 -181 39 -177 -1 -169 -46 10 -68 10 -106 2 -82 -17 -183 47 -226
144 -38 85 -43 139 -17 193 29 61 57 73 129 60 31 -5 66 -14 76 -18 21 -9 21
-20 0 118 l-7 48 29 -5 c16 -2 32 -5 35 -5z m-1458 -21 c22 -18 50 -66 131
-227 17 -35 19 -36 32 -18 8 10 15 31 15 47 1 15 2 31 3 36 2 4 6 30 11 57 12
76 21 95 47 95 54 -1 55 -11 14 -215 -2 -11 -14 -69 -26 -130 -26 -134 -35
-160 -66 -180 -38 -25 -109 -17 -116 13 -8 29 3 42 32 42 34 0 60 31 60 72 0
25 -35 98 -118 248 -101 182 -100 180 -62 180 10 0 29 -9 43 -20z m995 -94
c52 -27 79 -70 97 -153 10 -43 21 -87 25 -98 4 -11 13 -40 20 -64 6 -23 14
-49 17 -57 7 -19 -60 -19 -76 0 -10 11 -18 11 -53 -1 -65 -22 -141 -2 -195 52
-37 36 -43 49 -43 83 0 29 7 49 24 69 23 27 28 28 113 28 102 0 115 13 65 64
-52 55 -114 60 -144 11 -14 -22 -39 -26 -69 -10 -27 15 -24 28 18 68 37 34 38
34 104 29 37 -3 81 -13 97 -21z m904 -113 c74 -55 112 -128 113 -209 0 -75
-16 -107 -66 -129 -69 -32 -163 -7 -233 61 -52 51 -78 108 -84 185 -4 65 -4
66 33 104 l38 37 73 -4 c66 -5 78 -9 126 -45z m-6469 -108 c95 -9 246 -22 337
-30 91 -8 221 -19 290 -25 69 -5 229 -19 355 -30 127 -11 417 -36 645 -55 553
-47 945 -80 1230 -105 129 -11 287 -25 350 -30 316 -27 947 -81 1035 -90 55
-5 165 -14 245 -20 80 -6 154 -12 165 -14 17 -2 23 -18 38 -101 10 -54 16
-104 13 -112 -6 -14 -18 -14 -92 2 -17 4 -34 3 -36 -1 -3 -5 3 -56 13 -114 53
-305 51 -300 96 -300 13 0 26 6 29 14 3 8 -5 78 -18 156 l-24 141 23 19 c16
12 23 28 23 50 l0 33 59 -6 c39 -4 72 -15 96 -31 l36 -25 40 21 c54 28 130 19
187 -23 49 -36 68 -83 102 -246 27 -130 24 -148 -22 -139 -17 3 -33 7 -34 9
-2 2 -15 63 -29 137 -14 74 -31 147 -36 162 -13 33 -84 64 -121 53 -54 -17
-58 -36 -32 -175 28 -153 28 -159 10 -166 -9 -3 -26 -4 -39 0 -20 5 -25 15
-36 83 -6 43 -16 92 -21 108 -4 17 -11 47 -15 68 -8 51 -65 107 -106 107 -30
0 -30 0 -24 -47 7 -49 25 -151 50 -279 8 -38 17 -96 21 -127 7 -55 6 -57 -17
-57 -23 0 -435 29 -699 49 -69 6 -318 24 -555 41 -236 16 -515 37 -620 45
-104 8 -260 20 -345 25 -85 6 -272 19 -415 30 -143 11 -296 22 -340 25 -44 3
-102 8 -128 11 -45 6 -47 7 -33 23 28 31 28 73 -4 316 -33 258 -35 265 -92
265 -21 0 -28 -5 -28 -19 0 -11 14 -125 30 -253 29 -221 29 -234 13 -246 -10
-7 -31 -16 -46 -19 -24 -5 -28 -10 -24 -29 5 -29 21 -28 -228 -9 -104 7 -287
21 -405 29 -118 9 -309 23 -425 32 -115 8 -309 23 -430 32 l-220 17 -3 264
c-1 146 1 268 5 272 5 4 20 -3 36 -15 29 -23 32 -37 52 -266 3 -36 10 -71 14
-78 4 -7 25 -13 47 -15 l39 -2 0 65 c0 135 -20 273 -41 291 -8 6 -14 17 -14
24 0 21 -74 65 -108 65 l-32 0 0 115 c0 110 1 115 21 115 11 0 98 -7 192 -15z
m5557 -697 c63 -32 83 -68 109 -199 13 -63 30 -129 37 -148 8 -18 14 -37 14
-42 0 -13 -64 -11 -78 3 -9 9 -24 8 -65 -1 -104 -23 -203 30 -228 122 -10 38
2 99 20 95 3 -1 22 6 40 16 28 15 48 17 98 13 35 -4 65 -2 68 3 3 6 -2 26 -11
45 -31 65 -126 82 -160 29 -29 -43 -94 -22 -79 26 19 60 150 81 235 38z m436
-43 c65 -38 73 -54 122 -265 11 -47 24 -93 27 -102 6 -15 2 -18 -24 -18 -17 0
-40 5 -50 12 -15 9 -25 9 -46 0 -71 -33 -179 4 -227 76 -18 27 -24 86 -12 117
12 30 60 45 144 45 88 0 93 5 61 54 -41 63 -107 74 -151 26 -33 -35 -50 -37
-74 -11 -21 23 -11 47 31 81 24 19 36 21 92 16 42 -3 78 -14 107 -31z m235
-10 c21 -12 34 -13 48 -5 23 12 64 13 112 3 53 -10 113 -79 129 -150 7 -32 23
-101 36 -153 23 -97 22 -110 -16 -110 -32 0 -41 20 -71 155 -28 128 -33 143
-65 173 -36 34 -66 40 -109 20 -32 -14 -32 -34 -1 -193 13 -66 21 -123 19
-127 -5 -10 -44 -10 -60 0 -6 4 -21 52 -32 107 -11 55 -29 140 -40 189 -11 50
-18 93 -15 98 8 12 32 10 65 -7z m-3789 -514 c8 -7 23 -80 33 -166 13 -108 56
-401 61 -418 8 -24 -21 -32 -70 -20 -27 8 -58 8 -96 1 -108 -19 -192 26 -249
132 -28 54 -34 75 -35 134 -1 85 20 136 71 167 28 18 46 21 103 17 49 -2 74
-9 89 -22 19 -17 21 -17 27 -2 3 9 1 53 -6 98 -9 66 -9 82 2 89 13 8 57 2 70
-10z m-2613 -7 c19 -14 27 -14 49 -4 15 7 56 12 91 11 52 -1 75 -8 118 -32
l53 -30 39 21 c54 31 169 26 222 -10 60 -40 77 -82 95 -237 25 -213 27 -198
-26 -198 -42 0 -44 1 -51 35 -5 19 -13 87 -19 150 -15 153 -23 174 -67 195
-49 24 -120 15 -146 -16 -16 -20 -18 -33 -13 -79 14 -114 24 -254 20 -262 -3
-4 -23 -8 -44 -8 -47 0 -44 -8 -65 183 -16 147 -20 160 -57 193 -49 45 -152
36 -165 -14 -3 -14 -1 -93 5 -176 6 -83 7 -155 3 -159 -5 -5 -24 -7 -42 -5
l-34 3 -3 228 c-1 125 1 227 6 227 4 0 18 -7 31 -16z m1078 -68 c63 -32 132
-136 136 -204 l2 -37 -65 0 c-36 0 -110 3 -165 5 -89 4 -100 3 -103 -12 -4
-22 27 -64 75 -100 46 -36 133 -39 173 -8 30 23 53 25 70 5 17 -21 5 -47 -35
-74 -32 -21 -43 -23 -117 -19 -126 7 -192 47 -245 151 -17 35 -25 67 -26 115
-2 58 2 73 27 113 43 68 85 89 172 84 40 -2 85 -10 101 -19z m309 -19 c4 -4
54 -391 54 -418 0 -16 -8 -19 -45 -19 -53 0 -47 -17 -75 212 -23 195 -25 235
-7 241 11 4 65 -8 73 -16z m2445 13 c10 -6 19 -20 19 -31 0 -12 8 -52 17 -91
16 -67 17 -69 42 -61 14 4 51 7 81 7 58 -2 119 -29 152 -69 86 -102 103 -264
36 -340 -27 -32 -35 -35 -82 -35 -29 0 -74 6 -99 14 -25 7 -66 11 -90 9 -38
-5 -46 -2 -51 14 -6 20 -96 566 -96 584 0 12 47 11 71 -1z m-2225 -31 c27 -17
37 -18 55 -8 38 20 142 13 187 -12 58 -34 81 -88 103 -244 26 -180 26 -182
-12 -190 -21 -5 -36 -3 -44 6 -8 8 -23 82 -34 169 -21 154 -22 155 -57 189
-33 30 -40 33 -78 27 -22 -4 -51 -14 -63 -22 -28 -18 -29 -49 -8 -218 8 -65
12 -122 9 -127 -6 -11 -54 -12 -71 -1 -12 8 -19 45 -48 257 -27 200 -19 224
61 174z m1464 -100 c74 -45 121 -106 146 -191 33 -109 -24 -219 -121 -233 -53
-8 -129 1 -166 21 -80 41 -141 135 -154 235 -8 66 13 119 65 163 28 23 40 26
113 26 65 0 89 -4 117 -21z m496 -28 c91 -42 152 -132 160 -239 5 -57 2 -74
-18 -111 -34 -66 -74 -84 -171 -77 -71 5 -82 9 -126 43 -80 63 -132 166 -125
248 4 48 47 121 82 139 39 22 147 20 198 -3z m1178 -76 c46 -22 109 -89 104
-111 -6 -33 -44 -28 -81 9 -59 59 -122 71 -161 31 -15 -14 -14 -18 4 -45 14
-18 36 -33 63 -40 23 -6 47 -14 52 -18 6 -4 28 -13 50 -19 54 -15 101 -61 115
-111 13 -48 4 -69 -41 -102 -28 -19 -39 -21 -110 -16 -60 4 -89 11 -123 31
-45 27 -92 88 -81 106 13 21 57 9 93 -26 20 -20 47 -40 60 -45 76 -29 138 10
109 68 -12 23 -29 32 -94 52 -43 13 -99 37 -125 53 -84 53 -91 144 -13 186 30
17 142 14 179 -3z m458 -44 c58 -37 72 -64 93 -177 9 -49 25 -117 36 -151 10
-34 19 -67 19 -73 0 -15 -61 -12 -80 5 -14 13 -22 12 -65 -1 -76 -23 -155 -4
-199 47 -45 53 -57 96 -39 141 19 48 65 68 158 68 40 0 76 4 80 9 9 15 -33 77
-61 89 -44 20 -82 14 -116 -18 -33 -32 -57 -37 -76 -18 -20 20 -13 49 19 79
29 27 37 29 108 29 68 0 82 -3 123 -29z m595 -26 c29 -12 43 -13 71 -4 28 9
37 8 49 -4 9 -9 33 -103 59 -234 38 -186 42 -223 33 -253 -15 -47 -26 -58 -68
-76 -49 -21 -117 -13 -188 22 -47 24 -58 34 -58 54 0 25 31 42 44 22 12 -19
71 -42 107 -42 47 0 84 32 84 71 0 36 -7 40 -60 28 -156 -35 -304 139 -276
326 11 67 53 105 117 105 27 0 66 -7 86 -15z m518 -47 c22 -14 46 -32 52 -39
15 -18 53 -151 59 -207 2 -23 13 -66 24 -95 11 -28 20 -53 20 -54 0 -11 -80 0
-90 12 -9 11 -15 12 -20 5 -10 -17 -100 -27 -140 -16 -74 20 -130 83 -132 147
-2 73 50 109 158 109 82 0 86 4 54 58 -36 59 -105 69 -149 21 -38 -41 -75 -38
-79 7 -2 25 4 37 30 59 30 25 37 27 103 23 52 -4 80 -11 110 -30z m197 -5 c14
-16 48 -75 120 -213 21 -41 52 -61 54 -35 8 126 18 214 26 228 9 18 44 22 67
8 11 -7 11 -28 -3 -127 -55 -402 -61 -425 -127 -438 -47 -9 -79 8 -79 44 0 27
3 30 29 30 33 0 61 30 61 66 0 21 -27 89 -49 124 -56 89 -171 303 -171 320 0
17 56 11 72 -7z m-6527 -470 c3 -10 11 -81 17 -158 9 -130 21 -185 39 -185 3
0 44 36 90 80 74 72 87 80 121 80 65 0 60 -23 -27 -110 -58 -58 -76 -82 -71
-96 3 -11 28 -42 54 -70 80 -88 167 -187 170 -196 2 -4 -18 -8 -46 -8 -47 0
-51 2 -108 63 -33 34 -73 78 -90 98 -36 42 -52 50 -78 37 -16 -9 -18 -20 -15
-96 l4 -87 -40 0 -40 0 -3 333 c-2 306 2 367 23 315z m750 -235 c60 -40 115
-135 115 -199 l0 -39 -166 1 c-91 0 -168 -2 -171 -5 -13 -12 11 -60 48 -95 31
-31 50 -41 90 -46 43 -6 58 -3 104 20 29 15 61 25 70 22 58 -23 -7 -99 -94
-111 -119 -16 -218 28 -290 128 -31 43 -35 57 -39 125 -4 68 -1 83 21 127 42
84 74 102 182 103 74 1 84 -1 130 -31z m524 -15 c25 -15 34 -16 51 -5 32 19
144 15 189 -8 85 -43 149 -179 138 -290 -8 -68 -23 -104 -61 -140 -35 -32
-132 -40 -190 -16 -21 9 -43 13 -48 10 -6 -4 -8 -44 -6 -98 l3 -91 -34 -3
c-18 -2 -38 1 -43 6 -6 6 -19 82 -29 169 -10 87 -25 217 -33 288 -22 183 -22
195 8 195 13 0 38 -8 55 -17z m784 -47 c80 -47 139 -134 152 -224 7 -51 -19
-137 -53 -176 -42 -47 -171 -63 -248 -31 -127 53 -202 214 -160 342 18 56 44
84 96 108 51 23 159 14 213 -19z m525 -20 c45 -23 115 -95 137 -142 14 -28 19
-61 19 -114 0 -90 -17 -129 -75 -167 -55 -36 -150 -38 -225 -4 -123 54 -196
226 -146 341 21 49 40 69 87 95 38 21 156 16 203 -9z m2182 4 c10 -5 22 -24
25 -42 9 -41 22 -58 46 -58 11 0 28 -9 40 -21 16 -16 18 -23 8 -35 -6 -8 -22
-14 -35 -14 -22 0 -24 -4 -24 -54 0 -30 4 -57 9 -60 5 -3 12 -34 15 -70 10
-85 32 -130 70 -136 60 -10 62 -70 2 -70 -72 0 -119 34 -136 99 -5 20 -19 92
-32 160 -24 129 -25 130 -83 148 -37 11 -49 53 -15 53 12 0 30 5 41 11 16 8
18 17 13 44 -9 52 11 69 56 45z m-1878 -12 c9 -7 18 -31 21 -53 3 -22 20 -134
37 -250 17 -115 29 -227 27 -248 -8 -58 -40 -87 -96 -87 -53 0 -66 7 -75 37
-5 17 -1 25 16 34 13 7 24 12 25 11 8 -5 32 12 38 26 5 14 -14 166 -51 398
-21 134 -20 144 14 144 16 0 35 -6 44 -12z m437 -28 c80 -40 100 -89 130 -303
6 -43 18 -91 26 -106 13 -26 13 -30 -1 -35 -25 -10 -44 -7 -80 10 -25 12 -38
13 -47 6 -7 -6 -32 -14 -54 -18 -135 -21 -263 95 -222 202 22 57 80 84 181 84
84 0 88 3 68 54 -12 31 -65 66 -102 66 -15 0 -43 -14 -68 -35 -46 -38 -71 -43
-90 -19 -19 22 -2 64 39 91 46 31 163 33 220 3z m509 -23 c6 -7 17 -59 26
-117 9 -58 20 -130 25 -160 41 -242 43 -266 26 -299 -20 -39 -57 -54 -111 -46
-32 4 -43 11 -48 27 -5 22 10 51 24 43 3 -2 16 3 28 11 30 21 29 58 -13 304
-44 259 -44 250 -1 250 18 0 38 -6 44 -13z m430 -27 c127 -66 194 -239 136
-355 -31 -64 -63 -80 -152 -79 -110 1 -176 40 -230 137 -37 66 -44 101 -32
174 11 63 31 97 77 128 39 27 144 24 201 -5z m953 -35 c69 -22 159 -145 159
-218 l0 -30 -142 4 -143 4 2 -29 c3 -44 69 -103 125 -111 47 -7 102 11 110 37
7 20 58 -7 58 -31 0 -11 -14 -31 -31 -45 -26 -22 -40 -26 -92 -26 -83 0 -118
11 -175 56 -129 102 -141 330 -21 383 39 18 104 20 150 6z m287 -24 c2 -6 16
-5 35 0 18 5 47 9 65 9 26 0 35 -5 42 -26 12 -30 -4 -59 -26 -50 -19 7 -71
-13 -77 -29 -3 -7 -2 -37 3 -66 19 -122 41 -243 46 -251 7 -11 -41 -21 -64
-14 -20 7 -22 13 -72 286 -11 58 -20 118 -20 134 0 27 2 28 33 22 17 -4 33
-10 35 -15z m281 -18 c10 -20 81 -371 81 -403 0 -16 -7 -20 -34 -20 -19 0 -37
4 -40 9 -7 11 -86 394 -86 416 0 22 66 20 79 -2z m-4716 -675 c13 -11 23 -76
52 -342 38 -349 38 -353 -10 -341 -11 2 -27 5 -36 5 -11 0 -18 12 -22 38 -16
101 -68 626 -63 638 7 17 56 18 79 2z m251 -9 c2 -2 11 -71 20 -154 21 -187
24 -205 41 -205 7 0 46 36 87 80 71 78 74 80 120 80 26 0 49 -4 52 -8 3 -5
-27 -44 -65 -88 -39 -43 -75 -87 -80 -96 -8 -15 12 -41 111 -148 66 -72 118
-135 115 -140 -4 -6 -26 -10 -50 -10 -43 0 -46 2 -136 103 -51 56 -94 104 -95
106 -2 2 -15 0 -29 -3 l-27 -7 4 -92 3 -92 -39 -3 c-47 -4 -53 3 -61 82 -3 34
-8 77 -10 96 -4 29 -23 197 -52 459 l-6 54 47 -5 c26 -3 49 -7 50 -9z m1969
-78 c5 -5 12 -37 17 -72 5 -35 14 -79 20 -96 12 -32 33 -43 45 -23 10 16 133
12 171 -6 41 -20 95 -83 119 -139 9 -22 19 -78 22 -125 5 -73 3 -92 -15 -125
-29 -58 -51 -74 -112 -81 -42 -5 -67 -1 -106 14 -35 13 -57 16 -68 10 -9 -5
-31 -8 -48 -6 -37 3 -33 -12 -68 228 -11 80 -30 205 -41 278 -11 74 -18 141
-15 149 5 11 15 14 38 9 18 -3 36 -10 41 -15z m515 -9 c7 -5 17 -37 23 -73 16
-100 29 -139 44 -139 8 0 17 5 20 10 3 6 41 10 84 10 70 0 82 -3 114 -27 51
-40 72 -97 101 -270 15 -84 26 -157 26 -162 0 -17 -61 -24 -77 -9 -8 9 -24 77
-39 164 -28 176 -29 179 -57 205 -38 36 -67 42 -113 24 -50 -19 -63 -44 -53
-104 25 -150 42 -272 38 -275 -2 -2 -16 -6 -30 -9 -53 -13 -57 -3 -96 263 -3
19 -18 114 -33 210 -15 96 -26 178 -23 183 6 9 55 9 71 -1z m-3567 -90 c58
-37 94 -92 115 -174 39 -157 -16 -286 -130 -305 -21 -3 -69 0 -108 7 -88 17
-91 13 -82 -97 6 -75 5 -82 -14 -92 -11 -6 -26 -11 -31 -11 -8 0 -11 102 -11
335 l1 335 32 14 c18 8 66 15 108 15 66 1 80 -2 120 -27z m548 -10 c43 -26 73
-56 83 -82 5 -14 18 -90 28 -170 10 -80 25 -162 33 -182 8 -20 13 -39 9 -42
-12 -13 -90 -6 -102 9 -16 19 -29 19 -66 1 -96 -48 -232 -7 -274 81 -34 72
-20 134 38 174 30 20 51 25 138 29 56 3 106 9 110 13 12 11 -16 78 -40 99 -49
40 -120 31 -171 -22 -42 -44 -95 -39 -95 8 0 27 45 82 67 82 7 0 13 4 13 9 0
25 187 19 229 -7z m1277 -54 c54 -37 99 -105 114 -175 16 -71 13 -72 -166 -66
-102 3 -154 2 -154 -5 0 -6 -3 -17 -6 -26 -4 -10 11 -33 45 -66 50 -49 52 -50
112 -50 46 0 67 5 86 20 31 24 66 26 83 5 11 -13 10 -21 -7 -43 -30 -41 -69
-56 -153 -56 -85 0 -128 15 -184 64 -80 71 -116 205 -82 308 13 40 28 59 64
86 44 33 52 35 123 36 70 0 81 -3 125 -32z m278 9 c25 -18 85 -455 64 -468
-20 -13 -64 -11 -76 4 -5 6 -18 71 -27 142 -9 72 -23 173 -30 225 -7 52 -11
98 -8 103 7 12 58 8 77 -6z m236 -12 c16 -19 35 -19 66 1 35 24 138 14 185
-16 37 -24 71 -75 82 -121 9 -34 47 -299 47 -321 0 -14 -9 -18 -39 -18 -22 0
-43 5 -46 11 -4 5 -17 82 -30 170 -26 176 -37 202 -93 226 -30 13 -42 13 -75
2 -69 -23 -72 -37 -48 -206 29 -203 30 -193 -23 -193 l-44 0 -11 68 c-26 171
-52 392 -46 402 9 15 61 12 75 -5z m1946 -64 c73 -33 152 -156 142 -223 -3
-23 -4 -23 -146 -24 -91 0 -147 -5 -154 -12 -15 -15 32 -86 75 -112 47 -29
112 -26 159 7 l39 26 21 -20 c17 -17 18 -24 8 -42 -34 -65 -163 -83 -256 -36
-99 49 -157 143 -158 255 0 78 29 141 83 177 43 29 128 31 187 4z m492 -25
c20 -13 44 -32 53 -42 33 -38 69 -120 69 -157 l0 -38 -142 2 c-137 1 -143 0
-146 -19 -4 -24 33 -84 63 -103 11 -7 38 -16 60 -20 33 -7 49 -3 92 18 43 21
55 24 68 13 21 -18 19 -43 -7 -67 -31 -28 -61 -36 -130 -34 -70 1 -111 17
-161 60 -99 88 -133 259 -68 350 37 51 59 61 138 61 60 0 80 -4 111 -24z m430
-7 c18 -11 26 -11 42 -1 22 14 49 15 67 4 23 -14 108 -474 98 -524 -9 -38 -37
-78 -68 -95 -79 -44 -292 23 -272 85 7 25 37 29 54 8 17 -20 96 -39 135 -32
45 9 70 46 61 93 -5 28 -10 33 -23 28 -127 -53 -234 -3 -299 138 -26 56 -39
146 -29 201 7 39 48 93 80 107 28 12 128 4 154 -12z m515 -8 c24 -9 33 -24 41
-68 2 -10 21 -101 41 -203 20 -102 39 -215 42 -252 5 -62 4 -68 -20 -92 -19
-19 -36 -26 -64 -26 -47 0 -60 8 -68 43 -6 22 -4 27 11 27 32 1 57 27 56 58 0
25 -39 240 -78 430 -18 93 -14 103 39 83z m424 -25 c63 -33 98 -96 118 -216
11 -64 38 -165 46 -174 14 -15 11 -43 -5 -49 -16 -7 -56 2 -73 15 -7 6 -29 3
-60 -7 -142 -49 -275 60 -240 196 11 44 66 69 152 69 41 0 76 4 79 9 10 16
-22 78 -51 96 -46 31 -88 25 -127 -18 -37 -41 -39 -41 -67 -27 -43 23 -13 92
51 119 32 14 141 6 177 -13z m441 -13 c71 -34 88 -61 117 -190 25 -110 49
-201 61 -230 9 -20 -43 -27 -70 -9 -22 14 -28 14 -60 1 -121 -51 -262 33 -257
153 2 77 40 102 161 111 73 6 75 7 73 31 -2 14 -19 39 -40 58 -49 43 -83 42
-130 -3 -38 -37 -61 -43 -81 -23 -20 20 -13 51 20 85 30 31 36 33 101 33 45 0
82 -6 105 -17z"/>
<path d="M6613 9773 c-20 -4 -23 -11 -23 -51 l0 -47 85 0 85 0 0 46 c0 40 -3
48 -22 53 -25 6 -90 6 -125 -1z"/>
<path d="M93 8839 c-36 -19 -36 -50 -1 -86 27 -28 39 -33 78 -33 63 0 90 21
90 70 0 21 -3 41 -7 43 -19 12 -140 16 -160 6z"/>
<path d="M1250 8853 c-54 -20 -70 -142 -27 -201 36 -49 68 -69 119 -77 42 -6
49 -4 78 24 31 29 32 34 28 88 -8 115 -108 198 -198 166z"/>
<path d="M2224 8729 c-11 -6 -26 -26 -33 -46 -34 -94 35 -211 136 -227 36 -7
45 -4 74 22 29 26 32 34 31 81 -1 61 -22 102 -73 143 -40 32 -101 44 -135 27z"/>
<path d="M3738 8543 c-26 -7 -41 -57 -34 -115 11 -79 62 -141 125 -152 41 -6
91 17 91 42 0 31 -20 135 -32 165 -18 46 -92 76 -150 60z"/>
<path d="M3086 8609 c-14 -11 -26 -31 -26 -43 0 -21 7 -23 91 -35 51 -6 94 -9
97 -6 13 12 -15 61 -47 82 -42 29 -80 29 -115 2z"/>
<path d="M4622 8430 c-66 -27 -40 -183 41 -237 39 -27 108 -31 131 -8 70 71
-22 257 -126 254 -13 0 -33 -4 -46 -9z"/>
<path d="M5056 8365 c-43 -43 -26 -142 34 -203 64 -67 140 -69 166 -6 27 64
-12 164 -81 206 -37 22 -98 24 -119 3z"/>
<path d="M6266 8077 c-14 -10 -15 -18 -8 -38 20 -52 108 -82 146 -50 19 16 21
72 4 89 -16 16 -120 15 -142 -1z"/>
<path d="M6844 7994 c-8 -31 34 -80 78 -89 59 -13 97 41 68 96 -9 16 -22 19
-75 19 -61 0 -65 -1 -71 -26z"/>
<path d="M405 8014 c-35 -38 -32 -62 8 -69 64 -11 172 -22 180 -18 16 9 5 34
-31 73 -35 36 -44 40 -86 40 -38 0 -52 -5 -71 -26z"/>
<path d="M1603 7740 c-17 -7 -23 -18 -23 -38 0 -44 65 -87 121 -79 53 7 79 31
79 74 0 27 -5 35 -26 43 -31 12 -121 12 -151 0z"/>
<path d="M3238 7714 c-33 -17 -35 -36 -13 -144 17 -83 33 -103 95 -121 30 -9
46 -9 69 1 80 33 46 216 -49 265 -36 19 -67 18 -102 -1z"/>
<path d="M3726 7518 c-36 -20 -38 -45 -5 -83 26 -30 38 -35 73 -35 57 0 86 22
86 65 0 23 -6 37 -17 43 -26 14 -119 20 -137 10z"/>
<path d="M4508 7429 c-11 -6 -18 -22 -18 -38 0 -63 99 -103 153 -61 34 27 37
72 5 94 -25 18 -113 21 -140 5z"/>
<path d="M477 6886 c-31 -28 -27 -55 11 -83 39 -28 77 -35 122 -22 40 12 48
23 56 70 8 44 -17 59 -95 59 -58 0 -72 -4 -94 -24z"/>
<path d="M1274 6817 c-34 -30 -28 -63 19 -94 39 -27 76 -29 122 -7 33 15 44
38 37 81 -7 46 -131 60 -178 20z"/>
<path d="M1758 6774 c-17 -9 -28 -23 -28 -35 0 -29 53 -76 92 -82 46 -7 107
19 114 49 9 37 -3 71 -28 78 -41 11 -122 6 -150 -10z"/>
<path d="M2634 6845 c-16 -16 -24 -34 -22 -48 2 -18 11 -23 53 -29 87 -11 155
-9 155 5 0 21 -28 54 -64 76 -46 29 -91 27 -122 -4z"/>
<path d="M3326 6625 c-33 -30 -33 -36 2 -73 72 -76 197 -29 163 61 -7 18 -20
26 -48 30 -66 11 -89 8 -117 -18z"/>
<path d="M3774 6575 c-21 -32 -11 -59 30 -85 40 -24 76 -26 116 -5 32 17 38
43 20 89 -9 25 -14 26 -80 26 -63 0 -71 -2 -86 -25z"/>
<path d="M6104 6530 c-30 -12 -47 -61 -39 -110 19 -114 111 -192 184 -157 40
19 40 47 1 198 -8 28 -19 40 -53 57 -48 24 -61 25 -93 12z"/>
<path d="M5689 6418 c-24 -20 -28 -41 -11 -70 43 -75 184 -59 166 20 -4 15
-12 33 -19 40 -17 19 -116 26 -136 10z"/>
<path d="M6543 6488 c-39 -19 -44 -116 -9 -189 32 -67 133 -109 179 -75 21 16
32 71 23 119 -9 50 -60 120 -101 140 -40 19 -60 20 -92 5z"/>
<path d="M544 6263 c3 -27 15 -140 27 -253 11 -113 23 -227 27 -255 l7 -50 43
-3 43 -3 -2 74 c-1 41 1 79 5 86 8 12 56 15 56 3 0 -4 39 -49 88 -100 79 -83
91 -92 124 -92 20 0 39 4 42 9 3 5 -11 26 -32 48 -85 90 -177 195 -180 208 -2
7 29 44 67 82 39 38 71 74 71 80 0 6 -16 14 -36 17 -42 8 -58 -1 -140 -77 -31
-28 -61 -52 -67 -52 -16 0 -24 35 -38 165 -16 154 -18 160 -70 160 l-41 0 6
-47z"/>
<path d="M1966 6192 c-4 -6 8 -118 25 -249 17 -131 34 -263 38 -293 6 -54 7
-55 39 -58 56 -6 60 -1 51 65 -5 32 -11 83 -14 113 -3 30 -8 67 -11 82 -8 42
3 64 42 83 45 21 88 12 125 -26 16 -17 29 -32 29 -34 0 -2 9 -68 20 -147 22
-154 32 -175 80 -163 14 4 27 8 29 10 1 2 -2 38 -8 79 -6 42 -16 111 -22 154
-19 131 -71 188 -181 199 -43 4 -72 1 -88 -7 -36 -19 -56 12 -63 101 -3 40
-10 76 -14 80 -14 14 -70 22 -77 11z"/>
<path d="M1078 6059 c-21 -17 -38 -39 -38 -49 0 -47 68 -50 110 -4 43 44 134
24 166 -37 27 -52 16 -60 -83 -58 -102 3 -155 -16 -178 -62 -20 -37 -19 -52 5
-99 23 -46 71 -84 122 -98 43 -12 136 -6 155 9 9 9 19 7 38 -5 26 -17 95 -22
95 -7 0 5 -5 22 -11 38 -5 15 -18 87 -29 160 -10 77 -25 144 -34 158 -9 14
-36 37 -59 52 -36 23 -55 27 -132 30 -88 4 -91 3 -127 -28z m253 -216 c6 -6
11 -28 11 -49 0 -82 -107 -111 -175 -49 -62 58 -10 119 96 112 31 -2 62 -8 68
-14z"/>
<path d="M3690 6028 c0 -12 5 -47 11 -77 5 -31 25 -149 44 -264 19 -114 37
-212 40 -217 3 -6 22 -10 42 -10 l36 0 -7 80 c-7 79 -7 80 16 80 16 0 49 -28
113 -95 77 -81 95 -95 122 -95 17 0 35 5 38 10 4 6 -41 61 -99 122 -58 62
-106 119 -106 127 0 9 28 45 61 81 56 59 59 65 43 77 -35 26 -62 15 -132 -52
-37 -36 -70 -65 -74 -65 -13 0 -18 19 -39 156 -23 148 -31 164 -81 164 -22 0
-28 -5 -28 -22z"/>
<path d="M2506 5937 c-32 -31 -36 -39 -26 -56 16 -30 65 -28 94 4 47 50 151
24 174 -45 14 -38 6 -42 -76 -39 -91 3 -148 -14 -167 -51 -62 -120 81 -246
234 -206 42 11 54 11 69 0 19 -15 92 -19 92 -5 0 5 -7 28 -16 52 -8 24 -19 80
-24 123 -16 136 -33 177 -87 216 -44 32 -54 35 -138 38 l-91 4 -38 -35z m240
-203 c33 -6 38 -71 8 -101 -35 -35 -88 -40 -129 -12 -62 42 -61 97 0 115 37
11 61 10 121 -2z"/>
<path d="M2945 5940 c-5 -9 33 -304 51 -387 6 -29 37 -45 70 -37 19 5 24 11
20 26 -2 11 -13 79 -22 150 l-18 130 23 19 c13 11 38 19 57 19 38 0 48 11 40
46 -7 25 -9 25 -74 23 -37 -2 -71 -1 -77 2 -23 14 -64 18 -70 9z"/>
<path d="M3289 5886 c-41 -28 -48 -42 -59 -105 -8 -51 8 -136 35 -178 51 -80
137 -127 233 -126 125 1 182 84 153 225 -8 38 -23 68 -52 103 -61 74 -108 98
-199 102 -67 4 -79 2 -111 -21z m197 -65 c50 -40 73 -82 80 -148 6 -52 3 -66
-14 -95 -19 -30 -27 -35 -67 -37 -81 -4 -145 56 -166 156 -10 49 -10 66 0 92
26 60 110 76 167 32z"/>
<path d="M4225 5826 c-46 -20 -69 -51 -61 -81 9 -36 54 -34 91 5 34 35 66 38
113 10 36 -22 58 -60 48 -85 -5 -13 -14 -15 -51 -9 -104 15 -177 -19 -190 -90
-8 -41 26 -98 79 -134 41 -28 130 -40 176 -24 25 9 38 8 60 -3 34 -18 66 -19
75 -4 4 5 0 25 -9 42 -8 18 -20 64 -26 102 -18 111 -41 192 -60 213 -53 57
-181 87 -245 58z m208 -230 c13 -10 17 -25 15 -53 -3 -33 -8 -40 -42 -56 -31
-15 -44 -16 -69 -7 -67 23 -95 74 -60 112 20 22 128 25 156 4z"/>
<path d="M5676 5487 c-28 -20 -23 -67 8 -94 35 -30 105 -32 130 -4 21 23 24
90 5 102 -22 14 -123 10 -143 -4z"/>
<path d="M6104 5445 c-24 -24 -24 -26 -9 -56 16 -30 68 -60 96 -55 62 11 87
44 68 93 -14 37 -25 43 -82 43 -38 0 -53 -5 -73 -25z"/>
<path d="M2473 4909 c-68 -25 -84 -132 -36 -228 32 -63 72 -91 128 -91 78 1
101 50 76 163 -6 23 -13 59 -16 79 -5 30 -13 42 -38 55 -44 22 -89 31 -114 22z"/>
<path d="M988 4995 c-31 -17 -63 -74 -49 -88 15 -15 223 -14 228 1 3 7 -15 33
-40 57 -49 49 -87 58 -139 30z"/>
<path d="M3982 4794 c-27 -19 -28 -75 -4 -179 15 -59 22 -73 51 -92 38 -25
105 -31 132 -10 58 44 24 237 -48 270 -12 5 -23 14 -23 19 0 14 -85 9 -108 -8z"/>
<path d="M2985 4870 c-68 -27 -77 -152 -18 -242 33 -48 69 -68 126 -68 58 0
88 31 94 97 14 142 -95 257 -202 213z"/>
<path d="M3483 4830 c-39 -23 -48 -53 -39 -133 10 -102 72 -167 159 -167 37 0
51 5 72 28 25 25 26 32 22 98 -3 59 -9 79 -33 112 -29 41 -95 82 -130 82 -10
0 -34 -9 -51 -20z"/>
<path d="M5123 4555 c-23 -16 -30 -50 -15 -70 18 -26 67 -55 91 -55 69 0 102
41 84 103 -8 31 -10 32 -73 35 -47 2 -71 -2 -87 -13z"/>
<path d="M5763 4676 c-24 -21 -28 -31 -27 -82 0 -67 21 -119 69 -170 27 -29
39 -34 77 -34 77 0 89 28 65 155 -17 88 -28 107 -72 134 -47 27 -77 27 -112
-3z"/>
<path d="M6258 4493 c-20 -5 -33 -43 -24 -70 9 -26 51 -53 91 -60 27 -4 38 0
59 20 31 31 34 76 8 100 -18 16 -90 22 -134 10z"/>
<path d="M623 3940 c-18 -10 -40 -34 -49 -51 -15 -31 -15 -33 2 -46 10 -8 45
-13 85 -13 36 0 80 -3 98 -6 24 -5 32 -2 37 11 11 27 -23 80 -66 104 -47 26
-66 26 -107 1z"/>
<path d="M1381 3899 l-34 -20 6 -87 c8 -116 16 -153 35 -176 48 -52 137 -63
177 -20 46 49 45 163 -1 241 -42 71 -123 99 -183 62z"/>
<path d="M1934 3878 c-62 -29 -72 -181 -17 -258 33 -47 76 -70 130 -70 78 0
119 58 109 154 -13 130 -128 220 -222 174z"/>
<path d="M2456 3835 c-33 -33 -40 -62 -32 -138 12 -105 67 -165 155 -169 87
-4 127 56 110 166 -5 31 -19 72 -32 91 -48 73 -152 99 -201 50z"/>
<path d="M3260 3639 c-38 -16 -60 -40 -60 -65 0 -31 50 -70 101 -78 38 -6 45
-4 76 26 35 34 43 71 21 101 -16 21 -102 31 -138 16z"/>
<path d="M4163 3768 c-77 -37 -64 -196 24 -285 30 -29 40 -33 87 -33 62 0 79
14 97 80 10 38 9 54 -5 102 -33 114 -123 175 -203 136z"/>
<path d="M5147 3712 c-25 -28 -40 -73 -27 -86 6 -6 53 -13 105 -14 90 -4 95
-3 95 17 0 11 -17 38 -38 61 -33 34 -45 40 -79 40 -25 0 -46 -6 -56 -18z"/>
<path d="M3442 2723 c-51 -25 -56 -42 -41 -156 12 -97 14 -102 51 -139 36 -36
42 -39 90 -36 66 4 90 33 96 117 4 51 0 69 -27 125 -41 87 -104 121 -169 89z"/>
<path d="M80 2823 c-14 -9 -28 -22 -32 -27 -18 -26 3 -228 27 -267 14 -23 55
-46 94 -53 122 -22 182 152 99 291 -39 66 -133 94 -188 56z"/>
<path d="M680 2623 c-30 -11 -60 -47 -60 -71 0 -32 52 -80 95 -88 41 -7 98 16
120 50 19 28 13 94 -8 108 -14 9 -124 9 -147 1z"/>
<path d="M1941 2769 c-35 -21 -69 -85 -53 -101 14 -14 217 -24 225 -11 12 19
-14 71 -46 96 -43 32 -90 38 -126 16z"/>
<path d="M4427 2680 c-31 -24 -46 -78 -26 -91 8 -5 56 -9 107 -9 89 0 92 1 92
23 0 27 -6 35 -48 70 -40 33 -89 35 -125 7z"/>
<path d="M4919 2673 c-13 -9 -30 -23 -36 -31 -14 -18 -17 -58 -5 -66 4 -2 51
-8 105 -12 90 -6 97 -5 97 12 0 24 -40 81 -65 93 -40 19 -71 20 -96 4z"/>
<path d="M5373 2646 c-26 -22 -28 -30 -28 -98 0 -126 59 -208 150 -208 22 0
51 7 63 16 27 19 28 48 3 164 -16 72 -24 89 -55 117 -45 41 -92 44 -133 9z"/>
<path d="M6307 2440 c-27 -31 -21 -67 15 -101 46 -41 97 -40 132 2 28 33 32
53 16 93 -9 24 -14 26 -78 26 -55 0 -71 -4 -85 -20z"/>
<path d="M6762 2427 c-30 -32 -27 -62 8 -97 42 -41 91 -41 131 -1 24 25 28 35
23 63 -10 51 -21 58 -83 58 -47 0 -61 -4 -79 -23z"/>
<path d="M6944 5552 c-19 -13 -44 -56 -44 -77 0 -48 32 -124 68 -163 65 -70
149 -64 168 13 18 72 -35 186 -101 218 -38 18 -73 22 -91 9z"/>
<path d="M7050 4428 c-11 -12 -20 -27 -20 -34 0 -24 42 -64 79 -75 34 -10 42
-9 65 7 20 15 25 28 26 60 0 53 -13 64 -77 64 -41 0 -57 -5 -73 -22z"/>
</g>
</svg>
