<?xml version="1.0" standalone="no"?>
<!DOCTYPE svg PUBLIC "-//W3C//DTD SVG 20010904//EN"
 "http://www.w3.org/TR/2001/REC-SVG-20010904/DTD/svg10.dtd">
<svg version="1.0" xmlns="http://www.w3.org/2000/svg"
 width="720.000000pt" height="1280.000000pt" viewBox="0 0 720.000000 1280.000000"
 preserveAspectRatio="xMidYMid meet">
<metadata>
Created by potrace 1.16, written by Peter Selinger 2001-2019
</metadata>
<g transform="translate(0.000000,1280.000000) scale(0.100000,-0.100000)"
fill="#000000" stroke="none">
<path d="M0 6400 l0 -6400 3600 0 3600 0 0 1025 0 1025 -144 0 -144 0 -4 168
c-7 221 -20 256 -95 236 -14 -4 -24 -17 -28 -35 -6 -27 -10 -29 -50 -29 -37 0
-44 3 -48 23 -4 21 -4 21 -6 -3 -1 -14 -9 -34 -17 -45 -13 -16 -15 -44 -12
-142 2 -84 -1 -126 -9 -134 -6 -6 -9 -18 -6 -25 4 -12 -228 -14 -1473 -14
l-1479 0 -1 247 c-1 137 -7 349 -15 473 -20 320 -17 381 27 650 21 129 38 270
39 312 0 71 -2 79 -29 107 -34 36 -141 82 -246 106 -41 10 -78 21 -82 24 -4 4
-19 49 -32 101 -44 166 -165 530 -223 665 -78 183 -118 257 -171 312 -25 27
-46 54 -46 62 -1 8 -13 23 -27 33 -21 16 -35 18 -73 13 -26 -4 -53 -13 -60
-20 -20 -20 -93 -24 -81 -5 14 23 95 52 128 46 l32 -6 -40 36 c-22 20 -55 43
-73 51 l-33 14 34 40 c19 22 42 61 51 87 10 26 24 63 33 82 8 19 18 63 21 98
2 35 9 59 13 55 13 -13 49 -164 49 -206 0 -93 47 6 49 103 2 96 -46 294 -96
395 -9 17 -32 47 -52 69 -35 38 -33 38 28 1 105 -64 180 -260 152 -400 -5 -27
-8 -52 -5 -54 2 -2 13 17 25 44 30 67 28 195 -4 274 -74 184 -271 353 -414
356 -71 1 -78 14 -48 85 48 110 20 300 -70 485 -39 80 -58 106 -127 170 -138
130 -266 190 -458 215 -183 24 -393 -25 -537 -124 -28 -19 -66 -35 -91 -38
-58 -8 -181 -68 -263 -128 -104 -78 -174 -180 -205 -300 -13 -53 -14 -66 0
-117 19 -78 32 -110 47 -119 9 -5 10 -2 4 12 -4 10 -10 47 -13 81 -4 54 0 71
26 128 33 69 48 86 30 33 -17 -48 -21 -177 -9 -220 10 -33 90 -118 111 -118 4
0 -1 17 -11 37 -10 21 -19 55 -18 78 l1 40 13 -51 c7 -28 16 -57 20 -64 15
-25 17 -125 5 -250 -15 -149 -7 -190 64 -344 26 -55 45 -100 44 -101 -2 -1
-34 -12 -72 -24 -139 -46 -275 -147 -342 -253 -25 -39 -84 -179 -147 -349 -20
-53 -54 -176 -76 -275 -23 -98 -49 -213 -60 -254 -10 -41 -28 -114 -39 -161
-12 -50 -43 -135 -77 -205 -99 -204 -106 -300 -35 -452 36 -76 36 -94 9 -209
-25 -103 -22 -208 7 -290 20 -57 22 -44 -36 -208 -43 -120 -11 -256 77 -321
23 -18 48 -34 55 -36 21 -7 -4 -50 -79 -130 -92 -98 -132 -150 -183 -235 -23
-40 -47 -70 -51 -67 -12 7 -12 3974 0 3974 5 0 14 -7 21 -15 22 -26 75 -18
115 16 35 31 36 31 56 13 12 -11 43 -21 77 -25 31 -3 64 -8 72 -10 11 -3 16 5
18 26 4 40 22 85 34 85 6 0 24 -12 41 -26 27 -23 38 -26 79 -21 45 6 48 5 48
-17 0 -13 9 -31 19 -40 19 -17 19 -16 23 49 4 84 -5 99 -35 62 -14 -17 -37
-30 -59 -33 -30 -5 -38 -2 -56 20 -11 15 -23 32 -25 39 -3 9 -11 9 -35 1 -22
-8 -33 -9 -41 -1 -18 18 -30 -4 -33 -58 -3 -47 -5 -50 -31 -53 -16 -2 -39 4
-53 13 -21 14 -24 21 -18 51 6 31 4 35 -12 33 -11 -1 -32 3 -49 10 -16 7 -40
9 -53 6 -31 -8 -83 -61 -76 -79 3 -8 -3 -19 -15 -26 l-21 -11 0 1566 0 1565
2675 0 c2375 0 2674 -2 2669 -15 -7 -18 21 -92 44 -119 19 -21 72 -50 78 -43
3 2 8 21 11 41 4 29 1 42 -15 59 -12 13 -23 34 -24 47 l-3 25 873 3 872 2 0
1775 0 1775 -3600 0 -3600 0 0 -6400z m6795 3679 c153 -68 200 -265 96 -404
-25 -34 -27 -41 -14 -50 23 -17 -3 -53 -49 -67 -30 -9 -45 -8 -80 5 -34 13
-55 15 -98 8 -30 -5 -63 -13 -73 -16 -53 -21 -137 34 -107 70 11 13 9 19 -8
38 -85 90 -82 268 6 360 77 82 216 105 327 56z m-652 5 c52 -18 116 -76 143
-132 28 -55 26 -174 -4 -229 -50 -95 -136 -143 -256 -143 -209 0 -331 220
-222 402 25 42 43 59 94 85 54 28 75 33 131 33 37 0 88 -7 114 -16z m-5834
-111 c15 -56 71 -300 71 -307 0 -3 -15 -6 -33 -6 -28 0 -34 4 -42 33 -9 29
-14 32 -49 32 -36 0 -40 -3 -48 -32 -8 -29 -13 -33 -42 -33 l-34 0 14 58 c7
31 26 110 41 175 l27 117 43 0 c40 0 43 -2 52 -37z m401 -55 l1 -93 30 38 c23
27 39 37 60 37 16 0 29 -3 29 -6 0 -4 -16 -28 -35 -53 -30 -41 -33 -50 -21
-67 7 -10 25 -40 40 -66 l27 -48 -35 0 c-30 0 -38 5 -57 40 -13 22 -26 40 -31
40 -4 0 -8 -18 -8 -40 0 -38 -2 -40 -30 -40 l-30 0 0 175 0 175 30 0 30 0 0
-92z m1740 -83 l0 -176 -42 1 c-24 1 -55 -1 -69 -5 -19 -5 -33 -1 -55 18 -28
24 -29 29 -29 106 1 69 4 85 22 102 22 22 54 28 91 15 21 -7 22 -5 22 53 l0
61 30 0 30 0 0 -175z m452 83 l3 -92 25 37 c20 30 31 37 58 37 30 0 42 -12 24
-24 -5 -3 -21 -23 -36 -44 l-27 -40 40 -66 41 -66 -35 0 c-30 0 -38 5 -57 40
-13 22 -26 40 -30 40 -5 0 -8 -18 -8 -40 0 -39 -1 -40 -35 -40 l-35 0 0 168
c0 93 3 172 7 175 3 4 19 7 34 7 l28 0 3 -92z m728 28 l0 -65 35 15 c28 11 40
12 58 3 34 -18 37 -27 37 -136 l0 -103 -30 0 -30 0 0 90 c0 75 -3 92 -16 97
-37 14 -49 -10 -52 -101 l-3 -86 -29 0 -30 0 0 175 0 175 30 0 30 0 0 -64z
m530 3 c0 -58 1 -60 23 -53 76 26 107 -8 107 -118 0 -71 -2 -81 -26 -105 -21
-21 -31 -24 -57 -18 -18 4 -49 6 -69 6 l-38 -2 0 176 0 175 30 0 30 0 0 -61z
m-1482 -11 c3 -35 6 -38 33 -38 24 0 29 -4 29 -25 0 -21 -5 -25 -30 -25 l-31
0 3 -67 c3 -66 4 -68 31 -71 21 -3 27 -8 23 -19 -3 -8 -6 -19 -6 -24 0 -16
-73 -10 -92 8 -14 13 -18 31 -18 90 0 66 -2 75 -20 80 -13 3 -20 14 -20 29 0
17 6 24 20 24 17 0 20 7 20 41 0 38 1 40 28 37 23 -3 27 -8 30 -40z m-2094
-58 c24 -24 34 -122 17 -173 -15 -44 -59 -66 -97 -48 -14 6 -27 11 -29 11 -3
0 -5 -29 -5 -65 l0 -65 -30 0 -30 0 0 181 0 182 39 -6 c21 -2 45 -1 52 4 19
12 60 2 83 -21z m402 20 c8 0 23 -9 34 -20 17 -17 20 -33 20 -121 l0 -101 -32
3 c-18 1 -48 -1 -66 -5 -50 -12 -82 13 -82 64 0 44 20 64 83 81 28 7 37 15 35
27 -5 25 -45 27 -58 3 -13 -25 -48 -28 -57 -5 -13 34 56 90 95 78 8 -2 20 -4
28 -4z m293 -1 c38 -14 51 -35 51 -88 l0 -41 -61 0 c-60 0 -60 0 -57 -27 3
-32 44 -46 54 -19 4 10 18 16 35 16 35 0 39 -25 10 -61 -27 -34 -99 -34 -135
0 -23 22 -26 32 -26 96 0 79 20 120 63 128 12 2 25 5 28 6 3 0 20 -4 38 -10z
m199 0 c29 -10 59 -59 45 -73 -15 -15 -51 -5 -56 15 -4 13 -12 20 -24 17 -31
-6 -27 -34 7 -48 78 -32 101 -82 61 -131 -15 -19 -29 -24 -66 -24 -37 0 -51 5
-66 24 -29 36 -25 61 11 61 24 0 30 -4 30 -21 0 -15 5 -20 22 -17 42 6 33 36
-16 58 -54 23 -75 57 -60 98 9 25 45 52 70 52 6 0 25 -5 42 -11z m219 -13 c6
-6 13 -22 15 -36 2 -21 -2 -26 -23 -28 -20 -2 -28 2 -32 18 -4 14 -12 21 -24
18 -29 -5 -21 -32 15 -50 73 -36 92 -81 53 -129 -15 -19 -29 -24 -66 -24 -37
0 -51 5 -66 24 -29 36 -25 61 10 61 21 0 30 -6 34 -21 7 -25 40 -22 45 4 3 12
-9 23 -42 37 -51 21 -70 54 -60 97 12 45 104 65 141 29z m182 13 c17 -6 36
-19 41 -29 6 -10 10 -62 10 -116 l0 -97 -40 6 c-22 3 -43 1 -46 -4 -8 -14 -47
-11 -72 7 -16 11 -22 25 -22 54 0 44 20 64 83 81 28 7 37 15 35 27 -5 25 -45
27 -58 3 -13 -25 -48 -28 -57 -5 -8 23 16 62 46 73 35 13 43 13 80 0z m319
-22 c16 -15 22 -32 22 -64 l0 -43 -61 0 c-60 0 -60 0 -57 -27 3 -32 44 -46 54
-19 8 20 64 22 64 2 0 -69 -102 -98 -158 -45 -19 17 -22 31 -22 98 0 68 3 80
23 98 12 11 29 23 37 26 25 9 73 -4 98 -26z m1000 -3 c19 -21 22 -36 22 -99 0
-70 -1 -74 -32 -100 -27 -23 -39 -26 -71 -22 -59 8 -80 35 -85 107 -3 36 1 72
9 91 24 60 111 73 157 23z m240 9 c8 -11 12 -53 12 -120 l0 -103 -30 0 -30 0
0 90 c0 75 -3 92 -17 97 -32 12 -53 -32 -53 -113 l0 -74 -30 0 -30 0 0 120 0
120 29 0 c16 0 31 -5 33 -12 3 -8 11 -7 29 5 27 20 67 15 87 -10z m530 -9 c15
-17 22 -38 22 -65 l0 -39 -61 0 c-60 0 -60 0 -57 -27 3 -32 44 -46 54 -19 4
10 18 16 35 16 35 0 40 -29 9 -60 -27 -27 -63 -34 -105 -20 -46 15 -55 34 -55
123 0 64 3 76 23 94 12 11 29 23 37 26 28 11 75 -3 98 -29z m542 10 c11 -11
15 -39 15 -117 l0 -102 -32 -3 -33 -3 0 91 c0 72 -3 92 -15 96 -33 13 -45 -15
-45 -102 l0 -84 -35 0 -35 0 0 120 0 120 35 0 c19 0 35 -4 35 -9 0 -6 12 -3
28 4 29 16 58 12 82 -11z m215 -5 c17 -16 21 -36 23 -120 l4 -100 -44 1 c-23
1 -54 -1 -68 -5 -34 -9 -80 27 -80 61 0 42 17 62 70 79 37 12 50 22 50 36 0
26 -36 25 -52 -1 -12 -19 -48 -27 -61 -14 -3 3 -1 19 5 36 20 56 108 72 153
27z m394 20 c36 -13 61 -53 61 -99 l0 -30 -59 0 c-63 0 -76 -8 -66 -40 8 -24
55 -28 55 -5 0 11 11 15 36 15 32 0 35 -2 29 -22 -4 -13 -18 -34 -33 -47 -21
-19 -33 -22 -65 -18 -60 8 -80 35 -85 109 -5 79 9 115 50 133 41 17 38 17 77
4z m204 -3 c15 -8 27 -11 27 -5 0 5 14 9 31 9 l30 0 -3 -154 c-3 -134 -5 -157
-22 -175 -42 -46 -144 -35 -166 19 -7 16 -9 34 -5 39 10 18 44 12 57 -9 27
-42 78 -15 78 41 0 18 -3 20 -12 11 -7 -7 -29 -12 -49 -12 -56 0 -79 34 -79
116 0 72 13 107 44 122 29 14 37 14 69 -2z m285 -22 c19 -22 22 -36 22 -120
l0 -95 -42 1 c-24 1 -54 -1 -68 -5 -36 -9 -80 27 -80 65 0 27 32 70 52 70 5 0
24 7 43 14 25 11 33 19 29 30 -9 22 -41 20 -56 -4 -18 -29 -58 -27 -58 3 0 73
105 101 158 41z m-3048 -94 l0 -120 -35 0 -35 0 0 113 c0 63 3 117 7 120 3 4
19 7 35 7 l28 0 0 -120z m2280 63 c19 -90 25 -92 45 -14 18 68 20 71 48 71 28
0 29 -2 23 -33 -3 -19 -25 -99 -49 -178 l-42 -144 -34 -3 c-28 -3 -33 -1 -27
14 28 74 28 99 -3 207 -18 59 -34 113 -37 122 -5 12 2 15 28 15 34 0 35 -1 48
-57z m-3701 -3169 c-7 -22 -9 -75 -6 -121 6 -105 44 -191 121 -271 45 -48 116
-102 116 -90 0 2 -9 29 -20 61 -28 79 -35 188 -20 286 13 83 24 98 28 39 3
-45 39 -194 53 -219 15 -28 5 -34 -23 -15 -12 9 -28 16 -35 16 -25 0 -13 -17
30 -40 23 -13 87 -67 142 -120 93 -89 145 -131 145 -114 0 4 -15 23 -34 44
-18 21 -43 63 -55 94 -32 85 -25 91 10 9 21 -50 45 -86 80 -120 49 -47 96 -79
106 -70 2 3 -8 28 -22 57 -43 86 -20 68 28 -22 71 -131 94 -242 66 -315 -12
-31 -18 -83 -10 -83 3 0 18 17 32 38 24 33 49 98 90 232 13 42 20 48 87 83 85
45 112 44 142 -6 39 -63 20 -153 -48 -228 -48 -54 -184 -129 -233 -129 -16 0
-29 -4 -29 -9 0 -16 37 -19 76 -5 21 8 40 14 41 14 1 0 5 -17 8 -37 4 -21 9
-45 11 -53 3 -13 106 -84 246 -170 38 -23 49 -37 58 -70 15 -56 5 -95 -39
-143 -21 -24 -28 -36 -16 -30 24 13 59 50 74 80 27 52 1 150 -45 172 -40 18
-184 102 -184 107 0 8 158 -58 270 -114 19 -9 66 -45 103 -80 38 -34 78 -64
90 -66 114 -20 142 -27 151 -36 7 -7 -8 -10 -45 -10 -46 0 -63 -5 -95 -29 -21
-15 -48 -38 -58 -50 -11 -11 -30 -21 -42 -21 -15 0 -22 -5 -18 -13 2 -7 -10
-42 -27 -77 -98 -203 -159 -432 -194 -730 -17 -144 -20 -463 -5 -607 9 -88 8
-105 -9 -154 -10 -30 -22 -74 -26 -98 -5 -32 -13 -44 -31 -51 -13 -5 -33 -24
-44 -42 -25 -40 -60 -150 -60 -187 0 -25 -9 -32 -89 -70 -105 -50 -130 -74
-171 -165 l-31 -69 -107 6 c-192 10 -345 65 -480 172 -74 59 -112 107 -112
141 0 11 9 33 20 49 13 19 20 47 20 78 0 27 4 46 9 43 5 -3 27 -37 50 -75 23
-39 46 -73 53 -77 6 -4 9 -3 6 2 -3 5 -34 59 -68 119 -213 369 -268 571 -272
985 -1 118 -3 181 -5 140 -2 -41 -6 -81 -9 -89 -12 -35 -144 237 -200 411 -15
48 -30 86 -32 84 -15 -16 105 -326 181 -465 38 -69 40 -79 48 -190 4 -64 8
-145 8 -180 l1 -64 -29 40 c-16 22 -41 52 -55 66 -14 14 -26 32 -26 38 0 7 -2
10 -5 7 -5 -5 94 -211 130 -268 12 -19 38 -78 59 -130 40 -99 41 -126 15 -208
l-11 -34 -27 26 c-28 27 -126 76 -151 75 -8 0 11 -11 44 -24 78 -33 177 -121
210 -187 38 -77 36 -138 -10 -224 -41 -77 -41 -91 1 -199 30 -80 29 -132 -4
-174 -45 -57 -81 -135 -81 -174 0 -44 -19 -117 -30 -117 -4 0 -30 44 -56 97
l-49 98 -72 3 c-83 3 -129 -15 -187 -73 -41 -41 -67 -129 -48 -167 10 -21 11
-20 11 15 1 23 5 36 11 32 12 -8 13 -65 1 -84 -8 -12 -18 -7 -50 26 -33 33
-41 48 -42 79 -1 61 -18 116 -40 130 -9 5 -10 2 -6 -9 4 -10 10 -24 13 -32 9
-21 -9 -19 -66 10 -73 37 -120 110 -135 208 -6 36 0 64 29 150 40 117 43 145
21 207 -22 61 -19 188 6 297 24 103 24 102 -35 238 -49 114 -32 229 60 400 48
90 59 123 80 228 14 67 33 154 44 192 11 39 33 135 49 215 31 150 56 228 143
440 55 135 79 178 130 235 64 73 220 162 329 188 24 6 28 1 68 -78 40 -80 44
-85 100 -112 54 -26 60 -32 71 -73 32 -123 125 -252 218 -303 107 -58 225 -67
397 -30 39 8 83 14 99 14 18 -1 36 7 50 21 12 13 35 33 52 46 l29 22 -39 -15
c-21 -8 -46 -15 -55 -15 -9 0 -33 -11 -53 -25 -28 -19 -65 -30 -140 -41 -271
-41 -443 53 -522 286 -32 94 -30 100 41 100 36 0 46 -5 78 -42 20 -24 57 -76
82 -116 25 -40 48 -71 50 -68 6 5 -48 110 -81 159 -14 21 -26 39 -26 41 0 4
118 83 188 126 63 39 64 51 1 16 -62 -34 -211 -83 -296 -97 -141 -23 -186 6
-258 168 -27 60 -67 146 -89 193 l-41 85 1 125 c1 69 2 193 3 275 1 83 5 156
10 164 12 19 67 5 86 -22 8 -11 18 -17 22 -13 12 12 -55 66 -82 66 -14 0 -25
2 -25 4 0 2 9 33 20 68 17 57 115 216 126 206 2 -2 -1 -22 -7 -44z m1302 -856
c11 -61 10 -77 -10 -160 -25 -100 -70 -172 -114 -183 -14 -4 -52 8 -102 31
-44 20 -102 44 -130 54 -38 13 -51 22 -53 39 -3 18 0 22 15 18 10 -3 37 -11
61 -18 51 -15 59 -9 37 25 -22 33 -15 42 47 56 131 31 208 99 208 183 0 18 3
37 7 40 11 12 21 -14 34 -85z m417 -717 c100 -52 197 -213 247 -410 49 -188
73 -475 74 -861 2 -398 -93 -939 -201 -1153 -67 -134 -252 -286 -617 -507
-173 -105 -221 -116 -378 -83 l-81 17 -41 -27 c-30 -20 -53 -27 -90 -27 -46 0
-49 2 -55 30 -17 87 -200 277 -293 305 -17 5 -22 3 -17 -8 5 -14 -51 -45 -62
-34 -13 13 36 94 72 120 21 15 58 41 81 57 32 22 51 48 77 102 39 81 55 95
141 118 l59 15 36 108 c45 135 64 155 187 201 92 34 92 34 99 12 9 -26 35 -68
41 -63 2 3 -5 28 -17 56 -25 65 -25 122 0 196 31 89 42 102 97 110 54 7 133
41 179 76 105 80 279 262 329 344 24 39 12 26 -57 -60 -115 -142 -311 -315
-358 -315 -15 0 -19 14 -25 78 -5 42 -7 93 -6 112 4 71 42 304 49 310 12 7
246 466 267 523 26 69 12 69 -15 0 -28 -71 -111 -239 -173 -350 -25 -45 -50
-98 -57 -117 -12 -37 -30 -57 -30 -34 1 28 31 228 50 326 66 343 157 615 239
717 43 52 157 135 188 135 13 0 40 -9 61 -19z m-2085 -2468 c37 -6 41 -10 79
-90 29 -60 57 -100 101 -145 64 -63 97 -105 97 -124 0 -6 -18 -16 -41 -23 -23
-7 -39 -14 -37 -16 8 -8 209 36 267 59 36 14 73 26 83 26 9 0 38 7 63 16 44
14 48 14 89 -6 24 -11 75 -53 115 -92 l71 -72 -23 -25 c-13 -14 -34 -41 -46
-58 l-22 -33 -295 0 -294 0 16 25 c21 32 8 32 -18 0 -18 -23 -26 -25 -94 -25
-41 0 -74 2 -74 5 0 12 104 136 122 146 11 6 18 13 15 15 -11 12 -42 -15 -102
-87 -41 -50 -73 -79 -85 -79 -26 0 -25 6 7 49 l26 36 -26 -24 c-15 -13 -29
-32 -32 -42 -6 -17 -19 -19 -122 -18 l-115 0 6 37 c36 196 55 345 49 390 -13
100 95 176 220 155z m-423 -237 c0 -35 42 -108 82 -144 21 -19 38 -42 38 -52
0 -10 6 -20 13 -23 6 -2 -26 -2 -73 1 -60 3 -109 -1 -165 -13 -44 -9 -94 -17
-112 -16 -17 1 -34 -3 -38 -9 -3 -5 2 -10 12 -11 16 0 16 -1 -2 -8 -11 -5 -23
-7 -27 -4 -9 5 12 53 23 53 4 0 9 10 11 23 2 12 9 21 15 20 6 -1 14 4 17 13 3
9 2 12 -4 9 -14 -9 31 60 81 122 22 29 46 50 52 46 5 -3 7 -1 4 4 -8 13 27 46
37 36 4 -5 7 -3 6 2 -1 6 -1 15 0 20 3 15 29 -47 30 -69z m132 -264 c6 -6 8
-26 4 -46 l-7 -36 -139 0 c-77 0 -140 2 -140 4 0 2 7 20 15 40 11 25 23 37 43
42 15 3 32 8 37 10 20 8 177 -4 187 -14z"/>
<path d="M6613 9773 c-20 -4 -23 -11 -23 -51 l0 -47 85 0 85 0 0 46 c0 40 -3
48 -22 53 -25 6 -90 6 -125 -1z"/>
<path d="M1394 6154 c3 -10 10 -50 15 -87 10 -70 23 -97 47 -97 33 0 46 90 17
122 -9 10 -12 18 -6 18 20 0 93 -60 115 -95 24 -36 42 -47 31 -18 -4 11 -3 14
5 9 7 -4 12 -3 12 3 0 5 -38 42 -85 81 -59 49 -96 73 -121 77 -32 5 -36 4 -30
-13z"/>
<path d="M6200 8912 c-30 -9 -61 -21 -68 -26 -25 -15 -31 -49 -14 -78 15 -25
15 -30 0 -61 -17 -36 -10 -57 19 -57 18 0 59 44 95 103 16 26 33 47 38 47 12
0 22 49 15 71 -7 22 -13 23 -85 1z"/>
<path d="M6437 8807 c-21 -23 -47 -68 -59 -99 -14 -41 -31 -66 -57 -85 -20
-15 -44 -35 -54 -44 -11 -10 -39 -28 -63 -41 -24 -12 -47 -31 -50 -40 -3 -10
-15 -25 -27 -35 -13 -10 -22 -29 -22 -43 0 -14 -9 -38 -21 -55 -25 -38 -64
-132 -64 -157 0 -25 53 -129 77 -150 24 -22 58 -14 60 15 6 68 123 58 123 -11
0 -19 -6 -22 -42 -24 -78 -3 -83 -4 -80 -19 6 -22 5 -41 -2 -94 -10 -72 1
-125 25 -125 20 0 24 12 32 88 6 53 21 72 57 72 15 0 33 7 40 15 7 8 27 17 46
21 42 8 74 -16 74 -55 0 -14 3 -37 7 -49 5 -21 10 -23 42 -17 20 3 42 14 48
22 14 18 52 20 118 8 32 -5 44 -3 54 9 16 19 32 96 20 96 -10 0 -39 54 -39 73
0 24 52 72 105 98 47 23 84 54 85 72 0 4 -26 6 -57 4 -83 -5 -137 13 -141 46
-2 20 9 38 47 77 33 33 51 61 51 76 0 13 -4 24 -10 24 -5 0 -10 11 -10 24 0
13 -7 29 -15 36 -12 10 -15 32 -13 95 1 56 -2 88 -11 98 -7 9 -40 26 -73 39
-36 14 -68 34 -80 51 -31 43 -74 37 -121 -16z"/>
<path d="M4402 8317 c-6 -7 -32 -18 -59 -25 -26 -8 -61 -20 -78 -28 -107 -49
-178 -73 -235 -79 -93 -9 -187 -45 -175 -65 3 -5 -3 -10 -12 -12 -13 -3 -9 -8
17 -21 44 -22 149 -25 182 -4 12 8 41 18 63 22 46 8 94 35 148 84 32 29 47 35
95 38 84 6 98 10 115 37 15 22 14 25 -4 45 -22 24 -42 27 -57 8z"/>
<path d="M7174 8177 c-51 -54 -102 -81 -143 -75 -65 9 -102 -80 -61 -146 25
-42 53 -46 102 -16 18 11 48 20 65 20 26 0 34 -5 39 -25 3 -14 3 -42 0 -63 -4
-20 -9 -91 -13 -157 -7 -149 -15 -164 -90 -165 -29 0 -54 -4 -54 -10 -1 -5 -2
-14 -3 -19 0 -5 -19 -34 -41 -64 -48 -67 -104 -91 -206 -88 -61 2 -68 -1 -115
-36 -82 -63 -166 -89 -234 -73 -37 9 -54 9 -70 0 -12 -6 -43 -18 -69 -26 -26
-7 -68 -27 -92 -44 -56 -37 -78 -38 -114 0 -44 46 -85 37 -114 -25 -7 -16 -18
-39 -24 -50 -6 -11 -18 -33 -26 -50 -23 -45 -26 -169 -6 -270 19 -92 17 -253
-4 -395 -9 -60 -15 -180 -12 -257 1 -27 10 -39 56 -73 30 -22 58 -40 62 -40 4
0 18 16 31 35 17 27 29 35 53 35 52 0 123 21 142 42 9 11 17 32 18 47 0 14 6
41 13 60 l12 34 17 -26 c9 -14 19 -37 23 -51 3 -15 20 -40 36 -56 25 -25 38
-30 79 -30 l49 0 41 -81 c38 -77 39 -82 23 -100 -9 -10 -28 -19 -41 -19 -36 0
-113 -21 -113 -31 0 -5 -9 -9 -19 -9 -11 0 -23 -5 -27 -11 -5 -8 -40 -10 -120
-5 -63 4 -123 5 -134 1 -27 -8 -49 -54 -60 -121 -5 -32 -20 -68 -34 -87 -35
-46 -35 -105 1 -175 18 -35 31 -51 41 -47 7 3 20 5 28 5 8 0 27 27 44 63 34
74 113 163 155 173 17 4 46 20 66 35 19 15 48 31 65 35 16 4 50 18 75 31 26
13 53 23 60 23 28 1 99 40 99 55 0 27 38 55 74 55 59 0 86 -16 86 -48 0 -33
-36 -122 -50 -122 -5 0 -23 -13 -41 -29 -32 -30 -33 -37 -15 -111 4 -14 4 -39
1 -57 -5 -29 -9 -32 -58 -37 -86 -11 -140 -28 -177 -56 -19 -15 -45 -30 -57
-34 -12 -4 -48 -36 -82 -72 l-60 -65 32 -62 c32 -62 32 -62 80 -65 45 -3 52 0
108 47 34 28 72 54 86 57 31 8 72 -13 84 -42 4 -12 13 -25 18 -29 6 -3 11 -19
11 -34 0 -24 -7 -32 -47 -51 -27 -12 -59 -30 -73 -40 -22 -15 -55 -28 -180
-71 -65 -22 -85 -33 -125 -69 -22 -20 -51 -43 -65 -53 -23 -16 -25 -24 -24
-84 1 -56 4 -69 24 -85 12 -10 18 -18 14 -18 -5 0 -1 -5 9 -11 19 -11 87 5 87
21 0 4 29 8 64 8 36 0 73 5 83 10 10 5 32 12 49 15 26 5 33 2 42 -17 8 -18 5
-35 -11 -76 -23 -55 -33 -65 -79 -74 -15 -4 -33 -12 -40 -19 -8 -6 -27 -19
-43 -27 -22 -11 -32 -27 -41 -62 -6 -26 -10 -49 -8 -51 2 -2 -12 -19 -30 -39
-18 -19 -38 -44 -44 -54 -14 -26 -76 -8 -80 24 -4 26 -20 29 -36 7 -16 -22
-118 -32 -133 -14 -17 20 -20 133 -5 151 8 11 11 40 8 92 -3 66 -2 76 12 76
10 1 -9 14 -41 31 -62 32 -89 31 -118 -2 -9 -11 -21 -19 -27 -19 -31 0 -38
-119 -8 -121 6 0 38 -2 71 -3 l60 -3 3 -40 c3 -37 1 -41 -23 -47 -42 -11 -92
3 -98 26 -5 17 -8 18 -20 7 -8 -8 -13 -16 -11 -18 1 -2 -6 -26 -16 -55 -35
-92 -23 -147 36 -162 26 -7 84 -1 119 11 13 4 16 4 8 -2 -16 -11 -21 -42 -22
-116 -1 -36 -5 -56 -11 -52 -5 3 -10 2 -10 -2 0 -13 53 -68 73 -76 25 -9 57
-67 57 -104 0 -61 15 -81 64 -88 25 -4 62 -13 83 -20 26 -9 43 -10 60 -2 16 7
27 7 38 -3 22 -18 20 -23 -25 -68 -22 -22 -40 -49 -40 -61 0 -12 -7 -38 -15
-58 -8 -19 -15 -50 -15 -67 0 -17 -11 -52 -23 -77 -26 -50 -36 -152 -16 -164
6 -4 15 -1 20 6 6 10 9 11 9 2 0 -7 7 -13 15 -13 11 0 15 -11 15 -40 0 -23 -5
-40 -11 -40 -8 0 -9 -45 -4 -160 5 -115 4 -160 -4 -160 -6 0 -11 -19 -11 -45
0 -27 -11 -72 -26 -107 -14 -34 -27 -69 -29 -77 -2 -9 -19 -41 -39 -71 -28
-42 -36 -65 -36 -100 0 -31 -9 -62 -30 -100 -23 -44 -29 -68 -30 -117 0 -52 3
-64 20 -73 24 -13 66 -4 74 16 3 8 12 14 21 14 8 0 22 17 30 38 17 40 107 132
130 132 20 0 134 119 141 147 5 19 83 63 112 63 5 0 23 7 38 15 16 8 41 15 56
15 17 0 31 8 38 19 16 31 81 65 134 71 45 5 50 8 73 49 23 42 24 51 19 145 -2
56 -8 118 -11 138 -5 25 -1 54 10 85 25 72 31 225 12 303 -9 36 -19 108 -22
161 -6 80 -4 102 10 130 20 39 47 64 91 83 18 8 51 35 74 60 31 33 50 46 70
46 27 0 42 12 90 69 19 22 20 38 20 228 0 111 -3 203 -6 203 -3 0 -41 -25 -84
-55 -113 -80 -140 -75 -165 32 -16 64 -20 234 -7 248 17 19 72 171 87 240 14
61 23 78 68 128 78 85 77 84 77 119 0 74 -5 78 -86 78 -40 0 -85 5 -99 10 -23
9 -26 14 -20 40 10 44 49 110 86 145 19 18 56 80 91 153 l58 124 0 312 0 311
-35 -40 c-70 -81 -87 -96 -108 -93 -38 5 -47 43 -47 208 0 85 5 171 10 190 14
48 47 268 55 362 4 43 11 80 16 84 5 3 9 16 9 30 0 13 15 41 34 62 68 74 66
63 64 604 l-3 487 -21 -22z"/>
<path d="M5153 7920 c-24 -10 -43 -23 -43 -28 0 -4 26 -19 58 -32 31 -13 68
-32 82 -42 22 -16 103 -40 183 -55 26 -5 28 -3 25 18 -2 17 -19 32 -60 54 -31
17 -75 47 -98 68 -49 43 -82 47 -147 17z"/>
<path d="M3559 7749 c-7 -4 -47 -7 -89 -7 -41 1 -90 -2 -108 -6 -27 -7 -32
-11 -26 -29 14 -46 36 -57 115 -57 66 -1 102 4 191 26 32 7 63 38 53 53 -3 6
-18 11 -33 11 -15 0 -41 4 -58 9 -17 5 -37 5 -45 0z"/>
<path d="M6012 7724 c-34 -24 -30 -73 11 -112 18 -18 38 -32 45 -32 54 0 92
69 70 128 -11 30 -16 32 -58 32 -25 0 -56 -7 -68 -16z"/>
<path d="M6855 7730 c-11 -5 -42 -9 -69 -9 -150 -2 -245 -48 -233 -111 12 -56
36 -99 64 -113 46 -24 78 -11 136 56 103 120 122 134 173 128 5 0 21 9 33 20
18 17 20 23 9 30 -17 11 -87 10 -113 -1z"/>
<path d="M5580 7704 c0 -12 28 -33 78 -58 64 -32 82 -58 82 -117 0 -35 9 -63
34 -107 19 -33 32 -62 31 -64 -2 -2 4 -9 14 -15 16 -10 24 -7 53 20 18 18 48
43 67 57 29 22 34 33 39 78 5 53 4 53 -44 98 -27 25 -73 58 -103 74 -50 27
-59 29 -126 23 -49 -4 -74 -2 -79 6 -7 11 -46 16 -46 5z"/>
<path d="M6056 5058 c-17 -10 -55 -18 -189 -42 -55 -10 -77 -39 -77 -100 0
-49 27 -127 48 -140 6 -3 32 7 59 22 27 16 62 33 78 39 16 5 33 18 39 28 6 11
26 35 43 55 18 19 33 40 33 45 0 6 11 27 25 47 14 20 25 42 25 47 0 14 -60 13
-84 -1z"/>
</g>
</svg>
