<?xml version="1.0" standalone="no"?>
<!DOCTYPE svg PUBLIC "-//W3C//DTD SVG 20010904//EN"
 "http://www.w3.org/TR/2001/REC-SVG-20010904/DTD/svg10.dtd">
<svg version="1.0" xmlns="http://www.w3.org/2000/svg"
 width="720.000000pt" height="1280.000000pt" viewBox="0 0 720.000000 1280.000000"
 preserveAspectRatio="xMidYMid meet">
<metadata>
Created by potrace 1.16, written by Peter Selinger 2001-2019
</metadata>
<g transform="translate(0.000000,1280.000000) scale(0.100000,-0.100000)"
fill="#000000" stroke="none">
<path d="M0 6400 l0 -6400 3600 0 3600 0 0 1340 0 1340 -25 0 c-13 0 -36 -5
-50 -12 -22 -10 -25 -17 -25 -57 1 -25 9 -94 19 -153 17 -104 17 -108 -1 -114
-21 -6 -58 4 -58 16 0 5 -13 88 -30 185 -17 97 -30 180 -30 186 0 7 13 9 38 5
53 -9 62 -9 115 5 l47 12 0 257 0 256 -34 12 c-40 15 -92 70 -113 121 -22 52
-21 149 2 187 23 40 64 64 109 64 l36 0 0 1073 0 1072 -30 13 c-22 10 -38 11
-62 3 -68 -21 -154 14 -191 77 -16 27 -17 37 -7 67 14 43 43 58 122 61 72 3
80 8 67 38 -22 47 -99 61 -139 26 -32 -28 -65 -23 -65 9 0 65 141 89 211 36
48 -37 62 -62 78 -141 12 -61 14 9 15 632 l1 702 -28 5 c-34 7 -92 63 -93 91
-3 58 20 85 80 93 40 6 41 7 41 44 0 34 -3 39 -23 39 -13 0 -33 -9 -45 -20
-35 -33 -80 -20 -67 19 9 31 60 54 101 46 l34 -6 0 226 c0 226 0 226 -26 271
-23 38 -26 53 -22 105 3 47 9 63 26 75 l22 15 0 2240 0 2239 -3600 0 -3600 0
0 -6400z m6796 3680 c151 -69 198 -267 95 -405 -25 -34 -27 -41 -14 -50 14
-10 14 -14 -2 -38 -22 -35 -90 -46 -136 -23 -33 16 -80 14 -147 -6 -47 -14
-99 -2 -118 28 -13 20 -14 27 -4 39 11 13 9 19 -8 38 -85 90 -82 268 6 360 77
81 220 106 328 57z m-653 4 c29 -10 64 -34 92 -62 124 -125 89 -333 -68 -412
-133 -66 -310 -20 -370 96 -47 91 -44 191 7 276 25 43 43 59 94 85 54 28 75
33 131 33 37 0 88 -7 114 -16z m-5802 -244 c21 -91 39 -168 39 -172 0 -5 -15
-8 -33 -8 -28 0 -34 4 -42 32 -9 29 -14 32 -50 31 -36 0 -40 -3 -47 -31 -8
-28 -13 -32 -42 -32 l-34 0 14 58 c7 31 26 110 41 175 l27 118 44 -3 45 -3 38
-165z m369 78 l1 -93 30 38 c23 27 39 37 60 37 16 0 29 -3 29 -6 0 -4 -16 -28
-35 -53 -30 -41 -33 -50 -21 -67 7 -10 25 -40 40 -66 l27 -48 -35 0 c-30 0
-38 5 -57 40 -26 45 -39 43 -39 -6 0 -31 -2 -34 -30 -34 l-30 0 0 175 0 175
30 0 30 0 0 -92z m1740 -83 l0 -176 -42 1 c-24 1 -55 -1 -69 -5 -19 -5 -33 -1
-55 18 -28 24 -29 29 -28 107 1 68 4 85 21 102 22 21 54 27 91 14 21 -7 22 -5
22 53 l0 61 30 0 30 0 0 -175z m452 83 l3 -92 25 37 c20 30 31 37 58 37 30 0
42 -12 24 -24 -5 -3 -21 -23 -36 -44 l-27 -40 40 -66 41 -66 -34 0 c-28 0 -38
7 -62 43 l-29 42 -3 -42 c-3 -42 -4 -43 -38 -43 l-34 0 0 175 0 175 35 0 34 0
3 -92z m728 27 l0 -66 30 16 c33 17 60 13 85 -11 11 -12 15 -40 15 -120 l0
-104 -30 0 -30 0 0 90 c0 75 -3 92 -16 97 -37 14 -49 -10 -52 -101 l-3 -86
-29 0 -30 0 0 175 0 175 30 0 30 0 0 -65z m530 4 c0 -58 1 -60 23 -53 76 26
107 -8 107 -118 0 -71 -2 -81 -26 -105 -20 -20 -31 -24 -52 -18 -15 4 -46 6
-69 5 l-43 -1 0 176 0 175 30 0 30 0 0 -61z m-1480 -9 c0 -38 2 -40 30 -40 25
0 30 -4 30 -25 0 -21 -5 -25 -30 -25 l-31 0 3 -67 c3 -66 4 -68 31 -71 21 -3
27 -8 23 -19 -3 -8 -6 -19 -6 -24 0 -16 -73 -10 -92 8 -14 13 -18 31 -18 90 0
66 -2 75 -20 80 -13 3 -20 14 -20 29 0 17 6 24 20 24 16 0 20 7 20 33 0 40 6
47 37 47 20 0 23 -5 23 -40z m-2096 -61 c24 -23 34 -121 17 -172 -15 -44 -59
-66 -97 -48 -14 6 -27 11 -29 11 -3 0 -5 -30 -5 -66 l0 -65 -27 3 -28 3 -3
179 -2 179 37 -5 c21 -3 47 -2 58 3 26 10 55 2 79 -22z m405 20 c44 -16 51
-35 51 -143 l0 -96 -47 -1 c-27 0 -60 -1 -75 -1 -40 -1 -58 19 -58 63 0 43 20
63 83 80 28 7 37 15 35 27 -5 26 -48 28 -55 3 -4 -14 -13 -21 -29 -21 -65 0
-15 96 52 99 6 1 25 -4 43 -10z m290 0 c38 -14 51 -35 51 -88 l0 -41 -61 0
c-60 0 -60 0 -57 -27 3 -32 44 -46 54 -19 4 10 18 16 35 16 35 0 39 -25 10
-61 -15 -19 -29 -24 -66 -24 -39 0 -51 5 -71 28 -20 24 -24 39 -24 96 0 75 21
116 63 124 12 2 25 5 28 6 3 0 20 -4 38 -10z m198 0 c32 -12 43 -26 43 -56 0
-31 -45 -33 -53 -3 -7 26 -47 27 -47 1 0 -11 12 -23 30 -31 78 -32 101 -82 61
-131 -15 -19 -29 -24 -66 -24 -37 0 -51 5 -66 24 -29 36 -25 61 11 61 24 0 30
-4 30 -21 0 -15 5 -20 22 -17 40 5 31 32 -19 58 -91 48 -80 135 19 149 4 1 19
-4 35 -10z m191 0 c29 -10 59 -59 45 -73 -15 -15 -51 -5 -56 15 -4 13 -12 20
-24 17 -29 -5 -21 -32 15 -50 73 -36 92 -81 53 -129 -15 -19 -29 -24 -66 -24
-37 0 -51 5 -66 24 -29 36 -25 61 10 61 21 0 30 -6 34 -21 7 -25 40 -22 45 3
2 12 -11 24 -43 39 -74 35 -86 106 -22 134 39 17 37 17 75 4z m211 0 c17 -6
36 -19 41 -29 6 -10 10 -62 10 -115 l0 -97 -32 3 c-18 1 -48 -1 -66 -5 -50
-12 -82 13 -82 64 0 44 20 64 83 81 28 7 37 15 35 27 -5 25 -45 27 -58 3 -13
-24 -48 -28 -56 -6 -8 20 21 64 49 75 30 12 39 12 76 -1z m318 -21 c17 -16 23
-33 23 -65 l0 -43 -61 0 c-60 0 -60 0 -57 -27 3 -32 44 -46 54 -19 8 20 64 22
64 2 0 -69 -102 -98 -158 -45 -19 17 -22 31 -22 98 0 68 3 80 23 98 12 11 29
23 37 26 25 10 73 -2 97 -25z m1001 -4 c18 -21 22 -36 22 -98 0 -65 -3 -75
-26 -97 -35 -33 -104 -34 -136 -2 -27 28 -37 127 -17 174 24 60 111 73 157 23z
m240 8 c8 -10 12 -52 12 -119 l0 -103 -30 0 -30 0 0 90 c0 75 -3 92 -17 97
-32 12 -53 -32 -53 -113 l0 -74 -30 0 -30 0 0 120 0 120 29 0 c16 0 31 -5 33
-11 2 -6 14 -5 33 5 33 17 63 13 83 -12z m529 -4 c17 -16 23 -33 23 -65 l0
-43 -61 0 c-60 0 -60 0 -57 -27 3 -32 44 -46 54 -19 4 10 18 16 35 16 22 0 29
-5 29 -20 0 -42 -64 -79 -115 -66 -52 13 -65 39 -65 124 0 69 3 81 23 99 12
11 29 23 37 26 25 10 73 -2 97 -25z m540 8 c6 -6 13 -57 16 -118 l5 -108 -34
0 -34 0 0 90 c0 72 -3 92 -15 96 -33 13 -45 -15 -45 -102 l0 -84 -35 0 -35 0
0 120 0 120 35 0 c19 0 35 -4 35 -9 0 -6 12 -3 28 4 28 15 58 12 79 -9z m218
-7 c17 -16 21 -35 23 -120 l4 -100 -44 1 c-23 1 -54 -1 -68 -5 -35 -9 -80 27
-80 64 0 39 19 60 70 75 33 10 46 19 48 35 4 28 -33 29 -50 1 -12 -19 -48 -27
-60 -14 -15 14 11 60 43 77 40 20 84 15 114 -14z m400 16 c37 -15 55 -46 55
-96 0 -29 0 -29 -59 -29 -65 0 -73 -5 -64 -38 6 -26 53 -32 53 -7 0 11 11 15
36 15 32 0 35 -2 29 -22 -4 -13 -18 -34 -33 -47 -21 -19 -33 -22 -65 -18 -59
8 -80 35 -85 107 -5 75 11 118 52 136 39 17 40 17 81 -1z m198 1 c15 -8 27
-11 27 -5 0 5 14 9 31 9 l30 0 -3 -154 c-3 -134 -5 -157 -22 -175 -42 -46
-144 -35 -166 19 -7 16 -9 34 -5 39 10 18 44 12 57 -9 27 -42 78 -15 78 41 0
18 -3 20 -12 11 -7 -7 -29 -12 -49 -12 -56 0 -79 34 -79 116 0 72 13 107 44
122 29 14 37 14 69 -2z m285 -22 c19 -22 22 -36 22 -120 l0 -95 -42 1 c-24 1
-55 -1 -70 -5 -21 -6 -32 -2 -52 18 -48 48 -29 99 44 121 33 10 46 19 48 35 4
28 -33 29 -50 1 -12 -19 -48 -27 -60 -14 -15 14 11 60 43 77 43 22 86 16 117
-19z m-3048 -94 l0 -120 -35 0 -35 0 0 113 c0 63 3 117 7 120 3 4 19 7 35 7
l28 0 0 -120z m2271 103 c0 -10 8 -43 18 -73 l17 -55 19 73 c18 70 20 72 51
72 l32 0 -24 -82 c-79 -281 -76 -273 -113 -276 -28 -3 -33 -1 -27 14 29 76 29
101 -4 209 -17 59 -34 113 -37 121 -4 10 4 14 31 14 27 0 36 -4 37 -17z
m-3691 -660 c0 -16 5 -107 10 -203 19 -328 30 -535 40 -705 14 -248 28 -496
40 -695 5 -96 14 -254 20 -350 5 -96 15 -256 20 -355 10 -177 20 -359 40 -702
18 -315 30 -526 40 -698 11 -194 26 -462 40 -710 6 -93 15 -249 20 -345 6 -96
15 -254 20 -350 6 -96 15 -254 20 -350 11 -187 24 -419 40 -697 6 -95 14 -251
20 -345 5 -95 14 -256 19 -358 6 -102 13 -213 17 -247 l6 -63 -766 0 -766 0 0
3600 0 3600 560 0 560 0 0 -27z m2346 2 c20 -14 45 -25 56 -25 24 0 78 28 78
40 0 6 18 10 40 10 49 0 50 -12 6 -56 -31 -31 -39 -34 -97 -34 -69 0 -130 23
-169 65 l-23 25 36 0 c22 0 50 -10 73 -25z m1174 13 c15 -10 22 -10 32 0 6 6
35 12 63 12 l50 0 -33 -30 -34 -29 86 -89 c47 -49 86 -92 86 -96 0 -3 -12 -6
-26 -6 -19 0 -47 20 -103 75 -43 41 -82 75 -88 75 -17 0 -23 -27 -16 -76 l6
-45 -34 3 c-33 3 -34 4 -46 68 -7 36 -12 84 -13 108 0 38 2 42 25 42 14 0 34
-6 45 -12z m518 -10 c11 -13 30 -43 41 -68 29 -65 20 -70 -104 -55 -55 7 -103
11 -107 9 -12 -7 5 -45 30 -64 44 -35 95 -45 133 -26 30 15 34 15 51 -1 19
-17 19 -18 -2 -35 -16 -13 -40 -18 -84 -18 -77 0 -139 30 -181 90 -25 34 -30
51 -30 98 0 93 -2 92 123 92 100 0 110 -2 130 -22z m696 0 c3 -13 6 -32 6 -44
0 -18 6 -20 63 -20 110 0 156 -43 177 -164 24 -139 24 -150 4 -150 -37 0 -46
18 -64 120 -22 121 -42 150 -101 150 -58 0 -64 -14 -49 -125 7 -52 12 -98 11
-102 0 -5 -13 -8 -28 -8 -28 0 -28 2 -50 110 -12 61 -25 143 -29 183 l-7 72
30 0 c23 0 32 -5 37 -22z m499 -5 c3 -15 3 -42 0 -60 -5 -27 1 -40 30 -77 22
-26 41 -64 48 -92 6 -27 17 -74 25 -105 8 -30 14 -61 14 -67 0 -14 -46 -16
-54 -3 -3 5 -34 7 -68 4 -74 -5 -120 14 -155 67 -30 43 -29 65 5 97 25 23 32
25 94 19 80 -7 91 3 49 44 -36 36 -77 39 -116 8 -21 -16 -31 -19 -44 -11 -27
17 -25 42 7 60 27 15 28 20 24 64 -7 74 -2 79 72 79 61 0 64 -1 69 -27z m371
0 c3 -16 10 -64 16 -108 6 -44 17 -96 25 -115 8 -19 21 -69 29 -110 9 -41 18
-85 22 -97 5 -20 3 -23 -19 -23 -14 0 -28 4 -31 9 -3 4 -36 6 -73 4 -78 -5
-119 13 -153 69 -27 44 -25 62 6 87 22 17 41 21 101 21 l74 0 -16 30 c-10 20
-28 33 -54 41 -35 10 -42 9 -70 -12 -25 -18 -35 -21 -49 -12 -9 6 -15 19 -13
29 2 11 3 63 2 117 l-2 97 99 0 100 0 6 -27z m201 -5 c16 -90 20 -230 8 -246
-32 -43 3 -158 55 -182 46 -21 102 -5 102 30 0 33 -29 133 -41 141 -10 6 -21
72 -35 222 l-7 67 47 0 46 0 0 -43 c0 -62 18 -199 40 -302 26 -126 29 -181 10
-176 -8 2 -46 4 -85 5 -94 3 -148 33 -190 106 -17 29 -20 53 -20 150 0 63 -4
148 -9 188 l-9 72 41 0 c38 0 41 -2 47 -32z m-1314 -13 c43 -6 119 -68 119
-96 0 -30 -32 -23 -74 16 -43 39 -68 49 -102 41 -38 -10 -53 -43 -45 -99 16
-96 115 -149 175 -93 23 20 32 23 48 15 29 -16 19 -51 -22 -72 -75 -39 -183
-1 -238 83 -26 39 -32 59 -32 102 0 32 6 62 15 76 17 23 67 42 100 36 11 -1
36 -5 56 -9z m-3653 -179 c3 -3 8 -42 12 -86 4 -45 11 -85 16 -89 9 -8 188
-31 240 -31 l26 0 -7 84 c-8 90 -3 101 39 90 32 -8 33 -12 46 -164 6 -69 13
-158 17 -198 l6 -73 -39 3 -39 3 -10 93 c-6 59 -15 96 -24 101 -7 5 -52 12
-100 15 -47 4 -103 9 -123 12 l-38 6 3 -99 2 -98 -30 3 c-16 2 -33 7 -38 11
-8 8 -37 411 -31 423 5 7 63 2 72 -6z m722 -194 c48 -24 80 -74 81 -131 1 -49
12 -131 25 -170 7 -23 6 -23 -32 -17 -21 3 -77 7 -124 9 -96 2 -138 20 -170
73 -16 25 -18 37 -10 66 14 49 52 64 153 60 69 -3 77 -1 77 16 0 30 -42 61
-92 68 -40 6 -47 4 -57 -15 -13 -24 -62 -29 -79 -8 -13 16 3 38 43 60 36 20
131 14 185 -11z m235 -87 c14 -33 25 -65 25 -71 0 -18 42 -66 50 -57 3 4 12
28 20 53 28 96 37 121 43 121 4 -1 18 -1 32 -1 21 0 31 -14 74 -106 30 -62 56
-104 63 -102 9 3 26 64 41 148 5 29 18 40 49 40 29 0 30 -1 25 -37 -3 -21 -10
-54 -15 -73 -13 -45 -38 -137 -46 -173 -6 -25 -11 -28 -39 -25 -30 3 -36 10
-87 111 -30 59 -57 107 -61 107 -4 0 -11 -12 -17 -27 -9 -25 -15 -47 -37 -131
-9 -33 -41 -47 -68 -29 -26 17 -151 301 -143 323 5 12 10 12 36 2 24 -10 36
-26 55 -73z m1112 67 c14 -9 29 -72 38 -165 4 -37 11 -69 15 -72 8 -5 48 23
97 68 26 24 36 28 62 22 17 -4 31 -10 31 -15 0 -10 -82 -90 -92 -90 -24 0 1
-41 70 -111 90 -94 100 -115 51 -105 -24 4 -54 27 -103 76 -38 39 -77 70 -88
70 -17 0 -19 -6 -17 -57 3 -55 2 -58 -22 -61 -14 -2 -31 3 -37 10 -12 15 -65
415 -56 429 6 11 35 11 51 1z m-392 -84 c11 -6 32 -22 47 -36 27 -25 30 -34
58 -190 6 -35 13 -69 17 -77 4 -11 -3 -15 -27 -15 -17 0 -39 4 -49 9 -11 6
-33 6 -57 1 -28 -7 -54 -5 -93 6 -86 25 -127 82 -101 144 10 24 21 31 62 40
28 5 72 8 98 4 30 -4 50 -2 54 5 18 28 -46 81 -97 81 -13 0 -36 -9 -51 -21
-34 -27 -71 -22 -71 10 0 39 56 64 130 56 32 -4 68 -11 80 -17z m951 -116 c79
-41 118 -108 112 -190 -8 -88 -58 -121 -163 -107 -66 8 -128 50 -163 110 -18
32 -22 51 -19 97 3 59 22 91 62 109 31 14 128 3 171 -19z m1003 14 c7 -8 20
-61 29 -118 10 -62 22 -103 29 -103 6 0 32 19 56 43 33 30 54 42 76 42 50 0
47 -19 -9 -72 l-53 -49 64 -66 c35 -37 74 -76 87 -88 30 -30 28 -35 -12 -35
-30 0 -42 9 -97 70 -34 39 -70 70 -81 70 -15 0 -18 -8 -18 -60 0 -57 -1 -60
-25 -60 -34 0 -39 15 -70 210 -14 91 -28 180 -31 198 -4 29 -2 32 19 32 14 0
30 -6 36 -14z m-534 -58 c43 -3 50 -6 53 -25 3 -18 -1 -23 -20 -23 -13 0 -34
-3 -47 -7 -23 -6 -23 -8 -17 -87 4 -45 9 -98 13 -118 5 -37 5 -38 -25 -38 -20
0 -32 6 -36 18 -5 14 -46 276 -46 290 0 2 17 2 38 -2 20 -3 60 -7 87 -8z m334
-44 c74 -47 111 -108 111 -182 0 -35 -6 -57 -21 -75 -63 -81 -228 -43 -292 66
-47 79 -34 176 27 203 39 18 139 11 175 -12z m1259 -16 c6 -7 17 -53 26 -103
9 -49 23 -126 31 -170 9 -44 18 -94 21 -112 l6 -31 -73 0 c-112 -1 -153 13
-199 66 -42 47 -60 93 -60 155 0 56 43 97 102 97 24 0 55 -6 70 -14 15 -8 28
-12 31 -10 2 2 0 25 -4 52 -13 76 -11 82 15 82 13 0 28 -6 34 -12z m153 -18
c12 -7 19 -21 19 -39 0 -15 5 -42 11 -58 10 -30 12 -31 74 -31 50 0 72 -5 95
-22 35 -25 70 -87 70 -124 0 -14 4 -35 9 -48 4 -13 11 -44 15 -70 l7 -48 -30
0 c-33 0 -33 1 -51 95 -20 107 -30 134 -57 154 -28 23 -54 26 -84 11 -24 -13
-25 -57 -4 -155 16 -76 10 -91 -28 -81 -21 5 -26 15 -37 73 -6 38 -20 111 -30
163 -33 171 -34 190 -15 190 9 0 25 -5 36 -10z m-715 -46 c41 -26 50 -36 73
-80 26 -48 28 -84 4 -84 -10 0 -58 5 -106 10 -49 6 -93 8 -98 4 -15 -9 21 -61
56 -80 30 -16 88 -16 125 -1 8 4 24 0 35 -9 20 -15 20 -15 -4 -35 -26 -21 -93
-25 -151 -9 -78 21 -149 112 -150 188 0 44 25 96 53 111 31 16 129 7 163 -15z
m-3913 -204 c116 -18 187 -82 187 -170 0 -36 -5 -51 -22 -66 -51 -43 -66 -46
-180 -39 l-110 7 3 -83 4 -84 -31 -3 c-17 -2 -35 3 -41 10 -6 7 -16 83 -22
168 -6 85 -14 184 -18 219 l-6 64 89 -7 c49 -4 115 -11 147 -16z m745 -59 c12
-7 18 -25 20 -68 2 -32 7 -62 12 -67 5 -5 38 -8 74 -7 79 2 137 -23 162 -72
16 -30 46 -253 37 -269 -5 -10 -45 -10 -61 0 -7 5 -17 53 -24 123 -10 103 -14
117 -39 142 -30 30 -70 35 -115 15 l-27 -12 7 -109 c3 -60 7 -113 9 -119 4
-17 -39 -28 -58 -14 -14 10 -21 48 -36 192 -10 98 -19 200 -19 227 0 41 3 47
21 47 11 0 28 -4 37 -9z m-203 -129 c48 -34 86 -96 83 -137 -3 -29 -5 -30 -48
-30 -25 1 -84 5 -132 9 -81 8 -88 7 -88 -9 0 -10 18 -35 40 -57 45 -42 86 -49
161 -27 30 9 42 9 54 -1 21 -17 19 -23 -14 -43 -40 -24 -153 -23 -207 2 -70
32 -124 115 -124 192 0 51 44 109 100 132 35 14 135 -4 175 -31z m630 -51 c3
-6 35 -7 74 -4 58 5 76 2 113 -16 26 -12 51 -33 58 -49 21 -42 50 -265 36
-274 -11 -8 -45 -1 -59 11 -4 4 -13 58 -21 120 -13 103 -17 116 -42 137 -33
29 -94 32 -120 7 -14 -15 -16 -30 -10 -106 4 -49 9 -102 13 -118 5 -28 4 -29
-30 -29 -20 0 -38 4 -41 8 -5 8 -36 274 -36 307 0 17 55 22 65 6z m589 -69
c51 -35 88 -94 84 -135 -3 -36 4 -35 -155 -23 -87 7 -93 6 -93 -11 0 -11 15
-34 34 -52 43 -42 109 -53 150 -26 23 15 30 16 51 5 20 -11 22 -16 13 -27 -40
-49 -145 -55 -226 -14 -83 42 -129 146 -103 232 26 86 154 112 245 51z m394
-28 c18 -13 29 -13 57 -4 69 23 154 -11 186 -73 19 -36 53 -243 43 -259 -8
-13 -50 -9 -62 5 -5 6 -13 44 -17 82 -14 142 -26 171 -82 195 -31 13 -90 -6
-96 -31 -3 -12 1 -64 9 -117 8 -52 14 -99 14 -104 0 -5 -17 -8 -37 -6 l-38 3
-17 130 c-22 176 -22 195 0 195 10 0 28 -7 40 -16z m950 -13 c7 -4 21 -23 30
-42 10 -20 26 -35 39 -37 12 -2 24 -10 27 -19 7 -18 -10 -34 -30 -26 -6 2 -14
0 -17 -4 -6 -10 18 -197 27 -212 4 -5 22 -15 41 -21 38 -13 38 -12 29 -34 -8
-21 -47 -20 -90 0 -45 22 -50 32 -69 148 -17 111 -28 136 -55 136 -26 0 -46
36 -24 44 9 3 25 6 36 6 17 0 19 4 14 25 -10 40 10 57 42 36z m-371 -56 c42
-33 50 -54 69 -170 8 -49 17 -100 21 -112 4 -20 1 -23 -24 -23 -16 0 -34 5
-40 11 -7 7 -23 7 -53 -1 -57 -15 -128 2 -168 41 -81 79 -28 163 102 159 28
-1 57 -1 64 -1 21 2 13 31 -14 56 -33 31 -86 33 -121 5 -31 -24 -61 -26 -70
-4 -8 21 7 45 38 62 41 22 154 9 196 -23z m595 -47 c9 -8 20 -46 28 -103 19
-140 41 -175 105 -175 48 0 65 17 65 63 0 23 -5 60 -9 82 -5 22 -11 58 -13 80
-3 34 0 40 18 43 11 2 26 -3 32 -11 13 -15 48 -190 54 -267 3 -43 2 -45 -22
-42 -14 2 -56 3 -94 2 -76 -1 -148 26 -167 62 -14 26 -49 200 -49 244 0 37 21
46 52 22z m543 -52 c13 -9 28 -11 49 -5 37 11 103 2 136 -18 111 -68 135 -263
37 -304 -27 -11 -43 -10 -127 12 -12 3 -14 -7 -12 -58 l3 -63 -31 0 c-17 0
-33 6 -35 13 -2 6 -20 104 -39 217 -25 152 -31 207 -23 212 16 11 21 10 42 -6z
m520 -47 c21 -6 53 -25 70 -43 27 -26 34 -46 50 -126 10 -52 22 -106 27 -119
12 -33 -1 -42 -42 -27 -23 8 -47 9 -65 4 -86 -23 -195 41 -195 114 0 53 27 72
113 76 40 2 76 8 81 12 5 5 -4 22 -22 39 -37 38 -89 42 -117 11 -26 -29 -59
-22 -63 12 -6 49 73 72 163 47z m214 -33 c5 -6 33 -55 61 -110 36 -66 55 -94
61 -85 4 8 12 49 18 93 6 43 14 82 17 87 8 14 54 11 59 -3 3 -7 -6 -69 -20
-138 -14 -69 -30 -146 -35 -172 -5 -25 -16 -58 -26 -73 -15 -23 -23 -26 -63
-23 -58 4 -63 30 -11 56 53 26 50 50 -21 177 -109 193 -111 198 -98 205 14 9
45 2 58 -14z m-4592 -216 c130 -15 192 -55 200 -133 4 -36 1 -48 -20 -73 l-25
-29 38 -35 c72 -66 64 -152 -17 -190 -43 -20 -53 -21 -174 -12 -71 5 -135 15
-143 21 -9 8 -17 63 -25 184 -6 94 -14 196 -17 225 l-5 52 53 0 c29 0 90 -4
135 -10z m1178 -90 c4 -6 9 -36 12 -68 6 -67 22 -86 61 -71 29 11 94 3 132
-16 69 -36 119 -142 106 -226 -15 -99 -97 -135 -214 -95 -22 8 -48 10 -64 5
-50 -13 -55 0 -78 221 -11 113 -22 217 -24 233 -2 25 0 27 30 27 18 0 36 -5
39 -10z m-778 -170 c6 -58 13 -134 14 -170 l3 -65 -31 -3 c-16 -2 -34 3 -40
10 -9 12 -33 239 -33 311 0 26 2 28 38 25 l37 -3 12 -105z m171 84 c19 -13 28
-14 53 -4 39 16 124 5 161 -21 46 -33 64 -83 77 -213 6 -65 9 -121 7 -124 -3
-2 -21 -1 -40 2 -39 7 -38 6 -51 161 -8 97 -19 121 -66 139 -35 14 -44 14 -74
2 -20 -9 -36 -23 -36 -33 -2 -32 1 -127 7 -185 5 -50 4 -57 -15 -63 -41 -13
-59 10 -65 82 -4 38 -11 107 -16 154 -6 48 -7 94 -4 103 8 20 33 20 62 0z
m1490 -78 c6 -23 16 -33 40 -40 35 -10 46 -46 15 -46 -41 -1 -45 -12 -33 -101
15 -112 27 -149 50 -149 27 0 53 -29 40 -44 -14 -18 -97 -4 -122 21 -15 16
-25 50 -39 144 -10 68 -18 125 -19 126 0 1 -15 6 -32 11 -23 6 -34 15 -36 30
-3 19 1 22 27 22 27 0 31 3 31 28 0 15 5 33 11 39 19 19 58 -6 67 -41z m-261
-25 c58 -27 73 -55 89 -171 8 -56 19 -111 25 -122 23 -42 -22 -65 -67 -34 -13
10 -25 11 -35 5 -22 -13 -116 -11 -153 5 -39 16 -86 73 -86 105 0 62 49 91
155 91 69 0 75 2 75 20 0 58 -106 94 -145 50 -26 -29 -79 -24 -83 7 -8 57 135
84 225 44z m643 -56 c31 -16 66 -54 74 -80 3 -11 12 -63 20 -115 8 -52 18
-105 22 -117 6 -20 3 -23 -23 -23 -16 0 -33 3 -37 7 -4 4 -47 8 -96 8 -96 0
-121 11 -164 68 -16 22 -18 33 -10 64 12 52 56 73 147 71 37 0 70 1 73 5 14
13 -28 66 -61 77 -39 13 -63 8 -95 -20 -13 -11 -31 -20 -41 -20 -45 0 -34 63
14 85 37 16 136 11 177 -10z m394 -38 c61 -34 74 -61 90 -174 8 -55 19 -110
25 -121 6 -11 7 -22 4 -26 -10 -10 -58 -7 -69 4 -7 7 -28 7 -65 0 -44 -8 -64
-7 -99 5 -52 19 -67 30 -87 68 -40 78 26 142 140 135 52 -2 62 0 65 14 2 10
-8 29 -22 43 -32 32 -92 34 -129 5 -42 -33 -86 -23 -73 18 17 53 148 71 220
29z m182 -5 c9 -6 39 -59 113 -200 12 -23 13 -23 25 -5 7 10 17 36 21 58 5 22
9 45 11 50 1 6 5 23 8 39 3 16 10 34 15 39 13 13 61 0 61 -17 0 -8 -20 -97
-45 -198 -40 -161 -50 -186 -76 -210 -33 -32 -79 -37 -104 -12 -18 19 -4 44
25 44 20 0 45 26 54 56 6 21 -14 66 -107 231 -26 45 -49 94 -53 108 -5 21 -3
25 17 25 13 0 29 -4 35 -8z m534 -51 c43 -22 88 -84 100 -135 11 -48 5 -50
-117 -38 -139 13 -147 8 -85 -58 35 -36 44 -40 88 -40 28 0 55 5 61 11 15 15
63 3 63 -16 0 -42 -128 -63 -200 -33 -39 17 -106 85 -120 124 -14 36 -12 115
4 142 33 60 135 82 206 43z m1137 -23 c6 -7 13 -25 17 -40 5 -21 12 -28 31
-28 14 0 29 -8 35 -19 11 -22 0 -34 -23 -25 -24 9 -27 -22 -12 -104 21 -107
31 -129 66 -136 21 -4 29 -11 29 -26 0 -17 -7 -20 -38 -20 -40 0 -75 19 -92
49 -8 17 -29 108 -44 201 -5 30 -12 38 -39 45 -41 13 -50 45 -13 45 23 0 26 4
26 35 0 30 3 35 24 35 13 0 28 -6 33 -12z m-582 -25 c52 -29 77 -79 91 -183 3
-30 13 -72 20 -94 8 -21 14 -40 14 -42 0 -9 -57 -3 -67 7 -9 9 -23 9 -54 1
-100 -25 -199 33 -199 117 0 58 25 75 121 80 90 4 98 14 50 62 -36 36 -70 37
-109 4 -25 -21 -34 -24 -56 -15 -31 11 -32 20 -8 51 30 36 140 43 197 12z
m358 -27 c59 -25 76 -54 103 -177 13 -63 26 -121 27 -129 3 -18 -39 -26 -57
-10 -10 7 -27 8 -55 1 -77 -17 -146 8 -182 65 -51 83 -4 134 122 134 67 0 76
14 34 55 -34 35 -85 37 -121 4 -23 -22 -47 -24 -62 -6 -14 17 0 47 29 63 31
17 121 18 162 0z m433 -34 c6 -4 21 -59 33 -122 12 -63 26 -132 30 -152 9 -41
6 -48 -20 -48 -31 0 -46 27 -59 107 -7 43 -18 107 -26 142 -7 36 -11 68 -8 73
6 10 35 10 50 0z m-4806 -232 c69 -5 197 -14 285 -20 217 -15 377 -29 381 -33
2 -2 11 -84 19 -183 9 -98 22 -237 30 -307 8 -71 15 -146 15 -168 0 -37 -1
-38 -27 -34 -22 4 -497 34 -903 57 l-45 3 -7 90 c-10 130 -29 394 -37 513 l-6
103 85 -6 c47 -3 141 -10 210 -15z m1693 -172 c13 -10 20 -39 27 -122 6 -60
15 -117 21 -128 10 -18 16 -15 75 42 58 56 68 62 96 56 17 -3 34 -9 37 -11 3
-3 -21 -31 -52 -63 -31 -32 -57 -63 -57 -69 0 -6 41 -55 91 -110 l90 -98 -37
-3 c-36 -3 -43 2 -115 75 -43 43 -83 78 -91 78 -9 0 -14 -21 -18 -70 -5 -64
-7 -70 -28 -73 -40 -6 -49 13 -61 131 -7 61 -19 165 -27 231 -9 65 -13 124
-10 132 7 17 37 18 59 2z m-875 -89 c5 -12 39 -12 47 1 13 21 110 11 161 -16
46 -24 50 -25 75 -10 35 21 121 21 165 0 66 -31 84 -79 102 -266 l8 -88 -38 0
c-44 0 -42 -6 -58 150 -13 119 -19 134 -60 155 -37 19 -53 19 -92 -1 l-31 -16
7 -111 c4 -61 9 -121 12 -133 4 -17 0 -23 -19 -28 -56 -14 -62 -1 -73 154 -6
89 -8 96 -39 127 -40 40 -100 46 -130 13 -17 -18 -17 -29 -7 -142 12 -132 10
-141 -38 -136 -20 3 -26 11 -33 43 -15 74 -33 305 -24 314 11 11 61 4 65 -10z
m2036 5 c9 -3 14 -9 11 -14 -2 -4 1 -36 9 -70 l12 -64 86 0 c96 -1 117 -12
149 -78 19 -39 55 -251 45 -267 -4 -6 -18 -11 -32 -11 -31 0 -39 19 -54 135
-15 104 -22 127 -50 155 -27 27 -83 27 -111 -1 -18 -18 -20 -28 -15 -63 16
-98 25 -189 20 -197 -3 -5 -18 -9 -34 -9 -34 0 -34 -2 -55 160 -9 69 -23 163
-31 210 -19 115 -19 120 10 120 13 0 31 -3 40 -6z m-589 -103 c60 -28 75 -50
91 -142 8 -46 20 -110 28 -141 7 -32 10 -60 8 -63 -11 -11 -56 -4 -73 11 -13
12 -22 13 -37 5 -35 -18 -114 -16 -156 4 -40 19 -83 77 -78 105 10 56 15 62
57 81 31 14 62 19 104 17 33 -1 63 0 66 4 13 13 -17 59 -49 74 -39 19 -71 14
-106 -16 -31 -27 -74 -23 -78 6 -2 14 8 30 28 48 27 22 41 26 93 26 39 0 77
-7 102 -19z m2002 -3 c6 -7 18 -61 28 -120 10 -59 22 -113 26 -120 7 -10 23 2
64 45 55 56 68 63 99 51 25 -10 19 -23 -29 -75 -25 -26 -45 -53 -45 -60 0 -6
41 -53 91 -104 81 -83 88 -94 70 -100 -34 -11 -56 2 -125 75 -41 44 -74 70
-87 70 -20 0 -21 -3 -14 -66 l7 -65 -33 3 c-39 4 -34 -13 -79 258 -17 102 -33
193 -36 203 -4 13 1 17 24 17 16 0 34 -6 39 -12z m-1574 -28 c5 -4 21 -99 37
-211 30 -210 29 -227 -9 -256 -21 -17 -73 -16 -96 1 -22 16 -14 46 13 46 42 0
43 18 17 221 -14 106 -23 200 -20 207 5 13 41 9 58 -8z m716 -40 c19 -5 47
-22 63 -37 31 -30 40 -57 63 -184 8 -46 18 -94 21 -106 6 -21 3 -23 -28 -23
-19 0 -38 4 -43 9 -6 5 -30 5 -60 -1 -86 -18 -175 23 -191 89 -20 80 29 123
141 123 52 0 65 3 65 16 0 31 -21 54 -60 65 -36 11 -44 10 -69 -8 -46 -34 -91
-34 -91 0 0 24 22 49 50 60 25 9 103 8 139 -3z m306 -24 c57 -1 60 -2 60 -26
0 -21 -5 -26 -31 -28 -61 -6 -66 -22 -45 -156 20 -126 18 -131 -30 -124 -25 3
-23 -4 -62 243 -16 96 -11 111 28 98 11 -4 47 -7 80 -7z m350 -38 c70 -37 115
-114 115 -196 0 -54 -3 -64 -31 -91 -37 -37 -64 -45 -130 -39 -65 7 -124 47
-161 113 -24 43 -28 59 -25 112 3 67 20 97 69 117 34 15 122 6 163 -16z
m-4118 -473 c1 -16 9 -120 18 -230 20 -266 21 -245 -17 -245 -18 0 -38 4 -44
8 -7 4 -18 94 -28 227 -22 302 -25 277 26 273 39 -3 43 -5 45 -33z m253 -115
c179 6 202 -1 235 -70 20 -40 49 -290 35 -304 -14 -14 -58 -15 -68 -3 -5 7
-14 71 -20 142 -11 126 -12 131 -42 158 -35 31 -76 35 -122 11 l-30 -16 7
-131 c4 -73 8 -136 9 -142 0 -5 -17 -10 -39 -10 l-40 0 -7 55 c-3 30 -9 102
-13 160 -3 58 -8 118 -11 134 l-6 28 43 -6 c24 -4 55 -6 69 -6z m500 -21 c77
2 101 -2 125 -17 49 -31 72 -91 85 -230 6 -68 10 -126 8 -127 -9 -9 -56 -12
-68 -5 -8 5 -17 55 -26 140 -14 141 -21 158 -74 180 -22 9 -37 9 -65 0 -53
-17 -59 -40 -46 -159 17 -154 17 -151 -23 -151 -19 0 -37 4 -40 9 -7 11 -36
282 -36 335 0 38 0 38 33 31 17 -4 75 -6 127 -6z m2684 -8 c3 -5 22 -115 42
-245 27 -168 34 -240 27 -247 -8 -8 -21 -8 -45 0 -23 8 -44 8 -68 1 -47 -14
-108 -3 -150 28 -109 78 -131 257 -39 320 29 20 42 23 87 19 29 -3 60 -11 68
-18 26 -21 32 5 18 73 -7 34 -11 65 -8 70 7 11 61 10 68 -1z m-2149 -25 c11
-8 31 -11 49 -7 66 11 144 4 180 -18 33 -21 37 -21 65 -7 19 10 56 16 99 16
82 0 109 -16 140 -83 21 -44 49 -253 39 -281 -8 -19 -51 -21 -64 -3 -6 6 -16
64 -23 127 -15 140 -21 157 -65 176 -49 20 -72 18 -102 -12 -23 -23 -25 -31
-19 -77 4 -29 9 -89 13 -134 l6 -83 -32 0 c-41 0 -47 15 -61 154 -6 61 -16
118 -21 127 -25 47 -102 64 -147 33 -26 -18 -27 -42 -8 -182 6 -51 9 -97 5
-103 -3 -6 -21 -9 -40 -7 l-34 3 -20 178 c-17 155 -17 179 -5 187 20 13 23 12
45 -4z m3147 -33 c11 -10 18 -30 18 -53 0 -57 19 -103 39 -94 63 26 130 14
180 -32 72 -64 103 -203 61 -272 -30 -48 -58 -58 -128 -43 -31 7 -76 12 -99
12 -23 -1 -45 3 -48 9 -3 5 -15 60 -25 122 -11 62 -28 166 -40 231 -11 66 -17
123 -14 128 8 14 36 11 56 -8z m-2259 -17 c18 -8 44 -25 58 -39 32 -30 62
-104 57 -138 l-3 -24 -127 4 c-125 3 -128 3 -128 -18 0 -26 26 -58 62 -77 35
-18 108 -18 132 1 25 19 36 18 61 -1 20 -15 19 -16 -13 -43 -58 -50 -183 -40
-255 20 -52 43 -77 95 -78 168 -2 59 3 72 44 123 30 38 129 50 190 24z m245
-13 c17 -15 24 -46 42 -181 11 -89 18 -167 15 -172 -7 -12 -45 -13 -61 -2 -6
4 -14 27 -17 52 -3 25 -14 103 -23 173 -15 111 -16 130 -3 138 20 12 24 11 47
-8z m193 -13 c13 -8 31 -7 58 1 92 27 188 -22 209 -106 18 -76 42 -246 37
-256 -9 -14 -65 -11 -71 4 -2 7 -13 69 -23 137 -17 114 -20 125 -47 147 -32
26 -60 29 -99 11 -35 -16 -38 -36 -22 -170 13 -112 12 -118 -5 -124 -47 -15
-54 -2 -76 159 -28 193 -28 207 -1 207 11 0 29 -5 40 -10z m1198 -70 c72 -36
121 -113 124 -193 3 -69 -16 -109 -62 -135 -96 -54 -219 -4 -278 111 -21 42
-24 61 -21 110 4 54 8 63 41 93 33 31 42 34 97 34 41 0 74 -7 99 -20z m409
-19 c144 -74 180 -285 57 -337 -95 -39 -214 15 -264 121 -38 82 -20 188 38
220 38 21 125 19 169 -4z m-4175 -543 c12 -10 18 -38 24 -117 5 -60 13 -106
19 -108 6 -2 60 46 120 107 104 105 111 110 151 110 70 0 70 0 -84 -163 -29
-31 -53 -61 -53 -66 0 -11 52 -71 177 -204 40 -43 73 -83 73 -88 0 -5 -19 -9
-43 -9 -42 0 -46 2 -148 114 -57 63 -111 117 -119 120 -7 4 -25 -2 -40 -12
-24 -18 -25 -24 -25 -113 0 -83 -3 -94 -18 -97 -40 -8 -66 7 -71 41 -11 65
-37 477 -31 487 9 14 48 12 68 -2z m1252 -30 c3 -7 11 -68 18 -136 8 -68 19
-128 26 -135 8 -8 29 7 80 56 68 66 97 79 130 58 11 -7 4 -21 -34 -65 -26 -31
-50 -56 -54 -56 -3 0 -12 -9 -19 -20 -11 -18 -3 -30 81 -121 50 -55 92 -106
92 -112 0 -7 -15 -13 -33 -15 -35 -4 -36 -3 -146 116 -66 72 -80 67 -86 -28
-5 -71 -6 -75 -30 -78 -14 -1 -30 1 -36 5 -10 7 -39 236 -60 471 l-7 72 37 0
c20 0 39 -6 41 -12z m-505 -140 c61 -31 80 -72 91 -200 4 -55 14 -117 20 -136
9 -28 9 -36 -2 -43 -15 -9 -57 -2 -76 14 -9 6 -24 5 -45 -4 -45 -19 -136 -16
-176 5 -86 45 -95 166 -15 206 15 8 66 17 113 20 98 6 108 17 65 69 -23 27
-33 31 -74 31 -38 0 -52 -5 -71 -25 -42 -44 -113 -24 -83 24 25 40 74 61 142
61 49 0 78 -6 111 -22z m321 -1 c56 5 67 3 72 -11 11 -29 -10 -56 -44 -56 -17
0 -40 -5 -51 -11 -19 -10 -20 -16 -13 -160 l7 -149 -36 0 c-20 0 -39 6 -41 13
-5 13 -24 201 -32 309 -5 59 -3 67 13 70 11 3 28 1 40 -3 11 -4 50 -5 85 -2z
m767 -32 c20 -9 47 -26 60 -38 34 -31 74 -114 70 -145 l-3 -27 -134 0 c-95 0
-135 -3 -138 -12 -6 -17 37 -72 69 -89 35 -18 108 -17 132 1 26 20 50 19 67
-1 12 -14 9 -20 -21 -45 -30 -26 -42 -29 -102 -29 -110 0 -169 34 -214 122
-50 99 -23 221 58 258 52 24 106 25 156 5z m542 -16 c92 2 96 1 136 -28 111
-79 129 -297 31 -348 -24 -12 -48 -14 -110 -10 l-79 6 4 -72 3 -72 -31 -3
c-22 -2 -33 2 -38 13 -3 9 -19 127 -36 262 -31 255 -31 275 10 256 8 -4 58 -6
110 -4z m521 -19 c46 -13 115 -72 139 -121 25 -48 27 -147 4 -191 -24 -47 -53
-66 -109 -72 -103 -12 -179 29 -228 125 -24 46 -28 63 -25 116 4 72 26 109 79
135 39 19 88 22 140 8z m464 -29 c46 -20 101 -79 121 -127 19 -46 17 -121 -5
-170 -26 -56 -74 -78 -154 -71 -110 10 -190 91 -202 204 -9 75 12 126 64 160
42 29 119 30 176 4z m267 -36 c14 -51 62 -378 61 -414 -2 -52 -28 -72 -87 -69
-44 3 -51 6 -54 25 -3 17 3 24 22 29 48 12 49 21 21 196 -14 89 -29 187 -32
216 l-6 53 33 -3 c28 -2 35 -8 42 -33z m353 6 c47 -27 71 -72 84 -158 7 -43
20 -102 28 -132 10 -40 11 -56 3 -61 -13 -8 -58 -1 -65 10 -3 5 -28 1 -55 -8
-43 -14 -58 -14 -98 -3 -55 14 -77 32 -103 83 -39 77 31 155 129 140 17 -2 43
-1 57 2 21 5 25 11 20 29 -19 64 -103 88 -146 42 -48 -50 -111 -19 -71 35 38
51 148 62 217 21z m397 -3 c21 -17 91 -428 79 -461 -14 -36 -36 -48 -83 -45
-38 3 -43 6 -43 28 0 17 7 26 25 30 22 5 25 11 25 51 -1 24 -13 113 -28 197
-33 185 -34 212 -9 212 10 0 25 -6 34 -12z m331 -9 c145 -40 215 -279 102
-353 -30 -20 -123 -21 -169 -2 -106 44 -170 215 -115 305 11 18 29 35 40 38
10 3 19 9 19 14 0 12 77 11 123 -2z m-4588 -759 c48 -71 91 -127 96 -124 5 3
37 59 70 125 l60 120 42 -3 c38 -3 42 -5 39 -27 -1 -13 -24 -63 -51 -110 -115
-203 -111 -189 -104 -307 l6 -105 -44 3 -44 3 -8 100 -8 100 -56 83 c-31 46
-62 89 -69 97 -8 7 -14 16 -14 18 0 2 -20 35 -45 71 -25 37 -45 72 -45 77 0 5
20 9 44 9 l44 0 87 -130z m2024 88 c5 -13 17 -88 26 -168 9 -80 22 -193 29
-252 13 -111 10 -128 -24 -128 -37 0 -48 24 -60 125 -6 55 -13 118 -16 140 -2
22 -11 95 -19 163 -9 68 -13 128 -10 133 4 5 20 9 36 9 21 0 32 -6 38 -22z
m196 2 c4 -6 34 -231 37 -277 2 -23 16 -14 85 57 56 57 74 70 100 70 18 0 35
-5 38 -10 4 -6 -21 -42 -55 -80 -34 -38 -60 -74 -58 -79 4 -12 78 -99 141
-167 26 -28 47 -54 47 -57 0 -4 -19 -7 -42 -7 -41 1 -46 4 -108 76 -104 121
-125 121 -125 1 0 -70 -1 -72 -26 -75 -14 -2 -31 3 -37 10 -6 7 -18 74 -26
148 -9 74 -23 185 -31 245 -19 141 -19 153 3 157 20 5 51 -2 57 -12z m1595
-30 c13 -7 21 -26 25 -58 4 -26 11 -62 17 -80 9 -28 14 -33 32 -27 36 12 95
17 121 11 39 -10 103 -73 125 -124 30 -68 28 -176 -5 -224 -28 -42 -72 -56
-133 -42 -20 4 -63 7 -94 6 l-57 -2 -10 53 c-12 59 -44 260 -62 384 -15 108
-7 129 41 103z m424 -9 c20 -8 26 -19 31 -58 4 -26 11 -63 17 -80 9 -32 31
-43 43 -23 10 16 103 12 141 -6 21 -10 40 -30 53 -57 20 -42 61 -237 61 -290
0 -26 -3 -28 -32 -25 -32 3 -33 6 -45 63 -7 33 -17 94 -24 135 -9 59 -17 80
-39 102 -35 35 -79 37 -115 5 l-26 -22 17 -100 c24 -141 24 -179 -1 -183 -11
-1 -26 2 -33 7 -14 9 -105 517 -96 533 7 10 17 10 48 -1z m-3584 -91 c56 -29
97 -95 102 -165 l3 -40 -145 -5 c-162 -6 -172 -11 -129 -71 41 -58 127 -76
187 -39 43 26 69 25 78 -2 5 -17 0 -27 -22 -45 -70 -56 -227 -41 -294 26 -98
100 -84 290 25 345 45 22 147 20 195 -4z m460 -2 c15 -10 26 -10 53 0 48 17
106 15 152 -7 73 -34 111 -95 121 -199 9 -79 -8 -133 -53 -172 l-37 -33 -88 7
-89 6 2 -76 c2 -76 -5 -93 -38 -94 -18 0 -43 29 -43 50 0 10 -11 127 -25 260
-14 134 -24 249 -21 257 7 16 40 17 66 1z m671 -20 c63 -34 75 -60 93 -207 9
-67 20 -130 26 -141 5 -10 10 -23 10 -29 0 -15 -73 -14 -88 1 -9 9 -18 8 -38
-3 -17 -8 -54 -14 -94 -13 -76 1 -111 20 -142 77 -51 96 14 167 152 167 49 0
72 4 76 13 9 24 -14 66 -45 82 -46 23 -79 19 -113 -15 -19 -20 -40 -30 -59
-30 -25 0 -29 4 -29 28 0 31 16 49 65 76 36 20 145 16 186 -6z m1038 -24 c42
-25 93 -106 98 -158 6 -54 19 -49 -138 -46 -78 1 -119 -2 -123 -9 -9 -14 28
-76 57 -96 30 -21 100 -19 144 5 34 18 38 18 55 4 13 -13 15 -21 7 -35 -17
-32 -64 -49 -137 -49 -62 0 -75 4 -118 33 -118 78 -141 248 -46 335 33 30 40
32 105 32 45 0 78 -5 96 -16z m245 -11 c2 -10 12 -72 21 -138 9 -66 19 -144
24 -172 4 -29 6 -55 3 -58 -3 -3 -20 -5 -38 -5 -27 0 -35 5 -39 23 -7 32 -33
221 -41 300 l-6 67 35 0 c25 0 37 -5 41 -17z m186 5 c16 -10 24 -10 40 0 11 6
43 12 72 12 101 0 145 -52 167 -195 7 -44 17 -104 22 -134 5 -30 7 -56 5 -59
-3 -2 -19 -5 -38 -5 l-33 -2 -12 75 c-30 187 -37 214 -62 237 -40 38 -124 24
-135 -23 -3 -12 1 -71 9 -131 9 -59 17 -117 18 -128 2 -16 -5 -21 -35 -23 -44
-4 -38 -20 -67 194 -27 195 -27 194 4 194 14 0 34 -6 45 -12z m-1180 -770 c5
-13 12 -54 15 -91 7 -71 22 -91 50 -67 7 6 43 12 78 12 55 1 69 -2 101 -27 44
-34 59 -79 81 -250 15 -112 14 -121 -2 -132 -26 -20 -52 -15 -62 10 -5 12 -16
80 -24 150 -13 117 -16 130 -42 157 -37 38 -91 41 -131 7 l-27 -23 17 -149
c18 -159 17 -165 -31 -165 -32 0 -42 25 -53 147 -5 59 -15 142 -20 183 -19
132 -29 243 -24 252 3 4 19 8 35 8 21 0 32 -6 39 -22z m-2024 -121 c6 -64 14
-120 17 -124 9 -9 41 22 150 145 l91 102 48 0 c29 0 48 -4 48 -11 0 -12 -26
-42 -142 -167 -70 -76 -73 -67 58 -209 137 -148 156 -171 149 -183 -3 -5 -23
-10 -44 -10 -39 0 -49 9 -256 237 -11 13 -23 23 -26 23 -3 0 -21 -14 -39 -31
l-32 -31 3 -97 4 -96 -38 -3 c-48 -4 -52 7 -62 163 -4 66 -12 183 -19 260 -7
77 -11 144 -8 148 2 4 23 7 45 5 l42 -3 11 -118z m3314 53 c11 -11 20 -28 20
-38 0 -23 19 -42 41 -42 23 0 49 -27 43 -44 -3 -8 -18 -16 -35 -20 -34 -6 -34
-5 -14 -144 17 -121 25 -138 65 -147 36 -8 44 -18 35 -46 -6 -19 -13 -21 -56
-17 -85 8 -97 31 -124 224 -9 59 -20 113 -26 120 -6 7 -22 14 -36 16 -34 4
-54 35 -33 48 8 5 25 10 38 10 19 0 22 5 22 44 0 40 7 53 33 55 4 1 16 -8 27
-19z m1052 -7 c10 -9 18 -26 18 -38 0 -27 18 -45 46 -45 13 0 26 -5 29 -10 9
-15 -4 -51 -18 -49 -33 4 -38 -2 -33 -33 2 -18 10 -71 17 -118 14 -97 31 -130
64 -130 28 0 43 -34 25 -55 -27 -33 -109 -2 -134 48 -8 18 -24 85 -35 151 -22
126 -31 146 -66 146 -21 0 -35 17 -35 40 0 5 12 10 28 12 23 3 27 8 30 38 1
19 5 41 7 48 6 17 35 15 57 -5z m-3882 -83 c11 -11 20 -25 20 -31 0 -7 15 -44
34 -83 19 -39 41 -88 49 -108 27 -64 39 -48 71 87 32 135 36 143 69 151 19 4
34 1 44 -8 12 -13 11 -26 -12 -99 -26 -87 -35 -116 -53 -184 -43 -159 -78
-252 -108 -283 -29 -30 -37 -33 -81 -30 -46 3 -48 4 -48 32 0 26 5 31 35 38
79 20 91 89 36 209 -18 41 -59 125 -90 188 -43 87 -53 117 -45 128 17 19 56
16 79 -7z m439 4 c2 -2 10 -63 17 -136 8 -73 17 -143 19 -156 16 -67 108 -86
164 -32 27 24 31 34 27 62 -3 18 -10 84 -16 147 -12 122 -8 137 35 125 32 -10
43 -32 50 -102 3 -37 11 -120 18 -185 9 -77 9 -121 3 -127 -12 -12 -56 -13
-75 -1 -8 6 -27 3 -50 -6 -48 -20 -142 -13 -178 13 -56 42 -62 60 -80 232 -14
140 -14 165 -2 173 12 7 56 3 68 -7z m671 -3 c19 -10 44 -34 56 -54 24 -42 43
-156 47 -272 l2 -80 -35 0 c-43 0 -45 6 -61 174 -11 106 -16 127 -37 152 -18
22 -33 29 -58 29 -41 0 -89 -22 -98 -46 -6 -16 10 -254 19 -280 9 -27 -64 -49
-80 -24 -8 13 -45 392 -39 402 8 12 52 10 74 -4 16 -11 25 -10 47 4 38 23 119
23 163 -1z m1095 -19 c46 -32 60 -69 76 -207 5 -49 16 -106 24 -126 8 -20 11
-39 8 -43 -10 -10 -68 -7 -80 5 -8 8 -20 6 -44 -7 -74 -38 -181 -13 -226 55
-27 40 -29 71 -7 117 21 44 65 64 156 73 70 6 73 7 70 31 -3 37 -46 70 -90 70
-28 0 -46 -8 -70 -30 -35 -31 -60 -38 -79 -19 -17 17 3 61 40 87 26 18 45 22
107 22 65 -1 80 -4 115 -28z m223 19 c12 -7 62 -306 62 -373 0 -25 -4 -28 -34
-28 -19 0 -37 4 -40 8 -5 8 -18 101 -46 317 -5 38 -6 73 -4 77 7 10 45 10 62
-1z m643 -1 c11 -7 19 -21 19 -38 0 -43 38 -249 49 -270 13 -24 32 -32 80 -32
38 0 81 28 81 54 0 8 -9 73 -20 147 -16 105 -18 134 -8 141 7 4 19 6 26 3 8
-3 18 -5 22 -5 14 0 27 -59 50 -225 12 -82 24 -153 26 -157 7 -10 -43 -21 -62
-14 -9 3 -42 1 -73 -5 -110 -23 -190 18 -210 109 -20 93 -44 270 -38 286 7 18
30 21 58 6z m642 -111 c9 -57 24 -142 32 -188 8 -45 12 -87 9 -92 -7 -13 -61
-11 -69 2 -4 6 -11 38 -15 72 -5 34 -18 116 -29 182 -19 109 -20 121 -5 132
10 7 24 9 37 4 19 -7 25 -24 40 -112z"/>
<path d="M6613 9773 c-20 -4 -23 -11 -23 -51 l0 -47 85 0 85 0 0 46 c0 40 -3
48 -22 53 -25 6 -90 6 -125 -1z"/>
<path d="M2572 8673 c-18 -7 -33 -39 -26 -58 8 -20 56 -45 86 -45 63 1 108 65
65 95 -20 14 -97 19 -125 8z"/>
<path d="M4460 8563 c-41 -52 -15 -148 52 -187 61 -37 138 -4 138 60 0 117
-130 203 -190 127z"/>
<path d="M5270 8480 c-15 -15 -20 -33 -20 -69 0 -42 5 -54 38 -90 47 -53 93
-64 135 -31 57 45 24 164 -54 197 -44 18 -76 16 -99 -7z"/>
<path d="M6532 8362 c-42 -7 -55 -86 -25 -149 29 -61 103 -91 146 -59 16 13
17 20 6 82 -15 94 -59 137 -127 126z"/>
<path d="M2052 8127 c2 -44 9 -82 16 -89 8 -8 47 -14 98 -17 101 -4 134 11
134 60 0 68 -57 104 -181 115 l-71 7 4 -76z"/>
<path d="M6123 7680 c-25 -10 -28 -36 -14 -124 11 -63 45 -96 101 -96 46 0 70
26 70 78 0 94 -87 172 -157 142z"/>
<path d="M2114 7376 c-4 -10 -3 -41 2 -69 l9 -52 93 -3 c90 -3 92 -2 103 22
17 36 -3 79 -44 94 -18 7 -60 15 -94 19 -53 5 -64 3 -69 -11z"/>
<path d="M2129 7183 c-2 -20 2 -101 7 -125 5 -25 9 -27 81 -33 100 -10 143 8
143 58 0 51 -31 83 -91 96 -58 13 -139 15 -140 4z"/>
<path d="M3441 7149 c-23 -9 -23 -13 -19 -82 7 -89 20 -120 64 -141 41 -19 55
-20 87 -5 48 22 60 94 28 165 -10 23 -29 49 -42 58 -26 18 -80 20 -118 5z"/>
<path d="M3872 6978 c-35 -35 12 -98 73 -98 61 0 108 63 73 98 -7 7 -39 12
-73 12 -34 0 -66 -5 -73 -12z"/>
<path d="M4528 6929 c-26 -15 -22 -54 8 -78 34 -27 95 -28 117 -3 22 24 22 78
1 86 -25 10 -107 6 -126 -5z"/>
<path d="M4922 6894 c-29 -20 -28 -35 4 -68 34 -33 90 -36 122 -6 27 26 29 66
3 80 -29 15 -104 12 -129 -6z"/>
<path d="M2134 6586 c-23 -14 -44 -36 -48 -48 -23 -89 25 -142 192 -206 144
-56 184 -101 130 -146 -56 -49 -197 -19 -237 50 -17 28 -26 34 -56 34 -47 0
-47 -27 0 -79 120 -132 395 -113 395 28 0 77 -57 122 -228 182 -81 28 -112 53
-112 87 0 35 8 45 47 61 26 11 43 11 79 2 53 -13 94 -38 94 -56 0 -21 36 -45
68 -45 35 0 39 8 20 43 -44 78 -103 109 -218 114 -77 4 -89 2 -126 -21z"/>
<path d="M2653 6433 c-43 -22 -78 -91 -74 -149 4 -65 23 -104 74 -151 75 -69
202 -81 268 -26 59 50 70 97 44 187 -18 61 -61 111 -120 137 -50 23 -148 24
-192 2z m150 -44 c72 -37 114 -133 87 -198 -25 -61 -102 -78 -165 -37 -54 35
-81 140 -51 194 24 44 85 63 129 41z"/>
<path d="M4441 6114 c-23 -29 -17 -52 21 -78 28 -20 61 -20 97 -1 33 17 42 34
34 67 -9 32 -20 38 -80 38 -44 0 -55 -4 -72 -26z"/>
<path d="M5617 6042 c-23 -25 -21 -45 6 -70 30 -28 97 -30 120 -4 22 24 22 78
1 86 -35 13 -111 6 -127 -12z"/>
<path d="M6214 6118 c-33 -64 4 -171 70 -202 47 -22 73 -20 101 9 18 18 25 35
25 65 0 90 -59 160 -136 160 -39 0 -45 -3 -60 -32z"/>
<path d="M5512 5373 c-20 -8 -42 -59 -42 -95 0 -40 30 -106 58 -132 12 -10 41
-21 66 -23 39 -5 46 -2 60 20 13 19 15 37 11 78 -13 102 -22 124 -60 142 -35
17 -68 20 -93 10z"/>
<path d="M6755 5296 c-15 -11 -17 -22 -12 -72 14 -128 40 -164 120 -164 43 0
67 32 67 88 0 50 -43 136 -76 150 -33 16 -76 15 -99 -2z"/>
<path d="M5923 5336 c-25 -22 -28 -30 -26 -82 4 -94 58 -154 138 -154 83 0
105 136 33 212 -50 54 -101 62 -145 24z"/>
<path d="M6349 5327 c-30 -23 -40 -56 -33 -105 14 -96 62 -145 136 -140 38 3
45 7 63 40 17 33 18 42 7 83 -27 102 -117 165 -173 122z"/>
<path d="M2904 4456 c-28 -13 -44 -33 -44 -57 0 -6 12 -21 26 -34 35 -32 100
-34 138 -4 33 26 37 83 7 99 -27 14 -90 12 -127 -4z"/>
<path d="M4006 4555 c-15 -14 -26 -35 -26 -50 l0 -25 96 0 c94 0 95 0 89 23
-4 12 -21 34 -38 50 -40 35 -85 36 -121 2z"/>
<path d="M4648 4544 c-31 -16 -31 -18 -29 -89 6 -130 34 -174 112 -175 60 0
81 22 87 93 9 118 -88 215 -170 171z"/>
<path d="M5080 4512 c-26 -26 -30 -38 -30 -82 0 -28 6 -66 14 -84 25 -61 116
-103 165 -77 96 52 39 253 -76 268 -37 5 -46 2 -73 -25z"/>
<path d="M5529 4507 c-60 -46 -46 -179 26 -235 33 -26 91 -29 122 -7 63 44 39
184 -40 240 -26 18 -86 19 -108 2z"/>
<path d="M6187 4349 c-64 -18 -74 -53 -26 -93 37 -31 77 -33 113 -5 65 51 1
124 -87 98z"/>
<path d="M6914 4460 c-38 -25 -48 -62 -33 -129 22 -103 124 -165 177 -108 28
30 37 81 23 133 -14 52 -46 89 -93 109 -45 18 -37 19 -74 -5z"/>
<path d="M6322 3594 c-18 -13 -22 -25 -22 -73 0 -32 7 -81 16 -109 13 -39 23
-53 50 -66 45 -21 76 -20 105 3 21 17 24 27 23 88 -1 51 -7 77 -24 106 -36 61
-101 84 -148 51z"/>
<path d="M2909 3650 c-20 -19 -29 -38 -27 -52 3 -22 8 -23 101 -26 97 -3 97
-3 97 22 0 15 -13 35 -35 55 -48 42 -95 42 -136 1z"/>
<path d="M3600 3653 l-35 -18 0 -85 c1 -111 9 -136 48 -160 50 -31 100 -26
131 11 22 25 26 41 26 90 0 126 -83 206 -170 162z"/>
<path d="M4057 3475 c-33 -32 -33 -36 -1 -74 34 -41 97 -44 138 -6 28 25 28
27 16 103 0 1 -28 2 -63 2 -53 0 -66 -4 -90 -25z"/>
<path d="M5104 3622 c-32 -26 -48 -62 -34 -76 6 -6 49 -13 95 -15 84 -3 85 -3
85 21 0 36 -64 88 -107 88 -10 0 -28 -8 -39 -18z"/>
<path d="M5020 2523 c-8 -3 -22 -14 -33 -23 -37 -35 13 -110 73 -110 15 0 42
10 61 23 27 19 34 30 34 58 0 18 -3 40 -8 47 -10 12 -98 16 -127 5z"/>
</g>
</svg>
