<?xml version="1.0" standalone="no"?>
<!DOCTYPE svg PUBLIC "-//W3C//DTD SVG 20010904//EN"
 "http://www.w3.org/TR/2001/REC-SVG-20010904/DTD/svg10.dtd">
<svg version="1.0" xmlns="http://www.w3.org/2000/svg"
 width="720.000000pt" height="1280.000000pt" viewBox="0 0 720.000000 1280.000000"
 preserveAspectRatio="xMidYMid meet">
<metadata>
Created by potrace 1.16, written by Peter Selinger 2001-2019
</metadata>
<g transform="translate(0.000000,1280.000000) scale(0.100000,-0.100000)"
fill="#000000" stroke="none">
<path d="M0 6400 l0 -6400 3600 0 3600 0 0 2082 0 2081 -317 -9 c-175 -5 -568
-8 -873 -6 -1532 7 -2313 13 -2320 17 -5 3 -133 5 -286 5 -172 0 -282 4 -290
11 -15 12 -6 49 15 67 13 11 3 12 -64 7 -132 -10 -132 -10 -131 -56 l1 -41
-374 2 c-206 0 -378 3 -382 6 -4 2 -37 5 -74 5 -38 1 -71 6 -78 14 -7 7 -23
15 -35 19 -12 4 -33 29 -47 55 -20 36 -35 50 -63 60 -113 39 -130 65 -62 95
22 10 40 22 40 27 0 6 4 7 10 4 5 -3 10 -2 10 3 0 13 -25 22 -63 22 -34 0 -65
14 -51 23 5 3 43 4 84 3 53 -1 74 -5 73 -13 -2 -7 4 -10 12 -7 11 4 16 24 17
68 1 33 3 77 4 96 1 19 2 68 3 108 l1 72 75 0 75 0 0 -172 c0 -134 3 -169 12
-160 7 7 22 12 34 12 20 0 22 4 17 34 -4 26 0 39 16 55 12 12 26 19 30 16 5
-2 12 6 15 19 5 22 9 24 38 15 59 -16 95 -12 102 13 3 13 6 127 6 254 0 169 3
235 13 246 8 12 32 18 75 20 34 2 62 0 62 -4 0 -5 5 -8 10 -8 6 0 10 7 10 16
0 15 -12 16 -101 12 -69 -4 -104 -9 -109 -18 -7 -11 -11 -11 -24 0 -9 7 -19
10 -23 6 -3 -3 0 -7 8 -8 8 -1 -26 -4 -76 -8 -154 -10 -1175 -11 -1175 -1 0 5
-28 12 -62 16 -35 3 -92 13 -126 21 -79 19 -202 33 -196 22 3 -4 14 -8 25 -8
11 0 29 -9 41 -20 12 -11 18 -20 12 -20 -5 0 -2 -5 6 -10 11 -8 4 -10 -25 -8
-22 1 -190 -2 -372 -7 l-333 -8 0 105 0 105 48 6 c26 4 213 4 417 2 273 -4
389 -9 442 -20 89 -19 91 -19 67 0 -17 14 -13 15 50 12 49 -1 70 2 73 11 4 9
-11 12 -60 10 -36 -2 -69 1 -73 5 -5 5 -9 173 -9 375 l0 367 60 6 60 6 -57 1
c-58 2 -78 17 -35 25 l22 4 -23 8 c-31 10 -28 25 6 26 l27 1 -30 13 -30 13 25
10 25 10 -28 7 c-26 7 -27 9 -27 76 0 65 2 70 26 79 36 14 148 12 162 -2 13
-13 17 -138 5 -138 -9 0 -9 -76 1 -140 4 -25 8 -204 9 -398 2 -334 1 -352 -16
-352 -10 0 -15 -4 -12 -10 10 -15 55 -12 61 5 4 8 15 15 25 15 24 0 24 5 0 29
-26 26 -34 86 -28 222 8 190 24 225 103 232 45 3 44 4 -16 5 -36 1 -70 6 -76
10 -6 4 -14 57 -18 125 -6 101 -5 118 9 123 14 6 14 8 0 18 -18 14 -19 29 -10
186 10 163 9 161 137 159 54 -1 101 -6 104 -11 7 -10 12 -337 6 -343 -4 -4 -6
-355 -2 -435 l3 -65 7 70 c4 39 8 194 9 346 1 225 4 279 15 288 9 7 40 11 78
9 l63 -3 0 -495 0 -495 65 -3 c47 -3 74 1 98 14 38 20 39 23 10 60 -26 32 -25
8 -20 697 l2 357 109 0 c61 0 112 -4 115 -9 4 -5 7 -260 7 -566 l2 -558 60 7
c33 3 115 6 181 6 l121 0 3 93 c3 110 -7 202 -19 172 -6 -15 -8 -16 -8 -4 -1
21 -31 48 -31 28 0 -8 -6 -5 -15 7 -13 17 -14 17 -15 2 0 -17 -2 -16 -19 1
-19 19 -20 37 -22 265 -2 187 0 248 10 260 9 11 28 15 64 13 l52 -2 0 240 0
240 -350 -3 c-332 -4 -352 -3 -396 16 -26 11 -50 25 -53 31 -4 6 -14 11 -23
11 -11 0 -14 -7 -11 -24 3 -14 0 -27 -6 -29 -13 -5 -849 0 -1221 7 l-270 5 -8
48 c-9 54 0 2311 10 2415 3 37 9 67 12 66 3 0 13 0 21 1 12 1 12 3 2 10 -29
18 495 21 3740 21 l3388 0 0 1775 0 1775 -3600 0 -3600 0 0 -6400z m6786 3682
c159 -63 211 -265 105 -407 -25 -34 -27 -41 -14 -50 24 -18 0 -52 -48 -67 -33
-9 -47 -9 -72 2 -36 16 -116 15 -165 -1 -47 -15 -97 -4 -117 27 -13 20 -14 28
-4 40 10 12 8 19 -9 37 -37 39 -62 108 -62 171 0 78 16 128 58 176 79 93 205
120 328 72z m-643 2 c52 -18 116 -76 142 -130 60 -126 7 -282 -117 -344 -139
-69 -312 -20 -376 106 -42 84 -38 184 12 267 25 41 43 58 94 84 54 28 75 33
131 33 37 0 88 -7 114 -16z m-5806 -224 c52 -224 51 -200 11 -200 -31 0 -36 4
-41 30 -6 27 -11 30 -42 30 -19 0 -38 0 -42 1 -4 0 -11 -14 -16 -30 -7 -27
-12 -31 -41 -31 l-34 0 14 58 c7 31 26 110 41 175 l27 118 44 -3 45 -3 34
-145z m373 58 l1 -93 30 38 c23 27 39 37 60 37 16 0 29 -3 29 -6 0 -4 -16 -28
-35 -54 l-34 -47 28 -45 c56 -89 56 -88 17 -88 -30 0 -38 5 -57 40 -26 45 -39
43 -39 -6 0 -31 -2 -34 -30 -34 l-30 0 0 175 0 175 30 0 30 0 0 -92z m1740
-83 l0 -176 -42 1 c-24 1 -54 -1 -68 -5 -43 -11 -77 25 -85 88 -7 58 7 128 30
147 17 14 51 17 83 6 21 -7 22 -5 22 53 l0 61 30 0 30 0 0 -175z m452 83 l3
-92 25 37 c20 30 31 37 58 37 30 0 42 -12 24 -24 -5 -3 -21 -23 -36 -44 l-27
-40 40 -66 41 -66 -35 0 c-30 0 -39 6 -62 43 l-28 42 -3 -42 c-3 -42 -4 -43
-38 -43 l-34 0 0 168 c0 93 3 172 7 175 3 4 19 7 34 7 l28 0 3 -92z m728 27
l0 -66 30 16 c33 17 60 13 85 -11 11 -12 15 -40 15 -120 l0 -104 -30 0 -29 0
-3 92 c-3 83 -5 93 -22 96 -33 7 -46 -25 -46 -110 l0 -78 -30 0 -30 0 0 175 0
175 30 0 30 0 0 -65z m530 4 c0 -58 1 -60 23 -53 76 26 107 -8 107 -118 0 -71
-2 -81 -26 -105 -20 -20 -31 -24 -52 -18 -15 4 -46 6 -69 5 l-43 -1 0 176 0
175 30 0 30 0 0 -61z m-1480 -9 c0 -38 2 -40 30 -40 25 0 30 -4 30 -25 0 -21
-5 -25 -30 -25 l-31 0 3 -67 c3 -66 4 -68 31 -71 21 -3 27 -8 23 -19 -3 -8 -6
-19 -6 -24 0 -16 -73 -10 -92 8 -14 13 -18 31 -18 90 0 66 -2 75 -20 80 -13 3
-20 14 -20 29 0 17 6 24 20 24 17 0 20 7 20 40 0 38 2 40 30 40 28 0 30 -2 30
-40z m-2096 -61 c24 -23 34 -121 17 -172 -15 -44 -59 -66 -97 -48 -14 6 -27
11 -29 11 -3 0 -5 -30 -5 -66 l0 -65 -27 3 -28 3 -3 179 -2 179 37 -5 c21 -3
47 -2 58 3 26 10 55 2 79 -22z m402 21 c8 0 23 -9 34 -20 17 -17 20 -33 20
-121 l0 -101 -32 3 c-18 1 -48 -1 -66 -5 -50 -12 -82 13 -82 64 0 44 20 64 83
81 28 7 37 15 35 27 -5 26 -48 28 -55 3 -6 -25 -51 -29 -60 -5 -13 34 56 90
95 78 8 -2 20 -4 28 -4z m290 0 c39 -15 53 -39 54 -87 l0 -43 -61 0 c-60 0
-60 0 -57 -27 3 -32 44 -46 54 -19 4 10 18 16 35 16 35 0 39 -25 10 -61 -27
-34 -99 -34 -135 0 -23 22 -26 32 -26 96 0 79 20 120 63 128 12 2 25 5 29 6 4
0 19 -4 34 -9z m201 -1 c32 -12 43 -26 43 -56 0 -31 -45 -33 -53 -3 -7 26 -47
27 -47 1 0 -12 12 -23 33 -31 74 -30 97 -83 58 -131 -40 -50 -151 -22 -151 38
0 31 42 32 62 1 9 -14 20 -19 31 -15 31 12 18 37 -28 57 -75 32 -87 107 -22
135 39 17 39 17 74 4z m197 -3 c31 -13 53 -55 38 -71 -14 -14 -50 -3 -55 16
-4 13 -12 20 -24 17 -29 -5 -21 -32 15 -50 73 -36 92 -81 53 -129 -15 -19 -29
-24 -66 -24 -37 0 -51 5 -66 24 -29 36 -25 61 10 61 21 0 30 -6 34 -21 7 -25
40 -22 45 3 2 12 -11 24 -43 39 -74 35 -85 107 -21 135 39 17 40 17 80 0z
m205 3 c17 -6 36 -19 41 -29 6 -10 10 -62 10 -115 l0 -97 -32 3 c-18 1 -48 -1
-66 -5 -50 -12 -82 13 -82 64 0 44 20 64 83 81 28 7 37 15 35 27 -5 25 -45 27
-58 3 -11 -22 -44 -28 -55 -10 -13 21 5 57 37 72 40 20 46 20 87 6z m319 -22
c16 -15 22 -32 22 -64 l0 -43 -61 0 c-60 0 -60 0 -57 -27 3 -32 44 -46 54 -19
9 23 64 21 64 -2 0 -69 -107 -94 -163 -37 -23 23 -24 151 -1 183 32 46 97 50
142 9z m1000 -3 c18 -21 22 -36 22 -98 0 -58 -4 -76 -20 -94 -43 -45 -130 -36
-157 18 -16 32 -17 121 -1 156 26 56 112 66 156 18z m240 8 c8 -10 12 -52 12
-119 l0 -103 -30 0 -30 0 0 90 c0 99 -12 119 -50 85 -17 -15 -20 -31 -20 -97
l0 -78 -30 0 -30 0 0 120 0 120 29 0 c16 0 31 -5 33 -11 2 -6 14 -5 33 5 33
17 63 13 83 -12z m530 -8 c15 -17 22 -38 22 -65 l0 -39 -61 0 c-60 0 -60 0
-57 -27 3 -32 44 -46 54 -19 4 10 18 16 35 16 35 0 40 -29 9 -60 -27 -27 -63
-34 -105 -20 -46 15 -55 34 -55 123 0 64 3 76 23 94 12 11 29 23 37 26 28 11
75 -3 98 -29z m539 12 c7 -6 13 -53 15 -116 l3 -105 -32 -3 -33 -3 0 91 c0 72
-3 92 -15 96 -33 13 -45 -15 -45 -102 l0 -84 -35 0 -35 0 0 120 0 120 35 0
c19 0 35 -4 35 -9 0 -6 12 -3 28 4 28 15 58 12 79 -9z m221 -12 c19 -22 22
-36 22 -120 l0 -95 -42 1 c-24 1 -54 -1 -68 -5 -35 -9 -80 27 -80 64 0 39 19
60 70 75 33 10 46 19 48 35 4 28 -31 29 -51 0 -22 -30 -63 -23 -59 11 10 70
109 91 160 34z m391 25 c36 -13 61 -53 61 -99 l0 -30 -59 0 c-65 0 -73 -5 -64
-38 6 -26 53 -32 53 -7 0 11 11 15 36 15 32 0 35 -2 29 -22 -13 -43 -42 -63
-90 -63 -64 0 -87 27 -93 105 -5 75 11 118 52 136 38 16 36 16 75 3z m204 -3
c15 -8 27 -11 27 -5 0 5 14 9 30 9 l30 0 0 -149 c0 -134 -2 -151 -20 -174 -41
-52 -147 -44 -170 13 -7 16 -9 34 -5 39 10 18 44 12 57 -9 26 -41 78 -15 78
40 0 17 -3 19 -19 10 -36 -19 -78 -12 -100 16 -16 21 -21 41 -21 90 0 72 13
107 44 122 29 14 37 14 69 -2z m285 -22 c19 -22 22 -36 22 -120 l0 -95 -42 1
c-24 1 -54 -1 -68 -5 -34 -9 -80 27 -80 61 0 42 17 62 70 79 37 12 50 22 50
36 0 26 -36 25 -50 -1 -11 -20 -54 -28 -64 -12 -10 16 29 76 54 84 40 11 83 0
108 -28z m-3048 -94 l0 -120 -35 0 -35 0 0 113 c0 63 3 117 7 120 3 4 19 7 35
7 l28 0 0 -120z m2280 63 c19 -91 25 -93 45 -14 17 70 18 71 50 71 l33 0 -24
-82 c-79 -281 -76 -273 -113 -276 -28 -3 -33 -1 -27 14 29 76 29 101 -4 209
-17 59 -34 113 -37 121 -4 10 4 14 29 14 34 0 35 -1 48 -57z m-4702 -4105 l-3
-353 -28 -3 c-16 -2 -39 4 -53 13 l-24 16 0 339 1 340 55 0 54 0 -2 -352z
m1587 -818 l0 -85 -65 -3 c-36 -2 -93 -1 -127 3 l-63 7 0 61 c0 73 9 92 39 82
14 -4 23 -2 27 8 4 11 25 14 97 13 l92 -1 0 -85z m215 74 c5 -5 6 -78 3 -166
l-6 -158 -83 0 c-45 0 -89 3 -98 6 -14 5 -16 28 -16 148 0 187 2 190 112 184
43 -3 83 -9 88 -14z m-280 -311 l62 -6 -4 -89 c-2 -48 -8 -92 -14 -96 -5 -5
-64 -7 -131 -4 l-123 4 0 93 c0 89 1 94 23 98 37 7 120 7 187 0z m4690 -744
c13 -20 15 -109 18 -673 2 -358 4 -776 5 -929 2 -271 2 -278 -18 -283 -11 -3
-99 -4 -195 -2 l-175 3 -3 55 c-2 30 -8 61 -14 68 -19 22 -14 816 5 912 9 41
12 79 8 85 -4 5 -9 31 -10 57 -2 41 1 48 29 68 17 12 42 25 55 28 33 9 31 25
-4 35 -53 13 -99 109 -69 144 9 11 14 53 15 132 2 64 3 132 4 151 1 19 -2 62
-6 95 -7 57 -6 62 16 73 17 8 71 11 174 8 143 -3 150 -5 165 -27z m-4349 -194
c12 -73 10 -476 -2 -491 -14 -18 -135 -19 -190 -2 -21 6 -45 21 -52 32 -8 12
-17 65 -21 126 -3 58 -9 131 -12 163 -6 55 8 159 26 188 11 16 84 27 175 25
l70 -1 6 -40z m-835 23 c3 -4 7 -22 9 -42 2 -29 -1 -37 -18 -42 l-22 -7 23 -8
c30 -11 28 -25 -10 -43 -27 -14 -101 -16 -580 -16 l-548 0 0 80 0 80 473 3
c526 4 665 3 673 -5z m3814 -230 c8 -13 14 -26 15 -30 0 -3 3 -10 8 -14 4 -4
7 -20 7 -35 0 -31 -18 -39 -97 -39 -60 0 -61 3 -37 67 13 34 22 43 40 43 15 0
24 6 24 15 0 22 23 18 40 -7z m-3796 -165 c3 -21 6 -86 6 -145 l0 -108 -75 0
-75 0 0 139 0 140 33 4 c17 2 48 5 68 5 35 2 37 0 43 -35z m-355 -380 c-2
-103 -5 -113 -30 -113 -41 0 -59 30 -59 100 0 77 5 87 45 93 17 2 34 5 38 6 5
0 7 -38 6 -86z m581 55 c17 -20 18 -37 15 -141 -2 -65 -7 -127 -10 -138 -7
-22 -43 -25 -70 -5 -10 7 -26 11 -36 9 -14 -4 -19 7 -28 59 -6 36 -11 76 -11
91 0 14 -5 38 -10 53 -9 22 -8 29 5 36 8 5 15 16 15 23 0 9 10 15 25 15 14 0
25 -4 25 -10 0 -18 18 -10 23 10 7 27 34 25 57 -2z m-218 -55 c6 -69 1 -525
-7 -602 -4 -42 -2 -56 11 -66 13 -9 14 -16 5 -33 -6 -11 -7 -23 -3 -26 5 -3 6
-24 3 -48 -4 -27 -1 -53 7 -71 9 -18 12 -41 8 -63 l-7 -34 -594 0 -595 0 0
135 0 135 153 2 c83 1 161 1 172 0 11 -1 68 -4 128 -8 59 -4 107 -11 107 -15
0 -5 14 -9 31 -9 16 0 28 4 25 8 -5 8 280 32 374 32 34 0 41 3 32 12 -14 14
-18 664 -4 685 7 11 43 17 118 21 31 2 31 2 36 -55z m3815 -83 l4 -120 -65 0
c-94 0 -125 41 -56 72 16 7 35 23 42 36 11 22 9 27 -25 58 -37 34 -46 57 -26
69 18 12 104 22 113 13 5 -4 11 -62 13 -128z m-2995 -108 c4 -4 9 -171 10
-370 3 -313 1 -364 -12 -372 -8 -6 -77 -9 -155 -7 l-139 2 -1 345 c0 425 -5
408 113 412 103 4 174 0 184 -10z m3000 -307 c2 -49 3 -168 3 -262 l0 -173
-69 0 -70 0 23 21 c25 23 25 52 0 189 -6 36 -14 85 -16 110 -2 25 -6 61 -9 81
-3 19 -1 54 5 77 12 43 25 50 99 49 l32 -1 2 -91z"/>
<path d="M6613 9773 c-20 -4 -23 -11 -23 -51 l0 -47 85 0 85 0 0 46 c0 40 -3
48 -22 53 -25 6 -90 6 -125 -1z"/>
<path d="M3151 6798 c-5 -13 -19 -56 -30 -95 -12 -40 -30 -104 -42 -143 -22
-75 -22 -129 0 -75 7 17 27 78 44 137 32 107 47 133 47 81 0 -41 18 -98 39
-124 17 -21 22 -22 45 -11 15 6 43 39 64 71 20 33 40 60 43 61 4 0 4 -56 1
-125 -4 -112 -3 -125 12 -125 17 0 19 9 16 75 0 22 4 80 9 130 16 136 -11 138
-105 4 -51 -73 -59 -80 -70 -64 -16 21 -36 138 -32 185 4 42 -26 56 -41 18z"/>
<path d="M4009 6638 c-1 -24 -1 -148 0 -160 2 -14 76 -8 99 8 25 17 29 56 7
74 -9 7 -12 22 -9 40 7 33 -24 60 -68 60 -22 0 -28 -5 -29 -22z"/>
<path d="M4160 6565 c0 -76 3 -95 14 -95 10 0 16 13 18 38 3 34 6 37 35 40 30
3 32 1 35 -35 2 -27 8 -39 21 -41 16 -3 18 5 15 90 -2 75 -6 93 -18 93 -10 0
-16 -12 -18 -38 -3 -36 -5 -38 -35 -35 -26 2 -32 8 -33 28 -3 46 -4 50 -19 50
-12 0 -15 -17 -15 -95z"/>
<path d="M3469 6567 c-38 -26 -47 -53 -25 -82 13 -18 25 -20 113 -19 95 2 98
2 101 25 2 13 8 37 14 52 l11 28 28 -27 c24 -23 34 -26 72 -22 42 5 44 4 53
-26 14 -46 25 -38 28 22 4 59 -5 73 -27 42 -8 -12 -30 -23 -49 -26 -31 -5 -38
-2 -56 24 -18 25 -28 29 -62 28 l-40 -1 0 -42 c0 -23 -5 -45 -11 -49 -6 -3
-39 -9 -73 -11 -49 -4 -64 -2 -75 11 -18 22 -7 46 21 46 28 0 71 28 63 41 -11
16 -51 10 -86 -14z"/>
<path d="M3329 6280 c-34 -74 -41 -79 -112 -82 -44 -2 -58 -10 -39 -22 5 -3 7
-30 4 -60 -4 -48 -2 -55 18 -66 29 -15 56 10 100 91 28 52 35 59 63 60 30 2
31 2 5 6 -16 2 -28 5 -28 6 0 1 9 31 20 67 23 76 22 70 11 70 -5 0 -24 -31
-42 -70z"/>
<path d="M3993 6337 c-179 -15 -138 -29 60 -22 180 8 269 -1 314 -30 19 -13
22 -19 12 -36 -22 -42 -192 -126 -293 -144 l-39 -8 6 44 c19 137 20 162 6 157
-22 -7 -30 -56 -34 -193 l-3 -130 -51 0 c-40 -1 -56 -6 -74 -24 -20 -21 -20
-23 -3 -17 46 16 136 19 152 5 13 -11 18 -11 21 -1 3 8 37 12 121 13 130 1
185 14 190 46 6 40 -107 103 -185 103 -38 0 -19 15 49 40 71 26 123 57 153 89
18 21 18 25 4 49 -31 56 -183 78 -406 59z m290 -285 c74 -25 89 -38 64 -57
-21 -15 -155 -28 -232 -23 l-50 3 -3 54 -3 54 83 -6 c46 -3 109 -14 141 -25z"/>
<path d="M4845 6250 c-5 -7 -25 -153 -25 -182 0 -5 -14 -8 -31 -8 -33 0 -89
-46 -89 -74 0 -19 -41 -22 -71 -6 -14 8 -19 21 -19 49 0 33 -3 38 -19 34 -10
-3 -22 0 -25 6 -11 18 -71 13 -98 -9 -36 -27 -53 -72 -38 -99 16 -31 62 -27
103 9 32 27 35 28 50 12 11 -10 43 -20 85 -24 99 -12 106 -11 121 12 16 24 37
26 45 5 4 -11 21 -15 65 -15 33 0 63 -4 66 -10 13 -21 64 -10 99 21 l35 30 28
-20 c21 -14 52 -21 123 -26 64 -5 92 -4 85 3 -5 6 -21 12 -35 14 l-25 3 3 145
c3 128 1 143 -12 130 -13 -14 -42 -218 -34 -249 6 -24 -26 -35 -58 -19 -25 12
-29 19 -28 52 1 34 0 37 -22 32 -12 -3 -26 -2 -29 4 -3 5 -22 10 -41 10 -40 0
-94 -45 -94 -78 0 -30 -56 -44 -89 -23 -16 10 -17 96 -5 219 4 41 3 62 -4 62
-6 0 -14 -4 -17 -10z"/>
<path d="M4810 5622 c0 -5 59 -12 132 -15 196 -10 278 -46 278 -122 0 -88 -61
-145 -203 -190 -111 -36 -110 -36 -103 33 18 180 19 232 3 232 -8 0 -18 -8
-22 -17 -12 -32 -17 -297 -6 -313 7 -10 14 -11 19 -5 4 6 35 16 70 23 101 21
171 52 225 102 46 43 50 50 55 101 4 49 1 58 -24 88 -35 41 -90 66 -182 80
-84 13 -242 15 -242 3z"/>
</g>
</svg>
