<?xml version="1.0" standalone="no"?>
<!DOCTYPE svg PUBLIC "-//W3C//DTD SVG 20010904//EN"
 "http://www.w3.org/TR/2001/REC-SVG-20010904/DTD/svg10.dtd">
<svg version="1.0" xmlns="http://www.w3.org/2000/svg"
 width="720.000000pt" height="1280.000000pt" viewBox="0 0 720.000000 1280.000000"
 preserveAspectRatio="xMidYMid meet">
<metadata>
Created by potrace 1.16, written by Peter Selinger 2001-2019
</metadata>
<g transform="translate(0.000000,1280.000000) scale(0.100000,-0.100000)"
fill="#000000" stroke="none">
<path d="M0 6400 l0 -6400 3600 0 3600 0 0 1085 c0 1059 0 1085 -19 1085 -31
0 -81 65 -81 106 0 46 -24 81 -61 89 -39 9 -49 -1 -79 -75 -20 -50 -34 -67
-73 -92 -44 -30 -47 -34 -48 -77 -1 -25 -1 -51 0 -58 1 -9 -49 -12 -208 -10
-208 2 -209 2 -229 26 -21 27 -21 28 -39 609 -3 111 -10 202 -15 202 -5 0 -9
37 -9 83 -2 209 -6 258 -25 272 -11 8 -27 15 -36 15 -9 0 -24 8 -34 17 -13 13
-43 18 -143 23 -71 3 -136 11 -149 18 -12 7 -68 17 -125 22 -56 5 -106 10
-112 10 -5 1 -1 5 10 9 19 8 -107 21 -250 26 -83 3 -334 33 -370 45 -47 15
-156 32 -202 32 -24 -1 -43 3 -43 7 0 8 -123 23 -235 28 -33 1 -68 3 -77 3
-11 1 -18 9 -18 21 0 11 5 17 10 14 6 -4 19 4 29 17 l19 23 65 -18 c82 -21
108 -21 133 1 97 87 216 191 238 210 9 7 16 21 16 32 0 18 -5 19 -64 13 -56
-5 -65 -3 -74 14 -7 12 -7 25 -1 34 5 7 9 26 9 40 0 14 7 34 15 45 8 10 15 37
15 60 0 34 4 43 25 52 14 7 45 12 69 12 57 0 86 -30 86 -88 0 -25 5 -42 12
-42 6 0 20 -7 29 -16 17 -15 21 -15 53 12 57 48 60 62 52 292 -4 114 -11 254
-16 312 -7 92 -5 125 21 285 35 223 36 249 6 279 -24 24 -109 60 -169 71 -34
6 -37 10 -53 68 -39 143 -100 325 -141 425 -43 104 -107 212 -125 212 -5 0 -9
6 -9 14 0 8 -32 35 -70 62 -70 48 -70 48 -51 68 24 26 56 98 65 150 10 51 22
33 31 -44 5 -41 2 -67 -9 -95 -13 -31 -13 -35 -2 -25 8 6 22 34 32 62 31 96
-1 283 -65 368 l-26 35 32 -23 c68 -48 109 -144 98 -227 -5 -41 -4 -48 7 -37
9 9 13 39 13 90 -1 61 -6 86 -24 121 -49 94 -175 191 -249 191 -40 0 -47 12
-27 49 46 90 -13 297 -116 406 -146 154 -429 190 -610 77 -24 -15 -70 -35
-101 -45 -69 -21 -166 -85 -203 -132 -39 -52 -67 -123 -67 -168 1 -44 22 -79
22 -36 0 13 9 42 19 64 l18 40 -5 -80 -4 -80 50 -46 49 -46 -4 58 c-3 31 -1
59 4 62 5 3 22 -1 37 -9 16 -7 31 -14 35 -14 12 1 -42 40 -55 40 -25 0 8 90
53 147 18 22 18 21 18 -60 0 -71 4 -88 27 -128 26 -45 90 -109 107 -109 5 0 3
17 -5 38 -14 40 -17 162 -4 202 l8 25 1 -25 c1 -25 23 -110 36 -144 7 -16 6
-17 -14 -6 -34 18 -37 4 -4 -16 15 -10 55 -44 89 -76 33 -33 68 -60 76 -62 8
-1 27 -9 41 -19 34 -22 40 -21 32 6 -5 18 -2 16 14 -8 39 -57 53 -134 36 -204
-6 -26 -5 -32 4 -26 17 10 61 104 61 130 0 31 27 63 71 86 38 19 42 19 65 4
19 -12 24 -24 24 -59 0 -75 -65 -144 -157 -169 -24 -6 -43 -15 -43 -19 0 -11
28 -10 50 2 16 8 19 5 25 -20 7 -33 50 -70 133 -116 43 -24 54 -36 63 -67 13
-50 -1 -73 -82 -128 -76 -51 -152 -79 -239 -86 -133 -11 -224 35 -274 140 -41
87 -41 94 -6 102 38 8 52 -2 102 -79 45 -70 50 -63 8 13 -30 54 -31 71 -4 71
8 0 14 3 14 8 0 4 23 20 50 35 28 16 50 30 50 32 0 2 -24 -7 -54 -20 -30 -13
-90 -31 -134 -40 -108 -22 -131 -11 -175 83 -18 41 -32 60 -34 50 -3 -9 -12
-19 -21 -22 -10 -3 -8 -4 6 -3 18 2 29 -9 50 -48 17 -32 40 -57 63 -69 29 -16
40 -30 53 -71 32 -103 111 -175 211 -194 167 -31 435 100 435 212 0 42 -11 57
-59 82 -92 47 -84 54 13 10 57 -26 118 -62 142 -85 28 -26 53 -40 71 -41 16 0
37 -4 48 -8 15 -6 11 -9 -21 -14 -29 -5 -50 -18 -81 -49 -74 -77 -119 -193
-158 -405 -25 -133 -30 -254 -23 -548 1 -53 -25 -133 -48 -145 -20 -11 -56
-93 -59 -135 -1 -13 -19 -29 -55 -48 -71 -37 -77 -43 -106 -99 -24 -47 -25
-48 -72 -48 -62 0 -195 34 -241 62 -53 32 -120 87 -131 108 -8 14 -5 35 10 80
l20 60 -43 87 c-25 49 -53 115 -65 148 -23 69 -52 247 -52 323 0 38 -6 61 -26
89 -37 55 -39 54 -12 -2 20 -40 27 -72 32 -160 l6 -110 -25 30 c-25 29 -26 29
-19 5 4 -14 24 -59 45 -101 55 -107 70 -156 63 -196 -3 -18 -10 -36 -15 -38
-4 -3 7 -26 26 -51 41 -54 46 -103 15 -164 -24 -47 -25 -66 -5 -113 20 -48 19
-99 -3 -128 -31 -43 -39 -64 -47 -117 -4 -29 -11 -52 -16 -52 -5 0 -21 24 -35
54 -34 72 -81 86 -156 44 -46 -26 -68 -63 -67 -110 0 -28 2 -30 9 -13 8 18 9
17 9 -7 2 -58 -53 -11 -63 54 -8 50 -16 64 -26 48 -13 -20 -71 19 -97 66 -16
26 -23 33 -23 20 0 -11 20 -39 45 -63 25 -23 45 -46 45 -50 0 -5 -21 -30 -47
-58 -96 -102 -163 -209 -163 -259 0 -14 12 -37 28 -53 l28 -27 -25 -86 c-18
-61 -25 -109 -26 -172 0 -47 -2 -85 -3 -83 -2 2 -8 28 -12 57 l-8 53 -3 -70
c-7 -200 2 -1510 11 -1520 8 -9 -7 -14 -57 -18 -94 -9 -323 -9 -323 1 0 4 7
16 15 26 43 57 -5 218 -114 379 -56 83 -75 119 -95 176 -13 38 -12 42 5 55 22
15 59 105 79 187 22 90 77 247 98 277 40 56 185 309 203 354 10 26 41 91 68
146 64 128 79 196 63 297 -6 41 -21 94 -33 118 -24 47 -146 167 -226 224 -29
20 -53 40 -53 45 0 18 54 114 85 153 56 69 75 114 75 176 0 48 5 65 35 108 47
71 53 109 26 177 -25 66 -26 90 -6 137 27 65 20 112 -29 196 -44 75 -45 78
-66 251 -40 328 -75 521 -105 579 -40 78 -182 172 -357 235 -51 19 -100 37
-109 41 -15 6 -14 13 7 73 20 56 24 87 24 185 0 71 4 117 10 117 6 0 10 7 10
15 0 8 13 39 30 68 19 34 30 68 30 92 0 42 9 40 27 -8 12 -29 13 -26 10 40 -2
62 -7 78 -34 116 l-31 44 39 17 c38 17 56 43 21 32 -17 -6 -118 38 -157 67
-20 15 -20 16 4 41 l24 26 -39 0 c-21 0 -87 14 -146 31 -104 31 -107 33 -93
53 21 28 19 39 -4 26 -11 -5 -55 -10 -99 -10 -96 0 -184 -15 -234 -41 -48 -24
-51 -24 -44 6 4 14 2 25 -3 25 -19 0 -69 -69 -75 -104 -4 -20 -13 -36 -19 -36
-32 0 -117 -53 -141 -88 -14 -21 -26 -42 -26 -48 0 -5 4 -4 8 1 12 18 64 55
76 55 6 0 2 -8 -10 -18 -82 -68 -131 -257 -89 -347 l13 -30 2 45 2 45 13 -63
c8 -35 25 -82 38 -105 50 -88 111 -183 134 -211 31 -37 30 -38 -106 -97 -122
-53 -351 -175 -430 -228 -63 -43 -142 -130 -186 -204 -36 -62 -62 -175 -90
-387 -13 -102 -30 -205 -39 -230 -8 -25 -24 -92 -36 -150 -35 -171 -37 -177
-66 -184 -79 -20 -214 -201 -214 -286 0 -50 30 -220 51 -291 16 -54 19 -97 19
-238 0 -109 4 -180 11 -194 14 -27 45 -58 51 -51 3 2 38 -12 77 -31 67 -33 78
-36 129 -29 32 3 71 15 89 26 18 10 45 23 61 27 29 9 29 8 67 -88 20 -53 50
-114 65 -136 56 -81 68 -116 63 -177 l-5 -57 50 -50 c47 -48 49 -53 45 -95 -4
-34 1 -57 20 -98 14 -29 28 -69 32 -88 3 -19 7 -42 9 -50 10 -55 45 -144 93
-237 31 -59 68 -151 83 -203 40 -138 46 -150 100 -205 l49 -50 1 -125 c1 -69
-2 -152 -7 -185 l-8 -60 -685 0 -685 0 -3 1982 -2 1982 45 27 c42 24 73 59 62
70 -6 7 -54 -13 -62 -25 -3 -6 -15 -11 -26 -11 -18 0 -19 8 -19 131 0 121 2
133 24 162 13 18 35 52 49 77 35 63 21 93 -25 50 -45 -42 -50 -31 -47 110 3
84 8 133 15 138 23 14 17 92 -7 92 -12 0 -12 1407 0 1415 5 3 12 1 15 -4 9
-13 133 70 148 99 18 35 67 80 87 80 9 0 26 3 39 6 33 9 31 68 -5 102 -26 24
-28 24 -82 11 -31 -8 -62 -13 -68 -13 -7 1 -13 -2 -13 -7 0 -5 -7 -9 -17 -9
-9 0 -31 -12 -50 -26 -27 -21 -37 -23 -48 -14 -16 14 -20 57 -6 79 6 9 11 10
15 2 4 -6 12 -11 18 -11 6 0 8 3 5 7 -4 3 1 11 9 18 12 8 16 26 16 60 -1 50
-14 68 -44 61 -9 -2 -19 3 -22 11 -3 8 -6 134 -6 279 l0 264 3373 0 3373 0 12
-58 c12 -57 29 -83 98 -143 27 -24 40 -41 64 -79 15 -25 22 -4 11 35 -13 48 0
75 35 75 52 0 79 -28 133 -141 72 -150 81 -146 81 34 0 127 -3 148 -24 202
-26 64 -26 75 5 75 19 0 19 25 19 1775 l0 1775 -3600 0 -3600 0 0 -6400z
m6795 3679 c153 -68 200 -265 96 -404 -25 -34 -27 -41 -14 -50 23 -17 -3 -53
-49 -67 -30 -9 -45 -8 -80 5 -34 13 -55 15 -98 8 -30 -5 -63 -13 -73 -16 -53
-21 -137 34 -107 70 11 13 9 19 -8 38 -85 90 -82 268 6 360 77 82 216 105 327
56z m-652 5 c52 -18 116 -76 143 -132 28 -55 26 -174 -4 -229 -50 -95 -136
-143 -256 -143 -209 0 -331 220 -222 402 25 42 43 59 94 85 54 28 75 33 131
33 37 0 88 -7 114 -16z m-5834 -111 c15 -56 71 -300 71 -307 0 -3 -15 -6 -33
-6 -28 0 -34 4 -42 33 -9 29 -14 32 -49 32 -36 0 -40 -3 -48 -32 -8 -29 -13
-33 -42 -33 l-34 0 14 58 c7 31 26 110 41 175 l27 117 43 0 c40 0 43 -2 52
-37z m401 -55 l1 -93 30 38 c23 27 39 37 60 37 16 0 29 -3 29 -6 0 -4 -16 -28
-35 -53 -30 -41 -33 -50 -21 -67 7 -10 25 -40 40 -66 l27 -48 -35 0 c-30 0
-38 5 -57 40 -13 22 -26 40 -31 40 -4 0 -8 -18 -8 -40 0 -38 -2 -40 -30 -40
l-30 0 0 175 0 175 30 0 30 0 0 -92z m1740 -83 l0 -176 -42 1 c-24 1 -55 -1
-69 -5 -19 -5 -33 -1 -55 18 -28 24 -29 29 -29 106 1 69 4 85 22 102 22 22 54
28 91 15 21 -7 22 -5 22 53 l0 61 30 0 30 0 0 -175z m452 83 l3 -92 25 37 c20
30 31 37 58 37 30 0 42 -12 24 -24 -5 -3 -21 -23 -36 -44 l-27 -40 40 -66 41
-66 -35 0 c-30 0 -38 5 -57 40 -13 22 -26 40 -30 40 -5 0 -8 -18 -8 -40 0 -39
-1 -40 -35 -40 l-35 0 0 168 c0 93 3 172 7 175 3 4 19 7 34 7 l28 0 3 -92z
m728 28 l0 -65 35 15 c28 11 40 12 58 3 34 -18 37 -27 37 -136 l0 -103 -30 0
-30 0 0 90 c0 75 -3 92 -16 97 -37 14 -49 -10 -52 -101 l-3 -86 -29 0 -30 0 0
175 0 175 30 0 30 0 0 -64z m530 3 c0 -58 1 -60 23 -53 76 26 107 -8 107 -118
0 -71 -2 -81 -26 -105 -21 -21 -31 -24 -57 -18 -18 4 -49 6 -69 6 l-38 -2 0
176 0 175 30 0 30 0 0 -61z m-1482 -11 c3 -35 6 -38 33 -38 24 0 29 -4 29 -25
0 -21 -5 -25 -30 -25 l-31 0 3 -67 c3 -66 4 -68 31 -71 21 -3 27 -8 23 -19 -3
-8 -6 -19 -6 -24 0 -16 -73 -10 -92 8 -14 13 -18 31 -18 90 0 66 -2 75 -20 80
-13 3 -20 14 -20 29 0 17 6 24 20 24 17 0 20 7 20 41 0 38 1 40 28 37 23 -3
27 -8 30 -40z m-2094 -58 c24 -24 34 -122 17 -173 -15 -44 -59 -66 -97 -48
-14 6 -27 11 -29 11 -3 0 -5 -29 -5 -65 l0 -65 -30 0 -30 0 0 181 0 182 39 -6
c21 -2 45 -1 52 4 19 12 60 2 83 -21z m402 20 c8 0 23 -9 34 -20 17 -17 20
-33 20 -121 l0 -101 -32 3 c-18 1 -48 -1 -66 -5 -50 -12 -82 13 -82 64 0 44
20 64 83 81 28 7 37 15 35 27 -5 25 -45 27 -58 3 -13 -25 -48 -28 -57 -5 -13
34 56 90 95 78 8 -2 20 -4 28 -4z m293 -1 c38 -14 51 -35 51 -88 l0 -41 -61 0
c-60 0 -60 0 -57 -27 3 -32 44 -46 54 -19 4 10 18 16 35 16 35 0 39 -25 10
-61 -27 -34 -99 -34 -135 0 -23 22 -26 32 -26 96 0 79 20 120 63 128 12 2 25
5 28 6 3 0 20 -4 38 -10z m199 0 c29 -10 59 -59 45 -73 -15 -15 -51 -5 -56 15
-4 13 -12 20 -24 17 -31 -6 -27 -34 7 -48 78 -32 101 -82 61 -131 -15 -19 -29
-24 -66 -24 -37 0 -51 5 -66 24 -29 36 -25 61 11 61 24 0 30 -4 30 -21 0 -15
5 -20 22 -17 42 6 33 36 -16 58 -54 23 -75 57 -60 98 9 25 45 52 70 52 6 0 25
-5 42 -11z m219 -13 c6 -6 13 -22 15 -36 2 -21 -2 -26 -23 -28 -20 -2 -28 2
-32 18 -4 14 -12 21 -24 18 -29 -5 -21 -32 15 -50 73 -36 92 -81 53 -129 -15
-19 -29 -24 -66 -24 -37 0 -51 5 -66 24 -29 36 -25 61 10 61 21 0 30 -6 34
-21 7 -25 40 -22 45 4 3 12 -9 23 -42 37 -51 21 -70 54 -60 97 12 45 104 65
141 29z m182 13 c17 -6 36 -19 41 -29 6 -10 10 -62 10 -116 l0 -97 -40 6 c-22
3 -43 1 -46 -4 -8 -14 -47 -11 -72 7 -16 11 -22 25 -22 54 0 44 20 64 83 81
28 7 37 15 35 27 -5 25 -45 27 -58 3 -13 -25 -48 -28 -57 -5 -8 23 16 62 46
73 35 13 43 13 80 0z m319 -22 c16 -15 22 -32 22 -64 l0 -43 -61 0 c-60 0 -60
0 -57 -27 3 -32 44 -46 54 -19 8 20 64 22 64 2 0 -69 -102 -98 -158 -45 -19
17 -22 31 -22 98 0 68 3 80 23 98 12 11 29 23 37 26 25 9 73 -4 98 -26z m1000
-3 c19 -21 22 -36 22 -99 0 -70 -1 -74 -32 -100 -27 -23 -39 -26 -71 -22 -59
8 -80 35 -85 107 -3 36 1 72 9 91 24 60 111 73 157 23z m240 9 c8 -11 12 -53
12 -120 l0 -103 -30 0 -30 0 0 90 c0 75 -3 92 -17 97 -32 12 -53 -32 -53 -113
l0 -74 -30 0 -30 0 0 120 0 120 29 0 c16 0 31 -5 33 -12 3 -8 11 -7 29 5 27
20 67 15 87 -10z m530 -9 c15 -17 22 -38 22 -65 l0 -39 -61 0 c-60 0 -60 0
-57 -27 3 -32 44 -46 54 -19 4 10 18 16 35 16 35 0 40 -29 9 -60 -27 -27 -63
-34 -105 -20 -46 15 -55 34 -55 123 0 64 3 76 23 94 12 11 29 23 37 26 28 11
75 -3 98 -29z m542 10 c11 -11 15 -39 15 -117 l0 -102 -32 -3 -33 -3 0 91 c0
72 -3 92 -15 96 -33 13 -45 -15 -45 -102 l0 -84 -35 0 -35 0 0 120 0 120 35 0
c19 0 35 -4 35 -9 0 -6 12 -3 28 4 29 16 58 12 82 -11z m215 -5 c17 -16 21
-36 23 -120 l4 -100 -44 1 c-23 1 -54 -1 -68 -5 -34 -9 -80 27 -80 61 0 42 17
62 70 79 37 12 50 22 50 36 0 26 -36 25 -52 -1 -12 -19 -48 -27 -61 -14 -3 3
-1 19 5 36 20 56 108 72 153 27z m394 20 c36 -13 61 -53 61 -99 l0 -30 -59 0
c-63 0 -76 -8 -66 -40 8 -24 55 -28 55 -5 0 11 11 15 36 15 32 0 35 -2 29 -22
-4 -13 -18 -34 -33 -47 -21 -19 -33 -22 -65 -18 -60 8 -80 35 -85 109 -5 79 9
115 50 133 41 17 38 17 77 4z m204 -3 c15 -8 27 -11 27 -5 0 5 14 9 31 9 l30
0 -3 -154 c-3 -134 -5 -157 -22 -175 -42 -46 -144 -35 -166 19 -7 16 -9 34 -5
39 10 18 44 12 57 -9 27 -42 78 -15 78 41 0 18 -3 20 -12 11 -7 -7 -29 -12
-49 -12 -56 0 -79 34 -79 116 0 72 13 107 44 122 29 14 37 14 69 -2z m285 -22
c19 -22 22 -36 22 -120 l0 -95 -42 1 c-24 1 -54 -1 -68 -5 -36 -9 -80 27 -80
65 0 27 32 70 52 70 5 0 24 7 43 14 25 11 33 19 29 30 -9 22 -41 20 -56 -4
-18 -29 -58 -27 -58 3 0 73 105 101 158 41z m-3048 -94 l0 -120 -35 0 -35 0 0
113 c0 63 3 117 7 120 3 4 19 7 35 7 l28 0 0 -120z m2280 63 c19 -90 25 -92
45 -14 18 68 20 71 48 71 28 0 29 -2 23 -33 -3 -19 -25 -99 -49 -178 l-42
-144 -34 -3 c-28 -3 -33 -1 -27 14 28 74 28 99 -3 207 -18 59 -34 113 -37 122
-5 12 2 15 28 15 34 0 35 -1 48 -57z m-2700 -2873 c23 -45 27 -110 7 -110 -16
0 -63 -47 -55 -55 3 -3 19 2 36 12 22 13 34 15 42 7 14 -14 -4 -64 -24 -64 -9
0 -24 -10 -36 -22 -20 -22 -28 -44 -11 -33 5 3 11 -5 13 -17 3 -21 5 -21 26
12 l23 35 -4 -115 c-3 -106 -6 -122 -41 -205 -21 -49 -43 -109 -49 -133 -26
-102 -94 -118 -239 -56 -45 19 -94 42 -106 50 -13 9 -26 13 -29 11 -3 -3 14
-17 36 -32 54 -33 121 -94 121 -109 0 -6 -12 -29 -26 -49 -14 -21 -24 -41 -21
-44 7 -7 66 56 83 90 14 27 44 38 44 16 0 -20 -39 -76 -65 -93 -34 -22 -139
-46 -205 -45 -106 0 -173 40 -234 139 -51 82 -56 126 -23 182 23 40 77 99 77
85 0 -3 -5 -18 -10 -33 -10 -24 -9 -26 5 -14 9 8 23 26 30 41 19 37 52 28 72
-19 20 -49 26 -34 7 21 -13 39 -20 47 -40 47 -33 0 -131 57 -151 87 -18 27
-20 121 -3 152 17 33 60 27 108 -15 23 -20 42 -44 42 -56 0 -19 50 -78 67 -78
5 0 9 21 9 48 -1 66 8 86 34 72 19 -10 20 -8 21 42 1 64 17 115 18 58 2 -71
15 -66 86 32 37 51 65 82 61 68 -16 -60 -18 -80 -9 -80 22 0 96 64 123 107 33
51 39 37 14 -27 -9 -23 -14 -44 -10 -47 14 -14 83 58 115 120 19 36 38 64 43
61 4 -3 17 -23 28 -44z m2349 -660 c1 -73 -32 -160 -68 -180 -15 -8 -34 -3
-83 20 -35 17 -68 30 -74 30 -14 0 -36 25 -28 32 3 3 18 1 34 -5 34 -13 48 -4
30 18 -10 12 -10 16 1 19 109 32 159 68 159 116 0 15 3 30 7 34 11 10 21 -30
22 -84z m281 -430 c44 -32 88 -106 119 -204 45 -141 55 -241 55 -536 0 -272
-12 -389 -60 -585 -36 -143 -62 -196 -138 -271 -69 -68 -247 -194 -365 -256
-58 -31 -112 -36 -186 -17 -41 10 -46 9 -89 -20 -37 -26 -54 -31 -100 -31 -31
0 -56 4 -56 9 0 16 29 33 52 29 l23 -5 -25 -11 c-23 -10 -23 -11 -4 -11 58 -2
41 64 -39 147 -58 60 -93 78 -123 61 -58 -30 -27 32 41 83 27 20 58 54 68 75
28 55 46 72 83 79 41 7 47 15 68 81 23 69 47 98 98 116 24 8 50 18 59 21 11 5
19 -2 28 -20 18 -40 22 -24 6 23 -13 36 -12 48 1 95 20 67 28 76 73 84 41 8
86 29 96 45 4 6 -6 4 -23 -5 -27 -14 -31 -14 -36 0 -11 28 -7 136 8 234 8 52
20 135 26 183 22 175 92 428 142 512 32 55 108 115 146 115 13 0 37 -9 52 -20z
m-2540 -875 c0 -8 13 -29 29 -47 l28 -32 -28 -54 c-36 -66 -36 -93 -4 -148
l25 -43 -35 -46 c-29 -38 -36 -43 -41 -28 -3 10 -14 36 -24 58 -18 37 -18 43
-5 80 19 54 18 72 -6 122 l-21 42 34 55 c33 56 48 68 48 41z m149 -639 c19 -7
44 -25 55 -39 18 -25 19 -32 8 -73 -7 -25 -17 -113 -22 -196 -11 -163 -20
-189 -70 -227 l-33 -24 7 29 c4 16 14 36 22 45 8 8 14 22 14 30 0 20 -38 -39
-51 -81 -13 -40 -31 -63 -73 -93 -20 -14 -28 -16 -23 -6 3 7 24 56 47 108 22
51 39 96 36 99 -3 2 -10 -6 -15 -19 -28 -73 -81 -176 -97 -191 -44 -38 -106
-29 -70 11 27 30 99 221 83 221 -2 0 -19 -40 -36 -89 -18 -49 -48 -109 -66
-133 -19 -24 -35 -47 -35 -52 0 -8 42 -5 122 10 33 5 37 4 33 -14 -5 -26 -42
-99 -54 -106 -16 -10 -39 -95 -65 -237 -20 -106 -34 -154 -66 -219 -22 -46
-40 -92 -40 -102 0 -10 -16 -32 -36 -50 -64 -58 -94 -144 -94 -270 l0 -77 54
-58 c30 -32 71 -67 92 -79 30 -15 43 -31 58 -69 63 -163 119 -235 243 -317
l65 -43 -258 -3 c-142 -1 -261 1 -265 5 -12 14 -77 266 -83 323 -7 58 -55 279
-86 390 -12 42 -20 117 -24 212 -8 192 -20 275 -52 351 -22 52 -25 71 -20 120
4 41 1 69 -9 94 -8 19 -12 40 -8 46 4 6 1 7 -7 2 -10 -6 -12 -4 -7 9 4 10 7
34 7 54 l0 37 21 -34 c13 -22 22 -59 26 -105 6 -80 15 -96 50 -96 13 0 31 -7
40 -15 28 -29 124 2 138 44 3 11 14 23 25 26 25 8 42 38 69 119 l22 69 -27 81
c-15 44 -30 85 -35 90 -17 18 -9 -21 17 -90 25 -68 25 -69 9 -129 -18 -61 -44
-115 -57 -115 -4 0 0 12 8 28 7 15 14 41 14 57 0 63 -38 225 -53 225 -2 0 5
-39 15 -87 25 -122 23 -158 -11 -229 -45 -96 -71 -98 -46 -3 12 43 13 70 4
134 -6 44 -15 85 -21 90 -8 7 -9 2 -4 -15 15 -58 18 -161 6 -207 -7 -26 -14
-56 -17 -66 -3 -12 -12 -17 -26 -15 -21 3 -22 7 -19 106 3 67 -1 114 -8 133
-17 40 -21 32 -10 -16 11 -44 -7 -185 -24 -197 -22 -15 -34 6 -39 75 -5 82
-42 169 -107 251 -21 27 -50 79 -65 117 -15 37 -43 89 -61 115 l-33 47 19 28
c26 35 74 76 101 84 38 12 66 -4 180 -110 63 -59 138 -122 167 -142 62 -40 86
-75 110 -155 19 -64 35 -77 31 -24 -2 19 1 39 5 43 5 4 6 3 3 -3 -8 -13 20
-27 34 -18 12 7 11 101 -1 124 -8 15 -2 45 27 127 35 103 40 111 100 167 37
34 77 84 95 118 30 57 32 58 72 57 23 0 57 -6 75 -13z m1100 -42 c12 -15 21
-33 21 -40 0 -8 27 -44 60 -80 37 -40 59 -73 55 -81 -4 -12 3 -13 37 -8 24 4
63 15 88 25 25 9 66 20 91 24 43 6 49 4 97 -34 52 -41 69 -70 56 -92 -5 -8 -2
-9 9 -5 10 3 17 2 17 -4 0 -6 -9 -9 -19 -7 -14 2 -39 -20 -86 -77 -83 -100
-133 -142 -238 -198 -134 -73 -142 -69 -47 23 47 46 71 74 54 62 -17 -12 -58
-49 -90 -82 -53 -55 -111 -100 -128 -100 -16 0 62 131 112 190 l56 65 -58 -55
c-31 -30 -73 -83 -92 -117 -51 -92 -68 -82 -40 22 7 28 19 61 25 74 7 12 10
25 7 28 -8 8 -36 -66 -48 -126 -10 -48 -13 -52 -25 -35 -7 10 -13 39 -13 64 0
89 50 195 138 292 19 21 27 36 19 32 -21 -8 -122 -140 -137 -179 l-11 -29 -24
49 c-26 56 -33 57 -10 2 8 -20 15 -58 15 -84 l0 -48 -50 93 c-47 87 -50 95
-41 135 18 83 31 175 31 225 0 44 4 54 31 76 43 37 109 37 138 0z m-2657 -96
c-17 -17 -15 -33 3 -18 12 10 15 10 15 -3 0 -26 145 -77 172 -61 7 5 8 2 3 -6
-6 -10 -3 -12 13 -8 12 4 20 2 17 -3 -4 -5 8 -6 26 -2 21 4 30 3 26 -4 -4 -6
3 -17 16 -26 53 -35 296 -284 302 -310 8 -32 8 -32 -25 -41 -17 -5 -21 -4 -12
2 16 11 0 16 -79 27 -39 6 -49 4 -57 -11 -8 -14 -5 -20 15 -31 14 -7 32 -13
39 -13 8 0 14 -4 14 -10 0 -5 -4 -10 -10 -10 -5 0 -10 -22 -10 -50 0 -38 -4
-50 -15 -50 -12 0 -15 -20 -15 -120 0 -100 -2 -120 -15 -120 -12 0 -15 -15
-15 -75 0 -58 4 -77 15 -81 12 -5 15 -25 15 -90 0 -73 3 -85 20 -96 24 -15 26
-28 5 -28 -8 0 -15 -8 -15 -19 0 -14 -10 -21 -37 -27 -23 -4 -31 -9 -20 -11 9
-3 17 -8 17 -13 0 -5 3 -17 6 -27 4 -14 1 -13 -15 6 -26 29 -27 16 -3 -22 10
-15 22 -24 26 -20 4 4 4 -1 0 -11 -16 -43 -116 167 -153 324 -11 43 -26 89
-35 102 -20 29 -20 77 0 189 16 87 14 139 -7 139 -6 0 -8 -9 -4 -21 4 -11 4
-51 0 -89 l-7 -68 -44 44 c-58 59 -59 92 -4 198 22 42 40 86 40 97 0 24 -20
15 -20 -9 0 -9 -13 -44 -29 -77 l-28 -60 -15 35 c-9 19 -32 62 -52 94 -45 74
-99 213 -93 238 3 10 2 16 -2 13 -14 -8 -33 76 -26 117 5 29 10 37 16 27 5 -8
9 -11 9 -7 0 3 3 14 7 24 4 12 3 15 -5 10 -16 -10 -15 0 4 40 9 19 21 34 27
34 7 0 7 -4 -1 -12z m2392 -103 c38 -51 38 -52 -10 -53 -45 -2 -115 -15 -149
-28 -13 -5 -16 -4 -11 4 11 19 -5 14 -21 -5 -12 -16 -13 -15 -2 7 21 43 70
113 108 153 l36 38 14 -43 c7 -24 23 -56 35 -73z m26 -84 c21 -6 25 -13 26
-46 2 -80 52 -215 80 -215 7 0 15 -19 19 -42 4 -24 14 -51 23 -60 13 -16 13
-28 -3 -125 -17 -100 -17 -112 -2 -163 19 -65 56 -126 120 -198 26 -29 47 -56
47 -61 0 -16 -49 -34 -79 -28 -17 4 -77 39 -133 78 -230 159 -341 314 -340
474 0 137 84 378 134 388 35 7 80 6 108 -2z m719 -235 c51 -26 95 -72 158
-163 l37 -53 -35 -36 c-36 -38 -165 -127 -236 -163 -46 -23 -61 -49 -18 -29
20 9 32 8 59 -5 71 -33 120 -136 156 -321 24 -122 25 -148 4 -187 -19 -37 -94
-74 -130 -65 -14 4 -129 111 -263 244 -192 191 -243 248 -265 294 -34 71 -43
154 -26 253 l13 74 29 -6 c21 -4 37 0 56 14 15 11 42 23 61 26 37 8 189 93
236 132 25 21 37 25 72 20 24 -2 65 -16 92 -29z m228 -284 c7 -5 10 -26 8 -57
-6 -95 -7 -310 0 -340 15 -72 27 -121 35 -140 32 -84 46 -179 29 -198 -12 -12
-20 -8 -57 30 -50 50 -72 101 -107 255 -39 172 -86 262 -156 298 l-31 16 94
56 c80 48 150 85 168 87 3 0 10 -3 17 -7z"/>
<path d="M6613 9773 c-20 -4 -23 -11 -23 -51 l0 -47 85 0 85 0 0 46 c0 40 -3
48 -22 53 -25 6 -90 6 -125 -1z"/>
<path d="M523 7348 c-7 -8 -11 -48 -10 -98 1 -75 -2 -91 -26 -134 -26 -47 -36
-96 -19 -96 17 0 110 96 115 118 3 13 0 42 -7 65 -7 23 -11 58 -9 77 4 43 -26
90 -44 68z"/>
<path d="M435 6456 c-2 -6 -9 -47 -16 -91 -15 -99 -24 -123 -55 -156 l-26 -27
31 -18 c34 -20 38 -43 21 -104 -11 -40 8 -80 39 -80 23 0 25 6 40 100 7 41 16
95 21 120 17 85 22 205 9 232 -12 27 -58 44 -64 24z"/>
</g>
</svg>
