<?xml version="1.0" standalone="no"?>
<!DOCTYPE svg PUBLIC "-//W3C//DTD SVG 20010904//EN"
 "http://www.w3.org/TR/2001/REC-SVG-20010904/DTD/svg10.dtd">
<svg version="1.0" xmlns="http://www.w3.org/2000/svg"
 width="720.000000pt" height="1280.000000pt" viewBox="0 0 720.000000 1280.000000"
 preserveAspectRatio="xMidYMid meet">
<metadata>
Created by potrace 1.16, written by Peter Selinger 2001-2019
</metadata>
<g transform="translate(0.000000,1280.000000) scale(0.100000,-0.100000)"
fill="#000000" stroke="none">
<path d="M0 6400 l0 -6400 3600 0 3600 0 0 1025 0 1025 -3590 0 -3590 0 0
1439 0 1440 195 3 c107 2 235 1 283 -2 154 -10 138 -27 199 210 51 202 60 251
46 249 -5 -1 -38 -1 -75 0 l-67 1 -30 60 c-17 33 -31 62 -31 63 0 7 187 -9
221 -19 12 -3 20 10 32 58 9 35 19 72 22 84 6 20 3 20 -82 17 -179 -7 -197 -7
-201 5 -2 7 -8 9 -13 6 -14 -8 1 49 15 59 8 5 7 10 -3 16 -11 7 -10 10 8 13
29 4 28 23 -1 23 -16 0 -24 -7 -26 -22 -3 -17 -10 -23 -30 -23 -36 0 -60 15
-38 23 23 9 17 250 -8 321 -11 31 -15 61 -11 82 7 39 -11 145 -33 189 -28 57
-92 109 -92 75 0 -5 -7 -10 -15 -10 -8 0 -15 6 -15 14 0 38 -48 24 -88 -25
-13 -16 -50 -41 -83 -56 -43 -20 -59 -32 -59 -47 0 -16 3 -17 12 -8 7 7 22 12
34 12 16 0 23 -8 27 -30 7 -33 36 -41 57 -15 10 12 10 18 0 30 -7 8 -19 15
-27 15 -23 0 -9 23 18 31 32 8 54 -8 57 -42 1 -19 -3 -26 -15 -25 -10 1 -21
-14 -31 -41 -11 -29 -22 -43 -39 -46 -27 -5 -33 0 -33 26 0 12 -5 17 -14 14
-7 -3 -18 -1 -23 4 -16 16 -23 -25 -9 -52 6 -12 15 -21 20 -20 17 5 21 -18 24
-112 2 -59 -1 -98 -7 -102 -6 -3 -11 -19 -11 -35 0 -16 -10 -55 -22 -87 -22
-57 -22 -57 -29 -28 -10 44 -10 120 0 147 18 50 22 126 7 141 -13 13 -15 210
-13 1593 l2 1579 3588 3 3587 2 0 1775 0 1775 -3600 0 -3600 0 0 -6400z m6796
3680 c151 -69 198 -267 95 -405 -25 -34 -27 -41 -14 -50 14 -10 14 -14 -1 -37
-26 -40 -88 -50 -140 -23 -23 12 -38 13 -85 4 -31 -7 -78 -12 -105 -13 -42 -1
-51 3 -72 29 -22 28 -23 31 -7 42 15 12 15 15 -5 35 -85 91 -82 269 6 361 77
81 220 106 328 57z m-653 4 c52 -18 116 -76 142 -130 57 -121 8 -276 -107
-339 -77 -42 -185 -47 -259 -13 -106 49 -153 125 -152 244 1 110 42 177 135
223 50 25 73 31 128 31 36 0 87 -7 113 -16z m-5802 -244 c21 -91 39 -168 39
-172 0 -5 -15 -8 -33 -8 -28 0 -34 4 -42 32 -9 29 -14 32 -50 31 -36 0 -40 -3
-47 -31 -8 -28 -13 -32 -42 -32 l-34 0 14 58 c7 31 26 110 41 175 l28 118 44
-3 44 -3 38 -165z m371 78 l3 -93 25 37 c20 31 31 38 58 38 17 0 32 -3 32 -6
0 -4 -16 -28 -35 -53 -30 -42 -33 -50 -21 -67 7 -10 25 -40 40 -66 l28 -48
-35 0 c-31 0 -39 5 -58 40 -26 45 -39 43 -39 -6 0 -31 -2 -34 -30 -34 l-30 0
0 175 0 175 30 0 29 0 3 -92z m1738 -83 l0 -176 -42 1 c-24 1 -55 -1 -69 -5
-19 -5 -33 -1 -55 18 -28 24 -29 29 -28 107 0 68 4 84 21 101 22 22 54 28 91
15 21 -7 22 -5 22 53 l0 61 30 0 30 0 0 -175z m452 83 l3 -92 25 37 c20 30 31
37 58 37 30 0 42 -12 24 -24 -5 -3 -21 -23 -36 -44 l-27 -40 40 -66 41 -66
-34 0 c-28 0 -38 7 -62 43 l-29 42 -3 -42 c-3 -42 -4 -43 -38 -43 l-34 0 0
175 0 175 35 0 34 0 3 -92z m728 27 l0 -66 30 16 c33 17 60 13 85 -11 11 -12
15 -40 15 -120 l0 -104 -30 0 -30 0 0 90 c0 75 -3 92 -16 97 -37 14 -49 -10
-52 -101 l-3 -86 -29 0 -30 0 0 175 0 175 30 0 30 0 0 -65z m530 4 c0 -58 1
-60 23 -53 76 26 107 -8 107 -118 0 -71 -2 -81 -26 -105 -21 -21 -31 -24 -57
-18 -18 4 -49 6 -69 6 l-38 -2 0 176 0 175 30 0 30 0 0 -61z m-1480 -9 c0 -38
2 -40 30 -40 25 0 30 -4 30 -25 0 -21 -5 -25 -30 -25 l-31 0 3 -67 c3 -66 4
-68 31 -71 28 -3 31 -9 21 -36 -8 -22 -72 -21 -96 1 -14 13 -18 31 -18 90 0
66 -2 75 -20 80 -13 3 -20 14 -20 29 0 17 6 24 20 24 16 0 20 7 20 33 0 40 6
47 37 47 20 0 23 -5 23 -40z m-2096 -61 c24 -23 34 -121 17 -172 -15 -44 -59
-66 -97 -48 -14 6 -27 11 -29 11 -3 0 -5 -30 -5 -66 l0 -65 -27 3 -28 3 -3
179 -2 179 37 -5 c21 -3 47 -2 58 3 26 10 55 2 79 -22z m405 20 c17 -6 36 -19
41 -29 6 -10 10 -62 10 -115 l0 -97 -32 3 c-18 1 -48 -1 -66 -5 -50 -12 -82
13 -82 64 0 44 20 64 83 81 28 7 37 15 35 27 -5 26 -48 28 -55 3 -6 -25 -51
-29 -60 -5 -8 21 28 67 58 75 35 10 33 10 68 -2z m290 0 c38 -14 51 -35 51
-88 l0 -41 -61 0 c-60 0 -60 0 -57 -27 3 -32 44 -46 54 -19 4 10 18 16 35 16
35 0 39 -25 10 -61 -27 -34 -99 -34 -135 0 -23 22 -26 32 -26 96 0 79 20 120
63 128 12 2 25 5 28 6 3 0 20 -4 38 -10z m198 0 c32 -12 43 -26 43 -56 0 -31
-45 -33 -53 -3 -7 26 -47 27 -47 1 0 -11 12 -23 30 -31 78 -32 101 -82 61
-131 -15 -19 -29 -24 -66 -24 -37 0 -51 5 -66 24 -29 36 -25 61 11 61 24 0 30
-4 30 -21 0 -15 5 -20 22 -17 41 6 32 33 -19 59 -91 46 -80 134 19 148 4 1 19
-4 35 -10z m191 0 c29 -10 59 -59 45 -73 -15 -15 -51 -5 -56 15 -4 13 -12 20
-24 17 -29 -5 -21 -32 15 -50 73 -36 92 -81 53 -129 -15 -19 -29 -24 -66 -24
-37 0 -51 5 -66 24 -29 36 -25 61 10 61 21 0 30 -6 34 -21 7 -25 40 -22 45 3
2 12 -11 24 -43 39 -74 35 -85 107 -21 135 38 16 36 16 74 3z m211 0 c17 -6
36 -19 41 -29 6 -10 10 -62 10 -115 l0 -97 -32 3 c-18 1 -48 -1 -66 -5 -50
-12 -82 13 -82 64 0 44 20 64 83 81 28 7 37 15 35 27 -5 25 -45 27 -58 3 -11
-22 -44 -28 -55 -10 -12 18 16 68 44 78 35 13 43 13 80 0z m318 -21 c17 -16
23 -33 23 -65 l0 -43 -61 0 c-60 0 -60 0 -57 -27 3 -32 44 -46 54 -19 9 23 64
21 64 -2 0 -49 -66 -84 -121 -64 -50 20 -59 37 -59 121 0 68 3 80 23 98 12 11
29 23 37 26 25 10 73 -2 97 -25z m1001 -4 c19 -21 22 -36 22 -99 0 -70 -1 -74
-32 -100 -27 -23 -39 -26 -71 -22 -59 8 -80 35 -85 107 -3 36 1 72 9 91 24 60
111 73 157 23z m240 8 c8 -10 12 -52 12 -119 l0 -103 -30 0 -30 0 0 90 c0 75
-3 92 -17 97 -32 12 -53 -32 -53 -113 l0 -74 -30 0 -30 0 0 120 0 120 29 0
c16 0 31 -5 33 -11 2 -6 14 -5 33 5 33 17 63 13 83 -12z m530 -5 c16 -15 22
-32 22 -64 l0 -43 -61 0 c-60 0 -60 0 -57 -27 3 -32 44 -46 54 -19 4 10 18 16
35 16 35 0 40 -29 9 -60 -27 -27 -63 -34 -105 -20 -46 15 -55 34 -55 123 0 64
3 76 23 94 12 11 29 23 37 26 25 9 73 -4 98 -26z m539 9 c6 -6 14 -57 17 -118
l5 -108 -34 0 -35 0 0 90 c0 72 -3 92 -15 96 -33 13 -45 -15 -45 -102 l0 -84
-35 0 -35 0 0 120 0 120 35 0 c19 0 35 -4 35 -9 0 -6 12 -3 28 4 28 15 58 12
79 -9z m218 -7 c17 -16 21 -35 23 -120 l4 -100 -44 1 c-23 1 -54 -1 -68 -5
-35 -9 -80 27 -80 64 0 39 19 60 70 75 33 10 46 19 48 35 5 29 -44 30 -53 0
-5 -15 -14 -19 -33 -17 -22 2 -26 7 -24 28 5 31 28 58 56 63 35 7 80 -4 101
-24z m400 16 c37 -15 55 -46 55 -96 0 -29 0 -29 -59 -29 -63 0 -76 -8 -66 -40
8 -24 55 -28 55 -5 0 11 11 15 36 15 32 0 35 -2 29 -22 -4 -13 -18 -34 -33
-47 -21 -19 -33 -22 -65 -18 -59 8 -80 35 -85 107 -5 75 11 118 52 136 39 17
40 17 81 -1z m198 1 c15 -8 27 -11 27 -5 0 5 14 9 31 9 l30 0 -3 -154 c-3
-134 -5 -157 -22 -175 -42 -46 -144 -35 -166 19 -7 16 -9 34 -5 39 10 18 44
12 57 -9 26 -41 78 -15 78 40 0 17 -3 19 -19 10 -36 -19 -78 -12 -100 16 -16
21 -21 41 -21 90 0 72 13 107 44 122 29 14 37 14 69 -2z m285 -22 c20 -22 22
-36 22 -120 l0 -95 -42 1 c-24 1 -55 -1 -70 -5 -21 -6 -32 -2 -52 18 -46 46
-30 99 37 118 52 15 67 26 60 45 -8 21 -41 17 -55 -6 -17 -26 -58 -27 -58 -1
0 34 12 53 44 67 40 18 85 9 114 -22z m-3048 -94 l0 -120 -35 0 -35 0 0 120 0
120 35 0 35 0 0 -120z m2280 63 c19 -90 25 -92 45 -14 18 69 20 71 51 71 l32
0 -24 -82 c-79 -281 -76 -273 -112 -276 -29 -3 -33 -1 -29 15 31 106 31 95 -2
207 -18 59 -35 114 -38 122 -4 10 4 14 29 14 34 0 35 -1 48 -57z"/>
<path d="M6613 9773 c-20 -4 -23 -11 -23 -51 l0 -47 85 0 85 0 0 46 c0 40 -3
48 -22 53 -25 6 -90 6 -125 -1z"/>
<path d="M670 8010 c0 -12 -44 -5 645 -105 248 -36 601 -88 785 -115 184 -27
585 -86 890 -130 305 -45 708 -103 895 -130 344 -51 407 -57 390 -41 -6 5
-185 34 -400 65 -214 31 -527 77 -695 101 -508 75 -769 113 -1130 166 -190 28
-401 59 -470 69 -69 10 -253 37 -410 60 -157 23 -325 48 -375 56 -106 16 -125
17 -125 4z"/>
<path d="M133 6963 c-25 -3 -33 -9 -33 -24 0 -14 7 -19 25 -19 14 0 37 -7 50
-16 15 -10 37 -14 56 -12 27 4 34 0 51 -29 12 -19 28 -33 39 -33 10 0 19 -4
19 -10 0 -5 4 -10 10 -10 5 0 9 3 9 8 -9 58 27 70 71 22 l28 -30 7 69 c4 39 5
74 2 78 -6 9 -276 14 -334 6z"/>
<path d="M3235 6458 c-48 -27 -70 -68 -80 -153 -10 -74 -23 -98 -74 -135 -33
-25 -41 -36 -41 -62 0 -41 27 -114 57 -155 14 -19 23 -46 23 -67 0 -20 4 -36
8 -36 5 0 17 -7 28 -16 18 -15 17 -15 -14 -10 -18 3 -48 17 -66 31 -18 14 -38
25 -45 25 -7 0 -37 12 -66 26 -68 32 -128 31 -133 -3 -4 -29 -32 -39 -32 -11
0 34 -10 15 -20 -38 -4 -27 -20 -111 -35 -188 -14 -76 -23 -141 -20 -144 2 -3
66 -5 140 -5 149 1 137 7 119 -57 -4 -17 -14 -20 -61 -20 -78 0 -132 -18 -139
-46 -6 -23 -41 -38 -66 -29 -16 6 -34 -57 -62 -215 -37 -213 -45 -279 -27
-252 4 8 12 14 17 13 5 0 19 2 32 6 20 5 43 -1 107 -27 11 -5 35 -14 53 -22
19 -8 30 -18 27 -26 -3 -9 1 -11 14 -7 14 4 23 -1 33 -17 7 -13 11 -26 10 -30
-1 -5 4 -8 11 -8 7 0 48 -4 92 -10 141 -17 512 -46 715 -56 58 -2 121 -6 142
-8 34 -4 37 -2 42 28 9 50 33 306 34 361 1 28 5 70 11 95 6 25 10 66 11 91 l0
46 -67 17 c-71 17 -123 55 -123 88 0 11 -11 30 -25 44 -14 14 -25 29 -25 34 0
6 56 10 134 10 156 0 141 -12 152 128 6 87 5 93 -16 112 -33 28 -122 44 -175
31 -24 -6 -55 -11 -69 -11 -15 0 -27 -7 -30 -17 -5 -16 -20 -18 -112 -19 -95
0 -105 1 -101 17 3 11 -2 19 -14 22 -16 4 -19 15 -19 61 0 42 4 56 14 56 13 0
13 4 0 35 -7 19 -14 51 -14 71 0 23 -12 58 -31 93 -27 47 -32 65 -30 114 2 62
-10 119 -40 183 -26 59 -104 90 -154 62z m132 -665 c24 -21 64 -56 88 -79 25
-23 48 -37 53 -32 41 41 120 -16 128 -93 5 -39 4 -42 -9 -27 -11 14 -16 15
-26 5 -11 -10 -12 -8 -6 11 4 16 2 22 -8 22 -8 0 -22 11 -31 25 -21 32 -36 32
-36 -1 0 -24 -6 -20 -77 49 -43 41 -93 88 -112 105 -20 17 -31 34 -27 40 10
17 14 16 63 -25z"/>
<path d="M4595 6113 c-22 -32 -40 -269 -23 -290 5 -7 7 -21 3 -32 -7 -22 11
-102 31 -143 8 -15 26 -33 41 -40 19 -9 29 -22 31 -42 l4 -29 -82 7 c-65 5
-80 4 -74 -6 14 -23 18 -50 13 -93 -2 -9 -9 -13 -18 -11 -15 5 -107 9 -139 7
-7 -1 -11 -5 -8 -10 6 -10 -20 -34 -49 -46 -17 -7 -15 -9 15 -16 19 -5 77 -16
129 -24 52 -8 96 -16 98 -19 3 -2 -1 -21 -8 -40 l-13 -36 -78 2 c-88 2 -101
-5 -101 -53 0 -34 19 -52 43 -39 9 5 23 3 35 -6 28 -21 62 -18 68 6 3 11 10
20 16 20 13 0 2 -30 -18 -50 -28 -28 -111 -55 -98 -32 3 4 -1 13 -9 20 -12 11
-14 7 -14 -22 0 -27 3 -34 15 -30 8 4 15 1 15 -4 0 -6 19 -15 42 -19 33 -7 48
-16 65 -43 13 -19 28 -41 34 -48 6 -7 8 -16 5 -19 -3 -3 2 -12 12 -19 13 -9
14 -16 6 -24 -8 -8 -14 -9 -18 -1 -8 13 -53 15 -60 2 -3 -5 8 -11 24 -15 26
-5 30 -10 30 -36 0 -18 4 -29 10 -25 14 9 12 -7 -5 -28 -19 -25 -59 -14 -50
14 4 13 1 21 -12 25 -52 18 -72 30 -76 46 -3 10 -12 18 -20 18 -18 0 -24 -48
-19 -153 l4 -74 52 -11 c45 -10 88 -14 286 -28 25 -2 45 -4 45 -5 0 -1 57 -7
128 -13 70 -6 127 -8 127 -3 0 4 5 7 11 7 5 0 8 -4 5 -9 -7 -11 105 -32 254
-47 25 -2 88 -8 140 -13 68 -7 97 -6 102 2 4 6 4 15 2 19 -3 5 3 11 13 15 10
4 21 11 25 17 13 19 9 67 -7 83 -8 8 -12 19 -9 25 5 7 12 4 21 -7 11 -17 13
-17 13 -2 0 20 -42 46 -48 28 -2 -6 -11 -11 -20 -11 -12 0 -8 8 13 28 26 23
30 33 28 74 -1 26 -6 55 -11 65 -8 13 -4 23 15 41 19 17 23 26 14 35 -6 6 -11
20 -12 32 0 19 -1 19 -8 1 -6 -16 -9 -17 -16 -6 -6 10 -10 8 -16 -8 -5 -12
-14 -22 -21 -21 -9 0 -10 2 -1 5 15 7 5 76 -13 87 -16 9 -44 65 -44 87 0 9
-11 31 -25 50 -25 34 -25 34 -4 42 11 5 25 5 31 2 12 -7 -3 23 -41 83 -32 53
-52 56 -46 8 8 -61 -31 -34 -42 29 -3 19 -8 35 -12 34 -18 -2 -31 3 -31 13 0
6 -7 17 -15 26 -12 12 -19 13 -30 3 -8 -7 -15 -19 -15 -26 0 -23 -19 -16 -34
14 -8 15 -35 40 -59 57 -43 29 -45 31 -51 95 -3 36 -6 91 -6 124 0 105 -53
166 -143 166 -44 0 -67 13 -67 38 0 58 -160 250 -200 239 -11 -3 -23 -1 -26 4
-10 17 -32 9 -49 -18z m235 -163 c12 -22 4 -106 -10 -115 -5 -3 -2 -18 5 -33
16 -34 28 -179 14 -187 -5 -4 -17 2 -27 11 -13 14 -17 35 -17 98 0 73 -2 81
-22 91 -27 14 -65 47 -60 52 2 2 17 -3 33 -12 16 -8 35 -15 42 -15 21 0 13 42
-13 66 -31 29 -34 58 -5 49 11 -4 20 -2 20 4 0 19 29 12 40 -9z m134 -526 c9
-3 13 -10 10 -15 -3 -5 2 -9 11 -9 9 0 15 -6 13 -12 -3 -9 -44 -14 -140 -18
-110 -4 -138 -8 -152 -23 -35 -35 -57 -41 -78 -20 -19 19 -18 20 37 48 45 22
64 27 103 23 30 -4 69 1 107 12 72 22 69 22 89 14z"/>
<path d="M1875 6088 c-46 -24 -67 -48 -115 -131 -35 -60 -68 -87 -125 -101
-106 -25 -103 -23 -115 -74 -7 -26 -12 -60 -11 -77 2 -81 0 -141 -5 -159 -6
-18 -8 -18 -18 -4 -6 9 -29 23 -50 32 -20 8 -35 20 -31 26 4 6 -4 10 -18 10
-14 0 -27 -7 -31 -15 -8 -21 -31 -19 -47 5 -9 13 -30 22 -61 26 -45 6 -48 5
-48 -15 0 -19 -4 -21 -22 -16 -13 4 -27 11 -32 16 -19 17 -28 9 -24 -21 3 -19
0 -30 -8 -30 -6 0 -14 -7 -17 -15 -12 -29 -47 -187 -47 -209 0 -26 37 -48 68
-39 16 4 21 -1 24 -18 2 -19 12 -25 53 -34 55 -11 64 -25 23 -36 -19 -5 -31
-3 -40 8 -8 10 -22 13 -40 9 -21 -4 -28 -2 -28 9 0 8 -6 15 -13 15 -7 0 -23 9
-35 20 -21 20 -21 20 -32 1 -5 -11 -11 -41 -13 -68 -2 -45 -1 -48 21 -45 17 3
25 -2 29 -18 5 -20 11 -21 77 -17 39 3 85 7 103 11 41 7 46 -2 28 -55 -8 -24
-17 -56 -20 -70 -6 -30 -27 -39 -98 -39 -26 0 -55 -4 -65 -9 -9 -5 -34 -17
-54 -27 -21 -10 -35 -20 -33 -23 5 -4 108 -14 320 -31 385 -29 568 -40 574
-34 3 3 1 8 -5 12 -14 10 -12 44 4 49 11 4 16 -11 15 -44 -1 -21 57 -31 215
-37 162 -6 156 -7 155 42 -1 6 5 12 13 12 8 0 14 -10 14 -25 0 -13 7 -28 16
-33 23 -13 54 -3 54 17 0 9 3 27 5 41 4 20 4 21 -3 5 -7 -16 -13 -10 -36 40
-15 33 -39 74 -54 90 -48 52 -74 96 -69 115 7 29 -7 41 -51 43 -36 2 -45 7
-67 39 -14 21 -39 45 -55 53 -32 17 -174 45 -228 45 -25 0 -35 6 -44 25 -6 14
-9 27 -6 30 3 3 36 1 74 -5 38 -5 106 -13 151 -18 75 -9 85 -13 141 -56 33
-25 69 -46 79 -46 11 0 24 -5 30 -11 15 -15 200 -2 210 14 6 11 22 97 39 218
9 63 -16 103 -58 95 -25 -5 -28 -3 -28 19 0 21 5 25 30 25 21 0 30 -5 30 -16
0 -22 29 -50 34 -32 12 38 26 110 26 132 0 35 -17 36 -80 6 -30 -15 -65 -31
-77 -34 -13 -4 -23 -14 -23 -22 0 -8 -6 -14 -14 -14 -8 0 -16 -6 -19 -14 -3
-9 -15 -12 -31 -9 -24 5 -26 3 -26 -31 0 -43 -5 -44 -36 -11 -18 20 -28 23
-46 16 -13 -4 -22 -11 -20 -15 1 -3 2 -15 2 -27 0 -11 5 -17 10 -14 6 3 10 1
10 -4 0 -21 -26 -11 -46 17 -15 21 -18 36 -13 66 3 21 10 41 15 45 14 9 8 81
-10 123 -9 20 -29 90 -46 155 -32 125 -57 165 -109 178 -14 3 -33 8 -41 10 -8
2 -33 -5 -55 -17z m65 -280 c0 -4 14 -8 30 -8 17 0 30 5 30 11 0 5 5 7 10 4
24 -15 9 -42 -27 -51 -37 -9 -38 -10 -38 -54 0 -25 4 -64 9 -87 7 -41 7 -43
-18 -43 -34 0 -38 10 -42 97 -3 42 -7 79 -10 84 -7 12 27 56 43 56 7 0 13 -4
13 -9z m-625 -299 c54 -36 65 -40 108 -36 26 2 47 1 47 -3 0 -4 -18 -26 -40
-49 -22 -22 -40 -45 -40 -49 0 -20 -26 -62 -39 -62 -12 0 -12 3 -3 12 14 14
16 78 2 78 -5 0 -10 -4 -10 -10 0 -5 -4 -10 -10 -10 -5 0 -10 18 -10 39 0 51
-8 71 -30 71 -16 0 -38 19 -54 48 -14 23 19 12 79 -29z"/>
</g>
</svg>
