<?xml version="1.0" standalone="no"?>
<!DOCTYPE svg PUBLIC "-//W3C//DTD SVG 20010904//EN"
 "http://www.w3.org/TR/2001/REC-SVG-20010904/DTD/svg10.dtd">
<svg version="1.0" xmlns="http://www.w3.org/2000/svg"
 width="720.000000pt" height="1280.000000pt" viewBox="0 0 720.000000 1280.000000"
 preserveAspectRatio="xMidYMid meet">
<metadata>
Created by potrace 1.16, written by Peter Selinger 2001-2019
</metadata>
<g transform="translate(0.000000,1280.000000) scale(0.100000,-0.100000)"
fill="#000000" stroke="none">
<path d="M0 6400 l0 -6400 3600 0 3600 0 0 6400 0 6400 -3600 0 -3600 0 0
-6400z m6796 3680 c79 -37 138 -117 149 -206 9 -63 -8 -125 -50 -190 -28 -44
-31 -52 -17 -60 13 -9 13 -13 -2 -37 -23 -35 -90 -46 -137 -23 -33 16 -80 14
-147 -6 -47 -14 -99 -2 -118 28 -13 20 -14 27 -4 39 11 13 9 19 -7 38 -58 63
-80 189 -48 273 55 145 232 211 381 144z m-653 4 c125 -42 198 -200 153 -327
-41 -113 -135 -177 -261 -177 -137 0 -237 76 -264 200 -15 70 -3 142 33 203
25 41 43 58 94 84 54 28 75 33 131 33 37 0 88 -7 114 -16z m-5834 -111 c15
-56 71 -300 71 -307 0 -3 -16 -6 -35 -6 -30 0 -35 3 -35 24 0 30 -4 33 -54 37
-37 4 -40 2 -48 -29 -8 -28 -13 -32 -42 -32 l-34 0 14 58 c7 31 26 110 41 175
l27 117 43 0 c40 0 43 -2 52 -37z m401 -55 l1 -93 30 38 c23 27 39 37 60 37
16 0 29 -3 29 -6 0 -4 -16 -28 -35 -53 -30 -41 -33 -50 -21 -67 7 -10 25 -40
40 -66 l27 -48 -35 0 c-30 0 -38 5 -57 40 -26 45 -39 43 -39 -6 0 -31 -2 -34
-30 -34 l-30 0 0 175 0 175 30 0 30 0 0 -92z m1740 -83 l0 -176 -42 1 c-24 1
-55 -1 -69 -5 -19 -5 -33 -1 -55 18 -28 24 -29 29 -28 107 1 68 4 85 21 102
22 21 54 27 91 14 21 -7 22 -5 22 53 l0 61 30 0 30 0 0 -175z m452 83 l3 -92
25 37 c20 30 31 37 58 37 30 0 42 -12 24 -24 -5 -3 -21 -23 -36 -44 l-27 -40
40 -66 41 -66 -34 0 c-28 0 -38 7 -62 43 l-29 42 -3 -42 c-3 -42 -4 -43 -38
-43 l-34 0 0 175 0 175 35 0 34 0 3 -92z m728 27 l0 -66 30 16 c33 17 60 13
85 -11 11 -12 15 -40 15 -120 l0 -104 -30 0 -30 0 0 90 c0 75 -3 92 -16 97
-37 14 -49 -10 -52 -101 l-3 -86 -29 0 -30 0 0 175 0 175 30 0 30 0 0 -65z
m530 4 c0 -58 1 -60 23 -53 76 26 107 -8 107 -118 0 -71 -2 -81 -26 -105 -20
-20 -31 -24 -52 -18 -15 4 -46 6 -69 5 l-43 -1 0 176 0 175 30 0 30 0 0 -61z
m-1482 -11 c3 -35 6 -38 33 -38 24 0 29 -4 29 -25 0 -21 -5 -25 -30 -25 l-31
0 3 -67 c3 -66 4 -68 31 -71 21 -3 27 -8 23 -19 -3 -8 -6 -19 -6 -24 0 -16
-73 -10 -92 8 -14 13 -18 31 -18 90 0 66 -2 75 -20 80 -13 3 -20 14 -20 29 0
17 6 24 20 24 16 0 20 7 20 33 0 40 7 49 35 45 15 -2 21 -12 23 -40z m-2094
-59 c24 -23 34 -121 17 -172 -15 -44 -59 -66 -97 -48 -14 6 -27 11 -29 11 -3
0 -5 -30 -5 -66 l0 -65 -27 3 -28 3 -3 179 -2 179 37 -5 c21 -3 47 -2 58 3 26
10 55 2 79 -22z m405 20 c44 -16 51 -35 51 -143 l0 -96 -47 -1 c-27 0 -60 -1
-75 -1 -40 -1 -58 19 -58 63 0 43 20 63 83 80 28 7 37 15 35 27 -5 26 -48 28
-55 3 -4 -14 -13 -21 -29 -21 -65 0 -15 96 52 99 6 1 25 -4 43 -10z m290 0
c38 -14 51 -35 51 -88 l0 -41 -61 0 c-60 0 -60 0 -57 -27 3 -32 44 -46 54 -19
4 10 18 16 35 16 35 0 39 -25 10 -61 -27 -34 -99 -34 -135 0 -23 22 -26 32
-26 96 0 79 20 120 63 128 12 2 25 5 28 6 3 0 20 -4 38 -10z m198 0 c32 -12
43 -26 43 -56 0 -31 -45 -33 -53 -3 -7 26 -47 27 -47 1 0 -11 12 -23 30 -31
78 -32 101 -82 61 -131 -15 -19 -29 -24 -66 -24 -37 0 -51 5 -66 24 -29 36
-25 61 11 61 24 0 30 -4 30 -21 0 -15 5 -20 23 -17 37 5 26 36 -23 60 -88 45
-75 133 22 147 4 1 19 -4 35 -10z m197 -3 c31 -13 53 -55 38 -71 -14 -14 -50
-3 -55 16 -4 13 -12 20 -24 17 -29 -5 -21 -32 15 -50 73 -36 92 -81 53 -129
-15 -19 -29 -24 -66 -24 -37 0 -51 5 -66 24 -29 36 -25 61 10 61 21 0 30 -6
34 -21 7 -25 40 -22 45 3 2 12 -11 24 -43 39 -74 35 -86 106 -22 134 40 18 41
18 81 1z m205 3 c17 -6 36 -19 41 -29 6 -10 10 -62 10 -115 l0 -97 -32 3 c-18
1 -48 -1 -66 -5 -50 -12 -82 13 -82 64 0 44 20 64 83 81 28 7 37 15 35 27 -5
25 -45 27 -58 3 -13 -24 -48 -28 -56 -6 -8 20 21 64 49 75 30 12 39 12 76 -1z
m318 -21 c17 -16 23 -33 23 -65 l0 -43 -61 0 c-60 0 -60 0 -57 -27 3 -32 44
-46 54 -19 8 20 64 22 64 2 0 -69 -102 -98 -158 -45 -19 17 -22 31 -22 98 0
68 3 80 23 98 12 11 29 23 37 26 25 10 73 -2 97 -25z m1001 -4 c18 -21 22 -36
22 -98 0 -65 -3 -75 -26 -97 -35 -33 -104 -34 -136 -2 -27 28 -37 127 -17 174
24 60 111 73 157 23z m240 8 c8 -10 12 -52 12 -119 l0 -103 -30 0 -30 0 0 90
c0 75 -3 92 -17 97 -32 12 -53 -32 -53 -113 l0 -74 -30 0 -30 0 0 120 0 120
29 0 c16 0 31 -5 33 -11 2 -6 14 -5 33 5 33 17 63 13 83 -12z m529 -4 c17 -16
23 -33 23 -65 l0 -43 -61 0 c-60 0 -60 0 -57 -27 3 -32 44 -46 54 -19 4 10 18
16 35 16 35 0 40 -29 9 -60 -27 -27 -63 -34 -105 -20 -46 15 -55 34 -55 123 0
64 3 76 23 94 12 11 29 23 37 26 25 10 73 -2 97 -25z m540 8 c6 -6 13 -57 16
-118 l5 -108 -34 0 -34 0 0 90 c0 72 -3 92 -15 96 -33 13 -45 -15 -45 -102 l0
-84 -35 0 -35 0 0 120 0 120 35 0 c19 0 35 -4 35 -9 0 -6 12 -3 28 4 28 15 58
12 79 -9z m218 -7 c17 -16 21 -35 23 -120 l4 -100 -44 1 c-23 1 -54 -1 -68 -5
-35 -9 -80 27 -80 64 0 39 19 60 70 75 33 10 46 19 48 35 4 28 -33 29 -50 1
-12 -19 -48 -27 -60 -14 -15 14 11 60 43 77 40 20 84 15 114 -14z m400 16 c37
-15 55 -46 55 -96 0 -29 0 -29 -59 -29 -65 0 -73 -5 -64 -38 6 -26 53 -32 53
-7 0 11 11 15 36 15 32 0 35 -2 29 -22 -4 -13 -18 -34 -33 -47 -21 -19 -33
-22 -65 -18 -59 8 -80 35 -85 107 -5 75 11 118 52 136 39 17 40 17 81 -1z
m198 1 c15 -8 27 -11 27 -5 0 5 14 9 30 9 l30 0 0 -149 c0 -134 -2 -151 -20
-174 -41 -52 -147 -44 -170 13 -7 16 -9 34 -5 39 10 18 44 12 57 -9 26 -41 78
-15 78 40 0 17 -3 19 -19 10 -36 -19 -78 -12 -100 16 -16 21 -21 41 -21 90 0
72 13 107 44 122 29 14 37 14 69 -2z m285 -22 c19 -22 22 -36 22 -120 l0 -95
-42 1 c-24 1 -55 -1 -70 -5 -21 -6 -32 -2 -52 18 -48 48 -29 99 44 121 33 10
46 19 48 35 4 28 -33 29 -50 1 -12 -19 -48 -27 -60 -14 -15 14 11 60 43 77 43
22 86 16 117 -19z m-3048 -94 l0 -120 -35 0 -35 0 0 113 c0 63 3 117 7 120 3
4 19 7 35 7 l28 0 0 -120z m2271 103 c0 -10 8 -43 18 -73 l17 -55 19 73 c18
70 20 72 51 72 l32 0 -24 -82 c-79 -281 -76 -273 -113 -276 -28 -3 -33 -1 -27
14 28 74 28 99 -3 207 -18 59 -34 113 -37 122 -5 12 2 15 30 15 27 0 36 -4 37
-17z m-1872 -697 c24 -14 24 -14 3 -20 -12 -4 -43 -24 -70 -45 -26 -21 -57
-43 -69 -49 -11 -7 -31 -32 -43 -58 -20 -40 -22 -56 -16 -122 9 -110 18 -134
57 -160 81 -54 189 -136 189 -143 0 -5 -21 -9 -46 -9 -25 0 -61 -7 -79 -16
l-33 -15 -102 68 c-111 73 -159 85 -197 50 -23 -20 -43 -22 -43 -4 0 17 73
205 81 209 4 2 39 -19 79 -45 40 -26 73 -47 75 -45 1 2 -7 48 -18 104 -23 118
-18 172 20 232 14 22 42 49 62 61 42 24 114 27 150 7z m1287 -76 c44 -24 57
-39 82 -92 45 -93 59 -147 81 -308 25 -187 35 -340 21 -340 -5 0 -10 16 -10
35 0 20 -6 38 -13 41 -8 3 -11 18 -9 44 3 25 0 40 -7 40 -6 0 -11 -16 -11 -35
0 -19 -4 -35 -10 -35 -5 0 -7 -21 -3 -50 4 -32 2 -50 -5 -50 -6 0 -13 34 -16
78 -13 157 -27 287 -34 294 -9 9 -286 -7 -302 -17 -10 -6 -11 -51 -8 -182 7
-245 -16 -239 -29 7 -4 76 -8 98 -14 80 -6 -18 -7 -14 -3 15 17 111 20 161 13
169 -13 14 -16 6 -24 -58 -6 -43 -5 -57 4 -52 6 4 11 2 11 -3 0 -6 -5 -11 -10
-11 -7 0 -11 -42 -11 -117 0 -65 -3 -140 -7 -168 -7 -41 -9 -23 -16 106 -8
155 -5 231 16 364 12 78 44 175 59 175 5 0 9 6 9 13 0 16 65 67 98 77 53 16
96 10 148 -20z m-568 -27 c52 -42 77 -82 107 -172 32 -98 42 -155 60 -366 18
-204 17 -195 5 -195 -5 0 -10 18 -10 40 0 26 -5 40 -13 40 -10 0 -12 16 -9 65
3 41 1 65 -6 65 -6 0 -12 10 -14 23 -2 12 -4 -35 -4 -106 -1 -115 -6 -149 -18
-136 -3 3 -10 72 -16 154 -6 83 -13 165 -17 184 l-6 34 -150 -6 c-82 -4 -152
-9 -156 -13 -3 -3 -5 -86 -4 -185 2 -112 -1 -179 -7 -179 -6 0 -10 16 -10 35
0 19 -4 35 -10 35 -5 0 -11 17 -11 38 -2 30 -3 32 -6 10 -2 -16 -9 -28 -14
-28 -5 0 -9 -23 -9 -52 0 -36 -3 -49 -10 -42 -7 7 -11 92 -12 220 -2 357 46
509 177 559 58 21 119 13 163 -22z m-533 -11 c27 -15 58 -42 68 -60 22 -37 36
-152 19 -152 -6 0 -12 15 -14 33 -2 24 -8 33 -25 35 -20 3 -23 -1 -23 -32 0
-20 -4 -36 -10 -36 -5 0 -10 17 -10 38 0 35 -20 77 -44 94 -25 17 -77 8 -103
-18 -22 -22 -25 -32 -20 -70 6 -57 39 -100 124 -159 37 -27 81 -60 96 -74 79
-72 102 -209 49 -285 -61 -87 -184 -103 -261 -33 -26 24 -60 92 -61 120 0 30
17 10 24 -27 7 -37 57 -83 76 -71 5 3 10 -3 10 -14 0 -26 26 -33 84 -22 55 10
64 17 46 34 -10 10 -11 9 -5 -2 6 -11 4 -13 -8 -8 -9 3 -19 2 -22 -3 -7 -12
-77 8 -91 26 -7 8 -17 13 -24 12 -7 -2 -13 13 -15 40 -4 49 7 55 25 12 33 -79
144 -64 165 22 7 28 -19 97 -52 134 -10 11 -45 38 -77 60 -120 79 -179 165
-175 253 3 56 17 87 61 127 62 59 119 67 193 26z m1489 -14 c3 -13 17 -133 32
-268 14 -135 29 -249 32 -254 2 -5 39 -6 81 -3 135 9 211 62 211 147 0 44 -11
72 -42 106 -19 22 -19 22 3 38 13 9 28 16 35 16 20 0 35 -52 35 -124 1 -174
-141 -306 -330 -306 -61 0 -155 22 -165 38 -2 4 -7 38 -11 76 -9 78 -18 74 85
37 30 -11 58 -17 61 -13 6 7 -27 325 -36 350 -9 25 -67 41 -115 32 -25 -5 -46
-7 -47 -6 -2 1 -6 16 -9 33 -7 34 10 50 102 97 61 31 72 32 78 4z m-2441 -306
c-9 -75 -44 -48 612 -470 83 -54 106 -60 150 -40 52 24 46 -5 -24 -115 -38
-59 -74 -114 -81 -122 -21 -25 -31 -17 -24 20 14 77 21 71 -421 357 -305 197
-292 191 -349 153 -76 -52 -63 -19 82 198 24 37 48 67 53 67 4 0 5 -22 2 -48z
m1467 -204 c-1 -103 -37 -253 -71 -294 -7 -9 -7 -19 0 -32 7 -13 7 -22 -1 -30
-21 -21 -45 -13 -73 24 -25 32 -26 38 -14 61 l14 25 26 -31 26 -32 23 143 c13
84 20 161 17 189 -7 53 -3 59 30 59 22 0 23 -3 23 -82z m519 -59 c80 -51 81
-52 81 -93 0 -50 16 -82 52 -109 26 -20 32 -20 102 -8 l75 12 68 -45 c77 -52
118 -58 164 -25 46 32 54 13 16 -39 -18 -26 -59 -89 -91 -139 -62 -99 -83
-116 -72 -57 13 66 -6 93 -107 158 -337 216 -365 236 -371 268 -7 35 -8 128
-2 128 3 0 41 -23 85 -51z m-79 -299 c291 -423 330 -484 318 -497 -11 -10 -91
2 -418 62 -223 41 -416 78 -430 81 -17 4 -22 2 -15 -5 10 -10 344 -229 500
-327 103 -65 140 -72 180 -34 16 15 29 20 35 14 10 -10 -100 -186 -119 -192
-6 -2 -7 19 -4 50 5 49 3 55 -24 80 -25 23 -596 397 -654 428 -27 15 -85 7
-110 -16 -33 -30 -41 -5 -11 38 l28 41 162 -2 c108 -2 174 2 196 10 30 11 65
7 290 -35 140 -26 262 -46 270 -44 10 2 -30 67 -129 208 -79 113 -141 208
-138 213 9 15 19 5 73 -73z m-945 -2244 c40 -26 49 -56 32 -99 -30 -71 -161
-123 -207 -82 -24 22 -37 82 -21 98 8 8 11 2 11 -23 0 -46 9 -58 49 -70 67
-19 171 57 157 115 -15 58 -149 71 -277 27 -123 -43 -277 -171 -320 -267 -39
-84 -17 -163 54 -196 91 -41 213 -10 362 91 48 33 125 108 125 122 0 7 -25 8
-67 4 -191 -17 -223 -18 -223 -9 0 21 60 36 180 46 127 10 280 3 280 -14 0 -5
-17 -9 -37 -9 -21 0 -47 -3 -59 -6 -18 -5 -163 -210 -220 -311 -10 -18 -22
-33 -27 -33 -13 0 1 38 45 118 38 71 43 97 15 74 -25 -21 -143 -75 -192 -88
-62 -17 -155 -18 -207 -2 -29 8 -48 23 -66 51 -101 152 119 405 413 476 58 15
169 7 200 -13z m1095 -102 c0 -12 -26 -53 -80 -124 -31 -41 -65 -87 -75 -103
-17 -26 -17 -27 1 -20 11 4 44 26 75 48 72 53 116 72 131 57 13 -13 0 -44 -35
-83 -51 -56 -85 -149 -54 -149 22 1 93 63 157 138 60 71 103 103 117 88 4 -3
-3 -19 -15 -34 -55 -69 -112 -162 -112 -181 0 -51 67 -8 157 101 74 91 105
119 122 116 28 -6 21 -26 -27 -84 -27 -33 -54 -69 -61 -81 -14 -28 -14 -73 0
-73 12 0 67 35 84 54 6 6 24 22 40 35 17 13 2 -4 -33 -37 -34 -34 -73 -64 -87
-68 -36 -9 -58 12 -53 53 5 38 -2 41 -28 12 -31 -35 -94 -70 -117 -67 -20 3
-22 9 -22 56 1 40 -2 50 -10 40 -17 -23 -105 -88 -120 -88 -7 0 -21 7 -30 17
-22 22 -13 71 26 141 29 51 29 53 7 41 -60 -31 -176 -141 -207 -197 -7 -12
-13 -14 -21 -6 -19 19 138 291 213 372 27 28 57 42 57 26z m-476 -140 c3 -8
12 -14 20 -14 29 0 27 -21 -7 -69 -73 -101 -86 -151 -41 -151 18 0 42 17 81
58 31 31 51 48 45 37 -17 -33 -110 -115 -130 -115 -23 0 -62 35 -62 56 0 11
-16 3 -51 -25 -29 -23 -58 -41 -66 -41 -8 0 -25 11 -39 25 -28 28 -26 51 13
124 14 27 23 61 23 87 l0 44 104 -1 c81 0 106 -3 110 -15z m-417 -31 c2 -6
-28 -47 -67 -92 -38 -45 -70 -88 -70 -96 0 -42 80 4 207 120 45 41 86 75 92
75 23 0 19 -21 -12 -66 -19 -27 -49 -76 -67 -109 -18 -33 -44 -78 -58 -100
-67 -109 -152 -155 -197 -105 -10 11 -13 20 -7 20 6 0 14 -4 17 -10 10 -17 55
-11 87 11 37 27 88 106 122 189 14 35 25 65 23 66 -1 1 -32 -20 -67 -48 -81
-63 -123 -82 -150 -68 -30 16 -24 50 18 116 57 88 117 133 129 97z m-3149
-2257 c3 -14 -173 -296 -184 -296 -2 0 -4 19 -4 43 0 35 11 59 65 142 36 55
72 108 81 118 17 21 38 18 42 -7z m4639 -338 c5 -7 15 -38 21 -68 50 -241 192
-947 192 -953 0 -16 -49 -6 -54 11 -3 9 -44 204 -90 432 -47 228 -92 450 -101
493 -9 42 -13 82 -10 87 9 14 31 12 42 -2z"/>
<path d="M6613 9773 c-20 -4 -23 -11 -23 -51 l0 -47 85 0 85 0 0 46 c0 40 -3
48 -22 53 -25 6 -90 6 -125 -1z"/>
<path d="M4115 9041 c-12 -5 -32 -26 -46 -47 -27 -42 -63 -164 -51 -176 4 -4
68 -4 142 0 l135 7 -3 29 c-5 43 -39 127 -64 159 -25 30 -78 43 -113 28z"/>
<path d="M3540 9023 c-43 -17 -100 -137 -100 -210 l0 -24 138 7 c75 4 139 8
141 10 6 5 -20 95 -42 143 -29 62 -87 93 -137 74z"/>
<path d="M2935 8961 c-20 -46 -15 -86 20 -146 26 -44 82 -102 91 -93 3 3 24
-12 47 -33 23 -21 48 -37 55 -34 7 3 17 -6 22 -20 5 -14 17 -28 25 -32 9 -3
14 -12 11 -19 -3 -7 -1 -16 3 -19 18 -10 22 -93 7 -123 -9 -18 -11 -33 -6 -42
16 -26 41 52 36 114 -4 59 -34 124 -48 103 -5 -8 -8 -5 -8 9 0 21 -38 64 -57
64 -6 0 -14 7 -17 16 -3 9 -12 14 -18 12 -7 -3 -21 4 -32 13 -10 10 -24 16
-29 12 -6 -3 -7 -1 -4 4 8 13 -17 36 -27 25 -4 -4 -6 -2 -4 3 2 6 -1 12 -7 14
-15 6 -31 50 -39 108 -5 41 -3 58 10 78 14 21 14 25 2 25 -8 0 -23 -18 -33
-39z"/>
<path d="M3708 5683 c-10 -2 -18 -10 -19 -16 0 -7 -1 -28 -2 -47 -2 -35 -2
-35 -54 -38 -47 -3 -54 -6 -73 -37 -24 -40 -23 -78 2 -83 10 -2 33 9 52 25 36
29 156 179 156 194 0 9 -32 10 -62 2z"/>
</g>
</svg>
