<?xml version="1.0" standalone="no"?>
<!DOCTYPE svg PUBLIC "-//W3C//DTD SVG 20010904//EN"
 "http://www.w3.org/TR/2001/REC-SVG-20010904/DTD/svg10.dtd">
<svg version="1.0" xmlns="http://www.w3.org/2000/svg"
 width="720.000000pt" height="1280.000000pt" viewBox="0 0 720.000000 1280.000000"
 preserveAspectRatio="xMidYMid meet">
<metadata>
Created by potrace 1.16, written by Peter Selinger 2001-2019
</metadata>
<g transform="translate(0.000000,1280.000000) scale(0.100000,-0.100000)"
fill="#000000" stroke="none">
<path d="M0 6400 l0 -6400 3600 0 3600 0 0 1025 0 1025 -3590 0 -3590 0 0
3600 0 3600 3590 0 3590 0 0 1775 0 1775 -3600 0 -3600 0 0 -6400z m6795 3680
c149 -64 198 -258 100 -396 -30 -42 -32 -49 -18 -59 13 -10 13 -15 2 -33 -27
-43 -87 -53 -145 -26 -30 14 -42 15 -87 4 -28 -7 -74 -13 -101 -14 -42 -1 -51
3 -72 29 -22 28 -23 31 -7 42 15 12 15 15 -5 35 -55 60 -78 178 -50 269 23 77
103 146 195 168 49 12 137 3 188 -19z m-652 4 c52 -18 116 -76 143 -132 27
-55 26 -174 -3 -227 -51 -94 -120 -136 -233 -143 -63 -4 -85 -1 -128 18 -143
62 -200 232 -124 373 44 81 125 126 233 126 36 1 86 -6 112 -15z m-5802 -239
c21 -88 38 -166 38 -172 1 -8 -12 -13 -32 -13 -28 0 -34 4 -42 33 -9 29 -13
32 -50 31 -35 -1 -40 -4 -47 -32 -8 -28 -13 -32 -42 -32 l-34 0 14 58 c7 31
26 110 41 175 l27 118 44 -3 45 -3 38 -160z m369 73 l1 -93 30 38 c23 27 39
37 60 37 16 0 29 -3 29 -6 0 -4 -16 -27 -35 -53 l-34 -47 21 -35 c11 -19 29
-49 40 -66 l20 -33 -36 0 c-30 0 -38 5 -57 40 -26 45 -39 43 -39 -6 0 -31 -2
-34 -30 -34 l-30 0 0 175 0 175 30 0 30 0 0 -92z m1740 -84 l0 -177 -40 6
c-22 3 -43 1 -46 -4 -9 -16 -50 -10 -77 11 -31 25 -45 104 -28 167 17 61 50
79 109 59 21 -7 22 -5 22 53 l0 61 30 0 30 0 0 -176z m452 84 l3 -92 25 37
c20 30 31 37 58 37 30 0 42 -12 24 -24 -5 -3 -21 -23 -36 -44 l-27 -40 40 -66
41 -66 -34 0 c-28 0 -38 7 -62 43 l-29 42 -3 -43 c-3 -42 -4 -43 -35 -40 l-32
3 -3 173 -2 172 34 0 35 0 3 -92z m728 28 l0 -64 29 14 c31 15 77 6 93 -19 4
-7 8 -58 8 -114 l0 -103 -30 0 -29 0 -3 92 c-3 83 -5 93 -22 96 -33 7 -46 -25
-46 -110 l0 -78 -30 0 -30 0 0 175 0 175 30 0 30 0 0 -64z m530 3 c0 -55 2
-60 18 -53 31 13 76 5 95 -17 13 -16 17 -40 17 -101 0 -71 -2 -81 -26 -105
-21 -21 -31 -24 -57 -18 -18 4 -49 6 -69 6 l-38 -2 0 176 0 175 30 0 30 0 0
-61z m-1480 -9 c0 -38 2 -40 30 -40 25 0 30 -4 30 -25 0 -21 -5 -25 -30 -25
l-31 0 3 -67 c3 -66 4 -68 31 -71 28 -3 31 -9 21 -36 -8 -22 -72 -21 -96 1
-14 13 -18 31 -18 90 0 66 -2 75 -20 80 -13 3 -20 14 -20 29 0 17 6 24 20 24
17 0 20 7 20 40 0 38 2 40 30 40 28 0 30 -2 30 -40z m-2096 -60 c24 -24 34
-122 17 -173 -15 -44 -59 -66 -97 -48 -14 6 -27 11 -29 11 -3 0 -5 -30 -5 -66
l0 -65 -27 3 -28 3 -3 179 -2 179 38 -6 c22 -2 46 -1 53 4 19 12 60 2 83 -21z
m405 19 c44 -16 51 -35 51 -143 l0 -96 -47 -1 c-27 0 -60 -1 -75 -1 -40 -1
-58 19 -58 63 0 43 20 63 83 80 28 7 37 15 35 27 -5 25 -45 27 -58 3 -13 -25
-48 -28 -57 -5 -8 21 28 67 58 75 35 10 33 10 68 -2z m295 -3 c36 -15 43 -28
48 -86 l3 -35 -63 -3 c-62 -3 -63 -3 -60 -30 3 -31 44 -44 54 -18 4 10 18 16
35 16 35 0 39 -25 10 -61 -15 -19 -29 -24 -66 -24 -39 0 -51 5 -71 28 -33 38
-35 150 -4 190 18 22 30 28 73 36 4 0 23 -5 41 -13z m193 3 c32 -12 43 -26 43
-56 0 -31 -45 -33 -53 -3 -7 26 -47 27 -47 1 0 -12 12 -23 33 -31 74 -30 97
-83 58 -131 -15 -19 -29 -24 -66 -24 -37 0 -51 5 -66 24 -28 34 -25 61 7 61
18 0 28 -6 31 -21 7 -25 46 -22 51 4 3 12 -9 23 -42 37 -76 32 -89 107 -23
135 39 17 39 17 74 4z m197 -3 c31 -13 53 -55 38 -71 -14 -14 -50 -3 -55 16
-4 13 -12 20 -24 17 -29 -5 -21 -32 15 -50 51 -25 72 -48 72 -78 0 -42 -29
-70 -77 -77 -35 -5 -45 -2 -67 20 -36 36 -35 67 3 67 20 0 30 -6 34 -20 7 -28
47 -27 47 0 0 15 -13 26 -45 40 -73 31 -85 108 -21 136 39 17 40 17 80 0z
m205 3 c17 -6 36 -19 41 -29 6 -10 10 -62 10 -115 l0 -97 -32 3 c-18 1 -48 -1
-66 -5 -50 -12 -82 13 -82 64 0 44 20 64 83 81 28 7 37 15 35 27 -5 25 -45 27
-58 3 -16 -30 -60 -28 -60 2 0 35 37 65 91 76 3 0 20 -4 38 -10z m318 -21 c17
-16 23 -33 23 -65 l0 -43 -61 0 c-60 0 -60 0 -57 -27 3 -32 44 -46 54 -19 8
20 64 22 64 2 0 -69 -102 -98 -158 -45 -19 17 -22 31 -22 98 0 68 3 80 23 98
12 11 29 23 37 26 25 10 73 -2 97 -25z m1001 -4 c18 -20 22 -37 22 -87 0 -84
-7 -105 -42 -123 -37 -19 -99 -11 -124 17 -23 26 -31 127 -13 170 25 61 112
74 157 23z m240 8 c8 -10 12 -52 12 -119 l0 -103 -30 0 -30 0 0 90 c0 75 -3
92 -17 97 -32 12 -53 -32 -53 -113 l0 -74 -30 0 -30 0 0 120 0 120 29 0 c16 0
31 -5 33 -11 2 -6 14 -5 33 5 33 17 63 13 83 -12z m530 -9 c15 -16 22 -37 22
-64 l0 -39 -61 0 c-60 0 -60 0 -57 -27 3 -32 44 -46 54 -19 4 10 18 16 35 16
35 0 40 -29 9 -60 -27 -27 -63 -34 -105 -20 -46 15 -55 34 -55 123 0 64 3 76
23 94 12 11 29 23 37 26 28 9 75 -5 98 -30z m757 6 c17 -16 21 -35 23 -120 l4
-100 -44 1 c-23 1 -54 -1 -68 -5 -35 -9 -80 27 -80 63 1 39 21 60 74 78 33 11
46 21 46 35 0 26 -36 25 -52 -1 -13 -20 -52 -27 -62 -12 -10 17 29 76 54 83
36 10 82 0 105 -22z m394 20 c36 -13 61 -53 61 -99 l0 -30 -59 0 c-65 0 -73
-5 -64 -38 6 -26 48 -31 57 -7 3 9 18 15 36 15 28 0 31 -3 25 -22 -4 -13 -18
-34 -33 -47 -21 -19 -33 -22 -65 -18 -59 8 -80 35 -85 107 -5 75 11 118 52
136 38 16 36 16 75 3z m249 0 l43 2 -3 -155 c-3 -134 -5 -157 -22 -175 -42
-46 -144 -35 -166 19 -7 16 -9 34 -5 39 10 18 44 12 57 -9 24 -38 78 -16 78
33 0 11 -11 13 -48 9 -44 -4 -51 -2 -70 23 -18 22 -22 41 -21 94 0 36 4 74 8
85 10 27 52 47 81 39 14 -3 44 -5 68 -4z m237 -20 c17 -16 21 -35 23 -120 l4
-100 -44 1 c-23 1 -55 -1 -70 -5 -21 -6 -32 -2 -52 18 -14 15 -26 38 -26 52 0
25 31 65 50 65 6 0 26 7 45 14 25 11 33 19 29 30 -9 23 -51 20 -59 -4 -4 -12
-15 -20 -29 -20 -32 0 -36 7 -24 42 20 56 107 71 153 27z m-3045 -99 l0 -120
-35 0 -35 0 0 120 0 120 35 0 35 0 0 -120z m1840 108 c0 -9 3 -9 12 0 16 16
83 15 96 0 5 -7 12 -60 14 -118 l3 -105 -32 -3 -33 -3 0 91 c0 72 -3 92 -15
96 -33 13 -45 -15 -45 -102 l0 -84 -35 0 -35 0 0 120 0 120 35 0 c21 0 35 -5
35 -12z m431 -5 c0 -10 8 -43 18 -73 l17 -55 18 73 c18 71 19 72 51 72 l33 0
-34 -117 c-69 -246 -66 -238 -103 -241 -28 -3 -32 -1 -28 15 31 106 31 95 -2
207 -18 59 -35 114 -38 122 -4 10 4 14 31 14 27 0 36 -4 37 -17z"/>
<path d="M6613 9773 c-20 -4 -23 -11 -23 -51 l0 -47 85 0 85 0 0 46 c0 40 -3
48 -22 53 -25 6 -90 6 -125 -1z"/>
<path d="M4082 7658 c-7 -7 -12 -21 -12 -31 0 -16 -5 -18 -26 -13 -22 6 -25 4
-19 -14 5 -14 2 -20 -9 -20 -9 0 -16 -4 -16 -9 0 -19 -62 -34 -122 -28 -64 6
-108 -6 -108 -30 0 -13 16 -17 60 -13 l25 2 -28 -30 -29 -30 39 0 c21 0 57 6
81 14 58 19 70 18 44 -6 -26 -24 -28 -36 -7 -44 25 -9 63 11 68 36 2 13 5 -6
6 -42 1 -67 17 -138 45 -202 20 -46 33 -54 55 -34 10 9 23 16 30 16 7 0 9 4 6
10 -3 6 1 7 10 4 14 -6 15 1 9 56 -6 51 -4 62 7 58 8 -3 19 4 25 16 10 17 9
22 -10 31 -19 10 -26 48 -11 64 9 8 54 -41 49 -54 -6 -14 41 -67 50 -57 3 3 6
20 6 38 0 36 17 54 31 33 6 -10 9 -3 9 20 0 26 3 32 16 27 8 -3 12 -2 9 4 -3
5 8 16 26 25 24 13 30 22 26 40 -4 22 0 24 36 27 49 4 58 22 20 42 -24 12 -25
15 -10 21 9 4 17 15 17 24 0 14 -10 17 -61 15 -53 -1 -68 -6 -125 -44 -57 -38
-68 -41 -89 -32 -14 7 -25 20 -25 31 0 30 -29 34 -42 6 -13 -30 -43 -41 -63
-25 -23 19 -18 40 9 40 33 0 40 14 24 45 -11 20 -16 23 -26 13z"/>
<path d="M1719 5847 c-41 -12 -139 -62 -139 -72 0 -2 17 -24 39 -48 65 -76 86
-130 86 -222 0 -62 -5 -90 -21 -123 l-22 -43 32 -23 c77 -58 238 -88 332 -62
70 19 138 67 169 121 115 195 -91 465 -365 481 -36 2 -86 -2 -111 -9z"/>
<path d="M1157 5817 c-80 -28 -118 -61 -147 -130 -53 -122 15 -277 154 -357
180 -102 393 -64 462 84 86 185 -85 398 -340 421 -48 5 -75 1 -129 -18z"/>
<path d="M1105 4858 c12 -114 30 -191 44 -196 11 -4 13 6 9 46 -6 59 -2 62 73
62 36 0 54 5 69 20 23 23 25 39 8 75 -18 39 -57 55 -138 55 l-72 0 7 -62z"/>
<path d="M3271 4888 c0 -13 10 -70 22 -128 l23 -105 51 -3 c30 -2 66 3 87 12
30 13 36 20 36 46 0 20 -9 40 -25 56 -21 21 -23 28 -13 44 30 48 -38 100 -132
100 -45 0 -50 -2 -49 -22z"/>
<path d="M1560 4847 c-37 -18 -51 -54 -40 -102 12 -53 52 -85 106 -85 45 0 86
22 65 35 -7 4 -18 2 -24 -4 -19 -19 -67 -12 -93 14 -14 14 -22 30 -19 35 3 6
35 10 71 10 69 0 73 4 54 54 -15 41 -79 63 -120 43z"/>
<path d="M1971 4824 c-25 -31 -26 -52 -7 -98 18 -43 51 -66 97 -66 47 0 69 8
69 26 0 16 -16 19 -25 4 -3 -5 -21 -10 -39 -10 -35 0 -83 40 -71 59 3 6 36 11
72 11 l65 0 -6 28 c-17 69 -114 98 -155 46z"/>
<path d="M2897 4839 c-28 -16 -37 -51 -25 -97 17 -69 69 -99 138 -81 9 3 16
-4 18 -18 5 -31 -37 -51 -73 -35 -39 18 -53 14 -26 -8 47 -40 131 -15 131 38
-1 15 -9 65 -18 112 -17 83 -19 85 -47 87 -17 1 -41 4 -55 7 -14 4 -33 1 -43
-5z"/>
<path d="M4048 4819 c-20 -11 -24 -39 -7 -39 6 0 17 7 25 15 21 20 40 19 64
-5 26 -26 18 -40 -21 -40 -66 0 -92 -48 -47 -89 17 -17 33 -20 85 -19 55 2 62
5 58 20 -3 10 -7 26 -9 36 -25 96 -28 102 -56 117 -33 17 -67 19 -92 4z"/>
</g>
</svg>
