<?xml version="1.0" standalone="no"?>
<!DOCTYPE svg PUBLIC "-//W3C//DTD SVG 20010904//EN"
 "http://www.w3.org/TR/2001/REC-SVG-20010904/DTD/svg10.dtd">
<svg version="1.0" xmlns="http://www.w3.org/2000/svg"
 width="720.000000pt" height="1280.000000pt" viewBox="0 0 720.000000 1280.000000"
 preserveAspectRatio="xMidYMid meet">
<metadata>
Created by potrace 1.16, written by Peter Selinger 2001-2019
</metadata>
<g transform="translate(0.000000,1280.000000) scale(0.100000,-0.100000)"
fill="#000000" stroke="none">
<path d="M0 6400 l0 -6400 3600 0 3600 0 0 6400 0 6400 -3600 0 -3600 0 0
-6400z m6796 3680 c79 -37 138 -117 149 -206 9 -63 -8 -125 -50 -190 -28 -44
-31 -52 -17 -60 13 -9 13 -13 -2 -37 -23 -35 -90 -46 -137 -23 -33 16 -80 14
-147 -6 -47 -14 -99 -2 -118 28 -13 20 -14 27 -4 39 11 13 9 19 -7 38 -58 63
-80 189 -48 273 55 145 232 211 381 144z m-653 4 c125 -42 198 -200 153 -327
-41 -113 -135 -177 -261 -177 -137 0 -237 76 -264 200 -15 70 -3 142 33 203
25 41 43 58 94 84 54 28 75 33 131 33 37 0 88 -7 114 -16z m-5834 -111 c15
-56 71 -300 71 -307 0 -3 -16 -6 -35 -6 -30 0 -35 3 -35 24 0 30 -4 33 -54 37
-37 4 -40 2 -48 -29 -8 -28 -13 -32 -42 -32 l-34 0 14 58 c7 31 26 110 41 175
l27 117 43 0 c40 0 43 -2 52 -37z m401 -55 l1 -93 30 38 c23 27 39 37 60 37
16 0 29 -3 29 -6 0 -4 -16 -28 -35 -53 -30 -41 -33 -50 -21 -67 7 -10 25 -40
40 -66 l27 -48 -35 0 c-30 0 -38 5 -57 40 -26 45 -39 43 -39 -6 0 -31 -2 -34
-30 -34 l-30 0 0 175 0 175 30 0 30 0 0 -92z m1740 -83 l0 -176 -42 1 c-24 1
-55 -1 -69 -5 -19 -5 -33 -1 -55 18 -28 24 -29 29 -28 107 1 68 4 85 21 102
22 21 54 27 91 14 21 -7 22 -5 22 53 l0 61 30 0 30 0 0 -175z m452 83 l3 -92
25 37 c20 30 31 37 58 37 30 0 42 -12 24 -24 -5 -3 -21 -23 -36 -44 l-27 -40
40 -66 41 -66 -34 0 c-28 0 -38 7 -62 43 l-29 42 -3 -42 c-3 -42 -4 -43 -38
-43 l-34 0 0 175 0 175 35 0 34 0 3 -92z m728 27 l0 -66 30 16 c33 17 60 13
85 -11 11 -12 15 -40 15 -120 l0 -104 -30 0 -30 0 0 90 c0 75 -3 92 -16 97
-37 14 -49 -10 -52 -101 l-3 -86 -29 0 -30 0 0 175 0 175 30 0 30 0 0 -65z
m530 4 c0 -58 1 -60 23 -53 76 26 107 -8 107 -118 0 -71 -2 -81 -26 -105 -20
-20 -31 -24 -52 -18 -15 4 -46 6 -69 5 l-43 -1 0 176 0 175 30 0 30 0 0 -61z
m-1482 -11 c3 -35 6 -38 33 -38 24 0 29 -4 29 -25 0 -21 -5 -25 -30 -25 l-31
0 3 -67 c3 -66 4 -68 31 -71 21 -3 27 -8 23 -19 -3 -8 -6 -19 -6 -24 0 -16
-73 -10 -92 8 -14 13 -18 31 -18 90 0 66 -2 75 -20 80 -13 3 -20 14 -20 29 0
17 6 24 20 24 16 0 20 7 20 33 0 40 7 49 35 45 15 -2 21 -12 23 -40z m-2094
-59 c24 -23 34 -121 17 -172 -15 -44 -59 -66 -97 -48 -14 6 -27 11 -29 11 -3
0 -5 -30 -5 -66 l0 -65 -27 3 -28 3 -3 179 -2 179 37 -5 c21 -3 47 -2 58 3 26
10 55 2 79 -22z m405 20 c44 -16 51 -35 51 -143 l0 -96 -47 -1 c-27 0 -60 -1
-75 -1 -40 -1 -58 19 -58 63 0 43 20 63 83 80 28 7 37 15 35 27 -5 26 -48 28
-55 3 -4 -14 -13 -21 -29 -21 -65 0 -15 96 52 99 6 1 25 -4 43 -10z m290 0
c38 -14 51 -35 51 -88 l0 -41 -61 0 c-60 0 -60 0 -57 -27 3 -32 44 -46 54 -19
4 10 18 16 35 16 35 0 39 -25 10 -61 -27 -34 -99 -34 -135 0 -23 22 -26 32
-26 96 0 79 20 120 63 128 12 2 25 5 28 6 3 0 20 -4 38 -10z m198 0 c32 -12
43 -26 43 -56 0 -31 -45 -33 -53 -3 -7 26 -47 27 -47 1 0 -11 12 -23 30 -31
78 -32 101 -82 61 -131 -15 -19 -29 -24 -66 -24 -37 0 -51 5 -66 24 -29 36
-25 61 11 61 24 0 30 -4 30 -21 0 -15 5 -20 23 -17 37 5 26 36 -23 60 -88 45
-75 133 22 147 4 1 19 -4 35 -10z m197 -3 c31 -13 53 -55 38 -71 -14 -14 -50
-3 -55 16 -4 13 -12 20 -24 17 -29 -5 -21 -32 15 -50 73 -36 92 -81 53 -129
-15 -19 -29 -24 -66 -24 -37 0 -51 5 -66 24 -29 36 -25 61 10 61 21 0 30 -6
34 -21 7 -25 40 -22 45 3 2 12 -11 24 -43 39 -74 35 -86 106 -22 134 40 18 41
18 81 1z m205 3 c17 -6 36 -19 41 -29 6 -10 10 -62 10 -115 l0 -97 -32 3 c-18
1 -48 -1 -66 -5 -50 -12 -82 13 -82 64 0 44 20 64 83 81 28 7 37 15 35 27 -5
25 -45 27 -58 3 -13 -24 -48 -28 -56 -6 -8 20 21 64 49 75 30 12 39 12 76 -1z
m318 -21 c17 -16 23 -33 23 -65 l0 -43 -61 0 c-60 0 -60 0 -57 -27 3 -32 44
-46 54 -19 8 20 64 22 64 2 0 -69 -102 -98 -158 -45 -19 17 -22 31 -22 98 0
68 3 80 23 98 12 11 29 23 37 26 25 10 73 -2 97 -25z m1001 -4 c18 -21 22 -36
22 -98 0 -65 -3 -75 -26 -97 -35 -33 -104 -34 -136 -2 -27 28 -37 127 -17 174
24 60 111 73 157 23z m240 8 c8 -10 12 -52 12 -119 l0 -103 -30 0 -30 0 0 90
c0 75 -3 92 -17 97 -32 12 -53 -32 -53 -113 l0 -74 -30 0 -30 0 0 120 0 120
29 0 c16 0 31 -5 33 -11 2 -6 14 -5 33 5 33 17 63 13 83 -12z m529 -4 c17 -16
23 -33 23 -65 l0 -43 -61 0 c-60 0 -60 0 -57 -27 3 -32 44 -46 54 -19 4 10 18
16 35 16 35 0 40 -29 9 -60 -27 -27 -63 -34 -105 -20 -46 15 -55 34 -55 123 0
64 3 76 23 94 12 11 29 23 37 26 25 10 73 -2 97 -25z m540 8 c6 -6 13 -57 16
-118 l5 -108 -34 0 -34 0 0 90 c0 72 -3 92 -15 96 -33 13 -45 -15 -45 -102 l0
-84 -35 0 -35 0 0 120 0 120 35 0 c19 0 35 -4 35 -9 0 -6 12 -3 28 4 28 15 58
12 79 -9z m218 -7 c17 -16 21 -35 23 -120 l4 -100 -44 1 c-23 1 -54 -1 -68 -5
-35 -9 -80 27 -80 64 0 39 19 60 70 75 33 10 46 19 48 35 4 28 -33 29 -50 1
-12 -19 -48 -27 -60 -14 -15 14 11 60 43 77 40 20 84 15 114 -14z m400 16 c37
-15 55 -46 55 -96 0 -29 0 -29 -59 -29 -65 0 -73 -5 -64 -38 6 -26 53 -32 53
-7 0 11 11 15 36 15 32 0 35 -2 29 -22 -4 -13 -18 -34 -33 -47 -21 -19 -33
-22 -65 -18 -59 8 -80 35 -85 107 -5 75 11 118 52 136 39 17 40 17 81 -1z
m198 1 c15 -8 27 -11 27 -5 0 5 14 9 30 9 l30 0 0 -149 c0 -134 -2 -151 -20
-174 -41 -52 -147 -44 -170 13 -7 16 -9 34 -5 39 10 18 44 12 57 -9 26 -41 78
-15 78 40 0 17 -3 19 -19 10 -36 -19 -78 -12 -100 16 -16 21 -21 41 -21 90 0
72 13 107 44 122 29 14 37 14 69 -2z m285 -22 c19 -22 22 -36 22 -120 l0 -95
-42 1 c-24 1 -55 -1 -70 -5 -21 -6 -32 -2 -52 18 -48 48 -29 99 44 121 33 10
46 19 48 35 4 28 -33 29 -50 1 -12 -19 -48 -27 -60 -14 -15 14 11 60 43 77 43
22 86 16 117 -19z m-3048 -94 l0 -120 -35 0 -35 0 0 113 c0 63 3 117 7 120 3
4 19 7 35 7 l28 0 0 -120z m2271 103 c0 -10 8 -43 18 -73 l17 -55 19 73 c18
70 20 72 51 72 l32 0 -24 -82 c-79 -281 -76 -273 -113 -276 -28 -3 -33 -1 -27
14 28 74 28 99 -3 207 -18 59 -34 113 -37 122 -5 12 2 15 30 15 27 0 36 -4 37
-17z m-1249 -2630 c37 -15 327 -256 393 -327 37 -40 92 -76 114 -76 26 0 81
51 81 74 0 9 7 16 16 16 14 0 16 -10 12 -62 -5 -84 -37 -148 -87 -176 -89 -50
-125 -29 -465 279 -130 118 -151 131 -203 131 -45 0 -84 -37 -114 -105 -17
-41 -23 -77 -26 -177 l-5 -125 186 -164 c127 -112 183 -168 176 -175 -5 -5
-10 -53 -10 -106 l-1 -95 -48 -52 c-37 -39 -52 -49 -59 -40 -7 8 -6 20 3 37
18 31 18 98 2 126 -7 12 -61 66 -122 120 -60 53 -152 136 -203 183 -52 47
-105 92 -119 100 -34 17 -117 10 -142 -14 -19 -16 -41 -14 -41 5 0 5 13 31 28
57 16 26 45 80 66 118 59 109 54 108 134 37 38 -34 75 -68 82 -77 7 -8 16 -15
21 -15 4 0 7 64 6 143 -2 179 13 237 79 303 25 25 59 52 77 59 44 19 118 18
169 -2z m-733 -850 c28 -16 123 -93 211 -172 l161 -143 -49 -23 c-27 -12 -58
-34 -69 -49 -12 -14 -25 -26 -29 -26 -5 0 -52 39 -104 86 -185 169 -234 204
-279 204 -32 0 -86 -55 -112 -112 -18 -44 -23 -76 -27 -178 l-4 -126 88 -76
c49 -41 125 -109 169 -150 78 -73 79 -75 64 -99 -9 -13 -22 -49 -29 -79 -7
-30 -16 -64 -20 -75 -6 -19 -8 -18 -21 6 -14 27 -412 389 -448 408 -31 17 -93
13 -129 -9 -32 -20 -52 -19 -52 0 0 6 22 47 49 92 26 46 60 104 75 131 15 26
30 47 33 47 3 0 40 -31 82 -68 112 -101 105 -103 97 26 -11 181 22 297 105
363 49 38 74 48 135 48 38 1 65 -6 103 -26z m1167 -145 c2 -48 11 -124 20
-168 9 -45 14 -82 13 -83 -2 -1 -19 -8 -36 -14 -32 -11 -33 -11 -43 25 -6 21
-14 94 -17 163 -6 137 2 173 39 167 19 -3 21 -11 24 -90z m-2223 -214 c3 -4
-1 -20 -10 -37 -22 -43 -13 -120 18 -153 13 -15 80 -76 149 -137 69 -62 127
-114 130 -117 3 -3 66 -59 140 -125 74 -66 140 -124 146 -130 45 -42 169 -151
190 -167 40 -32 95 -34 143 -7 29 16 44 20 52 12 7 -7 6 -14 -3 -24 -8 -8 -74
-81 -148 -164 -74 -82 -136 -149 -137 -148 -2 1 -8 3 -14 5 -6 2 -4 15 5 33 9
17 16 49 16 73 0 40 -5 48 -67 111 -70 69 -221 207 -283 257 -19 16 -39 34
-45 40 -5 6 -55 51 -110 99 -55 49 -137 123 -183 164 -45 42 -97 84 -115 94
-42 23 -94 22 -135 -3 -18 -11 -38 -18 -43 -15 -10 7 6 30 73 105 92 101 174
194 192 216 20 25 28 28 39 18z m1531 -59 c18 -9 40 -28 49 -44 19 -32 23
-126 7 -136 -6 -4 -9 6 -8 27 2 24 -1 33 -14 36 -12 2 -18 -3 -19 -15 0 -10
-5 -2 -11 17 -13 47 -26 60 -57 60 -40 0 -71 -26 -71 -60 0 -45 14 -71 80
-140 34 -36 68 -78 76 -93 21 -39 21 -115 0 -154 -45 -88 -186 -82 -229 10
-19 40 -22 67 -7 67 6 0 10 -11 10 -23 0 -25 35 -65 47 -54 3 4 2 7 -4 7 -5 0
-9 16 -9 35 1 44 9 45 21 3 14 -46 55 -60 93 -31 55 41 39 104 -49 192 -66 66
-89 113 -89 181 0 99 94 158 184 115z m400 -67 c27 -26 48 -59 56 -83 19 -67
23 -269 7 -380 -8 -55 -15 -84 -16 -63 -1 49 -33 47 -42 -3 -4 -19 -6 31 -5
111 l1 145 -109 9 c-81 6 -110 5 -116 -4 -4 -6 -13 -65 -21 -131 -18 -167 -33
-159 -31 16 l1 60 -13 -70 c-8 -38 -19 -81 -25 -95 -11 -23 -11 -23 -7 10 3
19 10 73 16 120 34 261 113 398 232 400 19 0 41 -13 72 -42z m1308 -44 c-1
-21 -7 -182 -13 -358 -10 -263 -10 -319 1 -326 8 -5 42 -14 78 -21 116 -22
239 8 298 73 30 33 34 45 34 92 0 39 -8 69 -29 110 l-29 58 42 18 c26 11 45
14 51 8 6 -5 10 -53 10 -106 0 -88 -3 -103 -32 -164 -74 -156 -207 -238 -389
-238 -277 0 -499 226 -482 491 11 182 178 347 403 398 55 12 60 10 57 -35z
m-896 14 c43 -20 76 -106 82 -212 6 -123 -7 -366 -20 -366 -6 0 -8 9 -5 21 3
11 3 27 0 34 -8 22 -33 5 -33 -21 0 -13 -5 -24 -11 -24 -8 0 -10 13 -6 38 3
20 9 80 13 133 8 114 19 104 -131 114 l-100 7 -12 -79 c-7 -43 -16 -103 -20
-133 -7 -52 -8 -53 -13 -20 -7 45 -37 54 -43 13 -5 -36 3 89 9 142 3 22 9 54
14 70 4 17 11 47 15 68 3 20 19 65 34 100 55 120 131 159 227 115z m-503 -317
c28 -3 -24 -295 -69 -382 -45 -86 -67 -125 -81 -141 -10 -11 -13 -26 -9 -42 6
-26 -14 -56 -40 -56 -19 0 -57 60 -94 150 -17 41 -35 84 -40 95 -16 36 -37
120 -32 133 2 6 16 12 31 12 24 0 29 -7 60 -97 42 -119 78 -203 88 -203 7 0
37 90 104 305 6 17 14 71 19 122 9 103 13 113 38 108 9 -2 20 -4 25 -4z m456
-325 c6 -8 36 -17 65 -21 45 -5 62 -2 96 15 l42 22 27 -24 c487 -441 544 -488
595 -488 11 0 39 10 64 21 88 43 70 9 -85 -164 -103 -114 -152 -162 -160 -155
-8 7 -8 16 3 36 19 37 17 101 -4 134 -9 15 -82 84 -162 155 -79 70 -199 178
-266 238 -67 61 -151 136 -188 168 -36 32 -66 62 -66 68 0 14 26 11 39 -5z
m-90 -59 c5 -13 55 -117 111 -232 56 -116 134 -275 172 -355 38 -80 101 -211
140 -292 102 -212 103 -212 -227 -88 -27 11 -156 56 -285 100 -255 88 -394
137 -425 149 -51 20 -118 41 -122 37 -2 -2 94 -90 214 -197 120 -106 243 -216
273 -243 119 -109 202 -181 218 -188 36 -14 109 -8 134 12 18 14 28 16 36 8 8
-8 -16 -41 -85 -117 -113 -125 -139 -136 -102 -45 23 57 6 96 -79 178 -42 41
-120 112 -172 158 -53 45 -192 169 -309 273 -117 105 -222 195 -234 202 -35
19 -105 16 -143 -7 -46 -29 -53 -8 -13 38 56 65 107 120 117 126 5 3 26 -1 46
-9 19 -8 64 -15 98 -15 38 0 82 -8 113 -19 135 -52 876 -311 890 -311 3 0 -61
135 -301 629 -57 117 -101 217 -98 222 9 16 24 10 33 -14z"/>
<path d="M6613 9773 c-20 -4 -23 -11 -23 -51 l0 -47 85 0 85 0 0 46 c0 40 -3
48 -22 53 -25 6 -90 6 -125 -1z"/>
<path d="M3599 5873 c-25 -15 -88 -127 -78 -137 6 -7 201 -27 207 -22 10 11
-10 114 -28 144 -23 37 -58 42 -101 15z"/>
<path d="M4755 5729 c-43 -12 -103 -65 -120 -106 -23 -53 -19 -121 8 -167 43
-70 142 -160 227 -205 45 -24 87 -41 94 -38 11 4 15 56 21 230 8 244 6 256
-45 282 -32 16 -135 19 -185 4z"/>
<path d="M4010 5810 c-27 -29 -68 -116 -58 -125 8 -8 198 -28 205 -22 10 11
-18 120 -39 150 -27 38 -71 37 -108 -3z"/>
</g>
</svg>
