<?xml version="1.0" standalone="no"?>
<!DOCTYPE svg PUBLIC "-//W3C//DTD SVG 20010904//EN"
 "http://www.w3.org/TR/2001/REC-SVG-20010904/DTD/svg10.dtd">
<svg version="1.0" xmlns="http://www.w3.org/2000/svg"
 width="720.000000pt" height="1280.000000pt" viewBox="0 0 720.000000 1280.000000"
 preserveAspectRatio="xMidYMid meet">
<metadata>
Created by potrace 1.16, written by Peter Selinger 2001-2019
</metadata>
<g transform="translate(0.000000,1280.000000) scale(0.100000,-0.100000)"
fill="#000000" stroke="none">
<path d="M0 6400 l0 -6400 3600 0 3600 0 0 1100 c0 1098 0 1100 -20 1088 -15
-10 -20 -24 -21 -63 -1 -27 -1 -55 0 -61 1 -12 -446 -20 -492 -9 -15 4 -27 13
-27 21 0 8 -6 14 -14 14 -22 0 -27 43 -20 181 5 83 3 129 -3 129 -6 0 -13 96
-17 248 -16 542 -19 580 -41 596 -11 9 -30 16 -41 16 -12 0 -27 6 -33 14 -7 9
-40 17 -79 21 -37 4 -94 15 -127 25 -53 16 -124 24 -310 36 -28 1 -63 8 -78
13 -16 6 -43 11 -61 11 -18 0 -46 4 -62 9 -16 6 -78 12 -139 15 -60 3 -141 10
-180 16 -80 13 -202 28 -290 37 -33 3 -62 9 -65 13 -5 7 -207 30 -245 28 -64
-4 -85 2 -85 24 0 12 3 18 7 15 3 -4 17 3 30 15 23 22 24 22 87 5 36 -9 75
-17 88 -17 15 0 68 40 158 121 74 66 181 159 237 205 56 47 109 96 117 109 19
29 21 161 6 390 -16 238 -14 326 14 493 34 199 34 217 -3 251 -26 24 -150 71
-187 71 -7 0 -21 35 -33 78 -28 103 -111 349 -150 442 -32 77 -97 180 -112
180 -5 0 -9 7 -9 15 0 8 -31 36 -70 61 l-70 47 24 28 c24 28 35 54 56 139 14
54 26 40 36 -41 4 -39 2 -65 -10 -93 -12 -29 -13 -36 -2 -27 7 6 21 32 31 57
34 90 0 288 -64 374 l-26 35 32 -23 c69 -49 109 -140 99 -229 l-5 -58 15 35
c22 47 14 141 -16 200 -49 96 -174 190 -253 190 -41 0 -45 10 -22 50 31 55 11
191 -45 307 -57 115 -192 210 -334 234 -118 20 -259 -4 -347 -59 -24 -15 -70
-35 -101 -45 -162 -50 -276 -186 -266 -319 2 -32 10 -64 16 -70 10 -10 11 -2
7 32 -4 32 0 57 13 85 l19 40 -5 -80 -4 -81 42 -38 c26 -23 46 -51 50 -70 4
-19 6 0 6 51 -1 45 2 85 6 89 4 3 19 -1 32 -10 14 -9 29 -16 33 -16 14 1 -39
40 -53 40 -8 0 -14 6 -14 13 0 17 45 107 67 134 18 22 18 22 18 -60 0 -71 4
-88 27 -128 26 -45 90 -109 107 -109 5 0 3 17 -5 38 -14 40 -18 151 -7 192 6
21 10 13 24 -45 9 -38 20 -78 24 -89 7 -16 6 -17 -14 -6 -34 18 -37 4 -4 -16
15 -10 59 -47 96 -82 37 -36 71 -62 74 -58 3 3 0 14 -8 24 -8 10 -3 6 11 -9
14 -14 36 -32 49 -39 23 -12 23 -11 17 16 l-7 29 20 -32 c11 -18 28 -58 37
-89 13 -47 14 -63 4 -100 -7 -25 -10 -47 -7 -50 9 -9 46 56 57 101 16 64 33
88 78 113 40 22 44 23 67 8 20 -13 25 -25 25 -60 0 -75 -65 -144 -157 -169
-24 -6 -43 -15 -43 -19 0 -11 28 -10 50 2 16 8 19 5 25 -20 7 -32 45 -65 137
-120 94 -56 90 -109 -16 -185 -95 -67 -160 -89 -276 -89 -108 -1 -153 16 -207
78 -26 29 -80 143 -71 151 2 2 17 6 35 10 30 6 34 3 78 -55 25 -34 45 -67 45
-73 0 -6 3 -8 6 -4 3 3 -8 31 -25 63 -31 57 -32 74 -5 74 8 0 14 3 14 8 0 4
23 20 50 35 53 30 70 47 23 24 -42 -22 -153 -55 -203 -61 -76 -10 -96 10 -162
160 -32 71 -59 138 -61 149 -4 19 -5 18 -6 -2 0 -11 13 -51 29 -88 17 -37 30
-72 30 -79 0 -7 -18 -18 -41 -25 -23 -7 -39 -14 -37 -17 3 -2 23 2 46 10 l41
15 28 -52 c19 -34 40 -59 64 -71 29 -16 40 -30 53 -71 44 -141 167 -216 319
-194 86 12 120 23 185 60 102 57 141 99 142 151 0 43 -10 58 -59 83 -93 47
-83 54 14 10 56 -26 116 -62 136 -81 25 -24 53 -40 90 -49 30 -7 44 -13 31
-14 -79 -4 -155 -97 -210 -256 -55 -161 -88 -470 -71 -667 6 -77 5 -107 -6
-139 -8 -23 -15 -49 -15 -59 0 -9 -11 -22 -24 -30 -18 -9 -31 -32 -48 -86 -22
-73 -24 -75 -76 -101 -58 -28 -85 -57 -104 -109 -12 -33 -14 -34 -63 -34 -61
0 -180 30 -238 60 -51 27 -123 85 -137 110 -8 14 -5 35 9 77 11 32 21 54 21
48 0 -5 10 -21 21 -35 11 -14 -7 27 -41 91 -98 188 -124 284 -133 479 -3 73
-7 91 -31 125 -39 57 -42 57 -13 0 20 -40 26 -72 32 -160 l7 -110 -26 30 c-37
44 -32 12 10 -65 62 -114 85 -181 79 -222 -4 -21 -11 -40 -16 -43 -4 -3 7 -26
26 -51 42 -54 46 -108 15 -167 -24 -44 -25 -63 -5 -110 20 -48 19 -99 -2 -128
-32 -43 -40 -64 -48 -117 -4 -29 -11 -52 -16 -52 -5 0 -21 24 -35 54 -34 72
-81 86 -156 44 -46 -26 -68 -63 -67 -110 0 -28 2 -30 9 -13 8 18 9 17 9 -7 1
-16 -3 -28 -7 -28 -19 0 -50 48 -57 87 -4 24 -12 46 -17 49 -7 4 -8 2 -4 -4
12 -20 -19 -14 -55 11 -21 14 -41 41 -53 70 -20 47 -18 85 8 162 3 11 -3 2
-14 -20 -36 -74 -21 -156 40 -208 22 -19 40 -38 40 -43 0 -5 -30 -43 -67 -84
-76 -84 -128 -161 -138 -203 -8 -32 8 -77 34 -96 17 -12 16 -17 -6 -99 -13
-48 -23 -97 -23 -109 0 -12 -6 -28 -13 -35 -23 -23 -28 -195 -28 -901 0 -461
3 -673 10 -675 6 -2 11 -9 11 -16 0 -9 -23 -15 -67 -19 -83 -8 -313 -9 -313
-2 0 3 7 17 16 30 12 19 15 41 12 88 -5 73 -64 208 -128 293 -35 47 -64 101
-98 185 -9 23 -7 30 12 46 25 22 46 77 105 276 37 123 52 155 132 290 113 187
255 480 271 558 14 69 -1 187 -31 247 -22 43 -156 178 -227 228 -27 19 -50 39
-52 44 -5 14 43 101 92 166 56 75 66 101 66 169 0 44 6 62 35 104 47 71 53
109 26 177 -25 66 -26 90 -6 137 26 62 19 107 -30 200 -44 83 -44 86 -70 293
-31 244 -68 457 -91 514 -21 53 -113 137 -200 182 -70 37 -249 108 -271 108
-18 0 -16 17 7 85 15 44 20 84 20 167 0 59 4 116 9 126 4 9 22 45 40 78 19 38
31 77 31 100 0 44 13 37 29 -16 9 -31 10 -25 8 42 -2 68 -6 82 -33 121 l-32
44 39 17 c38 17 56 43 21 32 -17 -6 -118 38 -157 67 -20 15 -20 16 3 40 l23
24 -53 6 c-29 3 -68 9 -87 13 -24 5 -32 4 -27 -4 3 -6 2 -13 -4 -17 -6 -4 -8
-11 -5 -16 4 -5 -16 -9 -44 -9 -28 0 -51 5 -51 10 0 6 -7 10 -15 10 -8 0 -15
3 -16 8 0 4 -2 17 -5 30 -2 12 1 22 6 22 5 0 9 11 8 25 l-2 25 -121 -3 c-105
-3 -128 -7 -179 -30 -32 -15 -61 -27 -63 -27 -3 0 -2 11 1 25 4 14 2 25 -3 25
-18 0 -70 -71 -77 -104 -5 -28 -12 -36 -34 -41 -45 -10 -118 -61 -135 -95
l-16 -32 38 26 c56 38 60 32 14 -20 -69 -79 -105 -255 -66 -324 14 -25 14 -24
15 20 l2 45 13 -63 c8 -34 20 -75 28 -90 30 -58 116 -193 141 -223 14 -17 24
-34 21 -38 -2 -5 -51 -29 -109 -55 -247 -110 -466 -237 -532 -307 -57 -61
-113 -150 -133 -212 -22 -68 -44 -196 -61 -352 -12 -111 -36 -209 -49 -200
-11 6 -36 -23 -27 -32 4 -4 11 -1 16 7 17 27 11 -25 -15 -143 -34 -150 -32
-144 -61 -151 -60 -15 -143 -108 -191 -213 -26 -56 -26 -58 -14 -152 7 -53 24
-139 37 -191 21 -81 24 -118 24 -263 0 -178 5 -202 51 -242 12 -11 19 -14 15
-8 -10 18 -6 17 74 -23 66 -32 77 -35 128 -28 32 3 71 15 89 26 18 10 45 23
61 28 l29 8 38 -97 c21 -53 50 -114 65 -136 52 -77 63 -107 64 -177 1 -66 2
-68 46 -113 43 -44 45 -48 42 -96 -3 -36 2 -58 17 -84 11 -20 32 -83 46 -141
27 -110 61 -193 114 -282 17 -29 42 -94 56 -145 39 -138 52 -168 102 -218 l45
-47 8 -108 c5 -60 4 -129 0 -154 -5 -25 -9 -62 -10 -83 l0 -37 -797 2 -798 3
-3 1367 c-2 1332 -2 1368 17 1377 25 14 35 58 20 93 -13 32 -25 36 -32 11 -3
-10 -5 156 -6 370 -1 374 0 388 19 407 11 11 32 20 48 20 40 1 60 21 68 68 6
39 5 41 -22 48 -18 5 -29 3 -32 -4 -2 -7 -10 -12 -18 -12 -8 0 -14 -4 -14 -10
0 -5 -7 -10 -15 -10 -8 0 -15 -4 -15 -10 0 -5 -4 -10 -10 -10 -6 0 -10 69 -10
186 0 166 2 185 16 180 9 -3 22 -6 30 -6 9 0 14 -11 14 -30 0 -23 6 -33 24
-40 14 -5 30 -18 36 -30 7 -13 20 -20 38 -19 15 1 35 -2 45 -6 9 -4 17 -3 17
3 0 10 135 122 148 122 4 0 21 11 37 24 24 20 28 27 18 37 -11 10 -20 7 -47
-20 -34 -33 -191 -105 -207 -95 -14 8 -11 57 6 104 8 23 13 55 10 71 -6 32 15
77 64 144 17 22 39 56 50 77 18 31 18 38 6 48 -12 10 -21 6 -50 -19 -38 -33
-59 -39 -71 -19 -19 30 6 141 57 262 33 77 35 94 15 121 -14 19 -15 19 -35 1
-15 -14 -21 -31 -21 -63 0 -47 -26 -82 -61 -83 -9 0 -22 -7 -29 -16 -14 -15
-86 -54 -103 -54 -14 0 -4 217 11 232 9 9 12 7 12 -15 0 -29 29 -51 53 -41 16
6 31 38 43 86 4 19 0 33 -14 48 l-19 20 -44 -19 -44 -20 -3 721 c-1 397 2 726
6 730 15 15 62 -10 62 -32 0 -24 9 -25 57 -5 51 21 54 20 47 -25 -12 -71 -10
-84 10 -88 40 -8 216 98 216 130 0 6 14 23 32 40 24 22 42 30 75 31 47 2 52
12 33 62 -11 29 -57 75 -74 75 -6 -1 -22 -7 -36 -15 -14 -8 -40 -14 -57 -15
-18 0 -33 -4 -33 -9 0 -5 -16 -12 -36 -16 -20 -3 -53 -15 -73 -26 -42 -23 -88
-24 -115 -4 -23 17 -56 20 -56 5 0 -5 -9 -10 -20 -10 -11 0 -20 -6 -20 -12 0
-10 -2 -10 -8 -1 -4 6 -9 185 -11 397 l-3 386 3534 -2 3533 -3 3 -30 c1 -16 5
-40 7 -52 6 -26 58 -89 86 -104 19 -9 19 39 19 1866 l0 1875 -3600 0 -3600 0
0 -6400z m6795 3679 c153 -68 200 -265 96 -404 -25 -34 -27 -41 -14 -50 23
-17 -3 -53 -49 -67 -30 -9 -45 -8 -80 5 -34 13 -55 15 -98 8 -30 -5 -63 -13
-73 -16 -53 -21 -137 34 -107 70 11 13 9 19 -8 38 -85 90 -82 268 6 360 77 82
216 105 327 56z m-652 5 c52 -18 116 -76 143 -132 28 -55 26 -174 -4 -229 -50
-95 -136 -143 -256 -143 -209 0 -331 220 -222 402 25 42 43 59 94 85 54 28 75
33 131 33 37 0 88 -7 114 -16z m-5834 -111 c15 -56 71 -300 71 -307 0 -3 -15
-6 -33 -6 -28 0 -34 4 -42 33 -9 29 -14 32 -49 32 -36 0 -40 -3 -48 -32 -8
-29 -13 -33 -42 -33 l-34 0 14 58 c7 31 26 110 41 175 l27 117 43 0 c40 0 43
-2 52 -37z m401 -55 l1 -93 30 38 c23 27 39 37 60 37 16 0 29 -3 29 -6 0 -4
-16 -28 -35 -53 -30 -41 -33 -50 -21 -67 7 -10 25 -40 40 -66 l27 -48 -35 0
c-30 0 -38 5 -57 40 -13 22 -26 40 -31 40 -4 0 -8 -18 -8 -40 0 -38 -2 -40
-30 -40 l-30 0 0 175 0 175 30 0 30 0 0 -92z m1740 -83 l0 -176 -42 1 c-24 1
-55 -1 -69 -5 -19 -5 -33 -1 -55 18 -28 24 -29 29 -29 106 1 69 4 85 22 102
22 22 54 28 91 15 21 -7 22 -5 22 53 l0 61 30 0 30 0 0 -175z m452 83 l3 -92
25 37 c20 30 31 37 58 37 30 0 42 -12 24 -24 -5 -3 -21 -23 -36 -44 l-27 -40
40 -66 41 -66 -35 0 c-30 0 -38 5 -57 40 -13 22 -26 40 -30 40 -5 0 -8 -18 -8
-40 0 -39 -1 -40 -35 -40 l-35 0 0 168 c0 93 3 172 7 175 3 4 19 7 34 7 l28 0
3 -92z m728 28 l0 -65 35 15 c28 11 40 12 58 3 34 -18 37 -27 37 -136 l0 -103
-30 0 -30 0 0 90 c0 75 -3 92 -16 97 -37 14 -49 -10 -52 -101 l-3 -86 -29 0
-30 0 0 175 0 175 30 0 30 0 0 -64z m530 3 c0 -58 1 -60 23 -53 76 26 107 -8
107 -118 0 -71 -2 -81 -26 -105 -21 -21 -31 -24 -57 -18 -18 4 -49 6 -69 6
l-38 -2 0 176 0 175 30 0 30 0 0 -61z m-1482 -11 c3 -35 6 -38 33 -38 24 0 29
-4 29 -25 0 -21 -5 -25 -30 -25 l-31 0 3 -67 c3 -66 4 -68 31 -71 21 -3 27 -8
23 -19 -3 -8 -6 -19 -6 -24 0 -16 -73 -10 -92 8 -14 13 -18 31 -18 90 0 66 -2
75 -20 80 -13 3 -20 14 -20 29 0 17 6 24 20 24 17 0 20 7 20 41 0 38 1 40 28
37 23 -3 27 -8 30 -40z m-2094 -58 c24 -24 34 -122 17 -173 -15 -44 -59 -66
-97 -48 -14 6 -27 11 -29 11 -3 0 -5 -29 -5 -65 l0 -65 -30 0 -30 0 0 181 0
182 39 -6 c21 -2 45 -1 52 4 19 12 60 2 83 -21z m402 20 c8 0 23 -9 34 -20 17
-17 20 -33 20 -121 l0 -101 -32 3 c-18 1 -48 -1 -66 -5 -50 -12 -82 13 -82 64
0 44 20 64 83 81 28 7 37 15 35 27 -5 25 -45 27 -58 3 -13 -25 -48 -28 -57 -5
-13 34 56 90 95 78 8 -2 20 -4 28 -4z m293 -1 c38 -14 51 -35 51 -88 l0 -41
-61 0 c-60 0 -60 0 -57 -27 3 -32 44 -46 54 -19 4 10 18 16 35 16 35 0 39 -25
10 -61 -27 -34 -99 -34 -135 0 -23 22 -26 32 -26 96 0 79 20 120 63 128 12 2
25 5 28 6 3 0 20 -4 38 -10z m199 0 c29 -10 59 -59 45 -73 -15 -15 -51 -5 -56
15 -4 13 -12 20 -24 17 -31 -6 -27 -34 7 -48 78 -32 101 -82 61 -131 -15 -19
-29 -24 -66 -24 -37 0 -51 5 -66 24 -29 36 -25 61 11 61 24 0 30 -4 30 -21 0
-15 5 -20 22 -17 42 6 33 36 -16 58 -54 23 -75 57 -60 98 9 25 45 52 70 52 6
0 25 -5 42 -11z m219 -13 c6 -6 13 -22 15 -36 2 -21 -2 -26 -23 -28 -20 -2
-28 2 -32 18 -4 14 -12 21 -24 18 -29 -5 -21 -32 15 -50 73 -36 92 -81 53
-129 -15 -19 -29 -24 -66 -24 -37 0 -51 5 -66 24 -29 36 -25 61 10 61 21 0 30
-6 34 -21 7 -25 40 -22 45 4 3 12 -9 23 -42 37 -51 21 -70 54 -60 97 12 45
104 65 141 29z m182 13 c17 -6 36 -19 41 -29 6 -10 10 -62 10 -116 l0 -97 -40
6 c-22 3 -43 1 -46 -4 -8 -14 -47 -11 -72 7 -16 11 -22 25 -22 54 0 44 20 64
83 81 28 7 37 15 35 27 -5 25 -45 27 -58 3 -13 -25 -48 -28 -57 -5 -8 23 16
62 46 73 35 13 43 13 80 0z m319 -22 c16 -15 22 -32 22 -64 l0 -43 -61 0 c-60
0 -60 0 -57 -27 3 -32 44 -46 54 -19 8 20 64 22 64 2 0 -69 -102 -98 -158 -45
-19 17 -22 31 -22 98 0 68 3 80 23 98 12 11 29 23 37 26 25 9 73 -4 98 -26z
m1000 -3 c19 -21 22 -36 22 -99 0 -70 -1 -74 -32 -100 -27 -23 -39 -26 -71
-22 -59 8 -80 35 -85 107 -3 36 1 72 9 91 24 60 111 73 157 23z m240 9 c8 -11
12 -53 12 -120 l0 -103 -30 0 -30 0 0 90 c0 75 -3 92 -17 97 -32 12 -53 -32
-53 -113 l0 -74 -30 0 -30 0 0 120 0 120 29 0 c16 0 31 -5 33 -12 3 -8 11 -7
29 5 27 20 67 15 87 -10z m530 -9 c15 -17 22 -38 22 -65 l0 -39 -61 0 c-60 0
-60 0 -57 -27 3 -32 44 -46 54 -19 4 10 18 16 35 16 35 0 40 -29 9 -60 -27
-27 -63 -34 -105 -20 -46 15 -55 34 -55 123 0 64 3 76 23 94 12 11 29 23 37
26 28 11 75 -3 98 -29z m542 10 c11 -11 15 -39 15 -117 l0 -102 -32 -3 -33 -3
0 91 c0 72 -3 92 -15 96 -33 13 -45 -15 -45 -102 l0 -84 -35 0 -35 0 0 120 0
120 35 0 c19 0 35 -4 35 -9 0 -6 12 -3 28 4 29 16 58 12 82 -11z m215 -5 c17
-16 21 -36 23 -120 l4 -100 -44 1 c-23 1 -54 -1 -68 -5 -34 -9 -80 27 -80 61
0 42 17 62 70 79 37 12 50 22 50 36 0 26 -36 25 -52 -1 -12 -19 -48 -27 -61
-14 -3 3 -1 19 5 36 20 56 108 72 153 27z m394 20 c36 -13 61 -53 61 -99 l0
-30 -59 0 c-63 0 -76 -8 -66 -40 8 -24 55 -28 55 -5 0 11 11 15 36 15 32 0 35
-2 29 -22 -4 -13 -18 -34 -33 -47 -21 -19 -33 -22 -65 -18 -60 8 -80 35 -85
109 -5 79 9 115 50 133 41 17 38 17 77 4z m204 -3 c15 -8 27 -11 27 -5 0 5 14
9 31 9 l30 0 -3 -154 c-3 -134 -5 -157 -22 -175 -42 -46 -144 -35 -166 19 -7
16 -9 34 -5 39 10 18 44 12 57 -9 27 -42 78 -15 78 41 0 18 -3 20 -12 11 -7
-7 -29 -12 -49 -12 -56 0 -79 34 -79 116 0 72 13 107 44 122 29 14 37 14 69
-2z m285 -22 c19 -22 22 -36 22 -120 l0 -95 -42 1 c-24 1 -54 -1 -68 -5 -36
-9 -80 27 -80 65 0 27 32 70 52 70 5 0 24 7 43 14 25 11 33 19 29 30 -9 22
-41 20 -56 -4 -18 -29 -58 -27 -58 3 0 73 105 101 158 41z m-3048 -94 l0 -120
-35 0 -35 0 0 113 c0 63 3 117 7 120 3 4 19 7 35 7 l28 0 0 -120z m2280 63
c19 -90 25 -92 45 -14 18 68 20 71 48 71 28 0 29 -2 23 -33 -3 -19 -25 -99
-49 -178 l-42 -144 -34 -3 c-28 -3 -33 -1 -27 14 28 74 28 99 -3 207 -18 59
-34 113 -37 122 -5 12 2 15 28 15 34 0 35 -1 48 -57z m-465 -2740 c9 -9 21
-27 26 -40 4 -12 16 -23 26 -23 20 -1 53 -23 53 -35 0 -5 7 -16 15 -25 23 -26
0 -74 -31 -66 -16 4 -32 -2 -56 -24 -18 -16 -39 -30 -48 -30 -8 0 -24 -7 -34
-15 -33 -25 -56 -19 -56 13 0 16 -7 37 -15 48 -8 10 -15 35 -15 55 0 35 -2 37
-42 43 -24 4 -38 10 -33 14 6 4 19 25 30 47 22 43 42 52 117 54 31 1 52 -4 63
-16z m-2018 -133 c26 -48 31 -110 10 -110 -16 0 -63 -48 -55 -56 4 -3 18 2 32
11 30 20 56 14 56 -13 0 -23 -19 -42 -41 -42 -9 0 -24 -11 -33 -25 -18 -27
-21 -39 -7 -30 5 3 11 -5 13 -17 3 -21 5 -21 26 12 l23 35 -3 -115 c-4 -107
-7 -121 -42 -205 -21 -49 -43 -109 -49 -133 -25 -101 -94 -118 -235 -58 -45
19 -92 42 -107 52 -14 9 -28 14 -31 12 -2 -3 18 -20 45 -37 55 -36 111 -89
111 -106 0 -6 -12 -28 -26 -48 -14 -21 -24 -41 -21 -44 7 -7 66 56 83 90 15
27 44 37 44 14 0 -24 -49 -84 -82 -100 -52 -24 -153 -40 -219 -34 -84 7 -142
45 -196 125 -69 102 -69 147 -2 232 44 55 56 60 39 14 -11 -28 -11 -28 9 -9
12 10 21 24 21 30 0 21 24 33 46 25 12 -5 27 -23 33 -41 6 -18 13 -30 16 -27
3 2 -2 26 -11 51 -13 39 -20 47 -40 47 -33 0 -131 57 -151 87 -22 33 -20 129
3 154 9 10 27 19 39 19 31 0 102 -65 110 -100 6 -26 46 -70 65 -70 3 0 6 21 6
48 -1 66 8 86 34 72 19 -10 20 -8 21 47 0 64 17 123 18 68 2 -41 11 -75 22
-75 5 0 9 5 9 11 0 6 27 47 60 91 61 80 70 83 46 16 -11 -30 -11 -38 -1 -38
24 0 97 62 125 107 33 51 39 40 15 -27 -8 -24 -13 -45 -10 -48 2 -3 20 7 40
22 38 29 95 119 95 149 0 30 22 14 47 -33z m-2287 -570 c11 -11 20 -29 20 -39
0 -10 7 -22 16 -25 15 -6 15 -8 0 -31 -9 -13 -16 -34 -16 -45 0 -27 -13 -52
-47 -87 l-26 -28 7 129 c8 156 10 162 46 126z m4636 -46 c15 -79 -16 -190 -61
-220 -20 -13 -29 -11 -91 17 -92 41 -97 44 -101 56 -3 8 6 9 31 1 41 -13 55
-6 36 17 -10 12 -10 16 1 19 113 33 159 67 159 116 0 42 18 38 26 -6z m280
-473 c68 -41 127 -175 160 -361 13 -73 17 -158 18 -370 0 -256 -2 -285 -27
-425 -27 -154 -66 -293 -97 -356 -28 -54 -140 -152 -269 -237 -210 -136 -246
-149 -356 -121 -41 10 -46 9 -89 -20 -37 -26 -54 -31 -100 -31 -31 0 -56 4
-56 9 0 16 29 33 52 29 l23 -5 -25 -11 c-23 -10 -23 -11 -4 -11 62 -2 47 55
-38 145 -63 66 -98 82 -130 59 l-23 -17 33 7 c39 8 87 -19 131 -73 l29 -37
-82 -96 c-44 -53 -97 -110 -116 -126 -39 -33 -161 -106 -218 -130 l-37 -15 20
23 c11 13 47 50 80 82 33 32 47 50 30 39 -16 -11 -57 -48 -90 -81 -54 -56
-112 -101 -129 -101 -12 0 63 136 95 170 65 71 72 84 16 30 -35 -33 -73 -82
-94 -122 -52 -100 -67 -90 -37 25 19 74 35 108 81 167 l35 45 -40 -43 c-47
-50 -75 -105 -93 -186 -11 -52 -14 -56 -26 -40 -19 26 -16 92 7 165 18 60 66
135 128 203 15 16 20 25 10 20 -24 -13 -118 -134 -136 -174 -14 -33 -15 -34
-23 -12 -13 35 -16 27 -12 -40 l4 -63 -50 92 -50 91 20 108 c10 59 19 131 19
160 0 46 4 55 31 78 43 37 109 37 138 0 12 -15 21 -33 21 -40 0 -8 27 -44 60
-80 38 -42 59 -73 55 -82 -4 -12 2 -13 34 -8 69 11 150 47 157 70 3 11 21 37
39 56 47 49 53 82 21 108 -14 11 -26 26 -26 34 0 20 35 50 73 63 18 6 31 16
30 23 -5 23 55 13 82 -13 14 -14 25 -30 25 -35 0 -5 7 -7 15 -4 8 4 15 14 15
25 0 29 39 125 58 142 15 14 123 60 128 54 1 -1 7 -13 13 -25 19 -36 23 -20 6
22 -15 34 -14 43 0 94 21 71 28 80 74 88 47 8 108 44 146 85 l30 33 -38 -32
c-20 -17 -50 -38 -66 -47 -26 -13 -30 -13 -35 1 -11 28 -7 136 8 234 8 52 20
135 26 183 19 158 85 407 132 501 31 61 110 126 153 126 11 0 34 -9 51 -19z
m-2536 -876 c0 -8 13 -29 29 -47 l29 -34 -23 -39 c-38 -63 -41 -107 -11 -160
l26 -44 -32 -45 c-37 -51 -48 -56 -48 -23 0 12 -9 37 -20 55 -19 31 -20 36 -5
78 20 58 19 72 -5 119 -17 34 -18 42 -6 64 43 84 66 110 66 76z m165 -646 c43
-21 61 -62 46 -108 -7 -20 -14 -99 -17 -176 -6 -160 -18 -201 -72 -242 l-35
-26 7 29 c4 16 14 36 22 45 8 8 14 22 14 30 -1 20 -48 -60 -55 -93 -6 -26 -82
-105 -92 -95 -2 3 4 22 15 44 31 60 72 166 67 171 -2 3 -9 -6 -14 -19 -28 -73
-81 -176 -97 -191 -44 -39 -106 -29 -70 11 20 22 86 184 85 208 0 21 -3 15
-45 -96 -16 -40 -43 -92 -61 -115 -18 -22 -33 -45 -33 -50 0 -9 60 -3 127 12
36 8 40 7 33 -7 -4 -9 -18 -38 -31 -65 -13 -26 -32 -64 -42 -82 -11 -19 -32
-103 -47 -187 -22 -120 -37 -170 -69 -238 -23 -48 -41 -95 -41 -105 0 -11 -16
-32 -35 -47 -40 -32 -63 -71 -81 -142 -18 -67 -18 -179 1 -214 17 -33 105
-115 143 -134 19 -9 34 -32 55 -82 15 -39 35 -86 44 -105 24 -51 115 -142 191
-192 l66 -43 -259 -3 c-142 -1 -262 1 -265 5 -13 16 -79 260 -85 318 -8 69
-59 306 -82 380 -9 28 -18 86 -20 130 -11 255 -25 359 -55 435 -25 64 -29 84
-24 133 4 40 1 69 -9 94 -8 19 -12 40 -8 46 4 6 1 7 -7 2 -10 -6 -12 -4 -7 9
4 10 7 34 7 54 l0 37 22 -33 c15 -24 23 -55 26 -108 4 -60 9 -78 24 -89 11 -7
26 -11 34 -8 7 3 21 -3 30 -12 11 -10 25 -14 38 -10 12 3 32 7 45 9 14 2 33
14 43 27 10 13 23 29 29 34 46 43 58 63 78 131 l22 76 -27 77 c-15 42 -31 80
-36 85 -16 19 -8 -25 18 -89 24 -60 25 -70 14 -113 -15 -62 -46 -132 -59 -132
-5 0 -2 14 6 31 11 22 14 47 10 88 -7 77 -26 155 -41 176 -9 12 -7 -9 6 -71 9
-49 18 -106 18 -127 0 -43 -34 -132 -62 -162 -18 -19 -18 -19 -18 11 0 17 5
45 11 63 12 34 -3 187 -21 205 -6 6 -7 -5 -2 -30 10 -54 8 -170 -4 -224 -8
-39 -13 -45 -34 -45 l-25 0 3 102 c2 62 -1 117 -8 138 -16 49 -23 38 -10 -16
11 -48 -6 -188 -24 -201 -22 -15 -34 6 -38 75 -6 79 -46 178 -92 226 -13 14
-46 71 -73 126 -28 55 -62 118 -76 139 -15 21 -27 42 -27 46 0 15 80 88 110
100 16 7 40 10 53 6 13 -3 75 -53 138 -111 63 -59 138 -122 167 -142 62 -40
86 -75 110 -155 19 -64 35 -77 31 -24 -2 19 1 39 5 43 5 4 6 3 3 -3 -7 -12 19
-28 33 -19 4 2 10 -16 13 -41 5 -44 12 -62 22 -53 2 3 1 19 -4 37 -7 23 -4 47
10 94 11 35 27 106 35 158 16 112 16 110 5 110 -4 0 -11 -30 -14 -68 -7 -66
-39 -208 -51 -219 -3 -4 -6 14 -6 40 0 25 -4 57 -9 70 -8 19 -1 48 30 133 37
102 43 112 99 162 36 32 72 77 92 114 l32 60 50 -4 c28 -2 64 -11 81 -19z
m-1576 -141 c-11 -21 -11 -22 4 -9 15 11 17 11 17 -2 0 -26 145 -77 172 -61 7
5 8 2 3 -6 -6 -10 -3 -12 13 -8 12 4 20 2 17 -3 -4 -5 8 -6 26 -2 21 4 30 3
26 -4 -4 -6 5 -19 21 -29 45 -29 268 -257 286 -291 22 -44 21 -57 -6 -49 -61
17 -126 26 -152 20 -21 -5 -25 -8 -15 -15 8 -5 10 -9 4 -9 -15 0 45 -30 61
-30 24 0 15 -29 -11 -36 -24 -6 -25 -9 -25 -85 0 -69 -2 -79 -18 -79 -16 0
-18 -13 -19 -155 -2 -115 1 -155 10 -155 9 0 11 -24 9 -85 -2 -56 0 -85 7 -85
6 0 11 -7 11 -15 0 -8 10 -16 23 -16 l22 -2 -22 -4 c-14 -3 -23 -12 -23 -22 0
-13 -10 -20 -30 -24 -27 -6 -43 -27 -20 -27 6 0 10 -5 10 -11 0 -5 -4 -7 -10
-4 -15 10 -12 -7 8 -38 10 -15 22 -24 26 -20 4 4 4 -1 0 -10 -16 -42 -122 182
-153 323 -7 30 -22 72 -33 93 -22 42 -22 84 2 220 12 69 8 117 -10 117 -5 0
-7 -13 -4 -30 8 -39 -5 -142 -17 -134 -5 3 -6 10 -3 16 4 7 2 8 -5 4 -7 -5
-24 5 -41 24 -42 45 -40 88 10 186 38 75 51 122 30 109 -5 -3 -10 -14 -10 -23
0 -9 -13 -44 -29 -77 l-28 -60 -15 35 c-9 19 -32 62 -52 94 -45 74 -99 213
-93 238 3 10 2 16 -2 13 -14 -8 -33 76 -26 117 4 24 10 36 15 28 5 -9 9 -8 13
4 3 8 1 16 -4 18 -12 4 20 78 33 78 5 0 3 -10 -3 -22z m2399 -92 c37 -43 30
-54 -33 -53 -30 1 -55 -1 -55 -4 0 -4 -12 -9 -27 -12 -16 -3 -37 -9 -47 -13
-14 -5 -17 -4 -12 4 11 19 -5 14 -21 -5 -12 -16 -13 -15 -2 7 18 38 69 110
108 153 l35 39 16 -45 c8 -25 25 -57 38 -71z m21 -85 c21 -6 25 -13 26 -49 1
-25 9 -53 21 -69 25 -34 49 -79 59 -113 7 -22 6 -23 -9 -11 -9 8 -21 33 -27
58 -6 24 -16 46 -22 50 -7 4 -8 0 -3 -13 5 -10 12 -33 17 -51 5 -18 23 -45 39
-60 22 -20 30 -37 30 -62 0 -20 7 -39 17 -46 15 -12 15 -19 -1 -111 -27 -155
-5 -229 105 -357 33 -38 59 -72 59 -76 0 -16 -50 -34 -79 -28 -51 10 -243 151
-325 237 -141 151 -173 268 -126 463 31 127 81 234 111 240 36 7 81 6 108 -2z
m723 -238 c53 -29 94 -71 155 -160 l37 -53 -35 -36 c-36 -38 -165 -127 -236
-163 -46 -23 -61 -49 -18 -29 21 9 32 8 60 -5 70 -33 126 -151 159 -338 20
-107 20 -132 0 -170 -19 -37 -94 -74 -130 -65 -13 4 -131 113 -262 244 -263
261 -289 297 -299 412 -7 76 14 210 33 210 8 0 14 -4 14 -10 0 -11 48 5 70 24
8 7 30 16 49 20 37 7 189 91 236 131 25 21 37 25 74 20 24 -3 66 -17 93 -32z
m232 -506 c1 -143 5 -219 12 -228 7 -8 14 -30 17 -49 2 -19 12 -60 21 -90 26
-87 30 -126 15 -143 -12 -12 -19 -8 -56 28 -49 50 -74 108 -107 255 -41 178
-78 250 -152 296 l-34 21 87 53 c100 61 174 93 187 80 5 -5 9 -105 10 -223z"/>
<path d="M6613 9773 c-20 -4 -23 -11 -23 -51 l0 -47 85 0 85 0 0 46 c0 40 -3
48 -22 53 -25 6 -90 6 -125 -1z"/>
<path d="M85 8713 c-33 -46 -45 -74 -45 -103 0 -38 34 -52 77 -32 29 14 34 13
66 -7 45 -27 78 -27 97 2 30 47 40 70 40 99 0 27 -3 29 -30 26 -18 -2 -38 4
-51 16 -14 11 -43 20 -78 23 -52 4 -57 2 -76 -24z"/>
<path d="M741 7346 c-10 -11 -11 -34 -6 -86 7 -65 5 -75 -23 -133 -58 -123
-49 -139 36 -62 57 52 71 92 48 145 -7 18 -12 50 -9 69 5 47 -26 92 -46 67z"/>
<path d="M659 6464 c-3 -9 -6 -23 -18 -94 -18 -107 -29 -136 -60 -163 l-28
-23 34 -24 c32 -22 33 -25 27 -70 -10 -73 38 -132 66 -80 10 18 19 87 41 294
12 113 3 151 -37 159 -13 2 -25 3 -25 1z"/>
<path d="M91 5136 c-8 -9 -11 -16 -7 -16 4 0 -3 -18 -14 -40 -11 -22 -18 -40
-14 -40 3 0 -1 -11 -10 -25 -20 -30 -20 -28 1 -52 27 -29 51 -35 84 -18 33 18
34 20 14 55 -8 14 -14 46 -15 71 0 25 -6 53 -13 63 -12 16 -14 16 -26 2z"/>
</g>
</svg>
