<?xml version="1.0" standalone="no"?>
<!DOCTYPE svg PUBLIC "-//W3C//DTD SVG 20010904//EN"
 "http://www.w3.org/TR/2001/REC-SVG-20010904/DTD/svg10.dtd">
<svg version="1.0" xmlns="http://www.w3.org/2000/svg"
 width="720.000000pt" height="1280.000000pt" viewBox="0 0 720.000000 1280.000000"
 preserveAspectRatio="xMidYMid meet">
<metadata>
Created by potrace 1.16, written by Peter Selinger 2001-2019
</metadata>
<g transform="translate(0.000000,1280.000000) scale(0.100000,-0.100000)"
fill="#000000" stroke="none">
<path d="M0 6400 l0 -6400 3600 0 3600 0 0 1025 0 1025 -57 0 c-73 0 -133 16
-133 35 0 8 -4 15 -9 15 -13 0 -21 199 -27 660 -3 234 -6 441 -7 460 -2 34 -4
35 -59 50 -31 8 -60 18 -64 23 -4 4 -33 7 -64 7 -31 0 -60 4 -66 10 -5 5 -54
12 -109 15 -55 3 -153 13 -218 21 -64 8 -122 12 -128 8 -6 -4 -14 -2 -18 4 -4
6 -35 14 -71 17 -35 2 -66 9 -69 13 -3 5 -60 12 -126 16 -66 3 -150 9 -186 12
l-66 7 -7 -32 c-21 -103 -15 -94 -59 -88 -22 3 -43 10 -46 15 -7 10 -67 24
-121 27 -19 2 -41 3 -47 4 -7 0 -21 18 -32 38 -10 21 -31 51 -45 66 -14 15
-26 33 -26 39 0 7 -18 9 -54 4 -39 -4 -62 -2 -82 9 -16 8 -38 15 -49 15 -15 1
-10 7 20 25 39 24 81 26 110 6 6 -4 30 -9 55 -10 35 -1 51 4 71 21 68 59 178
157 223 199 28 26 85 75 126 109 41 34 88 76 103 94 l29 31 -6 210 c-4 116
-11 260 -15 320 -8 96 -6 131 15 275 36 237 38 264 24 289 -14 27 -94 66 -167
82 l-51 12 -33 111 c-42 145 -99 310 -143 417 -43 100 -121 199 -202 255 -48
33 -52 39 -40 53 24 28 57 101 64 143 4 22 12 40 17 39 25 0 33 -121 10 -165
-19 -35 -13 -45 7 -14 61 93 42 290 -38 412 l-26 39 30 -22 c67 -47 108 -143
97 -226 -5 -41 -4 -48 7 -37 23 23 17 149 -10 204 -52 106 -181 206 -252 196
-41 -6 -45 4 -24 57 23 62 14 150 -27 257 -27 69 -43 94 -93 144 -71 71 -161
118 -256 135 -121 21 -275 -8 -365 -69 -22 -14 -53 -28 -69 -29 -43 -4 -144
-62 -196 -113 -66 -65 -93 -128 -88 -207 2 -35 9 -68 15 -74 8 -8 10 1 7 33
-3 28 2 56 13 82 l18 38 -3 -79 -4 -79 44 -39 43 -40 5 55 c4 48 7 55 25 52
11 -2 26 -9 33 -14 8 -7 12 -7 12 2 0 6 -14 17 -30 23 -16 6 -30 16 -30 23 0
16 58 130 73 142 10 9 12 -4 9 -57 -5 -83 16 -137 78 -205 55 -59 73 -61 53
-5 -7 23 -12 44 -9 46 8 9 82 -46 136 -101 59 -60 84 -74 51 -27 -12 16 -21
33 -21 37 0 4 11 -8 25 -27 44 -59 92 -88 82 -49 -8 31 1 24 22 -18 26 -51 39
-129 29 -170 -5 -19 -7 -39 -5 -45 6 -17 45 50 58 98 18 68 33 89 79 112 38
20 47 21 64 9 27 -17 33 -84 11 -126 -19 -36 -82 -84 -133 -101 -20 -6 -41
-15 -47 -20 -13 -12 22 -12 45 1 16 8 19 5 25 -20 7 -32 51 -70 139 -122 83
-49 84 -107 2 -168 -129 -96 -266 -130 -393 -98 -65 16 -134 85 -162 162 -12
32 -20 60 -18 62 2 2 17 7 34 10 29 6 34 2 77 -56 51 -68 59 -69 21 -1 -14 23
-25 45 -25 47 0 2 31 22 70 45 38 23 70 42 70 44 0 1 -28 -8 -61 -22 -34 -14
-94 -31 -134 -40 -108 -22 -123 -12 -188 128 -27 60 -52 107 -54 105 -7 -7 80
-190 104 -218 8 -9 27 -21 42 -28 21 -8 32 -24 44 -63 47 -147 164 -218 327
-196 86 12 156 41 239 99 59 42 81 72 81 115 0 41 -11 54 -71 86 -33 18 -58
34 -56 36 10 10 186 -82 224 -117 27 -26 53 -40 70 -41 16 0 37 -4 48 -9 19
-8 19 -9 -3 -9 -102 -3 -193 -150 -249 -401 -24 -105 -27 -138 -29 -383 -2
-157 -8 -275 -14 -287 -5 -10 -10 -30 -10 -43 0 -16 -8 -28 -25 -35 -19 -9
-29 -28 -47 -87 -22 -73 -24 -75 -74 -100 -58 -29 -73 -44 -103 -103 -20 -40
-24 -42 -66 -42 -59 0 -168 26 -230 55 -62 30 -155 110 -155 135 0 10 7 31 15
46 8 16 12 37 9 47 -3 9 -1 17 5 17 6 0 11 -3 11 -7 0 -5 10 -19 21 -33 15
-18 14 -12 -6 24 -112 200 -145 299 -169 501 -1 17 -4 1 -5 -35 l-1 -64 -30
34 c-27 32 -29 33 -21 9 5 -15 27 -62 49 -105 68 -135 76 -163 59 -212 -13
-39 -13 -42 6 -59 26 -23 47 -74 47 -112 0 -17 -10 -51 -22 -76 -20 -41 -21
-49 -9 -88 23 -76 25 -115 5 -145 -40 -59 -54 -94 -54 -132 0 -53 -16 -51 -41
5 -34 77 -87 94 -161 53 -46 -26 -68 -63 -67 -110 0 -28 2 -30 9 -13 8 18 9
17 9 -7 2 -58 -53 -10 -62 54 -3 22 -11 46 -18 52 -9 8 -10 8 -5 -1 11 -19
-14 -16 -51 7 -18 10 -41 36 -52 57 -11 21 -20 32 -21 25 0 -24 32 -69 61 -86
16 -10 29 -21 29 -25 0 -10 -43 -64 -88 -112 -53 -56 -113 -155 -119 -196 -4
-31 0 -43 22 -67 l27 -29 -26 -106 c-14 -58 -27 -128 -27 -156 -1 -42 -2 -45
-8 -20 -6 27 -8 24 -14 -25 -10 -81 -9 -230 2 -230 6 0 8 -235 5 -626 -4 -546
-3 -629 10 -649 l15 -23 -112 -7 c-116 -7 -287 -4 -287 5 1 3 7 14 15 24 42
56 -13 235 -119 390 -31 44 -67 108 -81 141 -24 60 -24 60 -5 77 24 19 50 80
74 168 31 114 85 272 99 289 25 30 179 303 214 380 19 42 49 106 68 142 70
134 80 251 34 375 -16 43 -39 73 -98 130 -42 41 -102 94 -133 117 -32 23 -58
45 -58 50 0 16 54 114 84 152 59 75 69 96 74 169 4 56 11 80 32 111 48 70 55
111 31 180 -25 71 -26 91 -6 138 22 54 19 107 -11 163 -15 27 -35 65 -45 84
-12 24 -28 114 -49 280 -36 285 -70 457 -100 505 -55 89 -191 174 -385 241
-44 15 -82 29 -84 31 -2 1 6 35 18 75 11 40 21 84 20 98 -1 14 -7 -3 -15 -37
-7 -34 -27 -95 -45 -135 -17 -40 -37 -95 -46 -121 -20 -68 -42 -87 -102 -87
-50 0 -147 35 -238 85 -45 25 -46 25 -21 3 15 -12 50 -39 77 -58 73 -51 80
-70 48 -119 -15 -23 -27 -44 -27 -48 0 -12 60 51 82 85 19 30 48 44 48 22 0
-23 -54 -89 -83 -103 -90 -43 -240 -46 -314 -8 -70 35 -153 158 -153 226 0 33
42 107 78 139 25 22 26 19 11 -20 -10 -27 -10 -28 10 -10 10 9 22 28 25 40 9
35 49 23 70 -21 24 -50 30 -36 9 20 -14 37 -22 47 -40 47 -32 0 -131 57 -151
88 -22 34 -20 127 4 153 9 10 26 19 37 19 30 0 94 -57 107 -95 10 -31 51 -75
70 -75 3 0 6 21 6 48 -1 65 8 86 33 73 18 -10 20 -6 23 57 2 37 3 68 3 69 0 1
-24 4 -53 6 -28 2 -58 10 -67 17 -11 9 -22 9 -45 2 -36 -13 -44 -3 -54 69 -5
36 -3 54 12 80 18 32 22 34 64 31 39 -3 48 0 66 22 46 59 141 14 115 -54 -6
-16 -7 -34 -2 -41 13 -20 11 -59 -2 -59 -8 0 -8 -4 0 -14 9 -10 8 -25 -5 -61
-9 -27 -13 -58 -9 -73 l6 -26 22 36 c12 19 44 64 71 99 50 65 50 65 30 -16 -3
-14 -2 -25 3 -25 20 0 85 57 118 104 39 55 42 52 20 -19 -8 -27 -12 -51 -10
-54 3 -2 22 9 43 26 36 29 81 102 95 153 7 24 8 23 33 -19 32 -52 45 -131 22
-131 -17 0 -64 -47 -56 -56 4 -3 18 2 32 11 31 21 57 14 51 -15 -6 -30 -16
-42 -31 -36 -7 3 -22 -7 -34 -23 -22 -31 -26 -46 -10 -36 6 3 10 -4 10 -17 1
-22 1 -22 25 7 l24 29 4 -64 c3 -59 3 -56 5 23 1 50 6 87 12 87 6 0 10 7 10
15 0 8 14 39 30 68 19 34 30 68 30 92 0 45 13 38 29 -15 9 -31 10 -27 8 36 -2
61 -7 80 -34 123 l-32 51 24 6 c13 3 31 14 39 23 14 16 13 17 -19 18 -31 1
-155 65 -155 81 0 3 10 16 22 29 l21 23 -39 0 c-35 0 -240 53 -252 65 -3 3 2
13 11 23 20 22 23 39 5 25 -7 -6 -71 -13 -141 -16 -108 -5 -136 -10 -183 -31
-31 -14 -59 -26 -61 -26 -3 0 -2 11 1 25 4 14 2 25 -3 25 -18 0 -70 -70 -76
-103 -6 -30 -13 -36 -48 -47 -51 -15 -104 -54 -123 -91 l-14 -29 36 25 c53 36
61 31 21 -14 -19 -22 -41 -49 -47 -61 -39 -73 -53 -221 -25 -270 14 -25 14
-24 16 20 l1 45 12 -60 c6 -33 19 -73 27 -90 30 -57 117 -194 143 -226 15 -18
23 -35 19 -40 -4 -4 -60 -31 -123 -59 -249 -112 -454 -233 -521 -307 -118
-131 -150 -221 -184 -518 -9 -77 -24 -169 -34 -205 -11 -36 -32 -128 -48 -204
-28 -135 -30 -140 -59 -150 -51 -19 -94 -59 -145 -134 -68 -102 -74 -129 -60
-247 7 -53 23 -133 37 -178 21 -73 24 -102 24 -265 l0 -182 28 -30 c16 -16 31
-27 34 -25 3 3 38 -11 77 -30 67 -33 78 -36 129 -29 32 3 71 15 89 26 18 10
45 23 61 28 l29 8 37 -97 c20 -53 50 -117 67 -141 57 -85 63 -101 60 -168 l-2
-63 50 -49 c50 -48 50 -49 44 -99 -4 -39 -1 -57 14 -83 11 -19 32 -83 47 -143
20 -78 48 -151 96 -250 38 -77 72 -156 75 -175 22 -106 47 -164 97 -216 l51
-54 7 -107 c4 -66 2 -139 -5 -188 l-11 -80 -994 0 -995 0 -3 2943 c-1 1959 1
2942 8 2942 5 0 10 -7 10 -15 0 -14 49 -41 85 -47 18 -3 20 3 23 62 3 70 -11
110 -37 105 -9 -2 -19 -4 -23 -4 -5 -1 -8 -12 -8 -26 0 -14 -4 -25 -10 -25 -5
0 -18 -9 -29 -21 -19 -21 -20 -20 -20 258 0 153 4 285 8 292 14 22 45 8 63
-29 14 -28 23 -34 42 -32 14 2 35 -2 47 -8 17 -9 24 -9 35 2 11 11 11 26 0 88
-7 41 -11 77 -9 79 2 3 26 4 53 2 49 -2 50 -2 46 26 -4 39 -22 70 -48 84 -18
10 -24 8 -35 -7 -8 -11 -17 -31 -20 -47 -7 -34 -17 -41 -66 -44 l-37 -3 6 40
c8 50 -7 70 -52 70 l-33 0 -1 255 0 255 3590 0 3590 0 0 1775 0 1775 -3600 0
-3600 0 0 -6400z m6794 3679 c153 -67 201 -265 97 -404 -25 -34 -27 -41 -14
-50 23 -17 -3 -53 -49 -67 -31 -9 -45 -8 -82 6 -45 17 -83 16 -154 -6 -47 -14
-97 -2 -117 28 -13 20 -14 28 -4 40 10 12 8 19 -9 37 -37 39 -62 108 -62 171
0 78 16 128 58 176 79 93 218 121 336 69z m-651 5 c52 -18 116 -76 142 -130
57 -121 8 -276 -107 -339 -78 -42 -185 -47 -262 -12 -103 48 -149 120 -150
237 0 120 51 197 159 242 51 22 158 23 218 2z m-5834 -111 c15 -56 71 -300 71
-307 0 -3 -16 -6 -35 -6 -30 0 -35 3 -35 24 0 32 -22 48 -61 44 -27 -4 -34
-10 -41 -36 -8 -28 -13 -32 -42 -32 l-34 0 14 58 c7 31 25 110 40 175 l28 117
42 0 c41 0 44 -2 53 -37z m401 -55 l1 -93 30 38 c23 27 39 37 60 37 16 0 29
-3 29 -6 0 -4 -16 -27 -35 -53 l-34 -47 21 -35 c11 -19 29 -49 40 -66 l20 -33
-36 0 c-30 0 -38 5 -57 40 -26 45 -39 43 -39 -6 0 -31 -2 -34 -30 -34 l-30 0
0 175 0 175 30 0 30 0 0 -92z m1740 -83 l0 -176 -42 1 c-24 1 -55 -1 -69 -5
-19 -5 -33 -1 -55 18 -28 24 -29 29 -29 106 1 69 4 84 22 102 22 22 54 28 91
15 21 -7 22 -5 22 53 l0 61 30 0 30 0 0 -175z m452 83 l3 -92 25 37 c20 30 31
37 58 37 30 0 42 -12 24 -24 -5 -3 -21 -23 -36 -44 l-27 -40 40 -66 41 -66
-35 0 c-30 0 -38 5 -57 40 -13 22 -26 40 -30 40 -5 0 -8 -18 -8 -40 0 -39 -1
-40 -35 -40 l-35 0 0 168 c0 93 3 172 7 175 3 4 19 7 34 7 l28 0 3 -92z m728
28 l0 -65 35 15 c28 11 40 12 58 3 34 -18 37 -27 37 -136 l0 -103 -30 0 -30 0
0 90 c0 75 -3 92 -16 97 -37 14 -49 -10 -52 -101 l-3 -86 -29 0 -30 0 0 175 0
175 30 0 30 0 0 -64z m530 3 c0 -58 1 -60 23 -53 76 26 107 -8 107 -118 0 -71
-2 -81 -26 -105 -21 -21 -31 -24 -57 -18 -18 4 -49 6 -69 6 l-38 -2 0 176 0
175 30 0 30 0 0 -61z m-1482 -11 c3 -35 6 -38 33 -38 24 0 29 -4 29 -25 0 -21
-5 -25 -30 -25 l-31 0 3 -67 c3 -66 4 -68 31 -71 21 -3 27 -8 23 -19 -3 -8 -6
-19 -6 -24 0 -16 -73 -10 -92 8 -14 13 -18 31 -18 90 0 66 -2 75 -20 80 -13 3
-20 14 -20 29 0 17 6 24 20 24 17 0 20 7 20 41 0 38 1 40 28 37 23 -3 27 -8
30 -40z m-2094 -58 c24 -24 34 -122 17 -173 -15 -44 -59 -66 -97 -48 -14 6
-27 11 -29 11 -3 0 -5 -30 -5 -66 l0 -65 -27 3 -28 3 -3 179 -2 179 38 -6 c22
-2 46 -1 53 4 19 12 60 2 83 -21z m405 19 c17 -6 36 -19 41 -29 6 -10 10 -62
10 -115 l0 -97 -32 3 c-18 1 -48 -1 -66 -5 -50 -12 -82 13 -82 64 0 44 20 64
83 81 28 7 37 15 35 27 -5 26 -48 28 -55 3 -6 -25 -51 -29 -60 -5 -8 21 28 67
58 75 35 10 33 10 68 -2z m290 0 c38 -14 51 -35 51 -88 l0 -41 -61 0 c-60 0
-60 0 -57 -27 3 -32 44 -46 54 -19 4 10 18 16 35 16 35 0 39 -25 10 -61 -27
-34 -99 -34 -135 0 -23 22 -26 32 -26 96 0 79 20 120 63 128 12 2 25 5 28 6 3
0 20 -4 38 -10z m198 0 c32 -12 43 -26 43 -56 0 -31 -45 -33 -53 -2 -4 13 -12
20 -24 17 -31 -6 -27 -34 7 -48 78 -32 101 -82 61 -131 -15 -19 -29 -24 -66
-24 -37 0 -51 5 -66 24 -29 36 -25 61 11 61 24 0 30 -4 30 -21 0 -15 5 -20 23
-17 39 5 27 38 -23 61 -89 43 -75 132 22 146 4 1 19 -4 35 -10z m220 -13 c6
-6 13 -22 15 -36 2 -21 -2 -26 -23 -28 -20 -2 -28 2 -32 18 -4 14 -12 21 -24
18 -29 -5 -21 -32 15 -50 73 -36 92 -81 53 -129 -15 -19 -29 -24 -66 -24 -37
0 -51 5 -66 24 -29 36 -25 61 10 61 21 0 30 -6 34 -21 7 -25 40 -22 45 4 3 12
-9 23 -42 37 -51 21 -70 54 -60 97 12 45 104 65 141 29z m182 13 c17 -6 36
-19 41 -29 6 -10 10 -62 10 -115 l0 -96 -37 1 c-21 1 -50 -2 -65 -6 -45 -10
-78 18 -78 66 0 44 20 64 83 81 28 7 37 15 35 27 -5 25 -45 27 -58 3 -16 -30
-60 -29 -60 2 1 28 20 54 51 66 32 13 40 13 78 0z m319 -22 c16 -15 22 -32 22
-64 l0 -43 -61 0 c-60 0 -60 0 -57 -27 3 -32 44 -46 54 -19 4 10 18 16 35 16
35 0 39 -25 10 -61 -27 -34 -99 -34 -135 0 -24 22 -26 32 -26 101 0 67 3 79
23 97 12 11 29 23 37 26 25 9 73 -4 98 -26z m1000 -3 c19 -21 22 -36 22 -99 0
-70 -1 -74 -32 -100 -27 -23 -39 -26 -71 -22 -59 8 -80 35 -85 107 -3 36 1 72
9 91 24 60 111 73 157 23z m240 9 c8 -11 12 -53 12 -120 l0 -103 -30 0 -30 0
0 90 c0 75 -3 92 -17 97 -32 12 -53 -32 -53 -113 l0 -74 -30 0 -30 0 0 120 0
120 29 0 c16 0 31 -5 33 -12 3 -8 11 -7 29 5 27 20 67 15 87 -10z m530 -9 c15
-17 22 -38 22 -65 l0 -39 -61 0 c-60 0 -60 0 -57 -27 3 -32 44 -46 54 -19 4
10 18 16 35 16 35 0 40 -29 9 -60 -27 -27 -63 -34 -105 -20 -46 15 -55 34 -55
123 0 64 3 76 23 94 12 11 29 23 37 26 28 11 75 -3 98 -29z m539 12 c6 -6 13
-54 15 -116 l3 -105 -32 -3 -33 -3 0 91 c0 72 -3 92 -15 96 -33 13 -45 -15
-45 -102 l0 -84 -35 0 -35 0 0 120 0 120 35 0 c19 0 35 -4 35 -9 0 -6 12 -3
28 4 28 15 58 12 79 -9z m218 -7 c17 -16 21 -36 23 -120 l4 -100 -44 1 c-23 1
-54 -1 -68 -5 -35 -9 -80 27 -80 64 0 39 19 60 70 75 33 10 46 19 48 35 4 28
-33 29 -50 1 -13 -20 -52 -27 -62 -12 -10 16 29 76 54 84 36 10 82 0 105 -23z
m394 20 c36 -13 61 -53 61 -99 l0 -30 -59 0 c-63 0 -76 -8 -66 -40 8 -24 55
-28 55 -5 0 11 11 15 36 15 32 0 35 -2 29 -22 -13 -43 -42 -63 -90 -63 -64 0
-87 27 -93 105 -5 75 11 118 52 136 38 16 36 16 75 3z m249 0 l43 2 -3 -155
c-3 -134 -5 -157 -22 -175 -42 -46 -144 -35 -166 19 -14 35 -7 50 25 50 15 0
26 -7 30 -20 8 -26 51 -27 65 -1 5 11 10 30 10 42 0 18 -3 20 -12 11 -7 -7
-29 -12 -49 -12 -56 0 -79 34 -79 116 0 97 31 141 90 127 14 -4 44 -5 68 -4z
m240 -25 c19 -22 22 -36 22 -120 l0 -95 -42 1 c-24 1 -54 -1 -68 -5 -35 -9
-80 27 -80 64 0 27 31 71 51 71 5 0 25 7 44 14 25 11 33 19 29 30 -9 22 -41
20 -54 -4 -11 -20 -54 -28 -64 -12 -10 16 29 76 54 84 40 11 83 0 108 -28z
m-3048 -94 l0 -120 -35 0 -35 0 0 113 c0 63 3 117 7 120 3 4 19 7 35 7 l28 0
0 -120z m2280 63 c19 -91 25 -93 45 -14 17 68 18 71 47 71 29 0 30 -2 24 -33
-3 -19 -25 -99 -49 -178 l-42 -144 -34 -3 c-28 -3 -32 -1 -28 15 30 103 30 93
-2 206 -17 58 -34 113 -37 122 -5 12 2 15 28 15 34 0 35 -1 48 -57z m266
-3489 c14 -78 -20 -200 -64 -223 -14 -7 -40 -1 -105 27 -94 40 -112 58 -46 47
39 -7 40 -6 29 14 -8 17 -8 22 2 25 7 3 30 10 51 16 56 18 107 65 107 101 0
41 18 36 26 -7z m286 -477 c111 -94 163 -287 174 -647 10 -315 -28 -601 -106
-815 -30 -80 -127 -176 -282 -277 -215 -142 -253 -155 -364 -127 -67 17 -73 8
-78 -136 -5 -153 -14 -179 -46 -135 -8 11 -20 20 -28 20 -7 0 12 -34 43 -76
31 -41 58 -81 61 -88 10 -26 -86 -98 -296 -225 -8 -5 -12 -12 -8 -16 3 -3 15
-1 27 6 27 18 79 -7 115 -54 39 -51 81 -177 102 -304 17 -106 17 -114 1 -148
-20 -43 -93 -81 -134 -70 -15 3 -123 104 -263 243 -261 261 -287 298 -297 412
-6 62 14 210 28 210 4 0 10 -4 14 -10 7 -11 51 4 75 24 8 7 30 16 49 20 48 9
308 166 275 166 -6 0 -26 -12 -45 -26 -46 -35 -161 -102 -207 -121 l-37 -15
19 23 c11 13 47 50 80 81 34 32 56 57 51 58 -6 0 -47 -36 -90 -80 -76 -77
-141 -127 -150 -118 -10 10 61 126 113 188 l56 65 -58 -55 c-31 -30 -73 -83
-92 -117 -39 -70 -54 -84 -54 -51 0 58 43 170 86 228 l27 35 -32 -35 c-39 -43
-59 -85 -82 -170 -16 -63 -17 -64 -28 -37 -15 38 -14 81 4 146 12 48 33 84
106 186 11 17 0 8 -26 -20 -26 -27 -56 -70 -67 -94 l-20 -44 -24 49 c-14 27
-21 38 -18 24 4 -14 12 -36 18 -50 7 -14 9 -42 6 -65 l-6 -40 -18 43 c-10 24
-20 41 -22 39 -3 -2 3 -21 11 -42 19 -44 13 -57 -9 -23 -22 33 -34 94 -16 83
7 -4 1 12 -13 36 l-26 44 19 110 c11 61 20 133 20 162 0 45 4 54 31 77 22 19
42 26 73 26 47 0 64 -14 85 -65 6 -16 36 -57 66 -90 30 -33 53 -66 50 -72 -7
-19 28 -16 108 11 135 45 157 43 217 -18 19 -19 39 -36 45 -36 15 0 -67 80
-99 97 -24 12 -33 13 -52 2 -62 -33 -27 35 43 84 25 18 54 50 65 72 29 57 46
74 84 81 41 7 47 15 68 81 23 69 47 98 98 116 24 8 50 18 59 21 11 5 19 -2 28
-20 18 -41 23 -22 5 21 -15 36 -15 43 2 97 20 68 26 74 83 87 44 10 106 48
138 84 12 14 7 12 -16 -6 -18 -15 -46 -34 -61 -42 -25 -13 -29 -13 -34 1 -10
25 -7 147 4 205 6 30 13 81 16 114 11 150 73 418 125 546 31 77 69 127 124
161 40 24 74 23 107 -5z m-2696 -607 c45 -22 48 -38 16 -87 -8 -13 -10 -23 -5
-23 5 0 9 -34 10 -76 l1 -76 -32 6 c-17 4 -47 8 -67 9 -20 1 -44 8 -52 16 -10
8 -27 10 -45 7 -46 -11 -67 21 -64 97 4 79 13 89 76 85 49 -3 52 -2 65 30 17
38 37 41 97 12z m186 -314 l26 -32 -23 -39 c-38 -62 -41 -107 -12 -158 l26
-43 -32 -47 c-36 -52 -47 -58 -47 -24 0 12 -9 37 -20 55 -19 31 -20 36 -5 78
20 58 19 69 -6 119 l-22 43 34 58 c29 51 34 56 43 39 6 -10 23 -32 38 -49z
m126 -596 c51 -23 68 -58 52 -104 -7 -17 -14 -96 -17 -176 -6 -162 -19 -209
-73 -248 -35 -27 -38 -16 -9 39 11 23 15 38 8 34 -6 -4 -24 -36 -40 -71 -17
-38 -42 -73 -62 -88 -42 -32 -52 -33 -33 -3 19 29 87 189 83 193 -2 2 -21 -33
-42 -78 -48 -104 -77 -144 -111 -152 -37 -10 -53 8 -30 33 19 21 86 186 85
210 0 18 1 22 -49 -104 -18 -43 -45 -95 -61 -114 -16 -20 -29 -39 -29 -43 0
-12 69 -9 92 3 28 15 79 18 70 5 -4 -6 -7 -13 -7 -16 -3 -22 -23 -62 -50 -101
-28 -40 -37 -71 -63 -208 -24 -125 -40 -181 -71 -250 -23 -48 -41 -95 -41
-104 0 -9 -14 -29 -30 -44 -42 -37 -69 -84 -86 -146 -18 -69 -18 -180 1 -216
17 -33 105 -115 144 -134 20 -9 35 -34 64 -109 31 -78 50 -110 97 -161 32 -35
85 -81 117 -103 32 -21 62 -41 66 -45 5 -4 -110 -6 -254 -5 l-263 1 -12 45
c-7 25 -24 85 -38 134 -14 49 -28 114 -31 145 -7 62 -42 223 -80 371 -18 71
-26 132 -30 245 -6 186 -18 263 -51 339 -23 50 -26 68 -20 119 4 45 2 69 -12
101 -12 28 -17 58 -14 94 l4 54 24 -49 c16 -34 23 -66 24 -108 0 -67 11 -85
51 -85 15 0 32 -7 39 -15 14 -17 46 -20 55 -5 3 5 12 7 19 4 7 -3 28 12 46 33
19 21 43 43 54 48 22 11 67 128 69 180 1 34 -50 175 -64 175 -4 0 5 -38 22
-84 l31 -83 -29 -83 c-15 -46 -33 -85 -39 -87 -8 -3 -6 11 4 40 15 42 15 52
-2 139 -9 52 -22 101 -28 109 -7 10 -8 5 -4 -18 31 -183 31 -196 1 -266 -15
-37 -35 -73 -43 -80 -13 -11 -14 -5 -7 43 12 85 2 250 -15 250 -5 0 -6 -17 -2
-37 4 -21 7 -69 6 -108 -1 -133 -24 -194 -60 -164 -14 11 -15 25 -9 79 9 88 7
132 -10 177 -16 45 -20 24 -5 -27 12 -39 -6 -190 -24 -202 -20 -14 -33 13 -39
80 -5 75 -43 167 -89 221 -16 18 -51 77 -77 130 -26 53 -60 114 -74 135 -15
21 -27 42 -27 46 0 13 96 97 119 105 41 13 67 -3 187 -115 65 -61 142 -127
171 -146 51 -34 90 -94 108 -167 9 -33 25 -36 25 -3 0 19 5 24 25 22 22 -1 25
-6 25 -37 0 -22 7 -42 16 -50 15 -12 16 -11 9 11 -11 32 -9 59 9 123 30 106
52 257 38 257 -6 0 -13 -32 -17 -70 -7 -69 -38 -206 -49 -218 -3 -3 -6 15 -6
41 0 25 -4 57 -9 70 -8 19 -1 48 28 132 36 101 41 110 104 168 36 34 73 78 83
97 9 19 23 43 32 53 20 23 76 22 130 -3z m-1567 -128 c-12 -23 -15 -39 -5 -29
4 3 16 1 28 -5 11 -7 25 -11 30 -10 4 2 14 -5 21 -15 8 -11 27 -17 53 -17 22
-1 38 -3 36 -5 -9 -9 72 -30 96 -25 18 4 21 3 11 -4 -11 -8 -10 -11 6 -16 24
-8 282 -259 306 -298 25 -40 22 -62 -5 -54 -77 22 -122 26 -136 12 -10 -10
-11 -19 -4 -32 9 -16 10 -16 16 4 9 27 58 30 96 6 l25 -15 -25 6 c-14 3 -36 7
-50 8 -25 2 -25 1 -22 -70 2 -48 -1 -73 -8 -73 -7 0 -9 -8 -5 -20 3 -11 2 -20
-4 -20 -5 0 -12 8 -14 18 -3 9 -4 -54 -2 -140 2 -149 1 -158 -16 -158 -23 0
-24 -18 -4 -44 10 -13 15 -46 16 -95 1 -54 3 -69 9 -51 7 23 8 21 9 -12 1 -52
-6 -66 -33 -61 -21 4 -25 0 -31 -38 -7 -40 -8 -42 -22 -23 -14 18 -15 18 -8
-6 4 -14 12 -34 19 -45 6 -11 17 -33 24 -50 12 -28 11 -29 -3 -10 -34 43 -96
184 -120 275 -15 52 -36 117 -48 143 -20 46 -20 52 -8 135 20 131 23 176 12
191 -8 12 -12 11 -28 -4 -16 -17 -16 -18 0 -12 15 5 17 0 17 -42 0 -27 -3 -62
-6 -78 l-6 -30 -44 42 c-58 57 -59 93 -4 203 40 80 49 112 30 112 -5 0 -10
-11 -10 -23 0 -13 -3 -27 -7 -31 -4 -4 -17 -30 -29 -59 l-22 -51 -15 37 c-9
20 -30 57 -46 81 -67 97 -158 386 -121 386 5 0 7 -8 4 -17 -4 -14 -3 -14 7 2
12 19 12 19 20 0 7 -20 8 -20 8 0 0 11 -4 27 -9 35 -9 13 -11 13 -20 0 -6 -10
-10 -11 -10 -3 0 16 53 124 58 119 2 -3 -1 -13 -7 -24z m2385 -105 c6 -10 21
-24 34 -30 43 -22 32 -32 -37 -33 -117 -1 -173 -8 -173 -21 0 -7 -5 -13 -11
-13 -5 0 0 18 12 40 12 21 27 36 32 33 6 -3 7 -1 3 6 -7 11 34 70 81 117 16
15 18 13 33 -32 9 -27 21 -57 26 -67z m34 -86 c19 -6 24 -13 22 -32 -3 -23 2
-42 35 -150 7 -25 25 -56 38 -69 14 -13 28 -39 31 -59 4 -20 13 -43 21 -53 13
-14 12 -29 -3 -121 -17 -99 -17 -108 -1 -166 20 -73 49 -121 117 -196 28 -30
50 -59 50 -64 0 -11 -46 -31 -74 -31 -37 0 -250 155 -331 242 -119 126 -165
246 -145 372 15 94 47 201 80 266 24 47 35 59 57 63 43 6 76 6 103 -2z m945
-532 c4 -12 8 -110 9 -218 1 -151 5 -207 18 -246 35 -107 56 -230 44 -261 -5
-12 -16 -5 -52 31 -50 52 -76 108 -100 218 -42 197 -88 289 -166 337 l-28 17
86 52 c79 49 160 90 176 91 4 0 10 -10 13 -21z"/>
<path d="M6613 9773 c-20 -4 -23 -11 -23 -51 l0 -47 85 0 85 0 0 46 c0 40 -3
48 -22 53 -25 6 -90 6 -125 -1z"/>
<path d="M480 8700 c-14 -27 -38 -52 -69 -72 -38 -23 -48 -34 -44 -49 6 -21
18 -22 160 -3 31 5 47 2 58 -10 19 -19 63 -20 86 -3 23 17 49 72 49 101 0 19
-7 26 -30 31 -17 4 -45 14 -63 23 -17 9 -53 18 -79 20 -46 3 -47 3 -68 -38z"/>
<path d="M860 8555 c-8 -9 -27 -14 -51 -13 -22 1 -45 -4 -51 -10 -7 -7 -19
-12 -27 -12 -9 0 -38 -11 -65 -25 -56 -28 -103 -32 -132 -10 -26 20 -40 19
-92 -7 -32 -15 -49 -18 -61 -11 -31 19 -42 4 -35 -46 5 -40 3 -49 -11 -54 -9
-4 -25 -2 -36 4 -11 5 -37 9 -57 7 -48 -4 -49 -29 -2 -45 48 -16 76 -16 94 2
8 8 28 18 45 21 16 4 38 15 47 25 9 11 22 19 27 19 14 0 36 -32 37 -51 0 -20
52 -17 86 6 35 23 37 20 22 -30 -4 -11 -9 -37 -13 -59 l-6 -38 37 7 c77 14
214 100 214 133 0 20 50 55 103 72 31 10 37 16 37 39 0 24 -29 79 -30 56 0 -5
-7 1 -16 13 -18 25 -46 29 -64 7z"/>
<path d="M265 7497 c-17 -31 -18 -91 -4 -147 3 -9 -11 -19 -39 -29 -41 -15
-42 -17 -36 -51 9 -58 23 -75 80 -103 30 -15 52 -32 49 -37 -3 -6 3 -10 14
-10 25 0 25 -1 7 36 -8 16 -22 68 -32 116 -16 85 -16 88 3 130 31 65 35 85 23
108 -16 30 -44 24 -65 -13z"/>
<path d="M1133 7349 c-6 -6 -7 -25 -2 -52 15 -76 10 -115 -21 -177 -29 -57
-38 -100 -22 -100 4 0 31 22 61 48 60 53 56 40 47 185 -5 83 -33 126 -63 96z"/>
<path d="M632 6840 c-6 -11 -12 -39 -12 -64 0 -39 -3 -45 -30 -56 -16 -7 -31
-10 -33 -9 -2 2 -18 -8 -36 -24 -18 -15 -45 -29 -59 -32 -71 -15 -77 -23 -80
-115 -1 -47 2 -91 7 -99 5 -7 23 -15 41 -17 38 -5 52 -12 45 -25 -4 -5 -1 -9
4 -9 6 0 11 -7 11 -16 0 -9 8 -22 17 -29 15 -11 15 -15 -5 -43 -13 -17 -22
-45 -22 -65 0 -19 -7 -40 -15 -47 -18 -15 -19 -43 -3 -70 11 -17 8 -24 -17
-50 -16 -16 -34 -30 -41 -30 -25 0 -25 -22 -3 -68 21 -42 23 -59 20 -166 l-3
-119 54 7 c65 8 78 24 79 95 1 102 14 153 45 179 16 13 53 44 81 69 47 40 111
87 164 119 17 10 17 11 0 21 -15 10 -24 6 -51 -22 -17 -18 -44 -35 -60 -38
-15 -4 -45 -18 -65 -32 -43 -28 -67 -32 -85 -10 -9 11 -8 25 6 67 10 29 19 76
19 103 0 45 6 59 51 120 28 39 58 84 66 100 26 52 -1 75 -38 34 -23 -26 -69
-50 -78 -42 -24 25 15 201 68 302 33 63 -5 139 -42 81z"/>
<path d="M1055 6453 c-3 -16 -10 -48 -15 -73 -5 -25 -13 -65 -16 -89 -5 -27
-18 -56 -36 -77 -26 -29 -28 -35 -14 -40 18 -7 49 -58 40 -67 -3 -3 -5 -24 -6
-47 0 -45 12 -60 48 -60 26 0 33 21 39 121 3 39 9 78 14 87 4 9 11 57 14 107
6 85 5 92 -20 127 -31 45 -41 47 -48 11z"/>
<path d="M259 4930 c-9 -5 -20 -22 -24 -37 -3 -14 -15 -38 -26 -51 -23 -30
-24 -53 -4 -92 13 -24 22 -30 49 -30 19 0 37 6 40 13 4 8 8 9 11 1 24 -48 31
-48 64 -2 18 25 44 51 58 59 24 13 53 56 53 79 0 6 -13 16 -30 21 -16 6 -30
15 -30 19 0 13 -33 17 -63 7 -20 -7 -34 -5 -52 7 -28 19 -25 18 -46 6z"/>
<path d="M212 4600 c-34 -27 -78 -54 -97 -60 -37 -12 -47 -37 -32 -83 6 -17 5
-43 0 -65 -5 -20 -8 -43 -5 -50 6 -18 40 -14 51 7 6 10 26 37 45 60 19 23 55
74 80 114 84 135 69 164 -42 77z"/>
</g>
</svg>
