<?xml version="1.0" standalone="no"?>
<!DOCTYPE svg PUBLIC "-//W3C//DTD SVG 20010904//EN"
 "http://www.w3.org/TR/2001/REC-SVG-20010904/DTD/svg10.dtd">
<svg version="1.0" xmlns="http://www.w3.org/2000/svg"
 width="720.000000pt" height="1280.000000pt" viewBox="0 0 720.000000 1280.000000"
 preserveAspectRatio="xMidYMid meet">
<metadata>
Created by potrace 1.16, written by Peter Selinger 2001-2019
</metadata>
<g transform="translate(0.000000,1280.000000) scale(0.100000,-0.100000)"
fill="#000000" stroke="none">
<path d="M0 6400 l0 -6400 3600 0 3600 0 0 6400 0 6400 -3600 0 -3600 0 0
-6400z m6796 3680 c151 -69 198 -267 95 -405 -25 -34 -27 -41 -14 -50 14 -10
14 -14 -1 -37 -26 -40 -88 -50 -140 -23 -24 13 -38 13 -90 3 -107 -20 -145
-17 -172 17 -21 27 -21 30 -6 41 16 11 15 14 -5 36 -56 60 -79 178 -51 269 23
77 102 146 195 169 50 12 138 3 189 -20z m-653 4 c29 -10 64 -34 92 -62 124
-125 89 -333 -68 -412 -134 -67 -310 -20 -371 98 -46 89 -41 199 13 284 41 65
129 108 221 108 36 0 87 -7 113 -16z m-5834 -111 c15 -56 71 -300 71 -307 0
-3 -16 -6 -35 -6 -30 0 -35 3 -35 24 0 34 -23 49 -64 42 -27 -5 -35 -12 -40
-36 -5 -26 -10 -30 -40 -30 l-34 0 14 58 c7 31 25 110 40 175 l28 117 42 0
c41 0 44 -2 53 -37z m403 -55 l3 -93 25 37 c20 31 31 38 58 38 17 0 32 -3 32
-6 0 -4 -16 -28 -35 -53 -30 -41 -33 -50 -21 -67 7 -10 25 -40 40 -66 l27 -48
-35 0 c-30 0 -38 5 -57 40 -26 45 -39 43 -39 -6 0 -31 -2 -34 -30 -34 l-30 0
0 175 0 175 30 0 29 0 3 -92z m1738 -83 l0 -176 -42 1 c-24 1 -55 -1 -69 -5
-19 -5 -33 -1 -55 18 -28 24 -29 29 -29 106 1 69 4 85 22 102 22 22 54 28 91
15 21 -7 22 -5 22 53 l0 61 30 0 30 0 0 -175z m452 83 l3 -92 25 37 c20 30 31
37 58 37 30 0 42 -12 24 -24 -5 -3 -21 -23 -36 -44 l-27 -40 40 -66 41 -66
-35 0 c-30 0 -39 6 -62 43 l-28 42 -3 -42 c-3 -42 -4 -43 -38 -43 l-34 0 0
175 0 175 35 0 34 0 3 -92z m728 27 l0 -66 30 16 c33 17 60 13 85 -11 11 -12
15 -40 15 -120 l0 -104 -30 0 -30 0 0 90 c0 75 -3 92 -16 97 -37 14 -49 -10
-52 -101 l-3 -86 -29 0 -30 0 0 175 0 175 30 0 30 0 0 -65z m530 4 c0 -58 1
-60 23 -53 76 26 107 -8 107 -118 0 -71 -2 -81 -26 -105 -20 -20 -31 -24 -52
-18 -15 4 -46 6 -69 5 l-43 -1 0 176 0 175 30 0 30 0 0 -61z m-1480 -9 c0 -38
2 -40 30 -40 25 0 30 -4 30 -25 0 -21 -5 -25 -30 -25 l-31 0 3 -67 c3 -66 4
-68 31 -71 21 -3 27 -8 23 -19 -3 -8 -6 -19 -6 -24 0 -16 -73 -10 -92 8 -14
13 -18 31 -18 90 0 66 -2 75 -20 80 -13 3 -20 14 -20 29 0 17 6 24 20 24 17 0
20 7 20 40 0 38 2 40 30 40 28 0 30 -2 30 -40z m-2096 -61 c24 -23 34 -121 17
-172 -15 -44 -59 -66 -97 -48 -14 6 -27 11 -29 11 -3 0 -5 -30 -5 -66 l0 -65
-27 3 -28 3 -3 179 -2 179 37 -5 c21 -3 47 -2 58 3 26 10 55 2 79 -22z m405
20 c17 -6 36 -19 41 -29 6 -10 10 -62 10 -115 l0 -97 -32 3 c-18 1 -48 -1 -66
-5 -50 -12 -82 13 -82 64 0 44 20 64 83 81 28 7 37 15 35 27 -5 26 -48 28 -55
3 -4 -14 -13 -21 -29 -21 -65 0 -15 96 52 99 6 1 25 -4 43 -10z m290 0 c38
-14 51 -35 51 -88 l0 -41 -61 0 c-60 0 -60 0 -57 -27 3 -32 44 -46 54 -19 4
10 18 16 35 16 35 0 39 -25 10 -61 -27 -34 -99 -34 -135 0 -23 22 -26 32 -26
96 0 79 20 120 63 128 12 2 25 5 28 6 3 0 20 -4 38 -10z m198 0 c32 -12 43
-26 43 -56 0 -31 -45 -33 -53 -2 -7 24 -40 23 -45 -2 -2 -10 9 -21 30 -29 75
-30 98 -83 59 -131 -40 -50 -151 -22 -151 38 0 18 5 23 26 23 18 0 28 -6 31
-21 7 -26 48 -23 48 4 0 12 -16 26 -45 40 -89 43 -75 132 22 146 4 1 19 -4 35
-10z m197 -3 c31 -13 53 -55 38 -71 -14 -14 -50 -3 -55 16 -4 13 -12 20 -24
17 -29 -5 -21 -32 15 -50 73 -36 92 -81 53 -129 -15 -19 -29 -24 -66 -24 -37
0 -51 5 -66 24 -29 36 -25 61 10 61 21 0 30 -6 34 -21 7 -25 40 -22 45 3 2 12
-11 24 -43 39 -74 35 -85 107 -21 135 39 17 40 17 80 0z m205 3 c17 -6 36 -19
41 -29 6 -10 10 -62 10 -115 l0 -97 -32 3 c-18 1 -48 -1 -66 -5 -50 -12 -82
13 -82 64 0 44 20 64 83 81 28 7 37 15 35 27 -5 25 -45 27 -58 3 -14 -27 -60
-29 -60 -3 0 36 46 79 86 81 6 1 25 -4 43 -10z m318 -21 c17 -16 23 -33 23
-65 l0 -43 -61 0 c-60 0 -60 0 -57 -27 3 -32 44 -46 54 -19 8 20 64 22 64 2 0
-69 -102 -98 -158 -45 -19 17 -22 31 -22 98 0 68 3 80 23 98 12 11 29 23 37
26 25 10 73 -2 97 -25z m1001 -4 c18 -21 22 -36 22 -98 0 -65 -3 -75 -26 -97
-35 -33 -104 -34 -136 -2 -27 28 -37 127 -17 174 24 60 111 73 157 23z m240 8
c8 -10 12 -52 12 -119 l0 -103 -30 0 -30 0 0 90 c0 75 -3 92 -17 97 -32 12
-53 -32 -53 -113 l0 -74 -30 0 -30 0 0 120 0 120 29 0 c16 0 31 -5 33 -11 2
-6 14 -5 33 5 33 17 63 13 83 -12z m529 -4 c17 -16 23 -33 23 -65 l0 -43 -61
0 c-60 0 -60 0 -57 -27 3 -32 44 -46 54 -19 4 10 18 16 35 16 22 0 29 -5 29
-20 0 -42 -64 -79 -115 -66 -52 13 -65 39 -65 124 0 69 3 81 23 99 12 11 29
23 37 26 25 10 73 -2 97 -25z m540 8 c7 -6 14 -56 17 -118 l6 -108 -35 0 -35
0 0 90 c0 72 -3 92 -15 96 -33 13 -45 -15 -45 -102 l0 -84 -35 0 -35 0 0 120
0 120 35 0 c19 0 35 -4 35 -9 0 -6 12 -3 28 4 28 15 58 12 79 -9z m218 -7 c17
-16 21 -36 23 -120 l4 -100 -44 1 c-23 1 -54 -1 -68 -5 -35 -9 -80 27 -80 64
0 39 19 60 70 75 33 10 46 19 48 35 4 28 -33 29 -50 1 -12 -19 -48 -27 -60
-14 -15 14 11 60 43 77 40 21 85 16 114 -14z m394 20 c36 -13 61 -53 61 -99
l0 -30 -59 0 c-65 0 -73 -5 -64 -38 6 -26 53 -32 53 -7 0 11 11 15 36 15 32 0
35 -2 29 -22 -4 -13 -18 -34 -33 -47 -21 -19 -33 -22 -65 -18 -59 8 -80 35
-85 107 -5 75 11 118 52 136 38 16 36 16 75 3z m204 -3 c15 -8 27 -11 27 -5 0
5 14 9 31 9 l30 0 -3 -155 c-3 -145 -4 -156 -26 -177 -17 -18 -34 -23 -73 -23
-43 0 -54 4 -75 29 -14 15 -24 36 -22 45 5 25 45 26 60 2 27 -43 78 -16 78 40
0 18 -3 20 -12 11 -7 -7 -29 -12 -49 -12 -55 0 -79 34 -79 114 0 85 8 106 44
122 39 17 36 17 69 0z m285 -22 c19 -22 22 -36 22 -120 l0 -95 -42 1 c-24 1
-55 -1 -70 -5 -21 -6 -32 -2 -52 18 -48 48 -29 99 44 121 33 10 46 19 48 35 4
28 -33 29 -50 1 -7 -11 -23 -20 -36 -20 -20 0 -23 4 -20 33 6 65 108 86 156
31z m-3048 -94 l0 -120 -35 0 -35 0 0 113 c0 63 3 117 7 120 3 4 19 7 35 7
l28 0 0 -120z m2280 63 c19 -90 25 -92 45 -14 18 69 20 71 51 71 l32 0 -24
-82 c-79 -281 -76 -273 -113 -276 -28 -3 -33 -1 -27 14 28 74 28 99 -3 207
-18 59 -34 113 -37 122 -5 12 2 15 28 15 34 0 35 -1 48 -57z m-235 -2245 l0
-948 -157 0 -157 0 2 -27 2 -28 133 -3 c86 -2 132 -6 132 -13 0 -7 -13 -9 -36
-5 -91 18 -193 -48 -244 -157 -108 -226 35 -454 239 -382 l41 14 2 -527 3
-527 43 -3 42 -3 -6 39 c-7 42 10 67 21 33 5 -16 12 -19 33 -15 19 4 35 -1 51
-13 20 -17 22 -22 12 -41 -14 -26 -9 -28 13 -6 15 14 16 13 16 -10 0 -14 5
-26 11 -26 5 0 7 -5 4 -10 -4 -7 -13 -7 -26 0 -13 7 -19 7 -19 0 0 -5 -9 -10
-20 -10 -15 0 -20 -7 -20 -24 0 -14 5 -28 10 -31 6 -3 10 3 10 14 0 12 6 21
13 21 22 0 37 -23 37 -56 0 -28 4 -33 30 -39 17 -4 35 -15 40 -26 6 -10 20
-19 30 -19 11 0 20 -7 20 -15 0 -8 -5 -15 -11 -15 -6 0 -9 -7 -5 -15 4 -13 -4
-15 -50 -13 -35 1 -58 7 -61 15 -3 7 -9 10 -14 7 -5 -3 -7 -10 -4 -15 4 -5
-20 -9 -54 -9 l-61 0 -1 73 c-1 39 -2 99 -3 132 l-1 60 -47 -1 -46 0 -49 135
-49 136 -105 0 -104 0 -22 -60 c-12 -33 -55 -152 -96 -265 l-75 -205 -68 -3
-67 -3 31 29 c17 16 37 43 44 58 12 31 25 396 14 437 -5 20 -11 22 -68 21 -35
0 -73 -2 -85 -2 l-23 -2 0 -195 c0 -172 -2 -196 -16 -202 -22 -8 -48 9 -52 36
-3 20 -9 21 -88 21 l-84 0 0 -36 c0 -48 24 -97 66 -134 l35 -30 -143 1 c-138
0 -142 1 -118 17 39 26 71 64 88 102 12 27 17 82 20 228 l4 193 -88 -3 -89 -3
-3 -176 c-2 -161 -4 -178 -22 -194 -29 -26 -79 -24 -102 4 -16 21 -18 43 -18
197 l0 174 -91 0 -91 0 4 -187 c3 -186 3 -189 33 -248 19 -37 43 -69 64 -82
l34 -23 -107 0 -106 0 0 -29 c0 -16 7 -34 15 -41 8 -7 15 -21 15 -31 0 -10 9
-23 19 -29 25 -13 31 -13 31 0 0 6 -7 10 -15 10 -8 0 -15 6 -15 14 0 8 -8 22
-17 32 -16 16 -14 17 39 12 36 -3 65 -12 83 -26 35 -27 76 -28 100 -2 24 27
43 25 51 -4 6 -24 -10 -66 -25 -66 -5 0 -20 9 -34 20 -32 25 -58 25 -87 0
l-23 -20 22 -24 c14 -15 30 -22 42 -19 26 7 24 -14 -2 -22 -19 -6 -48 16 -49
38 0 4 -8 7 -17 7 -13 0 -14 -3 -5 -12 14 -14 16 -54 3 -62 -5 -4 -12 12 -16
35 -4 23 -11 37 -16 32 -12 -12 1 -84 17 -90 7 -3 27 5 43 16 16 12 35 21 43
21 7 0 28 9 46 20 l33 20 -7 -65 c-6 -60 -5 -65 15 -73 l22 -8 -25 -14 c-22
-11 -30 -11 -52 0 -14 8 -32 27 -40 42 -11 22 -19 26 -32 20 -9 -5 -21 -8 -27
-6 -6 3 -11 -26 -12 -72 -2 -66 0 -77 16 -81 17 -4 17 -6 -1 -41 -23 -43 -20
-120 7 -171 17 -34 62 -58 78 -42 5 5 1 11 -11 15 -31 10 -62 71 -62 122 0 59
22 79 94 88 53 7 80 26 36 26 -23 0 -24 4 -10 31 10 17 7 19 -27 19 -21 0 -49
-7 -61 -16 -21 -14 -23 -14 -34 11 -15 33 0 52 30 36 31 -17 107 -14 122 4 9
11 16 13 24 5 17 -17 22 -12 23 25 1 37 -5 43 -25 23 -8 -8 -12 -9 -12 -1 0 6
7 18 15 27 17 16 20 72 5 81 -13 8 -13 52 0 60 5 3 10 24 10 46 l0 39 100 0
100 0 -10 -25 c-13 -34 12 -34 34 0 19 28 51 33 60 9 4 -10 -10 -32 -42 -65
-43 -45 -47 -47 -52 -27 -9 34 -29 33 -46 -4 -8 -18 -26 -51 -39 -73 -22 -36
-24 -48 -19 -115 3 -41 10 -96 16 -123 8 -40 7 -52 -7 -73 -14 -22 -22 -25
-51 -21 -27 5 -37 1 -53 -19 -24 -31 -31 -30 -31 4 -1 26 -1 26 -15 8 -14 -19
-15 -19 -21 0 -23 63 -35 85 -46 82 -35 -12 -5 -128 33 -128 11 0 19 5 19 11
0 5 5 7 10 4 6 -3 7 -17 4 -31 -5 -19 -3 -23 10 -18 20 8 21 -19 2 -98 -7 -32
-12 -76 -10 -98 4 -35 1 -40 -21 -46 -13 -3 -23 -11 -22 -18 1 -7 -11 -10 -35
-8 -29 3 -56 -7 -122 -42 -47 -25 -92 -46 -100 -46 -8 0 -21 -6 -28 -14 -8 -7
-30 -17 -49 -21 -19 -4 -54 -18 -79 -31 l-45 -24 -39 19 c-21 11 -43 18 -49
14 -24 -15 -29 73 -6 103 5 6 6 14 2 17 -3 4 -1 7 5 7 16 0 15 33 0 48 -9 9
-14 59 -16 158 l-4 145 26 -26 c14 -14 33 -25 43 -25 14 0 12 4 -10 18 -51 34
-56 49 -57 165 l0 108 30 6 c17 3 30 9 30 14 0 11 -3 11 -33 0 -27 -10 -24
-30 -29 179 l-3 104 64 3 c55 2 66 -1 83 -20 18 -21 18 -21 16 -2 -3 18 4 20
75 23 l77 3 0 29 0 30 -120 0 -120 0 0 80 0 80 53 0 c72 0 121 16 163 52 48
42 64 77 64 139 0 67 -29 126 -77 159 -31 21 -52 26 -132 30 l-96 5 -3 369
c-1 204 2 374 6 378 5 5 20 6 33 3 24 -6 24 -7 21 -109 l-4 -104 31 -7 c17 -3
35 -4 41 0 6 4 10 50 10 111 l0 104 44 0 c39 0 44 3 48 25 3 13 3 27 0 30 -3
3 -56 5 -119 5 l-113 0 0 125 0 125 -47 2 -48 1 45 6 45 6 3 133 3 132 135 0
135 0 -3 31 -3 31 -114 2 -113 1 -2 942 c-2 519 -1 945 2 948 3 3 429 4 946 3
l941 -3 0 -947z m-1975 516 c0 -300 3 -432 11 -447 9 -16 9 -22 0 -25 -8 -3
-11 -135 -11 -493 l0 -489 -502 -2 c-277 -2 -700 -2 -940 0 l-438 2 0 112 0
112 34 36 c18 19 38 50 45 69 7 22 11 131 11 308 0 302 -3 318 -61 367 -29 25
-29 25 -29 138 l0 113 97 -2 c54 -2 161 -4 238 -5 139 -3 141 -3 198 -37 106
-61 163 -140 188 -260 37 -177 -100 -365 -291 -401 -96 -18 -150 -77 -150
-165 0 -67 28 -110 93 -144 47 -23 51 -24 115 -11 175 34 321 125 426 264 96
127 140 273 134 436 -8 176 -66 315 -184 435 -104 107 -184 153 -332 191 -87
22 -116 24 -292 24 -107 0 -205 -1 -217 0 -23 0 -23 1 -23 150 l0 150 940 0
940 0 0 -426z m2272 397 c2 -16 -2 -37 -9 -47 -15 -21 -17 -54 -3 -54 18 0 22
-49 9 -119 -9 -53 -9 -74 -1 -84 12 -14 11 -47 -6 -172 -6 -38 -10 -79 -10
-90 0 -11 0 -47 -1 -80 -2 -33 2 -75 8 -92 6 -20 6 -33 0 -33 -14 0 -11 -38 3
-42 9 -3 13 -44 15 -144 1 -76 4 -170 6 -207 3 -46 1 -67 -7 -64 -6 2 -13 12
-15 23 -2 10 -7 24 -12 30 -5 6 -11 168 -14 360 -3 192 -8 460 -12 597 l-6
247 25 0 c21 0 27 -6 30 -29z m293 -13 l-6 -43 18 35 c18 35 31 50 45 50 4 0
-4 -30 -19 -67 -27 -71 -56 -181 -51 -194 2 -5 24 5 50 21 26 16 58 32 71 36
14 3 27 14 30 25 5 20 52 43 68 33 18 -11 8 -35 -18 -45 -44 -15 -93 -43 -106
-58 -10 -12 -6 -13 25 -8 l37 6 -16 -37 c-9 -20 -30 -55 -47 -76 l-29 -39 27
-24 c24 -21 25 -23 7 -23 -11 0 -23 5 -26 10 -3 6 -15 10 -26 10 -10 0 -19 -4
-19 -10 0 -5 9 -10 20 -10 38 0 21 -35 -45 -95 -39 -35 -63 -65 -60 -73 2 -7
1 -11 -4 -8 -8 5 -30 -39 -27 -54 0 -3 -15 -27 -34 -55 -30 -44 -35 -58 -35
-110 1 -80 27 -148 91 -234 29 -39 49 -71 45 -71 -19 0 -101 93 -122 138 -11
26 -26 81 -33 122 l-12 75 -22 -35 c-12 -19 -22 -39 -22 -44 0 -5 -3 -7 -6 -4
-19 19 56 176 117 243 15 17 30 41 34 55 7 24 7 24 -9 5 -13 -16 -15 -17 -16
-4 0 9 9 28 20 42 11 14 20 34 20 44 0 10 5 24 11 30 15 15 39 132 28 139 -5
3 -16 -2 -25 -10 -8 -9 -22 -16 -29 -16 -8 0 -19 -9 -25 -20 -6 -11 -17 -20
-26 -20 -13 0 -13 3 0 29 9 16 28 39 43 52 49 42 66 77 54 107 -13 31 -40 203
-34 215 2 4 24 7 49 7 l44 0 -5 -42z m1373 -100 c-1 -127 -2 -134 -8 -63 -3
44 -7 71 -8 60 -2 -17 -4 -18 -12 -5 -8 13 -11 11 -16 -7 -6 -23 -6 -23 -27 5
-12 15 -27 31 -34 35 -7 4 -20 22 -29 40 -9 18 -28 42 -42 55 l-25 22 101 0
102 0 -2 -142z m-480 17 c2 -16 12 -37 22 -45 11 -8 22 -29 26 -46 5 -28 3
-33 -17 -39 -33 -11 -89 -55 -89 -70 0 -7 -12 -25 -26 -41 -29 -30 -33 -61
-15 -116 6 -18 18 -60 27 -93 10 -33 24 -72 32 -87 19 -33 7 -52 -46 -69 -20
-6 -47 -20 -59 -31 -19 -18 -85 -40 -166 -55 -26 -5 -90 18 -102 36 -3 5 -13
7 -24 4 -13 -3 -26 8 -50 44 -17 26 -34 59 -37 73 -3 14 -10 38 -15 53 -6 22
-4 40 11 73 11 24 24 44 29 44 5 0 11 9 14 20 4 15 14 20 39 20 l33 1 -22 18
c-20 17 -21 20 -7 32 13 11 18 10 27 -6 7 -11 14 -29 17 -40 3 -11 15 -22 25
-24 11 -2 26 -8 33 -13 24 -20 12 -36 -35 -44 -32 -5 -40 -9 -25 -12 12 -2 22
-8 22 -14 0 -16 45 -1 101 34 l51 31 -4 60 c-6 82 -29 101 -107 91 -31 -3 -70
-14 -88 -24 -51 -29 -51 2 0 45 39 34 45 36 89 30 58 -8 108 2 108 21 0 8 -13
17 -30 21 -63 12 -22 43 65 51 36 2 65 8 65 13 0 4 8 10 18 13 10 4 26 21 34
40 13 26 22 33 45 32 23 -1 29 -6 31 -31z m-298 -740 c14 -17 40 -20 40 -5 0
20 39 9 71 -21 18 -16 45 -33 61 -36 30 -6 38 -27 13 -37 -17 -6 -11 -27 19
-69 l21 -29 -22 -17 c-27 -22 -122 -35 -159 -21 -26 10 -84 65 -84 80 0 4 -11
18 -25 31 -35 34 -33 67 5 80 22 8 30 17 30 35 0 27 12 31 30 9z m-1055 -642
c9 -12 29 -16 86 -17 l74 -1 3 -48 c2 -35 -2 -55 -18 -76 -25 -36 -25 -44 -1
-36 11 3 22 1 26 -5 3 -5 1 -10 -4 -10 -6 0 -11 -7 -11 -16 0 -13 7 -15 35
-11 30 5 35 3 35 -14 0 -10 5 -19 10 -19 6 0 10 4 10 9 0 16 33 22 47 8 8 -8
16 -41 18 -74 4 -59 3 -61 -23 -66 -37 -7 -305 -9 -323 -2 -10 4 -14 21 -12
63 0 31 2 100 2 152 2 88 3 93 16 70 16 -28 17 -27 19 12 2 25 -17 46 -27 30
-2 -4 -3 -2 -1 4 1 6 -2 16 -8 22 -14 14 -3 42 18 42 9 0 22 -7 29 -17z m1449
-106 c14 -9 60 -22 101 -28 82 -12 88 -18 88 -73 0 -71 -3 -81 -30 -93 -32
-16 -63 -17 -63 -3 0 6 -5 10 -12 10 -6 0 -36 24 -67 53 -31 29 -69 62 -85 73
-26 19 -27 22 -15 43 12 18 12 23 -1 31 -12 8 -10 10 8 10 13 0 21 4 18 9 -4
5 0 11 6 14 7 2 16 -4 20 -13 3 -9 18 -24 32 -33z m-869 -109 c14 -6 25 -17
25 -24 0 -7 8 -15 18 -19 21 -7 82 -82 82 -101 0 -11 -24 -14 -122 -13 -68 1
-116 3 -108 5 8 3 23 18 32 34 15 26 33 36 61 31 17 -3 5 19 -23 39 -56 40
-30 78 35 48z m263 -294 c18 -7 36 -24 42 -39 6 -15 17 -25 30 -25 11 0 21 -6
21 -12 1 -7 2 -17 4 -23 1 -5 3 -14 4 -20 1 -5 6 0 11 13 13 30 25 28 40 -9
10 -24 11 -36 2 -50 -17 -27 -15 -56 6 -68 10 -7 13 -14 7 -18 -13 -11 -13
-82 1 -91 11 -7 21 -50 31 -132 3 -25 10 -48 17 -52 7 -5 6 -11 -6 -20 -9 -7
-20 -30 -23 -50 -7 -35 -5 -39 21 -49 16 -6 59 -12 96 -13 38 0 68 -4 68 -8 0
-5 -6 -8 -12 -8 -10 0 -10 -2 -1 -8 20 -13 19 -34 -2 -37 -161 -24 -185 -29
-185 -41 0 -7 -7 -17 -16 -22 -8 -5 -17 -26 -19 -48 -2 -21 -6 -51 -9 -66 -5
-23 -3 -28 14 -28 12 0 24 -9 30 -24 6 -18 14 -22 33 -19 19 4 23 10 19 29 -3
19 0 24 17 24 22 0 28 -14 11 -25 -17 -11 -11 -35 9 -35 29 0 34 -17 8 -25
l-22 -8 23 -4 c13 -3 29 1 37 7 8 6 19 9 25 5 16 -10 12 -35 -7 -35 -14 0 -15
-2 -4 -9 7 -5 22 -6 32 -4 10 3 19 1 19 -5 0 -6 -10 -13 -22 -15 -20 -4 -19
-4 5 -6 15 0 27 4 27 9 0 6 5 10 11 10 11 0 39 24 39 34 0 3 -7 6 -15 6 -8 0
-15 5 -15 10 0 6 9 10 19 10 23 0 40 22 23 28 -14 4 -16 32 -3 32 5 0 12 -7
15 -16 5 -13 9 -14 21 -4 15 12 35 6 35 -11 0 -5 -8 -9 -17 -10 -10 -1 -3 -5
15 -9 19 -4 49 -7 68 -6 20 1 34 -3 34 -10 0 -14 48 -16 56 -2 3 5 14 -2 25
-16 23 -29 24 -36 5 -36 -7 0 -21 -10 -30 -22 -9 -13 -14 -17 -11 -10 4 7 3
21 0 33 -5 15 -10 17 -20 9 -10 -8 -15 -8 -20 0 -5 8 -13 6 -26 -6 -17 -15
-19 -15 -19 -1 0 13 -4 13 -25 4 -29 -14 -31 -23 -9 -35 15 -8 14 -12 -5 -31
-13 -13 -26 -19 -29 -15 -4 3 -1 9 6 11 6 3 9 10 5 16 -11 18 -13 57 -2 57 5
0 9 6 9 14 0 11 -6 12 -37 1 -35 -12 -38 -17 -38 -51 0 -42 -17 -54 -43 -31
-9 8 -31 17 -49 20 -36 7 -46 -10 -31 -51 8 -25 3 -42 -12 -42 -5 0 -7 7 -4
15 7 18 3 19 -31 3 -27 -12 -33 -33 -12 -41 6 -2 9 -8 5 -12 -13 -14 -37 21
-31 45 5 20 3 21 -18 15 -13 -4 -25 -12 -27 -16 -2 -5 -12 -9 -23 -9 -10 0
-19 -7 -19 -15 0 -8 -6 -15 -14 -15 -19 0 -27 -13 -17 -29 7 -10 13 -11 31 -1
18 10 25 9 37 -3 12 -12 13 -19 3 -37 l-12 -22 -14 21 c-11 16 -25 20 -54 19
-32 -1 -38 -4 -29 -15 9 -10 8 -13 -1 -13 -9 0 -9 -4 1 -17 13 -15 12 -15 -8
-2 -13 8 -26 28 -29 47 -4 19 -10 30 -15 25 -5 -5 -1 -25 10 -48 10 -21 16
-45 14 -54 -3 -11 2 -17 16 -17 11 0 17 4 15 8 -8 13 21 9 38 -4 9 -7 19 -24
23 -38 7 -22 6 -23 -9 -11 -39 32 -19 1 39 -63 35 -39 62 -73 59 -77 -2 -5 4
-13 15 -18 27 -15 27 -74 0 -66 -9 3 -20 1 -24 -5 -3 -5 1 -10 9 -10 27 0 17
-17 -16 -30 -48 -19 -56 -20 -139 -23 l-75 -4 1 51 c1 29 9 63 19 77 13 20 14
32 7 53 -9 22 -8 26 9 26 10 0 31 -5 46 -10 47 -18 40 0 -24 58 l-62 57 11
182 c11 178 11 183 -10 209 -12 15 -21 33 -21 40 0 7 -8 18 -18 23 -13 7 -17
18 -15 38 3 20 -2 34 -16 47 -12 11 -21 22 -21 26 0 16 33 19 75 8 41 -11 46
-10 69 11 13 12 27 39 31 59 10 58 16 73 26 67 5 -4 9 -17 9 -30 0 -13 5 -27
11 -31 8 -5 10 13 6 64 -3 39 -1 72 4 74 5 2 12 31 15 65 4 34 11 60 15 57 14
-8 11 14 -5 39 -17 26 -52 135 -61 192 -9 53 -40 112 -67 126 -12 6 -31 20
-42 30 -11 11 -23 20 -28 20 -15 3 -23 5 -62 18 -25 9 -58 11 -93 7 -59 -7
-117 -31 -108 -46 3 -5 -1 -12 -9 -17 -19 -11 -56 -74 -56 -97 0 -11 -9 -29
-20 -41 -27 -29 -32 -52 -36 -163 -3 -110 -14 -149 -54 -187 -17 -16 -30 -34
-30 -40 0 -7 -9 -20 -20 -30 -22 -19 -29 -95 -9 -95 12 0 39 -25 39 -37 0 -4
-13 -19 -29 -33 -28 -25 -51 -100 -30 -100 5 0 9 5 9 10 0 6 5 10 11 10 13 0
3 -50 -13 -65 -7 -7 -8 -3 -3 13 5 16 2 22 -9 22 -15 0 -21 -16 -18 -50 1 -8
3 -41 5 -72 3 -32 10 -65 17 -73 21 -25 21 -81 0 -100 -23 -21 -44 -10 -35 19
3 11 8 34 11 50 3 23 1 26 -10 17 -11 -9 -15 -9 -19 1 -4 11 -7 10 -15 0 -7
-11 -12 -10 -25 3 -18 17 -39 12 -36 -8 3 -24 -1 -37 -11 -37 -5 0 -10 7 -10
15 0 8 -7 15 -16 15 -9 0 -25 9 -35 21 -18 21 -17 22 11 53 17 17 30 37 30 43
0 7 3 12 8 12 21 -4 23 3 7 20 -16 19 -16 21 4 50 12 16 21 36 21 44 0 9 5 19
10 22 6 3 10 15 10 27 0 17 -4 19 -27 14 -16 -4 -33 -14 -39 -22 -6 -7 -15
-14 -19 -14 -4 0 -2 6 4 14 8 9 8 16 2 20 -6 4 -4 14 7 27 15 17 18 18 28 4
11 -15 13 -14 26 2 16 22 78 28 78 7 0 -8 4 -14 9 -14 5 0 9 11 9 25 0 24 -13
30 -65 28 -7 -1 -13 4 -13 9 0 7 -16 8 -40 5 -36 -5 -39 -3 -36 16 3 12 5 33
5 46 1 19 5 23 26 19 14 -3 25 -1 25 3 0 5 12 9 26 9 19 0 25 -4 20 -15 -3 -9
1 -18 10 -22 12 -4 12 -8 4 -13 -15 -10 -4 -30 16 -30 12 0 14 16 10 97 -3 53
-1 104 4 114 6 9 26 23 45 29 49 16 45 34 -5 26 -32 -5 -40 -3 -40 9 0 11 12
15 48 16 26 1 40 3 32 5 -9 3 -21 13 -28 24 -11 18 -10 20 11 20 13 0 28 -5
35 -12 8 -8 12 -9 12 -1 0 6 -6 13 -12 16 -10 3 -8 10 5 25 10 11 20 37 23 57
2 21 11 47 19 59 9 11 20 38 26 60 6 21 15 43 20 50 49 61 59 76 59 91 0 9 4
14 9 10 5 -3 16 3 23 13 12 17 87 53 133 65 30 8 125 -4 163 -19z m-1040 -106
c11 -13 22 -39 24 -58 3 -33 6 -35 43 -39 l40 -5 -40 -5 -40 -6 -5 -63 c-4
-52 -9 -66 -30 -82 -61 -47 -150 0 -165 88 -10 63 3 137 30 166 33 35 111 37
143 4z m1040 -53 c9 -11 22 -38 29 -60 11 -37 11 -41 -12 -65 -14 -15 -25 -31
-25 -36 0 -6 16 -26 35 -44 36 -35 45 -79 15 -71 -8 2 -31 6 -50 8 -31 4 -33
3 -17 -10 23 -19 21 -27 -7 -27 -14 0 -28 -4 -31 -10 -4 -6 7 -10 24 -10 17 0
31 -5 31 -11 0 -6 -7 -8 -16 -5 -10 4 -14 1 -12 -6 3 -7 17 -14 31 -16 30 -4
31 -6 17 -33 -13 -23 -87 -27 -128 -6 -15 8 -49 24 -76 38 -35 16 -53 33 -63
56 -15 36 -29 42 -36 16 -4 -14 -5 -14 -6 3 0 12 -8 27 -16 34 -23 19 -18 34
14 46 20 8 32 22 41 50 15 46 43 80 85 101 17 8 41 26 55 39 77 73 74 72 88
55 7 -9 20 -25 30 -36z m-3313 -720 l0 -510 -145 1 -145 2 -3 511 -2 512 147
-3 148 -3 0 -510z m-787 359 c19 -6 46 -74 34 -86 -6 -6 -33 -8 -61 -7 -35 3
-51 0 -51 -8 0 -18 19 -26 57 -25 27 1 34 -2 31 -15 -5 -25 -51 -33 -86 -16
-54 26 -62 98 -16 148 23 25 37 26 92 9z m-372 -15 c26 -29 26 -99 0 -128 -14
-15 -31 -21 -62 -21 -36 0 -47 5 -61 26 -22 34 -22 84 0 118 14 21 25 26 61
26 31 0 48 -6 62 -21z m4226 -166 c30 -27 23 -43 -14 -32 -18 5 -34 9 -35 9
-1 0 0 -7 3 -15 4 -8 1 -15 -5 -15 -6 0 -11 -15 -11 -34 0 -26 -5 -36 -21 -41
-12 -4 -26 -2 -32 4 -19 19 -43 12 -83 -24 -58 -54 -72 -46 -29 18 17 24 21
37 13 38 -7 0 5 6 27 13 22 7 45 10 50 6 18 -13 55 -18 61 -9 3 5 -2 9 -10 9
-23 0 -24 42 -1 66 24 27 62 30 87 7z m-4302 -130 c0 -22 -87 -219 -103 -234
l-22 -21 60 4 c48 2 60 0 60 -12 0 -10 -12 -16 -32 -18 l-33 -3 0 -94 c0 -93
-9 -120 -33 -96 -8 8 -11 42 -8 102 l3 89 -37 0 c-29 0 -36 3 -33 18 2 12 11
16 28 14 24 -3 24 -3 6 11 -20 14 -15 37 8 37 18 0 39 49 27 64 -15 19 -59
134 -53 140 3 3 13 6 22 6 11 0 23 -18 35 -55 11 -30 22 -52 25 -47 4 4 12 27
19 52 7 25 18 48 24 52 10 6 37 0 37 -9z m178 -34 c16 -30 9 -85 -14 -110 -24
-26 -88 -25 -114 1 -23 23 -28 96 -7 124 7 10 29 21 47 25 40 9 68 -4 88 -40z
m92 -18 c0 -60 10 -79 43 -78 14 0 17 10 17 69 0 61 2 68 20 68 18 0 20 -7 20
-85 l0 -84 -37 -1 c-21 0 -47 0 -57 -1 -35 0 -50 27 -51 93 -1 74 0 78 26 78
17 0 19 -7 19 -59z m-101 -277 c31 -40 28 -89 -9 -126 -23 -23 -34 -27 -43
-19 -10 7 -17 7 -24 0 -8 -8 -18 -4 -37 14 -34 34 -36 102 -6 135 31 33 92 30
119 -4z m202 -7 c34 -55 5 -142 -45 -135 -12 1 -26 -1 -32 -4 -15 -10 -53 19
-65 49 -12 31 5 99 28 112 9 5 34 9 55 9 33 1 42 -4 59 -31z m4834 -207 c-3
-6 -13 -10 -21 -10 -8 0 -14 -4 -14 -10 0 -14 37 -12 43 3 4 9 6 9 6 0 1 -7
-8 -21 -20 -32 -12 -11 -18 -24 -14 -30 3 -6 -1 -11 -9 -11 -9 0 -16 -9 -16
-20 0 -23 10 -26 29 -7 10 9 15 9 18 1 2 -7 12 -10 22 -7 11 3 24 -5 35 -21 9
-14 23 -26 31 -26 8 0 15 -4 15 -10 0 -5 5 -10 11 -10 5 0 8 4 5 8 -2 4 4 13
14 19 15 10 18 9 16 -12 0 -14 -7 -27 -13 -30 -7 -2 -13 -11 -13 -20 0 -30
-31 -11 -36 23 -6 38 -50 56 -61 25 -8 -23 -60 -73 -67 -65 -12 11 -5 23 19
32 30 11 35 45 6 37 -11 -3 -30 2 -42 11 -31 21 -98 26 -105 7 -4 -8 -12 -15
-20 -15 -8 0 -11 6 -8 15 4 9 1 15 -7 15 -10 0 -9 5 3 17 10 10 34 16 62 17
28 1 41 5 35 11 -14 14 -11 25 6 19 10 -4 15 0 15 11 0 12 5 15 21 10 19 -6
21 -4 16 14 -3 12 2 35 10 53 13 26 17 28 25 14 5 -9 6 -21 3 -26z m-4695 -45
c0 -33 1 -35 21 -24 18 9 26 7 48 -9 24 -18 26 -25 26 -93 0 -62 -3 -74 -17
-77 -16 -3 -18 5 -18 61 0 66 -9 85 -42 84 -15 0 -18 -10 -18 -69 0 -54 -3
-70 -16 -75 -27 -10 -34 17 -34 130 l0 107 25 0 c22 0 25 -4 25 -35z m-376
-21 c12 -5 16 -21 16 -69 0 -48 4 -64 16 -69 30 -11 33 -6 36 62 3 61 5 67 26
70 21 3 22 1 22 -81 l0 -85 -57 -1 c-32 0 -65 4 -72 9 -23 14 -29 170 -7 170
2 0 11 -3 20 -6z m-181 -21 c24 -23 25 -148 0 -157 -24 -10 -33 12 -31 72 1
53 -11 80 -31 68 -6 -4 -11 -33 -11 -65 0 -39 -5 -63 -15 -71 -26 -22 -35 0
-35 85 l0 84 53 0 c33 -1 58 -7 70 -16z m3465 -308 c7 -14 12 -30 12 -35 0 -5
-37 -10 -82 -12 -82 -3 -83 -3 -86 -31 -2 -19 2 -29 15 -34 28 -11 43 -30 37
-47 -3 -9 -10 -16 -14 -16 -4 0 -10 -12 -13 -27 -3 -16 -7 -37 -10 -48 -14
-62 -16 -94 -6 -125 24 -77 27 -114 13 -142 -8 -15 -11 -33 -8 -41 3 -8 0 -33
-6 -56 -8 -31 -8 -51 1 -81 9 -31 10 -43 1 -52 -7 -7 -12 -20 -12 -29 0 -10
-6 -30 -14 -46 -40 -77 -46 -100 -36 -134 7 -23 7 -35 0 -37 -7 -3 -6 -10 2
-20 11 -13 11 -14 -1 -7 -11 6 -13 4 -8 -8 3 -10 2 -17 -3 -17 -8 0 -7 -19 6
-82 3 -14 1 -29 -5 -32 -9 -6 -6 -83 4 -113 5 -16 -36 -143 -46 -143 -19 0 -9
-112 11 -146 35 -55 25 -166 -21 -240 -14 -23 -20 -53 -22 -106 -1 -54 -6 -75
-17 -80 -24 -11 -188 -9 -195 2 -3 6 -2 10 3 10 6 0 11 57 11 138 2 109 9 407
11 407 4 0 7 272 3 278 -11 19 -1 280 17 417 10 80 24 210 31 290 6 82 18 159
27 178 8 18 15 60 14 92 0 59 0 59 33 66 18 3 67 4 109 2 l76 -3 0 32 c0 28
-4 33 -24 33 -20 0 -23 4 -19 23 11 42 22 47 113 47 83 0 87 -1 98 -25z
m-3068 -115 c91 -3 151 -7 133 -8 -17 -1 -44 -7 -60 -14 -15 -6 -31 -10 -36
-10 -4 1 -2 -7 5 -18 7 -11 18 -20 24 -20 9 0 9 -6 1 -24 -6 -13 -17 -22 -23
-19 -6 2 -14 -3 -17 -11 -4 -10 -19 -16 -42 -16 -19 0 -35 -3 -36 -7 -5 -58
-10 -75 -30 -95 -14 -13 -31 -36 -39 -53 -15 -29 -45 -65 -55 -65 -3 0 -14 -9
-25 -20 -13 -13 -16 -21 -8 -26 7 -5 2 -15 -16 -29 -15 -12 -28 -32 -29 -44
-1 -12 -11 -27 -22 -33 -11 -6 -25 -18 -32 -27 -6 -9 -37 -30 -68 -46 -56 -30
-57 -30 -51 -67 3 -20 8 -43 12 -51 3 -8 -8 -27 -25 -45 -36 -35 -40 -47 -10
-32 26 14 33 8 21 -17 -6 -10 -29 -58 -52 -108 -23 -49 -45 -92 -49 -95 -14
-9 -22 -60 -9 -58 8 2 11 -11 9 -41 l-3 -44 34 23 c18 13 43 32 54 42 21 19
21 19 27 -1 6 -25 30 -27 52 -5 15 15 18 14 46 -17 18 -20 27 -39 23 -49 -16
-39 -31 -114 -28 -134 4 -20 4 -20 -5 -1 -5 11 -10 35 -10 53 -1 36 -7 39 -39
16 -12 -8 -32 -17 -44 -19 -12 -3 -33 -15 -47 -29 -31 -29 -105 -67 -146 -75
-20 -5 -31 -15 -36 -31 -4 -14 -8 -20 -8 -15 -1 6 -6 2 -12 -7 -5 -10 -16 -15
-24 -12 -12 5 -15 -5 -16 -52 0 -41 -3 -53 -9 -39 -4 11 -9 350 -9 754 -1 403
-4 737 -7 742 -6 10 483 10 736 -1z m1154 -308 c-1 -213 -6 -318 -13 -325 -8
-8 -11 -8 -11 1 0 20 -30 14 -62 -13 -19 -16 -42 -25 -63 -25 -31 0 -35 3 -41
37 -4 20 -4 105 -1 189 5 139 -8 312 -27 342 -16 26 -116 92 -142 94 -68 4
112 15 231 14 l130 -1 -1 -313z m2609 261 c94 -33 219 -103 278 -156 70 -63
160 -182 198 -261 61 -128 75 -199 75 -361 -1 -125 -3 -149 -28 -225 -62 -187
-169 -327 -336 -440 -193 -131 -473 -167 -704 -90 l-36 12 0 172 c0 95 3 175
6 179 3 3 30 -8 60 -24 247 -140 574 -26 684 237 113 271 -39 586 -317 661
-131 36 -328 4 -401 -64 -7 -7 -18 -13 -23 -13 -5 0 -9 74 -9 175 0 201 -8
185 110 217 51 13 96 17 210 15 133 -3 152 -6 233 -34z m-3039 5 c11 -10 16
-18 12 -18 -4 0 2 -13 14 -30 12 -16 19 -38 16 -47 -3 -10 -8 -52 -11 -92 -3
-41 -7 -76 -9 -78 -2 -2 -32 -11 -67 -20 -35 -8 -68 -19 -72 -23 -13 -11 -18
-99 -9 -155 7 -49 8 -50 40 -48 17 1 32 -3 32 -8 0 -6 9 -7 20 -4 11 3 29 4
39 0 16 -5 19 -12 14 -43 -6 -38 -38 -82 -60 -82 -7 0 -17 9 -23 20 -16 29
-55 25 -79 -7 -37 -49 -41 -53 -65 -53 -13 0 -33 -9 -46 -20 -13 -11 -32 -20
-43 -20 -14 0 -17 -5 -13 -17 4 -9 1 -20 -6 -24 -10 -7 -10 -11 0 -21 6 -6 12
-22 12 -34 0 -13 4 -25 9 -28 5 -3 19 -25 31 -47 22 -43 21 -69 -4 -69 -7 0
-21 -11 -30 -25 -10 -15 -26 -25 -40 -25 -28 0 -92 25 -101 40 -3 5 -42 37
-86 70 -43 34 -91 73 -105 88 -48 51 -98 168 -111 261 -5 35 24 107 60 148 11
13 17 30 15 41 -4 16 5 25 44 43 53 25 102 26 128 5 24 -20 63 -27 56 -11 -3
8 0 17 6 21 12 8 29 -16 21 -29 -3 -5 7 -20 23 -32 16 -13 29 -29 29 -37 0
-24 44 -20 76 6 17 14 34 26 38 26 4 0 23 15 42 33 19 19 41 36 49 39 8 2 11
11 7 20 -8 21 -112 88 -155 100 -36 10 -72 40 -72 61 0 6 27 28 60 47 32 19
64 45 69 58 7 14 20 23 38 24 46 2 51 3 58 9 3 4 34 6 68 5 44 -1 68 -6 81
-18z m4098 -523 c3 -519 3 -520 26 -570 41 -88 95 -133 202 -165 l55 -16 0
-155 0 -154 -55 3 c-192 10 -390 141 -474 313 -70 144 -70 143 -69 734 l1 530
134 5 c73 3 143 3 155 0 l23 -5 2 -520z m-2522 467 c28 -14 38 -27 52 -67 24
-73 23 -85 -9 -85 -52 0 -75 -21 -105 -95 -30 -75 -34 -95 -18 -95 6 0 10 -7
10 -15 0 -8 -9 -15 -20 -15 -25 0 -26 -15 -3 -24 15 -6 15 -9 3 -16 -11 -7 -9
-13 11 -29 l24 -21 -24 -20 c-16 -14 -31 -18 -50 -14 -38 9 -49 23 -76 99 -44
121 -27 255 33 255 15 0 22 5 19 13 -2 6 -10 11 -16 10 -20 -5 -11 25 15 48
14 13 36 35 47 48 19 20 51 39 67 40 3 0 21 -8 40 -17z m842 -669 c0 -120 -1
-225 -3 -233 -2 -8 -3 -115 -1 -237 2 -217 1 -223 -18 -223 -11 0 -20 5 -20
11 0 8 -4 8 -13 0 -10 -8 -12 -25 -7 -63 7 -55 -1 -113 -19 -131 -17 -17 -13
-92 4 -107 18 -15 12 -41 -18 -74 -12 -13 -28 -31 -35 -40 -14 -18 -59 -21
-82 -6 -13 8 -12 10 4 10 13 0 16 5 12 16 -4 10 1 22 11 31 10 8 12 12 6 8
-19 -9 -10 41 15 94 25 51 27 70 11 105 -9 20 -8 32 5 60 11 23 17 62 17 113
0 42 6 86 12 98 6 11 11 23 12 27 0 10 15 23 26 23 5 0 9 5 8 10 -1 6 -5 9 -9
8 -21 -6 -27 139 -7 165 6 8 13 46 15 85 2 40 10 82 18 94 10 16 14 55 14 141
0 119 15 232 31 232 5 0 10 -98 11 -217z m-1990 -88 c1 -22 1 -86 0 -143 l-2
-103 -29 20 c-16 12 -35 21 -43 21 -12 0 -84 51 -119 85 -9 8 -21 15 -29 15
-9 0 -11 9 -6 31 3 17 6 43 6 58 l1 26 18 -22 c12 -14 27 -21 45 -19 17 2 35
-5 53 -22 l27 -25 12 34 12 34 1 -32 c1 -19 6 -33 14 -33 8 0 11 17 10 57 -1
32 1 61 4 66 10 16 22 -8 25 -48z m-839 -217 c3 -10 14 -18 25 -18 41 0 77
-32 109 -99 18 -37 48 -83 67 -104 41 -45 47 -91 32 -234 -9 -87 -11 -92 -35
-98 -14 -4 -29 -11 -32 -17 -10 -15 -56 -1 -77 22 -9 11 -23 20 -32 20 -8 0
-26 16 -40 34 -14 19 -28 32 -31 30 -3 -1 -20 9 -37 24 -17 15 -51 42 -76 61
-40 29 -46 38 -46 70 0 20 5 52 10 71 8 26 6 51 -6 100 -19 78 -13 124 21 160
l25 27 60 -16 c40 -10 60 -21 63 -33z m1117 5 c11 -10 20 -24 20 -31 0 -9 7
-12 20 -9 23 6 27 -11 5 -19 -8 -4 -15 -16 -15 -28 0 -40 -14 -47 -108 -53
l-92 -6 0 76 0 75 55 -4 c30 -3 63 0 73 5 22 13 19 14 42 -6z"/>
<path d="M6613 9773 c-20 -4 -23 -11 -23 -51 l0 -47 85 0 85 0 0 46 c0 40 -3
48 -22 53 -25 6 -90 6 -125 -1z"/>
<path d="M2960 6620 l0 -30 518 -2 517 -3 3 -193 c4 -232 2 -239 -80 -244
l-52 -3 -13 -54 c-8 -29 -11 -56 -8 -59 3 -3 29 -7 58 -9 99 -8 181 60 208
172 7 28 15 127 18 220 l6 170 73 3 72 3 0 29 0 30 -660 0 -660 0 0 -30z"/>
<path d="M2960 5920 l0 -141 113 3 112 3 3 28 3 27 -74 0 c-72 0 -75 1 -79 25
-3 13 -3 27 0 30 3 3 34 5 69 5 61 0 64 1 61 23 -3 20 -9 22 -64 25 -54 3 -63
6 -68 25 -7 28 4 33 66 31 73 -3 88 3 88 32 l0 24 -115 0 -115 0 0 -140z"/>
<path d="M3230 5456 l0 -134 33 -5 c17 -2 35 -3 40 0 4 2 7 32 7 66 l0 62 59
-65 c57 -64 60 -66 100 -62 l42 4 -47 50 -47 51 26 14 c31 16 44 54 31 92 -15
41 -66 61 -161 61 l-83 0 0 -134z"/>
<path d="M3560 5456 c0 -131 0 -134 23 -138 56 -10 57 -8 57 138 l0 134 -40 0
-40 0 0 -134z"/>
<path d="M2029 8231 c-48 -15 -68 -32 -95 -77 -23 -38 -26 -53 -21 -95 8 -63
17 -74 186 -244 l140 -139 73 -1 c86 0 116 16 148 81 46 93 28 132 -137 298
-180 182 -212 201 -294 177z"/>
<path d="M2255 7440 c-45 -20 -303 -278 -329 -328 -31 -60 -14 -145 39 -190
40 -36 81 -46 141 -37 42 6 57 18 198 158 131 131 154 159 165 198 16 57 8
101 -28 151 -39 55 -123 76 -186 48z"/>
<path d="M1745 4060 c-3 -5 -15 -10 -26 -10 -16 0 -42 -22 -85 -73 -18 -22
-25 -49 -18 -83 7 -36 29 -51 50 -33 8 6 21 9 29 5 8 -3 15 -1 15 4 0 6 -4 10
-9 10 -5 0 -12 12 -15 26 -8 32 9 61 57 94 40 27 56 70 26 70 -10 0 -21 -4
-24 -10z"/>
</g>
</svg>
