<?xml version="1.0" standalone="no"?>
<!DOCTYPE svg PUBLIC "-//W3C//DTD SVG 20010904//EN"
 "http://www.w3.org/TR/2001/REC-SVG-20010904/DTD/svg10.dtd">
<svg version="1.0" xmlns="http://www.w3.org/2000/svg"
 width="720.000000pt" height="1280.000000pt" viewBox="0 0 720.000000 1280.000000"
 preserveAspectRatio="xMidYMid meet">
<metadata>
Created by potrace 1.16, written by Peter Selinger 2001-2019
</metadata>
<g transform="translate(0.000000,1280.000000) scale(0.100000,-0.100000)"
fill="#000000" stroke="none">
<path d="M0 6400 l0 -6400 3600 0 3600 0 0 1899 0 1898 -1112 7 c-1044 6
-2125 22 -2175 32 -27 5 -30 30 -7 62 l15 22 -76 -5 c-113 -7 -125 -12 -125
-46 0 -16 5 -29 11 -29 8 0 8 -4 1 -13 -8 -10 -92 -12 -375 -11 -399 2 -545
14 -573 45 -9 11 -21 19 -26 19 -13 0 -38 26 -32 33 3 3 1 14 -5 26 -11 20
-44 38 -114 62 -34 12 -37 16 -32 39 4 14 7 26 8 26 1 1 20 11 42 22 22 11 47
28 56 38 15 17 14 20 -1 35 -9 9 -29 15 -44 14 -34 -1 -33 -3 -40 107 -5 81
-4 88 20 113 13 14 29 23 34 20 6 -3 10 2 10 13 0 29 10 32 47 17 20 -8 48
-15 63 -15 27 0 27 0 34 92 3 50 6 169 6 263 0 198 -7 185 100 185 59 0 68 2
66 18 -3 14 -13 17 -62 16 -32 -1 -95 -6 -139 -11 l-80 -10 55 -3 c30 -2 -17
-7 -105 -10 -240 -11 -1167 -11 -1161 -1 6 8 -84 26 -116 22 -9 -1 -51 7 -95
18 -43 10 -112 21 -153 24 l-75 5 65 -11 c48 -9 66 -17 68 -30 3 -15 -6 -17
-65 -18 -58 -2 -62 -3 -28 -8 48 -8 -709 -24 -915 -19 l-145 3 -3 101 -3 102
173 7 c95 3 380 5 633 2 371 -3 473 -6 528 -19 37 -9 70 -12 73 -7 3 5 0 9 -5
9 -6 0 -11 5 -11 11 0 6 7 9 15 5 8 -3 15 -1 15 4 0 6 -7 10 -15 10 -8 0 -15
6 -16 13 0 6 -2 35 -4 62 -8 139 -16 607 -10 638 7 34 10 37 44 38 l36 1 -33
8 c-38 9 -54 20 -29 20 22 0 22 16 0 25 -28 12 19 23 105 24 58 1 72 -2 72
-14 0 -8 -6 -15 -12 -15 -10 0 -9 -3 1 -9 7 -5 11 -13 7 -19 -3 -6 -2 -13 4
-17 6 -4 10 -138 10 -381 l0 -374 -75 0 c-41 0 -75 -3 -75 -8 0 -4 97 -8 215
-10 l215 -2 0 45 c0 24 -5 47 -11 51 -8 5 -10 -6 -7 -34 2 -29 -1 -43 -11 -47
-7 -3 -62 -2 -120 2 -58 4 -97 9 -86 11 24 5 45 22 27 22 -6 0 -19 14 -28 32
-14 26 -16 58 -12 200 3 167 4 168 30 195 16 16 44 29 70 34 40 7 39 7 -17 6
-66 -2 -83 5 -85 31 -12 204 -12 222 4 228 14 5 13 8 -5 23 -20 16 -20 19 -8
166 8 92 18 155 26 163 9 9 41 12 115 10 l103 -3 -3 -430 c-1 -308 1 -425 9
-412 6 11 10 107 11 260 0 133 3 287 6 342 l7 100 73 0 73 0 -1 -497 0 -498
92 1 c61 0 86 3 73 9 -19 8 -19 9 2 9 33 1 35 15 7 52 l-25 34 3 512 3 513
112 0 111 0 7 -112 c3 -62 5 -317 3 -567 l-3 -453 44 6 c24 3 106 6 182 6
l139 0 0 125 c0 114 -2 127 -22 150 -12 14 -28 23 -35 21 -8 -4 -13 12 -16 52
l-3 57 -2 -62 c-1 -35 -6 -63 -12 -63 -5 0 -10 7 -10 16 0 8 -4 13 -9 9 -6 -3
-12 14 -16 37 -8 58 0 472 10 487 4 8 18 11 35 8 15 -3 32 -1 39 6 8 8 11 8
11 -1 0 -7 7 -12 15 -12 13 0 15 34 15 246 l0 246 -342 -6 c-323 -7 -346 -6
-396 12 -29 10 -58 24 -65 31 -18 18 -27 13 -27 -14 l0 -25 -342 -2 c-189 -1
-365 -2 -393 -2 -27 1 -308 2 -622 3 l-573 1 0 35 c0 27 4 34 22 37 29 4 35
28 10 35 -15 3 -22 16 -26 41 -8 58 -11 347 -8 890 2 438 4 502 17 502 12 0
15 -17 15 -90 0 -53 4 -90 10 -90 6 0 10 30 10 69 0 38 7 88 15 111 11 32 15
90 15 241 l0 199 23 0 c20 0 24 8 35 65 6 35 12 74 12 85 0 11 5 20 10 20 6 0
10 37 10 90 0 73 3 90 15 90 8 0 15 7 15 15 0 9 9 15 23 15 31 0 53 26 61 73
4 20 10 37 15 37 4 0 21 32 36 71 35 85 62 117 118 135 24 9 22 34 -3 34 -11
0 -20 7 -20 15 0 12 -14 15 -62 17 -287 9 1203 15 3755 17 l3047 1 0 1775 0
1775 -3600 0 -3600 0 0 -6400z m6786 3682 c159 -63 211 -265 105 -407 -25 -34
-27 -41 -14 -50 24 -18 0 -52 -48 -67 -33 -9 -47 -9 -72 2 -36 16 -116 15
-165 -1 -47 -15 -97 -4 -117 27 -13 20 -14 28 -4 40 10 12 8 19 -9 37 -37 39
-62 108 -62 171 0 78 16 128 58 176 79 93 205 120 328 72z m-643 2 c52 -18
116 -76 142 -130 60 -126 7 -282 -117 -344 -139 -69 -312 -20 -376 106 -42 84
-38 184 12 267 25 41 43 58 94 84 54 28 75 33 131 33 37 0 88 -7 114 -16z
m-5806 -224 c52 -224 51 -200 11 -200 -31 0 -36 4 -41 30 -6 27 -11 30 -42 30
-19 0 -38 0 -42 1 -4 0 -11 -14 -16 -30 -7 -27 -12 -31 -41 -31 l-34 0 14 58
c7 31 26 110 41 175 l27 118 44 -3 45 -3 34 -145z m373 58 l1 -93 30 38 c23
27 39 37 60 37 16 0 29 -3 29 -6 0 -4 -16 -28 -35 -54 l-34 -47 28 -45 c56
-89 56 -88 17 -88 -30 0 -38 5 -57 40 -26 45 -39 43 -39 -6 0 -31 -2 -34 -30
-34 l-30 0 0 175 0 175 30 0 30 0 0 -92z m1740 -83 l0 -176 -42 1 c-24 1 -54
-1 -68 -5 -43 -11 -77 25 -85 88 -7 58 7 128 30 147 17 14 51 17 83 6 21 -7
22 -5 22 53 l0 61 30 0 30 0 0 -175z m452 83 l3 -92 25 37 c20 30 31 37 58 37
30 0 42 -12 24 -24 -5 -3 -21 -23 -36 -44 l-27 -40 40 -66 41 -66 -35 0 c-30
0 -39 6 -62 43 l-28 42 -3 -42 c-3 -42 -4 -43 -38 -43 l-34 0 0 168 c0 93 3
172 7 175 3 4 19 7 34 7 l28 0 3 -92z m728 27 l0 -66 30 16 c33 17 60 13 85
-11 11 -12 15 -40 15 -120 l0 -104 -30 0 -29 0 -3 92 c-3 83 -5 93 -22 96 -33
7 -46 -25 -46 -110 l0 -78 -30 0 -30 0 0 175 0 175 30 0 30 0 0 -65z m530 4
c0 -58 1 -60 23 -53 76 26 107 -8 107 -118 0 -71 -2 -81 -26 -105 -20 -20 -31
-24 -52 -18 -15 4 -46 6 -69 5 l-43 -1 0 176 0 175 30 0 30 0 0 -61z m-1480
-9 c0 -38 2 -40 30 -40 25 0 30 -4 30 -25 0 -21 -5 -25 -30 -25 l-31 0 3 -67
c3 -66 4 -68 31 -71 21 -3 27 -8 23 -19 -3 -8 -6 -19 -6 -24 0 -16 -73 -10
-92 8 -14 13 -18 31 -18 90 0 66 -2 75 -20 80 -13 3 -20 14 -20 29 0 17 6 24
20 24 17 0 20 7 20 40 0 38 2 40 30 40 28 0 30 -2 30 -40z m-2096 -61 c24 -23
34 -121 17 -172 -15 -44 -59 -66 -97 -48 -14 6 -27 11 -29 11 -3 0 -5 -30 -5
-66 l0 -65 -27 3 -28 3 -3 179 -2 179 37 -5 c21 -3 47 -2 58 3 26 10 55 2 79
-22z m402 21 c8 0 23 -9 34 -20 17 -17 20 -33 20 -121 l0 -101 -32 3 c-18 1
-48 -1 -66 -5 -50 -12 -82 13 -82 64 0 44 20 64 83 81 28 7 37 15 35 27 -5 26
-48 28 -55 3 -6 -25 -51 -29 -60 -5 -13 34 56 90 95 78 8 -2 20 -4 28 -4z
m290 0 c39 -15 53 -39 54 -87 l0 -43 -61 0 c-60 0 -60 0 -57 -27 3 -32 44 -46
54 -19 4 10 18 16 35 16 35 0 39 -25 10 -61 -27 -34 -99 -34 -135 0 -23 22
-26 32 -26 96 0 79 20 120 63 128 12 2 25 5 29 6 4 0 19 -4 34 -9z m201 -1
c32 -12 43 -26 43 -56 0 -31 -45 -33 -53 -3 -7 26 -47 27 -47 1 0 -12 12 -23
33 -31 74 -30 97 -83 58 -131 -40 -50 -151 -22 -151 38 0 31 42 32 62 1 9 -14
20 -19 31 -15 31 12 18 37 -28 57 -75 32 -87 107 -22 135 39 17 39 17 74 4z
m197 -3 c31 -13 53 -55 38 -71 -14 -14 -50 -3 -55 16 -4 13 -12 20 -24 17 -29
-5 -21 -32 15 -50 73 -36 92 -81 53 -129 -15 -19 -29 -24 -66 -24 -37 0 -51 5
-66 24 -29 36 -25 61 10 61 21 0 30 -6 34 -21 7 -25 40 -22 45 3 2 12 -11 24
-43 39 -74 35 -85 107 -21 135 39 17 40 17 80 0z m205 3 c17 -6 36 -19 41 -29
6 -10 10 -62 10 -115 l0 -97 -32 3 c-18 1 -48 -1 -66 -5 -50 -12 -82 13 -82
64 0 44 20 64 83 81 28 7 37 15 35 27 -5 25 -45 27 -58 3 -11 -22 -44 -28 -55
-10 -13 21 5 57 37 72 40 20 46 20 87 6z m319 -22 c16 -15 22 -32 22 -64 l0
-43 -61 0 c-60 0 -60 0 -57 -27 3 -32 44 -46 54 -19 9 23 64 21 64 -2 0 -69
-107 -94 -163 -37 -23 23 -24 151 -1 183 32 46 97 50 142 9z m1000 -3 c18 -21
22 -36 22 -98 0 -58 -4 -76 -20 -94 -43 -45 -130 -36 -157 18 -16 32 -17 121
-1 156 26 56 112 66 156 18z m240 8 c8 -10 12 -52 12 -119 l0 -103 -30 0 -30
0 0 90 c0 99 -12 119 -50 85 -17 -15 -20 -31 -20 -97 l0 -78 -30 0 -30 0 0
120 0 120 29 0 c16 0 31 -5 33 -11 2 -6 14 -5 33 5 33 17 63 13 83 -12z m530
-8 c15 -17 22 -38 22 -65 l0 -39 -61 0 c-60 0 -60 0 -57 -27 3 -32 44 -46 54
-19 4 10 18 16 35 16 35 0 40 -29 9 -60 -27 -27 -63 -34 -105 -20 -46 15 -55
34 -55 123 0 64 3 76 23 94 12 11 29 23 37 26 28 11 75 -3 98 -29z m539 12 c7
-6 13 -53 15 -116 l3 -105 -32 -3 -33 -3 0 91 c0 72 -3 92 -15 96 -33 13 -45
-15 -45 -102 l0 -84 -35 0 -35 0 0 120 0 120 35 0 c19 0 35 -4 35 -9 0 -6 12
-3 28 4 28 15 58 12 79 -9z m221 -12 c19 -22 22 -36 22 -120 l0 -95 -42 1
c-24 1 -54 -1 -68 -5 -35 -9 -80 27 -80 64 0 39 19 60 70 75 33 10 46 19 48
35 4 28 -31 29 -51 0 -22 -30 -63 -23 -59 11 10 70 109 91 160 34z m391 25
c36 -13 61 -53 61 -99 l0 -30 -59 0 c-65 0 -73 -5 -64 -38 6 -26 53 -32 53 -7
0 11 11 15 36 15 32 0 35 -2 29 -22 -13 -43 -42 -63 -90 -63 -64 0 -87 27 -93
105 -5 75 11 118 52 136 38 16 36 16 75 3z m204 -3 c15 -8 27 -11 27 -5 0 5
14 9 30 9 l30 0 0 -149 c0 -134 -2 -151 -20 -174 -41 -52 -147 -44 -170 13 -7
16 -9 34 -5 39 10 18 44 12 57 -9 26 -41 78 -15 78 40 0 17 -3 19 -19 10 -36
-19 -78 -12 -100 16 -16 21 -21 41 -21 90 0 72 13 107 44 122 29 14 37 14 69
-2z m285 -22 c19 -22 22 -36 22 -120 l0 -95 -42 1 c-24 1 -54 -1 -68 -5 -34
-9 -80 27 -80 61 0 42 17 62 70 79 37 12 50 22 50 36 0 26 -36 25 -50 -1 -11
-20 -54 -28 -64 -12 -10 16 29 76 54 84 40 11 83 0 108 -28z m-3048 -94 l0
-120 -35 0 -35 0 0 113 c0 63 3 117 7 120 3 4 19 7 35 7 l28 0 0 -120z m2280
63 c19 -91 25 -93 45 -14 17 70 18 71 50 71 l33 0 -24 -82 c-79 -281 -76 -273
-113 -276 -28 -3 -33 -1 -27 14 29 76 29 101 -4 209 -17 59 -34 113 -37 121
-4 10 4 14 29 14 34 0 35 -1 48 -57z m-3253 -3725 l2 -98 -89 0 c-75 0 -88 2
-84 15 4 8 16 16 28 16 15 1 12 3 -9 8 -25 5 -31 12 -36 46 -4 22 -5 46 -4 55
2 8 4 21 4 28 2 21 42 31 116 29 l70 -2 2 -97z m-1219 -498 c4 -371 0 -440
-23 -440 -7 0 -15 5 -17 10 -2 6 -30 15 -63 20 -106 15 -112 20 -120 93 -4 36
-3 110 2 165 8 84 14 105 36 134 30 39 35 89 12 108 -18 15 -11 30 13 30 23 0
46 56 26 64 -19 7 -17 26 4 32 53 17 72 28 72 39 0 8 -6 16 -12 18 -10 4 -9 8
2 16 12 8 9 14 -15 33 l-29 23 29 6 c17 4 41 6 55 6 l25 -2 3 -355z m192 -75
l0 -355 -30 0 c-23 0 -33 7 -45 30 -9 17 -21 30 -28 30 -7 0 -19 10 -27 23
-12 17 -16 72 -18 269 -3 216 -2 249 12 254 11 4 13 12 6 28 -4 12 -6 34 -3
49 5 26 8 27 69 27 l64 0 0 -355z m1596 -770 c3 -25 3 -65 -1 -90 l-6 -46
-122 3 -122 3 0 75 c0 68 2 75 20 76 42 2 49 7 20 14 -19 5 11 8 87 9 l117 1
7 -45z m212 -122 l-3 -168 -65 -3 c-36 -2 -80 0 -97 3 l-33 6 0 149 c0 90 4
151 10 155 6 4 8 11 5 16 -4 5 33 9 90 9 l95 0 -2 -167z m162 -255 c0 -128 -4
-239 -9 -246 -6 -11 -24 -12 -77 -5 l-69 8 2 135 c1 74 4 181 8 238 l7 102 69
0 69 0 0 -232z m-418 92 l28 0 -1 -147 c-1 -82 -4 -159 -8 -173 l-7 -25 -115
3 c-63 2 -120 5 -126 7 -14 5 -18 165 -7 273 8 71 11 73 133 66 41 -2 87 -4
103 -4z m242 -251 c-1 -102 1 -100 -106 -97 l-93 3 -3 69 c-2 38 -1 75 2 83 4
11 27 13 103 11 l98 -3 -1 -66z m-2011 -487 c5 -52 6 -100 3 -108 -5 -12 -26
-14 -103 -12 l-98 3 0 49 c0 31 5 51 13 54 8 2 12 -7 12 -26 0 -26 4 -31 34
-36 49 -9 62 -1 65 46 3 53 -19 77 -73 80 -23 1 -3 5 44 8 l85 6 -82 2 c-46 1
-83 6 -83 11 0 15 29 19 105 18 l70 -2 8 -93z m1584 -4 c16 -21 24 -146 10
-152 -8 -3 -9 -7 -2 -13 6 -4 11 -38 10 -75 0 -38 4 -69 10 -70 6 0 -19 -4
-55 -7 -61 -6 -100 -1 -142 20 -24 12 -28 11 -28 -7 0 -15 -10 -16 -86 -10
-60 5 -84 4 -79 -3 4 -8 -226 -11 -769 -11 l-776 0 0 80 0 80 588 1 c323 0
733 2 912 5 179 2 334 5 345 4 12 0 16 3 9 8 -13 7 -18 49 -15 120 1 39 3 42
30 42 16 0 33 -6 38 -12z m5189 -133 c24 -7 33 -270 37 -1107 l2 -457 -210 2
-210 2 -3 40 c-1 22 2 171 8 330 9 226 15 297 27 324 13 26 14 39 5 65 -6 17
-14 47 -17 67 -9 48 21 79 100 105 46 15 54 20 35 22 -14 2 -29 8 -34 13 -6 5
-22 9 -36 9 -46 0 -81 84 -53 127 13 19 15 42 9 120 -4 52 -3 100 2 107 19 24
21 63 5 112 -17 56 -12 104 12 104 8 0 15 4 15 9 0 5 10 11 23 14 24 4 265 -3
283 -8z m-4333 -212 c9 -52 10 -480 2 -493 -7 -11 -144 -14 -194 -4 -47 10
-59 43 -72 206 -15 189 -9 271 21 303 22 24 30 25 130 25 l107 0 6 -37z
m-1018 -713 c0 -357 4 -551 10 -554 6 -2 5 -9 -2 -17 -21 -21 -15 -35 15 -33
15 1 41 3 57 4 29 2 29 2 5 9 -22 6 -23 8 -7 14 10 4 30 7 43 7 13 0 24 5 24
10 0 15 49 12 66 -4 11 -11 11 -16 1 -19 -9 -4 -9 -8 2 -15 12 -8 12 -14 3
-25 -10 -12 -156 -14 -987 -15 l-975 -1 0 42 0 42 408 -3 c224 -2 479 -4 567
-5 88 0 228 3 310 8 l150 8 2 345 c1 271 5 347 15 353 12 7 78 18 136 22 21 1
22 5 20 67 0 36 -3 50 -5 33 l-4 -33 -81 0 -81 0 6 118 c4 64 7 129 7 145 l0
27 74 0 75 0 4 -52 3 -53 2 63 2 62 68 0 67 0 0 -550z m325 27 c0 -7 9 -18 19
-24 16 -10 22 -8 36 7 16 18 19 18 41 3 23 -14 24 -20 20 -97 -2 -44 -5 -107
-5 -139 -1 -68 -16 -79 -60 -48 -22 16 -31 18 -35 9 -5 -11 -7 -11 -12 0 -3 6
-9 10 -13 8 -4 -3 -9 0 -10 7 -6 27 -12 271 -7 284 7 16 26 8 26 -10z m3682
-130 c-3 -76 -1 -97 10 -97 10 0 9 -3 -2 -10 -10 -6 -11 -10 -2 -10 6 0 12 -7
12 -16 0 -24 -102 -15 -130 11 l-21 19 23 18 c13 10 29 18 36 18 20 0 50 32
34 38 -6 2 -12 12 -12 23 0 10 -5 19 -12 19 -18 0 -48 31 -48 51 0 11 9 21 23
23 12 3 31 7 42 10 49 10 50 7 47 -97z m-2971 -124 c1 -5 3 -99 4 -211 l1
-203 -150 3 -151 3 -3 166 c-3 184 8 234 50 242 40 8 248 7 249 0z m2991 -330
l4 -73 -72 0 -71 0 4 53 c3 28 10 64 16 79 10 24 18 27 62 30 28 2 51 -1 52
-7 1 -5 3 -43 5 -82z"/>
<path d="M6613 9773 c-20 -4 -23 -11 -23 -51 l0 -47 85 0 85 0 0 46 c0 40 -3
48 -22 53 -25 6 -90 6 -125 -1z"/>
<path d="M3572 6603 c-22 -57 -93 -316 -89 -327 6 -19 33 43 66 153 17 57 33
106 35 109 3 2 8 -13 11 -34 3 -22 13 -58 21 -81 13 -36 20 -43 42 -43 36 0
42 5 91 78 24 35 44 62 46 60 2 -2 -1 -40 -6 -85 -13 -107 -9 -167 12 -171 14
-2 17 18 23 149 4 83 5 154 2 156 -15 15 -54 -19 -102 -88 -31 -44 -61 -78
-68 -76 -18 6 -34 77 -35 155 -1 63 -3 72 -20 72 -11 0 -23 -11 -29 -27z"/>
<path d="M4432 6378 l3 -93 45 3 c69 6 102 48 65 86 -8 8 -15 27 -15 43 0 39
-17 53 -62 53 l-39 0 3 -92z"/>
<path d="M4580 6382 c0 -49 3 -91 6 -95 15 -14 34 8 34 39 0 32 2 34 35 34 33
0 35 -2 35 -34 0 -31 19 -53 34 -39 3 4 6 46 6 95 0 81 -2 88 -20 88 -16 0
-20 -7 -20 -35 0 -33 -2 -35 -35 -35 -33 0 -35 2 -35 35 0 28 -4 35 -20 35
-18 0 -20 -7 -20 -88z"/>
<path d="M4790 6386 c-27 -56 -38 -92 -32 -98 6 -6 15 -4 25 6 21 22 86 21
103 -1 9 -13 16 -15 23 -7 8 7 -2 36 -33 100 l-44 89 -42 -89z"/>
<path d="M5080 6380 c0 -83 1 -90 20 -90 16 0 20 7 20 35 0 33 2 35 35 35 33
0 35 -2 35 -35 0 -28 4 -35 20 -35 19 0 20 7 20 90 0 83 -1 90 -20 90 -16 0
-20 -7 -20 -35 0 -33 -2 -35 -35 -35 -33 0 -35 2 -35 35 0 28 -4 35 -20 35
-19 0 -20 -7 -20 -90z"/>
<path d="M5290 6386 c-27 -56 -38 -92 -32 -98 6 -6 15 -4 25 6 20 20 75 21 96
2 9 -8 22 -12 29 -7 9 5 0 31 -32 97 l-44 89 -42 -89z"/>
<path d="M3893 6380 c-25 -15 -33 -27 -33 -49 0 -45 18 -52 123 -50 l95 2 6
37 c9 55 27 66 57 34 20 -21 31 -25 68 -22 41 3 46 1 51 -21 3 -14 11 -26 18
-29 8 -2 12 13 12 52 0 43 -3 56 -15 56 -8 0 -15 -6 -15 -14 0 -17 -5 -21 -43
-30 -23 -6 -33 -1 -56 23 -22 24 -36 30 -62 28 -41 -2 -49 -11 -49 -58 l0 -36
-66 -7 c-71 -7 -94 1 -94 35 0 13 7 19 23 19 25 0 67 26 67 41 0 16 -54 10
-87 -11z"/>
</g>
</svg>
