<?xml version="1.0" standalone="no"?>
<!DOCTYPE svg PUBLIC "-//W3C//DTD SVG 20010904//EN"
 "http://www.w3.org/TR/2001/REC-SVG-20010904/DTD/svg10.dtd">
<svg version="1.0" xmlns="http://www.w3.org/2000/svg"
 width="720.000000pt" height="1280.000000pt" viewBox="0 0 720.000000 1280.000000"
 preserveAspectRatio="xMidYMid meet">
<metadata>
Created by potrace 1.16, written by Peter Selinger 2001-2019
</metadata>
<g transform="translate(0.000000,1280.000000) scale(0.100000,-0.100000)"
fill="#000000" stroke="none">
<path d="M0 6400 l0 -6400 3600 0 3600 0 0 1025 0 1025 -3590 0 -3590 0 0
3070 0 3070 25 0 c14 0 33 4 43 10 38 21 725 214 1017 285 314 76 523 121 780
168 272 51 371 66 530 83 246 26 326 31 505 33 142 1 238 -3 310 -14 293 -43
454 -145 419 -267 -12 -43 -71 -116 -134 -165 -61 -48 -194 -143 -199 -143 -3
0 -40 -22 -83 -48 -98 -61 -240 -136 -773 -404 -518 -262 -686 -360 -857 -501
-88 -72 -133 -125 -176 -209 -28 -54 -32 -72 -31 -133 1 -42 8 -86 19 -109 19
-45 124 -154 170 -178 17 -8 44 -23 60 -32 27 -14 84 -16 495 -16 256 0 488 3
516 6 l51 6 -5 77 c-2 42 -7 79 -11 83 -3 4 -38 1 -76 -7 -276 -55 -612 -73
-772 -40 -188 39 -308 137 -289 236 14 75 134 193 317 314 147 97 309 184 739
400 638 320 859 447 1011 582 120 105 172 180 188 269 13 77 2 133 -40 195
-84 124 -250 203 -509 240 -254 37 -671 18 -1120 -51 -519 -79 -1269 -256
-1900 -446 -30 -9 -92 -27 -138 -40 l-82 -23 0 450 0 449 3590 0 3590 0 0
1775 0 1775 -3600 0 -3600 0 0 -6400z m6797 3678 c152 -71 198 -271 93 -403
-27 -34 -28 -39 -14 -50 15 -11 15 -14 0 -37 -27 -41 -84 -49 -143 -21 -31 14
-42 15 -87 3 -28 -7 -73 -13 -100 -14 -42 -1 -51 3 -72 29 -22 28 -23 31 -7
42 15 12 15 15 -5 35 -55 60 -78 178 -50 269 23 77 103 146 195 168 51 13 139
3 190 -21z m-654 6 c53 -18 116 -76 143 -132 27 -55 25 -174 -3 -227 -50 -93
-120 -136 -233 -143 -63 -4 -85 -1 -128 18 -148 64 -203 241 -118 382 25 42
43 59 94 85 54 28 75 33 131 33 37 0 88 -7 114 -16z m-5802 -239 c21 -88 38
-166 38 -172 1 -8 -12 -13 -32 -13 -28 0 -34 4 -42 32 -9 29 -14 32 -50 31
-36 0 -40 -3 -47 -31 -8 -28 -13 -32 -42 -32 l-34 0 14 58 c7 31 26 110 41
175 l27 118 44 -3 45 -3 38 -160z m369 73 l1 -93 30 38 c23 27 39 37 60 37 16
0 29 -3 29 -6 0 -4 -16 -27 -35 -53 l-34 -47 21 -35 c11 -19 29 -49 40 -66
l20 -33 -36 0 c-30 0 -38 5 -57 40 -26 45 -39 43 -39 -6 0 -31 -2 -34 -30 -34
l-30 0 0 175 0 175 30 0 30 0 0 -92z m1740 -83 l0 -176 -42 1 c-24 1 -54 -1
-68 -5 -43 -11 -77 25 -85 88 -7 58 7 128 30 147 17 14 51 17 83 6 21 -7 22
-5 22 53 l0 61 30 0 30 0 0 -175z m452 83 l3 -92 25 37 c20 30 31 37 58 37 30
0 42 -12 24 -24 -5 -3 -21 -23 -36 -45 l-28 -39 34 -54 c19 -29 38 -59 42 -65
5 -10 -3 -13 -29 -13 -30 0 -39 5 -56 35 -27 45 -39 44 -39 -1 0 -34 -1 -35
-32 -32 l-33 3 -3 173 -2 172 34 0 35 0 3 -92z m728 28 l0 -64 29 14 c31 15
77 6 93 -19 4 -7 8 -58 8 -114 l0 -103 -30 0 -30 0 0 90 c0 75 -3 92 -16 97
-37 14 -49 -10 -52 -101 l-3 -86 -29 0 -30 0 0 175 0 175 30 0 30 0 0 -64z
m530 3 c0 -55 2 -60 18 -53 31 13 76 5 95 -17 13 -16 17 -40 17 -101 0 -71 -2
-81 -26 -105 -21 -21 -31 -24 -57 -18 -18 4 -49 6 -69 6 l-38 -2 0 176 0 175
30 0 30 0 0 -61z m-1480 -9 c0 -38 2 -40 30 -40 25 0 30 -4 30 -25 0 -21 -5
-25 -30 -25 l-31 0 3 -67 c3 -66 4 -68 31 -71 28 -3 31 -9 21 -36 -4 -11 -19
-16 -45 -16 -54 0 -69 25 -69 117 0 66 -2 73 -20 73 -15 0 -20 7 -20 25 0 18
5 25 20 25 17 0 20 7 20 40 0 38 2 40 30 40 28 0 30 -2 30 -40z m-2096 -61
c24 -23 34 -121 17 -172 -15 -44 -59 -66 -97 -48 -14 6 -27 11 -29 11 -3 0 -5
-30 -5 -66 l0 -65 -27 3 -28 3 -3 179 -2 179 38 -6 c22 -2 46 -1 53 4 19 11
60 1 83 -22z m405 20 c17 -6 36 -19 41 -29 6 -10 10 -62 10 -115 l0 -97 -32 3
c-18 1 -48 -1 -66 -5 -50 -12 -82 13 -82 64 0 44 20 64 83 81 28 7 37 15 35
27 -5 26 -48 28 -55 3 -6 -25 -51 -29 -60 -5 -8 21 28 67 58 75 35 10 33 10
68 -2z m290 0 c38 -14 51 -35 51 -88 l0 -41 -61 0 c-60 0 -60 0 -57 -27 3 -32
44 -46 54 -19 9 23 64 21 64 -2 0 -51 -67 -84 -124 -62 -45 17 -55 38 -56 116
0 78 20 119 63 127 12 2 25 5 28 6 3 0 20 -4 38 -10z m198 0 c32 -12 43 -26
43 -56 0 -31 -45 -33 -53 -3 -7 26 -47 27 -47 1 0 -11 12 -23 30 -31 78 -32
101 -82 61 -131 -15 -19 -29 -24 -66 -24 -37 0 -51 5 -66 24 -28 34 -25 61 7
61 18 0 28 -6 31 -21 7 -25 46 -22 51 4 3 12 -9 23 -42 37 -76 32 -89 107 -23
135 39 17 39 17 74 4z m197 -3 c31 -13 53 -55 38 -71 -14 -14 -50 -3 -55 16
-4 13 -12 20 -24 17 -29 -5 -21 -32 15 -50 73 -36 92 -81 53 -129 -15 -19 -29
-24 -66 -24 -37 0 -51 5 -66 24 -29 36 -25 61 10 61 20 0 30 -6 34 -20 7 -28
47 -27 47 0 0 15 -13 26 -45 40 -73 31 -85 108 -21 136 39 17 40 17 80 0z
m205 3 c17 -6 36 -19 41 -29 6 -10 10 -62 10 -115 l0 -97 -32 3 c-18 1 -48 -1
-66 -5 -50 -12 -82 13 -82 64 0 44 20 64 83 81 28 7 37 15 35 27 -5 25 -45 27
-58 3 -13 -24 -60 -29 -60 -6 0 32 25 66 54 74 42 12 39 12 75 0z m319 -22
c16 -15 22 -32 22 -64 l0 -43 -61 0 c-60 0 -60 0 -57 -27 3 -32 44 -46 54 -19
8 20 64 22 64 2 0 -69 -102 -98 -158 -45 -19 17 -22 31 -22 98 0 68 3 80 23
98 12 11 29 23 37 26 25 9 73 -4 98 -26z m1000 -3 c18 -21 22 -37 22 -89 0
-77 -13 -110 -50 -125 -35 -15 -93 -4 -116 21 -23 26 -31 128 -13 170 24 60
111 73 157 23z m232 16 c17 -17 20 -33 20 -125 l0 -105 -30 0 -30 0 0 90 c0
75 -3 92 -17 97 -32 12 -53 -32 -53 -113 l0 -74 -30 0 -30 0 0 120 0 120 29 0
c16 0 31 -5 33 -11 2 -6 14 -5 33 5 39 21 51 20 75 -4z m538 -13 c16 -15 22
-32 22 -64 l0 -43 -61 0 c-60 0 -60 0 -57 -27 3 -32 44 -46 54 -19 4 10 18 16
35 16 35 0 40 -29 9 -60 -27 -27 -63 -34 -105 -20 -46 15 -55 34 -55 123 0 64
3 76 23 94 12 11 29 23 37 26 25 8 74 -5 98 -26z m530 16 c18 -16 21 -32 24
-123 l3 -105 -32 -3 -33 -3 0 91 c0 72 -3 92 -15 96 -33 13 -45 -15 -45 -102
l0 -84 -35 0 -35 0 0 120 0 120 35 0 c19 0 35 -5 35 -11 0 -5 10 -3 22 5 29
21 51 20 76 -1z m227 -14 c17 -16 21 -35 23 -120 l4 -100 -44 1 c-23 1 -54 -1
-68 -5 -34 -9 -80 27 -80 61 0 42 17 62 70 79 37 12 50 22 50 36 0 26 -36 25
-52 -1 -13 -20 -52 -27 -62 -12 -10 17 29 76 54 83 36 10 82 0 105 -22z m394
20 c36 -13 61 -53 61 -99 l0 -30 -59 0 c-65 0 -73 -5 -64 -38 6 -26 48 -31 57
-7 3 9 18 15 36 15 28 0 31 -3 25 -22 -4 -13 -18 -34 -33 -47 -21 -19 -33 -22
-66 -18 -61 8 -86 43 -86 117 0 73 16 109 55 126 37 16 35 16 74 3z m204 -3
c15 -8 27 -11 27 -5 0 5 14 9 31 9 l30 0 -3 -154 c-3 -134 -5 -157 -22 -175
-42 -46 -144 -35 -166 19 -7 16 -9 34 -5 39 10 18 44 12 57 -9 27 -42 78 -15
78 41 0 18 -3 20 -12 11 -7 -7 -29 -12 -49 -12 -56 0 -79 34 -79 116 0 72 13
107 44 122 29 14 37 14 69 -2z m282 -17 c17 -16 21 -36 23 -120 l4 -100 -44 1
c-23 1 -54 -1 -68 -5 -36 -9 -80 27 -80 66 0 28 30 69 50 69 6 0 26 7 45 14
25 11 33 19 29 30 -9 22 -41 20 -56 -4 -18 -29 -58 -27 -58 3 0 68 101 98 155
46z m-3045 -99 l0 -120 -35 0 -35 0 0 113 c0 63 3 117 7 120 3 4 19 7 35 7
l28 0 0 -120z m2280 63 c19 -90 25 -92 45 -14 18 68 20 71 48 71 28 0 29 -2
23 -33 -3 -19 -25 -99 -49 -178 l-42 -144 -34 -3 c-28 -3 -32 -1 -28 15 31
106 31 95 -3 209 -18 60 -35 115 -38 122 -3 8 7 12 30 12 34 0 35 -1 48 -57z"/>
<path d="M6613 9773 c-20 -4 -23 -11 -23 -51 l0 -47 85 0 85 0 0 46 c0 40 -3
48 -22 53 -25 6 -90 6 -125 -1z"/>
<path d="M5230 7369 c-185 -26 -301 -49 -505 -99 -31 -8 -533 -144 -617 -167
-23 -7 -23 -16 3 -39 12 -10 32 -38 46 -61 14 -24 28 -43 32 -43 4 0 60 15
126 34 296 85 630 166 835 203 135 23 331 23 392 0 40 -16 49 -24 57 -55 17
-59 -2 -118 -65 -207 -72 -102 -191 -202 -373 -315 -56 -34 -101 -64 -101 -66
0 -2 65 -4 143 -4 l144 0 74 55 c252 187 375 394 339 569 -10 47 -20 67 -58
106 -69 70 -135 92 -287 96 -66 1 -149 -2 -185 -7z"/>
<path d="M2970 6876 l0 -86 36 0 c64 0 93 35 65 79 -6 9 -5 21 2 33 20 30 -3
53 -57 56 l-46 3 0 -85z"/>
<path d="M3582 6878 c3 -78 4 -83 26 -86 61 -9 110 46 96 107 -11 44 -33 61
-81 61 l-44 0 3 -82z"/>
<path d="M3217 6674 c-4 -4 -7 -45 -7 -91 l0 -83 40 0 c47 0 86 31 74 58 -4 9
-7 36 -6 59 1 23 -1 44 -5 46 -16 10 -89 18 -96 11z"/>
<path d="M1215 6360 c18 -20 18 -21 -1 -14 -10 4 -21 11 -25 16 -3 4 -5 -10
-4 -32 0 -22 6 -45 13 -52 8 -8 9 -15 1 -25 -9 -10 -8 -17 2 -30 8 -10 9 -14
2 -10 -19 12 -26 -12 -8 -29 12 -13 13 -19 4 -30 -7 -8 -9 -17 -6 -21 4 -3 2
-12 -4 -20 -9 -10 -8 -18 6 -33 10 -11 13 -20 7 -20 -6 0 -12 5 -14 12 -2 6
-4 -7 -3 -29 0 -23 7 -48 14 -57 8 -9 11 -20 7 -23 -4 -4 -10 -2 -15 5 -4 6
-7 -6 -6 -27 0 -21 7 -46 13 -54 9 -10 10 -17 2 -22 -5 -3 -10 -1 -10 6 0 7
-3 10 -6 7 -3 -4 -1 -15 5 -26 7 -13 7 -22 -1 -30 -8 -8 -8 -15 1 -26 9 -11
10 -24 2 -52 -9 -32 -8 -41 7 -58 11 -13 12 -17 2 -9 -13 10 -15 5 -15 -33 0
-24 3 -44 6 -44 4 0 10 -7 13 -16 4 -11 2 -15 -6 -11 -14 5 -19 -59 -6 -79 4
-6 3 -26 -2 -45 -8 -25 -7 -37 4 -47 12 -12 12 -19 -1 -49 -13 -31 -12 -37 1
-52 13 -14 13 -20 3 -30 -9 -10 -6 -17 17 -37 15 -14 26 -27 23 -30 -3 -3 -14
4 -25 16 -13 14 -22 18 -27 10 -4 -6 5 -22 19 -35 27 -25 37 -46 12 -26 -16
13 -32 -2 -21 -19 3 -5 1 -10 -4 -10 -16 0 -13 -19 4 -37 11 -10 13 -19 6 -27
-7 -9 -7 -16 1 -24 9 -9 8 -12 -5 -12 -21 0 -21 -8 0 -32 9 -10 13 -21 9 -25
-4 -4 -11 -1 -16 7 -6 8 -10 10 -10 5 0 -6 8 -21 17 -34 9 -14 11 -21 5 -17
-7 4 -15 1 -18 -8 -8 -21 22 -50 43 -42 9 4 20 1 24 -5 4 -8 9 -4 14 10 4 13
12 20 20 18 7 -3 18 0 24 6 10 9 16 8 26 -7 8 -10 19 -15 25 -11 8 5 6 13 -6
26 -9 11 -14 22 -11 26 4 3 7 1 7 -5 0 -7 7 -12 15 -12 20 0 19 13 -3 33 -23
21 -32 21 -32 2 0 -13 -2 -14 -14 -3 -12 11 -12 13 0 16 19 5 18 16 -6 37 -11
10 -18 20 -16 23 3 2 16 -8 29 -22 23 -25 47 -34 47 -19 0 4 -14 22 -32 40
-18 18 -28 33 -22 33 5 0 16 -9 24 -20 15 -21 40 -27 40 -11 0 5 -11 18 -25
29 -14 11 -25 25 -25 32 0 6 16 -5 35 -25 19 -20 39 -34 45 -30 7 4 -8 25 -37
54 -53 52 -78 81 -71 81 3 0 34 -29 70 -65 36 -36 69 -65 72 -65 19 0 -1 30
-54 82 -33 32 -60 62 -60 67 0 5 43 -34 94 -85 84 -84 116 -107 116 -88 0 3
-26 32 -57 63 -32 32 -69 71 -83 87 l-25 29 35 -30 c18 -16 42 -40 53 -52 10
-13 23 -23 28 -23 18 0 8 24 -23 55 -18 18 -42 43 -53 56 -20 24 -20 24 9 -1
17 -14 46 -42 67 -63 22 -23 40 -34 44 -27 3 5 -12 28 -34 51 -23 22 -41 42
-41 46 0 8 30 -17 56 -47 12 -14 26 -22 30 -17 4 4 -3 18 -16 32 -13 14 -18
25 -12 25 7 0 12 -4 12 -10 0 -5 7 -10 15 -10 21 0 19 12 -5 38 -17 18 -18 22
-5 22 21 0 19 13 -5 35 -11 10 -18 20 -16 22 2 2 21 -12 41 -32 21 -19 42 -35
46 -35 18 0 8 19 -23 47 -37 32 -63 63 -55 63 3 0 29 -22 56 -50 47 -47 71
-61 71 -42 0 4 -21 28 -47 53 -27 25 -55 54 -63 65 -16 22 43 -30 106 -93 38
-39 64 -54 64 -37 0 3 -26 32 -57 63 -32 31 -67 68 -78 82 l-20 24 29 -25 c17
-14 40 -35 52 -47 11 -13 24 -23 28 -23 12 0 6 23 -11 39 -10 9 -27 27 -38 41
l-20 25 29 -25 c16 -14 60 -55 97 -92 59 -59 89 -80 89 -63 0 3 -40 46 -90 96
-49 50 -90 93 -90 97 0 7 75 -63 103 -95 10 -13 23 -23 28 -23 21 0 6 25 -51
81 -33 32 -56 59 -52 59 4 0 42 -34 84 -75 42 -41 79 -75 82 -75 16 0 2 22
-39 64 -25 25 -42 46 -37 46 5 0 43 -34 84 -75 41 -41 78 -75 82 -75 15 0 3
19 -45 68 -28 29 -49 55 -47 58 3 2 13 -5 23 -16 10 -11 22 -20 27 -20 15 0 8
17 -19 44 -14 14 -23 29 -20 33 4 3 7 1 7 -5 0 -7 7 -12 15 -12 8 0 15 -5 15
-10 0 -6 11 -22 25 -36 27 -27 34 -44 10 -24 -21 18 -29 6 -13 -19 16 -26 38
-28 38 -3 0 12 10 7 35 -21 19 -21 40 -35 45 -32 7 4 1 17 -15 32 -14 14 -25
31 -25 37 1 6 9 1 19 -11 19 -22 41 -31 41 -15 0 4 -34 40 -74 80 -41 39 -71
72 -67 72 5 0 70 -61 145 -135 126 -124 156 -148 156 -127 0 4 -45 51 -100
105 -55 53 -100 101 -100 107 0 5 15 -7 34 -25 32 -34 56 -45 56 -26 0 5 -12
19 -26 30 -15 12 -23 21 -18 21 5 0 28 -18 51 -40 28 -28 44 -37 49 -29 4 7
-4 22 -19 35 -15 13 -27 27 -27 33 0 5 38 -29 85 -75 47 -48 90 -82 96 -78 6
4 -8 25 -38 53 -26 25 -57 57 -68 71 -11 14 3 4 31 -22 27 -27 53 -48 57 -48
17 0 4 26 -29 58 -19 19 -34 36 -32 38 2 1 28 -21 58 -51 30 -30 58 -54 63
-55 17 -1 4 24 -30 56 -20 19 -34 36 -31 39 2 2 20 -11 40 -31 20 -19 39 -31
42 -25 3 5 -1 14 -9 21 -8 7 -15 17 -15 23 0 6 10 1 23 -11 28 -27 37 -28 37
-4 0 12 10 7 35 -20 34 -37 55 -48 55 -29 0 5 -7 14 -15 21 -8 7 -15 17 -15
22 0 5 16 -7 37 -27 48 -47 75 -48 36 -1 -18 20 -17 20 2 6 11 -8 27 -23 36
-32 18 -19 39 -24 39 -9 0 5 -12 19 -26 30 -15 12 -23 21 -18 21 5 0 27 -16
49 -35 38 -34 55 -42 55 -28 0 3 -28 35 -62 69 -58 59 -88 77 -88 55 0 -5 6
-12 13 -14 6 -3 8 -6 2 -6 -5 -1 -27 15 -47 34 -41 39 -48 42 -48 20 0 -13 -4
-12 -22 5 -12 11 -18 23 -15 27 4 3 7 1 7 -5 0 -7 7 -12 15 -12 22 0 19 10
-12 44 l-28 30 28 -18 c26 -16 54 -14 32 2 -6 4 -19 18 -30 31 l-20 24 23 -14
c12 -8 22 -17 22 -21 0 -5 5 -8 10 -8 14 0 12 27 -2 33 -8 4 -7 6 3 6 9 1 19
-6 23 -14 3 -8 10 -15 16 -15 5 0 10 7 10 15 0 8 -4 15 -9 15 -5 0 -12 7 -15
16 -6 15 -4 15 11 3 27 -21 62 -63 57 -68 -2 -3 -10 4 -18 14 -9 13 -15 15
-20 6 -10 -16 21 -43 42 -37 27 9 69 -38 53 -58 -10 -11 -9 -16 1 -23 7 -4 22
-19 33 -33 l20 -25 -20 15 c-11 8 -23 19 -26 24 -4 5 -12 5 -18 1 -13 -7 136
-165 157 -165 20 0 14 17 -15 39 -14 12 -24 23 -21 26 3 3 30 -20 62 -50 31
-30 59 -55 61 -55 11 0 4 29 -7 33 -7 2 -11 7 -8 10 3 4 25 -12 48 -33 58 -55
87 -56 37 -2 -14 15 -25 30 -25 35 0 4 14 -8 31 -28 23 -26 29 -39 21 -48 -8
-10 -1 -22 28 -50 22 -21 40 -42 40 -49 0 -6 -8 -1 -19 10 -17 20 -41 30 -41
17 0 -3 11 -18 25 -33 38 -40 30 -46 -9 -7 -18 19 -36 35 -40 35 -17 0 -1 -25
44 -72 28 -28 50 -54 50 -57 0 -5 -48 37 -96 87 -17 17 -34 32 -38 32 -17 0
-1 -26 44 -71 28 -27 50 -53 50 -56 0 -8 -32 19 -53 45 -19 23 -37 29 -37 12
0 -17 121 -130 139 -130 11 0 8 7 -13 25 -16 14 -27 28 -24 31 3 2 19 -9 36
-26 34 -34 42 -37 42 -15 0 8 -3 15 -8 15 -4 0 -13 9 -20 20 -18 29 -9 25 32
-15 34 -32 56 -44 56 -29 0 4 -8 14 -18 23 -9 9 -24 25 -32 36 l-15 20 25 -20
c14 -11 34 -30 45 -42 11 -13 24 -23 28 -23 9 0 9 30 0 30 -5 0 -17 13 -27 28
l-19 27 29 -25 c15 -14 33 -31 40 -39 8 -10 13 -11 18 -3 4 7 -9 27 -29 47
-20 19 -32 35 -26 35 6 0 28 -18 50 -41 21 -22 41 -36 45 -31 3 5 -17 32 -44
61 -27 28 -45 51 -41 51 4 0 18 -11 31 -25 27 -29 40 -32 40 -9 0 14 3 14 15
4 23 -19 31 -3 10 20 -33 37 -8 31 28 -7 20 -20 40 -34 43 -30 4 4 -3 18 -16
32 -23 24 -16 37 8 13 6 -6 15 -9 19 -5 4 4 -11 25 -32 47 -58 60 -37 48 29
-15 31 -30 59 -55 61 -55 15 0 0 27 -30 57 -19 19 -35 39 -35 45 0 6 20 -10
44 -36 40 -41 66 -57 66 -40 0 3 -26 33 -59 65 -63 63 -70 82 -9 24 36 -35 58
-44 58 -25 0 6 -4 10 -9 10 -5 0 -12 7 -15 16 -6 15 -4 15 11 3 10 -8 28 -25
39 -38 15 -16 24 -19 29 -12 4 7 -7 26 -27 44 -18 18 -42 44 -53 57 l-20 25
26 -22 c14 -13 28 -23 32 -23 12 0 7 28 -5 33 -8 3 -8 6 -2 6 6 1 29 -17 52
-39 24 -23 43 -36 47 -30 4 6 -11 26 -32 45 -21 19 -32 35 -24 35 7 0 22 -11
33 -25 11 -14 24 -25 29 -25 16 0 9 21 -13 41 -13 10 -18 18 -11 19 6 0 15 -4
18 -10 7 -12 25 -13 25 -2 0 5 -9 18 -20 30 -12 12 -17 22 -13 22 4 0 19 -12
32 -25 13 -14 27 -25 32 -25 17 0 9 19 -16 38 -14 11 -25 25 -25 32 0 6 16 -5
35 -25 20 -20 40 -33 46 -29 7 4 3 14 -12 28 -13 11 -31 30 -39 40 -15 19 -14
19 13 2 15 -10 27 -22 27 -27 0 -5 7 -9 15 -9 22 0 18 16 -10 38 -14 11 -25
26 -25 32 0 7 8 3 19 -8 19 -23 41 -29 41 -12 0 6 -3 10 -8 10 -4 0 -13 9 -20
20 -17 27 -8 25 22 -5 24 -24 46 -33 46 -18 0 4 -10 17 -22 28 -13 12 -45 45
-73 75 -60 66 -25 37 54 -42 31 -32 59 -58 64 -58 18 0 3 25 -43 72 -27 28
-50 53 -50 56 0 7 33 -21 53 -45 10 -13 23 -23 28 -23 19 0 8 24 -26 56 -18
19 -30 34 -26 34 4 0 26 -18 49 -40 48 -48 66 -37 20 12 -18 19 -40 43 -48 53
-14 19 -14 19 10 0 13 -11 33 -30 43 -42 10 -13 23 -23 28 -23 16 0 10 22 -13
41 -16 15 -18 19 -5 19 8 0 17 6 20 13 2 6 3 3 1 -9 -2 -12 5 -29 16 -39 25
-23 39 -12 17 13 -21 23 -22 39 -2 22 28 -23 29 0 2 28 -15 16 -27 32 -27 36
0 4 32 -24 71 -63 69 -69 89 -82 89 -61 0 6 -7 10 -15 10 -8 0 -14 3 -13 8 2
4 -30 41 -70 82 -39 41 -72 78 -72 83 0 4 20 -13 44 -38 41 -41 66 -56 66 -37
0 4 -25 31 -55 61 -30 30 -53 56 -51 58 1 2 35 -28 75 -67 65 -63 91 -81 91
-64 0 3 -27 33 -60 66 -34 33 -59 62 -56 65 2 2 24 -16 49 -42 31 -31 48 -42
53 -34 4 7 -3 21 -17 34 -13 11 -33 32 -44 45 -20 24 -20 24 0 10 11 -8 41
-37 66 -63 26 -27 50 -44 53 -38 4 5 -23 40 -59 77 -63 66 -82 90 -48 63 10
-8 28 -25 40 -37 12 -13 27 -21 33 -17 7 4 -4 21 -30 46 -22 21 -37 39 -32 39
4 0 26 -18 47 -40 21 -22 43 -40 47 -40 17 0 7 24 -19 46 -15 13 -25 26 -22
28 3 3 15 -3 27 -14 24 -23 32 -25 32 -9 0 6 -10 19 -22 30 -13 10 -18 18 -13
19 6 0 27 -16 47 -35 20 -19 39 -35 42 -35 16 0 1 21 -55 79 -34 34 -59 65
-56 68 3 3 12 -4 19 -16 7 -12 18 -21 25 -21 16 0 17 12 1 29 -11 10 -10 11 5
6 9 -4 17 -11 17 -16 0 -5 7 -9 15 -9 8 0 15 4 15 9 0 5 -7 14 -15 21 -8 7
-15 16 -15 21 0 5 15 -6 34 -26 33 -34 56 -45 56 -26 0 5 -15 22 -32 38 -43
37 -120 124 -89 98 13 -11 57 -53 97 -93 43 -43 75 -68 79 -62 4 6 -20 38 -53
71 -33 32 -56 59 -51 59 5 0 36 -27 68 -60 53 -54 81 -72 81 -54 0 4 -34 40
-75 81 -41 41 -75 78 -75 83 0 8 252 -241 300 -296 l25 -29 -24 20 c-14 11
-51 46 -82 78 -31 31 -60 57 -63 57 -18 0 1 -28 55 -82 53 -52 60 -64 51 -79
-9 -14 -9 -20 1 -26 6 -4 21 -19 32 -33 11 -14 13 -19 5 -12 -8 6 -18 12 -22
12 -13 0 -9 -28 5 -33 7 -4 6 -6 -4 -6 -9 -1 -20 7 -23 16 -5 11 -10 13 -17 6
-16 -16 20 -56 38 -42 7 6 18 9 25 6 8 -4 7 -6 -4 -6 -25 -1 -22 -17 7 -49 14
-15 25 -31 25 -36 0 -5 -9 3 -21 18 -20 25 -39 34 -39 19 0 -5 19 -28 41 -53
23 -24 36 -46 30 -48 -15 -5 -14 -29 2 -35 7 -3 5 -6 -5 -6 -25 -1 -23 -9 15
-45 38 -36 51 -63 34 -69 -8 -3 -1 -16 17 -35 22 -23 26 -35 18 -44 -8 -10 0
-23 29 -53 21 -22 39 -44 38 -50 0 -5 -3 -4 -6 3 -5 14 -33 17 -33 3 0 -4 22
-29 50 -55 27 -25 45 -46 39 -46 -5 0 -27 18 -48 41 -25 25 -42 36 -46 29 -4
-6 18 -35 50 -65 51 -49 57 -60 33 -56 -3 0 -33 -8 -65 -18 -32 -11 -130 -37
-218 -59 -88 -22 -196 -50 -240 -62 -44 -13 -127 -35 -185 -50 -58 -16 -278
-76 -490 -133 -383 -105 -526 -143 -735 -197 -582 -151 -1028 -219 -1249 -192
-145 18 -198 46 -216 114 -32 116 92 266 363 443 49 31 130 79 180 106 55 29
83 49 70 49 -12 0 -24 6 -27 13 -5 10 -7 10 -12 0 -7 -15 -84 -18 -84 -3 0 5
-13 7 -30 4 -23 -5 -30 -3 -30 10 0 9 -5 16 -11 16 -6 0 -9 -6 -6 -14 8 -19
-3 -28 -19 -15 -7 6 -19 7 -26 3 -23 -14 -39 -13 -36 3 2 9 -3 18 -11 21 -10
3 -12 0 -8 -11 4 -12 -23 -37 -108 -97 -147 -104 -234 -186 -293 -275 -61 -90
-87 -169 -78 -240 16 -139 103 -228 269 -272 87 -24 379 -23 532 2 61 9 133
21 160 25 150 21 580 120 955 219 169 44 281 74 395 106 66 19 156 43 200 55
44 12 121 33 170 47 50 13 101 27 115 30 14 2 32 7 40 10 47 18 512 138 750
193 74 18 170 40 213 51 43 11 104 23 135 28 31 5 110 19 174 30 308 53 645
65 763 26 87 -28 145 -67 145 -97 0 -14 -79 -98 -93 -98 -5 0 -28 -14 -51 -30
-55 -40 -287 -145 -483 -219 -199 -75 -189 -72 -553 -192 -168 -55 -327 -109
-355 -119 -27 -10 -86 -30 -130 -44 -150 -47 -304 -103 -328 -119 -14 -9 -27
-28 -31 -42 -8 -30 14 -81 32 -78 7 2 12 -2 12 -7 0 -22 64 -5 412 111 200 66
397 131 438 144 179 57 486 167 577 207 24 10 46 18 51 18 7 0 86 32 222 90
30 13 72 34 92 47 21 13 42 23 47 23 6 0 27 10 48 22 153 89 253 203 253 288
0 33 -39 120 -69 155 -14 16 -17 36 -15 98 1 42 -2 80 -7 83 -5 3 -9 11 -9 17
0 9 2 9 8 0 4 -7 8 15 9 48 1 33 -2 57 -7 54 -5 -3 -5 9 1 27 5 21 5 36 -1 42
-6 6 -10 15 -10 20 0 6 4 5 9 -2 4 -7 7 74 7 180 -1 106 -5 199 -10 207 -6 9
-5 12 0 8 6 -3 10 20 11 56 2 46 -1 58 -8 47 -9 -12 -10 -12 -5 4 12 36 17
112 6 96 -13 -20 -13 -10 1 29 10 27 8 35 -7 53 -15 17 -16 20 -3 16 12 -5 15
2 15 31 -1 20 -4 41 -8 47 -4 6 -3 28 3 48 8 28 7 41 -3 54 -7 9 -8 13 -3 10
13 -8 14 71 1 91 -6 9 -5 12 0 8 12 -7 12 62 1 81 -10 15 -59 16 -75 0 -8 -8
-15 -8 -25 0 -15 13 -57 13 -74 0 -6 -5 -14 -5 -18 1 -7 12 -74 11 -81 -1 -3
-4 -14 -4 -24 2 -25 13 -63 13 -77 -1 -8 -8 -13 -8 -17 0 -9 14 -51 14 -76 1
-11 -6 -21 -6 -25 -1 -7 12 -156 11 -172 -1 -7 -5 -14 -5 -18 2 -3 5 -21 10
-40 10 -19 0 -37 -5 -40 -10 -4 -7 -11 -7 -18 -2 -14 11 -167 10 -184 -1 -6
-4 -14 -3 -18 3 -8 14 -58 13 -73 -2 -8 -8 -15 -8 -25 0 -13 11 -54 11 -73 0
-5 -4 -16 -3 -24 3 -8 5 -22 9 -30 9 -11 -1 -10 -4 4 -15 16 -12 17 -15 4 -15
-8 0 -21 7 -28 15 -14 16 -31 11 -26 -8 1 -7 1 -9 -1 -4 -6 10 -33 9 -33 -1 0
-5 11 -19 25 -32 14 -13 25 -27 25 -31 0 -3 -18 11 -40 32 -43 42 -49 52 -25
43 8 -4 15 -1 15 5 0 12 -44 10 -56 -2 -4 -4 10 -23 30 -43 45 -44 43 -55 -2
-13 -18 17 -37 27 -44 23 -8 -5 -7 -10 3 -18 8 -7 25 -25 39 -41 25 -30 25
-30 1 -10 -13 11 -45 42 -72 68 -27 28 -50 44 -54 37 -3 -5 23 -40 59 -76 36
-37 66 -69 66 -72 0 -7 -76 64 -103 96 -10 12 -23 22 -28 22 -21 0 -6 -25 41
-72 28 -27 50 -52 50 -56 0 -6 -68 57 -125 116 -12 12 -25 22 -29 22 -17 0 -2
-26 37 -64 23 -23 51 -53 62 -67 l20 -24 -29 25 c-16 14 -50 46 -75 73 -25 26
-49 47 -53 47 -19 0 -4 -21 52 -79 33 -34 56 -61 51 -61 -4 0 -31 23 -59 52
-28 29 -55 48 -59 44 -4 -5 -2 -11 5 -13 6 -3 12 -9 12 -15 0 -6 11 -21 25
-34 14 -13 25 -26 25 -30 0 -4 -11 3 -25 16 -32 31 -46 17 -15 -15 45 -48 10
-24 -52 35 -60 57 -78 69 -78 53 0 -5 34 -41 75 -81 41 -41 75 -78 75 -83 0
-5 -27 18 -60 51 -57 56 -80 71 -80 52 0 -4 22 -29 50 -55 28 -26 50 -52 50
-57 0 -6 -27 17 -60 50 -34 34 -65 58 -71 55 -5 -4 11 -27 36 -52 26 -25 44
-48 41 -50 -3 -3 -28 17 -56 46 -27 28 -52 51 -55 51 -15 0 -1 -27 28 -55 17
-18 43 -45 57 -61 l25 -29 -25 20 c-13 11 -50 46 -81 79 -35 36 -61 56 -69 51
-8 -5 1 -20 29 -46 23 -22 41 -45 41 -51 0 -6 -9 1 -21 16 -23 29 -39 34 -39
11 0 -8 4 -15 9 -15 5 0 12 -7 15 -16 6 -15 4 -15 -11 -3 -10 8 -27 24 -39 37
-12 12 -24 22 -28 22 -12 0 -6 -23 12 -39 9 -9 24 -25 32 -36 14 -19 14 -20
-6 -2 -25 21 -34 22 -34 2 0 -8 4 -15 9 -15 5 0 12 -7 15 -16 6 -15 4 -15 -10
-3 -14 12 -208 208 -252 255 -11 12 -11 14 2 14 9 0 16 -5 16 -11 0 -13 126
-139 139 -139 20 0 11 16 -36 61 -27 25 -59 59 -73 75 l-25 29 25 -20 c14 -11
55 -50 91 -87 58 -61 89 -81 89 -61 0 4 -39 44 -86 90 -47 47 -84 87 -81 89 3
3 19 -9 36 -26 16 -18 35 -29 41 -25 16 10 -45 65 -73 65 -13 0 -27 -4 -33 -9
-17 -15 -98 -29 -166 -27 -41 1 -68 -2 -68 -9 0 -7 -3 -7 -8 0 -4 7 -106 11
-281 13 l-274 2 -34 -30 c-25 -23 -44 -30 -74 -30 -41 0 -92 20 -106 43 -19
29 -240 59 -270 35 -7 -6 -14 -5 -18 2 -8 13 -67 10 -77 -4 -4 -6 -11 -6 -20
2 -15 12 -56 11 -76 -2 -7 -4 -19 -3 -25 3 -15 12 -57 11 -74 -2 -8 -6 -18 -6
-26 1 -15 13 -57 12 -74 -1 -8 -6 -18 -6 -25 1 -16 12 -66 13 -74 1 -3 -5 -13
-5 -23 0 -21 12 -61 11 -78 -1 -6 -5 -14 -5 -18 2 -8 13 -58 13 -72 -1 -7 -7
-17 -8 -25 -3 -17 11 -267 13 -274 2 -3 -4 -13 -4 -22 1 -22 11 -71 11 -78 -1
-3 -5 -11 -4 -19 2 -13 11 -51 10 -70 -2 -6 -4 -17 -3 -25 3 -20 12 -67 11
-75 -1 -4 -6 -13 -7 -23 -1 -22 11 -71 11 -78 0 -3 -5 -13 -5 -23 0 -10 6 -31
9 -47 8 -22 -2 -28 -7 -26 -20 3 -16 1 -16 -17 2 -12 12 -28 21 -38 21 -14 0
-14 -2 2 -20z m1247 -110 c4 0 8 7 8 15 0 13 4 12 22 -5 26 -24 38 -25 38 -3
0 13 4 11 20 -7 22 -25 28 -42 8 -22 -15 15 -28 15 -28 1 0 -12 29 -38 43 -39
4 0 7 7 7 17 0 13 3 12 19 -5 18 -22 41 -29 41 -14 0 5 -11 19 -25 32 -14 13
-25 28 -24 34 0 6 3 5 6 -1 7 -18 33 -16 33 2 0 11 10 6 30 -15 17 -17 30 -35
30 -41 0 -5 -11 1 -24 15 -13 15 -26 26 -30 26 -17 0 -1 -26 44 -71 28 -27 50
-53 50 -56 0 -8 -32 19 -53 45 -19 22 -37 29 -37 13 0 -5 17 -25 37 -45 21
-20 33 -36 27 -36 -5 0 -32 23 -59 50 -27 28 -53 50 -57 50 -15 0 -8 -18 17
-41 27 -26 35 -50 10 -29 -28 23 -29 0 -2 -28 45 -47 30 -44 -20 3 -43 41 -63
54 -63 40 0 -3 9 -15 20 -27 34 -36 15 -31 -26 7 -28 27 -35 38 -26 47 9 9 12
8 12 -5 0 -9 5 -17 10 -17 15 0 12 11 -7 32 -19 21 -37 24 -30 4 3 -7 0 -19
-6 -25 -8 -8 -1 -20 24 -44 58 -58 93 -97 87 -97 -4 0 -36 29 -72 65 -59 59
-86 77 -86 58 0 -3 26 -31 58 -63 31 -31 64 -65 72 -75 14 -19 14 -19 -9 0
-13 11 -61 57 -107 103 -45 45 -85 82 -88 82 -19 0 2 -30 64 -91 39 -38 64
-69 56 -69 -8 0 -17 8 -20 17 -5 12 -10 13 -18 5 -8 -8 -6 -15 6 -27 9 -9 16
-19 16 -22 0 -9 -30 18 -116 105 -45 45 -85 82 -88 82 -11 0 -6 -28 7 -33 6
-3 8 -6 2 -6 -12 0 -40 24 -75 64 l-25 28 27 -19 c15 -10 28 -22 28 -26 0 -11
30 -10 30 0 0 5 -9 17 -20 27 -11 10 -18 20 -16 23 3 2 16 -8 30 -23 14 -15
30 -24 36 -20 7 4 0 17 -19 36 -17 16 -31 32 -31 35 0 8 27 -14 56 -43 12 -13
24 -23 28 -23 14 0 5 22 -19 46 -14 14 -25 28 -25 31 0 7 30 -17 55 -44 11
-13 24 -23 28 -23 16 0 6 23 -19 42 -14 11 -23 23 -20 26 3 3 15 -3 26 -13 23
-21 39 -13 20 10 -20 24 3 17 32 -10 15 -14 30 -25 33 -25 12 0 3 20 -20 41
-13 13 -25 28 -25 32 0 4 16 -8 37 -28 20 -19 40 -35 45 -35z m704 -662 c29
-33 37 -48 26 -48 -5 0 -15 11 -22 25 -7 14 -19 25 -27 25 -19 0 -16 -8 12
-42 18 -22 23 -34 15 -43 -5 -6 -7 -15 -3 -18 12 -12 23 -7 23 10 0 9 2 14 5
11 4 -3 3 -18 -1 -32 -5 -21 -9 -24 -20 -15 -28 23 -27 -2 1 -31 37 -38 28
-39 -16 0 -19 16 -36 24 -38 18 -2 -5 0 -13 5 -17 14 -10 37 -41 31 -41 -3 0
-17 11 -31 25 -24 24 -46 33 -46 19 0 -4 11 -17 26 -30 14 -13 21 -24 17 -24
-11 0 -83 67 -83 77 0 4 5 2 12 -5 7 -7 16 -12 20 -12 13 0 9 20 -7 37 -9 8
-13 18 -9 22 4 3 9 0 11 -6 6 -16 23 -17 23 -2 0 6 -7 17 -15 26 -9 8 -13 18
-9 22 4 3 9 0 11 -6 5 -15 33 -17 33 -3 0 6 -4 10 -9 10 -5 0 -12 7 -15 16 -5
14 -4 15 9 4 24 -20 29 -5 8 27 -16 26 -16 27 0 14 22 -18 34 -7 16 15 -13 16
-12 16 6 7 11 -6 29 -22 41 -35z"/>
</g>
</svg>
