<?xml version="1.0" standalone="no"?>
<!DOCTYPE svg PUBLIC "-//W3C//DTD SVG 20010904//EN"
 "http://www.w3.org/TR/2001/REC-SVG-20010904/DTD/svg10.dtd">
<svg version="1.0" xmlns="http://www.w3.org/2000/svg"
 width="720.000000pt" height="1280.000000pt" viewBox="0 0 720.000000 1280.000000"
 preserveAspectRatio="xMidYMid meet">
<metadata>
Created by potrace 1.16, written by Peter Selinger 2001-2019
</metadata>
<g transform="translate(0.000000,1280.000000) scale(0.100000,-0.100000)"
fill="#000000" stroke="none">
<path d="M0 6400 l0 -6400 3600 0 3600 0 0 1025 0 1025 -110 0 c-106 0 -113 2
-112 30 0 3 -3 79 -7 170 -5 113 -12 172 -22 188 -25 40 -98 22 -102 -26 -1
-19 -7 -22 -43 -22 -36 0 -43 3 -47 23 -4 20 -4 19 -6 -4 0 -15 -7 -29 -15
-32 -19 -7 -27 -107 -17 -191 8 -56 7 -73 -6 -93 -8 -12 -11 -23 -7 -24 5 0 0
-4 -11 -9 -23 -10 -2754 -13 -2879 -4 l-81 7 4 74 c4 81 -12 487 -31 781 -13
205 -11 232 49 587 38 233 39 292 1 332 -33 35 -131 79 -234 104 -49 12 -92
25 -96 28 -4 3 -28 78 -53 166 -74 256 -143 460 -207 610 -75 177 -116 250
-170 306 -24 24 -43 48 -43 52 0 17 -48 57 -69 57 -12 0 -39 -9 -61 -20 -42
-21 -61 -25 -69 -12 -10 17 14 35 51 38 21 1 45 2 53 3 18 1 -42 54 -93 82
l-38 20 29 37 c56 71 97 176 109 276 6 54 7 57 19 35 7 -13 21 -68 31 -121 10
-54 21 -98 25 -98 32 0 45 131 24 245 -30 161 -80 289 -140 354 -26 29 -27 32
-6 18 14 -10 32 -20 40 -23 29 -11 99 -108 126 -173 20 -51 26 -84 27 -146 0
-44 -3 -90 -7 -102 -11 -36 10 -27 25 10 9 20 14 70 14 137 0 90 -4 112 -24
155 -32 66 -100 161 -148 206 -88 85 -217 145 -284 134 -50 -9 -55 11 -23 88
23 55 26 71 21 142 -12 177 -93 381 -194 486 -81 86 -218 174 -318 204 -244
76 -522 40 -705 -90 -30 -20 -62 -34 -91 -37 -60 -7 -177 -64 -264 -130 -120
-91 -201 -222 -211 -343 -5 -56 31 -176 54 -183 11 -3 12 0 3 16 -22 41 -13
135 19 208 33 73 49 83 25 14 -20 -55 -20 -192 -1 -229 14 -25 36 -48 106
-105 22 -18 23 -21 14 -125 -5 -58 -8 -144 -8 -191 0 -81 3 -91 52 -203 29
-65 52 -121 52 -125 0 -4 -30 -17 -66 -30 -144 -50 -300 -172 -357 -278 -64
-122 -168 -417 -203 -578 -19 -89 -43 -192 -54 -231 -11 -38 -28 -115 -39
-170 -16 -76 -36 -131 -85 -235 -100 -208 -109 -300 -42 -448 20 -44 36 -90
36 -102 0 -12 -10 -63 -21 -113 -25 -105 -23 -209 6 -299 l19 -58 -35 -82
c-30 -74 -34 -93 -34 -173 0 -123 25 -168 136 -246 l23 -16 -25 -34 c-13 -19
-57 -69 -96 -113 -73 -78 -142 -175 -189 -263 -13 -25 -28 -51 -34 -58 -5 -6
-7 -14 -4 -17 2 -3 -2 -8 -11 -12 -9 -3 -18 0 -20 7 -3 6 -4 916 -3 2021 l3
2009 29 10 c23 8 32 6 41 -7 16 -21 76 -21 101 2 51 45 53 46 75 26 12 -11 43
-21 77 -25 31 -3 63 -8 71 -10 8 -2 16 3 17 11 2 8 5 32 9 53 8 49 27 56 67
22 26 -22 39 -26 77 -23 41 3 46 0 49 -18 2 -12 12 -30 23 -40 19 -17 19 -16
19 59 0 43 -3 77 -7 77 -14 0 -29 -14 -36 -32 -3 -10 -22 -20 -43 -24 -33 -6
-41 -3 -60 19 -12 14 -24 32 -26 39 -4 11 -11 11 -38 1 -27 -10 -36 -10 -42 0
-13 21 -27 -5 -30 -58 -3 -50 -3 -50 -39 -53 -50 -4 -73 19 -64 66 5 28 4 34
-9 29 -8 -3 -29 1 -46 9 -17 9 -41 13 -55 10 -30 -8 -85 -54 -85 -71 0 -21
-29 -45 -56 -45 l-24 0 0 1565 0 1565 2710 0 c2434 0 2709 -2 2703 -15 -15
-40 52 -144 103 -159 19 -6 23 -2 28 29 7 36 -2 62 -28 85 -9 7 -16 23 -16 36
l0 24 840 0 840 0 0 1775 0 1775 -3600 0 -3600 0 0 -6400z m6795 3679 c153
-68 200 -265 96 -404 -25 -34 -27 -41 -14 -50 23 -17 -3 -53 -49 -67 -30 -9
-45 -8 -80 5 -34 13 -55 15 -98 8 -30 -5 -63 -13 -73 -16 -53 -21 -137 34
-107 70 11 13 9 19 -8 38 -85 90 -82 268 6 360 77 82 216 105 327 56z m-652 5
c52 -18 116 -76 143 -132 28 -55 26 -174 -4 -229 -50 -95 -136 -143 -256 -143
-209 0 -331 220 -222 402 25 42 43 59 94 85 54 28 75 33 131 33 37 0 88 -7
114 -16z m-5834 -111 c15 -56 71 -300 71 -307 0 -3 -15 -6 -33 -6 -28 0 -34 4
-42 33 -9 29 -14 32 -49 32 -36 0 -40 -3 -48 -32 -8 -29 -13 -33 -42 -33 l-34
0 14 58 c7 31 26 110 41 175 l27 117 43 0 c40 0 43 -2 52 -37z m401 -55 l1
-93 30 38 c23 27 39 37 60 37 16 0 29 -3 29 -6 0 -4 -16 -28 -35 -53 -30 -41
-33 -50 -21 -67 7 -10 25 -40 40 -66 l27 -48 -35 0 c-30 0 -38 5 -57 40 -13
22 -26 40 -31 40 -4 0 -8 -18 -8 -40 0 -38 -2 -40 -30 -40 l-30 0 0 175 0 175
30 0 30 0 0 -92z m1740 -83 l0 -176 -42 1 c-24 1 -55 -1 -69 -5 -19 -5 -33 -1
-55 18 -28 24 -29 29 -29 106 1 69 4 85 22 102 22 22 54 28 91 15 21 -7 22 -5
22 53 l0 61 30 0 30 0 0 -175z m452 83 l3 -92 25 37 c20 30 31 37 58 37 30 0
42 -12 24 -24 -5 -3 -21 -23 -36 -44 l-27 -40 40 -66 41 -66 -35 0 c-30 0 -38
5 -57 40 -13 22 -26 40 -30 40 -5 0 -8 -18 -8 -40 0 -39 -1 -40 -35 -40 l-35
0 0 168 c0 93 3 172 7 175 3 4 19 7 34 7 l28 0 3 -92z m728 28 l0 -65 35 15
c28 11 40 12 58 3 34 -18 37 -27 37 -136 l0 -103 -30 0 -30 0 0 90 c0 75 -3
92 -16 97 -37 14 -49 -10 -52 -101 l-3 -86 -29 0 -30 0 0 175 0 175 30 0 30 0
0 -64z m530 3 c0 -58 1 -60 23 -53 76 26 107 -8 107 -118 0 -71 -2 -81 -26
-105 -21 -21 -31 -24 -57 -18 -18 4 -49 6 -69 6 l-38 -2 0 176 0 175 30 0 30
0 0 -61z m-1482 -11 c3 -35 6 -38 33 -38 24 0 29 -4 29 -25 0 -21 -5 -25 -30
-25 l-31 0 3 -67 c3 -66 4 -68 31 -71 21 -3 27 -8 23 -19 -3 -8 -6 -19 -6 -24
0 -16 -73 -10 -92 8 -14 13 -18 31 -18 90 0 66 -2 75 -20 80 -13 3 -20 14 -20
29 0 17 6 24 20 24 17 0 20 7 20 41 0 38 1 40 28 37 23 -3 27 -8 30 -40z
m-2094 -58 c24 -24 34 -122 17 -173 -15 -44 -59 -66 -97 -48 -14 6 -27 11 -29
11 -3 0 -5 -29 -5 -65 l0 -65 -30 0 -30 0 0 181 0 182 39 -6 c21 -2 45 -1 52
4 19 12 60 2 83 -21z m402 20 c8 0 23 -9 34 -20 17 -17 20 -33 20 -121 l0
-101 -32 3 c-18 1 -48 -1 -66 -5 -50 -12 -82 13 -82 64 0 44 20 64 83 81 28 7
37 15 35 27 -5 25 -45 27 -58 3 -13 -25 -48 -28 -57 -5 -13 34 56 90 95 78 8
-2 20 -4 28 -4z m293 -1 c38 -14 51 -35 51 -88 l0 -41 -61 0 c-60 0 -60 0 -57
-27 3 -32 44 -46 54 -19 4 10 18 16 35 16 35 0 39 -25 10 -61 -27 -34 -99 -34
-135 0 -23 22 -26 32 -26 96 0 79 20 120 63 128 12 2 25 5 28 6 3 0 20 -4 38
-10z m199 0 c29 -10 59 -59 45 -73 -15 -15 -51 -5 -56 15 -4 13 -12 20 -24 17
-31 -6 -27 -34 7 -48 78 -32 101 -82 61 -131 -15 -19 -29 -24 -66 -24 -37 0
-51 5 -66 24 -29 36 -25 61 11 61 24 0 30 -4 30 -21 0 -15 5 -20 22 -17 42 6
33 36 -16 58 -54 23 -75 57 -60 98 9 25 45 52 70 52 6 0 25 -5 42 -11z m219
-13 c6 -6 13 -22 15 -36 2 -21 -2 -26 -23 -28 -20 -2 -28 2 -32 18 -4 14 -12
21 -24 18 -29 -5 -21 -32 15 -50 73 -36 92 -81 53 -129 -15 -19 -29 -24 -66
-24 -37 0 -51 5 -66 24 -29 36 -25 61 10 61 21 0 30 -6 34 -21 7 -25 40 -22
45 4 3 12 -9 23 -42 37 -51 21 -70 54 -60 97 12 45 104 65 141 29z m182 13
c17 -6 36 -19 41 -29 6 -10 10 -62 10 -116 l0 -97 -40 6 c-22 3 -43 1 -46 -4
-8 -14 -47 -11 -72 7 -16 11 -22 25 -22 54 0 44 20 64 83 81 28 7 37 15 35 27
-5 25 -45 27 -58 3 -13 -25 -48 -28 -57 -5 -8 23 16 62 46 73 35 13 43 13 80
0z m319 -22 c16 -15 22 -32 22 -64 l0 -43 -61 0 c-60 0 -60 0 -57 -27 3 -32
44 -46 54 -19 8 20 64 22 64 2 0 -69 -102 -98 -158 -45 -19 17 -22 31 -22 98
0 68 3 80 23 98 12 11 29 23 37 26 25 9 73 -4 98 -26z m1000 -3 c19 -21 22
-36 22 -99 0 -70 -1 -74 -32 -100 -27 -23 -39 -26 -71 -22 -59 8 -80 35 -85
107 -3 36 1 72 9 91 24 60 111 73 157 23z m240 9 c8 -11 12 -53 12 -120 l0
-103 -30 0 -30 0 0 90 c0 75 -3 92 -17 97 -32 12 -53 -32 -53 -113 l0 -74 -30
0 -30 0 0 120 0 120 29 0 c16 0 31 -5 33 -12 3 -8 11 -7 29 5 27 20 67 15 87
-10z m530 -9 c15 -17 22 -38 22 -65 l0 -39 -61 0 c-60 0 -60 0 -57 -27 3 -32
44 -46 54 -19 4 10 18 16 35 16 35 0 40 -29 9 -60 -27 -27 -63 -34 -105 -20
-46 15 -55 34 -55 123 0 64 3 76 23 94 12 11 29 23 37 26 28 11 75 -3 98 -29z
m542 10 c11 -11 15 -39 15 -117 l0 -102 -32 -3 -33 -3 0 91 c0 72 -3 92 -15
96 -33 13 -45 -15 -45 -102 l0 -84 -35 0 -35 0 0 120 0 120 35 0 c19 0 35 -4
35 -9 0 -6 12 -3 28 4 29 16 58 12 82 -11z m215 -5 c17 -16 21 -36 23 -120 l4
-100 -44 1 c-23 1 -54 -1 -68 -5 -34 -9 -80 27 -80 61 0 42 17 62 70 79 37 12
50 22 50 36 0 26 -36 25 -52 -1 -12 -19 -48 -27 -61 -14 -3 3 -1 19 5 36 20
56 108 72 153 27z m394 20 c36 -13 61 -53 61 -99 l0 -30 -59 0 c-63 0 -76 -8
-66 -40 8 -24 55 -28 55 -5 0 11 11 15 36 15 32 0 35 -2 29 -22 -4 -13 -18
-34 -33 -47 -21 -19 -33 -22 -65 -18 -60 8 -80 35 -85 109 -5 79 9 115 50 133
41 17 38 17 77 4z m204 -3 c15 -8 27 -11 27 -5 0 5 14 9 31 9 l30 0 -3 -154
c-3 -134 -5 -157 -22 -175 -42 -46 -144 -35 -166 19 -7 16 -9 34 -5 39 10 18
44 12 57 -9 27 -42 78 -15 78 41 0 18 -3 20 -12 11 -7 -7 -29 -12 -49 -12 -56
0 -79 34 -79 116 0 72 13 107 44 122 29 14 37 14 69 -2z m285 -22 c19 -22 22
-36 22 -120 l0 -95 -42 1 c-24 1 -54 -1 -68 -5 -36 -9 -80 27 -80 65 0 27 32
70 52 70 5 0 24 7 43 14 25 11 33 19 29 30 -9 22 -41 20 -56 -4 -18 -29 -58
-27 -58 3 0 73 105 101 158 41z m-3048 -94 l0 -120 -35 0 -35 0 0 113 c0 63 3
117 7 120 3 4 19 7 35 7 l28 0 0 -120z m2280 63 c19 -90 25 -92 45 -14 18 68
20 71 48 71 28 0 29 -2 23 -33 -3 -19 -25 -99 -49 -178 l-42 -144 -34 -3 c-28
-3 -33 -1 -27 14 28 74 28 99 -3 207 -18 59 -34 113 -37 122 -5 12 2 15 28 15
34 0 35 -1 48 -57z m-3656 -3192 c-26 -111 11 -241 101 -355 27 -35 124 -110
132 -102 2 1 -7 25 -19 52 -20 43 -22 65 -22 184 1 74 6 149 11 165 l10 30 7
-40 c11 -67 48 -219 58 -237 9 -19 -1 -24 -17 -9 -6 5 -20 12 -32 16 -41 12
-25 -14 25 -39 26 -14 86 -64 134 -113 99 -101 196 -170 122 -87 -27 30 -67
109 -78 154 -4 14 9 -7 28 -47 19 -39 54 -91 78 -115 45 -45 94 -76 104 -66 3
3 -7 29 -21 58 -44 87 -20 67 30 -25 60 -110 86 -222 66 -287 -7 -24 -14 -59
-16 -78 l-4 -34 25 27 c34 36 73 127 89 206 8 36 22 72 32 82 24 24 131 79
153 79 10 0 32 -17 50 -37 30 -34 32 -41 27 -88 -7 -67 -35 -122 -87 -169 -49
-44 -173 -106 -212 -106 -30 0 -38 -14 -14 -23 17 -7 72 7 91 23 10 9 14 1 20
-38 3 -26 9 -53 13 -58 11 -16 129 -97 209 -143 79 -45 90 -58 93 -111 5 -62
1 -76 -37 -120 l-38 -45 34 24 c44 32 75 101 66 149 -10 53 -31 89 -57 96 -13
3 -61 29 -108 57 -98 58 -77 55 65 -8 150 -67 174 -81 243 -145 61 -57 72 -62
142 -71 19 -3 51 -12 70 -20 l35 -15 -55 -1 c-61 -1 -97 -19 -145 -69 -17 -18
-35 -32 -42 -32 -19 0 -118 -218 -159 -350 -24 -75 -73 -322 -89 -445 -16
-125 -20 -560 -5 -670 6 -47 4 -72 -11 -116 -10 -31 -21 -75 -25 -99 -4 -25
-13 -44 -23 -47 -28 -10 -52 -36 -68 -73 -25 -59 -43 -123 -43 -156 0 -29 -5
-33 -89 -73 -112 -53 -149 -92 -190 -203 -10 -27 -12 -28 -93 -28 -51 0 -124
9 -189 24 -155 35 -270 97 -375 202 -59 60 -68 90 -37 134 10 14 20 50 23 80
l5 55 49 -78 c26 -42 53 -80 59 -84 5 -3 8 -2 5 3 -281 478 -336 654 -340
1093 -1 113 -4 168 -7 129 -4 -36 -9 -69 -13 -73 -15 -15 -133 232 -193 405
-19 52 -34 90 -34 84 -3 -36 101 -301 175 -444 l48 -95 8 -160 c5 -88 7 -166
6 -173 -3 -12 -16 3 -95 111 -28 36 -30 25 -4 -23 121 -228 211 -423 211 -459
0 -8 -7 -41 -16 -73 l-17 -58 -30 26 c-41 34 -90 58 -172 82 -38 11 -103 30
-144 42 -147 43 -240 101 -277 173 -9 16 -18 27 -20 24 -10 -10 26 -64 67
-101 54 -49 113 -75 285 -124 179 -51 197 -59 271 -121 89 -74 118 -128 118
-216 -1 -60 -5 -78 -33 -126 -35 -62 -40 -99 -16 -144 47 -90 49 -181 5 -237
-37 -46 -71 -121 -71 -154 0 -41 -21 -124 -32 -124 -4 0 -24 35 -44 78 -54
114 -64 122 -144 122 -57 0 -74 -5 -120 -32 -30 -18 -64 -48 -77 -66 -25 -39
-41 -138 -24 -155 8 -8 11 1 11 33 1 37 3 42 11 27 7 -11 8 -37 4 -64 l-7 -46
-44 44 c-41 41 -45 49 -53 117 -5 40 -15 79 -22 88 -17 20 -21 12 -10 -20 13
-33 5 -33 -58 -1 -62 31 -103 80 -124 148 -24 77 -22 106 20 228 35 103 37
111 24 151 -25 80 -25 236 -1 341 l22 94 -41 96 c-67 158 -60 244 40 436 46
90 64 135 76 201 8 47 28 135 44 195 16 61 40 166 54 235 35 176 143 477 215
605 58 101 201 208 336 251 42 14 78 23 79 22 2 -2 21 -40 44 -85 38 -77 43
-83 99 -110 57 -27 59 -29 76 -91 34 -117 123 -236 215 -285 85 -47 170 -61
288 -48 57 7 124 18 150 26 27 8 62 12 78 9 25 -4 33 -1 43 18 7 13 35 39 62
58 26 19 47 36 46 37 -1 1 -28 -11 -60 -27 -32 -17 -65 -30 -72 -30 -7 0 -29
-11 -48 -24 -65 -44 -265 -67 -369 -42 -86 20 -138 47 -197 102 -44 41 -60 70
-109 191 -33 82 -28 93 49 93 34 0 42 -6 85 -57 26 -32 61 -82 77 -110 17 -29
34 -55 39 -58 19 -12 -61 146 -88 173 -7 7 -13 17 -13 22 0 8 71 57 188 130
63 39 64 51 1 16 -67 -37 -219 -85 -306 -98 -149 -22 -170 -3 -286 250 -104
224 -113 263 -95 404 16 132 14 199 -6 210 -26 15 -46 64 -45 110 l1 43 12
-50 c7 -27 19 -61 27 -75 13 -24 14 -21 17 48 2 53 7 75 18 79 19 7 72 -15 83
-36 5 -9 13 -13 17 -9 4 4 -8 21 -27 39 -23 22 -40 29 -57 26 -22 -4 -23 -3
-17 32 10 54 51 138 96 199 23 29 42 52 44 50 2 -2 -3 -32 -11 -67z m1295
-785 c35 -142 -17 -340 -102 -385 -24 -13 -35 -10 -146 38 -66 28 -124 51
-130 51 -12 0 -35 39 -27 47 3 3 26 -2 52 -11 26 -9 56 -16 67 -16 18 0 18 1
-2 34 l-21 33 84 27 c138 44 196 98 196 182 0 57 15 56 29 0z m442 -775 c57
-35 107 -97 149 -181 107 -214 145 -438 155 -920 5 -244 3 -337 -10 -465 -38
-379 -120 -732 -204 -878 -56 -98 -237 -250 -466 -392 -60 -38 -138 -86 -172
-107 -125 -80 -192 -92 -340 -61 l-81 17 -41 -27 c-30 -20 -53 -27 -90 -27
-46 0 -49 1 -55 30 -13 68 -177 251 -258 288 -54 25 -68 28 -50 10 9 -9 5 -15
-19 -25 -58 -24 -63 -18 -32 39 22 40 44 63 101 101 66 44 76 55 113 128 35
70 45 83 82 99 23 11 51 20 62 20 40 0 64 29 86 103 41 140 70 175 178 213 42
15 82 32 89 37 15 12 13 13 37 -40 17 -40 46 -64 30 -25 -39 94 -45 123 -35
169 18 81 52 162 69 167 9 3 41 10 71 16 78 15 149 59 248 153 119 115 269
287 249 287 -2 0 -26 -28 -53 -62 -116 -149 -300 -317 -365 -333 -25 -6 -26
-5 -38 74 -9 61 -9 101 -1 163 19 140 41 252 54 268 22 27 276 539 276 557 0
28 -15 4 -44 -72 -15 -38 -64 -139 -109 -224 -45 -85 -91 -176 -102 -202 -31
-71 -38 -71 -30 1 34 317 145 748 238 923 42 80 81 121 166 178 56 36 85 37
142 0z m-2063 -2473 c8 -7 29 -44 47 -83 20 -42 53 -92 86 -125 73 -76 109
-121 109 -135 0 -7 -15 -17 -32 -23 -29 -10 -26 -11 27 -6 33 3 106 21 162 40
55 19 108 34 117 34 8 0 36 7 60 15 42 15 48 14 88 -5 41 -19 178 -144 178
-162 0 -4 -19 -33 -42 -63 l-43 -55 -293 0 c-286 0 -292 0 -282 19 17 32 11
36 -11 7 -19 -24 -26 -26 -95 -26 -41 0 -74 2 -74 5 0 12 104 136 122 146 27
15 16 22 -13 9 -13 -6 -37 -30 -54 -53 -51 -71 -86 -107 -106 -107 -27 0 -24
14 13 57 l32 38 -32 -29 c-17 -16 -34 -38 -37 -48 -6 -16 -19 -18 -121 -17
-63 0 -114 4 -114 9 0 4 11 75 25 157 14 81 25 184 25 228 0 44 6 91 13 105
15 29 82 77 117 83 38 7 111 -2 128 -15z m-458 -227 c0 -32 38 -96 83 -141 23
-24 35 -44 31 -53 -3 -10 1 -17 12 -19 10 -1 -36 -3 -102 -4 -76 0 -139 -6
-174 -17 -39 -11 -59 -12 -67 -5 -9 7 -18 7 -29 -3 -14 -12 -14 -14 3 -20 17
-7 16 -8 -2 -8 -12 -1 -26 -6 -33 -13 -9 -9 -12 -8 -12 4 0 9 7 23 15 32 8 8
15 20 15 26 0 6 4 9 9 5 5 -3 11 5 13 17 2 13 9 22 16 21 11 -3 16 9 13 29 -3
23 118 170 133 161 6 -3 8 -2 3 2 -4 5 5 22 20 37 l28 29 12 -28 c7 -15 12
-39 13 -52z m131 -258 c5 -5 6 -25 2 -46 l-6 -37 -138 0 c-77 0 -139 2 -139 4
0 2 7 20 15 40 11 25 23 37 43 42 15 3 32 8 37 10 18 7 177 -4 186 -13z"/>
<path d="M6613 9773 c-20 -4 -23 -11 -23 -51 l0 -47 85 0 85 0 0 46 c0 40 -3
48 -22 53 -25 6 -90 6 -125 -1z"/>
<path d="M1445 6143 c3 -16 9 -57 15 -92 5 -36 15 -68 22 -73 25 -16 43 -3 52
39 7 34 5 48 -8 68 -9 14 -13 25 -8 25 19 0 90 -60 111 -94 13 -20 27 -36 32
-36 6 0 7 5 4 10 -3 6 -1 10 4 10 24 0 7 22 -66 83 -87 71 -112 87 -142 87
-17 0 -20 -5 -16 -27z"/>
<path d="M6265 8908 c-16 -5 -37 -12 -45 -14 -13 -5 -13 -6 0 -14 10 -7 11
-10 3 -10 -8 0 -13 -14 -13 -35 0 -19 -3 -35 -8 -35 -4 0 -13 -18 -20 -41 -11
-34 -10 -42 3 -56 13 -13 21 -13 41 -4 14 6 23 15 19 20 -3 5 -1 12 5 16 6 3
17 22 25 42 8 19 23 37 32 40 10 2 26 20 36 40 28 56 -3 77 -78 51z"/>
<path d="M6543 8834 c-44 -22 -84 -77 -100 -137 -14 -55 -59 -97 -157 -147
-37 -19 -105 -87 -117 -118 -5 -13 -9 -34 -9 -46 0 -13 -6 -29 -14 -36 -8 -6
-27 -42 -41 -78 l-26 -67 29 -60 c37 -75 70 -106 100 -98 12 3 22 9 22 14 0
18 40 49 63 49 35 0 61 -23 53 -47 -5 -16 -18 -22 -55 -27 -55 -7 -57 -10 -67
-117 -8 -82 0 -119 25 -119 20 0 31 26 31 71 0 14 5 40 11 58 9 27 16 31 45
31 19 0 34 4 34 9 0 11 54 31 83 31 27 0 46 -28 47 -67 0 -45 22 -64 62 -52
17 5 35 13 38 19 4 6 34 10 71 9 79 -3 103 4 117 37 17 35 15 55 -7 78 -34 36
-36 69 -6 104 15 18 35 32 46 32 10 0 19 5 19 10 0 6 8 10 18 10 10 0 33 13
51 29 32 28 32 30 13 40 -12 6 -42 12 -69 12 -84 2 -108 11 -111 40 -2 18 6
37 27 60 17 18 31 29 31 24 0 -6 9 4 19 21 22 36 19 117 -6 145 -9 11 -13 39
-12 88 2 82 3 81 -96 132 -33 17 -72 42 -88 55 -34 28 -33 28 -74 8z"/>
<path d="M4400 8288 c-41 -17 -95 -37 -120 -46 -25 -8 -52 -20 -60 -27 -19
-15 -99 -35 -141 -35 -51 0 -141 -32 -147 -52 -2 -10 -8 -18 -13 -18 -5 0 -9
-4 -9 -9 0 -10 99 -31 147 -31 19 0 44 6 56 14 12 8 41 17 65 21 23 4 56 18
72 32 17 14 30 22 30 19 0 -4 15 9 34 29 19 19 36 35 38 36 1 0 38 4 81 8 58
6 82 13 92 27 18 24 18 29 -1 48 -21 21 -36 19 -124 -16z"/>
<path d="M7165 8119 c-14 -15 -30 -19 -57 -17 -55 3 -83 -27 -83 -91 0 -82 55
-116 112 -71 14 11 34 20 44 20 17 0 19 9 19 90 0 50 -3 90 -7 89 -5 0 -17 -9
-28 -20z"/>
<path d="M5250 7933 c-40 -13 -80 -35 -80 -43 0 -4 22 -16 48 -24 27 -9 63
-27 81 -40 17 -13 53 -29 79 -35 26 -7 61 -16 78 -21 50 -16 74 -13 74 10 0
14 -15 27 -50 45 -27 14 -64 38 -82 53 -70 60 -100 72 -148 55z"/>
<path d="M3620 7750 c-7 -4 -58 -8 -113 -8 -111 -1 -125 -8 -101 -53 19 -38
21 -39 105 -39 116 -1 211 20 246 56 14 13 14 17 2 25 -8 5 -25 9 -39 9 -14 0
-39 4 -56 9 -17 5 -37 5 -44 1z"/>
<path d="M6078 7726 c-12 -9 -18 -27 -18 -54 0 -35 5 -45 33 -66 38 -29 46
-31 80 -15 35 16 50 72 32 115 -13 32 -17 34 -62 34 -26 0 -56 -7 -65 -14z"/>
<path d="M6915 7730 c-22 -5 -83 -14 -135 -20 -52 -7 -97 -15 -100 -19 -3 -3
-14 -11 -25 -17 -33 -18 -40 -55 -20 -108 21 -55 54 -81 99 -78 29 3 86 45 86
65 0 5 26 35 59 68 49 49 64 59 93 59 41 0 89 37 66 51 -16 10 -68 10 -123 -1z"/>
<path d="M5657 7703 c-15 -14 -5 -25 47 -49 84 -38 106 -64 106 -122 0 -54 57
-185 86 -196 10 -4 27 6 48 27 17 17 47 43 65 57 27 20 34 34 38 72 5 44 3 48
-42 97 -26 28 -73 65 -103 81 -53 28 -60 30 -133 24 -52 -5 -78 -3 -83 5 -8
12 -19 14 -29 4z"/>
<path d="M7079 7584 c-1 -11 0 -34 1 -51 1 -18 -3 -33 -9 -33 -6 0 -11 -6 -11
-13 0 -7 -17 -29 -37 -48 -50 -48 -141 -79 -208 -72 -42 4 -53 2 -69 -16 -11
-12 -25 -21 -32 -21 -7 0 -25 -10 -41 -23 -43 -35 -96 -49 -176 -46 -80 2
-175 -26 -245 -75 -49 -33 -70 -33 -109 4 -18 17 -42 30 -54 30 -25 0 -57 -33
-66 -69 -3 -13 -16 -40 -29 -58 -34 -51 -44 -115 -33 -208 5 -44 14 -96 19
-115 14 -51 12 -177 -6 -325 -8 -71 -18 -173 -21 -226 l-6 -96 58 -46 c31 -26
63 -47 71 -47 8 0 22 16 30 35 12 29 19 35 45 35 44 0 121 20 141 37 9 8 22
38 28 66 17 71 26 86 34 59 4 -12 12 -22 17 -22 5 0 9 -7 9 -15 0 -53 63 -110
120 -107 19 1 40 -1 46 -6 6 -4 28 -40 49 -81 35 -71 36 -74 18 -91 -10 -9
-47 -22 -82 -28 -36 -6 -67 -15 -70 -19 -18 -25 -85 -34 -195 -27 l-113 7 -22
-32 c-12 -17 -26 -58 -32 -91 -6 -41 -20 -75 -40 -102 -26 -37 -29 -47 -23
-87 4 -25 19 -64 33 -86 14 -22 25 -41 26 -42 0 -1 13 1 28 4 23 5 33 16 53
60 13 31 36 70 51 88 16 17 34 41 42 52 8 12 32 27 55 34 22 7 57 25 76 40 19
14 46 29 60 33 14 4 50 18 80 30 30 13 74 32 98 42 23 9 42 20 42 24 0 5 13
22 29 39 31 33 82 42 122 21 37 -20 14 -141 -30 -157 -9 -4 -30 -17 -47 -30
-30 -23 -31 -26 -22 -65 5 -23 14 -48 19 -54 6 -7 9 -28 7 -46 -3 -31 -6 -33
-53 -41 -110 -17 -147 -28 -196 -59 -63 -41 -166 -134 -174 -158 -3 -10 7 -44
22 -77 28 -57 29 -58 74 -61 43 -3 52 1 110 48 98 79 134 78 179 -6 28 -54 22
-70 -36 -97 -21 -11 -50 -26 -64 -35 -27 -18 -153 -68 -208 -82 -35 -9 -61
-25 -103 -62 -15 -13 -40 -34 -58 -47 -29 -23 -31 -28 -31 -91 0 -67 8 -83 58
-114 14 -8 82 11 82 23 0 4 27 8 60 8 34 1 74 6 89 13 16 6 42 10 57 8 39 -4
43 -40 12 -104 -19 -40 -29 -50 -52 -52 -15 -2 -51 -19 -80 -37 -41 -26 -55
-42 -64 -73 -7 -22 -12 -45 -12 -52 0 -7 -16 -30 -35 -51 -19 -22 -35 -43 -35
-47 0 -4 -16 -7 -35 -7 -29 0 -35 4 -41 28 -6 31 -20 34 -46 11 -24 -23 -110
-31 -125 -12 -16 19 -19 128 -5 155 8 15 11 47 7 93 -4 62 -3 70 13 70 9 1 -9
14 -41 31 -32 17 -68 29 -79 27 -12 -2 -39 -21 -61 -42 -35 -35 -39 -43 -33
-75 3 -20 6 -42 6 -48 0 -9 21 -13 70 -13 l70 0 0 -39 c0 -32 -4 -40 -22 -45
-37 -10 -46 -7 -72 19 -30 30 -56 33 -56 6 0 -10 -6 -36 -14 -57 -7 -22 -17
-57 -20 -80 -6 -34 -3 -44 18 -67 20 -22 34 -27 70 -27 25 0 56 4 70 10 24 9
25 8 16 -16 -6 -14 -10 -55 -10 -90 0 -41 -4 -63 -10 -59 -5 3 -10 -1 -10 -9
0 -18 37 -55 67 -67 34 -13 63 -67 63 -119 0 -53 6 -64 40 -74 125 -35 134
-37 162 -25 22 9 31 9 43 -1 22 -18 19 -26 -23 -68 -39 -38 -58 -89 -69 -182
-3 -25 -11 -52 -18 -60 -20 -23 -41 -110 -37 -153 3 -37 4 -38 38 -31 l34 6 0
-46 c0 -25 -4 -46 -10 -46 -6 0 -10 -56 -10 -147 -1 -177 -12 -274 -39 -329
-11 -22 -23 -53 -27 -68 -4 -16 -22 -51 -40 -80 -25 -36 -34 -62 -34 -91 0
-24 -12 -66 -30 -103 -38 -81 -43 -174 -10 -192 24 -13 60 -4 77 19 6 9 17 16
24 16 7 0 17 15 23 33 11 33 108 132 129 132 21 0 127 111 144 150 8 19 30 32
99 58 49 18 99 32 111 32 12 0 27 9 33 20 17 32 92 70 137 70 39 0 42 2 65 48
19 39 23 62 22 137 0 50 -4 111 -8 136 -6 33 -4 62 8 102 18 62 22 266 7 326
-6 20 -15 75 -22 122 -11 82 -11 88 12 137 20 43 33 57 79 81 30 17 71 48 90
70 21 25 43 41 56 41 55 0 54 -5 54 231 0 244 5 232 -69 182 -35 -24 -66 -29
-89 -15 -21 14 -43 123 -43 216 0 83 4 97 51 217 27 70 50 137 50 148 0 33 17
64 59 109 41 42 41 42 41 122 l0 80 -59 0 c-72 0 -111 13 -111 37 0 29 49 115
87 152 19 19 45 56 59 83 l24 47 0 348 0 347 -28 -27 c-33 -31 -53 -34 -75 -9
-20 22 -32 260 -18 337 5 28 19 100 31 160 12 61 25 144 29 185 7 73 34 150
52 150 5 0 9 118 9 265 l0 265 -39 0 c-31 0 -44 6 -60 26 -18 23 -21 24 -22 8z"/>
<path d="M6115 5055 c-16 -7 -70 -20 -119 -29 -125 -22 -136 -31 -136 -112 0
-95 41 -164 78 -132 9 9 27 19 40 22 12 4 22 11 22 16 0 5 16 12 35 16 37 7
61 27 50 44 -3 5 -1 10 5 10 15 0 47 37 65 75 8 17 23 44 35 60 11 17 20 33
20 38 0 12 -62 7 -95 -8z"/>
</g>
</svg>
