<?xml version="1.0" standalone="no"?>
<!DOCTYPE svg PUBLIC "-//W3C//DTD SVG 20010904//EN"
 "http://www.w3.org/TR/2001/REC-SVG-20010904/DTD/svg10.dtd">
<svg version="1.0" xmlns="http://www.w3.org/2000/svg"
 width="720.000000pt" height="1280.000000pt" viewBox="0 0 720.000000 1280.000000"
 preserveAspectRatio="xMidYMid meet">
<metadata>
Created by potrace 1.16, written by Peter Selinger 2001-2019
</metadata>
<g transform="translate(0.000000,1280.000000) scale(0.100000,-0.100000)"
fill="#000000" stroke="none">
<path d="M0 6400 l0 -6400 3600 0 3600 0 0 6400 0 6400 -3600 0 -3600 0 0
-6400z m6796 3680 c151 -69 198 -267 95 -405 -25 -34 -27 -41 -14 -50 14 -10
14 -14 -1 -37 -26 -40 -88 -50 -140 -23 -24 13 -38 13 -90 3 -107 -20 -145
-17 -172 17 -21 27 -21 30 -6 41 16 11 15 14 -5 36 -56 60 -79 178 -51 269 23
77 102 146 195 169 50 12 138 3 189 -20z m-653 4 c29 -10 64 -34 92 -62 124
-125 89 -333 -68 -412 -134 -67 -310 -20 -371 98 -46 89 -41 199 13 284 41 65
129 108 221 108 36 0 87 -7 113 -16z m-5834 -111 c15 -56 71 -300 71 -307 0
-3 -16 -6 -35 -6 -30 0 -35 3 -35 24 0 34 -23 49 -64 42 -27 -5 -35 -12 -40
-36 -5 -26 -10 -30 -40 -30 l-34 0 14 58 c7 31 25 110 40 175 l28 117 42 0
c41 0 44 -2 53 -37z m403 -55 l3 -93 25 37 c20 31 31 38 58 38 17 0 32 -3 32
-6 0 -4 -16 -28 -35 -53 -30 -41 -33 -50 -21 -67 7 -10 25 -40 40 -66 l27 -48
-35 0 c-30 0 -38 5 -57 40 -26 45 -39 43 -39 -6 0 -31 -2 -34 -30 -34 l-30 0
0 175 0 175 30 0 29 0 3 -92z m1738 -83 l0 -176 -42 1 c-24 1 -55 -1 -69 -5
-19 -5 -33 -1 -55 18 -28 24 -29 29 -29 106 1 69 4 85 22 102 22 22 54 28 91
15 21 -7 22 -5 22 53 l0 61 30 0 30 0 0 -175z m452 83 l3 -92 25 37 c20 30 31
37 58 37 30 0 42 -12 24 -24 -5 -3 -21 -23 -36 -44 l-27 -40 40 -66 41 -66
-35 0 c-30 0 -39 6 -62 43 l-28 42 -3 -42 c-3 -42 -4 -43 -38 -43 l-34 0 0
175 0 175 35 0 34 0 3 -92z m728 27 l0 -66 30 16 c33 17 60 13 85 -11 11 -12
15 -40 15 -120 l0 -104 -30 0 -30 0 0 90 c0 75 -3 92 -16 97 -37 14 -49 -10
-52 -101 l-3 -86 -29 0 -30 0 0 175 0 175 30 0 30 0 0 -65z m530 4 c0 -58 1
-60 23 -53 76 26 107 -8 107 -118 0 -71 -2 -81 -26 -105 -20 -20 -31 -24 -52
-18 -15 4 -46 6 -69 5 l-43 -1 0 176 0 175 30 0 30 0 0 -61z m-1480 -9 c0 -38
2 -40 30 -40 25 0 30 -4 30 -25 0 -21 -5 -25 -30 -25 l-31 0 3 -67 c3 -66 4
-68 31 -71 21 -3 27 -8 23 -19 -3 -8 -6 -19 -6 -24 0 -16 -73 -10 -92 8 -14
13 -18 31 -18 90 0 66 -2 75 -20 80 -13 3 -20 14 -20 29 0 17 6 24 20 24 17 0
20 7 20 40 0 38 2 40 30 40 28 0 30 -2 30 -40z m-2096 -61 c24 -23 34 -121 17
-172 -15 -44 -59 -66 -97 -48 -14 6 -27 11 -29 11 -3 0 -5 -30 -5 -66 l0 -65
-27 3 -28 3 -3 179 -2 179 37 -5 c21 -3 47 -2 58 3 26 10 55 2 79 -22z m405
20 c17 -6 36 -19 41 -29 6 -10 10 -62 10 -115 l0 -97 -32 3 c-18 1 -48 -1 -66
-5 -50 -12 -82 13 -82 64 0 44 20 64 83 81 28 7 37 15 35 27 -5 26 -48 28 -55
3 -4 -14 -13 -21 -29 -21 -65 0 -15 96 52 99 6 1 25 -4 43 -10z m290 0 c38
-14 51 -35 51 -88 l0 -41 -61 0 c-60 0 -60 0 -57 -27 3 -32 44 -46 54 -19 4
10 18 16 35 16 35 0 39 -25 10 -61 -27 -34 -99 -34 -135 0 -23 22 -26 32 -26
96 0 79 20 120 63 128 12 2 25 5 28 6 3 0 20 -4 38 -10z m198 0 c32 -12 43
-26 43 -56 0 -31 -45 -33 -53 -2 -7 24 -40 23 -45 -2 -2 -10 9 -21 30 -29 75
-30 98 -83 59 -131 -40 -50 -151 -22 -151 38 0 18 5 23 26 23 18 0 28 -6 31
-21 7 -26 48 -23 48 4 0 12 -16 26 -45 40 -89 43 -75 132 22 146 4 1 19 -4 35
-10z m197 -3 c31 -13 53 -55 38 -71 -14 -14 -50 -3 -55 16 -4 13 -12 20 -24
17 -29 -5 -21 -32 15 -50 73 -36 92 -81 53 -129 -15 -19 -29 -24 -66 -24 -37
0 -51 5 -66 24 -29 36 -25 61 10 61 21 0 30 -6 34 -21 7 -25 40 -22 45 3 2 12
-11 24 -43 39 -74 35 -85 107 -21 135 39 17 40 17 80 0z m205 3 c17 -6 36 -19
41 -29 6 -10 10 -62 10 -115 l0 -97 -32 3 c-18 1 -48 -1 -66 -5 -50 -12 -82
13 -82 64 0 44 20 64 83 81 28 7 37 15 35 27 -5 25 -45 27 -58 3 -14 -27 -60
-29 -60 -3 0 36 46 79 86 81 6 1 25 -4 43 -10z m318 -21 c17 -16 23 -33 23
-65 l0 -43 -61 0 c-60 0 -60 0 -57 -27 3 -32 44 -46 54 -19 8 20 64 22 64 2 0
-69 -102 -98 -158 -45 -19 17 -22 31 -22 98 0 68 3 80 23 98 12 11 29 23 37
26 25 10 73 -2 97 -25z m1001 -4 c18 -21 22 -36 22 -98 0 -65 -3 -75 -26 -97
-35 -33 -104 -34 -136 -2 -27 28 -37 127 -17 174 24 60 111 73 157 23z m240 8
c8 -10 12 -52 12 -119 l0 -103 -30 0 -30 0 0 90 c0 75 -3 92 -17 97 -32 12
-53 -32 -53 -113 l0 -74 -30 0 -30 0 0 120 0 120 29 0 c16 0 31 -5 33 -11 2
-6 14 -5 33 5 33 17 63 13 83 -12z m529 -4 c17 -16 23 -33 23 -65 l0 -43 -61
0 c-60 0 -60 0 -57 -27 3 -32 44 -46 54 -19 4 10 18 16 35 16 22 0 29 -5 29
-20 0 -42 -64 -79 -115 -66 -52 13 -65 39 -65 124 0 69 3 81 23 99 12 11 29
23 37 26 25 10 73 -2 97 -25z m540 8 c7 -6 14 -56 17 -118 l6 -108 -35 0 -35
0 0 90 c0 72 -3 92 -15 96 -33 13 -45 -15 -45 -102 l0 -84 -35 0 -35 0 0 120
0 120 35 0 c19 0 35 -4 35 -9 0 -6 12 -3 28 4 28 15 58 12 79 -9z m218 -7 c17
-16 21 -36 23 -120 l4 -100 -44 1 c-23 1 -54 -1 -68 -5 -35 -9 -80 27 -80 64
0 39 19 60 70 75 33 10 46 19 48 35 4 28 -33 29 -50 1 -12 -19 -48 -27 -60
-14 -15 14 11 60 43 77 40 21 85 16 114 -14z m394 20 c36 -13 61 -53 61 -99
l0 -30 -59 0 c-65 0 -73 -5 -64 -38 6 -26 53 -32 53 -7 0 11 11 15 36 15 32 0
35 -2 29 -22 -4 -13 -18 -34 -33 -47 -21 -19 -33 -22 -65 -18 -59 8 -80 35
-85 107 -5 75 11 118 52 136 38 16 36 16 75 3z m204 -3 c15 -8 27 -11 27 -5 0
5 14 9 31 9 l30 0 -3 -155 c-3 -145 -4 -156 -26 -177 -17 -18 -34 -23 -73 -23
-43 0 -54 4 -75 29 -14 15 -24 36 -22 45 5 25 45 26 60 2 27 -43 78 -16 78 40
0 18 -3 20 -12 11 -7 -7 -29 -12 -49 -12 -55 0 -79 34 -79 114 0 85 8 106 44
122 39 17 36 17 69 0z m285 -22 c19 -22 22 -36 22 -120 l0 -95 -42 1 c-24 1
-55 -1 -70 -5 -21 -6 -32 -2 -52 18 -48 48 -29 99 44 121 33 10 46 19 48 35 4
28 -33 29 -50 1 -7 -11 -23 -20 -36 -20 -20 0 -23 4 -20 33 6 65 108 86 156
31z m-3048 -94 l0 -120 -35 0 -35 0 0 113 c0 63 3 117 7 120 3 4 19 7 35 7
l28 0 0 -120z m2280 63 c19 -90 25 -92 45 -14 18 69 20 71 51 71 l32 0 -24
-82 c-79 -281 -76 -273 -113 -276 -28 -3 -33 -1 -27 14 28 74 28 99 -3 207
-18 59 -34 113 -37 122 -5 12 2 15 28 15 34 0 35 -1 48 -57z m-302 -2323 l0
-910 -134 0 -134 0 0 -30 0 -30 125 0 c78 0 125 -4 125 -10 0 -6 -15 -8 -38
-4 -62 10 -119 -12 -172 -65 -62 -62 -90 -136 -90 -234 0 -85 20 -136 74 -187
36 -34 40 -35 114 -35 42 0 85 4 95 9 16 8 17 -19 17 -498 l0 -506 35 0 c34 0
35 1 35 39 0 22 5 43 10 46 6 3 10 -3 10 -14 0 -15 6 -19 30 -19 18 1 40 -8
53 -20 13 -12 29 -22 35 -22 8 0 10 -9 6 -25 -4 -15 -2 -25 5 -25 6 0 11 -7
11 -15 0 -9 9 -15 23 -15 31 0 48 -13 38 -29 -12 -19 -87 3 -94 28 -7 29 -57
16 -57 -15 0 -13 5 -24 10 -24 6 0 10 9 10 20 0 13 5 18 15 13 21 -8 46 -58
39 -77 -4 -11 0 -16 15 -16 12 0 30 -9 41 -20 11 -11 27 -20 35 -20 19 0 33
-32 17 -38 -7 -2 -10 -8 -6 -13 3 -5 -21 -9 -55 -9 -33 0 -62 4 -66 10 -4 6
-15 6 -31 0 -14 -6 -38 -10 -53 -10 -27 0 -28 2 -35 61 -3 34 -6 91 -6 125 l0
64 -39 0 c-37 0 -40 2 -55 43 -21 58 -66 188 -73 210 -5 15 -19 17 -103 17
l-98 0 -41 -112 c-23 -62 -65 -178 -94 -258 l-53 -145 -63 -3 -64 -3 29 30
c47 50 52 80 53 294 l1 198 -82 -3 -83 -3 3 -175 c2 -135 0 -180 -11 -194 -18
-24 -55 -13 -63 20 -6 23 -10 24 -85 24 l-79 0 0 -30 c0 -46 29 -108 64 -135
l31 -25 -135 0 c-121 1 -133 2 -115 15 92 67 105 108 105 332 l0 174 -82 -3
-83 -3 -5 -178 c-5 -194 -6 -197 -66 -197 -19 0 -38 8 -50 21 -17 19 -19 41
-22 190 l-3 169 -80 0 -79 0 0 -177 c0 -98 5 -195 11 -217 6 -22 29 -56 54
-82 l44 -44 -94 0 -95 0 0 -29 c0 -34 16 -40 89 -33 37 3 56 0 69 -10 9 -9 31
-23 47 -31 27 -14 28 -16 8 -17 -33 0 -49 -36 -27 -61 9 -10 26 -19 36 -19 11
0 16 -4 13 -10 -11 -17 -35 -11 -58 16 -32 37 -59 24 -53 -25 3 -20 5 -39 5
-43 2 -14 38 -9 50 6 7 8 25 18 41 21 16 4 41 15 55 26 24 19 25 19 25 2 0
-10 -4 -34 -10 -53 -7 -26 -6 -39 5 -57 20 -31 19 -33 -14 -33 -20 0 -37 9
-54 30 -27 31 -46 39 -48 18 0 -10 -2 -10 -6 0 -2 6 -11 12 -19 12 -12 0 -13
-4 -3 -21 8 -16 8 -28 0 -46 -18 -39 -14 -74 9 -80 19 -5 20 -7 5 -29 -22 -34
-20 -126 5 -173 19 -38 37 -51 68 -51 13 1 11 6 -9 23 -53 44 -76 130 -46 171
7 10 27 19 43 21 48 4 94 17 94 26 0 5 -10 9 -22 9 -13 0 -18 4 -13 8 6 4 11
13 12 20 4 18 -81 16 -97 -3 -11 -14 -14 -13 -27 5 -10 15 -11 25 -3 40 10 19
13 19 40 5 36 -19 57 -19 94 0 22 12 32 12 42 4 8 -6 14 -10 15 -8 4 23 2 72
-3 76 -5 2 -8 -1 -8 -6 0 -6 -4 -11 -10 -11 -15 0 -12 16 5 34 18 18 19 30 3
72 -9 26 -9 38 1 58 8 13 11 36 9 50 -5 25 -4 26 51 28 31 1 70 2 86 3 17 1
38 -1 49 -3 16 -4 17 -6 2 -14 -16 -9 -23 -38 -9 -38 4 0 21 14 39 31 18 17
37 28 43 25 22 -14 10 -42 -34 -84 -48 -45 -61 -52 -51 -25 4 9 1 20 -6 25
-20 12 -25 10 -32 -17 -4 -14 -20 -46 -36 -72 -28 -44 -30 -53 -24 -108 11
-104 11 -109 19 -148 9 -46 -6 -67 -48 -67 -20 0 -41 -10 -59 -27 l-28 -27 0
29 c0 23 -3 26 -12 17 -18 -18 -28 -15 -28 7 0 11 -11 33 -24 48 -22 25 -25
26 -31 10 -19 -49 28 -134 60 -107 16 13 19 8 15 -24 -1 -12 3 -17 12 -14 17
7 17 -12 -2 -111 -10 -56 -11 -76 -2 -79 15 -5 -15 -52 -34 -52 -8 0 -14 -4
-14 -9 0 -5 -15 -9 -32 -8 -29 1 -110 -31 -158 -62 -27 -17 -104 -49 -145 -60
-22 -6 -53 -19 -68 -30 -28 -18 -67 -18 -67 0 0 4 -16 11 -35 15 -34 6 -35 8
-35 50 0 24 5 44 10 44 6 0 10 6 9 13 -1 6 1 20 5 29 5 10 1 30 -7 48 -11 21
-16 64 -16 150 -1 119 -1 120 19 103 25 -21 26 -33 3 -34 -14 0 -15 -2 -3 -6
8 -3 30 -19 48 -36 20 -20 32 -26 32 -16 0 19 -11 33 -35 47 -12 7 -15 12 -6
12 9 0 4 10 -13 26 -14 15 -26 33 -26 40 0 8 -4 14 -10 14 -6 0 -10 40 -10
100 0 83 3 101 18 110 13 9 13 10 1 7 -13 -4 -16 6 -17 64 -1 39 2 69 7 69 6
0 30 -13 54 -30 25 -16 50 -30 56 -30 21 0 84 30 78 37 -4 3 -12 1 -20 -5 -20
-17 -83 -9 -116 16 -17 12 -37 22 -46 22 -12 0 -15 14 -15 70 l0 70 65 0 c51
0 65 -3 65 -15 0 -8 5 -15 11 -15 6 0 9 7 5 15 -4 12 5 15 54 15 60 0 60 0 60
30 l0 30 -110 0 -110 0 0 74 0 73 80 11 c96 12 139 37 169 98 25 49 27 101 6
151 -34 81 -91 112 -207 113 l-78 0 0 360 0 360 30 0 30 0 0 -106 0 -105 37 3
37 3 1 100 2 100 40 3 c30 2 42 8 46 22 3 10 2 21 -1 24 -3 3 -54 6 -114 6
l-108 0 0 120 0 120 -40 0 c-22 0 -40 5 -40 10 0 6 18 10 40 10 l40 0 0 125 0
124 128 3 127 3 3 27 3 27 -128 3 -128 3 0 905 0 905 130 5 c72 3 479 4 906 2
l776 -2 1 -910z m-2347 900 l470 0 -3 -142 -3 -143 -60 -3 c-43 -3 -68 -10
-90 -27 -62 -47 -278 -271 -291 -302 -57 -132 75 -257 209 -199 18 8 72 55
121 105 50 50 93 91 97 91 4 0 10 -52 14 -115 5 -76 11 -115 18 -115 7 0 5 -5
-3 -10 -12 -8 -15 -39 -15 -177 0 -92 -2 -183 -3 -201 l-2 -33 -103 103 c-56
57 -115 109 -130 116 -41 18 -92 15 -136 -8 -63 -31 -98 -125 -72 -193 14 -37
292 -314 323 -322 15 -4 47 -5 72 -4 l44 4 7 -92 c11 -149 69 -132 -478 -135
-260 -2 -664 -2 -899 0 l-428 2 0 114 0 114 58 18 c205 64 384 270 429 496 15
76 16 100 5 194 -6 59 -16 112 -22 118 -5 5 -10 17 -10 25 0 9 -17 48 -38 88
-75 143 -229 274 -377 318 l-40 12 -3 151 -3 152 423 2 c233 2 429 2 436 1 8
-2 225 -3 483 -3z m2896 -9 c21 -6 35 -5 42 2 18 18 13 -26 -9 -78 -11 -26
-23 -65 -26 -88 -4 -23 -11 -50 -16 -60 -16 -31 -1 -31 49 1 26 16 58 33 71
37 12 3 22 13 22 21 0 18 43 39 64 31 29 -11 17 -25 -48 -56 -78 -37 -94 -55
-42 -49 40 4 42 2 21 -26 -8 -10 -12 -22 -10 -26 2 -4 -11 -25 -29 -46 l-34
-39 26 -23 27 -22 -47 6 c-33 4 -48 3 -48 -5 0 -7 9 -9 24 -5 39 9 27 -16 -39
-86 -33 -34 -58 -67 -57 -74 2 -6 0 -8 -4 -3 -7 6 -33 -39 -39 -69 -2 -6 -15
-30 -30 -53 -25 -37 -27 -47 -22 -109 6 -83 31 -141 91 -215 57 -70 39 -75
-24 -7 -54 58 -90 149 -90 223 0 44 -2 47 -15 33 -9 -8 -22 -30 -30 -48 -13
-30 -14 -31 -14 -8 0 14 6 39 12 55 20 52 88 165 106 178 10 6 22 23 26 37 7
22 6 23 -9 11 -14 -11 -16 -11 -16 2 0 9 5 19 11 22 29 19 90 225 65 225 -3 0
-15 -9 -26 -20 -11 -11 -26 -20 -34 -20 -8 0 -18 -9 -21 -20 -6 -19 -35 -29
-35 -12 0 16 37 62 85 104 40 37 47 48 38 60 -28 33 -56 202 -36 221 9 9 32 9
70 -2z m1319 -126 c0 -71 -1 -97 -3 -57 -3 63 -6 72 -18 62 -8 -7 -15 -24 -15
-38 0 -23 -3 -22 -29 19 -15 24 -38 55 -50 68 -11 13 -21 28 -21 32 0 5 -10
18 -22 29 l-23 21 90 -3 90 -3 1 -130z m-1596 97 c0 -15 -6 -36 -13 -47 -16
-24 -15 -33 2 -64 8 -14 11 -37 6 -60 -15 -90 -17 -121 -5 -121 9 0 10 -22 4
-87 -4 -49 -7 -110 -7 -137 1 -30 -5 -55 -13 -64 -13 -12 -14 -7 -14 40 1 29
-1 169 -5 311 l-6 257 26 0 c21 0 25 -5 25 -28z m1135 -81 c3 -15 17 -38 31
-50 31 -27 30 -74 -1 -79 -25 -5 -85 -49 -85 -64 0 -5 -11 -23 -25 -40 -29
-34 -31 -61 -10 -111 8 -20 15 -52 15 -72 0 -22 6 -38 15 -41 8 -4 15 -14 15
-23 0 -9 5 -22 11 -28 6 -6 9 -21 7 -34 -2 -17 -15 -27 -51 -39 -26 -9 -53
-24 -60 -34 -13 -18 -127 -46 -185 -46 -18 0 -44 8 -59 17 -14 10 -33 18 -42
20 -8 1 -23 12 -33 25 -19 25 -58 132 -58 160 0 24 35 89 44 81 3 -3 6 6 6 20
0 24 4 27 38 27 l37 0 -23 18 c-18 14 -20 20 -10 30 18 18 23 15 38 -24 10
-24 25 -40 47 -49 35 -15 37 -45 3 -45 -25 0 -33 -15 -16 -29 10 -9 15 -8 19
2 3 8 16 14 29 13 13 -1 38 9 56 22 29 22 32 29 32 76 0 43 -5 57 -25 76 -22
20 -31 22 -85 17 -35 -3 -69 -12 -79 -21 -14 -12 -20 -13 -30 -3 -9 9 -4 19
26 45 36 31 41 32 94 26 79 -9 139 25 69 39 -59 12 -4 57 70 57 55 0 88 18 95
51 4 15 14 30 23 32 40 11 51 7 57 -22z m-5018 -573 c59 -57 77 -85 99 -157
25 -83 17 -144 -29 -240 -35 -70 -41 -81 -49 -81 -4 0 -23 -13 -41 -30 -19
-16 -40 -30 -46 -30 -8 0 -11 84 -11 295 0 205 3 295 11 295 6 0 35 -24 66
-52z m3878 -89 c3 -30 8 -68 11 -86 3 -18 0 -55 -7 -82 -10 -41 -10 -53 1 -66
12 -15 16 -182 4 -194 -8 -9 -22 21 -17 36 3 7 0 20 -7 28 -15 18 -14 266 1
276 7 4 5 8 -4 12 -15 6 -16 57 -2 116 8 34 14 22 20 -40z m858 -44 c10 -9 26
-12 50 -8 29 4 40 1 67 -26 18 -17 41 -31 50 -31 26 0 31 -12 13 -32 -14 -16
-14 -22 -3 -43 7 -13 16 -22 20 -20 18 11 16 -35 -1 -51 -20 -18 -103 -30
-142 -20 -24 6 -97 70 -97 86 0 5 -8 17 -19 27 -10 10 -22 28 -26 41 -5 19 -2
24 24 33 23 8 31 17 31 35 0 27 12 31 33 9z m-1015 -616 c12 -19 21 -21 80
-17 l67 3 9 -53 c7 -43 6 -55 -8 -70 -21 -24 -20 -29 6 -35 21 -6 21 -7 4 -26
-17 -19 -17 -19 23 -14 38 5 41 4 41 -17 0 -23 0 -23 21 -4 33 30 53 8 59 -65
3 -35 3 -64 1 -67 -2 -2 -80 -4 -173 -4 l-168 0 2 163 c1 89 3 152 5 140 2
-12 11 -24 19 -27 25 -10 16 33 -13 58 -17 15 -24 29 -20 39 9 23 30 21 45 -4z
m1372 -70 c0 -27 55 -63 95 -64 22 0 44 -4 48 -10 6 -6 10 -6 14 2 3 9 10 10
24 3 40 -22 13 -160 -32 -160 -28 0 -67 25 -124 78 -29 28 -63 56 -75 62 -20
11 -20 13 -5 36 14 22 12 28 -7 25 -5 0 -8 4 -8 10 0 6 7 8 15 5 9 -3 18 1 21
9 7 18 34 20 34 4z m-761 -189 c33 -33 62 -68 65 -78 6 -17 0 -20 -41 -24 -27
-3 -61 -5 -78 -3 -16 1 -50 3 -75 5 -25 1 -36 5 -25 7 11 2 26 17 34 33 10 25
19 30 47 30 27 0 37 -5 44 -22 8 -22 9 -22 9 5 1 28 -3 31 -49 41 -27 6 -54
41 -45 56 16 26 57 8 114 -50z m35 -222 c-4 -7 1 -7 17 -2 13 5 51 9 84 9 69
0 142 -31 137 -58 -2 -10 7 -19 23 -23 24 -6 29 -14 26 -41 -1 -7 3 -13 9 -13
5 0 10 7 10 15 0 8 7 15 15 15 20 0 30 -47 15 -75 -13 -24 -5 -69 11 -60 5 4
7 -19 4 -55 -4 -47 -2 -60 9 -60 11 0 16 -21 22 -80 5 -58 11 -83 23 -90 15
-9 15 -9 -1 -10 -11 0 -18 -12 -23 -41 -7 -43 1 -57 35 -60 8 -1 26 -3 40 -4
13 -1 26 -8 28 -14 2 -6 8 -9 13 -5 5 3 22 7 37 9 15 2 21 2 15 -1 -7 -3 -13
-10 -13 -15 0 -6 5 -7 10 -4 6 3 10 -2 10 -13 0 -16 -9 -20 -56 -25 -30 -3
-61 -11 -68 -17 -9 -6 -22 -7 -37 -2 -19 8 -26 4 -44 -23 -12 -17 -24 -52 -27
-77 -4 -38 -1 -52 22 -87 16 -23 30 -37 32 -32 2 6 23 4 52 -3 44 -11 48 -14
30 -24 -18 -11 -18 -12 3 -9 12 2 25 6 29 9 10 10 34 -3 34 -18 0 -8 -7 -14
-15 -14 -13 0 -12 -4 4 -21 11 -12 27 -19 38 -16 15 4 14 5 -4 6 -13 0 -23 6
-23 12 0 7 11 8 30 4 20 -4 35 -2 45 9 20 20 19 26 -5 26 -11 0 -20 5 -20 11
0 7 9 9 21 6 24 -6 37 17 20 37 -6 7 -8 16 -4 19 3 4 12 -1 19 -11 12 -14 15
-15 23 -3 8 12 14 9 34 -15 25 -30 58 -38 84 -21 9 6 11 3 6 -9 -5 -15 -1 -16
33 -12 33 5 42 2 56 -17 16 -21 16 -24 1 -29 -20 -8 -53 2 -53 16 0 7 -5 6
-14 -1 -11 -9 -15 -9 -19 1 -4 10 -9 8 -17 -5 -8 -12 -16 -15 -23 -9 -7 5 -20
6 -31 3 -17 -7 -17 -8 -2 -24 16 -15 15 -18 -3 -36 -11 -11 -23 -16 -26 -11
-3 4 0 10 6 12 7 2 7 12 -1 32 -8 22 -8 31 1 36 19 12 -6 20 -37 11 -17 -4
-31 -15 -33 -27 -2 -10 -8 -23 -15 -27 -7 -6 -4 -7 7 -3 11 3 17 0 17 -10 0
-23 -29 -28 -50 -9 -10 9 -24 14 -30 10 -7 -4 -16 -1 -21 6 -17 28 -29 -17
-15 -58 5 -14 3 -23 -3 -23 -6 0 -11 4 -11 10 0 6 -9 6 -26 0 -17 -7 -31 -7
-38 -1 -7 6 -17 6 -26 1 -20 -13 -30 -12 -30 0 0 6 7 10 15 10 8 0 15 4 15 9
0 10 -29 36 -31 27 -1 -3 -2 -10 -3 -16 0 -5 -5 -9 -11 -7 -5 1 -9 8 -7 15 2
6 -1 12 -7 12 -5 0 -15 2 -23 5 -8 3 -21 -7 -31 -24 -23 -39 -22 -62 3 -33 17
21 39 15 26 -7 -3 -5 1 -12 10 -15 8 -3 12 -11 9 -17 -4 -6 -14 -8 -22 -5 -11
5 -14 -1 -11 -21 3 -24 -1 -28 -27 -30 -18 -1 -35 4 -41 13 -10 13 -12 13 -18
-1 -3 -8 -1 -15 4 -15 6 0 10 -9 10 -20 0 -11 -4 -20 -10 -20 -5 0 -10 -5 -10
-11 0 -6 8 -9 19 -6 14 3 17 0 14 -14 -6 -21 12 -25 37 -9 16 10 40 -10 53
-42 8 -22 3 -23 -17 -2 -9 8 -16 12 -16 7 0 -4 27 -37 60 -72 33 -36 60 -70
60 -77 0 -7 5 -14 10 -16 6 -2 13 -19 15 -37 3 -25 1 -31 -6 -24 -12 12 -39 7
-39 -7 0 -5 8 -10 18 -12 40 -8 -55 -40 -135 -45 l-83 -6 0 55 c0 38 5 60 15
68 11 9 14 22 9 43 l-6 30 46 -5 46 -6 -61 59 c-59 56 -60 59 -55 101 3 24 8
100 12 170 6 119 5 129 -15 157 -12 16 -21 34 -21 40 0 6 -9 15 -20 21 -15 8
-18 17 -14 38 4 19 0 32 -10 41 -41 34 3 55 60 29 24 -11 29 -10 55 20 17 18
31 49 35 72 9 55 22 59 30 9 10 -62 22 -28 24 66 2 159 4 176 19 170 9 -4 11
0 6 12 -29 67 -55 147 -60 184 -18 129 -122 209 -273 209 -54 0 -112 -22 -112
-41 0 -6 -11 -24 -25 -41 -14 -16 -28 -42 -31 -56 -4 -15 -16 -37 -27 -49 -24
-27 -36 -85 -37 -186 0 -86 -7 -106 -53 -154 -17 -18 -28 -36 -24 -39 3 -4 -5
-16 -19 -27 -21 -16 -25 -26 -20 -50 4 -17 16 -42 29 -55 l22 -24 -32 -27
c-28 -23 -33 -34 -33 -69 0 -23 -5 -42 -11 -42 -17 0 0 -132 20 -149 15 -13
15 -13 -1 -8 -20 7 -25 -12 -7 -30 5 -5 12 -26 14 -45 4 -26 0 -40 -15 -53
-18 -16 -20 -16 -26 -1 -3 9 -2 34 4 56 l10 40 -39 -5 c-31 -4 -39 -2 -39 11
0 22 -25 11 -26 -12 -1 -10 -2 -25 -3 -32 -1 -18 -26 -9 -26 9 0 8 -8 13 -17
11 -9 -1 -23 7 -32 20 -15 20 -14 23 14 46 17 14 30 31 30 38 0 7 6 14 13 17
9 3 9 7 -1 19 -10 13 -9 22 8 52 12 19 19 40 16 45 -3 5 1 12 10 15 20 8 14
53 -6 47 -8 -2 -23 -4 -32 -5 -10 0 -20 -11 -23 -27 -4 -15 -14 -34 -23 -41
-15 -11 -15 -11 -5 2 6 8 15 31 20 50 8 30 14 35 38 35 16 1 30 6 33 13 2 7
14 12 27 12 12 0 25 6 28 14 6 16 -16 28 -37 20 -8 -3 -17 -1 -21 5 -4 8 -12
8 -27 0 -29 -15 -41 1 -32 46 6 32 10 36 30 32 13 -2 24 0 24 4 0 5 9 9 20 9
11 0 20 -7 20 -15 0 -8 5 -15 11 -15 6 0 8 -9 4 -20 -5 -14 -2 -20 9 -20 18 0
19 5 17 110 -1 41 2 80 6 86 4 7 26 19 48 28 33 14 37 19 23 27 -11 6 -25 5
-42 -3 -15 -6 -29 -8 -33 -4 -12 12 13 26 49 28 l36 1 -21 19 -22 19 32 -4
c23 -2 30 0 23 7 -5 7 -2 21 10 36 11 14 20 41 20 60 0 19 9 46 20 60 11 14
20 34 20 46 0 20 48 95 69 109 6 3 11 15 11 26 0 11 4 17 10 14 5 -3 15 3 22
15 7 11 21 20 31 20 9 0 22 11 29 25 6 13 15 22 20 19 4 -3 5 -10 2 -16z
m-800 -109 c19 -15 26 -30 26 -55 0 -31 3 -34 30 -34 17 0 30 -4 30 -10 0 -5
-13 -10 -30 -10 -30 0 -30 -1 -30 -55 0 -69 -29 -105 -83 -105 -73 0 -113 66
-105 173 4 52 9 64 36 88 39 35 88 38 126 8z m974 -34 c6 -14 16 -25 20 -25 5
0 17 -20 26 -45 l18 -45 -28 -23 c-32 -28 -27 -56 17 -87 16 -12 29 -30 29
-40 0 -22 -16 -35 -25 -20 -3 5 -23 10 -43 10 -30 -1 -34 -2 -19 -11 21 -12
13 -29 -13 -29 -10 0 -22 -5 -26 -12 -5 -8 0 -9 14 -6 12 4 25 2 28 -3 3 -5 0
-9 -5 -9 -6 0 -11 -4 -11 -10 0 -5 14 -10 30 -10 33 0 37 -7 17 -35 -22 -29
-69 -28 -144 6 -76 34 -113 64 -113 91 0 23 -20 24 -21 1 0 -14 -2 -15 -6 -3
-3 8 -15 26 -25 40 l-19 24 35 18 c20 10 36 26 36 36 0 28 38 82 72 100 17 9
54 38 82 65 28 26 53 47 57 47 3 0 11 -11 17 -25z m-3199 -221 l61 -7 -2 -486
-3 -486 -137 -3 -138 -3 0 496 0 495 79 0 c43 0 106 -3 140 -6z m-1047 -164
c24 -30 23 -81 -3 -114 -26 -33 -86 -37 -114 -6 -27 29 -25 93 4 123 29 32 86
30 113 -3z m370 -1 c11 -12 18 -32 16 -43 -3 -18 -11 -21 -56 -24 -61 -4 -69
-27 -9 -28 44 -1 54 -8 37 -29 -18 -22 -70 -19 -97 7 -31 29 -32 92 -1 125 28
30 83 26 110 -8z m3540 -114 c-3 -18 0 -25 12 -25 9 0 16 -7 16 -15 0 -8 7
-15 15 -15 8 0 15 7 15 15 0 19 40 20 64 2 10 -7 17 -21 15 -30 -4 -15 -7 -15
-31 -3 -16 8 -28 11 -28 5 0 -5 5 -9 12 -9 6 0 8 -3 4 -7 -4 -5 -13 -8 -19 -8
-7 0 -12 -14 -11 -30 1 -39 -12 -46 -63 -39 -36 5 -45 3 -74 -25 -47 -46 -70
-38 -29 9 11 13 20 28 20 35 0 7 10 16 22 22 l23 10 -23 12 c-17 9 -27 9 -36
2 -23 -19 -26 1 -4 33 29 42 76 86 92 86 9 0 12 -9 8 -25z m-3812 -210 c9 -26
8 -41 -4 -68 -15 -38 -35 -48 -79 -43 -38 5 -56 25 -64 69 -7 47 16 83 60 95
41 11 72 -8 87 -53z m-280 8 c8 -23 18 -45 22 -48 3 -3 14 16 23 44 12 38 22
51 36 51 26 0 24 -20 -14 -117 -37 -96 -59 -126 -89 -121 -29 4 -34 25 -8 33
25 8 49 53 34 63 -15 10 -64 129 -56 136 15 16 38 -2 52 -41z m362 9 c-6 -58
7 -92 34 -92 23 0 24 3 24 65 0 58 2 65 20 65 18 0 20 -7 20 -85 0 -85 -8
-103 -37 -74 -8 8 -13 8 -17 0 -12 -19 -54 -12 -70 11 -11 15 -16 45 -16 86 0
60 1 63 23 60 18 -2 21 -8 19 -36z m-96 -283 c26 -29 23 -93 -6 -124 -16 -17
-31 -23 -58 -20 -67 5 -95 83 -51 139 26 34 86 37 115 5z m191 -5 c42 -64 0
-148 -69 -140 -62 7 -90 86 -48 138 28 37 93 37 117 2z m131 -252 c3 -38 5
-41 18 -27 21 20 40 19 64 -5 18 -18 20 -31 18 -88 -2 -52 -6 -67 -18 -67 -11
0 -16 13 -18 45 -4 71 -11 90 -31 90 -24 0 -31 -19 -31 -81 0 -42 -3 -49 -20
-49 -19 0 -20 7 -20 116 0 105 2 115 18 112 12 -2 18 -15 20 -46z m4492 8 c0
-5 -7 -10 -16 -10 -11 0 -15 -6 -11 -20 3 -13 0 -20 -10 -20 -8 0 -13 -6 -10
-12 2 -7 20 -13 39 -13 34 0 68 -18 68 -36 0 -5 -9 -9 -20 -9 -14 0 -20 -7
-20 -21 0 -12 -8 -23 -20 -26 -11 -3 -20 -12 -20 -19 0 -8 -4 -14 -10 -14 -18
0 -10 32 9 37 30 8 35 33 8 33 -13 0 -28 5 -35 12 -7 7 -24 12 -40 13 -15 0
-26 6 -25 13 2 9 -3 9 -22 0 -14 -6 -25 -17 -25 -25 0 -7 -5 -13 -11 -13 -6 0
-9 6 -6 14 3 8 1 16 -5 18 -14 5 2 33 20 34 6 1 26 2 44 3 17 0 29 4 25 7 -12
12 51 61 81 63 6 1 12 -3 12 -9z m-5014 -45 c21 -28 19 -144 -2 -152 -24 -9
-34 15 -34 80 0 50 -2 57 -20 57 -18 0 -20 -7 -20 -64 0 -67 -10 -86 -35 -66
-19 16 -21 156 -2 163 32 10 100 0 113 -18z m184 -45 c4 -58 8 -65 27 -68 21
-3 22 1 25 65 2 52 6 68 18 68 12 0 16 -18 18 -87 2 -75 0 -88 -13 -88 -9 0
-18 7 -22 16 -5 15 -7 15 -15 0 -27 -49 -88 10 -88 85 0 59 8 81 29 77 12 -2
17 -19 21 -68z m3125 -252 l13 -33 -79 -3 -79 -3 0 -34 c0 -33 2 -35 33 -35
l34 0 -10 -57 c-5 -32 -9 -68 -9 -80 0 -13 -4 -23 -9 -23 -12 0 -12 -107 0
-112 12 -4 14 -73 7 -228 -6 -132 -6 -134 -30 -179 -34 -63 -45 -109 -36 -140
6 -21 5 -31 -3 -35 -7 -2 -4 -5 6 -5 16 -1 16 -3 2 -25 -13 -19 -15 -46 -11
-140 5 -122 1 -142 -46 -233 l-22 -42 27 -58 c35 -75 32 -149 -12 -260 -23
-59 -30 -91 -28 -130 l2 -53 -95 0 -95 0 1 88 c1 88 11 424 19 609 2 56 1 105
-4 107 -15 9 0 300 24 472 8 55 19 159 24 231 11 140 23 189 43 177 10 -6 10
-4 2 7 -15 20 -10 99 7 110 8 5 46 9 85 9 68 0 72 1 76 25 6 29 2 35 -24 35
-21 0 -22 8 -8 44 9 25 12 26 95 26 l86 0 14 -32z m-2895 -107 c74 -4 125 -8
113 -9 -12 -1 -24 -11 -28 -21 -3 -11 -12 -18 -19 -15 -7 3 -16 -2 -20 -12 -4
-12 -2 -15 9 -10 8 3 15 1 15 -4 0 -6 -4 -10 -9 -10 -5 0 -11 -10 -15 -22 -5
-18 -8 -20 -15 -9 -7 11 -10 9 -16 -8 -3 -11 -12 -21 -20 -21 -7 0 -15 -10
-19 -22 -5 -19 -8 -21 -16 -8 -8 12 -10 11 -10 -7 0 -14 -6 -23 -15 -23 -9 0
-15 -9 -15 -24 0 -13 -6 -26 -14 -29 -7 -3 -16 -17 -20 -31 -6 -25 -39 -66
-52 -66 -12 0 -30 -26 -26 -38 2 -6 0 -12 -5 -12 -4 0 -14 -9 -21 -21 -15 -23
-4 -20 30 8 10 9 18 11 22 4 6 -9 -52 -61 -68 -61 -7 0 -10 -2 -66 -48 -19
-16 -50 -37 -68 -48 -37 -21 -47 -48 -38 -99 6 -29 3 -36 -19 -51 -29 -19 -34
-40 -6 -24 30 15 35 12 19 -12 -8 -13 -21 -41 -28 -63 -14 -45 -59 -137 -70
-145 -4 -3 -9 -15 -12 -27 -4 -15 -2 -20 7 -17 9 4 12 -7 10 -40 l-3 -45 31
22 c18 12 42 30 55 41 22 19 22 19 22 -2 0 -25 22 -29 44 -7 17 17 36 20 36 5
0 -5 9 -18 21 -29 12 -11 18 -25 14 -31 -4 -6 -8 -21 -9 -33 -9 -74 -19 -109
-27 -96 -5 8 -9 26 -9 42 0 31 -8 33 -36 12 -10 -8 -28 -15 -39 -15 -26 0 -74
-45 -87 -81 -9 -27 -38 -41 -38 -19 0 6 5 10 11 10 5 0 7 4 4 10 -4 6 -15 4
-30 -6 -13 -8 -36 -16 -51 -17 -19 -2 -30 -9 -32 -21 -5 -26 -29 -49 -37 -36
-13 21 -25 -3 -25 -52 0 -28 -2 -49 -6 -46 -3 3 -7 330 -9 727 l-4 721 287 -1
c158 -1 348 -5 422 -8z m1109 -213 c-1 -123 -4 -261 -7 -308 l-7 -85 -27 3
c-16 2 -28 0 -28 -5 0 -13 -37 -33 -74 -39 -32 -5 -35 -3 -42 28 -4 18 -7 114
-6 213 1 99 -2 206 -8 238 -8 51 -15 64 -55 101 -25 23 -47 40 -50 38 -3 -3
-5 0 -5 6 0 8 -21 13 -57 14 -54 2 -53 2 22 8 44 3 140 7 213 8 l132 2 -1
-222z m-435 181 c13 -7 30 -25 37 -40 6 -16 18 -29 25 -29 8 0 14 -4 14 -10 0
-5 -4 -10 -8 -10 -5 0 -9 -39 -9 -87 l0 -88 -79 -16 -79 -16 -7 -44 c-7 -42
-2 -134 9 -172 4 -17 7 -17 21 -4 14 12 27 14 66 6 27 -5 51 -10 52 -12 2 -1
-2 -21 -8 -44 -8 -32 -17 -44 -39 -54 -27 -10 -32 -9 -50 10 -11 11 -24 21
-29 21 -4 0 -23 -18 -41 -41 -23 -29 -37 -39 -51 -35 -26 6 -48 -3 -48 -19 0
-7 -17 -16 -37 -20 -35 -6 -36 -8 -19 -21 16 -11 17 -14 4 -19 -20 -8 -12 -47
22 -105 41 -71 43 -79 16 -90 -13 -4 -26 -16 -30 -25 -5 -14 -16 -17 -55 -13
-42 4 -62 15 -150 83 -141 107 -208 213 -218 339 -5 57 -3 64 29 112 41 61 50
81 38 89 -5 3 -11 -2 -13 -10 -4 -11 -5 -10 -3 2 1 13 22 25 73 41 75 25 79
25 155 -15 4 -2 5 3 2 11 -4 10 -1 16 10 16 8 0 18 -11 22 -24 3 -14 17 -32
30 -41 13 -8 24 -24 24 -34 0 -36 44 -13 154 78 45 37 51 60 21 76 -11 5 -35
21 -54 34 -18 13 -54 32 -79 41 -26 10 -48 25 -50 33 -3 15 30 57 46 57 4 0
23 18 42 40 24 28 42 40 62 40 15 0 30 5 33 10 8 14 118 13 149 -1z m2514 -18
c140 -51 284 -159 367 -276 204 -285 195 -667 -22 -935 -71 -87 -128 -137
-219 -190 -69 -40 -226 -95 -248 -87 -9 4 -13 40 -14 143 -2 148 1 174 24 174
31 0 120 55 175 107 167 159 191 408 60 602 -53 78 -156 156 -226 170 l-30 7
-3 157 -3 157 29 0 c16 0 65 -13 110 -29z m948 13 l52 -7 -2 -496 -1 -496 24
-52 c47 -105 141 -164 256 -160 81 3 140 31 194 92 68 77 65 58 69 611 l3 502
60 6 c32 4 64 4 69 1 6 -4 10 -248 10 -683 l-1 -677 -49 -38 c-112 -86 -267
-134 -402 -123 -260 21 -455 183 -518 432 -19 72 -20 112 -20 580 l0 503 38 4
c65 7 165 7 218 1z m-1949 -56 c36 -16 52 -37 53 -66 0 -13 5 -33 11 -44 13
-25 3 -33 -51 -42 -35 -5 -39 -9 -69 -82 -23 -54 -29 -80 -22 -87 18 -18 12
-37 -10 -37 -18 0 -19 -3 -9 -15 6 -8 9 -19 6 -24 -4 -6 5 -16 19 -23 l26 -14
-24 -23 c-21 -19 -30 -21 -58 -14 -30 8 -37 17 -61 74 -44 106 -36 249 14 249
9 0 21 7 28 15 10 12 10 15 -4 15 -37 0 -15 38 52 94 48 40 58 42 99 24z m815
-848 c9 0 9 -3 0 -12 -9 -9 -12 -78 -12 -249 0 -198 -2 -239 -15 -249 -8 -7
-15 -17 -15 -22 0 -6 7 -8 15 -4 12 4 15 -5 14 -52 0 -54 -1 -56 -15 -35 l-16
22 -24 -28 c-29 -34 -32 -88 -7 -106 16 -12 16 -16 -5 -58 -12 -24 -22 -49
-22 -56 0 -6 -18 -11 -45 -11 -25 0 -45 5 -45 10 0 6 4 10 9 10 5 0 11 11 13
25 3 14 1 22 -4 19 -16 -10 1 66 24 107 19 34 20 42 8 64 -11 21 -12 34 -2 71
7 24 12 53 12 64 0 11 7 20 15 20 8 0 15 6 15 14 0 7 -7 19 -15 26 -19 15 -20
64 -2 82 7 7 14 18 14 23 0 6 10 14 22 20 25 11 28 45 5 45 -10 0 -14 6 -11
15 4 8 2 17 -3 20 -14 9 -12 89 2 103 11 11 20 49 20 90 0 12 3 22 7 22 3 0 6
19 6 43 0 28 6 50 18 61 15 15 17 42 19 219 3 199 3 199 5 -55 3 -190 6 -258
15 -258z m-1901 150 c0 -11 1 -74 1 -140 0 -66 -1 -123 -1 -126 -1 -3 -15 6
-32 20 -17 14 -37 26 -44 26 -7 0 -20 6 -27 13 -7 7 -21 16 -32 20 -15 6 -16
10 -6 22 9 10 9 15 1 15 -6 0 -11 -4 -11 -10 0 -15 -16 -12 -34 5 -8 8 -20 15
-27 15 -8 0 -10 12 -5 38 3 20 6 48 6 62 l0 25 25 -28 c20 -21 30 -25 44 -18
12 7 26 5 47 -8 29 -18 29 -18 41 8 l11 26 1 -27 c1 -15 6 -30 11 -33 6 -4 10
17 10 54 0 34 4 61 10 61 6 0 10 -9 11 -20z m-801 -247 c0 -13 3 -22 8 -21 13
3 77 -14 90 -24 6 -6 12 -21 12 -33 0 -12 7 -28 14 -35 8 -6 20 -26 26 -44 9
-29 57 -83 70 -79 8 2 5 -132 -5 -214 -4 -40 -11 -72 -14 -71 -3 1 -19 -4 -35
-11 -33 -13 -63 -7 -89 20 -10 11 -22 19 -28 19 -5 0 -24 15 -43 33 -50 48
-78 71 -108 86 -15 8 -39 27 -54 42 -27 28 -27 29 -15 97 9 53 10 79 0 116
-16 66 -6 126 26 152 25 20 28 20 85 5 51 -13 60 -19 60 -38z m1061 5 c11 -11
19 -25 19 -29 0 -5 7 -6 15 -3 19 8 20 -12 1 -23 -8 -4 -16 -21 -18 -37 -3
-33 -6 -33 -113 -38 l-70 -3 0 70 0 70 62 1 c35 0 66 3 69 7 11 11 15 9 35
-15z"/>
<path d="M6613 9773 c-20 -4 -23 -11 -23 -51 l0 -47 85 0 85 0 0 46 c0 40 -3
48 -22 53 -25 6 -90 6 -125 -1z"/>
<path d="M2990 6580 l0 -30 494 0 493 0 5 -172 c5 -171 -1 -230 -25 -245 -6
-4 -32 -7 -56 -8 l-45 0 -12 -49 c-7 -28 -11 -53 -8 -58 3 -4 33 -8 68 -8 53
0 68 4 103 30 70 52 85 103 97 323 l9 187 69 0 68 0 0 30 0 30 -630 0 -630 0
0 -30z"/>
<path d="M2990 5910 l0 -130 75 -2 c151 -4 140 -6 140 22 0 24 -3 25 -73 28
-73 3 -73 3 -70 30 3 24 7 27 36 24 18 -2 46 -1 63 3 24 5 29 11 27 28 -3 20
-10 22 -65 25 -59 3 -63 4 -63 27 0 24 2 25 75 25 73 0 75 1 75 25 l0 25 -110
0 -110 0 0 -130z"/>
<path d="M3250 5460 l0 -130 35 0 35 0 0 55 c0 30 4 55 8 55 5 0 30 -25 56
-55 45 -52 50 -55 94 -55 l46 0 -49 51 c-33 34 -45 53 -37 56 22 8 52 46 52
66 0 59 -51 87 -160 87 l-80 0 0 -130z"/>
<path d="M3560 5460 l0 -130 40 0 40 0 0 130 0 130 -40 0 -40 0 0 -130z"/>
<path d="M1535 8114 c-17 -9 -41 -31 -54 -50 -20 -29 -23 -43 -19 -100 l4 -65
152 -152 152 -151 63 -4 c49 -2 69 1 94 17 35 22 73 86 73 123 0 67 -20 96
-160 235 -77 76 -152 143 -167 150 -38 16 -102 15 -138 -3z"/>
<path d="M1754 7351 c-63 -46 -283 -278 -290 -306 -4 -14 -4 -51 -2 -82 4 -47
10 -61 36 -84 40 -36 95 -51 145 -40 47 11 46 10 204 166 106 106 133 138 142
172 39 145 -117 261 -235 174z"/>
</g>
</svg>
