<?xml version="1.0" standalone="no"?>
<!DOCTYPE svg PUBLIC "-//W3C//DTD SVG 20010904//EN"
 "http://www.w3.org/TR/2001/REC-SVG-20010904/DTD/svg10.dtd">
<svg version="1.0" xmlns="http://www.w3.org/2000/svg"
 width="720.000000pt" height="1280.000000pt" viewBox="0 0 720.000000 1280.000000"
 preserveAspectRatio="xMidYMid meet">
<metadata>
Created by potrace 1.16, written by Peter Selinger 2001-2019
</metadata>
<g transform="translate(0.000000,1280.000000) scale(0.100000,-0.100000)"
fill="#000000" stroke="none">
<path d="M0 6400 l0 -6400 3600 0 3600 0 0 1025 0 1025 -3590 0 -3590 0 0
1373 0 1372 143 0 c125 1 147 3 182 22 25 13 42 17 46 11 9 -14 141 256 142
292 0 3 9 32 19 65 50 156 73 320 64 446 -11 172 -16 206 -35 289 -19 82 -50
179 -61 190 -20 19 -41 65 -37 81 3 10 2 21 -3 24 -4 3 -11 20 -14 40 -4 19
-14 40 -24 47 -9 7 -19 24 -20 38 -2 14 -8 29 -13 34 -12 13 -118 46 -146 46
-13 0 -23 5 -23 11 0 10 -58 8 -178 -7 l-42 -5 0 1415 0 1416 3590 0 3590 0 0
1775 0 1775 -3600 0 -3600 0 0 -6400z m6796 3680 c151 -69 198 -267 95 -405
-25 -34 -27 -41 -14 -50 14 -10 14 -14 -2 -38 -22 -35 -90 -46 -136 -23 -33
16 -80 14 -147 -6 -47 -14 -99 -2 -118 28 -13 20 -14 27 -4 39 11 13 9 19 -8
38 -85 90 -82 268 6 360 77 81 220 106 328 57z m-653 4 c29 -10 64 -34 92 -62
124 -125 89 -333 -68 -412 -133 -66 -310 -20 -370 96 -47 91 -44 191 7 276 25
43 43 59 94 85 54 28 75 33 131 33 37 0 88 -7 114 -16z m-5802 -244 c21 -91
39 -168 39 -172 0 -5 -15 -8 -33 -8 -28 0 -34 4 -42 32 -9 29 -14 32 -50 31
-36 0 -40 -3 -47 -31 -8 -28 -13 -32 -42 -32 l-34 0 14 58 c7 31 26 110 41
175 l27 118 44 -3 45 -3 38 -165z m369 78 l1 -93 30 38 c23 27 39 37 60 37 16
0 29 -3 29 -6 0 -4 -16 -28 -35 -53 -30 -41 -33 -50 -21 -67 7 -10 25 -40 40
-66 l27 -48 -35 0 c-30 0 -38 5 -57 40 -26 45 -39 43 -39 -6 0 -31 -2 -34 -30
-34 l-30 0 0 175 0 175 30 0 30 0 0 -92z m1740 -83 l0 -176 -42 1 c-24 1 -55
-1 -69 -5 -19 -5 -33 -1 -55 18 -28 24 -29 29 -28 107 1 68 4 85 21 102 22 21
54 27 91 14 21 -7 22 -5 22 53 l0 61 30 0 30 0 0 -175z m452 83 l3 -92 25 37
c20 30 31 37 58 37 30 0 42 -12 24 -24 -5 -3 -21 -23 -36 -44 l-27 -40 40 -66
41 -66 -34 0 c-28 0 -38 7 -62 43 l-29 42 -3 -42 c-3 -42 -4 -43 -38 -43 l-34
0 0 175 0 175 35 0 34 0 3 -92z m728 27 l0 -66 30 16 c33 17 60 13 85 -11 11
-12 15 -40 15 -120 l0 -104 -30 0 -30 0 0 90 c0 75 -3 92 -16 97 -37 14 -49
-10 -52 -101 l-3 -86 -29 0 -30 0 0 175 0 175 30 0 30 0 0 -65z m530 4 c0 -58
1 -60 23 -53 76 26 107 -8 107 -118 0 -71 -2 -81 -26 -105 -20 -20 -31 -24
-52 -18 -15 4 -46 6 -69 5 l-43 -1 0 176 0 175 30 0 30 0 0 -61z m-1480 -9 c0
-38 2 -40 30 -40 25 0 30 -4 30 -25 0 -21 -5 -25 -30 -25 l-31 0 3 -67 c3 -66
4 -68 31 -71 21 -3 27 -8 23 -19 -3 -8 -6 -19 -6 -24 0 -16 -73 -10 -92 8 -14
13 -18 31 -18 90 0 66 -2 75 -20 80 -13 3 -20 14 -20 29 0 17 6 24 20 24 16 0
20 7 20 33 0 40 6 47 37 47 20 0 23 -5 23 -40z m-2096 -61 c24 -23 34 -121 17
-172 -15 -44 -59 -66 -97 -48 -14 6 -27 11 -29 11 -3 0 -5 -30 -5 -66 l0 -65
-27 3 -28 3 -3 179 -2 179 37 -5 c21 -3 47 -2 58 3 26 10 55 2 79 -22z m405
20 c44 -16 51 -35 51 -143 l0 -96 -47 -1 c-27 0 -60 -1 -75 -1 -40 -1 -58 19
-58 63 0 43 20 63 83 80 28 7 37 15 35 27 -5 26 -48 28 -55 3 -4 -14 -13 -21
-29 -21 -65 0 -15 96 52 99 6 1 25 -4 43 -10z m290 0 c38 -14 51 -35 51 -88
l0 -41 -61 0 c-60 0 -60 0 -57 -27 3 -32 44 -46 54 -19 4 10 18 16 35 16 35 0
39 -25 10 -61 -15 -19 -29 -24 -66 -24 -39 0 -51 5 -71 28 -20 24 -24 39 -24
96 0 75 21 116 63 124 12 2 25 5 28 6 3 0 20 -4 38 -10z m198 0 c32 -12 43
-26 43 -56 0 -31 -45 -33 -53 -3 -7 26 -47 27 -47 1 0 -11 12 -23 30 -31 78
-32 101 -82 61 -131 -15 -19 -29 -24 -66 -24 -37 0 -51 5 -66 24 -29 36 -25
61 11 61 24 0 30 -4 30 -21 0 -15 5 -20 22 -17 40 5 31 32 -19 58 -91 48 -80
135 19 149 4 1 19 -4 35 -10z m191 0 c29 -10 59 -59 45 -73 -15 -15 -51 -5
-56 15 -4 13 -12 20 -24 17 -29 -5 -21 -32 15 -50 73 -36 92 -81 53 -129 -15
-19 -29 -24 -66 -24 -37 0 -51 5 -66 24 -29 36 -25 61 10 61 21 0 30 -6 34
-21 7 -25 40 -22 45 3 2 12 -11 24 -43 39 -74 35 -86 106 -22 134 39 17 37 17
75 4z m211 0 c17 -6 36 -19 41 -29 6 -10 10 -62 10 -115 l0 -97 -32 3 c-18 1
-48 -1 -66 -5 -50 -12 -82 13 -82 64 0 44 20 64 83 81 28 7 37 15 35 27 -5 25
-45 27 -58 3 -13 -24 -48 -28 -56 -6 -8 20 21 64 49 75 30 12 39 12 76 -1z
m318 -21 c17 -16 23 -33 23 -65 l0 -43 -61 0 c-60 0 -60 0 -57 -27 3 -32 44
-46 54 -19 8 20 64 22 64 2 0 -69 -102 -98 -158 -45 -19 17 -22 31 -22 98 0
68 3 80 23 98 12 11 29 23 37 26 25 10 73 -2 97 -25z m1001 -4 c18 -21 22 -36
22 -98 0 -65 -3 -75 -26 -97 -35 -33 -104 -34 -136 -2 -27 28 -37 127 -17 174
24 60 111 73 157 23z m240 8 c8 -10 12 -52 12 -119 l0 -103 -30 0 -30 0 0 90
c0 75 -3 92 -17 97 -32 12 -53 -32 -53 -113 l0 -74 -30 0 -30 0 0 120 0 120
29 0 c16 0 31 -5 33 -11 2 -6 14 -5 33 5 33 17 63 13 83 -12z m529 -4 c17 -16
23 -33 23 -65 l0 -43 -61 0 c-60 0 -60 0 -57 -27 3 -32 44 -46 54 -19 4 10 18
16 35 16 22 0 29 -5 29 -20 0 -42 -64 -79 -115 -66 -52 13 -65 39 -65 124 0
69 3 81 23 99 12 11 29 23 37 26 25 10 73 -2 97 -25z m540 8 c6 -6 13 -57 16
-118 l5 -108 -34 0 -34 0 0 90 c0 72 -3 92 -15 96 -33 13 -45 -15 -45 -102 l0
-84 -35 0 -35 0 0 120 0 120 35 0 c19 0 35 -4 35 -9 0 -6 12 -3 28 4 28 15 58
12 79 -9z m218 -7 c17 -16 21 -35 23 -120 l4 -100 -44 1 c-23 1 -54 -1 -68 -5
-35 -9 -80 27 -80 64 0 39 19 60 70 75 33 10 46 19 48 35 4 28 -33 29 -50 1
-12 -19 -48 -27 -60 -14 -15 14 11 60 43 77 40 20 84 15 114 -14z m400 16 c37
-15 55 -46 55 -96 0 -29 0 -29 -59 -29 -65 0 -73 -5 -64 -38 6 -26 53 -32 53
-7 0 11 11 15 36 15 32 0 35 -2 29 -22 -4 -13 -18 -34 -33 -47 -21 -19 -33
-22 -65 -18 -59 8 -80 35 -85 107 -5 75 11 118 52 136 39 17 40 17 81 -1z
m198 1 c15 -8 27 -11 27 -5 0 5 14 9 31 9 l30 0 -3 -154 c-3 -134 -5 -157 -22
-175 -42 -46 -144 -35 -166 19 -7 16 -9 34 -5 39 10 18 44 12 57 -9 27 -42 78
-15 78 41 0 18 -3 20 -12 11 -7 -7 -29 -12 -49 -12 -56 0 -79 34 -79 116 0 72
13 107 44 122 29 14 37 14 69 -2z m285 -22 c19 -22 22 -36 22 -120 l0 -95 -42
1 c-24 1 -55 -1 -70 -5 -21 -6 -32 -2 -52 18 -48 48 -29 99 44 121 33 10 46
19 48 35 4 28 -33 29 -50 1 -12 -19 -48 -27 -60 -14 -15 14 11 60 43 77 43 22
86 16 117 -19z m-3048 -94 l0 -120 -35 0 -35 0 0 113 c0 63 3 117 7 120 3 4
19 7 35 7 l28 0 0 -120z m2271 103 c0 -10 8 -43 18 -73 l17 -55 19 73 c18 70
20 72 51 72 l32 0 -24 -82 c-79 -281 -76 -273 -113 -276 -28 -3 -33 -1 -27 14
29 76 29 101 -4 209 -17 59 -34 113 -37 121 -4 10 4 14 31 14 27 0 36 -4 37
-17z"/>
<path d="M6613 9773 c-20 -4 -23 -11 -23 -51 l0 -47 85 0 85 0 0 46 c0 40 -3
48 -22 53 -25 6 -90 6 -125 -1z"/>
<path d="M7030 8804 c-203 -74 -492 -177 -965 -344 -159 -56 -294 -106 -299
-111 -6 -5 8 -58 32 -131 49 -142 143 -437 243 -757 38 -123 72 -228 75 -233
8 -13 18 -11 218 53 332 106 722 229 809 255 l57 18 0 317 0 317 -52 -18
c-133 -46 -466 -150 -480 -150 -11 0 -20 16 -28 53 -7 28 -26 91 -41 138 -16
48 -29 92 -29 98 0 14 20 22 130 55 174 53 256 78 275 87 35 14 115 39 128 39
6 0 31 8 54 18 l43 17 -1 115 c-1 144 -9 204 -29 207 -8 1 -71 -18 -140 -43z"/>
<path d="M5280 8181 c-58 -21 -215 -78 -350 -126 -135 -48 -395 -140 -577
-205 -183 -65 -337 -121 -343 -125 -15 -9 -12 -31 10 -72 10 -20 25 -60 31
-90 7 -29 15 -53 19 -53 4 0 81 27 171 61 90 33 225 83 299 109 74 27 180 65
235 85 172 63 230 82 241 78 6 -2 76 17 155 42 79 26 181 58 227 73 45 14 82
31 82 38 0 6 -9 40 -20 74 -11 34 -20 70 -20 79 0 28 -24 71 -40 71 -8 -1 -62
-18 -120 -39z"/>
<path d="M5575 7669 c-49 -16 -153 -49 -230 -73 -77 -25 -205 -65 -285 -90
-80 -26 -153 -49 -162 -52 -14 -4 -20 6 -33 50 -9 31 -19 56 -23 56 -13 0
-697 -233 -705 -240 -5 -4 -2 -21 6 -36 8 -16 17 -50 20 -76 4 -25 15 -66 26
-90 19 -42 75 -213 76 -233 1 -5 6 -20 13 -32 7 -12 12 -28 12 -36 0 -17 38
-138 49 -155 6 -10 36 -4 137 29 71 23 197 63 279 90 159 51 645 204 780 246
252 77 327 105 322 122 -15 50 -150 481 -160 510 -7 19 -17 36 -22 37 -6 1
-50 -11 -100 -27z"/>
<path d="M3155 7423 c-253 -90 -533 -190 -622 -221 -90 -31 -163 -59 -163 -63
0 -11 45 -17 180 -24 69 -4 141 -8 160 -10 113 -11 238 -6 285 10 57 20 755
277 798 294 l29 11 -31 38 c-67 81 -127 132 -155 131 -12 0 -228 -75 -481
-166z"/>
<path d="M3625 7152 c-126 -43 -287 -98 -357 -121 l-128 -43 0 -43 c0 -35 -6
-48 -32 -74 -66 -65 -164 -67 -230 -4 l-26 25 -372 -125 c-205 -69 -377 -130
-381 -134 -5 -5 12 -40 37 -78 119 -180 286 -290 497 -330 87 -16 315 -24 336
-11 7 5 11 53 11 142 l0 134 329 0 c329 0 396 4 385 22 -4 6 11 27 32 47 37
36 104 124 104 138 0 4 7 15 16 24 9 10 20 35 24 56 5 21 16 65 25 98 18 67
24 270 8 320 -6 18 -17 31 -29 33 -10 1 -122 -33 -249 -76z"/>
<path d="M2850 5230 c-152 -15 -209 -33 -310 -98 -2 -2 2 -7 10 -12 10 -7 -1
-10 -37 -10 -70 0 -88 -8 -161 -76 -63 -57 -134 -164 -148 -220 -4 -16 -10
-33 -14 -39 -12 -16 -17 -75 -8 -82 9 -5 758 -133 779 -133 5 0 9 6 9 13 0 23
55 67 83 67 58 0 147 -63 147 -104 0 -17 13 -22 105 -36 81 -13 361 -68 388
-76 22 -7 12 -24 -14 -24 -14 0 -18 -6 -16 -22 3 -19 14 -25 58 -35 30 -7 87
-21 127 -32 41 -11 92 -21 115 -23 l42 -3 7 55 c4 30 3 104 -3 164 -8 93 -15
120 -49 192 -73 157 -172 267 -330 365 -53 33 -59 34 -172 37 l-117 4 -3 41
-3 42 -65 12 c-97 18 -291 43 -320 42 -14 -1 -59 -5 -100 -9z"/>
<path d="M4405 4948 c-2 -7 -9 -40 -14 -73 -6 -33 -13 -78 -17 -100 -4 -22
-11 -45 -16 -52 -5 -7 -7 -16 -5 -20 6 -9 -15 -164 -32 -243 -6 -25 -17 -85
-26 -135 -9 -49 -24 -137 -35 -195 -10 -58 -15 -108 -12 -111 7 -6 232 -54
789 -169 158 -32 366 -75 462 -95 96 -20 186 -35 199 -33 23 3 25 7 25 56 -1
29 -2 54 -4 56 -2 2 -78 15 -169 31 -91 15 -185 31 -210 36 -25 4 -99 17 -165
28 -175 30 -165 26 -164 64 1 43 33 234 40 241 3 4 87 -8 185 -25 98 -17 215
-37 259 -44 44 -8 145 -25 224 -39 79 -14 147 -24 151 -21 7 4 37 153 53 260
3 17 14 80 25 140 30 158 31 174 20 181 -11 7 -102 24 -453 84 -126 21 -360
62 -520 90 -407 71 -573 100 -580 100 -3 0 -8 -6 -10 -12z"/>
<path d="M6246 4628 c-5 -13 -43 -229 -101 -568 -18 -107 -41 -229 -49 -270
-9 -41 -16 -93 -16 -116 l0 -40 58 -12 c82 -16 708 -145 900 -185 l162 -35 0
88 0 89 -52 9 c-29 6 -93 17 -143 26 -49 8 -107 18 -128 22 -27 5 -37 11 -33
21 3 7 13 66 22 131 9 64 20 121 24 125 4 5 61 -1 126 -12 66 -12 134 -24 152
-27 l32 -5 0 304 0 303 -67 12 c-38 6 -158 27 -268 46 -170 30 -468 82 -583
101 -22 4 -34 2 -36 -7z"/>
<path d="M2148 4519 c-3 -54 -1 -63 17 -70 18 -7 270 -60 904 -190 107 -22
196 -38 198 -35 2 2 -27 23 -64 46 -37 24 -97 65 -132 93 l-65 50 -420 84
c-232 45 -424 83 -428 83 -3 0 -8 -28 -10 -61z"/>
</g>
</svg>
