<?xml version="1.0" standalone="no"?>
<!DOCTYPE svg PUBLIC "-//W3C//DTD SVG 20010904//EN"
 "http://www.w3.org/TR/2001/REC-SVG-20010904/DTD/svg10.dtd">
<svg version="1.0" xmlns="http://www.w3.org/2000/svg"
 width="720.000000pt" height="1280.000000pt" viewBox="0 0 720.000000 1280.000000"
 preserveAspectRatio="xMidYMid meet">
<metadata>
Created by potrace 1.16, written by Peter Selinger 2001-2019
</metadata>
<g transform="translate(0.000000,1280.000000) scale(0.100000,-0.100000)"
fill="#000000" stroke="none">
<path d="M0 6400 l0 -6400 3600 0 3600 0 0 1025 0 1025 -2027 4 c-1116 2
-2041 4 -2058 4 -16 0 -720 -2 -1562 -4 l-1533 -4 0 3600 0 3600 3590 0 3590
0 0 1775 0 1775 -3600 0 -3600 0 0 -6400z m6795 3680 c149 -64 198 -258 100
-396 -30 -42 -32 -49 -18 -59 13 -10 13 -15 2 -33 -27 -43 -87 -53 -145 -26
-30 14 -42 15 -87 4 -28 -7 -74 -13 -101 -14 -42 -1 -51 3 -72 29 -22 28 -23
31 -7 42 15 12 15 15 -5 35 -55 60 -78 178 -50 269 23 77 103 146 195 168 49
12 137 3 188 -19z m-652 4 c52 -18 116 -76 143 -132 27 -55 26 -174 -3 -227
-51 -94 -120 -136 -233 -143 -63 -4 -85 -1 -128 18 -143 62 -200 232 -124 373
44 81 125 126 233 126 36 1 86 -6 112 -15z m-5802 -239 c21 -88 38 -166 38
-172 1 -8 -12 -13 -32 -13 -28 0 -34 4 -42 33 -9 29 -13 32 -50 31 -35 -1 -40
-4 -47 -32 -8 -28 -13 -32 -42 -32 l-34 0 14 58 c7 31 26 110 41 175 l27 118
44 -3 45 -3 38 -160z m369 73 l1 -93 30 38 c23 27 39 37 60 37 16 0 29 -3 29
-6 0 -4 -16 -27 -35 -53 l-34 -47 21 -35 c11 -19 29 -49 40 -66 l20 -33 -36 0
c-30 0 -38 5 -57 40 -26 45 -39 43 -39 -6 0 -31 -2 -34 -30 -34 l-30 0 0 175
0 175 30 0 30 0 0 -92z m1740 -84 l0 -177 -40 6 c-22 3 -43 1 -46 -4 -9 -16
-50 -10 -77 11 -31 25 -45 104 -28 167 17 61 50 79 109 59 21 -7 22 -5 22 53
l0 61 30 0 30 0 0 -176z m452 84 l3 -92 25 37 c20 30 31 37 58 37 30 0 42 -12
24 -24 -5 -3 -21 -23 -36 -44 l-27 -40 40 -66 41 -66 -34 0 c-28 0 -38 7 -62
43 l-29 42 -3 -43 c-3 -42 -4 -43 -35 -40 l-32 3 -3 173 -2 172 34 0 35 0 3
-92z m728 28 l0 -64 29 14 c31 15 77 6 93 -19 4 -7 8 -58 8 -114 l0 -103 -30
0 -29 0 -3 92 c-3 83 -5 93 -22 96 -33 7 -46 -25 -46 -110 l0 -78 -30 0 -30 0
0 175 0 175 30 0 30 0 0 -64z m530 3 c0 -55 2 -60 18 -53 31 13 76 5 95 -17
13 -16 17 -40 17 -101 0 -71 -2 -81 -26 -105 -21 -21 -31 -24 -57 -18 -18 4
-49 6 -69 6 l-38 -2 0 176 0 175 30 0 30 0 0 -61z m-1480 -9 c0 -38 2 -40 30
-40 25 0 30 -4 30 -25 0 -21 -5 -25 -30 -25 l-31 0 3 -67 c3 -66 4 -68 31 -71
28 -3 31 -9 21 -36 -8 -22 -72 -21 -96 1 -14 13 -18 31 -18 90 0 66 -2 75 -20
80 -13 3 -20 14 -20 29 0 17 6 24 20 24 17 0 20 7 20 40 0 38 2 40 30 40 28 0
30 -2 30 -40z m-2096 -60 c24 -24 34 -122 17 -173 -15 -44 -59 -66 -97 -48
-14 6 -27 11 -29 11 -3 0 -5 -30 -5 -66 l0 -65 -27 3 -28 3 -3 179 -2 179 38
-6 c22 -2 46 -1 53 4 19 12 60 2 83 -21z m405 19 c44 -16 51 -35 51 -143 l0
-96 -47 -1 c-27 0 -60 -1 -75 -1 -40 -1 -58 19 -58 63 0 43 20 63 83 80 28 7
37 15 35 27 -5 25 -45 27 -58 3 -13 -25 -48 -28 -57 -5 -8 21 28 67 58 75 35
10 33 10 68 -2z m295 -3 c36 -15 43 -28 48 -86 l3 -35 -63 -3 c-62 -3 -63 -3
-60 -30 3 -31 44 -44 54 -18 4 10 18 16 35 16 35 0 39 -25 10 -61 -15 -19 -29
-24 -66 -24 -39 0 -51 5 -71 28 -33 38 -35 150 -4 190 18 22 30 28 73 36 4 0
23 -5 41 -13z m193 3 c32 -12 43 -26 43 -56 0 -31 -45 -33 -53 -3 -7 26 -47
27 -47 1 0 -12 12 -23 33 -31 74 -30 97 -83 58 -131 -15 -19 -29 -24 -66 -24
-37 0 -51 5 -66 24 -28 34 -25 61 7 61 18 0 28 -6 31 -21 7 -25 46 -22 51 4 3
12 -9 23 -42 37 -76 32 -89 107 -23 135 39 17 39 17 74 4z m197 -3 c31 -13 53
-55 38 -71 -14 -14 -50 -3 -55 16 -4 13 -12 20 -24 17 -29 -5 -21 -32 15 -50
51 -25 72 -48 72 -78 0 -42 -29 -70 -77 -77 -35 -5 -45 -2 -67 20 -36 36 -35
67 3 67 20 0 30 -6 34 -20 7 -28 47 -27 47 0 0 15 -13 26 -45 40 -73 31 -85
108 -21 136 39 17 40 17 80 0z m205 3 c17 -6 36 -19 41 -29 6 -10 10 -62 10
-115 l0 -97 -32 3 c-18 1 -48 -1 -66 -5 -50 -12 -82 13 -82 64 0 44 20 64 83
81 28 7 37 15 35 27 -5 25 -45 27 -58 3 -16 -30 -60 -28 -60 2 0 35 37 65 91
76 3 0 20 -4 38 -10z m318 -21 c17 -16 23 -33 23 -65 l0 -43 -61 0 c-60 0 -60
0 -57 -27 3 -32 44 -46 54 -19 8 20 64 22 64 2 0 -69 -102 -98 -158 -45 -19
17 -22 31 -22 98 0 68 3 80 23 98 12 11 29 23 37 26 25 10 73 -2 97 -25z
m1001 -4 c18 -20 22 -37 22 -87 0 -84 -7 -105 -42 -123 -37 -19 -99 -11 -124
17 -23 26 -31 127 -13 170 25 61 112 74 157 23z m240 8 c8 -10 12 -52 12 -119
l0 -103 -30 0 -30 0 0 90 c0 75 -3 92 -17 97 -32 12 -53 -32 -53 -113 l0 -74
-30 0 -30 0 0 120 0 120 29 0 c16 0 31 -5 33 -11 2 -6 14 -5 33 5 33 17 63 13
83 -12z m530 -9 c15 -16 22 -37 22 -64 l0 -39 -61 0 c-60 0 -60 0 -57 -27 3
-32 44 -46 54 -19 4 10 18 16 35 16 35 0 40 -29 9 -60 -27 -27 -63 -34 -105
-20 -46 15 -55 34 -55 123 0 64 3 76 23 94 12 11 29 23 37 26 28 9 75 -5 98
-30z m757 5 c17 -16 21 -34 23 -119 l4 -100 -44 1 c-23 1 -54 -1 -68 -5 -35
-9 -80 27 -80 63 1 39 21 60 74 78 33 11 46 21 46 35 0 26 -36 25 -52 -1 -13
-20 -52 -27 -62 -12 -10 17 29 76 54 83 36 9 82 -1 105 -23z m394 21 c36 -13
61 -53 61 -99 l0 -30 -59 0 c-65 0 -73 -5 -64 -38 6 -26 48 -31 57 -7 3 9 18
15 36 15 28 0 31 -3 25 -22 -4 -13 -18 -34 -33 -47 -21 -19 -33 -22 -65 -18
-59 8 -80 35 -85 107 -5 75 11 118 52 136 38 16 36 16 75 3z m249 0 l43 2 -3
-155 c-3 -134 -5 -157 -22 -175 -42 -46 -144 -35 -166 19 -7 16 -9 34 -5 39
10 18 44 12 57 -9 24 -38 78 -16 78 33 0 11 -11 13 -48 9 -44 -4 -51 -2 -70
23 -18 22 -22 41 -21 94 0 36 4 74 8 85 10 27 52 47 81 39 14 -3 44 -5 68 -4z
m237 -20 c17 -16 21 -35 23 -120 l4 -100 -44 1 c-23 1 -55 -1 -70 -5 -21 -6
-32 -2 -52 18 -14 15 -26 38 -26 52 0 25 31 65 50 65 6 0 26 7 45 14 25 11 33
19 29 30 -9 23 -51 20 -59 -4 -4 -12 -15 -20 -29 -20 -32 0 -36 7 -24 42 20
56 107 71 153 27z m-3045 -99 l0 -120 -35 0 -35 0 0 120 0 120 35 0 35 0 0
-120z m1840 108 c0 -9 3 -9 12 0 16 16 83 15 96 0 5 -7 12 -60 14 -118 l3
-105 -32 -3 -33 -3 0 91 c0 72 -3 92 -15 96 -33 13 -45 -15 -45 -102 l0 -84
-35 0 -35 0 0 120 0 120 35 0 c21 0 35 -5 35 -12z m431 -5 c0 -10 8 -43 18
-73 l17 -55 18 73 c18 71 19 72 51 72 l33 0 -34 -117 c-69 -246 -66 -238 -103
-241 -28 -3 -32 -1 -28 15 31 106 31 95 -2 207 -18 59 -35 114 -38 122 -4 10
4 14 31 14 27 0 36 -4 37 -17z"/>
<path d="M6613 9773 c-20 -4 -23 -11 -23 -51 l0 -47 85 0 85 0 0 46 c0 40 -3
48 -22 53 -25 6 -90 6 -125 -1z"/>
<path d="M3202 6907 c-70 -71 -73 -75 -112 -192 -22 -66 -44 -136 -49 -155
l-8 -35 53 -2 52 -1 32 99 c18 54 37 99 42 99 12 0 1 -53 -22 -105 -37 -82
-36 -90 9 -109 23 -9 47 -16 54 -16 16 0 144 -68 152 -80 3 -5 12 -7 21 -3 16
6 13 25 -14 83 -15 34 -29 69 -77 195 -58 153 -68 162 -93 87 -7 -23 -18 -42
-23 -42 -10 0 -3 37 14 80 35 88 56 155 49 162 -4 4 -40 -25 -80 -65z"/>
<path d="M4090 6967 c-47 -10 -57 -17 -70 -45 -22 -46 -14 -107 15 -120 53
-24 95 -113 95 -199 l0 -42 48 25 c89 46 105 70 116 170 5 48 -17 137 -40 167
-24 30 -70 57 -94 56 -8 -1 -40 -6 -70 -12z"/>
<path d="M2043 6896 c-40 -41 -73 -79 -73 -85 0 -6 15 -17 34 -25 19 -8 39
-24 46 -35 10 -19 25 -314 32 -618 l2 -113 -44 -45 c-34 -34 -40 -46 -28 -50
9 -4 130 -2 270 2 l254 9 50 31 c27 18 74 58 104 90 51 54 53 58 32 61 -13 2
-28 -1 -35 -6 -7 -5 -118 -13 -247 -16 -129 -4 -243 -9 -252 -12 -10 -3 -18
-1 -18 5 0 6 11 13 25 17 52 13 53 28 44 414 -10 392 -12 405 -74 434 -18 9
-37 16 -41 16 -4 0 -41 -33 -81 -74z"/>
<path d="M2372 6939 c-27 -27 -32 -39 -32 -80 0 -39 4 -49 20 -54 64 -20 110
-105 110 -201 l0 -43 35 15 c19 8 54 34 78 58 40 39 45 50 51 104 9 78 -14
160 -55 202 -28 28 -36 30 -103 30 -67 0 -74 -2 -104 -31z"/>
<path d="M3702 6897 c-40 -40 -72 -78 -72 -84 0 -7 16 -20 36 -29 20 -9 40
-27 45 -38 5 -12 13 -153 17 -314 9 -269 11 -294 28 -307 17 -13 8 -14 -82
-15 -56 0 -123 -3 -149 -7 l-48 -6 22 22 c18 18 22 32 20 74 -4 99 -80 194
-179 224 -56 17 -197 21 -210 6 -7 -7 -50 -135 -50 -146 0 -3 27 -10 59 -16
90 -18 149 -62 188 -141 39 -79 41 -109 8 -140 -14 -13 -25 -27 -25 -32 0 -10
208 -10 270 1 36 6 55 17 96 59 28 29 54 52 58 52 19 0 1 -43 -34 -81 -22 -24
-40 -50 -40 -56 0 -14 108 -16 232 -4 66 6 67 7 137 74 39 37 74 67 79 67 4 0
16 -14 26 -30 26 -46 83 -78 156 -89 114 -19 150 -14 194 23 l38 33 79 -41
c79 -40 80 -40 188 -39 99 0 114 3 156 27 59 33 75 33 75 1 0 -24 2 -25 60
-23 l60 3 77 78 78 77 -58 0 c-50 0 -57 3 -57 19 0 11 6 22 13 24 6 3 -1 6
-16 6 -15 1 -49 -10 -75 -23 -40 -20 -63 -24 -153 -25 -96 -2 -111 0 -154 24
-26 14 -53 25 -59 25 -17 0 -121 107 -157 159 -48 73 -64 140 -64 273 1 64 6
122 11 130 18 22 45 98 35 98 -5 0 -38 -31 -74 -69 -72 -76 -123 -171 -133
-245 -8 -55 24 -153 65 -203 14 -17 41 -50 59 -72 22 -27 51 -47 85 -59 28
-11 53 -25 55 -32 4 -10 -17 -12 -100 -7 -83 4 -113 10 -144 28 -85 49 -110
98 -133 257 -5 34 -19 78 -31 97 -18 29 -28 35 -55 35 -42 0 -99 -47 -120 -98
-20 -46 -19 -58 6 -93 11 -16 29 -70 39 -120 10 -50 23 -96 29 -102 6 -6 11
-14 11 -18 0 -4 -67 -7 -150 -7 -88 0 -150 4 -150 9 0 5 13 12 29 15 59 12 61
48 42 537 -6 143 -15 267 -21 278 -6 11 -21 24 -33 28 -61 23 -60 24 -135 -52z"/>
<path d="M4761 6918 c-35 -18 -69 -42 -75 -53 -6 -11 -19 -32 -28 -47 -10 -14
-18 -29 -18 -32 0 -3 27 -6 60 -6 33 0 76 -6 95 -14 37 -16 132 -83 154 -109
20 -24 71 -30 111 -13 19 8 67 47 105 86 l70 71 -42 -2 c-38 -3 -50 3 -125 60
-86 67 -112 78 -193 87 -44 5 -59 1 -114 -28z"/>
<path d="M5649 6859 c-62 -60 -67 -70 -98 -164 -18 -55 -39 -115 -47 -133 -8
-18 -14 -39 -14 -46 0 -18 71 -27 88 -11 7 6 37 84 67 173 30 89 59 171 65
182 6 12 10 30 8 42 -3 17 -13 11 -69 -43z"/>
<path d="M6534 6885 c-34 -15 -54 -55 -54 -106 0 -25 5 -29 38 -35 47 -8 107
-42 154 -88 98 -95 143 -332 94 -494 -27 -86 -12 -97 45 -33 62 69 61 68 89
146 22 61 25 86 25 200 0 113 -3 136 -23 179 -12 27 -22 57 -22 67 0 11 -5 19
-10 19 -6 0 -16 12 -23 27 -15 33 -81 100 -108 108 -10 4 -19 11 -19 16 0 14
-151 9 -186 -6z"/>
<path d="M6210 6865 c-6 -11 -22 -28 -34 -36 -13 -8 -37 -31 -55 -51 l-32 -36
23 -8 c13 -3 35 -15 51 -26 26 -19 27 -22 27 -112 0 -51 3 -181 7 -289 5 -169
9 -199 24 -216 17 -18 17 -19 -4 -25 -32 -9 -287 -7 -287 2 0 4 9 13 20 20 47
29 1 177 -75 239 -47 39 -127 63 -208 63 -54 0 -70 -4 -85 -20 -19 -20 -42
-83 -42 -113 0 -8 -6 -17 -12 -20 -7 -2 14 -8 47 -12 101 -13 171 -64 211
-153 31 -70 31 -102 -1 -132 -14 -13 -25 -27 -25 -32 0 -9 146 -11 241 -2 63
6 69 9 123 60 32 30 62 54 67 54 5 0 9 -16 9 -36 0 -29 -8 -43 -46 -79 -47
-43 -52 -69 -11 -60 12 2 107 7 211 10 104 3 192 7 195 9 3 2 23 7 44 10 21 3
43 11 50 16 7 6 34 25 61 43 27 18 60 47 74 65 l25 32 -22 0 c-12 0 -32 -5
-44 -12 -14 -7 -100 -13 -244 -15 -247 -4 -260 0 -182 51 l41 27 -7 352 c-3
194 -8 366 -11 383 -6 40 -23 55 -73 64 -34 6 -41 4 -51 -15z"/>
<path d="M5662 6633 c-23 -70 -42 -133 -42 -139 0 -5 24 -18 53 -29 28 -10 87
-35 130 -56 42 -21 77 -34 77 -30 0 18 -104 292 -130 341 -32 62 -42 51 -88
-87z"/>
<path d="M2507 6546 c-20 -7 -43 -19 -51 -25 -7 -6 -16 -8 -19 -4 -4 3 -7 0
-7 -9 0 -8 -9 -23 -21 -34 -18 -17 -49 -65 -49 -77 0 -3 27 -7 60 -9 46 -3 66
-10 86 -29 38 -34 62 -94 70 -172 6 -62 8 -67 31 -67 80 0 132 86 133 218 0
93 -16 136 -69 186 -36 35 -105 44 -164 22z"/>
<path d="M4998 6474 c-40 -41 -74 -80 -76 -87 -1 -7 13 -21 33 -30 45 -21 55
-49 55 -147 0 -106 2 -110 49 -96 20 6 55 25 77 43 l39 31 0 141 0 140 -34 35
c-53 54 -61 53 -143 -30z"/>
<path d="M2901 6466 l-51 -55 0 -69 c0 -74 5 -82 56 -82 30 0 30 -7 -3 -110
-24 -71 -37 -94 -85 -146 -32 -34 -58 -67 -58 -74 0 -9 24 -11 95 -8 l95 4 75
74 c74 73 87 92 63 89 -7 -1 -49 -1 -93 0 l-80 2 37 19 c42 23 76 62 84 99 3
14 19 65 35 113 16 47 29 89 29 92 0 3 -10 6 -23 6 -32 0 -67 27 -83 66 -8 19
-20 34 -28 34 -7 0 -36 -24 -65 -54z"/>
<path d="M5344 6423 l-56 -58 4 -63 c4 -66 14 -82 55 -82 12 0 24 -3 26 -7 3
-5 -9 -50 -27 -100 -28 -83 -38 -99 -94 -156 -34 -34 -62 -66 -62 -71 0 -4 44
-6 98 -4 l97 4 68 66 c37 36 67 70 67 77 0 7 -27 11 -80 11 -44 0 -80 4 -80 8
0 5 12 15 28 23 28 15 57 39 57 48 1 3 7 17 15 31 21 38 79 213 74 222 -3 4
-16 8 -29 8 -25 0 -85 60 -85 85 0 27 -19 16 -76 -42z"/>
<path d="M2515 2862 c-5 -4 -11 -18 -13 -31 -4 -37 -9 -37 -44 -3 -36 37 -53
34 -18 -3 30 -32 51 -38 85 -25 35 13 41 7 27 -25 -14 -30 -29 -32 -58 -4 -18
17 -24 18 -35 6 -36 -35 -74 -51 -128 -53 -31 -1 -69 -7 -84 -13 -26 -10 -27
-12 -12 -27 9 -9 24 -14 37 -11 l20 6 -21 -20 c-11 -11 -21 -24 -21 -29 0 -15
62 -11 90 5 14 8 34 14 45 14 18 0 18 -1 -3 -11 -27 -13 -25 -42 3 -46 13 -2
27 7 38 25 10 15 16 20 13 10 -15 -48 -18 -159 -5 -216 11 -53 16 -61 36 -61
13 0 26 7 29 15 4 8 12 15 19 15 17 0 25 23 25 74 0 52 9 63 30 36 15 -20 16
-20 16 22 -1 24 -7 48 -13 53 -13 10 -7 55 7 55 11 0 29 -24 33 -46 2 -10 7
-26 10 -34 3 -8 7 -24 9 -35 2 -13 8 -4 17 25 23 76 23 76 28 62 4 -10 8 -10
19 -2 9 8 11 22 7 43 -6 29 -5 31 10 18 9 -7 17 -18 17 -23 0 -5 10 -22 21
-36 l21 -27 -7 25 c-4 14 -11 29 -16 35 -16 17 -10 47 12 52 14 4 19 12 17 27
-2 11 -9 20 -16 19 -6 -2 -12 1 -12 5 0 9 80 32 110 32 34 0 22 17 -17 27
l-38 9 34 18 c41 22 28 41 -25 38 -44 -3 -63 -13 -128 -64 -54 -43 -89 -47
-94 -12 -2 12 -14 32 -28 45 -13 12 -24 28 -24 36 0 14 -10 17 -25 5z"/>
</g>
</svg>
