<?xml version="1.0" standalone="no"?>
<!DOCTYPE svg PUBLIC "-//W3C//DTD SVG 20010904//EN"
 "http://www.w3.org/TR/2001/REC-SVG-20010904/DTD/svg10.dtd">
<svg version="1.0" xmlns="http://www.w3.org/2000/svg"
 width="720.000000pt" height="1280.000000pt" viewBox="0 0 720.000000 1280.000000"
 preserveAspectRatio="xMidYMid meet">
<metadata>
Created by potrace 1.16, written by Peter Selinger 2001-2019
</metadata>
<g transform="translate(0.000000,1280.000000) scale(0.100000,-0.100000)"
fill="#000000" stroke="none">
<path d="M0 6400 l0 -6400 3600 0 3600 0 0 1025 0 1025 -3590 0 -3590 0 0
3600 0 3600 3590 0 3590 0 0 1775 0 1775 -3600 0 -3600 0 0 -6400z m6795 3680
c149 -64 198 -258 100 -396 -30 -42 -32 -49 -18 -59 13 -10 13 -15 2 -33 -27
-43 -87 -53 -145 -26 -30 14 -42 15 -87 4 -28 -7 -74 -13 -101 -14 -42 -1 -51
3 -72 29 -22 28 -23 31 -7 42 15 12 15 15 -5 35 -55 60 -78 178 -50 269 23 77
103 146 195 168 49 12 137 3 188 -19z m-652 4 c52 -18 116 -76 143 -132 27
-55 26 -174 -3 -227 -51 -94 -120 -136 -233 -143 -63 -4 -85 -1 -128 18 -143
62 -200 232 -124 373 44 81 125 126 233 126 36 1 86 -6 112 -15z m-5802 -239
c21 -88 38 -166 38 -172 1 -8 -12 -13 -32 -13 -28 0 -34 4 -42 33 -9 29 -13
32 -50 31 -35 -1 -40 -4 -47 -32 -8 -28 -13 -32 -42 -32 l-34 0 14 58 c7 31
26 110 41 175 l27 118 44 -3 45 -3 38 -160z m369 73 l1 -93 30 38 c23 27 39
37 60 37 16 0 29 -3 29 -6 0 -4 -16 -27 -35 -53 l-34 -47 21 -35 c11 -19 29
-49 40 -66 l20 -33 -36 0 c-30 0 -38 5 -57 40 -26 45 -39 43 -39 -6 0 -31 -2
-34 -30 -34 l-30 0 0 175 0 175 30 0 30 0 0 -92z m1740 -84 l0 -177 -40 6
c-22 3 -43 1 -46 -4 -9 -16 -50 -10 -77 11 -31 25 -45 104 -28 167 17 61 50
79 109 59 21 -7 22 -5 22 53 l0 61 30 0 30 0 0 -176z m452 84 l3 -92 25 37
c20 30 31 37 58 37 30 0 42 -12 24 -24 -5 -3 -21 -23 -36 -44 l-27 -40 40 -66
41 -66 -34 0 c-28 0 -38 7 -62 43 l-29 42 -3 -43 c-3 -42 -4 -43 -35 -40 l-32
3 -3 173 -2 172 34 0 35 0 3 -92z m728 28 l0 -64 29 14 c31 15 77 6 93 -19 4
-7 8 -58 8 -114 l0 -103 -30 0 -29 0 -3 92 c-3 83 -5 93 -22 96 -33 7 -46 -25
-46 -110 l0 -78 -30 0 -30 0 0 175 0 175 30 0 30 0 0 -64z m530 3 c0 -55 2
-60 18 -53 31 13 76 5 95 -17 13 -16 17 -40 17 -101 0 -71 -2 -81 -26 -105
-21 -21 -31 -24 -57 -18 -18 4 -49 6 -69 6 l-38 -2 0 176 0 175 30 0 30 0 0
-61z m-1480 -9 c0 -38 2 -40 30 -40 25 0 30 -4 30 -25 0 -21 -5 -25 -30 -25
l-31 0 3 -67 c3 -66 4 -68 31 -71 28 -3 31 -9 21 -36 -8 -22 -72 -21 -96 1
-14 13 -18 31 -18 90 0 66 -2 75 -20 80 -13 3 -20 14 -20 29 0 17 6 24 20 24
17 0 20 7 20 40 0 38 2 40 30 40 28 0 30 -2 30 -40z m-2096 -60 c24 -24 34
-122 17 -173 -15 -44 -59 -66 -97 -48 -14 6 -27 11 -29 11 -3 0 -5 -30 -5 -66
l0 -65 -27 3 -28 3 -3 179 -2 179 38 -6 c22 -2 46 -1 53 4 19 12 60 2 83 -21z
m405 19 c44 -16 51 -35 51 -143 l0 -96 -47 -1 c-27 0 -60 -1 -75 -1 -40 -1
-58 19 -58 63 0 43 20 63 83 80 28 7 37 15 35 27 -5 25 -45 27 -58 3 -13 -25
-48 -28 -57 -5 -8 21 28 67 58 75 35 10 33 10 68 -2z m295 -3 c36 -15 43 -28
48 -86 l3 -35 -63 -3 c-62 -3 -63 -3 -60 -30 3 -31 44 -44 54 -18 4 10 18 16
35 16 35 0 39 -25 10 -61 -15 -19 -29 -24 -66 -24 -39 0 -51 5 -71 28 -33 38
-35 150 -4 190 18 22 30 28 73 36 4 0 23 -5 41 -13z m193 3 c32 -12 43 -26 43
-56 0 -31 -45 -33 -53 -3 -7 26 -47 27 -47 1 0 -12 12 -23 33 -31 74 -30 97
-83 58 -131 -15 -19 -29 -24 -66 -24 -37 0 -51 5 -66 24 -28 34 -25 61 7 61
18 0 28 -6 31 -21 7 -25 46 -22 51 4 3 12 -9 23 -42 37 -76 32 -89 107 -23
135 39 17 39 17 74 4z m197 -3 c31 -13 53 -55 38 -71 -14 -14 -50 -3 -55 16
-4 13 -12 20 -24 17 -29 -5 -21 -32 15 -50 51 -25 72 -48 72 -78 0 -42 -29
-70 -77 -77 -35 -5 -45 -2 -67 20 -36 36 -35 67 3 67 20 0 30 -6 34 -20 7 -28
47 -27 47 0 0 15 -13 26 -45 40 -73 31 -85 108 -21 136 39 17 40 17 80 0z
m205 3 c17 -6 36 -19 41 -29 6 -10 10 -62 10 -115 l0 -97 -32 3 c-18 1 -48 -1
-66 -5 -50 -12 -82 13 -82 64 0 44 20 64 83 81 28 7 37 15 35 27 -5 25 -45 27
-58 3 -16 -30 -60 -28 -60 2 0 35 37 65 91 76 3 0 20 -4 38 -10z m318 -21 c17
-16 23 -33 23 -65 l0 -43 -61 0 c-60 0 -60 0 -57 -27 3 -32 44 -46 54 -19 8
20 64 22 64 2 0 -69 -102 -98 -158 -45 -19 17 -22 31 -22 98 0 68 3 80 23 98
12 11 29 23 37 26 25 10 73 -2 97 -25z m1001 -4 c18 -20 22 -37 22 -87 0 -84
-7 -105 -42 -123 -37 -19 -99 -11 -124 17 -23 26 -31 127 -13 170 25 61 112
74 157 23z m240 8 c8 -10 12 -52 12 -119 l0 -103 -30 0 -30 0 0 90 c0 75 -3
92 -17 97 -32 12 -53 -32 -53 -113 l0 -74 -30 0 -30 0 0 120 0 120 29 0 c16 0
31 -5 33 -11 2 -6 14 -5 33 5 33 17 63 13 83 -12z m530 -9 c15 -16 22 -37 22
-64 l0 -39 -61 0 c-60 0 -60 0 -57 -27 3 -32 44 -46 54 -19 4 10 18 16 35 16
35 0 40 -29 9 -60 -27 -27 -63 -34 -105 -20 -46 15 -55 34 -55 123 0 64 3 76
23 94 12 11 29 23 37 26 28 9 75 -5 98 -30z m757 5 c17 -16 21 -34 23 -119 l4
-100 -44 1 c-23 1 -54 -1 -68 -5 -35 -9 -80 27 -80 63 1 39 21 60 74 78 33 11
46 21 46 35 0 26 -36 25 -52 -1 -13 -20 -52 -27 -62 -12 -10 17 29 76 54 83
36 9 82 -1 105 -23z m394 21 c36 -13 61 -53 61 -99 l0 -30 -59 0 c-65 0 -73
-5 -64 -38 6 -26 48 -31 57 -7 3 9 18 15 36 15 28 0 31 -3 25 -22 -4 -13 -18
-34 -33 -47 -21 -19 -33 -22 -65 -18 -59 8 -80 35 -85 107 -5 75 11 118 52
136 38 16 36 16 75 3z m249 0 l43 2 -3 -155 c-3 -134 -5 -157 -22 -175 -42
-46 -144 -35 -166 19 -7 16 -9 34 -5 39 10 18 44 12 57 -9 24 -38 78 -16 78
33 0 11 -11 13 -48 9 -44 -4 -51 -2 -70 23 -18 22 -22 41 -21 94 0 36 4 74 8
85 10 27 52 47 81 39 14 -3 44 -5 68 -4z m237 -20 c17 -16 21 -35 23 -120 l4
-100 -44 1 c-23 1 -55 -1 -70 -5 -21 -6 -32 -2 -52 18 -14 15 -26 38 -26 52 0
25 31 65 50 65 6 0 26 7 45 14 25 11 33 19 29 30 -9 23 -51 20 -59 -4 -4 -12
-15 -20 -29 -20 -32 0 -36 7 -24 42 20 56 107 71 153 27z m-3045 -99 l0 -120
-35 0 -35 0 0 120 0 120 35 0 35 0 0 -120z m1840 108 c0 -9 3 -9 12 0 16 16
83 15 96 0 5 -7 12 -60 14 -118 l3 -105 -32 -3 -33 -3 0 91 c0 72 -3 92 -15
96 -33 13 -45 -15 -45 -102 l0 -84 -35 0 -35 0 0 120 0 120 35 0 c21 0 35 -5
35 -12z m431 -5 c0 -10 8 -43 18 -73 l17 -55 18 73 c18 71 19 72 51 72 l33 0
-34 -117 c-69 -246 -66 -238 -103 -241 -28 -3 -32 -1 -28 15 31 106 31 95 -2
207 -18 59 -35 114 -38 122 -4 10 4 14 31 14 27 0 36 -4 37 -17z"/>
<path d="M6613 9773 c-20 -4 -23 -11 -23 -51 l0 -47 85 0 85 0 0 46 c0 40 -3
48 -22 53 -25 6 -90 6 -125 -1z"/>
<path d="M6211 8083 c-60 -67 -73 -88 -91 -148 -12 -38 -32 -105 -45 -149 -14
-43 -23 -82 -20 -86 4 -7 91 3 99 11 6 6 43 118 61 184 10 33 27 92 40 130 23
70 38 135 31 135 -2 0 -36 -35 -75 -77z"/>
<path d="M7091 8135 c-28 -30 -44 -91 -30 -117 7 -14 22 -18 62 -18 29 0 58
-5 65 -12 9 -9 12 8 12 80 l0 92 -42 0 c-33 0 -49 -6 -67 -25z"/>
<path d="M6797 8131 c-26 -17 -127 -131 -127 -143 0 -4 16 -10 36 -14 21 -4
41 -16 51 -30 17 -26 28 -158 39 -449 4 -109 11 -183 18 -187 21 -13 -47 -28
-160 -35 -119 -6 -132 -2 -93 33 15 14 20 27 16 49 -9 53 -58 143 -97 179 -26
24 -35 38 -29 47 5 8 9 24 9 36 0 22 -6 38 -55 148 -15 33 -33 76 -40 95 -7
19 -24 55 -37 80 -34 62 -57 60 -75 -5 -8 -27 -18 -59 -23 -70 -16 -36 -42
-155 -36 -170 3 -8 22 -17 43 -21 41 -7 154 -56 187 -81 21 -15 21 -15 -3 -8
-86 26 -254 21 -272 -7 -9 -13 -22 -59 -34 -115 l-6 -31 58 -7 c118 -13 185
-65 227 -177 l26 -68 -31 -35 c-18 -20 -29 -38 -25 -42 3 -3 74 -1 158 6 l152
11 63 61 c35 34 66 59 70 56 14 -15 -11 -75 -47 -112 -22 -22 -40 -43 -40 -47
0 -5 20 -8 45 -8 55 0 334 18 393 26 l42 5 0 75 0 75 -162 -6 -163 -6 44 39
45 39 -13 249 c-8 137 -17 309 -20 382 -6 110 -11 137 -28 159 -26 35 -73 46
-106 24z"/>
<path d="M5400 8130 c-106 -11 -166 -52 -214 -148 l-17 -33 61 7 c76 8 128
-10 216 -78 35 -27 74 -52 86 -57 46 -17 88 5 170 86 43 42 78 81 78 85 0 4
-15 6 -32 4 -40 -4 -58 4 -123 59 -56 48 -122 86 -145 84 -8 -1 -44 -5 -80 -9z"/>
<path d="M4603 8123 c-50 -4 -52 -6 -72 -47 -26 -52 -29 -126 -5 -126 58 0
124 -104 124 -194 0 -25 3 -46 8 -46 4 0 34 17 66 38 94 62 119 150 75 267
-26 69 -72 116 -114 113 -16 -1 -53 -3 -82 -5z"/>
<path d="M4227 8052 c-59 -61 -97 -107 -97 -116 0 -3 15 -12 34 -20 19 -8 39
-24 45 -35 7 -11 21 -157 33 -323 17 -243 24 -305 36 -315 9 -7 14 -15 11 -17
-4 -4 -211 -24 -256 -24 l-23 -1 20 27 c19 26 19 30 5 85 -21 81 -38 109 -92
155 -37 33 -62 44 -121 57 -71 16 -156 14 -190 -4 -11 -6 -60 -127 -62 -152 0
-4 26 -10 57 -14 120 -15 193 -78 238 -206 13 -36 13 -39 -15 -75 -17 -20 -27
-41 -24 -46 4 -6 54 -7 133 -3 191 11 178 7 239 75 29 33 58 60 63 60 19 0 8
-27 -22 -56 -17 -16 -38 -42 -46 -58 l-15 -28 149 7 c81 4 156 12 166 17 10 5
49 41 87 81 l69 72 31 -37 c56 -68 90 -81 215 -86 l112 -4 35 36 c19 20 39 36
45 36 5 0 36 -15 69 -32 58 -32 62 -33 184 -33 122 0 126 1 184 33 33 17 63
32 68 32 4 0 8 -11 8 -25 0 -24 3 -25 58 -25 l58 0 77 84 c77 84 83 103 29 91
-17 -3 -35 0 -47 9 -11 9 -14 16 -7 16 6 0 12 5 12 10 0 17 -42 11 -105 -14
-190 -76 -336 -47 -474 93 -76 77 -129 170 -138 242 -3 24 -10 50 -15 56 -20
25 21 230 53 269 6 7 9 19 7 25 -2 6 -28 -13 -56 -43 -106 -111 -135 -162
-158 -281 -16 -83 -16 -87 2 -114 10 -15 24 -40 31 -55 6 -15 17 -33 23 -40 5
-7 26 -34 45 -59 42 -57 101 -95 153 -98 6 -1 12 -8 12 -17 0 -14 -13 -16
-102 -12 -91 3 -108 7 -151 32 -53 31 -97 91 -97 130 0 14 -4 28 -10 31 -5 3
-10 27 -10 53 0 29 -10 68 -25 100 -14 30 -25 57 -25 61 0 4 12 8 27 9 16 1
37 14 50 30 27 33 29 47 6 37 -10 -4 -34 -13 -53 -20 -19 -7 -36 -20 -38 -29
-2 -11 -14 -16 -35 -16 -60 0 -132 -69 -143 -137 -5 -32 -1 -46 19 -77 14 -20
33 -72 43 -114 9 -42 22 -87 30 -99 8 -12 10 -24 6 -26 -11 -7 -302 -19 -302
-13 0 3 13 12 30 21 50 26 60 65 50 212 -5 70 -11 146 -14 168 -3 22 -10 132
-17 245 -11 187 -21 252 -36 236 -4 -3 -11 -2 -17 3 -6 4 -23 11 -38 15 -23 5
-34 -2 -81 -52z"/>
<path d="M3682 8024 c-71 -75 -75 -84 -107 -184 -18 -58 -38 -124 -45 -148 -6
-24 -13 -49 -16 -55 -3 -8 13 -12 53 -12 57 0 57 0 67 35 5 19 13 37 16 40 4
3 10 23 14 45 4 22 11 51 16 65 34 98 81 262 78 275 -2 12 -24 -6 -76 -61z"/>
<path d="M2892 8051 c-55 -5 -67 -10 -88 -36 -34 -42 -32 -135 2 -135 48 0
124 -125 124 -205 0 -28 4 -35 19 -35 10 0 24 6 30 14 7 8 22 17 34 20 50 14
95 142 77 222 -21 92 -60 148 -110 157 -14 2 -54 2 -88 -2z"/>
<path d="M2483 7960 c-40 -43 -73 -84 -73 -93 0 -8 13 -20 29 -25 50 -18 57
-42 70 -237 7 -99 16 -229 21 -290 5 -60 11 -143 12 -182 l2 -73 -41 -42 c-69
-70 -64 -71 223 -53 261 17 296 23 355 62 33 22 154 152 147 158 -3 3 -69 -8
-145 -25 -23 -6 -134 -12 -245 -16 l-203 -6 32 20 c17 12 35 31 39 44 10 32 7
117 -10 303 -8 88 -18 221 -21 295 -8 159 -26 215 -72 225 -15 4 -32 8 -38 9
-5 1 -43 -32 -82 -74z"/>
<path d="M3732 7913 c-6 -16 -20 -62 -31 -103 -11 -41 -27 -97 -36 -125 -8
-27 -13 -55 -11 -61 2 -6 28 -17 57 -24 29 -7 89 -30 134 -51 46 -22 86 -39
89 -39 11 0 6 26 -14 68 -11 22 -20 46 -20 52 0 5 -4 18 -10 28 -5 9 -29 60
-53 112 -25 52 -52 112 -62 133 -21 44 -29 46 -43 10z"/>
<path d="M5543 7644 c-37 -41 -68 -80 -68 -86 0 -7 15 -16 32 -20 51 -13 65
-45 71 -159 5 -98 13 -122 35 -100 6 6 17 11 24 11 17 0 92 54 109 78 15 22 3
256 -15 290 -15 28 -68 62 -98 62 -14 0 -45 -26 -90 -76z"/>
<path d="M5950 7657 c-14 -12 -40 -39 -58 -60 -29 -34 -32 -44 -32 -101 0 -58
2 -64 25 -74 14 -7 37 -12 50 -12 29 0 29 -2 11 -55 -8 -22 -22 -65 -31 -95
-13 -40 -32 -71 -76 -118 -32 -34 -59 -67 -59 -73 0 -7 32 -9 98 -4 l97 6 72
76 c40 42 70 79 67 84 -2 5 -38 7 -79 5 -41 -2 -77 -1 -79 2 -3 2 9 14 27 26
46 31 79 98 117 239 l18 69 -36 15 c-21 8 -53 32 -72 54 l-35 39 -25 -23z"/>
<path d="M2975 7623 c-26 -7 -75 -41 -98 -67 -26 -31 -57 -93 -50 -100 4 -3
29 -6 56 -6 96 0 150 -62 167 -192 5 -40 10 -77 10 -81 0 -15 64 4 88 27 13
11 35 43 48 69 22 42 25 60 23 135 -2 97 -17 137 -70 187 -27 25 -40 30 -93
31 -33 2 -70 0 -81 -3z"/>
<path d="M3390 7565 l-54 -55 2 -73 c3 -77 15 -97 58 -97 13 0 25 -3 28 -8 2
-4 -10 -51 -28 -104 -29 -85 -39 -103 -92 -158 -32 -34 -59 -67 -59 -73 0 -9
29 -11 100 -10 l100 2 77 83 c43 46 78 87 78 91 0 14 -31 20 -43 8 -14 -14
-147 -15 -147 -1 0 6 9 10 20 10 28 0 90 65 90 95 0 14 5 25 10 25 6 0 10 8
10 19 0 10 12 53 26 96 29 86 27 105 -12 105 -25 0 -76 43 -99 83 -9 16 -16
12 -65 -38z"/>
<path d="M2990 3792 c0 -5 18 -26 40 -46 22 -20 40 -38 40 -40 0 -2 -12 -7
-27 -11 -21 -5 -24 -8 -13 -15 11 -7 9 -11 -12 -19 -14 -5 -29 -15 -33 -20 -3
-6 -32 -11 -63 -12 -48 0 -151 -26 -114 -28 6 -1 11 -7 10 -13 -3 -14 14 -15
50 -4 13 5 22 3 22 -3 0 -6 -5 -11 -11 -11 -7 0 -20 -10 -31 -22 -20 -23 -20
-23 3 -26 12 -2 31 1 43 6 99 46 135 55 92 21 -44 -35 -31 -69 18 -44 l28 15
-6 -48 c-7 -52 9 -201 23 -215 6 -6 21 -1 40 12 17 12 35 20 40 17 14 -9 21
20 21 80 0 61 15 65 44 11 9 -18 14 -23 11 -12 -17 54 -17 85 -1 91 10 4 25
-1 36 -11 22 -20 30 -10 27 35 -2 20 3 26 26 28 21 3 27 9 27 27 0 13 -4 27
-10 30 -5 3 -10 13 -10 22 0 23 68 -67 76 -99 3 -15 9 -30 14 -33 14 -8 1 43
-20 86 -26 49 -25 56 6 63 14 4 24 12 21 19 -2 8 16 16 52 24 55 12 54 12 -39
7 -106 -5 -106 6 0 27 36 7 74 19 85 26 18 12 15 13 -22 13 -59 0 -61 15 -7
36 38 15 43 19 28 25 -34 13 -109 10 -132 -7 -12 -8 -37 -29 -55 -45 -62 -58
-117 -72 -117 -29 0 10 -11 28 -25 41 -13 13 -25 29 -25 35 0 19 -28 24 -34 8
-7 -19 -8 -74 -1 -74 3 0 14 5 25 12 23 15 34 6 25 -21 -14 -45 -75 -33 -75
15 0 13 -4 24 -8 24 -5 0 -17 8 -28 18 -39 34 -54 44 -54 34z"/>
</g>
</svg>
