<?xml version="1.0" standalone="no"?>
<!DOCTYPE svg PUBLIC "-//W3C//DTD SVG 20010904//EN"
 "http://www.w3.org/TR/2001/REC-SVG-20010904/DTD/svg10.dtd">
<svg version="1.0" xmlns="http://www.w3.org/2000/svg"
 width="720.000000pt" height="1280.000000pt" viewBox="0 0 720.000000 1280.000000"
 preserveAspectRatio="xMidYMid meet">
<metadata>
Created by potrace 1.16, written by Peter Selinger 2001-2019
</metadata>
<g transform="translate(0.000000,1280.000000) scale(0.100000,-0.100000)"
fill="#000000" stroke="none">
<path d="M0 6400 l0 -6400 3600 0 3600 0 0 1025 0 1025 -2377 1 c-1308 1
-2393 3 -2411 5 -35 2 -58 14 -29 14 21 0 22 14 1 31 -14 11 -14 13 0 21 33
18 18 38 -28 38 -34 0 -55 -8 -95 -35 -87 -60 -116 -64 -122 -16 -2 14 -10 26
-17 29 -7 2 -11 0 -10 -5 1 -4 -6 -23 -17 -40 -18 -30 -20 -31 -37 -16 -24 22
-23 32 7 43 19 7 25 17 25 40 0 27 -2 29 -19 18 -11 -7 -19 -14 -19 -17 3 -34
-3 -41 -23 -30 -16 8 -20 8 -14 -1 8 -13 -22 -50 -40 -50 -7 0 -18 -7 -25 -15
-11 -13 -131 -15 -971 -15 l-959 0 0 3600 0 3600 3590 0 3590 0 0 1775 0 1775
-3600 0 -3600 0 0 -6400z m6795 3680 c149 -64 198 -258 100 -396 -30 -42 -32
-49 -18 -59 13 -10 13 -15 2 -33 -27 -43 -87 -53 -145 -26 -30 14 -42 15 -87
4 -28 -7 -74 -13 -101 -14 -42 -1 -51 3 -72 29 -22 28 -23 31 -7 42 15 12 15
15 -5 35 -55 60 -78 178 -50 269 23 77 103 146 195 168 49 12 137 3 188 -19z
m-652 4 c52 -18 116 -76 143 -132 27 -55 26 -174 -3 -227 -51 -94 -120 -136
-233 -143 -63 -4 -85 -1 -128 18 -143 62 -200 232 -124 373 44 81 125 126 233
126 36 1 86 -6 112 -15z m-5802 -239 c21 -88 38 -166 38 -172 1 -8 -12 -13
-32 -13 -28 0 -34 4 -42 33 -9 29 -13 32 -50 31 -35 -1 -40 -4 -47 -32 -8 -28
-13 -32 -42 -32 l-34 0 14 58 c7 31 26 110 41 175 l27 118 44 -3 45 -3 38
-160z m369 73 l1 -93 30 38 c23 27 39 37 60 37 16 0 29 -3 29 -6 0 -4 -16 -27
-35 -53 l-34 -47 21 -35 c11 -19 29 -49 40 -66 l20 -33 -36 0 c-30 0 -38 5
-57 40 -26 45 -39 43 -39 -6 0 -31 -2 -34 -30 -34 l-30 0 0 175 0 175 30 0 30
0 0 -92z m1740 -84 l0 -177 -40 6 c-22 3 -43 1 -46 -4 -9 -16 -50 -10 -77 11
-31 25 -45 104 -28 167 17 61 50 79 109 59 21 -7 22 -5 22 53 l0 61 30 0 30 0
0 -176z m452 84 l3 -92 25 37 c20 30 31 37 58 37 30 0 42 -12 24 -24 -5 -3
-21 -23 -36 -44 l-27 -40 40 -66 41 -66 -34 0 c-28 0 -38 7 -62 43 l-29 42 -3
-43 c-3 -42 -4 -43 -35 -40 l-32 3 -3 173 -2 172 34 0 35 0 3 -92z m728 28 l0
-64 29 14 c31 15 77 6 93 -19 4 -7 8 -58 8 -114 l0 -103 -30 0 -29 0 -3 92
c-3 83 -5 93 -22 96 -33 7 -46 -25 -46 -110 l0 -78 -30 0 -30 0 0 175 0 175
30 0 30 0 0 -64z m530 3 c0 -55 2 -60 18 -53 31 13 76 5 95 -17 13 -16 17 -40
17 -101 0 -71 -2 -81 -26 -105 -21 -21 -31 -24 -57 -18 -18 4 -49 6 -69 6
l-38 -2 0 176 0 175 30 0 30 0 0 -61z m-1480 -9 c0 -38 2 -40 30 -40 25 0 30
-4 30 -25 0 -21 -5 -25 -30 -25 l-31 0 3 -67 c3 -66 4 -68 31 -71 28 -3 31 -9
21 -36 -8 -22 -72 -21 -96 1 -14 13 -18 31 -18 90 0 66 -2 75 -20 80 -13 3
-20 14 -20 29 0 17 6 24 20 24 17 0 20 7 20 40 0 38 2 40 30 40 28 0 30 -2 30
-40z m-2096 -60 c24 -24 34 -122 17 -173 -15 -44 -59 -66 -97 -48 -14 6 -27
11 -29 11 -3 0 -5 -30 -5 -66 l0 -65 -27 3 -28 3 -3 179 -2 179 38 -6 c22 -2
46 -1 53 4 19 12 60 2 83 -21z m405 19 c44 -16 51 -35 51 -143 l0 -96 -47 -1
c-27 0 -60 -1 -75 -1 -40 -1 -58 19 -58 63 0 43 20 63 83 80 28 7 37 15 35 27
-5 25 -45 27 -58 3 -13 -25 -48 -28 -57 -5 -8 21 28 67 58 75 35 10 33 10 68
-2z m295 -3 c36 -15 43 -28 48 -86 l3 -35 -63 -3 c-62 -3 -63 -3 -60 -30 3
-31 44 -44 54 -18 4 10 18 16 35 16 35 0 39 -25 10 -61 -15 -19 -29 -24 -66
-24 -39 0 -51 5 -71 28 -33 38 -35 150 -4 190 18 22 30 28 73 36 4 0 23 -5 41
-13z m193 3 c32 -12 43 -26 43 -56 0 -31 -45 -33 -53 -3 -7 26 -47 27 -47 1 0
-12 12 -23 33 -31 74 -30 97 -83 58 -131 -15 -19 -29 -24 -66 -24 -37 0 -51 5
-66 24 -28 34 -25 61 7 61 18 0 28 -6 31 -21 7 -25 46 -22 51 4 3 12 -9 23
-42 37 -76 32 -89 107 -23 135 39 17 39 17 74 4z m197 -3 c31 -13 53 -55 38
-71 -14 -14 -50 -3 -55 16 -4 13 -12 20 -24 17 -29 -5 -21 -32 15 -50 51 -25
72 -48 72 -78 0 -42 -29 -70 -77 -77 -35 -5 -45 -2 -67 20 -36 36 -35 67 3 67
20 0 30 -6 34 -20 7 -28 47 -27 47 0 0 15 -13 26 -45 40 -73 31 -85 108 -21
136 39 17 40 17 80 0z m205 3 c17 -6 36 -19 41 -29 6 -10 10 -62 10 -115 l0
-97 -32 3 c-18 1 -48 -1 -66 -5 -50 -12 -82 13 -82 64 0 44 20 64 83 81 28 7
37 15 35 27 -5 25 -45 27 -58 3 -16 -30 -60 -28 -60 2 0 35 37 65 91 76 3 0
20 -4 38 -10z m318 -21 c17 -16 23 -33 23 -65 l0 -43 -61 0 c-60 0 -60 0 -57
-27 3 -32 44 -46 54 -19 8 20 64 22 64 2 0 -69 -102 -98 -158 -45 -19 17 -22
31 -22 98 0 68 3 80 23 98 12 11 29 23 37 26 25 10 73 -2 97 -25z m1001 -4
c18 -20 22 -37 22 -87 0 -84 -7 -105 -42 -123 -37 -19 -99 -11 -124 17 -23 26
-31 127 -13 170 25 61 112 74 157 23z m240 8 c8 -10 12 -52 12 -119 l0 -103
-30 0 -30 0 0 90 c0 75 -3 92 -17 97 -32 12 -53 -32 -53 -113 l0 -74 -30 0
-30 0 0 120 0 120 29 0 c16 0 31 -5 33 -11 2 -6 14 -5 33 5 33 17 63 13 83
-12z m530 -9 c15 -16 22 -37 22 -64 l0 -39 -61 0 c-60 0 -60 0 -57 -27 3 -32
44 -46 54 -19 4 10 18 16 35 16 35 0 40 -29 9 -60 -27 -27 -63 -34 -105 -20
-46 15 -55 34 -55 123 0 64 3 76 23 94 12 11 29 23 37 26 28 9 75 -5 98 -30z
m757 5 c17 -16 21 -34 23 -119 l4 -100 -44 1 c-23 1 -54 -1 -68 -5 -35 -9 -80
27 -80 63 1 39 21 60 74 78 33 11 46 21 46 35 0 26 -36 25 -52 -1 -13 -20 -52
-27 -62 -12 -10 17 29 76 54 83 36 9 82 -1 105 -23z m394 21 c36 -13 61 -53
61 -99 l0 -30 -59 0 c-65 0 -73 -5 -64 -38 6 -26 48 -31 57 -7 3 9 18 15 36
15 28 0 31 -3 25 -22 -4 -13 -18 -34 -33 -47 -21 -19 -33 -22 -65 -18 -59 8
-80 35 -85 107 -5 75 11 118 52 136 38 16 36 16 75 3z m249 0 l43 2 -3 -155
c-3 -134 -5 -157 -22 -175 -42 -46 -144 -35 -166 19 -7 16 -9 34 -5 39 10 18
44 12 57 -9 24 -38 78 -16 78 33 0 11 -11 13 -48 9 -44 -4 -51 -2 -70 23 -18
22 -22 41 -21 94 0 36 4 74 8 85 10 27 52 47 81 39 14 -3 44 -5 68 -4z m237
-20 c17 -16 21 -35 23 -120 l4 -100 -44 1 c-23 1 -55 -1 -70 -5 -21 -6 -32 -2
-52 18 -14 15 -26 38 -26 52 0 25 31 65 50 65 6 0 26 7 45 14 25 11 33 19 29
30 -9 23 -51 20 -59 -4 -4 -12 -15 -20 -29 -20 -32 0 -36 7 -24 42 20 56 107
71 153 27z m-3045 -99 l0 -120 -35 0 -35 0 0 120 0 120 35 0 35 0 0 -120z
m1840 108 c0 -9 3 -9 12 0 16 16 83 15 96 0 5 -7 12 -60 14 -118 l3 -105 -32
-3 -33 -3 0 91 c0 72 -3 92 -15 96 -33 13 -45 -15 -45 -102 l0 -84 -35 0 -35
0 0 120 0 120 35 0 c21 0 35 -5 35 -12z m431 -5 c0 -10 8 -43 18 -73 l17 -55
18 73 c18 71 19 72 51 72 l33 0 -34 -117 c-69 -246 -66 -238 -103 -241 -28 -3
-32 -1 -28 15 31 106 31 95 -2 207 -18 59 -35 114 -38 122 -4 10 4 14 31 14
27 0 36 -4 37 -17z"/>
<path d="M6613 9773 c-20 -4 -23 -11 -23 -51 l0 -47 85 0 85 0 0 46 c0 40 -3
48 -22 53 -25 6 -90 6 -125 -1z"/>
<path d="M1777 6101 c-23 -21 -57 -50 -74 -66 -35 -30 -44 -65 -18 -65 9 0 27
-11 40 -25 l25 -24 0 -349 0 -349 -46 -42 c-25 -24 -44 -45 -42 -47 2 -1 115
-6 252 -9 l248 -6 52 25 c60 30 186 148 166 154 -8 3 -16 0 -18 -6 -3 -9 -79
-12 -268 -12 -146 0 -262 4 -260 9 3 5 19 14 35 21 16 6 32 19 36 28 3 9 6
176 5 371 0 389 0 384 -60 415 -31 15 -32 15 -73 -23z"/>
<path d="M2080 6121 c0 -5 -8 -12 -18 -16 -24 -7 -42 -46 -42 -88 1 -26 8 -37
41 -60 48 -33 68 -76 76 -162 l6 -63 36 16 c20 9 38 20 39 25 2 4 9 7 16 7 38
0 85 135 71 201 -7 32 -33 87 -49 106 -6 7 -17 19 -24 28 -14 17 -152 22 -152
6z"/>
<path d="M2853 6035 c-57 -53 -76 -78 -92 -123 -11 -32 -34 -94 -51 -140 -16
-46 -30 -87 -30 -91 0 -13 83 -21 96 -10 7 5 19 33 28 62 9 29 25 72 36 97 37
88 92 249 88 261 -2 6 -36 -19 -75 -56z"/>
<path d="M3337 5997 c-42 -40 -77 -75 -77 -79 0 -4 15 -14 34 -23 56 -27 58
-40 55 -348 -3 -236 -1 -280 11 -287 18 -12 19 -12 -147 -14 l-122 -1 24 21
c30 25 31 55 8 127 -22 69 -67 126 -120 149 -63 28 -195 45 -229 30 -14 -7
-24 -15 -21 -18 2 -3 -4 -27 -14 -55 -11 -27 -19 -55 -19 -62 0 -6 28 -20 62
-30 80 -24 131 -65 161 -130 40 -84 42 -109 12 -137 -49 -46 -38 -50 123 -50
l148 0 49 50 c27 28 55 50 61 50 22 0 1 -44 -38 -81 -21 -19 -38 -40 -38 -47
0 -16 268 -21 295 -6 11 7 47 37 79 67 l60 55 48 -54 c44 -48 55 -54 118 -68
109 -25 159 -22 202 14 35 29 36 29 59 11 114 -88 274 -109 393 -51 56 27 66
25 66 -10 0 -30 0 -30 56 -30 53 0 58 2 112 54 31 29 67 62 80 72 l23 19 -53
5 c-49 5 -53 7 -56 33 -4 33 -8 33 -85 1 -54 -23 -72 -26 -147 -22 -65 3 -99
10 -143 31 -60 27 -187 139 -187 164 0 7 -4 13 -9 13 -9 0 -19 23 -40 95 -7
22 -17 50 -23 62 -24 49 27 308 66 335 6 4 7 10 3 14 -4 5 -41 -25 -82 -66
-79 -79 -129 -162 -144 -244 -8 -42 -5 -54 26 -119 54 -112 103 -171 170 -203
55 -25 56 -27 33 -36 -59 -22 -215 15 -267 64 -32 30 -60 112 -72 207 -15 118
-36 151 -96 151 -30 0 -103 -71 -111 -108 -3 -15 -7 -32 -9 -39 -2 -6 5 -21
15 -33 18 -21 32 -73 45 -172 3 -27 10 -48 16 -48 5 0 9 -4 9 -10 0 -6 -55
-10 -145 -10 -88 0 -145 4 -145 10 0 5 11 12 25 16 14 3 34 19 45 34 19 27 20
45 20 380 0 389 -1 398 -63 420 -17 5 -30 10 -31 10 -1 -1 -36 -33 -79 -73z"/>
<path d="M3673 6045 c-22 -10 -33 -24 -39 -47 -12 -54 -4 -81 33 -112 48 -40
73 -97 73 -169 l0 -58 33 17 c99 50 131 97 131 195 0 77 -33 155 -75 176 -32
17 -116 15 -156 -2z"/>
<path d="M4381 5988 c-48 -13 -88 -46 -115 -94 l-23 -41 64 -6 c69 -5 120 -33
217 -118 30 -26 54 -39 73 -39 37 0 103 43 168 109 48 50 48 51 18 42 -26 -8
-38 -5 -70 16 -21 14 -45 33 -53 43 -8 9 -39 36 -68 59 -50 38 -58 41 -115 40
-34 0 -77 -5 -96 -11z"/>
<path d="M2899 5923 c-6 -16 -20 -48 -30 -73 -31 -74 -68 -184 -63 -192 2 -3
18 -9 34 -13 16 -4 71 -29 121 -56 88 -48 117 -54 103 -20 -16 38 -66 179 -76
211 -5 19 -13 40 -17 45 -4 6 -16 36 -26 68 -11 31 -23 57 -27 57 -5 0 -13
-12 -19 -27z"/>
<path d="M5215 5878 c-64 -61 -68 -67 -116 -196 -27 -73 -47 -136 -45 -141 3
-5 22 -11 41 -13 33 -4 36 -2 58 47 13 27 28 61 32 75 4 14 13 39 20 55 7 17
23 57 35 90 13 33 26 65 30 70 7 10 19 75 14 75 -1 0 -32 -28 -69 -62z"/>
<path d="M5717 5812 c-37 -37 -67 -70 -67 -74 0 -3 11 -9 24 -12 49 -12 57
-43 57 -214 0 -86 -3 -200 -7 -253 -6 -91 -5 -98 15 -118 12 -12 21 -30 19
-39 -3 -15 -22 -17 -151 -20 -157 -3 -172 2 -127 43 23 21 25 59 5 95 -8 14
-14 36 -15 48 0 31 -73 107 -119 125 -47 19 -184 32 -206 20 -18 -11 -67 -121
-59 -135 3 -4 11 -8 18 -8 37 0 117 -34 152 -64 29 -25 48 -53 64 -98 33 -88
33 -91 0 -123 -17 -16 -30 -32 -30 -37 0 -4 64 -8 143 -8 l142 0 59 55 c56 53
105 74 92 39 -3 -9 -6 -27 -6 -41 0 -17 -15 -39 -46 -68 l-46 -42 32 -7 c64
-12 377 -7 432 8 61 17 108 38 108 49 0 4 6 7 13 7 7 0 29 17 48 37 18 20 27
32 19 26 -8 -5 -37 -9 -65 -8 -27 1 -135 6 -240 10 -104 3 -196 8 -202 10 -22
7 -4 30 41 49 l43 19 7 121 c11 234 19 584 12 610 -4 17 -20 33 -46 46 -21 11
-41 20 -42 20 -2 0 -34 -30 -71 -68z"/>
<path d="M6080 5858 c-53 -28 -67 -118 -19 -128 103 -21 202 -145 235 -292 8
-37 4 -199 -6 -243 -14 -60 -12 -75 8 -75 21 0 52 31 75 75 59 111 61 116 65
248 3 87 1 132 -7 140 -6 6 -11 23 -11 37 0 15 -3 30 -7 34 -5 4 -12 23 -18
42 -13 46 -72 118 -116 143 -46 26 -164 38 -199 19z"/>
<path d="M5255 5735 c-42 -94 -77 -194 -73 -212 2 -9 11 -17 21 -19 27 -4 176
-75 188 -91 6 -7 15 -11 19 -8 10 6 -1 49 -40 155 -17 47 -37 105 -44 130 -7
25 -20 59 -29 75 l-15 30 -27 -60z"/>
<path d="M2145 5706 c-32 -14 -71 -53 -100 -98 -19 -31 -18 -32 50 -43 86 -14
125 -73 133 -197 l5 -77 31 6 c46 9 73 32 101 87 21 42 25 64 25 134 0 88 -5
104 -52 165 -29 36 -31 37 -96 37 -37 -1 -80 -7 -97 -14z"/>
<path d="M2552 5620 l-52 -49 0 -70 0 -70 35 -12 c19 -7 35 -16 35 -20 0 -4
-13 -44 -30 -90 -26 -74 -37 -91 -91 -141 -33 -31 -58 -62 -54 -67 3 -7 43
-11 93 -11 l87 0 73 71 c70 69 85 92 60 88 -7 -1 -44 -1 -82 0 -60 1 -67 3
-56 16 7 8 18 15 24 15 20 0 71 54 75 80 1 14 7 33 13 44 20 38 57 149 52 158
-3 4 -16 8 -29 8 -26 0 -75 55 -75 83 0 29 -23 19 -78 -33z"/>
<path d="M4561 5527 c-76 -77 -76 -77 -26 -102 34 -18 45 -55 45 -154 l0 -93
31 6 c41 8 96 42 113 70 9 13 16 68 19 147 6 126 6 126 -21 158 -15 17 -40 34
-57 37 -27 5 -38 -2 -104 -69z"/>
<path d="M4912 5467 l-52 -53 0 -66 c0 -69 6 -78 51 -78 26 0 24 -15 -12 -108
-25 -68 -40 -90 -97 -146 l-67 -66 100 0 100 0 68 63 c38 34 65 65 61 70 -4 4
-43 7 -86 7 -78 0 -100 11 -55 30 12 5 32 17 44 27 23 19 113 213 113 244 0
12 -16 25 -45 38 -36 16 -47 26 -51 51 -4 17 -10 32 -14 35 -3 2 -30 -19 -58
-48z"/>
</g>
</svg>
