<?xml version="1.0" standalone="no"?>
<!DOCTYPE svg PUBLIC "-//W3C//DTD SVG 20010904//EN"
 "http://www.w3.org/TR/2001/REC-SVG-20010904/DTD/svg10.dtd">
<svg version="1.0" xmlns="http://www.w3.org/2000/svg"
 width="720.000000pt" height="1280.000000pt" viewBox="0 0 720.000000 1280.000000"
 preserveAspectRatio="xMidYMid meet">
<metadata>
Created by potrace 1.16, written by Peter Selinger 2001-2019
</metadata>
<g transform="translate(0.000000,1280.000000) scale(0.100000,-0.100000)"
fill="#000000" stroke="none">
<path d="M0 6400 l0 -6400 3600 0 3600 0 0 6400 0 6400 -3600 0 -3600 0 0
-6400z m6796 3680 c79 -37 138 -117 149 -206 9 -63 -8 -125 -50 -190 -28 -44
-31 -52 -17 -60 13 -9 13 -13 -2 -37 -23 -35 -90 -46 -137 -23 -33 16 -80 14
-147 -6 -47 -14 -99 -2 -118 28 -13 20 -14 27 -4 39 11 13 9 19 -7 38 -58 63
-80 189 -48 273 55 145 232 211 381 144z m-653 4 c125 -42 198 -200 153 -327
-41 -113 -135 -177 -261 -177 -137 0 -237 76 -264 200 -15 70 -3 142 33 203
25 41 43 58 94 84 54 28 75 33 131 33 37 0 88 -7 114 -16z m-5834 -111 c15
-56 71 -300 71 -307 0 -3 -16 -6 -35 -6 -30 0 -35 3 -35 24 0 30 -4 33 -54 37
-37 4 -40 2 -48 -29 -8 -28 -13 -32 -42 -32 l-34 0 14 58 c7 31 26 110 41 175
l27 117 43 0 c40 0 43 -2 52 -37z m401 -55 l1 -93 30 38 c23 27 39 37 60 37
16 0 29 -3 29 -6 0 -4 -16 -28 -35 -53 -30 -41 -33 -50 -21 -67 7 -10 25 -40
40 -66 l27 -48 -35 0 c-30 0 -38 5 -57 40 -26 45 -39 43 -39 -6 0 -31 -2 -34
-30 -34 l-30 0 0 175 0 175 30 0 30 0 0 -92z m1740 -83 l0 -176 -42 1 c-24 1
-55 -1 -69 -5 -19 -5 -33 -1 -55 18 -28 24 -29 29 -28 107 1 68 4 85 21 102
22 21 54 27 91 14 21 -7 22 -5 22 53 l0 61 30 0 30 0 0 -175z m452 83 l3 -92
25 37 c20 30 31 37 58 37 30 0 42 -12 24 -24 -5 -3 -21 -23 -36 -44 l-27 -40
40 -66 41 -66 -34 0 c-28 0 -38 7 -62 43 l-29 42 -3 -42 c-3 -42 -4 -43 -38
-43 l-34 0 0 175 0 175 35 0 34 0 3 -92z m728 27 l0 -66 30 16 c33 17 60 13
85 -11 11 -12 15 -40 15 -120 l0 -104 -30 0 -30 0 0 90 c0 75 -3 92 -16 97
-37 14 -49 -10 -52 -101 l-3 -86 -29 0 -30 0 0 175 0 175 30 0 30 0 0 -65z
m530 4 c0 -58 1 -60 23 -53 76 26 107 -8 107 -118 0 -71 -2 -81 -26 -105 -20
-20 -31 -24 -52 -18 -15 4 -46 6 -69 5 l-43 -1 0 176 0 175 30 0 30 0 0 -61z
m-1482 -11 c3 -35 6 -38 33 -38 24 0 29 -4 29 -25 0 -21 -5 -25 -30 -25 l-31
0 3 -67 c3 -66 4 -68 31 -71 21 -3 27 -8 23 -19 -3 -8 -6 -19 -6 -24 0 -16
-73 -10 -92 8 -14 13 -18 31 -18 90 0 66 -2 75 -20 80 -13 3 -20 14 -20 29 0
17 6 24 20 24 16 0 20 7 20 33 0 40 7 49 35 45 15 -2 21 -12 23 -40z m-2094
-59 c24 -23 34 -121 17 -172 -15 -44 -59 -66 -97 -48 -14 6 -27 11 -29 11 -3
0 -5 -30 -5 -66 l0 -65 -27 3 -28 3 -3 179 -2 179 37 -5 c21 -3 47 -2 58 3 26
10 55 2 79 -22z m405 20 c44 -16 51 -35 51 -143 l0 -96 -47 -1 c-27 0 -60 -1
-75 -1 -40 -1 -58 19 -58 63 0 43 20 63 83 80 28 7 37 15 35 27 -5 26 -48 28
-55 3 -4 -14 -13 -21 -29 -21 -65 0 -15 96 52 99 6 1 25 -4 43 -10z m290 0
c38 -14 51 -35 51 -88 l0 -41 -61 0 c-60 0 -60 0 -57 -27 3 -32 44 -46 54 -19
4 10 18 16 35 16 35 0 39 -25 10 -61 -27 -34 -99 -34 -135 0 -23 22 -26 32
-26 96 0 79 20 120 63 128 12 2 25 5 28 6 3 0 20 -4 38 -10z m198 0 c32 -12
43 -26 43 -56 0 -31 -45 -33 -53 -3 -7 26 -47 27 -47 1 0 -11 12 -23 30 -31
78 -32 101 -82 61 -131 -15 -19 -29 -24 -66 -24 -37 0 -51 5 -66 24 -29 36
-25 61 11 61 24 0 30 -4 30 -21 0 -15 5 -20 23 -17 37 5 26 36 -23 60 -88 45
-75 133 22 147 4 1 19 -4 35 -10z m197 -3 c31 -13 53 -55 38 -71 -14 -14 -50
-3 -55 16 -4 13 -12 20 -24 17 -29 -5 -21 -32 15 -50 73 -36 92 -81 53 -129
-15 -19 -29 -24 -66 -24 -37 0 -51 5 -66 24 -29 36 -25 61 10 61 21 0 30 -6
34 -21 7 -25 40 -22 45 3 2 12 -11 24 -43 39 -74 35 -86 106 -22 134 40 18 41
18 81 1z m205 3 c17 -6 36 -19 41 -29 6 -10 10 -62 10 -115 l0 -97 -32 3 c-18
1 -48 -1 -66 -5 -50 -12 -82 13 -82 64 0 44 20 64 83 81 28 7 37 15 35 27 -5
25 -45 27 -58 3 -13 -24 -48 -28 -56 -6 -8 20 21 64 49 75 30 12 39 12 76 -1z
m318 -21 c17 -16 23 -33 23 -65 l0 -43 -61 0 c-60 0 -60 0 -57 -27 3 -32 44
-46 54 -19 8 20 64 22 64 2 0 -69 -102 -98 -158 -45 -19 17 -22 31 -22 98 0
68 3 80 23 98 12 11 29 23 37 26 25 10 73 -2 97 -25z m1001 -4 c18 -21 22 -36
22 -98 0 -65 -3 -75 -26 -97 -35 -33 -104 -34 -136 -2 -27 28 -37 127 -17 174
24 60 111 73 157 23z m240 8 c8 -10 12 -52 12 -119 l0 -103 -30 0 -30 0 0 90
c0 75 -3 92 -17 97 -32 12 -53 -32 -53 -113 l0 -74 -30 0 -30 0 0 120 0 120
29 0 c16 0 31 -5 33 -11 2 -6 14 -5 33 5 33 17 63 13 83 -12z m529 -4 c17 -16
23 -33 23 -65 l0 -43 -61 0 c-60 0 -60 0 -57 -27 3 -32 44 -46 54 -19 4 10 18
16 35 16 35 0 40 -29 9 -60 -27 -27 -63 -34 -105 -20 -46 15 -55 34 -55 123 0
64 3 76 23 94 12 11 29 23 37 26 25 10 73 -2 97 -25z m540 8 c6 -6 13 -57 16
-118 l5 -108 -34 0 -34 0 0 90 c0 72 -3 92 -15 96 -33 13 -45 -15 -45 -102 l0
-84 -35 0 -35 0 0 120 0 120 35 0 c19 0 35 -4 35 -9 0 -6 12 -3 28 4 28 15 58
12 79 -9z m218 -7 c17 -16 21 -35 23 -120 l4 -100 -44 1 c-23 1 -54 -1 -68 -5
-35 -9 -80 27 -80 64 0 39 19 60 70 75 33 10 46 19 48 35 4 28 -33 29 -50 1
-12 -19 -48 -27 -60 -14 -15 14 11 60 43 77 40 20 84 15 114 -14z m400 16 c37
-15 55 -46 55 -96 0 -29 0 -29 -59 -29 -65 0 -73 -5 -64 -38 6 -26 53 -32 53
-7 0 11 11 15 36 15 32 0 35 -2 29 -22 -4 -13 -18 -34 -33 -47 -21 -19 -33
-22 -65 -18 -59 8 -80 35 -85 107 -5 75 11 118 52 136 39 17 40 17 81 -1z
m198 1 c15 -8 27 -11 27 -5 0 5 14 9 30 9 l30 0 0 -149 c0 -134 -2 -151 -20
-174 -41 -52 -147 -44 -170 13 -7 16 -9 34 -5 39 10 18 44 12 57 -9 26 -41 78
-15 78 40 0 17 -3 19 -19 10 -36 -19 -78 -12 -100 16 -16 21 -21 41 -21 90 0
72 13 107 44 122 29 14 37 14 69 -2z m285 -22 c19 -22 22 -36 22 -120 l0 -95
-42 1 c-24 1 -55 -1 -70 -5 -21 -6 -32 -2 -52 18 -48 48 -29 99 44 121 33 10
46 19 48 35 4 28 -33 29 -50 1 -12 -19 -48 -27 -60 -14 -15 14 11 60 43 77 43
22 86 16 117 -19z m-3048 -94 l0 -120 -35 0 -35 0 0 113 c0 63 3 117 7 120 3
4 19 7 35 7 l28 0 0 -120z m2271 103 c0 -10 8 -43 18 -73 l17 -55 19 73 c18
70 20 72 51 72 l32 0 -24 -82 c-79 -281 -76 -273 -113 -276 -28 -3 -33 -1 -27
14 28 74 28 99 -3 207 -18 59 -34 113 -37 122 -5 12 2 15 30 15 27 0 36 -4 37
-17z m-2183 -739 c6 -58 15 -110 18 -116 4 -6 71 -53 150 -104 79 -52 146 -99
149 -104 4 -6 -25 -10 -77 -10 -59 0 -90 -5 -105 -15 -21 -15 -29 -11 -146 65
-101 65 -131 80 -163 80 -37 0 -79 -20 -96 -44 -5 -8 -10 -8 -18 0 -7 7 3 46
35 129 25 65 48 122 52 126 5 4 45 -17 91 -48 46 -30 85 -53 87 -51 2 2 -2 31
-9 63 -29 129 -30 135 -3 135 22 0 23 -5 35 -106z m183 45 c3 -30 13 -68 23
-86 22 -41 105 -132 106 -115 0 6 4 12 10 12 5 0 7 -7 4 -15 -4 -9 1 -17 12
-21 11 -4 28 -15 39 -25 11 -10 27 -19 35 -21 18 -4 40 -23 40 -36 0 -5 10
-17 22 -28 l22 -19 -17 30 -18 30 21 -24 c11 -13 19 -30 16 -37 -3 -7 -1 -16
4 -19 6 -4 10 -14 10 -23 0 -9 6 -28 13 -42 13 -26 7 -57 -22 -109 -23 -41 4
-47 29 -7 18 30 21 46 17 98 -3 35 -10 75 -16 90 -15 39 -92 120 -108 114 -7
-3 -12 0 -10 6 1 6 -4 13 -12 16 -9 3 -11 0 -6 -9 5 -8 4 -11 -1 -6 -5 5 -9
14 -9 20 0 7 -12 11 -25 9 -17 -1 -21 1 -12 6 9 6 2 16 -27 36 -43 30 -79 73
-99 119 -17 40 -16 104 3 111 12 4 15 -3 15 -30 0 -42 23 -100 53 -132 12 -13
55 -47 96 -74 141 -95 194 -172 195 -288 1 -78 -19 -119 -82 -167 -98 -75
-236 -43 -292 68 -11 21 -20 53 -19 71 1 33 1 33 15 -10 12 -39 30 -60 101
-122 13 -11 104 -13 141 -4 48 13 14 27 -66 27 -55 0 -80 3 -79 11 1 6 -4 10
-11 8 -6 -1 -11 4 -10 10 2 7 -3 12 -11 10 -12 -3 -12 0 -2 12 9 11 10 20 2
35 -15 28 -14 51 4 51 8 0 15 -8 15 -17 0 -31 37 -80 65 -87 39 -10 91 11 116
45 17 24 20 39 15 71 -13 78 -48 123 -158 195 -120 79 -188 179 -188 274 0 73
33 64 41 -12z m541 56 c3 -4 1 -25 -4 -48 -28 -118 -35 -165 -35 -235 -1 -67
0 -71 7 -32 7 44 7 44 10 10 1 -19 8 15 15 76 18 156 54 259 81 231 3 -2 -4
-40 -16 -83 -11 -43 -20 -84 -20 -92 0 -12 21 -13 133 -8 176 9 187 12 187 42
0 13 -11 52 -25 85 l-24 60 22 -3 c17 -2 27 -17 44 -67 14 -44 23 -58 26 -45
2 10 3 2 1 -19 -4 -32 -2 -36 9 -26 11 11 11 23 2 69 -7 30 -16 63 -20 73 -5
12 -3 17 9 17 21 0 30 -20 55 -120 37 -149 77 -591 52 -576 -6 4 -11 24 -11
45 0 37 -19 68 -33 54 -4 -3 -7 2 -8 13 -1 41 -18 -20 -18 -68 -1 -47 -21 -70
-21 -25 -1 62 -30 389 -35 395 -2 2 -82 0 -179 -4 l-176 -7 0 -208 c0 -133 -4
-209 -10 -209 -5 0 -10 18 -10 39 0 22 -4 43 -10 46 -5 3 -11 21 -11 38 l-2
32 -7 -35 c-7 -33 -8 -31 -10 20 -2 47 -4 40 -14 -50 -18 -170 -31 -105 -30
155 0 178 5 251 19 325 24 130 36 156 57 135z m728 -2 c-1 -5 -7 -35 -15 -68
-24 -98 -36 -91 142 -82 86 4 159 9 162 12 3 3 -1 27 -8 53 -24 85 -25 92 -7
92 9 0 18 -6 20 -12 2 -7 12 -35 21 -62 15 -41 19 -46 28 -31 6 12 6 30 -2 55
-14 48 -14 50 3 50 32 0 79 -237 96 -490 12 -181 12 -180 0 -180 -5 0 -10 17
-10 39 0 23 -6 44 -16 52 -12 10 -14 23 -9 60 5 36 3 49 -8 56 -8 4 -17 17
-20 28 -2 11 -3 0 -1 -25 6 -59 -7 -220 -17 -220 -4 0 -10 39 -14 88 -3 48
-12 143 -18 212 l-12 125 -60 0 c-33 -1 -111 -3 -173 -5 -100 -4 -115 -7 -124
-24 -7 -13 -8 -84 -4 -213 5 -124 4 -193 -2 -193 -15 0 -23 79 -29 275 -3 109
0 208 7 251 10 62 6 133 -6 121 -14 -14 -31 -181 -32 -315 -2 -184 -11 -332
-22 -332 -13 0 -23 245 -16 380 6 118 28 279 41 300 7 12 105 14 105 3z m685
-5 c4 -11 55 -437 55 -460 0 -5 37 -8 83 -8 103 0 166 20 218 70 36 34 39 41
39 89 0 56 -15 95 -49 125 -12 11 -21 23 -21 27 0 13 60 41 75 35 7 -2 19 -30
26 -61 15 -67 1 -172 -30 -233 -29 -56 -105 -128 -169 -159 -53 -26 -66 -28
-172 -28 -97 0 -123 4 -162 22 l-48 22 0 81 c0 44 2 80 5 80 4 0 20 -7 37 -16
40 -21 128 -47 135 -40 3 3 -4 94 -17 201 -22 186 -24 197 -49 216 -22 18 -36
20 -98 17 -40 -3 -73 -4 -73 -2 0 1 -3 9 -6 18 -5 14 8 16 105 16 80 0 113 -4
116 -12z m-2791 -220 c-8 -66 9 -90 104 -152 37 -23 197 -127 355 -230 159
-103 304 -194 322 -202 29 -12 40 -12 84 3 28 9 54 13 57 10 4 -3 -9 -30 -28
-59 -19 -29 -63 -97 -97 -150 -35 -54 -67 -96 -72 -93 -4 3 -5 28 -2 55 10 84
38 61 -551 442 -254 164 -271 170 -339 123 -20 -13 -39 -20 -42 -15 -3 5 28
60 68 122 41 62 86 132 100 156 37 57 49 54 41 -10z m1666 -238 c0 -110 -18
-202 -56 -287 -16 -38 -23 -66 -19 -84 5 -20 1 -30 -12 -37 -25 -14 -46 0 -83
53 l-31 45 20 26 20 25 26 -41 c15 -23 29 -40 31 -37 13 13 44 252 44 339 0
92 1 97 23 100 12 2 25 2 30 0 4 -2 7 -48 7 -102z m601 -65 l99 -65 0 -42 c0
-53 28 -100 68 -117 23 -10 46 -10 98 -2 l68 10 85 -54 c100 -65 149 -73 199
-30 59 49 44 4 -44 -133 -130 -203 -139 -212 -127 -126 10 75 -4 92 -163 195
-79 52 -199 130 -267 174 l-122 80 -8 55 c-7 52 -2 120 9 120 3 0 50 -29 105
-65z m-133 -287 c21 -29 123 -175 225 -325 177 -257 202 -303 163 -303 -6 0
-94 15 -196 34 -102 19 -311 57 -465 86 -154 28 -288 53 -297 56 -32 9 -18
-10 25 -37 23 -15 173 -111 332 -215 270 -176 293 -188 337 -189 36 0 52 6 72
24 16 16 30 21 36 15 5 -5 -18 -50 -61 -118 -69 -106 -100 -128 -80 -58 6 20
6 45 0 68 -9 32 -27 46 -172 141 -89 58 -228 148 -309 202 -239 156 -300 191
-336 191 -37 0 -88 -23 -95 -42 -3 -9 -8 -10 -15 -3 -8 7 3 31 34 80 45 70 45
70 87 67 23 -1 61 -7 84 -13 23 -6 61 -8 85 -5 24 4 61 9 83 12 26 3 130 -11
290 -41 138 -25 288 -53 335 -61 47 -8 93 -17 104 -20 14 -5 16 -3 10 8 -14
22 -233 341 -286 415 -40 57 -51 83 -33 83 3 0 22 -24 43 -52z m-1073 -2591
c61 -24 80 -44 80 -87 0 -31 -8 -47 -35 -76 -56 -59 -141 -88 -195 -68 -33 13
-64 124 -35 124 6 0 10 -16 10 -35 0 -72 67 -95 155 -54 49 23 85 65 85 98 0
40 -71 81 -140 81 -36 0 -158 -25 -206 -43 -61 -22 -175 -99 -231 -155 -154
-154 -174 -301 -49 -362 87 -42 219 -18 358 65 78 47 198 153 198 175 0 9 -16
10 -57 6 -159 -16 -276 -18 -268 -6 4 7 24 19 44 27 67 28 503 30 475 3 -5 -5
-36 -10 -68 -12 l-59 -3 -77 -112 c-42 -62 -99 -151 -126 -197 -27 -47 -52
-85 -56 -86 -16 0 -6 30 42 129 28 56 50 104 50 106 0 2 -30 -14 -67 -35 -217
-125 -412 -132 -497 -17 -31 42 -28 135 7 207 43 88 158 194 277 257 56 29
165 69 210 76 51 9 146 5 175 -6z m1285 -125 c0 -8 -52 -94 -70 -115 -35 -40
-104 -136 -117 -161 -17 -33 -14 -32 62 25 161 120 238 118 146 -3 -56 -74
-81 -119 -81 -147 0 -60 61 -21 180 115 84 97 123 129 143 117 13 -8 7 -21
-30 -65 -94 -112 -138 -208 -95 -208 30 0 85 49 170 151 82 98 118 129 140
122 21 -8 13 -34 -27 -82 -53 -63 -101 -141 -101 -163 0 -47 48 -27 141 56 25
23 12 8 -29 -31 -56 -56 -80 -73 -102 -73 -37 0 -53 22 -48 65 2 19 2 35 0 35
-3 0 -25 -18 -49 -41 -24 -22 -61 -47 -81 -56 -35 -14 -37 -14 -55 8 -18 23
-19 48 -1 93 5 12 -16 0 -55 -32 -34 -29 -73 -55 -87 -58 -64 -16 -73 65 -18
163 20 36 34 66 32 68 -14 15 -170 -118 -223 -190 -36 -48 -47 -57 -59 -45 -5
5 1 27 14 52 13 24 30 57 39 73 24 45 110 185 137 225 55 78 124 135 124 102z
m-545 -162 c10 -11 24 -20 32 -20 24 0 14 -28 -37 -106 -55 -84 -68 -120 -52
-136 19 -19 58 1 122 64 34 35 53 49 42 32 -28 -42 -104 -110 -132 -119 -31
-10 -66 11 -76 47 l-9 29 -53 -45 c-59 -50 -69 -53 -112 -31 -55 28 -38 105
43 192 93 101 190 139 232 93z m-470 -29 c3 -5 -18 -37 -47 -71 -121 -139
-143 -195 -64 -158 45 22 192 141 234 190 34 38 72 51 72 23 0 -8 -21 -48 -47
-89 -27 -41 -70 -112 -96 -159 -26 -47 -68 -105 -92 -129 -65 -66 -136 -80
-167 -34 -14 21 -8 29 10 13 50 -45 114 -12 183 95 38 59 94 187 85 195 -2 3
-40 -22 -83 -55 -43 -32 -93 -65 -111 -72 -28 -11 -35 -10 -52 5 -29 26 -25
55 19 123 65 99 135 155 156 123z m1705 -3217 c28 -137 50 -250 50 -252 0 -2
-12 -2 -27 0 l-28 3 -47 230 c-25 127 -47 242 -47 257 -1 30 18 42 37 24 7 -7
35 -125 62 -262z"/>
<path d="M6613 9773 c-20 -4 -23 -11 -23 -51 l0 -47 85 0 85 0 0 46 c0 40 -3
48 -22 53 -25 6 -90 6 -125 -1z"/>
<path d="M3707 5517 c-94 -57 -197 -189 -181 -231 10 -27 52 -18 94 20 44 40
170 205 170 223 0 18 -43 12 -83 -12z"/>
</g>
</svg>
