<?xml version="1.0" standalone="no"?>
<!DOCTYPE svg PUBLIC "-//W3C//DTD SVG 20010904//EN"
 "http://www.w3.org/TR/2001/REC-SVG-20010904/DTD/svg10.dtd">
<svg version="1.0" xmlns="http://www.w3.org/2000/svg"
 width="720.000000pt" height="1280.000000pt" viewBox="0 0 720.000000 1280.000000"
 preserveAspectRatio="xMidYMid meet">
<metadata>
Created by potrace 1.16, written by Peter Selinger 2001-2019
</metadata>
<g transform="translate(0.000000,1280.000000) scale(0.100000,-0.100000)"
fill="#000000" stroke="none">
<path d="M0 6400 l0 -6400 3600 0 3600 0 0 1030 0 1030 -80 0 c-82 0 -95 6
-60 28 23 14 25 46 13 215 -4 68 -10 97 -19 97 -7 0 -14 5 -16 10 -2 6 -21 13
-43 17 -22 3 -43 10 -46 15 -3 5 -57 12 -120 14 -78 4 -133 12 -174 26 -32 11
-100 24 -150 28 -49 3 -100 12 -112 18 -12 7 -51 12 -87 12 -37 0 -66 4 -66
10 0 6 -27 10 -61 10 -33 0 -70 6 -82 12 -14 8 -91 15 -215 18 -123 4 -196 10
-200 17 -4 6 -32 14 -62 17 -30 4 -77 9 -105 12 -47 6 -92 34 -78 48 4 3 -2 6
-12 6 -10 0 -16 3 -12 6 3 4 14 3 24 -1 27 -12 72 -5 95 13 47 40 65 55 98 86
118 107 279 246 286 247 5 0 31 26 58 56 l49 56 -7 181 c-4 99 -10 183 -13
186 -12 12 -34 -37 -30 -66 8 -49 -4 -59 -78 -60 -76 -2 -86 8 -90 85 -1 25
-3 49 -4 53 0 4 -13 8 -28 10 -19 2 -27 8 -24 18 2 8 7 32 10 54 7 45 34 61
71 43 14 -7 54 -11 96 -9 l73 4 -2 101 c-1 70 8 156 27 274 16 95 26 184 22
198 -9 35 -74 74 -157 93 l-68 16 -32 110 c-65 224 -171 506 -191 506 -4 0 1
-20 12 -45 62 -146 81 -283 83 -608 1 -283 -10 -381 -69 -611 -52 -205 -107
-267 -389 -441 -149 -92 -171 -99 -267 -85 -76 12 -77 12 -111 -14 -38 -29
-91 -42 -131 -32 -33 8 -33 24 0 37 30 11 46 3 24 -11 -12 -8 -11 -10 6 -10
54 0 34 53 -54 139 -69 69 -106 90 -116 65 -4 -10 2 -14 18 -14 39 0 164 -110
138 -122 -4 -2 -27 -28 -51 -58 -89 -111 -156 -171 -250 -227 -51 -30 -107
-59 -124 -64 -28 -8 -21 2 53 78 l85 87 -80 -71 c-44 -39 -89 -81 -100 -93
-20 -22 -75 -55 -75 -45 0 21 70 137 108 179 l46 51 -51 -49 c-29 -27 -66 -75
-83 -108 -17 -32 -36 -58 -42 -58 -10 0 -8 41 7 110 3 15 0 11 -9 -10 -8 -19
-15 -48 -16 -65 -1 -29 -1 -29 -15 -11 -19 26 -19 99 0 164 16 53 89 169 132
210 13 12 19 22 14 22 -15 0 -132 -149 -144 -184 l-10 -28 -19 41 c-24 52 -33
54 -12 2 8 -21 14 -58 12 -82 l-3 -44 -27 57 c-15 32 -29 58 -33 58 -3 0 3
-17 14 -38 10 -20 22 -48 26 -62 7 -22 6 -23 -8 -12 -16 14 -51 111 -43 119 3
3 -1 18 -9 33 -12 23 -11 42 6 146 10 65 19 136 19 157 0 53 13 72 59 91 65
26 98 13 126 -48 12 -28 46 -76 74 -106 54 -57 58 -65 39 -73 -7 -3 -3 -6 10
-6 13 -1 57 10 98 24 41 14 82 25 92 25 13 0 14 2 4 8 -22 15 3 56 57 95 33
24 59 54 75 85 24 47 57 72 95 72 25 0 35 15 51 74 7 26 24 61 37 77 25 29
135 77 141 61 1 -5 10 -18 18 -28 10 -12 13 -13 10 -4 -29 89 -29 86 -9 146
15 44 25 59 44 65 88 25 111 36 150 70 l44 39 -59 -40 c-32 -22 -62 -38 -66
-35 -16 10 -18 110 -4 197 8 51 17 115 19 142 10 126 72 405 114 516 31 83 75
146 120 175 61 38 92 34 146 -21 25 -26 45 -44 45 -40 0 21 -89 117 -140 150
l-59 39 25 36 c14 20 34 68 46 106 l21 70 13 -30 c18 -41 17 -98 -1 -142 -12
-28 -12 -33 -1 -24 7 6 21 32 31 57 32 83 0 269 -60 358 l-24 36 24 -16 c62
-41 110 -151 100 -234 l-5 -45 16 35 c21 46 15 122 -16 186 -46 95 -171 194
-245 194 -19 0 -36 4 -39 8 -3 5 2 32 11 61 15 44 15 61 5 121 -29 168 -111
288 -243 354 -91 46 -164 60 -269 53 -106 -8 -141 -18 -214 -62 -32 -19 -69
-35 -81 -35 -13 0 -51 -15 -84 -32 -159 -85 -239 -209 -210 -323 14 -54 30
-70 22 -22 -5 33 11 112 25 121 4 2 6 -29 4 -71 -4 -70 -3 -76 24 -104 32 -33
50 -38 34 -10 -5 11 -10 28 -10 38 1 15 2 16 10 2 5 -8 10 -27 12 -42 7 -50
18 -40 18 16 0 62 15 74 52 40 10 -9 18 -12 18 -7 0 16 -23 34 -42 34 -11 0
-18 7 -18 18 0 22 43 108 71 142 l20 25 -6 -24 c-15 -51 -6 -134 20 -187 24
-48 101 -132 112 -121 2 3 0 22 -6 43 -6 21 -9 40 -7 42 8 7 82 -47 126 -93
25 -25 54 -51 65 -57 19 -11 19 -10 1 18 l-17 29 24 -26 c13 -15 37 -35 52
-45 29 -19 29 -19 23 4 -9 33 -1 27 24 -20 18 -35 23 -59 23 -125 0 -46 3 -83
6 -83 10 0 48 85 58 130 5 23 11 43 13 45 22 19 85 55 98 55 46 0 64 -72 34
-136 -22 -47 -123 -114 -170 -114 -8 0 -14 -4 -14 -10 0 -13 12 -13 44 0 23 8
26 7 26 -12 0 -27 53 -77 127 -118 69 -39 73 -44 73 -92 0 -43 -16 -62 -103
-119 -79 -52 -144 -71 -241 -73 -142 -2 -220 49 -266 172 -23 61 -18 75 26 70
27 -3 40 -16 107 -108 10 -14 4 2 -13 35 l-31 60 23 18 c13 10 40 26 60 37 20
11 40 25 43 31 4 6 -6 4 -21 -4 -48 -24 -163 -57 -208 -58 -65 -3 -88 19 -142
136 -26 58 -49 103 -51 101 -2 -1 6 -24 17 -50 12 -25 18 -51 15 -56 -3 -6 -2
-10 4 -10 5 0 22 -24 38 -52 20 -37 39 -58 65 -71 27 -13 38 -26 44 -50 19
-89 94 -175 176 -203 60 -20 186 -15 254 10 58 20 168 91 199 127 48 58 30
114 -50 154 -31 16 -59 33 -62 38 -3 6 -2 8 3 5 11 -7 88 -41 135 -61 19 -8
59 -35 88 -61 33 -30 61 -46 79 -47 15 0 36 -4 47 -9 16 -7 13 -9 -17 -9 -69
-2 -147 -101 -196 -251 -56 -170 -87 -452 -75 -678 6 -105 -14 -205 -43 -216
-16 -6 -51 -81 -60 -129 -3 -17 -6 -32 -7 -33 -1 0 -30 -16 -65 -34 -53 -28
-66 -40 -85 -81 -28 -62 -57 -69 -166 -44 -98 22 -163 52 -228 104 -61 48 -70
72 -48 124 9 21 13 42 10 47 -11 17 7 11 22 -7 7 -10 -13 36 -46 102 -32 66
-66 145 -75 175 -23 78 -46 224 -46 297 0 50 -5 69 -26 100 -36 54 -38 53 -10
-7 19 -43 25 -78 29 -157 l5 -101 -25 26 -24 27 7 -25 c3 -14 24 -59 45 -100
60 -117 71 -156 59 -202 -7 -26 -15 -36 -23 -32 -7 4 0 -5 15 -20 33 -34 58
-86 58 -123 0 -15 -11 -50 -24 -78 l-24 -49 19 -51 c24 -63 24 -106 0 -136
-32 -42 -51 -87 -51 -123 0 -56 -17 -51 -50 14 l-30 60 -46 0 c-84 0 -145 -52
-143 -124 0 -32 2 -37 9 -21 8 18 9 17 9 -7 1 -36 -11 -35 -43 3 -17 20 -26
43 -26 64 0 32 -15 56 -22 35 -6 -20 -73 25 -95 65 -26 46 -29 101 -8 160 12
34 12 37 0 21 -19 -25 -29 -97 -20 -143 5 -27 20 -51 52 -81 51 -49 54 -38
-37 -138 -71 -80 -130 -179 -130 -221 0 -22 9 -40 28 -59 l28 -28 -23 -70
c-13 -38 -26 -99 -29 -135 -3 -36 -12 -84 -21 -107 -12 -34 -14 -107 -2 -149
1 -5 -1 -17 -4 -25 -4 -8 -8 -122 -9 -253 l-3 -237 234 0 c129 0 232 -2 230
-4 -10 -11 -919 -11 -919 -1 0 18 59 195 77 228 9 18 24 43 33 57 99 146 275
497 306 608 15 54 16 73 6 138 -20 125 -43 165 -151 262 -53 46 -113 96 -133
109 l-36 25 33 64 c18 35 49 83 69 107 48 58 66 105 66 170 0 43 6 61 30 94
16 22 27 43 23 47 -4 3 -7 27 -8 53 0 29 -6 48 -14 51 -7 2 -22 13 -31 22 -10
10 -21 15 -25 12 -4 -4 4 15 17 43 12 27 33 59 46 70 40 35 42 155 3 194 -37
37 -51 67 -51 108 0 23 -6 48 -14 56 -8 8 -14 34 -14 60 0 76 -40 349 -74 507
-23 107 -38 137 -100 197 -58 56 -143 102 -291 158 -67 26 -123 48 -125 50 -1
1 7 24 19 51 15 35 22 75 24 139 l4 90 -8 -85 c-6 -63 -18 -110 -48 -185 -22
-55 -48 -123 -57 -152 -14 -42 -23 -53 -48 -62 -62 -22 -116 -9 -260 65 -77
39 -89 37 -25 -3 45 -29 127 -102 127 -115 0 -4 -11 -24 -25 -44 -14 -20 -23
-39 -20 -42 7 -8 53 37 76 75 12 18 27 33 35 33 21 0 17 -14 -19 -62 -37 -49
-94 -73 -200 -84 -129 -13 -237 49 -293 169 -32 70 -31 114 5 163 33 46 77 87
69 64 -3 -8 -10 -24 -14 -35 -13 -34 22 0 36 36 8 19 18 28 27 25 8 -4 19 -6
24 -6 5 0 15 -15 23 -32 17 -39 21 -15 5 31 -8 24 -17 31 -36 31 -41 0 -144
70 -160 109 -21 49 -9 127 22 147 21 14 27 14 53 0 34 -17 82 -71 82 -91 0
-16 54 -75 70 -75 7 0 9 8 5 20 -3 11 -3 40 1 66 6 42 8 45 30 40 23 -6 24 -4
25 46 1 74 17 110 18 41 1 -57 13 -67 33 -30 20 37 112 156 116 152 2 -2 -3
-24 -11 -49 -9 -26 -14 -46 -11 -46 29 0 119 81 144 128 19 38 21 20 4 -37 -8
-29 -14 -55 -12 -57 2 -2 18 5 36 16 33 20 89 106 99 153 3 15 9 27 12 27 11
0 61 -108 61 -132 0 -12 -16 -35 -37 -53 -40 -35 -41 -59 -1 -31 36 25 50 20
46 -16 -2 -21 -9 -33 -18 -34 -33 -2 -37 -5 -48 -29 -15 -32 -15 -38 -2 -30 6
3 10 -4 10 -16 0 -18 2 -19 15 -9 8 7 15 21 15 31 0 21 16 26 23 7 3 -7 6 2 6
20 1 17 6 32 11 32 6 0 10 10 10 23 0 12 12 40 26 61 14 21 29 59 33 84 6 36
10 42 15 27 22 -60 26 -58 23 10 -2 60 -7 77 -34 118 l-32 47 33 14 c47 20 54
36 15 36 -35 0 -148 56 -156 78 -3 7 4 20 16 28 32 23 26 29 -36 32 -44 2
-214 44 -231 58 -2 1 4 15 14 30 18 27 18 27 -3 15 -12 -6 -62 -11 -112 -11
-103 0 -179 -14 -235 -42 l-39 -20 5 26 c7 34 -2 33 -40 -7 -19 -20 -35 -48
-38 -69 -6 -32 -11 -36 -60 -52 -38 -12 -63 -28 -89 -58 -39 -46 -47 -73 -12
-41 12 11 33 24 47 28 l25 7 -26 -20 c-69 -55 -123 -230 -99 -318 17 -60 30
-65 31 -12 l1 43 8 -50 c4 -27 14 -66 22 -85 18 -41 143 -236 158 -245 28 -17
8 -42 -57 -69 -123 -53 -367 -178 -445 -228 -99 -64 -189 -162 -233 -253 -38
-81 -56 -164 -85 -394 -11 -90 -27 -178 -34 -195 -8 -17 -18 -51 -21 -76 -6
-38 -22 -113 -50 -236 -3 -14 -15 -24 -33 -27 -29 -6 -111 -65 -111 -81 -1 -4
-14 -25 -29 -45 -40 -51 -72 -125 -72 -165 0 -50 36 -254 54 -305 12 -33 16
-87 16 -220 1 -121 5 -183 13 -198 7 -13 51 -42 97 -65 76 -38 92 -42 148 -40
46 1 72 8 100 26 20 13 49 26 63 30 29 6 26 12 73 -117 14 -37 38 -86 54 -110
57 -82 66 -108 63 -175 -2 -63 -2 -64 41 -105 41 -39 43 -44 49 -114 3 -45 12
-79 22 -90 8 -10 18 -31 22 -48 19 -91 49 -191 70 -240 14 -31 25 -58 25 -61
0 -3 -425 -4 -945 -4 l-945 2 3 706 c3 389 8 726 12 748 4 27 3 44 -4 48 -8 5
-11 579 -11 2041 l0 2033 25 6 c14 4 25 13 25 21 0 9 16 16 46 21 40 6 48 11
60 41 21 49 38 37 39 -28 1 -30 6 -63 13 -74 6 -11 12 -15 12 -8 0 8 13 7 46
-3 26 -7 51 -11 56 -8 9 6 4 86 -9 142 -5 20 -2 22 36 22 23 0 41 5 41 11 0 5
10 9 23 7 12 -2 21 2 20 7 -4 20 -52 110 -52 98 -1 -7 -7 -13 -14 -13 -16 0
-45 -30 -61 -63 -9 -17 -22 -23 -54 -25 l-43 -3 5 41 c7 58 -20 85 -78 77 -50
-7 -76 -36 -76 -86 0 -43 -35 -125 -50 -116 -7 4 -10 266 -10 781 l0 774 3590
0 3590 0 0 1775 0 1775 -3600 0 -3600 0 0 -6400z m6786 3682 c159 -63 211
-265 105 -407 -25 -34 -27 -41 -14 -50 24 -18 0 -52 -48 -67 -33 -9 -47 -9
-72 2 -36 16 -116 15 -165 -1 -47 -15 -97 -4 -117 27 -13 20 -14 28 -4 40 10
12 8 19 -9 37 -37 39 -62 108 -62 171 0 78 16 128 58 176 79 93 205 120 328
72z m-643 2 c52 -18 116 -76 142 -130 60 -126 7 -282 -117 -344 -139 -69 -312
-20 -376 106 -42 84 -38 184 12 267 25 41 43 58 94 84 54 28 75 33 131 33 37
0 88 -7 114 -16z m-5806 -224 c52 -224 51 -200 11 -200 -31 0 -36 4 -41 30 -6
27 -11 30 -42 30 -19 0 -38 0 -42 1 -4 0 -11 -14 -16 -30 -7 -27 -12 -31 -41
-31 l-34 0 14 58 c7 31 26 110 41 175 l27 118 44 -3 45 -3 34 -145z m373 58
l1 -93 30 38 c23 27 39 37 60 37 16 0 29 -3 29 -6 0 -4 -16 -28 -35 -54 l-34
-47 28 -45 c56 -89 56 -88 17 -88 -30 0 -38 5 -57 40 -26 45 -39 43 -39 -6 0
-31 -2 -34 -30 -34 l-30 0 0 175 0 175 30 0 30 0 0 -92z m1740 -83 l0 -176
-42 1 c-24 1 -54 -1 -68 -5 -43 -11 -77 25 -85 88 -7 58 7 128 30 147 17 14
51 17 83 6 21 -7 22 -5 22 53 l0 61 30 0 30 0 0 -175z m452 83 l3 -92 25 37
c20 30 31 37 58 37 30 0 42 -12 24 -24 -5 -3 -21 -23 -36 -44 l-27 -40 40 -66
41 -66 -35 0 c-30 0 -39 6 -62 43 l-28 42 -3 -42 c-3 -42 -4 -43 -38 -43 l-34
0 0 168 c0 93 3 172 7 175 3 4 19 7 34 7 l28 0 3 -92z m728 27 l0 -66 30 16
c33 17 60 13 85 -11 11 -12 15 -40 15 -120 l0 -104 -30 0 -29 0 -3 92 c-3 83
-5 93 -22 96 -33 7 -46 -25 -46 -110 l0 -78 -30 0 -30 0 0 175 0 175 30 0 30
0 0 -65z m530 4 c0 -58 1 -60 23 -53 76 26 107 -8 107 -118 0 -71 -2 -81 -26
-105 -20 -20 -31 -24 -52 -18 -15 4 -46 6 -69 5 l-43 -1 0 176 0 175 30 0 30
0 0 -61z m-1480 -9 c0 -38 2 -40 30 -40 25 0 30 -4 30 -25 0 -21 -5 -25 -30
-25 l-31 0 3 -67 c3 -66 4 -68 31 -71 21 -3 27 -8 23 -19 -3 -8 -6 -19 -6 -24
0 -16 -73 -10 -92 8 -14 13 -18 31 -18 90 0 66 -2 75 -20 80 -13 3 -20 14 -20
29 0 17 6 24 20 24 17 0 20 7 20 40 0 38 2 40 30 40 28 0 30 -2 30 -40z
m-2096 -61 c24 -23 34 -121 17 -172 -15 -44 -59 -66 -97 -48 -14 6 -27 11 -29
11 -3 0 -5 -30 -5 -66 l0 -65 -27 3 -28 3 -3 179 -2 179 37 -5 c21 -3 47 -2
58 3 26 10 55 2 79 -22z m402 21 c8 0 23 -9 34 -20 17 -17 20 -33 20 -121 l0
-101 -32 3 c-18 1 -48 -1 -66 -5 -50 -12 -82 13 -82 64 0 44 20 64 83 81 28 7
37 15 35 27 -5 26 -48 28 -55 3 -6 -25 -51 -29 -60 -5 -13 34 56 90 95 78 8
-2 20 -4 28 -4z m290 0 c39 -15 53 -39 54 -87 l0 -43 -61 0 c-60 0 -60 0 -57
-27 3 -32 44 -46 54 -19 4 10 18 16 35 16 35 0 39 -25 10 -61 -27 -34 -99 -34
-135 0 -23 22 -26 32 -26 96 0 79 20 120 63 128 12 2 25 5 29 6 4 0 19 -4 34
-9z m201 -1 c32 -12 43 -26 43 -56 0 -31 -45 -33 -53 -3 -7 26 -47 27 -47 1 0
-12 12 -23 33 -31 74 -30 97 -83 58 -131 -40 -50 -151 -22 -151 38 0 19 5 23
29 23 21 0 30 -6 34 -21 7 -25 40 -22 45 4 3 12 -9 23 -42 37 -76 32 -89 107
-23 135 39 17 39 17 74 4z m197 -3 c31 -13 53 -55 38 -71 -14 -14 -50 -3 -55
16 -4 13 -12 20 -24 17 -29 -5 -21 -32 15 -50 73 -36 92 -81 53 -129 -15 -19
-29 -24 -66 -24 -37 0 -51 5 -66 24 -29 36 -25 61 10 61 21 0 30 -6 34 -21 7
-25 40 -22 45 3 2 12 -11 24 -43 39 -74 35 -85 107 -21 135 39 17 40 17 80 0z
m205 3 c17 -6 36 -19 41 -29 6 -10 10 -62 10 -115 l0 -97 -32 3 c-18 1 -48 -1
-66 -5 -50 -12 -82 13 -82 64 0 44 20 64 83 81 28 7 37 15 35 27 -5 25 -45 27
-58 3 -11 -22 -44 -28 -55 -10 -13 21 5 57 37 72 40 20 46 20 87 6z m319 -22
c16 -15 22 -32 22 -64 l0 -43 -61 0 c-60 0 -60 0 -57 -27 3 -32 44 -46 54 -19
9 23 64 21 64 -2 0 -69 -107 -94 -163 -37 -23 23 -24 151 -1 183 32 46 97 50
142 9z m1000 -3 c18 -21 22 -36 22 -98 0 -58 -4 -76 -20 -94 -43 -45 -130 -36
-157 18 -16 32 -17 121 -1 156 26 56 112 66 156 18z m240 8 c8 -10 12 -52 12
-119 l0 -103 -30 0 -30 0 0 90 c0 99 -12 119 -50 85 -17 -15 -20 -31 -20 -97
l0 -78 -30 0 -30 0 0 120 0 120 29 0 c16 0 31 -5 33 -11 2 -6 14 -5 33 5 33
17 63 13 83 -12z m530 -8 c15 -17 22 -38 22 -65 l0 -39 -61 0 c-60 0 -60 0
-57 -27 3 -32 44 -46 54 -19 4 10 18 16 35 16 35 0 40 -29 9 -60 -27 -27 -63
-34 -105 -20 -46 15 -55 34 -55 123 0 64 3 76 23 94 12 11 29 23 37 26 28 11
75 -3 98 -29z m539 12 c7 -6 13 -53 15 -116 l3 -105 -32 -3 -33 -3 0 91 c0 72
-3 92 -15 96 -33 13 -45 -15 -45 -102 l0 -84 -35 0 -35 0 0 120 0 120 35 0
c19 0 35 -4 35 -9 0 -6 12 -3 28 4 28 15 58 12 79 -9z m221 -12 c19 -22 22
-36 22 -120 l0 -95 -42 1 c-24 1 -54 -1 -68 -5 -35 -9 -80 27 -80 64 0 39 19
60 70 75 33 10 46 19 48 35 4 28 -31 29 -51 0 -22 -30 -63 -23 -59 11 10 70
109 91 160 34z m391 25 c36 -13 61 -53 61 -99 l0 -30 -59 0 c-65 0 -73 -5 -64
-38 6 -26 53 -32 53 -7 0 11 11 15 36 15 32 0 35 -2 29 -22 -13 -43 -42 -63
-90 -63 -64 0 -87 27 -93 105 -5 75 11 118 52 136 38 16 36 16 75 3z m204 -3
c15 -8 27 -11 27 -5 0 5 14 9 30 9 l30 0 0 -149 c0 -134 -2 -151 -20 -174 -41
-52 -147 -44 -170 13 -7 16 -9 34 -5 39 10 18 44 12 57 -9 26 -41 78 -15 78
40 0 17 -3 19 -19 10 -36 -19 -78 -12 -100 16 -16 21 -21 41 -21 90 0 72 13
107 44 122 29 14 37 14 69 -2z m285 -22 c19 -22 22 -36 22 -120 l0 -95 -42 1
c-24 1 -54 -1 -68 -5 -34 -9 -80 27 -80 61 0 42 17 62 70 79 37 12 50 22 50
36 0 26 -36 25 -50 -1 -11 -20 -54 -28 -64 -12 -10 16 29 76 54 84 40 11 83 0
108 -28z m-3048 -94 l0 -120 -35 0 -35 0 0 113 c0 63 3 117 7 120 3 4 19 7 35
7 l28 0 0 -120z m2280 63 c19 -91 25 -93 45 -14 17 70 18 71 50 71 l33 0 -24
-82 c-79 -281 -76 -273 -113 -276 -28 -3 -33 -1 -27 14 29 76 29 101 -4 209
-17 59 -34 113 -37 121 -4 10 4 14 29 14 34 0 35 -1 48 -57z m395 -4391 c-1
-61 -6 -85 -24 -118 -37 -66 -46 -67 -141 -24 -46 20 -86 43 -88 50 -3 9 1 11
13 7 38 -15 65 -19 65 -9 0 6 -4 14 -10 17 -20 12 -9 21 41 34 71 19 119 62
119 109 0 29 2 33 13 23 7 -8 12 -40 12 -89z m-2214 -1356 c21 -14 21 -15 2
-43 -48 -71 -53 -113 -23 -174 24 -46 21 -60 -20 -109 -24 -27 -30 -30 -30
-15 0 10 -10 38 -21 63 -18 36 -19 48 -10 68 16 37 13 112 -6 145 -17 28 -17
31 0 57 10 15 25 42 34 60 l17 33 18 -35 c10 -19 27 -41 39 -50z m124 -587
c42 -20 60 -61 45 -102 -6 -18 -16 -106 -22 -197 l-12 -165 -43 -45 c-34 -36
-43 -41 -43 -25 0 11 9 35 21 54 11 18 18 36 15 39 -3 3 -22 -29 -41 -71 -22
-48 -46 -84 -66 -97 -37 -27 -46 -21 -25 17 28 50 76 166 71 171 -2 2 -27 -43
-54 -102 -45 -95 -54 -108 -87 -122 -48 -20 -64 -6 -37 33 23 33 88 201 81
209 -3 2 -10 -8 -16 -23 -46 -124 -59 -153 -90 -191 -45 -56 -34 -71 39 -54
28 7 57 12 65 12 28 0 11 -54 -39 -123 -18 -25 -40 -99 -52 -177 -19 -124 -40
-199 -75 -273 -22 -45 -40 -90 -40 -100 0 -10 -22 -41 -49 -68 l-49 -49 -119
0 -120 0 -6 153 c-6 147 -17 210 -51 289 -10 24 -16 66 -16 115 0 55 -5 85
-15 101 -12 16 -14 34 -9 72 l7 51 19 -32 c12 -20 22 -59 25 -103 6 -80 15
-96 50 -96 13 0 31 -7 39 -15 17 -16 54 -20 54 -6 0 5 8 7 18 4 18 -4 72 46
72 68 0 5 8 9 18 9 26 1 46 37 69 120 l20 76 -29 82 c-17 45 -34 82 -39 82 -5
0 5 -37 22 -82 l30 -82 -21 -67 c-11 -36 -29 -77 -40 -90 l-20 -24 16 40 c14
35 15 50 4 120 -13 90 -27 142 -40 150 -5 3 -5 -9 0 -27 4 -18 14 -70 21 -115
12 -80 12 -84 -15 -152 -15 -38 -33 -75 -41 -81 -22 -18 -29 7 -15 56 15 52 7
211 -11 228 -8 8 -10 3 -6 -19 16 -87 18 -141 6 -201 -14 -68 -28 -90 -55 -80
-13 5 -15 20 -9 103 5 77 3 107 -9 138 l-16 40 8 -40 c12 -70 -1 -197 -23
-215 -20 -16 -32 9 -38 81 -4 40 -16 85 -31 116 -14 28 -26 55 -26 61 0 5 -7
16 -17 23 -22 19 -74 102 -103 169 -14 30 -39 77 -57 104 -18 26 -33 52 -33
57 0 17 89 98 114 105 46 11 73 -4 176 -101 56 -52 134 -119 174 -149 41 -31
77 -63 81 -73 4 -10 18 -47 31 -83 20 -55 24 -60 24 -33 0 30 3 32 30 30 27
-2 30 -5 30 -38 0 -20 7 -42 15 -49 18 -15 19 -7 4 21 -8 15 -4 44 15 122 28
109 47 245 36 252 -4 2 -12 -37 -18 -88 -7 -51 -20 -119 -30 -152 l-19 -60 -7
60 c-12 97 -11 106 23 200 30 82 39 97 112 171 43 45 79 87 79 93 0 6 8 23 17
37 15 24 22 26 67 22 28 -2 64 -11 81 -19z m770 -118 c-3 -5 -1 -12 5 -16 5
-3 10 -19 10 -36 0 -16 5 -29 10 -29 6 0 14 -8 17 -17 8 -23 50 -63 57 -55 3
3 6 0 6 -6 0 -8 -27 -13 -82 -14 -46 -1 -100 -3 -120 -4 -21 0 -38 2 -38 5 1
14 60 93 61 80 0 -8 5 -2 10 13 6 15 22 40 37 57 27 30 38 39 27 22z m-2263
-70 c51 -23 73 -27 63 -11 -3 6 1 7 9 4 9 -3 14 -10 11 -14 -6 -10 54 -22 68
-13 6 3 7 1 3 -5 -5 -8 3 -10 26 -7 26 4 29 3 13 -4 -19 -9 -19 -10 3 -10 12
-1 22 -5 22 -11 0 -5 9 -10 20 -10 11 0 19 -4 17 -9 -1 -6 52 -65 118 -133
144 -147 175 -199 118 -198 -72 2 -131 -34 -134 -80 -1 -24 -2 -23 -8 4 -3 16
-15 35 -26 42 -20 13 -20 11 -16 -156 2 -119 0 -170 -8 -170 -6 0 -11 -16 -11
-35 0 -19 -4 -35 -10 -35 -5 0 -10 -9 -10 -20 0 -11 -7 -20 -15 -20 -8 0 -15
-7 -15 -15 0 -8 -4 -15 -10 -15 -5 0 -10 -12 -10 -26 0 -16 -4 -23 -11 -18 -8
5 -8 1 0 -13 6 -11 8 -23 5 -26 -3 -3 -1 -8 5 -11 6 -4 8 2 6 13 -6 32 6 61
26 61 11 0 19 5 19 10 0 6 30 10 70 10 41 0 70 4 70 10 0 13 52 1 62 -14 13
-19 9 -36 -9 -37 -11 0 -13 -3 -5 -6 14 -6 16 -33 2 -33 -5 0 -10 -9 -10 -20
0 -11 5 -20 10 -20 6 0 10 -9 10 -20 0 -18 -7 -20 -60 -20 l-60 0 -2 -62 -2
-63 -3 63 c-3 46 -8 62 -18 62 -11 0 -15 12 -15 42 0 23 -2 39 -5 36 -3 -3 -2
-51 1 -106 l7 -102 38 0 c22 0 45 -7 55 -17 13 -13 41 -20 103 -24 70 -4 58
-6 -69 -7 -85 0 -147 3 -137 7 17 6 18 8 3 21 -10 7 -15 19 -12 27 3 7 1 13
-4 13 -15 0 -12 -37 3 -43 8 -4 6 -6 -4 -6 -9 -1 -21 11 -28 27 -25 54 -60
158 -72 212 -6 30 -20 71 -31 91 -17 31 -19 47 -14 105 22 223 19 259 -15 217
-12 -15 -12 -16 4 -10 15 6 17 0 17 -48 0 -29 -5 -57 -10 -60 -6 -4 -8 -15 -5
-25 4 -12 -12 -2 -39 25 -50 48 -63 80 -49 121 7 22 4 38 -17 80 -15 28 -36
64 -47 80 -27 38 -70 140 -88 211 -12 45 -12 59 -2 65 8 5 7 8 -5 8 -10 0 -18
3 -19 8 0 6 -4 22 -9 47 -5 22 0 46 9 41 5 -3 14 1 21 9 7 8 16 12 21 9 5 -3
9 2 9 11 0 21 23 56 30 46 3 -5 26 -18 52 -30z m2351 -127 c9 -3 12 -14 9 -30
-2 -14 1 -44 8 -67 7 -23 19 -63 27 -89 8 -26 25 -56 37 -65 13 -11 25 -34 29
-57 3 -21 13 -46 22 -56 15 -17 15 -25 -1 -110 -27 -151 -4 -232 104 -359 l64
-75 -22 -18 c-43 -35 -70 -24 -225 88 -131 94 -225 195 -273 294 -32 67 -36
83 -36 155 1 85 38 245 75 318 33 64 52 77 113 77 30 0 61 -2 69 -6z m668
-219 c62 -22 103 -57 163 -139 29 -39 55 -76 59 -83 11 -18 -82 -99 -193 -169
-121 -75 -125 -79 -83 -70 92 20 165 -90 212 -323 31 -154 44 -139 -120 -140
l-141 -2 -184 185 c-225 225 -239 249 -239 396 0 52 4 112 8 133 7 35 10 38
35 33 18 -4 38 1 62 16 19 12 47 23 61 24 28 4 185 92 232 131 33 27 67 29
128 8z m387 -21 c15 -10 40 -15 70 -13 26 1 62 -2 80 -6 31 -7 33 -10 28 -39
-4 -17 -10 -51 -15 -76 -4 -25 -11 -53 -15 -62 -5 -11 -1 -21 12 -29 16 -10
18 -16 9 -31 -10 -15 -25 -18 -98 -18 -82 0 -86 1 -97 25 -7 14 -12 37 -12 50
0 13 -6 30 -13 37 -40 40 -52 124 -23 157 23 25 44 26 74 5z m-118 -479 c0
-113 5 -226 11 -252 5 -27 16 -74 24 -105 l13 -58 -53 0 c-50 0 -53 2 -58 28
-15 86 -68 270 -91 317 -29 58 -76 112 -109 124 -18 7 -16 10 18 31 21 13 44
23 51 23 8 0 12 2 9 5 -12 12 129 85 178 91 4 1 7 -91 7 -204z"/>
<path d="M6613 9773 c-20 -4 -23 -11 -23 -51 l0 -47 85 0 85 0 0 46 c0 40 -3
48 -22 53 -25 6 -90 6 -125 -1z"/>
<path d="M6170 8994 c-10 -25 -8 -31 19 -56 30 -28 32 -28 144 -27 62 1 131 4
153 8 l39 7 -26 17 c-15 10 -55 22 -90 28 -35 6 -77 17 -94 25 -16 9 -54 18
-82 21 -50 6 -53 5 -63 -23z"/>
<path d="M7004 8929 c-5 -8 -32 -10 -86 -6 -87 7 -141 0 -135 -17 2 -6 26 -24
53 -39 46 -26 54 -28 136 -23 56 4 97 2 113 -6 36 -16 43 -2 13 30 -14 15 -31
37 -37 50 -12 23 -45 30 -57 11z"/>
<path d="M652 7883 c-13 -3 -27 -15 -32 -27 -11 -30 -66 -76 -90 -76 -26 0
-45 -36 -29 -56 14 -17 77 -18 130 -3 32 10 46 9 83 -5 40 -15 48 -16 74 -2
39 20 48 34 51 84 2 34 -1 42 -14 42 -10 0 -39 11 -67 25 -49 25 -60 27 -106
18z"/>
<path d="M960 7699 c-25 -10 -56 -18 -70 -18 -14 -1 -41 -9 -60 -20 -72 -38
-108 -44 -144 -27 -44 21 -85 20 -109 -1 -13 -12 -33 -17 -63 -16 l-44 1 6
-47 c7 -56 -6 -67 -56 -50 -61 22 -114 -19 -54 -41 42 -16 80 -11 107 14 14
13 28 21 32 18 3 -3 21 2 40 12 38 21 65 16 65 -13 0 -23 28 -35 46 -20 7 6
23 9 36 7 20 -3 23 -10 26 -49 3 -41 6 -47 29 -52 16 -3 48 7 92 29 83 43 94
52 114 90 19 36 57 64 89 64 41 0 69 12 60 24 -5 6 -12 28 -16 48 -7 40 -12
45 -54 57 -19 6 -42 3 -72 -10z"/>
<path d="M200 7185 c0 -9 -10 -35 -21 -58 l-22 -41 34 -28 c19 -16 45 -28 61
-28 27 0 28 2 28 54 0 29 -5 67 -11 85 -9 25 -16 31 -40 31 -19 0 -29 -5 -29
-15z"/>
<path d="M400 6665 c-14 -17 -25 -97 -17 -120 4 -8 7 -19 8 -23 1 -4 5 -16 9
-27 7 -17 4 -21 -18 -23 -36 -3 -52 -20 -52 -58 0 -50 16 -81 44 -88 14 -3 42
-20 61 -37 37 -33 58 -32 37 1 -16 27 -52 167 -52 207 0 18 9 47 20 65 12 19
20 51 20 76 0 38 -2 42 -24 42 -13 0 -29 -7 -36 -15z"/>
<path d="M1260 6416 c0 -90 -3 -111 -24 -153 -14 -26 -27 -58 -31 -70 -5 -19
-3 -22 12 -15 82 33 138 114 113 163 -7 12 -12 46 -11 74 1 46 -3 55 -29 78
l-30 27 0 -104z"/>
<path d="M778 5999 c-27 -15 -40 -46 -29 -68 12 -21 -14 -55 -51 -66 -13 -4
-38 -18 -56 -32 -18 -14 -54 -30 -79 -36 -57 -15 -67 -39 -57 -139 6 -65 22
-96 43 -83 19 11 51 -15 51 -40 0 -18 5 -25 19 -25 36 0 36 -45 0 -83 -18 -20
-29 -66 -33 -137 -4 -68 -14 -90 -39 -87 -30 3 -33 -29 -11 -95 10 -31 16 -77
15 -116 -1 -36 1 -85 5 -109 l6 -44 47 7 c25 3 52 13 59 22 7 10 12 46 12 92
0 43 5 91 11 108 10 28 123 137 156 149 7 3 13 11 13 19 0 8 3 14 8 14 4 0 31
14 61 31 51 29 53 32 36 45 -17 13 -22 11 -49 -15 -17 -16 -49 -37 -71 -47
-22 -10 -46 -24 -53 -31 -23 -23 -62 -27 -80 -9 -15 14 -15 20 1 63 9 27 17
67 17 91 0 45 23 100 62 144 35 41 71 115 65 133 -9 23 -23 19 -66 -20 -36
-33 -39 -34 -54 -17 -12 14 -14 28 -7 77 8 59 39 155 59 179 5 6 14 30 19 52
12 52 -4 88 -30 73z"/>
<path d="M1185 5598 c-7 -23 -16 -72 -24 -123 -8 -57 -33 -110 -58 -123 -15
-9 -14 -12 11 -33 23 -21 28 -33 31 -88 3 -61 13 -80 41 -81 31 0 51 113 61
333 l5 127 -31 0 c-17 0 -33 -6 -36 -12z"/>
<path d="M373 4068 c-20 -33 -53 -112 -53 -129 0 -38 30 -69 66 -69 19 0 34 5
34 10 0 18 17 10 30 -15 15 -28 30 -33 30 -9 0 9 22 37 49 63 47 45 71 78 71
101 0 32 -209 76 -227 48z"/>
<path d="M405 3807 c-85 -75 -117 -99 -156 -116 l-44 -20 -1 -83 c-1 -46 -5
-100 -9 -120 -5 -28 -4 -38 6 -38 7 0 9 3 6 7 -4 3 2 12 13 20 11 8 34 35 52
61 17 26 34 49 38 52 3 3 22 28 41 55 18 28 36 52 39 55 7 7 38 70 49 100 12
35 -7 51 -34 27z"/>
</g>
</svg>
