<?xml version="1.0" standalone="no"?>
<!DOCTYPE svg PUBLIC "-//W3C//DTD SVG 20010904//EN"
 "http://www.w3.org/TR/2001/REC-SVG-20010904/DTD/svg10.dtd">
<svg version="1.0" xmlns="http://www.w3.org/2000/svg"
 width="720.000000pt" height="1280.000000pt" viewBox="0 0 720.000000 1280.000000"
 preserveAspectRatio="xMidYMid meet">
<metadata>
Created by potrace 1.16, written by Peter Selinger 2001-2019
</metadata>
<g transform="translate(0.000000,1280.000000) scale(0.100000,-0.100000)"
fill="#000000" stroke="none">
<path d="M0 6400 l0 -6400 3600 0 3600 0 0 1023 0 1022 -62 12 c-33 7 -65 18
-69 25 -5 7 -9 46 -9 86 0 39 -4 72 -8 72 -5 0 -9 112 -9 250 -1 221 -3 251
-18 266 -14 14 -21 15 -36 6 -29 -18 -44 -15 -78 20 -23 24 -31 41 -31 69 0
20 -6 42 -14 48 -20 17 -25 69 -9 83 8 6 28 13 45 15 33 3 53 23 63 63 4 14
16 35 27 47 14 15 19 31 16 52 -3 20 0 32 9 36 9 3 13 16 11 32 -3 25 -9 29
-63 42 -33 7 -68 17 -77 22 -10 5 -33 9 -52 9 -19 0 -36 5 -38 12 -5 15 -91
26 -205 27 -50 1 -104 6 -119 11 -15 6 -51 12 -80 13 -28 1 -50 5 -47 9 2 4
-26 7 -62 6 -39 -2 -69 2 -73 9 -4 6 -89 15 -222 23 -119 6 -237 18 -265 26
-27 8 -72 16 -100 18 -47 4 -98 15 -173 38 -21 6 -37 6 -45 0 -13 -10 -110
-29 -169 -34 -26 -2 -44 4 -61 18 -32 28 -67 36 -74 18 -3 -8 -12 -14 -21 -14
-23 0 -2 -17 28 -23 l25 -4 -26 -2 c-17 -1 -39 12 -67 37 -32 30 -44 50 -53
91 -10 49 -9 53 12 72 12 10 29 19 38 19 9 0 25 12 36 26 48 62 64 74 99 74
41 0 56 -20 56 -72 0 -44 38 -108 77 -131 18 -10 56 -21 85 -23 59 -6 43 -16
198 125 47 43 141 127 210 186 69 59 131 119 139 133 14 27 11 234 -9 517 -9
121 -7 145 22 343 27 188 29 216 17 239 -16 30 -91 68 -166 83 l-52 11 -16 57
c-60 216 -133 419 -192 537 -34 67 -104 145 -169 191 -49 33 -53 38 -40 53 22
25 66 128 66 156 0 39 18 38 29 -2 15 -54 14 -99 -5 -134 -8 -17 -13 -33 -10
-36 2 -3 15 15 28 39 45 85 22 290 -43 381 -32 44 -15 43 29 -2 48 -49 77
-139 67 -204 -6 -35 -5 -40 6 -29 9 9 14 38 14 85 0 78 -18 125 -78 201 -45
57 -132 110 -185 112 -24 1 -45 4 -48 7 -3 3 2 30 12 60 15 48 16 65 5 129
-18 110 -73 219 -141 280 -68 61 -155 104 -240 119 -121 21 -275 -8 -365 -69
-22 -14 -53 -28 -69 -29 -46 -5 -146 -64 -202 -120 -71 -70 -101 -147 -85
-218 17 -73 32 -91 25 -30 -3 36 0 61 13 89 l18 38 -3 -78 -4 -79 45 -42 44
-41 6 81 c7 83 38 166 74 200 17 15 18 12 15 -50 -5 -84 17 -142 76 -205 55
-59 78 -64 56 -13 -15 37 -18 175 -5 210 6 15 10 7 15 -32 3 -29 13 -70 21
-93 14 -39 13 -40 -5 -30 -23 12 -30 13 -30 1 0 -5 13 -14 28 -20 16 -7 57
-41 92 -77 72 -72 93 -82 55 -27 -14 21 -25 42 -25 47 0 6 13 -10 28 -35 40
-63 114 -108 83 -51 -25 47 -8 33 22 -18 29 -51 32 -62 32 -143 0 -85 0 -87
17 -67 10 12 27 52 38 88 11 36 26 72 32 79 19 23 86 53 103 47 39 -15 47 -90
15 -142 -23 -38 -100 -89 -147 -98 -18 -3 -33 -10 -33 -15 0 -12 27 -11 51 1
16 9 19 7 19 -15 0 -37 39 -72 73 -66 5 1 6 -3 3 -8 -4 -6 15 -22 41 -37 71
-41 83 -53 83 -90 0 -48 -7 -60 -60 -98 -100 -72 -198 -106 -302 -106 -130 0
-219 73 -262 216 -6 18 -1 22 26 28 36 7 51 -5 109 -93 38 -58 37 -42 -1 26
-16 29 -30 55 -30 57 0 3 32 24 70 47 39 23 68 44 66 47 -3 3 -11 0 -18 -5
-22 -17 -122 -51 -186 -63 -96 -17 -111 -5 -183 143 -59 124 -79 155 -34 53
30 -67 31 -76 8 -76 -10 -1 -29 -8 -43 -16 -17 -10 -19 -13 -5 -9 77 26 73 27
100 -25 22 -44 69 -90 92 -90 5 0 14 -19 20 -42 54 -199 264 -269 483 -160 89
44 170 117 170 153 0 54 -12 70 -72 100 -33 17 -58 32 -55 35 9 9 180 -77 199
-101 25 -32 50 -45 113 -60 36 -9 43 -13 22 -14 -37 -1 -100 -44 -132 -91 -97
-139 -159 -471 -154 -814 3 -179 -2 -210 -40 -246 -18 -16 -34 -50 -47 -94
-18 -65 -21 -69 -64 -89 -60 -27 -87 -53 -110 -104 -18 -41 -21 -43 -64 -43
-60 0 -169 26 -231 55 -27 14 -74 45 -103 71 -49 43 -53 50 -47 78 3 17 9 47
12 66 l6 34 24 -29 c15 -18 3 13 -31 80 -95 185 -121 278 -133 470 -3 55 -9
102 -13 105 -4 3 -15 20 -24 38 -27 52 -28 32 -1 -23 18 -39 24 -72 28 -154
l5 -103 -28 33 c-16 19 -29 30 -30 26 0 -5 21 -50 46 -100 76 -151 87 -187 71
-233 -12 -37 -12 -41 16 -76 42 -53 46 -110 14 -174 -24 -47 -24 -51 -10 -89
26 -68 28 -114 6 -143 -34 -47 -53 -90 -53 -124 0 -64 -16 -63 -45 1 -25 52
-33 62 -61 67 -49 9 -90 -4 -129 -41 -31 -29 -35 -38 -34 -81 1 -40 3 -44 9
-24 7 21 8 22 9 4 2 -38 -22 -72 -48 -71 -36 3 -40 -30 -7 -58 14 -12 26 -24
26 -26 0 -2 -42 -4 -94 -4 -52 0 -92 -4 -89 -8 3 -5 -8 -7 -23 -5 -19 2 -35
-4 -47 -17 -15 -17 -15 -14 3 20 26 51 26 75 0 42 -27 -34 -50 -90 -50 -121 0
-13 12 -38 26 -55 l26 -31 -26 -103 c-14 -56 -27 -115 -27 -132 -1 -29 -1 -29
-8 -5 -16 55 -19 -150 -15 -844 5 -652 7 -721 22 -732 13 -9 -6 -13 -98 -19
-90 -5 -290 -4 -290 1 0 0 7 16 16 33 25 51 14 121 -36 231 -24 52 -63 122
-86 155 -48 69 -68 106 -87 163 -14 39 -13 42 9 63 24 23 37 57 100 273 34
115 48 146 137 295 55 91 121 213 148 271 26 58 59 125 73 150 42 73 60 175
46 261 -6 40 -19 91 -29 113 -19 44 -155 180 -239 241 l-50 36 38 70 c22 38
51 84 66 102 42 50 64 106 64 168 0 44 5 63 29 95 52 72 59 128 25 196 -18 35
-18 80 1 125 25 60 19 99 -30 189 -48 90 -40 49 -96 488 -5 43 -19 124 -30
180 -47 238 -123 303 -516 441 -10 3 -8 18 8 57 15 37 22 81 24 143 l4 90 -9
-90 c-6 -72 -16 -111 -48 -185 -22 -52 -45 -113 -51 -135 -17 -63 -31 -77 -89
-83 -56 -5 -138 22 -242 80 -59 33 -52 13 9 -24 42 -25 111 -88 111 -101 0 -4
-11 -25 -25 -45 -14 -20 -25 -41 -25 -46 0 -14 58 44 82 82 17 28 48 44 48 25
0 -22 -54 -93 -82 -106 -52 -24 -153 -40 -217 -34 -100 9 -160 51 -217 153
-44 78 -45 126 -5 180 15 21 38 47 49 58 21 18 21 18 12 -13 -11 -41 7 -31 26
14 11 27 18 32 38 28 15 -3 29 -16 37 -34 20 -49 26 -41 10 12 -13 42 -19 49
-41 49 -43 1 -133 61 -154 103 -32 66 -6 157 45 157 31 0 97 -59 109 -96 10
-31 52 -74 70 -74 5 0 6 17 3 38 -2 20 0 50 6 65 9 23 14 26 30 17 18 -9 19
-6 20 52 0 33 5 66 10 71 8 8 11 -3 11 -35 0 -26 5 -50 10 -53 6 -3 10 -2 10
3 0 7 109 164 125 181 8 7 -7 -62 -17 -81 -6 -13 -5 -18 5 -18 23 0 86 53 122
104 19 27 35 47 35 45 0 -3 -7 -29 -16 -58 -8 -29 -13 -55 -10 -58 19 -20 117
99 132 160 9 40 22 33 49 -25 33 -71 32 -85 -12 -123 -40 -35 -41 -59 -1 -31
30 21 45 20 51 -3 6 -25 -10 -51 -33 -51 -10 0 -26 -10 -34 -22 -18 -25 -21
-42 -6 -33 5 3 10 -4 10 -16 0 -18 2 -19 15 -9 8 7 15 19 15 26 0 8 7 14 15
14 9 0 15 9 15 25 0 14 5 25 10 25 6 0 10 9 10 20 0 11 12 38 26 60 15 22 29
60 31 85 6 49 23 52 23 4 0 -16 5 -29 10 -29 6 0 10 24 10 53 0 51 -20 106
-56 154 -15 21 -15 22 9 28 14 4 34 16 43 27 18 19 18 19 -6 13 -25 -6 -122
37 -162 72 -16 14 -15 17 10 39 l27 23 -40 1 c-34 0 -241 53 -253 64 -2 2 4
17 14 32 18 26 18 27 -1 17 -11 -6 -75 -13 -143 -16 -103 -5 -132 -10 -179
-32 -30 -14 -58 -25 -60 -25 -3 0 -2 11 1 25 9 34 -4 31 -42 -8 -19 -20 -35
-48 -39 -69 -5 -33 -10 -37 -50 -49 -27 -7 -62 -28 -84 -49 -49 -46 -52 -70
-5 -41 38 24 61 28 32 6 -19 -14 -19 -15 -1 -15 10 0 27 8 38 18 11 9 17 11
13 4 -5 -9 -1 -15 13 -19 11 -3 23 -14 26 -24 4 -10 11 -19 16 -19 5 0 9 -8 9
-17 0 -15 2 -16 10 -3 15 24 12 2 -5 -30 -16 -31 -13 -63 11 -109 8 -14 14
-38 14 -53 0 -25 -2 -26 -52 -27 -81 -1 -104 -5 -120 -18 -11 -10 -17 -10 -26
-1 -9 9 -12 5 -12 -19 0 -46 24 -105 75 -183 25 -39 45 -75 45 -80 0 -6 16
-27 35 -49 19 -21 35 -45 35 -52 0 -8 -39 -31 -88 -53 -122 -54 -388 -193
-442 -229 -94 -65 -171 -150 -219 -246 -29 -56 -58 -189 -76 -354 -17 -149
-21 -171 -40 -242 -8 -27 -26 -104 -40 -170 -15 -66 -29 -128 -31 -137 -3 -9
-19 -20 -37 -24 -69 -15 -196 -184 -205 -272 -4 -52 28 -252 53 -322 13 -36
16 -81 14 -222 -3 -172 -2 -177 21 -211 14 -20 27 -34 31 -31 4 2 41 -12 84
-32 69 -32 82 -35 133 -28 31 3 71 15 89 26 18 10 46 23 62 28 l29 8 32 -89
c18 -48 54 -123 81 -166 52 -81 52 -81 49 -155 -2 -52 12 -84 47 -111 13 -10
21 -23 17 -28 -3 -5 0 -8 8 -7 9 2 15 -15 18 -62 3 -36 16 -85 27 -110 12 -25
31 -85 42 -135 14 -62 40 -130 85 -220 38 -76 76 -171 92 -230 32 -115 52
-153 98 -189 22 -16 36 -37 40 -58 7 -40 9 -215 2 -243 -2 -11 -5 -41 -5 -68
l-1 -47 -1027 2 -1028 3 0 3120 c0 2965 1 3120 17 3119 14 -1 18 6 18 30 0 36
-19 75 -20 41 -1 -18 -1 -19 -11 -3 -5 10 -9 50 -7 90 l3 73 35 1 c28 0 35 5
40 24 3 12 16 30 29 39 l24 15 -7 -37 c-4 -21 -2 -54 5 -76 11 -36 14 -39 39
-34 15 3 36 0 47 -6 15 -7 25 -7 36 2 15 11 15 19 1 81 -18 85 -11 95 51 86
42 -6 61 2 33 13 -8 3 -6 6 5 6 22 1 22 2 -5 48 -25 43 -36 53 -59 53 -20 0
-66 -90 -50 -99 5 -4 -11 -6 -37 -6 l-47 1 -6 48 c-3 26 -12 52 -20 57 -13 9
-50 7 -96 -7 l-22 -6 -1 261 0 261 3590 0 3590 0 0 1775 0 1775 -3600 0 -3600
0 0 -6400z m6794 3679 c153 -67 201 -265 97 -404 -25 -34 -27 -41 -14 -50 23
-17 -3 -53 -49 -67 -31 -9 -45 -8 -82 6 -45 17 -83 16 -154 -6 -47 -14 -97 -2
-117 28 -13 20 -14 28 -4 40 10 12 8 19 -9 37 -37 39 -62 108 -62 171 0 78 16
128 58 176 79 93 218 121 336 69z m-651 5 c52 -18 116 -76 142 -130 57 -121 8
-276 -107 -339 -78 -42 -185 -47 -262 -12 -103 48 -149 120 -150 237 0 120 51
197 159 242 51 22 158 23 218 2z m-5834 -111 c15 -56 71 -300 71 -307 0 -3
-16 -6 -35 -6 -30 0 -35 3 -35 24 0 32 -22 48 -61 44 -27 -4 -34 -10 -41 -36
-8 -28 -13 -32 -42 -32 l-34 0 14 58 c7 31 25 110 40 175 l28 117 42 0 c41 0
44 -2 53 -37z m401 -55 l1 -93 30 38 c23 27 39 37 60 37 16 0 29 -3 29 -6 0
-4 -16 -27 -35 -53 l-34 -47 21 -35 c11 -19 29 -49 40 -66 l20 -33 -36 0 c-30
0 -38 5 -57 40 -26 45 -39 43 -39 -6 0 -31 -2 -34 -30 -34 l-30 0 0 175 0 175
30 0 30 0 0 -92z m1740 -83 l0 -176 -42 1 c-24 1 -55 -1 -69 -5 -19 -5 -33 -1
-55 18 -28 24 -29 29 -29 106 1 69 4 84 22 102 22 22 54 28 91 15 21 -7 22 -5
22 53 l0 61 30 0 30 0 0 -175z m452 83 l3 -92 25 37 c20 30 31 37 58 37 30 0
42 -12 24 -24 -5 -3 -21 -23 -36 -44 l-27 -40 40 -66 41 -66 -35 0 c-30 0 -38
5 -57 40 -13 22 -26 40 -30 40 -5 0 -8 -18 -8 -40 0 -39 -1 -40 -35 -40 l-35
0 0 168 c0 93 3 172 7 175 3 4 19 7 34 7 l28 0 3 -92z m728 28 l0 -65 35 15
c28 11 40 12 58 3 34 -18 37 -27 37 -136 l0 -103 -30 0 -30 0 0 90 c0 75 -3
92 -16 97 -37 14 -49 -10 -52 -101 l-3 -86 -29 0 -30 0 0 175 0 175 30 0 30 0
0 -64z m530 3 c0 -58 1 -60 23 -53 76 26 107 -8 107 -118 0 -71 -2 -81 -26
-105 -21 -21 -31 -24 -57 -18 -18 4 -49 6 -69 6 l-38 -2 0 176 0 175 30 0 30
0 0 -61z m-1482 -11 c3 -35 6 -38 33 -38 24 0 29 -4 29 -25 0 -21 -5 -25 -30
-25 l-31 0 3 -67 c3 -66 4 -68 31 -71 21 -3 27 -8 23 -19 -3 -8 -6 -19 -6 -24
0 -16 -73 -10 -92 8 -14 13 -18 31 -18 90 0 66 -2 75 -20 80 -13 3 -20 14 -20
29 0 17 6 24 20 24 17 0 20 7 20 41 0 38 1 40 28 37 23 -3 27 -8 30 -40z
m-2094 -58 c24 -24 34 -122 17 -173 -15 -44 -59 -66 -97 -48 -14 6 -27 11 -29
11 -3 0 -5 -30 -5 -66 l0 -65 -27 3 -28 3 -3 179 -2 179 38 -6 c22 -2 46 -1
53 4 19 12 60 2 83 -21z m405 19 c17 -6 36 -19 41 -29 6 -10 10 -62 10 -115
l0 -97 -32 3 c-18 1 -48 -1 -66 -5 -50 -12 -82 13 -82 64 0 44 20 64 83 81 28
7 37 15 35 27 -5 26 -48 28 -55 3 -6 -25 -51 -29 -60 -5 -8 21 28 67 58 75 35
10 33 10 68 -2z m290 0 c38 -14 51 -35 51 -88 l0 -41 -61 0 c-60 0 -60 0 -57
-27 3 -32 44 -46 54 -19 4 10 18 16 35 16 35 0 39 -25 10 -61 -27 -34 -99 -34
-135 0 -23 22 -26 32 -26 96 0 79 20 120 63 128 12 2 25 5 28 6 3 0 20 -4 38
-10z m198 0 c32 -12 43 -26 43 -56 0 -31 -45 -33 -53 -2 -4 13 -12 20 -24 17
-31 -6 -27 -34 7 -48 78 -32 101 -82 61 -131 -15 -19 -29 -24 -66 -24 -37 0
-51 5 -66 24 -29 36 -25 61 11 61 24 0 30 -4 30 -21 0 -15 5 -20 23 -17 39 5
27 38 -23 61 -89 43 -75 132 22 146 4 1 19 -4 35 -10z m220 -13 c6 -6 13 -22
15 -36 2 -21 -2 -26 -23 -28 -20 -2 -28 2 -32 18 -4 14 -12 21 -24 18 -29 -5
-21 -32 15 -50 73 -36 92 -81 53 -129 -15 -19 -29 -24 -66 -24 -37 0 -51 5
-66 24 -29 36 -25 61 10 61 21 0 30 -6 34 -21 7 -25 40 -22 45 4 3 12 -9 23
-42 37 -51 21 -70 54 -60 97 12 45 104 65 141 29z m182 13 c17 -6 36 -19 41
-29 6 -10 10 -62 10 -115 l0 -96 -37 1 c-21 1 -50 -2 -65 -6 -45 -10 -78 18
-78 66 0 44 20 64 83 81 28 7 37 15 35 27 -5 25 -45 27 -58 3 -16 -30 -60 -29
-60 2 1 28 20 54 51 66 32 13 40 13 78 0z m319 -22 c16 -15 22 -32 22 -64 l0
-43 -61 0 c-60 0 -60 0 -57 -27 3 -32 44 -46 54 -19 4 10 18 16 35 16 35 0 39
-25 10 -61 -27 -34 -99 -34 -135 0 -24 22 -26 32 -26 101 0 67 3 79 23 97 12
11 29 23 37 26 25 9 73 -4 98 -26z m1000 -3 c19 -21 22 -36 22 -99 0 -70 -1
-74 -32 -100 -27 -23 -39 -26 -71 -22 -59 8 -80 35 -85 107 -3 36 1 72 9 91
24 60 111 73 157 23z m240 9 c8 -11 12 -53 12 -120 l0 -103 -30 0 -30 0 0 90
c0 75 -3 92 -17 97 -32 12 -53 -32 -53 -113 l0 -74 -30 0 -30 0 0 120 0 120
29 0 c16 0 31 -5 33 -12 3 -8 11 -7 29 5 27 20 67 15 87 -10z m530 -9 c15 -17
22 -38 22 -65 l0 -39 -61 0 c-60 0 -60 0 -57 -27 3 -32 44 -46 54 -19 4 10 18
16 35 16 35 0 40 -29 9 -60 -27 -27 -63 -34 -105 -20 -46 15 -55 34 -55 123 0
64 3 76 23 94 12 11 29 23 37 26 28 11 75 -3 98 -29z m539 12 c6 -6 13 -54 15
-116 l3 -105 -32 -3 -33 -3 0 91 c0 72 -3 92 -15 96 -33 13 -45 -15 -45 -102
l0 -84 -35 0 -35 0 0 120 0 120 35 0 c19 0 35 -4 35 -9 0 -6 12 -3 28 4 28 15
58 12 79 -9z m218 -7 c17 -16 21 -36 23 -120 l4 -100 -44 1 c-23 1 -54 -1 -68
-5 -35 -9 -80 27 -80 64 0 39 19 60 70 75 33 10 46 19 48 35 4 28 -33 29 -50
1 -13 -20 -52 -27 -62 -12 -10 16 29 76 54 84 36 10 82 0 105 -23z m394 20
c36 -13 61 -53 61 -99 l0 -30 -59 0 c-63 0 -76 -8 -66 -40 8 -24 55 -28 55 -5
0 11 11 15 36 15 32 0 35 -2 29 -22 -13 -43 -42 -63 -90 -63 -64 0 -87 27 -93
105 -5 75 11 118 52 136 38 16 36 16 75 3z m249 0 l43 2 -3 -155 c-3 -134 -5
-157 -22 -175 -42 -46 -144 -35 -166 19 -14 35 -7 50 25 50 15 0 26 -7 30 -20
8 -26 51 -27 65 -1 5 11 10 30 10 42 0 18 -3 20 -12 11 -7 -7 -29 -12 -49 -12
-56 0 -79 34 -79 116 0 97 31 141 90 127 14 -4 44 -5 68 -4z m240 -25 c19 -22
22 -36 22 -120 l0 -95 -42 1 c-24 1 -54 -1 -68 -5 -35 -9 -80 27 -80 64 0 27
31 71 51 71 5 0 25 7 44 14 25 11 33 19 29 30 -9 22 -41 20 -54 -4 -11 -20
-54 -28 -64 -12 -10 16 29 76 54 84 40 11 83 0 108 -28z m-3048 -94 l0 -120
-35 0 -35 0 0 113 c0 63 3 117 7 120 3 4 19 7 35 7 l28 0 0 -120z m2280 63
c19 -91 25 -93 45 -14 17 68 18 71 47 71 29 0 30 -2 24 -33 -3 -19 -25 -99
-49 -178 l-42 -144 -34 -3 c-28 -3 -32 -1 -28 15 30 103 30 93 -2 206 -17 58
-34 113 -37 122 -5 12 2 15 28 15 34 0 35 -1 48 -57z m325 -3536 c0 -54 -6
-83 -22 -117 -36 -73 -48 -76 -148 -33 -47 21 -85 43 -85 50 0 9 7 10 26 3 42
-17 56 -13 44 10 -8 15 -8 21 2 24 107 31 158 73 158 129 0 25 3 29 13 19 7
-8 12 -41 12 -85z m301 -444 c67 -70 115 -191 138 -350 24 -164 30 -487 12
-638 -27 -219 -73 -421 -116 -504 -33 -64 -149 -163 -315 -268 -165 -104 -210
-117 -310 -92 -41 10 -46 9 -89 -20 -37 -26 -54 -31 -100 -31 -55 0 -68 8 -43
27 17 14 57 23 57 13 0 -5 -8 -14 -17 -19 -16 -9 -16 -10 3 -11 29 0 35 19 18
56 -15 34 -52 79 -59 72 -3 -3 1 -11 10 -18 8 -7 15 -17 15 -22 0 -16 -114
-151 -177 -209 -55 -50 -215 -149 -241 -149 -24 0 -10 20 60 84 40 36 68 66
63 66 -6 0 -51 -39 -100 -86 -94 -90 -132 -120 -141 -111 -11 10 56 124 107
182 l53 60 -57 -54 c-31 -30 -70 -80 -87 -112 -37 -70 -50 -80 -50 -41 0 48
37 154 71 202 25 36 26 39 4 15 -39 -45 -57 -82 -75 -160 -16 -66 -18 -68 -30
-46 -19 36 -7 138 23 202 13 30 48 82 76 117 28 34 47 62 42 62 -13 0 -123
-142 -134 -174 l-10 -28 -22 46 c-28 59 -43 75 -19 21 21 -47 32 -151 15 -141
-6 4 -11 13 -11 19 0 7 -18 44 -41 82 -25 43 -38 77 -35 90 11 43 36 230 36
266 0 61 47 94 121 87 29 -2 37 -10 56 -46 12 -23 46 -72 77 -108 31 -36 54
-70 50 -75 -10 -16 34 -10 113 17 108 36 154 36 190 2 37 -35 55 -37 22 -2
-40 43 -77 58 -105 43 -61 -32 -30 35 37 80 36 25 55 48 73 87 23 49 29 54 70
65 54 13 58 18 80 86 23 69 47 98 98 116 24 8 51 18 61 22 12 5 17 2 17 -8 0
-8 7 -20 15 -27 13 -11 13 -7 -1 31 -12 36 -13 53 -4 89 17 67 34 87 79 95 48
8 112 49 166 107 l40 42 -51 -46 c-43 -39 -102 -78 -117 -78 -13 0 -14 124 -1
203 9 51 16 101 16 112 1 51 32 231 58 341 52 220 103 327 178 375 63 40 92
38 138 -8z m-3318 -301 c7 -5 11 -26 10 -51 -1 -23 3 -46 8 -49 13 -10 36 -70
42 -111 l5 -34 -37 6 c-20 3 -38 1 -42 -5 -4 -6 -23 -8 -45 -5 -48 6 -79 -1
-79 -19 0 -21 -14 -17 -40 11 -23 25 -50 86 -50 116 0 18 32 49 74 69 15 8 33
26 38 40 5 13 15 28 21 32 16 10 79 10 95 0z m793 -606 l27 -30 -25 -37 c-37
-55 -40 -107 -12 -164 19 -38 21 -49 11 -63 -7 -9 -22 -33 -35 -52 l-22 -35
-6 37 c-3 20 -13 48 -23 63 -14 22 -15 32 -7 57 16 44 14 111 -4 134 -21 28
-18 47 17 105 28 45 34 49 43 34 5 -10 22 -32 36 -49z m119 -592 c53 -22 74
-60 61 -112 -12 -46 -31 -226 -31 -299 0 -51 -3 -57 -45 -101 -36 -38 -45 -43
-45 -27 0 11 7 31 16 43 8 12 14 28 12 34 -2 6 -18 -21 -36 -60 -20 -46 -43
-79 -65 -96 -43 -33 -54 -33 -33 -1 23 35 87 188 81 193 -3 3 -19 -26 -35 -64
-50 -114 -66 -138 -104 -159 -28 -15 -38 -17 -47 -8 -10 10 -9 16 4 30 18 20
72 152 81 198 8 39 -2 18 -44 -89 -17 -44 -44 -94 -60 -113 -17 -18 -30 -38
-30 -43 0 -14 67 -13 92 1 11 6 33 12 48 13 26 2 26 1 13 -24 -7 -14 -13 -30
-13 -36 0 -6 -13 -29 -29 -50 -36 -51 -45 -80 -75 -244 -18 -104 -33 -156 -64
-220 -21 -47 -42 -98 -46 -113 -4 -16 -22 -41 -40 -58 -43 -37 -73 -107 -87
-203 -10 -66 -9 -83 5 -120 19 -50 62 -97 127 -141 53 -36 55 -39 95 -137 47
-118 127 -210 232 -270 28 -16 52 -31 52 -31 0 -5 -519 -5 -542 -1 -18 4 -28
12 -28 23 0 9 -5 22 -11 28 -8 8 -8 17 0 31 16 30 14 63 -9 144 -11 40 -20 88
-20 107 0 33 -22 138 -75 356 -16 68 -26 144 -30 235 -8 184 -23 285 -53 350
-21 45 -25 68 -24 127 2 49 -2 82 -12 102 -11 20 -14 44 -9 80 l6 52 18 -31
c12 -19 22 -62 27 -113 7 -82 7 -82 37 -85 17 -2 37 -10 46 -18 28 -25 92 -8
132 35 18 20 43 44 55 53 13 10 30 46 42 90 12 40 28 85 36 100 8 14 11 33 8
42 -3 9 -2 16 2 17 5 0 19 2 32 3 19 2 22 -2 22 -34 0 -21 7 -43 15 -50 13
-11 13 -8 4 18 -8 24 -5 48 15 123 14 52 28 119 31 149 4 30 8 65 11 78 2 12
0 22 -5 22 -4 0 -12 -28 -15 -62 -4 -35 -17 -101 -29 -148 l-22 -85 -6 55 c-4
30 -10 62 -13 70 -4 9 10 63 29 120 35 100 40 108 106 171 38 37 76 83 84 102
8 19 22 42 30 51 21 21 74 20 125 0z m-1550 -116 c-35 -38 -31 -41 80 -84 42
-16 64 -18 55 -4 -3 6 1 7 10 4 9 -4 13 -9 10 -12 -10 -10 69 -31 95 -26 18 4
21 3 11 -4 -11 -8 -10 -11 5 -16 25 -8 279 -258 304 -299 27 -43 26 -61 -2
-53 -96 27 -155 28 -155 3 0 -18 27 -43 27 -25 0 8 4 7 10 -4 13 -21 3 -45
-21 -51 -11 -3 -18 -13 -18 -24 1 -16 2 -16 6 0 6 21 14 21 39 1 12 -10 13
-14 4 -11 -12 4 -14 -4 -11 -39 2 -35 0 -44 -13 -44 -11 0 -16 9 -16 29 0 17
-4 32 -8 35 -5 3 -6 -9 -4 -26 3 -19 -1 -34 -9 -39 -12 -8 -12 -10 0 -18 7 -5
11 -14 7 -20 -5 -7 -1 -9 8 -5 14 5 16 -6 16 -75 0 -47 -4 -81 -10 -81 -5 0
-10 -18 -10 -40 0 -22 -4 -40 -10 -40 -5 0 -10 9 -10 19 0 11 -6 23 -12 27 -7
4 -10 4 -6 0 4 -5 3 -19 -3 -33 -6 -16 -6 -22 1 -18 6 3 10 2 10 -3 0 -5 11
-7 25 -4 l25 4 -6 -101 c-5 -70 -4 -101 4 -101 6 0 13 10 15 23 2 12 5 4 6
-19 1 -28 -6 -50 -19 -67 -11 -14 -20 -30 -20 -36 0 -6 -7 -11 -15 -11 -8 0
-15 -4 -15 -10 0 -14 -18 -12 -23 3 -2 6 -2 1 0 -13 3 -14 10 -32 18 -40 7 -8
16 -26 19 -40 6 -22 5 -21 -10 5 -9 17 -22 37 -29 45 -23 26 -64 136 -89 235
-14 53 -32 107 -40 120 -20 31 -20 81 0 196 15 89 13 139 -6 139 -5 0 -6 -16
-3 -34 3 -19 2 -59 -1 -89 l-7 -55 -39 36 c-42 37 -65 87 -54 118 4 10 24 54
45 98 39 78 47 106 30 106 -12 0 -23 -29 -15 -41 3 -5 0 -9 -5 -9 -6 0 -10 -3
-9 -7 3 -11 -36 -103 -43 -103 -4 0 -10 12 -13 27 -4 14 -21 46 -37 70 -17 24
-41 67 -53 96 -34 76 -86 245 -86 278 0 50 59 179 82 179 5 0 0 -10 -12 -22z
m724 -72 c17 -13 56 -48 86 -78 30 -29 91 -81 135 -115 44 -34 92 -73 106 -87
26 -26 69 -127 69 -162 -1 -10 -12 10 -26 46 -34 91 -44 113 -49 108 -3 -3 8
-43 24 -91 25 -74 28 -92 19 -124 -15 -55 -49 -133 -59 -133 -4 0 -1 17 8 38
14 32 14 47 4 112 -16 97 -30 150 -39 150 -5 0 0 -39 10 -87 23 -108 19 -151
-18 -228 -35 -72 -61 -88 -48 -29 14 61 10 242 -5 257 -11 10 -12 6 -7 -18 16
-81 17 -162 2 -219 -16 -62 -29 -78 -54 -69 -12 5 -13 24 -8 107 6 78 4 110
-8 141 -17 46 -21 27 -6 -25 8 -25 7 -54 -1 -100 -13 -76 -21 -95 -40 -95 -10
0 -16 21 -21 77 -8 83 -46 175 -99 235 -15 18 -46 71 -69 119 -23 48 -55 107
-71 130 -16 23 -29 46 -29 51 1 16 55 72 90 92 45 27 66 26 104 -3z m1686
-135 c21 -6 24 -12 22 -42 -2 -24 4 -46 22 -72 31 -45 51 -83 61 -117 16 -49
-23 -1 -40 51 -16 48 -33 71 -20 27 14 -48 47 -108 60 -108 7 0 15 -17 18 -41
3 -22 12 -48 21 -58 15 -16 15 -25 0 -107 -28 -158 -4 -241 107 -369 32 -38
59 -72 59 -75 0 -10 -48 -30 -73 -30 -38 0 -240 146 -327 237 -158 164 -187
285 -123 503 40 132 73 193 110 201 37 9 72 9 103 0z m671 -216 c71 -25 115
-60 171 -137 76 -103 74 -96 42 -130 -28 -30 -187 -139 -251 -172 -38 -19 -45
-41 -8 -24 55 25 120 -34 168 -155 32 -79 72 -294 63 -332 -16 -62 -108 -111
-158 -84 -13 7 -127 116 -254 243 -261 260 -283 292 -292 410 -3 37 1 99 7
137 12 65 22 82 36 59 7 -11 30 -4 65 20 14 9 40 20 59 24 34 6 197 98 243
136 28 24 52 25 109 5z m275 -317 c5 -13 6 -27 5 -33 -11 -33 -9 -252 3 -330
15 -94 45 -220 65 -268 16 -41 14 -87 -5 -94 -10 -4 -30 9 -57 35 -46 45 -72
108 -107 263 -36 160 -81 246 -152 289 l-28 17 83 51 c77 48 163 91 179 92 4
0 10 -10 14 -22z"/>
<path d="M6613 9773 c-20 -4 -23 -11 -23 -51 l0 -47 85 0 85 0 0 46 c0 40 -3
48 -22 53 -25 6 -90 6 -125 -1z"/>
<path d="M536 8698 c-18 -30 -40 -51 -71 -67 -43 -22 -59 -51 -35 -66 5 -3 50
0 100 6 80 10 93 10 109 -5 21 -19 69 -21 92 -3 19 14 49 80 49 107 0 13 -10
21 -32 25 -18 4 -39 12 -47 18 -15 13 -28 16 -92 24 -47 5 -47 5 -73 -39z"/>
<path d="M923 8573 c-7 -2 -9 -11 -6 -19 4 -11 -6 -14 -45 -14 -28 0 -54 -4
-57 -10 -3 -5 -14 -10 -24 -10 -10 0 -40 -11 -67 -25 -57 -29 -104 -32 -140
-8 -24 15 -28 15 -80 -7 -37 -15 -59 -19 -66 -12 -5 5 -18 8 -28 5 -15 -4 -16
-10 -7 -45 8 -32 7 -42 -7 -56 -12 -13 -19 -13 -28 -4 -17 17 -108 16 -108 -2
0 -21 22 -34 68 -42 32 -5 47 -3 60 10 10 8 32 19 50 22 17 3 39 15 48 25 25
27 44 23 50 -10 8 -39 39 -46 88 -20 l38 20 -6 -36 c-3 -19 -9 -51 -12 -71
l-7 -37 39 7 c73 14 209 102 209 135 0 29 121 92 139 74 13 -14 4 63 -9 81 -8
11 -15 16 -15 11 0 -5 -7 0 -15 12 -15 21 -42 33 -62 26z"/>
<path d="M148 8053 c-10 -3 -18 -13 -18 -24 0 -11 -7 -31 -16 -44 -8 -13 -14
-34 -12 -46 4 -26 43 -57 78 -61 24 -3 25 0 28 57 5 94 -13 128 -60 118z"/>
<path d="M340 7522 c-23 -19 -25 -27 -24 -105 l1 -85 -40 -16 c-39 -15 -39
-15 -32 -58 9 -51 20 -67 60 -84 17 -7 40 -22 52 -33 32 -30 73 -26 44 5 -12
11 -53 169 -53 201 0 12 8 42 19 65 33 70 35 83 15 107 l-18 23 -24 -20z"/>
<path d="M1193 7348 c-4 -7 -6 -51 -5 -98 3 -79 1 -89 -27 -144 -49 -93 -40
-109 32 -53 23 17 47 39 54 47 18 23 24 67 12 98 -6 15 -11 49 -10 76 2 63
-33 109 -56 74z"/>
<path d="M692 6844 c-20 -14 -22 -21 -16 -63 6 -44 4 -48 -20 -59 -15 -7 -33
-12 -40 -12 -7 0 -21 -9 -31 -20 -10 -11 -42 -27 -72 -36 -80 -23 -84 -31 -77
-127 7 -89 17 -111 45 -102 22 7 59 -27 59 -55 0 -11 7 -20 15 -20 19 0 19
-30 -1 -58 -8 -12 -16 -37 -17 -55 -1 -17 -10 -43 -19 -56 -12 -17 -14 -29 -8
-42 6 -10 10 -25 10 -34 0 -20 -39 -65 -57 -65 -29 0 -27 -24 9 -93 5 -11 9
-47 8 -80 -1 -34 -1 -88 -1 -121 l1 -59 53 7 c28 4 57 13 63 21 6 8 14 61 17
117 6 96 9 105 35 128 87 78 155 135 165 139 7 2 28 17 48 32 20 16 43 29 49
29 9 0 7 7 -5 20 -19 21 -19 21 -54 -18 -20 -21 -54 -45 -76 -52 -22 -7 -52
-22 -66 -32 -15 -11 -37 -18 -50 -16 -32 4 -36 41 -10 101 13 31 18 58 14 81
-5 32 2 47 61 134 90 135 89 180 -4 106 -41 -33 -45 -34 -57 -18 -24 33 13
185 73 303 12 24 14 41 8 59 -11 32 -24 36 -52 16z"/>
<path d="M1116 6458 c-3 -12 -15 -68 -25 -122 -16 -78 -26 -105 -47 -127 -24
-25 -25 -29 -10 -35 27 -10 47 -59 37 -88 -7 -18 -6 -28 4 -36 8 -6 12 -17 9
-24 -3 -9 5 -15 23 -19 15 -3 29 -4 30 -3 1 1 7 36 13 77 6 40 16 94 21 119
15 73 16 243 1 247 -6 3 -10 9 -6 14 3 5 1 9 -5 9 -5 0 -16 3 -25 6 -10 4 -17
-2 -20 -18z"/>
<path d="M555 5132 c-6 -4 -17 -27 -24 -51 -7 -25 -20 -55 -28 -68 -18 -28
-13 -46 21 -69 24 -15 28 -15 62 1 27 12 34 21 29 33 -17 40 -25 70 -30 115
-6 47 -11 53 -30 39z"/>
<path d="M314 4928 c-25 -38 -64 -123 -64 -139 0 -10 5 -30 12 -44 9 -20 18
-25 50 -25 21 0 38 5 38 11 0 6 7 4 15 -5 8 -8 15 -19 15 -25 0 -20 19 -11 37
17 10 15 39 47 65 72 26 25 48 52 49 60 3 30 -1 40 -19 40 -10 0 -28 8 -42 17
-13 9 -44 17 -70 18 -25 0 -52 4 -61 9 -11 4 -20 2 -25 -6z"/>
<path d="M318 4636 c-15 -8 -40 -26 -55 -40 -15 -15 -52 -38 -80 -52 -57 -26
-61 -37 -42 -92 8 -23 8 -41 -1 -68 -11 -31 -10 -38 5 -53 16 -15 18 -14 33 8
9 13 40 53 68 89 29 36 58 77 65 91 7 14 21 37 30 51 9 14 19 37 23 53 7 31
-4 35 -46 13z"/>
</g>
</svg>
