<?xml version="1.0" standalone="no"?>
<!DOCTYPE svg PUBLIC "-//W3C//DTD SVG 20010904//EN"
 "http://www.w3.org/TR/2001/REC-SVG-20010904/DTD/svg10.dtd">
<svg version="1.0" xmlns="http://www.w3.org/2000/svg"
 width="720.000000pt" height="1280.000000pt" viewBox="0 0 720.000000 1280.000000"
 preserveAspectRatio="xMidYMid meet">
<metadata>
Created by potrace 1.16, written by Peter Selinger 2001-2019
</metadata>
<g transform="translate(0.000000,1280.000000) scale(0.100000,-0.100000)"
fill="#000000" stroke="none">
<path d="M0 6400 l0 -6400 3600 0 3600 0 0 1025 0 1025 -3590 0 -3590 0 0
3600 0 3600 3590 0 3590 0 0 1775 0 1775 -3600 0 -3600 0 0 -6400z m6797 3678
c152 -71 198 -271 93 -403 -27 -34 -28 -39 -14 -50 15 -11 15 -14 0 -37 -26
-40 -88 -50 -140 -23 -37 19 -70 19 -127 -1 -61 -22 -111 -13 -139 26 -19 27
-19 29 -3 39 17 9 16 11 -4 33 -56 60 -79 178 -51 269 23 77 103 146 195 168
51 13 139 3 190 -21z m-654 6 c53 -18 116 -76 143 -132 26 -54 25 -174 -3
-227 -49 -93 -119 -136 -233 -143 -63 -4 -85 -1 -128 18 -148 64 -203 241
-118 382 25 42 43 59 94 85 54 28 75 33 131 33 37 0 88 -7 114 -16z m-5802
-239 c21 -88 38 -166 38 -172 1 -8 -12 -13 -32 -13 -28 0 -34 4 -42 32 -9 29
-14 32 -50 31 -36 0 -40 -3 -47 -31 -8 -28 -13 -32 -42 -32 l-34 0 14 58 c7
31 26 110 41 175 l27 118 44 -3 45 -3 38 -160z m369 73 l1 -93 30 38 c23 27
39 37 60 37 16 0 29 -3 29 -6 0 -4 -16 -27 -35 -53 l-34 -47 21 -35 c11 -19
29 -49 40 -66 l20 -33 -36 0 c-30 0 -38 5 -57 40 -26 45 -39 43 -39 -6 0 -31
-2 -34 -30 -34 l-30 0 0 175 0 175 30 0 30 0 0 -92z m1740 -83 l0 -176 -42 1
c-24 1 -54 -1 -68 -5 -43 -11 -77 25 -85 88 -7 58 7 128 30 147 17 14 51 17
83 6 21 -7 22 -5 22 53 l0 61 30 0 30 0 0 -175z m452 83 l3 -92 25 37 c20 30
31 37 58 37 30 0 42 -12 24 -24 -5 -3 -21 -23 -36 -45 l-28 -39 34 -54 c19
-29 38 -59 42 -65 5 -10 -3 -13 -29 -13 -30 0 -39 5 -56 35 -27 45 -39 44 -39
-1 0 -34 -1 -35 -32 -32 l-33 3 -3 173 -2 172 34 0 35 0 3 -92z m728 28 l0
-64 29 14 c31 15 77 6 93 -19 4 -7 8 -58 8 -114 l0 -103 -30 0 -30 0 0 90 c0
75 -3 92 -16 97 -37 14 -49 -10 -52 -101 l-3 -86 -29 0 -30 0 0 175 0 175 30
0 30 0 0 -64z m530 3 c0 -55 2 -60 18 -53 31 13 76 5 95 -17 13 -16 17 -40 17
-101 0 -71 -2 -81 -26 -105 -21 -21 -31 -24 -57 -18 -18 4 -49 6 -69 6 l-38
-2 0 176 0 175 30 0 30 0 0 -61z m-1480 -9 c0 -38 2 -40 30 -40 25 0 30 -4 30
-25 0 -21 -5 -25 -30 -25 l-31 0 3 -67 c3 -66 4 -68 31 -71 28 -3 31 -9 21
-36 -4 -11 -19 -16 -45 -16 -54 0 -69 25 -69 117 0 66 -2 73 -20 73 -15 0 -20
7 -20 25 0 18 5 25 20 25 17 0 20 7 20 40 0 38 2 40 30 40 28 0 30 -2 30 -40z
m-2096 -61 c24 -23 34 -121 17 -172 -15 -44 -59 -66 -97 -48 -14 6 -27 11 -29
11 -3 0 -5 -30 -5 -66 l0 -65 -27 3 -28 3 -3 179 -2 179 38 -6 c22 -2 46 -1
53 4 19 11 60 1 83 -22z m405 20 c17 -6 36 -19 41 -29 6 -10 10 -62 10 -115
l0 -97 -32 3 c-18 1 -48 -1 -66 -5 -50 -12 -82 13 -82 64 0 44 20 64 83 81 28
7 37 15 35 27 -5 26 -48 28 -55 3 -6 -25 -51 -29 -60 -5 -8 21 28 67 58 75 35
10 33 10 68 -2z m290 0 c38 -14 51 -35 51 -88 l0 -41 -61 0 c-60 0 -60 0 -57
-27 3 -32 44 -46 54 -19 9 23 64 21 64 -2 0 -51 -67 -84 -124 -62 -45 17 -55
38 -56 116 0 78 20 119 63 127 12 2 25 5 28 6 3 0 20 -4 38 -10z m198 0 c32
-12 43 -26 43 -56 0 -31 -45 -33 -53 -3 -7 26 -47 27 -47 1 0 -11 12 -23 30
-31 78 -32 101 -82 61 -131 -15 -19 -29 -24 -66 -24 -37 0 -51 5 -66 24 -28
34 -25 61 7 61 18 0 28 -6 31 -21 7 -25 46 -22 51 4 3 12 -9 23 -42 37 -76 32
-89 107 -23 135 39 17 39 17 74 4z m197 -3 c31 -13 53 -55 38 -71 -14 -14 -50
-3 -55 16 -4 13 -12 20 -24 17 -29 -5 -21 -32 15 -50 73 -36 92 -81 53 -129
-15 -19 -29 -24 -66 -24 -37 0 -51 5 -66 24 -29 36 -25 61 10 61 20 0 30 -6
34 -20 7 -28 47 -27 47 0 0 15 -13 26 -45 40 -73 31 -85 108 -21 136 39 17 40
17 80 0z m205 3 c17 -6 36 -19 41 -29 6 -10 10 -62 10 -115 l0 -97 -32 3 c-18
1 -48 -1 -66 -5 -50 -12 -82 13 -82 64 0 44 20 64 83 81 28 7 37 15 35 27 -5
25 -45 27 -58 3 -13 -24 -60 -29 -60 -6 0 32 25 66 54 74 42 12 39 12 75 0z
m319 -22 c16 -15 22 -32 22 -64 l0 -43 -61 0 c-60 0 -60 0 -57 -27 3 -32 44
-46 54 -19 8 20 64 22 64 2 0 -69 -102 -98 -158 -45 -19 17 -22 31 -22 98 0
68 3 80 23 98 12 11 29 23 37 26 25 9 73 -4 98 -26z m1000 -3 c18 -21 22 -37
22 -89 0 -77 -13 -110 -50 -125 -35 -15 -93 -4 -116 21 -23 26 -31 128 -13
170 24 60 111 73 157 23z m232 16 c17 -17 20 -33 20 -125 l0 -105 -30 0 -30 0
0 90 c0 75 -3 92 -17 97 -32 12 -53 -32 -53 -113 l0 -74 -30 0 -30 0 0 120 0
120 29 0 c16 0 31 -5 33 -11 2 -6 14 -5 33 5 39 21 51 20 75 -4z m538 -13 c16
-15 22 -32 22 -64 l0 -43 -61 0 c-60 0 -60 0 -57 -27 3 -32 44 -46 54 -19 4
10 18 16 35 16 35 0 40 -29 9 -60 -27 -27 -63 -34 -105 -20 -46 15 -55 34 -55
123 0 64 3 76 23 94 12 11 29 23 37 26 25 8 74 -5 98 -26z m530 16 c18 -16 21
-32 24 -123 l3 -105 -32 -3 -33 -3 0 91 c0 72 -3 92 -15 96 -33 13 -45 -15
-45 -102 l0 -84 -35 0 -35 0 0 120 0 120 35 0 c19 0 35 -5 35 -11 0 -5 10 -3
22 5 29 21 51 20 76 -1z m227 -14 c17 -16 21 -35 23 -120 l4 -100 -44 1 c-23
1 -54 -1 -68 -5 -34 -9 -80 27 -80 61 0 42 17 62 70 79 37 12 50 22 50 36 0
26 -36 25 -52 -1 -13 -20 -52 -27 -62 -12 -10 17 29 76 54 83 36 10 82 0 105
-22z m394 20 c36 -13 61 -53 61 -99 l0 -30 -59 0 c-65 0 -73 -5 -64 -38 6 -26
48 -31 57 -7 3 9 18 15 36 15 28 0 31 -3 25 -22 -4 -13 -18 -34 -33 -47 -21
-19 -33 -22 -66 -18 -61 8 -86 43 -86 117 0 73 16 109 55 126 37 16 35 16 74
3z m204 -3 c15 -8 27 -11 27 -5 0 5 14 9 31 9 l30 0 -3 -154 c-3 -134 -5 -157
-22 -175 -42 -46 -144 -35 -166 19 -7 16 -9 34 -5 39 10 18 44 12 57 -9 27
-42 78 -15 78 41 0 18 -3 20 -12 11 -7 -7 -29 -12 -49 -12 -56 0 -79 34 -79
116 0 72 13 107 44 122 29 14 37 14 69 -2z m282 -17 c17 -16 21 -36 23 -120
l4 -100 -44 1 c-23 1 -54 -1 -68 -5 -36 -9 -80 27 -80 66 0 28 30 69 50 69 6
0 26 7 45 14 25 11 33 19 29 30 -9 22 -41 20 -56 -4 -18 -29 -58 -27 -58 3 0
68 101 98 155 46z m-3045 -99 l0 -120 -35 0 -35 0 0 113 c0 63 3 117 7 120 3
4 19 7 35 7 l28 0 0 -120z m2280 63 c19 -90 25 -92 45 -14 18 68 20 71 48 71
28 0 29 -2 23 -33 -3 -19 -25 -99 -49 -178 -43 -145 -52 -161 -91 -146 -11 5
-11 15 1 60 15 54 15 56 -17 163 -18 60 -35 115 -38 122 -3 8 7 12 30 12 34 0
35 -1 48 -57z"/>
<path d="M6613 9773 c-20 -4 -23 -11 -23 -51 l0 -47 85 0 85 0 0 46 c0 40 -3
48 -22 53 -25 6 -90 6 -125 -1z"/>
<path d="M2710 8710 c-468 -39 -1143 -172 -1845 -366 -269 -74 -560 -166 -577
-182 -25 -21 -24 -93 0 -115 33 -30 32 -30 382 73 299 88 595 166 855 225 138
31 277 62 310 70 109 25 456 84 615 104 525 69 909 51 1087 -51 93 -52 127
-112 97 -170 -70 -136 -288 -277 -937 -604 -653 -329 -826 -432 -972 -579
-106 -106 -140 -177 -136 -284 3 -91 98 -207 219 -266 111 -55 197 -69 407
-69 159 0 221 5 381 29 l192 29 -5 80 c-3 45 -7 82 -8 84 -1 1 -33 -4 -71 -12
-241 -51 -600 -67 -724 -33 -89 25 -148 55 -192 101 -63 64 -52 126 40 219
136 139 272 220 880 529 500 252 566 288 705 375 278 176 392 307 390 450 -2
168 -170 296 -458 350 -96 18 -480 26 -635 13z"/>
<path d="M5045 7296 c-158 -23 -525 -108 -735 -170 -47 -14 -125 -36 -175 -48
-49 -12 -91 -23 -93 -24 -1 -1 11 -16 28 -34 18 -19 40 -50 50 -71 l19 -36
103 29 c542 153 861 217 1029 205 130 -9 165 -43 140 -136 -33 -127 -181 -263
-483 -447 l-122 -74 154 0 155 0 70 50 c39 28 83 59 100 70 16 11 69 59 118
107 71 70 96 103 130 172 38 77 42 91 42 160 0 42 -3 88 -7 102 -11 39 -76 99
-137 127 -47 22 -71 26 -175 28 -67 2 -161 -3 -211 -10z"/>
<path d="M3026 6913 c-3 -10 -3 -45 -1 -78 3 -58 4 -60 34 -63 41 -4 71 14 71
43 0 13 -5 27 -10 30 -7 4 -7 12 0 25 13 24 13 26 -6 44 -22 22 -81 21 -88 -1z"/>
<path d="M3584 6916 c-3 -7 -4 -42 -2 -77 l3 -64 32 -3 c24 -2 39 3 58 22 50
50 17 136 -51 136 -20 0 -37 -6 -40 -14z"/>
<path d="M1524 6385 c6 -17 -5 -20 -21 -4 -7 7 -23 7 -54 -2 -56 -16 -55 -15
-34 -39 10 -11 15 -23 11 -27 -4 -4 -11 -1 -16 7 -6 8 -10 10 -10 5 0 -6 8
-21 17 -34 9 -14 11 -21 5 -17 -19 12 -24 -15 -6 -35 9 -10 14 -22 10 -26 -4
-4 -11 -1 -16 7 -6 8 -10 11 -10 5 0 -5 4 -17 10 -25 5 -9 5 -19 -2 -27 -8
-10 -6 -19 8 -35 14 -16 15 -20 4 -16 -13 5 -15 -10 -15 -97 0 -87 2 -102 15
-98 13 4 13 3 1 -5 -10 -7 -15 -36 -16 -106 -1 -53 2 -101 6 -108 4 -7 3 -18
-3 -25 -7 -9 -7 -17 2 -28 7 -8 8 -15 3 -15 -13 0 -9 -75 5 -93 9 -11 10 -17
2 -22 -6 -4 -9 -13 -6 -20 2 -7 0 -17 -6 -23 -8 -8 -6 -16 6 -27 20 -21 20
-26 0 -18 -14 5 -15 3 -5 -15 6 -11 16 -24 21 -27 6 -3 10 -12 10 -18 0 -7 -4
-6 -10 3 -7 12 -12 12 -22 2 -10 -10 -8 -15 11 -29 21 -14 22 -17 7 -25 -14
-8 -15 -13 -5 -24 9 -11 8 -14 -5 -14 -20 0 -20 -9 1 -32 9 -10 13 -21 9 -25
-4 -4 -11 -1 -16 7 -6 8 -10 10 -10 5 0 -6 7 -21 16 -33 10 -14 11 -22 3 -20
-25 6 -18 -21 14 -49 39 -34 64 -68 31 -43 -10 8 -21 17 -24 20 -52 52 -52 22
0 -33 39 -40 41 -41 47 -19 l5 22 23 -26 c15 -17 25 -22 29 -15 4 7 -14 34
-43 63 -28 29 -51 55 -51 59 0 5 15 -8 34 -26 32 -34 56 -45 56 -25 0 6 -4 10
-9 10 -5 0 -12 7 -15 16 -6 15 -4 15 11 3 10 -8 32 -29 50 -47 18 -19 37 -31
43 -27 7 4 -7 25 -37 54 -26 26 -57 58 -68 71 l-20 25 30 -25 c16 -14 34 -31
41 -39 8 -11 13 -11 18 -2 5 7 -7 26 -29 46 -20 19 -32 35 -27 35 4 0 19 -11
32 -25 13 -14 27 -25 32 -25 17 0 7 23 -18 45 -29 25 -27 56 3 54 17 -1 17 -2
1 -6 -10 -2 -18 -8 -18 -11 0 -12 108 -112 120 -112 6 0 9 -4 6 -8 -6 -10 33
-46 41 -38 3 3 -13 25 -36 48 -23 24 -56 58 -73 76 -18 17 -27 32 -21 32 6 0
16 -7 23 -15 7 -8 16 -15 21 -15 15 0 10 27 -6 34 -8 3 -15 11 -15 17 0 8 4 8
15 -1 28 -23 29 0 2 28 -15 16 -27 32 -27 36 0 5 15 -8 34 -28 33 -34 56 -46
56 -28 0 5 -11 19 -25 32 -14 13 -25 27 -25 32 0 5 21 -12 46 -37 45 -43 64
-54 64 -37 0 4 -21 28 -47 53 -51 48 -79 79 -70 79 2 0 34 -29 70 -65 36 -36
68 -65 71 -65 17 0 1 26 -36 64 -24 23 -54 55 -68 72 l-25 29 24 -20 c14 -11
44 -39 67 -62 37 -38 64 -54 64 -38 0 3 -23 28 -50 56 -77 78 -53 69 28 -11
39 -38 74 -65 77 -60 3 6 -23 40 -59 75 -36 36 -66 69 -66 72 0 4 17 -10 38
-30 21 -20 41 -37 45 -37 15 0 6 22 -18 46 -14 14 -25 28 -25 31 0 7 30 -17
55 -44 26 -28 35 -29 35 -2 0 18 2 18 24 -8 13 -15 28 -25 32 -20 4 4 -3 18
-16 32 -13 14 -18 25 -12 25 6 0 16 -8 21 -17 6 -10 11 -14 11 -9 0 5 9 -3 21
-18 20 -25 44 -36 37 -17 -1 5 -22 30 -46 55 -58 62 -43 59 20 -4 47 -47 68
-60 68 -42 0 4 -22 29 -50 55 -27 26 -50 52 -50 58 0 5 20 -11 44 -36 41 -41
66 -56 66 -37 0 4 -23 29 -50 56 -28 27 -50 53 -50 58 0 4 38 -30 84 -77 75
-75 106 -99 106 -79 0 4 -34 40 -75 81 -41 41 -75 79 -75 83 0 4 42 -34 94
-86 85 -85 117 -108 116 -86 0 4 -45 52 -100 106 -55 55 -100 103 -100 107 0
3 56 -49 124 -117 69 -69 127 -120 131 -114 3 5 -31 48 -77 94 -87 88 -134
139 -107 119 8 -7 70 -67 137 -133 67 -67 127 -118 133 -115 5 4 -24 39 -67
81 -42 41 -72 74 -66 74 5 0 39 -29 75 -65 77 -77 100 -73 26 5 -78 82 -52 69
39 -20 45 -44 84 -80 87 -80 14 0 2 22 -30 51 -19 19 -34 40 -34 49 1 11 2 11
6 -2 2 -10 8 -18 13 -18 5 0 23 -16 41 -35 19 -19 37 -35 41 -35 18 0 5 21
-44 69 -28 28 -49 53 -46 56 3 3 22 -11 42 -31 20 -20 40 -34 43 -30 4 3 -11
24 -32 46 -22 22 -34 40 -28 40 6 0 20 -11 31 -25 19 -24 42 -33 42 -17 0 4
-6 14 -12 21 -19 21 11 3 39 -22 33 -29 40 -13 9 20 -39 42 -31 47 9 6 24 -24
32 -39 24 -44 -7 -4 -8 -12 -4 -20 6 -9 10 -7 16 10 10 25 41 40 47 23 4 -13
32 -17 32 -4 0 4 -6 14 -12 22 -7 8 -2 6 12 -5 13 -11 30 -26 36 -34 9 -11 13
-11 19 -1 4 7 2 16 -6 21 -8 5 -9 9 -4 9 6 0 34 -22 62 -50 28 -27 54 -50 57
-50 15 0 3 25 -21 46 -15 13 -25 26 -22 28 3 3 37 -26 76 -64 39 -39 74 -70
77 -70 17 0 0 26 -55 81 -33 33 -56 60 -50 58 10 -4 204 -191 230 -222 20 -25
8 -21 -25 8 -29 25 -44 31 -44 18 0 -17 180 -184 190 -178 7 4 0 18 -19 36
-17 16 -31 32 -31 36 0 8 80 -65 93 -85 4 -7 12 -10 18 -7 14 9 11 25 -6 25
-8 0 -15 6 -15 14 0 8 -6 17 -12 19 -7 3 -8 6 -3 6 6 1 22 -10 37 -24 45 -42
55 -25 11 19 -14 14 -24 29 -21 31 6 6 58 -44 58 -56 0 -5 6 -9 14 -9 8 0 16
-6 19 -12 2 -7 8 -10 12 -6 4 4 -9 24 -29 45 -42 45 -49 66 -8 26 44 -43 73
-65 79 -59 4 3 -9 21 -28 39 -90 88 -120 132 -39 57 24 -22 47 -40 52 -40 16
0 8 19 -17 38 -14 11 -25 25 -25 31 0 7 16 -4 36 -23 51 -49 63 -34 14 16 -22
23 -40 45 -40 49 0 4 15 -8 34 -26 32 -34 56 -45 56 -26 0 5 -10 18 -22 28
-13 10 -29 26 -37 36 -25 31 -2 18 38 -24 23 -22 45 -37 51 -34 6 4 -8 25 -35
51 -25 25 -45 48 -45 51 0 7 63 -48 68 -59 4 -9 32 -11 32 -3 0 3 -12 17 -26
30 -15 14 -22 25 -17 25 5 0 28 -18 51 -40 23 -23 43 -36 47 -30 3 6 -12 28
-34 51 -42 40 -55 63 -24 38 10 -8 26 -24 36 -36 10 -13 23 -23 28 -23 18 0 9
26 -16 44 -14 10 -25 23 -25 29 0 6 11 0 25 -13 14 -13 28 -20 32 -15 5 4 2
10 -4 12 -7 3 -13 11 -13 19 0 8 -5 14 -12 14 -6 0 -8 3 -4 7 4 5 14 -1 22
-11 11 -16 17 -17 27 -7 9 10 8 14 -5 22 -10 6 -18 15 -18 21 0 7 6 6 15 -2
20 -17 32 -5 15 15 -10 12 -10 15 4 15 19 0 21 11 4 28 -7 7 -9 12 -5 12 3 0
17 -11 31 -25 23 -23 46 -33 46 -20 0 3 -11 18 -25 33 -14 15 -25 31 -24 37 0
5 3 4 6 -2 5 -13 33 -18 33 -6 0 3 -8 16 -17 27 -17 20 -17 20 2 6 11 -8 34
-30 52 -48 18 -20 37 -31 44 -27 7 5 4 14 -12 29 -13 12 -33 32 -44 46 l-20
25 30 -25 c16 -14 39 -35 50 -47 11 -13 24 -23 28 -23 17 0 4 24 -35 63 -24
23 -52 54 -63 67 l-20 25 30 -25 c16 -14 39 -35 50 -47 11 -13 24 -23 28 -23
16 0 5 22 -25 53 -18 17 -40 41 -48 52 -15 20 -15 20 10 0 13 -11 33 -30 43
-42 10 -13 23 -23 28 -23 16 0 9 20 -16 46 -14 14 -25 28 -25 31 0 4 5 2 12
-5 7 -7 16 -12 20 -12 13 0 9 28 -4 33 -7 3 -8 6 -2 6 6 1 21 -10 34 -24 26
-28 40 -32 40 -12 0 8 -11 20 -25 27 -14 7 -25 20 -25 28 0 11 5 9 19 -6 17
-20 41 -30 41 -17 0 3 -11 18 -25 33 -14 15 -25 31 -25 36 0 5 15 -8 34 -28
33 -34 56 -46 56 -28 0 5 -11 19 -25 32 -14 13 -25 28 -24 34 0 6 3 5 6 -1 5
-14 33 -18 33 -6 0 4 -12 18 -27 30 -14 13 -24 26 -21 29 3 2 20 -9 37 -26 18
-18 36 -28 42 -24 9 5 8 10 -2 18 -8 6 -23 22 -34 36 l-20 25 20 -15 c11 -8
29 -25 40 -37 11 -13 24 -23 28 -23 16 0 5 25 -25 54 -18 18 -42 43 -53 56
l-20 25 29 -25 c16 -14 43 -40 61 -57 29 -30 55 -42 55 -27 0 3 -22 28 -49 55
-27 27 -46 49 -42 49 4 0 26 -18 49 -40 22 -22 43 -40 46 -40 18 0 -1 29 -59
87 -36 36 -65 68 -65 71 0 6 58 -47 105 -95 12 -13 25 -23 29 -23 14 0 5 23
-16 41 -20 16 -20 18 -5 19 9 0 17 5 17 11 0 14 -25 39 -39 39 -14 0 -14 -13
1 -28 20 -20 3 -14 -22 8 -18 16 -20 20 -7 20 10 0 17 7 17 15 0 13 4 12 22
-5 27 -25 38 -25 39 -2 0 10 3 12 6 5 5 -15 33 -18 33 -4 0 5 -11 18 -25 29
-14 11 -25 25 -25 30 0 6 21 -9 47 -33 45 -43 63 -54 63 -37 0 4 -23 29 -50
56 -28 27 -50 53 -50 57 0 5 59 -50 130 -122 72 -71 130 -133 130 -136 0 -4
-5 -2 -12 5 -7 7 -16 12 -20 12 -17 0 -6 -21 32 -60 52 -53 52 -66 0 -15 -22
21 -43 35 -47 31 -5 -4 4 -18 20 -31 15 -13 27 -27 27 -30 0 -3 11 -17 25 -31
27 -27 34 -44 10 -24 -23 19 -29 5 -10 -24 11 -16 13 -26 6 -26 -19 0 -12 -16
20 -48 19 -18 26 -32 20 -37 -16 -9 -14 -18 9 -43 17 -18 18 -22 5 -22 -16 0
-20 -12 -8 -23 3 -4 13 -1 22 6 14 10 14 10 3 -5 -11 -13 -11 -18 0 -25 7 -4
19 -16 27 -26 12 -15 12 -17 -3 -11 -31 12 -16 -18 34 -69 28 -28 50 -55 50
-59 0 -5 -11 3 -24 17 -14 15 -30 24 -36 20 -7 -4 8 -25 37 -54 26 -26 55 -56
63 -67 14 -18 13 -18 -10 1 -14 11 -30 26 -36 34 -8 10 -13 11 -18 3 -4 -7 12
-31 37 -57 49 -49 57 -53 57 -28 0 13 3 14 11 6 9 -9 17 -9 31 0 16 10 21 9
29 -5 13 -23 29 -23 29 -1 0 13 3 14 11 6 9 -9 17 -9 31 0 16 10 21 9 29 -5 8
-15 12 -15 37 -2 34 17 51 18 58 1 4 -11 14 -10 54 2 27 9 50 22 50 29 0 10 3
10 15 -2 19 -19 19 -27 0 -20 -10 4 -15 0 -15 -11 0 -10 5 -14 13 -11 6 3 20
9 30 12 23 9 21 19 -8 42 -14 11 -25 25 -25 30 0 6 22 -12 49 -39 32 -33 52
-46 56 -38 4 6 4 14 -1 18 -5 4 -27 27 -49 51 -42 47 -14 28 40 -27 31 -32 55
-42 55 -24 0 5 -12 19 -26 30 -15 12 -23 21 -18 21 5 0 28 -18 51 -40 27 -27
44 -37 48 -29 4 6 1 15 -6 20 -11 7 -10 9 4 9 9 0 17 -4 17 -10 0 -5 7 -10 15
-10 8 0 15 4 15 9 0 5 -7 11 -15 15 -8 3 -15 11 -15 18 0 7 17 -5 38 -25 21
-21 41 -34 45 -31 12 12 8 24 -9 24 -8 0 -13 4 -9 9 3 6 -3 14 -12 20 -10 6
-13 11 -7 11 6 0 21 -11 34 -25 13 -14 27 -25 32 -25 15 0 8 23 -14 41 -11 11
-17 19 -11 19 5 0 26 -18 46 -40 38 -43 35 -42 86 -13 2 2 -2 9 -9 18 -23 28
-1 15 29 -17 25 -27 32 -30 45 -19 9 8 16 10 16 6 0 -4 7 -2 15 5 11 10 18 10
29 1 15 -13 52 -11 75 3 17 11 34 -14 20 -30 -11 -13 9 -24 43 -24 42 0 131
-33 160 -59 37 -33 31 -51 -29 -97 -52 -39 -242 -140 -333 -175 -41 -16 -84
-34 -95 -39 -38 -19 -411 -148 -925 -320 -680 -227 -964 -336 -1234 -472 -279
-140 -428 -300 -413 -443 23 -220 338 -398 871 -490 161 -28 439 -60 601 -70
61 -3 139 -9 175 -12 36 -3 283 -5 550 -5 430 1 579 5 1025 27 223 12 909 63
1070 80 22 2 77 7 123 11 l82 7 0 84 0 85 -27 -6 c-16 -3 -82 -10 -148 -16
-66 -6 -163 -14 -215 -20 -347 -35 -1040 -76 -1558 -92 -888 -26 -1650 42
-2039 181 -143 51 -223 93 -289 154 -85 77 -83 128 8 213 193 181 534 324
1673 701 920 304 1205 438 1294 608 27 52 27 95 -3 153 -29 57 -56 84 -56 57
0 -13 -3 -15 -13 -6 -8 6 -17 8 -20 4 -4 -3 -7 -1 -7 6 0 6 8 11 18 9 16 -3
17 28 18 525 1 301 -3 530 -8 533 -5 3 -5 11 1 18 11 13 10 215 -2 233 -5 8
-60 11 -186 11 -98 0 -185 3 -192 7 -9 6 -11 3 -6 -9 5 -13 3 -15 -12 -7 -18
10 -28 11 -96 10 -22 0 -47 0 -55 0 -8 1 -28 0 -45 0 -16 0 -38 0 -47 0 -84 4
-138 -1 -132 -11 4 -6 -1 -6 -12 0 -36 19 -162 17 -176 -2 -4 -6 -12 -5 -21 3
-9 7 -26 9 -41 5 -16 -4 -32 -1 -41 6 -9 8 -15 8 -15 2 0 -6 6 -12 13 -15 6
-2 9 -7 6 -11 -4 -4 -16 2 -27 14 -14 15 -22 18 -27 10 -4 -7 -1 -16 6 -21 9
-6 10 -9 2 -9 -6 0 -14 4 -17 9 -3 5 -15 11 -26 14 -21 5 -20 -2 9 -38 11 -14
7 -12 -14 5 -16 14 -34 31 -41 39 -8 11 -13 11 -18 2 -5 -7 7 -26 29 -46 20
-19 32 -35 27 -35 -4 0 -19 11 -32 25 -13 14 -27 25 -32 25 -13 0 -9 -28 5
-33 6 -3 7 -6 2 -6 -6 -1 -29 17 -52 39 -24 23 -44 36 -48 30 -3 -5 13 -28 36
-50 23 -22 39 -43 36 -47 -4 -3 -7 -1 -7 5 0 7 -4 12 -10 12 -5 0 -25 17 -44
37 -19 21 -38 34 -43 29 -4 -5 -2 -11 5 -13 6 -3 12 -11 12 -18 0 -7 6 -16 13
-18 7 -3 5 -6 -5 -6 -24 -1 -23 -10 5 -40 l22 -26 -25 20 c-14 11 -45 39 -69
63 -42 40 -61 51 -61 35 0 -5 36 -44 80 -88 44 -43 78 -81 76 -82 -2 -2 -32
23 -66 57 -35 33 -67 60 -72 60 -15 0 -8 -18 15 -37 26 -21 52 -53 43 -53 -3
0 -19 14 -35 31 -20 20 -32 26 -36 18 -4 -6 -4 -14 1 -18 5 -4 27 -27 49 -51
42 -47 14 -28 -41 28 -31 30 -54 41 -54 25 0 -5 23 -30 50 -57 28 -27 50 -53
50 -57 0 -4 -27 20 -60 52 -33 33 -65 57 -70 54 -7 -4 5 -22 29 -46 23 -21 41
-43 41 -48 0 -5 -22 12 -49 40 -26 27 -51 49 -55 49 -16 0 -2 -25 34 -61 22
-22 40 -43 40 -46 0 -7 -55 43 -105 95 -25 24 -35 28 -35 11 0 -6 17 -26 37
-45 20 -19 35 -36 32 -38 -3 -3 -19 8 -37 25 -18 17 -37 27 -43 23 -7 -4 -1
-15 17 -30 15 -13 25 -27 21 -30 -3 -3 -18 8 -33 25 -15 17 -31 31 -36 31 -15
0 -8 -18 17 -41 13 -13 25 -28 25 -32 0 -4 -21 11 -46 35 -64 59 -84 80 -84
90 0 4 -7 8 -15 8 -24 0 -18 -16 20 -49 19 -17 35 -33 35 -37 0 -3 12 -15 26
-26 19 -15 24 -27 20 -43 -4 -16 1 -30 19 -47 14 -12 25 -27 25 -31 0 -4 -43
35 -95 88 -52 52 -95 98 -95 101 0 9 32 -17 53 -43 19 -23 37 -30 37 -15 0 5
-27 37 -61 71 -33 35 -59 65 -56 67 2 2 12 -5 22 -16 22 -24 35 -26 35 -5 0
13 4 12 22 -5 23 -21 38 -26 38 -12 0 4 -5 13 -10 18 -7 7 -6 11 5 11 8 0 15
-6 15 -14 0 -7 7 -13 15 -13 25 0 17 14 -35 63 -27 26 -50 52 -50 57 0 13 -17
13 -25 0 -4 -6 -16 -8 -27 -4 -15 4 -18 3 -13 -6 6 -9 -1 -10 -24 -5 -17 4
-31 3 -31 -2 0 -4 -152 -7 -339 -6 -327 3 -339 2 -356 -17 -41 -45 -121 -45
-170 -1 -18 17 -75 34 -115 36 -8 0 -20 3 -25 7 -12 8 -66 5 -80 -4 -6 -4 -17
-3 -25 3 -23 14 -33 11 -26 -8 6 -14 4 -14 -14 2 -16 15 -23 16 -29 7 -4 -7
-12 -12 -17 -11 -5 1 -17 -1 -28 -6 -13 -6 -21 -3 -28 9 -7 13 -13 14 -23 6
-10 -8 -19 -8 -36 0 -19 11 -21 10 -16 -4 8 -21 -9 -21 -22 1 -7 14 -12 15
-24 4 -12 -10 -21 -10 -38 -1 -19 11 -21 10 -16 -4 8 -20 0 -20 -20 0 -11 10
-19 12 -26 5 -7 -7 -16 -7 -29 0 -23 13 -39 2 -18 -11 9 -6 10 -10 3 -10 -6 0
-15 5 -19 11 -3 6 -15 8 -27 5 -11 -3 -28 -1 -38 5 -11 6 -20 5 -24 -1 -3 -5
-1 -10 6 -10 7 0 9 -3 6 -6 -4 -4 -12 -2 -19 4 -7 5 -24 10 -38 9 -14 0 -32 2
-40 4 -9 2 -14 -2 -12 -10 2 -11 0 -12 -10 -3 -15 12 -56 11 -76 -2 -7 -4 -18
-4 -25 2 -18 14 -89 13 -80 -1 5 -9 3 -9 -8 -1 -19 15 -101 15 -92 0 5 -8 2
-8 -8 0 -8 7 -34 12 -59 12 -31 1 -40 -2 -30 -8 9 -6 10 -10 3 -10 -6 0 -15 4
-18 10 -6 10 -53 8 -71 -3 -6 -3 -20 0 -30 7 -13 10 -23 11 -31 4 -7 -6 -22
-8 -33 -5 -11 3 -18 1 -14 -4 9 -15 -13 -10 -26 6 -9 10 -17 12 -23 6 -6 -6
-19 -6 -34 0 -21 8 -24 7 -19 -6z m1181 -160 c69 -68 125 -127 125 -132 0 -7
-46 35 -97 90 -15 15 -30 27 -35 27 -17 0 -7 -19 27 -51 19 -19 35 -37 35 -42
0 -4 -10 1 -22 13 -32 29 -56 22 -26 -8 8 -8 8 -12 1 -12 -5 0 -19 11 -29 25
-17 23 -44 34 -44 18 0 -4 14 -22 32 -40 18 -18 27 -33 20 -33 -7 0 -12 5 -12
10 0 14 -27 13 -32 -2 -2 -6 -30 15 -61 46 -32 32 -62 54 -68 51 -7 -5 4 -21
28 -45 21 -20 49 -50 63 -66 l25 -29 -25 20 c-13 11 -39 35 -57 53 -17 19 -37
31 -43 27 -7 -4 8 -25 37 -54 26 -27 57 -59 68 -72 20 -24 20 -24 -9 1 -43 38
-249 243 -266 265 -14 19 -14 19 10 0 14 -11 30 -26 36 -34 9 -11 13 -11 19
-1 4 7 4 15 -1 19 -5 3 -16 15 -24 26 l-15 20 25 -20 c14 -11 34 -31 46 -44
15 -16 24 -20 29 -12 4 7 -5 22 -21 36 -16 13 -26 27 -23 30 3 3 14 -4 24 -15
22 -24 35 -26 35 -5 0 8 -5 15 -12 15 -6 0 -8 3 -5 7 4 3 15 -1 25 -10 21 -19
38 -11 21 10 -23 27 12 13 36 -14 24 -28 48 -26 25 2 -7 8 -8 15 -3 15 6 0 19
-11 29 -25 17 -23 44 -34 44 -18 0 4 -17 24 -37 45 -20 21 -34 38 -30 38 3 0
63 -56 132 -125z m-111 -572 c14 -19 16 -27 6 -33 -7 -4 -9 -13 -5 -19 5 -9
10 -9 21 0 12 10 20 7 42 -15 23 -23 25 -28 12 -36 -13 -9 -13 -12 3 -24 9 -7
17 -19 17 -25 0 -6 -10 -3 -22 9 -12 11 -25 20 -30 20 -14 0 -8 -15 12 -30 11
-8 20 -19 20 -24 0 -6 -15 4 -33 22 -24 24 -36 29 -44 21 -13 -13 -42 6 -87
58 -21 25 -26 36 -17 47 6 7 7 17 3 22 -16 19 34 -22 54 -45 12 -13 24 -19 27
-14 3 5 -10 26 -29 46 -20 20 -30 37 -24 37 6 0 21 -11 34 -25 13 -14 26 -25
30 -25 14 0 5 22 -19 46 -14 14 -25 27 -25 30 0 9 36 -19 54 -43z"/>
<path d="M1700 5080 c0 -5 5 -10 10 -10 6 0 10 -6 10 -12 0 -8 -15 -14 -35
-15 -26 -2 -35 1 -35 12 0 8 -7 15 -16 15 -9 0 -14 -5 -12 -12 3 -7 -48 -50
-111 -96 -219 -158 -311 -288 -311 -436 0 -77 15 -117 69 -177 50 -57 115 -86
235 -106 268 -44 746 41 1721 307 165 45 332 90 370 100 39 10 126 34 195 53
316 89 916 233 1080 260 14 2 -139 5 -338 6 l-364 1 -186 -49 c-103 -28 -245
-66 -317 -86 -180 -50 -179 -50 -665 -180 -722 -192 -1060 -259 -1325 -259
-162 -1 -236 14 -288 55 -23 17 -27 28 -27 70 0 84 44 147 185 266 62 52 215
154 250 167 18 7 18 8 3 17 -9 5 -19 23 -23 39 -4 17 -13 30 -21 30 -8 0 -14
5 -14 11 0 11 -24 39 -34 39 -3 0 -6 -4 -6 -10z"/>
</g>
</svg>
