<?xml version="1.0" standalone="no"?>
<!DOCTYPE svg PUBLIC "-//W3C//DTD SVG 20010904//EN"
 "http://www.w3.org/TR/2001/REC-SVG-20010904/DTD/svg10.dtd">
<svg version="1.0" xmlns="http://www.w3.org/2000/svg"
 width="720.000000pt" height="1280.000000pt" viewBox="0 0 720.000000 1280.000000"
 preserveAspectRatio="xMidYMid meet">
<metadata>
Created by potrace 1.16, written by Peter Selinger 2001-2019
</metadata>
<g transform="translate(0.000000,1280.000000) scale(0.100000,-0.100000)"
fill="#000000" stroke="none">
<path d="M0 6400 l0 -6400 3600 0 3600 0 0 6400 0 6400 -3600 0 -3600 0 0
-6400z m6796 3680 c79 -37 138 -117 149 -206 9 -63 -8 -125 -50 -190 -28 -44
-31 -52 -17 -60 13 -9 13 -13 -2 -37 -23 -35 -90 -46 -137 -23 -33 16 -80 14
-147 -6 -47 -14 -99 -2 -118 28 -13 20 -14 27 -4 39 11 13 9 19 -7 38 -58 63
-80 189 -48 273 55 145 232 211 381 144z m-653 4 c125 -42 198 -200 153 -327
-41 -113 -135 -177 -261 -177 -137 0 -237 76 -264 200 -15 70 -3 142 33 203
25 41 43 58 94 84 54 28 75 33 131 33 37 0 88 -7 114 -16z m-5834 -111 c15
-56 71 -300 71 -307 0 -3 -16 -6 -35 -6 -30 0 -35 3 -35 24 0 30 -4 33 -54 37
-37 4 -40 2 -48 -29 -8 -28 -13 -32 -42 -32 l-34 0 14 58 c7 31 26 110 41 175
l27 117 43 0 c40 0 43 -2 52 -37z m401 -55 l1 -93 30 38 c23 27 39 37 60 37
16 0 29 -3 29 -6 0 -4 -16 -28 -35 -53 -30 -41 -33 -50 -21 -67 7 -10 25 -40
40 -66 l27 -48 -35 0 c-30 0 -38 5 -57 40 -26 45 -39 43 -39 -6 0 -31 -2 -34
-30 -34 l-30 0 0 175 0 175 30 0 30 0 0 -92z m1740 -83 l0 -176 -42 1 c-24 1
-55 -1 -69 -5 -19 -5 -33 -1 -55 18 -28 24 -29 29 -28 107 1 68 4 85 21 102
22 21 54 27 91 14 21 -7 22 -5 22 53 l0 61 30 0 30 0 0 -175z m452 83 l3 -92
25 37 c20 30 31 37 58 37 30 0 42 -12 24 -24 -5 -3 -21 -23 -36 -44 l-27 -40
40 -66 41 -66 -34 0 c-28 0 -38 7 -62 43 l-29 42 -3 -42 c-3 -42 -4 -43 -38
-43 l-34 0 0 175 0 175 35 0 34 0 3 -92z m728 27 l0 -66 30 16 c33 17 60 13
85 -11 11 -12 15 -40 15 -120 l0 -104 -30 0 -30 0 0 90 c0 75 -3 92 -16 97
-37 14 -49 -10 -52 -101 l-3 -86 -29 0 -30 0 0 175 0 175 30 0 30 0 0 -65z
m530 4 c0 -58 1 -60 23 -53 76 26 107 -8 107 -118 0 -71 -2 -81 -26 -105 -20
-20 -31 -24 -52 -18 -15 4 -46 6 -69 5 l-43 -1 0 176 0 175 30 0 30 0 0 -61z
m-1482 -11 c3 -35 6 -38 33 -38 24 0 29 -4 29 -25 0 -21 -5 -25 -30 -25 l-31
0 3 -67 c3 -66 4 -68 31 -71 21 -3 27 -8 23 -19 -3 -8 -6 -19 -6 -24 0 -16
-73 -10 -92 8 -14 13 -18 31 -18 90 0 66 -2 75 -20 80 -13 3 -20 14 -20 29 0
17 6 24 20 24 16 0 20 7 20 33 0 40 7 49 35 45 15 -2 21 -12 23 -40z m-2094
-59 c24 -23 34 -121 17 -172 -15 -44 -59 -66 -97 -48 -14 6 -27 11 -29 11 -3
0 -5 -30 -5 -66 l0 -65 -27 3 -28 3 -3 179 -2 179 37 -5 c21 -3 47 -2 58 3 26
10 55 2 79 -22z m405 20 c44 -16 51 -35 51 -143 l0 -96 -47 -1 c-27 0 -60 -1
-75 -1 -40 -1 -58 19 -58 63 0 43 20 63 83 80 28 7 37 15 35 27 -5 26 -48 28
-55 3 -4 -14 -13 -21 -29 -21 -65 0 -15 96 52 99 6 1 25 -4 43 -10z m290 0
c38 -14 51 -35 51 -88 l0 -41 -61 0 c-60 0 -60 0 -57 -27 3 -32 44 -46 54 -19
4 10 18 16 35 16 35 0 39 -25 10 -61 -27 -34 -99 -34 -135 0 -23 22 -26 32
-26 96 0 79 20 120 63 128 12 2 25 5 28 6 3 0 20 -4 38 -10z m198 0 c32 -12
43 -26 43 -56 0 -31 -45 -33 -53 -3 -7 26 -47 27 -47 1 0 -11 12 -23 30 -31
78 -32 101 -82 61 -131 -15 -19 -29 -24 -66 -24 -37 0 -51 5 -66 24 -29 36
-25 61 11 61 24 0 30 -4 30 -21 0 -15 5 -20 23 -17 37 5 26 36 -23 60 -88 45
-75 133 22 147 4 1 19 -4 35 -10z m197 -3 c31 -13 53 -55 38 -71 -14 -14 -50
-3 -55 16 -4 13 -12 20 -24 17 -29 -5 -21 -32 15 -50 73 -36 92 -81 53 -129
-15 -19 -29 -24 -66 -24 -37 0 -51 5 -66 24 -29 36 -25 61 10 61 21 0 30 -6
34 -21 7 -25 40 -22 45 3 2 12 -11 24 -43 39 -74 35 -86 106 -22 134 40 18 41
18 81 1z m205 3 c17 -6 36 -19 41 -29 6 -10 10 -62 10 -115 l0 -97 -32 3 c-18
1 -48 -1 -66 -5 -50 -12 -82 13 -82 64 0 44 20 64 83 81 28 7 37 15 35 27 -5
25 -45 27 -58 3 -13 -24 -48 -28 -56 -6 -8 20 21 64 49 75 30 12 39 12 76 -1z
m318 -21 c17 -16 23 -33 23 -65 l0 -43 -61 0 c-60 0 -60 0 -57 -27 3 -32 44
-46 54 -19 8 20 64 22 64 2 0 -69 -102 -98 -158 -45 -19 17 -22 31 -22 98 0
68 3 80 23 98 12 11 29 23 37 26 25 10 73 -2 97 -25z m1001 -4 c18 -21 22 -36
22 -98 0 -65 -3 -75 -26 -97 -35 -33 -104 -34 -136 -2 -27 28 -37 127 -17 174
24 60 111 73 157 23z m240 8 c8 -10 12 -52 12 -119 l0 -103 -30 0 -30 0 0 90
c0 75 -3 92 -17 97 -32 12 -53 -32 -53 -113 l0 -74 -30 0 -30 0 0 120 0 120
29 0 c16 0 31 -5 33 -11 2 -6 14 -5 33 5 33 17 63 13 83 -12z m529 -4 c17 -16
23 -33 23 -65 l0 -43 -61 0 c-60 0 -60 0 -57 -27 3 -32 44 -46 54 -19 4 10 18
16 35 16 35 0 40 -29 9 -60 -27 -27 -63 -34 -105 -20 -46 15 -55 34 -55 123 0
64 3 76 23 94 12 11 29 23 37 26 25 10 73 -2 97 -25z m540 8 c6 -6 13 -57 16
-118 l5 -108 -34 0 -34 0 0 90 c0 72 -3 92 -15 96 -33 13 -45 -15 -45 -102 l0
-84 -35 0 -35 0 0 120 0 120 35 0 c19 0 35 -4 35 -9 0 -6 12 -3 28 4 28 15 58
12 79 -9z m218 -7 c17 -16 21 -35 23 -120 l4 -100 -44 1 c-23 1 -54 -1 -68 -5
-35 -9 -80 27 -80 64 0 39 19 60 70 75 33 10 46 19 48 35 4 28 -33 29 -50 1
-12 -19 -48 -27 -60 -14 -15 14 11 60 43 77 40 20 84 15 114 -14z m400 16 c37
-15 55 -46 55 -96 0 -29 0 -29 -59 -29 -65 0 -73 -5 -64 -38 6 -26 53 -32 53
-7 0 11 11 15 36 15 32 0 35 -2 29 -22 -4 -13 -18 -34 -33 -47 -21 -19 -33
-22 -65 -18 -59 8 -80 35 -85 107 -5 75 11 118 52 136 39 17 40 17 81 -1z
m198 1 c15 -8 27 -11 27 -5 0 5 14 9 30 9 l30 0 0 -149 c0 -134 -2 -151 -20
-174 -41 -52 -147 -44 -170 13 -7 16 -9 34 -5 39 10 18 44 12 57 -9 26 -41 78
-15 78 40 0 17 -3 19 -19 10 -36 -19 -78 -12 -100 16 -16 21 -21 41 -21 90 0
72 13 107 44 122 29 14 37 14 69 -2z m285 -22 c19 -22 22 -36 22 -120 l0 -95
-42 1 c-24 1 -55 -1 -70 -5 -21 -6 -32 -2 -52 18 -48 48 -29 99 44 121 33 10
46 19 48 35 4 28 -33 29 -50 1 -12 -19 -48 -27 -60 -14 -15 14 11 60 43 77 43
22 86 16 117 -19z m-3048 -94 l0 -120 -35 0 -35 0 0 113 c0 63 3 117 7 120 3
4 19 7 35 7 l28 0 0 -120z m2271 103 c0 -10 8 -43 18 -73 l17 -55 19 73 c18
70 20 72 51 72 l32 0 -24 -82 c-79 -281 -76 -273 -113 -276 -28 -3 -33 -1 -27
14 28 74 28 99 -3 207 -18 59 -34 113 -37 122 -5 12 2 15 30 15 27 0 36 -4 37
-17z m-2151 -730 c6 -53 14 -103 17 -111 3 -7 68 -54 144 -104 77 -50 139 -93
139 -98 0 -4 -33 -8 -72 -9 -45 -1 -82 -8 -96 -17 -23 -15 -29 -12 -145 63
-136 87 -171 96 -226 55 -17 -12 -33 -22 -36 -22 -13 0 -2 43 38 147 l43 112
83 -55 c46 -30 85 -53 88 -51 2 2 -3 36 -12 76 -20 95 -19 111 4 111 16 0 20
-13 31 -97z m171 60 c0 -56 30 -120 79 -170 32 -33 45 -41 51 -31 7 10 9 9 9
-3 0 -17 105 -92 128 -92 7 0 11 -5 9 -12 -6 -15 19 -48 31 -41 6 3 13 -1 16
-10 3 -8 2 -12 -4 -9 -13 8 -13 -8 0 -21 6 -6 13 -34 17 -62 4 -41 2 -58 -15
-86 -17 -29 -18 -35 -6 -40 11 -4 21 7 34 36 10 23 17 45 14 49 -2 4 -6 33 -9
64 -3 42 -11 66 -33 95 -37 50 -78 83 -93 74 -7 -4 -9 -3 -6 3 9 14 -40 46
-55 37 -6 -4 -8 -3 -5 3 4 6 -13 26 -38 44 -71 53 -123 186 -80 203 11 4 15
-2 15 -25 0 -64 47 -126 153 -201 110 -78 150 -126 173 -206 29 -100 -2 -193
-81 -242 -97 -60 -229 -20 -276 85 -20 43 -25 90 -9 80 6 -3 10 -17 10 -31 0
-21 29 -56 94 -111 22 -19 141 -17 160 3 20 19 20 19 -4 21 -11 1 -18 -2 -15
-7 3 -6 -1 -7 -9 -4 -9 3 -16 2 -16 -3 0 -15 -95 9 -118 30 -11 10 -22 30 -25
45 -3 15 -9 35 -12 45 -5 11 -2 17 8 17 9 0 18 -13 22 -30 4 -16 18 -39 32
-50 63 -49 153 -2 153 80 0 77 -44 136 -154 205 -106 67 -157 133 -176 227
-12 60 -8 78 16 78 9 0 14 -12 15 -37z m524 10 c-17 -68 -26 -135 -29 -223 -3
-60 -2 -78 3 -50 6 37 8 41 13 20 4 -19 6 -16 7 15 4 118 44 265 72 265 15 0
15 -6 -2 -67 -24 -86 -24 -113 -1 -113 37 0 287 22 291 25 2 2 -6 35 -18 74
-11 38 -21 72 -21 75 0 14 31 4 36 -11 3 -10 10 -27 14 -38 5 -11 11 -27 14
-35 3 -8 4 -3 2 12 -2 16 1 25 7 21 5 -3 7 -26 4 -52 -3 -25 -3 -38 0 -28 2 9
8 17 13 17 7 0 -1 54 -16 103 -4 14 -1 18 11 15 38 -7 75 -190 98 -488 13
-165 10 -227 -7 -137 -5 26 -15 47 -22 47 -7 0 -14 6 -17 13 -9 26 -21 -6 -19
-53 2 -51 -11 -68 -22 -27 -3 12 -6 47 -6 77 0 63 -26 286 -35 300 -5 9 -78 7
-252 -6 l-82 -6 -6 -40 c-4 -22 -4 -112 0 -199 5 -115 4 -159 -4 -159 -6 0
-11 16 -11 35 0 24 -6 39 -20 47 -15 10 -20 25 -21 63 -1 36 -4 23 -11 -45 -5
-52 -12 -97 -14 -99 -15 -15 -19 37 -17 242 1 194 4 248 22 331 12 54 21 100
21 102 0 2 7 4 16 4 13 0 15 -6 9 -27z m700 -5 c-16 -75 -23 -113 -20 -118 3
-5 307 10 313 15 2 2 -3 28 -12 58 -9 30 -16 60 -16 66 0 15 30 14 34 -1 2 -7
9 -32 15 -55 15 -54 35 -57 29 -5 -3 20 -7 43 -9 51 -6 22 19 24 30 3 10 -20
31 -113 50 -232 10 -61 31 -311 31 -373 0 -16 -4 -26 -10 -22 -5 3 -10 24 -10
46 0 32 -4 41 -22 48 -33 13 -38 6 -38 -57 0 -113 -18 -34 -29 128 -6 91 -14
183 -18 204 l-6 39 -165 -7 c-91 -3 -169 -9 -175 -13 -6 -4 -8 -76 -4 -204 5
-190 -2 -249 -19 -156 -4 23 -8 157 -10 297 -1 140 -3 260 -4 265 -8 36 -22
-107 -25 -250 -4 -210 -14 -355 -25 -355 -10 0 -23 351 -15 431 7 82 24 178
36 207 7 18 16 22 55 22 l47 0 -8 -32z m679 -15 c3 -27 15 -129 26 -228 12
-98 23 -181 25 -183 9 -9 144 -3 184 7 93 26 141 78 141 153 0 40 -8 58 -52
121 -11 15 -9 21 12 37 45 35 52 27 75 -87 8 -40 -11 -135 -37 -186 -31 -62
-84 -112 -155 -148 -65 -32 -73 -34 -173 -33 -85 0 -114 4 -152 22 l-48 21 0
82 c0 64 3 79 13 71 18 -15 147 -55 154 -48 9 8 -35 363 -47 386 -15 29 -80
45 -129 33 -42 -11 -51 -9 -51 14 0 10 24 13 104 13 l103 0 7 -47z m-2701
-145 c-11 -33 -8 -75 7 -104 14 -25 712 -484 758 -499 15 -4 41 -1 69 10 73
28 72 25 -50 -162 -44 -67 -84 -120 -88 -117 -5 3 -6 24 -3 48 10 71 -8 92
-173 198 -81 52 -246 159 -367 237 -240 155 -255 160 -319 116 -20 -13 -39
-20 -42 -15 -8 12 187 310 203 310 10 0 11 -7 5 -22z m1607 -259 c0 -106 -15
-185 -52 -266 -12 -26 -22 -66 -22 -88 -1 -58 -32 -60 -80 -4 -41 49 -42 53
-18 80 18 19 19 19 45 -17 25 -36 26 -37 31 -13 18 78 37 237 39 317 l1 92 28
0 28 0 0 -101z m575 -60 l94 -61 7 -55 c4 -35 15 -64 29 -81 21 -24 30 -27 92
-27 37 0 77 3 88 6 14 4 42 -8 95 -44 98 -65 148 -71 212 -25 37 27 28 -5 -24
-84 -30 -46 -74 -113 -97 -150 -48 -76 -73 -89 -64 -34 3 19 3 50 -1 69 -7 36
-24 49 -432 312 l-92 59 -6 51 c-7 62 -8 125 -1 125 3 0 48 -27 100 -61z
m-149 -246 c8 -10 106 -151 219 -314 195 -282 221 -329 181 -329 -11 0 -195
33 -690 125 -137 25 -250 44 -252 42 -2 -2 36 -29 84 -60 48 -31 196 -127 327
-212 230 -150 242 -156 283 -152 26 3 53 13 67 27 45 42 37 -1 -15 -83 -29
-45 -58 -90 -64 -99 -6 -10 -17 -18 -24 -18 -11 0 -10 22 3 67 2 7 -1 27 -7
44 -11 33 -17 37 -493 345 -82 53 -173 112 -202 132 -64 43 -117 48 -163 14
-50 -37 -53 -16 -7 54 41 63 43 65 77 59 73 -13 258 -17 279 -6 16 9 68 2 238
-29 120 -23 267 -50 326 -61 60 -11 112 -19 117 -17 5 2 -23 50 -63 108 -204
295 -247 360 -247 370 0 15 11 12 26 -7z m-1026 -2539 c49 -9 90 -50 90 -89 0
-60 -81 -130 -165 -142 -62 -8 -95 21 -95 84 0 24 5 43 10 43 6 0 10 -18 10
-39 0 -23 7 -46 16 -55 31 -32 122 -12 175 38 24 23 29 35 27 64 -2 28 -10 39
-38 54 -30 17 -48 19 -125 14 -102 -6 -159 -25 -265 -88 -80 -47 -188 -155
-220 -219 -50 -97 -31 -185 50 -226 95 -49 228 -17 396 95 66 44 154 134 137
139 -7 3 -76 0 -155 -6 -155 -11 -188 -3 -122 26 32 15 75 18 241 21 117 2
209 -1 219 -6 13 -7 3 -11 -43 -17 -68 -7 -84 -20 -144 -111 -40 -60 -131
-204 -161 -254 -13 -21 -23 -30 -26 -22 -2 8 19 60 47 116 28 56 51 105 51
109 0 3 -16 -5 -36 -18 -105 -71 -264 -120 -358 -110 -71 8 -104 23 -139 65
-120 142 90 422 385 514 107 33 152 37 238 20z m1242 -157 c-10 -18 -53 -78
-95 -135 -77 -103 -95 -137 -58 -111 115 84 177 120 199 117 14 -2 27 -8 29
-14 2 -6 -21 -45 -51 -86 -68 -92 -82 -126 -63 -145 20 -20 77 23 176 134 88
99 116 122 133 105 10 -10 -20 -56 -75 -117 -27 -29 -70 -122 -62 -134 14 -24
47 -8 101 47 31 31 74 80 95 109 39 52 96 103 116 103 32 0 12 -53 -37 -100
-42 -41 -86 -129 -77 -154 10 -24 43 -7 113 57 37 34 62 52 56 41 -14 -27 -99
-104 -135 -123 -21 -11 -32 -12 -52 -3 -21 10 -25 18 -25 53 l0 41 -51 -46
c-93 -84 -158 -71 -132 26 l10 39 -31 -26 c-67 -55 -110 -85 -121 -85 -6 0
-20 6 -30 14 -29 21 -22 76 19 151 20 36 32 65 28 65 -21 0 -150 -111 -195
-166 -46 -58 -77 -80 -77 -54 0 16 108 210 166 296 56 85 118 149 135 138 6
-3 3 -18 -9 -37z m-516 -122 c4 -8 12 -15 19 -15 7 0 17 -6 23 -13 8 -9 -2
-33 -40 -91 -58 -89 -68 -139 -30 -144 17 -3 39 13 89 64 73 74 74 68 5 -13
-25 -29 -58 -57 -74 -62 -40 -14 -76 4 -86 43 l-8 30 -45 -41 c-60 -56 -89
-62 -124 -27 -23 23 -26 32 -20 63 7 37 34 79 79 121 16 15 26 36 26 53 0 26
2 28 28 22 17 -3 40 0 58 10 38 19 93 20 100 0z m-451 -35 c3 -5 -14 -31 -38
-57 -87 -95 -96 -107 -108 -135 -6 -16 -9 -32 -5 -35 19 -19 197 110 275 200
18 20 39 37 47 37 25 0 15 -38 -29 -107 -24 -37 -63 -104 -87 -148 -53 -97
-106 -155 -161 -180 -37 -17 -44 -17 -67 -4 -14 7 -27 20 -30 28 -3 10 4 9 27
-5 31 -18 32 -18 69 1 20 11 53 43 74 70 36 47 113 213 104 222 -2 3 -33 -18
-68 -45 -88 -69 -143 -96 -168 -82 -30 16 -25 58 15 125 55 90 130 148 150
115z m1625 -2859 c9 -18 150 -692 150 -720 0 -9 -49 -17 -50 -8 -1 1 -34 164
-74 362 -71 346 -75 385 -45 385 5 0 13 -9 19 -19z"/>
<path d="M6613 9773 c-20 -4 -23 -11 -23 -51 l0 -47 85 0 85 0 0 46 c0 40 -3
48 -22 53 -25 6 -90 6 -125 -1z"/>
<path d="M3701 5639 c-65 -39 -159 -142 -166 -182 -4 -19 -4 -40 0 -46 20 -34
93 17 162 113 21 28 40 53 43 56 14 13 50 64 50 71 0 17 -55 9 -89 -12z"/>
</g>
</svg>
