<?xml version="1.0" standalone="no"?>
<!DOCTYPE svg PUBLIC "-//W3C//DTD SVG 20010904//EN"
 "http://www.w3.org/TR/2001/REC-SVG-20010904/DTD/svg10.dtd">
<svg version="1.0" xmlns="http://www.w3.org/2000/svg"
 width="720.000000pt" height="1280.000000pt" viewBox="0 0 720.000000 1280.000000"
 preserveAspectRatio="xMidYMid meet">
<metadata>
Created by potrace 1.16, written by Peter Selinger 2001-2019
</metadata>
<g transform="translate(0.000000,1280.000000) scale(0.100000,-0.100000)"
fill="#000000" stroke="none">
<path d="M0 6400 l0 -6400 3600 0 3600 0 0 1025 0 1025 -3590 0 -3590 0 2
1406 3 1407 623 -1 c488 -2 622 1 624 11 2 23 5 32 16 60 7 16 12 33 12 39 0
6 14 71 30 145 17 73 30 147 30 163 l0 30 -70 0 c-70 0 -71 0 -76 30 -4 17
-10 30 -14 30 -6 0 -30 44 -30 57 0 3 52 4 115 1 l115 -4 4 30 c3 17 7 50 10
73 l6 42 -47 7 c-27 4 -73 2 -103 -4 -76 -15 -119 -6 -126 25 -4 16 -2 28 7
34 10 6 11 9 2 9 -24 0 -13 28 12 34 31 8 23 26 -10 26 -18 0 -26 -7 -31 -25
-6 -25 -28 -32 -53 -16 -9 6 -10 11 -2 15 21 14 5 300 -19 331 -4 6 -10 48
-14 95 -9 118 -10 120 -33 165 -31 59 -59 82 -83 67 -26 -16 -30 -15 -30 3 0
36 -66 20 -95 -22 -8 -11 -50 -41 -94 -66 -115 -67 -105 -74 27 -20 53 22 67
24 86 14 17 -9 22 -19 18 -37 -2 -13 -11 -24 -18 -24 -8 0 -14 -7 -14 -15 0
-34 -30 -75 -55 -75 -26 0 -41 15 -25 25 19 12 10 22 -20 22 -39 0 -39 -19 2
-97 32 -61 32 -61 19 -133 -7 -40 -15 -97 -18 -127 -3 -30 -8 -57 -12 -60 -4
-3 -16 -27 -27 -54 -23 -57 -54 -72 -54 -26 0 15 6 43 14 61 22 53 49 226 43
271 -8 62 -44 93 -112 96 -32 1 -55 -2 -55 -8 0 -5 -16 -10 -35 -10 -38 0 -75
-28 -75 -57 0 -15 -4 -14 -19 6 -15 19 -27 23 -64 23 -31 -1 -47 3 -51 13 -3
9 -18 15 -36 15 -25 0 -35 -7 -52 -36 l-21 -36 -15 28 c-19 37 -29 14 -11 -27
15 -38 55 -56 78 -36 9 7 24 12 34 9 15 -3 18 -11 15 -39 -4 -34 -3 -35 24
-29 16 3 27 2 24 -3 -12 -18 31 -40 83 -42 43 -2 54 -6 61 -23 4 -12 5 -27 3
-34 -7 -18 -103 -63 -122 -57 -21 6 -46 -10 -37 -24 10 -15 1 -14 -16 2 -40
38 -66 46 -131 40 -43 -4 -67 -2 -71 6 -4 6 -16 11 -27 11 -19 0 -19 23 -17
1743 l3 1742 3588 3 3587 2 0 1775 0 1775 -3600 0 -3600 0 0 -6400z m6796
3680 c151 -69 198 -267 95 -405 -25 -34 -27 -41 -14 -50 14 -10 14 -14 -1 -37
-26 -40 -88 -50 -140 -23 -23 12 -38 13 -85 4 -31 -7 -78 -12 -105 -13 -42 -1
-51 3 -72 29 -22 28 -23 31 -7 42 15 12 15 15 -5 35 -85 91 -82 269 6 361 77
81 220 106 328 57z m-653 4 c52 -18 116 -76 142 -130 57 -121 8 -276 -107
-339 -77 -42 -185 -47 -259 -13 -106 49 -153 125 -152 244 1 110 42 177 135
223 50 25 73 31 128 31 36 0 87 -7 113 -16z m-5802 -244 c21 -91 39 -168 39
-172 0 -5 -15 -8 -33 -8 -28 0 -34 4 -42 32 -9 29 -14 32 -50 31 -36 0 -40 -3
-47 -31 -8 -28 -13 -32 -42 -32 l-34 0 14 58 c7 31 26 110 41 175 l28 118 44
-3 44 -3 38 -165z m371 78 l3 -93 25 37 c20 31 31 38 58 38 17 0 32 -3 32 -6
0 -4 -16 -28 -35 -53 -30 -42 -33 -50 -21 -67 7 -10 25 -40 40 -66 l28 -48
-35 0 c-31 0 -39 5 -58 40 -26 45 -39 43 -39 -6 0 -31 -2 -34 -30 -34 l-30 0
0 175 0 175 30 0 29 0 3 -92z m1738 -83 l0 -176 -42 1 c-24 1 -55 -1 -69 -5
-19 -5 -33 -1 -55 18 -28 24 -29 29 -28 107 0 68 4 84 21 101 22 22 54 28 91
15 21 -7 22 -5 22 53 l0 61 30 0 30 0 0 -175z m452 83 l3 -92 25 37 c20 30 31
37 58 37 30 0 42 -12 24 -24 -5 -3 -21 -23 -36 -44 l-27 -40 40 -66 41 -66
-34 0 c-28 0 -38 7 -62 43 l-29 42 -3 -42 c-3 -42 -4 -43 -38 -43 l-34 0 0
175 0 175 35 0 34 0 3 -92z m728 27 l0 -66 30 16 c33 17 60 13 85 -11 11 -12
15 -40 15 -120 l0 -104 -30 0 -30 0 0 90 c0 75 -3 92 -16 97 -37 14 -49 -10
-52 -101 l-3 -86 -29 0 -30 0 0 175 0 175 30 0 30 0 0 -65z m530 4 c0 -58 1
-60 23 -53 76 26 107 -8 107 -118 0 -71 -2 -81 -26 -105 -21 -21 -31 -24 -57
-18 -18 4 -49 6 -69 6 l-38 -2 0 176 0 175 30 0 30 0 0 -61z m-1480 -9 c0 -38
2 -40 30 -40 25 0 30 -4 30 -25 0 -21 -5 -25 -30 -25 l-31 0 3 -67 c3 -66 4
-68 31 -71 28 -3 31 -9 21 -36 -8 -22 -72 -21 -96 1 -14 13 -18 31 -18 90 0
66 -2 75 -20 80 -13 3 -20 14 -20 29 0 17 6 24 20 24 16 0 20 7 20 33 0 40 6
47 37 47 20 0 23 -5 23 -40z m-2096 -61 c24 -23 34 -121 17 -172 -15 -44 -59
-66 -97 -48 -14 6 -27 11 -29 11 -3 0 -5 -30 -5 -66 l0 -65 -27 3 -28 3 -3
179 -2 179 37 -5 c21 -3 47 -2 58 3 26 10 55 2 79 -22z m405 20 c17 -6 36 -19
41 -29 6 -10 10 -62 10 -115 l0 -97 -32 3 c-18 1 -48 -1 -66 -5 -50 -12 -82
13 -82 64 0 44 20 64 83 81 28 7 37 15 35 27 -5 26 -48 28 -55 3 -6 -25 -51
-29 -60 -5 -8 21 28 67 58 75 35 10 33 10 68 -2z m290 0 c38 -14 51 -35 51
-88 l0 -41 -61 0 c-60 0 -60 0 -57 -27 3 -32 44 -46 54 -19 4 10 18 16 35 16
35 0 39 -25 10 -61 -27 -34 -99 -34 -135 0 -23 22 -26 32 -26 96 0 79 20 120
63 128 12 2 25 5 28 6 3 0 20 -4 38 -10z m198 0 c32 -12 43 -26 43 -56 0 -31
-45 -33 -53 -3 -7 26 -47 27 -47 1 0 -11 12 -23 30 -31 78 -32 101 -82 61
-131 -15 -19 -29 -24 -66 -24 -37 0 -51 5 -66 24 -29 36 -25 61 11 61 24 0 30
-4 30 -21 0 -15 5 -20 22 -17 41 6 32 33 -19 59 -91 46 -80 134 19 148 4 1 19
-4 35 -10z m191 0 c29 -10 59 -59 45 -73 -15 -15 -51 -5 -56 15 -4 13 -12 20
-24 17 -29 -5 -21 -32 15 -50 73 -36 92 -81 53 -129 -15 -19 -29 -24 -66 -24
-37 0 -51 5 -66 24 -29 36 -25 61 10 61 21 0 30 -6 34 -21 7 -25 40 -22 45 3
2 12 -11 24 -43 39 -74 35 -85 107 -21 135 38 16 36 16 74 3z m211 0 c17 -6
36 -19 41 -29 6 -10 10 -62 10 -115 l0 -97 -32 3 c-18 1 -48 -1 -66 -5 -50
-12 -82 13 -82 64 0 44 20 64 83 81 28 7 37 15 35 27 -5 25 -45 27 -58 3 -11
-22 -44 -28 -55 -10 -12 18 16 68 44 78 35 13 43 13 80 0z m318 -21 c17 -16
23 -33 23 -65 l0 -43 -61 0 c-60 0 -60 0 -57 -27 3 -32 44 -46 54 -19 9 23 64
21 64 -2 0 -49 -66 -84 -121 -64 -50 20 -59 37 -59 121 0 68 3 80 23 98 12 11
29 23 37 26 25 10 73 -2 97 -25z m1001 -4 c19 -21 22 -36 22 -99 0 -70 -1 -74
-32 -100 -27 -23 -39 -26 -71 -22 -59 8 -80 35 -85 107 -3 36 1 72 9 91 24 60
111 73 157 23z m240 8 c8 -10 12 -52 12 -119 l0 -103 -30 0 -30 0 0 90 c0 75
-3 92 -17 97 -32 12 -53 -32 -53 -113 l0 -74 -30 0 -30 0 0 120 0 120 29 0
c16 0 31 -5 33 -11 2 -6 14 -5 33 5 33 17 63 13 83 -12z m530 -5 c16 -15 22
-32 22 -64 l0 -43 -61 0 c-60 0 -60 0 -57 -27 3 -32 44 -46 54 -19 4 10 18 16
35 16 35 0 40 -29 9 -60 -27 -27 -63 -34 -105 -20 -46 15 -55 34 -55 123 0 64
3 76 23 94 12 11 29 23 37 26 25 9 73 -4 98 -26z m539 9 c6 -6 14 -57 17 -118
l5 -108 -34 0 -35 0 0 90 c0 72 -3 92 -15 96 -33 13 -45 -15 -45 -102 l0 -84
-35 0 -35 0 0 120 0 120 35 0 c19 0 35 -4 35 -9 0 -6 12 -3 28 4 28 15 58 12
79 -9z m218 -7 c17 -16 21 -35 23 -120 l4 -100 -44 1 c-23 1 -54 -1 -68 -5
-35 -9 -80 27 -80 64 0 39 19 60 70 75 33 10 46 19 48 35 5 29 -44 30 -53 0
-5 -15 -14 -19 -33 -17 -22 2 -26 7 -24 28 5 31 28 58 56 63 35 7 80 -4 101
-24z m400 16 c37 -15 55 -46 55 -96 0 -29 0 -29 -59 -29 -63 0 -76 -8 -66 -40
8 -24 55 -28 55 -5 0 11 11 15 36 15 32 0 35 -2 29 -22 -4 -13 -18 -34 -33
-47 -21 -19 -33 -22 -65 -18 -59 8 -80 35 -85 107 -5 75 11 118 52 136 39 17
40 17 81 -1z m198 1 c15 -8 27 -11 27 -5 0 5 14 9 31 9 l30 0 -3 -154 c-3
-134 -5 -157 -22 -175 -42 -46 -144 -35 -166 19 -7 16 -9 34 -5 39 10 18 44
12 57 -9 26 -41 78 -15 78 40 0 17 -3 19 -19 10 -36 -19 -78 -12 -100 16 -16
21 -21 41 -21 90 0 72 13 107 44 122 29 14 37 14 69 -2z m285 -22 c20 -22 22
-36 22 -120 l0 -95 -42 1 c-24 1 -55 -1 -70 -5 -21 -6 -32 -2 -52 18 -46 46
-30 99 37 118 52 15 67 26 60 45 -8 21 -41 17 -55 -6 -17 -26 -58 -27 -58 -1
0 34 12 53 44 67 40 18 85 9 114 -22z m-3048 -94 l0 -120 -35 0 -35 0 0 120 0
120 35 0 35 0 0 -120z m2280 63 c19 -90 25 -92 45 -14 18 69 20 71 51 71 l32
0 -24 -82 c-79 -281 -76 -273 -112 -276 -29 -3 -33 -1 -29 15 31 106 31 95 -2
207 -18 59 -35 114 -38 122 -4 10 4 14 29 14 34 0 35 -1 48 -57z"/>
<path d="M6613 9773 c-20 -4 -23 -11 -23 -51 l0 -47 85 0 85 0 0 46 c0 40 -3
48 -22 53 -25 6 -90 6 -125 -1z"/>
<path d="M1250 7910 c0 -5 3 -10 8 -10 4 0 180 -25 392 -55 2277 -326 3106
-442 3114 -435 5 5 -2 11 -15 14 -39 9 -3453 496 -3477 496 -12 0 -22 -4 -22
-10z"/>
<path d="M680 6875 c0 -9 34 -45 43 -45 5 0 23 -7 40 -15 18 -8 50 -15 72 -17
29 -2 42 -9 49 -24 5 -12 25 -28 43 -37 l33 -15 0 29 c0 24 4 29 23 29 24 0
67 -33 67 -50 0 -6 5 -10 10 -10 6 0 10 31 10 74 l0 73 -82 6 c-98 8 -308 9
-308 2z"/>
<path d="M3748 6373 c-38 -30 -56 -70 -62 -143 -6 -64 -24 -102 -60 -125 -52
-34 -57 -58 -31 -132 12 -35 32 -77 44 -93 12 -16 21 -44 21 -63 0 -27 6 -36
28 -47 21 -11 23 -14 10 -17 -10 -3 -30 3 -45 11 -94 52 -200 96 -229 96 -27
0 -36 -6 -48 -29 -9 -16 -12 -31 -9 -35 4 -3 1 -6 -5 -6 -6 0 -12 10 -14 23
-3 22 -51 -208 -64 -312 l-7 -53 134 3 134 4 -4 -25 c-6 -49 -19 -61 -56 -54
-50 9 -135 -15 -145 -42 -9 -22 -29 -34 -60 -34 -13 0 -21 -15 -33 -62 -18
-70 -57 -332 -57 -379 0 -28 1 -29 16 -15 27 28 58 28 115 3 30 -14 68 -31 86
-38 17 -7 29 -17 27 -21 -3 -4 0 -8 7 -8 14 0 59 -46 52 -53 -6 -7 38 -15 127
-23 41 -3 86 -8 100 -9 14 -2 77 -6 140 -10 63 -3 185 -13 270 -20 158 -14
317 -21 324 -14 6 7 26 216 31 328 2 58 10 139 16 182 7 42 10 83 6 91 -3 8
-33 23 -67 32 -61 17 -120 61 -120 89 0 7 -11 24 -25 39 -14 15 -25 32 -25 38
0 6 46 10 129 10 72 0 132 4 135 8 3 5 8 56 12 114 l7 104 -39 20 c-28 14 -58
19 -109 18 -115 -2 -135 -6 -135 -23 0 -14 -16 -17 -110 -17 -102 0 -110 1
-104 18 3 12 0 18 -10 18 -18 0 -25 22 -24 73 0 23 6 41 14 44 12 4 11 8 -1
26 -8 12 -15 41 -15 65 0 39 -13 72 -58 146 -8 13 -10 36 -7 60 7 50 -11 143
-39 192 -22 39 -73 73 -112 74 -11 0 -37 -12 -56 -27z m152 -645 c26 -24 63
-56 83 -71 20 -15 37 -35 37 -44 0 -14 2 -15 18 -1 36 31 59 28 97 -13 27 -30
35 -47 35 -77 -1 -33 -2 -35 -14 -19 -11 14 -15 15 -19 5 -3 -7 -6 -3 -6 10
-1 12 -7 22 -15 22 -7 0 -21 11 -30 25 -21 32 -36 32 -36 -1 0 -23 -11 -16
-105 73 -57 54 -105 106 -105 116 0 25 8 22 60 -25z"/>
<path d="M195 6269 c-16 -5 -39 -22 -50 -38 -10 -16 -22 -28 -25 -26 -3 2 -3
-17 -2 -41 4 -40 6 -44 35 -48 64 -10 274 -14 288 -6 10 7 5 16 -21 42 -28 27
-43 33 -72 32 -29 -1 -40 4 -58 28 -11 15 -24 27 -28 25 -9 -5 -42 30 -34 37
6 7 6 7 -33 -5z"/>
<path d="M5094 6042 c-21 -32 -38 -244 -22 -276 5 -10 7 -27 5 -38 -5 -18 12
-83 37 -136 5 -13 23 -31 38 -40 29 -17 44 -45 33 -62 -5 -9 -58 -7 -132 5
l-32 6 19 -38 c13 -28 15 -42 7 -60 -9 -21 -14 -22 -88 -17 -66 4 -79 3 -79
-10 0 -8 -12 -24 -26 -35 -18 -15 -22 -22 -13 -25 38 -12 110 -25 167 -32 34
-4 64 -10 66 -13 3 -4 0 -22 -6 -41 l-11 -35 -78 0 c-42 0 -80 -3 -84 -6 -3
-4 -7 -21 -7 -37 -1 -38 22 -64 45 -51 10 6 23 6 34 0 10 -5 26 -12 36 -15 9
-3 17 -10 17 -15 0 -10 -54 -31 -81 -31 -11 0 -19 -4 -19 -10 0 -5 9 -10 19
-10 11 0 23 -9 26 -20 4 -11 12 -19 18 -18 33 6 105 -77 93 -107 -2 -7 5 -16
17 -19 17 -4 19 -8 9 -18 -9 -9 -15 -9 -24 0 -16 16 -58 15 -58 -2 0 -7 13
-16 29 -19 24 -5 28 -10 24 -31 -4 -17 0 -25 12 -28 14 -3 14 -5 2 -22 -16
-22 -60 -14 -50 9 3 9 -4 19 -18 25 -38 17 -75 40 -65 40 5 0 3 7 -4 15 -22
26 -41 18 -40 -17 0 -18 -1 -69 -1 -113 -1 -96 -20 -87 228 -109 98 -9 197
-18 221 -21 37 -4 42 -2 42 16 0 11 5 17 10 14 6 -4 9 -14 8 -23 -3 -14 7 -18
55 -20 35 -2 57 1 57 8 0 5 5 10 10 10 6 0 10 -6 10 -14 0 -16 -1 -16 252 -46
167 -20 280 -25 245 -11 -25 9 -23 25 5 31 19 5 24 13 26 50 2 31 -1 46 -12
52 -9 5 -16 13 -16 18 0 15 28 12 33 -2 3 -8 6 -8 6 -2 1 6 -8 19 -19 29 -20
18 -21 18 -35 -1 -8 -10 -15 -14 -15 -8 0 5 10 21 22 33 20 23 24 50 18 141
-4 60 -8 67 -37 63 -20 -3 -24 -2 -14 5 9 6 11 19 7 35 -3 14 -2 28 3 32 5 3
11 -3 13 -12 3 -16 5 -15 9 2 5 17 1 21 -19 23 -32 3 -52 19 -52 43 0 10 -4
21 -10 24 -5 3 -10 15 -10 25 0 10 -11 32 -25 48 -34 40 -32 55 4 50 34 -5 33
-2 -18 79 -32 53 -53 57 -48 8 3 -19 1 -35 -4 -35 -15 0 -39 44 -39 73 0 15
-4 26 -8 23 -10 -6 -24 4 -38 28 -17 31 -30 29 -47 -5 l-15 -32 -25 39 c-13
22 -41 48 -61 59 -20 11 -36 24 -37 30 0 5 -2 33 -4 60 -12 172 -17 201 -38
233 -25 36 -88 65 -131 60 -31 -3 -31 -3 -70 82 -14 32 -52 83 -88 121 -58 61
-67 67 -105 67 -34 1 -45 -4 -59 -26z m191 -142 c11 18 33 11 41 -12 10 -33 6
-88 -7 -104 -9 -11 -8 -18 1 -29 13 -16 28 -205 16 -205 -3 0 -15 8 -26 17
-17 15 -19 25 -13 89 6 77 10 70 -62 129 l-30 25 38 -15 c63 -26 79 7 27 55
-35 33 -42 67 -11 50 13 -7 22 -7 26 0z m188 -547 c-4 -10 -2 -14 5 -9 6 3 13
2 16 -2 12 -19 -50 -32 -154 -32 -102 0 -111 -2 -136 -25 -30 -28 -56 -32 -73
-11 -21 25 52 60 139 67 41 4 91 11 110 17 19 5 49 10 67 11 26 1 31 -2 26
-16z"/>
<path d="M2446 6015 c-35 -18 -61 -50 -106 -128 -39 -67 -73 -91 -160 -114
-30 -8 -58 -17 -62 -21 -13 -15 -21 -90 -19 -183 2 -62 -1 -99 -8 -104 -6 -3
-14 1 -17 9 -3 8 -21 20 -40 26 -19 6 -34 15 -34 20 0 15 -39 18 -51 4 -16
-20 -30 -17 -61 11 -34 31 -78 33 -85 5 -4 -16 -11 -19 -27 -14 -11 3 -25 10
-30 15 -19 17 -27 9 -24 -21 1 -17 -2 -34 -9 -38 -15 -9 -65 -216 -57 -237 6
-15 22 -20 60 -16 16 1 24 -6 28 -24 5 -20 13 -25 37 -25 17 0 28 -4 25 -9 -3
-4 6 -6 21 -3 19 4 24 1 21 -9 -6 -17 -68 -25 -68 -8 0 7 -10 9 -26 6 -20 -3
-28 0 -31 14 -3 10 -9 16 -14 14 -4 -3 -18 4 -30 16 -25 25 -33 19 -48 -43
-15 -62 -14 -70 7 -67 32 3 40 -1 45 -21 4 -17 14 -20 56 -20 28 0 71 5 96 12
24 7 47 9 51 5 4 -3 2 -26 -4 -49 -6 -24 -14 -57 -17 -75 -6 -30 -8 -31 -75
-38 -44 -4 -90 -17 -127 -35 l-57 -28 34 -6 c96 -14 705 -57 815 -57 33 1 98
-3 145 -8 47 -5 123 -11 170 -15 83 -5 85 -5 96 19 9 18 9 25 0 28 -6 2 -8 8
-4 12 11 12 28 -5 28 -30 0 -22 17 -35 47 -35 37 0 -26 176 -74 207 -13 9 -23
20 -23 25 0 5 -9 23 -21 39 -12 18 -18 37 -14 48 7 24 -20 41 -64 41 -25 0
-36 8 -57 40 -18 27 -39 44 -68 53 -53 19 -152 37 -198 37 -38 0 -68 21 -68
46 0 17 5 17 84 4 34 -5 96 -12 139 -15 75 -7 82 -9 145 -57 63 -48 69 -50
143 -55 42 -3 96 -3 121 1 l45 7 14 87 c16 100 18 188 4 217 -8 17 -7 18 7 7
18 -15 22 -4 34 99 5 46 3 57 -10 62 -20 8 -137 -53 -171 -89 -18 -20 -35 -28
-51 -26 -24 3 -28 -7 -27 -55 1 -19 -13 -15 -28 8 -15 22 -48 31 -65 18 -13
-11 -6 -61 7 -53 5 3 9 0 9 -5 0 -21 -28 -11 -46 17 -22 34 -19 81 7 104 12
10 15 19 9 23 -6 3 -10 18 -9 33 1 15 -8 54 -20 86 -11 33 -30 97 -41 144 -22
92 -39 128 -75 154 -34 26 -94 32 -129 13z m95 -285 c16 0 29 5 29 12 0 9 3 9
11 1 19 -19 6 -48 -26 -53 -29 -5 -30 -8 -30 -55 1 -28 5 -67 9 -88 8 -38 8
-39 -20 -35 -32 4 -39 23 -47 130 -4 58 -2 70 16 89 13 14 22 18 25 11 2 -7
17 -12 33 -12z"/>
</g>
</svg>
