<?xml version="1.0" standalone="no"?>
<!DOCTYPE svg PUBLIC "-//W3C//DTD SVG 20010904//EN"
 "http://www.w3.org/TR/2001/REC-SVG-20010904/DTD/svg10.dtd">
<svg version="1.0" xmlns="http://www.w3.org/2000/svg"
 width="720.000000pt" height="1280.000000pt" viewBox="0 0 720.000000 1280.000000"
 preserveAspectRatio="xMidYMid meet">
<metadata>
Created by potrace 1.16, written by Peter Selinger 2001-2019
</metadata>
<g transform="translate(0.000000,1280.000000) scale(0.100000,-0.100000)"
fill="#000000" stroke="none">
<path d="M0 6400 l0 -6400 3600 0 3600 0 0 1025 0 1025 -3517 3 c-1935 3
-3528 5 -3541 6 -12 1 -22 6 -22 12 0 5 -4 8 -9 4 -5 -3 -12 -1 -15 4 -4 5
-19 7 -35 5 l-29 -5 -7 368 c-9 410 2 4139 11 4246 5 45 11 67 20 67 7 0 15 8
17 18 3 10 5 6 6 -10 0 -16 6 -28 11 -28 6 0 10 35 10 85 0 50 -4 85 -10 85
-5 0 -10 7 -10 15 0 8 -9 15 -20 15 -11 0 -20 7 -20 15 0 9 9 15 25 15 18 0
25 -5 25 -19 0 -14 6 -19 20 -18 23 1 27 15 6 23 -8 3 -12 12 -9 21 5 12 7 12
15 1 6 -8 8 3 6 31 -3 48 11 62 39 39 15 -12 16 -10 10 19 -5 27 -3 32 16 35
19 3 22 10 25 55 3 56 11 63 76 67 13 0 22 5 19 9 -3 5 -11 6 -19 3 -10 -4
-14 2 -14 19 0 18 5 25 20 25 17 0 20 7 20 40 0 39 1 40 35 40 29 0 36 4 41
25 3 14 10 25 15 25 5 0 9 9 9 20 0 11 5 20 10 20 6 0 10 14 10 30 0 22 6 33
20 38 18 7 100 132 100 154 0 10 40 70 55 80 17 13 30 2 29 -23 l-2 -24 22 28
c12 15 32 27 44 27 13 0 22 6 22 15 0 8 10 25 22 37 l22 22 -24 6 -23 6 31 36
c18 19 32 40 32 44 0 5 12 22 26 38 20 21 23 30 14 36 -9 6 -7 15 11 39 12 17
28 31 33 31 7 0 10 17 8 45 -3 28 0 45 7 45 6 0 11 7 11 16 0 9 9 18 20 21 13
3 20 14 20 29 0 13 5 24 10 24 6 0 10 7 10 15 0 8 6 15 13 15 8 0 13 13 14 34
1 29 40 86 59 86 8 0 34 28 34 37 0 4 5 26 12 48 9 34 12 37 17 18 5 -19 9
-16 33 28 l28 49 -26 0 c-41 0 -28 34 15 38 37 4 61 22 61 46 0 9 8 16 20 16
13 0 18 5 14 15 -4 9 0 15 9 15 8 0 17 7 21 15 3 8 14 15 24 15 15 0 18 5 14
25 -3 16 1 27 11 31 9 3 19 19 22 35 4 16 13 29 20 29 7 0 19 14 27 31 15 36
75 69 125 69 22 0 33 5 33 14 0 8 9 18 20 21 11 3 20 15 20 25 0 10 9 22 20
25 11 3 20 15 20 26 0 10 7 19 15 19 8 0 15 7 15 15 0 8 9 15 20 15 11 0 20 6
20 13 0 9 3 8 9 -2 7 -11 9 -11 14 0 5 12 7 12 15 0 7 -9 11 -10 13 -2 2 6 29
14 58 18 68 8 93 27 80 60 -8 23 -7 23 59 25 37 2 -385 5 -938 8 -553 3 612 6
2588 8 l3592 2 0 1775 0 1775 -3600 0 -3600 0 0 -6400z m6782 3684 c50 -17
112 -73 138 -125 44 -85 32 -202 -29 -284 -25 -34 -27 -41 -14 -50 14 -10 14
-14 -2 -38 -22 -35 -88 -46 -136 -23 -29 13 -43 14 -94 4 -106 -20 -142 -17
-169 17 -22 27 -22 31 -7 41 15 11 14 14 -6 36 -38 40 -63 108 -63 172 0 78
16 128 58 176 77 90 199 118 324 74z m-639 0 c52 -18 116 -76 142 -130 22 -47
30 -130 16 -180 -32 -119 -134 -194 -265 -194 -165 0 -272 106 -270 266 2 153
105 252 265 253 36 1 86 -6 112 -15z m-5839 -91 c10 -34 76 -315 76 -324 0 -5
-16 -9 -35 -9 -30 0 -35 3 -35 24 0 31 -13 39 -59 39 -31 0 -36 -3 -43 -31 -8
-28 -13 -32 -42 -32 l-34 0 14 58 c7 31 25 110 40 175 l28 117 42 0 c32 0 44
-4 48 -17z m406 -75 l1 -93 30 38 c23 27 39 37 60 37 16 0 29 -3 29 -6 0 -4
-16 -28 -35 -54 l-34 -47 28 -45 c56 -89 56 -88 17 -88 -30 0 -38 5 -57 40
-26 45 -39 43 -39 -6 0 -31 -2 -34 -30 -34 l-30 0 0 175 0 175 30 0 30 0 0
-92z m1740 -83 l0 -176 -42 1 c-24 1 -55 -1 -69 -5 -19 -5 -33 -1 -55 18 -27
24 -29 29 -29 106 0 69 3 84 21 102 23 22 55 28 92 15 21 -7 22 -5 22 53 l0
61 30 0 30 0 0 -175z m452 83 l3 -92 25 37 c20 30 31 37 58 37 30 0 42 -12 24
-24 -5 -3 -21 -23 -36 -44 l-27 -40 41 -66 41 -67 -38 3 c-32 3 -41 9 -58 40
-26 49 -35 48 -35 -2 0 -39 -1 -40 -35 -40 l-35 0 0 175 0 175 35 0 34 0 3
-92z m728 28 l0 -65 35 15 c28 11 40 12 58 3 34 -18 37 -27 37 -136 l0 -103
-30 0 -30 0 0 90 c0 75 -3 92 -16 97 -37 14 -49 -10 -52 -101 l-3 -86 -29 0
-30 0 0 175 0 175 30 0 30 0 0 -64z m530 3 c0 -58 1 -60 23 -53 76 26 107 -8
107 -118 0 -71 -2 -81 -26 -105 -20 -20 -31 -24 -52 -18 -15 4 -46 6 -69 5
l-43 -1 0 176 0 175 30 0 30 0 0 -61z m-1480 -9 c0 -38 2 -40 30 -40 25 0 30
-4 30 -25 0 -21 -5 -25 -30 -25 l-31 0 3 -67 c3 -66 4 -68 31 -71 21 -3 27 -8
23 -19 -3 -8 -6 -19 -6 -24 0 -16 -73 -10 -92 8 -14 13 -18 31 -18 90 0 66 -2
75 -20 80 -13 3 -20 14 -20 29 0 17 6 24 20 24 17 0 20 7 20 40 0 38 2 40 30
40 28 0 30 -2 30 -40z m-2096 -61 c24 -23 34 -121 17 -172 -15 -44 -59 -66
-97 -48 -14 6 -27 11 -29 11 -3 0 -5 -29 -5 -65 l0 -65 -30 0 -30 0 0 181 0
182 38 -5 c20 -3 46 -2 57 3 26 10 55 2 79 -22z m405 20 c17 -6 36 -19 41 -29
6 -10 10 -62 10 -115 l0 -97 -32 3 c-18 1 -48 -1 -66 -5 -50 -12 -82 13 -82
64 0 44 20 64 83 81 28 7 37 15 35 27 -5 25 -45 27 -58 3 -13 -25 -48 -28 -57
-5 -8 21 28 67 58 75 35 10 33 10 68 -2z m287 1 c39 -15 53 -39 54 -87 l0 -43
-61 0 c-60 0 -60 0 -57 -27 3 -32 44 -46 54 -19 9 23 64 21 64 -2 0 -51 -67
-84 -124 -62 -45 17 -55 38 -56 116 0 78 20 119 63 127 12 2 25 5 29 6 4 0 19
-4 34 -9z m201 -1 c32 -12 43 -26 43 -56 0 -31 -45 -33 -53 -2 -7 24 -40 23
-45 -2 -2 -10 9 -21 30 -29 75 -30 98 -83 59 -131 -40 -50 -151 -22 -151 38 0
19 5 23 30 23 24 0 30 -4 30 -21 0 -15 5 -20 22 -17 42 6 33 36 -16 58 -76 32
-89 107 -23 135 39 17 39 17 74 4z m202 -4 c26 -13 46 -56 33 -70 -14 -14 -50
-3 -55 16 -4 13 -12 20 -24 17 -29 -5 -21 -32 15 -50 73 -36 92 -81 53 -129
-15 -19 -29 -24 -66 -24 -37 0 -51 5 -66 24 -29 36 -25 61 10 61 21 0 30 -6
34 -21 7 -25 40 -22 45 4 3 12 -9 23 -42 37 -74 31 -86 108 -22 136 40 17 51
17 85 -1z m200 4 c17 -6 36 -19 41 -29 6 -10 10 -62 10 -115 l0 -97 -32 3
c-18 1 -48 -1 -66 -5 -50 -12 -82 13 -82 64 0 44 20 64 83 81 28 7 37 15 35
27 -5 25 -45 27 -58 3 -11 -22 -44 -28 -55 -11 -12 20 8 59 38 74 38 19 45 19
86 5z m319 -22 c16 -15 22 -32 22 -64 l0 -43 -61 0 c-60 0 -60 0 -57 -27 3
-32 44 -46 54 -19 9 23 64 21 64 -2 0 -49 -66 -84 -121 -64 -50 20 -59 37 -59
121 0 68 3 80 23 98 12 11 29 23 37 26 25 9 73 -4 98 -26z m1000 -3 c18 -21
22 -36 22 -98 0 -77 -15 -107 -61 -121 -31 -10 -84 3 -105 26 -23 26 -31 127
-13 170 24 60 111 73 157 23z m240 8 c8 -10 12 -52 12 -119 l0 -103 -30 0 -30
0 0 90 c0 75 -3 92 -17 97 -32 12 -53 -32 -53 -113 l0 -74 -30 0 -30 0 0 120
0 120 29 0 c16 0 31 -5 33 -11 2 -6 14 -5 33 5 33 17 63 13 83 -12z m530 -8
c15 -17 22 -38 22 -65 l0 -39 -61 0 c-60 0 -60 0 -57 -27 3 -32 44 -46 54 -19
4 10 18 16 35 16 22 0 29 -5 29 -20 0 -42 -64 -79 -115 -66 -52 13 -65 39 -65
124 0 69 3 81 23 99 12 11 29 23 37 26 28 11 75 -3 98 -29z m539 12 c7 -6 13
-53 15 -116 l3 -105 -32 -3 -33 -3 0 91 c0 72 -3 92 -15 96 -33 13 -45 -15
-45 -102 l0 -84 -35 0 -35 0 0 120 0 120 35 0 c19 0 35 -4 35 -9 0 -6 12 -3
28 4 28 15 58 12 79 -9z m221 -12 c19 -22 22 -36 22 -120 l0 -95 -42 1 c-24 1
-54 -1 -68 -5 -34 -9 -80 27 -80 61 0 41 18 63 63 75 52 15 67 26 60 45 -8 21
-41 17 -55 -6 -12 -19 -48 -27 -60 -14 -15 14 11 60 43 77 43 22 86 16 117
-19z m391 25 c36 -13 61 -53 61 -99 l0 -30 -59 0 c-65 0 -73 -5 -64 -38 6 -26
53 -32 53 -7 0 11 11 15 36 15 32 0 35 -2 29 -22 -13 -43 -42 -63 -90 -63 -64
0 -87 27 -93 105 -5 75 11 118 52 136 38 16 36 16 75 3z m204 -3 c15 -8 27
-11 27 -5 0 5 14 9 30 9 l30 0 0 -149 c0 -134 -2 -151 -20 -174 -41 -52 -147
-44 -170 13 -7 16 -9 34 -5 39 9 15 46 7 60 -12 27 -37 75 -10 75 43 0 17 -3
19 -19 10 -36 -19 -78 -12 -100 16 -16 21 -21 41 -21 88 0 85 8 106 44 122 39
17 36 17 69 0z m285 -22 c19 -22 22 -36 22 -120 l0 -95 -42 1 c-24 1 -54 -1
-68 -5 -35 -9 -80 27 -80 64 0 39 19 60 70 75 33 10 46 19 48 35 4 28 -31 29
-51 0 -22 -30 -63 -23 -59 11 10 70 109 91 160 34z m-3048 -94 l0 -120 -35 0
-35 0 0 113 c0 63 3 117 7 120 3 4 19 7 35 7 l28 0 0 -120z m2280 63 c19 -91
25 -93 45 -14 17 70 18 71 50 71 l33 0 -52 -177 -51 -178 -33 -3 c-29 -3 -33
-1 -29 15 31 106 31 95 -2 207 -18 59 -35 114 -38 122 -4 10 4 14 29 14 34 0
35 -1 48 -57z"/>
<path d="M6613 9773 c-20 -4 -23 -11 -23 -51 l0 -47 85 0 85 0 0 46 c0 40 -3
48 -22 53 -25 6 -90 6 -125 -1z"/>
<path d="M916 6863 c-4 -32 -11 -87 -16 -123 -23 -163 -51 -430 -65 -620 -3
-47 -13 -134 -21 -195 -8 -60 -25 -220 -39 -355 -13 -135 -34 -326 -45 -425
-12 -99 -23 -229 -25 -290 -2 -60 -8 -135 -13 -165 -5 -30 -8 -57 -7 -58 6 -7
217 -31 418 -48 l208 -17 24 23 c14 13 33 46 44 74 10 28 37 85 58 126 22 41
42 85 45 97 7 26 -8 105 -27 148 -37 82 -47 269 -20 380 8 33 15 80 15 105 0
25 5 63 11 85 19 71 22 95 11 95 -6 0 -14 -5 -17 -10 -4 -6 -10 -8 -15 -5 -5
3 -19 1 -30 -5 -17 -9 -20 -21 -20 -73 0 -36 -5 -68 -12 -75 -7 -7 -8 -12 -3
-12 5 0 -1 -7 -13 -16 -12 -8 -22 -20 -22 -26 0 -6 -11 -26 -25 -44 -14 -18
-25 -40 -25 -48 0 -9 -4 -16 -10 -16 -5 0 -10 -13 -10 -29 0 -22 -6 -30 -25
-35 -16 -4 -22 -11 -19 -21 4 -8 1 -15 -5 -15 -6 0 -11 -6 -11 -14 0 -23 -41
-87 -51 -80 -5 3 -6 -3 -2 -12 5 -13 3 -15 -7 -9 -9 5 -11 4 -6 -3 9 -14 -4
-38 -13 -26 -3 5 -16 14 -27 21 -17 9 -26 9 -42 -3 -12 -8 -25 -13 -29 -12
-13 3 -75 -13 -87 -23 -6 -5 -26 -20 -43 -35 -18 -14 -37 -23 -43 -19 -5 3
-10 2 -10 -3 0 -5 -11 -22 -25 -38 -14 -16 -25 -26 -25 -21 0 14 48 82 101
144 38 43 80 114 141 235 116 232 131 266 124 293 -4 17 -1 24 15 28 19 5 21
11 16 41 -3 20 -2 36 4 36 5 0 9 5 9 11 0 8 -4 8 -14 0 -10 -8 -20 -8 -42 4
-25 13 -30 13 -44 0 -30 -27 -130 -12 -178 26 l-24 19 27 10 c14 5 33 10 41
10 17 0 18 12 2 28 -9 9 -8 12 4 12 9 0 24 8 33 17 16 16 18 16 27 0 5 -9 16
-17 23 -17 8 0 15 -7 15 -15 0 -8 7 -15 15 -15 22 0 18 -18 -6 -25 -14 -5 -27
0 -41 15 -28 30 -47 11 -24 -24 16 -26 50 -35 61 -17 7 13 114 5 131 -10 10
-8 20 2 43 43 17 29 31 55 31 58 0 3 -19 16 -41 30 -27 17 -57 25 -90 27 -45
1 -51 -1 -59 -23 -10 -25 -17 -29 -37 -16 -9 6 -9 17 1 47 12 33 20 41 48 46
29 6 28 7 -11 13 -25 3 -18 14 13 20 18 4 39 13 45 20 10 12 -1 15 -66 21 -43
4 -87 9 -98 13 -11 3 -26 5 -34 3 -24 -4 -81 9 -81 19 0 6 12 10 26 10 21 0
24 4 19 20 -5 17 -2 20 27 21 60 1 73 11 73 60 0 34 4 44 18 47 10 2 26 -3 35
-11 22 -19 160 -47 165 -33 2 5 27 8 57 7 l54 -2 -37 28 c-20 16 -36 36 -37
45 0 22 -16 31 -60 35 -44 5 -46 8 -53 65 -6 40 -4 49 12 57 10 6 21 22 24 37
4 22 0 28 -29 40 -19 8 -34 21 -34 30 0 11 -5 14 -16 10 -14 -5 -15 -4 -4 9 7
9 10 18 6 22 -3 3 -6 1 -6 -5 0 -7 -5 -12 -11 -12 -8 0 -10 14 -6 39 4 33 2
40 -14 44 -19 5 -27 37 -9 37 16 0 11 15 -15 46 -14 16 -23 34 -21 40 3 7 -9
24 -25 38 -31 28 -36 42 -16 49 20 9 -13 27 -50 27 -31 0 -32 -1 -37 -57z"/>
<path d="M2285 6806 c18 -7 25 -15 18 -19 -8 -5 -7 -16 4 -39 9 -17 27 -61 39
-97 l24 -66 -21 -17 c-12 -10 -16 -18 -10 -18 6 0 11 -7 11 -15 0 -8 5 -24 12
-35 19 -29 5 -33 -35 -10 -29 17 -40 19 -56 10 -47 -24 -1 -60 76 -60 34 0 43
-4 45 -17 3 -36 -3 -69 -18 -101 -9 -19 -15 -52 -13 -75 5 -100 1 -114 -35
-136 -27 -17 -54 -22 -135 -25 -138 -6 -163 -25 -88 -70 23 -14 48 -29 55 -34
25 -17 25 -78 1 -127 -18 -35 -20 -48 -11 -57 24 -24 11 -58 -48 -132 -33 -42
-60 -78 -60 -81 0 -14 31 15 83 77 44 51 61 65 77 61 11 -3 20 -9 20 -13 0 -5
8 -6 18 -3 12 3 31 -10 56 -38 21 -22 54 -48 72 -55 36 -15 40 -24 23 -55 -17
-32 -6 -42 23 -20 31 25 48 27 48 6 0 -8 5 -15 11 -15 11 0 9 -40 -11 -185 -5
-38 -9 -73 -10 -77 0 -4 11 -3 24 3 28 13 46 48 46 89 0 38 49 80 95 80 20 0
51 12 82 33 27 17 57 37 67 42 11 6 24 32 31 58 7 26 20 56 30 67 13 14 20 40
22 77 2 32 7 60 11 63 4 3 7 11 8 18 1 6 2 18 3 26 0 7 22 19 47 25 31 8 48
18 51 31 3 11 9 20 14 20 5 0 9 6 9 14 0 8 5 16 12 18 7 3 12 18 13 34 0 25 6
31 43 44 23 8 42 21 42 29 0 17 -29 40 -52 41 -9 0 -21 6 -25 14 -4 8 -17 14
-28 13 -15 -2 -21 5 -23 26 -2 15 1 27 7 27 6 0 11 6 11 14 0 16 24 22 127 31
66 6 72 9 78 32 7 31 -9 45 -43 40 -17 -3 -22 0 -20 12 2 10 15 17 35 19 22 2
33 9 37 25 10 38 7 57 -8 51 -14 -5 -56 44 -56 65 0 14 -47 15 -55 1 -9 -14
-49 -12 -63 2 -10 10 -15 10 -21 -1 -5 -8 -14 -10 -21 -6 -8 5 -11 4 -7 -2 4
-5 -5 -16 -19 -24 -23 -12 -27 -11 -40 6 -12 16 -18 17 -33 8 -16 -10 -20 -9
-25 3 -10 27 -7 32 29 38 19 4 37 11 40 16 9 14 -25 40 -53 41 -15 0 -42 1
-60 2 -19 1 -36 -1 -39 -5 -7 -13 -23 -9 -23 6 0 8 12 16 26 18 19 2 33 15 51
48 28 49 40 65 30 38 -7 -19 7 -31 36 -33 11 -1 16 3 13 11 -3 8 1 20 9 28 21
21 19 24 -21 41 -35 14 -60 12 -50 -4 6 -9 -29 -28 -59 -33 -15 -3 -20 -11
-20 -32 0 -60 -23 -34 -60 68 -22 58 -46 108 -54 111 -26 10 -209 24 -306 24
-82 0 -87 -1 -60 -13z"/>
<path d="M1850 6263 c0 -12 -4 -25 -10 -28 -5 -3 -10 -14 -10 -23 0 -15 2 -15
10 -2 6 9 10 10 10 3 0 -6 -6 -18 -14 -25 -7 -8 -21 -39 -29 -69 -12 -40 -24
-59 -46 -72 -43 -25 -51 -22 -40 15 10 35 6 39 -48 63 -17 8 -33 20 -36 27 -4
10 -6 10 -6 1 -1 -7 -7 -13 -15 -13 -15 0 -30 -58 -20 -83 3 -9 17 -23 30 -32
13 -8 24 -25 24 -37 0 -12 7 -29 16 -39 17 -19 11 -39 -12 -39 -8 0 -14 -7
-14 -15 0 -8 5 -15 10 -15 14 0 12 -16 -5 -33 -16 -17 -10 -27 16 -27 10 0 24
-10 30 -22 11 -21 12 -21 25 -3 13 18 14 17 14 -8 0 -15 7 -43 14 -62 12 -29
20 -35 45 -35 18 0 34 7 40 17 15 27 21 12 28 -66 3 -39 10 -71 16 -71 6 0 7
18 3 46 -8 60 1 96 23 90 9 -3 37 -8 64 -11 56 -8 63 7 20 41 -29 24 -26 36
13 48 15 5 24 1 31 -16 10 -22 11 -22 19 -4 4 11 1 31 -9 50 -33 64 -70 163
-79 211 -5 28 -16 63 -24 78 -8 16 -26 59 -40 95 -30 76 -44 96 -44 65z"/>
<path d="M4816 5907 c-36 -61 -88 -137 -95 -137 -3 0 -14 22 -24 49 -17 48
-66 120 -52 77 4 -16 0 -14 -19 7 -14 15 -31 24 -39 21 -12 -4 -9 -21 15 -97
16 -51 39 -102 50 -114 l21 -22 -27 -60 c-29 -64 -36 -125 -18 -143 15 -15 19
-10 27 37 6 39 6 39 -9 15 -8 -14 -15 -19 -16 -13 0 30 42 119 95 198 57 86
86 117 44 48 -12 -21 -34 -58 -48 -83 -40 -71 1 -30 64 64 54 82 74 141 58
170 -7 13 -12 10 -27 -17z"/>
<path d="M3927 5883 c-41 -31 -103 -103 -144 -168 -32 -51 -46 -55 -68 -21
-19 29 -7 62 28 76 l22 9 -22 0 c-29 1 -65 -46 -57 -73 3 -12 15 -30 25 -41
18 -20 18 -22 -10 -64 l-29 -43 -27 46 c-26 44 -47 57 -60 36 -3 -5 -2 -10 4
-10 13 0 61 -88 55 -103 -2 -7 -19 -21 -36 -32 -29 -17 -32 -17 -43 -1 -9 12
-10 28 -4 54 11 47 11 52 1 52 -11 0 -32 -61 -32 -93 0 -52 70 -57 122 -10 12
11 22 13 26 7 16 -23 73 -55 125 -68 66 -17 116 -8 144 28 11 13 28 26 40 30
52 17 130 125 124 171 -8 55 -44 54 -104 -3 -51 -50 -78 -108 -71 -153 7 -41
1 -47 -54 -60 -26 -5 -49 -2 -88 12 -52 20 -104 54 -104 68 0 4 16 28 35 53
33 42 40 46 91 51 137 14 280 171 234 258 -16 28 -32 24 -19 -5 23 -50 -68
-177 -154 -217 -41 -18 -87 -25 -87 -13 0 16 143 205 172 228 45 35 12 34 -35
-1z"/>
<path d="M3393 5788 c-45 -50 -113 -182 -113 -220 0 -21 4 -38 8 -38 14 0 130
108 153 143 16 23 6 16 -34 -22 -31 -30 -59 -52 -63 -48 -3 3 17 49 45 101 28
52 51 97 51 100 0 14 -28 4 -47 -16z"/>
<path d="M2870 5435 c-18 -21 -145 -115 -208 -154 -30 -17 -87 -45 -128 -61
-41 -16 -82 -34 -91 -39 -10 -6 -30 -12 -45 -15 -48 -11 -55 -26 -61 -148 -7
-135 -28 -223 -70 -293 -13 -21 -107 -140 -151 -189 -14 -16 -26 -32 -26 -36
0 -4 -17 -24 -37 -46 -21 -21 -45 -54 -54 -74 -16 -35 -16 -36 6 -35 12 0 29
6 38 14 10 7 17 10 17 5 0 -5 7 2 16 14 8 12 20 22 26 22 6 0 27 14 47 31 20
17 68 56 106 88 82 68 165 147 165 159 0 4 28 34 63 67 34 32 74 76 90 97 15
21 35 47 45 57 9 10 26 31 37 46 11 16 29 40 41 54 11 14 40 67 63 116 23 50
47 98 52 108 5 9 17 39 25 65 9 26 21 50 26 53 5 3 11 23 13 43 2 21 9 44 16
52 6 8 7 14 1 14 -5 0 -15 -7 -22 -15z"/>
</g>
</svg>
