<?xml version="1.0" standalone="no"?>
<!DOCTYPE svg PUBLIC "-//W3C//DTD SVG 20010904//EN"
 "http://www.w3.org/TR/2001/REC-SVG-20010904/DTD/svg10.dtd">
<svg version="1.0" xmlns="http://www.w3.org/2000/svg"
 width="720.000000pt" height="1280.000000pt" viewBox="0 0 720.000000 1280.000000"
 preserveAspectRatio="xMidYMid meet">
<metadata>
Created by potrace 1.16, written by Peter Selinger 2001-2019
</metadata>
<g transform="translate(0.000000,1280.000000) scale(0.100000,-0.100000)"
fill="#000000" stroke="none">
<path d="M0 6400 l0 -6400 3600 0 3600 0 0 6400 0 6400 -3600 0 -3600 0 0
-6400z m6797 3678 c152 -71 198 -271 93 -403 -27 -34 -28 -39 -14 -50 15 -11
15 -14 0 -37 -27 -41 -84 -49 -143 -21 -31 14 -42 15 -87 3 -28 -7 -73 -13
-100 -14 -42 -1 -51 3 -72 29 -22 28 -23 31 -7 42 15 12 15 15 -5 35 -55 60
-78 178 -50 269 23 77 103 146 195 168 51 13 139 3 190 -21z m-654 6 c53 -18
116 -76 143 -132 27 -55 25 -174 -3 -227 -50 -93 -120 -136 -233 -143 -63 -4
-85 -1 -128 18 -148 64 -203 241 -118 382 25 42 43 59 94 85 54 28 75 33 131
33 37 0 88 -7 114 -16z m-5802 -239 c21 -88 38 -166 38 -172 1 -8 -12 -13 -32
-13 -28 0 -34 4 -42 32 -9 29 -14 32 -50 31 -36 0 -40 -3 -47 -31 -8 -28 -13
-32 -42 -32 l-34 0 14 58 c7 31 26 110 41 175 l27 118 44 -3 45 -3 38 -160z
m369 73 l1 -93 30 38 c23 27 39 37 60 37 16 0 29 -3 29 -6 0 -4 -16 -27 -35
-53 l-34 -47 21 -35 c11 -19 29 -49 40 -66 l20 -33 -36 0 c-30 0 -38 5 -57 40
-26 45 -39 43 -39 -6 0 -31 -2 -34 -30 -34 l-30 0 0 175 0 175 30 0 30 0 0
-92z m1740 -83 l0 -176 -42 1 c-24 1 -54 -1 -68 -5 -43 -11 -77 25 -85 88 -7
58 7 128 30 147 17 14 51 17 83 6 21 -7 22 -5 22 53 l0 61 30 0 30 0 0 -175z
m452 83 l3 -92 25 37 c20 30 31 37 58 37 30 0 42 -12 24 -24 -5 -3 -21 -23
-36 -45 l-28 -39 34 -54 c19 -29 38 -59 42 -65 5 -10 -3 -13 -29 -13 -30 0
-39 5 -56 35 -27 45 -39 44 -39 -1 0 -34 -1 -35 -32 -32 l-33 3 -3 173 -2 172
34 0 35 0 3 -92z m728 28 l0 -64 29 14 c31 15 77 6 93 -19 4 -7 8 -58 8 -114
l0 -103 -30 0 -30 0 0 90 c0 75 -3 92 -16 97 -37 14 -49 -10 -52 -101 l-3 -86
-29 0 -30 0 0 175 0 175 30 0 30 0 0 -64z m530 3 c0 -55 2 -60 18 -53 31 13
76 5 95 -17 13 -16 17 -40 17 -101 0 -71 -2 -81 -26 -105 -21 -21 -31 -24 -57
-18 -18 4 -49 6 -69 6 l-38 -2 0 176 0 175 30 0 30 0 0 -61z m-1480 -9 c0 -38
2 -40 30 -40 25 0 30 -4 30 -25 0 -21 -5 -25 -30 -25 l-31 0 3 -67 c3 -66 4
-68 31 -71 28 -3 31 -9 21 -36 -4 -11 -19 -16 -45 -16 -54 0 -69 25 -69 117 0
66 -2 73 -20 73 -15 0 -20 7 -20 25 0 18 5 25 20 25 17 0 20 7 20 40 0 38 2
40 30 40 28 0 30 -2 30 -40z m-2096 -61 c24 -23 34 -121 17 -172 -15 -44 -59
-66 -97 -48 -14 6 -27 11 -29 11 -3 0 -5 -30 -5 -66 l0 -65 -27 3 -28 3 -3
179 -2 179 38 -6 c22 -2 46 -1 53 4 19 11 60 1 83 -22z m405 20 c17 -6 36 -19
41 -29 6 -10 10 -62 10 -115 l0 -97 -32 3 c-18 1 -48 -1 -66 -5 -50 -12 -82
13 -82 64 0 44 20 64 83 81 28 7 37 15 35 27 -5 26 -48 28 -55 3 -6 -25 -51
-29 -60 -5 -8 21 28 67 58 75 35 10 33 10 68 -2z m290 0 c38 -14 51 -35 51
-88 l0 -41 -61 0 c-60 0 -60 0 -57 -27 3 -32 44 -46 54 -19 9 23 64 21 64 -2
0 -51 -67 -84 -124 -62 -45 17 -55 38 -56 116 0 78 20 119 63 127 12 2 25 5
28 6 3 0 20 -4 38 -10z m198 0 c32 -12 43 -26 43 -56 0 -31 -45 -33 -53 -3 -7
26 -47 27 -47 1 0 -11 12 -23 30 -31 78 -32 101 -82 61 -131 -15 -19 -29 -24
-66 -24 -37 0 -51 5 -66 24 -28 34 -25 61 7 61 18 0 28 -6 31 -21 7 -25 46
-22 51 4 3 12 -9 23 -42 37 -76 32 -89 107 -23 135 39 17 39 17 74 4z m197 -3
c31 -13 53 -55 38 -71 -14 -14 -50 -3 -55 16 -4 13 -12 20 -24 17 -29 -5 -21
-32 15 -50 73 -36 92 -81 53 -129 -15 -19 -29 -24 -66 -24 -37 0 -51 5 -66 24
-29 36 -25 61 10 61 20 0 30 -6 34 -20 7 -28 47 -27 47 0 0 15 -13 26 -45 40
-73 31 -85 108 -21 136 39 17 40 17 80 0z m205 3 c17 -6 36 -19 41 -29 6 -10
10 -62 10 -115 l0 -97 -32 3 c-18 1 -48 -1 -66 -5 -50 -12 -82 13 -82 64 0 44
20 64 83 81 28 7 37 15 35 27 -5 25 -45 27 -58 3 -13 -24 -60 -29 -60 -6 0 32
25 66 54 74 42 12 39 12 75 0z m319 -22 c16 -15 22 -32 22 -64 l0 -43 -61 0
c-60 0 -60 0 -57 -27 3 -32 44 -46 54 -19 8 20 64 22 64 2 0 -69 -102 -98
-158 -45 -19 17 -22 31 -22 98 0 68 3 80 23 98 12 11 29 23 37 26 25 9 73 -4
98 -26z m1000 -3 c18 -21 22 -37 22 -89 0 -77 -13 -110 -50 -125 -35 -15 -93
-4 -116 21 -23 26 -31 128 -13 170 24 60 111 73 157 23z m232 16 c17 -17 20
-33 20 -125 l0 -105 -30 0 -30 0 0 90 c0 75 -3 92 -17 97 -32 12 -53 -32 -53
-113 l0 -74 -30 0 -30 0 0 120 0 120 29 0 c16 0 31 -5 33 -11 2 -6 14 -5 33 5
39 21 51 20 75 -4z m538 -13 c16 -15 22 -32 22 -64 l0 -43 -61 0 c-60 0 -60 0
-57 -27 3 -32 44 -46 54 -19 4 10 18 16 35 16 35 0 40 -29 9 -60 -27 -27 -63
-34 -105 -20 -46 15 -55 34 -55 123 0 64 3 76 23 94 12 11 29 23 37 26 25 8
74 -5 98 -26z m530 16 c18 -16 21 -32 24 -123 l3 -105 -32 -3 -33 -3 0 91 c0
72 -3 92 -15 96 -33 13 -45 -15 -45 -102 l0 -84 -35 0 -35 0 0 120 0 120 35 0
c19 0 35 -5 35 -11 0 -5 10 -3 22 5 29 21 51 20 76 -1z m227 -14 c17 -16 21
-35 23 -120 l4 -100 -44 1 c-23 1 -54 -1 -68 -5 -34 -9 -80 27 -80 61 0 42 17
62 70 79 37 12 50 22 50 36 0 26 -36 25 -52 -1 -13 -20 -52 -27 -62 -12 -10
17 29 76 54 83 36 10 82 0 105 -22z m394 20 c36 -13 61 -53 61 -99 l0 -30 -59
0 c-65 0 -73 -5 -64 -38 6 -26 48 -31 57 -7 3 9 18 15 36 15 28 0 31 -3 25
-22 -4 -13 -18 -34 -33 -47 -21 -19 -33 -22 -66 -18 -61 8 -86 43 -86 117 0
73 16 109 55 126 37 16 35 16 74 3z m204 -3 c15 -8 27 -11 27 -5 0 5 14 9 31
9 l30 0 -3 -154 c-3 -134 -5 -157 -22 -175 -42 -46 -144 -35 -166 19 -7 16 -9
34 -5 39 10 18 44 12 57 -9 27 -42 78 -15 78 41 0 18 -3 20 -12 11 -7 -7 -29
-12 -49 -12 -56 0 -79 34 -79 116 0 72 13 107 44 122 29 14 37 14 69 -2z m282
-17 c17 -16 21 -36 23 -120 l4 -100 -44 1 c-23 1 -54 -1 -68 -5 -36 -9 -80 27
-80 66 0 28 30 69 50 69 6 0 26 7 45 14 25 11 33 19 29 30 -9 22 -41 20 -56
-4 -18 -29 -58 -27 -58 3 0 68 101 98 155 46z m-3045 -99 l0 -120 -35 0 -35 0
0 113 c0 63 3 117 7 120 3 4 19 7 35 7 l28 0 0 -120z m2280 63 c19 -90 25 -92
45 -14 18 68 20 71 48 71 28 0 29 -2 23 -33 -3 -19 -25 -99 -49 -178 l-42
-144 -34 -3 c-28 -3 -32 -1 -28 15 31 106 31 95 -3 209 -18 60 -35 115 -38
122 -3 8 7 12 30 12 34 0 35 -1 48 -57z m-1907 -1193 c3 0 15 10 26 22 16 16
23 18 34 10 11 -9 18 -7 32 8 24 27 36 25 70 -10 34 -36 42 -37 71 -9 l22 20
36 -37 36 -37 23 21 c31 29 36 28 75 -12 33 -34 34 -34 53 -15 26 26 39 24 74
-15 l30 -34 28 26 28 26 126 -126 126 -126 -21 -30 -21 -29 36 -37 36 -36 -22
-23 c-12 -13 -19 -30 -17 -38 8 -21 -31 -62 -51 -55 -22 9 -67 -33 -53 -49 7
-8 1 -20 -19 -39 -20 -19 -31 -24 -36 -16 -5 8 -14 5 -31 -11 -18 -17 -21 -26
-13 -35 14 -17 -40 -67 -57 -53 -7 5 -19 1 -33 -12 -12 -11 -29 -18 -39 -15
-9 3 -28 -4 -41 -14 -20 -17 -21 -23 -10 -36 10 -13 8 -19 -14 -41 -22 -22
-28 -24 -42 -13 -13 11 -19 10 -38 -8 -16 -15 -27 -18 -38 -12 -12 7 -22 3
-39 -15 -18 -19 -26 -22 -37 -13 -10 8 -19 6 -37 -11 -13 -12 -30 -19 -39 -16
-22 9 -62 -32 -48 -49 15 -18 -29 -59 -53 -50 -11 4 -26 -2 -41 -16 -19 -18
-27 -20 -38 -12 -11 9 -18 7 -33 -9 -11 -13 -26 -18 -38 -15 -13 3 -29 -3 -43
-16 -18 -16 -25 -18 -36 -9 -12 9 -19 6 -38 -14 -14 -14 -35 -25 -51 -25 -27
0 -32 -7 -29 -40 1 -9 -10 -27 -23 -39 -21 -20 -28 -22 -41 -11 -13 11 -19 9
-40 -10 -13 -12 -29 -19 -35 -15 -6 4 -22 -3 -35 -15 -21 -19 -27 -21 -40 -10
-13 11 -19 9 -39 -9 -14 -13 -29 -19 -40 -15 -24 9 -58 -25 -52 -52 4 -13 -2
-30 -14 -44 -16 -19 -22 -21 -35 -10 -13 11 -19 9 -39 -9 -14 -13 -29 -19 -40
-15 -11 4 -26 -2 -41 -16 -19 -18 -28 -20 -38 -12 -11 9 -19 6 -37 -13 -18
-19 -26 -22 -37 -13 -20 16 -54 -18 -47 -46 6 -25 -39 -75 -51 -57 -9 16 -22
13 -44 -10 -13 -14 -26 -19 -37 -15 -24 9 -55 -22 -48 -48 7 -28 -27 -60 -54
-52 -24 8 -57 -27 -48 -50 4 -11 -2 -26 -16 -41 -17 -18 -19 -26 -10 -35 18
-18 -36 -72 -55 -56 -10 8 -19 6 -39 -13 l-25 -23 -50 50 -50 50 21 24 c13 14
18 31 14 43 -8 26 34 71 53 56 10 -9 19 -7 38 5 28 18 30 27 13 44 -9 9 -6 18
12 37 13 14 30 23 37 21 23 -9 43 5 43 30 0 19 -5 24 -25 24 -22 0 -30 -9 -26
-32 1 -10 -13 -10 -22 -1 -4 4 5 19 20 35 20 21 29 25 40 16 10 -8 19 -6 38
12 21 20 27 21 41 9 14 -12 19 -10 35 10 12 14 17 32 13 45 -7 31 29 64 51 46
13 -11 19 -9 36 9 12 13 27 20 37 16 8 -3 25 4 38 16 17 16 27 19 40 11 26
-14 71 33 53 55 -10 11 -8 19 13 39 22 22 26 23 38 10 10 -14 9 -16 -8 -16
-25 0 -35 -25 -17 -40 18 -15 35 -5 35 21 0 11 12 31 26 44 21 20 30 23 41 13
11 -9 20 -5 41 15 19 19 31 24 38 17 7 -7 19 -4 38 11 20 16 30 19 39 10 8 -8
17 -5 33 10 18 17 21 25 12 39 -16 25 22 65 54 57 15 -4 30 1 46 16 19 18 25
19 32 7 7 -12 13 -11 34 9 16 15 31 21 42 17 11 -4 26 2 40 15 18 17 27 19 37
11 11 -9 19 -6 37 13 18 19 26 22 37 13 10 -8 19 -6 36 8 12 10 24 20 26 21 2
1 -2 10 -9 18 -11 14 -9 20 13 42 22 22 28 24 42 13 13 -11 19 -9 40 10 13 12
29 19 35 15 6 -4 22 3 35 15 21 19 27 21 40 10 13 -11 18 -10 32 9 11 17 22
22 40 18 15 -3 33 2 44 12 11 9 32 18 47 21 19 4 28 12 30 30 5 32 42 72 61
65 8 -3 25 4 37 16 20 18 26 20 39 9 13 -11 19 -9 40 10 19 18 22 26 13 40 -9
13 -6 22 11 39 24 24 37 27 44 9 3 -9 14 -4 35 15 19 18 32 25 36 18 17 -26
61 10 52 43 -3 13 2 29 16 43 17 19 19 25 8 38 -11 13 -9 18 9 34 11 10 21 22
21 27 0 5 -33 42 -73 82 l-73 73 -24 -26 -24 -25 -38 37 -38 37 -24 -23 c-27
-25 -39 -22 -69 16 -23 28 -51 30 -70 3 -14 -20 -15 -20 -53 20 l-38 40 -26
-25 c-20 -20 -29 -22 -38 -13 -10 10 -18 6 -39 -15 l-27 -27 -38 37 -38 37
-25 -24 c-19 -18 -27 -20 -38 -11 -11 9 -20 6 -39 -14 l-25 -24 -38 39 -39 40
-28 -27 c-21 -20 -30 -24 -41 -15 -11 9 -18 7 -33 -9 -11 -13 -26 -18 -38 -15
-13 3 -29 -3 -43 -16 l-23 -22 -38 37 -38 37 -24 -25 c-18 -19 -26 -22 -37
-13 -10 8 -19 6 -38 -12 -20 -19 -27 -21 -40 -10 -13 11 -19 9 -39 -9 -13 -13
-29 -19 -39 -15 -9 3 -23 -3 -34 -15 -24 -29 -34 -27 -73 14 l-34 35 -26 -25
c-20 -19 -29 -22 -38 -13 -9 9 -18 6 -37 -12 -19 -18 -28 -21 -37 -12 -9 9
-18 6 -40 -15 -21 -20 -30 -24 -41 -15 -11 9 -18 7 -33 -9 -11 -13 -26 -18
-38 -15 -13 3 -29 -3 -43 -16 -19 -17 -25 -19 -38 -8 -13 11 -20 9 -40 -10
-25 -23 -25 -23 -47 -4 -13 10 -27 25 -31 32 -12 18 -35 15 -49 -8 -9 -14 -19
-18 -36 -13 -14 3 -30 -1 -42 -12 -11 -10 -26 -15 -36 -11 -11 4 -26 -2 -40
-15 -18 -17 -27 -19 -37 -11 -11 9 -18 7 -33 -9 -11 -13 -26 -18 -38 -15 -13
3 -29 -3 -43 -16 -17 -16 -26 -18 -36 -10 -11 9 -19 6 -37 -13 -18 -20 -26
-22 -42 -14 -16 9 -25 6 -43 -11 -13 -12 -29 -19 -35 -15 -6 4 -22 -3 -35 -15
-20 -19 -27 -21 -39 -11 -12 10 -20 8 -39 -11 -18 -18 -28 -22 -40 -14 -12 8
-22 5 -40 -12 l-24 -23 -31 30 c-35 36 -57 39 -74 12 -9 -15 -15 -17 -29 -8
-15 9 -23 7 -43 -12 -20 -19 -28 -21 -39 -13 -11 9 -18 7 -33 -9 -12 -13 -26
-18 -40 -15 -13 4 -30 -2 -44 -14 -17 -15 -26 -17 -36 -9 -10 8 -19 4 -38 -18
-19 -22 -27 -25 -37 -16 -9 10 -18 8 -41 -9 -22 -15 -32 -18 -41 -9 -8 8 -18
4 -37 -14 l-26 -25 -49 50 -49 50 26 27 c22 21 30 24 42 14 11 -10 17 -8 30
11 13 19 19 21 34 11 14 -9 22 -6 44 15 21 19 30 23 41 14 11 -9 19 -6 37 13
18 19 26 22 37 13 10 -8 19 -6 38 12 20 18 28 21 37 12 9 -9 18 -6 40 15 21
20 31 24 39 16 9 -9 19 -6 39 9 16 11 33 17 40 13 6 -4 22 3 35 15 20 19 27
21 40 10 13 -11 19 -9 35 10 13 14 27 21 39 17 12 -3 29 3 42 14 18 15 25 17
37 7 12 -10 19 -7 37 17 20 24 26 27 40 15 13 -11 19 -9 40 10 19 18 28 20 38
12 11 -9 19 -6 37 13 18 19 26 22 37 13 10 -8 19 -6 38 12 23 22 25 22 50 6
14 -10 29 -24 32 -32 7 -20 23 -18 50 7 17 17 25 19 36 10 11 -9 20 -6 41 10
20 16 30 18 40 10 10 -8 19 -5 36 14 17 18 27 22 36 14 9 -7 20 -2 40 18 25
25 28 26 38 10 10 -15 13 -14 38 10 21 20 30 24 41 15 11 -9 18 -7 33 9 11 13
26 18 38 15 13 -3 29 3 43 16 18 17 26 19 35 10 9 -9 18 -6 38 13 l26 25 34
-35 c39 -40 50 -43 75 -15 14 15 21 17 32 8 11 -9 20 -5 41 15 22 21 31 24 40
15 9 -9 17 -6 37 12 19 18 28 20 38 12 11 -9 19 -6 36 12 19 20 26 22 47 12
13 -6 24 -16 24 -23 0 -14 36 -27 50 -18 5 3 10 16 10 27 0 20 1 20 18 5 24
-22 48 -22 60 -1 6 11 17 15 30 12 13 -4 29 2 42 14 12 11 28 17 37 14 10 -4
26 2 40 16 l23 22 40 -39 40 -39 25 24 c19 18 28 20 38 12 11 -9 19 -6 37 13
18 19 26 22 37 13 11 -9 20 -6 41 15 l26 27 36 -35 c20 -19 39 -35 43 -35z
m2402 -1440 c20 19 27 21 40 10 8 -7 15 -9 16 -4 0 5 4 -1 9 -14 14 -34 40
-39 62 -12 l19 24 82 -82 c81 -82 82 -82 59 -97 -29 -21 -28 -36 8 -70 35 -34
37 -46 10 -70 -14 -13 -17 -22 -10 -29 7 -7 1 -19 -17 -38 -22 -23 -24 -30
-13 -43 11 -13 9 -20 -10 -40 -21 -23 -25 -24 -39 -10 -14 13 -18 12 -37 -12
-18 -23 -24 -25 -37 -15 -13 11 -19 8 -41 -15 l-26 -28 -27 27 -27 27 23 25
c15 16 21 31 17 42 -4 11 2 26 15 40 17 18 19 27 11 37 -9 11 -6 19 13 37 19
18 22 26 13 37 -8 10 -6 19 11 36 26 29 26 35 -1 59 -21 18 -22 18 -48 -7
l-26 -25 -40 41 -39 40 -22 -28 -22 -28 -41 40 -40 39 -25 -24 c-19 -18 -28
-21 -37 -12 -9 9 -18 6 -40 -15 -21 -20 -30 -24 -41 -15 -11 9 -19 6 -37 -13
-18 -19 -26 -22 -37 -13 -10 8 -19 6 -38 -12 -20 -19 -27 -21 -39 -11 -12 10
-19 9 -37 -8 -26 -24 -56 -20 -77 10 -17 25 -37 24 -55 -1 -14 -20 -16 -20
-31 -4 -16 15 -19 15 -40 -5 -14 -13 -29 -19 -40 -15 -11 4 -26 -2 -41 -16
-19 -18 -28 -20 -38 -12 -11 9 -19 6 -37 -12 -18 -21 -26 -23 -41 -13 -15 9
-23 7 -43 -12 -16 -15 -26 -19 -31 -11 -5 8 -16 3 -36 -16 -24 -23 -31 -25
-44 -14 -13 11 -19 9 -40 -10 -19 -18 -28 -20 -38 -12 -11 9 -19 6 -37 -13
l-24 -26 -73 73 c-40 40 -73 78 -73 84 0 19 38 47 56 40 11 -4 26 2 40 15 19
18 26 20 38 10 8 -7 20 -10 26 -6 5 3 10 -2 10 -13 0 -26 30 -37 48 -18 20 19
8 46 -20 46 -17 0 -19 3 -10 12 9 9 20 4 50 -25 l38 -37 24 25 c18 19 26 22
37 13 10 -8 19 -6 38 12 20 18 28 21 37 12 9 -9 18 -6 40 15 23 22 30 24 43
13 13 -11 19 -9 40 10 13 12 28 19 34 15 6 -3 23 3 38 14 20 17 29 19 40 9 11
-9 19 -6 38 17 21 23 27 26 40 15 13 -11 20 -9 40 10 19 18 27 20 38 12 11 -9
18 -7 33 9 11 13 26 18 38 15 13 -3 29 3 43 16 l23 22 38 -37 38 -37 24 25
c17 18 27 22 36 14 15 -12 49 2 57 23 3 10 8 10 21 -1 15 -13 20 -11 44 12
l26 27 38 -37 38 -37 25 24z m-1836 -467 l42 -46 -25 -25 c-20 -20 -28 -23
-39 -14 -11 9 -18 8 -33 -9 -11 -13 -26 -18 -38 -15 -13 3 -29 -3 -42 -15 -22
-20 -23 -20 -46 -3 -13 10 -36 33 -52 51 l-28 33 27 26 c19 18 30 22 39 14 9
-7 18 -4 31 10 21 23 41 26 48 8 3 -9 12 -6 28 10 13 12 29 22 35 22 6 0 30
-21 53 -47z m-1884 -463 c34 -35 46 -37 70 -10 14 15 21 17 32 8 11 -8 19 -6
38 12 l25 24 38 -37 38 -38 26 24 c19 18 30 21 37 14 8 -8 18 -4 34 11 30 29
35 28 73 -9 l33 -32 27 22 c21 16 30 19 41 10 11 -9 19 -7 38 11 l25 24 38
-37 38 -38 19 21 c14 15 26 19 46 15 21 -5 31 -1 43 17 l16 22 40 -39 40 -39
28 27 c21 21 31 24 40 15 9 -9 16 -6 30 10 26 29 32 28 72 -13 l34 -35 22 21
c14 13 29 19 41 15 13 -4 26 1 38 14 24 27 29 26 70 -16 l37 -36 28 27 c15 15
30 23 32 18 2 -4 29 -33 61 -62 l57 -55 24 23 24 22 28 -25 29 -24 -24 -26
c-18 -19 -28 -23 -41 -16 -25 13 -66 -26 -49 -46 13 -16 0 -37 -32 -55 -14 -7
-25 -3 -49 21 -36 35 -45 37 -67 11 -13 -16 -21 -18 -36 -10 -15 9 -24 6 -43
-12 l-24 -23 -36 37 c-20 20 -40 35 -44 32 -5 -3 -11 3 -15 14 -8 26 -35 35
-53 17 -18 -18 -9 -46 18 -53 20 -5 28 -23 11 -23 -5 0 -49 40 -97 90 l-88 90
-26 -25 c-20 -19 -29 -22 -38 -13 -9 9 -17 7 -35 -10 -25 -24 -37 -28 -37 -12
0 6 6 10 14 10 20 0 27 27 11 40 -21 17 -48 4 -42 -19 3 -11 -1 -22 -9 -25 -8
-3 -13 -2 -13 2 4 25 -3 33 -28 30 -36 -4 -46 -46 -14 -55 32 -8 25 -23 -8
-17 -24 5 -30 2 -36 -17 -6 -17 -2 -27 15 -41 l22 -18 -25 0 c-13 0 -30 -7
-38 -16 -11 -13 -8 -20 19 -45 18 -17 32 -34 32 -39 0 -5 11 -12 25 -16 14 -3
25 -12 25 -20 0 -16 30 -33 48 -27 20 8 15 54 -8 60 -20 5 -28 23 -11 23 11 0
61 -50 61 -61 0 -16 26 -9 49 12 16 15 25 18 35 10 9 -8 18 -5 35 13 21 23 61
26 61 5 0 -16 86 -99 103 -99 10 0 17 -8 17 -20 0 -13 7 -20 20 -20 13 0 20
-7 20 -20 0 -11 11 -27 24 -35 36 -24 40 -45 14 -72 l-22 -23 30 -32 c16 -18
33 -34 37 -37 5 -2 -4 -16 -19 -32 -23 -24 -25 -31 -14 -44 11 -13 9 -19 -10
-35 l-23 -20 24 -27 c13 -15 31 -33 39 -39 13 -11 11 -16 -13 -42 -25 -26 -26
-30 -12 -42 13 -11 12 -15 -10 -36 -15 -13 -28 -24 -30 -24 -3 0 -21 16 -42
35 -29 27 -40 32 -55 24 -10 -5 -18 -14 -18 -19 0 -5 -12 -7 -28 -4 -20 4 -33
0 -46 -15 -15 -16 -22 -18 -33 -9 -10 8 -19 6 -37 -11 -13 -12 -33 -20 -46
-19 -16 2 -27 -4 -34 -17 -9 -17 -16 -19 -37 -12 -14 5 -30 19 -35 31 -13 31
-40 32 -56 2 l-13 -26 -92 92 c-92 90 -92 91 -117 74 -34 -21 -47 -20 -18 2
16 12 21 23 16 35 -10 26 -47 17 -55 -13 -5 -22 -7 -23 -14 -7 -5 12 -1 25 14
41 l22 23 -28 24 c-45 37 -48 48 -22 75 21 22 21 25 6 42 -22 24 -21 32 2 32
24 0 35 28 20 47 -7 8 -22 13 -33 11 -16 -2 -21 -10 -21 -30 l1 -27 -25 22
c-23 20 -45 45 -63 71 -12 18 -50 -26 -45 -51 6 -30 -26 -58 -67 -58 -26 0
-32 4 -32 20 1 13 -7 21 -21 23 -19 3 -23 -1 -23 -23 0 -18 6 -29 20 -32 11
-3 17 -9 14 -14 -5 -9 178 -199 192 -199 5 0 14 -11 20 -24 9 -19 8 -25 -9
-35 -13 -9 -18 -20 -14 -38 3 -19 -1 -32 -17 -44 -18 -15 -19 -21 -9 -38 11
-17 10 -22 -7 -31 -13 -7 -20 -21 -20 -39 0 -34 -33 -66 -69 -66 -23 0 -26 -4
-26 -32 0 -18 -4 -33 -10 -33 -6 0 -16 -9 -23 -21 -8 -13 -19 -18 -31 -14 -11
3 -26 -1 -35 -10 -20 -20 -20 -29 -1 -45 17 -14 55 -4 55 16 0 22 13 17 48
-19 31 -31 31 -33 12 -45 -11 -7 -20 -23 -20 -35 0 -32 -46 -75 -62 -59 -9 9
-18 6 -38 -13 l-26 -25 -49 50 -49 50 24 25 c13 14 29 24 36 21 19 -7 47 18
42 40 -5 26 -40 24 -53 -3 l-11 -22 -21 21 -21 21 -25 -25 c-18 -18 -29 -22
-36 -15 -8 8 -18 4 -36 -13 l-25 -24 -29 28 -29 27 26 26 26 26 -25 21 c-47
40 -51 51 -29 76 12 14 18 31 14 42 -4 12 2 25 18 38 l23 19 -37 36 c-36 35
-37 38 -22 61 9 13 20 24 25 24 5 0 4 9 -3 20 -10 16 -9 23 12 45 l24 25 -37
38 -38 38 21 19 c14 13 19 26 15 42 -3 15 2 29 17 43 l22 20 -39 40 -39 40 23
24 c15 16 21 31 17 42 -4 11 2 26 16 41 l22 23 -37 38 -37 38 25 24 c19 18 22
26 13 37 -8 10 -6 19 12 38 19 20 21 27 10 40 -11 13 -9 19 10 40 12 13 19 29
15 35 -4 6 3 22 15 35 l23 24 -36 40 -37 41 26 25 c19 19 29 23 38 16 9 -8 19
-4 36 14 16 18 27 22 35 15 15 -12 41 -4 49 16 8 22 30 17 61 -16z m2430 20
c4 -6 10 -8 14 -5 5 2 13 -7 20 -21 14 -31 41 -29 57 4 10 20 13 21 24 7 17
-20 25 -19 49 6 l20 22 42 -38 42 -38 24 27 c20 23 26 26 39 15 12 -10 19 -8
39 11 l24 23 48 -44 c27 -24 50 -47 51 -51 8 -17 51 -8 57 13 6 19 8 19 24 5
10 -9 20 -16 24 -16 9 0 59 -51 55 -56 -10 -9 -47 10 -51 27 -7 28 -37 36 -53
15 -16 -22 -9 -43 17 -51 10 -4 19 -12 19 -19 0 -21 27 -38 50 -31 11 3 20 13
20 21 0 17 5 17 31 2 18 -11 23 -10 40 11 18 22 18 25 3 42 -10 11 -23 19 -30
19 -7 0 -16 9 -19 20 -3 11 -13 20 -21 20 -8 0 -14 5 -14 11 0 6 7 8 16 5 9
-3 20 -6 25 -6 5 0 9 -6 9 -14 0 -20 25 -37 44 -30 9 4 16 17 16 33 0 16 10
37 24 50 l25 23 38 -35 38 -36 22 21 c13 12 29 18 38 14 10 -3 28 3 43 14 l26
21 38 -38 38 -37 23 22 c14 13 30 20 40 17 9 -4 24 2 36 14 28 28 31 27 71
-14 l34 -35 26 25 c20 19 29 22 38 13 9 -9 18 -6 37 12 l25 24 38 -37 38 -37
23 24 c19 21 27 23 43 15 16 -9 25 -6 44 12 l24 23 38 -37 38 -37 24 25 c18
19 26 22 37 13 10 -8 19 -6 39 13 l25 23 26 -27 27 -26 -23 -25 c-20 -21 -22
-28 -11 -41 10 -12 8 -18 -10 -33 -27 -22 -22 -48 12 -62 13 -5 19 -9 14 -9
-5 -1 -3 -8 4 -16 11 -13 9 -20 -13 -43 l-26 -27 25 -22 26 -23 -26 0 c-15 0
-29 -7 -33 -16 -7 -18 9 -51 22 -46 4 2 13 -7 20 -20 10 -19 9 -26 -7 -44 -22
-25 -23 -38 -2 -55 14 -12 14 -14 -5 -21 -36 -13 -36 -36 -2 -70 17 -17 31
-34 31 -37 0 -4 -11 -18 -25 -31 -19 -18 -22 -26 -13 -37 8 -10 6 -19 -12 -38
l-23 -25 37 -36 37 -36 -22 -25 c-18 -18 -21 -28 -13 -40 8 -13 5 -22 -15 -39
l-26 -23 39 -40 40 -41 -22 -20 c-24 -22 -28 -45 -11 -55 6 -5 3 -13 -10 -22
-28 -19 -26 -34 9 -68 36 -34 37 -46 9 -63 -15 -9 -19 -20 -15 -35 8 -30 -30
-70 -54 -57 -13 7 -22 4 -35 -10 -12 -13 -25 -18 -38 -14 -12 4 -27 -2 -43
-17 l-24 -23 -38 37 -38 37 -23 -24 c-19 -21 -26 -23 -42 -13 -16 10 -23 8
-41 -11 l-22 -22 -38 37 -38 37 -30 -29 c-16 -16 -30 -23 -30 -17 0 19 -29 14
-42 -8 -18 -28 -29 -25 -68 15 l-34 35 -26 -25 -26 -25 -34 35 c-19 19 -39 35
-46 35 -6 0 -14 9 -17 20 -3 12 -14 20 -25 20 -13 0 -22 9 -26 25 -4 17 -13
25 -27 25 -12 0 -19 5 -16 13 2 6 10 11 16 10 6 -2 16 -4 22 -5 16 -4 33 27
26 46 -9 23 -48 20 -54 -4 -7 -28 -15 -25 -54 15 -19 19 -42 35 -51 35 -11 0
-18 8 -18 19 0 23 -35 34 -51 15 -6 -8 -9 -24 -6 -35 4 -15 -1 -27 -16 -40
-19 -15 -20 -21 -9 -38 10 -17 10 -21 -1 -21 -7 0 -17 10 -22 23 -6 12 -16 21
-23 20 -7 -2 -12 5 -12 15 0 42 -51 57 -70 21 -10 -18 -7 -26 27 -60 21 -21
44 -39 51 -39 6 0 12 -6 12 -13 0 -8 14 -26 30 -40 17 -15 30 -34 30 -42 0
-22 -17 -18 -23 5 -8 31 -47 27 -47 -5 0 -22 9 -30 33 -26 10 1 9 -17 -1 -23
-5 -3 -23 10 -41 28 -30 31 -31 34 -12 39 42 11 34 67 -10 67 -13 0 -19 7 -19
21 0 16 -5 20 -27 17 -14 -2 -28 -8 -30 -14 -5 -14 25 -46 37 -39 4 3 10 -6
12 -20 6 -28 -44 -85 -57 -65 -5 8 -16 4 -34 -14 l-27 -26 -34 35 c-39 41 -46
42 -76 14 l-22 -20 -28 25 -29 25 28 26 c15 15 35 24 43 21 27 -10 45 5 42 37
-2 18 2 32 10 34 7 3 12 -4 12 -15 0 -20 25 -36 41 -26 17 10 9 46 -11 51 -19
5 -29 23 -12 23 26 -1 51 -15 55 -31 3 -13 14 -19 31 -19 21 0 26 5 26 26 0
17 -6 28 -20 31 -11 3 -20 11 -20 18 0 6 -9 20 -21 31 -21 19 -21 18 -44 -9
-13 -15 -27 -22 -30 -17 -3 6 -15 10 -26 10 -10 0 -18 3 -18 8 3 20 -3 31 -22
37 -29 9 -17 17 14 10 14 -4 27 -15 30 -26 6 -23 45 -26 53 -4 8 21 -16 47
-38 42 -14 -4 -16 -2 -8 13 7 13 5 22 -9 34 -21 19 -45 13 -57 -15 -8 -18 -14
-15 -63 35 l-54 54 22 31 c12 17 19 36 16 42 -4 6 3 21 15 34 l22 24 -35 36
c-31 32 -34 40 -24 56 6 10 15 19 19 19 14 0 9 27 -7 40 -14 11 -13 14 6 24
13 6 24 16 26 23 3 7 -31 49 -74 93 -43 45 -79 87 -81 94 -1 7 7 21 18 31 21
19 21 19 -107 147 l-127 128 -26 -25 -26 -25 -49 51 -48 50 27 27 c22 22 28
24 36 12 7 -12 13 -9 36 13 21 22 30 25 41 15 11 -9 19 -7 36 10 24 24 33 27
42 12z m-436 -174 l34 -35 28 22 29 21 30 -29 c28 -26 29 -30 13 -39 -10 -5
-21 -14 -25 -20 -10 -15 10 -46 32 -46 12 0 20 -8 22 -22 2 -17 10 -23 28 -23
20 0 25 5 25 25 0 18 -6 26 -21 28 -16 2 -23 12 -26 33 -5 33 7 40 15 8 3 -11
15 -23 26 -26 12 -3 21 -11 21 -18 0 -6 8 -19 18 -29 18 -15 20 -15 37 4 18
20 45 27 45 11 0 -5 -9 -11 -21 -14 -28 -7 -21 -41 9 -45 18 -3 22 1 22 24 0
26 3 25 66 -38 l66 -66 -23 -25 c-16 -19 -26 -24 -38 -18 -35 20 -68 -28 -39
-57 9 -9 9 -12 1 -12 -7 0 -15 9 -18 20 -3 11 -17 23 -30 26 -13 3 -25 15 -28
26 -3 11 -14 22 -25 25 -11 3 -22 13 -25 24 -7 25 -33 34 -53 18 -22 -18 -14
-53 14 -57 12 -2 22 -9 22 -17 0 -7 3 -22 6 -32 3 -10 -2 -6 -11 10 -9 15 -24
27 -35 27 -13 0 -20 7 -20 20 0 10 -9 24 -19 30 -16 8 -23 5 -39 -15 -12 -15
-23 -21 -27 -15 -3 5 -14 10 -24 10 -10 0 -21 9 -24 21 -4 15 -12 20 -29 17
-30 -4 -37 -38 -9 -45 12 -3 21 -12 21 -20 0 -12 -3 -13 -14 -4 -7 6 -20 9
-29 5 -11 -4 -16 1 -19 18 -5 37 -57 34 -58 -4 0 -13 32 -38 41 -33 5 4 9 2 9
-3 0 -16 -13 -21 -31 -12 -13 7 -22 6 -33 -6 -18 -18 -18 -17 -10 -38 3 -9 14
-16 23 -16 9 0 21 -10 26 -22 6 -13 20 -27 33 -33 12 -5 22 -16 22 -23 0 -7
12 -17 26 -22 14 -6 23 -14 19 -19 -3 -5 -1 -12 5 -16 12 -8 13 -25 1 -25 -5
0 -11 9 -14 21 -3 11 -15 23 -26 26 -12 3 -21 11 -21 19 0 17 -37 37 -52 28
-7 -5 -9 -2 -5 9 10 25 -20 49 -44 36 -25 -13 -21 -41 9 -54 12 -5 22 -18 22
-27 0 -10 10 -20 24 -24 13 -3 26 -15 29 -26 3 -11 14 -22 25 -25 11 -3 23
-12 26 -21 3 -10 9 -23 12 -29 3 -8 -1 -13 -10 -13 -8 0 -20 -8 -25 -19 -8
-14 -6 -22 8 -35 22 -20 26 -20 45 0 12 12 13 20 6 35 -16 28 5 23 24 -6 9
-14 21 -23 25 -20 5 2 12 -6 15 -19 6 -25 38 -42 56 -31 13 8 13 48 -1 62 -6
6 -18 9 -25 6 -9 -3 -14 2 -14 17 0 13 -8 24 -20 27 -11 3 -26 18 -34 33 -12
26 -12 29 5 33 36 10 34 37 -6 74 -20 19 -34 37 -31 40 4 4 13 -3 22 -15 8
-12 22 -22 30 -22 8 0 19 -11 24 -25 12 -31 46 -33 55 -5 7 23 -10 50 -31 50
-8 0 -14 9 -14 20 0 12 -10 24 -24 29 -13 5 -26 19 -29 30 -7 27 10 28 18 1 3
-11 15 -20 25 -20 11 0 20 -10 24 -25 7 -28 50 -36 60 -10 10 28 -7 51 -36 46
-5 0 -8 6 -8 14 0 8 -11 22 -25 31 -30 19 -34 39 -5 24 11 -6 25 -8 30 -5 6 3
10 -5 10 -19 0 -15 7 -27 18 -30 9 -3 22 -16 27 -28 6 -13 19 -24 30 -26 11
-2 25 -13 30 -25 14 -32 49 -29 53 4 2 20 -2 28 -17 32 -12 3 -21 10 -21 16 0
16 47 -8 54 -28 3 -9 9 -22 12 -30 4 -8 2 -11 -4 -8 -14 10 -35 -20 -28 -39 3
-9 15 -18 26 -21 11 -3 20 -13 20 -23 0 -18 19 -30 45 -30 19 0 29 38 15 55
-10 12 -10 15 1 15 8 0 19 -10 24 -22 6 -13 17 -22 26 -20 26 4 32 -49 8 -71
-25 -24 -21 -51 9 -55 13 -2 22 -10 22 -21 0 -10 10 -25 23 -34 l22 -15 -27 5
c-18 3 -28 12 -30 27 -4 28 -43 34 -57 8 -13 -24 12 -64 34 -56 10 4 15 -1 15
-16 0 -13 8 -24 18 -27 10 -2 22 -14 28 -26 8 -18 6 -27 -15 -50 -21 -23 -23
-29 -11 -37 12 -7 10 -13 -10 -35 -14 -15 -32 -24 -42 -22 -20 6 -53 -27 -43
-42 3 -6 -5 -23 -19 -38 -19 -20 -23 -30 -14 -40 16 -20 -29 -68 -49 -51 -19
16 -68 -29 -52 -48 6 -7 7 -19 3 -26 -6 -9 -10 -5 -14 12 -8 32 -46 40 -55 11
-8 -25 1 -41 21 -41 8 0 14 -4 14 -10 0 -13 -17 -13 -25 1 -5 7 -16 3 -31 -12
-14 -13 -29 -19 -40 -15 -11 4 -26 -2 -41 -16 l-23 -22 -38 37 -38 37 -26 -27
c-23 -23 -29 -24 -43 -13 -14 11 -18 10 -31 -8 -20 -30 -29 -28 -71 13 l-36
35 -22 -20 c-12 -11 -25 -20 -30 -20 -5 0 -35 26 -67 57 l-58 57 -25 -24 -25
-23 -77 74 c-43 41 -101 99 -130 129 l-52 55 24 25 25 24 -37 38 -37 38 24 25
c19 21 21 27 10 40 -11 13 -10 18 8 31 28 19 28 35 0 61 -33 30 -88 93 -88
100 0 4 10 17 21 30 17 17 19 26 11 36 -9 11 -6 19 12 37 20 18 23 26 14 40
-15 24 21 60 58 57 16 -1 31 5 38 16 9 15 7 22 -11 36 l-22 19 29 6 c25 4 30
10 30 34 0 16 9 37 19 46 16 15 18 22 8 36 -17 28 17 63 53 55 19 -4 31 0 45
15 14 15 21 17 32 8 11 -8 18 -6 34 11 14 15 27 20 41 15 13 -4 28 2 44 17 18
17 27 19 37 11 11 -9 19 -6 37 13 18 19 26 22 37 13 10 -8 19 -6 38 12 19 18
28 20 38 12 11 -9 19 -6 37 13 13 14 26 25 30 25 3 0 21 -15 39 -34z m-769
-975 c0 -5 -9 -11 -20 -14 -24 -6 -27 -42 -4 -51 24 -9 46 13 38 38 -3 12 47
-32 112 -96 l119 -118 -27 -26 -27 -27 -36 37 -37 38 -28 -27 c-19 -18 -30
-23 -35 -15 -4 6 -16 10 -26 7 -13 -4 -19 0 -19 13 0 23 -25 33 -40 15 -15
-18 -6 -45 15 -45 8 0 15 -4 15 -10 0 -20 -17 -9 -70 45 -30 30 -62 55 -72 55
-10 0 -18 6 -18 14 0 8 -10 22 -22 30 l-22 16 26 0 c29 0 43 14 43 44 0 11 6
21 13 23 7 3 12 -4 12 -16 0 -25 37 -30 46 -6 8 19 -15 48 -32 41 -8 -3 -11 0
-7 10 6 17 15 18 32 2 10 -11 16 -9 29 9 17 22 42 31 42 14z"/>
<path d="M6613 9773 c-20 -4 -23 -11 -23 -51 l0 -47 85 0 85 0 0 46 c0 40 -3
48 -22 53 -25 6 -90 6 -125 -1z"/>
<path d="M5212 6008 c-7 -7 -12 -18 -12 -25 0 -16 -5 -16 -29 -1 -30 18 -54 3
-49 -32 3 -21 -1 -35 -14 -47 -23 -21 -23 -40 1 -53 26 -13 27 -13 50 12 17
18 23 19 36 8 14 -11 19 -10 36 7 18 18 19 23 8 42 -12 18 -11 23 9 36 26 19
27 28 6 49 -19 19 -26 20 -42 4z"/>
</g>
</svg>
