<?xml version="1.0" standalone="no"?>
<!DOCTYPE svg PUBLIC "-//W3C//DTD SVG 20010904//EN"
 "http://www.w3.org/TR/2001/REC-SVG-20010904/DTD/svg10.dtd">
<svg version="1.0" xmlns="http://www.w3.org/2000/svg"
 width="720.000000pt" height="1280.000000pt" viewBox="0 0 720.000000 1280.000000"
 preserveAspectRatio="xMidYMid meet">
<metadata>
Created by potrace 1.16, written by Peter Selinger 2001-2019
</metadata>
<g transform="translate(0.000000,1280.000000) scale(0.100000,-0.100000)"
fill="#000000" stroke="none">
<path d="M0 6400 l0 -6400 3600 0 3600 0 0 1025 0 1025 -164 0 c-165 0 -201 4
-190 21 18 29 6 335 -13 348 -5 3 -12 14 -16 24 -13 36 -87 13 -87 -28 0 -23
-4 -25 -44 -25 -38 0 -45 3 -49 23 l-4 22 -2 -23 c0 -13 -8 -31 -17 -39 -13
-14 -15 -37 -12 -144 1 -70 0 -131 -4 -135 -5 -4 -8 -16 -8 -26 0 -17 -55 -18
-1472 -18 l-1473 0 3 182 c2 101 -5 325 -15 498 -9 173 -17 342 -15 376 1 33
20 179 42 324 45 294 48 358 23 397 -23 35 -156 96 -261 120 l-83 18 -19 65
c-10 36 -32 112 -49 170 -87 303 -228 666 -301 777 -20 32 -51 71 -69 87 -17
17 -31 35 -31 41 0 16 -40 52 -72 64 -21 8 -29 6 -44 -10 -9 -10 -27 -19 -40
-19 -13 0 -26 -4 -29 -10 -3 -5 -19 -10 -34 -10 -15 0 -32 -5 -39 -12 -14 -14
-27 -5 -17 12 9 15 104 60 126 60 24 0 33 18 19 35 -6 8 -31 24 -56 35 l-43
22 25 26 c52 55 115 210 117 289 1 29 6 48 11 43 15 -15 46 -143 46 -192 0
-60 15 -69 35 -22 50 119 -25 452 -132 583 l-28 35 47 -32 c65 -44 111 -108
144 -198 24 -67 26 -83 21 -164 -3 -50 -4 -90 -2 -90 3 0 12 15 22 33 24 45
24 194 0 262 -63 181 -277 368 -425 369 -50 1 -57 4 -60 22 -2 11 6 42 18 68
66 154 -32 490 -187 643 -108 105 -213 165 -359 204 -111 30 -297 30 -407 0
-99 -26 -190 -67 -245 -108 -27 -21 -54 -33 -75 -33 -71 -1 -224 -82 -319
-169 -74 -68 -112 -122 -144 -208 -31 -82 -29 -170 5 -247 24 -56 39 -56 21
-1 -17 50 -8 118 24 189 14 33 28 57 30 55 3 -2 -2 -29 -10 -59 -9 -31 -14
-84 -12 -121 4 -76 26 -116 90 -164 60 -45 62 -53 48 -186 -19 -179 -12 -233
49 -373 28 -65 50 -120 49 -121 -2 -1 -33 -12 -69 -24 -157 -52 -308 -178
-372 -311 -67 -143 -148 -371 -178 -503 -16 -72 -45 -195 -63 -272 -19 -77
-42 -171 -50 -210 -9 -38 -43 -126 -76 -195 -74 -155 -97 -248 -81 -327 6 -30
27 -91 47 -135 l36 -79 -27 -121 c-31 -134 -30 -187 6 -296 28 -84 36 -73 10
13 -27 86 -27 184 0 288 25 97 22 129 -20 225 -62 140 -53 222 43 419 40 82
70 157 77 195 6 35 28 133 49 218 21 85 48 203 60 262 22 110 47 188 127 388
60 149 73 176 121 237 62 77 234 181 344 207 26 6 30 2 67 -73 41 -80 62 -101
133 -134 21 -9 38 -24 38 -32 0 -35 43 -135 86 -197 104 -153 250 -207 464
-172 58 9 123 18 145 19 31 2 50 12 80 40 35 33 37 37 15 30 -14 -4 -38 -9
-55 -12 -16 -3 -42 -15 -56 -26 -18 -13 -62 -24 -135 -35 -213 -30 -349 22
-453 173 -26 37 -85 194 -77 202 8 8 77 15 98 10 26 -7 90 -86 138 -170 18
-32 34 -56 36 -54 7 7 -35 97 -67 144 -16 25 -31 49 -32 53 -3 10 46 45 155
111 49 29 86 54 84 56 -1 2 -36 -12 -77 -31 -91 -43 -228 -83 -312 -92 -53 -5
-70 -3 -105 15 -23 12 -48 31 -56 44 -8 12 -54 108 -103 212 l-88 190 1 100
c0 55 3 150 7 210 3 61 7 143 7 183 0 69 1 72 24 72 14 0 39 -12 57 -27 25
-21 31 -24 26 -10 -4 10 -7 20 -7 23 0 9 -63 35 -76 30 -23 -9 -17 46 11 110
22 49 109 184 120 184 2 0 -3 -24 -11 -52 -7 -29 -14 -73 -14 -98 0 -130 83
-283 196 -361 48 -33 52 -30 29 25 -26 62 -37 189 -24 275 13 88 28 125 29 71
0 -32 39 -202 55 -242 7 -17 5 -17 -21 -3 -16 8 -35 15 -43 15 -24 0 9 -31 55
-51 22 -10 60 -41 83 -70 45 -52 168 -159 184 -159 5 0 -6 17 -23 37 -32 37
-72 114 -84 163 -3 14 9 -7 28 -47 37 -78 101 -154 149 -178 48 -24 49 -19 16
46 -16 34 -28 63 -26 66 7 7 87 -146 108 -206 22 -63 25 -174 6 -211 -7 -14
-11 -35 -7 -48 5 -23 5 -23 27 7 34 45 71 134 84 202 14 70 29 88 111 130 71
36 82 36 119 0 25 -26 29 -37 29 -86 0 -69 -33 -140 -87 -184 -48 -40 -173
-101 -207 -101 -13 0 -27 -4 -30 -9 -10 -16 30 -19 70 -5 44 15 54 8 54 -40 0
-38 42 -75 174 -155 135 -81 141 -88 141 -162 0 -55 -2 -60 -45 -105 -25 -25
-36 -42 -25 -36 11 6 35 26 54 46 28 29 35 45 39 89 6 71 -15 110 -71 136 -57
28 -156 86 -170 101 -7 6 15 -1 48 -15 33 -15 107 -48 165 -74 83 -36 116 -57
155 -97 60 -62 84 -75 150 -85 28 -4 64 -13 80 -20 l30 -13 -55 -6 c-64 -7
-103 -26 -144 -69 -16 -17 -44 -34 -63 -37 -35 -7 -40 -13 -22 -31 8 -8 0 -36
-31 -104 -78 -173 -125 -350 -164 -614 -22 -151 -30 -455 -17 -631 12 -143 11
-153 -8 -204 -11 -29 -23 -71 -26 -94 -6 -33 -13 -44 -38 -56 -27 -13 -37 -29
-64 -100 -18 -47 -32 -98 -33 -115 0 -28 -7 -34 -97 -80 -106 -54 -134 -84
-168 -177 l-17 -48 -88 0 c-101 0 -284 41 -366 83 -92 46 -216 149 -244 202
-11 20 -9 30 10 70 13 26 25 66 28 89 2 22 5 42 6 43 1 1 24 -34 50 -78 27
-44 51 -78 53 -75 2 2 -21 48 -52 102 -147 255 -221 433 -256 624 -21 112 -24
155 -24 400 0 266 0 271 -10 145 l-10 -130 -23 35 c-42 65 -115 224 -158 345
-24 66 -43 114 -43 106 -2 -35 77 -241 146 -381 84 -170 77 -141 86 -398 l4
-102 -25 37 c-14 21 -40 54 -57 74 -18 20 -38 53 -45 73 -7 21 -14 35 -16 33
-8 -7 27 -90 53 -124 12 -17 23 -37 23 -44 0 -7 24 -58 54 -114 30 -56 70
-141 90 -190 38 -93 38 -111 4 -198 l-11 -28 -31 30 c-32 31 -115 71 -144 71
-9 0 8 -11 38 -23 73 -30 168 -106 203 -161 33 -53 49 -134 35 -185 -6 -19
-23 -58 -39 -86 -16 -28 -29 -57 -29 -64 0 -7 14 -46 30 -88 41 -102 40 -156
-2 -214 -51 -70 -78 -131 -78 -175 0 -51 -18 -106 -32 -98 -6 4 -24 36 -40 73
-53 117 -58 121 -141 121 -66 0 -78 -3 -129 -35 -69 -43 -98 -95 -98 -175 0
-57 15 -60 23 -5 2 19 5 11 6 -22 1 -57 -3 -62 -34 -35 -46 39 -65 74 -65 121
-1 27 -9 61 -21 81 l-20 35 6 -33 c4 -17 4 -32 2 -32 -3 0 -25 9 -49 19 -59
26 -96 64 -126 129 -21 47 -24 64 -19 126 3 44 15 95 31 133 14 35 26 71 26
80 -1 31 -59 -106 -72 -168 -23 -112 24 -237 108 -288 24 -14 44 -33 44 -42 0
-9 -30 -51 -68 -93 -123 -142 -163 -191 -184 -228 -12 -21 -25 -38 -30 -38 -4
0 -8 875 -8 1945 l0 1945 37 0 c28 0 45 8 70 32 31 30 33 31 52 14 16 -14 100
-33 163 -36 4 0 10 20 13 45 10 64 27 74 67 40 28 -24 38 -27 79 -22 45 6 47
5 53 -23 3 -16 13 -33 23 -39 17 -8 18 -4 18 62 0 74 -17 100 -34 54 -6 -16
-21 -28 -40 -32 -42 -9 -62 0 -86 35 -21 31 -43 38 -63 18 -8 -8 -15 -8 -27 2
-23 19 -35 -2 -35 -62 l0 -48 -35 0 c-41 0 -80 32 -70 58 12 31 10 37 -10 37
-11 0 -31 6 -43 13 -30 17 -62 9 -101 -24 l-31 -26 0 1536 0 1536 2649 0
c2622 0 2649 0 2644 -20 -3 -10 5 -42 18 -70 18 -39 33 -57 61 -71 l38 -20 10
26 c15 38 12 56 -10 80 -11 11 -21 32 -22 45 l-3 25 898 3 897 2 0 1775 0
1775 -3600 0 -3600 0 0 -6400z m6795 3679 c153 -68 200 -265 96 -404 -25 -34
-27 -41 -14 -50 23 -17 -3 -53 -49 -67 -30 -9 -45 -8 -80 5 -34 13 -55 15 -98
8 -30 -5 -63 -13 -73 -16 -53 -21 -137 34 -107 70 11 13 9 19 -8 38 -85 90
-82 268 6 360 77 82 216 105 327 56z m-652 5 c52 -18 116 -76 143 -132 28 -55
26 -174 -4 -229 -50 -95 -136 -143 -256 -143 -209 0 -331 220 -222 402 25 42
43 59 94 85 54 28 75 33 131 33 37 0 88 -7 114 -16z m-5834 -111 c15 -56 71
-300 71 -307 0 -3 -15 -6 -33 -6 -28 0 -34 4 -42 33 -9 29 -14 32 -49 32 -36
0 -40 -3 -48 -32 -8 -29 -13 -33 -42 -33 l-34 0 14 58 c7 31 26 110 41 175
l27 117 43 0 c40 0 43 -2 52 -37z m401 -55 l1 -93 30 38 c23 27 39 37 60 37
16 0 29 -3 29 -6 0 -4 -16 -28 -35 -53 -30 -41 -33 -50 -21 -67 7 -10 25 -40
40 -66 l27 -48 -35 0 c-30 0 -38 5 -57 40 -13 22 -26 40 -31 40 -4 0 -8 -18
-8 -40 0 -38 -2 -40 -30 -40 l-30 0 0 175 0 175 30 0 30 0 0 -92z m1740 -83
l0 -176 -42 1 c-24 1 -55 -1 -69 -5 -19 -5 -33 -1 -55 18 -28 24 -29 29 -29
106 1 69 4 85 22 102 22 22 54 28 91 15 21 -7 22 -5 22 53 l0 61 30 0 30 0 0
-175z m452 83 l3 -92 25 37 c20 30 31 37 58 37 30 0 42 -12 24 -24 -5 -3 -21
-23 -36 -44 l-27 -40 40 -66 41 -66 -35 0 c-30 0 -38 5 -57 40 -13 22 -26 40
-30 40 -5 0 -8 -18 -8 -40 0 -39 -1 -40 -35 -40 l-35 0 0 168 c0 93 3 172 7
175 3 4 19 7 34 7 l28 0 3 -92z m728 28 l0 -65 35 15 c28 11 40 12 58 3 34
-18 37 -27 37 -136 l0 -103 -30 0 -30 0 0 90 c0 75 -3 92 -16 97 -37 14 -49
-10 -52 -101 l-3 -86 -29 0 -30 0 0 175 0 175 30 0 30 0 0 -64z m530 3 c0 -58
1 -60 23 -53 76 26 107 -8 107 -118 0 -71 -2 -81 -26 -105 -21 -21 -31 -24
-57 -18 -18 4 -49 6 -69 6 l-38 -2 0 176 0 175 30 0 30 0 0 -61z m-1482 -11
c3 -35 6 -38 33 -38 24 0 29 -4 29 -25 0 -21 -5 -25 -30 -25 l-31 0 3 -67 c3
-66 4 -68 31 -71 21 -3 27 -8 23 -19 -3 -8 -6 -19 -6 -24 0 -16 -73 -10 -92 8
-14 13 -18 31 -18 90 0 66 -2 75 -20 80 -13 3 -20 14 -20 29 0 17 6 24 20 24
17 0 20 7 20 41 0 38 1 40 28 37 23 -3 27 -8 30 -40z m-2094 -58 c24 -24 34
-122 17 -173 -15 -44 -59 -66 -97 -48 -14 6 -27 11 -29 11 -3 0 -5 -29 -5 -65
l0 -65 -30 0 -30 0 0 181 0 182 39 -6 c21 -2 45 -1 52 4 19 12 60 2 83 -21z
m402 20 c8 0 23 -9 34 -20 17 -17 20 -33 20 -121 l0 -101 -32 3 c-18 1 -48 -1
-66 -5 -50 -12 -82 13 -82 64 0 44 20 64 83 81 28 7 37 15 35 27 -5 25 -45 27
-58 3 -13 -25 -48 -28 -57 -5 -13 34 56 90 95 78 8 -2 20 -4 28 -4z m293 -1
c38 -14 51 -35 51 -88 l0 -41 -61 0 c-60 0 -60 0 -57 -27 3 -32 44 -46 54 -19
4 10 18 16 35 16 35 0 39 -25 10 -61 -27 -34 -99 -34 -135 0 -23 22 -26 32
-26 96 0 79 20 120 63 128 12 2 25 5 28 6 3 0 20 -4 38 -10z m199 0 c29 -10
59 -59 45 -73 -15 -15 -51 -5 -56 15 -4 13 -12 20 -24 17 -31 -6 -27 -34 7
-48 78 -32 101 -82 61 -131 -15 -19 -29 -24 -66 -24 -37 0 -51 5 -66 24 -29
36 -25 61 11 61 24 0 30 -4 30 -21 0 -15 5 -20 22 -17 42 6 33 36 -16 58 -54
23 -75 57 -60 98 9 25 45 52 70 52 6 0 25 -5 42 -11z m219 -13 c6 -6 13 -22
15 -36 2 -21 -2 -26 -23 -28 -20 -2 -28 2 -32 18 -4 14 -12 21 -24 18 -29 -5
-21 -32 15 -50 73 -36 92 -81 53 -129 -15 -19 -29 -24 -66 -24 -37 0 -51 5
-66 24 -29 36 -25 61 10 61 21 0 30 -6 34 -21 7 -25 40 -22 45 4 3 12 -9 23
-42 37 -51 21 -70 54 -60 97 12 45 104 65 141 29z m182 13 c17 -6 36 -19 41
-29 6 -10 10 -62 10 -116 l0 -97 -40 6 c-22 3 -43 1 -46 -4 -8 -14 -47 -11
-72 7 -16 11 -22 25 -22 54 0 44 20 64 83 81 28 7 37 15 35 27 -5 25 -45 27
-58 3 -13 -25 -48 -28 -57 -5 -8 23 16 62 46 73 35 13 43 13 80 0z m319 -22
c16 -15 22 -32 22 -64 l0 -43 -61 0 c-60 0 -60 0 -57 -27 3 -32 44 -46 54 -19
8 20 64 22 64 2 0 -69 -102 -98 -158 -45 -19 17 -22 31 -22 98 0 68 3 80 23
98 12 11 29 23 37 26 25 9 73 -4 98 -26z m1000 -3 c19 -21 22 -36 22 -99 0
-70 -1 -74 -32 -100 -27 -23 -39 -26 -71 -22 -59 8 -80 35 -85 107 -3 36 1 72
9 91 24 60 111 73 157 23z m240 9 c8 -11 12 -53 12 -120 l0 -103 -30 0 -30 0
0 90 c0 75 -3 92 -17 97 -32 12 -53 -32 -53 -113 l0 -74 -30 0 -30 0 0 120 0
120 29 0 c16 0 31 -5 33 -12 3 -8 11 -7 29 5 27 20 67 15 87 -10z m530 -9 c15
-17 22 -38 22 -65 l0 -39 -61 0 c-60 0 -60 0 -57 -27 3 -32 44 -46 54 -19 4
10 18 16 35 16 35 0 40 -29 9 -60 -27 -27 -63 -34 -105 -20 -46 15 -55 34 -55
123 0 64 3 76 23 94 12 11 29 23 37 26 28 11 75 -3 98 -29z m542 10 c11 -11
15 -39 15 -117 l0 -102 -32 -3 -33 -3 0 91 c0 72 -3 92 -15 96 -33 13 -45 -15
-45 -102 l0 -84 -35 0 -35 0 0 120 0 120 35 0 c19 0 35 -4 35 -9 0 -6 12 -3
28 4 29 16 58 12 82 -11z m215 -5 c17 -16 21 -36 23 -120 l4 -100 -44 1 c-23
1 -54 -1 -68 -5 -34 -9 -80 27 -80 61 0 42 17 62 70 79 37 12 50 22 50 36 0
26 -36 25 -52 -1 -12 -19 -48 -27 -61 -14 -3 3 -1 19 5 36 20 56 108 72 153
27z m394 20 c36 -13 61 -53 61 -99 l0 -30 -59 0 c-63 0 -76 -8 -66 -40 8 -24
55 -28 55 -5 0 11 11 15 36 15 32 0 35 -2 29 -22 -4 -13 -18 -34 -33 -47 -21
-19 -33 -22 -65 -18 -60 8 -80 35 -85 109 -5 79 9 115 50 133 41 17 38 17 77
4z m204 -3 c15 -8 27 -11 27 -5 0 5 14 9 31 9 l30 0 -3 -154 c-3 -134 -5 -157
-22 -175 -42 -46 -144 -35 -166 19 -7 16 -9 34 -5 39 10 18 44 12 57 -9 27
-42 78 -15 78 41 0 18 -3 20 -12 11 -7 -7 -29 -12 -49 -12 -56 0 -79 34 -79
116 0 72 13 107 44 122 29 14 37 14 69 -2z m285 -22 c19 -22 22 -36 22 -120
l0 -95 -42 1 c-24 1 -54 -1 -68 -5 -36 -9 -80 27 -80 65 0 27 32 70 52 70 5 0
24 7 43 14 25 11 33 19 29 30 -9 22 -41 20 -56 -4 -18 -29 -58 -27 -58 3 0 73
105 101 158 41z m-3048 -94 l0 -120 -35 0 -35 0 0 113 c0 63 3 117 7 120 3 4
19 7 35 7 l28 0 0 -120z m2280 63 c19 -90 25 -92 45 -14 18 68 20 71 48 71 28
0 29 -2 23 -33 -3 -19 -25 -99 -49 -178 l-42 -144 -34 -3 c-28 -3 -33 -1 -27
14 28 74 28 99 -3 207 -18 59 -34 113 -37 122 -5 12 2 15 28 15 34 0 35 -1 48
-57z m-2440 -4003 c24 -115 -14 -274 -80 -334 -22 -20 -46 -36 -53 -36 -6 0
-57 20 -112 44 -55 24 -113 49 -128 55 -25 10 -45 36 -35 46 2 3 30 -3 61 -12
32 -9 60 -13 63 -10 3 3 -1 16 -10 29 -9 12 -16 26 -16 30 0 4 37 18 83 32 45
14 98 37 118 50 42 29 79 97 79 145 0 49 16 29 30 -39z m413 -735 c79 -38 148
-128 205 -265 83 -203 112 -402 119 -835 6 -364 -3 -519 -42 -750 -50 -285
-93 -450 -151 -572 -59 -124 -209 -257 -497 -438 -287 -181 -328 -194 -495
-160 l-88 18 -40 -26 c-28 -20 -51 -27 -84 -27 l-45 0 -28 61 c-38 82 -169
219 -244 255 -29 15 -57 24 -60 20 -3 -3 -1 -6 5 -6 7 0 12 -4 12 -9 0 -11
-69 -36 -76 -28 -3 3 4 23 15 44 21 42 57 77 134 130 35 24 55 49 81 102 40
78 72 108 125 116 70 11 84 24 107 106 28 96 57 154 91 176 15 10 64 32 110
49 l83 31 20 -43 c28 -66 42 -53 14 14 -13 31 -24 72 -24 90 0 34 44 177 62
199 5 6 32 14 60 18 70 10 112 29 190 87 106 78 338 333 338 371 0 6 -14 -12
-32 -39 -49 -74 -305 -326 -361 -355 -59 -30 -63 -26 -73 90 -5 68 -2 114 16
221 13 74 25 164 27 199 8 149 79 502 145 726 16 55 51 145 78 201 39 80 60
111 106 153 60 55 117 90 147 91 11 0 33 -7 50 -15z m-2042 -2481 c6 -4 27
-41 46 -82 25 -56 53 -95 107 -151 66 -69 103 -118 94 -125 -2 -2 -16 -8 -33
-14 -16 -6 -23 -11 -13 -11 36 -2 168 29 228 53 35 14 73 26 85 26 12 0 42 7
67 16 44 14 48 14 86 -5 44 -23 157 -122 173 -154 6 -11 7 -22 2 -26 -5 -3
-26 -27 -47 -53 l-38 -48 -289 0 c-266 0 -313 4 -279 25 5 3 10 12 10 18 0 7
-10 -1 -23 -16 -21 -27 -25 -28 -99 -25 l-77 3 54 72 c30 39 64 75 76 78 11 4
19 9 16 11 -14 14 -60 -23 -111 -90 -44 -57 -64 -76 -82 -76 -32 0 -30 7 9 48
24 26 27 32 10 23 -12 -6 -30 -25 -40 -41 l-17 -30 -113 1 c-62 0 -113 3 -113
7 0 4 5 25 10 47 21 84 49 306 48 367 -3 89 27 128 122 159 27 9 113 4 131 -7z
m-461 -206 c0 -38 42 -121 80 -160 22 -23 40 -50 40 -60 0 -21 16 -24 23 -5 4
7 6 6 6 -4 1 -15 -9 -16 -83 -12 -58 4 -110 0 -171 -12 -59 -11 -90 -14 -97
-7 -6 6 -17 8 -24 5 -9 -3 -14 1 -14 12 0 26 20 56 32 49 7 -4 8 -3 4 4 -8 14
46 95 121 180 51 58 56 62 69 45 7 -10 14 -26 14 -35z m105 -277 c32 -7 41
-26 31 -67 -6 -24 -7 -24 -147 -24 -77 0 -139 3 -137 8 3 4 11 21 18 39 10 23
24 35 49 41 41 11 141 13 186 3z"/>
<path d="M6613 9773 c-20 -4 -23 -11 -23 -51 l0 -47 85 0 85 0 0 46 c0 40 -3
48 -22 53 -25 6 -90 6 -125 -1z"/>
<path d="M6135 8909 c-11 -7 -23 -17 -27 -23 -5 -7 -8 -6 -8 3 0 11 -4 10 -19
-3 -25 -23 -33 -56 -15 -63 18 -7 18 -46 -1 -82 -12 -25 -13 -31 0 -41 21 -17
53 -3 70 31 9 16 19 29 24 29 5 0 14 12 20 28 6 15 25 46 42 70 17 24 29 46
26 49 -12 12 -93 13 -112 2z"/>
<path d="M6381 8800 c-22 -27 -47 -72 -56 -99 -11 -35 -27 -58 -53 -77 -20
-15 -39 -30 -42 -33 -3 -4 -18 -13 -35 -21 -51 -25 -141 -122 -141 -150 1 -14
-11 -43 -26 -64 -16 -22 -28 -45 -28 -50 0 -6 -7 -24 -16 -41 -18 -35 -23 -93
-7 -103 6 -4 13 -17 17 -30 14 -44 56 -82 90 -82 27 0 32 4 34 27 2 31 17 43
53 43 23 0 69 -32 69 -48 -1 -21 -21 -31 -69 -35 -52 -4 -55 -6 -58 -33 -11
-107 -12 -171 -4 -183 16 -24 39 -4 46 41 12 79 23 98 61 98 19 0 34 4 34 10
0 13 75 34 94 27 19 -8 32 -37 41 -91 6 -36 8 -38 36 -32 16 3 43 16 59 28 28
20 34 21 75 10 60 -16 80 -15 95 3 16 19 31 95 19 95 -10 0 -39 54 -39 73 0 8
12 28 28 44 26 28 39 36 110 65 17 7 32 18 32 25 0 6 6 13 13 16 26 9 -8 22
-66 24 -89 3 -119 14 -128 46 -6 21 -3 29 11 37 10 6 22 19 25 30 3 11 12 20
18 20 14 0 47 54 47 76 0 8 -4 14 -10 14 -5 0 -10 11 -10 24 0 13 -7 29 -15
36 -11 9 -14 32 -12 97 2 82 1 86 -25 107 -15 12 -49 28 -75 36 -27 8 -59 26
-73 42 -39 44 -72 38 -119 -22z"/>
<path d="M7172 8348 c-15 -15 -16 -85 -1 -90 15 -5 -10 -58 -27 -58 -8 0 -20
-13 -29 -30 -9 -16 -21 -30 -28 -30 -6 0 -23 -9 -37 -20 -15 -12 -41 -20 -65
-20 -57 -1 -77 -20 -82 -77 -9 -86 55 -131 117 -83 28 22 61 25 92 9 19 -10
20 -17 14 -88 -3 -42 -11 -92 -16 -111 -6 -19 -10 -63 -10 -98 0 -56 -3 -66
-27 -88 -23 -21 -35 -25 -65 -21 -35 5 -42 0 -40 -24 1 -3 -19 -30 -43 -61
-53 -68 -108 -92 -206 -89 -62 2 -68 0 -115 -36 -81 -63 -172 -91 -239 -74
-35 9 -51 8 -77 -3 -18 -7 -51 -19 -73 -26 -22 -7 -54 -23 -72 -36 -52 -39
-82 -40 -123 -4 -58 52 -76 42 -135 -74 -47 -93 -50 -104 -48 -167 1 -38 9
-109 19 -160 18 -97 15 -252 -6 -389 -11 -72 -13 -259 -4 -284 3 -9 28 -32 56
-52 l49 -36 32 36 c23 25 41 36 61 36 38 0 107 20 127 37 9 7 22 39 29 71 7
31 15 60 17 65 3 4 18 -20 34 -53 36 -71 70 -98 129 -102 44 -3 45 -4 86 -77
54 -94 49 -104 -58 -127 -43 -9 -78 -20 -78 -24 0 -18 -83 -33 -151 -27 -151
13 -186 -7 -200 -110 -4 -33 -18 -68 -38 -96 -27 -40 -30 -51 -25 -94 4 -26
17 -65 31 -86 19 -31 29 -38 51 -35 21 2 32 14 52 54 46 93 104 157 158 175
21 7 39 15 42 18 20 26 112 68 273 126 40 14 51 23 64 56 15 38 17 39 62 39
60 0 81 -15 83 -60 1 -39 -25 -110 -41 -110 -5 0 -24 -13 -42 -30 l-33 -30 12
-59 c19 -91 11 -108 -51 -116 -85 -10 -137 -27 -191 -61 -79 -52 -120 -86
-152 -127 l-30 -38 27 -56 c31 -64 41 -73 88 -73 25 0 49 11 90 43 30 23 64
47 76 54 24 15 65 17 65 3 0 -5 6 -10 13 -10 6 0 23 -20 35 -44 31 -57 21 -76
-58 -112 -33 -15 -60 -30 -60 -34 0 -4 -17 -12 -37 -18 -116 -32 -219 -77
-253 -111 -21 -20 -47 -43 -58 -51 -42 -31 -47 -133 -8 -174 28 -31 66 -33 90
-7 13 15 24 17 44 12 29 -9 104 0 166 19 31 9 40 9 47 -2 24 -38 -18 -145 -61
-154 -14 -3 -36 -11 -50 -19 -14 -7 -39 -21 -56 -30 -30 -15 -41 -41 -48 -111
-1 -6 -22 -34 -48 -63 -43 -47 -51 -52 -78 -46 -21 5 -32 14 -36 31 -7 28 -13
30 -28 8 -16 -22 -127 -32 -143 -13 -19 23 -21 138 -3 149 12 7 15 30 15 99
l0 89 -44 22 c-47 23 -75 19 -102 -11 -9 -11 -21 -19 -27 -19 -31 0 -38 -118
-8 -121 6 0 38 -2 71 -3 l59 -2 4 -41 c3 -39 1 -42 -27 -48 -47 -10 -101 4
-101 27 0 15 -3 16 -13 7 -7 -7 -14 -20 -15 -28 -3 -25 -8 -44 -20 -74 -17
-40 -15 -93 3 -111 9 -8 31 -18 50 -22 32 -6 48 -4 110 12 13 3 16 2 8 -3 -15
-11 -21 -42 -22 -116 -1 -36 -5 -56 -11 -52 -5 3 -10 2 -10 -2 0 -13 53 -68
73 -76 25 -9 57 -67 57 -104 0 -44 18 -80 44 -88 101 -30 128 -34 146 -25 22
12 70 10 70 -3 0 -17 -23 -51 -51 -74 -29 -25 -47 -79 -56 -168 -3 -27 -8 -52
-12 -55 -22 -16 -41 -94 -35 -146 5 -38 10 -51 16 -42 8 10 11 10 15 1 2 -7
11 -13 19 -13 20 0 18 -54 -2 -75 -14 -14 -15 -35 -9 -170 5 -101 4 -155 -3
-155 -5 0 -8 -18 -5 -44 4 -34 -1 -57 -26 -109 -17 -35 -31 -74 -31 -86 0 -12
-4 -21 -9 -21 -5 0 -21 -20 -35 -44 -18 -32 -26 -59 -26 -94 0 -36 -8 -65 -30
-105 -61 -114 -26 -239 49 -178 14 12 34 24 43 27 9 3 20 19 23 35 7 29 116
139 138 139 23 0 137 121 137 144 0 16 44 41 91 51 16 4 42 13 57 21 15 8 40
14 55 14 21 0 30 6 34 20 7 26 95 72 139 72 38 0 56 17 79 75 18 44 17 167 -2
248 -7 30 -5 52 7 90 26 77 35 224 17 287 -14 52 -31 203 -29 262 2 46 46 103
100 128 26 12 51 29 56 37 19 32 71 71 94 71 17 0 45 22 93 73 l68 72 1 198 0
198 -29 -17 c-15 -9 -61 -41 -100 -70 -117 -88 -149 -86 -177 9 -30 104 -18
258 27 349 10 20 32 83 48 140 27 90 35 108 71 142 78 73 98 129 61 174 -16
18 -30 22 -78 23 -80 1 -107 10 -111 37 -4 28 38 102 88 158 30 33 120 199
120 222 0 4 18 34 40 67 l40 60 0 293 c0 160 -4 292 -9 292 -8 0 -78 -73 -116
-121 -11 -14 -32 -33 -46 -42 -24 -16 -27 -16 -43 2 -35 38 -46 331 -16 406
15 38 27 110 40 245 20 194 35 254 74 288 14 11 32 38 41 59 9 21 30 64 46 95
l29 57 0 515 c0 284 -4 516 -8 516 -4 0 -13 -5 -20 -12z"/>
<path d="M4346 8322 c-3 -6 -28 -18 -54 -27 -26 -9 -60 -23 -77 -30 -117 -53
-178 -74 -235 -80 -84 -8 -162 -39 -176 -69 -9 -20 -7 -24 17 -35 39 -17 142
-16 171 2 12 9 40 19 61 22 21 4 53 18 73 31 19 13 39 24 44 24 5 0 13 6 17
13 23 35 55 50 128 57 42 4 81 12 87 18 10 10 15 58 7 67 -11 10 -58 15 -63 7z"/>
<path d="M5119 7931 c-37 -12 -69 -30 -69 -41 0 -4 17 -14 38 -20 20 -7 41
-16 47 -21 5 -5 17 -9 26 -9 9 0 22 -7 29 -15 7 -8 38 -22 69 -31 31 -8 70
-20 87 -25 33 -10 64 -4 64 13 0 14 -26 34 -75 58 -22 11 -62 38 -89 60 -49
41 -74 47 -127 31z"/>
<path d="M3508 7749 c-6 -4 -56 -7 -111 -7 -54 0 -103 -4 -108 -9 -13 -13 0
-46 25 -65 25 -18 153 -31 162 -16 3 4 23 8 44 8 21 0 42 5 45 10 3 6 16 10
28 10 22 0 64 37 54 47 -11 10 -127 29 -139 22z"/>
<path d="M5964 7730 c-15 -6 -23 -20 -27 -47 -5 -34 -1 -41 31 -70 42 -39 65
-41 97 -8 25 24 32 64 19 113 -5 19 -13 22 -53 21 -25 0 -56 -4 -67 -9z"/>
<path d="M6805 7730 c-11 -5 -43 -9 -71 -9 -118 -2 -220 -35 -230 -76 -10 -40
24 -124 59 -145 55 -34 71 -24 182 106 50 58 75 75 114 76 33 1 67 30 56 47
-7 13 -81 13 -110 1z"/>
<path d="M5532 7693 c10 -11 37 -29 61 -41 77 -38 98 -65 96 -119 -1 -40 5
-60 38 -118 22 -38 48 -71 57 -73 9 -2 27 9 40 25 13 16 35 34 48 42 32 16 58
61 58 98 0 37 -26 75 -80 115 -78 58 -118 73 -200 74 -41 0 -88 4 -105 9 -29
8 -30 7 -13 -12z"/>
<path d="M1356 6162 c-3 -6 -2 -13 4 -17 5 -3 10 -25 10 -48 0 -56 18 -117 36
-124 25 -9 44 17 44 63 0 23 -4 46 -10 49 -24 15 -7 24 18 11 31 -16 102 -90
102 -106 0 -16 17 -12 24 6 8 21 -3 33 -91 105 -70 58 -124 82 -137 61z"/>
<path d="M6006 5058 c-11 -6 -64 -19 -119 -29 -135 -24 -147 -33 -147 -110 0
-61 18 -117 46 -140 11 -9 18 -8 32 5 10 9 22 16 27 16 5 0 16 6 24 14 9 8 31
18 50 23 19 5 39 17 45 28 6 10 24 34 40 52 17 19 31 43 33 55 2 12 7 25 11
28 12 7 42 53 42 62 0 12 -62 9 -84 -4z"/>
</g>
</svg>
