<?xml version="1.0" standalone="no"?>
<!DOCTYPE svg PUBLIC "-//W3C//DTD SVG 20010904//EN"
 "http://www.w3.org/TR/2001/REC-SVG-20010904/DTD/svg10.dtd">
<svg version="1.0" xmlns="http://www.w3.org/2000/svg"
 width="720.000000pt" height="1280.000000pt" viewBox="0 0 720.000000 1280.000000"
 preserveAspectRatio="xMidYMid meet">
<metadata>
Created by potrace 1.16, written by Peter Selinger 2001-2019
</metadata>
<g transform="translate(0.000000,1280.000000) scale(0.100000,-0.100000)"
fill="#000000" stroke="none">
<path d="M0 6400 l0 -6400 3600 0 3600 0 0 1030 0 1030 -65 0 c-37 0 -65 4
-65 10 0 6 9 10 21 10 21 0 21 2 14 168 -3 92 -10 235 -15 317 -6 96 -6 151 0
153 6 2 8 8 5 12 -3 5 -7 46 -9 92 l-4 83 -75 0 c-81 0 -127 17 -127 47 0 10
-9 23 -20 30 -11 7 -20 18 -20 25 0 7 -5 13 -11 13 -8 0 -10 14 -6 44 l6 44
-42 -5 c-28 -3 -50 -13 -65 -30 -20 -22 -28 -24 -65 -18 -23 3 -75 6 -115 5
-58 -1 -73 2 -78 15 -6 14 -17 15 -68 10 -33 -3 -86 -1 -116 5 -30 5 -92 12
-137 14 -56 3 -90 10 -109 23 -20 13 -29 14 -32 5 -2 -8 -9 -9 -20 -3 -9 5
-51 12 -91 16 -41 3 -84 13 -95 21 -12 8 -24 10 -31 4 -7 -6 -45 -4 -101 5
-49 8 -112 15 -140 15 -35 0 -59 6 -75 19 -19 15 -37 18 -89 15 -107 -5 -123
9 -52 45 28 14 45 16 70 9 18 -5 30 -13 27 -17 -3 -5 3 -7 13 -5 9 3 36 1 60
-4 23 -6 39 -6 36 -1 -2 5 5 16 17 26 12 10 50 43 84 73 101 92 206 183 285
251 114 97 109 87 110 219 0 63 -5 216 -11 340 -12 223 -12 227 15 395 37 238
36 250 -24 287 -28 17 -113 45 -149 50 -22 3 -29 20 -86 203 -113 365 -194
513 -323 590 l-49 30 22 30 c25 33 65 141 65 177 1 46 21 -9 27 -75 4 -48 2
-71 -11 -98 l-17 -34 20 23 c37 42 52 116 40 191 -13 87 -34 156 -59 199 -28
47 -18 51 22 8 47 -49 72 -122 66 -192 -3 -38 -2 -52 6 -44 18 18 20 142 2
184 -46 111 -169 216 -252 216 -24 0 -45 4 -48 9 -3 5 1 25 9 45 41 98 -9 294
-101 396 -94 105 -260 169 -394 153 -55 -6 -58 -23 -5 -23 19 0 37 -4 40 -10
3 -5 16 -10 29 -10 12 0 33 -11 46 -25 20 -21 22 -28 12 -50 -6 -14 -18 -25
-25 -25 -7 0 -19 -16 -26 -36 -7 -19 -26 -47 -42 -62 -21 -18 -29 -34 -27 -52
3 -23 0 -25 -36 -23 -22 2 -47 10 -58 19 -10 10 -28 22 -41 29 -15 7 -21 19
-20 36 9 94 10 150 2 154 -5 4 -5 14 2 27 10 18 8 19 -13 13 -12 -4 -45 -20
-71 -36 -27 -16 -59 -29 -71 -29 -35 0 -135 -54 -191 -104 -62 -53 -105 -136
-105 -199 0 -48 17 -107 30 -107 5 0 4 13 -1 29 -7 20 -7 41 0 68 19 67 31 73
24 11 -8 -76 0 -101 47 -144 21 -20 41 -46 43 -58 2 -11 3 12 3 53 0 82 9 93
49 67 22 -14 24 -14 18 -1 -3 9 -18 19 -34 22 -25 5 -28 9 -22 32 8 36 48 115
65 129 12 9 13 0 10 -53 -4 -55 0 -73 22 -119 23 -47 111 -144 121 -134 2 2
-2 22 -10 43 -7 22 -9 41 -5 43 15 5 62 -29 124 -90 64 -62 87 -75 59 -30 -12
17 -4 12 23 -15 44 -46 84 -60 64 -23 -6 11 -8 20 -5 20 3 0 18 -26 32 -57 27
-59 35 -135 19 -180 -5 -15 -4 -23 3 -23 14 0 45 61 64 130 14 48 22 59 56 78
64 36 91 28 105 -31 9 -38 -25 -109 -66 -139 -17 -12 -56 -32 -87 -45 l-56
-24 39 3 c36 3 40 1 47 -27 7 -23 26 -41 80 -75 98 -62 119 -83 119 -121 0
-42 -48 -85 -158 -141 -79 -40 -91 -43 -179 -46 -114 -5 -161 10 -217 66 -36
37 -90 148 -80 164 3 4 19 8 35 8 32 0 63 -29 106 -99 33 -53 28 -25 -7 38
-34 61 -34 61 -20 61 10 0 120 68 120 74 0 2 -34 -9 -76 -26 -41 -16 -103 -31
-137 -35 -83 -7 -101 8 -162 141 -27 59 -50 104 -52 103 -2 -2 8 -29 21 -60
18 -40 22 -57 13 -61 -8 -3 -7 -5 3 -5 8 -1 26 -22 40 -49 14 -26 41 -57 62
-71 28 -18 41 -37 58 -83 30 -84 96 -150 173 -174 119 -37 304 14 420 117 41
35 47 46 47 79 0 57 -6 65 -75 101 -79 40 -78 51 2 14 104 -48 128 -62 165
-97 26 -26 50 -37 82 -42 53 -8 69 -23 26 -24 -93 -2 -182 -156 -238 -411 -23
-105 -26 -139 -28 -367 -2 -273 -11 -343 -50 -368 -21 -15 -54 -96 -54 -135 0
-15 -14 -27 -53 -45 -56 -25 -103 -72 -119 -118 -9 -27 -13 -28 -71 -28 -58 1
-108 8 -167 26 -25 7 -25 7 -6 -14 12 -14 31 -22 52 -22 31 0 94 -28 94 -42 0
-3 19 -4 42 -1 32 5 39 3 33 -7 -5 -8 -4 -11 3 -6 6 3 18 31 26 61 22 72 54
108 116 128 51 17 52 17 71 -6 l19 -22 -10 28 c-14 40 -12 88 5 138 17 48 29
59 63 59 28 0 93 32 112 55 10 12 3 10 -24 -5 -20 -13 -40 -20 -43 -16 -15 15
-14 126 1 234 9 64 22 151 27 192 27 199 102 456 157 534 29 42 104 96 134 96
33 0 109 -81 139 -148 35 -78 53 -145 74 -282 24 -157 16 -579 -14 -745 -49
-270 -90 -376 -179 -455 -73 -66 -266 -197 -360 -245 l-73 -37 -83 12 c-83 13
-84 13 -117 -12 -45 -34 -72 -41 -119 -33 -35 6 -39 9 -30 26 11 20 45 26 55
10 3 -5 -5 -12 -17 -14 -20 -4 -19 -4 5 -6 56 -2 42 49 -40 139 -25 28 -60 58
-76 67 -27 13 -31 13 -46 -2 -15 -15 -15 -16 1 -10 22 9 65 -15 115 -66 27
-26 40 -46 35 -53 -117 -156 -191 -228 -303 -292 -144 -82 -160 -79 -67 12
104 102 82 90 -42 -23 -55 -51 -107 -93 -116 -93 -23 0 47 123 104 185 l47 50
-53 -50 c-29 -27 -69 -78 -88 -113 -36 -63 -59 -82 -48 -37 4 15 2 25 -5 25
-6 0 -11 -8 -11 -17 -1 -16 -2 -16 -16 2 -12 15 -14 34 -10 77 10 101 49 178
140 275 16 18 27 35 24 38 -5 6 -138 -149 -138 -161 0 -3 -6 -20 -14 -37 -8
-18 -17 -45 -21 -62 l-8 -30 -21 45 c-12 25 -33 63 -47 84 -23 36 -24 44 -15
93 10 57 5 73 -18 54 -8 -7 -36 -11 -63 -10 -26 1 -68 -3 -93 -8 -25 -5 -53
-7 -62 -5 -17 3 -17 5 -2 35 25 48 74 107 87 104 6 -1 13 8 15 21 3 19 6 21
18 11 8 -6 14 -18 14 -25 0 -22 38 -16 50 7 9 16 7 27 -7 52 -11 18 -24 32
-30 32 -13 0 -123 -123 -164 -183 -34 -50 -59 -107 -59 -132 0 -10 13 -32 30
-49 l29 -32 -18 -62 c-32 -107 -43 -167 -37 -199 5 -25 3 -29 -11 -24 -14 6
-15 -2 -8 -86 13 -164 13 -173 5 -183 -4 -5 -7 -91 -6 -190 1 -99 -1 -318 -4
-487 l-5 -307 130 -4 c105 -2 86 -4 -95 -7 -124 -3 -269 -5 -324 -5 l-98 0
-20 40 c-11 22 -39 65 -62 95 -22 31 -54 88 -70 127 l-29 72 26 30 c14 17 39
75 57 133 90 293 88 286 131 353 62 95 143 242 190 342 28 59 55 110 60 111 5
2 9 9 9 17 0 7 12 39 27 71 25 53 28 71 28 164 0 143 -18 182 -134 292 -47 45
-107 97 -133 116 -27 19 -48 36 -48 38 0 14 63 125 90 159 52 65 70 109 70
170 0 47 6 64 35 109 48 72 53 109 24 190 -21 59 -22 69 -10 98 8 18 16 56 18
85 4 42 0 61 -23 105 -15 29 -35 69 -45 88 -10 19 -22 78 -28 130 -28 245 -54
420 -82 543 -38 162 -133 244 -391 338 -82 29 -118 47 -118 58 -1 25 -27 -26
-50 -99 -32 -97 -40 -109 -80 -121 -47 -14 -120 6 -234 62 -44 22 -73 33 -66
24 8 -9 27 -23 42 -31 45 -23 108 -84 108 -104 0 -10 -12 -33 -26 -50 -15 -17
-24 -34 -20 -37 9 -9 60 43 82 83 18 32 37 43 48 26 11 -17 -51 -88 -99 -112
-67 -33 -211 -41 -280 -15 -73 29 -175 163 -175 233 0 36 26 85 67 123 l36 34
-7 -29 c-6 -25 -5 -28 7 -17 8 6 18 23 21 36 10 39 54 30 72 -14 19 -46 28
-34 11 14 -11 31 -21 41 -46 47 -42 11 -138 73 -151 97 -16 30 -12 123 6 149
8 12 25 22 37 22 29 -1 104 -70 113 -103 6 -26 47 -67 65 -67 4 0 9 26 11 58
3 52 5 57 26 55 20 -3 22 2 23 45 1 26 4 58 8 72 6 21 9 15 15 -30 6 -46 9
-52 19 -38 66 91 130 178 132 178 2 0 -3 -21 -11 -47 -8 -26 -13 -51 -12 -55
6 -17 84 45 121 94 41 56 44 54 22 -18 -8 -27 -15 -50 -15 -52 0 -2 14 5 31
15 35 20 81 82 107 144 l18 42 23 -39 c13 -21 26 -55 28 -75 5 -32 1 -41 -33
-73 -40 -37 -33 -49 12 -20 31 21 49 7 40 -30 -4 -17 -13 -26 -26 -26 -10 0
-28 -13 -39 -29 -25 -35 -27 -49 -5 -30 15 12 16 11 10 -9 -11 -32 12 -28 27
5 11 26 12 25 18 -32 l6 -60 1 70 c2 61 8 81 42 149 22 43 40 91 40 106 0 44
18 45 27 3 l7 -38 7 45 c7 55 -5 104 -37 147 -31 40 -30 45 8 64 37 18 50 40
19 32 -22 -5 -105 32 -151 67 l-25 19 23 16 c34 25 26 35 -27 35 -41 0 -118
19 -229 55 -10 4 -8 11 5 32 18 26 18 27 -2 18 -11 -5 -78 -12 -150 -15 -114
-6 -136 -10 -183 -34 -52 -26 -62 -23 -41 15 9 18 8 19 -9 10 -31 -17 -70 -67
-77 -101 -4 -17 -14 -34 -23 -37 -78 -24 -123 -56 -149 -106 l-16 -31 32 27
c39 33 62 36 34 5 -77 -87 -119 -267 -78 -338 l14 -25 1 35 c1 53 15 65 17 14
1 -24 7 -61 14 -82 13 -40 99 -183 146 -243 15 -20 28 -41 28 -48 0 -7 -51
-34 -112 -61 -141 -61 -383 -190 -454 -242 -65 -48 -150 -152 -185 -227 -32
-67 -59 -192 -79 -376 -9 -77 -24 -167 -35 -200 -10 -33 -23 -89 -30 -125 -6
-36 -19 -99 -28 -140 -16 -66 -21 -75 -42 -78 -54 -8 -140 -101 -195 -211 -30
-59 -30 -57 -1 -236 8 -49 21 -110 30 -134 13 -34 16 -84 16 -231 0 -222 -5
-211 118 -270 107 -51 160 -53 247 -10 33 16 67 30 75 30 10 0 25 -28 43 -81
15 -44 52 -122 83 -172 51 -85 54 -93 48 -137 -6 -46 16 -120 36 -120 4 0 19
-11 32 -25 22 -21 26 -35 26 -83 0 -39 6 -72 20 -99 12 -22 28 -74 37 -114 20
-93 47 -164 96 -254 44 -83 57 -115 99 -254 28 -94 36 -108 81 -151 45 -43 49
-51 49 -92 l0 -46 -1065 1 -1065 1 3 986 c2 542 7 1000 11 1018 5 20 4 37 -3
46 -14 16 -14 4069 -1 4101 l9 20 0 -20 c1 -17 4 -16 25 10 20 25 30 29 63 27
36 -3 39 -1 48 29 6 18 16 35 24 37 11 4 12 -3 7 -32 -4 -21 -2 -50 5 -70 10
-27 17 -33 43 -33 17 -1 46 -4 65 -8 l33 -8 -8 54 c-15 103 -13 114 24 117 18
2 43 9 56 16 l24 12 -18 42 c-16 35 -24 42 -48 42 -36 0 -57 -24 -54 -60 4
-37 -9 -43 -58 -30 -38 10 -40 13 -40 49 0 48 -18 64 -73 64 -64 1 -82 -17
-82 -83 -1 -55 -27 -116 -46 -104 -5 3 -9 217 -9 490 l0 484 3590 0 3590 0 0
1775 0 1775 -3600 0 -3600 0 0 -6400z m6786 3682 c159 -63 211 -265 105 -407
-25 -34 -27 -41 -14 -50 24 -18 0 -52 -48 -67 -33 -9 -47 -9 -72 2 -36 16
-116 15 -165 -1 -47 -15 -97 -4 -117 27 -13 20 -14 28 -4 40 10 12 8 19 -9 37
-37 39 -62 108 -62 171 0 78 16 128 58 176 79 93 205 120 328 72z m-643 2 c52
-18 116 -76 142 -130 60 -126 7 -282 -117 -344 -139 -69 -312 -20 -376 106
-42 84 -38 184 12 267 25 41 43 58 94 84 54 28 75 33 131 33 37 0 88 -7 114
-16z m-5806 -224 c52 -224 51 -200 11 -200 -31 0 -36 4 -41 30 -6 27 -11 30
-42 30 -19 0 -38 0 -42 1 -4 0 -11 -14 -16 -30 -7 -27 -12 -31 -41 -31 l-34 0
14 58 c7 31 26 110 41 175 l27 118 44 -3 45 -3 34 -145z m373 58 l1 -93 30 38
c23 27 39 37 60 37 16 0 29 -3 29 -6 0 -4 -16 -28 -35 -54 l-34 -47 28 -45
c56 -89 56 -88 17 -88 -30 0 -38 5 -57 40 -26 45 -39 43 -39 -6 0 -31 -2 -34
-30 -34 l-30 0 0 175 0 175 30 0 30 0 0 -92z m1740 -83 l0 -176 -42 1 c-24 1
-54 -1 -68 -5 -43 -11 -77 25 -85 88 -7 58 7 128 30 147 17 14 51 17 83 6 21
-7 22 -5 22 53 l0 61 30 0 30 0 0 -175z m452 83 l3 -92 25 37 c20 30 31 37 58
37 30 0 42 -12 24 -24 -5 -3 -21 -23 -36 -44 l-27 -40 40 -66 41 -66 -35 0
c-30 0 -39 6 -62 43 l-28 42 -3 -42 c-3 -42 -4 -43 -38 -43 l-34 0 0 168 c0
93 3 172 7 175 3 4 19 7 34 7 l28 0 3 -92z m728 27 l0 -66 30 16 c33 17 60 13
85 -11 11 -12 15 -40 15 -120 l0 -104 -30 0 -29 0 -3 92 c-3 83 -5 93 -22 96
-33 7 -46 -25 -46 -110 l0 -78 -30 0 -30 0 0 175 0 175 30 0 30 0 0 -65z m530
4 c0 -58 1 -60 23 -53 76 26 107 -8 107 -118 0 -71 -2 -81 -26 -105 -20 -20
-31 -24 -52 -18 -15 4 -46 6 -69 5 l-43 -1 0 176 0 175 30 0 30 0 0 -61z
m-1480 -9 c0 -38 2 -40 30 -40 25 0 30 -4 30 -25 0 -21 -5 -25 -30 -25 l-31 0
3 -67 c3 -66 4 -68 31 -71 21 -3 27 -8 23 -19 -3 -8 -6 -19 -6 -24 0 -16 -73
-10 -92 8 -14 13 -18 31 -18 90 0 66 -2 75 -20 80 -13 3 -20 14 -20 29 0 17 6
24 20 24 17 0 20 7 20 40 0 38 2 40 30 40 28 0 30 -2 30 -40z m-2096 -61 c24
-23 34 -121 17 -172 -15 -44 -59 -66 -97 -48 -14 6 -27 11 -29 11 -3 0 -5 -30
-5 -66 l0 -65 -27 3 -28 3 -3 179 -2 179 37 -5 c21 -3 47 -2 58 3 26 10 55 2
79 -22z m402 21 c8 0 23 -9 34 -20 17 -17 20 -33 20 -121 l0 -101 -32 3 c-18
1 -48 -1 -66 -5 -50 -12 -82 13 -82 64 0 44 20 64 83 81 28 7 37 15 35 27 -5
26 -48 28 -55 3 -6 -25 -51 -29 -60 -5 -13 34 56 90 95 78 8 -2 20 -4 28 -4z
m290 0 c39 -15 53 -39 54 -87 l0 -43 -61 0 c-60 0 -60 0 -57 -27 3 -32 44 -46
54 -19 4 10 18 16 35 16 35 0 39 -25 10 -61 -27 -34 -99 -34 -135 0 -23 22
-26 32 -26 96 0 79 20 120 63 128 12 2 25 5 29 6 4 0 19 -4 34 -9z m201 -1
c32 -12 43 -26 43 -56 0 -31 -45 -33 -53 -3 -7 26 -47 27 -47 1 0 -12 12 -23
33 -31 74 -30 97 -83 58 -131 -40 -50 -151 -22 -151 38 0 19 5 23 29 23 21 0
30 -6 34 -21 7 -25 40 -22 45 4 3 12 -9 23 -42 37 -76 32 -89 107 -23 135 39
17 39 17 74 4z m197 -3 c31 -13 53 -55 38 -71 -14 -14 -50 -3 -55 16 -4 13
-12 20 -24 17 -29 -5 -21 -32 15 -50 73 -36 92 -81 53 -129 -15 -19 -29 -24
-66 -24 -37 0 -51 5 -66 24 -29 36 -25 61 10 61 21 0 30 -6 34 -21 7 -25 40
-22 45 3 2 12 -11 24 -43 39 -74 35 -85 107 -21 135 39 17 40 17 80 0z m205 3
c17 -6 36 -19 41 -29 6 -10 10 -62 10 -115 l0 -97 -32 3 c-18 1 -48 -1 -66 -5
-50 -12 -82 13 -82 64 0 44 20 64 83 81 28 7 37 15 35 27 -5 25 -45 27 -58 3
-11 -22 -44 -28 -55 -10 -13 21 5 57 37 72 40 20 46 20 87 6z m319 -22 c16
-15 22 -32 22 -64 l0 -43 -61 0 c-60 0 -60 0 -57 -27 3 -32 44 -46 54 -19 9
23 64 21 64 -2 0 -69 -107 -94 -163 -37 -23 23 -24 151 -1 183 32 46 97 50
142 9z m1000 -3 c18 -21 22 -36 22 -98 0 -58 -4 -76 -20 -94 -43 -45 -130 -36
-157 18 -16 32 -17 121 -1 156 26 56 112 66 156 18z m240 8 c8 -10 12 -52 12
-119 l0 -103 -30 0 -30 0 0 90 c0 99 -12 119 -50 85 -17 -15 -20 -31 -20 -97
l0 -78 -30 0 -30 0 0 120 0 120 29 0 c16 0 31 -5 33 -11 2 -6 14 -5 33 5 33
17 63 13 83 -12z m530 -8 c15 -17 22 -38 22 -65 l0 -39 -61 0 c-60 0 -60 0
-57 -27 3 -32 44 -46 54 -19 4 10 18 16 35 16 35 0 40 -29 9 -60 -27 -27 -63
-34 -105 -20 -46 15 -55 34 -55 123 0 64 3 76 23 94 12 11 29 23 37 26 28 11
75 -3 98 -29z m539 12 c7 -6 13 -53 15 -116 l3 -105 -32 -3 -33 -3 0 91 c0 72
-3 92 -15 96 -33 13 -45 -15 -45 -102 l0 -84 -35 0 -35 0 0 120 0 120 35 0
c19 0 35 -4 35 -9 0 -6 12 -3 28 4 28 15 58 12 79 -9z m221 -12 c19 -22 22
-36 22 -120 l0 -95 -42 1 c-24 1 -54 -1 -68 -5 -35 -9 -80 27 -80 64 0 39 19
60 70 75 33 10 46 19 48 35 4 28 -31 29 -51 0 -22 -30 -63 -23 -59 11 10 70
109 91 160 34z m391 25 c36 -13 61 -53 61 -99 l0 -30 -59 0 c-65 0 -73 -5 -64
-38 6 -26 53 -32 53 -7 0 11 11 15 36 15 32 0 35 -2 29 -22 -13 -43 -42 -63
-90 -63 -64 0 -87 27 -93 105 -5 75 11 118 52 136 38 16 36 16 75 3z m204 -3
c15 -8 27 -11 27 -5 0 5 14 9 30 9 l30 0 0 -149 c0 -134 -2 -151 -20 -174 -41
-52 -147 -44 -170 13 -7 16 -9 34 -5 39 10 18 44 12 57 -9 26 -41 78 -15 78
40 0 17 -3 19 -19 10 -36 -19 -78 -12 -100 16 -16 21 -21 41 -21 90 0 72 13
107 44 122 29 14 37 14 69 -2z m285 -22 c19 -22 22 -36 22 -120 l0 -95 -42 1
c-24 1 -54 -1 -68 -5 -34 -9 -80 27 -80 61 0 42 17 62 70 79 37 12 50 22 50
36 0 26 -36 25 -50 -1 -11 -20 -54 -28 -64 -12 -10 16 29 76 54 84 40 11 83 0
108 -28z m-3048 -94 l0 -120 -35 0 -35 0 0 113 c0 63 3 117 7 120 3 4 19 7 35
7 l28 0 0 -120z m2280 63 c19 -91 25 -93 45 -14 17 70 18 71 50 71 l33 0 -24
-82 c-79 -281 -76 -273 -113 -276 -28 -3 -33 -1 -27 14 29 76 29 101 -4 209
-17 59 -34 113 -37 121 -4 10 4 14 29 14 34 0 35 -1 48 -57z m389 -3818 c1
-27 -4 -68 -10 -90 -11 -40 -53 -95 -73 -95 -20 0 -171 69 -174 80 -5 13 9 13
44 0 33 -13 39 -8 25 18 -10 18 -7 21 22 27 77 17 134 62 143 114 6 30 8 32
15 16 4 -11 8 -42 8 -70z m-3427 -710 c11 -14 29 -25 41 -25 12 0 31 -7 41
-15 11 -8 28 -15 38 -15 10 0 30 -7 43 -16 l25 -16 -34 -38 c-19 -21 -37 -47
-41 -59 -3 -12 -13 -21 -20 -21 -17 0 -30 -42 -21 -65 4 -12 -4 -15 -39 -15
-25 0 -45 4 -45 9 0 6 -19 14 -42 18 l-43 9 0 76 c0 61 -4 80 -20 99 -11 13
-16 21 -11 17 5 -4 22 9 38 30 25 31 46 47 67 51 2 1 12 -10 23 -24z m1173
-605 c4 -11 18 -31 31 -43 l25 -23 -25 -45 c-39 -72 -42 -102 -12 -156 26 -45
26 -47 9 -71 -10 -13 -26 -36 -35 -50 l-16 -25 -11 39 c-6 21 -17 49 -26 61
-13 19 -13 25 0 57 20 47 18 82 -5 131 l-19 40 26 45 c14 25 28 48 30 53 8 13
22 7 28 -13z m165 -635 c8 -3 24 -17 34 -32 18 -25 18 -29 2 -112 -9 -47 -16
-132 -16 -189 0 -57 -5 -113 -11 -125 -13 -26 -70 -87 -80 -87 -10 0 1 41 19
68 8 12 12 25 9 29 -4 3 -23 -30 -44 -73 -28 -58 -47 -84 -71 -98 l-34 -19 24
49 c37 74 71 164 65 170 -3 3 -8 -5 -13 -18 -11 -36 -66 -150 -86 -180 -18
-26 -68 -45 -88 -33 -6 4 -1 18 12 35 34 46 14 46 -22 0 -32 -40 -34 -70 -7
-70 8 0 33 7 56 15 41 14 71 12 71 -7 0 -13 -29 -69 -52 -97 -24 -32 -44 -102
-73 -258 -18 -98 -32 -148 -64 -212 -23 -47 -41 -92 -41 -100 0 -9 -20 -35
-44 -59 -56 -55 -81 -133 -81 -253 0 -83 1 -87 34 -125 19 -21 58 -57 88 -79
60 -46 78 -68 97 -122 l13 -38 -162 3 -163 3 -7 57 c-7 56 -15 93 -74 328 -22
84 -31 146 -31 200 0 167 -19 314 -51 394 -26 65 -29 82 -24 136 5 46 3 68 -9
92 -9 18 -16 55 -16 89 l0 58 21 -35 c15 -24 23 -58 27 -105 5 -79 23 -109 59
-102 13 2 23 1 23 -4 0 -16 41 -32 53 -20 6 6 20 11 30 11 23 0 117 92 139
135 9 17 21 53 28 80 12 46 10 56 -15 130 -16 44 -32 84 -37 89 -16 20 -8 -25
19 -91 l27 -67 -17 -65 c-17 -64 -44 -118 -54 -108 -2 3 0 14 6 25 6 12 11 39
11 61 0 46 -26 175 -40 200 -13 22 -12 19 5 -74 23 -119 21 -151 -13 -228 -17
-37 -36 -67 -41 -67 -14 0 -14 35 -1 80 13 45 2 184 -17 207 -13 17 -14 16 -8
-6 20 -70 23 -139 8 -206 -18 -85 -35 -107 -60 -82 -15 15 -16 24 -4 92 11 67
10 83 -5 131 -20 64 -31 66 -14 3 10 -34 9 -60 0 -114 -16 -94 -17 -97 -37
-93 -15 3 -19 18 -24 78 -7 84 -42 171 -94 232 -17 21 -53 81 -79 134 -26 53
-59 112 -73 130 l-25 34 33 41 c18 23 52 50 76 61 38 17 45 17 71 4 15 -8 55
-41 88 -73 72 -72 165 -151 220 -187 44 -29 72 -72 100 -156 17 -52 18 -54 24
-25 4 21 12 31 28 33 18 3 22 -1 22 -25 0 -16 6 -38 14 -49 13 -17 14 -15 9
21 -3 24 2 63 12 95 19 65 45 203 45 243 0 56 -17 16 -24 -55 -7 -80 -33 -187
-49 -203 -7 -7 -8 -4 -3 9 4 11 2 43 -4 72 -10 49 -9 61 21 151 30 92 35 102
98 163 37 36 80 88 95 117 16 29 36 54 45 55 18 4 98 -7 121 -17z m-1532 -176
c20 1 33 -1 29 -5 -4 -4 12 -14 35 -21 57 -17 66 -16 42 3 -10 8 2 4 27 -11
29 -16 53 -23 64 -18 14 5 16 3 10 -7 -6 -10 -3 -12 14 -7 13 3 20 3 17 0 -8
-8 39 -43 59 -43 9 0 15 -6 13 -14 -2 -8 45 -61 103 -118 59 -57 114 -115 123
-129 18 -29 30 -72 17 -65 -4 3 -13 1 -21 -5 -10 -6 -11 -9 -2 -9 6 0 12 -8
12 -17 0 -15 -1 -15 -12 -1 -12 16 -40 22 -83 19 -20 -2 -20 -2 -1 -16 17 -13
18 -15 3 -15 -9 0 -17 -6 -17 -12 0 -9 -4 -8 -11 2 -8 12 -9 9 -5 -12 5 -21
-1 -35 -25 -63 -31 -35 -32 -38 -30 -125 2 -60 -1 -90 -9 -90 -7 0 -10 -26 -8
-77 3 -72 5 -78 25 -81 22 -3 22 -6 25 -200 2 -108 7 -205 12 -214 6 -14 4
-18 -9 -18 -9 0 -13 -4 -10 -10 3 -6 4 -10 2 -10 -3 0 -15 18 -26 41 -17 31
-19 44 -11 55 13 14 4 38 -10 29 -5 -3 -10 0 -13 7 -2 7 -3 6 -2 -2 0 -8 7
-14 13 -13 14 3 16 -13 2 -22 -18 -11 -89 155 -116 274 -8 36 -25 86 -36 111
-21 44 -22 45 -5 145 10 55 17 114 17 132 0 35 -16 51 -33 34 -8 -8 -8 -11 1
-11 8 0 12 -20 12 -59 0 -94 -5 -99 -56 -47 -37 37 -44 50 -44 82 0 22 7 53
16 69 58 106 82 177 54 160 -5 -3 -10 -14 -10 -24 0 -28 -50 -132 -61 -126 -5
4 -9 12 -9 18 0 7 -17 39 -38 72 -39 61 -94 186 -106 240 -4 17 -9 39 -12 50
-4 14 -3 16 4 7 7 -11 11 -7 14 12 4 21 1 27 -18 32 -25 7 -30 31 -14 69 l9
20 0 -20 c1 -17 3 -17 11 -5 7 11 10 5 11 -25 l2 -40 7 45 c4 25 4 56 0 70
l-7 25 -7 -23 c-4 -13 -10 -21 -12 -19 -3 2 1 17 8 32 11 25 13 26 25 9 10
-13 24 -18 51 -15z m2398 -180 c-4 -29 0 -45 19 -73 30 -44 50 -83 60 -116 7
-21 6 -23 -7 -12 -9 7 -21 33 -28 57 -7 25 -16 48 -20 50 -12 7 16 -80 35
-108 9 -14 23 -28 31 -31 8 -3 14 -19 14 -37 0 -17 8 -41 18 -54 18 -23 18
-26 0 -116 -29 -149 -7 -228 102 -353 33 -38 60 -73 60 -78 0 -4 -13 -14 -30
-23 -26 -14 -34 -14 -65 -1 -64 27 -229 153 -306 233 -146 153 -177 270 -124
473 28 104 76 214 98 224 7 3 43 4 80 4 l68 -1 -5 -38z m654 -182 c60 -18 110
-58 167 -135 30 -40 57 -80 60 -89 4 -9 -8 -28 -33 -50 -37 -34 -174 -127
-245 -166 -17 -10 -29 -20 -26 -23 3 -3 15 -1 26 5 32 18 92 -18 129 -76 37
-58 57 -119 83 -242 32 -157 22 -213 -45 -245 -76 -36 -76 -36 -322 207 -124
122 -243 248 -264 280 -54 80 -66 146 -50 262 7 50 14 93 17 97 2 4 12 2 23
-4 15 -10 25 -7 59 15 22 15 51 27 63 27 22 0 171 81 241 131 38 28 46 28 117
6z m271 -299 c0 -2 3 -96 5 -210 4 -187 7 -218 33 -320 16 -62 34 -126 40
-141 15 -39 14 -45 -10 -58 -18 -9 -26 -6 -56 23 -44 41 -63 84 -97 223 -51
202 -77 258 -145 317 l-40 34 102 61 c56 34 111 63 122 66 25 6 45 8 46 5z
m1445 -765 c13 -15 23 -25 24 -20 0 10 100 -41 127 -66 l23 -20 -34 -37 c-19
-21 -37 -52 -41 -69 -4 -18 -18 -39 -31 -47 -19 -13 -22 -20 -14 -34 18 -34
11 -40 -50 -40 -49 0 -67 5 -99 28 -21 15 -48 40 -59 56 -19 27 -20 31 -5 53
15 22 14 29 -3 81 -10 31 -22 62 -26 68 -5 6 1 21 12 34 11 12 22 30 25 39 4
15 14 16 66 10 51 -6 66 -12 85 -36z"/>
<path d="M6613 9773 c-20 -4 -23 -11 -23 -51 l0 -47 85 0 85 0 0 46 c0 40 -3
48 -22 53 -25 6 -90 6 -125 -1z"/>
<path d="M609 8418 c-16 -18 -32 -40 -35 -50 -3 -10 -20 -20 -40 -24 -41 -7
-48 -17 -40 -50 6 -22 11 -25 34 -20 101 23 146 24 188 6 17 -7 42 -10 58 -6
31 8 66 59 66 98 0 23 -7 29 -50 43 -27 9 -52 21 -55 26 -4 5 -26 9 -51 9 -38
0 -50 -5 -75 -32z"/>
<path d="M980 8271 c-8 -5 -41 -12 -73 -16 -56 -6 -67 -12 -104 -59 -13 -16
-13 -16 82 -31 22 -4 47 -13 57 -22 13 -12 24 -12 55 -4 21 6 51 11 67 11 28
0 29 1 23 47 -7 68 -57 102 -107 74z"/>
<path d="M564 8198 c-24 -13 -46 -17 -65 -13 -22 5 -31 2 -35 -10 -4 -9 -2
-21 5 -28 17 -17 13 -55 -6 -59 -10 -2 -37 1 -59 6 -48 10 -74 4 -74 -19 0
-38 120 -56 133 -20 3 7 20 16 38 20 18 4 40 16 48 27 23 27 53 14 49 -21 -3
-25 -1 -26 47 -27 76 -1 73 1 64 -46 -4 -24 -8 -47 -9 -51 0 -5 17 -7 38 -5
27 2 36 7 33 18 -2 8 -3 31 -2 50 1 19 3 64 4 98 l2 64 -31 -5 c-20 -3 -42 1
-60 12 -46 28 -80 30 -120 9z"/>
<path d="M399 7231 c-22 -18 -24 -26 -23 -105 l2 -86 -39 -12 c-44 -13 -43 -9
-28 -63 12 -45 35 -75 57 -75 8 0 32 -14 54 -31 46 -37 57 -33 35 13 -8 18
-23 72 -32 119 -16 82 -16 88 1 120 25 48 34 99 23 121 -12 23 -21 23 -50 -1z"/>
<path d="M1255 7047 c-4 -10 -5 -48 -1 -85 6 -61 4 -72 -24 -127 -16 -33 -30
-71 -30 -83 0 -24 1 -23 47 10 26 18 57 52 69 76 22 41 22 43 5 89 -10 27 -27
68 -38 93 -17 37 -22 42 -28 27z"/>
<path d="M751 6546 c-7 -12 -11 -38 -9 -57 3 -31 0 -36 -40 -56 -24 -12 -50
-27 -58 -34 -8 -7 -43 -22 -77 -34 l-62 -21 0 -92 c0 -99 5 -110 55 -121 l31
-6 -21 -23 c-11 -12 -16 -22 -11 -22 6 0 8 -7 5 -15 -8 -21 9 -19 36 5 13 11
27 20 32 20 4 0 8 36 8 80 0 64 3 80 15 81 8 1 19 2 24 3 15 2 45 47 65 96 10
25 24 59 32 75 28 61 35 89 29 117 -8 35 -37 37 -54 4z"/>
<path d="M1180 6175 c0 -24 -12 -80 -42 -198 -5 -21 -19 -48 -30 -59 l-21 -21
21 -16 c17 -12 22 -28 23 -69 1 -29 6 -55 11 -58 4 -3 8 -14 8 -25 0 -17 3
-18 20 -9 11 6 25 8 30 5 5 -3 11 14 14 37 3 24 10 79 16 123 16 111 24 249
16 278 -3 13 -11 24 -18 24 -7 0 -21 4 -30 8 -15 6 -18 2 -18 -20z"/>
<path d="M632 6034 c-1 -12 -9 -27 -17 -34 -8 -7 -15 -26 -15 -42 0 -16 -7
-40 -16 -53 -13 -20 -14 -31 -5 -55 13 -38 -1 -65 -41 -79 -33 -12 -34 -23 -7
-101 17 -48 19 -73 14 -124 -4 -35 -4 -82 0 -103 l6 -39 56 11 c66 13 69 18
71 130 1 44 6 91 12 105 11 24 162 154 194 166 9 3 16 11 16 18 0 7 15 16 32
21 18 6 34 18 36 27 5 24 -31 12 -68 -22 -16 -15 -42 -31 -57 -35 -16 -3 -45
-18 -65 -32 -64 -44 -99 -14 -73 63 8 25 15 54 15 65 0 32 -30 69 -56 69 -18
0 -24 6 -27 33 -2 17 -5 22 -5 11z"/>
<path d="M4220 5177 c0 -4 7 -22 17 -40 11 -22 18 -65 20 -137 l4 -105 -21 24
c-36 42 -31 17 15 -78 71 -146 76 -160 69 -208 -4 -30 -11 -43 -22 -43 -13 0
-12 -3 5 -15 33 -23 63 -79 65 -119 1 -20 -9 -59 -22 -86 -23 -50 -24 -51 -6
-99 23 -65 23 -104 0 -138 -32 -48 -44 -74 -44 -98 0 -13 -5 -36 -11 -52 l-10
-28 -32 60 c-31 59 -33 60 -78 63 -34 2 -52 -2 -70 -18 l-24 -20 30 15 c65 32
106 15 139 -58 13 -29 44 -72 70 -97 25 -24 46 -52 46 -62 0 -20 20 -18 95 9
22 8 55 17 74 20 20 3 28 8 21 13 -9 5 -6 18 9 51 24 50 24 49 11 49 -5 0 -10
-8 -10 -17 0 -13 -3 -14 -12 -5 -7 7 -20 12 -29 12 -33 0 -41 27 -41 140 0 87
3 116 17 136 16 25 16 26 -7 42 -45 32 -97 84 -103 103 -4 11 -1 27 5 35 7 8
15 28 19 46 l7 32 23 -35 c31 -47 26 -34 -57 131 -83 168 -112 279 -112 436 0
67 -4 95 -13 101 -8 4 -19 17 -25 28 -6 11 -12 16 -12 12z"/>
<path d="M348 4590 c-11 -27 -25 -50 -29 -50 -16 0 -9 -57 9 -80 14 -18 30
-23 66 -24 26 -1 50 -7 55 -14 5 -9 16 -3 39 22 17 19 28 36 26 39 -3 3 4 8
15 12 25 8 61 56 61 83 0 13 -9 22 -24 26 -14 3 -32 13 -41 22 -12 13 -21 14
-38 7 -12 -6 -31 -7 -42 -2 -11 4 -33 8 -48 8 -25 1 -31 -5 -49 -49z"/>
<path d="M391 4359 c-12 -5 -44 -28 -70 -50 -25 -23 -66 -51 -89 -61 -43 -19
-44 -20 -36 -56 12 -54 10 -115 -4 -120 -19 -6 -14 -40 9 -52 11 -7 21 -10 22
-8 21 40 47 82 76 117 50 63 73 98 104 160 39 78 37 90 -12 70z"/>
</g>
</svg>
