<?xml version="1.0" standalone="no"?>
<!DOCTYPE svg PUBLIC "-//W3C//DTD SVG 20010904//EN"
 "http://www.w3.org/TR/2001/REC-SVG-20010904/DTD/svg10.dtd">
<svg version="1.0" xmlns="http://www.w3.org/2000/svg"
 width="720.000000pt" height="1280.000000pt" viewBox="0 0 720.000000 1280.000000"
 preserveAspectRatio="xMidYMid meet">
<metadata>
Created by potrace 1.16, written by Peter Selinger 2001-2019
</metadata>
<g transform="translate(0.000000,1280.000000) scale(0.100000,-0.100000)"
fill="#000000" stroke="none">
<path d="M0 6400 l0 -6400 3600 0 3600 0 0 1025 0 1025 -2060 2 c-2046 3
-2059 3 -2075 23 -25 33 -15 77 22 100 38 23 50 56 34 91 -6 14 -11 60 -11
104 0 43 -4 90 -9 103 -12 31 -60 49 -100 37 -23 -6 -31 -5 -35 7 -9 23 -7 69
5 115 11 42 10 47 -45 158 -61 124 -67 156 -36 198 11 15 23 49 26 75 6 40 3
51 -14 70 -43 46 -36 117 12 117 39 0 144 -59 158 -88 7 -15 19 -27 26 -26 6
1 24 2 38 3 17 1 23 5 17 14 -19 30 -31 81 -23 101 4 11 19 32 34 45 l25 24
62 -18 c79 -22 100 -12 140 68 31 61 31 97 0 97 -10 0 -21 3 -25 7 -4 4 -35
13 -68 20 -55 11 -108 43 -108 64 0 13 46 59 59 59 18 0 51 38 51 60 0 18 -7
20 -77 20 -107 0 -192 -15 -208 -37 -8 -10 -19 -38 -25 -63 -25 -93 -33 -112
-58 -135 -15 -14 -30 -25 -35 -25 -4 0 -32 -18 -61 -40 -56 -43 -86 -49 -107
-24 -17 21 -63 44 -88 44 -10 0 -31 -15 -45 -32 -15 -18 -31 -37 -36 -43 -35
-36 -50 -46 -58 -41 -6 3 -25 -20 -42 -51 -39 -69 -72 -99 -124 -115 -77 -24
-116 29 -77 105 22 43 17 84 -18 141 -35 56 -40 88 -26 157 9 40 10 70 4 80
-21 41 -4 104 26 93 7 -3 16 -1 19 4 3 5 27 7 54 4 49 -4 54 -2 155 58 49 29
50 66 4 116 -28 31 -41 37 -85 42 -35 3 -52 1 -52 -7 0 -6 -10 -11 -23 -11
-13 0 -27 -4 -33 -10 -5 -5 -32 -7 -63 -3 -47 5 -62 13 -108 55 -51 46 -55 48
-116 48 -35 1 -73 7 -87 15 -18 11 -63 14 -171 15 -128 0 -148 2 -162 18 -35
38 -14 115 40 156 24 18 27 18 53 2 16 -9 44 -16 63 -16 49 0 86 -16 123 -51
l31 -30 6 34 c12 77 91 147 165 147 31 0 63 -26 110 -89 32 -42 72 -41 189 7
78 31 104 48 164 106 59 56 72 75 76 107 5 38 5 39 -25 39 -21 0 -32 6 -36 18
-4 10 -19 31 -35 46 -29 28 -31 28 -171 30 l-142 2 -27 32 c-32 39 -63 41
-113 7 -27 -18 -41 -38 -53 -76 -15 -44 -23 -54 -59 -70 -22 -10 -54 -28 -71
-39 -21 -14 -46 -20 -87 -20 -53 0 -59 -2 -73 -29 -8 -17 -17 -47 -20 -67 -7
-55 -41 -74 -47 -27 -2 21 -10 29 -37 36 -23 5 -43 5 -59 -3 -39 -17 -85 3
-100 43 -7 18 -25 46 -42 62 -27 26 -31 27 -43 13 -6 -9 -48 -35 -92 -57 -104
-51 -175 -123 -175 -176 0 -19 7 -52 15 -73 32 -76 34 -104 8 -147 -45 -75
-65 -128 -65 -166 1 -52 7 -59 50 -59 50 -1 158 -32 182 -53 39 -33 19 -171
-28 -196 -29 -16 -74 -16 -100 -2 -13 7 -34 36 -47 64 -32 71 -58 97 -100 97
-55 0 -84 16 -101 57 -66 156 -92 199 -130 217 -132 63 -169 85 -194 115 -28
33 -28 34 -14 80 7 25 14 58 14 73 0 20 17 45 58 89 31 33 67 79 80 102 17 32
34 47 72 64 45 19 50 25 50 53 0 53 -26 88 -84 116 -56 26 -66 41 -66 101 l0
32 -54 -6 c-53 -5 -56 -5 -89 32 -40 43 -63 43 -87 0 -14 -26 -25 -31 -76 -40
-32 -5 -65 -14 -71 -18 -18 -11 -16 -76 3 -112 24 -46 23 -99 -4 -128 -12 -13
-22 -29 -22 -35 0 -27 -40 -52 -82 -52 -24 0 -48 -4 -54 -8 -18 -12 -24 -211
-8 -258 8 -21 14 -53 14 -70 0 -30 31 -74 51 -74 6 0 37 -25 69 -56 43 -41 65
-55 82 -52 21 3 23 9 26 63 4 97 7 105 46 105 27 0 41 -8 71 -41 34 -38 37
-46 32 -86 -3 -31 -12 -49 -27 -60 -12 -9 -39 -31 -59 -49 -20 -18 -45 -41
-57 -51 -26 -22 -54 -75 -54 -102 0 -39 14 -53 93 -92 45 -22 88 -45 96 -53 9
-7 50 -29 91 -49 49 -23 81 -45 90 -62 7 -14 29 -37 47 -51 44 -34 32 -59 -33
-69 -25 -3 -68 -20 -95 -36 -28 -16 -55 -29 -60 -29 -6 0 -41 13 -79 30 -38
16 -79 30 -93 30 -56 0 -86 24 -121 96 -18 38 -48 86 -65 108 -28 35 -31 45
-31 108 0 52 -4 70 -15 74 -8 4 -15 15 -15 25 0 32 -63 93 -96 94 l-29 0 -3
2733 -2 2732 3590 0 3590 0 0 1775 0 1775 -3600 0 -3600 0 0 -6400z m6730
3699 c64 -14 102 -34 140 -71 94 -96 103 -243 21 -353 -25 -34 -27 -41 -14
-50 13 -10 13 -15 2 -33 -26 -42 -91 -54 -143 -27 -24 13 -38 13 -90 3 -108
-20 -145 -17 -172 17 -22 28 -23 31 -7 42 15 12 15 15 -5 35 -55 60 -78 178
-50 269 23 77 103 146 195 168 51 12 70 12 123 0z m-563 -22 c112 -59 170
-203 129 -320 -41 -113 -135 -177 -261 -177 -176 0 -294 136 -267 306 16 95
64 156 157 197 52 22 194 19 242 -6z m-5858 -104 c15 -56 71 -300 71 -307 0
-3 -16 -6 -35 -6 -30 0 -35 3 -35 24 0 31 -13 39 -59 39 -31 0 -36 -3 -43 -31
-8 -28 -13 -32 -42 -32 l-34 0 14 58 c7 31 25 110 40 175 l28 117 42 0 c41 0
44 -2 53 -37z m401 -55 l1 -93 30 38 c23 27 39 37 60 37 16 0 29 -3 29 -6 0
-4 -16 -27 -35 -53 l-34 -47 21 -35 c11 -19 29 -49 40 -66 l20 -33 -36 0 c-30
0 -38 5 -57 40 -26 45 -39 43 -39 -6 0 -31 -2 -34 -30 -34 l-30 0 0 175 0 175
30 0 30 0 0 -92z m1740 -83 l0 -176 -42 1 c-24 1 -55 -1 -69 -5 -19 -5 -33 -1
-55 18 -28 24 -29 29 -28 107 1 68 4 85 21 102 22 21 54 27 91 14 21 -7 22 -5
22 53 l0 61 30 0 30 0 0 -175z m452 83 l3 -92 25 37 c20 30 31 37 58 37 30 0
42 -12 24 -24 -5 -3 -21 -23 -36 -44 l-27 -40 41 -66 41 -67 -38 3 c-32 3 -41
9 -58 40 -26 49 -35 48 -35 -2 0 -39 -1 -40 -35 -40 l-35 0 0 175 0 175 35 0
34 0 3 -92z m728 27 l0 -66 30 16 c33 17 60 13 85 -11 11 -12 15 -40 15 -120
l0 -104 -30 0 -30 0 0 90 c0 75 -3 92 -16 97 -37 14 -49 -10 -52 -101 l-3 -86
-29 0 -30 0 0 175 0 175 30 0 30 0 0 -65z m530 4 c0 -58 1 -60 23 -53 76 26
107 -8 107 -118 0 -71 -2 -81 -26 -105 -20 -20 -31 -24 -52 -18 -15 4 -46 6
-69 5 l-43 -1 0 176 0 175 30 0 30 0 0 -61z m-1480 -9 c0 -38 2 -40 30 -40 25
0 30 -4 30 -25 0 -21 -5 -25 -30 -25 l-31 0 3 -67 c3 -66 4 -68 31 -71 21 -3
27 -8 23 -19 -3 -8 -6 -19 -6 -24 0 -16 -73 -10 -92 8 -14 13 -18 31 -18 90 0
66 -2 75 -20 80 -13 3 -20 14 -20 29 0 17 6 24 20 24 17 0 20 7 20 40 0 38 2
40 30 40 28 0 30 -2 30 -40z m-2095 -61 c17 -16 20 -33 20 -100 0 -77 -1 -82
-29 -106 -28 -24 -47 -26 -88 -8 -16 6 -18 0 -18 -59 l0 -66 -30 0 -30 0 0
181 0 182 38 -5 c20 -3 46 -2 57 3 26 10 55 2 80 -22z m438 -1 c14 -16 17 -39
17 -120 l0 -100 -32 3 c-18 1 -48 -1 -66 -5 -50 -12 -82 13 -82 64 0 44 20 64
83 81 28 7 37 15 35 27 -5 26 -48 28 -55 3 -6 -25 -51 -29 -60 -5 -8 21 27 67
58 75 36 11 82 0 102 -23z m253 22 c39 -15 53 -39 54 -87 l0 -43 -61 0 c-60 0
-60 0 -57 -27 3 -32 44 -46 54 -19 9 23 64 21 64 -2 0 -51 -67 -84 -124 -62
-45 17 -55 38 -56 116 0 78 20 119 63 127 12 2 25 5 29 6 4 0 19 -4 34 -9z
m201 -1 c32 -12 43 -26 43 -56 0 -31 -45 -33 -53 -3 -7 26 -47 27 -47 1 0 -12
12 -23 33 -31 74 -30 97 -83 58 -131 -40 -50 -151 -22 -151 38 0 19 5 23 30
23 24 0 30 -4 30 -21 0 -15 5 -20 22 -17 41 6 32 33 -19 59 -91 46 -80 134 19
148 4 1 19 -4 35 -10z m197 -3 c31 -13 53 -55 38 -71 -14 -14 -50 -3 -55 16
-4 13 -12 20 -24 17 -29 -5 -21 -32 15 -50 73 -36 92 -81 53 -129 -15 -19 -29
-24 -66 -24 -37 0 -51 5 -66 24 -29 36 -25 61 10 61 21 0 30 -6 34 -21 7 -25
40 -22 45 3 2 12 -11 24 -43 39 -74 35 -85 107 -21 135 39 17 40 17 80 0z
m205 3 c17 -6 36 -19 41 -29 6 -10 10 -62 10 -115 l0 -96 -37 1 c-21 1 -50 -2
-65 -6 -45 -10 -78 18 -78 66 0 44 20 64 83 81 28 7 37 15 35 27 -5 25 -45 27
-58 3 -6 -13 -21 -21 -35 -21 -62 0 -3 95 61 99 6 1 25 -4 43 -10z m318 -21
c17 -16 23 -33 23 -65 l0 -43 -61 0 c-60 0 -60 0 -57 -27 3 -32 44 -46 54 -19
8 20 64 22 64 2 0 -69 -102 -98 -158 -45 -19 17 -22 31 -22 98 0 68 3 80 23
98 12 11 29 23 37 26 25 10 73 -2 97 -25z m1001 -4 c18 -21 22 -36 22 -98 0
-77 -15 -107 -61 -121 -31 -10 -84 3 -105 26 -23 26 -31 127 -13 170 24 60
111 73 157 23z m240 8 c8 -10 12 -52 12 -119 l0 -103 -30 0 -30 0 0 90 c0 75
-3 92 -17 97 -32 12 -53 -32 -53 -113 l0 -74 -30 0 -30 0 0 120 0 120 29 0
c16 0 31 -5 33 -11 2 -6 14 -5 33 5 33 17 63 13 83 -12z m529 -4 c17 -16 23
-33 23 -65 l0 -43 -61 0 c-60 0 -60 0 -57 -27 3 -32 44 -46 54 -19 4 10 18 16
35 16 22 0 29 -5 29 -20 0 -42 -64 -79 -115 -66 -52 13 -65 39 -65 124 0 69 3
81 23 99 12 11 29 23 37 26 25 10 73 -2 97 -25z m539 8 c7 -6 15 -59 19 -118
l7 -108 -36 0 -36 0 0 90 c0 72 -3 92 -15 96 -33 13 -45 -15 -45 -102 l0 -84
-35 0 -35 0 0 120 0 120 35 0 c19 0 35 -4 35 -9 0 -6 12 -3 28 4 28 15 58 12
78 -9z m219 -7 c17 -16 21 -36 23 -120 l4 -100 -44 1 c-23 1 -54 -1 -68 -5
-35 -9 -80 27 -80 64 0 39 19 60 70 75 33 10 46 19 48 35 3 17 -2 21 -22 21
-16 0 -27 -7 -31 -20 -4 -12 -15 -20 -29 -20 -32 0 -36 7 -24 42 20 56 108 72
153 27z m394 20 c36 -13 61 -53 61 -99 l0 -30 -59 0 c-65 0 -73 -5 -64 -38 6
-26 53 -32 53 -7 0 11 11 15 36 15 32 0 35 -2 29 -22 -4 -13 -18 -34 -33 -47
-21 -19 -33 -22 -65 -18 -59 8 -80 35 -85 107 -5 75 11 118 52 136 38 16 36
16 75 3z m204 -3 c15 -8 27 -11 27 -5 0 5 14 9 31 9 l30 0 -3 -155 c-3 -145
-4 -156 -26 -177 -17 -18 -34 -23 -73 -23 -43 0 -54 4 -75 29 -14 15 -24 36
-22 45 5 25 45 26 60 2 26 -42 78 -16 78 39 0 17 -3 19 -19 10 -36 -19 -78
-12 -100 16 -17 21 -21 41 -21 93 0 92 16 118 80 130 3 0 17 -6 33 -13z m282
-17 c17 -16 21 -35 23 -120 l4 -100 -44 1 c-23 1 -54 -1 -68 -5 -35 -9 -80 27
-80 64 0 39 19 60 70 75 33 10 46 19 48 35 4 28 -33 29 -50 1 -12 -19 -48 -27
-60 -14 -15 14 11 60 43 77 40 20 84 15 114 -14z m-3045 -100 l0 -120 -32 3
-33 3 -3 104 c-1 58 0 111 2 118 3 7 19 13 36 13 l30 0 0 -121z m2280 64 c19
-91 25 -93 45 -14 17 70 17 71 51 71 22 0 32 -4 29 -12 -3 -7 -25 -84 -50
-171 -24 -87 -47 -162 -50 -168 -4 -5 -20 -9 -37 -9 -24 0 -29 3 -24 16 28 74
28 99 -3 207 -18 59 -34 113 -37 122 -5 12 2 15 28 15 34 0 35 -1 48 -57z
m-2934 -6150 c43 -35 44 -64 4 -102 -20 -19 -33 -43 -37 -68 -3 -21 -19 -64
-35 -97 -29 -57 -29 -60 -14 -100 12 -31 13 -50 6 -76 -16 -57 -33 -74 -75
-74 -69 0 -100 77 -50 124 32 30 31 39 -5 85 -39 50 -45 74 -32 141 10 48 9
59 -8 88 -20 37 -14 46 32 46 24 0 138 39 153 52 14 13 24 10 61 -19z m-687
-352 c21 -21 44 -88 35 -103 -3 -4 1 -8 10 -8 8 0 16 -5 18 -11 3 -8 14 -8 43
0 22 6 57 11 78 11 44 0 47 -13 17 -78 -14 -30 -18 -57 -15 -90 2 -25 0 -64
-5 -86 -10 -48 -7 -52 85 -96 39 -19 73 -38 76 -43 18 -25 -8 -50 -89 -88 -79
-38 -89 -40 -142 -34 -65 8 -103 -6 -156 -57 -40 -37 -66 -32 -141 29 -58 47
-131 83 -166 83 -12 -1 -33 -7 -47 -15 -14 -8 -42 -14 -63 -15 -55 0 -77 40
-77 142 0 91 11 121 63 170 50 48 66 52 122 34 79 -27 76 -30 114 127 32 133
42 142 169 145 40 2 57 -3 71 -17z m-861 -154 c31 -33 43 -109 27 -166 -7 -25
-20 -73 -29 -106 -9 -33 -19 -68 -22 -77 -8 -27 -60 -24 -75 4 -17 32 -15 97
4 134 9 17 19 66 22 110 3 43 8 89 11 102 6 29 34 29 62 -1z m1873 -319 c62
-34 72 -54 42 -80 -22 -18 -95 -23 -125 -7 -49 25 -73 80 -46 107 21 21 68 13
129 -20z m-2061 -3 c22 -13 11 -81 -19 -119 -35 -44 -49 -95 -30 -106 8 -4 31
-19 52 -31 l39 -24 -7 -80 c-9 -108 -1 -135 36 -135 33 0 167 -64 186 -89 17
-22 16 -52 -3 -108 -21 -61 -55 -96 -94 -96 -39 0 -56 16 -75 71 -9 26 -38 71
-64 101 -53 59 -86 68 -134 36 -23 -14 -25 -14 -31 0 -3 9 -6 136 -6 281 0
260 0 265 22 287 18 18 32 22 70 21 26 -2 52 -5 58 -9z m1986 -149 c27 -19 47
-87 35 -118 -5 -14 -30 -42 -56 -64 -45 -37 -51 -39 -104 -36 -73 5 -101 23
-101 65 0 40 15 57 51 57 27 0 69 39 69 63 0 20 34 47 59 47 15 0 36 -6 47
-14z m-996 -383 c28 -24 25 -50 -10 -103 -24 -36 -30 -56 -30 -97 0 -57 -7
-63 -54 -42 -34 16 -86 116 -86 167 0 33 5 44 28 60 36 26 50 30 94 31 22 1
46 -6 58 -16z m1763 -141 c37 -33 6 -92 -58 -108 -16 -4 -36 -13 -43 -21 -19
-18 -185 -18 -201 0 -8 11 -1 19 32 37 23 14 53 26 66 28 14 2 51 23 83 47 60
45 84 49 121 17z"/>
<path d="M6613 9773 c-20 -4 -23 -11 -23 -51 l0 -47 85 0 85 0 0 46 c0 40 -3
48 -22 53 -25 6 -90 6 -125 -1z"/>
<path d="M4173 7542 c-15 -27 -22 -30 -62 -28 -48 1 -62 -14 -45 -52 6 -14 8
-13 13 8 5 18 15 26 34 28 15 2 27 0 27 -4 0 -4 -25 -53 -56 -110 -30 -57 -51
-104 -46 -104 15 0 38 31 86 115 36 64 46 75 52 60 12 -30 8 -76 -9 -127 -25
-73 -3 -57 43 31 23 44 61 108 85 142 24 35 42 65 39 68 -11 12 -61 -41 -92
-97 l-34 -62 -18 36 c-18 34 -18 39 -3 76 19 48 10 62 -14 20z"/>
<path d="M2938 7014 c-32 -17 -37 -34 -10 -34 13 -1 10 -6 -12 -23 -17 -12
-37 -22 -45 -24 -9 -1 -17 -7 -20 -14 -2 -6 -11 -19 -20 -28 -31 -31 -13 -101
43 -163 31 -35 39 -35 24 -3 -9 19 -9 28 0 37 9 9 18 6 37 -12 22 -21 28 -22
35 -10 5 8 10 21 10 28 0 6 5 12 10 12 6 0 10 7 10 15 0 8 6 15 14 15 8 0 13
8 12 18 -1 12 6 17 24 17 23 0 25 -4 25 -41 0 -40 7 -47 33 -31 6 5 17 5 22 2
6 -3 10 -1 10 5 0 6 7 18 15 26 10 11 14 30 11 62 -5 68 -8 75 -38 95 -16 11
-25 23 -22 28 3 5 -3 9 -13 9 -10 1 -34 7 -54 14 -30 10 -37 10 -49 -2 -12
-13 -14 -13 -19 1 -5 14 -9 14 -33 1z"/>
<path d="M4109 6883 c7 -3 -13 -14 -45 -25 -58 -19 -104 -56 -104 -83 0 -16
-38 -40 -47 -31 -4 3 2 15 12 26 16 17 16 20 3 15 -9 -4 -19 -14 -23 -23 -5
-14 -7 -14 -16 -2 -8 12 -9 11 -5 -5 2 -11 7 -35 11 -52 4 -18 11 -33 16 -33
4 0 6 14 2 32 l-6 31 21 -21 c12 -12 22 -26 22 -30 0 -5 18 -23 40 -41 34 -28
40 -37 40 -71 0 -22 4 -40 8 -40 17 0 62 57 57 72 -7 18 30 54 40 38 4 -6 -1
-22 -9 -35 -12 -18 -13 -25 -4 -25 6 0 25 -12 41 -27 23 -21 28 -23 23 -9 -4
13 -2 17 7 13 8 -3 21 7 31 24 9 16 21 29 27 29 13 0 11 -11 -7 -31 -15 -16
-14 -17 5 -12 22 6 30 -12 9 -20 -7 -3 -4 -6 7 -6 11 0 29 6 39 14 11 8 23 15
27 15 14 0 -5 -51 -24 -65 -16 -11 -18 -15 -6 -15 23 0 50 34 58 71 8 40 28
48 40 17 l10 -23 0 23 c1 26 -70 108 -102 118 -33 10 -75 53 -87 90 -13 38
-82 104 -108 103 -12 0 -13 -2 -3 -6z"/>
<path d="M3114 6675 c-8 -19 -14 -39 -14 -45 0 -13 -17 -12 -65 5 -21 8 -41
12 -43 10 -2 -2 6 -6 18 -10 12 -4 19 -13 16 -20 -7 -19 5 -27 21 -13 33 27
22 -23 -15 -64 -19 -22 -82 -24 -120 -4 -29 15 -72 67 -72 87 0 7 -11 -1 -25
-17 -14 -16 -25 -34 -25 -40 0 -6 -9 -19 -20 -29 -11 -10 -20 -24 -20 -30 0
-7 -9 -24 -20 -38 -12 -15 -20 -40 -20 -62 0 -43 -15 -39 -24 6 -5 28 -8 30
-22 18 -15 -12 -16 -31 -10 -156 4 -78 11 -155 15 -171 7 -23 4 -33 -20 -60
-16 -18 -29 -29 -29 -25 0 4 -6 -1 -13 -11 -11 -16 -10 -30 11 -95 33 -102 54
-122 131 -124 49 -2 61 1 61 13 0 9 3 11 8 5 4 -5 13 -10 20 -10 7 0 22 -18
32 -40 11 -22 17 -30 14 -17 -3 13 4 46 17 78 21 51 25 55 49 48 63 -17 109
-22 153 -17 l47 6 0 -35 c0 -42 -26 -70 -58 -61 -15 4 -22 1 -22 -10 0 -15
-33 -29 -83 -36 -5 0 -1 -8 8 -17 13 -14 21 -15 41 -5 24 10 25 10 19 -11 -5
-14 3 -8 20 16 21 31 24 41 13 47 -7 5 -8 9 -2 9 5 0 15 -5 21 -11 9 -9 16 -8
28 5 10 10 25 14 40 10 12 -3 26 -1 29 5 4 6 0 11 -10 11 -15 0 -14 4 7 26
l24 27 -27 -18 -28 -17 0 35 c0 29 6 38 39 60 21 14 55 46 75 70 47 57 50 121
10 180 -14 21 -24 43 -22 49 4 10 68 -86 68 -101 0 -4 9 -16 20 -26 11 -10 20
-24 20 -30 0 -7 18 -27 40 -46 22 -19 40 -42 40 -51 0 -11 7 -18 18 -18 14 0
15 2 2 10 -8 5 -12 11 -10 13 3 2 26 20 51 39 43 32 45 36 28 46 -11 7 -19 19
-19 27 0 8 -16 36 -36 61 -40 53 -74 116 -74 137 0 8 -7 20 -15 27 -8 7 -15
20 -15 30 0 9 -9 25 -19 34 -12 11 -21 38 -26 72 -6 53 -51 200 -73 241 -12
21 -40 35 -105 52 -38 10 -39 9 -53 -24z"/>
<path d="M4380 6350 c0 -3 16 -50 34 -105 24 -70 30 -102 22 -107 -8 -5 -7 -8
2 -8 7 0 10 -5 7 -10 -4 -6 5 -20 19 -31 32 -26 33 -43 1 -85 -24 -32 -34 -74
-16 -74 4 0 11 -16 14 -36 5 -28 0 -46 -25 -87 -40 -67 -67 -97 -87 -97 -9 0
-42 21 -74 47 -60 47 -63 54 -46 112 3 10 -14 20 -55 32 -62 19 -107 54 -126
98 -7 17 -31 35 -68 53 -63 29 -66 28 -77 -36 -6 -31 -5 -37 5 -31 9 5 11 4 6
-4 -4 -6 -12 -8 -18 -5 -8 5 -9 -6 -4 -37 5 -24 8 -55 7 -69 0 -14 -1 -47 -1
-74 0 -28 -5 -53 -11 -57 -8 -5 -8 -16 0 -41 9 -26 24 -42 60 -62 27 -14 60
-26 75 -26 14 0 26 -3 26 -8 0 -9 59 -36 66 -29 3 2 22 1 44 -4 28 -6 48 -5
74 6 20 9 36 12 36 8 0 -4 5 -2 12 5 7 7 20 12 30 12 9 0 28 5 42 12 22 9 25
17 22 47 -2 20 -1 26 1 14 2 -12 11 -21 21 -21 9 0 50 -6 90 -14 l72 -15 6 26
c15 66 47 182 67 238 20 57 20 63 5 80 -36 41 -72 129 -78 188 -5 55 -7 60
-30 63 -57 6 -70 13 -84 45 -14 29 -66 99 -66 87z"/>
<path d="M3961 5433 c-20 -22 -11 -136 13 -162 25 -27 52 -27 70 2 19 29 21
52 12 110 -7 43 -9 46 -27 37 -10 -6 -19 -7 -19 -3 0 5 -8 13 -18 19 -13 9
-21 8 -31 -3z"/>
<path d="M3111 5433 c5 -30 -4 -62 -26 -85 -22 -24 -23 -27 -8 -40 12 -9 15
-9 9 -1 -4 7 0 23 8 35 15 22 16 21 16 -25 0 -43 2 -47 24 -47 17 0 26 -7 30
-24 10 -41 69 -96 103 -96 45 0 53 15 44 81 -1 3 -19 34 -42 69 -35 55 -42 61
-51 46 -13 -24 -49 -35 -73 -24 -17 8 -20 17 -18 58 2 27 -2 52 -7 55 -6 4
-10 3 -9 -2z"/>
<path d="M3166 5014 c-19 -26 -42 -29 -91 -9 -16 7 -15 5 4 -12 23 -18 24 -23
13 -64 -9 -35 -8 -49 3 -73 20 -39 19 -43 -5 -21 -11 10 -20 25 -21 34 0 10
-2 11 -6 4 -7 -19 55 -103 77 -103 33 0 52 43 50 112 -1 50 -5 159 -5 158 0 0
-8 -12 -19 -26z"/>
<path d="M1574 4986 c-18 -8 -35 -19 -38 -25 -4 -6 -32 -18 -63 -27 -63 -18
-98 -50 -109 -97 -3 -18 -11 -38 -16 -44 -11 -14 -8 -53 12 -148 7 -33 14 -70
16 -82 6 -30 36 -30 95 -1 30 15 68 23 123 26 61 3 84 9 100 24 12 11 44 35
73 54 49 33 52 38 58 89 11 83 3 99 -78 160 -39 30 -78 61 -85 70 -16 18 -47
19 -88 1z"/>
<path d="M4115 4923 c-3 -16 -12 -37 -20 -47 -14 -19 -16 -19 -28 -2 -12 17
-15 17 -50 -4 -37 -22 -46 -40 -10 -22 22 11 43 5 43 -12 0 -7 -14 -32 -31
-56 -24 -34 -35 -41 -55 -37 -21 4 -23 1 -17 -22 6 -23 5 -25 -10 -12 -11 8
-17 9 -17 3 0 -6 9 -16 21 -22 47 -26 139 28 139 80 0 16 6 33 14 37 22 12 46
64 46 100 0 41 -16 51 -25 16z"/>
</g>
</svg>
