<?xml version="1.0" standalone="no"?>
<!DOCTYPE svg PUBLIC "-//W3C//DTD SVG 20010904//EN"
 "http://www.w3.org/TR/2001/REC-SVG-20010904/DTD/svg10.dtd">
<svg version="1.0" xmlns="http://www.w3.org/2000/svg"
 width="720.000000pt" height="1280.000000pt" viewBox="0 0 720.000000 1280.000000"
 preserveAspectRatio="xMidYMid meet">
<metadata>
Created by potrace 1.16, written by Peter Selinger 2001-2019
</metadata>
<g transform="translate(0.000000,1280.000000) scale(0.100000,-0.100000)"
fill="#000000" stroke="none">
<path d="M0 6400 l0 -6400 3600 0 3600 0 0 1025 0 1024 -2983 3 c-2198 2
-2989 6 -3007 14 -14 7 -51 19 -83 29 -32 9 -68 26 -79 37 -11 11 -26 17 -33
14 -8 -3 -21 1 -29 9 -8 8 -24 15 -35 15 -12 0 -21 4 -21 9 0 5 -14 12 -30 16
-17 4 -30 10 -30 13 0 4 -21 8 -47 10 -33 2 -50 8 -60 22 -11 15 -26 20 -62
20 -31 0 -53 5 -61 15 -7 8 -27 15 -45 15 -27 0 -34 5 -39 25 -8 30 -49 34
-79 8 -21 -20 -115 -24 -177 -7 -35 10 -35 10 -44 84 -5 41 -12 77 -16 80 -4
3 -10 28 -14 55 -14 127 -17 135 -42 135 -19 0 -24 5 -24 25 0 23 -4 25 -45
25 l-45 0 0 80 c0 64 -3 80 -15 80 -12 0 -15 -27 -18 -158 -1 -86 -3 120 -3
458 0 338 1 589 3 558 3 -42 8 -58 18 -58 12 0 15 22 15 118 0 64 3 168 7 230
5 100 8 112 25 112 10 0 18 5 18 10 0 6 9 10 20 10 18 0 20 7 20 80 0 44 -3
80 -8 80 -4 0 -6 20 -4 45 3 30 9 45 18 45 9 0 14 12 14 35 0 24 5 35 15 35
13 0 15 22 15 135 l0 135 25 0 c38 0 35 40 -2 41 -17 1 -21 3 -10 6 9 2 17 13
17 24 0 12 7 19 20 19 16 0 20 7 20 30 0 17 6 31 13 32 6 0 18 2 25 2 13 1 32
24 32 39 0 4 -7 7 -15 7 -12 0 -15 16 -15 85 l0 85 45 0 45 0 0 39 c0 36 2 39
35 45 l35 7 0 114 c0 70 4 115 10 115 6 0 10 6 10 13 0 7 27 39 60 72 51 51
58 62 45 71 -13 10 -12 20 12 88 26 73 42 95 44 59 0 -15 2 -15 9 2 5 11 9 91
9 178 1 123 4 157 14 157 20 0 52 71 36 80 -17 11 -3 80 16 80 12 0 15 17 15
81 0 45 5 99 12 120 11 38 13 39 56 39 l44 0 -7 80 -7 80 41 0 c40 0 41 1 41
35 0 35 0 35 45 35 33 0 45 4 45 15 0 9 9 15 24 15 21 0 24 6 30 49 3 27 4 55
0 64 -3 10 5 21 25 33 27 16 30 24 33 73 3 56 3 56 38 61 29 4 36 10 40 35 4
24 10 29 28 27 21 -3 22 0 22 56 l0 59 59 7 c67 8 85 23 95 79 8 41 35 52 37
15 2 -49 20 37 19 90 0 40 3 52 15 52 11 0 15 11 15 40 0 27 4 40 13 40 8 0
22 18 32 40 10 22 24 40 32 40 7 0 13 11 13 25 0 24 3 25 60 25 47 0 60 3 60
15 0 8 7 15 15 15 12 0 14 8 9 40 -5 33 -4 40 10 40 18 0 51 64 42 79 -3 5 20
35 52 68 76 80 82 91 82 173 0 59 3 71 20 80 11 6 20 17 20 25 0 8 6 15 14 15
8 0 17 15 20 36 4 19 14 38 22 41 7 3 14 11 14 19 0 8 5 14 10 14 6 0 10 6 10
13 0 7 9 18 20 25 11 7 20 21 20 31 0 10 6 24 14 30 8 7 17 23 20 36 4 14 13
25 21 25 9 0 12 6 9 15 -4 10 0 15 15 15 13 0 21 -7 22 -17 0 -14 2 -15 6 -3
3 8 11 18 17 22 7 5 4 8 -6 8 -10 0 -18 4 -18 9 0 13 27 21 45 15 11 -5 15 1
15 24 0 24 5 31 23 34 19 3 22 8 19 46 -2 32 1 42 13 42 8 0 15 7 15 15 0 8 8
15 17 15 32 0 83 24 83 40 0 8 8 22 18 29 13 9 17 21 14 38 -4 22 -2 24 17 18
13 -4 21 -2 21 5 0 7 12 10 28 8 22 -2 28 1 30 20 4 26 32 30 33 5 1 -31 18
18 18 55 1 23 11 42 36 66 19 19 35 39 35 44 0 15 33 24 41 11 5 -9 15 -8 38
2 17 8 31 17 31 20 0 4 15 13 33 20 17 7 42 24 55 36 16 16 35 23 62 23 22 0
40 5 40 10 0 6 7 10 15 10 18 0 18 1 5 34 l-10 26 73 2 c39 2 -630 5 -1488 8
-1121 4 -549 6 2033 8 l3592 2 0 1775 0 1775 -3600 0 -3600 0 0 -6400z m6782
3684 c50 -17 112 -73 138 -125 44 -85 32 -202 -29 -284 -25 -34 -27 -41 -14
-50 14 -10 14 -14 -2 -38 -22 -35 -88 -46 -136 -23 -29 13 -43 14 -94 4 -106
-20 -142 -17 -169 17 -22 27 -22 31 -7 41 15 11 14 14 -6 36 -38 40 -63 108
-63 172 0 78 16 128 58 176 77 90 199 118 324 74z m-639 0 c52 -18 116 -76
142 -130 22 -47 30 -130 16 -180 -32 -119 -134 -194 -265 -194 -165 0 -272
106 -270 266 2 153 105 252 265 253 36 1 86 -6 112 -15z m-5839 -91 c10 -34
76 -315 76 -324 0 -5 -16 -9 -35 -9 -30 0 -35 3 -35 24 0 31 -13 39 -59 39
-31 0 -36 -3 -43 -31 -8 -28 -13 -32 -42 -32 l-34 0 14 58 c7 31 25 110 40
175 l28 117 42 0 c32 0 44 -4 48 -17z m406 -75 l1 -93 30 38 c23 27 39 37 60
37 16 0 29 -3 29 -6 0 -4 -16 -27 -35 -53 l-34 -47 21 -35 c11 -19 29 -49 40
-66 l20 -33 -36 0 c-30 0 -38 5 -57 40 -26 45 -39 43 -39 -6 0 -31 -2 -34 -30
-34 l-30 0 0 175 0 175 30 0 30 0 0 -92z m1740 -83 l0 -176 -42 1 c-24 1 -55
-1 -69 -5 -19 -5 -33 -1 -55 18 -27 24 -29 29 -29 106 0 69 3 84 21 102 23 22
55 28 92 15 21 -7 22 -5 22 53 l0 61 30 0 30 0 0 -175z m452 83 l3 -92 25 37
c20 30 31 37 58 37 30 0 42 -12 24 -24 -5 -3 -21 -23 -36 -44 l-27 -40 41 -66
41 -67 -38 3 c-32 3 -41 9 -58 40 -26 49 -35 48 -35 -2 0 -39 -1 -40 -35 -40
l-35 0 0 175 0 175 35 0 34 0 3 -92z m728 28 l0 -65 35 15 c28 11 40 12 58 3
34 -18 37 -27 37 -136 l0 -103 -30 0 -30 0 0 90 c0 75 -3 92 -16 97 -37 14
-49 -10 -52 -101 l-3 -86 -29 0 -30 0 0 175 0 175 30 0 30 0 0 -64z m530 3 c0
-58 1 -60 23 -53 76 26 107 -8 107 -118 0 -71 -2 -81 -26 -105 -20 -20 -31
-24 -52 -18 -15 4 -46 6 -69 5 l-43 -1 0 176 0 175 30 0 30 0 0 -61z m-1480
-9 c0 -38 2 -40 30 -40 25 0 30 -4 30 -25 0 -21 -5 -25 -30 -25 l-31 0 3 -67
c3 -66 4 -68 31 -71 21 -3 27 -8 23 -19 -3 -8 -6 -19 -6 -24 0 -16 -73 -10
-92 8 -14 13 -18 31 -18 90 0 66 -2 75 -20 80 -13 3 -20 14 -20 29 0 17 6 24
20 24 17 0 20 7 20 40 0 38 2 40 30 40 28 0 30 -2 30 -40z m-2096 -61 c24 -23
34 -121 17 -172 -15 -44 -59 -66 -97 -48 -14 6 -27 11 -29 11 -3 0 -5 -29 -5
-65 l0 -65 -30 0 -30 0 0 181 0 182 38 -5 c20 -3 46 -2 57 3 26 10 55 2 79
-22z m405 20 c17 -6 36 -19 41 -29 6 -10 10 -62 10 -115 l0 -97 -32 3 c-18 1
-48 -1 -66 -5 -50 -12 -82 13 -82 64 0 44 20 64 83 81 28 7 37 15 35 27 -5 25
-45 27 -58 3 -13 -25 -48 -28 -57 -5 -8 21 28 67 58 75 35 10 33 10 68 -2z
m287 1 c39 -15 53 -39 54 -87 l0 -43 -61 0 c-60 0 -60 0 -57 -27 3 -32 44 -46
54 -19 9 23 64 21 64 -2 0 -51 -67 -84 -124 -62 -45 17 -55 38 -56 116 0 78
20 119 63 127 12 2 25 5 29 6 4 0 19 -4 34 -9z m201 -1 c32 -12 43 -26 43 -56
0 -31 -45 -33 -53 -2 -7 24 -40 23 -45 -2 -2 -10 9 -21 30 -29 75 -30 98 -83
59 -131 -40 -50 -151 -22 -151 38 0 19 5 23 30 23 24 0 30 -4 30 -21 0 -15 5
-20 22 -17 42 6 33 36 -16 58 -76 32 -89 107 -23 135 39 17 39 17 74 4z m202
-4 c26 -13 46 -56 33 -70 -14 -14 -50 -3 -55 16 -4 13 -12 20 -24 17 -29 -5
-21 -32 15 -50 73 -36 92 -81 53 -129 -15 -19 -29 -24 -66 -24 -37 0 -51 5
-66 24 -29 36 -25 61 10 61 21 0 30 -6 34 -21 7 -25 40 -22 45 4 3 12 -9 23
-42 37 -74 31 -86 108 -22 136 40 17 51 17 85 -1z m200 4 c17 -6 36 -19 41
-29 6 -10 10 -62 10 -115 l0 -97 -32 3 c-18 1 -48 -1 -66 -5 -50 -12 -82 13
-82 64 0 44 20 64 83 81 28 7 37 15 35 27 -5 25 -45 27 -58 3 -11 -22 -44 -28
-55 -11 -12 20 8 59 38 74 38 19 45 19 86 5z m319 -22 c16 -15 22 -32 22 -64
l0 -43 -61 0 c-60 0 -60 0 -57 -27 3 -32 44 -46 54 -19 9 23 64 21 64 -2 0
-49 -66 -84 -121 -64 -50 20 -59 37 -59 121 0 68 3 80 23 98 12 11 29 23 37
26 25 9 73 -4 98 -26z m1000 -3 c18 -21 22 -36 22 -98 0 -77 -15 -107 -61
-121 -31 -10 -84 3 -105 26 -23 26 -31 127 -13 170 24 60 111 73 157 23z m240
8 c8 -10 12 -52 12 -119 l0 -103 -30 0 -30 0 0 90 c0 75 -3 92 -17 97 -32 12
-53 -32 -53 -113 l0 -74 -30 0 -30 0 0 120 0 120 29 0 c16 0 31 -5 33 -11 2
-6 14 -5 33 5 33 17 63 13 83 -12z m530 -8 c15 -17 22 -38 22 -65 l0 -39 -61
0 c-60 0 -60 0 -57 -27 3 -32 44 -46 54 -19 4 10 18 16 35 16 22 0 29 -5 29
-20 0 -42 -64 -79 -115 -66 -52 13 -65 39 -65 124 0 69 3 81 23 99 12 11 29
23 37 26 28 11 75 -3 98 -29z m539 12 c7 -6 13 -53 15 -116 l3 -105 -32 -3
-33 -3 0 91 c0 72 -3 92 -15 96 -33 13 -45 -15 -45 -102 l0 -84 -35 0 -35 0 0
120 0 120 35 0 c19 0 35 -4 35 -9 0 -6 12 -3 28 4 28 15 58 12 79 -9z m221
-12 c19 -22 22 -36 22 -120 l0 -95 -42 1 c-24 1 -54 -1 -68 -5 -34 -9 -80 27
-80 61 0 41 18 63 63 75 52 15 67 26 60 45 -8 21 -41 17 -55 -6 -12 -19 -48
-27 -60 -14 -15 14 11 60 43 77 43 22 86 16 117 -19z m391 25 c36 -13 61 -53
61 -99 l0 -30 -59 0 c-65 0 -73 -5 -64 -38 6 -26 53 -32 53 -7 0 11 11 15 36
15 32 0 35 -2 29 -22 -13 -43 -42 -63 -90 -63 -64 0 -87 27 -93 105 -5 75 11
118 52 136 38 16 36 16 75 3z m204 -3 c15 -8 27 -11 27 -5 0 5 14 9 30 9 l30
0 0 -149 c0 -134 -2 -151 -20 -174 -41 -52 -147 -44 -170 13 -7 16 -9 34 -5
39 9 15 46 7 60 -12 27 -37 75 -10 75 43 0 17 -3 19 -19 10 -36 -19 -78 -12
-100 16 -16 21 -21 41 -21 88 0 85 8 106 44 122 39 17 36 17 69 0z m285 -22
c19 -22 22 -36 22 -120 l0 -95 -42 1 c-24 1 -54 -1 -68 -5 -35 -9 -80 27 -80
64 0 39 19 60 70 75 33 10 46 19 48 35 4 28 -31 29 -51 0 -22 -30 -63 -23 -59
11 10 70 109 91 160 34z m-3048 -94 l0 -120 -35 0 -35 0 0 113 c0 63 3 117 7
120 3 4 19 7 35 7 l28 0 0 -120z m2280 63 c19 -91 25 -93 45 -14 17 70 18 71
50 71 l33 0 -52 -177 -51 -178 -33 -3 c-29 -3 -33 -1 -29 15 31 106 31 95 -2
207 -18 59 -35 114 -38 122 -4 10 4 14 29 14 34 0 35 -1 48 -57z"/>
<path d="M6613 9773 c-20 -4 -23 -11 -23 -51 l0 -47 85 0 85 0 0 46 c0 40 -3
48 -22 53 -25 6 -90 6 -125 -1z"/>
<path d="M1926 6898 c-3 -24 -10 -97 -16 -163 -6 -66 -15 -149 -20 -185 -13
-92 -31 -274 -35 -345 -8 -145 -37 -425 -65 -620 -12 -84 -25 -206 -45 -420
-8 -88 -17 -190 -21 -227 -4 -39 -3 -68 2 -68 5 0 18 16 29 34 34 60 118 177
122 172 5 -4 -39 -71 -91 -139 -16 -21 -30 -48 -31 -60 -1 -12 -3 -27 -4 -34
0 -6 -7 -18 -15 -26 -13 -12 -36 -126 -36 -175 0 -22 2 -23 369 -56 260 -23
271 -22 297 24 23 43 121 254 129 279 7 24 -7 93 -31 147 -29 67 -38 164 -25
279 7 61 16 152 22 204 5 51 14 101 19 111 6 10 10 28 10 39 0 16 -6 20 -27
19 -40 -3 -49 -16 -57 -83 -7 -60 -20 -89 -63 -135 -13 -14 -23 -29 -23 -35 0
-6 -16 -27 -36 -48 -32 -33 -35 -39 -23 -54 12 -14 12 -16 -1 -11 -9 3 -24 0
-33 -7 -17 -12 -17 -14 0 -31 13 -12 14 -19 5 -22 -6 -2 -12 -12 -12 -23 0
-27 -15 -23 -26 7 l-9 26 -25 -22 c-14 -12 -38 -34 -55 -49 -16 -15 -34 -28
-40 -29 -59 -14 -87 -26 -99 -43 -8 -12 -19 -18 -25 -14 -6 3 -11 1 -11 -4 0
-6 -7 -11 -15 -11 -22 0 -19 8 18 49 41 46 258 476 257 511 0 9 5 21 12 28 7
7 11 28 10 47 -2 24 3 37 16 44 17 9 72 99 72 117 0 5 -18 22 -39 38 -28 20
-37 33 -34 47 3 10 10 19 17 19 6 0 3 5 -7 11 -23 13 -27 9 -30 -27 -3 -27 -5
-29 -44 -26 -34 3 -42 0 -48 -17 -3 -12 -13 -21 -21 -21 -12 0 -14 9 -12 38 4
33 7 37 36 40 32 3 43 16 20 25 -8 2 1 12 19 23 18 11 33 22 33 25 0 3 -34 9
-75 13 -83 8 -105 13 -105 28 0 5 -7 17 -16 26 -15 15 -14 17 17 28 33 11 34
13 31 58 -3 42 -2 46 19 46 12 0 30 -6 38 -13 22 -19 144 -39 173 -29 12 5 42
7 66 4 46 -4 59 12 17 22 -14 4 -25 12 -25 19 0 7 -9 20 -20 30 -11 9 -20 23
-20 31 0 17 -40 28 -56 15 -16 -13 -29 8 -15 25 6 7 11 26 13 44 1 20 8 32 20
35 12 3 18 15 18 32 0 41 -18 65 -48 66 l-27 1 25 7 c20 5 25 12 25 39 0 19
-5 32 -12 32 -7 0 -15 11 -19 25 -5 20 -8 22 -19 11 -7 -7 -15 -26 -18 -42 -3
-23 -4 -20 -6 12 0 27 -6 44 -16 48 -8 3 -15 11 -15 19 0 18 -23 67 -32 67 -5
0 -8 9 -8 20 0 11 -5 20 -11 20 -5 0 -7 5 -4 10 3 6 2 10 -4 10 -6 0 -16 18
-22 40 -10 34 -17 41 -45 46 -19 3 -31 10 -28 15 3 5 -8 9 -24 9 -27 0 -30 -3
-36 -42z"/>
<path d="M3277 6806 c-4 -10 -1 -19 8 -22 23 -9 55 -68 75 -141 19 -70 18 -83
-6 -83 -16 0 -19 -17 -3 -22 6 -2 17 -18 25 -36 15 -36 3 -42 -30 -17 -29 22
-76 20 -76 -3 0 -23 31 -40 90 -50 42 -7 45 -10 48 -41 2 -18 -4 -48 -12 -66
-10 -21 -16 -61 -16 -108 0 -65 -3 -77 -25 -101 -24 -26 -33 -28 -139 -36 -63
-4 -119 -10 -125 -14 -19 -12 -12 -31 17 -43 15 -7 41 -26 59 -42 37 -33 38
-67 3 -133 -15 -29 -18 -44 -10 -58 19 -35 10 -59 -49 -132 -33 -40 -57 -75
-54 -78 3 -3 37 29 76 71 49 52 78 75 90 72 9 -3 17 -9 17 -15 0 -5 6 -8 14
-5 9 4 30 -11 53 -34 21 -22 53 -46 71 -54 24 -10 32 -20 32 -39 0 -14 -4 -28
-10 -31 -5 -3 -10 -10 -10 -16 0 -16 23 -10 48 13 l23 23 19 -25 c21 -27 26
-65 10 -75 -6 -4 -8 -10 -6 -14 3 -4 0 -27 -5 -50 -5 -24 -8 -45 -6 -48 10 -9
37 11 37 29 0 10 5 16 10 13 6 -4 10 5 10 19 0 25 3 26 55 26 49 0 63 5 119
43 52 35 66 50 79 88 9 26 17 58 17 73 0 14 4 26 9 26 9 0 27 41 34 75 2 11 9
19 15 18 7 -2 12 10 12 31 0 39 28 66 67 66 13 0 24 8 28 20 3 11 10 20 15 20
9 0 22 33 25 61 2 22 25 44 53 53 28 9 28 18 -5 50 -18 19 -23 30 -16 37 8 8
13 7 17 0 8 -13 26 -15 26 -3 0 5 -6 16 -13 26 -11 15 -17 16 -40 5 -22 -10
-30 -10 -40 0 -8 8 -9 14 -1 19 6 4 13 14 16 23 8 20 67 35 135 35 55 -1 63 5
63 48 0 19 -4 21 -35 18 -27 -3 -35 -1 -35 12 0 14 19 20 66 19 7 0 14 18 17
41 6 43 1 59 -12 37 -7 -11 -10 -11 -17 0 -5 8 -9 16 -10 19 -10 52 -48 76
-73 47 -11 -14 -38 -16 -56 -5 -19 11 -65 6 -65 -8 0 -7 -9 -18 -21 -24 -16
-9 -23 -8 -32 5 -7 9 -23 14 -37 13 -41 -5 -31 26 13 36 41 11 46 24 17 51
-15 14 -32 17 -85 13 -36 -2 -65 0 -65 4 0 4 9 8 20 8 18 0 49 37 64 75 2 6
10 2 18 -8 17 -22 48 -13 48 14 0 10 5 19 10 19 6 0 10 7 10 15 0 8 -8 15 -17
15 -9 0 -24 7 -34 16 -18 17 -39 12 -39 -9 0 -7 -9 -18 -21 -25 -18 -11 -24
-11 -41 5 -19 17 -20 17 -34 -1 -12 -18 -15 -16 -34 30 -45 109 -39 106 -225
118 -55 4 -125 9 -156 12 -46 5 -57 3 -62 -10z"/>
<path d="M2864 6269 c-3 -6 -6 -29 -6 -52 1 -26 -2 -36 -8 -28 -5 9 -12 -5
-21 -44 -9 -42 -22 -68 -46 -92 -50 -49 -62 -42 -42 25 4 12 -14 25 -73 52
-33 15 -58 7 -58 -19 0 -11 -3 -26 -6 -34 -3 -8 9 -28 29 -46 25 -24 33 -39
29 -57 -3 -16 1 -26 12 -30 22 -9 20 -31 -4 -37 -20 -5 -28 -27 -10 -27 14 0
13 -37 -2 -42 -19 -7 1 -28 26 -28 16 0 26 -7 30 -22 4 -16 8 -19 14 -11 5 8
13 -4 21 -33 17 -55 40 -70 80 -50 15 8 31 12 35 9 3 -4 6 -35 6 -70 0 -35 4
-63 10 -63 6 0 10 30 10 70 l0 70 28 -7 c73 -20 150 3 88 27 -33 12 -33 32 0
47 23 11 27 10 31 -7 3 -11 9 -20 14 -20 15 0 10 39 -11 77 -11 21 -20 45 -20
53 0 9 -11 38 -24 66 -13 27 -27 72 -31 99 -4 28 -12 57 -19 65 -7 8 -26 50
-41 93 -15 42 -29 77 -31 77 -1 0 -6 -5 -10 -11z"/>
<path d="M5025 5894 c-44 -23 -80 -60 -147 -152 -34 -45 -66 -81 -72 -79 -19
6 -35 49 -27 71 5 12 19 27 32 33 14 8 18 13 9 13 -55 0 -81 -79 -39 -119 l21
-20 -28 -40 c-16 -22 -31 -41 -34 -41 -3 0 -16 20 -30 45 -23 43 -42 55 -54
36 -3 -5 1 -14 8 -21 8 -6 24 -30 36 -53 l22 -41 -29 -23 c-15 -13 -37 -23
-47 -23 -17 0 -18 6 -13 68 l5 67 -19 -40 c-21 -46 -23 -68 -9 -96 14 -25 60
-25 93 1 14 11 27 20 30 20 2 0 30 -15 61 -34 95 -57 204 -56 236 3 6 12 19
21 28 21 22 0 70 49 106 107 22 36 24 46 15 72 -15 44 -47 41 -97 -9 -55 -56
-83 -113 -72 -151 24 -82 -134 -88 -224 -9 l-31 28 41 48 c35 42 46 48 83 51
128 8 271 152 247 247 -3 14 -11 26 -16 26 -6 0 -8 -11 -4 -24 12 -50 -74
-169 -149 -205 -55 -26 -97 -36 -97 -23 0 19 121 180 166 221 47 44 47 50 -1
25z"/>
<path d="M4476 5788 c-41 -37 -126 -188 -126 -225 0 -23 5 -33 15 -33 16 0
165 144 165 159 0 5 -22 -14 -49 -42 -81 -84 -77 -46 8 100 34 57 27 76 -13
41z"/>
<path d="M3865 5494 c-96 -85 -253 -174 -380 -215 -37 -12 -80 -28 -94 -35
-14 -8 -40 -17 -58 -20 l-32 -6 -4 -117 c-6 -215 -52 -377 -125 -450 -15 -14
-49 -53 -76 -86 -28 -33 -56 -64 -63 -68 -7 -4 -20 -24 -28 -43 -8 -20 -19
-33 -25 -29 -5 3 -10 -3 -10 -14 0 -12 -4 -21 -10 -21 -5 0 -10 -9 -10 -19 0
-11 -3 -21 -7 -24 -5 -2 -1 -2 7 1 8 2 26 7 40 10 28 6 130 70 130 82 0 4 15
15 33 23 18 9 63 45 100 80 37 35 67 62 67 60 0 -3 7 2 15 11 8 8 15 17 15 20
0 9 102 106 112 106 4 0 8 7 8 15 0 9 7 18 15 21 8 4 15 10 15 15 0 5 20 29
44 54 24 24 47 52 50 62 3 10 19 32 36 50 16 18 30 36 30 42 0 5 8 16 18 23 9
7 23 25 31 41 8 15 18 27 23 27 4 0 8 10 8 23 0 35 11 67 21 61 5 -3 9 5 9 18
0 13 16 52 35 88 19 35 35 70 35 77 0 7 12 31 26 52 14 22 24 48 22 59 -2 10
3 26 11 36 26 31 5 25 -34 -10z"/>
</g>
</svg>
