<?xml version="1.0" standalone="no"?>
<!DOCTYPE svg PUBLIC "-//W3C//DTD SVG 20010904//EN"
 "http://www.w3.org/TR/2001/REC-SVG-20010904/DTD/svg10.dtd">
<svg version="1.0" xmlns="http://www.w3.org/2000/svg"
 width="720.000000pt" height="1280.000000pt" viewBox="0 0 720.000000 1280.000000"
 preserveAspectRatio="xMidYMid meet">
<metadata>
Created by potrace 1.16, written by Peter Selinger 2001-2019
</metadata>
<g transform="translate(0.000000,1280.000000) scale(0.100000,-0.100000)"
fill="#000000" stroke="none">
<path d="M0 6400 l0 -6400 3600 0 3600 0 0 3430 c0 1887 -2 3430 -5 3430 -2 0
-21 -12 -42 -26 -36 -24 -38 -25 -53 -7 -9 10 -36 33 -62 51 -26 18 -60 45
-75 60 -15 15 -59 55 -97 88 -61 55 -67 64 -57 83 10 18 21 21 84 22 129 3
171 -3 219 -27 27 -14 48 -20 48 -14 0 7 6 7 20 0 20 -11 20 -9 18 842 -2 676
-6 852 -15 850 -19 -3 -16 43 4 59 14 12 10 15 -38 20 l-54 6 53 1 52 2 0
1965 0 1965 -3600 0 -3600 0 0 -6400z m6796 3680 c151 -69 198 -267 95 -405
-25 -34 -27 -41 -14 -50 14 -10 14 -14 -1 -37 -26 -40 -88 -50 -140 -23 -24
13 -38 13 -90 3 -107 -20 -145 -17 -172 17 -21 27 -21 30 -6 41 16 11 15 14
-5 36 -56 60 -79 178 -51 269 23 77 102 146 195 169 50 12 138 3 189 -20z
m-653 4 c29 -10 64 -34 92 -62 124 -125 89 -333 -68 -412 -134 -67 -310 -20
-371 98 -46 89 -41 199 13 284 41 65 129 108 221 108 36 0 87 -7 113 -16z
m-5834 -111 c15 -56 71 -300 71 -307 0 -3 -16 -6 -35 -6 -30 0 -35 3 -35 24 0
34 -23 49 -64 42 -27 -5 -35 -12 -40 -36 -5 -26 -10 -30 -40 -30 l-34 0 14 58
c7 31 25 110 40 175 l28 117 42 0 c41 0 44 -2 53 -37z m403 -55 l3 -93 25 37
c20 31 31 38 58 38 17 0 32 -3 32 -6 0 -4 -16 -28 -35 -53 -30 -41 -33 -50
-21 -67 7 -10 25 -40 40 -66 l27 -48 -35 0 c-30 0 -38 5 -57 40 -26 45 -39 43
-39 -6 0 -31 -2 -34 -30 -34 l-30 0 0 175 0 175 30 0 29 0 3 -92z m1738 -83
l0 -176 -42 1 c-24 1 -55 -1 -69 -5 -19 -5 -33 -1 -55 18 -28 24 -29 29 -29
106 1 69 4 85 22 102 22 22 54 28 91 15 21 -7 22 -5 22 53 l0 61 30 0 30 0 0
-175z m452 83 l3 -92 25 37 c20 30 31 37 58 37 30 0 42 -12 24 -24 -5 -3 -21
-23 -36 -44 l-27 -40 40 -66 41 -66 -35 0 c-30 0 -39 6 -62 43 l-28 42 -3 -42
c-3 -42 -4 -43 -38 -43 l-34 0 0 175 0 175 35 0 34 0 3 -92z m728 27 l0 -66
30 16 c33 17 60 13 85 -11 11 -12 15 -40 15 -120 l0 -104 -30 0 -30 0 0 90 c0
75 -3 92 -16 97 -37 14 -49 -10 -52 -101 l-3 -86 -29 0 -30 0 0 175 0 175 30
0 30 0 0 -65z m530 4 c0 -58 1 -60 23 -53 76 26 107 -8 107 -118 0 -71 -2 -81
-26 -105 -20 -20 -31 -24 -52 -18 -15 4 -46 6 -69 5 l-43 -1 0 176 0 175 30 0
30 0 0 -61z m-1480 -9 c0 -38 2 -40 30 -40 25 0 30 -4 30 -25 0 -21 -5 -25
-30 -25 l-31 0 3 -67 c3 -66 4 -68 31 -71 21 -3 27 -8 23 -19 -3 -8 -6 -19 -6
-24 0 -16 -73 -10 -92 8 -14 13 -18 31 -18 90 0 66 -2 75 -20 80 -13 3 -20 14
-20 29 0 17 6 24 20 24 17 0 20 7 20 40 0 38 2 40 30 40 28 0 30 -2 30 -40z
m-2096 -61 c24 -23 34 -121 17 -172 -15 -44 -59 -66 -97 -48 -14 6 -27 11 -29
11 -3 0 -5 -30 -5 -66 l0 -65 -27 3 -28 3 -3 179 -2 179 37 -5 c21 -3 47 -2
58 3 26 10 55 2 79 -22z m405 20 c17 -6 36 -19 41 -29 6 -10 10 -62 10 -115
l0 -97 -32 3 c-18 1 -48 -1 -66 -5 -50 -12 -82 13 -82 64 0 44 20 64 83 81 28
7 37 15 35 27 -5 26 -48 28 -55 3 -4 -14 -13 -21 -29 -21 -65 0 -15 96 52 99
6 1 25 -4 43 -10z m290 0 c38 -14 51 -35 51 -88 l0 -41 -61 0 c-60 0 -60 0
-57 -27 3 -32 44 -46 54 -19 4 10 18 16 35 16 35 0 39 -25 10 -61 -27 -34 -99
-34 -135 0 -23 22 -26 32 -26 96 0 79 20 120 63 128 12 2 25 5 28 6 3 0 20 -4
38 -10z m198 0 c32 -12 43 -26 43 -56 0 -31 -45 -33 -53 -2 -7 24 -40 23 -45
-2 -2 -10 9 -21 30 -29 75 -30 98 -83 59 -131 -40 -50 -151 -22 -151 38 0 18
5 23 26 23 18 0 28 -6 31 -21 7 -26 48 -23 48 4 0 12 -16 26 -45 40 -89 43
-75 132 22 146 4 1 19 -4 35 -10z m197 -3 c31 -13 53 -55 38 -71 -14 -14 -50
-3 -55 16 -4 13 -12 20 -24 17 -29 -5 -21 -32 15 -50 73 -36 92 -81 53 -129
-15 -19 -29 -24 -66 -24 -37 0 -51 5 -66 24 -29 36 -25 61 10 61 21 0 30 -6
34 -21 7 -25 40 -22 45 3 2 12 -11 24 -43 39 -74 35 -85 107 -21 135 39 17 40
17 80 0z m205 3 c17 -6 36 -19 41 -29 6 -10 10 -62 10 -115 l0 -97 -32 3 c-18
1 -48 -1 -66 -5 -50 -12 -82 13 -82 64 0 44 20 64 83 81 28 7 37 15 35 27 -5
25 -45 27 -58 3 -14 -27 -60 -29 -60 -3 0 36 46 79 86 81 6 1 25 -4 43 -10z
m318 -21 c17 -16 23 -33 23 -65 l0 -43 -61 0 c-60 0 -60 0 -57 -27 3 -32 44
-46 54 -19 8 20 64 22 64 2 0 -69 -102 -98 -158 -45 -19 17 -22 31 -22 98 0
68 3 80 23 98 12 11 29 23 37 26 25 10 73 -2 97 -25z m1001 -4 c18 -21 22 -36
22 -98 0 -65 -3 -75 -26 -97 -35 -33 -104 -34 -136 -2 -27 28 -37 127 -17 174
24 60 111 73 157 23z m240 8 c8 -10 12 -52 12 -119 l0 -103 -30 0 -30 0 0 90
c0 75 -3 92 -17 97 -32 12 -53 -32 -53 -113 l0 -74 -30 0 -30 0 0 120 0 120
29 0 c16 0 31 -5 33 -11 2 -6 14 -5 33 5 33 17 63 13 83 -12z m529 -4 c17 -16
23 -33 23 -65 l0 -43 -61 0 c-60 0 -60 0 -57 -27 3 -32 44 -46 54 -19 4 10 18
16 35 16 22 0 29 -5 29 -20 0 -42 -64 -79 -115 -66 -52 13 -65 39 -65 124 0
69 3 81 23 99 12 11 29 23 37 26 25 10 73 -2 97 -25z m540 8 c7 -6 14 -56 17
-118 l6 -108 -35 0 -35 0 0 90 c0 72 -3 92 -15 96 -33 13 -45 -15 -45 -102 l0
-84 -35 0 -35 0 0 120 0 120 35 0 c19 0 35 -4 35 -9 0 -6 12 -3 28 4 28 15 58
12 79 -9z m218 -7 c17 -16 21 -36 23 -120 l4 -100 -44 1 c-23 1 -54 -1 -68 -5
-35 -9 -80 27 -80 64 0 39 19 60 70 75 33 10 46 19 48 35 4 28 -33 29 -50 1
-12 -19 -48 -27 -60 -14 -15 14 11 60 43 77 40 21 85 16 114 -14z m394 20 c36
-13 61 -53 61 -99 l0 -30 -59 0 c-65 0 -73 -5 -64 -38 6 -26 53 -32 53 -7 0
11 11 15 36 15 32 0 35 -2 29 -22 -4 -13 -18 -34 -33 -47 -21 -19 -33 -22 -65
-18 -59 8 -80 35 -85 107 -5 75 11 118 52 136 38 16 36 16 75 3z m204 -3 c15
-8 27 -11 27 -5 0 5 14 9 31 9 l30 0 -3 -155 c-3 -145 -4 -156 -26 -177 -17
-18 -34 -23 -73 -23 -43 0 -54 4 -75 29 -14 15 -24 36 -22 45 5 25 45 26 60 2
27 -43 78 -16 78 40 0 18 -3 20 -12 11 -7 -7 -29 -12 -49 -12 -55 0 -79 34
-79 114 0 85 8 106 44 122 39 17 36 17 69 0z m285 -22 c19 -22 22 -36 22 -120
l0 -95 -42 1 c-24 1 -55 -1 -70 -5 -21 -6 -32 -2 -52 18 -48 48 -29 99 44 121
33 10 46 19 48 35 4 28 -33 29 -50 1 -7 -11 -23 -20 -36 -20 -20 0 -23 4 -20
33 6 65 108 86 156 31z m-3048 -94 l0 -120 -35 0 -35 0 0 113 c0 63 3 117 7
120 3 4 19 7 35 7 l28 0 0 -120z m2280 63 c19 -90 25 -92 45 -14 18 69 20 71
51 71 l32 0 -24 -82 c-79 -281 -76 -273 -113 -276 -28 -3 -33 -1 -27 14 28 74
28 99 -3 207 -18 59 -34 113 -37 122 -5 12 2 15 28 15 34 0 35 -1 48 -57z
m293 -2018 l-1 -1050 -379 -5 -378 -5 -3 -32 -3 -33 90 0 c54 0 91 -4 91 -10
0 -5 -8 -10 -18 -10 -66 0 -178 -129 -203 -233 -16 -67 -15 -188 2 -230 21
-53 70 -108 113 -128 50 -22 150 -25 186 -4 14 8 28 14 32 15 5 0 9 -266 10
-591 l3 -590 115 -2 115 -2 6 75 c3 41 6 67 7 58 1 -10 24 -28 56 -43 30 -14
59 -32 66 -40 7 -8 17 -15 22 -15 6 0 4 7 -3 17 -12 14 -12 16 1 11 8 -2 20
-15 26 -27 6 -12 26 -36 43 -53 17 -17 31 -38 31 -48 0 -10 4 -20 8 -22 5 -1
7 -19 5 -39 l-5 -36 -23 23 c-23 23 -75 34 -75 16 0 -15 22 -30 36 -25 8 3 14
0 14 -6 0 -6 -8 -11 -17 -11 -16 -1 -16 -2 2 -16 11 -8 28 -13 38 -10 9 2 15
0 12 -5 -9 -13 14 -49 30 -49 20 0 28 -17 21 -46 l-6 -24 -145 0 -145 0 0 151
0 150 -127 -2 -127 -1 -56 153 -55 154 -114 0 -113 0 -49 -135 c-28 -74 -75
-205 -106 -290 -31 -85 -60 -161 -66 -167 -12 -16 -137 -18 -137 -3 0 6 7 13
15 16 9 4 28 27 43 53 l27 46 0 240 0 240 -92 3 -93 3 0 -206 c0 -123 -4 -214
-10 -226 -18 -32 -55 -24 -75 17 l-17 36 -86 -7 c-48 -4 -89 -9 -91 -11 -2 -2
2 -30 9 -61 10 -46 22 -67 55 -100 23 -24 40 -45 37 -48 -3 -3 -70 -5 -150 -5
l-145 0 55 53 c79 75 83 93 83 342 l0 210 -89 3 c-57 2 -92 -1 -96 -8 -4 -6
-5 -76 -2 -155 7 -227 -8 -277 -82 -277 -26 0 -45 7 -60 21 -20 20 -21 33 -24
221 l-3 200 -95 0 -95 0 3 -222 3 -223 30 -54 c16 -30 44 -63 62 -75 18 -12
33 -24 33 -28 0 -5 -49 -8 -109 -8 l-109 0 -4 -30 c-4 -29 -3 -30 31 -30 20 0
53 -5 75 -9 25 -6 47 -6 63 2 17 7 27 7 35 -1 19 -19 -1 -62 -55 -112 -50 -47
-52 -48 -55 -25 -5 41 -25 29 -66 -40 l-38 -65 7 -108 c3 -59 11 -124 16 -144
7 -29 6 -45 -6 -67 -13 -27 -21 -30 -67 -33 -33 -2 -53 -8 -56 -17 -3 -10 0
-12 12 -8 9 4 16 2 16 -3 0 -5 -17 -10 -37 -12 -27 -2 -39 -8 -41 -20 -2 -13
1 -16 12 -12 14 5 16 -5 14 -82 -1 -49 3 -105 9 -124 10 -33 11 -34 12 -7 1
33 21 35 47 6 10 -12 43 -32 73 -46 46 -21 57 -23 82 -12 16 6 34 19 39 28 8
12 10 9 8 -14 -3 -27 -8 -31 -52 -42 -28 -7 -75 -14 -105 -17 -31 -2 -85 -14
-120 -26 -35 -11 -66 -19 -69 -16 -2 3 6 10 20 15 27 10 66 61 47 61 -6 0 -24
-9 -40 -21 -16 -11 -46 -22 -66 -25 -35 -5 -121 -41 -133 -55 -3 -4 -20 -10
-37 -14 -18 -3 -33 -11 -33 -16 0 -5 -6 -9 -13 -9 -7 0 -18 -5 -25 -12 -6 -6
-20 -13 -29 -14 -89 -13 -111 -19 -147 -42 -23 -14 -54 -29 -71 -33 l-30 -7
30 0 c17 0 39 3 49 7 20 8 66 -26 66 -48 0 -8 8 -10 19 -6 16 5 18 2 14 -15
-3 -11 -9 -20 -14 -20 -5 0 -9 -8 -9 -19 0 -10 -5 -32 -11 -50 l-11 -31 -104
0 -104 0 -1 133 c-1 162 0 191 12 244 6 29 5 53 -4 80 -8 25 -11 84 -9 175 l4
137 23 -27 c13 -15 26 -25 29 -22 3 3 -8 19 -23 36 -28 30 -29 34 -31 150 -2
65 -3 182 -3 259 1 77 0 156 -1 175 l-1 35 300 2 c165 1 310 0 323 -3 12 -2
22 -12 23 -22 0 -12 3 -11 10 6 8 21 13 23 50 17 22 -4 60 -4 85 0 40 6 44 9
44 35 l0 29 -127 3 -128 3 -3 84 c-2 61 1 87 10 92 7 5 41 9 76 9 136 0 222
79 221 205 0 145 -70 205 -246 213 l-103 5 0 409 0 409 23 8 c12 5 25 7 30 4
4 -2 7 -58 7 -124 l0 -119 45 0 45 0 0 120 c0 133 -6 122 70 125 21 0 26 6 28
33 l3 32 -125 0 -126 0 0 140 0 140 -132 2 -133 2 132 3 132 4 3 147 3 147
155 5 c85 3 414 3 730 0 l575 -5 7 -170 c13 -282 1 -320 -93 -313 l-50 3 -15
-55 c-9 -30 -17 -60 -19 -67 -8 -23 97 -31 156 -12 48 16 95 64 126 128 25 50
27 68 37 270 l11 216 83 3 83 3 -3 32 -3 32 -662 3 -663 2 0 348 c0 191 -3
658 -7 1038 -3 380 -3 699 0 708 6 15 92 16 1059 14 l1053 -3 -2 -1050z
m-2355 868 l-3 -178 -240 -5 -240 -5 -38 -29 c-28 -22 -41 -42 -53 -83 -15
-51 -15 -58 1 -101 40 -108 84 -123 350 -122 105 1 198 -2 208 -5 19 -8 20
-38 15 -585 -1 -168 -1 -419 1 -557 l4 -253 -692 0 -691 0 -2 -42 -1 -43 -4
43 -4 42 -355 0 -354 0 0 151 c0 140 1 151 18 144 87 -36 148 -20 213 53 l39
45 0 329 c0 364 -1 370 -63 425 -51 45 -98 52 -184 27 l-23 -6 0 133 0 134
192 -3 c592 -7 560 -6 603 -29 74 -39 105 -90 107 -173 1 -45 -19 -97 -51
-134 -33 -38 -74 -50 -182 -56 -119 -7 -158 -23 -196 -79 -34 -51 -39 -110
-13 -162 27 -54 458 -491 512 -520 45 -23 118 -25 159 -3 42 21 89 98 89 145
0 62 -23 97 -140 215 -127 128 -124 115 -40 173 19 13 53 46 75 72 22 27 46
55 53 64 7 8 27 47 43 87 56 134 50 300 -16 430 -48 97 -148 200 -236 245
-119 60 -141 63 -549 63 -240 0 -370 -4 -370 -10 0 -5 -9 -10 -20 -10 -19 0
-20 7 -20 175 l0 175 1050 0 1050 0 -2 -177z m2874 132 c-2 -25 -8 -45 -13
-45 -5 0 -9 -164 -8 -387 1 -214 3 -380 6 -371 2 10 10 15 19 11 15 -6 35 33
27 54 -3 7 6 17 18 22 13 5 20 10 14 11 -5 0 -4 4 3 9 8 5 15 29 15 60 2 42 5
51 20 51 21 0 39 40 26 56 -6 7 -5 22 1 38 5 15 10 40 10 56 0 16 5 32 10 35
6 4 8 11 5 16 -9 14 -43 -8 -59 -39 -9 -15 -15 -21 -16 -14 0 6 -7 12 -15 12
-20 0 -20 1 21 86 l35 74 -9 99 c-7 67 -7 113 0 142 6 24 11 50 11 57 0 9 28
12 105 12 82 0 102 -3 94 -12 -23 -29 -69 -184 -64 -220 2 -21 5 -38 6 -38 2
0 30 14 63 30 40 20 63 38 67 53 4 17 13 23 44 25 52 3 73 -19 40 -42 -12 -9
-27 -16 -33 -16 -5 0 -23 -11 -39 -24 l-30 -23 35 5 c33 5 33 4 18 -14 -9 -11
-25 -39 -36 -64 -11 -25 -32 -56 -47 -69 -31 -30 -32 -37 -5 -44 12 -3 18 -10
15 -15 -3 -6 2 -13 12 -17 15 -6 14 -8 -8 -20 -14 -7 -28 -11 -32 -9 -5 3 -8
1 -8 -4 0 -5 -33 -41 -72 -80 -57 -56 -67 -70 -48 -66 21 5 19 1 -17 -31 -24
-21 -43 -44 -43 -52 0 -15 -23 -56 -50 -88 -37 -44 -42 -163 -9 -200 5 -5 9
-19 9 -30 0 -37 112 -206 127 -191 3 3 -4 22 -17 43 -16 28 -20 47 -16 74 4
26 2 40 -9 49 -18 15 -20 40 -3 40 6 0 8 -3 5 -6 -7 -7 44 -50 55 -47 4 2 5
-3 2 -10 -2 -7 5 -22 17 -33 22 -19 22 -19 10 3 -16 31 -14 38 19 71 17 17 30
36 30 43 0 8 6 7 18 -4 10 -10 24 -17 30 -17 7 0 12 -5 12 -10 0 -6 10 -21 23
-33 12 -12 29 -31 37 -42 14 -19 14 -19 -5 -6 -11 8 -32 26 -47 40 -34 30 -39
8 -8 -32 24 -31 60 -129 60 -165 0 -25 -1 -25 -15 -6 -18 23 -18 20 -15 -83 1
-46 0 -83 -3 -83 -3 0 -10 36 -16 79 -12 78 -43 161 -61 161 -5 0 -12 9 -15
20 -3 11 -11 20 -16 20 -6 0 -7 -6 -1 -16 13 -23 3 -56 -14 -50 -20 8 -17 -3
12 -46 30 -42 28 -58 -2 -30 -26 24 -164 105 -192 114 -19 5 -22 4 -17 -13 5
-14 2 -19 -14 -19 -12 0 -21 8 -24 23 -3 16 -5 13 -6 -10 0 -18 -5 -33 -11
-33 -15 0 -12 -29 5 -46 20 -21 19 -45 -2 -50 -23 -6 -63 -67 -63 -96 -1 -31
-91 -124 -127 -131 -56 -11 -83 -26 -77 -42 3 -8 10 -15 16 -15 5 0 16 -7 24
-15 12 -11 28 -13 70 -9 50 6 54 5 54 -14 0 -12 6 -19 17 -18 11 1 19 -9 24
-31 3 -18 14 -44 23 -57 9 -14 16 -39 16 -56 0 -28 3 -30 35 -30 28 0 37 5 50
30 8 16 15 35 15 42 0 14 59 58 77 58 7 0 15 9 18 20 3 11 15 20 25 20 26 0
41 -29 28 -53 -24 -45 3 -208 37 -221 13 -5 15 0 10 27 -8 39 4 52 56 60 39 6
59 -6 59 -34 0 -11 11 -20 28 -24 30 -7 84 -52 97 -81 7 -17 9 -17 12 -2 2 9
20 22 39 28 19 7 43 20 52 30 10 11 41 23 75 28 32 5 55 7 53 4 -3 -2 4 -12
15 -21 27 -22 64 -120 47 -125 -21 -7 -1104 -15 -1127 -9 -21 5 -21 10 -21
247 0 138 4 247 10 256 5 8 10 11 11 5 1 -22 18 32 18 62 1 30 34 100 54 114
10 7 69 -9 77 -22 5 -6 76 -29 93 -29 19 0 4 41 -20 54 -41 21 -70 56 -83 101
-8 27 -13 228 -17 640 -2 340 -9 604 -14 610 -5 5 -9 22 -9 37 l0 28 103 0
102 0 -3 -45z m1228 15 c0 -5 14 -23 30 -40 17 -17 30 -38 30 -48 0 -9 7 -35
14 -57 8 -22 16 -56 18 -75 3 -32 0 -35 -32 -44 -41 -11 -100 -52 -100 -69 -1
-7 -14 -28 -30 -47 -31 -35 -38 -75 -21 -108 6 -9 26 -52 46 -95 33 -70 36
-84 30 -129 -6 -44 -11 -51 -39 -63 -18 -8 -39 -22 -47 -31 -13 -16 -12 -17 8
-12 22 6 52 -15 36 -25 -5 -3 -31 -6 -58 -8 -28 -1 -56 -4 -62 -7 -20 -7 -4
-22 23 -22 30 0 31 -16 2 -24 -38 -10 -77 -7 -106 8 -31 16 -117 15 -134 -2
-6 -6 -8 -18 -4 -28 6 -16 8 -16 26 1 17 16 21 16 49 2 18 -9 33 -11 37 -6 8
14 35 10 74 -11 19 -10 54 -27 77 -38 75 -36 87 -53 80 -114 -9 -74 -42 -103
-129 -112 -69 -8 -98 0 -154 41 -17 13 -37 23 -45 23 -28 0 -99 55 -115 89
-12 26 -15 49 -10 96 6 58 4 67 -32 141 -22 44 -45 96 -52 118 -32 97 1 289
42 248 17 -17 48 -15 48 2 0 16 26 46 41 46 5 0 9 -9 9 -19 0 -10 7 -21 15
-25 8 -3 12 -12 9 -19 -11 -29 87 -47 140 -27 22 8 26 16 26 53 0 37 -5 47
-31 66 -26 20 -40 23 -90 19 -47 -3 -65 -10 -87 -31 -27 -26 -49 -36 -38 -18
4 5 0 12 -6 15 -10 3 -9 8 3 18 9 7 21 23 28 35 17 32 64 54 100 47 17 -4 47
-3 66 0 30 6 34 10 25 22 -7 8 -18 14 -24 14 -6 0 -17 4 -25 9 -10 7 7 29 73
95 77 76 91 86 123 86 27 0 43 7 62 29 22 25 41 35 74 40 4 0 7 -3 7 -9z m130
-340 c0 -13 -7 -20 -20 -21 -26 -2 -26 -2 -87 -29 l-52 -22 16 -32 c22 -42 43
-57 65 -45 15 8 18 6 18 -11 0 -12 3 -19 8 -16 4 2 16 -2 26 -9 15 -11 17 -23
13 -62 -8 -67 -35 -193 -36 -166 -1 28 -21 73 -33 73 -4 0 -18 21 -29 48 -12
26 -32 70 -45 98 -37 76 -30 109 31 157 27 21 52 43 53 48 2 5 19 9 38 9 27 0
34 -4 34 -20z m-1263 -1830 c4 -14 22 -18 99 -23 78 -5 101 -11 124 -29 16
-13 29 -31 29 -41 1 -10 9 -20 19 -23 9 -3 25 -10 35 -15 10 -5 22 -7 28 -3 5
3 17 0 25 -7 13 -11 15 -26 9 -86 -6 -63 -5 -73 9 -73 9 0 16 -7 16 -15 0 -8
-3 -15 -7 -15 -5 0 -8 -20 -8 -44 0 -33 4 -46 16 -49 15 -4 28 -68 33 -165 1
-20 9 -39 21 -48 18 -14 18 -14 -2 -14 -17 0 -22 -8 -28 -46 -8 -56 0 -63 65
-64 64 -1 227 -24 236 -32 14 -15 84 -9 90 7 8 20 132 21 159 2 31 -23 8 -37
-60 -37 -65 0 -119 -16 -109 -32 3 -5 -27 -8 -68 -8 -40 0 -91 -5 -113 -11
-22 -7 -76 -13 -120 -13 -64 -1 -80 -4 -80 -16 0 -19 -14 -30 -40 -30 -18 0
-20 -6 -17 -66 3 -51 9 -71 25 -87 24 -24 59 -33 56 -15 -4 36 3 57 22 63 23
8 34 0 43 -31 5 -16 2 -23 -14 -27 -29 -7 -26 -37 4 -37 13 0 26 -4 28 -10 4
-12 154 -18 165 -7 4 5 1 20 -8 35 -9 17 -12 38 -8 57 l7 30 1 -29 c1 -22 5
-27 17 -22 12 4 15 2 11 -9 -7 -18 12 -32 22 -16 11 17 36 4 49 -25 7 -13 19
-24 27 -24 14 0 14 3 1 28 l-14 28 33 0 c19 0 37 -6 39 -13 3 -8 -2 -13 -14
-13 -11 0 -20 -7 -20 -15 0 -17 25 -20 35 -5 3 6 17 10 31 10 13 0 24 -4 24
-10 0 -5 -12 -10 -27 -10 -21 0 -24 -3 -15 -12 8 -8 21 -9 46 -1 31 10 35 8
47 -13 7 -13 15 -24 19 -24 12 0 50 -37 50 -49 0 -6 8 -15 18 -19 43 -19 93
-56 88 -67 -2 -6 0 -18 5 -26 6 -10 9 -10 9 -1 0 6 5 12 11 12 7 0 9 -10 5
-26 -6 -23 -4 -25 15 -19 15 5 20 3 17 -6 -5 -16 -46 -21 -54 -7 -3 5 -14 6
-24 3 -23 -7 -59 25 -57 51 1 10 -3 19 -10 19 -7 0 -18 6 -24 13 -7 6 -22 12
-33 12 -28 1 -60 26 -51 40 6 9 2 9 -13 1 -17 -9 -25 -7 -44 11 -14 13 -22 31
-20 42 4 18 3 18 -22 0 -26 -20 -33 -34 -16 -34 21 0 8 -16 -22 -28 l-33 -13
23 -19 c12 -10 22 -21 22 -25 0 -4 -6 -2 -13 4 -21 17 -55 -23 -37 -43 15 -19
9 -38 -13 -42 -17 -2 -19 2 -21 46 -1 23 -5 25 -46 26 -60 1 -107 12 -125 31
-8 8 -15 10 -15 4 0 -5 8 -16 18 -23 25 -18 33 -44 22 -73 -5 -13 -5 -27 -1
-30 5 -3 12 3 15 12 6 14 8 14 20 -3 20 -26 14 -31 -39 -29 -36 2 -48 -2 -56
-17 -6 -11 -8 -26 -5 -35 8 -21 -4 -39 -15 -22 -7 11 -9 10 -9 -3 0 -10 6 -18
13 -18 6 -1 1 -10 -12 -21 -21 -17 -23 -23 -12 -45 8 -18 8 -30 1 -38 -7 -9
-5 -19 5 -32 8 -10 15 -29 15 -41 0 -12 6 -24 13 -26 9 -4 8 -8 -3 -16 -11 -8
-16 -7 -18 4 -4 16 -37 21 -46 6 -3 -4 4 -17 15 -27 13 -12 18 -26 15 -40 -4
-13 -1 -24 6 -26 13 -5 -12 -33 -52 -59 -35 -22 -125 -39 -191 -36 l-55 2 -1
78 c0 45 3 73 8 66 6 -11 9 -10 15 4 4 11 1 23 -8 30 -18 14 -31 47 -19 47 5
0 12 -7 15 -16 4 -9 9 -14 12 -11 3 3 0 15 -6 27 -12 22 -11 22 34 16 25 -4
46 -5 46 -2 0 3 -25 30 -56 61 -53 54 -55 58 -49 98 3 23 7 74 9 112 3 39 8
105 12 147 7 81 -4 131 -32 142 -8 3 -14 18 -14 33 0 20 -3 24 -9 14 -7 -10
-12 -8 -25 10 -17 25 -21 49 -8 49 5 0 9 7 9 15 0 8 -3 15 -7 15 -7 0 -33 51
-28 55 15 11 57 11 72 -1 29 -21 52 -17 84 14 21 20 31 43 36 77 4 26 10 54
13 61 7 19 23 7 23 -17 0 -10 6 -19 13 -19 8 0 12 21 13 68 3 146 9 230 17
225 11 -7 9 1 -17 71 -14 36 -30 91 -35 122 -17 89 -55 163 -91 177 -16 6 -30
15 -30 19 0 4 -9 8 -19 8 -26 0 -17 -32 26 -91 18 -26 36 -60 39 -75 4 -25 0
-32 -25 -46 -42 -23 -39 -46 11 -89 l42 -36 -14 -42 c-11 -33 -17 -40 -32 -35
-10 3 -33 2 -50 -1 -32 -7 -32 -7 -8 -20 16 -9 19 -14 10 -20 -10 -6 -9 -10 4
-17 11 -6 22 -6 32 3 13 10 13 8 4 -17 -17 -44 -30 -54 -69 -54 -78 0 -281
106 -281 147 0 5 -11 20 -25 35 -14 15 -25 29 -25 31 0 2 18 12 40 22 32 14
42 26 55 64 19 56 50 92 94 110 44 19 142 116 135 135 -11 30 -147 58 -157 32
-3 -7 -19 -16 -35 -19 -23 -5 -33 -14 -42 -42 -9 -27 -17 -35 -36 -35 -13 0
-24 6 -24 13 -1 18 -39 -55 -40 -75 0 -10 -13 -31 -29 -47 -36 -36 -46 -98
-36 -215 7 -90 -7 -141 -45 -164 -12 -7 -28 -28 -36 -47 -7 -18 -22 -36 -33
-40 -48 -15 -33 -99 22 -128 40 -20 58 -17 38 7 -6 8 -21 12 -31 9 -11 -3 -20
-1 -20 4 0 22 78 117 112 136 39 22 60 18 39 -7 -9 -11 -9 -16 1 -22 15 -10
10 -9 74 -19 78 -11 137 -75 70 -75 -27 0 -43 -35 -20 -44 8 -3 14 -13 14 -21
0 -9 5 -13 10 -10 6 3 10 2 10 -3 0 -21 -29 -19 -54 4 -18 17 -26 20 -26 11 0
-21 -58 -43 -73 -28 -20 20 -56 12 -90 -23 -33 -33 -77 -62 -77 -51 0 7 23 49
31 55 4 3 10 16 14 28 6 21 5 22 -12 13 -33 -19 -60 -47 -66 -67 -3 -10 -8
-32 -12 -49 -6 -29 -6 -29 13 -12 16 15 20 16 25 3 3 -8 3 -17 -1 -21 -4 -4
-7 -10 -7 -13 0 -4 -8 -18 -18 -32 l-19 -25 7 35 c6 28 5 33 -6 23 -18 -18
-13 -105 8 -120 25 -19 43 -16 43 8 0 11 4 18 8 15 5 -3 8 5 8 17 -1 13 6 23
16 25 15 3 18 -4 17 -47 -2 -62 -25 -90 -58 -69 -12 7 -21 18 -21 25 0 14 -13
17 -24 6 -4 -4 3 -16 16 -26 16 -13 18 -17 6 -13 -22 7 -22 -1 -4 -35 27 -53
-2 -137 -41 -122 -13 5 -15 1 -11 -21 6 -30 -16 -114 -34 -131 -8 -7 -9 -3 -5
15 8 33 -2 70 -19 70 -11 0 -11 5 -2 28 7 15 18 34 25 43 7 9 10 19 6 22 -3 4
-1 7 5 7 7 0 12 -5 12 -11 0 -5 5 -7 11 -4 6 4 8 13 5 21 -3 7 -1 16 4 19 16
10 12 35 -5 35 -8 0 -15 8 -15 18 0 13 -2 14 -9 4 -5 -8 -17 -11 -33 -7 -23 6
-27 3 -34 -27 -4 -18 -9 -27 -11 -20 -3 6 -11 12 -19 12 -8 0 -11 6 -8 15 5
11 -1 15 -25 15 -20 0 -34 7 -41 20 -6 11 -16 17 -25 14 -8 -4 -15 -1 -15 5 0
6 7 11 15 11 8 0 30 14 49 31 28 24 35 38 34 63 -1 18 10 52 23 76 17 31 21
44 12 47 -18 6 -16 23 2 23 19 0 39 36 24 46 -6 3 -15 2 -21 -4 -6 -6 -17 -8
-26 -5 -9 4 -13 2 -9 -4 4 -6 0 -13 -8 -17 -8 -3 -15 -12 -15 -21 0 -8 -4 -15
-10 -15 -5 0 -10 -7 -10 -15 0 -8 -4 -15 -10 -15 -16 0 -12 20 10 56 13 21 17
35 10 39 -6 4 -5 12 5 21 18 19 20 37 3 31 -7 -2 -12 -9 -11 -14 2 -13 -45
-15 -68 -3 -28 15 -23 28 13 38 33 8 58 36 44 49 -5 4 -11 2 -13 -4 -3 -7 -9
-13 -14 -13 -6 0 -9 6 -8 13 3 27 -2 36 -23 40 -17 3 -13 5 12 7 35 2 35 2
-10 11 -25 5 -46 13 -48 19 -2 6 -9 16 -15 23 -14 15 -37 54 -37 62 0 3 11 3
25 -1 19 -5 25 -2 25 10 0 23 10 20 42 -11 31 -29 51 -24 24 6 -11 12 -13 21
-7 25 6 4 16 -2 23 -14 7 -11 20 -20 30 -20 9 0 20 -9 23 -20 5 -15 14 -19 38
-18 55 3 94 -19 83 -47 -3 -8 0 -15 5 -15 6 0 9 -9 6 -20 -6 -23 5 -26 23 -5
9 11 9 23 1 47 -6 18 -10 60 -10 93 1 52 5 63 28 83 l26 22 -22 6 c-26 7 -25
6 -17 28 4 10 18 16 40 16 26 0 32 3 27 16 -5 13 -7 13 -14 2 -7 -10 -9 -10
-10 2 0 10 -2 11 -6 3 -8 -21 -43 -15 -43 7 0 17 7 20 50 20 41 0 51 4 61 23
7 12 16 24 20 27 5 4 9 27 10 53 1 26 6 47 11 47 4 0 8 6 8 14 0 7 7 19 15 26
8 7 15 28 15 47 0 27 10 44 50 86 29 30 48 58 45 66 -3 8 2 22 11 32 12 14 13
22 4 38 -10 19 -8 21 17 21 37 0 57 14 50 33 -4 11 1 17 16 19 34 5 59 -3 64
-22z m-1112 -153 c20 -17 28 -35 32 -70 l6 -47 116 -2 116 -2 -117 -3 -118 -4
0 -55 c0 -95 -42 -143 -116 -131 -51 8 -82 42 -99 108 -25 92 3 197 58 219 42
17 94 11 122 -13z m437 -353 c5 -3 8 -15 5 -25 -3 -11 -2 -19 3 -19 4 0 10 9
13 20 7 27 47 27 47 1 0 -11 -6 -22 -12 -24 -10 -4 -9 -8 2 -16 28 -19 -4 -31
-95 -35 -50 -3 -93 -5 -97 -5 -5 -1 -7 -4 -7 -8 1 -5 0 -21 -1 -38 -2 -25 -4
-23 -11 15 -4 25 -8 69 -8 97 l-1 52 76 -4 c41 -3 80 -8 86 -11z m-3122 -520
l0 -494 -162 2 -163 3 -3 485 c-1 267 0 490 2 495 2 6 64 9 165 7 l161 -3 0
-495z m-1290 209 c25 -32 28 -114 4 -137 -26 -27 -49 -35 -85 -31 -60 8 -92
70 -69 134 17 47 35 59 87 59 34 0 47 -5 63 -25z m134 -40 l19 -62 21 62 c19
54 25 62 50 65 27 3 28 2 21 -28 -4 -18 -19 -62 -34 -98 -25 -61 -30 -67 -59
-69 -27 -2 -32 1 -41 30 -6 17 -19 59 -30 91 -27 75 -26 78 7 74 24 -3 29 -10
46 -65z m294 45 c24 -27 36 -68 23 -87 -6 -9 -25 -12 -65 -10 -58 4 -61 3 -47
-20 7 -10 20 -12 50 -7 36 5 41 4 41 -13 0 -26 -57 -45 -93 -32 -60 23 -78
115 -32 165 32 34 92 36 123 4z m3847 -158 c9 0 11 7 7 22 -4 15 -2 19 8 13 7
-4 16 -2 21 6 12 20 22 4 30 -49 l6 -47 2 47 c1 60 21 74 22 16 1 -24 0 -50
-1 -58 -1 -12 1 -13 11 -2 18 16 29 15 29 -4 0 -8 -4 -13 -9 -10 -5 4 -11 0
-14 -6 -4 -10 -7 -11 -18 0 -7 6 -23 12 -35 12 -32 0 -34 -19 -9 -60 12 -19
21 -46 19 -60 -1 -14 -3 -28 -3 -32 -1 -5 -8 -8 -16 -8 -8 0 -15 -6 -15 -12 0
-9 -4 -8 -10 2 -6 10 -10 11 -10 3 0 -7 -6 -13 -14 -13 -8 0 -17 -6 -19 -12
-3 -7 -5 75 -4 182 0 107 2 167 4 133 3 -45 8 -63 18 -63z m-4477 -221 l26
-60 20 58 c16 45 26 59 44 61 31 5 29 -20 -8 -115 -47 -118 -59 -141 -83 -158
-20 -14 -18 -15 46 -15 60 0 67 -2 67 -20 0 -16 -7 -20 -35 -20 l-34 0 -3
-107 c-3 -100 -4 -108 -23 -108 -19 0 -20 8 -23 107 l-3 107 -37 3 c-46 4 -51
30 -7 39 17 4 22 7 13 8 -25 1 -24 41 0 41 11 0 24 11 30 24 9 20 5 38 -24
107 -40 97 -41 109 -13 109 16 0 27 -14 47 -61z m289 42 c26 -13 44 -71 36
-112 -13 -68 -103 -90 -155 -39 -22 22 -28 38 -28 70 0 78 76 120 147 81z
m133 -61 c5 -73 6 -75 32 -78 l27 -3 3 78 c3 70 5 78 23 78 18 0 20 -8 23 -96
l3 -96 -64 -1 c-82 -2 -93 10 -99 103 -7 84 -3 97 26 93 19 -3 22 -11 26 -78z
m5897 -237 c9 -18 10 -30 2 -39 -6 -8 -6 -14 0 -18 5 -3 11 -1 13 5 3 9 10 9
26 0 13 -7 20 -16 17 -22 -4 -5 -1 -9 4 -9 21 0 11 -41 -13 -51 -15 -7 -22
-17 -19 -26 4 -9 0 -14 -8 -13 -46 7 -57 -34 -14 -50 27 -10 34 -30 10 -30 -8
0 -15 5 -15 10 0 6 -4 10 -10 10 -16 0 -12 -27 6 -34 8 -3 12 -10 9 -16 -4 -6
-11 -8 -16 -5 -5 4 -9 2 -9 -4 0 -5 8 -12 18 -15 25 -8 57 0 54 13 -1 7 6 9
20 6 13 -3 34 -7 48 -9 14 -1 31 -6 38 -10 7 -4 12 -1 12 8 0 9 9 16 20 16 23
0 27 18 5 26 -8 4 -15 13 -15 20 0 8 7 17 15 20 8 4 15 17 15 31 0 13 4 22 9
19 12 -8 14 -306 2 -306 -19 0 -61 48 -61 70 0 16 -4 20 -15 16 -9 -3 -15 0
-15 8 0 8 6 17 13 19 6 3 2 6 -9 6 -12 1 -24 -6 -28 -14 -5 -13 -9 -13 -26 -3
-15 10 -22 10 -32 0 -9 -9 -8 -12 5 -12 9 0 17 -4 17 -9 0 -5 3 -16 6 -25 4
-11 1 -16 -10 -16 -9 0 -16 -4 -16 -10 0 -15 16 -12 30 5 11 13 14 12 26 -11
18 -34 18 -34 -7 -34 -11 0 -29 -5 -40 -11 -16 -8 -25 -7 -40 7 -11 10 -19 12
-19 6 0 -7 -5 -12 -11 -12 -5 0 -7 5 -4 11 4 6 -2 13 -14 16 -12 3 -21 12 -21
21 0 8 -3 12 -7 9 -8 -8 -43 22 -43 37 0 6 7 3 16 -6 12 -12 23 -14 40 -8 17
7 27 5 36 -4 12 -12 48 -11 48 3 0 3 -9 12 -20 19 -11 7 -20 21 -20 32 0 11
-5 20 -11 20 -5 0 -7 5 -4 10 3 6 1 10 -4 10 -6 0 -11 -5 -11 -11 0 -5 -4 -8
-9 -5 -5 4 -7 -3 -4 -14 5 -20 -12 -29 -19 -10 -4 14 -58 -11 -58 -28 0 -8
-11 -11 -36 -8 -20 3 -39 7 -42 10 -3 3 -10 2 -16 -4 -13 -10 -24 -4 -46 24
-14 18 -13 19 3 13 15 -6 18 -2 15 20 -2 18 -10 29 -22 31 -14 3 -17 0 -13
-12 8 -20 -3 -20 -29 -1 -25 19 -31 19 -37 -5 -5 -20 -27 -28 -27 -10 0 6 5
10 10 10 6 0 10 7 10 15 0 8 5 15 10 15 6 0 10 7 10 15 0 8 5 15 11 15 5 0 7
5 3 12 -9 15 -15 58 -8 58 8 0 34 -27 34 -35 0 -3 -4 -3 -10 0 -5 3 -10 2 -10
-3 0 -25 77 -21 87 4 3 8 11 14 19 14 8 0 14 9 14 20 0 18 3 19 20 8 24 -15
37 -4 20 17 -10 13 -10 19 4 33 9 10 16 23 16 28 1 16 38 54 53 54 19 0 48 33
50 59 2 28 9 26 24 -6z m-6022 -58 c20 -19 25 -34 25 -72 -1 -68 -35 -104 -91
-98 -60 7 -98 63 -84 125 15 66 103 93 150 45z m3792 -519 c6 -19 8 -37 5 -40
-3 -3 -45 -6 -94 -6 l-88 0 0 -1052 c0 -578 -2 -1053 -5 -1056 -3 -3 -5 205
-5 461 l0 467 -104 0 c-71 0 -107 -4 -114 -12 -6 -8 -9 -186 -8 -489 l1 -476
-314 -6 c-173 -4 -318 -4 -322 -1 -8 4 -4 632 4 709 3 22 7 128 11 235 7 228
9 263 41 560 13 124 29 286 35 360 6 74 15 149 20 166 6 17 10 37 10 46 0 9 8
19 17 22 20 8 413 7 460 -1 l33 -5 -1 -172 c-1 -94 2 -341 6 -548 l8 -378 109
0 108 0 0 585 0 585 -25 0 c-26 0 -31 13 -19 58 6 21 11 22 113 22 l108 0 10
-34z m-3957 -107 c74 0 90 -3 73 -11 -12 -6 -23 -18 -26 -27 -2 -9 -24 -23
-48 -31 -24 -8 -48 -20 -52 -27 -4 -7 -15 -13 -22 -13 -8 0 -15 -7 -15 -15 0
-8 -5 -15 -11 -15 -20 0 -37 -27 -32 -51 5 -25 -34 -79 -57 -79 -6 0 -10 -6
-9 -12 4 -25 -23 -77 -42 -83 -10 -4 -19 -12 -19 -18 0 -7 -15 -24 -34 -39
-23 -18 -33 -34 -30 -46 3 -10 -5 -29 -20 -45 -14 -16 -26 -31 -26 -34 0 -8
33 19 48 40 7 9 23 17 35 17 20 0 18 -3 -13 -30 -19 -17 -50 -37 -69 -46 -19
-9 -44 -25 -55 -36 -33 -30 -94 -67 -121 -74 l-25 -6 0 339 c0 187 3 343 8
348 4 4 111 5 237 1 127 -3 273 -6 325 -7z m1204 -59 c5 -36 5 -200 1 -365 -6
-244 -10 -296 -20 -282 -10 14 -18 15 -39 7 -14 -5 -26 -14 -26 -20 0 -16 -64
-40 -106 -40 l-37 0 7 238 c5 193 4 251 -9 315 -17 91 -25 108 -60 131 -14 9
-24 20 -21 24 3 4 -5 9 -17 9 -12 1 -23 7 -25 13 -2 5 -10 10 -18 10 -8 0 -14
4 -14 9 0 14 61 18 230 17 l145 -1 9 -65z m4624 6 l82 -27 0 -204 c0 -185 -5
-227 -24 -197 -7 11 -101 58 -156 77 -67 23 -166 29 -249 15 -262 -44 -464
-298 -445 -558 7 -95 16 -128 61 -217 89 -178 277 -294 476 -295 109 0 262 51
309 103 14 16 19 17 23 6 3 -8 4 -104 3 -214 l-3 -199 -54 -18 c-30 -11 -99
-26 -155 -34 -287 -44 -599 69 -790 287 -116 132 -185 271 -221 449 -27 131
-9 337 40 475 15 41 78 160 108 205 97 141 285 282 442 329 22 7 47 15 55 19
53 21 139 30 270 28 125 -3 157 -7 228 -30z m-5094 2 c30 -31 36 -60 36 -182
0 -69 -3 -126 -7 -126 -5 0 -38 -7 -75 -14 -36 -8 -75 -12 -86 -9 -18 4 -20
-1 -22 -49 -3 -85 0 -162 9 -209 8 -40 9 -41 10 -11 1 27 5 32 25 32 14 0 27
-4 30 -9 3 -4 26 -11 51 -14 25 -2 49 -7 52 -10 16 -17 -52 -127 -79 -127 -5
0 -14 11 -20 25 -6 14 -17 25 -25 25 -7 0 -13 5 -13 11 0 5 -4 7 -10 4 -5 -3
-10 0 -11 7 0 9 -2 8 -6 -2 -3 -8 -19 -37 -36 -63 -25 -39 -36 -48 -57 -46
-33 3 -83 -18 -75 -31 4 -6 -6 -10 -24 -10 -36 0 -48 -15 -24 -29 16 -9 16
-10 -4 -11 -16 0 -20 -5 -16 -20 3 -11 10 -20 15 -20 5 0 7 -8 4 -18 -4 -12 1
-26 14 -37 22 -20 28 -51 8 -39 -7 4 2 -7 20 -24 40 -38 40 -57 3 -76 -16 -9
-31 -23 -35 -32 -5 -13 -16 -16 -56 -12 -49 5 -72 17 -163 87 -21 17 -52 40
-70 53 -65 47 -107 100 -149 185 -40 80 -43 92 -43 167 0 92 18 140 72 194 18
18 33 39 33 46 0 24 47 46 99 46 27 0 53 -4 56 -10 3 -5 17 -10 31 -10 13 0
24 -4 24 -10 0 -5 5 -10 11 -10 6 0 8 9 4 20 -5 15 -2 20 10 20 13 0 16 -6 12
-20 -4 -15 3 -27 24 -43 18 -13 28 -28 26 -38 -4 -16 6 -20 58 -20 16 0 31 5
33 11 2 6 8 8 12 5 9 -6 23 5 88 68 49 48 56 64 38 92 -14 21 -82 59 -173 96
-18 8 -35 20 -38 27 -7 18 21 69 44 81 10 6 33 24 50 40 23 22 43 31 66 31 19
0 40 6 47 14 19 18 38 21 120 19 41 -1 74 -7 82 -15z m4026 -8 c13 -8 13 -14
-3 -42 -10 -18 -42 -75 -70 -128 -28 -52 -77 -144 -110 -205 -33 -60 -77 -144
-99 -185 -22 -41 -62 -113 -88 -160 -26 -47 -64 -116 -85 -155 -21 -38 -44
-81 -51 -95 -11 -20 -14 -102 -14 -392 l0 -368 -175 0 -175 0 0 366 0 366 -37
66 c-20 37 -41 69 -45 70 -4 2 -8 173 -8 379 0 320 2 374 14 364 8 -7 38 -58
66 -114 29 -56 72 -137 96 -179 23 -42 50 -95 60 -118 10 -22 22 -39 27 -37 5
1 24 32 44 67 45 83 182 345 225 430 18 36 38 68 43 72 15 11 368 9 385 -2z
m-2148 -54 c25 -8 48 -12 51 -10 2 3 6 -17 9 -44 3 -27 12 -62 20 -80 18 -36
15 -42 -23 -42 -16 0 -44 -8 -64 -17 -36 -17 -55 -56 -55 -111 0 -13 -10 -32
-22 -42 -22 -17 -22 -19 -5 -37 26 -29 21 -43 -15 -43 -30 -1 -31 -2 -13 -12
29 -16 29 -16 16 -32 -10 -12 -6 -15 19 -21 26 -6 30 -10 24 -28 -14 -45 -62
-59 -112 -33 -31 16 -40 32 -71 126 -37 113 -19 249 34 258 30 6 43 22 17 22
-12 0 -22 4 -22 10 0 18 121 139 143 143 12 2 22 5 22 6 0 0 21 -6 47 -13z
m96 -213 c2 -8 -5 -13 -17 -13 -32 0 -35 -24 -8 -54 13 -14 27 -26 31 -26 4 0
14 -7 22 -15 9 -8 11 -15 5 -15 -6 0 -11 -6 -11 -13 0 -16 -31 -42 -50 -42 -8
0 -22 -15 -31 -33 -14 -30 -17 -32 -29 -17 -11 13 -11 18 -1 24 10 7 8 18 -8
55 -21 44 -21 89 0 102 5 3 9 13 9 23 0 33 78 53 88 24z m-1514 -605 c7 -41
10 -287 3 -294 -2 -3 -18 7 -35 21 -16 14 -37 25 -46 25 -25 0 -96 43 -96 58
0 6 5 12 11 12 5 0 7 5 4 10 -11 17 -35 12 -28 -6 5 -13 3 -14 -13 -6 -10 6
-29 21 -42 35 -22 23 -22 26 -8 60 8 19 12 38 9 40 -2 3 0 8 6 12 6 3 11 0 11
-8 0 -20 22 -27 63 -20 30 4 36 2 42 -16 12 -37 47 -23 61 24 l12 40 1 -42 c1
-70 21 -49 21 22 0 69 14 87 24 33z m-999 -230 c25 -7 45 -18 45 -25 0 -8 7
-16 15 -19 8 -4 15 -11 15 -18 0 -7 17 -12 43 -13 32 -2 47 -8 65 -28 12 -14
22 -33 22 -41 0 -15 27 -62 86 -149 34 -50 34 -51 35 -167 0 -68 -4 -126 -11
-138 -6 -11 -8 -25 -4 -31 10 -17 -28 -39 -58 -33 -16 3 -28 1 -28 -5 0 -7
-10 -7 -30 0 -16 6 -30 15 -30 20 0 5 -15 16 -32 25 -18 10 -37 23 -43 29 -5
7 -53 44 -106 83 -53 39 -101 77 -106 84 -7 8 -7 46 -1 108 5 61 5 105 -2 124
-5 16 -10 57 -10 91 0 48 5 68 21 89 23 29 46 32 114 14z m-640 -58 c7 0 19
-8 29 -18 15 -17 15 -22 1 -48 -8 -16 -15 -42 -15 -58 0 -20 -4 -27 -14 -23
-8 3 -31 9 -50 13 -28 5 -36 3 -36 -9 0 -8 -6 -20 -14 -26 -21 -18 -28 13 -20
86 5 52 10 63 24 63 10 0 29 13 42 29 21 26 24 27 32 10 5 -11 14 -19 21 -19z"/>
<path d="M6613 9773 c-20 -4 -23 -11 -23 -51 l0 -47 85 0 85 0 0 46 c0 40 -3
48 -22 53 -25 6 -90 6 -125 -1z"/>
<path d="M2877 6104 c-4 -4 -7 -74 -7 -156 l0 -149 128 3 127 3 0 25 c0 24 -2
25 -82 28 l-83 3 0 29 0 30 71 0 70 0 -3 33 -3 32 -65 1 c-68 2 -89 15 -76 49
5 14 13 16 41 11 19 -4 57 -4 85 0 48 6 51 8 48 33 l-3 26 -121 3 c-66 1 -123
-1 -127 -4z"/>
<path d="M3227 5583 l-58 -4 3 -147 3 -147 43 -3 42 -3 0 65 c0 36 4 66 8 66
5 0 34 -29 66 -65 57 -64 58 -65 109 -65 l51 0 -52 53 c-57 57 -63 72 -32 82
11 4 27 20 36 37 13 25 13 35 3 60 -22 53 -102 79 -222 71z"/>
<path d="M3563 5583 c-23 -4 -23 -7 -23 -154 l0 -149 45 0 46 0 -3 153 c-3
166 -2 163 -65 150z"/>
<path d="M2294 7907 c-41 -24 -72 -53 -88 -85 -15 -29 -16 -69 -14 -355 l3
-322 25 -38 c31 -46 98 -81 153 -79 55 3 120 43 142 88 15 32 17 76 18 358 2
362 3 356 -71 413 -37 28 -52 33 -95 33 -29 -1 -61 -6 -73 -13z"/>
<path d="M6202 5242 c-6 -14 -12 -32 -12 -38 0 -28 -85 -50 -107 -29 -11 12
-11 15 4 24 17 10 17 10 1 11 -29 0 -41 -36 -23 -64 9 -13 23 -27 31 -30 10
-4 13 -13 9 -25 -3 -11 -1 -22 5 -26 5 -3 10 -12 10 -18 0 -8 -3 -8 -9 2 -5 7
-11 9 -14 4 -3 -5 16 -31 44 -57 27 -26 49 -51 49 -56 0 -6 11 -9 25 -8 24 2
37 28 14 28 -7 0 -9 10 -5 25 7 26 7 26 -58 29 -11 1 -21 7 -24 14 -2 7 4 11
15 10 10 0 32 0 48 1 30 2 30 2 9 17 -24 16 -22 54 2 54 21 0 17 18 -6 30 -17
9 -20 8 -17 -11 1 -12 -3 -24 -9 -26 -10 -3 -12 17 -5 48 1 8 61 22 79 20 14
-2 17 55 2 64 -5 3 -12 -6 -16 -21 -6 -22 -8 -24 -16 -10 -5 9 -7 25 -3 35 9
30 -9 32 -23 3z"/>
<path d="M4020 4330 c0 -5 -5 -10 -11 -10 -44 0 -67 -108 -29 -132 16 -10 20
-24 20 -70 0 -32 -4 -58 -10 -58 -6 0 -10 -51 -10 -134 0 -154 -8 -186 -45
-186 -14 0 -25 -4 -25 -9 0 -5 -3 -16 -6 -24 -4 -12 0 -14 15 -10 12 3 21 1
21 -6 0 -6 14 -11 30 -11 25 0 30 4 30 25 0 14 6 25 13 25 8 0 7 4 -3 10 -13
9 -12 13 5 28 28 23 43 95 51 237 5 88 12 129 25 155 19 34 25 103 13 148 -5
17 -11 21 -25 17 -11 -4 -19 -2 -19 4 0 6 -9 11 -20 11 -11 0 -20 -4 -20 -10z"/>
<path d="M3952 3645 c-7 -8 -14 -32 -17 -52 -2 -21 -10 -51 -19 -68 -13 -24
-16 -64 -16 -197 0 -152 -2 -170 -21 -203 -18 -30 -21 -46 -16 -98 3 -34 10
-63 16 -65 6 -2 11 -10 11 -18 0 -8 7 -17 15 -20 8 -4 15 -16 15 -28 1 -19 2
-19 11 -3 6 9 15 14 21 11 7 -5 9 11 6 51 -3 34 0 73 9 96 8 26 12 78 10 154
-1 81 2 118 11 126 8 9 12 58 12 171 0 144 -2 158 -17 158 -10 -1 -24 -7 -31
-15z"/>
<path d="M902 3882 c-18 -10 -57 -40 -87 -66 -48 -42 -55 -53 -55 -85 0 -57
17 -73 68 -65 38 6 41 8 28 23 -23 26 -22 55 2 86 22 27 57 54 73 55 4 0 9
-10 12 -22 4 -12 9 -20 11 -17 7 7 -5 109 -13 109 -3 -1 -21 -9 -39 -18z"/>
</g>
</svg>
