<?xml version="1.0" standalone="no"?>
<!DOCTYPE svg PUBLIC "-//W3C//DTD SVG 20010904//EN"
 "http://www.w3.org/TR/2001/REC-SVG-20010904/DTD/svg10.dtd">
<svg version="1.0" xmlns="http://www.w3.org/2000/svg"
 width="720.000000pt" height="1280.000000pt" viewBox="0 0 720.000000 1280.000000"
 preserveAspectRatio="xMidYMid meet">
<metadata>
Created by potrace 1.16, written by Peter Selinger 2001-2019
</metadata>
<g transform="translate(0.000000,1280.000000) scale(0.100000,-0.100000)"
fill="#000000" stroke="none">
<path d="M0 6400 l0 -6400 3600 0 3600 0 0 1025 0 1025 -342 1 c-189 1 -354 2
-368 1 -14 0 -36 2 -49 4 -22 5 -23 6 -6 24 18 19 46 139 65 268 7 48 15 67
35 85 24 20 26 26 19 74 -3 29 -12 61 -20 70 -11 17 -13 16 -25 -12 -6 -16
-15 -46 -20 -65 -16 -74 -32 -126 -44 -155 -35 -81 -45 -109 -45 -130 0 -12
-6 -38 -14 -56 -28 -70 -29 -79 -7 -79 12 0 21 -4 21 -9 0 -17 -103 -22 -370
-17 -344 6 -318 4 -300 16 13 9 11 13 -9 29 -18 14 -22 24 -18 43 8 29 -7 88
-25 101 -10 7 -10 10 0 14 6 2 10 9 6 14 -3 5 0 9 6 9 6 0 8 5 5 10 -3 6 -1
10 5 10 6 0 8 10 4 24 -7 31 11 67 31 59 20 -7 60 39 63 74 3 38 12 42 12 5 0
-22 5 -32 15 -32 8 0 15 8 15 19 0 10 6 24 14 30 12 10 15 6 18 -25 3 -40 28
-61 28 -24 0 36 29 70 61 70 20 0 29 5 29 16 0 8 4 13 9 10 5 -3 20 3 34 14
14 11 28 20 31 20 3 0 17 11 32 25 14 13 41 27 60 31 18 3 40 15 50 25 9 10
21 19 26 19 18 0 48 42 82 113 20 41 36 80 36 86 0 7 7 19 15 27 8 9 15 28 15
43 0 16 4 41 10 57 5 16 11 81 13 144 4 113 16 170 37 170 5 0 10 6 10 14 0 8
14 25 31 37 l31 22 -6 73 c-13 147 -55 308 -113 435 -17 38 -23 63 -18 79 5
15 4 20 -3 16 -13 -8 -32 24 -32 53 0 11 -7 26 -15 34 -8 9 -17 39 -20 69 -5
40 -4 49 5 38 9 -12 10 -10 4 10 -3 14 -10 30 -15 36 -5 6 -11 36 -15 67 -4
31 -10 54 -14 52 -4 -3 -10 14 -13 38 -9 60 -63 222 -186 557 -18 47 -48 130
-68 185 -57 159 -161 437 -165 441 -4 3 -370 -132 -440 -163 -21 -9 -38 -20
-38 -25 0 -5 -10 -6 -22 -2 -20 6 -21 5 -9 -9 11 -14 11 -18 -4 -23 -9 -4 -13
-10 -8 -13 14 -9 43 -72 43 -92 0 -10 5 -21 10 -24 6 -3 10 -37 10 -75 0 -54
5 -77 25 -111 14 -24 25 -55 25 -69 -1 -26 -24 -77 -34 -72 -15 6 -13 -2 14
-55 17 -32 30 -64 30 -73 0 -20 56 -101 64 -93 3 4 6 0 6 -8 0 -11 2 -11 10 1
8 12 10 11 10 -7 0 -13 8 -24 21 -28 16 -5 19 -12 15 -31 -5 -17 -2 -24 9 -24
8 0 15 9 15 19 0 10 7 21 15 25 12 4 15 -3 15 -34 0 -22 -4 -40 -10 -40 -5 0
-10 -11 -10 -25 0 -14 -4 -25 -10 -25 -5 0 -10 -9 -10 -20 0 -11 5 -20 10 -20
6 0 10 7 10 15 0 24 18 17 34 -13 8 -16 21 -34 29 -41 8 -6 13 -21 10 -31 -3
-11 0 -20 6 -20 6 0 24 -27 39 -60 26 -53 27 -61 13 -74 -13 -14 -13 -17 2
-33 11 -12 13 -23 7 -33 -10 -16 18 -71 57 -108 13 -13 37 -50 53 -82 16 -32
39 -68 51 -79 12 -11 18 -24 14 -30 -10 -17 -23 -13 -30 9 -3 11 -12 20 -18
20 -14 0 -37 46 -37 73 0 11 -20 39 -44 63 -25 24 -46 53 -48 65 -2 13 -9 24
-15 27 -27 8 -11 -25 37 -82 36 -41 49 -64 45 -77 -4 -11 0 -26 7 -34 29 -32
38 -45 38 -53 0 -5 12 -19 28 -32 23 -21 25 -25 9 -28 -10 -2 -25 2 -33 9 -8
6 -17 9 -21 5 -4 -3 3 -13 15 -22 12 -8 22 -21 22 -29 0 -23 -22 -29 -36 -10
-8 10 -17 15 -21 12 -3 -4 0 -13 9 -20 16 -12 33 -55 48 -114 11 -46 -4 -33
-20 17 -7 23 -18 44 -23 47 -7 4 -7 -1 -3 -13 5 -10 10 -28 13 -39 4 -16 3
-17 -6 -5 -15 22 -23 6 -11 -24 5 -15 7 -33 3 -39 -9 -15 -10 -17 -13 -64 -2
-38 -2 -38 -9 -8 -5 24 -8 26 -13 13 -4 -10 -3 -31 3 -47 12 -33 -2 -71 -25
-71 -8 0 -19 -14 -25 -30 -5 -17 -15 -30 -20 -30 -6 0 -18 -14 -27 -31 -8 -17
-30 -44 -47 -59 -111 -98 -99 -88 -159 -120 -26 -13 -63 -39 -84 -56 -20 -18
-54 -40 -76 -50 -34 -15 -41 -16 -49 -3 -7 11 -9 10 -10 -6 -3 -52 -131 394
-179 625 -12 58 -30 132 -40 165 -10 33 -18 67 -18 75 0 8 -3 25 -6 38 -3 12
-8 32 -11 45 -18 86 -39 163 -89 332 -19 66 -54 181 -76 255 l-40 134 20 41
c11 23 20 51 20 63 0 19 4 22 33 18 l34 -4 -5 76 c-2 43 -6 79 -9 82 -10 11
-23 -30 -24 -80 l-1 -55 -8 47 c-8 49 -44 118 -61 118 -5 0 -9 16 -9 35 0 19
-4 35 -10 35 -5 0 -10 20 -10 45 0 41 -2 45 -24 45 -30 0 -254 -77 -516 -177
-107 -41 -269 -100 -360 -133 -214 -76 -301 -112 -314 -132 -7 -11 -6 -28 4
-57 17 -53 7 -144 -22 -183 -13 -19 -23 -26 -28 -19 -10 17 -36 -52 -51 -134
-8 -43 -15 -60 -17 -45 -2 14 -11 31 -20 38 -9 7 -11 12 -4 12 7 0 12 15 12
36 0 21 -4 33 -10 29 -5 -3 -10 2 -10 12 0 11 -5 24 -10 29 -7 7 -1 32 20 78
16 37 30 75 30 84 0 10 9 36 20 59 24 54 19 54 -94 7 l-86 -36 15 -35 c20 -49
20 -119 -1 -127 -13 -5 -15 -15 -9 -54 3 -26 9 -88 11 -139 6 -99 -4 -133 -36
-133 -17 0 -20 -7 -20 -47 0 -51 -12 -83 -24 -64 -4 6 -19 11 -32 11 -15 0
-37 12 -52 28 -60 63 -132 144 -132 148 0 3 -16 22 -35 42 -19 20 -37 50 -41
65 -3 16 -12 31 -20 34 -13 5 -29 61 -26 96 0 12 -5 17 -16 13 -9 -2 -35 -7
-57 -11 -22 -4 -43 -9 -47 -11 -10 -7 2 -34 16 -34 16 0 56 -104 56 -145 0
-44 -18 -83 -42 -91 -11 -3 -40 7 -74 26 -38 22 -68 32 -95 32 l-40 -1 45 42
c43 41 61 71 70 121 4 23 3 24 -27 14 -18 -6 -37 -17 -43 -24 -6 -8 -14 -11
-17 -7 -4 3 -7 -1 -7 -10 0 -10 -4 -17 -10 -17 -5 0 -10 -7 -10 -15 0 -32 -40
-43 -117 -33 -70 10 -73 10 -132 -21 -33 -17 -71 -31 -84 -31 -12 0 -27 -4
-32 -9 -14 -11 -109 -41 -134 -41 -12 0 -21 -4 -21 -9 0 -11 -88 -27 -96 -18
-3 3 -1 13 4 24 6 10 26 53 45 95 35 77 93 162 155 228 38 41 102 162 102 193
0 11 9 39 19 61 38 82 61 139 61 153 0 8 11 36 24 62 13 25 36 87 52 136 15
50 31 95 35 100 4 6 12 38 18 72 5 33 14 69 19 79 6 11 15 39 21 64 7 25 21
72 33 105 18 51 34 165 23 165 -2 0 -21 -28 -41 -62 -73 -119 -212 -293 -315
-393 -166 -161 -327 -278 -584 -425 -60 -34 -111 -64 -113 -65 -1 -1 7 -47 18
-101 35 -172 39 -197 51 -309 7 -62 9 -168 6 -245 -7 -163 -31 -251 -115 -409
-30 -58 -91 -178 -135 -266 -43 -88 -82 -162 -86 -165 -3 -3 -14 -21 -23 -40
-9 -19 -38 -78 -63 -130 -25 -52 -44 -103 -41 -113 3 -14 1 -16 -9 -7 -14 12
-25 -6 -25 -43 1 -19 2 -20 13 -7 7 8 24 21 40 29 15 8 27 18 27 21 0 4 13 24
30 45 16 21 30 48 30 60 0 12 7 28 15 35 8 7 15 16 15 21 0 16 40 56 96 95 43
31 54 45 55 69 1 27 2 27 9 -9 4 -21 11 -41 16 -45 9 -6 33 -53 53 -103 l10
-27 43 19 c46 21 108 27 108 10 0 -6 -12 -9 -26 -8 -41 5 -41 -28 0 -36 24 -5
28 -9 16 -16 -13 -9 -13 -11 -1 -19 13 -8 11 -13 -7 -28 -13 -11 -28 -43 -37
-80 l-16 -63 40 -90 c23 -49 41 -95 41 -100 0 -6 3 -10 8 -10 4 0 8 -10 8 -22
2 -36 14 -78 29 -109 18 -33 107 -79 168 -86 57 -7 147 21 180 55 31 33 67
113 67 151 0 15 3 31 8 35 4 4 12 30 17 58 l10 51 33 -28 c22 -19 39 -25 55
-22 19 5 20 4 6 -6 -8 -7 -18 -21 -22 -32 -32 -104 -45 -130 -68 -135 -50 -13
-11 -89 95 -187 33 -30 72 -60 88 -65 32 -11 36 -24 9 -31 -17 -4 -34 -50 -23
-61 3 -3 31 -3 62 1 43 4 66 1 90 -11 18 -9 55 -16 82 -16 l50 0 -7 -33 c-4
-17 -14 -56 -23 -84 -19 -63 -25 -65 -187 -61 l-110 3 3 37 c10 133 -196 342
-360 364 -60 8 -158 -28 -158 -59 0 -14 4 -17 17 -12 10 4 43 9 73 12 48 4 63
1 120 -29 72 -37 123 -100 135 -166 7 -38 68 -112 92 -112 9 0 8 -6 -4 -20
-16 -19 -36 -19 -1000 -20 -541 0 -983 1 -983 3 0 2 9 22 21 46 11 23 18 48
16 54 -3 7 -16 -14 -31 -45 l-26 -58 -105 0 -105 0 0 563 c0 309 3 579 6 599
6 33 10 38 34 38 22 0 29 6 39 38 6 20 10 50 9 66 -3 25 2 30 39 44 42 16 43
16 72 -12 22 -21 37 -27 55 -24 22 4 26 2 26 -18 0 -13 4 -24 8 -24 4 0 16
-22 26 -49 16 -47 37 -67 56 -56 4 3 6 13 3 24 -2 10 3 25 11 34 9 9 16 32 16
55 0 22 6 45 14 51 8 7 17 23 20 37 5 19 11 24 26 19 14 -4 20 -2 20 8 0 8 6
19 13 25 11 9 12 0 9 -49 -4 -56 -3 -61 14 -57 16 3 19 12 17 50 -1 41 2 47
23 52 17 5 24 13 24 31 0 17 4 23 14 19 15 -6 28 -41 17 -46 -4 -2 -5 -28 -2
-58 l6 -55 13 66 c6 37 12 76 12 87 0 19 68 102 83 102 17 0 5 -31 -17 -45
-27 -18 -43 -96 -27 -136 l10 -24 2 23 c2 31 2 31 24 86 20 51 65 107 65 81 0
-8 5 -15 11 -15 8 0 10 -19 5 -64 -4 -40 -3 -67 4 -71 6 -4 10 5 11 22 0 25
17 78 18 61 1 -4 17 0 36 8 39 16 40 15 36 -56 -1 -31 0 -33 10 -16 27 44 -36
308 -175 731 -105 320 -146 449 -146 456 0 4 29 19 65 33 36 14 84 35 108 45
23 11 67 30 97 44 65 29 388 157 395 157 6 0 274 119 360 160 185 89 361 192
519 305 35 25 69 45 75 45 6 0 11 5 11 11 0 16 107 119 124 119 7 0 16 13 19
29 4 18 14 32 27 36 12 4 20 15 20 29 0 13 7 29 15 36 8 6 17 22 21 33 3 12
16 42 27 67 18 41 21 66 22 255 1 268 8 311 48 348 27 25 37 28 78 24 37 -4
50 -1 63 14 9 11 16 24 16 29 0 6 4 10 9 10 5 0 11 14 15 32 3 17 15 37 26 45
11 8 20 23 20 34 0 10 5 19 10 19 6 0 10 8 10 19 0 10 6 24 14 30 20 17 29
368 16 601 -19 335 -44 650 -60 745 -5 33 -11 87 -12 120 -1 48 -2 51 -5 19
l-4 -41 -44 5 c-37 4 -46 1 -51 -14 -4 -11 -15 -28 -26 -40 -10 -11 -23 -47
-28 -79 -9 -57 -20 -85 -20 -51 0 18 -43 89 -73 118 -9 10 -17 23 -17 28 0 6
-7 10 -15 10 -8 0 -15 7 -15 15 0 8 -5 15 -12 15 -6 0 -26 16 -44 35 -18 20
-38 33 -46 30 -8 -3 -30 12 -51 34 -21 22 -48 43 -60 47 -12 3 -32 18 -45 32
l-22 25 -188 -17 c-103 -9 -221 -21 -262 -26 -74 -9 -272 -30 -660 -70 -246
-24 -445 -45 -630 -64 -80 -9 -192 -20 -250 -26 -58 -6 -122 -12 -142 -14
l-38 -4 0 579 0 579 2588 0 2588 0 -4 -35 c-3 -24 7 -62 32 -124 20 -49 36
-94 36 -100 0 -7 -33 -11 -99 -11 l-98 0 -21 48 c-25 54 -37 74 -71 114 -30
35 -40 29 -14 -9 20 -29 73 -140 73 -152 -1 -3 -18 28 -40 69 -48 94 -107 160
-143 160 -26 0 -36 -13 -18 -24 5 -4 12 -25 16 -49 10 -58 24 -81 26 -42 1 28
2 27 10 -10 6 -22 9 -55 7 -74 -2 -29 -8 -36 -32 -42 l-28 -8 7 82 c8 99 -7
95 -27 -8 l-14 -70 -41 -3 -41 -3 4 63 3 63 -13 -53 c-8 -30 -17 -57 -21 -60
-4 -4 -5 2 -2 13 7 23 10 85 8 133 -1 34 -17 44 -24 15 -3 -11 -5 -6 -7 12 -1
23 -5 16 -16 -30 -13 -53 -62 -204 -70 -213 -1 -2 -22 24 -47 57 -46 63 -94
108 -104 97 -4 -3 0 -12 9 -19 29 -23 132 -181 120 -185 -6 -2 -8 -10 -5 -18
3 -8 1 -14 -4 -14 -16 0 -68 62 -117 138 -25 40 -53 75 -61 78 -8 4 -15 11
-15 17 0 17 38 -23 97 -101 30 -40 58 -71 61 -68 8 8 -46 106 -76 138 -28 30
-73 50 -90 39 -8 -5 -4 -18 12 -41 13 -19 45 -68 72 -108 26 -41 63 -86 81
-101 30 -25 33 -31 23 -55 -15 -40 -13 -198 3 -220 12 -16 13 -10 9 43 -6 80
9 152 69 338 27 84 50 163 50 175 1 14 3 17 5 8 5 -17 -21 -129 -59 -255 -14
-44 -22 -84 -19 -89 3 -5 21 32 41 83 20 51 37 88 39 83 1 -5 -11 -51 -28
-103 -33 -101 -60 -205 -59 -229 1 -21 31 50 68 160 45 134 51 154 51 172 0
11 12 17 37 21 21 2 41 3 44 1 14 -8 -15 -100 -42 -134 -28 -35 -32 -48 -30
-85 1 -16 7 -13 37 19 40 43 38 62 -3 25 -20 -17 -23 -19 -13 -4 8 11 24 27
35 37 21 18 156 53 177 46 7 -3 -11 -10 -40 -17 -79 -19 -77 -34 3 -29 76 5
62 -4 -35 -22 -110 -20 -131 -38 -114 -98 7 -26 8 -25 14 13 l7 40 2 -47 c0
-26 6 -59 12 -75 l12 -28 7 25 c8 25 8 24 10 -5 l2 -30 8 30 c4 17 13 55 19
85 l11 55 82 26 82 26 56 -58 c58 -59 96 -78 125 -61 15 8 12 12 -18 31 -20
12 -45 34 -56 49 -11 15 -22 24 -25 21 -3 -3 8 -22 25 -42 17 -20 26 -37 20
-37 -19 0 -93 103 -129 178 -40 84 -37 110 4 30 28 -54 44 -52 25 4 -21 60
-10 53 17 -12 16 -36 40 -83 54 -105 52 -82 55 -63 7 45 -27 62 -49 114 -49
116 0 2 45 4 99 4 l100 0 17 -54 c18 -57 14 -94 -12 -121 -24 -24 -11 -29 17
-6 21 17 24 27 24 90 0 53 3 70 12 66 7 -2 13 2 13 10 0 27 17 15 24 -16 12
-63 7 -115 -16 -149 -13 -19 -30 -36 -38 -38 -12 -4 -11 -1 3 15 27 30 20 34
-18 11 -26 -15 -46 -19 -75 -15 -33 4 -38 2 -33 -12 9 -24 24 -31 66 -31 102
0 155 68 144 188 l-6 64 32 -7 c17 -4 48 -6 68 -6 33 2 36 -1 48 -39 14 -46
62 -107 86 -107 19 0 19 0 -15 72 -29 61 -42 53 -16 -10 23 -55 8 -41 -19 17
-26 55 -21 75 14 63 14 -4 21 -15 21 -30 0 -13 5 -27 10 -30 6 -4 10 7 10 26
l0 31 71 -4 c68 -4 73 -5 101 -41 17 -20 39 -37 49 -37 23 0 24 9 3 39 l-17
23 74 -7 c180 -17 599 -95 789 -146 41 -11 166 -50 278 -86 111 -36 206 -63
209 -59 9 9 11 9 -172 68 -310 101 -623 177 -856 208 -47 6 -90 15 -96 18 -7
4 -25 37 -42 72 -30 62 -44 57 -20 -7 7 -18 7 -24 0 -18 -21 20 -42 134 -39
207 l3 73 9 -62 c5 -35 13 -63 17 -63 5 0 9 27 9 60 0 33 3 60 8 60 4 0 8 -45
8 -99 1 -54 5 -112 9 -128 8 -27 9 -26 16 17 4 25 8 85 8 134 l1 89 493 -3
c270 -2 527 -3 570 -2 l77 2 0 1775 0 1775 -3600 0 -3600 0 0 -6400z m6795
3679 c153 -68 200 -265 96 -404 -25 -34 -27 -41 -14 -50 23 -17 -3 -53 -49
-67 -30 -9 -45 -8 -80 5 -34 13 -55 15 -98 8 -30 -5 -63 -13 -73 -16 -53 -21
-137 34 -107 70 11 13 9 19 -8 38 -85 90 -82 268 6 360 77 82 216 105 327 56z
m-652 5 c52 -18 116 -76 143 -132 28 -55 26 -174 -4 -229 -50 -95 -136 -143
-256 -143 -209 0 -331 220 -222 402 25 42 43 59 94 85 54 28 75 33 131 33 37
0 88 -7 114 -16z m-5834 -111 c15 -56 71 -300 71 -307 0 -3 -15 -6 -33 -6 -28
0 -34 4 -42 32 -9 29 -14 32 -50 31 -36 0 -40 -3 -47 -31 -8 -28 -13 -32 -42
-32 l-34 0 14 58 c7 31 26 110 41 175 l27 117 43 0 c40 0 43 -2 52 -37z m401
-55 l1 -93 30 38 c23 27 39 37 60 37 16 0 29 -3 29 -6 0 -4 -16 -28 -35 -53
-30 -41 -33 -50 -21 -67 7 -10 25 -40 40 -66 l27 -48 -35 0 c-30 0 -38 5 -57
40 -13 22 -26 40 -31 40 -4 0 -8 -18 -8 -40 0 -38 -2 -40 -30 -40 l-30 0 0
175 0 175 30 0 30 0 0 -92z m1740 -83 l0 -176 -42 1 c-24 1 -55 -1 -69 -5 -19
-5 -33 -1 -55 18 -28 24 -29 29 -29 106 1 69 4 85 22 102 22 22 54 28 91 15
21 -7 22 -5 22 53 l0 61 30 0 30 0 0 -175z m452 83 l3 -92 25 37 c20 30 31 37
58 37 30 0 42 -12 24 -24 -5 -3 -21 -23 -36 -44 l-27 -40 40 -66 41 -66 -35 0
c-30 0 -38 5 -57 40 -13 22 -26 40 -30 40 -5 0 -8 -18 -8 -40 0 -39 -1 -40
-35 -40 l-35 0 0 168 c0 93 3 172 7 175 3 4 19 7 34 7 l28 0 3 -92z m728 28
l0 -65 35 15 c28 11 40 12 58 3 34 -18 37 -27 37 -136 l0 -103 -30 0 -30 0 0
90 c0 75 -3 92 -16 97 -37 14 -49 -10 -52 -101 l-3 -86 -29 0 -30 0 0 175 0
175 30 0 30 0 0 -64z m530 3 c0 -58 1 -60 23 -53 76 26 107 -8 107 -118 0 -71
-2 -81 -26 -105 -21 -21 -31 -24 -57 -18 -18 4 -49 6 -69 6 l-38 -2 0 176 0
175 30 0 30 0 0 -61z m-1482 -11 c3 -35 6 -38 33 -38 24 0 29 -4 29 -25 0 -21
-5 -25 -30 -25 l-31 0 3 -67 c3 -66 4 -68 31 -71 21 -3 27 -8 23 -19 -3 -8 -6
-19 -6 -24 0 -16 -73 -10 -92 8 -14 13 -18 31 -18 90 0 66 -2 75 -20 80 -13 3
-20 14 -20 29 0 17 6 24 20 24 17 0 20 7 20 41 0 38 1 40 28 37 23 -3 27 -8
30 -40z m-2094 -58 c24 -24 34 -122 17 -173 -15 -44 -59 -66 -97 -48 -14 6
-27 11 -29 11 -3 0 -5 -29 -5 -65 l0 -65 -30 0 -30 0 0 181 0 182 39 -6 c21
-2 45 -1 52 4 19 12 60 2 83 -21z m402 20 c8 0 23 -9 34 -20 17 -17 20 -33 20
-121 l0 -101 -32 3 c-18 1 -48 -1 -66 -5 -50 -12 -82 13 -82 64 0 44 20 64 83
81 28 7 37 15 35 27 -5 25 -45 27 -58 3 -13 -25 -48 -28 -57 -5 -13 34 56 90
95 78 8 -2 20 -4 28 -4z m293 -1 c38 -14 51 -35 51 -88 l0 -41 -61 0 c-60 0
-60 0 -57 -27 3 -32 44 -46 54 -19 4 10 18 16 35 16 35 0 39 -25 10 -61 -27
-34 -99 -34 -135 0 -23 22 -26 32 -26 96 0 79 20 120 63 128 12 2 25 5 28 6 3
0 20 -4 38 -10z m199 0 c29 -10 59 -59 45 -73 -15 -15 -51 -5 -56 15 -4 13
-12 20 -24 17 -31 -6 -27 -34 7 -48 78 -32 101 -82 61 -131 -15 -19 -29 -24
-66 -24 -37 0 -51 5 -66 24 -29 36 -25 61 11 61 24 0 30 -4 30 -21 0 -15 5
-20 22 -17 42 6 33 36 -16 58 -54 23 -75 57 -60 98 9 25 45 52 70 52 6 0 25
-5 42 -11z m219 -13 c6 -6 13 -22 15 -36 2 -21 -2 -26 -23 -28 -20 -2 -28 2
-32 18 -4 14 -12 21 -24 18 -29 -5 -21 -32 15 -50 73 -36 92 -81 53 -129 -15
-19 -29 -24 -66 -24 -37 0 -51 5 -66 24 -29 36 -25 61 10 61 21 0 30 -6 34
-21 7 -25 40 -22 45 4 3 12 -9 23 -42 37 -51 21 -70 54 -60 97 12 45 104 65
141 29z m182 13 c17 -6 36 -19 41 -29 6 -10 10 -62 10 -116 l0 -97 -40 6 c-22
3 -43 1 -46 -4 -8 -14 -47 -11 -72 7 -16 11 -22 25 -22 54 0 44 20 64 83 81
28 7 37 15 35 27 -5 25 -45 27 -58 3 -13 -25 -48 -28 -57 -5 -8 23 16 62 46
73 35 13 43 13 80 0z m319 -22 c16 -15 22 -32 22 -64 l0 -43 -61 0 c-60 0 -60
0 -57 -27 3 -32 44 -46 54 -19 8 20 64 22 64 2 0 -69 -102 -98 -158 -45 -19
17 -22 31 -22 98 0 68 3 80 23 98 12 11 29 23 37 26 25 9 73 -4 98 -26z m1000
-3 c19 -21 22 -36 22 -99 0 -70 -1 -74 -32 -100 -27 -23 -39 -26 -71 -22 -59
8 -80 35 -85 107 -3 36 1 72 9 91 24 60 111 73 157 23z m240 9 c8 -11 12 -53
12 -120 l0 -103 -30 0 -30 0 0 90 c0 75 -3 92 -17 97 -32 12 -53 -32 -53 -113
l0 -74 -30 0 -30 0 0 120 0 120 29 0 c16 0 31 -5 33 -12 3 -8 11 -7 29 5 27
20 67 15 87 -10z m530 -9 c15 -17 22 -38 22 -65 l0 -39 -61 0 c-60 0 -60 0
-57 -27 3 -32 44 -46 54 -19 4 10 18 16 35 16 35 0 40 -29 9 -60 -27 -27 -63
-34 -105 -20 -46 15 -55 34 -55 123 0 64 3 76 23 94 12 11 29 23 37 26 28 11
75 -3 98 -29z m542 10 c11 -11 15 -39 15 -117 l0 -102 -32 -3 -33 -3 0 91 c0
72 -3 92 -15 96 -33 13 -45 -15 -45 -102 l0 -84 -35 0 -35 0 0 120 0 120 35 0
c19 0 35 -4 35 -9 0 -6 12 -3 28 4 29 16 58 12 82 -11z m215 -5 c17 -16 21
-36 23 -120 l4 -100 -44 1 c-23 1 -54 -1 -68 -5 -34 -9 -80 27 -80 61 0 42 17
62 70 79 37 12 50 22 50 36 0 26 -36 25 -52 -1 -12 -19 -48 -27 -61 -14 -3 3
-1 19 5 36 20 56 108 72 153 27z m394 20 c36 -13 61 -53 61 -99 l0 -30 -59 0
c-63 0 -76 -8 -66 -40 8 -24 55 -28 55 -5 0 11 11 15 36 15 32 0 35 -2 29 -22
-4 -13 -18 -34 -33 -47 -21 -19 -33 -22 -65 -18 -60 8 -80 35 -85 109 -5 79 9
115 50 133 41 17 38 17 77 4z m204 -3 c15 -8 27 -11 27 -5 0 5 14 9 31 9 l30
0 -3 -154 c-3 -134 -5 -157 -22 -175 -42 -46 -144 -35 -166 19 -7 16 -9 34 -5
39 10 18 44 12 57 -9 27 -42 78 -15 78 41 0 18 -3 20 -12 11 -7 -7 -29 -12
-49 -12 -56 0 -79 34 -79 116 0 72 13 107 44 122 29 14 37 14 69 -2z m285 -22
c19 -22 22 -36 22 -120 l0 -95 -42 1 c-24 1 -54 -1 -68 -5 -36 -9 -80 27 -80
65 0 27 32 70 52 70 5 0 24 7 43 14 25 11 33 19 29 30 -9 22 -41 20 -56 -4
-18 -29 -58 -27 -58 3 0 73 105 101 158 41z m-3048 -94 l0 -120 -35 0 -35 0 0
113 c0 63 3 117 7 120 3 4 19 7 35 7 l28 0 0 -120z m2280 63 c19 -90 25 -92
45 -14 18 68 20 71 48 71 28 0 29 -2 23 -33 -3 -19 -25 -99 -49 -178 l-42
-144 -34 -3 c-28 -3 -33 -1 -27 14 28 74 28 99 -3 207 -18 59 -34 113 -37 122
-5 12 2 15 28 15 34 0 35 -1 48 -57z m689 -690 l-1 -98 -38 -43 c-33 -37 -44
-43 -72 -40 -31 3 -34 7 -75 108 -41 99 -51 148 -36 163 3 4 55 7 115 7 l108
0 -1 -97z m231 27 l0 -69 -41 -11 c-69 -19 -73 -15 -79 73 l-5 77 63 0 62 0 0
-70z m181 -25 c6 -97 20 -152 50 -200 l18 -31 -37 3 c-20 2 -51 6 -69 9 l-32
5 0 147 c0 80 3 150 6 155 3 4 17 7 31 5 26 -3 27 -5 33 -93z m-4501 -1183 c0
-43 21 -72 68 -91 27 -12 51 -54 65 -117 2 -6 17 -25 34 -42 23 -24 29 -37 25
-58 -3 -18 -1 -25 6 -20 13 8 52 -23 52 -40 0 -6 -16 -14 -35 -17 -20 -3 -49
-17 -66 -31 -17 -14 -35 -26 -41 -26 -52 0 -138 -87 -138 -139 0 -33 -39 -113
-66 -134 -14 -10 -33 -36 -44 -56 -17 -34 -17 -41 -4 -66 17 -34 34 -179 43
-370 l6 -140 26 3 c29 3 113 -30 125 -50 5 -7 9 -19 10 -26 3 -19 33 -50 66
-70 58 -34 26 -95 -72 -136 -25 -10 -60 -24 -78 -32 -18 -8 -50 -14 -71 -14
-31 0 -40 -5 -52 -27 -16 -32 -59 -82 -59 -70 0 5 -11 -4 -24 -20 -16 -19 -45
-35 -86 -47 -71 -21 -134 -50 -169 -77 -18 -15 -41 -19 -95 -19 -70 0 -73 1
-112 39 -40 38 -41 38 -143 45 -114 9 -108 5 -186 101 -31 38 -135 233 -135
253 0 5 -7 22 -15 38 -12 25 -12 45 -3 127 l12 99 25 -7 c31 -8 61 -8 118 1
29 4 43 2 43 -5 0 -6 -7 -11 -16 -11 -26 0 2 -28 56 -55 25 -12 60 -30 79 -40
19 -10 56 -20 82 -23 48 -4 73 -27 48 -43 -9 -5 -10 -44 -5 -145 4 -77 9 -147
12 -157 3 -10 20 -23 37 -31 29 -11 33 -11 49 10 10 12 18 28 18 35 0 7 2 10
6 7 3 -3 25 14 50 38 58 55 100 65 144 34 27 -19 41 -22 119 -18 71 2 93 7
111 23 13 11 33 18 51 17 16 -1 29 2 29 8 0 5 12 10 28 10 24 1 25 2 8 11 -22
14 -153 3 -213 -17 -49 -16 -77 -8 -108 28 -17 20 -20 35 -18 113 1 50 5 110
8 135 14 102 17 291 5 305 -6 7 -10 35 -9 62 1 32 -5 62 -19 92 -12 25 -22 57
-22 72 0 28 -39 69 -66 69 -7 0 -14 5 -16 11 -7 21 -99 30 -153 15 -27 -8 -75
-16 -105 -20 -82 -8 -197 -73 -213 -119 -3 -8 -11 -6 -25 6 -14 13 -28 17 -43
12 l-23 -8 25 30 c13 16 37 50 53 76 17 26 33 47 37 47 3 0 24 16 45 36 62 59
90 67 191 53 75 -10 93 -9 142 6 89 28 105 35 130 54 l25 19 -44 21 c-24 12
-58 21 -76 21 -17 0 -42 9 -55 19 l-24 19 33 31 c17 17 32 36 32 42 0 19 44
48 73 49 16 0 37 5 48 11 35 18 133 13 177 -10 41 -21 41 -21 52 -2 5 11 10
36 10 56 0 22 6 38 15 41 8 4 15 12 15 19 0 7 7 15 15 19 8 3 15 12 15 21 0 8
15 46 34 84 28 55 41 70 68 78 49 16 48 16 48 -25z m-908 -897 c2 -32 7 -41
24 -43 17 -2 23 -12 28 -43 9 -54 34 -75 97 -84 30 -4 62 -11 71 -16 30 -16
-5 -68 -46 -69 -11 0 -27 -7 -36 -15 -27 -24 -177 -36 -215 -17 -16 8 -33 20
-37 26 -4 6 -10 7 -14 3 -4 -4 -18 11 -31 34 -29 51 -23 93 13 86 13 -2 22 1
21 7 -2 12 55 13 89 2 28 -10 60 20 43 40 -6 8 -20 14 -31 14 -28 0 -78 28
-78 44 0 19 82 88 91 79 4 -5 9 -26 11 -48z m658 -1147 c25 -6 57 -21 72 -35
27 -26 28 -53 1 -53 -8 0 -13 -7 -11 -17 4 -22 34 -27 156 -27 87 -1 93 -2 90
-21 -2 -11 -13 -24 -25 -30 -25 -11 -58 -77 -50 -99 3 -8 19 -23 34 -33 15
-10 50 -40 76 -66 43 -44 48 -52 41 -80 -7 -33 -57 -87 -81 -87 -7 0 -13 -4
-13 -9 0 -5 -19 -11 -42 -15 -24 -3 -82 -13 -130 -22 -141 -27 -244 3 -309 90
-23 31 -46 50 -60 51 -27 2 -58 42 -59 75 0 18 -17 40 -60 78 -42 38 -60 61
-60 78 0 20 5 24 31 24 16 0 28 -4 24 -9 -3 -5 0 -13 5 -16 6 -4 16 -19 21
-33 9 -23 12 -25 22 -12 17 21 68 14 74 -11 3 -10 14 -19 24 -19 17 0 19 8 19
81 0 78 -1 82 -31 110 -56 53 -80 119 -43 119 18 0 57 -21 67 -37 15 -24 71
-15 107 17 20 17 41 27 50 23 8 -3 35 -10 60 -15z m2610 -1418 c0 -23 15 -25
50 -5 64 37 142 7 173 -67 8 -18 44 -62 81 -97 46 -43 65 -69 61 -80 -3 -9
-29 -29 -58 -44 -30 -15 -79 -51 -110 -81 l-57 -54 -2 -98 c-1 -55 -3 -142 -4
-194 0 -52 -3 -104 -5 -115 -3 -14 2 -20 17 -21 36 -2 79 -28 82 -51 3 -18 -4
-24 -37 -34 -23 -7 -41 -18 -41 -26 0 -7 -7 -16 -16 -20 -15 -6 -16 -7 -1 -18
11 -8 32 -9 62 -5 25 4 45 3 45 -2 0 -18 -33 -58 -47 -58 -8 0 -13 -6 -11 -12
3 -8 32 -15 79 -18 72 -5 74 -6 77 -33 3 -22 -40 -119 -64 -146 -2 -2 -33 -6
-69 -8 -101 -5 -128 12 -240 152 -39 50 -78 97 -86 105 -30 34 -91 142 -124
225 -37 90 -43 201 -15 264 11 22 23 41 29 41 5 0 12 8 14 18 3 11 7 6 12 -16
9 -40 25 -24 25 26 0 21 6 35 16 39 19 7 33 -12 28 -36 -2 -9 2 -24 10 -34 12
-16 23 -18 70 -12 62 8 71 15 62 48 -8 34 -56 57 -120 57 -43 0 -54 3 -50 14
3 7 -2 16 -10 19 -11 5 -14 14 -10 37 5 23 3 30 -9 30 -12 0 -15 -8 -10 -34 9
-55 -40 -93 -53 -41 -4 16 0 30 11 41 13 13 15 27 11 54 -5 29 -1 44 15 65 14
17 24 23 29 15 8 -13 45 58 60 115 12 45 22 61 64 93 36 28 66 29 66 2z
m-1240 -311 c0 -4 -11 -10 -25 -13 -14 -4 -25 -10 -25 -15 0 -5 -7 -16 -15
-25 -8 -8 -18 -36 -22 -61 -5 -41 -3 -48 18 -63 13 -9 37 -19 54 -22 17 -3 31
-12 33 -22 3 -15 -1 -15 -35 3 -40 20 -127 26 -138 9 -3 -5 -15 -10 -26 -10
-38 0 -11 -78 44 -127 19 -17 33 -34 30 -37 -21 -21 -148 11 -185 47 -44 43
-80 59 -119 54 -29 -4 -39 -2 -39 9 0 20 41 54 66 54 23 0 39 24 28 42 -4 6 2
6 14 -1 11 -6 30 -11 41 -11 25 0 61 37 61 62 0 14 8 18 40 18 29 0 40 4 40
15 0 9 9 15 21 15 20 0 21 1 5 25 -21 32 -20 45 3 45 11 0 22 4 25 8 6 10 106
10 106 1z m1694 -28 c7 -11 -57 -61 -78 -61 -20 0 -21 -14 -2 -30 8 -6 12 -18
9 -26 -8 -20 15 -44 43 -44 20 0 24 -5 24 -31 l0 -31 64 7 c67 7 92 2 79 -18
-5 -7 -17 -39 -28 -72 -19 -56 -22 -60 -53 -63 -38 -4 -68 17 -86 59 -6 14
-39 49 -73 78 -58 48 -62 53 -51 76 9 20 8 28 -5 42 -20 23 -8 46 33 63 16 7
30 18 30 26 0 26 80 48 94 25z m-1794 -422 c0 -20 4 -21 49 -17 28 3 56 1 63
-3 9 -6 7 -9 -8 -9 -12 0 -27 -7 -34 -15 -7 -8 -8 -15 -2 -15 12 0 24 -42 14
-50 -21 -15 -45 -68 -46 -102 0 -21 -3 -38 -6 -38 -4 0 -32 5 -64 11 -48 9
-65 8 -99 -6 -23 -9 -50 -24 -59 -32 -16 -15 -18 -15 -18 1 0 9 15 23 33 31
31 14 143 48 162 49 5 1 12 15 15 32 4 17 10 36 14 43 11 17 -11 75 -39 101
-23 22 -25 22 -50 6 -25 -17 -33 -50 -15 -61 13 -8 13 -82 -1 -91 -6 -3 -45
-7 -86 -9 -50 -2 -78 -7 -84 -16 -10 -16 -34 -96 -51 -167 -17 -72 -22 -233
-8 -242 9 -5 8 -15 -4 -38 -9 -17 -16 -39 -16 -50 0 -10 -7 -27 -15 -38 -14
-18 -14 -18 -8 4 4 18 1 22 -19 22 -23 0 -25 3 -26 62 -1 33 -9 88 -19 121
-12 43 -13 62 -5 65 22 7 62 44 62 56 0 45 -75 72 -120 44 -16 -11 -23 -8 -48
15 -15 15 -33 27 -39 27 -7 0 -15 5 -18 10 -8 13 43 33 78 31 25 -2 27 0 22
22 -10 37 18 41 44 6 15 -20 30 -29 50 -29 31 0 41 14 41 61 0 23 8 33 38 49
l37 21 -42 -7 c-32 -4 -43 -2 -43 8 1 29 27 45 83 52 48 6 61 5 70 -8 11 -15
16 -15 54 1 30 13 43 24 43 38 0 28 10 38 50 58 48 23 70 22 70 -4z m-68 -321
l40 -23 -6 -52 c-5 -44 -3 -52 11 -56 10 -3 -3 -2 -29 0 -32 4 -48 2 -48 -6 0
-6 -10 -11 -22 -11 -13 0 -42 -21 -73 -53 l-51 -53 -12 25 c-39 83 20 222 103
244 37 9 47 7 87 -15z m-528 -83 c37 -16 58 -41 71 -85 4 -14 12 -28 18 -31 5
-4 13 -29 18 -55 9 -57 -11 -142 -39 -167 -16 -15 -17 -11 -14 59 3 47 0 80
-7 87 -6 6 -11 23 -11 38 0 23 -4 26 -30 25 -24 -1 -30 -5 -30 -23 0 -12 -4
-25 -10 -28 -5 -3 -10 -17 -10 -31 0 -17 -5 -24 -20 -24 -11 0 -20 4 -20 9 0
5 -19 7 -42 5 -24 -2 -34 -1 -23 2 11 3 24 10 30 15 5 5 17 9 27 9 10 0 19 6
19 13 1 6 2 23 4 37 1 14 5 35 9 47 6 18 4 22 -8 17 -20 -8 -22 28 -3 48 7 7
16 21 20 31 8 21 6 21 51 2z m138 -358 c-12 -14 -5 -57 8 -57 13 0 22 -88 11
-109 -12 -21 -64 -43 -85 -35 -14 5 -46 -20 -46 -36 0 -17 51 -68 78 -78 18
-6 43 -5 75 3 56 14 56 16 19 -84 -23 -63 -42 -75 -117 -71 -83 3 -140 44
-175 126 -24 56 -17 142 17 201 26 48 86 93 120 93 13 0 23 4 23 10 0 5 16 16
35 24 19 8 35 20 35 27 0 7 3 9 6 6 4 -4 2 -12 -4 -20z m1312 -93 c11 -4 16
-19 16 -51 0 -24 -3 -42 -7 -40 -5 3 -9 -45 -10 -107 -3 -133 -7 -153 -33
-161 -11 -3 -20 -15 -20 -25 0 -30 -12 -53 -20 -40 -4 6 -14 -8 -25 -35 -9
-25 -28 -58 -42 -73 -19 -21 -24 -34 -20 -59 6 -34 -14 -113 -38 -150 -8 -12
-15 -29 -15 -38 0 -8 -7 -15 -15 -15 -8 0 -15 -6 -15 -14 0 -8 -4 -18 -10 -21
-5 -3 -103 -9 -216 -12 l-207 -6 6 24 c3 13 12 51 19 84 l14 60 62 3 c36 2 62
-1 62 -7 0 -12 -49 -51 -65 -51 -14 0 -41 -57 -32 -66 5 -5 84 74 99 100 3 6
39 45 78 86 54 57 70 80 67 97 -2 12 -1 20 3 18 8 -5 100 99 100 113 0 6 4 12
8 14 16 6 52 77 72 139 11 34 26 70 33 78 24 31 37 61 37 85 0 15 12 34 31 50
30 26 53 31 83 20z m-992 -191 c10 -9 18 -30 18 -49 0 -41 15 -46 62 -23 36
18 119 25 151 13 11 -4 13 -20 9 -73 -5 -77 15 -155 55 -207 24 -32 30 -68 14
-79 -6 -3 -24 3 -42 14 -20 12 -43 18 -58 15 -17 -3 -37 3 -57 18 -148 108
-153 115 -141 191 8 57 -1 118 -23 152 -12 17 -20 45 -13 45 4 0 15 -7 25 -17z
m401 -17 c4 4 7 -2 7 -14 0 -12 9 -31 20 -42 11 -11 20 -22 20 -25 -2 -21 76
-85 103 -85 23 0 41 -26 23 -33 -8 -3 -16 -18 -18 -34 -2 -22 -8 -28 -27 -29
-29 -2 -81 -55 -81 -83 0 -11 12 -29 26 -40 31 -24 25 -27 -14 -7 -31 16 -84
71 -101 103 -16 32 -14 71 10 133 21 54 22 124 5 175 -6 16 -4 15 6 -3 8 -12
17 -19 21 -16z m944 -122 c25 -19 33 -33 33 -56 l0 -30 18 22 c17 22 26 23
175 25 97 1 156 -2 154 -8 -1 -5 -30 -23 -62 -41 -33 -17 -62 -33 -65 -36 -9
-11 -121 -50 -141 -50 -10 0 -19 -4 -19 -8 0 -5 -35 -34 -78 -65 -87 -63 -133
-104 -158 -142 -25 -38 -27 -24 -3 25 49 102 62 160 62 287 l1 121 25 -10 c14
-5 41 -21 58 -34z"/>
<path d="M6613 9773 c-20 -4 -23 -11 -23 -51 l0 -47 85 0 85 0 0 46 c0 40 -3
48 -22 53 -25 6 -90 6 -125 -1z"/>
<path d="M4211 9165 c-12 -31 -21 -58 -21 -61 0 -3 -7 -30 -15 -59 -12 -39
-22 -55 -38 -59 -24 -7 -72 -67 -105 -131 -11 -22 -29 -48 -41 -59 -19 -17
-21 -17 -27 -2 -4 12 4 28 24 49 41 43 63 89 52 108 -18 27 -62 -11 -108 -94
-24 -43 -45 -77 -47 -75 -3 3 24 130 45 209 6 21 19 41 32 47 20 10 21 11 3 9
-17 -2 -19 3 -17 32 5 42 -12 34 -28 -14 -6 -19 -18 -35 -26 -35 -8 0 -14 -4
-14 -10 0 -5 6 -7 14 -4 10 4 7 -19 -14 -94 -27 -98 -47 -148 -56 -139 -3 3 2
32 10 65 19 73 19 73 2 66 -8 -3 -22 -27 -31 -52 -14 -44 -55 -117 -55 -99 0
4 15 67 34 140 19 72 37 152 40 177 l7 45 -16 -28 c-17 -29 -48 -119 -59 -174
-6 -24 -17 -37 -41 -49 -20 -9 -42 -32 -56 -60 -13 -24 -29 -44 -35 -44 -5 0
-18 -18 -28 -40 -18 -41 -62 -83 -80 -77 -12 5 -10 63 5 120 8 30 18 42 45 53
42 18 44 28 4 22 -34 -5 -35 -2 -12 67 14 42 21 51 44 53 19 2 28 -2 33 -17 7
-23 25 -29 25 -8 0 6 3 23 7 36 6 24 5 24 -46 17 -71 -9 -124 -35 -109 -53 12
-15 -6 -100 -26 -118 -6 -5 -12 -26 -12 -45 -1 -19 -9 -63 -17 -97 -15 -62
-15 -63 6 -63 11 0 47 7 78 16 49 14 60 21 70 48 11 28 13 29 16 9 6 -31 27
-29 48 4 l18 27 9 -25 9 -24 28 34 28 34 7 -24 7 -24 29 35 c27 31 30 32 30
12 0 -33 17 -27 48 18 31 45 42 50 42 16 0 -52 45 -35 92 34 17 24 17 24 17 3
1 -37 22 -38 52 -2 26 31 28 32 29 12 0 -13 4 -23 9 -23 19 0 99 125 87 137
-2 3 -14 -14 -26 -37 -12 -23 -23 -40 -26 -38 -2 3 12 65 31 139 36 135 52
219 42 219 -3 0 -15 -25 -26 -55z"/>
<path d="M3915 8510 c-92 -14 -245 -60 -413 -127 -92 -36 -169 -67 -171 -69
-3 -3 1 -10 7 -16 9 -9 61 4 214 55 265 86 258 84 370 102 160 25 248 17 248
-22 0 -28 -54 -115 -92 -148 -122 -109 -227 -184 -325 -234 l-42 -21 -10 33
c-5 17 -15 77 -21 132 -18 162 -19 165 -48 165 l-25 0 6 -93 c5 -87 73 -382
99 -430 14 -27 2 -35 -67 -48 -33 -6 -72 -17 -86 -25 -26 -13 -76 -84 -60 -84
4 0 34 13 67 29 80 40 172 63 196 50 16 -8 24 -5 42 14 15 17 43 29 82 37 94
20 266 66 307 83 20 9 40 23 43 32 3 8 15 15 25 15 27 0 45 41 30 68 -33 62
-221 108 -341 85 -30 -6 -59 -9 -63 -6 -5 3 31 31 80 63 160 105 253 206 253
274 0 30 -47 71 -98 86 -41 11 -131 11 -207 0z m285 -481 c56 -19 59 -27 18
-63 -29 -26 -71 -42 -200 -81 -89 -26 -181 -50 -203 -53 l-40 -4 -23 69 c-12
38 -22 76 -22 85 0 16 33 28 150 52 76 17 268 13 320 -5z"/>
<path d="M4541 8424 c-11 -13 -11 -32 -2 -107 10 -90 10 -92 -13 -112 -13 -11
-32 -44 -42 -73 -19 -54 -65 -109 -82 -98 -6 3 -18 29 -27 56 -13 38 -21 50
-37 50 -19 0 -20 -4 -15 -50 9 -79 26 -104 68 -108 31 -3 41 3 73 38 20 23 42
52 48 66 23 50 43 20 53 -81 10 -91 9 -88 17 -100 9 -15 2 -145 -8 -155 -11
-11 -362 -45 -371 -37 -14 15 14 39 129 110 68 42 132 85 143 97 40 44 0 29
-117 -46 -194 -123 -219 -144 -216 -168 5 -35 60 -34 380 6 106 13 115 7 120
-78 3 -62 20 -107 61 -161 18 -25 26 -30 35 -21 7 7 12 22 12 34 0 12 8 32 18
44 17 21 19 21 35 5 11 -11 17 -33 17 -65 0 -65 16 -72 56 -24 32 38 33 38 53
20 12 -11 21 -28 21 -39 0 -16 3 -17 15 -7 12 10 22 9 51 -5 19 -9 38 -23 41
-31 9 -25 -7 -83 -33 -114 -14 -16 -24 -30 -21 -30 3 0 29 16 58 35 30 19 60
35 69 35 19 0 80 -73 80 -96 0 -10 -26 -43 -57 -72 l-57 -54 50 28 c67 37 89
29 80 -27 -8 -51 -26 -86 -61 -122 -29 -29 -23 -36 9 -12 28 21 59 18 86 -7
13 -13 44 -34 69 -48 34 -19 54 -41 86 -95 65 -112 133 -140 203 -84 35 27 64
24 97 -11 43 -45 84 -37 71 14 -3 12 -20 40 -37 62 -26 33 -30 45 -25 77 6 35
3 42 -34 78 -34 34 -38 42 -30 64 8 20 5 27 -13 40 -12 8 -29 15 -39 15 -24 0
-42 34 -25 48 24 20 71 33 99 27 15 -4 47 -22 70 -41 22 -19 44 -31 48 -27 4
4 11 33 14 63 l7 56 -41 33 c-30 24 -54 58 -83 120 -39 79 -46 88 -92 112 -36
18 -57 37 -74 68 -17 31 -36 49 -66 62 -58 26 -141 36 -196 25 -43 -9 -49 -7
-79 18 -18 15 -39 25 -47 22 -33 -13 -123 -19 -123 -8 0 27 15 42 47 48 28 5
41 16 61 50 39 65 77 60 160 -19 36 -36 45 -40 60 -29 35 25 44 24 76 -7 36
-35 57 -39 81 -15 21 22 13 54 -29 119 -61 93 -69 115 -68 186 3 102 -31 124
-165 104 l-53 -8 0 45 c0 57 -15 70 -83 76 -91 7 -186 -48 -229 -133 -24 -47
-34 -55 -69 -55 -14 0 -44 -13 -67 -30 -49 -35 -63 -80 -38 -128 32 -61 13
-233 -26 -240 -33 -6 -37 120 -6 201 17 45 8 125 -21 191 -35 77 -57 190 -77
384 -7 65 -11 71 -33 46z"/>
<path d="M2935 6403 c-11 -38 -20 -72 -20 -78 0 -5 23 -13 50 -16 71 -9 189
-41 197 -53 4 -6 8 -25 8 -43 0 -21 9 -41 25 -58 22 -22 35 -25 91 -25 43 0
73 5 90 16 24 16 27 16 55 -5 23 -17 29 -19 29 -6 0 19 19 19 47 0 20 -14 23
-12 53 35 38 59 107 130 126 130 16 0 11 -35 -11 -80 -7 -14 -15 -38 -19 -54
l-7 -29 27 33 c31 37 86 64 113 55 10 -3 25 3 35 14 17 18 16 20 -39 40 -31
12 -73 29 -93 40 -20 10 -58 21 -85 25 -26 4 -80 19 -120 33 -42 15 -110 28
-164 33 -50 4 -97 11 -103 15 -27 17 -159 45 -210 45 l-55 0 -20 -67z"/>
<path d="M4362 6392 c-1 -7 -25 -38 -53 -67 -48 -51 -51 -56 -41 -84 9 -25 8
-32 -10 -43 -19 -13 -19 -14 -2 -50 17 -37 18 -37 73 -36 40 1 61 6 74 20 17
17 17 18 -5 18 -20 1 -17 6 25 43 49 45 61 65 28 47 -11 -5 -31 -10 -45 -10
-30 0 -34 13 -39 110 -2 36 -4 59 -5 52z"/>
<path d="M6922 3998 c-18 -5 -37 -18 -43 -31 -5 -12 -18 -36 -28 -54 -11 -17
-21 -44 -23 -60 -2 -23 -8 -29 -35 -31 -48 -5 -97 -69 -103 -139 -6 -60 1 -73
41 -73 27 0 39 15 39 48 0 9 7 30 15 46 8 15 15 35 15 42 0 8 5 14 10 14 6 0
10 13 10 28 0 21 7 32 28 43 15 8 29 16 32 19 7 7 97 30 119 30 17 0 51 29 51
44 0 10 -73 81 -85 82 -6 1 -25 -3 -43 -8z"/>
<path d="M7163 3339 c-18 -53 -43 -123 -56 -155 -18 -47 -23 -75 -21 -132 3
-101 19 -112 32 -22 6 42 25 102 47 148 34 73 36 82 33 167 l-3 90 -32 -96z"/>
</g>
</svg>
