<?xml version="1.0" standalone="no"?>
<!DOCTYPE svg PUBLIC "-//W3C//DTD SVG 20010904//EN"
 "http://www.w3.org/TR/2001/REC-SVG-20010904/DTD/svg10.dtd">
<svg version="1.0" xmlns="http://www.w3.org/2000/svg"
 width="720.000000pt" height="1280.000000pt" viewBox="0 0 720.000000 1280.000000"
 preserveAspectRatio="xMidYMid meet">
<metadata>
Created by potrace 1.16, written by Peter Selinger 2001-2019
</metadata>
<g transform="translate(0.000000,1280.000000) scale(0.100000,-0.100000)"
fill="#000000" stroke="none">
<path d="M0 6400 l0 -6400 3600 0 3600 0 0 1025 0 1025 -2642 1 c-1454 1
-3069 0 -3590 -1 l-948 -2 0 2470 c0 1359 3 2478 6 2486 4 11 10 13 18 7 6 -5
67 -33 136 -61 69 -29 168 -70 220 -92 52 -22 133 -55 180 -74 47 -19 103 -43
125 -53 39 -18 98 -43 330 -138 61 -25 146 -61 190 -80 113 -50 132 -57 210
-87 39 -15 77 -31 85 -35 9 -5 69 -31 135 -59 358 -151 338 -144 349 -114 11
30 38 76 56 97 10 11 21 35 25 53 3 17 13 32 20 32 7 0 25 24 40 54 15 30 36
63 47 73 18 16 52 62 83 112 6 9 24 32 42 51 108 119 105 112 84 195 -10 39
-21 80 -25 93 -7 20 -4 22 24 22 44 0 85 -24 99 -58 15 -36 37 -33 82 9 30 28
46 38 119 75 19 10 37 20 40 23 3 4 34 16 70 29 54 18 86 22 190 22 130 -1
153 -4 283 -39 67 -17 217 -85 296 -132 21 -13 24 -12 35 4 12 20 103 162 165
259 20 31 72 113 116 183 44 69 110 172 146 228 36 56 94 147 128 202 35 55
100 159 146 230 46 72 122 191 169 265 48 74 147 230 221 345 75 116 149 233
166 260 16 28 48 77 69 110 21 33 63 99 92 147 l53 87 1058 1 1057 0 0 1775 0
1775 -3600 0 -3600 0 0 -6400z m6796 3680 c151 -69 198 -267 95 -405 -25 -34
-27 -41 -14 -50 14 -10 14 -14 -2 -38 -22 -35 -90 -46 -136 -23 -33 16 -80 14
-147 -6 -47 -14 -99 -2 -118 28 -13 20 -14 27 -4 39 11 13 9 19 -8 38 -85 90
-82 268 6 360 77 81 220 106 328 57z m-653 4 c29 -10 64 -34 92 -62 124 -125
89 -333 -68 -412 -133 -66 -310 -20 -370 96 -47 91 -44 191 7 276 25 43 43 59
94 85 54 28 75 33 131 33 37 0 88 -7 114 -16z m-5802 -244 c21 -91 39 -168 39
-172 0 -5 -15 -8 -33 -8 -28 0 -34 4 -42 32 -9 29 -14 32 -50 31 -36 0 -40 -3
-47 -31 -8 -28 -13 -32 -42 -32 l-34 0 14 58 c7 31 26 110 41 175 l27 118 44
-3 45 -3 38 -165z m369 78 l1 -93 30 38 c23 27 39 37 60 37 16 0 29 -3 29 -6
0 -4 -16 -28 -35 -53 -30 -41 -33 -50 -21 -67 7 -10 25 -40 40 -66 l27 -48
-35 0 c-30 0 -38 5 -57 40 -26 45 -39 43 -39 -6 0 -31 -2 -34 -30 -34 l-30 0
0 175 0 175 30 0 30 0 0 -92z m1740 -83 l0 -176 -42 1 c-24 1 -55 -1 -69 -5
-19 -5 -33 -1 -55 18 -28 24 -29 29 -28 107 1 68 4 85 21 102 22 21 54 27 91
14 21 -7 22 -5 22 53 l0 61 30 0 30 0 0 -175z m452 83 l3 -92 25 37 c20 30 31
37 58 37 30 0 42 -12 24 -24 -5 -3 -21 -23 -36 -44 l-27 -40 40 -66 41 -66
-34 0 c-28 0 -38 7 -62 43 l-29 42 -3 -42 c-3 -42 -4 -43 -38 -43 l-34 0 0
175 0 175 35 0 34 0 3 -92z m728 27 l0 -66 30 16 c33 17 60 13 85 -11 11 -12
15 -40 15 -120 l0 -104 -30 0 -30 0 0 90 c0 75 -3 92 -16 97 -37 14 -49 -10
-52 -101 l-3 -86 -29 0 -30 0 0 175 0 175 30 0 30 0 0 -65z m530 4 c0 -58 1
-60 23 -53 76 26 107 -8 107 -118 0 -71 -2 -81 -26 -105 -20 -20 -31 -24 -52
-18 -15 4 -46 6 -69 5 l-43 -1 0 176 0 175 30 0 30 0 0 -61z m-1480 -9 c0 -38
2 -40 30 -40 25 0 30 -4 30 -25 0 -21 -5 -25 -30 -25 l-31 0 3 -67 c3 -66 4
-68 31 -71 21 -3 27 -8 23 -19 -3 -8 -6 -19 -6 -24 0 -16 -73 -10 -92 8 -14
13 -18 31 -18 90 0 66 -2 75 -20 80 -13 3 -20 14 -20 29 0 17 6 24 20 24 16 0
20 7 20 33 0 40 6 47 37 47 20 0 23 -5 23 -40z m-2096 -61 c24 -23 34 -121 17
-172 -15 -44 -59 -66 -97 -48 -14 6 -27 11 -29 11 -3 0 -5 -30 -5 -66 l0 -65
-27 3 -28 3 -3 179 -2 179 37 -5 c21 -3 47 -2 58 3 26 10 55 2 79 -22z m405
20 c44 -16 51 -35 51 -143 l0 -96 -47 -1 c-27 0 -60 -1 -75 -1 -40 -1 -58 19
-58 63 0 43 20 63 83 80 28 7 37 15 35 27 -5 26 -48 28 -55 3 -4 -14 -13 -21
-29 -21 -65 0 -15 96 52 99 6 1 25 -4 43 -10z m290 0 c38 -14 51 -35 51 -88
l0 -41 -61 0 c-60 0 -60 0 -57 -27 3 -32 44 -46 54 -19 4 10 18 16 35 16 35 0
39 -25 10 -61 -15 -19 -29 -24 -66 -24 -39 0 -51 5 -71 28 -20 24 -24 39 -24
96 0 75 21 116 63 124 12 2 25 5 28 6 3 0 20 -4 38 -10z m198 0 c32 -12 43
-26 43 -56 0 -31 -45 -33 -53 -3 -7 26 -47 27 -47 1 0 -11 12 -23 30 -31 78
-32 101 -82 61 -131 -15 -19 -29 -24 -66 -24 -37 0 -51 5 -66 24 -29 36 -25
61 11 61 24 0 30 -4 30 -21 0 -15 5 -20 22 -17 40 5 31 32 -19 58 -91 48 -80
135 19 149 4 1 19 -4 35 -10z m191 0 c29 -10 59 -59 45 -73 -15 -15 -51 -5
-56 15 -4 13 -12 20 -24 17 -29 -5 -21 -32 15 -50 73 -36 92 -81 53 -129 -15
-19 -29 -24 -66 -24 -37 0 -51 5 -66 24 -29 36 -25 61 10 61 21 0 30 -6 34
-21 7 -25 40 -22 45 3 2 12 -11 24 -43 39 -74 35 -86 106 -22 134 39 17 37 17
75 4z m211 0 c17 -6 36 -19 41 -29 6 -10 10 -62 10 -115 l0 -97 -32 3 c-18 1
-48 -1 -66 -5 -50 -12 -82 13 -82 64 0 44 20 64 83 81 28 7 37 15 35 27 -5 25
-45 27 -58 3 -13 -24 -48 -28 -56 -6 -8 20 21 64 49 75 30 12 39 12 76 -1z
m318 -21 c17 -16 23 -33 23 -65 l0 -43 -61 0 c-60 0 -60 0 -57 -27 3 -32 44
-46 54 -19 8 20 64 22 64 2 0 -69 -102 -98 -158 -45 -19 17 -22 31 -22 98 0
68 3 80 23 98 12 11 29 23 37 26 25 10 73 -2 97 -25z m1001 -4 c18 -21 22 -36
22 -98 0 -65 -3 -75 -26 -97 -35 -33 -104 -34 -136 -2 -27 28 -37 127 -17 174
24 60 111 73 157 23z m240 8 c8 -10 12 -52 12 -119 l0 -103 -30 0 -30 0 0 90
c0 75 -3 92 -17 97 -32 12 -53 -32 -53 -113 l0 -74 -30 0 -30 0 0 120 0 120
29 0 c16 0 31 -5 33 -11 2 -6 14 -5 33 5 33 17 63 13 83 -12z m529 -4 c17 -16
23 -33 23 -65 l0 -43 -61 0 c-60 0 -60 0 -57 -27 3 -32 44 -46 54 -19 4 10 18
16 35 16 22 0 29 -5 29 -20 0 -42 -64 -79 -115 -66 -52 13 -65 39 -65 124 0
69 3 81 23 99 12 11 29 23 37 26 25 10 73 -2 97 -25z m540 8 c6 -6 13 -57 16
-118 l5 -108 -34 0 -34 0 0 90 c0 72 -3 92 -15 96 -33 13 -45 -15 -45 -102 l0
-84 -35 0 -35 0 0 120 0 120 35 0 c19 0 35 -4 35 -9 0 -6 12 -3 28 4 28 15 58
12 79 -9z m218 -7 c17 -16 21 -35 23 -120 l4 -100 -44 1 c-23 1 -54 -1 -68 -5
-35 -9 -80 27 -80 64 0 39 19 60 70 75 33 10 46 19 48 35 4 28 -33 29 -50 1
-12 -19 -48 -27 -60 -14 -15 14 11 60 43 77 40 20 84 15 114 -14z m400 16 c37
-15 55 -46 55 -96 0 -29 0 -29 -59 -29 -65 0 -73 -5 -64 -38 6 -26 53 -32 53
-7 0 11 11 15 36 15 32 0 35 -2 29 -22 -4 -13 -18 -34 -33 -47 -21 -19 -33
-22 -65 -18 -59 8 -80 35 -85 107 -5 75 11 118 52 136 39 17 40 17 81 -1z
m198 1 c15 -8 27 -11 27 -5 0 5 14 9 31 9 l30 0 -3 -154 c-3 -134 -5 -157 -22
-175 -42 -46 -144 -35 -166 19 -7 16 -9 34 -5 39 10 18 44 12 57 -9 27 -42 78
-15 78 41 0 18 -3 20 -12 11 -7 -7 -29 -12 -49 -12 -56 0 -79 34 -79 116 0 72
13 107 44 122 29 14 37 14 69 -2z m285 -22 c19 -22 22 -36 22 -120 l0 -95 -42
1 c-24 1 -55 -1 -70 -5 -21 -6 -32 -2 -52 18 -48 48 -29 99 44 121 33 10 46
19 48 35 4 28 -33 29 -50 1 -12 -19 -48 -27 -60 -14 -15 14 11 60 43 77 43 22
86 16 117 -19z m-3048 -94 l0 -120 -35 0 -35 0 0 113 c0 63 3 117 7 120 3 4
19 7 35 7 l28 0 0 -120z m2271 103 c0 -10 8 -43 18 -73 l17 -55 19 73 c18 70
20 72 51 72 l32 0 -24 -82 c-79 -281 -76 -273 -113 -276 -28 -3 -33 -1 -27 14
29 76 29 101 -4 209 -17 59 -34 113 -37 121 -4 10 4 14 31 14 27 0 36 -4 37
-17z m-4156 -720 c6 -68 12 -95 30 -118 52 -70 92 -175 66 -175 -13 0 -93 98
-125 153 -15 26 -49 77 -76 113 -28 36 -50 69 -50 75 0 5 -4 9 -10 9 -5 0 -10
7 -10 15 0 12 16 15 84 15 l84 0 7 -87z m509 -238 c43 -14 92 -33 111 -43 32
-17 115 -87 115 -97 0 -3 10 -19 21 -35 21 -28 22 -35 16 -242 -3 -133 -1
-229 5 -256 6 -23 8 -45 5 -49 -3 -3 -29 0 -56 7 -36 8 -57 20 -70 39 -18 25
-24 27 -78 23 -67 -5 -93 10 -144 84 -34 50 -26 55 41 28 28 -11 54 -14 84
-10 64 10 78 24 84 87 3 47 1 57 -20 75 -23 21 -109 51 -158 55 -61 6 -99 -25
-100 -81 l-1 -35 -30 35 c-42 47 -69 91 -69 112 0 27 55 59 113 65 41 4 72 -2
148 -26 117 -38 129 -38 129 -7 0 81 -53 155 -125 175 -46 12 -110 1 -128 -22
-17 -22 -37 -24 -74 -8 -36 14 -47 37 -38 73 6 22 28 38 95 66 36 15 39 15
124 -13z m450 -160 c41 -18 76 -66 76 -108 0 -15 9 -54 20 -86 10 -32 22 -73
25 -92 3 -19 12 -52 20 -74 7 -22 16 -57 20 -77 3 -21 10 -38 15 -38 13 0 58
57 65 82 6 22 40 100 93 215 l24 52 51 -19 c29 -11 53 -20 55 -20 12 0 -6 -56
-43 -133 -25 -52 -45 -97 -45 -101 0 -4 -11 -24 -25 -44 -14 -20 -25 -45 -25
-55 0 -10 -9 -35 -19 -55 -11 -20 -37 -73 -58 -117 -21 -44 -41 -82 -44 -85
-3 -3 -12 -22 -18 -43 -14 -41 -56 -77 -112 -97 -73 -26 -184 39 -163 94 5 12
21 16 68 16 52 0 66 4 84 23 44 47 55 132 26 190 -9 17 -23 56 -30 87 -7 30
-22 87 -34 125 -27 89 -58 197 -73 257 -7 25 -15 50 -20 54 -4 4 -7 20 -7 36
0 33 18 36 74 13z m1270 -192 l29 -15 -7 -277 c-3 -152 -9 -342 -13 -423 l-6
-148 -29 0 c-16 0 -42 7 -58 15 -27 14 -30 20 -30 68 0 104 22 782 26 795 4
14 42 8 88 -15z m-556 -53 c23 -6 76 -26 116 -44 60 -28 82 -45 115 -89 50
-66 52 -79 54 -347 1 -113 6 -212 10 -221 12 -25 -11 -29 -66 -11 -27 9 -53
24 -59 36 -16 30 -27 35 -62 25 -70 -20 -208 30 -273 99 -94 100 -97 244 -5
288 62 29 109 29 202 -2 76 -25 126 -32 138 -20 2 3 -4 30 -13 62 -18 62 -38
85 -102 115 -36 17 -49 18 -83 9 -21 -6 -45 -19 -52 -29 -17 -24 -69 -17 -103
15 -26 24 -26 24 -8 54 36 62 97 81 191 60z"/>
<path d="M6613 9773 c-20 -4 -23 -11 -23 -51 l0 -47 85 0 85 0 0 46 c0 40 -3
48 -22 53 -25 6 -90 6 -125 -1z"/>
<path d="M2268 8163 c-24 -12 -28 -20 -28 -60 0 -39 5 -50 38 -83 69 -69 176
-77 213 -16 24 39 25 98 2 119 -25 21 -131 57 -168 56 -16 -1 -42 -8 -57 -16z"/>
<path d="M6877 7946 l-318 -139 4 -32 c2 -17 9 -41 15 -52 6 -11 32 -81 56
-154 25 -74 55 -163 67 -199 12 -36 31 -86 41 -112 10 -26 18 -55 18 -65 0
-11 4 -23 9 -28 8 -10 22 -48 112 -312 68 -200 54 -185 141 -162 39 10 90 19
112 19 23 0 47 4 54 8 10 7 12 151 10 688 l-3 680 -318 -140z"/>
<path d="M5980 7555 c-97 -44 -608 -269 -914 -401 -93 -40 -173 -77 -178 -82
-20 -20 359 -57 467 -46 35 3 115 -1 190 -10 107 -14 138 -21 175 -44 37 -23
47 -35 56 -72 l10 -43 70 2 c38 1 155 8 259 16 105 8 235 17 290 20 150 10
139 0 132 114 -8 118 -27 192 -77 296 -43 89 -90 145 -165 196 -27 19 -51 37
-53 42 -2 4 -10 7 -18 7 -7 0 -30 9 -51 20 -67 34 -90 33 -193 -15z"/>
<path d="M5365 6870 c-38 -16 -78 -29 -88 -29 -9 -1 -25 -5 -35 -10 -19 -10
-111 -44 -127 -47 -5 -1 -46 -15 -90 -32 -44 -17 -125 -47 -180 -67 -55 -21
-104 -41 -108 -45 -10 -9 31 -94 83 -171 74 -108 168 -186 297 -245 109 -50
189 -64 361 -64 184 0 331 31 506 105 l39 16 -6 97 c-4 53 -7 115 -7 137 l0
40 -157 -12 c-87 -7 -164 -11 -170 -8 -9 3 -13 25 -13 62 0 32 -3 82 -6 111
-6 49 -8 52 -35 52 -15 0 -38 4 -51 9 -30 11 -86 68 -94 95 -7 22 -23 36 -39
35 -5 -1 -41 -14 -80 -29z"/>
<path d="M3569 6610 c-83 -11 -200 -71 -268 -138 -104 -103 -161 -208 -201
-367 -21 -82 -22 -104 -16 -245 8 -173 25 -246 84 -364 69 -139 170 -246 292
-310 108 -56 186 -65 367 -43 40 5 101 72 186 202 104 159 158 382 137 567
-20 171 -53 282 -111 367 -24 35 -54 81 -66 102 -11 21 -63 81 -115 132 -112
113 -128 118 -289 97z"/>
<path d="M5444 5740 c-211 -48 -399 -175 -463 -314 -44 -94 -53 -121 -55 -150
l-1 -30 125 -13 c69 -7 239 -24 379 -39 238 -25 255 -26 281 -11 41 25 89 21
135 -11 40 -28 46 -41 60 -133 5 -36 6 -36 63 -42 31 -4 107 -13 167 -22 61
-9 162 -22 225 -30 63 -8 144 -20 180 -26 36 -6 79 -9 95 -8 l30 4 -2 109 c-2
152 -28 241 -109 366 -53 82 -101 129 -188 185 l-69 45 -113 0 -114 0 0 39 c0
21 -6 43 -12 49 -13 10 -20 12 -153 36 -116 22 -357 19 -461 -4z"/>
<path d="M7016 5539 c-3 -13 -8 -53 -11 -89 -3 -36 -12 -103 -20 -150 -29
-189 -69 -509 -64 -514 2 -2 66 -12 142 -23 l137 -19 0 397 c0 219 -4 400 -8
403 -5 3 -45 8 -90 12 -80 7 -81 6 -86 -17z"/>
<path d="M4900 5107 l0 -54 168 -22 c92 -12 214 -28 272 -36 483 -66 456 -64
409 -32 -30 20 -46 39 -84 101 -8 12 -39 18 -130 27 -66 5 -227 23 -357 40
-131 16 -247 29 -258 29 -18 0 -20 -7 -20 -53z"/>
</g>
</svg>
