<?xml version="1.0" standalone="no"?>
<!DOCTYPE svg PUBLIC "-//W3C//DTD SVG 20010904//EN"
 "http://www.w3.org/TR/2001/REC-SVG-20010904/DTD/svg10.dtd">
<svg version="1.0" xmlns="http://www.w3.org/2000/svg"
 width="720.000000pt" height="1280.000000pt" viewBox="0 0 720.000000 1280.000000"
 preserveAspectRatio="xMidYMid meet">
<metadata>
Created by potrace 1.16, written by Peter Selinger 2001-2019
</metadata>
<g transform="translate(0.000000,1280.000000) scale(0.100000,-0.100000)"
fill="#000000" stroke="none">
<path d="M0 6400 l0 -6400 3600 0 3600 0 0 1025 0 1025 -3590 0 -3590 0 0
3601 0 3600 1968 -1 c1082 -1 2697 -1 3590 -1 l1622 1 0 1775 0 1775 -3600 0
-3600 0 0 -6400z m6796 3680 c151 -69 198 -267 95 -405 -25 -34 -27 -41 -14
-50 14 -10 14 -14 -2 -38 -22 -35 -90 -46 -136 -23 -33 16 -80 14 -147 -6 -47
-14 -99 -2 -118 28 -13 20 -14 27 -4 39 11 13 9 19 -8 38 -85 90 -82 268 6
360 77 81 220 106 328 57z m-653 4 c29 -10 64 -34 92 -62 124 -125 89 -333
-68 -412 -133 -66 -310 -20 -370 96 -47 91 -44 191 7 276 25 43 43 59 94 85
54 28 75 33 131 33 37 0 88 -7 114 -16z m-5802 -244 c21 -91 39 -168 39 -172
0 -5 -15 -8 -33 -8 -28 0 -34 4 -42 32 -9 29 -14 32 -50 31 -36 0 -40 -3 -47
-31 -8 -28 -13 -32 -42 -32 l-34 0 14 58 c7 31 26 110 41 175 l27 118 44 -3
45 -3 38 -165z m369 78 l1 -93 30 38 c23 27 39 37 60 37 16 0 29 -3 29 -6 0
-4 -16 -28 -35 -53 -30 -41 -33 -50 -21 -67 7 -10 25 -40 40 -66 l27 -48 -35
0 c-30 0 -38 5 -57 40 -26 45 -39 43 -39 -6 0 -31 -2 -34 -30 -34 l-30 0 0
175 0 175 30 0 30 0 0 -92z m1740 -83 l0 -176 -42 1 c-24 1 -55 -1 -69 -5 -19
-5 -33 -1 -55 18 -28 24 -29 29 -28 107 1 68 4 85 21 102 22 21 54 27 91 14
21 -7 22 -5 22 53 l0 61 30 0 30 0 0 -175z m452 83 l3 -92 25 37 c20 30 31 37
58 37 30 0 42 -12 24 -24 -5 -3 -21 -23 -36 -44 l-27 -40 40 -66 41 -66 -34 0
c-28 0 -38 7 -62 43 l-29 42 -3 -42 c-3 -42 -4 -43 -38 -43 l-34 0 0 175 0
175 35 0 34 0 3 -92z m728 27 l0 -66 30 16 c33 17 60 13 85 -11 11 -12 15 -40
15 -120 l0 -104 -30 0 -30 0 0 90 c0 75 -3 92 -16 97 -37 14 -49 -10 -52 -101
l-3 -86 -29 0 -30 0 0 175 0 175 30 0 30 0 0 -65z m530 4 c0 -58 1 -60 23 -53
76 26 107 -8 107 -118 0 -71 -2 -81 -26 -105 -20 -20 -31 -24 -52 -18 -15 4
-46 6 -69 5 l-43 -1 0 176 0 175 30 0 30 0 0 -61z m-1480 -9 c0 -38 2 -40 30
-40 25 0 30 -4 30 -25 0 -21 -5 -25 -30 -25 l-31 0 3 -67 c3 -66 4 -68 31 -71
21 -3 27 -8 23 -19 -3 -8 -6 -19 -6 -24 0 -16 -73 -10 -92 8 -14 13 -18 31
-18 90 0 66 -2 75 -20 80 -13 3 -20 14 -20 29 0 17 6 24 20 24 16 0 20 7 20
33 0 40 6 47 37 47 20 0 23 -5 23 -40z m-2096 -61 c24 -23 34 -121 17 -172
-15 -44 -59 -66 -97 -48 -14 6 -27 11 -29 11 -3 0 -5 -30 -5 -66 l0 -65 -27 3
-28 3 -3 179 -2 179 37 -5 c21 -3 47 -2 58 3 26 10 55 2 79 -22z m405 20 c44
-16 51 -35 51 -143 l0 -96 -47 -1 c-27 0 -60 -1 -75 -1 -40 -1 -58 19 -58 63
0 43 20 63 83 80 28 7 37 15 35 27 -5 26 -48 28 -55 3 -4 -14 -13 -21 -29 -21
-65 0 -15 96 52 99 6 1 25 -4 43 -10z m290 0 c38 -14 51 -35 51 -88 l0 -41
-61 0 c-60 0 -60 0 -57 -27 3 -32 44 -46 54 -19 4 10 18 16 35 16 35 0 39 -25
10 -61 -15 -19 -29 -24 -66 -24 -39 0 -51 5 -71 28 -20 24 -24 39 -24 96 0 75
21 116 63 124 12 2 25 5 28 6 3 0 20 -4 38 -10z m198 0 c32 -12 43 -26 43 -56
0 -31 -45 -33 -53 -3 -7 26 -47 27 -47 1 0 -11 12 -23 30 -31 78 -32 101 -82
61 -131 -15 -19 -29 -24 -66 -24 -37 0 -51 5 -66 24 -29 36 -25 61 11 61 24 0
30 -4 30 -21 0 -15 5 -20 22 -17 40 5 31 32 -19 58 -91 48 -80 135 19 149 4 1
19 -4 35 -10z m191 0 c29 -10 59 -59 45 -73 -15 -15 -51 -5 -56 15 -4 13 -12
20 -24 17 -29 -5 -21 -32 15 -50 73 -36 92 -81 53 -129 -15 -19 -29 -24 -66
-24 -37 0 -51 5 -66 24 -29 36 -25 61 10 61 21 0 30 -6 34 -21 7 -25 40 -22
45 3 2 12 -11 24 -43 39 -74 35 -86 106 -22 134 39 17 37 17 75 4z m211 0 c17
-6 36 -19 41 -29 6 -10 10 -62 10 -115 l0 -97 -32 3 c-18 1 -48 -1 -66 -5 -50
-12 -82 13 -82 64 0 44 20 64 83 81 28 7 37 15 35 27 -5 25 -45 27 -58 3 -13
-24 -48 -28 -56 -6 -8 20 21 64 49 75 30 12 39 12 76 -1z m318 -21 c17 -16 23
-33 23 -65 l0 -43 -61 0 c-60 0 -60 0 -57 -27 3 -32 44 -46 54 -19 8 20 64 22
64 2 0 -69 -102 -98 -158 -45 -19 17 -22 31 -22 98 0 68 3 80 23 98 12 11 29
23 37 26 25 10 73 -2 97 -25z m1001 -4 c18 -21 22 -36 22 -98 0 -65 -3 -75
-26 -97 -35 -33 -104 -34 -136 -2 -27 28 -37 127 -17 174 24 60 111 73 157 23z
m240 8 c8 -10 12 -52 12 -119 l0 -103 -30 0 -30 0 0 90 c0 75 -3 92 -17 97
-32 12 -53 -32 -53 -113 l0 -74 -30 0 -30 0 0 120 0 120 29 0 c16 0 31 -5 33
-11 2 -6 14 -5 33 5 33 17 63 13 83 -12z m529 -4 c17 -16 23 -33 23 -65 l0
-43 -61 0 c-60 0 -60 0 -57 -27 3 -32 44 -46 54 -19 4 10 18 16 35 16 22 0 29
-5 29 -20 0 -42 -64 -79 -115 -66 -52 13 -65 39 -65 124 0 69 3 81 23 99 12
11 29 23 37 26 25 10 73 -2 97 -25z m540 8 c6 -6 13 -57 16 -118 l5 -108 -34
0 -34 0 0 90 c0 72 -3 92 -15 96 -33 13 -45 -15 -45 -102 l0 -84 -35 0 -35 0
0 120 0 120 35 0 c19 0 35 -4 35 -9 0 -6 12 -3 28 4 28 15 58 12 79 -9z m218
-7 c17 -16 21 -35 23 -120 l4 -100 -44 1 c-23 1 -54 -1 -68 -5 -35 -9 -80 27
-80 64 0 39 19 60 70 75 33 10 46 19 48 35 4 28 -33 29 -50 1 -12 -19 -48 -27
-60 -14 -15 14 11 60 43 77 40 20 84 15 114 -14z m400 16 c37 -15 55 -46 55
-96 0 -29 0 -29 -59 -29 -65 0 -73 -5 -64 -38 6 -26 53 -32 53 -7 0 11 11 15
36 15 32 0 35 -2 29 -22 -4 -13 -18 -34 -33 -47 -21 -19 -33 -22 -65 -18 -59
8 -80 35 -85 107 -5 75 11 118 52 136 39 17 40 17 81 -1z m198 1 c15 -8 27
-11 27 -5 0 5 14 9 31 9 l30 0 -3 -154 c-3 -134 -5 -157 -22 -175 -42 -46
-144 -35 -166 19 -7 16 -9 34 -5 39 10 18 44 12 57 -9 27 -42 78 -15 78 41 0
18 -3 20 -12 11 -7 -7 -29 -12 -49 -12 -56 0 -79 34 -79 116 0 72 13 107 44
122 29 14 37 14 69 -2z m285 -22 c19 -22 22 -36 22 -120 l0 -95 -42 1 c-24 1
-55 -1 -70 -5 -21 -6 -32 -2 -52 18 -48 48 -29 99 44 121 33 10 46 19 48 35 4
28 -33 29 -50 1 -12 -19 -48 -27 -60 -14 -15 14 11 60 43 77 43 22 86 16 117
-19z m-3048 -94 l0 -120 -35 0 -35 0 0 113 c0 63 3 117 7 120 3 4 19 7 35 7
l28 0 0 -120z m2271 103 c0 -10 8 -43 18 -73 l17 -55 19 73 c18 70 20 72 51
72 l32 0 -24 -82 c-79 -281 -76 -273 -113 -276 -28 -3 -33 -1 -27 14 29 76 29
101 -4 209 -17 59 -34 113 -37 121 -4 10 4 14 31 14 27 0 36 -4 37 -17z"/>
<path d="M6613 9773 c-20 -4 -23 -11 -23 -51 l0 -47 85 0 85 0 0 46 c0 40 -3
48 -22 53 -25 6 -90 6 -125 -1z"/>
<path d="M7080 8039 c-58 -21 -143 -52 -190 -68 -121 -43 -313 -111 -465 -166
-71 -25 -175 -63 -230 -82 -55 -20 -104 -40 -109 -44 -5 -5 -5 -20 2 -36 5
-15 20 -61 33 -100 12 -40 27 -73 33 -73 6 0 49 14 96 31 133 47 353 119 364
119 6 0 4 -6 -5 -13 -23 -18 -15 -167 10 -168 13 0 14 -1 1 -6 -8 -3 -34 -13
-57 -24 -24 -10 -49 -19 -56 -19 -8 0 -16 -3 -20 -6 -3 -3 -63 -26 -133 -50
-71 -24 -132 -48 -137 -53 -5 -5 0 -36 11 -72 46 -144 174 -546 181 -569 5
-14 14 -25 22 -24 8 1 100 29 204 62 440 141 541 172 553 172 9 0 12 71 12
320 0 176 -2 320 -4 320 -3 0 -42 -13 -88 -29 -46 -16 -97 -31 -114 -34 -31
-6 -32 -5 -58 66 -14 40 -38 108 -52 151 -28 88 -28 88 41 107 22 6 92 27 155
48 l115 38 3 121 c1 67 -1 122 -5 121 -4 0 -55 -18 -113 -40z"/>
<path d="M5385 7434 c-176 -63 -453 -162 -615 -220 -162 -57 -298 -108 -303
-113 -10 -10 49 -19 188 -26 160 -8 267 -15 315 -21 39 -4 89 12 375 117 182
66 375 137 430 156 122 44 128 48 113 77 -22 42 -142 146 -167 145 -9 0 -160
-52 -336 -115z"/>
<path d="M5590 7074 c-184 -62 -345 -118 -357 -124 -16 -6 -23 -18 -23 -37 0
-67 -63 -119 -150 -124 -57 -4 -90 7 -115 37 l-20 24 -379 -128 c-209 -71
-382 -134 -384 -140 -6 -19 85 -150 144 -205 70 -65 137 -108 230 -147 105
-44 193 -59 350 -61 l139 -1 5 163 5 164 373 3 373 2 34 34 c18 18 40 46 49
62 9 16 28 47 41 69 33 52 39 67 64 150 22 73 28 211 15 323 -6 48 -9 52 -33
51 -14 0 -177 -52 -361 -115z"/>
<path d="M2183 6412 c-99 -34 -173 -83 -252 -168 -95 -101 -165 -230 -203
-376 -19 -71 -23 -108 -22 -263 0 -166 2 -187 27 -268 82 -267 246 -456 458
-527 91 -31 257 -28 346 5 85 32 95 42 138 131 75 155 111 255 143 394 21 95
23 422 2 515 -7 33 -14 74 -14 92 -1 17 -4 29 -8 26 -5 -2 -8 2 -8 10 0 22
-113 273 -129 287 -15 13 -31 52 -31 75 0 22 -9 30 -53 50 -117 54 -266 60
-394 17z"/>
<path d="M4930 5279 c-80 -13 -167 -38 -228 -65 -29 -13 -55 -24 -59 -24 -3 0
-24 -15 -47 -33 -23 -18 -52 -38 -66 -45 -68 -35 -138 -129 -191 -257 -13 -32
-31 -136 -25 -143 4 -3 82 -18 174 -33 376 -63 599 -99 610 -99 7 0 12 9 12
21 0 12 15 36 34 55 43 43 86 45 142 8 47 -32 51 -38 65 -91 11 -41 12 -42 68
-53 97 -19 150 -40 145 -55 -4 -9 3 -16 18 -20 12 -2 66 -15 118 -26 52 -12
122 -28 155 -35 139 -32 289 -54 300 -43 18 18 18 197 1 284 -35 173 -128 308
-299 438 l-49 37 -204 0 -204 0 0 74 c0 43 -5 78 -11 82 -43 26 -342 41 -459
23z"/>
<path d="M6560 4998 c0 -7 -16 -103 -35 -213 -19 -110 -51 -292 -70 -405 -20
-113 -40 -223 -45 -245 -5 -22 -10 -54 -10 -71 0 -30 3 -32 53 -42 28 -6 151
-31 272 -56 121 -25 275 -57 343 -71 68 -14 125 -25 128 -25 2 0 4 29 4 65 0
50 -3 65 -14 65 -25 0 -25 12 -5 120 16 90 19 155 19 446 l0 341 -37 6 c-21 3
-119 19 -218 37 -384 67 -385 67 -385 48z"/>
<path d="M4290 4537 c0 -74 -16 -64 148 -98 53 -11 216 -45 362 -75 146 -30
297 -61 335 -69 39 -8 135 -28 215 -45 80 -16 149 -30 154 -30 9 0 -257 172
-304 196 -14 7 -95 26 -180 43 -85 17 -272 53 -415 81 -143 27 -272 53 -287
56 l-28 6 0 -65z"/>
</g>
</svg>
