<?xml version="1.0" standalone="no"?>
<!DOCTYPE svg PUBLIC "-//W3C//DTD SVG 20010904//EN"
 "http://www.w3.org/TR/2001/REC-SVG-20010904/DTD/svg10.dtd">
<svg version="1.0" xmlns="http://www.w3.org/2000/svg"
 width="720.000000pt" height="1280.000000pt" viewBox="0 0 720.000000 1280.000000"
 preserveAspectRatio="xMidYMid meet">
<metadata>
Created by potrace 1.16, written by Peter Selinger 2001-2019
</metadata>
<g transform="translate(0.000000,1280.000000) scale(0.100000,-0.100000)"
fill="#000000" stroke="none">
<path d="M0 6400 l0 -6400 3600 0 3600 0 0 1025 0 1025 -2274 0 c-1334 0
-2277 4 -2280 9 -3 5 8 23 24 41 37 39 38 75 6 122 -13 20 -29 51 -35 70 -6
19 -28 62 -47 94 -20 33 -38 73 -41 89 -4 26 0 33 36 54 22 14 39 27 39 30 -1
4 2 23 6 43 11 53 2 81 -43 123 -22 21 -41 48 -44 62 -9 46 73 74 113 38 8 -7
29 -16 45 -20 75 -17 85 -25 85 -69 0 -23 6 -50 13 -60 12 -16 18 -17 54 -6
51 16 59 39 32 99 -16 38 -25 130 -11 116 3 -3 10 2 17 11 17 24 97 30 114 10
7 -9 22 -16 33 -16 12 0 16 -4 12 -11 -5 -9 6 -10 41 -7 53 6 64 18 65 68 1
29 8 40 43 65 44 32 57 64 34 83 -8 7 -44 13 -81 14 -50 1 -70 6 -83 20 -9 10
-27 18 -41 18 -13 0 -39 7 -58 16 -65 31 -36 107 45 120 60 10 91 45 91 104 0
30 -1 31 -32 25 -18 -4 -40 -14 -49 -21 -12 -10 -53 -15 -148 -18 -97 -2 -136
-7 -146 -17 -14 -15 -55 -168 -55 -208 0 -38 -9 -46 -69 -66 -29 -9 -61 -27
-70 -38 -58 -73 -114 -89 -145 -42 -24 36 -58 65 -84 72 -25 6 -72 -29 -72
-54 0 -15 -48 -95 -63 -105 -6 -4 -24 3 -39 14 -38 26 -58 11 -58 -46 0 -61
-29 -100 -102 -135 -34 -17 -74 -31 -88 -31 -30 0 -90 35 -90 53 0 7 18 36 40
66 54 71 55 88 11 154 -16 23 -41 64 -55 91 -25 47 -25 49 -8 80 9 17 25 37
35 44 23 18 22 39 -8 94 -14 26 -25 60 -25 76 0 25 6 31 41 42 35 12 46 11 88
-4 61 -22 93 -14 150 36 24 21 54 41 66 44 20 5 21 8 11 63 -13 71 -27 89 -75
97 -20 3 -45 12 -57 19 -12 8 -37 16 -55 20 -30 6 -35 4 -36 -15 -3 -39 -20
-49 -77 -43 -31 3 -61 1 -74 -6 -17 -9 -24 -6 -46 20 -14 17 -26 34 -26 38 0
5 -14 22 -30 40 l-30 31 -100 -8 c-74 -6 -106 -4 -123 5 -12 7 -18 12 -13 13
5 0 3 7 -4 15 -9 11 -32 15 -74 16 -33 0 -83 1 -111 1 -27 1 -66 -2 -86 -6
-30 -7 -40 -4 -68 20 -29 24 -32 31 -26 62 6 32 14 52 37 92 4 8 13 26 19 40
5 13 14 27 18 30 4 3 15 27 24 55 12 38 13 52 4 58 -19 13 -84 1 -115 -21 -47
-34 -78 -37 -95 -10 -8 12 -18 39 -21 58 -3 19 -17 53 -29 75 -25 43 -51 49
-74 17 -26 -37 -46 -50 -116 -77 -51 -20 -92 -46 -140 -89 l-68 -61 4 -60 c3
-55 23 -123 39 -135 3 -3 9 -26 13 -52 7 -46 6 -48 -36 -91 -35 -35 -48 -58
-62 -110 -33 -125 -19 -159 57 -137 51 14 82 3 96 -35 9 -23 11 -23 37 -10 39
21 77 19 98 -5 16 -17 17 -25 7 -58 -6 -20 -13 -64 -15 -96 -5 -81 -28 -100
-111 -94 -49 4 -63 9 -83 32 -12 15 -23 38 -23 52 0 30 -42 99 -70 114 -11 6
-45 10 -75 9 -70 -3 -86 11 -96 87 -5 39 -15 64 -32 83 -14 14 -33 52 -42 84
-19 67 -39 83 -104 86 -58 2 -61 12 -61 232 0 181 2 204 21 246 11 25 18 51
15 58 -7 20 24 42 73 49 67 10 81 21 81 64 0 20 -10 57 -23 82 -23 46 -37 54
-108 65 -29 4 -39 12 -49 35 -10 24 -9 33 4 52 20 28 21 82 1 98 -13 11 -15
278 -15 2291 l0 2279 3590 0 3590 0 0 1775 0 1775 -3600 0 -3600 0 0 -6400z
m6782 3684 c50 -17 112 -73 138 -125 44 -85 32 -202 -29 -284 -25 -34 -27 -41
-14 -50 14 -10 14 -14 -2 -38 -22 -35 -88 -46 -136 -23 -29 13 -43 14 -94 4
-106 -20 -142 -17 -169 17 -22 27 -22 31 -7 41 15 11 14 14 -6 36 -63 67 -82
200 -42 288 60 133 208 188 361 134z m-639 0 c52 -18 116 -76 142 -130 22 -47
30 -130 16 -180 -32 -119 -134 -194 -265 -194 -165 0 -272 106 -270 266 2 153
105 252 265 253 36 1 86 -6 112 -15z m-5839 -91 c10 -34 76 -315 76 -324 0 -5
-16 -9 -35 -9 -30 0 -35 3 -35 24 0 31 -13 39 -59 39 -31 0 -36 -3 -43 -31 -8
-28 -13 -32 -42 -32 l-34 0 14 58 c7 31 25 110 40 175 l28 117 42 0 c32 0 44
-4 48 -17z m406 -75 l1 -93 30 38 c23 27 39 37 60 37 16 0 29 -3 29 -6 0 -4
-16 -27 -35 -53 l-34 -47 21 -35 c11 -19 29 -49 40 -66 l20 -33 -36 0 c-30 0
-38 5 -57 40 -26 45 -39 43 -39 -6 0 -31 -2 -34 -30 -34 l-30 0 0 175 0 175
30 0 30 0 0 -92z m1740 -83 l0 -176 -42 1 c-24 1 -55 -1 -69 -5 -19 -5 -33 -1
-55 18 -27 24 -29 29 -29 106 0 69 3 84 21 102 23 22 55 28 92 15 21 -7 22 -5
22 53 l0 61 30 0 30 0 0 -175z m452 83 l3 -92 25 37 c20 30 31 37 58 37 30 0
42 -12 24 -24 -5 -3 -21 -23 -36 -44 l-27 -40 41 -66 41 -67 -38 3 c-32 3 -41
9 -58 40 -26 49 -35 48 -35 -2 0 -39 -1 -40 -35 -40 l-35 0 0 175 0 175 35 0
34 0 3 -92z m728 28 l0 -65 35 15 c28 11 40 12 58 3 34 -18 37 -27 37 -136 l0
-103 -30 0 -30 0 0 90 c0 75 -3 92 -16 97 -37 14 -49 -10 -52 -101 l-3 -86
-29 0 -30 0 0 175 0 175 30 0 30 0 0 -64z m530 3 c0 -58 1 -60 23 -53 76 26
107 -8 107 -118 0 -71 -2 -81 -26 -105 -20 -20 -31 -24 -52 -18 -15 4 -46 6
-69 5 l-43 -1 0 176 0 175 30 0 30 0 0 -61z m-1480 -9 c0 -38 2 -40 30 -40 25
0 30 -4 30 -25 0 -21 -5 -25 -30 -25 l-31 0 3 -67 c3 -66 4 -68 31 -71 21 -3
27 -8 23 -19 -3 -8 -6 -19 -6 -24 0 -16 -73 -10 -92 8 -14 13 -18 31 -18 90 0
66 -2 75 -20 80 -13 3 -20 14 -20 29 0 17 6 24 20 24 17 0 20 7 20 40 0 38 2
40 30 40 28 0 30 -2 30 -40z m-2096 -61 c24 -23 34 -121 17 -172 -15 -44 -59
-66 -97 -48 -14 6 -27 11 -29 11 -3 0 -5 -29 -5 -65 l0 -65 -30 0 -30 0 0 181
0 182 38 -5 c20 -3 46 -2 57 3 26 10 55 2 79 -22z m405 20 c17 -6 36 -19 41
-29 6 -10 10 -62 10 -115 l0 -97 -32 3 c-18 1 -48 -1 -66 -5 -50 -12 -82 13
-82 64 0 44 20 64 83 81 28 7 37 15 35 27 -5 25 -45 27 -58 3 -13 -25 -48 -28
-57 -5 -8 21 28 67 58 75 35 10 33 10 68 -2z m287 1 c39 -15 53 -39 54 -87 l0
-43 -61 0 c-60 0 -60 0 -57 -27 3 -32 44 -46 54 -19 9 23 64 21 64 -2 0 -51
-67 -84 -124 -62 -45 17 -55 38 -56 116 0 78 20 119 63 127 12 2 25 5 29 6 4
0 19 -4 34 -9z m201 -1 c32 -12 43 -26 43 -56 0 -31 -45 -33 -53 -2 -7 24 -40
23 -45 -2 -2 -10 9 -21 30 -29 75 -30 98 -83 59 -131 -40 -50 -151 -22 -151
38 0 19 5 23 30 23 24 0 30 -4 30 -21 0 -15 5 -20 22 -17 42 6 33 36 -16 58
-76 32 -89 107 -23 135 39 17 39 17 74 4z m202 -4 c26 -13 46 -56 33 -70 -14
-14 -50 -3 -55 16 -4 13 -12 20 -24 17 -29 -5 -21 -32 15 -50 73 -36 92 -81
53 -129 -15 -19 -29 -24 -66 -24 -37 0 -51 5 -66 24 -29 36 -25 61 10 61 21 0
30 -6 34 -21 7 -25 40 -22 45 3 2 12 -11 24 -43 39 -74 35 -85 107 -21 135 40
17 51 17 85 -1z m200 4 c17 -6 36 -19 41 -29 6 -10 10 -62 10 -115 l0 -97 -32
3 c-18 1 -48 -1 -66 -5 -50 -12 -82 13 -82 64 0 44 20 64 83 81 28 7 37 15 35
27 -5 25 -45 27 -58 3 -11 -22 -44 -28 -55 -11 -12 20 8 59 38 74 38 19 45 19
86 5z m318 -21 c17 -16 23 -33 23 -65 l0 -43 -61 0 c-60 0 -60 0 -57 -27 3
-32 44 -46 54 -19 9 23 64 21 64 -2 0 -49 -66 -84 -121 -64 -50 20 -59 37 -59
121 0 68 3 80 23 98 12 11 29 23 37 26 25 10 73 -2 97 -25z m1001 -4 c18 -21
22 -36 22 -98 0 -77 -15 -107 -61 -121 -31 -10 -84 3 -105 26 -23 26 -31 127
-13 170 24 60 111 73 157 23z m240 8 c8 -10 12 -52 12 -119 l0 -103 -30 0 -30
0 0 90 c0 75 -3 92 -17 97 -32 12 -53 -32 -53 -113 l0 -74 -30 0 -30 0 0 120
0 120 29 0 c16 0 31 -5 33 -11 2 -6 14 -5 33 5 33 17 63 13 83 -12z m530 -8
c15 -17 22 -38 22 -65 l0 -39 -61 0 c-60 0 -60 0 -57 -27 3 -32 44 -46 54 -19
4 10 18 16 35 16 22 0 29 -5 29 -20 0 -42 -64 -79 -115 -66 -52 13 -65 39 -65
124 0 69 3 81 23 99 12 11 29 23 37 26 28 11 75 -3 98 -29z m539 12 c7 -6 13
-53 15 -116 l3 -105 -32 -3 -33 -3 0 91 c0 72 -3 92 -15 96 -33 13 -45 -15
-45 -102 l0 -84 -35 0 -35 0 0 120 0 120 35 0 c19 0 35 -4 35 -9 0 -6 12 -3
28 4 28 15 58 12 79 -9z m221 -12 c19 -22 22 -36 22 -120 l0 -95 -42 1 c-24 1
-54 -1 -68 -5 -34 -9 -80 27 -80 61 0 41 18 63 63 75 52 15 67 26 60 45 -8 21
-41 17 -55 -6 -12 -19 -48 -27 -60 -14 -15 14 11 60 43 77 43 22 86 16 117
-19z m391 25 c36 -13 61 -53 61 -99 l0 -30 -59 0 c-65 0 -73 -5 -64 -38 6 -26
53 -32 53 -7 0 11 11 15 36 15 32 0 35 -2 29 -22 -13 -43 -42 -63 -90 -63 -64
0 -87 27 -93 105 -5 75 11 118 52 136 38 16 36 16 75 3z m204 -3 c15 -8 27
-11 27 -5 0 5 14 9 30 9 l30 0 0 -149 c0 -134 -2 -151 -20 -174 -41 -52 -147
-44 -170 13 -7 16 -9 34 -5 39 9 15 46 7 60 -12 27 -37 75 -10 75 43 0 17 -3
19 -19 10 -36 -19 -78 -12 -100 16 -16 21 -21 41 -21 88 0 85 8 106 44 122 39
17 36 17 69 0z m285 -22 c19 -22 22 -36 22 -120 l0 -95 -42 1 c-24 1 -54 -1
-68 -5 -35 -9 -80 27 -80 64 0 39 19 60 70 75 33 10 46 19 48 35 4 28 -31 29
-51 0 -22 -30 -63 -23 -59 11 10 70 109 91 160 34z m-3048 -94 l0 -120 -35 0
-35 0 0 113 c0 63 3 117 7 120 3 4 19 7 35 7 l28 0 0 -120z m2280 63 c19 -91
25 -93 45 -14 17 70 18 71 50 71 l33 0 -52 -177 -51 -178 -34 -3 c-28 -3 -33
-1 -27 14 29 76 29 101 -4 209 -17 59 -34 113 -37 121 -4 10 4 14 29 14 34 0
35 -1 48 -57z m-3333 -6280 c65 -30 113 -61 113 -72 0 -4 -11 -13 -24 -20 -20
-11 -31 -11 -68 2 -23 9 -64 19 -90 22 -25 3 -52 12 -58 20 -23 28 10 72 57
74 7 1 38 -11 70 -26z m-47 -183 c19 -11 32 -19 29 -20 -4 0 -3 -18 1 -40 6
-35 4 -41 -16 -55 -13 -8 -26 -14 -28 -13 -13 9 -46 -40 -51 -75 -4 -23 -23
-72 -41 -108 -28 -54 -33 -71 -25 -92 5 -14 15 -28 20 -32 15 -9 14 -38 -5
-96 -18 -54 -56 -89 -98 -89 -30 0 -73 40 -82 77 -9 33 14 75 43 83 31 7 63
36 63 57 0 13 -17 25 -52 38 -72 28 -84 54 -58 123 28 73 26 116 -5 136 -13 9
-31 16 -39 16 -9 0 -19 11 -22 26 -8 31 21 57 51 47 37 -12 115 -5 153 15 49
26 118 26 162 2z m-809 -426 c22 -36 22 -37 4 -87 -18 -48 -18 -50 0 -64 11
-7 24 -13 31 -13 21 0 81 29 110 53 64 53 95 59 112 21 11 -22 8 -31 -20 -72
-17 -26 -36 -50 -40 -53 -5 -3 -8 -44 -7 -91 2 -80 0 -88 -28 -129 l-30 -43
51 -20 c28 -10 86 -30 128 -44 81 -27 95 -43 78 -87 -11 -29 -40 -39 -91 -30
-44 8 -83 -10 -93 -43 -4 -11 -18 -24 -33 -31 -22 -10 -31 -9 -64 15 -38 26
-40 26 -78 11 -21 -9 -41 -14 -43 -11 -3 2 -11 -2 -18 -11 -7 -8 -19 -15 -26
-15 -8 0 -14 -4 -14 -9 0 -14 -51 -61 -66 -61 -17 0 -154 90 -154 101 0 16
-61 50 -115 64 -62 16 -86 10 -106 -26 -9 -18 -17 -20 -47 -14 -78 13 -72 0
-72 170 0 111 3 157 13 164 6 6 28 23 47 39 19 15 48 36 63 46 28 17 29 17 62
-6 19 -12 36 -31 39 -41 7 -27 37 -17 62 20 14 21 24 56 28 103 4 39 14 89 21
111 8 22 14 43 14 47 -8 53 33 71 158 72 l101 0 23 -36z m1117 -532 c32 -22
106 -52 130 -52 9 0 24 -5 32 -10 13 -8 13 -11 0 -24 -24 -23 -89 -56 -110
-56 -11 0 -40 9 -65 20 -25 11 -65 29 -90 40 -54 24 -59 48 -18 86 32 30 74
28 121 -4z m-40 -209 c24 -37 45 -109 37 -133 -9 -28 -32 -31 -180 -28 l-130
3 -3 31 c-2 19 3 36 12 44 9 7 16 8 16 2 0 -13 79 -39 102 -34 26 5 34 49 14
71 -37 41 -12 71 60 71 46 0 55 -3 72 -27z"/>
<path d="M6613 9773 c-20 -4 -23 -11 -23 -51 l0 -47 85 0 85 0 0 46 c0 40 -3
48 -22 53 -25 6 -90 6 -125 -1z"/>
<path d="M1898 7973 c15 -6 18 -313 2 -313 -5 0 -10 -4 -10 -10 0 -5 21 -10
47 -10 37 0 44 3 35 12 -8 8 -12 58 -12 158 0 100 4 150 12 158 9 9 1 12 -37
11 -28 0 -44 -3 -37 -6z"/>
<path d="M4181 7909 c-21 -35 -22 -36 -60 -26 -46 12 -71 -1 -71 -38 0 -35 13
-38 26 -5 10 22 20 30 38 30 14 0 27 -3 30 -8 2 -4 -27 -63 -66 -131 -38 -67
-67 -126 -63 -129 10 -10 59 54 110 146 26 45 51 80 56 77 21 -13 21 -77 0
-134 -11 -32 -21 -65 -21 -75 0 -30 18 -16 40 32 33 71 94 172 140 233 22 29
36 55 31 57 -23 8 -66 -37 -109 -111 l-46 -80 -8 38 c-5 21 -13 44 -18 50 -7
8 -5 24 5 50 22 51 12 68 -14 24z"/>
<path d="M2804 7296 c-3 -8 -17 -22 -31 -31 -24 -16 -25 -16 -18 5 7 21 6 21
-30 5 -21 -8 -39 -15 -41 -15 -2 0 -4 -4 -4 -9 0 -5 12 -11 28 -13 25 -4 25
-5 7 -13 -11 -5 -26 -17 -34 -28 -7 -10 -19 -16 -25 -14 -17 7 -27 -1 -55 -41
-12 -18 -26 -30 -31 -27 -5 3 -11 1 -15 -5 -3 -5 1 -10 10 -10 12 0 14 -4 5
-19 -12 -24 -13 -34 -1 -27 5 3 11 -7 14 -22 7 -34 83 -137 91 -123 4 5 2 12
-4 16 -14 9 -12 52 3 58 6 2 25 -7 40 -19 36 -30 45 -30 53 0 3 14 12 27 21
30 8 3 11 10 8 16 -3 6 1 13 9 16 9 3 16 14 16 24 0 28 53 42 63 17 3 -7 2
-32 -2 -54 -7 -37 -6 -40 13 -35 12 3 26 9 33 14 7 6 13 4 16 -4 4 -9 6 -9 6
2 1 8 12 25 25 38 21 19 24 30 20 68 -2 25 -9 54 -14 64 -6 11 -7 20 -3 20 4
0 -8 13 -27 29 -31 26 -33 31 -20 47 14 17 13 18 -2 6 -13 -11 -25 -10 -68 4
-35 11 -49 21 -46 30 3 8 3 14 0 14 -2 0 -7 -6 -10 -14z"/>
<path d="M4115 7100 c3 -5 -3 -10 -15 -10 -62 0 -170 -70 -170 -111 0 -9 -11
-22 -25 -29 -30 -16 -31 -30 -5 -60 11 -13 20 -28 20 -34 1 -6 21 -26 46 -44
44 -32 45 -35 43 -83 -2 -31 2 -54 11 -62 10 -10 12 -9 8 3 -3 9 8 30 28 50
19 19 32 40 29 48 -6 16 16 52 32 52 18 0 16 -30 -3 -51 -16 -17 -15 -19 9
-28 14 -5 28 -15 32 -20 3 -6 15 -16 25 -21 16 -9 18 -8 13 7 -5 12 -2 15 9
10 11 -4 21 5 34 29 22 40 38 45 32 9 -3 -13 -1 -22 3 -19 9 5 13 -9 10 -33
-3 -18 6 -16 46 8 19 12 37 19 40 16 11 -11 -14 -62 -36 -73 -18 -9 -19 -13
-7 -17 25 -10 56 25 69 77 14 54 31 69 42 37 6 -20 25 -30 25 -13 0 28 -100
142 -125 142 -27 0 -76 54 -105 116 -21 44 -42 71 -67 89 -39 26 -59 32 -48
15z"/>
<path d="M2922 6859 c-20 -48 -24 -51 -50 -46 -36 7 -48 -1 -55 -38 l-5 -30
20 28 c11 15 24 27 29 27 16 0 10 -25 -18 -68 -25 -39 -31 -42 -71 -42 -23 0
-57 6 -75 14 -37 15 -97 79 -97 103 0 23 -27 -2 -50 -46 -10 -20 -27 -45 -39
-55 -12 -11 -21 -25 -21 -32 0 -7 -12 -26 -26 -43 -21 -25 -25 -39 -22 -71 4
-49 -11 -47 -26 2 -10 34 -12 36 -30 23 -18 -13 -19 -25 -12 -177 3 -90 11
-181 16 -203 8 -35 7 -42 -10 -57 -11 -9 -20 -21 -20 -26 0 -5 -8 -16 -17 -23
-14 -12 -16 -12 -9 1 4 8 -2 4 -14 -9 -11 -13 -19 -29 -17 -36 3 -6 15 -47 27
-90 30 -110 62 -138 154 -139 47 -1 66 3 66 12 0 6 5 12 11 12 5 0 8 -4 5 -8
-3 -5 5 -8 16 -8 18 1 25 -9 38 -51 15 -51 30 -78 30 -55 0 6 -5 23 -10 37 -9
23 -5 38 20 91 16 35 33 64 36 64 3 0 31 -7 62 -16 39 -12 76 -15 124 -11 l68
6 0 -49 c0 -51 -8 -59 -58 -61 -24 0 -25 -1 -7 -8 16 -7 8 -12 -42 -27 -61
-18 -80 -38 -47 -51 8 -3 20 -1 27 6 19 19 28 12 17 -11 -6 -13 5 -4 25 20 20
23 41 42 47 42 5 0 16 6 24 14 9 10 26 13 48 9 19 -3 36 -1 40 6 5 7 -3 11
-20 11 l-27 0 27 21 c32 25 28 37 -6 15 -23 -15 -23 -14 -25 24 -2 36 1 40 48
70 27 18 67 53 89 79 38 44 40 45 54 26 9 -11 16 -15 16 -8 0 6 -4 15 -10 18
-5 3 -10 34 -10 67 0 50 -6 72 -31 116 -43 76 -31 87 14 12 20 -35 37 -66 37
-70 0 -3 11 -17 25 -30 14 -13 25 -32 25 -42 0 -20 57 -77 78 -78 7 0 12 -13
12 -30 0 -21 5 -30 16 -30 12 0 14 3 6 13 -8 10 2 23 45 56 l55 43 -22 23
c-12 13 -19 28 -16 33 3 6 -4 23 -16 39 -57 71 -108 159 -108 186 0 8 -9 26
-20 40 -11 14 -20 32 -20 40 0 7 -9 22 -19 31 -13 12 -21 37 -26 79 -7 69 -57
232 -87 288 -17 31 -29 39 -77 52 -31 9 -63 18 -72 22 -12 4 -21 -7 -37 -46z"/>
<path d="M4298 6602 c-24 -27 -46 -74 -59 -128 -7 -27 -16 -52 -21 -55 -6 -4
-5 -22 1 -45 5 -21 16 -87 22 -146 7 -60 16 -108 20 -108 11 0 17 72 7 105 -4
16 -8 69 -8 116 0 92 23 180 60 231 16 21 17 28 6 37 -10 8 -17 6 -28 -7z"/>
<path d="M4420 6456 c0 -2 16 -52 35 -112 37 -113 40 -128 27 -120 -5 3 -6 -8
-4 -24 2 -17 8 -28 12 -25 4 2 19 -9 35 -25 l27 -29 -21 -34 c-12 -19 -28 -40
-36 -47 -17 -14 -20 -56 -6 -65 6 -3 13 -25 17 -50 7 -51 -15 -97 -84 -175
l-40 -45 -34 19 c-70 41 -128 97 -128 125 0 15 5 32 11 38 6 6 7 22 3 38 -4
17 -9 23 -14 15 -6 -9 -20 -8 -61 4 -71 20 -93 37 -124 94 -21 38 -39 54 -96
85 -48 26 -70 34 -73 25 -2 -7 -8 -29 -14 -48 -20 -64 -25 -116 -12 -140 13
-25 20 -81 9 -74 -4 2 -10 -3 -13 -12 -9 -24 -7 -31 4 -14 15 23 13 -40 -3
-81 -15 -41 -15 -77 0 -105 14 -25 112 -74 148 -74 14 0 35 -9 47 -20 11 -10
42 -22 67 -25 25 -3 54 -10 63 -15 12 -7 28 -5 50 4 18 8 67 24 108 36 41 12
79 26 84 31 5 4 4 20 -4 38 -6 16 -10 36 -7 43 3 7 8 -1 12 -17 4 -19 13 -31
23 -31 9 -1 56 -10 105 -21 l87 -20 6 26 c16 76 78 279 95 312 l20 39 -25 33
c-13 17 -38 60 -55 94 -25 50 -31 75 -31 125 0 35 -4 68 -8 73 -4 6 -27 11
-51 12 -41 2 -86 27 -76 43 3 4 -11 28 -31 54 -31 41 -44 53 -44 42z"/>
<path d="M2909 5419 c0 -24 -3 -83 -5 -130 l-5 -86 26 5 c21 4 27 -1 40 -31
33 -80 101 -129 156 -112 19 6 21 13 17 59 -4 41 -15 67 -58 133 -33 50 -58
79 -67 76 -7 -3 -10 -9 -7 -14 3 -5 10 -7 15 -4 17 11 9 -15 -11 -35 -23 -23
-62 -26 -78 -7 -5 6 -10 50 -11 97 -2 88 -10 125 -12 49z"/>
<path d="M3920 5396 c0 -10 -6 -13 -16 -9 -15 6 -16 -3 -12 -76 7 -116 50
-169 100 -124 32 29 40 62 32 141 -6 71 -7 72 -25 56 -18 -17 -21 -16 -49 5
-24 17 -30 18 -30 7z"/>
<path d="M1080 4919 c-19 -12 -39 -28 -44 -36 -12 -21 -69 -43 -114 -43 -52 0
-98 -44 -107 -103 -4 -23 -16 -56 -26 -73 -25 -41 -24 -52 8 -115 25 -50 26
-56 14 -111 -8 -42 -9 -63 -1 -78 14 -26 29 -25 70 5 19 14 39 25 45 25 5 0
28 9 49 21 24 12 54 20 80 19 112 -5 127 -2 160 34 17 19 57 45 90 58 l60 24
0 51 c1 34 7 58 19 70 35 39 17 66 -93 137 -41 27 -92 68 -113 92 -21 24 -44
44 -50 44 -7 0 -28 -10 -47 -21z"/>
<path d="M2842 4859 c1 -52 2 -52 5 -11 4 42 5 43 23 27 15 -14 17 -22 8 -43
-18 -48 -19 -80 -3 -111 8 -17 11 -31 6 -31 -17 0 -35 32 -42 73 l-6 42 -2
-38 c-1 -52 58 -147 92 -147 61 0 87 92 61 213 -16 71 -18 76 -34 62 -22 -19
-54 -19 -85 1 l-25 16 2 -53z"/>
<path d="M4087 4797 c-3 -20 -16 -51 -28 -68 l-22 -31 -14 25 c-12 24 -43 29
-43 7 0 -4 -13 -13 -30 -20 -16 -7 -30 -16 -30 -21 0 -5 13 -3 29 5 24 13 31
13 47 2 17 -13 16 -17 -25 -70 -31 -40 -50 -56 -67 -56 -18 0 -24 -6 -24 -21
0 -16 -4 -20 -17 -15 -12 4 -10 -1 7 -15 50 -43 162 13 168 85 2 20 7 36 12
36 15 0 49 56 58 97 6 27 5 49 -3 69 l-12 29 -6 -38z"/>
<path d="M1675 4486 c-15 -13 -40 -26 -54 -29 -48 -10 -64 -30 -64 -80 0 -31
6 -53 18 -67 18 -20 18 -21 -1 -41 -20 -19 -54 -18 -54 2 0 5 -7 9 -15 9 -8 0
-15 5 -15 10 0 21 -24 8 -65 -36 -38 -42 -46 -46 -71 -40 -105 27 -148 12
-159 -54 -5 -30 -3 -36 17 -45 13 -5 24 -19 26 -30 2 -15 -9 -25 -48 -43 -43
-20 -50 -27 -50 -52 0 -25 5 -30 34 -35 19 -4 54 0 84 8 54 17 92 13 92 -8 0
-7 19 -29 42 -48 33 -27 41 -41 40 -66 -1 -36 10 -45 44 -37 31 8 31 26 -1
111 l-26 68 22 23 c38 40 125 84 167 84 38 0 82 -31 82 -57 0 -16 79 -113 92
-113 6 0 39 13 74 30 35 16 93 37 129 46 36 9 65 20 65 25 0 4 9 11 20 14 20
6 170 151 170 164 0 10 30 41 74 75 23 18 36 37 36 52 0 31 -18 30 -66 -4 -86
-62 -111 -58 -148 23 -7 17 -22 37 -32 46 -19 17 -44 16 -141 -6 -26 -6 -35
-3 -53 18 -26 30 -50 26 -79 -14 -32 -43 -69 -37 -98 16 -12 22 -22 49 -22 61
-1 19 -18 44 -31 44 -4 0 -19 -11 -35 -24z"/>
<path d="M2153 3894 c-59 -29 -82 -144 -29 -144 12 0 38 11 57 25 63 47 73 76
39 113 -24 26 -26 26 -67 6z"/>
</g>
</svg>
