<?xml version="1.0" standalone="no"?>
<!DOCTYPE svg PUBLIC "-//W3C//DTD SVG 20010904//EN"
 "http://www.w3.org/TR/2001/REC-SVG-20010904/DTD/svg10.dtd">
<svg version="1.0" xmlns="http://www.w3.org/2000/svg"
 width="720.000000pt" height="1280.000000pt" viewBox="0 0 720.000000 1280.000000"
 preserveAspectRatio="xMidYMid meet">
<metadata>
Created by potrace 1.16, written by Peter Selinger 2001-2019
</metadata>
<g transform="translate(0.000000,1280.000000) scale(0.100000,-0.100000)"
fill="#000000" stroke="none">
<path d="M0 6400 l0 -6400 3600 0 3600 0 0 1903 0 1904 -767 8 c-423 4 -892
10 -1043 14 l-275 6 3 42 4 42 -74 -4 c-108 -8 -111 -10 -104 -56 l6 -39 -422
0 c-397 1 -425 2 -463 20 -22 11 -45 19 -52 20 -6 0 -19 17 -29 39 -12 27 -27
42 -51 52 -19 7 -39 19 -45 26 -6 7 -20 13 -32 13 -25 1 -56 22 -56 40 0 14
46 60 61 60 14 0 11 16 -6 30 -11 9 -68 14 -183 17 -194 5 -212 7 -212 31 0
15 -2 15 -10 2 -9 -13 -10 -13 -10 0 -1 12 -3 11 -11 -2 -13 -22 -72 -24 -93
-3 -17 17 -36 20 -36 5 0 -5 -7 -10 -15 -10 -17 0 -22 19 -30 127 -5 77 -4 83
21 112 14 17 29 29 34 26 4 -3 10 3 13 14 4 16 9 17 58 7 30 -6 59 -14 65 -18
18 -12 24 65 24 307 l0 223 25 16 c16 10 46 16 85 16 37 0 59 4 55 10 -6 9
-34 8 -225 -9 l-95 -8 75 -3 c54 -3 31 -5 -85 -10 -235 -11 -1172 -11 -1157
-1 13 8 -62 22 -116 21 -12 0 -55 9 -95 19 -39 11 -108 22 -152 25 -66 4 -72
4 -35 -4 78 -16 93 -21 87 -27 -4 -3 -2 -14 4 -24 8 -17 6 -19 -21 -19 -18 0
-29 4 -25 10 4 6 -10 9 -37 9 l-43 -2 35 -6 c84 -16 -1305 -30 -1448 -15 -34
4 -59 11 -56 15 3 5 -15 9 -40 9 -75 0 -52 16 42 30 142 20 132 31 -26 27
-120 -4 -141 -2 -131 9 7 9 33 14 68 15 31 0 88 7 126 14 l70 13 -85 2 -85 3
80 11 c53 7 74 14 62 19 -10 4 -28 7 -40 8 -12 0 5 7 38 15 50 12 196 15 840
17 711 2 785 0 840 -15 75 -22 97 -23 73 -4 -10 7 -15 15 -12 18 9 10 119 -4
126 -16 5 -7 8 -6 8 5 0 14 20 15 169 11 93 -2 171 0 173 5 2 4 1 28 -3 53 -6
42 -10 35 -14 -22 0 -9 -3 -20 -7 -23 -3 -3 -57 -3 -119 2 -63 4 -102 9 -86
11 33 4 34 8 4 32 -21 18 -22 23 -22 205 l0 186 35 29 c25 21 47 30 75 31 l40
1 -40 8 c-22 4 -44 6 -48 3 -15 -9 -55 6 -61 23 -4 9 -9 63 -12 120 -5 90 -4
105 10 110 15 6 15 7 0 18 -19 14 -19 24 -9 187 4 72 13 133 20 143 11 14 28
16 116 14 l104 -3 1 -375 c1 -206 2 -400 4 -430 6 -116 18 134 18 388 0 188 3
256 13 268 9 11 29 14 78 12 l66 -3 -3 -497 -4 -498 94 0 c54 0 87 4 80 9 -10
6 -8 10 8 14 19 5 20 8 9 29 -6 13 -17 26 -23 30 -8 5 -11 158 -10 525 l1 518
114 0 114 0 0 -560 0 -560 165 3 c91 1 173 4 183 5 18 2 19 14 18 177 -1 96
-4 185 -8 197 -10 41 -21 24 -16 -24 3 -30 1 -43 -4 -35 -7 9 -14 7 -32 -9
-12 -12 -24 -19 -25 -18 -2 2 -8 13 -14 24 l-11 20 -2 -20 c-1 -11 -4 -4 -8
15 -9 50 -8 487 2 496 4 4 33 10 65 12 l57 4 3 182 c1 99 -1 207 -4 240 l-6
58 -338 -7 c-305 -7 -343 -6 -391 10 -30 9 -59 24 -66 32 -14 18 -33 9 -33
-18 0 -13 -7 -19 -22 -19 -13 0 -306 0 -653 1 -346 1 -808 2 -1025 2 -217 -1
-374 2 -347 6 53 7 67 24 24 29 -15 2 -27 6 -27 8 0 11 28 33 34 26 4 -3 4 2
0 12 -6 15 -2 17 32 16 64 -3 84 -1 84 11 0 7 -30 9 -85 8 -118 -4 -129 10
-20 27 l50 8 -40 6 c-36 5 -38 6 -15 13 14 3 45 7 69 7 24 0 42 2 40 4 -2 3
-79 8 -169 12 -91 4 -181 12 -200 18 -33 11 -35 12 -32 56 2 25 8 49 13 55 5
5 9 18 9 30 1 23 22 55 38 55 5 0 13 32 17 70 4 39 11 70 16 70 5 0 9 10 9 23
0 13 7 47 15 75 12 40 21 53 40 58 22 5 25 12 26 55 2 67 2 69 17 78 8 5 12
12 10 17 -1 5 7 10 20 12 21 3 22 8 22 83 0 64 3 79 15 79 10 0 15 11 15 35 0
19 5 35 11 35 8 0 10 16 6 53 -4 28 -4 69 0 89 5 34 8 37 29 32 23 -6 24 -4
24 45 0 39 4 51 15 51 10 0 15 11 15 35 0 29 4 35 21 35 19 0 21 4 16 43 -5
47 19 180 33 185 6 2 10 39 10 83 0 46 4 79 10 79 6 0 10 31 10 74 0 72 0 74
30 86 30 12 30 14 30 86 0 43 4 74 10 74 6 0 10 21 10 46 0 45 1 46 26 41 l27
-5 -7 59 c-5 54 -4 59 14 59 13 0 20 7 20 20 0 13 -7 20 -20 20 -11 0 -20 7
-20 15 0 8 9 15 20 15 13 0 20 7 20 19 0 11 8 22 18 24 16 4 16 5 0 6 -10 0
-18 6 -18 11 0 12 36 14 43 3 2 -5 2 -2 0 6 -5 22 9 141 17 141 4 0 11 -35 16
-77 5 -51 10 -66 12 -45 2 18 10 36 18 39 9 3 14 20 14 44 0 32 3 39 20 39 15
0 20 7 20 25 0 23 4 25 44 25 34 0 45 4 48 17 2 9 19 22 38 29 31 11 13 13
-150 15 -139 2 -93 4 185 10 204 3 1618 7 3143 8 l2772 1 0 1775 0 1775 -3600
0 -3600 0 0 -6400z m6782 3684 c50 -17 112 -73 138 -125 44 -85 32 -202 -29
-284 -25 -34 -27 -41 -14 -50 14 -10 14 -14 -2 -38 -22 -35 -88 -46 -136 -23
-29 13 -43 14 -94 4 -106 -20 -142 -17 -169 17 -22 27 -22 31 -7 41 15 11 14
14 -6 36 -38 40 -63 108 -63 172 0 78 16 128 58 176 77 90 199 118 324 74z
m-639 0 c52 -18 116 -76 142 -130 22 -47 30 -130 16 -180 -32 -119 -134 -194
-265 -194 -165 0 -272 106 -270 266 2 153 105 252 265 253 36 1 86 -6 112 -15z
m-5839 -91 c10 -34 76 -315 76 -324 0 -5 -16 -9 -35 -9 -30 0 -35 3 -35 24 0
31 -13 39 -59 39 -31 0 -36 -3 -43 -31 -8 -28 -13 -32 -42 -32 l-34 0 14 58
c7 31 25 110 40 175 l28 117 42 0 c32 0 44 -4 48 -17z m406 -75 l1 -93 30 38
c23 27 39 37 60 37 16 0 29 -3 29 -6 0 -4 -16 -28 -35 -54 l-34 -47 28 -45
c56 -89 56 -88 17 -88 -30 0 -38 5 -57 40 -26 45 -39 43 -39 -6 0 -31 -2 -34
-30 -34 l-30 0 0 175 0 175 30 0 30 0 0 -92z m1740 -83 l0 -176 -42 1 c-24 1
-55 -1 -69 -5 -19 -5 -33 -1 -55 18 -27 24 -29 29 -29 106 0 69 3 84 21 102
23 22 55 28 92 15 21 -7 22 -5 22 53 l0 61 30 0 30 0 0 -175z m452 83 l3 -92
25 37 c20 30 31 37 58 37 30 0 42 -12 24 -24 -5 -3 -21 -23 -36 -44 l-27 -40
41 -66 41 -67 -38 3 c-32 3 -41 9 -58 40 -26 49 -35 48 -35 -2 0 -39 -1 -40
-35 -40 l-35 0 0 175 0 175 35 0 34 0 3 -92z m728 28 l0 -65 35 15 c28 11 40
12 58 3 34 -18 37 -27 37 -136 l0 -103 -30 0 -30 0 0 90 c0 75 -3 92 -16 97
-37 14 -49 -10 -52 -101 l-3 -86 -29 0 -30 0 0 175 0 175 30 0 30 0 0 -64z
m530 3 c0 -58 1 -60 23 -53 76 26 107 -8 107 -118 0 -71 -2 -81 -26 -105 -20
-20 -31 -24 -52 -18 -15 4 -46 6 -69 5 l-43 -1 0 176 0 175 30 0 30 0 0 -61z
m-1480 -9 c0 -38 2 -40 30 -40 25 0 30 -4 30 -25 0 -21 -5 -25 -30 -25 l-31 0
3 -67 c3 -66 4 -68 31 -71 21 -3 27 -8 23 -19 -3 -8 -6 -19 -6 -24 0 -16 -73
-10 -92 8 -14 13 -18 31 -18 90 0 66 -2 75 -20 80 -13 3 -20 14 -20 29 0 17 6
24 20 24 17 0 20 7 20 40 0 38 2 40 30 40 28 0 30 -2 30 -40z m-2096 -61 c24
-23 34 -121 17 -172 -15 -44 -59 -66 -97 -48 -14 6 -27 11 -29 11 -3 0 -5 -29
-5 -65 l0 -65 -30 0 -30 0 0 181 0 182 38 -5 c20 -3 46 -2 57 3 26 10 55 2 79
-22z m405 20 c17 -6 36 -19 41 -29 6 -10 10 -62 10 -115 l0 -97 -32 3 c-18 1
-48 -1 -66 -5 -50 -12 -82 13 -82 64 0 44 20 64 83 81 28 7 37 15 35 27 -5 25
-45 27 -58 3 -13 -25 -48 -28 -57 -5 -8 21 28 67 58 75 35 10 33 10 68 -2z
m287 1 c39 -15 53 -39 54 -87 l0 -43 -61 0 c-60 0 -60 0 -57 -27 3 -32 44 -46
54 -19 9 23 64 21 64 -2 0 -51 -67 -84 -124 -62 -45 17 -55 38 -56 116 0 78
20 119 63 127 12 2 25 5 29 6 4 0 19 -4 34 -9z m201 -1 c32 -12 43 -26 43 -56
0 -31 -45 -33 -53 -2 -7 24 -40 23 -45 -2 -2 -10 9 -21 30 -29 75 -30 98 -83
59 -131 -40 -50 -151 -22 -151 38 0 19 5 23 30 23 24 0 30 -4 30 -21 0 -15 5
-20 22 -17 42 6 33 36 -16 58 -76 32 -89 107 -23 135 39 17 39 17 74 4z m202
-4 c26 -13 46 -56 33 -70 -14 -14 -50 -3 -55 16 -4 13 -12 20 -24 17 -29 -5
-21 -32 15 -50 73 -36 92 -81 53 -129 -15 -19 -29 -24 -66 -24 -37 0 -51 5
-66 24 -29 36 -25 61 10 61 21 0 30 -6 34 -21 7 -25 40 -22 45 4 3 12 -9 23
-42 37 -74 31 -86 108 -22 136 40 17 51 17 85 -1z m200 4 c17 -6 36 -19 41
-29 6 -10 10 -62 10 -115 l0 -97 -32 3 c-18 1 -48 -1 -66 -5 -50 -12 -82 13
-82 64 0 44 20 64 83 81 28 7 37 15 35 27 -5 25 -45 27 -58 3 -11 -22 -44 -28
-55 -11 -12 20 8 59 38 74 38 19 45 19 86 5z m319 -22 c16 -15 22 -32 22 -64
l0 -43 -61 0 c-60 0 -60 0 -57 -27 3 -32 44 -46 54 -19 9 23 64 21 64 -2 0
-49 -66 -84 -121 -64 -50 20 -59 37 -59 121 0 68 3 80 23 98 12 11 29 23 37
26 25 9 73 -4 98 -26z m1000 -3 c18 -21 22 -36 22 -98 0 -77 -15 -107 -61
-121 -31 -10 -84 3 -105 26 -23 26 -31 127 -13 170 24 60 111 73 157 23z m240
8 c8 -10 12 -52 12 -119 l0 -103 -30 0 -30 0 0 90 c0 75 -3 92 -17 97 -32 12
-53 -32 -53 -113 l0 -74 -30 0 -30 0 0 120 0 120 29 0 c16 0 31 -5 33 -11 2
-6 14 -5 33 5 33 17 63 13 83 -12z m530 -8 c15 -17 22 -38 22 -65 l0 -39 -61
0 c-60 0 -60 0 -57 -27 3 -32 44 -46 54 -19 4 10 18 16 35 16 22 0 29 -5 29
-20 0 -42 -64 -79 -115 -66 -52 13 -65 39 -65 124 0 69 3 81 23 99 12 11 29
23 37 26 28 11 75 -3 98 -29z m539 12 c7 -6 13 -53 15 -116 l3 -105 -32 -3
-33 -3 0 91 c0 72 -3 92 -15 96 -33 13 -45 -15 -45 -102 l0 -84 -35 0 -35 0 0
120 0 120 35 0 c19 0 35 -4 35 -9 0 -6 12 -3 28 4 28 15 58 12 79 -9z m221
-12 c19 -22 22 -36 22 -120 l0 -95 -42 1 c-24 1 -54 -1 -68 -5 -34 -9 -80 27
-80 61 0 41 18 63 63 75 52 15 67 26 60 45 -8 21 -41 17 -55 -6 -12 -19 -48
-27 -60 -14 -15 14 11 60 43 77 43 22 86 16 117 -19z m391 25 c36 -13 61 -53
61 -99 l0 -30 -59 0 c-65 0 -73 -5 -64 -38 6 -26 53 -32 53 -7 0 11 11 15 36
15 32 0 35 -2 29 -22 -13 -43 -42 -63 -90 -63 -64 0 -87 27 -93 105 -5 75 11
118 52 136 38 16 36 16 75 3z m204 -3 c15 -8 27 -11 27 -5 0 5 14 9 30 9 l30
0 0 -149 c0 -134 -2 -151 -20 -174 -41 -52 -147 -44 -170 13 -7 16 -9 34 -5
39 9 15 46 7 60 -12 27 -37 75 -10 75 43 0 17 -3 19 -19 10 -36 -19 -78 -12
-100 16 -16 21 -21 41 -21 88 0 85 8 106 44 122 39 17 36 17 69 0z m285 -22
c19 -22 22 -36 22 -120 l0 -95 -42 1 c-24 1 -54 -1 -68 -5 -35 -9 -80 27 -80
64 0 39 19 60 70 75 33 10 46 19 48 35 4 28 -31 29 -51 0 -22 -30 -63 -23 -59
11 10 70 109 91 160 34z m-3048 -94 l0 -120 -35 0 -35 0 0 113 c0 63 3 117 7
120 3 4 19 7 35 7 l28 0 0 -120z m2280 63 c19 -91 25 -93 45 -14 17 70 18 71
50 71 l33 0 -52 -177 -51 -178 -33 -3 c-29 -3 -33 -1 -29 15 31 106 31 95 -2
207 -18 59 -35 114 -38 122 -4 10 4 14 29 14 34 0 35 -1 48 -57z m-2593 -3725
l2 -98 -91 0 c-82 0 -89 2 -77 16 11 13 10 17 -4 25 -13 8 -17 24 -17 79 0 80
-2 79 115 76 l70 -1 2 -97z m0 -143 c-3 -20 0 -38 4 -41 5 -3 9 -174 9 -380
l0 -374 -97 1 c-54 1 -90 3 -80 6 18 5 24 33 7 33 -5 0 -10 -5 -10 -12 0 -6
-2 -9 -5 -6 -11 10 -20 400 -16 666 l1 62 43 1 42 1 -45 11 c-26 6 -37 12 -27
14 18 5 24 23 7 23 -17 0 -11 18 8 23 9 3 50 5 90 6 l72 1 -3 -35z m-1217
-380 c0 -211 -3 -390 -6 -399 -7 -18 -30 -22 -36 -6 -2 6 -31 15 -65 20 -35 6
-74 15 -88 20 l-25 10 0 160 0 161 27 27 c25 25 50 112 32 112 -4 0 -10 7 -13
15 -4 11 3 19 20 25 23 9 25 15 22 53 -3 39 -1 42 22 45 32 4 59 40 38 53 -11
7 -10 11 2 18 12 8 11 14 -10 35 -16 18 -19 26 -9 27 37 2 60 6 65 12 4 4 11
4 15 1 5 -3 9 -178 9 -389z m195 -42 c-4 -192 -10 -351 -13 -355 -14 -14 -60
5 -71 29 -8 18 -17 24 -30 20 -13 -3 -21 2 -26 17 -14 43 -18 457 -5 548 l13
88 69 0 69 0 -6 -347z m1594 -788 c1 -30 -1 -71 -5 -90 l-6 -36 -122 3 -121 3
0 75 c0 68 2 75 20 76 79 6 81 7 35 14 -32 5 -11 7 76 8 l121 2 2 -55z m211
-115 l0 -170 -77 0 c-132 0 -123 -12 -123 161 0 89 4 150 10 154 6 4 8 11 5
16 -4 5 33 9 89 9 l96 0 0 -170z m168 -97 c1 -43 -1 -150 -5 -238 l-8 -160
-75 0 -75 1 3 149 c2 83 5 166 7 185 1 19 3 58 4 87 1 58 5 60 96 57 l50 -2 3
-79z m-397 -71 c6 -7 -15 -876 -22 -902 -3 -13 23 -16 183 -20 102 -3 190 -8
194 -12 4 -5 2 -8 -5 -8 -7 0 -9 -5 -6 -10 4 -6 8 -22 11 -35 4 -24 3 -25 -58
-27 l-63 -1 60 -7 c138 -14 -85 -30 -415 -30 -192 0 -244 4 -266 22 -8 5 -14
3 -18 -8 -6 -15 -17 -16 -81 -11 -45 4 -76 3 -80 -3 -4 -7 -398 -10 -1111 -10
l-1105 0 3 73 3 72 120 7 c66 3 632 8 1258 11 625 2 1140 7 1144 10 3 4 -2 7
-12 7 -17 0 -18 16 -12 363 4 199 10 399 13 444 l7 82 51 4 c63 5 199 -2 207
-11z m212 -247 c-16 -508 -20 -641 -22 -644 0 -2 -37 -2 -80 1 -123 7 -115
-20 -107 371 4 182 10 335 13 340 2 4 48 6 101 5 l97 -3 -2 -70z m-2008 -427
c3 -24 5 -72 3 -108 l-3 -65 -90 -3 c-49 -1 -96 2 -104 7 -10 7 -12 22 -7 65
8 64 26 75 26 16 l0 -40 56 0 57 0 -7 47 c-7 52 -20 64 -76 74 -24 4 -10 7 44
8 94 1 97 8 6 12 -36 2 -69 5 -74 7 -20 11 25 22 91 22 l72 0 6 -42z m2133
-64 c20 -14 23 -23 20 -72 -3 -49 -6 -57 -23 -59 -11 -1 -36 -5 -57 -9 l-36
-6 -18 55 c-10 32 -14 65 -10 81 6 23 11 26 54 26 27 0 57 -7 70 -16z m859
-331 c5 -16 8 -136 8 -268 l0 -240 -65 -3 c-36 -2 -88 -1 -117 3 -50 6 -52 8
-69 50 -13 36 -17 83 -18 245 l-1 201 25 19 c21 16 42 20 127 20 l103 0 7 -27z
m-3521 -180 c-4 -32 -9 -84 -13 -116 l-6 -58 -96 3 -96 3 3 43 c2 24 10 61 17
83 14 38 13 39 -13 54 -16 8 -21 15 -12 15 106 6 167 13 180 20 36 22 43 13
36 -47z m-248 -113 l1 -160 -82 2 -82 1 60 7 c46 4 54 7 35 13 -14 4 -43 8
-65 9 -36 3 -40 6 -43 31 -4 32 19 73 45 81 10 3 27 19 38 35 10 16 23 27 28
24 5 -3 4 5 -3 17 -11 20 -17 22 -60 16 -27 -4 -51 -2 -54 3 -9 13 4 42 18 40
6 -1 41 -1 79 0 60 1 67 3 67 21 0 11 4 20 8 20 5 0 9 -72 10 -160z m2202
-422 c1 -299 3 -556 3 -571 2 -37 22 -47 72 -37 23 4 30 8 17 9 -33 1 -17 21
18 21 16 0 32 5 35 10 4 6 120 10 314 10 l309 0 4 -35 c2 -19 1 -39 -2 -45 -3
-5 -633 -9 -1592 -9 l-1586 -1 1 329 c1 181 6 333 10 338 5 4 46 10 92 11 76
4 84 6 96 28 16 31 38 36 157 38 l97 1 5 -322 c3 -177 8 -325 13 -329 4 -4
236 -10 515 -12 753 -6 814 -6 972 4 121 7 144 11 141 24 -2 8 -3 161 -2 338
1 255 4 327 15 337 7 8 45 17 84 20 l70 7 4 44 c1 23 0 53 -3 66 -6 20 -7 18
-8 -9 l-1 -33 -74 0 c-41 0 -78 4 -81 10 -3 5 -3 71 1 145 l7 135 83 0 c49 0
84 4 84 10 0 6 28 10 64 10 l65 0 1 -542z m885 6 c10 -15 13 -15 27 0 18 17
63 23 53 6 -3 -5 0 -10 8 -10 21 0 27 -57 20 -182 -5 -95 -8 -108 -26 -114
-10 -3 -24 -1 -30 5 -6 6 -23 11 -37 11 -36 0 -49 42 -56 184 -6 106 -5 116
11 116 10 0 23 -7 30 -16z m-2731 -137 c-1 -9 2 -14 7 -11 5 3 9 -62 9 -150 0
-85 -4 -157 -9 -161 -5 -3 -15 12 -22 32 -28 81 -33 129 -24 228 6 73 9 86 23
83 10 -2 16 -11 16 -21z m3430 -105 c3 -5 6 -98 6 -208 l2 -199 -146 -3 -146
-3 -11 28 c-14 37 -1 307 16 350 8 19 22 33 37 36 43 8 237 7 242 -1z m2996
-316 c0 -50 4 -76 13 -79 6 -3 -22 -6 -63 -6 l-75 -1 1 73 c1 39 2 75 3 80 0
4 28 7 61 7 l60 0 0 -74z"/>
<path d="M6613 9773 c-20 -4 -23 -11 -23 -51 l0 -47 85 0 85 0 0 46 c0 40 -3
48 -22 53 -25 6 -90 6 -125 -1z"/>
<path d="M4221 6568 c-27 -85 -81 -276 -81 -288 0 -6 4 -10 9 -10 7 0 52 130
86 249 6 18 9 20 16 10 5 -8 9 -26 9 -41 0 -15 7 -46 16 -68 13 -33 21 -40 43
-40 35 0 41 5 90 78 24 35 44 62 46 60 1 -2 -2 -49 -7 -105 -11 -107 -6 -153
16 -153 10 0 15 35 20 147 4 87 3 150 -3 156 -16 16 -46 -10 -100 -87 -29 -42
-56 -76 -60 -76 -17 0 -33 59 -38 142 -5 75 -9 88 -24 88 -13 0 -23 -17 -38
-62z"/>
<path d="M4557 6382 c-31 -19 -45 -57 -30 -81 8 -13 31 -16 109 -18 105 -1
114 2 114 48 0 43 19 52 54 22 25 -21 37 -24 72 -19 40 5 43 4 46 -21 2 -15 9
-28 16 -31 8 -3 12 12 12 52 0 43 -3 56 -15 56 -8 0 -15 -6 -15 -14 0 -17 -5
-21 -43 -30 -23 -5 -33 -1 -56 23 -21 23 -35 29 -64 28 -20 0 -38 -6 -38 -11
-1 -6 -2 -15 -4 -21 -1 -5 -3 -22 -3 -36 -2 -25 -6 -27 -62 -33 -65 -8 -100 4
-100 32 0 13 12 21 42 28 28 6 44 15 46 27 5 23 -43 23 -81 -1z"/>
</g>
</svg>
