<?xml version="1.0" standalone="no"?>
<!DOCTYPE svg PUBLIC "-//W3C//DTD SVG 20010904//EN"
 "http://www.w3.org/TR/2001/REC-SVG-20010904/DTD/svg10.dtd">
<svg version="1.0" xmlns="http://www.w3.org/2000/svg"
 width="720.000000pt" height="1280.000000pt" viewBox="0 0 720.000000 1280.000000"
 preserveAspectRatio="xMidYMid meet">
<metadata>
Created by potrace 1.16, written by Peter Selinger 2001-2019
</metadata>
<g transform="translate(0.000000,1280.000000) scale(0.100000,-0.100000)"
fill="#000000" stroke="none">
<path d="M0 6400 l0 -6400 3600 0 3600 0 0 1025 0 1025 -3590 0 -3590 0 0
3055 0 3055 23 0 c13 0 50 9 83 19 355 117 1110 312 1564 404 259 53 319 64
500 91 151 22 224 31 455 55 144 15 471 13 585 -4 299 -44 455 -146 417 -272
-15 -49 -115 -150 -230 -231 -48 -34 -89 -62 -91 -62 -3 0 -40 -22 -83 -49
-116 -71 -234 -134 -563 -297 -691 -343 -954 -497 -1114 -652 -110 -107 -155
-192 -156 -293 0 -83 29 -144 105 -219 l56 -55 564 -3 565 -3 0 65 0 64 -32
-8 c-72 -19 -212 -41 -359 -56 -323 -33 -576 5 -682 105 -119 110 -54 233 223
423 168 115 266 168 815 445 520 261 763 397 886 495 84 66 191 174 217 217
82 140 50 289 -85 391 -166 126 -414 177 -813 167 -262 -7 -367 -16 -660 -58
-339 -48 -764 -137 -1265 -264 -143 -36 -273 -70 -290 -75 -16 -6 -111 -33
-210 -61 -145 -40 -338 -99 -413 -124 -9 -3 -12 94 -12 465 l0 470 3590 0
3590 0 0 1775 0 1775 -3600 0 -3600 0 0 -6400z m6797 3678 c152 -71 198 -271
93 -403 -27 -34 -28 -39 -14 -50 15 -11 15 -14 0 -37 -27 -41 -84 -49 -143
-21 -31 14 -42 15 -87 3 -28 -7 -73 -13 -100 -14 -42 -1 -51 3 -72 29 -22 28
-23 31 -7 42 15 12 15 15 -5 35 -55 60 -78 178 -50 269 23 77 103 146 195 168
51 13 139 3 190 -21z m-654 6 c53 -18 116 -76 143 -132 27 -55 25 -174 -3
-227 -50 -93 -120 -136 -233 -143 -63 -4 -85 -1 -128 18 -148 64 -203 241
-118 382 25 42 43 59 94 85 54 28 75 33 131 33 37 0 88 -7 114 -16z m-5802
-239 c21 -88 38 -166 38 -172 1 -8 -12 -13 -32 -13 -28 0 -34 4 -42 32 -9 29
-14 32 -50 31 -36 0 -40 -3 -47 -31 -8 -28 -13 -32 -42 -32 l-34 0 14 58 c7
31 26 110 41 175 l27 118 44 -3 45 -3 38 -160z m369 73 l1 -93 30 38 c23 27
39 37 60 37 16 0 29 -3 29 -6 0 -4 -16 -27 -35 -53 l-34 -47 21 -35 c11 -19
29 -49 40 -66 l20 -33 -36 0 c-30 0 -38 5 -57 40 -26 45 -39 43 -39 -6 0 -31
-2 -34 -30 -34 l-30 0 0 175 0 175 30 0 30 0 0 -92z m1740 -83 l0 -176 -42 1
c-24 1 -54 -1 -68 -5 -43 -11 -77 25 -85 88 -7 58 7 128 30 147 17 14 51 17
83 6 21 -7 22 -5 22 53 l0 61 30 0 30 0 0 -175z m452 83 l3 -92 25 37 c20 30
31 37 58 37 30 0 42 -12 24 -24 -5 -3 -21 -23 -36 -45 l-28 -39 34 -54 c19
-29 38 -59 42 -65 5 -10 -3 -13 -29 -13 -30 0 -39 5 -56 35 -27 45 -39 44 -39
-1 0 -34 -1 -35 -32 -32 l-33 3 -3 173 -2 172 34 0 35 0 3 -92z m728 28 l0
-64 29 14 c31 15 77 6 93 -19 4 -7 8 -58 8 -114 l0 -103 -30 0 -30 0 0 90 c0
75 -3 92 -16 97 -37 14 -49 -10 -52 -101 l-3 -86 -29 0 -30 0 0 175 0 175 30
0 30 0 0 -64z m530 3 c0 -55 2 -60 18 -53 31 13 76 5 95 -17 13 -16 17 -40 17
-101 0 -71 -2 -81 -26 -105 -21 -21 -31 -24 -57 -18 -18 4 -49 6 -69 6 l-38
-2 0 176 0 175 30 0 30 0 0 -61z m-1480 -9 c0 -38 2 -40 30 -40 25 0 30 -4 30
-25 0 -21 -5 -25 -30 -25 l-31 0 3 -67 c3 -66 4 -68 31 -71 28 -3 31 -9 21
-36 -4 -11 -19 -16 -45 -16 -54 0 -69 25 -69 117 0 66 -2 73 -20 73 -15 0 -20
7 -20 25 0 18 5 25 20 25 17 0 20 7 20 40 0 38 2 40 30 40 28 0 30 -2 30 -40z
m-2096 -61 c24 -23 34 -121 17 -172 -15 -44 -59 -66 -97 -48 -14 6 -27 11 -29
11 -3 0 -5 -30 -5 -66 l0 -65 -27 3 -28 3 -3 179 -2 179 38 -6 c22 -2 46 -1
53 4 19 11 60 1 83 -22z m405 20 c17 -6 36 -19 41 -29 6 -10 10 -62 10 -115
l0 -97 -32 3 c-18 1 -48 -1 -66 -5 -50 -12 -82 13 -82 64 0 44 20 64 83 81 28
7 37 15 35 27 -5 26 -48 28 -55 3 -6 -25 -51 -29 -60 -5 -8 21 28 67 58 75 35
10 33 10 68 -2z m290 0 c38 -14 51 -35 51 -88 l0 -41 -61 0 c-60 0 -60 0 -57
-27 3 -32 44 -46 54 -19 9 23 64 21 64 -2 0 -51 -67 -84 -124 -62 -45 17 -55
38 -56 116 0 78 20 119 63 127 12 2 25 5 28 6 3 0 20 -4 38 -10z m198 0 c32
-12 43 -26 43 -56 0 -31 -45 -33 -53 -3 -7 26 -47 27 -47 1 0 -11 12 -23 30
-31 78 -32 101 -82 61 -131 -15 -19 -29 -24 -66 -24 -37 0 -51 5 -66 24 -28
34 -25 61 7 61 18 0 28 -6 31 -21 7 -25 46 -22 51 4 3 12 -9 23 -42 37 -76 32
-89 107 -23 135 39 17 39 17 74 4z m197 -3 c31 -13 53 -55 38 -71 -14 -14 -50
-3 -55 16 -4 13 -12 20 -24 17 -29 -5 -21 -32 15 -50 73 -36 92 -81 53 -129
-15 -19 -29 -24 -66 -24 -37 0 -51 5 -66 24 -29 36 -25 61 10 61 20 0 30 -6
34 -20 7 -28 47 -27 47 0 0 15 -13 26 -45 40 -73 31 -85 108 -21 136 39 17 40
17 80 0z m205 3 c17 -6 36 -19 41 -29 6 -10 10 -62 10 -115 l0 -97 -32 3 c-18
1 -48 -1 -66 -5 -50 -12 -82 13 -82 64 0 44 20 64 83 81 28 7 37 15 35 27 -5
25 -45 27 -58 3 -13 -24 -60 -29 -60 -6 0 32 25 66 54 74 42 12 39 12 75 0z
m319 -22 c16 -15 22 -32 22 -64 l0 -43 -61 0 c-60 0 -60 0 -57 -27 3 -32 44
-46 54 -19 8 20 64 22 64 2 0 -69 -102 -98 -158 -45 -19 17 -22 31 -22 98 0
68 3 80 23 98 12 11 29 23 37 26 25 9 73 -4 98 -26z m1000 -3 c18 -21 22 -37
22 -89 0 -77 -13 -110 -50 -125 -35 -15 -93 -4 -116 21 -23 26 -31 128 -13
170 24 60 111 73 157 23z m232 16 c17 -17 20 -33 20 -125 l0 -105 -30 0 -30 0
0 90 c0 75 -3 92 -17 97 -32 12 -53 -32 -53 -113 l0 -74 -30 0 -30 0 0 120 0
120 29 0 c16 0 31 -5 33 -11 2 -6 14 -5 33 5 39 21 51 20 75 -4z m538 -13 c16
-15 22 -32 22 -64 l0 -43 -61 0 c-60 0 -60 0 -57 -27 3 -32 44 -46 54 -19 4
10 18 16 35 16 35 0 40 -29 9 -60 -27 -27 -63 -34 -105 -20 -46 15 -55 34 -55
123 0 64 3 76 23 94 12 11 29 23 37 26 25 8 74 -5 98 -26z m530 16 c18 -16 21
-32 24 -123 l3 -105 -32 -3 -33 -3 0 91 c0 72 -3 92 -15 96 -33 13 -45 -15
-45 -102 l0 -84 -35 0 -35 0 0 120 0 120 35 0 c19 0 35 -5 35 -11 0 -5 10 -3
22 5 29 21 51 20 76 -1z m227 -14 c17 -16 21 -35 23 -120 l4 -100 -44 1 c-23
1 -54 -1 -68 -5 -34 -9 -80 27 -80 61 0 42 17 62 70 79 37 12 50 22 50 36 0
26 -36 25 -52 -1 -13 -20 -52 -27 -62 -12 -10 17 29 76 54 83 36 10 82 0 105
-22z m394 20 c36 -13 61 -53 61 -99 l0 -30 -59 0 c-65 0 -73 -5 -64 -38 6 -26
48 -31 57 -7 3 9 18 15 36 15 28 0 31 -3 25 -22 -4 -13 -18 -34 -33 -47 -21
-19 -33 -22 -66 -18 -61 8 -86 43 -86 117 0 73 16 109 55 126 37 16 35 16 74
3z m204 -3 c15 -8 27 -11 27 -5 0 5 14 9 31 9 l30 0 -3 -154 c-3 -134 -5 -157
-22 -175 -42 -46 -144 -35 -166 19 -7 16 -9 34 -5 39 10 18 44 12 57 -9 27
-42 78 -15 78 41 0 18 -3 20 -12 11 -7 -7 -29 -12 -49 -12 -56 0 -79 34 -79
116 0 72 13 107 44 122 29 14 37 14 69 -2z m282 -17 c17 -16 21 -36 23 -120
l4 -100 -44 1 c-23 1 -54 -1 -68 -5 -36 -9 -80 27 -80 66 0 28 30 69 50 69 6
0 26 7 45 14 25 11 33 19 29 30 -9 22 -41 20 -56 -4 -18 -29 -58 -27 -58 3 0
68 101 98 155 46z m-3045 -99 l0 -120 -35 0 -35 0 0 113 c0 63 3 117 7 120 3
4 19 7 35 7 l28 0 0 -120z m2280 63 c19 -90 25 -92 45 -14 18 68 20 71 48 71
28 0 29 -2 23 -33 -3 -19 -25 -99 -49 -178 l-42 -144 -34 -3 c-28 -3 -32 -1
-28 15 31 106 31 95 -3 209 -18 60 -35 115 -38 122 -3 8 7 12 30 12 34 0 35
-1 48 -57z"/>
<path d="M6613 9773 c-20 -4 -23 -11 -23 -51 l0 -47 85 0 85 0 0 46 c0 40 -3
48 -22 53 -25 6 -90 6 -125 -1z"/>
<path d="M5240 7354 c-168 -22 -505 -95 -770 -168 -30 -8 -66 -18 -80 -21 -14
-4 -52 -15 -85 -25 -33 -10 -97 -28 -143 -40 l-82 -23 33 -41 c19 -23 40 -52
47 -66 7 -14 14 -26 15 -28 2 -2 74 17 162 42 549 156 912 227 1093 213 123
-10 160 -35 160 -109 0 -122 -126 -270 -372 -437 -43 -29 -78 -55 -78 -58 0
-3 64 -2 143 2 164 8 154 4 282 131 136 135 180 226 180 371 0 85 -2 94 -30
134 -63 89 -145 121 -320 125 -66 1 -136 0 -155 -2z"/>
<path d="M2970 6855 l0 -85 45 0 c36 0 48 5 60 24 13 19 14 29 5 45 -6 11 -8
32 -4 46 9 37 -11 55 -62 55 l-44 0 0 -85z"/>
<path d="M3582 6858 c3 -78 4 -83 26 -86 62 -9 108 44 95 109 -7 38 -38 59
-86 59 l-38 0 3 -82z"/>
<path d="M3212 6568 l3 -83 33 -3 c55 -5 104 42 75 72 -5 4 -8 27 -8 49 l0 42
-53 3 -53 3 3 -83z"/>
<path d="M1470 6360 c-8 -5 -18 -6 -22 -3 -5 2 -15 0 -23 -7 -9 -8 -15 -8 -20
0 -8 13 -65 10 -84 -4 -10 -8 -15 -8 -18 2 -3 6 -14 12 -24 12 -14 0 -18 -4
-13 -12 6 -10 4 -10 -8 0 -12 9 -18 10 -23 2 -4 -6 -13 -9 -21 -6 -9 3 -14 -1
-14 -13 0 -11 6 -21 13 -24 9 -3 9 -9 0 -24 -9 -16 -9 -23 0 -33 9 -10 9 -11
0 -6 -15 8 -17 -12 -3 -34 5 -8 5 -19 1 -25 -11 -15 -11 -56 0 -76 5 -10 5
-20 0 -23 -12 -8 -11 -58 1 -73 7 -8 7 -18 1 -25 -13 -18 -14 -60 -2 -75 6 -7
7 -18 2 -25 -11 -18 -13 -161 -1 -175 6 -7 5 -14 -2 -18 -12 -8 -13 -55 -1
-75 6 -8 7 -19 3 -24 -10 -18 -11 -59 -1 -78 5 -10 6 -18 1 -18 -13 0 -13 -62
0 -78 8 -9 8 -16 2 -20 -14 -10 -16 -62 -3 -78 6 -7 7 -19 3 -26 -17 -27 -13
-54 11 -82 28 -33 33 -45 10 -26 -9 7 -16 11 -18 9 -25 -43 -25 -47 -10 -62
13 -13 14 -19 5 -30 -10 -11 -9 -17 3 -27 8 -7 15 -18 14 -24 0 -7 -2 -6 -6 2
-6 15 -33 16 -33 2 0 -6 12 -22 28 -36 15 -13 20 -22 11 -18 -30 10 -31 -15
-2 -41 17 -15 21 -23 11 -19 -10 3 -18 10 -18 15 0 5 -7 9 -15 9 -22 0 -18
-15 10 -36 14 -10 25 -24 25 -31 0 -7 7 -13 15 -13 8 0 15 5 15 10 0 6 6 10
13 9 6 -1 20 1 30 6 12 5 22 2 31 -10 9 -13 15 -15 20 -6 5 7 -3 22 -19 37
-14 13 -22 24 -17 24 5 0 19 -11 32 -25 24 -25 40 -32 40 -17 0 5 -9 18 -20
30 -17 18 -18 22 -5 22 22 0 19 13 -10 40 -14 13 -25 27 -25 32 0 5 22 -14 49
-42 32 -34 52 -47 56 -39 4 6 4 14 -1 18 -5 4 -27 26 -49 49 -42 45 -43 59 -1
17 24 -24 46 -33 46 -18 0 4 -21 30 -47 57 -27 27 -36 41 -21 30 15 -10 28
-22 28 -26 0 -5 7 -8 16 -8 8 0 13 -4 10 -8 -6 -9 29 -42 44 -42 19 0 10 14
-37 60 -27 26 -64 64 -83 86 l-35 39 34 -30 c19 -17 60 -56 93 -87 32 -32 60
-58 63 -58 17 0 -3 29 -55 81 -33 32 -56 59 -52 59 4 0 38 -29 75 -65 37 -36
70 -65 72 -65 16 0 -3 28 -54 80 -72 73 -67 80 6 10 29 -28 55 -50 58 -50 15
0 0 26 -37 63 -68 66 -88 97 -28 42 30 -27 60 -57 67 -65 11 -13 12 -13 13 0
0 8 -11 28 -25 44 -25 30 -35 50 -13 28 30 -30 37 -6 8 26 -29 31 -12 27 22
-5 15 -14 31 -23 35 -19 5 4 -3 18 -17 30 -28 24 -55 56 -48 56 3 0 18 -11 34
-25 47 -41 64 -27 19 15 -14 13 -25 28 -25 33 0 5 15 -7 34 -27 32 -33 56 -46
56 -29 0 4 -23 31 -52 60 -29 29 -49 53 -46 53 4 0 36 -29 72 -65 61 -61 86
-77 86 -56 0 5 -10 18 -22 28 -32 27 -103 103 -96 103 3 0 35 -29 72 -65 60
-59 86 -76 86 -59 0 4 -21 28 -47 54 -27 26 -57 58 -68 71 -20 23 -20 24 0 9
11 -8 34 -30 52 -48 18 -19 37 -31 43 -27 7 4 -3 21 -27 44 -21 21 -51 53 -68
72 -37 42 49 -37 161 -148 45 -46 85 -83 88 -83 19 0 -4 30 -86 114 -120 121
-158 166 -83 96 32 -30 67 -65 78 -77 10 -13 23 -23 28 -23 19 0 7 22 -33 63
-24 24 -54 56 -68 72 l-25 30 34 -30 c19 -16 60 -56 91 -87 31 -32 60 -58 63
-58 20 0 0 28 -68 97 -41 41 -75 78 -75 82 0 6 124 -112 153 -146 10 -13 23
-23 28 -23 18 0 8 20 -28 55 -20 19 -32 35 -27 35 6 0 32 -22 59 -50 27 -27
53 -50 57 -50 19 0 3 22 -63 89 -40 39 -69 71 -65 71 4 0 41 -34 83 -75 71
-70 93 -86 93 -67 0 4 -16 24 -36 45 -65 69 -22 38 53 -38 41 -41 78 -75 84
-75 19 0 8 19 -38 62 -53 49 -79 78 -70 78 3 0 40 -34 81 -75 66 -66 96 -88
96 -70 0 3 -22 29 -50 57 -28 28 -50 55 -50 60 0 5 15 -7 34 -27 33 -34 56
-45 56 -26 0 5 -7 14 -15 21 -8 7 -15 16 -15 21 0 5 15 -6 34 -26 31 -32 56
-45 56 -29 0 4 -10 17 -22 29 -13 12 -36 37 -53 56 l-30 34 29 -25 c16 -14 71
-67 122 -117 82 -82 114 -106 114 -88 0 3 -37 43 -82 88 -46 46 -92 94 -103
108 -19 22 -19 23 -1 9 11 -8 46 -41 77 -72 32 -32 61 -58 64 -58 14 0 2 25
-27 53 -18 18 -42 43 -53 57 -20 24 -20 24 0 10 11 -8 41 -37 66 -63 26 -27
50 -44 53 -39 3 6 -17 33 -45 62 -28 28 -49 54 -46 56 2 2 24 -16 48 -41 24
-25 47 -45 52 -45 14 0 7 18 -20 44 -46 46 -19 37 31 -10 26 -25 50 -43 54
-39 4 4 1 10 -5 12 -7 3 -13 11 -13 18 0 7 -7 15 -15 19 -8 3 -15 10 -15 16 0
9 37 -20 87 -69 26 -25 25 -3 -1 26 -40 42 -31 49 12 9 20 -20 40 -36 45 -36
11 0 8 15 -5 28 -29 29 4 8 44 -27 70 -64 64 -35 -9 40 -52 53 -72 68 -87 63
-17 -4 -18 -3 -6 5 12 8 12 13 3 22 -10 10 -14 9 -18 -4 -6 -14 -8 -14 -27 1
-46 38 -59 57 -53 79 3 13 1 23 -4 23 -5 0 -12 7 -15 16 -6 15 -4 15 11 3 10
-7 33 -28 51 -46 18 -19 38 -31 43 -27 5 3 -11 26 -36 51 -26 25 -44 48 -41
51 4 3 12 -3 20 -13 9 -13 15 -15 20 -6 4 6 0 18 -8 27 -9 8 -16 18 -16 21 0
8 28 -16 76 -64 40 -42 64 -54 64 -33 0 6 -4 10 -10 10 -5 0 -10 5 -10 11 0 8
5 7 15 -1 9 -8 13 -21 9 -32 -3 -12 1 -27 12 -39 10 -11 12 -19 6 -19 -7 0
-12 5 -12 10 0 6 -4 10 -10 10 -15 0 -12 -19 6 -38 11 -10 13 -17 5 -20 -6 -2
-11 -8 -11 -14 0 -13 127 -138 140 -138 18 0 10 18 -17 39 -14 12 -24 24 -21
26 5 5 258 -240 258 -250 0 -3 -9 0 -20 7 -11 7 -20 16 -20 20 0 5 -4 8 -10 8
-23 0 -6 -24 74 -105 76 -76 107 -99 106 -77 -1 4 -23 30 -50 57 -28 28 -50
53 -50 57 0 4 33 -27 74 -68 47 -47 77 -70 82 -63 3 6 3 14 -2 18 -5 3 -16 15
-24 26 -15 19 -15 19 12 0 15 -11 28 -23 28 -27 0 -12 30 -9 30 2 0 6 -4 10
-9 10 -5 0 -12 7 -15 16 -6 15 -4 15 11 3 10 -8 21 -18 24 -23 4 -5 12 -5 19
-1 9 5 4 14 -15 31 -19 16 -23 24 -13 24 9 0 19 -8 22 -17 5 -13 9 -14 19 -4
9 10 8 15 -7 27 -11 7 -17 16 -14 19 3 3 21 -10 41 -30 19 -19 38 -32 41 -27
3 5 -3 15 -12 24 -27 24 -54 59 -49 64 2 3 23 -14 46 -37 48 -49 68 -46 23 3
-31 33 -36 52 -7 28 26 -22 30 -2 5 25 -13 14 -18 25 -12 25 7 0 12 -4 12 -9
0 -12 50 -44 58 -37 3 4 -12 24 -33 46 -22 22 -36 40 -33 40 3 0 24 -18 46
-41 23 -22 46 -38 52 -34 7 4 -3 21 -24 43 -20 20 -34 38 -31 40 2 2 15 -8 28
-22 23 -25 47 -34 47 -19 0 4 -17 24 -37 45 -20 21 -34 38 -30 38 3 0 24 -18
46 -41 23 -22 46 -37 52 -33 7 4 3 14 -12 28 -13 11 -31 30 -39 41 -15 19 -15
19 12 0 15 -11 28 -23 28 -27 0 -11 30 -10 30 1 0 5 -12 19 -26 30 -15 12 -21
21 -15 21 7 0 23 -12 36 -26 13 -14 29 -23 35 -19 6 4 -6 23 -30 47 -22 23
-40 45 -40 49 0 4 22 -14 49 -42 26 -27 51 -49 55 -49 16 0 3 24 -34 61 -22
22 -40 43 -40 47 0 3 17 -11 38 -31 21 -20 41 -37 45 -37 12 0 8 21 -8 37 -9
8 -14 17 -12 20 3 2 21 -13 41 -33 20 -20 39 -34 44 -29 4 4 1 10 -5 12 -7 3
-13 10 -13 16 0 7 -11 21 -25 31 -14 10 -25 23 -25 29 0 6 11 0 25 -13 26 -25
47 -21 25 5 -9 11 -9 15 -1 15 6 0 14 -7 17 -15 7 -16 34 -21 34 -6 0 5 -11
18 -25 29 -14 11 -25 26 -25 32 0 7 8 3 19 -8 18 -21 41 -29 41 -15 0 4 -10
17 -22 30 -12 13 -17 23 -11 23 6 0 19 -11 29 -25 18 -25 44 -34 44 -16 0 5
-10 18 -22 28 -13 10 -32 30 -43 43 l-20 25 20 -15 c11 -8 27 -23 36 -32 16
-18 39 -24 39 -12 0 4 -10 17 -22 29 -13 12 -36 37 -53 56 l-30 34 29 -25 c16
-14 56 -51 88 -83 32 -32 63 -55 68 -52 5 3 -12 27 -38 53 -26 26 -56 59 -67
72 l-20 25 29 -25 c17 -14 40 -35 52 -47 11 -13 24 -23 28 -23 14 0 4 20 -30
56 -76 82 -87 97 -34 49 30 -27 63 -60 75 -72 11 -13 24 -23 28 -23 16 0 4 19
-43 69 -27 29 -50 55 -50 59 0 7 49 -36 73 -65 18 -23 37 -30 37 -15 0 4 -22
31 -50 60 -58 61 -68 83 -12 29 68 -66 74 -42 7 27 -67 69 -40 56 32 -16 34
-34 66 -58 70 -54 4 4 -9 22 -30 41 -20 18 -37 37 -37 43 0 5 -7 12 -15 16 -8
3 -15 11 -15 18 0 7 16 -4 36 -25 35 -36 54 -46 54 -29 0 5 -11 19 -25 32 -14
13 -25 28 -25 34 0 5 18 -8 39 -29 97 -97 141 -137 141 -126 0 15 -25 41 -39
41 -6 0 -10 4 -9 8 2 4 -30 41 -70 81 -40 41 -71 75 -69 78 3 2 23 -14 45 -37
40 -39 62 -50 62 -31 0 5 -10 18 -22 28 -13 10 -32 30 -43 43 l-20 25 20 -15
c11 -8 30 -26 41 -39 14 -15 24 -19 28 -12 4 6 -11 30 -33 53 -23 23 -39 44
-36 46 2 2 19 -12 38 -32 19 -20 37 -36 41 -36 16 0 3 26 -29 57 -19 19 -35
38 -35 43 0 4 27 -18 59 -51 33 -32 62 -59 65 -59 17 0 1 26 -45 72 -27 27
-48 53 -45 56 3 3 20 -11 37 -31 17 -21 35 -37 40 -37 19 0 7 22 -31 62 -23
22 -39 43 -36 45 2 3 43 -34 91 -82 47 -48 89 -85 92 -81 4 4 -14 28 -39 54
-90 93 -108 113 -108 119 0 8 32 -18 53 -44 19 -23 37 -30 37 -15 0 5 -16 25
-35 45 -20 21 -31 37 -25 37 6 0 13 -7 16 -15 6 -15 34 -21 34 -8 0 4 -17 24
-37 45 -20 21 -32 38 -26 38 5 0 19 -11 29 -25 18 -24 44 -34 44 -17 0 5 -11
19 -25 32 -14 13 -25 28 -25 33 0 5 31 -23 70 -62 62 -63 90 -84 90 -65 0 3
-34 40 -75 82 -41 42 -75 79 -75 84 0 4 70 -62 155 -147 85 -85 155 -160 155
-165 0 -5 -21 13 -47 40 -26 28 -51 50 -55 50 -19 0 -4 -24 50 -78 70 -72 116
-125 86 -99 -11 9 -24 17 -27 17 -12 0 -7 -28 6 -33 7 -4 6 -6 -4 -6 -9 -1
-20 6 -23 15 -3 8 -10 12 -16 9 -5 -3 -10 -1 -10 4 0 16 -32 51 -42 45 -5 -3
7 -22 27 -42 19 -20 35 -40 35 -45 0 -5 12 -7 28 -4 15 2 21 2 15 0 -18 -6
-16 -30 2 -37 8 -3 15 -11 15 -18 0 -9 -3 -9 -12 0 -14 14 -28 16 -28 4 0 -4
19 -27 41 -51 32 -33 39 -45 28 -52 -11 -6 -9 -13 11 -33 13 -15 19 -26 13
-26 -6 0 -14 8 -17 17 -5 12 -10 13 -18 5 -8 -8 3 -25 38 -62 27 -28 51 -57
53 -63 2 -6 -8 1 -22 17 -15 16 -31 25 -38 21 -8 -5 -4 -14 12 -29 41 -37 105
-112 79 -91 -13 11 -30 26 -36 34 -8 10 -13 11 -18 3 -4 -7 12 -32 38 -59 25
-26 43 -49 41 -51 -2 -2 -15 8 -28 22 -21 23 -47 35 -47 21 0 -2 29 -35 65
-72 36 -37 65 -71 65 -76 0 -4 -17 10 -38 33 -22 22 -42 40 -45 40 -17 0 -4
-23 33 -60 43 -43 60 -50 60 -23 0 14 3 13 16 -5 9 -13 14 -25 12 -27 -2 -2
-33 -10 -68 -18 -36 -8 -110 -27 -165 -41 -55 -15 -152 -40 -215 -57 -63 -16
-137 -36 -165 -44 -27 -8 -95 -27 -150 -41 -55 -14 -129 -34 -165 -44 -36 -10
-108 -29 -160 -43 -52 -14 -153 -42 -225 -62 -71 -20 -188 -52 -260 -71 -71
-19 -170 -45 -220 -59 -49 -14 -128 -34 -175 -45 -47 -11 -132 -32 -190 -45
-161 -39 -315 -72 -420 -90 -52 -9 -113 -20 -135 -25 -42 -9 -190 -26 -315
-35 -109 -8 -262 10 -318 38 -122 60 -105 184 47 334 86 85 276 216 448 308
48 25 51 30 41 49 -10 16 -13 18 -15 6 -5 -22 -74 -22 -90 -1 -11 14 -12 14
-13 0 0 -21 -67 -20 -80 1 -7 11 -12 12 -18 3 -4 -6 -27 -14 -51 -18 -33 -5
-71 -26 -155 -87 -173 -126 -279 -237 -329 -346 -30 -67 -30 -200 0 -258 84
-160 325 -221 693 -174 242 30 296 38 337 49 21 6 85 19 143 31 58 11 132 27
165 35 149 35 484 117 525 129 25 8 72 21 105 30 33 9 141 38 240 65 99 27
216 59 260 71 44 12 121 33 170 47 50 13 101 27 115 30 14 2 34 8 45 12 11 5
58 18 105 30 47 12 159 42 250 65 158 41 274 69 480 116 52 12 122 29 155 37
33 8 87 19 120 23 33 5 71 11 85 14 106 24 364 53 543 60 90 4 177 23 177 39
0 5 7 4 15 -3 8 -7 32 -13 53 -14 31 -1 38 2 34 14 -4 12 -2 13 9 3 16 -15 75
-17 84 -3 4 7 14 5 27 -4 18 -13 26 -13 54 -1 18 7 34 11 37 9 9 -10 5 131 -4
142 -7 8 -6 14 1 19 13 8 13 68 -1 82 -8 8 -8 13 0 17 13 9 15 73 2 81 -6 3
-4 16 4 31 9 18 11 34 5 49 -5 14 -5 39 2 61 7 27 7 39 0 42 -7 2 -9 22 -5 51
3 31 1 51 -6 55 -7 5 -8 13 -2 24 13 25 11 166 -2 174 -9 5 -9 10 1 20 15 15
16 70 0 86 -9 9 -9 12 0 12 15 0 16 62 1 77 -8 8 -8 13 0 17 6 4 11 22 11 40
0 17 -5 37 -11 43 -8 8 -8 13 0 17 14 9 14 69 0 83 -8 8 -8 13 0 17 14 9 14
69 0 83 -8 8 -8 13 0 17 20 13 12 62 -14 88 -22 22 -30 24 -64 18 -22 -4 -45
-3 -52 1 -8 4 -19 3 -26 -3 -9 -7 -18 -7 -30 3 -10 8 -14 9 -10 2 5 -8 -5 -10
-40 -6 -83 9 -144 4 -155 -11 -3 -5 -13 -2 -23 7 -12 13 -21 14 -35 7 -12 -7
-21 -7 -25 0 -3 5 -20 8 -38 6 -18 -2 -45 -4 -60 -5 -20 -1 -26 -5 -21 -13 6
-9 3 -9 -9 0 -23 19 -266 20 -277 1 -7 -11 -12 -10 -27 3 -12 11 -23 14 -33 8
-8 -5 -21 -5 -32 1 -14 8 -16 6 -11 -8 7 -17 6 -17 -19 -1 -18 12 -29 14 -33
7 -4 -6 -13 -8 -20 -5 -7 2 -18 -1 -24 -7 -8 -8 -16 -6 -30 7 -13 11 -21 14
-26 6 -3 -5 -11 -7 -17 -4 -6 4 -14 0 -19 -7 -7 -11 -12 -12 -29 -1 -30 18
-46 15 -27 -6 10 -10 17 -22 17 -27 0 -4 -10 4 -23 18 -27 32 -37 34 -37 7 l0
-21 -22 21 c-22 20 -38 26 -38 14 0 -4 16 -23 36 -42 19 -19 34 -36 31 -38 -2
-2 -24 17 -50 41 -27 27 -48 41 -52 35 -4 -6 5 -22 19 -35 14 -13 26 -28 26
-34 0 -5 -20 10 -44 35 -40 40 -66 55 -66 38 0 -4 15 -21 33 -38 17 -18 41
-43 52 -56 11 -14 -3 -4 -31 23 -27 26 -53 47 -57 47 -17 0 -4 -24 33 -62 23
-22 39 -42 37 -44 -2 -2 -35 28 -74 66 -67 66 -93 83 -93 60 0 -5 7 -10 15
-10 8 0 15 -4 15 -9 0 -4 21 -29 46 -55 25 -26 44 -49 42 -52 -3 -2 -17 10
-33 26 -16 17 -32 30 -37 30 -15 0 -8 -23 14 -41 11 -11 17 -19 12 -19 -4 0
-25 17 -46 37 -49 48 -61 36 -14 -14 39 -41 50 -67 14 -33 -27 25 -38 25 -38
3 0 -13 -14 -4 -45 30 -39 42 -65 58 -65 41 0 -4 15 -21 32 -39 18 -17 53 -53
78 -80 52 -57 25 -40 -37 23 -39 39 -63 52 -63 35 0 -5 23 -30 50 -57 28 -27
50 -53 50 -57 0 -4 -33 26 -74 67 -42 42 -77 70 -81 64 -4 -6 15 -32 42 -59
26 -26 59 -61 73 -77 25 -29 25 -29 1 -9 -13 11 -57 53 -97 93 -39 39 -75 72
-78 72 -18 0 1 -29 52 -79 31 -32 68 -71 82 -87 l25 -29 -34 30 c-18 17 -55
51 -81 78 -26 26 -51 47 -54 47 -16 0 -3 -25 30 -57 20 -19 34 -36 32 -39 -3
-2 -13 5 -23 16 -10 11 -22 20 -27 20 -13 0 -9 -28 5 -33 6 -2 9 -8 5 -11 -3
-4 -19 6 -34 23 -45 51 -63 38 -19 -13 48 -56 18 -40 -41 22 -17 17 -34 32
-38 32 -15 0 -3 -21 29 -51 19 -19 35 -39 35 -46 0 -7 -21 10 -46 37 -44 47
-64 60 -64 42 0 -4 22 -30 50 -57 27 -28 50 -54 50 -58 0 -5 -43 34 -96 87
-53 53 -101 96 -105 96 -5 0 -9 7 -9 15 0 8 -4 15 -9 15 -5 0 -11 7 -15 15 -4
12 -2 13 14 2 11 -6 20 -17 20 -24 0 -7 4 -13 9 -13 5 0 24 -16 42 -35 39 -41
49 -43 49 -13 0 21 0 21 14 2 8 -10 18 -16 22 -12 8 8 -23 48 -38 48 -4 0 -8
-8 -8 -17 0 -12 -11 -6 -40 22 -23 22 -36 41 -31 43 6 2 22 -9 35 -25 13 -15
28 -25 32 -20 4 4 -14 30 -41 57 -56 57 -55 68 1 15 35 -34 55 -43 54 -27 -1
4 -19 25 -40 47 l-39 39 -38 -18 c-35 -17 -66 -19 -406 -17 l-368 2 -36 -32
c-33 -28 -41 -31 -85 -27 -34 4 -57 13 -76 30 -16 15 -50 30 -87 38 -33 7 -64
15 -70 18 -15 9 -84 9 -79 0 8 -12 -10 -10 -24 4 -8 8 -15 8 -25 0 -8 -7 -17
-9 -21 -5 -4 4 -11 1 -16 -7 -7 -12 -11 -12 -26 1 -19 15 -65 13 -76 -4 -5 -8
-13 -6 -26 7 -13 11 -22 14 -27 6 -3 -5 -11 -8 -16 -4 -5 3 -17 0 -25 -7 -11
-9 -18 -8 -33 5 -13 12 -21 14 -26 6 -3 -5 -11 -8 -16 -4 -5 3 -16 0 -24 -6
-11 -9 -19 -9 -28 -2 -16 13 -59 12 -69 -2 -4 -6 -14 -4 -25 6 -12 11 -23 14
-33 8 -8 -5 -18 -6 -23 -3 -5 3 -13 0 -18 -8 -6 -11 -11 -10 -27 4 -13 12 -21
14 -29 6 -8 -8 -17 -8 -33 1 -12 6 -24 9 -28 6 -3 -3 0 -6 7 -6 7 0 9 -5 6
-10 -5 -8 -11 -7 -21 0 -7 7 -19 10 -26 7 -7 -2 -24 0 -37 5 -19 7 -22 5 -17
-7 5 -13 2 -14 -16 -4 -25 13 -89 18 -81 7 2 -5 0 -8 -6 -8 -5 0 -13 4 -16 10
-7 11 -67 1 -76 -12 -3 -5 -11 -2 -18 6 -9 11 -18 13 -30 7 -9 -5 -23 -6 -31
-1 -17 8 -56 7 -66 -2 -3 -4 -18 -2 -32 3 -18 7 -27 6 -32 -2 -5 -7 -10 -8
-14 -1 -7 11 -44 5 -65 -12 -10 -7 -16 -6 -25 6 -8 11 -17 14 -26 8z m922
-105 c15 -14 30 -25 33 -25 11 0 5 29 -7 33 -8 3 -8 6 -2 6 6 1 30 -18 53 -40
46 -45 71 -46 28 -1 -34 35 -36 53 -2 22 26 -25 47 -21 25 5 -21 25 3 17 29
-10 27 -29 41 -32 41 -9 0 10 28 -12 70 -55 39 -39 70 -74 70 -77 0 -9 -29 15
-56 46 -23 26 -46 22 -24 -5 9 -11 9 -15 1 -15 -6 0 -14 7 -17 15 -7 16 -34
21 -34 5 0 -5 6 -13 13 -17 6 -4 18 -16 26 -26 12 -15 12 -17 -3 -11 -9 3 -16
10 -16 15 0 5 -4 9 -10 9 -5 0 -25 17 -44 37 -19 21 -38 35 -41 31 -4 -4 19
-35 51 -68 33 -34 61 -67 63 -73 2 -6 -19 12 -47 41 -32 32 -53 48 -58 41 -3
-6 -3 -14 2 -18 5 -4 29 -29 54 -56 52 -57 9 -23 -61 48 -29 30 -50 44 -54 37
-4 -6 20 -37 54 -72 34 -33 60 -62 58 -64 -2 -2 -33 25 -69 61 -59 58 -88 77
-88 59 0 -4 21 -28 48 -54 53 -52 77 -80 69 -80 -2 0 -45 41 -95 90 -50 50
-94 90 -97 90 -18 0 4 -30 65 -91 39 -38 64 -69 56 -69 -8 0 -17 8 -20 17 -5
12 -10 13 -18 5 -8 -8 -6 -15 6 -27 9 -9 16 -19 16 -22 0 -9 -30 18 -116 105
-45 45 -85 82 -88 82 -19 0 5 -31 90 -116 52 -53 94 -98 92 -100 -3 -3 -229
218 -267 261 -13 15 10 1 35 -20 16 -14 32 -25 37 -25 12 0 8 17 -8 30 -8 7
-15 18 -15 24 0 6 7 3 14 -6 16 -22 26 -23 26 -3 0 8 -4 15 -9 15 -5 0 -11 7
-15 15 -4 12 -2 13 14 2 11 -6 20 -15 20 -19 0 -5 7 -8 15 -8 18 0 19 12 3 28
-7 7 -9 12 -5 12 4 0 20 -14 36 -31 18 -18 32 -26 36 -19 3 5 -1 17 -10 26 -9
9 -13 19 -9 23 4 3 9 0 11 -6 3 -7 9 -13 14 -13 14 0 11 28 -3 33 -7 3 -8 6
-3 6 6 1 22 -10 37 -24z m776 -680 c45 -49 45 -61 0 -18 -45 43 -44 19 1 -28
31 -33 38 -46 30 -56 -9 -9 -8 -17 1 -28 19 -23 7 -18 -26 10 -54 46 -61 28
-8 -23 19 -19 33 -36 31 -39 -3 -2 -12 3 -20 12 -18 17 -37 20 -37 5 0 -5 4
-10 9 -10 5 0 12 -7 15 -16 6 -15 4 -15 -11 -3 -10 8 -27 24 -38 36 -24 27
-35 29 -35 8 0 -8 4 -15 9 -15 5 0 11 -7 15 -15 8 -21 -23 -1 -46 30 -17 22
-17 23 2 18 11 -3 20 0 20 6 0 6 -4 11 -10 11 -5 0 -10 8 -9 18 0 10 3 12 6 5
7 -18 23 -16 23 2 0 8 -4 15 -10 15 -5 0 -10 7 -10 17 0 12 6 10 23 -10 12
-15 26 -27 30 -27 14 0 6 22 -18 48 -14 15 -25 30 -25 35 0 4 11 -3 24 -17 41
-45 51 -29 11 18 -25 30 -35 50 -13 28 7 -7 16 -12 20 -12 13 0 9 28 -4 33 -8
3 -8 6 -2 6 6 1 29 -19 52 -44z"/>
<path d="M2780 5090 c0 -5 4 -10 8 -10 5 0 15 -11 22 -25 7 -14 19 -25 27 -25
7 0 13 -7 13 -15 0 -8 5 -15 12 -15 6 0 8 -3 5 -6 -4 -4 -26 12 -49 35 -40 39
-64 52 -56 32 6 -17 128 -141 138 -141 5 0 10 7 10 17 0 13 3 12 19 -5 17 -20
41 -30 41 -17 0 3 -9 15 -20 27 -11 12 -18 23 -15 26 2 2 15 -8 28 -22 13 -14
29 -26 35 -26 6 0 12 -6 15 -12 2 -7 8 -10 12 -5 8 7 -162 186 -177 187 -14 0
-8 -16 12 -38 33 -35 8 -25 -32 13 -38 37 -48 42 -48 25z"/>
</g>
</svg>
