<?xml version="1.0" standalone="no"?>
<!DOCTYPE svg PUBLIC "-//W3C//DTD SVG 20010904//EN"
 "http://www.w3.org/TR/2001/REC-SVG-20010904/DTD/svg10.dtd">
<svg version="1.0" xmlns="http://www.w3.org/2000/svg"
 width="720.000000pt" height="1280.000000pt" viewBox="0 0 720.000000 1280.000000"
 preserveAspectRatio="xMidYMid meet">
<metadata>
Created by potrace 1.16, written by Peter Selinger 2001-2019
</metadata>
<g transform="translate(0.000000,1280.000000) scale(0.100000,-0.100000)"
fill="#000000" stroke="none">
<path d="M0 6400 l0 -6400 3600 0 3600 0 0 1997 0 1996 -252 -7 c-139 -4 -323
-11 -408 -15 -85 -4 -445 -3 -800 1 -355 4 -906 10 -1225 12 -670 5 -1354 16
-1372 21 -18 6 -16 52 3 59 37 14 -2 24 -79 19 -92 -6 -139 -19 -118 -32 7 -5
11 -20 9 -35 l-3 -27 -351 -1 c-517 0 -558 7 -610 102 -15 28 -35 50 -48 53
-119 28 -199 57 -157 57 7 0 9 4 6 10 -3 5 0 10 7 10 19 0 68 23 68 33 0 4 8
7 18 7 23 0 48 17 39 27 -4 4 -47 12 -95 18 l-87 10 -3 42 -3 42 43 6 c24 3
68 5 98 3 l55 -3 5 -60 c10 -103 21 -26 28 187 l7 193 74 3 73 3 -3 -208 -4
-208 40 3 c49 5 52 8 37 32 -7 11 -12 42 -12 69 0 40 5 55 24 74 14 14 27 22
31 19 3 -3 8 4 12 16 6 25 11 26 50 10 27 -11 72 -11 83 -1 3 2 7 120 10 261
l5 257 83 3 c72 2 82 5 82 21 0 17 -8 18 -72 15 -103 -4 -230 -20 -193 -24 17
-2 -51 -7 -150 -11 -264 -10 -1063 -10 -1069 0 -5 8 -77 24 -156 35 -19 3 -73
12 -120 20 -47 8 -101 15 -120 14 -35 0 -35 -1 6 -7 23 -4 48 -14 57 -22 19
-20 6 -45 -18 -35 -10 3 -23 2 -29 -3 -6 -4 -159 -10 -341 -12 l-330 -4 -3
108 -3 107 418 0 c330 -1 431 -4 478 -15 71 -17 118 -20 95 -5 -26 16 -3 22
51 12 37 -7 56 -7 60 0 5 7 58 9 165 4 88 -3 165 -3 172 2 9 6 11 21 6 53 -7
42 -8 43 -15 16 -4 -16 -5 -35 -2 -43 4 -12 -15 -14 -113 -13 -109 1 -117 2
-89 14 18 9 23 14 13 15 -40 1 -51 79 -38 269 9 135 11 147 35 170 18 19 36
26 65 26 22 0 40 3 40 8 0 5 -30 6 -66 4 -79 -6 -78 -8 -88 141 -6 91 -5 103
10 109 16 6 15 7 -1 19 -17 13 -18 24 -9 163 6 98 14 154 23 165 11 13 34 16
117 16 l104 0 1 -32 c2 -53 2 -312 -1 -463 -1 -77 -1 -212 1 -300 l3 -160 6
120 c4 66 8 244 9 396 1 199 4 278 13 287 7 7 41 12 81 12 l69 0 -4 -495 c-2
-405 -1 -496 10 -500 29 -11 114 -4 151 12 l39 17 -26 39 c-29 43 -27 -18 -24
700 l2 357 115 0 115 0 2 -477 c1 -263 2 -514 2 -558 l1 -80 180 0 180 0 0
280 c1 154 -1 209 -2 123 -2 -87 -7 -158 -12 -158 -4 0 -13 15 -18 33 l-10 32
-11 -25 c-10 -24 -11 -24 -12 10 l-1 35 -14 -25 c-12 -22 -20 -21 -16 3 0 4
-5 6 -11 5 -10 -2 -13 54 -13 257 l0 260 35 1 c20 0 41 3 47 7 6 4 14 3 18 -3
19 -31 25 22 25 241 l0 239 -369 0 c-236 0 -372 4 -376 10 -3 6 -13 10 -22 10
-9 0 -27 10 -40 21 -20 20 -23 20 -29 5 -3 -9 -3 -23 0 -33 6 -15 -49 -16
-749 -11 -416 4 -759 9 -763 13 -8 8 -6 2230 2 2380 3 55 10 101 16 103 14 5
12 39 -2 45 -9 4 -10 6 -1 6 6 1 19 -6 28 -15 15 -15 17 -15 31 5 8 11 22 21
30 21 8 0 14 5 14 10 0 6 -11 10 -24 10 -19 0 -22 4 -19 25 4 17 11 24 26 22
11 -1 22 4 24 11 3 8 -9 13 -39 14 -236 10 1032 16 3785 17 l3297 1 0 1775 0
1775 -3600 0 -3600 0 0 -6400z m6786 3682 c159 -63 211 -265 105 -407 -25 -34
-27 -41 -14 -50 24 -18 0 -52 -48 -67 -33 -9 -47 -9 -72 2 -36 16 -116 15
-165 -1 -47 -15 -97 -4 -117 27 -13 20 -14 28 -4 40 10 12 8 19 -9 37 -37 39
-62 108 -62 171 0 78 16 128 58 176 79 93 205 120 328 72z m-643 2 c52 -18
116 -76 142 -130 60 -126 7 -282 -117 -344 -139 -69 -312 -20 -376 106 -42 84
-38 184 12 267 25 41 43 58 94 84 54 28 75 33 131 33 37 0 88 -7 114 -16z
m-5806 -224 c52 -224 51 -200 11 -200 -31 0 -36 4 -41 30 -6 27 -11 30 -42 30
-19 0 -38 0 -42 1 -4 0 -11 -14 -16 -30 -7 -27 -12 -31 -41 -31 l-34 0 14 58
c7 31 26 110 41 175 l27 118 44 -3 45 -3 34 -145z m373 58 l1 -93 30 38 c23
27 39 37 60 37 16 0 29 -3 29 -6 0 -4 -16 -28 -35 -54 l-34 -47 28 -45 c56
-89 56 -88 17 -88 -30 0 -38 5 -57 40 -26 45 -39 43 -39 -6 0 -31 -2 -34 -30
-34 l-30 0 0 175 0 175 30 0 30 0 0 -92z m1740 -83 l0 -176 -42 1 c-24 1 -54
-1 -68 -5 -43 -11 -77 25 -85 88 -7 58 7 128 30 147 17 14 51 17 83 6 21 -7
22 -5 22 53 l0 61 30 0 30 0 0 -175z m452 83 l3 -92 25 37 c20 30 31 37 58 37
30 0 42 -12 24 -24 -5 -3 -21 -23 -36 -44 l-27 -40 40 -66 41 -66 -35 0 c-30
0 -39 6 -62 43 l-28 42 -3 -42 c-3 -42 -4 -43 -38 -43 l-34 0 0 168 c0 93 3
172 7 175 3 4 19 7 34 7 l28 0 3 -92z m728 27 l0 -66 30 16 c33 17 60 13 85
-11 11 -12 15 -40 15 -120 l0 -104 -30 0 -29 0 -3 92 c-3 83 -5 93 -22 96 -33
7 -46 -25 -46 -110 l0 -78 -30 0 -30 0 0 175 0 175 30 0 30 0 0 -65z m530 4
c0 -58 1 -60 23 -53 76 26 107 -8 107 -118 0 -71 -2 -81 -26 -105 -20 -20 -31
-24 -52 -18 -15 4 -46 6 -69 5 l-43 -1 0 176 0 175 30 0 30 0 0 -61z m-1480
-9 c0 -38 2 -40 30 -40 25 0 30 -4 30 -25 0 -21 -5 -25 -30 -25 l-31 0 3 -67
c3 -66 4 -68 31 -71 21 -3 27 -8 23 -19 -3 -8 -6 -19 -6 -24 0 -16 -73 -10
-92 8 -14 13 -18 31 -18 90 0 66 -2 75 -20 80 -13 3 -20 14 -20 29 0 17 6 24
20 24 17 0 20 7 20 40 0 38 2 40 30 40 28 0 30 -2 30 -40z m-2096 -61 c24 -23
34 -121 17 -172 -15 -44 -59 -66 -97 -48 -14 6 -27 11 -29 11 -3 0 -5 -30 -5
-66 l0 -65 -27 3 -28 3 -3 179 -2 179 37 -5 c21 -3 47 -2 58 3 26 10 55 2 79
-22z m402 21 c8 0 23 -9 34 -20 17 -17 20 -33 20 -121 l0 -101 -32 3 c-18 1
-48 -1 -66 -5 -50 -12 -82 13 -82 64 0 44 20 64 83 81 28 7 37 15 35 27 -5 26
-48 28 -55 3 -6 -25 -51 -29 -60 -5 -13 34 56 90 95 78 8 -2 20 -4 28 -4z
m290 0 c39 -15 53 -39 54 -87 l0 -43 -61 0 c-60 0 -60 0 -57 -27 3 -32 44 -46
54 -19 4 10 18 16 35 16 35 0 39 -25 10 -61 -27 -34 -99 -34 -135 0 -23 22
-26 32 -26 96 0 79 20 120 63 128 12 2 25 5 29 6 4 0 19 -4 34 -9z m201 -1
c32 -12 43 -26 43 -56 0 -31 -45 -33 -53 -3 -7 26 -47 27 -47 1 0 -12 12 -23
33 -31 74 -30 97 -83 58 -131 -40 -50 -151 -22 -151 38 0 31 42 32 62 1 9 -14
20 -19 31 -15 31 12 18 37 -28 57 -75 32 -87 107 -22 135 39 17 39 17 74 4z
m197 -3 c31 -13 53 -55 38 -71 -14 -14 -50 -3 -55 16 -4 13 -12 20 -24 17 -29
-5 -21 -32 15 -50 73 -36 92 -81 53 -129 -15 -19 -29 -24 -66 -24 -37 0 -51 5
-66 24 -29 36 -25 61 10 61 21 0 30 -6 34 -21 7 -25 40 -22 45 3 2 12 -11 24
-43 39 -74 35 -85 107 -21 135 39 17 40 17 80 0z m205 3 c17 -6 36 -19 41 -29
6 -10 10 -62 10 -115 l0 -97 -32 3 c-18 1 -48 -1 -66 -5 -50 -12 -82 13 -82
64 0 44 20 64 83 81 28 7 37 15 35 27 -5 25 -45 27 -58 3 -11 -22 -44 -28 -55
-10 -13 21 5 57 37 72 40 20 46 20 87 6z m319 -22 c16 -15 22 -32 22 -64 l0
-43 -61 0 c-60 0 -60 0 -57 -27 3 -32 44 -46 54 -19 9 23 64 21 64 -2 0 -69
-107 -94 -163 -37 -23 23 -24 151 -1 183 32 46 97 50 142 9z m1000 -3 c18 -21
22 -36 22 -98 0 -58 -4 -76 -20 -94 -43 -45 -130 -36 -157 18 -16 32 -17 121
-1 156 26 56 112 66 156 18z m240 8 c8 -10 12 -52 12 -119 l0 -103 -30 0 -30
0 0 90 c0 99 -12 119 -50 85 -17 -15 -20 -31 -20 -97 l0 -78 -30 0 -30 0 0
120 0 120 29 0 c16 0 31 -5 33 -11 2 -6 14 -5 33 5 33 17 63 13 83 -12z m530
-8 c15 -17 22 -38 22 -65 l0 -39 -61 0 c-60 0 -60 0 -57 -27 3 -32 44 -46 54
-19 4 10 18 16 35 16 35 0 40 -29 9 -60 -27 -27 -63 -34 -105 -20 -46 15 -55
34 -55 123 0 64 3 76 23 94 12 11 29 23 37 26 28 11 75 -3 98 -29z m539 12 c7
-6 13 -53 15 -116 l3 -105 -32 -3 -33 -3 0 91 c0 72 -3 92 -15 96 -33 13 -45
-15 -45 -102 l0 -84 -35 0 -35 0 0 120 0 120 35 0 c19 0 35 -4 35 -9 0 -6 12
-3 28 4 28 15 58 12 79 -9z m221 -12 c19 -22 22 -36 22 -120 l0 -95 -42 1
c-24 1 -54 -1 -68 -5 -35 -9 -80 27 -80 64 0 39 19 60 70 75 33 10 46 19 48
35 4 28 -31 29 -51 0 -22 -30 -63 -23 -59 11 10 70 109 91 160 34z m391 25
c36 -13 61 -53 61 -99 l0 -30 -59 0 c-65 0 -73 -5 -64 -38 6 -26 53 -32 53 -7
0 11 11 15 36 15 32 0 35 -2 29 -22 -13 -43 -42 -63 -90 -63 -64 0 -87 27 -93
105 -5 75 11 118 52 136 38 16 36 16 75 3z m204 -3 c15 -8 27 -11 27 -5 0 5
14 9 30 9 l30 0 0 -149 c0 -134 -2 -151 -20 -174 -41 -52 -147 -44 -170 13 -7
16 -9 34 -5 39 10 18 44 12 57 -9 26 -41 78 -15 78 40 0 17 -3 19 -19 10 -36
-19 -78 -12 -100 16 -16 21 -21 41 -21 90 0 72 13 107 44 122 29 14 37 14 69
-2z m285 -22 c19 -22 22 -36 22 -120 l0 -95 -42 1 c-24 1 -54 -1 -68 -5 -34
-9 -80 27 -80 61 0 42 17 62 70 79 37 12 50 22 50 36 0 26 -36 25 -50 -1 -11
-20 -54 -28 -64 -12 -10 16 29 76 54 84 40 11 83 0 108 -28z m-3048 -94 l0
-120 -35 0 -35 0 0 113 c0 63 3 117 7 120 3 4 19 7 35 7 l28 0 0 -120z m2280
63 c19 -91 25 -93 45 -14 17 70 18 71 50 71 l33 0 -24 -82 c-79 -281 -76 -273
-113 -276 -28 -3 -33 -1 -27 14 29 76 29 101 -4 209 -17 59 -34 113 -37 121
-4 10 4 14 29 14 34 0 35 -1 48 -57z m-3666 -3549 c10 -26 7 -122 -4 -129 -7
-4 -7 -13 0 -24 6 -12 5 -22 -2 -29 -7 -7 -8 -12 -2 -12 14 0 19 -140 18 -500
l0 -325 -91 -3 c-79 -2 -91 0 -98 15 -4 10 -9 174 -12 365 -6 375 -6 377 46
379 22 1 21 3 -9 9 -33 7 -34 8 -11 15 l25 8 -23 9 c-28 10 -18 28 17 29 20 1
22 2 7 6 -46 10 -51 15 -25 25 l25 10 -27 10 c-26 9 -28 13 -28 68 0 81 11 90
110 90 62 0 79 -3 84 -16z m-1024 -654 c0 -192 -4 -351 -8 -354 -5 -3 -21 2
-36 10 -16 7 -39 14 -52 14 l-24 0 0 328 c0 180 4 332 8 339 7 11 87 22 105
15 4 -2 7 -160 7 -352z m1590 -814 c0 -47 -3 -87 -8 -90 -4 -2 -62 -2 -130 1
l-122 6 0 58 c0 76 6 89 41 89 16 0 29 4 29 9 0 5 43 9 95 10 l95 2 0 -85z
m213 72 c2 -7 2 -84 -1 -170 l-5 -158 -46 0 c-25 0 -70 3 -98 6 l-53 7 0 138
c0 83 5 148 12 164 11 24 15 25 99 25 60 0 88 -4 92 -12z m-244 -315 l24 -6
-8 -126 c-4 -69 -10 -130 -15 -136 -5 -6 -54 -8 -127 -5 l-118 5 -3 129 c-2
97 1 131 10 138 15 9 202 11 237 1z m4655 -803 c19 -19 24 -225 25 -949 1
-409 4 -748 7 -753 4 -6 0 -14 -7 -19 -17 -11 -381 -10 -399 1 -18 11 -18 673
1 780 15 85 16 143 5 215 l-8 51 41 27 c22 15 52 27 65 27 43 0 38 17 -8 29
-75 18 -119 108 -76 153 18 19 20 29 14 63 -8 38 -9 93 -4 200 1 28 -1 75 -5
106 -7 56 -7 57 21 71 22 11 63 13 174 10 80 -2 149 -8 154 -12z m-5183 -110
c7 -50 2 -73 -14 -79 -16 -6 -15 -9 9 -20 23 -10 25 -14 13 -25 -36 -33 -80
-36 -625 -36 l-544 0 0 78 c0 43 3 82 7 85 11 12 1153 8 1154 -3z m836 -72
c14 -23 16 -497 3 -513 -9 -11 -34 -15 -90 -15 -90 0 -133 12 -154 45 -21 31
-38 299 -25 391 13 97 24 104 155 104 71 0 105 -4 111 -12z m-819 -430 l-3
-143 -73 -3 -73 -3 2 146 2 145 74 0 74 0 -3 -142z m-360 -288 c-3 -93 -4
-100 -23 -100 -11 1 -30 9 -42 19 -20 17 -23 29 -23 90 0 77 9 90 63 91 l29 0
-4 -100z m366 24 c8 -59 6 -391 -2 -546 -5 -88 -4 -118 6 -125 11 -7 17 -70
13 -150 l-1 -33 -600 0 -600 0 0 90 0 90 223 -5 c336 -9 477 -9 645 1 l153 9
-1 296 c-1 333 4 406 29 412 9 3 41 5 72 6 l56 1 7 -46z m224 -26 c13 -13 17
-200 6 -256 -7 -36 -38 -48 -71 -27 -12 8 -28 15 -36 15 -8 0 -19 17 -25 38
-13 42 -18 204 -8 221 10 16 37 14 57 -5 16 -14 18 -14 29 5 12 24 30 27 48 9z
m3594 -128 c4 -63 5 -121 3 -129 -7 -18 -124 -9 -136 11 -15 22 -10 34 19 49
31 15 62 44 62 57 0 4 -16 23 -35 42 -19 19 -35 40 -35 47 0 18 58 43 90 40
25 -2 25 -4 32 -117z m-2988 -127 c3 -10 6 -139 8 -286 3 -229 1 -269 -12
-278 -17 -11 -274 -8 -286 3 -3 4 -7 117 -7 250 -1 253 7 312 41 321 9 3 70 5
134 6 103 1 117 -1 122 -16z m2995 -388 l2 -175 -53 0 -53 0 -1 48 c0 26 -6
72 -13 102 -20 89 -24 130 -13 130 6 0 12 12 14 27 3 29 26 40 84 42 l32 1 1
-175z"/>
<path d="M6613 9773 c-20 -4 -23 -11 -23 -51 l0 -47 85 0 85 0 0 46 c0 40 -3
48 -22 53 -25 6 -90 6 -125 -1z"/>
<path d="M3166 6708 c-16 -25 -96 -299 -96 -330 0 -43 19 -2 56 121 21 72 42
131 45 131 3 0 9 -22 12 -49 9 -74 31 -111 67 -111 24 0 35 10 67 56 21 30 43
63 49 72 9 12 11 -15 6 -116 -4 -114 -3 -132 10 -132 20 0 31 41 23 83 -3 18
-1 72 4 122 16 137 -11 140 -101 15 -32 -44 -61 -80 -66 -80 -16 0 -32 76 -32
147 0 82 -18 111 -44 71z"/>
<path d="M4677 6563 c-4 -3 -7 -46 -7 -95 0 -72 3 -88 15 -88 10 0 15 11 15
35 0 33 2 35 34 35 32 0 35 -3 38 -32 2 -22 9 -34 21 -36 15 -3 17 6 17 87 0
84 -1 91 -20 91 -16 0 -20 -7 -20 -36 0 -34 -1 -35 -32 -32 -28 3 -33 7 -36
33 -4 33 -14 49 -25 38z"/>
<path d="M4012 6473 l3 -88 42 -3 c56 -4 83 11 83 47 0 16 -7 34 -15 41 -9 7
-13 21 -10 31 12 36 -12 59 -61 59 l-45 0 3 -87z"/>
<path d="M4170 6469 c0 -80 2 -90 17 -87 12 2 17 13 18 33 0 26 4 30 32 33 29
3 32 1 35 -30 2 -22 9 -34 21 -36 15 -3 17 6 17 87 0 84 -1 91 -20 91 -16 0
-20 -7 -20 -36 0 -34 -1 -35 -32 -32 -29 3 -33 7 -36 36 -2 20 -9 32 -18 32
-11 0 -14 -19 -14 -91z"/>
<path d="M3490 6478 c-47 -32 -56 -51 -42 -83 12 -26 12 -26 117 -23 l105 3 0
30 c0 35 28 78 37 57 9 -24 64 -44 99 -37 29 5 34 3 34 -13 0 -11 7 -25 15
-32 13 -11 15 -9 15 13 0 13 3 39 6 56 8 37 -12 43 -39 11 -24 -28 -71 -26
-95 5 -15 19 -27 24 -61 22 l-41 -1 0 -42 c0 -47 -1 -48 -86 -59 -41 -5 -55
-3 -68 10 -23 24 -16 37 25 48 19 5 41 15 49 23 13 13 13 16 0 24 -22 14 -34
12 -70 -12z"/>
<path d="M3530 6223 c-18 -32 -39 -68 -47 -80 -12 -20 -22 -23 -74 -23 -54 0
-60 2 -54 18 11 26 35 104 35 114 0 26 -21 -1 -49 -62 -34 -77 -52 -90 -122
-90 -37 0 -48 -8 -32 -24 4 -4 8 -33 8 -64 0 -55 1 -57 27 -60 24 -3 33 5 67
60 60 95 63 98 126 98 30 0 55 -1 55 -2 0 -2 -7 -28 -15 -58 -24 -90 -16 -101
14 -20 19 49 35 76 46 79 13 2 14 5 6 11 -13 8 10 65 50 122 22 31 23 38 6 38
-7 0 -28 -26 -47 -57z"/>
<path d="M4045 6245 c-5 -2 -45 -7 -89 -10 -55 -5 -75 -10 -67 -18 7 -7 51 -7
148 0 152 11 269 3 326 -21 35 -14 37 -17 26 -38 -18 -33 -34 -45 -125 -88
-91 -43 -191 -73 -199 -59 -4 5 -1 45 5 90 11 82 8 121 -10 103 -16 -16 -33
-157 -27 -241 l5 -83 -48 0 c-59 0 -77 -7 -91 -32 -9 -17 -8 -18 10 -9 26 14
138 14 147 0 4 -8 9 -8 17 0 7 7 53 11 115 11 105 0 184 13 201 34 29 36 -69
103 -165 114 -24 2 -44 8 -44 12 0 4 33 19 73 34 76 28 143 69 161 99 22 35
-32 82 -113 97 -50 9 -233 13 -256 5z m197 -276 c29 -6 70 -20 91 -30 70 -36
40 -56 -88 -59 -49 -1 -109 -2 -132 -1 l-43 1 0 50 0 50 60 0 c32 0 83 -5 112
-11z"/>
<path d="M4855 6151 c-5 -10 -24 -139 -25 -173 0 -14 -8 -18 -33 -18 -41 0
-73 -22 -81 -55 -5 -20 -12 -25 -40 -25 -41 0 -61 22 -58 62 2 25 -1 29 -14
24 -10 -4 -21 -1 -25 6 -15 24 -77 14 -109 -17 -36 -35 -46 -65 -30 -94 15
-30 49 -26 98 10 42 31 43 31 63 13 14 -12 38 -19 71 -20 27 -1 52 -5 55 -8
15 -14 55 -4 75 19 l22 25 19 -21 c17 -18 28 -21 73 -16 40 4 56 2 65 -10 18
-21 66 -9 101 24 27 26 28 26 49 7 14 -12 37 -19 71 -20 27 -1 52 -5 55 -8 10
-10 81 -7 88 3 3 5 -9 11 -27 13 l-33 3 3 143 c2 113 0 143 -10 140 -16 -6
-25 -59 -32 -180 l-5 -93 -31 -3 c-44 -5 -63 14 -57 56 5 27 3 33 -11 30 -9
-1 -27 3 -39 10 -44 24 -104 -6 -130 -65 -12 -29 -18 -33 -53 -33 -21 0 -42 5
-46 11 -8 13 -7 116 2 207 4 41 3 62 -4 62 -6 0 -13 -4 -17 -9z"/>
<path d="M4820 5530 c-24 -15 1 -19 145 -22 110 -3 138 -7 183 -27 81 -36 100
-79 68 -156 -25 -60 -145 -127 -253 -142 l-45 -6 6 44 c3 24 8 88 12 142 6 93
5 99 -12 95 -24 -4 -37 -99 -32 -235 3 -90 11 -120 27 -95 4 7 38 19 75 27 37
8 93 26 124 40 110 50 152 99 152 174 0 54 -49 109 -117 134 -82 29 -301 47
-333 27z"/>
</g>
</svg>
