<?xml version="1.0" standalone="no"?>
<!DOCTYPE svg PUBLIC "-//W3C//DTD SVG 20010904//EN"
 "http://www.w3.org/TR/2001/REC-SVG-20010904/DTD/svg10.dtd">
<svg version="1.0" xmlns="http://www.w3.org/2000/svg"
 width="720.000000pt" height="1280.000000pt" viewBox="0 0 720.000000 1280.000000"
 preserveAspectRatio="xMidYMid meet">
<metadata>
Created by potrace 1.16, written by Peter Selinger 2001-2019
</metadata>
<g transform="translate(0.000000,1280.000000) scale(0.100000,-0.100000)"
fill="#000000" stroke="none">
<path d="M0 6400 l0 -6400 3600 0 3600 0 0 1025 0 1025 -2157 2 c-1910 3
-2158 5 -2159 18 -1 8 -2 20 -3 27 -2 28 -39 34 -78 13 -49 -26 -61 -25 -73 6
-14 37 -12 76 6 102 8 12 13 22 9 22 -3 0 2 11 11 25 15 22 15 27 -1 57 -141
270 -147 291 -100 333 56 50 59 105 10 169 -41 54 -45 89 -11 111 23 15 29 14
105 -15 51 -20 81 -37 81 -46 0 -8 7 -29 16 -45 13 -26 20 -30 52 -27 44 4 53
29 28 80 -20 39 -20 47 0 87 32 65 90 76 154 31 15 -11 39 -20 53 -20 31 0 67
31 67 59 0 23 23 63 52 93 9 9 14 25 11 36 -5 21 -23 28 -108 42 -28 4 -76 20
-108 34 -55 24 -58 27 -55 58 3 29 10 36 58 59 62 30 75 42 85 81 9 37 -13 45
-65 24 -28 -11 -73 -16 -148 -16 -59 0 -112 -4 -118 -8 -17 -11 -30 -42 -49
-116 -9 -38 -22 -81 -28 -95 -5 -14 -10 -29 -9 -33 1 -3 -18 -14 -41 -23 -23
-9 -65 -37 -94 -61 -28 -24 -61 -44 -73 -44 -13 0 -42 18 -66 40 -64 59 -93
56 -135 -14 -18 -30 -42 -59 -53 -64 -26 -13 -59 -25 -68 -26 -13 -2 -25 -21
-36 -62 -6 -22 -22 -50 -34 -61 -65 -59 -168 -82 -201 -45 -23 25 -21 39 13
97 16 28 30 62 30 76 0 14 -17 52 -38 85 -21 32 -41 70 -45 84 -7 29 10 97 31
122 13 15 12 24 -8 70 -27 68 -19 95 36 114 29 10 49 11 78 3 46 -12 80 -5
121 25 38 29 94 56 114 56 10 0 12 3 5 8 -6 4 -21 28 -32 55 -28 64 -39 73
-109 91 -63 16 -88 13 -152 -19 -25 -13 -46 -16 -84 -11 -46 5 -56 11 -102 62
l-50 56 -91 1 c-64 2 -96 6 -109 17 -26 21 -202 31 -281 16 -37 -7 -44 -6 -68
20 -16 18 -26 40 -26 58 0 37 37 116 55 116 7 0 20 3 28 6 8 3 22 -3 32 -12
16 -17 43 -20 110 -14 34 3 76 -6 84 -17 3 -5 15 -13 25 -19 11 -5 21 -19 22
-29 4 -26 35 -48 48 -35 7 7 7 16 -1 28 -11 19 -10 53 2 92 11 34 54 67 111
85 61 19 98 12 122 -22 40 -59 96 -113 116 -113 18 0 65 16 221 78 22 9 72 47
112 85 39 38 75 69 80 69 12 1 43 72 35 80 -4 4 -25 9 -46 12 -21 3 -39 6 -40
8 -1 2 -11 21 -21 43 -35 71 -36 72 -175 70 -78 -1 -134 -6 -148 -14 -12 -7
-31 -9 -41 -6 -18 5 -46 39 -49 58 -1 4 -8 20 -17 37 l-15 29 -58 -31 c-94
-51 -104 -67 -90 -153 3 -17 -3 -20 -34 -21 -25 0 -55 -12 -94 -38 -54 -36
-59 -37 -114 -31 -78 9 -100 -3 -100 -55 0 -21 4 -50 10 -65 12 -32 -6 -67
-32 -60 -9 3 -19 1 -23 -5 -7 -12 -26 -14 -24 -2 1 4 1 27 0 50 l-1 44 -57 -6
c-114 -12 -135 -12 -144 4 -4 8 -20 41 -35 72 -15 31 -32 59 -39 62 -7 2 -35
-11 -63 -30 -28 -19 -54 -34 -57 -34 -25 0 -101 -49 -159 -102 -64 -58 -68
-66 -68 -104 0 -22 10 -64 21 -94 11 -29 23 -72 27 -95 5 -37 2 -46 -25 -77
-56 -65 -94 -185 -71 -228 10 -19 18 -21 51 -16 29 5 51 1 81 -14 23 -11 58
-20 78 -20 19 0 46 -7 59 -17 22 -15 23 -20 18 -87 -4 -39 -11 -85 -17 -103
-20 -55 -97 -75 -162 -41 -16 8 -58 87 -58 112 -1 6 -11 23 -23 38 -18 22 -33
28 -82 33 -77 8 -102 25 -111 72 -3 21 -27 82 -53 135 -41 87 -50 99 -84 113
-20 8 -45 15 -55 16 -18 0 -40 13 -116 66 -52 36 -62 39 -69 21 -3 -7 -6 16
-6 52 0 36 3 60 7 53 9 -15 52 -6 52 11 0 7 -11 27 -25 45 -19 26 -22 38 -14
52 5 11 14 19 19 19 6 0 10 6 10 13 0 7 23 30 51 52 33 27 58 57 74 90 27 61
43 75 104 95 50 16 57 30 47 85 -8 42 -48 82 -98 97 -60 18 -77 46 -71 117 4
39 2 61 -6 66 -12 7 -71 -12 -71 -24 0 -3 -4 -12 -9 -19 -7 -12 -13 -11 -38 2
-23 11 -32 24 -37 53 -3 21 -6 1052 -6 2291 l0 2252 3590 0 3590 0 0 1775 0
1775 -3600 0 -3600 0 0 -6400z m6787 3681 c158 -62 210 -264 104 -406 -25 -34
-27 -41 -14 -50 13 -10 13 -15 2 -33 -26 -42 -91 -54 -143 -27 -24 13 -38 13
-90 3 -108 -20 -145 -17 -172 17 -22 28 -23 31 -7 42 15 12 15 15 -5 35 -37
40 -62 109 -62 172 0 78 16 128 58 176 78 92 206 120 329 71z m-644 3 c52 -18
116 -76 142 -130 57 -121 8 -276 -107 -339 -77 -42 -185 -47 -259 -13 -105 49
-153 125 -153 244 1 152 105 252 265 253 36 1 86 -6 112 -15z m-5834 -111 c15
-56 71 -300 71 -307 0 -3 -16 -6 -35 -6 -30 0 -35 3 -35 24 0 33 -20 46 -62
40 -30 -5 -37 -11 -42 -35 -5 -25 -10 -29 -40 -29 l-34 0 14 58 c7 31 25 110
40 175 l28 117 42 0 c41 0 44 -2 53 -37z m401 -55 l1 -93 30 38 c23 27 39 37
60 37 16 0 29 -3 29 -6 0 -4 -16 -27 -35 -53 l-34 -47 21 -35 c11 -19 29 -49
40 -66 l20 -33 -36 0 c-30 0 -38 5 -57 40 -26 45 -39 43 -39 -6 0 -31 -2 -34
-30 -34 l-30 0 0 175 0 175 30 0 30 0 0 -92z m1740 -83 l0 -176 -42 1 c-24 1
-55 -1 -69 -5 -19 -5 -33 -1 -55 18 -28 24 -29 29 -28 107 1 68 4 85 21 102
22 21 54 27 91 14 21 -7 22 -5 22 53 l0 61 30 0 30 0 0 -175z m452 83 l3 -92
25 37 c20 30 31 37 58 37 30 0 42 -12 24 -24 -5 -3 -21 -23 -36 -44 l-27 -40
41 -66 41 -67 -38 3 c-32 3 -41 9 -58 40 -26 49 -35 48 -35 -2 0 -39 -1 -40
-35 -40 l-35 0 0 175 0 175 35 0 34 0 3 -92z m728 27 l0 -66 30 16 c33 17 60
13 85 -11 11 -12 15 -40 15 -120 l0 -104 -30 0 -30 0 0 90 c0 75 -3 92 -16 97
-37 14 -49 -10 -52 -101 l-3 -86 -29 0 -30 0 0 175 0 175 30 0 30 0 0 -65z
m530 4 c0 -55 2 -60 18 -53 32 14 75 7 94 -16 14 -17 18 -40 18 -102 0 -71 -2
-81 -26 -105 -20 -20 -31 -24 -52 -18 -15 4 -46 6 -69 5 l-43 -1 0 176 0 175
30 0 30 0 0 -61z m-1480 -9 c0 -38 2 -40 30 -40 25 0 30 -4 30 -25 0 -21 -5
-25 -30 -25 l-31 0 3 -67 c3 -66 4 -68 31 -71 21 -3 27 -8 23 -19 -3 -8 -6
-19 -6 -24 0 -16 -73 -10 -92 8 -14 13 -18 31 -18 90 0 66 -2 75 -20 80 -13 3
-20 14 -20 29 0 17 6 24 20 24 17 0 20 7 20 40 0 38 2 40 30 40 28 0 30 -2 30
-40z m-2095 -61 c17 -16 20 -33 20 -100 0 -77 -1 -82 -29 -106 -28 -24 -47
-26 -88 -8 -16 6 -18 0 -18 -59 l0 -66 -30 0 -30 0 0 181 0 182 38 -5 c20 -3
46 -2 57 3 26 10 55 2 80 -22z m438 -1 c14 -16 17 -39 17 -120 l0 -100 -32 3
c-18 1 -48 -1 -66 -5 -50 -12 -82 13 -82 64 0 44 20 64 83 81 28 7 37 15 35
27 -5 26 -48 28 -55 3 -6 -25 -51 -29 -60 -5 -8 21 27 67 58 75 36 11 82 0
102 -23z m253 22 c39 -15 53 -39 54 -87 l0 -43 -61 0 c-60 0 -60 0 -57 -27 3
-32 44 -46 54 -19 9 23 64 21 64 -2 0 -51 -67 -84 -124 -62 -45 17 -55 38 -56
116 0 78 20 119 63 127 12 2 25 5 29 6 4 0 19 -4 34 -9z m201 -1 c32 -12 43
-26 43 -56 0 -31 -45 -33 -53 -3 -7 26 -47 27 -47 1 0 -12 12 -23 33 -31 74
-30 97 -83 58 -131 -40 -50 -151 -22 -151 38 0 19 5 23 30 23 24 0 30 -4 30
-21 0 -15 5 -20 22 -17 41 6 32 33 -19 59 -91 46 -80 134 19 148 4 1 19 -4 35
-10z m197 -3 c31 -13 53 -55 38 -71 -14 -14 -50 -3 -55 16 -4 13 -12 20 -24
17 -29 -5 -21 -32 15 -50 73 -36 92 -81 53 -129 -15 -19 -29 -24 -66 -24 -37
0 -51 5 -66 24 -29 36 -25 61 10 61 21 0 30 -6 34 -21 7 -25 40 -22 45 3 2 12
-11 24 -43 39 -74 35 -85 107 -21 135 39 17 40 17 80 0z m205 3 c17 -6 36 -19
41 -29 6 -10 10 -62 10 -115 l0 -96 -37 1 c-21 1 -50 -2 -65 -6 -45 -10 -78
18 -78 66 0 44 20 64 83 81 28 7 37 15 35 27 -5 25 -45 27 -58 3 -6 -13 -21
-21 -35 -21 -62 0 -3 95 61 99 6 1 25 -4 43 -10z m318 -21 c17 -16 23 -33 23
-65 l0 -43 -61 0 c-60 0 -60 0 -57 -27 3 -32 44 -46 54 -19 8 20 64 22 64 2 0
-69 -102 -98 -158 -45 -19 17 -22 31 -22 98 0 68 3 80 23 98 12 11 29 23 37
26 25 10 73 -2 97 -25z m1001 -4 c18 -21 22 -36 22 -98 0 -77 -15 -107 -61
-121 -31 -10 -84 3 -105 26 -23 26 -31 127 -13 170 24 60 111 73 157 23z m240
8 c8 -10 12 -52 12 -119 l0 -103 -30 0 -30 0 0 90 c0 75 -3 92 -17 97 -32 12
-53 -32 -53 -113 l0 -74 -30 0 -30 0 0 120 0 120 29 0 c16 0 31 -5 33 -11 2
-6 14 -5 33 5 33 17 63 13 83 -12z m529 -4 c17 -16 23 -33 23 -65 l0 -43 -61
0 c-60 0 -60 0 -57 -27 3 -32 44 -46 54 -19 4 10 18 16 35 16 22 0 29 -5 29
-20 0 -42 -64 -79 -115 -66 -52 13 -65 39 -65 124 0 69 3 81 23 99 12 11 29
23 37 26 25 10 73 -2 97 -25z m540 8 c7 -6 13 -53 15 -116 l3 -105 -32 -3 -33
-3 0 91 c0 72 -3 92 -15 96 -33 13 -45 -15 -45 -102 l0 -84 -35 0 -35 0 0 120
0 120 35 0 c19 0 35 -4 35 -9 0 -6 12 -3 28 4 28 15 58 12 79 -9z m218 -7 c17
-16 21 -36 23 -120 l4 -100 -44 1 c-23 1 -54 -1 -68 -5 -35 -9 -80 27 -80 64
0 39 19 60 70 75 33 10 46 19 48 35 3 17 -2 21 -22 21 -16 0 -27 -7 -31 -20
-4 -12 -15 -20 -29 -20 -32 0 -36 7 -24 42 20 56 108 72 153 27z m394 20 c36
-13 61 -53 61 -99 l0 -30 -59 0 c-65 0 -73 -5 -64 -38 6 -26 53 -32 53 -7 0
11 11 15 36 15 32 0 35 -2 29 -22 -4 -13 -18 -34 -33 -47 -21 -19 -33 -22 -65
-18 -59 8 -80 35 -85 107 -5 75 11 118 52 136 38 16 36 16 75 3z m204 -3 c15
-8 27 -11 27 -5 0 5 14 9 31 9 l30 0 -3 -155 c-3 -145 -4 -156 -26 -177 -17
-18 -34 -23 -73 -23 -43 0 -54 4 -75 29 -14 15 -24 36 -22 45 5 25 45 26 60 2
26 -42 78 -16 78 39 0 17 -3 19 -19 10 -36 -19 -78 -12 -100 16 -17 21 -21 41
-21 93 0 92 16 118 80 130 3 0 17 -6 33 -13z m285 -22 c19 -22 22 -36 22 -120
l0 -95 -42 1 c-24 1 -54 -1 -68 -5 -35 -9 -80 27 -80 64 0 39 19 60 70 75 33
10 46 19 48 35 4 28 -31 29 -51 0 -22 -30 -63 -23 -59 11 10 70 109 91 160 34z
m-3048 -94 l0 -120 -35 0 -35 0 0 113 c0 63 3 117 7 120 3 4 19 7 35 7 l28 0
0 -120z m2280 63 c19 -91 25 -93 45 -14 17 70 18 71 50 71 l33 0 -24 -82 c-79
-281 -76 -273 -112 -276 -29 -3 -33 -1 -29 15 30 103 30 93 -2 206 -17 58 -34
113 -37 122 -5 12 2 15 28 15 34 0 35 -1 48 -57z m-3280 -6387 c53 -36 52 -70
-3 -121 -32 -29 -46 -51 -51 -80 -4 -22 -21 -67 -37 -101 -30 -60 -30 -61 -14
-108 27 -79 -1 -158 -62 -175 -52 -15 -84 3 -103 57 l-15 44 43 36 c27 23 42
45 42 60 0 12 -4 22 -9 22 -6 0 -25 14 -43 30 -29 26 -33 36 -32 78 0 26 4 63
8 83 7 29 4 42 -18 74 -23 34 -25 40 -12 54 9 10 33 17 55 18 21 1 70 13 108
26 87 32 101 32 143 3z m-1462 -245 c64 -24 77 -34 108 -83 13 -20 32 -39 43
-43 10 -3 27 -17 36 -32 16 -24 16 -26 -3 -45 -16 -16 -23 -18 -40 -9 -36 19
-73 12 -121 -23 -55 -40 -87 -50 -95 -29 -8 21 -7 268 1 276 9 10 12 9 71 -12z
m688 -156 c20 -31 31 -105 15 -105 -6 0 -11 -8 -11 -19 0 -33 51 -34 134 -1
88 35 96 36 96 10 0 -11 5 -20 12 -20 7 0 5 -6 -4 -17 -35 -40 -48 -82 -48
-158 0 -56 -5 -86 -20 -115 l-20 -39 38 -16 c20 -9 51 -23 67 -31 17 -8 51
-21 75 -28 39 -11 45 -17 48 -43 4 -38 -16 -54 -71 -60 -26 -3 -62 -18 -94
-40 l-52 -36 -61 17 -61 17 -64 -41 c-35 -23 -69 -48 -76 -56 -6 -8 -18 -14
-25 -14 -18 0 -119 67 -154 102 -15 15 -53 34 -84 43 -56 16 -59 16 -117 -5
-111 -42 -149 -4 -149 150 1 56 6 104 13 116 15 27 116 118 139 127 11 4 37
-5 67 -24 41 -26 53 -29 70 -20 12 7 21 22 21 34 0 38 58 257 72 271 22 21 39
24 135 25 88 1 93 0 109 -24z m1116 -530 c40 -19 82 -42 92 -50 19 -14 19 -15
1 -34 -25 -29 -74 -43 -110 -32 -24 7 -120 48 -133 56 -1 1 -4 16 -7 34 -3 23
2 35 18 46 32 22 59 19 139 -20z m-106 -160 c25 -10 40 -26 54 -57 30 -65 26
-84 -27 -138 -63 -62 -80 -70 -156 -70 l-65 0 -19 39 c-12 24 -18 52 -15 70 4
31 5 31 63 31 32 0 61 5 64 11 4 6 7 27 7 47 -1 28 6 42 26 59 32 27 25 26 68
8z m389 -114 c60 -27 75 -46 75 -96 0 -24 -5 -47 -10 -50 -6 -4 -8 -15 -5 -26
5 -13 2 -19 -10 -19 -9 0 -15 6 -13 13 1 6 -21 35 -49 62 -51 50 -71 90 -59
120 7 19 22 19 71 -4z"/>
<path d="M6613 9773 c-20 -4 -23 -11 -23 -51 l0 -47 85 0 85 0 0 46 c0 40 -3
48 -22 53 -25 6 -90 6 -125 -1z"/>
<path d="M1978 7724 c2 -101 -1 -150 -9 -160 -10 -12 -4 -14 31 -14 37 0 41 2
34 18 -10 19 -12 143 -4 238 l5 64 -30 0 -30 0 3 -146z"/>
<path d="M4153 7816 c-21 -33 -24 -34 -53 -23 -22 8 -35 9 -48 1 -20 -13 -28
-52 -13 -67 8 -8 11 -5 11 9 0 11 5 25 12 32 15 15 58 16 58 1 0 -5 -27 -58
-60 -117 -56 -101 -72 -141 -51 -128 12 8 90 128 115 179 21 40 31 46 40 21
11 -29 6 -74 -14 -135 -20 -58 -20 -84 -1 -63 5 5 26 43 47 84 47 92 78 142
122 198 27 34 30 42 16 42 -24 0 -75 -58 -110 -125 -30 -57 -44 -69 -44 -35 0
10 -5 30 -11 44 -9 19 -8 34 4 70 19 54 11 59 -20 12z"/>
<path d="M2767 7204 c-26 -14 -45 -29 -41 -35 3 -6 12 -8 20 -5 8 3 14 1 14
-4 0 -6 -6 -10 -13 -10 -7 0 -18 -9 -25 -20 -7 -12 -17 -18 -23 -14 -6 3 -31
-15 -56 -41 -25 -26 -39 -44 -33 -40 10 6 11 1 6 -19 -3 -14 -2 -26 3 -26 4 0
11 -13 14 -29 7 -32 87 -131 87 -107 0 8 -4 18 -10 21 -15 9 -12 35 5 41 8 3
26 -4 41 -15 21 -16 30 -18 40 -10 8 6 14 18 14 25 0 8 5 14 10 14 6 0 10 9
10 20 0 11 7 20 15 20 8 0 15 9 15 19 0 24 39 39 52 20 5 -8 7 -31 6 -51 -3
-29 0 -38 12 -38 9 0 21 5 28 12 9 9 12 9 12 -2 0 -22 48 53 51 81 5 42 -21
117 -48 134 -15 10 -22 22 -19 31 3 9 2 12 -5 9 -17 -11 -99 18 -99 34 0 11
-4 10 -14 -5 -9 -12 -11 -21 -4 -25 7 -4 6 -9 -1 -13 -6 -4 -11 -2 -11 4 0 7
-7 10 -15 6 -20 -7 -19 3 2 26 20 23 18 22 -40 -8z"/>
<path d="M4085 7041 c-6 -5 -28 -14 -50 -21 -57 -18 -95 -48 -111 -86 -13 -31
-50 -62 -61 -51 -2 3 3 17 12 31 10 14 15 26 11 26 -3 0 -17 -17 -31 -38 -22
-34 -24 -42 -14 -70 15 -45 32 -41 23 6 l-7 37 26 -25 c15 -14 27 -30 27 -36
0 -7 21 -28 46 -49 42 -35 45 -41 43 -79 -3 -49 9 -50 50 -3 17 18 26 36 21
42 -5 6 0 21 12 34 16 20 21 22 28 11 6 -10 3 -23 -7 -39 -13 -21 -14 -26 -2
-30 8 -2 26 -16 41 -31 28 -28 48 -29 25 -2 -10 13 -9 14 9 8 17 -5 24 1 40
29 22 41 39 46 30 10 -4 -15 -2 -25 4 -25 7 0 9 -8 5 -20 -8 -26 12 -26 45 0
14 11 28 20 33 20 16 0 5 -43 -17 -65 -28 -28 -20 -41 12 -19 12 8 27 34 33
57 18 62 30 74 45 45 18 -31 18 -4 0 30 -19 37 -58 71 -114 102 -39 21 -53 36
-79 90 -31 61 -84 120 -108 120 -6 0 -15 -4 -20 -9z"/>
<path d="M2953 6802 c-20 -47 -22 -49 -54 -44 -19 2 -40 9 -47 15 -7 5 -15 7
-19 4 -3 -4 2 -9 11 -13 9 -3 16 -15 16 -27 0 -19 1 -19 18 -4 26 24 34 10 15
-27 -27 -53 -43 -66 -85 -66 -60 0 -104 24 -140 75 l-33 46 -22 -28 c-13 -15
-23 -33 -23 -39 0 -6 -9 -19 -20 -29 -11 -10 -20 -22 -20 -27 0 -6 -14 -29
-31 -53 -27 -37 -31 -49 -25 -82 6 -35 5 -37 -9 -19 -8 11 -15 28 -15 37 0 25
-15 32 -30 14 -15 -19 -9 -325 8 -367 9 -21 8 -29 -4 -39 -9 -7 -22 -25 -30
-41 -8 -16 -19 -26 -24 -23 -5 3 -13 -2 -18 -11 -15 -26 35 -172 72 -211 29
-31 35 -33 98 -33 58 0 68 3 69 18 0 9 3 12 5 5 3 -7 11 -10 19 -7 16 7 31
-18 40 -69 4 -20 12 -37 17 -37 6 0 7 7 4 16 -13 35 -18 64 -9 64 5 0 17 23
28 51 l20 51 40 -9 c22 -4 79 -8 128 -8 l87 0 0 -33 c0 -50 -16 -72 -53 -73
-26 0 -28 -2 -12 -8 16 -7 8 -12 -42 -27 -54 -16 -60 -20 -52 -36 8 -15 14
-16 30 -8 11 6 24 8 29 5 5 -3 15 4 23 16 22 31 79 58 113 52 27 -4 28 -3 11
10 -15 12 -16 17 -5 24 7 4 22 19 33 33 l20 25 -20 -15 c-11 -8 -24 -21 -28
-27 -15 -24 -24 -13 -25 32 -1 33 3 45 13 45 8 0 44 27 80 61 93 88 107 155
50 241 -14 21 -25 45 -25 54 0 10 18 -11 40 -45 22 -34 40 -65 40 -70 0 -4 9
-16 20 -26 11 -10 20 -26 20 -35 0 -18 44 -62 73 -73 10 -4 17 -17 17 -32 0
-17 5 -25 18 -24 10 0 12 3 5 6 -7 2 -13 9 -13 14 0 5 6 9 13 9 6 0 29 16 49
35 l37 35 -16 32 c-26 52 -26 53 -64 110 -41 61 -109 195 -109 214 0 7 -8 19
-18 26 -13 9 -21 31 -25 73 -7 65 -64 248 -89 287 -11 16 -36 30 -77 41 -33 9
-65 17 -70 17 -4 0 -17 -22 -28 -48z"/>
<path d="M4393 6425 c3 -11 18 -58 33 -105 15 -47 27 -101 26 -120 -1 -27 4
-38 20 -45 48 -22 49 -69 1 -125 -22 -27 -25 -35 -15 -51 7 -11 15 -39 18 -63
6 -40 2 -50 -38 -112 -62 -95 -70 -101 -112 -79 -18 10 -55 37 -82 60 l-49 43
13 36 c7 20 11 40 8 45 -3 5 -30 14 -58 21 -70 16 -93 32 -128 87 -20 31 -48
57 -87 79 -32 18 -63 34 -68 34 -17 0 -48 -118 -41 -154 16 -79 15 -148 -2
-202 -11 -29 -16 -56 -13 -60 3 -3 6 -9 7 -12 5 -38 105 -102 159 -102 14 0
25 -3 25 -7 0 -14 53 -33 89 -34 20 0 45 -4 56 -8 12 -5 32 -3 50 4 17 7 64
24 105 37 54 17 74 28 71 38 -2 8 -5 29 -7 45 -3 27 -3 28 4 5 7 -22 19 -27
107 -47 55 -12 100 -21 101 -20 0 1 15 58 33 127 18 69 43 150 56 180 20 46
21 57 10 70 -7 8 -31 51 -54 95 -35 68 -41 89 -41 141 l0 60 -34 1 c-44 1 -91
24 -91 44 0 9 -18 38 -39 65 -21 27 -36 40 -33 29z"/>
<path d="M2950 5404 c0 -22 -7 -49 -15 -61 -10 -14 -12 -24 -5 -28 5 -3 10
-27 11 -53 0 -26 5 -56 10 -67 8 -17 8 -15 4 8 -4 22 -2 27 15 27 13 0 25 -12
35 -37 31 -73 98 -123 146 -108 15 5 19 16 19 54 0 40 -7 59 -47 119 -35 51
-50 67 -56 56 -4 -8 -21 -21 -37 -29 -24 -12 -34 -13 -49 -4 -15 10 -19 25
-20 83 -1 73 -11 108 -11 40z"/>
<path d="M3920 5411 c0 -6 -7 -11 -16 -11 -25 0 -15 -141 13 -178 57 -76 114
-5 98 123 -4 36 -11 55 -20 55 -7 0 -16 -6 -18 -12 -4 -9 -8 -9 -14 -3 -18 22
-43 37 -43 26z"/>
<path d="M1176 4920 c-16 -10 -32 -23 -35 -28 -11 -16 -49 -32 -78 -32 -16 0
-45 -11 -65 -25 -31 -21 -40 -37 -63 -109 -24 -75 -26 -89 -15 -123 7 -21 16
-42 21 -47 5 -6 9 -43 9 -83 0 -91 9 -96 87 -52 50 29 70 34 154 40 96 6 98 7
165 55 102 74 110 83 119 144 13 92 1 125 -57 153 -18 9 -61 41 -96 72 -69 60
-96 67 -146 35z"/>
<path d="M2992 4924 c-15 -16 -68 -19 -77 -4 -8 13 -25 13 -25 -1 0 -5 4 -8 9
-4 19 11 31 -31 20 -65 -11 -30 -9 -72 6 -115 6 -16 3 -15 -14 5 -11 14 -22
43 -24 65 l-4 40 -1 -41 c-4 -79 80 -170 123 -134 26 22 40 114 26 178 -19 85
-23 93 -39 76z"/>
<path d="M4064 4793 c-27 -55 -28 -56 -42 -35 -18 27 -26 27 -64 1 -32 -23
-32 -38 1 -17 17 11 23 10 37 -4 16 -15 15 -19 -15 -57 -46 -58 -71 -74 -89
-58 -13 10 -14 8 -10 -15 6 -30 -1 -35 -20 -16 -9 9 -12 9 -12 0 0 -23 48 -45
85 -38 45 9 109 68 102 95 -3 12 3 27 15 38 41 36 74 142 49 157 -5 3 -21 -20
-37 -51z"/>
</g>
</svg>
