<?xml version="1.0" standalone="no"?>
<!DOCTYPE svg PUBLIC "-//W3C//DTD SVG 20010904//EN"
 "http://www.w3.org/TR/2001/REC-SVG-20010904/DTD/svg10.dtd">
<svg version="1.0" xmlns="http://www.w3.org/2000/svg"
 width="720.000000pt" height="1280.000000pt" viewBox="0 0 720.000000 1280.000000"
 preserveAspectRatio="xMidYMid meet">
<metadata>
Created by potrace 1.16, written by Peter Selinger 2001-2019
</metadata>
<g transform="translate(0.000000,1280.000000) scale(0.100000,-0.100000)"
fill="#000000" stroke="none">
<path d="M0 6400 l0 -6400 3600 0 3600 0 0 1149 0 1149 -31 26 c-35 30 -71 32
-114 7 -37 -22 -42 -60 -22 -185 15 -98 14 -100 -45 -94 l-33 3 -8 80 c-4 44
-16 148 -27 230 -28 213 -28 209 -7 213 10 2 29 1 41 -2 21 -5 24 -15 35 -96
7 -49 17 -92 22 -96 5 -3 19 2 31 10 15 11 45 16 90 16 l68 0 0 295 c0 270 -4
319 -25 286 -11 -19 -109 -24 -148 -8 -86 36 -118 106 -82 180 20 43 56 59
145 66 72 6 75 7 78 32 2 19 -5 33 -28 53 -42 35 -88 35 -121 0 -13 -14 -33
-30 -44 -34 -26 -10 -55 5 -55 28 0 20 41 62 77 81 30 16 133 13 163 -4 14 -8
28 -14 33 -15 4 0 7 128 7 285 0 265 -1 285 -17 285 -22 0 -82 36 -106 64 -58
65 -75 182 -39 256 23 46 75 80 123 80 l39 0 0 254 0 254 -34 6 c-45 9 -120
76 -140 127 -52 130 13 259 130 259 l44 0 0 250 0 250 -35 0 c-40 0 -35 -11
-58 155 -14 100 -18 112 -44 132 -38 31 -87 30 -119 -2 -15 -15 -23 -32 -20
-43 7 -21 26 -178 26 -209 0 -19 -5 -23 -34 -23 -39 0 -37 -6 -57 145 -6 50
-15 113 -19 142 -9 64 -1 78 36 69 32 -8 44 -8 124 -1 108 11 154 -38 182
-195 l16 -95 1 366 c1 286 -2 387 -15 465 -8 54 -19 131 -24 169 -5 39 -13 99
-19 135 -18 108 -17 113 24 108 l35 -4 0 163 0 163 -28 0 c-15 0 -33 5 -39 11
-8 8 -25 8 -63 0 -126 -27 -239 67 -190 160 17 31 78 51 144 47 70 -4 78 7 41
51 -22 26 -34 31 -69 31 -31 0 -48 -6 -61 -20 -25 -28 -69 -23 -73 7 -2 16 6
28 30 43 68 41 216 15 247 -44 14 -26 41 -150 41 -191 0 -16 5 -37 10 -45 6
-10 10 936 10 2678 l0 2692 -3600 0 -3600 0 0 -6400z m6796 3680 c151 -69 198
-267 95 -405 -25 -34 -27 -41 -14 -50 14 -10 14 -14 -2 -38 -22 -35 -90 -46
-136 -23 -33 16 -80 14 -147 -6 -47 -14 -99 -2 -118 28 -13 20 -14 27 -4 39
11 13 9 19 -8 38 -85 90 -82 268 6 360 77 81 220 106 328 57z m-653 4 c29 -10
64 -34 92 -62 124 -125 89 -333 -68 -412 -133 -66 -310 -20 -370 96 -47 91
-44 191 7 276 25 43 43 59 94 85 54 28 75 33 131 33 37 0 88 -7 114 -16z
m-5802 -244 c21 -91 39 -168 39 -172 0 -5 -15 -8 -33 -8 -28 0 -34 4 -42 32
-9 29 -14 32 -50 31 -36 0 -40 -3 -47 -31 -8 -28 -13 -32 -42 -32 l-34 0 14
58 c7 31 26 110 41 175 l27 118 44 -3 45 -3 38 -165z m369 78 l1 -93 30 38
c23 27 39 37 60 37 16 0 29 -3 29 -6 0 -4 -16 -28 -35 -53 -30 -41 -33 -50
-21 -67 7 -10 25 -40 40 -66 l27 -48 -35 0 c-30 0 -38 5 -57 40 -26 45 -39 43
-39 -6 0 -31 -2 -34 -30 -34 l-30 0 0 175 0 175 30 0 30 0 0 -92z m1740 -83
l0 -176 -42 1 c-24 1 -55 -1 -69 -5 -19 -5 -33 -1 -55 18 -28 24 -29 29 -28
107 1 68 4 85 21 102 22 21 54 27 91 14 21 -7 22 -5 22 53 l0 61 30 0 30 0 0
-175z m452 83 l3 -92 25 37 c20 30 31 37 58 37 30 0 42 -12 24 -24 -5 -3 -21
-23 -36 -44 l-27 -40 40 -66 41 -66 -34 0 c-28 0 -38 7 -62 43 l-29 42 -3 -42
c-3 -42 -4 -43 -38 -43 l-34 0 0 175 0 175 35 0 34 0 3 -92z m728 27 l0 -66
30 16 c33 17 60 13 85 -11 11 -12 15 -40 15 -120 l0 -104 -30 0 -30 0 0 90 c0
75 -3 92 -16 97 -37 14 -49 -10 -52 -101 l-3 -86 -29 0 -30 0 0 175 0 175 30
0 30 0 0 -65z m530 4 c0 -58 1 -60 23 -53 76 26 107 -8 107 -118 0 -71 -2 -81
-26 -105 -20 -20 -31 -24 -52 -18 -15 4 -46 6 -69 5 l-43 -1 0 176 0 175 30 0
30 0 0 -61z m-1480 -9 c0 -38 2 -40 30 -40 25 0 30 -4 30 -25 0 -21 -5 -25
-30 -25 l-31 0 3 -67 c3 -66 4 -68 31 -71 21 -3 27 -8 23 -19 -3 -8 -6 -19 -6
-24 0 -16 -73 -10 -92 8 -14 13 -18 31 -18 90 0 66 -2 75 -20 80 -13 3 -20 14
-20 29 0 17 6 24 20 24 16 0 20 7 20 33 0 40 6 47 37 47 20 0 23 -5 23 -40z
m-2096 -61 c24 -23 34 -121 17 -172 -15 -44 -59 -66 -97 -48 -14 6 -27 11 -29
11 -3 0 -5 -30 -5 -66 l0 -65 -27 3 -28 3 -3 179 -2 179 37 -5 c21 -3 47 -2
58 3 26 10 55 2 79 -22z m405 20 c44 -16 51 -35 51 -143 l0 -96 -47 -1 c-27 0
-60 -1 -75 -1 -40 -1 -58 19 -58 63 0 43 20 63 83 80 28 7 37 15 35 27 -5 26
-48 28 -55 3 -4 -14 -13 -21 -29 -21 -65 0 -15 96 52 99 6 1 25 -4 43 -10z
m290 0 c38 -14 51 -35 51 -88 l0 -41 -61 0 c-60 0 -60 0 -57 -27 3 -32 44 -46
54 -19 4 10 18 16 35 16 35 0 39 -25 10 -61 -15 -19 -29 -24 -66 -24 -39 0
-51 5 -71 28 -20 24 -24 39 -24 96 0 75 21 116 63 124 12 2 25 5 28 6 3 0 20
-4 38 -10z m198 0 c32 -12 43 -26 43 -56 0 -31 -45 -33 -53 -3 -7 26 -47 27
-47 1 0 -11 12 -23 30 -31 78 -32 101 -82 61 -131 -15 -19 -29 -24 -66 -24
-37 0 -51 5 -66 24 -29 36 -25 61 11 61 24 0 30 -4 30 -21 0 -15 5 -20 22 -17
40 5 31 32 -19 58 -91 48 -80 135 19 149 4 1 19 -4 35 -10z m191 0 c29 -10 59
-59 45 -73 -15 -15 -51 -5 -56 15 -4 13 -12 20 -24 17 -29 -5 -21 -32 15 -50
73 -36 92 -81 53 -129 -15 -19 -29 -24 -66 -24 -37 0 -51 5 -66 24 -29 36 -25
61 10 61 21 0 30 -6 34 -21 7 -25 40 -22 45 3 2 12 -11 24 -43 39 -74 35 -86
106 -22 134 39 17 37 17 75 4z m211 0 c17 -6 36 -19 41 -29 6 -10 10 -62 10
-115 l0 -97 -32 3 c-18 1 -48 -1 -66 -5 -50 -12 -82 13 -82 64 0 44 20 64 83
81 28 7 37 15 35 27 -5 25 -45 27 -58 3 -13 -24 -48 -28 -56 -6 -8 20 21 64
49 75 30 12 39 12 76 -1z m318 -21 c17 -16 23 -33 23 -65 l0 -43 -61 0 c-60 0
-60 0 -57 -27 3 -32 44 -46 54 -19 8 20 64 22 64 2 0 -69 -102 -98 -158 -45
-19 17 -22 31 -22 98 0 68 3 80 23 98 12 11 29 23 37 26 25 10 73 -2 97 -25z
m1001 -4 c18 -21 22 -36 22 -98 0 -65 -3 -75 -26 -97 -35 -33 -104 -34 -136
-2 -27 28 -37 127 -17 174 24 60 111 73 157 23z m240 8 c8 -10 12 -52 12 -119
l0 -103 -30 0 -30 0 0 90 c0 75 -3 92 -17 97 -32 12 -53 -32 -53 -113 l0 -74
-30 0 -30 0 0 120 0 120 29 0 c16 0 31 -5 33 -11 2 -6 14 -5 33 5 33 17 63 13
83 -12z m529 -4 c17 -16 23 -33 23 -65 l0 -43 -61 0 c-60 0 -60 0 -57 -27 3
-32 44 -46 54 -19 4 10 18 16 35 16 22 0 29 -5 29 -20 0 -42 -64 -79 -115 -66
-52 13 -65 39 -65 124 0 69 3 81 23 99 12 11 29 23 37 26 25 10 73 -2 97 -25z
m540 8 c6 -6 13 -57 16 -118 l5 -108 -34 0 -34 0 0 90 c0 72 -3 92 -15 96 -33
13 -45 -15 -45 -102 l0 -84 -35 0 -35 0 0 120 0 120 35 0 c19 0 35 -4 35 -9 0
-6 12 -3 28 4 28 15 58 12 79 -9z m218 -7 c17 -16 21 -35 23 -120 l4 -100 -44
1 c-23 1 -54 -1 -68 -5 -35 -9 -80 27 -80 64 0 39 19 60 70 75 33 10 46 19 48
35 4 28 -33 29 -50 1 -12 -19 -48 -27 -60 -14 -15 14 11 60 43 77 40 20 84 15
114 -14z m400 16 c37 -15 55 -46 55 -96 0 -29 0 -29 -59 -29 -65 0 -73 -5 -64
-38 6 -26 53 -32 53 -7 0 11 11 15 36 15 32 0 35 -2 29 -22 -4 -13 -18 -34
-33 -47 -21 -19 -33 -22 -65 -18 -59 8 -80 35 -85 107 -5 75 11 118 52 136 39
17 40 17 81 -1z m198 1 c15 -8 27 -11 27 -5 0 5 14 9 31 9 l30 0 -3 -154 c-3
-134 -5 -157 -22 -175 -42 -46 -144 -35 -166 19 -7 16 -9 34 -5 39 10 18 44
12 57 -9 27 -42 78 -15 78 41 0 18 -3 20 -12 11 -7 -7 -29 -12 -49 -12 -56 0
-79 34 -79 116 0 72 13 107 44 122 29 14 37 14 69 -2z m285 -22 c19 -22 22
-36 22 -120 l0 -95 -42 1 c-24 1 -55 -1 -70 -5 -21 -6 -32 -2 -52 18 -48 48
-29 99 44 121 33 10 46 19 48 35 4 28 -33 29 -50 1 -12 -19 -48 -27 -60 -14
-15 14 11 60 43 77 43 22 86 16 117 -19z m-3048 -94 l0 -120 -35 0 -35 0 0
113 c0 63 3 117 7 120 3 4 19 7 35 7 l28 0 0 -120z m2271 103 c0 -10 8 -43 18
-73 l17 -55 19 73 c18 70 20 72 51 72 l32 0 -24 -82 c-79 -281 -76 -273 -113
-276 -28 -3 -33 -1 -27 14 29 76 29 101 -4 209 -17 59 -34 113 -37 121 -4 10
4 14 31 14 27 0 36 -4 37 -17z m-1616 -665 c3 -18 10 -121 15 -228 6 -107 15
-271 20 -365 6 -93 15 -251 20 -350 14 -248 28 -488 40 -695 5 -96 15 -256 20
-355 6 -99 15 -256 20 -350 5 -93 14 -250 20 -347 5 -98 14 -256 20 -350 10
-170 20 -357 40 -700 5 -95 14 -249 20 -343 15 -258 30 -521 40 -710 5 -93 14
-249 20 -345 5 -96 15 -256 20 -355 14 -250 28 -499 40 -705 14 -227 26 -457
39 -700 6 -107 13 -212 17 -232 l6 -38 -1806 0 -1806 0 0 3600 0 3600 1595 0
1594 0 6 -32z m1395 11 c22 -17 38 -21 70 -16 23 3 49 12 59 21 10 9 34 16 54
16 37 0 39 -2 52 -67 6 -32 6 -33 -28 -33 -18 0 -37 3 -41 7 -3 4 -44 7 -89 7
-74 1 -88 4 -125 29 -23 15 -42 34 -42 42 0 23 56 19 90 -6z m656 6 c4 -8 10
-15 15 -15 5 0 9 7 9 15 0 11 11 15 36 15 l36 0 -7 -37 c-3 -21 -11 -55 -17
-75 -10 -34 -15 -38 -42 -38 -29 0 -35 6 -64 65 -18 36 -32 70 -32 75 0 16 60
12 66 -5z m527 -66 c4 -45 11 -87 17 -95 19 -22 -19 -35 -57 -19 -21 9 -43 11
-68 5 -72 -16 -148 8 -184 59 -34 48 -25 93 24 119 11 7 73 12 141 12 l121 0
6 -81z m339 59 l15 -22 23 22 c18 16 36 22 72 22 26 0 48 -4 48 -10 0 -5 -3
-10 -7 -10 -5 0 -21 -12 -36 -26 l-29 -24 60 -63 c68 -71 112 -122 112 -131 0
-10 -38 -7 -62 5 -13 7 -48 40 -78 74 -35 41 -63 63 -77 64 -21 1 -23 -3 -23
-60 l0 -60 -32 3 c-33 3 -33 4 -45 78 -6 41 -12 94 -12 118 -1 40 0 42 28 42
18 0 34 -8 43 -22z m549 1 c38 -26 79 -108 79 -154 0 -140 -177 -173 -292 -55
-58 61 -77 115 -59 168 22 61 24 62 138 62 90 0 109 -3 134 -21z m434 -21 c46
-3 50 -5 50 -28 0 -20 -5 -25 -25 -27 -14 0 -33 -1 -42 -2 -27 -2 -30 -33 -13
-128 8 -48 15 -94 15 -100 0 -14 -56 -18 -64 -5 -5 9 -46 264 -46 290 0 11 9
13 38 8 20 -3 60 -7 87 -8z m-2942 -323 c132 -15 186 -38 224 -94 27 -40 31
-106 7 -139 -29 -42 -78 -54 -193 -46 l-104 7 5 -88 5 -87 -35 6 c-20 3 -39 9
-43 13 -8 9 -40 423 -33 435 7 11 28 10 167 -7z m805 -64 c12 -7 18 -25 20
-68 2 -32 7 -62 12 -67 5 -5 38 -8 74 -7 49 1 75 -3 105 -19 58 -29 77 -78 86
-217 l8 -113 -24 0 c-44 0 -52 14 -60 107 -4 48 -8 98 -8 111 -1 13 -14 37
-30 53 -37 36 -99 41 -131 9 -23 -23 -23 -17 -6 -143 12 -96 12 -99 -8 -106
-33 -13 -55 -1 -61 33 -6 34 -22 213 -32 349 -6 85 -5 87 16 87 12 0 30 -4 39
-9z m-268 -102 c24 -5 59 -21 77 -35 40 -31 75 -96 71 -132 -3 -30 -2 -30
-172 -22 -107 6 -115 -3 -58 -60 34 -34 46 -40 82 -40 24 0 60 5 82 12 32 10
41 9 54 -4 14 -14 13 -17 -12 -37 -22 -17 -40 -21 -98 -21 -131 1 -215 65
-230 175 -12 83 23 143 94 163 46 13 57 13 110 1z m695 -79 c4 -6 33 -8 75 -4
93 9 147 -16 172 -78 17 -42 38 -170 38 -229 0 -26 -3 -29 -35 -29 -40 0 -40
-2 -53 145 -9 91 -12 101 -38 123 -23 20 -35 23 -72 19 -24 -3 -49 -11 -54
-18 -5 -8 -7 -64 -3 -131 l6 -118 -30 0 c-16 0 -32 4 -35 9 -6 9 -36 258 -36
299 0 18 6 22 29 22 17 0 33 -5 36 -10z m591 -71 c24 -16 53 -48 64 -69 20
-40 26 -85 13 -93 -5 -3 -59 -1 -122 4 -126 10 -144 5 -115 -33 47 -63 120
-84 179 -53 28 16 36 17 49 6 9 -8 16 -17 16 -22 0 -18 -66 -49 -103 -49 -134
0 -237 89 -237 205 0 94 44 134 148 135 55 0 70 -4 108 -31z m385 -24 c23 -12
38 -13 67 -6 72 19 151 -13 185 -74 6 -11 18 -73 27 -138 18 -129 16 -136 -33
-123 -21 5 -25 14 -36 100 -7 51 -16 107 -20 122 -8 30 -63 76 -84 69 -7 -2
-24 -6 -38 -9 -15 -3 -30 -13 -33 -22 -6 -15 6 -136 20 -207 6 -28 5 -28 -33
-25 l-38 3 -12 80 c-6 44 -15 117 -19 163 -7 90 -5 93 47 67z m532 -46 c21 -5
52 -22 68 -37 27 -24 32 -39 49 -137 11 -60 22 -121 26 -134 7 -23 5 -23 -32
-17 -42 7 -47 7 -127 4 -66 -3 -122 24 -150 73 -44 76 9 129 131 129 81 0 90
10 46 54 -33 33 -90 36 -124 6 -27 -24 -53 -26 -70 -5 -10 12 -7 20 18 45 26
25 38 30 79 30 26 0 65 -5 86 -11z m-2656 -419 c122 -16 182 -58 190 -133 4
-36 1 -48 -19 -72 l-25 -29 38 -35 c70 -67 63 -155 -16 -192 -39 -18 -52 -19
-174 -11 -89 7 -137 14 -147 23 -10 10 -17 65 -24 189 -5 96 -12 196 -15 223
l-4 47 62 0 c34 0 95 -5 134 -10z m1163 -87 c3 -3 10 -35 15 -71 l10 -67 76
-1 c108 0 168 -40 202 -134 29 -78 20 -146 -25 -191 -25 -25 -37 -29 -83 -29
-30 0 -66 5 -82 11 -15 6 -49 11 -75 10 -26 -1 -49 3 -52 8 -4 5 -15 94 -26
198 -27 261 -28 272 -22 277 5 6 53 -3 62 -11z m-773 -183 c6 -63 13 -140 14
-170 l3 -55 -37 -3 c-43 -4 -42 -8 -57 165 -16 191 -17 185 28 181 l37 -3 12
-115z m171 94 c19 -13 28 -14 53 -4 39 16 124 5 161 -21 46 -33 61 -75 74
-203 7 -66 11 -123 8 -128 -7 -10 -45 -10 -62 0 -7 5 -17 57 -25 130 -15 133
-24 153 -83 172 -26 9 -39 8 -63 -4 -16 -9 -33 -20 -36 -26 -3 -6 -1 -62 5
-126 13 -130 9 -144 -37 -128 -31 10 -28 -1 -52 220 -7 55 -9 108 -5 117 8 21
33 22 62 1z m1483 -73 c9 -20 28 -39 48 -47 37 -16 40 -46 4 -49 -13 -1 -26
-4 -29 -7 -3 -4 0 -51 6 -105 13 -100 28 -133 61 -133 19 0 43 -33 32 -44 -10
-9 -68 -7 -97 4 -41 15 -55 50 -71 170 -8 63 -15 115 -15 116 0 1 -13 5 -29 9
-58 13 -66 55 -10 55 27 0 29 3 29 36 0 33 2 35 27 32 20 -2 32 -12 44 -37z
m-244 -35 c45 -23 63 -62 78 -175 8 -53 18 -109 24 -123 5 -14 7 -29 4 -32
-10 -9 -61 -7 -68 3 -3 5 -38 7 -79 4 -62 -5 -81 -2 -118 15 -64 32 -94 94
-68 143 19 34 64 49 149 49 l80 0 -10 29 c-6 16 -21 37 -34 45 -33 22 -90 20
-112 -2 -37 -38 -83 -37 -83 2 0 12 14 31 33 44 28 21 41 23 102 19 39 -2 85
-11 102 -21z m628 -48 c52 -27 73 -59 85 -132 6 -39 17 -99 25 -134 14 -72 6
-84 -45 -65 -15 6 -60 8 -101 6 -66 -4 -78 -2 -108 19 -55 38 -75 70 -67 113
10 53 52 75 142 75 39 0 73 2 76 5 12 13 -19 56 -50 71 -39 18 -78 12 -105
-17 -21 -23 -50 -25 -67 -4 -10 12 -10 18 1 33 17 21 37 35 64 44 25 8 123 -1
150 -14z m-2441 -428 c135 -10 146 -14 146 -58 0 -15 9 -26 28 -33 33 -13 79
-55 98 -91 20 -39 18 -45 -17 -50 -26 -4 -35 1 -64 36 l-35 41 0 -70 c0 -79 5
-89 40 -98 14 -3 44 -24 67 -46 71 -69 67 -134 -10 -181 -42 -26 -65 -25 -69
3 -3 19 -11 23 -63 28 -76 8 -124 31 -153 75 -18 28 -28 34 -57 34 -45 0 -47
-26 -5 -74 44 -49 122 -86 184 -86 88 0 93 -4 101 -70 4 -33 5 -63 2 -67 -5
-7 -275 3 -322 12 -19 4 -22 16 -33 172 -11 144 -26 363 -35 496 -2 36 -2 37
33 37 19 0 93 -5 164 -10z m1785 -180 c14 -7 20 -26 25 -77 17 -182 17 -183
35 -183 9 0 41 25 71 55 55 55 86 67 120 45 12 -8 4 -20 -42 -67 -32 -32 -58
-64 -58 -70 0 -6 38 -53 85 -104 47 -50 85 -96 85 -100 0 -5 -15 -9 -33 -9
-28 0 -45 12 -111 80 -43 44 -82 80 -86 80 -22 0 -32 -33 -25 -86 l7 -55 -39
3 -38 3 -7 55 c-56 423 -57 440 -27 440 11 0 28 -4 38 -10z m-1151 -66 c98
-41 165 -171 132 -256 -31 -78 -99 -115 -188 -102 -88 13 -129 40 -178 116
-49 77 -22 207 50 242 40 20 137 20 184 0z m350 -15 c74 2 89 -1 135 -24 48
-26 52 -26 78 -11 35 21 121 21 165 0 56 -27 75 -64 90 -177 8 -56 14 -119 14
-139 0 -37 -1 -38 -35 -38 -40 0 -38 -5 -56 150 -6 58 -16 113 -21 123 -5 10
-25 25 -45 33 -42 18 -100 4 -112 -27 -3 -11 -2 -70 5 -132 12 -123 8 -139
-40 -130 -27 5 -29 14 -41 143 -14 140 -34 170 -116 170 -69 0 -73 -9 -65
-152 4 -67 8 -127 9 -133 3 -13 -53 -19 -65 -7 -17 17 -46 315 -34 348 5 12
12 14 29 8 12 -4 59 -6 105 -5z m1377 -108 c22 -10 47 -27 56 -37 18 -20 34
-86 44 -174 4 -30 12 -70 18 -88 9 -26 9 -35 -2 -41 -14 -9 -49 -4 -67 11 -7
5 -23 4 -38 -2 -38 -14 -111 -12 -150 4 -34 14 -68 54 -81 94 -18 60 49 115
136 112 81 -3 89 -1 89 20 0 58 -106 94 -145 50 -25 -27 -85 -28 -85 -1 0 11
14 31 31 45 26 22 40 26 92 26 39 0 77 -7 102 -19z m427 -30 c7 -7 49 -279 55
-366 4 -51 2 -64 -17 -87 -23 -30 -51 -35 -94 -18 -31 11 -36 50 -8 50 11 0
26 8 34 18 14 15 13 36 -10 203 -14 102 -22 194 -19 203 5 13 13 16 29 11 13
-4 26 -10 30 -14z m-2751 -549 c7 -7 33 -363 34 -452 0 -43 -1 -45 -30 -48
-16 -1 -35 1 -41 5 -8 5 -19 98 -30 251 -15 210 -16 245 -3 253 14 9 58 3 70
-9z m228 -144 c15 -9 28 -9 60 2 50 16 132 8 165 -17 41 -31 58 -81 72 -218 7
-71 10 -133 8 -137 -8 -13 -74 -9 -79 5 -2 6 -9 68 -14 137 -11 120 -12 126
-41 153 -33 29 -72 35 -115 15 -35 -16 -39 -41 -29 -179 10 -128 9 -129 -41
-129 -13 0 -26 4 -29 8 -3 4 -10 66 -15 138 -6 71 -13 153 -16 182 l-5 52 30
0 c17 0 39 -5 49 -12z m527 -18 c169 3 195 -33 219 -302 l7 -78 -41 0 c-46 0
-44 -7 -60 169 -10 110 -19 130 -71 151 -22 9 -37 9 -64 0 -56 -18 -60 -36
-47 -172 7 -65 9 -122 6 -128 -9 -14 -62 -13 -71 2 -8 12 -33 258 -34 327 l0
43 33 -7 c17 -4 73 -6 123 -5z m640 -34 c82 -1 106 -4 121 -18 24 -22 52 -23
89 -3 16 8 48 15 72 15 105 0 156 -57 171 -192 5 -46 13 -106 16 -134 8 -57
-5 -71 -49 -54 -27 10 -26 8 -47 185 -12 105 -25 125 -90 132 -35 4 -48 0 -66
-17 -26 -24 -28 -43 -12 -176 14 -115 11 -124 -33 -115 l-33 7 -16 134 c-15
125 -18 135 -45 158 -23 20 -35 23 -77 19 -27 -2 -53 -11 -59 -18 -5 -8 -6
-52 -2 -109 14 -174 14 -175 -24 -178 -20 -2 -34 2 -37 10 -7 20 -35 274 -35
318 0 39 13 53 40 42 8 -3 61 -6 116 -6z m790 -49 c66 -39 99 -84 110 -156 l6
-40 -133 -3 c-123 -3 -134 -5 -131 -21 4 -25 31 -56 64 -73 36 -19 112 -18
128 1 15 18 40 19 64 2 16 -12 15 -15 -13 -40 -22 -19 -46 -29 -83 -33 -138
-16 -249 80 -252 216 -2 105 53 160 158 160 34 -1 70 -6 82 -13z m242 -14 c16
-15 23 -43 36 -158 9 -77 19 -152 22 -167 5 -27 4 -28 -34 -28 l-40 0 -11 75
c-23 156 -34 263 -28 279 8 21 30 20 55 -1z m-2372 -641 c6 -4 15 -56 20 -117
6 -76 13 -110 21 -110 7 0 63 50 125 111 113 110 113 111 156 106 23 -2 42 -7
42 -11 0 -3 -43 -51 -95 -106 -52 -54 -95 -105 -95 -112 0 -7 55 -72 123 -144
67 -72 123 -137 125 -145 3 -10 -7 -14 -38 -14 -46 0 -33 -10 -188 153 -45 48
-86 87 -91 87 -5 0 -21 -10 -36 -21 -26 -21 -27 -24 -23 -113 l3 -91 -31 -3
c-56 -5 -58 4 -77 272 -10 136 -15 251 -12 257 7 11 55 12 71 1z m1246 -31 c4
-3 12 -62 19 -131 16 -170 22 -174 104 -87 55 58 68 67 99 67 19 0 37 -4 40
-9 5 -8 -62 -92 -107 -133 -15 -13 -16 -21 -8 -36 6 -11 14 -22 19 -24 13 -5
162 -170 162 -179 0 -5 -18 -9 -39 -9 -34 0 -45 7 -89 53 -28 28 -60 64 -72
80 -13 16 -31 27 -46 27 -23 0 -24 -2 -24 -74 0 -80 -8 -92 -55 -80 -28 7 -25
-9 -55 284 -23 228 -24 257 -7 263 13 6 48 -1 59 -12z m-506 -137 c66 -32 81
-67 103 -254 5 -47 11 -94 13 -105 2 -16 -3 -21 -26 -23 -16 -2 -39 1 -51 8
-15 8 -29 8 -49 1 -42 -16 -133 -13 -173 6 -43 20 -73 66 -73 113 0 73 55 110
164 110 82 0 101 8 91 39 -12 40 -45 61 -95 61 -37 0 -51 -5 -70 -25 -24 -26
-73 -34 -85 -14 -13 19 5 54 37 76 42 28 162 32 214 7z m243 -4 c11 -5 39 -6
72 -1 61 10 79 2 79 -35 0 -18 -7 -25 -27 -29 -16 -3 -39 -9 -53 -13 l-25 -8
0 -149 0 -150 -25 -3 c-14 -1 -30 1 -37 6 -14 9 -50 349 -40 375 7 19 29 22
56 7z m888 -56 c46 -37 81 -97 85 -145 l3 -34 -137 -3 c-124 -2 -138 -4 -138
-20 0 -23 52 -80 85 -92 37 -14 87 -12 109 5 43 32 104 5 69 -30 -58 -59 -191
-58 -269 1 -18 13 -43 43 -58 68 -51 88 -27 222 49 268 23 13 47 17 97 15 58
-2 72 -7 105 -33z m408 6 c3 -6 43 -7 98 -4 91 6 93 6 133 -24 67 -49 107
-162 90 -254 -3 -19 -19 -49 -35 -68 -27 -33 -33 -35 -87 -35 -33 0 -74 4 -93
9 l-34 8 6 -66 c8 -82 3 -96 -34 -96 -24 0 -30 5 -38 38 -15 60 -63 480 -56
491 8 14 42 14 50 1z m-2267 -716 c16 -5 51 -49 109 -135 47 -71 88 -127 92
-125 3 2 33 57 66 121 38 74 68 121 82 128 25 11 73 2 73 -14 0 -10 -40 -87
-129 -248 l-41 -73 7 -104 6 -104 -42 0 c-24 0 -43 5 -46 13 -2 6 -7 51 -10
99 -7 85 -8 88 -66 175 -33 48 -78 113 -100 143 -61 85 -74 111 -57 121 16 10
25 11 56 3z m2136 -67 c27 -200 57 -489 53 -502 -8 -18 -66 -21 -72 -2 -3 6
-14 86 -25 177 -11 91 -25 206 -31 257 -6 51 -9 98 -6 106 3 9 17 12 40 9 33
-4 35 -7 41 -45z m184 31 c5 -7 15 -62 22 -123 7 -60 16 -126 20 -145 l7 -35
68 73 c61 65 72 72 106 72 21 0 40 -3 42 -8 3 -4 -21 -38 -54 -76 -32 -39 -59
-75 -59 -80 0 -6 41 -55 90 -110 50 -54 90 -104 90 -112 0 -9 -12 -14 -34 -14
-30 0 -44 10 -112 85 -105 115 -130 113 -118 -11 l7 -64 -36 0 c-20 0 -39 4
-42 10 -3 5 -10 44 -15 87 -5 43 -16 132 -25 198 -29 216 -33 250 -28 258 7
12 60 8 71 -5z m-1542 -146 c60 -43 111 -165 80 -191 -7 -6 -71 -12 -147 -13
-157 -3 -165 -10 -101 -80 37 -39 43 -42 95 -42 40 -1 60 4 75 17 25 22 75 19
80 -5 5 -26 -47 -67 -96 -74 -112 -17 -198 19 -257 106 -26 39 -30 54 -30 115
0 56 5 79 25 113 34 60 77 81 166 82 62 0 76 -3 110 -28z m469 7 c11 0 52 3
90 7 69 6 72 5 115 -28 66 -49 95 -113 95 -208 0 -89 -24 -138 -82 -165 -35
-17 -121 -17 -166 1 -14 5 -17 -5 -19 -78 l-3 -83 -31 -3 c-22 -2 -33 2 -38
13 -10 27 -58 525 -52 542 5 11 14 14 39 9 17 -4 41 -7 52 -7z m649 -22 c51
-28 73 -67 81 -142 11 -105 26 -187 36 -207 5 -10 7 -23 4 -28 -8 -13 -51 -13
-76 0 -14 8 -33 6 -72 -5 -128 -38 -251 49 -223 160 4 14 25 37 48 52 35 23
55 29 120 32 43 2 78 6 78 11 0 26 -25 69 -46 79 -46 21 -90 14 -121 -19 -49
-52 -108 -34 -81 26 29 63 173 87 252 41z m269 -779 c11 -9 21 -40 28 -93 13
-85 24 -103 50 -79 10 9 38 14 82 14 57 0 70 -4 98 -27 17 -15 38 -41 45 -58
13 -31 40 -203 46 -285 l3 -45 -40 0 -40 0 -16 140 c-17 151 -24 173 -63 199
-39 25 -81 20 -111 -11 -29 -32 -30 -53 -11 -198 15 -114 10 -135 -34 -135
-35 0 -36 1 -54 165 -9 72 -23 192 -32 268 -15 119 -15 140 -3 148 19 12 32
11 52 -3z m-2008 -130 c6 -64 15 -122 20 -127 8 -8 33 14 80 67 152 168 169
184 211 180 21 -2 39 -8 41 -13 2 -6 -42 -60 -96 -121 -115 -128 -114 -120
-23 -217 27 -29 81 -87 121 -130 40 -42 69 -82 66 -87 -3 -6 -24 -10 -46 -10
-45 0 -40 -5 -183 153 -49 53 -94 97 -101 97 -6 0 -24 -13 -40 -30 -28 -29
-28 -30 -21 -125 l6 -95 -44 0 -45 0 -5 43 c-3 23 -10 105 -16 182 -28 377
-29 358 27 353 l38 -3 10 -117z m487 -45 c10 -9 18 -20 18 -25 0 -12 90 -221
100 -232 12 -13 35 40 54 129 28 126 39 145 81 145 40 0 54 -19 37 -53 -10
-22 -29 -83 -58 -192 -51 -192 -66 -240 -91 -290 -21 -43 -53 -63 -104 -66
-38 -3 -45 0 -56 21 -14 29 -11 34 39 50 48 15 68 43 68 96 0 32 -20 83 -81
210 -44 93 -84 176 -88 184 -4 8 -6 21 -4 28 7 18 63 15 85 -5z m425 9 c16
-10 21 -38 33 -176 14 -158 30 -185 106 -186 32 0 46 6 69 30 31 32 31 27 9
268 l-7 72 29 0 c53 0 55 -5 76 -210 23 -219 21 -228 -41 -210 -26 7 -48 6
-88 -6 -88 -26 -175 2 -208 66 -17 33 -52 318 -42 344 7 17 43 21 64 8z m458
-2 c3 -5 19 -10 35 -10 16 0 32 5 35 10 3 6 34 10 68 10 134 0 172 -67 192
-336 6 -80 6 -82 -18 -86 -13 -3 -34 -1 -45 3 -18 7 -22 16 -22 56 0 26 -7 92
-14 147 -12 83 -19 103 -42 127 -18 19 -38 29 -57 29 -37 0 -84 -28 -91 -54
-3 -12 -1 -83 5 -160 12 -145 10 -156 -31 -156 -37 0 -41 17 -61 211 -10 107
-17 200 -14 207 5 14 51 16 60 2z m598 -819 c26 -10 27 -13 43 -132 l6 -47 81
5 c60 4 92 1 118 -10 71 -29 119 -124 120 -236 2 -104 3 -101 -45 -101 l-44 0
2 88 c1 63 -4 97 -16 122 -41 86 -119 107 -175 48 l-30 -33 9 -90 c5 -49 13
-94 18 -99 23 -23 10 -36 -34 -36 -25 0 -47 4 -50 8 -9 15 -59 490 -53 506 7
18 16 20 50 7z m-1349 -63 c7 -37 26 -227 32 -323 3 -49 7 -100 10 -112 4 -21
1 -23 -45 -23 -41 0 -50 3 -50 18 1 60 -15 252 -21 252 -14 0 -27 -26 -70
-147 l-44 -123 -93 0 c-87 0 -94 1 -103 23 -6 12 -14 29 -20 37 -5 8 -31 59
-57 113 -25 53 -51 97 -56 97 -6 0 -8 -50 -4 -135 l6 -135 -44 0 c-42 0 -44 2
-50 33 -9 54 -32 411 -27 425 2 7 24 12 57 12 30 0 57 -5 63 -12 5 -7 47 -85
92 -173 129 -251 132 -256 148 -253 12 3 82 188 122 323 32 111 44 123 112
124 31 1 38 -3 42 -21z m830 -134 c9 -23 -12 -54 -35 -54 -34 0 -78 -29 -85
-56 -6 -23 -2 -77 11 -181 5 -33 4 -33 -39 -33 l-44 0 -11 98 c-7 53 -13 129
-14 167 -2 67 -1 70 22 73 13 2 35 -2 47 -9 18 -9 29 -10 47 -1 46 23 91 21
101 -4z m157 -104 c5 -47 13 -114 18 -148 8 -71 5 -76 -51 -70 l-33 3 -12 115
c-6 63 -13 137 -15 165 l-3 50 35 5 c43 6 48 -3 61 -120z m-573 101 c44 -23
63 -43 90 -96 29 -58 37 -108 19 -123 -8 -7 -73 -15 -153 -19 -148 -9 -145 -7
-128 -60 6 -22 3 -23 -39 -23 -41 0 -46 3 -61 34 -37 77 -10 204 55 260 23 19
51 37 63 39 55 11 119 6 154 -12z"/>
<path d="M6613 9773 c-20 -4 -23 -11 -23 -51 l0 -47 85 0 85 0 0 46 c0 40 -3
48 -22 53 -25 6 -90 6 -125 -1z"/>
<path d="M6506 9209 c-21 -17 -26 -29 -26 -66 0 -106 110 -182 181 -124 20 16
24 28 22 70 -1 59 -20 94 -66 121 -41 26 -78 25 -111 -1z"/>
<path d="M4094 8825 c-10 -25 1 -134 15 -148 7 -7 47 -13 97 -16 101 -4 134
11 134 60 0 66 -55 102 -178 114 -51 5 -63 3 -68 -10z"/>
<path d="M4154 8017 c-3 -9 -2 -40 3 -69 l8 -53 84 -3 c67 -2 87 0 102 14 22
20 23 33 8 67 -13 29 -56 46 -136 54 -52 5 -64 3 -69 -10z"/>
<path d="M4170 7767 c0 -85 9 -95 96 -103 96 -9 134 10 134 65 0 52 -31 79
-106 91 -32 6 -74 10 -91 10 l-33 0 0 -63z"/>
<path d="M5478 7789 c-14 -8 -18 -24 -18 -75 0 -84 18 -126 63 -147 46 -22 79
-21 105 3 45 42 36 148 -18 202 -23 22 -37 28 -72 28 -24 0 -51 -5 -60 -11z"/>
<path d="M5925 7622 c-59 -30 -5 -109 68 -99 53 7 69 23 65 66 -3 36 -4 36
-56 41 -33 4 -61 1 -77 -8z"/>
<path d="M6562 7564 c-30 -21 -28 -37 9 -68 38 -32 90 -35 119 -6 22 22 26 60
8 78 -17 17 -109 15 -136 -4z"/>
<path d="M4168 7224 c-85 -61 -57 -153 66 -216 46 -23 169 -68 174 -63 2 2 0
18 -3 37 -5 28 -13 36 -43 45 -121 38 -162 72 -148 126 10 41 91 58 159 32 14
-6 17 -2 17 23 0 25 -5 30 -31 36 -17 3 -59 6 -93 6 -50 0 -68 -5 -98 -26z"/>
<path d="M4749 7025 c-77 -42 -56 -195 33 -241 43 -22 92 -18 121 11 29 30 37
61 27 115 -9 50 -33 86 -73 110 -38 23 -72 25 -108 5z"/>
<path d="M6480 6760 c-28 -28 -25 -44 11 -74 34 -29 40 -30 88 -16 41 11 51
24 51 66 0 36 -16 44 -87 44 -30 0 -49 -6 -63 -20z"/>
<path d="M4943 5100 c-21 -9 -43 -38 -43 -59 0 -6 12 -22 27 -36 72 -66 191 1
157 89 -5 12 -20 16 -63 15 -31 0 -66 -4 -78 -9z"/>
<path d="M6048 5206 c-10 -7 -21 -27 -24 -43 -5 -28 -3 -31 26 -37 18 -3 61
-6 97 -6 62 0 64 1 58 23 -4 12 -20 34 -36 50 -33 30 -91 37 -121 13z"/>
<path d="M6685 5188 c-32 -18 -36 -29 -29 -98 10 -109 20 -136 58 -154 79 -37
132 -7 142 80 14 115 -90 218 -171 172z"/>
<path d="M4965 4309 c-25 -12 -55 -63 -46 -77 4 -6 48 -12 101 -13 87 -2 95 0
98 17 1 10 -11 34 -28 52 -25 25 -39 32 -68 31 -20 0 -46 -5 -57 -10z"/>
<path d="M5631 4292 l-33 -17 4 -97 c6 -114 19 -142 77 -158 80 -21 131 24
131 118 0 65 -22 115 -63 146 -39 30 -68 32 -116 8z"/>
<path d="M6165 4142 c-34 -2 -57 -10 -72 -24 -29 -27 -29 -40 3 -77 36 -44 93
-44 136 -1 22 23 29 37 24 53 -3 12 -6 27 -6 33 0 15 -24 20 -85 16z"/>
<path d="M5394 2302 c-12 -9 -29 -31 -38 -49 -15 -30 -15 -33 2 -42 10 -5 53
-8 97 -5 44 2 86 4 93 4 24 0 12 42 -22 76 -27 27 -42 34 -72 34 -22 0 -49 -8
-60 -18z"/>
<path d="M7132 5170 c-16 -10 -34 -31 -39 -47 -11 -32 -3 -117 15 -150 13 -24
64 -63 81 -63 7 0 11 43 11 134 0 123 -1 134 -19 139 -11 2 -33 -3 -49 -13z"/>
<path d="M7070 3172 c-66 -30 -76 -63 -32 -105 57 -55 152 -23 152 52 0 20 -5
42 -12 49 -13 13 -83 15 -108 4z"/>
</g>
</svg>
