<?xml version="1.0" standalone="no"?>
<!DOCTYPE svg PUBLIC "-//W3C//DTD SVG 20010904//EN"
 "http://www.w3.org/TR/2001/REC-SVG-20010904/DTD/svg10.dtd">
<svg version="1.0" xmlns="http://www.w3.org/2000/svg"
 width="720.000000pt" height="1280.000000pt" viewBox="0 0 720.000000 1280.000000"
 preserveAspectRatio="xMidYMid meet">
<metadata>
Created by potrace 1.16, written by Peter Selinger 2001-2019
</metadata>
<g transform="translate(0.000000,1280.000000) scale(0.100000,-0.100000)"
fill="#000000" stroke="none">
<path d="M0 6400 l0 -6400 3600 0 3600 0 0 1025 0 1025 -3590 0 -3590 0 0
3600 0 3600 3590 0 3590 0 0 1775 0 1775 -3600 0 -3600 0 0 -6400z m6795 3680
c149 -64 198 -258 100 -396 -30 -42 -32 -49 -18 -59 13 -10 13 -15 2 -33 -27
-43 -87 -53 -145 -26 -30 14 -42 15 -87 4 -28 -7 -74 -13 -101 -14 -42 -1 -51
3 -72 29 -22 28 -23 31 -7 42 15 12 15 15 -5 35 -55 60 -78 178 -50 269 23 77
103 146 195 168 49 12 137 3 188 -19z m-652 4 c52 -18 116 -76 143 -132 27
-55 26 -174 -3 -227 -51 -94 -120 -136 -233 -143 -63 -4 -85 -1 -128 18 -143
62 -200 232 -124 373 44 81 125 126 233 126 36 1 86 -6 112 -15z m-5802 -239
c21 -88 38 -166 38 -172 1 -8 -12 -13 -32 -13 -28 0 -34 4 -42 33 -9 29 -13
32 -50 31 -35 -1 -40 -4 -47 -32 -8 -28 -13 -32 -42 -32 l-34 0 14 58 c7 31
26 110 41 175 l27 118 44 -3 45 -3 38 -160z m369 73 l1 -93 30 38 c23 27 39
37 60 37 16 0 29 -3 29 -6 0 -4 -16 -27 -35 -53 l-34 -47 21 -35 c11 -19 29
-49 40 -66 l20 -33 -36 0 c-30 0 -38 5 -57 40 -26 45 -39 43 -39 -6 0 -31 -2
-34 -30 -34 l-30 0 0 175 0 175 30 0 30 0 0 -92z m1740 -84 l0 -177 -40 6
c-22 3 -43 1 -46 -4 -9 -16 -50 -10 -77 11 -31 25 -45 104 -28 167 17 61 50
79 109 59 21 -7 22 -5 22 53 l0 61 30 0 30 0 0 -176z m452 84 l3 -92 25 37
c20 30 31 37 58 37 30 0 42 -12 24 -24 -5 -3 -21 -23 -36 -44 l-27 -40 40 -66
41 -66 -34 0 c-28 0 -38 7 -62 43 l-29 42 -3 -43 c-3 -42 -4 -43 -35 -40 l-32
3 -3 173 -2 172 34 0 35 0 3 -92z m728 28 l0 -64 29 14 c31 15 77 6 93 -19 4
-7 8 -58 8 -114 l0 -103 -30 0 -29 0 -3 92 c-3 83 -5 93 -22 96 -33 7 -46 -25
-46 -110 l0 -78 -30 0 -30 0 0 175 0 175 30 0 30 0 0 -64z m530 3 c0 -55 2
-60 18 -53 31 13 76 5 95 -17 13 -16 17 -40 17 -101 0 -71 -2 -81 -26 -105
-21 -21 -31 -24 -57 -18 -18 4 -49 6 -69 6 l-38 -2 0 176 0 175 30 0 30 0 0
-61z m-1480 -9 c0 -38 2 -40 30 -40 25 0 30 -4 30 -25 0 -21 -5 -25 -30 -25
l-31 0 3 -67 c3 -66 4 -68 31 -71 28 -3 31 -9 21 -36 -8 -22 -72 -21 -96 1
-14 13 -18 31 -18 90 0 66 -2 75 -20 80 -13 3 -20 14 -20 29 0 17 6 24 20 24
17 0 20 7 20 40 0 38 2 40 30 40 28 0 30 -2 30 -40z m-2096 -60 c24 -24 34
-122 17 -173 -15 -44 -59 -66 -97 -48 -14 6 -27 11 -29 11 -3 0 -5 -30 -5 -66
l0 -65 -27 3 -28 3 -3 179 -2 179 38 -6 c22 -2 46 -1 53 4 19 12 60 2 83 -21z
m405 19 c44 -16 51 -35 51 -143 l0 -96 -47 -1 c-27 0 -60 -1 -75 -1 -40 -1
-58 19 -58 63 0 43 20 63 83 80 28 7 37 15 35 27 -5 25 -45 27 -58 3 -13 -25
-48 -28 -57 -5 -8 21 28 67 58 75 35 10 33 10 68 -2z m295 -3 c36 -15 43 -28
48 -86 l3 -35 -63 -3 c-62 -3 -63 -3 -60 -30 3 -31 44 -44 54 -18 4 10 18 16
35 16 35 0 39 -25 10 -61 -15 -19 -29 -24 -66 -24 -39 0 -51 5 -71 28 -33 38
-35 150 -4 190 18 22 30 28 73 36 4 0 23 -5 41 -13z m193 3 c32 -12 43 -26 43
-56 0 -31 -45 -33 -53 -3 -7 26 -47 27 -47 1 0 -12 12 -23 33 -31 74 -30 97
-83 58 -131 -15 -19 -29 -24 -66 -24 -37 0 -51 5 -66 24 -28 34 -25 61 7 61
18 0 28 -6 31 -21 7 -25 46 -22 51 4 3 12 -9 23 -42 37 -76 32 -89 107 -23
135 39 17 39 17 74 4z m197 -3 c31 -13 53 -55 38 -71 -14 -14 -50 -3 -55 16
-4 13 -12 20 -24 17 -29 -5 -21 -32 15 -50 51 -25 72 -48 72 -78 0 -42 -29
-70 -77 -77 -35 -5 -45 -2 -67 20 -36 36 -35 67 3 67 20 0 30 -6 34 -20 7 -28
47 -27 47 0 0 15 -13 26 -45 40 -73 31 -85 108 -21 136 39 17 40 17 80 0z
m205 3 c17 -6 36 -19 41 -29 6 -10 10 -62 10 -115 l0 -97 -32 3 c-18 1 -48 -1
-66 -5 -50 -12 -82 13 -82 64 0 44 20 64 83 81 28 7 37 15 35 27 -5 25 -45 27
-58 3 -16 -30 -60 -28 -60 2 0 35 37 65 91 76 3 0 20 -4 38 -10z m318 -21 c17
-16 23 -33 23 -65 l0 -43 -61 0 c-60 0 -60 0 -57 -27 3 -32 44 -46 54 -19 8
20 64 22 64 2 0 -69 -102 -98 -158 -45 -19 17 -22 31 -22 98 0 68 3 80 23 98
12 11 29 23 37 26 25 10 73 -2 97 -25z m1001 -4 c18 -20 22 -37 22 -87 0 -84
-7 -105 -42 -123 -37 -19 -99 -11 -124 17 -23 26 -31 127 -13 170 25 61 112
74 157 23z m240 8 c8 -10 12 -52 12 -119 l0 -103 -30 0 -30 0 0 90 c0 75 -3
92 -17 97 -32 12 -53 -32 -53 -113 l0 -74 -30 0 -30 0 0 120 0 120 29 0 c16 0
31 -5 33 -11 2 -6 14 -5 33 5 33 17 63 13 83 -12z m530 -9 c15 -16 22 -37 22
-64 l0 -39 -61 0 c-60 0 -60 0 -57 -27 3 -32 44 -46 54 -19 4 10 18 16 35 16
35 0 40 -29 9 -60 -27 -27 -63 -34 -105 -20 -46 15 -55 34 -55 123 0 64 3 76
23 94 12 11 29 23 37 26 28 9 75 -5 98 -30z m757 6 c17 -16 21 -35 23 -120 l4
-100 -44 1 c-23 1 -54 -1 -68 -5 -35 -9 -80 27 -80 63 1 39 21 60 74 78 33 11
46 21 46 35 0 26 -36 25 -52 -1 -13 -20 -52 -27 -62 -12 -10 17 29 76 54 83
36 10 82 0 105 -22z m394 20 c36 -13 61 -53 61 -99 l0 -30 -59 0 c-65 0 -73
-5 -64 -38 6 -26 48 -31 57 -7 3 9 18 15 36 15 28 0 31 -3 25 -22 -4 -13 -18
-34 -33 -47 -21 -19 -33 -22 -65 -18 -59 8 -80 35 -85 107 -5 75 11 118 52
136 38 16 36 16 75 3z m249 0 l43 2 -3 -155 c-3 -134 -5 -157 -22 -175 -42
-46 -144 -35 -166 19 -7 16 -9 34 -5 39 10 18 44 12 57 -9 24 -38 78 -16 78
33 0 11 -11 13 -48 9 -44 -4 -51 -2 -70 23 -18 22 -22 41 -21 94 0 36 4 74 8
85 10 27 52 47 81 39 14 -3 44 -5 68 -4z m237 -20 c17 -16 21 -35 23 -120 l4
-100 -44 1 c-23 1 -55 -1 -70 -5 -21 -6 -32 -2 -52 18 -14 15 -26 38 -26 52 0
25 31 65 50 65 6 0 26 7 45 14 25 11 33 19 29 30 -9 23 -51 20 -59 -4 -4 -12
-15 -20 -29 -20 -32 0 -36 7 -24 42 20 56 107 71 153 27z m-3045 -99 l0 -120
-35 0 -35 0 0 120 0 120 35 0 35 0 0 -120z m1840 108 c0 -9 3 -9 12 0 16 16
83 15 96 0 5 -7 12 -60 14 -118 l3 -105 -32 -3 -33 -3 0 91 c0 72 -3 92 -15
96 -33 13 -45 -15 -45 -102 l0 -84 -35 0 -35 0 0 120 0 120 35 0 c21 0 35 -5
35 -12z m431 -5 c0 -10 8 -43 18 -73 l17 -55 18 73 c18 71 19 72 51 72 l33 0
-34 -117 c-69 -246 -66 -238 -103 -241 -28 -3 -32 -1 -28 15 31 106 31 95 -2
207 -18 59 -35 114 -38 122 -4 10 4 14 31 14 27 0 36 -4 37 -17z"/>
<path d="M6613 9773 c-20 -4 -23 -11 -23 -51 l0 -47 85 0 85 0 0 46 c0 40 -3
48 -22 53 -25 6 -90 6 -125 -1z"/>
<path d="M3932 8335 c-15 -32 -61 -35 -69 -5 -6 21 -37 27 -49 9 -15 -26 -99
-51 -148 -45 -80 9 -100 -27 -47 -86 29 -32 30 -32 67 -19 36 13 39 12 52 -8
19 -28 56 -27 70 2 9 19 11 15 11 -29 1 -69 18 -156 42 -210 16 -39 22 -44 41
-39 41 13 67 55 68 108 0 33 4 47 14 47 21 0 29 31 13 49 -8 9 -17 26 -20 39
-10 40 26 21 48 -26 12 -23 28 -49 37 -58 14 -14 16 -12 22 25 6 38 45 81 75
81 5 0 22 16 37 35 14 19 34 35 43 35 20 0 45 36 31 45 -6 3 -10 22 -10 41 0
32 -14 47 -22 23 -3 -9 -9 -9 -25 0 -33 17 -57 14 -121 -19 -33 -16 -66 -30
-74 -30 -8 0 -24 14 -36 30 -27 37 -35 37 -50 5z"/>
<path d="M1447 6679 c-44 -10 -89 -32 -111 -54 -14 -14 -11 -21 24 -68 85
-112 102 -271 37 -353 -20 -26 -20 -27 -1 -41 10 -9 51 -31 90 -50 175 -84
363 -38 437 107 26 49 28 62 24 122 -18 219 -272 391 -500 337z"/>
<path d="M872 6660 c-50 -23 -109 -81 -128 -127 -22 -52 -17 -140 10 -199 27
-57 102 -136 156 -164 99 -51 201 -62 292 -32 108 36 160 101 166 210 4 64 1
79 -24 127 -36 72 -109 139 -189 176 -56 25 -76 29 -152 29 -65 0 -99 -5 -131
-20z"/>
<path d="M805 5743 c26 -220 27 -223 46 -223 6 0 9 20 7 48 l-3 47 60 6 c78 8
94 16 102 47 15 62 -53 112 -154 112 l-63 0 5 -37z"/>
<path d="M1263 5690 c-92 -37 -46 -190 57 -190 43 0 70 8 70 21 0 5 -19 6 -42
3 -35 -5 -48 -2 -70 16 -48 37 -37 50 41 50 39 0 72 4 75 8 9 15 -24 68 -53
85 -32 19 -45 20 -78 7z"/>
<path d="M2970 5680 c0 -28 32 -206 40 -227 9 -21 17 -23 75 -23 52 0 69 4 85
20 26 26 25 52 -4 87 -19 22 -22 33 -14 47 14 24 2 63 -25 80 -31 21 -157 33
-157 16z"/>
<path d="M1676 5659 c-21 -17 -26 -29 -26 -66 0 -38 5 -50 34 -79 27 -27 42
-34 73 -34 42 0 84 22 65 34 -6 4 -21 2 -32 -4 -11 -6 -31 -8 -43 -4 -24 7
-67 43 -67 56 0 4 31 8 68 8 38 0 71 3 75 6 11 12 -16 65 -43 84 -36 26 -70
25 -104 -1z"/>
<path d="M2588 5627 c-42 -33 -26 -128 25 -162 29 -19 52 -22 85 -11 21 7 23
5 20 -21 -3 -27 -4 -28 -60 -26 -32 1 -58 0 -58 -2 0 -10 60 -35 82 -35 13 0
34 7 46 16 25 17 28 55 11 150 -15 87 -18 94 -42 94 -12 0 -38 2 -57 5 -22 3
-42 0 -52 -8z"/>
<path d="M4101 5613 c0 -10 10 -67 22 -128 16 -81 26 -111 38 -113 14 -3 14 4
3 59 -15 72 -11 87 24 96 19 4 30 1 44 -17 10 -12 18 -28 18 -36 0 -42 23
-114 37 -114 9 0 13 6 9 18 -2 9 -8 37 -11 62 -14 90 -44 118 -110 106 -33 -7
-34 -6 -40 39 -5 28 -12 45 -21 45 -8 0 -14 -8 -13 -17z"/>
<path d="M3734 5566 c-14 -11 -16 -18 -8 -26 8 -8 15 -7 27 4 19 19 58 21 75
4 22 -22 12 -35 -28 -41 -70 -9 -89 -43 -50 -85 25 -27 67 -38 90 -25 11 7 22
8 34 1 27 -15 29 -5 13 67 -22 95 -38 115 -90 115 -24 0 -52 -6 -63 -14z"/>
</g>
</svg>
