<?xml version="1.0" standalone="no"?>
<!DOCTYPE svg PUBLIC "-//W3C//DTD SVG 20010904//EN"
 "http://www.w3.org/TR/2001/REC-SVG-20010904/DTD/svg10.dtd">
<svg version="1.0" xmlns="http://www.w3.org/2000/svg"
 width="720.000000pt" height="1280.000000pt" viewBox="0 0 720.000000 1280.000000"
 preserveAspectRatio="xMidYMid meet">
<metadata>
Created by potrace 1.16, written by Peter Selinger 2001-2019
</metadata>
<g transform="translate(0.000000,1280.000000) scale(0.100000,-0.100000)"
fill="#000000" stroke="none">
<path d="M0 6400 l0 -6400 3600 0 3600 0 0 1082 c0 1078 0 1081 -20 1063 -11
-10 -25 -33 -32 -51 -16 -44 -27 -45 -377 -42 l-284 3 -3 55 c-4 63 -23 152
-58 260 -22 67 -27 75 -55 82 -38 10 -51 52 -52 166 -1 74 -2 80 -25 92 -15 8
-24 22 -24 37 0 15 -8 27 -23 34 -19 8 -22 16 -19 45 3 25 8 34 18 30 25 -10
15 10 -11 22 -14 6 -25 19 -25 27 0 9 -5 13 -10 10 -6 -4 -10 8 -10 27 0 19
-5 39 -11 45 -14 14 -7 59 9 55 13 -2 7 42 -8 63 -4 6 -24 60 -45 120 -20 61
-55 155 -77 210 -71 179 -78 198 -78 207 0 5 -11 33 -23 61 -13 29 -38 93 -55
142 -38 108 -149 406 -154 411 -4 3 -205 -71 -283 -105 -22 -10 -69 -28 -105
-41 -36 -13 -68 -29 -72 -34 -4 -6 -8 -7 -8 -2 0 5 -7 3 -15 -4 -21 -17 -22
-150 -1 -150 18 0 25 -20 19 -53 -5 -23 -2 -27 17 -27 18 0 20 -4 14 -17 -11
-23 -8 -134 4 -142 18 -12 32 -50 22 -56 -5 -3 -10 -15 -10 -27 0 -14 -5 -18
-15 -14 -23 8 -19 -24 12 -96 29 -67 65 -114 94 -123 23 -8 63 -74 60 -102 -3
-32 18 -38 29 -9 5 14 14 26 20 26 12 0 14 -57 1 -64 -4 -3 -11 -20 -15 -37
-5 -28 -8 -30 -23 -18 -15 13 -15 12 -4 -9 16 -31 51 -65 51 -51 0 7 -8 18
-17 25 -16 12 -16 13 -1 14 9 0 26 -12 37 -27 l20 -28 1 28 c0 15 5 27 10 27
14 0 31 -46 24 -64 -3 -8 3 -16 15 -19 12 -3 21 -10 21 -16 0 -19 -18 -12 -39
15 l-21 27 0 -25 c0 -14 7 -31 15 -38 11 -9 13 -16 6 -23 -7 -7 -15 -6 -26 3
-22 18 -18 -2 8 -41 13 -19 27 -43 31 -54 6 -14 10 -16 13 -7 3 8 0 24 -7 37
-7 12 -10 31 -8 41 2 14 10 6 27 -30 20 -40 21 -50 10 -57 -11 -7 -12 -12 -2
-28 13 -21 7 -81 -8 -81 -5 0 -9 -7 -9 -15 0 -16 8 -29 47 -71 29 -32 43 -58
42 -81 0 -10 -3 -13 -6 -5 -8 21 -20 13 -27 -19 -5 -26 -1 -36 20 -56 31 -29
43 -24 20 9 -9 12 -16 28 -16 35 0 21 28 15 35 -7 3 -11 11 -20 16 -20 5 0 9
-5 9 -12 0 -6 10 -22 21 -35 20 -21 21 -23 4 -29 -10 -4 -20 -1 -25 7 -5 7
-12 10 -16 6 -4 -4 2 -16 14 -27 12 -12 22 -27 22 -35 0 -23 -26 -18 -43 7
-11 17 -16 19 -16 8 -1 -9 8 -22 18 -29 11 -8 17 -19 15 -26 -3 -6 4 -31 15
-56 12 -24 20 -55 20 -69 0 -20 -2 -18 -14 13 -15 45 -25 57 -25 34 0 -10 -4
-17 -9 -17 -4 0 -6 -11 -3 -25 3 -16 0 -25 -8 -25 -7 0 -10 -6 -7 -13 3 -8 1
-20 -3 -28 -5 -7 -5 -18 0 -24 12 -15 15 -64 6 -92 -10 -30 -70 -35 -405 -31
l-273 3 -12 40 c-7 22 -28 108 -45 190 -18 83 -42 176 -53 208 -11 32 -17 61
-15 64 3 2 -3 23 -13 46 -11 25 -17 53 -13 72 4 23 2 27 -6 15 -9 -12 -11 -9
-10 15 1 17 -4 50 -10 75 -22 80 -102 342 -137 450 -19 58 -34 115 -34 127 0
28 61 133 78 133 6 0 12 -5 12 -12 0 -8 3 -9 10 -2 6 6 6 22 0 44 -6 19 -8 55
-5 80 4 32 2 51 -9 65 -18 25 -24 19 -28 -29 -1 -20 -6 -40 -11 -43 -5 -3 -7
5 -6 18 3 23 -7 48 -40 99 -10 14 -11 21 -4 17 18 -11 1 33 -29 76 -13 17 -24
34 -25 36 -6 11 -343 -109 -728 -259 -82 -32 -204 -79 -270 -104 -186 -69
-209 -81 -223 -110 -11 -24 -10 -27 6 -24 11 2 16 -3 14 -14 -2 -10 2 -18 7
-18 11 0 6 -67 -10 -131 -11 -46 -47 -89 -58 -70 -11 18 -19 -3 -41 -117 -20
-101 -30 -125 -30 -71 0 19 -4 39 -10 45 -6 6 -6 21 -1 41 7 23 6 33 -4 36
-26 11 -26 70 0 135 14 34 30 85 36 112 6 28 15 50 20 50 5 0 9 5 9 10 0 18
-26 11 -109 -27 -82 -39 -98 -56 -60 -66 19 -5 21 -11 15 -44 -16 -88 -26
-227 -18 -232 5 -3 4 -44 -1 -93 -9 -77 -13 -87 -31 -90 -19 -3 -21 -8 -17
-70 l3 -68 -70 0 c-39 0 -74 5 -77 10 -4 6 -11 8 -16 5 -5 -4 -9 1 -9 10 0 11
-6 15 -19 10 -15 -5 -22 3 -37 44 -10 28 -28 62 -41 76 -13 14 -21 25 -17 25
3 0 0 10 -8 23 -8 12 -23 43 -33 70 -10 26 -26 57 -36 69 -11 11 -19 29 -19
39 0 10 -7 22 -16 27 -15 8 -15 12 -2 31 8 11 18 18 21 14 4 -3 7 1 7 10 0 15
-3 15 -32 3 -18 -8 -53 -19 -77 -26 l-43 -11 20 -22 c29 -31 72 -127 72 -161
0 -34 -40 -109 -55 -102 -5 3 -44 19 -86 37 l-76 32 -44 -21 c-24 -11 -54 -23
-65 -26 -24 -7 -40 -40 -49 -102 -6 -36 -3 -44 17 -58 12 -9 34 -16 48 -16 14
0 31 -9 38 -20 13 -21 42 -28 42 -10 0 11 90 54 97 46 4 -4 -15 -31 -44 -61
-7 -8 -13 -18 -13 -24 0 -6 -8 -15 -19 -20 -15 -8 -25 -5 -49 19 -17 16 -48
36 -68 45 -41 17 -110 20 -119 5 -4 -6 -10 -8 -14 -6 -4 3 -13 1 -20 -3 -21
-13 5 -77 51 -127 l40 -43 -25 -6 c-52 -13 -148 17 -191 60 -8 9 -31 22 -51
30 -31 14 -35 14 -35 0 0 -8 4 -15 10 -15 5 0 27 -15 47 -33 21 -18 55 -40 76
-50 46 -21 48 -46 8 -88 -28 -29 -31 -30 -53 -15 -18 11 -37 13 -84 7 -70 -8
-114 -32 -114 -61 0 -11 -4 -20 -10 -20 -5 0 -10 -11 -10 -25 0 -24 -31 -51
-44 -38 -12 12 -4 -12 13 -42 13 -22 26 -31 49 -33 l32 -3 0 49 c0 46 -18 81
-33 66 -4 -4 -1 5 6 19 16 34 38 44 113 52 48 4 64 2 73 -9 12 -14 18 -13 52
4 31 16 39 26 39 48 0 22 7 30 43 44 64 26 81 26 82 3 0 -28 35 -31 89 -6 36
16 50 29 72 73 14 29 38 62 52 73 70 55 116 105 142 155 l28 55 11 -28 c6 -16
11 -56 11 -90 1 -34 7 -80 15 -102 21 -57 20 -58 -30 -51 -43 7 -45 6 -45 -17
0 -27 -41 -77 -64 -77 -8 0 -21 7 -30 15 -8 8 -22 12 -30 9 -9 -3 -16 -2 -16
3 0 15 23 33 42 33 10 0 18 6 18 13 0 8 -14 11 -45 9 -34 -3 -46 -9 -51 -24
-3 -11 -1 -25 5 -31 12 -12 -38 -47 -68 -47 -26 0 -35 -28 -17 -54 26 -40 51
-63 63 -59 10 3 11 -16 2 -37 -1 -5 -3 -21 -7 -102 -3 -48 -13 -48 -94 -4 -92
50 -136 54 -203 20 -30 -15 -58 -24 -63 -20 -11 12 36 45 81 56 88 22 116 41
129 82 8 29 8 47 0 77 -15 49 -33 64 -67 55 -24 -6 -26 -10 -21 -38 14 -72 15
-123 3 -125 -7 -1 -35 -4 -64 -7 -37 -4 -50 -10 -47 -19 3 -7 -4 -18 -15 -24
-27 -15 -29 -14 -23 14 2 14 0 25 -4 25 -14 0 -44 -59 -50 -99 l-6 -38 -97 -6
c-53 -3 -507 -6 -1008 -7 l-913 -1 1 488 c1 268 4 526 7 573 7 84 7 85 35 88
16 2 30 9 32 15 2 7 6 21 11 32 4 11 8 25 8 30 2 16 33 56 42 54 21 -4 31 3
47 30 10 17 26 32 35 36 10 3 29 23 41 45 14 25 35 46 55 54 19 8 58 39 89 69
63 62 87 75 88 49 0 -11 2 -12 6 -4 3 7 0 19 -7 27 -12 14 -5 55 12 66 12 8
28 104 38 219 9 118 50 305 90 410 10 25 26 74 38 110 30 95 91 261 106 290 7
14 25 46 38 71 14 25 29 56 33 70 8 25 88 192 105 219 45 71 89 206 97 293 3
40 9 74 13 77 13 9 24 105 24 205 -1 278 -6 455 -13 455 -13 0 -6 60 7 69 7 4
10 14 7 23 -7 19 202 438 523 1048 42 80 91 180 109 222 31 72 52 158 40 158
-3 0 -45 -40 -94 -88 -48 -49 -115 -111 -148 -138 -55 -46 -291 -214 -300
-214 -2 0 -24 -13 -48 -30 -25 -16 -48 -30 -51 -30 -4 0 -12 -5 -19 -10 -17
-15 -168 -93 -387 -201 -101 -50 -196 -99 -211 -110 -15 -10 -33 -19 -41 -19
-19 0 -48 -42 -82 -120 -16 -36 -32 -69 -36 -75 -4 -5 -11 -25 -15 -42 -4 -23
-12 -33 -25 -33 -21 0 -30 -27 -30 -97 0 -28 -5 -55 -10 -58 -6 -4 -24 -33
-40 -65 -31 -62 -36 -65 -115 -76 -33 -4 -58 -15 -75 -32 l-25 -24 -3 1523
c-1 838 0 1530 3 1537 4 10 699 12 3590 10 l3585 -3 0 1778 0 1777 -3600 0
-3600 0 0 -6400z m6795 3679 c153 -68 200 -265 96 -404 -25 -34 -27 -41 -14
-50 23 -17 -3 -53 -49 -67 -30 -9 -45 -8 -80 5 -34 13 -55 15 -98 8 -30 -5
-63 -13 -73 -16 -53 -21 -137 34 -107 70 11 13 9 19 -8 38 -85 90 -82 268 6
360 77 82 216 105 327 56z m-652 5 c52 -18 116 -76 143 -132 28 -55 26 -174
-4 -229 -50 -95 -136 -143 -256 -143 -209 0 -331 220 -222 402 25 42 43 59 94
85 54 28 75 33 131 33 37 0 88 -7 114 -16z m-5834 -111 c15 -56 71 -300 71
-307 0 -3 -15 -6 -33 -6 -28 0 -34 4 -42 32 -9 29 -14 32 -50 31 -36 0 -40 -3
-47 -31 -8 -28 -13 -32 -42 -32 l-34 0 14 58 c7 31 26 110 41 175 l27 117 43
0 c40 0 43 -2 52 -37z m401 -55 l1 -93 30 38 c23 27 39 37 60 37 16 0 29 -3
29 -6 0 -4 -16 -28 -35 -53 -30 -41 -33 -50 -21 -67 7 -10 25 -40 40 -66 l27
-48 -35 0 c-30 0 -38 5 -57 40 -13 22 -26 40 -31 40 -4 0 -8 -18 -8 -40 0 -38
-2 -40 -30 -40 l-30 0 0 175 0 175 30 0 30 0 0 -92z m1740 -83 l0 -176 -42 1
c-24 1 -55 -1 -69 -5 -19 -5 -33 -1 -55 18 -28 24 -29 29 -29 106 1 69 4 85
22 102 22 22 54 28 91 15 21 -7 22 -5 22 53 l0 61 30 0 30 0 0 -175z m452 83
l3 -92 25 37 c20 30 31 37 58 37 30 0 42 -12 24 -24 -5 -3 -21 -23 -36 -44
l-27 -40 40 -66 41 -66 -35 0 c-30 0 -38 5 -57 40 -13 22 -26 40 -30 40 -5 0
-8 -18 -8 -40 0 -39 -1 -40 -35 -40 l-35 0 0 168 c0 93 3 172 7 175 3 4 19 7
34 7 l28 0 3 -92z m728 28 l0 -65 35 15 c28 11 40 12 58 3 34 -18 37 -27 37
-136 l0 -103 -30 0 -30 0 0 90 c0 75 -3 92 -16 97 -37 14 -49 -10 -52 -101
l-3 -86 -29 0 -30 0 0 175 0 175 30 0 30 0 0 -64z m530 3 c0 -58 1 -60 23 -53
76 26 107 -8 107 -118 0 -71 -2 -81 -26 -105 -21 -21 -31 -24 -57 -18 -18 4
-49 6 -69 6 l-38 -2 0 176 0 175 30 0 30 0 0 -61z m-1482 -11 c3 -35 6 -38 33
-38 24 0 29 -4 29 -25 0 -21 -5 -25 -30 -25 l-31 0 3 -67 c3 -66 4 -68 31 -71
21 -3 27 -8 23 -19 -3 -8 -6 -19 -6 -24 0 -16 -73 -10 -92 8 -14 13 -18 31
-18 90 0 66 -2 75 -20 80 -13 3 -20 14 -20 29 0 17 6 24 20 24 17 0 20 7 20
41 0 38 1 40 28 37 23 -3 27 -8 30 -40z m-2094 -58 c24 -24 34 -122 17 -173
-15 -44 -59 -66 -97 -48 -14 6 -27 11 -29 11 -3 0 -5 -29 -5 -65 l0 -65 -30 0
-30 0 0 181 0 182 39 -6 c21 -2 45 -1 52 4 19 12 60 2 83 -21z m402 20 c8 0
23 -9 34 -20 17 -17 20 -33 20 -121 l0 -101 -32 3 c-18 1 -48 -1 -66 -5 -50
-12 -82 13 -82 64 0 44 20 64 83 81 28 7 37 15 35 27 -5 25 -45 27 -58 3 -13
-25 -48 -28 -57 -5 -13 34 56 90 95 78 8 -2 20 -4 28 -4z m293 -1 c38 -14 51
-35 51 -88 l0 -41 -61 0 c-60 0 -60 0 -57 -27 3 -32 44 -46 54 -19 4 10 18 16
35 16 35 0 39 -25 10 -61 -27 -34 -99 -34 -135 0 -23 22 -26 32 -26 96 0 79
20 120 63 128 12 2 25 5 28 6 3 0 20 -4 38 -10z m199 0 c29 -10 59 -59 45 -73
-15 -15 -51 -5 -56 15 -4 13 -12 20 -24 17 -31 -6 -27 -34 7 -48 78 -32 101
-82 61 -131 -15 -19 -29 -24 -66 -24 -37 0 -51 5 -66 24 -29 36 -25 61 11 61
24 0 30 -4 30 -21 0 -15 5 -20 22 -17 42 6 33 36 -16 58 -54 23 -75 57 -60 98
9 25 45 52 70 52 6 0 25 -5 42 -11z m219 -13 c6 -6 13 -22 15 -36 2 -21 -2
-26 -23 -28 -20 -2 -28 2 -32 18 -4 14 -12 21 -24 18 -29 -5 -21 -32 15 -50
73 -36 92 -81 53 -129 -15 -19 -29 -24 -66 -24 -37 0 -51 5 -66 24 -29 36 -25
61 10 61 21 0 30 -6 34 -21 7 -25 40 -22 45 4 3 12 -9 23 -42 37 -51 21 -70
54 -60 97 12 45 104 65 141 29z m182 13 c17 -6 36 -19 41 -29 6 -10 10 -62 10
-116 l0 -97 -40 6 c-22 3 -43 1 -46 -4 -8 -14 -47 -11 -72 7 -16 11 -22 25
-22 54 0 44 20 64 83 81 28 7 37 15 35 27 -5 25 -45 27 -58 3 -13 -25 -48 -28
-57 -5 -8 23 16 62 46 73 35 13 43 13 80 0z m319 -22 c16 -15 22 -32 22 -64
l0 -43 -61 0 c-60 0 -60 0 -57 -27 3 -32 44 -46 54 -19 8 20 64 22 64 2 0 -69
-102 -98 -158 -45 -19 17 -22 31 -22 98 0 68 3 80 23 98 12 11 29 23 37 26 25
9 73 -4 98 -26z m1000 -3 c19 -21 22 -36 22 -99 0 -70 -1 -74 -32 -100 -27
-23 -39 -26 -71 -22 -59 8 -80 35 -85 107 -3 36 1 72 9 91 24 60 111 73 157
23z m240 9 c8 -11 12 -53 12 -120 l0 -103 -30 0 -30 0 0 90 c0 75 -3 92 -17
97 -32 12 -53 -32 -53 -113 l0 -74 -30 0 -30 0 0 120 0 120 29 0 c16 0 31 -5
33 -12 3 -8 11 -7 29 5 27 20 67 15 87 -10z m530 -9 c15 -17 22 -38 22 -65 l0
-39 -61 0 c-60 0 -60 0 -57 -27 3 -32 44 -46 54 -19 4 10 18 16 35 16 35 0 40
-29 9 -60 -27 -27 -63 -34 -105 -20 -46 15 -55 34 -55 123 0 64 3 76 23 94 12
11 29 23 37 26 28 11 75 -3 98 -29z m542 10 c11 -11 15 -39 15 -117 l0 -102
-32 -3 -33 -3 0 91 c0 72 -3 92 -15 96 -33 13 -45 -15 -45 -102 l0 -84 -35 0
-35 0 0 120 0 120 35 0 c19 0 35 -4 35 -9 0 -6 12 -3 28 4 29 16 58 12 82 -11z
m215 -5 c17 -16 21 -36 23 -120 l4 -100 -44 1 c-23 1 -54 -1 -68 -5 -34 -9
-80 27 -80 61 0 42 17 62 70 79 37 12 50 22 50 36 0 26 -36 25 -52 -1 -12 -19
-48 -27 -61 -14 -3 3 -1 19 5 36 20 56 108 72 153 27z m394 20 c36 -13 61 -53
61 -99 l0 -30 -59 0 c-63 0 -76 -8 -66 -40 8 -24 55 -28 55 -5 0 11 11 15 36
15 32 0 35 -2 29 -22 -4 -13 -18 -34 -33 -47 -21 -19 -33 -22 -65 -18 -60 8
-80 35 -85 109 -5 79 9 115 50 133 41 17 38 17 77 4z m204 -3 c15 -8 27 -11
27 -5 0 5 14 9 31 9 l30 0 -3 -154 c-3 -134 -5 -157 -22 -175 -42 -46 -144
-35 -166 19 -7 16 -9 34 -5 39 10 18 44 12 57 -9 27 -42 78 -15 78 41 0 18 -3
20 -12 11 -7 -7 -29 -12 -49 -12 -56 0 -79 34 -79 116 0 72 13 107 44 122 29
14 37 14 69 -2z m285 -22 c19 -22 22 -36 22 -120 l0 -95 -42 1 c-24 1 -54 -1
-68 -5 -36 -9 -80 27 -80 65 0 27 32 70 52 70 5 0 24 7 43 14 25 11 33 19 29
30 -9 22 -41 20 -56 -4 -18 -29 -58 -27 -58 3 0 73 105 101 158 41z m-3048
-94 l0 -120 -35 0 -35 0 0 113 c0 63 3 117 7 120 3 4 19 7 35 7 l28 0 0 -120z
m2280 63 c19 -90 25 -92 45 -14 18 68 20 71 48 71 28 0 29 -2 23 -33 -3 -19
-25 -99 -49 -178 l-42 -144 -34 -3 c-28 -3 -33 -1 -27 14 28 74 28 99 -3 207
-18 59 -34 113 -37 122 -5 12 2 15 28 15 34 0 35 -1 48 -57z m-1155 -6652 c-8
-26 18 -34 52 -16 15 8 46 15 69 15 44 0 80 -29 123 -102 12 -21 47 -61 77
-90 29 -29 54 -60 54 -68 0 -8 -35 -37 -78 -64 -42 -26 -91 -65 -108 -86 -30
-37 -31 -43 -38 -168 -4 -71 -4 -152 0 -180 4 -34 2 -62 -6 -83 -15 -35 -4
-49 38 -49 25 0 62 -32 62 -54 0 -8 -13 -17 -29 -21 -15 -3 -38 -17 -50 -30
-11 -14 -26 -25 -32 -25 -8 0 -7 -5 2 -16 10 -12 25 -15 56 -11 42 4 43 4 43
-24 0 -23 -5 -29 -21 -29 -15 0 -20 -5 -17 -17 4 -16 -7 -18 -112 -21 l-117
-4 -54 57 c-30 31 -56 62 -59 68 -3 7 -17 30 -31 52 -14 22 -32 58 -40 80 -7
22 -17 45 -21 51 -24 33 -40 122 -34 187 7 72 15 96 45 126 17 17 19 17 29 -8
l10 -26 1 28 c1 39 18 67 40 67 14 0 17 -6 14 -24 -3 -16 2 -31 16 -45 17 -17
29 -20 64 -15 63 9 67 11 67 41 0 38 -47 63 -122 66 -40 1 -54 6 -51 15 3 6
-2 12 -11 12 -9 0 -16 8 -16 17 0 9 -3 13 -7 9 -5 -4 -8 -11 -8 -15 0 -14 -30
-38 -43 -33 -16 5 -16 59 0 64 8 3 12 22 11 50 -2 33 3 53 17 70 12 14 19 18
20 9 1 -41 70 101 70 144 0 19 48 74 85 96 38 24 48 24 40 0z m465 -360 c0
-12 -63 -61 -78 -61 -18 0 -14 -27 5 -34 12 -5 13 -10 5 -18 -21 -21 5 -48 46
-49 20 0 32 -3 25 -5 -16 -7 5 -67 22 -60 7 2 33 8 59 11 59 9 63 -1 33 -85
-23 -64 -23 -65 -62 -67 -36 -3 -42 1 -62 33 -13 19 -23 39 -23 44 0 5 -19 22
-42 38 -62 43 -77 63 -76 101 1 18 -5 36 -11 41 -20 12 2 45 44 64 19 10 33
21 30 27 -4 5 -3 14 0 19 8 13 85 13 85 1z"/>
<path d="M6613 9773 c-20 -4 -23 -11 -23 -51 l0 -47 85 0 85 0 0 46 c0 40 -3
48 -22 53 -25 6 -90 6 -125 -1z"/>
<path d="M4077 7942 c-8 -20 -20 -56 -26 -80 -6 -23 -16 -60 -21 -82 -7 -27
-19 -43 -38 -52 -15 -7 -40 -35 -57 -62 -64 -103 -90 -140 -102 -144 -16 -5
-17 34 -2 43 6 4 24 25 40 47 33 47 39 88 11 88 -26 0 -67 -46 -102 -118 -32
-64 -56 -84 -40 -34 4 15 18 71 30 125 18 80 25 97 40 97 10 0 22 5 25 10 3 6
-4 10 -16 10 -18 0 -21 4 -17 30 7 48 -8 45 -27 -4 -11 -27 -25 -47 -39 -51
-19 -6 -19 -8 -3 -12 15 -4 17 -11 12 -36 -18 -88 -49 -187 -61 -198 -17 -14
-17 -14 2 61 8 34 13 64 10 67 -11 12 -34 -19 -45 -60 -10 -40 -51 -113 -51
-92 0 6 9 42 20 80 29 103 60 240 60 264 0 61 -36 -24 -71 -166 -7 -29 -17
-53 -22 -53 -20 0 -66 -42 -81 -75 -9 -19 -21 -35 -26 -35 -6 0 -19 -20 -31
-45 -33 -71 -100 -113 -99 -62 1 12 6 49 13 82 12 55 15 61 47 71 19 6 36 16
38 23 5 14 0 14 -34 1 -26 -10 -26 -10 -21 19 13 66 35 101 61 101 20 0 26 -5
26 -21 0 -12 5 -19 12 -17 15 5 29 66 17 73 -9 6 -129 -22 -150 -36 -12 -8
-12 -10 0 -18 12 -7 12 -17 2 -57 -7 -27 -17 -54 -23 -62 -6 -7 -12 -27 -14
-45 -1 -17 -9 -61 -17 -97 -8 -36 -10 -67 -5 -68 5 -2 40 4 77 13 64 15 70 19
84 53 14 36 15 36 16 10 1 -39 27 -36 52 7 24 41 32 44 23 11 -9 -39 13 -40
38 -2 23 36 42 49 32 21 -3 -8 -2 -20 2 -26 5 -9 18 0 42 27 19 21 31 34 28
27 -7 -13 2 -43 13 -43 4 0 20 21 36 46 l29 46 8 -31 c12 -46 42 -41 81 15 29
42 32 44 35 22 7 -48 24 -45 60 12 l23 35 -6 -32 c-4 -21 -3 -33 4 -33 19 0
109 135 98 146 -2 3 -16 -14 -30 -38 -15 -24 -26 -38 -27 -31 0 6 18 83 40
170 22 87 42 166 44 175 8 35 -12 27 -27 -10z"/>
<path d="M4820 7721 c-203 -11 -300 -22 -300 -33 0 -6 16 -7 38 -4 157 25 645
33 917 16 362 -24 734 -77 1041 -150 195 -47 450 -123 608 -184 78 -30 76 -29
76 -17 0 33 -536 190 -885 260 -457 92 -1045 135 -1495 112z"/>
<path d="M4413 7165 c-15 -17 -16 -89 -2 -160 5 -27 14 -111 20 -185 9 -110
14 -139 30 -156 12 -13 19 -36 20 -65 l1 -44 10 45 c7 30 7 72 -1 130 -6 48
-11 105 -11 127 0 23 -6 48 -13 55 -19 19 -30 65 -16 70 8 3 7 32 -2 101 -7
53 -16 97 -19 97 -3 -1 -11 -7 -17 -15z"/>
<path d="M4930 6921 c-74 -15 -133 -61 -178 -138 -23 -39 -35 -49 -63 -54 -42
-7 -77 -25 -101 -53 -20 -23 -19 -71 2 -141 27 -87 -13 -240 -54 -205 -25 20
2 -81 31 -118 16 -20 31 -41 36 -46 9 -14 27 12 27 40 0 12 8 32 18 44 17 21
19 21 35 5 11 -11 17 -33 17 -65 0 -65 16 -72 56 -25 35 42 59 43 70 0 5 -18
11 -24 24 -20 9 3 34 -2 55 -10 37 -16 37 -17 33 -64 -3 -28 -14 -62 -27 -80
-23 -31 -15 -44 10 -15 7 8 30 25 52 36 32 16 45 18 63 9 13 -6 24 -17 24 -25
0 -9 9 -20 20 -26 11 -6 20 -19 20 -30 0 -24 -43 -75 -94 -111 -51 -38 -40
-37 24 1 28 17 57 30 65 30 43 0 19 -112 -39 -178 -27 -31 -27 -34 -6 -19 35
24 72 21 113 -10 20 -16 54 -39 76 -52 27 -17 50 -43 71 -82 60 -113 125 -139
209 -83 38 24 40 25 70 9 17 -8 31 -20 31 -25 0 -18 40 -32 56 -19 23 19 16
55 -21 99 -29 35 -34 48 -33 87 2 40 -1 48 -32 73 -29 24 -35 36 -35 67 0 34
-3 39 -33 48 -64 21 -66 46 -5 72 44 18 81 10 129 -28 52 -41 61 -38 66 24 5
69 2 78 -35 102 -20 13 -48 52 -81 115 -46 85 -56 97 -97 117 -33 15 -55 35
-76 70 -26 42 -37 51 -94 71 -68 24 -133 28 -187 13 -28 -8 -36 -6 -63 16 -27
23 -35 25 -82 18 -88 -12 -92 -11 -92 9 0 20 9 27 62 46 18 7 35 22 39 34 24
79 90 73 180 -17 30 -31 46 -34 64 -12 18 22 32 19 62 -15 34 -38 74 -41 88
-5 11 30 2 59 -39 118 -56 83 -71 123 -71 191 0 58 -3 67 -27 86 -24 19 -35
21 -83 15 -105 -13 -105 -13 -108 20 -6 64 -11 74 -50 84 -41 12 -41 12 -92 2z"/>
<path d="M2715 5149 c-110 -22 -184 -50 -211 -79 -15 -16 -39 -32 -53 -35 -20
-5 -22 -8 -11 -15 12 -7 12 -12 2 -22 -29 -29 -13 -28 96 3 79 23 108 25 162
12 30 -7 75 -12 98 -13 24 0 74 -9 110 -19 37 -11 79 -22 95 -25 23 -6 27 -11
27 -42 0 -19 5 -44 11 -56 23 -43 143 -65 185 -33 27 20 58 18 80 -6 l18 -20
8 22 c8 20 9 20 33 5 13 -9 27 -16 30 -16 3 0 20 24 39 53 43 67 129 149 134
126 2 -9 -9 -47 -23 -84 -31 -84 -31 -88 2 -46 29 37 83 64 108 55 17 -7 58
23 50 37 -3 4 -29 15 -58 24 -28 10 -62 24 -75 32 -13 8 -55 21 -95 28 -40 8
-105 26 -145 40 -48 16 -96 25 -136 25 -39 0 -95 10 -147 26 -95 29 -251 40
-334 23z"/>
<path d="M4227 5067 c-10 -16 -34 -43 -54 -62 -26 -24 -34 -39 -30 -54 6 -24
-11 -29 -19 -6 -7 18 -24 10 -24 -11 0 -9 11 -14 30 -14 34 0 40 -15 10 -25
-24 -8 -25 -13 -4 -53 14 -29 20 -32 59 -32 24 0 50 -2 58 -6 8 -3 21 5 31 20
13 21 14 24 1 20 -29 -12 -15 15 30 54 25 22 45 42 45 45 0 3 -15 0 -34 -8
-62 -26 -74 -10 -78 100 l-3 59 -18 -27z"/>
<path d="M2544 3050 c-12 -5 -32 -31 -45 -59 -26 -53 -62 -78 -101 -68 -113
28 -120 29 -149 17 -16 -7 -29 -16 -29 -20 0 -10 102 -50 146 -57 70 -12 156
38 191 108 40 82 37 99 -13 79z"/>
<path d="M1833 2764 c-7 -7 -13 -19 -13 -26 0 -7 -7 -22 -15 -32 -43 -57 20
-214 110 -275 l50 -34 -60 7 c-33 4 -68 7 -77 7 -10 0 -18 7 -18 15 0 8 -6 14
-12 14 -7 0 -33 14 -57 30 -24 17 -56 30 -70 30 -30 0 -71 24 -121 70 -19 18
-45 41 -56 52 -15 13 -29 17 -47 13 -35 -9 -25 -27 29 -54 25 -13 57 -34 71
-47 l26 -24 -39 -2 c-21 0 -47 0 -57 0 -13 2 -17 -4 -15 -15 3 -15 14 -18 63
-18 49 0 70 -6 115 -31 30 -17 77 -34 104 -38 27 -3 51 -8 53 -9 5 -5 -39
-130 -51 -146 -6 -8 -11 -23 -11 -34 0 -12 -12 -28 -30 -38 -30 -18 -31 -18
-100 15 -39 18 -108 48 -154 67 -52 21 -77 35 -65 38 50 9 49 32 -4 136 -41
81 -96 144 -112 128 -10 -9 -5 -18 19 -40 41 -36 105 -167 85 -171 -8 -2 -29
6 -47 17 -54 33 -85 75 -92 125 -5 28 -12 46 -21 46 -24 0 -25 -20 -5 -75 24
-63 70 -119 120 -145 l34 -17 -42 -7 c-46 -7 -56 -26 -13 -26 16 0 32 -3 36
-7 4 -5 11 -8 14 -8 18 -2 93 -30 150 -58 49 -23 62 -35 62 -52 0 -20 -5 -23
-32 -20 -56 4 -151 26 -180 41 -31 16 -78 19 -78 4 0 -5 -4 -10 -10 -10 -5 0
-10 7 -10 16 0 8 -5 12 -10 9 -11 -7 -14 -58 -4 -68 3 -3 21 1 38 10 31 14 37
14 109 -11 46 -16 97 -26 131 -26 31 0 65 -6 76 -12 16 -10 24 -10 38 0 9 7
30 17 45 23 18 7 25 14 17 19 -7 4 1 15 23 30 44 30 78 80 82 122 1 18 6 50
10 71 6 33 11 38 29 33 34 -8 162 -10 175 -2 17 11 6 22 -46 48 -56 28 -107
85 -141 158 -29 64 -33 87 -16 94 13 5 38 80 32 96 -2 4 -9 2 -15 -6z"/>
</g>
</svg>
