<?xml version="1.0" standalone="no"?>
<!DOCTYPE svg PUBLIC "-//W3C//DTD SVG 20010904//EN"
 "http://www.w3.org/TR/2001/REC-SVG-20010904/DTD/svg10.dtd">
<svg version="1.0" xmlns="http://www.w3.org/2000/svg"
 width="720.000000pt" height="1280.000000pt" viewBox="0 0 720.000000 1280.000000"
 preserveAspectRatio="xMidYMid meet">
<metadata>
Created by potrace 1.16, written by Peter Selinger 2001-2019
</metadata>
<g transform="translate(0.000000,1280.000000) scale(0.100000,-0.100000)"
fill="#000000" stroke="none">
<path d="M0 6400 l0 -6400 3600 0 3600 0 0 1025 0 1024 -3440 3 c-2495 2
-3443 6 -3448 14 -4 6 -43 14 -87 18 -44 4 -82 11 -83 17 -2 5 -12 9 -23 9
-19 0 -49 46 -49 74 0 9 -6 13 -15 10 -9 -4 -15 -24 -17 -62 -2 -32 -7 159
-12 423 -9 506 -1 3890 10 3963 4 23 12 42 19 42 17 0 25 33 25 113 0 60 -2
67 -20 67 -11 0 -20 7 -20 15 0 9 9 15 25 15 18 0 25 -5 25 -20 0 -15 5 -19
22 -16 13 3 29 5 36 5 8 1 12 22 12 71 0 63 -2 70 -20 70 -27 0 -25 18 3 22
19 3 22 10 25 55 3 56 11 63 77 67 30 1 34 16 5 16 -13 0 -20 7 -20 20 0 14 7
20 24 20 23 0 24 2 19 60 l-6 60 32 6 c21 5 31 12 31 25 0 28 17 23 24 -6 l6
-25 30 30 c17 17 30 37 30 45 0 8 8 15 19 15 26 0 36 50 13 68 -12 9 -14 15
-5 20 6 4 13 21 15 37 2 19 8 29 16 27 8 -1 16 6 19 17 3 11 11 22 19 25 8 3
14 12 14 21 0 8 7 15 15 15 8 0 15 7 15 15 0 8 4 15 9 15 5 0 24 26 41 58 38
68 30 58 58 66 20 7 22 4 22 -26 l1 -33 14 33 c8 17 21 32 30 32 8 0 15 7 15
15 0 8 8 24 17 34 43 47 47 55 35 59 -22 7 -13 51 18 85 17 19 30 40 30 46 0
6 7 11 15 11 8 0 15 7 15 15 0 8 5 15 10 15 6 0 10 9 10 20 0 11 5 20 10 20 6
0 10 18 10 40 0 33 3 40 20 40 17 0 20 7 20 40 0 29 4 40 15 40 8 0 15 7 15
16 0 9 9 18 20 21 13 3 20 14 20 29 0 17 6 24 19 24 16 0 21 10 27 48 4 28 14
52 25 60 11 7 19 20 19 28 0 8 5 14 11 14 18 0 36 25 44 61 10 47 24 71 25 42
0 -14 6 -23 15 -23 8 0 15 9 15 20 0 13 7 20 18 20 18 0 42 37 42 65 0 8 9 15
19 15 11 0 23 5 27 11 5 8 -1 10 -20 7 -28 -6 -36 6 -11 16 8 3 15 15 15 26 0
11 7 20 15 20 8 0 15 6 15 13 0 7 24 21 53 31 46 16 53 21 52 44 0 20 6 28 21
30 12 2 24 12 27 24 4 13 11 19 21 15 8 -3 17 1 20 9 3 8 18 14 33 14 26 0 26
1 7 15 -18 14 -18 14 9 15 16 0 26 4 22 10 -13 21 7 59 34 65 15 3 35 16 44
29 12 15 25 22 37 19 15 -4 23 4 37 35 14 34 22 41 55 46 21 3 38 11 38 16 0
6 7 10 15 10 9 0 18 7 21 15 4 8 17 15 30 15 13 0 24 5 24 10 0 6 15 10 33 10
18 0 57 6 87 14 30 8 107 17 170 21 247 15 178 23 -219 24 -228 0 -412 3 -410
5 11 9 1420 16 3407 16 l2182 0 0 1775 0 1775 -3600 0 -3600 0 0 -6400z m6782
3684 c50 -17 112 -73 138 -125 44 -85 32 -202 -29 -284 -25 -34 -27 -41 -14
-50 14 -10 14 -14 -2 -38 -22 -35 -88 -46 -136 -23 -29 13 -43 14 -94 4 -106
-20 -142 -17 -169 17 -22 27 -22 31 -7 41 15 11 14 14 -6 36 -38 40 -63 108
-63 172 0 78 16 128 58 176 77 90 199 118 324 74z m-639 0 c52 -18 116 -76
142 -130 22 -47 30 -130 16 -180 -32 -119 -134 -194 -265 -194 -165 0 -272
106 -270 266 2 153 105 252 265 253 36 1 86 -6 112 -15z m-5839 -91 c10 -34
76 -315 76 -324 0 -5 -16 -9 -35 -9 -30 0 -35 3 -35 24 0 31 -13 39 -59 39
-31 0 -36 -3 -43 -31 -8 -28 -13 -32 -42 -32 l-34 0 14 58 c7 31 25 110 40
175 l28 117 42 0 c32 0 44 -4 48 -17z m406 -75 l1 -93 30 38 c23 27 39 37 60
37 16 0 29 -3 29 -6 0 -4 -16 -28 -35 -54 l-34 -47 28 -45 c56 -89 56 -88 17
-88 -30 0 -38 5 -57 40 -26 45 -39 43 -39 -6 0 -31 -2 -34 -30 -34 l-30 0 0
175 0 175 30 0 30 0 0 -92z m1740 -83 l0 -176 -42 1 c-24 1 -55 -1 -69 -5 -19
-5 -33 -1 -55 18 -27 24 -29 29 -29 106 0 69 3 84 21 102 23 22 55 28 92 15
21 -7 22 -5 22 53 l0 61 30 0 30 0 0 -175z m452 83 l3 -92 25 37 c20 30 31 37
58 37 30 0 42 -12 24 -24 -5 -3 -21 -23 -36 -44 l-27 -40 41 -66 41 -67 -38 3
c-32 3 -41 9 -58 40 -26 49 -35 48 -35 -2 0 -39 -1 -40 -35 -40 l-35 0 0 175
0 175 35 0 34 0 3 -92z m728 28 l0 -65 35 15 c28 11 40 12 58 3 34 -18 37 -27
37 -136 l0 -103 -30 0 -30 0 0 90 c0 75 -3 92 -16 97 -37 14 -49 -10 -52 -101
l-3 -86 -29 0 -30 0 0 175 0 175 30 0 30 0 0 -64z m530 3 c0 -58 1 -60 23 -53
76 26 107 -8 107 -118 0 -71 -2 -81 -26 -105 -20 -20 -31 -24 -52 -18 -15 4
-46 6 -69 5 l-43 -1 0 176 0 175 30 0 30 0 0 -61z m-1480 -9 c0 -38 2 -40 30
-40 25 0 30 -4 30 -25 0 -21 -5 -25 -30 -25 l-31 0 3 -67 c3 -66 4 -68 31 -71
21 -3 27 -8 23 -19 -3 -8 -6 -19 -6 -24 0 -16 -73 -10 -92 8 -14 13 -18 31
-18 90 0 66 -2 75 -20 80 -13 3 -20 14 -20 29 0 17 6 24 20 24 17 0 20 7 20
40 0 38 2 40 30 40 28 0 30 -2 30 -40z m-2096 -61 c24 -23 34 -121 17 -172
-15 -44 -59 -66 -97 -48 -14 6 -27 11 -29 11 -3 0 -5 -29 -5 -65 l0 -65 -30 0
-30 0 0 181 0 182 38 -5 c20 -3 46 -2 57 3 26 10 55 2 79 -22z m405 20 c17 -6
36 -19 41 -29 6 -10 10 -62 10 -115 l0 -97 -32 3 c-18 1 -48 -1 -66 -5 -50
-12 -82 13 -82 64 0 44 20 64 83 81 28 7 37 15 35 27 -5 25 -45 27 -58 3 -13
-25 -48 -28 -57 -5 -8 21 28 67 58 75 35 10 33 10 68 -2z m287 1 c39 -15 53
-39 54 -87 l0 -43 -61 0 c-60 0 -60 0 -57 -27 3 -32 44 -46 54 -19 9 23 64 21
64 -2 0 -51 -67 -84 -124 -62 -45 17 -55 38 -56 116 0 78 20 119 63 127 12 2
25 5 29 6 4 0 19 -4 34 -9z m201 -1 c32 -12 43 -26 43 -56 0 -31 -45 -33 -53
-2 -7 24 -40 23 -45 -2 -2 -10 9 -21 30 -29 75 -30 98 -83 59 -131 -40 -50
-151 -22 -151 38 0 19 5 23 30 23 24 0 30 -4 30 -21 0 -15 5 -20 22 -17 42 6
33 36 -16 58 -76 32 -89 107 -23 135 39 17 39 17 74 4z m202 -4 c26 -13 46
-56 33 -70 -14 -14 -50 -3 -55 16 -4 13 -12 20 -24 17 -29 -5 -21 -32 15 -50
73 -36 92 -81 53 -129 -15 -19 -29 -24 -66 -24 -37 0 -51 5 -66 24 -29 36 -25
61 10 61 21 0 30 -6 34 -21 7 -25 40 -22 45 4 3 12 -9 23 -42 37 -74 31 -86
108 -22 136 40 17 51 17 85 -1z m200 4 c17 -6 36 -19 41 -29 6 -10 10 -62 10
-115 l0 -97 -32 3 c-18 1 -48 -1 -66 -5 -50 -12 -82 13 -82 64 0 44 20 64 83
81 28 7 37 15 35 27 -5 25 -45 27 -58 3 -11 -22 -44 -28 -55 -11 -12 20 8 59
38 74 38 19 45 19 86 5z m319 -22 c16 -15 22 -32 22 -64 l0 -43 -61 0 c-60 0
-60 0 -57 -27 3 -32 44 -46 54 -19 9 23 64 21 64 -2 0 -49 -66 -84 -121 -64
-50 20 -59 37 -59 121 0 68 3 80 23 98 12 11 29 23 37 26 25 9 73 -4 98 -26z
m1000 -3 c18 -21 22 -36 22 -98 0 -77 -15 -107 -61 -121 -31 -10 -84 3 -105
26 -23 26 -31 127 -13 170 24 60 111 73 157 23z m240 8 c8 -10 12 -52 12 -119
l0 -103 -30 0 -30 0 0 90 c0 75 -3 92 -17 97 -32 12 -53 -32 -53 -113 l0 -74
-30 0 -30 0 0 120 0 120 29 0 c16 0 31 -5 33 -11 2 -6 14 -5 33 5 33 17 63 13
83 -12z m530 -8 c15 -17 22 -38 22 -65 l0 -39 -61 0 c-60 0 -60 0 -57 -27 3
-32 44 -46 54 -19 4 10 18 16 35 16 22 0 29 -5 29 -20 0 -42 -64 -79 -115 -66
-52 13 -65 39 -65 124 0 69 3 81 23 99 12 11 29 23 37 26 28 11 75 -3 98 -29z
m539 12 c7 -6 13 -53 15 -116 l3 -105 -32 -3 -33 -3 0 91 c0 72 -3 92 -15 96
-33 13 -45 -15 -45 -102 l0 -84 -35 0 -35 0 0 120 0 120 35 0 c19 0 35 -4 35
-9 0 -6 12 -3 28 4 28 15 58 12 79 -9z m221 -12 c19 -22 22 -36 22 -120 l0
-95 -42 1 c-24 1 -54 -1 -68 -5 -34 -9 -80 27 -80 61 0 41 18 63 63 75 52 15
67 26 60 45 -8 21 -41 17 -55 -6 -12 -19 -48 -27 -60 -14 -15 14 11 60 43 77
43 22 86 16 117 -19z m391 25 c36 -13 61 -53 61 -99 l0 -30 -59 0 c-65 0 -73
-5 -64 -38 6 -26 53 -32 53 -7 0 11 11 15 36 15 32 0 35 -2 29 -22 -13 -43
-42 -63 -90 -63 -64 0 -87 27 -93 105 -5 75 11 118 52 136 38 16 36 16 75 3z
m204 -3 c15 -8 27 -11 27 -5 0 5 14 9 30 9 l30 0 0 -149 c0 -134 -2 -151 -20
-174 -41 -52 -147 -44 -170 13 -7 16 -9 34 -5 39 9 15 46 7 60 -12 27 -37 75
-10 75 43 0 17 -3 19 -19 10 -36 -19 -78 -12 -100 16 -16 21 -21 41 -21 88 0
85 8 106 44 122 39 17 36 17 69 0z m285 -22 c19 -22 22 -36 22 -120 l0 -95
-42 1 c-24 1 -54 -1 -68 -5 -35 -9 -80 27 -80 64 0 39 19 60 70 75 33 10 46
19 48 35 4 28 -31 29 -51 0 -22 -30 -63 -23 -59 11 10 70 109 91 160 34z
m-3048 -94 l0 -120 -35 0 -35 0 0 113 c0 63 3 117 7 120 3 4 19 7 35 7 l28 0
0 -120z m2280 63 c19 -91 25 -93 45 -14 17 70 18 71 50 71 l33 0 -52 -177 -51
-178 -33 -3 c-29 -3 -33 -1 -29 15 31 106 31 95 -2 207 -18 59 -35 114 -38
122 -4 10 4 14 29 14 34 0 35 -1 48 -57z"/>
<path d="M6613 9773 c-20 -4 -23 -11 -23 -51 l0 -47 85 0 85 0 0 46 c0 40 -3
48 -22 53 -25 6 -90 6 -125 -1z"/>
<path d="M1006 6898 c-3 -13 -6 -43 -6 -68 0 -25 -4 -63 -9 -85 -5 -22 -12
-65 -15 -95 -12 -107 -26 -216 -36 -280 -5 -36 -10 -99 -10 -140 0 -41 -4
-111 -10 -155 -22 -179 -42 -354 -60 -532 -10 -103 -31 -296 -45 -427 -15
-132 -24 -249 -21 -260 3 -11 -2 -65 -10 -119 -13 -77 -13 -101 -4 -107 6 -4
40 -10 73 -14 122 -13 374 -36 464 -42 l91 -7 25 39 c14 22 33 59 43 84 9 25
22 52 29 60 22 28 65 137 65 164 0 15 -12 62 -26 104 -38 114 -43 156 -33 277
8 104 31 292 45 362 6 29 4 32 -17 29 -54 -7 -59 -15 -59 -79 0 -49 -5 -66
-25 -93 -14 -18 -25 -37 -25 -42 0 -5 -7 -16 -17 -23 -9 -8 -22 -29 -30 -46
-7 -18 -17 -33 -22 -33 -5 0 -7 -13 -5 -29 4 -25 1 -30 -18 -33 -15 -2 -22 -9
-20 -20 2 -10 -2 -18 -8 -18 -5 0 -10 -6 -10 -14 0 -23 -41 -87 -51 -80 -5 3
-6 -3 -2 -12 4 -12 3 -15 -5 -10 -8 4 -10 2 -6 -7 3 -8 1 -18 -5 -22 -6 -3
-11 -1 -11 4 0 6 -7 11 -15 11 -8 0 -15 5 -15 11 0 13 -42 1 -52 -15 -4 -6
-10 -8 -13 -4 -7 7 -72 -9 -89 -23 -6 -5 -26 -20 -43 -35 -18 -14 -37 -23 -43
-19 -6 3 -13 -2 -17 -12 -3 -10 -18 -29 -32 -43 l-25 -25 24 40 c13 22 49 72
80 110 31 39 85 124 120 190 34 66 69 131 76 145 27 49 84 183 84 196 0 8 -5
14 -11 14 -5 0 -7 5 -4 10 4 6 10 8 15 5 16 -10 32 24 25 54 -5 23 -2 32 14
43 12 8 34 39 50 68 l29 53 -36 25 c-49 34 -142 41 -149 12 -6 -21 -32 -35
-44 -23 -5 5 -2 26 5 48 11 31 21 41 43 46 25 6 24 9 -6 13 -25 3 -18 14 13
20 18 4 39 13 45 20 10 12 -1 15 -66 21 -43 4 -87 9 -98 13 -11 3 -26 5 -34 3
-24 -4 -81 9 -81 19 0 13 43 13 56 0 6 -6 15 -6 24 0 12 8 11 10 -6 10 -18 0
-34 17 -34 36 0 2 15 4 33 5 59 1 72 12 72 60 0 34 4 44 18 47 10 2 26 -3 35
-11 22 -19 160 -47 165 -33 2 5 27 8 57 7 l54 -2 -36 28 c-19 16 -40 40 -45
54 -8 21 -17 26 -47 27 -50 2 -53 4 -59 59 -4 41 -2 50 20 70 25 24 29 67 6
69 -7 1 -15 3 -18 4 -3 1 -9 3 -14 4 -5 0 -19 12 -31 26 -17 19 -21 34 -17 62
4 29 1 37 -14 41 -12 3 -19 14 -19 29 0 27 -21 78 -32 78 -5 0 -8 8 -8 18 0 9
-9 31 -19 49 -14 23 -16 33 -8 37 21 8 -15 26 -54 26 -30 0 -38 -4 -43 -22z"/>
<path d="M2349 6821 c8 -5 16 -16 17 -24 1 -8 11 -28 22 -44 25 -33 66 -168
57 -183 -3 -5 -14 -10 -23 -10 -14 0 -14 -1 1 -12 9 -7 20 -28 23 -47 l7 -35
-36 23 c-41 25 -77 21 -77 -8 0 -23 40 -41 90 -41 21 0 42 -5 46 -11 12 -19 6
-69 -11 -106 -9 -19 -16 -53 -14 -76 5 -97 1 -111 -36 -136 -30 -20 -51 -24
-142 -28 -98 -5 -122 -12 -123 -35 0 -3 19 -18 43 -32 23 -14 48 -29 55 -34
25 -17 25 -78 1 -127 -18 -35 -20 -48 -11 -57 24 -24 11 -59 -53 -138 -36 -44
-61 -80 -56 -80 5 0 39 33 76 74 50 55 71 73 86 69 10 -3 19 -9 19 -13 0 -5 8
-6 18 -3 12 3 31 -11 59 -41 23 -25 53 -48 67 -52 20 -5 26 -12 26 -33 0 -15
-5 -32 -12 -39 -9 -9 -7 -12 9 -12 11 0 26 7 33 15 18 22 33 18 48 -12 15 -34
16 -63 1 -63 -8 0 -9 -4 0 -13 6 -8 8 -17 5 -20 -10 -10 -22 -87 -13 -87 13 0
39 30 39 46 0 8 5 14 11 14 6 0 9 7 5 15 -4 12 5 15 50 15 42 0 64 6 87 22 94
67 105 80 112 143 6 44 12 59 26 62 13 4 22 22 30 62 7 31 17 61 23 66 6 6 12
17 14 25 6 27 24 40 54 40 18 0 31 6 35 18 3 9 13 25 21 34 8 9 17 32 21 50 4
22 18 40 40 55 l33 23 -31 29 c-18 17 -38 28 -47 24 -14 -5 -16 -2 -17 32 0
60 35 82 147 89 58 4 76 14 76 47 0 11 -9 15 -32 13 -66 -5 -81 22 -17 32 35
6 43 12 56 42 14 33 10 59 -6 34 -10 -16 -21 -3 -42 46 -15 34 -51 44 -66 18
-7 -12 -14 -12 -45 -2 -26 9 -40 10 -47 3 -6 -6 -11 -7 -11 -2 0 5 -7 -1 -16
-13 -18 -26 -31 -28 -56 -5 -14 13 -21 14 -30 5 -19 -19 -28 -14 -28 14 0 19
4 25 15 21 8 -4 17 -2 20 3 3 5 12 7 20 3 24 -9 18 35 -7 48 -13 7 -48 10 -90
7 -48 -4 -68 -2 -65 6 2 6 16 13 32 16 27 5 65 56 65 87 0 7 4 13 10 13 5 0 9
-10 7 -22 -1 -17 4 -23 21 -24 15 -1 22 4 22 17 0 10 5 21 10 24 18 11 11 23
-21 39 -32 16 -49 14 -49 -7 0 -22 -38 -39 -60 -27 -18 10 -20 7 -20 -30 0
-63 -19 -45 -54 51 -50 138 -31 127 -251 144 -223 17 -214 17 -196 6z"/>
<path d="M1940 6263 c0 -12 -4 -25 -10 -28 -5 -3 -10 -13 -10 -21 0 -8 4 -12
10 -9 6 3 7 -1 4 -9 -3 -9 -9 -16 -13 -16 -4 0 -15 -26 -24 -58 -14 -50 -21
-61 -56 -80 -23 -13 -41 -22 -41 -20 0 2 4 17 9 35 10 35 0 49 -51 71 -16 6
-28 16 -28 22 0 5 -5 10 -11 10 -5 0 -7 -4 -4 -10 3 -5 -1 -10 -9 -10 -9 0
-18 -12 -22 -27 -3 -16 -7 -33 -9 -39 -2 -6 12 -24 31 -39 23 -19 32 -34 29
-46 -4 -10 3 -25 16 -37 22 -21 19 -42 -7 -42 -16 0 -19 -21 -3 -37 7 -7 6
-15 -5 -26 -22 -21 -20 -24 13 -30 18 -4 32 -14 36 -28 l7 -22 13 23 c11 21
12 20 17 -24 3 -25 11 -53 18 -61 16 -19 54 -19 70 0 20 24 28 9 36 -66 8 -84
16 -83 18 3 1 40 5 62 12 61 6 -1 37 -5 68 -8 65 -7 73 5 29 41 -30 24 -26 36
15 49 18 5 22 2 22 -14 0 -12 5 -21 10 -21 16 0 12 70 -4 76 -7 3 -16 22 -20
43 -3 22 -17 63 -31 92 -14 30 -25 72 -25 95 0 24 -6 47 -14 54 -8 6 -27 44
-42 83 -30 80 -44 102 -44 70z"/>
<path d="M4910 5934 c0 -6 -24 -49 -54 -95 -55 -83 -55 -83 -65 -56 -6 16 -11
30 -11 33 0 18 -45 94 -54 91 -6 -3 -19 3 -29 11 -12 11 -21 12 -28 5 -14 -14
32 -169 62 -207 l21 -27 -26 -60 c-27 -62 -34 -133 -15 -144 14 -9 16 -6 27
43 11 46 7 55 -8 20 -8 -21 -9 -21 -9 -3 -1 29 40 113 100 202 86 130 84 112
-4 -30 -44 -71 -25 -68 28 5 78 106 75 95 -17 -50 -97 -153 -105 -197 -10 -54
72 107 107 169 116 202 l7 25 -20 -25 -21 -25 20 53 c18 48 19 55 5 75 -8 12
-15 17 -15 11z"/>
<path d="M4035 5892 c-37 -23 -108 -101 -155 -170 -19 -29 -40 -52 -45 -52
-19 0 -35 23 -35 51 0 29 13 44 45 52 16 4 15 5 -6 6 -55 2 -79 -72 -38 -115
l22 -23 -31 -41 -30 -42 -27 46 c-26 44 -47 57 -60 36 -3 -5 -2 -10 4 -10 13
0 61 -88 55 -103 -7 -19 -62 -49 -75 -41 -8 4 -10 26 -6 60 6 61 -3 70 -21 21
-34 -94 19 -135 100 -77 l27 20 50 -34 c89 -60 202 -65 238 -10 8 13 22 24 29
24 20 0 90 73 112 117 19 38 19 67 0 91 -23 28 -90 -20 -135 -96 -20 -33 -24
-52 -20 -82 7 -51 -14 -70 -76 -72 -48 -1 -142 37 -167 67 -13 15 -9 24 42 83
21 26 34 32 65 32 43 0 111 29 160 66 66 50 114 169 81 202 -19 19 -30 14 -17
-6 38 -60 -94 -219 -197 -238 -19 -3 -37 -4 -40 -1 -8 8 124 188 164 224 41
36 34 43 -13 15z"/>
<path d="M3489 5783 c-79 -88 -141 -228 -109 -248 10 -6 170 141 170 157 0 6
-23 -13 -52 -42 -29 -29 -54 -48 -56 -41 -2 6 20 53 48 106 34 63 47 95 38 95
-8 0 -25 -12 -39 -27z"/>
<path d="M4470 5671 c-19 -10 -50 -37 -67 -60 -70 -90 -18 -157 77 -100 41 24
90 69 90 81 0 5 -19 -9 -41 -31 -70 -67 -134 -80 -127 -25 2 21 12 29 58 45
57 20 90 49 90 79 0 16 -18 30 -38 30 -4 0 -23 -8 -42 -19z"/>
<path d="M2929 5493 c-24 -21 -46 -40 -49 -44 -3 -3 -36 -24 -75 -47 -38 -23
-75 -45 -81 -51 -11 -9 -243 -102 -336 -134 -16 -6 -18 -20 -18 -107 0 -216
-62 -426 -133 -453 -10 -4 -16 -11 -12 -16 3 -5 -3 -16 -13 -23 -10 -7 -24
-23 -31 -35 -6 -13 -17 -20 -25 -17 -8 3 -13 0 -13 -8 2 -16 -34 -68 -74 -107
-27 -26 -59 -81 -59 -101 0 -5 6 -10 14 -10 26 0 121 48 145 74 14 14 29 26
34 26 21 0 227 189 227 208 0 7 3 12 8 12 8 0 50 41 85 81 12 15 43 51 69 80
153 175 182 219 256 389 44 101 56 128 88 193 19 37 34 79 34 92 0 13 6 26 13
28 6 3 7 6 1 6 -6 1 -30 -16 -55 -36z"/>
</g>
</svg>
