<?xml version="1.0" standalone="no"?>
<!DOCTYPE svg PUBLIC "-//W3C//DTD SVG 20010904//EN"
 "http://www.w3.org/TR/2001/REC-SVG-20010904/DTD/svg10.dtd">
<svg version="1.0" xmlns="http://www.w3.org/2000/svg"
 width="720.000000pt" height="1280.000000pt" viewBox="0 0 720.000000 1280.000000"
 preserveAspectRatio="xMidYMid meet">
<metadata>
Created by potrace 1.16, written by Peter Selinger 2001-2019
</metadata>
<g transform="translate(0.000000,1280.000000) scale(0.100000,-0.100000)"
fill="#000000" stroke="none">
<path d="M0 6400 l0 -6400 3600 0 3600 0 0 1025 0 1025 -3590 0 -3590 0 0
3600 0 3600 2035 -1 c2128 -2 2060 0 2023 -41 -13 -14 -40 -60 -75 -128 -10
-19 -23 -39 -29 -45 -16 -15 -124 -200 -124 -212 0 -6 -7 -13 -15 -17 -8 -3
-22 -23 -31 -46 -9 -22 -20 -40 -25 -40 -5 0 -9 -7 -9 -16 0 -8 -6 -22 -12
-29 -32 -36 -40 -48 -57 -85 -10 -22 -21 -37 -24 -33 -4 3 -7 1 -7 -6 0 -7
-14 -33 -30 -58 -17 -24 -30 -46 -30 -49 0 -6 -71 -117 -79 -124 -3 -3 -13
-18 -21 -35 -8 -16 -36 -64 -62 -106 -27 -42 -48 -81 -48 -87 0 -7 -4 -12 -8
-12 -5 0 -17 -18 -28 -40 -10 -22 -22 -40 -27 -40 -4 0 -14 -18 -23 -40 -9
-22 -19 -40 -24 -40 -4 0 -15 -18 -25 -40 -10 -22 -22 -40 -26 -40 -4 0 -13
-16 -19 -35 -6 -19 -15 -35 -19 -35 -4 0 -17 -20 -29 -45 -12 -25 -26 -45 -31
-45 -5 0 -16 -18 -25 -40 -9 -22 -19 -40 -24 -40 -4 0 -14 -17 -21 -37 -8 -21
-22 -44 -32 -51 -9 -6 -20 -26 -24 -42 -4 -17 -12 -30 -18 -30 -12 0 -37 -44
-37 -66 0 -6 -6 -14 -14 -17 -8 -3 -20 -22 -27 -41 -7 -20 -17 -36 -21 -36 -5
0 -15 -18 -24 -40 -9 -22 -19 -40 -24 -40 -4 0 -15 -18 -25 -40 -10 -22 -22
-40 -26 -40 -4 0 -13 -16 -19 -35 -6 -19 -17 -38 -24 -42 -7 -5 -21 -24 -31
-43 -10 -18 -24 -40 -31 -48 -8 -7 -14 -19 -14 -26 0 -7 -10 -26 -22 -41 l-22
-28 21 -14 c12 -8 32 -23 44 -34 12 -10 25 -19 28 -19 3 0 54 67 113 148 210
289 290 397 316 431 15 19 34 46 44 60 17 27 61 88 213 292 50 67 97 131 105
143 24 34 210 289 272 374 32 42 83 113 115 157 31 44 59 82 63 85 6 5 66 88
166 229 23 32 60 82 82 112 23 30 81 108 129 174 47 66 109 150 137 188 l50
67 1333 0 1333 0 0 1775 0 1775 -3600 0 -3600 0 0 -6400z m6796 3680 c151 -69
198 -267 95 -405 -25 -34 -27 -41 -14 -50 14 -10 14 -14 -2 -38 -22 -35 -90
-46 -136 -23 -33 16 -80 14 -147 -6 -47 -14 -99 -2 -118 28 -13 20 -14 27 -4
39 11 13 9 19 -8 38 -85 90 -82 268 6 360 77 81 220 106 328 57z m-653 4 c29
-10 64 -34 92 -62 124 -125 89 -333 -68 -412 -133 -66 -310 -20 -370 96 -47
91 -44 191 7 276 25 43 43 59 94 85 54 28 75 33 131 33 37 0 88 -7 114 -16z
m-5802 -244 c21 -91 39 -168 39 -172 0 -5 -15 -8 -33 -8 -28 0 -34 4 -42 32
-9 29 -14 32 -50 31 -36 0 -40 -3 -47 -31 -8 -28 -13 -32 -42 -32 l-34 0 14
58 c7 31 26 110 41 175 l27 118 44 -3 45 -3 38 -165z m369 78 l1 -93 30 38
c23 27 39 37 60 37 16 0 29 -3 29 -6 0 -4 -16 -28 -35 -53 -30 -41 -33 -50
-21 -67 7 -10 25 -40 40 -66 l27 -48 -35 0 c-30 0 -38 5 -57 40 -26 45 -39 43
-39 -6 0 -31 -2 -34 -30 -34 l-30 0 0 175 0 175 30 0 30 0 0 -92z m1740 -83
l0 -176 -42 1 c-24 1 -55 -1 -69 -5 -19 -5 -33 -1 -55 18 -28 24 -29 29 -28
107 1 68 4 85 21 102 22 21 54 27 91 14 21 -7 22 -5 22 53 l0 61 30 0 30 0 0
-175z m452 83 l3 -92 25 37 c20 30 31 37 58 37 30 0 42 -12 24 -24 -5 -3 -21
-23 -36 -44 l-27 -40 40 -66 41 -66 -34 0 c-28 0 -38 7 -62 43 l-29 42 -3 -42
c-3 -42 -4 -43 -38 -43 l-34 0 0 175 0 175 35 0 34 0 3 -92z m728 27 l0 -66
30 16 c33 17 60 13 85 -11 11 -12 15 -40 15 -120 l0 -104 -30 0 -30 0 0 90 c0
75 -3 92 -16 97 -37 14 -49 -10 -52 -101 l-3 -86 -29 0 -30 0 0 175 0 175 30
0 30 0 0 -65z m530 4 c0 -58 1 -60 23 -53 76 26 107 -8 107 -118 0 -71 -2 -81
-26 -105 -20 -20 -31 -24 -52 -18 -15 4 -46 6 -69 5 l-43 -1 0 176 0 175 30 0
30 0 0 -61z m-1480 -9 c0 -38 2 -40 30 -40 25 0 30 -4 30 -25 0 -21 -5 -25
-30 -25 l-31 0 3 -67 c3 -66 4 -68 31 -71 21 -3 27 -8 23 -19 -3 -8 -6 -19 -6
-24 0 -16 -73 -10 -92 8 -14 13 -18 31 -18 90 0 66 -2 75 -20 80 -13 3 -20 14
-20 29 0 17 6 24 20 24 16 0 20 7 20 33 0 40 6 47 37 47 20 0 23 -5 23 -40z
m-2096 -61 c24 -23 34 -121 17 -172 -15 -44 -59 -66 -97 -48 -14 6 -27 11 -29
11 -3 0 -5 -30 -5 -66 l0 -65 -27 3 -28 3 -3 179 -2 179 37 -5 c21 -3 47 -2
58 3 26 10 55 2 79 -22z m405 20 c44 -16 51 -35 51 -143 l0 -96 -47 -1 c-27 0
-60 -1 -75 -1 -40 -1 -58 19 -58 63 0 43 20 63 83 80 28 7 37 15 35 27 -5 26
-48 28 -55 3 -4 -14 -13 -21 -29 -21 -65 0 -15 96 52 99 6 1 25 -4 43 -10z
m290 0 c38 -14 51 -35 51 -88 l0 -41 -61 0 c-60 0 -60 0 -57 -27 3 -32 44 -46
54 -19 4 10 18 16 35 16 35 0 39 -25 10 -61 -15 -19 -29 -24 -66 -24 -39 0
-51 5 -71 28 -20 24 -24 39 -24 96 0 75 21 116 63 124 12 2 25 5 28 6 3 0 20
-4 38 -10z m198 0 c32 -12 43 -26 43 -56 0 -31 -45 -33 -53 -3 -7 26 -47 27
-47 1 0 -11 12 -23 30 -31 78 -32 101 -82 61 -131 -15 -19 -29 -24 -66 -24
-37 0 -51 5 -66 24 -29 36 -25 61 11 61 24 0 30 -4 30 -21 0 -15 5 -20 22 -17
40 5 31 32 -19 58 -91 48 -80 135 19 149 4 1 19 -4 35 -10z m191 0 c29 -10 59
-59 45 -73 -15 -15 -51 -5 -56 15 -4 13 -12 20 -24 17 -29 -5 -21 -32 15 -50
73 -36 92 -81 53 -129 -15 -19 -29 -24 -66 -24 -37 0 -51 5 -66 24 -29 36 -25
61 10 61 21 0 30 -6 34 -21 7 -25 40 -22 45 3 2 12 -11 24 -43 39 -74 35 -86
106 -22 134 39 17 37 17 75 4z m211 0 c17 -6 36 -19 41 -29 6 -10 10 -62 10
-115 l0 -97 -32 3 c-18 1 -48 -1 -66 -5 -50 -12 -82 13 -82 64 0 44 20 64 83
81 28 7 37 15 35 27 -5 25 -45 27 -58 3 -13 -24 -48 -28 -56 -6 -8 20 21 64
49 75 30 12 39 12 76 -1z m318 -21 c17 -16 23 -33 23 -65 l0 -43 -61 0 c-60 0
-60 0 -57 -27 3 -32 44 -46 54 -19 8 20 64 22 64 2 0 -69 -102 -98 -158 -45
-19 17 -22 31 -22 98 0 68 3 80 23 98 12 11 29 23 37 26 25 10 73 -2 97 -25z
m1001 -4 c18 -21 22 -36 22 -98 0 -65 -3 -75 -26 -97 -35 -33 -104 -34 -136
-2 -27 28 -37 127 -17 174 24 60 111 73 157 23z m240 8 c8 -10 12 -52 12 -119
l0 -103 -30 0 -30 0 0 90 c0 75 -3 92 -17 97 -32 12 -53 -32 -53 -113 l0 -74
-30 0 -30 0 0 120 0 120 29 0 c16 0 31 -5 33 -11 2 -6 14 -5 33 5 33 17 63 13
83 -12z m529 -4 c17 -16 23 -33 23 -65 l0 -43 -61 0 c-60 0 -60 0 -57 -27 3
-32 44 -46 54 -19 4 10 18 16 35 16 22 0 29 -5 29 -20 0 -42 -64 -79 -115 -66
-52 13 -65 39 -65 124 0 69 3 81 23 99 12 11 29 23 37 26 25 10 73 -2 97 -25z
m540 8 c6 -6 13 -57 16 -118 l5 -108 -34 0 -34 0 0 90 c0 72 -3 92 -15 96 -33
13 -45 -15 -45 -102 l0 -84 -35 0 -35 0 0 120 0 120 35 0 c19 0 35 -4 35 -9 0
-6 12 -3 28 4 28 15 58 12 79 -9z m218 -7 c17 -16 21 -35 23 -120 l4 -100 -44
1 c-23 1 -54 -1 -68 -5 -35 -9 -80 27 -80 64 0 39 19 60 70 75 33 10 46 19 48
35 4 28 -33 29 -50 1 -12 -19 -48 -27 -60 -14 -15 14 11 60 43 77 40 20 84 15
114 -14z m400 16 c37 -15 55 -46 55 -96 0 -29 0 -29 -59 -29 -65 0 -73 -5 -64
-38 6 -26 53 -32 53 -7 0 11 11 15 36 15 32 0 35 -2 29 -22 -4 -13 -18 -34
-33 -47 -21 -19 -33 -22 -65 -18 -59 8 -80 35 -85 107 -5 75 11 118 52 136 39
17 40 17 81 -1z m198 1 c15 -8 27 -11 27 -5 0 5 14 9 31 9 l30 0 -3 -154 c-3
-134 -5 -157 -22 -175 -42 -46 -144 -35 -166 19 -7 16 -9 34 -5 39 10 18 44
12 57 -9 27 -42 78 -15 78 41 0 18 -3 20 -12 11 -7 -7 -29 -12 -49 -12 -56 0
-79 34 -79 116 0 72 13 107 44 122 29 14 37 14 69 -2z m285 -22 c19 -22 22
-36 22 -120 l0 -95 -42 1 c-24 1 -55 -1 -70 -5 -21 -6 -32 -2 -52 18 -48 48
-29 99 44 121 33 10 46 19 48 35 4 28 -33 29 -50 1 -12 -19 -48 -27 -60 -14
-15 14 11 60 43 77 43 22 86 16 117 -19z m-3048 -94 l0 -120 -35 0 -35 0 0
113 c0 63 3 117 7 120 3 4 19 7 35 7 l28 0 0 -120z m2271 103 c0 -10 8 -43 18
-73 l17 -55 19 73 c18 70 20 72 51 72 l32 0 -24 -82 c-79 -281 -76 -273 -113
-276 -28 -3 -33 -1 -27 14 29 76 29 101 -4 209 -17 59 -34 113 -37 121 -4 10
4 14 31 14 27 0 36 -4 37 -17z"/>
<path d="M6613 9773 c-20 -4 -23 -11 -23 -51 l0 -47 85 0 85 0 0 46 c0 40 -3
48 -22 53 -25 6 -90 6 -125 -1z"/>
<path d="M7150 7964 c-19 -9 -163 -62 -320 -119 -157 -57 -293 -106 -302 -110
-25 -10 -22 -41 13 -142 48 -137 78 -233 94 -293 8 -30 21 -75 29 -100 13 -40
166 -518 185 -580 11 -34 29 -31 206 25 l145 46 0 645 c0 354 -3 644 -7 644
-5 -1 -24 -8 -43 -16z"/>
<path d="M5990 7540 c-41 -16 -324 -119 -629 -230 -304 -110 -563 -206 -575
-212 -19 -11 -15 -13 39 -24 66 -13 309 -34 420 -35 58 -1 87 6 175 39 58 22
218 81 355 131 138 51 284 105 325 121 41 16 98 36 127 45 29 10 57 23 63 30
21 25 -164 168 -212 164 -7 -1 -47 -14 -88 -29z"/>
<path d="M6300 7219 c-64 -24 -288 -104 -514 -184 -88 -30 -162 -58 -165 -60
-2 -3 3 -21 12 -40 27 -57 22 -88 -19 -125 -47 -41 -76 -51 -138 -49 -48 2
-55 6 -105 57 l-55 56 -135 -47 c-326 -111 -605 -208 -609 -212 -15 -14 87
-177 156 -248 97 -101 245 -180 396 -211 91 -19 299 -21 396 -5 36 6 83 12
104 13 22 0 41 7 43 13 4 10 -38 13 -174 15 l-178 3 -3 166 -2 166 67 6 c38 4
253 7 478 8 226 1 424 5 440 9 17 4 24 8 17 9 -10 1 -10 5 0 24 7 12 16 24 19
27 30 26 86 181 97 270 10 83 1 230 -19 309 -15 59 -24 62 -109 30z"/>
<path d="M2606 6435 c-89 -32 -141 -63 -209 -125 -115 -105 -204 -256 -249
-424 -18 -68 -22 -109 -22 -246 -1 -152 2 -172 27 -259 52 -173 115 -281 230
-393 87 -85 178 -138 275 -159 82 -17 236 -7 304 20 64 25 118 72 118 102 0
10 4 19 9 19 5 0 11 8 15 18 3 9 14 31 24 47 10 17 23 44 29 60 6 17 23 62 37
100 15 39 38 126 52 195 25 126 29 245 11 410 -8 76 -53 245 -71 272 -9 12
-16 29 -16 38 0 8 -7 29 -16 45 -9 17 -18 39 -20 51 -2 11 -22 40 -44 63 -22
23 -38 46 -35 51 3 5 1 11 -4 14 -4 3 -11 19 -14 34 -16 82 -276 122 -431 67z"/>
<path d="M5265 5350 c-174 -26 -378 -132 -463 -239 -20 -25 -41 -50 -47 -56
-6 -5 -27 -47 -48 -92 -26 -58 -37 -98 -39 -139 l-3 -58 145 -23 c80 -12 215
-34 300 -48 326 -55 359 -58 345 -35 -8 14 21 66 47 84 71 50 187 -18 202
-117 4 -24 12 -51 19 -59 11 -14 290 -77 512 -114 44 -8 103 -18 130 -23 28
-6 69 -10 91 -10 50 -1 54 7 54 119 0 265 -102 461 -315 605 -53 36 -71 44
-73 32 -3 -12 -32 -16 -165 -22 -89 -4 -187 -5 -217 -3 l-55 3 -2 88 c0 49 -4
91 -7 95 -20 19 -306 28 -411 12z"/>
<path d="M6906 5082 c-3 -5 -14 -63 -25 -128 -16 -94 -109 -644 -138 -811 -3
-18 -2 -33 3 -33 9 0 388 -75 432 -85 l22 -5 0 513 0 513 -102 17 c-173 27
-186 29 -192 19z"/>
<path d="M4640 4597 l0 -64 133 -26 c72 -15 345 -69 606 -122 261 -52 481 -95
490 -95 9 0 3 7 -13 15 -51 27 -199 118 -236 145 -51 38 -106 58 -190 69 -70
9 -436 75 -670 120 -58 12 -108 21 -112 21 -5 0 -8 -29 -8 -63z"/>
</g>
</svg>
