<?xml version="1.0" standalone="no"?>
<!DOCTYPE svg PUBLIC "-//W3C//DTD SVG 20010904//EN"
 "http://www.w3.org/TR/2001/REC-SVG-20010904/DTD/svg10.dtd">
<svg version="1.0" xmlns="http://www.w3.org/2000/svg"
 width="720.000000pt" height="1280.000000pt" viewBox="0 0 720.000000 1280.000000"
 preserveAspectRatio="xMidYMid meet">
<metadata>
Created by potrace 1.16, written by Peter Selinger 2001-2019
</metadata>
<g transform="translate(0.000000,1280.000000) scale(0.100000,-0.100000)"
fill="#000000" stroke="none">
<path d="M0 6400 l0 -6400 3600 0 3600 0 0 1899 -1 1899 -687 6 c-1468 13
-2132 25 -2149 39 -15 11 -17 47 -3 47 5 0 7 6 4 14 -4 12 -20 14 -72 10 -101
-7 -105 -9 -99 -56 l5 -39 -431 3 -432 3 -53 30 c-29 16 -55 39 -59 50 -15 49
-103 95 -182 95 -33 0 -44 26 -16 36 8 4 15 12 15 19 0 8 9 16 19 20 22 7 34
44 20 61 -5 6 -41 14 -80 16 -39 2 -73 9 -77 16 -4 6 -21 10 -37 9 l-30 -2 -7
100 c-7 93 -6 101 14 122 12 13 27 23 35 23 7 0 13 7 13 16 0 13 7 15 33 10
17 -3 48 -8 68 -10 l36 -5 7 106 c3 58 6 177 6 265 0 135 2 158 15 158 9 0 18
7 21 15 5 11 21 15 63 13 l56 -1 -55 -7 -55 -7 63 -1 c56 -2 63 0 60 16 -4 20
-49 21 -218 5 l-105 -10 75 -3 c54 -3 30 -6 -85 -10 -235 -11 -1172 -11 -1157
-1 13 8 -61 22 -118 22 -14 0 -59 9 -100 19 -41 10 -109 21 -150 24 -63 4 -68
4 -30 -4 77 -16 93 -21 87 -27 -4 -3 -2 -14 4 -24 8 -17 6 -19 -21 -19 -18 0
-29 4 -25 10 3 6 -1 10 -10 10 -9 0 -14 -4 -11 -9 7 -11 -699 -24 -1069 -19
l-270 3 -3 101 -3 101 317 6 c564 12 1174 9 1219 -7 22 -7 60 -16 85 -20 41
-5 43 -5 26 9 -24 19 -44 17 229 19 l230 1 3 30 c2 17 -2 42 -8 55 -9 22 -10
18 -7 -23 3 -56 -8 -62 -95 -53 -29 3 -73 6 -98 6 -41 1 -41 3 -3 15 8 3 4 13
-13 30 l-26 26 4 179 3 178 30 31 c24 25 38 30 74 31 24 0 42 2 39 6 -3 3 -33
5 -66 5 -43 1 -65 5 -74 16 -8 11 -14 56 -17 130 -3 102 -1 113 14 113 14 0
13 3 -6 19 -23 19 -23 19 -11 128 7 60 12 127 12 149 0 22 5 45 12 52 8 8 48
12 115 12 l102 0 7 -36 c4 -20 4 -214 1 -432 -3 -228 -2 -378 3 -352 5 25 9
149 10 275 1 127 5 268 8 315 l7 85 73 3 72 3 0 -501 0 -500 86 0 c54 0 83 4
79 10 -3 6 1 10 9 10 26 0 26 16 0 51 l-25 34 3 510 4 510 114 0 115 0 0 -560
0 -560 165 3 c91 1 173 4 184 5 17 2 18 12 17 137 -1 74 -6 139 -12 144 -6 6
-9 5 -10 -5 0 -7 -5 -3 -10 11 -10 24 -11 24 -25 6 -14 -20 -14 -20 -15 0 0
18 -1 18 -9 -1 -8 -18 -9 -18 -9 5 -1 18 -4 21 -10 11 -7 -11 -11 -10 -19 6
-12 22 -12 497 0 509 5 4 24 7 43 7 19 0 35 5 35 11 0 6 4 5 9 -3 5 -8 16 -11
26 -7 13 5 16 13 11 37 -3 18 -6 126 -6 241 l0 210 -344 -7 c-316 -7 -348 -6
-392 10 -27 10 -54 25 -61 33 -17 21 -43 8 -36 -17 4 -17 1 -21 -18 -21 -13 0
-303 0 -644 1 -341 1 -807 2 -1035 2 -228 -1 -400 1 -383 4 40 5 43 28 6 38
-24 6 -26 8 -10 16 9 6 17 17 17 25 0 12 11 15 48 14 83 -3 104 -1 96 11 -4 7
-36 10 -85 8 -46 -2 -79 1 -79 6 0 6 11 11 25 13 30 4 24 22 -8 23 -57 3 35
17 123 20 87 2 83 3 -58 10 -85 4 -157 10 -160 14 -8 8 -9 500 -1 500 3 0 13
8 22 17 12 12 17 34 17 76 0 44 4 61 15 66 11 4 15 23 15 80 0 69 1 74 24 80
18 4 25 15 30 45 6 41 32 62 39 33 4 -16 5 -15 6 1 0 9 8 17 16 17 25 0 20 66
-5 73 -17 4 -20 14 -20 67 0 56 3 65 30 90 31 29 41 74 18 83 -10 4 -10 6 0 6
6 1 12 14 12 30 0 23 7 33 27 43 26 12 28 18 31 78 2 54 7 68 27 86 22 19 25
30 25 87 0 57 3 67 20 72 17 5 20 15 20 66 0 69 -13 89 -59 89 -17 0 -31 3
-31 6 0 5 31 39 137 150 7 7 13 31 13 54 0 40 1 42 28 38 26 -4 27 -2 24 34
-3 29 -8 38 -23 38 -12 0 -19 7 -19 20 0 13 7 20 20 20 17 0 20 7 20 53 l0 53
43 14 42 15 3 73 c2 55 6 72 17 72 9 0 15 10 15 24 0 22 5 25 48 29 l47 3 -47
2 c-27 1 -48 7 -48 12 0 6 21 11 48 11 77 3 115 7 147 17 23 8 -10 11 -135 13
-113 2 -52 5 195 10 198 3 1698 7 3333 8 l2972 1 0 1775 0 1775 -3600 0 -3600
0 0 -6400z m6782 3684 c50 -17 112 -73 138 -125 44 -85 32 -202 -29 -284 -25
-34 -27 -41 -14 -50 14 -10 14 -14 -2 -38 -22 -35 -88 -46 -136 -23 -29 13
-43 14 -94 4 -106 -20 -142 -17 -169 17 -22 27 -22 31 -7 41 15 11 14 14 -6
36 -38 40 -63 108 -63 172 0 78 16 128 58 176 77 90 199 118 324 74z m-639 0
c52 -18 116 -76 142 -130 22 -47 30 -130 16 -180 -32 -119 -134 -194 -265
-194 -165 0 -272 106 -270 266 2 153 105 252 265 253 36 1 86 -6 112 -15z
m-5839 -91 c10 -34 76 -315 76 -324 0 -5 -16 -9 -35 -9 -30 0 -35 3 -35 24 0
31 -13 39 -59 39 -31 0 -36 -3 -43 -31 -8 -28 -13 -32 -42 -32 l-34 0 14 58
c7 31 25 110 40 175 l28 117 42 0 c32 0 44 -4 48 -17z m406 -75 l1 -93 30 38
c23 27 39 37 60 37 16 0 29 -3 29 -6 0 -4 -16 -28 -35 -54 l-34 -47 28 -45
c56 -89 56 -88 17 -88 -30 0 -38 5 -57 40 -26 45 -39 43 -39 -6 0 -31 -2 -34
-30 -34 l-30 0 0 175 0 175 30 0 30 0 0 -92z m1740 -83 l0 -176 -42 1 c-24 1
-55 -1 -69 -5 -19 -5 -33 -1 -55 18 -27 24 -29 29 -29 106 0 69 3 84 21 102
23 22 55 28 92 15 21 -7 22 -5 22 53 l0 61 30 0 30 0 0 -175z m452 83 l3 -92
25 37 c20 30 31 37 58 37 30 0 42 -12 24 -24 -5 -3 -21 -23 -36 -44 l-27 -40
41 -66 41 -67 -38 3 c-32 3 -41 9 -58 40 -26 49 -35 48 -35 -2 0 -39 -1 -40
-35 -40 l-35 0 0 175 0 175 35 0 34 0 3 -92z m728 28 l0 -65 35 15 c28 11 40
12 58 3 34 -18 37 -27 37 -136 l0 -103 -30 0 -30 0 0 90 c0 75 -3 92 -16 97
-37 14 -49 -10 -52 -101 l-3 -86 -29 0 -30 0 0 175 0 175 30 0 30 0 0 -64z
m530 3 c0 -58 1 -60 23 -53 76 26 107 -8 107 -118 0 -71 -2 -81 -26 -105 -20
-20 -31 -24 -52 -18 -15 4 -46 6 -69 5 l-43 -1 0 176 0 175 30 0 30 0 0 -61z
m-1480 -9 c0 -38 2 -40 30 -40 25 0 30 -4 30 -25 0 -21 -5 -25 -30 -25 l-31 0
3 -67 c3 -66 4 -68 31 -71 21 -3 27 -8 23 -19 -3 -8 -6 -19 -6 -24 0 -16 -73
-10 -92 8 -14 13 -18 31 -18 90 0 66 -2 75 -20 80 -13 3 -20 14 -20 29 0 17 6
24 20 24 17 0 20 7 20 40 0 38 2 40 30 40 28 0 30 -2 30 -40z m-2096 -61 c24
-23 34 -121 17 -172 -15 -44 -59 -66 -97 -48 -14 6 -27 11 -29 11 -3 0 -5 -29
-5 -65 l0 -65 -30 0 -30 0 0 181 0 182 38 -5 c20 -3 46 -2 57 3 26 10 55 2 79
-22z m405 20 c17 -6 36 -19 41 -29 6 -10 10 -62 10 -115 l0 -97 -32 3 c-18 1
-48 -1 -66 -5 -50 -12 -82 13 -82 64 0 44 20 64 83 81 28 7 37 15 35 27 -5 25
-45 27 -58 3 -13 -25 -48 -28 -57 -5 -8 21 28 67 58 75 35 10 33 10 68 -2z
m287 1 c39 -15 53 -39 54 -87 l0 -43 -61 0 c-60 0 -60 0 -57 -27 3 -32 44 -46
54 -19 9 23 64 21 64 -2 0 -51 -67 -84 -124 -62 -45 17 -55 38 -56 116 0 78
20 119 63 127 12 2 25 5 29 6 4 0 19 -4 34 -9z m201 -1 c32 -12 43 -26 43 -56
0 -31 -45 -33 -53 -2 -7 24 -40 23 -45 -2 -2 -10 9 -21 30 -29 75 -30 98 -83
59 -131 -40 -50 -151 -22 -151 38 0 19 5 23 30 23 24 0 30 -4 30 -21 0 -15 5
-20 22 -17 42 6 33 36 -16 58 -76 32 -89 107 -23 135 39 17 39 17 74 4z m202
-4 c26 -13 46 -56 33 -70 -14 -14 -50 -3 -55 16 -4 13 -12 20 -24 17 -29 -5
-21 -32 15 -50 73 -36 92 -81 53 -129 -15 -19 -29 -24 -66 -24 -37 0 -51 5
-66 24 -29 36 -25 61 10 61 21 0 30 -6 34 -21 7 -25 40 -22 45 4 3 12 -9 23
-42 37 -74 31 -86 108 -22 136 40 17 51 17 85 -1z m200 4 c17 -6 36 -19 41
-29 6 -10 10 -62 10 -115 l0 -97 -32 3 c-18 1 -48 -1 -66 -5 -50 -12 -82 13
-82 64 0 44 20 64 83 81 28 7 37 15 35 27 -5 25 -45 27 -58 3 -11 -22 -44 -28
-55 -11 -12 20 8 59 38 74 38 19 45 19 86 5z m319 -22 c16 -15 22 -32 22 -64
l0 -43 -61 0 c-60 0 -60 0 -57 -27 3 -32 44 -46 54 -19 9 23 64 21 64 -2 0
-49 -66 -84 -121 -64 -50 20 -59 37 -59 121 0 68 3 80 23 98 12 11 29 23 37
26 25 9 73 -4 98 -26z m1000 -3 c18 -21 22 -36 22 -98 0 -77 -15 -107 -61
-121 -31 -10 -84 3 -105 26 -23 26 -31 127 -13 170 24 60 111 73 157 23z m240
8 c8 -10 12 -52 12 -119 l0 -103 -30 0 -30 0 0 90 c0 75 -3 92 -17 97 -32 12
-53 -32 -53 -113 l0 -74 -30 0 -30 0 0 120 0 120 29 0 c16 0 31 -5 33 -11 2
-6 14 -5 33 5 33 17 63 13 83 -12z m530 -8 c15 -17 22 -38 22 -65 l0 -39 -61
0 c-60 0 -60 0 -57 -27 3 -32 44 -46 54 -19 4 10 18 16 35 16 22 0 29 -5 29
-20 0 -42 -64 -79 -115 -66 -52 13 -65 39 -65 124 0 69 3 81 23 99 12 11 29
23 37 26 28 11 75 -3 98 -29z m539 12 c7 -6 13 -53 15 -116 l3 -105 -32 -3
-33 -3 0 91 c0 72 -3 92 -15 96 -33 13 -45 -15 -45 -102 l0 -84 -35 0 -35 0 0
120 0 120 35 0 c19 0 35 -4 35 -9 0 -6 12 -3 28 4 28 15 58 12 79 -9z m221
-12 c19 -22 22 -36 22 -120 l0 -95 -42 1 c-24 1 -54 -1 -68 -5 -34 -9 -80 27
-80 61 0 41 18 63 63 75 52 15 67 26 60 45 -8 21 -41 17 -55 -6 -12 -19 -48
-27 -60 -14 -15 14 11 60 43 77 43 22 86 16 117 -19z m391 25 c36 -13 61 -53
61 -99 l0 -30 -59 0 c-65 0 -73 -5 -64 -38 6 -26 53 -32 53 -7 0 11 11 15 36
15 32 0 35 -2 29 -22 -13 -43 -42 -63 -90 -63 -64 0 -87 27 -93 105 -5 75 11
118 52 136 38 16 36 16 75 3z m204 -3 c15 -8 27 -11 27 -5 0 5 14 9 30 9 l30
0 0 -149 c0 -134 -2 -151 -20 -174 -41 -52 -147 -44 -170 13 -7 16 -9 34 -5
39 9 15 46 7 60 -12 27 -37 75 -10 75 43 0 17 -3 19 -19 10 -36 -19 -78 -12
-100 16 -16 21 -21 41 -21 88 0 85 8 106 44 122 39 17 36 17 69 0z m285 -22
c19 -22 22 -36 22 -120 l0 -95 -42 1 c-24 1 -54 -1 -68 -5 -35 -9 -80 27 -80
64 0 39 19 60 70 75 33 10 46 19 48 35 4 28 -31 29 -51 0 -22 -30 -63 -23 -59
11 10 70 109 91 160 34z m-3048 -94 l0 -120 -35 0 -35 0 0 113 c0 63 3 117 7
120 3 4 19 7 35 7 l28 0 0 -120z m2280 63 c19 -91 25 -93 45 -14 17 70 18 71
50 71 l33 0 -52 -177 -51 -178 -33 -3 c-29 -3 -33 -1 -29 15 31 106 31 95 -2
207 -18 59 -35 114 -38 122 -4 10 4 14 29 14 34 0 35 -1 48 -57z m-3002 -3697
c2 -49 -1 -72 -10 -77 -10 -7 -10 -9 0 -9 6 0 12 -9 12 -20 0 -19 -7 -20 -91
-20 -80 0 -90 2 -85 16 4 10 -1 25 -9 34 -13 14 -15 30 -9 78 8 71 7 71 114
69 l75 -2 3 -69z m-2 -176 c-3 -22 -1 -40 5 -40 5 0 9 -146 9 -375 l0 -375
-97 1 c-54 1 -90 3 -80 6 19 5 22 18 7 28 -5 3 -10 1 -10 -6 0 -7 -3 -10 -6
-7 -8 8 -11 71 -19 399 -4 157 -4 295 -1 307 6 17 16 22 44 23 l37 1 -33 8
c-38 9 -54 20 -29 20 10 0 17 5 17 10 0 6 -4 10 -10 10 -17 0 -11 18 8 23 9 3
50 5 90 6 l73 1 -5 -40z m-1223 6 c8 -20 9 -725 1 -763 -4 -18 -13 -33 -20
-33 -8 0 -14 4 -14 9 0 5 -17 12 -37 15 -21 4 -62 12 -90 18 l-53 11 0 162 0
161 29 40 c37 50 43 93 16 116 -22 18 -23 16 29 32 11 4 14 17 11 50 -3 43 -2
46 20 46 27 0 61 40 44 51 -7 4 -8 12 -4 19 4 6 -3 22 -16 36 -21 23 -21 24
-3 25 28 1 55 7 62 13 9 10 20 7 25 -8z m199 -594 c-3 -100 -8 -184 -11 -186
-15 -10 -61 8 -67 26 -3 11 -8 17 -11 15 -2 -3 -18 9 -34 25 l-29 31 0 234 c0
129 5 265 11 303 l12 69 61 3 61 3 6 -170 c3 -93 3 -252 1 -353z m1588 -652
l0 -90 -117 0 c-65 0 -124 4 -132 9 -10 7 -13 24 -8 69 3 33 8 65 12 71 3 6
27 12 53 13 l47 1 -50 7 c-37 5 -19 7 73 8 l122 2 0 -90z m218 -77 l-3 -168
-70 -3 c-38 -2 -84 -1 -101 3 l-31 5 3 137 c2 75 6 149 9 164 l7 29 94 0 94 0
-2 -167z m164 -248 c-2 -127 -6 -238 -9 -249 -4 -16 -12 -17 -61 -11 -104 12
-96 -5 -87 179 3 88 8 190 11 226 2 36 4 68 4 72 0 11 31 15 90 14 l55 -2 -3
-229z m-419 85 l27 0 0 -151 c0 -84 -5 -159 -10 -170 -8 -14 -21 -19 -54 -19
-32 0 -48 -6 -66 -25 -22 -24 -23 -28 -18 -176 6 -170 7 -174 81 -186 29 -4
41 -12 48 -32 9 -23 5 -99 -8 -144 -3 -13 2 -20 16 -24 23 -6 30 -48 9 -56 -9
-4 -8 -6 2 -6 17 -1 24 -37 9 -46 -5 -4 -7 -11 -4 -16 6 -8 -47 -11 -253 -11
-41 0 -76 3 -80 6 -3 3 -16 6 -28 6 -13 0 -26 5 -30 12 -5 8 -11 6 -20 -6 -9
-14 -28 -17 -86 -17 -40 0 -479 -2 -976 -5 l-903 -4 3 77 3 77 35 3 c19 1 492
4 1050 7 558 3 1017 5 1020 6 3 0 -2 5 -10 10 -13 8 -15 41 -12 212 3 247 10
473 18 590 l6 87 32 4 c17 3 63 3 101 1 39 -2 82 -4 98 -4z m241 -251 c-1
-104 0 -103 -100 -95 -48 3 -90 9 -95 12 -11 6 -12 137 -2 148 4 4 50 5 103 4
l95 -3 -1 -66z m-2012 -464 c3 -38 4 -87 1 -107 l-6 -38 -91 0 c-115 0 -123 5
-108 62 6 23 13 52 15 63 2 11 7 -1 11 -27 l8 -48 43 0 c40 0 43 2 38 23 -4
18 -3 19 6 7 8 -12 11 -6 11 26 0 46 -18 60 -80 67 -19 2 5 5 54 5 107 2 110
10 6 13 -41 1 -79 5 -84 7 -20 11 32 21 99 19 l70 -2 7 -70z m2653 -367 c3
-18 5 -139 3 -268 l-3 -235 -60 -3 c-33 -2 -83 -1 -111 3 -43 5 -54 11 -64 33
-17 34 -15 23 -24 117 -10 95 -10 306 -1 336 11 33 61 48 162 49 l92 0 6 -32z
m-1229 -738 c-1 -563 -1 -569 19 -578 11 -5 38 -6 60 -2 23 4 30 8 17 9 -33 1
-17 21 18 21 16 0 32 5 35 10 4 6 63 10 143 10 l137 0 1 -44 0 -44 -1213 -1
-1213 0 0 375 0 375 22 -3 23 -3 2 -265 c1 -146 5 -293 8 -326 l6 -62 262 -6
c144 -3 372 -6 507 -6 135 0 317 -1 405 -2 88 -1 228 3 310 8 126 8 149 11
145 24 -9 27 -10 282 -3 485 l8 200 80 10 80 10 1 65 c1 36 -1 50 -3 33 l-4
-33 -81 0 -81 0 6 118 c4 64 7 129 7 145 l0 27 74 0 75 0 4 -32 c3 -29 4 -27
5 10 l2 42 68 0 68 0 0 -570z m651 27 c8 -9 5 -265 -3 -279 -7 -10 -56 -7 -86
6 -11 5 -18 2 -21 -11 -4 -16 -5 -16 -6 2 -1 11 -8 29 -16 39 -18 24 -21 174
-4 221 11 31 13 31 70 30 32 -1 62 -5 66 -8z m595 -282 c3 -27 7 -121 7 -207
l1 -158 -144 0 c-117 0 -146 3 -156 15 -16 20 -5 352 13 373 21 26 51 31 162
29 l110 -2 7 -50z m2990 -276 l3 -79 -65 0 c-64 0 -66 1 -68 28 -2 15 0 50 3
79 6 49 8 52 38 55 18 2 44 1 59 -1 26 -3 27 -5 30 -82z"/>
<path d="M6613 9773 c-20 -4 -23 -11 -23 -51 l0 -47 85 0 85 0 0 46 c0 40 -3
48 -22 53 -25 6 -90 6 -125 -1z"/>
<path d="M3816 6588 c-23 -66 -86 -286 -86 -303 0 -40 23 6 56 113 51 167 50
165 58 103 4 -30 14 -70 21 -88 13 -30 18 -34 47 -31 25 2 40 13 65 48 18 25
39 54 47 65 13 18 14 6 9 -109 -6 -122 -5 -128 13 -124 17 3 20 16 26 148 4
82 3 149 -2 154 -15 16 -57 -21 -107 -94 -26 -38 -52 -68 -58 -67 -19 6 -34
72 -34 150 -1 69 -3 77 -20 77 -14 0 -24 -13 -35 -42z"/>
<path d="M4682 6378 l3 -93 45 3 c72 6 102 49 61 86 -12 11 -16 25 -13 41 6
36 -14 55 -60 55 l-39 0 3 -92z"/>
<path d="M4832 6378 c2 -75 6 -93 18 -93 10 0 16 12 18 38 3 35 5 37 38 37 32
0 34 -2 34 -34 0 -37 17 -57 30 -35 5 7 7 49 6 93 -2 66 -6 82 -19 84 -13 3
-17 -4 -17 -32 0 -34 -2 -36 -35 -36 -33 0 -35 2 -35 35 0 29 -4 35 -20 35
-20 0 -21 -5 -18 -92z"/>
<path d="M5042 6393 c-42 -82 -51 -113 -33 -113 5 0 16 7 25 15 19 19 75 19
95 1 9 -8 21 -12 27 -8 7 5 -3 38 -31 97 l-42 90 -41 -82z"/>
<path d="M5330 6380 c0 -83 1 -90 20 -90 16 0 20 7 20 35 0 33 2 35 35 35 33
0 35 -2 35 -36 0 -28 4 -35 17 -32 21 4 24 27 17 111 -5 47 -11 67 -20 67 -9
0 -14 -12 -14 -35 0 -33 -2 -35 -35 -35 -33 0 -35 2 -35 35 0 28 -4 35 -20 35
-19 0 -20 -7 -20 -90z"/>
<path d="M5536 6384 c-27 -58 -36 -88 -29 -95 7 -7 15 -5 26 5 20 21 76 20 98
0 38 -34 37 -2 -3 86 -23 50 -44 90 -47 90 -3 -1 -24 -39 -45 -86z"/>
<path d="M4131 6371 c-34 -31 -37 -42 -20 -72 9 -18 20 -20 115 -18 103 2 104
2 104 26 0 20 13 56 25 71 2 2 16 -9 31 -23 24 -23 36 -26 70 -22 37 4 42 2
51 -24 18 -47 33 -34 33 26 0 42 -3 55 -15 55 -8 0 -15 -6 -15 -14 0 -8 -14
-19 -31 -25 -35 -12 -59 -3 -82 29 -10 14 -23 18 -53 17 -38 -3 -39 -4 -44
-47 l-5 -45 -55 -8 c-74 -10 -100 -3 -100 28 0 19 5 25 23 25 25 0 67 26 67
41 0 5 -15 9 -34 9 -24 0 -43 -9 -65 -29z"/>
</g>
</svg>
