<?xml version="1.0" standalone="no"?>
<!DOCTYPE svg PUBLIC "-//W3C//DTD SVG 20010904//EN"
 "http://www.w3.org/TR/2001/REC-SVG-20010904/DTD/svg10.dtd">
<svg version="1.0" xmlns="http://www.w3.org/2000/svg"
 width="720.000000pt" height="1280.000000pt" viewBox="0 0 720.000000 1280.000000"
 preserveAspectRatio="xMidYMid meet">
<metadata>
Created by potrace 1.16, written by Peter Selinger 2001-2019
</metadata>
<g transform="translate(0.000000,1280.000000) scale(0.100000,-0.100000)"
fill="#000000" stroke="none">
<path d="M0 6400 l0 -6400 3600 0 3600 0 0 1135 c0 1135 0 1135 -21 1180 -15
31 -29 47 -47 52 -41 10 -52 -1 -91 -88 -14 -34 -33 -55 -65 -75 -49 -31 -64
-67 -52 -124 l5 -30 -223 3 -224 2 -20 24 c-21 27 -21 28 -39 609 -3 111 -10
202 -15 202 -5 0 -9 37 -9 83 -1 45 -2 122 -4 170 -3 98 -10 110 -75 122 -19
4 -41 12 -48 18 -8 6 -52 13 -98 15 -48 2 -109 12 -141 23 -31 10 -79 19 -107
20 -63 1 -152 15 -116 19 14 1 -26 8 -88 14 -62 7 -126 10 -143 8 -17 -3 -54
0 -83 6 -28 6 -105 16 -170 22 -66 7 -130 16 -143 21 -33 12 -171 32 -220 31
-24 -1 -43 3 -43 7 0 8 -123 23 -235 28 -33 1 -68 3 -77 3 -11 1 -18 9 -18 21
0 11 5 17 10 14 6 -4 19 4 29 17 l19 23 65 -18 c82 -21 108 -21 133 1 10 9 55
49 99 87 44 39 102 91 130 116 27 26 91 81 140 122 50 41 97 87 104 101 11 21
13 63 7 218 -3 106 -11 247 -16 313 -8 102 -6 140 11 250 40 265 42 294 30
321 -13 29 -90 68 -168 85 l-51 12 -17 61 c-80 289 -185 550 -250 620 -14 15
-25 31 -25 35 0 4 -32 29 -70 56 -70 48 -70 49 -52 69 20 22 56 110 67 161 9
40 20 17 29 -55 5 -44 3 -63 -13 -92 -10 -21 -15 -38 -9 -38 21 0 58 105 58
165 0 77 -32 196 -70 258 l-30 48 30 -21 c42 -30 66 -67 85 -133 11 -39 14
-72 10 -100 -5 -31 -4 -39 4 -31 21 19 24 107 7 165 -33 113 -156 227 -255
237 -28 2 -51 8 -51 12 0 4 7 24 15 43 29 69 12 182 -44 299 -57 120 -190 215
-335 239 -117 20 -260 -5 -347 -59 -24 -15 -70 -35 -101 -45 -68 -21 -166 -85
-200 -130 -54 -70 -70 -116 -66 -184 2 -34 9 -68 16 -75 10 -10 11 -3 7 32 -4
32 0 57 12 84 l18 38 -3 -78 -4 -79 45 -42 44 -42 6 75 c6 75 35 155 73 202
l20 24 -4 -71 c-4 -61 -1 -79 22 -125 24 -50 94 -126 115 -126 5 0 3 17 -5 38
-15 43 -18 180 -4 202 8 12 10 11 10 -5 0 -22 22 -107 35 -139 7 -16 6 -17
-14 -6 -39 20 -35 3 6 -23 21 -14 63 -50 93 -81 59 -60 84 -74 51 -27 -12 16
-21 33 -21 37 0 5 11 -7 24 -27 22 -32 65 -69 81 -69 4 0 4 10 0 23 -3 13 4 6
19 -17 37 -59 51 -129 36 -177 -7 -22 -10 -42 -7 -45 9 -9 46 55 58 101 18 67
33 89 77 113 40 22 44 23 67 8 32 -21 34 -86 5 -134 -23 -38 -100 -89 -147
-98 -18 -3 -33 -10 -33 -15 0 -12 27 -11 51 1 17 10 20 7 25 -20 7 -34 48 -70
132 -116 42 -23 55 -36 64 -66 14 -49 -2 -73 -83 -129 -76 -51 -152 -79 -239
-86 -160 -13 -256 54 -304 214 -6 18 -2 22 24 28 38 8 48 0 100 -77 47 -71 52
-67 10 9 -16 29 -30 55 -30 57 0 3 32 24 70 47 39 23 68 44 66 47 -3 3 -11 0
-18 -5 -23 -18 -131 -54 -191 -64 -88 -14 -108 0 -164 119 -25 53 -54 120 -64
147 -10 28 -18 43 -19 34 0 -10 13 -49 30 -87 35 -82 36 -92 13 -92 -10 -1
-29 -8 -43 -16 -17 -10 -19 -13 -5 -9 77 26 72 27 102 -28 19 -35 40 -59 65
-72 29 -15 39 -28 47 -61 25 -98 117 -185 215 -203 168 -31 436 99 436 212 0
42 -11 57 -59 82 -87 45 -86 55 2 15 49 -22 109 -58 135 -80 25 -22 56 -43 69
-45 13 -3 35 -8 50 -11 l28 -7 -33 -7 c-33 -8 -56 -24 -99 -70 -108 -115 -186
-522 -163 -850 5 -67 3 -107 -7 -135 -7 -22 -13 -49 -13 -61 0 -12 -11 -26
-25 -34 -20 -10 -31 -31 -48 -87 -21 -72 -23 -74 -74 -99 -59 -29 -72 -43
-102 -101 -21 -42 -23 -43 -69 -43 -62 0 -195 34 -241 62 -53 32 -120 87 -131
108 -8 14 -5 34 8 75 14 40 21 51 26 39 4 -9 9 -15 11 -12 3 3 -17 47 -44 99
-27 52 -61 124 -75 162 -27 71 -56 250 -56 342 0 30 -4 55 -8 55 -5 0 -16 16
-26 36 -9 20 -19 34 -22 31 -3 -3 5 -25 19 -49 20 -36 26 -62 31 -153 l6 -109
-30 34 c-16 19 -29 32 -30 29 0 -4 23 -52 51 -108 27 -56 57 -120 65 -143 14
-41 11 -103 -7 -113 -4 -3 7 -26 26 -51 41 -54 46 -103 15 -164 -23 -46 -25
-75 -5 -110 20 -35 19 -102 -2 -131 -32 -43 -40 -64 -48 -117 -4 -29 -11 -52
-16 -52 -5 0 -21 24 -35 54 -34 72 -81 86 -156 44 -46 -26 -68 -63 -67 -110 0
-28 2 -30 9 -13 8 18 9 17 9 -7 2 -58 -53 -11 -63 54 -8 50 -16 64 -26 48 -13
-20 -71 19 -97 66 -16 26 -23 33 -23 20 0 -11 20 -39 45 -63 25 -23 45 -46 45
-50 0 -5 -28 -37 -61 -73 -79 -87 -140 -180 -146 -228 -4 -33 -1 -42 24 -66
l29 -27 -28 -107 c-24 -86 -28 -120 -24 -176 6 -79 -2 -82 -14 -4 l-8 53 -3
-70 c-2 -38 -3 -393 -2 -787 0 -520 3 -722 12 -731 9 -12 -1 -15 -56 -20 -83
-8 -323 -9 -323 -2 0 3 7 17 16 30 39 59 -13 229 -113 373 -49 72 -76 122 -96
180 -14 39 -13 42 9 61 15 13 34 56 55 123 17 57 44 145 60 195 21 68 53 133
120 245 51 84 114 200 141 258 27 58 65 135 83 171 49 96 62 169 47 264 -6 41
-21 94 -33 118 -24 47 -146 167 -226 224 -29 20 -53 40 -53 45 0 19 56 117 97
169 49 62 63 101 63 172 0 38 7 58 35 98 48 70 52 104 24 183 -22 60 -22 68
-10 108 8 24 15 68 15 98 1 48 -5 64 -42 126 -40 67 -43 78 -58 200 -37 326
-79 566 -108 622 -24 46 -117 125 -195 166 -40 21 -120 55 -179 76 -87 31
-107 42 -104 57 4 32 -30 -39 -60 -122 -15 -44 -36 -86 -45 -92 -31 -24 -106
-15 -191 21 -45 19 -92 42 -107 52 -14 9 -28 15 -31 12 -2 -3 14 -17 36 -32
55 -36 120 -96 120 -110 0 -6 -12 -29 -26 -49 -14 -21 -24 -41 -21 -44 7 -7
66 56 83 90 15 27 44 37 44 14 0 -24 -49 -84 -82 -100 -98 -46 -247 -47 -323
-2 -71 41 -144 153 -145 221 0 32 42 106 78 138 25 22 26 19 12 -20 -10 -24
-9 -26 5 -14 9 8 23 26 30 41 19 37 52 28 72 -19 20 -49 26 -34 7 21 -13 39
-20 47 -40 47 -33 0 -131 57 -151 87 -18 27 -20 121 -3 152 17 33 60 27 108
-15 23 -20 42 -44 42 -56 0 -19 50 -78 67 -78 5 0 9 21 9 48 -1 66 8 86 34 72
19 -10 20 -8 20 47 0 32 5 65 10 73 7 11 10 2 10 -32 0 -36 4 -48 15 -48 8 0
15 5 15 11 0 6 27 47 60 91 63 84 69 86 45 19 -11 -33 -12 -41 -1 -41 25 0 93
58 124 106 36 53 40 47 16 -22 -8 -25 -13 -48 -10 -51 3 -3 21 6 41 21 37 28
79 93 90 139 10 39 21 34 50 -23 27 -54 33 -110 12 -110 -16 0 -63 -47 -55
-55 3 -3 19 2 36 12 24 14 34 15 43 6 16 -16 -3 -63 -25 -63 -9 0 -24 -10 -36
-22 -20 -22 -28 -44 -11 -33 5 3 11 -5 13 -17 3 -21 5 -20 26 12 l22 35 0 -96
c0 -55 -6 -116 -15 -144 -8 -27 -12 -51 -10 -53 2 -2 11 20 19 49 10 34 16 92
16 161 0 107 0 109 40 183 26 48 40 88 40 112 0 41 9 37 27 -10 11 -31 12 -30
12 29 1 52 -4 68 -33 117 l-35 57 24 6 c13 3 31 14 39 23 14 16 13 17 -19 18
-31 1 -155 65 -155 81 0 3 10 16 22 29 l21 23 -40 0 c-32 0 -239 54 -251 65
-2 2 4 16 14 31 18 26 18 27 -1 17 -11 -6 -75 -13 -142 -16 -103 -4 -131 -9
-179 -31 -31 -14 -59 -26 -61 -26 -3 0 -2 11 1 25 4 14 2 25 -3 25 -18 0 -70
-71 -77 -104 -5 -28 -12 -36 -34 -41 -45 -10 -118 -61 -135 -95 l-16 -32 38
26 c54 37 63 32 21 -11 -20 -21 -41 -48 -47 -61 -40 -78 -54 -223 -26 -272 14
-25 14 -24 16 20 1 44 1 43 14 -22 10 -51 29 -92 74 -165 33 -54 74 -115 90
-137 17 -21 29 -41 26 -46 -2 -4 -53 -29 -112 -55 -136 -60 -363 -181 -442
-234 -63 -43 -143 -131 -184 -204 -47 -80 -64 -155 -96 -418 -11 -86 -26 -172
-34 -190 -8 -19 -17 -57 -21 -84 -4 -28 -16 -84 -26 -125 -10 -41 -21 -87 -24
-102 -4 -19 -14 -28 -37 -33 -42 -9 -99 -62 -147 -138 -66 -102 -69 -119 -49
-257 9 -65 26 -147 37 -182 17 -53 20 -92 20 -242 0 -169 1 -182 22 -212 13
-18 29 -32 38 -31 8 0 46 -14 84 -31 62 -29 76 -32 125 -26 31 3 70 15 88 26
18 10 45 23 61 28 29 8 29 8 62 -79 18 -47 57 -125 85 -173 52 -85 53 -90 48
-147 l-6 -59 49 -52 c47 -50 49 -55 46 -101 -3 -37 2 -58 17 -85 19 -32 31
-71 44 -144 11 -58 52 -161 101 -255 30 -57 63 -137 76 -185 32 -122 45 -149
100 -205 l49 -50 1 -125 c1 -69 -3 -152 -7 -185 l-8 -60 -715 0 -715 0 -3
1601 c-2 1595 -2 1602 18 1607 11 3 20 10 20 17 0 7 -8 9 -20 5 -20 -6 -20 -2
-20 337 l0 343 33 22 c17 12 59 45 92 73 33 28 73 58 90 67 45 24 60 42 46 56
-10 9 -20 4 -46 -25 -18 -20 -47 -39 -64 -43 -17 -3 -46 -17 -66 -31 -20 -13
-47 -24 -60 -24 -21 0 -25 5 -25 28 0 15 5 45 11 67 6 22 10 57 10 79 -2 42
23 90 96 190 24 32 43 65 43 72 0 30 -31 27 -65 -6 -27 -26 -39 -31 -59 -26
-18 4 -26 13 -26 27 0 36 30 141 67 232 37 91 38 129 6 141 -27 11 -43 -21
-43 -86 0 -52 -2 -58 -20 -58 -20 0 -21 3 -20 780 1 481 5 780 11 780 8 0 14
-23 10 -43 -4 -25 165 59 193 96 64 84 83 98 131 100 l47 2 -7 39 c-4 27 -16
49 -37 68 -36 32 -43 33 -78 13 -14 -8 -37 -14 -52 -15 -16 0 -28 -4 -28 -8 0
-5 -22 -14 -48 -21 -26 -6 -61 -18 -77 -27 -39 -20 -65 -10 -65 26 0 49 8 60
37 49 13 -5 32 -9 42 -9 23 0 61 72 61 115 0 31 -2 33 -43 38 -23 2 -50 8 -60
12 -13 6 -17 2 -18 -16 -1 -21 -2 -20 -9 6 -4 17 -8 146 -9 288 l-1 257 3418
-2 3417 -3 3 -35 c4 -50 19 -78 74 -135 26 -27 62 -66 79 -85 l30 -35 -6 42
c-10 62 0 83 38 83 45 0 75 -24 103 -84 l24 -51 0 1928 0 1927 -3600 0 -3600
0 0 -6400z m6795 3679 c153 -68 200 -265 96 -404 -25 -34 -27 -41 -14 -50 23
-17 -3 -53 -49 -67 -30 -9 -45 -8 -80 5 -34 13 -55 15 -98 8 -30 -5 -63 -13
-73 -16 -53 -21 -137 34 -107 70 11 13 9 19 -8 38 -85 90 -82 268 6 360 77 82
216 105 327 56z m-652 5 c52 -18 116 -76 143 -132 28 -55 26 -174 -4 -229 -50
-95 -136 -143 -256 -143 -209 0 -331 220 -222 402 25 42 43 59 94 85 54 28 75
33 131 33 37 0 88 -7 114 -16z m-5834 -111 c15 -56 71 -300 71 -307 0 -3 -15
-6 -33 -6 -28 0 -34 4 -42 33 -9 29 -14 32 -49 32 -36 0 -40 -3 -48 -32 -8
-29 -13 -33 -42 -33 l-34 0 14 58 c7 31 26 110 41 175 l27 117 43 0 c40 0 43
-2 52 -37z m401 -55 l1 -93 30 38 c23 27 39 37 60 37 16 0 29 -3 29 -6 0 -4
-16 -28 -35 -53 -30 -41 -33 -50 -21 -67 7 -10 25 -40 40 -66 l27 -48 -35 0
c-30 0 -38 5 -57 40 -13 22 -26 40 -31 40 -4 0 -8 -18 -8 -40 0 -38 -2 -40
-30 -40 l-30 0 0 175 0 175 30 0 30 0 0 -92z m1740 -83 l0 -176 -42 1 c-24 1
-55 -1 -69 -5 -19 -5 -33 -1 -55 18 -28 24 -29 29 -29 106 1 69 4 85 22 102
22 22 54 28 91 15 21 -7 22 -5 22 53 l0 61 30 0 30 0 0 -175z m452 83 l3 -92
25 37 c20 30 31 37 58 37 30 0 42 -12 24 -24 -5 -3 -21 -23 -36 -44 l-27 -40
40 -66 41 -66 -35 0 c-30 0 -38 5 -57 40 -13 22 -26 40 -30 40 -5 0 -8 -18 -8
-40 0 -39 -1 -40 -35 -40 l-35 0 0 168 c0 93 3 172 7 175 3 4 19 7 34 7 l28 0
3 -92z m728 28 l0 -65 35 15 c28 11 40 12 58 3 34 -18 37 -27 37 -136 l0 -103
-30 0 -30 0 0 90 c0 75 -3 92 -16 97 -37 14 -49 -10 -52 -101 l-3 -86 -29 0
-30 0 0 175 0 175 30 0 30 0 0 -64z m530 3 c0 -58 1 -60 23 -53 76 26 107 -8
107 -118 0 -71 -2 -81 -26 -105 -21 -21 -31 -24 -57 -18 -18 4 -49 6 -69 6
l-38 -2 0 176 0 175 30 0 30 0 0 -61z m-1482 -11 c3 -35 6 -38 33 -38 24 0 29
-4 29 -25 0 -21 -5 -25 -30 -25 l-31 0 3 -67 c3 -66 4 -68 31 -71 21 -3 27 -8
23 -19 -3 -8 -6 -19 -6 -24 0 -16 -73 -10 -92 8 -14 13 -18 31 -18 90 0 66 -2
75 -20 80 -13 3 -20 14 -20 29 0 17 6 24 20 24 17 0 20 7 20 41 0 38 1 40 28
37 23 -3 27 -8 30 -40z m-2094 -58 c24 -24 34 -122 17 -173 -15 -44 -59 -66
-97 -48 -14 6 -27 11 -29 11 -3 0 -5 -29 -5 -65 l0 -65 -30 0 -30 0 0 181 0
182 39 -6 c21 -2 45 -1 52 4 19 12 60 2 83 -21z m402 20 c8 0 23 -9 34 -20 17
-17 20 -33 20 -121 l0 -101 -32 3 c-18 1 -48 -1 -66 -5 -50 -12 -82 13 -82 64
0 44 20 64 83 81 28 7 37 15 35 27 -5 25 -45 27 -58 3 -13 -25 -48 -28 -57 -5
-13 34 56 90 95 78 8 -2 20 -4 28 -4z m293 -1 c38 -14 51 -35 51 -88 l0 -41
-61 0 c-60 0 -60 0 -57 -27 3 -32 44 -46 54 -19 4 10 18 16 35 16 35 0 39 -25
10 -61 -27 -34 -99 -34 -135 0 -23 22 -26 32 -26 96 0 79 20 120 63 128 12 2
25 5 28 6 3 0 20 -4 38 -10z m199 0 c29 -10 59 -59 45 -73 -15 -15 -51 -5 -56
15 -4 13 -12 20 -24 17 -31 -6 -27 -34 7 -48 78 -32 101 -82 61 -131 -15 -19
-29 -24 -66 -24 -37 0 -51 5 -66 24 -29 36 -25 61 11 61 24 0 30 -4 30 -21 0
-15 5 -20 22 -17 42 6 33 36 -16 58 -54 23 -75 57 -60 98 9 25 45 52 70 52 6
0 25 -5 42 -11z m219 -13 c6 -6 13 -22 15 -36 2 -21 -2 -26 -23 -28 -20 -2
-28 2 -32 18 -4 14 -12 21 -24 18 -29 -5 -21 -32 15 -50 73 -36 92 -81 53
-129 -15 -19 -29 -24 -66 -24 -37 0 -51 5 -66 24 -29 36 -25 61 10 61 21 0 30
-6 34 -21 7 -25 40 -22 45 4 3 12 -9 23 -42 37 -51 21 -70 54 -60 97 12 45
104 65 141 29z m182 13 c17 -6 36 -19 41 -29 6 -10 10 -62 10 -116 l0 -97 -40
6 c-22 3 -43 1 -46 -4 -8 -14 -47 -11 -72 7 -16 11 -22 25 -22 54 0 44 20 64
83 81 28 7 37 15 35 27 -5 25 -45 27 -58 3 -13 -25 -48 -28 -57 -5 -8 23 16
62 46 73 35 13 43 13 80 0z m319 -22 c16 -15 22 -32 22 -64 l0 -43 -61 0 c-60
0 -60 0 -57 -27 3 -32 44 -46 54 -19 8 20 64 22 64 2 0 -69 -102 -98 -158 -45
-19 17 -22 31 -22 98 0 68 3 80 23 98 12 11 29 23 37 26 25 9 73 -4 98 -26z
m1000 -3 c19 -21 22 -36 22 -99 0 -70 -1 -74 -32 -100 -27 -23 -39 -26 -71
-22 -59 8 -80 35 -85 107 -3 36 1 72 9 91 24 60 111 73 157 23z m240 9 c8 -11
12 -53 12 -120 l0 -103 -30 0 -30 0 0 90 c0 75 -3 92 -17 97 -32 12 -53 -32
-53 -113 l0 -74 -30 0 -30 0 0 120 0 120 29 0 c16 0 31 -5 33 -12 3 -8 11 -7
29 5 27 20 67 15 87 -10z m530 -9 c15 -17 22 -38 22 -65 l0 -39 -61 0 c-60 0
-60 0 -57 -27 3 -32 44 -46 54 -19 4 10 18 16 35 16 35 0 40 -29 9 -60 -27
-27 -63 -34 -105 -20 -46 15 -55 34 -55 123 0 64 3 76 23 94 12 11 29 23 37
26 28 11 75 -3 98 -29z m542 10 c11 -11 15 -39 15 -117 l0 -102 -32 -3 -33 -3
0 91 c0 72 -3 92 -15 96 -33 13 -45 -15 -45 -102 l0 -84 -35 0 -35 0 0 120 0
120 35 0 c19 0 35 -4 35 -9 0 -6 12 -3 28 4 29 16 58 12 82 -11z m215 -5 c17
-16 21 -36 23 -120 l4 -100 -44 1 c-23 1 -54 -1 -68 -5 -34 -9 -80 27 -80 61
0 42 17 62 70 79 37 12 50 22 50 36 0 26 -36 25 -52 -1 -12 -19 -48 -27 -61
-14 -3 3 -1 19 5 36 20 56 108 72 153 27z m394 20 c36 -13 61 -53 61 -99 l0
-30 -59 0 c-63 0 -76 -8 -66 -40 8 -24 55 -28 55 -5 0 11 11 15 36 15 32 0 35
-2 29 -22 -4 -13 -18 -34 -33 -47 -21 -19 -33 -22 -65 -18 -60 8 -80 35 -85
109 -5 79 9 115 50 133 41 17 38 17 77 4z m204 -3 c15 -8 27 -11 27 -5 0 5 14
9 31 9 l30 0 -3 -154 c-3 -134 -5 -157 -22 -175 -42 -46 -144 -35 -166 19 -7
16 -9 34 -5 39 10 18 44 12 57 -9 27 -42 78 -15 78 41 0 18 -3 20 -12 11 -7
-7 -29 -12 -49 -12 -56 0 -79 34 -79 116 0 72 13 107 44 122 29 14 37 14 69
-2z m285 -22 c19 -22 22 -36 22 -120 l0 -95 -42 1 c-24 1 -54 -1 -68 -5 -36
-9 -80 27 -80 65 0 27 32 70 52 70 5 0 24 7 43 14 25 11 33 19 29 30 -9 22
-41 20 -56 -4 -18 -29 -58 -27 -58 3 0 73 105 101 158 41z m-3048 -94 l0 -120
-35 0 -35 0 0 113 c0 63 3 117 7 120 3 4 19 7 35 7 l28 0 0 -120z m2280 63
c19 -90 25 -92 45 -14 18 68 20 71 48 71 28 0 29 -2 23 -33 -3 -19 -25 -99
-49 -178 l-42 -144 -34 -3 c-28 -3 -33 -1 -27 14 28 74 28 99 -3 207 -18 59
-34 113 -37 122 -5 12 2 15 28 15 34 0 35 -1 48 -57z m-295 -3536 c0 -52 -7
-85 -22 -119 -31 -69 -49 -74 -125 -38 -35 17 -68 30 -74 30 -15 0 -36 25 -28
33 3 3 19 1 35 -5 35 -12 47 -5 29 17 -10 12 -10 16 1 19 116 34 159 68 159
124 0 29 3 34 13 24 7 -8 12 -40 12 -85z m281 -424 c66 -43 130 -188 160 -363
13 -81 18 -163 18 -360 1 -273 -10 -381 -59 -585 -39 -166 -59 -209 -137 -293
-52 -56 -66 -77 -56 -83 7 -5 20 -6 29 -4 11 4 24 -10 43 -49 15 -30 39 -62
52 -71 22 -14 25 -22 22 -68 l-3 -52 -67 -1 c-36 -1 -89 -7 -118 -13 -28 -6
-55 -11 -61 -11 -13 0 -5 120 9 147 11 21 2 73 -13 73 -3 0 -49 -27 -102 -61
-52 -34 -111 -67 -129 -75 -40 -17 -99 -18 -158 -3 -40 10 -46 8 -91 -20 -39
-25 -60 -31 -102 -31 -29 0 -53 4 -53 9 0 16 29 33 52 29 l23 -5 -25 -11 c-25
-11 -25 -11 -2 -11 26 -1 37 19 28 54 -8 32 -108 139 -145 155 -22 9 -34 9
-51 0 -60 -32 -21 40 46 84 29 19 56 45 59 58 14 45 54 87 90 94 42 7 48 15
69 81 23 69 47 98 98 116 24 8 51 18 61 22 12 5 17 2 17 -8 0 -8 7 -20 15 -27
12 -10 12 -6 -1 34 -14 42 -14 50 1 98 23 68 30 76 74 84 41 8 86 29 96 45 4
6 -7 3 -24 -5 -30 -16 -31 -16 -36 11 -4 16 -8 37 -10 48 -3 11 4 76 14 145
11 69 25 168 31 220 18 148 85 400 130 490 32 64 112 130 158 130 12 0 34 -7
48 -17z m-2536 -887 c0 -7 13 -25 29 -40 l30 -28 -24 -38 c-38 -60 -42 -103
-14 -162 19 -40 21 -52 11 -66 -7 -9 -20 -29 -30 -44 -20 -32 -32 -36 -32 -10
0 10 -9 35 -20 57 -18 36 -19 41 -4 83 16 48 12 89 -13 133 -14 24 -13 29 17
82 29 52 50 66 50 33z m165 -637 c42 -20 61 -63 46 -104 -6 -17 -16 -103 -22
-190 -11 -170 -19 -196 -71 -235 -34 -25 -37 -11 -7 44 11 21 18 41 15 44 -3
3 -21 -29 -40 -70 -30 -66 -90 -138 -103 -124 -2 2 4 21 15 43 31 60 72 166
67 171 -2 3 -9 -6 -14 -19 -29 -75 -81 -176 -97 -191 -43 -38 -106 -29 -70 11
27 30 99 221 83 221 -2 0 -19 -40 -36 -89 -18 -49 -48 -109 -66 -133 -19 -24
-35 -47 -35 -52 0 -9 60 -3 128 12 31 7 41 7 33 -1 -6 -6 -11 -18 -11 -26 0
-8 -18 -44 -39 -80 -39 -65 -65 -161 -87 -316 -3 -27 -26 -93 -50 -146 -24
-53 -44 -103 -44 -112 0 -9 -16 -31 -36 -49 -64 -58 -94 -144 -94 -270 l0 -77
54 -58 c30 -32 71 -67 92 -79 30 -15 43 -31 58 -69 63 -163 119 -235 243 -317
l65 -43 -258 -3 c-142 -1 -261 1 -264 5 -14 17 -79 262 -86 323 -3 36 -13 92
-21 125 -8 33 -23 96 -33 140 -10 44 -24 105 -33 135 -9 31 -18 121 -22 205
-8 195 -19 272 -51 348 -22 52 -25 71 -20 120 4 45 2 68 -13 100 -13 31 -17
55 -12 90 l6 48 18 -31 c11 -19 21 -60 24 -106 5 -59 10 -78 26 -89 10 -7 25
-11 33 -8 7 3 21 -2 30 -11 28 -29 125 0 138 41 3 10 19 25 35 34 23 13 33 33
55 99 l27 83 -27 81 c-15 45 -30 85 -35 90 -17 18 -9 -21 17 -90 25 -68 25
-69 9 -129 -20 -69 -41 -115 -54 -115 -5 0 -2 14 6 32 14 28 15 43 4 122 -11
80 -33 156 -44 156 -2 0 5 -39 15 -87 25 -122 23 -158 -11 -229 -45 -94 -71
-98 -47 -6 15 57 5 208 -16 227 -8 7 -9 3 -4 -15 15 -58 18 -161 6 -207 -7
-26 -14 -56 -17 -66 -3 -12 -12 -17 -26 -15 -21 3 -22 8 -22 123 0 80 -4 127
-13 140 -11 17 -11 15 -5 -20 14 -72 0 -210 -22 -219 -23 -9 -32 10 -37 79 -6
78 -43 166 -96 231 -18 22 -55 84 -82 139 -28 55 -60 115 -71 132 l-21 33 22
27 c29 38 98 83 125 83 28 0 55 -21 173 -131 51 -48 118 -104 148 -124 63 -42
87 -76 112 -157 19 -64 35 -77 31 -24 -2 19 1 39 5 43 5 4 6 3 3 -3 -7 -12 19
-28 33 -19 4 2 10 -16 13 -41 5 -44 12 -62 22 -53 2 3 1 19 -4 37 -7 23 -4 47
10 91 17 56 29 118 44 229 3 25 1 42 -5 42 -5 0 -10 -14 -10 -31 0 -39 -38
-228 -50 -248 -7 -11 -9 -2 -10 31 0 26 -4 58 -9 71 -7 18 -1 49 29 132 36
102 42 111 99 162 37 33 73 77 93 115 l32 60 50 -4 c28 -2 64 -11 81 -19z
m1084 -35 c12 -15 21 -33 21 -40 0 -8 27 -44 60 -80 37 -40 59 -73 55 -81 -4
-12 3 -13 37 -8 24 4 63 15 88 25 25 10 64 21 88 25 37 6 48 3 80 -20 20 -15
49 -42 63 -58 l27 -31 -61 -74 c-89 -107 -173 -181 -268 -234 -136 -75 -145
-71 -49 22 47 46 71 74 54 62 -17 -12 -58 -49 -90 -82 -59 -61 -121 -107 -130
-97 -10 9 59 121 115 187 l55 65 -58 -55 c-31 -30 -73 -83 -92 -117 -39 -70
-54 -84 -54 -51 0 66 40 164 97 238 l35 45 -40 -43 c-47 -50 -78 -111 -96
-190 -11 -52 -14 -55 -24 -35 -19 34 -14 106 11 176 22 61 56 112 122 186 16
19 23 30 13 25 -24 -13 -118 -134 -136 -174 -14 -33 -15 -34 -23 -12 -13 35
-16 27 -11 -40 2 -35 2 -61 -1 -58 -3 3 -25 44 -50 92 l-46 87 20 108 c10 59
19 131 19 160 0 45 4 54 31 77 43 37 109 37 138 0z m-2657 -96 c-17 -17 -15
-33 3 -18 12 10 15 10 15 -3 0 -26 145 -77 172 -61 7 5 8 2 3 -6 -6 -10 -3
-12 13 -8 12 4 20 2 17 -3 -4 -5 8 -6 26 -2 21 4 30 3 26 -4 -4 -6 3 -17 16
-26 53 -35 296 -284 302 -310 8 -32 8 -32 -25 -41 -17 -5 -21 -4 -12 2 16 11
0 16 -79 27 -39 6 -49 4 -57 -11 -8 -14 -5 -20 15 -31 14 -7 32 -13 39 -13 18
0 18 -8 0 -25 -8 -9 -16 -47 -20 -95 -3 -44 -9 -116 -12 -160 -4 -59 -10 -80
-20 -80 -11 0 -14 -17 -14 -75 0 -60 3 -75 15 -75 12 0 15 -17 15 -96 0 -87 2
-96 20 -101 23 -6 27 -23 5 -23 -8 0 -15 -8 -15 -19 0 -14 -10 -21 -36 -26
-30 -5 -34 -8 -21 -18 8 -7 17 -21 21 -31 7 -19 6 -19 -12 -3 -10 9 -22 14
-25 11 -11 -11 -64 115 -92 216 -14 52 -35 114 -46 138 -23 52 -24 85 -3 203
15 91 13 139 -7 139 -6 0 -8 -9 -4 -20 3 -11 3 -51 -1 -89 l-6 -70 -44 44
c-58 57 -59 91 -4 200 38 76 51 123 30 110 -5 -3 -10 -14 -10 -23 0 -9 -13
-44 -29 -77 l-28 -60 -16 37 c-9 21 -29 57 -45 80 -38 56 -105 225 -99 249 3
10 2 17 -2 14 -14 -8 -33 76 -26 117 5 29 10 37 16 27 5 -8 9 -11 9 -7 0 3 3
14 7 24 4 12 3 15 -5 10 -16 -10 -15 0 4 40 9 19 21 34 27 34 7 0 7 -4 -1 -12z
m2394 -105 c29 -38 33 -62 7 -42 -14 12 -15 12 -9 0 7 -10 -1 -12 -38 -10 -25
2 -46 1 -46 -2 0 -4 -12 -9 -27 -12 -16 -3 -37 -9 -47 -13 -14 -5 -17 -4 -12
4 11 19 -5 14 -21 -5 -12 -16 -13 -15 -2 7 21 43 70 113 108 153 l36 38 14
-43 c7 -24 24 -57 37 -75z m24 -82 c21 -6 25 -13 26 -46 2 -80 53 -215 81
-215 6 0 15 -21 19 -47 4 -27 13 -53 21 -58 12 -9 12 -25 -3 -114 -26 -156 -6
-222 107 -355 33 -39 59 -73 59 -77 0 -14 -61 -31 -87 -24 -48 12 -242 156
-316 235 -112 119 -165 238 -152 345 19 151 95 350 137 358 35 7 80 6 108 -2z
m687 -222 c65 -24 123 -77 187 -172 l40 -57 -35 -36 c-36 -38 -165 -127 -236
-163 -46 -23 -61 -49 -18 -29 56 25 129 -44 174 -166 23 -62 61 -242 61 -289
0 -15 -7 -42 -16 -58 -19 -37 -94 -74 -131 -64 -14 3 -127 108 -264 243 -200
200 -243 248 -265 296 -32 71 -41 157 -24 254 11 68 21 85 35 62 7 -11 30 -4
65 20 14 9 40 20 59 24 37 7 160 75 226 125 48 36 66 38 142 10z m260 -297 c7
-5 10 -26 8 -57 -2 -28 -4 -108 -5 -180 -1 -145 7 -196 55 -355 25 -81 29
-126 14 -143 -12 -12 -20 -8 -57 30 -51 50 -72 101 -107 258 -37 162 -90 261
-159 297 l-28 14 94 56 c80 48 150 85 168 87 3 0 10 -3 17 -7z"/>
<path d="M6613 9773 c-20 -4 -23 -11 -23 -51 l0 -47 85 0 85 0 0 46 c0 40 -3
48 -22 53 -25 6 -90 6 -125 -1z"/>
<path d="M581 7346 c-10 -11 -11 -34 -6 -86 7 -65 5 -75 -23 -133 -59 -123
-49 -139 37 -61 58 52 70 90 48 143 -8 19 -13 51 -10 70 5 47 -26 92 -46 67z"/>
<path d="M499 6464 c-3 -10 -6 -23 -13 -74 -16 -116 -52 -200 -85 -200 -8 0 1
-10 20 -23 33 -23 34 -25 31 -86 -3 -67 7 -91 39 -91 32 0 40 36 70 314 12
113 3 151 -37 159 -13 2 -25 3 -25 1z"/>
</g>
</svg>
