<?xml version="1.0" standalone="no"?>
<!DOCTYPE svg PUBLIC "-//W3C//DTD SVG 20010904//EN"
 "http://www.w3.org/TR/2001/REC-SVG-20010904/DTD/svg10.dtd">
<svg version="1.0" xmlns="http://www.w3.org/2000/svg"
 width="720.000000pt" height="1280.000000pt" viewBox="0 0 720.000000 1280.000000"
 preserveAspectRatio="xMidYMid meet">
<metadata>
Created by potrace 1.16, written by Peter Selinger 2001-2019
</metadata>
<g transform="translate(0.000000,1280.000000) scale(0.100000,-0.100000)"
fill="#000000" stroke="none">
<path d="M0 6400 l0 -6400 3600 0 3600 0 0 6400 0 6400 -3600 0 -3600 0 0
-6400z m6796 3680 c79 -37 138 -117 149 -206 9 -63 -8 -125 -50 -190 -28 -44
-31 -52 -17 -60 13 -9 13 -13 -2 -37 -23 -35 -90 -46 -137 -23 -33 16 -80 14
-147 -6 -47 -14 -99 -2 -118 28 -13 20 -14 27 -4 39 11 13 9 19 -7 38 -58 63
-80 189 -48 273 55 145 232 211 381 144z m-653 4 c125 -42 198 -200 153 -327
-41 -113 -135 -177 -261 -177 -137 0 -237 76 -264 200 -15 70 -3 142 33 203
25 41 43 58 94 84 54 28 75 33 131 33 37 0 88 -7 114 -16z m-5834 -111 c15
-56 71 -300 71 -307 0 -3 -16 -6 -35 -6 -30 0 -35 3 -35 24 0 30 -4 33 -54 37
-37 4 -40 2 -48 -29 -8 -28 -13 -32 -42 -32 l-34 0 14 58 c7 31 26 110 41 175
l27 117 43 0 c40 0 43 -2 52 -37z m401 -55 l1 -93 30 38 c23 27 39 37 60 37
16 0 29 -3 29 -6 0 -4 -16 -28 -35 -53 -30 -41 -33 -50 -21 -67 7 -10 25 -40
40 -66 l27 -48 -35 0 c-30 0 -38 5 -57 40 -26 45 -39 43 -39 -6 0 -31 -2 -34
-30 -34 l-30 0 0 175 0 175 30 0 30 0 0 -92z m1740 -83 l0 -176 -42 1 c-24 1
-55 -1 -69 -5 -19 -5 -33 -1 -55 18 -28 24 -29 29 -28 107 1 68 4 85 21 102
22 21 54 27 91 14 21 -7 22 -5 22 53 l0 61 30 0 30 0 0 -175z m452 83 l3 -92
25 37 c20 30 31 37 58 37 30 0 42 -12 24 -24 -5 -3 -21 -23 -36 -44 l-27 -40
40 -66 41 -66 -34 0 c-28 0 -38 7 -62 43 l-29 42 -3 -42 c-3 -42 -4 -43 -38
-43 l-34 0 0 175 0 175 35 0 34 0 3 -92z m728 27 l0 -66 30 16 c33 17 60 13
85 -11 11 -12 15 -40 15 -120 l0 -104 -30 0 -30 0 0 90 c0 75 -3 92 -16 97
-37 14 -49 -10 -52 -101 l-3 -86 -29 0 -30 0 0 175 0 175 30 0 30 0 0 -65z
m530 4 c0 -58 1 -60 23 -53 76 26 107 -8 107 -118 0 -71 -2 -81 -26 -105 -20
-20 -31 -24 -52 -18 -15 4 -46 6 -69 5 l-43 -1 0 176 0 175 30 0 30 0 0 -61z
m-1482 -11 c3 -35 6 -38 33 -38 24 0 29 -4 29 -25 0 -21 -5 -25 -30 -25 l-31
0 3 -67 c3 -66 4 -68 31 -71 21 -3 27 -8 23 -19 -3 -8 -6 -19 -6 -24 0 -16
-73 -10 -92 8 -14 13 -18 31 -18 90 0 66 -2 75 -20 80 -13 3 -20 14 -20 29 0
17 6 24 20 24 16 0 20 7 20 33 0 40 7 49 35 45 15 -2 21 -12 23 -40z m-2094
-59 c24 -23 34 -121 17 -172 -15 -44 -59 -66 -97 -48 -14 6 -27 11 -29 11 -3
0 -5 -30 -5 -66 l0 -65 -27 3 -28 3 -3 179 -2 179 37 -5 c21 -3 47 -2 58 3 26
10 55 2 79 -22z m405 20 c44 -16 51 -35 51 -143 l0 -96 -47 -1 c-27 0 -60 -1
-75 -1 -40 -1 -58 19 -58 63 0 43 20 63 83 80 28 7 37 15 35 27 -5 26 -48 28
-55 3 -4 -14 -13 -21 -29 -21 -65 0 -15 96 52 99 6 1 25 -4 43 -10z m290 0
c38 -14 51 -35 51 -88 l0 -41 -61 0 c-60 0 -60 0 -57 -27 3 -32 44 -46 54 -19
4 10 18 16 35 16 35 0 39 -25 10 -61 -27 -34 -99 -34 -135 0 -23 22 -26 32
-26 96 0 79 20 120 63 128 12 2 25 5 28 6 3 0 20 -4 38 -10z m198 0 c32 -12
43 -26 43 -56 0 -31 -45 -33 -53 -3 -7 26 -47 27 -47 1 0 -11 12 -23 30 -31
78 -32 101 -82 61 -131 -15 -19 -29 -24 -66 -24 -37 0 -51 5 -66 24 -29 36
-25 61 11 61 24 0 30 -4 30 -21 0 -15 5 -20 23 -17 37 5 26 36 -23 60 -88 45
-75 133 22 147 4 1 19 -4 35 -10z m197 -3 c31 -13 53 -55 38 -71 -14 -14 -50
-3 -55 16 -4 13 -12 20 -24 17 -29 -5 -21 -32 15 -50 73 -36 92 -81 53 -129
-15 -19 -29 -24 -66 -24 -37 0 -51 5 -66 24 -29 36 -25 61 10 61 21 0 30 -6
34 -21 7 -25 40 -22 45 3 2 12 -11 24 -43 39 -74 35 -86 106 -22 134 40 18 41
18 81 1z m205 3 c17 -6 36 -19 41 -29 6 -10 10 -62 10 -115 l0 -97 -32 3 c-18
1 -48 -1 -66 -5 -50 -12 -82 13 -82 64 0 44 20 64 83 81 28 7 37 15 35 27 -5
25 -45 27 -58 3 -13 -24 -48 -28 -56 -6 -8 20 21 64 49 75 30 12 39 12 76 -1z
m318 -21 c17 -16 23 -33 23 -65 l0 -43 -61 0 c-60 0 -60 0 -57 -27 3 -32 44
-46 54 -19 8 20 64 22 64 2 0 -69 -102 -98 -158 -45 -19 17 -22 31 -22 98 0
68 3 80 23 98 12 11 29 23 37 26 25 10 73 -2 97 -25z m1001 -4 c18 -21 22 -36
22 -98 0 -65 -3 -75 -26 -97 -35 -33 -104 -34 -136 -2 -27 28 -37 127 -17 174
24 60 111 73 157 23z m240 8 c8 -10 12 -52 12 -119 l0 -103 -30 0 -30 0 0 90
c0 75 -3 92 -17 97 -32 12 -53 -32 -53 -113 l0 -74 -30 0 -30 0 0 120 0 120
29 0 c16 0 31 -5 33 -11 2 -6 14 -5 33 5 33 17 63 13 83 -12z m529 -4 c17 -16
23 -33 23 -65 l0 -43 -61 0 c-60 0 -60 0 -57 -27 3 -32 44 -46 54 -19 4 10 18
16 35 16 35 0 40 -29 9 -60 -27 -27 -63 -34 -105 -20 -46 15 -55 34 -55 123 0
64 3 76 23 94 12 11 29 23 37 26 25 10 73 -2 97 -25z m540 8 c6 -6 13 -57 16
-118 l5 -108 -34 0 -34 0 0 90 c0 72 -3 92 -15 96 -33 13 -45 -15 -45 -102 l0
-84 -35 0 -35 0 0 120 0 120 35 0 c19 0 35 -4 35 -9 0 -6 12 -3 28 4 28 15 58
12 79 -9z m218 -7 c17 -16 21 -35 23 -120 l4 -100 -44 1 c-23 1 -54 -1 -68 -5
-35 -9 -80 27 -80 64 0 39 19 60 70 75 33 10 46 19 48 35 4 28 -33 29 -50 1
-12 -19 -48 -27 -60 -14 -15 14 11 60 43 77 40 20 84 15 114 -14z m400 16 c37
-15 55 -46 55 -96 0 -29 0 -29 -59 -29 -65 0 -73 -5 -64 -38 6 -26 53 -32 53
-7 0 11 11 15 36 15 32 0 35 -2 29 -22 -4 -13 -18 -34 -33 -47 -21 -19 -33
-22 -65 -18 -59 8 -80 35 -85 107 -5 75 11 118 52 136 39 17 40 17 81 -1z
m198 1 c15 -8 27 -11 27 -5 0 5 14 9 30 9 l30 0 0 -149 c0 -134 -2 -151 -20
-174 -41 -52 -147 -44 -170 13 -7 16 -9 34 -5 39 10 18 44 12 57 -9 26 -41 78
-15 78 40 0 17 -3 19 -19 10 -36 -19 -78 -12 -100 16 -16 21 -21 41 -21 90 0
72 13 107 44 122 29 14 37 14 69 -2z m285 -22 c19 -22 22 -36 22 -120 l0 -95
-42 1 c-24 1 -55 -1 -70 -5 -21 -6 -32 -2 -52 18 -48 48 -29 99 44 121 33 10
46 19 48 35 4 28 -33 29 -50 1 -12 -19 -48 -27 -60 -14 -15 14 11 60 43 77 43
22 86 16 117 -19z m-3048 -94 l0 -120 -35 0 -35 0 0 113 c0 63 3 117 7 120 3
4 19 7 35 7 l28 0 0 -120z m2271 103 c0 -10 8 -43 18 -73 l17 -55 19 73 c18
70 20 72 51 72 l32 0 -24 -82 c-79 -281 -76 -273 -113 -276 -28 -3 -33 -1 -27
14 28 74 28 99 -3 207 -18 59 -34 113 -37 122 -5 12 2 15 30 15 27 0 36 -4 37
-17z m-1952 -647 c9 -11 3 -18 -31 -36 -24 -12 -58 -35 -76 -51 -18 -16 -41
-29 -51 -29 -28 0 -70 -48 -82 -94 -12 -45 -5 -218 10 -259 6 -16 58 -55 148
-113 125 -80 163 -107 163 -116 0 -2 -39 -4 -87 -6 -59 -2 -93 -8 -103 -17
-15 -13 -29 -7 -124 55 -174 114 -194 120 -260 75 -65 -44 -64 -36 8 159 14
38 29 73 33 77 5 5 46 -16 93 -46 46 -30 86 -52 88 -50 2 2 -6 49 -17 106 -12
56 -21 120 -21 143 1 75 47 167 99 200 34 21 193 23 210 2z m1033 -74 c25 -79
27 -91 15 -124 -7 -21 -16 -40 -19 -43 -11 -12 -88 204 -88 247 0 4 15 8 33 8
32 0 32 -1 59 -88z m441 -7 c39 -25 54 -44 87 -110 47 -94 64 -155 90 -328 21
-136 38 -427 24 -414 -4 4 -10 26 -13 50 -5 37 -9 42 -33 45 -28 3 -28 2 -28
-52 0 -93 -17 -63 -24 42 -12 175 -27 327 -34 334 -4 4 -87 2 -186 -4 l-179
-11 5 -209 c3 -114 2 -208 -1 -208 -26 0 -48 303 -34 457 5 50 5 89 1 87 -4
-3 -8 7 -7 23 0 23 2 25 8 9 7 -18 8 -18 14 -2 4 10 7 27 6 39 0 13 -3 16 -6
8 -4 -11 -7 -11 -13 0 -5 8 -11 -5 -15 -34 -4 -25 -4 -51 0 -57 4 -7 1 -16 -6
-21 -11 -7 -14 -50 -14 -214 0 -113 -4 -205 -9 -205 -5 0 -6 -20 -3 -45 4 -24
2 -47 -3 -50 -16 -10 -23 106 -17 333 8 351 46 467 182 554 47 30 146 22 208
-17z m-666 -27 c111 -80 168 -267 197 -656 8 -103 10 -191 6 -195 -4 -5 -11
14 -15 41 -5 39 -11 52 -28 57 -14 4 -17 8 -9 12 7 3 12 24 11 56 -1 62 -16
173 -18 137 -1 -19 -3 -22 -10 -11 -6 9 -9 -44 -8 -139 1 -106 -1 -154 -9
-157 -8 -3 -14 35 -19 119 -4 68 -12 164 -19 213 l-11 90 -175 -4 c-96 -2
-177 -5 -180 -8 -3 -3 -4 -99 -3 -214 1 -122 -2 -209 -8 -209 -5 0 -9 15 -9
33 0 19 -9 43 -24 60 l-24 27 -6 -22 c-3 -13 -6 -40 -6 -60 0 -63 -18 -43 -26
29 -11 106 2 436 22 538 39 207 132 311 266 301 46 -3 68 -11 105 -38z m-618
-8 c48 -24 87 -70 101 -118 13 -47 13 -132 0 -132 -5 0 -10 13 -10 28 0 32
-16 52 -42 52 -14 0 -18 -8 -18 -40 0 -48 -20 -55 -21 -7 -1 49 -22 99 -52
121 -23 17 -31 18 -65 8 -50 -15 -72 -41 -79 -89 -9 -69 45 -146 147 -208 62
-38 147 -122 172 -170 29 -56 36 -161 13 -208 -35 -74 -119 -127 -200 -127
-81 1 -186 102 -184 179 l0 36 13 -41 c7 -23 28 -55 46 -72 34 -33 42 -37 53
-25 8 8 -12 35 -22 29 -4 -3 -7 7 -7 22 0 15 -4 39 -8 55 -7 21 -5 27 8 27 9
0 16 -8 16 -19 0 -30 46 -78 81 -85 59 -11 119 40 119 102 0 74 -48 139 -155
212 -88 60 -132 104 -167 173 -45 85 -34 191 25 256 54 58 165 78 236 41z
m1755 -309 c24 -205 39 -307 48 -313 22 -13 129 -9 191 9 67 18 131 71 142
116 11 42 -2 91 -39 145 l-32 49 37 21 37 21 16 -39 c23 -59 21 -166 -6 -237
-29 -78 -109 -161 -191 -199 -57 -27 -71 -29 -172 -28 -89 0 -119 4 -156 21
-40 18 -47 26 -52 60 -4 21 -7 59 -7 84 l0 46 91 -34 c50 -19 93 -32 96 -29 7
7 -38 388 -49 408 -18 36 -64 50 -125 38 -75 -13 -70 -14 -78 21 -6 24 -2 36
16 55 29 31 180 107 190 97 5 -5 24 -145 43 -312z m-2851 -66 c-7 -71 7 -93
100 -152 93 -60 567 -366 632 -409 61 -40 97 -46 152 -25 23 8 45 12 49 8 10
-10 -187 -307 -203 -307 -10 0 -13 6 -8 18 32 84 11 120 -118 204 -56 37 -199
130 -317 207 -340 222 -359 233 -400 227 -19 -3 -47 -15 -62 -26 -62 -46 -52
-19 60 157 53 84 102 153 109 153 8 0 10 -16 6 -55z m1687 -243 c0 -113 -20
-209 -60 -296 -12 -23 -19 -58 -18 -77 3 -32 1 -34 -26 -34 -24 0 -36 9 -64
47 l-34 48 21 26 20 25 26 -41 c15 -23 28 -40 31 -38 12 13 44 259 44 346 l0
102 30 0 30 0 0 -108z m583 -45 c45 -30 92 -59 103 -65 17 -9 22 -23 26 -71 7
-101 47 -128 164 -111 l74 10 70 -46 c98 -63 130 -75 170 -64 18 5 43 19 56
31 22 21 42 12 28 -13 -36 -66 -199 -308 -206 -308 -5 0 -6 21 -2 48 12 90 32
74 -532 437 -26 17 -32 28 -38 70 -8 64 -8 135 0 135 3 0 43 -24 87 -53z m54
-543 c107 -153 207 -298 224 -322 54 -79 38 -92 -89 -68 -122 24 -337 63 -462
86 -58 10 -179 33 -269 50 -90 17 -165 30 -167 28 -2 -2 40 -32 94 -67 53 -34
207 -134 342 -221 274 -178 291 -184 363 -135 20 13 39 20 42 15 7 -12 -127
-220 -142 -220 -8 0 -9 18 -6 60 6 58 5 61 -29 93 -19 17 -117 85 -219 150
-101 65 -260 168 -354 229 -93 61 -183 114 -200 119 -36 11 -85 -3 -110 -31
-16 -18 -35 -19 -35 -2 0 4 20 38 45 76 l45 70 157 -3 c164 -2 171 -3 740
-109 l152 -29 -15 26 c-9 14 -85 126 -170 249 -85 123 -154 228 -154 233 0 30
41 -22 217 -277z m-1256 -2394 c50 -14 89 -52 89 -87 0 -74 -97 -153 -186
-153 -45 0 -56 4 -73 26 -22 28 -30 104 -11 104 6 0 10 -16 10 -35 0 -25 8
-44 25 -60 28 -29 36 -30 100 -11 64 20 115 69 115 113 0 113 -280 99 -468
-24 -75 -49 -191 -169 -221 -228 -31 -63 -34 -143 -5 -181 44 -59 68 -69 167
-69 88 1 96 3 187 46 52 25 123 67 158 94 59 44 112 101 112 120 0 8 -143 2
-267 -11 -71 -8 -83 5 -31 32 62 32 475 43 494 13 3 -5 4 -9 2 -9 -43 -4 -116
-12 -125 -15 -13 -4 -122 -165 -202 -297 -87 -146 -98 -118 -15 44 24 48 44
90 44 94 0 3 -15 -4 -32 -15 -93 -61 -229 -110 -323 -118 -295 -23 -329 255
-57 468 88 70 231 138 337 162 38 9 140 7 176 -3z m1309 -125 c0 -14 -37 -75
-75 -125 -63 -82 -125 -172 -125 -182 0 -4 30 14 68 41 37 27 91 61 120 76 47
25 55 26 68 13 13 -13 9 -22 -31 -79 -78 -111 -101 -168 -75 -184 21 -13 72
29 165 135 99 113 136 143 156 123 8 -8 1 -22 -23 -49 -54 -60 -118 -160 -124
-194 -6 -27 -4 -30 17 -30 33 0 88 47 156 134 70 87 132 146 155 146 31 0 20
-33 -32 -97 -79 -98 -108 -161 -80 -178 15 -9 61 19 117 74 60 58 85 70 32 15
-121 -128 -205 -150 -202 -53 l2 42 -32 -30 c-58 -54 -95 -74 -129 -71 l-33 3
1 57 1 56 -64 -55 c-74 -62 -108 -68 -131 -20 -16 33 -5 74 40 150 16 27 27
52 24 54 -14 14 -164 -113 -222 -189 -33 -43 -49 -57 -57 -49 -33 33 246 471
300 471 7 0 13 -2 13 -5z m-562 -157 c19 -19 14 -28 -14 -28 -43 0 -92 -30
-161 -97 -67 -66 -98 -121 -88 -154 18 -57 118 20 225 174 34 48 60 77 69 75
29 -6 22 -37 -23 -105 -68 -103 -80 -153 -37 -153 23 0 38 11 111 82 70 69 55
44 -24 -39 -56 -59 -97 -74 -127 -47 -10 9 -19 28 -19 41 0 33 -21 29 -61 -13
-45 -47 -74 -58 -112 -43 -35 15 -49 47 -37 89 21 73 135 186 217 216 48 17
66 17 81 2z m-468 -50 c0 -13 -22 -42 -89 -113 -50 -55 -71 -86 -71 -108 0
-16 5 -18 26 -13 44 11 172 111 255 198 25 26 51 48 58 48 27 0 19 -33 -26
-104 -26 -41 -68 -111 -92 -155 -52 -95 -99 -153 -152 -187 -48 -30 -82 -31
-109 -2 -26 28 -20 33 18 11 28 -16 33 -16 64 -1 58 27 157 180 193 297 7 23
6 23 -36 -8 -24 -17 -60 -44 -79 -61 -19 -17 -54 -37 -78 -46 -40 -16 -43 -16
-62 1 -11 10 -20 24 -20 32 0 54 133 223 176 223 13 0 24 -6 24 -12z"/>
<path d="M6613 9773 c-20 -4 -23 -11 -23 -51 l0 -47 85 0 85 0 0 46 c0 40 -3
48 -22 53 -25 6 -90 6 -125 -1z"/>
<path d="M4235 9150 c23 -7 17 -8 -27 -5 -53 5 -58 3 -58 -15 0 -11 -5 -20
-11 -20 -5 0 -7 5 -4 10 3 6 1 10 -4 10 -6 0 -11 -7 -11 -15 0 -8 -4 -15 -8
-15 -4 0 -16 -14 -26 -31 -11 -18 -13 -28 -6 -24 9 6 10 1 5 -16 -5 -16 3 -11
24 18 52 71 109 95 173 74 42 -14 98 -67 98 -93 0 -10 7 -29 15 -41 8 -12 21
-47 29 -77 8 -30 15 -46 16 -35 l1 20 10 -20 c7 -14 8 -6 4 29 -5 49 -49 160
-72 184 -7 7 -13 18 -13 24 0 6 -7 5 -17 -3 -9 -8 -14 -9 -10 -3 12 20 -27 42
-83 47 -42 5 -48 4 -25 -3z"/>
<path d="M4172 9065 c-38 -32 -82 -131 -89 -202 l-6 -55 81 6 c45 3 118 9 162
12 67 5 80 9 80 23 0 26 -36 126 -62 172 -39 70 -112 90 -166 44z"/>
<path d="M3530 9052 c-47 -24 -86 -84 -105 -164 -25 -110 -38 -101 143 -93 86
4 160 10 163 14 10 9 -17 103 -47 167 -38 81 -92 107 -154 76z"/>
<path d="M2858 9043 c-48 -55 -55 -136 -18 -208 26 -51 115 -139 130 -130 6 4
9 2 8 -3 -2 -6 23 -27 54 -49 31 -21 66 -51 78 -66 12 -15 25 -25 30 -22 4 3
11 -2 14 -11 3 -8 2 -12 -4 -9 -13 8 -13 4 4 -36 15 -39 31 -127 20 -116 -4 4
-18 -10 -30 -31 -24 -39 -31 -68 -14 -57 6 4 8 11 5 16 -4 5 1 9 9 9 18 0 40
39 51 88 4 21 3 32 -5 32 -8 0 -9 10 -5 29 9 42 -21 95 -92 162 -72 68 -160
125 -137 87 4 -7 3 -8 -5 -4 -6 4 -9 11 -6 15 2 5 -7 19 -20 31 -14 13 -37 44
-51 68 -24 41 -26 52 -21 120 3 45 11 78 19 83 7 4 10 10 7 14 -3 3 -13 -3
-21 -12z"/>
</g>
</svg>
