<?xml version="1.0" standalone="no"?>
<!DOCTYPE svg PUBLIC "-//W3C//DTD SVG 20010904//EN"
 "http://www.w3.org/TR/2001/REC-SVG-20010904/DTD/svg10.dtd">
<svg version="1.0" xmlns="http://www.w3.org/2000/svg"
 width="720.000000pt" height="1280.000000pt" viewBox="0 0 720.000000 1280.000000"
 preserveAspectRatio="xMidYMid meet">
<metadata>
Created by potrace 1.16, written by Peter Selinger 2001-2019
</metadata>
<g transform="translate(0.000000,1280.000000) scale(0.100000,-0.100000)"
fill="#000000" stroke="none">
<path d="M0 6400 l0 -6400 3600 0 3600 0 0 1025 0 1025 -3590 0 -3590 0 0
3600 0 3600 3590 0 3590 0 0 1775 0 1775 -3600 0 -3600 0 0 -6400z m6797 3678
c152 -71 198 -271 93 -403 -27 -34 -28 -39 -14 -50 15 -11 15 -14 0 -37 -27
-41 -84 -49 -143 -21 -31 14 -42 15 -87 3 -28 -7 -73 -13 -100 -14 -42 -1 -51
3 -72 29 -22 28 -23 31 -7 42 15 12 15 15 -5 35 -55 60 -78 178 -50 269 23 77
103 146 195 168 51 13 139 3 190 -21z m-654 6 c53 -18 116 -76 143 -132 27
-55 25 -174 -3 -227 -50 -93 -120 -136 -233 -143 -63 -4 -85 -1 -128 18 -148
64 -203 241 -118 382 25 42 43 59 94 85 54 28 75 33 131 33 37 0 88 -7 114
-16z m-5802 -239 c21 -88 38 -166 38 -172 1 -8 -12 -13 -32 -13 -28 0 -34 4
-42 32 -9 29 -14 32 -50 31 -36 0 -40 -3 -47 -31 -8 -28 -13 -32 -42 -32 l-34
0 14 58 c7 31 26 110 41 175 l27 118 44 -3 45 -3 38 -160z m369 73 l1 -93 30
38 c23 27 39 37 60 37 16 0 29 -3 29 -6 0 -4 -16 -27 -35 -53 l-34 -47 21 -35
c11 -19 29 -49 40 -66 l20 -33 -36 0 c-30 0 -38 5 -57 40 -26 45 -39 43 -39
-6 0 -31 -2 -34 -30 -34 l-30 0 0 175 0 175 30 0 30 0 0 -92z m1740 -83 l0
-176 -42 1 c-24 1 -54 -1 -68 -5 -43 -11 -77 25 -85 88 -7 58 7 128 30 147 17
14 51 17 83 6 21 -7 22 -5 22 53 l0 61 30 0 30 0 0 -175z m452 83 l3 -92 25
37 c20 30 31 37 58 37 30 0 42 -12 24 -24 -5 -3 -21 -23 -36 -45 l-28 -39 34
-54 c19 -29 38 -59 42 -65 5 -10 -3 -13 -29 -13 -30 0 -39 5 -56 35 -27 45
-39 44 -39 -1 0 -34 -1 -35 -32 -32 l-33 3 -3 173 -2 172 34 0 35 0 3 -92z
m728 28 l0 -64 29 14 c31 15 77 6 93 -19 4 -7 8 -58 8 -114 l0 -103 -30 0 -30
0 0 90 c0 75 -3 92 -16 97 -37 14 -49 -10 -52 -101 l-3 -86 -29 0 -30 0 0 175
0 175 30 0 30 0 0 -64z m530 3 c0 -55 2 -60 18 -53 31 13 76 5 95 -17 13 -16
17 -40 17 -101 0 -71 -2 -81 -26 -105 -21 -21 -31 -24 -57 -18 -18 4 -49 6
-69 6 l-38 -2 0 176 0 175 30 0 30 0 0 -61z m-1480 -9 c0 -38 2 -40 30 -40 25
0 30 -4 30 -25 0 -21 -5 -25 -30 -25 l-31 0 3 -67 c3 -66 4 -68 31 -71 28 -3
31 -9 21 -36 -4 -11 -19 -16 -45 -16 -54 0 -69 25 -69 117 0 66 -2 73 -20 73
-15 0 -20 7 -20 25 0 18 5 25 20 25 17 0 20 7 20 40 0 38 2 40 30 40 28 0 30
-2 30 -40z m-2096 -61 c24 -23 34 -121 17 -172 -15 -44 -59 -66 -97 -48 -14 6
-27 11 -29 11 -3 0 -5 -30 -5 -66 l0 -65 -27 3 -28 3 -3 179 -2 179 38 -6 c22
-2 46 -1 53 4 19 11 60 1 83 -22z m405 20 c17 -6 36 -19 41 -29 6 -10 10 -62
10 -115 l0 -97 -32 3 c-18 1 -48 -1 -66 -5 -50 -12 -82 13 -82 64 0 44 20 64
83 81 28 7 37 15 35 27 -5 26 -48 28 -55 3 -6 -25 -51 -29 -60 -5 -8 21 28 67
58 75 35 10 33 10 68 -2z m290 0 c38 -14 51 -35 51 -88 l0 -41 -61 0 c-60 0
-60 0 -57 -27 3 -32 44 -46 54 -19 9 23 64 21 64 -2 0 -51 -67 -84 -124 -62
-45 17 -55 38 -56 116 0 78 20 119 63 127 12 2 25 5 28 6 3 0 20 -4 38 -10z
m198 0 c32 -12 43 -26 43 -56 0 -31 -45 -33 -53 -3 -7 26 -47 27 -47 1 0 -11
12 -23 30 -31 78 -32 101 -82 61 -131 -15 -19 -29 -24 -66 -24 -37 0 -51 5
-66 24 -28 34 -25 61 7 61 18 0 28 -6 31 -21 7 -25 46 -22 51 4 3 12 -9 23
-42 37 -76 32 -89 107 -23 135 39 17 39 17 74 4z m197 -3 c31 -13 53 -55 38
-71 -14 -14 -50 -3 -55 16 -4 13 -12 20 -24 17 -29 -5 -21 -32 15 -50 73 -36
92 -81 53 -129 -15 -19 -29 -24 -66 -24 -37 0 -51 5 -66 24 -29 36 -25 61 10
61 20 0 30 -6 34 -20 7 -28 47 -27 47 0 0 15 -13 26 -45 40 -73 31 -85 108
-21 136 39 17 40 17 80 0z m205 3 c17 -6 36 -19 41 -29 6 -10 10 -62 10 -115
l0 -97 -32 3 c-18 1 -48 -1 -66 -5 -50 -12 -82 13 -82 64 0 44 20 64 83 81 28
7 37 15 35 27 -5 25 -45 27 -58 3 -13 -24 -60 -29 -60 -6 0 32 25 66 54 74 42
12 39 12 75 0z m319 -22 c16 -15 22 -32 22 -64 l0 -43 -61 0 c-60 0 -60 0 -57
-27 3 -32 44 -46 54 -19 8 20 64 22 64 2 0 -69 -102 -98 -158 -45 -19 17 -22
31 -22 98 0 68 3 80 23 98 12 11 29 23 37 26 25 9 73 -4 98 -26z m1000 -3 c18
-21 22 -37 22 -89 0 -77 -13 -110 -50 -125 -35 -15 -93 -4 -116 21 -23 26 -31
128 -13 170 24 60 111 73 157 23z m232 16 c17 -17 20 -33 20 -125 l0 -105 -30
0 -30 0 0 90 c0 75 -3 92 -17 97 -32 12 -53 -32 -53 -113 l0 -74 -30 0 -30 0
0 120 0 120 29 0 c16 0 31 -5 33 -11 2 -6 14 -5 33 5 39 21 51 20 75 -4z m538
-13 c16 -15 22 -32 22 -64 l0 -43 -61 0 c-60 0 -60 0 -57 -27 3 -32 44 -46 54
-19 4 10 18 16 35 16 35 0 40 -29 9 -60 -27 -27 -63 -34 -105 -20 -46 15 -55
34 -55 123 0 64 3 76 23 94 12 11 29 23 37 26 25 8 74 -5 98 -26z m530 16 c18
-16 21 -32 24 -123 l3 -105 -32 -3 -33 -3 0 91 c0 72 -3 92 -15 96 -33 13 -45
-15 -45 -102 l0 -84 -35 0 -35 0 0 120 0 120 35 0 c19 0 35 -5 35 -11 0 -5 10
-3 22 5 29 21 51 20 76 -1z m227 -14 c17 -16 21 -35 23 -120 l4 -100 -44 1
c-23 1 -54 -1 -68 -5 -34 -9 -80 27 -80 61 0 42 17 62 70 79 37 12 50 22 50
36 0 26 -36 25 -52 -1 -13 -20 -52 -27 -62 -12 -10 17 29 76 54 83 36 10 82 0
105 -22z m394 20 c36 -13 61 -53 61 -99 l0 -30 -59 0 c-65 0 -73 -5 -64 -38 6
-26 48 -31 57 -7 3 9 18 15 36 15 28 0 31 -3 25 -22 -4 -13 -18 -34 -33 -47
-21 -19 -33 -22 -66 -18 -61 8 -86 43 -86 117 0 73 16 109 55 126 37 16 35 16
74 3z m204 -3 c15 -8 27 -11 27 -5 0 5 14 9 31 9 l30 0 -3 -154 c-3 -134 -5
-157 -22 -175 -42 -46 -144 -35 -166 19 -7 16 -9 34 -5 39 10 18 44 12 57 -9
27 -42 78 -15 78 41 0 18 -3 20 -12 11 -7 -7 -29 -12 -49 -12 -56 0 -79 34
-79 116 0 72 13 107 44 122 29 14 37 14 69 -2z m282 -17 c17 -16 21 -36 23
-120 l4 -100 -44 1 c-23 1 -54 -1 -68 -5 -36 -9 -80 27 -80 66 0 28 30 69 50
69 6 0 26 7 45 14 25 11 33 19 29 30 -9 22 -41 20 -56 -4 -18 -29 -58 -27 -58
3 0 68 101 98 155 46z m-3045 -99 l0 -120 -35 0 -35 0 0 113 c0 63 3 117 7
120 3 4 19 7 35 7 l28 0 0 -120z m2280 63 c19 -90 25 -92 45 -14 18 68 20 71
48 71 28 0 29 -2 23 -33 -3 -19 -25 -99 -49 -178 l-42 -144 -34 -3 c-28 -3
-32 -1 -28 15 31 106 31 95 -3 209 -18 60 -35 115 -38 122 -3 8 7 12 30 12 34
0 35 -1 48 -57z"/>
<path d="M6613 9773 c-20 -4 -23 -11 -23 -51 l0 -47 85 0 85 0 0 46 c0 40 -3
48 -22 53 -25 6 -90 6 -125 -1z"/>
<path d="M2765 8790 c-583 -44 -1112 -143 -1970 -370 -155 -41 -479 -135 -575
-167 -141 -47 -137 -44 -151 -86 -13 -39 -12 -40 19 -68 18 -16 42 -29 54 -29
12 0 71 15 132 34 313 97 921 260 1181 317 613 133 947 185 1340 209 574 36
950 -101 832 -303 -51 -87 -199 -200 -444 -340 -83 -47 -182 -102 -220 -120
-202 -100 -761 -384 -843 -428 -236 -127 -435 -264 -525 -361 -134 -143 -161
-299 -71 -420 l20 -28 150 1 c139 0 148 1 114 14 -56 21 -131 73 -156 109 -84
122 81 290 523 534 55 31 294 153 530 272 416 210 591 302 647 341 14 11 29
19 32 19 6 0 72 45 166 114 281 204 335 409 154 576 -56 51 -168 111 -246 131
-168 44 -472 65 -693 49z"/>
<path d="M5155 7285 c-197 -22 -486 -89 -904 -209 -68 -20 -138 -38 -157 -42
-19 -3 -34 -9 -34 -11 0 -3 16 -23 35 -45 20 -21 41 -50 47 -64 6 -13 17 -24
24 -24 8 0 100 24 206 54 446 126 792 196 957 196 75 0 172 -24 188 -46 16
-22 17 -90 1 -135 -24 -70 -122 -179 -257 -286 l-54 -43 130 0 130 0 55 58
c114 119 168 233 168 352 0 109 -44 177 -142 219 -99 42 -195 48 -393 26z"/>
<path d="M2992 6798 l3 -83 37 1 c21 1 44 7 53 14 17 14 20 56 5 65 -7 4 -7
12 0 25 13 24 13 26 -6 44 -9 9 -32 16 -55 16 l-40 0 3 -82z"/>
<path d="M3584 6867 c-3 -8 -4 -45 -2 -83 l3 -69 38 1 c53 2 77 27 77 80 0 32
-6 49 -22 64 -25 23 -86 27 -94 7z"/>
<path d="M3230 6520 l0 -80 45 0 c39 0 47 4 57 25 8 18 8 28 -1 39 -7 8 -9 25
-5 40 9 37 -11 56 -57 56 l-39 0 0 -80z"/>
<path d="M2695 6332 c-11 -2 -25 -8 -30 -13 -6 -4 -17 -4 -25 1 -21 14 -43 12
-34 -2 5 -7 3 -8 -7 -2 -18 11 -89 12 -89 1 0 -4 -5 -5 -12 -1 -20 12 -99 13
-91 1 4 -6 1 -7 -8 -1 -20 12 -417 15 -425 3 -4 -6 -10 -6 -17 -1 -14 11 -556
11 -572 0 -6 -4 -17 -3 -25 3 -8 5 -19 9 -25 9 -5 0 -3 -4 5 -10 8 -5 12 -12
8 -15 -3 -3 -13 1 -21 10 -20 19 -37 19 -37 0 0 -8 4 -15 9 -15 5 0 12 -8 16
-17 5 -15 4 -16 -6 -5 -7 6 -16 12 -20 12 -12 0 -20 -52 -10 -64 7 -8 7 -25 0
-50 -8 -27 -7 -42 0 -49 12 -12 15 -31 4 -24 -11 7 -10 -65 1 -82 5 -7 5 -16
0 -20 -13 -9 -14 -64 -2 -78 5 -7 6 -18 2 -25 -12 -19 -15 -66 -5 -72 5 -4 5
-23 -1 -46 -8 -30 -7 -44 2 -55 8 -9 8 -15 2 -15 -13 0 -13 -61 0 -77 5 -7 6
-18 2 -25 -12 -20 -14 -61 -3 -75 6 -6 7 -18 3 -25 -12 -20 -14 -61 -3 -75 6
-6 7 -18 3 -25 -12 -19 -13 -51 -2 -65 6 -8 6 -25 -2 -47 -10 -32 -9 -38 14
-63 14 -15 23 -29 20 -32 -3 -3 -9 1 -13 8 -7 11 -10 11 -17 0 -4 -7 -3 -14 4
-17 7 -2 12 -11 11 -20 0 -11 -2 -12 -6 -4 -2 6 -9 12 -14 12 -13 0 -11 -28 2
-32 8 -3 8 -16 -1 -47 -9 -34 -9 -46 0 -51 8 -5 9 -16 5 -30 -5 -15 -2 -25 6
-31 11 -7 10 -9 -3 -9 -24 0 -23 -19 4 -41 17 -16 18 -19 5 -19 -10 0 -17 -7
-17 -15 0 -17 16 -20 25 -5 4 6 11 7 17 4 6 -4 13 -2 17 3 9 15 71 27 71 14 0
-6 -7 -8 -15 -5 -8 4 -15 1 -15 -5 0 -12 44 -10 56 2 4 4 -8 22 -27 40 -19 18
-41 42 -49 53 -14 18 -13 18 9 -1 13 -11 38 -35 56 -52 31 -32 55 -42 55 -24
0 5 -10 18 -22 28 -13 11 -45 44 -73 73 -59 65 -26 39 56 -43 32 -32 63 -56
69 -52 5 3 -19 36 -55 72 -36 36 -65 69 -65 74 0 4 15 -8 34 -26 30 -32 56
-45 56 -28 0 4 -16 22 -36 40 -20 18 -32 33 -27 33 5 0 20 -11 33 -25 13 -14
27 -25 32 -25 18 0 6 23 -27 56 -20 19 -32 34 -27 34 5 0 31 -22 58 -50 47
-48 64 -59 64 -42 0 4 -27 35 -60 70 -33 34 -56 62 -52 62 5 0 30 -22 56 -50
44 -47 66 -61 66 -42 0 5 -9 18 -20 30 -17 18 -18 22 -5 22 21 0 19 13 -5 35
-11 10 -18 20 -16 22 2 2 21 -12 41 -32 21 -19 42 -35 46 -35 11 0 12 17 2 22
-12 5 -68 68 -61 68 4 0 25 -18 48 -40 38 -37 60 -49 60 -34 0 3 -21 28 -47
54 -70 69 -105 112 -52 63 24 -24 48 -43 52 -43 16 0 6 28 -18 50 -14 13 -25
27 -25 31 0 4 22 -15 49 -42 27 -27 52 -49 55 -49 15 0 3 24 -26 54 -39 37
-62 66 -55 66 2 0 34 -29 70 -65 36 -36 68 -65 71 -65 18 0 -1 28 -59 86 -36
36 -65 68 -65 72 0 7 52 -41 85 -77 14 -15 26 -21 34 -16 10 5 6 14 -14 31
-16 13 -22 24 -16 24 7 0 28 -17 46 -37 19 -21 37 -34 42 -29 4 5 2 11 -4 13
-7 3 -13 9 -13 15 0 5 -18 27 -40 49 -22 22 -40 43 -40 46 0 8 74 -61 103 -94
19 -23 37 -30 37 -14 0 5 -22 32 -50 60 -65 67 -65 80 0 16 51 -50 85 -57 37
-7 -40 42 -32 48 10 7 20 -19 40 -35 45 -35 19 0 5 22 -42 66 -27 26 -50 50
-50 55 0 4 32 -24 71 -62 39 -38 75 -69 80 -69 17 0 9 19 -17 39 -15 12 -22
21 -15 21 6 0 33 -23 61 -51 27 -28 54 -48 60 -44 6 4 -15 32 -50 67 -33 34
-58 64 -55 67 3 3 19 -10 34 -28 21 -24 31 -30 36 -20 5 8 -2 21 -18 35 -15
13 -27 28 -27 34 0 6 38 -28 84 -76 50 -50 89 -83 96 -79 7 4 -13 31 -54 71
-37 36 -66 69 -66 74 0 5 45 -36 99 -91 55 -54 102 -95 106 -90 3 6 -32 49
-79 96 -46 47 -81 85 -77 85 4 0 41 -34 83 -75 42 -41 79 -75 82 -75 16 0 2
25 -34 61 -22 22 -40 43 -40 46 0 7 29 -16 56 -44 12 -13 24 -23 28 -23 14 0
5 24 -16 41 -11 11 -17 19 -13 19 5 0 21 -12 37 -27 34 -32 46 -25 22 14 -16
25 -13 24 22 -9 44 -42 54 -46 54 -22 0 13 6 10 25 -10 14 -15 30 -24 37 -20
8 5 7 10 -3 18 -24 20 -93 96 -87 96 3 0 29 -22 58 -50 29 -27 56 -50 61 -50
16 0 9 18 -13 37 -13 10 -34 32 -48 48 l-25 30 24 -20 c14 -11 39 -35 57 -52
30 -31 54 -42 54 -26 0 4 -10 17 -23 28 -12 11 -29 29 -37 40 l-15 20 25 -20
c13 -11 34 -31 46 -43 14 -14 28 -21 35 -16 9 5 7 11 -6 21 -11 7 -15 13 -9
13 5 0 22 -11 37 -26 15 -14 32 -22 39 -18 7 5 5 11 -7 21 -11 7 -15 13 -9 13
5 0 21 -11 36 -25 45 -42 65 -31 26 14 -19 21 -17 20 12 -4 18 -16 42 -40 53
-52 21 -26 37 -30 37 -8 0 8 -4 15 -9 15 -5 0 -12 8 -16 17 -4 12 3 9 22 -10
33 -31 40 -33 45 -12 2 11 11 8 35 -15 18 -17 34 -30 38 -30 5 0 -14 39 -25
50 -3 3 -6 14 -7 25 -1 11 -6 43 -11 70 -6 28 -12 87 -14 131 -2 55 -7 80 -14
77 -6 -2 -18 3 -27 11 -18 18 -32 9 -16 -11 9 -10 8 -13 -1 -13 -21 0 -50 43
-38 58 12 14 38 16 38 2 0 -5 7 -10 16 -10 10 0 14 6 10 15 -3 8 -1 15 4 15 6
0 10 -4 10 -10 0 -5 4 -10 8 -10 5 0 19 39 32 88 24 90 94 248 120 269 8 7 12
13 8 13 -4 0 9 15 27 34 19 18 35 37 35 42 1 19 162 124 255 166 48 21 56 28
41 34 -10 4 -26 2 -35 -5 -67 -48 -77 -52 -124 -48 -34 3 -56 12 -75 29 -15
14 -45 29 -67 33 -21 4 -51 13 -66 20 -17 9 -51 13 -95 11 -38 -2 -73 0 -79 4
-5 3 -19 4 -30 2z m-129 -119 c29 -31 54 -42 54 -26 0 4 -10 17 -23 28 -27 24
-51 55 -44 55 8 0 269 -262 264 -266 -1 -2 -44 37 -95 87 -51 49 -97 87 -103
84 -6 -4 10 -27 38 -54 26 -26 57 -58 68 -71 l20 -25 -29 25 c-17 14 -40 35
-52 48 -11 12 -24 22 -28 22 -16 0 -3 -25 30 -57 20 -19 34 -36 32 -39 -3 -2
-13 5 -23 16 -10 11 -22 20 -27 20 -13 0 -9 -28 5 -33 8 -4 8 -6 0 -6 -6 -1
-20 10 -31 24 -11 14 -25 25 -31 25 -21 0 -11 -22 27 -57 20 -19 30 -31 22
-27 -16 8 -93 77 -119 106 -11 13 -18 15 -28 6 -10 -8 -18 -6 -33 7 -23 21
-39 13 -20 -10 7 -8 8 -15 3 -15 -6 0 -19 11 -29 25 -17 23 -44 34 -44 19 0
-4 26 -32 58 -63 31 -32 64 -66 72 -77 14 -18 13 -18 -10 1 -14 11 -35 30 -47
43 -25 25 -33 27 -33 11 0 -7 16 -27 35 -45 18 -19 30 -34 25 -34 -9 0 -190
178 -235 231 -38 45 14 -1 91 -79 43 -44 75 -69 79 -63 3 6 -23 40 -59 76 -60
59 -88 96 -51 65 17 -14 38 -4 29 13 -5 8 -3 8 7 0 7 -7 17 -13 21 -13 13 0 9
28 -4 33 -7 2 2 7 19 11 28 6 36 4 57 -21 13 -15 28 -25 32 -21 4 4 -5 20 -20
34 -14 15 -24 30 -20 33 3 3 10 -2 15 -12 11 -19 35 -23 41 -6 2 6 23 -7 46
-30 38 -37 62 -51 62 -35 0 4 -10 17 -22 28 -13 12 -34 35 -48 52 l-25 29 25
-20 c13 -11 38 -35 56 -52z m-70 -660 c17 -19 27 -24 31 -15 7 19 21 14 33
-10 10 -21 10 -22 -3 -5 -10 12 -17 15 -22 7 -7 -11 21 -50 37 -50 4 0 8 7 8
15 0 13 3 13 18 -2 10 -10 24 -27 32 -38 14 -18 14 -19 -2 -7 -27 21 -29 -3
-3 -28 14 -13 25 -28 25 -34 0 -6 -4 -5 -9 3 -5 7 -14 10 -20 6 -9 -5 -9 -11
1 -23 12 -17 -9 -1 -56 41 -31 27 -52 17 -23 -12 10 -10 9 -11 -5 -6 -10 4
-18 11 -18 16 0 5 -7 9 -15 9 -18 0 -19 -12 -3 -28 7 -7 10 -12 7 -12 -2 0
-31 27 -64 60 -33 33 -56 60 -53 60 4 0 25 -18 47 -41 23 -22 46 -37 52 -33 7
4 3 14 -12 28 -13 12 -33 31 -43 44 -16 18 -17 22 -4 17 9 -4 19 -13 22 -21 3
-8 10 -14 16 -14 11 0 14 30 3 30 -5 0 -16 12 -27 26 -18 25 -18 25 3 12 12
-7 21 -16 21 -20 0 -5 5 -8 10 -8 16 0 12 14 -10 38 -12 12 -16 22 -10 22 6 0
22 -12 36 -27z"/>
<path d="M4030 6324 c0 -3 44 -50 98 -103 53 -54 108 -111 122 -127 l25 -29
-25 20 c-13 11 -39 35 -57 53 -17 19 -37 31 -42 27 -6 -3 12 -28 40 -56 28
-28 49 -53 46 -55 -2 -3 -57 48 -121 112 -64 64 -115 119 -112 121 2 2 22 -14
44 -37 26 -28 42 -38 47 -30 9 15 -83 109 -93 94 -9 -14 -91 -34 -139 -34 -37
0 -37 0 -15 -16 12 -8 26 -13 31 -9 5 3 15 -1 23 -8 22 -23 58 -38 70 -31 7 5
8 3 3 -6 -5 -8 -3 -11 6 -8 8 3 58 -39 120 -101 78 -77 112 -120 129 -158 12
-29 28 -58 36 -64 8 -6 14 -21 14 -33 0 -12 4 -26 8 -32 9 -10 25 -74 42 -176
13 -71 1 -238 -20 -293 -11 -30 -4 -48 9 -26 6 9 11 10 15 2 4 -6 2 -11 -3
-11 -17 0 -13 -13 14 -44 25 -30 35 -50 13 -28 -7 7 -16 12 -20 12 -17 0 -6
-20 35 -59 34 -34 39 -43 27 -51 -12 -7 -11 -13 10 -34 13 -15 18 -26 12 -26
-7 0 -12 5 -12 10 0 6 -7 10 -15 10 -21 0 -19 -9 8 -34 12 -12 33 -35 47 -52
20 -23 21 -25 3 -10 -31 26 -49 10 -21 -19 18 -19 26 -21 38 -12 13 10 13 10
2 -4 -10 -14 -8 -19 13 -35 14 -10 25 -24 25 -31 0 -7 7 -13 15 -13 8 0 15 8
15 18 0 14 2 14 9 3 8 -13 12 -13 26 -1 15 12 19 12 30 -3 17 -24 67 -27 71
-5 1 9 -4 22 -12 29 -8 6 -14 16 -14 22 0 6 14 -4 31 -21 36 -36 32 -35 78
-22 23 6 39 6 46 0 13 -11 50 -9 61 3 4 4 -3 19 -17 34 l-24 28 25 -20 c13
-11 33 -28 44 -37 22 -20 36 -23 36 -8 0 6 -3 10 -8 10 -4 0 -13 10 -21 23
l-14 22 24 -20 c13 -11 29 -26 35 -34 8 -11 13 -11 18 -2 5 7 -3 22 -19 37
-40 37 -19 29 28 -11 42 -36 57 -43 57 -25 0 6 -4 10 -9 10 -5 0 -12 7 -15 16
-6 15 -4 15 11 3 10 -8 23 -20 29 -28 9 -11 12 -12 19 -1 5 9 -1 21 -20 37
-15 13 -26 26 -24 28 2 2 24 -14 48 -36 48 -42 60 -44 40 -7 -11 21 -11 22 5
9 21 -17 33 -7 16 14 -17 20 -8 19 18 -2 53 -45 63 -53 68 -53 3 0 4 7 0 15
-7 19 4 19 18 0 9 -13 15 -13 38 -3 16 7 28 19 28 26 0 10 3 10 15 -2 8 -8 15
-17 15 -20 0 -3 -7 -3 -15 0 -8 4 -15 1 -15 -5 0 -11 51 -12 60 0 3 3 19 9 35
12 17 3 24 4 18 1 -7 -3 -13 -9 -13 -14 0 -10 40 -7 59 4 7 5 18 3 24 -3 14
-14 64 -14 72 -1 4 7 12 7 25 0 25 -13 63 -13 77 1 8 8 13 8 17 0 4 -6 22 -11
40 -11 17 0 37 5 43 11 8 8 13 8 17 0 9 -15 59 -14 74 1 8 8 15 8 26 -1 24
-20 96 -3 96 22 0 7 -4 6 -10 -3 -5 -8 -10 -10 -10 -4 0 6 3 14 7 18 19 19 20
166 1 178 -9 5 -9 8 -1 8 13 0 15 70 2 87 -6 7 -6 13 -1 17 12 7 14 164 1 171
-5 4 -9 12 -9 18 0 8 4 7 9 -2 6 -9 9 60 9 182 0 108 -4 197 -9 197 -5 0 -9 5
-9 11 0 5 4 8 9 5 5 -3 9 13 9 36 1 24 -4 45 -9 49 -6 4 -6 15 1 33 13 36 11
147 -4 165 -8 11 -8 13 2 7 9 -5 12 6 13 46 1 29 0 58 -1 63 -1 6 -3 33 -4 60
-1 47 -3 50 -29 53 -16 2 -34 -2 -42 -8 -8 -6 -16 -7 -19 -2 -7 12 -847 12
-863 0 -7 -5 -14 -5 -18 2 -8 13 -72 13 -80 0 -4 -7 -12 -7 -25 0 -24 13 -40
13 -20 0 8 -5 11 -13 6 -17 -4 -4 -13 -1 -19 7 -8 10 -28 16 -54 16 -33 -1
-39 -3 -31 -13 7 -8 7 -13 0 -13 -5 0 -15 7 -22 15 -7 8 -17 12 -22 9 -5 -3
-2 -14 8 -25 9 -11 15 -21 12 -24 -2 -3 -17 8 -31 25 -25 27 -67 44 -52 20 4
-6 11 -7 17 -4 7 4 8 2 4 -5 -4 -6 0 -14 8 -17 9 -3 16 -13 16 -21 0 -9 -14
-1 -37 21 -20 19 -41 32 -46 29 -5 -3 1 -15 14 -27 13 -12 33 -32 44 -46 l20
-25 -30 25 c-16 14 -42 37 -58 53 -16 15 -36 26 -45 26 -15 -1 -15 -2 1 -6 9
-2 17 -9 17 -15 0 -6 15 -25 33 -43 17 -17 39 -40 47 -51 14 -18 13 -18 -9 1
-13 11 -47 42 -75 69 -27 27 -52 44 -54 37 -2 -6 16 -30 40 -54 23 -24 52 -54
63 -68 l20 -24 -30 25 c-16 14 -38 35 -48 48 -10 12 -23 22 -28 22 -11 0 -12
-30 -1 -30 4 0 16 -13 27 -28 18 -26 18 -26 0 -12 -10 8 -45 41 -76 73 -34 34
-60 54 -64 47 -3 -5 26 -42 64 -80 39 -39 67 -70 62 -70 -6 0 -32 23 -59 50
-27 28 -52 50 -56 50 -16 0 -3 -26 30 -56 19 -19 31 -34 26 -34 -4 0 -19 11
-32 25 -13 14 -27 25 -32 25 -15 0 -8 -23 14 -41 11 -11 17 -19 11 -19 -5 0
-26 16 -46 35 -38 37 -47 42 -47 24 0 -7 16 -25 35 -42 19 -16 35 -34 35 -39
0 -5 -10 0 -22 12 -22 20 -38 26 -38 13 0 -4 17 -24 37 -45 20 -21 34 -38 29
-38 -4 0 -41 34 -82 75 -68 69 -94 87 -94 68 0 -5 26 -33 58 -64 63 -61 88
-89 78 -89 -3 0 -28 23 -56 50 -48 48 -70 61 -70 41 0 -5 10 -18 23 -28 25
-21 52 -53 44 -53 -3 0 -29 23 -56 50 -45 45 -71 61 -71 44 0 -4 10 -17 23
-28 12 -12 33 -35 47 -52 l25 -29 -25 20 c-49 40 -227 224 -222 230 3 3 -4 5
-16 5 -12 0 -22 -3 -22 -6z"/>
<path d="M3420 6206 c-98 -21 -173 -53 -255 -107 -93 -62 -231 -218 -194 -219
11 -1 11 -3 -1 -13 -8 -7 -16 -23 -18 -37 -1 -13 -11 -34 -22 -45 -33 -35 -60
-139 -60 -228 l0 -80 23 21 c13 12 28 22 34 22 6 0 16 7 23 15 18 21 30 19 30
-6 0 -15 -5 -19 -15 -15 -12 4 -15 -5 -15 -53 0 -64 -16 -83 -45 -54 -24 23
-29 9 -16 -44 26 -104 79 -192 170 -283 96 -96 174 -145 291 -181 63 -20 95
-24 200 -23 110 1 135 4 210 30 106 35 234 120 295 194 39 47 42 56 28 64 -14
7 -11 12 18 25 27 13 34 22 32 43 -1 18 4 29 16 33 23 7 41 46 46 99 3 23 2
35 -1 29 -8 -18 -29 -16 -99 7 -50 16 -55 19 -29 19 31 1 32 2 32 52 0 38 -4
49 -14 45 -13 -5 -31 31 -20 41 3 3 19 6 36 5 23 0 30 4 30 18 0 29 42 154 54
162 8 5 6 18 -5 40 -9 18 -24 50 -33 72 -21 47 -32 38 -35 -26 -1 -10 -8 -18
-16 -18 -10 0 -15 -10 -15 -34 0 -19 4 -36 8 -38 5 -1 6 -13 3 -26 l-6 -24
-24 21 c-14 12 -36 24 -50 28 -14 3 -31 9 -36 14 -6 4 -33 10 -59 14 -95 11
-91 6 -94 100 -3 72 -1 86 13 91 19 8 34 -5 40 -34 9 -48 23 -59 81 -67 l57
-7 38 42 c22 24 39 44 39 46 0 9 -86 101 -104 110 -11 7 -43 12 -71 11 -68 -1
-138 30 -131 58 3 11 6 23 6 27 0 4 8 4 18 1 15 -6 15 -5 3 10 -39 49 -266 79
-391 53z m338 -317 c1 -8 -18 -35 -42 -61 -52 -56 -109 -76 -142 -49 -37 29
-53 64 -43 90 9 22 12 23 72 17 46 -5 71 -3 97 8 39 17 54 16 58 -5z m-138
-253 c0 -8 11 -17 25 -20 16 -4 22 -11 19 -21 -4 -8 1 -17 9 -21 8 -3 20 -18
27 -34 14 -34 33 -40 123 -40 51 0 68 -3 64 -12 -2 -7 -14 -12 -27 -10 -14 2
-20 0 -16 -7 4 -6 1 -9 -7 -5 -8 3 -47 6 -86 7 -71 2 -72 3 -111 45 -22 24
-40 47 -40 52 0 4 -5 10 -11 12 -17 6 -1 68 17 68 8 0 14 -6 14 -14z"/>
<path d="M1560 4970 c0 -5 7 -10 15 -10 8 0 15 -5 15 -11 0 -6 7 -17 15 -26
19 -19 11 -31 -9 -14 -10 8 -16 9 -21 1 -10 -17 -45 -12 -39 5 4 10 0 15 -11
15 -9 0 -15 -6 -13 -12 3 -7 -21 -31 -51 -52 -166 -118 -268 -210 -327 -294
-104 -149 -108 -286 -11 -397 45 -52 119 -92 204 -110 89 -19 347 -19 489 -1
123 17 282 44 292 50 4 2 49 11 101 20 78 14 497 115 726 175 78 21 105 40
111 82 4 26 0 41 -17 62 -29 38 -34 38 -419 -60 -341 -86 -440 -108 -685 -150
-140 -24 -186 -28 -370 -28 -202 0 -212 1 -259 24 -125 62 -110 171 48 326 88
87 254 204 406 284 99 53 100 58 2 52 -24 -2 -49 2 -57 9 -9 7 -15 8 -20 0 -8
-13 -45 -13 -45 0 0 13 -50 70 -62 70 -4 0 -8 -4 -8 -10z"/>
</g>
</svg>
