<?xml version="1.0" standalone="no"?>
<!DOCTYPE svg PUBLIC "-//W3C//DTD SVG 20010904//EN"
 "http://www.w3.org/TR/2001/REC-SVG-20010904/DTD/svg10.dtd">
<svg version="1.0" xmlns="http://www.w3.org/2000/svg"
 width="720.000000pt" height="1280.000000pt" viewBox="0 0 720.000000 1280.000000"
 preserveAspectRatio="xMidYMid meet">
<metadata>
Created by potrace 1.16, written by Peter Selinger 2001-2019
</metadata>
<g transform="translate(0.000000,1280.000000) scale(0.100000,-0.100000)"
fill="#000000" stroke="none">
<path d="M0 6400 l0 -6400 3600 0 3600 0 0 1098 0 1098 -50 59 c-28 33 -55 61
-60 63 -15 5 -63 -25 -105 -66 -84 -82 -144 -99 -240 -67 -25 9 -51 12 -58 8
-22 -14 -170 -12 -203 3 -53 23 -57 35 -49 125 3 45 13 111 20 146 7 35 11 88
8 117 -4 38 -1 56 9 67 15 14 24 52 37 144 4 32 16 60 31 78 22 25 45 107 31
107 -4 0 -12 13 -19 29 -10 22 -10 34 -1 55 7 14 16 26 20 26 4 0 19 23 34 51
24 47 26 59 21 118 -5 50 -3 73 9 95 12 24 13 31 3 37 -8 5 -12 27 -11 59 0
27 0 50 -2 50 -3 0 -29 -79 -69 -208 -9 -29 -25 -95 -36 -148 -11 -52 -24
-103 -30 -114 -5 -10 -10 -27 -10 -38 0 -10 -18 -61 -40 -112 -22 -51 -40
-100 -40 -107 0 -25 -19 -13 -29 19 -6 18 -21 46 -34 61 l-23 29 -49 -69 c-28
-37 -81 -102 -120 -143 -38 -42 -93 -101 -122 -133 -29 -31 -55 -57 -58 -57
-3 0 -42 -35 -86 -77 -45 -43 -88 -78 -97 -78 -10 -1 -23 -5 -31 -9 -11 -7
-12 -3 -7 20 4 16 10 62 13 101 5 71 5 73 -18 73 -17 0 -20 3 -12 11 8 8 17 8
30 0 17 -8 19 -7 18 11 -1 12 -6 23 -12 25 -8 3 -12 52 -12 142 -1 115 1 140
14 144 8 4 19 -1 23 -10 6 -10 16 -14 26 -10 10 4 15 11 12 16 -3 5 0 14 7 20
7 5 14 32 16 58 2 54 11 73 11 25 0 -34 17 -44 26 -14 3 9 14 35 25 57 l20 40
-6 -57 c-4 -47 -2 -58 10 -58 11 0 15 11 15 43 0 55 7 62 60 66 25 2 51 7 58
13 8 7 12 7 12 -1 0 -19 16 -12 30 14 7 14 19 25 27 25 7 0 13 5 13 10 0 6 6
10 14 10 7 0 22 11 32 25 10 14 22 25 26 25 13 0 128 121 128 135 0 8 3 15 8
15 8 0 36 68 47 115 10 39 13 62 22 170 7 77 14 101 47 163 21 39 45 72 52 72
18 0 17 24 -1 175 -21 165 -66 378 -88 411 -4 7 -9 31 -12 54 -3 24 -9 48 -13
54 -3 6 -8 20 -9 31 -2 11 -21 77 -43 146 -22 70 -40 133 -40 140 0 25 -389
1133 -406 1157 -5 7 -151 -43 -344 -117 -58 -22 -109 -41 -115 -41 -5 0 -21
-6 -35 -13 -14 -7 -44 -19 -67 -26 -42 -14 -43 -28 -2 -43 23 -9 31 -64 30
-192 l-1 -108 26 5 c20 3 28 0 31 -14 3 -11 10 -19 15 -19 5 0 7 -4 4 -9 -4
-5 -1 -22 4 -37 8 -19 8 -30 0 -38 -18 -18 -12 -38 42 -144 44 -85 58 -104 85
-114 24 -9 34 -20 40 -47 10 -43 30 -52 35 -15 4 39 28 44 28 5 0 -16 -5 -33
-10 -36 -6 -3 -10 -17 -10 -31 0 -14 -7 -27 -15 -30 -22 -9 -18 -30 9 -48 16
-10 26 -12 28 -4 3 7 10 4 21 -6 16 -16 17 -16 17 13 0 17 4 31 9 31 11 0 21
-25 21 -52 0 -12 8 -27 17 -34 10 -7 14 -16 10 -21 -5 -4 -16 3 -26 16 -17 22
-18 22 -25 5 -4 -11 -2 -23 6 -29 8 -5 27 -36 43 -68 24 -49 27 -60 14 -67
-11 -8 -12 -13 -2 -29 13 -21 6 -62 -13 -73 -13 -9 -7 -48 7 -48 5 0 9 -4 9
-10 0 -15 33 -50 47 -50 7 0 10 7 7 15 -4 9 -1 15 7 15 16 0 81 -129 72 -143
-7 -12 -42 33 -43 55 0 24 -11 48 -21 48 -5 0 -7 -12 -6 -27 4 -33 27 -83 39
-83 4 0 8 -5 8 -12 0 -6 10 -22 22 -35 25 -27 16 -43 -13 -24 -30 18 -37 5
-11 -19 12 -12 22 -31 22 -43 -1 -21 -1 -21 -25 6 -27 30 -35 33 -35 13 0 -7
10 -20 22 -28 14 -10 19 -20 15 -32 -4 -10 -12 -14 -18 -10 -9 5 -10 -1 -5
-20 4 -18 3 -25 -4 -21 -13 8 -13 -6 0 -40 9 -23 6 -34 -20 -71 -34 -52 -35
-54 -16 -54 11 0 13 -9 10 -38 -12 -82 -26 -83 -48 -4 l-16 57 6 -75 c3 -53 2
-71 -6 -60 -9 13 -10 13 -10 0 0 -22 -49 -76 -66 -72 -8 2 -14 -1 -14 -6 0
-22 -82 -101 -111 -107 -17 -4 -33 -14 -36 -22 -3 -9 -31 -27 -62 -40 -31 -14
-58 -28 -61 -32 -3 -4 -26 -19 -51 -33 l-47 -25 -11 21 c-21 40 -89 271 -125
421 -19 83 -47 200 -62 260 -14 61 -29 133 -33 160 -4 28 -10 55 -13 61 -4 6
-9 21 -12 35 -4 22 -19 85 -32 134 -3 11 -7 31 -10 45 -3 14 -20 75 -38 135
-59 197 -106 360 -106 370 0 6 12 36 27 68 25 53 31 58 56 54 23 -3 27 0 27
19 0 13 5 26 10 29 15 10 12 35 -5 35 -11 0 -15 12 -15 43 0 23 -7 51 -15 61
-14 18 -15 15 -16 -40 l-1 -59 -24 53 c-14 28 -30 52 -35 52 -5 0 -9 17 -9 38
0 28 -8 44 -30 66 -23 22 -27 32 -19 43 9 9 8 13 0 13 -18 0 -319 -103 -526
-180 -104 -39 -260 -95 -345 -125 -278 -97 -325 -118 -328 -144 -2 -13 2 -27
10 -32 14 -9 17 -82 5 -139 -4 -19 -19 -48 -33 -65 -15 -16 -23 -24 -19 -16 5
9 3 12 -6 9 -8 -3 -20 -29 -27 -59 -38 -154 -46 -163 -44 -49 1 51 -2 69 -10
64 -7 -5 -8 -3 -3 6 4 7 2 16 -6 21 -11 7 -10 16 5 56 10 26 24 69 31 94 7 26
21 61 29 78 9 17 14 31 12 31 -8 0 -164 -59 -183 -69 -10 -5 -46 -20 -80 -33
-59 -22 -75 -40 -30 -37 12 1 37 1 55 1 27 -2 32 -6 32 -28 0 -29 -21 -54 -44
-54 -12 0 -16 -10 -16 -38 0 -36 2 -39 38 -48 l37 -9 9 -73 c5 -42 5 -90 0
-115 -8 -36 -13 -42 -37 -45 -28 -3 -29 -5 -23 -50 8 -57 -3 -79 -31 -64 -18
10 -84 79 -133 141 -13 17 -32 31 -41 31 -21 0 -32 14 -55 74 -10 27 -27 51
-37 54 -22 6 -31 40 -25 103 5 43 3 50 -11 45 -9 -2 -38 -12 -66 -20 -69 -21
-209 -71 -224 -81 -7 -4 -62 -22 -124 -41 -61 -19 -124 -41 -140 -49 -17 -8
-47 -15 -69 -15 -31 0 -38 3 -38 20 0 11 7 28 16 39 9 11 27 50 40 88 13 40
33 77 48 90 14 12 26 26 26 31 0 5 9 17 20 27 11 10 20 24 20 31 0 7 10 25 23
41 23 28 55 102 77 178 6 22 15 49 20 60 22 52 72 205 80 247 5 26 19 67 30
90 27 56 25 67 -5 34 -14 -15 -25 -32 -25 -37 0 -15 -123 -191 -190 -274 -87
-106 -253 -262 -370 -349 -58 -42 -115 -85 -128 -94 -22 -17 -22 -19 -11 -107
14 -113 6 -336 -16 -429 -15 -63 -75 -213 -98 -243 -8 -11 -32 -55 -123 -228
-20 -38 -53 -99 -74 -135 -102 -178 -115 -210 -90 -225 15 -9 70 -139 95 -225
7 -25 24 -70 38 -101 14 -31 38 -95 53 -143 30 -99 52 -122 142 -151 45 -15
61 -16 114 -5 69 13 122 44 138 80 33 72 67 233 57 271 -7 26 -1 24 40 -16 30
-29 43 -35 80 -35 36 0 50 6 74 29 17 17 29 40 29 55 0 14 5 26 10 26 18 0 11
-52 -10 -70 -10 -9 -24 -29 -30 -44 -13 -35 -13 -166 0 -166 5 0 24 9 42 20
21 13 51 20 83 20 28 1 68 7 90 15 52 19 68 18 32 -1 -35 -19 -47 -50 -47
-118 0 -67 34 -175 60 -191 10 -6 14 -75 5 -75 -4 0 -20 8 -38 17 -18 9 -44
16 -60 15 -38 -3 -72 17 -145 87 l-63 61 7 47 c10 60 9 78 -5 128 -30 105 -73
97 -96 -18 -4 -21 -11 -27 -30 -27 -80 0 65 -194 184 -246 l26 -12 -28 -11
c-21 -8 -27 -17 -27 -40 l0 -30 63 6 c48 4 71 2 95 -11 17 -9 51 -16 77 -16
41 0 45 -2 45 -25 0 -28 -36 -129 -53 -148 -7 -7 -17 -22 -24 -32 -6 -11 -17
-18 -25 -16 -7 2 -31 7 -53 11 -22 4 -76 19 -120 34 -50 17 -90 24 -107 21
-32 -8 -47 -25 -22 -25 33 0 194 -43 194 -52 0 -4 18 -8 40 -8 22 0 40 -4 40
-10 0 -5 -6 -10 -12 -10 -7 0 -26 -7 -42 -15 -26 -14 -44 -14 -125 -5 -53 7
-97 15 -99 18 -22 55 -52 76 -76 52 -8 -8 -7 -15 7 -24 20 -15 22 -48 5 -76
-18 -28 -5 -33 36 -16 28 12 59 14 135 9 91 -5 102 -4 152 20 103 49 161 127
176 234 3 24 9 45 13 48 4 2 38 5 77 6 63 2 73 5 97 29 14 16 26 33 26 38 0 6
16 23 36 39 39 32 39 53 -2 72 -35 16 -80 14 -108 -5 -31 -20 -42 -60 -21 -81
23 -22 10 -29 -19 -9 -38 24 -76 69 -76 88 0 10 -4 18 -10 18 -16 0 -11 84 6
109 9 12 19 51 21 85 6 70 -12 102 -49 91 -14 -5 -10 2 14 27 l33 35 28 -61
c47 -99 91 -152 143 -172 38 -14 50 -15 66 -5 17 11 19 10 16 -8 -2 -11 7 -28
21 -40 l24 -21 25 22 c13 13 36 44 50 70 15 27 30 48 35 48 4 0 7 13 7 28 0
16 16 55 36 88 20 32 38 73 41 91 8 47 52 92 94 95 l34 3 -1 -50 c-4 -157 -15
-263 -31 -297 -10 -21 -21 -38 -25 -38 -5 0 -8 -5 -8 -11 0 -10 -22 -61 -61
-145 -10 -22 -19 -53 -19 -68 0 -15 -13 -46 -29 -69 -15 -23 -31 -59 -35 -81
-5 -25 -21 -54 -46 -80 -45 -48 -85 -105 -95 -135 -3 -11 -9 -20 -13 -18 -10
3 -72 -69 -94 -108 -27 -48 -131 -151 -176 -174 -22 -11 -43 -24 -45 -28 -3
-5 -572 -10 -1265 -12 l-1260 -3 33 128 c32 124 79 264 124 368 21 47 23 77 3
39 -56 -105 -119 -298 -166 -505 -6 -28 -7 -28 -91 -28 l-86 0 2 882 c0 486 5
892 9 903 5 11 9 14 9 8 1 -7 9 -13 20 -13 10 0 24 -6 31 -14 6 -8 21 -16 33
-18 30 -4 33 -40 7 -76 -26 -35 -17 -74 15 -61 11 4 14 8 8 8 -9 1 -8 7 4 20
9 11 22 17 29 14 7 -3 14 5 16 18 5 39 28 35 28 -5 0 -29 4 -36 20 -36 25 0
25 20 0 67 -11 21 -20 54 -20 74 0 36 1 36 46 43 48 6 74 -4 74 -30 0 -9 11
-14 29 -14 25 0 31 -7 55 -59 14 -32 26 -63 26 -69 0 -14 27 -23 46 -15 10 4
14 14 11 29 -6 34 17 51 35 25 8 -12 17 -18 21 -15 9 9 -4 34 -18 34 -13 0
-24 47 -17 68 2 7 11 12 19 12 10 0 14 6 10 19 -6 24 10 52 27 45 7 -3 16 2
19 10 12 30 23 16 19 -23 -3 -32 -7 -38 -20 -34 -10 4 -20 11 -24 17 -4 6 -8
0 -8 -14 0 -14 9 -33 20 -43 15 -13 20 -29 20 -68 l0 -51 31 6 c17 3 39 6 48
6 14 0 14 2 1 10 -13 8 -12 10 3 10 15 0 17 12 19 103 l1 102 7 -90 c9 -118
13 -127 59 -123 35 3 36 4 48 58 6 30 12 78 12 105 l2 50 14 -33 c17 -40 35
-34 35 12 0 35 20 86 33 86 5 0 6 -12 3 -28 -15 -74 -18 -122 -8 -122 6 0 12
-10 14 -22 2 -13 7 14 12 60 8 88 26 113 26 36 0 -44 1 -46 25 -40 21 5 27 2
35 -19 11 -28 34 -25 26 3 -3 10 -1 24 4 32 8 12 10 11 10 -6 0 -12 3 -35 6
-50 4 -23 0 -36 -21 -58 -17 -18 -20 -26 -10 -22 9 3 38 6 63 7 26 0 41 3 34
6 -16 6 -16 43 1 43 7 0 20 -9 29 -19 16 -19 17 -19 90 1 40 11 85 22 100 25
31 6 31 -6 -3 168 -21 104 -61 268 -84 345 -8 25 -44 141 -80 259 -36 117 -65
215 -63 216 5 5 97 45 102 45 3 0 29 11 58 24 29 13 141 61 248 106 297 125
565 268 748 400 35 25 71 50 80 55 9 6 53 46 99 90 81 78 113 133 113 193 0
11 9 31 20 45 11 14 20 30 20 36 0 6 3 11 8 11 11 0 62 96 62 118 0 11 -7 23
-15 26 -11 4 -13 11 -7 23 4 10 7 32 6 50 -1 19 3 34 12 37 8 3 14 15 14 26 0
12 4 19 8 16 10 -6 32 82 32 129 0 23 8 42 25 59 14 14 25 20 26 13 0 -7 5 -2
11 11 6 12 15 22 20 22 4 0 8 7 8 15 0 8 11 17 24 21 20 5 29 19 48 80 12 41
26 74 30 74 5 0 8 6 8 13 0 8 8 29 17 48 26 51 31 609 9 889 -23 288 -25 313
-47 520 -11 102 -24 228 -29 280 -27 282 -46 429 -49 375 -3 -63 -11 -76 -45
-73 -34 3 -31 9 -80 -186 l-12 -49 -32 39 c-18 21 -32 42 -32 46 0 5 -5 8 -11
8 -15 0 -79 70 -79 87 0 7 -4 13 -9 13 -5 0 -12 8 -15 18 -3 9 -20 23 -38 31
-18 8 -62 43 -96 78 -62 62 -65 64 -105 58 -23 -3 -157 -16 -297 -30 -140 -14
-320 -32 -400 -40 -80 -8 -172 -17 -205 -20 -262 -26 -906 -89 -1110 -110
-137 -14 -253 -25 -257 -25 -5 0 -8 169 -8 375 l0 375 1790 0 c1044 0 1790 -4
1790 -9 0 -5 -7 -12 -16 -15 -12 -4 -13 -10 -6 -19 7 -8 4 -37 -10 -91 -11
-43 -16 -82 -11 -87 4 -4 40 0 78 10 65 16 71 20 81 52 11 31 12 32 15 10 6
-38 25 -36 53 6 26 37 26 37 26 10 0 -35 7 -34 43 6 15 17 26 24 23 15 -9 -30
16 -32 40 -5 28 32 34 33 34 7 0 -32 14 -24 46 27 27 44 29 45 32 21 2 -15 9
-32 17 -38 15 -13 39 6 82 65 l22 30 1 -33 c0 -41 16 -39 48 8 l22 33 0 -27
c0 -33 15 -33 36 -1 16 25 18 25 158 25 l141 -1 38 -34 39 -34 -11 -51 c-22
-104 -5 -217 32 -217 14 0 15 10 10 61 -8 81 -13 83 -14 5 -1 -64 -1 -64 -12
-24 -11 44 2 153 30 242 17 53 41 76 29 27 -4 -15 -9 -40 -12 -58 -3 -25 1
-21 21 23 14 29 28 52 30 49 3 -2 -7 -39 -20 -81 -29 -89 -44 -173 -28 -164 6
4 13 17 16 29 3 13 21 68 40 123 l34 100 42 3 c22 2 41 -1 41 -5 0 -5 -13 -24
-30 -43 -18 -22 -29 -47 -30 -66 l0 -31 38 36 c21 20 34 38 30 40 -5 2 -21 -7
-35 -20 l-26 -24 14 23 c21 34 105 71 174 76 58 5 52 0 -22 -18 -53 -13 -38
-23 30 -19 73 5 60 -11 -18 -20 -27 -3 -68 -12 -90 -19 -38 -12 -40 -15 -41
-58 -1 -27 0 -33 3 -15 8 53 18 45 19 -14 2 -69 22 -119 25 -61 l2 35 6 -35
c6 -32 8 -29 25 47 19 81 20 83 55 93 20 5 42 10 49 10 7 0 27 7 44 16 l32 17
45 -51 c53 -58 102 -86 133 -76 21 6 21 6 -2 24 -13 10 -25 24 -26 31 -1 8
-14 40 -28 72 l-26 57 95 0 c93 0 95 -1 95 -23 0 -13 -9 -33 -20 -45 -12 -12
-16 -22 -11 -22 17 0 42 32 48 61 4 22 11 29 29 29 18 0 24 -6 24 -20 0 -34
-28 -79 -60 -95 -45 -23 -60 -17 -17 7 48 28 48 42 0 16 -26 -13 -50 -18 -75
-15 -43 6 -49 1 -15 -13 22 -9 22 -9 -3 -10 -23 -1 -23 -2 -5 -10 83 -36 180
19 200 112 7 28 7 28 83 28 76 0 77 0 105 -35 22 -28 30 -33 41 -23 11 11 11
17 -1 35 l-15 23 337 0 c308 0 345 -2 424 -21 47 -11 106 -25 131 -29 25 -4
77 -18 115 -29 39 -12 81 -24 95 -27 14 -2 36 -8 50 -13 14 -5 69 -21 122 -37
57 -16 95 -31 91 -37 -3 -6 -1 -7 4 -4 6 4 36 -2 67 -12 42 -14 56 -15 56 -6
0 14 -342 131 -435 149 -23 5 -169 40 -230 55 -28 8 62 9 313 5 l352 -6 0
1781 0 1781 -3600 0 -3600 0 0 -6400z m6795 3679 c153 -68 200 -265 96 -404
-25 -34 -27 -41 -14 -50 23 -17 -3 -53 -49 -67 -30 -9 -45 -8 -80 5 -34 13
-55 15 -98 8 -30 -5 -63 -13 -73 -16 -53 -21 -137 34 -107 70 11 13 9 19 -8
38 -85 90 -82 268 6 360 77 82 216 105 327 56z m-652 5 c52 -18 116 -76 143
-132 28 -55 26 -174 -4 -229 -50 -95 -136 -143 -256 -143 -209 0 -331 220
-222 402 25 42 43 59 94 85 54 28 75 33 131 33 37 0 88 -7 114 -16z m-5834
-111 c15 -56 71 -300 71 -307 0 -3 -15 -6 -33 -6 -28 0 -34 4 -42 32 -9 29
-14 32 -50 31 -36 0 -40 -3 -47 -31 -8 -28 -13 -32 -42 -32 l-34 0 14 58 c7
31 26 110 41 175 l27 117 43 0 c40 0 43 -2 52 -37z m401 -55 l1 -93 30 38 c23
27 39 37 60 37 16 0 29 -3 29 -6 0 -4 -16 -28 -35 -53 -30 -41 -33 -50 -21
-67 7 -10 25 -40 40 -66 l27 -48 -35 0 c-30 0 -38 5 -57 40 -13 22 -26 40 -31
40 -4 0 -8 -18 -8 -40 0 -38 -2 -40 -30 -40 l-30 0 0 175 0 175 30 0 30 0 0
-92z m1740 -83 l0 -176 -42 1 c-24 1 -55 -1 -69 -5 -19 -5 -33 -1 -55 18 -28
24 -29 29 -29 106 1 69 4 85 22 102 22 22 54 28 91 15 21 -7 22 -5 22 53 l0
61 30 0 30 0 0 -175z m452 83 l3 -92 25 37 c20 30 31 37 58 37 30 0 42 -12 24
-24 -5 -3 -21 -23 -36 -44 l-27 -40 40 -66 41 -66 -35 0 c-30 0 -38 5 -57 40
-13 22 -26 40 -30 40 -5 0 -8 -18 -8 -40 0 -39 -1 -40 -35 -40 l-35 0 0 168
c0 93 3 172 7 175 3 4 19 7 34 7 l28 0 3 -92z m728 28 l0 -65 35 15 c28 11 40
12 58 3 34 -18 37 -27 37 -136 l0 -103 -30 0 -30 0 0 90 c0 75 -3 92 -16 97
-37 14 -49 -10 -52 -101 l-3 -86 -29 0 -30 0 0 175 0 175 30 0 30 0 0 -64z
m530 3 c0 -58 1 -60 23 -53 76 26 107 -8 107 -118 0 -71 -2 -81 -26 -105 -21
-21 -31 -24 -57 -18 -18 4 -49 6 -69 6 l-38 -2 0 176 0 175 30 0 30 0 0 -61z
m-1482 -11 c3 -35 6 -38 33 -38 24 0 29 -4 29 -25 0 -21 -5 -25 -30 -25 l-31
0 3 -67 c3 -66 4 -68 31 -71 21 -3 27 -8 23 -19 -3 -8 -6 -19 -6 -24 0 -16
-73 -10 -92 8 -14 13 -18 31 -18 90 0 66 -2 75 -20 80 -13 3 -20 14 -20 29 0
17 6 24 20 24 17 0 20 7 20 41 0 38 1 40 28 37 23 -3 27 -8 30 -40z m-2094
-58 c24 -24 34 -122 17 -173 -15 -44 -59 -66 -97 -48 -14 6 -27 11 -29 11 -3
0 -5 -29 -5 -65 l0 -65 -30 0 -30 0 0 181 0 182 39 -6 c21 -2 45 -1 52 4 19
12 60 2 83 -21z m402 20 c8 0 23 -9 34 -20 17 -17 20 -33 20 -121 l0 -101 -32
3 c-18 1 -48 -1 -66 -5 -50 -12 -82 13 -82 64 0 44 20 64 83 81 28 7 37 15 35
27 -5 25 -45 27 -58 3 -13 -25 -48 -28 -57 -5 -13 34 56 90 95 78 8 -2 20 -4
28 -4z m293 -1 c38 -14 51 -35 51 -88 l0 -41 -61 0 c-60 0 -60 0 -57 -27 3
-32 44 -46 54 -19 4 10 18 16 35 16 35 0 39 -25 10 -61 -27 -34 -99 -34 -135
0 -23 22 -26 32 -26 96 0 79 20 120 63 128 12 2 25 5 28 6 3 0 20 -4 38 -10z
m199 0 c29 -10 59 -59 45 -73 -15 -15 -51 -5 -56 15 -4 13 -12 20 -24 17 -31
-6 -27 -34 7 -48 78 -32 101 -82 61 -131 -15 -19 -29 -24 -66 -24 -37 0 -51 5
-66 24 -29 36 -25 61 11 61 24 0 30 -4 30 -21 0 -15 5 -20 22 -17 42 6 33 36
-16 58 -54 23 -75 57 -60 98 9 25 45 52 70 52 6 0 25 -5 42 -11z m219 -13 c6
-6 13 -22 15 -36 2 -21 -2 -26 -23 -28 -20 -2 -28 2 -32 18 -4 14 -12 21 -24
18 -29 -5 -21 -32 15 -50 73 -36 92 -81 53 -129 -15 -19 -29 -24 -66 -24 -37
0 -51 5 -66 24 -29 36 -25 61 10 61 21 0 30 -6 34 -21 7 -25 40 -22 45 4 3 12
-9 23 -42 37 -51 21 -70 54 -60 97 12 45 104 65 141 29z m182 13 c17 -6 36
-19 41 -29 6 -10 10 -62 10 -116 l0 -97 -40 6 c-22 3 -43 1 -46 -4 -8 -14 -47
-11 -72 7 -16 11 -22 25 -22 54 0 44 20 64 83 81 28 7 37 15 35 27 -5 25 -45
27 -58 3 -13 -25 -48 -28 -57 -5 -8 23 16 62 46 73 35 13 43 13 80 0z m319
-22 c16 -15 22 -32 22 -64 l0 -43 -61 0 c-60 0 -60 0 -57 -27 3 -32 44 -46 54
-19 8 20 64 22 64 2 0 -69 -102 -98 -158 -45 -19 17 -22 31 -22 98 0 68 3 80
23 98 12 11 29 23 37 26 25 9 73 -4 98 -26z m1000 -3 c19 -21 22 -36 22 -99 0
-70 -1 -74 -32 -100 -27 -23 -39 -26 -71 -22 -59 8 -80 35 -85 107 -3 36 1 72
9 91 24 60 111 73 157 23z m240 9 c8 -11 12 -53 12 -120 l0 -103 -30 0 -30 0
0 90 c0 75 -3 92 -17 97 -32 12 -53 -32 -53 -113 l0 -74 -30 0 -30 0 0 120 0
120 29 0 c16 0 31 -5 33 -12 3 -8 11 -7 29 5 27 20 67 15 87 -10z m530 -9 c15
-17 22 -38 22 -65 l0 -39 -61 0 c-60 0 -60 0 -57 -27 3 -32 44 -46 54 -19 4
10 18 16 35 16 35 0 40 -29 9 -60 -27 -27 -63 -34 -105 -20 -46 15 -55 34 -55
123 0 64 3 76 23 94 12 11 29 23 37 26 28 11 75 -3 98 -29z m542 10 c11 -11
15 -39 15 -117 l0 -102 -32 -3 -33 -3 0 91 c0 72 -3 92 -15 96 -33 13 -45 -15
-45 -102 l0 -84 -35 0 -35 0 0 120 0 120 35 0 c19 0 35 -4 35 -9 0 -6 12 -3
28 4 29 16 58 12 82 -11z m215 -5 c17 -16 21 -36 23 -120 l4 -100 -44 1 c-23
1 -54 -1 -68 -5 -34 -9 -80 27 -80 61 0 42 17 62 70 79 37 12 50 22 50 36 0
26 -36 25 -52 -1 -12 -19 -48 -27 -61 -14 -3 3 -1 19 5 36 20 56 108 72 153
27z m394 20 c36 -13 61 -53 61 -99 l0 -30 -59 0 c-63 0 -76 -8 -66 -40 8 -24
55 -28 55 -5 0 11 11 15 36 15 32 0 35 -2 29 -22 -4 -13 -18 -34 -33 -47 -21
-19 -33 -22 -65 -18 -60 8 -80 35 -85 109 -5 79 9 115 50 133 41 17 38 17 77
4z m204 -3 c15 -8 27 -11 27 -5 0 5 14 9 31 9 l30 0 -3 -154 c-3 -134 -5 -157
-22 -175 -42 -46 -144 -35 -166 19 -7 16 -9 34 -5 39 10 18 44 12 57 -9 27
-42 78 -15 78 41 0 18 -3 20 -12 11 -7 -7 -29 -12 -49 -12 -56 0 -79 34 -79
116 0 72 13 107 44 122 29 14 37 14 69 -2z m285 -22 c19 -22 22 -36 22 -120
l0 -95 -42 1 c-24 1 -54 -1 -68 -5 -36 -9 -80 27 -80 65 0 27 32 70 52 70 5 0
24 7 43 14 25 11 33 19 29 30 -9 22 -41 20 -56 -4 -18 -29 -58 -27 -58 3 0 73
105 101 158 41z m-3048 -94 l0 -120 -35 0 -35 0 0 113 c0 63 3 117 7 120 3 4
19 7 35 7 l28 0 0 -120z m2280 63 c19 -90 25 -92 45 -14 18 68 20 71 48 71 28
0 29 -2 23 -33 -3 -19 -25 -99 -49 -178 l-42 -144 -34 -3 c-28 -3 -33 -1 -27
14 28 74 28 99 -3 207 -18 59 -34 113 -37 122 -5 12 2 15 28 15 34 0 35 -1 48
-57z m-1080 -635 c-10 -24 -22 -41 -26 -40 -4 2 -17 -12 -29 -32 -29 -48 -65
-86 -82 -86 -16 0 -16 38 1 109 11 49 16 56 52 72 21 10 53 18 71 18 l32 1
-19 -42z m-2140 -978 c0 -5 6 -10 13 -10 8 0 20 -12 28 -27 8 -16 33 -48 56
-73 24 -25 43 -51 43 -57 0 -7 5 -13 10 -13 6 0 10 -9 10 -20 0 -16 -5 -19
-22 -15 -16 4 -31 -2 -48 -17 -24 -22 -119 -58 -153 -58 -10 0 -17 -4 -17 -10
0 -5 -15 -16 -34 -25 -19 -9 -42 -27 -50 -40 -9 -13 -28 -25 -43 -27 -26 -3
-28 -6 -28 -48 0 -41 2 -45 26 -48 22 -3 25 -7 21 -34 -3 -17 -15 -47 -28 -66
-13 -19 -24 -49 -24 -66 0 -62 33 -291 43 -298 6 -4 8 -35 4 -82 -3 -44 -2
-76 4 -76 5 0 9 -10 9 -23 0 -24 25 -37 98 -52 35 -7 182 -143 182 -168 0 -44
-163 -137 -238 -137 -39 0 -82 -22 -82 -43 -1 -14 -45 -67 -57 -67 -4 0 -30
-11 -57 -25 -27 -14 -64 -25 -82 -25 -22 0 -42 -10 -64 -30 -18 -16 -38 -30
-46 -30 -8 0 -13 -5 -12 -11 4 -18 -51 -29 -112 -23 -39 4 -67 15 -98 37 l-44
32 28 7 c18 4 2 6 -41 5 -89 -1 -174 12 -203 31 -27 18 -126 157 -137 192 -4
14 -22 52 -40 85 -36 66 -57 176 -36 189 6 4 11 31 11 61 0 30 4 56 9 59 5 3
22 -1 37 -9 16 -8 48 -17 71 -21 24 -3 49 -14 56 -23 6 -9 35 -27 62 -41 28
-13 61 -32 74 -42 13 -10 35 -18 48 -18 50 0 63 -16 63 -78 0 -32 -5 -63 -11
-69 -7 -7 -8 -24 -4 -43 6 -29 14 -113 15 -166 1 -28 24 -47 47 -40 10 3 49
35 87 71 57 53 75 65 105 67 58 2 84 -2 120 -19 27 -12 39 -13 53 -4 10 6 33
11 53 11 19 0 49 9 67 20 18 11 42 20 53 20 11 0 29 7 39 15 10 8 23 12 27 9
5 -3 9 -1 9 4 0 13 -45 24 -73 17 -12 -2 -42 -6 -67 -9 -25 -2 -58 -9 -74 -15
-38 -15 -75 -1 -106 41 -20 27 -21 37 -15 97 8 75 36 148 61 158 15 6 16 21 9
167 -6 133 -10 164 -25 184 -22 28 -53 93 -70 144 -6 21 -26 49 -43 63 -18 14
-38 30 -44 35 -33 27 -65 30 -151 14 -116 -21 -247 -62 -268 -85 -10 -11 -26
-19 -37 -19 -16 0 -17 -3 -8 -14 9 -11 9 -16 0 -22 -7 -4 -20 3 -31 17 -13 16
-21 20 -25 12 -2 -7 -9 -13 -13 -13 -15 0 49 91 94 135 23 22 58 53 79 69 36
28 40 29 110 21 122 -14 163 -12 186 9 12 11 29 16 40 13 11 -3 28 1 38 9 21
16 109 19 118 4 9 -15 62 -12 93 4 15 8 37 26 50 40 23 28 30 76 10 76 -11 0
71 80 83 80 4 0 7 12 7 26 0 14 4 35 10 47 6 12 13 34 16 50 6 26 8 27 76 27
58 0 68 3 64 15 -4 10 0 15 15 15 12 0 21 -4 21 -10z m-1027 -851 c13 -18 18
-19 35 -8 17 11 24 10 38 -2 13 -11 18 -11 21 -1 3 6 9 12 15 12 6 0 8 -6 5
-14 -6 -16 52 -36 106 -36 43 0 69 -33 45 -55 -48 -45 -238 -61 -306 -26 -62
32 -80 115 -29 139 34 16 55 14 70 -9z m471 -1014 c53 -43 95 -46 133 -9 25
25 27 25 93 14 50 -8 74 -18 91 -37 l24 -25 -21 -16 c-20 -17 -20 -18 -1 -37
16 -18 32 -20 128 -20 118 0 137 -10 79 -43 -16 -9 -30 -25 -30 -34 0 -9 -4
-20 -10 -23 -26 -16 6 -95 39 -95 6 0 11 -4 11 -9 0 -5 8 -12 18 -16 24 -8 62
-71 62 -103 0 -42 -49 -88 -111 -106 -224 -62 -399 -34 -461 74 -14 25 -30 40
-42 40 -23 0 -66 37 -66 57 0 15 -49 93 -59 93 -3 0 -20 13 -38 28 -24 22 -30
34 -26 55 8 41 67 35 83 -8 6 -16 20 -24 50 -29 44 -7 59 -28 61 -89 2 -42 17
54 23 142 4 63 3 66 -30 99 -40 40 -64 82 -64 112 0 29 15 25 64 -15z m2811
-1405 c7 -21 39 -27 50 -10 3 6 29 10 57 10 59 0 103 -27 123 -74 8 -17 43
-62 79 -99 75 -78 75 -86 -3 -129 -25 -15 -71 -49 -101 -76 l-55 -49 -3 -188
c-1 -110 -7 -195 -13 -207 -13 -24 1 -38 39 -38 23 0 62 -32 62 -51 0 -5 5 -7
12 -3 6 4 8 3 5 -3 -4 -6 -23 -14 -42 -17 -20 -4 -41 -16 -48 -26 -6 -11 -18
-20 -25 -20 -8 0 -12 -6 -9 -12 2 -8 22 -13 48 -14 70 -1 70 -1 51 -33 -9 -16
-21 -29 -27 -28 -5 1 -10 -5 -10 -13 0 -12 17 -16 75 -20 l75 -5 -3 -35 c-2
-19 -9 -42 -16 -50 -7 -8 -20 -32 -30 -52 l-17 -38 -78 0 c-70 0 -82 3 -118
29 -38 27 -80 76 -116 133 -10 15 -38 49 -63 74 -58 57 -135 211 -158 312 -24
106 -10 186 41 240 16 17 20 15 28 -10 7 -20 9 -17 14 17 5 31 11 41 28 43 17
3 21 -1 18 -17 -2 -11 5 -31 15 -44 19 -23 21 -24 72 -12 35 7 54 17 56 28 6
28 -44 65 -100 72 -59 8 -102 39 -88 64 10 20 -3 46 -19 37 -6 -4 -8 -20 -4
-36 5 -29 -9 -60 -28 -60 -5 0 -14 12 -20 27 -8 22 -7 30 5 39 11 7 16 27 16
56 0 35 5 49 27 69 14 13 23 18 18 10 -5 -10 -4 -12 4 -7 17 11 48 77 56 120
7 36 39 77 81 103 27 17 32 16 39 -7z m450 -350 c0 -13 -47 -50 -78 -64 -9 -3
-8 -8 3 -18 8 -7 15 -24 15 -38 0 -21 5 -26 33 -28 28 -3 32 -7 32 -32 0 -38
10 -42 66 -30 25 6 55 8 65 5 17 -6 17 -8 -2 -53 -42 -93 -44 -96 -76 -103
-37 -7 -65 16 -84 69 -6 17 -18 34 -27 37 -10 2 -36 22 -59 43 -34 31 -40 43
-36 65 3 15 0 34 -7 42 -15 18 -1 39 42 61 16 8 26 19 23 23 -7 12 15 28 45
34 34 6 45 3 45 -13z m-4239 -553 c6 2 17 -3 24 -12 7 -8 22 -15 34 -15 33 0
-2 -19 -39 -21 -25 -1 -23 -3 18 -14 57 -16 93 -43 77 -59 -6 -6 -49 -12 -96
-13 l-86 -3 5 73 c3 39 6 73 6 74 1 1 11 -1 24 -6 12 -4 27 -6 33 -4z m1904
-678 c-11 -8 -7 -9 17 -5 20 3 33 1 36 -7 3 -9 7 -9 19 0 8 7 18 10 21 6 4 -3
7 -1 7 5 0 18 21 14 36 -5 13 -17 15 -17 29 2 15 19 16 19 12 -2 -2 -13 -6
-26 -10 -29 -4 -4 -7 -13 -7 -21 0 -7 -12 -27 -27 -43 -20 -23 -35 -30 -64
-30 -79 0 -91 -29 -34 -79 28 -24 45 -31 78 -31 23 0 53 7 66 17 23 16 24 16
19 -8 -16 -70 -48 -135 -75 -151 -82 -51 -209 11 -248 121 -39 111 9 238 100
268 34 12 47 7 25 -8z m1715 -329 c49 -22 65 -44 65 -87 0 -33 36 -97 50 -88
11 7 3 54 -11 70 -5 5 -9 17 -9 26 0 21 59 27 195 19 93 -5 144 3 158 27 4 7
16 13 25 13 14 -1 13 -4 -7 -20 -13 -11 -29 -20 -36 -20 -6 0 -20 -9 -30 -20
-10 -11 -24 -20 -31 -20 -7 0 -19 -6 -26 -14 -23 -23 -126 -68 -169 -73 -21
-3 -39 -9 -39 -14 0 -5 -35 -33 -77 -63 -97 -68 -145 -111 -173 -156 -25 -39
-24 -37 21 75 29 70 46 148 51 235 1 14 -2 49 -6 78 -4 28 -5 52 -1 52 3 0 26
-9 50 -20z"/>
<path d="M6613 9773 c-20 -4 -23 -11 -23 -51 l0 -47 85 0 85 0 0 46 c0 40 -3
48 -22 53 -25 6 -90 6 -125 -1z"/>
<path d="M4030 8914 c-14 -3 -52 -11 -85 -18 -33 -8 -82 -20 -109 -26 -28 -6
-100 -31 -160 -54 -61 -24 -140 -54 -175 -67 -62 -23 -78 -41 -46 -47 9 -2
105 26 213 62 224 74 382 109 494 110 60 1 81 -3 94 -16 41 -41 -46 -154 -214
-281 -79 -59 -220 -139 -232 -132 -9 5 -50 266 -50 316 0 18 -39 8 -45 -12
-17 -54 33 -325 90 -481 17 -47 8 -55 -68 -68 -65 -10 -102 -32 -123 -71 -24
-47 -16 -49 41 -14 69 41 189 73 210 55 16 -13 35 -5 35 15 0 8 16 18 38 23
20 6 98 24 172 42 153 38 220 64 220 87 0 9 6 13 14 10 18 -7 46 23 46 50 0
24 -20 43 -80 74 -41 22 -57 24 -188 24 -78 0 -142 1 -142 3 0 1 39 28 87 59
47 31 121 91 164 132 63 61 79 84 85 116 7 36 5 41 -30 71 -20 17 -51 34 -68
38 -32 6 -145 6 -188 0z m283 -484 c15 -7 27 -19 27 -25 0 -14 -25 -37 -60
-55 -39 -20 -309 -100 -360 -107 l-45 -5 -23 69 c-34 106 -40 99 103 133 58
13 324 6 358 -10z"/>
<path d="M4651 8823 c0 -13 -6 -23 -12 -23 -8 0 -10 -25 -5 -88 7 -86 6 -89
-16 -104 -14 -9 -28 -34 -35 -61 -15 -56 -63 -113 -86 -104 -9 3 -22 27 -28
52 -12 47 -32 66 -50 48 -15 -15 15 -134 38 -150 37 -28 83 -1 139 81 32 48
33 49 43 25 6 -13 17 -64 25 -114 27 -162 27 -162 17 -140 -8 16 -10 9 -10
-32 -1 -28 -6 -55 -12 -59 -16 -9 -358 -39 -365 -31 -12 12 17 36 130 107 129
81 174 116 164 125 -3 4 -17 1 -30 -6 -47 -25 -304 -198 -317 -213 -25 -31 -6
-46 58 -46 57 0 297 24 354 36 22 5 27 2 27 -15 0 -11 5 -32 11 -48 10 -26 12
-27 23 -10 12 15 14 13 20 -20 9 -56 8 -61 -11 -66 -14 -4 -13 -5 4 -6 12 0
24 -10 28 -20 3 -11 18 -35 34 -55 30 -38 51 -34 51 10 0 12 8 32 18 44 l19
23 16 -24 c10 -13 17 -42 17 -66 0 -23 4 -45 10 -48 5 -3 24 10 41 29 25 29
34 34 49 26 10 -6 22 -19 25 -31 4 -12 12 -18 21 -15 21 8 84 -22 85 -42 4
-44 -2 -68 -27 -106 -27 -40 -27 -41 -3 -23 13 9 43 27 67 39 l43 23 34 -40
c48 -56 45 -74 -22 -136 l-58 -53 51 29 c69 39 89 31 80 -32 -4 -35 -17 -60
-48 -96 -41 -49 -41 -49 -10 -33 43 22 62 20 102 -12 19 -16 52 -38 72 -51 25
-15 48 -42 69 -82 18 -33 45 -71 61 -85 37 -30 91 -32 133 -4 42 28 69 25 106
-11 37 -36 63 -35 67 5 3 19 -4 37 -21 55 -36 38 -45 62 -40 99 5 29 0 39 -31
71 -30 30 -36 44 -34 71 3 31 0 36 -30 45 -17 6 -38 17 -45 24 -19 20 26 51
75 51 45 0 71 -11 110 -47 14 -14 31 -22 37 -19 12 8 15 115 3 131 -4 6 -19
18 -34 28 -16 10 -40 44 -58 84 -17 38 -37 79 -43 91 -6 13 -33 35 -60 48 -33
17 -56 39 -75 70 -23 38 -37 48 -94 70 -66 26 -141 30 -189 10 -10 -5 -28 3
-48 20 -30 25 -36 26 -96 19 -35 -3 -69 -4 -75 0 -19 12 9 42 45 49 24 5 39
15 49 34 39 76 80 77 155 7 52 -49 65 -53 92 -29 16 15 20 13 54 -20 41 -41
43 -42 73 -20 29 20 28 39 -8 99 -76 132 -80 141 -80 213 0 53 -4 72 -17 84
-28 24 -64 28 -126 16 -66 -14 -80 -5 -70 43 18 92 -171 93 -259 1 -20 -20
-45 -53 -55 -71 -15 -28 -29 -37 -65 -47 -57 -14 -93 -40 -109 -77 -10 -24 -9
-37 4 -75 29 -79 17 -212 -20 -240 -16 -12 -19 -10 -24 15 -12 53 -9 137 6
157 26 35 18 130 -20 239 -22 63 -40 142 -50 220 -19 141 -32 212 -34 180z"/>
<path d="M3186 6838 c-3 -29 -9 -70 -12 -90 -6 -33 -4 -38 13 -38 11 0 34 -5
52 -11 28 -10 31 -15 31 -54 0 -64 31 -85 121 -85 38 0 69 4 69 9 0 18 41 18
64 0 29 -23 36 -24 36 -4 0 19 5 19 36 -1 13 -9 26 -15 28 -13 1 2 20 30 40
61 52 79 126 143 126 108 0 -6 -11 -42 -24 -80 l-24 -69 34 34 c21 22 47 36
71 40 81 13 91 36 26 60 -26 10 -61 26 -78 35 -16 10 -52 21 -80 25 -27 4 -85
20 -127 36 -45 17 -109 31 -155 35 -43 3 -113 17 -156 30 -43 13 -79 24 -81
24 -2 0 -6 -24 -10 -52z"/>
<path d="M4425 6779 c-16 -22 -41 -49 -56 -60 -25 -17 -27 -23 -18 -52 7 -25
6 -34 -6 -43 -11 -8 -12 -18 -4 -46 9 -35 11 -36 67 -40 40 -3 62 0 75 10 21
18 22 33 2 26 -28 -11 -15 11 32 54 27 24 39 40 28 37 -78 -28 -99 -9 -93 87
2 37 3 68 2 68 -1 0 -14 -18 -29 -41z"/>
<path d="M6948 4425 c-19 -11 -31 -30 -42 -67 -20 -65 -22 -68 -71 -93 -56
-28 -135 -110 -135 -140 0 -28 62 -90 88 -90 11 0 21 14 27 40 15 54 41 112
60 131 8 9 15 25 15 37 0 19 13 26 93 51 114 36 121 41 105 83 -8 23 -21 34
-40 38 -15 4 -28 11 -28 16 0 14 -41 10 -72 -6z"/>
<path d="M1942 2905 c-32 -15 -52 -30 -49 -37 2 -7 11 -11 18 -8 8 2 43 4 79
4 68 0 130 -23 178 -68 26 -23 59 -89 68 -136 4 -17 23 -45 45 -65 32 -29 47
-35 84 -35 55 0 58 15 19 93 -67 133 -169 224 -294 263 -63 19 -87 17 -148
-11z"/>
<path d="M2074 2386 c-3 -7 15 -64 40 -127 24 -63 46 -123 48 -134 3 -13 10
-19 23 -17 35 6 42 23 18 39 -28 19 -29 33 -3 56 27 23 25 43 -7 64 -37 23
-83 73 -83 90 0 11 7 10 36 -2 63 -26 100 -65 120 -127 19 -58 31 -68 82 -68
30 0 24 23 -8 30 -17 4 -26 15 -31 38 -12 57 -85 141 -124 142 -11 0 -33 7
-49 15 -35 19 -55 19 -62 1z"/>
</g>
</svg>
