<?xml version="1.0" standalone="no"?>
<!DOCTYPE svg PUBLIC "-//W3C//DTD SVG 20010904//EN"
 "http://www.w3.org/TR/2001/REC-SVG-20010904/DTD/svg10.dtd">
<svg version="1.0" xmlns="http://www.w3.org/2000/svg"
 width="720.000000pt" height="1280.000000pt" viewBox="0 0 720.000000 1280.000000"
 preserveAspectRatio="xMidYMid meet">
<metadata>
Created by potrace 1.16, written by Peter Selinger 2001-2019
</metadata>
<g transform="translate(0.000000,1280.000000) scale(0.100000,-0.100000)"
fill="#000000" stroke="none">
<path d="M0 6400 l0 -6400 3600 0 3600 0 0 1030 0 1030 -237 -6 c-267 -7 -638
6 -483 17 78 5 80 5 24 7 -70 2 -64 -6 -83 122 -12 83 -41 172 -60 190 -25 23
-49 114 -57 217 -6 88 -8 93 -34 105 -41 18 -49 37 -52 137 -2 50 -6 91 -10
91 -5 0 -8 9 -8 21 0 15 5 19 15 15 10 -3 15 1 15 13 0 10 -7 24 -15 31 -8 7
-15 21 -15 32 0 15 -3 17 -19 9 -15 -8 -20 -7 -25 5 -3 9 -4 20 0 25 3 5 0 9
-5 9 -16 0 -13 14 7 36 12 13 16 27 12 44 -4 17 -8 21 -14 12 -12 -19 -44 -14
-51 8 -4 11 -5 35 -4 53 1 17 -3 43 -9 57 -19 46 -25 65 -23 75 8 29 6 40 -8
55 -9 9 -19 15 -23 13 -8 -4 -13 15 -22 82 -13 88 -19 111 -37 128 -10 10 -22
30 -25 45 -4 15 -16 46 -27 69 -10 24 -16 50 -13 59 8 20 -13 91 -31 106 -10
8 -17 8 -25 0 -7 -7 -20 -12 -30 -12 -10 0 -37 -12 -59 -26 -23 -14 -47 -23
-55 -20 -8 3 -22 -3 -31 -14 -10 -11 -23 -20 -31 -20 -7 0 -11 -4 -8 -9 3 -5
-2 -8 -12 -7 -14 1 -18 -9 -20 -57 -2 -31 -7 -57 -12 -57 -6 0 -10 -7 -10 -15
0 -8 -11 -17 -25 -21 -27 -7 -33 -20 -12 -27 9 -3 7 -9 -5 -24 -29 -32 -21
-93 15 -108 21 -10 22 -16 22 -127 0 -65 3 -118 8 -118 5 0 7 -12 4 -26 -7
-36 10 -164 24 -180 6 -8 15 -11 20 -8 5 3 9 1 9 -4 0 -12 46 -32 73 -32 33 0
47 -18 40 -52 -5 -23 -3 -27 11 -22 12 5 16 0 16 -20 0 -15 7 -29 15 -32 10
-4 15 -21 15 -54 0 -68 7 -80 44 -80 17 0 27 -4 21 -8 -9 -6 -12 -43 -7 -79 1
-6 18 -17 38 -23 32 -11 35 -15 29 -38 -4 -15 -11 -30 -16 -33 -14 -8 -9 -159
5 -170 56 -47 63 -58 74 -106 9 -42 9 -58 -2 -80 -8 -15 -19 -50 -25 -77 -10
-42 -9 -51 5 -67 9 -10 26 -20 38 -21 56 -10 -264 -19 -564 -16 l-335 3 -1 23
c-1 13 -6 40 -12 60 -19 68 -34 126 -38 152 -3 14 -9 36 -14 50 -5 14 -12 38
-14 53 -3 16 -10 43 -15 60 -6 18 -24 82 -40 142 -17 61 -39 137 -49 170 -21
64 -56 186 -79 273 -13 48 -13 58 3 105 10 29 26 63 36 76 22 29 23 48 3 67
-8 9 -15 23 -15 33 0 10 -11 24 -25 31 -15 8 -25 22 -25 36 0 12 -12 49 -27
82 l-27 60 -41 -5 c-40 -5 -437 -153 -993 -370 l-144 -56 6 -31 c18 -88 18
-108 1 -154 -10 -26 -29 -60 -44 -77 -37 -42 -51 -70 -51 -102 -1 -16 -9 -46
-19 -68 l-19 -39 -18 39 c-9 22 -23 54 -30 70 -7 17 -16 42 -19 58 -3 15 -9
27 -14 27 -13 0 -22 -29 -28 -98 -4 -40 -9 -58 -14 -50 -6 8 -9 -4 -9 -32 -2
-64 -15 -141 -27 -149 -6 -3 -13 -54 -16 -114 -4 -100 -3 -108 15 -118 41 -22
66 -51 61 -70 -6 -22 -23 -26 -23 -4 0 8 -4 15 -10 15 -15 0 -12 -38 2 -43 7
-2 -21 -7 -63 -11 -115 -11 -149 15 -149 116 0 35 -3 40 -35 54 -31 12 -35 19
-35 49 0 19 -5 35 -10 35 -6 0 -31 23 -57 50 -26 28 -52 50 -59 50 -6 0 -18 7
-25 17 -11 13 -11 17 -1 20 8 3 12 29 12 79 0 44 -4 73 -9 69 -5 -3 -12 4 -16
15 -3 11 -13 20 -21 20 -10 0 -14 12 -14 41 0 33 -3 40 -17 37 -23 -4 -20 -56
8 -115 24 -55 24 -94 -1 -126 -28 -35 -50 -40 -93 -22 -48 20 -75 19 -117 -4
-19 -10 -50 -22 -68 -26 -24 -5 -36 -15 -46 -38 -17 -42 -4 -64 52 -88 41 -18
46 -18 78 -3 42 20 64 13 64 -20 0 -20 4 -24 18 -19 24 9 68 58 84 93 14 33
16 34 37 21 10 -7 17 -39 21 -103 8 -105 34 -165 102 -228 l37 -35 -50 -11
c-28 -6 -92 -12 -143 -13 -87 -2 -96 0 -124 24 -37 31 -50 32 -58 1 -5 -23
-11 -25 -100 -31 -51 -4 -108 -4 -126 -1 -18 3 -37 6 -43 6 -5 0 -540 -3
-1187 -6 l-1178 -6 0 2375 c0 1306 3 2377 7 2379 5 2 36 57 69 123 99 194 126
348 105 590 -18 203 -68 457 -112 573 -5 13 -9 34 -9 47 0 14 -4 25 -9 25 -5
0 -11 18 -15 40 -3 23 -11 38 -16 35 -18 -11 -21 86 -18 545 l3 465 3588 3
3587 2 0 1775 0 1775 -3600 0 -3600 0 0 -6400z m6795 3679 c153 -68 200 -265
96 -404 -25 -34 -27 -41 -14 -50 23 -17 -3 -53 -49 -67 -30 -9 -45 -8 -80 5
-34 13 -55 15 -98 8 -30 -5 -63 -13 -73 -16 -53 -21 -137 34 -107 70 11 13 9
19 -8 38 -85 90 -82 268 6 360 77 82 216 105 327 56z m-652 5 c52 -18 116 -76
143 -132 28 -55 26 -174 -4 -229 -50 -95 -136 -143 -256 -143 -209 0 -331 220
-222 402 25 42 43 59 94 85 54 28 75 33 131 33 37 0 88 -7 114 -16z m-5834
-111 c15 -56 71 -300 71 -307 0 -3 -15 -6 -33 -6 -28 0 -34 4 -42 32 -9 29
-14 32 -50 31 -36 0 -40 -3 -47 -31 -8 -28 -13 -32 -42 -32 l-34 0 14 58 c7
31 26 110 41 175 l27 117 43 0 c40 0 43 -2 52 -37z m401 -55 l1 -93 30 38 c23
27 39 37 60 37 16 0 29 -3 29 -6 0 -4 -16 -28 -35 -53 -30 -41 -33 -50 -21
-67 7 -10 25 -40 40 -66 l27 -48 -35 0 c-30 0 -38 5 -57 40 -13 22 -26 40 -31
40 -4 0 -8 -18 -8 -40 0 -38 -2 -40 -30 -40 l-30 0 0 175 0 175 30 0 30 0 0
-92z m1740 -83 l0 -176 -42 1 c-24 1 -55 -1 -69 -5 -19 -5 -33 -1 -55 18 -28
24 -29 29 -29 106 1 69 4 85 22 102 22 22 54 28 91 15 21 -7 22 -5 22 53 l0
61 30 0 30 0 0 -175z m452 83 l3 -92 25 37 c20 30 31 37 58 37 30 0 42 -12 24
-24 -5 -3 -21 -23 -36 -44 l-27 -40 40 -66 41 -66 -35 0 c-30 0 -38 5 -57 40
-13 22 -26 40 -30 40 -5 0 -8 -18 -8 -40 0 -39 -1 -40 -35 -40 l-35 0 0 168
c0 93 3 172 7 175 3 4 19 7 34 7 l28 0 3 -92z m728 28 l0 -65 35 15 c28 11 40
12 58 3 34 -18 37 -27 37 -136 l0 -103 -30 0 -30 0 0 90 c0 75 -3 92 -16 97
-37 14 -49 -10 -52 -101 l-3 -86 -29 0 -30 0 0 175 0 175 30 0 30 0 0 -64z
m530 3 c0 -58 1 -60 23 -53 76 26 107 -8 107 -118 0 -71 -2 -81 -26 -105 -21
-21 -31 -24 -57 -18 -18 4 -49 6 -69 6 l-38 -2 0 176 0 175 30 0 30 0 0 -61z
m-1482 -11 c3 -35 6 -38 33 -38 24 0 29 -4 29 -25 0 -21 -5 -25 -30 -25 l-31
0 3 -67 c3 -66 4 -68 31 -71 21 -3 27 -8 23 -19 -3 -8 -6 -19 -6 -24 0 -16
-73 -10 -92 8 -14 13 -18 31 -18 90 0 66 -2 75 -20 80 -13 3 -20 14 -20 29 0
17 6 24 20 24 17 0 20 7 20 41 0 38 1 40 28 37 23 -3 27 -8 30 -40z m-2094
-58 c24 -24 34 -122 17 -173 -15 -44 -59 -66 -97 -48 -14 6 -27 11 -29 11 -3
0 -5 -29 -5 -65 l0 -65 -30 0 -30 0 0 181 0 182 39 -6 c21 -2 45 -1 52 4 19
12 60 2 83 -21z m402 20 c8 0 23 -9 34 -20 17 -17 20 -33 20 -121 l0 -101 -32
3 c-18 1 -48 -1 -66 -5 -50 -12 -82 13 -82 64 0 44 20 64 83 81 28 7 37 15 35
27 -5 25 -45 27 -58 3 -13 -25 -48 -28 -57 -5 -13 34 56 90 95 78 8 -2 20 -4
28 -4z m293 -1 c38 -14 51 -35 51 -88 l0 -41 -61 0 c-60 0 -60 0 -57 -27 3
-32 44 -46 54 -19 4 10 18 16 35 16 35 0 39 -25 10 -61 -27 -34 -99 -34 -135
0 -23 22 -26 32 -26 96 0 79 20 120 63 128 12 2 25 5 28 6 3 0 20 -4 38 -10z
m199 0 c29 -10 59 -59 45 -73 -15 -15 -51 -5 -56 15 -4 13 -12 20 -24 17 -31
-6 -27 -34 7 -48 78 -32 101 -82 61 -131 -15 -19 -29 -24 -66 -24 -37 0 -51 5
-66 24 -29 36 -25 61 11 61 24 0 30 -4 30 -21 0 -15 5 -20 22 -17 42 6 33 36
-16 58 -54 23 -75 57 -60 98 9 25 45 52 70 52 6 0 25 -5 42 -11z m219 -13 c6
-6 13 -22 15 -36 2 -21 -2 -26 -23 -28 -20 -2 -28 2 -32 18 -4 14 -12 21 -24
18 -29 -5 -21 -32 15 -50 73 -36 92 -81 53 -129 -15 -19 -29 -24 -66 -24 -37
0 -51 5 -66 24 -29 36 -25 61 10 61 21 0 30 -6 34 -21 7 -25 40 -22 45 4 3 12
-9 23 -42 37 -51 21 -70 54 -60 97 12 45 104 65 141 29z m182 13 c17 -6 36
-19 41 -29 6 -10 10 -62 10 -116 l0 -97 -40 6 c-22 3 -43 1 -46 -4 -8 -14 -47
-11 -72 7 -16 11 -22 25 -22 54 0 44 20 64 83 81 28 7 37 15 35 27 -5 25 -45
27 -58 3 -13 -25 -48 -28 -57 -5 -8 23 16 62 46 73 35 13 43 13 80 0z m319
-22 c16 -15 22 -32 22 -64 l0 -43 -61 0 c-60 0 -60 0 -57 -27 3 -32 44 -46 54
-19 8 20 64 22 64 2 0 -69 -102 -98 -158 -45 -19 17 -22 31 -22 98 0 68 3 80
23 98 12 11 29 23 37 26 25 9 73 -4 98 -26z m1000 -3 c19 -21 22 -36 22 -99 0
-70 -1 -74 -32 -100 -27 -23 -39 -26 -71 -22 -59 8 -80 35 -85 107 -3 36 1 72
9 91 24 60 111 73 157 23z m240 9 c8 -11 12 -53 12 -120 l0 -103 -30 0 -30 0
0 90 c0 75 -3 92 -17 97 -32 12 -53 -32 -53 -113 l0 -74 -30 0 -30 0 0 120 0
120 29 0 c16 0 31 -5 33 -12 3 -8 11 -7 29 5 27 20 67 15 87 -10z m530 -9 c15
-17 22 -38 22 -65 l0 -39 -61 0 c-60 0 -60 0 -57 -27 3 -32 44 -46 54 -19 4
10 18 16 35 16 35 0 40 -29 9 -60 -27 -27 -63 -34 -105 -20 -46 15 -55 34 -55
123 0 64 3 76 23 94 12 11 29 23 37 26 28 11 75 -3 98 -29z m542 10 c11 -11
15 -39 15 -117 l0 -102 -32 -3 -33 -3 0 91 c0 72 -3 92 -15 96 -33 13 -45 -15
-45 -102 l0 -84 -35 0 -35 0 0 120 0 120 35 0 c19 0 35 -4 35 -9 0 -6 12 -3
28 4 29 16 58 12 82 -11z m215 -5 c17 -16 21 -36 23 -120 l4 -100 -44 1 c-23
1 -54 -1 -68 -5 -34 -9 -80 27 -80 61 0 42 17 62 70 79 37 12 50 22 50 36 0
26 -36 25 -52 -1 -12 -19 -48 -27 -61 -14 -3 3 -1 19 5 36 20 56 108 72 153
27z m394 20 c36 -13 61 -53 61 -99 l0 -30 -59 0 c-63 0 -76 -8 -66 -40 8 -24
55 -28 55 -5 0 11 11 15 36 15 32 0 35 -2 29 -22 -4 -13 -18 -34 -33 -47 -21
-19 -33 -22 -65 -18 -60 8 -80 35 -85 109 -5 79 9 115 50 133 41 17 38 17 77
4z m204 -3 c15 -8 27 -11 27 -5 0 5 14 9 31 9 l30 0 -3 -154 c-3 -134 -5 -157
-22 -175 -42 -46 -144 -35 -166 19 -7 16 -9 34 -5 39 10 18 44 12 57 -9 27
-42 78 -15 78 41 0 18 -3 20 -12 11 -7 -7 -29 -12 -49 -12 -56 0 -79 34 -79
116 0 72 13 107 44 122 29 14 37 14 69 -2z m285 -22 c19 -22 22 -36 22 -120
l0 -95 -42 1 c-24 1 -54 -1 -68 -5 -36 -9 -80 27 -80 65 0 27 32 70 52 70 5 0
24 7 43 14 25 11 33 19 29 30 -9 22 -41 20 -56 -4 -18 -29 -58 -27 -58 3 0 73
105 101 158 41z m-3048 -94 l0 -120 -35 0 -35 0 0 113 c0 63 3 117 7 120 3 4
19 7 35 7 l28 0 0 -120z m2280 63 c19 -90 25 -92 45 -14 18 68 20 71 48 71 28
0 29 -2 23 -33 -3 -19 -25 -99 -49 -178 l-42 -144 -34 -3 c-28 -3 -33 -1 -27
14 28 74 28 99 -3 207 -18 59 -34 113 -37 122 -5 12 2 15 28 15 34 0 35 -1 48
-57z m-915 -6909 c106 -7 112 -9 119 -49 4 -19 11 -35 15 -35 5 0 11 -10 15
-23 3 -12 35 -51 71 -86 36 -35 65 -70 65 -78 0 -19 -50 -66 -129 -122 -34
-24 -66 -52 -71 -61 -5 -10 -11 -108 -12 -218 l-3 -200 -29 -6 c-16 -3 -106
-6 -201 -6 -126 0 -175 3 -182 13 -28 34 -45 121 -41 201 5 90 22 130 69 162
36 24 43 41 23 61 -14 14 -16 14 -28 -2 -11 -15 -13 -15 -25 -1 -7 9 -13 26
-12 38 3 99 29 167 82 218 16 15 29 37 29 50 0 69 95 166 150 153 14 -3 57 -7
95 -9z m359 -360 c25 -9 19 -31 -14 -56 -24 -18 -30 -29 -30 -60 0 -35 4 -41
34 -53 19 -8 36 -24 39 -36 6 -21 10 -22 67 -16 45 5 62 3 66 -6 2 -7 -6 -47
-19 -88 l-23 -74 -45 -3 c-40 -3 -49 1 -77 29 -18 18 -32 38 -32 43 -1 6 -21
26 -45 44 -38 27 -45 30 -45 15 0 -39 -31 43 -40 106 -5 36 -8 66 -7 67 1 1
29 23 61 48 58 45 78 52 110 40z"/>
<path d="M6613 9773 c-20 -4 -23 -11 -23 -51 l0 -47 85 0 85 0 0 46 c0 40 -3
48 -22 53 -25 6 -90 6 -125 -1z"/>
<path d="M5023 6619 c-51 -25 -89 -62 -113 -110 -24 -46 -36 -55 -88 -64 -32
-5 -49 -15 -67 -39 -26 -35 -32 -75 -14 -93 17 -17 23 -123 10 -184 -7 -33
-22 -66 -37 -82 -24 -26 -24 -28 -7 -52 31 -42 59 -32 53 19 -1 16 3 18 32 12
42 -8 78 -48 79 -89 0 -18 3 -25 6 -17 17 43 76 45 120 4 14 -13 32 -24 40
-24 25 0 73 -40 73 -60 0 -10 5 -22 10 -25 8 -5 7 -12 -2 -23 -11 -15 -11 -15
3 -4 23 17 62 1 105 -43 36 -38 37 -39 34 -99 -1 -22 4 -42 11 -46 15 -10 13
-108 -3 -128 -9 -10 -8 -16 3 -23 8 -5 10 -9 5 -9 -11 0 48 -43 96 -69 20 -11
45 -33 57 -48 11 -15 27 -35 34 -43 7 -8 19 -28 25 -45 7 -16 28 -41 47 -54
40 -27 80 -24 122 9 37 29 90 26 125 -7 41 -39 43 -23 3 22 -33 38 -36 46 -40
133 0 13 -14 32 -33 45 -26 18 -32 29 -32 62 0 37 -3 41 -40 57 -34 14 -40 21
-40 46 0 40 14 49 87 57 57 7 64 5 98 -21 30 -23 38 -25 46 -13 19 29 6 73
-28 94 -23 14 -45 46 -78 112 -40 83 -49 94 -94 118 -32 18 -61 45 -83 77 -30
44 -40 51 -101 70 -67 20 -77 20 -175 2 -26 -5 -38 -2 -57 16 -22 21 -31 22
-94 16 -81 -7 -101 -2 -101 28 1 23 22 56 37 56 24 0 64 28 74 53 15 36 37 47
91 47 37 0 50 -7 93 -45 32 -29 53 -41 59 -35 18 18 56 11 92 -16 74 -57 78 1
7 108 -49 72 -62 115 -63 196 0 48 -2 53 -27 63 -20 8 -42 7 -78 -1 -78 -19
-98 -12 -108 35 -14 65 -19 70 -78 73 -39 2 -66 -3 -96 -19z"/>
<path d="M2887 4860 c-79 -10 -219 -50 -198 -58 9 -3 1 -10 -20 -20 -27 -12
-30 -16 -15 -19 10 -3 38 0 61 6 59 15 96 14 138 -4 20 -8 56 -15 79 -15 24 0
61 -5 83 -11 22 -6 65 -16 95 -22 47 -11 57 -17 72 -46 l16 -33 5 28 c3 20 5
13 6 -18 2 -65 27 -88 98 -88 40 0 53 4 53 15 0 12 16 15 80 15 54 0 80 -4 80
-12 0 -6 22 21 50 60 27 39 54 73 60 77 17 11 11 25 -12 25 -23 0 -56 10 -148
42 -30 11 -102 23 -160 28 -58 5 -131 18 -162 29 -70 24 -170 32 -261 21z"/>
<path d="M2536 2276 c4 -26 -1 -49 -21 -92 -22 -45 -24 -58 -13 -65 21 -14 47
-10 67 10 10 10 27 24 37 29 16 9 17 14 6 31 -7 13 -8 21 -2 21 17 0 11 40 -9
69 -11 15 -30 27 -46 29 -24 2 -26 0 -19 -32z"/>
</g>
</svg>
