<?xml version="1.0" standalone="no"?>
<!DOCTYPE svg PUBLIC "-//W3C//DTD SVG 20010904//EN"
 "http://www.w3.org/TR/2001/REC-SVG-20010904/DTD/svg10.dtd">
<svg version="1.0" xmlns="http://www.w3.org/2000/svg"
 width="720.000000pt" height="1280.000000pt" viewBox="0 0 720.000000 1280.000000"
 preserveAspectRatio="xMidYMid meet">
<metadata>
Created by potrace 1.16, written by Peter Selinger 2001-2019
</metadata>
<g transform="translate(0.000000,1280.000000) scale(0.100000,-0.100000)"
fill="#000000" stroke="none">
<path d="M0 6400 l0 -6400 3600 0 3600 0 0 1025 0 1025 -3590 0 -3590 0 0
3600 0 3600 3590 0 3590 0 0 1775 0 1775 -3600 0 -3600 0 0 -6400z m6797 3678
c152 -71 198 -271 93 -403 -27 -34 -28 -39 -14 -50 15 -11 15 -14 0 -37 -27
-41 -84 -49 -143 -21 -31 14 -42 15 -87 3 -28 -7 -73 -13 -100 -14 -42 -1 -51
3 -72 29 -22 28 -23 31 -7 42 15 12 15 15 -5 35 -55 60 -78 178 -50 269 23 77
103 146 195 168 51 13 139 3 190 -21z m-655 6 c52 -17 118 -78 145 -133 26
-54 23 -174 -4 -226 -50 -93 -120 -136 -233 -143 -63 -4 -85 -1 -128 18 -148
64 -203 241 -118 382 25 42 43 59 94 85 54 28 75 33 131 33 37 0 88 -7 113
-16z m-5801 -239 c21 -88 38 -166 38 -172 1 -8 -12 -13 -32 -13 -28 0 -34 4
-42 32 -9 29 -14 32 -50 31 -36 0 -40 -3 -47 -31 -8 -28 -13 -32 -42 -32 l-34
0 14 58 c7 31 26 110 41 175 l27 118 44 -3 45 -3 38 -160z m369 73 l1 -93 30
38 c23 27 39 37 60 37 16 0 29 -3 29 -6 0 -4 -16 -27 -35 -53 l-34 -47 21 -35
c11 -19 29 -49 40 -66 l20 -33 -36 0 c-30 0 -38 5 -57 40 -26 45 -39 43 -39
-6 0 -31 -2 -34 -30 -34 l-30 0 0 175 0 175 30 0 30 0 0 -92z m1740 -83 l0
-176 -42 1 c-24 1 -54 -1 -68 -5 -43 -11 -77 25 -85 88 -7 58 7 128 30 147 17
14 51 17 83 6 21 -7 22 -5 22 53 l0 61 30 0 30 0 0 -175z m452 83 l3 -92 25
37 c20 30 31 37 58 37 30 0 42 -12 24 -24 -5 -3 -21 -23 -36 -45 l-28 -39 34
-54 c19 -29 38 -59 42 -65 5 -10 -3 -13 -29 -13 -30 0 -39 5 -56 35 -27 45
-39 44 -39 -1 0 -34 -1 -35 -32 -32 l-33 3 -3 173 -2 172 34 0 35 0 3 -92z
m728 28 l0 -64 29 14 c31 15 77 6 93 -19 4 -7 8 -58 8 -114 l0 -103 -30 0 -30
0 0 90 c0 75 -3 92 -16 97 -37 14 -49 -10 -52 -101 l-3 -86 -29 0 -30 0 0 175
0 175 30 0 30 0 0 -64z m530 3 c0 -55 2 -60 18 -53 31 13 76 5 95 -17 13 -16
17 -40 17 -101 0 -71 -2 -81 -26 -105 -21 -21 -31 -24 -57 -18 -18 4 -49 6
-69 6 l-38 -2 0 176 0 175 30 0 30 0 0 -61z m-1480 -9 c0 -38 2 -40 30 -40 25
0 30 -4 30 -25 0 -21 -5 -25 -30 -25 l-31 0 3 -67 c3 -66 4 -68 31 -71 28 -3
31 -9 21 -36 -4 -11 -19 -16 -45 -16 -54 0 -69 25 -69 117 0 66 -2 73 -20 73
-15 0 -20 7 -20 25 0 18 5 25 20 25 17 0 20 7 20 40 0 38 2 40 30 40 28 0 30
-2 30 -40z m-2096 -61 c24 -23 34 -121 17 -172 -15 -44 -59 -66 -97 -48 -14 6
-27 11 -29 11 -3 0 -5 -30 -5 -66 l0 -65 -27 3 -28 3 -3 179 -2 179 38 -6 c22
-2 46 -1 53 4 19 11 60 1 83 -22z m405 20 c17 -6 36 -19 41 -29 6 -10 10 -62
10 -115 l0 -97 -32 3 c-18 1 -48 -1 -66 -5 -50 -12 -82 13 -82 64 0 44 20 64
83 81 28 7 37 15 35 27 -5 26 -48 28 -55 3 -6 -25 -51 -29 -60 -5 -8 21 28 67
58 75 35 10 33 10 68 -2z m290 0 c38 -14 51 -35 51 -88 l0 -41 -61 0 c-60 0
-60 0 -57 -27 3 -32 44 -46 54 -19 9 23 64 21 64 -2 0 -51 -67 -84 -124 -62
-45 17 -55 38 -56 116 0 78 20 119 63 127 12 2 25 5 28 6 3 0 20 -4 38 -10z
m198 0 c32 -12 43 -26 43 -56 0 -31 -45 -33 -53 -3 -7 26 -47 27 -47 1 0 -11
12 -23 30 -31 78 -32 101 -82 61 -131 -15 -19 -29 -24 -66 -24 -37 0 -51 5
-66 24 -28 34 -25 61 7 61 18 0 28 -6 31 -21 7 -25 46 -22 51 4 3 12 -9 23
-42 37 -76 32 -89 107 -23 135 39 17 39 17 74 4z m197 -3 c31 -13 53 -55 38
-71 -14 -14 -50 -3 -55 16 -4 13 -12 20 -24 17 -29 -5 -21 -32 15 -50 73 -36
92 -81 53 -129 -15 -19 -29 -24 -66 -24 -37 0 -51 5 -66 24 -29 36 -25 61 10
61 20 0 30 -6 34 -20 7 -28 47 -27 47 0 0 15 -13 26 -45 40 -73 31 -85 108
-21 136 39 17 40 17 80 0z m205 3 c17 -6 36 -19 41 -29 6 -10 10 -62 10 -115
l0 -97 -32 3 c-18 1 -48 -1 -66 -5 -50 -12 -82 13 -82 64 0 44 20 64 83 81 28
7 37 15 35 27 -5 25 -45 27 -58 3 -13 -24 -60 -29 -60 -6 0 32 25 66 54 74 42
12 39 12 75 0z m319 -22 c16 -15 22 -32 22 -64 l0 -43 -61 0 c-60 0 -60 0 -57
-27 3 -32 44 -46 54 -19 8 20 64 22 64 2 0 -69 -102 -98 -158 -45 -19 17 -22
31 -22 98 0 68 3 80 23 98 12 11 29 23 37 26 25 9 73 -4 98 -26z m1000 -3 c18
-21 22 -37 22 -89 0 -77 -13 -110 -50 -125 -35 -15 -93 -4 -116 21 -23 26 -31
128 -13 170 24 60 111 73 157 23z m232 16 c17 -17 20 -33 20 -125 l0 -105 -30
0 -30 0 0 90 c0 75 -3 92 -17 97 -32 12 -53 -32 -53 -113 l0 -74 -30 0 -30 0
0 120 0 120 29 0 c16 0 31 -5 33 -11 2 -6 14 -5 33 5 39 21 51 20 75 -4z m538
-13 c16 -15 22 -32 22 -64 l0 -43 -61 0 c-60 0 -60 0 -57 -27 3 -32 44 -46 54
-19 4 10 18 16 35 16 35 0 40 -29 9 -60 -27 -27 -63 -34 -105 -20 -46 15 -55
34 -55 123 0 64 3 76 23 94 12 11 29 23 37 26 25 8 74 -5 98 -26z m530 16 c18
-16 21 -32 24 -123 l3 -105 -32 -3 -33 -3 0 91 c0 72 -3 92 -15 96 -33 13 -45
-15 -45 -102 l0 -84 -35 0 -35 0 0 120 0 120 35 0 c19 0 35 -5 35 -11 0 -5 10
-3 22 5 29 21 51 20 76 -1z m227 -14 c17 -16 21 -35 23 -120 l4 -100 -44 1
c-23 1 -54 -1 -68 -5 -34 -9 -80 27 -80 61 0 42 17 62 70 79 37 12 50 22 50
36 0 26 -36 25 -52 -1 -13 -20 -52 -27 -62 -12 -10 17 29 76 54 83 36 10 82 0
105 -22z m394 20 c36 -13 61 -53 61 -99 l0 -30 -59 0 c-65 0 -73 -5 -64 -38 6
-26 48 -31 57 -7 3 9 18 15 36 15 28 0 31 -3 25 -22 -4 -13 -18 -34 -33 -47
-21 -19 -33 -22 -66 -18 -61 8 -86 43 -86 117 0 73 16 109 55 126 37 16 35 16
74 3z m204 -3 c15 -8 27 -11 27 -5 0 5 14 9 31 9 l30 0 -3 -154 c-3 -134 -5
-157 -22 -175 -42 -46 -144 -35 -166 19 -7 16 -9 34 -5 39 10 18 44 12 57 -9
27 -42 78 -15 78 41 0 18 -3 20 -12 11 -7 -7 -29 -12 -49 -12 -56 0 -79 34
-79 116 0 72 13 107 44 122 29 14 37 14 69 -2z m282 -17 c17 -16 21 -36 23
-120 l4 -100 -44 1 c-23 1 -54 -1 -68 -5 -36 -9 -80 27 -80 66 0 28 30 69 50
69 6 0 26 7 45 14 25 11 33 19 29 30 -9 22 -41 20 -56 -4 -18 -29 -58 -27 -58
3 0 68 101 98 155 46z m-3045 -99 l0 -120 -35 0 -35 0 0 113 c0 63 3 117 7
120 3 4 19 7 35 7 l28 0 0 -120z m2280 63 c19 -90 25 -92 45 -14 18 68 20 71
48 71 28 0 29 -2 23 -33 -3 -19 -25 -99 -49 -178 l-42 -144 -34 -3 c-28 -3
-32 -1 -28 15 31 106 31 95 -3 209 -18 60 -35 115 -38 122 -3 8 7 12 30 12 34
0 35 -1 48 -57z"/>
<path d="M6613 9773 c-20 -4 -23 -11 -23 -51 l0 -47 85 0 85 0 0 46 c0 40 -3
48 -22 53 -25 6 -90 6 -125 -1z"/>
<path d="M3588 5304 c-2 -9 -1 -45 0 -80 4 -63 4 -64 32 -64 46 0 75 31 75 80
0 32 -6 47 -24 61 -29 24 -78 25 -83 3z"/>
<path d="M3257 5053 c-4 -3 -7 -40 -7 -81 l0 -75 46 6 c51 5 68 21 58 52 -4
11 -6 34 -5 52 1 23 -5 35 -18 43 -22 11 -64 13 -74 3z"/>
<path d="M3402 4175 c-168 -37 -378 -204 -397 -317 -4 -23 -17 -56 -29 -73
-27 -37 -43 -84 -52 -152 -6 -51 -6 -52 17 -46 l24 5 -22 -16 c-25 -19 -31
-56 -9 -56 8 0 16 -7 20 -15 3 -8 15 -15 26 -15 28 0 28 -46 0 -53 -11 -3 -23
-1 -26 4 -14 23 -21 5 -13 -33 31 -146 174 -321 319 -391 115 -56 184 -70 320
-65 128 6 204 28 306 89 62 38 174 145 174 166 0 8 -4 11 -10 8 -5 -3 -10 -2
-10 4 0 6 11 13 25 17 28 7 50 38 39 56 -4 6 3 18 14 27 12 9 24 30 28 47 6
29 3 33 -39 53 l-45 22 2 59 c2 52 0 59 -18 64 -18 5 -19 8 -6 16 8 5 22 7 31
5 17 -6 22 8 50 120 6 22 15 43 21 46 8 5 3 27 -16 73 -30 71 -45 83 -44 37 1
-34 -8 -51 -28 -51 -8 0 -14 -10 -14 -25 0 -16 6 -25 15 -25 20 0 19 -19 -5
-55 -11 -16 -20 -24 -20 -17 0 7 -4 11 -9 8 -5 -3 -11 4 -15 17 -7 31 -84 67
-140 67 l-44 0 -7 65 c-8 68 -1 115 16 115 5 0 12 -8 15 -17 23 -68 27 -72 81
-79 44 -5 57 -3 82 16 17 12 31 28 31 36 0 8 5 12 10 9 6 -3 10 -2 10 3 0 16
-81 102 -111 117 -31 16 -69 20 -69 7 0 -5 -13 -7 -30 -4 -16 2 -30 8 -30 12
0 8 -39 23 -54 21 -5 -1 -6 5 -2 14 3 9 6 19 6 21 0 2 10 4 23 4 22 1 22 1 2
16 -66 50 -256 69 -393 39z m344 -280 c9 -22 -42 -83 -84 -101 -71 -30 -141
10 -126 72 7 26 8 26 68 21 42 -4 71 -2 91 8 40 18 45 18 51 0z"/>
</g>
</svg>
