<?xml version="1.0" standalone="no"?>
<!DOCTYPE svg PUBLIC "-//W3C//DTD SVG 20010904//EN"
 "http://www.w3.org/TR/2001/REC-SVG-20010904/DTD/svg10.dtd">
<svg version="1.0" xmlns="http://www.w3.org/2000/svg"
 width="720.000000pt" height="1280.000000pt" viewBox="0 0 720.000000 1280.000000"
 preserveAspectRatio="xMidYMid meet">
<metadata>
Created by potrace 1.16, written by Peter Selinger 2001-2019
</metadata>
<g transform="translate(0.000000,1280.000000) scale(0.100000,-0.100000)"
fill="#000000" stroke="none">
<path d="M0 6400 l0 -6400 3600 0 3600 0 0 1025 0 1025 -217 0 c-231 0 -267 4
-259 26 3 8 -1 14 -8 14 -20 0 -26 33 -26 145 0 118 -27 535 -35 558 -11 27
-34 27 -60 -1 -20 -21 -28 -25 -42 -16 -9 6 -20 23 -24 38 -4 14 -21 42 -37
61 -17 18 -33 43 -37 54 -3 12 -10 21 -15 21 -5 0 -16 12 -23 28 -14 28 -12
60 4 76 5 6 9 43 9 82 0 40 4 75 9 78 11 7 20 63 12 73 -16 21 -61 35 -130 40
-42 3 -81 10 -88 15 -6 5 -53 11 -105 12 -51 2 -106 8 -121 15 -16 6 -63 11
-105 11 -42 0 -111 5 -152 11 -41 6 -93 12 -116 13 -23 2 -46 6 -51 9 -6 4
-42 8 -81 11 -39 2 -75 7 -80 10 -5 3 -39 6 -75 7 -37 1 -67 6 -67 10 0 5 -22
9 -50 9 -27 0 -50 4 -50 9 0 8 -187 28 -220 23 -8 -1 -39 0 -67 4 -64 7 -72
31 -19 59 32 17 37 17 93 2 33 -10 70 -17 82 -17 15 0 75 46 178 138 85 75
187 163 226 195 124 98 127 104 127 222 0 55 -7 200 -15 323 -14 214 -14 228
5 355 44 285 44 286 32 313 -14 29 -92 68 -169 84 -34 7 -54 17 -57 28 -67
243 -167 520 -214 597 -42 68 -102 133 -158 171 l-53 36 26 39 c14 21 35 71
47 111 l23 73 11 -53 c16 -72 15 -92 -7 -135 -10 -20 -15 -37 -11 -37 5 0 20
23 34 52 19 39 26 67 26 113 0 73 -32 194 -67 253 -22 39 -23 42 -5 33 58 -31
108 -154 97 -238 -5 -42 -4 -45 7 -28 7 12 13 50 13 90 0 55 -6 81 -25 119
-52 103 -174 196 -255 196 -39 0 -45 16 -20 60 29 50 8 180 -46 295 -91 193
-371 297 -586 217 -44 -16 -47 -20 -51 -57 -4 -49 -12 -57 -56 -62 -31 -3 -91
-45 -80 -55 1 -2 -16 -15 -39 -29 -41 -25 -43 -25 -44 -6 -1 11 -6 23 -10 26
-14 11 -15 44 -1 52 8 6 9 9 1 9 -23 0 -111 -80 -141 -128 -44 -71 -55 -120
-41 -177 15 -59 28 -66 22 -12 -2 27 3 56 14 81 l18 38 -3 -78 c-4 -84 0 -91
67 -146 21 -18 21 -18 21 37 0 29 4 56 8 59 5 3 20 -1 35 -9 16 -8 27 -10 27
-4 0 6 -13 16 -30 22 -17 6 -30 16 -30 23 0 16 59 130 73 143 10 8 12 -3 9
-55 -6 -83 16 -142 76 -206 55 -59 78 -64 56 -13 -8 20 -14 67 -14 112 0 94
14 127 24 58 4 -26 14 -64 21 -86 14 -38 14 -39 -6 -28 -32 17 -34 3 -2 -17
15 -10 55 -44 88 -76 34 -32 70 -60 82 -62 12 -3 34 -13 49 -22 27 -18 27 -18
19 5 -15 48 14 9 35 -47 18 -46 21 -70 17 -125 -4 -46 -3 -65 5 -61 15 10 58
111 58 138 0 25 29 56 78 80 31 16 36 16 58 1 19 -12 24 -24 24 -59 0 -75 -65
-144 -157 -169 -24 -6 -43 -15 -43 -19 0 -11 28 -10 50 2 15 8 19 5 24 -23 7
-33 42 -62 143 -118 49 -28 70 -70 54 -112 -11 -28 -113 -103 -176 -130 -47
-20 -132 -37 -187 -37 -131 0 -219 73 -262 217 -6 18 -2 22 26 28 35 8 50 -5
109 -95 38 -59 37 -41 -1 27 -16 29 -30 55 -30 57 0 3 32 24 70 47 39 23 68
44 66 47 -3 3 -12 0 -19 -7 -20 -16 -119 -49 -187 -61 -71 -13 -110 2 -135 50
-9 17 -18 30 -21 30 -2 0 2 -13 11 -29 14 -28 64 -71 82 -71 5 0 14 -19 20
-42 28 -103 113 -186 212 -207 83 -18 205 7 299 60 102 57 141 99 142 151 0
45 -10 58 -71 88 -97 49 -76 53 27 5 54 -25 116 -63 140 -85 28 -26 53 -40 71
-41 16 0 37 -4 48 -9 19 -8 19 -9 -3 -9 -89 -3 -182 -135 -231 -326 -45 -179
-54 -263 -56 -500 -3 -261 -8 -312 -37 -321 -21 -6 -53 -71 -63 -128 -6 -29
-14 -38 -53 -56 -61 -29 -89 -55 -112 -107 -18 -42 -20 -43 -67 -43 -45 1
-105 13 -195 40 -21 6 -51 22 -67 35 -16 14 -33 25 -38 25 -5 0 -26 17 -46 38
-36 37 -48 74 -27 87 6 3 10 22 10 41 0 36 15 46 24 17 4 -10 16 -29 27 -43
11 -14 6 0 -11 30 -42 73 -115 228 -134 283 -19 57 -46 238 -46 311 0 43 -5
62 -21 79 l-20 22 14 -35 c8 -19 17 -82 20 -139 l6 -104 -29 34 c-16 19 -29
30 -30 26 0 -4 18 -45 41 -90 85 -171 93 -203 68 -272 -2 -5 9 -27 24 -47 39
-51 45 -105 18 -160 -26 -54 -26 -68 -3 -68 10 0 31 -14 47 -30 16 -17 39 -30
51 -30 13 0 29 -7 36 -16 7 -8 21 -23 31 -32 46 -42 38 -92 -14 -92 -20 0 -30
-7 -38 -28 -6 -15 -26 -33 -44 -41 -17 -8 -40 -23 -50 -33 -23 -23 -44 -10
-49 30 -3 23 -6 19 -22 -26 -15 -43 -20 -51 -32 -41 -8 6 -14 16 -14 21 0 6
-7 25 -16 44 -13 28 -23 34 -59 39 -82 13 -156 -44 -154 -119 0 -32 2 -37 9
-21 8 20 9 20 9 -1 1 -26 -7 -34 -25 -27 -21 8 -44 57 -44 92 0 16 -4 33 -10
36 -5 3 -10 1 -10 -5 0 -7 -8 -9 -20 -5 -15 5 -18 3 -14 -8 3 -9 -22 -45 -65
-93 -85 -96 -131 -170 -138 -221 -4 -32 0 -45 22 -71 l28 -33 -24 -82 c-17
-57 -24 -107 -24 -164 0 -66 -2 -78 -11 -61 -21 39 -25 -106 -25 -804 0 -605
2 -682 16 -698 14 -16 11 -17 -61 -24 -42 -3 -133 -6 -201 -6 l-124 0 22 31
c18 26 21 40 16 87 -6 74 -71 221 -137 311 -27 38 -61 98 -75 134 l-24 65 25
23 c16 15 35 57 55 124 82 268 90 289 163 409 128 214 266 496 287 589 13 63
2 164 -27 237 -17 42 -159 185 -246 247 l-47 34 31 57 c17 31 48 80 69 108 51
67 69 113 69 177 0 38 6 62 19 78 55 71 64 135 32 217 -19 47 -19 49 0 103 31
91 27 116 -44 239 -22 39 -30 79 -56 282 -34 256 -53 369 -78 463 -32 114
-158 210 -378 290 -55 19 -106 37 -112 40 -10 3 -10 11 -3 31 6 15 9 29 6 31
-3 3 -49 -110 -88 -219 -23 -64 -119 -63 -258 4 -52 26 -96 45 -98 43 -2 -2
18 -18 45 -35 59 -40 113 -90 113 -105 0 -6 -11 -26 -25 -45 -14 -19 -25 -38
-25 -44 0 -15 50 35 76 77 21 31 54 51 54 31 0 -23 -51 -89 -80 -104 -89 -45
-228 -52 -306 -16 -77 36 -164 155 -164 226 0 39 30 97 69 134 34 32 36 31 21
-9 -13 -35 5 -24 25 16 21 40 58 40 75 -1 18 -43 24 -30 9 19 -10 34 -17 41
-37 41 -36 0 -131 58 -154 94 -21 33 -20 105 2 146 25 46 118 1 147 -72 14
-35 54 -78 73 -78 5 0 6 17 3 38 -2 20 0 50 6 65 9 22 14 26 28 18 16 -8 18
-3 20 45 2 72 22 108 23 42 0 -27 4 -48 8 -48 4 0 37 40 72 90 35 49 66 88 68
85 2 -2 -3 -24 -11 -49 -9 -27 -12 -46 -6 -46 22 0 83 51 120 100 43 58 47 56
23 -14 -9 -26 -14 -49 -11 -52 19 -19 102 77 128 149 7 20 17 37 21 37 4 0 19
-22 33 -50 27 -54 33 -110 12 -110 -16 0 -63 -48 -55 -56 4 -3 18 2 32 11 14
10 32 15 40 12 21 -8 5 -61 -20 -65 -10 -2 -27 -14 -36 -25 -20 -25 -23 -42
-6 -31 8 5 9 0 5 -15 -7 -29 14 -23 29 8 6 12 15 21 19 19 4 -2 15 20 24 47 9
28 27 68 41 90 13 22 27 60 31 85 4 35 7 40 13 25 23 -59 25 -60 25 -7 1 58
-18 114 -52 150 -18 20 -19 24 -7 32 8 5 20 10 26 10 6 0 19 9 30 21 19 21 19
21 -1 19 -43 -5 -62 2 -123 40 l-63 40 28 25 28 24 -40 1 c-22 0 -90 15 -151
33 -111 32 -111 32 -96 55 8 13 10 22 4 22 -6 0 -14 -4 -17 -10 -3 -5 -13 -10
-22 -10 -31 0 -70 -57 -64 -93 1 -5 -3 -5 -10 -2 -6 4 -17 -2 -25 -14 -8 -12
-23 -21 -32 -20 -12 0 -10 3 6 10 32 13 17 32 -23 27 l-32 -4 10 41 c6 22 15
43 21 47 29 20 -85 5 -132 -17 -66 -31 -66 -31 -58 0 8 33 -4 32 -36 -2 -31
-34 -48 -66 -48 -91 0 -15 -11 -22 -46 -31 -31 -8 -59 -25 -90 -56 -53 -54
-57 -73 -8 -40 44 30 67 33 31 5 -65 -51 -117 -222 -96 -313 14 -62 29 -69 30
-15 l1 43 9 -55 c5 -30 20 -75 32 -100 39 -75 115 -195 137 -215 39 -35 26
-48 -110 -109 -161 -72 -368 -184 -437 -237 -69 -52 -144 -143 -182 -221 -35
-72 -53 -156 -81 -384 -21 -169 -35 -228 -54 -221 -13 5 -38 -18 -29 -27 3 -3
13 0 21 7 13 10 14 6 8 -33 -3 -25 -16 -83 -27 -130 -11 -47 -22 -95 -24 -107
-3 -14 -15 -24 -33 -28 -16 -3 -46 -20 -67 -37 -48 -40 -132 -168 -141 -216
-9 -48 19 -250 46 -328 19 -52 21 -80 19 -236 -3 -172 -2 -177 22 -212 13 -19
30 -34 39 -33 8 0 46 -14 84 -31 62 -29 76 -32 125 -26 31 3 70 15 88 26 18
10 46 23 62 28 29 8 29 8 56 -68 14 -43 52 -119 82 -170 54 -89 56 -96 54
-158 -2 -63 -1 -65 44 -113 41 -44 45 -53 45 -98 0 -32 9 -71 24 -104 13 -30
32 -92 42 -139 13 -61 35 -119 81 -208 34 -68 70 -149 79 -180 52 -179 55
-186 106 -238 l50 -51 6 -94 c6 -76 0 -175 -18 -286 0 -2 -377 -2 -837 0
l-838 2 -3 1322 -2 1322 61 58 c52 49 89 98 89 117 0 13 -75 45 -110 48 l-40
2 0 2163 1 2163 3589 0 3590 0 0 1775 0 1775 -3600 0 -3600 0 0 -6400z m6795
3679 c153 -68 200 -265 96 -404 -25 -34 -27 -41 -14 -50 23 -17 -3 -53 -49
-67 -30 -9 -45 -8 -80 5 -34 13 -55 15 -98 8 -30 -5 -63 -13 -73 -16 -53 -21
-137 34 -107 70 11 13 9 19 -8 38 -85 90 -82 268 6 360 77 82 216 105 327 56z
m-652 5 c52 -18 116 -76 143 -132 28 -55 26 -174 -4 -229 -50 -95 -136 -143
-256 -143 -209 0 -331 220 -222 402 25 42 43 59 94 85 54 28 75 33 131 33 37
0 88 -7 114 -16z m-5834 -111 c15 -56 71 -300 71 -307 0 -3 -15 -6 -33 -6 -28
0 -34 4 -42 33 -9 29 -14 32 -49 32 -36 0 -40 -3 -48 -32 -8 -29 -13 -33 -42
-33 l-34 0 14 58 c7 31 26 110 41 175 l27 117 43 0 c40 0 43 -2 52 -37z m401
-55 l1 -93 30 38 c23 27 39 37 60 37 16 0 29 -3 29 -6 0 -4 -16 -28 -35 -53
-30 -41 -33 -50 -21 -67 7 -10 25 -40 40 -66 l27 -48 -35 0 c-30 0 -38 5 -57
40 -13 22 -26 40 -31 40 -4 0 -8 -18 -8 -40 0 -38 -2 -40 -30 -40 l-30 0 0
175 0 175 30 0 30 0 0 -92z m1740 -83 l0 -176 -42 1 c-24 1 -55 -1 -69 -5 -19
-5 -33 -1 -55 18 -28 24 -29 29 -29 106 1 69 4 85 22 102 22 22 54 28 91 15
21 -7 22 -5 22 53 l0 61 30 0 30 0 0 -175z m452 83 l3 -92 25 37 c20 30 31 37
58 37 30 0 42 -12 24 -24 -5 -3 -21 -23 -36 -44 l-27 -40 40 -66 41 -66 -35 0
c-30 0 -38 5 -57 40 -13 22 -26 40 -30 40 -5 0 -8 -18 -8 -40 0 -39 -1 -40
-35 -40 l-35 0 0 168 c0 93 3 172 7 175 3 4 19 7 34 7 l28 0 3 -92z m728 28
l0 -65 35 15 c28 11 40 12 58 3 34 -18 37 -27 37 -136 l0 -103 -30 0 -30 0 0
90 c0 75 -3 92 -16 97 -37 14 -49 -10 -52 -101 l-3 -86 -29 0 -30 0 0 175 0
175 30 0 30 0 0 -64z m530 3 c0 -58 1 -60 23 -53 76 26 107 -8 107 -118 0 -71
-2 -81 -26 -105 -21 -21 -31 -24 -57 -18 -18 4 -49 6 -69 6 l-38 -2 0 176 0
175 30 0 30 0 0 -61z m-1482 -11 c3 -35 6 -38 33 -38 24 0 29 -4 29 -25 0 -21
-5 -25 -30 -25 l-31 0 3 -67 c3 -66 4 -68 31 -71 21 -3 27 -8 23 -19 -3 -8 -6
-19 -6 -24 0 -16 -73 -10 -92 8 -14 13 -18 31 -18 90 0 66 -2 75 -20 80 -13 3
-20 14 -20 29 0 17 6 24 20 24 17 0 20 7 20 41 0 38 1 40 28 37 23 -3 27 -8
30 -40z m-2094 -58 c24 -24 34 -122 17 -173 -15 -44 -59 -66 -97 -48 -14 6
-27 11 -29 11 -3 0 -5 -29 -5 -65 l0 -65 -30 0 -30 0 0 181 0 182 39 -6 c21
-2 45 -1 52 4 19 12 60 2 83 -21z m402 20 c8 0 23 -9 34 -20 17 -17 20 -33 20
-121 l0 -101 -32 3 c-18 1 -48 -1 -66 -5 -50 -12 -82 13 -82 64 0 44 20 64 83
81 28 7 37 15 35 27 -5 25 -45 27 -58 3 -13 -25 -48 -28 -57 -5 -13 34 56 90
95 78 8 -2 20 -4 28 -4z m293 -1 c38 -14 51 -35 51 -88 l0 -41 -61 0 c-60 0
-60 0 -57 -27 3 -32 44 -46 54 -19 4 10 18 16 35 16 35 0 39 -25 10 -61 -27
-34 -99 -34 -135 0 -23 22 -26 32 -26 96 0 79 20 120 63 128 12 2 25 5 28 6 3
0 20 -4 38 -10z m199 0 c29 -10 59 -59 45 -73 -15 -15 -51 -5 -56 15 -4 13
-12 20 -24 17 -31 -6 -27 -34 7 -48 78 -32 101 -82 61 -131 -15 -19 -29 -24
-66 -24 -37 0 -51 5 -66 24 -29 36 -25 61 11 61 24 0 30 -4 30 -21 0 -15 5
-20 22 -17 42 6 33 36 -16 58 -54 23 -75 57 -60 98 9 25 45 52 70 52 6 0 25
-5 42 -11z m219 -13 c6 -6 13 -22 15 -36 2 -21 -2 -26 -23 -28 -20 -2 -28 2
-32 18 -4 14 -12 21 -24 18 -29 -5 -21 -32 15 -50 73 -36 92 -81 53 -129 -15
-19 -29 -24 -66 -24 -37 0 -51 5 -66 24 -29 36 -25 61 10 61 21 0 30 -6 34
-21 7 -25 40 -22 45 4 3 12 -9 23 -42 37 -51 21 -70 54 -60 97 12 45 104 65
141 29z m182 13 c17 -6 36 -19 41 -29 6 -10 10 -62 10 -116 l0 -97 -40 6 c-22
3 -43 1 -46 -4 -8 -14 -47 -11 -72 7 -16 11 -22 25 -22 54 0 44 20 64 83 81
28 7 37 15 35 27 -5 25 -45 27 -58 3 -13 -25 -48 -28 -57 -5 -8 23 16 62 46
73 35 13 43 13 80 0z m319 -22 c16 -15 22 -32 22 -64 l0 -43 -61 0 c-60 0 -60
0 -57 -27 3 -32 44 -46 54 -19 8 20 64 22 64 2 0 -69 -102 -98 -158 -45 -19
17 -22 31 -22 98 0 68 3 80 23 98 12 11 29 23 37 26 25 9 73 -4 98 -26z m1000
-3 c19 -21 22 -36 22 -99 0 -70 -1 -74 -32 -100 -27 -23 -39 -26 -71 -22 -59
8 -80 35 -85 107 -3 36 1 72 9 91 24 60 111 73 157 23z m240 9 c8 -11 12 -53
12 -120 l0 -103 -30 0 -30 0 0 90 c0 75 -3 92 -17 97 -32 12 -53 -32 -53 -113
l0 -74 -30 0 -30 0 0 120 0 120 29 0 c16 0 31 -5 33 -12 3 -8 11 -7 29 5 27
20 67 15 87 -10z m530 -9 c15 -17 22 -38 22 -65 l0 -39 -61 0 c-60 0 -60 0
-57 -27 3 -32 44 -46 54 -19 4 10 18 16 35 16 35 0 40 -29 9 -60 -27 -27 -63
-34 -105 -20 -46 15 -55 34 -55 123 0 64 3 76 23 94 12 11 29 23 37 26 28 11
75 -3 98 -29z m542 10 c11 -11 15 -39 15 -117 l0 -102 -32 -3 -33 -3 0 91 c0
72 -3 92 -15 96 -33 13 -45 -15 -45 -102 l0 -84 -35 0 -35 0 0 120 0 120 35 0
c19 0 35 -4 35 -9 0 -6 12 -3 28 4 29 16 58 12 82 -11z m215 -5 c17 -16 21
-36 23 -120 l4 -100 -44 1 c-23 1 -54 -1 -68 -5 -34 -9 -80 27 -80 61 0 42 17
62 70 79 37 12 50 22 50 36 0 26 -36 25 -52 -1 -12 -19 -48 -27 -61 -14 -3 3
-1 19 5 36 20 56 108 72 153 27z m394 20 c36 -13 61 -53 61 -99 l0 -30 -59 0
c-63 0 -76 -8 -66 -40 8 -24 55 -28 55 -5 0 11 11 15 36 15 32 0 35 -2 29 -22
-4 -13 -18 -34 -33 -47 -21 -19 -33 -22 -65 -18 -60 8 -80 35 -85 109 -5 79 9
115 50 133 41 17 38 17 77 4z m204 -3 c15 -8 27 -11 27 -5 0 5 14 9 31 9 l30
0 -3 -154 c-3 -134 -5 -157 -22 -175 -42 -46 -144 -35 -166 19 -7 16 -9 34 -5
39 10 18 44 12 57 -9 27 -42 78 -15 78 41 0 18 -3 20 -12 11 -7 -7 -29 -12
-49 -12 -56 0 -79 34 -79 116 0 72 13 107 44 122 29 14 37 14 69 -2z m285 -22
c19 -22 22 -36 22 -120 l0 -95 -42 1 c-24 1 -54 -1 -68 -5 -36 -9 -80 27 -80
65 0 27 32 70 52 70 5 0 24 7 43 14 25 11 33 19 29 30 -9 22 -41 20 -56 -4
-18 -29 -58 -27 -58 3 0 73 105 101 158 41z m-3048 -94 l0 -120 -35 0 -35 0 0
113 c0 63 3 117 7 120 3 4 19 7 35 7 l28 0 0 -120z m2280 63 c19 -90 25 -92
45 -14 18 68 20 71 48 71 28 0 29 -2 23 -33 -3 -19 -25 -99 -49 -178 l-42
-144 -34 -3 c-28 -3 -33 -1 -27 14 28 74 28 99 -3 207 -18 59 -34 113 -37 122
-5 12 2 15 28 15 34 0 35 -1 48 -57z m-44 -3489 c14 -78 -20 -200 -64 -223
-14 -7 -40 -1 -105 27 -94 40 -112 58 -46 47 39 -7 40 -6 29 14 -8 17 -8 22 2
25 108 31 158 68 158 117 0 41 18 36 26 -7z m274 -471 c78 -54 135 -181 164
-367 21 -128 30 -457 17 -591 -22 -219 -69 -440 -117 -541 -32 -69 -117 -146
-269 -247 -207 -137 -253 -153 -359 -126 -40 10 -46 8 -91 -20 -39 -25 -60
-31 -102 -31 -29 0 -53 4 -53 9 0 16 29 33 52 29 l23 -5 -25 -11 -25 -12 25 3
c36 3 37 38 3 87 -15 22 -32 40 -37 40 -5 0 -1 -9 9 -20 17 -19 17 -21 -11
-62 -59 -88 -204 -220 -297 -272 -48 -26 -100 -49 -115 -50 -15 -1 -40 -11
-56 -24 -27 -21 -46 -28 -46 -17 0 20 66 130 106 175 l48 55 -52 -49 c-28 -27
-65 -75 -82 -107 -17 -32 -36 -61 -42 -65 -15 -10 -4 69 20 140 10 30 15 53
11 50 -10 -6 -49 -129 -49 -155 0 -26 -16 -24 -24 4 -26 99 27 240 134 354 17
18 25 30 17 27 -20 -7 -113 -125 -134 -169 -16 -34 -17 -35 -28 -15 -9 17 -11
9 -7 -39 2 -34 2 -61 -1 -61 -3 0 -17 25 -31 56 -14 30 -35 68 -46 84 l-21 29
21 123 c12 68 19 137 17 153 -9 61 38 105 110 105 44 0 62 -15 84 -70 7 -19
37 -61 67 -93 29 -32 50 -63 46 -68 -9 -15 67 -2 126 21 96 37 150 33 189 -14
8 -9 18 -16 24 -16 16 0 -34 50 -67 67 -24 12 -33 13 -52 2 -61 -32 -26 43 40
86 27 18 54 47 67 72 27 53 45 69 88 80 38 10 40 12 71 95 26 68 39 80 110
107 65 25 60 24 60 7 0 -7 7 -19 15 -26 13 -11 13 -7 0 31 -16 45 -14 76 12
141 13 33 20 38 59 44 49 7 114 46 159 95 29 32 28 32 -12 -3 -56 -49 -102
-73 -107 -56 -14 43 -14 106 0 189 8 52 16 103 16 114 4 108 68 401 117 535
38 104 58 135 113 177 48 37 82 41 118 16z m-2530 -887 c0 -7 13 -25 29 -40
l30 -28 -24 -37 c-37 -56 -42 -110 -14 -166 19 -38 21 -49 11 -63 -7 -9 -20
-29 -30 -44 -20 -32 -32 -36 -32 -10 0 10 -9 35 -20 57 -17 33 -18 45 -9 73
12 38 8 103 -11 147 -11 28 -10 34 20 82 30 48 50 60 50 29z m167 -640 c40
-20 58 -63 43 -101 -6 -16 -15 -92 -20 -170 -6 -77 -12 -154 -15 -171 -6 -36
-85 -120 -85 -90 0 10 9 34 21 52 11 19 17 34 12 34 -9 0 -33 -43 -56 -101 -8
-20 -30 -48 -49 -63 -37 -27 -58 -35 -40 -13 15 17 92 196 91 210 0 7 -25 -39
-54 -100 -46 -97 -59 -115 -89 -130 -28 -13 -39 -14 -48 -5 -9 9 -8 16 5 29
18 20 72 152 81 198 8 39 -3 17 -40 -80 -14 -38 -42 -90 -60 -114 -19 -24 -34
-48 -34 -54 0 -9 51 -5 119 9 l34 7 -7 -33 c-3 -19 -20 -54 -36 -80 -39 -61
-45 -80 -75 -243 -19 -108 -34 -158 -70 -236 -25 -54 -45 -102 -45 -108 0 -5
-20 -30 -43 -55 -35 -36 -47 -58 -60 -109 -24 -102 -30 -165 -17 -203 12 -37
123 -149 158 -161 21 -6 37 -35 72 -127 37 -99 128 -201 238 -265 l47 -28
-255 -3 c-140 -1 -260 0 -266 2 -6 2 -17 26 -23 53 -7 26 -23 82 -36 123 -13
41 -28 112 -34 157 -10 78 -42 226 -81 378 -11 42 -21 127 -24 211 -9 196 -21
285 -51 349 -19 43 -25 72 -25 129 0 41 -6 89 -14 107 -9 22 -12 52 -9 82 l6
49 18 -29 c12 -19 22 -60 26 -114 8 -83 8 -84 37 -87 16 -2 39 -10 50 -18 36
-23 92 -7 128 36 16 21 38 40 49 43 20 5 31 28 60 125 l18 63 -31 85 c-17 46
-34 84 -39 84 -4 0 6 -37 21 -83 32 -91 31 -108 -12 -209 -26 -60 -41 -63 -20
-5 14 40 14 52 -2 140 -10 53 -25 105 -33 114 -14 17 -14 17 -8 -2 4 -11 14
-64 23 -117 l16 -97 -28 -70 c-40 -102 -82 -129 -56 -36 15 54 8 222 -11 239
-9 8 -10 4 -5 -19 16 -81 17 -162 2 -219 -17 -64 -32 -82 -54 -64 -10 9 -12
33 -7 107 5 74 3 105 -9 136 -16 45 -20 30 -7 -28 10 -43 -7 -169 -26 -188
-20 -20 -30 -1 -36 76 -7 83 -45 172 -100 234 -16 19 -47 72 -68 118 -21 46
-52 104 -70 129 -29 42 -30 48 -18 71 20 37 97 93 129 93 25 0 110 -55 110
-72 0 -10 193 -174 239 -203 40 -25 88 -110 98 -172 6 -38 25 -34 21 4 -3 22
1 26 25 27 24 2 27 -2 27 -30 0 -37 9 -64 20 -64 5 0 5 14 0 31 -7 23 -3 54
15 120 13 49 26 115 30 147 3 31 8 67 11 80 2 12 1 22 -4 22 -5 0 -14 -42 -21
-92 -7 -51 -21 -118 -31 -148 l-18 -55 -1 42 c-1 23 -6 54 -11 69 -9 22 -4 46
26 133 35 102 39 109 109 176 40 39 76 81 80 95 4 14 15 36 23 49 14 21 21 23
68 18 28 -3 65 -12 81 -21z m-1557 -154 c0 -22 149 -70 172 -56 7 4 8 2 4 -4
-8 -13 7 -16 58 -12 15 1 26 -2 23 -8 -8 -12 51 -55 65 -46 7 5 9 2 5 -8 -4
-11 30 -49 108 -124 101 -96 159 -173 143 -189 -3 -3 -34 1 -69 9 -35 9 -65
13 -68 11 -2 -3 1 -5 7 -5 14 0 15 -10 2 -30 -7 -12 -12 -11 -28 8 -14 16 -21
19 -24 10 -5 -13 34 -38 58 -38 24 0 15 -29 -11 -36 -24 -6 -25 -9 -25 -85 0
-69 -2 -79 -18 -79 -16 0 -18 -14 -19 -160 -2 -135 0 -160 12 -160 12 0 15
-17 15 -85 0 -72 -3 -88 -20 -105 -11 -11 -20 -27 -20 -36 0 -8 -5 -24 -10
-35 -9 -16 -7 -19 11 -19 15 0 19 -4 15 -16 -8 -21 2 -56 15 -49 5 3 6 -1 3
-10 -6 -13 -10 -11 -25 12 -11 15 -17 34 -14 41 3 7 1 11 -4 8 -5 -3 -13 0
-19 7 -20 25 -63 139 -86 232 -14 53 -32 108 -41 122 -14 21 -16 39 -11 97 17
184 18 236 6 236 -7 0 -9 -8 -5 -20 3 -11 3 -50 0 -88 l-7 -69 -39 35 c-21 19
-43 50 -49 68 -11 31 -8 43 34 132 47 101 53 122 36 122 -5 0 -10 -8 -10 -17
0 -22 -52 -143 -61 -143 -4 0 -9 10 -13 23 -3 12 -26 56 -51 98 -62 105 -128
308 -120 368 4 27 10 39 14 32 6 -10 10 -9 14 3 3 8 1 16 -6 19 -8 2 -6 14 7
39 16 30 22 34 33 23 7 -8 13 -18 13 -23z m2341 -9 c7 -27 23 -59 36 -73 38
-41 31 -52 -32 -48 -30 1 -56 1 -58 -2 -1 -3 -28 -13 -59 -21 l-57 -16 16 31
c20 40 123 176 133 176 4 0 13 -21 21 -47z m47 -149 c27 -5 31 -11 35 -48 10
-94 57 -216 83 -216 6 0 15 -21 19 -47 4 -26 13 -52 22 -58 13 -9 12 -22 -2
-105 -28 -158 -5 -237 106 -366 l60 -69 -23 -18 c-43 -36 -90 -15 -273 122
-142 106 -247 262 -260 386 -5 48 -1 83 24 179 55 217 95 263 209 240z m692
-223 c73 -28 107 -57 174 -150 l59 -82 -29 -30 c-29 -31 -190 -142 -251 -173
-41 -20 -44 -38 -4 -23 87 32 175 -115 217 -366 18 -106 18 -108 -1 -144 -23
-43 -92 -78 -132 -68 -15 3 -125 106 -264 243 -202 201 -242 246 -265 297 -34
72 -42 159 -24 257 11 64 21 81 35 58 7 -11 30 -4 65 20 14 9 40 20 58 23 35
7 119 54 212 118 63 44 81 46 150 20z m271 -325 c1 -11 0 -97 0 -191 -2 -176
0 -188 54 -380 27 -95 28 -105 14 -131 l-13 -25 -47 47 c-27 26 -51 60 -55 76
-3 16 -12 41 -20 56 -8 15 -14 34 -14 43 0 29 -47 203 -67 249 -24 54 -67 106
-106 130 l-28 18 87 52 c151 91 193 103 195 56z"/>
<path d="M6613 9773 c-20 -4 -23 -11 -23 -51 l0 -47 85 0 85 0 0 46 c0 40 -3
48 -22 53 -25 6 -90 6 -125 -1z"/>
<path d="M158 8686 c-32 -31 -66 -56 -78 -56 -27 0 -25 -21 3 -48 28 -26 74
-28 115 -5 28 16 30 16 64 -5 20 -12 49 -21 69 -20 31 1 37 6 57 49 32 66 27
93 -18 97 -19 2 -40 10 -46 18 -7 8 -34 17 -60 20 -48 5 -50 5 -106 -50z"/>
<path d="M558 8565 c-10 -11 -113 -45 -133 -45 -11 0 -44 -11 -73 -25 -65 -30
-96 -31 -144 -5 -37 20 -37 20 -48 0 -8 -15 -21 -20 -50 -20 -45 0 -60 -18
-60 -73 l0 -34 49 11 c52 10 81 0 81 -30 0 -18 22 -18 67 1 19 8 37 15 38 15
2 0 0 -30 -3 -66 l-5 -67 35 7 c46 8 156 73 177 104 9 13 31 40 49 60 29 33
37 36 78 34 l47 -2 -7 43 c-9 56 -73 117 -98 92z"/>
<path d="M816 7341 c-4 -5 -2 -39 3 -75 10 -72 6 -95 -33 -170 -45 -86 -31
-98 41 -39 62 51 78 91 58 140 -11 25 -14 51 -9 76 4 29 2 43 -12 58 -18 20
-39 25 -48 10z"/>
<path d="M327 6852 c-11 -12 -17 -36 -17 -64 0 -42 -3 -48 -36 -67 -20 -12
-38 -20 -41 -17 -2 2 -15 -7 -28 -20 -13 -13 -33 -24 -44 -24 -11 0 -23 -4
-26 -10 -3 -5 -17 -10 -30 -10 -20 0 -26 -7 -36 -42 -12 -47 -6 -132 11 -154
7 -7 27 -18 46 -24 19 -6 34 -18 34 -25 0 -7 6 -16 13 -18 9 -4 8 -8 -3 -16
-12 -9 -11 -11 8 -11 32 0 39 -27 13 -51 -11 -11 -24 -32 -27 -47 -4 -15 -22
-42 -41 -60 -35 -33 -38 -63 -7 -87 16 -13 44 -98 44 -135 0 -16 -11 -54 -26
-83 -20 -43 -24 -67 -22 -113 l3 -59 37 -9 c27 -7 45 -6 62 3 22 12 24 20 28
118 l4 105 35 32 c104 92 184 156 197 156 15 0 63 49 57 59 -11 18 -23 13 -61
-29 -20 -22 -40 -37 -44 -35 -4 3 -35 -9 -69 -26 -77 -38 -97 -36 -93 11 2 19
8 50 14 68 5 19 11 55 12 80 1 40 11 61 64 138 34 50 62 99 62 107 0 29 -20
28 -59 -2 -48 -38 -69 -39 -77 -5 -8 32 26 164 61 238 27 58 33 117 12 135
-11 8 -18 7 -30 -7z"/>
<path d="M745 6456 c-1 -6 -8 -36 -14 -66 -28 -145 -33 -160 -61 -183 l-27
-23 34 -24 c32 -22 34 -26 27 -59 -10 -51 -7 -71 12 -92 20 -22 39 -24 51 -7
8 13 25 134 43 297 13 113 3 156 -36 164 -14 2 -27 0 -29 -7z"/>
<path d="M182 5138 c-7 -7 -12 -19 -12 -28 0 -9 -4 -20 -8 -25 -17 -20 -34
-94 -28 -119 8 -33 44 -43 85 -21 28 14 30 18 20 37 -6 11 -15 50 -19 86 -9
70 -19 89 -38 70z"/>
</g>
</svg>
