<?xml version="1.0" standalone="no"?>
<!DOCTYPE svg PUBLIC "-//W3C//DTD SVG 20010904//EN"
 "http://www.w3.org/TR/2001/REC-SVG-20010904/DTD/svg10.dtd">
<svg version="1.0" xmlns="http://www.w3.org/2000/svg"
 width="720.000000pt" height="1280.000000pt" viewBox="0 0 720.000000 1280.000000"
 preserveAspectRatio="xMidYMid meet">
<metadata>
Created by potrace 1.16, written by Peter Selinger 2001-2019
</metadata>
<g transform="translate(0.000000,1280.000000) scale(0.100000,-0.100000)"
fill="#000000" stroke="none">
<path d="M0 6400 l0 -6400 3600 0 3600 0 0 1025 0 1025 -22 0 -21 0 21 23 22
23 0 1547 c0 1231 -3 1547 -12 1547 -23 0 -256 29 -315 39 -32 5 -107 15 -168
22 -60 6 -120 16 -132 20 -26 9 -31 37 -9 45 12 5 536 -57 609 -72 l27 -6 0
1591 0 1591 -25 0 c-18 0 -25 5 -25 19 0 11 11 28 25 39 l25 20 0 353 c0 348
0 353 -22 376 l-21 23 21 0 22 0 0 1775 0 1775 -3600 0 -3600 0 0 -6400z
m6795 3680 c80 -37 139 -117 150 -206 9 -63 -8 -125 -50 -190 -28 -44 -31 -52
-17 -60 13 -9 13 -13 -2 -37 -23 -35 -90 -46 -137 -23 -34 17 -70 15 -141 -6
-50 -15 -104 -3 -124 28 -13 20 -14 27 -4 39 11 13 9 19 -8 38 -85 90 -82 268
6 360 77 82 219 106 327 57z m-652 4 c106 -36 177 -154 163 -271 -12 -98 -61
-168 -148 -208 -128 -60 -303 -10 -361 101 -47 91 -44 191 7 276 25 43 43 59
94 85 54 28 75 33 131 33 37 0 88 -7 114 -16z m-5802 -244 c21 -91 39 -168 39
-172 0 -5 -15 -8 -33 -8 -28 0 -34 4 -42 32 -9 29 -14 32 -50 31 -36 0 -40 -3
-47 -31 -8 -28 -13 -32 -42 -32 l-34 0 14 58 c7 31 26 110 41 175 l27 118 44
-3 45 -3 38 -165z m369 78 l1 -93 30 38 c23 27 39 37 60 37 16 0 29 -3 29 -6
0 -4 -16 -28 -35 -53 -30 -41 -33 -50 -21 -67 7 -10 25 -40 40 -66 l27 -48
-35 0 c-30 0 -38 5 -57 40 -26 45 -39 43 -39 -6 0 -31 -2 -34 -30 -34 l-30 0
0 175 0 175 30 0 30 0 0 -92z m1740 -83 l0 -176 -42 1 c-24 1 -55 -1 -69 -5
-19 -5 -33 -1 -55 18 -28 24 -29 29 -28 107 1 68 4 85 21 102 22 21 54 27 91
14 21 -7 22 -5 22 53 l0 61 30 0 30 0 0 -175z m452 83 l3 -92 25 37 c20 30 31
37 58 37 30 0 42 -12 24 -24 -5 -3 -21 -23 -36 -44 l-27 -40 40 -66 41 -66
-34 0 c-28 0 -38 7 -62 43 l-29 42 -3 -42 c-3 -42 -4 -43 -38 -43 l-34 0 0
175 0 175 35 0 34 0 3 -92z m728 27 l0 -66 30 16 c33 17 60 13 85 -11 11 -12
15 -40 15 -120 l0 -104 -30 0 -30 0 0 90 c0 75 -3 92 -16 97 -37 14 -49 -10
-52 -101 l-3 -86 -29 0 -30 0 0 175 0 175 30 0 30 0 0 -65z m530 4 c0 -58 1
-60 23 -53 76 26 107 -8 107 -118 0 -71 -2 -81 -26 -105 -20 -20 -31 -24 -52
-18 -15 4 -46 6 -69 5 l-43 -1 0 176 0 175 30 0 30 0 0 -61z m-1480 -9 c0 -38
2 -40 30 -40 25 0 30 -4 30 -25 0 -21 -5 -25 -30 -25 l-31 0 3 -67 c3 -66 4
-68 31 -71 21 -3 27 -8 23 -19 -3 -8 -6 -19 -6 -24 0 -16 -73 -10 -92 8 -14
13 -18 31 -18 90 0 66 -2 75 -20 80 -13 3 -20 14 -20 29 0 17 6 24 20 24 16 0
20 7 20 33 0 40 6 47 37 47 20 0 23 -5 23 -40z m-2096 -61 c24 -23 34 -121 17
-172 -15 -44 -59 -66 -97 -48 -14 6 -27 11 -29 11 -3 0 -5 -30 -5 -66 l0 -65
-27 3 -28 3 -3 179 -2 179 37 -5 c21 -3 47 -2 58 3 26 10 55 2 79 -22z m405
20 c44 -16 51 -35 51 -143 l0 -96 -47 -1 c-27 0 -60 -1 -75 -1 -40 -1 -58 19
-58 63 0 43 20 63 83 80 28 7 37 15 35 27 -5 26 -48 28 -55 3 -4 -14 -13 -21
-29 -21 -65 0 -15 96 52 99 6 1 25 -4 43 -10z m290 0 c38 -14 51 -35 51 -88
l0 -41 -61 0 c-60 0 -60 0 -57 -27 3 -32 44 -46 54 -19 4 10 18 16 35 16 35 0
39 -25 10 -61 -27 -34 -99 -34 -135 0 -23 22 -26 32 -26 96 0 79 20 120 63
128 12 2 25 5 28 6 3 0 20 -4 38 -10z m198 0 c32 -12 43 -26 43 -56 0 -31 -45
-33 -53 -3 -7 26 -47 27 -47 1 0 -11 12 -23 30 -31 78 -32 101 -82 61 -131
-15 -19 -29 -24 -66 -24 -37 0 -51 5 -66 24 -29 36 -25 61 11 61 24 0 30 -4
30 -21 0 -15 5 -20 22 -17 40 5 31 32 -19 58 -91 48 -80 135 19 149 4 1 19 -4
35 -10z m191 0 c29 -10 59 -59 45 -73 -15 -15 -51 -5 -56 15 -4 13 -12 20 -24
17 -29 -5 -21 -32 15 -50 73 -36 92 -81 53 -129 -15 -19 -29 -24 -66 -24 -37
0 -51 5 -66 24 -29 36 -25 61 10 61 21 0 30 -6 34 -21 7 -25 40 -22 45 3 2 12
-11 24 -43 39 -74 35 -86 106 -22 134 39 17 37 17 75 4z m211 0 c17 -6 36 -19
41 -29 6 -10 10 -62 10 -115 l0 -97 -32 3 c-18 1 -48 -1 -66 -5 -50 -12 -82
13 -82 64 0 44 20 64 83 81 28 7 37 15 35 27 -5 25 -45 27 -58 3 -13 -24 -48
-28 -56 -6 -8 20 21 64 49 75 30 12 39 12 76 -1z m318 -21 c17 -16 23 -33 23
-65 l0 -43 -61 0 c-60 0 -60 0 -57 -27 3 -32 44 -46 54 -19 8 20 64 22 64 2 0
-69 -102 -98 -158 -45 -19 17 -22 31 -22 98 0 68 3 80 23 98 12 11 29 23 37
26 25 10 73 -2 97 -25z m1001 -4 c18 -21 22 -36 22 -98 0 -65 -3 -75 -26 -97
-35 -33 -104 -34 -136 -2 -27 28 -37 127 -17 174 24 60 111 73 157 23z m240 8
c8 -10 12 -52 12 -119 l0 -103 -30 0 -30 0 0 90 c0 75 -3 92 -17 97 -32 12
-53 -32 -53 -113 l0 -74 -30 0 -30 0 0 120 0 120 29 0 c16 0 31 -5 33 -11 2
-6 14 -5 33 5 33 17 63 13 83 -12z m529 -4 c17 -16 23 -33 23 -65 l0 -43 -61
0 c-60 0 -60 0 -57 -27 3 -32 44 -46 54 -19 4 10 18 16 35 16 22 0 29 -5 29
-20 0 -42 -64 -79 -115 -66 -52 13 -65 39 -65 124 0 69 3 81 23 99 12 11 29
23 37 26 25 10 73 -2 97 -25z m540 8 c6 -6 13 -57 16 -118 l5 -108 -34 0 -34
0 0 90 c0 72 -3 92 -15 96 -33 13 -45 -15 -45 -102 l0 -84 -35 0 -35 0 0 120
0 120 35 0 c19 0 35 -4 35 -9 0 -6 12 -3 28 4 28 15 58 12 79 -9z m218 -7 c17
-16 21 -35 23 -120 l4 -100 -44 1 c-23 1 -54 -1 -68 -5 -35 -9 -80 27 -80 64
0 39 19 60 70 75 33 10 46 19 48 35 4 28 -33 29 -50 1 -12 -19 -48 -27 -60
-14 -15 14 11 60 43 77 40 20 84 15 114 -14z m400 16 c37 -15 55 -46 55 -96 0
-29 0 -29 -59 -29 -65 0 -73 -5 -64 -38 6 -26 53 -32 53 -7 0 11 11 15 36 15
32 0 35 -2 29 -22 -4 -13 -18 -34 -33 -47 -21 -19 -33 -22 -65 -18 -59 8 -80
35 -85 107 -5 75 11 118 52 136 39 17 40 17 81 -1z m198 1 c15 -8 27 -11 27
-5 0 5 14 9 31 9 l30 0 -3 -154 c-3 -134 -5 -157 -22 -175 -42 -46 -144 -35
-166 19 -7 16 -9 34 -5 39 10 18 44 12 57 -9 27 -42 78 -15 78 41 0 18 -3 20
-12 11 -7 -7 -29 -12 -49 -12 -56 0 -79 34 -79 116 0 72 13 107 44 122 29 14
37 14 69 -2z m285 -22 c19 -22 22 -36 22 -120 l0 -95 -42 1 c-24 1 -55 -1 -70
-5 -21 -6 -32 -2 -52 18 -48 48 -29 99 44 121 33 10 46 19 48 35 4 28 -33 29
-50 1 -12 -19 -48 -27 -60 -14 -15 14 11 60 43 77 43 22 86 16 117 -19z
m-3048 -94 l0 -120 -35 0 -35 0 0 113 c0 63 3 117 7 120 3 4 19 7 35 7 l28 0
0 -120z m2271 103 c0 -10 8 -43 18 -73 l17 -55 19 73 c18 70 20 72 51 72 l32
0 -24 -82 c-79 -281 -76 -273 -113 -276 -28 -3 -33 -1 -27 14 29 76 29 101 -4
209 -17 59 -34 113 -37 121 -4 10 4 14 31 14 27 0 36 -4 37 -17z m-3904 -760
c167 -214 264 -346 260 -357 -2 -6 -12 -12 -23 -14 -13 -2 -31 13 -59 50 -22
29 -80 105 -130 168 -50 63 -101 131 -115 150 -13 19 -39 53 -57 74 -40 48
-41 56 -4 56 24 0 42 -17 128 -127z m2427 -2449 c9 -8 16 -26 16 -38 0 -33 6
-35 57 -20 57 17 81 11 89 -24 3 -15 7 -31 8 -36 1 -4 16 3 33 18 32 27 57 33
67 17 4 -5 13 -44 22 -86 12 -60 13 -79 4 -90 -28 -33 -70 -6 -70 44 0 28 -12
26 -49 -5 -18 -15 -40 -24 -53 -22 -20 3 -24 10 -28 53 -6 55 -5 55 -87 40
l-42 -7 -11 41 c-6 22 -12 41 -13 41 -1 0 -17 -4 -35 -9 -43 -13 -62 -5 -62
25 0 25 20 40 85 60 52 17 51 17 69 -2z m767 -79 c59 -31 67 -46 46 -90 l-16
-34 43 -25 c52 -30 62 -51 41 -82 -20 -31 -19 -34 11 -34 44 0 67 -18 59 -47
-3 -14 -12 -32 -20 -39 -7 -7 -23 -29 -35 -48 -21 -35 -51 -53 -70 -41 -15 9
-12 61 5 75 24 20 17 30 -21 30 -73 0 -96 37 -49 81 34 33 31 45 -15 74 -44
28 -50 50 -25 89 15 23 14 24 -20 44 -36 22 -43 40 -23 60 17 17 33 15 89 -13z
m-1077 -380 c61 -35 89 -69 81 -94 -7 -22 -48 -30 -60 -11 -13 22 -35 10 -35
-19 0 -30 -22 -61 -42 -61 -6 0 -26 12 -45 26 -19 14 -36 24 -37 23 -2 -2 -11
-18 -20 -36 -19 -39 -51 -51 -75 -29 -24 22 -28 21 -46 -14 -17 -33 -45 -39
-66 -14 -10 13 -8 24 14 70 29 59 49 74 78 56 31 -19 43 -14 67 29 24 41 27
42 82 28 9 -3 16 5 18 21 4 28 19 50 34 50 5 0 29 -11 52 -25z m1613 -263 c13
-35 20 -68 17 -74 -4 -5 -22 -17 -41 -25 -33 -13 -35 -16 -28 -51 15 -73 11
-82 -50 -105 -5 -3 1 -16 13 -30 44 -48 15 -74 -98 -91 -84 -12 -110 45 -32
69 39 11 40 24 7 55 -14 13 -25 31 -25 40 0 20 40 40 80 40 33 0 35 3 19 49
-15 44 0 77 40 86 17 4 31 7 31 8 0 1 -4 18 -10 36 -11 41 2 64 34 59 16 -2
27 -19 43 -66z m-667 -364 l0 -81 61 61 c34 34 81 71 104 82 80 39 173 17 206
-47 10 -20 15 -84 19 -230 3 -111 9 -205 13 -209 4 -5 17 -3 27 4 24 15 57 16
65 2 12 -19 40 -10 57 20 19 34 26 36 53 16 18 -13 17 -15 -6 -71 -29 -69 -54
-85 -94 -59 -31 20 -31 20 -67 -45 -17 -31 -59 -43 -73 -21 -12 19 -25 10 -25
-18 0 -62 -41 -67 -117 -15 -59 40 -73 67 -49 91 14 15 19 14 50 0 32 -16 35
-16 42 0 4 9 10 119 12 243 3 195 2 231 -12 258 -14 27 -22 31 -57 31 -49 0
-99 -25 -161 -80 l-48 -42 0 -153 c0 -169 7 -197 51 -216 16 -6 29 -15 29 -20
0 -5 -63 -9 -140 -9 -87 0 -140 4 -140 10 0 6 7 10 15 10 9 0 27 11 40 25 24
23 25 31 25 134 0 60 5 122 11 138 6 15 11 79 12 141 2 112 2 113 27 118 14 3
30 7 35 9 32 11 35 4 35 -77z m-838 -681 c-12 -13 -22 -26 -22 -30 0 -4 18
-18 41 -33 42 -26 43 -29 24 -91 -6 -18 -2 -25 18 -32 43 -17 44 -71 0 -71
-28 0 -94 32 -113 55 -12 15 -12 21 3 47 21 36 17 42 -34 68 -43 23 -49 45
-21 78 17 19 43 27 101 31 l24 1 -21 -23z m505 -87 c9 -22 19 -40 23 -40 3 0
17 11 30 25 13 14 30 25 38 25 23 0 41 -31 42 -71 l0 -36 49 11 c57 11 81 -1
81 -41 0 -23 2 -24 44 -18 37 6 46 4 54 -12 15 -27 3 -41 -59 -63 -79 -29 -81
-29 -103 42 -5 16 -8 16 -51 2 -87 -30 -85 -19 -85 -409 0 -328 1 -343 20
-368 11 -14 30 -27 42 -29 12 -2 23 -9 26 -15 3 -10 -30 -13 -142 -13 -80 0
-146 4 -146 8 0 5 16 16 35 25 20 9 40 29 45 43 6 16 9 161 8 372 l-3 347 -68
-165 c-38 -91 -111 -270 -164 -398 -68 -166 -100 -232 -111 -230 -8 2 -31 44
-52 93 -34 80 -58 138 -172 415 -17 41 -43 100 -57 130 l-26 55 -3 -70 c-2
-38 -2 -176 0 -306 3 -220 4 -238 23 -259 11 -12 30 -26 43 -31 48 -18 21 -29
-73 -29 -52 0 -95 4 -95 9 0 5 14 14 31 22 56 23 59 43 59 399 0 354 -3 372
-61 392 -51 18 -31 28 55 28 l85 0 24 -54 c14 -30 28 -65 32 -78 4 -12 15 -41
25 -63 10 -22 52 -123 93 -225 42 -102 85 -207 97 -235 l22 -50 13 25 c7 14
70 165 140 335 70 171 133 320 141 333 10 16 12 27 6 35 -14 16 -26 121 -18
152 10 41 45 33 63 -15z m569 -440 c31 -10 72 -31 91 -46 l35 -27 -28 -26
c-26 -23 -271 -227 -311 -258 -25 -19 -7 -60 51 -118 60 -60 105 -76 157 -54
33 13 69 61 69 92 0 20 19 22 45 4 17 -13 17 -15 -5 -44 -12 -17 -45 -44 -73
-59 -42 -23 -62 -27 -122 -27 -111 1 -194 54 -248 157 -28 55 -32 70 -32 146
0 66 5 95 22 130 26 54 85 113 133 134 50 22 149 20 216 -4z m-3366 -900 c23
-14 5 -36 -92 -110 -47 -36 -143 -110 -213 -165 -70 -55 -163 -127 -206 -160
-43 -33 -132 -102 -198 -152 -66 -51 -123 -93 -126 -93 -3 0 -5 13 -5 29 0 23
11 38 58 75 77 61 171 135 212 166 18 14 105 81 194 149 298 230 351 271 356
271 3 0 12 -5 20 -10z m4787 -367 c38 -49 107 -137 154 -198 46 -60 133 -173
194 -251 60 -78 157 -203 215 -278 58 -76 138 -180 178 -231 39 -51 72 -95 72
-99 0 -3 -13 -6 -29 -6 -31 0 -6 -29 -416 499 -50 64 -133 171 -185 239 -52
68 -126 163 -163 210 -117 151 -130 171 -117 187 7 8 16 15 20 15 4 0 38 -39
77 -87z m-2400 -788 c2 -17 -5 -84 -15 -150 l-17 -120 -29 -3 c-25 -3 -28 -1
-23 20 3 13 11 73 18 133 6 61 16 120 21 133 12 34 42 25 45 -13z"/>
<path d="M6613 9773 c-20 -4 -23 -11 -23 -51 l0 -47 85 0 85 0 0 46 c0 40 -3
48 -22 53 -25 6 -90 6 -125 -1z"/>
<path d="M4043 4373 c-36 -7 -81 -67 -89 -119 -11 -74 12 -225 34 -224 4 0 57
42 117 93 93 78 110 97 113 124 7 72 -91 143 -175 126z"/>
</g>
</svg>
