<?xml version="1.0" standalone="no"?>
<!DOCTYPE svg PUBLIC "-//W3C//DTD SVG 20010904//EN"
 "http://www.w3.org/TR/2001/REC-SVG-20010904/DTD/svg10.dtd">
<svg version="1.0" xmlns="http://www.w3.org/2000/svg"
 width="720.000000pt" height="1280.000000pt" viewBox="0 0 720.000000 1280.000000"
 preserveAspectRatio="xMidYMid meet">
<metadata>
Created by potrace 1.16, written by Peter Selinger 2001-2019
</metadata>
<g transform="translate(0.000000,1280.000000) scale(0.100000,-0.100000)"
fill="#000000" stroke="none">
<path d="M0 6400 l0 -6400 3600 0 3600 0 0 6400 0 6400 -3600 0 -3600 0 0
-6400z m6796 3680 c151 -69 198 -267 95 -405 -25 -34 -27 -41 -14 -50 14 -10
14 -14 -2 -38 -22 -35 -88 -46 -136 -23 -29 13 -43 14 -94 4 -106 -20 -144
-17 -171 17 -21 27 -21 30 -6 41 16 11 15 14 -5 36 -56 60 -79 178 -51 269 23
77 102 146 195 169 50 12 138 3 189 -20z m-653 4 c29 -10 64 -34 92 -62 124
-125 89 -333 -68 -412 -134 -67 -310 -20 -371 98 -46 89 -41 199 13 284 41 65
129 108 221 108 36 0 87 -7 113 -16z m-5834 -111 c15 -56 71 -300 71 -307 0
-3 -16 -6 -35 -6 -30 0 -35 3 -35 24 0 34 -23 49 -64 42 -27 -5 -35 -12 -40
-36 -5 -26 -10 -30 -40 -30 l-34 0 14 58 c7 31 25 110 40 175 l28 117 42 0
c41 0 44 -2 53 -37z m403 -55 l3 -93 25 37 c20 31 31 38 58 38 17 0 32 -3 32
-6 0 -4 -16 -28 -35 -53 -30 -41 -33 -50 -21 -67 7 -10 25 -40 40 -66 l27 -48
-35 0 c-30 0 -38 5 -57 40 -26 45 -39 43 -39 -6 0 -31 -2 -34 -30 -34 l-30 0
0 175 0 175 30 0 29 0 3 -92z m1738 -83 l0 -176 -42 1 c-24 1 -55 -1 -69 -5
-19 -5 -33 -1 -55 18 -28 24 -29 29 -29 106 1 69 4 85 22 102 22 22 54 28 91
15 21 -7 22 -5 22 53 l0 61 30 0 30 0 0 -175z m452 83 l3 -92 25 37 c20 30 31
37 58 37 30 0 42 -12 24 -24 -5 -3 -21 -23 -36 -44 l-27 -40 40 -66 41 -66
-35 0 c-30 0 -39 6 -62 43 l-28 42 -3 -42 c-3 -42 -4 -43 -38 -43 l-34 0 0
175 0 175 35 0 34 0 3 -92z m728 27 l0 -66 30 16 c33 17 60 13 85 -11 11 -12
15 -40 15 -120 l0 -104 -30 0 -30 0 0 90 c0 75 -3 92 -16 97 -37 14 -49 -10
-52 -101 l-3 -86 -29 0 -30 0 0 175 0 175 30 0 30 0 0 -65z m530 4 c0 -58 1
-60 23 -53 76 26 107 -8 107 -118 0 -71 -2 -81 -26 -105 -20 -20 -31 -24 -52
-18 -15 4 -46 6 -69 5 l-43 -1 0 176 0 175 30 0 30 0 0 -61z m-1480 -9 c0 -38
2 -40 30 -40 25 0 30 -4 30 -25 0 -21 -5 -25 -30 -25 l-31 0 3 -67 c3 -66 4
-68 31 -71 21 -3 27 -8 23 -19 -3 -8 -6 -19 -6 -24 0 -16 -73 -10 -92 8 -14
13 -18 31 -18 90 0 66 -2 75 -20 80 -13 3 -20 14 -20 29 0 17 6 24 20 24 17 0
20 7 20 40 0 38 2 40 30 40 28 0 30 -2 30 -40z m-2096 -61 c24 -23 34 -121 17
-172 -15 -44 -59 -66 -97 -48 -14 6 -27 11 -29 11 -3 0 -5 -30 -5 -66 l0 -65
-27 3 -28 3 -3 179 -2 179 37 -5 c21 -3 47 -2 58 3 26 10 55 2 79 -22z m405
20 c17 -6 36 -19 41 -29 6 -10 10 -62 10 -115 l0 -97 -32 3 c-18 1 -48 -1 -66
-5 -50 -12 -82 13 -82 64 0 44 20 64 83 81 28 7 37 15 35 27 -5 26 -48 28 -55
3 -4 -14 -13 -21 -29 -21 -65 0 -15 96 52 99 6 1 25 -4 43 -10z m290 0 c38
-14 51 -35 51 -88 l0 -41 -61 0 c-60 0 -60 0 -57 -27 3 -32 44 -46 54 -19 4
10 18 16 35 16 35 0 39 -25 10 -61 -27 -34 -99 -34 -135 0 -23 22 -26 32 -26
96 0 79 20 120 63 128 12 2 25 5 28 6 3 0 20 -4 38 -10z m198 0 c32 -12 43
-26 43 -56 0 -31 -45 -33 -53 -2 -7 24 -40 23 -45 -2 -2 -10 9 -21 30 -29 75
-30 98 -83 59 -131 -40 -50 -151 -22 -151 38 0 18 5 23 26 23 18 0 28 -6 31
-21 7 -26 48 -23 48 4 0 12 -16 26 -45 40 -89 43 -75 132 22 146 4 1 19 -4 35
-10z m197 -3 c31 -13 53 -55 38 -71 -14 -14 -50 -3 -55 16 -4 13 -12 20 -24
17 -29 -5 -21 -32 15 -50 73 -36 92 -81 53 -129 -15 -19 -29 -24 -66 -24 -37
0 -51 5 -66 24 -29 36 -25 61 10 61 21 0 30 -6 34 -21 7 -25 40 -22 45 3 2 12
-11 24 -43 39 -74 35 -85 107 -21 135 39 17 40 17 80 0z m205 3 c17 -6 36 -19
41 -29 6 -10 10 -62 10 -115 l0 -97 -32 3 c-18 1 -48 -1 -66 -5 -50 -12 -82
13 -82 64 0 44 20 64 83 81 28 7 37 15 35 27 -5 25 -45 27 -58 3 -14 -27 -60
-29 -60 -3 0 36 46 79 86 81 6 1 25 -4 43 -10z m318 -21 c17 -16 23 -33 23
-65 l0 -43 -61 0 c-60 0 -60 0 -57 -27 3 -32 44 -46 54 -19 8 20 64 22 64 2 0
-69 -102 -98 -158 -45 -19 17 -22 31 -22 98 0 68 3 80 23 98 12 11 29 23 37
26 25 10 73 -2 97 -25z m1001 -4 c18 -21 22 -36 22 -98 0 -65 -3 -75 -26 -97
-35 -33 -104 -34 -136 -2 -27 28 -37 127 -17 174 24 60 111 73 157 23z m240 8
c8 -10 12 -52 12 -119 l0 -103 -30 0 -30 0 0 90 c0 75 -3 92 -17 97 -32 12
-53 -32 -53 -113 l0 -74 -30 0 -30 0 0 120 0 120 29 0 c16 0 31 -5 33 -11 2
-6 14 -5 33 5 33 17 63 13 83 -12z m529 -4 c17 -16 23 -33 23 -65 l0 -43 -61
0 c-60 0 -60 0 -57 -27 3 -32 44 -46 54 -19 4 10 18 16 35 16 22 0 29 -5 29
-20 0 -42 -64 -79 -115 -66 -52 13 -65 39 -65 124 0 69 3 81 23 99 12 11 29
23 37 26 25 10 73 -2 97 -25z m540 8 c7 -6 14 -56 17 -118 l6 -108 -35 0 -35
0 0 90 c0 72 -3 92 -15 96 -33 13 -45 -15 -45 -102 l0 -84 -35 0 -35 0 0 120
0 120 35 0 c19 0 35 -4 35 -9 0 -6 12 -3 28 4 28 15 58 12 79 -9z m218 -7 c17
-16 21 -36 23 -120 l4 -100 -44 1 c-23 1 -54 -1 -68 -5 -35 -9 -80 27 -80 64
0 39 19 60 70 75 33 10 46 19 48 35 4 28 -33 29 -50 1 -12 -19 -48 -27 -60
-14 -15 14 11 60 43 77 40 21 85 16 114 -14z m394 20 c36 -13 61 -53 61 -99
l0 -30 -59 0 c-65 0 -73 -5 -64 -38 6 -26 53 -32 53 -7 0 11 11 15 36 15 32 0
35 -2 29 -22 -4 -13 -18 -34 -33 -47 -21 -19 -33 -22 -65 -18 -59 8 -80 35
-85 107 -5 75 11 118 52 136 38 16 36 16 75 3z m204 -3 c15 -8 27 -11 27 -5 0
5 14 9 31 9 l30 0 -3 -155 c-3 -145 -4 -156 -26 -177 -17 -18 -34 -23 -73 -23
-43 0 -54 4 -75 29 -14 15 -24 36 -22 45 5 25 45 26 60 2 27 -43 78 -16 78 40
0 18 -3 20 -12 11 -7 -7 -29 -12 -49 -12 -55 0 -79 34 -79 114 0 85 8 106 44
122 39 17 36 17 69 0z m285 -22 c19 -22 22 -36 22 -120 l0 -95 -42 1 c-24 1
-55 -1 -70 -5 -21 -6 -32 -2 -52 18 -48 48 -29 99 44 121 33 10 46 19 48 35 4
28 -33 29 -50 1 -7 -11 -23 -20 -36 -20 -20 0 -23 4 -20 33 6 65 108 86 156
31z m-3048 -94 l0 -120 -35 0 -35 0 0 113 c0 63 3 117 7 120 3 4 19 7 35 7
l28 0 0 -120z m2280 63 c19 -90 25 -92 45 -14 18 69 20 71 51 71 l32 0 -24
-82 c-79 -281 -76 -273 -113 -276 -28 -3 -33 -1 -27 14 28 74 28 99 -3 207
-18 59 -34 113 -37 122 -5 12 2 15 28 15 34 0 35 -1 48 -57z m-920 -4081 l5
-184 48 79 c50 83 99 143 116 143 17 0 14 -7 -31 -67 -54 -70 -94 -138 -76
-128 7 5 33 23 58 41 52 37 100 53 100 34 0 -7 -16 -34 -35 -61 -19 -27 -37
-60 -41 -74 -11 -43 30 -32 78 22 83 91 116 123 127 123 16 0 14 -13 -7 -36
-29 -31 -82 -116 -82 -131 0 -18 31 -16 56 5 11 9 48 50 83 90 58 67 91 89 91
61 0 -7 -20 -37 -45 -67 -44 -53 -59 -102 -32 -102 7 0 33 16 58 36 l44 36
-48 -46 c-58 -58 -90 -60 -95 -7 l-3 34 -33 -32 c-19 -19 -45 -33 -62 -34 -28
-2 -29 0 -28 40 l1 41 -20 -24 c-16 -21 -66 -54 -81 -54 -2 0 -12 7 -20 16
-19 18 -13 55 17 97 10 16 17 31 14 34 -9 8 -93 -54 -126 -94 -29 -35 -31 -43
-31 -120 l0 -83 -292 0 c-289 0 -293 0 -318 23 -14 12 -21 19 -16 15 21 -16
26 -6 26 51 0 39 -5 63 -15 71 -13 11 -13 16 0 47 8 20 15 53 15 74 0 60 -28
52 -79 -21 -22 -33 -41 -62 -41 -64 0 -2 -20 -35 -45 -73 -52 -78 -59 -70 -15
17 36 71 37 77 8 58 -13 -8 -45 -25 -73 -37 -47 -20 -49 -20 -25 -1 14 11 29
20 33 20 26 0 157 111 157 132 0 4 -17 5 -37 3 -179 -18 -189 -17 -170 2 15
15 38 18 152 21 l135 4 0 122 c0 68 3 126 7 129 4 4 137 6 297 5 l291 -3 5
-183z m-653 112 c27 -17 39 -52 23 -68 -8 -8 -10 -7 -5 4 3 10 -4 25 -19 39
-23 22 -32 23 -98 19 -193 -13 -394 -202 -344 -323 19 -45 61 -63 136 -59 l55
2 -48 -10 c-60 -13 -109 -4 -146 28 -66 56 -49 147 46 240 121 120 316 182
400 128z"/>
<path d="M6613 9773 c-20 -4 -23 -11 -23 -51 l0 -47 85 0 85 0 0 46 c0 40 -3
48 -22 53 -25 6 -90 6 -125 -1z"/>
</g>
</svg>
