<?xml version="1.0" standalone="no"?>
<!DOCTYPE svg PUBLIC "-//W3C//DTD SVG 20010904//EN"
 "http://www.w3.org/TR/2001/REC-SVG-20010904/DTD/svg10.dtd">
<svg version="1.0" xmlns="http://www.w3.org/2000/svg"
 width="720.000000pt" height="1280.000000pt" viewBox="0 0 720.000000 1280.000000"
 preserveAspectRatio="xMidYMid meet">
<metadata>
Created by potrace 1.16, written by Peter Selinger 2001-2019
</metadata>
<g transform="translate(0.000000,1280.000000) scale(0.100000,-0.100000)"
fill="#000000" stroke="none">
<path d="M0 6400 l0 -6400 3600 0 3600 0 0 3310 0 3310 -60 0 c-56 0 -60 -2
-66 -26 -4 -15 -3 -106 1 -203 13 -309 21 -496 20 -498 -2 -6 -96 -12 -285
-19 -194 -6 -212 -6 -230 11 -13 11 -20 14 -20 6 0 -8 -12 -6 -37 7 -21 11
-65 27 -98 37 -33 10 -69 23 -80 29 -11 6 -45 20 -75 30 -96 31 -140 91 -117
159 8 24 14 27 54 27 24 0 53 -5 64 -10 23 -13 49 -61 49 -91 0 -22 0 -22 138
-14 75 4 202 11 282 14 l145 6 -3 70 c-2 57 -9 84 -38 143 -38 77 -77 122
-106 122 -9 0 -20 9 -23 20 -14 45 -81 86 -218 134 -69 25 -94 28 -216 29
l-138 2 36 24 c115 76 242 255 270 383 10 44 -3 57 -36 40 -10 -6 -35 -12 -56
-13 l-39 -4 -25 99 c-19 74 -23 100 -14 106 7 4 46 15 87 25 41 11 74 24 74
30 0 5 -9 25 -20 43 -11 18 -20 43 -20 56 0 13 -11 35 -25 50 -14 15 -25 31
-25 35 0 20 -31 18 -62 -4 -66 -49 -108 -75 -118 -75 -5 0 -10 -4 -10 -8 0 -5
-16 -14 -35 -22 -19 -7 -37 -22 -41 -32 -3 -10 -12 -18 -20 -18 -8 0 -14 -4
-14 -8 0 -5 -16 -14 -35 -22 -19 -8 -35 -16 -35 -20 0 -3 -13 -14 -30 -23 -16
-10 -30 -25 -30 -33 0 -9 -10 -14 -28 -14 -16 0 -34 -8 -42 -20 -8 -11 -22
-20 -32 -20 -13 0 -18 -8 -18 -30 0 -24 4 -30 21 -30 28 0 55 -65 39 -94 -36
-65 -130 -93 -188 -57 -18 12 -41 35 -52 53 -11 18 -20 27 -20 21 0 -7 -9 -13
-20 -13 -11 0 -26 -11 -35 -23 -8 -13 -35 -38 -60 -56 -45 -32 -57 -51 -32
-51 7 0 19 -8 28 -17 8 -10 33 -34 55 -54 52 -48 100 -109 125 -161 11 -24 33
-65 49 -93 41 -70 37 -73 -17 -15 -29 31 -61 54 -83 60 -19 5 -50 20 -69 32
-99 65 -89 63 -283 75 -85 5 -98 4 -98 -10 0 -8 -3 -17 -7 -19 -22 -9 -69 -89
-90 -151 -67 -200 -2 -455 154 -598 22 -20 70 -53 107 -72 l67 -36 47 22 c26
12 49 25 50 30 2 4 10 7 18 7 8 0 14 5 14 10 0 6 6 10 13 10 17 0 188 170 182
180 -3 4 2 14 11 21 18 15 48 69 37 69 -4 0 -2 5 5 12 7 7 12 27 12 46 0 19 4
31 10 27 6 -3 10 -52 10 -110 0 -58 -4 -107 -10 -110 -5 -3 -10 -19 -10 -35 0
-16 -5 -32 -11 -36 -8 -5 -6 -10 5 -16 20 -11 21 -37 1 -44 -8 -4 -15 -18 -15
-34 0 -19 -6 -30 -17 -33 -10 -2 3 -7 30 -11 26 -5 47 -11 47 -15 0 -9 20
-132 26 -164 l6 -27 -84 6 c-76 6 -86 4 -118 -18 -46 -31 -62 -74 -35 -94 31
-23 62 -17 87 16 18 25 29 30 64 30 27 0 51 -7 68 -21 l26 -20 0 40 c0 23 4
41 10 41 21 0 80 -67 93 -105 8 -22 20 -79 26 -126 10 -76 22 -130 46 -206 7
-21 4 -23 -34 -23 -22 0 -41 4 -41 9 0 5 -9 13 -20 16 -14 4 -20 15 -20 35 0
16 -3 36 -6 45 -6 14 -8 14 -26 -2 -31 -28 -100 -24 -133 7 -37 34 -48 58 -41
85 8 33 61 49 125 37 49 -9 51 -8 51 14 0 29 -10 55 -19 49 -4 -2 -38 0 -75 6
-59 8 -72 7 -106 -11 -50 -26 -70 -55 -70 -105 1 -56 41 -111 110 -147 51 -27
61 -28 128 -23 49 4 72 3 68 -4 -4 -6 0 -37 9 -70 8 -32 15 -72 15 -88 l0 -30
-62 9 c-117 15 -313 39 -478 58 -52 6 -126 15 -165 21 -94 12 -982 120 -1110
134 -27 3 -81 10 -120 15 -38 6 -200 26 -360 45 -159 19 -328 39 -375 45 -47
5 -182 21 -300 35 -118 14 -249 30 -290 35 -75 10 -677 84 -1310 160 -91 11
-196 25 -235 30 -60 8 -117 15 -210 25 -11 1 -24 3 -29 4 -6 0 0 10 12 21 12
11 25 33 29 48 3 15 -1 128 -11 252 -23 310 -27 339 -43 356 -21 20 -81 19
-85 -3 -3 -16 4 -111 32 -427 13 -146 11 -154 -57 -165 -34 -6 -38 -10 -36
-35 l2 -29 -62 7 c-134 15 -228 27 -377 46 -85 12 -185 24 -223 27 l-67 6 0
113 c0 122 5 132 45 94 14 -13 51 -26 101 -36 72 -13 84 -13 124 1 41 15 46
14 57 -1 8 -10 31 -19 63 -22 53 -5 59 2 40 38 -11 20 -14 44 -24 160 -14 162
-27 215 -57 247 -48 52 -112 77 -212 81 -80 4 -89 3 -106 -17 -10 -11 -21 -21
-25 -21 -3 0 -6 70 -6 155 0 141 2 155 18 155 16 -1 108 -13 292 -39 102 -15
442 -61 565 -76 55 -7 170 -22 255 -34 85 -11 241 -32 345 -46 105 -14 255
-34 335 -45 80 -11 213 -28 295 -39 228 -31 522 -70 600 -82 39 -5 156 -21
260 -34 264 -35 532 -71 715 -95 85 -12 202 -27 260 -35 178 -23 264 -35 288
-40 26 -6 33 8 64 130 11 44 25 94 33 110 7 17 20 53 30 80 9 28 23 60 31 73
19 29 17 33 -90 253 -42 85 -76 161 -76 167 0 7 13 12 28 12 41 0 70 -38 137
-180 l60 -126 22 55 c12 30 27 59 32 64 6 6 11 21 11 34 0 13 6 41 12 63 11
33 17 40 38 40 18 0 42 17 80 56 30 30 73 65 95 76 22 11 43 25 46 29 11 17
145 39 240 39 l97 0 12 33 c29 72 235 572 290 702 149 356 190 458 190 472 0
8 -20 38 -45 65 -54 60 -59 88 -15 88 21 0 34 -8 47 -27 34 -54 49 -55 69 -7
18 44 13 61 -23 74 -93 34 -128 71 -138 146 -3 27 -11 72 -16 99 -5 28 -20
136 -34 240 -14 105 -30 213 -35 240 -16 87 -16 85 43 85 l53 0 13 -92 c7 -51
17 -118 22 -148 6 -30 22 -138 36 -240 35 -256 33 -247 53 -265 10 -9 30 -17
45 -18 26 -2 30 4 97 163 38 91 89 219 114 285 25 66 50 131 56 145 6 14 19
54 29 89 10 36 24 68 31 73 7 4 273 8 591 8 l577 0 0 1775 0 1775 -3600 0
-3600 0 0 -6400z m6796 3680 c151 -69 198 -267 95 -405 -25 -34 -27 -41 -14
-50 14 -10 14 -14 -2 -38 -22 -35 -90 -46 -136 -23 -33 16 -80 14 -147 -6 -47
-14 -99 -2 -118 28 -13 20 -14 27 -4 39 11 13 9 19 -8 38 -85 90 -82 268 6
360 77 81 220 106 328 57z m-653 4 c29 -10 64 -34 92 -62 124 -125 89 -333
-68 -412 -133 -66 -310 -20 -370 96 -47 91 -44 191 7 276 25 43 43 59 94 85
54 28 75 33 131 33 37 0 88 -7 114 -16z m-5802 -244 c21 -91 39 -168 39 -172
0 -5 -15 -8 -33 -8 -28 0 -34 4 -42 32 -9 29 -14 32 -50 31 -36 0 -40 -3 -47
-31 -8 -28 -13 -32 -42 -32 l-34 0 14 58 c7 31 26 110 41 175 l27 118 44 -3
45 -3 38 -165z m369 78 l1 -93 30 38 c23 27 39 37 60 37 16 0 29 -3 29 -6 0
-4 -16 -28 -35 -53 -30 -41 -33 -50 -21 -67 7 -10 25 -40 40 -66 l27 -48 -35
0 c-30 0 -38 5 -57 40 -26 45 -39 43 -39 -6 0 -31 -2 -34 -30 -34 l-30 0 0
175 0 175 30 0 30 0 0 -92z m1740 -83 l0 -176 -42 1 c-24 1 -55 -1 -69 -5 -19
-5 -33 -1 -55 18 -28 24 -29 29 -28 107 1 68 4 85 21 102 22 21 54 27 91 14
21 -7 22 -5 22 53 l0 61 30 0 30 0 0 -175z m452 83 l3 -92 25 37 c20 30 31 37
58 37 30 0 42 -12 24 -24 -5 -3 -21 -23 -36 -44 l-27 -40 40 -66 41 -66 -34 0
c-28 0 -38 7 -62 43 l-29 42 -3 -42 c-3 -42 -4 -43 -38 -43 l-34 0 0 175 0
175 35 0 34 0 3 -92z m728 27 l0 -66 30 16 c33 17 60 13 85 -11 11 -12 15 -40
15 -120 l0 -104 -30 0 -30 0 0 90 c0 75 -3 92 -16 97 -37 14 -49 -10 -52 -101
l-3 -86 -29 0 -30 0 0 175 0 175 30 0 30 0 0 -65z m530 4 c0 -58 1 -60 23 -53
76 26 107 -8 107 -118 0 -71 -2 -81 -26 -105 -20 -20 -31 -24 -52 -18 -15 4
-46 6 -69 5 l-43 -1 0 176 0 175 30 0 30 0 0 -61z m-1480 -9 c0 -38 2 -40 30
-40 25 0 30 -4 30 -25 0 -21 -5 -25 -30 -25 l-31 0 3 -67 c3 -66 4 -68 31 -71
21 -3 27 -8 23 -19 -3 -8 -6 -19 -6 -24 0 -16 -73 -10 -92 8 -14 13 -18 31
-18 90 0 66 -2 75 -20 80 -13 3 -20 14 -20 29 0 17 6 24 20 24 16 0 20 7 20
33 0 40 6 47 37 47 20 0 23 -5 23 -40z m-2096 -61 c24 -23 34 -121 17 -172
-15 -44 -59 -66 -97 -48 -14 6 -27 11 -29 11 -3 0 -5 -30 -5 -66 l0 -65 -27 3
-28 3 -3 179 -2 179 37 -5 c21 -3 47 -2 58 3 26 10 55 2 79 -22z m405 20 c44
-16 51 -35 51 -143 l0 -96 -47 -1 c-27 0 -60 -1 -75 -1 -40 -1 -58 19 -58 63
0 43 20 63 83 80 28 7 37 15 35 27 -5 26 -48 28 -55 3 -4 -14 -13 -21 -29 -21
-65 0 -15 96 52 99 6 1 25 -4 43 -10z m290 0 c38 -14 51 -35 51 -88 l0 -41
-61 0 c-60 0 -60 0 -57 -27 3 -32 44 -46 54 -19 4 10 18 16 35 16 35 0 39 -25
10 -61 -15 -19 -29 -24 -66 -24 -39 0 -51 5 -71 28 -20 24 -24 39 -24 96 0 75
21 116 63 124 12 2 25 5 28 6 3 0 20 -4 38 -10z m198 0 c32 -12 43 -26 43 -56
0 -31 -45 -33 -53 -3 -7 26 -47 27 -47 1 0 -11 12 -23 30 -31 78 -32 101 -82
61 -131 -15 -19 -29 -24 -66 -24 -37 0 -51 5 -66 24 -29 36 -25 61 11 61 24 0
30 -4 30 -21 0 -15 5 -20 22 -17 40 5 31 32 -19 58 -91 48 -80 135 19 149 4 1
19 -4 35 -10z m191 0 c29 -10 59 -59 45 -73 -15 -15 -51 -5 -56 15 -4 13 -12
20 -24 17 -29 -5 -21 -32 15 -50 73 -36 92 -81 53 -129 -15 -19 -29 -24 -66
-24 -37 0 -51 5 -66 24 -29 36 -25 61 10 61 21 0 30 -6 34 -21 7 -25 40 -22
45 3 2 12 -11 24 -43 39 -74 35 -86 106 -22 134 39 17 37 17 75 4z m211 0 c17
-6 36 -19 41 -29 6 -10 10 -62 10 -115 l0 -97 -32 3 c-18 1 -48 -1 -66 -5 -50
-12 -82 13 -82 64 0 44 20 64 83 81 28 7 37 15 35 27 -5 25 -45 27 -58 3 -13
-24 -48 -28 -56 -6 -8 20 21 64 49 75 30 12 39 12 76 -1z m318 -21 c17 -16 23
-33 23 -65 l0 -43 -61 0 c-60 0 -60 0 -57 -27 3 -32 44 -46 54 -19 8 20 64 22
64 2 0 -69 -102 -98 -158 -45 -19 17 -22 31 -22 98 0 68 3 80 23 98 12 11 29
23 37 26 25 10 73 -2 97 -25z m1001 -4 c18 -21 22 -36 22 -98 0 -65 -3 -75
-26 -97 -35 -33 -104 -34 -136 -2 -27 28 -37 127 -17 174 24 60 111 73 157 23z
m240 8 c8 -10 12 -52 12 -119 l0 -103 -30 0 -30 0 0 90 c0 75 -3 92 -17 97
-32 12 -53 -32 -53 -113 l0 -74 -30 0 -30 0 0 120 0 120 29 0 c16 0 31 -5 33
-11 2 -6 14 -5 33 5 33 17 63 13 83 -12z m529 -4 c17 -16 23 -33 23 -65 l0
-43 -61 0 c-60 0 -60 0 -57 -27 3 -32 44 -46 54 -19 4 10 18 16 35 16 22 0 29
-5 29 -20 0 -42 -64 -79 -115 -66 -52 13 -65 39 -65 124 0 69 3 81 23 99 12
11 29 23 37 26 25 10 73 -2 97 -25z m540 8 c6 -6 13 -57 16 -118 l5 -108 -34
0 -34 0 0 90 c0 72 -3 92 -15 96 -33 13 -45 -15 -45 -102 l0 -84 -35 0 -35 0
0 120 0 120 35 0 c19 0 35 -4 35 -9 0 -6 12 -3 28 4 28 15 58 12 79 -9z m218
-7 c17 -16 21 -35 23 -120 l4 -100 -44 1 c-23 1 -54 -1 -68 -5 -35 -9 -80 27
-80 64 0 39 19 60 70 75 33 10 46 19 48 35 4 28 -33 29 -50 1 -12 -19 -48 -27
-60 -14 -15 14 11 60 43 77 40 20 84 15 114 -14z m400 16 c37 -15 55 -46 55
-96 0 -29 0 -29 -59 -29 -65 0 -73 -5 -64 -38 6 -26 53 -32 53 -7 0 11 11 15
36 15 32 0 35 -2 29 -22 -4 -13 -18 -34 -33 -47 -21 -19 -33 -22 -65 -18 -59
8 -80 35 -85 107 -5 75 11 118 52 136 39 17 40 17 81 -1z m198 1 c15 -8 27
-11 27 -5 0 5 14 9 31 9 l30 0 -3 -154 c-3 -134 -5 -157 -22 -175 -42 -46
-144 -35 -166 19 -7 16 -9 34 -5 39 10 18 44 12 57 -9 27 -42 78 -15 78 41 0
18 -3 20 -12 11 -7 -7 -29 -12 -49 -12 -56 0 -79 34 -79 116 0 72 13 107 44
122 29 14 37 14 69 -2z m285 -22 c19 -22 22 -36 22 -120 l0 -95 -42 1 c-24 1
-55 -1 -70 -5 -21 -6 -32 -2 -52 18 -48 48 -29 99 44 121 33 10 46 19 48 35 4
28 -33 29 -50 1 -12 -19 -48 -27 -60 -14 -15 14 11 60 43 77 43 22 86 16 117
-19z m-3048 -94 l0 -120 -35 0 -35 0 0 113 c0 63 3 117 7 120 3 4 19 7 35 7
l28 0 0 -120z m2271 103 c0 -10 8 -43 18 -73 l17 -55 19 73 c18 70 20 72 51
72 l32 0 -24 -82 c-79 -281 -76 -273 -113 -276 -28 -3 -33 -1 -27 14 29 76 29
101 -4 209 -17 59 -34 113 -37 121 -4 10 4 14 31 14 27 0 36 -4 37 -17z
m-4453 -654 c29 -26 84 -49 120 -49 18 0 43 13 69 35 33 28 50 35 82 35 35 0
41 -3 41 -20 0 -56 -87 -120 -163 -120 -96 0 -257 84 -257 134 0 3 19 6 43 6
30 0 50 -6 65 -21z m773 -31 c2 -60 4 -80 13 -138 l6 -41 -47 3 c-54 3 -55 4
-67 148 l-7 80 50 0 51 0 1 -52z m284 -12 c4 -45 15 -78 35 -110 33 -51 65
-71 131 -81 43 -6 49 -4 78 24 26 26 31 38 31 78 0 47 -10 100 -25 136 -6 14
-2 17 28 17 48 0 67 -9 67 -31 0 -10 4 -19 9 -19 5 0 12 -28 15 -62 9 -87 -9
-142 -58 -182 -34 -28 -44 -31 -101 -30 -86 2 -152 26 -208 77 -63 57 -97 125
-97 193 l0 54 44 0 44 0 7 -64z m561 22 c4 -24 7 -46 6 -50 -1 -5 6 -8 16 -8
23 0 66 47 49 53 -9 3 -9 9 -1 23 9 15 23 19 60 19 l49 0 3 -44 c3 -39 0 -46
-29 -70 -18 -15 -30 -32 -28 -38 2 -7 52 -68 112 -136 59 -69 107 -128 107
-132 0 -4 -20 -5 -44 -3 -47 6 -51 9 -170 151 -59 69 -74 77 -99 53 -11 -11
-13 -25 -6 -58 4 -24 8 -55 9 -70 0 -25 -4 -28 -33 -28 -59 0 -63 10 -81 180
-22 215 -25 200 28 200 44 0 44 0 52 -42z m439 -22 c4 -45 3 -70 -6 -84 -18
-28 1 -49 49 -55 20 -2 65 -10 100 -17 35 -7 65 -11 66 -9 2 2 0 29 -4 59 -5
30 -11 81 -13 113 l-5 57 43 0 42 0 12 -69 c6 -39 11 -83 11 -99 0 -15 7 -50
16 -75 28 -82 7 -85 -211 -38 -49 10 -92 17 -94 15 -24 -23 29 -112 81 -137
42 -20 124 -25 140 -9 15 15 61 15 76 0 37 -37 -17 -78 -103 -78 -120 0 -230
64 -278 162 -21 44 -27 69 -27 124 0 38 0 99 0 137 l-1 67 49 0 50 0 7 -64z
m714 -53 c7 -65 14 -130 16 -145 3 -17 0 -28 -7 -28 -7 0 -9 -19 -4 -62 7 -70
40 -136 85 -167 37 -27 110 -28 140 -3 20 17 20 19 6 132 -7 63 -16 138 -19
165 -3 28 -7 64 -10 80 -3 17 -8 56 -11 88 l-5 58 47 -3 48 -3 12 -105 c6 -58
14 -136 17 -175 4 -38 9 -77 11 -85 2 -8 6 -44 10 -80 5 -66 12 -116 21 -157
4 -19 0 -23 -21 -23 -14 0 -39 7 -54 15 -20 10 -44 12 -79 8 -106 -12 -206 52
-265 171 -24 46 -28 66 -25 109 3 29 -1 111 -8 182 -8 72 -14 133 -14 138 0 4
22 7 49 7 l49 0 11 -117z m505 55 c3 -35 9 -90 12 -123 3 -33 9 -85 14 -115 5
-30 12 -82 15 -115 4 -33 12 -98 19 -145 15 -96 8 -115 -33 -105 -51 12 -48
-2 -106 502 -20 177 -23 163 29 163 l44 0 6 -62z m293 -68 c13 -144 39 -342
52 -415 5 -27 13 -76 16 -107 l6 -58 -40 0 c-22 0 -42 4 -45 8 -11 18 -86 598
-86 666 l0 37 42 -3 43 -3 12 -125z m180 -35 c13 -88 24 -207 27 -265 5 -140
18 -185 70 -236 33 -34 51 -44 91 -49 47 -8 50 -7 76 25 35 41 39 63 22 120
-13 46 -73 489 -73 542 0 28 2 29 42 26 l43 -3 16 -145 c28 -232 49 -385 59
-421 35 -121 -21 -209 -134 -209 -161 0 -293 127 -297 285 -1 33 -10 134 -21
225 -10 91 -22 189 -25 218 l-6 53 44 -3 44 -3 22 -160z m487 23 c9 -79 24
-188 32 -243 8 -55 16 -138 18 -185 5 -100 13 -125 58 -173 36 -39 73 -57 118
-57 44 0 60 10 76 48 13 32 13 46 0 121 -17 93 -42 262 -50 326 -3 22 -12 87
-20 145 -24 161 -24 160 24 160 24 0 42 -5 44 -12 2 -7 16 -110 31 -228 33
-265 49 -372 65 -429 28 -95 -41 -201 -130 -201 -75 0 -170 42 -221 97 -58 61
-81 125 -90 251 -10 137 -22 245 -43 397 -9 61 -16 113 -16 118 0 4 19 7 43 7
l43 0 18 -142z m491 80 c4 -35 13 -105 21 -156 8 -51 19 -123 24 -160 33 -245
63 -451 76 -514 5 -25 3 -28 -23 -28 -39 0 -61 18 -66 55 -3 17 -14 84 -25
150 -11 66 -30 197 -42 290 -12 94 -28 213 -36 266 -8 53 -14 110 -14 128 0
29 2 31 39 31 l39 0 7 -62z m-4973 -618 c26 -16 43 -18 83 -14 118 14 215 -32
250 -119 16 -37 44 -250 45 -334 0 -31 -2 -33 -37 -33 -62 0 -64 5 -73 146
-13 189 -17 208 -55 243 -38 34 -80 44 -131 28 -54 -16 -58 -35 -45 -194 15
-190 18 -173 -33 -173 -25 0 -48 5 -52 11 -5 9 -32 358 -34 437 0 29 37 30 82
2z m696 -99 c60 -12 148 -74 161 -114 6 -18 17 -93 25 -167 8 -74 19 -148 25
-164 9 -22 9 -31 0 -36 -15 -10 -77 5 -97 24 -12 10 -22 12 -32 6 -8 -5 -45
-10 -81 -10 -203 0 -322 201 -161 272 45 20 102 21 192 3 41 -9 52 5 38 46
-14 41 -39 64 -84 79 -40 14 -101 -2 -122 -32 -23 -32 -81 -18 -95 24 -6 17
16 42 56 64 26 14 113 17 175 5z m644 -8 c10 -9 18 -27 18 -40 0 -37 17 -61
49 -68 61 -13 67 -61 9 -67 l-33 -3 2 -111 c1 -61 7 -130 13 -153 9 -36 18
-45 58 -64 36 -17 46 -28 44 -42 -2 -11 -6 -22 -8 -24 -10 -11 -71 0 -112 21
-66 32 -78 64 -92 233 -12 153 -21 175 -72 175 -21 0 -31 6 -37 23 -12 30 -6
37 32 37 46 0 59 12 51 44 -12 49 38 75 78 39z m289 -154 c12 -6 19 -28 23
-81 6 -65 11 -105 31 -230 7 -46 49 -84 105 -93 35 -6 46 -3 76 20 30 23 34
31 29 58 -14 89 -26 280 -17 289 17 17 81 -10 87 -35 2 -12 11 -98 20 -192 9
-93 18 -182 21 -197 5 -27 4 -28 -34 -28 -24 0 -47 7 -56 16 -14 13 -24 14
-65 5 -38 -8 -62 -7 -106 4 -68 18 -83 26 -112 57 -39 41 -52 92 -63 239 -6
79 -13 146 -16 150 -2 4 -1 14 2 23 6 16 38 14 75 -5z m758 -121 c8 -9 43 -13
99 -13 96 0 131 -13 190 -69 63 -59 99 -178 83 -275 -7 -44 -16 -61 -45 -88
-30 -28 -43 -33 -85 -33 -28 0 -73 9 -101 20 -28 11 -56 17 -62 14 -7 -4 -8
-36 -3 -90 l7 -84 -35 0 c-19 0 -40 6 -46 13 -10 13 -33 169 -45 312 -3 39
-10 99 -16 135 -5 36 -10 89 -10 118 0 50 1 52 28 52 15 0 34 -6 41 -12z m748
-122 c86 -43 108 -86 123 -235 6 -55 17 -122 25 -148 8 -26 15 -51 15 -55 0
-14 -66 -8 -86 7 -14 10 -36 13 -84 8 -36 -3 -83 0 -106 6 -89 24 -162 115
-149 185 13 68 85 96 202 79 32 -5 65 -7 71 -5 23 7 11 45 -27 83 -34 35 -44
39 -88 39 -40 0 -54 -5 -73 -25 -25 -27 -59 -32 -78 -13 -22 22 -13 56 21 83
30 25 37 26 109 21 54 -4 92 -13 125 -30z m1163 -11 c7 -8 16 -45 20 -82 5
-38 20 -149 35 -248 15 -99 30 -201 32 -227 l5 -48 -35 0 c-19 0 -40 6 -46 14
-6 7 -20 76 -31 152 -11 77 -27 186 -35 244 -9 58 -18 129 -21 158 l-6 52 35
0 c19 0 40 -7 47 -15z m-907 -32 c8 -10 45 -81 82 -158 l67 -139 19 24 c10 14
19 33 19 42 0 9 9 57 21 107 20 90 21 91 51 91 16 0 37 -4 47 -9 16 -9 16 -15
-6 -103 -14 -51 -29 -111 -34 -133 -5 -22 -13 -49 -18 -60 -5 -11 -19 -60 -31
-110 -13 -49 -30 -102 -38 -117 -23 -39 -69 -59 -114 -49 -49 11 -58 18 -58
46 0 18 7 25 33 30 17 4 39 8 48 11 20 5 42 68 34 97 -5 18 -106 227 -197 410
l-18 37 38 0 c24 0 45 -7 55 -17z m624 -94 c96 -47 110 -75 138 -273 9 -61 22
-123 30 -140 19 -38 20 -36 -19 -36 -19 0 -44 8 -57 19 -19 15 -29 17 -52 9
-41 -15 -126 -5 -178 20 -30 14 -54 37 -76 71 -42 63 -42 100 -4 143 l30 33
110 -2 110 -3 -9 31 c-11 39 -26 56 -61 75 -44 22 -93 18 -120 -11 -30 -31
-74 -33 -89 -5 -15 29 -5 55 33 80 28 18 41 20 102 15 39 -3 89 -15 112 -26z
m-3723 -479 c59 -13 118 -59 143 -110 17 -34 25 -76 33 -178 6 -72 15 -144 20
-158 19 -50 14 -57 -35 -51 -25 2 -54 12 -64 21 -14 13 -24 14 -45 6 -60 -22
-168 -5 -233 37 -58 38 -89 125 -65 185 9 22 39 48 62 54 3 0 13 4 23 9 10 4
63 5 118 1 116 -8 125 -2 88 63 -40 71 -142 87 -199 31 -35 -34 -47 -36 -78
-14 -32 22 -27 48 15 83 34 28 44 31 108 31 38 0 88 -5 109 -10z m514 -71 c75
-13 141 -54 172 -106 14 -23 23 -67 30 -146 6 -61 15 -137 21 -167 6 -30 11
-62 12 -70 3 -24 -52 -25 -84 -1 -25 19 -33 20 -83 9 -89 -17 -167 3 -227 61
-60 58 -76 107 -51 160 28 59 67 73 195 66 l107 -5 0 29 c0 40 -40 85 -88 99
-57 17 -67 15 -105 -18 -75 -66 -160 -14 -88 54 47 45 88 52 189 35z m343 -59
c10 -6 35 -45 55 -88 20 -42 46 -99 59 -127 13 -27 26 -65 30 -82 15 -73 50
-25 81 107 33 147 45 162 111 145 24 -6 25 -8 19 -58 -4 -28 -11 -56 -16 -62
-5 -6 -10 -22 -13 -35 -2 -14 -11 -41 -19 -60 -9 -19 -23 -62 -33 -95 -10 -33
-23 -78 -30 -100 -7 -22 -19 -60 -26 -85 -18 -61 -34 -85 -75 -109 -39 -24
-67 -26 -112 -10 -58 20 -44 78 19 79 15 0 39 10 54 22 25 19 27 26 23 72 -5
51 -22 91 -153 358 -35 70 -60 129 -57 132 9 10 62 7 83 -4z m678 -91 c27 -6
62 -21 78 -35 15 -13 31 -24 34 -24 3 0 23 -25 43 -56 37 -55 61 -140 46 -164
-6 -9 -45 -7 -153 9 -179 26 -187 26 -187 3 0 -28 53 -96 93 -121 41 -25 119
-28 164 -6 25 13 36 13 57 4 34 -16 33 -43 -4 -69 -35 -25 -136 -30 -207 -11
-57 16 -134 78 -172 141 -56 91 -54 213 3 279 52 59 104 72 205 50z m746 -110
c72 -13 101 -28 142 -69 36 -37 48 -79 63 -214 6 -53 18 -118 25 -144 8 -26
15 -50 15 -54 0 -14 -83 -8 -100 7 -14 12 -26 13 -70 5 -133 -25 -270 63 -270
174 0 90 57 122 199 111 52 -4 91 -3 94 2 9 15 -25 75 -56 97 -43 32 -108 28
-144 -6 -16 -16 -39 -28 -50 -28 -24 0 -53 24 -53 45 0 34 72 85 121 85 14 0
52 -5 84 -11z m898 -31 c9 -7 23 -33 30 -57 10 -35 19 -46 42 -54 40 -13 55
-26 55 -48 0 -16 -8 -19 -41 -19 l-41 0 7 -77 c8 -97 33 -224 47 -241 6 -6 24
-16 41 -20 41 -11 57 -36 35 -58 -14 -14 -23 -15 -68 -4 -83 20 -99 41 -120
150 -10 52 -21 130 -25 172 -7 83 -16 97 -68 107 -27 6 -32 12 -35 39 -3 31
-2 32 27 26 48 -10 60 -1 52 38 -10 43 -4 58 23 58 12 0 30 -6 39 -12z m-340
-52 c45 -16 102 -58 123 -92 10 -14 22 -74 31 -142 8 -64 21 -140 29 -168 20
-72 19 -74 -26 -74 -28 0 -45 6 -57 20 -10 11 -21 16 -27 11 -23 -18 -94 -20
-151 -6 -120 32 -186 132 -144 220 27 56 57 63 244 52 34 -2 38 12 17 59 -30
65 -136 88 -182 39 -30 -31 -73 -33 -94 -3 -19 27 -7 51 37 78 38 24 141 26
200 6z m640 -101 c8 -7 18 -36 22 -62 3 -26 8 -61 11 -78 24 -161 37 -284 31
-299 -5 -12 -14 -14 -39 -10 -18 4 -36 9 -40 13 -4 3 -12 44 -18 91 -34 255
-39 298 -40 328 0 29 3 32 29 32 16 0 36 -7 44 -15z m-3652 -668 c30 -12 64
-78 55 -104 -5 -13 -17 -15 -69 -9 -87 10 -135 7 -175 -9 -19 -8 -36 -15 -38
-15 -2 0 -4 23 -4 50 0 47 1 50 26 50 15 0 41 13 61 31 31 27 40 30 77 24 22
-4 53 -12 67 -18z m55 -198 c8 -6 14 -30 14 -54 0 -49 -16 -68 -75 -85 -83
-24 -164 32 -151 104 6 29 13 38 39 46 39 12 154 5 173 -11z m5840 -504 c14
-11 35 -13 81 -8 94 9 126 -1 181 -56 50 -50 55 -62 83 -216 6 -33 15 -80 19
-105 15 -78 13 -97 -12 -102 -52 -9 -61 0 -73 72 -3 19 -15 85 -25 147 -11 61
-20 114 -20 117 0 3 -14 21 -31 41 -26 30 -37 35 -74 35 -63 0 -86 -23 -87
-87 0 -28 2 -55 5 -60 3 -4 8 -30 11 -58 4 -27 12 -74 18 -103 14 -64 5 -76
-44 -67 -33 6 -36 10 -42 48 -19 137 -38 251 -51 314 -8 40 -15 79 -15 88 0
20 49 20 76 0z m696 -102 c86 -57 138 -137 153 -236 11 -72 -2 -124 -41 -163
-32 -32 -39 -34 -98 -34 -35 0 -78 5 -97 11 -76 26 -166 126 -188 209 -28 103
-18 165 34 217 31 31 37 33 107 33 68 0 78 -3 130 -37z m-5046 -271 c7 -4 15
-36 18 -71 4 -36 9 -79 11 -95 7 -54 18 -170 21 -216 1 -25 7 -90 13 -145 20
-191 17 -199 -69 -171 -40 13 -58 14 -99 5 -153 -33 -304 108 -317 297 -5 60
-2 78 19 126 36 81 74 102 178 96 62 -4 86 -10 109 -27 40 -29 43 -19 32 99
-5 52 -7 98 -5 103 5 9 74 9 89 -1z m-1724 -29 c50 -42 52 -44 82 -95 19 -32
30 -68 33 -108 l6 -61 -84 3 -84 3 -3 43 c-3 36 0 42 17 42 11 0 23 5 26 10 9
15 -13 77 -30 84 -17 6 -22 106 -6 106 5 0 24 -12 43 -27z m301 -12 c20 -8 25
-19 31 -63 9 -76 21 -280 21 -368 l0 -75 -43 -3 c-55 -4 -57 1 -71 203 -6 88
-14 190 -17 227 -3 37 -3 72 1 78 8 12 46 13 78 1z m338 -51 c18 8 55 11 98 8
86 -6 144 -42 177 -107 25 -51 44 -178 47 -326 l2 -100 -35 -3 c-19 -1 -41 2
-48 7 -14 9 -15 13 -32 211 -15 178 -23 201 -82 231 -43 22 -50 23 -100 8 -50
-13 -72 -55 -64 -118 3 -25 8 -91 12 -146 3 -55 8 -103 11 -108 2 -4 1 -16 -2
-27 -5 -15 -15 -20 -44 -20 -21 0 -44 6 -50 13 -11 14 -25 153 -36 357 -3 58
-8 113 -11 123 -10 32 35 38 84 10 38 -22 46 -24 73 -13z m2487 -82 c7 -6 12
-33 12 -62 0 -28 6 -73 14 -101 10 -41 16 -49 32 -46 10 3 53 5 94 4 67 0 80
-4 120 -31 74 -50 120 -131 135 -238 8 -62 -8 -155 -32 -189 -43 -58 -126 -69
-235 -31 -41 14 -71 20 -80 15 -20 -13 -54 -11 -67 5 -7 8 -26 135 -42 283
-17 147 -34 297 -38 333 -5 44 -4 67 3 72 13 9 66 0 84 -14z m-898 -93 c35
-18 131 -111 128 -123 -1 -4 5 -21 14 -38 32 -58 41 -118 29 -176 -31 -142
-133 -191 -294 -144 -147 44 -241 227 -198 384 13 47 67 108 103 116 48 10
184 -2 218 -19z m565 -64 c98 -43 175 -159 183 -276 5 -82 -29 -161 -84 -196
-83 -51 -248 -18 -320 64 -86 98 -117 235 -75 328 22 49 39 67 86 93 38 21
149 14 210 -13z m1318 -142 c54 -15 150 -108 145 -140 -2 -17 -10 -25 -29 -27
-20 -2 -38 9 -81 52 -44 44 -62 56 -87 56 -29 0 -91 -24 -91 -35 0 -21 38 -76
59 -84 14 -5 60 -22 101 -38 99 -37 155 -90 165 -154 12 -84 -37 -129 -140
-129 -110 0 -191 38 -239 111 -37 56 -35 79 8 79 27 0 39 -6 52 -27 33 -55 80
-84 142 -90 54 -5 58 -4 72 22 13 24 12 30 -5 63 -16 28 -31 39 -75 54 -55 18
-76 27 -138 57 -100 49 -128 171 -51 225 27 19 133 22 192 5z m512 -62 c11 -5
39 -25 62 -44 51 -41 62 -72 84 -243 10 -77 26 -147 44 -192 6 -16 1 -18 -36
-18 -25 0 -50 7 -60 16 -15 14 -23 14 -55 4 -54 -18 -149 -6 -195 25 -118 78
-128 212 -19 256 36 15 61 17 126 12 53 -4 84 -2 88 5 10 16 -29 82 -61 103
-41 28 -98 25 -129 -6 -47 -47 -114 -39 -114 13 0 25 46 71 78 78 15 3 32 7
37 9 17 6 129 -7 150 -18z m725 -92 c19 -17 32 -17 87 0 30 10 58 -22 67 -74
37 -235 65 -457 60 -479 -15 -59 -33 -80 -89 -101 -45 -17 -63 -19 -105 -11
-88 17 -180 74 -180 112 0 32 29 32 91 -2 51 -27 69 -31 106 -27 59 6 85 31
81 76 l-3 36 -66 -3 c-91 -5 -140 11 -193 61 -83 79 -117 185 -102 311 6 47
14 63 43 93 36 35 36 35 110 31 51 -4 79 -10 93 -23z m508 -46 c110 -23 160
-105 186 -304 8 -60 21 -126 30 -146 8 -20 12 -39 9 -43 -13 -13 -62 -5 -84
13 -21 17 -25 17 -61 3 -32 -13 -49 -13 -107 -3 -87 16 -132 51 -160 125 -28
75 -16 115 44 150 41 24 49 26 128 20 46 -4 87 -3 90 2 10 17 -28 78 -62 101
-49 33 -96 30 -129 -7 -41 -47 -102 -37 -102 16 0 13 15 35 35 53 30 26 44 31
85 31 27 0 71 -5 98 -11z m304 -61 c13 -18 39 -67 58 -108 18 -41 48 -104 66
-140 l33 -64 15 34 c7 19 19 82 26 140 14 126 21 142 58 134 49 -11 53 -13 48
-36 -2 -13 -10 -57 -16 -98 -6 -41 -18 -106 -25 -145 -8 -38 -21 -113 -30
-165 -20 -117 -46 -173 -90 -194 -58 -28 -120 -2 -113 46 2 18 10 24 35 26 50
5 75 44 69 106 -2 27 -13 61 -23 75 -11 14 -25 42 -33 61 -7 19 -19 42 -25 50
-7 8 -17 30 -23 48 -6 18 -18 40 -27 48 -8 8 -18 27 -21 42 -4 15 -24 57 -45
94 -20 36 -35 69 -31 72 3 3 20 6 37 6 25 0 38 -8 57 -32z m673 -79 c61 -43
71 -63 97 -192 11 -56 28 -133 39 -172 10 -38 19 -76 19 -82 0 -20 -49 -15
-81 8 -20 14 -34 18 -42 11 -25 -19 -92 -22 -150 -5 -140 39 -192 215 -80 268
25 12 56 16 116 14 93 -4 99 2 66 60 -40 72 -138 93 -169 37 -13 -26 -48 -40
-73 -30 -25 9 -30 53 -10 78 38 44 45 47 133 44 80 -3 89 -5 135 -39z m-6721
-440 c24 -19 30 -20 57 -9 18 8 58 11 108 8 124 -7 190 -60 239 -190 16 -45
20 -74 18 -145 -3 -98 -15 -130 -69 -182 -32 -30 -41 -33 -99 -34 -37 -1 -85
6 -116 17 -29 10 -58 16 -65 13 -9 -3 -11 -27 -7 -83 3 -44 1 -91 -3 -106 -14
-45 -88 -46 -101 -1 -5 19 -13 120 -21 278 -3 55 -8 116 -10 135 -2 19 -7 99
-11 178 l-6 142 30 0 c16 0 41 -9 56 -21z m887 -91 c64 -37 106 -83 140 -153
24 -50 29 -72 29 -137 0 -42 -4 -80 -10 -83 -5 -3 -10 -14 -10 -25 0 -10 -19
-39 -42 -65 -42 -46 -44 -46 -118 -52 -105 -8 -172 13 -239 73 -51 46 -68 72
-96 153 -16 48 -21 166 -6 176 5 3 12 18 16 34 7 31 43 69 90 95 23 13 50 16
116 13 71 -2 93 -8 130 -29z m604 -55 c73 -39 175 -172 174 -228 0 -11 0 -40
1 -65 8 -167 -136 -271 -296 -215 -134 46 -198 127 -225 278 -10 60 -9 74 6
115 24 62 62 112 100 129 46 21 189 12 240 -14z m361 -38 c6 -9 17 -75 23
-148 7 -72 16 -159 21 -192 5 -33 12 -110 16 -172 8 -127 0 -157 -47 -192 -24
-18 -37 -21 -74 -15 -54 8 -74 21 -77 54 -3 21 2 26 29 30 50 8 75 34 69 73
-3 17 -8 73 -12 122 -3 50 -7 104 -9 120 -19 159 -29 290 -26 334 1 18 72 7
87 -14z m433 -26 c68 -14 134 -73 155 -137 8 -26 22 -111 30 -190 9 -79 21
-152 26 -162 6 -10 10 -26 10 -34 0 -23 -68 -21 -103 3 -25 16 -32 17 -65 5
-73 -26 -169 -12 -227 32 -47 36 -89 117 -81 159 9 45 39 81 88 105 35 17 54
18 134 13 79 -5 94 -4 99 10 9 23 -31 95 -63 110 -68 35 -109 28 -161 -28 -27
-29 -57 -32 -83 -8 -22 20 -23 36 -2 69 38 57 130 78 243 53z m1719 -66 c6 -9
12 -29 12 -45 0 -35 32 -68 65 -68 14 0 29 -8 35 -21 18 -32 5 -49 -36 -49
l-37 0 6 -87 c3 -49 8 -97 10 -108 3 -11 8 -42 12 -70 10 -73 28 -101 69 -109
47 -9 64 -56 27 -75 -24 -13 -113 9 -141 34 -26 23 -46 95 -61 210 -24 191
-25 197 -44 211 -10 8 -29 14 -42 14 -22 0 -43 26 -43 54 0 10 13 16 43 18
l42 3 1 45 c3 76 1 73 37 66 17 -3 38 -14 45 -23z m-1089 -7 c14 -17 14 -16
51 -341 23 -208 27 -268 19 -302 -15 -58 -46 -77 -115 -70 -67 7 -74 11 -74
48 0 23 4 29 20 29 12 0 32 8 47 17 26 17 26 17 19 118 -3 55 -8 111 -11 125
-6 36 -24 211 -32 308 l-6 82 35 0 c20 0 41 -6 47 -14z m421 -31 c81 -15 162
-81 207 -168 38 -75 42 -195 8 -263 -32 -65 -75 -94 -147 -95 -89 -2 -154 19
-210 70 -85 76 -127 187 -113 296 8 64 36 109 90 146 41 28 72 30 165 14z
m1148 -115 c81 -22 166 -134 178 -234 8 -65 3 -67 -97 -56 -41 5 -109 11 -151
14 l-78 6 0 -27 c0 -32 59 -106 102 -127 42 -22 96 -20 136 4 18 11 41 20 51
20 24 0 53 -33 45 -53 -10 -28 -71 -58 -126 -64 -56 -6 -161 18 -175 40 -5 7
-25 24 -45 40 -48 36 -95 132 -103 214 -11 105 27 184 110 227 30 16 85 14
153 -4z m412 -44 c71 -1 75 -2 84 -27 15 -42 2 -59 -44 -59 -48 0 -80 -27 -80
-67 0 -16 5 -57 10 -93 42 -278 44 -255 -21 -248 -38 4 -41 12 -58 138 -7 47
-20 146 -31 219 -10 74 -16 139 -13 144 3 5 22 6 42 2 20 -5 70 -8 111 -9z
m237 -28 c11 -14 28 -85 38 -153 38 -266 45 -327 40 -335 -9 -14 -58 -12 -77
3 -9 6 -18 35 -22 62 -3 28 -17 124 -31 215 -33 221 -33 220 9 220 18 0 38 -6
43 -12z m-5143 -537 c24 -9 24 -10 39 -221 7 -96 16 -181 20 -187 13 -21 34
-15 57 17 12 17 27 30 34 30 7 0 22 13 34 29 51 69 111 95 172 76 29 -9 13
-34 -82 -129 -43 -43 -78 -86 -78 -95 0 -9 29 -50 65 -91 35 -41 64 -80 65
-87 0 -7 6 -16 13 -20 6 -4 34 -34 61 -66 55 -66 52 -78 -18 -70 -53 6 -55 8
-216 207 -43 52 -71 61 -90 26 -12 -23 -15 -103 -5 -148 9 -44 -8 -62 -56 -62
-32 0 -41 4 -48 23 -10 27 -20 126 -26 262 -3 55 -9 165 -15 245 -5 80 -10
173 -10 208 l0 62 33 -1 c17 0 41 -4 51 -8z m2259 -201 c5 -4 13 -43 18 -86 5
-44 14 -96 21 -116 11 -37 30 -49 43 -28 3 6 40 10 81 10 63 0 83 -4 119 -25
102 -60 168 -213 148 -345 l-8 -55 -55 0 c-49 0 -55 2 -52 20 2 11 6 50 9 87
5 59 2 73 -25 131 -34 70 -62 95 -125 106 -33 5 -49 3 -75 -12 -50 -29 -56
-48 -43 -136 6 -42 13 -97 16 -123 4 -27 10 -48 16 -48 5 0 9 -7 9 -15 0 -13
-11 -15 -62 -13 l-63 3 -7 60 c-3 33 -9 87 -12 120 -36 359 -45 468 -40 477 7
11 73 2 87 -12z m600 -61 c10 -13 17 -38 17 -64 0 -55 17 -146 30 -159 7 -7
17 -6 30 2 11 7 54 12 99 12 74 0 81 -2 119 -32 37 -30 102 -142 89 -154 -3
-3 -1 -22 4 -42 5 -20 11 -63 15 -94 l6 -58 -50 0 -49 0 -18 116 c-20 131 -37
163 -104 182 -33 10 -46 10 -80 -4 -58 -23 -58 -26 -38 -264 2 -23 -2 -25 -42
-28 -24 -2 -47 0 -51 5 -8 8 -21 99 -40 293 -6 58 -16 146 -22 197 -6 51 -8
100 -4 109 9 22 65 12 89 -17z m-2043 -40 c62 -28 87 -54 125 -129 26 -52 32
-76 31 -120 l-1 -55 -45 1 c-25 0 -109 4 -187 9 l-143 8 0 -30 c0 -20 12 -45
33 -70 49 -61 75 -76 134 -81 45 -4 64 0 107 22 56 28 74 28 94 -4 10 -16 10
-24 0 -40 -7 -11 -18 -20 -25 -20 -7 0 -16 -7 -21 -16 -20 -36 -244 -26 -293
13 -109 86 -149 163 -148 281 0 109 31 176 104 229 42 31 169 32 235 2z m349
-19 c24 -12 27 -33 46 -262 8 -106 17 -210 20 -231 l5 -38 -57 3 -58 3 -12
135 c-6 74 -15 195 -19 268 l-7 132 32 0 c18 0 40 -4 50 -10z m271 -40 c13
-24 42 -26 75 -4 19 12 42 15 95 12 91 -5 143 -39 183 -119 23 -46 30 -77 38
-175 6 -65 12 -138 14 -161 l4 -43 -53 0 -54 0 -6 88 c-10 131 -26 241 -38
268 -16 34 -68 64 -111 64 -45 0 -96 -28 -104 -58 -5 -23 0 -152 13 -294 l6
-68 -55 0 -55 0 -6 83 c-4 45 -11 125 -16 177 -5 52 -12 130 -15 173 l-7 77
41 0 c30 0 43 -5 51 -20z m2203 -170 c61 -28 91 -57 128 -125 24 -45 32 -73
33 -113 l1 -55 -95 4 c-200 7 -245 5 -245 -11 0 -12 -13 -15 -55 -15 -61 0
-61 -1 -63 95 -3 107 20 163 87 211 33 25 48 29 103 29 43 0 78 -7 106 -20z
m570 -58 c21 -14 49 -38 62 -54 34 -40 74 -128 77 -168 l3 -35 -220 -3 c-248
-3 -245 -4 -245 73 0 99 54 194 124 214 53 16 156 2 199 -27z m439 -14 c32 -7
58 -16 58 -20 0 -11 38 -10 60 2 10 5 32 7 48 4 29 -6 30 -9 46 -94 9 -48 16
-100 16 -114 0 -24 -3 -26 -49 -26 l-49 0 -7 47 c-5 36 -16 56 -45 85 -34 35
-42 38 -92 38 -57 0 -67 -6 -95 -57 -7 -13 -13 -43 -13 -68 l0 -45 -45 0 c-55
0 -60 8 -50 95 8 75 33 119 85 146 41 22 55 23 132 7z m1927 -47 c10 -10 22
-37 26 -60 6 -37 10 -42 46 -51 37 -10 59 -37 59 -70 0 -4 -35 -11 -79 -15
-63 -5 -85 -4 -110 9 -17 9 -34 16 -38 16 -28 0 -43 14 -43 41 0 24 4 29 24
29 46 0 54 8 49 50 -3 22 -3 46 0 55 9 21 43 19 66 -4z m-1264 -14 c11 -9 21
-34 26 -68 4 -30 11 -69 15 -86 l7 -33 -50 0 -50 0 -11 83 c-17 116 -17 117
16 117 16 0 36 -6 47 -13z m481 -63 c51 -34 84 -79 84 -114 0 -5 -20 -10 -45
-10 -25 0 -45 4 -45 10 0 16 -43 61 -74 77 -40 21 -91 9 -118 -27 -38 -52
-115 -36 -101 21 8 31 21 48 58 71 25 16 44 19 108 15 70 -3 82 -7 133 -43z
m480 -17 c44 -24 107 -84 99 -96 -10 -17 -95 -14 -101 3 -3 8 -24 22 -46 31
-53 21 -106 11 -118 -21 -8 -20 -16 -24 -55 -24 -43 0 -45 2 -45 28 1 31 18
58 57 84 23 16 41 19 104 15 42 -3 89 -12 105 -20z"/>
<path d="M6613 9773 c-20 -4 -23 -11 -23 -51 l0 -47 85 0 85 0 0 46 c0 40 -3
48 -22 53 -25 6 -90 6 -125 -1z"/>
<path d="M730 8223 c-18 -7 -34 -32 -36 -56 -2 -22 53 -76 84 -84 41 -10 106
4 124 27 26 32 23 85 -4 104 -22 16 -134 21 -168 9z"/>
<path d="M2590 8107 c-14 -6 -28 -16 -32 -22 -10 -13 -4 -105 12 -182 11 -53
17 -65 49 -87 20 -14 54 -28 77 -32 34 -5 45 -2 69 18 24 21 29 34 33 84 5 70
-30 172 -65 189 -11 6 -27 16 -34 22 -21 17 -81 22 -109 10z"/>
<path d="M3128 7850 c-46 -28 -42 -76 9 -114 31 -23 103 -32 132 -17 43 24 50
100 10 121 -28 16 -132 22 -151 10z"/>
<path d="M4012 7697 c-26 -28 -27 -45 -4 -72 50 -60 124 -74 167 -31 20 20 24
31 18 58 -9 46 -43 65 -119 67 -30 1 -46 -5 -62 -22z"/>
<path d="M312 7193 c-61 -30 -60 -79 4 -122 64 -44 165 -25 180 34 8 34 -3 73
-24 83 -37 19 -126 22 -160 5z"/>
<path d="M848 7110 c-38 -29 -35 -55 11 -101 32 -33 45 -39 80 -39 47 0 95 21
105 45 3 9 6 32 6 51 0 41 -22 53 -115 60 -50 4 -64 1 -87 -16z"/>
<path d="M1849 7140 c-36 -36 -36 -70 1 -81 48 -14 166 -31 185 -28 32 7 28
35 -10 78 -59 65 -130 78 -176 31z"/>
<path d="M2620 6850 c-28 -28 -25 -45 14 -88 31 -33 40 -37 83 -37 30 0 59 7
76 18 24 16 28 24 25 60 -4 52 -28 67 -115 67 -50 0 -67 -4 -83 -20z"/>
<path d="M3143 6781 c-30 -28 -29 -52 3 -90 69 -83 212 -42 188 54 -9 37 -26
46 -101 52 -60 4 -71 3 -90 -16z"/>
<path d="M6692 5427 c-30 -13 -47 -54 -45 -106 3 -79 22 -127 70 -176 41 -41
49 -45 92 -45 79 0 111 50 96 148 -12 79 -53 140 -116 172 -38 20 -64 22 -97
7z"/>
<path d="M1523 4920 c-52 -47 -56 -167 -9 -255 31 -58 66 -83 129 -91 38 -5
51 -3 77 16 l32 23 -6 90 c-4 49 -11 111 -17 137 -9 43 -16 52 -54 74 -54 32
-122 35 -152 6z"/>
<path d="M3307 4740 c-51 -15 -57 -27 -57 -105 0 -122 14 -175 56 -212 42 -37
90 -50 137 -36 26 7 35 17 50 58 52 149 -62 331 -186 295z"/>
<path d="M2128 4862 c-44 -27 -62 -80 -54 -162 5 -53 13 -79 34 -109 97 -137
262 -104 262 53 0 155 -139 280 -242 218z"/>
<path d="M2748 4815 c-3 -4 -12 -7 -20 -9 -25 -4 -45 -21 -63 -55 -14 -27 -16
-48 -10 -105 11 -117 71 -189 168 -202 42 -6 51 -4 73 17 53 50 66 109 42 193
-15 52 -64 119 -103 140 -37 19 -79 29 -87 21z"/>
<path d="M4571 4393 c-38 -31 -36 -76 4 -112 44 -39 85 -47 129 -26 34 16 46
38 46 86 0 44 -20 59 -90 65 -55 5 -69 3 -89 -13z"/>
<path d="M5320 4507 c-74 -37 -79 -169 -9 -272 45 -67 100 -89 163 -65 44 17
49 41 31 153 -19 118 -42 159 -98 182 -45 18 -55 18 -87 2z"/>
<path d="M5848 4252 c-65 -40 -7 -142 81 -142 54 0 76 12 88 47 14 42 2 85
-27 100 -35 18 -110 16 -142 -5z"/>
<path d="M6755 4145 c-29 -28 -30 -36 -10 -75 28 -54 98 -75 154 -45 35 18 43
36 35 84 -5 31 -12 40 -38 49 -56 20 -114 15 -141 -13z"/>
<path d="M251 3839 l-34 -20 5 -124 c6 -137 17 -168 67 -202 37 -25 116 -32
151 -13 60 32 75 195 28 286 -16 30 -41 61 -61 73 -45 27 -111 28 -156 0z"/>
<path d="M883 3788 c-51 -31 -67 -75 -60 -164 10 -127 69 -202 167 -212 69 -6
96 10 127 76 22 46 25 62 19 110 -17 145 -157 250 -253 190z"/>
<path d="M1503 3733 c-21 -11 -41 -33 -54 -60 -19 -40 -20 -50 -10 -124 12
-88 28 -119 87 -164 29 -22 48 -28 89 -29 62 -1 88 17 117 82 17 38 18 51 8
114 -7 49 -18 80 -35 100 -14 16 -25 33 -25 37 0 13 -96 61 -121 60 -13 0 -39
-8 -56 -16z"/>
<path d="M2352 3435 c-44 -37 -42 -67 7 -116 33 -33 45 -39 81 -39 31 0 53 7
77 26 29 22 33 30 33 73 0 27 -6 53 -12 59 -7 6 -45 13 -83 17 -67 7 -73 6
-103 -20z"/>
<path d="M3418 3544 c-16 -9 -33 -31 -43 -58 -15 -38 -15 -54 -6 -117 19 -119
82 -189 170 -189 56 0 77 13 101 60 37 72 19 189 -39 253 -57 64 -123 82 -183
51z"/>
<path d="M4552 3433 c-13 -9 -30 -32 -38 -52 -13 -32 -13 -37 1 -47 8 -6 56
-15 107 -19 50 -4 97 -9 104 -12 19 -7 18 30 -1 67 -20 39 -82 80 -120 79 -16
0 -40 -7 -53 -16z"/>
<path d="M823 2519 c-39 -25 -71 -85 -55 -101 11 -11 240 -39 255 -31 18 11 5
64 -24 98 -18 20 -34 33 -37 31 -2 -3 -11 1 -19 9 -21 21 -83 18 -120 -6z"/>
<path d="M3674 2300 c-32 -21 -64 -95 -47 -110 11 -12 233 -27 239 -18 8 13
-17 82 -35 96 -59 47 -116 58 -157 32z"/>
<path d="M4208 2247 c-35 -30 -48 -91 -21 -105 21 -12 208 -20 218 -10 21 21
-28 94 -83 126 -34 19 -84 15 -114 -11z"/>
<path d="M7165 8050 c-16 -11 -37 -24 -45 -30 -117 -81 -262 -180 -264 -180
-2 0 -47 -29 -100 -65 -54 -36 -112 -72 -130 -80 -18 -9 -42 -24 -53 -34 -11
-11 -29 -21 -39 -23 -33 -6 -28 -46 17 -137 24 -47 51 -98 61 -112 9 -14 15
-29 12 -32 -15 -15 47 -17 101 -3 238 60 269 66 275 56 4 -6 15 -47 24 -91 9
-43 21 -79 26 -79 6 0 10 -8 10 -19 0 -15 -10 -19 -57 -24 -32 -4 -80 -14
-108 -23 -27 -8 -55 -17 -61 -19 -14 -4 1 -95 22 -136 11 -21 19 -26 36 -21
30 7 88 42 88 51 0 5 30 23 68 41 37 17 78 39 92 47 14 8 33 17 43 20 16 5 17
26 17 264 0 219 -2 259 -14 259 -8 0 -18 -4 -21 -10 -11 -18 -22 -11 -36 23
-7 17 -30 61 -51 96 -21 34 -38 67 -38 72 0 15 39 49 56 49 9 0 36 10 60 22
l44 22 0 58 c0 32 -1 58 -2 57 -2 0 -16 -9 -33 -19z"/>
<path d="M1045 6420 c-3 -5 -1 -47 4 -92 8 -66 36 -414 44 -548 2 -33 13 -40
66 -40 l44 0 -6 83 c-4 45 -9 126 -13 179 l-7 97 34 20 c63 39 143 20 173 -40
21 -42 23 -57 42 -276 4 -52 12 -87 21 -95 17 -14 70 -15 82 -2 4 5 4 50 0 99
-22 276 -18 256 -57 311 -52 75 -85 89 -204 89 -76 0 -99 3 -103 15 -3 8 -9
50 -12 95 -7 104 -14 115 -63 115 -21 0 -42 -4 -45 -10z"/>
<path d="M3015 6170 c-5 -8 9 -188 20 -250 3 -14 10 -74 15 -135 6 -60 13
-117 15 -125 3 -8 7 -44 10 -80 4 -36 10 -69 15 -74 5 -5 26 -9 47 -10 l38 -1
0 90 c0 79 2 90 18 93 23 5 45 -15 112 -98 95 -119 109 -130 153 -130 23 0 43
4 46 8 3 5 -11 24 -30 43 -20 19 -51 56 -71 82 -19 26 -47 60 -62 76 -54 59
-71 79 -71 88 0 5 35 44 77 87 71 74 75 80 58 92 -24 17 -91 18 -102 2 -5 -7
-36 -40 -71 -73 -43 -42 -65 -56 -72 -49 -13 13 -44 212 -48 306 -1 24 -8 40
-19 46 -31 16 -72 22 -78 12z"/>
<path d="M1663 6121 c-30 -22 -43 -38 -43 -55 0 -25 23 -56 41 -56 17 0 69 30
69 39 0 5 14 14 31 20 69 24 169 -33 169 -95 0 -33 -18 -38 -105 -27 -60 7
-83 6 -117 -7 -48 -17 -88 -68 -88 -109 1 -62 60 -141 125 -165 53 -20 128
-25 168 -11 37 13 42 12 65 -6 26 -20 102 -27 102 -8 0 6 -4 18 -10 28 -5 10
-16 81 -25 157 -21 195 -22 197 -58 237 -50 55 -102 77 -198 83 -82 6 -85 5
-126 -25z m265 -257 c42 -29 22 -115 -31 -134 -67 -23 -129 -4 -161 50 -24 41
-20 67 12 84 37 21 151 21 180 0z"/>
<path d="M2156 6091 c-9 -14 32 -452 45 -472 4 -6 24 -12 45 -13 l39 -1 -1 55
c0 30 -4 112 -9 181 -5 86 -5 128 3 133 6 3 38 9 71 12 58 7 61 8 61 33 0 42
-17 51 -93 51 -37 0 -76 4 -85 9 -29 14 -71 21 -76 12z"/>
<path d="M2555 6017 c-76 -43 -106 -127 -86 -234 10 -49 46 -119 78 -151 7 -7
13 -16 13 -20 0 -16 90 -61 145 -72 88 -18 151 -8 192 31 92 90 76 244 -38
374 -43 48 -119 82 -200 88 -55 5 -72 2 -104 -16z m200 -82 c58 -43 87 -98 92
-172 6 -82 -6 -117 -48 -142 -57 -35 -133 -10 -184 60 -40 54 -59 133 -46 191
11 47 17 56 55 79 38 23 87 17 131 -16z"/>
<path d="M3585 5882 c-51 -33 -68 -57 -56 -80 6 -12 20 -23 30 -27 22 -7 70
14 90 39 16 19 62 21 107 4 22 -8 38 -24 53 -55 12 -24 19 -49 15 -54 -3 -6
-48 -9 -103 -7 -116 2 -157 -14 -176 -72 -33 -97 59 -206 181 -217 33 -3 75
-1 94 4 29 8 42 6 70 -8 63 -34 106 -18 81 30 -12 22 -41 170 -41 213 -1 148
-86 235 -237 245 -65 4 -83 1 -108 -15z m240 -255 c12 -10 18 -28 19 -57 1
-39 -3 -46 -34 -68 -47 -32 -101 -26 -143 17 -64 63 -26 121 79 121 35 0 68
-6 79 -13z"/>
<path d="M4267 5813 c-3 -5 1 -42 8 -83 7 -41 16 -100 19 -130 15 -134 29
-226 37 -242 11 -21 78 -25 80 -5 2 20 -5 91 -23 241 l-11 98 24 20 c46 36
140 1 175 -66 11 -19 33 -140 49 -271 8 -62 19 -75 61 -75 41 0 40 -5 18 162
-12 92 -13 123 -3 134 9 11 8 14 -3 14 -9 0 -30 16 -49 35 -23 23 -43 35 -61
35 -20 0 -28 5 -28 17 0 10 -19 37 -42 60 -43 44 -90 57 -115 32 -8 -8 -24 -5
-56 10 -48 22 -73 26 -80 14z"/>
<path d="M5447 5483 c-9 -10 -36 -25 -60 -35 -36 -14 -38 -17 -16 -17 34 -1
48 -18 51 -65 3 -51 -26 -76 -91 -76 -39 0 -53 5 -78 31 -18 16 -33 40 -35 52
-2 18 -8 21 -33 19 -51 -6 -60 -23 -37 -69 41 -80 146 -127 239 -106 38 9 53
8 75 -3 27 -14 80 -19 90 -8 3 3 -3 27 -13 55 -11 27 -24 92 -31 144 -13 101
-24 115 -61 78z"/>
<path d="M4916 5444 c-6 -15 7 -111 20 -156 6 -19 70 -36 84 -22 11 12 -10
175 -22 168 -5 -3 -20 1 -33 10 -31 20 -41 20 -49 0z"/>
</g>
</svg>
