<?xml version="1.0" standalone="no"?>
<!DOCTYPE svg PUBLIC "-//W3C//DTD SVG 20010904//EN"
 "http://www.w3.org/TR/2001/REC-SVG-20010904/DTD/svg10.dtd">
<svg version="1.0" xmlns="http://www.w3.org/2000/svg"
 width="720.000000pt" height="1280.000000pt" viewBox="0 0 720.000000 1280.000000"
 preserveAspectRatio="xMidYMid meet">
<metadata>
Created by potrace 1.16, written by Peter Selinger 2001-2019
</metadata>
<g transform="translate(0.000000,1280.000000) scale(0.100000,-0.100000)"
fill="#000000" stroke="none">
<path d="M0 6400 l0 -6400 3600 0 3600 0 0 1025 0 1024 -3432 3 c-3244 3
-3435 4 -3463 20 -16 10 -42 18 -56 18 -14 0 -34 7 -45 15 -10 8 -29 15 -41
15 -13 0 -23 5 -23 10 0 6 -9 10 -20 10 -20 0 -50 45 -50 74 0 9 -6 13 -15 10
-10 -4 -15 -26 -17 -77 -2 -40 -7 144 -12 408 -9 508 -1 3790 10 3863 4 23 12
42 19 42 17 0 25 33 25 103 0 42 4 57 14 57 8 0 16 7 20 15 3 8 2 15 -3 15 -4
0 -8 14 -9 30 -1 33 -22 60 -46 60 -9 0 -16 7 -16 15 0 9 9 15 25 15 18 0 25
-5 25 -20 0 -15 5 -19 22 -16 13 3 28 5 33 5 16 1 38 88 32 126 -5 29 -3 34
16 37 19 3 22 10 25 55 3 56 11 63 77 67 30 1 34 16 5 16 -13 0 -20 7 -20 20
0 15 7 20 24 20 24 0 24 2 19 56 -6 60 1 74 45 74 15 0 22 6 22 21 0 11 4 17
10 14 6 -3 10 -15 10 -26 0 -10 2 -19 5 -19 12 0 65 62 65 75 0 8 9 15 20 15
11 0 20 6 20 14 0 8 3 22 6 31 5 11 0 18 -15 22 -21 5 -30 23 -11 23 6 0 10
11 10 25 0 28 18 66 38 78 6 4 12 15 12 22 0 9 10 15 25 15 16 0 25 6 25 15 0
8 4 15 9 15 5 0 24 26 41 58 46 81 70 94 70 40 l0 -33 21 33 c14 21 29 32 45
32 17 0 24 6 24 20 0 11 4 20 10 20 17 0 34 44 31 83 -1 20 3 37 8 37 6 0 13
11 17 25 4 16 13 25 25 25 13 0 19 7 19 23 0 12 12 35 26 51 20 21 23 30 14
36 -9 6 -7 15 11 39 12 17 26 31 31 31 4 0 8 20 8 45 0 37 3 45 18 45 13 0 21
13 30 45 7 25 16 45 22 45 5 0 10 7 10 15 0 8 4 15 9 15 5 0 12 18 16 40 4 23
19 53 36 71 16 17 29 35 29 40 0 5 9 9 20 9 13 0 20 7 20 20 0 20 15 25 68 20
16 -1 22 4 22 19 0 14 6 21 20 21 17 0 20 7 20 39 0 22 5 43 10 46 6 3 10 22
10 41 0 24 5 34 15 34 8 0 15 6 15 13 0 7 23 21 50 32 41 16 50 24 50 43 0 15
7 26 19 29 11 3 22 14 24 25 4 13 11 19 21 15 8 -3 17 1 20 10 5 11 16 14 41
11 42 -5 44 -1 8 14 l-28 12 32 4 c21 2 30 8 27 16 -7 18 13 66 28 66 7 0 21
11 31 24 12 16 25 22 37 19 14 -4 22 2 30 21 10 27 35 35 43 14 5 -16 37 8 37
28 0 7 9 16 20 19 26 8 25 21 -2 30 -17 6 -1 10 57 18 43 5 85 16 93 23 7 8
19 14 25 14 8 0 9 3 1 8 -6 4 -13 15 -17 25 -6 15 2 17 71 19 42 2 -416 5
-1018 8 -602 3 522 6 2498 8 l3592 2 0 1775 0 1775 -3600 0 -3600 0 0 -6400z
m6782 3684 c50 -17 112 -73 138 -125 44 -85 32 -202 -29 -284 -25 -34 -27 -41
-14 -50 14 -10 14 -14 -2 -38 -22 -35 -88 -46 -136 -23 -29 13 -43 14 -94 4
-106 -20 -142 -17 -169 17 -22 27 -22 31 -7 41 15 11 14 14 -6 36 -38 40 -63
108 -63 172 0 78 16 128 58 176 77 90 199 118 324 74z m-639 0 c52 -18 116
-76 142 -130 22 -47 30 -130 16 -180 -32 -119 -134 -194 -265 -194 -165 0
-272 106 -270 266 2 153 105 252 265 253 36 1 86 -6 112 -15z m-5839 -91 c10
-34 76 -315 76 -324 0 -5 -16 -9 -35 -9 -30 0 -35 3 -35 24 0 31 -13 39 -59
39 -31 0 -36 -3 -43 -31 -8 -28 -13 -32 -42 -32 l-34 0 14 58 c7 31 25 110 40
175 l28 117 42 0 c32 0 44 -4 48 -17z m406 -75 l1 -93 30 38 c23 27 39 37 60
37 16 0 29 -3 29 -6 0 -4 -16 -28 -35 -54 l-34 -47 28 -45 c56 -89 56 -88 17
-88 -30 0 -38 5 -57 40 -26 45 -39 43 -39 -6 0 -31 -2 -34 -30 -34 l-30 0 0
175 0 175 30 0 30 0 0 -92z m1740 -83 l0 -176 -42 1 c-24 1 -55 -1 -69 -5 -19
-5 -33 -1 -55 18 -27 24 -29 29 -29 106 0 69 3 84 21 102 23 22 55 28 92 15
21 -7 22 -5 22 53 l0 61 30 0 30 0 0 -175z m452 83 l3 -92 25 37 c20 30 31 37
58 37 30 0 42 -12 24 -24 -5 -3 -21 -23 -36 -44 l-27 -40 41 -66 41 -67 -38 3
c-32 3 -41 9 -58 40 -26 49 -35 48 -35 -2 0 -39 -1 -40 -35 -40 l-35 0 0 175
0 175 35 0 34 0 3 -92z m728 28 l0 -65 35 15 c28 11 40 12 58 3 34 -18 37 -27
37 -136 l0 -103 -30 0 -30 0 0 90 c0 75 -3 92 -16 97 -37 14 -49 -10 -52 -101
l-3 -86 -29 0 -30 0 0 175 0 175 30 0 30 0 0 -64z m530 3 c0 -58 1 -60 23 -53
76 26 107 -8 107 -118 0 -71 -2 -81 -26 -105 -20 -20 -31 -24 -52 -18 -15 4
-46 6 -69 5 l-43 -1 0 176 0 175 30 0 30 0 0 -61z m-1480 -9 c0 -38 2 -40 30
-40 25 0 30 -4 30 -25 0 -21 -5 -25 -30 -25 l-31 0 3 -67 c3 -66 4 -68 31 -71
21 -3 27 -8 23 -19 -3 -8 -6 -19 -6 -24 0 -16 -73 -10 -92 8 -14 13 -18 31
-18 90 0 66 -2 75 -20 80 -13 3 -20 14 -20 29 0 17 6 24 20 24 17 0 20 7 20
40 0 38 2 40 30 40 28 0 30 -2 30 -40z m-2096 -61 c24 -23 34 -121 17 -172
-15 -44 -59 -66 -97 -48 -14 6 -27 11 -29 11 -3 0 -5 -29 -5 -65 l0 -65 -30 0
-30 0 0 181 0 182 38 -5 c20 -3 46 -2 57 3 26 10 55 2 79 -22z m405 20 c17 -6
36 -19 41 -29 6 -10 10 -62 10 -115 l0 -97 -32 3 c-18 1 -48 -1 -66 -5 -50
-12 -82 13 -82 64 0 44 20 64 83 81 28 7 37 15 35 27 -5 25 -45 27 -58 3 -13
-25 -48 -28 -57 -5 -8 21 28 67 58 75 35 10 33 10 68 -2z m287 1 c39 -15 53
-39 54 -87 l0 -43 -61 0 c-60 0 -60 0 -57 -27 3 -32 44 -46 54 -19 9 23 64 21
64 -2 0 -51 -67 -84 -124 -62 -45 17 -55 38 -56 116 0 78 20 119 63 127 12 2
25 5 29 6 4 0 19 -4 34 -9z m201 -1 c32 -12 43 -26 43 -56 0 -31 -45 -33 -53
-2 -7 24 -40 23 -45 -2 -2 -10 9 -21 30 -29 75 -30 98 -83 59 -131 -40 -50
-151 -22 -151 38 0 19 5 23 30 23 24 0 30 -4 30 -21 0 -15 5 -20 22 -17 42 6
33 36 -16 58 -76 32 -89 107 -23 135 39 17 39 17 74 4z m202 -4 c26 -13 46
-56 33 -70 -14 -14 -50 -3 -55 16 -4 13 -12 20 -24 17 -29 -5 -21 -32 15 -50
73 -36 92 -81 53 -129 -15 -19 -29 -24 -66 -24 -37 0 -51 5 -66 24 -29 36 -25
61 10 61 21 0 30 -6 34 -21 7 -25 40 -22 45 4 3 12 -9 23 -42 37 -74 31 -86
108 -22 136 40 17 51 17 85 -1z m200 4 c17 -6 36 -19 41 -29 6 -10 10 -62 10
-115 l0 -97 -32 3 c-18 1 -48 -1 -66 -5 -50 -12 -82 13 -82 64 0 44 20 64 83
81 28 7 37 15 35 27 -5 25 -45 27 -58 3 -11 -22 -44 -28 -55 -11 -12 20 8 59
38 74 38 19 45 19 86 5z m319 -22 c16 -15 22 -32 22 -64 l0 -43 -61 0 c-60 0
-60 0 -57 -27 3 -32 44 -46 54 -19 9 23 64 21 64 -2 0 -49 -66 -84 -121 -64
-50 20 -59 37 -59 121 0 68 3 80 23 98 12 11 29 23 37 26 25 9 73 -4 98 -26z
m1000 -3 c18 -21 22 -36 22 -98 0 -77 -15 -107 -61 -121 -31 -10 -84 3 -105
26 -23 26 -31 127 -13 170 24 60 111 73 157 23z m240 8 c8 -10 12 -52 12 -119
l0 -103 -30 0 -30 0 0 90 c0 75 -3 92 -17 97 -32 12 -53 -32 -53 -113 l0 -74
-30 0 -30 0 0 120 0 120 29 0 c16 0 31 -5 33 -11 2 -6 14 -5 33 5 33 17 63 13
83 -12z m530 -8 c15 -17 22 -38 22 -65 l0 -39 -61 0 c-60 0 -60 0 -57 -27 3
-32 44 -46 54 -19 4 10 18 16 35 16 22 0 29 -5 29 -20 0 -42 -64 -79 -115 -66
-52 13 -65 39 -65 124 0 69 3 81 23 99 12 11 29 23 37 26 28 11 75 -3 98 -29z
m539 12 c7 -6 13 -53 15 -116 l3 -105 -32 -3 -33 -3 0 91 c0 72 -3 92 -15 96
-33 13 -45 -15 -45 -102 l0 -84 -35 0 -35 0 0 120 0 120 35 0 c19 0 35 -4 35
-9 0 -6 12 -3 28 4 28 15 58 12 79 -9z m221 -12 c19 -22 22 -36 22 -120 l0
-95 -42 1 c-24 1 -54 -1 -68 -5 -34 -9 -80 27 -80 61 0 41 18 63 63 75 52 15
67 26 60 45 -8 21 -41 17 -55 -6 -12 -19 -48 -27 -60 -14 -15 14 11 60 43 77
43 22 86 16 117 -19z m391 25 c36 -13 61 -53 61 -99 l0 -30 -59 0 c-65 0 -73
-5 -64 -38 6 -26 53 -32 53 -7 0 11 11 15 36 15 32 0 35 -2 29 -22 -13 -43
-42 -63 -90 -63 -64 0 -87 27 -93 105 -5 75 11 118 52 136 38 16 36 16 75 3z
m204 -3 c15 -8 27 -11 27 -5 0 5 14 9 30 9 l30 0 0 -149 c0 -134 -2 -151 -20
-174 -41 -52 -147 -44 -170 13 -7 16 -9 34 -5 39 9 15 46 7 60 -12 27 -37 75
-10 75 43 0 17 -3 19 -19 10 -36 -19 -78 -12 -100 16 -16 21 -21 41 -21 88 0
85 8 106 44 122 39 17 36 17 69 0z m285 -22 c19 -22 22 -36 22 -120 l0 -95
-42 1 c-24 1 -54 -1 -68 -5 -35 -9 -80 27 -80 64 0 39 19 60 70 75 33 10 46
19 48 35 4 28 -31 29 -51 0 -22 -30 -63 -23 -59 11 10 70 109 91 160 34z
m-3048 -94 l0 -120 -35 0 -35 0 0 113 c0 63 3 117 7 120 3 4 19 7 35 7 l28 0
0 -120z m2280 63 c19 -91 25 -93 45 -14 17 70 18 71 50 71 l33 0 -52 -177 -51
-178 -33 -3 c-29 -3 -33 -1 -29 15 31 106 31 95 -2 207 -18 59 -35 114 -38
122 -4 10 4 14 29 14 34 0 35 -1 48 -57z"/>
<path d="M6613 9773 c-20 -4 -23 -11 -23 -51 l0 -47 85 0 85 0 0 46 c0 40 -3
48 -22 53 -25 6 -90 6 -125 -1z"/>
<path d="M1056 6920 c-3 -19 -14 -116 -25 -215 -11 -99 -23 -207 -27 -240 -10
-84 -11 -103 -24 -260 -6 -77 -13 -158 -15 -180 -25 -224 -37 -318 -45 -360
-14 -72 -71 -681 -75 -805 -2 -58 -8 -132 -13 -165 -6 -41 -6 -62 1 -67 6 -3
47 -9 91 -13 45 -3 140 -12 211 -20 72 -7 173 -17 226 -20 l97 -7 24 34 c14
18 33 56 43 83 10 28 23 57 30 65 21 27 65 137 65 164 0 15 -14 68 -31 119
-27 81 -31 105 -30 197 0 99 9 190 33 340 23 146 22 136 5 122 -9 -8 -21 -11
-27 -7 -21 13 -40 -23 -40 -74 0 -41 -7 -61 -35 -106 -20 -30 -40 -55 -45 -55
-6 0 -9 -3 -8 -7 4 -14 -21 -73 -31 -73 -5 0 -7 -13 -5 -29 4 -25 1 -30 -18
-33 -15 -2 -22 -9 -20 -20 2 -10 -2 -18 -7 -18 -5 0 -11 -10 -13 -22 -4 -27
-25 -35 -32 -11 -3 10 -4 2 -2 -18 3 -27 -2 -43 -20 -65 l-25 -29 18 30 18 30
-26 -17 c-15 -9 -36 -14 -48 -11 -12 3 -27 1 -34 -5 -6 -5 -31 -15 -55 -21
-52 -15 -108 -47 -116 -67 -4 -9 -13 -14 -21 -10 -10 3 -18 -1 -22 -11 -4 -10
-12 -24 -19 -33 -48 -58 -50 -57 -13 5 23 38 63 94 89 125 48 56 71 93 153
255 100 196 139 300 105 279 -7 -4 -8 -3 -4 5 4 6 11 9 16 6 14 -9 31 32 24
59 -4 17 0 28 15 38 12 8 34 39 50 68 l29 53 -36 25 c-47 32 -139 41 -149 14
-9 -23 -25 -33 -45 -26 -10 3 -18 0 -18 -6 0 -7 9 -14 20 -17 11 -3 20 -12 20
-19 0 -8 7 -14 15 -14 25 0 17 -17 -11 -24 -20 -5 -30 -2 -40 13 -21 29 -45
17 -30 -15 12 -28 52 -42 69 -25 13 13 37 15 37 2 0 -20 -33 -41 -64 -41 -41
0 -94 18 -125 41 l-23 19 28 10 c16 6 35 13 43 15 11 4 11 8 1 20 -10 12 -10
15 3 15 21 0 65 47 83 88 11 25 20 32 42 32 20 0 23 3 12 9 -8 6 -17 8 -21 5
-4 -2 -10 0 -14 5 -3 6 10 13 29 17 20 3 40 12 46 19 9 11 -4 15 -67 20 -43 4
-87 9 -98 13 -11 3 -26 5 -34 3 -24 -4 -81 9 -81 19 0 13 43 13 56 0 6 -6 15
-6 24 0 12 8 11 10 -6 10 -34 0 -39 29 -6 36 75 16 77 18 77 65 0 34 4 44 18
47 10 2 26 -3 35 -11 19 -17 162 -48 162 -35 0 4 26 8 58 8 46 1 53 3 38 11
-27 16 -61 53 -58 63 6 18 -23 36 -60 36 -42 0 -43 2 -52 68 -6 38 -4 43 19
54 14 6 25 19 25 29 0 10 5 21 10 24 18 11 -2 27 -26 21 -14 -4 -24 -2 -24 4
0 5 -3 9 -7 8 -5 -2 -9 1 -10 5 -1 4 -10 15 -19 24 -12 12 -14 27 -10 54 5 32
3 37 -15 42 -17 5 -20 11 -16 28 4 15 0 28 -14 40 -11 10 -21 29 -23 44 -2 15
-15 38 -29 51 -29 27 -33 39 -16 50 16 9 -9 24 -43 24 -15 0 -31 8 -37 17 -8
14 -10 11 -15 -17z"/>
<path d="M2408 6813 c6 -2 12 -9 12 -15 0 -6 14 -38 30 -72 17 -33 32 -70 34
-81 2 -11 7 -33 11 -48 6 -24 4 -29 -14 -34 -18 -5 -19 -7 -6 -17 8 -6 18 -26
21 -45 l7 -35 -36 23 c-41 25 -77 21 -77 -8 0 -23 40 -41 91 -41 55 0 66 -29
39 -108 -11 -33 -19 -83 -18 -120 0 -97 -28 -121 -156 -129 -44 -3 -92 -6
-106 -6 -24 -2 -40 -13 -40 -29 0 -4 27 -22 60 -40 74 -41 81 -74 34 -155 -19
-33 -22 -44 -12 -55 27 -28 18 -54 -46 -133 -35 -44 -62 -82 -59 -85 3 -3 37
29 76 71 49 52 78 75 90 72 9 -3 17 -8 17 -13 0 -4 8 -6 18 -3 12 3 31 -11 59
-41 23 -25 53 -48 67 -52 20 -5 26 -12 26 -33 0 -15 -5 -32 -12 -39 -20 -20
22 -15 44 5 19 17 20 16 39 -7 21 -28 24 -55 8 -65 -7 -5 -5 -13 5 -24 9 -10
13 -21 9 -24 -3 -4 -1 -7 6 -7 6 0 14 7 17 15 4 10 20 15 50 15 91 0 168 64
186 155 7 40 21 71 40 93 15 18 28 44 28 57 0 14 9 34 20 45 11 11 20 25 20
31 0 17 32 38 57 39 29 0 62 48 71 102 6 33 14 46 35 56 15 7 27 17 27 22 0
13 -42 40 -61 40 -21 0 -32 59 -12 67 7 3 13 11 13 18 0 14 76 48 90 40 5 -3
27 -1 49 4 29 6 41 6 41 -3 0 -6 5 -4 10 4 5 8 10 26 10 40 0 19 -3 21 -9 11
-8 -12 -12 -12 -25 -2 -8 7 -19 10 -24 7 -6 -3 -15 0 -21 8 -13 15 4 26 41 26
11 0 22 8 25 20 3 11 9 17 14 14 5 -3 9 -1 9 5 0 5 3 18 6 28 5 15 4 15 -5 3
-13 -19 -31 -3 -45 42 -12 37 -43 49 -62 24 -11 -16 -15 -16 -48 -2 -21 9 -38
11 -41 5 -4 -5 -11 -7 -16 -4 -5 4 -9 2 -9 -4 0 -6 -9 -15 -21 -21 -16 -9 -25
-8 -40 6 -15 13 -22 15 -31 6 -19 -19 -28 -14 -28 14 0 19 4 25 15 21 8 -4 17
-2 20 4 4 5 11 7 16 4 5 -4 12 1 16 11 11 31 -25 46 -99 42 -51 -3 -68 0 -68
9 0 7 11 13 26 13 21 0 29 9 47 50 23 52 38 65 34 28 -1 -17 4 -23 21 -24 15
-1 22 4 22 17 0 10 5 21 10 24 18 11 11 23 -21 39 -32 16 -49 14 -49 -7 0 -22
-38 -39 -60 -27 -18 10 -20 7 -20 -30 0 -65 -19 -44 -59 64 -20 54 -43 101
-51 106 -8 4 -85 13 -170 19 -160 12 -234 13 -212 4z"/>
<path d="M1990 6261 c0 -11 -4 -23 -10 -26 -5 -3 -10 -13 -10 -21 0 -8 4 -12
10 -9 6 3 7 -1 4 -9 -3 -9 -9 -16 -13 -16 -5 0 -16 -26 -26 -59 -15 -51 -23
-61 -57 -80 -39 -20 -39 -20 -34 -1 3 11 8 29 11 39 5 15 -4 24 -40 41 -25 12
-45 26 -45 31 0 5 -5 9 -11 9 -5 0 -7 -4 -4 -10 3 -5 0 -10 -8 -10 -38 0 -35
-72 3 -110 17 -17 27 -35 24 -44 -3 -7 4 -23 16 -34 23 -21 20 -42 -6 -42 -17
0 -19 -27 -1 -33 9 -3 7 -9 -5 -24 -24 -26 -23 -33 7 -33 18 0 29 -8 37 -26
l12 -26 10 24 c8 21 10 18 17 -25 4 -27 13 -55 19 -63 16 -18 54 -18 70 1 20
24 28 9 36 -66 8 -84 18 -82 19 4 0 69 -8 64 82 52 54 -7 65 10 27 41 -28 23
-28 24 -10 39 27 21 46 19 46 -5 0 -11 5 -20 10 -20 16 0 12 57 -5 74 -8 8
-15 22 -15 31 0 9 -13 50 -30 92 -16 41 -30 90 -30 108 0 20 -11 50 -25 71
-14 20 -25 42 -25 49 0 15 -39 105 -45 105 -3 0 -5 -9 -5 -19z"/>
<path d="M4937 5916 c-4 -10 -28 -49 -54 -87 l-46 -69 -31 72 c-17 39 -37 74
-45 76 -9 3 -11 0 -6 -9 5 -8 0 -6 -12 4 -24 21 -57 23 -50 3 3 -7 15 -45 26
-83 12 -39 32 -86 45 -105 l23 -35 -23 -44 c-32 -61 -40 -122 -21 -149 14 -20
15 -20 20 -3 3 10 8 34 11 53 l6 35 -19 -40 c-26 -53 -26 -39 0 38 11 34 50
107 87 162 101 153 111 159 22 12 -59 -98 -62 -125 -5 -47 20 27 39 50 41 50
6 0 0 -11 -46 -80 -46 -68 -72 -119 -68 -130 4 -12 116 157 152 228 27 54 36
98 10 50 -23 -43 -24 -33 -3 22 20 54 24 85 10 76 -5 -4 -11 -1 -13 6 -3 7 -7
5 -11 -6z"/>
<path d="M4085 5892 c-37 -23 -89 -80 -145 -160 -24 -34 -49 -62 -55 -62 -19
0 -35 23 -35 51 0 29 13 44 45 52 16 4 14 5 -7 6 -52 2 -77 -70 -37 -110 23
-23 20 -40 -15 -83 l-23 -28 -24 43 c-25 44 -57 59 -67 30 -3 -8 0 -11 6 -7
12 7 65 -83 58 -100 -7 -18 -64 -46 -78 -38 -6 4 -8 27 -5 61 6 61 -6 62 -24
3 -10 -33 -9 -43 5 -65 20 -31 31 -31 86 -2 l44 23 48 -32 c88 -60 198 -64
234 -9 9 14 22 25 29 25 42 0 137 127 128 173 -13 68 -73 47 -138 -47 -29 -43
-36 -62 -35 -92 4 -60 3 -63 -38 -74 -30 -7 -50 -6 -86 4 -48 15 -126 60 -126
74 0 4 18 28 41 55 35 41 46 47 78 47 45 0 146 48 183 87 37 40 68 103 68 138
0 31 -15 55 -34 55 -6 0 -5 -5 2 -12 17 -17 15 -43 -9 -91 -41 -81 -139 -157
-204 -157 -25 0 -34 14 -16 25 5 3 35 42 66 88 31 45 73 97 93 114 41 36 34
43 -13 15z"/>
<path d="M3536 5779 c-55 -65 -106 -166 -106 -209 0 -38 1 -40 21 -30 23 13
149 140 149 150 0 4 -23 -16 -51 -44 -33 -32 -54 -46 -56 -38 -3 7 18 53 46
102 28 50 51 92 51 95 0 16 -32 1 -54 -26z"/>
<path d="M4540 5682 c-26 -12 -53 -35 -87 -75 -51 -58 -42 -117 17 -117 30 0
104 45 140 85 15 18 2 10 -33 -18 -83 -67 -127 -74 -127 -22 0 19 7 26 38 34
20 6 52 20 69 31 64 39 48 111 -17 82z"/>
<path d="M2960 5529 c-90 -71 -229 -145 -365 -193 -156 -54 -171 -60 -189 -79
-10 -9 -14 -17 -10 -17 5 0 3 -5 -4 -12 -7 -7 -12 -42 -12 -88 0 -104 -27
-294 -51 -360 -22 -59 -83 -141 -182 -244 -16 -16 -35 -40 -44 -53 -8 -12 -20
-23 -27 -23 -6 0 -25 -30 -43 -66 -17 -37 -26 -61 -20 -55 6 6 19 11 29 11 25
0 94 36 139 71 20 16 41 29 46 29 5 0 24 16 43 35 19 19 39 35 45 35 6 0 21
10 33 23 11 12 27 27 34 34 7 6 29 31 48 54 19 23 48 54 64 68 16 14 33 31 38
36 5 6 27 30 49 55 22 25 54 63 72 84 18 21 44 54 60 71 15 18 27 38 27 44 0
6 9 16 21 23 11 7 32 38 45 68 14 30 31 69 39 85 7 17 25 57 40 90 40 90 69
145 76 145 4 0 10 12 14 27 3 14 15 38 26 51 10 14 19 37 19 51 0 15 5 32 12
39 6 6 10 14 7 16 -2 3 -38 -22 -79 -55z"/>
</g>
</svg>
