<?xml version="1.0" standalone="no"?>
<!DOCTYPE svg PUBLIC "-//W3C//DTD SVG 20010904//EN"
 "http://www.w3.org/TR/2001/REC-SVG-20010904/DTD/svg10.dtd">
<svg version="1.0" xmlns="http://www.w3.org/2000/svg"
 width="720.000000pt" height="1280.000000pt" viewBox="0 0 720.000000 1280.000000"
 preserveAspectRatio="xMidYMid meet">
<metadata>
Created by potrace 1.16, written by Peter Selinger 2001-2019
</metadata>
<g transform="translate(0.000000,1280.000000) scale(0.100000,-0.100000)"
fill="#000000" stroke="none">
<path d="M0 6400 l0 -6400 3600 0 3600 0 0 6400 0 6400 -3600 0 -3600 0 0
-6400z m6796 3680 c79 -37 138 -117 149 -206 9 -63 -8 -125 -50 -190 -28 -44
-31 -52 -17 -60 13 -9 13 -13 -2 -37 -23 -35 -90 -46 -137 -23 -33 16 -80 14
-147 -6 -47 -14 -99 -2 -118 28 -13 20 -14 27 -4 39 11 13 9 19 -7 38 -58 63
-80 189 -48 273 55 145 232 211 381 144z m-653 4 c125 -42 198 -200 153 -327
-41 -113 -135 -177 -261 -177 -137 0 -237 76 -264 200 -15 70 -3 142 33 203
25 41 43 58 94 84 54 28 75 33 131 33 37 0 88 -7 114 -16z m-5834 -111 c15
-56 71 -300 71 -307 0 -3 -16 -6 -35 -6 -30 0 -35 3 -35 24 0 30 -4 33 -54 37
-37 4 -40 2 -48 -29 -8 -28 -13 -32 -42 -32 l-34 0 14 58 c7 31 26 110 41 175
l27 117 43 0 c40 0 43 -2 52 -37z m401 -55 l1 -93 30 38 c23 27 39 37 60 37
16 0 29 -3 29 -6 0 -4 -16 -28 -35 -53 -30 -41 -33 -50 -21 -67 7 -10 25 -40
40 -66 l27 -48 -35 0 c-30 0 -38 5 -57 40 -26 45 -39 43 -39 -6 0 -31 -2 -34
-30 -34 l-30 0 0 175 0 175 30 0 30 0 0 -92z m1740 -83 l0 -176 -42 1 c-24 1
-55 -1 -69 -5 -19 -5 -33 -1 -55 18 -28 24 -29 29 -28 107 1 68 4 85 21 102
22 21 54 27 91 14 21 -7 22 -5 22 53 l0 61 30 0 30 0 0 -175z m452 83 l3 -92
25 37 c20 30 31 37 58 37 30 0 42 -12 24 -24 -5 -3 -21 -23 -36 -44 l-27 -40
40 -66 41 -66 -34 0 c-28 0 -38 7 -62 43 l-29 42 -3 -42 c-3 -42 -4 -43 -38
-43 l-34 0 0 175 0 175 35 0 34 0 3 -92z m728 27 l0 -66 30 16 c33 17 60 13
85 -11 11 -12 15 -40 15 -120 l0 -104 -30 0 -30 0 0 90 c0 75 -3 92 -16 97
-37 14 -49 -10 -52 -101 l-3 -86 -29 0 -30 0 0 175 0 175 30 0 30 0 0 -65z
m530 4 c0 -58 1 -60 23 -53 76 26 107 -8 107 -118 0 -71 -2 -81 -26 -105 -20
-20 -31 -24 -52 -18 -15 4 -46 6 -69 5 l-43 -1 0 176 0 175 30 0 30 0 0 -61z
m-1482 -11 c3 -35 6 -38 33 -38 24 0 29 -4 29 -25 0 -21 -5 -25 -30 -25 l-31
0 3 -67 c3 -66 4 -68 31 -71 21 -3 27 -8 23 -19 -3 -8 -6 -19 -6 -24 0 -16
-73 -10 -92 8 -14 13 -18 31 -18 90 0 66 -2 75 -20 80 -13 3 -20 14 -20 29 0
17 6 24 20 24 16 0 20 7 20 33 0 40 7 49 35 45 15 -2 21 -12 23 -40z m-2094
-59 c24 -23 34 -121 17 -172 -15 -44 -59 -66 -97 -48 -14 6 -27 11 -29 11 -3
0 -5 -30 -5 -66 l0 -65 -27 3 -28 3 -3 179 -2 179 37 -5 c21 -3 47 -2 58 3 26
10 55 2 79 -22z m405 20 c44 -16 51 -35 51 -143 l0 -96 -47 -1 c-27 0 -60 -1
-75 -1 -40 -1 -58 19 -58 63 0 43 20 63 83 80 28 7 37 15 35 27 -5 26 -48 28
-55 3 -4 -14 -13 -21 -29 -21 -65 0 -15 96 52 99 6 1 25 -4 43 -10z m290 0
c38 -14 51 -35 51 -88 l0 -41 -61 0 c-60 0 -60 0 -57 -27 3 -32 44 -46 54 -19
4 10 18 16 35 16 35 0 39 -25 10 -61 -27 -34 -99 -34 -135 0 -23 22 -26 32
-26 96 0 79 20 120 63 128 12 2 25 5 28 6 3 0 20 -4 38 -10z m198 0 c32 -12
43 -26 43 -56 0 -31 -45 -33 -53 -3 -7 26 -47 27 -47 1 0 -11 12 -23 30 -31
78 -32 101 -82 61 -131 -15 -19 -29 -24 -66 -24 -37 0 -51 5 -66 24 -29 36
-25 61 11 61 24 0 30 -4 30 -21 0 -15 5 -20 23 -17 37 5 26 36 -23 60 -88 45
-75 133 22 147 4 1 19 -4 35 -10z m197 -3 c31 -13 53 -55 38 -71 -14 -14 -50
-3 -55 16 -4 13 -12 20 -24 17 -29 -5 -21 -32 15 -50 73 -36 92 -81 53 -129
-15 -19 -29 -24 -66 -24 -37 0 -51 5 -66 24 -29 36 -25 61 10 61 21 0 30 -6
34 -21 7 -25 40 -22 45 3 2 12 -11 24 -43 39 -74 35 -86 106 -22 134 40 18 41
18 81 1z m205 3 c17 -6 36 -19 41 -29 6 -10 10 -62 10 -115 l0 -97 -32 3 c-18
1 -48 -1 -66 -5 -50 -12 -82 13 -82 64 0 44 20 64 83 81 28 7 37 15 35 27 -5
25 -45 27 -58 3 -13 -24 -48 -28 -56 -6 -8 20 21 64 49 75 30 12 39 12 76 -1z
m318 -21 c17 -16 23 -33 23 -65 l0 -43 -61 0 c-60 0 -60 0 -57 -27 3 -32 44
-46 54 -19 8 20 64 22 64 2 0 -69 -102 -98 -158 -45 -19 17 -22 31 -22 98 0
68 3 80 23 98 12 11 29 23 37 26 25 10 73 -2 97 -25z m1001 -4 c18 -21 22 -36
22 -98 0 -65 -3 -75 -26 -97 -35 -33 -104 -34 -136 -2 -27 28 -37 127 -17 174
24 60 111 73 157 23z m240 8 c8 -10 12 -52 12 -119 l0 -103 -30 0 -30 0 0 90
c0 75 -3 92 -17 97 -32 12 -53 -32 -53 -113 l0 -74 -30 0 -30 0 0 120 0 120
29 0 c16 0 31 -5 33 -11 2 -6 14 -5 33 5 33 17 63 13 83 -12z m529 -4 c17 -16
23 -33 23 -65 l0 -43 -61 0 c-60 0 -60 0 -57 -27 3 -32 44 -46 54 -19 4 10 18
16 35 16 35 0 40 -29 9 -60 -27 -27 -63 -34 -105 -20 -46 15 -55 34 -55 123 0
64 3 76 23 94 12 11 29 23 37 26 25 10 73 -2 97 -25z m540 8 c6 -6 13 -57 16
-118 l5 -108 -34 0 -34 0 0 90 c0 72 -3 92 -15 96 -33 13 -45 -15 -45 -102 l0
-84 -35 0 -35 0 0 120 0 120 35 0 c19 0 35 -4 35 -9 0 -6 12 -3 28 4 28 15 58
12 79 -9z m218 -7 c17 -16 21 -35 23 -120 l4 -100 -44 1 c-23 1 -54 -1 -68 -5
-35 -9 -80 27 -80 64 0 39 19 60 70 75 33 10 46 19 48 35 4 28 -33 29 -50 1
-12 -19 -48 -27 -60 -14 -15 14 11 60 43 77 40 20 84 15 114 -14z m400 16 c37
-15 55 -46 55 -96 0 -29 0 -29 -59 -29 -65 0 -73 -5 -64 -38 6 -26 53 -32 53
-7 0 11 11 15 36 15 32 0 35 -2 29 -22 -4 -13 -18 -34 -33 -47 -21 -19 -33
-22 -65 -18 -59 8 -80 35 -85 107 -5 75 11 118 52 136 39 17 40 17 81 -1z
m198 1 c15 -8 27 -11 27 -5 0 5 14 9 30 9 l30 0 0 -149 c0 -134 -2 -151 -20
-174 -41 -52 -147 -44 -170 13 -7 16 -9 34 -5 39 10 18 44 12 57 -9 26 -41 78
-15 78 40 0 17 -3 19 -19 10 -36 -19 -78 -12 -100 16 -16 21 -21 41 -21 90 0
72 13 107 44 122 29 14 37 14 69 -2z m285 -22 c19 -22 22 -36 22 -120 l0 -95
-42 1 c-24 1 -55 -1 -70 -5 -21 -6 -32 -2 -52 18 -48 48 -29 99 44 121 33 10
46 19 48 35 4 28 -33 29 -50 1 -12 -19 -48 -27 -60 -14 -15 14 11 60 43 77 43
22 86 16 117 -19z m-3048 -94 l0 -120 -35 0 -35 0 0 113 c0 63 3 117 7 120 3
4 19 7 35 7 l28 0 0 -120z m2271 103 c0 -10 8 -43 18 -73 l17 -55 19 73 c18
70 20 72 51 72 l32 0 -24 -82 c-79 -281 -76 -273 -113 -276 -28 -3 -33 -1 -27
14 28 74 28 99 -3 207 -18 59 -34 113 -37 122 -5 12 2 15 30 15 27 0 36 -4 37
-17z m-503 -2247 c78 -40 125 -98 190 -236 245 -519 258 -543 291 -563 26 -15
37 -16 72 -7 23 6 52 22 66 36 26 26 53 32 53 11 0 -34 -65 -140 -112 -181
-91 -83 -178 -85 -260 -8 -49 45 -68 81 -225 412 -142 298 -153 318 -187 347
-47 42 -68 47 -129 32 -83 -20 -150 -95 -228 -255 -42 -85 -63 -141 -63 -164
1 -23 29 -92 81 -200 44 -91 102 -210 128 -265 26 -55 58 -112 72 -126 l25
-27 -25 -53 c-14 -30 -32 -70 -40 -89 -11 -28 -27 -42 -73 -64 -124 -61 -202
-94 -208 -89 -13 14 -4 36 25 61 37 31 68 94 69 138 0 17 -13 57 -28 90 -16
32 -59 124 -97 204 -235 500 -231 494 -361 489 -86 -3 -102 12 -54 52 70 59
295 229 303 229 4 0 10 -8 14 -17 21 -59 128 -272 133 -266 4 5 24 58 45 118
44 130 102 247 151 303 21 25 63 55 106 76 62 32 80 36 145 36 58 0 84 -5 121
-24z m-2718 -625 c0 -10 -11 -26 -25 -35 -42 -27 -65 -75 -65 -132 0 -52 28
-136 62 -186 10 -14 18 -30 18 -35 0 -5 26 -63 59 -129 81 -166 141 -292 141
-297 0 -3 42 -92 94 -199 51 -106 121 -249 154 -318 33 -69 69 -133 80 -142
50 -41 83 -51 149 -44 62 6 63 6 63 -19 0 -15 -6 -25 -14 -25 -14 0 -70 -25
-321 -145 -157 -75 -185 -86 -196 -79 -16 10 -10 25 22 52 40 33 59 78 59 141
0 42 -13 76 -76 208 -42 87 -114 239 -161 338 -47 99 -117 248 -157 330 -40
83 -81 170 -92 194 -50 117 -104 208 -139 236 -34 28 -43 30 -113 30 -130 0
-101 27 148 139 47 21 128 60 180 86 106 54 130 59 130 31z m1378 -15 c87 -45
128 -101 228 -318 36 -79 95 -203 130 -276 35 -74 64 -137 64 -140 0 -4 14
-22 31 -39 25 -28 37 -33 74 -33 35 0 52 6 78 30 39 33 52 37 60 15 7 -18 -52
-134 -73 -143 -8 -4 -89 -6 -178 -4 l-164 3 -65 137 c-168 354 -266 549 -286
570 -28 31 -70 52 -100 52 -68 0 -163 -73 -221 -169 -41 -67 -116 -237 -116
-262 0 -10 33 -87 73 -171 41 -84 96 -200 122 -258 27 -58 57 -117 68 -132
l18 -28 -94 -98 c-52 -54 -106 -121 -121 -149 -26 -48 -58 -73 -91 -73 -26 0
-16 35 15 58 46 34 63 76 58 142 -4 59 -7 65 -211 490 -38 80 -78 164 -89 187
-35 75 -140 128 -207 105 -29 -10 -52 -1 -50 22 0 6 57 54 126 106 69 52 141
108 159 123 18 16 38 26 44 22 9 -6 86 -159 127 -255 18 -41 20 -38 62 88 17
51 35 100 39 110 101 208 141 252 270 299 81 29 149 25 220 -11z m1466 -714
c5 -8 -18 -85 -32 -106 -4 -6 -7 -13 -7 -16 -4 -28 -19 -77 -26 -86 -11 -14
-47 -184 -50 -241 -2 -23 0 -45 4 -49 12 -13 140 -3 170 12 16 9 32 13 35 9 9
-8 -26 -34 -55 -42 -16 -3 -23 -13 -23 -29 0 -38 -30 -102 -55 -118 -14 -9
-46 -16 -73 -16 -54 0 -85 23 -97 73 -8 31 -6 30 -39 15 -29 -12 -33 -22 -41
-93 -6 -52 -16 -72 -58 -117 -19 -21 -38 -29 -74 -32 -26 -2 -54 1 -60 6 -8 6
-13 34 -13 69 0 33 -3 59 -7 59 -5 0 -22 -9 -39 -19 -23 -14 -31 -26 -32 -50
-1 -39 -8 -64 -34 -119 -27 -58 -54 -74 -120 -70 l-53 3 -7 47 c-7 52 11 128
33 139 8 4 21 10 30 12 9 3 19 20 23 37 6 32 7 33 53 27 37 -4 58 0 93 17 25
12 65 29 90 36 48 15 61 26 54 45 -9 22 24 38 63 32 27 -5 50 -1 80 14 40 19
42 22 48 77 3 31 10 71 14 87 5 17 13 50 16 75 4 25 13 61 20 80 7 19 26 69
41 110 36 100 58 130 94 130 16 0 31 -4 34 -8z m-932 -511 c26 -17 55 -45 64
-63 25 -47 21 -168 -7 -244 -24 -63 -76 -151 -104 -174 -9 -7 -25 -30 -35 -49
-10 -20 -32 -51 -49 -68 -17 -18 -31 -37 -31 -43 0 -5 -4 -10 -8 -10 -9 0 -28
-15 -89 -71 -18 -16 -37 -29 -42 -29 -4 0 -14 -7 -22 -16 -19 -23 -70 -47 -80
-37 -5 5 6 23 26 42 20 18 48 50 62 70 15 20 50 63 78 96 77 91 155 193 155
203 0 5 9 21 20 35 12 15 21 29 21 31 0 3 8 25 19 48 24 55 34 127 26 182 -8
48 -32 66 -89 66 -54 0 -237 -63 -237 -81 0 -5 -5 -9 -12 -9 -6 0 -26 -11 -45
-26 -26 -20 -31 -29 -24 -42 6 -11 6 -37 0 -67 -22 -117 -28 -190 -30 -358 -1
-150 1 -180 14 -195 12 -13 14 -26 9 -47 -10 -36 -32 -50 -65 -41 -21 5 -27
15 -36 56 -22 100 -7 442 25 583 4 15 2 27 -3 27 -23 0 -112 -83 -176 -163
-46 -57 -58 -92 -35 -99 20 -7 -2 -28 -29 -28 -27 0 -52 24 -53 51 0 25 54
121 97 170 63 72 134 136 208 186 39 27 72 50 75 53 14 14 77 44 138 65 47 17
89 24 143 25 66 0 80 -3 121 -29z m1888 -542 c36 -5 69 -14 73 -18 9 -9 -6
-45 -101 -241 -38 -80 -85 -179 -104 -220 -19 -41 -70 -150 -113 -243 -43 -92
-76 -169 -74 -170 2 -2 29 -21 59 -44 103 -76 204 -113 313 -113 118 0 184 39
217 128 22 58 26 153 9 200 -8 21 -7 22 56 22 35 0 67 -5 70 -10 10 -16 -14
-108 -47 -176 -58 -123 -208 -242 -343 -273 -74 -17 -220 -15 -290 4 -230 62
-413 259 -461 496 -49 240 39 461 232 582 118 74 326 105 504 76z m-1307 -116
c8 -21 57 -123 107 -228 51 -104 108 -224 127 -265 20 -41 52 -111 73 -155 21
-44 68 -143 105 -220 36 -77 80 -169 97 -205 65 -139 74 -153 132 -182 32 -16
53 -19 102 -15 70 5 90 -10 49 -37 -13 -9 -26 -16 -28 -16 -4 0 -274 -128
-422 -200 -32 -16 -63 -26 -67 -24 -16 10 -7 33 21 57 16 13 39 43 51 67 37
73 34 83 -172 510 -36 74 -100 209 -143 300 -43 91 -115 243 -161 339 -84 173
-94 201 -73 201 23 0 117 52 145 80 16 16 32 30 35 30 4 0 14 -17 22 -37z
m-249 -200 c3 -65 13 -237 21 -383 19 -331 56 -1057 58 -1130 2 -51 0 -55 -25
-64 -24 -8 -34 -3 -107 59 -44 37 -81 70 -83 74 -2 3 -59 56 -128 116 -69 61
-159 142 -200 181 -41 38 -91 83 -110 98 -19 16 -80 70 -135 121 -55 51 -154
141 -220 201 -66 59 -136 123 -155 141 -19 17 -36 30 -38 28 -2 -2 21 -54 51
-117 30 -62 66 -138 80 -168 14 -30 61 -130 106 -223 44 -92 90 -189 102 -215
111 -243 199 -410 226 -430 46 -33 116 -47 154 -32 26 11 32 11 40 -1 13 -20
11 -39 -4 -39 -7 0 -78 -32 -157 -71 -160 -78 -200 -91 -200 -65 0 10 14 29
30 43 71 60 81 153 27 262 -38 75 -81 164 -142 296 -84 180 -347 732 -377 790
-40 78 -62 101 -114 121 -32 12 -58 15 -99 9 -46 -5 -55 -4 -55 9 0 11 48 39
143 85 78 38 149 71 158 73 9 1 39 -17 65 -41 27 -24 87 -78 134 -120 46 -42
134 -121 194 -176 60 -55 128 -115 150 -134 23 -19 75 -67 117 -105 41 -39
129 -119 195 -177 65 -59 164 -147 219 -197 55 -49 101 -89 103 -87 3 3 -16
398 -43 860 -31 534 -31 525 -8 525 19 0 21 -8 27 -117z"/>
<path d="M6613 9773 c-20 -4 -23 -11 -23 -51 l0 -47 85 0 85 0 0 46 c0 40 -3
48 -22 53 -25 6 -90 6 -125 -1z"/>
<path d="M4911 5091 c-73 -42 -77 -46 -106 -106 -35 -74 -33 -141 5 -246 37
-101 84 -187 147 -265 72 -90 90 -105 102 -90 9 11 53 102 128 266 14 30 46
98 70 150 25 52 48 111 50 131 14 98 -100 180 -257 186 -79 4 -89 2 -139 -26z"/>
</g>
</svg>
