<?xml version="1.0" standalone="no"?>
<!DOCTYPE svg PUBLIC "-//W3C//DTD SVG 20010904//EN"
 "http://www.w3.org/TR/2001/REC-SVG-20010904/DTD/svg10.dtd">
<svg version="1.0" xmlns="http://www.w3.org/2000/svg"
 width="720.000000pt" height="1280.000000pt" viewBox="0 0 720.000000 1280.000000"
 preserveAspectRatio="xMidYMid meet">
<metadata>
Created by potrace 1.16, written by Peter Selinger 2001-2019
</metadata>
<g transform="translate(0.000000,1280.000000) scale(0.100000,-0.100000)"
fill="#000000" stroke="none">
<path d="M0 6400 l0 -6400 3600 0 3600 0 0 1025 0 1025 -3590 0 -3590 0 0
1314 c0 780 4 1325 9 1339 9 22 16 25 88 29 78 6 97 3 76 -10 -7 -4 -15 -42
-19 -85 -4 -43 -10 -80 -15 -83 -4 -2 -6 -11 -3 -19 6 -15 70 -15 874 1 179 3
370 6 424 6 143 0 138 -4 166 125 12 59 28 133 36 163 7 30 16 81 20 112 l7
57 -69 3 -68 3 -28 55 -27 55 114 3 114 3 6 47 c3 26 8 57 10 68 7 32 -14 36
-136 28 l-107 -7 -27 29 -26 28 23 9 c14 6 18 11 11 14 -21 8 -15 33 7 33 21
0 27 15 10 25 -17 10 -47 -4 -53 -25 -5 -21 -32 -26 -57 -10 -13 8 -13 10 1
10 13 0 16 15 18 87 2 94 -15 230 -31 250 -5 6 -8 35 -7 65 2 29 -1 69 -6 88
-4 19 -9 42 -10 50 -4 31 -34 86 -60 110 -22 20 -29 22 -45 12 -16 -10 -21 -9
-30 8 -16 30 -36 24 -82 -25 -23 -25 -47 -45 -51 -45 -17 0 -127 -71 -127 -82
0 -7 4 -7 13 -1 6 6 23 13 37 15 14 3 32 8 40 12 12 5 16 0 15 -20 0 -37 29
-54 52 -31 17 18 17 19 -12 42 -27 22 -28 25 -10 30 38 13 41 13 55 1 20 -15
20 -63 1 -62 -9 1 -18 -12 -22 -34 -8 -36 -32 -60 -61 -60 -10 0 -18 7 -18 15
0 8 5 15 10 15 6 0 10 4 10 10 0 5 -13 8 -30 7 -39 -3 -40 -28 -4 -94 27 -50
28 -83 8 -243 -9 -72 -62 -196 -85 -196 -21 0 -19 27 6 101 7 23 21 90 31 149
l18 108 -23 44 c-26 49 -37 55 -107 61 -40 3 -53 1 -57 -11 -4 -10 -19 -16
-40 -16 -37 0 -57 -15 -57 -42 0 -22 -18 -24 -26 -3 -4 11 -21 15 -55 15 -27
0 -49 4 -49 9 0 5 -7 12 -16 15 -28 11 -64 -6 -81 -37 l-15 -31 -15 28 c-21
40 -28 24 -12 -29 16 -54 45 -68 89 -42 34 20 41 14 29 -25 -8 -29 -7 -30 20
-25 23 5 31 1 41 -19 12 -21 20 -24 71 -24 59 0 69 -7 69 -51 0 -22 -84 -69
-123 -69 -37 0 -61 -35 -36 -51 17 -10 4 -23 -16 -16 -8 4 -15 17 -15 29 0 44
-31 58 -130 58 -74 0 -91 -3 -99 -17 -9 -15 -11 -13 -12 12 -2 29 -2 29 -8 -5
-4 -21 -12 -35 -21 -35 -13 0 -88 -99 -89 -119 -1 -5 -12 -24 -26 -42 -14 -18
-25 -36 -25 -41 0 -4 43 -6 95 -5 87 4 95 2 95 -15 0 -10 -17 -37 -37 -61 -32
-37 -37 -48 -34 -87 3 -45 -12 -62 -22 -25 -4 17 -14 20 -58 20 -29 0 -77 -6
-107 -12 -41 -10 -54 -18 -58 -35 -4 -13 -10 -23 -15 -23 -5 0 -9 902 -9 2160
l0 2161 532 -1 c471 -1 534 -3 556 -18 23 -15 25 -15 37 1 11 16 205 17 3034
17 l3021 0 0 1775 0 1775 -3600 0 -3600 0 0 -6400z m6796 3680 c151 -69 198
-267 95 -405 -25 -34 -27 -41 -14 -50 14 -10 14 -14 -1 -37 -26 -40 -88 -50
-140 -23 -23 12 -38 13 -85 4 -31 -7 -78 -12 -105 -13 -42 -1 -51 3 -72 29
-22 28 -23 31 -7 42 15 12 15 15 -5 35 -85 91 -82 269 6 361 77 81 220 106
328 57z m-653 4 c52 -18 116 -76 142 -130 57 -121 8 -276 -107 -339 -77 -42
-185 -47 -259 -13 -106 49 -153 125 -152 244 1 110 42 177 135 223 50 25 73
31 128 31 36 0 87 -7 113 -16z m-5802 -244 c21 -91 39 -168 39 -172 0 -5 -15
-8 -33 -8 -28 0 -34 4 -42 32 -9 29 -14 32 -50 31 -36 0 -40 -3 -47 -31 -8
-28 -13 -32 -42 -32 l-34 0 14 58 c7 31 26 110 41 175 l28 118 44 -3 44 -3 38
-165z m371 78 l3 -93 25 37 c20 31 31 38 58 38 17 0 32 -3 32 -6 0 -4 -16 -28
-35 -53 -30 -42 -33 -50 -21 -67 7 -10 25 -40 40 -66 l28 -48 -35 0 c-31 0
-39 5 -58 40 -26 45 -39 43 -39 -6 0 -31 -2 -34 -30 -34 l-30 0 0 175 0 175
30 0 29 0 3 -92z m1738 -83 l0 -176 -42 1 c-24 1 -55 -1 -69 -5 -19 -5 -33 -1
-55 18 -28 24 -29 29 -28 107 0 68 4 84 21 101 22 22 54 28 91 15 21 -7 22 -5
22 53 l0 61 30 0 30 0 0 -175z m452 83 l3 -92 25 37 c20 30 31 37 58 37 30 0
42 -12 24 -24 -5 -3 -21 -23 -36 -44 l-27 -40 40 -66 41 -66 -34 0 c-28 0 -38
7 -62 43 l-29 42 -3 -42 c-3 -42 -4 -43 -38 -43 l-34 0 0 175 0 175 35 0 34 0
3 -92z m728 27 l0 -66 30 16 c33 17 60 13 85 -11 11 -12 15 -40 15 -120 l0
-104 -30 0 -30 0 0 90 c0 75 -3 92 -16 97 -37 14 -49 -10 -52 -101 l-3 -86
-29 0 -30 0 0 175 0 175 30 0 30 0 0 -65z m530 4 c0 -58 1 -60 23 -53 76 26
107 -8 107 -118 0 -71 -2 -81 -26 -105 -21 -21 -31 -24 -57 -18 -18 4 -49 6
-69 6 l-38 -2 0 176 0 175 30 0 30 0 0 -61z m-1480 -9 c0 -38 2 -40 30 -40 25
0 30 -4 30 -25 0 -21 -5 -25 -30 -25 l-31 0 3 -67 c3 -66 4 -68 31 -71 28 -3
31 -9 21 -36 -8 -22 -72 -21 -96 1 -14 13 -18 31 -18 90 0 66 -2 75 -20 80
-13 3 -20 14 -20 29 0 17 6 24 20 24 16 0 20 7 20 33 0 40 6 47 37 47 20 0 23
-5 23 -40z m-2096 -61 c24 -23 34 -121 17 -172 -15 -44 -59 -66 -97 -48 -14 6
-27 11 -29 11 -3 0 -5 -30 -5 -66 l0 -65 -27 3 -28 3 -3 179 -2 179 37 -5 c21
-3 47 -2 58 3 26 10 55 2 79 -22z m405 20 c17 -6 36 -19 41 -29 6 -10 10 -62
10 -115 l0 -97 -32 3 c-18 1 -48 -1 -66 -5 -50 -12 -82 13 -82 64 0 44 20 64
83 81 28 7 37 15 35 27 -5 26 -48 28 -55 3 -6 -25 -51 -29 -60 -5 -8 21 28 67
58 75 35 10 33 10 68 -2z m290 0 c38 -14 51 -35 51 -88 l0 -41 -61 0 c-60 0
-60 0 -57 -27 3 -32 44 -46 54 -19 4 10 18 16 35 16 35 0 39 -25 10 -61 -27
-34 -99 -34 -135 0 -23 22 -26 32 -26 96 0 79 20 120 63 128 12 2 25 5 28 6 3
0 20 -4 38 -10z m198 0 c32 -12 43 -26 43 -56 0 -31 -45 -33 -53 -3 -7 26 -47
27 -47 1 0 -11 12 -23 30 -31 78 -32 101 -82 61 -131 -15 -19 -29 -24 -66 -24
-37 0 -51 5 -66 24 -29 36 -25 61 11 61 24 0 30 -4 30 -21 0 -15 5 -20 22 -17
41 6 32 33 -19 59 -91 46 -80 134 19 148 4 1 19 -4 35 -10z m191 0 c29 -10 59
-59 45 -73 -15 -15 -51 -5 -56 15 -4 13 -12 20 -24 17 -29 -5 -21 -32 15 -50
73 -36 92 -81 53 -129 -15 -19 -29 -24 -66 -24 -37 0 -51 5 -66 24 -29 36 -25
61 10 61 21 0 30 -6 34 -21 7 -25 40 -22 45 3 2 12 -11 24 -43 39 -74 35 -85
107 -21 135 38 16 36 16 74 3z m211 0 c17 -6 36 -19 41 -29 6 -10 10 -62 10
-115 l0 -97 -32 3 c-18 1 -48 -1 -66 -5 -50 -12 -82 13 -82 64 0 44 20 64 83
81 28 7 37 15 35 27 -5 25 -45 27 -58 3 -11 -22 -44 -28 -55 -10 -12 18 16 68
44 78 35 13 43 13 80 0z m318 -21 c17 -16 23 -33 23 -65 l0 -43 -61 0 c-60 0
-60 0 -57 -27 3 -32 44 -46 54 -19 9 23 64 21 64 -2 0 -49 -66 -84 -121 -64
-50 20 -59 37 -59 121 0 68 3 80 23 98 12 11 29 23 37 26 25 10 73 -2 97 -25z
m1001 -4 c19 -21 22 -36 22 -99 0 -70 -1 -74 -32 -100 -27 -23 -39 -26 -71
-22 -59 8 -80 35 -85 107 -3 36 1 72 9 91 24 60 111 73 157 23z m240 8 c8 -10
12 -52 12 -119 l0 -103 -30 0 -30 0 0 90 c0 75 -3 92 -17 97 -32 12 -53 -32
-53 -113 l0 -74 -30 0 -30 0 0 120 0 120 29 0 c16 0 31 -5 33 -11 2 -6 14 -5
33 5 33 17 63 13 83 -12z m530 -5 c16 -15 22 -32 22 -64 l0 -43 -61 0 c-60 0
-60 0 -57 -27 3 -32 44 -46 54 -19 4 10 18 16 35 16 35 0 40 -29 9 -60 -27
-27 -63 -34 -105 -20 -46 15 -55 34 -55 123 0 64 3 76 23 94 12 11 29 23 37
26 25 9 73 -4 98 -26z m539 9 c6 -6 14 -57 17 -118 l5 -108 -34 0 -35 0 0 90
c0 72 -3 92 -15 96 -33 13 -45 -15 -45 -102 l0 -84 -35 0 -35 0 0 120 0 120
35 0 c19 0 35 -4 35 -9 0 -6 12 -3 28 4 28 15 58 12 79 -9z m218 -7 c17 -16
21 -35 23 -120 l4 -100 -44 1 c-23 1 -54 -1 -68 -5 -35 -9 -80 27 -80 64 0 39
19 60 70 75 33 10 46 19 48 35 5 29 -44 30 -53 0 -5 -15 -14 -19 -33 -17 -22
2 -26 7 -24 28 5 31 28 58 56 63 35 7 80 -4 101 -24z m400 16 c37 -15 55 -46
55 -96 0 -29 0 -29 -59 -29 -63 0 -76 -8 -66 -40 8 -24 55 -28 55 -5 0 11 11
15 36 15 32 0 35 -2 29 -22 -4 -13 -18 -34 -33 -47 -21 -19 -33 -22 -65 -18
-59 8 -80 35 -85 107 -5 75 11 118 52 136 39 17 40 17 81 -1z m198 1 c15 -8
27 -11 27 -5 0 5 14 9 31 9 l30 0 -3 -154 c-3 -134 -5 -157 -22 -175 -42 -46
-144 -35 -166 19 -7 16 -9 34 -5 39 10 18 44 12 57 -9 26 -41 78 -15 78 40 0
17 -3 19 -19 10 -36 -19 -78 -12 -100 16 -16 21 -21 41 -21 90 0 72 13 107 44
122 29 14 37 14 69 -2z m285 -22 c20 -22 22 -36 22 -120 l0 -95 -42 1 c-24 1
-55 -1 -70 -5 -21 -6 -32 -2 -52 18 -46 46 -30 99 37 118 52 15 67 26 60 45
-8 21 -41 17 -55 -6 -17 -26 -58 -27 -58 -1 0 34 12 53 44 67 40 18 85 9 114
-22z m-3048 -94 l0 -120 -35 0 -35 0 0 120 0 120 35 0 35 0 0 -120z m2280 63
c19 -90 25 -92 45 -14 18 69 20 71 51 71 l32 0 -24 -82 c-79 -281 -76 -273
-112 -276 -29 -3 -33 -1 -29 15 31 106 31 95 -2 207 -18 59 -35 114 -38 122
-4 10 4 14 29 14 34 0 35 -1 48 -57z"/>
<path d="M6613 9773 c-20 -4 -23 -11 -23 -51 l0 -47 85 0 85 0 0 46 c0 40 -3
48 -22 53 -25 6 -90 6 -125 -1z"/>
<path d="M1570 7661 c0 -10 1 -10 265 -41 94 -11 242 -29 330 -40 88 -11 255
-31 370 -44 116 -14 323 -39 460 -56 138 -16 383 -46 545 -65 580 -69 1272
-153 1413 -170 144 -18 165 -19 150 -4 -6 6 -233 37 -504 70 -506 60 -829 100
-1399 169 -179 22 -458 56 -620 75 -162 19 -405 49 -540 65 -452 56 -470 57
-470 41z"/>
<path d="M1038 6582 c-21 -2 -38 -6 -38 -9 0 -10 35 -32 52 -33 9 0 23 -6 31
-14 8 -8 38 -16 68 -18 47 -3 55 -6 67 -30 7 -16 21 -28 32 -28 10 0 21 -6 24
-12 3 -7 5 -2 3 13 -3 24 12 49 31 49 5 0 25 -16 45 -36 l35 -36 4 79 3 78
-160 0 c-88 0 -177 -1 -197 -3z"/>
<path d="M4047 6137 c-38 -35 -57 -89 -59 -162 0 -25 -7 -50 -14 -56 -8 -6
-14 -15 -14 -20 0 -5 -20 -29 -45 -53 -44 -41 -45 -44 -34 -77 7 -19 16 -38
20 -43 5 -6 9 -21 9 -34 0 -13 11 -37 25 -54 17 -20 25 -42 25 -68 0 -30 4
-39 23 -45 21 -8 21 -8 -5 -12 -17 -3 -38 4 -57 17 -26 20 -118 63 -163 77
-34 10 -66 -5 -70 -35 -2 -21 -9 -28 -30 -30 -16 -2 -28 -4 -28 -5 -5 -33 -51
-292 -56 -316 l-7 -34 140 5 141 5 -9 -30 c-12 -42 -24 -52 -67 -53 -51 0
-132 -26 -132 -40 0 -22 -28 -42 -52 -37 -21 4 -25 -2 -42 -58 -14 -47 -66
-360 -66 -400 0 -8 59 2 65 11 7 12 157 -49 177 -71 9 -11 20 -19 25 -19 5 0
16 -11 23 -25 15 -28 22 -30 255 -46 183 -12 718 -37 724 -33 8 6 37 310 37
382 -1 62 -4 77 -16 77 -9 0 -16 -11 -18 -28 l-4 -29 -24 33 c-13 18 -24 36
-24 40 0 13 50 19 70 9 24 -13 26 -9 34 77 l6 62 -43 15 c-23 8 -53 17 -67 18
-26 3 -80 56 -80 79 0 8 -11 26 -25 41 -14 15 -25 32 -25 38 0 6 34 10 89 10
48 0 109 3 134 6 50 7 49 4 63 144 5 57 3 68 -15 86 -25 28 -99 38 -196 29
-67 -6 -74 -9 -80 -32 -4 -19 -10 -23 -23 -16 -9 4 -57 7 -105 5 -84 -2 -88
-1 -82 18 4 14 2 20 -9 20 -23 0 -35 92 -15 116 5 6 5 25 -1 45 -6 18 -10 49
-10 68 0 19 -13 57 -29 85 -24 43 -29 65 -33 146 -7 127 -36 189 -100 213 -60
23 -72 22 -111 -16z m198 -690 c38 -32 73 -65 76 -74 5 -14 7 -14 21 1 9 9 28
16 42 16 34 0 86 -70 86 -114 -1 -29 -1 -30 -15 -12 -15 20 -15 20 -15 0 0
-15 -2 -16 -9 -5 -5 8 -7 20 -4 28 3 7 -2 13 -11 13 -8 0 -23 11 -32 25 -9 14
-20 25 -25 25 -5 0 -9 -11 -9 -25 0 -14 -3 -25 -6 -25 -8 0 -64 63 -64 73 0 4
-4 7 -8 7 -17 0 -132 116 -132 134 0 21 -8 26 105 -67z"/>
<path d="M477 5912 c-20 -21 -27 -38 -27 -69 0 -40 1 -41 38 -47 60 -8 267 -5
283 5 11 7 10 10 -8 15 -11 3 -23 14 -26 25 -4 14 -14 19 -41 19 -30 0 -44 8
-75 40 -32 34 -44 40 -78 40 -30 0 -46 -7 -66 -28z"/>
<path d="M5394 5862 c-26 -17 -39 -79 -37 -169 2 -57 -1 -93 -7 -93 -6 0 -10
-9 -10 -20 0 -11 5 -20 11 -20 8 0 10 -13 6 -38 -4 -24 -1 -47 8 -66 8 -15 15
-39 15 -52 0 -15 15 -36 45 -61 41 -34 57 -66 38 -76 -5 -2 -38 -1 -75 2 -38
4 -68 3 -68 -1 0 -4 5 -19 11 -34 5 -16 8 -39 4 -51 -5 -21 -11 -23 -70 -23
-37 0 -65 -4 -65 -10 0 -5 -7 -10 -15 -10 -17 0 -72 -46 -64 -54 2 -3 51 -11
107 -19 57 -8 108 -19 113 -24 6 -6 7 -23 2 -43 l-9 -33 -66 2 c-60 2 -67 0
-86 -24 -20 -25 -20 -26 -1 -80 10 -30 19 -63 19 -74 0 -14 5 -19 15 -15 20 8
19 50 -1 58 -14 5 -14 7 0 22 14 13 22 14 52 4 20 -7 32 -15 27 -19 -5 -3 -12
-14 -16 -23 -3 -10 -13 -18 -22 -18 -8 0 -15 -8 -15 -19 0 -13 9 -20 30 -24
20 -4 34 -17 46 -39 9 -18 23 -41 32 -51 8 -9 12 -20 9 -24 -4 -3 1 -12 11
-19 15 -12 15 -15 2 -23 -10 -7 -16 -7 -18 -1 -5 13 -49 13 -57 0 -3 -5 3 -10
14 -10 13 0 23 -11 31 -35 6 -19 15 -33 20 -30 7 4 7 -19 1 -54 -1 -2 -8 2
-16 9 -21 18 -29 6 -15 -22 11 -22 10 -22 -4 -4 -9 11 -16 32 -16 47 0 29 -18
49 -29 31 -7 -11 -61 30 -61 46 0 15 -28 22 -32 9 -2 -7 -5 -58 -7 -113 -2
-90 0 -102 16 -109 10 -4 68 -11 128 -15 307 -23 308 -23 301 -12 -4 7 -1 12
9 12 11 0 15 -5 11 -15 -3 -9 0 -15 9 -15 8 0 15 6 15 14 0 8 5 18 12 22 7 5
9 1 6 -13 -5 -17 0 -22 24 -27 55 -11 88 -7 88 10 0 9 6 14 13 11 6 -2 11 -10
10 -16 -2 -6 2 -11 7 -11 6 0 10 5 10 10 0 6 4 10 10 10 5 0 7 -6 4 -14 -6
-15 6 -16 291 -41 176 -15 219 -17 197 -8 -6 2 -10 9 -7 14 4 5 0 6 -8 3 -8
-3 -14 2 -14 11 0 10 10 15 27 15 27 0 27 1 22 48 -2 26 -10 50 -16 54 -42 26
-51 37 -38 49 10 11 12 10 12 -4 0 -10 8 -17 19 -17 11 0 21 -5 23 -12 3 -9 6
-9 12 0 4 8 -2 16 -19 22 -14 5 -28 16 -31 25 -3 8 -10 13 -14 10 -5 -3 -12 0
-15 5 -4 6 -18 16 -32 21 -14 5 -23 12 -20 15 3 3 20 -1 38 -10 52 -26 69 -22
69 18 0 19 -5 47 -11 63 -7 19 -7 29 0 31 13 4 14 42 1 62 -7 12 -12 12 -22 2
-6 -6 -18 -12 -25 -12 -10 0 -11 4 -1 19 6 10 18 17 25 14 9 -4 13 5 13 30 0
31 -2 34 -26 31 -32 -3 -53 14 -46 39 3 12 -2 23 -12 29 -9 5 -16 19 -16 32 0
12 -11 33 -25 46 -33 31 -32 40 5 40 36 0 36 4 9 50 -20 34 -46 60 -60 60 -12
0 -17 -39 -5 -44 6 -2 1 -5 -11 -5 -15 -1 -23 6 -25 21 -2 12 -13 27 -25 33
-12 6 -31 22 -42 36 -17 20 -20 21 -21 7 0 -35 -47 -11 -62 32 -3 9 -25 29
-49 45 -24 17 -47 34 -50 38 -3 4 -10 7 -15 5 -5 -2 -10 2 -11 7 -1 6 4 9 12
7 18 -3 8 221 -11 260 -24 46 -77 80 -122 77 -42 -3 -72 13 -72 38 0 27 -49
109 -89 148 -23 21 -41 44 -41 50 0 25 -101 54 -126 37z m167 -124 c54 -58 61
-74 54 -118 -4 -22 -10 -42 -15 -45 -5 -3 -2 -18 5 -33 16 -34 28 -189 15
-197 -5 -3 -19 0 -30 7 -19 12 -20 19 -14 75 9 84 2 105 -46 138 -22 15 -38
30 -35 33 2 3 10 0 17 -5 26 -20 55 -21 67 -2 9 16 7 23 -15 41 -28 25 -64 91
-64 120 0 28 28 21 61 -14z m212 -596 c16 -17 15 -19 -18 -35 -26 -13 -63 -17
-140 -17 -101 0 -105 -1 -137 -30 -18 -16 -35 -30 -38 -30 -16 0 -42 28 -36
39 16 26 86 51 143 51 34 0 79 8 108 20 63 24 97 25 118 2z"/>
<path d="M2737 5729 c-21 -17 -55 -63 -77 -103 -38 -68 -98 -126 -133 -126
-14 0 -77 -22 -93 -32 -17 -11 -26 -83 -24 -189 2 -93 -8 -127 -27 -96 -4 8
-30 26 -57 40 -44 24 -52 25 -66 12 -21 -19 -27 -19 -57 5 -29 22 -85 28 -80
8 3 -15 -55 -11 -64 4 -12 19 -31 -4 -26 -30 3 -15 -1 -31 -8 -37 -14 -11 -55
-175 -55 -219 0 -30 33 -49 69 -39 14 4 21 1 21 -9 0 -8 14 -25 31 -37 18 -13
29 -19 26 -14 -4 6 3 8 18 5 36 -6 32 -32 -4 -32 -17 0 -33 5 -37 11 -3 6 -17
9 -30 6 -16 -3 -24 0 -24 9 0 8 -9 14 -20 14 -11 0 -23 7 -26 15 -4 8 -14 15
-23 15 -13 0 -19 -14 -27 -58 -8 -51 -7 -61 9 -77 16 -17 17 -17 12 -2 -10 25
12 21 26 -4 10 -20 17 -21 93 -16 44 3 89 8 99 12 20 8 23 -18 8 -57 -6 -13
-12 -40 -16 -60 l-6 -36 -64 -7 c-64 -7 -187 -56 -169 -68 5 -3 97 -10 204
-16 107 -6 275 -16 373 -22 98 -6 204 -9 235 -8 31 1 73 -1 92 -4 19 -3 103
-8 186 -11 l151 -5 -4 34 c-3 28 0 33 12 29 8 -4 15 -17 15 -30 0 -13 3 -25 8
-25 46 -8 54 -6 47 15 -4 11 -10 37 -14 56 -10 46 -33 90 -61 115 -36 32 -72
102 -65 124 7 24 -19 41 -64 41 -25 0 -37 8 -59 39 -33 48 -86 67 -221 81 -93
9 -111 17 -111 51 0 13 9 14 63 8 34 -5 102 -11 150 -15 87 -6 90 -7 154 -55
55 -42 73 -50 121 -55 32 -3 86 -1 122 3 l64 8 18 100 c23 137 23 176 -3 209
-14 18 -28 26 -40 23 -12 -3 -23 2 -29 13 -14 26 -14 25 20 28 24 2 32 -3 39
-21 5 -12 16 -28 24 -35 18 -15 23 0 33 99 8 80 -3 91 -51 55 -18 -14 -38 -26
-43 -26 -18 0 -74 -33 -79 -47 -3 -8 -12 -12 -21 -8 -12 4 -12 3 -3 -9 16 -19
0 -29 -34 -20 -15 4 -25 2 -26 -5 -1 -6 -2 -17 -3 -23 -1 -7 2 -19 7 -25 16
-22 -14 -15 -39 8 -15 14 -29 19 -43 14 -25 -7 -27 -27 -6 -45 8 -7 15 -20 14
-29 0 -10 -2 -11 -6 -3 -2 6 -10 12 -17 12 -7 0 -22 10 -34 23 -19 20 -20 27
-11 62 6 22 17 45 25 52 11 7 12 13 4 18 -6 4 -8 15 -5 26 4 10 -5 47 -18 82
-14 34 -35 104 -47 155 -33 136 -70 182 -150 182 -25 0 -47 -9 -73 -31z m163
-285 c0 -19 -5 -24 -24 -24 -48 0 -53 -28 -30 -153 7 -38 6 -39 -22 -35 -31 3
-37 20 -47 133 -4 50 -1 65 15 84 14 18 22 21 30 13 17 -17 48 -15 54 3 9 21
24 8 24 -21z"/>
</g>
</svg>
