<?xml version="1.0" standalone="no"?>
<!DOCTYPE svg PUBLIC "-//W3C//DTD SVG 20010904//EN"
 "http://www.w3.org/TR/2001/REC-SVG-20010904/DTD/svg10.dtd">
<svg version="1.0" xmlns="http://www.w3.org/2000/svg"
 width="720.000000pt" height="1280.000000pt" viewBox="0 0 720.000000 1280.000000"
 preserveAspectRatio="xMidYMid meet">
<metadata>
Created by potrace 1.16, written by Peter Selinger 2001-2019
</metadata>
<g transform="translate(0.000000,1280.000000) scale(0.100000,-0.100000)"
fill="#000000" stroke="none">
<path d="M0 6400 l0 -6400 3600 0 3600 0 0 1025 0 1025 -3590 0 -3590 0 0
3600 0 3600 3590 0 3590 0 0 1775 0 1775 -3600 0 -3600 0 0 -6400z m6796 3680
c151 -69 198 -267 95 -405 -25 -34 -27 -41 -14 -50 14 -10 14 -14 -2 -38 -22
-35 -90 -46 -136 -23 -33 16 -80 14 -147 -6 -47 -14 -99 -2 -118 28 -13 20
-14 27 -4 39 11 13 9 19 -8 38 -85 90 -82 268 6 360 77 81 220 106 328 57z
m-653 4 c29 -10 64 -34 92 -62 124 -125 89 -333 -68 -412 -133 -66 -310 -20
-370 96 -47 91 -44 191 7 276 25 43 43 59 94 85 54 28 75 33 131 33 37 0 88
-7 114 -16z m-5802 -244 c21 -91 39 -168 39 -172 0 -5 -15 -8 -33 -8 -28 0
-34 4 -42 32 -9 29 -14 32 -50 31 -36 0 -40 -3 -47 -31 -8 -28 -13 -32 -42
-32 l-34 0 14 58 c7 31 26 110 41 175 l27 118 44 -3 45 -3 38 -165z m369 78
l1 -93 30 38 c23 27 39 37 60 37 16 0 29 -3 29 -6 0 -4 -16 -28 -35 -53 -30
-41 -33 -50 -21 -67 7 -10 25 -40 40 -66 l27 -48 -35 0 c-30 0 -38 5 -57 40
-26 45 -39 43 -39 -6 0 -31 -2 -34 -30 -34 l-30 0 0 175 0 175 30 0 30 0 0
-92z m1740 -83 l0 -176 -42 1 c-24 1 -55 -1 -69 -5 -19 -5 -33 -1 -55 18 -28
24 -29 29 -28 107 1 68 4 85 21 102 22 21 54 27 91 14 21 -7 22 -5 22 53 l0
61 30 0 30 0 0 -175z m452 83 l3 -92 25 37 c20 30 31 37 58 37 30 0 42 -12 24
-24 -5 -3 -21 -23 -36 -44 l-27 -40 40 -66 41 -66 -34 0 c-28 0 -38 7 -62 43
l-29 42 -3 -42 c-3 -42 -4 -43 -38 -43 l-34 0 0 175 0 175 35 0 34 0 3 -92z
m728 27 l0 -66 30 16 c33 17 60 13 85 -11 11 -12 15 -40 15 -120 l0 -104 -30
0 -30 0 0 90 c0 75 -3 92 -16 97 -37 14 -49 -10 -52 -101 l-3 -86 -29 0 -30 0
0 175 0 175 30 0 30 0 0 -65z m530 4 c0 -58 1 -60 23 -53 76 26 107 -8 107
-118 0 -71 -2 -81 -26 -105 -20 -20 -31 -24 -52 -18 -15 4 -46 6 -69 5 l-43
-1 0 176 0 175 30 0 30 0 0 -61z m-1480 -9 c0 -38 2 -40 30 -40 25 0 30 -4 30
-25 0 -21 -5 -25 -30 -25 l-31 0 3 -67 c3 -66 4 -68 31 -71 21 -3 27 -8 23
-19 -3 -8 -6 -19 -6 -24 0 -16 -73 -10 -92 8 -14 13 -18 31 -18 90 0 66 -2 75
-20 80 -13 3 -20 14 -20 29 0 17 6 24 20 24 16 0 20 7 20 33 0 40 6 47 37 47
20 0 23 -5 23 -40z m-2096 -61 c24 -23 34 -121 17 -172 -15 -44 -59 -66 -97
-48 -14 6 -27 11 -29 11 -3 0 -5 -30 -5 -66 l0 -65 -27 3 -28 3 -3 179 -2 179
37 -5 c21 -3 47 -2 58 3 26 10 55 2 79 -22z m405 20 c44 -16 51 -35 51 -143
l0 -96 -47 -1 c-27 0 -60 -1 -75 -1 -40 -1 -58 19 -58 63 0 43 20 63 83 80 28
7 37 15 35 27 -5 26 -48 28 -55 3 -4 -14 -13 -21 -29 -21 -65 0 -15 96 52 99
6 1 25 -4 43 -10z m290 0 c38 -14 51 -35 51 -88 l0 -41 -61 0 c-60 0 -60 0
-57 -27 3 -32 44 -46 54 -19 4 10 18 16 35 16 35 0 39 -25 10 -61 -15 -19 -29
-24 -66 -24 -39 0 -51 5 -71 28 -20 24 -24 39 -24 96 0 75 21 116 63 124 12 2
25 5 28 6 3 0 20 -4 38 -10z m198 0 c32 -12 43 -26 43 -56 0 -31 -45 -33 -53
-3 -7 26 -47 27 -47 1 0 -11 12 -23 30 -31 78 -32 101 -82 61 -131 -15 -19
-29 -24 -66 -24 -37 0 -51 5 -66 24 -29 36 -25 61 11 61 24 0 30 -4 30 -21 0
-15 5 -20 22 -17 40 5 31 32 -19 58 -91 48 -80 135 19 149 4 1 19 -4 35 -10z
m191 0 c29 -10 59 -59 45 -73 -15 -15 -51 -5 -56 15 -4 13 -12 20 -24 17 -29
-5 -21 -32 15 -50 73 -36 92 -81 53 -129 -15 -19 -29 -24 -66 -24 -37 0 -51 5
-66 24 -29 36 -25 61 10 61 21 0 30 -6 34 -21 7 -25 40 -22 45 3 2 12 -11 24
-43 39 -74 35 -86 106 -22 134 39 17 37 17 75 4z m211 0 c17 -6 36 -19 41 -29
6 -10 10 -62 10 -115 l0 -97 -32 3 c-18 1 -48 -1 -66 -5 -50 -12 -82 13 -82
64 0 44 20 64 83 81 28 7 37 15 35 27 -5 25 -45 27 -58 3 -13 -24 -48 -28 -56
-6 -8 20 21 64 49 75 30 12 39 12 76 -1z m318 -21 c17 -16 23 -33 23 -65 l0
-43 -61 0 c-60 0 -60 0 -57 -27 3 -32 44 -46 54 -19 8 20 64 22 64 2 0 -69
-102 -98 -158 -45 -19 17 -22 31 -22 98 0 68 3 80 23 98 12 11 29 23 37 26 25
10 73 -2 97 -25z m1001 -4 c18 -21 22 -36 22 -98 0 -65 -3 -75 -26 -97 -35
-33 -104 -34 -136 -2 -27 28 -37 127 -17 174 24 60 111 73 157 23z m240 8 c8
-10 12 -52 12 -119 l0 -103 -30 0 -30 0 0 90 c0 75 -3 92 -17 97 -32 12 -53
-32 -53 -113 l0 -74 -30 0 -30 0 0 120 0 120 29 0 c16 0 31 -5 33 -11 2 -6 14
-5 33 5 33 17 63 13 83 -12z m529 -4 c17 -16 23 -33 23 -65 l0 -43 -61 0 c-60
0 -60 0 -57 -27 3 -32 44 -46 54 -19 4 10 18 16 35 16 22 0 29 -5 29 -20 0
-42 -64 -79 -115 -66 -52 13 -65 39 -65 124 0 69 3 81 23 99 12 11 29 23 37
26 25 10 73 -2 97 -25z m540 8 c6 -6 13 -57 16 -118 l5 -108 -34 0 -34 0 0 90
c0 72 -3 92 -15 96 -33 13 -45 -15 -45 -102 l0 -84 -35 0 -35 0 0 120 0 120
35 0 c19 0 35 -4 35 -9 0 -6 12 -3 28 4 28 15 58 12 79 -9z m218 -7 c17 -16
21 -35 23 -120 l4 -100 -44 1 c-23 1 -54 -1 -68 -5 -35 -9 -80 27 -80 64 0 39
19 60 70 75 33 10 46 19 48 35 4 28 -33 29 -50 1 -12 -19 -48 -27 -60 -14 -15
14 11 60 43 77 40 20 84 15 114 -14z m400 16 c37 -15 55 -46 55 -96 0 -29 0
-29 -59 -29 -65 0 -73 -5 -64 -38 6 -26 53 -32 53 -7 0 11 11 15 36 15 32 0
35 -2 29 -22 -4 -13 -18 -34 -33 -47 -21 -19 -33 -22 -65 -18 -59 8 -80 35
-85 107 -5 75 11 118 52 136 39 17 40 17 81 -1z m198 1 c15 -8 27 -11 27 -5 0
5 14 9 31 9 l30 0 -3 -154 c-3 -134 -5 -157 -22 -175 -42 -46 -144 -35 -166
19 -7 16 -9 34 -5 39 10 18 44 12 57 -9 27 -42 78 -15 78 41 0 18 -3 20 -12
11 -7 -7 -29 -12 -49 -12 -56 0 -79 34 -79 116 0 72 13 107 44 122 29 14 37
14 69 -2z m285 -22 c19 -22 22 -36 22 -120 l0 -95 -42 1 c-24 1 -55 -1 -70 -5
-21 -6 -32 -2 -52 18 -48 48 -29 99 44 121 33 10 46 19 48 35 4 28 -33 29 -50
1 -12 -19 -48 -27 -60 -14 -15 14 11 60 43 77 43 22 86 16 117 -19z m-3048
-94 l0 -120 -35 0 -35 0 0 113 c0 63 3 117 7 120 3 4 19 7 35 7 l28 0 0 -120z
m2271 103 c0 -10 8 -43 18 -73 l17 -55 19 73 c18 70 20 72 51 72 l32 0 -24
-82 c-79 -281 -76 -273 -113 -276 -28 -3 -33 -1 -27 14 29 76 29 101 -4 209
-17 59 -34 113 -37 121 -4 10 4 14 31 14 27 0 36 -4 37 -17z"/>
<path d="M6613 9773 c-20 -4 -23 -11 -23 -51 l0 -47 85 0 85 0 0 46 c0 40 -3
48 -22 53 -25 6 -90 6 -125 -1z"/>
<path d="M7100 8320 c-41 -16 -131 -48 -199 -72 -68 -24 -126 -49 -128 -55 -3
-7 4 -36 16 -65 11 -29 41 -120 67 -203 25 -82 77 -249 116 -370 38 -121 77
-242 85 -270 28 -88 25 -86 86 -66 l52 18 3 556 c2 443 0 557 -10 556 -7 -1
-47 -14 -88 -29z"/>
<path d="M6200 8000 c-102 -38 -318 -115 -480 -173 -162 -58 -388 -138 -502
-178 -115 -41 -208 -78 -208 -83 0 -5 14 -54 31 -108 30 -97 31 -100 57 -95
15 3 151 51 302 107 151 56 295 109 320 117 25 9 49 19 53 23 4 4 0 37 -9 74
-9 37 -15 68 -13 70 2 2 65 22 139 45 439 138 550 176 550 190 0 31 -25 81
-40 80 -8 -1 -98 -32 -200 -69z"/>
<path d="M6390 7606 c-135 -46 -357 -123 -495 -171 -137 -47 -365 -125 -505
-172 -140 -47 -256 -86 -257 -87 -1 -1 11 -42 27 -92 36 -110 86 -281 93 -314
3 -14 14 -47 24 -75 18 -45 22 -50 50 -49 16 1 203 58 414 127 211 69 488 158
614 197 437 136 460 145 459 166 -1 10 -27 100 -58 199 -31 99 -68 216 -82
260 -14 44 -29 83 -33 87 -3 4 -117 -30 -251 -76z"/>
<path d="M4530 7404 c-96 -35 -206 -74 -245 -88 -387 -136 -580 -207 -587
-214 -5 -5 45 -13 119 -20 154 -14 195 -24 235 -63 17 -16 32 -29 33 -29 8 0
738 269 742 274 16 16 -81 200 -107 202 -8 1 -94 -27 -190 -62z"/>
<path d="M3980 6791 c-470 -159 -856 -293 -858 -299 -8 -24 87 -116 186 -178
171 -109 404 -148 652 -109 106 16 138 25 260 67 47 17 93 32 103 35 14 5 17
18 17 94 l0 89 138 1 c115 1 234 13 182 18 -11 1 -8 8 11 24 31 27 95 116 127
174 34 62 62 176 69 281 6 86 5 92 -13 91 -10 0 -404 -130 -874 -288z"/>
<path d="M3665 6936 c-56 -25 -167 -57 -198 -58 -18 -1 -47 -10 -66 -20 -43
-24 -108 -48 -241 -88 -58 -18 -109 -36 -114 -41 -6 -5 -18 -9 -28 -9 -10 0
-18 -6 -18 -13 0 -25 41 -99 53 -94 7 2 176 64 377 137 201 73 370 137 375
143 7 7 6 8 -1 4 -6 -3 -18 7 -28 24 -19 33 -58 38 -111 15z"/>
<path d="M1410 6412 c-69 -23 -181 -95 -242 -157 -43 -42 -108 -128 -108 -141
0 -3 -8 -18 -18 -32 -31 -46 -72 -152 -93 -239 -14 -64 -19 -120 -19 -236 0
-189 19 -275 97 -436 49 -102 65 -124 142 -202 70 -70 103 -94 171 -127 47
-23 110 -46 140 -53 77 -16 214 -7 270 19 25 11 57 23 71 27 21 5 35 26 74
108 108 233 153 408 156 622 3 153 -17 355 -38 388 -4 6 -10 27 -14 46 -8 41
-31 103 -40 111 -12 10 -40 71 -37 83 3 17 -41 107 -55 113 -7 2 -13 16 -14
30 -3 59 -80 86 -258 91 -105 2 -141 -1 -185 -15z"/>
<path d="M4040 5246 c-145 -29 -156 -34 -205 -100 -15 -19 -29 -26 -55 -26
-83 0 -108 -11 -165 -69 -88 -90 -103 -111 -140 -199 -42 -100 -44 -129 -12
-137 46 -11 739 -125 758 -125 10 0 19 7 19 15 0 29 46 48 105 43 45 -4 60
-10 85 -36 16 -18 30 -38 30 -46 0 -18 11 -21 130 -41 190 -32 367 -69 377
-78 9 -10 -32 -56 -52 -59 -17 -3 110 -35 270 -68 22 -5 47 -11 55 -14 36 -14
43 8 43 131 0 94 -4 133 -22 188 -21 68 -60 165 -71 175 -3 3 -17 23 -31 46
-36 55 -104 121 -196 190 l-78 59 -87 3 -87 4 -3 36 c-3 34 -5 36 -68 54 -184
53 -473 80 -600 54z"/>
<path d="M5671 4943 c-6 -21 -11 -48 -11 -60 0 -29 -20 -112 -32 -136 -5 -10
-6 -21 -4 -26 3 -4 1 -35 -4 -67 -6 -32 -12 -79 -15 -104 -3 -25 -10 -63 -15
-85 -5 -22 -16 -78 -24 -125 -37 -203 -48 -282 -40 -289 5 -4 99 -26 209 -49
858 -178 1218 -252 1235 -252 15 0 21 9 26 40 9 52 8 54 -24 63 -28 7 -250 47
-412 73 -52 8 -123 22 -157 30 -34 8 -74 14 -88 14 -14 0 -28 6 -31 14 -5 12
29 230 40 262 3 8 71 0 223 -26 120 -21 303 -52 406 -70 105 -18 192 -28 197
-24 22 23 43 198 47 390 l4 201 -63 12 c-35 6 -207 36 -383 67 -176 31 -394
69 -485 84 -91 16 -219 39 -285 50 -66 12 -145 25 -175 30 -30 4 -72 11 -92
15 -36 7 -37 6 -47 -32z"/>
<path d="M3410 4546 l0 -64 38 -6 c35 -7 247 -50 492 -101 464 -97 552 -115
563 -115 6 0 -10 14 -38 32 -60 37 -138 90 -145 97 -50 54 -66 60 -245 95
-434 87 -639 126 -652 126 -9 0 -13 -17 -13 -64z"/>
</g>
</svg>
