<?xml version="1.0" standalone="no"?>
<!DOCTYPE svg PUBLIC "-//W3C//DTD SVG 20010904//EN"
 "http://www.w3.org/TR/2001/REC-SVG-20010904/DTD/svg10.dtd">
<svg version="1.0" xmlns="http://www.w3.org/2000/svg"
 width="720.000000pt" height="1280.000000pt" viewBox="0 0 720.000000 1280.000000"
 preserveAspectRatio="xMidYMid meet">
<metadata>
Created by potrace 1.16, written by Peter Selinger 2001-2019
</metadata>
<g transform="translate(0.000000,1280.000000) scale(0.100000,-0.100000)"
fill="#000000" stroke="none">
<path d="M0 6400 l0 -6400 3600 0 3600 0 0 1281 0 1282 -35 43 c-59 72 -63 74
-91 64 -14 -6 -48 -31 -76 -58 -86 -81 -144 -99 -231 -67 -31 10 -60 11 -139
4 -98 -9 -101 -9 -144 16 -86 50 -88 70 -44 321 56 319 52 303 101 356 32 35
32 31 13 149 -6 36 5 71 43 143 11 20 16 65 18 162 2 107 6 136 19 149 18 19
21 61 5 71 -7 4 -9 23 -5 52 4 31 3 43 -4 36 -11 -11 -58 -158 -67 -209 -3
-16 -9 -34 -12 -40 -9 -13 -25 -70 -47 -165 -20 -88 -59 -205 -104 -310 -17
-41 -34 -83 -37 -93 -8 -25 -19 -21 -33 12 -6 16 -22 44 -35 61 l-24 32 -18
-22 c-10 -12 -22 -27 -28 -34 -5 -6 -32 -38 -60 -71 -27 -32 -77 -87 -110
-120 -60 -62 -220 -205 -228 -205 -3 0 -8 11 -11 25 -3 13 -15 29 -26 35 -19
10 -19 13 -5 40 23 45 20 70 -10 70 -17 0 -28 7 -34 23 -11 28 -2 119 13 129
5 4 15 26 21 50 8 33 15 44 33 46 12 2 22 8 22 14 0 5 6 8 13 5 9 -3 14 6 16
32 3 45 18 63 32 38 6 -9 14 -15 20 -12 12 8 12 45 -2 45 -5 0 -7 5 -3 11 5 8
8 8 14 0 5 -9 10 -8 19 2 6 8 21 13 31 10 11 -3 20 0 20 6 0 6 9 11 20 11 11
0 20 5 20 10 0 6 11 10 24 10 14 0 33 12 47 30 13 16 30 30 37 30 6 0 12 5 12
10 0 6 5 10 11 10 6 0 16 6 24 12 7 7 36 31 64 53 28 22 54 48 57 57 3 10 10
18 15 18 5 0 9 7 9 16 0 9 9 24 19 33 21 19 27 91 8 91 -7 0 -5 4 3 10 11 7
16 37 21 112 6 120 23 164 73 199 20 13 38 31 41 41 3 9 12 19 20 22 39 14 -1
345 -76 641 -6 22 -14 58 -19 80 -17 77 -28 121 -43 170 -9 28 -25 84 -37 125
-28 96 -128 395 -175 525 -20 55 -52 143 -70 195 -125 355 -135 380 -144 380
-3 0 -64 -21 -136 -46 -252 -89 -409 -144 -412 -144 -2 0 -2 -3 0 -7 3 -5 -8
-9 -24 -10 -27 -2 -59 -22 -59 -37 0 -3 11 -6 25 -6 34 0 49 -36 29 -67 -8
-12 -14 -36 -14 -53 0 -16 -4 -30 -9 -30 -5 0 -14 -13 -21 -30 -7 -16 -18 -30
-25 -30 -25 0 -45 12 -45 27 0 10 -6 12 -22 7 -67 -20 -68 -21 -68 -69 0 -25
7 -61 14 -80 19 -45 54 -47 47 -2 0 4 6 7 14 7 13 0 19 19 18 57 -1 7 3 13 8
13 5 0 9 -9 9 -20 0 -11 5 -20 10 -20 6 0 10 -7 10 -15 0 -8 5 -15 10 -15 6 0
10 -7 10 -15 0 -8 7 -15 15 -15 8 0 15 5 15 12 0 6 7 3 15 -8 8 -10 15 -33 15
-51 0 -17 7 -38 15 -47 8 -8 15 -19 15 -25 0 -6 7 -11 15 -11 8 0 15 -4 15
-10 0 -5 11 -12 24 -16 14 -3 44 -31 68 -61 24 -30 55 -69 70 -86 15 -18 28
-36 28 -40 0 -13 27 -37 41 -37 16 0 38 -30 39 -52 0 -10 -7 -18 -16 -18 -21
0 -10 -32 22 -67 18 -20 24 -22 24 -9 0 28 20 17 27 -15 3 -17 12 -33 19 -36
8 -3 14 -11 14 -19 0 -16 -16 -19 -25 -4 -9 15 -25 12 -25 -5 0 -8 4 -15 9
-15 5 0 11 -6 14 -14 4 -10 0 -12 -14 -9 -10 3 -19 2 -19 -1 0 -12 28 -75 39
-88 6 -7 20 -24 31 -38 19 -25 19 -25 20 -3 0 12 -6 26 -12 30 -20 13 -49 71
-39 77 12 8 61 -90 61 -121 0 -14 -6 -23 -16 -23 -11 0 -14 -6 -8 -22 7 -26
39 -73 66 -100 23 -23 24 -50 1 -41 -13 5 -15 2 -10 -12 4 -9 2 -24 -4 -31 -6
-8 -8 -14 -4 -14 5 0 0 -9 -9 -19 -12 -13 -14 -21 -6 -26 6 -4 16 -18 21 -32
5 -14 12 -23 16 -20 3 4 0 20 -7 37 -15 36 -4 53 16 26 21 -30 28 -11 8 23
-10 17 -15 34 -11 38 8 7 56 -45 57 -61 0 -5 7 -18 17 -28 22 -25 8 -36 -17
-13 -17 15 -20 16 -20 3 0 -9 7 -18 15 -22 8 -3 15 -17 15 -30 0 -18 -4 -24
-15 -20 -8 4 -15 12 -15 20 0 17 -17 19 -22 2 -3 -7 3 -19 13 -28 22 -19 36
-89 15 -71 -20 16 -29 -2 -21 -39 4 -19 3 -30 -4 -30 -6 0 -11 -8 -11 -19 0
-10 -6 -31 -14 -46 -9 -17 -12 -36 -7 -49 10 -27 -6 -89 -22 -83 -7 2 -15 26
-18 53 l-6 49 -1 -47 c-2 -55 -18 -102 -32 -93 -5 3 -10 1 -10 -5 0 -26 -147
-146 -242 -197 -23 -12 -58 -34 -79 -49 -21 -14 -55 -28 -76 -31 l-38 -5 -37
119 c-42 132 -97 352 -123 488 -9 50 -23 109 -31 133 -8 24 -16 60 -19 80 -7
58 -22 132 -39 194 -9 32 -22 82 -30 110 -7 29 -22 82 -34 118 -42 132 -92
327 -92 357 0 17 6 36 14 42 8 7 17 23 20 36 4 15 11 22 20 19 8 -3 32 4 55
16 39 19 41 23 41 65 0 24 -4 47 -10 50 -5 3 -10 15 -10 27 0 17 5 20 29 15
26 -5 29 -3 40 32 18 60 15 74 -14 69 -13 -3 -48 -1 -77 3 -33 5 -54 5 -58 -1
-4 -6 -16 -2 -29 9 -13 11 -32 23 -42 26 -13 4 -19 16 -19 35 l0 28 -82 -25
c-46 -14 -209 -70 -363 -125 -154 -55 -341 -122 -415 -148 -317 -111 -347
-124 -345 -148 1 -9 10 -34 20 -55 16 -34 17 -44 5 -95 -15 -63 -35 -93 -56
-85 -17 6 -27 -19 -44 -110 -20 -108 -37 -93 -31 29 2 27 -3 45 -13 53 -21 17
-20 29 4 78 11 23 24 63 30 89 6 27 18 59 26 72 20 30 5 29 -77 -4 -35 -15
-91 -36 -124 -48 -69 -25 -83 -46 -30 -46 19 0 35 -4 35 -10 0 -5 -7 -10 -15
-10 -8 0 -15 -4 -15 -10 0 -5 5 -10 10 -10 6 0 10 -9 10 -19 0 -11 5 -21 11
-23 9 -3 9 -10 0 -26 -7 -13 -16 -20 -22 -17 -5 4 -9 -3 -9 -15 0 -12 4 -19 9
-16 16 10 38 -39 46 -101 9 -77 -10 -180 -29 -163 -20 15 -38 -12 -30 -44 3
-14 3 -37 0 -50 -5 -22 -8 -23 -41 -12 -38 13 -115 83 -115 104 0 8 -17 30
-39 51 l-38 37 4 103 c4 99 3 103 -15 99 -14 -4 -23 1 -30 17 -13 29 6 49 40
42 21 -4 20 -4 -4 -6 -19 -1 -26 -5 -22 -15 7 -18 42 -10 71 16 12 11 26 17
32 13 6 -3 11 2 11 13 0 11 11 24 26 31 37 17 25 23 -19 9 -20 -6 -33 -16 -30
-21 3 -6 1 -7 -5 -3 -6 3 -57 -10 -114 -30 -57 -20 -119 -40 -138 -46 -19 -6
-39 -14 -45 -18 -5 -4 -35 -15 -65 -23 -30 -9 -109 -34 -174 -56 -178 -61
-191 -57 -140 43 18 38 34 76 34 86 0 10 16 37 36 61 19 23 42 55 50 71 8 15
18 28 23 28 5 0 14 20 21 45 7 25 16 45 19 45 4 0 15 41 26 90 10 50 22 93 26
96 11 7 12 24 1 24 -4 0 -39 -44 -77 -97 -86 -120 -215 -257 -360 -380 l-109
-94 3 -87 c6 -203 -35 -377 -122 -527 -17 -27 -49 -86 -72 -130 -23 -44 -60
-111 -82 -150 -22 -38 -66 -119 -98 -180 -32 -60 -72 -135 -91 -165 -44 -74
-52 -118 -25 -149 12 -13 21 -30 21 -37 0 -21 30 -104 57 -159 14 -27 31 -75
39 -105 21 -77 38 -98 100 -127 91 -41 209 -28 272 30 12 11 29 44 38 71 20
68 44 214 37 232 -9 24 16 15 33 -12 39 -58 118 -68 164 -19 25 27 32 92 17
153 -9 32 -8 32 27 32 20 0 36 -4 36 -10 0 -5 24 -10 54 -10 30 0 58 -4 61
-10 4 -6 -13 -10 -44 -10 -45 0 -51 -3 -51 -21 0 -11 5 -29 10 -40 7 -11 7
-19 1 -19 -5 0 -22 -13 -38 -30 -15 -16 -33 -30 -39 -30 -23 0 -41 -47 -47
-122 -8 -88 -2 -93 55 -58 23 14 51 20 90 20 31 0 70 6 85 12 33 16 103 81
103 97 0 7 5 9 10 6 6 -4 10 -12 9 -18 -5 -32 55 -147 99 -190 39 -38 106 -64
118 -46 11 18 32 8 44 -21 7 -17 16 -30 21 -30 20 0 52 52 134 216 48 96 96
179 106 184 42 23 116 -2 92 -32 -7 -8 -17 -74 -23 -148 -8 -91 -18 -149 -31
-177 -10 -23 -19 -46 -19 -52 0 -25 -44 -121 -56 -121 -9 0 -14 -11 -14 -27 0
-58 -54 -176 -109 -237 -21 -22 -49 -61 -64 -86 -14 -25 -46 -66 -70 -91 -24
-25 -57 -64 -73 -85 -15 -21 -49 -58 -74 -82 -25 -23 -44 -46 -43 -51 1 -5
-18 -16 -42 -26 -25 -9 -45 -20 -45 -25 0 -5 -9 -11 -19 -15 -10 -3 -45 -38
-77 -77 -33 -39 -65 -76 -71 -84 -7 -7 -13 -17 -13 -23 0 -5 -4 -13 -10 -16
-5 -3 -7 0 -4 9 4 12 -13 14 -110 15 -69 1 -117 -3 -121 -9 -3 -5 -14 -10 -24
-10 -9 0 -22 -5 -28 -11 -11 -11 -8 -25 22 -108 4 -9 9 -10 18 -3 6 5 28 13
47 17 19 4 41 11 50 15 48 24 93 40 111 40 11 0 36 7 55 15 29 12 34 18 29 35
-6 20 9 28 20 10 10 -16 26 -11 24 7 -4 49 11 58 30 17 10 -23 15 -25 51 -19
33 6 41 4 48 -12 12 -29 46 -83 52 -83 4 0 12 16 19 35 20 55 41 40 41 -31 0
-24 -5 -34 -15 -34 -11 0 -15 -12 -15 -46 0 -27 -4 -43 -10 -39 -5 3 -10 1
-10 -4 0 -8 -399 -11 -1325 -11 l-1324 0 5 98 c4 87 13 170 30 272 20 131 111
427 159 520 16 31 21 60 7 44 -17 -18 -81 -181 -116 -294 -56 -180 -92 -388
-99 -575 l-2 -60 -112 -3 -113 -3 1 983 c1 541 4 1021 8 1068 5 50 9 67 9 42
2 -57 22 -45 22 13 0 52 22 70 74 62 67 -11 142 -49 130 -68 -3 -5 -1 -9 3 -9
5 0 14 -12 20 -27 11 -27 11 -27 18 -6 4 12 14 24 22 27 12 5 14 17 8 61 l-6
55 36 0 c22 0 50 -10 73 -25 20 -14 46 -25 57 -25 15 0 26 -16 49 -71 26 -64
30 -70 55 -67 23 3 26 7 23 35 -2 17 1 34 7 38 6 3 11 19 11 35 0 19 7 33 21
40 12 7 18 18 15 26 -10 25 4 43 32 40 33 -4 40 -31 13 -47 -16 -10 -17 -17
-9 -32 5 -11 11 -41 12 -68 l1 -49 41 0 c39 0 41 1 36 28 -4 22 -2 25 9 14 7
-6 27 -12 44 -13 29 -1 29 -1 5 -9 -22 -7 -23 -8 -4 -9 12 -1 36 2 53 5 25 5
29 9 20 20 -9 11 -8 18 2 30 8 10 13 42 14 80 0 35 3 64 6 64 3 0 12 -11 19
-25 17 -32 30 -32 30 0 0 34 23 105 34 105 4 0 5 -21 0 -47 -11 -62 -9 -132 4
-145 7 -7 12 14 17 65 9 95 25 123 25 45 0 -59 8 -70 31 -42 11 13 14 9 25
-33 7 -26 13 -58 14 -70 0 -18 6 -23 25 -23 14 0 25 5 25 10 0 6 13 10 29 10
16 0 31 5 33 11 3 9 10 8 25 -1 17 -11 38 -10 129 9 92 18 201 48 212 56 3 2
-19 123 -49 265 -23 109 -124 468 -145 518 -14 32 -13 34 6 39 11 3 73 30 138
60 64 30 155 69 203 87 180 71 578 289 650 358 8 7 32 25 54 40 22 15 72 57
110 95 53 51 78 84 99 133 41 96 78 170 103 207 12 19 24 47 28 63 4 17 13 30
20 30 16 0 25 22 25 60 0 15 7 33 15 40 8 7 15 19 15 27 0 7 7 16 15 19 8 3
17 25 21 49 3 24 15 52 25 61 10 9 19 25 19 34 0 9 10 22 23 28 21 10 21 11 2
12 -18 1 -19 1 -2 11 9 5 17 17 17 25 0 9 5 12 12 8 7 -4 8 -3 4 4 -10 16 4
63 17 55 6 -4 8 3 4 19 -4 14 -4 28 0 32 4 4 6 26 5 49 -2 28 0 38 6 28 16
-22 21 59 28 409 8 396 1 503 -90 1465 -14 143 -28 292 -32 330 -7 74 -23 123
-24 72 0 -25 -2 -26 -22 -15 -13 7 -25 15 -28 18 -3 3 -17 6 -32 7 -21 1 -28
-4 -28 -18 0 -10 -4 -19 -10 -19 -14 0 -13 -37 2 -42 14 -5 12 -118 -2 -132
-6 -6 -10 -25 -10 -44 0 -48 -29 -39 -60 20 -14 26 -35 53 -47 59 -12 7 -20
16 -16 22 8 13 -77 92 -107 100 -14 3 -31 19 -37 34 -16 34 -73 73 -110 74
l-28 1 25 8 c22 7 20 8 -15 9 -37 1 -326 -24 -570 -48 -122 -13 -697 -66 -930
-86 -93 -9 -210 -19 -260 -25 -49 -5 -146 -14 -215 -20 -69 -6 -187 -18 -264
-26 -76 -8 -145 -14 -152 -14 -11 0 -14 40 -14 220 l0 220 2336 0 2337 0 26
-27 26 -28 3 28 3 27 1225 0 1224 0 0 1775 0 1775 -3600 0 -3600 0 0 -6400z
m6795 3679 c153 -68 200 -265 96 -404 -25 -34 -27 -41 -14 -50 23 -17 -3 -53
-49 -67 -30 -9 -45 -8 -80 5 -34 13 -55 15 -98 8 -30 -5 -63 -13 -73 -16 -53
-21 -137 34 -107 70 11 13 9 19 -8 38 -85 90 -82 268 6 360 77 82 216 105 327
56z m-652 5 c52 -18 116 -76 143 -132 28 -55 26 -174 -4 -229 -50 -95 -136
-143 -256 -143 -209 0 -331 220 -222 402 25 42 43 59 94 85 54 28 75 33 131
33 37 0 88 -7 114 -16z m-5834 -111 c15 -56 71 -300 71 -307 0 -3 -15 -6 -33
-6 -28 0 -34 4 -42 32 -9 29 -14 32 -50 31 -36 0 -40 -3 -47 -31 -8 -28 -13
-32 -42 -32 l-34 0 14 58 c7 31 26 110 41 175 l27 117 43 0 c40 0 43 -2 52
-37z m401 -55 l1 -93 30 38 c23 27 39 37 60 37 16 0 29 -3 29 -6 0 -4 -16 -28
-35 -53 -30 -41 -33 -50 -21 -67 7 -10 25 -40 40 -66 l27 -48 -35 0 c-30 0
-38 5 -57 40 -13 22 -26 40 -31 40 -4 0 -8 -18 -8 -40 0 -38 -2 -40 -30 -40
l-30 0 0 175 0 175 30 0 30 0 0 -92z m1740 -83 l0 -176 -42 1 c-24 1 -55 -1
-69 -5 -19 -5 -33 -1 -55 18 -28 24 -29 29 -29 106 1 69 4 85 22 102 22 22 54
28 91 15 21 -7 22 -5 22 53 l0 61 30 0 30 0 0 -175z m452 83 l3 -92 25 37 c20
30 31 37 58 37 30 0 42 -12 24 -24 -5 -3 -21 -23 -36 -44 l-27 -40 40 -66 41
-66 -35 0 c-30 0 -38 5 -57 40 -13 22 -26 40 -30 40 -5 0 -8 -18 -8 -40 0 -39
-1 -40 -35 -40 l-35 0 0 168 c0 93 3 172 7 175 3 4 19 7 34 7 l28 0 3 -92z
m728 28 l0 -65 35 15 c28 11 40 12 58 3 34 -18 37 -27 37 -136 l0 -103 -30 0
-30 0 0 90 c0 75 -3 92 -16 97 -37 14 -49 -10 -52 -101 l-3 -86 -29 0 -30 0 0
175 0 175 30 0 30 0 0 -64z m530 3 c0 -58 1 -60 23 -53 76 26 107 -8 107 -118
0 -71 -2 -81 -26 -105 -21 -21 -31 -24 -57 -18 -18 4 -49 6 -69 6 l-38 -2 0
176 0 175 30 0 30 0 0 -61z m-1482 -11 c3 -35 6 -38 33 -38 24 0 29 -4 29 -25
0 -21 -5 -25 -30 -25 l-31 0 3 -67 c3 -66 4 -68 31 -71 21 -3 27 -8 23 -19 -3
-8 -6 -19 -6 -24 0 -16 -73 -10 -92 8 -14 13 -18 31 -18 90 0 66 -2 75 -20 80
-13 3 -20 14 -20 29 0 17 6 24 20 24 17 0 20 7 20 41 0 38 1 40 28 37 23 -3
27 -8 30 -40z m-2094 -58 c24 -24 34 -122 17 -173 -15 -44 -59 -66 -97 -48
-14 6 -27 11 -29 11 -3 0 -5 -29 -5 -65 l0 -65 -30 0 -30 0 0 181 0 182 39 -6
c21 -2 45 -1 52 4 19 12 60 2 83 -21z m402 20 c8 0 23 -9 34 -20 17 -17 20
-33 20 -121 l0 -101 -32 3 c-18 1 -48 -1 -66 -5 -50 -12 -82 13 -82 64 0 44
20 64 83 81 28 7 37 15 35 27 -5 25 -45 27 -58 3 -13 -25 -48 -28 -57 -5 -13
34 56 90 95 78 8 -2 20 -4 28 -4z m293 -1 c38 -14 51 -35 51 -88 l0 -41 -61 0
c-60 0 -60 0 -57 -27 3 -32 44 -46 54 -19 4 10 18 16 35 16 35 0 39 -25 10
-61 -27 -34 -99 -34 -135 0 -23 22 -26 32 -26 96 0 79 20 120 63 128 12 2 25
5 28 6 3 0 20 -4 38 -10z m199 0 c29 -10 59 -59 45 -73 -15 -15 -51 -5 -56 15
-4 13 -12 20 -24 17 -31 -6 -27 -34 7 -48 78 -32 101 -82 61 -131 -15 -19 -29
-24 -66 -24 -37 0 -51 5 -66 24 -29 36 -25 61 11 61 24 0 30 -4 30 -21 0 -15
5 -20 22 -17 42 6 33 36 -16 58 -54 23 -75 57 -60 98 9 25 45 52 70 52 6 0 25
-5 42 -11z m219 -13 c6 -6 13 -22 15 -36 2 -21 -2 -26 -23 -28 -20 -2 -28 2
-32 18 -4 14 -12 21 -24 18 -29 -5 -21 -32 15 -50 73 -36 92 -81 53 -129 -15
-19 -29 -24 -66 -24 -37 0 -51 5 -66 24 -29 36 -25 61 10 61 21 0 30 -6 34
-21 7 -25 40 -22 45 4 3 12 -9 23 -42 37 -51 21 -70 54 -60 97 12 45 104 65
141 29z m182 13 c17 -6 36 -19 41 -29 6 -10 10 -62 10 -116 l0 -97 -40 6 c-22
3 -43 1 -46 -4 -8 -14 -47 -11 -72 7 -16 11 -22 25 -22 54 0 44 20 64 83 81
28 7 37 15 35 27 -5 25 -45 27 -58 3 -13 -25 -48 -28 -57 -5 -8 23 16 62 46
73 35 13 43 13 80 0z m319 -22 c16 -15 22 -32 22 -64 l0 -43 -61 0 c-60 0 -60
0 -57 -27 3 -32 44 -46 54 -19 8 20 64 22 64 2 0 -69 -102 -98 -158 -45 -19
17 -22 31 -22 98 0 68 3 80 23 98 12 11 29 23 37 26 25 9 73 -4 98 -26z m1000
-3 c19 -21 22 -36 22 -99 0 -70 -1 -74 -32 -100 -27 -23 -39 -26 -71 -22 -59
8 -80 35 -85 107 -3 36 1 72 9 91 24 60 111 73 157 23z m240 9 c8 -11 12 -53
12 -120 l0 -103 -30 0 -30 0 0 90 c0 75 -3 92 -17 97 -32 12 -53 -32 -53 -113
l0 -74 -30 0 -30 0 0 120 0 120 29 0 c16 0 31 -5 33 -12 3 -8 11 -7 29 5 27
20 67 15 87 -10z m530 -9 c15 -17 22 -38 22 -65 l0 -39 -61 0 c-60 0 -60 0
-57 -27 3 -32 44 -46 54 -19 4 10 18 16 35 16 35 0 40 -29 9 -60 -27 -27 -63
-34 -105 -20 -46 15 -55 34 -55 123 0 64 3 76 23 94 12 11 29 23 37 26 28 11
75 -3 98 -29z m542 10 c11 -11 15 -39 15 -117 l0 -102 -32 -3 -33 -3 0 91 c0
72 -3 92 -15 96 -33 13 -45 -15 -45 -102 l0 -84 -35 0 -35 0 0 120 0 120 35 0
c19 0 35 -4 35 -9 0 -6 12 -3 28 4 29 16 58 12 82 -11z m215 -5 c17 -16 21
-36 23 -120 l4 -100 -44 1 c-23 1 -54 -1 -68 -5 -34 -9 -80 27 -80 61 0 42 17
62 70 79 37 12 50 22 50 36 0 26 -36 25 -52 -1 -12 -19 -48 -27 -61 -14 -3 3
-1 19 5 36 20 56 108 72 153 27z m394 20 c36 -13 61 -53 61 -99 l0 -30 -59 0
c-63 0 -76 -8 -66 -40 8 -24 55 -28 55 -5 0 11 11 15 36 15 32 0 35 -2 29 -22
-4 -13 -18 -34 -33 -47 -21 -19 -33 -22 -65 -18 -60 8 -80 35 -85 109 -5 79 9
115 50 133 41 17 38 17 77 4z m204 -3 c15 -8 27 -11 27 -5 0 5 14 9 31 9 l30
0 -3 -154 c-3 -134 -5 -157 -22 -175 -42 -46 -144 -35 -166 19 -7 16 -9 34 -5
39 10 18 44 12 57 -9 27 -42 78 -15 78 41 0 18 -3 20 -12 11 -7 -7 -29 -12
-49 -12 -56 0 -79 34 -79 116 0 72 13 107 44 122 29 14 37 14 69 -2z m285 -22
c19 -22 22 -36 22 -120 l0 -95 -42 1 c-24 1 -54 -1 -68 -5 -36 -9 -80 27 -80
65 0 27 32 70 52 70 5 0 24 7 43 14 25 11 33 19 29 30 -9 22 -41 20 -56 -4
-18 -29 -58 -27 -58 3 0 73 105 101 158 41z m-3048 -94 l0 -120 -35 0 -35 0 0
113 c0 63 3 117 7 120 3 4 19 7 35 7 l28 0 0 -120z m2280 63 c19 -90 25 -92
45 -14 18 68 20 71 48 71 28 0 29 -2 23 -33 -3 -19 -25 -99 -49 -178 l-42
-144 -34 -3 c-28 -3 -33 -1 -27 14 28 74 28 99 -3 207 -18 59 -34 113 -37 122
-5 12 2 15 28 15 34 0 35 -1 48 -57z m-3056 -1330 c8 -16 31 -44 51 -63 32
-31 65 -78 65 -95 0 -3 -13 -5 -30 -5 -16 0 -30 -5 -30 -11 0 -7 -8 -18 -17
-26 -18 -14 -141 -74 -220 -108 -24 -10 -43 -21 -43 -25 0 -4 -13 -10 -30 -13
-22 -5 -30 -12 -31 -29 -2 -45 3 -63 22 -80 20 -17 25 -34 12 -40 -5 -1 -18
-24 -30 -50 -21 -45 -22 -53 -12 -125 6 -43 15 -87 19 -98 14 -35 21 -57 26
-94 3 -20 15 -58 25 -86 11 -28 19 -75 19 -107 l0 -58 35 0 c50 0 102 -28 110
-59 3 -14 27 -47 52 -72 32 -33 44 -53 41 -69 -6 -44 -111 -99 -242 -127 -32
-6 -45 -17 -70 -55 -27 -41 -38 -49 -88 -64 -32 -9 -58 -20 -58 -25 0 -9 -42
-24 -50 -18 -3 2 -4 7 -2 12 5 15 -16 6 -48 -23 -18 -16 -40 -30 -47 -30 -7 0
-18 -9 -25 -20 -11 -17 -24 -20 -81 -20 -73 0 -97 8 -139 48 -23 21 -41 26
-114 33 -49 4 -91 7 -95 6 -10 -3 -75 71 -116 132 -81 121 -157 345 -123 366
6 3 10 25 10 48 0 23 5 49 10 57 9 13 14 11 31 -13 18 -24 26 -27 53 -21 17 3
34 11 38 17 4 7 14 2 27 -15 11 -14 33 -29 48 -33 16 -3 42 -17 60 -31 17 -13
36 -24 42 -24 5 0 16 -8 23 -17 7 -10 19 -18 26 -19 45 -4 43 3 41 -136 -3
-124 4 -173 30 -227 15 -30 52 -19 103 29 28 26 59 55 69 64 22 19 81 21 143
4 58 -15 178 2 210 30 23 21 70 37 100 33 12 -2 16 1 11 10 -9 14 -172 5 -210
-13 -13 -6 -35 -8 -49 -4 -35 9 -77 75 -71 113 3 15 7 48 11 73 4 25 17 56 29
70 36 40 45 85 45 226 0 136 -4 164 -24 164 -6 0 -16 10 -22 23 -6 12 -19 36
-28 53 -9 17 -17 46 -19 64 -3 23 -15 42 -38 62 -19 16 -45 40 -59 53 -14 14
-33 25 -42 25 -17 0 -33 33 -24 49 13 21 122 29 233 16 68 -7 73 -7 102 18 17
14 40 28 51 32 15 5 20 15 20 43 0 21 7 62 15 92 8 30 17 63 19 72 7 28 26 58
37 58 6 0 7 5 4 10 -3 6 1 10 9 10 9 0 16 5 16 10 0 6 8 10 18 10 9 1 35 9 57
20 58 28 91 26 109 -7z m-808 -387 c18 -14 17 -15 -19 -31 -30 -12 -37 -20
-32 -34 5 -16 -1 -20 -37 -26 -41 -7 -141 -56 -153 -76 -4 -5 -10 -7 -15 -4
-5 3 -18 1 -29 -4 -14 -8 -22 -7 -30 3 -15 18 30 84 89 130 35 27 58 36 99 40
30 3 56 8 59 11 10 10 48 5 68 -9z m-170 -327 c19 -7 24 -14 19 -29 -3 -10 -1
-28 4 -39 8 -14 8 -22 0 -27 -17 -10 25 -29 94 -44 51 -10 58 -14 55 -33 -4
-30 -104 -67 -183 -67 -84 1 -138 27 -165 80 -12 23 -19 48 -16 55 8 21 59 27
122 16 39 -8 61 -8 68 -1 7 7 6 10 -1 10 -7 0 -13 10 -15 23 -2 14 -10 22 -24
23 -12 1 -36 11 -53 23 -29 21 -30 24 -17 43 8 12 28 29 43 39 l28 19 8 -41
c6 -29 15 -42 33 -50z m372 -1094 c51 -40 62 -44 85 -36 14 5 28 19 32 30 5
17 15 21 45 21 21 0 41 -4 44 -9 3 -4 17 -6 30 -4 29 6 83 -23 89 -49 3 -11
-2 -22 -14 -28 -51 -28 11 -50 137 -50 93 0 109 -7 78 -32 -44 -36 -54 -50
-54 -75 0 -47 11 -71 34 -77 32 -8 88 -82 96 -127 6 -30 3 -43 -12 -59 -34
-36 -94 -59 -199 -76 -149 -23 -251 -8 -314 48 -19 16 -35 35 -35 42 -1 15
-48 49 -59 42 -13 -9 -37 25 -57 82 -13 37 -28 59 -49 72 -54 33 -77 64 -69
94 3 14 10 26 14 26 27 0 60 -23 66 -44 7 -28 38 -40 55 -20 27 32 49 6 49
-58 0 -16 5 -28 10 -28 6 0 10 26 10 58 0 31 4 72 10 91 9 31 7 37 -23 65 -46
44 -67 81 -67 116 0 16 2 30 5 30 3 0 31 -20 63 -45z m2771 -1409 c11 -13 17
-13 46 0 77 32 133 8 175 -77 17 -32 35 -59 40 -59 5 0 30 -20 55 -45 33 -31
44 -49 38 -59 -4 -8 -40 -36 -79 -63 -39 -26 -85 -64 -102 -84 l-31 -35 -9
-190 c-5 -104 -11 -195 -13 -203 -3 -10 8 -17 31 -22 18 -4 39 -14 46 -23 6
-9 13 -13 16 -10 3 2 8 -4 10 -14 4 -16 -2 -22 -33 -31 -21 -7 -43 -21 -49
-31 -6 -11 -18 -20 -28 -20 -16 -1 -16 -2 1 -14 11 -9 33 -12 62 -8 25 2 45 1
45 -4 0 -17 -31 -54 -46 -54 -22 0 -16 -17 9 -24 12 -3 41 -6 64 -6 23 0 48
-3 57 -6 25 -10 19 -54 -17 -114 l-33 -55 -68 -2 c-101 -3 -155 31 -233 147
-17 25 -41 54 -53 65 -53 48 -121 174 -164 308 -29 88 -16 207 27 247 l21 20
13 -22 c12 -22 12 -22 13 9 0 17 7 38 15 47 21 21 46 10 39 -18 -9 -38 23 -57
84 -49 46 5 52 9 52 29 0 38 -57 74 -119 74 -32 0 -50 4 -46 10 3 6 -1 13 -9
16 -18 7 -22 34 -6 34 7 0 7 6 0 20 -18 33 -33 24 -26 -15 5 -27 2 -40 -13
-56 l-19 -21 -11 20 c-15 29 -14 49 5 56 12 5 14 15 9 44 -5 30 -1 43 19 70
15 20 26 28 28 20 7 -20 36 31 51 91 22 88 101 150 136 107z m431 -341 c0 -13
-45 -48 -75 -58 -6 -2 -4 -11 5 -22 8 -10 13 -28 12 -40 -3 -24 18 -38 43 -29
9 4 15 0 16 -10 1 -9 2 -22 3 -28 1 -9 21 -13 64 -13 82 0 88 -10 52 -89 -26
-56 -31 -61 -61 -62 -28 -2 -38 4 -59 33 -14 19 -45 53 -69 76 -25 23 -52 49
-62 58 -11 11 -15 26 -12 43 3 14 0 33 -7 41 -16 19 6 47 51 65 16 7 26 17 23
22 -9 14 15 28 49 28 17 0 27 -5 27 -15z m-4153 -532 c29 -19 29 -33 1 -34
-15 0 -6 -7 27 -20 57 -23 83 -48 62 -61 -18 -11 -199 -10 -192 2 3 5 -17 19
-45 31 -45 19 -50 25 -50 54 0 27 5 34 33 43 40 14 133 5 164 -15z m2038 -620
c-3 -21 -11 -54 -19 -73 -8 -19 -17 -43 -20 -52 -9 -29 -67 -60 -103 -54 -40
6 -57 -12 -44 -45 25 -65 110 -86 170 -41 35 25 39 16 14 -31 -9 -18 -22 -50
-28 -72 -20 -68 -106 -96 -178 -58 -96 49 -122 92 -120 201 1 63 5 78 29 114
36 51 57 64 116 72 26 4 50 11 53 17 4 5 16 9 28 9 13 0 33 7 45 16 12 8 27
12 32 9 6 -3 13 1 16 9 10 26 13 18 9 -21z m1500 -384 c49 -26 64 -46 65 -81
0 -36 17 -78 31 -78 6 0 9 18 8 48 l-3 47 131 0 c112 0 130 -2 125 -15 -4 -10
2 -9 17 5 13 11 25 18 28 15 2 -3 15 6 28 18 14 13 30 22 37 20 12 -4 -91 -78
-109 -78 -5 0 -18 -8 -29 -18 -19 -18 -139 -70 -173 -75 -10 -1 -35 -16 -57
-33 -21 -17 -59 -44 -84 -61 -54 -37 -103 -83 -126 -118 -26 -40 -26 -24 0 31
48 101 60 153 60 276 1 65 3 118 6 118 3 0 23 -10 45 -21z m3298 -1009 c19 0
19 -1 4 -18 -23 -25 -21 -49 3 -57 11 -3 20 -14 20 -24 0 -9 -55 -72 -122
-140 l-123 -123 -58 5 c-66 6 -79 13 -56 30 11 8 18 36 22 87 6 75 22 117 66
179 34 47 106 73 180 65 24 -2 53 -4 64 -4z m-433 -128 c0 -20 -65 -132 -82
-143 -15 -9 -158 -22 -165 -15 -3 3 -7 26 -9 51 -3 38 -1 45 15 45 10 0 20 3
24 6 7 8 186 71 205 73 6 0 12 -7 12 -17z"/>
<path d="M6613 9773 c-20 -4 -23 -11 -23 -51 l0 -47 85 0 85 0 0 46 c0 40 -3
48 -22 53 -25 6 -90 6 -125 -1z"/>
<path d="M4095 9203 c-49 -7 -228 -53 -250 -63 -11 -5 -47 -19 -80 -31 -33
-11 -100 -36 -150 -53 -90 -32 -110 -48 -68 -54 18 -3 262 72 423 129 100 35
346 47 376 18 15 -15 14 -20 -4 -60 -24 -55 -112 -142 -222 -220 -97 -69 -208
-131 -219 -124 -9 5 -28 114 -40 233 -5 46 -11 86 -15 89 -3 3 -13 3 -22 -1
-14 -6 -16 -19 -12 -109 5 -95 14 -142 70 -350 24 -91 24 -91 -57 -102 -59 -7
-99 -30 -125 -73 -23 -38 -16 -47 19 -22 42 32 141 63 201 64 39 1 59 6 68 18
7 10 45 24 90 34 261 56 332 80 332 110 0 9 6 14 13 11 23 -8 47 13 47 42 0
32 -16 49 -80 82 -41 22 -57 24 -186 24 -159 0 -156 -7 -27 79 92 61 197 157
212 194 7 16 11 44 9 63 -5 53 -50 72 -173 75 -55 1 -113 0 -130 -3z m249
-463 c33 -5 66 -16 74 -23 11 -12 8 -19 -25 -46 -21 -18 -67 -40 -103 -51
-110 -32 -297 -80 -314 -80 -15 0 -56 109 -56 150 0 17 23 27 125 49 55 12
227 13 299 1z"/>
<path d="M4730 9107 c0 -9 -4 -17 -9 -17 -6 0 -7 -36 -4 -88 6 -87 5 -88 -21
-105 -14 -10 -26 -25 -26 -33 0 -25 -52 -114 -73 -126 -23 -12 -32 -2 -48 55
-10 39 -33 57 -49 41 -11 -11 12 -117 30 -139 24 -29 65 -18 106 28 22 23 46
53 55 67 9 14 20 22 23 19 8 -8 26 -106 26 -145 0 -26 4 -32 15 -28 12 5 15
-5 14 -62 0 -51 -3 -64 -10 -49 -7 16 -8 14 -4 -10 10 -59 -5 -66 -176 -81
-193 -17 -209 -17 -209 -1 1 15 17 27 150 107 58 35 113 70 123 78 19 17 22
32 6 32 -9 0 -146 -85 -296 -184 -37 -24 -45 -39 -36 -62 8 -20 53 -18 417 19
16 2 22 -8 32 -56 13 -67 24 -84 24 -39 0 18 5 32 10 32 14 0 12 -52 -3 -70
-7 -9 -31 -16 -55 -17 -24 0 -45 -3 -47 -5 -3 -2 5 -23 16 -46 24 -47 42 -45
52 6 7 33 57 64 57 35 0 -21 62 -103 75 -99 5 1 14 19 18 40 17 69 67 55 67
-18 0 -67 12 -74 53 -30 30 33 37 36 51 25 9 -7 16 -22 16 -33 0 -14 5 -18 19
-13 10 3 36 -2 56 -12 36 -17 37 -19 32 -61 -3 -24 -15 -57 -27 -73 l-21 -30
54 31 c29 16 60 30 69 30 19 0 78 -73 78 -96 0 -10 -21 -38 -47 -62 l-48 -45
43 22 c34 17 47 20 58 10 27 -22 8 -90 -43 -148 l-37 -43 32 16 c41 21 46 21
84 -12 18 -16 48 -34 66 -42 35 -14 63 -46 102 -122 43 -83 113 -106 181 -57
38 27 61 24 94 -11 35 -37 62 -39 71 -6 4 19 -3 37 -31 73 -32 41 -36 53 -31
85 6 34 2 41 -30 70 -31 28 -35 37 -29 66 6 30 4 34 -32 48 -50 21 -58 35 -32
57 36 30 100 23 153 -17 53 -41 63 -35 65 40 1 47 -2 54 -33 77 -21 16 -50 59
-80 120 -42 83 -53 97 -89 113 -25 12 -53 36 -72 64 -52 75 -155 113 -249 90
-56 -13 -57 -13 -84 13 -32 30 -43 32 -107 15 -38 -10 -48 -10 -55 1 -14 23
-1 39 43 53 23 7 46 22 52 34 35 71 81 74 145 9 46 -47 66 -53 101 -32 18 11
24 8 48 -20 28 -34 58 -42 79 -21 22 22 12 60 -35 137 -42 69 -47 83 -52 157
-3 45 -12 88 -19 97 -20 24 -67 30 -123 17 -60 -15 -81 -3 -73 40 5 21 0 34
-16 50 -20 20 -30 22 -92 18 -85 -7 -134 -38 -190 -119 -32 -47 -42 -55 -80
-61 -31 -5 -52 -17 -75 -43 -37 -39 -41 -68 -17 -119 30 -61 -9 -254 -46 -231
-4 2 -10 36 -13 75 -5 60 -3 76 13 103 29 47 25 108 -15 222 -20 57 -40 139
-46 190 -6 50 -15 92 -19 95 -4 3 -8 32 -9 64 0 33 -3 62 -6 64 -3 3 -5 -2 -5
-11z"/>
<path d="M3319 7178 c0 -13 -4 -49 -8 -81 -7 -56 -6 -59 16 -68 18 -7 23 -16
23 -47 0 -20 7 -47 15 -59 27 -39 150 -58 175 -28 18 21 50 19 77 -7 l23 -21
0 22 c0 22 1 23 25 7 35 -23 40 -21 68 27 27 45 109 127 127 127 12 0 9 -15
-21 -98 -10 -29 -19 -54 -19 -56 0 -2 17 14 39 35 32 32 46 39 79 39 34 0 74
22 61 34 -14 13 -191 86 -208 86 -12 0 -69 16 -127 35 -62 21 -124 35 -153 35
-27 0 -78 9 -113 20 -79 25 -78 25 -79 -2z"/>
<path d="M4501 7104 c-13 -19 -37 -46 -53 -59 -28 -23 -37 -75 -13 -75 5 0 -1
-9 -14 -19 -22 -17 -23 -20 -10 -54 l13 -37 61 0 c49 0 62 4 72 20 11 16 10
18 -2 14 -30 -12 -14 16 30 52 25 20 43 39 40 42 -3 3 -11 0 -17 -6 -7 -7 -25
-12 -40 -12 -37 0 -51 35 -46 113 2 31 4 57 4 57 -1 0 -12 -16 -25 -36z"/>
<path d="M6990 4763 c-33 -6 -50 -29 -50 -68 0 -33 -34 -75 -61 -75 -34 0
-129 -127 -129 -172 0 -26 38 -60 61 -56 15 2 28 22 46 67 23 58 93 165 93
144 0 -4 4 -2 9 5 7 13 48 26 113 39 41 8 54 28 38 59 -14 24 -69 65 -86 63
-5 -1 -20 -4 -34 -6z"/>
<path d="M2421 3536 c-12 -13 -24 -40 -28 -60 -5 -29 -10 -36 -29 -36 -33 0
-37 -15 -18 -55 26 -56 98 -129 177 -181 53 -36 67 -49 53 -52 -10 -2 -22 2
-26 8 -11 18 -27 5 -33 -26 -5 -26 18 -47 32 -28 12 17 59 14 110 -6 29 -11
70 -20 93 -20 l41 0 -6 -37 c-4 -20 -23 -70 -42 -111 -41 -83 -30 -81 -165
-42 -132 38 -166 43 -186 32 -15 -9 -16 -11 -4 -15 128 -37 222 -59 254 -59
l41 0 -45 -23 c-47 -25 -117 -31 -210 -17 -40 6 -46 11 -55 40 -7 26 -14 32
-36 32 -33 0 -47 -17 -26 -33 16 -13 30 -57 17 -57 -9 0 -20 -36 -13 -43 2 -3
18 2 35 10 24 12 49 14 120 8 79 -6 97 -4 149 15 64 24 140 84 162 129 8 16
20 59 28 95 l13 66 60 2 c34 0 66 2 73 2 16 2 51 35 73 72 11 17 29 34 40 37
29 7 25 32 -9 56 -34 25 -73 27 -91 6 -6 -8 -17 -13 -22 -12 -6 1 -15 -11 -20
-26 -8 -22 -6 -32 8 -48 16 -18 16 -19 -1 -19 -24 0 -86 67 -109 118 -19 43
-19 43 1 86 29 59 38 129 23 166 -15 35 -19 36 -53 10 -14 -11 -32 -20 -40
-20 -42 0 -50 -156 -13 -236 13 -28 29 -55 35 -58 11 -7 16 -76 6 -76 -4 0
-20 7 -37 16 -17 9 -40 13 -54 10 -30 -8 -79 23 -153 93 l-54 52 6 66 c5 69
-8 133 -35 172 l-15 21 -22 -24z"/>
<path d="M2013 3287 c-28 -13 -43 -27 -43 -39 0 -16 3 -17 21 -8 51 28 163 3
242 -52 29 -21 77 -105 77 -136 0 -23 44 -83 73 -99 12 -7 39 -12 60 -13 32 0
37 3 37 23 0 29 -41 117 -81 172 -37 51 -143 127 -217 155 -64 25 -114 24
-169 -3z"/>
<path d="M2140 2773 c0 -6 20 -63 45 -129 25 -65 45 -124 45 -131 0 -14 46
-18 53 -5 7 11 -7 44 -18 42 -18 -1 -17 47 0 54 9 3 13 2 10 -4 -3 -6 -1 -10
4 -10 6 0 11 12 11 28 0 21 -9 32 -40 50 -36 20 -79 77 -67 88 3 3 29 -8 58
-24 59 -31 99 -80 99 -121 1 -38 23 -61 58 -61 42 0 49 16 12 29 -22 7 -30 16
-30 34 0 28 -41 92 -78 121 -14 12 -42 24 -62 28 -19 4 -50 10 -67 14 -19 3
-33 2 -33 -3z"/>
</g>
</svg>
