<?xml version="1.0" standalone="no"?>
<!DOCTYPE svg PUBLIC "-//W3C//DTD SVG 20010904//EN"
 "http://www.w3.org/TR/2001/REC-SVG-20010904/DTD/svg10.dtd">
<svg version="1.0" xmlns="http://www.w3.org/2000/svg"
 width="720.000000pt" height="1280.000000pt" viewBox="0 0 720.000000 1280.000000"
 preserveAspectRatio="xMidYMid meet">
<metadata>
Created by potrace 1.16, written by Peter Selinger 2001-2019
</metadata>
<g transform="translate(0.000000,1280.000000) scale(0.100000,-0.100000)"
fill="#000000" stroke="none">
<path d="M0 6400 l0 -6400 3600 0 3600 0 0 1031 c0 708 -3 1028 -10 1024 -6
-4 -29 -4 -51 0 -34 6 -39 10 -33 27 12 39 5 130 -11 148 -15 17 -15 20 3 38
22 22 32 19 32 -9 0 -27 28 -13 46 23 8 16 12 33 9 38 -3 5 -1 11 5 15 6 4 10
123 10 335 l0 329 -26 20 c-28 22 -78 28 -89 11 -3 -5 -15 -10 -27 -10 -19 0
-20 -5 -16 -49 4 -45 3 -49 -16 -47 -12 2 -31 8 -43 14 -12 7 -37 12 -55 12
-53 0 -118 39 -165 100 -88 114 -88 114 -115 107 -15 -4 -50 -28 -80 -53 -79
-68 -121 -79 -196 -49 -24 10 -76 17 -139 18 -83 2 -103 5 -119 21 -10 11 -18
21 -16 23 1 2 0 13 -3 26 -9 35 11 140 59 308 52 182 62 209 82 223 25 19 34
81 16 107 -12 17 -13 26 -4 40 7 10 12 24 12 31 0 7 9 19 20 26 33 20 62 88
54 127 -4 23 -2 35 5 35 6 0 17 16 25 35 12 27 21 35 40 35 15 0 26 5 26 10 0
6 8 10 18 10 10 0 24 6 31 13 11 9 14 9 18 0 3 -7 11 -13 19 -13 8 0 14 -4 14
-9 0 -5 11 -12 25 -15 14 -4 25 -10 25 -15 0 -5 6 -16 13 -23 27 -27 67 -106
67 -132 0 -42 97 -137 225 -221 205 -135 260 -150 170 -47 -30 35 -55 61 -55
57 0 -3 -17 3 -37 14 -57 29 -106 87 -142 170 -33 73 -33 73 -27 184 8 121 0
100 117 310 38 69 46 77 66 72 18 -4 26 1 39 26 23 46 2 64 -76 65 -33 0 -60
-3 -60 -6 0 -3 -16 -12 -35 -19 -19 -7 -35 -17 -35 -22 0 -5 -6 -9 -13 -9 -8
0 -19 -11 -26 -24 -7 -13 -24 -29 -38 -35 -20 -9 -29 -7 -54 12 l-31 22 7 75
c3 41 15 93 25 115 10 22 23 52 29 68 10 25 15 27 69 27 48 0 62 -4 80 -23 12
-13 22 -26 22 -30 0 -14 49 -55 54 -44 2 7 5 2 5 -10 1 -13 -3 -23 -9 -23 -5
0 -10 -12 -10 -26 0 -25 2 -26 39 -21 22 3 50 14 62 26 l23 21 -30 0 c-41 0
-53 11 -43 38 9 25 45 42 89 42 16 0 33 7 38 16 7 13 13 14 30 5 11 -6 32 -11
46 -11 l26 0 0 804 0 804 -42 5 c-73 9 -112 18 -135 29 -36 18 -40 1 -10 -55
34 -66 34 -84 -3 -135 -16 -23 -30 -48 -30 -55 0 -7 -4 -17 -8 -22 -8 -10 -16
-35 -47 -147 -8 -31 -15 -88 -15 -127 0 -53 -3 -71 -13 -71 -33 0 -47 -35 -47
-118 0 -81 0 -82 -25 -82 -18 0 -25 -5 -25 -18 0 -28 -44 -48 -75 -34 -14 6
-25 16 -25 22 0 15 -36 12 -50 -5 -13 -16 -57 -16 -68 1 -4 5 -15 10 -24 12
-19 3 -23 -16 -18 -82 3 -44 -17 -48 -83 -15 -63 32 -124 36 -137 9 -24 -49
-34 -91 -33 -135 7 -241 5 -456 -5 -490 -6 -22 -18 -71 -28 -110 -9 -38 -25
-88 -35 -111 -11 -22 -19 -49 -19 -60 0 -11 -6 -28 -12 -37 -11 -14 -12 11
-10 135 2 84 -1 198 -7 253 -6 55 -13 158 -16 229 -2 70 -9 133 -13 140 -5 6
-15 43 -21 81 -12 67 -48 218 -76 315 -7 25 -22 81 -34 125 -21 75 -54 189
-71 245 -5 14 -34 114 -66 223 -32 108 -63 197 -69 197 -6 0 -71 -18 -145 -41
-74 -23 -211 -63 -305 -90 -93 -27 -190 -56 -215 -64 -50 -17 -210 -63 -342
-100 -47 -13 -122 -35 -165 -49 -43 -13 -118 -37 -168 -51 -49 -15 -139 -42
-199 -62 -60 -19 -121 -37 -134 -39 -49 -9 -186 -51 -567 -174 -88 -29 -173
-56 -190 -60 -16 -5 -95 -27 -175 -50 -80 -23 -154 -44 -165 -47 -11 -3 -78
-22 -150 -43 -71 -21 -150 -41 -175 -45 l-44 -6 24 28 c14 15 28 30 31 33 9 7
44 73 45 85 3 27 25 65 38 65 8 0 17 8 20 18 3 9 33 45 66 80 33 34 60 71 60
81 0 11 3 21 8 23 4 2 20 44 36 93 16 50 39 102 51 117 12 14 30 61 40 105 10
43 24 89 31 103 17 35 59 164 74 230 7 30 18 58 24 62 14 9 10 144 -5 181
l-12 28 -41 -65 c-23 -35 -59 -84 -81 -108 -31 -35 -37 -38 -31 -18 5 14 10
39 13 55 3 17 19 44 35 62 17 17 28 36 24 41 -3 5 5 32 19 60 32 67 60 153 74
232 7 36 16 81 21 100 56 209 75 820 45 1395 -8 154 -15 317 -15 361 0 58 -4
85 -14 93 -11 9 -63 9 -212 2 -110 -6 -334 -15 -499 -21 -165 -6 -401 -15
-525 -20 -124 -6 -389 -17 -590 -25 -982 -41 -1279 -54 -1342 -61 l-58 -6 0
156 0 156 2398 0 2398 0 -4 -39 c-5 -55 14 -111 39 -111 15 0 17 5 13 30 -4
18 -2 30 4 30 6 0 20 20 31 45 20 44 21 45 68 45 56 0 78 -18 88 -73 4 -19 13
-34 21 -34 8 0 14 3 15 6 14 103 12 101 139 101 61 0 110 -4 110 -8 0 -16 67
-45 85 -38 17 6 17 8 -1 28 -19 21 -19 21 6 12 14 -4 57 -6 95 -3 121 7 1079
4 1108 -4 15 -4 27 -13 26 -20 -1 -7 -1 -19 0 -27 1 -13 2 -13 11 0 6 10 10
11 10 3 0 -7 6 -13 14 -13 8 0 23 -14 33 -30 9 -16 21 -30 25 -30 4 0 8 -6 8
-13 0 -7 15 -25 34 -42 18 -16 32 -35 29 -42 -3 -7 0 -13 7 -13 7 0 18 -7 25
-17 23 -31 92 -50 153 -42 31 4 58 13 60 18 2 6 28 11 58 11 40 0 54 4 54 14
0 8 -10 18 -21 21 -17 6 -19 9 -8 16 8 5 18 4 23 -1 6 -6 14 -10 18 -10 4 0 8
851 8 1890 l0 1890 -3600 0 -3600 0 0 -6400z m6795 3679 c153 -68 200 -265 96
-404 -25 -34 -27 -41 -14 -50 23 -17 -3 -53 -49 -67 -30 -9 -45 -8 -80 5 -34
13 -55 15 -98 8 -30 -5 -63 -13 -73 -16 -53 -21 -137 34 -107 70 11 13 9 19
-8 38 -85 90 -82 268 6 360 77 82 216 105 327 56z m-652 5 c52 -18 116 -76
143 -132 28 -55 26 -174 -4 -229 -50 -95 -136 -143 -256 -143 -209 0 -331 220
-222 402 25 42 43 59 94 85 54 28 75 33 131 33 37 0 88 -7 114 -16z m-5834
-111 c15 -56 71 -300 71 -307 0 -3 -15 -6 -33 -6 -28 0 -34 4 -42 32 -9 29
-14 32 -50 31 -36 0 -40 -3 -47 -31 -8 -28 -13 -32 -42 -32 l-34 0 14 58 c7
31 26 110 41 175 l27 117 43 0 c40 0 43 -2 52 -37z m401 -55 l1 -93 30 38 c23
27 39 37 60 37 16 0 29 -3 29 -6 0 -4 -16 -28 -35 -53 -30 -41 -33 -50 -21
-67 7 -10 25 -40 40 -66 l27 -48 -35 0 c-30 0 -38 5 -57 40 -13 22 -26 40 -31
40 -4 0 -8 -18 -8 -40 0 -38 -2 -40 -30 -40 l-30 0 0 175 0 175 30 0 30 0 0
-92z m1740 -83 l0 -176 -42 1 c-24 1 -55 -1 -69 -5 -19 -5 -33 -1 -55 18 -28
24 -29 29 -29 106 1 69 4 85 22 102 22 22 54 28 91 15 21 -7 22 -5 22 53 l0
61 30 0 30 0 0 -175z m452 83 l3 -92 25 37 c20 30 31 37 58 37 30 0 42 -12 24
-24 -5 -3 -21 -23 -36 -44 l-27 -40 40 -66 41 -66 -35 0 c-30 0 -38 5 -57 40
-13 22 -26 40 -30 40 -5 0 -8 -18 -8 -40 0 -39 -1 -40 -35 -40 l-35 0 0 168
c0 93 3 172 7 175 3 4 19 7 34 7 l28 0 3 -92z m728 28 l0 -65 35 15 c28 11 40
12 58 3 34 -18 37 -27 37 -136 l0 -103 -30 0 -30 0 0 90 c0 75 -3 92 -16 97
-37 14 -49 -10 -52 -101 l-3 -86 -29 0 -30 0 0 175 0 175 30 0 30 0 0 -64z
m530 3 c0 -58 1 -60 23 -53 76 26 107 -8 107 -118 0 -71 -2 -81 -26 -105 -21
-21 -31 -24 -57 -18 -18 4 -49 6 -69 6 l-38 -2 0 176 0 175 30 0 30 0 0 -61z
m-1482 -11 c3 -35 6 -38 33 -38 24 0 29 -4 29 -25 0 -21 -5 -25 -30 -25 l-31
0 3 -67 c3 -66 4 -68 31 -71 21 -3 27 -8 23 -19 -3 -8 -6 -19 -6 -24 0 -16
-73 -10 -92 8 -14 13 -18 31 -18 90 0 66 -2 75 -20 80 -13 3 -20 14 -20 29 0
17 6 24 20 24 17 0 20 7 20 41 0 38 1 40 28 37 23 -3 27 -8 30 -40z m-2094
-58 c24 -24 34 -122 17 -173 -15 -44 -59 -66 -97 -48 -14 6 -27 11 -29 11 -3
0 -5 -29 -5 -65 l0 -65 -30 0 -30 0 0 181 0 182 39 -6 c21 -2 45 -1 52 4 19
12 60 2 83 -21z m402 20 c8 0 23 -9 34 -20 17 -17 20 -33 20 -121 l0 -101 -32
3 c-18 1 -48 -1 -66 -5 -50 -12 -82 13 -82 64 0 44 20 64 83 81 28 7 37 15 35
27 -5 25 -45 27 -58 3 -13 -25 -48 -28 -57 -5 -13 34 56 90 95 78 8 -2 20 -4
28 -4z m293 -1 c38 -14 51 -35 51 -88 l0 -41 -61 0 c-60 0 -60 0 -57 -27 3
-32 44 -46 54 -19 4 10 18 16 35 16 35 0 39 -25 10 -61 -27 -34 -99 -34 -135
0 -23 22 -26 32 -26 96 0 79 20 120 63 128 12 2 25 5 28 6 3 0 20 -4 38 -10z
m199 0 c29 -10 59 -59 45 -73 -15 -15 -51 -5 -56 15 -4 13 -12 20 -24 17 -31
-6 -27 -34 7 -48 78 -32 101 -82 61 -131 -15 -19 -29 -24 -66 -24 -37 0 -51 5
-66 24 -29 36 -25 61 11 61 24 0 30 -4 30 -21 0 -15 5 -20 22 -17 42 6 33 36
-16 58 -54 23 -75 57 -60 98 9 25 45 52 70 52 6 0 25 -5 42 -11z m219 -13 c6
-6 13 -22 15 -36 2 -21 -2 -26 -23 -28 -20 -2 -28 2 -32 18 -4 14 -12 21 -24
18 -29 -5 -21 -32 15 -50 73 -36 92 -81 53 -129 -15 -19 -29 -24 -66 -24 -37
0 -51 5 -66 24 -29 36 -25 61 10 61 21 0 30 -6 34 -21 7 -25 40 -22 45 4 3 12
-9 23 -42 37 -51 21 -70 54 -60 97 12 45 104 65 141 29z m182 13 c17 -6 36
-19 41 -29 6 -10 10 -62 10 -116 l0 -97 -40 6 c-22 3 -43 1 -46 -4 -8 -14 -47
-11 -72 7 -16 11 -22 25 -22 54 0 44 20 64 83 81 28 7 37 15 35 27 -5 25 -45
27 -58 3 -13 -25 -48 -28 -57 -5 -8 23 16 62 46 73 35 13 43 13 80 0z m319
-22 c16 -15 22 -32 22 -64 l0 -43 -61 0 c-60 0 -60 0 -57 -27 3 -32 44 -46 54
-19 8 20 64 22 64 2 0 -69 -102 -98 -158 -45 -19 17 -22 31 -22 98 0 68 3 80
23 98 12 11 29 23 37 26 25 9 73 -4 98 -26z m1000 -3 c19 -21 22 -36 22 -99 0
-70 -1 -74 -32 -100 -27 -23 -39 -26 -71 -22 -59 8 -80 35 -85 107 -3 36 1 72
9 91 24 60 111 73 157 23z m240 9 c8 -11 12 -53 12 -120 l0 -103 -30 0 -30 0
0 90 c0 75 -3 92 -17 97 -32 12 -53 -32 -53 -113 l0 -74 -30 0 -30 0 0 120 0
120 29 0 c16 0 31 -5 33 -12 3 -8 11 -7 29 5 27 20 67 15 87 -10z m530 -9 c15
-17 22 -38 22 -65 l0 -39 -61 0 c-60 0 -60 0 -57 -27 3 -32 44 -46 54 -19 4
10 18 16 35 16 35 0 40 -29 9 -60 -27 -27 -63 -34 -105 -20 -46 15 -55 34 -55
123 0 64 3 76 23 94 12 11 29 23 37 26 28 11 75 -3 98 -29z m542 10 c11 -11
15 -39 15 -117 l0 -102 -32 -3 -33 -3 0 91 c0 72 -3 92 -15 96 -33 13 -45 -15
-45 -102 l0 -84 -35 0 -35 0 0 120 0 120 35 0 c19 0 35 -4 35 -9 0 -6 12 -3
28 4 29 16 58 12 82 -11z m215 -5 c17 -16 21 -36 23 -120 l4 -100 -44 1 c-23
1 -54 -1 -68 -5 -34 -9 -80 27 -80 61 0 42 17 62 70 79 37 12 50 22 50 36 0
26 -36 25 -52 -1 -12 -19 -48 -27 -61 -14 -3 3 -1 19 5 36 20 56 108 72 153
27z m394 20 c36 -13 61 -53 61 -99 l0 -30 -59 0 c-63 0 -76 -8 -66 -40 8 -24
55 -28 55 -5 0 11 11 15 36 15 32 0 35 -2 29 -22 -4 -13 -18 -34 -33 -47 -21
-19 -33 -22 -65 -18 -60 8 -80 35 -85 109 -5 79 9 115 50 133 41 17 38 17 77
4z m204 -3 c15 -8 27 -11 27 -5 0 5 14 9 31 9 l30 0 -3 -154 c-3 -134 -5 -157
-22 -175 -42 -46 -144 -35 -166 19 -7 16 -9 34 -5 39 10 18 44 12 57 -9 27
-42 78 -15 78 41 0 18 -3 20 -12 11 -7 -7 -29 -12 -49 -12 -56 0 -79 34 -79
116 0 72 13 107 44 122 29 14 37 14 69 -2z m285 -22 c19 -22 22 -36 22 -120
l0 -95 -42 1 c-24 1 -54 -1 -68 -5 -36 -9 -80 27 -80 65 0 27 32 70 52 70 5 0
24 7 43 14 25 11 33 19 29 30 -9 22 -41 20 -56 -4 -18 -29 -58 -27 -58 3 0 73
105 101 158 41z m-3048 -94 l0 -120 -35 0 -35 0 0 113 c0 63 3 117 7 120 3 4
19 7 35 7 l28 0 0 -120z m2280 63 c19 -90 25 -92 45 -14 18 68 20 71 48 71 28
0 29 -2 23 -33 -3 -19 -25 -99 -49 -178 l-42 -144 -34 -3 c-28 -3 -33 -1 -27
14 28 74 28 99 -3 207 -18 59 -34 113 -37 122 -5 12 2 15 28 15 34 0 35 -1 48
-57z m-3053 -1627 l56 -55 -7 -78 c-4 -43 -14 -91 -22 -107 -19 -39 -19 -86 1
-86 8 0 15 7 15 15 0 20 7 19 36 -8 22 -21 25 -30 22 -83 -3 -55 -5 -59 -28
-62 -39 -4 -61 45 -69 152 -6 84 -8 90 -39 118 -22 19 -35 42 -39 65 -6 37
-15 58 -45 103 -27 42 -31 68 -11 73 54 14 74 7 130 -47z m169 -641 c43 -18
73 -52 74 -85 1 -14 4 -19 7 -12 4 10 9 8 19 -7 8 -11 30 -23 50 -27 l35 -6
-22 -24 c-27 -29 -82 -34 -72 -7 4 11 3 14 -5 9 -7 -4 -12 -13 -12 -20 0 -14
-30 -26 -67 -26 -14 0 -23 6 -23 15 0 8 5 15 10 15 18 0 10 29 -11 41 -21 11
-94 8 -180 -7 -26 -4 -39 -1 -48 10 -18 21 -10 29 42 35 34 5 43 11 48 31 12
51 21 69 38 73 35 10 83 6 117 -8z m-226 -638 c8 -7 38 -23 65 -37 28 -14 52
-28 53 -32 2 -5 27 -8 55 -8 l52 0 -35 -21 c-19 -12 -51 -38 -70 -59 -88 -93
-110 -127 -110 -166 0 -20 5 -24 33 -24 39 -1 69 -21 58 -39 -5 -7 -6 -21 -4
-31 4 -14 -3 -19 -34 -22 -21 -3 -40 -2 -43 2 -3 4 -29 13 -58 21 -60 15 -102
54 -102 95 0 47 22 115 42 128 17 12 19 23 15 63 -2 26 -11 72 -19 102 l-16
53 52 -7 c28 -3 58 -12 66 -18z m1240 -396 c0 -11 -6 -26 -12 -33 -7 -7 -22
-29 -32 -48 -16 -30 -54 -82 -102 -140 -45 -54 -198 -200 -209 -200 -8 0 -15
-4 -15 -9 0 -4 -25 -27 -55 -49 -59 -44 -95 -66 -95 -57 0 3 -14 -8 -31 -24
-17 -17 -44 -33 -60 -36 -16 -4 -34 -15 -39 -26 -6 -10 -17 -19 -25 -19 -7 0
-15 -3 -17 -7 -1 -5 -23 -18 -48 -31 -47 -24 -75 -63 -58 -80 20 -20 29 -256
13 -309 -7 -21 -33 -4 -28 18 3 10 1 19 -5 19 -6 0 -18 7 -26 16 -9 8 -16 11
-16 5 0 -6 -7 -11 -15 -11 -8 0 -15 7 -15 16 0 8 -7 22 -16 31 -8 9 -13 22
-10 29 4 10 -3 14 -24 14 -20 0 -30 -5 -30 -15 0 -11 -12 -15 -44 -15 -26 0
-48 -6 -56 -15 -7 -8 -18 -15 -26 -15 -7 0 -18 -9 -24 -19 -5 -11 -23 -22 -40
-26 -16 -4 -30 -13 -30 -21 0 -8 -10 -14 -23 -14 -14 0 -35 -13 -51 -30 -15
-17 -31 -28 -36 -25 -5 3 -12 -10 -16 -30 -3 -19 -10 -35 -15 -35 -22 0 -66
-170 -54 -211 5 -18 4 -20 -4 -9 -8 12 -12 10 -20 -10 -8 -22 -10 -18 -10 26
-1 27 -5 54 -10 60 -9 10 -46 131 -55 179 -3 17 -21 91 -41 165 -52 189 -58
221 -49 230 5 4 65 26 134 48 208 69 183 60 420 148 69 25 159 59 200 74 69
25 428 204 440 219 3 3 14 11 25 18 11 7 40 24 65 39 67 40 184 133 237 187
25 26 48 47 50 47 1 0 3 -9 3 -19z m2125 -901 c6 -4 22 -10 36 -13 30 -8 72
-58 96 -114 8 -21 24 -44 34 -51 10 -7 19 -21 19 -32 0 -10 14 -32 30 -50 17
-18 30 -36 30 -41 0 -5 7 -9 15 -9 11 0 15 -11 15 -40 0 -22 4 -40 8 -40 12 0
32 -46 32 -73 0 -12 11 -31 24 -42 13 -11 25 -29 28 -40 2 -11 11 -19 21 -19
18 2 21 -13 11 -40 -3 -9 -10 -13 -15 -10 -5 3 -9 -11 -9 -30 0 -20 -4 -36
-10 -36 -5 0 -10 9 -10 20 0 14 -7 20 -24 20 -27 0 -36 -21 -36 -85 0 -22 -7
-65 -15 -95 -8 -30 -15 -79 -15 -108 0 -50 -10 -80 -38 -111 -8 -8 -18 -25
-23 -38 -5 -14 -17 -23 -29 -23 -11 0 -34 -15 -50 -34 -18 -20 -42 -36 -60
-38 -36 -5 -36 -5 -45 51 -3 24 -11 55 -16 70 -6 14 -14 60 -19 101 -5 41 -21
145 -35 230 -15 85 -30 182 -36 215 -8 53 -31 162 -70 330 -7 27 -12 62 -11
78 0 16 -3 40 -9 54 -9 25 0 43 31 56 18 8 131 -2 145 -13z m-1036 -126 c36
-37 84 -69 110 -74 19 -4 26 -11 26 -29 0 -19 -11 -30 -45 -48 -80 -42 -88
-55 -95 -151 -3 -48 -10 -96 -15 -107 -5 -11 -11 -66 -15 -122 -6 -103 -6
-103 17 -103 31 0 45 -11 50 -35 2 -16 -3 -21 -26 -23 -25 -3 -28 -1 -23 17 3
12 1 21 -4 21 -5 0 -9 -7 -9 -15 0 -27 -46 -47 -100 -43 -42 2 -50 0 -50 -14
0 -14 8 -18 35 -18 19 0 50 -8 69 -17 30 -14 35 -20 30 -40 -9 -36 11 -51 82
-58 58 -7 64 -9 64 -30 0 -13 -6 -30 -13 -37 -8 -7 -12 -18 -10 -23 7 -22 -15
-33 -74 -37 -35 -2 -63 0 -63 4 0 4 -6 8 -14 8 -20 0 -85 76 -108 127 -10 23
-30 56 -44 72 -13 16 -43 64 -65 107 -31 59 -42 92 -46 143 l-6 67 37 27 c20
16 34 31 32 35 -2 4 2 16 9 26 11 14 21 17 47 12 54 -11 69 -8 95 16 25 24 26
25 7 117 -8 41 -47 78 -91 87 -18 3 -33 10 -33 15 0 5 -9 9 -20 9 -11 0 -20 5
-20 11 0 19 56 67 82 71 12 2 34 15 48 31 22 24 31 27 78 24 35 -3 59 -10 71
-23z m-2452 -954 c-6 -202 -8 -214 -38 -303 -18 -50 -40 -108 -51 -127 -16
-31 -17 -35 -2 -38 26 -6 64 7 64 22 0 8 15 16 34 19 41 7 96 56 96 86 0 13
10 26 25 33 14 6 25 17 25 25 0 14 77 93 92 93 5 0 18 9 30 20 12 11 27 20 33
20 18 0 50 -75 102 -239 30 -97 56 -161 70 -175 16 -15 19 -24 11 -34 -9 -11
-7 -11 16 -1 21 10 29 10 39 0 10 -11 7 -12 -12 -6 -16 5 -21 4 -17 -4 4 -6 0
-11 -8 -11 -11 0 -16 -9 -16 -29 0 -38 19 -54 44 -35 28 20 62 17 112 -7 36
-18 40 -24 29 -35 -7 -8 -33 -14 -57 -14 -24 0 -49 -5 -56 -12 -16 -16 -15
-103 2 -136 7 -15 16 -44 19 -64 3 -21 12 -47 20 -59 14 -20 15 -19 22 21 5
31 11 40 22 36 8 -3 19 -6 24 -6 5 0 9 -4 9 -10 0 -5 -7 -10 -15 -10 -8 0 -15
-6 -15 -14 0 -8 -6 -16 -12 -19 -27 -8 -11 -117 37 -257 50 -145 65 -193 96
-310 11 -41 31 -104 43 -140 13 -36 40 -128 61 -205 20 -77 66 -236 101 -354
35 -117 64 -217 64 -222 0 -5 -413 -8 -943 -7 l-944 1 -13 21 c-83 131 -150
303 -196 501 -26 112 -27 439 -1 570 37 185 102 375 183 537 37 74 38 78 24
78 -5 0 -29 -42 -54 -92 -106 -220 -166 -428 -201 -704 -9 -68 11 -308 35
-415 35 -161 95 -316 173 -450 l26 -44 -359 -3 -359 -3 2 1298 2 1298 135 6
c130 7 495 23 765 35 221 9 551 49 684 83 2 1 1 -94 -2 -209z m2093 -588 c0
-4 14 -16 30 -25 26 -16 30 -24 30 -60 0 -55 9 -87 25 -87 7 0 15 -6 18 -13 3
-9 -16 -26 -51 -47 -32 -19 -76 -49 -100 -68 -47 -37 -47 -39 -3 61 12 27 21
61 21 77 0 16 7 30 15 34 8 3 15 12 15 21 0 8 5 15 10 15 6 0 1 9 -10 20 -21
21 -28 80 -10 80 6 0 10 -4 10 -8z m3205 -1152 c25 0 104 -81 116 -120 15 -46
27 -60 51 -60 11 0 27 -7 35 -16 14 -13 14 -17 2 -25 -8 -5 -19 -9 -26 -9 -6
0 -18 -6 -25 -13 -23 -22 -68 -37 -93 -31 -28 7 -43 43 -55 129 -5 33 -13 78
-19 100 -23 96 -23 93 -12 68 6 -13 17 -23 26 -23z m-369 -215 c-5 -20 -3 -25
13 -25 52 0 38 -131 -26 -246 -14 -24 -29 -46 -34 -49 -5 -4 -9 -13 -9 -21 0
-9 -7 -23 -16 -31 -8 -9 -13 -24 -11 -34 4 -15 -1 -19 -24 -19 -24 0 -29 4
-29 25 0 13 -7 28 -16 33 -14 8 -14 17 -3 85 10 62 10 81 0 100 -23 43 4 83
119 178 42 35 44 35 36 4z m248 -97 c-4 -7 -16 -25 -27 -39 -17 -23 -17 -32
-7 -90 7 -35 16 -74 21 -87 5 -13 9 -36 9 -52 0 -41 42 -63 94 -49 21 6 51 7
68 4 l31 -7 -6 -59 c-3 -33 -1 -59 4 -59 5 0 9 11 9 25 0 14 4 25 9 25 5 0 12
10 14 23 3 12 4 0 3 -28 l-1 -50 -40 -5 c-64 -9 -786 -2 -752 7 9 2 15 8 12
12 -2 5 5 17 17 27 20 19 21 19 13 -5 l-7 -24 69 6 c68 5 123 23 123 39 0 4 6
8 14 8 7 0 34 9 58 20 57 25 100 79 172 219 51 97 87 151 102 151 3 0 2 -6 -2
-12z m-611 -217 c-4 -3 -9 -13 -11 -21 -2 -8 -21 -49 -43 -92 -21 -42 -39 -85
-39 -97 0 -26 -8 -27 -26 -3 -14 18 -19 119 -8 160 5 18 9 20 20 11 8 -6 14
-7 14 -2 0 5 16 17 35 26 19 9 40 26 47 37 11 18 13 18 16 4 2 -9 0 -19 -5
-23z"/>
<path d="M6613 9773 c-20 -4 -23 -11 -23 -51 l0 -47 85 0 85 0 0 46 c0 40 -3
48 -22 53 -25 6 -90 6 -125 -1z"/>
<path d="M4278 9135 c-2 -3 -31 -9 -64 -14 -90 -14 -191 -38 -248 -60 -28 -10
-88 -29 -134 -41 -49 -13 -81 -27 -79 -34 7 -21 43 -16 212 29 254 68 428 90
504 64 34 -12 38 -27 17 -67 -18 -33 -51 -64 -141 -133 -76 -57 -252 -155
-262 -145 -10 10 -22 96 -22 162 -1 89 -10 124 -32 124 -40 0 -34 -156 16
-374 14 -60 23 -111 21 -114 -3 -2 -24 -6 -48 -8 -86 -10 -118 -25 -139 -67
-22 -42 -18 -59 9 -39 63 46 200 84 226 62 17 -13 36 -6 36 15 0 9 15 16 38
20 168 26 317 60 334 77 10 10 24 18 31 18 44 0 50 69 10 98 -60 42 -106 55
-213 58 -58 2 -107 4 -110 4 -3 0 25 17 61 38 149 84 249 177 249 231 0 57
-88 101 -205 101 -34 0 -64 -2 -67 -5z m212 -436 c54 -18 58 -27 28 -54 -18
-15 -64 -32 -140 -50 -183 -44 -227 -52 -239 -45 -18 12 -50 140 -36 146 64
24 320 26 387 3z"/>
<path d="M4828 9029 c-15 -8 -18 -25 -18 -97 0 -76 -2 -89 -20 -100 -11 -7
-20 -20 -20 -30 0 -26 -57 -112 -74 -112 -10 0 -21 18 -29 48 -10 35 -19 47
-33 47 -17 0 -19 -6 -16 -50 4 -62 24 -95 58 -95 37 0 55 12 94 64 31 42 35
45 42 26 8 -23 13 -289 5 -297 -3 -2 -79 -7 -169 -10 -208 -8 -211 -13 66 138
33 17 54 44 44 55 -4 3 -26 -5 -50 -18 -49 -28 -92 -52 -195 -111 -73 -41 -95
-69 -73 -91 12 -12 194 -12 323 0 l68 6 -3 -58 c-3 -54 -5 -58 -33 -67 -16 -5
-31 -11 -33 -12 -2 -2 7 -21 19 -44 22 -43 34 -44 49 -5 14 36 42 29 75 -21
17 -25 33 -45 37 -45 4 0 11 14 16 32 8 32 35 58 48 46 3 -4 9 -28 11 -53 7
-57 18 -64 49 -30 28 30 44 29 59 -3 5 -12 15 -20 22 -18 7 3 26 -2 42 -10 46
-23 41 -74 -12 -131 -27 -30 -12 -29 38 2 52 32 82 32 97 0 6 -14 15 -25 20
-25 4 0 8 -10 8 -23 0 -26 -30 -58 -87 -93 -47 -29 -27 -31 27 -4 43 22 66 25
75 10 10 -17 -37 -110 -69 -136 -21 -18 -24 -24 -11 -19 58 19 72 17 111 -16
22 -19 48 -39 58 -45 11 -5 35 -39 54 -75 44 -83 47 -87 93 -100 31 -10 42 -9
61 3 45 29 67 28 103 -4 44 -38 71 -34 69 9 -1 18 -11 44 -23 59 -15 19 -21
41 -21 74 0 39 -5 51 -30 74 -25 22 -29 30 -20 46 14 26 6 39 -36 56 -19 8
-34 18 -34 23 0 22 40 35 92 32 10 -1 33 -14 51 -31 50 -43 63 -39 71 21 7 49
5 52 -31 92 -21 23 -45 58 -52 77 -35 95 -44 109 -78 125 -19 9 -42 31 -52 47
-28 54 -55 76 -115 98 -48 17 -72 20 -121 15 -52 -6 -63 -4 -68 9 -10 25 -50
36 -92 25 -20 -6 -43 -8 -51 -5 -24 9 -3 35 37 46 27 7 43 20 54 39 27 54 67
49 128 -18 41 -45 48 -47 77 -28 18 11 23 8 46 -20 27 -34 52 -41 72 -21 22
22 13 68 -29 143 -38 70 -40 77 -33 134 6 56 5 61 -21 86 -25 26 -30 27 -96
21 l-69 -7 0 39 c0 55 -25 75 -93 75 -76 0 -147 -42 -193 -114 -20 -32 -30
-39 -55 -39 -37 0 -99 -35 -99 -56 0 -38 -18 -5 -43 79 -21 72 -28 123 -33
235 -4 78 -10 142 -13 142 -3 0 -14 -5 -23 -11z"/>
<path d="M7113 7853 c-7 -15 -13 -33 -13 -40 0 -7 -5 -13 -10 -13 -6 0 -8 -20
-4 -54 l7 -54 -37 -17 c-34 -16 -46 -41 -29 -59 4 -3 8 -14 9 -23 8 -50 20
-72 62 -115 25 -27 52 -48 59 -48 6 0 19 -10 27 -22 15 -21 16 -4 16 205 0
151 -3 227 -10 227 -6 0 -20 9 -32 20 -28 26 -31 25 -45 -7z"/>
<path d="M3396 7346 c-27 -92 -26 -98 19 -114 101 -36 95 -31 95 -73 0 -34 5
-42 33 -59 37 -23 116 -27 147 -8 16 10 23 9 43 -10 22 -21 25 -21 31 -6 6 15
8 15 31 0 24 -16 25 -15 54 28 43 62 121 127 121 101 0 -3 -11 -32 -25 -65
-29 -70 -31 -83 -7 -54 25 29 75 54 110 54 16 0 35 6 41 14 10 12 -2 21 -71
54 -46 22 -110 48 -143 59 -33 11 -85 30 -115 42 -30 11 -71 21 -90 21 -20 0
-74 13 -121 28 -145 49 -135 50 -153 -12z"/>
<path d="M4523 7221 c-23 -26 -59 -56 -79 -66 -44 -24 -45 -40 -4 -39 37 0 38
-8 5 -26 -27 -14 -31 -30 -16 -59 14 -26 134 -29 159 -5 13 14 14 18 3 22 -9
3 -1 15 25 37 42 36 42 52 1 36 -21 -8 -30 -7 -43 6 -13 14 -15 29 -11 80 4
35 5 63 4 62 -1 -1 -21 -22 -44 -48z"/>
<path d="M4828 7236 c-7 -34 11 -415 22 -466 9 -43 8 -46 -22 -72 -23 -21 -26
-28 -14 -29 30 -3 35 -4 45 -14 6 -6 12 -36 14 -68 2 -31 6 -59 9 -62 2 -3 30
0 61 6 50 10 60 10 75 -5 22 -19 42 -20 77 -4 28 12 40 44 33 83 -4 20 -1 25
16 26 38 3 -68 18 -127 18 -65 1 -89 11 -123 50 -30 34 -30 37 4 44 l28 6 -6
63 c-4 35 -13 73 -20 85 -10 15 -11 25 -3 35 7 9 7 52 2 128 -4 63 -8 124 -8
136 -1 11 -14 30 -30 42 l-29 21 -4 -23z"/>
<path d="M4535 6697 c-22 -12 -42 -22 -43 -23 -11 -7 16 -53 53 -89 29 -28 47
-56 55 -86 33 -124 44 -149 65 -149 40 0 44 17 19 93 -12 40 -37 118 -54 175
-18 56 -37 102 -43 101 -7 0 -30 -10 -52 -22z"/>
<path d="M7103 4582 c-65 -24 -59 -62 21 -143 54 -55 76 -49 76 21 0 24 -7 31
-45 47 -67 27 -58 63 16 63 19 0 29 5 29 15 0 20 -42 18 -97 -3z"/>
</g>
</svg>
