<?xml version="1.0" standalone="no"?>
<!DOCTYPE svg PUBLIC "-//W3C//DTD SVG 20010904//EN"
 "http://www.w3.org/TR/2001/REC-SVG-20010904/DTD/svg10.dtd">
<svg version="1.0" xmlns="http://www.w3.org/2000/svg"
 width="720.000000pt" height="1280.000000pt" viewBox="0 0 720.000000 1280.000000"
 preserveAspectRatio="xMidYMid meet">
<metadata>
Created by potrace 1.16, written by Peter Selinger 2001-2019
</metadata>
<g transform="translate(0.000000,1280.000000) scale(0.100000,-0.100000)"
fill="#000000" stroke="none">
<path d="M0 6400 l0 -6400 3600 0 3600 0 0 1358 c0 969 -3 1361 -11 1369 -8 8
-18 7 -37 -3 -34 -18 -93 -18 -136 0 -43 18 -76 72 -76 124 0 35 5 45 33 66
28 21 45 26 94 26 33 0 62 3 66 6 10 11 -20 60 -48 78 -32 21 -80 13 -95 -14
-12 -22 -41 -33 -64 -24 -26 10 -19 50 15 78 25 22 41 26 91 26 70 0 119 -24
149 -74 19 -31 19 -20 19 794 0 806 0 827 -20 865 -25 49 -25 65 0 65 20 0 20
7 20 361 0 329 -1 360 -16 357 -37 -7 -39 -33 -16 -150 23 -118 20 -134 -22
-119 -17 7 -24 25 -38 92 -10 46 -22 104 -28 129 -23 103 -24 110 -6 110 10 0
25 -4 35 -10 10 -5 35 -7 55 -3 l36 6 0 216 0 217 -29 21 c-43 32 -82 106 -88
168 -5 52 -4 56 30 90 22 22 45 35 61 35 l26 0 0 493 c0 370 -3 496 -12 505
-9 9 -9 15 0 24 20 20 15 191 -8 278 -24 93 -24 90 0 90 15 0 20 7 20 26 0 18
-4 25 -14 21 -18 -7 -56 20 -56 40 0 12 7 14 35 10 l35 -6 0 2530 0 2529
-3600 0 -3600 0 0 -6400z m6796 3680 c151 -69 198 -267 95 -405 -25 -34 -27
-41 -14 -50 14 -10 14 -14 -2 -38 -22 -35 -90 -46 -136 -23 -33 16 -80 14
-147 -6 -47 -14 -99 -2 -118 28 -13 20 -14 27 -4 39 11 13 9 19 -8 38 -85 90
-82 268 6 360 77 81 220 106 328 57z m-653 4 c29 -10 64 -34 92 -62 124 -125
89 -333 -68 -412 -133 -66 -310 -20 -370 96 -47 91 -44 191 7 276 25 43 43 59
94 85 54 28 75 33 131 33 37 0 88 -7 114 -16z m-5802 -244 c21 -91 39 -168 39
-172 0 -5 -15 -8 -33 -8 -28 0 -34 4 -42 32 -9 29 -14 32 -50 31 -36 0 -40 -3
-47 -31 -8 -28 -13 -32 -42 -32 l-34 0 14 58 c7 31 26 110 41 175 l27 118 44
-3 45 -3 38 -165z m369 78 l1 -93 30 38 c23 27 39 37 60 37 16 0 29 -3 29 -6
0 -4 -16 -28 -35 -53 -30 -41 -33 -50 -21 -67 7 -10 25 -40 40 -66 l27 -48
-35 0 c-30 0 -38 5 -57 40 -26 45 -39 43 -39 -6 0 -31 -2 -34 -30 -34 l-30 0
0 175 0 175 30 0 30 0 0 -92z m1740 -83 l0 -176 -42 1 c-24 1 -55 -1 -69 -5
-19 -5 -33 -1 -55 18 -28 24 -29 29 -28 107 1 68 4 85 21 102 22 21 54 27 91
14 21 -7 22 -5 22 53 l0 61 30 0 30 0 0 -175z m452 83 l3 -92 25 37 c20 30 31
37 58 37 30 0 42 -12 24 -24 -5 -3 -21 -23 -36 -44 l-27 -40 40 -66 41 -66
-34 0 c-28 0 -38 7 -62 43 l-29 42 -3 -42 c-3 -42 -4 -43 -38 -43 l-34 0 0
175 0 175 35 0 34 0 3 -92z m728 27 l0 -66 30 16 c33 17 60 13 85 -11 11 -12
15 -40 15 -120 l0 -104 -30 0 -30 0 0 90 c0 75 -3 92 -16 97 -37 14 -49 -10
-52 -101 l-3 -86 -29 0 -30 0 0 175 0 175 30 0 30 0 0 -65z m530 4 c0 -58 1
-60 23 -53 76 26 107 -8 107 -118 0 -71 -2 -81 -26 -105 -20 -20 -31 -24 -52
-18 -15 4 -46 6 -69 5 l-43 -1 0 176 0 175 30 0 30 0 0 -61z m-1480 -9 c0 -38
2 -40 30 -40 25 0 30 -4 30 -25 0 -21 -5 -25 -30 -25 l-31 0 3 -67 c3 -66 4
-68 31 -71 21 -3 27 -8 23 -19 -3 -8 -6 -19 -6 -24 0 -16 -73 -10 -92 8 -14
13 -18 31 -18 90 0 66 -2 75 -20 80 -13 3 -20 14 -20 29 0 17 6 24 20 24 16 0
20 7 20 33 0 40 6 47 37 47 20 0 23 -5 23 -40z m-2096 -61 c24 -23 34 -121 17
-172 -15 -44 -59 -66 -97 -48 -14 6 -27 11 -29 11 -3 0 -5 -30 -5 -66 l0 -65
-27 3 -28 3 -3 179 -2 179 37 -5 c21 -3 47 -2 58 3 26 10 55 2 79 -22z m405
20 c44 -16 51 -35 51 -143 l0 -96 -47 -1 c-27 0 -60 -1 -75 -1 -40 -1 -58 19
-58 63 0 43 20 63 83 80 28 7 37 15 35 27 -5 26 -48 28 -55 3 -4 -14 -13 -21
-29 -21 -65 0 -15 96 52 99 6 1 25 -4 43 -10z m290 0 c38 -14 51 -35 51 -88
l0 -41 -61 0 c-60 0 -60 0 -57 -27 3 -32 44 -46 54 -19 4 10 18 16 35 16 35 0
39 -25 10 -61 -15 -19 -29 -24 -66 -24 -39 0 -51 5 -71 28 -20 24 -24 39 -24
96 0 75 21 116 63 124 12 2 25 5 28 6 3 0 20 -4 38 -10z m198 0 c32 -12 43
-26 43 -56 0 -31 -45 -33 -53 -3 -7 26 -47 27 -47 1 0 -11 12 -23 30 -31 78
-32 101 -82 61 -131 -15 -19 -29 -24 -66 -24 -37 0 -51 5 -66 24 -29 36 -25
61 11 61 24 0 30 -4 30 -21 0 -15 5 -20 22 -17 40 5 31 32 -19 58 -91 48 -80
135 19 149 4 1 19 -4 35 -10z m191 0 c29 -10 59 -59 45 -73 -15 -15 -51 -5
-56 15 -4 13 -12 20 -24 17 -29 -5 -21 -32 15 -50 73 -36 92 -81 53 -129 -15
-19 -29 -24 -66 -24 -37 0 -51 5 -66 24 -29 36 -25 61 10 61 21 0 30 -6 34
-21 7 -25 40 -22 45 3 2 12 -11 24 -43 39 -74 35 -86 106 -22 134 39 17 37 17
75 4z m211 0 c17 -6 36 -19 41 -29 6 -10 10 -62 10 -115 l0 -97 -32 3 c-18 1
-48 -1 -66 -5 -50 -12 -82 13 -82 64 0 44 20 64 83 81 28 7 37 15 35 27 -5 25
-45 27 -58 3 -13 -24 -48 -28 -56 -6 -8 20 21 64 49 75 30 12 39 12 76 -1z
m318 -21 c17 -16 23 -33 23 -65 l0 -43 -61 0 c-60 0 -60 0 -57 -27 3 -32 44
-46 54 -19 8 20 64 22 64 2 0 -69 -102 -98 -158 -45 -19 17 -22 31 -22 98 0
68 3 80 23 98 12 11 29 23 37 26 25 10 73 -2 97 -25z m1001 -4 c18 -21 22 -36
22 -98 0 -65 -3 -75 -26 -97 -35 -33 -104 -34 -136 -2 -27 28 -37 127 -17 174
24 60 111 73 157 23z m240 8 c8 -10 12 -52 12 -119 l0 -103 -30 0 -30 0 0 90
c0 75 -3 92 -17 97 -32 12 -53 -32 -53 -113 l0 -74 -30 0 -30 0 0 120 0 120
29 0 c16 0 31 -5 33 -11 2 -6 14 -5 33 5 33 17 63 13 83 -12z m529 -4 c17 -16
23 -33 23 -65 l0 -43 -61 0 c-60 0 -60 0 -57 -27 3 -32 44 -46 54 -19 4 10 18
16 35 16 22 0 29 -5 29 -20 0 -42 -64 -79 -115 -66 -52 13 -65 39 -65 124 0
69 3 81 23 99 12 11 29 23 37 26 25 10 73 -2 97 -25z m540 8 c6 -6 13 -57 16
-118 l5 -108 -34 0 -34 0 0 90 c0 72 -3 92 -15 96 -33 13 -45 -15 -45 -102 l0
-84 -35 0 -35 0 0 120 0 120 35 0 c19 0 35 -4 35 -9 0 -6 12 -3 28 4 28 15 58
12 79 -9z m218 -7 c17 -16 21 -35 23 -120 l4 -100 -44 1 c-23 1 -54 -1 -68 -5
-35 -9 -80 27 -80 64 0 39 19 60 70 75 33 10 46 19 48 35 4 28 -33 29 -50 1
-12 -19 -48 -27 -60 -14 -15 14 11 60 43 77 40 20 84 15 114 -14z m400 16 c37
-15 55 -46 55 -96 0 -29 0 -29 -59 -29 -65 0 -73 -5 -64 -38 6 -26 53 -32 53
-7 0 11 11 15 36 15 32 0 35 -2 29 -22 -4 -13 -18 -34 -33 -47 -21 -19 -33
-22 -65 -18 -59 8 -80 35 -85 107 -5 75 11 118 52 136 39 17 40 17 81 -1z
m198 1 c15 -8 27 -11 27 -5 0 5 14 9 31 9 l30 0 -3 -154 c-3 -134 -5 -157 -22
-175 -42 -46 -144 -35 -166 19 -7 16 -9 34 -5 39 10 18 44 12 57 -9 27 -42 78
-15 78 41 0 18 -3 20 -12 11 -7 -7 -29 -12 -49 -12 -56 0 -79 34 -79 116 0 72
13 107 44 122 29 14 37 14 69 -2z m285 -22 c19 -22 22 -36 22 -120 l0 -95 -42
1 c-24 1 -55 -1 -70 -5 -21 -6 -32 -2 -52 18 -48 48 -29 99 44 121 33 10 46
19 48 35 4 28 -33 29 -50 1 -12 -19 -48 -27 -60 -14 -15 14 11 60 43 77 43 22
86 16 117 -19z m-3048 -94 l0 -120 -35 0 -35 0 0 113 c0 63 3 117 7 120 3 4
19 7 35 7 l28 0 0 -120z m2271 103 c0 -10 8 -43 18 -73 l17 -55 19 73 c18 70
20 72 51 72 l32 0 -24 -82 c-79 -281 -76 -273 -113 -276 -28 -3 -33 -1 -27 14
29 76 29 101 -4 209 -17 59 -34 113 -37 121 -4 10 4 14 31 14 27 0 36 -4 37
-17z m-4577 -680 c-24 -45 -26 -54 -21 -150 7 -120 25 -170 92 -249 25 -29 45
-59 45 -68 0 -31 -60 5 -112 68 -76 90 -99 148 -104 257 -3 81 -1 96 21 140
24 46 28 49 65 49 l39 0 -25 -47z m638 13 c4 -6 8 -34 8 -63 0 -30 5 -55 13
-60 6 -4 37 -6 69 -4 38 2 68 -3 92 -14 66 -32 78 -63 101 -263 l6 -53 -38 3
-38 3 -7 60 c-4 33 -10 84 -13 113 -5 39 -13 59 -33 77 -29 27 -78 33 -114 14
-20 -11 -20 -17 -14 -125 l7 -114 -30 0 c-19 0 -34 7 -40 18 -5 9 -17 106 -26
216 -18 211 -17 220 29 208 11 -3 24 -10 28 -16z m-224 -97 c42 -21 86 -73 79
-94 -8 -23 -39 -14 -82 26 -57 53 -113 62 -151 24 -45 -45 -24 -148 39 -189
44 -29 79 -30 121 -1 66 45 116 14 60 -38 -34 -32 -78 -39 -152 -23 -74 15
-125 53 -152 111 -37 81 -16 168 50 203 34 18 132 8 188 -19z m795 -94 c82
-39 127 -104 127 -186 0 -45 -4 -55 -34 -85 -31 -31 -39 -34 -94 -34 -129 0
-214 63 -235 177 -9 45 13 100 48 123 37 25 142 27 188 5z m445 -69 c23 -14
56 -45 72 -68 25 -34 30 -51 30 -96 0 -48 -4 -58 -34 -88 -34 -34 -54 -39
-131 -34 -160 11 -260 222 -142 300 46 30 146 24 205 -14z m1026 -2 c9 -8 16
-26 16 -39 0 -60 23 -175 35 -175 7 0 35 18 61 40 47 38 98 53 118 33 4 -5
-18 -31 -50 -60 l-58 -51 66 -69 c37 -37 77 -81 89 -97 l23 -29 -39 6 c-32 5
-51 19 -106 78 -38 41 -72 69 -80 67 -10 -4 -14 -22 -13 -62 1 -55 1 -56 -28
-56 -20 0 -31 6 -37 23 -13 33 -62 387 -55 398 8 14 41 11 58 -7z m-800 -11
c4 -4 40 -8 81 -9 57 -1 81 -6 110 -24 34 -21 41 -22 72 -11 72 27 187 -15
211 -76 13 -32 42 -224 35 -235 -7 -13 -50 -9 -61 5 -5 6 -13 41 -16 77 -12
116 -24 155 -56 173 -36 22 -84 22 -105 0 -12 -12 -15 -27 -11 -57 3 -23 8
-72 12 -109 l6 -68 -33 3 -34 3 -17 115 c-9 63 -17 116 -17 118 -4 12 -72 42
-96 42 -54 0 -59 -9 -52 -102 4 -47 10 -99 13 -116 6 -30 5 -32 -24 -32 -16 0
-34 6 -39 13 -12 14 -39 252 -34 290 1 9 45 9 55 0z m2035 -142 c7 -5 19 -35
25 -67 l12 -59 65 -1 c116 -1 150 -38 180 -193 24 -123 24 -121 -11 -121 -33
0 -38 13 -60 149 -15 89 -41 121 -100 121 -55 0 -63 -15 -50 -91 6 -35 14 -83
17 -106 6 -42 5 -43 -25 -43 -33 0 -35 5 -61 165 -6 33 -17 98 -26 145 -8 47
-15 91 -15 98 0 14 28 16 49 3z m-732 -22 c34 -13 80 -55 99 -91 15 -30 19
-74 6 -82 -7 -4 -120 7 -189 19 -28 5 -33 3 -33 -14 0 -26 62 -79 104 -86 20
-4 49 -1 69 6 29 10 39 10 52 -1 14 -12 14 -15 -2 -32 -15 -17 -28 -19 -95
-16 -66 3 -82 7 -120 33 -99 69 -120 231 -34 265 30 12 110 12 143 -1z m568
-84 c40 -23 80 -76 68 -89 -14 -13 -41 -5 -64 20 -74 79 -162 67 -161 -23 0
-23 8 -56 17 -73 32 -63 128 -93 158 -49 11 14 23 20 43 17 36 -4 40 -20 12
-53 -45 -51 -171 -39 -233 23 -80 79 -88 201 -17 245 36 22 123 13 177 -18z
m1434 -63 c12 -23 81 -342 81 -377 0 -23 -3 -25 -22 -19 -13 5 -45 7 -73 6
-76 -2 -118 13 -160 59 -61 68 -78 129 -54 197 17 50 71 62 167 36 19 -5 22
-2 22 19 0 14 -5 38 -10 52 -6 15 -8 31 -4 36 9 15 43 10 53 -9z m-719 -28
c42 -28 51 -46 74 -159 8 -39 19 -83 25 -98 10 -26 9 -27 -19 -27 -16 0 -31 4
-34 9 -3 5 -34 6 -69 4 -77 -7 -129 14 -158 61 -47 78 -9 122 103 119 77 -2
86 9 43 52 -30 31 -76 32 -115 3 -24 -17 -32 -19 -45 -8 -23 19 -18 43 13 63
39 25 129 16 182 -19z m298 -20 c17 -4 47 -20 67 -38 33 -28 38 -40 55 -129
11 -54 24 -106 30 -116 14 -27 -14 -35 -51 -17 -20 10 -38 12 -58 6 -60 -17
-150 19 -177 71 -36 70 2 109 107 109 38 0 69 4 69 9 0 23 -15 43 -41 56 -39
20 -65 19 -90 -6 -23 -23 -47 -22 -63 4 -25 42 59 70 152 51z m1113 -59 c32
-31 64 -77 89 -129 67 -135 65 -252 -5 -333 -27 -32 -35 -36 -48 -25 -14 12
-12 19 14 69 34 64 37 114 13 206 -21 80 -52 140 -108 205 -25 30 -44 58 -40
63 8 13 27 0 85 -56z m-5854 11 c1 -1 5 -36 9 -77 4 -41 10 -81 15 -90 8 -16
148 -39 234 -39 l37 0 -7 84 c-5 52 -3 86 3 90 5 3 24 1 41 -5 24 -8 31 -17
31 -37 1 -15 9 -109 18 -210 l18 -183 -22 -5 c-46 -12 -58 8 -69 108 l-10 93
-80 11 c-44 6 -106 14 -138 17 l-59 6 8 -100 7 -99 -25 0 c-52 0 -58 14 -68
170 -5 80 -12 172 -15 206 -3 33 -2 64 2 68 6 5 62 -1 70 -8z m5503 -70 c42
-27 54 -56 80 -188 6 -32 16 -60 21 -63 5 -4 9 -10 9 -16 0 -12 -57 -12 -65 0
-3 5 -30 7 -59 4 -118 -12 -216 85 -158 157 16 20 27 22 90 21 58 -1 72 2 72
14 0 38 -78 79 -109 56 -43 -31 -61 -35 -78 -18 -16 15 -15 18 8 43 22 24 29
26 87 21 45 -3 74 -12 102 -31z m217 -7 c26 1 47 -5 58 -15 23 -23 13 -39 -23
-39 -54 0 -58 -13 -35 -122 12 -54 19 -101 17 -105 -8 -12 -41 -9 -51 5 -8 10
-64 256 -63 281 0 4 12 5 28 1 15 -4 46 -7 69 -6z m-5002 -118 c63 -29 75 -49
90 -153 7 -51 16 -110 20 -130 7 -38 7 -38 -27 -38 -19 0 -39 5 -44 10 -7 7
-27 7 -61 1 -83 -16 -154 11 -194 75 -19 31 -20 38 -8 66 17 41 61 58 154 58
72 0 76 1 73 21 -7 52 -105 83 -146 46 -10 -9 -33 -17 -50 -17 -41 0 -44 29
-6 59 35 28 141 29 199 2z m207 -23 c9 -7 30 -49 48 -93 17 -44 37 -86 45 -94
15 -16 35 -7 35 16 0 9 9 47 21 85 20 68 21 69 52 66 29 -3 35 -10 77 -95 25
-51 50 -97 56 -103 18 -18 30 8 46 95 13 74 16 80 39 83 50 6 52 -14 13 -164
-35 -136 -46 -159 -72 -149 -8 3 -18 5 -22 5 -5 0 -34 53 -65 117 -41 84 -59
113 -65 103 -5 -8 -19 -46 -30 -85 -33 -108 -37 -115 -64 -115 -13 0 -28 6
-34 13 -11 14 -126 270 -137 305 -5 18 -3 22 17 22 13 0 31 -6 40 -12z m1151
3 c22 -9 25 -18 37 -121 9 -72 18 -114 27 -117 7 -3 36 16 65 41 39 34 61 46
85 46 17 0 34 -4 37 -9 3 -5 -19 -32 -50 -60 l-56 -51 30 -38 c17 -20 56 -62
86 -92 31 -30 56 -58 56 -62 0 -4 -14 -8 -31 -8 -25 0 -46 14 -110 76 -94 92
-116 94 -105 12 8 -56 0 -68 -40 -60 -14 2 -26 13 -29 26 -11 49 -53 412 -48
418 6 10 17 10 46 -1z m-415 -77 c17 -4 48 -20 67 -38 35 -30 37 -36 55 -146
10 -63 22 -123 26 -134 6 -17 4 -18 -32 -11 -21 4 -68 6 -104 6 -79 -2 -140
19 -175 60 -30 36 -32 78 -6 110 17 22 29 24 115 27 53 2 96 6 96 8 0 25 -35
62 -68 73 -37 12 -43 12 -75 -8 -43 -26 -87 -28 -87 -3 1 21 19 47 40 55 21 8
111 8 148 1z m933 -105 c138 -30 219 -211 130 -291 -43 -38 -122 -41 -196 -8
-93 41 -151 164 -112 240 16 31 73 70 103 70 13 0 46 -5 75 -11z m1042 2 c27
-10 40 -52 52 -164 4 -36 12 -60 21 -64 8 -3 36 15 66 42 42 38 56 45 77 40
44 -11 43 -20 -9 -69 -28 -27 -50 -52 -48 -56 2 -4 41 -47 87 -96 l84 -89 -34
-3 c-29 -3 -40 4 -105 70 -40 40 -78 73 -86 73 -9 0 -13 -16 -13 -60 0 -52 -3
-60 -20 -63 -11 -1 -26 2 -33 6 -7 5 -23 76 -37 163 -14 85 -29 179 -34 209
-12 72 -9 76 32 61z m-523 -64 c51 -2 55 -4 55 -27 0 -22 -5 -25 -37 -28 -56
-5 -60 -16 -43 -118 19 -118 19 -134 -3 -134 -42 0 -51 21 -72 163 -11 76 -20
143 -20 149 0 6 12 8 33 4 17 -4 57 -8 87 -9z m285 -27 c32 0 101 -50 132 -95
51 -75 47 -170 -8 -209 -30 -21 -117 -21 -167 0 -141 59 -185 248 -69 300 17
8 45 12 61 9 16 -3 39 -5 51 -5z m1333 -67 c12 -49 72 -366 72 -381 0 -11
-101 -9 -187 4 -70 11 -143 113 -143 202 0 54 12 77 50 97 30 15 115 11 126
-6 10 -17 36 -10 31 9 -3 9 -8 38 -12 65 l-6 47 30 0 c27 0 31 -4 39 -37z
m156 1 c3 -9 6 -28 6 -42 0 -15 6 -38 13 -51 11 -22 19 -24 77 -25 108 -2 143
-41 174 -192 22 -113 21 -124 -9 -124 -31 0 -40 18 -60 130 -19 108 -38 134
-96 138 -31 2 -47 -1 -55 -12 -12 -17 -11 -26 12 -144 15 -74 13 -92 -10 -92
-35 0 -45 28 -80 216 -20 105 -36 196 -36 202 0 18 57 15 64 -4z m-728 -40
c21 -14 49 -40 60 -58 25 -38 39 -92 26 -100 -5 -3 -55 0 -111 7 -62 8 -104
10 -108 4 -9 -15 19 -57 54 -78 34 -21 64 -22 135 -4 39 10 50 -20 17 -47 -34
-27 -137 -18 -190 16 -104 69 -135 207 -60 267 36 30 126 26 177 -7z m1801
-76 c8 -11 53 -201 88 -374 6 -33 -10 -49 -40 -38 -18 7 -16 2 -60 214 -20 96
-39 183 -41 193 -4 13 1 17 19 17 14 0 29 -6 34 -12z m-530 -73 c70 -50 110
-143 92 -210 -13 -47 -43 -65 -107 -65 -116 0 -212 95 -212 210 0 33 6 48 30
72 29 28 35 30 93 26 50 -3 72 -10 104 -33z m326 -18 c114 -48 174 -191 112
-265 -51 -61 -147 -49 -226 27 -85 83 -94 210 -15 241 32 13 93 12 129 -3z
m-5468 -52 c72 -28 125 -92 125 -151 0 -15 -11 -42 -25 -60 -31 -41 -78 -51
-204 -44 l-93 5 4 -83 c3 -46 1 -85 -4 -88 -16 -10 -66 7 -73 24 -3 9 -10 80
-15 157 -5 77 -12 170 -15 207 -5 59 -4 67 12 70 32 6 247 -21 288 -37z m6107
-15 c38 -11 108 -68 108 -89 0 -20 -43 -11 -70 14 -35 33 -97 45 -106 20 -12
-29 8 -46 83 -74 80 -29 118 -60 126 -99 12 -62 -32 -87 -125 -70 -52 9 -70
18 -100 48 -21 21 -38 43 -38 49 0 21 39 11 71 -18 31 -29 98 -49 119 -36 16
10 12 40 -7 57 -10 9 -45 24 -77 34 -117 37 -164 121 -91 162 25 14 60 15 107
2z m-5439 -19 c21 -8 25 -18 31 -79 l7 -70 72 1 c140 3 181 -41 199 -213 12
-117 8 -140 -19 -140 -40 0 -47 16 -59 134 -12 124 -19 141 -72 163 -27 11
-41 12 -68 3 -44 -15 -49 -35 -35 -147 16 -130 17 -125 -26 -121 -38 3 -38 3
-45 58 -18 146 -38 401 -33 410 8 12 17 13 48 1z m5784 -31 c53 -24 78 -63 93
-149 7 -36 19 -78 26 -93 8 -15 14 -32 14 -38 0 -13 -43 -13 -56 0 -7 7 -21 7
-43 -1 -36 -13 -94 -1 -138 28 -57 38 -67 124 -16 144 13 5 48 9 78 9 30 0 56
4 59 9 10 15 -33 59 -65 66 -24 5 -38 2 -60 -15 -34 -24 -69 -19 -69 10 0 49
100 66 177 30z m-5987 -97 c60 -33 113 -136 90 -173 -4 -7 -47 -6 -128 2 -142
14 -158 9 -122 -41 42 -59 111 -76 185 -46 28 12 40 13 51 4 77 -64 -147 -97
-243 -36 -124 79 -131 256 -13 306 37 16 139 7 180 -16z m641 -57 c23 -10 41
-11 58 -5 31 12 107 2 144 -20 52 -29 65 -70 92 -287 3 -29 0 -32 -26 -36 -15
-3 -33 -2 -39 2 -5 3 -16 59 -23 123 -11 97 -17 121 -36 141 -32 34 -72 41
-112 21 l-32 -17 7 -111 c4 -61 8 -116 9 -121 2 -14 -52 -21 -64 -9 -8 8 -39
253 -39 311 0 26 14 28 61 8z m599 -71 c56 -39 105 -141 77 -163 -8 -7 -50 -6
-129 2 -131 13 -137 11 -97 -46 38 -53 122 -74 168 -42 19 14 27 14 47 4 32
-18 30 -26 -8 -51 -27 -17 -45 -20 -100 -16 -119 8 -202 80 -215 187 -7 63 10
105 56 136 31 21 44 24 100 19 47 -3 74 -11 101 -30z m384 -22 c4 -5 45 -8 91
-8 69 0 89 -4 112 -21 31 -24 62 -71 68 -106 16 -92 25 -158 25 -186 0 -32 -2
-33 -32 -30 l-33 3 -18 120 c-16 110 -19 122 -47 148 -33 30 -51 33 -100 16
l-33 -12 7 -66 c3 -36 9 -92 12 -123 l7 -58 -36 0 -35 0 -12 88 c-6 48 -16
118 -21 155 -5 38 -7 73 -4 78 7 11 39 12 49 2z m988 -54 c11 -24 28 -40 48
-48 40 -13 38 -45 -3 -49 -25 -3 -28 -7 -23 -30 3 -15 10 -59 16 -99 12 -73
27 -98 65 -105 12 -2 20 -11 20 -23 0 -46 -111 -19 -134 33 -7 15 -19 67 -27
115 -17 102 -27 127 -54 127 -11 0 -24 9 -30 20 -11 21 -7 25 35 32 13 2 20
12 21 28 2 40 3 42 26 38 15 -2 29 -16 40 -39z m-435 -4 c75 -32 85 -49 108
-191 8 -53 20 -105 26 -116 10 -19 9 -20 -33 -14 -23 4 -56 6 -73 5 -117 -8
-173 11 -208 72 -44 76 10 131 125 127 37 -1 70 0 73 4 10 9 -22 65 -40 72
-32 12 -83 6 -108 -14 -30 -23 -50 -25 -66 -6 -45 55 102 100 196 61z m641
-67 c5 -7 15 -47 21 -88 18 -108 30 -149 52 -171 24 -24 79 -25 108 -1 21 16
22 20 11 82 -7 36 -14 89 -17 118 -5 46 -3 52 13 52 38 0 47 -18 70 -146 13
-71 23 -139 24 -152 0 -26 -22 -38 -47 -26 -10 4 -53 8 -95 8 -138 2 -166 43
-195 289 -5 45 -4 47 20 47 13 0 29 -6 35 -12z m541 -52 c17 -10 34 -11 55 -5
111 32 236 -78 236 -208 0 -98 -64 -142 -162 -110 -26 8 -50 12 -53 7 -3 -4
-1 -30 5 -56 7 -41 6 -51 -7 -61 -11 -8 -22 -9 -34 -3 -18 10 -25 36 -53 205
-9 50 -21 118 -27 153 -11 60 -8 92 8 92 4 -1 19 -7 32 -14z m1413 -147 c15
-74 34 -164 43 -200 8 -37 15 -74 15 -83 0 -19 -43 -22 -57 -3 -6 6 -20 62
-31 122 -12 61 -30 152 -41 204 -12 51 -19 97 -16 101 3 5 17 5 33 1 26 -7 28
-13 54 -142z m-890 101 c68 -19 94 -51 113 -138 9 -42 23 -99 30 -127 10 -33
11 -51 4 -56 -13 -7 -57 0 -64 12 -3 4 -19 3 -36 -3 -42 -14 -103 -4 -144 23
-61 42 -74 112 -29 148 22 17 41 21 99 21 68 0 73 1 68 20 -13 49 -102 79
-135 46 -25 -24 -56 -29 -66 -9 -31 54 62 90 160 63z m203 -24 c11 -8 43 -57
70 -110 28 -53 55 -94 60 -93 6 2 16 35 22 73 20 113 21 114 49 114 13 0 27
-7 30 -15 7 -18 -50 -311 -70 -359 -18 -44 -53 -62 -93 -49 -38 13 -38 44 1
54 63 17 61 48 -16 184 -111 200 -110 197 -96 206 18 12 20 11 43 -5z m474
-51 c48 -24 65 -55 94 -168 38 -150 38 -143 2 -139 -16 2 -58 3 -92 2 -105 -2
-183 49 -183 120 0 57 27 75 113 75 83 0 92 11 49 55 -36 36 -83 40 -109 10
-32 -37 -83 -17 -66 26 16 42 127 53 192 19z m-5086 -175 c141 -16 207 -62
207 -145 0 -29 -6 -47 -20 -60 -26 -23 -25 -41 1 -55 28 -16 59 -69 59 -105 0
-47 -33 -92 -78 -106 -48 -14 -283 -3 -305 14 -11 9 -19 68 -30 231 -9 120
-14 223 -11 227 7 12 69 11 177 -1z m1201 -155 c5 -38 11 -72 13 -75 2 -2 34
-3 71 -2 80 4 106 -5 151 -50 52 -51 74 -111 68 -183 -5 -53 -10 -64 -41 -92
-29 -27 -44 -33 -80 -33 -24 0 -63 7 -86 15 -26 9 -57 13 -80 9 -22 -4 -40 -2
-44 4 -5 9 -20 136 -51 430 l-5 53 37 -3 38 -3 9 -70z m-817 -3 c8 -5 43 -271
43 -334 0 -4 -18 -8 -40 -8 -46 0 -43 -8 -60 187 -14 170 -15 163 18 163 15 0
32 -4 39 -8z m188 -16 c14 -10 39 -12 96 -9 67 5 82 3 117 -17 24 -13 48 -37
57 -56 15 -32 47 -262 38 -276 -7 -12 -58 -9 -71 4 -7 7 -12 31 -12 55 0 23
-5 76 -11 118 -10 64 -16 79 -41 100 -32 27 -72 32 -113 13 l-27 -12 4 -130 3
-131 -26 -3 c-14 -2 -30 3 -36 10 -13 16 -39 308 -30 331 8 21 27 22 52 3z
m1493 -48 c7 -7 12 -22 12 -34 0 -25 15 -39 53 -48 39 -9 33 -40 -9 -44 l-30
-3 8 -72 c15 -147 25 -170 73 -179 12 -2 20 -11 20 -23 0 -17 -7 -20 -47 -19
-80 1 -99 32 -118 186 -13 108 -17 118 -44 118 -52 1 -65 52 -13 58 22 3 27 8
27 31 0 15 3 31 7 34 11 11 48 8 61 -5z m-233 -72 c51 -30 60 -51 80 -181 8
-55 18 -110 21 -121 8 -28 -31 -39 -64 -18 -19 12 -29 13 -58 4 -43 -15 -121
-5 -161 20 -32 19 -63 70 -63 101 0 10 13 33 29 51 28 31 33 33 108 35 43 1
83 2 90 3 16 0 6 28 -20 57 -33 37 -81 40 -125 9 -48 -33 -70 -33 -78 0 -6 25
9 44 56 66 31 15 141 -1 185 -26z m631 -46 c54 -27 70 -51 84 -131 6 -35 15
-86 20 -114 5 -27 12 -58 15 -67 6 -15 1 -18 -27 -18 -19 0 -39 5 -45 11 -8 8
-17 7 -34 -1 -26 -14 -120 -8 -159 9 -33 16 -70 70 -70 105 0 66 38 89 148 87
66 -1 72 0 72 19 0 12 -11 32 -25 45 -31 32 -91 34 -128 5 -44 -34 -86 -23
-72 20 16 51 143 68 221 30z m410 -41 c46 -28 61 -61 78 -171 8 -51 19 -105
25 -120 7 -18 7 -29 0 -33 -12 -8 -67 4 -74 15 -3 5 -19 4 -36 -2 -45 -16
-123 -5 -163 23 -43 29 -60 67 -52 112 9 49 47 67 140 67 84 0 92 7 56 53 -32
41 -82 45 -130 12 -40 -28 -66 -28 -76 0 -7 18 20 53 51 66 34 15 143 2 181
-22z m172 -6 c11 -10 44 -65 73 -122 60 -118 59 -118 92 17 22 86 23 87 55 90
38 4 40 -8 17 -98 -7 -30 -23 -93 -35 -140 -39 -158 -45 -172 -73 -196 -45
-38 -107 -30 -107 12 0 18 6 24 20 24 12 0 32 12 47 26 33 33 29 53 -42 179
-106 192 -112 204 -95 215 21 13 25 13 48 -7z m554 -59 c41 -26 88 -106 88
-150 0 -24 -2 -25 -37 -20 -21 3 -75 8 -120 12 -77 6 -83 5 -83 -12 1 -22 24
-52 60 -77 31 -22 93 -22 126 -1 23 16 26 15 45 -2 l21 -19 -28 -23 c-24 -21
-35 -24 -99 -20 -58 3 -80 9 -113 31 -118 78 -136 243 -32 299 45 25 120 17
172 -18z m1116 -3 c7 -4 16 -21 20 -36 6 -20 17 -31 37 -37 15 -4 32 -13 36
-20 10 -16 -8 -38 -26 -32 -23 9 -25 -12 -6 -109 19 -103 30 -124 64 -129 14
-2 23 -11 25 -25 3 -20 -1 -23 -30 -23 -44 0 -80 20 -95 51 -7 14 -20 63 -28
110 -9 46 -18 94 -21 106 -3 15 -15 25 -37 31 -22 6 -33 15 -35 31 -2 14 1 22
10 20 30 -4 38 2 38 29 0 41 17 53 48 33z m-581 -32 c59 -28 70 -49 93 -166
11 -55 24 -111 29 -125 5 -14 7 -29 4 -32 -10 -10 -51 -7 -58 4 -4 6 -33 8
-75 4 -86 -8 -149 17 -174 70 -39 83 2 126 119 126 82 0 95 18 47 62 -41 36
-86 37 -121 4 -20 -19 -31 -22 -48 -15 -31 12 -29 43 5 68 37 28 121 28 179 0z
m343 -19 c20 -5 50 -22 68 -37 29 -25 35 -39 56 -143 13 -63 27 -123 31 -132
10 -26 -22 -35 -55 -16 -17 10 -33 12 -41 7 -17 -10 -74 -12 -118 -3 -37 8
-88 55 -97 90 -18 70 27 109 122 106 69 -3 80 4 63 41 -21 47 -96 62 -126 27
-21 -24 -68 -27 -77 -4 -4 10 5 27 23 45 32 32 82 38 151 19z m470 -62 c15
-36 61 -288 55 -299 -8 -13 -28 -11 -48 4 -12 8 -25 53 -42 142 -32 167 -32
175 0 175 17 0 29 -8 35 -22z m1500 0 c8 -19 46 -179 89 -376 10 -48 -2 -62
-36 -43 -12 6 -34 6 -56 1 -45 -10 -101 2 -136 28 -73 54 -116 176 -88 244 20
49 63 65 129 49 28 -6 53 -10 55 -7 2 2 -1 23 -6 47 -16 69 -14 79 14 79 17 0
29 -8 35 -22z m-1202 -16 c10 -10 38 -56 61 -103 24 -46 47 -88 53 -94 14 -16
26 13 34 85 11 105 27 129 66 98 14 -12 13 -28 -11 -173 -32 -184 -45 -231
-71 -245 -30 -16 -87 -12 -94 6 -8 22 -1 31 31 39 61 15 57 53 -21 189 -75
131 -106 191 -106 206 0 17 39 11 58 -8z m426 -23 c75 -19 102 -57 136 -195
16 -65 30 -123 30 -128 0 -4 -15 -5 -32 -2 -18 4 -42 6 -53 6 -110 -5 -123 -3
-157 18 -45 28 -74 85 -62 121 14 40 68 63 131 56 31 -4 54 -2 57 4 10 15 -20
56 -50 69 -35 17 -55 15 -78 -7 -36 -34 -76 -31 -76 4 0 18 10 31 33 45 37 23
60 24 121 9z m399 -51 c46 -25 58 -51 92 -193 30 -124 30 -115 3 -115 -13 0
-29 5 -35 11 -7 7 -22 7 -49 0 -91 -24 -195 38 -194 116 1 56 53 88 126 77 23
-3 47 -3 53 0 16 10 -9 56 -40 72 -38 19 -63 18 -84 -6 -25 -28 -69 -23 -73 7
-2 16 6 28 30 43 41 26 110 21 171 -12z m-5798 -138 c160 -11 349 -25 420 -30
72 -6 225 -17 340 -25 116 -9 298 -22 405 -30 107 -8 263 -20 345 -26 83 -5
161 -11 175 -12 23 -2 26 -8 33 -62 18 -131 16 -125 42 -125 31 0 35 -34 6
-50 -17 -8 -20 -6 -26 20 -4 17 -11 30 -17 30 -6 0 -35 -25 -66 -55 -31 -30
-59 -55 -63 -55 -18 0 -27 35 -37 139 -7 74 -15 117 -24 122 -16 11 -68 12
-68 2 0 -5 7 -66 15 -138 9 -71 20 -177 27 -235 6 -58 15 -111 21 -117 5 -7
22 -13 38 -13 16 0 29 6 30 13 0 6 1 37 2 67 3 80 26 78 102 -10 33 -37 63
-69 68 -69 4 -1 7 20 7 45 l0 45 40 -46 c45 -52 44 -69 -4 -60 l-33 7 9 -68
c4 -37 6 -70 3 -72 -2 -2 -154 5 -337 17 -183 11 -484 30 -668 41 -184 11
-438 27 -565 35 -126 8 -321 20 -433 27 -192 11 -203 13 -206 32 -6 28 -46
612 -46 656 l0 36 88 -8 c48 -4 218 -17 377 -28z m2702 -257 c3 -9 11 -44 17
-77 l11 -61 77 3 c133 7 166 -31 193 -220 9 -64 14 -122 10 -128 -8 -13 -52
-13 -60 0 -3 6 -15 65 -25 133 -16 107 -22 125 -45 144 -33 29 -88 30 -115 3
-24 -24 -23 -14 -5 -136 20 -130 19 -131 -10 -136 -44 -9 -52 9 -70 152 -9 74
-20 153 -25 175 -4 22 -11 68 -15 103 l-7 62 31 0 c20 0 34 -6 38 -17z m-590
-94 c24 -12 51 -31 59 -44 8 -12 23 -74 33 -137 10 -64 24 -125 30 -136 10
-19 8 -22 -15 -28 -17 -4 -36 -1 -53 9 -18 11 -32 12 -43 6 -30 -17 -120 -14
-160 5 -62 30 -95 105 -68 155 14 27 87 53 140 50 92 -4 103 10 51 62 -38 37
-84 39 -125 4 -33 -28 -58 -32 -76 -10 -17 20 -7 41 32 65 46 28 137 27 195
-1z m2011 -1 c5 -7 15 -49 21 -94 14 -95 29 -154 40 -154 4 0 31 25 60 55 36
37 60 55 77 55 42 0 39 -26 -10 -83 -25 -30 -46 -58 -46 -62 0 -5 38 -48 85
-96 47 -47 85 -92 85 -98 0 -6 -12 -11 -28 -11 -21 0 -45 18 -102 75 -41 41
-83 75 -93 75 -18 0 -19 -5 -13 -64 8 -69 0 -81 -40 -65 -19 6 -24 23 -39 106
-9 54 -20 116 -25 138 -5 22 -14 76 -20 120 -6 44 -13 88 -16 98 -4 13 1 17
24 17 16 0 34 -6 40 -12z m-1604 -18 c28 -10 25 0 56 -223 26 -189 26 -221 -1
-248 -16 -16 -30 -19 -67 -17 -43 3 -47 5 -47 28 0 17 6 26 20 28 34 7 46 23
40 56 -2 17 -7 47 -9 66 -2 19 -12 92 -22 162 -15 112 -15 158 0 158 3 0 16
-4 30 -10z m786 -75 c43 -30 48 -41 75 -185 9 -47 20 -93 25 -102 6 -10 10
-22 10 -28 0 -14 -63 -13 -78 2 -9 9 -18 9 -37 0 -88 -40 -225 26 -225 109 0
70 47 101 145 97 35 -1 67 0 70 4 12 12 -16 58 -44 73 -41 21 -59 19 -102 -11
-46 -32 -73 -29 -77 8 -3 22 4 32 30 48 49 31 152 23 208 -15z m252 5 c48 1
58 -2 68 -20 15 -28 5 -40 -34 -40 -17 0 -37 -5 -44 -12 -14 -14 -15 -66 -3
-123 5 -22 12 -64 15 -92 l7 -53 -35 0 c-32 0 -36 3 -41 33 -54 329 -54 322
-17 312 15 -4 53 -6 84 -5z m357 -40 c125 -64 164 -250 65 -315 -30 -19 -113
-22 -157 -6 -39 15 -96 70 -119 115 -26 49 -29 128 -8 171 32 65 131 81 219
35z m753 -55 c49 -33 57 -49 84 -175 13 -58 26 -115 30 -127 6 -20 3 -23 -23
-23 -16 0 -34 5 -40 11 -9 9 -20 9 -44 0 -63 -22 -132 -6 -177 40 -39 40 -47
71 -27 113 18 39 68 57 145 53 54 -2 64 19 26 58 -32 32 -87 34 -117 4 -27
-27 -73 -23 -77 7 -9 63 145 90 220 39z m448 -15 c62 1 80 -2 102 -19 31 -25
44 -26 64 -6 19 19 84 19 127 1 43 -17 84 -67 95 -114 12 -48 42 -205 42 -215
0 -5 -14 -7 -32 -5 -31 3 -32 5 -49 83 -9 44 -20 98 -24 119 -13 78 -97 124
-140 76 -19 -21 -19 -23 9 -174 16 -86 15 -96 -13 -96 -28 0 -38 18 -56 110
-9 47 -21 99 -26 116 -18 59 -72 88 -126 70 -29 -9 -29 -29 -3 -166 11 -58 20
-106 20 -107 0 -8 -60 -1 -65 7 -6 10 -47 205 -60 289 l-7 44 33 -7 c19 -4 68
-6 109 -6z m686 -65 c48 -28 64 -62 89 -183 8 -40 20 -82 25 -92 18 -35 12
-43 -27 -36 -45 7 -45 7 -105 0 -90 -11 -168 49 -168 130 0 49 34 70 118 73
35 1 66 4 69 6 8 9 -26 64 -42 71 -36 13 -84 6 -98 -15 -18 -25 -60 -22 -65 4
-2 11 6 30 19 43 33 35 125 34 185 -1z m315 -5 c40 -11 83 -52 99 -94 6 -16
19 -68 30 -115 11 -47 23 -96 26 -108 5 -20 2 -23 -19 -23 -14 0 -28 4 -31 9
-3 5 -33 7 -65 4 -73 -7 -101 0 -140 33 -43 36 -59 93 -36 127 19 30 75 52
106 42 24 -8 69 1 69 14 0 5 -12 23 -26 40 -33 40 -80 42 -112 6 -12 -14 -28
-25 -36 -25 -21 0 -38 27 -31 50 14 43 89 61 166 40z m-6354 -312 c12 -15 47
-483 38 -498 -7 -12 -55 -13 -71 -2 -11 7 -27 163 -41 410 l-6 102 35 0 c20 0
40 -6 45 -12z m323 -139 c158 3 189 -33 210 -237 7 -67 10 -129 6 -137 -3 -9
-18 -15 -40 -15 -40 0 -39 -3 -55 182 -9 102 -16 120 -63 144 -23 12 -35 13
-68 3 -63 -19 -65 -24 -53 -167 5 -70 8 -133 5 -139 -2 -7 -19 -13 -38 -13
-27 0 -35 5 -39 23 -9 37 -33 351 -28 360 3 5 19 6 37 2 17 -4 74 -6 126 -6z
m351 -26 c24 -14 33 -15 49 -5 27 16 113 15 155 -2 61 -26 82 -76 98 -228 8
-73 11 -137 7 -141 -4 -5 -23 -7 -41 -5 l-34 3 -12 105 c-6 58 -12 118 -12
133 -1 18 -13 40 -31 59 -28 27 -36 30 -75 25 -76 -8 -79 -14 -70 -147 4 -63
8 -126 8 -140 2 -23 -2 -25 -38 -25 l-40 0 -8 80 c-4 44 -11 125 -17 180 -12
126 -1 145 61 108z m2798 -15 c5 -13 17 -75 26 -138 9 -63 25 -164 35 -225 21
-126 16 -144 -35 -125 -20 8 -43 8 -75 1 -115 -25 -213 48 -241 178 -15 69 2
131 44 167 27 23 37 25 91 21 34 -3 70 -6 81 -8 15 -3 19 1 18 16 -1 11 -5 46
-9 78 l-7 57 32 0 c23 0 34 -6 40 -22z m-2059 -18 c85 1 98 -1 124 -21 26 -20
31 -21 60 -9 55 24 139 24 184 1 57 -29 79 -79 96 -226 16 -132 12 -147 -39
-138 -29 6 -30 8 -46 153 -12 103 -16 118 -40 143 -31 31 -91 37 -124 13 -22
-16 -23 -40 -11 -193 l9 -103 -36 0 c-43 0 -41 -5 -57 150 -12 113 -26 145
-74 168 -32 16 -88 9 -106 -13 -10 -12 -10 -43 0 -146 14 -142 11 -153 -36
-147 -29 3 -29 5 -41 93 -6 50 -15 134 -19 189 l-7 99 34 -8 c19 -4 77 -6 129
-5z m3068 -32 c7 -7 12 -26 12 -42 0 -17 5 -48 10 -68 l11 -36 72 4 c67 4 75
3 111 -23 58 -41 95 -120 96 -205 0 -57 -4 -71 -25 -96 -30 -36 -72 -45 -133
-30 -26 6 -67 12 -92 12 -43 1 -44 2 -52 40 -8 36 -78 445 -78 452 0 10 57 3
68 -8z m-2314 -5 c54 -9 130 -82 146 -142 19 -73 17 -74 -127 -70 -117 4 -128
3 -131 -14 -2 -12 12 -33 38 -58 35 -33 47 -39 85 -39 24 0 57 8 74 18 24 13
35 14 48 6 26 -16 22 -34 -10 -58 -23 -17 -42 -21 -101 -21 -62 1 -79 5 -121
31 -73 44 -107 108 -103 194 6 124 73 175 202 153z m290 -35 c7 -13 21 -84 30
-158 9 -74 19 -147 22 -162 5 -27 4 -28 -35 -28 -23 0 -41 2 -41 4 0 2 -9 70
-20 151 -27 199 -27 215 5 215 15 0 30 -9 39 -22z m266 1 c69 1 91 -2 117 -18
52 -32 66 -65 90 -210 24 -139 22 -151 -17 -151 -32 0 -39 19 -56 139 -19 136
-38 174 -94 186 -32 7 -84 -15 -93 -39 -3 -8 1 -59 9 -113 8 -54 14 -111 12
-128 -3 -27 -6 -30 -33 -27 -16 2 -31 5 -32 6 -2 2 -36 225 -47 311 -5 46 2
58 33 50 14 -4 64 -7 111 -6z m1093 -60 c85 -23 157 -123 157 -218 0 -100 -46
-146 -145 -145 -68 1 -106 17 -151 66 -46 48 -66 95 -68 152 -2 119 84 179
207 145z m455 -38 c128 -65 166 -275 60 -332 -33 -18 -137 -16 -174 4 -43 22
-99 87 -114 132 -7 21 -10 64 -8 98 4 54 8 63 38 89 30 24 43 28 98 28 42 0
75 -6 100 -19z m960 -45 c41 -22 85 -72 79 -90 -10 -25 -41 -19 -72 14 -44 46
-117 52 -128 11 -8 -30 18 -50 91 -72 39 -12 87 -35 106 -51 57 -47 59 -120 4
-149 -35 -19 -131 -13 -176 10 -57 29 -104 99 -69 102 26 3 43 -3 57 -19 43
-50 113 -68 143 -37 16 16 12 48 -7 63 -6 5 -42 20 -81 32 -86 28 -131 60
-140 100 -9 41 1 67 33 85 35 18 125 19 160 1z m372 -31 c51 -32 63 -57 90
-185 12 -58 24 -115 27 -127 4 -19 1 -23 -19 -23 -13 0 -29 5 -35 11 -7 7 -23
7 -53 -1 -82 -22 -164 11 -195 79 -35 79 12 131 117 131 63 0 75 9 57 42 -29
54 -94 65 -131 23 -24 -28 -50 -32 -67 -11 -15 18 -2 47 31 70 37 26 130 21
178 -9z m494 -12 c4 -5 29 -8 54 -8 l47 0 37 -160 c46 -201 47 -235 11 -275
-47 -52 -157 -49 -222 6 -47 41 -17 64 44 35 78 -37 140 -20 133 36 -2 22 -7
27 -23 25 -64 -11 -102 -6 -148 21 -40 24 -54 40 -78 90 -39 84 -41 162 -3
206 23 28 31 31 83 31 32 0 61 -3 65 -7z m404 -27 c62 -32 84 -72 111 -197 11
-52 23 -104 27 -117 6 -21 4 -22 -52 -21 -33 1 -81 0 -107 -1 -57 -2 -109 27
-132 77 -40 83 1 133 109 133 62 0 71 8 55 43 -21 46 -105 64 -131 29 -20 -28
-37 -35 -53 -22 -23 19 -18 46 11 69 32 25 120 29 162 7z m-6440 -428 c6 -7
13 -56 17 -108 12 -149 4 -148 137 -16 110 109 119 116 157 116 22 0 42 -4 45
-9 3 -5 -37 -55 -90 -110 -87 -92 -96 -104 -86 -124 6 -12 63 -78 126 -147 64
-68 116 -128 116 -132 0 -4 -19 -8 -42 -8 -42 0 -46 3 -159 122 l-117 123 -28
-21 c-28 -21 -29 -24 -29 -115 l0 -94 -38 -3 c-31 -3 -38 1 -46 20 -12 28 -44
495 -36 508 9 14 61 12 73 -2z m1254 -26 c3 -4 11 -59 17 -122 14 -141 18
-160 33 -160 7 0 40 28 75 62 51 50 67 61 94 60 49 -1 54 -15 19 -48 -17 -16
-47 -48 -66 -71 l-35 -43 95 -104 c53 -58 96 -109 96 -115 0 -6 -17 -11 -37
-11 -33 0 -44 8 -116 85 -44 47 -86 85 -93 85 -23 0 -33 -34 -27 -98 l6 -62
-37 0 c-29 0 -38 5 -45 23 -12 34 -55 503 -47 522 5 13 13 15 34 10 15 -3 30
-9 34 -13z m-488 -156 c50 -38 56 -54 72 -190 8 -66 17 -136 20 -155 l7 -34
-39 7 c-22 4 -43 11 -48 16 -4 5 -26 2 -48 -6 -118 -41 -248 23 -248 122 0 71
70 114 186 114 71 0 74 1 74 24 0 13 -12 35 -26 50 -37 36 -105 37 -138 1 -15
-17 -34 -25 -55 -25 -59 0 -49 54 17 90 30 17 51 20 114 17 65 -3 82 -8 112
-31z m296 10 l75 -1 0 -30 c0 -28 -3 -30 -43 -36 -73 -9 -77 -20 -62 -151 17
-151 15 -162 -31 -166 -36 -3 -36 -2 -42 40 -14 109 -29 327 -23 343 5 13 12
15 29 10 12 -5 56 -8 97 -9z m814 -46 c50 -31 90 -96 90 -150 l1 -45 -135 0
c-154 0 -161 -5 -110 -67 45 -55 98 -67 166 -39 28 12 58 19 67 15 46 -17 -7
-76 -78 -88 -56 -9 -142 10 -182 40 -79 60 -115 182 -79 266 17 40 67 83 106
91 45 9 121 -2 154 -23z m416 -3 c15 -8 34 -11 45 -6 34 13 135 10 163 -5 96
-51 149 -201 107 -303 -29 -69 -87 -95 -170 -74 -70 18 -69 19 -62 -56 7 -70
-1 -93 -33 -93 -10 0 -23 6 -29 14 -14 17 -76 498 -68 521 8 18 15 19 47 2z
m656 -33 c86 -53 125 -116 126 -204 2 -109 -55 -170 -157 -170 -123 1 -225
104 -227 229 -1 63 23 115 69 145 33 23 46 26 99 22 35 -2 73 -11 90 -22z
m2242 4 c7 -7 12 -22 12 -34 0 -26 16 -41 50 -46 17 -2 26 -10 28 -25 3 -19
-1 -23 -22 -23 -14 0 -27 -4 -30 -8 -7 -12 28 -203 43 -230 7 -12 25 -25 42
-29 22 -4 29 -11 29 -29 0 -21 -5 -24 -35 -24 -84 0 -110 40 -135 200 -16 102
-24 120 -54 120 -15 0 -30 8 -36 19 -14 27 -14 28 21 35 27 5 30 9 29 38 -1
18 -2 36 -1 41 2 12 46 8 59 -5z m-1835 -9 c44 -12 111 -68 134 -113 9 -17 20
-56 24 -86 6 -44 4 -63 -12 -100 -25 -59 -60 -80 -133 -80 -125 0 -212 77
-230 202 -20 137 77 216 217 177z m286 -26 c5 -10 14 -49 20 -88 29 -173 51
-322 51 -348 0 -39 -40 -77 -82 -77 -38 0 -52 8 -61 32 -5 14 2 21 28 32 43
19 43 16 5 256 -16 102 -30 191 -30 198 0 19 58 15 69 -5z m324 6 c20 -5 53
-25 71 -44 30 -30 36 -44 51 -132 9 -54 22 -118 30 -143 7 -24 11 -48 9 -52
-8 -12 -48 -10 -61 3 -9 9 -23 9 -58 -1 -146 -41 -282 81 -200 179 32 37 54
45 130 45 l60 1 -2 30 c-5 61 -92 88 -136 42 -41 -43 -87 -45 -87 -3 0 25 44
72 75 79 36 8 79 7 118 -4z m451 -35 c7 -17 40 -203 62 -341 20 -130 2 -167
-78 -161 -39 3 -43 6 -46 31 -3 21 1 27 16 27 11 0 25 7 33 16 14 17 14 16
-34 307 l-23 137 32 0 c20 0 34 -6 38 -16z m357 -10 c30 -15 82 -72 103 -112
36 -70 28 -168 -17 -211 -60 -56 -177 -48 -242 17 -58 58 -79 107 -80 182 0
76 18 112 68 135 37 16 126 11 168 -11z m831 -51 c45 -41 77 -102 78 -146 l0
-27 -109 2 c-138 4 -152 -5 -97 -61 50 -51 101 -62 150 -32 60 38 95 -7 37
-48 -46 -33 -134 -29 -194 8 -91 58 -133 168 -101 264 20 59 48 76 131 77 59
0 66 -2 105 -37z m182 17 c16 -6 27 -6 31 0 4 6 22 10 41 10 27 0 37 -5 43
-22 9 -25 -3 -50 -23 -46 -25 5 -63 -12 -63 -29 -1 -16 27 -174 42 -240 5 -20
1 -23 -24 -23 -16 0 -33 6 -38 13 -11 18 -70 320 -65 335 5 14 22 15 56 2z
m243 -55 c16 -70 51 -245 55 -275 2 -21 -2 -26 -24 -28 -18 -2 -30 3 -37 15
-9 17 -71 309 -71 334 0 6 15 9 32 7 30 -3 34 -7 45 -53z m-5991 -539 c31 -56
167 -255 174 -256 3 0 33 56 67 124 43 86 69 126 83 131 30 9 70 -2 70 -20 0
-8 -22 -54 -49 -102 -26 -49 -65 -120 -85 -159 l-37 -71 10 -94 c11 -101 9
-109 -39 -109 -38 0 -50 18 -51 74 -1 71 -14 156 -25 164 -5 4 -27 34 -50 67
-22 33 -68 100 -102 150 -34 49 -62 92 -62 96 0 12 32 17 65 12 17 -3 30 -6
31 -7z m2118 -25 c4 -5 10 -47 15 -93 5 -45 19 -166 31 -267 17 -136 20 -185
11 -190 -13 -8 -71 -2 -71 8 0 3 -14 114 -30 246 -16 132 -30 255 -30 273 0
30 2 32 34 32 19 0 37 -4 40 -9z m193 -3 c5 -7 15 -58 22 -113 19 -159 22
-175 36 -175 7 0 40 29 73 65 52 57 65 65 96 65 24 0 36 -5 36 -14 0 -13 -86
-117 -102 -124 -5 -2 -8 -12 -8 -21 0 -16 34 -60 138 -172 23 -25 42 -51 42
-58 0 -6 -16 -11 -39 -11 -33 0 -43 6 -74 43 -65 78 -115 127 -131 127 -21 0
-30 -41 -22 -102 5 -37 4 -53 -6 -59 -18 -12 -56 -11 -63 1 -8 13 -74 543 -68
553 7 12 60 8 70 -5z m1620 -40 c6 -7 13 -33 17 -58 10 -68 26 -110 42 -110 8
0 14 5 14 10 0 17 123 12 150 -7 39 -27 79 -76 85 -105 4 -15 11 -30 16 -33 5
-4 9 -41 9 -83 0 -66 -4 -83 -25 -114 -28 -42 -71 -56 -133 -43 -20 5 -64 9
-97 9 l-59 1 -8 40 c-29 161 -77 488 -73 496 9 13 51 11 62 -3z m422 -8 c12
-6 21 -26 25 -57 4 -26 12 -63 17 -80 10 -32 32 -43 44 -23 12 19 115 12 151
-11 51 -31 68 -75 94 -247 19 -122 17 -127 -31 -120 -22 3 -25 13 -45 134 -12
72 -28 141 -35 152 -43 68 -159 51 -159 -22 0 -12 6 -48 14 -81 8 -33 17 -85
21 -117 5 -50 4 -57 -13 -62 -27 -9 -51 3 -57 28 -17 77 -83 502 -79 508 7 11
31 10 53 -2z m-3616 -86 c18 -9 39 -24 47 -33 29 -31 61 -111 58 -143 l-3 -33
-142 -3 c-110 -2 -142 -6 -146 -17 -8 -19 48 -94 79 -105 42 -16 99 -12 127
10 29 23 60 26 76 6 15 -18 7 -36 -27 -61 -22 -17 -43 -20 -118 -20 -82 0 -94
3 -132 28 -69 45 -96 97 -100 186 -2 64 1 82 20 115 41 69 97 96 186 89 24 -2
58 -11 75 -19z m465 -6 c9 -9 21 -9 50 0 124 37 231 -19 267 -140 29 -97 17
-175 -35 -229 -35 -37 -40 -39 -96 -39 -33 0 -74 4 -92 9 l-32 10 0 -85 c0
-82 -1 -84 -26 -90 -16 -4 -31 -2 -39 7 -9 9 -22 99 -39 266 -33 319 -33 303
2 303 15 0 33 -5 40 -12z m668 -14 c57 -27 81 -65 93 -146 15 -104 30 -189 37
-220 6 -27 5 -28 -33 -28 -21 0 -44 5 -50 11 -8 8 -17 7 -34 -2 -13 -7 -54
-13 -91 -13 -74 -1 -105 15 -145 74 -60 88 1 163 143 175 96 9 95 9 83 45 -23
64 -112 80 -160 29 -35 -38 -82 -38 -87 -1 -11 73 147 122 244 76z m1057 -31
c56 -33 119 -157 98 -192 -4 -6 -58 -11 -136 -13 -152 -3 -162 -11 -96 -77 36
-36 47 -41 87 -41 28 0 59 8 84 23 37 21 40 21 56 5 22 -21 13 -43 -28 -68
-27 -17 -46 -20 -109 -18 -90 4 -142 32 -186 101 -31 49 -42 143 -24 199 14
41 63 95 94 102 41 9 128 -3 160 -21z m234 5 c9 -12 55 -301 57 -358 1 -20 -4
-26 -28 -28 -16 -2 -33 1 -39 7 -6 6 -16 54 -24 108 -7 54 -18 134 -23 177 -6
43 -9 85 -6 92 7 17 50 18 63 2z m191 -10 c9 -9 18 -9 37 0 14 7 51 12 81 12
110 0 145 -47 175 -229 25 -153 25 -159 -7 -167 -16 -4 -30 -2 -38 7 -7 8 -21
70 -30 139 -18 135 -32 166 -82 186 -23 10 -36 9 -66 -3 -20 -8 -38 -22 -40
-31 -3 -15 7 -108 28 -249 l6 -43 -35 0 c-20 0 -38 4 -41 9 -6 9 -56 340 -56
367 0 17 51 19 68 2z m1618 -40 c48 -33 94 -109 94 -155 l0 -39 -120 4 c-118
4 -120 4 -120 -17 0 -80 121 -130 190 -79 24 17 32 19 45 8 24 -20 18 -49 -17
-71 -42 -26 -146 -22 -195 8 -65 39 -108 114 -114 198 -5 65 2 85 39 125 37
39 41 40 102 40 49 0 71 -5 96 -22z m357 8 c21 -8 48 -22 59 -33 26 -24 65
-100 69 -138 l4 -30 -118 -3 c-133 -3 -144 -10 -106 -63 40 -56 116 -75 162
-39 30 24 50 25 66 6 19 -22 -2 -51 -51 -70 -121 -49 -266 49 -284 192 -17
140 74 222 199 178z m382 -16 c10 -8 19 -8 35 0 12 6 31 10 43 8 20 -3 25 -19
63 -208 38 -193 39 -207 25 -243 -28 -73 -124 -97 -210 -54 -52 26 -71 51 -53
69 9 9 19 8 47 -5 70 -34 155 -13 155 37 0 30 -21 48 -40 36 -20 -13 -92 -13
-124 0 -66 25 -125 118 -133 210 -11 116 37 176 131 166 26 -3 54 -10 61 -16z
m435 0 c5 0 14 -17 19 -37 20 -78 81 -394 81 -421 0 -42 -29 -64 -81 -60 -37
2 -45 7 -47 26 -3 18 3 25 27 33 17 6 31 15 31 20 0 5 -16 89 -36 187 -54 261
-52 251 -40 256 6 2 17 3 24 0 8 -2 18 -4 22 -4z m-3983 -708 c9 -6 33 -131
33 -173 0 -12 37 -12 45 1 3 6 37 10 74 10 59 0 71 -4 101 -27 36 -30 60 -77
60 -118 0 -22 -4 -25 -39 -25 -34 0 -39 3 -44 28 -3 15 -17 39 -31 54 -50 50
-147 19 -150 -49 -2 -26 -6 -28 -44 -31 -29 -2 -42 1 -42 10 0 27 -31 274 -35
287 -11 30 39 54 72 33z m-2042 -24 c3 -7 9 -61 14 -120 5 -59 12 -112 16
-119 8 -11 42 22 187 184 57 63 63 67 104 67 34 0 44 -4 44 -16 0 -9 -43 -62
-95 -119 -52 -56 -95 -108 -95 -114 0 -7 7 -25 15 -41 l16 -30 -134 0 -134 0
-7 55 c-3 30 -9 102 -13 160 l-6 105 42 0 c24 0 44 -5 46 -12z m3349 -54 c9
-3 16 -15 16 -26 0 -33 18 -56 49 -63 50 -11 49 -60 -2 -67 -20 -3 -22 -8 -19
-51 l4 -48 -38 3 c-36 3 -39 6 -46 42 -10 49 -22 64 -56 68 -19 2 -28 10 -30
25 -3 18 3 24 30 31 27 7 33 13 34 38 1 16 2 35 3 42 1 13 29 16 55 6z m1054
-10 c12 -8 22 -26 22 -38 0 -27 14 -41 53 -50 40 -9 35 -50 -7 -54 -28 -4 -28
-4 -22 -53 l7 -49 -41 0 c-36 0 -40 3 -40 24 0 47 -18 75 -52 84 -23 6 -34 15
-36 30 -3 19 1 22 27 22 30 0 31 2 31 43 0 61 15 71 58 41z m-3898 -89 c5 -3
10 -12 10 -19 0 -7 11 -35 25 -62 39 -77 39 -74 -13 -74 l-47 0 -34 81 c-27
63 -32 82 -22 89 13 7 58 -1 81 -15z m1081 15 c42 -12 82 -51 103 -102 25 -59
22 -68 -23 -68 -36 0 -40 3 -54 39 -20 48 -50 71 -95 71 -42 0 -92 -46 -92
-84 0 -24 -4 -26 -39 -26 -22 0 -42 3 -44 8 -3 4 -6 41 -8 82 -4 67 -2 75 15
78 10 2 29 -2 42 -9 19 -10 32 -9 71 4 57 19 77 20 124 7z m-792 -27 c0 -16
-8 -53 -18 -83 -17 -53 -20 -55 -56 -58 -39 -3 -69 13 -49 26 6 4 14 25 18 47
14 80 24 95 67 95 36 0 39 -2 38 -27z m1925 -7 c38 -29 66 -78 66 -116 0 -16
-6 -20 -35 -20 -32 0 -37 4 -51 40 -29 72 -109 93 -160 41 -35 -34 -53 -41
-76 -29 -26 13 -22 41 10 70 46 43 64 49 138 46 60 -3 77 -8 108 -32z m1926
12 c16 -10 24 -10 40 0 11 6 46 12 79 12 68 0 106 -24 135 -84 26 -56 22 -76
-18 -76 -27 0 -35 5 -40 23 -8 34 -55 77 -83 77 -57 0 -91 -35 -84 -87 1 -9
-12 -13 -37 -13 l-39 0 -9 69 c-6 38 -8 74 -6 80 5 15 37 14 62 -1z m785 1
c11 1 49 4 85 7 64 5 66 5 108 -31 35 -31 82 -99 82 -120 0 -3 -18 -5 -40 -5
-29 0 -40 4 -40 15 0 8 -4 15 -9 15 -5 0 -12 8 -15 18 -9 29 -63 55 -98 48
-44 -9 -58 -24 -58 -63 0 -33 -1 -34 -37 -31 l-38 3 -8 63 c-11 77 -5 97 26
87 12 -4 31 -7 42 -6z m921 -24 c32 -25 64 -80 64 -112 0 -10 -10 -13 -37 -11
-33 3 -38 7 -41 30 -4 34 -49 68 -89 68 -20 0 -38 -10 -56 -30 -29 -32 -46
-37 -65 -18 -18 18 -15 33 13 67 30 35 50 41 123 36 38 -3 63 -11 88 -30z"/>
<path d="M6613 9773 c-20 -4 -23 -11 -23 -51 l0 -47 85 0 85 0 0 46 c0 40 -3
48 -22 53 -25 6 -90 6 -125 -1z"/>
<path d="M1345 8988 c-31 -18 -44 -40 -45 -75 0 -45 13 -75 50 -111 27 -27 39
-32 79 -32 38 0 52 5 71 25 44 47 9 154 -64 189 -40 19 -63 20 -91 4z"/>
<path d="M1749 8921 c-19 -15 -22 -27 -20 -67 4 -80 45 -128 119 -140 36 -6
44 -3 67 22 23 25 26 35 21 72 -11 82 -60 132 -129 132 -19 0 -45 -8 -58 -19z"/>
<path d="M5286 8484 c-20 -20 -21 -86 -1 -124 29 -56 88 -83 139 -64 19 7 20
43 5 114 -9 41 -17 55 -42 71 -39 23 -80 24 -101 3z"/>
<path d="M885 8182 c-50 -10 -58 -40 -19 -79 22 -22 32 -25 76 -21 34 4 56 12
65 24 12 17 9 51 -6 65 -8 9 -91 16 -116 11z"/>
<path d="M2800 8093 c-28 -10 -40 -37 -40 -91 0 -50 3 -58 39 -93 34 -34 45
-39 84 -39 38 0 49 5 67 27 62 79 -54 230 -150 196z"/>
<path d="M3596 7989 c-21 -17 -26 -29 -26 -66 0 -76 41 -126 117 -144 106 -23
114 148 11 211 -42 25 -69 25 -102 -1z"/>
<path d="M4854 7860 c-65 -26 -36 -168 42 -205 41 -19 57 -19 84 3 21 17 21
20 9 82 -15 84 -21 94 -63 114 -38 18 -42 18 -72 6z"/>
<path d="M5573 7775 c-32 -22 -32 -99 0 -146 27 -42 88 -73 123 -65 49 13 56
97 13 161 -39 56 -97 77 -136 50z"/>
<path d="M5932 7728 c-34 -44 -18 -119 37 -170 44 -41 81 -48 116 -22 42 32
11 148 -50 188 -29 19 -88 21 -103 4z"/>
<path d="M353 7625 c4 -44 11 -83 16 -88 4 -4 49 -11 99 -14 88 -6 91 -5 117
21 19 19 24 32 20 49 -21 69 -67 96 -183 104 l-75 6 6 -78z"/>
<path d="M4448 7183 c-26 -7 -31 -38 -17 -111 14 -76 40 -108 96 -114 73 -9
104 63 63 147 -32 67 -82 94 -142 78z"/>
<path d="M414 6876 c-4 -10 -3 -41 2 -69 l9 -52 57 -9 c78 -11 126 -1 140 30
26 56 -29 101 -137 111 -55 5 -65 3 -71 -11z"/>
<path d="M430 6625 c0 -100 5 -105 103 -105 99 0 127 14 127 64 0 18 -9 45
-20 59 -20 26 -37 30 -152 42 l-58 6 0 -66z"/>
<path d="M1751 6644 c-22 -16 -23 -22 -19 -97 5 -75 7 -82 37 -109 24 -21 41
-28 74 -28 51 0 63 7 76 43 16 41 13 87 -8 134 -31 66 -107 93 -160 57z"/>
<path d="M2192 6474 c-28 -20 -28 -45 1 -72 28 -26 92 -30 125 -6 28 20 30 69
3 84 -29 15 -104 12 -129 -6z"/>
<path d="M2850 6428 c-57 -31 -16 -100 60 -102 33 0 46 5 61 23 22 27 24 41 7
64 -17 23 -96 32 -128 15z"/>
<path d="M3238 6389 c-10 -5 -18 -18 -18 -29 0 -26 56 -70 89 -70 57 0 103 64
69 98 -15 15 -116 15 -140 1z"/>
<path d="M6820 6233 c-57 -20 -51 -125 11 -191 27 -28 37 -33 71 -30 59 4 66
21 44 113 -16 66 -22 79 -50 96 -31 19 -49 22 -76 12z"/>
<path d="M443 6084 c-47 -20 -67 -56 -60 -105 9 -71 64 -112 222 -165 71 -25
125 -65 125 -94 0 -29 -46 -62 -92 -67 -62 -7 -140 28 -167 73 -17 28 -26 34
-56 34 -28 0 -35 -4 -35 -19 0 -26 44 -77 92 -107 54 -34 180 -53 239 -35 61
18 99 60 99 108 0 79 -61 129 -222 182 -84 28 -118 54 -118 89 0 33 9 46 35
56 73 28 153 5 191 -55 19 -31 30 -39 54 -39 38 0 44 13 26 49 -21 39 -79 86
-125 100 -52 15 -169 13 -208 -5z"/>
<path d="M954 5923 c-67 -33 -94 -144 -55 -229 67 -148 311 -179 366 -47 42
100 -6 222 -107 274 -47 24 -158 25 -204 2z m176 -55 c44 -31 70 -82 70 -139
0 -89 -79 -136 -160 -94 -56 29 -96 135 -70 186 33 67 101 86 160 47z"/>
<path d="M1357 5907 c-8 -21 24 -330 35 -344 6 -7 24 -13 41 -13 l30 0 -7 103
c-4 56 -9 116 -12 132 -7 44 8 58 68 63 48 3 55 1 80 -25 21 -22 29 -44 37
-106 6 -43 11 -98 11 -122 0 -48 21 -69 63 -63 17 2 21 9 19 30 -1 15 -6 74
-10 130 -8 101 -8 103 17 126 21 19 32 22 60 17 51 -10 91 -41 92 -73 0 -15 6
-74 12 -131 12 -103 12 -105 41 -112 16 -5 33 -6 38 -3 19 12 -3 248 -28 296
-7 14 -28 37 -46 49 -43 31 -141 38 -187 14 -31 -16 -34 -15 -69 6 -30 18 -55
23 -127 26 -49 1 -104 5 -121 9 -22 4 -33 2 -37 -9z"/>
<path d="M2754 5605 c-19 -20 -23 -29 -15 -44 14 -25 56 -51 83 -51 38 0 88
36 88 64 0 39 -25 56 -81 56 -40 0 -55 -5 -75 -25z"/>
<path d="M3942 5534 c-48 -33 -6 -94 66 -94 67 0 106 55 66 94 -20 21 -102 21
-132 0z"/>
<path d="M4556 5627 c-36 -27 -37 -118 -1 -173 21 -32 73 -64 105 -64 90 0
108 132 29 211 -32 32 -46 39 -77 39 -21 0 -46 -6 -56 -13z"/>
<path d="M3833 4855 c-27 -19 -47 -86 -38 -128 22 -104 133 -166 183 -103 18
23 18 30 6 107 -15 91 -30 114 -83 129 -46 13 -43 13 -68 -5z"/>
<path d="M5105 4790 c-39 -15 -43 -30 -28 -114 7 -44 19 -86 25 -93 18 -22 64
-43 92 -43 82 0 91 141 15 220 -39 40 -63 47 -104 30z"/>
<path d="M4241 4814 c-39 -49 -23 -152 31 -202 31 -28 91 -39 123 -22 66 35
54 155 -23 227 -37 34 -103 32 -131 -3z"/>
<path d="M4673 4805 c-27 -19 -37 -63 -28 -122 9 -63 69 -123 123 -123 44 1
67 16 82 55 41 107 -92 250 -177 190z"/>
<path d="M6550 4700 c-38 -38 -23 -135 30 -191 43 -45 94 -53 124 -20 17 18
17 24 2 97 -18 84 -25 98 -67 120 -38 19 -65 18 -89 -6z"/>
<path d="M1187 3922 c-25 -28 -21 -57 14 -86 35 -30 55 -32 104 -12 40 17 53
41 46 81 -6 30 -7 30 -77 33 -58 2 -73 0 -87 -16z"/>
<path d="M2323 4042 c-23 -18 -46 -66 -36 -76 4 -3 48 -6 100 -6 100 0 107 5
77 48 -34 48 -102 65 -141 34z"/>
<path d="M2961 4019 c-35 -21 -36 -32 -21 -144 11 -80 34 -108 95 -119 48 -9
81 12 94 61 16 55 13 89 -8 131 -39 75 -105 105 -160 71z"/>
<path d="M3409 4005 c-45 -25 -56 -126 -21 -192 7 -12 27 -34 46 -48 84 -64
177 -4 161 104 -17 112 -107 179 -186 136z"/>
<path d="M3839 3971 c-20 -21 -29 -39 -29 -63 0 -56 21 -111 55 -145 26 -26
41 -33 73 -33 54 0 70 7 87 41 29 56 10 136 -45 191 -49 50 -97 52 -141 9z"/>
<path d="M4477 3812 c-24 -27 -21 -58 9 -81 37 -29 89 -27 119 4 28 27 29 33
15 69 -9 24 -14 26 -68 26 -44 0 -63 -5 -75 -18z"/>
<path d="M5242 3938 c-28 -14 -36 -43 -30 -111 7 -84 66 -147 137 -147 70 0
96 111 46 197 -38 64 -97 88 -153 61z"/>
<path d="M4634 3055 c-15 -23 -15 -34 -4 -102 17 -106 22 -116 68 -137 42 -19
73 -17 105 8 26 20 28 99 5 163 -24 67 -57 93 -114 93 -36 0 -47 -5 -60 -25z"/>
<path d="M1260 3149 c-38 -8 -80 -50 -80 -80 0 -18 8 -19 105 -19 115 0 123 5
84 54 -30 39 -68 54 -109 45z"/>
<path d="M1896 3123 l-29 -15 5 -97 c5 -107 15 -134 58 -156 49 -25 94 -20
124 16 21 25 26 41 26 89 0 72 -20 121 -63 154 -38 29 -77 32 -121 9z"/>
<path d="M2373 2953 c-30 -20 -30 -63 0 -91 31 -29 95 -30 131 -1 23 18 27 28
24 63 l-3 41 -65 2 c-46 2 -71 -2 -87 -14z"/>
<path d="M3416 3088 c-14 -13 -28 -35 -31 -49 -6 -23 -3 -27 26 -33 17 -3 60
-6 95 -6 61 0 64 1 64 24 0 32 -64 86 -102 86 -15 0 -38 -10 -52 -22z"/>
<path d="M6262 3043 c-7 -3 -19 -18 -28 -34 -27 -54 -1 -155 53 -205 33 -31
92 -33 118 -4 17 19 17 27 6 102 -7 44 -19 91 -27 103 -24 36 -82 54 -122 38z"/>
<path d="M7032 2874 c-28 -20 -28 -55 1 -82 27 -26 73 -29 105 -6 27 19 32 88
6 98 -29 11 -89 6 -112 -10z"/>
</g>
</svg>
