<?xml version="1.0" standalone="no"?>
<!DOCTYPE svg PUBLIC "-//W3C//DTD SVG 20010904//EN"
 "http://www.w3.org/TR/2001/REC-SVG-20010904/DTD/svg10.dtd">
<svg version="1.0" xmlns="http://www.w3.org/2000/svg"
 width="720.000000pt" height="1280.000000pt" viewBox="0 0 720.000000 1280.000000"
 preserveAspectRatio="xMidYMid meet">
<metadata>
Created by potrace 1.16, written by Peter Selinger 2001-2019
</metadata>
<g transform="translate(0.000000,1280.000000) scale(0.100000,-0.100000)"
fill="#000000" stroke="none">
<path d="M0 6400 l0 -6400 3600 0 3600 0 0 1025 0 1025 -3590 0 -3590 0 3
3218 c2 1769 6 3222 7 3229 4 15 60 12 60 -2 0 -6 20 -19 45 -29 25 -11 45
-24 45 -30 1 -22 37 -53 83 -71 26 -10 47 -22 47 -27 0 -5 4 -6 10 -3 6 4 10
-5 10 -20 0 -14 7 -28 16 -32 8 -3 20 -16 25 -29 4 -13 15 -24 24 -24 8 0 15
-4 15 -10 0 -5 6 -10 14 -10 8 0 16 -7 20 -15 3 -8 12 -15 21 -15 8 0 15 -4
15 -10 0 -5 -7 -10 -15 -10 -19 0 -19 -16 0 -24 8 -3 15 -1 15 4 0 6 5 10 10
10 6 0 10 -4 10 -10 0 -15 33 -50 47 -50 7 0 17 -9 23 -20 6 -11 15 -20 20
-20 17 0 55 -43 42 -48 -16 -5 -15 -23 1 -21 26 3 37 -2 37 -16 0 -8 4 -15 9
-15 10 0 68 -48 118 -97 18 -18 42 -33 53 -33 35 0 111 -55 87 -63 -7 -2 -3
-12 11 -27 12 -13 22 -27 22 -32 0 -4 24 -8 53 -8 33 0 47 -3 38 -9 -16 -10
26 -22 94 -26 23 -1 57 -9 76 -18 19 -8 46 -18 62 -21 20 -5 27 -12 27 -29 0
-12 9 -29 20 -37 11 -8 20 -19 20 -25 0 -5 5 -17 10 -25 9 -13 11 -13 20 0 6
10 10 11 10 3 0 -7 10 -13 23 -14 21 0 21 -1 2 -9 -17 -7 -17 -9 -2 -9 9 -1
17 -8 17 -16 0 -8 5 -15 10 -15 6 0 10 -7 10 -15 0 -11 11 -15 35 -15 22 0 38
-6 41 -15 4 -8 17 -15 29 -15 14 0 26 -7 30 -19 4 -13 22 -22 62 -30 31 -6 61
-19 69 -28 10 -14 31 -19 98 -22 84 -3 86 -4 92 -30 3 -14 7 -32 10 -38 5 -20
75 -15 119 7 22 11 55 20 75 20 39 0 80 32 80 63 0 27 40 22 41 -5 1 -60 29
76 29 145 0 68 2 77 18 77 14 0 29 22 55 78 21 43 37 83 37 90 0 7 5 12 10 12
6 0 10 -13 10 -30 0 -30 1 -30 55 -30 54 0 55 0 55 30 0 20 5 30 15 30 19 0
21 56 3 62 -10 4 -10 10 0 32 6 15 12 37 12 49 0 13 4 27 9 32 5 6 12 39 16
75 6 57 15 95 15 62 0 -7 15 -12 34 -12 39 0 46 11 46 76 0 36 3 44 18 44 10
0 34 15 53 33 27 24 37 43 42 77 3 24 11 46 16 48 6 2 11 10 11 18 0 8 13 29
30 47 16 18 30 40 30 49 0 9 4 20 10 23 6 3 10 13 10 21 0 21 41 74 57 74 8 0
13 12 13 30 0 23 4 30 20 30 15 0 20 7 20 29 0 20 8 34 25 45 14 9 25 12 25 6
0 -5 7 -10 15 -10 8 0 15 5 15 10 0 6 7 10 15 10 14 0 75 74 75 92 0 4 -9 8
-20 8 -22 0 -25 7 -11 29 5 7 13 11 18 8 5 -4 20 1 32 10 17 11 21 22 17 42
-3 14 -3 20 0 14 7 -15 34 -17 34 -3 0 6 7 10 15 10 11 0 15 11 15 39 0 33 4
40 30 51 17 7 30 19 30 26 0 8 9 14 20 14 24 0 40 25 40 65 0 8 7 15 15 15 8
0 15 5 15 10 0 6 -9 10 -20 10 -11 0 -20 5 -20 10 0 6 20 10 45 10 l45 0 0 40
c0 39 1 40 36 40 25 0 41 7 54 23 l18 22 1816 3 1816 3 0 1775 0 1774 -3600 0
-3600 0 0 -6400z m6782 3684 c50 -17 112 -73 138 -125 44 -85 32 -202 -29
-284 -25 -34 -27 -41 -14 -50 14 -10 14 -14 -2 -38 -22 -35 -88 -46 -136 -23
-29 13 -43 14 -94 4 -106 -20 -142 -17 -169 17 -22 27 -22 31 -7 41 15 11 14
14 -6 36 -63 67 -82 200 -42 288 60 133 208 188 361 134z m-639 0 c52 -18 116
-76 142 -130 22 -47 30 -130 16 -180 -32 -119 -134 -194 -265 -194 -165 0
-272 106 -270 266 2 153 105 252 265 253 36 1 86 -6 112 -15z m-5839 -91 c10
-34 76 -315 76 -324 0 -5 -16 -9 -35 -9 -30 0 -35 3 -35 24 0 31 -13 39 -59
39 -31 0 -36 -3 -43 -31 -8 -28 -13 -32 -42 -32 l-34 0 14 58 c7 31 25 110 40
175 l28 117 42 0 c32 0 44 -4 48 -17z m406 -75 l1 -93 30 38 c23 27 39 37 60
37 16 0 29 -3 29 -6 0 -4 -16 -27 -35 -53 l-34 -47 21 -35 c11 -19 29 -49 40
-66 l20 -33 -36 0 c-30 0 -38 5 -57 40 -26 45 -39 43 -39 -6 0 -31 -2 -34 -30
-34 l-30 0 0 175 0 175 30 0 30 0 0 -92z m1740 -83 l0 -176 -42 1 c-24 1 -55
-1 -69 -5 -19 -5 -33 -1 -55 18 -27 24 -29 29 -29 106 0 69 3 84 21 102 23 22
55 28 92 15 21 -7 22 -5 22 53 l0 61 30 0 30 0 0 -175z m452 83 l3 -92 25 37
c20 30 31 37 58 37 30 0 42 -12 24 -24 -5 -3 -21 -23 -36 -44 l-27 -40 41 -66
41 -67 -38 3 c-32 3 -41 9 -58 40 -26 49 -35 48 -35 -2 0 -39 -1 -40 -35 -40
l-35 0 0 175 0 175 35 0 34 0 3 -92z m728 28 l0 -65 35 15 c28 11 40 12 58 3
34 -18 37 -27 37 -136 l0 -103 -30 0 -30 0 0 90 c0 75 -3 92 -16 97 -37 14
-49 -10 -52 -101 l-3 -86 -29 0 -30 0 0 175 0 175 30 0 30 0 0 -64z m530 3 c0
-58 1 -60 23 -53 76 26 107 -8 107 -118 0 -71 -2 -81 -26 -105 -20 -20 -31
-24 -52 -18 -15 4 -46 6 -69 5 l-43 -1 0 176 0 175 30 0 30 0 0 -61z m-1480
-9 c0 -38 2 -40 30 -40 25 0 30 -4 30 -25 0 -21 -5 -25 -30 -25 l-31 0 3 -67
c3 -66 4 -68 31 -71 21 -3 27 -8 23 -19 -3 -8 -6 -19 -6 -24 0 -16 -73 -10
-92 8 -14 13 -18 31 -18 90 0 66 -2 75 -20 80 -13 3 -20 14 -20 29 0 17 6 24
20 24 17 0 20 7 20 40 0 38 2 40 30 40 28 0 30 -2 30 -40z m-2096 -61 c24 -23
34 -121 17 -172 -15 -44 -59 -66 -97 -48 -14 6 -27 11 -29 11 -3 0 -5 -29 -5
-65 l0 -65 -30 0 -30 0 0 181 0 182 38 -5 c20 -3 46 -2 57 3 26 10 55 2 79
-22z m405 20 c17 -6 36 -19 41 -29 6 -10 10 -62 10 -115 l0 -97 -32 3 c-18 1
-48 -1 -66 -5 -50 -12 -82 13 -82 64 0 44 20 64 83 81 28 7 37 15 35 27 -5 25
-45 27 -58 3 -13 -25 -48 -28 -57 -5 -8 21 28 67 58 75 35 10 33 10 68 -2z
m287 1 c39 -15 53 -39 54 -87 l0 -43 -61 0 c-60 0 -60 0 -57 -27 3 -32 44 -46
54 -19 9 23 64 21 64 -2 0 -51 -67 -84 -124 -62 -45 17 -55 38 -56 116 0 78
20 119 63 127 12 2 25 5 29 6 4 0 19 -4 34 -9z m201 -1 c32 -12 43 -26 43 -56
0 -31 -45 -33 -53 -2 -7 24 -40 23 -45 -2 -2 -10 9 -21 30 -29 75 -30 98 -83
59 -131 -40 -50 -151 -22 -151 38 0 19 5 23 30 23 24 0 30 -4 30 -21 0 -15 5
-20 22 -17 42 6 33 36 -16 58 -76 32 -89 107 -23 135 39 17 39 17 74 4z m202
-4 c26 -13 46 -56 33 -70 -14 -14 -50 -3 -55 16 -4 13 -12 20 -24 17 -29 -5
-21 -32 15 -50 73 -36 92 -81 53 -129 -15 -19 -29 -24 -66 -24 -37 0 -51 5
-66 24 -29 36 -25 61 10 61 21 0 30 -6 34 -21 7 -25 40 -22 45 4 3 12 -9 23
-42 37 -74 31 -86 108 -22 136 40 17 51 17 85 -1z m200 4 c17 -6 36 -19 41
-29 6 -10 10 -62 10 -115 l0 -97 -32 3 c-18 1 -48 -1 -66 -5 -50 -12 -82 13
-82 64 0 44 20 64 83 81 28 7 37 15 35 27 -5 25 -45 27 -58 3 -11 -22 -44 -28
-55 -11 -12 20 8 59 38 74 38 19 45 19 86 5z m318 -21 c17 -16 23 -33 23 -65
l0 -43 -61 0 c-60 0 -60 0 -57 -27 3 -32 44 -46 54 -19 9 23 64 21 64 -2 0
-49 -66 -84 -121 -64 -50 20 -59 37 -59 121 0 68 3 80 23 98 12 11 29 23 37
26 25 10 73 -2 97 -25z m1001 -4 c18 -21 22 -36 22 -98 0 -77 -15 -107 -61
-121 -31 -10 -84 3 -105 26 -23 26 -31 127 -13 170 24 60 111 73 157 23z m240
8 c8 -10 12 -52 12 -119 l0 -103 -30 0 -30 0 0 90 c0 75 -3 92 -17 97 -32 12
-53 -32 -53 -113 l0 -74 -30 0 -30 0 0 120 0 120 29 0 c16 0 31 -5 33 -11 2
-6 14 -5 33 5 33 17 63 13 83 -12z m530 -8 c15 -17 22 -38 22 -65 l0 -39 -61
0 c-60 0 -60 0 -57 -27 3 -32 44 -46 54 -19 4 10 18 16 35 16 22 0 29 -5 29
-20 0 -42 -64 -79 -115 -66 -52 13 -65 39 -65 124 0 69 3 81 23 99 12 11 29
23 37 26 28 11 75 -3 98 -29z m539 12 c7 -6 13 -53 15 -116 l3 -105 -32 -3
-33 -3 0 91 c0 72 -3 92 -15 96 -33 13 -45 -15 -45 -102 l0 -84 -35 0 -35 0 0
120 0 120 35 0 c19 0 35 -4 35 -9 0 -6 12 -3 28 4 28 15 58 12 79 -9z m221
-12 c19 -22 22 -36 22 -120 l0 -95 -42 1 c-24 1 -54 -1 -68 -5 -34 -9 -80 27
-80 61 0 41 18 63 63 75 52 15 67 26 60 45 -8 21 -41 17 -55 -6 -12 -19 -48
-27 -60 -14 -15 14 11 60 43 77 43 22 86 16 117 -19z m391 25 c36 -13 61 -53
61 -99 l0 -30 -59 0 c-65 0 -73 -5 -64 -38 6 -26 53 -32 53 -7 0 11 11 15 36
15 32 0 35 -2 29 -22 -13 -43 -42 -63 -90 -63 -64 0 -87 27 -93 105 -5 75 11
118 52 136 38 16 36 16 75 3z m204 -3 c15 -8 27 -11 27 -5 0 5 14 9 30 9 l30
0 0 -149 c0 -134 -2 -151 -20 -174 -41 -52 -147 -44 -170 13 -7 16 -9 34 -5
39 9 15 46 7 60 -12 27 -37 75 -10 75 43 0 17 -3 19 -19 10 -36 -19 -78 -12
-100 16 -16 21 -21 41 -21 88 0 85 8 106 44 122 39 17 36 17 69 0z m285 -22
c19 -22 22 -36 22 -120 l0 -95 -42 1 c-24 1 -54 -1 -68 -5 -35 -9 -80 27 -80
64 0 39 19 60 70 75 33 10 46 19 48 35 4 28 -31 29 -51 0 -22 -30 -63 -23 -59
11 10 70 109 91 160 34z m-3048 -94 l0 -120 -35 0 -35 0 0 113 c0 63 3 117 7
120 3 4 19 7 35 7 l28 0 0 -120z m2280 63 c19 -91 25 -93 45 -14 17 70 18 71
50 71 l33 0 -52 -177 -51 -178 -34 -3 c-28 -3 -33 -1 -27 14 29 76 29 101 -4
209 -17 59 -34 113 -37 121 -4 10 4 14 29 14 34 0 35 -1 48 -57z"/>
<path d="M6613 9773 c-20 -4 -23 -11 -23 -51 l0 -47 85 0 85 0 0 46 c0 40 -3
48 -22 53 -25 6 -90 6 -125 -1z"/>
<path d="M2757 6929 c-4 -30 -7 -75 -7 -101 0 -26 -6 -77 -14 -115 -8 -37 -19
-126 -24 -198 -5 -71 -11 -143 -13 -160 -2 -16 -4 -76 -4 -133 0 -56 -3 -102
-7 -102 -5 0 -8 -11 -8 -25 0 -17 6 -25 18 -25 16 -1 16 -1 0 -14 -13 -9 -18
-26 -17 -57 0 -34 2 -39 9 -24 8 19 9 19 9 1 1 -11 -5 -27 -13 -35 -12 -15
-36 -220 -51 -446 -3 -49 -10 -119 -15 -155 -9 -61 -23 -237 -36 -445 l-6 -90
27 45 c15 25 30 47 34 50 4 3 20 27 35 54 28 48 36 60 88 119 15 18 28 36 28
40 0 5 4 6 8 3 8 -5 142 249 142 268 0 5 6 17 14 25 15 18 96 210 96 230 0 6
7 23 16 36 10 16 14 36 11 54 -5 22 -1 31 16 40 21 11 75 111 68 126 -1 4 3
12 11 16 10 7 9 9 -5 9 -10 0 -20 7 -23 15 -4 8 -12 15 -18 15 -7 0 -21 6 -31
14 -19 14 -19 15 -1 35 17 19 17 21 3 21 -28 0 -32 -4 -32 -30 0 -23 -4 -25
-47 -28 -36 -2 -48 -8 -53 -23 -13 -41 -34 -16 -27 33 4 24 9 28 38 28 29 0
33 3 31 22 -1 15 6 26 26 36 15 7 27 17 27 22 0 4 -38 11 -85 15 -47 4 -85 12
-85 17 0 5 -5 6 -12 2 -7 -4 -8 -3 -4 4 4 6 2 21 -4 32 -9 16 -8 22 5 26 11 5
15 21 15 60 0 60 11 67 51 35 13 -10 44 -21 69 -24 25 -3 63 -8 85 -12 26 -4
35 -3 26 3 -20 14 73 26 99 12 13 -7 20 -7 20 -1 0 6 -13 17 -28 25 -15 8 -37
32 -48 53 -10 21 -22 39 -26 41 -15 7 -20 73 -8 102 15 36 5 84 -22 110 -14
13 -17 23 -11 34 13 24 4 86 -13 86 -8 0 -14 5 -14 10 0 6 -7 10 -15 10 -12 0
-15 -13 -15 -60 0 -59 0 -60 -27 -59 -17 1 -21 3 -10 6 14 4 17 16 17 68 0 72
-20 117 -82 186 -12 13 -14 19 -5 19 6 0 4 5 -5 11 -10 5 -18 18 -18 27 0 29
-39 53 -95 59 l-52 5 -6 -53z"/>
<path d="M4183 6862 c-1 -12 2 -22 7 -22 15 0 49 -65 70 -132 19 -62 19 -98
-1 -98 -5 0 0 -15 11 -32 11 -18 20 -42 20 -52 0 -17 -2 -18 -17 -4 -35 30
-62 39 -83 28 -11 -6 -20 -17 -20 -24 0 -21 63 -47 97 -40 41 8 57 -14 48 -68
-4 -24 -10 -90 -14 -146 -6 -98 -8 -105 -34 -126 -29 -24 -140 -46 -224 -46
-32 0 -45 -5 -53 -19 -8 -16 -6 -21 8 -26 9 -3 34 -20 55 -38 47 -40 59 -96
33 -148 -19 -37 -21 -70 -5 -86 8 -8 7 -17 -1 -34 -18 -33 -100 -143 -113
-151 -6 -4 -8 -10 -5 -14 8 -7 53 36 111 109 38 48 72 61 83 32 4 -8 15 -15
25 -15 10 0 19 -4 19 -10 0 -5 6 -10 14 -10 8 0 23 -13 33 -30 9 -16 24 -30
33 -30 9 0 26 -7 38 -16 22 -15 23 -23 5 -71 -8 -20 21 -15 45 7 12 11 23 20
26 20 3 0 14 -19 25 -42 19 -40 19 -44 3 -56 -14 -11 -15 -14 -3 -22 12 -7 13
-13 3 -36 -13 -28 -26 -164 -16 -164 3 0 14 5 25 10 16 9 19 22 19 73 0 86 12
101 87 103 45 1 71 8 106 28 26 16 50 32 53 37 3 5 16 9 30 9 20 0 24 5 24 31
0 18 4 28 10 24 15 -9 66 110 74 173 4 30 2 60 -3 71 -14 24 21 71 52 71 12 0
27 4 33 8 13 9 59 84 60 97 1 31 18 53 48 65 27 10 36 20 41 46 4 22 10 31 19
28 8 -3 17 0 22 7 5 9 10 8 16 -7 6 -13 7 -9 3 14 -3 20 -1 31 5 27 6 -3 10 0
10 8 0 8 -8 14 -17 13 -13 -1 -17 6 -16 24 3 24 2 24 -12 6 -8 -10 -16 -23
-17 -27 -2 -5 -14 -9 -28 -9 -14 1 -49 0 -77 0 -51 -1 -70 11 -38 24 8 3 14
11 13 17 -5 18 61 34 134 34 71 0 78 4 78 51 0 24 -9 28 -57 24 -39 -3 -25 18
16 25 37 6 39 9 43 46 3 32 0 39 -15 39 -9 0 -20 8 -24 18 -3 9 -15 29 -25 44
-16 24 -21 25 -48 15 -17 -6 -30 -15 -30 -19 0 -4 -11 -3 -24 3 -20 9 -33 8
-68 -10 -53 -25 -62 -26 -78 -6 -9 11 -16 13 -24 5 -15 -15 -26 -12 -26 8 0
12 11 21 33 27 34 11 39 24 19 52 -10 14 -24 17 -62 15 -56 -4 -60 3 -33 49
15 24 22 28 56 25 34 -3 38 -1 34 15 -3 11 -1 22 4 25 18 11 8 33 -26 53 l-35
20 -6 -23 c-8 -33 -45 -51 -73 -37 -11 7 -22 21 -22 31 -2 31 -3 34 -19 56
-28 38 -39 38 -33 -1 8 -47 -3 -44 -23 5 -9 22 -25 45 -34 50 -10 6 -103 13
-207 16 -188 7 -189 7 -190 -14z"/>
<path d="M3746 6282 c-4 -16 -6 -33 -5 -38 1 -5 1 -18 0 -29 -1 -15 -3 -17
-10 -6 -6 10 -11 4 -16 -20 -19 -98 -52 -149 -97 -149 -12 0 -10 34 4 48 14
14 -27 51 -59 52 -12 0 -24 4 -28 10 -12 20 -49 -7 -53 -39 -3 -27 3 -39 31
-66 27 -26 33 -39 30 -59 -4 -18 0 -28 11 -32 22 -9 20 -31 -4 -39 -25 -8 -26
-21 -3 -34 17 -9 17 -10 -1 -29 -17 -20 -17 -21 3 -32 12 -6 25 -9 30 -6 5 3
14 -8 21 -24 7 -17 16 -30 21 -30 5 0 17 -16 26 -35 20 -43 36 -49 75 -29 16
8 32 14 34 11 3 -2 7 -34 11 -71 3 -37 10 -69 16 -73 7 -4 8 13 4 50 -9 91 -7
93 74 89 38 -2 69 0 69 4 0 17 -15 31 -37 38 -30 9 -29 20 2 40 27 18 45 14
45 -10 0 -8 5 -14 10 -14 15 0 12 56 -3 72 -8 7 -17 27 -21 43 -4 17 -21 60
-37 97 -16 36 -29 79 -29 95 0 15 -8 42 -18 58 -10 17 -31 62 -47 100 -36 88
-41 94 -49 57z"/>
<path d="M3330 5681 c0 -5 -8 -7 -19 -4 -26 7 -35 -12 -33 -76 1 -40 -6 -76
-26 -126 -15 -40 -28 -62 -30 -51 -3 13 -15 5 -55 -40 -65 -71 -66 -73 -71
-125 -3 -35 -8 -45 -24 -47 -22 -3 -38 -35 -26 -53 4 -8 9 -7 15 2 5 8 9 10 9
4 0 -15 -13 -30 -27 -31 -7 -1 -24 -2 -38 -2 -13 -1 -40 -16 -59 -33 -20 -17
-52 -35 -72 -41 -43 -11 -94 -46 -94 -63 0 -7 -13 -32 -30 -56 -16 -24 -30
-55 -30 -69 0 -14 -9 -31 -20 -38 -11 -7 -20 -17 -20 -23 0 -7 -7 -17 -16 -23
-15 -11 -28 -51 -43 -131 -4 -22 -15 -54 -24 -71 -15 -30 -15 -32 2 -37 10 -2
26 0 36 6 13 7 16 6 11 -1 -10 -16 19 -20 179 -27 77 -3 196 -10 264 -16 l124
-10 28 27 c16 15 29 32 29 37 0 6 15 42 34 81 67 142 86 189 86 212 0 31 -24
120 -46 169 -15 33 -18 67 -19 190 0 83 6 200 13 260 27 230 26 215 8 215 -9
0 -16 -4 -16 -9z"/>
<path d="M4785 5389 c-37 -33 -92 -77 -123 -96 -68 -44 -286 -148 -328 -157
l-31 -7 -8 -122 c-11 -188 -50 -328 -109 -390 -14 -15 -26 -31 -26 -36 0 -4
-10 -17 -22 -28 -40 -36 -98 -100 -98 -107 0 -4 -13 -26 -28 -49 -38 -56 -45
-77 -27 -77 8 0 15 4 15 9 0 5 8 7 18 5 11 -3 37 13 72 46 32 29 61 48 70 45
9 -3 26 11 44 35 16 22 47 51 68 65 21 14 38 30 38 35 0 6 6 10 13 10 14 0
107 103 107 118 0 6 4 12 9 14 11 4 141 167 141 176 0 4 11 20 25 36 16 18 23
36 19 48 -4 13 0 18 13 18 24 1 53 24 53 43 0 9 5 19 10 22 6 3 10 14 10 25 0
10 7 20 15 24 8 3 15 11 15 19 0 7 12 42 26 78 15 35 26 74 26 86 0 13 4 20 9
17 5 -3 9 3 9 13 0 11 5 24 12 31 7 7 8 12 3 12 -4 0 -1 8 9 19 19 21 39 81
26 81 -4 0 -38 -27 -75 -61z"/>
</g>
</svg>
