<?xml version="1.0" standalone="no"?>
<!DOCTYPE svg PUBLIC "-//W3C//DTD SVG 20010904//EN"
 "http://www.w3.org/TR/2001/REC-SVG-20010904/DTD/svg10.dtd">
<svg version="1.0" xmlns="http://www.w3.org/2000/svg"
 width="720.000000pt" height="1280.000000pt" viewBox="0 0 720.000000 1280.000000"
 preserveAspectRatio="xMidYMid meet">
<metadata>
Created by potrace 1.16, written by Peter Selinger 2001-2019
</metadata>
<g transform="translate(0.000000,1280.000000) scale(0.100000,-0.100000)"
fill="#000000" stroke="none">
<path d="M0 6400 l0 -6400 3600 0 3600 0 0 1025 0 1025 -2290 0 c-2004 0
-2291 2 -2296 15 -3 8 10 33 30 59 l37 44 -40 84 c-22 45 -45 98 -52 116 -7
19 -17 39 -23 45 -23 25 -46 67 -46 86 0 13 14 28 40 42 22 13 40 29 40 38 0
8 5 28 11 45 8 23 8 39 -2 61 -7 17 -12 33 -11 37 1 4 -16 17 -38 28 -34 18
-40 25 -40 53 1 23 8 37 26 51 25 18 27 18 60 0 19 -10 34 -22 34 -26 0 -4 17
-10 38 -13 71 -12 82 -20 82 -65 0 -74 25 -94 83 -67 38 17 41 38 16 107 -18
50 -20 64 -10 88 14 33 36 48 82 57 27 5 40 1 62 -18 15 -14 27 -29 27 -36 0
-7 21 -10 66 -7 36 3 68 7 70 9 3 3 -3 21 -12 41 -17 34 -17 37 1 56 10 11 26
22 36 25 11 4 19 12 19 20 0 7 7 15 15 19 18 7 20 40 2 54 -7 7 -43 10 -85 8
-65 -3 -73 -1 -87 20 -10 16 -29 25 -59 29 -48 8 -62 18 -67 50 -3 23 9 65 19
66 95 11 121 25 143 76 10 25 19 53 19 64 0 28 -45 25 -78 -6 -26 -24 -32 -25
-159 -25 -120 0 -135 -2 -153 -20 -11 -11 -20 -33 -20 -50 0 -16 -9 -52 -20
-80 -11 -28 -20 -66 -20 -86 0 -37 -6 -41 -87 -63 -29 -8 -51 -23 -73 -51 -49
-62 -106 -53 -144 22 -13 26 -57 42 -91 34 -18 -5 -28 -19 -41 -58 -19 -61
-50 -108 -68 -108 -7 0 -21 9 -31 20 -19 21 -50 26 -60 10 -3 -5 -7 -28 -10
-51 -9 -91 -11 -95 -89 -133 -40 -20 -79 -36 -87 -36 -24 0 -99 34 -104 49 -3
7 17 38 45 68 56 61 66 105 30 138 -10 9 -27 37 -36 61 -9 24 -20 44 -23 44
-4 0 -15 14 -25 31 l-18 30 46 43 c51 47 52 57 7 143 -24 46 -19 73 19 93 28
15 79 12 96 -5 9 -9 33 -15 57 -15 36 0 48 6 81 40 49 51 83 61 107 32 20 -26
35 -28 47 -7 5 10 29 18 63 22 59 6 127 36 136 59 3 8 -1 21 -8 30 -22 27 -95
13 -162 -29 -86 -55 -106 -47 -107 39 0 37 -10 47 -65 64 -22 7 -56 23 -76 35
-66 42 -83 36 -65 -22 11 -35 -29 -50 -78 -29 -27 11 -43 13 -56 6 -45 -24
-85 -2 -100 55 -10 34 -69 67 -110 61 -19 -3 -68 -8 -107 -11 -64 -4 -74 -2
-83 14 -5 11 -7 27 -4 35 7 19 -24 22 -71 5 -26 -10 -37 -8 -69 9 -35 19 -41
19 -78 6 -59 -21 -88 -17 -120 13 -15 15 -28 31 -28 35 0 5 11 33 24 61 30 67
38 87 43 112 2 11 8 22 13 23 6 2 8 8 4 13 -3 5 -1 9 4 9 4 0 18 17 30 39 l22
39 -34 6 c-38 7 -86 -9 -136 -44 -52 -37 -80 -22 -86 46 -3 26 -13 67 -24 91
-25 57 -54 58 -98 4 -25 -31 -43 -42 -96 -57 -61 -17 -126 -61 -126 -84 0 -5
-11 -12 -24 -16 -45 -11 -61 -40 -61 -113 0 -52 6 -78 28 -122 16 -33 27 -73
27 -96 0 -35 -4 -41 -37 -59 -26 -14 -41 -30 -49 -54 -51 -153 -52 -174 -15
-197 16 -10 27 -9 57 3 50 21 84 7 84 -35 0 -40 16 -48 44 -22 15 14 35 21 64
21 53 0 61 -16 38 -79 -9 -25 -16 -68 -16 -94 0 -38 -5 -53 -26 -74 -22 -22
-31 -24 -67 -19 -94 15 -118 33 -115 87 1 8 -11 41 -27 72 l-27 57 -79 0 c-69
0 -80 2 -93 22 -10 13 -16 43 -16 74 0 39 -5 55 -21 70 -20 18 -50 67 -49 79
3 24 -15 75 -26 75 -8 0 -14 4 -14 8 0 4 -19 9 -42 11 -23 1 -48 7 -55 13 -20
16 -18 436 2 464 8 12 16 38 18 58 2 20 6 39 10 42 3 3 30 7 60 7 38 1 61 8
75 20 19 18 20 21 6 70 -32 113 -30 110 -122 121 -24 2 -46 7 -49 9 -12 13
-13 68 0 89 22 35 30 88 13 88 -8 0 -17 7 -20 16 -3 9 -6 1030 -6 2270 l0
2254 3590 0 3590 0 0 1775 0 1775 -3600 0 -3600 0 0 -6400z m6782 3684 c50
-17 112 -73 138 -125 44 -85 32 -202 -29 -284 -25 -34 -27 -41 -14 -50 14 -10
14 -14 -2 -38 -22 -35 -88 -46 -136 -23 -29 13 -43 14 -94 4 -106 -20 -142
-17 -169 17 -22 27 -22 31 -7 41 15 11 14 14 -6 36 -63 67 -82 200 -42 288 60
133 208 188 361 134z m-639 0 c52 -18 116 -76 142 -130 22 -47 30 -130 16
-180 -32 -119 -134 -194 -265 -194 -165 0 -272 106 -270 266 2 153 105 252
265 253 36 1 86 -6 112 -15z m-5839 -91 c10 -34 76 -315 76 -324 0 -5 -16 -9
-35 -9 -30 0 -35 3 -35 24 0 31 -13 39 -59 39 -31 0 -36 -3 -43 -31 -8 -28
-13 -32 -42 -32 l-34 0 14 58 c7 31 25 110 40 175 l28 117 42 0 c32 0 44 -4
48 -17z m406 -75 l1 -93 30 38 c23 27 39 37 60 37 16 0 29 -3 29 -6 0 -4 -16
-27 -35 -53 l-34 -47 21 -35 c11 -19 29 -49 40 -66 l20 -33 -36 0 c-30 0 -38
5 -57 40 -26 45 -39 43 -39 -6 0 -31 -2 -34 -30 -34 l-30 0 0 175 0 175 30 0
30 0 0 -92z m1740 -83 l0 -176 -42 1 c-24 1 -55 -1 -69 -5 -19 -5 -33 -1 -55
18 -27 24 -29 29 -29 106 0 69 3 84 21 102 23 22 55 28 92 15 21 -7 22 -5 22
53 l0 61 30 0 30 0 0 -175z m452 83 l3 -92 25 37 c20 30 31 37 58 37 30 0 42
-12 24 -24 -5 -3 -21 -23 -36 -44 l-27 -40 41 -66 41 -67 -38 3 c-32 3 -41 9
-58 40 -26 49 -35 48 -35 -2 0 -39 -1 -40 -35 -40 l-35 0 0 175 0 175 35 0 34
0 3 -92z m728 28 l0 -65 35 15 c28 11 40 12 58 3 34 -18 37 -27 37 -136 l0
-103 -30 0 -30 0 0 90 c0 75 -3 92 -16 97 -37 14 -49 -10 -52 -101 l-3 -86
-29 0 -30 0 0 175 0 175 30 0 30 0 0 -64z m530 3 c0 -58 1 -60 23 -53 76 26
107 -8 107 -118 0 -71 -2 -81 -26 -105 -20 -20 -31 -24 -52 -18 -15 4 -46 6
-69 5 l-43 -1 0 176 0 175 30 0 30 0 0 -61z m-1480 -9 c0 -38 2 -40 30 -40 25
0 30 -4 30 -25 0 -21 -5 -25 -30 -25 l-31 0 3 -67 c3 -66 4 -68 31 -71 21 -3
27 -8 23 -19 -3 -8 -6 -19 -6 -24 0 -16 -73 -10 -92 8 -14 13 -18 31 -18 90 0
66 -2 75 -20 80 -13 3 -20 14 -20 29 0 17 6 24 20 24 17 0 20 7 20 40 0 38 2
40 30 40 28 0 30 -2 30 -40z m-2096 -61 c24 -23 34 -121 17 -172 -15 -44 -59
-66 -97 -48 -14 6 -27 11 -29 11 -3 0 -5 -29 -5 -65 l0 -65 -30 0 -30 0 0 181
0 182 38 -5 c20 -3 46 -2 57 3 26 10 55 2 79 -22z m405 20 c17 -6 36 -19 41
-29 6 -10 10 -62 10 -115 l0 -97 -32 3 c-18 1 -48 -1 -66 -5 -50 -12 -82 13
-82 64 0 44 20 64 83 81 28 7 37 15 35 27 -5 25 -45 27 -58 3 -13 -25 -48 -28
-57 -5 -8 21 28 67 58 75 35 10 33 10 68 -2z m287 1 c39 -15 53 -39 54 -87 l0
-43 -61 0 c-60 0 -60 0 -57 -27 3 -32 44 -46 54 -19 9 23 64 21 64 -2 0 -51
-67 -84 -124 -62 -45 17 -55 38 -56 116 0 78 20 119 63 127 12 2 25 5 29 6 4
0 19 -4 34 -9z m201 -1 c32 -12 43 -26 43 -56 0 -31 -45 -33 -53 -2 -7 24 -40
23 -45 -2 -2 -10 9 -21 30 -29 75 -30 98 -83 59 -131 -40 -50 -151 -22 -151
38 0 19 5 23 30 23 24 0 30 -4 30 -21 0 -15 5 -20 22 -17 42 6 33 36 -16 58
-76 32 -89 107 -23 135 39 17 39 17 74 4z m202 -4 c26 -13 46 -56 33 -70 -14
-14 -50 -3 -55 16 -4 13 -12 20 -24 17 -29 -5 -21 -32 15 -50 73 -36 92 -81
53 -129 -15 -19 -29 -24 -66 -24 -37 0 -51 5 -66 24 -29 36 -25 61 10 61 21 0
30 -6 34 -21 7 -25 40 -22 45 3 2 12 -11 24 -43 39 -74 35 -85 107 -21 135 40
17 51 17 85 -1z m200 4 c17 -6 36 -19 41 -29 6 -10 10 -62 10 -115 l0 -97 -32
3 c-18 1 -48 -1 -66 -5 -50 -12 -82 13 -82 64 0 44 20 64 83 81 28 7 37 15 35
27 -5 25 -45 27 -58 3 -11 -22 -44 -28 -55 -11 -12 20 8 59 38 74 38 19 45 19
86 5z m318 -21 c17 -16 23 -33 23 -65 l0 -43 -61 0 c-60 0 -60 0 -57 -27 3
-32 44 -46 54 -19 9 23 64 21 64 -2 0 -49 -66 -84 -121 -64 -50 20 -59 37 -59
121 0 68 3 80 23 98 12 11 29 23 37 26 25 10 73 -2 97 -25z m1001 -4 c18 -21
22 -36 22 -98 0 -77 -15 -107 -61 -121 -31 -10 -84 3 -105 26 -23 26 -31 127
-13 170 24 60 111 73 157 23z m240 8 c8 -10 12 -52 12 -119 l0 -103 -30 0 -30
0 0 90 c0 75 -3 92 -17 97 -32 12 -53 -32 -53 -113 l0 -74 -30 0 -30 0 0 120
0 120 29 0 c16 0 31 -5 33 -11 2 -6 14 -5 33 5 33 17 63 13 83 -12z m530 -8
c15 -17 22 -38 22 -65 l0 -39 -61 0 c-60 0 -60 0 -57 -27 3 -32 44 -46 54 -19
4 10 18 16 35 16 22 0 29 -5 29 -20 0 -42 -64 -79 -115 -66 -52 13 -65 39 -65
124 0 69 3 81 23 99 12 11 29 23 37 26 28 11 75 -3 98 -29z m539 12 c7 -6 13
-53 15 -116 l3 -105 -32 -3 -33 -3 0 91 c0 72 -3 92 -15 96 -33 13 -45 -15
-45 -102 l0 -84 -35 0 -35 0 0 120 0 120 35 0 c19 0 35 -4 35 -9 0 -6 12 -3
28 4 28 15 58 12 79 -9z m221 -12 c19 -22 22 -36 22 -120 l0 -95 -42 1 c-24 1
-54 -1 -68 -5 -34 -9 -80 27 -80 61 0 41 18 63 63 75 52 15 67 26 60 45 -8 21
-41 17 -55 -6 -12 -19 -48 -27 -60 -14 -15 14 11 60 43 77 43 22 86 16 117
-19z m391 25 c36 -13 61 -53 61 -99 l0 -30 -59 0 c-65 0 -73 -5 -64 -38 6 -26
53 -32 53 -7 0 11 11 15 36 15 32 0 35 -2 29 -22 -13 -43 -42 -63 -90 -63 -64
0 -87 27 -93 105 -5 75 11 118 52 136 38 16 36 16 75 3z m204 -3 c15 -8 27
-11 27 -5 0 5 14 9 30 9 l30 0 0 -149 c0 -134 -2 -151 -20 -174 -41 -52 -147
-44 -170 13 -7 16 -9 34 -5 39 9 15 46 7 60 -12 27 -37 75 -10 75 43 0 17 -3
19 -19 10 -36 -19 -78 -12 -100 16 -16 21 -21 41 -21 88 0 85 8 106 44 122 39
17 36 17 69 0z m285 -22 c19 -22 22 -36 22 -120 l0 -95 -42 1 c-24 1 -54 -1
-68 -5 -35 -9 -80 27 -80 64 0 39 19 60 70 75 33 10 46 19 48 35 4 28 -31 29
-51 0 -22 -30 -63 -23 -59 11 10 70 109 91 160 34z m-3048 -94 l0 -120 -35 0
-35 0 0 113 c0 63 3 117 7 120 3 4 19 7 35 7 l28 0 0 -120z m2280 63 c19 -91
25 -93 45 -14 17 70 18 71 50 71 l33 0 -52 -177 -51 -178 -34 -3 c-28 -3 -33
-1 -27 14 29 76 29 101 -4 209 -17 59 -34 113 -37 121 -4 10 4 14 29 14 34 0
35 -1 48 -57z m-3320 -6272 c81 -40 96 -65 50 -88 -21 -10 -29 -9 -56 8 -23
14 -49 19 -97 19 -60 0 -65 2 -69 24 -6 28 10 52 43 65 37 15 49 13 129 -28z
m-71 -172 c37 -24 24 -129 -17 -129 -35 -1 -72 -54 -72 -103 0 -12 -16 -48
-35 -79 -36 -61 -37 -79 -3 -111 20 -19 23 -47 9 -75 -5 -9 -16 -34 -25 -55
-18 -42 -72 -73 -107 -62 -27 9 -71 78 -67 107 2 17 18 31 60 51 86 43 86 71
0 103 -83 31 -87 40 -47 131 37 82 20 135 -37 117 -28 -8 -48 14 -48 52 0 28
4 35 26 40 14 4 36 2 50 -5 35 -16 109 -2 155 29 38 25 43 26 88 14 27 -7 58
-18 70 -25z m-838 -395 c10 -9 23 -32 29 -50 10 -29 9 -38 -10 -64 -26 -36
-21 -57 16 -66 33 -8 91 19 153 70 27 22 52 36 65 34 18 -3 21 -10 20 -51 0
-41 -5 -53 -38 -86 l-38 -39 7 -84 7 -84 -41 -37 c-23 -21 -55 -40 -71 -44
-23 -4 -29 -10 -26 -26 4 -29 25 -33 42 -9 21 30 57 32 111 4 26 -13 75 -31
108 -39 61 -14 75 -24 75 -57 0 -40 -28 -56 -89 -49 -56 5 -58 5 -84 -28 -15
-19 -32 -40 -38 -46 -16 -20 -46 -15 -71 11 -29 29 -52 38 -67 23 -6 -6 -35
-14 -64 -17 -45 -4 -52 -8 -53 -28 -2 -44 -80 -92 -100 -61 -3 6 -30 26 -58
44 -29 18 -68 49 -88 69 -25 25 -45 36 -66 36 -16 0 -41 9 -55 20 l-25 20 -21
-26 c-12 -15 -21 -31 -21 -36 0 -5 -21 -8 -47 -6 l-48 3 -3 162 -2 161 37 37
c21 20 53 43 71 51 30 13 37 13 58 -1 13 -8 26 -26 30 -39 18 -74 77 0 93 116
6 42 18 95 27 117 9 23 14 50 11 61 -9 33 34 48 146 49 80 2 103 -1 118 -15z
m1137 -566 c31 -17 82 -37 112 -43 67 -13 71 -31 15 -58 -22 -11 -48 -23 -57
-28 -28 -14 -46 -11 -91 15 -23 14 -59 28 -80 31 -42 8 -62 34 -51 68 17 55
71 60 152 15z m-68 -184 c15 -4 29 -31 50 -96 13 -43 6 -78 -16 -78 -9 0 -22
-7 -30 -15 -12 -12 -42 -15 -134 -15 -131 0 -130 -1 -130 71 0 45 17 51 57 19
34 -27 89 -27 103 1 9 17 7 26 -14 54 -31 40 -32 50 -8 64 15 9 79 7 122 -5z
m350 -85 c21 -17 42 -29 47 -26 19 12 81 -63 68 -83 -3 -5 -35 -10 -70 -10
-58 0 -65 2 -83 28 -26 37 -34 65 -26 96 8 33 17 33 64 -5z"/>
<path d="M6613 9773 c-20 -4 -23 -11 -23 -51 l0 -47 85 0 85 0 0 46 c0 40 -3
48 -22 53 -25 6 -90 6 -125 -1z"/>
<path d="M1908 7993 c9 -3 12 -43 12 -151 0 -121 -3 -148 -17 -164 -15 -17
-14 -18 37 -18 51 0 53 1 36 19 -15 17 -16 35 -10 157 4 77 11 145 17 152 7 9
-2 12 -39 11 -27 0 -43 -3 -36 -6z"/>
<path d="M4195 7910 c-20 -31 -30 -39 -38 -31 -16 16 -72 14 -87 -4 -7 -9 -10
-25 -6 -41 8 -29 22 -23 28 11 2 14 12 21 36 23 17 2 32 0 32 -5 0 -4 -32 -64
-70 -133 -38 -68 -67 -127 -64 -130 10 -9 58 56 110 145 27 47 52 85 55 85 9
0 19 -38 19 -72 0 -15 -9 -50 -20 -78 -11 -28 -20 -57 -20 -65 0 -35 22 -9 71
84 28 55 75 131 105 170 40 54 49 71 35 71 -25 0 -73 -55 -113 -127 l-34 -62
-17 55 c-16 50 -16 57 -1 94 22 56 11 61 -21 10z"/>
<path d="M2810 7311 c0 -12 -29 -41 -41 -41 -6 0 -6 8 1 20 10 18 8 18 -17 7
-50 -22 -66 -34 -59 -45 4 -6 13 -9 21 -5 8 3 15 0 15 -6 0 -6 -9 -11 -20 -11
-11 0 -20 -7 -20 -15 0 -8 -6 -16 -12 -16 -7 -1 -20 -2 -28 -3 -15 -1 -57 -60
-78 -108 -10 -23 -9 -28 3 -28 9 0 15 -9 15 -23 0 -26 85 -133 94 -118 3 5 -1
14 -9 21 -19 16 -19 34 0 50 13 11 18 10 28 -2 28 -33 46 -41 62 -28 8 7 15
21 15 31 0 11 5 19 10 19 6 0 10 7 10 15 0 8 7 15 15 15 9 0 15 7 13 16 -4 21
24 39 46 31 20 -8 22 -77 4 -96 -11 -10 -7 -11 17 -5 17 4 36 12 44 18 12 9
13 8 6 -4 -4 -8 1 -6 12 6 29 29 45 63 39 80 -3 8 -1 14 3 14 14 0 -22 104
-41 118 -9 7 -23 18 -30 25 -7 8 -35 22 -61 32 -32 12 -46 23 -43 32 3 7 1 13
-4 13 -6 0 -10 -4 -10 -9z"/>
<path d="M4110 7101 c22 -7 20 -8 -20 -15 -61 -10 -122 -46 -141 -84 -23 -44
-39 -62 -56 -62 -11 0 -14 7 -10 23 6 21 6 21 -14 -3 -13 -17 -18 -34 -14 -54
3 -16 5 -35 5 -42 0 -8 5 -14 10 -14 6 0 10 16 10 36 l0 37 20 -26 c11 -14 20
-29 20 -35 0 -5 17 -21 38 -36 49 -34 66 -65 58 -108 -3 -18 -1 -40 4 -48 7
-11 10 -12 10 -2 0 7 6 19 13 26 39 41 55 66 46 71 -5 4 -1 19 12 36 11 16 25
27 30 24 14 -9 11 -41 -6 -55 -19 -15 -19 -30 -1 -30 7 0 27 -13 44 -30 17
-16 34 -25 37 -20 3 6 1 10 -4 10 -6 0 -11 5 -11 11 0 6 8 8 18 5 14 -5 22 3
35 29 10 20 22 33 27 30 15 -9 12 -23 -10 -45 -11 -11 -16 -20 -11 -20 6 0 13
5 16 10 11 18 27 11 22 -10 -7 -26 9 -25 52 1 18 11 34 19 36 17 8 -11 -19
-71 -36 -75 -19 -5 -27 -23 -10 -23 34 0 71 46 71 88 0 10 6 27 14 37 13 18
14 17 29 -11 14 -26 16 -26 17 -7 0 28 -68 114 -106 133 -65 32 -87 55 -114
114 -32 72 -88 126 -128 125 l-27 -1 25 -7z"/>
<path d="M2937 6896 c-8 -12 -17 -33 -21 -48 -6 -24 -11 -28 -44 -28 -20 0
-46 7 -56 15 -11 8 -25 15 -30 15 -6 0 0 -8 14 -18 20 -13 25 -25 24 -47 l-3
-30 15 28 c8 15 19 27 24 27 19 0 10 -37 -19 -77 -28 -39 -29 -39 -82 -33 -78
9 -116 36 -152 105 l-15 29 -35 -55 c-19 -30 -42 -61 -51 -68 -9 -7 -16 -19
-16 -26 0 -8 -12 -27 -26 -44 -21 -25 -25 -39 -22 -71 4 -50 -13 -48 -25 3 -8
32 -11 35 -28 24 -17 -11 -19 -25 -19 -145 0 -73 5 -165 11 -203 10 -66 9 -72
-10 -93 -12 -12 -21 -27 -21 -33 0 -6 -8 -17 -17 -24 -16 -13 -17 -12 -4 4 9
11 10 17 2 17 -6 0 -16 -10 -22 -23 -9 -21 4 -91 38 -197 3 -8 18 -26 35 -39
24 -19 42 -24 99 -25 55 -1 69 2 69 14 0 9 3 11 8 5 4 -5 14 -10 22 -10 12 0
28 -32 46 -94 3 -8 7 -12 10 -9 2 3 0 17 -5 31 -8 21 -4 37 21 89 17 35 32 65
34 66 1 2 27 -3 57 -12 30 -9 89 -16 131 -16 l76 0 0 -45 c0 -28 -5 -47 -12
-49 -7 -2 -33 -9 -58 -15 -31 -7 -35 -9 -13 -7 18 1 30 -1 27 -5 -9 -16 17
-20 32 -5 8 9 22 16 31 16 13 0 14 -2 2 -17 -13 -16 -12 -17 2 -5 10 7 27 15
39 17 31 6 38 15 11 15 -27 0 -56 26 -41 35 6 4 8 21 5 39 -6 30 -3 34 45 65
28 18 67 52 87 77 36 42 38 43 56 26 19 -16 20 -16 7 7 -7 13 -13 52 -14 87
-2 50 -8 70 -29 101 -15 22 -27 48 -27 59 0 12 11 -1 30 -33 16 -28 34 -54 40
-58 5 -3 10 -14 10 -24 0 -10 11 -28 25 -41 14 -13 25 -34 25 -46 0 -14 8 -25
20 -29 11 -3 20 -11 20 -16 0 -5 11 -14 25 -19 19 -7 25 -17 25 -40 0 -20 5
-30 15 -30 18 0 20 16 3 24 -10 5 -10 7 1 12 8 4 31 22 51 40 21 19 43 34 50
34 7 0 1 9 -14 21 -14 11 -26 28 -26 38 0 10 -25 55 -55 99 -30 45 -57 97 -61
116 -3 19 -15 42 -25 52 -10 9 -19 27 -19 39 0 12 -8 29 -19 39 -12 11 -20 36
-24 79 -8 80 -70 276 -97 305 -11 12 -33 25 -48 28 -15 4 -31 10 -37 14 -5 4
-22 10 -37 12 -20 4 -31 0 -41 -16z"/>
<path d="M4297 6592 c-22 -24 -54 -98 -62 -144 -4 -23 -11 -35 -18 -31 -6 4
-8 0 -4 -11 10 -26 37 -214 37 -258 0 -21 4 -38 9 -38 14 0 21 85 11 121 -27
94 2 275 55 337 21 26 23 31 9 36 -21 8 -19 9 -37 -12z"/>
<path d="M4420 6458 c0 -2 16 -52 34 -111 24 -75 33 -119 29 -143 -4 -26 -2
-34 10 -34 15 0 57 -45 57 -61 0 -4 -16 -28 -35 -53 -33 -43 -46 -86 -26 -86
5 0 12 -20 15 -44 5 -33 3 -54 -10 -78 -28 -57 -88 -129 -110 -134 -26 -7 -86
29 -138 81 l-36 35 17 41 c9 23 12 44 7 48 -5 4 -35 13 -67 20 -67 15 -105 43
-138 105 -13 26 -27 46 -31 46 -4 0 -33 16 -65 35 -31 19 -60 31 -63 27 -4 -4
-15 -40 -25 -80 -14 -59 -16 -81 -7 -110 18 -61 20 -81 10 -79 -6 1 -13 -4
-16 -12 -2 -8 0 -11 5 -8 11 7 11 -52 0 -69 -13 -21 -16 -112 -4 -128 15 -19
130 -76 154 -76 10 0 33 -9 51 -20 18 -11 46 -20 62 -20 16 0 41 -5 55 -12 18
-8 31 -8 48 0 12 6 49 18 82 27 108 30 144 52 115 70 -5 3 -9 21 -9 38 l1 32
7 -29 c5 -27 12 -31 76 -47 39 -10 86 -21 107 -24 35 -6 36 -5 43 27 17 76 76
266 94 302 20 38 20 40 2 65 -54 76 -86 157 -91 230 l-5 73 -35 3 c-50 4 -90
22 -90 40 0 17 -53 99 -70 110 -6 3 -10 5 -10 3z"/>
<path d="M2899 5419 c0 -30 -2 -89 -4 -131 -3 -43 0 -88 5 -100 l10 -23 -3 25
c-4 41 29 38 47 -4 36 -85 101 -134 154 -115 18 7 22 16 22 51 0 33 -11 59
-47 120 l-48 78 -23 -25 c-25 -27 -75 -34 -89 -12 -4 6 -9 50 -10 96 -4 95
-13 123 -14 40z"/>
<path d="M3910 5389 c0 -5 -4 -8 -9 -5 -15 9 -22 -64 -13 -116 19 -100 75
-129 115 -60 16 28 18 44 12 106 -6 66 -8 73 -26 69 -10 -3 -19 -9 -19 -15 0
-5 -10 0 -22 12 -24 22 -38 26 -38 9z"/>
<path d="M2871 5057 c-1 -43 -5 -66 -11 -62 -13 8 -13 -8 1 -22 7 -7 6 -15 -5
-25 -14 -14 -13 -17 3 -32 10 -9 23 -16 29 -16 7 0 12 -4 12 -9 0 -5 -10 -7
-21 -4 -18 5 -20 3 -15 -14 3 -11 0 -38 -8 -61 -13 -37 -13 -46 0 -78 8 -20
13 -38 11 -40 -10 -11 -32 32 -38 75 l-6 46 -2 -45 c-1 -60 55 -150 94 -150
39 0 65 51 65 127 0 67 -19 163 -32 163 -4 0 -8 -4 -8 -10 0 -17 -27 -11 -36
8 -11 24 -14 108 -3 91 7 -11 9 -10 9 4 0 9 -4 17 -10 17 -5 0 -10 15 -11 33
0 17 -4 41 -9 52 -6 14 -9 -1 -9 -48z"/>
<path d="M1042 4915 c-25 -25 -50 -45 -56 -46 -6 0 -34 -2 -63 -2 -42 -2 -57
-7 -82 -31 -25 -24 -31 -38 -31 -72 0 -44 -30 -94 -56 -94 -24 0 -16 -30 22
-81 35 -48 36 -51 28 -112 -7 -61 -6 -115 2 -129 3 -4 19 6 35 22 17 16 47 34
68 41 20 6 44 18 53 27 10 8 30 14 45 14 16 -1 39 -1 53 -1 14 0 43 0 65 0 44
0 85 16 85 34 0 20 33 43 90 62 l55 19 1 53 c1 30 6 56 11 60 6 3 16 17 23 30
12 23 10 27 -21 53 -19 16 -41 36 -51 44 -9 9 -23 17 -32 18 -25 3 -106 64
-106 79 0 23 -40 57 -66 57 -17 0 -41 -15 -72 -45z"/>
<path d="M4071 4777 c-7 -23 -20 -50 -29 -60 -15 -17 -17 -17 -32 3 l-16 22
-47 -32 c-56 -37 -60 -46 -12 -23 32 15 37 15 51 2 13 -14 11 -20 -21 -62 -39
-51 -66 -70 -88 -61 -11 4 -13 -1 -9 -23 5 -28 5 -28 -17 -9 -11 11 -21 15
-21 9 0 -20 37 -43 69 -43 59 0 131 55 131 100 0 15 10 35 21 46 29 26 49 75
49 123 0 55 -13 58 -29 8z"/>
<path d="M1680 4530 c0 -17 -43 -50 -66 -50 -12 0 -33 -9 -48 -21 -32 -26 -35
-80 -6 -124 26 -39 25 -61 -2 -68 -28 -8 -57 8 -68 39 -14 36 -48 28 -73 -16
-10 -19 -27 -43 -37 -54 -18 -18 -19 -18 -46 3 -57 45 -164 -4 -164 -74 0 -8
16 -22 36 -31 26 -12 34 -22 32 -38 -2 -16 -15 -24 -56 -35 -52 -14 -53 -15
-50 -49 4 -51 26 -60 90 -37 29 10 63 25 75 32 20 13 21 12 28 -26 5 -32 12
-41 36 -50 41 -14 59 -35 59 -68 0 -33 8 -47 34 -57 36 -13 48 45 21 98 -8 15
-15 35 -15 42 0 8 -4 14 -10 14 -5 0 -10 13 -10 29 0 21 8 35 28 49 60 43 123
72 154 72 34 -1 77 -19 76 -33 0 -33 68 -140 93 -145 9 -2 54 15 100 37 46 21
105 45 132 51 26 7 47 16 47 19 0 4 15 15 34 24 19 8 49 34 67 56 27 35 38 41
70 41 28 0 40 -6 53 -24 20 -31 50 -24 70 15 l14 28 -61 3 c-53 3 -62 6 -65
23 -2 14 12 30 49 55 28 19 57 47 65 62 16 31 18 68 4 68 -5 0 -10 -4 -10 -10
0 -5 -5 -10 -11 -10 -7 0 -30 -15 -53 -33 -23 -19 -53 -37 -69 -41 -24 -6 -30
-2 -57 41 -16 27 -37 56 -46 66 -21 21 -79 22 -114 2 -41 -23 -67 -19 -82 15
-14 33 -45 40 -55 13 -11 -28 -46 -63 -63 -63 -26 0 -56 41 -70 95 -7 28 -17
56 -23 63 -11 14 -37 16 -37 2z"/>
<path d="M2125 3908 c-38 -30 -58 -75 -50 -114 3 -18 10 -36 15 -39 11 -7 70
22 70 33 0 5 16 16 35 25 28 13 35 22 35 45 0 54 -63 84 -105 50z"/>
</g>
</svg>
