<?xml version="1.0" standalone="no"?>
<!DOCTYPE svg PUBLIC "-//W3C//DTD SVG 20010904//EN"
 "http://www.w3.org/TR/2001/REC-SVG-20010904/DTD/svg10.dtd">
<svg version="1.0" xmlns="http://www.w3.org/2000/svg"
 width="720.000000pt" height="1280.000000pt" viewBox="0 0 720.000000 1280.000000"
 preserveAspectRatio="xMidYMid meet">
<metadata>
Created by potrace 1.16, written by Peter Selinger 2001-2019
</metadata>
<g transform="translate(0.000000,1280.000000) scale(0.100000,-0.100000)"
fill="#000000" stroke="none">
<path d="M0 6400 l0 -6400 3600 0 3600 0 0 1025 0 1025 -257 0 c-142 1 -979 0
-1860 0 -1537 0 -1653 1 -1588 26 20 8 20 78 -5 544 -29 555 -31 513 45 986
25 155 20 181 -43 213 -43 22 -161 58 -214 66 -27 4 -46 16 -64 39 l-26 33
-25 -25 c-23 -23 -25 -32 -24 -106 2 -87 -22 -385 -40 -501 -41 -268 -95 -491
-150 -625 -59 -142 -116 -206 -324 -366 -49 -38 -292 -196 -347 -227 -112 -61
1 -56 -1180 -57 l-1078 0 0 3600 0 3600 3590 0 3590 0 0 1775 0 1775 -3600 0
-3600 0 0 -6400z m6795 3679 c153 -68 200 -265 96 -404 -25 -34 -27 -41 -14
-50 23 -17 -3 -53 -49 -67 -30 -9 -45 -8 -80 5 -34 13 -55 15 -98 8 -30 -5
-63 -13 -73 -16 -53 -21 -137 34 -107 70 11 13 9 19 -8 38 -85 90 -82 268 6
360 77 82 216 105 327 56z m-652 5 c52 -18 116 -76 143 -132 28 -55 26 -174
-4 -229 -50 -95 -136 -143 -256 -143 -209 0 -331 220 -222 402 25 42 43 59 94
85 54 28 75 33 131 33 37 0 88 -7 114 -16z m-5834 -111 c15 -56 71 -300 71
-307 0 -3 -15 -6 -33 -6 -28 0 -34 4 -42 33 -9 29 -14 32 -49 32 -36 0 -40 -3
-48 -32 -8 -29 -13 -33 -42 -33 l-34 0 14 58 c7 31 26 110 41 175 l27 117 43
0 c40 0 43 -2 52 -37z m401 -55 l1 -93 30 38 c23 27 39 37 60 37 16 0 29 -3
29 -6 0 -4 -16 -28 -35 -53 -30 -41 -33 -50 -21 -67 7 -10 25 -40 40 -66 l27
-48 -35 0 c-30 0 -38 5 -57 40 -13 22 -26 40 -31 40 -4 0 -8 -18 -8 -40 0 -38
-2 -40 -30 -40 l-30 0 0 175 0 175 30 0 30 0 0 -92z m1740 -83 l0 -176 -42 1
c-24 1 -55 -1 -69 -5 -19 -5 -33 -1 -55 18 -28 24 -29 29 -29 106 1 69 4 85
22 102 22 22 54 28 91 15 21 -7 22 -5 22 53 l0 61 30 0 30 0 0 -175z m452 83
l3 -92 25 37 c20 30 31 37 58 37 30 0 42 -12 24 -24 -5 -3 -21 -23 -36 -44
l-27 -40 40 -66 41 -66 -35 0 c-30 0 -38 5 -57 40 -13 22 -26 40 -30 40 -5 0
-8 -18 -8 -40 0 -39 -1 -40 -35 -40 l-35 0 0 168 c0 93 3 172 7 175 3 4 19 7
34 7 l28 0 3 -92z m728 28 l0 -65 35 15 c28 11 40 12 58 3 34 -18 37 -27 37
-136 l0 -103 -30 0 -30 0 0 90 c0 75 -3 92 -16 97 -37 14 -49 -10 -52 -101
l-3 -86 -29 0 -30 0 0 175 0 175 30 0 30 0 0 -64z m530 3 c0 -58 1 -60 23 -53
76 26 107 -8 107 -118 0 -71 -2 -81 -26 -105 -21 -21 -31 -24 -57 -18 -18 4
-49 6 -69 6 l-38 -2 0 176 0 175 30 0 30 0 0 -61z m-1482 -11 c3 -35 6 -38 33
-38 24 0 29 -4 29 -25 0 -21 -5 -25 -30 -25 l-31 0 3 -67 c3 -66 4 -68 31 -71
21 -3 27 -8 23 -19 -3 -8 -6 -19 -6 -24 0 -16 -73 -10 -92 8 -14 13 -18 31
-18 90 0 66 -2 75 -20 80 -13 3 -20 14 -20 29 0 17 6 24 20 24 17 0 20 7 20
41 0 38 1 40 28 37 23 -3 27 -8 30 -40z m-2094 -58 c24 -24 34 -122 17 -173
-15 -44 -59 -66 -97 -48 -14 6 -27 11 -29 11 -3 0 -5 -29 -5 -65 l0 -65 -30 0
-30 0 0 181 0 182 39 -6 c21 -2 45 -1 52 4 19 12 60 2 83 -21z m402 20 c8 0
23 -9 34 -20 17 -17 20 -33 20 -121 l0 -101 -32 3 c-18 1 -48 -1 -66 -5 -50
-12 -82 13 -82 64 0 44 20 64 83 81 28 7 37 15 35 27 -5 25 -45 27 -58 3 -13
-25 -48 -28 -57 -5 -13 34 56 90 95 78 8 -2 20 -4 28 -4z m293 -1 c38 -14 51
-35 51 -88 l0 -41 -61 0 c-60 0 -60 0 -57 -27 3 -32 44 -46 54 -19 4 10 18 16
35 16 35 0 39 -25 10 -61 -27 -34 -99 -34 -135 0 -23 22 -26 32 -26 96 0 79
20 120 63 128 12 2 25 5 28 6 3 0 20 -4 38 -10z m199 0 c29 -10 59 -59 45 -73
-15 -15 -51 -5 -56 15 -4 13 -12 20 -24 17 -31 -6 -27 -34 7 -48 78 -32 101
-82 61 -131 -15 -19 -29 -24 -66 -24 -37 0 -51 5 -66 24 -29 36 -25 61 11 61
24 0 30 -4 30 -21 0 -15 5 -20 22 -17 42 6 33 36 -16 58 -54 23 -75 57 -60 98
9 25 45 52 70 52 6 0 25 -5 42 -11z m219 -13 c6 -6 13 -22 15 -36 2 -21 -2
-26 -23 -28 -20 -2 -28 2 -32 18 -4 14 -12 21 -24 18 -29 -5 -21 -32 15 -50
73 -36 92 -81 53 -129 -15 -19 -29 -24 -66 -24 -37 0 -51 5 -66 24 -29 36 -25
61 10 61 21 0 30 -6 34 -21 7 -25 40 -22 45 4 3 12 -9 23 -42 37 -51 21 -70
54 -60 97 12 45 104 65 141 29z m182 13 c17 -6 36 -19 41 -29 6 -10 10 -62 10
-116 l0 -97 -40 6 c-22 3 -43 1 -46 -4 -8 -14 -47 -11 -72 7 -16 11 -22 25
-22 54 0 44 20 64 83 81 28 7 37 15 35 27 -5 25 -45 27 -58 3 -13 -25 -48 -28
-57 -5 -8 23 16 62 46 73 35 13 43 13 80 0z m319 -22 c16 -15 22 -32 22 -64
l0 -43 -61 0 c-60 0 -60 0 -57 -27 3 -32 44 -46 54 -19 8 20 64 22 64 2 0 -69
-102 -98 -158 -45 -19 17 -22 31 -22 98 0 68 3 80 23 98 12 11 29 23 37 26 25
9 73 -4 98 -26z m1000 -3 c19 -21 22 -36 22 -99 0 -70 -1 -74 -32 -100 -27
-23 -39 -26 -71 -22 -59 8 -80 35 -85 107 -3 36 1 72 9 91 24 60 111 73 157
23z m240 9 c8 -11 12 -53 12 -120 l0 -103 -30 0 -30 0 0 90 c0 75 -3 92 -17
97 -32 12 -53 -32 -53 -113 l0 -74 -30 0 -30 0 0 120 0 120 29 0 c16 0 31 -5
33 -12 3 -8 11 -7 29 5 27 20 67 15 87 -10z m530 -9 c15 -17 22 -38 22 -65 l0
-39 -61 0 c-60 0 -60 0 -57 -27 3 -32 44 -46 54 -19 4 10 18 16 35 16 35 0 40
-29 9 -60 -27 -27 -63 -34 -105 -20 -46 15 -55 34 -55 123 0 64 3 76 23 94 12
11 29 23 37 26 28 11 75 -3 98 -29z m542 10 c11 -11 15 -39 15 -117 l0 -102
-32 -3 -33 -3 0 91 c0 72 -3 92 -15 96 -33 13 -45 -15 -45 -102 l0 -84 -35 0
-35 0 0 120 0 120 35 0 c19 0 35 -4 35 -9 0 -6 12 -3 28 4 29 16 58 12 82 -11z
m215 -5 c17 -16 21 -36 23 -120 l4 -100 -44 1 c-23 1 -54 -1 -68 -5 -34 -9
-80 27 -80 61 0 42 17 62 70 79 37 12 50 22 50 36 0 26 -36 25 -52 -1 -12 -19
-48 -27 -61 -14 -3 3 -1 19 5 36 20 56 108 72 153 27z m394 20 c36 -13 61 -53
61 -99 l0 -30 -59 0 c-63 0 -76 -8 -66 -40 8 -24 55 -28 55 -5 0 11 11 15 36
15 32 0 35 -2 29 -22 -4 -13 -18 -34 -33 -47 -21 -19 -33 -22 -65 -18 -60 8
-80 35 -85 109 -5 79 9 115 50 133 41 17 38 17 77 4z m204 -3 c15 -8 27 -11
27 -5 0 5 14 9 31 9 l30 0 -3 -154 c-3 -134 -5 -157 -22 -175 -42 -46 -144
-35 -166 19 -7 16 -9 34 -5 39 10 18 44 12 57 -9 27 -42 78 -15 78 41 0 18 -3
20 -12 11 -7 -7 -29 -12 -49 -12 -56 0 -79 34 -79 116 0 72 13 107 44 122 29
14 37 14 69 -2z m285 -22 c19 -22 22 -36 22 -120 l0 -95 -42 1 c-24 1 -54 -1
-68 -5 -36 -9 -80 27 -80 65 0 27 32 70 52 70 5 0 24 7 43 14 25 11 33 19 29
30 -9 22 -41 20 -56 -4 -18 -29 -58 -27 -58 3 0 73 105 101 158 41z m-3048
-94 l0 -120 -35 0 -35 0 0 113 c0 63 3 117 7 120 3 4 19 7 35 7 l28 0 0 -120z
m2280 63 c19 -90 25 -92 45 -14 18 68 20 71 48 71 28 0 29 -2 23 -33 -3 -19
-25 -99 -49 -178 l-42 -144 -34 -3 c-28 -3 -33 -1 -27 14 28 74 28 99 -3 207
-18 59 -34 113 -37 122 -5 12 2 15 28 15 34 0 35 -1 48 -57z"/>
<path d="M6613 9773 c-20 -4 -23 -11 -23 -51 l0 -47 85 0 85 0 0 46 c0 40 -3
48 -22 53 -25 6 -90 6 -125 -1z"/>
<path d="M7115 8210 c-14 -22 -25 -43 -25 -47 0 -5 -14 -26 -30 -47 -33 -44
-66 -61 -135 -71 -66 -10 -55 -25 19 -25 44 0 67 -5 76 -15 7 -8 16 -13 20
-10 4 2 15 -16 25 -42 16 -40 16 -56 6 -127 -6 -44 -11 -106 -11 -136 0 -30
-5 -71 -10 -91 -11 -38 -74 -109 -97 -109 -8 0 -31 -17 -52 -37 -20 -21 -52
-49 -70 -63 -18 -14 -39 -31 -47 -39 -32 -29 -109 -50 -167 -44 -50 5 -60 3
-89 -19 -18 -14 -36 -25 -39 -24 -3 1 -14 -6 -24 -14 -44 -37 -203 -81 -265
-73 -52 6 -128 -19 -179 -58 -26 -21 -111 -27 -111 -8 0 6 -14 9 -31 7 -26 -2
-36 -11 -57 -51 -33 -64 -37 -121 -18 -243 17 -111 20 -277 5 -364 -5 -30 -12
-112 -15 -182 -6 -120 -5 -127 14 -137 16 -9 30 -8 59 3 21 8 62 20 91 26 50
12 53 14 80 69 27 55 28 56 74 59 43 3 48 1 61 -25 20 -39 44 -58 129 -107 60
-34 80 -52 116 -107 47 -69 69 -83 142 -93 25 -4 60 -15 78 -26 27 -17 32 -26
33 -62 3 -78 -3 -113 -22 -134 -10 -11 -19 -24 -19 -28 0 -4 -11 -32 -25 -62
-14 -30 -25 -71 -25 -92 -1 -61 -47 -101 -140 -121 -51 -11 -148 -54 -160 -71
-3 -4 -18 -13 -35 -21 -16 -8 -28 -17 -27 -21 1 -5 2 -22 2 -39 0 -30 1 -31
32 -25 18 4 50 15 71 26 50 26 147 28 169 3 28 -31 61 -117 60 -153 -1 -27
-10 -42 -39 -66 -49 -41 -146 -90 -271 -136 -32 -11 -62 -25 -68 -29 -6 -5
-13 -7 -16 -4 -8 8 -40 -83 -33 -94 3 -6 27 -20 53 -31 39 -18 58 -20 117 -15
63 6 74 4 98 -15 32 -26 36 -76 11 -139 -14 -36 -70 -91 -92 -91 -15 0 -49
-43 -78 -100 -16 -30 -39 -66 -51 -80 -13 -14 -23 -28 -23 -32 0 -12 -84 -93
-112 -107 -16 -8 -28 -18 -28 -23 0 -4 -9 -8 -20 -8 -17 0 -20 -7 -20 -44 0
-24 -7 -57 -15 -72 -20 -38 -20 -128 0 -148 8 -8 15 -19 15 -24 0 -16 21 -20
77 -14 39 3 59 0 79 -13 25 -16 26 -20 22 -85 -2 -44 -9 -75 -20 -87 -38 -43
-68 -328 -39 -380 6 -12 11 -44 11 -72 0 -27 5 -53 11 -57 7 -4 9 -22 6 -47
-6 -42 8 -67 37 -67 20 0 56 30 56 47 0 6 7 16 16 21 18 10 64 4 64 -9 0 -5
19 -9 42 -9 23 0 38 3 35 6 -10 10 12 44 29 44 8 0 27 19 42 43 40 63 98 117
125 117 31 0 57 -29 58 -66 1 -26 2 -25 11 11 10 41 6 121 -11 210 -6 28 -10
98 -10 156 l-1 107 38 45 c40 49 170 156 239 197 47 28 143 116 143 130 0 6 8
10 18 10 9 1 35 19 57 40 23 23 50 40 63 40 22 0 22 2 22 135 0 74 -3 135 -7
135 -5 0 -22 -15 -40 -33 -18 -18 -45 -40 -60 -48 -31 -16 -28 -13 -101 -70
-101 -77 -172 -90 -215 -39 -14 16 -33 50 -42 75 -10 25 -22 45 -27 45 -11 0
-5 156 10 245 5 33 21 85 35 115 26 58 57 153 57 175 0 21 32 75 68 114 34 37
49 72 37 90 -3 6 -22 11 -42 11 -20 0 -55 10 -79 22 -44 21 -44 22 -44 74 0
49 24 124 43 132 4 2 7 10 7 17 0 8 10 22 23 32 27 23 29 27 111 189 36 71 74
139 86 149 11 10 20 24 20 30 0 16 134 155 149 155 8 0 11 63 11 215 0 118 -4
215 -8 215 -4 0 -14 -10 -22 -22 -8 -12 -63 -70 -121 -130 -104 -105 -108
-108 -151 -108 -52 0 -90 28 -103 76 -4 16 -10 85 -12 154 -5 124 6 233 34
360 8 36 18 108 23 160 5 52 15 115 24 140 9 25 16 52 16 60 0 9 11 31 23 50
66 97 180 323 207 408 18 56 31 80 57 100 l33 27 0 298 0 297 -30 0 c-24 0
-35 -8 -55 -40z"/>
<path d="M1705 6948 c-33 -5 -67 -16 -75 -23 -8 -7 -27 -17 -42 -20 -16 -4
-28 -11 -28 -16 0 -5 -18 -9 -40 -9 -33 0 -40 -3 -40 -20 0 -17 -7 -20 -45
-20 -25 0 -45 5 -45 10 0 7 -6 7 -20 0 -11 -6 -20 -19 -20 -29 0 -12 -14 -24
-43 -35 -23 -9 -47 -16 -53 -16 -5 0 -16 -9 -24 -20 -8 -11 -22 -20 -32 -20
-10 0 -18 -6 -18 -14 0 -8 -3 -21 -6 -29 -4 -12 3 -14 41 -9 41 4 50 2 71 -21
13 -14 24 -36 24 -49 0 -36 53 -242 65 -250 5 -4 33 -8 62 -8 58 0 73 -13 107
-89 19 -41 40 -53 49 -28 4 9 6 9 6 -1 1 -8 9 -10 24 -7 34 8 63 -25 134 -152
l29 -52 35 27 c86 68 151 95 209 88 37 -5 52 -14 88 -52 42 -46 42 -46 42
-122 -1 -82 -16 -140 -47 -174 -18 -21 -18 -21 12 -14 47 11 85 59 85 106 0
79 86 129 138 80 35 -33 55 -120 50 -221 l-4 -88 39 -17 c36 -16 40 -16 66 -1
31 18 72 12 117 -18 23 -15 24 -14 24 7 0 27 26 61 58 77 12 7 20 16 17 21 -3
6 -13 35 -20 65 -18 67 -55 141 -88 176 -19 19 -26 39 -28 75 -3 48 -4 50 -53
76 -36 19 -66 27 -104 28 -99 0 -140 83 -92 189 39 85 20 233 -53 401 -34 77
-52 106 -100 153 -56 53 -62 57 -108 57 -26 0 -51 5 -54 10 -8 13 -228 11
-310 -2z"/>
<path d="M5940 5774 c-6 -14 -10 -37 -10 -51 0 -14 -8 -47 -17 -74 -10 -26
-15 -51 -11 -54 3 -3 31 20 62 53 30 32 76 68 100 81 25 12 48 26 51 32 4 5
11 7 16 4 5 -4 9 3 9 14 0 20 -6 21 -95 21 -93 0 -96 -1 -105 -26z"/>
<path d="M6500 3065 c-37 -21 -92 -45 -102 -45 -4 0 -32 -22 -61 -49 -97 -91
-110 -101 -134 -107 -13 -4 -23 -13 -23 -20 0 -8 -10 -19 -22 -24 -77 -30
-101 -111 -50 -166 24 -27 32 -29 77 -26 28 3 53 9 57 15 3 6 30 14 60 18 83
11 140 36 193 84 27 25 57 45 68 45 10 0 29 12 44 26 24 24 25 30 21 112 -5
112 -21 146 -68 149 -19 1 -46 -5 -60 -12z"/>
<path d="M963 3025 c3 -11 13 -38 21 -60 21 -54 20 -164 -1 -217 -9 -24 -20
-45 -23 -48 -21 -15 -52 -99 -59 -159 -5 -38 -12 -74 -15 -80 -4 -6 10 -25 31
-43 21 -18 48 -43 61 -55 29 -29 50 -29 115 -1 55 24 77 40 77 58 0 18 78 96
135 136 43 29 61 50 80 93 26 55 35 68 89 119 l28 27 -48 7 c-154 21 -301 81
-399 162 -27 22 -52 43 -55 46 -3 3 -14 12 -24 20 -18 14 -19 13 -13 -5z"/>
</g>
</svg>
