<?xml version="1.0" standalone="no"?>
<!DOCTYPE svg PUBLIC "-//W3C//DTD SVG 20010904//EN"
 "http://www.w3.org/TR/2001/REC-SVG-20010904/DTD/svg10.dtd">
<svg version="1.0" xmlns="http://www.w3.org/2000/svg"
 width="720.000000pt" height="1280.000000pt" viewBox="0 0 720.000000 1280.000000"
 preserveAspectRatio="xMidYMid meet">
<metadata>
Created by potrace 1.16, written by Peter Selinger 2001-2019
</metadata>
<g transform="translate(0.000000,1280.000000) scale(0.100000,-0.100000)"
fill="#000000" stroke="none">
<path d="M0 6400 l0 -6400 3600 0 3600 0 0 1025 0 1025 -2214 2 -2214 3 -21
24 c-12 13 -21 30 -21 37 0 7 -12 1 -28 -14 -15 -15 -27 -30 -25 -33 4 -9 -67
-22 -75 -15 -3 3 -7 33 -9 65 -3 58 -2 61 33 89 36 30 36 31 24 69 -7 21 -25
59 -41 84 -16 26 -29 60 -29 78 0 22 -8 40 -26 56 -63 59 -60 109 8 129 28 8
35 14 29 25 -5 8 -5 26 1 42 9 28 7 78 -6 110 -4 8 -22 21 -41 28 -19 7 -35
16 -35 21 0 5 -3 15 -6 24 -6 17 40 66 62 66 7 0 25 -12 39 -26 19 -19 41 -28
78 -33 l52 -6 -3 -49 c-3 -57 18 -99 46 -90 89 29 98 42 71 102 -25 55 -31
112 -13 130 14 14 67 32 94 32 17 0 70 -43 70 -56 0 -5 38 -10 85 -11 65 -1
85 2 85 12 0 8 -9 17 -20 20 -11 3 -20 11 -20 16 0 5 -6 9 -14 9 -19 0 -28 27
-13 40 7 6 34 25 61 43 100 65 88 91 -41 92 -78 1 -87 3 -96 22 -7 15 -22 23
-56 28 -58 9 -71 19 -71 60 0 39 12 50 63 59 79 14 111 47 123 127 6 36 5 39
-16 39 -12 0 -39 -15 -60 -33 l-37 -34 -129 5 c-148 5 -161 -1 -165 -73 -2
-22 -11 -58 -21 -80 -10 -22 -18 -57 -18 -77 0 -40 -3 -42 -76 -53 -45 -7 -65
-22 -95 -73 -13 -23 -26 -32 -44 -32 -26 0 -75 39 -75 60 0 16 -26 40 -42 40
-8 0 -18 4 -24 10 -16 16 -52 0 -58 -26 -12 -47 -57 -135 -72 -141 -9 -3 -27
6 -44 22 -40 38 -56 28 -64 -42 -4 -32 -10 -66 -12 -76 -6 -21 -125 -77 -163
-77 -35 0 -104 25 -109 39 -2 6 21 36 51 66 73 72 76 83 32 140 -19 26 -35 56
-35 68 0 11 -14 32 -31 47 -40 33 -34 56 21 88 47 26 51 51 20 109 -52 97 12
182 89 117 47 -39 99 -30 150 25 42 46 72 52 95 19 l16 -22 39 22 c21 12 54
22 73 22 37 0 96 28 112 52 14 23 -15 48 -54 48 -18 0 -66 -18 -110 -41 -44
-24 -85 -39 -94 -36 -17 7 -20 48 -7 82 12 28 -6 57 -29 50 -23 -7 -94 23
-129 54 -13 11 -33 21 -44 21 -15 0 -18 -4 -12 -22 21 -69 21 -68 -29 -68 -25
0 -46 5 -46 10 0 13 -47 13 -55 0 -9 -14 -51 -12 -62 3 -6 6 -15 26 -20 42 -6
18 -27 42 -52 58 -40 27 -43 28 -84 15 -23 -7 -69 -13 -102 -13 -53 0 -60 2
-63 21 -4 30 24 51 49 36 26 -17 56 -15 63 4 12 31 6 60 -26 122 l-33 64 30
24 c63 52 138 86 175 80 35 -6 64 -31 54 -48 -3 -4 5 -21 18 -37 13 -16 31
-43 40 -60 28 -51 57 -51 127 1 13 10 32 18 42 18 11 0 19 5 19 10 0 6 9 10
20 10 30 0 110 23 110 32 0 4 6 8 14 8 7 0 36 22 63 49 64 63 83 69 121 36 16
-14 38 -25 47 -25 21 0 54 39 55 63 0 17 -6 18 -49 12 -102 -14 -119 17 -36
64 38 21 61 43 72 66 9 19 20 35 25 35 4 0 8 9 8 20 0 11 -7 20 -15 20 -20 0
-92 -48 -99 -66 -3 -8 -21 -22 -41 -31 l-36 -17 -24 29 c-13 17 -26 43 -29 59
-3 16 -14 35 -24 42 -34 27 -122 12 -145 -23 -4 -7 -12 -13 -17 -13 -12 0 -32
38 -35 65 -4 34 -5 35 -19 35 -16 0 -39 -26 -42 -48 -6 -36 -28 -62 -53 -62
-49 0 -87 94 -83 208 1 36 -2 43 -16 40 -10 -2 -19 -16 -22 -38 -9 -55 -36
-87 -78 -95 -75 -14 -89 -52 -47 -131 36 -67 33 -76 -17 -72 -42 3 -43 4 -46
41 -2 27 -8 37 -21 37 -22 0 -54 -35 -70 -77 -21 -53 -36 -59 -66 -27 -25 27
-26 27 -80 15 -45 -10 -58 -18 -70 -41 -19 -38 -19 -70 0 -70 22 0 65 -30 65
-45 0 -13 -30 -26 -92 -39 -24 -5 -28 -11 -28 -40 0 -52 20 -62 85 -42 29 10
59 24 66 32 6 8 17 14 24 14 15 0 26 -35 14 -47 -5 -5 -6 -18 -3 -29 4 -16 12
-19 33 -16 37 5 61 -20 61 -64 0 -33 -1 -34 -37 -34 -21 0 -51 -7 -67 -15 -28
-15 -31 -14 -66 10 -44 30 -50 31 -92 5 -45 -28 -67 -25 -112 15 l-39 35 25
32 c14 18 31 51 38 73 7 22 15 44 18 50 3 5 7 18 7 27 2 17 41 69 58 76 13 6
7 30 -9 36 -39 15 -107 -5 -180 -54 l-31 -20 -11 27 c-7 16 -11 42 -10 58 1
38 -17 105 -35 129 -21 28 -58 14 -84 -33 -20 -34 -29 -41 -89 -57 -68 -18
-124 -54 -124 -80 0 -7 -10 -19 -22 -25 -13 -7 -23 -11 -23 -9 0 2 -10 0 -21
-4 -22 -7 -34 -41 -34 -98 0 -16 13 -61 30 -100 16 -38 30 -88 30 -110 0 -35
-3 -40 -35 -53 -36 -16 -55 -41 -55 -74 0 -12 -9 -41 -21 -66 -24 -51 -20 -94
12 -113 16 -10 24 -10 42 3 26 18 68 20 85 3 7 -7 12 -32 12 -57 l0 -45 33 31
c38 36 61 45 92 37 34 -8 39 -36 15 -76 -14 -23 -20 -51 -20 -93 0 -65 -5 -78
-34 -89 -26 -9 -156 24 -163 41 -3 8 0 25 7 38 14 25 7 45 -15 45 -9 0 -19 18
-26 45 l-12 46 -79 -3 c-97 -4 -108 6 -108 94 0 52 -3 60 -24 70 -27 12 -41
42 -50 101 -7 53 -21 67 -70 67 -24 1 -58 10 -81 24 l-40 23 -3 70 c-2 53 1
75 13 86 19 20 19 43 0 51 -24 9 -21 126 4 154 10 12 22 22 27 22 17 0 38 44
44 90 l5 45 55 0 c57 1 112 26 105 48 -39 135 -49 158 -71 163 -13 3 -35 3
-49 0 -14 -4 -36 -4 -50 0 -20 5 -25 12 -25 38 0 17 9 46 21 65 13 21 19 46
17 70 -3 34 -5 36 -41 39 -25 2 -37 -1 -37 -10 0 -9 -3 -9 -10 2 -6 10 -10
820 -10 2238 l0 2222 3590 0 3590 0 0 1775 0 1775 -3600 0 -3600 0 0 -6400z
m6782 3684 c50 -17 112 -73 138 -125 44 -85 32 -202 -29 -284 -25 -34 -27 -41
-14 -50 14 -10 14 -14 -2 -38 -22 -35 -88 -46 -136 -23 -29 13 -43 14 -94 4
-106 -20 -142 -17 -169 17 -22 27 -22 31 -7 41 15 11 14 14 -6 36 -63 67 -82
200 -42 288 60 133 208 188 361 134z m-639 0 c52 -18 116 -76 142 -130 22 -47
30 -130 16 -180 -32 -119 -134 -194 -265 -194 -165 0 -272 106 -270 266 2 153
105 252 265 253 36 1 86 -6 112 -15z m-5839 -91 c10 -34 76 -315 76 -324 0 -5
-16 -9 -35 -9 -30 0 -35 3 -35 24 0 31 -13 39 -59 39 -31 0 -36 -3 -43 -31 -8
-28 -13 -32 -42 -32 l-34 0 14 58 c7 31 25 110 40 175 l28 117 42 0 c32 0 44
-4 48 -17z m406 -75 l1 -93 30 38 c23 27 39 37 60 37 16 0 29 -3 29 -6 0 -4
-16 -27 -35 -53 l-34 -47 21 -35 c11 -19 29 -49 40 -66 l20 -33 -36 0 c-30 0
-38 5 -57 40 -26 45 -39 43 -39 -6 0 -31 -2 -34 -30 -34 l-30 0 0 175 0 175
30 0 30 0 0 -92z m1740 -83 l0 -176 -42 1 c-24 1 -55 -1 -69 -5 -19 -5 -33 -1
-55 18 -27 24 -29 29 -29 106 0 69 3 84 21 102 23 22 55 28 92 15 21 -7 22 -5
22 53 l0 61 30 0 30 0 0 -175z m452 83 l3 -92 25 37 c20 30 31 37 58 37 30 0
42 -12 24 -24 -5 -3 -21 -23 -36 -44 l-27 -40 41 -66 41 -67 -38 3 c-32 3 -41
9 -58 40 -26 49 -35 48 -35 -2 0 -39 -1 -40 -35 -40 l-35 0 0 175 0 175 35 0
34 0 3 -92z m728 28 l0 -65 35 15 c28 11 40 12 58 3 34 -18 37 -27 37 -136 l0
-103 -30 0 -30 0 0 90 c0 75 -3 92 -16 97 -37 14 -49 -10 -52 -101 l-3 -86
-29 0 -30 0 0 175 0 175 30 0 30 0 0 -64z m530 3 c0 -58 1 -60 23 -53 76 26
107 -8 107 -118 0 -71 -2 -81 -26 -105 -20 -20 -31 -24 -52 -18 -15 4 -46 6
-69 5 l-43 -1 0 176 0 175 30 0 30 0 0 -61z m-1480 -9 c0 -38 2 -40 30 -40 25
0 30 -4 30 -25 0 -21 -5 -25 -30 -25 l-31 0 3 -67 c3 -66 4 -68 31 -71 21 -3
27 -8 23 -19 -3 -8 -6 -19 -6 -24 0 -16 -73 -10 -92 8 -14 13 -18 31 -18 90 0
66 -2 75 -20 80 -13 3 -20 14 -20 29 0 17 6 24 20 24 17 0 20 7 20 40 0 38 2
40 30 40 28 0 30 -2 30 -40z m-2096 -61 c24 -23 34 -121 17 -172 -15 -44 -59
-66 -97 -48 -14 6 -27 11 -29 11 -3 0 -5 -29 -5 -65 l0 -65 -30 0 -30 0 0 181
0 182 38 -5 c20 -3 46 -2 57 3 26 10 55 2 79 -22z m405 20 c17 -6 36 -19 41
-29 6 -10 10 -62 10 -115 l0 -97 -32 3 c-18 1 -48 -1 -66 -5 -50 -12 -82 13
-82 64 0 44 20 64 83 81 28 7 37 15 35 27 -5 25 -45 27 -58 3 -13 -25 -48 -28
-57 -5 -8 21 28 67 58 75 35 10 33 10 68 -2z m287 1 c39 -15 53 -39 54 -87 l0
-43 -61 0 c-60 0 -60 0 -57 -27 3 -32 44 -46 54 -19 9 23 64 21 64 -2 0 -51
-67 -84 -124 -62 -45 17 -55 38 -56 116 0 78 20 119 63 127 12 2 25 5 29 6 4
0 19 -4 34 -9z m201 -1 c32 -12 43 -26 43 -56 0 -31 -45 -33 -53 -2 -7 24 -40
23 -45 -2 -2 -10 9 -21 30 -29 75 -30 98 -83 59 -131 -40 -50 -151 -22 -151
38 0 19 5 23 30 23 24 0 30 -4 30 -21 0 -15 5 -20 22 -17 42 6 33 36 -16 58
-76 32 -89 107 -23 135 39 17 39 17 74 4z m202 -4 c26 -13 46 -56 33 -70 -14
-14 -50 -3 -55 16 -4 13 -12 20 -24 17 -29 -5 -21 -32 15 -50 73 -36 92 -81
53 -129 -15 -19 -29 -24 -66 -24 -37 0 -51 5 -66 24 -29 36 -25 61 10 61 21 0
30 -6 34 -21 7 -25 40 -22 45 3 2 12 -11 24 -43 39 -74 35 -85 107 -21 135 40
17 51 17 85 -1z m200 4 c17 -6 36 -19 41 -29 6 -10 10 -62 10 -115 l0 -97 -32
3 c-18 1 -48 -1 -66 -5 -50 -12 -82 13 -82 64 0 44 20 64 83 81 28 7 37 15 35
27 -5 25 -45 27 -58 3 -11 -22 -44 -28 -55 -11 -12 20 8 59 38 74 38 19 45 19
86 5z m318 -21 c17 -16 23 -33 23 -65 l0 -43 -61 0 c-60 0 -60 0 -57 -27 3
-32 44 -46 54 -19 9 23 64 21 64 -2 0 -49 -66 -84 -121 -64 -50 20 -59 37 -59
121 0 68 3 80 23 98 12 11 29 23 37 26 25 10 73 -2 97 -25z m1001 -4 c18 -21
22 -36 22 -98 0 -77 -15 -107 -61 -121 -31 -10 -84 3 -105 26 -23 26 -31 127
-13 170 24 60 111 73 157 23z m240 8 c8 -10 12 -52 12 -119 l0 -103 -30 0 -30
0 0 90 c0 75 -3 92 -17 97 -32 12 -53 -32 -53 -113 l0 -74 -30 0 -30 0 0 120
0 120 29 0 c16 0 31 -5 33 -11 2 -6 14 -5 33 5 33 17 63 13 83 -12z m530 -8
c15 -17 22 -38 22 -65 l0 -39 -61 0 c-60 0 -60 0 -57 -27 3 -32 44 -46 54 -19
4 10 18 16 35 16 22 0 29 -5 29 -20 0 -42 -64 -79 -115 -66 -52 13 -65 39 -65
124 0 69 3 81 23 99 12 11 29 23 37 26 28 11 75 -3 98 -29z m539 12 c7 -6 13
-53 15 -116 l3 -105 -32 -3 -33 -3 0 91 c0 72 -3 92 -15 96 -33 13 -45 -15
-45 -102 l0 -84 -35 0 -35 0 0 120 0 120 35 0 c19 0 35 -4 35 -9 0 -6 12 -3
28 4 28 15 58 12 79 -9z m221 -12 c19 -22 22 -36 22 -120 l0 -95 -42 1 c-24 1
-54 -1 -68 -5 -34 -9 -80 27 -80 61 0 41 18 63 63 75 52 15 67 26 60 45 -8 21
-41 17 -55 -6 -12 -19 -48 -27 -60 -14 -15 14 11 60 43 77 43 22 86 16 117
-19z m391 25 c36 -13 61 -53 61 -99 l0 -30 -59 0 c-65 0 -73 -5 -64 -38 6 -26
53 -32 53 -7 0 11 11 15 36 15 32 0 35 -2 29 -22 -13 -43 -42 -63 -90 -63 -64
0 -87 27 -93 105 -5 75 11 118 52 136 38 16 36 16 75 3z m204 -3 c15 -8 27
-11 27 -5 0 5 14 9 30 9 l30 0 0 -149 c0 -134 -2 -151 -20 -174 -41 -52 -147
-44 -170 13 -7 16 -9 34 -5 39 9 15 46 7 60 -12 27 -37 75 -10 75 43 0 17 -3
19 -19 10 -36 -19 -78 -12 -100 16 -16 21 -21 41 -21 88 0 85 8 106 44 122 39
17 36 17 69 0z m285 -22 c19 -22 22 -36 22 -120 l0 -95 -42 1 c-24 1 -54 -1
-68 -5 -35 -9 -80 27 -80 64 0 39 19 60 70 75 33 10 46 19 48 35 4 28 -31 29
-51 0 -22 -30 -63 -23 -59 11 10 70 109 91 160 34z m-3048 -94 l0 -120 -35 0
-35 0 0 113 c0 63 3 117 7 120 3 4 19 7 35 7 l28 0 0 -120z m2280 63 c19 -91
25 -93 45 -14 17 70 18 71 50 71 l33 0 -52 -177 -51 -178 -34 -3 c-28 -3 -33
-1 -27 14 29 76 29 101 -4 209 -17 59 -34 113 -37 121 -4 10 4 14 29 14 34 0
35 -1 48 -57z m-3301 -6203 c87 -44 101 -66 57 -90 -21 -11 -29 -10 -61 10
-31 19 -46 22 -92 17 -85 -9 -100 6 -68 69 22 45 66 43 164 -6z m-139 -145
c14 -3 30 -7 35 -8 33 -7 55 -36 53 -68 -1 -19 0 -41 3 -49 3 -9 -9 -19 -36
-28 -47 -15 -71 -44 -79 -95 -3 -21 -17 -54 -30 -75 -39 -62 -41 -79 -12 -106
28 -25 32 -45 16 -74 -5 -9 -16 -34 -24 -55 -17 -42 -71 -73 -112 -63 -25 7
-64 70 -64 105 0 24 31 46 78 56 21 4 37 16 44 31 14 30 -5 47 -71 66 -65 19
-71 35 -36 108 16 34 28 73 27 88 -3 34 -29 54 -62 47 -40 -9 -66 25 -54 67
11 39 33 45 77 25 42 -20 132 -7 161 23 13 13 29 19 41 16 11 -2 31 -7 45 -11z
m-1356 -301 c9 -8 16 -28 16 -43 0 -25 3 -27 49 -29 28 -1 53 3 56 8 8 13 55
13 55 0 0 -5 -13 -19 -29 -31 -16 -11 -33 -38 -40 -59 -6 -22 -16 -42 -21 -45
-5 -3 -22 13 -37 36 -15 22 -37 45 -50 50 -20 8 -23 15 -23 69 0 33 2 60 4 60
3 0 12 -7 20 -16z m585 -84 c5 0 19 -20 32 -44 l23 -45 -27 -27 c-30 -30 -34
-55 -12 -74 35 -29 106 -7 160 50 37 39 79 62 99 54 11 -4 16 -20 16 -52 0
-40 -5 -49 -41 -83 l-42 -38 2 -80 c2 -77 1 -80 -31 -115 -18 -19 -51 -42 -73
-50 -33 -11 -40 -18 -37 -37 4 -38 24 -41 54 -9 33 36 58 38 112 6 23 -13 57
-27 76 -31 83 -16 100 -25 100 -53 0 -54 -23 -63 -117 -47 -41 7 -43 6 -60
-25 -10 -18 -27 -44 -39 -58 -18 -22 -22 -23 -42 -11 -12 8 -22 19 -22 25 0 6
-10 20 -23 32 -23 22 -24 22 -41 3 -13 -15 -34 -21 -75 -23 -53 -3 -56 -4 -53
-29 2 -27 -29 -69 -53 -69 -8 0 -22 8 -32 19 -10 10 -37 28 -59 39 -23 12 -56
39 -74 62 -29 37 -36 40 -80 40 -43 0 -48 3 -54 25 -7 28 66 279 84 290 24 15
45 76 50 147 5 54 12 83 24 97 14 15 17 29 12 56 -6 32 -4 36 20 45 14 6 46 9
70 7 23 -2 60 -1 81 3 21 4 44 6 51 4 8 -2 17 -4 21 -4z m-380 -344 c11 -45
11 -61 3 -64 -7 -2 -12 -12 -12 -23 0 -16 -58 -194 -85 -261 -8 -19 -51 -25
-57 -8 -2 6 -17 12 -33 14 -17 2 -33 4 -37 5 -5 0 -8 66 -8 146 l0 144 29 15
c16 9 31 13 33 10 3 -2 20 12 38 33 38 44 55 53 90 50 22 -2 27 -10 39 -61z
m1474 -229 c24 -13 55 -31 68 -40 14 -11 43 -17 75 -17 34 0 56 -5 64 -15 10
-13 7 -17 -23 -30 -20 -8 -43 -15 -51 -15 -8 0 -18 -4 -21 -10 -10 -16 -68
-11 -101 9 -17 10 -50 22 -73 26 -70 12 -86 49 -43 98 21 23 53 21 105 -6z
m-41 -189 c14 -12 55 -155 46 -163 -2 -2 -25 -13 -51 -24 -26 -11 -47 -27 -47
-35 0 -14 -32 -20 -139 -29 -38 -3 -64 42 -69 118 -2 36 -1 65 2 65 4 0 21
-14 39 -30 52 -49 118 -53 133 -8 5 17 -1 29 -31 56 -36 33 -37 36 -20 49 24
16 116 17 137 1z m328 -71 c12 -25 23 -33 49 -37 49 -7 74 -45 77 -119 3 -57
2 -61 -20 -67 -34 -8 -62 10 -69 45 -4 18 -17 36 -35 46 -60 36 -83 166 -28
165 6 0 18 -15 26 -33z"/>
<path d="M6613 9773 c-20 -4 -23 -11 -23 -51 l0 -47 85 0 85 0 0 46 c0 40 -3
48 -22 53 -25 6 -90 6 -125 -1z"/>
<path d="M1970 7960 c17 -32 2 -282 -18 -297 -13 -11 -8 -13 32 -13 41 0 47 2
37 14 -15 17 -4 284 12 304 7 9 0 12 -32 12 -39 0 -41 -1 -31 -20z"/>
<path d="M4211 7866 c-17 -27 -28 -35 -40 -30 -55 23 -91 11 -91 -31 0 -35 13
-38 26 -5 8 18 20 30 31 30 45 -1 42 -15 -27 -130 -38 -63 -70 -121 -70 -129
0 -27 44 25 105 124 39 64 61 91 67 83 14 -23 8 -102 -12 -147 -11 -24 -20
-49 -20 -57 0 -31 20 -10 61 64 46 85 111 185 142 219 10 12 17 27 15 34 -7
21 -80 -53 -118 -119 l-35 -61 -16 51 c-15 45 -15 54 -2 85 21 51 11 63 -16
19z"/>
<path d="M2467 7851 c-18 -6 -18 -8 -2 -21 14 -11 15 -24 10 -72 -15 -124 46
-164 131 -86 21 19 21 19 27 -12 5 -24 12 -30 31 -30 30 0 42 15 20 24 -13 5
-15 22 -13 103 l3 98 -30 -3 c-36 -5 -41 -9 -26 -24 7 -7 12 -38 12 -69 0 -53
-3 -60 -30 -79 -17 -12 -40 -20 -53 -18 -21 3 -22 8 -25 101 -3 103 -6 108
-55 88z"/>
<path d="M2768 7274 c-52 -26 -60 -40 -25 -47 21 -3 21 -4 2 -12 -11 -5 -23
-13 -27 -19 -4 -6 -13 -12 -20 -12 -7 -1 -18 -2 -25 -3 -6 0 -20 -17 -32 -37
-12 -19 -25 -33 -30 -29 -5 3 -13 0 -17 -6 -5 -8 -3 -9 6 -4 9 6 11 0 5 -24
-4 -18 -3 -31 3 -31 5 0 12 -12 15 -28 3 -15 23 -49 43 -74 40 -49 57 -55 34
-13 -12 22 -12 28 1 40 13 13 18 12 41 -10 33 -31 45 -31 54 -2 4 12 12 25 18
29 6 4 11 13 11 20 1 7 6 12 13 11 7 -2 12 6 12 17 0 10 10 25 22 31 31 17 48
-9 38 -61 -7 -37 -6 -40 16 -40 12 0 26 5 29 10 4 6 11 8 16 5 5 -4 9 -2 9 2
0 5 10 19 23 33 25 27 29 88 9 126 -5 10 -7 25 -5 32 3 6 1 12 -4 12 -4 0 -19
9 -33 20 -21 17 -23 21 -10 30 12 8 11 10 -5 8 -36 -4 -105 22 -105 39 0 11
-6 8 -21 -11 -26 -33 -47 -34 -25 -1 9 14 15 25 14 24 -2 -1 -24 -12 -50 -25z"/>
<path d="M4128 7071 c9 -5 1 -10 -27 -15 -22 -3 -52 -11 -68 -18 -15 -6 -31
-12 -35 -12 -10 -1 -45 -49 -52 -71 -8 -26 -45 -50 -58 -37 -6 6 -6 12 1 16 6
4 11 12 11 19 0 16 -14 -1 -39 -46 -12 -21 -17 -36 -12 -33 5 4 12 -7 16 -24
7 -33 27 -31 24 3 0 12 -1 25 0 29 2 11 41 -25 41 -37 0 -6 21 -30 46 -54 39
-37 45 -48 44 -79 -3 -58 -1 -72 11 -72 5 0 8 4 5 9 -3 5 10 25 29 46 19 20
33 41 29 46 -7 12 22 59 36 59 16 0 11 -42 -7 -62 -9 -10 -11 -18 -5 -18 6 0
28 -15 49 -32 23 -21 34 -27 30 -15 -4 12 -1 17 11 17 10 0 26 14 36 31 13 22
21 28 29 20 7 -7 5 -17 -8 -33 -11 -13 -13 -17 -5 -10 21 18 33 15 27 -8 -6
-24 20 -27 49 -5 26 20 34 19 34 -5 0 -12 -11 -32 -24 -45 -28 -28 -15 -46 14
-20 19 17 34 50 44 98 4 15 11 27 16 27 5 0 16 -12 25 -27 l16 -28 -6 30 c-9
40 -71 114 -109 130 -42 18 -77 59 -110 128 -27 55 -78 107 -107 107 -11 0
-12 -2 -1 -9z"/>
<path d="M2949 6855 c-18 -40 -24 -45 -52 -45 -18 0 -41 7 -51 15 -11 8 -27
15 -35 15 -10 -1 -5 -7 11 -15 20 -12 26 -21 24 -46 -2 -28 -1 -29 11 -13 7
10 13 21 13 26 0 4 7 8 15 8 8 0 15 -2 15 -5 0 -13 -40 -83 -54 -95 -22 -17
-113 -6 -146 18 -24 18 -64 70 -73 95 -4 13 -46 -30 -47 -49 0 -5 -13 -23 -30
-39 -16 -16 -30 -34 -30 -41 0 -7 -11 -26 -25 -42 -18 -22 -25 -42 -25 -73 -1
-41 -2 -43 -15 -25 -8 11 -15 31 -15 44 0 25 0 25 -21 6 -21 -18 -21 -25 -17
-199 3 -99 8 -187 12 -195 4 -9 -5 -27 -23 -46 -17 -18 -28 -34 -25 -36 2 -3
-4 -11 -13 -19 -16 -13 -17 -12 -4 4 8 10 9 17 3 17 -28 0 -30 -37 -6 -125 13
-50 24 -93 24 -97 0 -5 5 -8 11 -8 6 0 18 -9 27 -20 14 -16 31 -21 89 -24 40
-2 70 0 68 5 -3 4 -1 10 5 14 5 3 10 2 10 -3 0 -6 8 -9 17 -8 12 1 21 -12 30
-43 15 -53 28 -69 20 -25 -4 24 2 46 24 90 17 33 32 60 33 62 2 1 20 -5 42
-14 26 -11 69 -17 127 -17 l87 -1 0 -41 c0 -51 -28 -75 -118 -100 -55 -16 -60
-19 -51 -36 8 -15 14 -17 29 -9 28 15 32 13 25 -12 -5 -15 5 -8 25 20 17 23
38 42 45 42 7 0 18 7 25 15 9 11 23 13 51 9 26 -4 39 -3 39 5 0 6 -10 11 -22
11 l-23 1 25 22 c14 12 34 33 45 47 12 14 2 9 -23 -13 -23 -20 -45 -37 -50
-37 -4 0 -6 19 -4 43 3 37 8 45 35 57 18 7 58 40 89 72 51 51 58 56 68 40 9
-14 10 -12 4 8 -4 14 -7 49 -5 79 2 42 -3 61 -22 90 -28 42 -42 81 -30 81 5 0
14 -15 21 -34 7 -18 21 -41 32 -51 11 -10 20 -26 20 -35 0 -9 11 -27 25 -40
14 -13 25 -32 25 -43 0 -19 28 -51 66 -73 11 -7 19 -22 19 -38 -1 -19 4 -26
19 -26 16 0 17 3 8 12 -16 16 -15 28 1 28 6 0 29 17 50 36 36 33 37 37 23 53
-9 10 -16 25 -16 33 0 9 -16 40 -36 69 -43 65 -84 143 -84 162 0 8 -9 26 -20
40 -11 14 -20 32 -20 41 0 9 -9 24 -20 33 -15 13 -20 30 -20 68 0 87 -66 293
-103 323 -14 12 -107 42 -130 42 -4 0 -17 -20 -28 -45z"/>
<path d="M4298 6573 c-23 -26 -39 -61 -59 -123 -10 -30 -23 -54 -29 -52 -8 2
-8 -3 -1 -17 6 -10 15 -63 21 -118 6 -54 13 -114 16 -133 l7 -35 9 33 c5 21 5
69 -1 125 -9 76 -8 103 5 157 17 69 37 114 61 142 14 16 11 38 -6 38 -4 0 -15
-8 -23 -17z"/>
<path d="M4415 6435 c27 -74 62 -223 58 -249 -4 -25 0 -33 18 -41 12 -5 28
-19 36 -31 12 -19 10 -26 -22 -72 -33 -49 -46 -92 -26 -92 4 0 11 -19 14 -42
7 -49 -18 -100 -80 -169 -30 -33 -41 -39 -74 -37 -22 1 -35 4 -29 8 6 4 -8 20
-33 37 -57 42 -75 75 -60 114 12 30 8 63 -6 54 -12 -7 -100 23 -130 44 -15 11
-39 41 -52 66 -19 36 -38 54 -86 80 -34 19 -65 35 -70 35 -17 0 -38 -105 -39
-195 0 -49 -4 -99 -8 -110 -7 -17 -6 -17 4 -5 9 12 10 6 5 -30 -3 -24 -13 -52
-22 -62 -14 -16 -14 -18 0 -23 8 -4 13 -14 11 -23 -2 -9 -1 -22 3 -28 13 -18
121 -74 143 -74 12 0 35 -9 51 -21 16 -11 50 -24 76 -28 27 -5 53 -10 58 -12
6 -2 24 1 40 7 17 7 49 17 73 23 129 34 121 29 118 80 -2 25 -1 31 1 13 2 -18
8 -30 13 -27 5 3 49 -4 99 -15 50 -11 93 -20 96 -20 2 0 9 19 15 43 21 85 73
243 91 278 l18 37 -49 96 c-44 85 -50 103 -50 159 0 34 -4 67 -8 72 -4 6 -24
11 -45 12 -45 3 -80 20 -74 37 3 7 -16 39 -40 72 -25 32 -42 50 -38 39z"/>
<path d="M2910 5448 c0 -40 -18 -108 -28 -108 -4 0 -15 -12 -24 -28 -17 -28
-9 -62 14 -62 7 0 7 4 -1 14 -11 13 -5 46 9 46 4 0 11 10 17 22 7 16 9 -2 7
-67 -1 -50 0 -78 2 -62 7 39 39 36 53 -5 16 -45 59 -98 89 -109 14 -5 39 -7
55 -3 29 6 29 7 25 58 -4 38 -16 68 -47 118 l-42 66 -24 -24 c-13 -13 -35 -24
-48 -24 -41 0 -50 22 -48 115 1 47 0 85 -3 85 -3 0 -6 -15 -6 -32z"/>
<path d="M3900 5389 c0 -5 -4 -8 -9 -5 -13 8 -23 -62 -16 -109 8 -50 36 -99
59 -103 46 -9 80 64 71 153 -6 55 -9 62 -26 58 -10 -3 -19 -9 -19 -15 0 -5
-10 0 -22 12 -24 22 -38 26 -38 9z"/>
<path d="M2870 5073 c0 -29 -5 -55 -10 -58 -8 -5 -8 -11 0 -20 8 -9 7 -17 -4
-28 -13 -13 -13 -16 2 -30 9 -8 24 -17 32 -20 10 -3 7 -6 -8 -6 -18 -1 -22 -5
-18 -19 4 -10 0 -37 -8 -58 -12 -34 -12 -45 0 -73 20 -47 17 -60 -6 -31 -12
15 -20 43 -22 70 l-1 45 -4 -43 c-4 -36 2 -54 28 -98 27 -44 38 -54 61 -54 56
0 79 81 58 205 -13 77 -17 84 -38 63 -22 -22 -38 19 -40 105 -3 91 -22 135
-22 50z"/>
<path d="M1109 4985 c-19 -14 -44 -37 -56 -51 -19 -23 -26 -25 -67 -19 -34 5
-52 3 -75 -11 -17 -10 -31 -22 -31 -26 0 -4 -7 -8 -15 -8 -20 0 -36 -32 -24
-51 5 -7 9 -26 9 -40 0 -21 -8 -30 -35 -43 -19 -9 -35 -23 -35 -31 0 -8 16
-38 36 -65 33 -46 36 -55 29 -93 -10 -55 -11 -124 -2 -133 3 -4 24 4 44 19 21
14 49 28 63 32 14 4 42 18 63 32 l37 26 25 -27 c13 -14 30 -26 37 -26 9 0 9 3
-2 10 -10 6 -11 10 -2 10 6 0 12 7 12 15 0 18 41 20 57 4 20 -20 58 -2 75 35
13 25 25 36 50 41 52 12 108 36 108 48 0 6 -7 18 -16 28 -21 23 -11 49 26 74
45 30 42 35 -50 100 -30 21 -58 42 -61 48 -4 5 -22 12 -40 16 -27 5 -38 15
-54 49 -32 68 -53 75 -106 37z"/>
<path d="M4056 4796 c-4 -19 -16 -46 -28 -61 l-21 -27 -18 23 c-16 22 -19 22
-36 7 -10 -8 -28 -19 -40 -22 -13 -4 -23 -12 -23 -17 0 -12 17 -12 25 1 8 13
52 13 60 0 4 -6 -12 -35 -35 -65 -30 -39 -49 -55 -66 -55 -17 0 -24 -6 -24
-20 0 -21 -9 -25 -26 -12 -5 4 1 -3 15 -16 20 -19 30 -22 60 -17 62 12 120 67
107 102 -4 9 3 23 18 34 32 25 56 79 56 127 0 51 -16 63 -24 18z"/>
<path d="M2131 3964 c-38 -32 -55 -75 -47 -119 10 -49 33 -56 66 -18 15 17 40
35 56 40 38 13 45 55 14 88 -32 34 -56 37 -89 9z"/>
</g>
</svg>
