<?xml version="1.0" standalone="no"?>
<!DOCTYPE svg PUBLIC "-//W3C//DTD SVG 20010904//EN"
 "http://www.w3.org/TR/2001/REC-SVG-20010904/DTD/svg10.dtd">
<svg version="1.0" xmlns="http://www.w3.org/2000/svg"
 width="720.000000pt" height="1280.000000pt" viewBox="0 0 720.000000 1280.000000"
 preserveAspectRatio="xMidYMid meet">
<metadata>
Created by potrace 1.16, written by Peter Selinger 2001-2019
</metadata>
<g transform="translate(0.000000,1280.000000) scale(0.100000,-0.100000)"
fill="#000000" stroke="none">
<path d="M0 6400 l0 -6400 3600 0 3600 0 0 1025 0 1025 -2149 0 c-1182 0
-2156 2 -2164 5 -12 5 -11 18 5 88 16 72 23 112 45 245 3 18 9 35 14 38 5 3 9
34 9 69 0 53 -3 65 -19 70 -24 7 -70 -10 -77 -30 -4 -8 -12 -15 -20 -15 -12 0
-23 -8 -90 -72 -43 -40 -54 -55 -54 -75 -1 -48 -27 -103 -61 -126 -43 -29 -92
-40 -109 -24 -10 9 -12 9 -8 -3 3 -8 -1 -21 -9 -28 -7 -7 -13 -22 -13 -32 0
-32 -43 -53 -90 -45 -30 5 -44 3 -56 -10 -24 -23 -13 -28 66 -30 122 -3 86
-13 -72 -19 -165 -7 -374 -3 -384 7 -12 12 6 24 31 19 14 -2 25 0 25 6 0 6
-12 12 -27 14 -18 2 -29 10 -32 23 -2 11 -8 23 -13 26 -7 4 -6 19 2 41 10 26
10 40 2 54 -10 17 -11 15 -12 -16 0 -27 -6 -39 -29 -54 -16 -11 -36 -31 -45
-45 -8 -14 -24 -37 -35 -50 l-19 -24 -284 -3 -283 -2 -13 26 c-6 14 -12 31
-12 37 0 23 -53 121 -78 146 -15 14 -39 40 -54 57 -24 29 -25 32 -7 32 11 0
31 11 44 25 28 27 33 84 16 172 -6 26 -15 127 -20 224 -9 140 -15 186 -31 222
-24 55 -50 73 -81 57 -11 -7 -22 -10 -23 -8 -2 2 -7 11 -13 21 -8 15 -15 11
-60 -36 -29 -30 -65 -60 -82 -66 -31 -14 -50 -41 -27 -41 7 0 19 7 26 15 7 8
28 17 47 21 27 5 39 2 59 -17 32 -30 30 -55 -6 -74 -16 -8 -29 -19 -28 -23 3
-15 -22 -63 -37 -68 -9 -4 -20 -15 -26 -26 -26 -49 79 -61 130 -15 l24 22 -6
-25 c-4 -14 -7 -28 -7 -32 0 -4 -20 -19 -44 -33 -54 -32 -60 -53 -41 -145 21
-101 20 -117 -10 -124 -14 -4 -30 -4 -35 -1 -6 4 -10 54 -10 113 0 134 -19
178 -21 50 -1 -49 -3 -100 -4 -115 -9 -103 -20 -159 -31 -166 -8 -4 -14 -16
-14 -25 0 -21 -34 -52 -57 -52 -13 0 -14 -3 -5 -12 18 -18 15 -28 -8 -28 -11
0 -20 5 -20 10 0 6 -7 10 -15 10 -19 0 -19 14 0 30 8 7 15 25 15 41 0 16 9 55
19 86 11 32 22 72 25 88 4 17 9 41 12 55 16 76 22 144 14 165 -22 59 -76 89
-64 38 l6 -28 -14 25 c-16 30 -40 36 -61 15 -10 -9 -33 -15 -61 -15 -45 0 -45
-1 -56 -42 -7 -23 -9 -53 -5 -67 3 -14 9 -42 14 -61 4 -19 15 -50 25 -68 17
-33 17 -33 -12 -60 -16 -15 -53 -46 -82 -69 -28 -24 -49 -43 -44 -43 4 0 -1
-9 -11 -20 -10 -11 -24 -20 -32 -20 -7 0 -16 -7 -19 -15 -4 -8 -12 -15 -20
-15 -8 0 -19 -9 -26 -20 -7 -11 -23 -20 -34 -20 -14 0 -40 -20 -69 -52 -47
-52 -49 -53 -104 -53 l-56 0 -3 3598 -2 3597 3590 0 3590 0 0 1775 0 1775
-3600 0 -3600 0 0 -6400z m6796 3680 c151 -69 198 -267 95 -405 -25 -34 -27
-41 -14 -50 14 -10 14 -14 -1 -37 -26 -40 -88 -50 -140 -23 -23 12 -38 13 -85
4 -31 -7 -78 -12 -105 -13 -42 -1 -51 3 -72 29 -22 28 -23 31 -7 42 15 12 15
15 -5 35 -85 91 -82 269 6 361 77 81 220 106 328 57z m-653 4 c52 -18 116 -76
142 -130 57 -121 8 -276 -107 -339 -77 -42 -185 -47 -259 -13 -106 49 -153
125 -152 244 1 110 42 177 135 223 50 25 73 31 128 31 36 0 87 -7 113 -16z
m-5802 -244 c21 -91 39 -168 39 -172 0 -5 -15 -8 -33 -8 -28 0 -34 4 -42 32
-9 29 -14 32 -50 31 -36 0 -40 -3 -47 -31 -8 -28 -13 -32 -42 -32 l-34 0 14
58 c7 31 26 110 41 175 l28 118 44 -3 44 -3 38 -165z m371 78 l3 -93 25 37
c20 31 31 38 58 38 17 0 32 -3 32 -6 0 -4 -16 -28 -35 -53 -30 -42 -33 -50
-21 -67 7 -10 25 -40 40 -66 l28 -48 -35 0 c-31 0 -39 5 -58 40 -26 45 -39 43
-39 -6 0 -31 -2 -34 -30 -34 l-30 0 0 175 0 175 30 0 29 0 3 -92z m1738 -83
l0 -176 -42 1 c-24 1 -55 -1 -69 -5 -19 -5 -33 -1 -55 18 -28 24 -29 29 -28
107 0 68 4 84 21 101 22 22 54 28 91 15 21 -7 22 -5 22 53 l0 61 30 0 30 0 0
-175z m452 83 l3 -92 25 37 c20 30 31 37 58 37 30 0 42 -12 24 -24 -5 -3 -21
-23 -36 -44 l-27 -40 40 -66 41 -66 -34 0 c-28 0 -38 7 -62 43 l-29 42 -3 -42
c-3 -42 -4 -43 -38 -43 l-34 0 0 175 0 175 35 0 34 0 3 -92z m728 27 l0 -66
30 16 c33 17 60 13 85 -11 11 -12 15 -40 15 -120 l0 -104 -30 0 -30 0 0 90 c0
75 -3 92 -16 97 -37 14 -49 -10 -52 -101 l-3 -86 -29 0 -30 0 0 175 0 175 30
0 30 0 0 -65z m530 4 c0 -55 2 -60 18 -53 32 14 75 7 94 -16 14 -17 18 -40 18
-102 0 -71 -2 -81 -26 -105 -21 -21 -31 -24 -57 -18 -18 4 -49 6 -69 6 l-38
-2 0 176 0 175 30 0 30 0 0 -61z m-1480 -9 c0 -38 2 -40 30 -40 25 0 30 -4 30
-25 0 -21 -5 -25 -30 -25 l-31 0 3 -67 c3 -66 4 -68 31 -71 28 -3 31 -9 21
-36 -8 -22 -72 -21 -96 1 -14 13 -18 31 -18 90 0 66 -2 75 -20 80 -13 3 -20
14 -20 29 0 17 6 24 20 24 16 0 20 7 20 33 0 40 6 47 37 47 20 0 23 -5 23 -40z
m-2096 -61 c24 -23 34 -121 17 -172 -15 -44 -59 -66 -97 -48 -14 6 -27 11 -29
11 -3 0 -5 -30 -5 -66 l0 -65 -27 3 -28 3 -3 179 -2 179 37 -5 c21 -3 47 -2
58 3 26 10 55 2 79 -22z m405 20 c17 -6 36 -19 41 -29 6 -10 10 -62 10 -115
l0 -97 -32 3 c-18 1 -48 -1 -66 -5 -50 -12 -82 13 -82 64 0 44 20 64 83 81 28
7 37 15 35 27 -5 26 -48 28 -55 3 -6 -25 -51 -29 -60 -5 -8 21 28 67 58 75 35
10 33 10 68 -2z m290 0 c38 -14 51 -35 51 -88 l0 -41 -61 0 c-60 0 -60 0 -57
-27 3 -32 44 -46 54 -19 4 10 18 16 35 16 35 0 39 -25 10 -61 -27 -34 -99 -34
-135 0 -23 22 -26 32 -26 96 0 79 20 120 63 128 12 2 25 5 28 6 3 0 20 -4 38
-10z m198 0 c32 -12 43 -26 43 -56 0 -31 -45 -33 -53 -3 -7 26 -47 27 -47 1 0
-11 12 -23 30 -31 78 -32 101 -82 61 -131 -15 -19 -29 -24 -66 -24 -37 0 -51
5 -66 24 -29 36 -25 61 11 61 24 0 30 -4 30 -21 0 -15 5 -20 22 -17 41 6 32
33 -19 59 -91 46 -80 134 19 148 4 1 19 -4 35 -10z m191 0 c29 -10 59 -59 45
-73 -15 -15 -51 -5 -56 15 -4 13 -12 20 -24 17 -29 -5 -21 -32 15 -50 73 -36
92 -81 53 -129 -15 -19 -29 -24 -66 -24 -37 0 -51 5 -66 24 -29 36 -25 61 10
61 21 0 30 -6 34 -21 7 -25 40 -22 45 3 2 12 -11 24 -43 39 -74 35 -85 107
-21 135 38 16 36 16 74 3z m211 0 c17 -6 36 -19 41 -29 6 -10 10 -62 10 -115
l0 -97 -32 3 c-18 1 -48 -1 -66 -5 -50 -12 -82 13 -82 64 0 44 20 64 83 81 28
7 37 15 35 27 -5 25 -45 27 -58 3 -11 -22 -44 -28 -55 -10 -12 18 16 68 44 78
35 13 43 13 80 0z m318 -21 c17 -16 23 -33 23 -65 l0 -43 -61 0 c-60 0 -60 0
-57 -27 3 -32 44 -46 54 -19 9 23 64 21 64 -2 0 -49 -66 -84 -121 -64 -50 20
-59 37 -59 121 0 68 3 80 23 98 12 11 29 23 37 26 25 10 73 -2 97 -25z m1001
-4 c19 -21 22 -36 22 -99 0 -70 -1 -74 -32 -100 -27 -23 -39 -26 -71 -22 -59
8 -80 35 -85 107 -3 36 1 72 9 91 24 60 111 73 157 23z m240 8 c8 -10 12 -52
12 -119 l0 -103 -30 0 -30 0 0 90 c0 75 -3 92 -17 97 -32 12 -53 -32 -53 -113
l0 -74 -30 0 -30 0 0 120 0 120 29 0 c16 0 31 -5 33 -11 2 -6 14 -5 33 5 33
17 63 13 83 -12z m530 -5 c16 -15 22 -32 22 -64 l0 -43 -61 0 c-60 0 -60 0
-57 -27 3 -32 44 -46 54 -19 4 10 18 16 35 16 35 0 40 -29 9 -60 -27 -27 -63
-34 -105 -20 -46 15 -55 34 -55 123 0 64 3 76 23 94 12 11 29 23 37 26 25 9
73 -4 98 -26z m539 9 c6 -6 14 -57 17 -118 l5 -108 -34 0 -35 0 0 90 c0 72 -3
92 -15 96 -33 13 -45 -15 -45 -102 l0 -84 -35 0 -35 0 0 120 0 120 35 0 c19 0
35 -4 35 -9 0 -6 12 -3 28 4 28 15 58 12 79 -9z m218 -7 c17 -16 21 -35 23
-120 l4 -100 -44 1 c-23 1 -54 -1 -68 -5 -35 -9 -80 27 -80 64 0 39 19 60 70
75 33 10 46 19 48 35 5 29 -44 30 -53 0 -5 -15 -14 -19 -33 -17 -22 2 -26 7
-24 28 5 31 28 58 56 63 35 7 80 -4 101 -24z m400 16 c37 -15 55 -46 55 -96 0
-29 0 -29 -59 -29 -63 0 -76 -8 -66 -40 8 -24 55 -28 55 -5 0 11 11 15 36 15
32 0 35 -2 29 -22 -4 -13 -18 -34 -33 -47 -21 -19 -33 -22 -65 -18 -59 8 -80
35 -85 107 -5 75 11 118 52 136 39 17 40 17 81 -1z m198 1 c15 -8 27 -11 27
-5 0 5 14 9 31 9 l30 0 -3 -154 c-3 -134 -5 -157 -22 -175 -42 -46 -144 -35
-166 19 -7 16 -9 34 -5 39 10 18 44 12 57 -9 26 -41 78 -15 78 40 0 17 -3 19
-19 10 -36 -19 -78 -12 -100 16 -16 21 -21 41 -21 90 0 72 13 107 44 122 29
14 37 14 69 -2z m285 -22 c20 -22 22 -36 22 -120 l0 -95 -42 1 c-24 1 -55 -1
-70 -5 -21 -6 -32 -2 -52 18 -46 46 -30 99 37 118 52 15 67 26 60 45 -8 21
-41 17 -55 -6 -17 -26 -58 -27 -58 -1 0 34 12 53 44 67 40 18 85 9 114 -22z
m-3048 -94 l0 -120 -35 0 -35 0 0 120 0 120 35 0 35 0 0 -120z m2280 63 c19
-90 25 -92 45 -14 18 69 20 71 51 71 l32 0 -24 -82 c-79 -281 -76 -273 -113
-276 -28 -3 -33 -1 -27 14 29 76 29 101 -4 209 -17 59 -34 113 -37 121 -4 10
4 14 29 14 34 0 35 -1 48 -57z"/>
<path d="M6613 9773 c-20 -4 -23 -11 -23 -51 l0 -47 85 0 85 0 0 46 c0 40 -3
48 -22 53 -25 6 -90 6 -125 -1z"/>
<path d="M736 6903 c-3 -42 -6 -96 -6 -120 l0 -43 73 0 c81 0 112 14 119 55 3
13 -1 34 -9 45 -10 14 -11 25 -3 39 16 30 12 59 -10 81 -16 16 -33 20 -89 20
l-68 0 -7 -77z"/>
<path d="M1056 6904 c-3 -9 -6 -49 -6 -90 l0 -74 30 0 c29 0 29 0 32 68 3 59
5 67 23 67 18 0 20 -8 23 -67 3 -68 3 -68 32 -68 l30 0 0 68 c0 97 -32 133
-90 102 -13 -7 -21 -7 -25 0 -10 16 -42 12 -49 -6z"/>
<path d="M1957 4944 c-4 -4 -4 -11 -1 -15 3 -5 736 -9 1635 -9 1300 0 1630 3
1627 13 -4 9 -340 13 -1630 15 -893 1 -1627 -1 -1631 -4z"/>
<path d="M2430 2781 c0 -54 -2 -61 -20 -61 -27 0 -25 -14 4 -34 19 -12 26 -28
31 -71 8 -63 -1 -80 -45 -90 -31 -7 -47 -42 -33 -73 5 -9 8 -43 8 -74 0 -40 4
-58 12 -58 7 0 13 4 13 8 0 5 33 15 73 22 43 8 81 21 95 33 27 25 29 75 4 108
-28 38 -50 99 -57 159 -4 30 -13 65 -21 77 -8 12 -14 29 -14 37 0 7 -7 16 -15
20 -8 3 -15 14 -15 25 0 11 -4 23 -10 26 -6 4 -10 -17 -10 -54z"/>
<path d="M2226 2745 c-4 -16 -13 -25 -26 -25 -14 0 -22 -8 -26 -28 -3 -16 -19
-37 -40 -51 -19 -13 -34 -28 -34 -33 0 -5 4 -6 10 -3 5 3 2 -7 -8 -24 -9 -16
-19 -28 -21 -25 -2 2 -13 -3 -23 -13 -21 -19 -23 -55 -6 -118 11 -40 15 -45
33 -39 11 4 32 7 47 7 22 0 30 7 42 37 14 34 52 70 76 70 5 0 10 -15 11 -32 0
-18 4 -42 8 -53 6 -15 9 -11 14 20 9 53 9 77 0 72 -5 -3 -19 -1 -32 4 l-24 9
7 125 c6 123 4 149 -8 100z"/>
<path d="M2120 2343 c-30 -7 -41 -52 -29 -117 22 -124 34 -134 157 -135 64 -1
75 7 47 35 -9 10 -15 34 -15 64 0 40 4 50 20 55 11 3 20 10 20 15 0 4 9 10 20
13 11 3 20 12 20 21 0 20 -14 21 -30 1 -11 -13 -15 -13 -22 -3 -6 11 -10 11
-17 0 -6 -11 -15 -9 -42 7 -19 12 -46 21 -61 21 -16 0 -28 4 -28 9 0 11 -20
18 -40 14z"/>
</g>
</svg>
