<?xml version="1.0" standalone="no"?>
<!DOCTYPE svg PUBLIC "-//W3C//DTD SVG 20010904//EN"
 "http://www.w3.org/TR/2001/REC-SVG-20010904/DTD/svg10.dtd">
<svg version="1.0" xmlns="http://www.w3.org/2000/svg"
 width="720.000000pt" height="1280.000000pt" viewBox="0 0 720.000000 1280.000000"
 preserveAspectRatio="xMidYMid meet">
<metadata>
Created by potrace 1.16, written by Peter Selinger 2001-2019
</metadata>
<g transform="translate(0.000000,1280.000000) scale(0.100000,-0.100000)"
fill="#000000" stroke="none">
<path d="M0 6400 l0 -6400 3600 0 3600 0 0 1025 0 1024 -3402 4 c-3211 3
-3406 4 -3453 21 -27 9 -63 24 -78 32 -16 7 -37 14 -48 14 -10 0 -19 4 -19 9
0 16 -54 20 -63 5 -19 -34 -57 -1 -57 50 0 32 3 35 32 39 29 4 28 4 -5 3 -24
-1 -37 3 -37 11 0 7 -7 13 -15 13 -11 0 -15 -18 -17 -77 -2 -43 -7 170 -12
472 -9 572 -1 3628 10 3703 4 24 12 42 19 42 19 0 25 24 25 101 0 52 3 69 14
69 16 0 29 27 17 34 -13 9 -7 81 7 82 6 1 18 2 26 3 8 0 16 13 18 29 2 22 8
27 28 27 25 -1 25 0 20 58 -4 44 -3 60 7 63 47 14 49 16 28 24 -21 8 -21 9 30
25 11 3 15 19 15 54 0 54 8 61 75 65 30 1 34 16 5 16 -13 0 -20 7 -20 20 0 15
7 20 25 20 25 0 25 1 19 56 -8 61 0 74 44 74 15 0 22 6 22 21 0 11 5 17 10 14
6 -3 10 -15 10 -26 0 -26 12 -24 34 6 10 14 25 25 32 25 8 0 14 9 14 20 0 13
7 20 20 20 11 0 20 6 20 13 0 6 3 22 6 35 5 18 2 22 -15 22 -11 0 -21 5 -21
10 0 6 5 10 10 10 6 0 10 11 10 25 0 28 18 66 38 78 6 4 12 15 12 22 0 9 10
15 25 15 16 0 25 6 25 15 0 8 4 15 9 15 5 0 26 29 46 65 20 36 40 65 45 65 6
0 10 -14 10 -32 l0 -32 28 32 c16 18 36 32 45 32 10 0 17 8 17 20 0 11 4 20
10 20 17 0 34 44 31 83 -1 20 3 37 8 37 6 0 13 11 17 25 4 16 13 25 25 25 13
0 19 7 19 23 0 12 12 35 26 51 20 21 23 30 14 36 -9 6 -7 15 11 39 12 17 26
31 31 31 4 0 8 20 8 45 0 37 3 45 18 45 13 0 21 13 30 45 7 25 16 45 22 45 5
0 10 7 10 15 0 8 6 15 13 15 12 0 37 44 37 66 0 7 13 26 30 44 16 18 30 36 30
41 0 5 9 9 20 9 13 0 20 7 20 20 0 17 7 20 40 20 33 0 40 3 40 20 0 13 7 20
20 20 17 0 20 7 20 39 0 22 5 43 10 46 6 3 10 22 10 41 0 24 5 34 15 34 8 0
15 6 15 13 0 7 25 21 55 32 46 15 55 22 55 42 0 13 7 26 15 29 8 4 15 15 15
26 0 14 5 18 19 13 12 -3 21 0 25 11 5 12 15 15 41 12 42 -5 44 -1 8 14 l-28
12 33 4 c18 2 30 7 27 12 -8 13 5 60 17 60 18 0 48 42 48 67 0 27 28 43 40 23
7 -11 11 -11 24 -1 9 8 16 20 16 27 0 8 10 14 23 14 13 0 32 7 43 15 17 13 17
14 2 15 -10 0 -18 4 -18 9 0 4 38 11 86 15 98 8 128 24 113 63 -8 23 -7 23 59
25 37 2 -441 5 -1063 8 -628 3 466 6 2463 8 l3592 2 0 1775 0 1775 -3600 0
-3600 0 0 -6400z m6782 3684 c50 -17 112 -73 138 -125 44 -85 32 -202 -29
-284 -25 -34 -27 -41 -14 -50 14 -10 14 -14 -2 -38 -22 -35 -88 -46 -136 -23
-29 13 -43 14 -94 4 -106 -20 -142 -17 -169 17 -22 27 -22 31 -7 41 15 11 14
14 -6 36 -38 40 -63 108 -63 172 0 78 16 128 58 176 77 90 199 118 324 74z
m-639 0 c52 -18 116 -76 142 -130 22 -47 30 -130 16 -180 -32 -119 -134 -194
-265 -194 -165 0 -272 106 -270 266 2 153 105 252 265 253 36 1 86 -6 112 -15z
m-5839 -91 c10 -34 76 -315 76 -324 0 -5 -16 -9 -35 -9 -30 0 -35 3 -35 24 0
31 -13 39 -59 39 -31 0 -36 -3 -43 -31 -8 -28 -13 -32 -42 -32 l-34 0 14 58
c7 31 25 110 40 175 l28 117 42 0 c32 0 44 -4 48 -17z m406 -75 l1 -93 30 38
c23 27 39 37 60 37 16 0 29 -3 29 -6 0 -4 -16 -28 -35 -54 l-34 -47 28 -45
c56 -89 56 -88 17 -88 -30 0 -38 5 -57 40 -26 45 -39 43 -39 -6 0 -31 -2 -34
-30 -34 l-30 0 0 175 0 175 30 0 30 0 0 -92z m1740 -83 l0 -176 -42 1 c-24 1
-55 -1 -69 -5 -19 -5 -33 -1 -55 18 -27 24 -29 29 -29 106 0 69 3 84 21 102
23 22 55 28 92 15 21 -7 22 -5 22 53 l0 61 30 0 30 0 0 -175z m452 83 l3 -92
25 37 c20 30 31 37 58 37 30 0 42 -12 24 -24 -5 -3 -21 -23 -36 -44 l-27 -40
41 -66 41 -67 -38 3 c-32 3 -41 9 -58 40 -26 49 -35 48 -35 -2 0 -39 -1 -40
-35 -40 l-35 0 0 175 0 175 35 0 34 0 3 -92z m728 28 l0 -65 35 15 c28 11 40
12 58 3 34 -18 37 -27 37 -136 l0 -103 -30 0 -30 0 0 90 c0 75 -3 92 -16 97
-37 14 -49 -10 -52 -101 l-3 -86 -29 0 -30 0 0 175 0 175 30 0 30 0 0 -64z
m530 3 c0 -58 1 -60 23 -53 76 26 107 -8 107 -118 0 -71 -2 -81 -26 -105 -20
-20 -31 -24 -52 -18 -15 4 -46 6 -69 5 l-43 -1 0 176 0 175 30 0 30 0 0 -61z
m-1480 -9 c0 -38 2 -40 30 -40 25 0 30 -4 30 -25 0 -21 -5 -25 -30 -25 l-31 0
3 -67 c3 -66 4 -68 31 -71 21 -3 27 -8 23 -19 -3 -8 -6 -19 -6 -24 0 -16 -73
-10 -92 8 -14 13 -18 31 -18 90 0 66 -2 75 -20 80 -13 3 -20 14 -20 29 0 17 6
24 20 24 17 0 20 7 20 40 0 38 2 40 30 40 28 0 30 -2 30 -40z m-2096 -61 c24
-23 34 -121 17 -172 -15 -44 -59 -66 -97 -48 -14 6 -27 11 -29 11 -3 0 -5 -29
-5 -65 l0 -65 -30 0 -30 0 0 181 0 182 38 -5 c20 -3 46 -2 57 3 26 10 55 2 79
-22z m405 20 c17 -6 36 -19 41 -29 6 -10 10 -62 10 -115 l0 -97 -32 3 c-18 1
-48 -1 -66 -5 -50 -12 -82 13 -82 64 0 44 20 64 83 81 28 7 37 15 35 27 -5 25
-45 27 -58 3 -13 -25 -48 -28 -57 -5 -8 21 28 67 58 75 35 10 33 10 68 -2z
m287 1 c39 -15 53 -39 54 -87 l0 -43 -61 0 c-60 0 -60 0 -57 -27 3 -32 44 -46
54 -19 9 23 64 21 64 -2 0 -51 -67 -84 -124 -62 -45 17 -55 38 -56 116 0 78
20 119 63 127 12 2 25 5 29 6 4 0 19 -4 34 -9z m201 -1 c32 -12 43 -26 43 -56
0 -31 -45 -33 -53 -2 -7 24 -40 23 -45 -2 -2 -10 9 -21 30 -29 75 -30 98 -83
59 -131 -40 -50 -151 -22 -151 38 0 19 5 23 30 23 24 0 30 -4 30 -21 0 -15 5
-20 22 -17 42 6 33 36 -16 58 -76 32 -89 107 -23 135 39 17 39 17 74 4z m202
-4 c26 -13 46 -56 33 -70 -14 -14 -50 -3 -55 16 -4 13 -12 20 -24 17 -29 -5
-21 -32 15 -50 73 -36 92 -81 53 -129 -15 -19 -29 -24 -66 -24 -37 0 -51 5
-66 24 -29 36 -25 61 10 61 21 0 30 -6 34 -21 7 -25 40 -22 45 4 3 12 -9 23
-42 37 -74 31 -86 108 -22 136 40 17 51 17 85 -1z m200 4 c17 -6 36 -19 41
-29 6 -10 10 -62 10 -115 l0 -97 -32 3 c-18 1 -48 -1 -66 -5 -50 -12 -82 13
-82 64 0 44 20 64 83 81 28 7 37 15 35 27 -5 25 -45 27 -58 3 -11 -22 -44 -28
-55 -11 -12 20 8 59 38 74 38 19 45 19 86 5z m319 -22 c16 -15 22 -32 22 -64
l0 -43 -61 0 c-60 0 -60 0 -57 -27 3 -32 44 -46 54 -19 9 23 64 21 64 -2 0
-49 -66 -84 -121 -64 -50 20 -59 37 -59 121 0 68 3 80 23 98 12 11 29 23 37
26 25 9 73 -4 98 -26z m1000 -3 c18 -21 22 -36 22 -98 0 -77 -15 -107 -61
-121 -31 -10 -84 3 -105 26 -23 26 -31 127 -13 170 24 60 111 73 157 23z m240
8 c8 -10 12 -52 12 -119 l0 -103 -30 0 -30 0 0 90 c0 75 -3 92 -17 97 -32 12
-53 -32 -53 -113 l0 -74 -30 0 -30 0 0 120 0 120 29 0 c16 0 31 -5 33 -11 2
-6 14 -5 33 5 33 17 63 13 83 -12z m530 -8 c15 -17 22 -38 22 -65 l0 -39 -61
0 c-60 0 -60 0 -57 -27 3 -32 44 -46 54 -19 4 10 18 16 35 16 22 0 29 -5 29
-20 0 -42 -64 -79 -115 -66 -52 13 -65 39 -65 124 0 69 3 81 23 99 12 11 29
23 37 26 28 11 75 -3 98 -29z m539 12 c7 -6 13 -53 15 -116 l3 -105 -32 -3
-33 -3 0 91 c0 72 -3 92 -15 96 -33 13 -45 -15 -45 -102 l0 -84 -35 0 -35 0 0
120 0 120 35 0 c19 0 35 -4 35 -9 0 -6 12 -3 28 4 28 15 58 12 79 -9z m221
-12 c19 -22 22 -36 22 -120 l0 -95 -42 1 c-24 1 -54 -1 -68 -5 -34 -9 -80 27
-80 61 0 41 18 63 63 75 52 15 67 26 60 45 -8 21 -41 17 -55 -6 -12 -19 -48
-27 -60 -14 -15 14 11 60 43 77 43 22 86 16 117 -19z m391 25 c36 -13 61 -53
61 -99 l0 -30 -59 0 c-65 0 -73 -5 -64 -38 6 -26 53 -32 53 -7 0 11 11 15 36
15 32 0 35 -2 29 -22 -13 -43 -42 -63 -90 -63 -64 0 -87 27 -93 105 -5 75 11
118 52 136 38 16 36 16 75 3z m204 -3 c15 -8 27 -11 27 -5 0 5 14 9 30 9 l30
0 0 -149 c0 -134 -2 -151 -20 -174 -41 -52 -147 -44 -170 13 -7 16 -9 34 -5
39 9 15 46 7 60 -12 27 -37 75 -10 75 43 0 17 -3 19 -19 10 -36 -19 -78 -12
-100 16 -16 21 -21 41 -21 88 0 85 8 106 44 122 39 17 36 17 69 0z m285 -22
c19 -22 22 -36 22 -120 l0 -95 -42 1 c-24 1 -54 -1 -68 -5 -35 -9 -80 27 -80
64 0 39 19 60 70 75 33 10 46 19 48 35 4 28 -31 29 -51 0 -22 -30 -63 -23 -59
11 10 70 109 91 160 34z m-3048 -94 l0 -120 -35 0 -35 0 0 113 c0 63 3 117 7
120 3 4 19 7 35 7 l28 0 0 -120z m2280 63 c19 -91 25 -93 45 -14 17 70 18 71
50 71 l33 0 -52 -177 -51 -178 -33 -3 c-29 -3 -33 -1 -29 15 31 106 31 95 -2
207 -18 59 -35 114 -38 122 -4 10 4 14 29 14 34 0 35 -1 48 -57z"/>
<path d="M6613 9773 c-20 -4 -23 -11 -23 -51 l0 -47 85 0 85 0 0 46 c0 40 -3
48 -22 53 -25 6 -90 6 -125 -1z"/>
<path d="M1125 6938 c-6 -16 -32 -210 -46 -343 -6 -55 -15 -125 -20 -155 -6
-30 -13 -113 -16 -185 -3 -71 -10 -136 -15 -142 -6 -7 -8 -19 -5 -26 5 -13 -5
-130 -23 -262 -5 -44 -17 -152 -25 -240 -8 -88 -19 -180 -24 -205 -6 -25 -12
-85 -16 -135 -3 -49 -10 -124 -15 -165 -21 -171 -23 -223 -10 -215 8 5 11 4 7
-2 -7 -10 -37 -192 -37 -222 0 -21 55 -30 360 -55 274 -23 274 -23 302 16 14
18 33 56 43 83 10 28 22 56 28 63 15 20 58 123 64 154 3 15 -9 70 -28 130 -44
138 -44 237 2 533 24 152 23 141 6 127 -9 -8 -21 -11 -27 -7 -21 13 -40 -23
-40 -74 0 -41 -7 -61 -35 -106 -20 -30 -40 -55 -46 -55 -6 0 -8 -4 -5 -9 3 -5
-1 -14 -9 -21 -8 -7 -15 -21 -15 -31 0 -11 -5 -19 -11 -19 -7 0 -9 -11 -6 -26
2 -14 0 -27 -7 -29 -46 -13 -48 -15 -36 -30 8 -9 8 -15 2 -15 -6 0 -12 -10
-14 -22 -4 -27 -25 -35 -32 -11 -3 10 -4 2 -2 -18 3 -27 -2 -43 -19 -65 -24
-29 -24 -29 -19 -4 2 14 2 19 -2 13 -7 -17 -31 -17 -36 -1 -3 9 -11 8 -30 -4
-15 -10 -47 -23 -73 -29 -26 -7 -49 -18 -52 -25 -3 -8 -11 -14 -18 -14 -6 0
-22 -9 -35 -20 -12 -11 -27 -17 -31 -14 -5 3 -13 -6 -19 -20 -5 -14 -13 -26
-18 -26 -5 0 -14 -12 -21 -26 -6 -15 -14 -24 -17 -21 -7 7 53 98 118 179 102
127 315 568 256 532 -7 -4 -8 -3 -4 5 4 6 11 9 16 6 14 -9 31 32 24 59 -4 17
0 28 15 38 12 8 34 39 50 68 l29 53 -36 25 c-48 33 -139 42 -149 15 -9 -24
-25 -34 -45 -27 -10 3 -18 0 -18 -6 0 -7 9 -14 20 -17 11 -3 20 -12 20 -19 0
-8 7 -14 15 -14 25 0 17 -17 -11 -24 -20 -5 -30 -2 -40 13 -21 29 -45 17 -30
-15 12 -28 52 -42 69 -25 13 13 37 15 37 2 0 -20 -33 -41 -64 -41 -41 0 -94
18 -125 41 l-23 19 28 10 c16 6 35 13 43 15 10 4 11 8 2 19 -10 11 -8 16 10
21 28 9 55 39 75 83 11 25 20 32 42 32 20 0 23 3 12 9 -8 6 -17 8 -21 5 -4 -2
-10 0 -13 5 -3 5 7 11 22 14 15 3 36 12 47 20 18 14 12 15 -60 22 -44 4 -89 9
-100 13 -11 3 -26 5 -34 3 -24 -4 -81 9 -81 19 0 13 43 13 56 0 6 -6 15 -6 24
0 12 8 11 10 -6 10 -34 0 -39 29 -6 35 74 15 77 18 77 65 0 35 4 45 18 48 10
2 27 -4 36 -12 10 -9 47 -21 81 -27 35 -5 67 -12 71 -14 4 -3 9 2 12 10 5 11
18 13 58 8 42 -5 53 -3 61 10 11 21 28 22 28 3 0 -11 20 -26 34 -26 2 0 3 16
3 35 0 43 -19 46 -58 9 l-28 -27 -36 32 c-20 17 -33 31 -30 31 3 0 1 9 -5 20
-7 14 -21 20 -45 20 -32 0 -47 11 -51 36 -1 6 -5 25 -9 42 -7 33 12 52 50 49
28 -3 31 33 5 61 -17 18 -25 21 -36 11 -11 -9 -14 -9 -14 0 0 7 -5 9 -10 6
-14 -8 -30 38 -30 85 0 24 -5 40 -15 44 -8 3 -15 12 -15 19 0 8 -7 28 -16 45
-8 18 -13 36 -10 41 4 5 -4 18 -17 28 -28 21 -48 57 -45 75 2 7 -16 18 -40 26
-23 8 -39 18 -36 23 3 5 3 9 -1 9 -3 0 -8 -6 -10 -12z"/>
<path d="M2486 6773 c41 -72 42 -73 59 -137 16 -59 12 -75 -19 -76 -6 0 -2 -6
7 -12 9 -7 20 -28 23 -47 l7 -35 -36 23 c-41 25 -77 21 -77 -8 0 -23 40 -41
90 -41 21 0 42 -5 46 -11 11 -19 7 -68 -10 -103 -8 -18 -14 -58 -14 -97 0 -36
-3 -75 -6 -85 -11 -35 -61 -55 -149 -61 -129 -7 -132 -7 -139 -18 -13 -17 -9
-22 45 -56 28 -18 54 -34 56 -35 1 -2 5 -19 8 -39 3 -26 -2 -47 -21 -79 -21
-36 -24 -47 -14 -58 27 -28 18 -54 -46 -133 -35 -44 -62 -82 -59 -85 3 -3 37
29 76 71 49 52 78 75 90 72 9 -3 17 -8 17 -13 0 -4 8 -6 18 -3 12 3 31 -11 59
-41 23 -25 53 -48 67 -52 28 -7 34 -31 16 -65 -9 -16 -7 -19 10 -19 11 0 20 3
20 8 0 4 9 13 20 19 17 11 21 9 36 -23 14 -29 15 -40 6 -55 -16 -25 -5 -29 52
-18 57 10 139 48 178 81 24 21 39 63 40 118 1 8 14 30 29 48 16 18 29 42 29
52 0 11 9 29 20 40 11 11 20 25 20 31 0 17 32 38 57 39 23 0 83 76 76 96 -6
19 16 64 31 64 22 0 28 17 16 40 -6 12 -21 20 -35 20 -14 0 -25 3 -26 8 0 4
-2 18 -3 30 -2 13 3 26 11 29 7 3 13 11 13 18 0 13 54 37 95 42 11 1 31 4 45
6 14 2 31 -1 38 -6 8 -6 12 -5 12 4 0 8 3 23 6 35 5 18 1 21 -31 19 -47 -1
-68 21 -28 31 29 6 83 58 83 78 0 6 -5 4 -10 -4 -12 -19 -31 -2 -46 43 -12 36
-34 45 -57 23 -9 -9 -24 -13 -38 -10 -51 13 -74 11 -87 -8 -16 -22 -38 -23
-59 -2 -11 11 -19 12 -26 5 -17 -17 -27 -13 -27 9 0 14 9 21 35 26 25 4 35 12
35 25 0 27 -17 33 -100 40 -73 5 -74 6 -43 18 29 11 63 60 63 90 0 6 4 11 10
11 5 0 9 -10 7 -22 -1 -17 4 -23 21 -24 15 -1 22 4 22 17 0 10 5 21 10 24 18
11 11 23 -21 39 -32 16 -49 14 -49 -7 0 -22 -38 -39 -60 -27 -18 10 -20 7 -20
-30 0 -58 -18 -47 -45 25 -46 124 -57 145 -79 150 -30 6 -280 25 -333 25 l-45
0 28 -47z"/>
<path d="M2050 6262 c0 -12 -4 -22 -9 -22 -5 0 -11 -9 -14 -19 -3 -14 -1 -18
9 -14 10 3 12 0 8 -10 -3 -9 -12 -18 -20 -21 -8 -3 -14 -13 -14 -22 0 -50 -24
-92 -62 -113 l-40 -21 6 24 c3 13 8 31 12 39 3 10 -9 21 -40 37 -25 12 -46 26
-46 31 0 5 -5 9 -11 9 -5 0 -7 -4 -4 -10 3 -5 0 -10 -8 -10 -38 0 -35 -73 3
-112 17 -16 27 -34 24 -40 -4 -5 4 -23 16 -40 l22 -29 -21 -6 c-23 -6 -28 -29
-8 -36 9 -3 7 -9 -5 -24 -24 -26 -23 -33 7 -33 18 0 29 -8 37 -26 l12 -26 10
24 c8 21 10 18 17 -25 4 -27 13 -55 19 -63 16 -19 49 -18 72 2 22 20 25 13 32
-66 7 -81 9 -82 15 -5 7 77 -2 72 88 60 54 -7 65 10 27 41 -28 23 -28 24 -10
39 27 21 46 19 46 -5 0 -11 5 -20 10 -20 16 0 12 57 -5 74 -8 8 -15 22 -15 30
0 9 -13 49 -30 91 -16 42 -30 89 -30 107 0 17 -9 45 -19 62 -11 17 -29 58 -41
91 -26 69 -40 89 -40 57z"/>
<path d="M4931 5856 c-29 -47 -56 -88 -61 -91 -5 -3 -15 16 -24 42 -18 52 -56
117 -56 94 0 -11 -4 -11 -18 2 -23 21 -56 23 -49 3 3 -7 15 -45 26 -83 12 -39
32 -86 45 -105 l23 -35 -24 -47 c-31 -62 -41 -137 -20 -154 17 -14 20 -9 32
58 6 35 6 35 -9 10 -27 -45 -17 2 14 68 27 58 107 182 117 182 5 0 5 -1 -42
-78 -21 -34 -36 -65 -33 -68 3 -3 22 18 43 46 20 27 39 50 41 50 6 0 0 -11
-46 -80 -48 -71 -72 -119 -68 -132 2 -6 32 32 65 85 91 141 134 231 101 211
-8 -5 -9 -2 -5 10 15 39 18 65 10 81 -8 13 -20 -1 -62 -69z"/>
<path d="M4145 5892 c-36 -22 -76 -67 -140 -156 -25 -36 -53 -66 -61 -66 -8 0
-20 11 -26 25 -14 31 4 72 36 78 17 3 15 5 -6 6 -30 1 -58 -30 -58 -64 0 -12
11 -32 25 -45 l24 -23 -30 -44 c-17 -24 -34 -41 -38 -39 -4 3 -16 23 -26 46
-12 26 -25 40 -37 40 -21 0 -24 -13 -5 -29 8 -6 22 -29 33 -52 l18 -42 -29
-23 c-47 -38 -60 -28 -58 40 3 73 -17 63 -24 -11 -4 -36 -1 -52 11 -62 18 -16
61 -8 95 18 23 18 24 17 72 -15 89 -60 194 -64 237 -9 11 14 25 25 31 25 18 0
81 61 106 105 19 31 24 50 19 73 -10 49 -42 47 -97 -6 -53 -51 -78 -102 -75
-154 3 -41 2 -43 -36 -56 -34 -11 -47 -10 -94 4 -55 18 -112 56 -112 76 0 6
16 31 36 54 30 38 41 44 72 44 48 0 148 48 189 91 62 65 86 157 49 181 -18 12
-31 9 -18 -4 35 -35 -25 -152 -106 -206 -53 -36 -142 -58 -126 -31 43 69 133
185 167 214 43 37 32 47 -18 17z"/>
<path d="M3601 5783 c-44 -45 -111 -175 -111 -217 0 -20 3 -36 6 -36 13 0 105
84 135 123 l32 42 -49 -47 c-80 -77 -82 -60 -8 70 24 42 44 80 44 85 0 15 -23
6 -49 -20z"/>
<path d="M4585 5672 c-17 -10 -45 -35 -62 -56 -58 -65 -55 -118 6 -124 37 -4
81 21 131 74 29 30 24 28 -30 -15 -71 -57 -112 -65 -118 -24 -3 19 7 27 61 51
72 33 102 65 86 94 -12 23 -36 23 -74 0z"/>
<path d="M3075 5610 c-9 -15 -110 -89 -175 -128 -84 -51 -125 -70 -245 -113
-60 -22 -119 -44 -130 -49 -11 -5 -31 -14 -45 -19 -50 -18 -68 -78 -75 -256
-9 -236 -31 -296 -161 -443 -33 -36 -68 -77 -79 -91 -11 -14 -25 -30 -31 -36
-21 -18 -74 -98 -74 -112 0 -7 10 -13 22 -13 24 0 148 66 148 79 0 5 11 12 24
15 14 3 34 20 46 36 12 17 27 30 35 30 16 0 185 164 185 179 0 6 5 11 10 11
10 0 37 26 90 87 14 16 46 53 72 81 26 29 57 70 69 92 13 22 26 40 31 40 4 0
8 7 8 15 0 9 7 18 15 21 17 7 58 75 74 127 7 20 17 37 22 37 5 0 9 7 9 16 0
13 52 124 97 209 41 76 69 142 66 152 -2 6 1 14 6 18 6 3 11 10 11 16 0 12
-17 12 -25 -1z"/>
</g>
</svg>
