<?xml version="1.0" standalone="no"?>
<!DOCTYPE svg PUBLIC "-//W3C//DTD SVG 20010904//EN"
 "http://www.w3.org/TR/2001/REC-SVG-20010904/DTD/svg10.dtd">
<svg version="1.0" xmlns="http://www.w3.org/2000/svg"
 width="720.000000pt" height="1280.000000pt" viewBox="0 0 720.000000 1280.000000"
 preserveAspectRatio="xMidYMid meet">
<metadata>
Created by potrace 1.16, written by Peter Selinger 2001-2019
</metadata>
<g transform="translate(0.000000,1280.000000) scale(0.100000,-0.100000)"
fill="#000000" stroke="none">
<path d="M0 6400 l0 -6400 3600 0 3600 0 0 3488 0 3487 -70 73 c-61 65 -68 76
-57 93 12 20 25 22 90 19 l37 -2 0 366 c0 232 -4 367 -10 371 -5 3 -10 31 -10
61 l0 54 -50 0 c-41 0 -56 -5 -76 -25 -14 -14 -33 -25 -44 -25 -10 0 -21 -4
-24 -9 -7 -11 17 -21 50 -21 14 0 23 -4 20 -9 -3 -5 8 -23 26 -40 23 -23 37
-29 55 -25 32 9 30 -13 -9 -93 -43 -85 -70 -103 -163 -103 -62 0 -80 5 -150
40 -44 22 -85 40 -92 40 -6 0 -27 18 -46 41 -35 41 -67 141 -67 210 0 16 -4
29 -8 29 -13 0 -44 79 -38 95 3 9 -3 43 -14 78 -23 72 -24 97 -9 184 10 57 15
67 45 86 19 12 34 29 34 38 0 17 52 69 88 88 11 6 48 11 81 11 65 0 77 10 36
28 -37 17 -32 51 15 97 22 21 40 45 40 52 0 7 12 19 26 25 14 7 34 29 45 50
13 26 26 38 42 39 21 0 21 1 2 9 -13 6 20 9 93 9 l112 1 0 1945 0 1945 -3600
0 -3600 0 0 -6400z m6796 3680 c151 -69 198 -267 95 -405 -25 -34 -27 -41 -14
-50 14 -10 14 -14 -1 -37 -26 -40 -88 -50 -140 -23 -24 13 -38 13 -90 3 -107
-20 -145 -17 -172 17 -21 27 -21 30 -6 41 16 11 15 14 -5 36 -56 60 -79 178
-51 269 23 77 102 146 195 169 50 12 138 3 189 -20z m-653 4 c29 -10 64 -34
92 -62 124 -125 89 -333 -68 -412 -134 -67 -310 -20 -371 98 -46 89 -41 199
13 284 41 65 129 108 221 108 36 0 87 -7 113 -16z m-5834 -111 c15 -56 71
-300 71 -307 0 -3 -16 -6 -35 -6 -30 0 -35 3 -35 24 0 34 -23 49 -64 42 -27
-5 -35 -12 -40 -36 -5 -26 -10 -30 -40 -30 l-34 0 14 58 c7 31 25 110 40 175
l28 117 42 0 c41 0 44 -2 53 -37z m403 -55 l3 -93 25 37 c20 31 31 38 58 38
17 0 32 -3 32 -6 0 -4 -16 -28 -35 -53 -30 -41 -33 -50 -21 -67 7 -10 25 -40
40 -66 l27 -48 -35 0 c-30 0 -38 5 -57 40 -26 45 -39 43 -39 -6 0 -31 -2 -34
-30 -34 l-30 0 0 175 0 175 30 0 29 0 3 -92z m1738 -83 l0 -176 -42 1 c-24 1
-55 -1 -69 -5 -19 -5 -33 -1 -55 18 -28 24 -29 29 -29 106 1 69 4 85 22 102
22 22 54 28 91 15 21 -7 22 -5 22 53 l0 61 30 0 30 0 0 -175z m452 83 l3 -92
25 37 c20 30 31 37 58 37 30 0 42 -12 24 -24 -5 -3 -21 -23 -36 -44 l-27 -40
40 -66 41 -66 -35 0 c-30 0 -39 6 -62 43 l-28 42 -3 -42 c-3 -42 -4 -43 -38
-43 l-34 0 0 175 0 175 35 0 34 0 3 -92z m728 27 l0 -66 30 16 c33 17 60 13
85 -11 11 -12 15 -40 15 -120 l0 -104 -30 0 -30 0 0 90 c0 75 -3 92 -16 97
-37 14 -49 -10 -52 -101 l-3 -86 -29 0 -30 0 0 175 0 175 30 0 30 0 0 -65z
m530 4 c0 -58 1 -60 23 -53 76 26 107 -8 107 -118 0 -71 -2 -81 -26 -105 -20
-20 -31 -24 -52 -18 -15 4 -46 6 -69 5 l-43 -1 0 176 0 175 30 0 30 0 0 -61z
m-1480 -9 c0 -38 2 -40 30 -40 25 0 30 -4 30 -25 0 -21 -5 -25 -30 -25 l-31 0
3 -67 c3 -66 4 -68 31 -71 21 -3 27 -8 23 -19 -3 -8 -6 -19 -6 -24 0 -16 -73
-10 -92 8 -14 13 -18 31 -18 90 0 66 -2 75 -20 80 -13 3 -20 14 -20 29 0 17 6
24 20 24 17 0 20 7 20 40 0 38 2 40 30 40 28 0 30 -2 30 -40z m-2096 -61 c24
-23 34 -121 17 -172 -15 -44 -59 -66 -97 -48 -14 6 -27 11 -29 11 -3 0 -5 -30
-5 -66 l0 -65 -27 3 -28 3 -3 179 -2 179 37 -5 c21 -3 47 -2 58 3 26 10 55 2
79 -22z m405 20 c17 -6 36 -19 41 -29 6 -10 10 -62 10 -115 l0 -97 -32 3 c-18
1 -48 -1 -66 -5 -50 -12 -82 13 -82 64 0 44 20 64 83 81 28 7 37 15 35 27 -5
26 -48 28 -55 3 -4 -14 -13 -21 -29 -21 -65 0 -15 96 52 99 6 1 25 -4 43 -10z
m290 0 c38 -14 51 -35 51 -88 l0 -41 -61 0 c-60 0 -60 0 -57 -27 3 -32 44 -46
54 -19 4 10 18 16 35 16 35 0 39 -25 10 -61 -27 -34 -99 -34 -135 0 -23 22
-26 32 -26 96 0 79 20 120 63 128 12 2 25 5 28 6 3 0 20 -4 38 -10z m198 0
c32 -12 43 -26 43 -56 0 -31 -45 -33 -53 -2 -7 24 -40 23 -45 -2 -2 -10 9 -21
30 -29 75 -30 98 -83 59 -131 -40 -50 -151 -22 -151 38 0 18 5 23 26 23 18 0
28 -6 31 -21 7 -26 48 -23 48 4 0 12 -16 26 -45 40 -89 43 -75 132 22 146 4 1
19 -4 35 -10z m197 -3 c31 -13 53 -55 38 -71 -14 -14 -50 -3 -55 16 -4 13 -12
20 -24 17 -29 -5 -21 -32 15 -50 73 -36 92 -81 53 -129 -15 -19 -29 -24 -66
-24 -37 0 -51 5 -66 24 -29 36 -25 61 10 61 21 0 30 -6 34 -21 7 -25 40 -22
45 3 2 12 -11 24 -43 39 -74 35 -85 107 -21 135 39 17 40 17 80 0z m205 3 c17
-6 36 -19 41 -29 6 -10 10 -62 10 -115 l0 -97 -32 3 c-18 1 -48 -1 -66 -5 -50
-12 -82 13 -82 64 0 44 20 64 83 81 28 7 37 15 35 27 -5 25 -45 27 -58 3 -14
-27 -60 -29 -60 -3 0 36 46 79 86 81 6 1 25 -4 43 -10z m318 -21 c17 -16 23
-33 23 -65 l0 -43 -61 0 c-60 0 -60 0 -57 -27 3 -32 44 -46 54 -19 8 20 64 22
64 2 0 -69 -102 -98 -158 -45 -19 17 -22 31 -22 98 0 68 3 80 23 98 12 11 29
23 37 26 25 10 73 -2 97 -25z m1001 -4 c18 -21 22 -36 22 -98 0 -65 -3 -75
-26 -97 -35 -33 -104 -34 -136 -2 -27 28 -37 127 -17 174 24 60 111 73 157 23z
m240 8 c8 -10 12 -52 12 -119 l0 -103 -30 0 -30 0 0 90 c0 75 -3 92 -17 97
-32 12 -53 -32 -53 -113 l0 -74 -30 0 -30 0 0 120 0 120 29 0 c16 0 31 -5 33
-11 2 -6 14 -5 33 5 33 17 63 13 83 -12z m529 -4 c17 -16 23 -33 23 -65 l0
-43 -61 0 c-60 0 -60 0 -57 -27 3 -32 44 -46 54 -19 4 10 18 16 35 16 22 0 29
-5 29 -20 0 -42 -64 -79 -115 -66 -52 13 -65 39 -65 124 0 69 3 81 23 99 12
11 29 23 37 26 25 10 73 -2 97 -25z m540 8 c7 -6 14 -56 17 -118 l6 -108 -35
0 -35 0 0 90 c0 72 -3 92 -15 96 -33 13 -45 -15 -45 -102 l0 -84 -35 0 -35 0
0 120 0 120 35 0 c19 0 35 -4 35 -9 0 -6 12 -3 28 4 28 15 58 12 79 -9z m218
-7 c17 -16 21 -36 23 -120 l4 -100 -44 1 c-23 1 -54 -1 -68 -5 -35 -9 -80 27
-80 64 0 39 19 60 70 75 33 10 46 19 48 35 4 28 -33 29 -50 1 -12 -19 -48 -27
-60 -14 -15 14 11 60 43 77 40 21 85 16 114 -14z m394 20 c36 -13 61 -53 61
-99 l0 -30 -59 0 c-65 0 -73 -5 -64 -38 6 -26 53 -32 53 -7 0 11 11 15 36 15
32 0 35 -2 29 -22 -4 -13 -18 -34 -33 -47 -21 -19 -33 -22 -65 -18 -59 8 -80
35 -85 107 -5 75 11 118 52 136 38 16 36 16 75 3z m204 -3 c15 -8 27 -11 27
-5 0 5 14 9 31 9 l30 0 -3 -155 c-3 -145 -4 -156 -26 -177 -17 -18 -34 -23
-73 -23 -43 0 -54 4 -75 29 -14 15 -24 36 -22 45 5 25 45 26 60 2 27 -43 78
-16 78 40 0 18 -3 20 -12 11 -7 -7 -29 -12 -49 -12 -55 0 -79 34 -79 114 0 85
8 106 44 122 39 17 36 17 69 0z m285 -22 c19 -22 22 -36 22 -120 l0 -95 -42 1
c-24 1 -55 -1 -70 -5 -21 -6 -32 -2 -52 18 -48 48 -29 99 44 121 33 10 46 19
48 35 4 28 -33 29 -50 1 -7 -11 -23 -20 -36 -20 -20 0 -23 4 -20 33 6 65 108
86 156 31z m-3048 -94 l0 -120 -35 0 -35 0 0 113 c0 63 3 117 7 120 3 4 19 7
35 7 l28 0 0 -120z m2280 63 c19 -90 25 -92 45 -14 18 69 20 71 51 71 l32 0
-24 -82 c-79 -281 -76 -273 -113 -276 -28 -3 -33 -1 -27 14 28 74 28 99 -3
207 -18 59 -34 113 -37 122 -5 12 2 15 28 15 34 0 35 -1 48 -57z m-1925 -1268
c0 -187 0 -434 0 -550 0 -115 1 -443 2 -727 2 -506 1 -518 -18 -518 -15 0 -19
-7 -19 -35 l0 -35 579 0 579 0 7 -82 c4 -46 5 -144 3 -219 -3 -120 -5 -140
-23 -159 -17 -19 -28 -21 -72 -18 l-51 5 -16 -64 c-9 -35 -14 -68 -11 -74 4
-5 35 -9 71 -9 107 0 165 42 215 154 21 47 25 105 39 454 0 8 24 12 85 12 l85
0 0 35 0 35 -586 0 -585 0 1 198 c1 108 1 360 1 560 l-1 362 -127 2 -128 2
128 3 127 4 0 504 0 505 1068 -2 1067 -3 0 -1065 0 -1065 -477 -3 -478 -2 0
-35 0 -35 78 0 77 -1 -36 -19 c-42 -22 -110 -96 -133 -144 -83 -174 -42 -378
88 -437 50 -23 140 -25 190 -4 l36 15 2 -607 3 -608 145 -5 145 -5 -153 -5
-153 -5 -17 49 c-9 26 -35 96 -57 155 l-40 106 -114 0 -114 0 -110 -302 -110
-303 -71 0 -70 0 26 28 c61 65 63 75 63 337 l0 240 -95 0 -95 0 -5 -219 c-4
-194 -7 -220 -22 -230 -23 -14 -50 2 -58 35 -6 23 -10 24 -98 27 -107 3 -111
0 -92 -79 9 -37 24 -64 55 -95 l42 -44 -145 0 -144 0 42 43 c79 78 85 101 85
347 l0 215 -95 0 -95 0 -5 -201 c-4 -180 -7 -204 -24 -223 -23 -25 -82 -28
-112 -7 -17 13 -19 31 -24 223 l-5 208 -97 3 -98 3 0 -204 c0 -248 9 -289 79
-359 l47 -47 -116 -3 c-63 -2 -175 -2 -247 0 l-133 3 0 90 0 89 63 0 c160 0
247 75 247 212 0 76 -17 116 -70 161 -49 41 -106 57 -210 57 l-70 0 0 426 c0
400 1 425 18 422 15 -3 17 -18 20 -126 l3 -122 39 0 39 0 3 123 3 122 53 3
c50 3 52 4 52 33 l0 29 -115 0 -114 0 -3 143 -3 142 -165 5 -165 6 168 2 167
2 0 150 0 150 153 0 152 0 -1 32 -1 33 -1039 5 -1039 5 -3 1005 c-2 553 0
1033 3 1068 l7 62 1061 -2 1062 -3 0 -340z m3345 325 c0 -5 -4 -10 -10 -10
-14 0 -12 -52 4 -72 7 -10 20 -18 29 -18 8 0 17 -7 21 -15 5 -13 9 -13 26 -3
18 11 23 10 35 -5 8 -11 21 -17 32 -14 53 15 73 17 73 7 0 -18 -64 -99 -78
-100 -7 0 -10 -5 -7 -11 4 -5 0 -18 -8 -27 -25 -29 -57 -100 -57 -127 0 -14
-5 -25 -11 -25 -12 0 -3 -59 11 -74 5 -5 -6 -17 -26 -26 -55 -29 -135 -93
-130 -106 3 -7 -6 -24 -20 -39 -13 -14 -31 -40 -40 -58 -9 -18 -28 -44 -42
-59 -16 -18 -21 -28 -12 -28 9 0 7 -7 -7 -22 -38 -42 -59 -108 -33 -108 5 0 7
8 3 18 -3 9 8 1 25 -18 17 -19 31 -39 32 -45 1 -10 77 -95 86 -95 8 0 -7 133
-18 163 -18 47 -1 42 31 -10 34 -56 71 -73 141 -68 47 3 80 -11 112 -49 17
-21 17 -20 18 20 0 22 -5 45 -12 52 -9 9 -9 12 4 12 9 0 32 -32 57 -83 46 -89
47 -119 10 -153 -18 -16 -20 -16 -42 4 -13 12 -36 22 -51 22 -16 0 -44 9 -62
20 l-33 21 8 -28 c12 -37 27 -71 51 -110 11 -18 15 -33 10 -33 -6 0 -10 -19
-10 -42 l-1 -43 -17 30 -17 30 -3 -65 c-3 -81 -10 -113 -22 -105 -6 3 -10 17
-10 30 0 23 -43 71 -112 126 -31 25 -148 89 -162 89 -3 0 -6 -13 -6 -29 0 -17
-4 -33 -10 -36 -5 -3 -10 -18 -10 -34 0 -26 -67 -111 -87 -111 -5 0 -15 -17
-22 -37 -8 -21 -22 -56 -32 -77 -27 -57 -31 -53 45 -59 43 -3 64 -25 75 -80 6
-30 41 -53 41 -27 0 28 30 40 98 40 78 0 87 -8 77 -64 -5 -27 -1 -34 30 -55
21 -14 34 -30 31 -38 -3 -7 -1 -13 3 -13 5 0 11 4 13 9 2 6 24 5 56 -1 l52
-11 45 49 c24 27 45 57 45 66 0 11 5 15 15 12 8 -4 15 -1 15 5 0 6 11 11 24
11 30 0 66 -56 66 -103 0 -24 3 -28 10 -17 9 13 14 7 11 -12 0 -5 7 -8 16 -8
25 -1 49 -21 57 -47 4 -12 16 -25 27 -28 12 -4 19 -15 19 -30 0 -13 6 -30 13
-37 10 -11 27 -41 55 -100 2 -5 -266 -8 -597 -8 -330 0 -602 3 -604 8 -3 4 -2
483 1 1065 l5 1057 328 0 c213 0 329 -4 329 -10z m607 -1280 c27 -12 31 -20
37 -64 3 -28 6 -67 6 -87 0 -39 -23 -103 -41 -114 -7 -5 -4 -14 9 -29 24 -26
45 -66 35 -66 -14 1 -52 35 -55 49 -4 19 -43 53 -84 74 -39 20 -92 80 -100
114 -10 39 17 107 45 111 12 2 32 9 45 16 29 15 63 14 103 -4z m-999 -927 c23
-3 42 -10 42 -15 0 -5 21 -8 48 -7 59 2 128 -23 124 -45 -2 -9 4 -16 12 -16 9
0 13 -6 10 -14 -4 -9 6 -20 25 -30 39 -21 40 -21 52 11 l10 27 26 -26 c22 -23
26 -37 30 -105 3 -56 1 -74 -6 -63 -8 11 -9 -5 -5 -57 4 -50 2 -73 -5 -73 -6
0 -11 -4 -11 -9 0 -5 8 -8 18 -7 13 1 18 -8 19 -34 2 -19 8 -68 15 -109 14
-80 24 -91 94 -91 19 0 34 -4 34 -9 0 -6 15 -12 33 -14 39 -5 -27 1 -104 9
l-56 6 -2 -50 -1 -50 47 -6 c27 -4 74 -7 106 -8 31 -1 57 -6 57 -10 0 -4 18
-8 39 -8 29 0 41 5 44 18 4 13 5 11 6 -5 1 -19 7 -23 35 -23 22 0 40 7 48 18
11 14 26 16 86 14 39 -2 72 -7 72 -12 0 -5 21 -12 46 -16 32 -5 42 -10 35 -17
-27 -27 -8 -43 60 -52 122 -15 149 -22 149 -39 0 -20 -30 -42 -38 -29 -4 6
-41 14 -82 18 -41 3 -91 11 -110 15 -41 11 -261 14 -340 5 -84 -9 -100 -14
-100 -29 0 -8 -9 -16 -20 -19 -11 -3 -20 -12 -20 -21 0 -9 -4 -16 -10 -16 -23
0 -10 -67 19 -99 25 -28 36 -33 61 -29 17 3 33 1 36 -4 3 -4 -14 -9 -38 -9
l-43 -1 35 -8 c19 -4 43 -11 54 -15 16 -7 17 -5 11 16 -9 26 -9 31 -7 67 2 27
22 30 22 2 0 -13 7 -20 19 -20 14 0 18 -5 14 -20 -3 -12 0 -20 6 -20 7 0 9 5
5 11 -6 10 11 28 27 29 3 0 11 -11 17 -25 12 -26 38 -36 29 -11 -5 12 2 14 31
12 26 -1 38 -7 40 -19 4 -18 32 -24 32 -7 0 5 7 7 15 4 8 -4 15 -15 15 -25 0
-14 6 -18 23 -16 13 1 21 -3 20 -10 -2 -7 11 -21 27 -33 28 -20 29 -20 39 -1
8 15 57 41 78 41 2 0 1 -12 -3 -27 -4 -20 -3 -24 4 -14 6 8 15 10 23 5 8 -5
23 -7 34 -5 15 2 17 0 8 -11 -16 -19 7 -50 28 -37 22 14 26 11 38 -22 13 -39
14 -106 2 -114 -10 -5 -35 28 -61 79 -8 15 -25 32 -37 37 -13 5 -23 13 -23 19
0 5 -7 10 -15 10 -8 0 -15 -5 -15 -11 0 -6 -9 -8 -22 -3 -23 6 -23 6 2 -20 13
-15 30 -24 37 -22 7 3 13 1 13 -5 0 -5 11 -7 26 -3 24 6 25 5 12 -15 -11 -19
-11 -23 5 -32 12 -7 16 -17 12 -30 -5 -14 -3 -17 9 -13 11 4 16 0 16 -15 0
-13 -5 -19 -14 -15 -8 3 -17 1 -21 -5 -3 -6 -11 -11 -16 -11 -6 0 -8 4 -4 9
10 18 -16 23 -34 7 -17 -16 -19 -15 -24 5 -3 11 -10 18 -15 15 -6 -3 -8 -15
-5 -26 4 -15 2 -19 -10 -14 -9 3 -14 11 -11 18 3 7 -2 19 -11 26 -12 10 -13
16 -4 26 15 18 -16 68 -37 60 -8 -3 -14 0 -14 5 0 7 -11 9 -25 7 -25 -5 -34 5
-15 17 6 3 10 12 10 18 0 7 -8 3 -18 -8 -17 -20 -17 -20 -50 12 -19 18 -29 33
-23 33 6 0 11 5 11 10 0 6 -11 3 -24 -7 l-24 -18 21 -7 22 -6 -22 -7 c-16 -5
-23 -15 -23 -32 0 -20 4 -23 20 -18 28 9 26 -14 -2 -24 -13 -5 -27 -6 -33 -3
-5 3 -7 1 -2 -3 4 -5 0 -16 -9 -26 -15 -17 -14 -18 10 -25 14 -3 26 -10 26
-15 0 -5 -7 -6 -15 -3 -8 4 -15 1 -15 -5 0 -6 6 -11 13 -12 6 0 1 -5 -13 -10
-39 -16 -68 5 -66 48 1 27 -3 35 -20 39 -12 3 -31 1 -41 -4 -12 -7 -25 -7 -34
-1 -22 14 -29 11 -29 -11 0 -11 -4 -20 -10 -20 -5 0 -10 -4 -10 -9 0 -14 37
-20 49 -8 19 19 23 0 6 -33 -14 -26 -21 -31 -41 -26 -15 4 -24 2 -24 -5 0 -6
-7 -9 -15 -5 -9 3 -15 0 -15 -10 0 -8 5 -12 10 -9 6 3 10 -1 10 -9 0 -8 -13
-23 -29 -32 -17 -10 -28 -21 -25 -26 3 -4 -4 -13 -16 -20 -26 -17 -25 -28 3
-29 13 -1 16 -3 7 -5 -11 -3 -16 -18 -17 -47 -2 -40 -2 -40 11 -17 7 14 19 24
26 22 7 -2 17 3 22 10 6 9 8 5 6 -12 -2 -17 -10 -26 -24 -28 -17 -2 -23 -12
-26 -38 -3 -25 -1 -33 9 -30 7 3 13 -2 13 -10 0 -9 -9 -18 -20 -21 -11 -3 -20
-9 -21 -14 -5 -38 8 -89 22 -89 5 0 9 6 9 14 0 8 7 22 16 30 8 9 12 20 9 26
-3 5 1 10 10 10 11 0 15 5 11 15 -3 9 0 15 9 15 8 0 15 5 15 11 0 5 -4 7 -10
4 -5 -3 -10 2 -10 12 0 10 -5 25 -10 33 -9 13 -11 13 -19 0 -6 -8 -13 -11 -17
-7 -11 11 27 35 48 29 10 -2 18 -12 18 -21 0 -10 3 -12 8 -5 4 6 14 14 22 17
11 4 10 6 -5 7 -18 1 -19 1 -2 11 19 11 41 3 32 -12 -10 -15 17 -10 36 7 10 9
15 22 12 29 -2 8 5 24 16 36 12 13 21 26 21 31 0 4 7 8 14 8 12 0 13 -6 5 -29
-7 -21 -15 -28 -26 -24 -11 4 -14 2 -11 -8 3 -8 13 -16 24 -18 10 -2 16 0 12
4 -11 11 10 45 28 45 9 0 14 6 11 13 -5 13 17 39 27 30 3 -3 9 3 13 13 3 10
11 22 17 26 6 4 4 9 -7 14 -30 11 -18 24 24 24 36 0 40 -2 29 -15 -11 -13 -15
-13 -21 -3 -7 10 -9 9 -9 -4 0 -21 35 -25 47 -5 13 20 12 37 -2 37 -8 0 -12
17 -11 54 0 44 4 56 18 59 10 3 21 1 24 -4 3 -5 -3 -9 -13 -9 -15 0 -18 -8
-18 -45 0 -39 3 -45 22 -45 12 0 23 -6 26 -12 5 -17 37 45 37 72 0 42 33 -8
34 -51 0 -22 2 -35 4 -29 2 5 14 7 28 4 18 -5 24 -2 24 10 0 15 6 17 50 21 8
0 21 4 27 8 17 11 29 -39 14 -57 -7 -8 -21 -12 -31 -9 -16 4 -23 -3 -35 -30
-8 -19 -21 -37 -30 -40 -21 -9 -19 -47 3 -47 24 -1 50 -22 45 -37 -3 -7 2 -13
11 -13 9 0 16 -4 16 -10 0 -5 -7 -10 -15 -10 -8 0 -15 5 -15 10 0 6 -7 10 -16
10 -13 0 -14 -3 -5 -13 12 -15 4 -30 -10 -21 -16 9 -10 54 7 54 8 0 13 4 10 9
-3 5 -15 7 -26 4 -11 -3 -20 0 -20 6 0 6 -12 11 -26 11 -18 0 -25 -5 -22 -17
2 -9 11 -17 21 -19 26 -4 33 -12 19 -26 -8 -8 -15 -8 -27 2 -20 17 -20 -4 1
-24 14 -15 13 -17 -8 -25 l-23 -8 23 -7 c24 -8 45 0 37 15 -9 14 25 23 38 10
6 -6 28 -11 48 -11 21 0 40 -6 42 -12 3 -8 6 -6 6 4 1 9 9 22 19 28 12 8 13
13 5 16 -18 8 -16 43 2 50 10 4 15 19 14 48 -1 34 -2 37 -8 16 l-7 -25 -8 23
c-10 30 2 121 14 102 4 -7 12 -10 18 -7 6 4 10 -74 11 -213 1 -141 -2 -220 -8
-220 -16 0 -61 53 -61 72 0 10 -7 18 -15 18 -9 0 -15 9 -15 23 -1 21 -2 20
-25 -8 -29 -35 -31 -45 -10 -45 8 0 15 -4 15 -10 0 -5 9 -10 20 -10 11 0 20
-5 20 -11 0 -6 -9 -8 -22 -4 -16 5 -20 4 -13 -3 6 -5 19 -12 30 -14 12 -2 19
-10 17 -21 -2 -9 2 -17 8 -17 5 0 10 -4 10 -9 0 -5 -11 -4 -25 2 -14 7 -25 17
-25 24 0 10 -24 11 -61 4 -3 0 -4 -14 -1 -29 2 -19 13 -32 34 -41 16 -7 33
-23 38 -35 5 -11 9 -15 9 -7 1 11 4 11 17 1 13 -11 16 -10 20 7 3 12 14 23 25
26 15 4 19 0 19 -24 0 -28 -1 -29 -54 -29 -30 0 -58 5 -61 10 -9 14 -25 12
-23 -2 2 -7 -3 -12 -11 -10 -7 1 -52 3 -100 4 -47 1 -74 3 -58 5 29 5 37 30
12 39 -8 4 -15 10 -15 15 0 5 7 9 15 9 8 0 15 6 15 14 0 8 4 17 9 20 5 4 7 -3
4 -14 -4 -16 0 -20 18 -21 13 -1 27 -1 32 0 4 0 7 -3 7 -9 0 -5 -4 -10 -10
-10 -5 0 -10 -7 -10 -15 0 -8 6 -15 14 -15 8 0 22 -3 31 -6 14 -6 16 0 13 39
-5 56 -23 80 -54 73 -13 -4 -26 -2 -29 4 -3 5 -1 10 5 10 6 0 8 5 5 11 -4 5
-12 8 -18 6 -7 -2 -23 8 -37 23 -17 18 -36 27 -60 27 l-35 2 40 -14 c22 -7 32
-13 23 -14 -21 -1 -23 -12 -5 -30 9 -10 9 -15 0 -18 -7 -2 -9 -11 -6 -19 3 -8
0 -14 -6 -14 -6 0 -11 -13 -11 -30 0 -33 -13 -38 -37 -15 -14 14 -13 18 6 34
26 23 32 92 6 71 -13 -11 -13 -15 -3 -21 9 -6 7 -9 -8 -9 -18 0 -22 6 -22 35
0 19 5 38 10 41 6 4 5 10 -3 15 -22 14 -28 11 -24 -13 4 -21 0 -23 -40 -24
-27 -1 -46 3 -49 11 -6 16 18 27 39 19 21 -9 19 10 -5 31 -11 10 -17 22 -14
26 3 5 -6 13 -20 19 -14 5 -26 14 -26 20 0 18 -18 11 -23 -10 -3 -11 -11 -20
-17 -20 -8 0 -9 7 -5 18 4 9 8 27 10 40 2 21 1 22 -16 6 -10 -9 -19 -26 -21
-38 -2 -13 -11 -22 -25 -24 -14 -2 -20 -8 -16 -18 3 -8 -1 -14 -8 -15 -8 0 -6
-3 4 -8 10 -4 18 -11 17 -16 -1 -6 9 -13 22 -16 14 -3 22 -12 20 -21 -1 -9 7
-18 18 -21 13 -3 18 -10 14 -21 -5 -12 0 -16 20 -16 18 0 24 -4 20 -15 -5 -11
1 -15 19 -15 22 0 26 -6 31 -45 6 -36 11 -45 27 -45 23 0 24 9 4 24 -9 7 -11
16 -6 24 7 11 12 12 29 1 11 -7 23 -21 25 -30 3 -10 15 -19 28 -22 13 -2 -40
-5 -117 -6 -101 -1 -149 3 -167 12 -25 13 -25 14 -6 30 10 9 19 24 19 32 0 8
5 15 10 15 6 0 10 -9 10 -20 0 -11 6 -20 14 -20 17 0 28 48 12 53 -6 2 -11 12
-11 23 0 21 -11 23 -70 13 -46 -8 -75 4 -75 31 0 19 -15 28 -22 13 -7 -17 -67
-52 -106 -62 -57 -16 -122 -20 -122 -9 0 6 -13 8 -28 6 l-28 -4 0 82 c0 63 3
81 13 77 7 -3 13 2 13 11 0 9 -4 16 -9 16 -16 0 -41 59 -29 66 7 5 8 2 3 -6
-5 -9 -4 -11 3 -6 20 12 13 36 -9 36 -11 0 -17 5 -14 10 4 6 11 8 16 5 5 -4 6
2 2 12 -4 13 2 11 23 -9 16 -15 45 -30 64 -33 l35 -6 -36 22 c-20 13 -46 38
-59 56 -21 31 -22 39 -17 165 3 73 9 167 13 208 6 74 6 75 -25 104 -17 17 -31
25 -31 18 0 -6 5 -14 10 -17 6 -3 10 -15 10 -26 0 -10 5 -19 11 -19 6 0 9 -6
6 -12 -2 -7 -9 -12 -15 -11 -7 2 -9 -5 -5 -15 4 -11 -4 -8 -24 11 -31 28 -34
41 -20 64 4 6 1 13 -5 16 -11 3 -11 9 0 26 8 14 9 21 1 21 -6 0 -9 6 -6 13 2
6 0 20 -5 29 -7 15 -12 16 -27 6 -15 -9 -23 -9 -35 1 -14 12 -16 10 -17 -10
-1 -16 -4 -10 -10 16 -7 27 -6 48 1 64 9 19 7 28 -7 45 -22 25 -46 45 -55 46
-10 0 -22 -42 -20 -72 2 -21 -1 -26 -13 -22 -12 5 -15 -2 -15 -31 0 -26 -3
-34 -12 -29 -10 6 -10 5 -1 -7 19 -24 -11 -63 -38 -49 -24 13 -25 45 -1 60 16
11 16 11 0 6 -21 -6 -24 14 -5 33 10 10 9 11 -5 6 -10 -4 -18 -12 -18 -19 -1
-6 -14 -27 -30 -46 -35 -40 -38 -60 -11 -77 20 -13 35 -53 19 -53 -6 0 -7 -7
-4 -16 7 -19 -16 -44 -42 -44 -16 0 -20 6 -17 27 3 31 -18 52 -52 53 -20 0
-23 -5 -23 -42 -1 -28 -8 -52 -21 -68 l-21 -25 -27 33 c-15 17 -31 29 -35 25
-4 -4 3 -15 16 -25 18 -14 20 -20 10 -26 -11 -8 -11 -15 1 -45 14 -33 14 -39
-5 -77 -15 -29 -26 -40 -38 -37 -13 3 -17 -4 -19 -41 -2 -41 -33 -122 -47
-122 -3 0 -5 15 -3 33 4 59 1 67 -27 67 l-25 0 30 37 c17 21 31 45 31 55 0 9
5 20 10 23 6 3 10 -1 10 -10 0 -9 5 -13 11 -10 6 4 8 13 5 20 -3 8 0 15 6 17
6 2 3 11 -7 22 -13 12 -21 14 -28 7 -18 -18 -37 -13 -30 7 5 15 4 15 -10 2 -9
-8 -19 -27 -22 -42 -5 -20 -3 -27 12 -31 16 -5 16 -6 -2 -5 -11 0 -26 0 -32
-1 -18 -2 -16 -50 2 -58 14 -5 14 -8 -1 -24 -9 -11 -24 -19 -33 -20 -25 -1
-76 -34 -76 -50 0 -8 14 -19 30 -24 34 -12 45 -35 16 -35 -10 0 -21 -7 -25
-15 -3 -8 -15 -15 -26 -15 -11 0 -20 -2 -20 -5 0 -9 96 -103 124 -121 21 -13
31 -15 34 -6 5 16 27 15 42 -3 7 -9 9 -22 4 -32 -4 -10 -9 -25 -9 -33 -1 -8
-3 -21 -4 -27 0 -7 -5 -13 -10 -13 -10 0 -20 23 -28 60 -5 30 -9 34 -23 25 -8
-5 -8 -10 0 -20 7 -8 10 -27 9 -42 -2 -15 2 -38 9 -50 15 -28 15 -33 -2 -33
-8 0 -16 -7 -20 -15 -3 -9 0 -15 9 -15 19 0 35 -32 28 -58 -5 -20 -12 -21
-154 -24 -118 -2 -150 0 -154 10 -8 20 -4 378 5 442 l7 55 14 -32 c8 -20 21
-33 31 -33 9 0 22 -9 28 -20 6 -11 19 -20 30 -20 23 0 53 39 41 54 -12 16 -20
66 -10 66 20 0 7 28 -16 34 -16 4 -22 11 -19 21 7 18 35 20 52 3 10 -10 17
-10 31 -1 28 17 34 4 8 -19 -22 -19 -22 -19 8 -2 41 24 39 22 40 47 2 35 16
77 26 77 5 0 9 4 9 9 0 5 -11 8 -25 6 -26 -2 -35 18 -12 29 6 4 2 4 -11 2 -14
-3 -28 4 -40 19 -14 17 -27 22 -51 20 -17 -1 -35 -6 -39 -9 -9 -10 18 -25 33
-19 9 3 13 -10 13 -42 1 -28 -3 -43 -9 -40 -5 4 -7 15 -4 26 5 15 1 19 -14 19
-12 0 -21 5 -21 12 0 7 -20 -9 -43 -36 l-44 -48 -1 30 c0 24 3 30 15 25 11 -4
14 -2 9 5 -4 7 -14 12 -22 12 -8 0 -14 10 -14 23 0 15 3 18 8 9 5 -7 16 -10
26 -6 15 6 15 8 -3 23 -17 15 -18 18 -4 36 12 15 14 16 10 3 -7 -20 8 -27 50
-21 29 5 31 7 23 29 -6 14 -6 24 -1 24 5 0 11 -4 13 -8 2 -5 15 -12 30 -16 23
-5 35 0 65 27 28 26 35 38 29 53 -7 16 -10 14 -23 -18 -15 -39 -33 -42 -33 -7
0 17 -3 18 -20 7 -11 -7 -23 -21 -26 -32 -3 -10 -9 -14 -13 -9 -3 5 -14 12
-23 16 -10 3 -18 15 -18 25 0 28 -8 31 -44 14 -24 -11 -32 -20 -29 -31 4 -12
3 -13 -6 -5 -8 7 -11 70 -9 220 l3 209 35 5 c30 4 35 9 32 28 -2 12 -14 34
-27 47 -20 22 -24 23 -29 9 -7 -19 -8 -17 22 -33 25 -13 29 -31 7 -31 -8 0
-15 6 -15 13 0 8 -3 7 -10 -3 -5 -8 -11 -12 -14 -9 -3 3 -7 84 -8 180 l-2 174
45 -1 c28 -1 47 4 52 13 7 11 12 12 23 2 8 -6 14 -17 14 -24 0 -13 43 -25 86
-25 21 0 24 -5 25 -37 2 -34 2 -35 6 -8 2 17 10 35 17 40 8 6 16 44 19 90 6
71 5 83 -13 104 -18 21 -26 23 -73 18 -36 -4 -45 -3 -29 3 12 5 22 14 22 20 0
5 18 10 40 10 62 0 73 -25 68 -160 -2 -60 0 -110 3 -110 8 0 19 79 19 132 0
24 4 37 10 33 6 -3 10 -31 10 -61 0 -30 5 -54 10 -54 6 0 10 6 10 13 0 6 6 3
12 -7 8 -14 8 -24 -1 -37 -6 -11 -11 -34 -11 -53 0 -34 2 -35 40 -26 3 0 -2 6
-11 13 -12 9 -14 18 -8 35 9 23 25 28 48 13 15 -10 38 0 78 33 17 15 23 30 23
62 0 24 5 46 10 49 6 4 8 26 4 55 -6 46 -4 51 25 77 109 97 119 108 108 115
-9 6 -9 12 0 27 18 28 -6 45 -49 35 -69 -16 -97 0 -77 45 12 28 18 31 54 30
22 -1 32 -3 22 -6 -26 -7 -14 -28 14 -25 42 4 74 5 89 1 8 -2 15 3 15 11 0 19
32 30 65 24 14 -3 44 -7 68 -11z m-1214 -158 c21 -20 26 -33 26 -75 l0 -50
148 -2 147 -2 -145 -6 -145 -5 -5 -63 c-4 -54 -9 -67 -33 -88 -53 -46 -144
-19 -173 52 -15 37 -21 147 -9 186 4 13 19 35 33 51 22 23 34 27 77 27 41 0
58 -5 79 -25z m-2796 -891 l-3 -465 -159 0 c-87 0 -161 3 -165 6 -6 7 -11 903
-5 920 3 6 66 9 169 7 l165 -3 -2 -465z m-1528 209 c0 -84 3 -110 16 -124 23
-26 11 -51 -23 -47 -16 1 -31 7 -35 13 -4 5 -8 67 -8 138 l0 127 25 0 25 0 0
-107z m192 22 c59 -12 77 -123 27 -166 -12 -10 -25 -20 -28 -20 -27 -6 -60 -5
-78 2 -31 12 -56 75 -47 119 4 19 8 39 8 43 1 12 57 34 76 31 8 -2 27 -5 42
-9z m149 -7 c7 -13 18 -43 24 -68 10 -36 14 -41 20 -25 34 95 42 110 65 113
21 4 22 1 17 -33 -3 -21 -18 -67 -32 -104 -24 -63 -28 -68 -55 -68 -25 0 -32
6 -42 34 -7 18 -16 33 -20 33 -4 0 -8 11 -8 24 0 13 -7 40 -15 59 -19 46 -19
45 8 50 12 2 23 5 24 6 1 0 8 -9 14 -21z m294 9 c28 -10 57 -61 50 -89 -5 -21
-11 -23 -65 -21 -61 1 -66 -1 -51 -26 7 -10 20 -12 50 -7 36 5 41 4 41 -12 0
-26 -44 -44 -87 -36 -42 8 -67 42 -68 98 -3 81 53 120 130 93z m-615 -404 l26
-62 20 62 c17 54 23 62 45 62 31 0 29 -22 -13 -125 -64 -159 -73 -171 -125
-162 -31 5 -30 38 1 46 32 8 48 52 31 86 -59 114 -69 163 -33 158 17 -2 29
-18 48 -65z m298 42 c23 -20 27 -31 27 -79 0 -66 -21 -94 -75 -100 -107 -13
-150 123 -61 191 26 19 80 13 109 -12z m116 19 c9 -3 13 -10 10 -16 -3 -5 -3
-38 1 -73 6 -60 8 -63 35 -67 l29 -4 3 80 c3 73 5 81 23 81 18 0 20 -8 23 -98
2 -84 0 -98 -14 -104 -10 -4 -22 0 -29 11 -7 9 -15 13 -16 7 -2 -5 -16 -13
-31 -16 -21 -5 -33 -1 -52 19 -23 22 -26 33 -26 99 0 87 5 96 44 81z m3794
-906 l8 -33 -93 -3 -93 -3 0 -34 0 -35 992 0 c787 0 994 -2 1001 -12 5 -7 6
-126 3 -273 -3 -143 -6 -463 -6 -712 0 -398 -2 -452 -15 -447 -8 4 -15 1 -15
-5 0 -6 6 -11 14 -11 8 0 18 -10 22 -22 9 -28 -5 -630 -15 -641 -4 -4 -482 -6
-1062 -5 l-1054 3 -3 498 -2 497 -155 0 -155 0 -2 -497 -3 -498 -335 -3 -335
-2 6 302 c8 453 25 737 64 1133 9 83 20 195 25 250 5 55 14 146 20 203 13 131
13 222 0 222 -5 0 -10 5 -10 10 0 6 102 10 285 10 l285 0 0 -560 0 -560 155 0
155 0 1 308 c0 169 0 409 -1 534 -1 150 2 228 9 233 6 3 11 15 11 26 0 16 7
19 56 19 l55 0 -3 33 c-2 24 -8 33 -25 35 -23 3 -29 24 -17 56 5 13 25 16 115
16 l108 0 9 -32z m-3095 -97 c9 -1 9 -404 0 -600 -4 -91 -9 -136 -14 -123 -12
31 -37 27 -68 -8 -22 -26 -36 -32 -85 -37 l-59 -6 7 239 c5 166 4 262 -4 314
-13 81 -33 130 -53 130 -7 0 -19 9 -27 20 -8 11 -20 20 -26 20 -11 0 -24 22
-24 41 0 10 240 17 353 10z m-1170 -8 c-31 -4 -33 -7 -33 -42 0 -32 -7 -45
-40 -75 -22 -20 -40 -40 -40 -46 0 -5 -6 -10 -13 -10 -8 0 -20 -11 -27 -25 -7
-14 -17 -25 -22 -25 -5 0 -16 -6 -24 -14 -7 -8 -22 -12 -33 -9 -16 4 -20 -1
-24 -29 -2 -18 -5 38 -5 125 l-2 157 148 -2 c81 0 132 -3 115 -5z m2597 -8
c15 -18 -12 -59 -72 -106 -25 -20 -52 -56 -70 -93 -25 -50 -29 -55 -23 -26 17
90 17 100 6 100 -6 0 -11 -6 -11 -14 0 -7 -7 -20 -17 -27 -9 -8 -24 -32 -34
-53 -19 -43 -18 -133 3 -259 16 -96 5 -117 -61 -117 -27 0 -53 -4 -56 -10 -4
-6 5 -10 19 -10 48 0 27 -18 -29 -25 -56 -7 -77 -25 -29 -25 20 0 24 -3 17
-12 -6 -7 -11 -30 -11 -51 -1 -21 -4 -42 -7 -47 -3 -5 -1 -27 5 -49 8 -30 15
-39 26 -34 9 3 28 -6 47 -24 28 -26 101 -63 126 -63 4 0 25 11 45 25 l36 24 0
-28 c0 -16 -6 -31 -12 -34 -10 -3 -10 -7 -1 -19 21 -25 -5 -68 -42 -68 -25 1
-27 2 -12 11 9 5 21 8 26 5 4 -3 13 6 19 19 13 28 -2 34 -17 8 -13 -22 -14 -8
-2 15 9 16 3 17 -62 9 -105 -11 -198 -35 -229 -57 -21 -15 -28 -17 -37 -6 -8
9 -2 16 24 29 18 9 39 26 45 37 11 20 10 21 -11 9 -13 -6 -31 -20 -42 -29 -10
-10 -46 -25 -80 -35 -34 -9 -69 -22 -77 -29 -8 -7 -37 -23 -63 -37 -29 -14
-53 -34 -59 -49 -16 -43 -48 -49 -48 -9 0 41 -139 13 -181 -37 -10 -12 -8 -13
11 -6 29 11 67 -6 74 -32 3 -12 10 -16 20 -13 17 7 23 -21 8 -38 -12 -13 -34
-118 -29 -136 2 -8 2 -11 0 -6 -3 4 -54 7 -114 7 l-109 0 -1 148 c-1 81 -1
151 0 156 1 5 2 258 1 562 l0 553 527 1 c289 0 529 2 531 5 9 9 19 5 32 -10z
m195 -5 c-12 -19 -35 -122 -35 -156 0 -19 9 -54 20 -76 11 -23 20 -43 20 -44
0 -1 -20 -5 -45 -8 -56 -9 -59 -21 -3 -21 47 0 64 -22 21 -27 -29 -3 -47 -38
-20 -38 8 0 17 -9 20 -19 4 -16 10 -18 33 -12 23 6 31 16 40 52 l11 44 11 -28
c9 -20 9 -52 1 -115 -5 -48 -10 -98 -10 -110 1 -13 -6 -33 -14 -45 -14 -20
-15 -17 -15 46 0 52 -3 67 -14 67 -20 0 -46 -39 -46 -68 0 -29 -15 -44 -60
-61 -81 -30 -120 -54 -115 -70 3 -10 -4 -20 -20 -28 -24 -10 -25 -9 -25 18 0
18 -5 29 -14 29 -46 0 -106 129 -113 245 -5 75 -3 84 27 146 36 76 129 178
177 195 17 7 53 9 78 6 l47 -5 -6 41 c-5 42 0 50 37 51 10 1 15 -3 12 -9z
m-2235 -29 c156 -6 142 -3 156 -41 7 -20 13 -85 13 -156 l1 -121 -81 -11 c-45
-7 -85 -9 -90 -6 -10 6 -12 -18 -11 -170 1 -54 3 -101 6 -104 3 -2 14 6 25 19
18 23 20 23 38 6 11 -9 31 -17 44 -17 34 0 74 -29 60 -43 -6 -6 -11 -18 -11
-26 0 -22 -40 -61 -63 -61 -10 0 -21 9 -24 20 -3 11 -12 20 -19 20 -8 0 -14 5
-14 10 0 6 -6 10 -14 10 -8 0 -17 8 -19 18 -3 9 -5 3 -6 -14 0 -17 -8 -37 -16
-44 -8 -7 -15 -18 -15 -25 0 -22 -38 -48 -63 -41 -26 6 -71 -19 -62 -35 4 -5
-3 -10 -14 -10 -12 -1 -26 -2 -33 -3 -15 -1 -23 -26 -9 -26 6 0 11 -4 11 -10
0 -5 -7 -7 -15 -4 -20 8 -20 -20 0 -39 10 -10 11 -17 4 -19 -7 -2 0 -17 15
-35 30 -36 33 -48 9 -39 -12 4 -8 -3 8 -18 54 -48 55 -72 6 -89 -11 -4 -21
-17 -24 -28 -5 -19 -11 -20 -53 -16 -58 6 -68 11 -172 89 -157 118 -214 194
-263 350 -15 49 -16 64 -5 110 16 69 33 100 75 144 19 20 35 41 35 48 0 33
137 65 155 36 3 -5 19 -10 35 -10 15 0 31 -6 33 -12 3 -7 6 0 6 16 1 24 3 26
15 16 8 -6 13 -17 10 -25 -3 -7 7 -22 22 -34 17 -13 25 -27 22 -39 -4 -15 2
-19 37 -21 23 -1 53 2 66 7 34 14 139 119 139 140 0 30 -52 71 -136 107 -113
49 -113 63 10 170 25 22 53 35 83 40 25 4 47 13 50 22 3 8 8 10 12 5 3 -6 17
-11 31 -11z m615 -1054 c-1 -78 -6 -141 -11 -140 -5 1 -18 11 -30 22 -12 11
-36 23 -55 26 -18 3 -41 13 -50 21 -8 7 -21 14 -27 14 -7 0 -12 7 -12 15 0 8
5 15 10 15 6 0 10 5 10 10 0 6 -9 10 -20 10 -14 0 -18 -5 -13 -17 8 -19 -9
-11 -44 21 -23 21 -31 70 -13 81 5 3 7 12 3 20 -3 8 0 15 7 15 6 0 8 -4 5 -10
-7 -11 8 -13 67 -10 28 1 38 -3 42 -18 4 -11 16 -22 26 -25 16 -4 23 3 35 41
l14 47 -3 -52 c-3 -46 -2 -51 13 -42 12 8 15 23 13 65 -2 30 -1 62 3 72 6 14
9 13 19 -11 8 -18 12 -78 11 -170z m1825 153 c0 -20 -5 -30 -15 -30 -8 0 -15
-3 -16 -7 -5 -57 -12 -89 -20 -100 -6 -7 -8 -17 -4 -23 13 -21 -5 -9 -54 37
-59 54 -84 64 -75 27 5 -18 2 -24 -10 -24 -9 0 -16 -4 -16 -10 0 -5 -9 -10
-20 -10 -17 0 -20 7 -20 40 0 36 2 40 26 40 14 0 23 4 20 9 -7 11 52 33 65 25
5 -3 9 0 9 5 0 6 9 11 20 11 11 0 20 5 20 11 0 6 9 9 20 6 11 -3 18 -1 15 3
-3 5 7 11 22 13 16 2 29 5 31 6 1 0 2 -12 2 -29z m-2835 -232 c29 -8 45 -18
45 -28 0 -25 32 -45 75 -47 42 -3 75 -30 75 -63 0 -10 6 -23 14 -29 8 -7 17
-27 20 -45 3 -18 20 -46 37 -62 53 -51 61 -80 56 -206 -2 -62 -6 -122 -8 -133
-7 -37 -33 -54 -85 -57 -55 -3 -48 -7 -184 105 -39 31 -74 57 -78 57 -12 0
-87 71 -84 81 1 5 -3 8 -10 7 -9 -2 -11 14 -8 62 3 36 4 86 2 113 -8 200 -7
214 12 236 22 24 55 26 121 9z"/>
<path d="M6613 9773 c-20 -4 -23 -11 -23 -51 l0 -47 85 0 85 0 0 46 c0 40 -3
48 -22 53 -25 6 -90 6 -125 -1z"/>
<path d="M2840 5955 l0 -155 130 0 130 0 0 30 0 30 -85 0 c-82 0 -85 1 -91 25
-4 14 -4 28 -1 31 2 3 37 8 76 11 70 6 71 6 71 34 0 28 0 28 -72 31 -70 3 -73
4 -73 28 0 25 2 25 88 28 l87 3 0 29 0 30 -130 0 -130 0 0 -155z"/>
<path d="M3150 5425 l0 -155 40 0 40 0 0 70 c0 39 4 70 8 70 4 0 36 -31 71
-70 59 -66 65 -70 105 -70 23 0 45 3 48 6 4 3 -18 30 -49 59 l-55 54 36 32
c58 51 46 108 -31 148 -12 6 -65 11 -117 11 l-96 0 0 -155z"/>
<path d="M3520 5425 l0 -156 43 3 42 3 0 150 0 150 -42 3 -43 3 0 -156z"/>
<path d="M5860 6554 c0 -9 -18 -35 -41 -57 -22 -22 -47 -53 -54 -67 -10 -20
-29 -32 -69 -44 -31 -10 -67 -27 -82 -38 l-26 -21 3 -131 c3 -140 -6 -216 -26
-216 -23 0 -46 -36 -40 -63 6 -22 3 -25 -28 -31 -47 -9 -61 -28 -53 -71 4 -19
11 -37 15 -40 9 -5 38 37 69 97 7 14 27 32 43 38 16 7 29 16 29 21 0 5 9 9 20
9 22 0 29 -39 8 -41 -7 0 18 -9 55 -19 38 -10 77 -26 87 -35 11 -10 33 -16 57
-15 21 1 45 1 53 1 15 -1 40 -44 40 -68 0 -20 38 -16 43 5 4 15 5 15 6 0 0 -9
-9 -24 -21 -34 -23 -16 -22 -16 15 -11 21 3 49 1 62 -5 29 -13 75 -3 75 17 0
8 6 15 13 15 9 0 19 25 27 71 13 70 14 71 31 48 17 -23 17 -22 24 46 4 39 7
105 8 148 0 42 4 77 9 77 4 0 -6 36 -22 81 -17 44 -30 92 -30 107 0 34 -36
131 -57 155 -9 9 -24 17 -33 17 -9 0 -21 5 -28 12 -21 21 -22 2 -1 -38 12 -21
27 -50 34 -64 29 -54 28 -74 -5 -92 -33 -19 -39 -48 -15 -68 8 -7 15 -9 15 -5
0 3 12 -8 27 -25 24 -29 26 -35 14 -64 -7 -17 -22 -58 -34 -91 -28 -76 -37
-85 -84 -85 -99 1 -293 106 -293 160 0 8 -9 22 -20 30 -11 8 -20 21 -20 30 0
15 42 40 67 40 7 0 13 8 13 19 0 34 63 131 86 131 7 0 34 21 61 46 26 25 58
53 71 61 30 21 28 30 -10 53 -41 25 -88 27 -88 4z"/>
<path d="M5524 5653 c-40 -38 -80 -93 -68 -93 4 0 0 -8 -9 -18 -10 -10 -14
-22 -11 -25 4 -4 -1 -9 -10 -13 -17 -6 -23 -64 -7 -64 5 0 16 -3 25 -6 11 -4
18 6 27 37 7 23 20 44 29 46 10 3 24 28 34 63 18 60 37 85 64 85 8 0 17 6 19
13 3 8 -6 12 -24 12 -19 0 -42 -12 -69 -37z"/>
<path d="M5167 5663 c-4 -3 -7 -15 -7 -25 0 -11 -7 -18 -20 -18 -10 0 -24 -10
-31 -21 -14 -27 -18 -150 -4 -146 6 1 9 17 7 35 -4 34 -1 36 36 26 14 -4 21
-12 18 -20 -3 -8 0 -11 10 -7 7 3 14 9 14 14 0 5 5 9 11 9 5 0 7 -4 4 -10 -3
-5 2 -10 13 -10 13 0 23 12 32 40 7 22 17 40 22 40 4 0 8 7 8 15 0 8 -4 15
-10 15 -5 0 -10 5 -10 10 0 6 6 10 14 10 17 0 40 26 29 33 -12 8 -73 -20 -73
-33 0 -6 -7 -18 -15 -26 -8 -8 -12 -20 -9 -27 5 -15 -53 -20 -75 -6 -13 8 -10
9 12 6 23 -4 27 -1 22 14 -4 13 -1 19 9 19 12 0 14 7 9 33 -7 38 -8 39 -16 30z"/>
<path d="M556 3860 c-62 -35 -136 -114 -136 -145 0 -54 38 -97 65 -75 7 6 20
8 29 4 20 -8 20 5 1 30 -21 28 -19 51 8 79 36 38 100 76 83 49 -2 -4 1 -15 8
-24 10 -14 12 -7 8 40 -2 31 -7 60 -11 63 -3 3 -28 -7 -55 -21z"/>
</g>
</svg>
