<?xml version="1.0" standalone="no"?>
<!DOCTYPE svg PUBLIC "-//W3C//DTD SVG 20010904//EN"
 "http://www.w3.org/TR/2001/REC-SVG-20010904/DTD/svg10.dtd">
<svg version="1.0" xmlns="http://www.w3.org/2000/svg"
 width="720.000000pt" height="1280.000000pt" viewBox="0 0 720.000000 1280.000000"
 preserveAspectRatio="xMidYMid meet">
<metadata>
Created by potrace 1.16, written by Peter Selinger 2001-2019
</metadata>
<g transform="translate(0.000000,1280.000000) scale(0.100000,-0.100000)"
fill="#000000" stroke="none">
<path d="M0 6400 l0 -6400 3600 0 3600 0 0 1917 0 1916 -237 -9 c-348 -13
-2509 -3 -3163 15 -162 5 -349 6 -415 3 -138 -5 -156 2 -130 52 8 16 15 30 15
32 0 9 -140 3 -165 -6 -23 -9 -26 -15 -23 -48 l3 -37 -335 -3 c-316 -2 -485 6
-571 29 -34 9 -76 45 -98 87 -12 23 -64 52 -93 52 -10 0 -18 5 -18 10 0 6 -11
10 -24 10 -19 0 -44 26 -34 35 18 15 73 35 84 31 8 -3 12 -2 9 3 -3 5 3 12 14
16 17 5 18 10 9 48 -9 40 -5 237 8 409 l6 78 69 0 69 0 0 -240 0 -240 38 0
c68 0 113 24 60 32 -21 3 -23 9 -29 93 -4 64 -2 93 6 100 6 6 17 20 24 33 7
12 16 20 22 17 5 -4 9 -3 9 2 1 27 17 33 46 18 16 -8 43 -15 60 -15 42 0 44
11 44 300 0 181 -3 240 -12 244 -7 3 30 4 83 2 76 -3 96 -1 96 10 0 11 -17 14
-67 14 -105 0 -229 -13 -200 -20 43 -11 -182 -19 -701 -24 -403 -4 -499 -3
-515 8 -10 7 -35 16 -54 19 -19 3 -46 8 -59 13 -16 5 -22 4 -18 -3 4 -6 -26
-2 -66 8 -39 11 -103 21 -142 24 -38 2 -59 2 -45 -1 69 -13 72 -15 67 -34 -3
-10 0 -21 7 -24 6 -3 -7 -5 -29 -4 -22 0 -208 -3 -412 -8 l-373 -7 0 105 0
105 48 6 c71 9 867 -2 894 -12 13 -5 48 -12 78 -16 51 -6 54 -6 35 9 -19 15
-19 15 10 15 17 0 46 -3 66 -8 31 -7 36 -6 34 8 -1 12 -14 16 -58 16 -31 1
-59 4 -63 8 -8 8 -9 20 -19 403 -4 154 -4 295 0 312 6 31 9 32 58 34 l52 1
-45 4 c-49 5 -80 23 -40 23 23 1 24 2 8 14 -25 19 -22 26 10 26 l27 1 -30 13
c-19 8 -25 15 -17 20 17 10 15 26 -3 26 -13 0 -15 13 -13 73 l3 72 70 7 c120
13 115 18 116 -125 1 -67 3 -299 5 -514 4 -350 3 -393 -11 -393 -8 0 -15 -4
-15 -10 0 -5 16 -10 35 -10 26 0 33 3 29 15 -5 11 1 15 20 15 14 0 26 5 26 10
0 6 -6 10 -14 10 -29 0 -39 67 -34 238 4 156 6 166 27 183 12 10 20 23 16 28
-3 6 18 11 52 14 l58 3 -62 2 c-41 1 -63 -2 -66 -10 -3 -8 -6 -6 -6 5 -1 9 -6
17 -12 17 -6 0 -9 7 -6 15 4 8 2 17 -3 20 -6 4 -10 51 -10 105 0 84 3 101 17
109 11 6 13 11 5 11 -27 0 -33 51 -22 165 15 152 17 161 46 174 30 13 163 14
184 1 13 -8 15 -66 15 -419 0 -225 3 -412 6 -415 4 -4 8 149 11 340 4 284 7
347 19 355 16 10 64 12 108 3 l31 -6 0 -493 0 -492 39 -7 c47 -7 133 3 125 15
-3 5 4 9 15 9 27 0 26 9 -5 51 l-25 34 3 510 4 510 100 3 c54 1 105 -2 112 -6
15 -10 19 -149 21 -728 l1 -391 115 3 c63 2 146 4 183 4 l67 0 -3 122 c-2 135
-8 172 -22 163 -6 -3 -10 -1 -10 4 0 6 -7 11 -15 11 -8 0 -15 -6 -15 -12 0 -9
-4 -8 -10 2 -9 13 -10 13 -11 0 -1 -8 -5 1 -9 20 l-7 35 -11 -25 -11 -25 -2
25 c-2 20 -7 189 -10 375 0 17 3 54 6 83 8 56 7 56 87 55 20 0 38 5 40 11 2 6
1 115 -2 241 l-5 230 -346 -4 c-306 -3 -350 -2 -379 13 -18 9 -39 16 -45 16
-7 0 -18 7 -25 15 -20 24 -39 18 -37 -12 l2 -28 -480 0 c-264 0 -618 1 -786 3
l-307 3 -7 163 c-4 91 -4 528 0 973 4 444 7 871 6 948 -2 155 6 255 20 255 5
0 9 -8 9 -17 1 -17 1 -17 11 0 6 11 9 51 7 94 -2 41 -2 70 0 64 2 -7 9 -5 18
3 9 9 14 36 14 71 0 35 4 54 10 50 5 -3 10 -1 10 4 0 6 6 11 14 11 10 0 14 15
15 55 l0 55 -42 2 c-208 9 1170 15 3866 17 l3217 1 0 1775 0 1775 -3600 0
-3600 0 0 -6400z m6786 3682 c159 -63 211 -265 105 -407 -25 -34 -27 -41 -14
-50 24 -18 0 -52 -48 -67 -33 -9 -47 -9 -72 2 -36 16 -116 15 -165 -1 -47 -15
-97 -4 -117 27 -13 20 -14 28 -4 40 10 12 8 19 -9 37 -37 39 -62 108 -62 171
0 78 16 128 58 176 79 93 205 120 328 72z m-643 2 c52 -18 116 -76 142 -130
60 -126 7 -282 -117 -344 -139 -69 -312 -20 -376 106 -42 84 -38 184 12 267
25 41 43 58 94 84 54 28 75 33 131 33 37 0 88 -7 114 -16z m-5806 -224 c52
-224 51 -200 11 -200 -31 0 -36 4 -41 30 -6 27 -11 30 -42 30 -19 0 -38 0 -42
1 -4 0 -11 -14 -16 -30 -7 -27 -12 -31 -41 -31 l-34 0 14 58 c7 31 26 110 41
175 l27 118 44 -3 45 -3 34 -145z m373 58 l1 -93 30 38 c23 27 39 37 60 37 16
0 29 -3 29 -6 0 -4 -16 -28 -35 -54 l-34 -47 28 -45 c56 -89 56 -88 17 -88
-30 0 -38 5 -57 40 -26 45 -39 43 -39 -6 0 -31 -2 -34 -30 -34 l-30 0 0 175 0
175 30 0 30 0 0 -92z m1740 -83 l0 -176 -42 1 c-24 1 -54 -1 -68 -5 -43 -11
-77 25 -85 88 -7 58 7 128 30 147 17 14 51 17 83 6 21 -7 22 -5 22 53 l0 61
30 0 30 0 0 -175z m452 83 l3 -92 25 37 c20 30 31 37 58 37 30 0 42 -12 24
-24 -5 -3 -21 -23 -36 -44 l-27 -40 40 -66 41 -66 -35 0 c-30 0 -39 6 -62 43
l-28 42 -3 -42 c-3 -42 -4 -43 -38 -43 l-34 0 0 168 c0 93 3 172 7 175 3 4 19
7 34 7 l28 0 3 -92z m728 27 l0 -66 30 16 c33 17 60 13 85 -11 11 -12 15 -40
15 -120 l0 -104 -30 0 -29 0 -3 92 c-3 83 -5 93 -22 96 -33 7 -46 -25 -46
-110 l0 -78 -30 0 -30 0 0 175 0 175 30 0 30 0 0 -65z m530 4 c0 -58 1 -60 23
-53 76 26 107 -8 107 -118 0 -71 -2 -81 -26 -105 -20 -20 -31 -24 -52 -18 -15
4 -46 6 -69 5 l-43 -1 0 176 0 175 30 0 30 0 0 -61z m-1480 -9 c0 -38 2 -40
30 -40 25 0 30 -4 30 -25 0 -21 -5 -25 -30 -25 l-31 0 3 -67 c3 -66 4 -68 31
-71 21 -3 27 -8 23 -19 -3 -8 -6 -19 -6 -24 0 -16 -73 -10 -92 8 -14 13 -18
31 -18 90 0 66 -2 75 -20 80 -13 3 -20 14 -20 29 0 17 6 24 20 24 17 0 20 7
20 40 0 38 2 40 30 40 28 0 30 -2 30 -40z m-2096 -61 c24 -23 34 -121 17 -172
-15 -44 -59 -66 -97 -48 -14 6 -27 11 -29 11 -3 0 -5 -30 -5 -66 l0 -65 -27 3
-28 3 -3 179 -2 179 37 -5 c21 -3 47 -2 58 3 26 10 55 2 79 -22z m402 21 c8 0
23 -9 34 -20 17 -17 20 -33 20 -121 l0 -101 -32 3 c-18 1 -48 -1 -66 -5 -50
-12 -82 13 -82 64 0 44 20 64 83 81 28 7 37 15 35 27 -5 26 -48 28 -55 3 -6
-25 -51 -29 -60 -5 -13 34 56 90 95 78 8 -2 20 -4 28 -4z m290 0 c39 -15 53
-39 54 -87 l0 -43 -61 0 c-60 0 -60 0 -57 -27 3 -32 44 -46 54 -19 4 10 18 16
35 16 35 0 39 -25 10 -61 -27 -34 -99 -34 -135 0 -23 22 -26 32 -26 96 0 79
20 120 63 128 12 2 25 5 29 6 4 0 19 -4 34 -9z m201 -1 c32 -12 43 -26 43 -56
0 -31 -45 -33 -53 -3 -7 26 -47 27 -47 1 0 -12 12 -23 33 -31 74 -30 97 -83
58 -131 -40 -50 -151 -22 -151 38 0 31 42 32 62 1 9 -14 20 -19 31 -15 31 12
18 37 -28 57 -75 32 -87 107 -22 135 39 17 39 17 74 4z m197 -3 c31 -13 53
-55 38 -71 -14 -14 -50 -3 -55 16 -4 13 -12 20 -24 17 -29 -5 -21 -32 15 -50
73 -36 92 -81 53 -129 -15 -19 -29 -24 -66 -24 -37 0 -51 5 -66 24 -29 36 -25
61 10 61 21 0 30 -6 34 -21 7 -25 40 -22 45 3 2 12 -11 24 -43 39 -74 35 -85
107 -21 135 39 17 40 17 80 0z m205 3 c17 -6 36 -19 41 -29 6 -10 10 -62 10
-115 l0 -97 -32 3 c-18 1 -48 -1 -66 -5 -50 -12 -82 13 -82 64 0 44 20 64 83
81 28 7 37 15 35 27 -5 25 -45 27 -58 3 -11 -22 -44 -28 -55 -10 -13 21 5 57
37 72 40 20 46 20 87 6z m319 -22 c16 -15 22 -32 22 -64 l0 -43 -61 0 c-60 0
-60 0 -57 -27 3 -32 44 -46 54 -19 9 23 64 21 64 -2 0 -69 -107 -94 -163 -37
-23 23 -24 151 -1 183 32 46 97 50 142 9z m1000 -3 c18 -21 22 -36 22 -98 0
-58 -4 -76 -20 -94 -43 -45 -130 -36 -157 18 -16 32 -17 121 -1 156 26 56 112
66 156 18z m240 8 c8 -10 12 -52 12 -119 l0 -103 -30 0 -30 0 0 90 c0 99 -12
119 -50 85 -17 -15 -20 -31 -20 -97 l0 -78 -30 0 -30 0 0 120 0 120 29 0 c16
0 31 -5 33 -11 2 -6 14 -5 33 5 33 17 63 13 83 -12z m530 -8 c15 -17 22 -38
22 -65 l0 -39 -61 0 c-60 0 -60 0 -57 -27 3 -32 44 -46 54 -19 4 10 18 16 35
16 35 0 40 -29 9 -60 -27 -27 -63 -34 -105 -20 -46 15 -55 34 -55 123 0 64 3
76 23 94 12 11 29 23 37 26 28 11 75 -3 98 -29z m539 12 c7 -6 13 -53 15 -116
l3 -105 -32 -3 -33 -3 0 91 c0 72 -3 92 -15 96 -33 13 -45 -15 -45 -102 l0
-84 -35 0 -35 0 0 120 0 120 35 0 c19 0 35 -4 35 -9 0 -6 12 -3 28 4 28 15 58
12 79 -9z m221 -12 c19 -22 22 -36 22 -120 l0 -95 -42 1 c-24 1 -54 -1 -68 -5
-35 -9 -80 27 -80 64 0 39 19 60 70 75 33 10 46 19 48 35 4 28 -31 29 -51 0
-22 -30 -63 -23 -59 11 10 70 109 91 160 34z m391 25 c36 -13 61 -53 61 -99
l0 -30 -59 0 c-65 0 -73 -5 -64 -38 6 -26 53 -32 53 -7 0 11 11 15 36 15 32 0
35 -2 29 -22 -13 -43 -42 -63 -90 -63 -64 0 -87 27 -93 105 -5 75 11 118 52
136 38 16 36 16 75 3z m204 -3 c15 -8 27 -11 27 -5 0 5 14 9 30 9 l30 0 0
-149 c0 -134 -2 -151 -20 -174 -41 -52 -147 -44 -170 13 -7 16 -9 34 -5 39 10
18 44 12 57 -9 26 -41 78 -15 78 40 0 17 -3 19 -19 10 -36 -19 -78 -12 -100
16 -16 21 -21 41 -21 90 0 72 13 107 44 122 29 14 37 14 69 -2z m285 -22 c19
-22 22 -36 22 -120 l0 -95 -42 1 c-24 1 -54 -1 -68 -5 -34 -9 -80 27 -80 61 0
42 17 62 70 79 37 12 50 22 50 36 0 26 -36 25 -50 -1 -11 -20 -54 -28 -64 -12
-10 16 29 76 54 84 40 11 83 0 108 -28z m-3048 -94 l0 -120 -35 0 -35 0 0 113
c0 63 3 117 7 120 3 4 19 7 35 7 l28 0 0 -120z m2280 63 c19 -91 25 -93 45
-14 17 70 18 71 50 71 l33 0 -24 -82 c-79 -281 -76 -273 -113 -276 -28 -3 -33
-1 -27 14 29 76 29 101 -4 209 -17 59 -34 113 -37 121 -4 10 4 14 29 14 34 0
35 -1 48 -57z m-4629 -4078 c2 -77 2 -237 -1 -355 -5 -214 -5 -214 -28 -214
-12 0 -35 14 -52 33 -17 18 -37 31 -44 28 -25 -10 -34 435 -12 573 3 14 5 37
5 53 1 27 1 27 65 25 l64 -3 3 -140z m1432 -947 c4 -10 7 -10 15 0 6 9 29 12
72 10 58 -3 64 -5 70 -28 3 -14 4 -53 2 -87 l-4 -63 -123 0 -122 0 -5 45 c-7
56 4 111 21 107 21 -4 52 9 46 19 -4 5 0 9 9 9 8 0 17 -6 19 -12z m375 -161
l2 -168 -102 3 -102 3 1 139 c1 80 7 152 14 168 l12 29 86 -3 86 -3 3 -168z
m-226 -298 c-2 -75 -7 -151 -11 -169 l-6 -33 -128 -2 -127 -2 0 142 c0 78 3
157 6 174 l7 32 131 -3 131 -3 -3 -136z m216 -63 c2 -10 1 -48 -3 -83 l-7 -65
-88 5 c-49 3 -93 8 -99 12 -6 3 -11 37 -11 75 0 81 -3 79 120 77 75 -2 85 -4
88 -21z m4464 -674 c22 -22 29 -190 34 -861 4 -566 3 -696 -8 -702 -18 -12
-385 -11 -392 0 -23 37 -7 586 19 686 15 56 15 64 -1 111 -29 85 -15 105 101
149 18 7 18 9 3 12 -10 3 -18 8 -18 13 0 5 -6 7 -14 4 -7 -3 -27 9 -45 26 -36
36 -40 71 -15 136 14 38 15 49 1 106 -13 57 -12 69 1 102 12 32 13 49 4 101
-17 90 -16 102 16 119 21 12 56 15 165 12 80 -2 143 -8 149 -14z m-5172 -77
c0 -35 -4 -45 -16 -45 -12 0 -11 -5 7 -19 55 -45 42 -46 -636 -49 l-635 -3 0
81 0 80 640 0 640 0 0 -45z m834 -112 c12 -52 15 -497 4 -510 -13 -17 -138
-16 -193 1 -33 9 -42 18 -52 47 -17 52 -33 281 -26 366 8 99 22 111 133 116
47 1 95 4 107 5 16 1 23 -5 27 -25z m-819 -313 c0 -69 4 -137 9 -151 5 -17 4
-29 -3 -33 -7 -4 -7 -14 -1 -29 20 -47 27 -203 23 -462 -4 -231 -7 -272 -21
-282 -14 -12 -14 -13 0 -13 9 0 18 -7 22 -15 3 -8 1 -15 -5 -15 -6 0 -9 -15
-7 -32 l3 -33 -657 -3 -658 -2 0 39 c0 22 4 42 8 45 14 9 420 7 542 -2 79 -6
165 -5 275 4 88 7 183 14 210 14 l50 0 2 342 c2 259 6 345 15 354 11 10 92 25
146 27 8 0 12 20 10 71 -1 42 -3 55 -5 33 l-4 -38 -77 3 -77 3 3 134 c1 74 4
136 6 138 2 2 38 5 80 6 55 1 76 6 76 15 0 8 8 12 18 10 15 -3 17 -17 17 -128z
m-416 -320 c-1 -96 -2 -100 -23 -100 -12 0 -32 9 -45 21 -20 19 -22 27 -16 88
4 36 10 69 14 73 3 3 20 8 36 11 17 2 31 5 33 6 2 0 2 -44 1 -99z m656 -128
c11 -55 6 -224 -6 -239 -15 -17 -44 -17 -59 2 -7 8 -21 15 -32 15 -28 0 -45
51 -51 157 -5 75 -3 96 9 108 13 13 18 13 39 -1 22 -14 25 -14 41 5 16 19 20
19 35 5 9 -8 20 -32 24 -52z m3586 -64 c1 -57 2 -114 2 -128 1 -24 -2 -25 -57
-23 -91 3 -115 39 -48 70 52 25 54 55 8 99 -20 19 -36 39 -36 44 0 15 59 39
98 40 l32 0 1 -102z m-2991 -139 c5 -9 10 -105 10 -215 l2 -199 -124 -3 c-68
-2 -138 0 -156 3 l-32 6 4 178 c3 136 8 186 20 209 18 35 26 37 169 37 80 0
100 -3 107 -16z m2990 -231 c1 -2 3 -37 6 -78 3 -41 7 -81 9 -87 3 -10 -15
-13 -68 -13 l-72 0 -3 56 c-2 30 3 71 10 90 12 33 14 34 65 34 29 0 53 -1 53
-2z"/>
<path d="M6613 9773 c-20 -4 -23 -11 -23 -51 l0 -47 85 0 85 0 0 46 c0 40 -3
48 -22 53 -25 6 -90 6 -125 -1z"/>
<path d="M3211 6578 c-42 -130 -82 -282 -78 -297 5 -21 20 15 62 153 19 59 36
110 38 113 3 2 10 -24 16 -58 23 -135 68 -145 142 -33 23 35 45 64 48 64 4 0
4 -24 0 -52 -12 -81 -10 -196 2 -204 22 -13 27 14 30 160 3 112 1 150 -8 153
-16 6 -53 -34 -105 -110 -22 -32 -45 -56 -51 -54 -21 6 -36 69 -36 150 -1 69
-3 77 -20 77 -15 0 -24 -15 -40 -62z"/>
<path d="M4080 6385 l0 -95 34 0 c77 0 113 38 82 85 -9 13 -16 38 -16 54 0 35
-22 51 -69 51 l-31 0 0 -95z"/>
<path d="M4232 6388 c2 -75 6 -93 18 -93 10 0 16 12 18 38 3 35 5 37 38 37 33
0 34 -1 34 -41 0 -33 3 -40 18 -37 15 3 17 15 17 93 0 77 -2 90 -17 93 -15 3
-18 -4 -18 -32 0 -34 -2 -36 -35 -36 -33 0 -35 2 -35 35 0 29 -4 35 -20 35
-20 0 -21 -5 -18 -92z"/>
<path d="M4732 6388 c3 -79 6 -93 21 -96 14 -3 17 4 17 37 0 40 1 41 35 41 34
0 35 -1 35 -40 0 -29 4 -40 15 -40 15 0 18 21 18 135 -1 38 -5 51 -17 53 -12
3 -16 -5 -16 -32 0 -34 -2 -36 -35 -36 -33 0 -35 2 -35 35 0 29 -4 35 -20 35
-20 0 -21 -5 -18 -92z"/>
<path d="M3546 6391 c-37 -25 -49 -46 -41 -72 10 -30 44 -38 137 -34 l83 4 8
37 c12 60 25 69 54 38 20 -22 31 -25 70 -22 43 3 48 1 53 -21 3 -14 11 -26 18
-29 8 -2 12 13 12 52 0 57 -11 71 -29 37 -12 -21 -53 -35 -80 -26 -10 3 -23
17 -29 30 -12 25 -45 34 -57 15 -5 -8 -11 -8 -19 -1 -19 16 -26 3 -26 -45 l0
-43 -53 -6 c-81 -10 -101 -5 -105 28 -3 24 0 27 26 27 26 0 62 25 62 43 0 14
-56 6 -84 -12z"/>
<path d="M3400 6097 l-35 -72 -64 -9 c-38 -5 -59 -11 -51 -16 9 -6 11 -23 6
-64 -7 -53 -6 -56 19 -68 32 -15 49 0 97 87 33 59 35 60 83 66 l50 6 -42 1
c-48 2 -51 10 -28 65 16 39 20 77 8 77 -5 0 -24 -33 -43 -73z"/>
</g>
</svg>
