<?xml version="1.0" standalone="no"?>
<!DOCTYPE svg PUBLIC "-//W3C//DTD SVG 20010904//EN"
 "http://www.w3.org/TR/2001/REC-SVG-20010904/DTD/svg10.dtd">
<svg version="1.0" xmlns="http://www.w3.org/2000/svg"
 width="720.000000pt" height="1280.000000pt" viewBox="0 0 720.000000 1280.000000"
 preserveAspectRatio="xMidYMid meet">
<metadata>
Created by potrace 1.16, written by Peter Selinger 2001-2019
</metadata>
<g transform="translate(0.000000,1280.000000) scale(0.100000,-0.100000)"
fill="#000000" stroke="none">
<path d="M0 6400 l0 -6400 3600 0 3600 0 0 1030 0 1030 -50 0 -50 0 0 169 c0
111 -4 171 -11 173 -7 2 -13 112 -20 318 -9 333 -18 459 -36 501 -13 31 -47
41 -203 60 -60 7 -111 19 -119 27 -10 10 -36 13 -90 12 -136 -4 -169 -1 -186
16 -9 9 -25 14 -35 11 -13 -3 -18 -1 -13 5 12 20 -105 0 -127 -22 -11 -11 -38
-23 -60 -26 -26 -4 -41 -13 -45 -25 -4 -11 -16 -19 -29 -19 -12 0 -35 -14 -51
-30 -33 -34 -50 -37 -77 -13 -10 9 -28 21 -40 27 -11 6 -24 18 -28 26 -4 8
-12 25 -18 37 -7 13 -12 33 -12 45 0 13 -6 34 -13 47 -13 26 -17 27 -217 32
-36 0 -71 6 -78 11 -6 6 -49 12 -95 15 -134 6 -160 10 -192 27 -16 9 -41 16
-55 16 -23 0 -22 2 12 25 43 29 60 30 118 10 23 -8 54 -15 68 -15 22 0 76 37
133 90 24 23 198 180 244 221 22 19 60 50 84 69 24 18 51 47 61 63 19 31 19
27 -1 457 -10 220 -10 229 15 389 34 213 34 255 1 285 -25 23 -138 66 -175 66
-16 0 -24 16 -45 88 -65 217 -138 420 -185 512 -27 53 -107 143 -160 181 -65
46 -65 45 -42 74 26 33 62 127 62 161 0 42 16 18 30 -44 10 -50 10 -63 -4 -97
-9 -21 -14 -40 -11 -43 8 -8 43 80 51 124 8 56 -19 185 -55 259 -17 33 -28 61
-26 64 9 8 69 -66 87 -109 15 -33 19 -61 16 -107 -4 -68 8 -71 23 -7 31 136
-118 338 -261 352 -50 5 -52 6 -45 31 17 65 17 170 0 227 -49 169 -153 275
-319 326 -56 17 -85 20 -165 15 -112 -6 -180 -25 -242 -67 -24 -16 -54 -30
-65 -30 -38 0 -158 -68 -206 -116 -85 -83 -113 -167 -86 -255 15 -53 24 -49
20 10 -3 36 2 59 18 87 12 22 18 30 14 19 -4 -11 -9 -43 -11 -71 -6 -61 13
-105 56 -130 24 -14 31 -26 34 -58 1 -23 4 -1 5 48 0 48 4 91 7 94 4 4 19 -1
35 -10 24 -14 28 -14 23 -2 -3 8 -19 18 -35 21 -23 5 -27 9 -22 27 10 35 43
99 64 126 l20 25 -6 -51 c-9 -73 16 -149 67 -208 48 -54 87 -80 75 -50 -16 40
-25 131 -19 182 7 63 16 58 31 -18 6 -30 13 -63 17 -72 5 -13 2 -15 -17 -11
-21 6 -22 5 -9 -10 7 -9 19 -17 25 -17 6 0 43 -31 81 -70 38 -38 74 -70 79
-70 5 0 2 8 -6 18 -8 9 -18 24 -22 32 -5 8 4 0 19 -18 15 -18 41 -40 57 -48
29 -15 31 -15 23 2 -18 47 -14 45 14 -6 34 -64 49 -147 31 -180 -8 -15 -9 -25
-2 -32 14 -14 36 23 57 92 23 77 27 82 74 109 55 30 87 19 97 -33 13 -70 -67
-163 -162 -188 -24 -7 -44 -16 -44 -21 0 -9 29 -5 64 9 12 5 16 -1 16 -24 0
-27 9 -36 78 -80 105 -67 122 -85 122 -123 0 -42 -60 -98 -155 -145 -118 -57
-256 -65 -345 -19 -55 28 -111 112 -127 188 -5 25 -3 27 30 27 36 0 50 -14
124 -126 24 -36 1 17 -29 68 l-27 48 69 41 c39 23 70 43 70 45 0 2 -19 -5 -42
-15 -59 -25 -167 -51 -212 -51 -30 0 -45 7 -69 33 -21 22 -27 25 -18 9 6 -12
30 -34 51 -47 22 -14 40 -31 40 -39 0 -31 45 -112 85 -152 58 -57 130 -79 231
-70 90 7 153 30 242 90 80 53 104 90 92 143 -5 19 -10 36 -12 37 -1 2 -29 17
-60 35 -32 18 -58 34 -58 36 0 5 41 -10 67 -24 10 -5 42 -21 70 -35 29 -14 68
-41 88 -60 22 -23 48 -37 72 -41 63 -11 71 -18 30 -25 -161 -30 -278 -407
-264 -849 4 -146 2 -186 -11 -234 -10 -34 -24 -59 -34 -63 -17 -5 -45 -67 -57
-125 -5 -27 -16 -38 -58 -58 -68 -34 -91 -57 -105 -103 l-11 -38 -61 0 c-122
0 -230 39 -319 112 -62 52 -70 67 -51 102 8 16 14 42 14 60 l0 31 21 -32 c39
-61 30 -33 -20 60 -27 50 -61 121 -76 156 -36 88 -65 243 -65 352 0 50 -4 88
-9 85 -5 -3 -24 23 -42 58 -48 92 -47 74 1 -25 38 -79 40 -88 40 -177 l0 -94
-19 23 c-38 46 -32 10 12 -72 62 -118 81 -178 73 -222 -4 -21 -12 -37 -18 -37
-7 0 0 -12 15 -27 28 -30 57 -91 57 -121 0 -11 -11 -40 -25 -66 -30 -57 -30
-62 -5 -117 27 -60 25 -86 -10 -138 -31 -45 -33 -53 -45 -126 l-7 -40 -19 24
c-10 13 -19 29 -19 36 0 7 -9 24 -21 39 -46 59 -176 19 -198 -62 -14 -47 -14
-62 -1 -62 6 0 10 -8 10 -17 0 -13 -7 -10 -30 12 -19 18 -30 39 -30 56 0 36
-11 64 -19 50 -10 -15 -70 17 -93 50 -39 53 -40 105 -4 214 3 11 -3 0 -15 -24
-41 -86 -20 -190 47 -232 41 -25 41 -27 -54 -132 -38 -44 -84 -107 -102 -143
-30 -58 -32 -66 -20 -94 7 -17 21 -37 32 -44 19 -14 19 -16 -6 -107 -15 -53
-26 -122 -27 -159 0 -46 -3 -59 -9 -45 -11 26 -10 79 -15 -781 l-4 -722 32 -8
c28 -6 23 -8 -38 -14 -99 -10 -318 -11 -333 -2 -9 6 -10 16 -1 40 22 65 -25
199 -124 346 -32 49 -70 118 -83 153 l-25 65 24 24 c13 13 33 54 45 91 96 317
99 324 192 478 50 83 101 173 114 200 13 28 52 109 86 180 57 119 63 137 68
213 4 61 0 99 -13 149 -16 59 -26 75 -94 146 -42 43 -106 102 -143 129 -38 28
-68 54 -67 57 0 10 72 128 112 184 40 56 56 105 57 168 0 24 12 57 35 95 41
69 44 109 13 183 l-21 52 21 62 c12 34 22 72 22 84 0 12 -21 62 -46 110 l-47
88 -29 225 c-32 256 -71 468 -94 511 -47 92 -164 172 -354 244 -69 26 -126 48
-128 49 -1 2 8 29 19 62 18 47 22 83 23 176 1 79 5 121 14 129 6 7 12 21 12
31 0 10 11 36 25 57 14 21 29 58 34 82 8 43 8 44 15 14 4 -16 9 -34 11 -40 1
-5 6 2 10 18 12 44 -4 112 -35 159 -33 49 -36 58 -16 58 8 0 24 9 37 20 l24
19 -28 1 c-29 0 -91 28 -140 62 l-28 20 20 22 c12 12 21 25 21 29 0 4 -21 7
-47 7 -27 1 -92 13 -146 29 l-98 27 23 29 c21 27 21 28 3 20 -11 -5 -76 -12
-145 -16 -123 -6 -171 -17 -219 -48 -24 -15 -24 -15 -19 12 3 18 1 27 -7 27
-19 0 -64 -57 -71 -88 -3 -15 -7 -32 -9 -38 -2 -6 -18 -14 -36 -18 -45 -9
-100 -48 -123 -88 l-19 -32 35 22 c51 32 55 27 15 -17 -64 -71 -104 -225 -77
-305 6 -20 16 -36 21 -36 6 0 7 5 4 11 -4 6 -3 27 1 47 7 35 8 34 14 -29 6
-66 6 -66 110 -243 14 -24 38 -58 53 -76 15 -18 26 -37 25 -41 -2 -5 -60 -36
-130 -68 -182 -85 -368 -185 -437 -236 -73 -53 -143 -138 -182 -221 -33 -69
-60 -194 -84 -399 -9 -76 -23 -159 -32 -183 -8 -24 -18 -65 -23 -91 -4 -25
-18 -92 -31 -148 -20 -93 -25 -103 -45 -103 -49 0 -159 -123 -205 -229 -18
-39 -18 -52 -9 -125 15 -107 35 -201 55 -256 14 -38 16 -70 10 -206 -9 -206
-8 -208 113 -265 111 -52 173 -55 259 -9 31 17 61 30 67 30 6 0 24 -36 40 -80
15 -44 44 -106 63 -137 66 -110 75 -133 69 -175 -8 -48 11 -92 58 -137 34 -33
36 -39 36 -96 0 -38 6 -69 15 -82 8 -12 28 -73 44 -137 21 -82 49 -155 99
-258 39 -78 72 -156 75 -173 14 -80 47 -115 47 -50 0 31 3 35 26 35 16 0 35
-11 51 -30 13 -17 28 -28 33 -25 4 2 18 -5 31 -17 17 -14 20 -22 11 -25 -9 -4
-10 -8 -2 -18 6 -7 10 -17 8 -21 -3 -11 63 -147 75 -155 5 -4 5 -9 -1 -13 -6
-3 -12 -1 -14 5 -2 6 -24 11 -48 12 -25 1 -48 7 -52 12 -9 12 -10 -2 -14 -150
-2 -60 -5 -121 -8 -135 -2 -14 -5 -31 -5 -37 -1 -10 -218 -12 -1043 -10
l-1043 2 -3 2816 c-2 2804 -2 2816 18 2839 11 13 20 27 20 32 0 13 -20 9 -21
-4 -1 -7 -5 1 -9 17 -13 51 -12 682 2 708 6 12 14 29 18 37 5 9 21 15 45 15
33 0 38 3 42 25 4 27 30 53 45 44 5 -3 6 -19 3 -36 -4 -16 -2 -49 5 -72 l11
-41 57 0 57 0 -1 40 c0 22 -2 58 -5 79 -4 38 -3 40 28 47 18 3 39 11 46 18 8
6 17 8 20 5 3 -3 11 -3 17 1 7 4 8 10 3 14 -5 3 -19 23 -32 44 -12 20 -30 37
-38 37 -20 0 -53 -38 -53 -60 0 -18 -32 -38 -70 -42 -23 -3 -25 0 -25 41 0 60
-25 77 -98 65 l-52 -9 -1 -40 c0 -22 -4 -50 -8 -63 -20 -60 -26 10 -26 314 l0
324 3590 0 3590 0 0 1775 0 1775 -3600 0 -3600 0 0 -6400z m6794 3679 c153
-67 201 -265 97 -404 -25 -34 -27 -41 -14 -50 23 -17 -3 -53 -49 -67 -30 -9
-45 -8 -80 5 -34 13 -55 15 -98 8 -30 -5 -63 -13 -73 -16 -52 -21 -136 35
-106 71 10 12 8 19 -9 37 -37 39 -62 108 -62 171 0 78 16 128 58 176 79 93
218 121 336 69z m-651 5 c52 -18 116 -76 142 -130 57 -121 8 -276 -107 -339
-78 -42 -185 -47 -262 -12 -103 48 -149 120 -150 237 0 120 51 197 159 242 51
22 158 23 218 2z m-5834 -111 c15 -56 71 -300 71 -307 0 -3 -16 -6 -35 -6 -30
0 -35 3 -35 24 0 32 -22 48 -61 44 -27 -4 -34 -10 -41 -36 -8 -28 -13 -32 -42
-32 l-34 0 14 58 c7 31 25 110 40 175 l28 117 42 0 c41 0 44 -2 53 -37z m401
-55 l1 -93 30 38 c23 27 39 37 60 37 16 0 29 -3 29 -6 0 -4 -16 -27 -35 -53
l-34 -47 21 -35 c11 -19 29 -49 40 -66 l20 -33 -36 0 c-30 0 -38 5 -57 40 -26
45 -39 43 -39 -6 0 -31 -2 -34 -30 -34 l-30 0 0 175 0 175 30 0 30 0 0 -92z
m1740 -83 l0 -176 -42 1 c-24 1 -55 -1 -69 -5 -19 -5 -33 -1 -55 18 -28 24
-29 29 -29 106 1 69 4 84 22 102 22 22 54 28 91 15 21 -7 22 -5 22 53 l0 61
30 0 30 0 0 -175z m452 83 l3 -92 25 37 c20 30 31 37 58 37 30 0 42 -12 24
-24 -5 -3 -21 -23 -36 -44 l-27 -40 40 -66 41 -66 -35 0 c-30 0 -38 5 -57 40
-13 22 -26 40 -30 40 -5 0 -8 -18 -8 -40 0 -39 -1 -40 -35 -40 l-35 0 0 168
c0 93 3 172 7 175 3 4 19 7 34 7 l28 0 3 -92z m728 28 l0 -65 35 15 c28 11 40
12 58 3 34 -18 37 -27 37 -136 l0 -103 -30 0 -30 0 0 90 c0 75 -3 92 -16 97
-37 14 -49 -10 -52 -101 l-3 -86 -29 0 -30 0 0 175 0 175 30 0 30 0 0 -64z
m530 3 c0 -58 1 -60 23 -53 76 26 107 -8 107 -118 0 -71 -2 -81 -26 -105 -21
-21 -31 -24 -57 -18 -18 4 -49 6 -69 6 l-38 -2 0 176 0 175 30 0 30 0 0 -61z
m-1482 -11 c3 -35 6 -38 33 -38 24 0 29 -4 29 -25 0 -21 -5 -25 -30 -25 l-31
0 3 -67 c3 -66 4 -68 31 -71 21 -3 27 -8 23 -19 -3 -8 -6 -19 -6 -24 0 -16
-73 -10 -92 8 -14 13 -18 31 -18 90 0 66 -2 75 -20 80 -13 3 -20 14 -20 29 0
17 6 24 20 24 17 0 20 7 20 41 0 38 1 40 28 37 23 -3 27 -8 30 -40z m-2094
-58 c24 -24 34 -122 17 -173 -15 -44 -59 -66 -97 -48 -14 6 -27 11 -29 11 -3
0 -5 -30 -5 -66 l0 -65 -27 3 -28 3 -3 179 -2 179 38 -6 c22 -2 46 -1 53 4 19
12 60 2 83 -21z m405 19 c17 -6 36 -19 41 -29 6 -10 10 -62 10 -115 l0 -97
-32 3 c-18 1 -48 -1 -66 -5 -50 -12 -82 13 -82 64 0 44 20 64 83 81 28 7 37
15 35 27 -5 26 -48 28 -55 3 -6 -25 -51 -29 -60 -5 -8 21 28 67 58 75 35 10
33 10 68 -2z m290 0 c38 -14 51 -35 51 -88 l0 -41 -61 0 c-60 0 -60 0 -57 -27
3 -32 44 -46 54 -19 4 10 18 16 35 16 35 0 39 -25 10 -61 -27 -34 -99 -34
-135 0 -23 22 -26 32 -26 96 0 79 20 120 63 128 12 2 25 5 28 6 3 0 20 -4 38
-10z m198 0 c32 -12 43 -26 43 -56 0 -31 -45 -33 -53 -2 -4 13 -12 20 -24 17
-31 -6 -27 -34 7 -48 78 -32 101 -82 61 -131 -15 -19 -29 -24 -66 -24 -37 0
-51 5 -66 24 -29 36 -25 61 11 61 24 0 30 -4 30 -21 0 -15 5 -20 23 -17 39 5
27 38 -23 61 -89 43 -75 132 22 146 4 1 19 -4 35 -10z m220 -13 c6 -6 13 -22
15 -36 2 -21 -2 -26 -23 -28 -20 -2 -28 2 -32 18 -4 14 -12 21 -24 18 -29 -5
-21 -32 15 -50 73 -36 92 -81 53 -129 -15 -19 -29 -24 -66 -24 -37 0 -51 5
-66 24 -29 36 -25 61 10 61 21 0 30 -6 34 -21 7 -25 40 -22 45 4 3 12 -9 23
-42 37 -51 21 -70 54 -60 97 12 45 104 65 141 29z m182 13 c17 -6 36 -19 41
-29 6 -10 10 -62 10 -115 l0 -96 -37 1 c-21 1 -50 -2 -65 -6 -45 -10 -78 18
-78 66 0 44 20 64 83 81 28 7 37 15 35 27 -5 25 -45 27 -58 3 -16 -30 -60 -29
-60 2 1 28 20 54 51 66 32 13 40 13 78 0z m319 -22 c16 -15 22 -32 22 -64 l0
-43 -61 0 c-60 0 -60 0 -57 -27 3 -32 44 -46 54 -19 4 10 18 16 35 16 35 0 39
-25 10 -61 -27 -34 -99 -34 -135 0 -24 22 -26 32 -26 101 0 67 3 79 23 97 12
11 29 23 37 26 25 9 73 -4 98 -26z m1000 -3 c19 -21 22 -36 22 -99 0 -70 -1
-74 -32 -100 -27 -23 -39 -26 -71 -22 -59 8 -80 35 -85 107 -3 36 1 72 9 91
24 60 111 73 157 23z m240 9 c8 -11 12 -53 12 -120 l0 -103 -30 0 -30 0 0 90
c0 75 -3 92 -17 97 -32 12 -53 -32 -53 -113 l0 -74 -30 0 -30 0 0 120 0 120
29 0 c16 0 31 -5 33 -12 3 -8 11 -7 29 5 27 20 67 15 87 -10z m530 -9 c15 -17
22 -38 22 -65 l0 -39 -61 0 c-60 0 -60 0 -57 -27 3 -32 44 -46 54 -19 4 10 18
16 35 16 35 0 40 -29 9 -60 -27 -27 -63 -34 -105 -20 -46 15 -55 34 -55 123 0
64 3 76 23 94 12 11 29 23 37 26 28 11 75 -3 98 -29z m539 12 c6 -6 13 -54 15
-116 l3 -105 -32 -3 -33 -3 0 91 c0 72 -3 92 -15 96 -33 13 -45 -15 -45 -102
l0 -84 -35 0 -35 0 0 120 0 120 35 0 c19 0 35 -4 35 -9 0 -6 12 -3 28 4 28 15
58 12 79 -9z m218 -7 c17 -16 21 -36 23 -120 l4 -100 -44 1 c-23 1 -54 -1 -68
-5 -35 -9 -80 27 -80 64 0 39 19 60 70 75 33 10 46 19 48 35 4 28 -33 29 -50
1 -13 -20 -52 -27 -62 -12 -10 16 29 76 54 84 36 10 82 0 105 -23z m394 20
c36 -13 61 -53 61 -99 l0 -30 -59 0 c-63 0 -76 -8 -66 -40 8 -24 55 -28 55 -5
0 11 11 15 36 15 32 0 35 -2 29 -22 -13 -43 -42 -63 -90 -63 -64 0 -87 27 -93
105 -5 75 11 118 52 136 38 16 36 16 75 3z m249 0 l42 2 0 -149 c0 -135 -2
-152 -20 -175 -41 -52 -147 -44 -170 13 -14 35 -7 50 25 50 15 0 26 -7 30 -20
8 -26 51 -27 65 -1 5 11 10 30 10 42 0 18 -3 20 -12 11 -7 -7 -29 -12 -49 -12
-56 0 -79 34 -79 116 0 97 31 141 90 127 14 -4 44 -5 68 -4z m240 -25 c19 -22
22 -36 22 -120 l0 -95 -42 1 c-24 1 -54 -1 -68 -5 -35 -9 -80 27 -80 64 0 27
31 71 51 71 5 0 25 7 44 14 25 11 33 19 29 30 -9 22 -41 20 -54 -4 -11 -20
-54 -28 -64 -12 -10 16 29 76 54 84 40 11 83 0 108 -28z m-3048 -94 l0 -120
-35 0 -35 0 0 113 c0 63 3 117 7 120 3 4 19 7 35 7 l28 0 0 -120z m2280 63
c19 -91 25 -93 45 -14 17 68 18 71 47 71 29 0 30 -2 24 -33 -3 -19 -25 -99
-49 -178 l-42 -144 -34 -3 c-28 -3 -32 -1 -28 15 30 103 30 93 -2 206 -17 58
-34 113 -37 122 -5 12 2 15 28 15 34 0 35 -1 48 -57z m-1974 -2933 c11 -37 13
-55 6 -58 -23 -7 -62 -44 -62 -58 0 -13 3 -13 22 0 36 26 60 21 56 -11 -2 -22
-8 -28 -24 -26 -15 2 -27 -9 -43 -37 -19 -33 -19 -39 -5 -33 13 5 15 2 9 -15
-10 -33 11 -26 27 9 l15 31 7 -74 c8 -85 -5 -149 -55 -269 -17 -41 -37 -95
-45 -121 -16 -52 -50 -78 -102 -78 -31 0 -178 56 -236 90 -56 34 -43 15 22
-29 31 -21 70 -52 85 -69 l29 -30 -26 -38 c-14 -21 -26 -42 -26 -47 0 -17 55
35 78 74 13 21 27 39 32 39 44 0 -14 -94 -74 -121 -97 -43 -238 -44 -316 -4
-64 33 -143 157 -143 225 0 37 40 109 79 141 16 13 17 12 12 -16 l-6 -30 19
24 c10 13 19 30 19 38 0 12 7 13 27 8 16 -4 28 -7 29 -8 1 -1 9 -15 18 -32 9
-17 15 -21 12 -10 -3 11 -8 32 -12 48 -5 20 -12 27 -31 27 -29 0 -138 65 -159
94 -22 32 -18 118 7 150 11 14 26 26 33 26 26 0 96 -61 111 -97 35 -82 75 -98
75 -29 0 64 7 77 38 69 18 -4 23 -3 17 6 -4 7 -4 38 0 68 7 60 25 57 25 -4 0
-43 9 -41 40 6 50 78 103 151 107 148 1 -2 -4 -26 -12 -53 -8 -27 -15 -50 -15
-52 0 -1 17 6 38 17 41 21 66 46 106 106 31 47 32 45 7 -31 -11 -32 -18 -60
-16 -63 3 -2 16 4 30 13 35 23 91 102 105 150 l12 40 19 -25 c10 -13 26 -49
35 -79z m2337 -589 c13 -78 -39 -211 -81 -211 -26 0 -176 67 -181 81 -4 12 23
9 64 -7 13 -5 15 -2 10 18 -6 22 -1 25 48 41 76 24 106 50 113 99 8 44 19 36
27 -21z m-3638 -461 c9 0 15 -10 15 -24 0 -13 15 -39 33 -59 41 -42 97 -118
97 -129 0 -4 -9 -8 -20 -8 -12 0 -35 -8 -53 -17 -18 -9 -42 -18 -54 -19 -29
-3 -72 -35 -73 -53 0 -12 -3 -12 -12 -3 -7 7 -20 12 -29 12 -10 0 -21 9 -24
20 -3 11 -13 20 -21 20 -8 0 -14 1 -14 3 0 1 -4 17 -9 35 -8 27 -6 36 13 60
22 26 32 53 43 120 4 22 10 32 19 28 7 -3 23 6 36 19 19 19 24 21 31 9 4 -8
15 -14 22 -14z m3946 -28 c59 -61 101 -168 128 -329 29 -169 30 -538 1 -731
-24 -164 -61 -321 -93 -393 -31 -69 -129 -163 -263 -251 -211 -138 -250 -154
-354 -136 -65 10 -67 10 -115 -21 -34 -22 -61 -31 -89 -31 -50 0 -73 12 -54
27 17 13 68 23 68 12 0 -4 -12 -10 -27 -12 -26 -4 -26 -4 5 -6 27 -1 32 2 32
22 0 30 -44 91 -104 144 -53 47 -80 57 -97 37 -6 -8 -18 -14 -25 -14 -27 0 14
58 70 99 36 27 58 52 65 74 15 44 36 62 88 76 40 11 43 14 58 68 24 82 45 107
115 133 33 12 62 21 63 19 2 -2 9 -15 15 -29 12 -24 12 -24 5 5 -13 53 -8 119
12 160 18 35 25 41 62 46 45 6 103 41 149 91 25 28 23 27 -14 -5 -48 -43 -88
-64 -99 -53 -12 12 -9 164 4 246 7 41 17 113 23 160 23 174 86 411 135 510 38
75 127 145 170 134 11 -3 41 -27 66 -52z m-2531 -902 c21 0 22 -30 1 -59 -41
-57 -37 -114 7 -96 42 18 82 6 82 -25 0 -10 11 -27 25 -38 14 -11 25 -24 25
-28 0 -5 14 -25 30 -44 16 -19 30 -39 30 -43 0 -4 -21 -17 -46 -28 -25 -11
-48 -27 -51 -35 -3 -8 -19 -14 -37 -14 -25 0 -35 -6 -43 -23 -9 -19 -17 -23
-42 -19 -27 4 -31 1 -32 -19 -1 -21 -2 -21 -6 -4 -3 11 -14 30 -25 41 -11 13
-15 23 -9 25 20 7 -11 59 -31 53 -26 -8 -22 5 12 38 34 32 36 40 15 58 -12 10
-12 18 5 60 15 38 17 55 9 84 -5 19 -14 38 -19 41 -19 12 -10 54 22 104 l31
51 18 -40 c10 -22 23 -40 29 -40z m127 -591 c51 -21 61 -49 44 -125 -7 -29
-16 -116 -20 -192 -7 -148 -18 -178 -75 -215 l-24 -16 8 30 c5 17 14 37 21 45
7 8 9 17 6 21 -4 3 -20 -23 -36 -59 -28 -60 -78 -118 -103 -118 -6 0 -3 11 6
25 17 25 76 170 75 183 0 4 -24 -40 -52 -98 -40 -81 -59 -109 -85 -124 -26
-15 -35 -16 -48 -6 -13 12 -12 16 5 34 21 22 94 206 86 215 -7 6 -8 5 -45 -94
-18 -49 -47 -107 -63 -128 -24 -29 -28 -40 -19 -49 9 -9 22 -9 55 1 23 6 54
13 68 15 l27 3 -14 -39 c-7 -22 -27 -58 -43 -81 -30 -42 -43 -90 -77 -284 -9
-52 -29 -114 -54 -167 -22 -46 -43 -98 -46 -114 -3 -16 -19 -39 -35 -51 -56
-41 -99 -165 -99 -281 0 -35 7 -58 28 -88 31 -47 97 -106 130 -116 25 -8 41
-35 73 -123 38 -102 107 -185 207 -250 28 -18 52 -35 52 -36 0 -1 -113 -2
-251 -2 l-251 0 -34 115 c-19 63 -38 149 -44 190 -10 79 -34 189 -82 379 -21
86 -28 137 -28 212 0 159 -18 285 -51 362 -25 59 -28 77 -23 123 5 39 2 66
-10 97 -9 26 -15 65 -13 99 l2 57 23 -45 c15 -30 23 -63 24 -102 1 -64 19
-102 49 -102 11 0 30 -7 44 -16 19 -12 28 -13 45 -4 12 6 24 9 27 6 10 -10 43
15 58 44 9 17 22 30 30 30 22 0 49 50 70 127 17 62 17 68 1 119 -24 77 -46
127 -53 121 -3 -4 7 -40 22 -81 21 -58 26 -85 21 -118 -7 -47 -53 -154 -62
-145 -3 3 -1 14 5 25 6 12 11 41 11 67 0 57 -28 197 -42 210 -7 7 -9 2 -5 -15
4 -14 14 -66 22 -116 l16 -91 -26 -66 c-15 -36 -36 -73 -47 -84 l-21 -18 9 50
c16 97 7 255 -16 255 -5 0 -5 -12 0 -28 19 -69 20 -147 1 -212 -19 -70 -41
-87 -61 -50 -9 17 -9 37 1 87 10 51 10 73 0 111 -7 26 -17 52 -23 57 -8 7 -9
4 -3 -10 31 -84 -3 -271 -42 -231 -3 3 -7 34 -9 68 -3 72 -47 180 -97 238 -17
19 -50 75 -73 125 -24 49 -54 105 -69 124 -14 19 -25 43 -25 52 0 23 92 105
124 111 30 6 68 -16 111 -62 40 -43 189 -169 246 -208 40 -26 52 -43 78 -106
17 -41 32 -81 32 -88 1 -7 4 1 8 17 4 20 12 30 24 30 33 0 41 32 28 101 -13
61 -12 65 23 165 35 96 40 105 105 165 41 38 75 80 85 103 28 72 67 81 163 40z
m1058 -9 c16 -6 33 -26 45 -52 11 -24 42 -68 70 -98 51 -56 59 -75 38 -83 -7
-3 -3 -6 10 -6 13 -1 56 10 95 23 40 13 93 27 119 31 43 6 51 4 92 -26 25 -18
53 -43 61 -56 15 -22 14 -26 -29 -81 -85 -109 -163 -180 -269 -242 -142 -83
-156 -78 -55 22 46 45 72 73 58 62 -14 -10 -58 -50 -98 -89 -71 -68 -119 -102
-129 -92 -5 6 53 123 66 131 5 3 28 30 52 59 l42 52 -56 -55 c-31 -30 -71 -82
-89 -114 -43 -76 -58 -82 -47 -19 12 77 37 134 85 198 l45 60 -41 -45 c-49
-53 -87 -127 -96 -188 -8 -52 -20 -61 -36 -27 -9 19 -9 40 0 87 15 79 48 147
111 225 28 34 45 60 38 57 -21 -9 -125 -149 -132 -177 -4 -15 -11 -27 -16 -27
-5 0 -9 -11 -9 -24 0 -56 -13 -59 -34 -8 -12 28 -25 55 -30 59 -4 4 0 -10 9
-32 10 -22 19 -51 22 -65 3 -24 -11 1 -46 80 -11 24 -11 24 -5 -5 9 -48 36
-97 56 -103 13 -3 18 -14 18 -39 0 -19 8 -46 19 -59 18 -22 18 -28 4 -101 -29
-153 -1 -262 94 -366 82 -88 81 -85 41 -101 -19 -8 -46 -12 -59 -9 -43 11
-242 159 -315 235 -107 111 -154 209 -154 322 0 114 90 368 134 380 28 8 100
8 120 0 11 -4 16 -19 16 -46 0 -42 14 -78 31 -78 5 0 2 12 -7 26 -16 24 -16
32 -1 129 9 56 17 127 17 158 0 64 24 102 73 116 43 12 42 12 72 1z m-261
-175 c11 -36 23 -56 36 -60 11 -4 24 -14 30 -24 10 -19 -11 -22 -195 -34 -16
-1 -36 -9 -43 -17 -11 -12 -11 -11 -1 10 7 14 15 27 18 30 3 3 12 17 20 31 20
40 101 130 111 124 5 -3 16 -30 24 -60z m-2348 16 c5 1 25 -5 45 -14 51 -23
93 -32 85 -19 -4 6 2 8 14 5 11 -3 20 -9 20 -13 0 -13 57 -29 82 -23 17 3 19
2 9 -5 -11 -8 -10 -11 6 -16 11 -4 83 -68 159 -144 127 -125 178 -191 160
-209 -3 -4 -28 1 -54 10 -26 9 -64 17 -84 17 -32 0 -38 -3 -38 -21 0 -12 8
-23 20 -26 28 -7 22 -50 -11 -77 -18 -16 -26 -30 -23 -47 9 -66 12 -309 3
-309 -5 0 -9 9 -9 20 0 11 -4 20 -10 20 -5 0 -10 -9 -10 -21 0 -11 -4 -17 -10
-14 -5 3 -10 -3 -10 -14 0 -16 8 -22 40 -27 l40 -7 1 -101 c1 -66 4 -92 9 -76
l8 25 1 -25 c1 -36 -24 -69 -49 -63 -11 3 -20 12 -20 19 0 8 -9 14 -21 14 -11
0 -18 -4 -14 -10 3 -5 6 -26 6 -47 1 -46 17 -103 30 -103 5 0 9 -8 9 -17 0
-23 -44 42 -71 104 -30 70 -46 119 -64 198 -9 39 -22 79 -29 90 -23 37 -26 72
-11 157 24 135 16 205 -18 168 -9 -10 -9 -11 0 -6 6 3 14 2 17 -3 9 -15 -6
-151 -16 -145 -4 3 -5 11 -2 17 4 7 4 9 -1 5 -11 -10 -47 11 -40 23 4 5 1 8
-6 7 -16 -4 -39 39 -39 74 0 15 18 60 40 100 22 40 40 84 39 98 0 22 -2 21
-13 -10 -7 -19 -23 -56 -35 -83 l-22 -48 -28 53 c-15 29 -42 78 -59 108 -29
50 -92 226 -92 257 0 7 4 12 9 11 5 -2 9 1 10 7 0 5 -7 10 -17 10 -20 0 -22
23 -9 75 12 46 36 73 52 60 7 -6 17 -10 21 -9z m3199 -259 c-2 -2 3 -11 11
-20 29 -32 114 -153 114 -161 0 -5 7 -12 16 -15 23 -9 -1 -36 -32 -36 -13 0
-24 -5 -24 -11 0 -8 -5 -7 -15 1 -29 24 -25 3 9 -47 l34 -50 -41 -40 c-46 -44
-129 -101 -221 -154 -33 -18 -54 -35 -47 -37 6 -2 18 1 26 8 20 16 79 -13 112
-56 38 -50 78 -166 102 -290 18 -96 19 -117 9 -150 -16 -49 -67 -84 -120 -84
-37 0 -48 9 -277 238 -252 250 -279 285 -302 392 -8 38 -8 73 2 138 13 96 21
111 43 93 13 -11 23 -9 60 13 25 14 55 26 67 26 23 0 124 56 211 116 56 39 65
41 101 24 33 -16 47 -4 47 42 0 22 8 32 38 47 31 15 90 25 77 13z m141 -411
c-4 -5 -1 -11 6 -13 9 -3 11 -20 8 -54 -12 -124 -5 -329 12 -384 10 -30 19
-64 21 -75 2 -11 7 -27 10 -35 20 -51 37 -135 31 -149 -4 -9 -6 -19 -6 -23 5
-20 -24 -4 -62 35 -49 49 -68 92 -101 231 -43 180 -87 272 -152 314 l-35 24
83 50 c121 73 202 108 185 79z"/>
<path d="M6613 9773 c-20 -4 -23 -11 -23 -51 l0 -47 85 0 85 0 0 46 c0 40 -3
48 -22 53 -25 6 -90 6 -125 -1z"/>
<path d="M604 8722 c-6 -4 -23 -26 -38 -49 -15 -25 -36 -45 -51 -49 -14 -3
-25 -10 -25 -15 0 -5 -7 -9 -16 -9 -11 0 -14 -8 -12 -27 3 -27 4 -28 62 -25
33 2 74 11 92 20 17 9 48 25 68 36 30 15 36 24 36 50 0 66 -8 76 -59 76 -25 0
-51 -4 -57 -8z"/>
<path d="M955 8500 c-57 -13 -73 -22 -78 -41 -4 -14 -14 -19 -41 -19 -29 0
-37 -4 -42 -24 -9 -36 -37 -38 -60 -5 -13 20 -28 29 -45 29 -26 0 -74 32 -63
42 14 14 -56 3 -90 -14 -32 -17 -46 -18 -73 -10 -29 9 -33 8 -33 -7 0 -10 5
-33 11 -51 14 -38 1 -51 -41 -44 -75 12 -89 12 -94 -3 -8 -19 19 -40 61 -48
38 -7 77 10 69 30 -4 11 2 13 22 9 20 -4 34 1 55 20 36 34 43 33 58 -8 12 -33
47 -55 59 -37 3 5 19 11 35 12 33 4 32 5 19 -73 -6 -37 -6 -38 23 -38 57 0
213 100 213 136 0 18 75 65 123 78 29 7 34 25 17 57 -11 20 -46 23 -105 9z"/>
<path d="M160 7994 c-27 -62 -26 -88 6 -109 15 -9 32 -18 38 -19 6 -1 17 -5
24 -9 18 -12 25 15 20 87 -6 103 -52 129 -88 50z"/>
<path d="M371 7501 c-11 -11 -23 -36 -27 -55 -7 -42 3 -108 18 -118 6 -3 -12
-14 -40 -24 -52 -19 -52 -19 -46 -54 9 -50 29 -77 66 -89 18 -6 42 -22 52 -36
18 -24 46 -34 46 -16 0 5 -7 25 -16 46 -15 38 -36 130 -39 175 0 14 10 49 24
77 20 42 23 58 15 80 -12 35 -28 39 -53 14z"/>
<path d="M1226 7325 c-3 -9 -3 -49 1 -89 5 -69 4 -78 -26 -138 -28 -59 -39
-98 -26 -98 3 0 30 19 60 43 62 47 77 86 56 144 -7 18 -11 50 -10 71 4 57 -38
109 -55 67z"/>
<path d="M731 6831 c-20 -20 -22 -30 -16 -67 l6 -45 -54 -24 c-31 -13 -58 -29
-62 -34 -3 -6 -30 -18 -60 -26 -29 -9 -59 -22 -65 -30 -8 -10 -11 -43 -8 -95
3 -85 11 -100 54 -100 24 0 54 -29 54 -52 0 -9 7 -18 15 -22 19 -7 19 -35 0
-57 -9 -9 -17 -33 -18 -52 -1 -20 -11 -45 -22 -57 -16 -17 -17 -24 -7 -40 18
-30 14 -54 -13 -80 -14 -13 -25 -19 -25 -14 0 5 -7 1 -14 -9 -11 -14 -12 -27
-4 -55 6 -20 14 -42 18 -47 5 -6 8 -63 8 -128 0 -65 2 -120 4 -123 11 -10 103
16 115 32 9 12 13 50 13 112 l0 95 43 39 c23 22 87 74 142 116 55 41 102 77
105 79 2 2 -2 8 -10 13 -10 6 -24 -1 -49 -26 -19 -18 -39 -34 -45 -34 -6 0
-39 -14 -74 -32 -58 -30 -63 -31 -79 -15 -16 15 -16 21 -3 64 8 27 15 66 16
88 2 60 12 83 64 155 76 105 88 140 50 140 -11 0 -20 -3 -20 -7 0 -16 -70 -55
-86 -49 -26 10 -12 103 32 216 44 114 50 149 31 174 -14 19 -15 18 -36 -3z"/>
<path d="M1147 6423 c-4 -34 -20 -124 -32 -179 -2 -11 -16 -33 -30 -48 l-26
-28 27 -26 c21 -22 25 -33 20 -61 -3 -19 -1 -40 3 -45 5 -6 10 -20 12 -30 3
-13 13 -20 31 -20 29 -2 34 13 43 139 3 31 7 60 10 65 2 4 7 55 11 112 4 87 3
108 -10 120 -8 9 -12 18 -9 22 4 3 1 6 -5 6 -5 0 -17 3 -25 6 -11 4 -16 -4
-20 -33z"/>
<path d="M350 4905 c-6 -8 -19 -29 -29 -47 -9 -18 -23 -43 -31 -55 -12 -19
-12 -27 3 -57 15 -33 20 -36 61 -36 35 0 48 -5 56 -20 6 -11 8 -25 5 -30 -3
-6 -4 -10 -1 -10 2 0 20 22 40 49 20 27 54 67 76 89 22 22 40 47 40 55 0 9
-16 24 -35 33 -20 9 -37 20 -40 24 -3 4 -24 5 -49 3 -26 -3 -46 -1 -50 6 -10
15 -31 14 -46 -4z"/>
<path d="M355 4619 c-22 -12 -58 -36 -81 -55 -23 -18 -53 -36 -68 -40 -34 -8
-49 -44 -35 -81 6 -15 9 -52 7 -83 -2 -43 0 -55 13 -58 9 -1 20 8 27 23 6 14
29 44 50 67 35 38 76 102 120 184 7 13 12 33 10 44 -3 20 -3 20 -43 -1z"/>
</g>
</svg>
