<?xml version="1.0" standalone="no"?>
<!DOCTYPE svg PUBLIC "-//W3C//DTD SVG 20010904//EN"
 "http://www.w3.org/TR/2001/REC-SVG-20010904/DTD/svg10.dtd">
<svg version="1.0" xmlns="http://www.w3.org/2000/svg"
 width="720.000000pt" height="1280.000000pt" viewBox="0 0 720.000000 1280.000000"
 preserveAspectRatio="xMidYMid meet">
<metadata>
Created by potrace 1.16, written by Peter Selinger 2001-2019
</metadata>
<g transform="translate(0.000000,1280.000000) scale(0.100000,-0.100000)"
fill="#000000" stroke="none">
<path d="M0 6400 l0 -6400 3600 0 3600 0 0 1025 0 1025 -1912 2 c-1052 0
-1917 2 -1923 3 -5 2 -18 3 -27 4 -30 2 -20 20 15 29 37 10 46 37 26 84 -7 16
-13 68 -13 114 -1 75 -4 86 -26 108 -22 22 -30 24 -67 17 -40 -8 -42 -7 -54
21 -10 25 -9 38 4 76 21 57 17 74 -47 198 -25 50 -46 101 -46 113 0 13 12 42
26 66 31 54 34 98 7 128 -26 28 -36 72 -23 97 11 21 67 28 85 11 6 -5 27 -14
47 -20 24 -8 43 -24 56 -45 17 -29 24 -33 48 -28 16 3 23 7 17 9 -22 8 -16 93
9 130 19 27 29 33 58 32 19 0 48 -6 64 -12 55 -24 78 -12 112 61 17 36 29 73
27 82 -4 16 -33 28 -108 46 -16 4 -33 8 -37 9 -5 2 -12 3 -17 4 -4 0 -20 10
-35 22 -25 19 -25 22 -11 50 9 16 31 35 49 43 33 14 53 46 42 65 -9 13 -227 1
-253 -15 -20 -13 -39 -55 -62 -141 -11 -39 -54 -93 -74 -93 -5 0 -29 -16 -54
-35 -54 -42 -80 -43 -129 -10 -53 36 -83 33 -118 -15 -16 -21 -41 -44 -56 -50
-15 -6 -45 -37 -66 -68 -72 -106 -130 -139 -195 -111 -30 12 -31 14 -25 58 3
25 11 50 16 55 19 19 10 68 -21 123 -34 58 -38 95 -20 173 6 28 6 49 0 54 -5
6 -9 24 -9 42 0 27 6 35 40 52 29 14 52 18 86 14 25 -3 49 -1 53 4 8 12 60 43
94 55 42 17 37 61 -12 110 -34 35 -44 39 -87 39 -27 -1 -60 -7 -74 -15 -14 -8
-49 -14 -79 -15 -51 0 -57 3 -107 50 -51 49 -54 50 -114 50 -39 0 -69 6 -86
16 -20 13 -52 17 -165 17 -123 0 -143 2 -164 19 -14 11 -25 26 -25 34 0 31 33
92 60 113 28 20 32 21 59 6 17 -8 43 -15 60 -15 42 0 73 -14 115 -50 34 -30
36 -31 36 -11 0 37 37 96 77 124 55 38 111 37 149 -2 16 -16 43 -43 59 -60 34
-35 56 -38 100 -15 17 9 59 27 94 41 47 18 81 40 125 83 34 33 66 60 72 60 7
0 14 20 16 45 3 42 1 45 -21 45 -15 0 -37 15 -64 45 -39 45 -41 46 -96 45 -31
-1 -91 -1 -133 0 -74 1 -78 3 -111 36 -33 35 -35 35 -76 24 -49 -13 -79 -42
-87 -84 -8 -44 -21 -57 -94 -94 -43 -22 -79 -32 -107 -32 -23 0 -49 -3 -58 -6
-21 -8 -47 -61 -41 -82 7 -22 -4 -39 -29 -44 -15 -2 -21 3 -23 21 -4 23 -5 24
-83 17 l-80 -7 -17 32 c-9 18 -31 48 -48 67 -26 30 -32 32 -45 21 -8 -8 -49
-31 -91 -52 -47 -24 -94 -57 -122 -87 -41 -43 -46 -54 -46 -95 0 -25 8 -60 17
-78 27 -52 23 -116 -10 -159 -35 -45 -56 -112 -50 -154 5 -30 8 -32 56 -37 64
-7 154 -32 174 -49 12 -9 14 -29 11 -86 -3 -66 -6 -77 -31 -98 -53 -45 -139
-20 -157 46 -18 63 -50 90 -114 99 -63 9 -76 21 -100 91 -36 108 -93 185 -146
195 -36 7 -144 71 -163 96 -16 23 -18 32 -8 60 6 19 12 52 13 75 1 35 9 48 55
95 30 30 64 73 75 97 17 35 43 62 68 67 42 10 60 27 60 55 0 53 -26 88 -84
114 -55 24 -66 41 -66 98 0 31 -15 44 -33 30 -23 -19 -80 -3 -105 28 -30 38
-58 38 -80 0 -14 -24 -26 -31 -62 -35 -85 -11 -87 -12 -93 -50 -4 -25 1 -51
14 -83 20 -46 20 -112 0 -112 -5 0 -16 -17 -26 -37 -23 -51 -41 -63 -91 -63
-24 0 -46 -5 -50 -12 -15 -24 -15 -203 0 -245 8 -23 12 -51 9 -62 -6 -23 31
-81 53 -81 8 0 41 -25 75 -56 77 -71 93 -69 97 11 4 94 8 105 42 105 21 0 42
-11 68 -34 33 -31 37 -39 36 -81 -1 -39 -6 -51 -30 -70 -64 -50 -154 -147
-160 -171 -13 -52 5 -76 92 -119 44 -22 93 -50 109 -62 15 -13 34 -23 42 -23
26 0 92 -40 110 -66 10 -15 33 -41 51 -59 31 -29 32 -33 18 -47 -9 -9 -34 -19
-57 -23 -22 -4 -59 -18 -82 -31 -53 -30 -80 -30 -142 1 -27 13 -61 25 -74 25
-13 0 -41 5 -63 12 -34 10 -42 19 -68 74 -16 34 -45 86 -64 114 -31 45 -36 60
-36 110 0 52 -5 66 -41 121 l-41 61 -52 -6 c-63 -7 -122 -34 -160 -75 -17 -17
-37 -31 -47 -31 -9 0 -23 -7 -30 -16 -7 -9 -24 -20 -37 -25 -12 -5 -29 -22
-36 -39 -7 -17 -15 -27 -19 -23 -4 3 -7 161 -7 349 0 399 -6 376 110 408 36 9
73 25 83 33 23 21 22 68 -3 93 -11 11 -19 23 -18 28 1 4 -4 25 -10 47 -7 22
-12 52 -12 66 0 17 -12 39 -32 58 -37 36 -72 48 -92 32 -11 -9 -15 -8 -20 5
-3 8 -6 1068 -6 2355 l0 2339 3590 0 3590 0 0 1775 0 1775 -3600 0 -3600 0 0
-6400z m6730 3699 c64 -14 102 -34 140 -71 94 -96 103 -243 21 -353 -25 -34
-27 -41 -14 -50 13 -10 13 -15 2 -33 -26 -42 -91 -54 -143 -27 -24 13 -38 13
-90 3 -108 -20 -145 -17 -172 17 -22 28 -23 31 -7 42 15 12 15 15 -5 35 -55
60 -78 178 -50 269 23 77 103 146 195 168 51 12 70 12 123 0z m-563 -22 c112
-59 170 -203 129 -320 -41 -113 -135 -177 -261 -177 -176 0 -294 136 -267 306
16 95 64 156 157 197 52 22 194 19 242 -6z m-5858 -104 c15 -56 71 -300 71
-307 0 -3 -16 -6 -35 -6 -30 0 -35 3 -35 24 0 31 -13 39 -59 39 -31 0 -36 -3
-43 -31 -8 -28 -13 -32 -42 -32 l-34 0 14 58 c7 31 25 110 40 175 l28 117 42
0 c41 0 44 -2 53 -37z m401 -55 l1 -93 30 38 c23 27 39 37 60 37 16 0 29 -3
29 -6 0 -4 -16 -27 -35 -53 l-34 -47 21 -35 c11 -19 29 -49 40 -66 l20 -33
-36 0 c-30 0 -38 5 -57 40 -26 45 -39 43 -39 -6 0 -31 -2 -34 -30 -34 l-30 0
0 175 0 175 30 0 30 0 0 -92z m1740 -83 l0 -176 -42 1 c-24 1 -55 -1 -69 -5
-19 -5 -33 -1 -55 18 -28 24 -29 29 -28 107 1 68 4 85 21 102 22 21 54 27 91
14 21 -7 22 -5 22 53 l0 61 30 0 30 0 0 -175z m452 83 l3 -92 25 37 c20 30 31
37 58 37 30 0 42 -12 24 -24 -5 -3 -21 -23 -36 -44 l-27 -40 41 -66 41 -67
-38 3 c-32 3 -41 9 -58 40 -26 49 -35 48 -35 -2 0 -39 -1 -40 -35 -40 l-35 0
0 175 0 175 35 0 34 0 3 -92z m728 27 l0 -66 30 16 c33 17 60 13 85 -11 11
-12 15 -40 15 -120 l0 -104 -30 0 -30 0 0 90 c0 75 -3 92 -16 97 -37 14 -49
-10 -52 -101 l-3 -86 -29 0 -30 0 0 175 0 175 30 0 30 0 0 -65z m530 4 c0 -58
1 -60 23 -53 76 26 107 -8 107 -118 0 -71 -2 -81 -26 -105 -20 -20 -31 -24
-52 -18 -15 4 -46 6 -69 5 l-43 -1 0 176 0 175 30 0 30 0 0 -61z m-1480 -9 c0
-38 2 -40 30 -40 25 0 30 -4 30 -25 0 -21 -5 -25 -30 -25 l-31 0 3 -67 c3 -66
4 -68 31 -71 21 -3 27 -8 23 -19 -3 -8 -6 -19 -6 -24 0 -16 -73 -10 -92 8 -14
13 -18 31 -18 90 0 66 -2 75 -20 80 -13 3 -20 14 -20 29 0 17 6 24 20 24 17 0
20 7 20 40 0 38 2 40 30 40 28 0 30 -2 30 -40z m-2095 -61 c17 -16 20 -33 20
-100 0 -77 -1 -82 -29 -106 -28 -24 -47 -26 -88 -8 -16 6 -18 0 -18 -59 l0
-66 -30 0 -30 0 0 181 0 182 38 -5 c20 -3 46 -2 57 3 26 10 55 2 80 -22z m438
-1 c14 -16 17 -39 17 -120 l0 -100 -32 3 c-18 1 -48 -1 -66 -5 -50 -12 -82 13
-82 64 0 44 20 64 83 81 28 7 37 15 35 27 -5 26 -48 28 -55 3 -6 -25 -51 -29
-60 -5 -8 21 27 67 58 75 36 11 82 0 102 -23z m253 22 c39 -15 53 -39 54 -87
l0 -43 -61 0 c-60 0 -60 0 -57 -27 3 -32 44 -46 54 -19 9 23 64 21 64 -2 0
-51 -67 -84 -124 -62 -45 17 -55 38 -56 116 0 78 20 119 63 127 12 2 25 5 29
6 4 0 19 -4 34 -9z m201 -1 c32 -12 43 -26 43 -56 0 -31 -45 -33 -53 -3 -7 26
-47 27 -47 1 0 -12 12 -23 33 -31 74 -30 97 -83 58 -131 -40 -50 -151 -22
-151 38 0 19 5 23 30 23 24 0 30 -4 30 -21 0 -15 5 -20 22 -17 41 6 32 33 -19
59 -91 46 -80 134 19 148 4 1 19 -4 35 -10z m197 -3 c31 -13 53 -55 38 -71
-14 -14 -50 -3 -55 16 -4 13 -12 20 -24 17 -29 -5 -21 -32 15 -50 73 -36 92
-81 53 -129 -15 -19 -29 -24 -66 -24 -37 0 -51 5 -66 24 -29 36 -25 61 10 61
21 0 30 -6 34 -21 7 -25 40 -22 45 3 2 12 -11 24 -43 39 -74 35 -85 107 -21
135 39 17 40 17 80 0z m205 3 c17 -6 36 -19 41 -29 6 -10 10 -62 10 -115 l0
-96 -37 1 c-21 1 -50 -2 -65 -6 -45 -10 -78 18 -78 66 0 44 20 64 83 81 28 7
37 15 35 27 -5 25 -45 27 -58 3 -6 -13 -21 -21 -35 -21 -62 0 -3 95 61 99 6 1
25 -4 43 -10z m318 -21 c17 -16 23 -33 23 -65 l0 -43 -61 0 c-60 0 -60 0 -57
-27 3 -32 44 -46 54 -19 8 20 64 22 64 2 0 -69 -102 -98 -158 -45 -19 17 -22
31 -22 98 0 68 3 80 23 98 12 11 29 23 37 26 25 10 73 -2 97 -25z m1001 -4
c18 -21 22 -36 22 -98 0 -77 -15 -107 -61 -121 -31 -10 -84 3 -105 26 -23 26
-31 127 -13 170 24 60 111 73 157 23z m240 8 c8 -10 12 -52 12 -119 l0 -103
-30 0 -30 0 0 90 c0 75 -3 92 -17 97 -32 12 -53 -32 -53 -113 l0 -74 -30 0
-30 0 0 120 0 120 29 0 c16 0 31 -5 33 -11 2 -6 14 -5 33 5 33 17 63 13 83
-12z m529 -4 c17 -16 23 -33 23 -65 l0 -43 -61 0 c-60 0 -60 0 -57 -27 3 -32
44 -46 54 -19 4 10 18 16 35 16 22 0 29 -5 29 -20 0 -42 -64 -79 -115 -66 -52
13 -65 39 -65 124 0 69 3 81 23 99 12 11 29 23 37 26 25 10 73 -2 97 -25z
m539 8 c7 -6 15 -59 19 -118 l7 -108 -36 0 -36 0 0 90 c0 72 -3 92 -15 96 -33
13 -45 -15 -45 -102 l0 -84 -35 0 -35 0 0 120 0 120 35 0 c19 0 35 -4 35 -9 0
-6 12 -3 28 4 28 15 58 12 78 -9z m219 -7 c17 -16 21 -36 23 -120 l4 -100 -44
1 c-23 1 -54 -1 -68 -5 -35 -9 -80 27 -80 64 0 39 19 60 70 75 33 10 46 19 48
35 3 17 -2 21 -22 21 -16 0 -27 -7 -31 -20 -4 -12 -15 -20 -29 -20 -32 0 -36
7 -24 42 20 56 108 72 153 27z m394 20 c36 -13 61 -53 61 -99 l0 -30 -59 0
c-65 0 -73 -5 -64 -38 6 -26 53 -32 53 -7 0 11 11 15 36 15 32 0 35 -2 29 -22
-4 -13 -18 -34 -33 -47 -21 -19 -33 -22 -65 -18 -59 8 -80 35 -85 107 -5 75
11 118 52 136 38 16 36 16 75 3z m204 -3 c15 -8 27 -11 27 -5 0 5 14 9 31 9
l30 0 -3 -155 c-3 -145 -4 -156 -26 -177 -17 -18 -34 -23 -73 -23 -43 0 -54 4
-75 29 -14 15 -24 36 -22 45 5 25 45 26 60 2 26 -42 78 -16 78 39 0 17 -3 19
-19 10 -36 -19 -78 -12 -100 16 -17 21 -21 41 -21 93 0 92 16 118 80 130 3 0
17 -6 33 -13z m282 -17 c17 -16 21 -35 23 -120 l4 -100 -44 1 c-23 1 -54 -1
-68 -5 -35 -9 -80 27 -80 64 0 39 19 60 70 75 33 10 46 19 48 35 4 28 -33 29
-50 1 -12 -19 -48 -27 -60 -14 -15 14 11 60 43 77 40 20 84 15 114 -14z
m-3045 -100 l0 -120 -32 3 -33 3 -3 104 c-1 58 0 111 2 118 3 7 19 13 36 13
l30 0 0 -121z m2280 64 c19 -91 25 -93 45 -14 17 70 17 71 51 71 22 0 32 -4
29 -12 -3 -7 -25 -84 -50 -171 -24 -87 -47 -162 -50 -168 -4 -5 -20 -9 -37 -9
-24 0 -29 3 -24 16 28 74 28 99 -3 207 -18 59 -34 113 -37 122 -5 12 2 15 28
15 34 0 35 -1 48 -57z m-2653 -6275 c41 -39 41 -56 4 -96 -17 -17 -35 -50 -41
-74 -6 -24 -22 -69 -36 -100 -23 -54 -24 -59 -9 -94 15 -36 14 -52 -7 -106
-18 -49 -97 -47 -123 3 -22 41 -19 62 14 93 l30 29 -36 46 c-35 46 -35 47 -29
121 6 64 4 80 -13 107 l-20 32 37 6 c46 7 164 45 177 56 14 13 16 12 52 -23z
m-685 -338 c30 -23 52 -72 45 -99 -3 -15 2 -20 25 -25 16 -3 38 -1 48 4 10 6
39 10 64 10 53 0 55 -6 26 -74 -14 -33 -19 -67 -18 -120 0 -41 -3 -79 -6 -85
-11 -16 11 -33 86 -66 37 -17 70 -38 73 -47 9 -27 -12 -55 -52 -69 -20 -6 -50
-20 -67 -30 -33 -19 -83 -24 -129 -13 -33 8 -68 -7 -114 -50 -18 -16 -40 -31
-50 -32 -26 -4 -74 19 -120 59 -24 19 -64 43 -89 53 -44 17 -49 17 -94 1 -64
-23 -84 -21 -117 7 -25 22 -28 31 -31 103 -4 91 9 130 62 186 38 41 64 46 141
25 24 -7 47 -10 50 -7 3 3 18 57 34 119 35 135 48 152 129 161 31 3 62 7 68 8
6 0 23 -8 36 -19z m-841 -153 c21 -16 49 -82 49 -115 0 -15 -6 -44 -14 -67 -8
-22 -24 -73 -36 -112 -12 -40 -23 -73 -24 -73 -2 0 -17 5 -34 11 -51 17 -59
60 -27 150 14 40 25 95 25 123 0 91 18 116 61 83z m-396 -270 c7 -21 21 -47
30 -57 15 -16 21 -17 53 -6 21 7 56 16 79 20 36 5 44 3 57 -16 25 -35 18 -73
-22 -116 -7 -8 -19 -27 -27 -42 -14 -28 -14 -29 27 -64 23 -20 45 -36 49 -36
5 0 10 -48 11 -107 l3 -107 43 -8 c23 -4 70 -22 105 -40 53 -28 63 -38 71 -70
7 -28 5 -45 -8 -72 -17 -36 -17 -36 -81 -36 -70 0 -95 6 -95 24 0 9 -40 65
-80 114 -16 18 -81 14 -125 -8 -48 -25 -73 -25 -102 -1 -27 23 -28 40 -8 118
8 31 13 65 10 74 -8 25 -53 41 -137 46 -77 6 -78 6 -78 34 0 29 42 100 79 133
17 16 21 31 21 84 0 46 5 71 18 90 11 15 25 42 33 60 20 47 56 41 74 -11z
m2241 -48 c56 -32 60 -38 44 -69 -13 -24 -89 -37 -121 -20 -36 19 -69 52 -69
68 0 26 32 52 63 52 16 0 54 -14 83 -31z m-81 -145 c18 -7 45 -65 45 -97 0
-13 -22 -42 -54 -73 -54 -51 -56 -51 -108 -47 -62 6 -102 30 -106 66 -4 28 28
57 64 57 23 0 54 29 58 53 5 39 54 59 101 41z m-960 -394 c11 -12 18 -25 16
-29 -2 -3 -15 -24 -29 -46 -14 -21 -28 -51 -32 -65 -5 -22 -13 -25 -53 -28
-43 -3 -48 -1 -67 30 -26 43 -26 107 0 136 11 11 37 24 57 27 21 4 43 8 48 9
14 4 37 -9 60 -34z"/>
<path d="M6613 9773 c-20 -4 -23 -11 -23 -51 l0 -47 85 0 85 0 0 46 c0 40 -3
48 -22 53 -25 6 -90 6 -125 -1z"/>
<path d="M3138 6984 c-30 -15 -39 -40 -12 -30 31 12 7 -18 -30 -37 -20 -11
-44 -30 -53 -43 -8 -13 -23 -24 -32 -24 -12 0 -13 -2 -3 -8 7 -5 10 -16 6 -25
-3 -9 -2 -17 4 -17 5 0 13 -11 16 -25 10 -38 67 -99 78 -83 6 10 10 10 18 -2
5 -8 10 -10 10 -5 0 6 -5 17 -10 25 -9 13 -11 13 -19 0 -9 -12 -11 -12 -17 4
-11 29 17 39 43 14 19 -17 25 -19 38 -8 8 7 15 17 15 22 0 5 9 18 20 30 10 12
17 25 14 29 -7 11 34 31 47 23 6 -3 9 -24 7 -46 -3 -35 -2 -39 17 -34 11 3 25
6 30 6 19 0 44 56 41 91 -6 59 -17 86 -42 99 -13 8 -22 16 -19 18 3 3 -19 13
-47 23 -29 10 -55 15 -58 12 -3 -3 1 -8 8 -10 13 -5 7 -23 -9 -23 -6 0 -7 5
-3 12 5 7 2 9 -9 5 -9 -3 -17 0 -19 8 -2 11 -8 11 -30 -1z"/>
<path d="M4275 6848 c-68 -22 -107 -49 -124 -84 -14 -29 -29 -44 -45 -44 -4 0
-5 8 -1 18 5 13 3 14 -6 5 -6 -6 -18 -9 -27 -6 -11 5 -13 3 -6 -8 9 -15 10
-20 12 -56 3 -32 22 -29 22 3 0 22 2 25 15 14 8 -7 15 -18 15 -26 0 -7 15 -23
33 -35 48 -34 58 -51 53 -86 -2 -17 -2 -34 1 -36 9 -10 63 61 58 75 -7 19 30
54 40 38 4 -6 0 -19 -9 -29 -20 -22 -20 -31 -1 -31 8 0 26 -12 42 -27 17 -18
25 -22 20 -10 -4 11 -2 17 9 17 8 0 20 11 26 25 13 30 33 34 25 5 -3 -10 -2
-19 2 -18 18 2 22 -4 11 -17 -17 -20 9 -21 36 0 10 8 22 15 27 15 15 0 6 -35
-15 -57 -18 -19 -19 -23 -5 -23 17 0 47 36 47 57 0 6 5 24 11 40 l11 28 13
-25 c11 -20 14 -21 15 -7 0 27 -48 86 -89 107 -54 29 -75 50 -100 102 -20 43
-63 89 -80 87 -3 0 -19 -5 -36 -11z"/>
<path d="M3309 6640 c-14 -45 -15 -45 -89 -25 -21 5 -22 5 -7 -5 9 -6 17 -18
17 -27 0 -13 3 -13 15 -3 23 19 28 6 11 -27 -24 -48 -41 -56 -94 -50 -39 6
-54 14 -88 51 -39 43 -42 44 -58 27 -9 -10 -16 -22 -16 -28 0 -5 -9 -18 -20
-28 -11 -10 -20 -23 -20 -30 0 -6 -12 -27 -26 -46 -18 -24 -24 -42 -20 -61 3
-16 2 -28 -3 -28 -5 0 -12 16 -15 35 -6 33 -8 34 -23 19 -14 -13 -15 -34 -9
-146 3 -72 9 -147 12 -167 5 -32 1 -41 -33 -79 l-39 -43 23 -72 c13 -39 36
-84 50 -99 23 -24 34 -28 85 -28 34 0 57 4 53 9 -3 5 -1 12 5 16 5 3 10 2 10
-4 0 -6 6 -8 14 -5 9 3 17 -5 23 -23 10 -28 10 -27 38 34 26 57 30 61 49 50
12 -6 60 -11 109 -11 l87 0 0 -32 c0 -38 -23 -60 -58 -55 -19 2 -23 -1 -19
-12 4 -11 -6 -18 -38 -27 -40 -11 -43 -14 -29 -28 13 -12 20 -13 35 -4 14 9
19 9 19 1 0 -7 9 0 21 15 11 14 26 26 34 26 7 0 15 6 17 12 3 7 18 11 38 10
31 -2 33 -1 18 15 -9 10 -18 33 -20 51 -4 28 0 35 27 52 17 10 51 41 77 68 44
46 46 51 43 100 -2 30 -11 65 -24 85 -12 19 -21 41 -21 48 1 8 8 1 17 -16 8
-16 25 -40 36 -52 11 -13 17 -23 12 -23 -5 0 2 -11 15 -25 13 -14 25 -33 26
-43 2 -9 13 -24 26 -32 12 -8 31 -23 40 -32 24 -24 27 -23 71 16 32 29 35 35
22 46 -8 7 -15 21 -15 31 0 10 -11 30 -25 45 -14 15 -42 61 -62 101 -20 41
-40 76 -45 79 -4 3 -8 13 -8 23 0 10 -9 26 -20 36 -14 13 -20 31 -20 60 0 43
-49 202 -75 241 -20 30 -40 41 -97 49 l-47 7 -12 -42z"/>
<path d="M4586 6237 c20 -60 30 -103 27 -122 -4 -17 -2 -26 4 -22 6 4 21 -5
33 -18 l24 -25 -32 -45 c-32 -46 -39 -69 -23 -79 4 -3 11 -22 14 -42 5 -30 0
-45 -27 -88 -18 -28 -43 -60 -55 -71 -21 -18 -23 -18 -55 -1 -52 28 -108 87
-100 105 21 51 18 56 -45 69 -61 13 -101 44 -116 92 -5 16 -108 80 -129 80
-12 0 -20 -70 -22 -190 -2 -74 -5 -148 -7 -165 -2 -16 -2 -36 1 -43 6 -18 96
-62 127 -62 14 0 25 -4 25 -10 0 -8 39 -19 90 -25 8 -1 22 -5 31 -9 8 -4 32 0
52 9 21 9 42 13 47 10 6 -4 10 -1 10 4 0 6 9 11 20 11 27 0 76 26 83 43 4 12
18 11 86 -3 l81 -18 6 27 c14 62 37 141 61 213 l26 76 -20 29 c-47 66 -73 132
-73 186 l0 54 -35 1 c-40 2 -75 17 -75 34 0 15 -50 88 -60 88 -4 0 8 -42 26
-93z"/>
<path d="M4143 5443 c-19 -7 -16 -102 5 -143 21 -43 53 -51 76 -18 17 23 20
73 10 127 -5 25 -9 29 -20 20 -11 -9 -19 -8 -32 5 -20 17 -20 17 -39 9z"/>
<path d="M3308 5402 c-2 -15 -2 -48 0 -74 3 -42 7 -48 26 -48 16 0 25 -9 34
-35 18 -48 67 -87 106 -83 28 3 31 7 34 40 3 40 -33 106 -86 157 -23 22 -24
23 -18 3 9 -28 -27 -49 -58 -34 -18 8 -22 17 -20 51 2 47 -12 65 -18 23z"/>
<path d="M3359 5022 c-5 -14 -46 -18 -74 -7 -20 7 -20 7 -1 -7 17 -13 18 -20
8 -58 -9 -35 -8 -51 4 -78 13 -32 13 -33 -2 -21 -9 7 -20 22 -24 34 -6 14 -9
16 -9 4 -1 -26 57 -99 79 -99 38 0 54 43 47 131 -6 76 -20 125 -28 101z"/>
<path d="M4296 4936 c-4 -18 -15 -41 -25 -50 -18 -17 -20 -16 -26 3 l-6 20
-35 -21 c-37 -22 -60 -47 -26 -29 30 16 52 13 52 -7 0 -26 -58 -92 -81 -92
-13 0 -19 -7 -19 -21 0 -19 -2 -20 -17 -8 -11 7 -9 3 3 -10 18 -19 28 -22 53
-16 48 10 91 51 91 86 0 16 5 29 10 29 19 0 50 64 50 102 0 48 -16 57 -24 14z"/>
<path d="M1855 4833 c-81 -44 -101 -53 -116 -53 -30 0 -73 -54 -91 -114 -21
-68 -22 -93 -3 -126 8 -14 15 -43 16 -65 0 -22 4 -50 7 -62 8 -23 1 -25 120
22 20 8 66 14 101 15 54 0 68 4 96 28 18 15 49 38 69 52 37 26 56 68 56 123 0
29 -28 87 -41 87 -4 0 -38 25 -74 55 -72 59 -93 64 -140 38z"/>
</g>
</svg>
