<?xml version="1.0" standalone="no"?>
<!DOCTYPE svg PUBLIC "-//W3C//DTD SVG 20010904//EN"
 "http://www.w3.org/TR/2001/REC-SVG-20010904/DTD/svg10.dtd">
<svg version="1.0" xmlns="http://www.w3.org/2000/svg"
 width="720.000000pt" height="1280.000000pt" viewBox="0 0 720.000000 1280.000000"
 preserveAspectRatio="xMidYMid meet">
<metadata>
Created by potrace 1.16, written by Peter Selinger 2001-2019
</metadata>
<g transform="translate(0.000000,1280.000000) scale(0.100000,-0.100000)"
fill="#000000" stroke="none">
<path d="M0 6400 l0 -6400 3600 0 3600 0 0 1029 0 1030 -180 -1 c-100 0 -182
1 -184 3 -2 2 -7 40 -10 85 l-7 81 39 11 c58 18 96 15 117 -8 11 -12 31 -20
52 -20 26 0 36 -6 45 -25 6 -14 18 -25 27 -25 18 0 17 36 -9 575 -17 371 -15
346 -36 358 -10 6 -32 24 -48 41 l-29 31 -168 3 c-93 2 -169 7 -169 12 0 5
-41 12 -91 16 -62 4 -92 11 -96 20 -4 10 -24 14 -67 15 -33 0 -92 4 -131 10
-38 5 -89 9 -112 9 -24 -1 -62 4 -85 11 -24 6 -56 12 -73 14 -67 5 -181 30
-193 42 -16 16 -32 17 -32 2 0 -8 -12 -9 -37 -4 -46 9 -116 14 -201 15 -48 0
-66 4 -79 19 -13 16 -27 19 -85 16 -38 -2 -78 -1 -90 4 -19 7 -18 9 18 31 22
13 48 23 59 22 38 -2 66 -13 60 -22 -3 -5 0 -7 8 -4 7 2 32 1 55 -4 23 -6 40
-7 37 -2 -2 4 8 17 23 30 15 13 86 76 157 140 72 64 168 149 215 189 47 40 91
85 98 99 12 26 11 191 -3 392 -17 252 -17 263 10 435 14 94 28 189 32 213 5
39 3 45 -29 75 -33 31 -122 67 -166 67 -28 0 -30 6 -91 205 -104 338 -191 504
-305 578 -27 18 -54 35 -60 39 -7 4 -5 13 6 25 28 32 58 101 65 148 3 25 9 45
12 45 9 0 31 -83 31 -113 0 -13 -9 -39 -19 -60 -26 -50 -10 -47 18 4 34 60 37
137 11 238 -22 88 -41 133 -69 165 -15 18 -15 18 6 8 33 -18 79 -78 92 -121 6
-21 11 -65 11 -97 0 -85 22 -55 23 33 2 82 -21 137 -90 213 -56 62 -152 115
-195 106 -26 -5 -28 -3 -28 24 0 26 -2 28 -22 21 -17 -6 -22 -16 -21 -35 2
-23 -2 -26 -32 -26 -20 0 -50 10 -71 25 -20 14 -40 23 -42 20 -3 -3 -11 7 -17
22 -10 25 -8 32 17 63 25 33 27 38 16 67 -8 23 -9 41 -2 60 8 23 16 29 47 31
26 2 39 -1 43 -12 3 -8 19 -18 34 -21 17 -4 32 -15 36 -27 4 -14 9 -17 16 -10
29 29 -46 196 -118 265 -154 148 -411 175 -598 62 -32 -19 -68 -35 -81 -35
-39 0 -147 -63 -201 -117 -35 -35 -59 -70 -73 -108 -24 -64 -26 -88 -10 -136
18 -54 27 -54 21 -1 -3 37 1 58 17 88 19 35 20 36 13 9 -4 -16 -7 -54 -7 -83
0 -50 2 -55 47 -97 l48 -44 0 59 c0 53 2 60 19 60 11 0 23 -4 26 -10 3 -5 11
-10 18 -10 18 0 -17 31 -39 34 -12 2 -18 10 -16 22 6 34 39 98 67 129 25 29
26 29 18 5 -17 -52 -7 -136 23 -190 26 -48 102 -126 112 -116 2 3 -2 22 -9 43
-14 42 -16 183 -3 204 5 9 12 -7 20 -46 6 -33 15 -73 19 -89 7 -26 6 -27 -14
-17 -13 7 -21 8 -21 2 0 -6 10 -16 23 -22 12 -6 53 -41 90 -77 37 -35 70 -62
74 -59 3 4 0 15 -8 24 -8 10 5 1 29 -19 44 -40 68 -49 58 -22 -3 8 -2 12 3 9
16 -9 51 -114 51 -151 0 -19 -5 -44 -10 -55 -14 -25 -3 -44 15 -29 13 10 48
101 59 150 6 27 70 70 105 70 31 0 55 -43 48 -86 -11 -68 -64 -116 -176 -160
l-36 -14 43 4 c39 4 42 2 42 -19 0 -26 62 -81 79 -71 16 10 183 -73 227 -114
31 -28 54 -40 88 -45 25 -4 46 -11 46 -16 0 -5 -3 -8 -7 -8 -37 6 -64 -6 -106
-47 -37 -37 -54 -67 -86 -148 -76 -195 -107 -400 -98 -654 6 -189 -4 -259 -44
-292 -20 -17 -59 -110 -59 -141 0 -15 -15 -27 -53 -44 -62 -29 -89 -55 -111
-107 -14 -37 -17 -38 -65 -38 -56 0 -158 22 -217 46 -52 22 -142 91 -159 123
-11 22 -11 30 1 51 7 14 13 38 14 54 l0 28 21 -23 c27 -32 24 -23 -42 106 -31
61 -63 133 -72 160 -23 69 -47 226 -47 305 -1 55 -5 70 -26 95 l-26 30 18 -35
c13 -25 19 -65 22 -145 l4 -110 -22 28 c-27 34 -35 30 -16 -9 53 -109 105
-221 107 -234 4 -22 -11 -90 -19 -90 -5 0 -12 3 -18 8 -5 4 5 -8 22 -26 37
-37 64 -90 64 -123 0 -12 -12 -45 -26 -74 l-27 -52 22 -57 c28 -75 27 -86 -14
-150 -19 -30 -35 -68 -35 -83 0 -39 -11 -74 -20 -68 -5 3 -20 29 -33 59 -23
49 -28 54 -63 59 -48 6 -116 -21 -138 -55 -18 -27 -23 -83 -12 -113 5 -14 -2
-10 -23 13 -20 21 -31 43 -31 61 0 35 -9 61 -21 61 -4 0 -5 -8 -2 -17 5 -13
-2 -12 -37 8 -60 34 -82 78 -77 154 2 33 7 69 11 80 3 11 0 7 -8 -10 -19 -38
-20 -116 -2 -159 8 -18 30 -46 50 -61 42 -32 41 -35 -34 -115 -102 -110 -157
-209 -141 -253 6 -14 19 -34 30 -44 l21 -19 -24 -95 c-43 -167 -59 -269 -50
-303 5 -17 8 -56 7 -86 -2 -30 -4 -311 -5 -625 l-3 -570 230 -5 230 -6 -322
-4 c-500 -7 -478 -7 -478 11 0 9 -5 23 -11 30 -7 8 -15 25 -19 39 -11 40 -88
180 -98 180 -5 0 -6 8 -3 17 4 10 4 14 0 10 -10 -10 -53 56 -80 126 l-24 60
28 31 c17 19 37 64 51 112 78 263 92 299 170 429 89 148 115 196 205 385 74
156 89 218 75 316 -14 105 -47 161 -142 247 -65 57 -144 122 -175 143 -6 4 74
138 111 187 41 54 57 101 57 169 0 26 5 50 10 53 21 13 60 106 60 143 0 22
-10 62 -21 91 l-22 51 23 60 c28 76 24 109 -29 197 -38 65 -41 76 -61 228 -54
420 -82 561 -119 613 -65 92 -170 158 -361 228 -58 21 -107 39 -108 40 -2 2 6
29 19 61 18 48 23 79 24 178 1 70 6 129 13 143 7 12 17 32 24 45 37 69 48 99
48 129 0 25 3 29 10 18 5 -8 10 -28 10 -45 0 -23 3 -27 10 -15 17 26 11 93
-14 146 -13 28 -29 55 -35 58 -16 10 -14 26 3 26 8 0 27 10 41 23 l26 22 -38
1 c-25 0 -60 13 -101 38 l-64 38 28 29 28 29 -50 0 c-27 0 -85 11 -129 25 -44
14 -88 25 -97 25 -22 0 -23 23 -3 40 23 19 18 31 -7 20 -13 -5 -82 -14 -155
-19 -114 -7 -138 -12 -179 -35 -25 -14 -48 -26 -50 -26 -2 0 1 12 7 26 15 40
3 41 -36 4 -24 -23 -38 -47 -42 -72 -4 -31 -11 -39 -32 -44 -43 -10 -108 -52
-131 -85 -29 -40 -22 -45 20 -14 42 31 49 26 15 -11 -34 -36 -58 -84 -79 -153
-20 -68 -20 -121 -2 -166 15 -36 32 -49 22 -17 -3 9 -2 31 3 47 9 28 9 27 10
-16 1 -26 7 -64 15 -85 15 -43 109 -196 150 -244 14 -18 26 -37 26 -43 0 -7
-87 -54 -194 -105 -221 -107 -350 -180 -413 -236 -47 -41 -118 -136 -151 -202
-24 -47 -54 -202 -76 -391 -9 -73 -22 -152 -30 -175 -8 -24 -21 -79 -30 -123
-38 -187 -49 -220 -76 -223 -14 -2 -40 -15 -58 -29 -42 -32 -129 -156 -144
-206 -16 -53 2 -214 38 -338 25 -89 26 -100 20 -249 -9 -200 -7 -205 118 -261
79 -36 96 -40 145 -36 34 3 75 15 105 31 75 40 79 38 115 -62 17 -48 51 -119
76 -157 45 -71 62 -121 51 -151 -12 -31 16 -94 56 -125 36 -29 38 -33 38 -90
0 -40 7 -73 20 -99 11 -22 30 -81 41 -132 15 -68 41 -134 95 -243 41 -83 74
-157 74 -165 0 -8 12 -52 26 -98 21 -71 34 -93 75 -137 l49 -52 6 -116 7 -116
-1067 0 -1066 1 0 1057 c0 781 3 1060 11 1068 9 9 9 23 0 55 -18 65 -11 4104
7 4100 7 -1 18 9 24 23 9 21 18 25 53 25 37 0 42 3 50 32 15 49 39 50 31 2 -8
-58 12 -96 54 -102 87 -12 85 -12 81 43 -9 113 -9 110 28 113 19 2 45 11 57
21 22 18 22 18 4 59 -15 33 -24 42 -44 42 -28 0 -59 -37 -56 -67 4 -37 0 -43
-25 -38 -14 3 -36 7 -49 10 -22 4 -24 9 -20 45 5 36 2 41 -23 51 -36 15 -70
13 -110 -6 -36 -18 -52 -37 -35 -43 27 -9 0 -112 -29 -112 -5 0 -9 179 -9 410
l0 410 3590 0 3590 0 0 1775 0 1775 -3600 0 -3600 0 0 -6400z m6786 3682 c159
-63 211 -265 105 -407 -25 -34 -27 -41 -14 -50 24 -18 0 -52 -48 -67 -33 -9
-47 -9 -72 2 -36 16 -116 15 -165 -1 -47 -15 -97 -4 -117 27 -13 20 -14 28 -4
40 10 12 8 19 -9 37 -37 39 -62 108 -62 171 0 78 16 128 58 176 79 93 205 120
328 72z m-643 2 c52 -18 116 -76 142 -130 60 -126 7 -282 -117 -344 -139 -69
-312 -20 -376 106 -42 84 -38 184 12 267 25 41 43 58 94 84 54 28 75 33 131
33 37 0 88 -7 114 -16z m-5806 -224 c52 -224 51 -200 11 -200 -31 0 -36 4 -41
30 -6 27 -11 30 -42 30 -19 0 -38 0 -42 1 -4 0 -11 -14 -16 -30 -7 -27 -12
-31 -41 -31 l-34 0 14 58 c7 31 26 110 41 175 l27 118 44 -3 45 -3 34 -145z
m373 58 l1 -93 30 38 c23 27 39 37 60 37 16 0 29 -3 29 -6 0 -4 -16 -28 -35
-54 l-34 -47 28 -45 c56 -89 56 -88 17 -88 -30 0 -38 5 -57 40 -26 45 -39 43
-39 -6 0 -31 -2 -34 -30 -34 l-30 0 0 175 0 175 30 0 30 0 0 -92z m1740 -83
l0 -176 -42 1 c-24 1 -54 -1 -68 -5 -43 -11 -77 25 -85 88 -7 58 7 128 30 147
17 14 51 17 83 6 21 -7 22 -5 22 53 l0 61 30 0 30 0 0 -175z m452 83 l3 -92
25 37 c20 30 31 37 58 37 30 0 42 -12 24 -24 -5 -3 -21 -23 -36 -44 l-27 -40
40 -66 41 -66 -35 0 c-30 0 -39 6 -62 43 l-28 42 -3 -42 c-3 -42 -4 -43 -38
-43 l-34 0 0 168 c0 93 3 172 7 175 3 4 19 7 34 7 l28 0 3 -92z m728 27 l0
-66 30 16 c33 17 60 13 85 -11 11 -12 15 -40 15 -120 l0 -104 -30 0 -29 0 -3
92 c-3 83 -5 93 -22 96 -33 7 -46 -25 -46 -110 l0 -78 -30 0 -30 0 0 175 0
175 30 0 30 0 0 -65z m530 4 c0 -58 1 -60 23 -53 76 26 107 -8 107 -118 0 -71
-2 -81 -26 -105 -20 -20 -31 -24 -52 -18 -15 4 -46 6 -69 5 l-43 -1 0 176 0
175 30 0 30 0 0 -61z m-1480 -9 c0 -38 2 -40 30 -40 25 0 30 -4 30 -25 0 -21
-5 -25 -30 -25 l-31 0 3 -67 c3 -66 4 -68 31 -71 21 -3 27 -8 23 -19 -3 -8 -6
-19 -6 -24 0 -16 -73 -10 -92 8 -14 13 -18 31 -18 90 0 66 -2 75 -20 80 -13 3
-20 14 -20 29 0 17 6 24 20 24 17 0 20 7 20 40 0 38 2 40 30 40 28 0 30 -2 30
-40z m-2096 -61 c24 -23 34 -121 17 -172 -15 -44 -59 -66 -97 -48 -14 6 -27
11 -29 11 -3 0 -5 -30 -5 -66 l0 -65 -27 3 -28 3 -3 179 -2 179 37 -5 c21 -3
47 -2 58 3 26 10 55 2 79 -22z m402 21 c8 0 23 -9 34 -20 17 -17 20 -33 20
-121 l0 -101 -32 3 c-18 1 -48 -1 -66 -5 -50 -12 -82 13 -82 64 0 44 20 64 83
81 28 7 37 15 35 27 -5 26 -48 28 -55 3 -6 -25 -51 -29 -60 -5 -13 34 56 90
95 78 8 -2 20 -4 28 -4z m290 0 c39 -15 53 -39 54 -87 l0 -43 -61 0 c-60 0
-60 0 -57 -27 3 -32 44 -46 54 -19 4 10 18 16 35 16 35 0 39 -25 10 -61 -27
-34 -99 -34 -135 0 -23 22 -26 32 -26 96 0 79 20 120 63 128 12 2 25 5 29 6 4
0 19 -4 34 -9z m201 -1 c32 -12 43 -26 43 -56 0 -31 -45 -33 -53 -3 -7 26 -47
27 -47 1 0 -12 12 -23 33 -31 74 -30 97 -83 58 -131 -40 -50 -151 -22 -151 38
0 19 5 23 29 23 21 0 30 -6 34 -21 7 -25 40 -22 45 4 3 12 -9 23 -42 37 -76
32 -89 107 -23 135 39 17 39 17 74 4z m197 -3 c31 -13 53 -55 38 -71 -14 -14
-50 -3 -55 16 -4 13 -12 20 -24 17 -29 -5 -21 -32 15 -50 73 -36 92 -81 53
-129 -15 -19 -29 -24 -66 -24 -37 0 -51 5 -66 24 -29 36 -25 61 10 61 21 0 30
-6 34 -21 7 -25 40 -22 45 3 2 12 -11 24 -43 39 -74 35 -85 107 -21 135 39 17
40 17 80 0z m205 3 c17 -6 36 -19 41 -29 6 -10 10 -62 10 -115 l0 -97 -32 3
c-18 1 -48 -1 -66 -5 -50 -12 -82 13 -82 64 0 44 20 64 83 81 28 7 37 15 35
27 -5 25 -45 27 -58 3 -11 -22 -44 -28 -55 -10 -13 21 5 57 37 72 40 20 46 20
87 6z m319 -22 c16 -15 22 -32 22 -64 l0 -43 -61 0 c-60 0 -60 0 -57 -27 3
-32 44 -46 54 -19 9 23 64 21 64 -2 0 -69 -107 -94 -163 -37 -23 23 -24 151
-1 183 32 46 97 50 142 9z m1000 -3 c18 -21 22 -36 22 -98 0 -58 -4 -76 -20
-94 -43 -45 -130 -36 -157 18 -16 32 -17 121 -1 156 26 56 112 66 156 18z
m240 8 c8 -10 12 -52 12 -119 l0 -103 -30 0 -30 0 0 90 c0 99 -12 119 -50 85
-17 -15 -20 -31 -20 -97 l0 -78 -30 0 -30 0 0 120 0 120 29 0 c16 0 31 -5 33
-11 2 -6 14 -5 33 5 33 17 63 13 83 -12z m530 -8 c15 -17 22 -38 22 -65 l0
-39 -61 0 c-60 0 -60 0 -57 -27 3 -32 44 -46 54 -19 4 10 18 16 35 16 35 0 40
-29 9 -60 -27 -27 -63 -34 -105 -20 -46 15 -55 34 -55 123 0 64 3 76 23 94 12
11 29 23 37 26 28 11 75 -3 98 -29z m539 12 c7 -6 13 -53 15 -116 l3 -105 -32
-3 -33 -3 0 91 c0 72 -3 92 -15 96 -33 13 -45 -15 -45 -102 l0 -84 -35 0 -35
0 0 120 0 120 35 0 c19 0 35 -4 35 -9 0 -6 12 -3 28 4 28 15 58 12 79 -9z
m221 -12 c19 -22 22 -36 22 -120 l0 -95 -42 1 c-24 1 -54 -1 -68 -5 -35 -9
-80 27 -80 64 0 39 19 60 70 75 33 10 46 19 48 35 4 28 -31 29 -51 0 -22 -30
-63 -23 -59 11 10 70 109 91 160 34z m391 25 c36 -13 61 -53 61 -99 l0 -30
-59 0 c-65 0 -73 -5 -64 -38 6 -26 53 -32 53 -7 0 11 11 15 36 15 32 0 35 -2
29 -22 -13 -43 -42 -63 -90 -63 -64 0 -87 27 -93 105 -5 75 11 118 52 136 38
16 36 16 75 3z m204 -3 c15 -8 27 -11 27 -5 0 5 14 9 30 9 l30 0 0 -149 c0
-134 -2 -151 -20 -174 -41 -52 -147 -44 -170 13 -7 16 -9 34 -5 39 10 18 44
12 57 -9 26 -41 78 -15 78 40 0 17 -3 19 -19 10 -36 -19 -78 -12 -100 16 -16
21 -21 41 -21 90 0 72 13 107 44 122 29 14 37 14 69 -2z m285 -22 c19 -22 22
-36 22 -120 l0 -95 -42 1 c-24 1 -54 -1 -68 -5 -34 -9 -80 27 -80 61 0 42 17
62 70 79 37 12 50 22 50 36 0 26 -36 25 -50 -1 -11 -20 -54 -28 -64 -12 -10
16 29 76 54 84 40 11 83 0 108 -28z m-3048 -94 l0 -120 -35 0 -35 0 0 113 c0
63 3 117 7 120 3 4 19 7 35 7 l28 0 0 -120z m2280 63 c19 -91 25 -93 45 -14
17 70 18 71 50 71 l33 0 -24 -82 c-79 -281 -76 -273 -113 -276 -28 -3 -33 -1
-27 14 29 76 29 101 -4 209 -17 59 -34 113 -37 121 -4 10 4 14 29 14 34 0 35
-1 48 -57z m-1972 -3010 c29 -67 38 -113 20 -113 -17 0 -64 -47 -55 -56 3 -3
16 1 29 10 36 25 50 20 46 -16 -2 -24 -9 -34 -23 -36 -11 -2 -28 -14 -37 -25
-20 -25 -23 -42 -7 -31 8 4 9 0 4 -15 -9 -31 12 -26 29 6 14 27 14 26 21 -39
10 -88 1 -133 -51 -265 -24 -62 -44 -117 -44 -124 0 -25 -36 -70 -65 -79 -45
-15 -113 2 -220 55 -49 24 -91 43 -92 41 -2 -2 20 -18 49 -37 50 -31 118 -94
118 -108 0 -4 -11 -22 -25 -41 -14 -19 -25 -38 -25 -44 0 -15 50 35 76 77 21
31 54 51 54 31 0 -23 -51 -89 -80 -104 -83 -42 -236 -53 -305 -21 -82 37 -164
155 -165 237 0 41 32 99 75 134 17 14 18 13 13 -12 -6 -33 7 -27 28 13 19 38
53 36 72 -4 19 -39 27 -27 12 17 -8 26 -17 36 -32 36 -36 0 -157 82 -168 114
-13 37 -13 77 1 113 20 53 53 57 105 11 20 -18 43 -47 51 -66 15 -37 47 -72
66 -72 8 0 12 16 12 48 0 62 11 88 29 73 11 -9 15 0 21 54 8 76 23 86 27 18
l3 -46 73 99 c39 54 72 96 72 94 0 -3 -7 -26 -15 -52 -11 -38 -11 -48 -1 -48
29 0 107 74 136 130 22 41 22 7 1 -49 -14 -38 -16 -51 -6 -51 34 0 115 102
130 163 10 38 18 34 43 -20z m2356 -671 c0 -49 -6 -81 -23 -115 -34 -71 -48
-75 -139 -36 -42 18 -84 39 -92 47 -13 12 -9 13 29 7 40 -7 43 -6 37 13 -5 16
-1 22 16 27 92 25 148 73 148 126 0 18 2 21 13 10 7 -7 12 -38 11 -79z m295
-437 c69 -62 129 -221 150 -395 17 -140 22 -388 11 -526 -17 -205 -66 -445
-115 -558 -26 -61 -119 -150 -247 -237 -65 -44 -118 -82 -118 -84 0 -3 10 -15
22 -27 l21 -21 -21 -8 c-12 -5 -22 -13 -22 -19 0 -5 -7 -10 -15 -10 -8 0 -15
-8 -15 -19 0 -10 -15 -30 -34 -44 -18 -15 -37 -38 -40 -52 -9 -34 -22 -32 -93
14 -68 45 -78 60 -57 90 19 26 12 38 -27 46 -25 6 -39 1 -72 -22 -51 -36 -80
-44 -130 -36 -36 5 -37 6 -21 24 18 20 54 26 54 10 0 -5 -8 -12 -17 -14 -14
-4 -14 -5 3 -6 36 -2 46 21 26 57 -23 42 -107 129 -143 148 -27 13 -32 13 -52
-2 l-22 -16 24 5 c13 3 34 2 47 -3 28 -11 114 -88 114 -103 0 -16 -102 -136
-172 -203 -36 -35 -99 -80 -148 -106 -137 -73 -146 -71 -55 18 44 42 69 70 55
61 -13 -9 -54 -45 -90 -80 -70 -68 -117 -103 -126 -94 -8 8 44 103 85 157 l35
45 -36 -34 c-20 -18 -51 -60 -68 -92 -17 -32 -35 -61 -40 -64 -16 -10 -11 49
10 116 10 35 18 65 16 66 -5 5 -35 -78 -42 -117 -4 -19 -11 -40 -16 -46 -12
-16 1 -44 17 -38 7 3 16 1 19 -5 8 -12 31 -5 68 21 14 10 37 18 50 18 25 0
218 107 255 142 20 19 26 20 69 9 97 -25 140 -59 228 -180 l46 -65 -28 -29
c-25 -27 -181 -134 -264 -181 -19 -11 -28 -21 -20 -23 7 -3 19 0 26 6 38 32
127 -45 164 -144 32 -82 74 -293 66 -329 -15 -70 -84 -117 -148 -100 -14 3
-128 108 -259 237 -184 183 -239 244 -260 287 -38 78 -48 141 -36 222 6 37 9
76 7 85 -2 10 -10 -19 -17 -65 -25 -151 -2 -225 107 -350 60 -69 63 -74 45
-87 -39 -31 -80 -19 -191 57 -146 99 -256 212 -307 314 -37 74 -40 84 -39 164
0 54 9 116 23 170 22 84 73 198 95 212 6 4 41 8 78 8 l66 0 5 -47 c5 -57 34
-164 48 -178 5 -5 3 10 -6 34 -20 57 -12 64 14 12 24 -46 27 -75 9 -66 -7 4
-3 -2 10 -13 12 -11 22 -28 22 -39 0 -30 12 -63 22 -63 5 0 6 10 2 23 -11 36
-5 104 15 165 21 62 19 84 -2 33 l-14 -32 -17 46 c-10 25 -20 44 -23 42 -2 -3
3 -22 11 -42 18 -42 21 -115 6 -115 -5 0 -10 6 -10 13 0 7 -18 44 -41 82 -33
57 -40 76 -35 105 3 19 12 79 20 132 9 53 13 104 10 113 -18 45 47 105 113
105 39 0 51 -10 76 -63 28 -58 143 -179 166 -173 100 26 141 43 141 58 0 21
46 76 84 99 16 10 41 39 55 65 14 27 37 54 51 60 81 37 83 38 97 89 21 72 52
107 117 132 l57 22 11 -25 c19 -41 27 -27 10 17 -13 35 -14 48 -3 87 17 65 37
92 67 92 28 0 99 33 110 52 5 7 -4 5 -19 -4 -14 -10 -30 -18 -35 -18 -18 0
-22 112 -8 208 8 54 22 149 31 212 31 224 104 474 160 550 32 43 100 90 131
90 13 0 41 -16 63 -35z m-3301 -582 c9 -9 17 -21 17 -27 0 -6 28 -24 63 -41
34 -17 69 -38 78 -46 14 -14 12 -19 -19 -46 -19 -17 -38 -39 -41 -49 -3 -11
-21 -26 -39 -35 -22 -11 -32 -23 -31 -38 0 -17 -5 -21 -32 -21 -18 0 -34 5
-36 10 -2 6 -21 17 -43 24 -34 12 -41 19 -43 44 -2 17 4 42 14 56 16 25 16 38
-2 110 -5 19 -3 27 4 22 6 -3 19 5 29 18 11 13 28 26 39 29 10 2 20 5 22 6 2
0 11 -7 20 -16z m792 -343 c19 -10 19 -11 -7 -52 -36 -58 -41 -117 -14 -163
11 -20 21 -40 21 -45 0 -6 -16 -30 -35 -56 -23 -29 -35 -39 -35 -28 0 10 -10
38 -22 62 -18 38 -19 49 -10 77 16 44 15 107 -3 131 -21 28 -18 47 17 104 l32
51 18 -35 c10 -19 27 -40 38 -46z m87 -575 c71 -21 87 -43 79 -102 -21 -156
-25 -196 -26 -271 0 -88 -16 -127 -66 -165 -23 -17 -24 -17 -24 0 1 10 7 29
15 43 19 33 19 49 0 24 -8 -10 -22 -40 -30 -66 -15 -42 -73 -108 -97 -108 -4
0 13 42 37 93 43 93 64 148 50 135 -4 -4 -24 -45 -45 -92 -47 -106 -73 -142
-106 -150 -36 -9 -53 8 -31 31 18 21 89 201 84 216 -1 5 -18 -31 -36 -79 -19
-49 -49 -109 -67 -133 -19 -24 -34 -47 -34 -52 0 -13 23 -16 65 -7 22 5 52 11
66 13 25 3 26 1 19 -25 -11 -37 -28 -69 -56 -102 -12 -15 -27 -51 -33 -80 -5
-29 -20 -102 -31 -163 -14 -70 -36 -142 -60 -197 -22 -47 -42 -97 -45 -111 -4
-14 -26 -45 -49 -69 -31 -33 -47 -60 -58 -104 -20 -75 -30 -163 -22 -203 8
-40 70 -110 131 -149 49 -31 63 -52 103 -152 12 -30 28 -62 36 -71 8 -8 14
-19 14 -24 0 -5 9 -19 21 -31 l21 -22 -191 1 -191 2 -10 35 c-6 19 -15 67 -21
105 -9 67 -49 248 -91 420 -13 51 -23 143 -28 255 -11 200 -20 262 -52 322
-18 34 -22 58 -20 115 1 40 -4 85 -10 100 -9 22 -19 143 -11 143 1 0 11 -15
22 -34 15 -24 22 -54 24 -105 3 -76 13 -95 52 -96 13 -1 31 -7 39 -14 28 -23
90 -4 129 40 20 21 40 39 45 39 17 0 72 131 72 176 1 26 -53 184 -62 184 -13
0 -9 -16 18 -85 19 -47 25 -77 21 -103 -6 -47 -46 -152 -57 -152 -5 0 -1 18 7
40 15 37 14 47 -5 142 -12 56 -27 106 -33 112 -9 8 -10 5 -6 -14 4 -14 14 -65
23 -113 l16 -89 -27 -69 c-45 -110 -77 -122 -55 -20 16 77 3 231 -20 231 -5 0
-5 -15 0 -32 26 -102 15 -238 -24 -276 -22 -22 -50 13 -41 52 15 73 16 133 2
176 l-15 45 5 -60 c6 -75 -17 -190 -37 -190 -11 0 -17 19 -23 73 -9 80 -54
188 -100 238 -22 23 -53 80 -104 189 -8 17 -25 45 -38 64 -14 19 -25 39 -25
46 0 18 71 86 107 101 46 20 65 9 176 -94 53 -49 131 -116 174 -148 73 -56 79
-64 110 -139 23 -58 32 -72 33 -52 0 21 5 27 23 27 19 0 25 -8 33 -42 5 -23
14 -43 21 -45 9 -3 9 3 1 25 -9 24 -8 41 6 85 34 109 61 316 36 277 -5 -8 -10
-33 -10 -55 -1 -42 -34 -202 -44 -212 -3 -4 -6 7 -6 24 0 16 -5 44 -11 61 -9
27 -6 47 26 141 36 109 37 111 104 171 38 33 74 75 81 92 17 42 49 78 70 78 9
0 39 -7 67 -15z m-1550 -157 c-8 -12 -18 -39 -21 -58 -3 -19 -3 -29 0 -21 5
10 8 10 14 1 5 -8 9 -5 13 9 3 13 1 19 -5 15 -6 -4 -8 2 -6 12 3 16 11 19 56
16 38 -1 51 1 46 9 -4 7 11 2 34 -11 23 -13 39 -27 36 -31 -3 -5 1 -6 9 -3 8
3 22 -2 31 -11 11 -12 25 -15 44 -11 21 5 24 4 12 -5 -12 -8 -9 -9 13 -4 16 3
26 2 23 -3 -7 -11 32 -44 44 -37 5 3 12 0 16 -6 4 -8 3 -9 -4 -5 -32 19 -1
-15 118 -132 134 -131 167 -182 119 -182 -22 0 -22 0 -3 -14 15 -12 17 -17 7
-27 -11 -11 -13 -10 -13 3 0 18 -56 29 -87 17 -16 -7 -17 -8 0 -8 21 -1 23
-21 2 -21 -8 0 -15 -6 -15 -12 0 -9 -4 -8 -11 2 -9 12 -10 10 -5 -9 4 -18 -3
-32 -27 -56 l-32 -32 3 -96 c2 -56 -1 -97 -6 -97 -5 0 -12 -17 -16 -37 -3 -21
-9 -51 -12 -68 -4 -26 -1 -32 22 -42 16 -7 34 -13 41 -13 10 0 13 -42 13 -195
0 -107 0 -198 -1 -201 0 -4 5 -11 13 -16 10 -7 10 -11 1 -15 -7 -2 -13 -12
-13 -21 -1 -14 -3 -14 -16 3 -8 11 -13 28 -11 37 3 10 0 16 -6 15 -20 -4 -106
183 -131 283 -13 53 -31 111 -41 129 -18 35 -18 35 1 249 7 79 -3 105 -27 76
-12 -16 -12 -17 4 -11 20 7 20 1 11 -91 l-7 -61 -31 26 c-41 34 -66 73 -66
102 0 14 17 59 39 100 42 84 57 131 41 131 -5 0 -11 -7 -11 -15 -2 -23 -3 -27
-27 -79 -12 -27 -22 -52 -22 -57 0 -5 -4 -9 -10 -9 -5 0 -10 6 -10 13 0 8 -18
42 -40 76 -56 86 -89 168 -135 334 -12 43 -11 54 5 102 22 63 40 99 47 92 2
-3 -2 -16 -10 -29z m2374 -32 c6 -21 21 -49 34 -62 20 -20 21 -24 7 -25 -14 0
-13 -2 3 -8 11 -5 23 -7 28 -4 4 2 7 -1 7 -7 0 -8 -13 -10 -40 -5 -21 4 -65 1
-97 -5 -32 -7 -68 -12 -80 -12 -13 0 -23 -5 -23 -11 0 -6 -3 -8 -6 -4 -7 7 58
110 105 163 39 46 44 44 62 -20z m1001 -661 c14 -6 15 -28 5 -95 -8 -47 9
-322 24 -390 6 -30 22 -92 35 -137 24 -80 24 -83 6 -101 -17 -17 -19 -17 -58
28 -47 53 -73 116 -108 264 -14 60 -36 132 -49 160 -27 59 -79 122 -108 131
-16 6 -4 17 68 62 108 68 157 89 185 78z"/>
<path d="M6613 9773 c-20 -4 -23 -11 -23 -51 l0 -47 85 0 85 0 0 46 c0 40 -3
48 -22 53 -25 6 -90 6 -125 -1z"/>
<path d="M618 8578 c-8 -7 -25 -28 -37 -45 -12 -18 -33 -36 -47 -39 -13 -3
-24 -10 -24 -15 0 -5 -7 -9 -15 -9 -16 0 -20 -27 -6 -48 8 -14 100 -8 133 9
11 6 34 2 68 -11 28 -11 57 -20 64 -20 23 0 64 46 75 85 12 45 5 65 -23 65
-12 0 -39 9 -61 20 -44 23 -104 26 -127 8z"/>
<path d="M965 8408 c-3 -7 -17 -14 -31 -14 -48 -3 -93 -15 -106 -27 -15 -15
-108 -47 -135 -47 -10 0 -27 7 -37 15 -26 20 -71 19 -101 -1 -18 -12 -35 -14
-61 -10 l-35 7 7 -47 c8 -54 -4 -67 -47 -52 -44 15 -94 7 -94 -17 0 -14 11
-22 43 -32 46 -13 92 -4 92 19 0 8 13 13 30 14 17 1 42 12 56 25 21 20 27 21
34 9 5 -8 10 -26 10 -39 0 -22 3 -23 43 -18 23 2 49 6 57 8 12 3 14 -7 12 -53
-3 -58 -3 -58 26 -58 31 0 132 46 132 61 0 5 6 9 14 9 14 0 86 76 86 92 0 12
64 38 95 38 15 0 24 4 20 9 -3 5 -1 12 4 15 11 7 -2 71 -19 91 -15 18 -89 20
-95 3z"/>
<path d="M175 7856 c-14 -29 -22 -61 -19 -70 8 -21 90 -70 103 -61 6 3 9 37 8
75 -2 51 -8 75 -22 90 -28 31 -42 24 -70 -34z"/>
<path d="M391 7371 c-12 -12 -22 -31 -22 -43 -3 -54 3 -113 12 -124 7 -9 -3
-17 -38 -30 -26 -10 -49 -18 -51 -19 -3 -2 17 -65 30 -92 6 -13 21 -26 32 -29
12 -4 37 -20 57 -35 52 -41 61 -36 38 16 -20 45 -43 151 -41 191 1 11 11 41
22 67 37 84 11 148 -39 98z"/>
<path d="M1247 7214 c-3 -3 -3 -45 0 -92 5 -82 3 -91 -26 -152 -45 -95 -42
-108 15 -65 18 14 36 25 41 25 4 0 18 17 30 39 22 38 22 71 0 99 -5 7 -7 33
-3 60 5 40 3 52 -14 70 -21 22 -32 27 -43 16z"/>
<path d="M746 6691 c-13 -14 -16 -28 -11 -53 7 -37 -10 -59 -55 -73 -14 -4
-37 -18 -52 -30 -15 -13 -45 -26 -67 -30 -63 -10 -74 -30 -69 -125 3 -85 11
-100 55 -100 25 0 61 -43 41 -48 -7 -2 -23 -8 -36 -15 -30 -14 -9 -27 33 -20
42 7 53 -18 25 -54 -11 -14 -20 -38 -20 -53 0 -15 -7 -33 -15 -40 -14 -12 -14
-36 0 -73 9 -22 -22 -70 -40 -63 -7 2 -19 -2 -26 -10 -10 -12 -8 -29 10 -87
11 -40 20 -92 19 -117 -1 -25 -1 -71 0 -104 2 -58 2 -58 30 -51 15 3 38 8 51
9 41 4 51 31 51 132 0 107 6 118 107 195 32 24 60 46 63 49 3 3 14 10 25 16
17 9 20 22 21 80 1 56 0 59 -3 15 -4 -59 -21 -80 -61 -81 -13 0 -38 -12 -57
-26 -29 -22 -36 -24 -54 -12 -25 15 -27 42 -6 91 8 20 15 58 15 84 0 40 7 58
48 118 26 38 53 76 59 83 21 22 27 63 12 73 -8 5 -15 4 -17 -1 -2 -6 -10 -10
-18 -10 -8 0 -14 -4 -14 -9 0 -5 -12 -17 -27 -26 -25 -17 -27 -17 -40 1 -28
37 11 195 77 316 14 24 12 37 -4 54 -19 19 -30 18 -50 -5z"/>
<path d="M1167 6292 c-3 -26 -12 -78 -21 -117 -31 -127 -32 -117 16 -147 l43
-27 14 37 c15 42 26 261 14 278 -4 6 -20 14 -35 17 -25 7 -26 5 -31 -41z"/>
<path d="M4415 5983 c9 -20 32 -41 55 -53 23 -12 40 -28 40 -38 0 -35 49 -118
93 -159 104 -96 283 -92 443 8 147 93 162 164 49 228 -73 41 -83 34 -13 -9 62
-38 68 -45 68 -83 0 -40 -14 -62 -63 -95 -121 -83 -197 -107 -315 -100 -124 7
-183 49 -231 161 -29 68 -28 77 14 77 31 0 40 -6 81 -62 25 -35 48 -65 50 -68
13 -13 -13 41 -38 78 -31 47 -33 52 -18 52 5 0 38 18 72 40 35 22 60 40 57 40
-3 0 -33 -11 -66 -24 -33 -14 -90 -31 -127 -37 -61 -12 -71 -11 -102 6 -19 10
-34 21 -34 25 0 3 -7 15 -15 26 -14 17 -14 15 0 -13z"/>
<path d="M600 4964 c-6 -14 -10 -28 -10 -31 0 -4 -9 -26 -21 -50 -24 -49 -19
-75 16 -91 18 -8 30 -8 47 1 48 25 48 25 28 70 -11 23 -20 61 -20 85 0 49 -24
59 -40 16z"/>
<path d="M339 4733 c-37 -84 -39 -98 -18 -132 20 -32 38 -38 69 -21 23 12 48
4 52 -18 3 -14 4 -14 18 1 8 8 38 40 66 69 60 61 75 95 47 105 -10 3 -31 15
-46 26 -22 15 -34 17 -50 10 -12 -6 -31 -7 -42 -2 -11 4 -33 8 -48 8 -24 1
-31 -6 -48 -46z"/>
<path d="M375 4493 c-16 -9 -51 -33 -77 -55 -25 -21 -61 -43 -78 -50 l-32 -11
7 -72 c4 -51 3 -79 -6 -93 -14 -22 -6 -52 14 -52 7 0 23 17 35 38 12 21 39 58
60 83 50 58 110 158 118 198 7 35 2 37 -41 14z"/>
</g>
</svg>
