<?xml version="1.0" standalone="no"?>
<!DOCTYPE svg PUBLIC "-//W3C//DTD SVG 20010904//EN"
 "http://www.w3.org/TR/2001/REC-SVG-20010904/DTD/svg10.dtd">
<svg version="1.0" xmlns="http://www.w3.org/2000/svg"
 width="720.000000pt" height="1280.000000pt" viewBox="0 0 720.000000 1280.000000"
 preserveAspectRatio="xMidYMid meet">
<metadata>
Created by potrace 1.16, written by Peter Selinger 2001-2019
</metadata>
<g transform="translate(0.000000,1280.000000) scale(0.100000,-0.100000)"
fill="#000000" stroke="none">
<path d="M0 6400 l0 -6400 3600 0 3600 0 0 1030 0 1030 -48 0 c-90 0 -85 -28
-94 513 -4 260 -11 505 -15 545 -5 47 -5 77 2 84 7 8 6 9 -2 4 -7 -4 -13 4
-15 21 -3 25 -9 29 -63 42 -33 7 -68 17 -77 22 -10 5 -60 8 -112 7 -105 -3
-117 -11 -90 -64 8 -14 14 -37 14 -50 0 -12 5 -26 10 -29 6 -3 10 -15 10 -26
0 -10 4 -19 10 -19 5 0 9 -11 8 -25 -2 -23 -7 -25 -46 -25 -25 0 -50 -6 -58
-15 -9 -8 -31 -15 -50 -15 -28 0 -36 -5 -44 -25 -13 -35 -50 -32 -95 7 -53 47
-76 96 -65 139 13 56 21 69 44 69 33 0 47 14 56 53 9 40 -10 67 -46 67 -11 0
-25 9 -31 19 -11 17 -24 20 -84 19 -43 0 -74 4 -78 11 -5 7 -84 13 -237 17
-166 5 -238 10 -260 21 -17 8 -56 14 -85 15 -30 0 -58 4 -64 8 -19 14 -70 21
-179 26 -69 4 -117 11 -126 18 -22 19 -78 28 -84 13 -3 -9 -5 -9 -5 0 -1 6 20
23 45 37 l45 25 77 -18 c99 -24 79 -36 316 183 55 50 135 119 178 154 112 91
112 89 104 306 -4 100 -11 242 -16 316 -9 121 -7 150 14 290 41 262 41 261 15
294 -24 31 -77 57 -156 75 -50 12 -53 15 -64 54 -52 195 -137 434 -196 552
-35 68 -105 147 -167 186 -28 18 -53 34 -55 36 -2 1 3 11 12 21 23 25 67 128
67 157 0 39 18 38 29 -2 15 -54 14 -99 -5 -134 -24 -47 -11 -44 17 4 21 36 24
54 23 132 0 72 -6 105 -28 165 -16 41 -37 85 -49 98 -11 12 -16 22 -10 22 19
0 90 -86 104 -126 7 -21 13 -65 13 -97 -1 -42 2 -55 10 -47 6 6 11 43 11 83 0
60 -5 80 -28 122 -59 106 -191 206 -252 191 -34 -9 -38 7 -18 63 15 44 16 58
4 128 -15 90 -63 202 -110 255 -147 168 -446 205 -636 78 -22 -14 -52 -27 -68
-28 -61 -4 -191 -90 -236 -156 -15 -22 -36 -62 -45 -87 -15 -40 -16 -55 -6
-103 14 -70 31 -83 24 -19 -3 34 1 60 14 88 l18 40 -4 -67 c-6 -88 1 -112 40
-139 29 -21 31 -21 24 -3 -12 27 -20 70 -13 63 4 -3 13 -30 21 -60 l15 -54 0
63 c1 58 3 62 24 62 13 0 28 -5 35 -12 9 -9 12 -9 12 0 0 15 -37 35 -50 27
-19 -12 -10 33 20 92 46 92 57 95 52 17 -3 -46 1 -78 13 -112 20 -50 98 -142
123 -142 12 0 12 3 1 16 -17 21 -25 195 -10 220 9 17 10 16 11 -8 0 -14 8 -54
19 -87 18 -58 18 -60 1 -51 -23 12 -30 13 -30 1 0 -5 12 -14 28 -20 15 -6 56
-41 91 -76 66 -67 96 -85 63 -37 -10 15 -22 34 -26 42 -4 8 1 4 11 -10 28 -40
80 -90 93 -90 7 0 9 8 5 21 -15 47 15 6 35 -49 18 -46 21 -70 17 -127 l-6 -70
20 24 c10 13 29 54 40 92 21 70 43 96 102 118 36 14 67 -17 67 -68 0 -69 -68
-140 -158 -164 -23 -6 -42 -15 -42 -19 0 -12 44 -10 57 3 9 9 13 2 18 -24 6
-32 17 -42 79 -81 119 -75 116 -72 116 -121 0 -37 -5 -47 -34 -72 -99 -81
-208 -123 -321 -123 -126 0 -210 58 -254 175 -12 32 -20 59 -19 60 2 2 17 6
34 9 27 6 34 3 60 -31 16 -20 39 -53 51 -73 33 -53 28 -25 -8 38 -17 30 -29
55 -27 57 2 1 32 22 68 45 36 23 56 39 45 35 -126 -46 -166 -57 -215 -58 -32
-1 -56 -5 -53 -9 2 -5 10 -8 17 -8 6 0 17 -19 23 -42 16 -57 63 -129 106 -162
106 -81 292 -64 450 41 124 82 131 162 20 217 -88 43 -55 40 38 -3 47 -22 104
-58 127 -80 28 -26 53 -41 70 -42 15 0 36 -4 47 -9 18 -8 18 -9 2 -9 -33 -2
-92 -39 -122 -78 -101 -129 -169 -472 -164 -832 3 -185 -4 -228 -37 -243 -19
-9 -30 -29 -47 -86 -22 -74 -23 -75 -74 -99 -58 -27 -86 -56 -103 -109 -11
-33 -13 -34 -63 -34 -124 1 -250 48 -335 124 -50 46 -67 86 -42 101 6 3 10 23
11 43 0 35 1 36 14 17 43 -61 39 -48 -18 66 -36 69 -74 155 -86 190 -25 77
-51 240 -51 327 0 34 -4 62 -8 62 -5 0 -14 12 -21 26 -6 15 -14 25 -16 22 -2
-2 4 -22 14 -44 13 -27 21 -72 25 -148 l5 -110 -19 32 c-11 18 -24 32 -29 32
-10 0 8 -41 61 -145 52 -102 60 -136 46 -180 -13 -38 -13 -41 15 -77 40 -50
46 -111 18 -166 -24 -48 -26 -87 -6 -122 20 -34 19 -91 -2 -120 -35 -49 -53
-95 -53 -132 0 -56 -14 -53 -46 9 -21 41 -37 59 -58 66 -35 12 -90 -4 -130
-36 -25 -20 -30 -31 -30 -72 -1 -30 4 -50 12 -52 8 -3 12 10 12 44 0 69 30 97
103 98 l52 0 28 -55 c16 -30 51 -78 79 -107 28 -28 47 -56 44 -62 -11 -17 32
-13 94 9 30 11 63 19 73 20 10 0 17 8 17 19 0 25 41 74 86 101 21 13 45 42 60
72 19 38 34 53 62 64 60 24 63 27 87 93 27 74 43 92 105 116 25 9 50 19 56 22
6 2 14 -7 18 -21 3 -14 11 -26 16 -26 5 0 2 19 -6 43 -26 72 11 177 62 177 40
0 91 29 143 79 26 25 31 32 12 15 -46 -40 -82 -64 -97 -64 -19 0 -24 107 -8
203 9 51 16 101 16 112 4 115 75 431 125 556 45 113 118 189 184 189 65 0 156
-149 190 -314 24 -113 43 -440 35 -597 -11 -207 -74 -517 -125 -618 -39 -76
-258 -247 -437 -341 -61 -33 -126 -39 -197 -19 -35 9 -41 8 -79 -20 -35 -26
-51 -31 -100 -31 -32 0 -58 4 -58 8 0 15 24 32 47 32 27 0 31 -16 6 -23 -14
-4 -13 -5 4 -6 12 0 24 3 28 9 18 29 -94 175 -155 200 -24 10 -33 9 -52 -5
l-23 -17 28 6 c35 8 77 -13 127 -66 l40 -40 -59 -72 c-32 -39 -83 -95 -112
-123 -57 -56 -214 -155 -264 -167 -26 -6 -18 4 55 74 47 45 76 77 65 72 -11
-6 -51 -42 -90 -82 -69 -70 -131 -117 -141 -107 -10 9 55 118 108 180 l52 62
-53 -50 c-28 -27 -68 -78 -87 -112 -47 -84 -59 -90 -51 -25 6 56 41 146 67
177 31 37 32 50 1 15 -33 -38 -67 -117 -77 -180 -8 -50 -21 -51 -30 -4 -17 93
18 193 107 303 29 35 47 62 42 60 -21 -8 -122 -141 -133 -175 l-12 -36 -23 49
c-13 26 -24 44 -24 40 -1 -4 6 -22 15 -38 9 -18 14 -48 12 -77 l-3 -47 -22 46
c-12 26 -33 66 -48 89 -24 38 -25 45 -16 93 6 29 13 77 16 107 6 53 5 56 -24
72 -22 12 -31 26 -36 55 -3 21 -10 47 -15 58 -8 19 -9 19 -9 1 -1 -16 -4 -17
-13 -8 -15 15 -32 16 -23 2 9 -14 -15 -49 -79 -119 -70 -76 -117 -153 -123
-200 -5 -34 -1 -44 22 -67 l28 -28 -27 -105 c-14 -58 -27 -122 -27 -141 l-1
-35 -8 30 c-7 26 -8 23 -10 -25 -2 -30 -4 -389 -4 -797 l-1 -741 30 -8 c63
-16 -212 -30 -332 -18 l-60 7 13 26 c8 14 14 46 14 69 0 61 -66 214 -135 312
-31 43 -66 108 -79 144 l-24 65 24 22 c23 21 40 65 84 219 43 148 65 197 158
353 52 87 112 197 134 245 22 48 55 117 74 153 51 100 68 187 55 278 -6 41
-20 92 -30 115 -24 54 -235 256 -267 256 -8 0 -14 9 -14 21 0 11 -8 34 -17 50
-15 24 -15 32 -3 53 7 14 26 31 42 38 17 8 31 23 34 38 8 39 19 55 43 58 11 2
21 8 21 13 0 5 6 9 14 9 17 0 26 31 26 88 0 32 8 55 31 88 48 70 53 102 29
173 -24 72 -25 97 -5 144 25 61 19 102 -30 192 -40 75 -46 93 -59 201 -60 480
-82 588 -136 662 -53 74 -177 149 -340 208 -41 14 -85 30 -97 35 l-21 8 20 53
c14 35 21 83 24 143 l3 90 -9 -90 c-6 -69 -17 -114 -48 -190 -21 -55 -47 -121
-57 -148 -9 -26 -26 -52 -37 -58 -49 -27 -144 -5 -267 62 -30 16 -56 27 -58
25 -3 -2 17 -19 44 -36 59 -40 113 -90 113 -105 0 -6 -11 -26 -25 -45 -14 -19
-25 -38 -25 -44 0 -14 58 44 82 82 19 31 48 44 48 21 0 -15 -45 -79 -68 -95
-27 -19 -137 -44 -195 -44 -116 0 -186 43 -252 154 -45 76 -46 121 -6 179 16
23 38 50 49 61 21 18 21 18 12 -15 l-9 -34 19 24 c11 13 20 29 20 37 0 9 11
14 29 14 22 0 31 -6 41 -30 17 -40 31 -48 20 -12 -14 49 -30 72 -51 72 -23 0
-102 42 -136 73 -27 24 -37 65 -28 117 8 47 27 70 58 70 26 0 107 -72 107 -95
0 -17 52 -75 67 -75 4 0 8 21 8 48 0 66 9 86 34 73 18 -10 19 -7 20 51 0 33 5
66 10 71 8 8 11 -3 11 -35 0 -26 5 -50 10 -53 6 -3 10 -2 10 3 0 5 29 49 65
97 65 87 75 92 51 23 -11 -30 -11 -38 -1 -38 24 0 92 58 123 106 36 53 38 50
17 -20 -8 -27 -13 -52 -10 -54 18 -19 106 86 126 151 7 20 16 37 21 37 13 0
58 -101 58 -132 0 -17 -7 -29 -19 -33 -23 -7 -56 -43 -48 -51 4 -4 18 1 32 10
15 10 33 15 40 12 20 -7 3 -60 -21 -64 -10 -2 -27 -14 -36 -25 -19 -24 -24
-42 -8 -32 6 3 10 -3 10 -15 0 -26 18 -17 31 17 5 13 13 21 19 18 5 -3 10 1
10 10 0 16 1 19 49 111 19 38 31 77 31 100 0 29 3 35 10 24 5 -8 10 -25 10
-37 0 -13 5 -23 10 -23 15 0 12 96 -5 136 -8 19 -24 47 -35 61 l-21 27 28 11
c15 7 35 20 43 30 14 17 13 17 -9 10 -17 -5 -40 2 -87 26 -85 43 -93 53 -65
83 l23 24 -54 4 c-42 3 -220 45 -237 55 -2 1 4 14 13 27 19 30 21 45 4 28 -7
-7 -41 -12 -82 -12 -116 -1 -214 -17 -264 -45 l-44 -25 6 30 c7 37 -3 38 -36
3 -32 -35 -48 -66 -48 -92 0 -15 -10 -23 -43 -32 -51 -13 -96 -46 -120 -88
l-18 -32 33 21 c47 28 54 25 24 -11 -26 -30 -35 -56 -16 -44 16 10 50 -19 50
-42 0 -13 5 -23 10 -23 6 0 10 -8 10 -17 0 -10 9 -33 20 -51 24 -39 25 -43 5
-36 -8 4 -15 12 -15 19 0 21 -27 38 -36 24 -4 -7 -2 -15 4 -17 7 -2 0 -15 -17
-33 -35 -35 -41 -36 -41 -7 0 19 -3 18 -25 -12 -14 -19 -25 -27 -25 -19 0 12
-2 12 -9 0 -5 -8 -5 -27 1 -45 17 -51 28 -53 29 -6 l1 45 8 -48 c5 -27 13 -62
19 -79 15 -41 125 -220 151 -243 39 -35 26 -49 -87 -101 -238 -108 -425 -213
-506 -284 -48 -42 -120 -142 -146 -203 -25 -57 -56 -223 -71 -372 -14 -133
-37 -228 -56 -221 -7 3 -17 -1 -24 -8 -8 -10 -7 -15 4 -19 8 -3 17 -1 20 6 10
27 5 -32 -8 -83 -8 -30 -22 -90 -31 -132 -15 -68 -20 -78 -39 -78 -11 0 -35
-9 -53 -20 -62 -37 -163 -201 -163 -264 0 -59 29 -226 51 -293 18 -55 20 -84
18 -237 -2 -146 0 -178 13 -198 9 -14 55 -43 105 -67 83 -40 92 -42 148 -36
33 3 74 14 90 24 17 9 44 22 62 28 l31 11 29 -81 c15 -45 52 -122 82 -171 50
-83 54 -93 52 -148 -2 -63 9 -92 46 -121 13 -10 21 -23 17 -28 -3 -5 0 -8 8
-7 9 2 14 -15 18 -62 3 -36 13 -78 22 -95 8 -16 28 -79 43 -140 19 -77 45
-145 85 -225 32 -63 65 -137 74 -165 8 -27 25 -84 38 -125 19 -63 30 -83 72
-124 l51 -49 5 -115 c4 -94 8 -117 22 -126 23 -14 32 -2 30 40 -2 29 3 42 28
65 16 16 37 29 45 29 10 0 15 10 15 33 0 17 -4 27 -8 21 -4 -6 -13 -4 -24 8
-10 10 -13 18 -7 18 13 0 33 20 42 42 8 22 21 23 37 3 7 -9 22 -12 39 -9 20 4
30 1 34 -10 4 -9 13 -16 22 -16 10 0 15 -10 15 -30 0 -18 6 -33 15 -36 8 -4
15 -17 15 -30 0 -24 27 -64 43 -64 14 0 -3 119 -43 300 -11 47 -22 101 -25
120 -4 19 -15 64 -25 100 -12 42 -21 117 -24 210 -8 183 -21 266 -56 354 -23
59 -27 82 -23 132 4 43 1 69 -10 90 -11 22 -14 44 -9 84 l7 54 18 -39 c9 -22
21 -74 25 -115 7 -74 7 -75 37 -78 17 -2 38 -11 47 -19 14 -12 27 -14 65 -7
38 7 52 16 68 41 11 18 28 35 38 38 22 8 45 52 67 131 l18 62 -29 83 c-29 84
-35 96 -44 87 -3 -2 8 -41 24 -85 28 -76 29 -83 17 -129 -16 -57 -46 -124 -57
-124 -5 0 -1 17 8 37 16 41 14 86 -13 206 -23 99 -34 73 -13 -30 25 -120 23
-148 -14 -223 -36 -73 -66 -96 -51 -39 15 55 11 246 -5 261 -11 11 -12 7 -7
-22 17 -95 17 -157 2 -214 -18 -69 -26 -79 -50 -70 -16 6 -17 17 -11 108 5 80
3 109 -9 141 l-16 40 7 -45 c17 -108 -10 -238 -45 -216 -5 3 -12 36 -15 74 -7
80 -49 184 -99 240 -17 20 -48 73 -69 118 -20 44 -51 102 -68 129 -30 47 -30
50 -14 74 36 55 102 96 141 86 14 -3 55 -34 91 -69 93 -88 190 -170 228 -193
18 -11 41 -31 52 -44 23 -30 61 -125 61 -153 0 -26 13 -12 15 16 1 15 10 24
28 29 25 7 27 5 27 -26 0 -38 8 -65 21 -65 4 0 3 13 -2 29 -8 23 -5 49 15 122
14 52 28 117 31 144 3 28 9 62 11 77 3 16 1 28 -4 28 -5 0 -14 -39 -20 -87 -6
-49 -20 -115 -30 -148 l-20 -60 -1 40 c-1 22 -5 55 -11 73 -8 28 -3 50 30 140
37 101 43 111 104 167 40 37 73 78 87 108 25 56 47 64 119 47 62 -15 105 -59
96 -99 -17 -74 -26 -142 -31 -243 -8 -133 -16 -159 -61 -193 -37 -28 -43 -21
-18 26 8 17 14 33 11 35 -7 7 -33 -37 -46 -78 -11 -33 -72 -98 -93 -98 -4 0 1
15 12 33 27 45 81 179 75 185 -3 3 -16 -21 -31 -54 -63 -144 -92 -184 -135
-184 -28 0 -32 17 -10 47 24 33 84 191 78 207 -2 6 -10 -7 -17 -29 -26 -82
-63 -160 -91 -194 -16 -20 -29 -40 -29 -45 0 -5 23 -6 53 -2 28 4 61 8 73 10
11 1 25 6 32 10 7 4 6 -4 -3 -21 -8 -15 -15 -32 -15 -36 0 -5 -16 -35 -36 -67
-30 -49 -39 -80 -64 -214 -22 -121 -38 -177 -69 -244 -21 -48 -42 -98 -46
-111 -4 -13 -20 -35 -36 -48 -64 -54 -116 -245 -89 -327 13 -41 71 -104 132
-143 51 -33 54 -37 94 -135 47 -118 127 -210 232 -270 28 -16 52 -31 52 -31 0
-1 -117 -3 -260 -5 -276 -4 -267 -5 -274 42 -1 8 -5 19 -9 22 -4 4 -7 15 -7
25 0 9 -9 36 -20 60 -11 24 -20 37 -20 28 0 -17 -19 -29 -45 -29 -8 0 -26 -5
-42 -11 -15 -7 -42 -11 -60 -10 -27 2 -36 -3 -53 -31 -15 -23 -19 -42 -15 -66
l6 -32 -1123 2 -1123 3 1 2825 c0 1554 0 2843 0 2865 -1 22 -1 198 -1 390 0
388 1 397 57 392 26 -2 33 2 37 22 4 13 17 31 30 40 l24 15 -7 -37 c-4 -21 -2
-54 5 -75 9 -33 16 -39 38 -38 14 0 40 -3 57 -7 42 -11 47 4 28 84 -17 72 -14
89 18 89 13 0 40 6 61 14 31 10 36 15 24 25 -8 6 -20 25 -27 40 -12 31 -60 50
-60 25 0 -8 -4 -14 -10 -14 -5 0 -13 -12 -16 -27 -10 -38 -25 -51 -65 -55 -34
-3 -34 -3 -35 41 0 32 -6 49 -22 61 -25 20 -81 19 -111 -2 -21 -15 -22 -22
-11 -73 5 -24 -1 -56 -9 -50 -6 3 -10 139 -10 325 l-1 320 3590 0 3590 0 0
1775 0 1775 -3600 0 -3600 0 0 -6400z m6794 3679 c153 -67 201 -265 97 -404
-25 -34 -27 -41 -14 -50 23 -17 -3 -53 -49 -67 -31 -9 -45 -8 -82 6 -45 17
-83 16 -154 -6 -47 -14 -97 -2 -117 28 -13 20 -14 28 -4 40 10 12 8 19 -9 37
-37 39 -62 108 -62 171 0 78 16 128 58 176 79 93 218 121 336 69z m-651 5 c52
-18 116 -76 142 -130 57 -121 8 -276 -107 -339 -78 -42 -185 -47 -262 -12
-103 48 -149 120 -150 237 0 120 51 197 159 242 51 22 158 23 218 2z m-5834
-111 c15 -56 71 -300 71 -307 0 -3 -16 -6 -35 -6 -30 0 -35 3 -35 24 0 32 -22
48 -61 44 -27 -4 -34 -10 -41 -36 -8 -28 -13 -32 -42 -32 l-34 0 14 58 c7 31
25 110 40 175 l28 117 42 0 c41 0 44 -2 53 -37z m401 -55 l1 -93 30 38 c23 27
39 37 60 37 16 0 29 -3 29 -6 0 -4 -16 -27 -35 -53 l-34 -47 21 -35 c11 -19
29 -49 40 -66 l20 -33 -36 0 c-30 0 -38 5 -57 40 -26 45 -39 43 -39 -6 0 -31
-2 -34 -30 -34 l-30 0 0 175 0 175 30 0 30 0 0 -92z m1740 -83 l0 -176 -42 1
c-24 1 -55 -1 -69 -5 -19 -5 -33 -1 -55 18 -28 24 -29 29 -29 106 1 69 4 84
22 102 22 22 54 28 91 15 21 -7 22 -5 22 53 l0 61 30 0 30 0 0 -175z m452 83
l3 -92 25 37 c20 30 31 37 58 37 30 0 42 -12 24 -24 -5 -3 -21 -23 -36 -44
l-27 -40 40 -66 41 -66 -35 0 c-30 0 -38 5 -57 40 -13 22 -26 40 -30 40 -5 0
-8 -18 -8 -40 0 -39 -1 -40 -35 -40 l-35 0 0 168 c0 93 3 172 7 175 3 4 19 7
34 7 l28 0 3 -92z m728 28 l0 -65 35 15 c28 11 40 12 58 3 34 -18 37 -27 37
-136 l0 -103 -30 0 -30 0 0 90 c0 75 -3 92 -16 97 -37 14 -49 -10 -52 -101
l-3 -86 -29 0 -30 0 0 175 0 175 30 0 30 0 0 -64z m530 3 c0 -58 1 -60 23 -53
76 26 107 -8 107 -118 0 -71 -2 -81 -26 -105 -21 -21 -31 -24 -57 -18 -18 4
-49 6 -69 6 l-38 -2 0 176 0 175 30 0 30 0 0 -61z m-1482 -11 c3 -35 6 -38 33
-38 24 0 29 -4 29 -25 0 -21 -5 -25 -30 -25 l-31 0 3 -67 c3 -66 4 -68 31 -71
21 -3 27 -8 23 -19 -3 -8 -6 -19 -6 -24 0 -16 -73 -10 -92 8 -14 13 -18 31
-18 90 0 66 -2 75 -20 80 -13 3 -20 14 -20 29 0 17 6 24 20 24 17 0 20 7 20
41 0 38 1 40 28 37 23 -3 27 -8 30 -40z m-2094 -58 c24 -24 34 -122 17 -173
-15 -44 -59 -66 -97 -48 -14 6 -27 11 -29 11 -3 0 -5 -30 -5 -66 l0 -65 -27 3
-28 3 -3 179 -2 179 38 -6 c22 -2 46 -1 53 4 19 12 60 2 83 -21z m405 19 c17
-6 36 -19 41 -29 6 -10 10 -62 10 -115 l0 -97 -32 3 c-18 1 -48 -1 -66 -5 -50
-12 -82 13 -82 64 0 44 20 64 83 81 28 7 37 15 35 27 -5 26 -48 28 -55 3 -6
-25 -51 -29 -60 -5 -8 21 28 67 58 75 35 10 33 10 68 -2z m290 0 c38 -14 51
-35 51 -88 l0 -41 -61 0 c-60 0 -60 0 -57 -27 3 -32 44 -46 54 -19 4 10 18 16
35 16 35 0 39 -25 10 -61 -27 -34 -99 -34 -135 0 -23 22 -26 32 -26 96 0 79
20 120 63 128 12 2 25 5 28 6 3 0 20 -4 38 -10z m198 0 c32 -12 43 -26 43 -56
0 -31 -45 -33 -53 -2 -4 13 -12 20 -24 17 -31 -6 -27 -34 7 -48 78 -32 101
-82 61 -131 -15 -19 -29 -24 -66 -24 -37 0 -51 5 -66 24 -29 36 -25 61 11 61
24 0 30 -4 30 -21 0 -15 5 -20 23 -17 39 5 27 38 -23 61 -89 43 -75 132 22
146 4 1 19 -4 35 -10z m220 -13 c6 -6 13 -22 15 -36 2 -21 -2 -26 -23 -28 -20
-2 -28 2 -32 18 -4 14 -12 21 -24 18 -29 -5 -21 -32 15 -50 73 -36 92 -81 53
-129 -15 -19 -29 -24 -66 -24 -37 0 -51 5 -66 24 -29 36 -25 61 10 61 21 0 30
-6 34 -21 7 -25 40 -22 45 4 3 12 -9 23 -42 37 -51 21 -70 54 -60 97 12 45
104 65 141 29z m182 13 c17 -6 36 -19 41 -29 6 -10 10 -62 10 -115 l0 -96 -37
1 c-21 1 -50 -2 -65 -6 -45 -10 -78 18 -78 66 0 44 20 64 83 81 28 7 37 15 35
27 -5 25 -45 27 -58 3 -16 -30 -60 -29 -60 2 1 28 20 54 51 66 32 13 40 13 78
0z m319 -22 c16 -15 22 -32 22 -64 l0 -43 -61 0 c-60 0 -60 0 -57 -27 3 -32
44 -46 54 -19 4 10 18 16 35 16 35 0 39 -25 10 -61 -27 -34 -99 -34 -135 0
-24 22 -26 32 -26 101 0 67 3 79 23 97 12 11 29 23 37 26 25 9 73 -4 98 -26z
m1000 -3 c19 -21 22 -36 22 -99 0 -70 -1 -74 -32 -100 -27 -23 -39 -26 -71
-22 -59 8 -80 35 -85 107 -3 36 1 72 9 91 24 60 111 73 157 23z m240 9 c8 -11
12 -53 12 -120 l0 -103 -30 0 -30 0 0 90 c0 75 -3 92 -17 97 -32 12 -53 -32
-53 -113 l0 -74 -30 0 -30 0 0 120 0 120 29 0 c16 0 31 -5 33 -12 3 -8 11 -7
29 5 27 20 67 15 87 -10z m530 -9 c15 -17 22 -38 22 -65 l0 -39 -61 0 c-60 0
-60 0 -57 -27 3 -32 44 -46 54 -19 4 10 18 16 35 16 35 0 40 -29 9 -60 -27
-27 -63 -34 -105 -20 -46 15 -55 34 -55 123 0 64 3 76 23 94 12 11 29 23 37
26 28 11 75 -3 98 -29z m539 12 c6 -6 13 -54 15 -116 l3 -105 -32 -3 -33 -3 0
91 c0 72 -3 92 -15 96 -33 13 -45 -15 -45 -102 l0 -84 -35 0 -35 0 0 120 0
120 35 0 c19 0 35 -4 35 -9 0 -6 12 -3 28 4 28 15 58 12 79 -9z m218 -7 c17
-16 21 -36 23 -120 l4 -100 -44 1 c-23 1 -54 -1 -68 -5 -35 -9 -80 27 -80 64
0 39 19 60 70 75 33 10 46 19 48 35 4 28 -33 29 -50 1 -13 -20 -52 -27 -62
-12 -10 16 29 76 54 84 36 10 82 0 105 -23z m394 20 c36 -13 61 -53 61 -99 l0
-30 -59 0 c-63 0 -76 -8 -66 -40 8 -24 55 -28 55 -5 0 11 11 15 36 15 32 0 35
-2 29 -22 -13 -43 -42 -63 -90 -63 -64 0 -87 27 -93 105 -5 75 11 118 52 136
38 16 36 16 75 3z m249 0 l42 2 0 -149 c0 -135 -2 -152 -20 -175 -41 -52 -147
-44 -170 13 -14 35 -7 50 25 50 15 0 26 -7 30 -20 8 -26 51 -27 65 -1 5 11 10
30 10 42 0 18 -3 20 -12 11 -7 -7 -29 -12 -49 -12 -56 0 -79 34 -79 116 0 97
31 141 90 127 14 -4 44 -5 68 -4z m240 -25 c19 -22 22 -36 22 -120 l0 -95 -42
1 c-24 1 -54 -1 -68 -5 -35 -9 -80 27 -80 64 0 27 31 71 51 71 5 0 25 7 44 14
25 11 33 19 29 30 -9 22 -41 20 -54 -4 -11 -20 -54 -28 -64 -12 -10 16 29 76
54 84 40 11 83 0 108 -28z m-3048 -94 l0 -120 -35 0 -35 0 0 113 c0 63 3 117
7 120 3 4 19 7 35 7 l28 0 0 -120z m2280 63 c19 -91 25 -93 45 -14 17 68 18
71 47 71 29 0 30 -2 24 -33 -3 -19 -25 -99 -49 -178 l-42 -144 -34 -3 c-28 -3
-32 -1 -28 15 30 103 30 93 -2 206 -17 58 -34 113 -37 122 -5 12 2 15 28 15
34 0 35 -1 48 -57z m346 -3498 c8 -59 -1 -119 -27 -165 -35 -63 -47 -64 -144
-23 -47 21 -85 41 -85 46 0 5 19 6 43 2 34 -6 40 -5 30 6 -21 21 -16 26 52 49
72 24 105 56 105 101 0 46 18 34 26 -16z m-3309 -680 c-1 -22 8 -43 26 -65 15
-17 27 -37 27 -45 0 -7 7 -18 15 -25 8 -7 15 -21 15 -31 0 -15 -6 -19 -29 -17
-16 1 -40 -3 -53 -9 -13 -7 -44 -14 -71 -18 -26 -3 -46 -9 -43 -13 2 -4 1 -15
-3 -24 -8 -21 -25 -9 -69 51 -47 66 -41 108 21 140 15 8 28 18 28 23 1 4 3 13
4 18 1 6 3 12 4 15 0 3 0 7 -1 10 -4 8 47 33 74 37 36 6 56 -12 55 -47z m1054
-674 c6 -16 21 -37 34 -45 l24 -16 -29 -56 c-36 -67 -37 -93 -8 -151 18 -36
20 -47 10 -61 -7 -9 -22 -32 -34 -51 l-22 -35 -12 48 c-7 25 -17 53 -24 61 -9
11 -9 22 -1 46 16 45 14 103 -5 142 -16 33 -15 35 16 90 18 31 34 57 36 57 3
0 10 -13 15 -29z m965 -848 c7 -18 18 -33 22 -33 10 0 52 -34 52 -42 0 -3 -24
-3 -52 0 -30 2 -78 -3 -110 -11 -32 -8 -58 -11 -58 -6 0 5 -4 9 -10 9 -5 0
-10 -6 -10 -14 0 -8 -7 -17 -16 -20 -12 -5 -10 3 7 32 43 70 66 102 105 144
l39 42 8 -34 c5 -19 15 -50 23 -67z m-2330 39 c8 -8 83 -32 98 -32 4 0 4 4 1
10 -3 6 1 7 9 4 9 -3 13 -11 10 -16 -4 -6 -1 -9 7 -6 7 2 24 -1 37 -8 14 -7
30 -10 37 -8 7 3 15 -2 19 -11 4 -13 13 -15 36 -10 19 4 30 3 30 -4 0 -6 -5
-11 -12 -11 -8 0 -6 -7 5 -17 16 -16 19 -16 28 -3 9 12 10 12 5 -4 -5 -14 20
-44 107 -130 101 -100 150 -166 134 -182 -3 -3 -35 1 -70 10 -67 17 -92 14
-101 -9 -5 -14 10 -29 29 -30 20 -1 4 -51 -24 -77 -16 -14 -27 -28 -25 -31 3
-2 7 -57 9 -122 3 -64 6 -120 8 -123 2 -4 3 -22 2 -41 -1 -37 -25 -57 -25 -22
0 12 -4 21 -9 21 -5 0 -8 -8 -7 -17 0 -10 -4 -17 -10 -16 -6 1 -11 -4 -11 -12
0 -9 16 -18 41 -23 l41 -8 -2 -99 c-1 -66 1 -91 6 -75 9 24 9 24 10 -6 1 -33
-30 -71 -48 -59 -7 3 -11 -3 -11 -15 0 -12 -4 -18 -10 -15 -7 4 -9 -2 -4 -19
8 -34 -4 -34 -17 0 -5 15 -11 25 -14 23 -6 -6 18 -73 32 -90 6 -8 14 -24 17
-36 7 -22 36 -52 36 -37 0 5 -12 27 -25 49 -29 46 -31 57 -10 49 8 -4 15 -17
15 -30 0 -17 6 -24 18 -24 18 0 24 -31 9 -46 -4 -4 -7 -17 -7 -28 -1 -15 -6
-10 -22 19 -11 22 -33 60 -49 85 -35 56 -71 152 -99 261 -12 46 -28 95 -37
108 -12 18 -14 39 -9 90 16 170 18 241 8 241 -7 0 -9 -13 -5 -34 3 -19 2 -60
-1 -90 l-7 -56 -44 44 c-65 63 -65 79 -10 191 30 62 44 102 40 113 -6 15 -8
15 -15 -3 -4 -11 -6 -23 -3 -27 2 -5 -1 -8 -6 -8 -6 0 -10 -3 -9 -7 5 -13 -33
-103 -43 -103 -5 0 -9 6 -9 13 0 6 -22 50 -49 96 -52 87 -131 307 -131 361 0
17 7 46 14 65 13 30 20 35 48 35 19 0 38 -4 44 -8z m2375 -142 c15 0 19 -7 19
-35 0 -19 4 -44 9 -57 5 -13 16 -49 25 -80 9 -32 21 -60 25 -63 5 -3 0 18 -10
46 -28 72 -15 75 16 4 20 -45 23 -60 13 -66 -10 -6 -9 -9 4 -14 10 -4 19 -24
23 -51 3 -24 10 -44 15 -44 17 0 19 -33 4 -117 -9 -49 -13 -110 -10 -137 7
-63 46 -141 105 -208 78 -90 77 -87 55 -103 -35 -27 -77 -18 -150 31 -204 139
-292 226 -350 349 -50 104 -53 163 -15 307 17 65 44 145 61 177 31 63 50 73
114 65 16 -2 37 -4 47 -4z m719 -238 c34 -17 66 -43 85 -69 34 -47 60 -64 50
-34 -4 14 2 24 25 37 16 10 32 25 35 34 8 23 75 70 100 70 23 0 73 -45 62 -56
-7 -7 28 -80 43 -89 6 -3 19 -24 29 -46 21 -42 19 -45 -29 -52 -14 -1 -35 -8
-47 -15 -12 -7 -42 -12 -67 -12 -42 0 -46 -2 -46 -25 0 -14 -6 -25 -12 -26 -7
0 -8 -2 -3 -5 6 -2 9 -68 7 -177 -2 -95 1 -195 7 -223 25 -121 42 -192 56
-227 20 -49 19 -96 -1 -104 -10 -4 -31 9 -58 36 -36 35 -48 57 -69 129 -15 48
-33 116 -41 153 -31 138 -80 227 -147 268 l-28 17 102 61 c56 33 110 63 120
66 10 4 17 13 15 20 -8 23 -35 18 -71 -15 -20 -18 -73 -55 -119 -82 -129 -77
-130 -77 -124 -83 3 -4 16 -1 29 6 18 10 29 9 59 -3 42 -18 68 -51 104 -133
26 -57 73 -262 74 -316 0 -66 -55 -120 -126 -121 -41 -1 -43 1 -282 239 -270
270 -291 300 -300 419 -5 65 14 206 28 206 3 0 11 -5 17 -11 11 -11 65 10 78
31 3 5 20 10 36 10 30 0 233 114 260 146 18 22 77 12 149 -24z"/>
<path d="M6613 9773 c-20 -4 -23 -11 -23 -51 l0 -47 85 0 85 0 0 46 c0 40 -3
48 -22 53 -25 6 -90 6 -125 -1z"/>
<path d="M582 8722 c-10 -10 -27 -33 -37 -50 -10 -17 -28 -33 -39 -36 -12 -3
-32 -14 -45 -24 -19 -16 -22 -22 -13 -39 10 -18 17 -19 53 -13 24 5 48 6 55 3
6 -2 15 0 19 6 9 15 45 13 78 -4 38 -20 81 -22 100 -6 21 17 51 97 44 116 -4
8 -16 15 -27 15 -11 0 -38 9 -58 19 -62 32 -107 36 -130 13z"/>
<path d="M943 8573 c-7 -3 -13 -11 -13 -19 0 -10 -13 -14 -44 -14 -25 0 -48
-4 -51 -10 -3 -5 -15 -10 -25 -10 -10 0 -26 -7 -34 -16 -9 -8 -16 -13 -16 -9
0 3 -10 0 -22 -6 -41 -22 -101 -29 -119 -13 -23 21 -63 21 -103 -1 -29 -16
-40 -17 -55 -8 -32 20 -44 1 -33 -50 8 -41 7 -47 -9 -52 -10 -3 -28 -1 -39 5
-29 16 -94 8 -98 -12 -4 -22 90 -53 118 -38 11 6 20 15 20 20 0 6 11 10 24 10
14 0 38 12 55 26 26 21 34 24 46 14 8 -7 15 -21 15 -32 0 -28 27 -33 77 -15
l44 16 -6 -37 c-4 -20 -9 -50 -12 -66 -5 -28 -5 -29 31 -23 70 11 206 96 206
128 0 5 8 17 19 28 10 10 20 22 22 27 2 5 30 22 62 37 50 24 57 31 57 57 0 20
-7 33 -22 41 -29 16 -79 27 -95 22z"/>
<path d="M154 8033 c-3 -10 -12 -32 -21 -50 -23 -47 -11 -78 37 -97 22 -9 45
-16 50 -16 17 0 12 133 -6 158 -18 26 -52 29 -60 5z"/>
<path d="M355 7516 c-17 -12 -20 -26 -20 -98 0 -46 -4 -88 -8 -94 -3 -6 -20
-14 -37 -17 -29 -6 -30 -8 -24 -49 8 -51 19 -67 59 -84 17 -7 43 -25 60 -39
36 -32 41 -21 21 39 -9 26 -21 77 -27 115 -11 64 -10 72 14 131 34 86 15 135
-38 96z"/>
<path d="M1215 7343 c-4 -10 -6 -55 -5 -100 1 -74 -2 -88 -29 -140 -48 -91
-42 -102 29 -51 72 51 84 79 63 152 -8 27 -12 62 -9 78 4 18 0 38 -10 54 -19
28 -29 30 -39 7z"/>
<path d="M716 6844 c-17 -16 -19 -28 -16 -79 1 -24 -5 -34 -28 -48 -17 -9 -35
-17 -41 -17 -5 0 -27 -11 -47 -25 -20 -14 -47 -25 -59 -25 -13 0 -33 -9 -46
-19 -22 -18 -24 -25 -21 -102 3 -91 11 -109 51 -109 26 0 61 -29 61 -52 0 -6
7 -19 15 -28 14 -15 13 -20 -5 -43 -11 -14 -20 -40 -20 -60 0 -19 -7 -40 -15
-47 -18 -15 -20 -51 -3 -68 16 -16 -4 -51 -46 -79 -33 -21 -34 -23 -22 -55 6
-18 15 -39 19 -46 5 -7 8 -40 7 -75 -1 -34 -1 -88 -1 -121 l1 -59 53 7 c28 4
57 13 63 21 6 8 14 58 18 111 4 53 11 104 15 113 5 9 46 46 91 81 46 36 91 73
101 83 11 9 22 17 26 17 5 1 19 10 32 21 19 15 22 22 12 32 -9 9 -16 7 -29
-10 -20 -24 -81 -63 -100 -63 -8 0 -25 -9 -39 -20 -31 -24 -81 -26 -90 -4 -3
8 1 41 10 72 9 31 18 78 20 104 4 37 15 61 54 115 45 60 83 123 83 136 0 3 -7
8 -16 11 -10 4 -30 -6 -55 -29 -46 -41 -56 -43 -68 -12 -15 38 19 180 64 267
20 41 26 79 15 100 -13 24 -23 25 -44 4z"/>
<path d="M1127 6403 c-9 -43 -19 -94 -23 -113 -8 -43 -31 -90 -44 -90 -6 0
-10 -7 -10 -15 0 -8 4 -15 10 -15 17 0 41 -59 34 -85 -3 -14 -1 -31 5 -39 7
-8 10 -20 9 -27 -2 -9 8 -15 23 -17 26 -3 27 -1 38 65 6 37 13 84 17 103 3 19
8 86 11 148 5 112 5 113 -22 138 -14 13 -27 24 -29 24 -1 0 -10 -35 -19 -77z"/>
<path d="M334 4923 c-6 -5 -15 -19 -19 -33 -4 -14 -16 -36 -26 -49 -41 -52 -9
-124 54 -121 50 3 57 1 57 -15 0 -26 19 -17 48 23 15 21 44 53 65 71 50 44 50
75 0 97 -21 9 -56 18 -78 20 -22 1 -51 5 -65 8 -14 4 -30 3 -36 -1z"/>
<path d="M360 4642 c-8 -3 -43 -27 -77 -53 -35 -27 -67 -49 -72 -49 -6 0 -22
-5 -36 -12 -28 -12 -32 -41 -13 -83 8 -19 8 -34 0 -62 -8 -26 -8 -42 0 -57 11
-20 12 -20 32 9 12 16 37 47 56 69 35 40 90 120 90 131 0 3 9 18 21 34 24 32
23 81 -1 73z"/>
</g>
</svg>
