<?xml version="1.0" standalone="no"?>
<!DOCTYPE svg PUBLIC "-//W3C//DTD SVG 20010904//EN"
 "http://www.w3.org/TR/2001/REC-SVG-20010904/DTD/svg10.dtd">
<svg version="1.0" xmlns="http://www.w3.org/2000/svg"
 width="720.000000pt" height="1280.000000pt" viewBox="0 0 720.000000 1280.000000"
 preserveAspectRatio="xMidYMid meet">
<metadata>
Created by potrace 1.16, written by Peter Selinger 2001-2019
</metadata>
<g transform="translate(0.000000,1280.000000) scale(0.100000,-0.100000)"
fill="#000000" stroke="none">
<path d="M0 6400 l0 -6400 3600 0 3600 0 0 1186 c0 1017 -2 1185 -14 1175 -8
-7 -17 -23 -20 -36 -8 -30 -45 -95 -55 -95 -5 0 -18 -9 -31 -20 -13 -11 -30
-20 -37 -20 -12 0 -14 -14 -11 -65 l3 -65 -30 -6 c-16 -3 -123 -4 -237 -2
-275 4 -252 -21 -254 277 -1 156 -5 226 -13 229 -7 2 -11 56 -11 168 0 95 -4
164 -9 164 -6 0 -11 73 -13 170 -3 155 -5 170 -23 184 -11 9 -29 16 -39 16
-11 0 -27 7 -36 15 -10 9 -47 17 -96 21 -43 3 -106 14 -139 24 -33 10 -98 21
-145 24 -97 7 -111 9 -125 18 -5 3 -28 6 -50 6 -22 0 -71 6 -110 12 -38 6
-126 15 -195 20 -69 5 -155 14 -190 21 -70 12 -167 25 -267 35 -35 4 -63 10
-63 14 0 8 -135 23 -220 26 -106 2 -109 3 -107 24 1 10 3 17 5 15 3 -2 16 5
30 15 29 24 44 24 97 5 83 -30 89 -27 255 120 83 74 192 169 241 211 49 41 94
84 99 94 13 25 13 238 -1 485 -11 195 -11 204 15 369 34 222 34 247 -3 278
-15 14 -55 32 -87 42 -33 10 -70 21 -84 25 -22 7 -30 27 -80 192 -109 360
-192 516 -317 591 -29 18 -53 36 -53 41 0 5 9 20 20 34 23 29 60 125 60 155 0
48 21 -1 26 -63 5 -52 3 -72 -11 -100 -15 -27 -15 -32 -3 -21 9 7 26 36 38 64
18 43 21 63 16 114 -8 87 -51 216 -84 256 l-27 33 32 -23 c72 -51 108 -129
101 -222 -3 -41 -1 -57 6 -50 6 6 12 41 14 79 4 58 0 78 -21 125 -48 105 -172
206 -252 206 -43 0 -46 6 -29 50 9 21 14 49 12 62 l-5 23 -11 -25 c-9 -22 -11
-23 -12 -5 -1 11 -4 14 -7 8 -12 -31 -31 -11 -37 40 -8 66 -8 66 0 100 5 23 3
29 -15 34 -28 7 -27 22 5 56 l26 28 -28 36 c-102 134 -272 206 -446 189 -81
-8 -169 -37 -212 -69 -17 -12 -53 -28 -81 -35 -149 -38 -285 -186 -285 -309 0
-29 23 -103 32 -103 2 0 1 24 0 54 -2 34 2 64 11 82 14 26 14 24 9 -44 l-5
-73 46 -44 c33 -31 47 -53 49 -77 2 -18 5 14 6 71 1 92 5 111 31 165 51 107
56 108 56 14 0 -75 3 -88 30 -132 29 -47 100 -115 110 -105 2 3 -2 23 -10 44
-7 22 -12 41 -10 43 8 8 52 -25 122 -89 42 -39 78 -68 81 -65 3 3 -2 14 -10
23 -38 45 -26 41 19 -5 50 -53 77 -66 67 -34 -5 14 -3 14 10 -3 19 -22 46
-107 46 -141 0 -13 -5 -35 -10 -50 -6 -15 -8 -30 -4 -33 11 -11 41 37 58 96
23 79 27 84 75 110 50 26 75 19 92 -24 14 -37 2 -79 -34 -119 -30 -35 -113
-84 -141 -84 -8 0 -18 -5 -22 -11 -7 -11 8 -11 55 2 10 3 17 -6 20 -26 6 -27
63 -73 175 -140 10 -6 20 -28 23 -51 5 -38 3 -43 -40 -80 -157 -138 -397 -164
-505 -56 -40 40 -68 91 -78 140 -5 26 -3 30 21 36 33 8 53 -7 101 -79 42 -62
45 -46 3 19 -16 27 -29 49 -27 50 2 2 33 22 71 46 69 44 88 61 39 36 -52 -27
-158 -57 -210 -59 -44 -2 -55 2 -83 28 -23 22 -29 24 -21 9 6 -11 27 -29 47
-40 21 -11 38 -29 42 -44 21 -86 98 -178 173 -206 126 -46 326 8 445 120 33
32 36 39 33 82 -3 47 -4 49 -65 84 -103 60 -91 63 24 6 29 -14 57 -26 61 -26
5 0 35 -23 66 -50 37 -32 67 -50 84 -51 15 0 36 -4 47 -9 18 -8 17 -9 -6 -9
-14 -1 -41 -11 -60 -24 -81 -54 -139 -176 -185 -388 -26 -115 -28 -143 -29
-385 -2 -171 -6 -268 -14 -282 -6 -11 -11 -29 -11 -40 0 -11 -11 -27 -24 -35
-24 -16 -56 -92 -56 -132 0 -17 -13 -28 -58 -48 -66 -30 -81 -44 -107 -104
-18 -42 -19 -43 -65 -43 -57 0 -184 31 -237 59 -45 22 -121 84 -142 113 -12
17 -11 25 3 54 9 19 16 45 16 57 0 22 1 22 21 -3 14 -16 10 -4 -11 33 -53 99
-109 233 -126 304 -9 38 -18 119 -21 182 -5 99 -9 118 -31 152 -33 50 -40 44
-10 -7 19 -33 23 -56 27 -149 l3 -110 -22 28 c-41 52 -32 19 26 -100 48 -95
59 -127 58 -165 0 -26 -6 -53 -12 -61 -9 -11 -8 -18 9 -33 53 -48 64 -129 27
-195 l-22 -39 21 -64 c22 -64 21 -98 -2 -126 -20 -25 -45 -82 -45 -104 0 -30
-11 -66 -20 -66 -4 0 -19 25 -33 54 -23 48 -31 56 -62 62 -49 9 -80 -1 -120
-39 -25 -23 -36 -44 -41 -76 -5 -32 -4 -42 4 -37 7 4 12 1 12 -8 0 -22 -13
-20 -38 7 -13 13 -22 36 -22 53 0 17 -7 39 -16 50 -8 10 -13 13 -9 7 16 -33
-64 4 -88 40 -8 13 -23 46 -31 73 -15 47 -16 47 -10 9 8 -53 28 -90 64 -117
17 -12 30 -27 30 -34 0 -6 -31 -46 -70 -89 -73 -81 -126 -163 -136 -212 -5
-24 0 -37 24 -64 l29 -34 -29 -115 c-15 -63 -33 -117 -39 -120 -5 -4 -10 -33
-9 -66 0 -32 1 -291 1 -574 -1 -283 2 -562 5 -620 3 -58 1 -148 -4 -200 -8
-76 -7 -98 4 -116 14 -21 14 -21 -98 -27 -62 -4 -150 -7 -195 -7 l-83 0 21 40
c17 32 20 50 14 87 -9 63 -78 215 -130 288 -47 67 -76 121 -94 177 -11 33 -10
38 13 61 15 15 35 58 51 113 75 252 97 313 133 369 82 128 165 277 198 357 20
45 48 106 64 133 63 112 76 249 34 370 -24 67 -153 196 -293 292 -7 5 61 126
100 178 52 71 57 83 62 155 4 51 13 77 41 124 42 70 45 102 14 181 -21 56 -21
59 -5 105 28 78 22 121 -28 218 -38 76 -45 100 -55 187 -19 167 -58 439 -76
517 -22 97 -42 133 -105 193 -68 64 -155 112 -289 160 -58 21 -109 41 -114 46
-5 4 -2 25 8 49 9 22 16 46 16 53 0 16 -65 -141 -91 -221 -12 -35 -30 -69 -42
-77 -46 -32 -131 -14 -271 56 -32 17 -60 28 -62 26 -2 -2 30 -26 71 -55 98
-68 103 -78 64 -132 -17 -23 -28 -44 -25 -48 9 -8 43 26 74 75 15 25 35 43 45
43 17 0 16 -3 -5 -41 -32 -57 -57 -74 -139 -94 -82 -20 -187 -17 -235 8 -65
34 -143 138 -159 214 -8 39 11 81 61 138 34 38 36 39 30 13 -9 -39 7 -35 27 6
20 44 49 39 78 -13 14 -26 18 -29 14 -11 -15 62 -26 78 -59 83 -41 7 -127 60
-143 90 -7 12 -12 42 -12 67 -1 97 48 126 114 69 20 -18 43 -50 52 -71 9 -23
27 -45 44 -54 l29 -15 0 53 c0 64 12 87 33 70 12 -10 16 -1 22 60 5 53 10 67
15 53 5 -11 9 -32 9 -47 1 -16 6 -28 11 -28 6 0 10 4 10 8 0 4 29 47 65 96 36
48 65 86 65 85 0 -2 -7 -26 -15 -53 -8 -27 -13 -51 -11 -54 17 -17 156 118
156 151 0 5 2 8 5 5 3 -2 -4 -31 -14 -64 -11 -32 -18 -60 -16 -62 17 -18 108
83 128 142 7 22 18 41 22 41 14 0 48 -64 55 -106 7 -36 5 -40 -26 -58 -19 -11
-34 -27 -34 -36 0 -15 2 -15 22 -1 37 26 58 21 58 -14 0 -25 -5 -31 -28 -36
-28 -6 -75 -64 -53 -64 6 0 11 -7 11 -15 0 -25 15 -17 33 18 l16 32 2 -50 2
-50 7 60 c8 66 24 111 58 165 12 19 22 46 22 60 0 35 15 57 24 35 3 -9 6 -26
7 -38 1 -18 3 -16 10 8 17 54 -6 140 -52 191 -19 21 -19 21 21 37 39 15 58 44
22 33 -18 -6 -115 37 -156 69 -19 15 -19 15 4 40 19 20 20 25 7 25 -8 0 -18
-8 -22 -19 -6 -19 -58 -36 -76 -25 -14 8 -11 44 4 44 23 1 -17 16 -100 40
l-82 23 21 29 21 30 -21 -11 c-11 -6 -58 -11 -105 -11 -101 0 -188 -15 -240
-42 -44 -22 -54 -19 -37 11 16 31 -6 27 -40 -7 -16 -16 -33 -46 -39 -68 -9
-35 -16 -41 -60 -57 -49 -17 -101 -59 -122 -99 -9 -17 -6 -17 27 6 53 36 62
33 25 -9 -78 -89 -112 -234 -77 -320 19 -44 24 -44 18 -2 -7 48 6 28 23 -37
16 -59 103 -213 154 -272 31 -35 40 -64 20 -64 -19 0 -396 -187 -484 -240
-185 -112 -278 -249 -314 -465 -6 -33 -18 -121 -26 -195 -15 -129 -43 -250
-53 -222 -3 10 -7 10 -18 1 -19 -15 -18 -33 1 -25 22 8 19 -31 -12 -166 -26
-107 -30 -117 -53 -122 -62 -12 -172 -139 -205 -237 -14 -42 -14 -56 0 -155 9
-60 26 -140 38 -179 19 -61 22 -94 22 -250 0 -181 0 -181 26 -212 15 -18 29
-30 31 -27 3 2 38 -11 79 -31 68 -33 79 -35 134 -29 35 4 75 16 95 29 47 31
90 40 90 20 0 -29 62 -169 107 -244 37 -60 47 -84 45 -116 -3 -77 7 -106 54
-151 43 -42 44 -45 43 -101 -1 -41 4 -68 19 -93 11 -19 29 -79 42 -133 16 -72
38 -129 82 -215 35 -69 72 -160 89 -221 37 -128 50 -154 104 -211 l43 -45 5
-95 c3 -52 0 -137 -6 -188 l-10 -92 -751 2 -751 3 -3 1441 -2 1441 24 11 c23
10 24 14 15 44 -6 18 -15 49 -21 68 -6 19 -13 168 -15 331 -5 269 -3 299 12
323 16 25 16 28 1 45 -13 14 -16 38 -14 129 1 83 5 112 15 112 7 0 17 18 23
40 6 21 15 42 20 45 6 3 10 17 10 31 0 14 7 38 15 54 8 16 14 49 14 73 -2 38
5 55 47 117 77 113 86 129 80 145 -8 22 -21 19 -60 -16 -53 -46 -71 -37 -70
36 1 61 12 99 58 212 30 73 32 96 10 118 -15 15 -18 15 -36 -2 -15 -13 -19
-27 -16 -58 4 -41 -21 -85 -49 -85 -7 0 -21 -9 -30 -19 -9 -11 -20 -18 -25
-15 -5 3 -8 50 -7 105 1 81 5 103 20 120 14 17 16 25 8 35 -6 8 -15 11 -20 8
-5 -3 -9 285 -9 695 0 385 4 702 8 704 4 2 24 2 44 0 l38 -5 0 -54 c0 -54 0
-54 28 -48 63 15 192 103 192 131 0 17 70 66 101 70 48 7 58 42 26 91 -27 40
-59 50 -92 28 -13 -9 -38 -16 -55 -16 -16 0 -30 -4 -30 -10 0 -5 -6 -10 -14
-10 -7 0 -49 -11 -92 -25 -77 -25 -135 -27 -149 -5 -3 5 -3 32 1 61 4 28 10
46 13 41 10 -16 81 -42 115 -42 26 0 34 6 54 43 12 23 22 57 22 75 0 29 -3 32
-32 32 -17 0 -39 6 -47 14 -9 8 -37 17 -64 21 -45 7 -47 6 -48 -16 -1 -18 -3
-16 -9 10 -4 19 -9 144 -9 278 l-1 243 3469 0 3468 0 7 -42 c8 -52 45 -116 81
-142 14 -11 42 -41 61 -68 40 -53 60 -56 39 -4 -19 45 -9 76 26 83 l29 6 0
1858 0 1859 -3600 0 -3600 0 0 -6400z m6795 3679 c153 -68 200 -265 96 -404
-25 -34 -27 -41 -14 -50 23 -17 -3 -53 -49 -67 -30 -9 -45 -8 -80 5 -34 13
-55 15 -98 8 -30 -5 -63 -13 -73 -16 -53 -21 -137 34 -107 70 11 13 9 19 -8
38 -85 90 -82 268 6 360 77 82 216 105 327 56z m-652 5 c52 -18 116 -76 143
-132 28 -55 26 -174 -4 -229 -50 -95 -136 -143 -256 -143 -209 0 -331 220
-222 402 25 42 43 59 94 85 54 28 75 33 131 33 37 0 88 -7 114 -16z m-5834
-111 c15 -56 71 -300 71 -307 0 -3 -15 -6 -33 -6 -28 0 -34 4 -42 33 -9 29
-14 32 -49 32 -36 0 -40 -3 -48 -32 -8 -29 -13 -33 -42 -33 l-34 0 14 58 c7
31 26 110 41 175 l27 117 43 0 c40 0 43 -2 52 -37z m401 -55 l1 -93 30 38 c23
27 39 37 60 37 16 0 29 -3 29 -6 0 -4 -16 -28 -35 -53 -30 -41 -33 -50 -21
-67 7 -10 25 -40 40 -66 l27 -48 -35 0 c-30 0 -38 5 -57 40 -13 22 -26 40 -31
40 -4 0 -8 -18 -8 -40 0 -38 -2 -40 -30 -40 l-30 0 0 175 0 175 30 0 30 0 0
-92z m1740 -83 l0 -176 -42 1 c-24 1 -55 -1 -69 -5 -19 -5 -33 -1 -55 18 -28
24 -29 29 -29 106 1 69 4 85 22 102 22 22 54 28 91 15 21 -7 22 -5 22 53 l0
61 30 0 30 0 0 -175z m452 83 l3 -92 25 37 c20 30 31 37 58 37 30 0 42 -12 24
-24 -5 -3 -21 -23 -36 -44 l-27 -40 40 -66 41 -66 -35 0 c-30 0 -38 5 -57 40
-13 22 -26 40 -30 40 -5 0 -8 -18 -8 -40 0 -39 -1 -40 -35 -40 l-35 0 0 168
c0 93 3 172 7 175 3 4 19 7 34 7 l28 0 3 -92z m728 28 l0 -65 35 15 c28 11 40
12 58 3 34 -18 37 -27 37 -136 l0 -103 -30 0 -30 0 0 90 c0 75 -3 92 -16 97
-37 14 -49 -10 -52 -101 l-3 -86 -29 0 -30 0 0 175 0 175 30 0 30 0 0 -64z
m530 3 c0 -58 1 -60 23 -53 76 26 107 -8 107 -118 0 -71 -2 -81 -26 -105 -21
-21 -31 -24 -57 -18 -18 4 -49 6 -69 6 l-38 -2 0 176 0 175 30 0 30 0 0 -61z
m-1482 -11 c3 -35 6 -38 33 -38 24 0 29 -4 29 -25 0 -21 -5 -25 -30 -25 l-31
0 3 -67 c3 -66 4 -68 31 -71 21 -3 27 -8 23 -19 -3 -8 -6 -19 -6 -24 0 -16
-73 -10 -92 8 -14 13 -18 31 -18 90 0 66 -2 75 -20 80 -13 3 -20 14 -20 29 0
17 6 24 20 24 17 0 20 7 20 41 0 38 1 40 28 37 23 -3 27 -8 30 -40z m-2094
-58 c24 -24 34 -122 17 -173 -15 -44 -59 -66 -97 -48 -14 6 -27 11 -29 11 -3
0 -5 -29 -5 -65 l0 -65 -30 0 -30 0 0 181 0 182 39 -6 c21 -2 45 -1 52 4 19
12 60 2 83 -21z m402 20 c8 0 23 -9 34 -20 17 -17 20 -33 20 -121 l0 -101 -32
3 c-18 1 -48 -1 -66 -5 -50 -12 -82 13 -82 64 0 44 20 64 83 81 28 7 37 15 35
27 -5 25 -45 27 -58 3 -13 -25 -48 -28 -57 -5 -13 34 56 90 95 78 8 -2 20 -4
28 -4z m293 -1 c38 -14 51 -35 51 -88 l0 -41 -61 0 c-60 0 -60 0 -57 -27 3
-32 44 -46 54 -19 4 10 18 16 35 16 35 0 39 -25 10 -61 -27 -34 -99 -34 -135
0 -23 22 -26 32 -26 96 0 79 20 120 63 128 12 2 25 5 28 6 3 0 20 -4 38 -10z
m199 0 c29 -10 59 -59 45 -73 -15 -15 -51 -5 -56 15 -4 13 -12 20 -24 17 -31
-6 -27 -34 7 -48 78 -32 101 -82 61 -131 -15 -19 -29 -24 -66 -24 -37 0 -51 5
-66 24 -29 36 -25 61 11 61 24 0 30 -4 30 -21 0 -15 5 -20 22 -17 42 6 33 36
-16 58 -54 23 -75 57 -60 98 9 25 45 52 70 52 6 0 25 -5 42 -11z m219 -13 c6
-6 13 -22 15 -36 2 -21 -2 -26 -23 -28 -20 -2 -28 2 -32 18 -4 14 -12 21 -24
18 -29 -5 -21 -32 15 -50 73 -36 92 -81 53 -129 -15 -19 -29 -24 -66 -24 -37
0 -51 5 -66 24 -29 36 -25 61 10 61 21 0 30 -6 34 -21 7 -25 40 -22 45 4 3 12
-9 23 -42 37 -51 21 -70 54 -60 97 12 45 104 65 141 29z m182 13 c17 -6 36
-19 41 -29 6 -10 10 -62 10 -116 l0 -97 -40 6 c-22 3 -43 1 -46 -4 -8 -14 -47
-11 -72 7 -16 11 -22 25 -22 54 0 44 20 64 83 81 28 7 37 15 35 27 -5 25 -45
27 -58 3 -13 -25 -48 -28 -57 -5 -8 23 16 62 46 73 35 13 43 13 80 0z m319
-22 c16 -15 22 -32 22 -64 l0 -43 -61 0 c-60 0 -60 0 -57 -27 3 -32 44 -46 54
-19 8 20 64 22 64 2 0 -69 -102 -98 -158 -45 -19 17 -22 31 -22 98 0 68 3 80
23 98 12 11 29 23 37 26 25 9 73 -4 98 -26z m1000 -3 c19 -21 22 -36 22 -99 0
-70 -1 -74 -32 -100 -27 -23 -39 -26 -71 -22 -59 8 -80 35 -85 107 -3 36 1 72
9 91 24 60 111 73 157 23z m240 9 c8 -11 12 -53 12 -120 l0 -103 -30 0 -30 0
0 90 c0 75 -3 92 -17 97 -32 12 -53 -32 -53 -113 l0 -74 -30 0 -30 0 0 120 0
120 29 0 c16 0 31 -5 33 -12 3 -8 11 -7 29 5 27 20 67 15 87 -10z m530 -9 c15
-17 22 -38 22 -65 l0 -39 -61 0 c-60 0 -60 0 -57 -27 3 -32 44 -46 54 -19 4
10 18 16 35 16 35 0 40 -29 9 -60 -27 -27 -63 -34 -105 -20 -46 15 -55 34 -55
123 0 64 3 76 23 94 12 11 29 23 37 26 28 11 75 -3 98 -29z m542 10 c11 -11
15 -39 15 -117 l0 -102 -32 -3 -33 -3 0 91 c0 72 -3 92 -15 96 -33 13 -45 -15
-45 -102 l0 -84 -35 0 -35 0 0 120 0 120 35 0 c19 0 35 -4 35 -9 0 -6 12 -3
28 4 29 16 58 12 82 -11z m215 -5 c17 -16 21 -36 23 -120 l4 -100 -44 1 c-23
1 -54 -1 -68 -5 -34 -9 -80 27 -80 61 0 42 17 62 70 79 37 12 50 22 50 36 0
26 -36 25 -52 -1 -12 -19 -48 -27 -61 -14 -3 3 -1 19 5 36 20 56 108 72 153
27z m394 20 c36 -13 61 -53 61 -99 l0 -30 -59 0 c-63 0 -76 -8 -66 -40 8 -24
55 -28 55 -5 0 11 11 15 36 15 32 0 35 -2 29 -22 -4 -13 -18 -34 -33 -47 -21
-19 -33 -22 -65 -18 -60 8 -80 35 -85 109 -5 79 9 115 50 133 41 17 38 17 77
4z m204 -3 c15 -8 27 -11 27 -5 0 5 14 9 31 9 l30 0 -3 -154 c-3 -134 -5 -157
-22 -175 -42 -46 -144 -35 -166 19 -7 16 -9 34 -5 39 10 18 44 12 57 -9 27
-42 78 -15 78 41 0 18 -3 20 -12 11 -7 -7 -29 -12 -49 -12 -56 0 -79 34 -79
116 0 72 13 107 44 122 29 14 37 14 69 -2z m285 -22 c19 -22 22 -36 22 -120
l0 -95 -42 1 c-24 1 -54 -1 -68 -5 -36 -9 -80 27 -80 65 0 27 32 70 52 70 5 0
24 7 43 14 25 11 33 19 29 30 -9 22 -41 20 -56 -4 -18 -29 -58 -27 -58 3 0 73
105 101 158 41z m-3048 -94 l0 -120 -35 0 -35 0 0 113 c0 63 3 117 7 120 3 4
19 7 35 7 l28 0 0 -120z m2280 63 c19 -90 25 -92 45 -14 18 68 20 71 48 71 28
0 29 -2 23 -33 -3 -19 -25 -99 -49 -178 l-42 -144 -34 -3 c-28 -3 -33 -1 -27
14 28 74 28 99 -3 207 -18 59 -34 113 -37 122 -5 12 2 15 28 15 34 0 35 -1 48
-57z m-221 -3542 c1 -73 -25 -142 -64 -167 -20 -13 -28 -12 -86 16 -35 16 -69
30 -75 30 -15 0 -36 25 -28 33 3 3 19 1 35 -5 35 -12 47 -5 29 17 -10 12 -10
16 1 19 132 41 156 58 166 120 9 56 21 21 22 -63z m300 -439 c49 -46 102 -158
124 -257 31 -139 39 -257 34 -510 -3 -219 -7 -268 -31 -395 -36 -191 -79 -319
-125 -375 -61 -75 -254 -216 -397 -291 -71 -37 -109 -41 -194 -23 -48 10 -52
9 -92 -20 -35 -26 -51 -31 -100 -31 -32 0 -58 4 -58 9 0 16 29 33 52 29 l23
-5 -25 -11 -25 -11 28 0 c64 -2 40 64 -60 160 -48 46 -68 60 -83 55 -68 -21
-64 -22 -45 13 9 18 36 46 61 64 26 18 57 53 74 84 26 46 36 54 77 66 46 13
49 16 68 74 29 88 44 105 114 130 l62 22 10 -26 c14 -37 21 -23 8 16 -13 38
-8 90 14 143 13 31 22 38 54 44 49 9 103 36 128 64 15 17 8 15 -24 -8 -24 -18
-48 -32 -52 -32 -18 0 -21 118 -6 225 9 60 19 137 22 170 8 80 59 311 91 409
32 101 65 164 101 197 78 72 114 76 172 21z m-2559 -856 c0 -8 14 -29 31 -47
27 -29 30 -36 18 -54 -46 -73 -52 -132 -19 -189 l21 -34 -33 -47 c-32 -45 -33
-45 -42 -23 -5 13 -17 40 -28 61 -16 34 -17 40 -3 67 19 36 19 87 0 120 -18
32 -19 74 -1 89 8 6 19 25 26 41 13 31 30 40 30 16z m165 -647 c16 -8 36 -26
44 -41 13 -23 14 -34 2 -75 -7 -26 -15 -106 -18 -178 -2 -71 -9 -144 -14 -162
-10 -31 -76 -99 -86 -89 -3 3 4 24 15 48 12 23 20 43 18 45 -6 6 -33 -41 -45
-79 -12 -35 -87 -115 -98 -104 -3 3 -1 12 6 20 18 21 91 196 82 196 -5 0 -21
-28 -36 -62 -49 -113 -56 -125 -76 -147 -42 -45 -107 -37 -71 10 22 28 95 209
88 217 -6 5 -11 -7 -52 -113 -15 -38 -42 -88 -60 -111 -19 -22 -31 -44 -27
-47 10 -10 48 -8 98 5 24 7 47 9 50 6 11 -10 -7 -59 -39 -106 -38 -56 -48 -89
-77 -252 -17 -98 -31 -145 -65 -219 -24 -51 -44 -101 -44 -111 0 -10 -14 -29
-31 -41 -51 -36 -89 -130 -96 -238 -6 -86 -5 -93 21 -131 23 -35 70 -77 150
-132 14 -11 31 -39 42 -70 42 -129 115 -223 229 -298 36 -23 65 -44 65 -46 0
-2 -116 -4 -259 -4 l-258 0 -16 53 c-54 185 -65 228 -71 282 -7 68 -48 256
-78 360 -14 48 -23 119 -28 225 -12 229 -19 278 -52 354 -27 62 -29 76 -23
132 5 48 3 71 -10 97 -10 22 -15 54 -13 88 l3 54 23 -42 c16 -31 22 -59 22
-106 0 -69 20 -104 54 -91 10 4 25 -1 35 -10 34 -30 85 -12 152 55 50 50 61
68 79 130 24 79 23 84 -11 179 -27 75 -27 75 -35 67 -4 -3 6 -40 21 -82 27
-72 28 -80 15 -128 -14 -57 -48 -132 -57 -124 -2 3 0 14 6 25 6 12 11 41 11
65 0 53 -28 198 -41 212 -12 12 -12 4 6 -88 8 -43 15 -98 15 -122 0 -47 -38
-143 -66 -165 -16 -14 -17 -12 -9 35 15 85 6 255 -14 255 -4 0 -1 -37 6 -82
14 -85 14 -86 -23 -215 -5 -18 -43 -16 -51 2 -3 9 0 43 6 76 10 47 9 72 0 115
-7 30 -17 58 -22 61 -6 4 -8 0 -4 -10 16 -42 18 -93 6 -154 -7 -38 -16 -72
-21 -78 -17 -19 -34 22 -36 84 -1 48 -10 76 -38 133 -20 40 -50 88 -65 106
-16 18 -49 74 -74 125 -24 51 -56 108 -69 129 l-25 36 39 45 c44 50 88 72 124
63 14 -3 70 -48 125 -99 54 -51 120 -109 146 -128 97 -71 114 -91 145 -174 28
-76 29 -78 29 -40 1 22 -6 54 -14 70 -15 29 -15 29 2 9 10 -12 23 -30 29 -40
9 -15 14 -16 25 -7 12 10 14 6 11 -25 -2 -20 3 -45 10 -55 11 -15 13 -11 13
35 1 29 11 89 23 133 26 92 40 215 25 215 -6 0 -13 -31 -16 -68 -6 -78 -40
-227 -44 -197 -2 11 -8 43 -14 70 -10 46 -8 58 22 145 30 88 39 101 111 177
43 45 78 87 78 93 0 7 10 25 21 42 20 28 26 30 68 26 25 -3 59 -11 76 -19z
m1101 -61 c15 -29 49 -77 76 -106 30 -32 48 -59 44 -67 -8 -22 24 -19 107 9
142 47 167 44 241 -33 35 -36 38 -42 25 -58 -54 -70 -152 -182 -176 -203 -57
-49 -293 -179 -260 -143 4 5 40 41 80 82 l72 75 -70 -61 c-38 -34 -81 -73 -95
-88 -22 -24 -70 -55 -84 -55 -12 0 59 126 93 164 61 71 67 83 18 36 -26 -24
-66 -77 -89 -117 -22 -40 -44 -70 -48 -68 -19 12 24 164 62 218 15 21 16 27 5
18 -32 -26 -82 -156 -93 -246 -2 -16 -11 -67 -19 -111 -25 -134 1 -217 106
-335 33 -36 59 -71 59 -77 0 -15 -33 -32 -64 -32 -15 0 -74 33 -147 82 -213
144 -326 294 -337 447 -6 87 25 222 75 333 32 69 38 77 70 83 19 3 54 3 79 -1
43 -6 45 -8 41 -32 -3 -14 -1 -37 4 -50 5 -12 11 -37 14 -55 9 -51 41 -114 64
-126 15 -8 21 -22 21 -44 0 -34 15 -66 25 -55 4 3 2 15 -4 26 -31 59 8 183 93
296 35 47 59 82 52 80 -19 -8 -108 -127 -125 -166 -9 -21 -18 -38 -21 -38 -4
0 -12 16 -19 36 -7 19 -14 34 -16 32 -2 -2 3 -24 12 -49 10 -28 14 -55 9 -73
-7 -28 -8 -27 -39 35 -18 35 -39 74 -47 86 -12 19 -12 33 -2 95 7 40 16 113
19 163 6 81 9 93 34 117 23 23 36 28 78 28 l51 0 26 -52z m-2666 -66 c0 -4 -4
-13 -10 -20 -7 -9 -7 -9 2 -2 18 15 31 12 24 -5 -3 -9 0 -15 10 -15 8 0 12 5
8 11 -4 7 2 7 17 -1 34 -18 38 -24 12 -16 -13 4 -23 3 -23 -2 0 -13 156 -53
176 -45 11 4 15 2 11 -4 -4 -6 3 -8 20 -5 15 3 23 1 20 -4 -3 -5 11 -21 31
-34 19 -14 56 -47 81 -74 63 -68 101 -104 137 -132 26 -20 84 -108 84 -128 0
-3 -7 -6 -15 -6 -22 0 -19 -11 16 -55 l31 -40 -35 38 c-19 20 -39 37 -45 37
-6 0 -14 5 -18 12 -5 8 -2 9 9 5 10 -3 17 -2 17 2 0 5 -23 14 -50 20 -63 14
-83 14 -75 1 3 -5 15 -10 26 -10 20 0 20 -1 3 -17 -17 -17 -17 -18 4 -21 25
-4 31 -32 7 -32 -11 0 -15 -12 -15 -45 0 -25 -4 -45 -8 -45 -5 0 -12 -53 -15
-117 -4 -66 -11 -119 -17 -121 -6 -2 -10 -36 -10 -78 0 -64 2 -74 18 -75 10 0
12 -3 5 -6 -9 -3 -13 -28 -13 -76 0 -91 7 -117 31 -117 11 0 19 -4 19 -10 0
-5 -9 -10 -20 -10 -14 0 -20 -6 -18 -17 2 -10 -4 -18 -12 -19 -34 -3 -39 -5
-42 -21 -3 -10 7 -39 20 -65 26 -52 37 -62 27 -25 -5 19 -4 20 5 5 7 -12 8
-24 1 -35 -8 -15 -11 -14 -22 12 -7 17 -25 48 -40 70 -34 53 -76 158 -101 259
-11 44 -29 97 -39 116 -23 42 -23 60 -3 167 17 90 16 154 -3 160 -8 3 -10 -8
-6 -36 3 -22 2 -60 -1 -85 l-7 -46 -31 23 c-69 51 -74 107 -18 209 22 40 39
84 39 98 l0 25 -11 -25 c-6 -14 -17 -39 -24 -55 -7 -17 -18 -44 -24 -60 l-11
-30 -39 70 c-62 111 -99 192 -116 253 -8 32 -22 75 -31 98 -16 44 -9 89 24
167 14 33 33 50 33 29z m2354 -39 c9 -27 32 -65 51 -85 19 -20 35 -40 35 -44
0 -5 -5 -3 -10 2 -17 17 -159 -3 -236 -33 -11 -4 -3 15 23 56 36 57 109 151
118 151 2 0 11 -21 19 -47z m744 -372 c24 -9 59 -30 78 -45 37 -29 144 -166
144 -183 0 -22 -109 -110 -208 -168 -56 -33 -102 -64 -102 -68 0 -4 9 -3 21 3
80 43 173 -85 218 -304 29 -137 28 -186 -5 -225 -30 -36 -90 -56 -127 -42 -13
5 -129 114 -256 241 -194 193 -237 242 -261 292 -37 79 -45 140 -29 244 l12
85 29 -6 c20 -5 37 -1 56 11 15 10 45 23 67 29 44 12 223 114 244 139 17 21
65 19 119 -3z m268 -509 c-1 -175 2 -216 17 -267 11 -33 22 -76 27 -95 4 -19
13 -48 19 -63 14 -37 14 -90 -1 -105 -8 -8 -21 -1 -50 31 -51 56 -74 108 -109
253 -44 185 -86 267 -156 302 l-33 17 82 50 c92 56 177 95 194 88 8 -3 11 -64
10 -211z"/>
<path d="M6613 9773 c-20 -4 -23 -11 -23 -51 l0 -47 85 0 85 0 0 46 c0 40 -3
48 -22 53 -25 6 -90 6 -125 -1z"/>
<path d="M651 7346 c-7 -8 -9 -38 -5 -88 6 -72 5 -78 -30 -151 -20 -41 -36
-78 -36 -81 0 -13 28 -5 51 15 13 12 37 32 53 45 21 18 30 36 33 68 3 26 1 46
-6 50 -6 4 -11 29 -11 56 0 48 -16 100 -30 100 -4 0 -13 -6 -19 -14z"/>
<path d="M560 6406 c-6 -34 -16 -83 -21 -110 -11 -55 -43 -106 -67 -106 -10 0
-1 -10 21 -22 37 -22 38 -23 36 -78 -6 -114 60 -140 75 -30 4 25 9 63 12 85 3
22 11 91 17 152 12 125 4 157 -38 165 -21 4 -24 -1 -35 -56z"/>
</g>
</svg>
