<?xml version="1.0" standalone="no"?>
<!DOCTYPE svg PUBLIC "-//W3C//DTD SVG 20010904//EN"
 "http://www.w3.org/TR/2001/REC-SVG-20010904/DTD/svg10.dtd">
<svg version="1.0" xmlns="http://www.w3.org/2000/svg"
 width="720.000000pt" height="1280.000000pt" viewBox="0 0 720.000000 1280.000000"
 preserveAspectRatio="xMidYMid meet">
<metadata>
Created by potrace 1.16, written by Peter Selinger 2001-2019
</metadata>
<g transform="translate(0.000000,1280.000000) scale(0.100000,-0.100000)"
fill="#000000" stroke="none">
<path d="M0 6400 l0 -6400 3600 0 3600 0 0 1025 0 1025 -68 0 c-80 0 -128 12
-154 39 -16 18 -19 48 -28 243 -6 123 -12 378 -15 568 -2 190 -4 348 -4 351
-1 11 -131 41 -198 46 -35 3 -63 8 -63 13 0 4 -10 11 -22 14 -20 5 -355 28
-415 28 -13 0 -21 3 -19 7 3 4 -3 7 -12 8 -100 8 -148 15 -150 23 -2 6 -32 10
-66 10 -61 0 -62 0 -64 -30 -1 -16 -7 -41 -12 -55 -6 -15 -10 -40 -10 -56 0
-25 -4 -29 -26 -29 -14 0 -38 8 -52 19 -15 10 -43 22 -62 26 -19 4 -42 13 -52
19 -13 8 -23 8 -38 -2 -17 -10 -23 -9 -40 8 -11 11 -20 23 -21 28 0 4 -3 31
-5 61 -4 55 -16 74 -41 64 -7 -3 -30 2 -51 10 -20 8 -59 15 -87 15 -27 1 -62
7 -78 13 -21 9 -31 9 -40 0 -15 -15 -77 -14 -77 2 0 8 -3 8 -9 -2 -8 -12 -13
-12 -35 2 -14 9 -39 17 -56 17 -40 0 -38 13 7 40 37 21 39 22 95 6 71 -20 107
-20 132 -1 10 8 23 12 29 8 6 -3 7 -1 4 4 -4 6 15 30 41 54 93 86 208 187 287
254 135 115 128 96 121 330 -4 110 -11 253 -16 318 -7 90 -5 141 5 210 48 313
49 325 37 352 -14 30 -89 68 -168 86 l-50 11 -29 97 c-105 352 -191 557 -252
594 -7 4 -13 14 -13 21 0 7 -32 34 -70 61 -70 48 -70 49 -52 69 24 27 51 86
58 128 10 60 15 65 30 33 17 -39 17 -114 -1 -145 -19 -32 -19 -46 -1 -30 8 6
22 34 32 62 31 95 2 264 -62 362 l-26 39 30 -22 c65 -46 108 -144 99 -224 -5
-38 -4 -48 5 -39 19 19 22 115 4 168 -37 111 -164 227 -252 230 -25 1 -48 4
-51 7 -3 3 3 26 12 51 30 78 3 224 -60 332 -56 95 -190 183 -315 205 -121 21
-275 -8 -365 -69 -22 -14 -53 -28 -69 -29 -43 -4 -144 -62 -196 -113 -83 -81
-113 -188 -76 -271 l15 -34 -5 50 c-3 35 1 61 13 89 l18 38 -3 -78 -4 -79 37
-35 c29 -27 36 -30 32 -15 -3 11 -9 34 -12 50 -7 38 5 13 21 -45 l12 -45 1 57
c1 31 5 59 9 62 5 3 20 -1 35 -9 16 -8 27 -10 27 -4 0 6 -13 16 -30 22 -16 6
-30 16 -30 23 0 16 58 130 73 142 10 9 12 -4 9 -57 -5 -83 16 -137 78 -205 55
-59 73 -61 53 -5 -7 23 -12 44 -9 46 8 9 82 -46 136 -101 59 -61 81 -72 53
-28 -12 19 -5 14 25 -15 45 -46 67 -55 59 -23 -8 29 0 24 19 -12 20 -39 42
-117 39 -138 -2 -8 -6 -33 -10 -54 -6 -30 -5 -37 5 -31 16 10 60 105 60 130 0
31 27 63 71 86 38 19 42 19 65 4 31 -20 33 -85 4 -133 -23 -38 -100 -89 -147
-98 -18 -3 -33 -10 -33 -15 0 -12 27 -11 50 1 16 8 19 5 25 -20 7 -32 51 -70
139 -122 107 -63 79 -137 -84 -222 -195 -101 -393 -62 -457 91 -37 87 -37 90
-2 97 39 7 48 1 99 -76 47 -71 52 -65 10 11 -17 30 -30 56 -30 57 0 2 32 22
70 45 39 23 70 42 70 44 0 1 -28 -8 -61 -22 -34 -14 -94 -31 -134 -40 -108
-22 -122 -12 -187 128 -28 60 -53 107 -55 105 -3 -2 5 -22 16 -45 26 -49 27
-71 4 -71 -10 -1 -29 -8 -43 -16 -17 -10 -19 -13 -5 -9 77 26 72 27 102 -28
19 -34 40 -59 64 -71 29 -16 40 -30 53 -71 70 -222 323 -265 565 -95 59 42 81
72 81 115 0 41 -11 54 -71 86 -33 18 -58 34 -56 36 10 10 186 -82 224 -117 27
-26 53 -40 70 -41 16 0 37 -4 48 -9 19 -8 19 -9 -3 -9 -103 -3 -195 -152 -250
-406 -24 -109 -26 -143 -28 -370 -3 -277 -14 -357 -49 -373 -16 -7 -29 -32
-46 -86 -23 -74 -25 -76 -75 -101 -58 -29 -73 -44 -103 -103 -20 -40 -24 -42
-66 -42 -59 0 -168 26 -230 55 -62 30 -155 110 -155 135 0 10 7 31 15 46 8 16
12 37 9 47 -3 9 -1 17 5 17 6 0 11 -3 11 -7 0 -5 9 -19 20 -33 11 -14 -7 27
-40 91 -96 186 -124 286 -133 484 -4 67 -9 87 -31 120 -39 57 -42 57 -13 0 20
-40 26 -72 32 -160 l7 -110 -31 35 c-30 34 -31 34 -21 7 5 -15 25 -58 44 -95
72 -140 87 -207 55 -248 -6 -7 -1 -18 12 -30 51 -45 61 -118 27 -189 -20 -41
-21 -49 -9 -88 23 -76 25 -115 5 -145 -40 -59 -54 -94 -54 -132 0 -53 -16 -51
-41 5 -34 77 -87 94 -161 53 -46 -26 -68 -63 -67 -110 0 -28 2 -30 9 -13 8 18
9 17 9 -7 1 -16 -3 -28 -7 -28 -19 0 -50 47 -55 84 -4 22 -12 44 -18 50 -9 8
-10 8 -5 -1 11 -19 -15 -16 -52 7 -37 23 -71 87 -73 140 -2 29 -3 31 -6 8 -9
-60 20 -119 81 -162 19 -13 19 -15 4 -37 -9 -13 -36 -46 -62 -74 -67 -73 -127
-168 -133 -212 -4 -31 0 -43 22 -67 l27 -29 -26 -106 c-14 -58 -26 -128 -27
-156 -1 -38 -3 -44 -8 -25 -16 55 -20 -116 -18 -806 2 -563 5 -714 15 -726 11
-14 0 -17 -100 -23 -117 -6 -278 -4 -278 5 1 3 7 14 15 24 42 56 -13 235 -119
390 -31 44 -67 108 -81 141 -25 60 -25 60 -5 77 27 22 41 58 101 255 27 93 60
184 73 203 116 175 308 555 334 659 13 54 14 77 4 142 -6 43 -20 96 -32 118
-22 44 -139 161 -223 224 -29 22 -53 43 -55 47 -5 13 47 111 83 155 56 69 75
114 75 176 0 48 5 65 35 108 47 71 53 109 26 177 -25 66 -26 90 -6 137 22 54
19 107 -11 163 -15 27 -35 65 -45 84 -12 24 -28 114 -49 279 -35 283 -70 458
-100 506 -32 52 -117 123 -190 160 -51 26 -198 84 -276 110 -7 2 -3 26 12 72
19 56 24 89 24 186 0 71 4 117 10 117 6 0 10 7 10 15 0 8 13 39 30 68 19 34
30 68 30 92 0 45 13 38 28 -15 9 -32 10 -30 11 31 1 57 -3 72 -33 122 l-35 57
24 6 c13 3 31 14 39 23 14 16 13 17 -19 18 -31 1 -155 65 -155 81 0 3 10 16
22 29 l21 23 -39 0 c-35 0 -240 53 -252 65 -3 3 2 13 11 23 20 22 23 39 5 25
-7 -6 -71 -13 -141 -16 -108 -5 -136 -10 -183 -31 -31 -14 -59 -26 -61 -26 -3
0 -2 11 1 25 4 14 2 25 -3 25 -18 0 -70 -70 -76 -103 -6 -30 -13 -36 -48 -47
-51 -15 -104 -54 -123 -92 l-15 -30 38 26 c38 26 72 36 43 13 -32 -25 -71 -86
-90 -142 -24 -69 -26 -178 -5 -215 14 -25 14 -24 16 20 1 26 3 35 6 20 11 -69
38 -139 74 -193 22 -33 47 -74 56 -91 9 -17 29 -46 45 -65 16 -18 26 -37 21
-42 -4 -4 -60 -31 -123 -59 -240 -108 -450 -231 -516 -301 -57 -61 -113 -150
-133 -212 -22 -67 -44 -195 -61 -352 -14 -123 -39 -222 -52 -203 -8 10 -11 10
-15 1 -2 -7 -12 -13 -21 -13 -15 -1 -15 -2 1 -11 9 -5 22 -7 27 -4 15 9 12
-16 -15 -138 -34 -150 -32 -144 -62 -152 -44 -11 -81 -43 -133 -117 -77 -110
-85 -139 -71 -258 7 -55 23 -137 36 -182 22 -74 25 -102 25 -266 l0 -182 28
-30 c16 -16 31 -27 34 -25 3 3 38 -11 77 -30 67 -33 78 -36 129 -29 32 3 71
15 89 26 18 10 45 23 61 28 l29 8 38 -99 c21 -55 45 -110 55 -122 9 -12 30
-44 46 -72 24 -42 28 -58 25 -113 l-2 -64 46 -44 c46 -42 47 -45 49 -106 2
-39 10 -78 23 -103 11 -22 30 -85 43 -140 17 -71 41 -134 83 -215 33 -65 72
-161 89 -220 37 -129 39 -134 95 -192 l46 -46 7 -111 c4 -61 4 -130 -1 -153
-4 -24 -8 -60 -9 -81 l0 -37 -978 2 -977 3 -3 2924 c-2 2340 0 2921 10 2913 7
-5 27 -12 43 -14 l30 -3 3 62 c3 73 -9 103 -43 103 -18 0 -26 8 -33 33 -14 45
-16 423 -3 432 6 3 11 1 11 -5 0 -6 4 -9 9 -6 5 3 11 -3 14 -14 3 -14 14 -20
32 -20 14 0 36 -5 47 -11 16 -8 24 -8 35 3 11 12 12 24 3 64 -18 78 -20 104
-7 105 7 0 32 0 56 -1 35 -1 43 1 38 14 -3 8 -1 16 5 18 11 4 -29 78 -42 78
-5 0 -14 2 -22 5 -14 5 -38 -37 -38 -66 0 -19 -29 -32 -70 -33 -21 0 -25 4
-22 26 4 36 -14 68 -38 68 -19 0 -20 8 -20 260 l0 260 3590 0 3590 0 0 1775 0
1775 -3600 0 -3600 0 0 -6400z m6794 3679 c153 -67 201 -265 97 -404 -25 -34
-27 -41 -14 -50 23 -17 -3 -53 -49 -67 -31 -9 -45 -8 -82 6 -45 17 -83 16
-154 -6 -47 -14 -97 -2 -117 28 -13 20 -14 28 -4 40 10 12 8 19 -9 37 -37 39
-62 108 -62 171 0 78 16 128 58 176 79 93 218 121 336 69z m-651 5 c52 -18
116 -76 142 -130 57 -121 8 -276 -107 -339 -78 -42 -185 -47 -262 -12 -103 48
-149 120 -150 237 0 120 51 197 159 242 51 22 158 23 218 2z m-5834 -111 c15
-56 71 -300 71 -307 0 -3 -16 -6 -35 -6 -30 0 -35 3 -35 24 0 32 -22 48 -61
44 -27 -4 -34 -10 -41 -36 -8 -28 -13 -32 -42 -32 l-34 0 14 58 c7 31 25 110
40 175 l28 117 42 0 c41 0 44 -2 53 -37z m401 -55 l1 -93 30 38 c23 27 39 37
60 37 16 0 29 -3 29 -6 0 -4 -16 -27 -35 -53 l-34 -47 21 -35 c11 -19 29 -49
40 -66 l20 -33 -36 0 c-30 0 -38 5 -57 40 -26 45 -39 43 -39 -6 0 -31 -2 -34
-30 -34 l-30 0 0 175 0 175 30 0 30 0 0 -92z m1740 -83 l0 -176 -42 1 c-24 1
-55 -1 -69 -5 -19 -5 -33 -1 -55 18 -28 24 -29 29 -29 106 1 69 4 84 22 102
22 22 54 28 91 15 21 -7 22 -5 22 53 l0 61 30 0 30 0 0 -175z m452 83 l3 -92
25 37 c20 30 31 37 58 37 30 0 42 -12 24 -24 -5 -3 -21 -23 -36 -44 l-27 -40
40 -66 41 -66 -35 0 c-30 0 -38 5 -57 40 -13 22 -26 40 -30 40 -5 0 -8 -18 -8
-40 0 -39 -1 -40 -35 -40 l-35 0 0 168 c0 93 3 172 7 175 3 4 19 7 34 7 l28 0
3 -92z m728 28 l0 -65 35 15 c28 11 40 12 58 3 34 -18 37 -27 37 -136 l0 -103
-30 0 -30 0 0 90 c0 75 -3 92 -16 97 -37 14 -49 -10 -52 -101 l-3 -86 -29 0
-30 0 0 175 0 175 30 0 30 0 0 -64z m530 3 c0 -58 1 -60 23 -53 76 26 107 -8
107 -118 0 -71 -2 -81 -26 -105 -21 -21 -31 -24 -57 -18 -18 4 -49 6 -69 6
l-38 -2 0 176 0 175 30 0 30 0 0 -61z m-1482 -11 c3 -35 6 -38 33 -38 24 0 29
-4 29 -25 0 -21 -5 -25 -30 -25 l-31 0 3 -67 c3 -66 4 -68 31 -71 21 -3 27 -8
23 -19 -3 -8 -6 -19 -6 -24 0 -16 -73 -10 -92 8 -14 13 -18 31 -18 90 0 66 -2
75 -20 80 -13 3 -20 14 -20 29 0 17 6 24 20 24 17 0 20 7 20 41 0 38 1 40 28
37 23 -3 27 -8 30 -40z m-2094 -58 c24 -24 34 -122 17 -173 -15 -44 -59 -66
-97 -48 -14 6 -27 11 -29 11 -3 0 -5 -30 -5 -66 l0 -65 -27 3 -28 3 -3 179 -2
179 38 -6 c22 -2 46 -1 53 4 19 12 60 2 83 -21z m405 19 c17 -6 36 -19 41 -29
6 -10 10 -62 10 -115 l0 -97 -32 3 c-18 1 -48 -1 -66 -5 -50 -12 -82 13 -82
64 0 44 20 64 83 81 28 7 37 15 35 27 -5 26 -48 28 -55 3 -6 -25 -51 -29 -60
-5 -8 21 28 67 58 75 35 10 33 10 68 -2z m290 0 c38 -14 51 -35 51 -88 l0 -41
-61 0 c-60 0 -60 0 -57 -27 3 -32 44 -46 54 -19 4 10 18 16 35 16 35 0 39 -25
10 -61 -27 -34 -99 -34 -135 0 -23 22 -26 32 -26 96 0 79 20 120 63 128 12 2
25 5 28 6 3 0 20 -4 38 -10z m198 0 c32 -12 43 -26 43 -56 0 -31 -45 -33 -53
-2 -4 13 -12 20 -24 17 -31 -6 -27 -34 7 -48 78 -32 101 -82 61 -131 -15 -19
-29 -24 -66 -24 -37 0 -51 5 -66 24 -29 36 -25 61 11 61 24 0 30 -4 30 -21 0
-15 5 -20 23 -17 39 5 27 38 -23 61 -89 43 -75 132 22 146 4 1 19 -4 35 -10z
m220 -13 c6 -6 13 -22 15 -36 2 -21 -2 -26 -23 -28 -20 -2 -28 2 -32 18 -4 14
-12 21 -24 18 -29 -5 -21 -32 15 -50 73 -36 92 -81 53 -129 -15 -19 -29 -24
-66 -24 -37 0 -51 5 -66 24 -29 36 -25 61 10 61 21 0 30 -6 34 -21 7 -25 40
-22 45 4 3 12 -9 23 -42 37 -51 21 -70 54 -60 97 12 45 104 65 141 29z m182
13 c17 -6 36 -19 41 -29 6 -10 10 -62 10 -115 l0 -96 -37 1 c-21 1 -50 -2 -65
-6 -45 -10 -78 18 -78 66 0 44 20 64 83 81 28 7 37 15 35 27 -5 25 -45 27 -58
3 -16 -30 -60 -29 -60 2 1 28 20 54 51 66 32 13 40 13 78 0z m319 -22 c16 -15
22 -32 22 -64 l0 -43 -61 0 c-60 0 -60 0 -57 -27 3 -32 44 -46 54 -19 4 10 18
16 35 16 35 0 39 -25 10 -61 -27 -34 -99 -34 -135 0 -24 22 -26 32 -26 101 0
67 3 79 23 97 12 11 29 23 37 26 25 9 73 -4 98 -26z m1000 -3 c19 -21 22 -36
22 -99 0 -70 -1 -74 -32 -100 -27 -23 -39 -26 -71 -22 -59 8 -80 35 -85 107
-3 36 1 72 9 91 24 60 111 73 157 23z m240 9 c8 -11 12 -53 12 -120 l0 -103
-30 0 -30 0 0 90 c0 75 -3 92 -17 97 -32 12 -53 -32 -53 -113 l0 -74 -30 0
-30 0 0 120 0 120 29 0 c16 0 31 -5 33 -12 3 -8 11 -7 29 5 27 20 67 15 87
-10z m530 -9 c15 -17 22 -38 22 -65 l0 -39 -61 0 c-60 0 -60 0 -57 -27 3 -32
44 -46 54 -19 4 10 18 16 35 16 35 0 40 -29 9 -60 -27 -27 -63 -34 -105 -20
-46 15 -55 34 -55 123 0 64 3 76 23 94 12 11 29 23 37 26 28 11 75 -3 98 -29z
m539 12 c6 -6 13 -54 15 -116 l3 -105 -32 -3 -33 -3 0 91 c0 72 -3 92 -15 96
-33 13 -45 -15 -45 -102 l0 -84 -35 0 -35 0 0 120 0 120 35 0 c19 0 35 -4 35
-9 0 -6 12 -3 28 4 28 15 58 12 79 -9z m218 -7 c17 -16 21 -36 23 -120 l4
-100 -44 1 c-23 1 -54 -1 -68 -5 -35 -9 -80 27 -80 64 0 39 19 60 70 75 33 10
46 19 48 35 4 28 -33 29 -50 1 -13 -20 -52 -27 -62 -12 -10 16 29 76 54 84 36
10 82 0 105 -23z m394 20 c36 -13 61 -53 61 -99 l0 -30 -59 0 c-63 0 -76 -8
-66 -40 8 -24 55 -28 55 -5 0 11 11 15 36 15 32 0 35 -2 29 -22 -13 -43 -42
-63 -90 -63 -64 0 -87 27 -93 105 -5 75 11 118 52 136 38 16 36 16 75 3z m249
0 l43 2 -3 -155 c-3 -134 -5 -157 -22 -175 -42 -46 -144 -35 -166 19 -14 35
-7 50 25 50 15 0 26 -7 30 -20 8 -26 51 -27 65 -1 5 11 10 30 10 42 0 18 -3
20 -12 11 -7 -7 -29 -12 -49 -12 -56 0 -79 34 -79 116 0 97 31 141 90 127 14
-4 44 -5 68 -4z m240 -25 c19 -22 22 -36 22 -120 l0 -95 -42 1 c-24 1 -54 -1
-68 -5 -35 -9 -80 27 -80 64 0 27 31 71 51 71 5 0 25 7 44 14 25 11 33 19 29
30 -9 22 -41 20 -54 -4 -11 -20 -54 -28 -64 -12 -10 16 29 76 54 84 40 11 83
0 108 -28z m-3048 -94 l0 -120 -35 0 -35 0 0 113 c0 63 3 117 7 120 3 4 19 7
35 7 l28 0 0 -120z m2280 63 c19 -91 25 -93 45 -14 17 68 18 71 47 71 29 0 30
-2 24 -33 -3 -19 -25 -99 -49 -178 l-42 -144 -34 -3 c-28 -3 -32 -1 -28 15 30
103 30 93 -2 206 -17 58 -34 113 -37 122 -5 12 2 15 28 15 34 0 35 -1 48 -57z
m-2444 -2808 c4 -8 17 -15 30 -15 16 0 28 -9 38 -28 12 -24 12 -31 -5 -62 -23
-44 -24 -64 -3 -81 14 -12 20 -9 41 16 14 17 33 44 44 60 23 36 24 25 4 -40
-8 -27 -12 -51 -10 -53 9 -9 56 30 85 70 17 23 35 59 41 80 5 22 15 38 21 36
36 -12 77 -158 45 -158 -16 0 -63 -48 -55 -56 4 -3 18 2 32 11 31 21 57 14 51
-15 -6 -30 -16 -42 -31 -36 -7 3 -22 -7 -34 -23 -22 -31 -26 -46 -10 -36 6 3
10 -4 10 -17 1 -22 2 -22 26 7 l26 30 -5 -110 c-3 -100 -7 -119 -44 -210 -22
-55 -48 -121 -58 -148 -9 -26 -25 -52 -35 -57 -50 -27 -178 6 -297 76 -24 14
-43 21 -43 17 0 -5 24 -23 53 -40 57 -34 117 -89 117 -108 0 -6 -11 -27 -25
-47 -14 -20 -25 -40 -25 -44 0 -13 60 49 82 84 17 28 48 44 48 25 0 -22 -54
-93 -82 -106 -91 -43 -240 -47 -315 -8 -70 35 -153 158 -153 226 0 33 42 107
78 139 25 22 26 19 11 -20 -10 -27 -10 -28 10 -10 10 9 22 28 25 40 9 35 50
23 71 -21 23 -49 29 -35 8 20 -14 37 -22 47 -40 47 -32 0 -131 57 -151 88 -22
34 -20 127 4 153 9 10 26 19 37 19 30 0 94 -57 107 -95 10 -31 51 -75 70 -75
3 0 6 21 6 48 -1 66 8 86 34 72 19 -10 20 -8 20 55 0 46 4 65 13 65 9 0 11
-12 9 -40 -5 -45 8 -52 30 -17 20 30 30 59 19 52 -5 -3 -26 4 -45 16 -29 17
-39 19 -51 9 -8 -6 -19 -8 -26 -4 -15 9 -6 97 15 147 15 37 15 37 74 37 60 0
92 16 77 40 -3 5 1 10 10 10 8 0 18 -7 21 -15z m2669 -733 c-1 -60 -6 -86 -23
-119 -34 -65 -46 -67 -145 -25 -48 20 -87 42 -87 49 0 9 7 10 26 3 42 -17 56
-13 44 10 -8 15 -8 21 2 24 7 3 30 10 51 16 21 7 54 26 73 42 27 24 34 38 34
66 0 29 2 33 13 23 7 -7 12 -40 12 -89z m305 -443 c102 -105 146 -282 156
-631 10 -315 -27 -597 -107 -815 -29 -78 -127 -175 -281 -275 -214 -141 -253
-155 -363 -127 -41 10 -46 9 -89 -20 -37 -26 -54 -31 -100 -31 -31 0 -56 4
-56 8 0 16 25 32 50 32 24 -1 24 -1 6 -15 -19 -15 -19 -15 1 -15 51 0 32 60
-45 142 -61 66 -97 84 -128 67 -62 -33 -27 35 43 84 25 18 54 50 65 72 29 57
46 74 84 81 41 7 47 15 68 81 23 69 47 98 98 116 24 8 50 18 59 21 11 5 19 -2
28 -20 18 -40 23 -22 6 20 -15 34 -14 43 0 94 21 71 28 80 74 88 46 9 78 25
121 64 32 29 31 28 -14 -4 -27 -20 -52 -36 -56 -36 -23 0 -26 132 -6 246 7 44
14 97 15 119 3 57 47 280 76 381 52 176 92 246 170 295 48 30 80 25 125 -22z
m-2408 -736 c42 -19 51 -51 23 -80 -12 -12 -13 -18 -4 -29 9 -11 9 -20 1 -37
-6 -12 -14 -45 -17 -73 l-7 -52 -38 15 c-25 10 -40 23 -43 37 -3 20 -4 20 -12
2 -5 -11 -16 -27 -26 -37 -9 -9 -20 -35 -24 -58 -6 -34 -2 -49 19 -84 l25 -44
-34 -48 c-29 -40 -35 -45 -40 -29 -3 10 -15 37 -26 59 -18 38 -19 44 -4 78 20
49 19 75 -6 121 -24 46 -29 168 -8 218 12 28 13 29 69 22 52 -6 59 -4 69 15
14 25 32 26 83 4z m6 -763 c51 -23 68 -57 52 -106 -7 -19 -15 -103 -19 -187
-8 -166 -17 -196 -73 -237 -33 -25 -35 -14 -8 43 l21 42 -20 -23 c-12 -13 -26
-42 -33 -64 -10 -34 -84 -115 -95 -104 -2 2 14 41 36 88 36 76 62 151 49 138
-3 -3 -22 -43 -43 -90 -46 -104 -76 -146 -111 -154 -37 -10 -53 8 -30 33 19
21 86 186 85 210 0 19 -5 9 -45 -98 -16 -40 -43 -92 -61 -115 -18 -22 -33 -45
-33 -50 0 -9 60 -3 127 12 36 8 40 7 33 -7 -4 -9 -18 -38 -31 -65 -13 -26 -32
-63 -42 -81 -10 -18 -31 -101 -47 -185 -22 -114 -39 -173 -70 -239 -22 -48
-40 -95 -40 -104 0 -9 -14 -29 -30 -44 -42 -37 -69 -84 -86 -146 -18 -69 -18
-180 1 -216 17 -33 105 -115 144 -134 20 -9 35 -34 65 -111 32 -80 50 -110 98
-161 32 -34 84 -80 116 -101 31 -21 61 -41 65 -45 5 -4 -109 -6 -254 -5 l-262
1 -34 115 c-19 63 -40 158 -48 210 -17 110 -68 341 -85 385 -7 17 -16 107 -21
200 -12 226 -24 305 -55 367 -23 46 -26 60 -21 118 4 49 1 76 -11 106 -11 24
-16 58 -14 88 l3 49 20 -33 c14 -22 23 -60 27 -114 l7 -81 35 -3 c19 -2 39
-10 43 -18 18 -32 104 -6 136 41 13 19 30 35 37 35 32 0 89 167 75 216 -20 65
-53 144 -61 144 -5 0 4 -37 21 -83 l30 -84 -28 -83 c-15 -46 -34 -86 -40 -88
-9 -2 -8 4 2 25 22 42 18 103 -16 236 -18 69 -21 31 -5 -55 22 -115 20 -136
-13 -211 -39 -88 -57 -97 -46 -26 13 88 2 249 -17 249 -6 0 -8 -9 -4 -22 17
-57 17 -165 2 -222 -17 -64 -32 -82 -54 -63 -11 9 -13 26 -7 77 9 83 7 127 -6
168 -15 47 -23 33 -9 -17 13 -51 -6 -197 -28 -206 -24 -9 -29 3 -34 77 -6 80
-46 179 -92 227 -15 15 -51 76 -81 137 -31 60 -65 124 -76 141 l-21 33 22 27
c29 38 98 83 125 83 28 0 60 -24 155 -115 82 -78 187 -165 200 -165 16 0 52
-61 75 -126 22 -62 35 -73 35 -28 0 17 5 22 25 20 22 -1 25 -6 25 -36 0 -36
14 -69 25 -59 3 4 2 17 -3 30 -7 17 -1 56 18 134 31 125 46 235 32 235 -5 0
-13 -30 -17 -67 -8 -78 -34 -194 -46 -207 -5 -6 -9 8 -9 33 0 23 -5 51 -10 61
-8 15 -2 45 27 127 35 103 39 111 104 173 37 36 75 81 84 100 10 19 24 43 33
53 20 23 76 22 130 -3z m1084 -27 c8 -10 20 -31 27 -48 6 -16 36 -57 66 -90
30 -33 53 -66 50 -72 -7 -19 28 -16 108 11 139 46 155 44 230 -28 l48 -46 -61
-74 c-115 -139 -228 -229 -357 -283 -36 -14 -37 -14 -24 4 8 10 44 46 80 80
36 34 61 63 56 63 -6 0 -47 -36 -90 -80 -76 -77 -141 -127 -150 -118 -10 10
61 126 113 188 l56 65 -58 -55 c-32 -30 -68 -75 -81 -100 -12 -25 -32 -56 -44
-70 l-20 -25 -1 26 c0 46 39 155 76 211 35 52 35 52 4 18 -39 -44 -64 -98 -81
-174 -11 -52 -14 -56 -26 -40 -18 25 -16 92 6 162 20 65 39 97 110 181 25 30
38 50 30 45 -27 -15 -119 -132 -135 -171 l-16 -36 -24 49 c-24 49 -24 43 2
-28 8 -21 11 -51 7 -69 l-6 -32 -23 44 c-27 51 -31 48 -8 -6 8 -20 13 -39 11
-41 -8 -8 -24 20 -40 70 -15 45 -15 47 0 35 10 -9 7 3 -10 31 l-26 46 19 109
c11 60 19 132 18 159 -1 44 2 52 31 78 38 34 108 40 133 11z m-2628 -71 c-12
-7 -34 -46 -34 -58 0 -4 3 -4 6 -1 4 3 16 1 28 -5 11 -7 25 -11 30 -10 4 2 14
-5 20 -14 7 -9 28 -16 54 -17 23 -1 42 -4 42 -7 0 -12 66 -29 90 -24 18 4 21
3 11 -4 -11 -8 -10 -11 5 -16 23 -7 283 -260 307 -298 25 -40 23 -62 -5 -54
-65 18 -125 25 -153 17 -16 -5 -22 -10 -13 -10 9 -1 20 -11 24 -23 l7 -23 10
23 c12 26 58 30 97 6 l25 -15 -25 6 c-14 3 -36 7 -50 8 -25 2 -25 1 -22 -70 2
-66 1 -73 -17 -73 -12 0 -18 -6 -17 -17 0 -10 -4 -17 -10 -16 -7 1 -11 -9 -10
-22 0 -14 7 -25 15 -25 12 0 13 -21 7 -127 -4 -83 -11 -130 -19 -135 -9 -6 -9
-12 1 -28 7 -12 12 -54 12 -105 0 -48 4 -85 10 -85 5 0 7 -6 4 -14 -3 -8 -14
-11 -28 -9 -21 4 -25 0 -31 -36 -4 -23 -11 -39 -16 -35 -5 3 -9 -2 -9 -10 0
-18 16 -21 25 -6 12 20 23 9 29 -29 3 -22 11 -41 18 -43 8 -3 8 -9 1 -23 -7
-13 -8 -28 -1 -44 7 -20 7 -23 -3 -14 -6 6 -11 24 -11 40 0 31 -21 77 -40 89
-7 4 -2 -9 10 -30 13 -21 21 -41 18 -43 -2 -2 -24 33 -49 79 -44 80 -87 201
-103 283 -4 22 -15 53 -26 70 -22 36 -22 74 -3 180 17 94 18 125 6 144 -8 12
-12 12 -25 2 -9 -8 -16 -18 -16 -23 0 -6 7 -5 15 2 13 11 15 6 15 -39 0 -29
-4 -50 -8 -47 -4 2 -6 -11 -4 -30 l4 -36 -46 45 c-61 60 -62 94 -6 203 40 78
49 114 30 114 -5 0 -10 -8 -10 -18 0 -10 -8 -36 -18 -58 -10 -21 -23 -50 -29
-64 l-10 -25 -16 37 c-9 21 -30 58 -46 82 -35 50 -61 112 -102 241 -34 106
-37 143 -11 141 9 0 20 -8 24 -16 5 -11 7 -10 7 5 0 11 -4 27 -9 35 -9 13 -11
13 -21 0 -17 -25 0 28 27 83 14 26 30 47 37 47 8 0 9 -3 1 -8z m2362 -135 c6
-10 21 -24 34 -30 43 -22 32 -32 -37 -33 -117 -1 -173 -8 -173 -21 0 -7 -5
-13 -11 -13 -5 0 0 18 12 40 12 21 27 36 32 33 6 -3 7 -1 3 6 -7 11 34 70 81
117 16 15 18 13 33 -32 9 -27 21 -57 26 -67z m56 -93 c5 -3 7 -18 3 -32 -3
-14 -2 -37 3 -51 6 -14 16 -48 23 -74 6 -27 27 -67 46 -89 21 -26 33 -50 33
-70 0 -17 7 -36 16 -43 15 -10 15 -20 -2 -117 -17 -101 -17 -109 -1 -168 20
-72 49 -120 117 -195 28 -30 50 -59 50 -64 0 -11 -47 -31 -74 -31 -28 0 -222
134 -295 203 -176 170 -216 304 -156 525 37 133 76 209 112 215 33 6 110 0
125 -9z m665 -215 c64 -25 125 -80 188 -173 l40 -58 -51 -47 c-42 -38 -103
-78 -254 -170 -8 -5 -12 -12 -8 -16 3 -3 15 -1 27 6 17 11 26 10 55 -3 69 -34
117 -131 155 -317 25 -124 26 -152 5 -192 -19 -37 -94 -74 -131 -64 -14 3
-125 106 -262 243 -258 258 -287 297 -298 405 -6 59 14 217 28 217 4 0 10 -4
14 -10 7 -11 51 4 75 24 8 7 30 16 49 20 34 6 196 97 243 136 30 25 54 25 125
-1z m634 -31 c3 -14 -2 -33 -13 -48 -12 -16 -22 -54 -26 -98 -10 -91 -19 -101
-67 -73 -20 11 -45 21 -55 21 -10 0 -26 7 -34 16 -11 10 -29 14 -54 12 l-37
-3 -2 75 c-3 95 7 112 74 112 26 0 55 6 63 14 39 33 140 15 151 -28z m-375
-280 c5 -7 7 -86 5 -175 -3 -159 9 -263 32 -291 21 -27 46 -237 29 -254 -16
-16 -89 64 -112 122 -11 27 -31 98 -45 157 -41 179 -81 257 -157 303 l-28 17
92 56 c128 77 168 91 184 65z"/>
<path d="M6613 9773 c-20 -4 -23 -11 -23 -51 l0 -47 85 0 85 0 0 46 c0 40 -3
48 -22 53 -25 6 -90 6 -125 -1z"/>
<path d="M458 8716 c-11 -12 -24 -30 -28 -42 -5 -11 -25 -26 -49 -34 -50 -16
-62 -29 -54 -59 6 -24 14 -24 160 -5 31 5 47 2 58 -10 20 -19 63 -20 87 -2 21
16 38 58 38 96 0 24 -5 31 -27 36 -16 4 -38 13 -51 21 -13 8 -44 15 -69 17
-35 2 -50 -2 -65 -18z"/>
<path d="M821 8556 c-7 -8 -33 -16 -59 -19 -69 -8 -112 -18 -112 -27 0 -12
-77 -40 -108 -40 -16 0 -37 7 -48 15 -26 19 -43 19 -89 -5 -28 -14 -49 -18
-73 -14 l-33 6 7 -49 c5 -42 3 -51 -11 -56 -9 -4 -25 -2 -36 4 -11 5 -37 9
-57 7 -48 -4 -49 -29 -2 -45 51 -17 74 -16 100 7 13 11 32 20 42 20 10 0 28 9
40 20 31 28 45 25 59 -13 10 -27 17 -33 38 -32 15 1 41 9 58 17 35 18 34 23
14 -57 -17 -64 -15 -68 22 -61 52 10 157 67 180 99 25 32 91 104 92 98 0 -2
19 2 43 8 37 10 42 15 42 39 0 25 -29 81 -30 57 0 -5 -7 1 -16 13 -17 25 -46
29 -63 8z"/>
<path d="M229 7513 c-10 -11 -14 -42 -13 -100 l2 -83 -40 -12 c-39 -11 -39
-12 -32 -52 9 -57 28 -81 79 -101 25 -9 45 -23 45 -31 0 -8 9 -14 20 -14 19 0
20 2 7 28 -8 15 -22 69 -32 120 l-18 92 28 61 c22 50 25 66 16 85 -12 28 -42
31 -62 7z"/>
<path d="M1095 7340 c-3 -5 -3 -43 1 -84 6 -71 5 -78 -25 -135 -54 -104 -35
-121 48 -43 56 53 62 76 34 132 -13 27 -14 41 -6 72 8 31 7 40 -7 53 -19 17
-36 19 -45 5z"/>
<path d="M402 6933 c-10 -16 -24 -42 -30 -60 -10 -30 -9 -32 25 -48 44 -21 77
-13 92 23 11 26 8 83 -5 104 -3 4 -18 8 -34 8 -20 0 -34 -8 -48 -27z"/>
<path d="M600 6856 c0 -8 -5 -16 -12 -18 -7 -3 -11 -23 -9 -55 2 -51 2 -51
-36 -64 -21 -6 -51 -22 -66 -35 -16 -13 -41 -26 -55 -29 -71 -15 -77 -23 -80
-117 -2 -68 1 -89 13 -102 9 -9 21 -14 26 -11 14 9 47 -13 55 -37 3 -13 15
-31 25 -41 19 -18 19 -19 -2 -48 -12 -17 -19 -41 -17 -58 2 -21 -4 -35 -22
-49 -25 -20 -25 -21 -7 -50 22 -38 16 -53 -34 -88 -21 -14 -39 -31 -39 -36 0
-5 10 -28 21 -50 20 -39 22 -60 17 -153 -1 -11 -1 -44 0 -74 l2 -54 53 7 c28
4 57 13 63 21 6 8 14 57 17 108 3 51 9 100 12 109 7 17 157 148 190 165 11 6
37 25 57 41 32 25 35 32 24 41 -12 10 -21 5 -46 -22 -18 -21 -45 -38 -64 -41
-18 -3 -48 -17 -66 -31 -39 -29 -62 -31 -80 -10 -10 12 -9 25 5 67 9 28 17 74
19 102 2 45 10 62 64 140 34 49 62 97 62 107 0 26 -26 30 -47 7 -10 -11 -30
-26 -46 -34 -24 -13 -28 -13 -33 1 -17 44 12 176 61 275 23 47 27 81 10 106
-17 27 -35 32 -35 10z"/>
<path d="M1022 6446 c-6 -13 -18 -63 -28 -111 -13 -67 -24 -96 -46 -121 l-29
-32 32 -22 c28 -21 30 -26 23 -59 -15 -74 -3 -101 42 -101 25 0 31 16 45 130
33 259 33 277 -1 318 -23 27 -24 27 -38 -2z"/>
<path d="M458 5136 c-10 -7 -18 -19 -18 -27 0 -8 -12 -39 -26 -69 -21 -46 -23
-58 -13 -77 17 -32 44 -38 85 -18 38 18 38 18 22 48 -6 12 -17 52 -22 89 -10
61 -12 66 -28 54z"/>
<path d="M195 4885 c-16 -31 -33 -58 -37 -61 -13 -8 -9 -43 8 -76 15 -28 19
-30 59 -26 39 5 44 3 48 -17 5 -27 -9 -55 -26 -55 -7 0 -28 -13 -47 -28 -55
-45 -139 -102 -150 -102 -11 0 -14 -109 -4 -159 4 -17 12 -31 18 -31 24 0 183
233 202 296 7 25 19 51 26 59 7 7 22 25 33 40 11 15 31 37 44 49 13 11 32 29
42 39 50 45 4 94 -101 107 -30 4 -62 10 -71 14 -12 5 -23 -6 -44 -49z"/>
</g>
</svg>
