<?xml version="1.0" standalone="no"?>
<!DOCTYPE svg PUBLIC "-//W3C//DTD SVG 20010904//EN"
 "http://www.w3.org/TR/2001/REC-SVG-20010904/DTD/svg10.dtd">
<svg version="1.0" xmlns="http://www.w3.org/2000/svg"
 width="720.000000pt" height="1280.000000pt" viewBox="0 0 720.000000 1280.000000"
 preserveAspectRatio="xMidYMid meet">
<metadata>
Created by potrace 1.16, written by Peter Selinger 2001-2019
</metadata>
<g transform="translate(0.000000,1280.000000) scale(0.100000,-0.100000)"
fill="#000000" stroke="none">
<path d="M0 6400 l0 -6400 3600 0 3600 0 0 1025 0 1025 -3590 0 -3590 0 0
1118 c0 879 3 1122 13 1134 8 11 36 17 89 21 l77 5 -9 -23 c-5 -13 -12 -52
-16 -87 -3 -34 -13 -73 -20 -86 -14 -22 -14 -22 48 -22 107 1 722 20 948 30
118 5 266 11 328 13 81 2 116 7 121 16 5 7 16 48 25 90 9 42 18 85 21 96 24
112 55 261 55 267 0 4 -33 8 -72 10 l-73 3 -28 52 c-16 29 -26 57 -23 61 3 5
34 5 70 0 36 -5 86 -5 113 -1 l48 9 1 42 c0 23 4 45 7 49 4 3 7 14 7 24 0 15
-7 17 -52 13 -29 -2 -57 -4 -63 -4 -21 -2 -121 18 -147 28 -26 11 -41 52 -19
52 5 0 20 14 32 31 l22 31 -53 -3 -53 -4 -2 115 c-1 70 -8 138 -18 175 -10 32
-17 80 -17 105 0 63 -23 168 -49 217 -27 53 -50 67 -79 47 -19 -13 -21 -12
-27 6 -3 11 -12 20 -20 20 -19 0 -73 -47 -80 -70 -4 -11 -11 -20 -17 -20 -19
0 -137 -73 -143 -88 -4 -12 -3 -13 10 -2 8 7 22 10 30 6 8 -3 15 -1 15 4 0 6
6 10 13 10 7 0 30 9 52 20 22 11 47 20 56 20 22 0 34 -36 19 -55 -11 -13 -16
-12 -37 5 -19 15 -30 17 -44 9 -15 -8 -17 -14 -9 -29 15 -27 29 -33 46 -19 23
19 29 2 11 -35 -15 -33 -51 -55 -65 -41 -3 3 -1 15 6 25 11 18 9 19 -23 18
-30 -1 -35 -5 -35 -24 0 -13 14 -49 31 -81 24 -43 29 -64 24 -87 -3 -17 -10
-72 -15 -121 -6 -66 -16 -108 -38 -156 -32 -72 -41 -82 -62 -69 -11 7 -9 20 8
77 32 102 55 232 49 279 -2 23 -14 55 -25 72 -20 27 -27 30 -82 31 -34 1 -60
-3 -60 -9 0 -5 -14 -10 -31 -10 -45 0 -66 -15 -80 -57 l-12 -38 -9 28 c-6 15
-14 25 -19 21 -5 -3 -9 -1 -9 4 0 6 -17 8 -39 5 -23 -3 -41 -1 -45 6 -4 6 -25
11 -47 11 -32 0 -39 -3 -39 -20 0 -10 -9 -24 -19 -30 -16 -8 -20 -6 -24 13 -2
12 -5 -2 -6 -30 l-1 -53 35 0 c22 0 41 7 54 21 15 17 26 20 48 14 27 -7 27 -8
6 -17 -11 -6 -23 -21 -26 -34 -3 -20 0 -24 20 -24 32 0 63 -17 63 -35 0 -10
16 -15 58 -17 53 -3 57 -5 60 -30 3 -28 -27 -58 -61 -58 -10 0 -15 -4 -12 -10
3 -5 0 -10 -7 -11 -42 -2 -80 -8 -85 -13 -4 -3 -1 -17 5 -31 7 -15 8 -27 2
-30 -15 -9 -30 4 -30 26 0 11 -12 31 -26 46 -23 23 -31 25 -81 21 -36 -3 -60
-11 -68 -21 -7 -10 -17 -17 -24 -17 -19 0 -12 -37 8 -43 24 -6 35 -96 13 -105
-18 -6 -32 15 -32 50 0 40 -10 58 -32 58 -12 0 -27 8 -35 17 -13 17 -14 16 -8
-4 4 -16 2 -23 -8 -23 -7 0 -33 -34 -56 -75 -24 -42 -47 -78 -52 -81 -26 -15
0 -24 84 -26 86 -3 92 -4 89 -23 -2 -11 -19 -36 -37 -55 -28 -30 -33 -43 -37
-98 -2 -34 0 -62 4 -62 5 0 6 -5 2 -11 -13 -21 -26 9 -22 50 3 34 1 40 -12 35
-8 -3 -53 -13 -99 -21 -97 -17 -126 -36 -117 -80 3 -15 2 -44 -2 -63 -7 -30
-9 -23 -15 50 -4 47 -7 1137 -7 2423 l0 2337 3590 0 3590 0 0 1775 0 1775
-3600 0 -3600 0 0 -6400z m6796 3680 c151 -69 198 -267 95 -405 -25 -34 -27
-41 -14 -50 14 -10 14 -14 -1 -37 -26 -40 -88 -50 -140 -23 -23 12 -38 13 -85
4 -31 -7 -78 -12 -105 -13 -42 -1 -51 3 -72 29 -22 28 -23 31 -7 42 15 12 15
15 -5 35 -85 91 -82 269 6 361 77 81 220 106 328 57z m-653 4 c52 -18 116 -76
142 -130 57 -121 8 -276 -107 -339 -77 -42 -185 -47 -259 -13 -106 49 -153
125 -152 244 1 110 42 177 135 223 50 25 73 31 128 31 36 0 87 -7 113 -16z
m-5802 -244 c21 -91 39 -168 39 -172 0 -5 -15 -8 -33 -8 -28 0 -34 4 -42 32
-9 29 -14 32 -50 31 -36 0 -40 -3 -47 -31 -8 -28 -13 -32 -42 -32 l-34 0 14
58 c7 31 26 110 41 175 l28 118 44 -3 44 -3 38 -165z m371 78 l3 -93 25 37
c20 31 31 38 58 38 17 0 32 -3 32 -6 0 -4 -16 -28 -35 -53 -30 -42 -33 -50
-21 -67 7 -10 25 -40 40 -66 l28 -48 -35 0 c-31 0 -39 5 -58 40 -26 45 -39 43
-39 -6 0 -31 -2 -34 -30 -34 l-30 0 0 175 0 175 30 0 29 0 3 -92z m1738 -83
l0 -176 -42 1 c-24 1 -55 -1 -69 -5 -19 -5 -33 -1 -55 18 -28 24 -29 29 -28
107 0 68 4 84 21 101 22 22 54 28 91 15 21 -7 22 -5 22 53 l0 61 30 0 30 0 0
-175z m452 83 l3 -92 25 37 c20 30 31 37 58 37 30 0 42 -12 24 -24 -5 -3 -21
-23 -36 -44 l-27 -40 40 -66 41 -66 -34 0 c-28 0 -38 7 -62 43 l-29 42 -3 -42
c-3 -42 -4 -43 -38 -43 l-34 0 0 175 0 175 35 0 34 0 3 -92z m728 27 l0 -66
30 16 c33 17 60 13 85 -11 11 -12 15 -40 15 -120 l0 -104 -30 0 -30 0 0 90 c0
75 -3 92 -16 97 -37 14 -49 -10 -52 -101 l-3 -86 -29 0 -30 0 0 175 0 175 30
0 30 0 0 -65z m530 4 c0 -55 2 -60 18 -53 32 14 75 7 94 -16 14 -17 18 -40 18
-102 0 -71 -2 -81 -26 -105 -21 -21 -31 -24 -57 -18 -18 4 -49 6 -69 6 l-38
-2 0 176 0 175 30 0 30 0 0 -61z m-1480 -9 c0 -38 2 -40 30 -40 25 0 30 -4 30
-25 0 -21 -5 -25 -30 -25 l-31 0 3 -67 c3 -66 4 -68 31 -71 28 -3 31 -9 21
-36 -8 -22 -72 -21 -96 1 -14 13 -18 31 -18 90 0 66 -2 75 -20 80 -13 3 -20
14 -20 29 0 17 6 24 20 24 16 0 20 7 20 33 0 40 6 47 37 47 20 0 23 -5 23 -40z
m-2096 -61 c24 -23 34 -121 17 -172 -15 -44 -59 -66 -97 -48 -14 6 -27 11 -29
11 -3 0 -5 -30 -5 -66 l0 -65 -27 3 -28 3 -3 179 -2 179 37 -5 c21 -3 47 -2
58 3 26 10 55 2 79 -22z m405 20 c17 -6 36 -19 41 -29 6 -10 10 -62 10 -115
l0 -97 -32 3 c-18 1 -48 -1 -66 -5 -50 -12 -82 13 -82 64 0 44 20 64 83 81 28
7 37 15 35 27 -5 26 -48 28 -55 3 -6 -25 -51 -29 -60 -5 -8 21 28 67 58 75 35
10 33 10 68 -2z m290 0 c38 -14 51 -35 51 -88 l0 -41 -61 0 c-60 0 -60 0 -57
-27 3 -32 44 -46 54 -19 4 10 18 16 35 16 35 0 39 -25 10 -61 -27 -34 -99 -34
-135 0 -23 22 -26 32 -26 96 0 79 20 120 63 128 12 2 25 5 28 6 3 0 20 -4 38
-10z m198 0 c32 -12 43 -26 43 -56 0 -31 -45 -33 -53 -3 -7 26 -47 27 -47 1 0
-11 12 -23 30 -31 78 -32 101 -82 61 -131 -15 -19 -29 -24 -66 -24 -37 0 -51
5 -66 24 -29 36 -25 61 11 61 24 0 30 -4 30 -21 0 -15 5 -20 22 -17 41 6 32
33 -19 59 -91 46 -80 134 19 148 4 1 19 -4 35 -10z m191 0 c29 -10 59 -59 45
-73 -15 -15 -51 -5 -56 15 -4 13 -12 20 -24 17 -29 -5 -21 -32 15 -50 73 -36
92 -81 53 -129 -15 -19 -29 -24 -66 -24 -37 0 -51 5 -66 24 -29 36 -25 61 10
61 21 0 30 -6 34 -21 7 -25 40 -22 45 3 2 12 -11 24 -43 39 -74 35 -85 107
-21 135 38 16 36 16 74 3z m211 0 c17 -6 36 -19 41 -29 6 -10 10 -62 10 -115
l0 -97 -32 3 c-18 1 -48 -1 -66 -5 -50 -12 -82 13 -82 64 0 44 20 64 83 81 28
7 37 15 35 27 -5 25 -45 27 -58 3 -11 -22 -44 -28 -55 -10 -12 18 16 68 44 78
35 13 43 13 80 0z m318 -21 c17 -16 23 -33 23 -65 l0 -43 -61 0 c-60 0 -60 0
-57 -27 3 -32 44 -46 54 -19 9 23 64 21 64 -2 0 -49 -66 -84 -121 -64 -50 20
-59 37 -59 121 0 68 3 80 23 98 12 11 29 23 37 26 25 10 73 -2 97 -25z m1001
-4 c19 -21 22 -36 22 -99 0 -70 -1 -74 -32 -100 -27 -23 -39 -26 -71 -22 -59
8 -80 35 -85 107 -3 36 1 72 9 91 24 60 111 73 157 23z m240 8 c8 -10 12 -52
12 -119 l0 -103 -30 0 -30 0 0 90 c0 75 -3 92 -17 97 -32 12 -53 -32 -53 -113
l0 -74 -30 0 -30 0 0 120 0 120 29 0 c16 0 31 -5 33 -11 2 -6 14 -5 33 5 33
17 63 13 83 -12z m530 -5 c16 -15 22 -32 22 -64 l0 -43 -61 0 c-60 0 -60 0
-57 -27 3 -32 44 -46 54 -19 4 10 18 16 35 16 35 0 40 -29 9 -60 -27 -27 -63
-34 -105 -20 -46 15 -55 34 -55 123 0 64 3 76 23 94 12 11 29 23 37 26 25 9
73 -4 98 -26z m539 9 c6 -6 14 -57 17 -118 l5 -108 -34 0 -35 0 0 90 c0 72 -3
92 -15 96 -33 13 -45 -15 -45 -102 l0 -84 -35 0 -35 0 0 120 0 120 35 0 c19 0
35 -4 35 -9 0 -6 12 -3 28 4 28 15 58 12 79 -9z m218 -7 c17 -16 21 -35 23
-120 l4 -100 -44 1 c-23 1 -54 -1 -68 -5 -35 -9 -80 27 -80 64 0 39 19 60 70
75 33 10 46 19 48 35 5 29 -44 30 -53 0 -5 -15 -14 -19 -33 -17 -22 2 -26 7
-24 28 5 31 28 58 56 63 35 7 80 -4 101 -24z m400 16 c37 -15 55 -46 55 -96 0
-29 0 -29 -59 -29 -63 0 -76 -8 -66 -40 8 -24 55 -28 55 -5 0 11 11 15 36 15
32 0 35 -2 29 -22 -4 -13 -18 -34 -33 -47 -21 -19 -33 -22 -65 -18 -59 8 -80
35 -85 107 -5 75 11 118 52 136 39 17 40 17 81 -1z m198 1 c15 -8 27 -11 27
-5 0 5 14 9 31 9 l30 0 -3 -154 c-3 -134 -5 -157 -22 -175 -42 -46 -144 -35
-166 19 -7 16 -9 34 -5 39 10 18 44 12 57 -9 26 -41 78 -15 78 40 0 17 -3 19
-19 10 -36 -19 -78 -12 -100 16 -16 21 -21 41 -21 90 0 72 13 107 44 122 29
14 37 14 69 -2z m285 -22 c20 -22 22 -36 22 -120 l0 -95 -42 1 c-24 1 -55 -1
-70 -5 -21 -6 -32 -2 -52 18 -46 46 -30 99 37 118 52 15 67 26 60 45 -8 21
-41 17 -55 -6 -17 -26 -58 -27 -58 -1 0 34 12 53 44 67 40 18 85 9 114 -22z
m-3048 -94 l0 -120 -35 0 -35 0 0 120 0 120 35 0 35 0 0 -120z m2280 63 c19
-90 25 -92 45 -14 18 69 20 71 51 71 l32 0 -24 -82 c-79 -281 -76 -273 -112
-276 -29 -3 -33 -1 -29 15 31 106 31 95 -2 207 -18 59 -35 114 -38 122 -4 10
4 14 29 14 34 0 35 -1 48 -57z"/>
<path d="M6613 9773 c-20 -4 -23 -11 -23 -51 l0 -47 85 0 85 0 0 46 c0 40 -3
48 -22 53 -25 6 -90 6 -125 -1z"/>
<path d="M731 9132 c-2 -116 -5 -112 99 -112 59 0 71 3 80 20 8 16 8 28 -3 48
-9 19 -10 33 -4 43 16 25 0 63 -30 76 -15 6 -53 15 -84 18 l-57 7 -1 -100z"/>
<path d="M1042 9063 c3 -72 5 -78 25 -81 20 -3 22 1 25 55 3 50 6 58 23 58 17
0 21 -8 25 -60 5 -57 6 -60 34 -63 l28 -4 -4 67 c-5 79 -23 100 -75 90 -17 -3
-34 -1 -38 5 -3 5 -15 10 -26 10 -18 0 -20 -6 -17 -77z"/>
<path d="M1620 7366 c0 -15 10 -16 315 -46 116 -11 374 -36 575 -55 201 -20
410 -40 465 -45 209 -19 636 -61 775 -75 80 -8 262 -26 405 -40 143 -13 397
-38 565 -54 289 -29 463 -44 485 -43 5 0 11 4 12 9 2 5 -52 14 -119 21 -192
20 -606 60 -793 77 -93 9 -253 24 -355 35 -102 10 -259 26 -350 35 -91 8 -232
22 -315 30 -154 16 -546 54 -830 80 -88 9 -227 22 -310 31 -82 8 -222 21 -310
29 -88 8 -172 17 -187 20 -19 3 -28 0 -28 -9z"/>
<path d="M1050 6241 c-57 -4 -88 -9 -77 -13 10 -5 33 -8 51 -8 19 0 45 -10 61
-22 16 -12 53 -27 84 -33 36 -8 58 -18 65 -31 6 -10 11 -20 11 -21 0 -1 12 -4
26 -8 23 -6 27 -3 32 25 6 26 9 29 25 21 10 -6 33 -23 50 -40 l32 -29 0 79 0
79 -74 0 c-40 0 -100 2 -132 4 -32 2 -102 1 -154 -3z"/>
<path d="M4048 5842 c-38 -42 -47 -70 -52 -155 -1 -26 -8 -53 -14 -59 -7 -7
-12 -18 -12 -25 0 -7 -4 -13 -8 -13 -5 0 -25 -16 -45 -37 -41 -40 -45 -64 -22
-120 8 -19 15 -43 15 -53 0 -9 13 -33 29 -53 17 -22 27 -46 26 -61 -2 -14 5
-32 16 -42 40 -36 3 -54 -41 -19 -39 31 -103 53 -138 49 -35 -5 -36 -4 -18 10
18 15 18 16 -8 26 -37 14 -48 13 -74 -6 -21 -15 -32 -64 -13 -64 5 0 11 -9 14
-20 4 -17 3 -18 -16 -8 -12 6 -29 20 -38 30 -15 17 -17 17 -23 1 -8 -19 -52
-247 -61 -315 l-6 -47 78 5 c43 2 104 6 137 8 l58 4 -5 -35 c-4 -20 -10 -40
-14 -44 -5 -5 -35 -11 -68 -14 -74 -8 -103 -21 -121 -57 -11 -22 -22 -28 -48
-28 -31 0 -34 -3 -49 -52 -9 -29 -23 -96 -31 -148 -8 -52 -18 -113 -22 -135
-14 -89 -13 -104 7 -110 11 -4 32 -4 47 -1 17 4 57 -5 107 -23 75 -27 82 -31
104 -74 13 -26 31 -49 40 -51 24 -8 392 -25 698 -32 l272 -7 5 34 c30 179 40
399 19 406 -7 3 -13 -2 -13 -11 0 -21 -16 -20 -25 2 -3 9 -6 19 -5 21 1 2 -3
7 -8 10 -6 3 -12 15 -14 26 -3 18 2 20 43 19 46 -1 47 -1 53 35 12 75 8 95
-25 114 -17 9 -43 17 -58 17 -26 0 -91 54 -91 76 0 5 -14 26 -31 47 -17 21
-29 40 -26 43 8 9 53 12 169 14 107 2 107 2 112 29 13 63 26 184 21 192 -3 4
-23 16 -43 25 -20 8 -45 20 -54 25 -45 23 -188 -8 -188 -41 0 -8 15 -24 34
-34 24 -13 35 -27 38 -47 5 -33 3 -34 -35 -16 -24 11 -53 52 -49 70 1 4 -9 7
-23 7 -13 0 -36 5 -49 12 -20 8 -36 8 -66 -1 -23 -7 -49 -10 -58 -6 -41 13
-70 142 -39 174 10 11 9 13 -5 8 -14 -5 -16 2 -11 63 5 64 3 74 -25 123 -26
45 -30 65 -30 119 0 78 -7 119 -32 173 -25 57 -52 77 -108 83 -45 4 -49 2 -84
-36z m176 -679 c39 -32 81 -69 93 -83 20 -24 22 -24 40 -8 39 36 91 2 115 -75
9 -29 9 -40 0 -49 -9 -9 -12 -9 -12 1 0 11 -3 11 -15 1 -13 -10 -15 -9 -15 9
0 20 -55 80 -74 81 -4 0 -6 -14 -4 -30 4 -28 0 -25 -71 45 -42 41 -87 82 -101
91 -35 24 -50 44 -43 60 3 8 8 14 10 14 3 0 38 -26 77 -57z"/>
<path d="M5355 5586 c-28 -42 -35 -88 -36 -232 -1 -193 19 -276 74 -297 19 -7
40 -53 33 -72 -3 -8 -23 -10 -60 -7 -69 6 -76 -13 -11 -29 51 -13 60 -29 15
-29 -17 0 -30 5 -30 13 0 8 -4 7 -10 -3 -5 -8 -10 -29 -10 -46 0 -29 -4 -32
-42 -42 -24 -6 -65 -14 -91 -17 -38 -5 -48 -10 -45 -23 2 -12 19 -19 58 -25
113 -17 108 -13 89 -79 -9 -35 -13 -38 -45 -38 -51 0 -96 -26 -92 -53 2 -14 9
-20 18 -18 8 3 29 5 45 5 17 1 35 4 41 8 18 12 27 -23 10 -36 -8 -6 -19 -35
-24 -65 -9 -47 -7 -57 9 -74 10 -12 19 -26 19 -32 0 -7 9 -20 20 -30 11 -10
17 -21 15 -26 -3 -4 -1 -10 5 -14 5 -3 10 -13 10 -22 0 -12 -7 -14 -36 -8 -24
4 -34 3 -29 -4 3 -6 14 -11 24 -11 14 0 17 -6 14 -24 -4 -18 0 -26 16 -31 13
-4 21 -15 21 -28 0 -18 -2 -19 -10 -7 -7 11 -10 7 -10 -18 0 -30 2 -32 25 -26
15 4 25 2 25 -5 0 -6 5 -11 10 -11 6 0 10 8 10 18 0 14 2 15 10 2 7 -11 10 -7
10 18 0 29 3 32 29 32 17 0 33 5 36 10 9 14 48 13 63 -2 7 -7 12 -20 12 -30 0
-10 6 -18 13 -19 6 0 -1 -6 -16 -13 l-29 -13 26 -16 c29 -20 57 -22 73 -6 6 6
16 8 21 5 11 -7 10 -74 -1 -92 -4 -8 9 -14 40 -18 64 -9 85 -8 78 4 -3 6 -16
10 -28 10 -18 0 -19 2 -7 10 18 11 61 2 75 -17 11 -15 27 -17 170 -28 44 -3
130 -10 190 -15 61 -6 113 -10 117 -10 4 0 5 13 2 29 -6 26 -3 30 21 33 23 2
28 9 31 35 3 26 -1 36 -20 48 -27 18 -40 53 -25 71 7 9 -1 18 -31 35 -44 25
-51 39 -19 39 15 0 19 5 15 15 -3 8 -1 15 3 15 5 0 16 3 25 6 11 4 16 1 16
-11 0 -9 5 -13 10 -10 6 3 10 1 10 -6 0 -10 3 -10 12 -1 9 9 9 21 0 48 -6 21
-9 41 -6 46 9 13 -6 48 -20 48 -8 0 -20 7 -27 16 -12 15 -14 14 -19 -1 -5 -14
-8 -12 -18 10 -11 24 -11 26 8 20 16 -5 20 -2 20 14 0 11 -6 24 -14 28 -13 8
-26 47 -30 96 -2 15 -12 38 -23 50 -31 36 -36 57 -13 57 10 0 22 5 25 10 4 6
-7 10 -24 10 -17 0 -31 5 -31 11 0 5 -4 8 -9 4 -11 -6 -51 42 -51 62 0 9 -8
13 -24 11 -35 -4 -116 42 -116 66 0 14 -70 76 -86 76 -15 0 -23 79 -23 202 1
66 -3 93 -17 117 -24 40 -75 64 -129 59 -45 -3 -65 12 -65 47 0 26 -40 98 -75
135 -110 116 -126 128 -138 98 -4 -10 -6 -10 -6 0 -2 20 -30 13 -46 -12z m197
-128 c36 -40 38 -46 33 -93 -7 -66 -7 -73 1 -188 7 -108 -2 -136 -33 -104 -14
13 -16 33 -15 104 l2 88 -40 28 c-22 16 -40 33 -40 38 0 12 17 12 22 0 2 -6
18 -12 36 -16 26 -4 32 -2 32 13 0 10 -11 29 -25 42 -34 32 -67 98 -60 120 9
29 44 16 87 -32z m183 -587 c-3 -5 -1 -12 5 -16 5 -3 10 -1 10 4 0 6 5 11 10
11 6 0 10 -10 10 -22 0 -12 -3 -19 -6 -16 -3 4 -20 0 -37 -7 -18 -7 -85 -17
-150 -21 -100 -6 -120 -10 -130 -25 -7 -11 -17 -19 -23 -19 -6 0 -17 -7 -24
-15 -12 -14 -16 -13 -36 6 -23 21 -23 23 -5 33 10 6 31 20 46 30 19 14 52 22
109 26 44 4 97 14 116 23 38 17 115 23 105 8z m-17 -103 c5 -7 17 -78 27 -158
20 -169 20 -169 30 -195 4 -11 9 -26 11 -32 2 -7 8 -13 14 -13 7 0 7 6 0 21
-14 26 -6 36 15 19 10 -8 14 -22 11 -35 -7 -28 3 -38 21 -23 11 9 13 5 11 -25
-2 -35 -18 -54 -18 -22 0 8 -9 15 -19 15 -10 0 -21 7 -25 15 -5 13 -9 12 -26
-5 -27 -27 -42 -22 -46 14 -2 21 1 26 12 22 10 -4 14 2 14 23 0 16 -6 31 -12
33 -9 3 -12 28 -10 87 2 51 -1 88 -8 96 -7 8 -9 19 -5 25 3 5 1 10 -5 10 -7 0
-11 19 -10 48 1 26 -2 57 -5 70 -8 24 6 30 23 10z m105 -522 c9 -7 17 -21 17
-30 0 -9 5 -16 10 -16 6 0 10 -19 10 -41 0 -39 -2 -41 -25 -37 -14 3 -28 1
-31 -3 -8 -14 -36 -10 -56 8 -18 17 -25 77 -10 100 6 10 47 31 62 32 3 0 13
-6 23 -13z"/>
<path d="M492 5558 c-7 -7 -12 -20 -12 -29 0 -10 -4 -21 -10 -24 -15 -9 -12
-82 3 -88 23 -9 301 3 311 13 7 7 3 10 -10 10 -12 0 -25 10 -31 23 -7 14 -26
28 -51 35 -21 7 -56 25 -77 42 -40 32 -100 41 -123 18z"/>
<path d="M2785 5419 c-35 -19 -79 -74 -120 -148 -22 -40 -49 -74 -60 -77 -11
-4 -27 -12 -35 -19 -8 -6 -36 -18 -62 -25 -26 -7 -53 -20 -61 -29 -19 -22 -29
-88 -27 -193 1 -48 -1 -92 -5 -98 -4 -6 -17 -2 -34 11 -15 11 -45 26 -67 34
-36 12 -40 12 -48 -6 -11 -23 -29 -24 -46 -4 -15 18 -49 19 -83 4 -18 -8 -30
-8 -47 1 -29 16 -44 1 -31 -31 8 -22 6 -25 -17 -24 -25 0 -27 -5 -49 -95 -35
-149 -32 -160 42 -160 24 0 34 -5 38 -20 4 -17 27 -26 59 -22 12 2 30 -27 23
-38 -3 -5 -22 -10 -41 -10 -24 0 -33 4 -28 12 5 8 0 9 -16 5 -16 -4 -28 0 -40
15 l-17 21 -22 -32 c-22 -31 -41 -40 -41 -21 0 6 6 10 13 10 8 0 19 11 25 24
9 20 8 25 -4 30 -27 10 -32 7 -37 -26 -4 -18 -9 -47 -12 -64 -7 -30 -5 -31 19
-27 21 4 28 0 35 -20 9 -24 12 -25 73 -20 35 3 71 10 80 14 25 13 58 11 57 -3
0 -7 -8 -44 -18 -83 l-17 -70 -66 -6 c-42 -3 -75 -13 -94 -26 -16 -11 -39 -24
-52 -27 -12 -4 -20 -11 -18 -15 5 -7 321 -22 723 -35 113 -4 134 -2 145 12 10
12 10 14 0 8 -9 -5 -11 -1 -8 16 3 13 5 26 5 31 1 4 6 7 11 7 6 0 10 -13 10
-29 0 -16 6 -33 13 -38 6 -6 87 -13 180 -16 139 -4 167 -3 167 9 0 8 4 14 10
14 5 0 0 17 -11 37 -16 29 -21 54 -20 107 1 53 -4 77 -19 103 -11 19 -18 38
-15 43 13 22 -9 40 -49 41 -37 0 -44 5 -78 48 -35 46 -40 49 -105 61 -37 7
-99 15 -138 18 -61 6 -71 10 -82 32 -6 13 -11 26 -9 27 2 2 72 -1 156 -7 l152
-10 62 -43 c88 -62 121 -70 231 -55 l90 13 3 35 c1 19 9 69 17 110 21 110 25
149 13 156 -6 4 -5 10 3 15 9 5 14 27 15 57 0 26 3 52 6 57 3 6 9 24 12 41 7
29 5 32 -20 32 -25 0 -26 -2 -11 -13 19 -13 24 -30 6 -19 -13 8 -89 -15 -89
-28 0 -4 -8 -8 -17 -8 -26 -1 -63 -35 -63 -59 0 -17 -6 -21 -34 -21 -26 0 -35
-5 -39 -22 -4 -14 0 -26 11 -34 15 -12 15 -13 1 -14 -9 0 -29 12 -44 26 -15
14 -34 23 -42 20 -8 -3 -21 -6 -29 -6 -21 0 3 -36 34 -50 17 -7 22 -14 15 -21
-13 -13 -58 7 -77 36 -11 16 -12 31 -4 66 17 75 21 139 9 153 -6 7 -20 51 -30
97 -39 173 -45 190 -75 225 -24 27 -41 35 -76 39 -25 3 -54 1 -65 -6z m130
-310 c0 -20 -6 -25 -32 -27 -17 -2 -34 -10 -37 -18 -3 -8 -1 -49 5 -91 11 -80
6 -95 -31 -86 -14 4 -18 21 -24 105 -4 63 -2 105 4 113 5 6 6 15 2 19 -4 4 14
5 41 1 34 -5 47 -4 47 5 0 6 6 10 13 8 6 -3 12 -16 12 -29z"/>
<path d="M5120 4141 c0 -54 4 -82 14 -90 7 -6 42 -11 77 -11 80 1 79 1 164 -5
39 -2 62 -2 52 1 -11 4 -16 12 -13 20 4 9 -9 21 -38 35 -24 11 -47 19 -52 18
-21 -4 -35 2 -29 11 3 6 -5 14 -19 20 -14 5 -26 14 -26 19 0 6 -13 17 -30 26
-36 19 -39 6 -9 -37 12 -16 19 -31 17 -34 -7 -6 -88 83 -88 96 0 5 -4 10 -10
10 -6 0 -10 -33 -10 -79z"/>
</g>
</svg>
