<?xml version="1.0" standalone="no"?>
<!DOCTYPE svg PUBLIC "-//W3C//DTD SVG 20010904//EN"
 "http://www.w3.org/TR/2001/REC-SVG-20010904/DTD/svg10.dtd">
<svg version="1.0" xmlns="http://www.w3.org/2000/svg"
 width="720.000000pt" height="1280.000000pt" viewBox="0 0 720.000000 1280.000000"
 preserveAspectRatio="xMidYMid meet">
<metadata>
Created by potrace 1.16, written by Peter Selinger 2001-2019
</metadata>
<g transform="translate(0.000000,1280.000000) scale(0.100000,-0.100000)"
fill="#000000" stroke="none">
<path d="M0 6400 l0 -6400 3600 0 3600 0 0 1025 0 1025 -3590 0 -3590 0 0 304
c0 167 3 311 6 319 3 9 13 13 25 10 11 -3 53 0 93 7 66 11 77 11 103 -5 29
-17 31 -17 90 14 61 30 83 51 116 111 18 33 33 35 51 8 7 -12 3 -30 -17 -70
-15 -29 -29 -67 -33 -84 -5 -27 -1 -34 40 -68 36 -29 59 -39 105 -46 32 -4 70
-14 82 -21 14 -8 81 -16 164 -20 125 -6 145 -10 192 -34 39 -20 59 -25 82 -20
17 4 31 10 31 15 0 14 -93 71 -107 66 -7 -3 -18 4 -24 15 -6 11 -35 46 -65 77
-31 31 -76 82 -102 112 -26 30 -104 113 -174 183 -78 78 -135 145 -146 170
-11 23 -38 63 -60 88 -23 26 -60 84 -82 129 -22 46 -48 93 -59 104 -10 12 -36
51 -56 88 -35 64 -57 88 -139 151 -31 24 -36 33 -36 70 0 48 -29 102 -59 112
l-21 6 0 2705 0 2704 3590 0 3590 0 0 1775 0 1775 -3600 0 -3600 0 0 -6400z
m6782 3684 c50 -17 112 -73 138 -125 44 -85 32 -202 -29 -284 -25 -34 -27 -41
-14 -50 14 -10 14 -14 -2 -38 -22 -35 -88 -46 -136 -23 -29 13 -43 14 -94 4
-106 -20 -142 -17 -169 17 -22 27 -22 31 -7 41 15 11 14 14 -6 36 -63 67 -82
200 -42 288 60 133 208 188 361 134z m-639 0 c52 -18 116 -76 142 -130 22 -47
30 -130 16 -180 -32 -119 -134 -194 -265 -194 -165 0 -272 106 -270 266 2 153
105 252 265 253 36 1 86 -6 112 -15z m-5839 -91 c10 -34 76 -315 76 -324 0 -5
-16 -9 -35 -9 -30 0 -35 3 -35 24 0 31 -13 39 -59 39 -31 0 -36 -3 -43 -31 -8
-28 -13 -32 -42 -32 l-34 0 14 58 c7 31 25 110 40 175 l28 117 42 0 c32 0 44
-4 48 -17z m406 -75 l1 -93 30 38 c23 27 39 37 60 37 16 0 29 -3 29 -6 0 -4
-16 -27 -35 -53 l-34 -47 21 -35 c11 -19 29 -49 40 -66 l20 -33 -36 0 c-30 0
-38 5 -57 40 -26 45 -39 43 -39 -6 0 -31 -2 -34 -30 -34 l-30 0 0 175 0 175
30 0 30 0 0 -92z m1740 -83 l0 -176 -42 1 c-24 1 -55 -1 -69 -5 -19 -5 -33 -1
-55 18 -27 24 -29 29 -29 106 0 69 3 84 21 102 23 22 55 28 92 15 21 -7 22 -5
22 53 l0 61 30 0 30 0 0 -175z m452 83 l3 -92 25 37 c20 30 31 37 58 37 30 0
42 -12 24 -24 -5 -3 -21 -23 -36 -44 l-27 -40 41 -66 41 -67 -38 3 c-32 3 -41
9 -58 40 -26 49 -35 48 -35 -2 0 -39 -1 -40 -35 -40 l-35 0 0 175 0 175 35 0
34 0 3 -92z m728 28 l0 -65 35 15 c28 11 40 12 58 3 34 -18 37 -27 37 -136 l0
-103 -30 0 -30 0 0 90 c0 75 -3 92 -16 97 -37 14 -49 -10 -52 -101 l-3 -86
-29 0 -30 0 0 175 0 175 30 0 30 0 0 -64z m530 3 c0 -58 1 -60 23 -53 76 26
107 -8 107 -118 0 -71 -2 -81 -26 -105 -20 -20 -31 -24 -52 -18 -15 4 -46 6
-69 5 l-43 -1 0 176 0 175 30 0 30 0 0 -61z m-1480 -9 c0 -38 2 -40 30 -40 25
0 30 -4 30 -25 0 -21 -5 -25 -30 -25 l-31 0 3 -67 c3 -66 4 -68 31 -71 21 -3
27 -8 23 -19 -3 -8 -6 -19 -6 -24 0 -16 -73 -10 -92 8 -14 13 -18 31 -18 90 0
66 -2 75 -20 80 -13 3 -20 14 -20 29 0 17 6 24 20 24 17 0 20 7 20 40 0 38 2
40 30 40 28 0 30 -2 30 -40z m-2096 -61 c24 -23 34 -121 17 -172 -15 -44 -59
-66 -97 -48 -14 6 -27 11 -29 11 -3 0 -5 -29 -5 -65 l0 -65 -30 0 -30 0 0 181
0 182 38 -5 c20 -3 46 -2 57 3 26 10 55 2 79 -22z m405 20 c17 -6 36 -19 41
-29 6 -10 10 -62 10 -115 l0 -97 -32 3 c-18 1 -48 -1 -66 -5 -50 -12 -82 13
-82 64 0 44 20 64 83 81 28 7 37 15 35 27 -5 25 -45 27 -58 3 -13 -25 -48 -28
-57 -5 -8 21 28 67 58 75 35 10 33 10 68 -2z m287 1 c39 -15 53 -39 54 -87 l0
-43 -61 0 c-60 0 -60 0 -57 -27 3 -32 44 -46 54 -19 9 23 64 21 64 -2 0 -51
-67 -84 -124 -62 -45 17 -55 38 -56 116 0 78 20 119 63 127 12 2 25 5 29 6 4
0 19 -4 34 -9z m201 -1 c32 -12 43 -26 43 -56 0 -31 -45 -33 -53 -2 -7 24 -40
23 -45 -2 -2 -10 9 -21 30 -29 75 -30 98 -83 59 -131 -40 -50 -151 -22 -151
38 0 19 5 23 30 23 24 0 30 -4 30 -21 0 -15 5 -20 22 -17 42 6 33 36 -16 58
-76 32 -89 107 -23 135 39 17 39 17 74 4z m202 -4 c26 -13 46 -56 33 -70 -14
-14 -50 -3 -55 16 -4 13 -12 20 -24 17 -29 -5 -21 -32 15 -50 73 -36 92 -81
53 -129 -15 -19 -29 -24 -66 -24 -37 0 -51 5 -66 24 -29 36 -25 61 10 61 21 0
30 -6 34 -21 7 -25 40 -22 45 4 3 12 -9 23 -42 37 -74 31 -86 108 -22 136 40
17 51 17 85 -1z m200 4 c17 -6 36 -19 41 -29 6 -10 10 -62 10 -115 l0 -97 -32
3 c-18 1 -48 -1 -66 -5 -50 -12 -82 13 -82 64 0 44 20 64 83 81 28 7 37 15 35
27 -5 25 -45 27 -58 3 -11 -22 -44 -28 -55 -11 -12 20 8 59 38 74 38 19 45 19
86 5z m318 -21 c17 -16 23 -33 23 -65 l0 -43 -61 0 c-60 0 -60 0 -57 -27 3
-32 44 -46 54 -19 9 23 64 21 64 -2 0 -49 -66 -84 -121 -64 -50 20 -59 37 -59
121 0 68 3 80 23 98 12 11 29 23 37 26 25 10 73 -2 97 -25z m1001 -4 c18 -21
22 -36 22 -98 0 -77 -15 -107 -61 -121 -31 -10 -84 3 -105 26 -23 26 -31 127
-13 170 24 60 111 73 157 23z m240 8 c8 -10 12 -52 12 -119 l0 -103 -30 0 -30
0 0 90 c0 75 -3 92 -17 97 -32 12 -53 -32 -53 -113 l0 -74 -30 0 -30 0 0 120
0 120 29 0 c16 0 31 -5 33 -11 2 -6 14 -5 33 5 33 17 63 13 83 -12z m530 -8
c15 -17 22 -38 22 -65 l0 -39 -61 0 c-60 0 -60 0 -57 -27 3 -32 44 -46 54 -19
4 10 18 16 35 16 22 0 29 -5 29 -20 0 -42 -64 -79 -115 -66 -52 13 -65 39 -65
124 0 69 3 81 23 99 12 11 29 23 37 26 28 11 75 -3 98 -29z m539 12 c7 -6 13
-53 15 -116 l3 -105 -32 -3 -33 -3 0 91 c0 72 -3 92 -15 96 -33 13 -45 -15
-45 -102 l0 -84 -35 0 -35 0 0 120 0 120 35 0 c19 0 35 -4 35 -9 0 -6 12 -3
28 4 28 15 58 12 79 -9z m221 -12 c19 -22 22 -36 22 -120 l0 -95 -42 1 c-24 1
-54 -1 -68 -5 -34 -9 -80 27 -80 61 0 41 18 63 63 75 52 15 67 26 60 45 -8 21
-41 17 -55 -6 -12 -19 -48 -27 -60 -14 -15 14 11 60 43 77 43 22 86 16 117
-19z m391 25 c36 -13 61 -53 61 -99 l0 -30 -59 0 c-65 0 -73 -5 -64 -38 6 -26
53 -32 53 -7 0 11 11 15 36 15 32 0 35 -2 29 -22 -13 -43 -42 -63 -90 -63 -64
0 -87 27 -93 105 -5 75 11 118 52 136 38 16 36 16 75 3z m204 -3 c15 -8 27
-11 27 -5 0 5 14 9 30 9 l30 0 0 -149 c0 -134 -2 -151 -20 -174 -41 -52 -147
-44 -170 13 -7 16 -9 34 -5 39 9 15 46 7 60 -12 27 -37 75 -10 75 43 0 17 -3
19 -19 10 -36 -19 -78 -12 -100 16 -16 21 -21 41 -21 88 0 85 8 106 44 122 39
17 36 17 69 0z m285 -22 c19 -22 22 -36 22 -120 l0 -95 -42 1 c-24 1 -54 -1
-68 -5 -35 -9 -80 27 -80 64 0 39 19 60 70 75 33 10 46 19 48 35 4 28 -31 29
-51 0 -22 -30 -63 -23 -59 11 10 70 109 91 160 34z m-3048 -94 l0 -120 -35 0
-35 0 0 113 c0 63 3 117 7 120 3 4 19 7 35 7 l28 0 0 -120z m2280 63 c19 -91
25 -93 45 -14 17 70 18 71 50 71 l33 0 -52 -177 -51 -178 -34 -3 c-28 -3 -33
-1 -27 14 29 76 29 101 -4 209 -17 59 -34 113 -37 121 -4 10 4 14 29 14 34 0
35 -1 48 -57z"/>
<path d="M6613 9773 c-20 -4 -23 -11 -23 -51 l0 -47 85 0 85 0 0 46 c0 40 -3
48 -22 53 -25 6 -90 6 -125 -1z"/>
<path d="M4355 7110 c-67 -7 -105 -17 -105 -27 0 -3 8 -17 18 -31 30 -45 67
-193 60 -243 -7 -43 18 -127 42 -147 21 -17 21 -21 12 -177 -8 -141 -12 -165
-32 -202 -21 -34 -31 -42 -65 -47 -22 -4 -49 -8 -60 -11 -11 -2 -45 -8 -75
-12 -74 -11 -78 -34 -16 -97 42 -42 45 -47 35 -76 -19 -52 -5 -78 45 -85 43
-7 180 18 200 36 6 5 21 9 33 9 28 0 70 25 98 57 18 21 85 45 162 58 12 2 36
13 52 24 16 12 34 21 39 21 20 0 62 62 68 101 4 22 11 42 15 45 12 7 11 131
-1 153 -14 27 18 90 50 97 14 3 35 10 47 16 12 6 34 11 49 12 21 1 30 8 37 29
8 24 5 33 -13 52 -12 13 -38 31 -56 40 -38 18 -41 29 -20 71 18 34 15 39 -26
49 -18 4 -36 9 -40 10 -5 1 -17 3 -27 4 -23 1 -35 29 -21 46 5 6 6 16 2 20 -4
5 1 5 11 2 13 -5 17 -1 17 21 0 22 5 27 26 29 29 1 45 19 37 40 -6 16 -23 18
-23 2 0 -5 -4 -7 -10 -4 -5 3 -10 3 -10 -2 -1 -4 -9 -18 -19 -30 -13 -16 -25
-20 -42 -16 -21 6 -22 7 -3 14 15 6 13 8 -11 8 -31 1 -60 14 -60 28 -1 4 -10
26 -22 48 -35 66 -62 75 -205 74 -67 -1 -154 -5 -193 -9z"/>
<path d="M2546 6374 c-10 -27 -7 -99 6 -112 7 -7 31 -12 54 -12 39 0 43 3 53
33 12 36 -2 80 -31 98 -23 15 -75 10 -82 -7z"/>
<path d="M3742 6348 c-6 -8 -16 -35 -21 -60 -22 -95 -65 -160 -102 -151 -9 3
-26 17 -37 33 -12 15 -38 34 -58 40 -34 12 -38 11 -55 -11 -25 -33 -24 -39 16
-92 19 -25 35 -53 35 -61 0 -8 5 -18 11 -22 7 -4 8 -29 4 -76 l-7 -70 38 -39
c36 -37 42 -39 98 -39 54 0 92 8 151 31 104 40 132 54 146 72 15 21 14 27 -31
118 -26 52 -49 115 -53 138 -3 23 -12 50 -21 60 -9 10 -13 21 -9 24 3 4 1 7
-5 7 -6 0 -13 8 -17 18 -3 9 -20 34 -38 55 -27 31 -35 36 -45 25z"/>
<path d="M4940 6165 c-7 -8 -16 -13 -20 -10 -4 2 -16 -4 -26 -13 -10 -10 -33
-23 -49 -30 -17 -7 -50 -30 -75 -52 -24 -21 -47 -37 -51 -35 -4 3 -22 -9 -40
-25 -19 -16 -56 -34 -84 -41 -27 -6 -61 -17 -75 -24 -14 -7 -41 -19 -60 -26
-43 -16 -168 -98 -194 -128 -11 -11 -27 -21 -38 -21 -10 0 -27 -14 -38 -32
-16 -27 -18 -43 -13 -106 5 -65 4 -76 -15 -102 -12 -16 -22 -43 -22 -59 0 -32
-29 -69 -91 -114 -26 -20 -48 -27 -80 -27 -25 0 -55 -7 -67 -16 -19 -13 -22
-24 -21 -77 1 -81 22 -263 32 -273 13 -13 7 -187 -8 -229 -8 -22 -15 -47 -15
-55 0 -24 -49 -149 -87 -223 -24 -47 -32 -72 -25 -79 18 -18 63 2 108 48 24
24 49 44 56 44 13 1 58 30 46 30 -4 0 19 26 50 58 82 84 123 131 161 185 19
26 38 47 43 47 4 0 8 7 8 15 0 8 9 20 20 27 11 7 20 18 20 25 0 6 18 30 39 52
40 41 186 243 211 291 7 14 16 27 19 30 14 11 41 60 41 74 0 8 6 19 13 23 8 4
24 28 38 53 13 25 34 56 46 69 11 13 40 60 63 105 23 44 48 95 57 111 32 59
44 85 57 122 8 21 25 63 39 93 54 119 103 282 91 302 -9 14 -51 9 -64 -7z"/>
<path d="M2888 5907 c-16 -13 -28 -27 -28 -31 0 -14 51 -78 58 -72 3 3 11 1
18 -5 15 -12 55 15 88 59 17 23 17 24 -5 48 -30 32 -93 33 -131 1z"/>
<path d="M2900 5725 c-7 -8 -27 -15 -44 -15 -17 0 -64 -9 -105 -20 -88 -24
-117 -25 -152 -6 -25 13 -28 12 -52 -15 -16 -18 -29 -50 -36 -91 -10 -55 -34
-878 -26 -886 7 -8 46 25 52 43 18 59 77 165 108 195 19 19 35 38 35 44 0 5 9
19 19 30 24 27 121 239 121 266 0 26 23 81 41 100 20 21 39 67 39 93 0 13 4
27 9 33 5 5 11 29 14 54 3 25 10 65 16 89 8 31 9 47 1 56 -6 7 -9 18 -8 25 5
19 -17 23 -32 5z"/>
<path d="M3261 5621 c-6 -11 -11 -41 -11 -66 0 -34 -7 -55 -26 -80 -14 -18
-27 -44 -28 -57 -6 -45 -118 -286 -156 -338 -50 -66 -90 -147 -90 -181 0 -58
-31 -139 -67 -173 -13 -11 -23 -26 -23 -32 0 -6 -17 -27 -37 -46 -71 -67 -124
-128 -136 -156 -16 -36 -64 -109 -77 -117 -15 -9 -12 -51 4 -64 16 -13 504
-28 576 -17 41 6 48 11 67 49 37 75 63 137 63 151 0 7 7 19 15 26 8 7 29 41
46 76 27 54 31 71 26 109 -8 53 -37 152 -76 255 -29 76 -49 236 -41 335 1 22
3 65 3 95 -1 236 -7 279 -32 231z"/>
</g>
</svg>
