<?xml version="1.0" standalone="no"?>
<!DOCTYPE svg PUBLIC "-//W3C//DTD SVG 20010904//EN"
 "http://www.w3.org/TR/2001/REC-SVG-20010904/DTD/svg10.dtd">
<svg version="1.0" xmlns="http://www.w3.org/2000/svg"
 width="720.000000pt" height="1280.000000pt" viewBox="0 0 720.000000 1280.000000"
 preserveAspectRatio="xMidYMid meet">
<metadata>
Created by potrace 1.16, written by Peter Selinger 2001-2019
</metadata>
<g transform="translate(0.000000,1280.000000) scale(0.100000,-0.100000)"
fill="#000000" stroke="none">
<path d="M0 6400 l0 -6400 3600 0 3600 0 0 1901 0 1901 -257 -4 c-381 -5
-2187 10 -2801 24 -583 13 -563 10 -529 69 l16 28 -82 -6 c-122 -9 -141 -19
-117 -63 8 -15 6 -21 -7 -28 -25 -12 -732 -6 -821 7 -71 11 -161 45 -163 62
-1 5 -2 15 -3 22 -3 33 -48 63 -120 81 -72 18 -73 19 -66 45 4 17 13 25 25 24
24 -2 157 64 168 83 4 8 19 14 33 14 14 0 22 4 19 10 -3 6 -17 10 -31 10 -13
0 -24 3 -24 8 0 4 -3 47 -7 95 -5 82 -4 89 17 112 13 14 29 25 36 25 6 0 14 9
17 20 5 20 8 20 39 7 18 -7 47 -13 63 -13 l30 1 3 255 c3 295 -3 280 104 280
60 0 68 2 68 19 0 18 -6 19 -72 15 -40 -2 -102 -8 -138 -12 l-65 -9 50 -3
c114 -8 -303 -17 -775 -18 -329 -1 -500 2 -490 8 11 7 7 10 -18 10 -18 0 -48
7 -68 15 -19 8 -32 10 -29 5 9 -14 -13 -12 -96 9 -41 10 -108 21 -149 24 l-75
5 60 -12 c43 -8 61 -16 63 -29 3 -15 -6 -17 -65 -18 -57 -2 -62 -3 -28 -8 43
-7 -441 -21 -722 -21 l-173 0 0 104 c0 85 3 105 16 110 26 10 1092 7 1096 -3
2 -5 35 -12 73 -15 47 -4 64 -3 50 3 -20 10 -20 10 0 16 25 8 29 39 8 57 -15
11 -16 10 -10 -12 6 -24 5 -24 -8 -6 -8 11 -11 22 -6 25 4 4 4 38 -1 78 -4 40
-7 196 -6 345 l3 273 35 5 35 6 -35 8 c-34 8 -34 9 -10 15 l25 7 -25 14 -25
14 25 7 c14 4 58 7 98 8 58 1 72 -2 72 -14 0 -8 -5 -15 -11 -15 -5 0 -7 -6 -3
-12 12 -19 12 -28 18 -420 l6 -368 -75 0 c-41 0 -75 -4 -75 -9 0 -10 69 -20
75 -11 2 4 81 5 175 2 193 -5 187 -7 172 74 l-10 49 -1 -52 c0 -28 -5 -55 -11
-58 -5 -3 -61 -3 -122 2 -62 4 -102 9 -88 11 29 4 52 22 29 22 -28 0 -43 43
-47 137 -7 150 5 258 33 291 15 18 21 33 15 41 -6 11 -9 11 -13 0 -4 -11 -8
-9 -20 5 -10 14 -15 48 -16 110 -1 50 -5 101 -8 113 -4 17 0 25 18 31 l23 9
-22 5 c-20 6 -22 13 -22 70 1 114 18 247 34 263 11 11 39 15 115 15 l101 0 1
-67 c4 -149 4 -278 1 -285 -3 -9 -4 -226 -1 -433 l2 -150 7 115 c4 63 8 233 9
378 0 160 5 271 11 283 9 16 22 19 81 19 l71 0 -4 -500 -3 -500 95 1 c62 0 88
3 75 9 -16 7 -17 9 -3 9 28 1 31 21 8 54 -26 35 -27 58 -22 710 l2 347 115 0
115 0 3 -417 c1 -230 1 -485 0 -567 l-1 -148 45 6 c25 3 109 6 185 6 l140 0
-5 123 c-5 119 -14 207 -23 216 -2 2 -4 -7 -4 -20 0 -19 -2 -21 -10 -9 -7 12
-11 10 -19 -10 -5 -14 -10 -19 -10 -11 -1 11 -4 11 -16 1 -13 -11 -15 -8 -16
16 0 16 -3 23 -6 17 -2 -7 -9 -13 -14 -13 -11 0 -12 500 0 518 5 9 26 12 62
10 l54 -3 0 240 0 240 -355 0 c-301 0 -361 2 -393 16 -21 9 -43 21 -49 27 -21
21 -41 14 -36 -13 l5 -25 -341 -2 c-187 -2 -366 -2 -396 -2 -30 1 -274 2 -542
3 l-488 2 -1 117 c-1 64 -1 279 -1 477 1 1496 2 1595 23 1595 5 0 9 -8 9 -17
0 -15 2 -15 9 -4 7 11 10 10 14 -5 4 -16 5 -17 6 -1 0 9 6 17 11 17 6 0 10 28
10 65 0 63 1 65 25 65 25 0 25 1 25 80 0 44 4 80 9 80 5 0 11 24 13 54 5 66
46 119 49 64 1 -21 2 -21 6 -3 2 11 6 30 9 43 2 12 10 22 17 22 16 1 57 35 57
49 0 6 -7 11 -15 11 -8 0 -15 7 -15 15 0 12 -14 15 -62 17 -295 9 1194 15
3825 17 l3147 1 0 1775 0 1775 -3600 0 -3600 0 0 -6400z m6786 3682 c159 -63
211 -265 105 -407 -25 -34 -27 -41 -14 -50 24 -18 0 -52 -48 -67 -33 -9 -47
-9 -72 2 -36 16 -116 15 -165 -1 -47 -15 -97 -4 -117 27 -13 20 -14 28 -4 40
10 12 8 19 -9 37 -37 39 -62 108 -62 171 0 78 16 128 58 176 79 93 205 120
328 72z m-643 2 c52 -18 116 -76 142 -130 60 -126 7 -282 -117 -344 -139 -69
-312 -20 -376 106 -42 84 -38 184 12 267 25 41 43 58 94 84 54 28 75 33 131
33 37 0 88 -7 114 -16z m-5806 -224 c52 -224 51 -200 11 -200 -31 0 -36 4 -41
30 -6 27 -11 30 -42 30 -19 0 -38 0 -42 1 -4 0 -11 -14 -16 -30 -7 -27 -12
-31 -41 -31 l-34 0 14 58 c7 31 26 110 41 175 l27 118 44 -3 45 -3 34 -145z
m373 58 l1 -93 30 38 c23 27 39 37 60 37 16 0 29 -3 29 -6 0 -4 -16 -28 -35
-54 l-34 -47 28 -45 c56 -89 56 -88 17 -88 -30 0 -38 5 -57 40 -26 45 -39 43
-39 -6 0 -31 -2 -34 -30 -34 l-30 0 0 175 0 175 30 0 30 0 0 -92z m1740 -83
l0 -176 -42 1 c-24 1 -54 -1 -68 -5 -43 -11 -77 25 -85 88 -7 58 7 128 30 147
17 14 51 17 83 6 21 -7 22 -5 22 53 l0 61 30 0 30 0 0 -175z m452 83 l3 -92
25 37 c20 30 31 37 58 37 30 0 42 -12 24 -24 -5 -3 -21 -23 -36 -44 l-27 -40
40 -66 41 -66 -35 0 c-30 0 -39 6 -62 43 l-28 42 -3 -42 c-3 -42 -4 -43 -38
-43 l-34 0 0 168 c0 93 3 172 7 175 3 4 19 7 34 7 l28 0 3 -92z m728 27 l0
-66 30 16 c33 17 60 13 85 -11 11 -12 15 -40 15 -120 l0 -104 -30 0 -29 0 -3
92 c-3 83 -5 93 -22 96 -33 7 -46 -25 -46 -110 l0 -78 -30 0 -30 0 0 175 0
175 30 0 30 0 0 -65z m530 4 c0 -58 1 -60 23 -53 76 26 107 -8 107 -118 0 -71
-2 -81 -26 -105 -20 -20 -31 -24 -52 -18 -15 4 -46 6 -69 5 l-43 -1 0 176 0
175 30 0 30 0 0 -61z m-1480 -9 c0 -38 2 -40 30 -40 25 0 30 -4 30 -25 0 -21
-5 -25 -30 -25 l-31 0 3 -67 c3 -66 4 -68 31 -71 21 -3 27 -8 23 -19 -3 -8 -6
-19 -6 -24 0 -16 -73 -10 -92 8 -14 13 -18 31 -18 90 0 66 -2 75 -20 80 -13 3
-20 14 -20 29 0 17 6 24 20 24 17 0 20 7 20 40 0 38 2 40 30 40 28 0 30 -2 30
-40z m-2096 -61 c24 -23 34 -121 17 -172 -15 -44 -59 -66 -97 -48 -14 6 -27
11 -29 11 -3 0 -5 -30 -5 -66 l0 -65 -27 3 -28 3 -3 179 -2 179 37 -5 c21 -3
47 -2 58 3 26 10 55 2 79 -22z m402 21 c8 0 23 -9 34 -20 17 -17 20 -33 20
-121 l0 -101 -32 3 c-18 1 -48 -1 -66 -5 -50 -12 -82 13 -82 64 0 44 20 64 83
81 28 7 37 15 35 27 -5 26 -48 28 -55 3 -6 -25 -51 -29 -60 -5 -13 34 56 90
95 78 8 -2 20 -4 28 -4z m290 0 c39 -15 53 -39 54 -87 l0 -43 -61 0 c-60 0
-60 0 -57 -27 3 -32 44 -46 54 -19 4 10 18 16 35 16 35 0 39 -25 10 -61 -27
-34 -99 -34 -135 0 -23 22 -26 32 -26 96 0 79 20 120 63 128 12 2 25 5 29 6 4
0 19 -4 34 -9z m201 -1 c32 -12 43 -26 43 -56 0 -31 -45 -33 -53 -3 -7 26 -47
27 -47 1 0 -12 12 -23 33 -31 74 -30 97 -83 58 -131 -40 -50 -151 -22 -151 38
0 31 42 32 62 1 9 -14 20 -19 31 -15 31 12 18 37 -28 57 -75 32 -87 107 -22
135 39 17 39 17 74 4z m197 -3 c31 -13 53 -55 38 -71 -14 -14 -50 -3 -55 16
-4 13 -12 20 -24 17 -29 -5 -21 -32 15 -50 73 -36 92 -81 53 -129 -15 -19 -29
-24 -66 -24 -37 0 -51 5 -66 24 -29 36 -25 61 10 61 21 0 30 -6 34 -21 7 -25
40 -22 45 3 2 12 -11 24 -43 39 -74 35 -85 107 -21 135 39 17 40 17 80 0z
m205 3 c17 -6 36 -19 41 -29 6 -10 10 -62 10 -115 l0 -97 -32 3 c-18 1 -48 -1
-66 -5 -50 -12 -82 13 -82 64 0 44 20 64 83 81 28 7 37 15 35 27 -5 25 -45 27
-58 3 -11 -22 -44 -28 -55 -10 -13 21 5 57 37 72 40 20 46 20 87 6z m319 -22
c16 -15 22 -32 22 -64 l0 -43 -61 0 c-60 0 -60 0 -57 -27 3 -32 44 -46 54 -19
9 23 64 21 64 -2 0 -69 -107 -94 -163 -37 -23 23 -24 151 -1 183 32 46 97 50
142 9z m1000 -3 c18 -21 22 -36 22 -98 0 -58 -4 -76 -20 -94 -43 -45 -130 -36
-157 18 -16 32 -17 121 -1 156 26 56 112 66 156 18z m240 8 c8 -10 12 -52 12
-119 l0 -103 -30 0 -30 0 0 90 c0 99 -12 119 -50 85 -17 -15 -20 -31 -20 -97
l0 -78 -30 0 -30 0 0 120 0 120 29 0 c16 0 31 -5 33 -11 2 -6 14 -5 33 5 33
17 63 13 83 -12z m530 -8 c15 -17 22 -38 22 -65 l0 -39 -61 0 c-60 0 -60 0
-57 -27 3 -32 44 -46 54 -19 4 10 18 16 35 16 35 0 40 -29 9 -60 -27 -27 -63
-34 -105 -20 -46 15 -55 34 -55 123 0 64 3 76 23 94 12 11 29 23 37 26 28 11
75 -3 98 -29z m539 12 c7 -6 13 -53 15 -116 l3 -105 -32 -3 -33 -3 0 91 c0 72
-3 92 -15 96 -33 13 -45 -15 -45 -102 l0 -84 -35 0 -35 0 0 120 0 120 35 0
c19 0 35 -4 35 -9 0 -6 12 -3 28 4 28 15 58 12 79 -9z m221 -12 c19 -22 22
-36 22 -120 l0 -95 -42 1 c-24 1 -54 -1 -68 -5 -35 -9 -80 27 -80 64 0 39 19
60 70 75 33 10 46 19 48 35 4 28 -31 29 -51 0 -22 -30 -63 -23 -59 11 10 70
109 91 160 34z m391 25 c36 -13 61 -53 61 -99 l0 -30 -59 0 c-65 0 -73 -5 -64
-38 6 -26 53 -32 53 -7 0 11 11 15 36 15 32 0 35 -2 29 -22 -13 -43 -42 -63
-90 -63 -64 0 -87 27 -93 105 -5 75 11 118 52 136 38 16 36 16 75 3z m204 -3
c15 -8 27 -11 27 -5 0 5 14 9 30 9 l30 0 0 -149 c0 -134 -2 -151 -20 -174 -41
-52 -147 -44 -170 13 -7 16 -9 34 -5 39 10 18 44 12 57 -9 26 -41 78 -15 78
40 0 17 -3 19 -19 10 -36 -19 -78 -12 -100 16 -16 21 -21 41 -21 90 0 72 13
107 44 122 29 14 37 14 69 -2z m285 -22 c19 -22 22 -36 22 -120 l0 -95 -42 1
c-24 1 -54 -1 -68 -5 -34 -9 -80 27 -80 61 0 42 17 62 70 79 37 12 50 22 50
36 0 26 -36 25 -50 -1 -11 -20 -54 -28 -64 -12 -10 16 29 76 54 84 40 11 83 0
108 -28z m-3048 -94 l0 -120 -35 0 -35 0 0 113 c0 63 3 117 7 120 3 4 19 7 35
7 l28 0 0 -120z m2280 63 c19 -91 25 -93 45 -14 17 70 18 71 50 71 l33 0 -24
-82 c-79 -281 -76 -273 -113 -276 -28 -3 -33 -1 -27 14 29 76 29 101 -4 209
-17 59 -34 113 -37 121 -4 10 4 14 29 14 34 0 35 -1 48 -57z m-3416 -3639 c10
-25 7 -122 -4 -129 -6 -4 -6 -15 0 -30 l10 -25 -90 0 c-73 0 -90 3 -90 15 0 9
10 16 23 16 17 1 15 3 -8 8 -28 6 -30 10 -33 55 -6 97 -1 102 119 105 53 1 68
-2 73 -15z m-1221 -336 c7 -116 0 -678 -8 -686 -2 -3 -21 3 -40 13 -20 9 -47
14 -59 11 -34 -8 -63 25 -72 80 -3 25 -4 121 0 212 4 92 7 183 6 203 0 28 5
38 25 49 18 10 25 22 25 43 0 19 10 38 30 57 35 33 38 60 10 85 -27 24 -25 33
8 38 74 11 68 19 75 -105z m195 -320 l-3 -353 -33 -3 c-18 -2 -31 1 -30 6 2 6
-15 26 -36 46 l-40 35 -6 173 c-7 240 -2 348 17 348 10 0 13 5 8 18 -8 19 -9
27 -7 60 2 20 7 22 67 22 l65 0 -2 -352z m1590 -815 l-3 -88 -125 0 -125 0 -3
63 c-3 63 8 94 32 91 6 -1 27 0 46 1 31 3 30 4 -15 10 -37 5 -19 7 73 8 l123
2 -3 -87z m219 72 c3 -9 2 -85 -2 -170 l-7 -155 -77 0 c-129 0 -121 -9 -121
145 0 72 5 146 11 164 l11 31 89 0 c71 0 91 -3 96 -15z m163 -389 c0 -246 -3
-274 -34 -278 -42 -6 -125 15 -129 34 -3 9 -1 64 4 120 4 57 8 156 9 220 l0
117 68 3 c37 2 70 2 75 0 4 -2 7 -99 7 -216z m-392 68 c2 -1 0 -78 -5 -171
l-8 -168 -120 -3 c-66 -1 -126 2 -133 6 -10 7 -12 43 -6 175 l7 166 41 4 c40
4 218 -3 224 -9z m210 -256 l-3 -83 -95 0 -95 0 -3 69 c-2 38 -1 75 2 83 4 10
30 13 101 13 l96 0 -3 -82z m-2022 -386 c6 -4 12 -50 13 -109 l3 -103 -76 0
c-74 0 -76 1 -76 25 0 14 3 24 8 24 4 -1 19 -1 35 0 25 1 27 4 27 42 0 26 -7
50 -20 66 -11 14 -20 31 -20 39 0 7 -6 15 -12 17 -7 3 14 6 47 6 33 0 65 -3
71 -7z m6650 -227 c26 -8 31 -186 33 -1109 1 -338 -2 -441 -11 -447 -7 -4
-100 -7 -208 -6 l-195 2 -3 85 c-5 129 17 593 28 604 13 13 13 83 0 91 -5 3
-10 26 -10 50 0 36 5 48 29 68 16 13 46 28 65 31 46 9 45 20 -1 40 -64 28 -68
32 -81 71 -11 33 -10 41 4 63 14 21 15 41 10 116 -5 68 -3 101 8 133 13 36 13
46 -1 84 -22 64 -11 101 34 120 31 14 62 16 163 12 69 -2 130 -6 136 -8z
m-5186 -35 c8 -5 11 -10 7 -10 -5 0 -5 -6 0 -12 4 -7 9 -34 10 -61 4 -54 -11
-67 -53 -49 -20 10 -24 9 -24 -5 0 -14 -11 -15 -86 -9 -56 4 -83 3 -79 -4 4
-7 -223 -10 -689 -10 l-696 0 0 80 0 80 598 3 c328 1 687 3 797 4 116 2 206
-1 215 -7z m847 -167 c5 -16 8 -136 8 -268 l0 -240 -112 0 c-70 0 -116 4 -123
11 -23 23 -38 158 -37 320 2 159 2 162 27 183 22 18 39 20 127 21 l103 0 7
-27z m-876 -195 c0 -13 0 -271 -1 -574 l0 -552 46 -13 46 -14 -33 -6 c-17 -4
-393 -7 -835 -7 l-804 -1 0 38 0 38 253 6 c138 3 288 3 332 0 116 -9 367 -8
538 3 l147 9 1 330 c1 182 5 340 9 352 8 18 20 23 80 29 39 3 72 9 74 13 2 3
6 31 10 61 3 30 2 44 -2 30 -7 -24 -12 -25 -86 -28 l-78 -3 4 143 3 143 74 3
c53 2 77 -1 82 -10 6 -9 9 -6 9 10 0 21 4 22 65 22 61 0 65 -2 66 -22z m277
-515 c14 -13 17 -40 19 -138 3 -144 -6 -168 -53 -145 -16 7 -33 13 -38 11 -16
-4 -46 42 -47 73 -1 17 -2 43 -3 59 -1 15 1 27 4 27 3 0 6 9 6 20 0 11 -4 20
-9 20 -4 0 -7 17 -5 37 3 42 32 58 53 29 11 -14 14 -14 30 4 22 24 22 24 43 3z
m3597 -35 c3 -13 4 -50 3 -83 -1 -33 1 -79 4 -102 l5 -43 -43 0 c-52 0 -92 14
-101 35 -6 18 22 44 48 45 9 0 24 9 33 19 17 19 16 21 -23 58 -61 57 -56 73
29 86 14 3 28 5 32 6 4 0 10 -9 13 -21z m-2980 -208 c3 -5 6 -98 7 -207 l1
-198 -134 -3 c-74 -1 -143 -1 -154 2 -19 5 -20 11 -15 183 5 188 12 218 52
226 46 9 237 7 243 -3z m2997 -318 l3 -82 -71 0 -70 0 2 58 c4 90 10 102 53
102 20 0 43 5 51 10 23 15 28 1 32 -88z"/>
<path d="M6613 9773 c-20 -4 -23 -11 -23 -51 l0 -47 85 0 85 0 0 46 c0 40 -3
48 -22 53 -25 6 -90 6 -125 -1z"/>
<path d="M3412 6613 c-5 -10 -30 -90 -56 -177 -42 -146 -50 -194 -25 -156 11
17 79 231 79 248 0 7 4 12 9 12 4 0 11 -22 14 -49 3 -28 13 -64 22 -81 14 -26
21 -31 48 -28 30 3 60 36 113 124 8 14 10 -15 6 -114 -4 -117 -3 -132 12 -132
18 0 19 6 17 70 -1 25 2 86 8 135 14 137 -13 141 -99 15 -30 -44 -60 -80 -67
-80 -17 0 -33 65 -36 151 -2 60 -5 74 -19 77 -9 2 -21 -5 -26 -15z"/>
<path d="M4267 6462 c-3 -4 -4 -45 -4 -92 l2 -85 50 3 c28 2 56 9 63 14 16 14
15 63 -2 77 -7 6 -11 22 -9 34 3 14 -2 31 -12 40 -17 17 -80 24 -88 9z"/>
<path d="M4420 6381 c0 -53 4 -93 11 -96 15 -10 22 1 23 37 1 30 4 33 34 36
31 3 32 2 32 -31 0 -32 19 -55 34 -40 3 4 6 46 6 95 0 80 -2 89 -17 86 -12 -2
-19 -14 -21 -36 -3 -28 -7 -32 -32 -32 -24 0 -29 5 -34 35 -4 21 -13 35 -21
35 -12 0 -15 -18 -15 -89z"/>
<path d="M4920 6380 c0 -72 3 -90 14 -90 9 0 16 12 18 33 3 28 7 32 35 35 29
3 32 1 35 -30 2 -22 9 -34 21 -36 15 -3 17 6 17 88 0 82 -2 91 -17 88 -12 -2
-19 -14 -21 -36 -3 -31 -6 -33 -35 -30 -20 2 -33 9 -33 18 -1 8 -2 23 -3 33 0
9 -8 17 -16 17 -12 0 -15 -17 -15 -90z"/>
<path d="M3721 6374 c-33 -27 -40 -64 -17 -83 8 -7 52 -11 115 -10 l101 1 0
29 c0 16 5 38 12 48 11 19 13 19 42 -6 25 -21 37 -24 73 -19 37 5 43 3 43 -12
0 -17 18 -42 30 -42 3 0 6 25 7 55 3 59 -7 69 -35 36 -29 -34 -88 -31 -104 4
-9 21 -17 24 -54 23 l-43 -2 -3 -46 -3 -45 -69 -9 c-62 -8 -71 -7 -83 10 -18
25 -12 37 25 45 33 7 62 25 62 40 0 20 -69 8 -99 -17z"/>
</g>
</svg>
