<?xml version="1.0" standalone="no"?>
<!DOCTYPE svg PUBLIC "-//W3C//DTD SVG 20010904//EN"
 "http://www.w3.org/TR/2001/REC-SVG-20010904/DTD/svg10.dtd">
<svg version="1.0" xmlns="http://www.w3.org/2000/svg"
 width="720.000000pt" height="1280.000000pt" viewBox="0 0 720.000000 1280.000000"
 preserveAspectRatio="xMidYMid meet">
<metadata>
Created by potrace 1.16, written by Peter Selinger 2001-2019
</metadata>
<g transform="translate(0.000000,1280.000000) scale(0.100000,-0.100000)"
fill="#000000" stroke="none">
<path d="M0 6400 l0 -6400 3600 0 3600 0 0 1025 0 1025 -80 0 c-91 0 -90 -2
-66 87 16 58 125 283 138 283 4 0 8 27 8 60 0 57 -1 60 -25 60 -19 0 -30 -10
-49 -48 -13 -26 -31 -73 -40 -103 -9 -31 -30 -91 -47 -135 -25 -64 -30 -90
-27 -136 3 -45 1 -59 -11 -63 -18 -7 -570 -5 -623 2 -44 6 -47 15 -39 113 6
63 11 80 34 104 15 16 27 37 27 47 0 11 7 19 15 19 8 0 15 6 15 13 0 9 3 8 9
-2 15 -24 31 -2 26 37 -29 233 -25 213 -75 378 -19 62 -40 112 -55 128 -14 15
-25 31 -25 37 0 5 -4 9 -10 9 -5 0 -10 9 -10 19 0 11 -4 23 -10 26 -8 5 -38
91 -44 129 -1 6 -8 21 -15 34 -15 28 -11 78 7 74 14 -2 16 17 2 38 -8 13 -10
13 -10 -2 0 -14 -5 -13 -25 8 -14 14 -25 29 -25 33 0 5 -7 22 -15 37 -10 19
-13 42 -9 66 4 27 1 42 -10 54 -18 18 -21 40 -6 49 15 9 12 34 -8 79 -10 23
-26 64 -36 91 -10 28 -27 75 -38 105 -10 30 -28 74 -39 98 -11 23 -31 77 -45
120 -13 42 -39 113 -55 157 -17 44 -39 103 -49 130 -83 228 -122 331 -128 337
-4 3 -38 -6 -77 -21 -116 -46 -306 -119 -368 -142 -42 -15 -57 -25 -55 -37 1
-10 0 -21 -3 -27 -3 -5 -3 -54 -1 -107 3 -78 7 -96 18 -91 8 3 14 14 14 24 0
10 4 19 9 19 13 0 21 -38 21 -100 0 -37 7 -66 20 -88 26 -43 25 -60 -5 -84
-14 -11 -25 -24 -25 -31 0 -22 75 -157 88 -157 6 0 12 -4 12 -10 0 -5 7 -10
15 -10 8 0 15 -6 15 -14 0 -8 11 -28 25 -44 17 -20 25 -42 25 -66 0 -25 4 -36
15 -36 11 0 15 11 15 40 0 40 13 53 24 24 10 -25 7 -72 -4 -76 -19 -6 -21 -56
-3 -66 14 -9 15 -13 4 -26 -8 -9 -9 -16 -3 -16 6 0 12 6 15 13 3 8 10 6 22 -8
16 -20 16 -20 12 2 -6 27 11 42 24 22 5 -8 9 -26 9 -41 0 -17 5 -28 14 -28 8
0 16 -7 20 -15 9 -24 -16 -17 -39 11 l-20 25 0 -25 c0 -15 3 -26 6 -26 4 0 21
-28 39 -62 27 -51 30 -65 21 -81 -10 -15 -9 -22 4 -37 11 -12 13 -20 6 -25
-23 -14 -12 -36 57 -111 12 -14 38 -56 57 -93 19 -38 41 -71 49 -74 20 -8 21
-37 1 -37 -8 0 -15 8 -15 18 0 10 -7 19 -15 19 -19 0 -19 -31 0 -47 18 -15 20
-40 4 -40 -7 0 -18 8 -25 17 -7 10 -16 15 -20 11 -4 -4 5 -19 19 -32 32 -30
34 -46 7 -46 -17 0 -19 -4 -14 -27 4 -16 11 -36 16 -46 5 -11 11 -33 14 -49 3
-29 2 -30 -11 -12 -12 16 -16 17 -24 5 -5 -8 -7 -20 -4 -27 2 -6 -1 -15 -7
-19 -7 -4 -8 -30 -5 -73 3 -39 2 -59 -3 -48 -6 14 -12 0 -21 -55 -16 -89 -19
-101 -20 -71 -1 19 -27 82 -34 82 -1 0 -3 -25 -4 -55 -2 -82 -3 -85 -35 -85
-15 0 -28 -4 -28 -10 0 -5 -5 -10 -11 -10 -6 0 -31 -22 -56 -50 -25 -27 -50
-50 -56 -50 -7 -1 -28 -14 -47 -30 -19 -17 -42 -30 -52 -30 -9 0 -29 -15 -43
-34 -20 -26 -35 -35 -70 -39 -74 -11 -91 2 -116 85 -11 40 -27 91 -35 113 -18
54 -62 220 -85 325 -10 47 -32 139 -49 205 -17 66 -34 134 -37 150 -3 17 -9
38 -15 48 -5 10 -11 39 -14 65 -4 45 -19 102 -78 292 -14 47 -35 114 -45 150
-11 36 -31 103 -45 150 l-26 85 23 60 c18 46 28 61 45 63 22 3 23 7 20 103 -2
57 -7 99 -13 99 -5 0 -8 -14 -7 -30 4 -37 -6 -72 -19 -65 -5 4 -9 20 -9 36 0
19 -10 39 -26 55 -14 15 -24 36 -23 48 3 41 -1 56 -16 56 -8 0 -15 7 -15 16 0
10 -6 14 -14 11 -10 -4 -13 -1 -10 7 11 28 -18 25 -128 -13 -139 -48 -435
-157 -583 -216 -61 -24 -172 -66 -247 -94 -204 -74 -238 -91 -249 -118 -7 -19
-4 -29 11 -46 18 -18 20 -30 14 -77 -8 -69 -33 -121 -67 -138 -17 -8 -28 -24
-32 -45 -3 -18 -12 -66 -20 -107 -7 -41 -14 -64 -14 -50 -2 37 -12 70 -21 65
-4 -2 -2 14 4 37 9 32 8 42 -1 45 -7 3 -13 11 -13 18 0 7 -6 15 -14 18 -12 5
-8 21 20 84 18 43 34 92 34 108 0 17 7 41 16 53 21 30 5 29 -74 -3 -79 -32
-134 -65 -109 -65 45 0 58 -56 36 -150 -6 -25 -12 -102 -13 -171 -1 -129 -11
-164 -42 -152 -11 4 -14 -8 -14 -66 0 -39 -3 -71 -7 -71 -5 0 -17 7 -27 15
-11 8 -37 15 -58 15 -21 0 -38 5 -38 11 0 6 -12 9 -27 7 -24 -3 -28 1 -31 27
-2 16 -12 35 -23 43 -10 7 -19 22 -19 32 0 10 -6 23 -12 27 -20 13 -56 67 -81
125 -13 29 -31 59 -40 67 -10 7 -20 31 -23 52 -7 45 -22 49 -82 23 -32 -13
-35 -17 -19 -25 24 -14 56 -81 64 -134 7 -51 -19 -125 -44 -125 -7 0 -35 11
-61 24 -78 39 -107 40 -176 7 -63 -30 -80 -50 -90 -109 -7 -42 21 -72 67 -72
26 0 36 -6 45 -25 13 -28 30 -32 38 -10 6 15 93 59 101 51 6 -6 -59 -97 -79
-109 -13 -8 -24 -4 -52 21 -20 18 -53 39 -73 47 -41 17 -99 20 -108 5 -3 -5
-15 -10 -27 -10 -16 0 -19 -5 -14 -22 3 -13 6 -28 6 -35 0 -6 18 -34 40 -62
l41 -51 -25 -10 c-32 -12 -109 10 -157 45 -19 13 -43 31 -54 39 -26 18 -65 30
-65 19 0 -10 69 -62 136 -103 44 -27 46 -41 10 -92 -20 -31 -31 -34 -51 -15
-17 18 -153 3 -175 -19 -8 -8 -22 -36 -31 -62 -13 -39 -20 -47 -38 -44 -19 2
-21 -2 -16 -20 12 -41 41 -73 66 -73 22 0 24 5 27 53 2 42 0 52 -12 52 -25 0
-20 45 7 62 34 22 141 30 160 11 13 -13 19 -13 51 2 27 13 37 25 41 49 6 28
13 34 66 53 l59 22 0 -25 c0 -21 4 -24 38 -24 53 0 95 30 125 89 15 31 44 66
75 91 28 21 72 69 98 106 33 46 49 62 54 52 4 -7 11 -55 15 -106 l7 -92 -34 0
c-41 0 -78 -36 -78 -78 0 -21 -2 -24 -10 -12 -7 12 -10 12 -10 1 0 -7 -6 -11
-15 -8 -8 4 -17 2 -20 -3 -7 -11 -45 -9 -45 2 0 4 9 8 21 8 24 0 54 26 39 35
-17 10 -78 -6 -96 -26 -16 -17 -16 -19 -1 -19 10 0 17 -6 17 -12 0 -16 -55
-48 -81 -48 -30 0 -24 -42 11 -75 32 -31 36 -52 24 -138 -4 -26 -10 -44 -15
-42 -4 3 -10 1 -14 -5 -4 -6 -27 2 -60 20 -72 40 -144 41 -211 4 -25 -14 -48
-23 -51 -20 -13 13 33 46 85 62 124 36 136 48 134 132 0 53 -34 97 -62 82 -10
-5 -21 -6 -25 -2 -4 4 -4 -24 0 -63 4 -38 12 -73 18 -77 14 -9 -100 -41 -119
-34 -9 3 -12 2 -9 -4 6 -10 -31 -49 -46 -50 -3 0 -4 11 -1 25 2 14 0 25 -6 25
-15 0 -33 -52 -61 -185 -13 -63 -17 -200 -7 -241 6 -23 4 -35 -8 -47 -9 -8
-16 -23 -16 -31 0 -17 -54 -23 -64 -7 -3 5 -8 41 -11 80 -2 40 -13 92 -25 118
-25 56 -25 53 3 53 29 0 70 41 62 62 -11 27 -85 51 -85 28 0 -19 -63 -10 -86
11 -34 32 -125 35 -151 5 -11 -12 -22 -30 -26 -39 -5 -15 -10 -15 -26 -5 -15
9 -24 8 -46 -6 -14 -9 -25 -25 -23 -33 4 -23 21 -20 33 6 14 30 23 26 34 -16
16 -58 15 -66 -9 -51 -17 11 -22 10 -29 -1 -5 -7 -13 -11 -18 -8 -5 3 -26 -12
-46 -33 -23 -26 -45 -40 -61 -40 -17 0 -26 -7 -30 -25 -4 -14 -4 -30 -1 -35 8
-13 74 22 104 55 l25 27 14 -29 c8 -15 20 -31 26 -35 21 -14 55 -8 66 11 13
25 13 102 0 137 -22 57 41 100 103 71 73 -35 127 -133 127 -231 0 -49 -4 -65
-16 -70 -22 -8 -55 12 -53 32 3 21 -28 94 -44 104 -16 10 -36 -28 -37 -69 0
-18 -4 -33 -8 -33 -5 0 -21 -11 -37 -24 -15 -13 -41 -27 -58 -30 -16 -3 -376
-6 -800 -6 l-770 0 7 46 c3 26 6 60 6 76 0 24 5 29 31 35 31 6 52 37 58 83 0
6 14 18 29 28 16 9 51 44 77 77 27 33 54 65 59 72 6 7 16 18 22 25 6 7 21 20
33 28 42 29 123 114 141 149 10 20 30 47 44 60 14 14 26 30 26 38 0 7 5 13 10
13 6 0 10 6 10 13 0 7 8 22 18 33 9 10 36 44 58 74 23 30 51 64 62 76 11 11
31 38 44 60 14 21 35 48 47 58 11 11 21 23 21 27 0 8 57 96 70 109 25 25 92
128 117 180 42 89 109 224 141 286 26 49 46 95 69 159 18 47 63 155 88 210 62
134 125 285 125 299 0 3 27 61 60 129 33 69 60 132 60 140 0 23 52 171 85 242
15 33 31 74 36 90 9 35 45 145 64 195 8 19 28 82 45 140 17 58 35 116 40 130
4 14 14 52 21 85 7 33 25 89 41 125 16 36 35 99 43 140 15 85 21 262 10 302
-6 22 10 62 86 215 94 190 123 251 115 243 -2 -3 -34 -45 -71 -95 -37 -49 -72
-94 -78 -100 -7 -5 -26 -27 -44 -47 -46 -54 -266 -258 -278 -258 -3 0 -33 -22
-68 -49 -168 -131 -428 -276 -827 -461 -230 -106 -402 -191 -416 -205 -11 -11
-11 -14 1 -19 19 -7 9 -34 -22 -61 -13 -11 -23 -26 -23 -33 0 -7 -7 -12 -15
-12 -8 0 -15 -9 -15 -19 0 -23 -23 -33 -55 -25 -19 5 -25 15 -31 50 -4 29 -11
44 -21 44 -24 0 -107 -22 -118 -31 -5 -5 -15 -9 -22 -9 -10 0 -13 36 -13 163
l0 162 45 24 c38 20 44 27 38 45 -4 12 -6 30 -5 41 13 138 18 174 24 180 4 4
15 -3 25 -14 9 -12 27 -21 40 -21 12 0 24 -4 28 -9 3 -5 21 -7 40 -4 32 5 35
3 36 -18 0 -13 3 -18 6 -11 2 6 11 12 19 12 23 0 57 -37 51 -54 -4 -9 -2 -16
2 -16 5 0 12 7 15 16 3 8 10 13 15 10 5 -3 33 5 63 19 29 14 63 25 76 25 12 0
22 3 22 8 0 8 48 32 66 32 7 0 38 13 69 30 31 17 64 30 72 30 8 0 12 4 9 8 -2
4 16 14 42 21 72 20 80 23 61 28 -12 3 -15 21 -15 101 1 83 -3 108 -28 172
-37 98 -39 102 -62 114 -10 6 -35 21 -54 33 -32 20 -41 21 -95 13 -33 -6 -91
-14 -130 -20 -80 -11 -135 -28 -135 -40 0 -4 -11 -11 -25 -14 -29 -7 -58 -33
-69 -61 -6 -16 -9 -17 -16 -5 -6 8 -10 11 -10 6 0 -6 -6 -2 -13 9 -10 12 -16
14 -21 7 -4 -7 -11 -12 -16 -12 -22 0 69 126 134 186 l71 66 117 -7 c73 -4
123 -3 131 2 6 6 28 13 47 17 59 11 120 38 120 53 0 16 -80 53 -132 60 -33 5
-38 9 -38 32 1 27 30 71 48 71 5 0 12 7 16 15 3 8 14 15 25 15 11 0 21 5 23
12 3 8 24 12 61 10 31 -1 57 2 57 6 0 14 73 10 95 -4 27 -19 48 -17 74 7 17
16 22 30 19 56 -2 25 3 39 16 49 19 13 42 62 53 114 3 14 20 39 38 55 32 30
75 45 75 26 0 -6 6 -8 14 -5 9 3 15 -5 19 -25 4 -17 17 -40 29 -51 13 -12 30
-28 39 -36 9 -8 25 -31 35 -52 10 -20 22 -38 26 -40 5 -2 8 -12 8 -22 0 -11
11 -27 25 -37 14 -10 47 -37 73 -61 45 -41 46 -43 28 -57 -11 -8 -31 -15 -45
-15 -30 0 -91 -34 -91 -51 0 -6 -11 -8 -28 -4 -23 5 -31 1 -42 -19 -7 -14 -28
-32 -46 -41 -34 -16 -43 -37 -43 -103 0 -33 -30 -84 -67 -114 -36 -29 -55 -90
-44 -140 23 -108 33 -140 45 -144 16 -6 116 38 134 59 7 10 22 17 32 17 11 0
19 5 19 10 0 6 -13 10 -28 10 -39 0 -53 16 -41 49 9 23 26 40 40 41 3 0 13
-18 23 -40 10 -22 23 -40 30 -40 25 0 82 24 129 54 44 29 47 33 47 73 0 24 5
43 10 43 6 0 10 -18 10 -40 0 -22 5 -40 10 -40 6 0 10 4 10 8 0 5 12 14 28 21
15 7 50 30 78 52 28 21 54 39 58 39 4 0 20 14 36 30 16 16 34 30 39 30 6 0 15
9 21 20 6 11 16 20 22 20 6 0 26 15 43 34 29 32 31 39 31 107 -1 50 6 90 18
122 16 40 18 63 13 138 -4 49 -12 100 -19 112 -19 33 -20 377 -2 384 8 3 14
14 14 25 0 21 -13 22 -125 4 -68 -11 -544 -67 -775 -91 -74 -8 -200 -21 -280
-29 -186 -20 -482 -53 -635 -72 -67 -7 -126 -14 -133 -14 -9 0 -12 233 -12
1036 l0 1035 3508 -1 c1929 -1 3544 -1 3590 -1 l82 1 0 1775 0 1775 -3600 0
-3600 0 0 -6400z m6795 3679 c153 -68 200 -265 96 -404 -25 -34 -27 -41 -14
-50 23 -17 -3 -53 -49 -67 -30 -9 -45 -8 -80 5 -34 13 -55 15 -98 8 -30 -5
-63 -13 -73 -16 -53 -21 -137 34 -107 70 11 13 9 19 -8 38 -85 90 -82 268 6
360 77 82 216 105 327 56z m-652 5 c52 -18 116 -76 143 -132 28 -55 26 -174
-4 -229 -50 -95 -136 -143 -256 -143 -209 0 -331 220 -222 402 25 42 43 59 94
85 54 28 75 33 131 33 37 0 88 -7 114 -16z m-5834 -111 c15 -56 71 -300 71
-307 0 -3 -15 -6 -33 -6 -28 0 -34 4 -42 32 -9 29 -14 32 -50 31 -36 0 -40 -3
-47 -31 -8 -28 -13 -32 -42 -32 l-34 0 14 58 c7 31 26 110 41 175 l27 117 43
0 c40 0 43 -2 52 -37z m401 -55 l1 -93 30 38 c23 27 39 37 60 37 16 0 29 -3
29 -6 0 -4 -16 -28 -35 -53 -30 -41 -33 -50 -21 -67 7 -10 25 -40 40 -66 l27
-48 -35 0 c-30 0 -38 5 -57 40 -13 22 -26 40 -31 40 -4 0 -8 -18 -8 -40 0 -38
-2 -40 -30 -40 l-30 0 0 175 0 175 30 0 30 0 0 -92z m1740 -83 l0 -176 -42 1
c-24 1 -55 -1 -69 -5 -19 -5 -33 -1 -55 18 -28 24 -29 29 -29 106 1 69 4 85
22 102 22 22 54 28 91 15 21 -7 22 -5 22 53 l0 61 30 0 30 0 0 -175z m452 83
l3 -92 25 37 c20 30 31 37 58 37 30 0 42 -12 24 -24 -5 -3 -21 -23 -36 -44
l-27 -40 40 -66 41 -66 -35 0 c-30 0 -38 5 -57 40 -13 22 -26 40 -30 40 -5 0
-8 -18 -8 -40 0 -39 -1 -40 -35 -40 l-35 0 0 168 c0 93 3 172 7 175 3 4 19 7
34 7 l28 0 3 -92z m728 28 l0 -65 35 15 c28 11 40 12 58 3 34 -18 37 -27 37
-136 l0 -103 -30 0 -30 0 0 90 c0 75 -3 92 -16 97 -37 14 -49 -10 -52 -101
l-3 -86 -29 0 -30 0 0 175 0 175 30 0 30 0 0 -64z m530 3 c0 -58 1 -60 23 -53
76 26 107 -8 107 -118 0 -71 -2 -81 -26 -105 -21 -21 -31 -24 -57 -18 -18 4
-49 6 -69 6 l-38 -2 0 176 0 175 30 0 30 0 0 -61z m-1482 -11 c3 -35 6 -38 33
-38 24 0 29 -4 29 -25 0 -21 -5 -25 -30 -25 l-31 0 3 -67 c3 -66 4 -68 31 -71
21 -3 27 -8 23 -19 -3 -8 -6 -19 -6 -24 0 -16 -73 -10 -92 8 -14 13 -18 31
-18 90 0 66 -2 75 -20 80 -13 3 -20 14 -20 29 0 17 6 24 20 24 17 0 20 7 20
41 0 38 1 40 28 37 23 -3 27 -8 30 -40z m-2094 -58 c24 -24 34 -122 17 -173
-15 -44 -59 -66 -97 -48 -14 6 -27 11 -29 11 -3 0 -5 -29 -5 -65 l0 -65 -30 0
-30 0 0 181 0 182 39 -6 c21 -2 45 -1 52 4 19 12 60 2 83 -21z m402 20 c8 0
23 -9 34 -20 17 -17 20 -33 20 -121 l0 -101 -32 3 c-18 1 -48 -1 -66 -5 -50
-12 -82 13 -82 64 0 44 20 64 83 81 28 7 37 15 35 27 -5 25 -45 27 -58 3 -13
-25 -48 -28 -57 -5 -13 34 56 90 95 78 8 -2 20 -4 28 -4z m293 -1 c38 -14 51
-35 51 -88 l0 -41 -61 0 c-60 0 -60 0 -57 -27 3 -32 44 -46 54 -19 4 10 18 16
35 16 35 0 39 -25 10 -61 -27 -34 -99 -34 -135 0 -23 22 -26 32 -26 96 0 79
20 120 63 128 12 2 25 5 28 6 3 0 20 -4 38 -10z m199 0 c29 -10 59 -59 45 -73
-15 -15 -51 -5 -56 15 -4 13 -12 20 -24 17 -31 -6 -27 -34 7 -48 78 -32 101
-82 61 -131 -15 -19 -29 -24 -66 -24 -37 0 -51 5 -66 24 -29 36 -25 61 11 61
24 0 30 -4 30 -21 0 -15 5 -20 22 -17 42 6 33 36 -16 58 -54 23 -75 57 -60 98
9 25 45 52 70 52 6 0 25 -5 42 -11z m219 -13 c6 -6 13 -22 15 -36 2 -21 -2
-26 -23 -28 -20 -2 -28 2 -32 18 -4 14 -12 21 -24 18 -29 -5 -21 -32 15 -50
73 -36 92 -81 53 -129 -15 -19 -29 -24 -66 -24 -37 0 -51 5 -66 24 -29 36 -25
61 10 61 21 0 30 -6 34 -21 7 -25 40 -22 45 4 3 12 -9 23 -42 37 -51 21 -70
54 -60 97 12 45 104 65 141 29z m182 13 c17 -6 36 -19 41 -29 6 -10 10 -62 10
-116 l0 -97 -40 6 c-22 3 -43 1 -46 -4 -8 -14 -47 -11 -72 7 -16 11 -22 25
-22 54 0 44 20 64 83 81 28 7 37 15 35 27 -5 25 -45 27 -58 3 -13 -25 -48 -28
-57 -5 -8 23 16 62 46 73 35 13 43 13 80 0z m319 -22 c16 -15 22 -32 22 -64
l0 -43 -61 0 c-60 0 -60 0 -57 -27 3 -32 44 -46 54 -19 8 20 64 22 64 2 0 -69
-102 -98 -158 -45 -19 17 -22 31 -22 98 0 68 3 80 23 98 12 11 29 23 37 26 25
9 73 -4 98 -26z m1000 -3 c19 -21 22 -36 22 -99 0 -70 -1 -74 -32 -100 -27
-23 -39 -26 -71 -22 -59 8 -80 35 -85 107 -3 36 1 72 9 91 24 60 111 73 157
23z m240 9 c8 -11 12 -53 12 -120 l0 -103 -30 0 -30 0 0 90 c0 75 -3 92 -17
97 -32 12 -53 -32 -53 -113 l0 -74 -30 0 -30 0 0 120 0 120 29 0 c16 0 31 -5
33 -12 3 -8 11 -7 29 5 27 20 67 15 87 -10z m530 -9 c15 -17 22 -38 22 -65 l0
-39 -61 0 c-60 0 -60 0 -57 -27 3 -32 44 -46 54 -19 4 10 18 16 35 16 35 0 40
-29 9 -60 -27 -27 -63 -34 -105 -20 -46 15 -55 34 -55 123 0 64 3 76 23 94 12
11 29 23 37 26 28 11 75 -3 98 -29z m542 10 c11 -11 15 -39 15 -117 l0 -102
-32 -3 -33 -3 0 91 c0 72 -3 92 -15 96 -33 13 -45 -15 -45 -102 l0 -84 -35 0
-35 0 0 120 0 120 35 0 c19 0 35 -4 35 -9 0 -6 12 -3 28 4 29 16 58 12 82 -11z
m215 -5 c17 -16 21 -36 23 -120 l4 -100 -44 1 c-23 1 -54 -1 -68 -5 -34 -9
-80 27 -80 61 0 42 17 62 70 79 37 12 50 22 50 36 0 26 -36 25 -52 -1 -12 -19
-48 -27 -61 -14 -3 3 -1 19 5 36 20 56 108 72 153 27z m394 20 c36 -13 61 -53
61 -99 l0 -30 -59 0 c-63 0 -76 -8 -66 -40 8 -24 55 -28 55 -5 0 11 11 15 36
15 32 0 35 -2 29 -22 -4 -13 -18 -34 -33 -47 -21 -19 -33 -22 -65 -18 -60 8
-80 35 -85 109 -5 79 9 115 50 133 41 17 38 17 77 4z m204 -3 c15 -8 27 -11
27 -5 0 5 14 9 31 9 l30 0 -3 -154 c-3 -134 -5 -157 -22 -175 -42 -46 -144
-35 -166 19 -7 16 -9 34 -5 39 10 18 44 12 57 -9 27 -42 78 -15 78 41 0 18 -3
20 -12 11 -7 -7 -29 -12 -49 -12 -56 0 -79 34 -79 116 0 72 13 107 44 122 29
14 37 14 69 -2z m285 -22 c19 -22 22 -36 22 -120 l0 -95 -42 1 c-24 1 -54 -1
-68 -5 -36 -9 -80 27 -80 65 0 27 32 70 52 70 5 0 24 7 43 14 25 11 33 19 29
30 -9 22 -41 20 -56 -4 -18 -29 -58 -27 -58 3 0 73 105 101 158 41z m-3048
-94 l0 -120 -35 0 -35 0 0 113 c0 63 3 117 7 120 3 4 19 7 35 7 l28 0 0 -120z
m2280 63 c19 -90 25 -92 45 -14 18 68 20 71 48 71 28 0 29 -2 23 -33 -3 -19
-25 -99 -49 -178 l-42 -144 -34 -3 c-28 -3 -33 -1 -27 14 28 74 28 99 -3 207
-18 59 -34 113 -37 122 -5 12 2 15 28 15 34 0 35 -1 48 -57z m-4500 -3695 c0
-40 8 -53 38 -62 17 -6 22 -15 22 -39 0 -21 7 -36 20 -45 11 -7 20 -19 20 -28
0 -14 8 -16 47 -11 44 5 113 -15 113 -33 0 -17 -51 -50 -108 -69 -91 -31 -209
-30 -261 3 -33 21 -39 31 -43 65 -2 28 1 42 10 46 7 3 11 9 7 15 -3 5 7 12 22
16 15 3 34 7 41 10 7 2 24 -1 38 -6 19 -7 31 -7 40 1 11 9 14 8 14 -1 0 -8 2
-11 5 -9 10 11 -9 49 -25 49 -23 0 -87 27 -95 40 -8 13 17 48 52 71 38 26 43
24 43 -13z m-252 -2618 c41 -177 62 -348 62 -502 0 -138 -5 -182 -33 -283 -15
-54 -73 -181 -86 -190 -8 -4 -11 172 -11 602 l1 608 23 -70 c12 -38 33 -113
44 -165z m3585 44 c-11 -30 19 -33 60 -7 30 19 38 21 34 9 -5 -13 1 -16 36
-16 51 -1 81 -23 103 -77 9 -21 45 -68 80 -104 41 -41 63 -71 59 -80 -3 -8
-34 -30 -68 -49 -34 -19 -83 -56 -109 -81 l-48 -45 -2 -85 c-2 -46 -3 -133 -3
-194 0 -60 -4 -120 -8 -132 -7 -19 -5 -23 12 -23 31 0 89 -31 94 -51 3 -12 -4
-21 -27 -30 -17 -7 -44 -26 -60 -42 -37 -36 -23 -48 47 -40 l49 6 -16 -31 c-9
-18 -22 -31 -29 -29 -6 1 -12 -5 -12 -13 0 -12 17 -16 75 -20 l75 -5 2 -35 c2
-25 -7 -51 -30 -90 l-33 -55 -67 -3 c-99 -4 -146 26 -247 158 -19 25 -55 66
-80 92 -25 26 -45 51 -45 55 0 5 -12 28 -27 53 -33 57 -74 160 -88 225 -12 52
-6 146 12 178 12 23 48 60 48 49 0 -5 7 -17 16 -28 15 -18 15 -18 10 5 -7 34
10 71 33 71 14 0 18 -5 14 -20 -4 -14 3 -30 18 -46 19 -20 29 -23 54 -18 16 4
39 8 50 9 14 1 21 10 23 31 3 40 -35 65 -106 71 -62 6 -87 24 -87 62 0 14 -4
26 -10 26 -5 0 -10 -14 -10 -31 0 -41 -22 -69 -41 -53 -19 15 -18 55 1 63 11
4 14 15 10 43 -7 46 13 88 40 88 24 0 51 51 61 112 7 47 48 99 99 126 38 21
46 21 38 1z m451 -385 c-9 -10 -32 -24 -50 -31 -36 -13 -43 -25 -19 -34 10 -4
13 -14 9 -31 -7 -28 7 -43 43 -43 16 0 22 -7 25 -27 3 -28 4 -28 73 -28 80 0
78 5 44 -93 l-22 -63 -41 3 c-34 3 -44 9 -62 38 -24 39 -38 53 -102 107 -37
31 -43 41 -38 65 3 18 0 33 -10 43 -15 14 -15 18 2 36 11 12 32 28 48 36 20
11 25 17 16 23 -9 6 -9 9 0 15 25 15 66 22 83 13 18 -9 18 -11 1 -29z m-1865
-740 c38 -23 51 -35 69 -67 6 -12 17 -31 24 -42 7 -10 8 -23 4 -27 -5 -4 -11
-2 -13 5 -3 6 -9 9 -14 6 -6 -3 -2 -12 8 -19 10 -7 15 -17 11 -21 -5 -4 -16 0
-25 9 -35 31 -87 25 -152 -17 -33 -22 -66 -52 -74 -68 l-14 -29 -22 36 c-29
50 -27 97 10 165 46 87 116 113 188 69z"/>
<path d="M6613 9773 c-20 -4 -23 -11 -23 -51 l0 -47 85 0 85 0 0 46 c0 40 -3
48 -22 53 -25 6 -90 6 -125 -1z"/>
<path d="M4066 8299 c-8 -24 -24 -77 -35 -116 -22 -83 -27 -93 -45 -93 -17 0
-48 -36 -78 -90 -19 -34 -24 -55 -21 -82 7 -49 25 -49 58 -1 l25 38 0 -34 c0
-29 2 -32 15 -21 14 12 85 125 85 136 0 2 -4 4 -8 4 -5 0 -16 -18 -26 -41 -10
-22 -20 -38 -22 -36 -3 3 15 83 39 180 24 96 41 181 37 187 -5 8 -14 -4 -24
-31z"/>
<path d="M3646 8188 c-8 -18 -24 -70 -36 -115 -19 -70 -26 -83 -50 -93 -17 -7
-38 -31 -54 -61 -15 -27 -31 -49 -36 -49 -6 0 -21 -22 -35 -50 -27 -53 -69
-90 -86 -73 -6 6 -5 30 2 67 16 88 24 102 58 109 17 4 31 12 31 18 0 7 -11 9
-30 6 -16 -4 -30 -5 -30 -4 1 15 33 103 41 113 17 21 50 17 56 -6 3 -11 9 -20
13 -20 11 0 24 59 16 68 -7 7 -96 -10 -140 -27 -23 -9 -26 -14 -16 -26 9 -11
9 -26 0 -65 -7 -28 -17 -53 -24 -58 -6 -4 -11 -23 -12 -42 0 -19 -6 -63 -14
-97 -8 -34 -11 -65 -7 -69 4 -4 39 4 79 17 66 22 74 27 85 59 11 33 12 33 12
8 1 -35 21 -47 37 -22 7 10 20 28 28 39 15 20 16 20 13 -4 -3 -37 16 -34 43 6
l25 37 3 -27 c4 -35 11 -34 45 5 16 18 26 28 24 23 -3 -6 -1 -17 4 -25 8 -13
13 -11 32 11 12 14 27 35 34 45 11 18 12 18 12 -2 1 -28 25 -48 45 -37 19 11
66 73 66 87 0 6 -12 -4 -26 -22 -14 -18 -30 -30 -35 -27 -17 11 -8 40 23 70
49 48 69 115 34 115 -23 0 -72 -57 -106 -124 -19 -39 -36 -63 -37 -55 -2 8 10
64 25 124 22 90 31 112 50 120 27 12 29 29 3 20 -18 -5 -19 -2 -14 29 8 49
-11 46 -27 -4 -7 -22 -21 -42 -32 -45 -10 -4 -18 -11 -18 -17 0 -5 7 -7 16 -4
11 4 15 2 11 -8 -3 -7 -13 -45 -23 -82 -20 -84 -43 -144 -54 -144 -5 0 -1 29
9 65 11 39 15 68 9 71 -11 7 -37 -24 -38 -44 0 -16 -51 -125 -55 -120 -2 2 13
71 34 153 49 192 53 215 40 215 -5 0 -16 -15 -23 -32z"/>
<path d="M4795 8080 c-191 -8 -285 -18 -285 -31 0 -5 12 -6 28 -4 74 13 331
25 542 25 661 0 1292 -99 1869 -294 119 -40 224 -77 235 -81 14 -6 18 -5 14 6
-6 19 -365 138 -583 194 -598 154 -1167 212 -1820 185z"/>
<path d="M4400 7525 c-11 -13 -10 -49 9 -218 12 -111 24 -240 27 -287 3 -47
11 -94 18 -105 8 -12 10 -28 5 -40 -7 -19 -1 -165 7 -174 7 -8 11 3 17 47 3
28 2 40 -6 35 -7 -4 -8 0 -4 12 4 9 2 24 -4 32 -7 7 -9 16 -5 20 3 3 6 1 6 -5
0 -7 7 -12 16 -12 15 0 16 11 10 93 -12 169 -64 584 -75 605 -6 11 -10 10 -21
-3z"/>
<path d="M4849 7258 c-54 -28 -69 -42 -99 -92 -33 -54 -41 -61 -84 -72 -54
-14 -88 -42 -106 -85 -10 -24 -9 -36 5 -71 32 -77 17 -226 -25 -248 -16 -9
-19 -6 -23 22 -3 25 -4 21 -5 -15 -2 -36 5 -60 23 -91 32 -55 63 -84 68 -65
16 55 24 73 39 83 25 15 37 -2 45 -63 3 -28 10 -54 15 -57 5 -3 25 11 44 33
l34 38 20 -24 c11 -13 20 -30 20 -38 0 -12 3 -13 14 -4 16 14 80 -10 94 -36
11 -18 -8 -85 -32 -113 -26 -30 -29 -45 -5 -23 13 11 43 31 66 43 33 17 46 19
62 10 12 -6 21 -16 21 -23 0 -7 9 -18 20 -25 38 -23 26 -65 -32 -116 l-53 -46
52 26 c28 14 56 23 62 19 32 -19 0 -123 -55 -179 l-29 -29 32 17 c43 22 72 20
100 -5 12 -12 43 -34 69 -48 34 -20 57 -45 88 -96 23 -37 53 -77 67 -88 36
-26 89 -26 126 1 37 27 87 29 105 5 22 -30 45 -44 62 -37 26 10 18 53 -19 98
-30 37 -34 49 -33 90 2 44 -1 50 -36 80 -34 28 -37 35 -27 54 10 18 8 25 -9
42 -11 11 -28 20 -39 20 -23 0 -42 22 -33 36 13 20 50 34 90 34 31 0 50 -8 83
-35 23 -20 45 -32 49 -28 4 4 10 34 14 65 l6 56 -41 33 c-29 22 -53 57 -83
118 -38 78 -47 89 -94 114 -36 20 -60 42 -78 72 -20 36 -35 48 -78 64 -80 30
-119 34 -180 20 -56 -12 -57 -12 -86 16 -24 23 -34 26 -62 21 -112 -21 -110
-21 -106 5 2 17 13 27 38 35 22 7 45 26 61 49 14 20 32 41 41 46 24 14 64 -3
113 -48 44 -42 77 -54 90 -33 11 18 44 10 60 -14 22 -33 43 -39 71 -21 30 19
30 49 1 96 -89 146 -87 141 -87 211 0 55 -4 72 -23 93 -24 28 -21 28 -157 22
-40 -2 -45 0 -43 18 5 45 -8 73 -39 84 -54 19 -102 13 -169 -21z"/>
<path d="M2659 5515 c-83 -19 -154 -50 -172 -75 -7 -10 -26 -24 -42 -30 -22
-9 -26 -13 -15 -20 11 -7 11 -11 1 -24 -20 -24 6 -21 97 10 81 27 86 27 242 4
78 -11 223 -45 240 -55 6 -3 10 -24 10 -45 0 -30 6 -43 31 -64 26 -22 40 -26
94 -26 43 0 66 5 75 15 17 21 43 19 74 -6 21 -17 26 -18 26 -5 0 20 19 20 44
1 17 -13 21 -11 48 31 55 87 148 172 148 136 0 -5 -9 -35 -20 -67 -21 -62 -26
-91 -10 -63 16 26 74 58 107 58 17 0 37 8 46 18 16 17 14 20 -48 41 -36 13
-82 32 -102 42 -21 11 -49 19 -63 19 -15 0 -66 14 -116 30 -57 20 -124 34
-189 39 -55 5 -118 17 -140 27 -56 24 -275 29 -366 9z"/>
<path d="M4210 5436 c-11 -19 -36 -48 -54 -64 -27 -23 -33 -35 -29 -56 3 -14
10 -26 17 -26 6 0 0 -9 -14 -19 -24 -19 -24 -20 -7 -55 16 -35 18 -36 74 -36
49 0 60 4 72 21 11 19 11 21 -3 16 -30 -12 -16 12 29 50 46 38 60 62 26 43
-64 -34 -96 4 -88 103 3 31 4 57 2 57 -2 0 -13 -15 -25 -34z"/>
<path d="M2532 3425 c-23 -10 -39 -27 -53 -60 -25 -56 -59 -68 -136 -46 -43
12 -60 12 -94 2 -22 -7 -39 -17 -37 -23 6 -16 124 -48 176 -48 45 0 85 20 128
65 30 30 56 83 52 105 -3 17 -6 17 -36 5z"/>
<path d="M1808 3111 c-36 -67 -35 -99 2 -175 36 -72 54 -95 98 -121 39 -24 41
-36 5 -30 -16 2 -45 7 -66 10 -21 3 -41 13 -44 20 -3 8 -8 13 -12 10 -4 -2
-27 9 -52 26 -24 16 -55 29 -68 29 -33 0 -86 34 -151 96 -47 44 -58 51 -77 43
-13 -4 -23 -13 -23 -18 0 -10 65 -51 80 -51 5 0 20 -11 34 -25 l25 -25 -22 -5
c-12 -2 -35 -6 -52 -7 -19 -2 -30 -9 -30 -18 0 -12 11 -14 55 -12 46 3 65 -2
114 -27 32 -17 72 -31 90 -31 18 0 41 -6 51 -14 19 -13 19 -15 0 -76 -10 -34
-26 -69 -34 -77 -10 -11 -11 -17 -3 -22 26 -16 -78 -78 -115 -68 -15 4 -14 5
4 6 23 1 43 21 21 21 -15 0 -125 44 -218 88 -54 25 -60 30 -37 31 15 1 30 7
33 15 13 35 -109 246 -143 246 -19 0 -16 -11 13 -45 14 -16 41 -60 60 -97 26
-52 31 -68 21 -77 -19 -15 -137 92 -137 124 0 13 -5 27 -10 30 -7 4 -7 13 0
26 9 16 8 19 -12 16 -24 -4 -35 -22 -19 -32 6 -3 11 -19 11 -35 0 -35 67 -123
116 -152 34 -20 45 -32 21 -22 -7 2 -24 1 -36 -4 -21 -7 -18 -10 31 -29 159
-61 205 -84 217 -109 6 -14 11 -28 11 -31 0 -8 -132 6 -145 16 -5 4 -36 14
-68 21 -43 10 -63 10 -81 2 -19 -8 -26 -8 -29 1 -2 7 -7 9 -11 5 -4 -3 -3 -15
3 -27 10 -17 18 -19 61 -14 34 4 59 1 82 -10 46 -21 151 -39 184 -31 23 6 26
4 21 -10 -5 -12 -1 -16 14 -16 27 0 61 19 54 30 -3 5 17 24 45 41 76 46 107
109 109 220 1 25 2 25 59 19 126 -15 188 5 118 38 -45 22 -133 113 -152 157
-25 60 -34 95 -23 95 13 0 40 70 37 94 -2 15 -10 6 -30 -33z"/>
<path d="M6689 2862 c-8 -4 -22 -13 -30 -20 -8 -6 -25 -20 -38 -31 l-25 -18
18 -67 c16 -57 21 -66 42 -66 19 0 24 7 30 37 4 21 16 57 26 81 28 63 18 101
-23 84z"/>
</g>
</svg>
