<?xml version="1.0" standalone="no"?>
<!DOCTYPE svg PUBLIC "-//W3C//DTD SVG 20010904//EN"
 "http://www.w3.org/TR/2001/REC-SVG-20010904/DTD/svg10.dtd">
<svg version="1.0" xmlns="http://www.w3.org/2000/svg"
 width="720.000000pt" height="1280.000000pt" viewBox="0 0 720.000000 1280.000000"
 preserveAspectRatio="xMidYMid meet">
<metadata>
Created by potrace 1.16, written by Peter Selinger 2001-2019
</metadata>
<g transform="translate(0.000000,1280.000000) scale(0.100000,-0.100000)"
fill="#000000" stroke="none">
<path d="M0 6400 l0 -6400 3600 0 3600 0 0 1175 c0 978 -2 1175 -13 1175 -34
0 -53 47 -87 210 -28 132 -36 150 -70 150 -32 0 -55 23 -46 45 3 8 17 15 31
15 31 0 43 25 26 52 -15 23 1 48 30 48 20 0 49 -36 49 -61 0 -22 32 -49 58
-49 l22 0 0 749 c0 413 -3 752 -8 755 -4 2 -26 0 -48 -6 -60 -17 -128 -3 -164
34 -45 45 -63 85 -55 125 9 50 52 73 137 73 37 0 69 4 72 8 7 11 -21 64 -41
80 -30 22 -91 15 -118 -14 -27 -29 -61 -29 -79 -1 -9 14 -5 23 26 52 31 29 44
35 81 35 76 0 108 -11 153 -55 l44 -42 0 727 0 727 -30 0 c-16 0 -32 2 -36 5
-3 3 -20 65 -39 138 -36 136 -51 162 -103 176 -28 8 -70 -9 -79 -32 -3 -9 6
-69 21 -135 15 -65 25 -123 21 -129 -9 -14 -40 -13 -53 3 -13 16 -92 338 -86
349 8 12 37 9 57 -7 14 -10 26 -11 49 -3 40 14 114 4 147 -19 38 -27 67 -92
100 -223 l29 -115 1 796 1 796 -38 26 c-96 67 -94 177 3 177 35 0 35 0 35 45
0 38 -3 45 -20 45 -11 0 -28 -9 -37 -20 -34 -40 -97 -14 -73 30 13 25 49 40
96 40 l34 0 0 2425 0 2425 -3600 0 -3600 0 0 -6400z m6796 3680 c151 -69 198
-267 95 -405 -25 -34 -27 -41 -14 -50 14 -10 14 -14 -2 -38 -22 -35 -90 -46
-136 -23 -33 16 -80 14 -147 -6 -47 -14 -99 -2 -118 28 -13 20 -14 27 -4 39
11 13 9 19 -8 38 -85 90 -82 268 6 360 77 81 220 106 328 57z m-653 4 c29 -10
64 -34 92 -62 124 -125 89 -333 -68 -412 -133 -66 -310 -20 -370 96 -47 91
-44 191 7 276 25 43 43 59 94 85 54 28 75 33 131 33 37 0 88 -7 114 -16z
m-5802 -244 c21 -91 39 -168 39 -172 0 -5 -15 -8 -33 -8 -28 0 -34 4 -42 32
-9 29 -14 32 -50 31 -36 0 -40 -3 -47 -31 -8 -28 -13 -32 -42 -32 l-34 0 14
58 c7 31 26 110 41 175 l27 118 44 -3 45 -3 38 -165z m369 78 l1 -93 30 38
c23 27 39 37 60 37 16 0 29 -3 29 -6 0 -4 -16 -28 -35 -53 -30 -41 -33 -50
-21 -67 7 -10 25 -40 40 -66 l27 -48 -35 0 c-30 0 -38 5 -57 40 -26 45 -39 43
-39 -6 0 -31 -2 -34 -30 -34 l-30 0 0 175 0 175 30 0 30 0 0 -92z m1740 -83
l0 -176 -42 1 c-24 1 -55 -1 -69 -5 -19 -5 -33 -1 -55 18 -28 24 -29 29 -28
107 1 68 4 85 21 102 22 21 54 27 91 14 21 -7 22 -5 22 53 l0 61 30 0 30 0 0
-175z m452 83 l3 -92 25 37 c20 30 31 37 58 37 30 0 42 -12 24 -24 -5 -3 -21
-23 -36 -44 l-27 -40 40 -66 41 -66 -34 0 c-28 0 -38 7 -62 43 l-29 42 -3 -42
c-3 -42 -4 -43 -38 -43 l-34 0 0 175 0 175 35 0 34 0 3 -92z m728 27 l0 -66
30 16 c33 17 60 13 85 -11 11 -12 15 -40 15 -120 l0 -104 -30 0 -30 0 0 90 c0
75 -3 92 -16 97 -37 14 -49 -10 -52 -101 l-3 -86 -29 0 -30 0 0 175 0 175 30
0 30 0 0 -65z m530 4 c0 -58 1 -60 23 -53 76 26 107 -8 107 -118 0 -71 -2 -81
-26 -105 -20 -20 -31 -24 -52 -18 -15 4 -46 6 -69 5 l-43 -1 0 176 0 175 30 0
30 0 0 -61z m-1480 -9 c0 -38 2 -40 30 -40 25 0 30 -4 30 -25 0 -21 -5 -25
-30 -25 l-31 0 3 -67 c3 -66 4 -68 31 -71 21 -3 27 -8 23 -19 -3 -8 -6 -19 -6
-24 0 -16 -73 -10 -92 8 -14 13 -18 31 -18 90 0 66 -2 75 -20 80 -13 3 -20 14
-20 29 0 17 6 24 20 24 16 0 20 7 20 33 0 40 6 47 37 47 20 0 23 -5 23 -40z
m-2096 -61 c24 -23 34 -121 17 -172 -15 -44 -59 -66 -97 -48 -14 6 -27 11 -29
11 -3 0 -5 -30 -5 -66 l0 -65 -27 3 -28 3 -3 179 -2 179 37 -5 c21 -3 47 -2
58 3 26 10 55 2 79 -22z m405 20 c44 -16 51 -35 51 -143 l0 -96 -47 -1 c-27 0
-60 -1 -75 -1 -40 -1 -58 19 -58 63 0 43 20 63 83 80 28 7 37 15 35 27 -5 26
-48 28 -55 3 -4 -14 -13 -21 -29 -21 -65 0 -15 96 52 99 6 1 25 -4 43 -10z
m290 0 c38 -14 51 -35 51 -88 l0 -41 -61 0 c-60 0 -60 0 -57 -27 3 -32 44 -46
54 -19 4 10 18 16 35 16 35 0 39 -25 10 -61 -15 -19 -29 -24 -66 -24 -39 0
-51 5 -71 28 -20 24 -24 39 -24 96 0 75 21 116 63 124 12 2 25 5 28 6 3 0 20
-4 38 -10z m198 0 c32 -12 43 -26 43 -56 0 -31 -45 -33 -53 -3 -7 26 -47 27
-47 1 0 -11 12 -23 30 -31 78 -32 101 -82 61 -131 -15 -19 -29 -24 -66 -24
-37 0 -51 5 -66 24 -29 36 -25 61 11 61 24 0 30 -4 30 -21 0 -15 5 -20 22 -17
40 5 31 32 -19 58 -91 48 -80 135 19 149 4 1 19 -4 35 -10z m191 0 c29 -10 59
-59 45 -73 -15 -15 -51 -5 -56 15 -4 13 -12 20 -24 17 -29 -5 -21 -32 15 -50
73 -36 92 -81 53 -129 -15 -19 -29 -24 -66 -24 -37 0 -51 5 -66 24 -29 36 -25
61 10 61 21 0 30 -6 34 -21 7 -25 40 -22 45 3 2 12 -11 24 -43 39 -74 35 -86
106 -22 134 39 17 37 17 75 4z m211 0 c17 -6 36 -19 41 -29 6 -10 10 -62 10
-115 l0 -97 -32 3 c-18 1 -48 -1 -66 -5 -50 -12 -82 13 -82 64 0 44 20 64 83
81 28 7 37 15 35 27 -5 25 -45 27 -58 3 -13 -24 -48 -28 -56 -6 -8 20 21 64
49 75 30 12 39 12 76 -1z m318 -21 c17 -16 23 -33 23 -65 l0 -43 -61 0 c-60 0
-60 0 -57 -27 3 -32 44 -46 54 -19 8 20 64 22 64 2 0 -69 -102 -98 -158 -45
-19 17 -22 31 -22 98 0 68 3 80 23 98 12 11 29 23 37 26 25 10 73 -2 97 -25z
m1001 -4 c18 -21 22 -36 22 -98 0 -65 -3 -75 -26 -97 -35 -33 -104 -34 -136
-2 -27 28 -37 127 -17 174 24 60 111 73 157 23z m240 8 c8 -10 12 -52 12 -119
l0 -103 -30 0 -30 0 0 90 c0 75 -3 92 -17 97 -32 12 -53 -32 -53 -113 l0 -74
-30 0 -30 0 0 120 0 120 29 0 c16 0 31 -5 33 -11 2 -6 14 -5 33 5 33 17 63 13
83 -12z m529 -4 c17 -16 23 -33 23 -65 l0 -43 -61 0 c-60 0 -60 0 -57 -27 3
-32 44 -46 54 -19 4 10 18 16 35 16 22 0 29 -5 29 -20 0 -42 -64 -79 -115 -66
-52 13 -65 39 -65 124 0 69 3 81 23 99 12 11 29 23 37 26 25 10 73 -2 97 -25z
m540 8 c6 -6 13 -57 16 -118 l5 -108 -34 0 -34 0 0 90 c0 72 -3 92 -15 96 -33
13 -45 -15 -45 -102 l0 -84 -35 0 -35 0 0 120 0 120 35 0 c19 0 35 -4 35 -9 0
-6 12 -3 28 4 28 15 58 12 79 -9z m218 -7 c17 -16 21 -35 23 -120 l4 -100 -44
1 c-23 1 -54 -1 -68 -5 -35 -9 -80 27 -80 64 0 39 19 60 70 75 33 10 46 19 48
35 4 28 -33 29 -50 1 -12 -19 -48 -27 -60 -14 -15 14 11 60 43 77 40 20 84 15
114 -14z m400 16 c37 -15 55 -46 55 -96 0 -29 0 -29 -59 -29 -65 0 -73 -5 -64
-38 6 -26 53 -32 53 -7 0 11 11 15 36 15 32 0 35 -2 29 -22 -4 -13 -18 -34
-33 -47 -21 -19 -33 -22 -65 -18 -59 8 -80 35 -85 107 -5 75 11 118 52 136 39
17 40 17 81 -1z m198 1 c15 -8 27 -11 27 -5 0 5 14 9 31 9 l30 0 -3 -154 c-3
-134 -5 -157 -22 -175 -42 -46 -144 -35 -166 19 -7 16 -9 34 -5 39 10 18 44
12 57 -9 27 -42 78 -15 78 41 0 18 -3 20 -12 11 -7 -7 -29 -12 -49 -12 -56 0
-79 34 -79 116 0 72 13 107 44 122 29 14 37 14 69 -2z m285 -22 c19 -22 22
-36 22 -120 l0 -95 -42 1 c-24 1 -55 -1 -70 -5 -21 -6 -32 -2 -52 18 -48 48
-29 99 44 121 33 10 46 19 48 35 4 28 -33 29 -50 1 -12 -19 -48 -27 -60 -14
-15 14 11 60 43 77 43 22 86 16 117 -19z m-3048 -94 l0 -120 -35 0 -35 0 0
113 c0 63 3 117 7 120 3 4 19 7 35 7 l28 0 0 -120z m2271 103 c0 -10 8 -43 18
-73 l17 -55 19 73 c18 70 20 72 51 72 l32 0 -24 -82 c-79 -281 -76 -273 -113
-276 -28 -3 -33 -1 -27 14 29 76 29 101 -4 209 -17 59 -34 113 -37 121 -4 10
4 14 31 14 27 0 36 -4 37 -17z m-2929 -741 l97 -107 -37 -3 c-35 -3 -42 1
-119 82 -45 47 -89 86 -97 86 -13 0 -16 -13 -16 -70 l0 -70 -29 0 c-16 0 -33
6 -38 13 -13 15 -35 155 -28 168 4 5 43 9 88 9 l82 -1 97 -107z m192 92 c13
-18 78 -33 144 -34 39 0 42 2 42 26 0 23 3 25 43 22 l42 -3 5 -53 c3 -30 2
-56 -2 -58 -4 -3 -64 3 -133 12 -70 9 -129 13 -132 10 -10 -10 33 -71 68 -94
28 -19 43 -23 84 -18 118 12 110 13 110 -14 0 -50 -119 -62 -210 -21 -36 17
-90 63 -121 103 -6 7 -14 42 -18 76 l-7 62 37 0 c22 0 41 -6 48 -16z m611 -66
c11 -117 33 -161 95 -190 41 -19 95 -13 113 11 23 32 52 34 85 6 10 -9 -33
-67 -54 -75 -32 -13 -100 -13 -141 -1 -49 14 -119 72 -141 116 -24 47 -30 70
-36 153 l-5 62 38 0 39 0 7 -82z m429 15 c4 -38 13 -114 21 -170 20 -136 20
-133 -14 -133 -17 0 -33 4 -36 10 -16 25 -52 301 -46 353 1 4 16 7 35 7 l34 0
6 -67z m250 -5 c14 -151 28 -262 37 -285 14 -38 11 -43 -26 -43 -23 0 -37 6
-43 18 -13 25 -53 360 -45 375 2 4 19 7 38 7 l33 0 6 -72z m171 50 c4 -13 9
-89 10 -169 1 -80 5 -151 10 -158 4 -7 23 -19 41 -27 29 -12 39 -12 68 0 35
15 53 46 39 68 -9 15 -33 289 -26 300 8 13 73 9 73 -4 0 -81 33 -355 45 -378
23 -45 19 -60 -14 -60 -17 0 -33 5 -37 11 -4 7 -26 8 -65 4 -66 -8 -117 5
-166 42 -40 31 -47 51 -48 133 0 36 -5 109 -9 163 l-9 97 40 0 c33 0 42 -4 48
-22z m376 -10 c0 -18 8 -106 17 -195 15 -140 21 -165 39 -182 25 -24 88 -30
122 -12 22 12 23 17 17 65 -4 28 -9 74 -12 101 -3 28 -9 91 -14 142 -6 51 -10
97 -10 103 0 5 16 10 35 10 40 0 35 18 64 -240 11 -96 27 -194 35 -218 l15
-42 -33 0 c-18 0 -36 3 -40 8 -4 4 -45 7 -90 7 -93 0 -119 12 -165 75 -24 34
-29 51 -35 137 -4 54 -10 134 -15 178 -4 44 -6 83 -4 88 2 4 20 7 39 7 32 0
34 -2 35 -32z m399 14 c0 -25 28 -265 41 -352 10 -69 14 -78 43 -98 40 -27 87
-28 110 -3 16 18 17 28 7 108 -6 48 -16 129 -21 178 -6 50 -13 111 -17 138
l-6 47 40 0 40 0 12 -102 c38 -308 52 -415 57 -432 6 -17 2 -18 -32 -11 -22 3
-67 6 -102 5 -74 -1 -133 23 -177 72 -27 31 -30 42 -52 233 -29 259 -31 235
17 235 31 0 40 -4 40 -18z m426 9 c-4 -5 1 -67 9 -138 9 -70 20 -173 25 -228
15 -145 26 -164 96 -165 24 0 24 -13 5 165 -5 50 -14 124 -20 165 -6 41 -14
106 -18 143 l-6 68 59 -3 59 -3 17 -140 c9 -77 22 -178 28 -225 7 -47 13 -96
15 -110 1 -14 6 -48 10 -77 l7 -52 -33 10 c-19 6 -74 12 -122 12 l-88 2 -45
47 c-37 39 -44 53 -44 87 0 22 -5 73 -10 113 -6 40 -16 133 -23 206 l-13 132
49 0 c26 0 46 -4 43 -9z m368 -18 c3 -16 12 -93 21 -173 9 -80 22 -185 30
-235 7 -49 16 -111 19 -137 6 -48 6 -48 -24 -48 -38 0 -46 17 -59 135 -6 50
-22 175 -35 280 -14 104 -22 193 -20 197 3 4 18 8 34 8 23 0 29 -5 34 -27z
m276 25 c0 -2 7 -52 15 -113 63 -466 68 -516 56 -556 -13 -44 -65 -109 -87
-109 -25 0 -27 28 -5 59 12 16 24 49 27 73 5 38 -42 461 -66 588 -5 24 -6 48
-4 52 5 7 64 12 64 6z m-4396 -441 c13 -9 20 -42 31 -137 8 -68 19 -128 23
-132 5 -5 39 17 77 47 73 58 119 71 145 40 7 -8 9 -15 4 -15 -12 0 -124 -103
-124 -113 0 -9 57 -71 148 -163 28 -29 52 -56 52 -60 0 -3 -20 -4 -45 -1 -42
4 -52 12 -121 86 -57 61 -82 81 -101 81 -26 0 -26 0 -20 -70 l6 -70 -34 0
c-19 0 -37 5 -41 12 -8 12 -63 424 -64 476 0 27 4 32 23 32 13 0 31 -6 41 -13z
m-806 -62 c10 -9 11 -18 4 -31 -6 -11 -15 -44 -21 -74 -6 -30 -21 -93 -34
-140 -22 -85 -23 -85 -57 -88 -50 -4 -70 32 -70 129 0 44 4 69 9 64 5 -6 11
-19 13 -30 2 -12 13 -21 26 -23 18 -3 22 1 22 25 0 30 33 163 45 182 8 13 43
6 63 -14z m294 -14 c26 -4 65 -20 87 -35 48 -34 65 -78 81 -215 6 -51 15 -102
20 -112 7 -12 7 -20 0 -24 -13 -8 -73 4 -81 16 -3 5 -31 6 -65 1 -135 -18
-234 44 -234 147 0 38 9 47 64 65 37 13 66 15 117 10 82 -8 92 -3 72 36 -28
57 -125 81 -160 40 -20 -23 -75 -27 -91 -7 -25 30 48 85 113 86 17 0 51 -4 77
-8z m1157 -153 c97 -58 147 -163 121 -257 -8 -31 -21 -48 -51 -68 -36 -24 -45
-25 -110 -20 -70 6 -120 27 -175 75 -52 45 -80 159 -55 226 6 13 27 37 48 51
35 25 43 26 112 21 49 -4 85 -13 110 -28z m1162 0 c5 -10 17 -60 25 -111 18
-120 23 -137 33 -137 5 0 36 22 68 50 43 37 66 50 90 50 52 0 50 -19 -11 -76
-31 -29 -56 -58 -56 -65 0 -6 43 -55 95 -108 52 -54 95 -100 95 -104 0 -4 -15
-7 -34 -7 -30 0 -45 11 -120 88 -73 75 -88 85 -103 76 -18 -12 -19 -18 -7 -91
6 -42 6 -43 -24 -43 -16 0 -34 6 -39 13 -14 18 -87 473 -78 487 8 13 56 -2 66
-22z m-696 -48 c3 -6 30 -7 64 -3 51 5 60 3 68 -13 17 -36 10 -46 -36 -49 -70
-6 -76 -17 -61 -127 7 -51 14 -108 17 -125 5 -32 4 -33 -31 -33 -20 0 -39 6
-41 13 -7 19 -45 289 -45 320 0 23 4 27 29 27 17 0 33 -4 36 -10z m451 -58
c77 -39 134 -124 134 -201 0 -50 -11 -79 -43 -113 -23 -24 -34 -28 -84 -28
-59 0 -126 14 -147 31 -6 5 -25 20 -41 33 -45 36 -76 106 -76 170 0 61 18 98
60 122 37 21 144 13 197 -14z m1462 -25 c10 -12 92 -431 92 -469 0 -20 -44
-26 -55 -8 -4 7 -28 8 -65 4 -74 -8 -124 8 -173 55 -98 92 -114 243 -33 297
23 14 35 15 84 6 31 -5 68 -13 81 -18 26 -8 26 -6 5 114 -6 30 -5 32 24 32 16
0 34 -6 40 -13z m164 -16 c18 -7 26 -22 36 -67 22 -100 16 -93 81 -87 70 7
138 -20 171 -67 21 -30 75 -262 66 -285 -6 -17 -34 -19 -54 -6 -8 5 -25 63
-38 131 -13 67 -29 129 -36 137 -36 44 -126 54 -147 15 -6 -11 -1 -56 14 -132
12 -63 19 -119 15 -123 -4 -5 -20 -7 -36 -5 -33 4 -30 -7 -74 233 -17 94 -35
189 -39 212 -11 55 -5 62 41 44z m-822 -51 c58 -30 104 -91 116 -155 l7 -38
-84 6 c-46 4 -108 10 -136 13 -62 8 -67 -1 -27 -53 47 -62 87 -71 201 -48 43
9 58 -19 24 -46 -78 -64 -265 2 -318 110 -25 53 -29 145 -9 176 32 48 74 67
136 59 30 -3 71 -14 90 -24z m2078 -102 c5 -7 24 -78 42 -158 17 -80 38 -172
46 -205 30 -126 30 -115 -4 -115 -16 0 -34 6 -40 13 -8 10 -102 439 -102 467
0 14 46 12 58 -2z m-621 -74 c74 -43 125 -130 125 -212 0 -90 -70 -134 -176
-112 -102 21 -196 131 -196 229 0 56 31 108 73 120 47 15 126 3 174 -25z m402
-39 c126 -65 185 -226 112 -304 -26 -28 -35 -31 -88 -31 -136 0 -246 103 -246
230 0 61 15 94 55 117 28 17 126 10 167 -12z m758 -89 c41 -21 87 -72 80 -90
-8 -21 -46 -9 -80 25 -35 36 -92 48 -115 25 -30 -30 -6 -51 108 -96 78 -31
117 -64 129 -107 13 -45 2 -67 -40 -82 -75 -26 -169 -1 -224 60 -39 43 -41 62
-7 67 14 2 27 -6 38 -23 31 -47 121 -77 149 -49 8 9 15 19 15 24 0 20 -40 50
-95 70 -87 32 -133 60 -143 89 -22 58 -22 62 4 88 24 24 30 25 90 20 35 -4 76
-13 91 -21z m374 -47 c47 -24 64 -55 94 -173 13 -50 28 -104 34 -119 6 -16 11
-30 11 -33 0 -8 -56 -4 -66 6 -6 6 -28 6 -64 -2 -49 -10 -60 -9 -101 9 -47 21
-92 70 -101 110 -3 12 2 35 13 52 20 34 56 44 134 39 45 -3 50 -1 47 17 -6 31
-42 64 -78 71 -27 5 -40 1 -64 -19 -32 -28 -65 -27 -73 2 -16 64 118 90 214
40z m216 -39 c6 -14 30 -108 53 -209 38 -170 40 -185 25 -207 -28 -44 -136
-24 -118 22 3 8 11 13 18 10 17 -6 35 14 35 38 0 12 -18 97 -40 190 -22 93
-40 174 -40 178 0 21 55 2 67 -22z m306 -14 c65 -28 91 -71 126 -208 11 -42
25 -87 31 -99 17 -31 1 -39 -45 -24 -27 10 -51 12 -77 6 -103 -24 -216 66
-194 154 10 39 58 58 128 51 54 -7 58 -6 58 14 0 12 -12 32 -26 45 -34 31 -84
33 -124 4 -33 -25 -60 -19 -60 12 0 41 28 59 92 59 32 0 73 -6 91 -14z m-6672
-102 c15 -13 23 -14 54 -4 41 13 125 5 167 -16 59 -31 108 -179 108 -331 l0
-43 -40 0 c-45 0 -38 -18 -63 174 -12 90 -19 113 -39 133 -46 46 -151 39 -164
-12 -3 -12 1 -77 8 -144 8 -67 12 -124 9 -126 -7 -8 -55 -6 -68 3 -10 6 -35
193 -45 340 -3 41 -3 42 26 42 16 0 37 -7 47 -16z m682 -80 c47 -33 97 -119
97 -167 l0 -30 -57 7 c-32 3 -100 9 -150 12 -82 6 -93 5 -93 -9 0 -18 53 -83
80 -97 39 -21 104 -21 145 0 l39 20 21 -21 20 -20 -28 -25 c-24 -21 -38 -24
-101 -24 -88 0 -128 12 -181 55 -46 37 -95 127 -95 173 0 52 29 111 69 138 33
23 43 25 114 21 66 -3 84 -8 120 -33z m543 -37 c80 -2 95 -5 132 -29 52 -35
69 -67 82 -160 6 -40 15 -100 20 -132 6 -33 8 -62 5 -64 -7 -7 -66 -5 -73 2
-3 4 -14 61 -23 129 -10 67 -23 132 -28 144 -25 54 -124 75 -164 34 -20 -20
-21 -21 -3 -141 10 -66 15 -127 12 -135 -7 -18 -65 -20 -71 -2 -9 23 -45 288
-45 329 0 40 0 40 33 33 17 -3 73 -7 123 -8z m1016 -24 c10 -9 18 -27 18 -40
0 -16 8 -27 28 -34 48 -19 57 -26 60 -43 3 -12 -4 -16 -27 -16 -16 0 -32 -3
-35 -8 -7 -11 14 -180 27 -220 9 -27 20 -38 47 -47 24 -8 35 -18 35 -31 0 -26
-53 -30 -101 -8 -47 23 -62 59 -83 203 l-16 115 -31 8 c-60 15 -70 58 -13 58
26 0 29 3 29 33 0 19 3 37 7 40 11 12 36 8 55 -10z m-449 -51 c50 -33 73 -77
82 -157 3 -33 13 -91 21 -128 8 -38 14 -70 14 -73 0 -9 -47 -3 -71 10 -21 11
-36 11 -68 3 -51 -14 -137 2 -180 34 -16 11 -37 38 -46 59 -22 49 -11 87 36
118 31 22 41 23 111 17 43 -3 82 -4 87 0 15 9 -8 64 -31 76 -61 33 -101 30
-146 -9 -32 -28 -81 -13 -82 25 0 6 19 24 43 38 38 24 48 26 115 21 58 -5 83
-12 115 -34z m705 -66 c5 -6 17 -60 26 -121 21 -129 31 -161 60 -180 25 -18
76 -19 111 -3 31 14 33 50 10 178 -22 122 -21 124 17 116 17 -3 34 -8 36 -11
6 -6 19 -70 43 -219 24 -145 21 -158 -34 -138 -20 7 -57 9 -98 6 -77 -8 -146
16 -175 62 -30 45 -77 308 -59 326 8 8 53 -3 63 -16z m707 -59 c54 -2 91 -9
114 -21 154 -82 178 -340 33 -359 -20 -3 -61 2 -90 10 -30 8 -56 12 -59 9 -3
-3 -1 -33 4 -66 10 -65 4 -80 -32 -80 -12 0 -26 10 -33 23 -9 18 -51 264 -78
451 l-7 49 34 -7 c19 -4 70 -8 114 -9z m1492 -15 c6 -4 18 -43 27 -87 9 -44
29 -143 46 -219 37 -172 38 -196 8 -196 -13 0 -29 4 -36 8 -11 7 -102 438
-102 483 0 20 33 26 57 11z m-942 -55 c59 -33 78 -70 103 -197 13 -63 27 -119
33 -126 6 -7 8 -18 4 -24 -8 -14 -58 -13 -72 1 -9 9 -26 9 -67 1 -45 -9 -63
-8 -99 4 -108 37 -154 146 -84 198 24 18 41 21 108 19 43 -1 81 2 84 7 10 16
-18 61 -46 76 -38 19 -81 18 -105 -5 -33 -30 -58 -34 -79 -11 -18 19 -17 21 1
43 30 35 35 37 109 37 54 0 79 -5 110 -23z m192 -12 c12 -8 47 -63 78 -122 31
-60 59 -110 61 -112 12 -12 33 27 39 72 3 29 11 73 16 100 9 39 15 47 33 47
42 0 56 -20 46 -65 -6 -22 -21 -96 -35 -165 -49 -242 -61 -263 -141 -258 -45
3 -49 5 -52 31 -3 24 0 27 24 27 37 0 64 27 64 62 0 19 -36 93 -100 206 -87
153 -98 178 -83 184 26 10 26 10 50 -7z m555 -67 c49 -26 82 -83 93 -158 6
-45 30 -146 41 -175 5 -12 -1 -15 -28 -15 -19 0 -39 5 -45 11 -7 7 -24 6 -57
-2 -107 -27 -216 45 -216 143 0 56 36 80 120 78 104 -2 102 -3 95 23 -13 42
-47 67 -94 69 -34 1 -48 -3 -62 -20 -18 -23 -63 -30 -74 -11 -14 21 6 60 38
75 45 20 135 12 189 -18z m-4490 -280 c10 -9 18 -37 22 -82 6 -79 22 -104 54
-87 51 27 179 -4 224 -55 36 -41 61 -117 62 -191 0 -66 -2 -75 -30 -110 -42
-51 -99 -64 -181 -39 -32 10 -83 19 -113 19 l-55 2 -7 55 c-9 67 -38 352 -45
438 l-5 62 29 0 c16 0 36 -6 45 -12z m1000 -151 c9 -7 20 -29 25 -48 7 -26 17
-36 42 -45 55 -18 66 -71 12 -57 -36 9 -41 -17 -26 -131 16 -122 30 -150 75
-160 26 -5 31 -10 28 -28 -6 -44 -100 -34 -147 16 -17 18 -25 51 -40 159 -11
75 -22 141 -26 147 -3 5 -19 10 -34 10 -32 0 -56 22 -47 45 3 9 18 15 41 15
34 0 35 1 35 38 0 21 3 42 7 45 10 11 36 8 55 -6z m-272 -77 c70 -36 80 -56
100 -197 10 -70 22 -143 25 -160 7 -32 7 -33 -27 -33 -19 0 -38 3 -42 8 -4 4
-54 7 -110 7 -92 0 -106 3 -137 24 -94 64 -90 179 6 211 22 7 59 9 99 5 35 -4
71 -3 79 2 14 7 14 11 0 41 -32 66 -107 80 -168 32 -21 -17 -45 -28 -53 -25
-7 3 -17 5 -22 5 -14 0 -20 31 -9 52 6 11 29 28 52 39 34 15 55 18 107 13 36
-4 81 -15 100 -24z m703 -51 c21 -6 55 -26 76 -45 40 -36 39 -30 75 -229 8
-44 17 -90 21 -102 7 -21 4 -23 -26 -23 -19 1 -45 7 -59 14 -18 10 -30 11 -44
4 -11 -6 -51 -8 -91 -6 -86 6 -134 35 -159 98 -35 88 25 140 164 140 57 0 80
4 80 13 0 31 -14 55 -40 70 -41 24 -90 21 -130 -8 -38 -28 -62 -32 -80 -10
-34 41 33 95 119 95 31 0 73 -5 94 -11z m446 -39 c48 -14 98 -50 116 -85 8
-16 24 -79 34 -140 11 -60 24 -122 30 -136 5 -15 7 -30 4 -33 -12 -12 -59 -6
-81 10 -19 13 -28 14 -53 4 -44 -19 -142 -7 -184 21 -19 13 -44 41 -56 62 -19
34 -20 44 -10 76 16 52 59 71 166 71 47 0 85 4 85 10 0 44 -54 90 -105 90 -28
0 -85 -28 -85 -42 0 -12 -58 -10 -65 3 -13 20 6 60 38 79 35 22 110 26 166 10z
m268 -42 c11 -13 44 -70 72 -128 29 -58 56 -109 61 -114 11 -11 24 19 39 94
21 96 33 140 43 146 17 11 68 -7 68 -24 0 -18 -18 -90 -69 -282 -17 -63 -34
-126 -37 -140 -4 -14 -18 -37 -32 -52 -20 -22 -35 -28 -68 -28 -43 0 -78 22
-71 44 2 6 21 16 42 21 20 6 44 20 51 30 30 40 18 75 -96 280 -62 112 -88 164
-82 169 13 14 60 4 79 -16z m589 -39 c62 -22 129 -111 135 -179 l4 -35 -50 0
c-27 0 -92 4 -142 8 -73 7 -93 6 -93 -4 0 -22 43 -76 74 -95 36 -21 104 -24
139 -5 32 17 80 7 75 -16 -7 -36 -55 -57 -126 -57 -75 1 -118 17 -169 64 -58
53 -84 104 -86 175 -2 71 14 102 73 142 28 20 41 22 89 16 31 -3 66 -9 77 -14z
m1319 -32 c10 -8 23 -29 29 -48 8 -25 18 -35 36 -37 54 -8 71 -52 20 -52 -37
0 -37 -6 -10 -150 20 -106 27 -117 75 -130 13 -4 20 -14 20 -30 0 -23 -4 -25
-39 -23 -21 2 -53 12 -72 24 -38 23 -54 67 -73 196 -15 100 -25 123 -55 123
-40 0 -64 53 -25 56 53 4 51 3 45 37 -9 48 11 61 49 34z m-646 -43 c48 -31 66
-67 81 -159 6 -39 18 -95 26 -126 8 -30 14 -61 14 -67 0 -16 -51 -14 -74 3
-13 10 -25 11 -43 4 -38 -14 -122 -11 -160 7 -67 32 -107 114 -80 164 20 39
60 52 148 51 85 -1 91 3 68 52 -23 51 -104 62 -158 23 -24 -18 -39 -22 -55
-17 -34 13 -27 51 14 79 32 22 42 23 108 18 54 -4 82 -12 111 -32z m373 -14
c47 -14 95 -53 112 -94 7 -17 18 -62 25 -101 7 -38 19 -94 27 -123 8 -29 12
-57 9 -62 -7 -11 -53 -3 -72 12 -8 6 -25 5 -49 -2 -21 -7 -58 -10 -87 -7 -134
16 -206 160 -109 217 32 19 47 22 110 17 83 -6 97 4 67 49 -33 50 -120 64
-148 24 -19 -28 -81 -30 -91 -4 -4 10 6 28 28 50 30 30 40 34 88 34 29 0 70
-5 90 -10z m526 -49 c10 -6 82 -324 82 -362 0 -11 -50 -12 -67 -1 -6 4 -19 48
-28 97 -9 50 -23 121 -31 159 -20 98 -19 116 9 116 12 0 28 -4 35 -9z m1729
-13 c10 -13 113 -463 113 -493 0 -18 -33 -20 -60 -3 -15 10 -27 10 -54 0 -74
-27 -183 30 -228 121 -51 99 -47 193 10 238 23 17 35 20 76 14 27 -3 58 -11
69 -17 31 -16 37 3 22 67 -20 82 -19 85 14 85 16 0 33 -6 38 -12z m-1376 -24
c14 -17 102 -172 118 -211 25 -55 46 -21 57 92 10 101 16 113 54 107 17 -2 33
-10 36 -16 2 -6 -3 -45 -11 -86 -8 -41 -22 -113 -30 -160 -8 -47 -17 -96 -21
-110 -3 -14 -8 -36 -11 -50 -15 -64 -69 -97 -126 -77 -38 13 -34 51 5 55 53 6
73 69 42 127 -9 17 -25 46 -36 65 -10 19 -23 42 -28 50 -25 38 -120 214 -120
221 0 16 57 10 71 -7z m549 -58 c42 -28 68 -61 75 -94 18 -93 47 -218 55 -233
6 -10 10 -20 10 -23 0 -11 -66 -6 -77 5 -9 9 -23 9 -55 1 -49 -12 -113 -2
-161 26 -40 24 -70 85 -62 128 9 51 44 69 134 69 63 0 76 3 79 17 5 27 -49 78
-90 85 -31 4 -41 1 -61 -21 -25 -27 -70 -35 -82 -15 -12 19 5 58 33 74 43 25
152 15 202 -19z m344 -13 c27 -4 52 -19 81 -47 39 -38 44 -49 65 -141 21 -96
30 -132 45 -166 9 -24 -22 -32 -58 -14 -24 12 -38 13 -64 4 -37 -12 -119 -4
-143 14 -46 34 -70 64 -76 94 -15 82 23 113 141 113 41 0 75 2 75 5 0 20 -35
67 -60 80 -43 22 -78 19 -105 -11 -30 -33 -68 -30 -73 6 -3 17 4 31 25 47 29
24 72 29 147 16z m879 -95 c25 -14 57 -46 81 -81 51 -74 61 -155 27 -210 -35
-57 -86 -69 -177 -42 -113 33 -201 191 -160 289 16 39 32 59 56 69 29 13 132
-3 173 -25z m-6098 -168 c220 -16 454 -34 520 -40 95 -9 1286 -101 2860 -221
72 -5 182 -14 245 -19 63 -5 129 -10 147 -10 40 0 49 -15 63 -106 16 -104 16
-104 59 -104 45 0 96 -31 127 -77 13 -19 28 -71 39 -127 9 -53 25 -118 36
-146 l19 -50 -39 0 c-21 0 -44 6 -50 14 -10 12 -16 12 -39 0 -15 -8 -35 -14
-44 -14 -22 0 -22 -9 -3 -80 8 -30 12 -56 9 -59 -2 -3 -125 3 -272 12 -147 9
-406 26 -577 37 -170 10 -375 24 -455 30 -80 5 -325 21 -545 35 -220 14 -433
27 -473 31 l-72 6 20 25 c24 31 25 72 5 208 -9 55 -20 140 -25 190 -15 130
-17 133 -57 141 -22 4 -38 2 -42 -4 -4 -6 4 -82 16 -169 13 -87 24 -194 25
-238 l3 -80 -33 -10 c-27 -8 -33 -14 -29 -32 5 -28 30 -28 -337 -3 -319 22
-1344 87 -1523 97 l-113 6 0 264 0 264 23 -7 c75 -23 94 -44 102 -115 22 -211
28 -240 47 -250 11 -6 31 -8 45 -4 25 6 26 8 19 68 -3 34 -9 101 -13 148 -5
79 -4 88 16 108 33 33 110 30 150 -8 17 -16 31 -37 32 -48 1 -41 26 -274 30
-277 2 -3 22 -6 44 -8 46 -3 45 -8 32 137 -12 138 -22 182 -51 220 -36 46 -67
61 -145 68 -51 4 -72 2 -101 -13 -37 -19 -37 -19 -85 5 -47 24 -77 33 -122 34
-22 1 -23 4 -23 107 l0 105 68 -6 c37 -3 247 -19 467 -35z m4425 -550 c102 5
137 0 176 -21 41 -22 42 -22 79 -4 29 13 51 16 93 11 92 -11 141 -60 162 -161
6 -33 18 -88 26 -122 8 -34 14 -74 14 -88 0 -24 -3 -26 -32 -23 -37 3 -31 -12
-78 201 -20 89 -25 100 -53 118 -39 23 -90 25 -112 2 -14 -14 -16 -28 -10 -86
3 -38 14 -100 24 -138 10 -38 15 -71 13 -74 -3 -3 -20 -5 -38 -5 -27 0 -35 5
-38 23 -50 245 -55 262 -88 290 -54 45 -138 31 -138 -23 0 -10 9 -63 19 -117
30 -152 30 -157 3 -161 -42 -6 -59 26 -77 148 -6 36 -32 177 -41 219 -5 22 -3
23 33 17 21 -4 49 -6 63 -6z m837 -65 c62 -31 82 -73 114 -235 6 -36 18 -77
26 -92 7 -15 13 -32 13 -38 0 -14 -53 -13 -68 2 -9 9 -24 8 -66 -1 -42 -9 -65
-9 -98 -1 -104 28 -161 148 -97 206 15 13 43 20 102 24 95 6 108 21 59 70 -40
40 -97 42 -132 5 -26 -28 -52 -32 -70 -10 -17 21 -3 53 33 76 26 17 43 19 93
14 34 -3 75 -12 91 -20z m402 -29 c47 -25 77 -70 96 -143 15 -59 43 -167 56
-212 6 -21 -26 -25 -62 -7 -22 11 -36 13 -49 6 -24 -13 -101 -13 -133 -1 -48
18 -95 69 -102 111 -8 47 4 72 50 100 28 17 47 21 97 18 58 -3 63 -2 60 17 -2
11 -15 32 -30 48 -35 37 -93 38 -126 2 -28 -30 -47 -32 -71 -5 -17 19 -16 21
19 56 37 37 37 37 101 31 35 -3 78 -13 94 -21z m220 -13 c20 -13 29 -14 57 -4
43 15 120 5 155 -21 42 -31 65 -84 98 -222 17 -70 31 -130 31 -133 0 -2 -17
-3 -37 -1 l-38 3 -30 132 c-33 145 -52 178 -111 189 -39 7 -70 -8 -77 -39 -4
-12 6 -78 22 -146 30 -132 29 -140 -23 -127 -24 6 -30 20 -42 92 -3 21 -17 84
-30 139 -25 103 -29 137 -17 148 10 10 16 9 42 -10z m589 -52 c66 -34 112
-104 133 -201 9 -44 8 -55 -10 -94 -31 -64 -90 -81 -185 -55 -56 16 -128 91
-155 165 -32 83 -24 137 25 183 35 32 39 33 95 27 33 -3 76 -14 97 -25z
m-4159 -460 c15 -9 53 -217 81 -441 5 -41 12 -90 16 -107 6 -32 5 -33 -25 -33
-18 0 -41 5 -51 10 -13 7 -33 7 -62 -1 -100 -27 -198 20 -253 121 -26 48 -29
65 -30 138 l0 83 42 40 c40 37 46 39 103 39 36 0 74 -6 91 -16 17 -8 33 -13
36 -11 2 3 -1 39 -7 81 -7 41 -10 82 -7 90 7 17 44 21 66 7z m-2467 -27 c25
-13 35 -13 59 -3 43 17 156 5 191 -21 32 -24 67 -26 94 -5 26 19 146 20 183 0
33 -17 79 -68 92 -102 9 -23 39 -255 39 -300 0 -20 -5 -23 -40 -23 -25 0 -43
5 -46 14 -3 7 -13 76 -23 152 -10 77 -21 146 -25 155 -19 43 -120 64 -164 33
-19 -13 -22 -24 -22 -75 0 -33 5 -103 11 -156 8 -78 8 -98 -3 -104 -20 -13
-54 -11 -66 4 -6 7 -18 74 -25 148 -15 142 -30 186 -69 208 -50 26 -137 14
-151 -23 -3 -7 1 -76 9 -152 19 -189 21 -174 -25 -174 -22 0 -43 5 -46 11 -11
17 -49 394 -42 413 8 20 29 20 69 0z m3625 -42 c7 -4 19 -43 28 -87 17 -91 24
-102 56 -85 34 19 120 6 168 -24 69 -44 121 -147 121 -243 0 -126 -77 -176
-208 -135 -34 11 -65 16 -68 11 -9 -15 -61 -10 -68 7 -3 9 -24 125 -47 257
-22 133 -43 257 -46 275 -5 30 -4 32 23 32 16 0 35 -4 41 -8z m-2570 -38 c54
-44 93 -111 96 -165 l2 -44 -152 4 c-150 3 -153 3 -153 -18 0 -11 19 -41 43
-66 36 -38 50 -45 83 -46 62 -2 77 1 106 22 34 24 41 24 62 0 53 -59 -96 -112
-217 -77 -103 30 -170 116 -182 232 -5 50 -2 66 18 104 13 25 39 55 58 68 30
21 43 23 116 20 73 -3 85 -6 120 -34z m262 2 c5 -6 14 -54 20 -106 6 -52 16
-137 22 -189 6 -51 8 -99 5 -107 -7 -17 -60 -18 -74 -1 -5 6 -13 39 -17 72 -3
33 -13 106 -21 161 -17 124 -18 181 -2 186 18 6 56 -3 67 -16z m197 -11 c23
-17 60 -19 70 -4 10 16 132 6 172 -15 53 -27 80 -96 102 -254 10 -76 15 -140
11 -143 -11 -11 -56 -18 -67 -11 -12 8 -20 45 -29 137 -16 157 -35 204 -93
226 -27 11 -96 -6 -114 -28 -8 -10 -7 -50 5 -160 9 -80 14 -150 11 -155 -7
-11 -71 -10 -78 1 -9 14 -56 403 -50 412 8 14 38 11 60 -6z m1405 -93 c142
-91 185 -272 85 -360 -95 -83 -280 -28 -340 100 -38 82 -43 147 -16 203 32 65
68 85 156 85 60 0 77 -4 115 -28z m475 -23 c121 -73 177 -239 112 -336 -35
-53 -78 -68 -166 -59 -64 7 -99 23 -148 71 -54 52 -85 157 -70 237 9 47 54 98
96 108 50 11 140 1 176 -21z m1077 -50 c50 -14 117 -74 117 -105 0 -13 -4 -24
-9 -24 -22 0 -60 20 -84 44 -31 31 -71 42 -106 30 -53 -19 -32 -86 33 -100 57
-12 150 -54 177 -80 37 -35 48 -98 23 -126 -36 -39 -73 -51 -141 -45 -73 7
-105 22 -151 70 -63 65 -18 106 46 43 63 -63 162 -74 170 -18 4 30 -23 72 -47
72 -27 0 -153 47 -181 69 -31 23 -54 82 -46 116 14 55 106 80 199 54z m385
-18 c50 -10 115 -52 130 -86 6 -14 20 -69 31 -123 11 -54 27 -118 35 -142 8
-24 13 -47 10 -52 -9 -13 -61 -9 -73 6 -11 13 -18 13 -54 0 -35 -12 -53 -13
-104 -4 -70 14 -101 40 -129 108 -32 82 13 124 140 132 79 5 81 6 79 30 -4 35
-59 80 -100 80 -24 0 -40 -8 -60 -30 -29 -33 -63 -39 -84 -14 -18 22 6 64 51
86 38 20 63 21 128 9z m631 -47 c31 -12 44 -13 61 -4 26 14 57 5 64 -18 3 -9
16 -73 30 -142 14 -69 33 -157 41 -197 14 -66 14 -76 -1 -113 -10 -25 -28 -47
-45 -55 -60 -32 -185 -10 -238 41 -21 19 -22 25 -11 38 13 17 40 22 40 7 0
-13 75 -41 109 -41 36 0 81 35 81 64 0 35 -16 44 -58 33 -21 -5 -58 -7 -83 -3
-145 22 -245 267 -153 376 22 26 33 30 75 30 27 0 66 -7 88 -16z m479 -36 c24
-11 50 -30 58 -42 17 -27 38 -98 54 -181 6 -33 18 -80 27 -104 12 -34 13 -45
3 -51 -13 -8 -48 -2 -66 12 -7 5 -23 4 -38 -2 -59 -22 -152 -7 -193 32 -28 26
-53 80 -53 114 0 12 11 36 24 51 22 26 32 28 108 33 100 6 110 20 54 76 -31
31 -41 36 -70 31 -18 -3 -45 -17 -60 -32 -29 -29 -53 -30 -69 -3 -15 23 7 63
47 83 39 19 113 12 174 -17z m195 -8 c5 -4 37 -59 72 -121 59 -106 85 -135 90
-99 1 8 5 47 9 85 13 129 15 135 46 135 46 0 49 -14 29 -155 -11 -71 -24 -166
-29 -210 -13 -97 -17 -112 -42 -147 -32 -46 -118 -36 -118 14 0 13 10 20 30
25 17 3 35 14 40 24 24 43 11 83 -71 224 -141 242 -133 226 -118 236 14 9 47
3 62 -11z m-6174 -479 c9 -6 18 -54 28 -152 15 -143 21 -170 39 -176 5 -1 45
31 89 72 63 60 85 75 110 75 63 0 59 -18 -20 -102 -41 -43 -75 -82 -75 -88 0
-5 49 -64 110 -131 60 -66 107 -125 104 -130 -3 -5 -22 -9 -42 -9 -34 0 -45 8
-133 101 -81 85 -100 100 -118 94 -20 -6 -21 -13 -20 -85 2 -86 -3 -100 -32
-100 -49 0 -56 13 -68 137 -26 274 -42 430 -47 459 -2 17 -1 33 3 37 9 10 55
8 72 -2z m-279 -174 c20 -11 30 -10 50 0 27 14 68 17 94 7 23 -9 22 -74 -1
-75 -10 -1 -22 -2 -28 -4 -5 -1 -20 -3 -32 -3 -13 -1 -32 -11 -44 -23 -17 -17
-20 -29 -15 -62 17 -116 25 -261 15 -274 -14 -17 -63 -17 -77 0 -13 16 -54
432 -43 443 9 9 57 3 81 -9z m990 -47 c52 -26 106 -101 120 -165 16 -72 10
-74 -170 -67 -141 5 -150 4 -150 -13 0 -29 39 -79 81 -103 48 -28 113 -29 154
-2 38 25 71 25 85 1 8 -16 4 -24 -24 -49 -46 -40 -130 -51 -212 -27 -70 20
-156 100 -173 161 -29 104 -1 214 66 258 51 33 164 36 223 6z m502 -16 c25
-13 36 -14 50 -5 30 19 144 14 187 -8 68 -35 117 -120 127 -221 8 -76 -10
-136 -53 -178 l-36 -34 -76 5 c-42 3 -87 9 -100 13 l-24 7 6 -70 c3 -39 3 -80
0 -92 -7 -26 -50 -39 -68 -20 -15 15 -90 580 -81 605 7 18 30 18 68 -2z m734
-34 c130 -63 191 -223 132 -345 -29 -58 -80 -85 -164 -85 -74 0 -127 24 -176
78 -57 63 -69 86 -78 151 -13 92 15 164 78 203 40 25 154 24 208 -2z m2577 -5
c8 -7 18 -30 21 -49 6 -29 12 -35 44 -43 30 -7 37 -13 37 -33 0 -20 -6 -26
-27 -28 -23 -3 -28 -8 -28 -30 0 -34 18 -132 39 -207 15 -56 18 -60 49 -63 39
-4 60 -35 41 -59 -10 -11 -24 -14 -58 -9 -80 11 -100 43 -131 211 -25 143 -33
165 -59 165 -34 0 -51 12 -51 35 0 19 6 24 33 27 32 3 32 3 29 51 -4 44 -2 47
21 47 14 0 32 -7 40 -15z m-2068 -16 c56 -29 81 -55 117 -118 57 -99 40 -229
-36 -284 -44 -31 -163 -31 -221 0 -73 39 -122 107 -141 198 -11 51 -11 67 2
104 19 58 37 82 77 103 47 25 151 24 202 -3z m283 -6 c16 -15 26 -59 57 -260
21 -143 34 -255 30 -273 -10 -47 -51 -73 -104 -67 -24 3 -47 11 -52 18 -14 22
-6 44 18 47 11 2 29 12 38 22 16 18 16 28 -4 177 -12 87 -29 198 -37 246 -8
48 -12 92 -9 97 10 16 41 12 63 -7z m420 -22 c71 -36 83 -60 111 -223 11 -62
24 -126 30 -141 18 -47 14 -57 -21 -57 -18 0 -41 7 -51 14 -16 12 -24 12 -55
-1 -57 -24 -154 -12 -197 24 -42 35 -69 96 -61 138 12 63 76 95 187 95 75 0
78 3 54 55 -30 62 -112 75 -160 25 -39 -40 -88 -39 -93 1 -2 19 6 34 33 58 33
29 41 31 111 31 54 0 85 -5 112 -19z m472 -21 c11 -11 20 -24 20 -29 0 -4 16
-101 35 -215 38 -226 41 -262 23 -301 -13 -30 -37 -38 -99 -33 -40 3 -44 6
-47 31 -3 21 1 27 16 27 11 0 29 8 41 18 l21 17 -40 240 c-22 132 -38 246 -35
252 7 20 43 15 65 -7z m442 -40 c121 -86 158 -244 82 -347 -29 -38 -89 -54
-160 -42 -27 4 -54 8 -60 8 -23 2 -94 74 -125 127 -26 47 -32 67 -32 122 -2
123 47 172 169 172 67 0 74 -2 126 -40z m912 -28 c51 -35 99 -115 100 -167 l1
-40 -132 3 c-129 3 -133 3 -133 -17 0 -30 65 -98 106 -111 42 -14 84 -6 114
22 17 16 27 19 39 11 44 -28 5 -86 -66 -99 -98 -18 -210 42 -260 139 -26 52
-46 164 -31 173 4 3 8 13 8 22 0 30 52 83 90 91 58 13 122 2 164 -27z m224 6
c9 -9 21 -8 52 2 55 18 93 2 88 -38 -3 -23 -8 -27 -36 -29 -70 -3 -72 -11 -48
-150 8 -45 18 -101 21 -125 4 -24 7 -47 8 -53 1 -5 -13 -11 -30 -13 -41 -4
-44 2 -78 173 -14 72 -30 152 -35 178 -6 27 -8 53 -4 58 8 13 48 11 62 -3z
m267 -9 c12 -18 85 -391 79 -400 -3 -5 -19 -9 -35 -9 -22 0 -32 6 -38 23 -11
29 -61 285 -68 350 l-6 47 31 0 c17 0 34 -5 37 -11z m-4431 -698 c3 -9 19
-133 36 -276 16 -143 32 -279 35 -302 4 -39 2 -43 -20 -49 -14 -3 -36 -4 -49
0 -20 5 -24 14 -29 58 -17 141 -67 579 -67 583 0 7 35 11 62 7 15 -2 30 -12
32 -21z m214 10 c12 -7 27 -97 47 -273 4 -32 11 -61 17 -64 7 -4 45 28 89 74
42 45 86 82 96 82 32 0 63 -12 63 -24 0 -6 -32 -44 -70 -85 -39 -41 -70 -79
-70 -85 0 -6 51 -68 114 -138 63 -69 112 -129 109 -132 -4 -3 -23 -6 -44 -6
-40 0 -70 24 -176 143 -53 59 -72 67 -93 42 -9 -11 -9 -31 0 -86 6 -43 7 -76
2 -81 -5 -5 -27 -8 -48 -6 l-39 3 -12 95 c-7 52 -17 133 -22 180 -6 47 -17
139 -26 205 -21 169 -21 165 18 165 17 0 38 -4 45 -9z m1864 -58 c9 -10 21
-52 27 -92 13 -80 27 -109 45 -91 5 5 43 10 84 10 61 0 80 -4 105 -22 82 -58
118 -129 123 -239 6 -126 -38 -186 -138 -194 -23 -1 -60 4 -82 12 -38 13 -68
13 -106 -1 -8 -3 -21 -2 -27 2 -7 5 -27 103 -48 237 -19 127 -39 257 -45 290
-16 96 -14 105 18 105 16 0 36 -8 44 -17z m511 -58 c4 -27 10 -64 13 -81 2
-17 11 -39 19 -50 12 -16 17 -17 34 -6 12 6 49 12 84 12 58 0 67 -3 104 -35
24 -21 48 -53 57 -78 21 -55 64 -313 56 -328 -4 -6 -22 -9 -41 -7 -37 3 -31
-16 -74 221 -20 112 -45 152 -99 163 -44 8 -94 -18 -102 -53 -6 -21 25 -243
42 -304 3 -12 -3 -18 -22 -22 -51 -9 -61 0 -72 71 -6 37 -24 150 -41 252 -47
277 -48 289 -42 295 3 3 21 5 41 3 34 -3 35 -5 43 -53z m-3649 -42 c29 -13 40
-14 61 -5 14 7 57 12 96 12 58 0 76 -4 108 -26 53 -35 86 -86 106 -164 29
-110 5 -216 -60 -270 -17 -14 -133 -18 -215 -8 l-25 3 4 -92 3 -92 -27 -7
c-40 -10 -59 6 -67 57 -13 81 -58 592 -52 600 8 13 29 11 68 -8z m792 -32 c59
-33 73 -64 90 -203 9 -68 22 -145 30 -172 8 -26 14 -52 14 -57 0 -13 -84 -11
-98 3 -9 9 -23 8 -63 -6 -129 -47 -269 25 -269 138 0 53 16 83 58 110 32 20
54 24 129 27 50 2 94 7 98 11 4 4 2 23 -5 43 -16 50 -75 80 -128 65 -21 -5
-51 -23 -67 -40 -59 -62 -127 -20 -79 49 45 64 203 81 290 32z m1190 -33 c69
-47 108 -109 109 -173 l0 -50 -152 -3 c-171 -3 -172 -3 -128 -67 40 -59 66
-75 128 -75 37 0 62 6 78 18 38 29 56 32 74 12 23 -26 7 -53 -51 -80 -82 -40
-220 -15 -280 52 -48 52 -74 119 -74 191 0 84 15 121 69 170 39 35 44 37 110
37 61 0 74 -4 117 -32z m273 8 c10 -12 55 -297 63 -401 3 -40 3 -40 -35 -43
-31 -3 -38 1 -46 20 -8 22 -61 385 -61 421 0 13 8 17 34 17 18 0 39 -6 45 -14z
m222 -12 c17 -15 20 -15 43 0 17 11 47 16 92 16 57 0 72 -4 102 -26 48 -37 78
-111 92 -224 6 -52 16 -111 21 -131 17 -69 14 -76 -33 -75 l-43 1 -12 65 c-6
36 -16 102 -22 148 -13 106 -32 145 -80 166 -35 16 -40 16 -79 1 -61 -25 -62
-28 -28 -263 15 -104 8 -125 -36 -115 -39 10 -46 22 -53 96 -4 40 -15 127 -26
194 -26 165 -26 163 13 163 17 0 40 -7 49 -16z m1838 -44 c68 -34 136 -140
129 -199 l-3 -26 -142 -3 c-130 -2 -143 -4 -143 -21 0 -29 52 -89 93 -106 54
-22 85 -19 130 12 40 28 68 25 75 -9 4 -19 -37 -64 -65 -72 -36 -11 -116 -9
-161 5 -42 12 -122 72 -122 91 0 5 -10 24 -22 41 -20 28 -23 45 -23 122 0 98
13 127 73 167 38 25 131 24 181 -2z m470 -23 c46 -31 97 -115 107 -176 l7 -42
-139 2 c-123 2 -139 0 -142 -15 -5 -22 32 -80 63 -100 37 -24 119 -21 156 6
32 24 61 17 67 -15 5 -23 -44 -65 -84 -73 -146 -27 -276 70 -305 228 -18 98 3
154 71 197 48 31 143 25 199 -12z m378 8 c25 -11 40 -12 47 -5 5 5 25 10 43
10 39 0 42 -5 66 -130 9 -47 28 -142 41 -211 28 -140 25 -176 -18 -222 -56
-60 -188 -52 -269 16 -27 23 -28 24 -10 46 l18 22 29 -22 c20 -16 47 -24 86
-27 49 -4 61 -1 79 17 16 16 21 32 19 54 -3 28 -6 32 -28 29 -14 -2 -52 -4
-85 -5 -53 -2 -65 2 -107 30 -131 91 -160 342 -47 400 33 17 92 16 136 -2z
m526 -27 c12 -18 51 -198 84 -378 2 -14 8 -44 13 -67 20 -86 -12 -138 -81
-136 -49 2 -59 8 -59 36 0 16 9 26 30 34 40 15 40 23 -15 294 -25 123 -45 227
-45 232 0 4 13 7 30 7 20 0 34 -7 43 -22z m397 -12 c52 -34 73 -80 97 -206 11
-64 25 -115 38 -147 8 -19 12 -39 9 -44 -8 -14 -57 -10 -78 6 -16 12 -22 12
-42 -2 -25 -16 -97 -20 -138 -7 -68 21 -124 104 -112 168 11 59 95 104 169 91
17 -3 39 -1 47 4 21 15 -10 76 -51 96 -41 22 -77 13 -110 -27 -21 -25 -31 -30
-52 -24 -55 13 -19 105 46 120 52 11 138 -2 177 -28z m419 -9 c50 -33 70 -75
96 -192 16 -76 41 -167 51 -191 8 -18 -30 -23 -64 -8 -27 11 -36 11 -59 -1
-37 -20 -107 -19 -150 2 -51 24 -93 86 -93 137 1 72 45 107 144 110 34 1 67 5
73 9 18 11 3 45 -35 78 -43 38 -80 34 -127 -11 -33 -32 -54 -37 -73 -18 -21
21 -13 49 22 84 32 32 36 33 103 31 57 -2 77 -7 112 -30z"/>
<path d="M6613 9773 c-20 -4 -23 -11 -23 -51 l0 -47 85 0 85 0 0 46 c0 40 -3
48 -22 53 -25 6 -90 6 -125 -1z"/>
<path d="M412 8525 c-32 -23 -34 -54 -5 -81 15 -14 37 -27 50 -30 31 -8 88 3
103 21 14 17 17 72 4 85 -17 16 -130 20 -152 5z"/>
<path d="M1505 8548 c-70 -38 -74 -131 -8 -207 60 -71 146 -79 184 -18 40 64
-2 177 -81 217 -44 22 -66 24 -95 8z"/>
<path d="M2427 8434 c-35 -19 -43 -40 -39 -103 8 -114 142 -191 212 -121 32
32 28 116 -9 167 -29 40 -83 73 -118 73 -10 -1 -31 -8 -46 -16z"/>
<path d="M3857 8273 c-10 -3 -22 -16 -28 -29 -41 -110 67 -253 161 -214 16 6
31 17 33 24 5 13 -16 140 -28 168 -16 40 -84 65 -138 51z"/>
<path d="M4697 8179 c-9 -5 -24 -23 -32 -39 -28 -54 15 -161 79 -197 26 -15
81 -16 106 -3 11 6 22 26 26 46 13 71 -36 162 -103 190 -38 16 -52 17 -76 3z"/>
<path d="M5105 8116 c-28 -28 -33 -71 -14 -127 31 -91 134 -138 188 -87 21 19
23 28 18 75 -8 81 -60 142 -134 158 -27 5 -37 2 -58 -19z"/>
<path d="M740 7773 c-21 -8 -50 -45 -50 -65 0 -21 14 -25 116 -33 94 -8 106 0
74 45 -35 49 -92 70 -140 53z"/>
<path d="M1847 7500 c-35 -28 -34 -45 5 -81 65 -58 172 -27 161 48 -5 33 -11
36 -93 48 -37 5 -50 3 -73 -15z"/>
<path d="M3381 7483 c-21 -18 -21 -20 -7 -98 8 -44 18 -88 21 -98 10 -24 54
-46 98 -49 100 -6 116 130 26 224 -30 32 -43 38 -76 38 -24 0 -50 -7 -62 -17z"/>
<path d="M3841 7294 l-26 -22 21 -29 c27 -36 69 -56 100 -49 31 8 64 41 64 64
0 33 -18 46 -76 52 -50 6 -60 4 -83 -16z"/>
<path d="M4588 7229 c-43 -24 1 -96 64 -106 53 -8 88 16 88 62 0 24 -6 37 -19
45 -25 13 -111 13 -133 -1z"/>
<path d="M305 6898 c-36 -19 -42 -36 -38 -100 8 -107 19 -135 63 -158 58 -29
105 -26 141 9 25 25 29 37 29 81 0 63 -37 138 -80 163 -32 19 -85 22 -115 5z"/>
<path d="M798 6694 c-35 -19 -36 -48 -2 -79 62 -57 166 -35 172 36 3 30 -1 37
-23 47 -36 16 -114 14 -147 -4z"/>
<path d="M1570 6643 c-24 -9 -50 -35 -50 -49 0 -7 12 -26 26 -43 22 -27 32
-31 75 -31 36 0 54 5 69 20 23 23 26 72 6 89 -16 13 -104 23 -126 14z"/>
<path d="M2003 6593 c-74 -51 47 -145 130 -102 30 16 37 28 37 67 0 26 -5 34
-26 42 -38 15 -116 11 -141 -7z"/>
<path d="M2850 6683 c-21 -9 -49 -46 -50 -65 0 -20 15 -25 123 -33 71 -6 77
-5 77 12 0 48 -102 106 -150 86z"/>
<path d="M3477 6462 c-23 -25 -21 -35 9 -71 22 -27 32 -31 72 -31 58 1 85 20
85 59 0 49 -18 61 -88 61 -47 0 -66 -4 -78 -18z"/>
<path d="M3948 6442 c-33 -4 -58 -35 -51 -63 3 -10 20 -28 38 -39 64 -39 135
-17 135 43 0 18 -4 37 -8 43 -8 12 -73 22 -114 16z"/>
<path d="M6090 6380 c-39 -39 -22 -139 37 -208 36 -43 95 -53 133 -23 l24 19
-18 79 c-23 97 -29 109 -69 133 -41 25 -82 25 -107 0z"/>
<path d="M5307 6313 c-24 -27 -21 -55 7 -82 54 -51 146 -27 146 39 0 38 -22
53 -83 58 -42 3 -55 0 -70 -15z"/>
<path d="M5706 6271 c-32 -36 4 -87 68 -98 50 -8 86 17 86 60 0 46 -16 57 -80
57 -44 0 -61 -5 -74 -19z"/>
<path d="M6543 6362 c-79 -13 -65 -171 19 -236 24 -18 47 -26 75 -26 37 0 42
3 58 36 46 97 -52 243 -152 226z"/>
<path d="M859 6145 c-3 -2 10 -131 27 -286 33 -283 36 -299 74 -299 34 0 42
16 39 81 -6 118 12 117 134 -6 94 -95 119 -109 157 -86 11 8 -2 26 -62 88 -95
99 -138 148 -138 160 0 6 32 40 71 76 39 36 68 71 64 76 -3 6 -24 11 -45 11
-34 0 -48 -8 -103 -60 -64 -59 -80 -69 -91 -51 -6 9 -18 85 -36 211 -9 68 -25
90 -65 90 -12 0 -24 -2 -26 -5z"/>
<path d="M2206 6043 c-11 -11 -7 -51 29 -303 36 -255 40 -270 87 -270 30 0 32
27 14 156 -10 67 -15 131 -12 141 7 23 50 43 91 43 22 0 40 -9 62 -32 29 -31
33 -44 52 -172 12 -77 23 -142 26 -144 7 -8 64 -7 71 1 12 12 -29 281 -46 307
-9 14 -20 33 -23 43 -15 42 -165 75 -216 48 -28 -15 -36 -1 -48 82 -6 44 -15
82 -19 87 -13 11 -60 21 -68 13z"/>
<path d="M1395 5929 c-62 -36 -82 -79 -46 -99 24 -12 45 -5 77 26 45 46 132
26 165 -37 23 -46 16 -50 -79 -42 -82 7 -134 -13 -163 -61 -25 -41 -24 -61 6
-111 40 -70 141 -101 236 -75 28 8 43 7 65 -5 16 -8 39 -12 54 -8 33 8 33 8
21 30 -5 11 -17 71 -26 134 -21 147 -30 173 -68 204 -18 14 -39 31 -47 38 -19
16 -169 21 -195 6z m206 -219 c25 -14 26 -71 2 -92 -53 -46 -108 -47 -156 -3
-36 34 -36 70 1 89 31 18 124 21 153 6z"/>
<path d="M3830 5905 c0 -8 16 -105 36 -217 19 -112 39 -227 43 -256 8 -56 21
-72 59 -72 30 0 37 21 24 73 -13 51 -6 87 17 87 9 0 52 -38 96 -86 79 -85 80
-86 124 -82 l44 3 -39 41 c-22 22 -69 73 -106 113 l-68 72 60 70 c33 39 58 74
55 80 -4 5 -24 9 -45 9 -35 0 -44 -6 -92 -60 -29 -33 -58 -60 -65 -60 -16 0
-29 53 -44 170 -6 52 -15 103 -20 113 -12 22 -79 24 -79 2z"/>
<path d="M2727 5819 c-40 -31 -50 -54 -31 -73 23 -24 61 -20 79 8 22 33 68 40
114 17 32 -17 61 -54 61 -80 0 -5 -42 -11 -92 -13 -99 -4 -129 -16 -147 -55
-52 -114 89 -224 235 -183 32 9 48 10 53 2 8 -13 57 -26 75 -19 12 5 12 11 0
45 -7 22 -20 85 -28 141 -20 129 -34 163 -87 198 -36 24 -54 28 -123 31 -70 2
-85 0 -109 -19z m238 -243 c9 -36 7 -40 -20 -62 -44 -35 -89 -32 -131 10 -40
40 -42 59 -11 81 16 11 40 15 87 13 l65 -3 10 -39z"/>
<path d="M3136 5813 c-9 -9 -7 -67 4 -137 6 -33 17 -103 25 -155 8 -52 21 -98
28 -103 6 -4 24 -8 40 -8 33 0 33 6 8 173 -21 138 -18 145 54 155 42 7 50 11
47 27 -7 41 -60 57 -116 36 -13 -6 -26 -6 -28 -2 -4 11 -53 22 -62 14z"/>
<path d="M3470 5772 c-42 -22 -80 -91 -80 -142 1 -78 63 -181 134 -221 48 -27
168 -37 206 -17 47 25 70 74 70 149 0 63 -3 72 -43 130 -32 47 -55 69 -92 88
-66 33 -148 39 -195 13z m185 -83 c67 -62 85 -153 43 -216 -20 -28 -29 -33
-63 -33 -56 0 -85 18 -122 74 -25 36 -33 59 -33 91 0 85 29 124 93 125 30 0
46 -8 82 -41z"/>
<path d="M4427 5609 c5 -40 3 -50 -8 -49 -67 10 -129 -33 -129 -89 0 -63 71
-135 148 -147 42 -7 42 -6 42 24 0 24 6 34 27 44 37 18 47 39 39 81 -7 36 -8
37 -52 37 -44 0 -45 -1 -40 -27 11 -57 11 -96 -1 -100 -6 -2 -28 10 -48 28
-44 39 -43 66 5 94 26 15 34 26 32 42 -3 20 1 22 35 20 33 -2 38 1 41 21 5 32
-34 72 -69 72 -28 0 -28 0 -22 -51z"/>
<path d="M5708 5409 c-39 -22 -11 -87 47 -109 34 -13 84 6 96 38 10 27 3 62
-15 74 -16 11 -108 9 -128 -3z"/>
<path d="M6118 5379 c-27 -15 -22 -56 9 -85 58 -53 154 -10 135 61 -8 29 -11
30 -68 32 -32 2 -67 -2 -76 -8z"/>
<path d="M6892 5461 c-17 -14 -22 -30 -22 -65 0 -60 19 -104 64 -150 31 -30
43 -36 81 -36 34 0 47 5 59 22 43 61 -3 197 -81 237 -33 17 -77 13 -101 -8z"/>
<path d="M2677 4829 c-52 -30 -59 -127 -16 -216 48 -99 199 -106 199 -9 0 52
-30 190 -43 198 -56 38 -104 48 -140 27z"/>
<path d="M4144 4753 c-12 -2 -30 -13 -40 -24 -16 -18 -17 -26 -5 -95 7 -42 17
-88 22 -102 19 -55 108 -89 159 -62 24 13 41 74 35 124 -7 50 -51 124 -89 147
-31 19 -41 20 -82 12z"/>
<path d="M1284 4906 c-12 -8 -27 -29 -34 -47 -18 -43 -6 -49 113 -49 97 0 98
0 92 23 -4 12 -20 35 -35 51 -34 35 -103 46 -136 22z"/>
<path d="M3163 4798 c-31 -15 -46 -60 -41 -126 7 -95 71 -162 156 -162 68 0
102 57 89 151 -14 103 -123 176 -204 137z"/>
<path d="M3633 4756 c-26 -22 -28 -30 -27 -90 1 -57 5 -72 31 -108 58 -80 133
-99 185 -47 30 29 31 33 25 94 -4 36 -13 78 -22 94 -39 77 -135 106 -192 57z"/>
<path d="M5190 4520 c-26 -26 -25 -42 6 -79 21 -26 33 -31 68 -31 59 0 86 22
86 70 0 48 -18 60 -89 60 -38 0 -56 -5 -71 -20z"/>
<path d="M5794 4646 c-16 -12 -19 -26 -18 -88 0 -63 4 -79 29 -116 47 -71 115
-92 164 -52 26 22 26 13 -3 153 -13 62 -32 104 -44 93 -2 -3 -14 1 -26 9 -26
19 -76 19 -102 1z"/>
<path d="M6262 4464 c-31 -22 -28 -57 9 -88 62 -52 147 -20 135 52 -3 19 -11
39 -18 44 -22 13 -102 9 -126 -8z"/>
<path d="M945 3902 c-16 -11 -35 -33 -42 -51 -10 -27 -9 -32 7 -41 10 -6 62
-10 114 -10 89 0 96 1 96 20 0 11 -16 38 -36 60 -30 33 -43 40 -73 40 -20 0
-49 -8 -66 -18z"/>
<path d="M1673 3873 c-18 -9 -34 -22 -37 -29 -3 -7 1 -58 9 -114 15 -117 32
-145 103 -161 84 -19 127 24 124 126 -2 77 -30 144 -70 167 -43 26 -92 30
-129 11z"/>
<path d="M2193 3859 c-38 -20 -56 -74 -50 -147 7 -72 36 -121 87 -147 34 -17
93 -20 121 -5 48 26 66 142 31 209 -37 73 -132 118 -189 90z"/>
<path d="M2706 3835 c-42 -22 -55 -44 -56 -95 0 -88 10 -119 57 -166 40 -39
49 -44 91 -44 37 0 53 6 74 25 35 32 42 61 33 130 -7 61 -46 119 -98 147 -40
21 -64 22 -101 3z"/>
<path d="M3420 3637 c-37 -18 -39 -62 -4 -98 58 -61 164 -26 164 55 0 17 -5
37 -12 44 -16 16 -116 15 -148 -1z"/>
<path d="M4292 3773 c-22 -9 -42 -61 -42 -110 1 -95 60 -177 137 -189 80 -12
120 40 108 140 -7 57 -52 129 -95 151 -28 15 -82 19 -108 8z"/>
<path d="M5217 3722 c-9 -10 -19 -32 -23 -49 -5 -28 -3 -31 26 -37 18 -3 62
-6 98 -6 l65 0 -7 33 c-9 47 -48 77 -100 77 -29 0 -48 -6 -59 -18z"/>
<path d="M3614 2776 c-17 -8 -34 -21 -37 -30 -9 -23 21 -206 37 -231 17 -25
74 -55 106 -55 87 0 118 125 60 240 -42 84 -94 107 -166 76z"/>
<path d="M443 2848 c-12 -6 -24 -21 -28 -35 -7 -29 3 -162 16 -216 12 -47 57
-77 116 -77 86 0 131 79 108 191 -13 67 -35 103 -78 129 -35 22 -98 25 -134 8z"/>
<path d="M1005 2658 c-54 -31 -57 -68 -11 -114 37 -37 67 -42 119 -21 41 18
57 37 64 79 8 52 -14 68 -90 68 -34 0 -71 -6 -82 -12z"/>
<path d="M2185 2794 c-19 -19 -35 -43 -35 -52 0 -34 21 -42 117 -42 78 0 95 3
100 17 15 38 -46 97 -110 106 -33 5 -42 2 -72 -29z"/>
<path d="M4546 2745 c-30 -28 -36 -79 -10 -89 9 -3 54 -6 100 -6 79 0 84 1 84
21 0 12 -17 39 -39 60 -48 48 -93 53 -135 14z"/>
<path d="M5007 2746 c-9 -7 -22 -27 -28 -45 -18 -51 -2 -61 102 -61 99 0 107
7 68 61 -37 52 -104 74 -142 45z"/>
<path d="M5458 2734 c-60 -32 -58 -168 3 -245 17 -22 39 -44 49 -49 32 -17 78
-11 107 14 l27 24 -13 78 c-20 122 -31 145 -76 171 -47 26 -60 27 -97 7z"/>
<path d="M6360 2553 c-28 -10 -50 -36 -50 -58 0 -30 50 -75 91 -81 69 -12 118
77 69 126 -20 20 -74 26 -110 13z"/>
<path d="M6768 2533 c-34 -22 -41 -38 -26 -66 30 -57 94 -74 142 -36 26 20 35
65 20 103 -9 22 -100 21 -136 -1z"/>
<path d="M7017 4425 c-26 -26 -21 -60 14 -89 63 -53 146 -17 132 57 -3 18 -8
34 -10 36 -2 3 -30 7 -61 9 -45 3 -62 0 -75 -13z"/>
</g>
</svg>
