<?xml version="1.0" standalone="no"?>
<!DOCTYPE svg PUBLIC "-//W3C//DTD SVG 20010904//EN"
 "http://www.w3.org/TR/2001/REC-SVG-20010904/DTD/svg10.dtd">
<svg version="1.0" xmlns="http://www.w3.org/2000/svg"
 width="720.000000pt" height="1280.000000pt" viewBox="0 0 720.000000 1280.000000"
 preserveAspectRatio="xMidYMid meet">
<metadata>
Created by potrace 1.16, written by Peter Selinger 2001-2019
</metadata>
<g transform="translate(0.000000,1280.000000) scale(0.100000,-0.100000)"
fill="#000000" stroke="none">
<path d="M0 6400 l0 -6400 3600 0 3600 0 0 6400 0 6400 -3600 0 -3600 0 0
-6400z m6796 3680 c151 -69 198 -267 95 -405 -25 -34 -27 -41 -14 -50 14 -10
14 -14 -1 -37 -26 -40 -88 -50 -140 -23 -24 13 -38 13 -90 3 -107 -20 -145
-17 -172 17 -21 27 -21 30 -6 41 16 11 15 14 -5 36 -56 60 -79 178 -51 269 23
77 102 146 195 169 50 12 138 3 189 -20z m-653 4 c29 -10 64 -34 92 -62 124
-125 89 -333 -68 -412 -134 -67 -310 -20 -371 98 -46 89 -41 199 13 284 41 65
129 108 221 108 36 0 87 -7 113 -16z m-5834 -111 c15 -56 71 -300 71 -307 0
-3 -16 -6 -35 -6 -30 0 -35 3 -35 24 0 34 -23 49 -64 42 -27 -5 -35 -12 -40
-36 -5 -26 -10 -30 -40 -30 l-34 0 14 58 c7 31 25 110 40 175 l28 117 42 0
c41 0 44 -2 53 -37z m403 -55 l3 -93 25 37 c20 31 31 38 58 38 17 0 32 -3 32
-6 0 -4 -16 -28 -35 -53 -30 -41 -33 -50 -21 -67 7 -10 25 -40 40 -66 l27 -48
-35 0 c-30 0 -38 5 -57 40 -26 45 -39 43 -39 -6 0 -31 -2 -34 -30 -34 l-30 0
0 175 0 175 30 0 29 0 3 -92z m1738 -83 l0 -176 -42 1 c-24 1 -55 -1 -69 -5
-19 -5 -33 -1 -55 18 -28 24 -29 29 -29 106 1 69 4 85 22 102 22 22 54 28 91
15 21 -7 22 -5 22 53 l0 61 30 0 30 0 0 -175z m452 83 l3 -92 25 37 c20 30 31
37 58 37 30 0 42 -12 24 -24 -5 -3 -21 -23 -36 -44 l-27 -40 40 -66 41 -66
-35 0 c-30 0 -39 6 -62 43 l-28 42 -3 -42 c-3 -42 -4 -43 -38 -43 l-34 0 0
175 0 175 35 0 34 0 3 -92z m728 27 l0 -66 30 16 c33 17 60 13 85 -11 11 -12
15 -40 15 -120 l0 -104 -30 0 -30 0 0 90 c0 75 -3 92 -16 97 -37 14 -49 -10
-52 -101 l-3 -86 -29 0 -30 0 0 175 0 175 30 0 30 0 0 -65z m530 4 c0 -58 1
-60 23 -53 76 26 107 -8 107 -118 0 -71 -2 -81 -26 -105 -20 -20 -31 -24 -52
-18 -15 4 -46 6 -69 5 l-43 -1 0 176 0 175 30 0 30 0 0 -61z m-1480 -9 c0 -38
2 -40 30 -40 25 0 30 -4 30 -25 0 -21 -5 -25 -30 -25 l-31 0 3 -67 c3 -66 4
-68 31 -71 21 -3 27 -8 23 -19 -3 -8 -6 -19 -6 -24 0 -16 -73 -10 -92 8 -14
13 -18 31 -18 90 0 66 -2 75 -20 80 -13 3 -20 14 -20 29 0 17 6 24 20 24 17 0
20 7 20 40 0 38 2 40 30 40 28 0 30 -2 30 -40z m-2096 -61 c24 -23 34 -121 17
-172 -15 -44 -59 -66 -97 -48 -14 6 -27 11 -29 11 -3 0 -5 -30 -5 -66 l0 -65
-27 3 -28 3 -3 179 -2 179 37 -5 c21 -3 47 -2 58 3 26 10 55 2 79 -22z m405
20 c17 -6 36 -19 41 -29 6 -10 10 -62 10 -115 l0 -97 -32 3 c-18 1 -48 -1 -66
-5 -50 -12 -82 13 -82 64 0 44 20 64 83 81 28 7 37 15 35 27 -5 26 -48 28 -55
3 -4 -14 -13 -21 -29 -21 -65 0 -15 96 52 99 6 1 25 -4 43 -10z m290 0 c38
-14 51 -35 51 -88 l0 -41 -61 0 c-60 0 -60 0 -57 -27 3 -32 44 -46 54 -19 4
10 18 16 35 16 35 0 39 -25 10 -61 -27 -34 -99 -34 -135 0 -23 22 -26 32 -26
96 0 79 20 120 63 128 12 2 25 5 28 6 3 0 20 -4 38 -10z m198 0 c32 -12 43
-26 43 -56 0 -31 -45 -33 -53 -2 -7 24 -40 23 -45 -2 -2 -10 9 -21 30 -29 75
-30 98 -83 59 -131 -40 -50 -151 -22 -151 38 0 18 5 23 26 23 18 0 28 -6 31
-21 7 -26 48 -23 48 4 0 12 -16 26 -45 40 -89 43 -75 132 22 146 4 1 19 -4 35
-10z m197 -3 c31 -13 53 -55 38 -71 -14 -14 -50 -3 -55 16 -4 13 -12 20 -24
17 -29 -5 -21 -32 15 -50 73 -36 92 -81 53 -129 -15 -19 -29 -24 -66 -24 -37
0 -51 5 -66 24 -29 36 -25 61 10 61 21 0 30 -6 34 -21 7 -25 40 -22 45 3 2 12
-11 24 -43 39 -74 35 -85 107 -21 135 39 17 40 17 80 0z m205 3 c17 -6 36 -19
41 -29 6 -10 10 -62 10 -115 l0 -97 -32 3 c-18 1 -48 -1 -66 -5 -50 -12 -82
13 -82 64 0 44 20 64 83 81 28 7 37 15 35 27 -5 25 -45 27 -58 3 -14 -27 -60
-29 -60 -3 0 36 46 79 86 81 6 1 25 -4 43 -10z m318 -21 c17 -16 23 -33 23
-65 l0 -43 -61 0 c-60 0 -60 0 -57 -27 3 -32 44 -46 54 -19 8 20 64 22 64 2 0
-69 -102 -98 -158 -45 -19 17 -22 31 -22 98 0 68 3 80 23 98 12 11 29 23 37
26 25 10 73 -2 97 -25z m1001 -4 c18 -21 22 -36 22 -98 0 -65 -3 -75 -26 -97
-35 -33 -104 -34 -136 -2 -27 28 -37 127 -17 174 24 60 111 73 157 23z m240 8
c8 -10 12 -52 12 -119 l0 -103 -30 0 -30 0 0 90 c0 75 -3 92 -17 97 -32 12
-53 -32 -53 -113 l0 -74 -30 0 -30 0 0 120 0 120 29 0 c16 0 31 -5 33 -11 2
-6 14 -5 33 5 33 17 63 13 83 -12z m529 -4 c17 -16 23 -33 23 -65 l0 -43 -61
0 c-60 0 -60 0 -57 -27 3 -32 44 -46 54 -19 4 10 18 16 35 16 22 0 29 -5 29
-20 0 -42 -64 -79 -115 -66 -52 13 -65 39 -65 124 0 69 3 81 23 99 12 11 29
23 37 26 25 10 73 -2 97 -25z m540 8 c7 -6 14 -56 17 -118 l6 -108 -35 0 -35
0 0 90 c0 72 -3 92 -15 96 -33 13 -45 -15 -45 -102 l0 -84 -35 0 -35 0 0 120
0 120 35 0 c19 0 35 -4 35 -9 0 -6 12 -3 28 4 28 15 58 12 79 -9z m218 -7 c17
-16 21 -36 23 -120 l4 -100 -44 1 c-23 1 -54 -1 -68 -5 -35 -9 -80 27 -80 64
0 39 19 60 70 75 33 10 46 19 48 35 4 28 -33 29 -50 1 -12 -19 -48 -27 -60
-14 -15 14 11 60 43 77 40 21 85 16 114 -14z m394 20 c36 -13 61 -53 61 -99
l0 -30 -59 0 c-65 0 -73 -5 -64 -38 6 -26 53 -32 53 -7 0 11 11 15 36 15 32 0
35 -2 29 -22 -4 -13 -18 -34 -33 -47 -21 -19 -33 -22 -65 -18 -59 8 -80 35
-85 107 -5 75 11 118 52 136 38 16 36 16 75 3z m204 -3 c15 -8 27 -11 27 -5 0
5 14 9 31 9 l30 0 -3 -155 c-3 -145 -4 -156 -26 -177 -17 -18 -34 -23 -73 -23
-43 0 -54 4 -75 29 -14 15 -24 36 -22 45 5 25 45 26 60 2 27 -43 78 -16 78 40
0 18 -3 20 -12 11 -7 -7 -29 -12 -49 -12 -55 0 -79 34 -79 114 0 85 8 106 44
122 39 17 36 17 69 0z m285 -22 c19 -22 22 -36 22 -120 l0 -95 -42 1 c-24 1
-55 -1 -70 -5 -21 -6 -32 -2 -52 18 -48 48 -29 99 44 121 33 10 46 19 48 35 4
28 -33 29 -50 1 -7 -11 -23 -20 -36 -20 -20 0 -23 4 -20 33 6 65 108 86 156
31z m-3048 -94 l0 -120 -35 0 -35 0 0 113 c0 63 3 117 7 120 3 4 19 7 35 7
l28 0 0 -120z m2280 63 c19 -90 25 -92 45 -14 18 69 20 71 51 71 l32 0 -24
-82 c-79 -281 -76 -273 -113 -276 -28 -3 -33 -1 -27 14 28 74 28 99 -3 207
-18 59 -34 113 -37 122 -5 12 2 15 28 15 34 0 35 -1 48 -57z m-62 -2119 l2
-1002 -120 -7 c-65 -4 -154 -4 -197 0 -93 8 -131 -3 -129 -37 1 -23 2 -23 144
-26 107 -2 142 -6 142 -15 0 -10 -17 -12 -63 -9 -50 3 -72 0 -103 -16 -132
-68 -204 -253 -159 -408 34 -120 152 -187 261 -150 26 9 51 16 56 16 4 0 8
-252 8 -560 l0 -560 65 0 66 0 -7 34 c-3 19 -1 43 5 53 10 17 11 17 17 -4 5
-19 13 -23 45 -23 28 0 42 -6 51 -20 7 -11 21 -20 31 -20 13 0 16 -5 11 -24
-4 -17 0 -27 13 -35 16 -9 16 -12 3 -21 -12 -8 -10 -10 10 -10 54 -1 70 -11
70 -44 0 -21 -3 -27 -9 -17 -8 13 -92 34 -101 25 -2 -3 2 -14 9 -25 7 -12 10
-23 7 -27 -3 -3 12 -13 34 -23 22 -10 40 -25 40 -34 0 -8 9 -15 19 -15 25 0
34 -14 26 -40 -5 -17 -15 -20 -66 -20 -49 0 -59 3 -59 18 -1 16 -1 16 -14 0
-9 -12 -33 -20 -75 -24 l-61 -6 0 146 0 146 -64 0 c-40 0 -66 -4 -68 -12 -4
-11 -22 35 -88 222 l-27 75 -108 0 -109 0 -17 -45 c-10 -25 -54 -144 -99 -265
-44 -121 -85 -230 -90 -242 -9 -21 -17 -23 -75 -23 -36 0 -65 2 -65 4 0 2 15
19 34 38 19 19 39 52 45 73 6 23 11 129 11 253 l0 212 -90 0 -90 0 0 -198 c0
-208 -6 -238 -45 -231 -18 4 -29 18 -39 52 -6 19 -64 22 -141 9 -39 -7 -40 -9
-37 -42 6 -55 30 -102 70 -137 l37 -32 -147 -1 c-137 0 -180 8 -128 25 29 9
85 79 98 124 7 23 12 115 12 235 l0 196 -90 0 -90 0 0 -184 c0 -170 -1 -185
-21 -210 -27 -34 -86 -37 -115 -5 -17 19 -19 41 -22 210 l-4 189 -89 0 -89 0
0 -194 c0 -238 9 -275 83 -342 l49 -44 -111 0 -111 0 0 -32 c0 -43 8 -54 50
-72 33 -14 34 -16 13 -22 -13 -3 -23 -12 -23 -19 0 -7 -5 -15 -12 -17 -8 -3
-6 -12 8 -30 15 -21 25 -25 49 -21 29 4 29 4 11 -11 -21 -17 -46 -21 -46 -8 0
12 -41 54 -47 49 -2 -3 3 -17 12 -31 19 -29 14 -56 -10 -56 -9 0 -13 4 -10 10
3 5 -1 22 -9 37 -14 28 -14 28 -14 -19 1 -46 2 -48 30 -48 15 0 28 4 28 8 0 5
28 22 63 37 34 16 65 30 68 32 6 4 3 -32 -7 -85 -5 -24 -2 -38 11 -52 20 -22
19 -25 -11 -34 -17 -5 -32 3 -64 34 -32 31 -45 38 -55 30 -9 -8 -15 -8 -20 0
-12 20 -25 -1 -14 -22 8 -15 8 -27 0 -45 -24 -52 -12 -100 23 -94 5 1 5 -6 1
-16 -34 -80 -37 -98 -25 -152 13 -56 54 -111 84 -111 27 0 28 20 1 30 -48 18
-80 123 -54 173 15 28 28 37 58 37 30 0 91 21 91 32 0 4 -7 5 -15 2 -27 -11
-16 6 13 18 21 9 23 12 10 15 -10 3 -18 9 -18 14 0 15 -84 10 -108 -7 -22 -15
-24 -15 -37 2 -17 23 -17 25 -6 43 8 12 14 13 36 3 38 -18 105 -15 127 5 14
13 21 14 30 5 20 -20 25 -14 22 26 -2 20 -3 41 -3 46 -1 4 -10 -2 -22 -15
l-21 -24 21 32 c25 37 25 40 5 99 -11 33 -13 49 -5 57 6 6 11 30 11 53 l0 43
88 3 c48 2 99 2 115 0 26 -3 26 -4 12 -25 -18 -26 -19 -37 -2 -37 6 0 21 14
32 30 25 37 65 42 65 8 0 -15 -19 -40 -52 -70 -28 -27 -53 -48 -55 -48 -3 0
-2 8 2 19 4 12 0 21 -11 25 -9 4 -18 5 -18 4 -1 -2 -19 -31 -39 -65 -33 -55
-37 -68 -37 -130 0 -37 5 -105 11 -150 14 -100 8 -113 -57 -113 -35 0 -47 -5
-60 -25 -18 -28 -35 -25 -27 5 6 22 -7 26 -25 8 -8 -8 -14 -4 -22 18 -28 78
-44 91 -60 49 -17 -46 35 -134 62 -107 19 19 27 14 25 -15 -1 -21 2 -27 14
-25 18 3 18 -25 0 -98 -6 -25 -11 -68 -11 -97 0 -48 -2 -52 -37 -73 -22 -13
-39 -17 -42 -11 -7 11 -121 -36 -134 -55 -4 -7 -22 -16 -40 -19 -17 -4 -43
-15 -57 -25 -14 -10 -57 -27 -96 -39 -39 -12 -83 -30 -97 -41 -31 -24 -36 -25
-52 -4 -6 10 -27 17 -48 18 -22 0 -37 6 -37 14 0 8 -18 13 -52 14 l-53 1 50 6
c48 6 50 7 49 35 -1 17 7 45 18 64 11 19 15 38 10 41 -18 12 -35 98 -23 119 7
14 8 23 1 27 -9 5 -13 185 -4 185 2 0 15 -11 30 -25 15 -14 36 -25 48 -24 21
0 21 0 1 9 -11 4 -33 22 -49 39 l-29 30 1 133 c0 73 1 140 2 148 1 8 -1 36 -5
63 -10 59 3 61 77 13 48 -30 56 -32 85 -22 18 6 40 20 50 31 18 19 18 19 -3 2
-21 -18 -90 -24 -79 -8 3 5 0 13 -6 17 -7 4 -9 3 -5 -4 13 -22 -13 -21 -47 2
-19 13 -43 26 -54 28 -15 3 -18 15 -21 79 l-3 76 70 0 c60 1 71 -2 76 -18 8
-24 27 -25 23 -1 -3 18 -13 17 210 21 l92 1 0 30 0 30 -125 0 -125 0 0 89 0
88 84 5 c70 4 91 9 125 31 60 40 84 94 79 181 -6 128 -66 176 -228 186 l-95 5
0 395 0 395 32 3 32 3 3 -118 3 -118 38 -3 37 -3 0 114 0 114 50 7 c44 6 50 9
50 31 0 24 0 24 -122 27 l-123 3 -3 133 -3 132 -72 2 -72 2 72 3 72 4 3 142 3
142 143 3 142 3 0 28 c0 35 -13 41 -86 41 l-54 0 2 523 3 522 -45 6 -45 6 48
1 48 2 -7 466 c-6 395 -5 467 7 475 8 4 455 7 1004 6 l990 -2 3 -1001z m-2138
526 l0 -470 23 -1 22 -2 -22 -4 -23 -4 0 -525 0 -524 -567 -2 c-313 -2 -763
-2 -1000 0 l-433 2 0 161 0 161 46 -41 c45 -39 50 -41 112 -41 54 0 71 4 99
26 39 29 73 91 73 131 0 66 -20 98 -125 205 -58 60 -105 110 -105 112 0 2 24
22 54 45 116 87 206 261 206 396 0 202 -114 394 -287 483 l-73 37 0 163 0 162
1000 0 1000 0 0 -470z m2836 460 c22 0 22 0 -7 -77 -15 -42 -30 -88 -33 -102
-2 -14 -8 -41 -11 -58 -9 -42 8 -44 62 -7 21 14 50 28 66 31 18 4 27 12 27 24
0 22 33 41 63 37 32 -4 27 -31 -9 -43 -16 -5 -42 -18 -57 -27 -14 -10 -30 -18
-36 -18 -5 0 -12 -7 -15 -16 -5 -14 -1 -16 24 -11 16 4 30 3 30 -1 -1 -27 -32
-88 -60 -117 l-33 -34 29 -25 c23 -20 25 -25 11 -26 -9 0 -26 6 -37 12 -15 10
-22 10 -32 0 -9 -9 -6 -12 15 -12 15 0 27 -4 27 -10 0 -5 -32 -44 -71 -85 -39
-41 -68 -78 -65 -83 3 -5 -3 -16 -12 -25 -32 -30 -43 -47 -32 -47 7 0 -3 -18
-20 -40 -54 -68 -62 -160 -23 -255 20 -49 101 -175 113 -175 4 0 11 -7 14 -16
3 -9 -13 -2 -40 18 -26 18 -49 39 -51 45 -3 7 -9 11 -13 8 -5 -3 -11 8 -15 25
-4 16 -11 30 -17 30 -6 0 -8 3 -5 7 4 3 3 11 -2 17 -12 16 -31 110 -31 158 0
34 -2 39 -15 28 -8 -6 -20 -27 -27 -46 -6 -19 -16 -34 -20 -34 -11 0 -10 37 1
44 4 3 11 19 14 35 3 15 20 49 37 74 16 25 30 48 30 51 0 4 10 20 22 37 12 16
23 42 23 57 0 15 11 42 23 59 12 17 22 43 22 58 0 14 4 24 9 21 8 -6 22 38 38
116 5 27 5 27 -33 16 -22 -5 -47 -19 -57 -29 -17 -18 -37 -25 -37 -13 0 14 46
72 84 106 l41 36 -13 46 c-6 26 -12 58 -12 72 0 15 -5 44 -11 64 -7 22 -9 54
-5 75 l7 38 52 -7 c29 -3 62 -6 73 -6z m1409 2 c12 -9 20 -122 10 -153 -6 -17
-9 -19 -16 -8 -7 11 -9 10 -9 -3 0 -10 -7 -18 -15 -18 -17 0 -135 116 -135
132 0 5 -7 16 -15 24 -8 9 -15 20 -15 25 0 11 180 12 195 1z m-1759 -34 c-1
-18 -4 -38 -8 -43 -4 -6 -2 -46 4 -89 9 -60 9 -80 -1 -85 -20 -12 -24 -74 -8
-112 18 -44 11 -176 -10 -197 -8 -8 -16 -12 -19 -9 -3 3 -7 99 -10 214 -2 114
-6 241 -9 281 l-6 72 34 0 c32 0 34 -2 33 -32z m1254 -79 c0 -11 11 -30 25
-43 14 -13 27 -39 31 -63 6 -40 5 -41 -30 -54 -20 -7 -36 -17 -36 -21 0 -4 -7
-8 -15 -8 -9 0 -21 -12 -27 -27 -7 -16 -25 -41 -40 -57 -28 -30 -39 -88 -19
-100 5 -3 14 -30 21 -58 7 -29 19 -64 28 -78 9 -14 17 -29 17 -35 0 -5 4 -25
9 -43 10 -41 -1 -55 -56 -72 -24 -7 -53 -24 -65 -37 -15 -17 -43 -29 -90 -39
-88 -18 -128 -18 -159 2 -13 9 -39 20 -57 23 -27 6 -37 17 -69 80 -27 51 -38
85 -38 116 0 44 17 95 31 95 4 0 10 14 14 30 6 27 10 30 47 30 l40 0 -22 18
c-22 18 -22 19 -4 37 19 18 19 18 22 -3 2 -12 7 -22 12 -22 5 0 10 -10 12 -22
2 -16 14 -26 38 -34 23 -8 37 -19 40 -35 6 -23 30 -40 30 -20 0 6 6 11 14 11
8 0 16 7 20 15 3 8 11 14 18 13 9 -2 14 14 16 54 3 51 0 61 -22 83 -33 32
-113 35 -171 5 -73 -37 -66 14 8 60 20 12 41 16 72 12 50 -5 115 5 115 18 0 5
-16 14 -35 20 -40 13 -43 20 -15 45 27 24 138 34 151 14 7 -11 9 -11 9 3 0 9
6 23 14 30 7 8 21 29 30 46 9 18 20 31 24 29 4 -3 16 -1 27 3 26 10 35 4 35
-21z m-1259 -696 c0 -32 3 -87 6 -123 3 -36 6 -76 5 -90 -2 -64 -1 -93 3 -202
4 -109 3 -117 -13 -107 -22 14 -25 31 -23 151 1 54 -3 133 -8 177 -13 101 -4
251 15 251 10 0 14 -16 15 -57z m951 -110 c12 -11 21 -12 37 -4 27 15 67 4 89
-23 9 -11 30 -26 47 -31 31 -11 48 -45 22 -45 -21 0 -10 -41 15 -58 48 -34
-15 -92 -100 -92 -50 0 -110 22 -118 44 -3 9 -31 23 -61 33 -60 19 -104 60
-102 96 0 14 3 17 6 8 3 -8 19 -26 36 -40 16 -13 35 -31 42 -38 23 -22 36 -16
23 12 -6 14 -15 25 -19 25 -5 0 -13 9 -19 20 -14 26 8 63 33 56 9 -2 15 0 12
4 -3 5 0 12 6 15 5 4 8 13 5 20 -11 29 11 28 46 -2z m-1033 -690 c78 6 76 8
80 -65 2 -36 -3 -55 -19 -78 -12 -17 -19 -34 -15 -38 4 -4 10 -2 12 5 2 7 11
9 19 6 9 -3 11 -8 6 -12 -6 -3 -12 -13 -14 -20 -2 -11 7 -14 40 -12 38 2 42 0
42 -20 0 -21 1 -21 18 -6 10 10 25 17 32 17 15 0 70 -59 70 -75 0 -5 5 -3 10
5 5 8 10 10 10 4 0 -6 15 -28 34 -48 26 -26 43 -36 66 -36 18 0 29 4 25 10 -3
6 0 10 7 10 9 0 10 2 1 8 -6 4 -15 20 -19 36 -5 21 -4 27 5 22 6 -4 11 -14 11
-22 0 -11 4 -12 19 -4 11 5 40 10 65 10 25 0 48 5 51 10 3 6 -3 10 -15 10 -45
0 -90 36 -90 72 0 20 71 -1 98 -29 15 -15 44 -42 64 -60 21 -17 40 -43 44 -57
l6 -26 -181 0 c-168 0 -182 1 -201 20 -11 11 -20 32 -20 46 0 16 -4 23 -11 18
-6 -3 -9 -23 -7 -44 l3 -38 -101 -7 c-109 -8 -268 -4 -279 6 -4 5 -7 268 -3
354 0 6 -1 15 -2 20 -1 6 -2 26 -1 45 l1 35 35 -39 34 -39 70 6z m1434 -87 c9
-7 17 -18 17 -25 0 -6 18 -11 44 -11 76 0 136 -12 136 -26 0 -8 5 -14 11 -14
7 0 9 -19 6 -56 -4 -44 -10 -62 -30 -80 -15 -13 -34 -24 -43 -24 -20 0 -72 41
-151 120 -35 34 -66 59 -71 57 -4 -3 -9 5 -10 17 -1 17 7 27 31 38 41 20 39
20 60 4z m-768 -428 c51 -16 87 -42 83 -59 -2 -7 6 -15 17 -17 31 -6 43 -21
38 -42 -3 -12 0 -20 6 -20 7 0 11 8 9 17 -5 31 26 25 41 -8 11 -25 11 -36 2
-50 -16 -27 -14 -69 4 -69 15 0 20 -12 9 -23 -3 -3 -7 -26 -9 -52 -2 -35 1
-48 15 -55 17 -9 34 -97 31 -162 -1 -19 4 -28 14 -28 21 0 19 -17 -3 -22 -14
-4 -19 -16 -20 -49 -3 -43 -1 -45 35 -59 45 -17 84 -20 76 -6 -4 5 1 7 11 3
10 -4 32 -7 49 -7 l32 -1 -30 -14 c-27 -12 -28 -13 -7 -14 12 -1 22 -7 22 -15
0 -10 -19 -16 -62 -21 -35 -4 -69 -12 -75 -17 -7 -6 -26 -8 -43 -6 -26 4 -30
1 -30 -18 0 -13 -8 -25 -19 -29 -14 -4 -18 -15 -18 -52 0 -29 -5 -49 -13 -51
-9 -3 -9 -6 1 -13 12 -8 12 -11 0 -18 -12 -8 -9 -11 12 -16 15 -4 33 -15 40
-24 6 -9 21 -17 32 -19 71 -10 95 -16 95 -23 0 -5 -9 -9 -20 -9 -29 0 -25 -15
5 -16 14 -1 25 2 25 6 0 5 19 8 43 8 23 -1 34 -3 25 -6 -10 -2 -18 -7 -18 -12
0 -5 -12 -13 -27 -18 -28 -10 -27 -10 10 -11 20 -1 37 -6 37 -11 0 -6 8 -5 20
2 13 8 19 22 18 38 -2 19 2 25 17 25 17 0 20 6 18 35 -3 33 -2 34 12 15 12
-15 18 -17 24 -7 9 15 41 5 41 -13 0 -19 14 -26 56 -30 20 -2 41 -8 47 -14 14
-14 54 -14 62 -1 3 5 17 -2 30 -18 l24 -27 -25 -8 c-13 -5 -24 -15 -24 -22 0
-8 -5 -17 -11 -21 -8 -5 -10 0 -6 17 7 28 -6 58 -18 40 -5 -9 -10 -9 -20 -1
-9 8 -17 7 -28 -5 -20 -19 -31 -19 -23 1 4 10 2 14 -6 10 -7 -3 -21 -9 -30
-12 -22 -8 -23 -18 -2 -39 21 -20 12 -30 -14 -16 -15 8 -19 19 -16 46 2 29 -1
35 -13 31 -8 -3 -24 -6 -35 -6 -18 0 -20 -4 -14 -40 8 -49 -11 -62 -54 -37
-15 9 -30 14 -33 10 -4 -3 -13 0 -22 7 -12 10 -16 8 -24 -11 -5 -14 -5 -34 0
-47 12 -31 12 -32 -7 -32 -8 0 -12 5 -9 10 8 13 2 13 -30 -2 -14 -6 -25 -17
-25 -25 0 -7 -7 -13 -17 -13 -15 0 -15 1 1 19 15 16 15 19 1 31 -8 7 -15 8
-15 2 0 -5 -10 -12 -22 -16 -18 -4 -20 -8 -10 -18 21 -21 14 -38 -15 -38 -25
1 -26 2 -11 14 18 14 14 26 -9 26 -7 0 -13 -7 -13 -15 0 -8 -9 -15 -20 -15
-23 0 -27 -28 -5 -36 8 -4 21 -1 29 5 10 9 19 7 36 -7 l22 -18 -21 -24 c-16
-20 -20 -21 -21 -8 0 18 -30 32 -72 33 -20 0 -26 -4 -24 -20 1 -12 6 -26 10
-33 5 -8 2 -10 -9 -6 -15 6 -36 41 -41 69 -1 6 -3 15 -4 20 -1 6 -5 1 -9 -10
-5 -13 -3 -24 7 -31 12 -9 12 -12 -2 -26 -9 -9 -16 -21 -16 -27 0 -15 27 -14
34 2 3 6 3 2 1 -10 -7 -27 8 -37 35 -23 16 8 25 7 42 -5 13 -9 17 -15 9 -15
-11 0 -10 -4 3 -19 13 -15 14 -20 4 -24 -9 -3 -6 -12 12 -29 42 -42 86 -92 93
-108 4 -8 12 -22 19 -31 15 -21 4 -49 -22 -56 -11 -3 -20 -10 -20 -15 0 -6 7
-8 15 -4 9 3 15 0 15 -8 0 -22 -58 -38 -160 -43 l-95 -5 1 55 c0 37 5 60 17
72 20 19 21 38 6 67 -6 11 -9 21 -7 23 2 3 26 -2 53 -10 26 -8 50 -13 53 -10
3 2 -25 33 -62 67 l-66 63 11 185 11 185 -28 52 c-15 29 -31 50 -35 48 -4 -3
-15 7 -24 22 -14 21 -14 25 -3 20 11 -4 14 1 10 21 -3 15 -11 33 -19 40 -7 7
-13 20 -13 29 0 15 24 15 90 -2 42 -11 76 25 91 93 7 31 14 59 16 62 8 9 23
-26 23 -53 0 -17 4 -26 10 -22 6 4 10 39 9 83 -1 80 21 219 34 206 10 -10 9
10 -1 22 -17 18 -52 120 -67 193 -24 115 -47 146 -153 209 -42 24 -57 27 -133
27 -89 -1 -139 -18 -139 -49 0 -8 -7 -16 -15 -19 -14 -6 -55 -77 -55 -98 0 -6
-11 -24 -24 -39 -27 -33 -35 -77 -39 -210 -3 -100 -17 -142 -56 -170 -12 -8
-21 -19 -21 -25 0 -5 -11 -23 -25 -39 -34 -40 -34 -96 0 -122 33 -25 32 -39
-5 -61 -28 -16 -43 -39 -39 -59 5 -30 -2 -56 -15 -51 -10 4 -11 -3 -5 -37 4
-23 9 -69 10 -101 2 -41 10 -69 24 -89 13 -19 16 -30 9 -33 -7 -2 -10 -13 -7
-24 6 -22 -13 -49 -34 -49 -12 0 -13 11 -8 58 4 36 3 52 -3 44 -7 -11 -11 -10
-16 4 -6 15 -9 16 -16 5 -4 -8 -15 -11 -25 -8 -9 4 -13 11 -10 17 3 5 0 10 -8
10 -16 0 -30 -27 -22 -40 3 -5 0 -12 -6 -16 -6 -4 -16 1 -21 10 -5 9 -17 16
-27 16 -10 0 -26 9 -35 19 -17 19 -17 21 18 51 20 18 36 39 36 47 0 8 5 11 10
8 12 -8 13 28 1 40 -5 6 3 34 20 69 40 82 39 89 -16 80 -28 -4 -45 -2 -45 4 0
16 26 33 42 27 9 -4 23 1 32 10 9 10 25 15 36 12 11 -3 20 -1 20 4 0 5 5 9 10
9 6 0 10 -7 10 -15 0 -8 5 -15 10 -15 6 0 10 12 10 26 0 18 -4 24 -13 21 -8
-3 -20 -1 -28 3 -7 5 -18 5 -25 -1 -7 -6 -15 -4 -23 5 -10 11 -19 12 -42 4
-16 -5 -29 -15 -29 -21 0 -23 -30 -43 -60 -39 -33 5 -27 14 25 44 23 13 32 27
39 63 9 41 12 46 32 41 13 -4 26 -2 29 4 10 16 55 12 49 -4 -3 -8 -1 -17 5
-20 6 -4 7 -14 4 -22 -4 -12 -1 -15 13 -12 17 3 19 12 15 104 l-3 101 28 20
c16 12 31 20 34 20 3 0 13 4 24 10 30 17 1 26 -39 12 -35 -13 -52 -9 -40 10 3
6 30 11 58 12 29 0 45 3 37 6 -8 3 -23 14 -33 24 -17 18 -17 19 5 19 31 1 68
60 70 111 1 21 4 39 7 39 8 0 41 76 41 95 0 16 15 36 63 84 18 18 25 33 21 45
-3 9 -3 16 2 15 21 -4 34 2 34 14 0 7 16 19 36 26 19 7 37 18 40 24 6 17 150
20 199 5z m-1119 -121 c17 -15 29 -38 33 -63 l6 -39 60 -6 60 -6 -62 -1 -63
-2 0 -61 c0 -54 -3 -64 -29 -90 -64 -64 -156 -23 -181 80 -20 83 6 176 54 200
38 18 93 13 122 -12z m1160 -79 c12 -15 25 -41 29 -58 6 -26 2 -34 -19 -51
-35 -27 -33 -46 10 -90 31 -32 35 -42 29 -66 -6 -24 -8 -25 -16 -10 -7 12 -22
17 -49 17 -43 0 -54 -14 -19 -23 32 -8 13 -27 -29 -29 l-37 -1 35 -4 c38 -5
67 -23 36 -23 -28 0 -13 -25 17 -28 31 -4 33 -9 10 -34 -28 -31 -90 -23 -182
22 -45 22 -84 47 -87 55 -4 8 -10 13 -14 10 -5 -3 -6 3 -3 14 3 10 0 22 -6 25
-6 4 -11 0 -11 -8 0 -9 -5 -16 -11 -16 -5 0 -8 4 -5 9 3 5 -4 21 -15 35 -12
15 -20 28 -18 30 2 1 18 12 35 24 18 12 34 34 37 49 8 40 57 99 93 112 17 6
55 35 85 64 l54 53 14 -26 c8 -14 24 -37 37 -52z m-3606 -743 l0 -525 -160 0
-160 0 1 525 1 525 159 0 159 0 0 -525z m-1233 360 c53 -61 16 -153 -62 -153
-53 0 -85 33 -85 88 0 86 94 127 147 65z m111 18 c5 -10 16 -42 23 -72 l14
-55 20 70 c17 55 26 70 43 72 29 4 28 -10 -4 -108 -26 -78 -27 -80 -57 -77
-29 2 -33 7 -59 82 -16 44 -26 85 -24 92 8 19 34 16 44 -4z m298 -12 c18 -18
24 -33 22 -55 -3 -30 -4 -31 -53 -31 -43 0 -50 3 -50 20 0 16 6 19 28 17 23
-3 28 0 25 15 -5 24 -39 29 -55 7 -18 -24 -17 -69 2 -84 9 -7 27 -10 45 -7 16
4 32 2 35 -4 12 -18 -17 -39 -54 -39 -42 0 -77 26 -87 65 -8 32 12 91 37 109
29 20 77 14 105 -13z m4034 -110 c0 -6 -5 -13 -10 -16 -14 -9 7 -45 26 -45 8
0 12 -4 9 -10 -10 -16 15 -12 31 5 9 8 23 15 33 15 23 0 61 -36 61 -58 0 -11
-3 -13 -8 -6 -4 6 -25 14 -46 18 -35 7 -38 6 -27 -7 8 -10 9 -17 1 -22 -5 -3
-10 -19 -10 -35 0 -39 -34 -59 -59 -36 -26 24 -38 20 -81 -24 -59 -60 -80 -53
-35 12 15 23 20 38 13 40 -6 2 9 10 33 17 31 9 44 10 47 2 5 -14 72 -15 72 -1
0 6 -8 10 -17 8 -13 -2 -17 3 -15 19 4 30 -11 36 -36 13 -29 -27 -66 -27 -59
0 3 11 1 20 -4 20 -5 0 -9 -7 -9 -16 0 -9 -6 -14 -12 -11 -7 2 -18 -3 -25 -12
-9 -12 -12 -13 -13 -2 0 18 76 113 103 128 27 15 37 16 37 4z m-4633 -256 c17
-48 23 -56 28 -40 25 68 46 105 59 105 27 0 26 -16 -14 -119 -50 -132 -63
-151 -100 -151 -34 0 -43 29 -11 37 10 2 24 16 30 30 10 21 7 34 -18 88 -17
35 -33 75 -37 90 -6 24 -4 26 17 23 19 -2 28 -15 46 -63z m286 36 c31 -31 30
-100 -2 -135 -19 -20 -31 -25 -63 -22 -22 2 -46 10 -54 18 -22 21 -32 69 -22
105 15 58 97 78 141 34z m-183 -266 c0 -10 -10 -15 -30 -15 -29 0 -30 -2 -32
-47 -5 -162 -4 -158 -26 -161 -20 -3 -21 2 -24 100 l-3 103 -32 3 c-21 2 -33
9 -33 18 0 11 18 14 90 14 73 0 90 -3 90 -15z m173 -55 c44 -35 45 -110 2
-153 -23 -23 -77 -21 -109 4 -21 17 -26 28 -26 67 0 56 23 89 65 95 17 2 33 5
36 6 4 0 18 -8 32 -19z m214 -4 c60 -52 24 -166 -52 -166 -41 0 -82 32 -90 69
-9 44 17 99 52 107 15 3 33 7 38 9 19 7 24 5 52 -19z m5197 -311 c7 -20 46
-20 46 0 0 11 8 15 28 12 15 -2 27 -10 27 -18 0 -10 -15 -15 -54 -16 -30 -2
-59 -7 -65 -13 -7 -7 -6 -10 3 -10 7 0 9 -5 5 -12 -6 -9 -3 -9 9 0 9 8 22 10
29 6 7 -5 21 -7 30 -6 9 2 23 -6 30 -17 7 -12 18 -21 25 -21 7 0 17 -9 23 -20
6 -11 15 -20 21 -20 6 0 5 9 -2 23 -6 12 -8 19 -4 14 5 -4 17 1 28 10 19 18
19 17 12 -17 -4 -19 -11 -36 -16 -38 -5 -2 -9 -10 -9 -18 0 -8 6 -11 17 -7 13
5 15 3 8 -13 -14 -35 -17 -64 -7 -64 6 0 12 5 14 12 3 8 11 7 28 -5 l24 -17
-27 0 c-16 0 -37 -5 -48 -10 -17 -10 -19 -7 -19 25 0 19 5 35 10 35 6 0 10 5
10 10 0 6 -5 10 -11 10 -16 0 -37 25 -44 53 -10 39 -65 45 -65 7 0 -20 -23
-43 -33 -33 -4 3 -9 -2 -13 -11 -7 -19 -24 -21 -24 -3 0 8 11 19 25 25 32 15
35 47 3 39 -13 -4 -31 2 -46 14 -18 14 -28 16 -38 9 -8 -8 -14 -8 -19 0 -10
16 -55 12 -55 -5 0 -8 -7 -15 -16 -15 -10 0 -14 6 -11 15 4 8 2 17 -3 20 -22
13 17 32 62 31 27 -1 48 2 48 6 0 4 -4 8 -10 8 -18 0 -11 15 13 26 32 17 54
16 61 -1z m-5686 -3 c6 6 22 8 36 4 30 -7 41 -42 41 -126 0 -49 -2 -55 -22
-58 -21 -3 -22 1 -25 70 -3 67 -5 73 -25 76 -21 3 -22 -1 -25 -70 -3 -67 -5
-73 -25 -76 -22 -3 -23 -1 -23 86 0 93 7 109 41 91 9 -5 20 -4 27 3z m260 -47
c4 -81 9 -95 37 -95 24 0 25 3 25 58 0 60 18 101 38 88 8 -5 12 -40 12 -97 0
-82 -1 -89 -20 -89 -11 0 -20 5 -20 12 0 9 -3 9 -12 0 -17 -17 -58 -15 -80 5
-14 13 -18 31 -18 95 0 70 2 79 18 76 13 -2 18 -15 20 -53z m3522 -291 c20
-52 17 -54 -75 -54 -84 0 -85 0 -85 -25 0 -14 -4 -25 -10 -25 -5 0 -10 11 -10
25 0 20 -5 25 -25 25 -23 0 -25 3 -19 28 12 48 20 52 120 52 92 0 95 -1 104
-26z m-3340 -123 c245 -6 251 -6 145 -15 -164 -12 -186 -17 -196 -43 -6 -17
-5 -23 6 -23 8 0 15 -9 15 -19 0 -14 -5 -18 -19 -14 -11 3 -21 -2 -24 -11 -4
-9 -16 -16 -27 -16 -11 0 -20 -5 -20 -11 0 -5 -4 -8 -8 -5 -4 2 -14 0 -22 -5
-12 -7 -12 -11 -2 -17 17 -11 9 -53 -14 -81 -24 -27 -35 -27 -31 2 2 12 2 16
0 10 -3 -7 -9 -13 -14 -13 -6 0 -6 -7 1 -19 12 -24 -1 -66 -24 -74 -9 -4 -16
-15 -16 -26 0 -14 -5 -19 -15 -14 -18 6 -45 -24 -38 -42 2 -6 -7 -23 -21 -36
-14 -14 -30 -37 -35 -52 -6 -15 -17 -27 -24 -27 -7 0 -24 -11 -37 -25 -13 -14
-43 -34 -66 -45 -47 -23 -61 -55 -49 -116 5 -31 2 -39 -26 -65 l-32 -30 29 5
c16 4 23 3 17 0 -7 -3 -13 -17 -13 -30 0 -13 -4 -32 -10 -42 -16 -29 -60 -132
-60 -141 0 -5 -6 -14 -14 -20 -20 -17 -27 -61 -9 -61 9 0 13 -7 10 -17 -16
-60 -17 -73 -3 -73 8 0 16 7 20 15 3 8 12 15 19 15 8 0 22 9 32 20 22 24 34
25 50 3 12 -16 14 -16 38 0 22 14 27 14 37 2 7 -8 17 -15 22 -15 5 0 16 -7 24
-15 13 -13 13 -17 0 -37 -8 -13 -18 -57 -22 -98 -8 -79 -21 -69 -23 18 -1 41
-2 42 -23 30 -13 -7 -25 -16 -28 -19 -3 -4 -15 -9 -27 -13 -12 -4 -37 -21 -57
-39 -34 -31 -134 -77 -168 -77 -9 0 -28 -18 -41 -40 -13 -22 -27 -37 -31 -33
-12 12 -26 -20 -26 -61 0 -22 -3 -37 -6 -33 -3 3 -8 364 -10 801 l-3 796 307
-1 c169 -1 422 -5 562 -8z m1145 -191 c1 -263 -9 -511 -19 -483 -7 18 -12 20
-32 13 -13 -5 -37 -19 -53 -31 -20 -14 -39 -19 -67 -17 l-39 3 0 235 c-1 136
-6 262 -13 300 -10 58 -16 69 -54 102 -24 20 -56 40 -73 44 -16 5 -33 9 -37
10 -5 1 -23 3 -40 5 -59 5 134 16 282 15 l145 -1 0 -195z m1963 185 c3 -3 -8
-5 -24 -6 -24 0 -26 -2 -9 -8 21 -8 27 -50 10 -64 -6 -6 -6 -10 3 -14 17 -7
15 -26 -3 -19 -10 3 -15 -1 -15 -12 0 -10 -7 -27 -15 -38 -16 -21 -20 -86 -6
-112 5 -9 11 -34 14 -56 3 -21 10 -43 16 -49 15 -15 14 -38 -1 -35 -18 4 -32
-148 -17 -183 9 -22 8 -34 -5 -60 -9 -18 -16 -39 -16 -49 0 -9 -5 -21 -11 -27
-20 -20 -47 -126 -36 -144 7 -12 6 -31 -6 -67 -20 -59 -22 -103 -6 -119 7 -7
9 -32 5 -69 -4 -33 -8 -84 -10 -115 -4 -58 -29 -129 -45 -129 -5 0 -9 -21 -9
-47 1 -52 24 -123 40 -123 6 0 8 -10 4 -23 -3 -13 -2 -36 3 -52 9 -35 0 -66
-46 -161 -28 -59 -34 -81 -32 -128 1 -31 6 -56 11 -56 4 0 8 -4 8 -10 0 -6
-46 -10 -117 -10 l-118 0 8 197 c20 545 21 585 14 773 -3 96 8 262 28 415 9
66 22 190 30 275 8 85 18 175 24 200 5 25 11 63 12 85 3 33 8 41 29 47 27 7
281 1 288 -7z m1576 -48 c231 -84 400 -236 502 -450 55 -118 76 -213 77 -362
1 -155 -21 -254 -85 -380 -201 -400 -662 -576 -1089 -416 -170 64 -349 225
-436 394 -18 34 -47 105 -64 157 -28 85 -32 108 -33 225 -1 148 11 220 60 342
47 117 103 200 192 285 116 111 196 161 332 208 99 34 143 39 300 36 138 -3
150 -5 244 -39z m-4016 21 c9 -9 12 -9 12 0 0 7 4 12 10 12 5 0 8 -10 6 -22
-2 -13 4 -31 12 -41 11 -12 17 -43 19 -95 2 -42 5 -83 8 -90 2 -7 2 -26 -2
-42 -4 -24 -11 -30 -33 -30 -55 0 -140 -22 -140 -37 0 -8 -3 -12 -7 -10 -7 5
-9 -51 -5 -160 2 -39 4 -42 30 -39 15 1 32 -1 38 -6 6 -4 28 -11 50 -16 37 -8
39 -10 37 -43 -1 -24 -10 -42 -32 -61 -30 -27 -61 -37 -61 -20 0 14 -36 52
-49 52 -6 0 -11 -7 -11 -15 0 -8 -3 -15 -7 -15 -5 0 -16 -14 -25 -30 -14 -24
-24 -30 -53 -30 -22 0 -43 -8 -55 -20 -11 -11 -31 -22 -45 -26 -19 -5 -23 -10
-16 -17 16 -16 13 -27 -4 -21 -19 8 -19 -6 0 -32 8 -12 11 -24 8 -28 -3 -3 2
-15 12 -26 11 -12 20 -28 21 -36 1 -9 10 -24 19 -34 21 -24 16 -52 -12 -65
-12 -5 -24 -17 -26 -27 -7 -23 -66 -24 -110 -2 -50 26 -229 169 -258 206 -44
56 -79 134 -95 215 l-16 76 32 61 c18 34 36 65 41 70 5 5 1 15 -9 22 -9 7 -14
16 -10 20 4 4 15 1 24 -7 15 -12 18 -12 22 0 3 8 16 25 30 38 20 18 36 23 78
23 29 0 55 -4 58 -9 3 -5 19 -11 35 -13 23 -3 31 0 35 16 6 20 7 20 17 3 5 -9
8 -21 4 -26 -3 -5 8 -19 25 -31 16 -12 30 -30 30 -41 0 -14 7 -19 25 -19 35 0
65 17 130 75 22 19 48 38 58 41 57 18 -51 117 -170 154 -33 10 -43 18 -43 34
1 28 26 57 72 80 20 11 42 30 48 42 15 26 48 34 146 34 43 0 74 4 74 10 0 14
13 13 28 -2z m2972 -18 c0 -5 -18 -42 -40 -82 -22 -40 -72 -133 -111 -206 -40
-73 -73 -131 -75 -130 -2 3 -7 396 -5 421 1 11 231 9 231 -3z m-1254 -56 c38
-14 43 -21 58 -72 9 -31 19 -62 22 -68 3 -6 -18 -16 -50 -23 -50 -11 -56 -15
-75 -57 -51 -107 -55 -123 -37 -143 18 -20 12 -31 -16 -31 -22 0 -24 -16 -2
-24 13 -5 14 -9 4 -20 -9 -12 -7 -17 9 -26 28 -14 26 -36 -3 -55 -21 -14 -28
-14 -58 -2 -22 9 -39 25 -46 43 -58 155 -65 209 -33 281 13 28 27 42 42 45 26
3 39 28 15 28 -9 0 -16 6 -16 13 1 15 35 57 47 57 4 0 17 12 28 26 16 22 44
41 65 43 2 1 23 -6 46 -15z m959 -945 l60 -6 -62 -1 -63 -2 -2 -167 c-1 -93
-3 -199 -4 -238 -1 -38 -3 -142 -4 -230 -3 -174 -17 -172 -19 3 -1 60 -5 102
-11 102 -5 0 -10 -24 -10 -52 0 -37 -7 -64 -22 -88 -11 -19 -25 -50 -29 -69
-6 -28 -4 -37 13 -51 20 -16 21 -19 7 -66 -7 -27 -14 -53 -14 -59 0 -14 -125
-19 -125 -5 0 5 4 10 8 10 4 0 13 32 20 71 7 39 22 85 33 101 20 27 20 34 9
68 -14 42 -10 84 14 148 12 31 15 58 10 93 -8 56 16 118 47 126 26 7 24 27 -3
45 -21 14 -23 23 -22 86 1 40 6 78 12 85 7 8 9 29 5 52 -4 27 -3 36 5 31 9 -5
12 8 12 44 0 28 7 64 15 80 8 16 15 33 14 37 -1 4 0 31 1 58 l3 50 7 -50 c6
-46 7 -43 11 40 2 50 4 122 5 160 6 501 9 517 14 70 l5 -470 60 -6z m-1320
217 c11 -13 43 -33 72 -44 47 -20 54 -21 87 -7 20 9 36 11 36 5 0 -17 -37 -29
-122 -39 -46 -5 -109 -19 -138 -30 -30 -11 -55 -19 -57 -18 -1 2 11 16 27 32
17 16 30 35 30 42 0 7 4 21 9 31 5 9 12 25 15 35 7 23 16 22 41 -7z m-891 -53
c3 -21 6 -94 6 -162 l0 -123 -34 26 c-19 14 -42 26 -51 26 -17 0 -151 76 -161
91 -3 5 -2 36 2 69 6 56 8 59 21 40 10 -14 25 -20 51 -20 27 0 41 -7 57 -27
24 -29 45 -25 45 10 0 12 5 29 10 37 7 11 10 5 10 -22 0 -21 5 -38 10 -38 6 0
10 10 9 23 -4 46 1 107 10 107 4 0 11 -17 15 -37z m-950 -215 c32 -8 46 -18
50 -34 5 -17 16 -23 51 -28 25 -4 45 -11 45 -17 0 -5 6 -9 14 -9 8 0 20 -16
26 -35 17 -53 59 -127 87 -157 19 -19 29 -44 34 -84 9 -64 1 -207 -12 -212 -4
-2 -6 -9 -3 -17 3 -7 -3 -22 -12 -34 -14 -16 -21 -18 -32 -9 -10 9 -15 9 -22
-2 -7 -11 -14 -11 -38 -1 -17 7 -33 19 -36 27 -3 8 -12 14 -20 14 -8 0 -29 15
-48 33 -35 33 -48 44 -156 123 l-64 47 8 61 c10 71 9 100 -1 178 -9 69 -1 118
26 146 23 25 41 27 103 10z m1291 -38 c8 0 15 -9 15 -21 0 -16 4 -19 22 -13
21 6 21 6 6 -17 -8 -14 -18 -38 -22 -55 -7 -30 -9 -31 -79 -39 -80 -8 -117 -8
-126 1 -3 3 -6 38 -6 77 l0 72 68 0 c37 0 67 4 67 8 0 5 5 5 10 2 6 -3 10 0
10 7 0 8 5 6 11 -4 5 -10 17 -18 24 -18z"/>
<path d="M6613 9773 c-20 -4 -23 -11 -23 -51 l0 -47 85 0 85 0 0 46 c0 40 -3
48 -22 53 -25 6 -90 6 -125 -1z"/>
<path d="M3153 6713 l-233 -3 0 -30 0 -30 544 0 c300 0 547 -3 550 -8 2 -4 6
-97 8 -208 3 -178 1 -203 -15 -227 -15 -24 -24 -27 -71 -27 l-54 0 -15 -60
c-8 -33 -11 -63 -6 -66 5 -3 36 -5 69 -5 78 -1 125 23 167 85 47 69 55 109 62
321 l6 190 78 3 77 3 0 28 0 28 -247 6 c-234 7 -359 6 -920 0z"/>
<path d="M2920 5935 l0 -145 120 0 120 0 0 30 0 30 -80 0 -80 0 0 30 0 30 71
0 70 0 -3 28 c-3 26 -5 27 -71 30 -68 3 -68 3 -65 30 3 26 5 27 81 30 74 3 77
4 77 27 l0 25 -120 0 -120 0 0 -145z"/>
<path d="M3214 5577 c-2 -7 -3 -74 -2 -148 l3 -134 35 0 35 0 3 63 c2 34 5 62
7 62 2 0 33 -30 69 -66 53 -55 69 -65 88 -60 13 3 32 6 43 6 15 0 8 12 -35 56
-34 34 -50 58 -43 61 26 9 52 39 58 64 8 35 -34 85 -83 99 -55 15 -171 13
-178 -3z"/>
<path d="M3560 5440 l0 -151 38 3 37 3 0 145 0 145 -37 3 -38 3 0 -151z"/>
<path d="M1320 8368 c-56 -38 -80 -82 -80 -148 0 -71 27 -116 90 -147 43 -22
54 -23 327 -23 279 0 283 0 352 -26 139 -52 217 -154 246 -323 14 -87 -41
-225 -122 -303 -43 -41 -127 -84 -194 -97 -72 -14 -97 -28 -129 -72 -41 -57
-43 -138 -5 -190 83 -112 212 -103 465 30 103 54 290 300 290 380 0 12 5 21
10 21 6 0 10 13 10 28 0 16 5 54 11 85 13 62 -3 263 -21 281 -6 6 -10 21 -10
35 0 15 -23 68 -51 120 -56 102 -137 191 -232 254 -53 36 -171 88 -232 103
-17 4 -179 9 -360 11 l-331 4 -34 -23z"/>
<path d="M1385 7825 c-5 -2 -23 -6 -38 -9 -31 -7 -77 -49 -94 -86 -17 -37 -28
-604 -12 -650 27 -79 80 -120 155 -120 94 0 145 36 174 124 19 58 7 619 -14
650 -47 70 -119 108 -171 91z"/>
<path d="M5448 4221 c-118 -24 -288 -158 -341 -271 -69 -145 -74 -284 -15
-432 28 -71 43 -94 108 -159 111 -113 218 -159 370 -159 219 0 411 135 488
342 101 273 -61 587 -347 672 -56 17 -194 20 -263 7z"/>
<path d="M1464 3965 c-10 -8 -26 -15 -34 -15 -8 0 -28 -14 -45 -30 -16 -17
-38 -38 -47 -48 -25 -24 -24 -86 3 -113 15 -15 24 -18 32 -10 6 6 19 11 28 11
16 0 16 3 3 28 -20 40 -18 47 28 86 45 39 58 44 58 22 0 -8 3 -17 8 -19 4 -3
7 19 8 49 1 57 -8 65 -42 39z"/>
</g>
</svg>
