<?xml version="1.0" standalone="no"?>
<!DOCTYPE svg PUBLIC "-//W3C//DTD SVG 20010904//EN"
 "http://www.w3.org/TR/2001/REC-SVG-20010904/DTD/svg10.dtd">
<svg version="1.0" xmlns="http://www.w3.org/2000/svg"
 width="720.000000pt" height="1280.000000pt" viewBox="0 0 720.000000 1280.000000"
 preserveAspectRatio="xMidYMid meet">
<metadata>
Created by potrace 1.16, written by Peter Selinger 2001-2019
</metadata>
<g transform="translate(0.000000,1280.000000) scale(0.100000,-0.100000)"
fill="#000000" stroke="none">
<path d="M0 6400 l0 -6400 3600 0 3600 0 0 1025 0 1025 -3590 0 -3590 0 0 690
c0 501 3 696 12 715 10 22 17 25 60 25 45 0 61 -11 38 -25 -6 -3 -10 -32 -10
-64 0 -32 -7 -75 -15 -95 l-15 -36 81 0 c44 0 133 4 197 10 65 5 234 16 377
25 143 9 328 22 410 31 83 8 157 14 165 14 8 0 29 -1 45 -2 45 -1 177 11 183
17 3 3 6 13 7 23 1 9 7 35 13 57 16 56 70 301 77 353 l7 42 -54 2 c-29 1 -62
2 -72 2 -14 1 -28 19 -47 61 l-27 60 112 6 c61 4 114 5 119 2 4 -2 7 2 8 9 0
7 3 22 5 33 7 29 7 38 -1 57 -4 11 -1 18 12 21 10 3 -48 5 -129 6 l-147 1 -33
45 c-19 25 -41 44 -52 45 -18 0 -18 1 -3 18 37 41 38 210 3 352 -8 30 -12 68
-9 83 8 40 -16 173 -40 225 -23 51 -48 68 -76 50 -17 -10 -22 -9 -38 11 l-19
23 -29 -29 c-17 -16 -40 -40 -52 -53 -11 -14 -51 -43 -87 -65 -36 -22 -68 -46
-71 -54 -5 -11 -1 -11 13 2 10 9 21 15 24 12 3 -3 31 8 64 25 72 37 87 37 105
4 12 -24 12 -28 -9 -44 -12 -10 -22 -24 -22 -32 0 -7 -9 -28 -20 -45 -14 -23
-27 -33 -45 -33 -27 0 -33 18 -13 38 14 14 -1 16 -22 2 -9 -6 -17 -5 -22 3
-14 22 -8 -48 7 -73 44 -78 44 -78 20 -270 -14 -113 -83 -256 -105 -220 -9 15
-3 64 11 91 9 18 33 130 48 227 11 68 4 98 -33 140 -16 18 -30 22 -77 22 -41
0 -58 -4 -63 -15 -3 -9 -18 -15 -40 -15 -39 0 -66 -28 -66 -67 0 -13 -4 -23
-9 -23 -5 0 0 -17 10 -37 10 -21 19 -45 19 -55 0 -10 7 -30 16 -43 25 -39 15
-73 -31 -98 -22 -12 -41 -25 -43 -29 -2 -5 -14 -8 -27 -8 -30 0 -57 -27 -50
-50 3 -9 -2 -23 -10 -30 -9 -7 -15 -9 -14 -4 4 17 -19 61 -36 68 -9 3 -39 6
-67 6 -67 0 -77 -14 -78 -109 0 -64 -2 -72 -15 -61 -8 7 -15 22 -15 34 0 24
-33 66 -53 67 -7 0 -20 2 -30 4 -12 2 -22 -6 -30 -23 -6 -15 -14 -29 -18 -32
-4 -3 -16 -26 -27 -51 -12 -25 -28 -52 -37 -59 -8 -7 -15 -20 -15 -29 1 -14 2
-14 13 -1 9 11 28 14 77 12 36 -1 75 -5 88 -8 21 -4 21 -6 8 -32 -8 -15 -26
-38 -40 -51 -18 -17 -26 -35 -26 -58 0 -32 -1 -33 -40 -33 -22 0 -40 -5 -40
-10 0 -13 -57 -70 -70 -70 -6 0 -10 6 -10 14 0 12 -20 26 -36 26 -2 0 -5 -44
-6 -97 -1 -98 -1 -98 -9 37 -3 74 -7 1362 -8 2863 l-1 2727 3590 0 3590 0 0
1775 0 1775 -3600 0 -3600 0 0 -6400z m6796 3680 c151 -69 198 -267 95 -405
-25 -34 -27 -41 -14 -50 14 -10 14 -14 -1 -37 -26 -40 -88 -50 -140 -23 -23
12 -38 13 -85 4 -31 -7 -78 -12 -105 -13 -42 -1 -51 3 -72 29 -22 28 -23 31
-7 42 15 12 15 15 -5 35 -85 91 -82 269 6 361 77 81 220 106 328 57z m-653 4
c52 -18 116 -76 142 -130 57 -121 8 -276 -107 -339 -77 -42 -185 -47 -259 -13
-106 49 -153 125 -152 244 1 110 42 177 135 223 50 25 73 31 128 31 36 0 87
-7 113 -16z m-5802 -244 c21 -91 39 -168 39 -172 0 -5 -15 -8 -33 -8 -28 0
-34 4 -42 32 -9 29 -14 32 -50 31 -36 0 -40 -3 -47 -31 -8 -28 -13 -32 -42
-32 l-34 0 14 58 c7 31 26 110 41 175 l28 118 44 -3 44 -3 38 -165z m371 78
l3 -93 25 37 c20 31 31 38 58 38 17 0 32 -3 32 -6 0 -4 -16 -28 -35 -53 -30
-42 -33 -50 -21 -67 7 -10 25 -40 40 -66 l28 -48 -35 0 c-31 0 -39 5 -58 40
-26 45 -39 43 -39 -6 0 -31 -2 -34 -30 -34 l-30 0 0 175 0 175 30 0 29 0 3
-92z m1738 -83 l0 -176 -42 1 c-24 1 -55 -1 -69 -5 -19 -5 -33 -1 -55 18 -28
24 -29 29 -28 107 0 68 4 84 21 101 22 22 54 28 91 15 21 -7 22 -5 22 53 l0
61 30 0 30 0 0 -175z m452 83 l3 -92 25 37 c20 30 31 37 58 37 30 0 42 -12 24
-24 -5 -3 -21 -23 -36 -44 l-27 -40 40 -66 41 -66 -34 0 c-28 0 -38 7 -62 43
l-29 42 -3 -42 c-3 -42 -4 -43 -38 -43 l-34 0 0 175 0 175 35 0 34 0 3 -92z
m728 27 l0 -66 30 16 c33 17 60 13 85 -11 11 -12 15 -40 15 -120 l0 -104 -30
0 -30 0 0 90 c0 75 -3 92 -16 97 -37 14 -49 -10 -52 -101 l-3 -86 -29 0 -30 0
0 175 0 175 30 0 30 0 0 -65z m530 4 c0 -55 2 -60 18 -53 32 14 75 7 94 -16
14 -17 18 -40 18 -102 0 -71 -2 -81 -26 -105 -21 -21 -31 -24 -57 -18 -18 4
-49 6 -69 6 l-38 -2 0 176 0 175 30 0 30 0 0 -61z m-1480 -9 c0 -38 2 -40 30
-40 25 0 30 -4 30 -25 0 -21 -5 -25 -30 -25 l-31 0 3 -67 c3 -66 4 -68 31 -71
28 -3 31 -9 21 -36 -8 -22 -72 -21 -96 1 -14 13 -18 31 -18 90 0 66 -2 75 -20
80 -13 3 -20 14 -20 29 0 17 6 24 20 24 16 0 20 7 20 33 0 40 6 47 37 47 20 0
23 -5 23 -40z m-2096 -61 c24 -23 34 -121 17 -172 -15 -44 -59 -66 -97 -48
-14 6 -27 11 -29 11 -3 0 -5 -30 -5 -66 l0 -65 -27 3 -28 3 -3 179 -2 179 37
-5 c21 -3 47 -2 58 3 26 10 55 2 79 -22z m405 20 c17 -6 36 -19 41 -29 6 -10
10 -62 10 -115 l0 -97 -32 3 c-18 1 -48 -1 -66 -5 -50 -12 -82 13 -82 64 0 44
20 64 83 81 28 7 37 15 35 27 -5 26 -48 28 -55 3 -6 -25 -51 -29 -60 -5 -8 21
28 67 58 75 35 10 33 10 68 -2z m290 0 c38 -14 51 -35 51 -88 l0 -41 -61 0
c-60 0 -60 0 -57 -27 3 -32 44 -46 54 -19 4 10 18 16 35 16 35 0 39 -25 10
-61 -27 -34 -99 -34 -135 0 -23 22 -26 32 -26 96 0 79 20 120 63 128 12 2 25
5 28 6 3 0 20 -4 38 -10z m198 0 c32 -12 43 -26 43 -56 0 -31 -45 -33 -53 -3
-7 26 -47 27 -47 1 0 -11 12 -23 30 -31 78 -32 101 -82 61 -131 -15 -19 -29
-24 -66 -24 -37 0 -51 5 -66 24 -29 36 -25 61 11 61 24 0 30 -4 30 -21 0 -15
5 -20 22 -17 41 6 32 33 -19 59 -91 46 -80 134 19 148 4 1 19 -4 35 -10z m191
0 c29 -10 59 -59 45 -73 -15 -15 -51 -5 -56 15 -4 13 -12 20 -24 17 -29 -5
-21 -32 15 -50 73 -36 92 -81 53 -129 -15 -19 -29 -24 -66 -24 -37 0 -51 5
-66 24 -29 36 -25 61 10 61 21 0 30 -6 34 -21 7 -25 40 -22 45 3 2 12 -11 24
-43 39 -74 35 -85 107 -21 135 38 16 36 16 74 3z m211 0 c17 -6 36 -19 41 -29
6 -10 10 -62 10 -115 l0 -97 -32 3 c-18 1 -48 -1 -66 -5 -50 -12 -82 13 -82
64 0 44 20 64 83 81 28 7 37 15 35 27 -5 25 -45 27 -58 3 -11 -22 -44 -28 -55
-10 -12 18 16 68 44 78 35 13 43 13 80 0z m318 -21 c17 -16 23 -33 23 -65 l0
-43 -61 0 c-60 0 -60 0 -57 -27 3 -32 44 -46 54 -19 9 23 64 21 64 -2 0 -49
-66 -84 -121 -64 -50 20 -59 37 -59 121 0 68 3 80 23 98 12 11 29 23 37 26 25
10 73 -2 97 -25z m1001 -4 c19 -21 22 -36 22 -99 0 -70 -1 -74 -32 -100 -27
-23 -39 -26 -71 -22 -59 8 -80 35 -85 107 -3 36 1 72 9 91 24 60 111 73 157
23z m240 8 c8 -10 12 -52 12 -119 l0 -103 -30 0 -30 0 0 90 c0 75 -3 92 -17
97 -32 12 -53 -32 -53 -113 l0 -74 -30 0 -30 0 0 120 0 120 29 0 c16 0 31 -5
33 -11 2 -6 14 -5 33 5 33 17 63 13 83 -12z m530 -5 c16 -15 22 -32 22 -64 l0
-43 -61 0 c-60 0 -60 0 -57 -27 3 -32 44 -46 54 -19 4 10 18 16 35 16 35 0 40
-29 9 -60 -27 -27 -63 -34 -105 -20 -46 15 -55 34 -55 123 0 64 3 76 23 94 12
11 29 23 37 26 25 9 73 -4 98 -26z m539 9 c6 -6 14 -57 17 -118 l5 -108 -34 0
-35 0 0 90 c0 72 -3 92 -15 96 -33 13 -45 -15 -45 -102 l0 -84 -35 0 -35 0 0
120 0 120 35 0 c19 0 35 -4 35 -9 0 -6 12 -3 28 4 28 15 58 12 79 -9z m218 -7
c17 -16 21 -35 23 -120 l4 -100 -44 1 c-23 1 -54 -1 -68 -5 -35 -9 -80 27 -80
64 0 39 19 60 70 75 33 10 46 19 48 35 5 29 -44 30 -53 0 -5 -15 -14 -19 -33
-17 -22 2 -26 7 -24 28 5 31 28 58 56 63 35 7 80 -4 101 -24z m400 16 c37 -15
55 -46 55 -96 0 -29 0 -29 -59 -29 -63 0 -76 -8 -66 -40 8 -24 55 -28 55 -5 0
11 11 15 36 15 32 0 35 -2 29 -22 -4 -13 -18 -34 -33 -47 -21 -19 -33 -22 -65
-18 -59 8 -80 35 -85 107 -5 75 11 118 52 136 39 17 40 17 81 -1z m198 1 c15
-8 27 -11 27 -5 0 5 14 9 31 9 l30 0 -3 -154 c-3 -134 -5 -157 -22 -175 -42
-46 -144 -35 -166 19 -7 16 -9 34 -5 39 10 18 44 12 57 -9 26 -41 78 -15 78
40 0 17 -3 19 -19 10 -36 -19 -78 -12 -100 16 -16 21 -21 41 -21 90 0 72 13
107 44 122 29 14 37 14 69 -2z m285 -22 c20 -22 22 -36 22 -120 l0 -95 -42 1
c-24 1 -55 -1 -70 -5 -21 -6 -32 -2 -52 18 -46 46 -30 99 37 118 52 15 67 26
60 45 -8 21 -41 17 -55 -6 -17 -26 -58 -27 -58 -1 0 34 12 53 44 67 40 18 85
9 114 -22z m-3048 -94 l0 -120 -35 0 -35 0 0 120 0 120 35 0 35 0 0 -120z
m2280 63 c19 -90 25 -92 45 -14 18 69 20 71 51 71 l32 0 -24 -82 c-79 -281
-76 -273 -112 -276 -29 -3 -33 -1 -29 15 31 106 31 95 -2 207 -18 59 -35 114
-38 122 -4 10 4 14 29 14 34 0 35 -1 48 -57z"/>
<path d="M6613 9773 c-20 -4 -23 -11 -23 -51 l0 -47 85 0 85 0 0 46 c0 40 -3
48 -22 53 -25 6 -90 6 -125 -1z"/>
<path d="M754 8617 c-3 -8 -3 -56 -2 -108 l3 -94 74 -3 c58 -2 77 1 92 14 23
20 25 57 4 74 -12 10 -12 15 -1 33 20 31 4 65 -39 82 -44 19 -124 20 -131 2z"/>
<path d="M1066 8542 c-3 -6 -1 -119 3 -154 1 -5 12 -8 26 -8 23 0 24 4 27 63
3 54 5 62 23 62 18 0 20 -8 23 -61 2 -53 6 -63 24 -67 32 -9 38 0 38 56 0 78
-16 102 -68 103 -23 0 -45 4 -49 7 -9 9 -41 9 -47 -1z"/>
<path d="M1672 6688 c5 -15 36 -17 568 -48 608 -35 1294 -75 1535 -90 88 -5
246 -14 350 -20 105 -6 260 -15 345 -20 839 -53 880 -55 854 -31 -5 5 -108 14
-229 20 -121 6 -328 18 -460 26 -132 8 -319 20 -415 25 -96 6 -285 17 -420 25
-135 8 -555 33 -935 55 -379 22 -798 47 -930 55 -289 18 -268 18 -263 3z"/>
<path d="M1198 5499 c-81 -4 -153 -11 -162 -16 -34 -19 44 -63 113 -63 25 0
36 -6 49 -30 9 -16 30 -34 46 -40 37 -13 43 -13 29 1 -11 11 -6 56 9 65 21 13
56 -7 74 -43 l18 -38 8 60 c12 84 7 110 -17 110 -11 0 -86 -3 -167 -6z"/>
<path d="M3997 5210 c-43 -34 -74 -106 -80 -182 -5 -72 -26 -114 -70 -137 -14
-7 -33 -29 -43 -47 -18 -33 -18 -36 -1 -83 9 -27 17 -58 17 -69 0 -11 7 -25
16 -33 21 -17 44 -63 44 -87 0 -11 7 -25 15 -32 23 -19 18 -44 -15 -68 -16
-13 -29 -26 -28 -30 4 -23 -17 -42 -48 -42 -18 0 -54 -7 -80 -16 -44 -15 -49
-15 -105 6 -33 13 -59 26 -59 31 0 4 16 11 35 15 42 8 37 20 -15 35 -22 7 -40
16 -40 21 0 4 -4 8 -10 8 -5 0 -15 -18 -21 -40 -10 -34 -10 -43 3 -56 8 -8 24
-16 36 -17 12 -1 22 -7 22 -15 0 -9 -9 -12 -27 -10 -16 2 -27 8 -26 16 4 15
-13 16 -23 1 -8 -13 -44 -176 -44 -200 0 -24 100 -34 195 -20 39 6 74 6 78 2
13 -13 -11 -79 -33 -91 -10 -6 -39 -10 -64 -10 -25 0 -46 -4 -46 -9 0 -5 -10
-11 -22 -13 -16 -2 -29 -17 -42 -45 -18 -40 -22 -43 -58 -43 -32 0 -40 -4 -48
-26 -20 -52 -70 -315 -70 -369 0 -16 7 -20 38 -22 124 -5 208 -35 250 -87 10
-13 27 -26 38 -30 12 -3 26 -17 32 -30 9 -20 21 -25 99 -35 101 -12 741 -14
813 -1 l45 7 -37 2 -38 1 0 80 c0 68 3 80 16 80 21 0 74 54 74 75 0 8 -13 21
-29 29 -27 15 -50 46 -32 46 4 0 6 11 4 24 -3 14 2 39 11 57 15 30 15 34 0 50
-13 14 -15 30 -9 78 4 34 11 64 16 67 6 3 1 21 -11 40 -11 20 -20 45 -20 58 0
13 -9 31 -20 41 -12 10 -29 38 -40 62 -10 24 -24 43 -29 43 -17 0 -13 37 5 44
9 3 48 6 89 6 50 0 76 4 84 14 7 8 8 17 3 20 -6 3 -5 22 2 47 10 39 9 42 -19
65 -31 24 -31 23 20 39 11 3 15 18 15 51 l0 47 -56 -6 c-59 -6 -94 -28 -94
-57 0 -11 11 -20 30 -23 28 -6 43 -27 20 -27 -6 0 -8 -16 -4 -42 l7 -42 -28
22 c-22 18 -41 22 -95 22 -61 0 -68 2 -73 22 -4 12 -1 28 5 36 14 16 -5 32
-39 32 -28 0 -30 -16 -3 -30 11 -6 20 -15 20 -21 0 -6 -14 1 -31 15 -17 14
-41 26 -54 26 -27 0 -65 56 -65 95 0 14 -9 39 -20 57 -25 42 -25 80 0 103 12
11 20 31 20 50 0 34 -26 106 -41 116 -5 3 -11 59 -13 125 -3 96 -8 127 -25
161 -27 54 -36 59 -111 70 -26 3 -42 -1 -63 -17z m43 -649 c0 -5 8 -12 18 -15
9 -4 37 -25 62 -47 25 -23 64 -55 88 -72 23 -17 42 -34 42 -38 0 -5 16 1 35
12 40 24 46 21 86 -33 20 -28 29 -53 29 -79 0 -38 -14 -60 -23 -37 -4 10 -8 9
-16 -2 -9 -12 -11 -10 -11 11 0 37 -12 44 -25 12 -11 -27 -11 -27 -12 10 -1
21 -7 45 -15 54 -11 14 -14 12 -18 -18 l-5 -34 -70 69 c-38 37 -89 81 -112 97
-27 19 -45 40 -49 57 -3 15 -9 35 -15 45 -6 11 -6 17 1 17 5 0 10 -4 10 -9z"/>
<path d="M5188 4962 c-9 -9 -24 -37 -34 -60 -15 -39 -16 -66 -10 -234 8 -207
13 -226 67 -254 25 -12 29 -20 29 -57 0 -26 -8 -51 -20 -67 -11 -14 -20 -31
-20 -37 0 -7 -8 -13 -18 -13 -24 0 -42 -19 -42 -44 0 -12 -6 -33 -14 -47 -13
-25 -12 -25 13 -21 14 3 42 16 61 28 22 15 58 26 95 30 99 10 199 44 210 72 5
15 -15 72 -26 72 -3 0 -14 18 -24 40 -10 22 -24 40 -32 40 -8 0 -27 7 -44 15
l-30 16 7 88 7 88 -47 38 c-54 44 -63 69 -43 116 8 20 11 43 7 55 -5 11 -6 32
-3 47 8 40 53 37 92 -5 17 -18 33 -30 36 -26 8 7 -38 55 -82 86 -18 13 -33 30
-33 38 0 17 -21 18 -39 2 -11 -10 -14 -10 -18 0 -6 17 -25 14 -45 -6z"/>
<path d="M453 4725 c-37 -39 -48 -105 -17 -105 9 0 18 9 21 20 3 11 10 20 15
20 5 0 6 -9 3 -20 -6 -19 -2 -20 114 -20 l120 0 -10 30 c-13 35 -48 41 -56 10
-4 -16 -14 -20 -48 -20 -40 0 -44 2 -50 30 -4 17 -15 36 -26 43 -10 6 -19 20
-19 29 0 25 -10 21 -47 -17z"/>
<path d="M5431 4741 c-14 -25 -16 -58 -13 -190 2 -92 9 -118 14 -53 2 31 22
44 30 21 2 -6 23 -11 46 -11 28 1 45 -4 50 -15 15 -26 45 -11 55 27 25 99 20
160 -13 160 -10 0 -21 4 -24 9 -3 5 -25 4 -52 -1 -25 -6 -48 -8 -51 -5 -2 3
-11 22 -18 43 -12 36 -13 37 -24 15z"/>
<path d="M2745 4700 c-33 -13 -92 -84 -126 -152 -36 -72 -56 -98 -77 -98 -8 0
-23 -11 -33 -25 -12 -14 -26 -22 -35 -18 -24 9 -94 -27 -99 -51 -12 -61 -16
-94 -15 -126 1 -19 -2 -72 -5 -117 -7 -81 -8 -84 -57 -145 -50 -62 -138 -232
-138 -267 0 -21 -39 -22 -63 -2 -15 12 -17 11 -17 -3 0 -9 -12 -22 -27 -29
-16 -6 -30 -14 -33 -17 -3 -3 -15 -10 -27 -17 -17 -10 -24 -9 -33 2 -10 12 -7
17 14 26 32 15 35 42 4 37 -13 -2 -33 8 -51 25 -36 33 -52 30 -51 -9 0 -16 -4
-32 -10 -36 -6 -4 -12 -19 -13 -33 -2 -22 1 -24 17 -15 16 8 22 6 37 -16 16
-25 20 -26 82 -21 36 3 67 10 69 16 2 6 17 11 33 11 32 0 35 -10 19 -69 -5
-20 -14 -55 -20 -78 l-11 -43 -59 0 c-45 0 -65 -5 -79 -19 -10 -10 -35 -24
-55 -31 -20 -6 -38 -15 -41 -19 -2 -5 75 -11 173 -15 190 -8 949 -6 970 1 6 3
12 14 12 26 0 11 3 17 7 13 4 -4 8 -15 8 -24 0 -14 10 -17 50 -17 47 0 50 2
47 24 -2 14 0 21 7 17 5 -4 2 13 -9 37 -16 36 -18 53 -11 97 9 59 7 71 -21
112 -10 14 -18 35 -18 46 0 22 -18 32 -60 32 -29 0 -63 32 -75 70 -3 10 -18
23 -33 29 -31 12 -176 31 -239 31 -38 0 -45 3 -54 27 -5 14 -17 32 -27 39 -20
16 -3 18 33 4 14 -5 90 -12 168 -16 149 -5 171 -12 242 -74 11 -10 41 -21 67
-24 51 -8 189 2 209 14 11 8 39 135 55 251 7 49 -14 99 -41 99 -13 0 -27 -28
-24 -46 1 -5 1 -16 0 -24 -2 -22 -30 30 -31 56 0 33 -20 42 -77 37 -44 -5 -52
-9 -58 -30 -8 -32 -1 -41 30 -37 17 1 28 -3 33 -14 3 -9 16 -25 29 -35 24 -20
23 -40 -2 -30 -9 3 -22 0 -30 -7 -13 -10 -21 -10 -43 0 -27 14 -27 14 -4 18
30 5 26 12 -26 56 -47 39 -61 43 -80 24 -9 -9 -5 -18 18 -39 16 -16 30 -33 30
-38 0 -16 -36 -13 -50 4 -7 8 -18 15 -24 16 -17 0 -58 57 -46 64 5 3 10 21 10
40 0 19 4 36 9 39 18 11 24 103 8 128 -8 12 -20 57 -26 98 -7 41 -17 85 -22
98 -5 13 -9 32 -9 44 0 12 -11 41 -25 64 -32 54 -95 77 -150 54z m23 -300 c11
0 24 -4 27 -10 10 -16 45 -12 45 6 0 26 25 10 28 -19 3 -23 -1 -27 -33 -33
l-37 -7 4 -96 3 -96 -31 -3 -32 -3 -4 108 c-3 59 -1 113 5 120 11 15 1 33 -19
33 -15 0 -19 12 -7 24 4 4 13 0 19 -8 6 -9 21 -16 32 -16z m150 -268 c7 -5 16
-31 21 -58 5 -27 14 -62 21 -79 7 -16 14 -42 16 -56 3 -24 1 -25 -49 -26 -35
0 -46 2 -32 8 l20 8 -20 1 c-27 1 -55 23 -55 43 0 9 -11 19 -24 23 -14 3 -33
15 -43 26 -18 20 -18 20 -24 -4 -7 -22 -7 -22 -8 -1 -1 23 43 56 92 68 15 4
28 11 28 16 1 5 3 14 4 19 1 6 3 12 4 15 2 8 35 6 49 -3z"/>
<path d="M5532 4298 c-22 -22 -13 -38 26 -44 26 -4 44 -15 62 -39 37 -49 33
-60 -27 -63 -43 -2 -53 -6 -53 -21 0 -9 4 -21 9 -26 9 -11 28 -152 41 -300 4
-49 8 -80 9 -68 1 16 5 21 17 16 15 -6 15 -4 1 18 -18 27 -13 69 9 69 24 0 19
158 -7 185 -12 12 -11 66 1 85 11 18 14 11 29 -65 19 -95 28 -130 50 -190 47
-129 47 -126 12 -157 -31 -28 -31 -28 -7 -22 32 8 35 -11 4 -27 -30 -16 -38
-28 -38 -61 0 -18 5 -28 14 -28 8 0 17 -9 21 -20 6 -20 6 -20 28 0 11 11 28
20 37 20 16 0 16 4 -1 53 -9 28 -16 63 -16 76 2 29 27 41 27 13 0 -10 9 -27
20 -37 17 -15 17 -19 5 -32 -16 -16 -20 -49 -7 -55 15 -6 42 -102 31 -113 -14
-14 -11 -23 9 -28 9 -3 -10 -5 -43 -6 -54 -1 -97 -13 -85 -24 3 -2 36 -7 73
-11 52 -5 67 -4 61 5 -4 8 -3 9 4 5 14 -9 12 -57 -3 -54 -5 1 -20 -1 -31 -5
-13 -5 -40 -1 -65 8 -55 19 -83 19 -99 0 -10 -12 -6 -16 22 -24 30 -8 30 -9 8
-11 l-25 -2 25 -8 c45 -14 67 -11 78 13 l11 22 0 -22 c1 -20 6 -23 41 -23 24
0 39 4 37 11 -4 21 24 21 30 0 5 -18 13 -21 63 -21 32 0 72 -3 90 -6 28 -6 32
-5 26 12 -8 26 7 46 46 61 18 6 25 12 16 12 -11 1 -18 9 -18 20 0 19 -18 31
-49 31 -18 0 -81 53 -81 69 0 10 -25 9 -36 -2 -4 -4 -19 -7 -32 -7 -24 0 -24
1 -9 18 23 26 22 46 -3 39 -16 -4 -21 1 -26 21 -3 15 -9 35 -15 45 -6 11 -6
17 2 17 6 0 7 5 2 13 -4 6 -8 19 -10 27 -1 8 -7 16 -12 18 -12 4 -14 35 -5 69
l6 22 29 -21 c27 -20 46 -53 41 -71 -1 -5 7 -6 18 -2 11 3 20 2 20 -3 0 -6 -5
-12 -12 -14 -7 -3 -8 -10 -3 -17 6 -11 10 -10 17 3 5 9 14 13 21 9 6 -3 34 -7
63 -8 l52 -2 -26 22 -27 23 28 -5 c26 -5 28 -4 23 23 -2 16 -5 32 -5 35 -1 4
-11 10 -23 14 -15 4 -18 8 -10 12 10 4 10 8 1 20 -10 11 -10 16 0 23 10 5 10
9 2 15 -7 4 -9 16 -5 28 17 53 4 107 -40 165 -51 66 -65 79 -126 115 -25 14
-58 40 -75 57 -107 113 -125 124 -125 81 0 -31 -11 -30 -46 5 -35 35 -71 43
-92 22z"/>
<path d="M5263 4125 c-3 -9 -18 -22 -34 -31 -17 -8 -29 -23 -29 -34 0 -20 -16
-28 -22 -11 -1 5 -19 12 -39 16 l-36 7 -20 -55 c-12 -32 -17 -61 -12 -73 4
-10 8 -46 8 -79 2 -86 13 -98 50 -56 l30 33 43 -56 43 -56 5 54 c6 64 13 74
35 52 9 -9 21 -16 26 -16 5 0 9 -9 9 -19 0 -10 7 -21 15 -25 11 -4 15 -22 15
-73 0 -104 18 -63 22 50 2 70 6 97 15 97 7 0 13 5 13 10 0 6 -7 10 -15 10 -8
0 -15 5 -15 10 0 6 7 10 15 10 8 0 15 5 15 10 0 6 -8 10 -17 10 -17 1 -17 1 0
11 14 8 16 14 6 25 -6 8 -8 14 -4 14 4 0 2 6 -4 14 -6 7 -14 43 -18 80 -6 62
-5 66 15 66 17 0 21 -8 27 -59 4 -39 12 -62 22 -65 9 -4 13 -16 12 -33 -2 -16
0 -34 5 -42 5 -7 5 -66 1 -131 -4 -66 -4 -128 0 -139 12 -39 26 -21 25 32 -1
28 4 77 10 107 8 34 11 104 8 180 -3 69 -3 117 -1 108 8 -33 23 -18 23 22 l0
40 -120 0 c-99 0 -122 -3 -127 -15z"/>
<path d="M2084 4096 c-3 -9 -13 -16 -21 -16 -8 0 -11 -4 -8 -10 3 -5 17 -10
30 -10 34 0 55 -10 55 -26 0 -8 8 -14 18 -14 9 0 26 -7 36 -15 23 -18 56 -20
56 -4 0 7 12 9 34 5 31 -6 34 -4 41 21 7 30 -6 45 -64 70 -31 13 -36 13 -47
-1 -12 -17 -54 -22 -69 -7 -21 19 -55 23 -61 7z"/>
<path d="M2020 4035 c0 -17 -18 -19 -54 -5 -21 8 -26 6 -26 -5 0 -9 -4 -23 -9
-33 -23 -43 -43 -186 -27 -189 5 0 13 -8 18 -17 5 -8 15 -13 23 -10 10 4 12
12 4 31 -13 35 -11 42 11 36 11 -3 20 0 20 6 0 19 20 12 44 -14 18 -20 33 -25
69 -25 52 0 57 8 52 80 -2 25 -4 53 -4 63 -1 11 -13 22 -31 28 -17 6 -34 23
-42 40 -13 30 -48 40 -48 14z"/>
</g>
</svg>
