<?xml version="1.0" standalone="no"?>
<!DOCTYPE svg PUBLIC "-//W3C//DTD SVG 20010904//EN"
 "http://www.w3.org/TR/2001/REC-SVG-20010904/DTD/svg10.dtd">
<svg version="1.0" xmlns="http://www.w3.org/2000/svg"
 width="720.000000pt" height="1280.000000pt" viewBox="0 0 720.000000 1280.000000"
 preserveAspectRatio="xMidYMid meet">
<metadata>
Created by potrace 1.16, written by Peter Selinger 2001-2019
</metadata>
<g transform="translate(0.000000,1280.000000) scale(0.100000,-0.100000)"
fill="#000000" stroke="none">
<path d="M0 6400 l0 -6400 3600 0 3600 0 0 1025 0 1025 -190 2 -191 3 -3 160
c-2 148 -12 212 -36 239 -5 4 -27 5 -49 1 -37 -6 -41 -10 -41 -36 0 -33 -18
-37 -63 -16 -18 8 -27 20 -28 37 -1 21 -2 20 -9 -7 -4 -18 -13 -40 -20 -48 -9
-10 -11 -53 -9 -149 2 -74 1 -138 -4 -142 -4 -4 -7 -16 -7 -26 0 -17 -55 -18
-1468 -18 l-1467 0 7 82 c7 85 -4 422 -23 723 -15 243 -13 281 31 565 43 275
49 373 25 407 -30 43 -191 112 -297 128 l-45 7 -37 126 c-81 276 -160 509
-227 668 -76 180 -115 249 -172 304 -20 19 -37 40 -37 47 0 14 -53 59 -80 68
-12 4 -26 0 -36 -9 -8 -9 -23 -16 -32 -16 -10 0 -26 -6 -37 -14 -31 -21 -145
-40 -145 -24 0 5 9 6 20 3 11 -3 20 -2 20 3 0 11 39 30 110 52 31 10 55 24 55
31 0 8 -23 27 -51 44 l-50 30 28 30 c27 29 68 104 68 125 0 6 7 22 16 35 9 13
21 59 28 102 l12 78 22 -81 c12 -44 22 -101 22 -127 0 -90 36 -60 50 42 9 71
-4 176 -36 288 -32 111 -48 145 -97 212 l-40 54 46 -32 c64 -44 109 -104 142
-188 26 -67 28 -80 22 -175 l-5 -103 21 40 c18 33 22 56 22 140 0 92 -3 105
-32 169 -38 78 -112 176 -171 223 -22 18 -71 49 -108 70 -58 32 -78 38 -127
37 -50 -1 -58 2 -63 20 -3 12 4 42 15 66 55 121 -4 408 -117 573 -59 84 -214
205 -319 246 -150 59 -365 72 -518 32 -86 -22 -233 -91 -261 -122 -11 -12 -31
-19 -53 -19 -82 -1 -233 -84 -338 -186 -82 -80 -139 -184 -150 -272 -7 -60 19
-173 45 -194 14 -12 14 -10 6 17 -17 58 -10 127 20 193 16 34 31 61 33 58 2
-2 -3 -28 -11 -57 -19 -63 -20 -127 -4 -181 8 -29 30 -56 76 -97 l64 -56 -9
-90 c-4 -49 -8 -137 -7 -195 0 -103 1 -107 48 -210 65 -144 65 -134 14 -149
-65 -20 -168 -68 -168 -80 0 -5 19 1 43 14 67 36 180 70 185 56 2 -7 21 -45
41 -84 33 -65 42 -75 96 -104 49 -26 61 -37 68 -65 21 -89 102 -224 162 -271
52 -41 129 -74 204 -88 65 -11 133 -5 321 30 35 6 135 60 127 68 -9 8 -126
-24 -141 -40 -23 -23 -117 -40 -226 -41 -212 -2 -341 91 -411 296 -32 94 -31
96 47 97 39 1 44 -3 85 -56 24 -31 61 -84 81 -117 21 -34 38 -55 38 -47 0 18
-67 144 -91 169 -10 12 -19 23 -19 25 0 2 35 26 77 53 158 101 178 113 171
114 -4 0 -33 -13 -65 -29 -73 -37 -157 -65 -255 -85 -98 -20 -131 -20 -171 0
-60 31 -60 31 -218 384 -30 67 -33 85 -34 165 0 50 4 136 9 192 l9 103 -26 20
c-17 14 -29 37 -36 71 -21 96 -6 94 19 -3 22 -90 40 -88 40 6 0 74 1 76 24 76
14 0 38 -11 54 -25 36 -30 46 -32 32 -5 -14 25 -67 53 -87 46 -22 -9 -10 64
23 131 26 54 94 153 106 153 3 0 0 -21 -8 -47 -28 -93 -12 -197 47 -300 40
-69 89 -125 135 -154 43 -26 51 -20 31 23 -26 57 -38 177 -26 270 12 86 28
136 29 88 0 -23 39 -197 55 -248 7 -21 7 -22 -21 -7 -16 8 -35 15 -43 15 -22
0 8 -31 47 -47 18 -7 76 -56 128 -109 53 -52 110 -102 127 -111 l32 -16 -34
39 c-36 40 -84 139 -78 158 2 6 12 -11 22 -38 24 -63 84 -139 135 -171 55 -35
64 -31 40 15 -25 49 -41 90 -35 90 2 0 26 -42 54 -93 78 -144 98 -269 56 -334
-9 -13 -11 -24 -5 -28 5 -3 6 -13 3 -23 -3 -9 8 -1 25 18 33 38 64 112 83 200
7 30 21 65 33 78 21 24 130 82 153 82 8 0 28 -13 44 -29 25 -26 29 -37 29 -87
0 -108 -57 -181 -194 -250 -38 -18 -81 -34 -97 -34 -15 0 -30 -4 -33 -9 -10
-16 35 -20 74 -6 45 16 50 13 50 -32 0 -45 42 -83 187 -169 117 -70 133 -89
133 -155 0 -44 -15 -73 -62 -119 -41 -40 -41 -41 -8 -19 73 49 90 76 90 146 0
51 -16 91 -40 104 -35 17 -210 122 -210 125 0 2 26 -8 58 -22 31 -15 107 -48
168 -75 87 -39 120 -60 159 -100 59 -61 76 -71 140 -80 28 -4 64 -13 80 -20
l30 -13 -55 -5 c-60 -7 -121 -39 -147 -77 -8 -13 -24 -24 -34 -24 -11 0 -19
-4 -19 -9 0 -5 -9 -7 -20 -4 -22 6 -26 -7 -9 -24 8 -8 0 -35 -29 -99 -144
-323 -210 -767 -181 -1234 10 -168 10 -177 -10 -228 -12 -29 -21 -69 -21 -88
0 -30 -4 -37 -30 -46 -17 -5 -37 -23 -45 -39 -28 -54 -66 -170 -63 -192 3 -19
-11 -28 -93 -68 -105 -52 -127 -73 -165 -168 l-23 -56 -86 -3 c-107 -3 -266
32 -370 83 -76 38 -181 119 -228 177 -27 34 -28 39 -17 71 6 20 16 37 22 39 5
2 13 30 17 63 l6 59 49 -82 c76 -125 67 -89 -12 50 -142 250 -202 396 -239
581 -24 122 -26 152 -27 407 -1 200 -3 249 -8 180 -13 -174 -8 -163 -50 -93
-50 84 -104 207 -149 338 -21 61 -38 103 -39 94 -1 -37 86 -263 153 -398 l71
-145 7 -165 c3 -91 5 -167 4 -169 -2 -3 -35 39 -102 132 -28 38 -30 27 -3 -22
33 -60 34 -62 94 -181 32 -62 74 -152 93 -199 32 -82 33 -88 22 -136 -21 -89
-25 -92 -67 -54 -20 18 -57 41 -82 50 -59 23 -233 69 -238 63 -2 -2 16 -9 39
-15 183 -46 256 -80 338 -160 96 -94 112 -195 48 -314 -41 -75 -41 -71 0 -175
35 -89 29 -148 -20 -220 -20 -29 -37 -59 -37 -66 0 -7 -6 -17 -13 -23 -7 -6
-14 -36 -15 -66 -1 -31 -7 -68 -13 -83 -10 -27 -11 -28 -26 -8 -8 11 -28 49
-45 85 -44 96 -49 100 -133 100 -61 0 -77 -4 -116 -29 -82 -53 -109 -99 -109
-188 0 -56 18 -56 23 -1 3 37 4 35 5 -14 1 -32 -2 -58 -7 -58 -5 0 -27 20 -50
45 -35 39 -41 51 -41 90 0 44 -22 115 -35 115 -4 0 -4 -14 0 -30 8 -35 8 -35
-39 -15 -90 38 -156 139 -156 240 0 24 17 94 37 155 l37 111 -18 49 c-29 81
-31 182 -7 285 30 124 29 140 -12 231 -45 100 -52 144 -37 234 9 52 28 102 71
186 32 63 65 142 73 176 8 35 35 149 60 253 25 105 52 228 62 275 19 99 54
206 126 380 63 153 104 220 171 283 29 27 45 45 37 41 -32 -16 -104 -91 -137
-142 -57 -88 -181 -419 -214 -572 -16 -74 -45 -196 -63 -270 -19 -74 -37 -155
-41 -180 -9 -57 -33 -119 -95 -245 -26 -55 -56 -135 -65 -177 -20 -93 -13
-138 42 -262 l35 -79 -23 -101 c-29 -124 -28 -219 1 -304 20 -58 20 -63 5
-107 -8 -26 -22 -59 -29 -73 -8 -15 -20 -55 -26 -90 -23 -116 24 -226 122
-289 l39 -24 -18 -29 c-9 -16 -57 -73 -106 -127 -48 -54 -100 -117 -114 -140
-13 -24 -27 -43 -29 -43 -2 0 -4 868 -4 1930 l0 1930 24 0 c13 0 37 14 55 32
29 30 31 31 50 14 12 -11 46 -21 84 -26 36 -4 70 -11 75 -14 12 -7 22 17 22
53 0 15 6 35 13 45 13 18 16 17 55 -9 34 -23 49 -26 81 -21 37 6 39 4 44 -24
4 -16 15 -33 25 -39 16 -9 18 -4 17 61 0 76 -17 101 -34 54 -8 -18 -20 -27
-48 -32 -34 -6 -40 -4 -69 30 -32 37 -52 44 -72 24 -8 -8 -15 -8 -27 2 -21 17
-23 14 -27 -50 l-3 -55 -37 -3 c-49 -4 -82 26 -68 62 10 26 -1 43 -20 31 -5
-3 -21 2 -36 11 -21 15 -31 16 -58 6 -18 -7 -35 -12 -39 -12 -4 0 -7 682 -7
1515 l0 1515 2629 0 c2602 0 2629 0 2624 -20 -3 -10 5 -42 18 -70 18 -39 33
-57 61 -71 l38 -20 10 26 c15 41 12 60 -15 85 -14 13 -25 34 -25 47 l0 23 920
0 920 0 0 1775 0 1775 -3600 0 -3600 0 0 -6400z m6795 3679 c153 -68 200 -265
96 -404 -25 -34 -27 -41 -14 -50 23 -17 -3 -53 -49 -67 -30 -9 -45 -8 -80 5
-34 13 -55 15 -98 8 -30 -5 -63 -13 -73 -16 -53 -21 -137 34 -107 70 11 13 9
19 -8 38 -85 90 -82 268 6 360 77 82 216 105 327 56z m-652 5 c52 -18 116 -76
143 -132 28 -55 26 -174 -4 -229 -50 -95 -136 -143 -256 -143 -209 0 -331 220
-222 402 25 42 43 59 94 85 54 28 75 33 131 33 37 0 88 -7 114 -16z m-5834
-111 c15 -56 71 -300 71 -307 0 -3 -15 -6 -33 -6 -28 0 -34 4 -42 33 -9 29
-14 32 -49 32 -36 0 -40 -3 -48 -32 -8 -29 -13 -33 -42 -33 l-34 0 14 58 c7
31 26 110 41 175 l27 117 43 0 c40 0 43 -2 52 -37z m401 -55 l1 -93 30 38 c23
27 39 37 60 37 16 0 29 -3 29 -6 0 -4 -16 -28 -35 -53 -30 -41 -33 -50 -21
-67 7 -10 25 -40 40 -66 l27 -48 -35 0 c-30 0 -38 5 -57 40 -13 22 -26 40 -31
40 -4 0 -8 -18 -8 -40 0 -38 -2 -40 -30 -40 l-30 0 0 175 0 175 30 0 30 0 0
-92z m1740 -83 l0 -176 -42 1 c-24 1 -55 -1 -69 -5 -19 -5 -33 -1 -55 18 -28
24 -29 29 -29 106 1 69 4 85 22 102 22 22 54 28 91 15 21 -7 22 -5 22 53 l0
61 30 0 30 0 0 -175z m452 83 l3 -92 25 37 c20 30 31 37 58 37 30 0 42 -12 24
-24 -5 -3 -21 -23 -36 -44 l-27 -40 40 -66 41 -66 -35 0 c-30 0 -38 5 -57 40
-13 22 -26 40 -30 40 -5 0 -8 -18 -8 -40 0 -39 -1 -40 -35 -40 l-35 0 0 168
c0 93 3 172 7 175 3 4 19 7 34 7 l28 0 3 -92z m728 28 l0 -65 35 15 c28 11 40
12 58 3 34 -18 37 -27 37 -136 l0 -103 -30 0 -30 0 0 90 c0 75 -3 92 -16 97
-37 14 -49 -10 -52 -101 l-3 -86 -29 0 -30 0 0 175 0 175 30 0 30 0 0 -64z
m530 3 c0 -58 1 -60 23 -53 76 26 107 -8 107 -118 0 -71 -2 -81 -26 -105 -21
-21 -31 -24 -57 -18 -18 4 -49 6 -69 6 l-38 -2 0 176 0 175 30 0 30 0 0 -61z
m-1482 -11 c3 -35 6 -38 33 -38 24 0 29 -4 29 -25 0 -21 -5 -25 -30 -25 l-31
0 3 -67 c3 -66 4 -68 31 -71 21 -3 27 -8 23 -19 -3 -8 -6 -19 -6 -24 0 -16
-73 -10 -92 8 -14 13 -18 31 -18 90 0 66 -2 75 -20 80 -13 3 -20 14 -20 29 0
17 6 24 20 24 17 0 20 7 20 41 0 38 1 40 28 37 23 -3 27 -8 30 -40z m-2094
-58 c24 -24 34 -122 17 -173 -15 -44 -59 -66 -97 -48 -14 6 -27 11 -29 11 -3
0 -5 -29 -5 -65 l0 -65 -30 0 -30 0 0 181 0 182 39 -6 c21 -2 45 -1 52 4 19
12 60 2 83 -21z m402 20 c8 0 23 -9 34 -20 17 -17 20 -33 20 -121 l0 -101 -32
3 c-18 1 -48 -1 -66 -5 -50 -12 -82 13 -82 64 0 44 20 64 83 81 28 7 37 15 35
27 -5 25 -45 27 -58 3 -13 -25 -48 -28 -57 -5 -13 34 56 90 95 78 8 -2 20 -4
28 -4z m293 -1 c38 -14 51 -35 51 -88 l0 -41 -61 0 c-60 0 -60 0 -57 -27 3
-32 44 -46 54 -19 4 10 18 16 35 16 35 0 39 -25 10 -61 -27 -34 -99 -34 -135
0 -23 22 -26 32 -26 96 0 79 20 120 63 128 12 2 25 5 28 6 3 0 20 -4 38 -10z
m199 0 c29 -10 59 -59 45 -73 -15 -15 -51 -5 -56 15 -4 13 -12 20 -24 17 -31
-6 -27 -34 7 -48 78 -32 101 -82 61 -131 -15 -19 -29 -24 -66 -24 -37 0 -51 5
-66 24 -29 36 -25 61 11 61 24 0 30 -4 30 -21 0 -15 5 -20 22 -17 42 6 33 36
-16 58 -54 23 -75 57 -60 98 9 25 45 52 70 52 6 0 25 -5 42 -11z m219 -13 c6
-6 13 -22 15 -36 2 -21 -2 -26 -23 -28 -20 -2 -28 2 -32 18 -4 14 -12 21 -24
18 -29 -5 -21 -32 15 -50 73 -36 92 -81 53 -129 -15 -19 -29 -24 -66 -24 -37
0 -51 5 -66 24 -29 36 -25 61 10 61 21 0 30 -6 34 -21 7 -25 40 -22 45 4 3 12
-9 23 -42 37 -51 21 -70 54 -60 97 12 45 104 65 141 29z m182 13 c17 -6 36
-19 41 -29 6 -10 10 -62 10 -116 l0 -97 -40 6 c-22 3 -43 1 -46 -4 -8 -14 -47
-11 -72 7 -16 11 -22 25 -22 54 0 44 20 64 83 81 28 7 37 15 35 27 -5 25 -45
27 -58 3 -13 -25 -48 -28 -57 -5 -8 23 16 62 46 73 35 13 43 13 80 0z m319
-22 c16 -15 22 -32 22 -64 l0 -43 -61 0 c-60 0 -60 0 -57 -27 3 -32 44 -46 54
-19 8 20 64 22 64 2 0 -69 -102 -98 -158 -45 -19 17 -22 31 -22 98 0 68 3 80
23 98 12 11 29 23 37 26 25 9 73 -4 98 -26z m1000 -3 c19 -21 22 -36 22 -99 0
-70 -1 -74 -32 -100 -27 -23 -39 -26 -71 -22 -59 8 -80 35 -85 107 -3 36 1 72
9 91 24 60 111 73 157 23z m240 9 c8 -11 12 -53 12 -120 l0 -103 -30 0 -30 0
0 90 c0 75 -3 92 -17 97 -32 12 -53 -32 -53 -113 l0 -74 -30 0 -30 0 0 120 0
120 29 0 c16 0 31 -5 33 -12 3 -8 11 -7 29 5 27 20 67 15 87 -10z m530 -9 c15
-17 22 -38 22 -65 l0 -39 -61 0 c-60 0 -60 0 -57 -27 3 -32 44 -46 54 -19 4
10 18 16 35 16 35 0 40 -29 9 -60 -27 -27 -63 -34 -105 -20 -46 15 -55 34 -55
123 0 64 3 76 23 94 12 11 29 23 37 26 28 11 75 -3 98 -29z m542 10 c11 -11
15 -39 15 -117 l0 -102 -32 -3 -33 -3 0 91 c0 72 -3 92 -15 96 -33 13 -45 -15
-45 -102 l0 -84 -35 0 -35 0 0 120 0 120 35 0 c19 0 35 -4 35 -9 0 -6 12 -3
28 4 29 16 58 12 82 -11z m215 -5 c17 -16 21 -36 23 -120 l4 -100 -44 1 c-23
1 -54 -1 -68 -5 -34 -9 -80 27 -80 61 0 42 17 62 70 79 37 12 50 22 50 36 0
26 -36 25 -52 -1 -12 -19 -48 -27 -61 -14 -3 3 -1 19 5 36 20 56 108 72 153
27z m394 20 c36 -13 61 -53 61 -99 l0 -30 -59 0 c-63 0 -76 -8 -66 -40 8 -24
55 -28 55 -5 0 11 11 15 36 15 32 0 35 -2 29 -22 -4 -13 -18 -34 -33 -47 -21
-19 -33 -22 -65 -18 -60 8 -80 35 -85 109 -5 79 9 115 50 133 41 17 38 17 77
4z m204 -3 c15 -8 27 -11 27 -5 0 5 14 9 31 9 l30 0 -3 -154 c-3 -134 -5 -157
-22 -175 -42 -46 -144 -35 -166 19 -7 16 -9 34 -5 39 10 18 44 12 57 -9 27
-42 78 -15 78 41 0 18 -3 20 -12 11 -7 -7 -29 -12 -49 -12 -56 0 -79 34 -79
116 0 72 13 107 44 122 29 14 37 14 69 -2z m285 -22 c19 -22 22 -36 22 -120
l0 -95 -42 1 c-24 1 -54 -1 -68 -5 -36 -9 -80 27 -80 65 0 27 32 70 52 70 5 0
24 7 43 14 25 11 33 19 29 30 -9 22 -41 20 -56 -4 -18 -29 -58 -27 -58 3 0 73
105 101 158 41z m-3048 -94 l0 -120 -35 0 -35 0 0 113 c0 63 3 117 7 120 3 4
19 7 35 7 l28 0 0 -120z m2280 63 c19 -90 25 -92 45 -14 18 68 20 71 48 71 28
0 29 -2 23 -33 -3 -19 -25 -99 -49 -178 l-42 -144 -34 -3 c-28 -3 -33 -1 -27
14 28 74 28 99 -3 207 -18 59 -34 113 -37 122 -5 12 2 15 28 15 34 0 35 -1 48
-57z m-2472 -3984 c17 -72 15 -135 -8 -223 -21 -83 -47 -124 -96 -151 -29 -17
-32 -17 -85 7 -47 22 -111 49 -187 79 -22 8 -39 35 -30 44 3 3 27 -2 54 -10
27 -8 57 -15 67 -15 17 0 17 2 -2 29 -12 16 -21 31 -21 34 0 3 37 17 83 31
134 41 197 102 197 190 0 52 15 44 28 -15z m446 -770 c158 -105 270 -431 290
-843 5 -108 -1 -112 -28 -21 -51 172 -126 167 -306 -19 -90 -93 -201 -182
-306 -243 -35 -20 -62 -39 -59 -41 5 -6 142 78 213 130 31 23 102 88 157 144
107 110 154 144 198 144 37 0 61 -27 82 -91 10 -30 25 -72 35 -94 26 -59 33
-366 14 -595 -28 -336 -112 -728 -191 -884 -68 -134 -250 -284 -618 -507 -168
-102 -238 -118 -368 -84 -78 20 -92 19 -135 -10 -26 -18 -50 -25 -84 -25 -45
0 -47 1 -59 37 -17 53 -46 93 -130 180 -48 51 -90 84 -126 100 -30 14 -57 22
-60 19 -4 -3 -1 -6 5 -6 7 0 12 -4 12 -9 0 -11 -69 -36 -76 -28 -3 3 4 23 15
44 23 45 70 90 135 128 37 22 51 39 80 99 40 85 70 112 134 122 49 7 92 40 92
71 1 28 37 132 60 168 25 41 50 57 120 80 30 10 67 24 83 32 27 14 28 13 47
-32 30 -69 41 -53 14 20 -13 36 -24 74 -24 85 0 28 50 183 63 197 7 7 41 17
76 22 95 15 158 58 306 206 110 111 208 225 192 225 -2 0 -32 -33 -65 -74
-123 -149 -313 -316 -358 -316 -32 0 -38 197 -9 360 19 113 26 130 188 440 84
162 132 269 124 277 -3 2 -12 -13 -21 -34 -38 -86 -261 -532 -267 -533 -17 -1
40 329 96 558 50 200 98 341 147 434 49 91 180 198 244 198 11 0 42 -14 68
-31z m-2073 -2465 c6 -3 27 -40 46 -82 26 -55 57 -98 108 -152 65 -68 102
-117 93 -124 -2 -2 -16 -8 -33 -14 -16 -6 -23 -11 -13 -11 36 -2 170 29 230
53 36 14 74 26 85 26 10 0 40 7 65 16 45 15 48 14 95 -9 42 -22 173 -144 173
-162 0 -3 -12 -18 -26 -33 -14 -15 -33 -39 -42 -54 l-16 -28 -293 0 c-270 0
-317 4 -283 25 5 3 10 12 10 18 0 7 -10 0 -21 -15 -20 -26 -25 -28 -100 -28
l-80 0 51 68 c28 37 63 73 77 80 13 8 23 16 20 19 -13 12 -60 -28 -112 -94
-42 -55 -62 -73 -81 -73 -32 0 -30 7 9 48 24 26 27 32 10 23 -12 -6 -30 -24
-39 -41 l-18 -29 -114 0 c-102 0 -113 2 -108 17 22 84 56 323 56 399 0 34 5
72 11 85 12 27 63 65 105 78 30 10 116 6 135 -6z m-456 -216 c11 -64 34 -109
76 -150 21 -21 41 -48 44 -60 6 -23 5 -23 -77 -20 -60 3 -106 -2 -167 -17 -46
-12 -85 -20 -86 -19 -25 39 -27 97 -3 82 6 -4 8 -2 5 3 -8 13 48 97 121 181
61 70 75 70 87 0z m89 -264 l47 -7 -3 -41 -3 -41 -142 -3 -142 -3 17 40 c13
32 24 42 52 50 43 11 112 13 174 5z"/>
<path d="M6613 9773 c-20 -4 -23 -11 -23 -51 l0 -47 85 0 85 0 0 46 c0 40 -3
48 -22 53 -25 6 -90 6 -125 -1z"/>
<path d="M6080 8900 c-11 -11 -20 -15 -20 -9 0 17 -31 -11 -40 -36 -5 -13 -2
-30 8 -47 15 -25 15 -30 0 -62 -15 -29 -15 -36 -3 -46 21 -17 53 -3 70 31 9
16 20 29 25 29 5 0 12 10 16 23 4 12 17 35 30 50 13 16 24 35 24 43 0 8 6 14
13 14 7 0 4 7 -7 15 -29 22 -92 19 -116 -5z"/>
<path d="M6344 8812 c-20 -24 -45 -67 -56 -96 -25 -64 -45 -86 -138 -149 -80
-54 -132 -107 -137 -141 -2 -12 -16 -46 -32 -77 -16 -30 -36 -76 -45 -102 -15
-45 -15 -48 11 -99 35 -71 61 -98 95 -98 22 0 29 6 34 28 9 33 20 42 60 42 38
0 69 -30 59 -59 -5 -16 -16 -21 -43 -23 -20 -1 -46 -2 -56 -2 -14 -1 -20 -10
-21 -31 -2 -17 -6 -53 -10 -82 -10 -69 1 -125 23 -121 12 2 21 22 30 67 14 74
25 91 58 91 12 0 39 9 58 21 63 37 97 14 111 -75 6 -36 8 -38 36 -32 16 3 43
16 59 28 28 20 34 21 75 10 60 -16 80 -15 95 3 16 19 31 95 19 95 -10 0 -39
54 -39 73 0 21 51 77 71 77 11 0 19 3 19 8 0 4 15 14 32 21 31 14 67 48 68 64
0 4 -33 7 -72 8 -99 1 -122 9 -126 40 -2 20 9 39 47 78 50 52 61 74 41 86 -5
3 -10 19 -10 34 0 16 -7 34 -15 41 -11 9 -14 33 -13 97 2 82 1 87 -26 109 -23
21 -34 25 -61 24 -16 -1 -67 34 -80 54 -10 15 -28 25 -50 28 -30 3 -38 -1 -71
-40z"/>
<path d="M7143 8360 c-42 -17 -54 -80 -18 -93 21 -8 7 -44 -26 -68 -16 -11
-29 -27 -29 -35 0 -8 -4 -14 -9 -14 -5 0 -16 -6 -23 -12 -26 -26 -67 -40 -98
-36 -66 10 -107 -95 -59 -156 25 -31 63 -34 99 -6 14 11 41 20 62 20 32 0 39
-4 44 -25 4 -15 1 -53 -5 -86 -7 -34 -12 -103 -12 -154 1 -80 -2 -96 -21 -120
-19 -25 -26 -27 -70 -22 -34 4 -48 2 -49 -6 -1 -7 -2 -17 -3 -23 0 -7 -19 -36
-40 -66 -34 -47 -48 -57 -101 -76 -46 -16 -74 -20 -116 -15 -52 5 -56 4 -106
-36 -29 -22 -57 -41 -63 -41 -6 0 -25 -7 -41 -16 -37 -19 -93 -23 -138 -11
-24 6 -44 5 -70 -6 -20 -8 -54 -20 -76 -27 -22 -7 -58 -26 -79 -41 -51 -37
-77 -36 -115 2 -43 42 -75 37 -103 -16 -11 -22 -24 -47 -29 -55 -44 -77 -53
-107 -51 -181 0 -42 8 -109 17 -150 20 -99 19 -191 -6 -388 -11 -92 -19 -193
-17 -225 4 -53 8 -63 39 -89 77 -65 78 -66 113 -24 29 34 39 39 101 48 79 11
100 26 110 76 3 19 11 47 16 61 l10 27 19 -25 c11 -14 20 -33 20 -42 0 -10 13
-32 29 -50 24 -27 38 -33 82 -38 l54 -5 40 -78 40 -78 -21 -17 c-11 -10 -51
-24 -87 -31 -37 -7 -67 -16 -67 -21 0 -18 -81 -29 -180 -23 -104 6 -107 5
-134 -20 -21 -20 -29 -39 -36 -86 -6 -41 -18 -74 -40 -107 -27 -39 -32 -53
-28 -88 7 -60 53 -136 83 -136 28 0 38 12 61 70 31 79 100 156 155 170 21 6
39 14 41 18 8 18 68 51 123 67 33 9 67 23 76 31 8 7 39 17 69 21 52 8 55 10
61 43 9 42 32 60 79 60 49 0 70 -18 72 -60 1 -39 -25 -98 -48 -107 -8 -3 -27
-17 -43 -30 -26 -23 -28 -28 -19 -68 5 -24 8 -63 6 -87 -3 -41 -4 -43 -43 -51
-118 -24 -145 -33 -202 -67 -73 -44 -108 -72 -149 -123 l-30 -37 27 -56 c31
-65 41 -74 90 -74 27 0 50 11 99 49 35 27 74 51 87 54 28 5 73 -13 73 -30 0
-6 11 -25 25 -41 22 -26 23 -31 10 -49 -8 -11 -36 -30 -64 -42 -27 -11 -55
-27 -63 -34 -7 -7 -29 -18 -48 -24 -151 -49 -218 -78 -250 -109 -19 -18 -45
-42 -57 -51 -43 -35 -48 -135 -9 -177 26 -29 76 -35 95 -12 8 9 33 14 74 14
34 -1 86 7 115 17 46 15 55 16 63 4 14 -22 11 -46 -12 -100 -16 -37 -28 -51
-48 -55 -29 -6 -56 -17 -86 -36 -47 -30 -60 -44 -62 -68 -5 -58 -10 -69 -56
-119 -39 -45 -51 -52 -72 -47 -13 3 -30 16 -36 29 -17 32 -18 32 -32 13 -9
-12 -32 -19 -74 -23 -59 -5 -62 -5 -67 18 -13 63 -13 119 0 138 15 20 14 138
-1 173 -12 29 -67 57 -105 54 -28 -3 -41 -11 -63 -43 -24 -33 -27 -46 -22 -76
7 -34 10 -37 60 -47 30 -6 62 -10 71 -8 14 2 19 -5 22 -38 3 -37 1 -42 -22
-48 -14 -3 -44 -3 -66 0 -30 5 -40 11 -40 26 0 16 -2 17 -14 6 -8 -7 -12 -15
-11 -17 2 -2 -4 -26 -15 -55 -34 -95 -35 -112 -3 -142 25 -23 34 -26 83 -21
30 3 64 8 75 12 16 5 17 5 5 -3 -18 -14 -29 -212 -11 -212 6 0 11 -7 11 -15 0
-8 8 -15 18 -15 34 0 72 -62 72 -117 1 -60 15 -72 118 -99 37 -10 59 -11 72
-4 22 12 70 10 70 -3 0 -17 -23 -51 -51 -74 -17 -15 -31 -38 -35 -61 -4 -20
-13 -49 -20 -64 -8 -16 -11 -39 -7 -58 3 -18 2 -35 -4 -39 -24 -16 -43 -92
-37 -147 5 -38 10 -51 16 -42 8 10 11 10 15 1 2 -7 12 -13 20 -13 12 0 14 -7
8 -37 -4 -21 -9 -111 -12 -200 -2 -90 -7 -163 -11 -163 -4 0 -7 -24 -8 -53 -1
-34 -10 -72 -27 -109 -15 -31 -27 -66 -27 -77 0 -12 -4 -21 -9 -21 -17 0 -61
-89 -61 -123 0 -40 -14 -88 -41 -138 -21 -40 -25 -112 -9 -153 12 -33 40 -33
78 -1 17 14 34 25 40 25 5 0 15 15 22 32 14 34 104 128 124 128 21 0 127 112
143 150 8 19 26 31 69 45 33 11 64 23 69 27 6 4 30 10 53 14 26 4 47 14 53 25
13 26 90 69 125 70 52 3 60 9 83 59 19 43 22 62 18 137 -3 49 -9 106 -14 128
-7 31 -5 52 10 95 26 77 33 219 14 295 -8 33 -18 106 -22 161 -9 130 4 162 82
206 29 16 62 42 74 56 26 33 68 62 92 62 10 0 58 40 107 90 l90 90 0 201 0
201 -35 -31 c-34 -30 -166 -123 -209 -148 -28 -17 -61 -16 -75 1 -22 26 -41
127 -41 215 0 78 4 96 34 167 19 43 45 119 57 167 19 76 28 94 66 135 88 92
98 118 71 177 -10 23 -16 25 -79 25 -81 0 -119 12 -119 38 0 30 48 114 87 152
21 20 54 75 80 130 24 52 56 106 71 120 15 14 42 45 60 69 l32 45 0 320 0 321
-24 -30 c-14 -16 -63 -70 -109 -119 -74 -78 -87 -88 -110 -82 -20 5 -28 15
-34 44 -12 64 -9 323 5 363 13 38 36 175 52 323 14 122 28 171 56 202 14 14
41 58 60 97 39 76 84 150 97 155 4 2 7 231 7 508 0 474 -1 504 -17 503 -10 0
-28 -4 -40 -9z"/>
<path d="M4305 8321 c-3 -5 -27 -17 -53 -26 -26 -9 -60 -23 -77 -30 -145 -66
-185 -79 -245 -83 -74 -5 -170 -37 -170 -57 0 -7 -5 -15 -12 -17 -6 -2 5 -12
26 -22 45 -21 136 -23 168 -3 13 8 42 18 65 22 24 4 59 18 78 31 20 13 39 24
43 24 4 0 18 12 32 26 32 34 60 44 126 44 47 0 59 4 80 27 l26 28 -27 22 c-27
24 -50 29 -60 14z"/>
<path d="M5079 7931 c-37 -12 -69 -30 -69 -41 0 -4 17 -14 38 -20 20 -7 41
-16 47 -21 5 -5 15 -9 22 -9 8 0 23 -8 34 -18 11 -11 45 -25 77 -31 31 -7 68
-17 81 -22 26 -11 61 -3 61 13 0 14 -26 34 -78 59 -23 12 -57 35 -74 51 -53
49 -79 57 -139 39z"/>
<path d="M3468 7749 c-6 -4 -56 -7 -111 -7 -54 0 -103 -4 -108 -9 -13 -13 0
-46 26 -65 24 -18 147 -29 161 -15 4 4 24 7 45 7 53 0 129 36 129 60 0 19
-120 43 -142 29z"/>
<path d="M5917 7722 c-10 -10 -17 -35 -17 -55 0 -30 6 -41 36 -63 29 -23 40
-26 62 -18 40 14 56 51 48 107 l-7 47 -53 0 c-39 0 -57 -5 -69 -18z"/>
<path d="M6765 7730 c-11 -5 -43 -9 -71 -9 -84 -1 -167 -21 -203 -48 -28 -22
-32 -30 -28 -57 9 -57 35 -104 64 -119 46 -24 78 -11 136 56 107 125 110 127
150 129 38 1 74 28 62 47 -7 13 -81 13 -110 1z"/>
<path d="M5489 7696 c8 -10 35 -28 60 -41 25 -12 59 -35 74 -49 24 -23 28 -33
26 -69 -3 -32 5 -60 33 -118 21 -42 44 -79 51 -82 8 -3 25 6 38 20 13 14 43
38 66 54 45 31 62 74 49 124 -9 35 -79 99 -145 132 -45 23 -70 28 -131 29 -41
0 -88 4 -105 9 -28 8 -29 7 -16 -9z"/>
<path d="M1338 6113 c8 -116 32 -162 67 -133 17 14 21 95 5 105 -23 14 -8 24
18 11 35 -18 102 -85 102 -103 0 -17 8 -17 26 1 12 13 5 23 -56 78 -73 65
-123 98 -151 98 -13 0 -15 -10 -11 -57z"/>
<path d="M5966 5058 c-11 -6 -64 -19 -119 -29 -135 -24 -147 -33 -147 -110 0
-60 18 -117 45 -139 10 -8 25 -3 62 18 27 16 62 33 78 39 16 5 33 18 39 28 6
11 26 35 43 55 18 19 33 40 33 45 0 6 11 27 25 47 14 20 25 42 25 47 0 14 -60
13 -84 -1z"/>
</g>
</svg>
