<?xml version="1.0" standalone="no"?>
<!DOCTYPE svg PUBLIC "-//W3C//DTD SVG 20010904//EN"
 "http://www.w3.org/TR/2001/REC-SVG-20010904/DTD/svg10.dtd">
<svg version="1.0" xmlns="http://www.w3.org/2000/svg"
 width="720.000000pt" height="1280.000000pt" viewBox="0 0 720.000000 1280.000000"
 preserveAspectRatio="xMidYMid meet">
<metadata>
Created by potrace 1.16, written by Peter Selinger 2001-2019
</metadata>
<g transform="translate(0.000000,1280.000000) scale(0.100000,-0.100000)"
fill="#000000" stroke="none">
<path d="M0 6400 l0 -6400 3600 0 3600 0 0 1025 0 1025 -57 0 c-32 0 -63 4
-68 8 -15 10 -29 63 -61 217 -14 71 -30 138 -35 147 -6 11 -21 18 -39 18 -19
0 -33 7 -40 19 -16 31 -12 37 27 47 37 9 37 9 35 56 -3 40 0 47 18 53 28 9 58
-18 66 -61 7 -38 17 -48 56 -58 29 -7 53 -39 43 -56 -3 -6 -20 -10 -37 -10
-29 0 -30 -1 -25 -42 2 -24 7 -52 10 -63 2 -11 8 -40 12 -65 12 -77 36 -154
53 -167 43 -35 42 -68 42 1025 l0 1039 -24 12 c-17 10 -29 10 -44 2 -26 -14
-86 -14 -137 0 -57 16 -112 78 -121 136 -13 86 32 123 149 123 42 0 78 4 82 9
11 18 -28 80 -61 96 -46 22 -69 19 -107 -15 -37 -32 -65 -38 -85 -18 -21 21
-13 46 25 77 31 26 46 31 88 31 73 0 118 -16 164 -58 28 -26 45 -52 55 -87 13
-45 15 77 15 1153 l0 1202 -42 0 c-23 0 -58 -5 -77 -10 -19 -6 -82 -13 -138
-17 -73 -4 -105 -10 -109 -20 -3 -7 -15 -13 -27 -13 -33 0 -45 -18 -39 -56 4
-25 2 -35 -11 -40 -9 -4 -16 -17 -16 -34 0 -15 -6 -40 -14 -55 -32 -61 -31
-172 5 -514 5 -52 8 -96 5 -98 -2 -3 -51 -8 -108 -12 -102 -8 -103 -7 -142 21
-22 15 -44 28 -50 28 -5 0 -19 8 -30 18 -26 23 -121 62 -150 62 -16 0 -28 -15
-51 -63 -16 -34 -39 -71 -50 -83 -11 -11 -33 -37 -50 -57 -22 -27 -38 -37 -60
-38 -26 0 -27 -2 -10 -9 15 -7 16 -9 4 -9 -9 -1 -22 -7 -29 -15 -16 -21 -139
-66 -177 -66 -18 0 -35 5 -38 10 -3 6 -28 10 -54 10 -33 0 -53 6 -69 20 -12
11 -27 20 -35 20 -8 0 -25 8 -38 19 -13 10 -46 30 -74 45 -27 15 -62 34 -77
44 -15 9 -29 14 -31 12 -3 -3 3 -50 12 -105 l16 -101 25 14 c40 21 150 9 204
-23 67 -39 80 -68 112 -240 9 -49 23 -105 30 -124 8 -18 14 -37 14 -42 0 -12
-57 -11 -81 2 -14 7 -35 7 -73 -2 -45 -10 -61 -9 -102 5 -26 9 -49 14 -51 12
-2 -2 2 -40 10 -85 l14 -81 -28 0 c-33 0 -476 37 -609 51 -52 5 -171 16 -265
24 -93 8 -242 21 -330 29 -146 14 -282 26 -790 71 -93 9 -246 22 -340 30 -93
8 -215 19 -270 25 -55 5 -181 17 -280 25 -302 26 -622 55 -775 70 -80 8 -189
17 -242 21 -54 3 -98 10 -98 14 0 4 7 13 15 20 35 29 35 85 -1 365 -8 66 -18
144 -21 173 -6 56 -8 59 -52 72 -46 13 -51 3 -41 -75 5 -39 12 -92 15 -120 37
-353 36 -328 15 -349 -10 -11 -29 -20 -42 -21 -18 -2 -23 -8 -23 -28 1 -34 37
-35 -365 3 -58 5 -186 16 -285 25 -191 16 -450 40 -602 56 -50 5 -96 9 -102 9
-8 0 -11 132 -11 440 0 412 1 440 18 440 9 0 46 -5 82 -10 36 -5 139 -16 230
-25 91 -9 208 -20 260 -25 52 -5 253 -25 445 -45 193 -20 391 -40 440 -45 388
-38 1124 -113 1230 -125 136 -15 576 -60 925 -95 113 -11 315 -32 450 -45 135
-14 310 -32 390 -40 80 -8 233 -24 340 -35 544 -57 549 -57 518 -39 -29 16
-185 173 -191 191 -4 10 -2 20 4 23 15 10 0 25 -19 18 -9 -3 -25 -15 -35 -27
-21 -24 -23 -32 13 70 20 57 20 58 -33 97 -65 49 -95 137 -62 181 27 35 66 48
140 44 l70 -3 3 32 c5 46 -28 73 -88 73 -37 0 -52 -5 -70 -25 -33 -35 -90 -22
-90 20 0 15 32 51 57 64 32 16 150 3 192 -21 19 -11 38 -15 43 -10 8 8 92 220
153 387 19 50 95 252 170 450 157 416 171 453 193 519 l17 49 -31 26 c-39 33
-68 77 -59 91 13 20 47 9 79 -26 l32 -35 19 40 c14 33 15 43 5 56 -7 8 -20 15
-29 15 -23 0 -103 55 -118 82 -33 59 5 128 70 128 48 0 147 -21 147 -31 0 -5
4 -9 9 -9 4 0 21 35 36 78 15 42 34 84 41 92 12 14 38 85 99 268 13 40 31 87
39 105 20 42 65 161 79 210 l11 37 478 0 478 0 0 1775 0 1775 -3600 0 -3600 0
0 -6400z m6796 3680 c151 -69 198 -267 95 -405 -25 -34 -27 -41 -14 -50 14
-10 14 -14 -2 -38 -22 -35 -90 -46 -136 -23 -33 16 -80 14 -147 -6 -47 -14
-99 -2 -118 28 -13 20 -14 27 -4 39 11 13 9 19 -8 38 -85 90 -82 268 6 360 77
81 220 106 328 57z m-653 4 c29 -10 64 -34 92 -62 124 -125 89 -333 -68 -412
-133 -66 -310 -20 -370 96 -47 91 -44 191 7 276 25 43 43 59 94 85 54 28 75
33 131 33 37 0 88 -7 114 -16z m-5802 -244 c21 -91 39 -168 39 -172 0 -5 -15
-8 -33 -8 -28 0 -34 4 -42 32 -9 29 -14 32 -50 31 -36 0 -40 -3 -47 -31 -8
-28 -13 -32 -42 -32 l-34 0 14 58 c7 31 26 110 41 175 l27 118 44 -3 45 -3 38
-165z m369 78 l1 -93 30 38 c23 27 39 37 60 37 16 0 29 -3 29 -6 0 -4 -16 -28
-35 -53 -30 -41 -33 -50 -21 -67 7 -10 25 -40 40 -66 l27 -48 -35 0 c-30 0
-38 5 -57 40 -26 45 -39 43 -39 -6 0 -31 -2 -34 -30 -34 l-30 0 0 175 0 175
30 0 30 0 0 -92z m1740 -83 l0 -176 -42 1 c-24 1 -55 -1 -69 -5 -19 -5 -33 -1
-55 18 -28 24 -29 29 -28 107 1 68 4 85 21 102 22 21 54 27 91 14 21 -7 22 -5
22 53 l0 61 30 0 30 0 0 -175z m452 83 l3 -92 25 37 c20 30 31 37 58 37 30 0
42 -12 24 -24 -5 -3 -21 -23 -36 -44 l-27 -40 40 -66 41 -66 -34 0 c-28 0 -38
7 -62 43 l-29 42 -3 -42 c-3 -42 -4 -43 -38 -43 l-34 0 0 175 0 175 35 0 34 0
3 -92z m728 27 l0 -66 30 16 c33 17 60 13 85 -11 11 -12 15 -40 15 -120 l0
-104 -30 0 -30 0 0 90 c0 75 -3 92 -16 97 -37 14 -49 -10 -52 -101 l-3 -86
-29 0 -30 0 0 175 0 175 30 0 30 0 0 -65z m530 4 c0 -58 1 -60 23 -53 76 26
107 -8 107 -118 0 -71 -2 -81 -26 -105 -20 -20 -31 -24 -52 -18 -15 4 -46 6
-69 5 l-43 -1 0 176 0 175 30 0 30 0 0 -61z m-1480 -9 c0 -38 2 -40 30 -40 25
0 30 -4 30 -25 0 -21 -5 -25 -30 -25 l-31 0 3 -67 c3 -66 4 -68 31 -71 21 -3
27 -8 23 -19 -3 -8 -6 -19 -6 -24 0 -16 -73 -10 -92 8 -14 13 -18 31 -18 90 0
66 -2 75 -20 80 -13 3 -20 14 -20 29 0 17 6 24 20 24 16 0 20 7 20 33 0 40 6
47 37 47 20 0 23 -5 23 -40z m-2096 -61 c24 -23 34 -121 17 -172 -15 -44 -59
-66 -97 -48 -14 6 -27 11 -29 11 -3 0 -5 -30 -5 -66 l0 -65 -27 3 -28 3 -3
179 -2 179 37 -5 c21 -3 47 -2 58 3 26 10 55 2 79 -22z m405 20 c44 -16 51
-35 51 -143 l0 -96 -47 -1 c-27 0 -60 -1 -75 -1 -40 -1 -58 19 -58 63 0 43 20
63 83 80 28 7 37 15 35 27 -5 26 -48 28 -55 3 -4 -14 -13 -21 -29 -21 -65 0
-15 96 52 99 6 1 25 -4 43 -10z m290 0 c38 -14 51 -35 51 -88 l0 -41 -61 0
c-60 0 -60 0 -57 -27 3 -32 44 -46 54 -19 4 10 18 16 35 16 35 0 39 -25 10
-61 -15 -19 -29 -24 -66 -24 -39 0 -51 5 -71 28 -20 24 -24 39 -24 96 0 75 21
116 63 124 12 2 25 5 28 6 3 0 20 -4 38 -10z m198 0 c32 -12 43 -26 43 -56 0
-31 -45 -33 -53 -3 -7 26 -47 27 -47 1 0 -11 12 -23 30 -31 78 -32 101 -82 61
-131 -15 -19 -29 -24 -66 -24 -37 0 -51 5 -66 24 -29 36 -25 61 11 61 24 0 30
-4 30 -21 0 -15 5 -20 22 -17 40 5 31 32 -19 58 -91 48 -80 135 19 149 4 1 19
-4 35 -10z m191 0 c29 -10 59 -59 45 -73 -15 -15 -51 -5 -56 15 -4 13 -12 20
-24 17 -29 -5 -21 -32 15 -50 73 -36 92 -81 53 -129 -15 -19 -29 -24 -66 -24
-37 0 -51 5 -66 24 -29 36 -25 61 10 61 21 0 30 -6 34 -21 7 -25 40 -22 45 3
2 12 -11 24 -43 39 -74 35 -86 106 -22 134 39 17 37 17 75 4z m211 0 c17 -6
36 -19 41 -29 6 -10 10 -62 10 -115 l0 -97 -32 3 c-18 1 -48 -1 -66 -5 -50
-12 -82 13 -82 64 0 44 20 64 83 81 28 7 37 15 35 27 -5 25 -45 27 -58 3 -13
-24 -48 -28 -56 -6 -8 20 21 64 49 75 30 12 39 12 76 -1z m318 -21 c17 -16 23
-33 23 -65 l0 -43 -61 0 c-60 0 -60 0 -57 -27 3 -32 44 -46 54 -19 8 20 64 22
64 2 0 -69 -102 -98 -158 -45 -19 17 -22 31 -22 98 0 68 3 80 23 98 12 11 29
23 37 26 25 10 73 -2 97 -25z m1001 -4 c18 -21 22 -36 22 -98 0 -65 -3 -75
-26 -97 -35 -33 -104 -34 -136 -2 -27 28 -37 127 -17 174 24 60 111 73 157 23z
m240 8 c8 -10 12 -52 12 -119 l0 -103 -30 0 -30 0 0 90 c0 75 -3 92 -17 97
-32 12 -53 -32 -53 -113 l0 -74 -30 0 -30 0 0 120 0 120 29 0 c16 0 31 -5 33
-11 2 -6 14 -5 33 5 33 17 63 13 83 -12z m529 -4 c17 -16 23 -33 23 -65 l0
-43 -61 0 c-60 0 -60 0 -57 -27 3 -32 44 -46 54 -19 4 10 18 16 35 16 22 0 29
-5 29 -20 0 -42 -64 -79 -115 -66 -52 13 -65 39 -65 124 0 69 3 81 23 99 12
11 29 23 37 26 25 10 73 -2 97 -25z m540 8 c6 -6 13 -57 16 -118 l5 -108 -34
0 -34 0 0 90 c0 72 -3 92 -15 96 -33 13 -45 -15 -45 -102 l0 -84 -35 0 -35 0
0 120 0 120 35 0 c19 0 35 -4 35 -9 0 -6 12 -3 28 4 28 15 58 12 79 -9z m218
-7 c17 -16 21 -35 23 -120 l4 -100 -44 1 c-23 1 -54 -1 -68 -5 -35 -9 -80 27
-80 64 0 39 19 60 70 75 33 10 46 19 48 35 4 28 -33 29 -50 1 -12 -19 -48 -27
-60 -14 -15 14 11 60 43 77 40 20 84 15 114 -14z m400 16 c37 -15 55 -46 55
-96 0 -29 0 -29 -59 -29 -65 0 -73 -5 -64 -38 6 -26 53 -32 53 -7 0 11 11 15
36 15 32 0 35 -2 29 -22 -4 -13 -18 -34 -33 -47 -21 -19 -33 -22 -65 -18 -59
8 -80 35 -85 107 -5 75 11 118 52 136 39 17 40 17 81 -1z m198 1 c15 -8 27
-11 27 -5 0 5 14 9 31 9 l30 0 -3 -154 c-3 -134 -5 -157 -22 -175 -42 -46
-144 -35 -166 19 -7 16 -9 34 -5 39 10 18 44 12 57 -9 27 -42 78 -15 78 41 0
18 -3 20 -12 11 -7 -7 -29 -12 -49 -12 -56 0 -79 34 -79 116 0 72 13 107 44
122 29 14 37 14 69 -2z m285 -22 c19 -22 22 -36 22 -120 l0 -95 -42 1 c-24 1
-55 -1 -70 -5 -21 -6 -32 -2 -52 18 -48 48 -29 99 44 121 33 10 46 19 48 35 4
28 -33 29 -50 1 -12 -19 -48 -27 -60 -14 -15 14 11 60 43 77 43 22 86 16 117
-19z m-3048 -94 l0 -120 -35 0 -35 0 0 113 c0 63 3 117 7 120 3 4 19 7 35 7
l28 0 0 -120z m2271 103 c0 -10 8 -43 18 -73 l17 -55 19 73 c18 70 20 72 51
72 l32 0 -24 -82 c-79 -281 -76 -273 -113 -276 -28 -3 -33 -1 -27 14 29 76 29
101 -4 209 -17 59 -34 113 -37 121 -4 10 4 14 31 14 27 0 36 -4 37 -17z
m-4417 -694 c3 -33 8 -65 12 -70 7 -12 52 12 94 53 50 48 82 62 126 55 20 -3
39 -9 43 -13 3 -3 -14 -23 -38 -43 -101 -82 -114 -97 -105 -113 7 -13 120
-140 187 -210 35 -37 15 -47 -53 -28 -22 7 -47 26 -67 53 -76 99 -119 139
-144 135 -22 -3 -24 -8 -29 -78 l-5 -75 -29 2 c-57 4 -56 1 -71 198 -3 39 -8
98 -11 133 l-6 62 44 0 45 0 7 -61z m3306 54 c0 -50 46 -385 90 -658 17 -102
26 -183 21 -188 -5 -5 -25 -4 -46 3 -20 7 -74 13 -120 14 -76 1 -87 4 -127 32
-79 57 -118 135 -118 235 1 61 13 88 53 120 25 19 36 21 90 15 33 -3 71 -13
83 -21 41 -27 47 -20 39 43 -5 31 -10 73 -12 92 -2 19 -10 85 -18 145 -8 61
-14 125 -15 143 0 31 1 32 40 32 22 0 40 -3 40 -7z m205 -55 c25 -237 55 -437
66 -444 5 -3 44 -6 88 -7 72 -2 83 -5 117 -33 21 -17 47 -46 57 -65 19 -32 57
-223 57 -282 0 -26 -2 -28 -37 -25 l-38 3 -11 65 c-6 36 -17 100 -24 144 -12
68 -18 82 -49 113 -32 31 -40 34 -76 30 -51 -7 -79 -39 -71 -82 4 -16 13 -75
22 -129 12 -80 12 -101 2 -108 -13 -8 -47 -2 -61 12 -16 15 -102 574 -124 803
l-6 67 41 0 40 0 7 -62z m1349 40 c3 -13 10 -61 15 -108 30 -252 64 -490 87
-604 14 -71 27 -148 30 -170 3 -23 12 -68 19 -101 8 -33 10 -64 5 -69 -4 -4
-22 -5 -38 -1 -34 7 -32 0 -72 215 -11 63 -27 147 -35 185 -7 39 -21 129 -30
200 -9 72 -28 203 -41 293 -13 89 -24 167 -24 172 0 6 18 10 40 10 33 0 40 -4
44 -22z m-4208 -69 c85 -40 142 -114 157 -205 10 -58 9 -68 -11 -109 -39 -81
-106 -101 -234 -71 -143 33 -236 187 -193 316 13 40 25 55 58 75 38 24 49 25
112 20 39 -3 88 -15 111 -26z m1310 -24 c15 -10 23 -30 28 -72 3 -32 11 -92
17 -133 6 -41 11 -80 12 -87 0 -6 7 -8 16 -5 16 6 120 89 132 106 7 8 74 0 93
-11 4 -3 -24 -36 -64 -74 l-73 -68 43 -48 c24 -27 74 -81 112 -120 37 -40 68
-75 68 -78 0 -3 -19 -5 -41 -5 -39 0 -46 5 -103 67 -119 132 -123 135 -145
124 -18 -10 -19 -18 -14 -81 l6 -70 -36 0 c-20 0 -39 5 -43 11 -4 6 -13 57
-20 113 -28 215 -54 402 -59 414 -12 33 34 44 71 17z m-780 -49 c4 -12 20 -14
73 -9 74 6 104 -9 94 -47 -5 -18 -40 -27 -89 -21 -6 1 -19 -8 -28 -18 -16 -18
-17 -27 -7 -88 27 -171 30 -196 25 -204 -8 -14 -70 -11 -81 4 -10 11 -27 128
-38 267 -3 36 -8 75 -11 88 -2 13 -2 27 1 32 9 15 55 12 61 -4z m517 -79 c59
-35 89 -67 121 -132 25 -48 28 -64 23 -115 -3 -32 -12 -68 -20 -80 -54 -77
-176 -83 -292 -15 -130 76 -169 281 -67 351 33 22 45 24 115 20 59 -3 87 -10
120 -29z m852 -108 c57 -16 99 -51 133 -111 38 -68 49 -116 28 -124 -8 -3 -71
1 -138 10 -154 20 -148 20 -148 -4 0 -30 70 -96 115 -109 52 -14 64 -14 99 4
35 19 60 19 75 1 25 -30 -13 -63 -83 -72 -97 -14 -226 52 -275 141 -54 95 -48
182 17 243 30 27 42 32 86 32 28 0 69 -5 91 -11z m1660 -251 c54 -35 87 -73
118 -137 60 -122 14 -225 -103 -234 -143 -12 -284 121 -285 268 0 104 39 137
155 132 60 -3 83 -9 115 -29z m447 -54 c76 -39 147 -134 161 -214 10 -53 -8
-111 -43 -142 -35 -33 -96 -37 -174 -14 -130 39 -224 219 -171 330 25 52 60
68 134 61 35 -3 77 -13 93 -21z m-4921 -264 c46 -13 110 -69 143 -124 27 -46
44 -120 30 -128 -5 -3 -63 0 -129 7 -66 7 -122 13 -125 13 -3 0 -8 1 -12 2 -5
1 -14 3 -20 4 -7 0 -14 16 -16 35 l-3 34 58 -6 c32 -4 77 -9 101 -13 38 -6 42
-5 42 15 0 12 -17 40 -38 63 -37 40 -40 41 -100 40 l-62 -1 0 35 c0 34 0 34
48 34 26 0 63 -5 83 -10z m573 -85 c12 -12 29 -14 83 -9 144 13 221 -36 248
-159 13 -60 35 -269 30 -278 -4 -5 -22 -9 -41 -9 -45 0 -49 10 -69 179 -8 73
-20 141 -24 150 -22 39 -51 55 -107 55 -84 1 -92 -14 -81 -140 4 -54 9 -121
10 -149 2 -49 1 -50 -29 -53 -51 -5 -60 13 -73 155 -6 70 -14 156 -17 190 -4
34 -3 66 1 72 9 16 51 13 69 -4z m1240 -58 c14 -10 21 -30 25 -79 1 -4 19 -12
40 -18 40 -11 55 -29 45 -55 -4 -10 -14 -13 -29 -9 -38 9 -43 -16 -29 -134 16
-129 28 -160 63 -168 48 -10 52 -14 49 -36 -3 -21 -8 -23 -54 -22 -65 2 -110
33 -124 83 -5 20 -16 89 -24 154 -8 66 -20 125 -26 132 -6 7 -26 16 -45 19
-19 4 -36 11 -36 16 -5 31 -1 35 36 40 37 5 40 7 38 35 -2 17 -1 36 2 43 6 16
46 16 69 -1z m-576 -17 c24 -6 49 -15 55 -20 81 -65 85 -69 95 -133 6 -34 14
-93 18 -132 4 -38 13 -87 20 -109 8 -21 14 -40 14 -42 0 -13 -72 -1 -91 14
-21 17 -26 18 -68 5 -52 -16 -103 -11 -158 15 -54 25 -72 42 -94 90 -24 52
-19 89 17 123 24 22 34 24 135 25 60 0 112 3 115 6 3 3 -1 22 -10 41 -27 67
-119 89 -174 42 -47 -39 -107 -30 -100 15 1 13 12 28 23 34 10 6 25 17 33 24
16 14 109 16 170 2z m850 -116 c15 -10 22 -25 22 -48 0 -18 4 -57 10 -87 5
-30 11 -74 14 -99 6 -61 20 -95 48 -114 28 -20 90 -21 128 -1 36 18 37 37 15
190 -20 136 -20 135 12 135 34 0 63 -26 63 -57 0 -13 9 -74 19 -136 11 -62 22
-138 25 -169 l6 -58 -32 0 c-18 0 -41 7 -52 15 -13 10 -24 11 -37 5 -27 -15
-100 -12 -150 5 -55 20 -96 55 -114 99 -12 28 -45 266 -45 322 0 19 40 18 68
-2z m-2161 -74 c32 -25 120 -27 165 -4 24 13 36 14 55 5 32 -15 26 -40 -16
-68 -39 -26 -102 -30 -179 -12 -59 15 -82 34 -82 71 0 34 20 37 57 8z m2856
-12 c12 -7 60 -12 107 -13 69 0 91 -4 120 -22 47 -29 94 -81 108 -118 43 -116
39 -200 -13 -252 -28 -28 -40 -33 -83 -33 -27 0 -69 7 -92 15 -24 8 -46 12
-49 9 -3 -3 -6 -40 -6 -82 0 -69 -2 -77 -20 -80 -49 -7 -54 9 -96 293 -21 149
-37 276 -34 283 6 15 30 15 58 0z m1776 -72 c7 -8 14 -31 17 -53 4 -21 24
-136 45 -256 21 -119 39 -224 39 -232 0 -10 -11 -15 -35 -15 -28 0 -37 5 -44
23 -12 32 -99 530 -94 540 7 12 60 8 72 -7z m-1063 -29 c64 -33 93 -78 106
-164 5 -37 16 -99 24 -138 8 -38 15 -77 17 -85 3 -21 -49 -25 -79 -6 -20 14
-31 15 -70 5 -38 -10 -55 -9 -102 5 -90 28 -142 84 -142 154 0 73 63 105 179
89 76 -10 90 -2 71 42 -15 36 -44 57 -94 66 -30 6 -44 3 -76 -19 -52 -34 -78
-34 -86 1 -6 22 -1 32 27 56 32 27 38 29 105 24 49 -4 87 -13 120 -30z m230
-34 c11 -16 36 -59 56 -98 57 -113 85 -160 95 -158 8 2 33 95 49 188 l9 50 38
-1 c54 -2 60 -12 42 -65 -9 -24 -18 -62 -21 -84 -3 -22 -9 -51 -14 -65 -5 -14
-19 -68 -31 -120 -40 -173 -74 -218 -153 -200 -67 15 -77 63 -14 68 43 4 69
29 70 70 1 26 -73 179 -181 372 -17 30 -31 58 -31 63 0 4 15 7 33 7 25 0 38
-7 53 -27z m579 -62 c81 -38 95 -66 145 -296 9 -44 20 -88 24 -97 7 -15 3 -18
-20 -18 -16 0 -42 7 -58 15 -23 12 -36 13 -69 4 -55 -15 -154 11 -189 49 -50
54 -63 87 -50 129 18 61 56 77 158 69 72 -5 84 -4 84 9 0 32 -32 77 -65 91
-47 19 -63 18 -101 -11 -34 -26 -78 -33 -89 -14 -12 19 5 58 33 73 39 22 147
20 197 -3z m-3883 -408 c9 -10 19 -33 23 -50 7 -37 15 -43 59 -53 25 -4 31
-11 31 -30 0 -21 -6 -26 -35 -30 -44 -6 -46 -17 -27 -173 15 -124 25 -147 63
-147 29 0 58 -38 42 -57 -22 -27 -121 -8 -155 29 -24 26 -38 88 -54 243 -11
109 -17 125 -52 125 -30 0 -57 19 -57 40 0 12 7 21 18 21 9 1 24 3 32 4 8 1
21 3 28 4 8 0 12 13 10 34 -1 18 2 38 6 45 11 18 51 15 68 -5z m-317 -69 c50
-29 90 -71 99 -104 3 -14 9 -52 12 -85 5 -61 19 -163 30 -222 6 -32 5 -33 -29
-33 -20 0 -46 9 -61 21 -20 16 -30 19 -39 10 -29 -29 -216 -5 -239 32 -4 7 -8
56 -8 109 l0 97 31 16 c25 13 48 15 120 9 l89 -7 0 26 c0 17 -13 39 -35 62
-30 29 -43 35 -80 35 -32 0 -51 -7 -73 -25 -44 -37 -52 -32 -52 29 0 54 0 55
33 58 69 8 162 -5 202 -28z m831 -97 c75 -47 96 -86 108 -197 3 -25 8 -72 11
-105 4 -33 13 -74 20 -92 7 -17 11 -34 7 -37 -11 -12 -68 -6 -90 10 -19 13
-30 14 -77 3 -46 -10 -63 -9 -117 5 -70 20 -107 49 -138 109 -18 33 -19 44
-10 73 7 19 28 47 48 62 34 26 39 27 139 24 l104 -3 -5 24 c-7 41 -29 66 -69
82 -48 19 -98 11 -128 -21 -27 -29 -60 -31 -84 -4 -16 18 -16 22 -2 43 28 44
73 58 163 54 64 -4 89 -10 120 -30z m501 -55 c36 -19 92 -72 94 -90 0 -4 2
-16 4 -27 2 -11 8 -58 15 -105 7 -47 18 -110 26 -141 8 -30 14 -58 14 -62 0
-12 -64 -7 -91 7 -20 10 -37 11 -78 3 -161 -33 -308 93 -246 213 20 39 69 53
176 51 l89 -2 0 26 c0 57 -47 95 -119 95 -31 0 -45 -6 -68 -30 -31 -33 -63
-38 -87 -14 -9 8 -16 18 -16 20 0 17 26 48 53 65 27 17 44 20 112 16 55 -3 94
-11 122 -25z m255 -29 c9 -10 28 -45 43 -78 15 -33 40 -87 56 -121 16 -33 29
-66 29 -72 0 -7 7 -12 15 -12 8 0 19 17 26 43 6 23 15 52 20 65 5 13 9 33 9
45 0 28 23 94 37 108 12 12 69 3 78 -11 3 -5 -2 -35 -11 -67 -44 -166 -85
-313 -107 -392 -6 -23 -27 -58 -45 -77 -27 -28 -41 -34 -73 -34 -53 0 -79 15
-79 45 0 21 6 26 40 31 47 8 80 42 80 84 0 27 -196 431 -212 438 -23 10 -3 22
35 22 29 0 49 -6 59 -17z m665 -70 c65 -30 126 -114 137 -191 5 -32 3 -44 -8
-48 -8 -3 -76 2 -150 11 -170 20 -178 17 -130 -55 47 -70 151 -101 214 -63 24
14 34 15 55 5 32 -15 30 -38 -7 -65 -35 -26 -154 -28 -212 -3 -97 41 -163 124
-177 221 -13 94 6 142 76 189 36 25 44 26 105 20 36 -3 79 -13 97 -21z m715
-84 c78 -40 99 -80 119 -234 6 -49 17 -105 25 -124 23 -55 19 -71 -18 -71 -18
0 -41 9 -53 20 -20 19 -24 19 -51 5 -102 -53 -274 44 -274 155 0 45 16 70 58
87 34 14 136 19 171 8 9 -2 22 -1 29 4 11 7 11 14 -1 43 -29 69 -118 91 -175
43 -37 -31 -78 -33 -87 -5 -10 32 2 54 43 78 32 19 46 21 107 16 39 -4 87 -15
107 -25z m765 8 c6 -7 15 -28 20 -46 7 -28 16 -37 41 -43 57 -15 62 -62 7 -63
-18 0 -20 -6 -17 -65 3 -76 29 -211 43 -224 5 -6 24 -15 41 -20 34 -11 48 -40
30 -58 -18 -18 -101 1 -133 30 -32 29 -50 94 -69 250 -11 86 -18 98 -65 106
-21 4 -36 14 -40 26 -9 29 2 40 42 40 l36 0 -7 38 c-3 22 -3 42 1 46 10 9 55
-2 70 -17z m-323 -48 c21 -6 57 -28 81 -50 46 -43 52 -58 76 -214 7 -44 18
-97 26 -119 7 -21 10 -42 7 -47 -8 -14 -47 -11 -72 7 -19 13 -31 14 -79 4
-101 -21 -184 12 -233 92 -38 62 -21 126 41 153 30 14 55 17 112 12 94 -7 108
1 84 46 -39 71 -124 89 -177 37 -35 -34 -34 -34 -63 -19 -31 16 -37 30 -26 51
28 52 129 73 223 47z m598 -77 c4 -4 16 -59 26 -122 50 -293 50 -290 11 -290
-42 0 -56 17 -64 77 -3 32 -17 121 -30 197 -13 77 -21 144 -18 149 6 10 62 2
75 -11z m387 -46 c5 -4 29 -46 53 -94 25 -48 50 -96 56 -107 7 -11 17 -33 22
-49 l11 -29 15 22 c9 12 20 52 25 89 15 111 30 152 55 152 35 0 54 -11 54 -31
0 -10 -11 -71 -25 -136 -78 -376 -74 -362 -124 -388 -17 -8 -40 -10 -66 -6
-34 5 -40 10 -43 33 -3 24 1 28 33 34 63 12 84 75 46 144 -10 19 -35 67 -54
105 -20 39 -61 115 -91 170 -36 64 -51 102 -44 106 10 7 57 -3 77 -15z m1456
-1125 c80 -37 90 -56 144 -291 11 -47 22 -95 26 -107 7 -21 4 -23 -32 -23 -21
0 -44 5 -50 11 -9 9 -20 9 -44 0 -70 -24 -151 -6 -205 47 -39 38 -54 69 -54
113 0 72 47 102 155 98 41 -2 77 0 81 4 11 11 -17 66 -44 87 -36 29 -84 26
-123 -7 -32 -27 -62 -31 -86 -11 -15 12 3 67 26 76 9 3 22 12 30 20 19 18 119
8 176 -17z m259 -26 c13 -10 35 -12 81 -8 34 3 79 3 98 -1 46 -9 102 -67 122
-126 26 -78 65 -294 56 -303 -14 -14 -69 2 -75 21 -3 10 -8 31 -10 47 -6 48
-37 197 -47 232 -18 57 -106 91 -160 63 -24 -14 -25 -50 0 -171 10 -52 22
-111 25 -131 l7 -38 -36 0 c-45 0 -45 1 -86 205 -46 230 -46 225 -18 225 13 0
32 -7 43 -15z m645 -68 c53 -30 70 -46 107 -104 42 -66 62 -158 45 -213 -18
-60 -61 -90 -129 -90 -62 0 -117 16 -146 43 -11 9 -23 17 -27 17 -9 0 -61 75
-85 122 -24 45 -24 156 -1 191 33 51 74 69 141 61 32 -3 75 -16 95 -27z
m-6823 -413 c41 -17 89 -78 103 -129 5 -22 13 -87 17 -145 3 -58 10 -122 16
-143 6 -28 6 -43 -3 -53 -12 -15 -66 -19 -86 -6 -7 5 -17 54 -23 122 -11 120
-21 205 -26 230 -1 8 -3 18 -3 22 -2 14 -64 40 -110 47 -44 6 -46 8 -49 42
l-3 35 67 -4 c37 -3 82 -11 100 -18z m2182 -1 c5 -10 12 -43 15 -73 9 -73 14
-117 37 -290 11 -80 22 -176 26 -214 l7 -69 -49 8 c-27 4 -88 6 -135 5 -97 -2
-136 10 -193 60 -73 65 -114 206 -86 304 7 26 27 58 49 80 36 35 36 35 118 33
64 -2 86 -6 102 -21 35 -31 41 -10 27 91 -7 51 -11 95 -8 98 3 3 22 5 43 5 26
0 41 -5 47 -17z m-1662 -38 c27 -8 65 -29 85 -47 64 -58 113 -188 83 -218 -8
-8 -58 -7 -168 1 -176 13 -190 10 -165 -38 8 -15 31 -44 51 -64 31 -30 46 -37
94 -42 55 -6 69 -2 127 29 26 14 30 14 48 -2 27 -24 24 -38 -17 -69 -44 -34
-90 -40 -184 -26 -140 22 -227 119 -237 266 -4 59 -2 78 17 117 44 94 144 130
266 93z m352 -39 c7 -6 19 -70 27 -141 8 -72 19 -170 25 -218 6 -48 8 -92 5
-98 -8 -11 -65 -12 -84 0 -8 5 -17 42 -22 97 -33 314 -36 359 -26 372 12 15
54 8 75 -12z m229 -17 c31 -20 38 -20 73 -9 54 18 148 8 198 -21 61 -36 89
-100 102 -235 5 -60 13 -135 16 -166 l7 -58 -40 0 c-22 0 -45 6 -50 13 -10 11
-23 106 -38 270 -6 57 -11 72 -37 97 -16 17 -40 33 -54 36 -34 9 -88 -3 -115
-25 -23 -18 -23 -19 -11 -142 7 -68 15 -145 19 -170 5 -41 3 -47 -16 -52 -12
-3 -34 -2 -49 2 -24 7 -28 14 -38 77 -7 38 -12 94 -13 124 0 30 -7 100 -16
155 -14 93 -14 101 2 113 22 15 20 16 60 -9z m2375 -29 c4 -14 13 -59 20 -100
l13 -75 87 4 c80 3 92 1 131 -22 52 -31 85 -72 116 -147 20 -46 23 -67 19
-136 -3 -59 -10 -90 -25 -114 -11 -17 -24 -32 -29 -32 -5 0 -19 -4 -32 -9 -36
-14 -92 -10 -149 10 -30 10 -58 14 -65 9 -20 -12 -64 -10 -76 5 -10 12 -27
106 -38 210 -3 29 -10 70 -14 93 -5 23 -17 99 -25 169 -9 71 -18 132 -21 137
-11 17 9 29 44 26 29 -2 38 -8 44 -28z m-817 -109 c63 -37 86 -61 124 -137 36
-71 41 -148 15 -213 -63 -159 -330 -121 -419 59 -37 76 -47 143 -28 200 30 89
77 120 183 120 64 0 82 -4 125 -29z m546 -49 c88 -50 144 -154 143 -262 0 -50
-5 -73 -23 -100 -42 -63 -66 -75 -156 -75 -70 1 -87 4 -128 28 -66 39 -90 64
-122 126 -33 66 -44 155 -25 203 38 94 80 120 186 115 57 -3 82 -10 125 -35z
m1235 -98 c50 -28 94 -78 94 -105 0 -32 -55 -25 -93 12 -48 45 -84 62 -122 55
-48 -9 -60 -28 -41 -63 16 -33 30 -41 138 -78 96 -34 142 -74 156 -134 12 -49
7 -64 -32 -100 -22 -21 -36 -25 -93 -25 -99 -1 -147 17 -204 75 -62 64 -65 89
-10 89 29 0 41 -5 45 -17 11 -34 74 -74 125 -80 44 -5 50 -3 65 19 12 19 14
32 7 50 -12 32 -28 44 -80 58 -24 6 -51 15 -60 20 -9 5 -31 14 -49 21 -48 17
-81 46 -97 86 -28 66 -11 112 49 139 45 20 149 9 202 -22z m440 -27 c82 -43
104 -85 129 -241 9 -59 23 -122 31 -141 23 -56 19 -65 -26 -65 -22 0 -40 4
-40 9 0 15 -32 22 -47 10 -20 -18 -143 -15 -178 4 -60 31 -105 96 -105 152 0
74 56 110 167 106 95 -3 109 7 81 55 -27 46 -55 64 -101 64 -27 0 -45 -7 -63
-25 -33 -33 -67 -41 -88 -20 -20 21 -20 35 2 60 40 47 63 56 138 51 40 -2 85
-11 100 -19z m660 -56 c28 -13 46 -16 58 -9 9 5 28 8 43 6 32 -4 33 -9 63
-178 12 -69 27 -141 33 -160 18 -60 15 -191 -6 -222 -27 -39 -95 -60 -160 -47
-59 11 -127 41 -151 68 -30 33 10 77 43 47 53 -48 145 -59 180 -22 27 28 27
95 1 86 -8 -2 -47 -5 -86 -5 -62 0 -76 3 -114 30 -129 89 -174 319 -79 399 38
32 113 35 175 7z m510 -42 c82 -39 122 -113 139 -260 2 -21 13 -64 25 -98 11
-33 20 -65 20 -71 0 -16 -66 -12 -81 6 -8 10 -20 13 -33 9 -107 -33 -167 -22
-233 40 -69 66 -71 147 -4 192 29 19 47 23 117 23 52 0 84 4 84 10 0 21 -30
69 -52 84 -36 26 -100 21 -127 -10 -27 -31 -84 -31 -89 0 -15 79 130 126 234
75z m270 -74 c18 -33 51 -97 73 -142 41 -83 55 -101 66 -84 3 6 10 58 16 118
6 59 15 118 20 131 10 25 45 30 71 10 15 -12 15 -22 3 -103 -27 -181 -66 -401
-76 -427 -17 -41 -44 -60 -90 -62 -41 -1 -69 20 -69 51 0 14 6 17 53 28 59 12
68 102 18 167 -10 13 -22 34 -26 48 -4 14 -15 36 -25 50 -9 14 -43 75 -75 135
-31 61 -61 114 -66 120 -18 19 -8 26 33 23 40 -3 43 -6 74 -63z m-6168 -578
c10 -9 23 -17 29 -17 14 0 64 -63 87 -109 10 -18 20 -57 23 -87 l6 -54 -74 1
c-41 1 -121 4 -178 8 -79 4 -105 3 -108 -7 -6 -15 16 -72 28 -72 5 0 9 -6 9
-14 0 -7 17 -25 38 -40 49 -33 130 -36 180 -6 43 26 78 26 93 -2 10 -19 8 -25
-24 -54 -29 -27 -46 -33 -98 -39 -120 -12 -228 33 -294 123 -34 46 -35 49 -35
142 0 114 11 158 47 192 54 50 82 59 170 55 60 -2 88 -8 101 -20z m568 -38
c26 -16 38 -18 53 -10 35 19 167 13 211 -9 141 -72 191 -355 80 -455 -29 -27
-156 -33 -218 -12 -54 19 -57 14 -48 -91 3 -42 3 -82 -1 -89 -11 -16 -55 -25
-70 -15 -16 10 -29 83 -43 227 -5 61 -17 186 -26 278 -9 93 -13 175 -10 183 8
20 33 18 72 -7z m842 -68 c62 -40 83 -64 116 -132 42 -87 45 -152 11 -228 -35
-78 -65 -100 -148 -108 -126 -11 -230 44 -289 154 -51 93 -45 226 11 292 41
48 84 62 174 57 65 -3 85 -9 125 -35z m577 -46 c43 -29 69 -56 94 -99 33 -55
35 -65 36 -145 0 -76 -3 -91 -27 -131 -37 -64 -63 -75 -172 -74 -132 0 -180
30 -244 149 -71 134 -51 261 53 327 25 16 44 19 116 16 80 -4 89 -6 144 -43z
m293 7 c7 -5 19 -52 27 -108 61 -419 65 -497 25 -539 -22 -23 -31 -26 -84 -23
-56 3 -61 5 -70 31 -11 32 2 47 41 47 33 0 46 34 39 99 -10 94 -24 211 -40
331 -23 168 -23 170 17 170 17 0 38 -4 45 -8z m417 -23 c44 -12 98 -49 120
-82 14 -22 37 -131 56 -266 5 -40 16 -86 24 -101 8 -15 11 -30 8 -34 -12 -12
-77 -6 -94 10 -16 14 -21 14 -63 0 -89 -30 -170 -13 -232 50 -49 49 -63 95
-45 155 18 59 64 79 186 79 87 0 95 2 95 19 0 60 -55 111 -121 111 -26 0 -44
-8 -67 -30 -54 -51 -112 -49 -112 4 1 73 127 117 245 85z m1569 -2 c10 -8 21
-31 25 -53 5 -32 11 -40 36 -47 47 -14 60 -23 63 -42 5 -21 -14 -35 -45 -35
-21 0 -23 -5 -23 -47 0 -64 40 -254 58 -275 8 -10 25 -18 38 -18 26 0 49 -33
40 -57 -5 -12 -18 -14 -62 -11 -45 4 -61 11 -85 34 -16 17 -31 43 -34 59 -2
17 -16 93 -30 170 -26 145 -36 165 -80 165 -26 0 -45 18 -45 41 0 13 10 19 38
21 36 3 37 4 38 44 0 22 4 46 8 52 10 16 38 15 60 -1z m-991 -46 c8 -8 67
-377 84 -518 6 -58 -13 -115 -47 -133 -26 -14 -93 -12 -114 3 -29 21 -17 58
24 71 34 11 35 12 35 66 0 60 -4 89 -41 343 -13 93 -21 173 -18 179 7 11 63 3
77 -11z m442 -30 c56 -27 111 -82 143 -143 23 -45 27 -65 27 -133 0 -125 -46
-184 -150 -193 -116 -10 -219 50 -274 158 -28 55 -30 67 -28 147 4 101 18 133
76 163 49 26 152 26 206 1z m1065 -86 c24 -16 56 -50 71 -73 29 -46 54 -136
43 -154 -5 -7 -54 -9 -151 -5 -121 5 -145 3 -150 -9 -7 -20 43 -90 82 -114 42
-26 114 -27 146 -2 38 29 56 32 74 12 21 -23 13 -49 -23 -75 -22 -16 -43 -20
-114 -20 -84 0 -87 1 -145 40 -68 47 -106 108 -123 202 -17 88 0 152 53 200
39 35 40 35 116 32 67 -4 84 -8 121 -34z m258 -4 c2 -6 16 -5 35 0 18 5 48 9
68 9 31 0 38 -4 49 -29 6 -17 9 -34 6 -39 -3 -5 -29 -12 -57 -14 -28 -3 -55
-12 -60 -19 -10 -16 -7 -53 15 -184 8 -49 17 -109 20 -132 l6 -43 -39 0 c-22
0 -42 4 -45 8 -2 4 -14 66 -25 137 -12 72 -28 167 -37 212 -20 102 -15 118 29
109 17 -4 33 -10 35 -15z m291 -19 c13 -25 80 -385 81 -434 0 -14 -8 -18 -39
-18 l-39 0 -26 143 c-15 78 -33 176 -41 218 -21 108 -21 109 20 109 23 0 38
-6 44 -18z m-4977 -640 c10 -10 71 -689 63 -709 -2 -8 -22 -13 -45 -13 -33 0
-42 4 -49 23 -4 12 -16 110 -25 217 -10 107 -24 259 -32 338 -8 79 -11 148 -8
154 8 12 82 4 96 -10z m254 -18 c6 -8 14 -55 18 -106 16 -219 24 -268 44 -268
5 0 47 38 93 85 83 85 84 86 129 83 30 -2 46 -8 47 -18 2 -8 -33 -53 -77 -100
-44 -47 -80 -90 -80 -95 0 -10 46 -65 181 -217 32 -36 59 -71 59 -77 0 -6 -21
-11 -49 -11 -49 0 -51 1 -115 73 -35 39 -77 89 -93 109 -23 31 -34 37 -58 35
l-30 -2 0 -93 c0 -71 -3 -95 -15 -102 -22 -14 -66 -12 -78 3 -6 7 -14 57 -17
112 -4 55 -11 127 -15 160 -5 33 -12 98 -15 145 -4 47 -11 114 -16 150 -12 92
-11 148 4 153 20 7 71 -4 83 -19z m2071 -102 c7 -4 20 -54 29 -111 17 -102 31
-128 57 -102 6 6 43 11 85 11 86 0 119 -16 173 -81 46 -56 68 -119 76 -210 5
-63 2 -82 -15 -120 -28 -60 -50 -82 -93 -95 -39 -12 -135 -2 -171 17 -15 8
-33 7 -65 -2 -37 -10 -46 -10 -57 2 -8 8 -23 88 -35 184 -39 312 -43 340 -55
423 -7 45 -10 84 -8 87 8 8 66 6 79 -3z m561 -34 c5 -7 13 -42 17 -78 13 -125
36 -165 74 -127 18 18 146 13 176 -7 35 -23 62 -54 80 -92 13 -27 65 -332 65
-381 0 -9 -14 -13 -40 -13 -33 0 -42 4 -50 23 -8 19 -50 292 -50 323 0 17 -58
74 -88 85 -33 13 -107 -13 -123 -42 -7 -14 -4 -59 10 -162 11 -78 21 -158 23
-177 l3 -35 -45 0 -44 0 -17 120 c-10 66 -27 185 -39 265 -11 80 -25 175 -30
212 -15 100 -15 98 29 98 21 0 43 -6 49 -12z m-3208 -39 c81 -46 96 -66 105
-146 3 -27 8 -57 10 -68 2 -11 7 -54 10 -95 4 -41 13 -101 21 -133 8 -33 11
-63 8 -69 -8 -13 -85 1 -107 20 -16 14 -20 14 -45 0 -63 -36 -179 -30 -246 14
-38 25 -76 93 -76 138 0 53 29 97 82 124 44 23 62 26 149 26 110 0 110 1 84
64 -16 38 -43 61 -87 71 -41 10 -74 -1 -115 -40 -75 -70 -153 -23 -88 53 43
51 79 63 180 59 52 -2 100 -10 115 -18z m1325 -67 c58 -28 95 -64 121 -113 31
-62 43 -147 23 -160 -11 -7 -159 -5 -309 4 -37 3 -38 -33 -1 -86 55 -80 142
-99 231 -49 l49 27 22 -22 c21 -21 21 -23 5 -47 -55 -85 -243 -84 -344 1 -92
78 -134 222 -98 331 22 66 90 129 144 134 55 6 123 -3 157 -20z m335 -24 c5
-13 16 -81 25 -153 9 -71 18 -146 20 -165 19 -133 18 -158 -2 -168 -12 -7 -32
-8 -49 -3 -28 7 -30 11 -41 87 -12 86 -44 378 -43 407 0 13 9 17 40 17 32 0
42 -4 50 -22z m232 -1 c22 -22 43 -25 63 -11 31 23 146 18 195 -7 80 -42 99
-98 131 -372 10 -93 10 -110 -2 -118 -18 -11 -50 -11 -68 0 -16 11 -15 3 -36
166 -24 186 -33 222 -62 245 -36 28 -83 34 -126 16 -58 -24 -62 -44 -44 -198
9 -73 18 -151 19 -173 l3 -40 -43 -3 c-53 -4 -56 4 -72 159 -6 63 -17 165 -24
227 -6 62 -10 115 -7 117 10 10 60 4 73 -8z m2057 -102 c71 -36 151 -163 151
-237 0 -33 13 -31 -171 -28 -123 2 -147 -1 -152 -13 -8 -20 41 -93 79 -118 40
-26 127 -26 161 1 32 25 55 25 77 1 16 -17 15 -20 -8 -48 -54 -64 -179 -68
-277 -10 -126 76 -183 260 -117 379 36 65 77 88 160 88 41 0 80 -6 97 -15z
m484 -18 c78 -33 153 -137 164 -227 l6 -48 -157 6 c-178 6 -185 2 -142 -66 38
-60 74 -82 138 -82 40 0 62 6 89 24 33 23 38 24 58 10 69 -49 -46 -124 -167
-110 -30 4 -67 13 -83 22 -50 26 -109 85 -137 138 -24 45 -27 62 -27 141 1
106 17 143 80 181 46 28 126 32 178 11z m494 -33 c25 -13 37 -14 46 -5 18 18
75 14 80 -6 5 -17 16 -75 67 -359 29 -160 30 -156 -27 -152 -36 2 -47 7 -49
21 -6 45 -11 47 -51 31 -49 -21 -132 -12 -177 19 -77 52 -135 152 -143 245 -7
83 8 141 48 187 30 34 34 35 101 35 44 0 83 -6 105 -16z m566 -36 c9 -11 17
-30 18 -42 0 -11 2 -28 4 -36 5 -23 34 -183 54 -297 10 -57 16 -105 13 -108
-3 -3 -22 -5 -42 -5 l-37 0 -16 83 c-49 245 -75 413 -65 425 14 16 48 6 71
-20z m413 -15 c86 -49 103 -83 140 -278 8 -44 22 -101 31 -127 9 -26 14 -50
11 -54 -15 -14 -81 -8 -93 9 -11 16 -14 16 -26 1 -10 -13 -30 -15 -103 -12
-84 3 -94 5 -123 32 -18 16 -42 49 -54 73 -19 38 -20 49 -10 91 16 65 65 92
168 92 41 0 75 5 79 11 11 18 -25 84 -56 102 -42 25 -77 21 -109 -12 -39 -40
-62 -50 -88 -40 -37 14 -31 60 12 98 33 29 41 31 113 31 55 0 86 -5 108 -17z
m505 -40 c25 -18 51 -45 58 -60 6 -15 26 -95 45 -178 19 -82 37 -160 41 -172
l7 -23 -157 0 -157 0 -38 38 c-49 49 -68 107 -51 162 17 56 68 80 173 80 47 0
78 4 78 10 0 30 -32 80 -63 99 -48 29 -102 21 -126 -20 -26 -46 -73 -46 -90 1
-9 27 -6 32 31 65 l40 37 82 -4 c72 -3 86 -7 127 -35z"/>
<path d="M6613 9773 c-20 -4 -23 -11 -23 -51 l0 -47 85 0 85 0 0 46 c0 40 -3
48 -22 53 -25 6 -90 6 -125 -1z"/>
<path d="M3552 8750 c-32 -13 -53 -69 -46 -122 6 -47 44 -110 86 -141 36 -27
102 -28 128 -2 19 20 19 22 3 118 l-16 98 -41 24 c-51 30 -84 37 -114 25z"/>
<path d="M922 9115 c-37 -20 -54 -52 -54 -103 1 -61 16 -99 55 -140 58 -60
137 -68 184 -19 28 30 31 39 28 85 -9 126 -127 225 -213 177z"/>
<path d="M1960 8973 c-50 -18 -68 -123 -32 -193 27 -54 95 -100 147 -100 38 0
47 4 71 35 82 109 -58 304 -186 258z"/>
<path d="M2848 8823 c-51 -53 -32 -68 106 -79 100 -8 106 -1 53 61 -28 32 -40
38 -82 42 -45 4 -53 2 -77 -24z"/>
<path d="M4467 8607 c-59 -42 -23 -199 57 -248 41 -25 107 -25 130 0 40 44 37
113 -9 189 -37 61 -132 93 -178 59z"/>
<path d="M4940 8542 c-28 -23 -38 -98 -19 -144 35 -88 104 -137 175 -123 40 7
54 32 54 97 0 121 -135 231 -210 170z"/>
<path d="M1283 7939 c-44 -23 -39 -61 14 -101 51 -39 104 -38 145 2 24 25 29
36 23 58 -3 15 -11 31 -16 37 -14 14 -140 17 -166 4z"/>
<path d="M3001 7889 c-23 -9 -24 -11 -17 -99 4 -49 11 -102 17 -118 29 -84
172 -105 198 -30 17 49 13 101 -13 159 -19 45 -32 58 -68 77 -48 24 -79 27
-117 11z"/>
<path d="M3504 7654 c-31 -31 -30 -40 10 -80 28 -28 41 -34 78 -34 53 0 88 27
88 68 0 46 -19 60 -89 65 -57 4 -66 3 -87 -19z"/>
<path d="M4345 7558 c-33 -26 -31 -53 5 -90 28 -28 36 -30 80 -26 61 6 80 21
80 63 0 43 -24 62 -88 67 -42 4 -58 1 -77 -14z"/>
<path d="M82 7064 c-57 -40 -1 -124 84 -124 71 0 113 30 114 82 0 45 -23 58
-103 58 -50 0 -80 -5 -95 -16z"/>
<path d="M910 6970 c-28 -28 -25 -51 10 -87 74 -76 206 -30 181 63 -9 33 -31
42 -113 43 -46 1 -62 -3 -78 -19z"/>
<path d="M1422 6914 c-31 -22 -27 -49 14 -89 40 -39 78 -45 137 -20 29 12 35
20 39 52 6 48 2 60 -25 67 -45 12 -142 6 -165 -10z"/>
<path d="M2346 6969 c-27 -32 -33 -54 -16 -64 6 -3 54 -11 107 -16 114 -12
127 -6 93 45 -31 45 -69 66 -118 66 -33 0 -45 -6 -66 -31z"/>
<path d="M3080 6730 c-27 -27 -25 -44 8 -80 58 -63 172 -41 172 34 0 52 -21
66 -96 66 -51 0 -68 -4 -84 -20z"/>
<path d="M3557 6680 c-21 -16 -24 -25 -18 -48 9 -33 64 -72 103 -72 41 0 87
26 93 53 10 39 -10 73 -45 81 -60 11 -107 7 -133 -14z"/>
<path d="M5990 5440 c-28 -28 -25 -43 14 -84 26 -28 41 -36 67 -36 65 0 109
49 85 96 -20 37 -33 44 -93 44 -40 0 -58 -5 -73 -20z"/>
<path d="M6891 5541 c-14 -4 -32 -22 -43 -43 -18 -34 -18 -40 -3 -103 26 -112
114 -184 190 -155 41 16 58 62 46 126 -6 30 -14 61 -18 67 -27 46 -64 82 -101
98 -24 10 -44 19 -45 18 -1 -1 -13 -4 -26 -8z"/>
<path d="M2134 4928 c-28 -13 -54 -69 -54 -116 0 -81 47 -178 96 -201 59 -26
141 -6 157 40 5 16 -16 190 -27 227 -7 21 -95 62 -130 61 -11 0 -30 -5 -42
-11z"/>
<path d="M578 5054 c-18 -10 -32 -29 -39 -54 -7 -22 -10 -42 -8 -44 8 -8 220
-27 229 -21 18 11 11 43 -16 75 -49 58 -109 74 -166 44z"/>
<path d="M3773 4801 c-13 -3 -32 -14 -44 -24 -18 -16 -21 -26 -16 -65 22 -168
44 -212 116 -232 46 -13 55 -12 86 2 53 24 58 160 9 244 -35 59 -98 90 -151
75z"/>
<path d="M2678 4882 c-38 -23 -53 -57 -52 -111 3 -77 22 -129 64 -171 66 -66
163 -66 198 0 20 38 11 174 -15 207 -57 78 -140 110 -195 75z"/>
<path d="M3198 4821 c-30 -27 -33 -35 -32 -83 2 -84 10 -114 44 -157 94 -116
230 -86 230 51 0 163 -145 276 -242 189z"/>
<path d="M4938 4519 c-23 -13 -24 -72 -2 -93 76 -77 195 -36 178 61 -3 15 -11
31 -17 35 -18 11 -139 9 -159 -3z"/>
<path d="M5645 4650 c-48 -19 -67 -73 -53 -151 11 -63 57 -141 93 -157 44 -20
99 -15 124 12 20 22 21 27 11 87 -23 143 -38 172 -105 203 -37 18 -41 18 -70
6z"/>
<path d="M6126 4424 c-37 -36 -1 -110 62 -129 76 -23 145 72 92 125 -26 26
-130 29 -154 4z"/>
<path d="M174 3943 c-34 -17 -66 -86 -48 -102 5 -5 60 -12 121 -16 98 -6 114
-5 119 9 9 25 -28 79 -72 103 -45 26 -77 28 -120 6z"/>
<path d="M978 3885 c-15 -8 -30 -24 -33 -35 -8 -26 14 -206 30 -246 24 -59
135 -85 187 -44 14 11 31 39 38 66 25 89 -21 223 -89 259 -37 19 -98 19 -133
0z"/>
<path d="M1558 3852 c-43 -26 -62 -80 -54 -153 10 -81 17 -97 65 -146 71 -70
159 -67 206 8 27 43 30 85 12 160 -29 112 -148 180 -229 131z"/>
<path d="M2134 3814 c-52 -25 -67 -65 -59 -148 11 -118 65 -183 159 -193 49
-5 56 -3 87 25 34 30 34 31 34 120 0 88 -1 90 -37 134 -59 72 -121 93 -184 62z"/>
<path d="M2945 3574 c-57 -30 -63 -80 -12 -118 83 -63 197 -9 178 84 -5 25
-13 36 -31 41 -44 12 -104 9 -135 -7z"/>
<path d="M3912 3700 c-12 -5 -30 -25 -39 -45 -25 -53 -7 -172 34 -223 55 -69
144 -91 193 -47 27 24 40 91 30 154 -20 122 -124 198 -218 161z"/>
<path d="M4957 3628 c-26 -20 -50 -85 -34 -95 6 -4 56 -10 110 -13 l97 -5 0
25 c0 15 -15 40 -36 63 -30 31 -42 37 -78 37 -23 0 -50 -6 -59 -12z"/>
<path d="M3109 2591 c-33 -33 -34 -43 -16 -161 15 -99 25 -120 69 -152 39 -27
109 -29 138 -3 46 42 51 163 9 251 -44 94 -140 125 -200 65z"/>
<path d="M214 2550 c-24 -10 -64 -57 -64 -76 0 -18 66 -78 97 -86 38 -10 77 1
114 32 29 24 33 33 32 71 -2 28 -8 48 -19 56 -20 15 -127 16 -160 3z"/>
<path d="M1533 2671 c-34 -31 -52 -76 -36 -92 4 -4 60 -10 123 -11 l115 -3 -3
25 c-2 14 -23 44 -47 68 -56 54 -103 58 -152 13z"/>
<path d="M4172 2550 c-30 -25 -49 -77 -33 -93 7 -7 56 -13 116 -15 97 -4 105
-3 105 14 -2 81 -128 144 -188 94z"/>
<path d="M4678 2527 c-31 -29 -46 -86 -27 -98 8 -5 58 -9 112 -9 89 0 97 2 97
19 0 25 -44 77 -81 96 -40 21 -72 18 -101 -8z"/>
<path d="M5174 2498 c-48 -53 -48 -150 0 -245 42 -83 134 -115 189 -66 21 20
22 69 2 183 -19 106 -47 140 -122 147 -41 4 -51 2 -69 -19z"/>
<path d="M6185 2283 c-58 -14 -72 -72 -29 -122 23 -27 32 -31 78 -31 43 0 57
4 77 26 30 32 32 100 3 121 -17 13 -88 16 -129 6z"/>
<path d="M6636 2249 c-59 -46 -8 -139 77 -139 64 1 92 27 91 86 -1 59 -20 74
-90 74 -37 0 -59 -6 -78 -21z"/>
<path d="M7180 8651 c-8 -9 -28 -33 -43 -54 -15 -20 -35 -37 -43 -37 -7 0 -14
-6 -14 -14 0 -8 -14 -29 -31 -47 -17 -18 -37 -46 -46 -62 -8 -16 -23 -32 -34
-34 -10 -3 -21 -14 -24 -24 -4 -10 -11 -19 -16 -19 -5 0 -9 -6 -9 -14 0 -8
-13 -26 -30 -39 -16 -14 -30 -29 -30 -33 0 -4 -10 -18 -21 -30 -12 -13 -27
-34 -33 -46 -6 -13 -21 -27 -33 -33 -12 -5 -28 -20 -35 -34 -14 -26 -21 -35
-91 -113 -61 -69 -67 -76 -67 -88 0 -5 -4 -10 -9 -10 -5 0 -22 -18 -38 -40
-15 -22 -33 -40 -38 -40 -6 0 -19 -17 -30 -37 -11 -20 -35 -53 -52 -73 -18
-19 -33 -38 -33 -41 0 -4 -9 -9 -20 -12 -11 -3 -20 -12 -20 -21 0 -9 -6 -16
-14 -16 -7 0 -16 -8 -20 -17 -9 -27 -27 -51 -83 -112 -29 -31 -53 -59 -53 -63
0 -4 -6 -13 -13 -20 -7 -7 -27 -33 -45 -57 -17 -25 -32 -42 -32 -38 0 4 -9 -1
-20 -10 -11 -10 -20 -21 -20 -25 0 -9 -42 -59 -98 -117 -18 -18 -37 -43 -43
-53 -6 -11 -34 -47 -63 -81 -73 -87 -73 -84 -29 -103 21 -9 54 -25 73 -34 19
-10 53 -23 75 -30 48 -16 132 -93 191 -176 24 -34 44 -64 44 -68 0 -4 11 -24
25 -46 33 -52 32 -57 -7 -28 -62 46 -94 53 -243 53 -144 0 -270 -20 -270 -42
0 -6 -3 -15 -7 -19 -12 -11 -10 -136 3 -196 14 -67 61 -156 104 -198 l34 -33
65 19 c36 10 66 22 66 26 0 3 13 9 30 13 16 4 32 10 35 15 3 4 29 22 58 38 61
36 157 125 157 147 0 8 5 15 10 15 6 0 11 8 11 18 2 31 18 -62 18 -108 1 -34
6 -48 21 -58 11 -7 20 -8 20 -4 0 5 48 13 108 18 l107 9 -2 30 c-9 151 -100
281 -250 356 -46 23 -83 48 -83 56 0 8 9 31 20 53 16 32 20 59 20 142 0 109
-11 159 -53 245 -23 49 -24 53 -8 67 10 9 22 16 28 16 6 0 13 5 15 12 5 13 88
15 109 2 8 -5 16 -9 19 -10 35 -8 69 -30 78 -49 7 -14 16 -25 22 -25 5 0 10
-7 10 -15 0 -8 -4 -15 -10 -15 -5 0 -10 -25 -10 -55 0 -31 4 -55 10 -55 6 0
16 -11 22 -25 8 -18 16 -23 33 -19 16 4 24 -1 33 -20 10 -23 17 -26 66 -26 34
0 56 5 58 12 3 8 29 12 75 13 57 0 76 4 95 20 13 12 37 27 53 35 17 8 32 18
35 21 3 4 21 15 40 26 19 10 62 36 95 57 33 21 79 51 102 65 l42 26 1 243 0
243 -55 -31 c-30 -17 -74 -44 -99 -60 -24 -17 -47 -30 -51 -30 -9 0 -99 -62
-107 -74 -4 -6 -8 -8 -8 -3 0 4 -18 -4 -41 -19 -22 -14 -42 -24 -43 -22 -32
44 -67 116 -68 141 -3 27 1 33 21 35 13 2 40 19 60 38 20 19 41 34 48 34 7 0
16 6 20 13 11 18 59 47 78 47 8 0 15 6 15 13 0 7 16 21 35 31 19 11 35 23 35
28 0 4 7 8 15 8 8 0 15 3 15 8 0 4 21 20 46 36 48 30 48 42 -1 48 -35 4 -46
33 -17 42 11 4 32 18 48 31 16 14 35 25 42 25 9 0 12 70 12 315 0 173 -1 315
-2 314 -2 0 -10 -8 -18 -18z m-465 -1370 c-1 -38 -6 -74 -9 -80 -4 -6 -2 -11
5 -11 8 0 5 -5 -5 -13 -16 -12 -16 -14 -2 -26 9 -8 16 -21 16 -30 0 -22 -23
-71 -32 -71 -5 0 -8 -11 -8 -25 0 -24 -3 -25 -60 -25 l-60 0 0 80 0 80 -34 0
c-19 0 -37 -6 -39 -12 -3 -7 -6 2 -6 20 -1 29 2 32 29 32 23 0 30 5 30 19 0
13 -7 19 -25 19 -27 0 -55 18 -55 36 0 15 83 40 115 34 13 -3 26 0 28 6 3 8
54 25 108 35 4 0 6 -30 4 -68z"/>
<path d="M137 6444 c-6 -6 -3 -50 14 -219 5 -55 16 -168 23 -252 8 -83 17
-156 21 -162 3 -6 24 -11 45 -11 l39 0 3 88 c3 85 4 87 29 90 20 2 35 -9 79
-60 110 -129 134 -148 184 -148 25 0 46 3 46 7 0 3 -21 29 -47 58 -111 121
-178 199 -181 211 -3 13 56 73 122 125 46 36 28 68 -40 69 -12 0 -55 -30 -100
-70 -43 -39 -86 -69 -94 -68 -10 2 -17 21 -21 58 -4 30 -12 102 -19 160 -6 58
-16 111 -22 117 -11 13 -70 18 -81 7z"/>
<path d="M1630 6273 c0 -16 9 -98 19 -183 11 -85 25 -207 32 -270 16 -154 18
-160 70 -160 l42 0 -7 95 c-3 52 -11 117 -16 145 -14 76 -5 105 42 126 34 15
44 16 76 4 67 -24 79 -44 96 -165 8 -61 17 -131 19 -157 5 -56 20 -78 56 -78
52 0 55 9 37 106 -9 49 -16 103 -16 121 0 18 -7 58 -15 90 -18 68 -70 128
-125 143 -49 14 -144 12 -158 -2 -22 -22 -40 13 -47 87 -11 115 -16 125 -72
125 -29 0 -33 -3 -33 -27z"/>
<path d="M718 6190 c-42 -23 -71 -60 -63 -81 8 -21 43 -41 50 -29 3 6 14 10
24 10 9 0 27 11 39 25 46 52 158 22 182 -49 6 -20 9 -40 5 -45 -3 -6 -39 -8
-90 -4 -140 10 -205 -29 -205 -121 0 -44 51 -114 102 -139 52 -26 125 -32 175
-14 38 13 45 13 64 -1 21 -15 86 -25 101 -16 4 3 3 17 -3 32 -8 22 -49 289
-49 323 0 4 -13 23 -29 41 -43 50 -104 76 -191 83 -64 5 -81 2 -112 -15z m238
-252 c20 -20 25 -72 9 -95 -17 -25 -86 -46 -122 -37 -41 10 -83 53 -83 85 0
18 9 35 28 49 23 19 36 21 91 17 35 -3 69 -11 77 -19z"/>
<path d="M3456 6111 c-4 -6 -5 -15 -2 -20 3 -4 10 -46 16 -92 5 -46 19 -149
30 -229 12 -80 24 -170 28 -200 4 -30 11 -61 15 -68 9 -13 73 -17 81 -4 2 4 1
37 -3 72 -10 77 -6 90 23 90 14 0 53 -34 116 -100 88 -92 98 -100 133 -100 20
0 37 4 37 8 0 5 -52 66 -116 137 -63 70 -113 130 -109 133 44 45 130 147 130
156 0 6 -19 12 -42 14 -39 3 -45 -1 -108 -62 -71 -70 -92 -79 -99 -43 -7 32
-35 215 -40 261 -3 21 -7 40 -9 42 -11 12 -75 15 -81 5z"/>
<path d="M2217 6034 c-45 -33 -59 -71 -31 -91 25 -18 64 -9 89 22 17 20 30 25
67 25 54 0 100 -31 117 -81 13 -39 2 -44 -90 -36 -123 10 -189 -29 -189 -113
0 -71 54 -129 145 -157 53 -17 85 -16 127 2 32 13 39 12 73 -5 24 -12 48 -17
64 -13 35 8 35 8 18 35 -15 23 -47 180 -47 228 0 79 -51 156 -121 184 -22 9
-73 19 -112 21 -66 5 -75 3 -110 -21z m246 -236 c26 -13 23 -79 -5 -105 -42
-38 -114 -38 -152 0 -45 45 -39 94 15 113 35 13 110 9 142 -8z"/>
<path d="M2665 6009 c-4 -6 -5 -29 -2 -52 31 -231 51 -368 57 -377 6 -10 36
-15 68 -11 15 1 16 52 2 136 -19 122 -21 180 -8 198 11 14 39 21 111 26 4 1 7
15 7 31 0 41 -35 58 -89 44 -27 -7 -47 -7 -72 2 -43 16 -66 17 -74 3z"/>
<path d="M3035 5956 c-54 -35 -74 -76 -75 -157 0 -55 5 -77 28 -120 58 -110
117 -149 235 -156 110 -6 143 11 175 91 21 51 22 62 11 122 -9 51 -20 77 -55
123 -56 75 -117 109 -210 116 -62 5 -73 3 -109 -19z m168 -55 c38 -15 92 -76
105 -120 51 -169 -76 -266 -194 -147 -41 41 -64 103 -64 172 0 77 76 124 153
95z"/>
<path d="M3994 5865 c-17 -9 -37 -28 -45 -42 -12 -23 -11 -27 10 -44 32 -26
45 -24 81 11 50 49 132 34 165 -30 29 -57 24 -61 -72 -59 -123 1 -148 -10
-172 -80 -9 -29 -8 -41 9 -77 42 -86 149 -131 249 -105 44 11 53 11 73 -3 43
-30 99 -9 70 27 -9 11 -27 92 -53 237 -14 83 -33 115 -89 147 -57 34 -177 43
-226 18z m230 -234 c16 -14 28 -65 20 -86 -9 -23 -58 -45 -97 -45 -45 0 -97
46 -97 85 0 46 35 67 103 61 32 -2 64 -9 71 -15z"/>
<path d="M4626 5821 c-4 -5 -4 -15 -1 -23 3 -7 18 -98 34 -202 29 -196 37
-216 82 -216 35 0 37 22 12 165 -13 77 -21 149 -19 161 6 24 45 44 87 44 45 0
100 -55 109 -111 5 -24 11 -54 14 -67 3 -13 10 -60 17 -105 6 -45 16 -88 21
-94 15 -19 78 -17 78 2 0 9 -9 69 -20 133 -11 64 -22 128 -24 141 -8 53 70 90
127 59 45 -23 60 -58 82 -183 36 -204 33 -195 81 -195 31 0 34 3 34 29 0 57
-53 297 -72 329 -48 78 -154 113 -250 81 -38 -12 -43 -11 -93 15 -40 21 -66
27 -115 27 -34 0 -67 -4 -73 -10 -6 -6 -21 -3 -46 10 -39 21 -57 24 -65 10z"/>
<path d="M5414 5675 c-7 -27 9 -55 31 -55 7 0 18 -13 23 -29 l10 -29 96 -1
c52 0 98 4 101 9 12 20 -24 78 -59 95 -45 21 -102 13 -111 -15 -7 -22 -44 -28
-47 -7 0 6 -2 17 -3 22 -2 6 -3 16 -4 23 -2 22 -30 12 -37 -13z"/>
<path d="M5557 5499 c-51 -20 -48 -80 6 -116 73 -50 152 -8 140 74 -3 17 -11
34 -18 37 -31 11 -102 14 -128 5z"/>
<path d="M7005 4371 c-40 -8 -63 -50 -47 -85 36 -80 182 -73 182 9 0 60 -55
91 -135 76z"/>
</g>
</svg>
