<?xml version="1.0" standalone="no"?>
<!DOCTYPE svg PUBLIC "-//W3C//DTD SVG 20010904//EN"
 "http://www.w3.org/TR/2001/REC-SVG-20010904/DTD/svg10.dtd">
<svg version="1.0" xmlns="http://www.w3.org/2000/svg"
 width="720.000000pt" height="1280.000000pt" viewBox="0 0 720.000000 1280.000000"
 preserveAspectRatio="xMidYMid meet">
<metadata>
Created by potrace 1.16, written by Peter Selinger 2001-2019
</metadata>
<g transform="translate(0.000000,1280.000000) scale(0.100000,-0.100000)"
fill="#000000" stroke="none">
<path d="M0 6400 l0 -6400 3600 0 3600 0 0 1025 0 1025 -3590 0 -3590 0 0
3600 0 3600 538 0 c297 0 573 -3 615 -6 l77 -7 0 -46 c0 -54 13 -71 52 -71 15
0 28 -4 28 -10 0 -5 8 -10 19 -10 30 0 81 -21 75 -31 -3 -5 0 -9 5 -9 6 0 11
-16 11 -35 0 -45 29 -61 113 -64 33 -1 38 -4 43 -30 3 -16 16 -34 29 -41 13
-7 26 -23 29 -36 4 -13 13 -24 21 -24 8 0 15 -4 15 -9 0 -5 20 -22 45 -38 25
-15 45 -31 45 -35 0 -5 36 -8 80 -8 75 0 81 -2 110 -30 17 -16 42 -37 55 -46
14 -9 25 -24 25 -33 1 -32 36 -61 74 -61 24 0 36 -5 36 -14 0 -9 15 -16 43
-20 90 -11 117 -19 117 -31 0 -14 123 -29 228 -28 44 0 52 -3 52 -18 0 -12 7
-19 20 -19 13 0 20 -7 20 -20 0 -16 -7 -20 -37 -20 l-38 -1 28 -24 c36 -32 47
-31 47 0 0 23 4 25 40 25 l40 0 0 80 0 80 39 0 c29 0 41 -5 44 -17 4 -17 5
-17 6 0 1 11 9 17 24 17 40 0 49 14 46 66 -2 27 -8 52 -14 56 -5 4 -5 15 2 30
7 13 15 38 18 56 6 27 11 32 36 32 25 0 29 4 30 28 1 25 1 25 7 4 7 -23 7 -23
22 -2 8 11 20 20 27 20 8 0 13 14 13 40 0 22 5 40 10 40 6 0 10 7 10 15 0 8 9
15 20 15 11 0 20 7 20 15 0 8 4 15 9 15 11 0 27 39 30 75 0 8 8 15 16 15 8 0
15 5 15 10 0 6 -9 10 -20 10 -11 0 -20 5 -20 10 0 6 20 10 45 10 l45 0 0 40 0
40 74 0 c63 0 74 3 78 18 5 17 23 19 209 25 112 4 977 7 1922 7 l1717 0 0
1775 0 1775 -3600 0 -3600 0 0 -6400z m6782 3684 c50 -17 112 -73 138 -125 44
-85 32 -202 -29 -284 -25 -34 -27 -41 -14 -50 14 -10 14 -14 -2 -38 -22 -35
-88 -46 -136 -23 -29 13 -43 14 -94 4 -106 -20 -142 -17 -169 17 -22 27 -22
31 -7 41 15 11 14 14 -6 36 -63 67 -82 200 -42 288 60 133 208 188 361 134z
m-639 0 c52 -18 116 -76 142 -130 22 -47 30 -130 16 -180 -32 -119 -134 -194
-265 -194 -165 0 -272 106 -270 266 2 153 105 252 265 253 36 1 86 -6 112 -15z
m-5839 -91 c10 -34 76 -315 76 -324 0 -5 -16 -9 -35 -9 -30 0 -35 3 -35 24 0
31 -13 39 -59 39 -31 0 -36 -3 -43 -31 -8 -28 -13 -32 -42 -32 l-34 0 14 58
c7 31 25 110 40 175 l28 117 42 0 c32 0 44 -4 48 -17z m406 -75 l1 -93 30 38
c23 27 39 37 60 37 16 0 29 -3 29 -6 0 -4 -16 -27 -35 -53 l-34 -47 21 -35
c11 -19 29 -49 40 -66 l20 -33 -36 0 c-30 0 -38 5 -57 40 -26 45 -39 43 -39
-6 0 -31 -2 -34 -30 -34 l-30 0 0 175 0 175 30 0 30 0 0 -92z m1740 -83 l0
-176 -42 1 c-24 1 -55 -1 -69 -5 -19 -5 -33 -1 -55 18 -27 24 -29 29 -29 106
0 69 3 84 21 102 23 22 55 28 92 15 21 -7 22 -5 22 53 l0 61 30 0 30 0 0 -175z
m452 83 l3 -92 25 37 c20 30 31 37 58 37 30 0 42 -12 24 -24 -5 -3 -21 -23
-36 -44 l-27 -40 41 -66 41 -67 -38 3 c-32 3 -41 9 -58 40 -26 49 -35 48 -35
-2 0 -39 -1 -40 -35 -40 l-35 0 0 175 0 175 35 0 34 0 3 -92z m728 28 l0 -65
35 15 c28 11 40 12 58 3 34 -18 37 -27 37 -136 l0 -103 -30 0 -30 0 0 90 c0
75 -3 92 -16 97 -37 14 -49 -10 -52 -101 l-3 -86 -29 0 -30 0 0 175 0 175 30
0 30 0 0 -64z m530 3 c0 -58 1 -60 23 -53 76 26 107 -8 107 -118 0 -71 -2 -81
-26 -105 -20 -20 -31 -24 -52 -18 -15 4 -46 6 -69 5 l-43 -1 0 176 0 175 30 0
30 0 0 -61z m-1480 -9 c0 -38 2 -40 30 -40 25 0 30 -4 30 -25 0 -21 -5 -25
-30 -25 l-31 0 3 -67 c3 -66 4 -68 31 -71 21 -3 27 -8 23 -19 -3 -8 -6 -19 -6
-24 0 -16 -73 -10 -92 8 -14 13 -18 31 -18 90 0 66 -2 75 -20 80 -13 3 -20 14
-20 29 0 17 6 24 20 24 17 0 20 7 20 40 0 38 2 40 30 40 28 0 30 -2 30 -40z
m-2096 -61 c24 -23 34 -121 17 -172 -15 -44 -59 -66 -97 -48 -14 6 -27 11 -29
11 -3 0 -5 -29 -5 -65 l0 -65 -30 0 -30 0 0 181 0 182 38 -5 c20 -3 46 -2 57
3 26 10 55 2 79 -22z m405 20 c17 -6 36 -19 41 -29 6 -10 10 -62 10 -115 l0
-97 -32 3 c-18 1 -48 -1 -66 -5 -50 -12 -82 13 -82 64 0 44 20 64 83 81 28 7
37 15 35 27 -5 25 -45 27 -58 3 -13 -25 -48 -28 -57 -5 -8 21 28 67 58 75 35
10 33 10 68 -2z m287 1 c39 -15 53 -39 54 -87 l0 -43 -61 0 c-60 0 -60 0 -57
-27 3 -32 44 -46 54 -19 9 23 64 21 64 -2 0 -51 -67 -84 -124 -62 -45 17 -55
38 -56 116 0 78 20 119 63 127 12 2 25 5 29 6 4 0 19 -4 34 -9z m201 -1 c32
-12 43 -26 43 -56 0 -31 -45 -33 -53 -2 -7 24 -40 23 -45 -2 -2 -10 9 -21 30
-29 75 -30 98 -83 59 -131 -40 -50 -151 -22 -151 38 0 19 5 23 30 23 24 0 30
-4 30 -21 0 -15 5 -20 22 -17 42 6 33 36 -16 58 -76 32 -89 107 -23 135 39 17
39 17 74 4z m202 -4 c26 -13 46 -56 33 -70 -14 -14 -50 -3 -55 16 -4 13 -12
20 -24 17 -29 -5 -21 -32 15 -50 73 -36 92 -81 53 -129 -15 -19 -29 -24 -66
-24 -37 0 -51 5 -66 24 -29 36 -25 61 10 61 21 0 30 -6 34 -21 7 -25 40 -22
45 4 3 12 -9 23 -42 37 -74 31 -86 108 -22 136 40 17 51 17 85 -1z m200 4 c17
-6 36 -19 41 -29 6 -10 10 -62 10 -115 l0 -97 -32 3 c-18 1 -48 -1 -66 -5 -50
-12 -82 13 -82 64 0 44 20 64 83 81 28 7 37 15 35 27 -5 25 -45 27 -58 3 -11
-22 -44 -28 -55 -11 -12 20 8 59 38 74 38 19 45 19 86 5z m318 -21 c17 -16 23
-33 23 -65 l0 -43 -61 0 c-60 0 -60 0 -57 -27 3 -32 44 -46 54 -19 9 23 64 21
64 -2 0 -49 -66 -84 -121 -64 -50 20 -59 37 -59 121 0 68 3 80 23 98 12 11 29
23 37 26 25 10 73 -2 97 -25z m1001 -4 c18 -21 22 -36 22 -98 0 -77 -15 -107
-61 -121 -31 -10 -84 3 -105 26 -23 26 -31 127 -13 170 24 60 111 73 157 23z
m240 8 c8 -10 12 -52 12 -119 l0 -103 -30 0 -30 0 0 90 c0 75 -3 92 -17 97
-32 12 -53 -32 -53 -113 l0 -74 -30 0 -30 0 0 120 0 120 29 0 c16 0 31 -5 33
-11 2 -6 14 -5 33 5 33 17 63 13 83 -12z m530 -8 c15 -17 22 -38 22 -65 l0
-39 -61 0 c-60 0 -60 0 -57 -27 3 -32 44 -46 54 -19 4 10 18 16 35 16 22 0 29
-5 29 -20 0 -42 -64 -79 -115 -66 -52 13 -65 39 -65 124 0 69 3 81 23 99 12
11 29 23 37 26 28 11 75 -3 98 -29z m539 12 c7 -6 13 -53 15 -116 l3 -105 -32
-3 -33 -3 0 91 c0 72 -3 92 -15 96 -33 13 -45 -15 -45 -102 l0 -84 -35 0 -35
0 0 120 0 120 35 0 c19 0 35 -4 35 -9 0 -6 12 -3 28 4 28 15 58 12 79 -9z
m221 -12 c19 -22 22 -36 22 -120 l0 -95 -42 1 c-24 1 -54 -1 -68 -5 -34 -9
-80 27 -80 61 0 41 18 63 63 75 52 15 67 26 60 45 -8 21 -41 17 -55 -6 -12
-19 -48 -27 -60 -14 -15 14 11 60 43 77 43 22 86 16 117 -19z m391 25 c36 -13
61 -53 61 -99 l0 -30 -59 0 c-65 0 -73 -5 -64 -38 6 -26 53 -32 53 -7 0 11 11
15 36 15 32 0 35 -2 29 -22 -13 -43 -42 -63 -90 -63 -64 0 -87 27 -93 105 -5
75 11 118 52 136 38 16 36 16 75 3z m204 -3 c15 -8 27 -11 27 -5 0 5 14 9 30
9 l30 0 0 -149 c0 -134 -2 -151 -20 -174 -41 -52 -147 -44 -170 13 -7 16 -9
34 -5 39 9 15 46 7 60 -12 27 -37 75 -10 75 43 0 17 -3 19 -19 10 -36 -19 -78
-12 -100 16 -16 21 -21 41 -21 88 0 85 8 106 44 122 39 17 36 17 69 0z m285
-22 c19 -22 22 -36 22 -120 l0 -95 -42 1 c-24 1 -54 -1 -68 -5 -35 -9 -80 27
-80 64 0 39 19 60 70 75 33 10 46 19 48 35 4 28 -31 29 -51 0 -22 -30 -63 -23
-59 11 10 70 109 91 160 34z m-3048 -94 l0 -120 -35 0 -35 0 0 113 c0 63 3
117 7 120 3 4 19 7 35 7 l28 0 0 -120z m2280 63 c19 -91 25 -93 45 -14 17 70
18 71 50 71 l33 0 -52 -177 -51 -178 -34 -3 c-28 -3 -33 -1 -27 14 29 76 29
101 -4 209 -17 59 -34 113 -37 121 -4 10 4 14 29 14 34 0 35 -1 48 -57z"/>
<path d="M6613 9773 c-20 -4 -23 -11 -23 -51 l0 -47 85 0 85 0 0 46 c0 40 -3
48 -22 53 -25 6 -90 6 -125 -1z"/>
<path d="M4217 6953 c-10 -17 -1 -42 25 -70 37 -39 80 -194 58 -208 -7 -4 -8
-11 -2 -18 5 -7 12 -29 16 -50 l7 -37 -33 20 c-43 26 -84 26 -91 0 -7 -28 30
-48 94 -52 53 -3 54 -3 63 -41 7 -27 6 -44 -2 -58 -7 -11 -12 -57 -12 -111 0
-140 -26 -173 -144 -183 -82 -7 -154 -23 -163 -38 -3 -6 17 -31 45 -56 47 -42
52 -50 52 -89 0 -23 -7 -59 -16 -81 -12 -30 -13 -44 -4 -60 17 -33 -4 -87 -64
-166 -30 -38 -52 -72 -49 -75 5 -5 41 34 106 113 47 58 71 72 89 53 8 -7 24
-17 36 -20 12 -4 20 -12 17 -17 -3 -5 1 -6 9 -3 9 3 21 -5 31 -20 10 -14 38
-35 62 -46 47 -21 50 -30 28 -82 -12 -29 21 -22 45 9 l22 28 19 -24 c10 -13
19 -30 19 -38 0 -11 5 -13 18 -8 9 4 39 16 65 26 27 10 55 23 63 30 8 6 14 9
14 5 0 -5 40 15 89 45 11 8 21 22 21 31 0 22 40 69 52 62 4 -3 8 5 8 18 0 36
58 192 77 206 9 6 24 12 34 12 9 0 19 10 23 24 3 14 13 31 21 40 11 11 15 40
16 113 1 100 11 144 38 176 14 16 13 18 -7 24 -23 6 -30 23 -9 23 28 0 87 22
82 30 -3 5 0 12 6 16 8 5 10 -4 7 -30 -4 -32 -1 -36 18 -36 13 0 26 5 29 10 3
6 17 10 31 10 13 0 24 5 24 10 0 6 -10 8 -24 4 -20 -5 -27 0 -41 26 -17 32
-16 33 8 56 17 16 27 19 30 11 7 -19 20 41 14 66 -12 47 -28 58 -71 46 -21 -6
-50 -8 -64 -4 -14 3 -28 2 -31 -2 -3 -5 -25 -16 -48 -25 -40 -15 -43 -15 -60
4 -15 17 -19 18 -29 4 -6 -9 -14 -13 -17 -9 -15 15 -5 30 28 43 20 8 35 21 35
30 0 25 -33 50 -56 44 -11 -3 -35 -2 -52 3 l-32 8 19 35 c16 29 24 35 52 35
19 0 38 -4 42 -10 5 -6 6 2 3 17 -3 15 -2 30 4 33 5 3 10 12 10 20 0 17 -73
61 -78 46 -2 -5 -12 -21 -23 -35 -15 -20 -24 -23 -47 -17 -21 6 -28 15 -32 42
-5 36 -36 79 -57 79 -15 0 -17 -12 -4 -25 4 -6 12 -23 15 -40 6 -25 5 -28 -6
-17 -7 7 -13 16 -13 20 -1 18 -37 72 -53 81 -24 13 -398 26 -405 14z"/>
<path d="M2687 6606 c-4 -10 2 -25 13 -36 11 -11 20 -26 20 -33 0 -7 17 -30
38 -50 21 -21 39 -48 40 -62 1 -15 -2 -24 -8 -20 -6 3 -10 1 -10 -5 0 -17 -62
-39 -93 -33 l-27 5 0 -76 c0 -69 2 -76 20 -76 11 0 40 -5 64 -12 68 -18 94 -3
98 59 l3 48 35 -3 c19 -2 43 -11 54 -20 15 -14 42 -17 157 -17 116 0 136 2
122 13 -10 7 -28 15 -39 18 -12 3 -30 20 -40 39 -20 37 -50 45 -180 45 -48 0
-74 4 -74 11 0 7 -14 10 -35 7 -24 -3 -35 0 -35 9 0 8 12 13 30 13 40 0 56 32
42 84 -11 40 0 54 46 56 4 1 -11 10 -33 22 -54 28 -199 38 -208 14z"/>
<path d="M3757 6319 c-3 -12 -3 -36 0 -52 5 -25 3 -29 -10 -24 -14 5 -17 0
-17 -27 0 -18 -3 -36 -7 -40 -5 -4 -8 -11 -9 -14 -7 -47 -52 -102 -84 -102
-14 0 -12 47 3 53 18 6 -33 46 -60 47 -12 0 -24 4 -27 9 -12 18 -50 6 -57 -19
-13 -48 -9 -60 30 -88 33 -23 38 -31 34 -54 -4 -20 -1 -29 11 -34 20 -8 21
-44 2 -44 -23 0 -31 -22 -13 -35 21 -15 22 -34 2 -41 -20 -8 -1 -34 24 -34 18
0 91 -85 91 -106 0 -21 43 -27 75 -10 35 18 45 9 45 -45 0 -51 11 -100 21 -94
4 3 5 28 2 54 -3 27 -3 60 0 73 6 24 8 24 55 15 84 -18 131 12 66 41 -29 14
-31 33 -5 56 23 21 41 14 42 -17 1 -19 2 -18 14 8 7 17 9 31 4 33 -5 2 -6 8
-3 14 3 5 -4 12 -16 15 -14 4 -19 11 -15 21 3 8 -13 54 -35 102 -22 48 -40 97
-40 108 0 12 -20 64 -44 115 -24 50 -47 102 -50 115 -9 28 -22 28 -29 1z"/>
<path d="M2952 5915 c-16 -36 -15 -52 6 -64 21 -12 9 -27 -29 -36 -17 -4 -30
-1 -38 9 -21 26 -33 18 -15 -9 17 -26 48 -33 59 -15 6 9 92 8 141 -1 24 -4 35
5 54 44 l21 42 -31 28 c-26 23 -39 27 -94 27 -58 0 -64 -2 -74 -25z"/>
<path d="M2631 5733 c-5 -21 -17 -157 -26 -303 -8 -146 -20 -312 -25 -370 -20
-218 -23 -303 -11 -296 6 4 11 14 11 22 0 8 3 14 8 14 8 0 13 8 55 96 16 32
37 67 47 78 10 12 38 44 62 71 42 47 73 100 133 225 14 30 38 77 51 104 14 26
37 80 51 120 14 39 30 76 35 83 5 7 9 25 8 40 -3 43 -1 55 10 48 14 -9 29 57
16 77 -15 24 -77 34 -88 14 -6 -11 -23 -16 -52 -16 -24 0 -59 -6 -77 -14 -29
-12 -39 -12 -88 5 -31 11 -60 24 -65 29 -22 22 -45 10 -55 -27z"/>
<path d="M4870 5669 c-41 -38 -79 -69 -83 -69 -4 0 -34 -17 -65 -38 -82 -55
-212 -116 -332 -157 -100 -34 -140 -57 -140 -78 0 -5 -14 -23 -31 -39 -51 -49
-57 -76 -58 -271 -2 -237 -23 -347 -81 -412 -29 -33 -119 -171 -130 -199 -9
-24 -8 -25 8 -17 9 5 28 23 42 40 14 17 32 31 41 31 16 0 89 45 99 60 13 20
172 180 179 180 10 0 71 76 71 89 0 5 6 14 14 18 7 4 24 24 38 43 13 19 39 52
58 72 41 43 68 79 98 128 11 20 41 57 67 84 25 26 45 52 45 57 0 6 5 15 10 22
38 46 76 117 163 308 43 95 79 207 69 213 -4 2 -41 -27 -82 -65z"/>
<path d="M3316 5664 c-9 -8 -16 -30 -16 -47 -1 -18 -10 -57 -21 -87 -11 -30
-27 -77 -35 -105 -18 -56 -32 -77 -45 -69 -5 3 -9 2 -8 -3 3 -12 -30 -91 -53
-128 -7 -11 -24 -38 -37 -60 -51 -81 -73 -130 -96 -207 -25 -85 -75 -169 -112
-189 -13 -7 -23 -16 -23 -20 0 -5 -17 -26 -37 -48 -55 -58 -74 -81 -67 -81 3
0 -4 -13 -16 -30 -12 -16 -24 -29 -28 -29 -19 3 -32 -2 -32 -12 0 -6 -9 -23
-20 -39 -35 -50 -25 -51 380 -66 l185 -6 25 25 c14 14 33 47 43 74 11 26 27
66 37 88 54 117 70 158 70 185 0 35 -26 138 -39 154 -25 31 -41 127 -42 262
-1 78 1 146 5 152 3 6 9 55 12 109 3 54 10 114 15 133 5 19 9 41 9 48 0 17
-36 15 -54 -4z"/>
</g>
</svg>
