<?xml version="1.0" standalone="no"?>
<!DOCTYPE svg PUBLIC "-//W3C//DTD SVG 20010904//EN"
 "http://www.w3.org/TR/2001/REC-SVG-20010904/DTD/svg10.dtd">
<svg version="1.0" xmlns="http://www.w3.org/2000/svg"
 width="720.000000pt" height="1280.000000pt" viewBox="0 0 720.000000 1280.000000"
 preserveAspectRatio="xMidYMid meet">
<metadata>
Created by potrace 1.16, written by Peter Selinger 2001-2019
</metadata>
<g transform="translate(0.000000,1280.000000) scale(0.100000,-0.100000)"
fill="#000000" stroke="none">
<path d="M0 6400 l0 -6400 3600 0 3600 0 0 1030 0 1030 -547 2 c-302 1 -516 4
-478 7 47 4 -11 8 -180 14 -138 4 -262 10 -275 12 -14 3 -63 8 -110 11 -47 4
-91 10 -99 14 -8 4 -53 5 -100 2 -86 -4 -87 -4 -99 22 -6 14 -17 26 -24 26 -7
0 4 9 25 20 33 18 43 19 77 9 22 -7 40 -16 40 -22 0 -5 -6 -7 -14 -4 -9 4 -12
0 -9 -13 5 -19 43 -36 43 -19 0 5 -4 9 -10 9 -5 0 -7 6 -4 13 3 8 18 12 37 11
32 -2 64 16 125 73 15 14 92 82 172 152 80 69 169 149 198 178 l52 53 0 92 c0
51 -5 170 -11 263 -17 265 -15 344 15 518 33 202 33 209 -4 240 -34 29 -129
67 -166 67 -28 0 -30 4 -70 135 -129 426 -197 560 -332 651 -32 21 -59 39 -61
41 -3 2 6 14 18 27 13 14 35 61 51 106 29 88 35 88 46 -4 4 -36 1 -63 -10 -90
-13 -31 -13 -36 -2 -26 29 24 49 109 43 184 -7 85 -39 193 -68 230 -36 45 -15
39 29 -8 50 -54 77 -135 68 -204 -5 -47 -5 -47 9 -17 38 80 0 209 -87 295 -55
56 -148 105 -182 96 -33 -8 -38 11 -18 67 14 40 15 55 3 124 -21 128 -54 189
-122 224 -28 14 -36 24 -36 44 0 33 -13 46 -73 79 -72 39 -153 58 -250 58
-101 1 -174 -19 -255 -67 -31 -19 -65 -35 -74 -35 -54 0 -204 -99 -245 -160
-44 -66 -58 -126 -46 -186 14 -68 28 -78 23 -16 -2 31 2 60 14 86 l18 38 -3
-80 c-4 -77 -3 -81 26 -113 32 -35 52 -36 33 -1 -6 12 -11 29 -11 39 1 16 2
16 10 1 6 -9 11 -30 13 -47 6 -54 17 -46 17 12 0 50 2 57 19 57 11 0 23 -4 26
-10 3 -5 12 -10 18 -10 7 1 1 9 -12 20 -12 11 -27 17 -32 14 -30 -18 18 102
62 156 l20 25 -7 -24 c-11 -41 -6 -124 9 -161 23 -52 70 -113 104 -132 l31
-18 -14 38 c-14 39 -17 170 -5 212 6 21 9 16 14 -27 4 -29 14 -70 22 -93 15
-43 14 -45 -18 -30 -14 7 -9 0 11 -17 18 -15 60 -54 93 -85 33 -32 65 -58 72
-58 8 0 8 3 -1 12 -7 7 -12 16 -12 21 0 5 9 -2 21 -17 22 -28 57 -51 66 -43 2
3 -1 16 -7 29 -11 22 -11 22 9 -2 35 -43 54 -116 48 -187 -5 -62 -4 -64 14
-47 18 16 28 41 49 121 11 46 48 79 98 89 38 8 62 -16 62 -62 0 -62 -46 -123
-115 -153 -91 -40 -91 -40 -72 -40 10 -1 27 3 37 9 15 8 19 5 24 -23 7 -36 41
-67 129 -117 67 -37 69 -40 69 -86 0 -42 -18 -64 -92 -112 -92 -59 -134 -73
-236 -79 -109 -7 -160 7 -214 60 -30 29 -90 140 -90 167 0 5 17 10 38 10 33 0
41 -5 70 -48 19 -26 40 -56 48 -67 l14 -20 -8 20 c-4 11 -18 40 -31 64 -26 49
-30 42 57 92 29 17 52 33 50 35 -2 2 -31 -8 -64 -21 -34 -14 -93 -30 -131 -37
-63 -10 -74 -10 -97 6 -15 9 -36 31 -46 49 -25 40 -27 26 -2 -15 9 -16 34 -39
55 -49 20 -11 37 -25 37 -32 0 -6 13 -39 28 -72 36 -76 94 -128 167 -151 50
-16 65 -17 143 -5 99 14 145 32 232 91 70 48 96 90 86 141 -5 29 -15 39 -71
68 -35 19 -63 37 -61 39 3 2 34 -10 71 -27 36 -17 70 -31 74 -31 4 0 33 -22
64 -49 43 -38 66 -50 104 -56 l48 -7 -39 -13 c-101 -35 -177 -174 -227 -415
-18 -86 -23 -153 -28 -380 -5 -176 -11 -285 -19 -302 -6 -16 -8 -28 -4 -28 4
0 -6 -10 -21 -23 -18 -14 -36 -46 -51 -91 -22 -66 -24 -69 -82 -100 -50 -26
-63 -39 -84 -83 l-25 -53 -49 0 c-28 0 -76 5 -108 12 -31 7 -61 8 -65 4 -5 -5
-3 -11 4 -13 8 -3 9 -12 4 -26 -5 -12 -12 -50 -16 -84 -4 -34 -12 -66 -18 -71
-7 -6 -40 -13 -75 -17 -55 -6 -65 -5 -77 11 -8 11 -15 29 -15 41 0 42 -11 53
-50 53 -41 0 -40 2 -56 -105 -9 -63 -21 -63 -47 -3 -14 31 -30 58 -36 62 -5 4
-31 7 -56 8 -78 1 -135 -52 -135 -127 0 -60 -33 -38 -45 30 -9 49 -24 80 -25
51 0 -16 -3 -17 -12 -8 -16 16 -29 15 -22 -1 3 -8 -13 -36 -35 -63 -23 -27
-59 -71 -81 -99 -22 -27 -44 -55 -50 -61 -16 -21 -40 -86 -40 -109 0 -13 12
-38 26 -55 l27 -31 -17 -57 c-23 -76 -35 -138 -35 -189 -1 -23 -6 -43 -12 -45
-6 -2 -14 -28 -17 -57 -5 -55 10 -101 34 -101 7 0 16 -4 19 -10 4 -6 -42 -10
-132 -9 -86 0 -131 4 -118 9 11 5 15 9 8 9 -8 1 -4 20 11 58 35 88 48 113 57
108 4 -3 5 4 2 15 -3 11 0 20 6 20 6 0 11 6 11 14 0 8 9 30 20 48 51 87 60
208 24 328 -17 59 -95 147 -213 242 -42 33 -77 64 -79 69 -5 12 67 139 102
181 38 44 56 96 56 161 0 35 8 57 34 96 47 69 51 97 27 169 -25 74 -26 98 -5
148 24 57 14 108 -40 205 l-48 85 -48 -4 c-46 -4 -49 -2 -64 27 -9 16 -16 41
-16 55 0 19 -7 26 -32 31 -49 11 -61 43 -36 97 11 22 21 27 63 31 27 3 64 8
81 12 l31 7 -14 101 c-19 146 -52 306 -72 352 -19 44 -92 118 -137 141 l-29
14 30 -25 c17 -14 26 -25 22 -25 -5 0 -2 -7 7 -15 18 -19 12 -41 -14 -48 -13
-3 -21 -17 -25 -43 -10 -64 -15 -68 -83 -67 -34 1 -66 2 -72 2 -5 1 -10 15
-10 32 0 23 -9 40 -33 63 -18 17 -36 39 -40 49 -4 10 -11 16 -16 13 -5 -3 -11
11 -13 32 -4 36 9 62 31 62 6 0 11 5 11 10 0 14 67 13 72 -1 2 -7 13 -9 26 -4
13 3 22 11 20 17 -2 6 -55 29 -118 52 -97 35 -115 44 -113 61 3 30 -43 -71
-64 -139 -19 -62 -54 -96 -99 -96 -31 0 -130 36 -208 76 -78 39 -100 40 -33 0
25 -14 64 -43 88 -65 l44 -40 -23 -41 c-13 -23 -21 -44 -18 -47 9 -9 36 18 63
64 24 41 53 58 53 30 0 -23 -50 -87 -82 -103 -79 -41 -246 -46 -316 -10 -65
34 -152 165 -152 230 0 25 13 51 47 97 43 59 70 70 42 17 -11 -21 -11 -22 5
-8 10 8 22 24 27 37 6 15 17 23 33 23 19 0 28 -8 37 -35 15 -41 31 -48 19 -7
-15 51 -22 62 -40 62 -23 0 -131 64 -156 91 -14 16 -19 36 -18 80 1 65 21 99
58 99 24 0 106 -74 106 -95 0 -7 12 -27 26 -44 30 -36 59 -42 49 -11 -4 12 -4
39 0 61 6 37 9 40 31 35 23 -6 24 -5 24 51 0 32 5 65 10 73 7 11 10 0 10 -37
0 -29 3 -53 8 -53 4 0 17 17 30 38 12 20 37 55 55 77 18 22 40 52 49 65 15 22
15 19 -2 -37 l-18 -62 31 15 c41 21 95 71 114 107 21 42 25 28 8 -29 -8 -27
-15 -50 -15 -51 0 -2 6 -3 14 -3 23 0 95 90 113 142 10 26 21 48 24 48 13 0
59 -103 59 -130 0 -19 -7 -30 -24 -38 -24 -11 -55 -52 -39 -52 4 1 19 7 33 15
37 21 42 19 38 -17 -2 -21 -8 -33 -18 -33 -18 0 -33 -13 -49 -43 -7 -14 -8
-22 -1 -22 5 0 10 -7 10 -15 0 -27 18 -16 29 18 9 25 14 29 21 17 7 -11 10 -7
10 18 0 17 5 32 10 32 6 0 10 6 10 14 0 8 13 40 30 71 17 32 30 72 30 93 0 41
10 35 26 -16 l12 -37 1 58 c1 62 -17 118 -51 154 l-21 22 36 17 c43 20 56 43
23 37 -22 -5 -91 26 -148 65 l-28 18 28 25 27 24 -60 6 c-52 4 -205 42 -228
56 -4 3 -1 16 9 30 16 25 16 26 -2 18 -11 -5 -80 -11 -154 -14 -122 -6 -140
-9 -184 -34 l-48 -27 6 30 c5 28 4 30 -13 20 -30 -16 -60 -59 -67 -96 -5 -29
-12 -35 -53 -49 -50 -17 -88 -46 -117 -90 l-19 -29 50 29 50 30 -37 -44 c-21
-25 -47 -63 -57 -85 -29 -60 -43 -160 -29 -213 14 -59 28 -64 29 -11 l1 43 8
-50 c10 -65 29 -110 79 -184 23 -33 41 -64 41 -68 0 -5 18 -30 40 -57 22 -26
40 -52 40 -56 0 -5 -10 -12 -22 -15 -13 -4 -122 -56 -243 -116 -272 -135 -359
-195 -437 -304 -83 -117 -100 -179 -148 -560 -6 -49 -18 -100 -26 -113 -9 -13
-17 -42 -18 -65 -2 -23 -15 -95 -31 -160 -25 -106 -30 -117 -50 -117 -53 0
-147 -104 -197 -217 -17 -39 -19 -57 -13 -116 8 -84 29 -194 50 -261 11 -36
15 -96 15 -225 0 -143 3 -181 15 -198 9 -13 54 -41 102 -64 77 -37 91 -41 147
-37 41 2 72 11 91 24 17 12 44 26 62 32 l31 10 28 -81 c16 -44 53 -121 82
-171 51 -85 54 -94 55 -163 2 -72 3 -74 42 -108 l39 -36 -872 1 -872 1 0 432
c0 379 2 437 17 475 14 37 14 45 2 53 -12 7 -14 302 -16 2071 -2 1392 0 2058
7 2048 9 -13 13 -12 29 7 11 13 36 25 61 29 31 5 45 13 53 31 17 37 42 25 45
-22 4 -70 9 -80 39 -81 15 -1 43 -3 61 -4 18 -2 35 -1 37 2 3 3 -2 38 -11 78
-18 77 -13 93 27 83 10 -3 27 -2 36 2 10 5 24 9 31 11 18 3 28 14 14 14 -7 0
-12 10 -12 23 0 27 -26 67 -44 67 -25 0 -66 -41 -66 -65 0 -28 -26 -45 -69
-45 l-31 0 6 54 5 55 -37 10 c-42 12 -94 4 -94 -14 0 -7 -7 -18 -15 -25 -8 -7
-15 -27 -15 -45 0 -38 -24 -91 -45 -99 -13 -5 -15 121 -15 1024 l0 1030 1683
-2 1682 -3 3 -31 c2 -22 9 -34 24 -37 11 -3 17 -10 13 -16 -4 -7 4 -11 19 -11
14 0 27 4 30 9 3 4 19 11 36 14 21 5 30 12 30 26 0 11 -6 21 -12 24 -40 14 26
22 198 26 l195 3 -26 -37 c-14 -21 -25 -51 -25 -66 0 -37 -26 -52 -71 -39 -19
6 -53 10 -76 10 -41 0 -43 -1 -43 -30 0 -18 -6 -33 -15 -36 -8 -4 -15 -12 -15
-20 0 -7 -15 -17 -32 -22 -27 -7 -36 -16 -48 -51 -14 -40 -14 -43 4 -57 26
-19 56 -18 85 3 34 23 89 19 120 -11 l26 -25 57 26 c40 18 58 32 62 49 7 25
52 54 86 54 38 0 78 -28 82 -57 4 -36 49 -63 72 -44 14 12 13 18 -10 61 -23
43 -25 51 -13 73 8 13 29 52 47 86 18 33 41 67 52 73 11 7 20 20 20 29 0 12
13 18 46 23 65 8 646 7 660 -2 7 -4 13 -16 15 -27 3 -15 14 -21 44 -23 38 -3
39 -3 22 16 -26 28 -22 32 38 32 52 0 55 -1 55 -25 0 -17 5 -25 18 -25 41 0
53 -40 27 -90 -13 -25 -13 -29 -1 -24 9 3 21 -5 31 -19 14 -22 23 -25 69 -23
59 2 89 22 89 60 -1 20 6 25 46 31 25 4 61 8 79 9 47 2 40 24 -18 49 -64 28
-67 53 -7 62 23 3 224 5 447 3 l404 -3 6 -24 c4 -16 21 -33 50 -48 25 -12 48
-23 52 -23 14 0 38 32 31 43 -22 36 -14 47 36 47 43 0 51 -3 57 -22 17 -54 36
-67 94 -67 48 0 59 3 84 29 20 21 33 27 41 20 8 -7 20 0 40 20 l29 30 130 -1
c72 -1 119 -4 105 -6 -25 -4 -55 -44 -42 -57 4 -3 42 -6 85 -6 l78 0 0 1810 0
1810 -3600 0 -3600 0 0 -6400z m6786 3682 c159 -63 211 -265 105 -407 -25 -34
-27 -41 -14 -50 24 -18 0 -52 -48 -67 -33 -9 -47 -9 -72 2 -36 16 -116 15
-165 -1 -47 -15 -97 -4 -117 27 -13 20 -14 28 -4 40 10 12 8 19 -9 37 -37 39
-62 108 -62 171 0 78 16 128 58 176 79 93 205 120 328 72z m-643 2 c52 -18
116 -76 142 -130 60 -126 7 -282 -117 -344 -139 -69 -312 -20 -376 106 -42 84
-38 184 12 267 25 41 43 58 94 84 54 28 75 33 131 33 37 0 88 -7 114 -16z
m-5806 -224 c52 -224 51 -200 11 -200 -31 0 -36 4 -41 30 -6 27 -11 30 -42 30
-19 0 -38 0 -42 1 -4 0 -11 -14 -16 -30 -7 -27 -12 -31 -41 -31 l-34 0 14 58
c7 31 26 110 41 175 l27 118 44 -3 45 -3 34 -145z m373 58 l1 -93 30 38 c23
27 39 37 60 37 16 0 29 -3 29 -6 0 -4 -16 -28 -35 -54 l-34 -47 28 -45 c56
-89 56 -88 17 -88 -30 0 -38 5 -57 40 -26 45 -39 43 -39 -6 0 -31 -2 -34 -30
-34 l-30 0 0 175 0 175 30 0 30 0 0 -92z m1740 -83 l0 -176 -42 1 c-24 1 -54
-1 -68 -5 -43 -11 -77 25 -85 88 -7 58 7 128 30 147 17 14 51 17 83 6 21 -7
22 -5 22 53 l0 61 30 0 30 0 0 -175z m452 83 l3 -92 25 37 c20 30 31 37 58 37
30 0 42 -12 24 -24 -5 -3 -21 -23 -36 -44 l-27 -40 40 -66 41 -66 -35 0 c-30
0 -39 6 -62 43 l-28 42 -3 -42 c-3 -42 -4 -43 -38 -43 l-34 0 0 168 c0 93 3
172 7 175 3 4 19 7 34 7 l28 0 3 -92z m728 27 l0 -66 30 16 c33 17 60 13 85
-11 11 -12 15 -40 15 -120 l0 -104 -30 0 -29 0 -3 92 c-3 83 -5 93 -22 96 -33
7 -46 -25 -46 -110 l0 -78 -30 0 -30 0 0 175 0 175 30 0 30 0 0 -65z m530 4
c0 -58 1 -60 23 -53 76 26 107 -8 107 -118 0 -71 -2 -81 -26 -105 -20 -20 -31
-24 -52 -18 -15 4 -46 6 -69 5 l-43 -1 0 176 0 175 30 0 30 0 0 -61z m-1480
-9 c0 -38 2 -40 30 -40 25 0 30 -4 30 -25 0 -21 -5 -25 -30 -25 l-31 0 3 -67
c3 -66 4 -68 31 -71 21 -3 27 -8 23 -19 -3 -8 -6 -19 -6 -24 0 -16 -73 -10
-92 8 -14 13 -18 31 -18 90 0 66 -2 75 -20 80 -13 3 -20 14 -20 29 0 17 6 24
20 24 17 0 20 7 20 40 0 38 2 40 30 40 28 0 30 -2 30 -40z m-2096 -61 c24 -23
34 -121 17 -172 -15 -44 -59 -66 -97 -48 -14 6 -27 11 -29 11 -3 0 -5 -30 -5
-66 l0 -65 -27 3 -28 3 -3 179 -2 179 37 -5 c21 -3 47 -2 58 3 26 10 55 2 79
-22z m402 21 c8 0 23 -9 34 -20 17 -17 20 -33 20 -121 l0 -101 -32 3 c-18 1
-48 -1 -66 -5 -50 -12 -82 13 -82 64 0 44 20 64 83 81 28 7 37 15 35 27 -5 26
-48 28 -55 3 -6 -25 -51 -29 -60 -5 -13 34 56 90 95 78 8 -2 20 -4 28 -4z
m290 0 c39 -15 53 -39 54 -87 l0 -43 -61 0 c-60 0 -60 0 -57 -27 3 -32 44 -46
54 -19 4 10 18 16 35 16 35 0 39 -25 10 -61 -27 -34 -99 -34 -135 0 -23 22
-26 32 -26 96 0 79 20 120 63 128 12 2 25 5 29 6 4 0 19 -4 34 -9z m201 -1
c32 -12 43 -26 43 -56 0 -31 -45 -33 -53 -3 -7 26 -47 27 -47 1 0 -12 12 -23
33 -31 74 -30 97 -83 58 -131 -40 -50 -151 -22 -151 38 0 19 5 23 29 23 21 0
30 -6 34 -21 7 -25 40 -22 45 4 3 12 -9 23 -42 37 -76 32 -89 107 -23 135 39
17 39 17 74 4z m197 -3 c31 -13 53 -55 38 -71 -14 -14 -50 -3 -55 16 -4 13
-12 20 -24 17 -29 -5 -21 -32 15 -50 73 -36 92 -81 53 -129 -15 -19 -29 -24
-66 -24 -37 0 -51 5 -66 24 -29 36 -25 61 10 61 21 0 30 -6 34 -21 7 -25 40
-22 45 3 2 12 -11 24 -43 39 -74 35 -85 107 -21 135 39 17 40 17 80 0z m205 3
c17 -6 36 -19 41 -29 6 -10 10 -62 10 -115 l0 -97 -32 3 c-18 1 -48 -1 -66 -5
-50 -12 -82 13 -82 64 0 44 20 64 83 81 28 7 37 15 35 27 -5 25 -45 27 -58 3
-11 -22 -44 -28 -55 -10 -13 21 5 57 37 72 40 20 46 20 87 6z m319 -22 c16
-15 22 -32 22 -64 l0 -43 -61 0 c-60 0 -60 0 -57 -27 3 -32 44 -46 54 -19 9
23 64 21 64 -2 0 -69 -107 -94 -163 -37 -23 23 -24 151 -1 183 32 46 97 50
142 9z m1000 -3 c18 -21 22 -36 22 -98 0 -58 -4 -76 -20 -94 -43 -45 -130 -36
-157 18 -16 32 -17 121 -1 156 26 56 112 66 156 18z m240 8 c8 -10 12 -52 12
-119 l0 -103 -30 0 -30 0 0 90 c0 99 -12 119 -50 85 -17 -15 -20 -31 -20 -97
l0 -78 -30 0 -30 0 0 120 0 120 29 0 c16 0 31 -5 33 -11 2 -6 14 -5 33 5 33
17 63 13 83 -12z m530 -8 c15 -17 22 -38 22 -65 l0 -39 -61 0 c-60 0 -60 0
-57 -27 3 -32 44 -46 54 -19 4 10 18 16 35 16 35 0 40 -29 9 -60 -27 -27 -63
-34 -105 -20 -46 15 -55 34 -55 123 0 64 3 76 23 94 12 11 29 23 37 26 28 11
75 -3 98 -29z m539 12 c7 -6 13 -53 15 -116 l3 -105 -32 -3 -33 -3 0 91 c0 72
-3 92 -15 96 -33 13 -45 -15 -45 -102 l0 -84 -35 0 -35 0 0 120 0 120 35 0
c19 0 35 -4 35 -9 0 -6 12 -3 28 4 28 15 58 12 79 -9z m221 -12 c19 -22 22
-36 22 -120 l0 -95 -42 1 c-24 1 -54 -1 -68 -5 -35 -9 -80 27 -80 64 0 39 19
60 70 75 33 10 46 19 48 35 4 28 -31 29 -51 0 -22 -30 -63 -23 -59 11 10 70
109 91 160 34z m391 25 c36 -13 61 -53 61 -99 l0 -30 -59 0 c-65 0 -73 -5 -64
-38 6 -26 53 -32 53 -7 0 11 11 15 36 15 32 0 35 -2 29 -22 -13 -43 -42 -63
-90 -63 -64 0 -87 27 -93 105 -5 75 11 118 52 136 38 16 36 16 75 3z m204 -3
c15 -8 27 -11 27 -5 0 5 14 9 30 9 l30 0 0 -149 c0 -134 -2 -151 -20 -174 -41
-52 -147 -44 -170 13 -7 16 -9 34 -5 39 10 18 44 12 57 -9 26 -41 78 -15 78
40 0 17 -3 19 -19 10 -36 -19 -78 -12 -100 16 -16 21 -21 41 -21 90 0 72 13
107 44 122 29 14 37 14 69 -2z m285 -22 c19 -22 22 -36 22 -120 l0 -95 -42 1
c-24 1 -54 -1 -68 -5 -34 -9 -80 27 -80 61 0 42 17 62 70 79 37 12 50 22 50
36 0 26 -36 25 -50 -1 -11 -20 -54 -28 -64 -12 -10 16 29 76 54 84 40 11 83 0
108 -28z m-3048 -94 l0 -120 -35 0 -35 0 0 113 c0 63 3 117 7 120 3 4 19 7 35
7 l28 0 0 -120z m2280 63 c19 -91 25 -93 45 -14 17 70 18 71 50 71 l33 0 -24
-82 c-79 -281 -76 -273 -113 -276 -28 -3 -33 -1 -27 14 29 76 29 101 -4 209
-17 59 -34 113 -37 121 -4 10 4 14 29 14 34 0 35 -1 48 -57z m396 -4859 c3
-25 1 -71 -5 -101 -11 -56 -51 -123 -74 -123 -21 0 -172 69 -175 80 -3 7 11 8
40 4 35 -5 41 -4 31 7 -21 21 -16 27 43 44 70 20 114 61 114 104 0 47 18 37
26 -15z m302 -487 c54 -53 122 -211 137 -322 13 -97 26 -450 20 -552 -12 -219
-70 -506 -123 -608 -40 -77 -109 -138 -292 -257 -184 -120 -188 -122 -297
-114 -87 6 -95 5 -130 -18 -43 -28 -48 -29 -117 -27 -48 1 -49 2 -32 20 9 10
28 21 41 23 22 5 23 3 13 -16 -10 -20 -9 -20 7 -5 23 22 14 46 -41 114 -45 55
-121 105 -133 88 -3 -5 -14 -12 -24 -16 -15 -6 -17 -3 -11 16 9 30 32 55 76
83 21 14 48 45 65 75 21 40 37 56 63 65 19 7 29 13 22 13 -18 1 -5 21 14 21 9
0 12 -5 8 -11 -4 -7 -2 -10 6 -7 7 2 20 28 29 58 26 82 46 107 107 130 69 25
66 25 87 -7 10 -16 16 -21 13 -13 -29 89 -29 88 -11 142 21 66 31 78 63 78 33
0 98 33 142 72 39 34 25 29 -34 -14 -61 -44 -66 -40 -66 52 0 44 4 110 10 147
5 38 19 131 30 209 30 208 80 394 134 499 16 31 63 79 106 108 34 23 77 14
118 -26z m-2521 -912 l22 -15 -30 -56 c-35 -68 -36 -96 -6 -153 l24 -44 -36
-48 -35 -48 -11 44 c-7 24 -18 51 -25 60 -10 12 -10 21 -1 41 16 36 14 108 -6
148 -16 35 -16 35 18 91 l33 55 16 -30 c8 -16 25 -37 37 -45z m118 -586 c15
-8 37 -26 48 -41 17 -22 18 -31 8 -58 -6 -18 -16 -105 -22 -194 -12 -173 -20
-201 -69 -236 -36 -26 -39 -12 -10 45 11 21 18 41 15 43 -5 6 -55 -97 -55
-114 0 -14 -76 -84 -90 -84 -6 0 -4 10 4 23 20 30 87 189 83 194 -2 2 -24 -39
-47 -92 -46 -101 -69 -130 -111 -140 -38 -9 -43 8 -15 49 24 35 81 194 73 202
-2 3 -19 -37 -36 -87 -20 -57 -46 -109 -69 -137 -49 -60 -33 -70 66 -40 24 7
37 6 47 -2 12 -10 12 -17 -5 -50 -11 -22 -30 -55 -44 -74 -19 -29 -35 -80 -40
-131 -1 -11 -361 -23 -473 -16 l-63 3 0 64 c0 34 -5 66 -11 69 -6 4 -8 14 -5
22 3 8 1 11 -4 8 -6 -3 -10 4 -10 17 0 17 3 19 9 9 5 -8 7 5 4 35 l-5 49 23
-40 c15 -27 24 -63 27 -113 5 -78 21 -100 62 -87 14 4 20 2 20 -9 0 -10 9 -16
23 -16 18 0 19 2 7 10 -12 7 -15 33 -15 127 0 80 -4 125 -13 138 -11 18 -12
16 -5 -15 15 -68 -1 -208 -24 -217 -23 -9 -31 8 -36 82 -3 47 -12 82 -26 105
-11 19 -21 42 -21 50 0 9 -18 37 -41 64 -22 27 -60 90 -84 140 -24 50 -55 106
-69 125 -14 19 -26 38 -26 42 0 30 112 119 150 119 11 0 58 -36 107 -83 98
-92 219 -191 246 -200 17 -6 87 -138 87 -164 0 -7 4 -13 9 -13 5 0 8 8 7 18
-1 12 7 17 27 18 24 1 27 -2 27 -31 0 -18 7 -39 17 -46 15 -13 15 -12 4 10
-14 26 -14 26 22 161 30 114 44 220 28 220 -6 0 -11 -18 -11 -42 0 -23 -12
-91 -27 -152 l-27 -111 -7 68 c-4 38 -10 71 -12 74 -3 3 12 53 33 113 36 101
43 112 100 166 34 33 71 77 82 99 34 67 48 78 94 72 22 -2 53 -10 69 -18z
m1074 -19 c10 -5 26 -28 35 -50 9 -22 41 -67 71 -100 30 -33 55 -64 55 -70 0
-20 30 -14 208 41 38 12 74 -6 134 -68 l37 -38 -83 -100 c-80 -96 -141 -150
-216 -193 -19 -10 -51 -28 -70 -39 -19 -12 -48 -24 -63 -27 -24 -6 -16 6 55
75 67 67 72 72 23 31 -33 -27 -76 -67 -95 -87 -34 -35 -88 -71 -96 -63 -8 9
64 129 101 170 66 71 73 86 13 30 -30 -30 -73 -85 -94 -123 -21 -38 -42 -69
-46 -69 -27 0 18 158 62 218 17 23 27 42 24 42 -21 0 -73 -98 -94 -179 -15
-58 -18 -63 -29 -44 -41 77 19 238 133 361 17 18 24 30 16 27 -23 -10 -119
-135 -146 -191 -13 -27 -24 -62 -25 -79 0 -27 -3 -24 -30 30 -16 33 -38 74
-49 90 -18 29 -18 35 -5 110 7 44 15 105 18 135 2 30 2 43 0 28 -2 -16 -9 -28
-14 -28 -10 0 -2 48 11 65 5 6 10 21 12 35 6 49 98 87 147 60z m-291 -112 c-4
-22 42 -106 73 -132 16 -14 29 -27 29 -29 0 -3 -32 -5 -71 -6 -38 0 -74 -3
-79 -6 -4 -3 -22 -2 -39 1 -52 11 -41 53 36 134 18 19 33 38 33 43 0 4 5 7 10
7 6 0 10 -6 8 -12z m-2176 -93 c32 -9 63 -15 70 -14 24 5 98 -13 98 -22 0 -6
6 -7 13 -3 9 5 9 4 0 -6 -6 -7 -9 -19 -6 -28 4 -8 56 -65 117 -126 92 -92 146
-163 146 -192 0 -3 -14 -3 -30 1 -17 4 -48 4 -69 0 -52 -9 -72 -51 -81 -175
l-7 -95 -1 106 c-2 81 -6 110 -17 119 -8 7 -12 17 -8 24 4 7 3 8 -4 1 -5 -6
-8 -61 -5 -132 l4 -121 42 -5 c22 -2 70 -10 106 -17 36 -6 79 -9 96 -7 22 4
31 1 31 -9 0 -12 -33 -14 -187 -14 -103 0 -201 -3 -217 -6 l-29 -6 4 97 c4 77
2 97 -9 93 -7 -2 -15 -10 -17 -18 -3 -7 0 -10 7 -6 8 5 11 -12 11 -58 0 -72
-9 -82 -51 -58 -25 14 -59 69 -59 94 0 7 20 54 45 105 45 92 54 123 35 123 -5
0 -10 -13 -10 -29 0 -16 -7 -34 -15 -41 -8 -7 -15 -18 -15 -26 0 -19 -22 -64
-32 -64 -4 0 -8 6 -8 13 0 6 -22 50 -49 96 -27 46 -64 129 -82 185 -18 55 -36
106 -41 112 -11 15 -13 65 -4 93 5 15 11 19 15 12 11 -17 41 -2 41 20 0 11 7
22 15 25 8 4 12 10 9 16 -3 5 16 -2 43 -15 27 -14 74 -33 105 -42z m2270 -134
c-2 -19 1 -43 6 -55 5 -12 17 -46 26 -77 9 -31 27 -67 40 -80 13 -13 26 -42
30 -64 4 -21 15 -44 23 -50 15 -11 15 -20 0 -102 -10 -50 -17 -107 -17 -127
l0 -36 -147 0 -148 0 -39 81 c-36 73 -40 89 -39 158 1 127 79 372 123 385 8 2
44 3 80 3 l65 -2 -3 -34z m653 -180 c78 -28 104 -50 175 -147 l62 -86 -38 -39
c-21 -22 -73 -62 -114 -89 l-76 -50 -267 0 -267 0 0 57 c0 31 5 85 11 120 10
60 20 75 34 53 7 -11 51 4 75 24 8 7 31 16 52 19 39 6 138 59 221 120 28 20
57 37 64 37 8 0 38 -9 68 -19z"/>
<path d="M6613 9773 c-20 -4 -23 -11 -23 -51 l0 -47 85 0 85 0 0 46 c0 40 -3
48 -22 53 -25 6 -90 6 -125 -1z"/>
<path d="M2630 2509 c0 -6 12 -46 26 -88 l26 -77 -27 -77 c-15 -42 -34 -82
-41 -88 -18 -15 -17 -1 1 31 8 14 14 38 15 54 0 43 -31 189 -42 201 -7 7 -9 2
-5 -15 3 -14 12 -64 18 -112 13 -87 13 -88 -17 -160 -20 -48 -37 -74 -49 -77
-16 -3 -17 1 -9 30 14 52 11 230 -4 254 -12 18 -13 16 -7 -15 20 -113 14 -215
-16 -272 -8 -15 -5 -18 20 -18 21 0 34 9 52 35 13 19 29 35 35 35 21 0 45 38
65 101 25 84 24 107 -7 195 -26 71 -34 87 -34 63z"/>
<path d="M4452 9066 l-103 -9 3 -76 c3 -85 -3 -81 90 -64 37 6 58 19 100 59
29 28 60 53 68 57 12 4 11 6 -2 6 -10 1 -18 5 -18 11 0 20 -39 25 -138 16z"/>
<path d="M2649 9031 c-33 -29 -33 -29 -19 -70 19 -57 39 -73 91 -69 44 3 44 3
47 45 3 38 -1 46 -39 82 -23 23 -43 41 -44 41 -1 0 -17 -13 -36 -29z"/>
<path d="M7018 9024 c-45 -15 -84 -48 -142 -115 -8 -9 -36 -20 -64 -24 -39 -5
-51 -11 -55 -27 -7 -25 11 -56 36 -64 24 -7 87 4 87 16 0 15 94 30 102 17 13
-20 9 -82 -6 -102 -14 -20 -11 -43 8 -60 6 -5 18 -30 26 -55 17 -50 7 -47 129
-34 l64 7 -5 129 c-5 116 -8 132 -28 153 -15 16 -21 31 -17 45 4 15 -3 31 -23
52 -16 17 -32 38 -35 48 -8 24 -34 29 -77 14z"/>
<path d="M6170 8260 c0 -32 21 -67 47 -79 37 -17 283 -2 283 18 0 10 -72 41
-96 41 -10 0 -39 9 -63 20 -28 13 -65 20 -107 20 -57 0 -64 -2 -64 -20z"/>
<path d="M6985 8194 c-14 -11 -33 -13 -65 -10 -101 12 -135 11 -138 -5 -5 -28
84 -63 183 -70 50 -3 100 -9 111 -13 16 -6 22 -3 27 13 4 15 -6 31 -39 61 -49
45 -51 45 -79 24z"/>
<path d="M650 7363 c-8 -4 -35 -28 -61 -55 -31 -33 -53 -48 -70 -48 -35 0 -41
-8 -22 -36 13 -21 23 -24 79 -24 36 0 64 4 64 10 0 15 51 12 80 -5 14 -8 36
-14 49 -15 31 0 81 46 81 75 0 28 -27 65 -48 65 -9 1 -35 9 -57 20 -41 20 -68
23 -95 13z"/>
<path d="M860 7160 c0 -5 -18 -13 -40 -16 -22 -4 -40 -10 -40 -15 0 -15 -67
-31 -87 -20 -52 28 -83 31 -121 11 -24 -13 -47 -18 -64 -14 -27 5 -28 4 -28
-31 0 -65 38 -98 70 -60 18 22 50 19 50 -5 0 -28 33 -43 64 -29 34 16 56 -2
56 -45 0 -70 46 -73 141 -11 88 59 106 91 101 172 -3 53 -7 62 -25 67 -34 9
-77 7 -77 -4z"/>
<path d="M214 6678 c-24 -28 -44 -72 -44 -99 0 -29 49 -71 79 -67 25 3 26 6
29 76 3 66 0 76 -19 93 -27 23 -22 23 -45 -3z"/>
<path d="M395 6149 c-4 -6 -9 -36 -12 -68 -4 -44 -2 -61 11 -73 9 -9 16 -25
15 -35 0 -16 -1 -16 -9 2 -7 16 -9 17 -9 3 -1 -10 -13 -19 -30 -23 -47 -10
-55 -27 -40 -77 11 -32 23 -47 47 -60 19 -9 49 -30 68 -47 33 -31 34 -31 34
-8 0 12 -6 31 -13 42 -8 11 -20 59 -27 106 -12 81 -11 88 9 133 11 27 21 64
21 82 0 31 -3 34 -29 34 -17 0 -33 -5 -36 -11z"/>
<path d="M1260 5895 c0 -82 -4 -102 -24 -143 -14 -26 -28 -60 -32 -76 -8 -32
-8 -33 63 16 52 35 82 102 62 139 -6 13 -11 43 -10 68 1 47 -20 91 -44 91 -12
0 -15 -18 -15 -95z"/>
<path d="M760 5470 c-18 -18 -19 -23 -6 -48 12 -24 11 -29 -8 -48 -11 -12 -32
-25 -46 -29 -14 -5 -42 -19 -64 -32 -21 -14 -53 -27 -72 -30 -18 -3 -38 -11
-44 -18 -6 -8 -10 -49 -8 -100 3 -93 6 -98 59 -109 17 -4 31 -16 39 -36 7 -16
16 -30 21 -30 17 0 9 -52 -11 -77 -11 -14 -20 -37 -20 -52 -1 -14 -7 -37 -14
-50 -10 -19 -11 -31 -3 -48 15 -34 -5 -73 -39 -73 -26 0 -26 -1 -19 -47 4 -27
11 -55 16 -64 5 -9 9 -30 9 -45 0 -16 0 -69 0 -118 0 -49 2 -92 5 -95 7 -7 96
17 112 31 9 7 13 38 13 93 0 111 18 143 140 240 52 41 101 75 108 75 6 0 12 4
12 9 0 5 9 11 20 14 26 7 25 24 -2 33 -16 5 -26 0 -40 -19 -27 -36 -161 -101
-193 -93 -29 7 -33 38 -10 82 8 16 15 52 15 79 0 46 7 61 63 147 35 52 66 105
70 117 8 31 -17 27 -63 -9 -44 -35 -56 -37 -70 -11 -20 38 3 135 63 271 38 86
18 141 -33 90z"/>
<path d="M1190 5087 c0 -19 -7 -51 -15 -70 -8 -20 -15 -49 -15 -65 0 -35 -34
-108 -55 -115 -23 -9 -18 -26 10 -37 22 -8 25 -15 25 -63 0 -61 20 -98 49 -90
11 3 23 12 26 21 11 27 26 168 32 290 5 117 2 131 -39 153 -16 9 -18 6 -18
-24z"/>
<path d="M4243 4060 c8 -19 17 -82 20 -140 l6 -105 -24 30 c-38 46 -30 11 16
-79 69 -135 81 -172 69 -217 -6 -21 -16 -39 -22 -39 -6 0 1 -9 14 -20 57 -44
73 -127 38 -193 -23 -42 -26 -90 -7 -104 20 -16 112 -16 125 0 10 11 2 23 -38
60 -53 49 -60 70 -35 117 8 16 12 37 9 47 -5 17 -5 17 9 1 30 -37 22 -14 -33
100 -32 64 -65 139 -74 165 -21 63 -46 231 -46 307 0 48 -5 66 -21 83 l-20 22
14 -35z"/>
<path d="M613 3754 c-7 -15 -10 -30 -8 -34 3 -4 -6 -33 -19 -63 -23 -51 -24
-56 -8 -70 21 -18 62 -31 62 -20 0 5 11 13 24 19 24 9 24 10 11 49 -8 22 -15
58 -15 81 0 35 -13 64 -29 64 -4 0 -11 -12 -18 -26z"/>
<path d="M382 3554 c-26 -18 -28 -41 -6 -72 14 -20 21 -22 60 -16 43 6 51 1
45 -30 -1 -5 4 -13 11 -17 11 -7 11 -12 0 -30 -7 -11 -11 -23 -8 -26 3 -3 8 2
12 11 3 9 11 16 18 17 17 1 86 88 86 110 0 26 -59 49 -124 49 -29 0 -56 4 -62
10 -6 6 -17 5 -32 -6z"/>
<path d="M365 3213 c-21 -4 -83 -27 -127 -46 -26 -11 -27 -12 -23 -101 2 -50
8 -92 13 -94 6 -2 23 13 39 33 15 20 41 51 56 68 29 31 77 117 77 137 0 10 -2
11 -35 3z"/>
</g>
</svg>
