<?xml version="1.0" standalone="no"?>
<!DOCTYPE svg PUBLIC "-//W3C//DTD SVG 20010904//EN"
 "http://www.w3.org/TR/2001/REC-SVG-20010904/DTD/svg10.dtd">
<svg version="1.0" xmlns="http://www.w3.org/2000/svg"
 width="720.000000pt" height="1280.000000pt" viewBox="0 0 720.000000 1280.000000"
 preserveAspectRatio="xMidYMid meet">
<metadata>
Created by potrace 1.16, written by Peter Selinger 2001-2019
</metadata>
<g transform="translate(0.000000,1280.000000) scale(0.100000,-0.100000)"
fill="#000000" stroke="none">
<path d="M0 6400 l0 -6400 3600 0 3600 0 0 1318 c0 1115 -3 1326 -15 1377 -19
78 -19 105 0 105 10 0 15 10 15 30 0 22 -5 30 -18 30 -25 0 -42 19 -42 47 0
19 5 23 30 23 l30 0 0 2201 0 2201 -27 -8 c-93 -27 -203 37 -203 119 0 48 22
62 101 63 45 1 75 6 77 13 2 6 -10 24 -26 41 -37 37 -85 40 -118 9 -25 -23
-50 -20 -61 7 -9 25 40 64 80 64 56 0 110 -21 144 -55 l33 -33 0 2624 0 2624
-3600 0 -3600 0 0 -6400z m6796 3680 c151 -69 198 -267 95 -405 -25 -34 -27
-41 -14 -50 14 -10 14 -14 -2 -38 -22 -35 -90 -46 -136 -23 -33 16 -80 14
-147 -6 -47 -14 -99 -2 -118 28 -13 20 -14 27 -4 39 11 13 9 19 -8 38 -85 90
-82 268 6 360 77 81 220 106 328 57z m-653 4 c29 -10 64 -34 92 -62 124 -125
89 -333 -68 -412 -133 -66 -310 -20 -370 96 -47 91 -44 191 7 276 25 43 43 59
94 85 54 28 75 33 131 33 37 0 88 -7 114 -16z m-5802 -244 c21 -91 39 -168 39
-172 0 -5 -15 -8 -33 -8 -28 0 -34 4 -42 32 -9 29 -14 32 -50 31 -36 0 -40 -3
-47 -31 -8 -28 -13 -32 -42 -32 l-34 0 14 58 c7 31 26 110 41 175 l27 118 44
-3 45 -3 38 -165z m369 78 l1 -93 30 38 c23 27 39 37 60 37 16 0 29 -3 29 -6
0 -4 -16 -28 -35 -53 -30 -41 -33 -50 -21 -67 7 -10 25 -40 40 -66 l27 -48
-35 0 c-30 0 -38 5 -57 40 -26 45 -39 43 -39 -6 0 -31 -2 -34 -30 -34 l-30 0
0 175 0 175 30 0 30 0 0 -92z m1740 -83 l0 -176 -42 1 c-24 1 -55 -1 -69 -5
-19 -5 -33 -1 -55 18 -28 24 -29 29 -28 107 1 68 4 85 21 102 22 21 54 27 91
14 21 -7 22 -5 22 53 l0 61 30 0 30 0 0 -175z m452 83 l3 -92 25 37 c20 30 31
37 58 37 30 0 42 -12 24 -24 -5 -3 -21 -23 -36 -44 l-27 -40 40 -66 41 -66
-34 0 c-28 0 -38 7 -62 43 l-29 42 -3 -42 c-3 -42 -4 -43 -38 -43 l-34 0 0
175 0 175 35 0 34 0 3 -92z m728 27 l0 -66 30 16 c33 17 60 13 85 -11 11 -12
15 -40 15 -120 l0 -104 -30 0 -30 0 0 90 c0 75 -3 92 -16 97 -37 14 -49 -10
-52 -101 l-3 -86 -29 0 -30 0 0 175 0 175 30 0 30 0 0 -65z m530 4 c0 -58 1
-60 23 -53 76 26 107 -8 107 -118 0 -71 -2 -81 -26 -105 -20 -20 -31 -24 -52
-18 -15 4 -46 6 -69 5 l-43 -1 0 176 0 175 30 0 30 0 0 -61z m-1480 -9 c0 -38
2 -40 30 -40 25 0 30 -4 30 -25 0 -21 -5 -25 -30 -25 l-31 0 3 -67 c3 -66 4
-68 31 -71 21 -3 27 -8 23 -19 -3 -8 -6 -19 -6 -24 0 -16 -73 -10 -92 8 -14
13 -18 31 -18 90 0 66 -2 75 -20 80 -13 3 -20 14 -20 29 0 17 6 24 20 24 16 0
20 7 20 33 0 40 6 47 37 47 20 0 23 -5 23 -40z m-2096 -61 c24 -23 34 -121 17
-172 -15 -44 -59 -66 -97 -48 -14 6 -27 11 -29 11 -3 0 -5 -30 -5 -66 l0 -65
-27 3 -28 3 -3 179 -2 179 37 -5 c21 -3 47 -2 58 3 26 10 55 2 79 -22z m405
20 c44 -16 51 -35 51 -143 l0 -96 -47 -1 c-27 0 -60 -1 -75 -1 -40 -1 -58 19
-58 63 0 43 20 63 83 80 28 7 37 15 35 27 -5 26 -48 28 -55 3 -4 -14 -13 -21
-29 -21 -65 0 -15 96 52 99 6 1 25 -4 43 -10z m290 0 c38 -14 51 -35 51 -88
l0 -41 -61 0 c-60 0 -60 0 -57 -27 3 -32 44 -46 54 -19 4 10 18 16 35 16 35 0
39 -25 10 -61 -15 -19 -29 -24 -66 -24 -39 0 -51 5 -71 28 -20 24 -24 39 -24
96 0 75 21 116 63 124 12 2 25 5 28 6 3 0 20 -4 38 -10z m198 0 c32 -12 43
-26 43 -56 0 -31 -45 -33 -53 -3 -7 26 -47 27 -47 1 0 -11 12 -23 30 -31 78
-32 101 -82 61 -131 -15 -19 -29 -24 -66 -24 -37 0 -51 5 -66 24 -29 36 -25
61 11 61 24 0 30 -4 30 -21 0 -15 5 -20 22 -17 40 5 31 32 -19 58 -91 48 -80
135 19 149 4 1 19 -4 35 -10z m191 0 c29 -10 59 -59 45 -73 -15 -15 -51 -5
-56 15 -4 13 -12 20 -24 17 -29 -5 -21 -32 15 -50 73 -36 92 -81 53 -129 -15
-19 -29 -24 -66 -24 -37 0 -51 5 -66 24 -29 36 -25 61 10 61 21 0 30 -6 34
-21 7 -25 40 -22 45 3 2 12 -11 24 -43 39 -74 35 -86 106 -22 134 39 17 37 17
75 4z m211 0 c17 -6 36 -19 41 -29 6 -10 10 -62 10 -115 l0 -97 -32 3 c-18 1
-48 -1 -66 -5 -50 -12 -82 13 -82 64 0 44 20 64 83 81 28 7 37 15 35 27 -5 25
-45 27 -58 3 -13 -24 -48 -28 -56 -6 -8 20 21 64 49 75 30 12 39 12 76 -1z
m318 -21 c17 -16 23 -33 23 -65 l0 -43 -61 0 c-60 0 -60 0 -57 -27 3 -32 44
-46 54 -19 8 20 64 22 64 2 0 -69 -102 -98 -158 -45 -19 17 -22 31 -22 98 0
68 3 80 23 98 12 11 29 23 37 26 25 10 73 -2 97 -25z m1001 -4 c18 -21 22 -36
22 -98 0 -65 -3 -75 -26 -97 -35 -33 -104 -34 -136 -2 -27 28 -37 127 -17 174
24 60 111 73 157 23z m240 8 c8 -10 12 -52 12 -119 l0 -103 -30 0 -30 0 0 90
c0 75 -3 92 -17 97 -32 12 -53 -32 -53 -113 l0 -74 -30 0 -30 0 0 120 0 120
29 0 c16 0 31 -5 33 -11 2 -6 14 -5 33 5 33 17 63 13 83 -12z m529 -4 c17 -16
23 -33 23 -65 l0 -43 -61 0 c-60 0 -60 0 -57 -27 3 -32 44 -46 54 -19 4 10 18
16 35 16 22 0 29 -5 29 -20 0 -42 -64 -79 -115 -66 -52 13 -65 39 -65 124 0
69 3 81 23 99 12 11 29 23 37 26 25 10 73 -2 97 -25z m540 8 c6 -6 13 -57 16
-118 l5 -108 -34 0 -34 0 0 90 c0 72 -3 92 -15 96 -33 13 -45 -15 -45 -102 l0
-84 -35 0 -35 0 0 120 0 120 35 0 c19 0 35 -4 35 -9 0 -6 12 -3 28 4 28 15 58
12 79 -9z m218 -7 c17 -16 21 -35 23 -120 l4 -100 -44 1 c-23 1 -54 -1 -68 -5
-35 -9 -80 27 -80 64 0 39 19 60 70 75 33 10 46 19 48 35 4 28 -33 29 -50 1
-12 -19 -48 -27 -60 -14 -15 14 11 60 43 77 40 20 84 15 114 -14z m400 16 c37
-15 55 -46 55 -96 0 -29 0 -29 -59 -29 -65 0 -73 -5 -64 -38 6 -26 53 -32 53
-7 0 11 11 15 36 15 32 0 35 -2 29 -22 -4 -13 -18 -34 -33 -47 -21 -19 -33
-22 -65 -18 -59 8 -80 35 -85 107 -5 75 11 118 52 136 39 17 40 17 81 -1z
m198 1 c15 -8 27 -11 27 -5 0 5 14 9 31 9 l30 0 -3 -154 c-3 -134 -5 -157 -22
-175 -42 -46 -144 -35 -166 19 -7 16 -9 34 -5 39 10 18 44 12 57 -9 27 -42 78
-15 78 41 0 18 -3 20 -12 11 -7 -7 -29 -12 -49 -12 -56 0 -79 34 -79 116 0 72
13 107 44 122 29 14 37 14 69 -2z m285 -22 c19 -22 22 -36 22 -120 l0 -95 -42
1 c-24 1 -55 -1 -70 -5 -21 -6 -32 -2 -52 18 -48 48 -29 99 44 121 33 10 46
19 48 35 4 28 -33 29 -50 1 -12 -19 -48 -27 -60 -14 -15 14 11 60 43 77 43 22
86 16 117 -19z m-3048 -94 l0 -120 -35 0 -35 0 0 113 c0 63 3 117 7 120 3 4
19 7 35 7 l28 0 0 -120z m2271 103 c0 -10 8 -43 18 -73 l17 -55 19 73 c18 70
20 72 51 72 l32 0 -24 -82 c-79 -281 -76 -273 -113 -276 -28 -3 -33 -1 -27 14
29 76 29 101 -4 209 -17 59 -34 113 -37 121 -4 10 4 14 31 14 27 0 36 -4 37
-17z m-282 -735 c12 -107 26 -229 37 -333 3 -33 24 -145 45 -250 21 -104 39
-201 39 -214 0 -21 -3 -23 -32 -17 -18 3 -58 6 -89 6 -97 -1 -152 34 -195 125
-36 77 -28 154 20 187 16 11 101 10 132 -2 15 -6 29 -8 32 -5 3 3 0 35 -6 72
-14 79 -18 111 -32 253 -6 58 -15 134 -20 170 -16 106 -15 110 23 110 l34 0
12 -102z m735 79 c3 -12 10 -63 16 -112 16 -132 28 -220 40 -310 7 -44 15
-107 19 -140 5 -40 22 -86 49 -139 73 -139 81 -261 26 -352 -19 -30 -39 -50
-52 -52 -33 -5 -36 21 -9 61 57 83 41 231 -39 368 -29 48 -36 75 -50 176 -8
65 -24 183 -35 263 -10 80 -22 171 -25 203 l-7 57 30 0 c24 0 32 -5 37 -23z
m-4961 -51 c77 -32 147 -128 147 -202 0 -37 -36 -94 -70 -111 -31 -16 -121
-17 -171 -2 -79 24 -139 97 -154 187 -6 37 -3 49 20 83 14 22 41 47 58 55 36
16 119 12 170 -10z m472 -66 c50 -31 72 -53 93 -95 33 -65 37 -106 13 -153
-25 -49 -64 -72 -124 -72 -129 0 -247 103 -247 215 0 52 17 84 60 113 31 22
42 23 104 18 42 -4 82 -14 101 -26z m1097 -2 c9 -7 19 -29 21 -48 14 -100 31
-186 38 -194 4 -5 36 15 70 43 46 38 68 51 83 47 12 -3 27 -6 34 -6 26 0 9
-27 -43 -69 -30 -24 -55 -48 -55 -53 0 -6 41 -52 91 -103 50 -51 86 -96 81
-99 -6 -3 -24 -3 -41 0 -23 5 -51 28 -99 81 -85 95 -107 97 -107 8 0 -60 0
-60 -29 -58 -16 1 -31 5 -34 8 -8 7 -70 438 -65 448 7 11 37 8 55 -5z m-756
-31 c63 -2 87 -8 111 -25 35 -25 51 -27 87 -11 35 16 128 3 167 -24 51 -34 66
-71 79 -187 7 -58 13 -109 14 -115 0 -5 -14 -10 -33 -10 -41 0 -45 10 -61 145
-14 110 -14 112 -51 133 -41 23 -84 22 -110 -4 -18 -18 -20 -29 -15 -68 4 -25
10 -76 13 -113 6 -67 5 -68 -18 -68 -13 0 -29 4 -35 8 -6 4 -19 59 -28 122
-15 105 -18 117 -46 143 -23 21 -40 27 -74 27 -66 0 -72 -12 -58 -128 18 -141
17 -142 -17 -142 -17 0 -32 4 -35 9 -5 8 -46 287 -46 313 0 6 16 8 38 5 20 -4
73 -8 118 -10z m2101 -154 c3 -7 11 -40 17 -71 l11 -57 62 3 c76 5 126 -17
158 -68 23 -36 70 -244 59 -261 -7 -11 -35 -11 -52 0 -14 9 -23 41 -42 159
-15 91 -42 122 -106 122 -25 0 -47 -6 -54 -15 -13 -15 -12 -24 10 -157 8 -43
11 -81 7 -84 -3 -3 -19 -3 -35 1 -28 6 -30 10 -41 83 -7 42 -19 109 -26 147
-20 96 -35 207 -30 215 7 12 56 -2 62 -17z m-779 -20 c59 -28 130 -149 103
-176 -5 -5 -44 -3 -92 3 -151 21 -159 21 -159 9 0 -20 41 -69 70 -84 36 -19
107 -22 122 -7 17 17 43 15 59 -4 11 -14 10 -19 -10 -35 -37 -31 -135 -26
-202 9 -74 39 -111 93 -117 173 -4 56 -2 63 24 91 16 16 38 34 49 39 27 12
112 2 153 -18z m583 -77 c35 -17 84 -74 84 -97 0 -18 -46 -12 -62 8 -44 57
-127 81 -165 46 -22 -20 -24 -79 -4 -126 34 -83 131 -115 182 -60 21 23 27 25
50 14 17 -8 24 -17 20 -27 -3 -9 -6 -20 -6 -25 0 -17 -60 -39 -110 -39 -125 0
-219 93 -220 216 0 55 24 99 62 113 28 10 128 -3 169 -23z m759 -96 c54 -28
68 -52 90 -164 11 -54 24 -105 30 -116 16 -30 12 -33 -27 -26 -21 4 -68 6
-105 6 -106 -2 -188 54 -188 127 0 51 30 68 124 70 44 1 82 2 84 2 8 3 -31 62
-47 71 -31 16 -76 12 -104 -10 -31 -25 -53 -25 -66 -1 -11 20 0 40 34 60 28
16 127 6 175 -19z m384 -54 c49 -29 57 -45 86 -176 10 -47 22 -95 25 -107 6
-20 4 -23 -17 -23 -13 0 -33 6 -43 14 -14 10 -26 11 -48 3 -46 -15 -130 7
-172 47 -29 27 -35 41 -35 73 0 58 17 68 119 69 47 0 85 3 84 7 -2 4 -3 11 -3
17 0 5 -11 21 -25 35 -32 31 -84 33 -123 5 -30 -22 -56 -19 -66 7 -7 18 10 41
39 54 36 16 132 3 179 -25z m716 -76 c71 -20 88 -44 120 -170 15 -63 31 -123
36 -134 6 -17 4 -18 -27 -11 -19 4 -63 6 -99 6 -83 -1 -145 28 -173 82 -16 32
-17 42 -7 66 16 40 57 55 130 48 63 -7 69 -3 50 34 -12 22 -60 49 -87 49 -10
0 -29 -9 -43 -20 -32 -25 -57 -25 -70 -1 -24 47 78 77 170 51z m275 -35 c75
-3 75 -3 75 -30 0 -22 -5 -25 -32 -25 -61 0 -63 -5 -38 -129 13 -61 20 -114
17 -117 -3 -4 -17 -4 -30 0 -27 6 -28 10 -70 198 -14 59 -22 110 -18 113 3 3
15 3 26 -1 11 -4 43 -8 70 -9z m-5085 -221 c45 -123 48 -129 69 -132 12 -2 21
2 21 8 0 7 12 50 26 97 26 84 26 84 57 81 30 -3 36 -10 82 -104 64 -129 63
-128 81 -113 8 6 14 19 14 29 0 10 7 50 16 89 14 61 20 72 41 77 16 4 30 1 39
-8 13 -13 10 -32 -22 -159 -20 -79 -41 -150 -47 -156 -14 -19 -51 -16 -69 5
-8 9 -26 42 -40 72 -58 130 -73 160 -79 160 -8 0 -35 -71 -53 -143 -8 -31 -18
-62 -21 -67 -9 -14 -61 -12 -73 3 -6 6 -33 65 -61 129 -49 111 -65 191 -44
212 12 12 45 -30 63 -80z m1203 72 c12 -13 37 -154 37 -212 0 -46 21 -45 86 6
48 39 70 50 98 50 51 0 46 -18 -19 -74 -30 -26 -55 -52 -55 -58 0 -6 41 -55
90 -109 50 -54 87 -100 82 -103 -5 -3 -25 -1 -45 5 -25 7 -54 30 -97 79 -92
102 -115 102 -115 2 0 -49 -3 -57 -20 -60 -43 -5 -48 10 -76 225 -36 265 -35
263 -5 263 14 0 31 -6 39 -14z m-459 -77 c21 -6 56 -27 78 -47 38 -36 39 -40
53 -142 7 -58 18 -117 24 -131 5 -15 7 -30 4 -33 -11 -11 -48 -6 -70 9 -18 13
-29 13 -67 3 -112 -30 -256 74 -217 158 18 40 74 57 159 50 58 -5 74 -3 78 8
9 23 -15 57 -51 72 -47 19 -71 18 -104 -7 -36 -26 -85 -23 -89 6 -2 15 8 27
35 43 42 24 105 28 167 11z m1056 -137 c124 -61 165 -241 68 -303 -49 -30
-151 -22 -216 18 -96 59 -137 171 -92 251 42 74 131 86 240 34z m1092 -8 c4
-17 13 -71 20 -120 16 -108 27 -114 94 -50 37 35 55 46 80 46 51 0 50 -17 -5
-66 -28 -25 -51 -53 -50 -62 0 -10 40 -57 89 -107 49 -49 84 -92 79 -96 -5 -3
-23 -4 -39 -1 -21 3 -48 25 -96 79 -49 54 -72 73 -88 71 -19 -3 -21 -10 -21
-63 l0 -60 -30 0 c-35 0 -31 -15 -75 259 -17 104 -29 195 -26 202 9 24 59 1
68 -32z m-658 -31 c4 -5 35 -8 69 -8 59 0 62 -1 62 -25 0 -22 -5 -26 -43 -31
-65 -8 -66 -12 -47 -139 19 -121 16 -136 -28 -125 -29 8 -30 10 -52 170 -8 61
-18 122 -21 138 -5 25 -3 27 24 27 16 0 32 -3 36 -7z m406 -45 c81 -30 140
-112 142 -196 3 -93 -32 -132 -118 -133 -76 -2 -128 17 -173 62 -53 52 -69 84
-72 144 -5 98 50 151 146 139 28 -4 61 -11 75 -16z m1407 -133 c24 -116 49
-245 59 -307 l6 -37 -100 5 c-118 5 -136 10 -181 55 -51 52 -75 106 -75 171
-1 46 3 61 23 82 38 40 74 42 180 10 20 -6 22 -4 18 12 -3 10 -9 43 -12 72
l-7 53 33 -3 34 -3 22 -110z m158 34 c19 -91 20 -92 66 -85 79 13 163 -28 188
-93 6 -14 20 -73 31 -130 23 -114 19 -133 -23 -114 -21 10 -27 25 -42 105 -22
115 -39 154 -78 174 -36 19 -94 11 -99 -14 -2 -9 4 -64 14 -122 10 -58 18
-109 18 -113 0 -5 -15 -7 -32 -5 l-33 3 -21 105 c-29 146 -64 333 -64 343 0 5
14 7 32 5 31 -3 33 -6 43 -59z m-832 20 c49 -13 100 -59 126 -113 38 -77 35
-80 -74 -72 -52 3 -108 9 -125 12 -40 9 -40 -14 1 -61 41 -46 102 -64 142 -41
36 20 51 20 67 1 10 -13 10 -19 -4 -34 -25 -27 -78 -34 -144 -19 -46 10 -66
22 -108 63 -71 68 -90 135 -59 208 25 60 90 81 178 56z m1974 -101 c6 -7 13
-26 16 -43 4 -16 24 -110 47 -209 22 -98 37 -182 34 -187 -3 -5 -11 -9 -18 -9
-34 0 -46 29 -85 205 -60 271 -58 255 -28 255 13 0 29 -6 34 -12z m-582 -71
c48 -27 101 -94 115 -147 23 -86 -25 -160 -104 -160 -96 0 -175 49 -217 134
-21 44 -25 125 -8 157 27 52 134 60 214 16z m368 -30 c52 -22 91 -62 121 -122
34 -71 30 -128 -12 -170 -25 -25 -32 -27 -94 -23 -55 3 -75 9 -110 34 -105 73
-140 203 -73 270 20 20 34 24 80 24 31 0 70 -6 88 -13z m712 -86 c41 -19 67
-43 78 -73 9 -26 -49 -25 -63 1 -5 11 -30 27 -55 36 -36 14 -48 15 -60 5 -34
-28 -11 -54 80 -89 93 -37 122 -58 135 -97 27 -80 -36 -113 -155 -83 -46 12
-115 68 -115 94 0 22 47 19 59 -4 13 -24 71 -51 109 -51 22 0 32 6 37 21 10
31 -18 54 -96 80 -82 27 -127 62 -135 105 -13 69 86 99 181 55z m-5836 -14 c6
-8 14 -45 18 -83 l8 -69 77 4 c69 3 83 0 121 -22 56 -33 72 -72 88 -213 15
-134 12 -144 -33 -135 -36 7 -38 13 -54 186 -5 61 -10 73 -39 102 -35 35 -61
40 -113 22 -39 -13 -42 -30 -31 -142 14 -145 13 -147 -18 -147 -16 0 -33 4
-39 8 -12 7 -54 357 -54 450 0 51 1 52 29 52 16 0 34 -6 40 -13z m6194 -34
c44 -28 63 -65 84 -168 8 -38 20 -82 28 -97 7 -15 10 -29 7 -32 -9 -9 -50 -7
-56 3 -3 5 -35 6 -70 4 -54 -5 -70 -2 -105 17 -44 25 -82 87 -74 120 11 41 41
55 114 52 62 -2 69 0 69 17 0 25 -55 71 -84 71 -13 0 -35 -9 -49 -20 -35 -28
-67 -26 -67 3 0 27 25 53 55 59 41 8 111 -5 148 -29z m235 -191 c23 -97 42
-187 42 -199 0 -45 -41 -63 -94 -43 -35 13 -33 36 5 49 23 8 29 15 25 28 -17
54 -76 317 -76 338 0 22 2 23 28 14 27 -9 30 -17 70 -187z m262 143 c46 -24
65 -58 94 -167 16 -57 32 -108 38 -115 16 -20 -1 -35 -30 -28 -15 4 -29 10
-32 15 -3 5 -24 3 -47 -3 -100 -26 -220 70 -184 149 14 32 53 46 116 43 60 -4
71 16 31 56 -31 31 -79 33 -103 5 -19 -21 -58 -27 -68 -9 -12 18 4 55 27 67
28 15 119 7 158 -13z m-6239 -111 c16 -14 23 -15 49 -4 41 17 134 6 172 -21
45 -33 65 -83 78 -205 15 -130 12 -149 -28 -139 -15 3 -30 9 -34 13 -3 4 -12
59 -18 122 -13 127 -25 155 -74 175 -43 18 -103 3 -115 -28 -8 -20 -2 -103 15
-212 l6 -45 -40 0 c-47 0 -45 -6 -61 160 -17 162 -18 189 -13 195 11 11 46 4
63 -11z m634 -72 c48 -34 82 -82 91 -129 10 -54 1 -58 -137 -44 -135 14 -151
9 -124 -33 41 -62 139 -95 186 -62 29 20 53 21 68 2 15 -18 5 -41 -25 -55 -31
-14 -126 -14 -174 -1 -79 22 -160 128 -160 210 0 48 28 100 70 128 31 21 43
23 100 18 49 -4 75 -13 105 -34z m420 -32 c4 -7 35 -8 84 -4 146 12 189 -31
216 -218 19 -126 17 -148 -14 -148 -33 0 -49 26 -56 92 -17 158 -25 186 -60
208 -36 22 -70 25 -109 10 -22 -8 -26 -16 -26 -48 0 -22 4 -61 9 -88 5 -27 11
-69 13 -94 3 -43 1 -45 -26 -48 -16 -2 -33 1 -38 6 -10 10 -47 251 -48 310 0
27 3 32 24 32 14 0 28 -5 31 -10z m1057 -59 c7 -24 16 -33 38 -38 38 -7 60
-31 39 -44 -8 -5 -24 -9 -36 -9 -27 0 -27 2 -9 -116 17 -108 28 -134 60 -134
26 0 51 -24 41 -40 -16 -26 -124 1 -144 37 -5 11 -19 73 -30 138 -20 115 -29
135 -62 135 -21 0 -43 26 -34 40 3 5 19 10 36 10 26 0 29 3 29 34 0 19 6 36
13 39 21 8 51 -18 59 -52z m-518 19 c65 -10 121 -46 138 -88 5 -15 18 -74 28
-132 10 -58 21 -113 25 -122 6 -15 2 -18 -27 -18 -19 0 -39 5 -44 10 -7 7 -27
7 -61 0 -116 -25 -237 54 -218 141 11 51 51 69 150 69 85 0 86 0 79 23 -10 33
-32 55 -70 67 -34 12 -62 4 -93 -27 -7 -8 -25 -13 -40 -11 -40 5 -36 46 8 75
38 26 44 27 125 13z m729 -82 c12 -9 23 -48 37 -128 12 -69 27 -125 38 -139
27 -37 67 -47 108 -27 30 14 34 20 34 53 0 35 -13 131 -26 196 -5 25 -3 27 25
27 16 0 33 -5 36 -11 8 -12 29 -110 39 -180 10 -66 16 -101 21 -126 5 -20 1
-23 -28 -23 -18 0 -38 5 -44 11 -8 8 -17 8 -33 -1 -29 -15 -104 -9 -150 13
-58 28 -76 67 -98 209 -10 70 -17 130 -14 133 9 9 38 5 55 -7z m632 -59 c97 3
144 -9 180 -45 144 -144 96 -351 -70 -306 -24 6 -50 13 -57 14 -10 2 -12 -13
-10 -64 l4 -68 -31 0 c-16 0 -32 3 -35 8 -7 11 -76 417 -76 448 0 24 3 26 28
19 15 -4 45 -7 67 -6z m1436 -17 c5 -5 86 -395 93 -447 2 -15 -49 -18 -61 -3
-10 13 -93 417 -93 452 0 15 5 17 28 11 15 -3 30 -9 33 -13z m-887 -45 c58
-33 72 -60 101 -191 15 -65 29 -125 32 -132 7 -19 -51 -19 -67 0 -8 11 -18 12
-36 5 -72 -27 -177 6 -215 68 -18 29 -20 41 -13 71 12 48 41 62 132 62 74 0
81 5 66 45 -8 20 -56 45 -87 45 -13 0 -36 -9 -51 -21 -32 -25 -70 -22 -74 7
-9 61 131 88 212 41z m216 -57 c15 -25 42 -74 61 -109 19 -35 39 -63 44 -63 9
1 21 52 40 165 5 30 10 37 28 37 46 0 51 -12 37 -86 -15 -84 -47 -234 -61
-289 -16 -58 -44 -85 -90 -85 -28 0 -41 5 -49 20 -14 26 -5 40 25 40 31 0 55
25 55 56 0 25 -37 99 -114 229 -38 64 -66 121 -66 132 0 2 14 3 32 1 26 -2 37
-12 58 -48z m470 -12 c61 -32 76 -58 104 -178 13 -58 27 -115 31 -127 6 -20 4
-23 -22 -23 -16 0 -34 5 -40 11 -7 7 -24 7 -57 -2 -68 -17 -127 2 -171 54 -41
48 -46 94 -14 123 16 14 41 20 103 24 74 5 81 7 78 25 -9 57 -108 88 -147 45
-21 -23 -48 -26 -64 -6 -14 17 -1 49 27 65 32 19 124 13 172 -11z m-4164 -281
c2 -2 7 -35 10 -73 4 -38 8 -71 11 -74 2 -2 41 -5 86 -5 117 -1 165 -31 206
-128 34 -78 25 -176 -20 -223 -31 -33 -93 -40 -164 -19 -34 9 -73 14 -94 11
-48 -8 -62 3 -67 55 -3 24 -13 129 -24 233 -27 255 -28 240 16 233 20 -3 38
-8 40 -10z m-428 -119 c52 -31 69 -78 83 -222 13 -141 10 -152 -40 -141 -36 8
-37 12 -46 144 -4 52 -11 106 -17 120 -15 41 -49 71 -80 71 -24 0 -28 4 -28
30 0 30 0 30 48 24 26 -4 62 -15 80 -26z m1346 -14 c8 -3 20 -22 27 -42 13
-41 24 -52 55 -52 22 0 39 -24 28 -41 -3 -5 -16 -9 -30 -9 -14 0 -27 -7 -30
-15 -4 -8 0 -61 7 -117 13 -107 29 -138 69 -138 25 0 37 -25 21 -44 -16 -19
-100 -2 -128 27 -19 18 -26 44 -38 142 -20 150 -21 155 -49 155 -12 0 -31 6
-41 14 -27 19 -13 46 25 46 27 0 30 3 30 33 0 46 14 56 54 41z m-231 -87 c56
-42 64 -62 81 -182 8 -60 18 -122 22 -137 8 -37 -16 -46 -62 -25 -29 14 -41
15 -78 5 -51 -14 -138 1 -171 30 -50 43 -69 108 -42 142 31 40 60 50 149 50
49 0 88 4 88 9 0 76 -107 118 -168 66 -35 -29 -68 -32 -80 -7 -13 24 -5 41 32
63 25 17 45 19 112 17 70 -3 85 -7 117 -31z m675 -49 c25 -13 51 -33 59 -45 8
-12 23 -75 34 -140 10 -65 24 -126 29 -136 6 -10 8 -22 5 -27 -10 -16 -73 -12
-82 5 -7 12 -14 12 -52 -1 -37 -12 -53 -13 -95 -3 -93 21 -145 82 -132 153 9
50 59 72 153 68 42 -1 74 2 78 9 12 19 -4 54 -34 72 -41 24 -79 21 -123 -10
-33 -22 -42 -24 -63 -15 -33 15 -31 35 6 66 27 23 40 26 101 26 53 0 82 -6
116 -22z m421 -32 c46 -25 79 -71 86 -124 10 -73 25 -154 37 -191 8 -25 7 -35
-2 -41 -13 -8 -49 -2 -66 12 -7 5 -33 3 -62 -3 -109 -26 -221 37 -222 124 0
67 50 97 166 97 41 0 74 3 74 8 0 27 -43 72 -79 83 -37 11 -42 10 -84 -21 -38
-27 -48 -30 -66 -21 -36 20 -19 64 32 87 39 18 143 12 186 -10z m212 -31 c11
-13 42 -70 70 -126 58 -116 66 -116 88 1 22 110 30 130 54 130 46 0 51 -12 37
-82 -7 -34 -19 -88 -27 -118 -8 -30 -25 -95 -36 -144 -29 -117 -55 -148 -124
-144 -43 3 -48 5 -48 27 0 19 7 27 31 33 81 21 76 60 -34 265 -51 94 -92 174
-92 177 0 3 14 6 31 6 21 0 37 -8 50 -25z m583 -52 c43 -30 83 -96 88 -148 3
-34 12 -33 -154 -21 -110 9 -118 3 -77 -56 37 -52 123 -74 165 -43 25 19 48
19 65 -1 11 -14 10 -20 -14 -40 -24 -20 -39 -24 -95 -24 -56 0 -76 5 -120 31
-128 73 -160 252 -59 319 47 31 144 23 201 -17z m1195 -2 c8 -5 19 -24 25 -43
9 -25 18 -34 41 -38 21 -4 31 -11 33 -28 3 -18 -1 -22 -22 -22 -14 0 -27 -4
-30 -8 -8 -13 32 -203 48 -228 9 -12 26 -24 38 -26 15 -2 24 -11 26 -25 3 -20
-1 -23 -28 -23 -17 0 -46 6 -64 14 -38 16 -55 56 -76 181 -18 102 -26 120 -63
131 -42 12 -49 41 -10 46 24 3 28 8 31 41 3 38 20 47 51 28z m-607 -42 c48
-31 63 -59 77 -144 7 -38 19 -96 27 -127 8 -32 14 -60 14 -63 0 -10 -56 -5
-67 6 -8 8 -26 8 -65 -1 -90 -20 -169 15 -203 90 -36 79 15 126 132 123 56 -2
75 1 79 11 13 35 -47 86 -100 86 -13 0 -38 -11 -54 -25 -34 -28 -54 -31 -71
-11 -15 18 -2 47 32 71 34 25 151 16 199 -16z m400 -35 c20 -13 42 -34 49 -46
14 -26 34 -112 44 -185 4 -29 11 -55 16 -59 14 -8 11 -44 -3 -45 -25 -2 -53 3
-64 12 -7 5 -24 5 -43 -2 -41 -14 -110 -5 -152 20 -65 40 -90 120 -49 161 24
24 45 29 130 32 59 3 65 5 62 23 -9 57 -112 88 -149 45 -21 -24 -56 -26 -73
-5 -18 21 11 62 53 74 48 14 136 2 179 -25z m440 -26 c10 -8 26 -65 43 -148
43 -209 43 -190 2 -190 -25 0 -37 5 -41 18 -10 34 -56 289 -56 310 0 25 27 30
52 10z m1604 4 c5 -4 18 -36 27 -72 48 -190 92 -399 85 -405 -2 -3 -20 0 -39
5 -19 6 -53 8 -76 4 -59 -9 -100 3 -143 43 -60 53 -84 106 -84 186 -1 63 1 71
27 93 31 27 82 32 136 13 18 -6 34 -9 36 -7 2 2 -2 32 -10 67 -9 34 -13 67 -9
72 6 11 35 12 50 1z m-1269 -44 c12 -13 42 -65 69 -115 26 -51 53 -93 60 -93
13 0 19 22 29 105 12 96 15 105 38 105 48 0 50 -9 28 -131 -62 -335 -65 -342
-140 -337 -38 3 -47 7 -49 25 -2 16 3 23 27 28 33 7 45 19 56 53 5 19 -13 59
-89 191 -53 92 -96 173 -96 179 0 20 45 13 67 -10z m493 -33 c59 -30 76 -60
104 -182 37 -163 37 -159 1 -155 -16 2 -35 8 -42 13 -8 7 -18 7 -32 0 -55 -30
-164 5 -201 63 -53 86 8 155 125 141 29 -4 55 -3 58 1 10 17 -13 54 -45 74
-44 26 -64 25 -94 -6 -34 -33 -79 -31 -79 6 0 17 11 32 35 48 30 20 42 22 90
16 30 -4 66 -12 80 -19z m392 -44 c50 -32 59 -51 93 -203 9 -43 21 -80 26 -84
16 -9 10 -31 -10 -37 -11 -3 -31 1 -46 9 -18 9 -33 10 -51 4 -111 -42 -252 69
-204 161 18 33 62 49 118 42 72 -8 85 -1 67 33 -28 54 -101 71 -141 33 -17
-16 -30 -20 -48 -15 -32 8 -33 32 -4 63 18 20 31 23 88 23 56 0 73 -5 112 -29z
m773 -69 c22 -15 53 -50 70 -77 26 -41 30 -58 30 -116 0 -60 -3 -72 -26 -94
-47 -47 -165 -30 -233 33 -61 58 -93 173 -65 236 29 62 147 72 224 18z m267
-2 c120 3 158 -37 201 -212 15 -59 27 -112 27 -118 0 -7 -14 -10 -32 -8 l-32
3 -28 120 c-16 69 -36 128 -46 138 -42 41 -116 38 -127 -5 -3 -13 6 -67 20
-121 14 -53 25 -104 25 -112 0 -18 -45 -21 -56 -4 -11 19 -82 314 -76 322 2 5
16 6 31 2 14 -4 56 -6 93 -5z m-6462 -130 c252 -19 947 -70 1155 -85 110 -8
290 -21 400 -30 110 -8 448 -33 750 -55 303 -22 607 -45 677 -50 70 -5 201
-14 290 -20 197 -13 205 -15 213 -41 4 -11 22 -109 40 -217 18 -108 43 -255
55 -325 13 -70 20 -130 17 -134 -6 -5 -1434 79 -1583 93 -61 6 -62 6 -43 25
13 13 19 33 19 62 0 42 -46 387 -56 419 -5 18 -49 32 -66 22 -12 -8 -9 -47 22
-272 24 -178 23 -185 -31 -197 -24 -6 -29 -10 -23 -27 7 -25 55 -26 -726 22
-261 16 -590 37 -730 45 -140 9 -356 22 -479 30 -124 8 -233 15 -243 15 -16 0
-18 10 -18 79 0 68 3 80 18 85 10 4 34 22 52 41 31 32 35 42 38 104 4 58 0 75
-22 119 -14 28 -40 61 -56 74 l-30 22 0 106 c0 59 2 109 4 111 5 5 86 0 356
-21z m3626 -325 c6 -8 16 -51 23 -97 16 -110 29 -158 43 -158 6 0 34 25 63 55
41 44 57 55 82 55 18 0 34 -4 37 -9 3 -5 -19 -39 -49 -76 l-55 -67 99 -106
100 -107 -36 -3 c-33 -3 -42 3 -119 79 -102 101 -120 102 -109 5 5 -51 3 -64
-8 -69 -15 -6 -57 2 -57 10 0 2 -20 115 -45 250 -25 135 -42 250 -39 255 8 13
56 1 70 -17z m580 -191 c48 -35 63 -66 88 -184 14 -63 28 -125 32 -137 9 -31
-16 -39 -56 -19 -23 11 -38 13 -57 5 -99 -37 -229 35 -226 126 1 20 7 42 14
51 23 27 82 45 139 42 45 -2 55 0 58 15 2 9 -10 30 -26 47 -39 39 -88 41 -122
5 -26 -27 -49 -32 -68 -13 -20 20 -14 45 16 68 23 19 37 21 104 18 58 -2 83
-8 104 -24z m474 -18 c71 -1 90 -5 117 -24 30 -22 34 -22 62 -7 43 22 126 19
165 -5 38 -23 72 -79 81 -135 4 -22 16 -76 26 -119 10 -44 16 -83 13 -88 -8
-12 -50 -10 -61 5 -5 6 -20 59 -32 117 -12 58 -27 118 -33 133 -12 31 -54 57
-93 57 -31 0 -68 -35 -61 -58 3 -9 13 -55 22 -102 30 -155 31 -140 -9 -140
-35 0 -36 0 -47 58 -32 166 -43 202 -65 226 -30 32 -68 42 -105 26 -37 -15
-38 -35 -10 -170 11 -52 20 -103 20 -112 0 -22 -42 -25 -59 -4 -17 20 -76 319
-68 340 5 14 13 16 30 11 12 -4 60 -8 107 -9z m744 -73 c46 -33 65 -73 91
-198 9 -44 23 -90 31 -102 8 -12 14 -25 14 -28 0 -10 -66 -5 -77 6 -9 9 -20 9
-43 -1 -41 -17 -122 -7 -161 20 -57 41 -76 117 -40 161 17 21 30 24 100 27 86
4 93 10 70 54 -10 19 -65 48 -93 48 -7 0 -24 -11 -37 -25 -38 -40 -93 -28 -81
17 16 64 148 76 226 21z m381 -27 c46 -35 52 -48 85 -180 15 -61 31 -119 35
-128 10 -25 -18 -33 -53 -15 -16 8 -36 11 -43 7 -39 -21 -94 -20 -139 2 -89
45 -117 134 -58 183 27 23 40 26 87 25 31 -1 62 -2 69 -1 21 2 13 31 -17 62
-37 37 -79 38 -120 3 -21 -17 -37 -23 -51 -19 -29 9 -26 49 8 75 23 19 36 21
94 17 53 -3 75 -10 103 -31z m262 4 c82 2 120 -13 154 -61 22 -31 92 -283 81
-294 -3 -3 -18 -5 -33 -5 -31 0 -30 -4 -70 168 -17 76 -27 97 -51 117 -34 29
-64 32 -96 9 -28 -19 -27 -25 3 -159 19 -84 22 -111 12 -117 -9 -6 -44 -2 -54
6 -5 4 -73 306 -73 326 0 19 4 21 28 15 15 -4 59 -6 99 -5z m483 -55 c51 -32
89 -90 105 -160 15 -64 7 -106 -27 -142 -40 -43 -166 -26 -226 30 -43 40 -74
104 -79 165 -6 68 4 94 50 123 42 26 121 19 177 -16z m-6861 -437 c15 -9 25
-9 46 0 42 19 116 15 165 -10 69 -35 86 -76 100 -236 6 -73 9 -140 6 -148 -7
-17 -60 -19 -73 -1 -5 6 -15 72 -22 146 -13 140 -23 169 -67 189 -33 16 -57
15 -101 -3 l-36 -15 7 -118 c14 -207 17 -187 -31 -190 l-43 -3 0 200 c0 215 1
219 49 189z m2978 0 c9 -13 26 -111 58 -338 9 -63 20 -132 25 -153 10 -46 -4
-55 -61 -40 -21 5 -44 6 -51 2 -18 -12 -86 -11 -127 1 -47 13 -98 64 -127 125
-44 93 -26 218 37 250 36 19 122 19 159 0 16 -8 31 -11 34 -7 3 4 -1 42 -8 83
-7 40 -11 77 -9 82 7 12 60 8 70 -5z m-2217 -29 c85 2 100 -1 142 -23 l47 -25
47 21 c37 16 60 19 101 15 113 -12 155 -69 173 -237 6 -58 13 -120 17 -137 l5
-33 -44 0 -45 0 -17 141 c-9 78 -21 149 -26 159 -10 19 -68 50 -95 50 -27 0
-72 -28 -78 -49 -2 -10 1 -77 9 -148 7 -70 9 -132 5 -136 -5 -5 -24 -7 -42 -5
l-34 3 -15 135 c-9 74 -21 144 -28 156 -28 52 -118 72 -162 36 l-22 -17 15
-145 c8 -80 12 -148 10 -152 -7 -13 -73 -9 -78 5 -2 6 -11 80 -20 162 -8 83
-17 167 -19 187 -5 44 1 52 34 42 14 -4 68 -6 120 -5z m3289 -29 c12 -6 21
-26 25 -59 10 -79 25 -114 45 -104 9 4 44 7 78 7 53 -1 67 -6 102 -33 61 -48
96 -128 96 -218 0 -65 -3 -74 -29 -102 -36 -38 -85 -47 -151 -27 -29 9 -65 13
-87 10 -33 -6 -39 -3 -47 17 -10 24 -91 471 -91 503 0 18 31 22 59 6z m-2426
-24 c62 -26 127 -121 127 -185 l0 -34 -141 5 c-160 6 -169 2 -124 -58 49 -64
123 -80 195 -43 39 20 42 21 60 4 25 -23 17 -38 -34 -63 -111 -56 -259 -2
-320 117 -8 14 -17 51 -21 81 -5 46 -2 62 17 100 33 64 76 90 150 90 32 0 73
-6 91 -14z m277 -26 c5 -10 14 -55 19 -101 6 -46 16 -124 22 -172 13 -100 8
-113 -39 -102 -34 7 -32 1 -68 264 -18 133 -16 142 32 133 14 -2 29 -12 34
-22z m195 -6 c13 -14 21 -15 41 -5 37 16 128 13 168 -5 54 -26 80 -87 100
-237 20 -140 17 -151 -30 -145 -32 3 -28 -11 -58 187 -15 99 -41 142 -91 155
-29 7 -90 -18 -99 -40 -3 -9 1 -65 10 -125 19 -134 17 -163 -14 -167 -47 -7
-57 21 -82 248 -6 52 -12 104 -14 115 -2 11 -1 23 1 28 8 13 51 7 68 -9z
m1295 -74 c135 -70 177 -274 72 -349 -36 -25 -133 -29 -185 -8 -101 43 -174
177 -148 273 12 45 61 100 94 107 38 9 131 -4 167 -23z m428 -16 c144 -60 198
-284 85 -360 -39 -26 -134 -24 -188 3 -86 45 -134 128 -135 232 0 62 1 65 40
103 38 35 45 38 101 38 33 0 76 -7 97 -16z m1045 -55 c36 -19 87 -72 87 -91 0
-30 -50 -23 -83 11 -42 45 -116 53 -131 14 -11 -27 21 -61 66 -74 68 -18 146
-58 168 -86 30 -38 27 -96 -6 -122 -36 -28 -82 -35 -149 -21 -96 20 -189 130
-110 130 13 0 32 -10 42 -23 30 -38 65 -57 105 -57 42 0 68 21 61 49 -8 31
-32 47 -108 70 -109 34 -138 58 -149 127 -4 22 11 54 33 71 20 16 145 17 174
2z m400 -34 c52 -36 68 -72 98 -230 6 -33 17 -72 25 -86 7 -15 10 -29 7 -33
-11 -10 -58 -7 -70 5 -9 9 -20 9 -43 -1 -39 -16 -129 -8 -164 15 -40 27 -68
79 -64 122 5 56 50 83 139 83 63 0 69 2 69 21 0 11 -13 34 -29 50 -40 40 -84
39 -119 -1 -28 -32 -50 -38 -70 -18 -19 19 -14 39 15 70 24 26 33 28 98 28 59
0 76 -4 108 -25z m533 -20 c17 -12 27 -12 53 -2 22 8 34 8 42 0 5 -5 21 -59
34 -119 13 -60 31 -139 40 -175 26 -115 17 -167 -34 -194 -80 -41 -257 11
-235 69 8 20 12 20 59 -4 75 -38 161 -14 153 43 -3 20 -8 22 -57 19 -81 -5
-115 5 -160 47 -92 87 -116 237 -49 309 17 18 32 22 78 22 33 0 64 -6 76 -15z
m417 -19 c73 -26 91 -55 121 -191 10 -44 24 -97 32 -118 8 -20 14 -42 14 -47
0 -13 -53 -13 -67 1 -7 7 -22 7 -51 -2 -112 -33 -234 50 -216 147 9 51 51 74
131 74 34 0 64 4 67 8 3 5 -4 23 -15 40 -34 57 -96 64 -138 16 -23 -27 -41
-30 -59 -12 -20 20 -14 45 19 72 35 30 98 34 162 12z m194 -11 c11 -8 29 -31
40 -52 64 -124 99 -183 108 -180 5 2 14 44 18 93 12 127 14 134 40 134 47 0
51 -12 38 -92 -7 -40 -20 -137 -30 -215 -11 -83 -25 -153 -34 -167 -18 -27
-70 -41 -98 -26 -24 13 -27 65 -3 56 22 -8 64 37 64 70 0 15 -12 48 -28 73
-31 51 -38 64 -119 204 -45 80 -53 101 -42 108 19 12 21 11 46 -6z m524 -38
c56 -30 73 -60 108 -193 16 -60 32 -119 36 -131 6 -20 4 -23 -22 -23 -16 0
-33 4 -39 10 -6 6 -25 5 -54 -4 -65 -18 -120 -4 -164 42 -59 60 -59 140 0 162
14 6 52 10 84 10 32 0 61 4 65 9 9 16 -15 57 -45 74 -41 25 -68 21 -98 -13
-30 -34 -44 -37 -66 -14 -23 22 -20 32 15 65 26 24 39 29 83 29 36 0 67 -7 97
-23z m-6263 -439 c5 -7 17 -75 25 -151 8 -77 20 -144 26 -150 8 -8 30 8 84 61
63 63 77 72 109 72 20 0 40 -5 43 -11 4 -6 -25 -43 -64 -84 -39 -40 -71 -76
-71 -79 0 -4 47 -58 105 -120 57 -62 101 -116 98 -120 -3 -3 -23 -6 -43 -6
-34 0 -45 8 -123 90 -47 50 -89 90 -94 90 -28 -1 -36 -20 -31 -81 3 -35 3 -70
1 -76 -3 -8 -21 -13 -43 -13 -45 0 -41 -13 -65 235 -16 169 -22 224 -31 292
-3 24 -2 47 1 53 9 14 61 12 73 -2z m-543 -151 c75 -41 81 -54 101 -224 8 -76
20 -142 25 -147 5 -6 9 -18 9 -28 0 -14 -8 -18 -37 -18 -20 0 -44 7 -53 15
-14 12 -21 12 -55 0 -42 -15 -105 -19 -142 -9 -19 5 -23 13 -23 50 0 46 14 67
23 34 7 -28 89 -28 135 0 27 17 32 25 32 60 0 30 -5 42 -21 51 -21 11 -106 8
-146 -6 -21 -7 -23 -4 -23 29 l0 36 78 0 c97 0 108 6 93 51 -15 46 -80 77
-127 60 -17 -6 -33 -11 -37 -11 -9 0 -9 64 -1 73 12 12 140 0 169 -16z m278
-6 c16 -6 37 -6 60 1 44 13 83 4 90 -21 8 -30 -14 -50 -57 -53 -61 -5 -78 -35
-67 -123 5 -38 11 -101 13 -140 l3 -70 -34 -3 c-18 -2 -37 0 -42 5 -9 9 -39
290 -39 366 0 43 2 47 24 47 14 0 36 -4 49 -9z m944 -56 c49 -36 93 -115 93
-170 l0 -38 -128 5 c-143 5 -176 -1 -164 -29 20 -52 70 -89 130 -99 31 -5 49
-1 80 16 45 25 76 23 80 -5 2 -14 -9 -29 -30 -45 -29 -22 -42 -25 -120 -24
-65 0 -93 5 -115 19 -79 50 -119 111 -129 197 -5 44 -2 63 19 110 34 77 74 99
172 96 59 -3 76 -8 112 -33z m448 -1 c18 -12 28 -13 44 -5 28 16 137 13 169
-3 75 -40 126 -136 126 -240 -1 -69 -19 -113 -61 -146 -25 -19 -37 -22 -98
-17 -38 2 -79 8 -89 12 -18 8 -19 4 -13 -64 7 -91 3 -101 -39 -101 -27 0 -35
5 -39 23 -4 20 -18 130 -55 429 -7 53 -10 104 -7 113 8 19 31 19 62 -1z m702
-37 c78 -50 114 -110 121 -198 10 -145 -79 -220 -226 -189 -93 21 -170 114
-179 220 -9 92 17 144 92 185 43 23 142 14 192 -18z m2377 17 c9 -3 20 -24 26
-45 9 -32 17 -40 43 -47 42 -11 52 -52 13 -52 -35 0 -36 -12 -12 -145 20 -113
29 -133 68 -143 23 -6 34 -15 36 -30 4 -29 -37 -39 -86 -20 -47 17 -68 58 -89
175 -28 154 -31 163 -58 163 -26 0 -58 26 -52 44 2 6 17 13 33 16 27 5 29 8
26 48 -3 36 -1 42 16 42 11 0 27 -3 36 -6z m-1953 -14 c49 -14 122 -80 149
-134 28 -58 31 -139 7 -191 -26 -58 -60 -79 -134 -83 -125 -8 -223 73 -252
207 -31 145 80 242 230 201z m309 -32 c13 -32 70 -400 70 -452 0 -75 -54 -113
-125 -86 -33 13 -32 53 2 58 52 8 52 11 -2 352 -22 142 -21 150 15 150 22 0
33 -6 40 -22z m378 -7 c67 -34 73 -46 117 -266 9 -44 19 -90 22 -102 5 -20 1
-23 -21 -23 -15 0 -36 4 -46 10 -13 7 -35 6 -68 -1 -133 -31 -252 53 -226 159
13 53 68 82 157 82 77 0 91 13 62 56 -35 54 -113 63 -156 18 -39 -42 -96 -25
-78 23 22 60 157 85 237 44z m451 -33 c5 -18 14 -62 20 -98 6 -36 19 -117 30
-180 26 -143 28 -189 10 -218 -16 -26 -42 -35 -90 -30 -29 2 -34 7 -37 31 -3
21 1 27 15 27 28 0 43 20 43 55 0 16 -16 121 -35 232 -19 111 -35 205 -35 208
0 3 15 5 34 5 30 0 36 -4 45 -32z m366 3 c116 -54 181 -214 129 -316 -29 -57
-73 -77 -149 -69 -70 7 -107 24 -147 68 -52 55 -72 105 -73 176 0 73 19 115
63 142 38 23 127 22 177 -1z m895 -50 c38 -31 66 -73 85 -129 22 -63 17 -65
-121 -57 -123 7 -124 7 -124 -15 0 -41 82 -110 131 -110 12 0 38 10 59 21 44
25 73 20 68 -12 -6 -39 -52 -64 -116 -62 -72 2 -101 13 -152 59 -74 67 -106
181 -72 258 10 22 26 47 35 54 48 40 152 37 207 -7z m325 -16 c0 -23 -5 -30
-20 -31 -34 -2 -63 -14 -69 -30 -3 -8 6 -71 20 -141 13 -70 22 -133 20 -140
-6 -14 -34 -17 -54 -5 -10 7 -81 327 -82 368 0 6 33 10 93 10 l92 -1 0 -30z
m123 13 c5 -7 20 -62 32 -123 12 -60 27 -138 35 -173 15 -69 11 -77 -37 -70
-21 3 -25 15 -54 152 -18 82 -34 166 -37 188 -5 36 -4 38 23 38 15 0 32 -6 38
-12z m-4132 -649 c6 -11 51 -348 69 -521 7 -66 7 -67 -18 -73 -47 -12 -65 8
-72 82 -4 38 -20 167 -35 288 -15 121 -26 223 -23 228 7 11 71 8 79 -4z m198
5 c8 -3 18 -20 20 -37 5 -30 17 -124 31 -229 4 -28 11 -48 18 -48 7 0 44 32
82 70 63 63 74 70 104 68 19 -2 36 -8 38 -14 2 -6 -26 -44 -62 -83 -36 -39
-65 -74 -65 -77 0 -8 36 -51 129 -152 42 -46 78 -88 79 -93 2 -5 -16 -9 -40
-9 -41 0 -46 3 -130 92 -75 81 -89 92 -105 82 -15 -10 -18 -24 -18 -90 l0 -79
-29 -3 c-16 -2 -33 1 -39 7 -12 12 -86 569 -79 590 4 12 40 15 66 5z m1748
-50 c3 -2 9 -28 13 -57 3 -28 11 -67 17 -85 10 -33 11 -33 52 -25 121 24 196
-15 250 -132 21 -46 29 -163 14 -207 -17 -49 -62 -78 -122 -78 -29 0 -67 5
-84 11 -20 7 -42 7 -66 1 -50 -14 -62 0 -75 93 -6 44 -25 167 -42 273 -17 106
-28 199 -25 207 5 14 41 13 68 -1z m451 -6 c11 -9 21 -40 28 -90 12 -82 28
-109 53 -89 8 7 43 12 79 12 115 1 149 -45 186 -256 12 -66 21 -127 21 -136 0
-20 -45 -31 -64 -15 -7 6 -23 68 -35 141 -27 154 -35 174 -83 200 -35 18 -38
19 -72 2 -22 -10 -38 -26 -42 -41 -3 -14 3 -81 15 -150 28 -163 28 -156 -14
-156 -20 0 -38 6 -40 13 -16 42 -97 556 -90 567 9 14 38 12 58 -2z m-3907 -83
c72 -21 125 -84 144 -170 15 -68 6 -75 -94 -74 -44 0 -105 4 -134 8 -39 6 -57
4 -67 -5 -18 -18 -25 -7 -25 39 l0 39 113 -3 112 -4 -2 25 c-4 39 -68 90 -113
90 -40 0 -90 -31 -90 -56 0 -8 -4 -14 -10 -14 -14 0 -13 107 2 116 39 24 102
28 164 9z m554 -17 c14 0 55 3 91 7 58 7 73 5 113 -15 126 -63 170 -288 77
-392 -26 -29 -32 -31 -102 -32 -41 -1 -87 1 -104 4 l-30 5 0 -80 c0 -44 -4
-86 -8 -92 -11 -17 -52 -17 -65 0 -14 16 -68 529 -63 596 1 10 10 11 34 6 17
-3 43 -7 57 -7z m697 -19 c24 -12 51 -32 60 -46 20 -30 39 -110 48 -204 4 -41
14 -91 21 -113 8 -21 14 -42 14 -47 0 -13 -84 -11 -97 2 -8 8 -23 7 -57 -6
-148 -57 -309 74 -237 191 27 44 72 64 145 64 34 0 71 3 84 6 30 8 29 44 -2
77 -46 49 -109 48 -157 -4 -51 -55 -111 -25 -78 38 33 62 169 84 256 42z
m1149 -51 c51 -47 86 -117 82 -160 l-3 -33 -142 -3 c-141 -3 -143 -3 -143 -25
0 -24 47 -75 87 -96 37 -19 91 -13 134 16 40 26 40 26 60 7 25 -26 17 -47 -27
-75 -28 -17 -50 -21 -105 -20 -109 2 -175 39 -217 124 -50 101 -38 211 30 273
40 36 40 36 122 32 78 -3 83 -4 122 -40z m231 28 c11 -10 63 -395 56 -408 -7
-13 -73 -9 -78 5 -2 6 -11 64 -19 127 -9 63 -21 150 -27 194 -12 87 -7 98 40
89 14 -2 27 -5 28 -7z m4162 0 c7 -8 16 -27 20 -42 5 -19 17 -31 39 -38 55
-19 69 -56 21 -56 -28 0 -32 -20 -16 -86 9 -33 18 -80 22 -106 7 -54 35 -95
68 -100 16 -2 23 -11 25 -32 l4 -29 -48 7 c-81 11 -97 36 -134 210 -22 107
-35 140 -51 130 -13 -8 -59 23 -59 40 0 8 14 17 31 21 28 6 31 10 26 39 -2 17
-2 37 0 44 6 16 38 15 52 -2z m-3959 -11 c7 -8 18 -15 25 -15 7 0 18 7 25 15
8 10 31 15 67 15 72 0 127 -28 153 -80 26 -52 73 -332 56 -342 -18 -12 -53 -9
-63 5 -6 6 -19 74 -31 150 -12 75 -29 148 -38 162 -8 13 -31 29 -50 35 -28 10
-40 9 -72 -7 -32 -15 -37 -23 -40 -55 -2 -21 4 -78 12 -128 22 -123 21 -157
-4 -165 -16 -5 -60 9 -60 19 0 2 -11 84 -25 182 -28 197 -28 194 -26 212 1 17
56 15 71 -3z m1683 -26 c69 -19 130 -88 148 -168 14 -62 10 -63 -129 -59 -94
2 -126 0 -129 -9 -6 -17 33 -79 60 -98 32 -23 113 -19 148 6 53 38 91 -3 46
-49 -21 -21 -40 -28 -89 -32 -71 -7 -106 1 -160 39 -74 53 -122 182 -99 269
25 90 104 129 204 101z m472 -34 c20 -14 47 -44 60 -65 25 -39 49 -120 39
-130 -3 -3 -61 -3 -130 -2 -142 4 -154 -3 -113 -62 45 -67 121 -85 185 -45 26
16 37 18 54 9 27 -14 25 -26 -7 -56 -34 -31 -61 -38 -134 -31 -75 7 -117 33
-165 102 -35 51 -38 62 -42 140 l-5 85 47 46 46 47 65 -5 c50 -5 73 -12 100
-33z m365 10 c18 -9 31 -11 35 -5 8 13 62 13 70 0 9 -14 85 -398 85 -427 0
-72 -59 -123 -143 -123 -73 0 -157 40 -157 75 0 28 22 33 57 12 73 -43 163
-19 163 44 0 37 -10 42 -62 28 -24 -7 -60 -9 -79 -5 -76 14 -158 119 -175 223
-12 79 23 167 76 186 30 11 102 7 130 -8z m468 -13 c11 -11 22 -39 26 -63 4
-24 22 -114 41 -199 45 -205 47 -238 15 -270 -28 -28 -95 -28 -110 0 -13 24
-5 40 19 40 45 0 45 19 -4 256 -25 125 -44 233 -41 241 8 19 33 16 54 -5z
m357 -8 c61 -29 76 -55 110 -197 18 -73 37 -142 43 -154 6 -11 8 -23 5 -27
-10 -10 -52 -7 -74 5 -15 8 -24 7 -36 -3 -25 -20 -132 -16 -166 6 -31 21 -77
93 -77 120 0 10 7 32 15 50 19 39 60 56 138 56 31 0 59 4 62 10 11 18 -26 71
-59 85 -46 19 -106 0 -106 -34 0 -5 -8 -12 -19 -16 -56 -18 -71 46 -20 89 25
22 41 26 91 26 34 0 74 -7 93 -16z m410 -19 c23 -13 48 -37 54 -52 11 -28 79
-273 84 -303 3 -19 -39 -26 -68 -10 -18 9 -28 9 -45 0 -36 -19 -117 -14 -156
11 -36 22 -74 83 -74 119 0 33 26 75 55 88 14 7 52 12 85 12 32 0 62 5 65 11
12 18 -17 69 -47 85 -37 19 -84 10 -104 -21 -21 -32 -39 -37 -65 -16 -19 15
-20 20 -9 42 23 45 50 59 119 59 50 0 73 -5 106 -25z m-6725 -167 c0 -3 15
-16 34 -27 44 -28 113 -28 161 0 71 42 116 -3 55 -55 -38 -31 -82 -40 -167
-33 -96 7 -117 26 -121 108 l-2 64 20 -25 c11 -14 20 -28 20 -32z"/>
<path d="M6613 9773 c-20 -4 -23 -11 -23 -51 l0 -47 85 0 85 0 0 46 c0 40 -3
48 -22 53 -25 6 -90 6 -125 -1z"/>
<path d="M4414 8585 c-22 -33 -11 -109 22 -152 32 -43 95 -61 130 -38 30 19
30 16 -1 153 -7 29 -61 62 -102 62 -24 0 -37 -7 -49 -25z"/>
<path d="M193 9131 c-37 -23 -47 -48 -38 -100 13 -76 71 -131 141 -131 72 0
105 51 84 131 -15 54 -33 77 -85 100 -51 23 -63 23 -102 0z"/>
<path d="M633 9066 c-23 -20 -27 -31 -25 -70 3 -86 55 -144 136 -153 38 -5 45
-2 70 28 24 28 27 39 22 77 -13 112 -131 180 -203 118z"/>
<path d="M742 8153 c-7 -2 -17 -14 -23 -25 -9 -17 -6 -25 17 -49 50 -52 154
-32 154 30 0 15 -5 32 -12 39 -12 12 -110 16 -136 5z"/>
<path d="M1731 8154 c-41 -52 -19 -153 41 -196 16 -11 49 -23 72 -25 38 -5 45
-2 70 28 25 29 27 39 22 77 -12 86 -68 142 -144 142 -32 0 -45 -6 -61 -26z"/>
<path d="M2618 8074 c-33 -17 -43 -50 -34 -106 17 -104 142 -169 195 -102 74
94 -59 265 -161 208z"/>
<path d="M3960 7933 c-42 -15 -54 -96 -23 -160 28 -60 102 -90 155 -62 18 10
20 17 14 62 -14 105 -23 124 -69 146 -45 22 -52 23 -77 14z"/>
<path d="M4720 7830 c-23 -23 -28 -96 -9 -133 21 -41 62 -77 96 -83 76 -14
107 19 92 99 -10 57 -41 101 -85 122 -43 20 -70 19 -94 -5z"/>
<path d="M5145 7802 c-57 -12 -71 -73 -34 -149 29 -59 67 -85 121 -81 35 2 45
8 56 30 38 81 -59 217 -143 200z"/>
<path d="M2077 7192 c-23 -25 -21 -37 10 -67 30 -27 75 -33 118 -13 20 9 25
18 25 49 0 43 -10 49 -84 49 -39 0 -57 -5 -69 -18z"/>
<path d="M3524 7200 c-29 -11 -34 -29 -23 -81 5 -24 11 -61 14 -82 7 -46 50
-77 106 -77 49 0 69 24 69 84 0 108 -86 189 -166 156z"/>
<path d="M3948 7028 c-25 -21 -28 -45 -7 -72 24 -31 71 -42 109 -26 34 14 44
38 31 72 -13 36 -100 52 -133 26z"/>
<path d="M653 6637 c-41 -12 -46 -30 -37 -125 6 -67 10 -80 36 -104 35 -33 88
-45 127 -29 54 23 63 125 19 199 -34 56 -87 78 -145 59z"/>
<path d="M1101 6441 c-67 -51 66 -135 137 -85 27 19 32 88 6 98 -34 13 -119 6
-143 -13z"/>
<path d="M1803 6384 c-27 -22 -27 -24 -13 -51 9 -15 31 -33 52 -41 33 -13 41
-12 75 4 30 15 39 25 41 50 4 40 -16 56 -77 59 -39 2 -55 -3 -78 -21z"/>
<path d="M2227 6352 c-25 -27 -21 -47 14 -76 35 -30 67 -33 109 -11 24 13 30
22 30 50 0 42 -20 55 -88 55 -35 0 -54 -5 -65 -18z"/>
<path d="M3611 6241 c-29 -29 -27 -45 10 -75 53 -45 139 -24 139 33 0 41 -13
52 -72 58 -48 5 -58 3 -77 -16z"/>
<path d="M4008 6206 c-25 -18 -22 -35 9 -68 63 -65 173 -13 133 63 -9 15 -21
19 -68 19 -31 0 -65 -7 -74 -14z"/>
<path d="M6043 6175 c-18 -13 -23 -26 -23 -63 0 -115 117 -217 174 -153 16 18
17 26 5 92 -9 52 -20 81 -38 101 -32 36 -86 46 -118 23z"/>
<path d="M5306 6106 c-43 -34 25 -113 88 -101 16 3 35 10 43 16 14 13 17 57 4
77 -12 20 -112 26 -135 8z"/>
<path d="M6430 6140 c-42 -42 -12 -166 50 -210 40 -29 103 -27 117 3 28 57 20
115 -24 167 -49 59 -108 75 -143 40z"/>
<path d="M1165 5879 c30 -283 57 -474 68 -481 6 -4 19 -8 27 -8 33 0 40 16 38
79 -3 52 0 65 15 75 16 10 29 0 100 -76 82 -88 119 -109 153 -90 15 8 6 21
-64 93 -44 47 -90 97 -103 112 l-22 29 67 67 c36 36 66 70 66 74 0 4 -20 7
-44 7 -41 0 -51 -5 -105 -56 -34 -31 -67 -54 -74 -51 -9 3 -17 30 -21 69 -15
148 -22 198 -28 203 -3 3 -22 9 -43 12 l-37 6 7 -64z"/>
<path d="M215 5841 c-3 -6 -1 -64 5 -129 6 -64 13 -145 16 -180 6 -69 25 -89
71 -77 24 6 25 9 19 48 -4 23 -9 89 -13 146 -7 121 -1 131 76 131 37 0 52 -6
78 -30 28 -26 32 -37 38 -107 4 -43 10 -105 14 -138 l6 -60 44 -3 43 -3 -5 43
c-17 127 -22 196 -18 244 1 15 46 34 82 34 35 0 85 -26 95 -49 3 -9 12 -74 20
-144 7 -70 16 -132 19 -138 9 -14 75 -11 76 4 2 30 -4 99 -16 192 -15 103 -28
131 -78 169 -38 28 -145 34 -196 12 -37 -17 -38 -17 -87 9 -43 23 -60 26 -134
25 -47 -1 -99 1 -116 5 -20 4 -34 3 -39 -4z"/>
<path d="M2414 5837 c-8 -22 66 -511 79 -519 19 -12 57 -9 63 5 2 7 -2 59 -11
115 -22 148 -21 158 17 176 45 23 73 20 109 -12 29 -26 33 -36 51 -157 11 -72
22 -133 26 -136 14 -13 47 -18 61 -10 12 8 12 26 -3 123 -20 136 -32 176 -60
206 -40 45 -73 55 -157 49 l-77 -5 -6 32 c-3 17 -8 53 -12 79 -5 39 -11 50
-31 58 -33 12 -43 11 -49 -4z"/>
<path d="M1663 5735 c-48 -25 -69 -53 -57 -73 17 -27 51 -26 85 2 53 45 137
26 158 -35 6 -18 11 -34 11 -35 0 -2 -38 -4 -84 -4 -70 0 -88 -4 -117 -23 -64
-43 -64 -107 1 -169 47 -44 104 -56 180 -38 38 9 55 9 63 1 6 -6 26 -11 45
-11 34 0 34 1 27 33 -3 17 -15 84 -25 148 -10 64 -25 127 -34 141 -40 61 -186
97 -253 63z m191 -201 c17 -6 23 -70 8 -89 -26 -36 -116 -40 -145 -7 -47 54
-12 102 74 102 26 0 54 -3 63 -6z"/>
<path d="M2921 5642 c-45 -25 -59 -46 -45 -69 17 -27 41 -27 69 1 30 30 80 34
125 11 29 -15 48 -54 36 -73 -3 -5 -42 -9 -86 -9 -75 1 -81 -1 -110 -28 -95
-91 51 -235 196 -195 34 10 48 10 57 1 6 -6 26 -11 45 -11 32 0 34 2 27 28 -4
15 -18 83 -31 151 -32 165 -56 193 -184 205 -53 6 -71 4 -99 -12z m200 -198
c5 -3 9 -23 9 -44 0 -34 -4 -42 -31 -56 -38 -19 -84 -13 -116 18 -33 31 -30
62 10 82 30 16 103 16 128 0z"/>
<path d="M3280 5601 c0 -47 48 -323 58 -333 5 -5 22 -8 38 -6 28 3 29 5 26 48
-2 25 -10 76 -18 113 -20 98 -19 113 14 125 15 6 38 12 52 14 27 3 36 24 20
48 -7 11 -31 15 -100 16 l-90 1 0 -26z"/>
<path d="M3583 5589 c-59 -37 -73 -140 -30 -224 49 -97 109 -134 216 -135 60
0 65 2 102 39 37 37 39 42 39 101 0 72 -28 132 -88 187 -58 55 -176 71 -239
32z m141 -39 c20 0 85 -68 99 -103 19 -46 6 -125 -24 -149 -38 -30 -93 -18
-141 29 -34 34 -40 47 -45 96 -3 34 -1 68 6 85 12 29 54 53 79 46 8 -2 19 -4
26 -4z"/>
<path d="M4473 5350 c-77 -32 5 -137 86 -109 39 14 54 41 46 80 -4 16 -7 29
-8 29 -50 7 -107 7 -124 0z"/>
<path d="M5700 5267 c-58 -29 -18 -109 55 -109 61 0 96 52 63 94 -18 21 -87
30 -118 15z"/>
<path d="M6065 5230 c-24 -27 -13 -63 28 -85 60 -32 124 1 111 59 -8 39 -18
46 -75 46 -33 0 -51 -5 -64 -20z"/>
<path d="M6809 5333 c-48 -13 -51 -125 -5 -191 56 -82 146 -84 171 -4 10 34
-20 124 -52 154 -47 43 -72 53 -114 41z"/>
<path d="M2840 4688 c-27 -45 -25 -103 6 -166 40 -81 114 -107 169 -59 26 22
26 23 15 92 -18 111 -26 130 -66 148 -19 9 -50 17 -69 17 -29 0 -39 -6 -55
-32z"/>
<path d="M4201 4626 c-22 -23 -22 -26 -10 -103 14 -93 26 -115 72 -137 49 -22
74 -20 104 10 23 23 25 31 21 87 -6 73 -36 130 -80 152 -45 22 -81 19 -107 -9z"/>
<path d="M1570 4783 c-11 -8 -27 -27 -35 -43 -14 -27 -14 -30 3 -39 16 -8 92
-14 164 -12 25 1 26 3 17 30 -14 40 -42 62 -88 71 -29 5 -46 3 -61 -7z"/>
<path d="M3313 4682 c-63 -48 -39 -191 40 -247 12 -8 43 -15 68 -15 40 0 51 4
69 28 31 39 23 137 -16 188 -48 62 -116 82 -161 46z"/>
<path d="M3783 4670 c-12 -5 -29 -20 -39 -35 -23 -35 -16 -135 13 -173 86
-117 218 -82 199 53 -8 59 -29 98 -68 129 -39 29 -75 38 -105 26z"/>
<path d="M5212 4434 c-30 -20 -28 -48 5 -79 53 -49 143 -22 143 43 0 16 -5 33
-12 40 -17 17 -109 15 -136 -4z"/>
<path d="M5783 4558 c-26 -13 -37 -66 -27 -133 10 -68 65 -125 121 -125 27 0
46 6 58 20 15 17 16 26 6 87 -17 99 -27 119 -75 143 -47 22 -52 23 -83 8z"/>
<path d="M6213 4390 c-17 -7 -23 -18 -23 -39 0 -57 86 -92 134 -56 22 17 26
66 6 89 -14 18 -80 21 -117 6z"/>
<path d="M6931 4361 c-37 -10 -46 -55 -18 -86 32 -36 76 -42 111 -14 23 18 27
27 22 53 -10 51 -48 66 -115 47z"/>
<path d="M1239 3831 c-62 -62 -31 -85 106 -79 63 3 70 5 67 23 -2 11 -18 35
-37 53 -46 43 -94 44 -136 3z"/>
<path d="M1921 3813 c-23 -15 -24 -20 -18 -103 4 -48 11 -99 16 -113 13 -33
50 -57 99 -64 31 -4 44 0 66 18 59 52 39 207 -34 257 -39 26 -96 29 -129 5z"/>
<path d="M2408 3797 c-14 -12 -31 -32 -37 -44 -26 -52 -4 -143 49 -195 33 -33
44 -38 83 -38 34 0 53 6 74 24 26 22 28 30 28 93 0 84 -27 132 -91 163 -52 26
-73 25 -106 -3z"/>
<path d="M2875 3778 c-30 -27 -41 -76 -31 -142 6 -35 17 -56 51 -91 39 -40 49
-45 88 -45 73 0 112 59 96 144 -23 125 -132 196 -204 134z"/>
<path d="M3590 3613 c-33 -6 -60 -31 -60 -55 0 -11 14 -33 30 -50 27 -27 36
-30 73 -25 64 9 98 66 65 109 -14 18 -69 29 -108 21z"/>
<path d="M4383 3735 c-58 -25 -67 -118 -21 -207 25 -47 50 -65 103 -73 63 -10
88 15 93 96 3 53 -1 72 -20 108 -35 66 -101 98 -155 76z"/>
<path d="M3750 2802 c-30 -15 -35 -23 -38 -57 -4 -43 13 -143 30 -181 15 -33
72 -57 114 -49 46 8 68 44 68 109 -1 129 -90 220 -174 178z"/>
<path d="M789 2859 c-15 -6 -30 -20 -33 -32 -7 -29 12 -185 27 -216 17 -35 80
-65 121 -57 55 10 78 44 84 125 4 62 2 75 -21 114 -15 24 -37 52 -51 61 -28
18 -86 20 -127 5z"/>
<path d="M1305 2678 c-45 -26 -47 -66 -4 -102 42 -35 96 -35 139 0 27 23 31
32 28 68 l-3 41 -70 2 c-39 2 -79 -2 -90 -9z"/>
<path d="M2419 2823 c-31 -19 -52 -66 -36 -82 16 -16 194 -15 200 2 6 17 -11
48 -42 74 -31 27 -85 29 -122 6z"/>
<path d="M4616 2775 c-17 -16 -26 -34 -26 -55 l0 -30 90 0 c88 0 90 0 90 24 0
32 -62 86 -99 86 -16 0 -39 -11 -55 -25z"/>
<path d="M5035 2766 c-18 -18 -25 -35 -23 -54 3 -27 3 -27 91 -30 82 -3 87 -2
87 17 0 33 -50 81 -92 88 -31 4 -41 1 -63 -21z"/>
<path d="M5457 2768 c-56 -43 -47 -160 19 -236 31 -37 40 -42 77 -42 67 1 81
18 74 87 -12 110 -29 155 -66 180 -38 25 -79 30 -104 11z"/>
<path d="M6300 2603 c-45 -18 -53 -67 -17 -101 58 -54 137 -26 137 48 0 29 -5
42 -19 50 -21 11 -76 12 -101 3z"/>
<path d="M6672 2575 c-24 -30 -19 -58 16 -85 33 -27 75 -25 109 4 25 22 26 27
18 62 l-10 39 -56 3 c-51 3 -59 0 -77 -23z"/>
</g>
</svg>
