<?xml version="1.0" standalone="no"?>
<!DOCTYPE svg PUBLIC "-//W3C//DTD SVG 20010904//EN"
 "http://www.w3.org/TR/2001/REC-SVG-20010904/DTD/svg10.dtd">
<svg version="1.0" xmlns="http://www.w3.org/2000/svg"
 width="720.000000pt" height="1280.000000pt" viewBox="0 0 720.000000 1280.000000"
 preserveAspectRatio="xMidYMid meet">
<metadata>
Created by potrace 1.16, written by Peter Selinger 2001-2019
</metadata>
<g transform="translate(0.000000,1280.000000) scale(0.100000,-0.100000)"
fill="#000000" stroke="none">
<path d="M0 6400 l0 -6400 3600 0 3600 0 0 1025 0 1025 -197 2 c-109 1 -206 2
-216 1 -10 0 -16 5 -14 11 46 114 60 171 55 218 -4 31 -1 48 10 58 12 10 17
11 20 2 6 -20 19 -14 73 38 29 28 59 50 68 50 26 0 42 -15 35 -33 -3 -10 -1
-17 5 -17 17 0 101 151 108 193 4 27 13 42 29 49 34 16 33 58 0 58 -22 0 -26
6 -32 47 -12 72 -6 153 11 165 22 16 -91 98 -135 98 -14 0 -46 26 -88 71 -60
64 -69 70 -96 65 -53 -11 -76 -33 -76 -72 0 -34 -2 -36 -25 -30 -14 4 -45 9
-69 12 -67 10 -116 43 -169 114 -80 107 -91 118 -95 98 -2 -10 -10 -18 -17
-18 -7 0 -37 -20 -66 -45 -67 -57 -102 -64 -175 -35 -46 19 -66 22 -121 17
-43 -4 -71 -3 -80 4 -15 13 -17 55 -3 64 6 3 10 17 10 31 0 13 4 24 9 24 4 0
11 28 15 62 10 96 17 142 25 153 4 6 13 29 21 53 7 23 19 47 27 53 7 6 13 29
13 50 0 35 3 39 25 39 35 0 74 20 80 42 7 19 -28 78 -46 78 -22 0 -4 28 57 87
49 46 72 62 85 58 11 -4 19 -11 19 -17 0 -5 8 -7 17 -4 9 4 19 3 22 -1 10 -13
70 -53 80 -53 5 0 11 -7 15 -15 3 -8 13 -15 23 -15 16 0 56 -31 158 -122 l30
-27 -46 -1 c-33 0 -49 5 -53 15 -6 16 -61 21 -71 6 -3 -5 7 -19 22 -30 36 -27
75 -59 137 -110 49 -40 96 -58 116 -46 5 3 10 1 10 -5 0 -7 6 -10 14 -7 7 3
17 2 22 -2 5 -5 30 -14 56 -21 26 -7 53 -19 59 -26 9 -11 46 -14 160 -14 l149
0 0 131 0 130 -32 -5 c-103 -17 -206 -71 -208 -109 0 -18 -57 -56 -84 -57 -24
0 -169 62 -186 80 -3 3 -17 11 -32 17 -17 8 -28 20 -28 32 0 23 22 19 55 -9
11 -10 57 -30 102 -45 72 -24 86 -26 112 -15 l30 12 -62 32 c-57 29 -65 36
-95 99 -33 67 -35 78 -50 192 -4 33 -11 60 -16 60 -10 0 -36 -132 -28 -140 3
-3 -3 -8 -13 -11 -12 -5 -25 3 -44 27 -38 48 -45 81 -46 204 l0 110 45 75 c24
41 56 98 70 125 21 41 30 50 53 50 16 1 33 10 43 23 20 29 30 28 38 -3 4 -14
11 -25 16 -25 6 0 27 -17 46 -37 l36 -37 18 22 c10 12 20 27 22 33 5 16 127
-27 183 -65 47 -32 72 -33 46 -2 -13 15 -161 89 -201 100 -43 13 -110 50 -110
63 0 22 87 27 133 8 113 -46 141 -61 163 -88 l24 -29 0 43 c0 28 -8 52 -23 73
-24 33 -45 75 -57 118 -12 38 11 56 51 41 l29 -11 0 886 0 886 -22 24 c-20 21
-24 38 -30 140 -3 64 -8 128 -10 141 -1 13 3 26 10 28 6 3 12 -2 12 -10 0 -12
19 -27 36 -27 10 0 3 30 -9 37 -15 9 -47 69 -96 177 -24 54 -34 66 -44 57 -7
-6 -38 -13 -68 -16 -85 -10 -83 -7 -76 -78 4 -39 18 -84 37 -121 16 -32 30
-72 30 -87 0 -46 68 -159 96 -159 17 0 122 -113 117 -126 -7 -18 -61 -17 -93
1 -33 19 -71 20 -64 1 3 -8 16 -17 29 -20 12 -3 25 -14 28 -25 2 -11 22 -25
48 -34 l44 -15 -73 -1 c-51 -1 -85 -7 -114 -21 -23 -11 -48 -20 -55 -20 -8 0
-25 -7 -38 -16 -13 -9 -33 -13 -43 -10 -28 9 -52 -3 -52 -26 0 -11 -9 -31 -20
-45 -11 -14 -17 -29 -14 -34 3 -5 -4 -9 -15 -9 -23 0 -27 -12 -37 -100 -3 -35
-13 -82 -20 -104 -8 -21 -14 -56 -14 -77 0 -22 -4 -39 -10 -39 -5 0 -10 -22
-10 -50 0 -27 -4 -50 -10 -50 -5 0 -10 -7 -10 -15 0 -8 -4 -15 -10 -15 -5 0
-10 -7 -10 -15 0 -8 5 -15 11 -15 8 0 8 -4 1 -12 -5 -7 -13 -34 -16 -60 -5
-32 -12 -48 -22 -48 -10 0 -14 -12 -14 -39 0 -24 -5 -41 -14 -44 -18 -7 -56 3
-56 14 0 15 -43 10 -62 -8 -18 -16 -21 -15 -52 19 -18 20 -42 39 -53 42 -17 5
-21 1 -27 -25 -3 -17 -1 -39 4 -49 11 -21 10 -70 -2 -70 -4 0 -8 5 -8 11 0 6
-8 8 -19 4 -10 -3 -24 1 -31 10 -7 8 -28 15 -47 15 -20 0 -36 6 -39 15 -11 29
-74 29 -74 0 0 -7 -7 -18 -15 -25 -8 -7 -13 -16 -10 -20 3 -4 -1 -13 -9 -19
-11 -9 -17 -8 -29 4 -9 8 -22 12 -30 9 -9 -3 -25 4 -36 15 -12 12 -21 16 -21
9 0 -17 -13 -1 -16 20 -2 9 -7 33 -13 52 -6 19 -24 94 -42 165 -17 72 -40 159
-51 195 -10 36 -25 92 -32 125 -22 95 -97 359 -105 368 -7 7 -185 -39 -326
-84 -33 -10 -80 -23 -105 -28 -93 -19 -365 -89 -395 -101 -11 -5 -56 -18 -100
-30 -44 -11 -111 -29 -150 -39 -38 -10 -153 -42 -255 -70 -322 -89 -364 -100
-405 -107 -22 -4 -44 -10 -50 -14 -5 -5 -28 -11 -50 -15 -44 -8 -74 -16 -245
-68 -63 -20 -153 -46 -200 -58 -47 -12 -111 -31 -142 -41 -32 -10 -61 -17 -65
-16 -5 0 -15 -2 -23 -5 -8 -4 -33 -11 -55 -16 -22 -6 -99 -26 -172 -45 -134
-36 -151 -40 -213 -51 -32 -5 -33 -4 -12 6 26 14 86 109 97 154 7 30 42 72 52
62 7 -8 57 24 100 64 21 19 45 38 54 41 15 6 61 87 65 113 1 6 4 34 8 64 4 35
15 64 30 82 26 30 42 82 31 99 -3 5 -2 10 3 10 5 0 12 18 16 40 4 24 11 39 19
37 7 -1 13 11 15 28 2 17 7 34 12 39 5 5 6 21 3 36 -5 26 4 43 45 85 6 8 12
22 12 32 0 10 7 31 15 47 18 35 19 53 3 59 -9 4 -10 8 -2 14 38 29 73 326 39
339 -8 4 -15 16 -15 28 0 42 -16 49 -31 14 -7 -18 -46 -79 -86 -135 -68 -94
-93 -123 -93 -108 0 5 35 78 60 127 13 24 76 215 88 268 53 225 79 433 94 735
7 147 8 359 3 588 l-7 358 -212 -6 c-203 -5 -747 -14 -2111 -36 -352 -5 -724
-12 -827 -15 l-188 -5 0 210 0 211 1995 0 c1440 0 1995 -3 1995 -11 0 -6 -6
-23 -14 -37 -22 -44 -36 -96 -36 -136 0 -38 1 -38 31 -32 17 3 40 6 50 6 9 0
25 7 34 16 12 12 19 13 29 5 10 -8 16 -7 26 4 7 9 21 13 34 9 14 -3 28 1 36
11 10 13 15 13 21 3 7 -10 12 -11 28 -1 11 7 28 10 37 6 22 -8 44 22 44 61 1
30 1 30 15 -9 8 -22 15 -41 15 -42 0 -2 7 -3 16 -3 9 0 27 12 40 27 20 23 24
25 30 10 9 -24 30 -21 48 5 l16 22 0 -22 c0 -23 0 -23 24 -5 16 12 26 32 30
58 7 46 13 48 121 49 56 1 60 -1 75 -29 8 -16 31 -50 50 -75 35 -44 35 -46 24
-90 -24 -89 -13 -190 21 -190 10 0 15 10 15 30 0 17 4 30 8 30 9 0 82 140 82
156 0 5 11 36 25 69 20 50 28 60 49 62 43 3 28 -55 -29 -118 -23 -26 -32 -44
-28 -58 7 -26 19 -27 32 -3 8 14 10 10 11 -20 0 -21 4 -38 9 -38 5 0 12 -12
16 -27 13 -53 45 -67 45 -20 0 44 34 107 60 113 14 3 42 9 63 15 38 10 57 6
57 -13 0 -13 56 -64 93 -84 22 -12 32 -13 43 -3 12 10 12 14 -3 25 -16 12 -13
12 15 3 43 -15 99 1 132 36 18 19 25 41 29 90 l6 65 26 -14 c18 -9 32 -10 44
-4 18 11 35 -4 35 -31 0 -8 12 -34 26 -58 17 -30 30 -43 41 -39 8 3 17 6 19 6
3 0 0 8 -5 19 -15 28 5 93 27 87 9 -2 33 -7 52 -10 25 -4 42 -16 59 -41 13
-20 26 -33 29 -30 3 3 11 0 19 -6 10 -9 13 -7 13 8 0 10 -5 24 -12 31 -20 20
-6 20 77 2 172 -38 254 -64 258 -82 5 -18 37 -26 37 -9 0 12 74 1 78 -11 2 -4
8 -5 13 -2 6 3 16 1 24 -6 7 -6 26 -13 42 -16 15 -3 33 -10 38 -17 6 -7 18
-11 27 -9 13 2 16 -1 12 -13 -7 -16 24 -85 38 -85 4 0 10 -23 14 -50 7 -53 11
-59 45 -65 12 -3 24 -7 28 -11 3 -4 -2 -4 -11 -1 -22 8 -24 -18 -3 -53 8 -14
17 -31 21 -39 17 -33 71 -81 91 -81 13 0 23 -5 23 -11 0 -6 7 -9 15 -5 8 3 15
1 15 -4 0 -6 15 -10 33 -9 24 0 27 2 14 8 -17 6 -17 8 -4 19 12 10 18 10 29
-1 16 -17 63 -34 55 -20 -3 5 6 9 21 9 73 0 172 17 172 30 0 8 9 14 20 14 20
0 20 10 20 2115 l0 2115 -3600 0 -3600 0 0 -6400z m6795 3679 c153 -68 200
-265 96 -404 -25 -34 -27 -41 -14 -50 23 -17 -3 -53 -49 -67 -30 -9 -45 -8
-80 5 -34 13 -55 15 -98 8 -30 -5 -63 -13 -73 -16 -53 -21 -137 34 -107 70 11
13 9 19 -8 38 -85 90 -82 268 6 360 77 82 216 105 327 56z m-652 5 c52 -18
116 -76 143 -132 28 -55 26 -174 -4 -229 -50 -95 -136 -143 -256 -143 -209 0
-331 220 -222 402 25 42 43 59 94 85 54 28 75 33 131 33 37 0 88 -7 114 -16z
m-5834 -111 c15 -56 71 -300 71 -307 0 -3 -15 -6 -33 -6 -28 0 -34 4 -42 32
-9 29 -14 32 -50 31 -36 0 -40 -3 -47 -31 -8 -28 -13 -32 -42 -32 l-34 0 14
58 c7 31 26 110 41 175 l27 117 43 0 c40 0 43 -2 52 -37z m401 -55 l1 -93 30
38 c23 27 39 37 60 37 16 0 29 -3 29 -6 0 -4 -16 -28 -35 -53 -30 -41 -33 -50
-21 -67 7 -10 25 -40 40 -66 l27 -48 -35 0 c-30 0 -38 5 -57 40 -13 22 -26 40
-31 40 -4 0 -8 -18 -8 -40 0 -38 -2 -40 -30 -40 l-30 0 0 175 0 175 30 0 30 0
0 -92z m1740 -83 l0 -176 -42 1 c-24 1 -55 -1 -69 -5 -19 -5 -33 -1 -55 18
-28 24 -29 29 -29 106 1 69 4 85 22 102 22 22 54 28 91 15 21 -7 22 -5 22 53
l0 61 30 0 30 0 0 -175z m452 83 l3 -92 25 37 c20 30 31 37 58 37 30 0 42 -12
24 -24 -5 -3 -21 -23 -36 -44 l-27 -40 40 -66 41 -66 -35 0 c-30 0 -38 5 -57
40 -13 22 -26 40 -30 40 -5 0 -8 -18 -8 -40 0 -39 -1 -40 -35 -40 l-35 0 0
168 c0 93 3 172 7 175 3 4 19 7 34 7 l28 0 3 -92z m728 28 l0 -65 35 15 c28
11 40 12 58 3 34 -18 37 -27 37 -136 l0 -103 -30 0 -30 0 0 90 c0 75 -3 92
-16 97 -37 14 -49 -10 -52 -101 l-3 -86 -29 0 -30 0 0 175 0 175 30 0 30 0 0
-64z m530 3 c0 -58 1 -60 23 -53 76 26 107 -8 107 -118 0 -71 -2 -81 -26 -105
-21 -21 -31 -24 -57 -18 -18 4 -49 6 -69 6 l-38 -2 0 176 0 175 30 0 30 0 0
-61z m-1482 -11 c3 -35 6 -38 33 -38 24 0 29 -4 29 -25 0 -21 -5 -25 -30 -25
l-31 0 3 -67 c3 -66 4 -68 31 -71 21 -3 27 -8 23 -19 -3 -8 -6 -19 -6 -24 0
-16 -73 -10 -92 8 -14 13 -18 31 -18 90 0 66 -2 75 -20 80 -13 3 -20 14 -20
29 0 17 6 24 20 24 17 0 20 7 20 41 0 38 1 40 28 37 23 -3 27 -8 30 -40z
m-2094 -58 c24 -24 34 -122 17 -173 -15 -44 -59 -66 -97 -48 -14 6 -27 11 -29
11 -3 0 -5 -29 -5 -65 l0 -65 -30 0 -30 0 0 181 0 182 39 -6 c21 -2 45 -1 52
4 19 12 60 2 83 -21z m402 20 c8 0 23 -9 34 -20 17 -17 20 -33 20 -121 l0
-101 -32 3 c-18 1 -48 -1 -66 -5 -50 -12 -82 13 -82 64 0 44 20 64 83 81 28 7
37 15 35 27 -5 25 -45 27 -58 3 -13 -25 -48 -28 -57 -5 -13 34 56 90 95 78 8
-2 20 -4 28 -4z m293 -1 c38 -14 51 -35 51 -88 l0 -41 -61 0 c-60 0 -60 0 -57
-27 3 -32 44 -46 54 -19 4 10 18 16 35 16 35 0 39 -25 10 -61 -27 -34 -99 -34
-135 0 -23 22 -26 32 -26 96 0 79 20 120 63 128 12 2 25 5 28 6 3 0 20 -4 38
-10z m199 0 c29 -10 59 -59 45 -73 -15 -15 -51 -5 -56 15 -4 13 -12 20 -24 17
-31 -6 -27 -34 7 -48 78 -32 101 -82 61 -131 -15 -19 -29 -24 -66 -24 -37 0
-51 5 -66 24 -29 36 -25 61 11 61 24 0 30 -4 30 -21 0 -15 5 -20 22 -17 42 6
33 36 -16 58 -54 23 -75 57 -60 98 9 25 45 52 70 52 6 0 25 -5 42 -11z m219
-13 c6 -6 13 -22 15 -36 2 -21 -2 -26 -23 -28 -20 -2 -28 2 -32 18 -4 14 -12
21 -24 18 -29 -5 -21 -32 15 -50 73 -36 92 -81 53 -129 -15 -19 -29 -24 -66
-24 -37 0 -51 5 -66 24 -29 36 -25 61 10 61 21 0 30 -6 34 -21 7 -25 40 -22
45 4 3 12 -9 23 -42 37 -51 21 -70 54 -60 97 12 45 104 65 141 29z m182 13
c17 -6 36 -19 41 -29 6 -10 10 -62 10 -116 l0 -97 -40 6 c-22 3 -43 1 -46 -4
-8 -14 -47 -11 -72 7 -16 11 -22 25 -22 54 0 44 20 64 83 81 28 7 37 15 35 27
-5 25 -45 27 -58 3 -13 -25 -48 -28 -57 -5 -8 23 16 62 46 73 35 13 43 13 80
0z m319 -22 c16 -15 22 -32 22 -64 l0 -43 -61 0 c-60 0 -60 0 -57 -27 3 -32
44 -46 54 -19 8 20 64 22 64 2 0 -69 -102 -98 -158 -45 -19 17 -22 31 -22 98
0 68 3 80 23 98 12 11 29 23 37 26 25 9 73 -4 98 -26z m1000 -3 c19 -21 22
-36 22 -99 0 -70 -1 -74 -32 -100 -27 -23 -39 -26 -71 -22 -59 8 -80 35 -85
107 -3 36 1 72 9 91 24 60 111 73 157 23z m240 9 c8 -11 12 -53 12 -120 l0
-103 -30 0 -30 0 0 90 c0 75 -3 92 -17 97 -32 12 -53 -32 -53 -113 l0 -74 -30
0 -30 0 0 120 0 120 29 0 c16 0 31 -5 33 -12 3 -8 11 -7 29 5 27 20 67 15 87
-10z m530 -9 c15 -17 22 -38 22 -65 l0 -39 -61 0 c-60 0 -60 0 -57 -27 3 -32
44 -46 54 -19 4 10 18 16 35 16 35 0 40 -29 9 -60 -27 -27 -63 -34 -105 -20
-46 15 -55 34 -55 123 0 64 3 76 23 94 12 11 29 23 37 26 28 11 75 -3 98 -29z
m542 10 c11 -11 15 -39 15 -117 l0 -102 -32 -3 -33 -3 0 91 c0 72 -3 92 -15
96 -33 13 -45 -15 -45 -102 l0 -84 -35 0 -35 0 0 120 0 120 35 0 c19 0 35 -4
35 -9 0 -6 12 -3 28 4 29 16 58 12 82 -11z m215 -5 c17 -16 21 -36 23 -120 l4
-100 -44 1 c-23 1 -54 -1 -68 -5 -34 -9 -80 27 -80 61 0 42 17 62 70 79 37 12
50 22 50 36 0 26 -36 25 -52 -1 -12 -19 -48 -27 -61 -14 -3 3 -1 19 5 36 20
56 108 72 153 27z m394 20 c36 -13 61 -53 61 -99 l0 -30 -59 0 c-63 0 -76 -8
-66 -40 8 -24 55 -28 55 -5 0 11 11 15 36 15 32 0 35 -2 29 -22 -4 -13 -18
-34 -33 -47 -21 -19 -33 -22 -65 -18 -60 8 -80 35 -85 109 -5 79 9 115 50 133
41 17 38 17 77 4z m204 -3 c15 -8 27 -11 27 -5 0 5 14 9 31 9 l30 0 -3 -154
c-3 -134 -5 -157 -22 -175 -42 -46 -144 -35 -166 19 -7 16 -9 34 -5 39 10 18
44 12 57 -9 27 -42 78 -15 78 41 0 18 -3 20 -12 11 -7 -7 -29 -12 -49 -12 -56
0 -79 34 -79 116 0 72 13 107 44 122 29 14 37 14 69 -2z m285 -22 c19 -22 22
-36 22 -120 l0 -95 -42 1 c-24 1 -54 -1 -68 -5 -36 -9 -80 27 -80 65 0 27 32
70 52 70 5 0 24 7 43 14 25 11 33 19 29 30 -9 22 -41 20 -56 -4 -18 -29 -58
-27 -58 3 0 73 105 101 158 41z m-3048 -94 l0 -120 -35 0 -35 0 0 113 c0 63 3
117 7 120 3 4 19 7 35 7 l28 0 0 -120z m2280 63 c19 -90 25 -92 45 -14 18 68
20 71 48 71 28 0 29 -2 23 -33 -3 -19 -25 -99 -49 -178 l-42 -144 -34 -3 c-28
-3 -33 -1 -27 14 28 74 28 99 -3 207 -18 59 -34 113 -37 122 -5 12 2 15 28 15
34 0 35 -1 48 -57z m1330 -643 c8 -11 26 -20 40 -20 29 0 44 -9 52 -31 3 -8
28 -24 55 -34 69 -26 109 -75 61 -75 -43 0 -233 52 -249 69 -22 23 -15 111 10
111 9 0 23 -9 31 -20z m-732 -15 c7 -3 15 -3 19 -2 3 1 12 -16 20 -37 15 -45
8 -106 -13 -106 -8 0 -14 -5 -14 -11 0 -7 -11 -9 -29 -6 -19 4 -31 2 -34 -6
-3 -7 -7 -4 -12 8 -3 11 -11 28 -16 37 -5 10 -9 26 -9 35 0 10 -7 31 -15 47
-24 46 -20 51 37 48 29 -2 59 -5 66 -7z m-3238 -2984 c0 -5 -15 -16 -34 -25
-28 -13 -32 -20 -28 -41 4 -23 1 -25 -29 -25 -24 0 -38 -6 -47 -20 -7 -12 -17
-18 -23 -14 -17 10 -78 -28 -91 -57 -9 -20 -22 -29 -48 -33 -33 -5 -38 -10
-50 -48 -7 -24 -15 -37 -17 -31 -3 8 -18 -1 -41 -25 -20 -21 -45 -41 -54 -45
-10 -3 -18 -13 -18 -21 0 -15 -35 -32 -57 -28 -7 2 -13 -4 -13 -13 0 -8 -5
-15 -11 -15 -16 0 -39 -26 -39 -44 0 -9 -7 -16 -16 -16 -27 0 -40 -23 -47 -80
-5 -40 -13 -59 -29 -72 -20 -15 -21 -20 -11 -37 13 -21 31 -141 20 -131 -12
11 -57 248 -50 265 4 12 3 16 -5 11 -15 -9 -22 5 -27 61 -2 26 -12 71 -20 98
-9 28 -19 64 -22 80 -3 17 -6 34 -6 38 -1 5 14 14 33 22 51 19 365 120 435
139 33 10 82 24 108 33 26 8 51 13 54 10 3 -3 12 0 20 8 8 8 23 15 33 15 10 0
31 7 46 15 16 8 37 15 46 15 9 0 20 5 23 10 8 12 15 13 15 1z m2790 -733 c0
-10 5 -18 10 -18 6 0 10 -9 10 -20 0 -13 7 -20 20 -20 21 0 26 -16 11 -39 -11
-17 25 -71 46 -71 8 0 13 -12 13 -30 0 -16 5 -30 10 -30 6 0 10 -9 10 -20 0
-11 5 -20 10 -20 6 0 10 -9 10 -21 0 -11 4 -18 9 -14 5 3 17 -13 27 -35 10
-22 21 -40 26 -40 15 0 8 -16 -22 -50 -28 -31 -29 -35 -14 -51 11 -12 14 -27
9 -48 -3 -17 -8 -74 -9 -128 -5 -158 -45 -219 -140 -211 -33 2 -40 7 -43 28
-2 14 -15 113 -29 220 -37 296 -42 330 -58 400 -18 79 -36 181 -36 202 0 9 9
18 20 21 11 3 20 14 20 25 0 10 10 24 23 29 18 9 26 7 44 -16 12 -14 22 -34
23 -43z m-973 -44 c27 -29 27 -31 9 -50 -20 -19 -56 -18 -118 6 -29 11 -63 20
-75 20 -15 0 -23 6 -23 18 0 29 39 41 115 36 57 -5 73 -10 92 -30z m-13 -171
c-2 -38 -9 -93 -14 -123 -24 -132 -30 -187 -25 -208 12 -49 -1 -62 -63 -62
-54 0 -58 2 -75 32 l-18 32 35 32 c43 39 50 84 14 84 -13 0 -28 -4 -34 -8 -22
-15 -44 -58 -44 -87 0 -16 -3 -40 -7 -53 -5 -21 -8 -18 -34 29 -20 36 -29 66
-29 98 0 42 5 52 48 98 40 43 51 49 67 41 14 -8 27 -6 52 8 41 21 63 60 63
108 0 32 3 35 33 39 17 2 33 5 34 5 1 1 0 -28 -3 -65z m-2414 -533 c0 -143 -8
-192 -52 -330 -12 -36 -32 -82 -45 -102 -13 -21 -23 -42 -23 -48 0 -5 -9 -15
-20 -22 -11 -7 -20 -18 -20 -25 0 -7 -18 -27 -40 -44 -22 -18 -40 -37 -40 -42
0 -5 -8 -16 -17 -24 -16 -13 -15 -13 6 -3 13 7 37 10 55 7 34 -5 116 12 116
25 0 4 7 8 16 8 9 0 39 14 67 31 28 17 66 33 85 36 19 3 55 20 80 37 39 26 48
39 59 83 8 33 26 65 48 90 40 42 39 42 89 88 l35 33 15 -24 c9 -13 16 -27 16
-31 0 -8 44 -155 91 -300 16 -51 29 -103 29 -116 0 -13 5 -28 10 -33 6 -6 17
-39 24 -75 8 -35 24 -98 35 -139 11 -41 26 -95 32 -120 6 -25 27 -101 46 -170
19 -69 48 -177 64 -240 17 -63 39 -141 50 -173 11 -32 30 -102 44 -155 40
-162 86 -337 181 -686 30 -109 54 -199 54 -200 0 -1 -367 -1 -815 -1 -448 0
-815 2 -815 5 0 3 -10 16 -23 30 -202 219 -344 531 -378 833 -33 291 48 652
218 966 33 62 37 81 13 66 -10 -6 -106 -198 -140 -280 -43 -102 -85 -258 -101
-365 -6 -47 -15 -89 -19 -95 -8 -11 6 -309 19 -395 32 -212 163 -491 323 -687
32 -39 58 -74 58 -78 0 -4 -177 -4 -393 -1 -215 3 -438 5 -494 6 l-103 0 1
138 c1 75 4 127 6 115 7 -38 33 -28 33 12 0 24 5 35 14 35 8 0 18 14 21 32 4
18 11 39 15 48 5 8 13 33 19 55 6 22 26 63 46 90 19 28 40 62 47 78 7 15 16
27 20 27 4 0 8 16 8 35 0 19 -4 35 -10 35 -5 0 -10 9 -10 20 0 17 -7 20 -40
20 -22 0 -40 4 -40 9 0 5 -18 12 -40 16 -22 4 -40 11 -40 16 0 5 -9 9 -20 9
-15 0 -20 -7 -22 -27 0 -16 -4 4 -8 42 -10 93 -12 1907 -2 1920 4 6 139 11
357 13 460 4 850 18 1004 37 68 8 126 17 129 20 3 3 20 5 39 5 l33 0 0 -140z
m2349 64 c11 -3 11 -7 1 -20 -11 -12 -8 -19 21 -44 20 -17 46 -29 64 -30 27
-1 28 -2 13 -14 -10 -7 -18 -21 -18 -31 0 -9 -9 -19 -20 -22 -11 -3 -20 -9
-20 -13 0 -11 -32 -22 -39 -13 -3 4 -15 13 -25 19 -25 13 -86 121 -86 151 0
30 26 43 64 31 17 -5 37 -12 45 -14z m2301 -2134 c0 -5 9 -10 20 -10 19 0 21
-5 35 -72 2 -10 -1 -18 -7 -18 -6 0 -8 -9 -5 -20 3 -10 -1 -24 -9 -31 -8 -6
-14 -17 -14 -25 0 -18 -40 -44 -68 -44 -19 0 -23 4 -17 18 14 37 15 141 1 155
-12 12 -12 16 3 29 30 25 61 35 61 18z m249 -60 c-21 -28 -22 -34 -11 -93 7
-36 12 -95 12 -132 0 -67 0 -67 -25 -61 -14 4 -25 2 -25 -4 0 -5 5 -10 10 -10
20 0 10 -19 -12 -22 -31 -4 -35 -28 -5 -28 35 0 57 -10 57 -25 0 -7 7 -18 15
-25 12 -10 13 -6 8 26 -5 33 -4 37 11 31 10 -4 26 -7 37 -7 23 0 26 -37 6 -78
-8 -15 -13 -44 -11 -64 2 -32 -1 -38 -20 -40 -53 -6 -536 -2 -536 4 0 3 32 12
70 18 49 8 70 16 70 26 0 8 10 18 23 23 26 10 58 53 59 79 1 9 -2 27 -6 40 -7
20 -2 25 36 42 24 10 53 29 65 42 25 27 113 163 113 174 0 14 64 114 72 114 5
0 -1 -13 -13 -30z m-478 -417 c11 -20 11 -26 0 -33 -9 -5 -12 -17 -8 -31 10
-39 -9 -49 -89 -49 -67 0 -74 2 -74 20 0 39 57 108 100 122 27 8 58 -4 71 -29z"/>
<path d="M6613 9773 c-20 -4 -23 -11 -23 -51 l0 -47 85 0 85 0 0 46 c0 40 -3
48 -22 53 -25 6 -90 6 -125 -1z"/>
<path d="M850 3420 c0 -5 -22 -32 -49 -58 -35 -35 -52 -60 -57 -87 -4 -24 -13
-39 -25 -42 -22 -6 -25 -28 -6 -37 10 -5 10 -7 0 -12 -19 -8 -17 -64 2 -64 8
0 15 -4 15 -10 0 -5 16 -10 35 -10 19 0 35 5 35 10 0 6 11 10 24 10 45 0 86
13 86 26 0 8 4 14 9 14 20 0 34 62 29 130 -3 39 -1 70 3 70 5 0 9 6 9 14 0 8
-16 16 -39 20 -21 3 -41 13 -45 21 -6 17 -26 21 -26 5z"/>
<path d="M4300 8914 c-72 -9 -198 -36 -275 -58 -44 -13 -108 -32 -143 -42 -60
-17 -77 -36 -36 -42 11 -2 83 13 160 32 187 47 243 56 360 59 124 3 154 -5
154 -38 0 -50 -166 -182 -316 -251 -42 -20 -78 -33 -81 -30 -3 3 -8 64 -11
136 l-5 131 -26 -3 -26 -3 2 -110 c0 -68 9 -150 23 -214 11 -57 22 -109 23
-114 2 -11 -37 -22 -115 -32 -31 -4 -48 -11 -48 -20 0 -8 -5 -17 -12 -21 -8
-5 -9 -2 -5 9 4 11 1 17 -8 17 -8 0 -15 4 -15 9 0 5 -9 11 -20 14 -11 3 -20
12 -20 20 0 19 -63 31 -90 17 -11 -6 -20 -15 -20 -20 0 -6 -7 -10 -15 -10 -9
0 -18 -7 -21 -15 -4 -8 -10 -15 -15 -15 -13 0 -79 -61 -91 -83 -5 -10 -11 -49
-13 -86 -2 -61 0 -72 22 -97 13 -16 22 -36 20 -44 -7 -27 64 -52 124 -44 40 5
60 16 108 58 68 59 97 105 107 166 6 35 4 45 -11 57 -16 11 -16 13 -3 13 9 0
18 4 20 10 2 5 33 17 71 26 52 13 73 14 92 6 21 -10 26 -8 35 8 7 13 25 20 67
25 219 24 345 67 351 119 8 62 -81 106 -233 116 l-90 6 40 19 c145 71 255 165
255 217 0 16 1 31 3 35 1 4 -17 20 -40 35 -35 24 -55 29 -120 32 -43 2 -94 2
-113 0z m205 -417 c22 -8 40 -20 40 -28 0 -25 -87 -56 -220 -79 -71 -12 -136
-22 -144 -23 -10 -1 -20 20 -31 65 l-18 67 52 10 c28 6 65 12 81 13 50 5 198
-11 240 -25z"/>
<path d="M4840 8810 c0 -5 -6 -10 -13 -10 -11 0 -13 -17 -9 -75 4 -71 3 -77
-22 -100 -14 -13 -26 -30 -26 -38 0 -18 -57 -97 -70 -97 -6 0 -15 20 -22 45
-19 72 -64 73 -56 1 13 -113 62 -131 136 -50 48 53 64 49 57 -16 -2 -19 -4
-79 -4 -132 l-1 -98 -157 0 c-182 1 -182 0 -30 76 129 64 180 105 130 104 -26
-1 -294 -153 -307 -174 -9 -13 -7 -20 9 -32 17 -13 46 -14 181 -8 89 3 166 4
170 1 5 -3 7 -28 6 -55 -4 -48 -5 -50 -37 -56 l-33 -7 21 -39 c25 -46 44 -51
53 -15 10 39 39 31 68 -20 31 -53 44 -56 52 -15 7 33 28 55 44 45 5 -3 10 -26
10 -50 0 -55 15 -65 46 -32 28 30 54 26 54 -9 0 -17 4 -22 15 -18 9 4 29 1 46
-6 27 -12 30 -17 25 -43 -3 -17 -17 -45 -31 -63 -35 -45 -32 -49 18 -19 57 33
78 32 106 -6 31 -42 19 -67 -53 -110 -70 -43 -72 -56 -3 -24 80 38 94 33 75
-29 -7 -20 -29 -53 -50 -71 -41 -38 -39 -41 11 -24 30 11 35 9 66 -21 18 -18
44 -37 56 -44 13 -6 37 -41 56 -78 18 -36 43 -74 55 -82 25 -18 93 -22 103 -6
12 19 61 10 85 -15 55 -58 95 3 45 69 -21 28 -25 40 -19 73 5 35 3 42 -21 61
-22 18 -25 26 -20 56 6 32 5 36 -19 42 -35 9 -54 33 -35 45 33 20 84 10 125
-26 46 -41 59 -34 67 34 5 38 2 47 -21 68 -27 25 -71 107 -72 133 -1 28 -26
61 -61 78 -21 10 -42 33 -54 57 -29 58 -107 95 -193 93 -52 -1 -66 2 -87 22
-21 20 -31 22 -73 16 -27 -3 -51 -3 -55 0 -11 11 13 34 35 34 11 0 35 16 54
36 41 46 68 42 115 -17 29 -37 35 -40 66 -34 29 5 37 2 55 -20 14 -19 28 -25
47 -23 42 5 41 60 -3 146 -33 63 -36 73 -30 129 6 57 5 61 -22 82 -25 20 -36
22 -86 16 l-58 -6 0 34 c0 43 -16 63 -60 74 -75 19 -168 -23 -215 -97 -14 -22
-29 -39 -33 -39 -41 7 -77 -4 -101 -30 l-27 -29 -23 92 c-13 50 -22 102 -20
116 5 45 -13 240 -22 240 -5 0 -9 -4 -9 -10z"/>
<path d="M6841 7708 c-10 -16 -10 -23 -2 -26 16 -5 14 -22 -4 -22 -10 0 -15
-10 -15 -29 0 -17 -4 -32 -9 -36 -5 -3 -12 -18 -16 -35 -5 -22 0 -38 19 -67
14 -21 26 -44 26 -51 0 -7 9 -32 20 -54 11 -23 20 -47 20 -54 0 -7 21 -30 46
-51 25 -21 57 -48 71 -61 29 -27 44 -19 63 31 7 18 21 54 32 82 33 80 22 164
-33 261 -33 57 -53 81 -81 95 -20 10 -39 23 -43 29 -3 5 -23 10 -43 10 -28 0
-41 -6 -51 -22z"/>
<path d="M3379 7238 l-26 -73 39 -2 c21 0 44 -5 51 -10 7 -5 31 -15 54 -23 39
-12 42 -15 45 -54 2 -33 9 -44 37 -63 36 -24 114 -32 126 -13 9 15 45 12 51
-5 7 -17 34 -20 34 -4 0 7 9 5 24 -5 24 -15 25 -14 62 33 39 52 92 97 101 87
3 -3 -6 -32 -20 -63 -14 -32 -24 -60 -21 -63 3 -2 10 3 15 13 14 23 62 47 97
47 26 0 62 24 51 34 -15 13 -165 86 -177 86 -7 0 -48 15 -90 34 -43 18 -99 36
-127 40 -27 4 -95 23 -151 42 -144 49 -144 49 -175 -38z"/>
<path d="M4507 7115 c-21 -24 -59 -54 -83 -65 -52 -26 -56 -40 -12 -40 l31 0
-22 -24 c-38 -40 -22 -60 54 -72 57 -8 68 -7 81 7 8 9 14 21 12 27 -2 6 13 24
32 41 l35 30 -45 -2 -45 -2 1 73 c1 39 1 72 0 71 0 0 -18 -20 -39 -44z"/>
<path d="M4785 6890 c6 -242 6 -250 -13 -250 -20 0 -52 -29 -52 -47 0 -6 20
-21 45 -34 41 -22 45 -27 45 -61 0 -42 25 -75 45 -58 18 15 42 2 57 -31 10
-23 19 -29 42 -29 31 0 204 56 221 71 5 5 17 9 27 9 10 0 18 5 18 10 0 6 -4
10 -10 10 -5 0 -10 11 -10 24 0 17 7 26 26 30 36 9 27 36 -21 63 -39 23 -136
56 -165 57 -9 1 -19 19 -27 50 -14 54 -37 86 -65 86 -20 0 -21 -6 -9 -68 8
-39 7 -43 -15 -48 -55 -14 -61 9 -64 236 -2 139 -11 196 -36 215 -45 34 -45
30 -39 -235z"/>
<path d="M4530 6633 c0 -5 -16 -15 -35 -22 -24 -8 -35 -19 -35 -32 0 -10 -5
-19 -10 -19 -19 0 12 -36 42 -49 34 -15 60 -52 64 -89 4 -39 19 -94 33 -120
18 -34 67 -27 64 8 -2 32 -33 159 -44 185 -5 11 -11 34 -13 52 -6 45 -28 87
-49 91 -9 2 -17 0 -17 -5z"/>
</g>
</svg>
