<?xml version="1.0" standalone="no"?>
<!DOCTYPE svg PUBLIC "-//W3C//DTD SVG 20010904//EN"
 "http://www.w3.org/TR/2001/REC-SVG-20010904/DTD/svg10.dtd">
<svg version="1.0" xmlns="http://www.w3.org/2000/svg"
 width="720.000000pt" height="1280.000000pt" viewBox="0 0 720.000000 1280.000000"
 preserveAspectRatio="xMidYMid meet">
<metadata>
Created by potrace 1.16, written by Peter Selinger 2001-2019
</metadata>
<g transform="translate(0.000000,1280.000000) scale(0.100000,-0.100000)"
fill="#000000" stroke="none">
<path d="M0 6400 l0 -6400 3600 0 3600 0 0 1025 0 1025 -3590 0 -3590 0 0
1434 c0 1222 2 1435 14 1445 8 7 31 14 53 17 29 4 34 3 21 -5 -11 -8 -18 -32
-23 -79 -3 -37 -10 -77 -15 -89 -6 -15 -5 -23 4 -26 13 -5 1071 -1 1310 5
l119 3 14 50 c29 110 73 328 73 360 l0 35 -70 0 c-68 0 -70 1 -76 28 -4 15
-15 38 -26 51 -10 13 -18 28 -18 34 0 8 100 6 204 -6 20 -2 21 2 39 100 5 27
3 33 -16 39 -31 10 -107 12 -112 3 -3 -4 -30 -5 -61 -3 -47 2 -60 8 -85 33
-26 28 -28 35 -7 33 3 -1 12 5 18 13 10 12 9 15 -4 15 -23 0 -20 18 4 22 27 4
27 22 0 26 -14 2 -23 -4 -30 -22 -10 -26 -24 -31 -55 -20 -12 5 -13 9 -4 14
27 17 17 300 -13 337 -5 6 -8 35 -7 65 2 29 -1 69 -6 88 -4 19 -9 42 -10 50
-4 31 -34 86 -60 110 -22 21 -29 23 -46 12 -17 -11 -23 -10 -37 8 -16 20 -19
20 -49 5 -18 -9 -35 -24 -38 -35 -3 -10 -39 -37 -79 -59 -40 -22 -79 -47 -87
-57 -13 -16 -12 -16 6 -7 19 10 86 33 96 33 3 0 5 -12 4 -26 0 -15 8 -31 18
-38 15 -9 21 -7 33 9 14 18 13 22 -12 43 -14 13 -25 25 -22 27 10 11 55 12 68
1 19 -14 21 -56 3 -56 -8 0 -16 -8 -19 -17 -18 -54 -30 -72 -51 -76 -27 -5
-42 11 -22 24 19 11 3 23 -32 25 -29 2 -30 0 -24 -30 4 -17 16 -44 28 -61 19
-25 22 -42 21 -110 -3 -120 -12 -172 -46 -255 -22 -57 -35 -76 -49 -76 -21 0
-19 27 6 101 7 23 21 89 31 147 19 116 14 146 -29 186 -28 25 -126 36 -134 16
-3 -8 -20 -14 -42 -14 -41 0 -61 -14 -61 -44 0 -19 -1 -19 -24 3 -19 18 -30
21 -63 15 -32 -5 -41 -3 -46 10 -4 10 -18 16 -37 16 -25 0 -35 -7 -52 -36
l-21 -36 -14 27 c-20 38 -29 23 -13 -24 9 -30 19 -40 39 -44 14 -3 33 0 41 7
8 7 23 11 33 8 15 -3 18 -11 15 -34 -4 -27 -2 -29 19 -25 12 2 23 0 23 -5 0
-26 38 -47 90 -50 54 -3 55 -4 58 -36 3 -27 -1 -33 -25 -42 -15 -6 -36 -15
-45 -20 -10 -6 -28 -10 -41 -10 -12 0 -33 -7 -45 -16 -12 -8 -22 -11 -22 -7 0
5 -15 17 -34 27 -28 15 -49 17 -124 12 -66 -4 -92 -2 -95 7 -2 7 -8 8 -13 4
-4 -4 -3 -21 3 -37 10 -27 9 -29 -5 -21 -13 7 -23 2 -44 -22 -16 -17 -28 -35
-28 -39 0 -5 -11 -26 -25 -46 -47 -69 -27 -92 79 -92 36 0 66 -4 66 -9 0 -4
-18 -29 -40 -54 -35 -39 -40 -52 -41 -94 0 -42 -2 -45 -11 -25 -10 20 -18 22
-80 22 -47 0 -68 -4 -69 -12 -1 -7 -5 -2 -9 12 -4 14 -8 926 -9 2028 l-1 2002
3590 0 3590 0 0 1775 0 1775 -3600 0 -3600 0 0 -6400z m6796 3680 c151 -69
198 -267 95 -405 -25 -34 -27 -41 -14 -50 14 -10 14 -14 -1 -37 -26 -40 -88
-50 -140 -23 -23 12 -38 13 -85 4 -31 -7 -78 -12 -105 -13 -42 -1 -51 3 -72
29 -22 28 -23 31 -7 42 15 12 15 15 -5 35 -85 91 -82 269 6 361 77 81 220 106
328 57z m-653 4 c52 -18 116 -76 142 -130 57 -121 8 -276 -107 -339 -77 -42
-185 -47 -259 -13 -106 49 -153 125 -152 244 1 110 42 177 135 223 50 25 73
31 128 31 36 0 87 -7 113 -16z m-5802 -244 c21 -91 39 -168 39 -172 0 -5 -15
-8 -33 -8 -28 0 -34 4 -42 32 -9 29 -14 32 -50 31 -36 0 -40 -3 -47 -31 -8
-28 -13 -32 -42 -32 l-34 0 14 58 c7 31 26 110 41 175 l28 118 44 -3 44 -3 38
-165z m371 78 l3 -93 25 37 c20 31 31 38 58 38 17 0 32 -3 32 -6 0 -4 -16 -28
-35 -53 -30 -42 -33 -50 -21 -67 7 -10 25 -40 40 -66 l28 -48 -35 0 c-31 0
-39 5 -58 40 -26 45 -39 43 -39 -6 0 -31 -2 -34 -30 -34 l-30 0 0 175 0 175
30 0 29 0 3 -92z m1738 -83 l0 -176 -42 1 c-24 1 -55 -1 -69 -5 -19 -5 -33 -1
-55 18 -28 24 -29 29 -28 107 0 68 4 84 21 101 22 22 54 28 91 15 21 -7 22 -5
22 53 l0 61 30 0 30 0 0 -175z m452 83 l3 -92 25 37 c20 30 31 37 58 37 30 0
42 -12 24 -24 -5 -3 -21 -23 -36 -44 l-27 -40 40 -66 41 -66 -34 0 c-28 0 -38
7 -62 43 l-29 42 -3 -42 c-3 -42 -4 -43 -38 -43 l-34 0 0 175 0 175 35 0 34 0
3 -92z m728 27 l0 -66 30 16 c33 17 60 13 85 -11 11 -12 15 -40 15 -120 l0
-104 -30 0 -30 0 0 90 c0 75 -3 92 -16 97 -37 14 -49 -10 -52 -101 l-3 -86
-29 0 -30 0 0 175 0 175 30 0 30 0 0 -65z m530 4 c0 -58 1 -60 23 -53 76 26
107 -8 107 -118 0 -71 -2 -81 -26 -105 -21 -21 -31 -24 -57 -18 -18 4 -49 6
-69 6 l-38 -2 0 176 0 175 30 0 30 0 0 -61z m-1480 -9 c0 -38 2 -40 30 -40 25
0 30 -4 30 -25 0 -21 -5 -25 -30 -25 l-31 0 3 -67 c3 -66 4 -68 31 -71 28 -3
31 -9 21 -36 -8 -22 -72 -21 -96 1 -14 13 -18 31 -18 90 0 66 -2 75 -20 80
-13 3 -20 14 -20 29 0 17 6 24 20 24 16 0 20 7 20 33 0 40 6 47 37 47 20 0 23
-5 23 -40z m-2096 -61 c24 -23 34 -121 17 -172 -15 -44 -59 -66 -97 -48 -14 6
-27 11 -29 11 -3 0 -5 -30 -5 -66 l0 -65 -27 3 -28 3 -3 179 -2 179 37 -5 c21
-3 47 -2 58 3 26 10 55 2 79 -22z m405 20 c17 -6 36 -19 41 -29 6 -10 10 -62
10 -115 l0 -97 -32 3 c-18 1 -48 -1 -66 -5 -50 -12 -82 13 -82 64 0 44 20 64
83 81 28 7 37 15 35 27 -5 26 -48 28 -55 3 -6 -25 -51 -29 -60 -5 -8 21 28 67
58 75 35 10 33 10 68 -2z m290 0 c38 -14 51 -35 51 -88 l0 -41 -61 0 c-60 0
-60 0 -57 -27 3 -32 44 -46 54 -19 4 10 18 16 35 16 35 0 39 -25 10 -61 -27
-34 -99 -34 -135 0 -23 22 -26 32 -26 96 0 79 20 120 63 128 12 2 25 5 28 6 3
0 20 -4 38 -10z m198 0 c32 -12 43 -26 43 -56 0 -31 -45 -33 -53 -3 -7 26 -47
27 -47 1 0 -11 12 -23 30 -31 78 -32 101 -82 61 -131 -15 -19 -29 -24 -66 -24
-37 0 -51 5 -66 24 -29 36 -25 61 11 61 24 0 30 -4 30 -21 0 -15 5 -20 22 -17
41 6 32 33 -19 59 -91 46 -80 134 19 148 4 1 19 -4 35 -10z m191 0 c29 -10 59
-59 45 -73 -15 -15 -51 -5 -56 15 -4 13 -12 20 -24 17 -29 -5 -21 -32 15 -50
73 -36 92 -81 53 -129 -15 -19 -29 -24 -66 -24 -37 0 -51 5 -66 24 -29 36 -25
61 10 61 21 0 30 -6 34 -21 7 -25 40 -22 45 3 2 12 -11 24 -43 39 -74 35 -85
107 -21 135 38 16 36 16 74 3z m211 0 c17 -6 36 -19 41 -29 6 -10 10 -62 10
-115 l0 -97 -32 3 c-18 1 -48 -1 -66 -5 -50 -12 -82 13 -82 64 0 44 20 64 83
81 28 7 37 15 35 27 -5 25 -45 27 -58 3 -11 -22 -44 -28 -55 -10 -12 18 16 68
44 78 35 13 43 13 80 0z m318 -21 c17 -16 23 -33 23 -65 l0 -43 -61 0 c-60 0
-60 0 -57 -27 3 -32 44 -46 54 -19 9 23 64 21 64 -2 0 -49 -66 -84 -121 -64
-50 20 -59 37 -59 121 0 68 3 80 23 98 12 11 29 23 37 26 25 10 73 -2 97 -25z
m1001 -4 c19 -21 22 -36 22 -99 0 -70 -1 -74 -32 -100 -27 -23 -39 -26 -71
-22 -59 8 -80 35 -85 107 -3 36 1 72 9 91 24 60 111 73 157 23z m240 8 c8 -10
12 -52 12 -119 l0 -103 -30 0 -30 0 0 90 c0 75 -3 92 -17 97 -32 12 -53 -32
-53 -113 l0 -74 -30 0 -30 0 0 120 0 120 29 0 c16 0 31 -5 33 -11 2 -6 14 -5
33 5 33 17 63 13 83 -12z m530 -5 c16 -15 22 -32 22 -64 l0 -43 -61 0 c-60 0
-60 0 -57 -27 3 -32 44 -46 54 -19 4 10 18 16 35 16 35 0 40 -29 9 -60 -27
-27 -63 -34 -105 -20 -46 15 -55 34 -55 123 0 64 3 76 23 94 12 11 29 23 37
26 25 9 73 -4 98 -26z m539 9 c6 -6 14 -57 17 -118 l5 -108 -34 0 -35 0 0 90
c0 72 -3 92 -15 96 -33 13 -45 -15 -45 -102 l0 -84 -35 0 -35 0 0 120 0 120
35 0 c19 0 35 -4 35 -9 0 -6 12 -3 28 4 28 15 58 12 79 -9z m218 -7 c17 -16
21 -35 23 -120 l4 -100 -44 1 c-23 1 -54 -1 -68 -5 -35 -9 -80 27 -80 64 0 39
19 60 70 75 33 10 46 19 48 35 5 29 -44 30 -53 0 -5 -15 -14 -19 -33 -17 -22
2 -26 7 -24 28 5 31 28 58 56 63 35 7 80 -4 101 -24z m400 16 c37 -15 55 -46
55 -96 0 -29 0 -29 -59 -29 -63 0 -76 -8 -66 -40 8 -24 55 -28 55 -5 0 11 11
15 36 15 32 0 35 -2 29 -22 -4 -13 -18 -34 -33 -47 -21 -19 -33 -22 -65 -18
-59 8 -80 35 -85 107 -5 75 11 118 52 136 39 17 40 17 81 -1z m198 1 c15 -8
27 -11 27 -5 0 5 14 9 31 9 l30 0 -3 -154 c-3 -134 -5 -157 -22 -175 -42 -46
-144 -35 -166 19 -7 16 -9 34 -5 39 10 18 44 12 57 -9 26 -41 78 -15 78 40 0
17 -3 19 -19 10 -36 -19 -78 -12 -100 16 -16 21 -21 41 -21 90 0 72 13 107 44
122 29 14 37 14 69 -2z m285 -22 c20 -22 22 -36 22 -120 l0 -95 -42 1 c-24 1
-55 -1 -70 -5 -21 -6 -32 -2 -52 18 -46 46 -30 99 37 118 52 15 67 26 60 45
-8 21 -41 17 -55 -6 -17 -26 -58 -27 -58 -1 0 34 12 53 44 67 40 18 85 9 114
-22z m-3048 -94 l0 -120 -35 0 -35 0 0 120 0 120 35 0 35 0 0 -120z m2280 63
c19 -90 25 -92 45 -14 18 69 20 71 51 71 l32 0 -24 -82 c-79 -281 -76 -273
-112 -276 -29 -3 -33 -1 -29 15 31 106 31 95 -2 207 -18 59 -35 114 -38 122
-4 10 4 14 29 14 34 0 35 -1 48 -57z"/>
<path d="M6613 9773 c-20 -4 -23 -11 -23 -51 l0 -47 85 0 85 0 0 46 c0 40 -3
48 -22 53 -25 6 -90 6 -125 -1z"/>
<path d="M1474 7818 c-8 -13 5 -15 251 -48 127 -17 448 -60 715 -96 267 -36
566 -76 665 -89 99 -13 434 -58 745 -100 311 -42 681 -91 823 -110 271 -37
317 -41 302 -26 -6 5 -64 16 -130 25 -108 15 -727 98 -1420 192 -143 19 -291
39 -330 44 -183 24 -427 57 -970 130 -324 44 -603 81 -618 83 -15 2 -30 0 -33
-5z"/>
<path d="M916 6762 c-3 -6 14 -20 39 -32 25 -12 47 -26 51 -31 3 -5 25 -9 49
-9 37 0 47 -4 65 -30 14 -19 30 -30 46 -30 24 0 33 15 13 22 -6 2 0 10 14 17
22 12 28 11 50 -5 14 -11 28 -27 30 -36 11 -41 24 -13 25 56 2 63 -1 75 -16
79 -35 10 -360 8 -366 -1z"/>
<path d="M3959 6286 c-39 -34 -48 -56 -55 -135 -4 -39 -11 -71 -15 -71 -5 0
-9 -8 -9 -19 0 -10 -12 -27 -27 -37 -61 -39 -75 -77 -48 -124 8 -14 14 -34 15
-46 0 -11 13 -38 30 -60 18 -24 30 -51 30 -71 0 -23 6 -33 20 -38 11 -3 20
-10 20 -15 0 -14 -63 1 -90 22 -37 29 -149 78 -179 78 -26 0 -40 -11 -74 -60
l-17 -24 -1 24 c-1 40 -7 14 -33 -140 -14 -80 -28 -160 -32 -177 -5 -28 -4
-33 12 -34 11 0 74 0 141 1 l122 1 -13 -38 c-12 -36 -16 -38 -57 -40 -105 -6
-128 -13 -141 -41 -9 -19 -22 -28 -44 -30 -26 -3 -32 -9 -42 -45 -22 -76 -62
-336 -62 -404 0 -22 0 -22 35 -6 33 16 37 16 88 -5 29 -12 59 -22 67 -22 19
-1 50 -24 50 -38 0 -6 7 -9 15 -6 9 4 15 0 15 -7 1 -8 9 -24 19 -36 22 -26 54
-30 531 -63 317 -21 427 -26 436 -18 9 10 34 275 34 366 0 73 -2 83 -17 80 -9
-2 -20 -14 -23 -27 -5 -21 -7 -20 -28 17 -12 22 -19 43 -15 45 10 6 52 1 76
-8 13 -6 17 -2 17 16 0 13 3 47 6 74 6 47 5 52 -19 62 -14 7 -42 15 -64 19
-38 7 -93 49 -93 71 0 7 -14 28 -31 48 -18 20 -28 39 -25 43 4 4 65 9 135 10
l128 4 13 99 c10 83 10 102 -1 116 -33 39 -112 52 -224 36 -35 -4 -49 -11 -53
-25 -4 -17 -10 -18 -46 -12 -55 9 -55 9 -108 0 -52 -9 -75 -2 -58 19 8 9 5 14
-10 18 -17 4 -20 13 -20 61 0 35 4 56 11 56 8 0 8 4 2 13 -6 6 -13 39 -17 72
-4 37 -18 79 -35 110 -23 41 -29 66 -33 140 -9 149 -62 226 -155 225 -15 0
-40 -11 -54 -24z m209 -690 c34 -27 62 -56 62 -63 0 -8 3 -13 8 -11 4 2 20 10
35 18 21 10 33 11 45 4 31 -20 62 -76 62 -113 -1 -32 -2 -34 -12 -16 -11 19
-11 19 -19 0 -6 -16 -8 -13 -8 13 -1 18 -5 31 -10 27 -5 -3 -18 6 -29 20 -26
33 -46 33 -40 0 6 -30 14 -36 -116 89 -56 54 -95 99 -91 106 4 7 14 5 29 -7
13 -10 51 -40 84 -67z"/>
<path d="M388 6115 c-23 -20 -28 -32 -28 -70 l0 -45 115 -2 c63 -1 134 -2 157
-3 24 0 43 5 46 13 2 6 -2 12 -10 12 -7 0 -18 10 -23 23 -6 12 -17 22 -25 23
-8 1 -30 2 -48 2 -18 1 -31 5 -29 10 2 4 -7 17 -20 29 -13 12 -23 19 -23 16 0
-4 -5 -2 -12 5 -20 20 -71 13 -100 -13z"/>
<path d="M5308 5968 c-20 -29 -23 -45 -23 -128 0 -52 -3 -98 -7 -101 -5 -3 -3
-20 3 -37 6 -18 8 -40 5 -49 -6 -15 13 -88 37 -141 6 -12 26 -31 44 -42 25
-15 34 -26 31 -42 -3 -20 -8 -21 -82 -19 -43 1 -76 -1 -74 -6 2 -4 10 -21 18
-36 22 -45 5 -62 -64 -62 -38 0 -56 -4 -56 -12 0 -7 -9 -13 -19 -13 -11 0 -32
-10 -47 -23 l-27 -24 69 -12 c38 -7 90 -16 116 -20 26 -4 50 -9 52 -12 3 -2 0
-20 -7 -40 l-11 -35 -55 3 c-60 4 -106 -12 -107 -37 0 -8 4 -28 9 -45 13 -48
15 -58 16 -87 1 -20 5 -26 16 -22 18 7 20 50 3 57 -10 3 -9 9 4 22 12 14 22
15 44 8 39 -13 40 -27 5 -64 -17 -18 -29 -34 -27 -36 4 -5 32 -11 54 -12 6 -1
12 -6 12 -11 0 -6 12 -29 27 -53 14 -23 25 -44 24 -45 -1 -2 6 -10 16 -17 23
-17 8 -33 -16 -18 -19 12 -61 7 -61 -7 0 -4 11 -11 24 -14 18 -4 26 -14 28
-34 2 -15 8 -26 13 -25 6 1 10 -9 10 -22 0 -21 -4 -23 -25 -18 -23 6 -24 5
-11 -11 8 -9 12 -19 9 -22 -7 -7 -40 45 -34 54 3 4 0 14 -5 22 -8 13 -10 13
-18 1 -7 -11 -12 -10 -22 8 -8 11 -19 21 -26 21 -7 0 -13 6 -13 14 0 11 -20
26 -34 26 -2 0 -4 -49 -5 -109 l-2 -109 32 -11 c18 -6 57 -11 88 -11 31 -1 90
-5 131 -10 41 -5 112 -12 158 -16 72 -6 82 -5 82 10 0 9 5 16 11 16 6 0 9 -9
6 -20 -5 -18 0 -20 54 -20 33 0 59 4 59 10 0 6 5 10 10 10 6 0 10 -6 10 -14 0
-10 16 -17 48 -21 26 -3 76 -10 112 -15 99 -15 341 -32 348 -26 3 3 -2 6 -11
6 -21 0 -12 26 12 33 12 3 17 16 19 43 1 21 5 51 8 66 4 20 0 29 -15 37 -26
15 -31 14 -31 -5 0 -10 6 -14 14 -11 8 3 17 -1 20 -9 6 -17 -8 -18 -35 -4 -20
11 -27 40 -9 40 6 0 10 5 10 10 0 6 -8 10 -17 10 -9 0 -14 3 -10 6 3 4 20 1
38 -5 25 -9 29 -8 21 2 -6 7 -11 28 -11 47 1 64 -2 125 -7 142 -6 22 -33 12
-29 -10 1 -9 0 -11 -2 -4 -3 6 -9 12 -14 12 -6 0 -7 6 -2 13 4 6 8 15 8 19 0
3 4 10 9 15 5 5 6 3 2 -4 -4 -7 -3 -13 3 -13 5 0 11 12 13 28 2 22 -2 29 -27
38 -30 11 -76 79 -68 100 2 6 -7 22 -21 35 -34 32 -33 49 3 49 l29 0 -27 50
c-35 67 -63 79 -63 25 0 -49 -32 -22 -43 38 -4 22 -13 37 -21 37 -8 0 -20 11
-26 25 -6 14 -14 25 -17 25 -12 0 -28 -16 -34 -33 -9 -23 -31 -17 -35 9 -1 11
-25 35 -52 53 -28 19 -50 37 -51 40 0 3 -2 33 -4 66 -9 134 -17 189 -31 216
-18 36 -84 70 -129 67 -19 -1 -36 0 -38 2 -2 3 -21 40 -41 83 -20 43 -48 84
-62 94 -14 9 -32 29 -40 44 -18 35 -73 67 -84 49 -5 -9 -9 -9 -14 -1 -12 18
-23 13 -48 -21z m164 -85 c22 -20 23 -33 3 -33 -8 0 -15 -5 -15 -10 0 -15 31
-25 39 -12 9 15 28 1 40 -30 11 -28 4 -98 -10 -98 -4 0 -2 -12 6 -27 16 -34
28 -180 15 -188 -5 -3 -18 -1 -29 5 -18 9 -20 18 -15 93 l5 82 -45 27 c-55 32
-62 54 -10 27 21 -10 41 -16 45 -13 18 11 8 46 -21 71 -16 13 -30 33 -30 43 0
10 -4 22 -10 25 -14 9 -13 55 2 55 6 0 20 -7 30 -17z m216 -599 c12 -8 22 -19
22 -24 0 -18 -68 -30 -171 -30 -60 0 -109 -4 -109 -9 0 -5 -14 -18 -31 -29
-29 -18 -33 -18 -50 -4 -23 20 -18 27 34 53 27 14 59 21 92 21 27 -1 79 7 115
18 81 23 72 23 98 4z"/>
<path d="M2667 5916 c-38 -20 -60 -47 -104 -128 -25 -45 -46 -71 -65 -79 -15
-6 -28 -15 -28 -20 0 -5 -8 -9 -18 -9 -10 0 -39 -7 -64 -16 -44 -15 -46 -17
-60 -76 -10 -41 -13 -72 -7 -91 8 -29 3 -126 -7 -136 -3 -3 -8 0 -12 6 -4 6
-29 21 -56 34 -39 18 -52 20 -67 11 -26 -16 -37 -15 -66 8 -30 24 -73 27 -73
5 0 -11 -8 -13 -32 -8 -18 3 -38 10 -44 15 -16 12 -27 -32 -12 -49 9 -12 4
-17 -14 -14 -14 2 -61 -204 -53 -230 6 -18 12 -20 57 -23 10 -1 25 -11 33 -23
9 -13 25 -23 36 -23 11 0 18 -4 15 -9 -3 -4 6 -6 19 -3 18 3 25 0 25 -12 0
-11 -9 -16 -30 -16 -16 0 -30 5 -30 10 0 14 -33 13 -48 -2 -9 -9 -12 -6 -12
16 0 17 -4 25 -11 21 -6 -4 -20 3 -31 15 -24 26 -32 20 -47 -42 -15 -64 -14
-71 9 -65 13 3 26 -3 38 -21 l19 -25 92 12 c51 7 95 10 99 7 3 -4 1 -21 -5
-39 -7 -17 -15 -49 -19 -70 -3 -20 -9 -39 -13 -41 -4 -3 -35 -7 -69 -10 -54
-5 -97 -19 -112 -37 -3 -3 -18 -9 -34 -13 -15 -4 -26 -9 -24 -11 7 -7 333 -33
563 -45 268 -13 458 -24 601 -35 64 -5 82 -3 81 7 -1 42 4 61 14 51 5 -5 11
-20 12 -32 2 -35 67 -42 67 -7 0 22 -67 150 -89 170 -33 30 -72 102 -64 122 9
23 -22 44 -64 44 -27 0 -37 7 -59 40 -21 32 -36 43 -78 54 -67 19 -164 36
-204 36 -25 0 -35 6 -44 25 -6 14 -9 27 -7 30 3 2 32 0 65 -4 32 -5 99 -12
147 -16 87 -7 90 -8 154 -57 60 -45 72 -50 132 -54 36 -3 91 -2 121 3 l55 8
17 100 c23 132 22 174 -2 204 -15 17 -26 22 -45 17 -20 -5 -25 -3 -25 13 0 11
-6 22 -12 24 -7 3 9 6 35 6 28 1 46 -3 42 -9 -6 -9 15 -50 26 -50 3 0 9 24 12
53 4 29 9 67 13 84 8 42 -17 50 -59 20 -18 -13 -48 -31 -68 -40 -20 -9 -40
-24 -43 -33 -3 -9 -11 -12 -18 -8 -8 5 -9 2 -5 -10 6 -16 2 -18 -28 -14 -35 4
-36 3 -33 -28 3 -46 -8 -53 -37 -22 -16 18 -31 25 -45 21 -30 -8 -32 -18 -9
-47 11 -14 18 -32 16 -39 -4 -9 -6 -9 -6 1 -1 6 -7 12 -15 12 -39 0 -62 94
-32 130 16 19 12 72 -9 130 -9 25 -27 90 -41 144 -39 152 -58 180 -134 190
-31 5 -54 2 -73 -8z m100 -286 c13 0 23 5 23 12 0 9 3 9 11 1 19 -19 6 -48
-26 -53 -28 -5 -30 -8 -30 -50 0 -25 4 -64 9 -87 7 -42 7 -43 -18 -43 -34 0
-43 21 -47 110 -2 60 1 81 15 103 13 20 22 25 29 18 6 -6 21 -11 34 -11z"/>
</g>
</svg>
