<?xml version="1.0" standalone="no"?>
<!DOCTYPE svg PUBLIC "-//W3C//DTD SVG 20010904//EN"
 "http://www.w3.org/TR/2001/REC-SVG-20010904/DTD/svg10.dtd">
<svg version="1.0" xmlns="http://www.w3.org/2000/svg"
 width="720.000000pt" height="1280.000000pt" viewBox="0 0 720.000000 1280.000000"
 preserveAspectRatio="xMidYMid meet">
<metadata>
Created by potrace 1.16, written by Peter Selinger 2001-2019
</metadata>
<g transform="translate(0.000000,1280.000000) scale(0.100000,-0.100000)"
fill="#000000" stroke="none">
<path d="M0 6400 l0 -6400 3600 0 3600 0 0 6400 0 6400 -3600 0 -3600 0 0
-6400z m6795 3680 c80 -37 139 -117 150 -206 9 -63 -8 -125 -50 -190 -28 -44
-31 -52 -17 -60 13 -9 13 -13 -2 -37 -23 -35 -90 -46 -137 -23 -34 17 -70 15
-141 -6 -50 -15 -104 -3 -124 28 -13 20 -14 27 -4 39 11 13 9 19 -8 38 -85 90
-82 268 6 360 77 82 219 106 327 57z m-652 4 c106 -36 177 -154 163 -271 -12
-98 -61 -168 -148 -208 -128 -60 -303 -10 -361 101 -47 91 -44 191 7 276 25
43 43 59 94 85 54 28 75 33 131 33 37 0 88 -7 114 -16z m-5802 -244 c21 -91
39 -168 39 -172 0 -5 -15 -8 -33 -8 -28 0 -34 4 -42 32 -9 29 -14 32 -50 31
-36 0 -40 -3 -47 -31 -8 -28 -13 -32 -42 -32 l-34 0 14 58 c7 31 26 110 41
175 l27 118 44 -3 45 -3 38 -165z m369 78 l1 -93 30 38 c23 27 39 37 60 37 16
0 29 -3 29 -6 0 -4 -16 -28 -35 -53 -30 -41 -33 -50 -21 -67 7 -10 25 -40 40
-66 l27 -48 -35 0 c-30 0 -38 5 -57 40 -26 45 -39 43 -39 -6 0 -31 -2 -34 -30
-34 l-30 0 0 175 0 175 30 0 30 0 0 -92z m1740 -83 l0 -176 -42 1 c-24 1 -55
-1 -69 -5 -19 -5 -33 -1 -55 18 -28 24 -29 29 -28 107 1 68 4 85 21 102 22 21
54 27 91 14 21 -7 22 -5 22 53 l0 61 30 0 30 0 0 -175z m452 83 l3 -92 25 37
c20 30 31 37 58 37 30 0 42 -12 24 -24 -5 -3 -21 -23 -36 -44 l-27 -40 40 -66
41 -66 -34 0 c-28 0 -38 7 -62 43 l-29 42 -3 -42 c-3 -42 -4 -43 -38 -43 l-34
0 0 175 0 175 35 0 34 0 3 -92z m728 27 l0 -66 30 16 c33 17 60 13 85 -11 11
-12 15 -40 15 -120 l0 -104 -30 0 -30 0 0 90 c0 75 -3 92 -16 97 -37 14 -49
-10 -52 -101 l-3 -86 -29 0 -30 0 0 175 0 175 30 0 30 0 0 -65z m530 4 c0 -58
1 -60 23 -53 76 26 107 -8 107 -118 0 -71 -2 -81 -26 -105 -20 -20 -31 -24
-52 -18 -15 4 -46 6 -69 5 l-43 -1 0 176 0 175 30 0 30 0 0 -61z m-1480 -9 c0
-38 2 -40 30 -40 25 0 30 -4 30 -25 0 -21 -5 -25 -30 -25 l-31 0 3 -67 c3 -66
4 -68 31 -71 21 -3 27 -8 23 -19 -3 -8 -6 -19 -6 -24 0 -16 -73 -10 -92 8 -14
13 -18 31 -18 90 0 66 -2 75 -20 80 -13 3 -20 14 -20 29 0 17 6 24 20 24 16 0
20 7 20 33 0 40 6 47 37 47 20 0 23 -5 23 -40z m-2096 -61 c24 -23 34 -121 17
-172 -15 -44 -59 -66 -97 -48 -14 6 -27 11 -29 11 -3 0 -5 -30 -5 -66 l0 -65
-27 3 -28 3 -3 179 -2 179 37 -5 c21 -3 47 -2 58 3 26 10 55 2 79 -22z m405
20 c44 -16 51 -35 51 -143 l0 -96 -47 -1 c-27 0 -60 -1 -75 -1 -40 -1 -58 19
-58 63 0 43 20 63 83 80 28 7 37 15 35 27 -5 26 -48 28 -55 3 -4 -14 -13 -21
-29 -21 -65 0 -15 96 52 99 6 1 25 -4 43 -10z m290 0 c38 -14 51 -35 51 -88
l0 -41 -61 0 c-60 0 -60 0 -57 -27 3 -32 44 -46 54 -19 4 10 18 16 35 16 35 0
39 -25 10 -61 -27 -34 -99 -34 -135 0 -23 22 -26 32 -26 96 0 79 20 120 63
128 12 2 25 5 28 6 3 0 20 -4 38 -10z m198 0 c32 -12 43 -26 43 -56 0 -31 -45
-33 -53 -3 -7 26 -47 27 -47 1 0 -11 12 -23 30 -31 78 -32 101 -82 61 -131
-15 -19 -29 -24 -66 -24 -37 0 -51 5 -66 24 -29 36 -25 61 11 61 24 0 30 -4
30 -21 0 -15 5 -20 22 -17 40 5 31 32 -19 58 -91 48 -80 135 19 149 4 1 19 -4
35 -10z m197 -3 c31 -13 53 -55 38 -71 -14 -14 -50 -3 -55 16 -4 13 -12 20
-24 17 -29 -5 -21 -32 15 -50 73 -36 92 -81 53 -129 -15 -19 -29 -24 -66 -24
-37 0 -51 5 -66 24 -29 36 -25 61 10 61 21 0 30 -6 34 -21 7 -25 40 -22 45 3
2 12 -11 24 -43 39 -74 35 -86 106 -22 134 40 18 41 18 81 1z m205 3 c17 -6
36 -19 41 -29 6 -10 10 -62 10 -115 l0 -97 -32 3 c-18 1 -48 -1 -66 -5 -50
-12 -82 13 -82 64 0 44 20 64 83 81 28 7 37 15 35 27 -5 25 -45 27 -58 3 -13
-24 -48 -28 -56 -6 -8 20 21 64 49 75 30 12 39 12 76 -1z m318 -21 c17 -16 23
-33 23 -65 l0 -43 -61 0 c-60 0 -60 0 -57 -27 3 -32 44 -46 54 -19 8 20 64 22
64 2 0 -69 -102 -98 -158 -45 -19 17 -22 31 -22 98 0 68 3 80 23 98 12 11 29
23 37 26 25 10 73 -2 97 -25z m1001 -4 c18 -21 22 -36 22 -98 0 -65 -3 -75
-26 -97 -35 -33 -104 -34 -136 -2 -27 28 -37 127 -17 174 24 60 111 73 157 23z
m240 8 c8 -10 12 -52 12 -119 l0 -103 -30 0 -30 0 0 90 c0 75 -3 92 -17 97
-32 12 -53 -32 -53 -113 l0 -74 -30 0 -30 0 0 120 0 120 29 0 c16 0 31 -5 33
-11 2 -6 14 -5 33 5 33 17 63 13 83 -12z m529 -4 c17 -16 23 -33 23 -65 l0
-43 -61 0 c-60 0 -60 0 -57 -27 3 -32 44 -46 54 -19 4 10 18 16 35 16 22 0 29
-5 29 -20 0 -42 -64 -79 -115 -66 -52 13 -65 39 -65 124 0 69 3 81 23 99 12
11 29 23 37 26 25 10 73 -2 97 -25z m540 8 c6 -6 13 -57 16 -118 l5 -108 -34
0 -34 0 0 90 c0 72 -3 92 -15 96 -33 13 -45 -15 -45 -102 l0 -84 -35 0 -35 0
0 120 0 120 35 0 c19 0 35 -4 35 -9 0 -6 12 -3 28 4 28 15 58 12 79 -9z m218
-7 c17 -16 21 -35 23 -120 l4 -100 -44 1 c-23 1 -54 -1 -68 -5 -35 -9 -80 27
-80 64 0 39 19 60 70 75 33 10 46 19 48 35 4 28 -33 29 -50 1 -12 -19 -48 -27
-60 -14 -15 14 11 60 43 77 40 20 84 15 114 -14z m400 16 c37 -15 55 -46 55
-96 0 -29 0 -29 -59 -29 -65 0 -73 -5 -64 -38 6 -26 53 -32 53 -7 0 11 11 15
36 15 32 0 35 -2 29 -22 -4 -13 -18 -34 -33 -47 -21 -19 -33 -22 -65 -18 -59
8 -80 35 -85 107 -5 75 11 118 52 136 39 17 40 17 81 -1z m198 1 c15 -8 27
-11 27 -5 0 5 14 9 31 9 l30 0 -3 -154 c-3 -134 -5 -157 -22 -175 -42 -46
-144 -35 -166 19 -7 16 -9 34 -5 39 10 18 44 12 57 -9 27 -42 78 -15 78 41 0
18 -3 20 -12 11 -7 -7 -29 -12 -49 -12 -56 0 -79 34 -79 116 0 72 13 107 44
122 29 14 37 14 69 -2z m285 -22 c19 -22 22 -36 22 -120 l0 -95 -42 1 c-24 1
-55 -1 -70 -5 -21 -6 -32 -2 -52 18 -48 48 -29 99 44 121 33 10 46 19 48 35 4
28 -33 29 -50 1 -12 -19 -48 -27 -60 -14 -15 14 11 60 43 77 43 22 86 16 117
-19z m-3048 -94 l0 -120 -35 0 -35 0 0 113 c0 63 3 117 7 120 3 4 19 7 35 7
l28 0 0 -120z m2271 103 c0 -10 8 -43 18 -73 l17 -55 19 73 c18 70 20 72 51
72 l32 0 -24 -82 c-79 -281 -76 -273 -113 -276 -28 -3 -33 -1 -27 14 29 76 29
101 -4 209 -17 59 -34 113 -37 121 -4 10 4 14 31 14 27 0 36 -4 37 -17z m-424
-2190 c47 -21 73 -42 73 -59 0 -7 -23 -61 -52 -119 -50 -103 -51 -107 -33
-118 11 -7 61 -32 110 -57 106 -53 117 -74 64 -128 -17 -17 -35 -32 -39 -32
-16 0 -32 31 -28 55 5 24 -2 29 -103 78 -76 36 -109 57 -109 69 0 10 23 65 51
123 28 57 48 109 45 113 -3 5 -19 15 -36 22 -31 13 -39 37 -18 58 16 16 30 15
75 -5z m-1639 -21 c7 -5 30 -60 53 -122 22 -63 42 -116 44 -118 2 -2 49 12
105 32 56 20 112 36 124 36 28 0 49 -42 44 -86 -2 -23 -9 -30 -30 -32 -20 -2
-28 1 -28 12 0 24 -34 20 -130 -14 -93 -33 -122 -37 -137 -17 -6 6 -27 62 -48
124 l-38 112 -36 -15 c-32 -14 -36 -13 -55 6 -20 20 -20 20 -1 39 11 11 40 26
65 35 54 18 52 18 68 8z m-128 -926 c0 -7 -14 -16 -32 -20 -18 -3 -47 -23 -70
-46 l-38 -41 0 -388 c0 -381 0 -388 -21 -407 -44 -40 -59 -96 -66 -246 -4 -92
0 -119 32 -200 7 -17 -4 -18 -134 -18 -158 0 -176 9 -91 47 32 14 57 33 70 55
19 32 20 48 20 593 -1 420 -4 565 -13 582 -17 31 -61 62 -96 69 -17 4 -31 13
-31 20 0 12 42 14 235 14 193 0 235 -2 235 -14z m2988 -214 c21 -44 26 -106
11 -119 -8 -5 -65 -27 -128 -48 -62 -21 -109 -40 -104 -44 14 -9 73 -183 73
-214 0 -20 -7 -30 -26 -37 -31 -12 -65 -13 -83 -1 -17 11 -7 61 13 61 11 0 12
8 6 33 -11 42 -39 127 -52 153 -24 51 -7 66 139 115 l92 31 -6 49 c-6 49 -6
49 23 49 22 0 32 -7 42 -28z m-3500 -62 c18 -11 35 -27 38 -35 9 -23 -16 -47
-42 -41 -20 5 -28 -5 -74 -94 -29 -58 -57 -100 -66 -100 -8 0 -55 20 -104 45
-49 25 -94 45 -100 45 -6 0 -16 -11 -22 -25 -8 -18 -19 -25 -40 -25 -16 0 -31
6 -34 14 -7 18 42 115 63 123 9 4 56 -14 109 -40 52 -26 98 -47 102 -47 5 0
24 33 42 73 42 87 67 127 83 127 7 0 27 -9 45 -20z m1422 -151 c80 -40 130
-125 130 -221 0 -63 -5 -66 -50 -43 -16 8 -52 20 -80 26 -42 9 -51 15 -56 37
-19 89 -45 112 -124 112 -66 0 -114 -21 -195 -84 -59 -47 -100 -65 -113 -51
-11 11 163 171 226 207 85 49 187 55 262 17z m1191 3 c14 -6 40 -27 58 -48 64
-72 65 -78 71 -425 5 -299 6 -318 25 -339 18 -20 27 -22 77 -17 32 3 60 1 63
-3 9 -15 -76 -79 -128 -96 -74 -25 -133 -15 -173 29 -18 19 -37 52 -43 74 -7
23 -11 158 -11 343 0 293 -1 306 -21 340 -28 47 -35 50 -99 50 -85 0 -168 -46
-302 -169 l-38 -35 0 -231 c0 -127 -3 -234 -6 -238 -7 -7 -78 14 -133 39 l-40
19 -1 250 c0 222 -3 255 -19 291 -20 44 -73 84 -110 84 -16 0 -21 5 -19 18 2
13 33 24 143 49 205 46 185 56 185 -92 0 -69 3 -125 6 -125 3 0 52 44 108 98
109 103 173 143 246 152 48 6 119 -2 161 -18z m-1708 -49 c9 -90 8 -165 -1
-179 -4 -5 -36 -16 -72 -22 -36 -7 -75 -15 -87 -18 -21 -6 -23 -3 -23 30 0 20
-6 52 -14 70 -16 39 -73 86 -104 86 -15 0 -22 6 -22 18 0 16 22 23 143 49 78
17 149 32 158 32 13 1 17 -13 22 -66z m20 -514 c16 -25 -9 -44 -94 -75 -114
-41 -116 -41 -117 -6 -1 38 9 46 94 77 76 27 102 28 117 4z m505 -23 c78 -70
81 -192 5 -272 -18 -19 -37 -32 -43 -29 -5 3 -10 1 -10 -4 0 -6 -4 -11 -9 -11
-14 0 6 85 34 139 34 69 33 104 -5 131 -22 15 -30 30 -30 50 0 24 3 28 18 23
9 -3 28 -15 40 -27z m-492 -116 c1 -14 -2 -31 -7 -40 -4 -8 -24 -51 -44 -96
-32 -71 -95 -154 -95 -125 0 6 -9 11 -20 11 -15 0 -20 7 -20 29 0 17 5 33 10
36 6 4 20 25 33 47 61 112 109 171 132 164 6 -1 11 -13 11 -26z m-1076 -490
c0 -20 -13 -40 -26 -40 -19 0 -19 -1 18 -113 24 -74 29 -103 21 -115 -11 -18
-164 -82 -196 -82 -16 0 -17 -5 -12 -44 6 -37 4 -46 -12 -54 -27 -15 -41 -3
-62 54 -23 62 -15 89 31 99 18 4 38 10 43 14 6 4 36 16 68 26 36 12 57 25 57
35 0 8 -14 59 -32 113 -35 109 -34 116 29 127 38 7 73 -3 73 -20z m3498 -240
c57 -28 105 -50 108 -50 2 0 4 6 4 14 0 8 8 24 18 36 13 17 24 21 40 16 29 -9
29 -42 0 -101 -28 -58 -42 -58 -168 4 l-100 50 -12 -22 c-7 -12 -31 -61 -55
-109 -45 -93 -53 -99 -103 -73 -60 31 -60 85 -1 85 24 0 32 10 71 88 51 103
57 112 79 112 9 0 62 -23 119 -50z m-2746 -445 c54 -132 120 -291 145 -353 25
-62 56 -129 69 -148 14 -19 26 -50 28 -67 6 -44 129 -338 138 -329 6 6 64 146
397 952 l76 185 168 3 c101 1 167 -1 167 -7 0 -5 -24 -21 -54 -34 -91 -42 -86
-5 -86 -648 0 -545 1 -563 20 -594 13 -21 38 -40 70 -54 28 -12 50 -26 50 -31
0 -11 -462 -14 -473 -3 -11 10 14 33 35 33 30 0 79 39 94 76 11 27 14 140 14
601 0 313 -4 563 -9 557 -4 -5 -24 -49 -44 -99 -20 -49 -50 -124 -67 -165 -18
-41 -51 -122 -75 -180 -150 -367 -264 -642 -310 -750 -29 -67 -35 -75 -60 -75
-26 0 -30 8 -85 140 -52 124 -62 142 -94 161 -50 29 -50 29 -36 78 12 43 10
49 -30 147 -48 117 -60 139 -77 139 -16 0 -22 22 -12 41 6 12 -9 59 -47 150
-30 74 -67 164 -82 202 -14 37 -30 67 -34 67 -12 0 -10 -946 2 -990 12 -45 64
-95 109 -105 17 -4 31 -13 31 -21 0 -11 -28 -14 -160 -14 -132 0 -160 3 -160
14 0 8 13 17 30 21 16 3 41 15 55 27 56 44 55 30 55 630 0 534 -1 554 -20 586
-21 35 -74 72 -102 72 -10 0 -18 7 -18 15 0 13 20 15 141 13 l142 -3 99 -240z
m1853 -203 c44 -16 114 -50 154 -76 72 -46 73 -48 55 -65 -10 -10 -97 -82
-191 -160 -95 -78 -173 -148 -173 -154 0 -6 7 -30 16 -54 16 -42 17 -42 44
-28 25 13 31 13 50 -3 29 -23 18 -47 -31 -66 -74 -30 -113 -17 -123 41 -12 72
-18 72 -95 9 -39 -32 -71 -61 -71 -65 0 -15 62 -110 99 -153 45 -51 104 -89
166 -108 88 -26 179 31 211 135 10 31 24 55 31 55 12 0 70 -26 82 -36 7 -7
-33 -59 -73 -97 -166 -152 -434 -140 -596 27 -92 95 -131 172 -151 296 -25
165 50 359 176 456 106 80 270 98 420 46z"/>
<path d="M6613 9773 c-20 -4 -23 -11 -23 -51 l0 -47 85 0 85 0 0 46 c0 40 -3
48 -22 53 -25 6 -90 6 -125 -1z"/>
<path d="M4295 4219 c-85 -32 -126 -110 -133 -253 l-5 -98 32 7 c18 4 59 18
91 31 91 37 103 34 125 -30 6 -16 15 -31 21 -33 11 -4 109 71 151 114 60 63
26 156 -81 227 -61 40 -146 55 -201 35z"/>
<path d="M4261 3825 c-35 -11 -69 -27 -74 -36 -6 -9 -3 -34 8 -71 l16 -57 32
20 c18 10 52 37 76 58 43 39 44 41 31 71 -7 17 -15 32 -19 33 -3 2 -35 -6 -70
-18z"/>
</g>
</svg>
