<?xml version="1.0" standalone="no"?>
<!DOCTYPE svg PUBLIC "-//W3C//DTD SVG 20010904//EN"
 "http://www.w3.org/TR/2001/REC-SVG-20010904/DTD/svg10.dtd">
<svg version="1.0" xmlns="http://www.w3.org/2000/svg"
 width="720.000000pt" height="1280.000000pt" viewBox="0 0 720.000000 1280.000000"
 preserveAspectRatio="xMidYMid meet">
<metadata>
Created by potrace 1.16, written by Peter Selinger 2001-2019
</metadata>
<g transform="translate(0.000000,1280.000000) scale(0.100000,-0.100000)"
fill="#000000" stroke="none">
<path d="M0 6400 l0 -6400 3600 0 3600 0 0 1028 0 1027 -448 -2 c-246 -1 -461
1 -479 4 -44 7 -46 32 -8 105 17 35 35 80 39 101 4 20 10 37 14 37 4 0 18 34
31 75 18 58 21 87 16 127 -13 113 -17 230 -6 223 6 -3 11 1 11 9 0 45 83 128
111 111 6 -4 8 2 5 17 -3 12 -8 52 -11 88 -11 120 -89 415 -106 404 -4 -2 -5
5 -2 16 4 13 1 20 -7 18 -13 -3 -50 58 -50 84 0 9 -5 20 -10 23 -6 3 -7 17 -4
30 4 16 0 30 -10 40 -9 9 -16 23 -16 30 0 8 -8 20 -19 27 -21 15 -38 58 -22
58 6 0 11 7 11 15 0 8 -7 15 -15 15 -11 0 -13 9 -9 39 4 27 0 50 -12 73 -20
38 -25 66 -12 74 10 6 2 57 -13 84 -4 8 -22 58 -40 110 -17 52 -37 109 -44
125 -7 17 -23 57 -34 90 -35 101 -282 777 -286 783 -2 2 -172 -61 -390 -144
-100 -38 -161 -65 -137 -60 12 2 20 0 17 -5 -3 -5 -2 -17 3 -26 5 -10 12 -31
16 -48 5 -23 4 -27 -5 -15 -8 12 -10 10 -5 -10 3 -14 9 -42 12 -63 5 -27 13
-41 29 -47 17 -7 24 -20 30 -57 5 -26 10 -52 11 -58 20 -67 22 -89 8 -103 -10
-9 -13 -24 -9 -43 4 -15 7 -50 9 -77 1 -36 9 -59 29 -85 15 -20 27 -41 27 -48
0 -10 3 -10 12 -1 19 19 25 14 32 -24 4 -19 14 -38 22 -41 7 -3 14 -16 14 -28
0 -13 4 -26 9 -29 10 -6 21 26 21 62 0 37 18 25 25 -19 5 -30 3 -45 -9 -58 -9
-10 -16 -25 -16 -34 0 -10 -6 -26 -12 -37 -11 -16 -9 -22 7 -34 24 -18 35 -20
35 -6 0 6 -7 10 -15 10 -8 0 -15 7 -15 15 0 26 19 16 46 -25 28 -42 42 -54 24
-21 -14 28 -12 61 4 61 9 0 17 -15 21 -39 4 -22 13 -42 21 -45 8 -3 14 -13 14
-22 0 -16 -1 -16 -18 -1 -10 10 -24 17 -30 17 -16 0 -15 -20 2 -34 7 -6 26
-36 42 -66 16 -30 36 -60 44 -67 9 -6 11 -15 6 -20 -5 -4 -11 -2 -13 5 -6 17
-33 15 -33 -3 0 -8 5 -15 11 -15 7 0 9 -12 5 -35 -6 -29 -3 -40 19 -62 19 -20
25 -35 21 -54 -3 -15 1 -35 9 -45 8 -11 15 -28 15 -38 0 -11 11 -34 25 -52 14
-18 25 -36 25 -41 0 -5 9 -16 20 -26 11 -9 20 -21 20 -27 0 -16 -30 -12 -36 5
-7 18 -24 20 -24 2 0 -7 9 -18 20 -25 11 -7 20 -19 20 -27 0 -20 -29 -19 -36
0 -8 19 -24 19 -24 0 0 -8 7 -15 15 -15 9 0 15 -9 15 -24 0 -14 5 -28 10 -31
6 -3 10 -16 9 -28 -1 -20 -2 -19 -12 6 -12 29 -27 36 -27 12 0 -8 5 -15 10
-15 6 0 10 -10 10 -22 -1 -23 -1 -23 -17 -3 l-16 20 8 -20 c15 -37 18 -75 6
-75 -6 0 -11 -6 -11 -14 0 -8 -8 -24 -19 -37 -16 -19 -16 -25 -5 -37 18 -18
18 -103 0 -127 -13 -19 -15 -17 -21 18 -11 58 -27 57 -19 -2 4 -35 3 -51 -5
-51 -6 0 -11 4 -11 10 0 5 -7 7 -15 4 -8 -4 -15 -10 -15 -16 0 -5 4 -7 8 -4 4
2 14 1 22 -5 11 -6 12 -9 2 -9 -8 0 -10 -5 -6 -12 5 -8 2 -9 -10 -5 -10 4 -23
-1 -33 -13 -10 -11 -23 -20 -30 -20 -7 0 -13 -4 -13 -10 0 -12 -148 -129 -179
-141 -13 -5 -40 -24 -61 -42 -21 -17 -56 -41 -77 -52 -21 -11 -41 -24 -44 -28
-17 -23 -133 373 -204 698 -15 66 -34 139 -42 163 -9 23 -13 45 -10 48 3 4 -2
23 -12 43 -10 20 -16 41 -14 47 2 6 -1 31 -7 55 -6 24 -13 55 -16 69 -5 25
-36 131 -79 270 -52 166 -95 313 -95 325 0 6 6 25 14 41 8 16 20 42 25 57 9
23 16 28 39 25 20 -2 26 1 22 12 -2 8 -5 42 -6 75 -3 84 -3 85 -14 85 -5 0
-10 -13 -10 -30 0 -43 -17 -37 -30 10 -6 24 -17 40 -25 40 -10 0 -15 10 -15
30 0 18 -11 42 -29 62 -25 28 -27 36 -16 51 7 9 17 17 23 17 6 0 14 5 17 10 4
6 -11 4 -32 -4 -21 -8 -67 -23 -103 -34 -109 -33 -553 -195 -633 -231 -23 -10
-103 -40 -177 -66 -254 -90 -315 -117 -318 -143 -2 -13 4 -32 14 -43 17 -19
21 -89 8 -134 -10 -31 -45 -76 -54 -70 -16 10 -37 -47 -51 -135 l-13 -84 -13
44 c-7 25 -10 60 -7 79 4 20 3 32 -2 28 -5 -3 -14 10 -20 29 -9 29 -7 43 18
101 15 37 28 76 28 86 0 9 6 33 14 52 8 19 12 36 8 39 -11 6 -163 -60 -173
-75 -5 -9 -1 -20 12 -33 16 -14 20 -27 16 -55 -23 -162 -26 -195 -17 -212 11
-20 4 -120 -12 -161 -6 -16 -17 -28 -25 -28 -10 0 -14 -11 -13 -37 3 -55 2
-60 -17 -78 -15 -16 -18 -15 -34 7 -15 20 -26 23 -81 23 l-63 0 -6 49 c-3 28
-11 52 -17 54 -7 2 -12 9 -12 17 0 7 -7 18 -15 25 -34 28 -132 191 -140 232
-7 34 -17 38 -67 27 -47 -10 -63 -31 -33 -43 8 -3 15 -11 15 -18 0 -7 12 -35
25 -63 14 -27 25 -58 25 -68 0 -24 -28 -90 -42 -98 -6 -4 -41 6 -79 22 -81 34
-128 37 -154 9 -10 -11 -29 -20 -41 -20 -27 0 -48 -34 -58 -96 -6 -36 -4 -43
18 -57 14 -10 35 -17 47 -17 11 0 30 -12 42 -26 l21 -27 16 21 c17 21 89 56
97 48 9 -9 -57 -95 -78 -101 -15 -5 -29 1 -53 23 -46 45 -103 62 -168 50 -29
-5 -54 -11 -56 -13 -2 -2 1 -21 7 -42 7 -24 28 -56 53 -81 l41 -41 -25 -10
c-35 -13 -96 2 -155 39 -93 58 -112 65 -126 50 -6 -7 -7 -10 -2 -7 6 3 44 -19
84 -49 41 -30 77 -54 82 -54 10 0 3 -38 -12 -67 -14 -26 -51 -42 -57 -24 -5
16 -100 14 -148 -5 -25 -9 -46 -26 -53 -40 -14 -31 -14 -44 -1 -44 6 0 10 6 8
14 -2 8 1 15 6 14 5 0 12 6 17 13 12 20 138 29 155 11 27 -26 98 13 99 53 0
22 9 30 58 49 31 13 58 21 58 17 1 -3 2 -13 3 -21 2 -29 126 -19 126 11 0 11
37 12 44 1 10 -16 -37 -52 -68 -52 -27 0 -27 -32 0 -71 14 -21 23 -42 20 -48
-4 -5 -7 -26 -8 -46 -1 -19 -5 -35 -10 -35 -4 0 -8 -9 -8 -19 0 -27 -26 -33
-61 -16 -16 9 -52 20 -80 25 -47 9 -57 8 -105 -17 -29 -15 -57 -23 -61 -19
-14 14 33 42 93 56 33 8 73 21 89 30 29 16 30 20 30 84 0 59 -3 70 -23 86 -19
16 -27 17 -48 8 -21 -10 -24 -16 -19 -37 4 -15 8 -41 10 -59 1 -18 5 -35 9
-39 3 -3 6 -10 6 -14 0 -8 -54 -20 -92 -19 -19 0 -28 -5 -28 -15 0 -8 -4 -15
-10 -15 -5 0 -21 -12 -36 -27 l-26 -26 7 24 c4 13 12 30 17 37 7 8 6 12 -4 12
-18 0 -45 -54 -54 -105 -3 -22 -12 -62 -20 -89 -16 -56 -19 -207 -4 -222 6 -6
2 -25 -10 -53 -11 -24 -20 -49 -20 -56 0 -7 -8 -19 -17 -26 -11 -10 -14 -10
-9 -2 4 8 -2 17 -18 25 -24 10 -26 16 -26 78 0 41 -8 90 -20 125 -11 32 -20
60 -20 62 0 1 11 3 23 3 28 0 57 29 57 56 0 25 -56 52 -73 35 -20 -20 -77 -13
-97 11 -25 32 -123 33 -162 2 -15 -12 -25 -23 -23 -26 3 -2 -7 -3 -23 -1 -41
6 -80 -36 -73 -79 1 -7 -62 -28 -83 -28 -5 0 -29 10 -53 21 -24 12 -46 19 -49
16 -6 -6 28 -81 38 -85 5 -2 8 -10 8 -18 0 -8 6 -14 14 -14 8 0 16 -7 20 -15
3 -8 1 -15 -4 -15 -6 0 -10 -9 -10 -20 0 -11 4 -20 9 -20 26 0 71 25 90 50 27
38 34 37 48 -1 11 -27 15 -30 50 -27 l38 3 -1 95 c-2 84 0 96 19 112 28 25 60
22 107 -7 50 -32 110 -143 110 -206 0 -64 -45 -149 -79 -149 -12 0 -12 3 -3
12 29 29 -6 188 -42 188 -14 0 -38 -59 -30 -72 8 -13 -36 -58 -57 -58 -10 0
-30 -11 -45 -25 -17 -15 -34 -23 -45 -20 -42 14 -85 -112 -59 -175 10 -23 15
-28 22 -18 5 8 8 1 6 -22 -1 -19 6 -49 14 -65 9 -17 23 -55 31 -85 9 -30 19
-65 23 -77 l6 -23 -811 0 -811 0 0 411 c0 342 2 413 14 425 9 8 34 14 63 14
66 0 91 9 99 32 9 31 24 2 24 -48 0 -22 6 -49 14 -60 14 -19 15 -19 22 1 3 11
20 50 37 88 27 60 29 71 19 105 -6 20 -16 60 -22 87 -20 92 -174 594 -246 800
-24 69 -24 74 -24 446 0 346 1 377 17 391 31 26 130 74 353 170 189 81 210 91
210 97 0 3 -26 29 -57 58 -42 37 -55 55 -47 62 11 12 67 -10 80 -30 8 -13 81
-59 94 -59 6 0 31 9 54 20 47 21 65 47 41 56 -8 4 -15 12 -15 19 0 8 -7 11
-18 8 -12 -3 -30 8 -50 28 -32 33 -42 69 -19 69 22 0 77 -39 77 -56 0 -10 8
-15 23 -14 42 4 52 0 62 -22 17 -40 75 -22 95 29 11 27 -25 106 -70 154 -42
44 -70 89 -70 112 0 9 2 17 4 17 16 0 75 -32 90 -49 23 -25 43 -27 68 -4 11 9
18 11 18 5 0 -25 19 -11 22 16 3 30 3 30 100 14 66 -10 88 -25 88 -60 0 -14
-3 -23 -6 -19 -4 3 -13 -1 -21 -9 -18 -17 -19 -16 28 -32 52 -18 108 -15 175
9 32 11 68 23 79 26 10 4 50 24 87 45 37 21 72 38 78 38 5 0 10 4 10 9 0 11
122 71 144 71 9 0 16 4 16 8 0 4 28 24 63 44 34 20 71 44 82 55 11 10 52 39
90 66 39 26 101 78 139 117 38 38 72 67 77 65 4 -3 5 4 2 15 -3 11 0 27 7 36
17 20 30 86 39 204 5 52 15 115 25 139 9 24 16 54 16 68 0 13 13 49 29 81 31
61 71 196 71 237 0 14 7 37 16 50 9 14 14 34 11 45 -3 13 4 31 19 49 13 16 24
39 24 50 0 12 7 24 15 27 8 4 15 16 15 29 0 12 7 42 16 66 14 38 23 128 26
244 0 37 -9 80 -28 122 -8 17 -14 48 -14 68 0 27 -8 47 -30 72 -16 18 -30 38
-30 44 0 13 -40 65 -47 61 -2 -2 -16 12 -31 31 -15 18 -33 32 -40 29 -7 -2
-12 5 -12 17 0 13 -7 21 -17 21 -23 1 -45 18 -67 52 -9 14 -33 34 -52 43 -19
9 -40 27 -46 40 -7 15 -21 25 -42 28 -17 2 -254 -20 -526 -49 -272 -30 -603
-65 -735 -79 -132 -14 -296 -32 -365 -40 -157 -19 -411 -45 -427 -45 -10 0
-13 169 -13 810 l0 811 3508 -1 c1929 -1 3544 -1 3590 0 l82 0 0 1775 0 1775
-3600 0 -3600 0 0 -6400z m6795 3679 c153 -68 200 -265 96 -404 -25 -34 -27
-41 -14 -50 23 -17 -3 -53 -49 -67 -30 -9 -45 -8 -80 5 -34 13 -55 15 -98 8
-30 -5 -63 -13 -73 -16 -53 -21 -137 34 -107 70 11 13 9 19 -8 38 -85 90 -82
268 6 360 77 82 216 105 327 56z m-652 5 c52 -18 116 -76 143 -132 28 -55 26
-174 -4 -229 -50 -95 -136 -143 -256 -143 -209 0 -331 220 -222 402 25 42 43
59 94 85 54 28 75 33 131 33 37 0 88 -7 114 -16z m-5834 -111 c15 -56 71 -300
71 -307 0 -3 -15 -6 -33 -6 -28 0 -34 4 -42 32 -9 29 -14 32 -50 31 -36 0 -40
-3 -47 -31 -8 -28 -13 -32 -42 -32 l-34 0 14 58 c7 31 26 110 41 175 l27 117
43 0 c40 0 43 -2 52 -37z m401 -55 l1 -93 30 38 c23 27 39 37 60 37 16 0 29
-3 29 -6 0 -4 -16 -28 -35 -53 -30 -41 -33 -50 -21 -67 7 -10 25 -40 40 -66
l27 -48 -35 0 c-30 0 -38 5 -57 40 -13 22 -26 40 -31 40 -4 0 -8 -18 -8 -40 0
-38 -2 -40 -30 -40 l-30 0 0 175 0 175 30 0 30 0 0 -92z m1740 -83 l0 -176
-42 1 c-24 1 -55 -1 -69 -5 -19 -5 -33 -1 -55 18 -28 24 -29 29 -29 106 1 69
4 85 22 102 22 22 54 28 91 15 21 -7 22 -5 22 53 l0 61 30 0 30 0 0 -175z
m452 83 l3 -92 25 37 c20 30 31 37 58 37 30 0 42 -12 24 -24 -5 -3 -21 -23
-36 -44 l-27 -40 40 -66 41 -66 -35 0 c-30 0 -38 5 -57 40 -13 22 -26 40 -30
40 -5 0 -8 -18 -8 -40 0 -39 -1 -40 -35 -40 l-35 0 0 168 c0 93 3 172 7 175 3
4 19 7 34 7 l28 0 3 -92z m728 28 l0 -65 35 15 c28 11 40 12 58 3 34 -18 37
-27 37 -136 l0 -103 -30 0 -30 0 0 90 c0 75 -3 92 -16 97 -37 14 -49 -10 -52
-101 l-3 -86 -29 0 -30 0 0 175 0 175 30 0 30 0 0 -64z m530 3 c0 -58 1 -60
23 -53 76 26 107 -8 107 -118 0 -71 -2 -81 -26 -105 -21 -21 -31 -24 -57 -18
-18 4 -49 6 -69 6 l-38 -2 0 176 0 175 30 0 30 0 0 -61z m-1482 -11 c3 -35 6
-38 33 -38 24 0 29 -4 29 -25 0 -21 -5 -25 -30 -25 l-31 0 3 -67 c3 -66 4 -68
31 -71 21 -3 27 -8 23 -19 -3 -8 -6 -19 -6 -24 0 -16 -73 -10 -92 8 -14 13
-18 31 -18 90 0 66 -2 75 -20 80 -13 3 -20 14 -20 29 0 17 6 24 20 24 17 0 20
7 20 41 0 38 1 40 28 37 23 -3 27 -8 30 -40z m-2094 -58 c24 -24 34 -122 17
-173 -15 -44 -59 -66 -97 -48 -14 6 -27 11 -29 11 -3 0 -5 -29 -5 -65 l0 -65
-30 0 -30 0 0 181 0 182 39 -6 c21 -2 45 -1 52 4 19 12 60 2 83 -21z m402 20
c8 0 23 -9 34 -20 17 -17 20 -33 20 -121 l0 -101 -32 3 c-18 1 -48 -1 -66 -5
-50 -12 -82 13 -82 64 0 44 20 64 83 81 28 7 37 15 35 27 -5 25 -45 27 -58 3
-13 -25 -48 -28 -57 -5 -13 34 56 90 95 78 8 -2 20 -4 28 -4z m293 -1 c38 -14
51 -35 51 -88 l0 -41 -61 0 c-60 0 -60 0 -57 -27 3 -32 44 -46 54 -19 4 10 18
16 35 16 35 0 39 -25 10 -61 -27 -34 -99 -34 -135 0 -23 22 -26 32 -26 96 0
79 20 120 63 128 12 2 25 5 28 6 3 0 20 -4 38 -10z m199 0 c29 -10 59 -59 45
-73 -15 -15 -51 -5 -56 15 -4 13 -12 20 -24 17 -31 -6 -27 -34 7 -48 78 -32
101 -82 61 -131 -15 -19 -29 -24 -66 -24 -37 0 -51 5 -66 24 -29 36 -25 61 11
61 24 0 30 -4 30 -21 0 -15 5 -20 22 -17 42 6 33 36 -16 58 -54 23 -75 57 -60
98 9 25 45 52 70 52 6 0 25 -5 42 -11z m219 -13 c6 -6 13 -22 15 -36 2 -21 -2
-26 -23 -28 -20 -2 -28 2 -32 18 -4 14 -12 21 -24 18 -29 -5 -21 -32 15 -50
73 -36 92 -81 53 -129 -15 -19 -29 -24 -66 -24 -37 0 -51 5 -66 24 -29 36 -25
61 10 61 21 0 30 -6 34 -21 7 -25 40 -22 45 4 3 12 -9 23 -42 37 -51 21 -70
54 -60 97 12 45 104 65 141 29z m182 13 c17 -6 36 -19 41 -29 6 -10 10 -62 10
-116 l0 -97 -40 6 c-22 3 -43 1 -46 -4 -8 -14 -47 -11 -72 7 -16 11 -22 25
-22 54 0 44 20 64 83 81 28 7 37 15 35 27 -5 25 -45 27 -58 3 -13 -25 -48 -28
-57 -5 -8 23 16 62 46 73 35 13 43 13 80 0z m319 -22 c16 -15 22 -32 22 -64
l0 -43 -61 0 c-60 0 -60 0 -57 -27 3 -32 44 -46 54 -19 8 20 64 22 64 2 0 -69
-102 -98 -158 -45 -19 17 -22 31 -22 98 0 68 3 80 23 98 12 11 29 23 37 26 25
9 73 -4 98 -26z m1000 -3 c19 -21 22 -36 22 -99 0 -70 -1 -74 -32 -100 -27
-23 -39 -26 -71 -22 -59 8 -80 35 -85 107 -3 36 1 72 9 91 24 60 111 73 157
23z m240 9 c8 -11 12 -53 12 -120 l0 -103 -30 0 -30 0 0 90 c0 75 -3 92 -17
97 -32 12 -53 -32 -53 -113 l0 -74 -30 0 -30 0 0 120 0 120 29 0 c16 0 31 -5
33 -12 3 -8 11 -7 29 5 27 20 67 15 87 -10z m530 -9 c15 -17 22 -38 22 -65 l0
-39 -61 0 c-60 0 -60 0 -57 -27 3 -32 44 -46 54 -19 4 10 18 16 35 16 35 0 40
-29 9 -60 -27 -27 -63 -34 -105 -20 -46 15 -55 34 -55 123 0 64 3 76 23 94 12
11 29 23 37 26 28 11 75 -3 98 -29z m542 10 c11 -11 15 -39 15 -117 l0 -102
-32 -3 -33 -3 0 91 c0 72 -3 92 -15 96 -33 13 -45 -15 -45 -102 l0 -84 -35 0
-35 0 0 120 0 120 35 0 c19 0 35 -4 35 -9 0 -6 12 -3 28 4 29 16 58 12 82 -11z
m215 -5 c17 -16 21 -36 23 -120 l4 -100 -44 1 c-23 1 -54 -1 -68 -5 -34 -9
-80 27 -80 61 0 42 17 62 70 79 37 12 50 22 50 36 0 26 -36 25 -52 -1 -12 -19
-48 -27 -61 -14 -3 3 -1 19 5 36 20 56 108 72 153 27z m394 20 c36 -13 61 -53
61 -99 l0 -30 -59 0 c-63 0 -76 -8 -66 -40 8 -24 55 -28 55 -5 0 11 11 15 36
15 32 0 35 -2 29 -22 -4 -13 -18 -34 -33 -47 -21 -19 -33 -22 -65 -18 -60 8
-80 35 -85 109 -5 79 9 115 50 133 41 17 38 17 77 4z m204 -3 c15 -8 27 -11
27 -5 0 5 14 9 31 9 l30 0 -3 -154 c-3 -134 -5 -157 -22 -175 -42 -46 -144
-35 -166 19 -7 16 -9 34 -5 39 10 18 44 12 57 -9 27 -42 78 -15 78 41 0 18 -3
20 -12 11 -7 -7 -29 -12 -49 -12 -56 0 -79 34 -79 116 0 72 13 107 44 122 29
14 37 14 69 -2z m285 -22 c19 -22 22 -36 22 -120 l0 -95 -42 1 c-24 1 -54 -1
-68 -5 -36 -9 -80 27 -80 65 0 27 32 70 52 70 5 0 24 7 43 14 25 11 33 19 29
30 -9 22 -41 20 -56 -4 -18 -29 -58 -27 -58 3 0 73 105 101 158 41z m-3048
-94 l0 -120 -35 0 -35 0 0 113 c0 63 3 117 7 120 3 4 19 7 35 7 l28 0 0 -120z
m2280 63 c19 -90 25 -92 45 -14 18 68 20 71 48 71 28 0 29 -2 23 -33 -3 -19
-25 -99 -49 -178 l-42 -144 -34 -3 c-28 -3 -33 -1 -27 14 28 74 28 99 -3 207
-18 59 -34 113 -37 122 -5 12 2 15 28 15 34 0 35 -1 48 -57z m-3560 -2338 c0
-9 10 -15 23 -16 16 -1 17 -3 5 -6 -25 -6 -11 -31 23 -38 16 -4 29 -12 29 -18
0 -6 15 -25 33 -42 43 -42 67 -73 67 -88 0 -7 18 -31 40 -52 22 -21 40 -45 40
-52 0 -7 9 -22 20 -33 32 -32 39 -27 -125 -94 -52 -21 -101 -55 -113 -78 -6
-13 -13 -43 -15 -68 -6 -57 -28 -120 -43 -120 -6 0 -23 -11 -38 -25 -24 -22
-26 -31 -26 -97 1 -80 17 -155 40 -183 11 -13 15 -53 18 -154 1 -75 5 -145 7
-156 3 -14 27 -32 70 -53 50 -25 68 -41 79 -66 8 -18 30 -46 50 -61 20 -15 36
-34 36 -41 0 -49 -170 -144 -257 -144 -40 0 -45 -3 -58 -32 -7 -18 -23 -39
-34 -46 -12 -7 -21 -19 -21 -27 0 -9 -9 -15 -24 -15 -13 0 -26 -7 -30 -15 -3
-8 -16 -15 -29 -15 -13 0 -32 -7 -43 -15 -10 -8 -29 -15 -41 -15 -13 0 -23 -4
-23 -10 0 -5 -8 -10 -18 -10 -10 0 -32 -13 -50 -30 -30 -27 -39 -30 -103 -30
-77 0 -103 9 -135 48 -18 22 -31 26 -130 34 -106 10 -110 11 -146 46 -21 20
-41 45 -44 56 -4 11 -14 27 -24 35 -18 16 -55 84 -105 192 -25 53 -26 64 -21
169 2 61 6 114 9 116 2 3 16 0 30 -5 14 -5 51 -8 84 -5 32 2 53 2 46 -1 -16
-9 30 -55 54 -55 11 0 26 -7 33 -15 7 -8 27 -17 46 -21 19 -3 37 -10 40 -15 3
-5 18 -9 33 -9 16 0 34 -7 41 -15 7 -8 23 -15 36 -15 27 0 29 -5 12 -25 -7 -8
-19 -21 -25 -29 -7 -8 -13 -40 -13 -71 0 -44 3 -55 16 -55 11 0 14 -5 9 -17
-15 -38 -18 -103 -4 -119 8 -9 14 -22 15 -28 0 -6 2 -17 2 -23 4 -32 45 -6
105 65 15 19 27 31 27 27 0 -4 15 10 34 29 40 43 71 46 142 13 71 -34 150 -35
196 -3 20 13 39 22 41 20 3 -3 22 2 42 10 20 9 40 14 44 12 4 -3 13 -1 20 3
41 26 -156 17 -226 -10 -41 -15 -61 -10 -98 25 l-34 34 7 228 c11 371 10 402
-15 453 -13 25 -23 54 -23 65 0 20 -46 76 -63 76 -5 0 -20 9 -34 20 -27 21
-111 28 -128 11 -6 -6 -47 -15 -93 -20 -46 -6 -96 -17 -110 -25 -15 -8 -42
-21 -59 -30 -18 -8 -33 -20 -33 -25 0 -6 -6 -11 -14 -11 -7 0 -16 -9 -19 -20
-3 -11 -10 -20 -17 -20 -7 0 -14 9 -17 20 -6 23 -8 24 -34 10 -22 -12 -25 -7
-6 12 7 7 25 34 40 61 33 55 145 152 187 161 16 3 67 1 114 -5 71 -9 89 -8
115 5 16 9 35 16 42 16 16 0 128 53 129 61 0 7 -79 39 -147 59 -43 13 -56 36
-28 46 8 4 15 11 15 18 0 6 13 25 29 42 30 33 77 54 121 54 14 0 35 7 46 15
25 19 27 19 55 -6 19 -17 33 -20 73 -16 50 4 66 17 66 55 0 12 5 22 10 22 6 0
10 7 10 15 0 8 4 15 9 15 5 0 13 10 16 23 16 56 41 107 53 107 6 0 12 11 12
25 0 16 6 25 15 25 8 0 15 5 15 10 0 6 5 10 10 10 6 0 10 -7 10 -15z m-864
-923 c2 -12 16 -27 29 -32 18 -7 25 -17 25 -35 0 -14 10 -39 22 -55 17 -24 29
-30 59 -30 50 0 111 -26 107 -47 -3 -17 -70 -54 -129 -72 -19 -6 -69 -11 -111
-11 -60 0 -80 4 -101 20 -14 11 -30 20 -36 20 -12 0 -41 64 -41 89 1 36 102
68 134 42 20 -17 58 -2 54 22 -2 15 -16 23 -51 32 -27 7 -53 17 -58 22 -16 16
0 41 45 72 40 28 41 29 44 8 1 -12 5 -32 8 -45z m3320 -2571 c4 -5 64 23 64
31 0 4 17 4 38 1 43 -6 107 -61 127 -108 7 -17 41 -56 74 -88 71 -68 71 -78
-11 -120 -29 -15 -76 -50 -105 -76 l-51 -49 -6 -154 c-3 -84 -4 -169 -3 -188
1 -19 -2 -47 -6 -63 -8 -29 -7 -30 43 -41 34 -8 46 -17 54 -42 5 -17 0 -23
-34 -34 -22 -7 -40 -19 -40 -26 0 -7 -9 -16 -20 -19 -49 -16 -5 -36 60 -28 33
5 40 3 40 -11 0 -10 -15 -30 -32 -47 l-32 -29 59 -1 c119 -2 132 -17 90 -103
-37 -75 -50 -84 -120 -86 -97 -3 -154 34 -233 150 -16 25 -44 59 -62 75 -60
56 -129 182 -175 320 -29 88 -11 213 38 253 12 10 16 9 20 -8 8 -31 24 -24 19
8 -2 18 2 35 13 45 24 25 35 21 35 -12 0 -19 8 -36 25 -49 22 -17 29 -18 72
-7 60 15 69 42 26 80 -23 20 -38 24 -93 25 -41 0 -60 4 -51 9 11 7 9 10 -9 16
-19 6 -21 12 -15 41 5 27 3 34 -10 34 -13 0 -16 -9 -14 -39 3 -44 -20 -78 -40
-58 -14 14 -14 54 0 59 5 2 10 24 11 48 0 45 31 106 48 95 13 -8 27 17 50 90
24 75 57 119 105 139 27 12 31 11 39 -8 6 -12 11 -23 12 -25z m444 -332 c0
-10 -58 -54 -85 -63 -18 -7 -18 -9 -4 -19 9 -7 16 -23 15 -37 -1 -20 6 -27 31
-34 24 -7 33 -16 35 -35 3 -25 5 -26 63 -23 86 4 87 3 65 -68 -23 -77 -42 -99
-78 -92 -37 6 -51 19 -68 61 -8 21 -35 51 -61 71 -70 52 -73 57 -66 92 4 23 2
33 -11 40 -16 9 -16 11 1 30 10 11 30 26 45 34 17 9 25 20 22 29 -4 10 3 16
23 20 15 4 33 8 38 9 14 4 35 -5 35 -15z m-1416 -111 c3 -7 7 -35 10 -61 5
-44 4 -48 -13 -42 -27 8 -53 -20 -45 -51 9 -34 -20 -54 -70 -52 -24 1 -41 -3
-44 -10 -2 -7 -12 -12 -21 -12 -10 0 -23 -12 -30 -26 -6 -15 -15 -24 -18 -20
-8 7 27 86 39 86 4 0 16 8 27 18 10 9 40 36 67 60 26 24 49 51 50 60 2 9 8 18
13 20 6 2 11 12 11 23 0 21 18 26 24 7z m-455 -638 c40 -20 102 -101 100 -129
-1 -13 -2 -12 -6 2 -2 9 -11 17 -20 17 -10 0 -13 -6 -9 -16 5 -13 0 -15 -35
-9 -40 7 -99 -9 -99 -26 0 -5 -6 -9 -13 -9 -7 0 -32 -21 -55 -47 -23 -25 -43
-44 -45 -42 -34 58 -36 119 -6 185 25 51 80 94 122 94 15 0 45 -9 66 -20z
m-374 -452 c-35 -70 -59 -178 -35 -163 5 3 17 2 25 -3 16 -8 10 -11 -95 -40
-37 -11 -35 -36 7 -77 36 -35 41 -37 88 -32 28 2 58 8 67 12 16 7 17 4 2 -47
-9 -29 -20 -57 -25 -63 -6 -5 -59 -10 -119 -10 -101 0 -110 2 -134 24 -51 48
-71 176 -36 240 19 36 81 101 96 101 29 0 130 61 149 90 26 39 33 14 10 -32z
m1314 -90 c4 -12 4 -40 0 -62 -5 -23 -6 -75 -3 -116 4 -48 2 -70 -4 -62 -12
18 -22 -6 -22 -54 l0 -34 -57 0 c-32 0 -74 3 -94 6 -35 6 -36 7 -28 38 29 109
34 126 42 126 4 0 15 17 23 38 38 96 48 111 78 126 42 21 55 20 65 -6z"/>
<path d="M6613 9773 c-20 -4 -23 -11 -23 -51 l0 -47 85 0 85 0 0 46 c0 40 -3
48 -22 53 -25 6 -90 6 -125 -1z"/>
<path d="M4127 8740 c-8 -19 -25 -72 -37 -117 -19 -69 -26 -82 -47 -88 -15 -3
-38 -28 -63 -68 -65 -104 -89 -137 -100 -137 -19 0 -10 37 16 61 47 44 72 119
40 119 -27 0 -66 -43 -102 -111 -20 -38 -39 -67 -41 -65 -3 3 7 59 23 125 22
99 31 121 45 121 10 0 21 5 25 12 5 8 0 9 -15 5 -20 -5 -22 -3 -16 23 9 40
-11 46 -24 7 -6 -17 -22 -40 -34 -49 -18 -14 -19 -18 -5 -18 14 0 13 -12 -11
-105 -25 -91 -47 -143 -57 -132 -2 1 3 27 11 57 17 63 18 80 7 80 -9 0 -17
-14 -56 -104 -15 -32 -28 -57 -31 -55 -2 3 5 38 16 79 11 41 25 93 29 115 5
22 16 67 24 100 15 63 12 83 -7 50 -13 -22 -24 -56 -52 -151 -14 -50 -22 -62
-45 -71 -19 -7 -39 -29 -57 -62 -15 -28 -33 -51 -39 -51 -7 0 -15 -11 -18 -24
-7 -28 -67 -96 -85 -96 -14 0 -14 55 1 119 10 45 15 52 42 59 41 11 49 37 9
28 l-30 -7 13 51 c16 62 19 66 44 73 15 4 26 -2 37 -20 16 -23 17 -24 24 -7 4
11 8 29 8 42 1 21 -2 23 -31 17 -18 -3 -54 -13 -80 -22 -42 -13 -47 -17 -42
-37 7 -31 -14 -107 -33 -122 -10 -7 -12 -13 -6 -17 7 -4 6 -22 -2 -54 -7 -27
-16 -68 -20 -92 l-7 -44 33 7 c106 21 138 39 140 79 1 21 1 20 8 -2 10 -38 27
-36 56 6 25 35 27 36 21 11 -9 -39 12 -36 47 4 16 18 27 26 24 17 -11 -35 10
-41 36 -10 25 30 38 39 36 24 -7 -47 12 -41 46 13 l29 46 8 -31 c14 -53 54
-36 105 45 11 17 12 16 12 -13 1 -44 15 -41 52 10 26 36 30 38 27 17 -2 -14 2
-27 7 -30 12 -6 84 98 84 120 0 8 -9 -2 -20 -23 -11 -22 -23 -37 -25 -34 -3 2
14 78 36 167 41 163 48 229 17 160z"/>
<path d="M4755 8519 c-82 -5 -161 -14 -175 -19 -16 -6 20 -7 105 -2 72 4 288
7 480 6 288 0 387 -4 560 -22 493 -53 880 -135 1305 -279 58 -20 117 -42 132
-49 33 -17 38 -17 38 -1 0 13 -281 110 -470 162 -321 90 -693 155 -1075 191
-200 18 -701 26 -900 13z"/>
<path d="M3828 8055 c-2 -3 -31 -10 -64 -16 -91 -16 -187 -47 -327 -106 -71
-29 -146 -57 -168 -63 -42 -11 -54 -40 -18 -40 12 0 105 29 208 64 212 73 403
116 518 116 101 0 110 -6 95 -59 -23 -76 -165 -208 -348 -323 -83 -52 -114
-67 -114 -54 0 2 -6 39 -14 82 -8 44 -18 110 -21 148 -9 86 -12 96 -36 96 -21
0 -24 -21 -20 -115 2 -56 39 -218 76 -340 14 -44 25 -85 25 -92 0 -13 -13 -18
-75 -28 -62 -10 -102 -34 -125 -72 -11 -20 -19 -38 -16 -40 3 -3 21 5 42 17
59 37 194 80 215 69 26 -13 49 -11 49 5 0 22 5 23 194 71 181 45 229 64 240
90 3 8 9 15 13 14 23 -4 34 4 44 27 31 83 -164 155 -341 125 -30 -5 -59 -7
-63 -4 -5 3 29 30 75 60 144 95 258 216 258 273 0 38 -32 74 -78 88 -38 12
-214 17 -224 7z m295 -493 c37 -16 37 -18 22 -40 -25 -34 -80 -58 -247 -106
-222 -65 -207 -66 -240 24 -15 41 -27 78 -27 83 -1 4 11 12 27 19 59 24 153
36 287 37 113 0 147 -3 178 -17z"/>
<path d="M4456 7975 c-19 -15 -19 -43 0 -176 4 -31 1 -38 -20 -53 -14 -9 -26
-23 -26 -32 0 -44 -69 -149 -93 -141 -7 2 -19 26 -29 53 -12 37 -22 50 -38 52
-22 4 -23 2 -16 -50 11 -79 25 -102 65 -106 39 -4 66 17 116 92 30 44 34 46
43 29 12 -21 28 -140 37 -270 5 -72 3 -82 -12 -87 -25 -8 -287 -36 -334 -36
-69 0 -49 22 123 131 111 71 155 109 125 109 -15 0 -328 -206 -339 -224 -15
-22 -8 -46 15 -51 12 -4 114 5 226 19 113 15 206 26 208 26 1 0 3 -25 3 -56
l0 -55 25 28 24 28 1 -30 c3 -82 29 -146 73 -184 15 -11 18 -10 27 14 5 14 10
32 10 39 0 7 8 20 19 30 16 15 19 15 31 1 7 -9 15 -38 18 -66 2 -27 9 -52 15
-56 5 -3 25 12 43 33 l34 39 20 -24 c11 -13 20 -30 20 -38 0 -12 3 -13 14 -4
11 9 23 8 53 -6 51 -24 54 -56 13 -130 l-32 -57 33 29 c57 47 129 67 129 34 0
-4 11 -20 25 -35 14 -15 25 -35 25 -44 0 -10 -25 -41 -56 -69 -30 -28 -54 -51
-51 -51 2 0 25 12 51 26 26 14 53 23 61 20 35 -13 4 -118 -54 -179 l-26 -29
36 21 c39 23 72 19 98 -13 8 -9 35 -28 61 -42 37 -20 56 -41 85 -90 21 -36 51
-76 67 -89 40 -33 93 -33 138 0 19 14 40 25 47 25 7 0 30 -16 52 -35 44 -40
56 -43 71 -16 13 25 0 58 -34 90 -22 20 -26 33 -26 77 0 48 -3 55 -36 82 -31
26 -35 34 -32 68 3 37 2 38 -37 49 -22 7 -41 19 -43 27 -5 24 37 48 81 48 44
0 70 -12 109 -47 14 -14 31 -22 37 -19 6 4 11 35 11 69 0 59 -2 63 -34 84 -24
16 -47 47 -76 105 -49 98 -63 115 -112 135 -26 10 -47 30 -68 64 -32 52 -60
69 -150 88 -41 9 -66 9 -106 0 -51 -11 -54 -11 -85 15 -26 22 -39 26 -63 21
-17 -4 -48 -9 -69 -12 -36 -6 -39 -4 -35 18 2 18 13 27 43 37 30 9 45 22 60
50 17 31 26 37 57 40 33 3 44 -3 88 -44 50 -47 51 -48 86 -35 35 12 37 12 69
-19 26 -25 38 -30 56 -25 54 17 51 41 -17 155 -55 91 -57 95 -56 162 1 63 -1
72 -25 94 -29 27 -61 30 -129 13 -56 -14 -75 -1 -72 47 3 42 -16 63 -63 70
-84 14 -195 -48 -244 -136 -28 -50 -34 -55 -72 -60 -49 -7 -90 -32 -105 -66
-6 -13 -14 -24 -17 -24 -3 0 -20 40 -37 88 -29 81 -63 245 -81 389 -8 58 -9
61 -27 48z"/>
<path d="M2690 5971 c-89 -25 -116 -37 -140 -61 -11 -11 -31 -25 -44 -30 -17
-6 -23 -17 -24 -40 -1 -31 0 -32 31 -25 18 3 37 7 42 9 6 1 15 4 20 8 6 3 38
12 72 19 48 10 70 10 101 1 22 -7 57 -12 78 -12 53 0 236 -47 246 -62 4 -7 8
-25 8 -40 0 -40 10 -57 41 -73 36 -19 128 -19 153 0 27 20 50 19 71 -5 22 -24
37 -26 28 -3 -5 13 -2 15 18 9 13 -4 31 -9 39 -11 10 -3 33 21 65 67 49 71 99
118 111 105 3 -3 -3 -36 -15 -73 -11 -37 -19 -69 -16 -72 2 -3 7 3 11 12 8 22
75 56 109 56 23 0 55 19 55 33 0 3 -24 13 -52 23 -29 9 -75 28 -103 41 -27 12
-62 23 -77 23 -14 0 -66 13 -115 29 -48 16 -122 32 -163 35 -41 4 -111 18
-155 31 -68 21 -99 25 -205 24 -88 0 -144 -5 -190 -18z"/>
<path d="M4271 5908 c-5 -13 -29 -42 -54 -66 -34 -34 -43 -49 -39 -68 2 -13 9
-24 16 -24 6 0 0 -9 -14 -19 -24 -19 -24 -20 -7 -55 16 -35 18 -36 75 -36 46
0 61 4 75 21 18 20 18 21 -2 14 -34 -11 -24 11 25 53 l47 40 -46 -5 c-39 -5
-47 -2 -57 17 -7 12 -10 49 -8 86 2 35 2 64 0 64 -1 0 -6 -10 -11 -22z"/>
<path d="M2344 5873 c-43 -70 -142 -202 -188 -252 -98 -107 -241 -241 -285
-266 -10 -5 -24 -16 -32 -22 -128 -112 -520 -333 -834 -472 -251 -111 -262
-118 -237 -146 5 -6 14 -30 21 -55 8 -25 20 -65 27 -90 24 -78 81 -292 99
-370 9 -41 25 -111 36 -155 52 -221 64 -515 28 -683 -23 -105 -20 -99 -297
-637 -121 -234 -135 -267 -122 -297 5 -13 9 -18 9 -12 1 7 11 14 24 18 13 3
29 16 36 28 7 13 28 34 47 48 20 14 41 31 47 38 7 7 19 22 29 32 9 10 19 27
23 39 3 11 14 23 24 26 10 3 44 35 77 71 32 36 70 70 82 75 13 5 26 18 29 29
3 11 9 20 13 20 4 0 11 12 15 27 9 38 42 109 58 125 7 7 27 33 44 58 17 25 41
53 52 62 12 10 21 25 21 34 0 13 6 10 25 -10 28 -30 65 -98 65 -119 0 -7 6
-21 13 -31 12 -17 16 -17 42 -4 25 14 34 14 79 1 76 -22 167 -34 201 -27 28 5
29 5 10 -9 -11 -8 -44 -22 -72 -31 -29 -10 -53 -22 -53 -27 0 -12 26 -5 90 23
25 11 55 21 68 23 22 2 65 38 56 47 -2 3 11 3 29 2 17 -2 24 -1 14 2 -14 5 -9
14 32 52 49 47 59 69 75 164 l7 36 99 -3 c75 -3 100 -1 100 9 0 17 -21 36 -40
36 -21 0 -98 74 -131 125 -38 59 -44 106 -19 152 34 65 22 106 -21 67 -10 -9
-37 -18 -61 -21 -49 -7 -61 -18 -52 -53 8 -34 43 -110 65 -141 10 -14 20 -38
23 -54 10 -53 26 -53 26 1 l0 49 18 -30 c23 -38 88 -95 107 -95 8 0 15 -4 15
-10 0 -13 -21 -13 -78 2 -44 11 -88 34 -143 77 -14 11 -43 23 -65 27 -52 10
-116 61 -112 90 1 12 -3 29 -11 38 -12 14 -11 16 3 16 10 0 15 4 11 10 -3 5
-15 6 -28 1 -25 -10 -113 -31 -127 -31 -15 0 0 60 32 125 43 89 71 132 116
178 22 23 48 58 57 77 10 19 21 37 25 40 12 9 190 384 190 400 0 6 5 10 10 10
6 0 10 6 10 14 0 7 14 38 30 69 17 31 30 66 30 78 0 11 11 39 24 62 13 23 43
94 67 157 23 63 45 117 49 120 13 10 82 226 89 280 5 31 15 69 24 86 8 16 18
48 22 69 9 50 30 128 61 225 13 41 24 88 24 105 0 17 5 36 11 42 5 5 11 50 13
99 2 68 8 99 25 132 30 60 21 62 -15 5z m-652 -2573 c38 -20 66 -28 81 -25 15
4 31 0 45 -12 l22 -18 -23 -61 c-12 -34 -28 -68 -35 -77 -10 -12 -10 -16 0
-20 10 -4 8 -10 -7 -22 -29 -24 -84 -14 -187 34 -79 36 -86 42 -91 72 -3 19
-8 44 -12 56 -6 18 -2 25 19 34 19 9 25 17 20 31 -4 13 1 21 18 27 43 18 92
12 150 -19z"/>
<path d="M2579 3903 c-9 -2 -26 -28 -39 -58 -29 -69 -62 -80 -156 -49 -45 14
-52 14 -89 -2 l-40 -17 54 -24 c29 -13 78 -26 110 -29 50 -5 61 -3 103 25 48
31 90 85 102 134 7 28 -2 32 -45 20z"/>
<path d="M1990 3680 c-13 -8 -13 -11 1 -22 8 -7 28 -30 43 -51 35 -48 81 -77
121 -77 40 0 51 9 59 47 7 31 -11 84 -33 97 -11 7 -61 -14 -61 -25 0 -13 -38
2 -56 22 -18 20 -50 24 -74 9z"/>
<path d="M6858 3493 c-21 -3 -33 -16 -53 -55 -31 -61 -24 -74 34 -58 23 6 46
8 52 5 5 -4 15 -2 22 3 7 6 23 12 36 14 35 5 48 30 32 64 -8 18 -15 24 -20 16
-7 -12 -51 -5 -51 9 0 9 -4 9 -52 2z"/>
<path d="M6730 3322 c0 -6 -13 -13 -30 -17 -16 -4 -30 -11 -30 -16 0 -5 -11
-15 -25 -21 -22 -10 -24 -16 -19 -52 3 -23 10 -58 16 -78 18 -60 57 -59 58 2
0 14 14 52 30 85 16 33 30 66 30 73 0 7 5 10 10 7 6 -3 10 -1 10 4 0 6 -4 11
-9 11 -5 0 -16 3 -25 6 -9 3 -16 2 -16 -4z"/>
<path d="M7160 2968 c-11 -18 -32 -67 -46 -108 -15 -41 -39 -109 -54 -150 -23
-61 -27 -88 -25 -147 4 -81 24 -138 25 -68 0 68 27 149 85 261 51 99 55 112
55 175 0 77 -10 86 -40 37z"/>
</g>
</svg>
